<svg id="Layer_1" data-name="Layer 1" xmlns="http://www.w3.org/2000/svg" viewBox="0 0 1920 1080"><defs><style>.cls-1{fill:blue;opacity:0.2;}.cls-2{fill:#fff;}.cls-3{font-size:60px;font-family:VarelaRound-Regular, Varela Round;}.cls-4{letter-spacing:-0.08em;}.cls-5{letter-spacing:-0.01em;}.cls-6{letter-spacing:-0.01em;}.cls-7{letter-spacing:-0.01em;}.cls-8{letter-spacing:-0.01em;}.cls-9{letter-spacing:0em;}.cls-10{letter-spacing:-0.01em;}.cls-11{letter-spacing:0em;}.cls-12{letter-spacing:-0.02em;}</style></defs><circle class="cls-1" cx="1468" cy="571" r="423"/><path class="cls-2" d="M1804,522.5c0,31,58.6,121.41,1,143.5-35.82,13.74-138.23,30-189,38-53.23,8.36-205.65,16-269,16-68,0-197.93,3.54-254-6-50.72-8.63-84.15-71-91-108-15-81-3.64-97.66,19-116,58-47,83-27,139-23,34.63,2.47,38.93-44.23,77-74,55-43,33-163,212-163,65.79,0,102.26,42.51,151,69,46,25,39.12,112.15,72,124C1734.41,445.49,1804,490.11,1804,522.5Z"/><path d="M1236.2,722.83c-8.49-.07-17-.45-25.47-.79q-14.64-.6-29.28-1-6.53-.15-13-.34c-4.4-.12-8.82-.31-13.21-.63s-9-.61-13.47-1q-7.29-.68-14.57-1.39-7.08-.67-14.14-1.31c-3.92-.35-7.84-.64-11.74-1.06l-8.35-.91c-2.1-.23-4.2-.61-6.29-.93-3.27-.5-6.5-1.09-9.74-1.8a109.49,109.49,0,0,1-14.48-4.44l-7.14-2.66c-2.3-.86-4.56-1.89-6.83-2.84-1.66-.68-3.28-1.42-4.91-2.16-2.22-1-4.45-2-6.61-3.13-2.37-1.25-4.76-2.46-7.07-3.81a89.73,89.73,0,0,1-12.63-8.93,71.59,71.59,0,0,1-10.32-10.2c-1.52-1.93-3-3.87-4.39-5.87s-2.72-4-4-6.08a109.1,109.1,0,0,1-6.63-12.33c-.48-1-.84-2.07-1.26-3.09-.31-.77-.59-1.53-.87-2.31-.93-2.66-1.83-5.31-2.67-8-1.35-4.39-2.57-8.82-3.72-13.26-.55-2.08-1-4.18-1.46-6.29-.28-1.28-.64-2.58-.83-3.87s-.39-2.59-.58-3.89a117.91,117.91,0,0,1-1.06-13.93c-.13-4.32-.13-8.65.1-13,.16-3,.29-6.08.55-9.12a106,106,0,0,1,3.38-19A115.63,115.63,0,0,1,990,536.21c1.23-2.7,2.7-5.3,4-8,.91-1.77,1.93-3.48,2.93-5.2s2.18-3.71,3.34-5.52c1.31-2,2.56-4.15,4-6.13,1.56-2.22,3.13-4.43,4.7-6.65,1.18-1.68,2.52-3.26,3.79-4.87s2.4-3,3.68-4.51l5.07-5.87c1.72-2,3.62-3.83,5.45-5.71,1.23-1.26,2.42-2.54,3.73-3.7l6.28-5.63c1.82-1.63,3.82-3.05,5.75-4.53s3.68-2.68,5.58-3.95c1.69-1.13,3.35-2.32,5.1-3.35,2.35-1.38,4.66-2.84,7.1-4.06,3.3-1.64,6.56-3.31,10-4.69a78.59,78.59,0,0,1,20.75-5.09c9-1,18.27.09,27.1,2.16l3.77.89a72.83,72.83,0,0,1,9.55,3.2,75.4,75.4,0,0,1,18.31,10.7c3.32,2.55,6.32,5.48,9.37,8.34,2,1.81,3.88,3.64,5.81,5.47h0a109.76,109.76,0,0,0,9.06,7.32l.32.18a.89.89,0,0,1,.08,1.77,1.33,1.33,0,0,1-.56,0,28.63,28.63,0,0,1-3.51-1.63,81.1,81.1,0,0,1-7.17-4.27c-2-1.31-3.94-2.8-5.9-4.22s-4.1-2.93-6.14-4.39c-2.47-1.6-5-3.13-7.57-4.49a71.2,71.2,0,0,0-7.41-3.18c-2.58-.86-5.17-1.58-7.82-2.18-2.83-.55-5.66-1-8.52-1.25-1.91-.12-3.84-.3-5.75-.3-3.47,0-6.93,0-10.4.18a81.71,81.71,0,0,0-8.39,1.15,87.36,87.36,0,0,0-8.54,2.42c-3,1.11-5.88,2.34-8.74,3.72-3.11,1.63-6.12,3.45-9.14,5.24-.91.54-1.77,1.17-2.65,1.76l-3,2-6.3,4.68c-1.16.86-2.23,1.86-3.34,2.78l-2.76,2.29-6.67,6.35c-1.16,1.11-2.2,2.38-3.28,3.55l-3.35,3.61c-2.78,3.36-5.59,6.68-8.21,10.17-1.31,1.76-2.69,3.49-3.92,5.3l-3.7,5.42-4.36,7.08c-1.46,2.37-2.76,4.86-4.13,7.28l-2.46,4.93a108.06,108.06,0,0,0-4.83,11.43,94.47,94.47,0,0,0-2.81,10.07c-.73,4-1.21,7.91-1.56,11.91-.19,3.54-.39,7.07-.41,10.62,0,1.71-.07,3.42,0,5.13.06,2,.12,4.07.19,6.11l.42,5.14c.08,1,.32,2.08.47,3.11l.42,2.8c.4,1.8.79,3.59,1.18,5.39.49,2.22,1.16,4.42,1.73,6.63,1,4,2.3,7.91,3.52,11.84.62,1.77,1.23,3.52,1.94,5.25s1.57,3.63,2.43,5.43,1.84,3.34,2.82,5,2.11,3.37,3.2,5c.78,1.1,1.55,2.2,2.34,3.3s1.73,2.23,2.61,3.33c.69.76,1.37,1.51,2.07,2.26s1.74,1.68,2.63,2.49c2.47,2.08,5,4.1,7.6,6a78.09,78.09,0,0,0,6.74,4.05l4.44,2.35c3.94,1.79,7.87,3.56,11.87,5.22s8,3.16,12.09,4.67c2.15.73,4.31,1.43,6.5,2.06,2,.58,4.09,1,6.15,1.48,6.49,1.25,13.08,1.93,19.66,2.65,6,.66,12.07,1.09,18.1,1.63,5.61.51,11.22,1.09,16.83,1.62,6,.56,12,1,18.06,1.48q13.23.59,26.47.89c9.43.22,18.84.58,28.27,1,17.39.71,34.82,1.16,52.23.62,9.36-.29,18.72-.61,28.08-.78,9.68-.17,19.36-.35,29-.6,18.35-.46,36.69-1.27,55-2.3,14.94-.84,29.88-1.82,44.81-2.81q14.19-1.07,28.4-2.07c8.36-.6,16.72-1.18,25.09-1.58l16.14-.77c4.86-.23,9.73-.33,14.59-.49,8.64-.29,17.27-.53,25.9-.95l9.06-.44c18.09-1.25,36.17-2.69,54.26-4.09,17.37-1.35,34.76-2.43,52.14-3.73s34.46-2.7,51.66-4.44c8.34-.85,16.68-1.85,25-2.88,4.27-.53,8.54-1.12,12.81-1.7,3.81-.52,7.6-1.23,11.39-1.86l8.6-1.79c1.85-.39,3.68-1,5.5-1.45,2.29-.61,4.54-1.25,6.79-2a89.43,89.43,0,0,0,8.45-3.57c1.87-1,3.7-2,5.48-3.16,1.3-.93,2.55-1.9,3.78-2.92s2.21-2.11,3.26-3.23c2.14-2.51,4.14-5.11,6-7.82,2.53-3.84,4.83-7.8,7.17-11.76.64-1.1,1.16-2.27,1.73-3.39l2-4c1.41-3.09,2.73-6.21,3.89-9.4a137.53,137.53,0,0,0,4-14.67c.63-3.26,1.07-6.55,1.57-9.83.34-2.33.48-4.71.67-7.05.14-3.56.1-7.1-.1-10.65-.35-4.1-1-8.16-1.57-12.23-.62-2.88-1.23-5.75-1.85-8.63-.3-1.37-.8-2.73-1.2-4.08l-1.53-5.18c-1-2.65-2-5.3-3-7.94-.4-1.09-.95-2.15-1.42-3.21-.62-1.4-1.24-2.79-1.87-4.19q-1.44-2.77-2.9-5.53c-1-1.83-2.06-3.57-3.13-5.34s-2.27-3.8-3.52-5.64l-3.6-5.34-5.42-7.11c-.73-1-1.56-1.85-2.34-2.76l-2.78-3.27c-2.89-3.11-5.78-6.22-8.77-9.23s-5.9-5.74-8.9-8.55c-3-2.5-5.92-5-9-7.36-1.43-1.1-2.84-2.24-4.33-3.27q-2.62-1.85-5.25-3.66c-3.62-2.26-7.21-4.51-11-6.49-2.27-1.08-4.57-2.05-6.93-2.93a86.14,86.14,0,0,0-9.23-2.51c-2.94-.54-5.89-.9-8.86-1.28-1.81-.23-3.64-.34-5.47-.46-2.76-.12-5.51-.24-8.27-.27-3.08,0-6.14,0-9.21.13-2.57.19-5.13.38-7.69.65-2.85.29-5.69.64-8.54,1s-6,.68-8.92,1.14c-1.44.22-2.9.38-4.33.67l-3.69.75c-3.3.88-6.58,1.8-9.86,2.79l.47-.17c-1.15.39-2.31.76-3.41,1.24l-4.49,2-4,2.05c-1.9,1-3.73,2.09-5.59,3.13-3.58,2-7.1,4.13-10.65,6.18-7.36,4.26-14.63,8.65-21.78,13.26a10.63,10.63,0,0,1-8.32,1.09,10.81,10.81,0,0,1-7.54-13.29,10.76,10.76,0,0,1,1.86-3.72,12.43,12.43,0,0,1,3.1-2.73c7.25-4.86,14.67-9.42,22.2-13.84,8-4.72,15.93-9.64,24.45-13.37a112.27,112.27,0,0,1,28-7.7c4.29-.66,8.61-1.13,12.92-1.65,4.59-.55,9.17-1,13.78-1.28s9.23-.3,13.86-.25c2.46,0,5,.15,7.43.35,2.13.16,4.29.23,6.41.51l6.76.88a76.93,76.93,0,0,1,8.33,1.72,89.62,89.62,0,0,1,9.75,3.07,71.3,71.3,0,0,1,7.89,3.52c1.84.93,3.69,1.88,5.45,3l6.6,4.1c2.32,1.44,4.53,3.13,6.77,4.69,1.87,1.31,3.65,2.72,5.46,4.11,1.5,1.16,3,2.34,4.43,3.56,2,1.66,4,3.27,5.89,5l5.68,5.32c1.73,1.61,3.35,3.36,5,5,1.33,1.34,2.61,2.71,3.9,4.09,1.7,1.83,3.43,3.64,5,5.54l5,5.92c1.57,1.84,3,3.86,4.41,5.78,1.17,1.54,2.25,3.14,3.34,4.74,1.33,2,2.79,4,4,6l4,6.64c1.05,1.76,2,3.56,2.94,5.38s2.08,3.81,3,5.79c1,2.32,2.07,4.66,3.11,7,.33.75.57,1.56.86,2.33.53,1.44,1.07,2.88,1.6,4.31.76,2,1.45,4.09,2.07,6.17q1,3.55,2.09,7.11c.22.76.34,1.57.5,2.35.37,1.74.75,3.48,1.12,5.23s.78,3.71,1,5.59l1.11,7.86c.22,1.58.28,3.21.38,4.81s.18,3.32.24,5a73.5,73.5,0,0,1-.23,8.65c-.21,2.39-.42,4.79-.64,7.18-.08.91-.27,1.82-.41,2.72-.23,1.51-.45,3-.68,4.52a126.08,126.08,0,0,1-3.15,14.27,120.58,120.58,0,0,1-6.24,17.3c-1.31,2.93-2.86,5.78-4.31,8.65a148.52,148.52,0,0,1-7.49,12.86,101,101,0,0,1-10.24,13.58,63.16,63.16,0,0,1-15,11.9,83.58,83.58,0,0,1-15.35,6.82c-3.17,1.07-6.35,1.92-9.58,2.77-4.32,1.14-8.68,2-13,2.9-2.35.49-4.72.84-7.08,1.23-2,.33-4,.69-6,1-4.79.65-9.58,1.3-14.38,1.9-18.28,2.26-36.6,4.05-55,5.56-18,1.48-35.95,2.58-53.92,3.91-18.85,1.4-37.69,2.89-56.53,4.36q-13.22,1-26.47,1.67c-8.82.43-17.65.7-26.48,1q-14,.47-28,1.12c-7.84.37-15.68.89-23.51,1.38-18,1.3-36,2.65-54,3.76-17.85,1.11-35.7,2.27-53.57,2.93-9.37.35-18.74.69-28.1.93-9.74.25-19.47.41-29.21.59-9.18.16-18.34.5-27.51.78-4.06.13-8.12.17-12.18.17C1245.63,722.93,1240.92,722.87,1236.2,722.83Z"/><path d="M1670.78,432.72a1.54,1.54,0,0,1-1.51-1.91,0,0,0,0,0,0,0c0-.08,0-.15,0-.22s0-.31,0-.46c0-.31-.08-.61-.14-.92-.59-2.58-1.24-5.14-2-7.68-.79-2.71-1.69-5.36-2.62-8l-1.23-3c-.42-1-.78-2.08-1.26-3.07-1-2.14-2.08-4.3-3.11-6.44-2.2-4-4.4-8-6.73-11.89s-4.73-7.61-7.16-11.39c-2.59-3.67-5.17-7.32-7.9-10.89s-5.61-7.19-8.47-10.76l-9.13-11.31c-2.82-3.48-5.71-6.91-8.61-10.34l-4.72-5.1c-1.34-1.44-2.73-2.79-4.14-4.17s-2.91-2.89-4.43-4.26l-5.25-4.74c-2.86-2.37-5.69-4.77-8.66-7-1.61-1.2-3.17-2.48-4.83-3.6l-6-4c-5-3.06-10-6.15-15.17-8.95q-8.12-4.41-16.3-8.66c-3.41-1.69-6.82-3.39-10.26-5q-6.68-3.12-13.37-6.19-6.36-2.93-12.73-5.81c-3.73-1.69-7.58-3.16-11.37-4.71l-7.88-2.69c-2.33-.79-4.7-1.39-7.08-2s-4.85-1.36-7.31-1.87l-8.16-1.69c-5.23-.88-10.44-1.77-15.69-2.48-2.38-.32-4.75-.67-7.14-.89l-8.87-.86a231.67,231.67,0,0,0-25.68-.44,107.58,107.58,0,0,0-11.71,1.57,103.17,103.17,0,0,0-10.63,2.92c-3.93,1.43-7.73,3.13-11.56,4.78l-5.86,3c-2.2,1.12-4.3,2.46-6.43,3.69-4,2.29-7.79,4.83-11.63,7.32-2.19,1.49-4.35,3-6.46,4.57s-4.12,3.28-6.13,5c-2.36,2.2-4.69,4.4-7,6.68s-4.75,4.89-7,7.43a74,74,0,0,0-4.57,5.88c-1.27,1.93-2.41,3.92-3.5,6l-2.07,4.28c-.72,1.49-1.26,3.1-1.88,4.65a84.89,84.89,0,0,0-2.64,8.81c-.18,1.11-.33,2.21-.45,3.33a10.55,10.55,0,0,1-3,7.11,10.12,10.12,0,0,1-17.27-7.16,38.92,38.92,0,0,1,1.27-10c.79-2.94,1.78-5.81,2.78-8.7a61.35,61.35,0,0,1,2.67-6.64c.69-1.45,1.39-2.89,2.09-4.34a76.54,76.54,0,0,1,5.89-9.95,108.86,108.86,0,0,1,9.91-11.86c1.86-2,3.78-4,5.69-6s3.87-3.82,5.91-5.59,4.23-3.72,6.45-5.46c4.46-3.47,9.11-6.71,13.83-9.8,4.51-2.95,9-6,13.77-8.5,2.66-1.41,5.28-2.91,8-4.13,3.75-1.68,7.45-3.36,11.32-4.76a104.92,104.92,0,0,1,23.39-5.45,119.1,119.1,0,0,1,15.91-.71c2.6,0,5.2,0,7.8.17l9.67.57c3.22.19,6.43.6,9.64.92,2.32.23,4.61.54,6.91.86,2.47.35,5,.65,7.41,1.08l9.65,1.71c3.14.55,6.26,1.33,9.39,2,2.23.48,4.39,1,6.59,1.64,3,.84,6.07,1.57,9,2.61s6.19,2.21,9.29,3.3c2.21.79,4.34,1.76,6.49,2.69s4.44,1.86,6.62,2.89q8.31,4,16.6,8c4.67,2.25,9.34,4.5,13.94,6.9q7.85,4.11,15.59,8.4c4.86,2.69,9.58,5.64,14.3,8.57A167.2,167.2,0,0,1,1612,311.21c1.8,2.07,3.73,4.08,5.42,6.25l5.48,7.05c.71.92,1.34,1.92,2,2.88q1.58,2.22,3.13,4.46c1.69,2.41,3.27,4.89,4.88,7.34q4.22,6.38,8.25,12.84c2.77,4.43,5.56,8.88,8,13.48,1.41,2.63,2.91,5.22,4.21,7.9s2.64,5.42,4,8.14c2.45,5,4.59,10.2,6.76,15.34a138,138,0,0,1,5.06,15c.54,1.83.91,3.73,1.36,5.59s.75,3.53,1.06,5.3a62.57,62.57,0,0,1,1,6.38c.09,1.26.07,3.54-1.72,3.54Z"/><path d="M1162.79,548.86a31.48,31.48,0,0,1-5.78-6.2,31.83,31.83,0,0,1-3.42-8.08,64,64,0,0,1-1.88-6.8,58.7,58.7,0,0,1-1.14-12.12,128.63,128.63,0,0,1,1.22-15.06c.17-1.37.34-2.75.52-4.12.14-1.16.44-2.32.67-3.47.54-2.78,1-5.59,1.73-8.33.82-3,1.51-6,2.55-8.93s2.07-5.79,3.11-8.68c.34-.95.83-1.88,1.24-2.8q1.2-2.68,2.39-5.37c1.14-2.55,2.54-5,3.84-7.46l1.78-3.34c.52-1,1.19-1.93,1.78-2.88,1.5-2.42,2.94-4.88,4.57-7.21l5.19-7.35c.7-1,1.51-1.93,2.25-2.89l3.3-4.22c1.7-2.18,3.54-4.26,5.3-6.39,1.57-1.87,3.17-3.71,4.78-5.55s3.36-3.92,5.12-5.81l6.48-6.95c.64-.69,1.36-1.32,2-2l4.32-4.2c1.73-1.68,3.53-3.28,5.34-4.9,2-1.77,3.92-3.54,5.94-5.27q6.8-5.81,13.68-11.54c4.25-3.56,8.67-6.9,13.13-10.21,2.14-1.6,4.38-3.08,6.6-4.58,1.09-.74,2.16-1.55,3.3-2.24l3.61-2.18,3.91-2.37c1-.6,2.07-1.11,3.1-1.66,2.51-1.34,5-2.65,7.6-3.86,5.17-2.43,10.43-4.62,15.73-6.78,2.48-1,5-1.89,7.5-2.83a81.91,81.91,0,0,1,8.11-2.54,51.61,51.61,0,0,1,10.23-1.73,40.42,40.42,0,0,1,5.61.11,27.9,27.9,0,0,1,5.71,1.27,35,35,0,0,1,5.29,2.22,35.48,35.48,0,0,1,4.82,2.88,29,29,0,0,1,4.12,3.46,6.16,6.16,0,0,1,1.58,2.54,1.71,1.71,0,0,1-1.16,2.11,1.68,1.68,0,0,1-2-1.17.14.14,0,0,1,0-.07s0,0,0-.07-.23-.32-.34-.49l.14.16a11.21,11.21,0,0,0-1-1.06c-.63-.53-1.27-1-1.94-1.49a39.55,39.55,0,0,0-3.44-2c-1.27-.61-2.54-1.15-3.86-1.63-1.07-.36-2.13-.67-3.22-.93a37.76,37.76,0,0,0-4.08-.57c-.88,0-1.74,0-2.62,0l.36,0a46.12,46.12,0,0,0-5,.64,57.26,57.26,0,0,0-6.33,1.82c-2.58.93-5.07,2.06-7.55,3.22s-4.77,2.39-7.08,3.7q-4.38,2.46-8.71,5c-2.73,1.6-5.42,3.27-8.12,4.93-2.3,1.42-4.51,3-6.75,4.49l-6,4.36c-1.65,1.21-3.24,2.5-4.84,3.78s-3,2.37-4.5,3.64l-5.43,4.7q-9.4,8.64-18.68,17.44c-3.19,3-6.34,6.11-9.49,9.19-1.16,1.13-2.26,2.33-3.38,3.49-1.43,1.49-2.93,2.93-4.3,4.46l-7,7.89q-6.4,7.75-12.68,15.61c-3.84,4.81-7.33,9.86-10.83,14.92l-5.14,8.36c-.82,1.35-1.49,2.83-2.23,4.23s-1.39,2.62-2.08,3.94l-3.9,8.76c-.61,1.38-1,2.87-1.54,4.29l-1.38,3.83c-.79,2.9-1.6,5.8-2.4,8.69-.24,1.27-.49,2.55-.74,3.83-.29,1.46-.68,2.93-.87,4.41-.52,4.05-1.09,8.1-1.41,12.18-.15,2.6-.2,5.19-.1,7.8.14,1.57.35,3.12.64,4.67.31,1.35.68,2.67,1.09,4,.64,1.86,1.28,3.73,2.1,5.52l.22.37c.36.49.73,1,1.12,1.43s.66.73,1,1.09a8.65,8.65,0,0,1-4.94,14.69,9.2,9.2,0,0,1-1.17.08A8.25,8.25,0,0,1,1162.79,548.86Z"/><text class="cls-3" transform="translate(90.45 476.49)"><tspan class="cls-4">Y</tspan><tspan x="33.48" y="0">a</tspan><tspan class="cls-5" x="67.2" y="0">a</tspan><tspan x="100.38" y="0">wn! </tspan><tspan x="0" y="72">I </tspan><tspan class="cls-6" x="32.7" y="72">w</tspan><tspan x="79.8" y="72">onder whe</tspan><tspan class="cls-7" x="381.23" y="72">r</tspan><tspan x="403.31" y="72">e I’</tspan><tspan class="cls-6" x="484.25" y="72">v</tspan><tspan x="515.63" y="72">e gone. </tspan><tspan x="0" y="144">Wh</tspan><tspan class="cls-8" x="97.2" y="144">a</tspan><tspan x="130.2" y="144">t </tspan><tspan class="cls-9" x="168.72" y="144">c</tspan><tspan x="200.46" y="144">o</tspan><tspan class="cls-8" x="236.94" y="144">n</tspan><tspan x="272.76" y="144">tine</tspan><tspan class="cls-10" x="381.11" y="144">n</tspan><tspan class="cls-11" x="416.93" y="144">t am I o</tspan><tspan class="cls-12" x="629.03" y="144">n</tspan><tspan x="664.49" y="144">?</tspan></text><path d="M1441.92,515a32.76,32.76,0,0,1-9-1.94,50.9,50.9,0,0,1-14.62-8.58,54.36,54.36,0,0,1-11.77-13,75.31,75.31,0,0,1-5.54-10.75l-1.41-3.25A60.49,60.49,0,0,1,1397,470a54.66,54.66,0,0,1-1.68-8.39,61.13,61.13,0,0,1-.26-9.37,90.65,90.65,0,0,1,7.46-34.56c.59-1.48,1.27-2.94,1.9-4.39.46-1.09.91-2.17,1.42-3.23l2.53-5.22a76,76,0,0,1,4.87-8.44,75,75,0,0,1,7.13-9.4,28.89,28.89,0,0,1,8.63-7,18.61,18.61,0,0,1,5.28-1.69,7.62,7.62,0,0,1,4.12.38,5.06,5.06,0,0,1,2.34,1.92,2.12,2.12,0,0,1,.11,1.71s0-.08,0-.12h0l0,.13v0a1.62,1.62,0,0,1-1.76,1.23,1.55,1.55,0,0,1-1-.58h0l-.68.05-.4,0c-.47.11-.92.23-1.38.37s-1,.42-1.5.66-1,.58-1.5.9-1.22.91-1.8,1.4a32.92,32.92,0,0,0-2.42,2.45c-1.51,1.78-2.91,3.67-4.24,5.6a91.42,91.42,0,0,0-5.17,8.81c-2.88,5.85-5,12-7.33,18.07a113.85,113.85,0,0,0-3.68,12.92,86.27,86.27,0,0,0-1.35,10.12,104,104,0,0,0-.14,12.1,56.58,56.58,0,0,0,.77,5.93,66.8,66.8,0,0,0,1.92,6.81,98,98,0,0,0,4.41,10.27,69.23,69.23,0,0,0,3.84,6.63c.78,1.11,1.62,2.17,2.5,3.2a59.19,59.19,0,0,0,4.42,4.4,64.16,64.16,0,0,0,5.24,4q2.07,1.35,4.26,2.51c1.31.63,2.63,1.21,4,1.71,1,.34,2.08.63,3.14.87.91.16,1.82.28,2.75.36.55,0,1.11,0,1.66,0,.91-.09,1.82-.23,2.72-.4a60,60,0,0,0,6.18-1.82c3.11-1.16,6.24-2.27,9.23-3.71,1.08-.58,2.13-1.2,3.16-1.87s1.82-1.34,2.68-2.07a62.41,62.41,0,0,0,4.44-4.47c4.06-4.72,7.75-9.77,11.39-14.82.71-1.08,1.46-2.16,2.11-3.28,1.24-2.1,2.47-4.2,3.59-6.37a65,65,0,0,0,2.8-6.68c.88-2.66,1.54-5.35,2.25-8.06.28-1.36.6-2.73.78-4.1.29-2.27.6-4.53.78-6.8,0-1.14,0-2.27,0-3.41s-.23-2.08-.41-3.11a69.54,69.54,0,0,0-2.18-7.48c-.85-2.39-1.72-4.78-2.64-7.15s-1.91-4.52-2.94-6.75a55.33,55.33,0,0,0-2.84-4.88c-.59-.82-1.21-1.62-1.87-2.39s-1.5-1.57-2.31-2.3a81.9,81.9,0,0,0-6.91-5.09c-1.16-.75-2.37-1.47-3.48-2.3l-3.17-2.36c-1-.76-2-1.67-2.93-2.49-1.34-1.14-2.65-2.31-4.07-3.35-.45-.28-.9-.54-1.37-.79s-.71-.31-1.08-.45c-.93-.29-1.88-.53-2.83-.74-3.57-.67-7.2-1.05-10.79-1.54a5.53,5.53,0,0,1,.75-11c2.33.06,4.66.22,7,.51,1.93.24,3.85.49,5.75.91a31.47,31.47,0,0,1,4.25,1.17,24.69,24.69,0,0,1,3.93,1.93,49.84,49.84,0,0,1,6.26,5c.8.69,1.59,1.41,2.43,2l2.84,2.13,2,1.39-.6-.41,1.16.78-.11-.07a73.57,73.57,0,0,1,8.13,6.16,37.36,37.36,0,0,1,5.18,5.7,50.28,50.28,0,0,1,4.34,7.4c.52,1,1,2.12,1.43,3.18.37.83.77,1.65,1.09,2.51.76,2.07,1.55,4.13,2.25,6.22a112.15,112.15,0,0,1,3.28,10.91,40.05,40.05,0,0,1,.94,8.17,45.71,45.71,0,0,1-.47,6.4c-.16,1.26-.32,2.53-.49,3.79-.13,1-.36,2-.55,2.95-.42,2.26-1,4.47-1.52,6.69a66.51,66.51,0,0,1-5.32,13.93c-.64,1.26-1.33,2.48-2,3.7-.46.83-.9,1.67-1.41,2.47-1.26,2-2.54,3.94-3.88,5.87s-2.57,3.59-3.87,5.38c-4.28,5.9-8.86,11.84-14.76,16.21a51.08,51.08,0,0,1-11.52,6.05,86.27,86.27,0,0,1-11.25,4,29.14,29.14,0,0,1-7.07.89C1443.17,515.1,1442.55,515.08,1441.92,515Z"/><path d="M1365.24,512.45c-1.44-.07-2.88-.12-4.32-.22s-2.76-.15-4.13-.3a77.14,77.14,0,0,1-11.09-1.88,51.52,51.52,0,0,1-11.21-4.56,49,49,0,0,1-9.47-6.79,21.07,21.07,0,0,1-6.26-9.19,58.22,58.22,0,0,1-1.43-7.4,173.62,173.62,0,0,1-1.64-17.33c0-.23,0-.45,0-.68,0,.19,0,.38,0,.58-.15-2.13-.17-4.27-.24-6.4-.06-1.85,0-3.71,0-5.57,0-.84,0-1.68,0-2.52,0-1,0-2,0-3,.1-1.86.15-3.73.27-5.59s.25-3.73.37-5.6l0,.59c.18-2.69.52-5.37.93-8,.33-2.18.69-4.33,1.15-6.49a55.72,55.72,0,0,1,3.6-11.21,95.59,95.59,0,0,1,7.45-12.75c.79-1.23,1.67-2.41,2.51-3.61.68-1,1.35-1.9,2.07-2.82,1.06-1.36,2.09-2.74,3.2-4a62.42,62.42,0,0,1,8.56-8.41,84,84,0,0,1,9.14-6.05,42,42,0,0,1,8.26-3.93,27.31,27.31,0,0,1,5.44-1.16,23.82,23.82,0,0,1,6.08.21,37,37,0,0,1,10.82,3.28c1.68.83,3.36,1.63,5,2.56a34.17,34.17,0,0,1,9.11,7.78,42.94,42.94,0,0,1,6.64,11.27,48.17,48.17,0,0,1,2.46,9.06c.13.7.21,1.4.32,2.1a7.94,7.94,0,0,1,.06,1.82c-.05.39-.15.76-.23,1.14a.19.19,0,0,0,0-.08c0,.18-.08.36-.11.54v0h0a.48.48,0,0,1-1,0h0v0l-.09-.46a55.7,55.7,0,0,0-2-6.7l0,.07,0-.15h0c-.65-1.75-1.36-3.46-2.18-5.14,0,0,0,.05,0,.08a42.87,42.87,0,0,0-2.37-4.05,41.38,41.38,0,0,0-2.68-3.49c.06.07.12.15.19.22a42,42,0,0,0-3.39-3.41,34.14,34.14,0,0,0-2.71-2.08,30.15,30.15,0,0,0-2.87-1.66c-1.18-.57-2.38-1.06-3.6-1.52a68.5,68.5,0,0,0-6.75-1.95,45.56,45.56,0,0,0-5.07-.62,30.83,30.83,0,0,0-3.33,0c-.74.07-1.46.17-2.19.3s-1.69.42-2.52.68c-1.1.4-2.17.86-3.23,1.37-3.3,1.69-6.42,3.71-9.53,5.71-1.4,1-2.76,2-4.06,3.15a61.82,61.82,0,0,0-5,5.07c-2.66,3.07-5,6.37-7.38,9.68a103.89,103.89,0,0,0-6.26,10.22,47.18,47.18,0,0,0-2.11,5,73.28,73.28,0,0,0-2.17,8.23l.12-.56c-.57,2.84-1,5.71-1.32,8.59s-.54,5.5-.73,8.26v0c-.1,1.57-.21,3.15-.24,4.73,0,1.83-.12,3.66-.1,5.49s0,3.6,0,5.39c.07,2,.13,3.93.2,5.9s.27,4.19.4,6.29c.09,1.1.23,2.2.33,3.31s.19,2,.33,3c.4,2.89.81,5.77,1.35,8.64.14.65.29,1.3.49,1.93.15.38.31.74.48,1.11s.36.64.55.95c.37.52.75,1,1.16,1.49.7.77,1.44,1.5,2.22,2.21a47.52,47.52,0,0,0,4,3.06,45,45,0,0,0,4.46,2.59,48.64,48.64,0,0,0,5.2,2.22,46.43,46.43,0,0,0,5.17,1.4c2.64.5,5.32.8,8,1.07a79.37,79.37,0,0,0,9,.22,82.64,82.64,0,0,0,8.39-1.32c1.23-.26,2.49-.5,3.7-.87l.86-.37c1-.5,1.9-1,2.84-1.56,1.3-.73,2.64-1.38,3.89-2.16l.06,0h0c.09-.11.18-.22.26-.34.18-.29.35-.58.51-.88.23-.49.44-1,.63-1.49.47-1.46.83-3,1.15-4.45.48-2.43.9-4.88,1.41-7.3a4,4,0,0,1,1.47-2.19,4.16,4.16,0,0,1,6.7,3.3,67.68,67.68,0,0,1-1.39,10.7,23.8,23.8,0,0,1-2.52,6.83,10.23,10.23,0,0,1-2.39,2.89,18.6,18.6,0,0,1-3.16,1.94c-1.3.65-2.57,1.35-3.84,2.05a21.58,21.58,0,0,1-3.75,1.73c-1.19.36-2.43.57-3.65.82-1.45.29-2.91.54-4.38.79-1.06.18-2.12.33-3.18.47a36.12,36.12,0,0,1-4.65.36C1365.93,512.48,1365.59,512.47,1365.24,512.45Z"/><path d="M1382.36,455.45c-.09-.13-.18-.27-.28-.4l-.67-.51-.39-.22c-.34-.16-.68-.31-1-.45-2.56-.82-5.17-1.43-7.78-2.07s-5-1.31-7.6-1.88c-.79-.14-1.59-.29-2.39-.38s-1.56-.17-2.34-.22c-3.24-.12-6.46-.14-9.7,0q-3,.27-5.92.63c-2.66.32-5.35.53-8,1-1,.22-2,.5-3,.81-1.28.49-2.53,1-3.79,1.54-1.52.65-3,1.42-4.6,2a8,8,0,0,1-.78.27l-.18.07h0a1,1,0,0,1-.34.07.87.87,0,0,1-.84-1.09,5.26,5.26,0,0,1,1.63-2.29l0-.06,0-.11v0h0a.53.53,0,0,1,.82-.49l.27-.19c.87-.6,1.74-1.21,2.62-1.78,1.7-1.12,3.38-2.27,5.16-3.25a17,17,0,0,1,4.35-1.78l3.11-.67,6.75-1.36-.45.09.49-.1.29-.06-.17,0,.3-.06h-.08l.43-.09,0,0,.41-.09.46-.09.24,0-.08,0c1.7-.34,3.42-.62,5.15-.82s3.7-.32,5.55-.44a40,40,0,0,1,5.89.13,45.58,45.58,0,0,1,5.57.93c-.2,0-.4-.09-.6-.12,2.66.54,5.31,1,8,1.54,1.34.25,2.67.53,4,.86a13.65,13.65,0,0,1,4.31,1.86,12.05,12.05,0,0,1,2,1.63,9.75,9.75,0,0,1,1.73,2.66,4.81,4.81,0,0,1,.21,3.26,5,5,0,0,1-2.28,3,5.06,5.06,0,0,1-2.53.66A4.73,4.73,0,0,1,1382.36,455.45Z"/><path d="M1405.57,461.59a2.11,2.11,0,0,1-1.06-.84,3,3,0,0,1-.44-1.79,8.2,8.2,0,0,1,2.23-4.16,33,33,0,0,1,2.53-2.63,19.73,19.73,0,0,1,4.39-3.49c1.75-.91,3.51-1.75,5.3-2.58l9.43-4.4c1.66-.78,3.33-1.55,5-2.22a26.66,26.66,0,0,1,5.74-1.56,54,54,0,0,1,6.1-.41c1.56-.06,3.12-.09,4.69-.11,3.7,0,7.39-.08,11.1,0,1.84,0,3.69.16,5.53.3a50.05,50.05,0,0,1,9.95,1.64l3.15.89c.91.26,1.8.6,2.7.92a32.9,32.9,0,0,1,6.59,2.92,11.85,11.85,0,0,1,2.65,2.24,5.74,5.74,0,0,1,1.53,3.09,5.38,5.38,0,0,1-1.07,4,5.44,5.44,0,0,1-7.57,1c-.22-.18-.45-.35-.68-.52q-.59-.36-1.2-.69c-1.83-.87-3.72-1.57-5.64-2.26-2.12-.63-4.23-1.25-6.4-1.72s-4.24-.59-6.38-.77c-4.08-.22-8.15-.25-12.23-.22s-8.43,0-12.63.29c-.89.1-1.76.22-2.64.36a84.71,84.71,0,0,0-8.24,2.46h0c-3.29,1.15-6.59,2.25-9.89,3.35l-2.22.77c-1.47.53-2.93,1.05-4.36,1.68-.54.3-1.07.6-1.59.93s-1,.71-1.43,1.09c-.14.14-.28.28-.41.43l0,0h0l-.06.08a1,1,0,0,1,.33.77,1.09,1.09,0,0,1-1.26,1.06,1.88,1.88,0,0,1-.92.26A1.5,1.5,0,0,1,1405.57,461.59Z"/><path d="M1377.44,640.06q-1.76-.21-3.51-.48c-1.29-.19-2.57-.41-3.86-.63a28.45,28.45,0,0,1-8-2.55,69.62,69.62,0,0,1-9.9-6.52,46.82,46.82,0,0,1-7.23-6.55,36,36,0,0,1-5.55-8.6,47.7,47.7,0,0,1-3.15-9.09,33.51,33.51,0,0,1-.88-9.36,63.65,63.65,0,0,1,2.55-15.51,92.17,92.17,0,0,1,3-8.86,37.27,37.27,0,0,1,2.81-5.25c.7-1.14,1.38-2.29,2.14-3.39,1.49-2.15,3-4.28,4.55-6.35s3.31-4.25,5-6.35c1.45-1.83,3-3.6,4.46-5.39a59.34,59.34,0,0,1,5.89-5.87,57.79,57.79,0,0,1,22.06-11.82,54.62,54.62,0,0,1,19-1.94,136.46,136.46,0,0,1,15.5,1.66c4.87.86,9.73,1.82,14.59,2.69a82.79,82.79,0,0,1,17.69,5c1,.41,1.93.86,2.88,1.34a55.22,55.22,0,0,1,11.51,2.28,43.77,43.77,0,0,1,15.1,9l5.72,5c3.27,2.86,6.66,5.63,9.64,8.79a35.11,35.11,0,0,1,5.65,7.93,36.94,36.94,0,0,1,3.54,10.3,33,33,0,0,1,.56,5.15,43.79,43.79,0,0,1,0,4.44c-.07,1.62-.11,3.27-.26,4.89-.12,1.26-.23,2.51-.34,3.76a48.43,48.43,0,0,1-1.71,8.61,37.51,37.51,0,0,1-3.84,8.92,30.79,30.79,0,0,1-7.33,7.9,29.23,29.23,0,0,1-12.82,6.08,34.37,34.37,0,0,1-9.61,0c-3.69-.35-7.35-1-11-1.54-3.43-.55-6.84-1.22-10.28-1.76-3.25-.51-6.53-.79-9.81-1.05-1.44,0-2.88-.08-4.31,0s-3,.09-4.5.16c-2.36.21-4.69.52-7,.89-3.46.74-6.86,1.6-10.23,2.67-3.59,1.28-7.15,2.66-10.75,3.89-2,.69-4.06,1.36-6.12,2-1.78.53-3.57,1-5.33,1.56-2.83,1.05-5.63,2.22-8.5,3.16a21,21,0,0,1-4.13.95,10.59,10.59,0,0,1-1.37.08A22.39,22.39,0,0,1,1377.44,640.06Z"/></svg>