<svg id="Layer_1" data-name="Layer 1" xmlns="http://www.w3.org/2000/svg" viewBox="0 0 1920 1080"><defs><style>.cls-1{fill:blue;opacity:0.2;}.cls-2{fill:#fff;}.cls-3{font-size:60px;font-family:VarelaRound-Regular, Varela Round;}.cls-4{letter-spacing:-0.01em;}.cls-5{letter-spacing:0em;}.cls-6{letter-spacing:-0.01em;}.cls-7{letter-spacing:-0.01em;}.cls-8{letter-spacing:-0.01em;}.cls-9{letter-spacing:-0.01em;}.cls-10{letter-spacing:-0.01em;}.cls-11{letter-spacing:-0.02em;}.cls-12{letter-spacing:0em;}.cls-13{letter-spacing:0em;}.cls-14{fill:#ffdc00;}</style></defs><circle class="cls-1" cx="525.5" cy="657.5" r="327.5"/><path class="cls-2" d="M705.72,843c0,23.17,43.85,90.84.75,107.37C679.67,960.61,603,972.8,565.05,978.77c-39.83,6.25-153.88,12-201.28,12-50.88,0-148.1,2.65-190-4.49-37.95-6.46-63-53.14-68.09-80.81-11.22-60.61-2.72-73.07,14.22-86.8,43.4-35.16,62.1-20.2,104-17.21,25.92,1.85,29.13-33.09,57.62-55.37,41.15-32.17,24.69-122,158.62-122,49.23,0,76.52,31.81,113,51.63,34.42,18.71,29.27,83.92,53.87,92.78C653.65,785.34,705.72,818.73,705.72,843Z"/><path d="M280.87,992.86c-6.36-.06-12.72-.34-19.06-.6q-11-.45-21.91-.72l-9.75-.26c-3.29-.09-6.6-.22-9.88-.46s-6.72-.46-10.08-.78c-3.64-.34-7.27-.68-10.91-1s-7.05-.66-10.58-1c-2.92-.26-5.86-.48-8.78-.79l-6.24-.68c-1.58-.18-3.14-.46-4.71-.7-2.45-.37-4.86-.81-7.29-1.35a80.56,80.56,0,0,1-10.83-3.32l-5.34-2c-1.73-.64-3.42-1.41-5.12-2.12-1.24-.51-2.45-1.06-3.67-1.62-1.66-.76-3.33-1.49-4.95-2.34-1.77-.94-3.56-1.84-5.28-2.85a66.57,66.57,0,0,1-9.45-6.68,53.68,53.68,0,0,1-7.73-7.64c-1.14-1.44-2.22-2.89-3.29-4.39s-2-3-3-4.54a85.31,85.31,0,0,1-5-9.23c-.36-.75-.63-1.55-.94-2.32-.23-.57-.44-1.14-.65-1.73-.69-2-1.37-4-2-6-1-3.29-1.93-6.6-2.79-9.92-.41-1.56-.75-3.13-1.1-4.71-.21-1-.47-1.93-.62-2.9s-.28-1.94-.43-2.9a86.69,86.69,0,0,1-.79-10.43c-.1-3.23-.1-6.47.07-9.69.12-2.28.22-4.56.42-6.83a78.43,78.43,0,0,1,2.53-14.24,86.78,86.78,0,0,1,4.88-12.92c.92-2,2-4,3-6,.68-1.33,1.45-2.6,2.2-3.89s1.63-2.77,2.49-4.13c1-1.53,1.91-3.1,3-4.59l3.52-5c.89-1.26,1.89-2.44,2.83-3.65s1.8-2.27,2.76-3.37c1.26-1.47,2.53-2.93,3.79-4.39s2.71-2.87,4.08-4.28c.92-.94,1.81-1.89,2.79-2.77q2.36-2.1,4.7-4.21c1.36-1.21,2.86-2.28,4.31-3.39s2.75-2,4.17-3c1.26-.85,2.5-1.74,3.82-2.51,1.75-1,3.49-2.12,5.31-3,2.47-1.23,4.91-2.47,7.47-3.51a58.87,58.87,0,0,1,15.52-3.81,60,60,0,0,1,20.28,1.62l2.82.67a53,53,0,0,1,7.14,2.39,56.09,56.09,0,0,1,13.71,8c2.48,1.91,4.73,4.1,7,6.23l4.34,4.1h0a84.55,84.55,0,0,0,6.78,5.48l.24.13a.67.67,0,0,1,.07,1.33,1,1,0,0,1-.42,0,20.86,20.86,0,0,1-2.63-1.21,57.86,57.86,0,0,1-5.36-3.2c-1.52-1-2.95-2.1-4.42-3.16s-3.07-2.19-4.6-3.28c-1.84-1.2-3.7-2.34-5.66-3.36a53.08,53.08,0,0,0-5.54-2.38c-1.93-.64-3.87-1.18-5.86-1.63s-4.23-.72-6.37-.94c-1.43-.08-2.87-.23-4.3-.22-2.6,0-5.19,0-7.78.13a60.36,60.36,0,0,0-6.28.86c-2.17.5-4.29,1.11-6.39,1.81s-4.4,1.75-6.54,2.79c-2.33,1.22-4.58,2.58-6.84,3.92-.68.4-1.32.88-2,1.31l-2.25,1.5-4.71,3.5c-.87.65-1.67,1.4-2.5,2.09L142.26,818l-5,4.75c-.86.83-1.64,1.78-2.45,2.66l-2.51,2.7c-2.08,2.51-4.18,5-6.14,7.61-1,1.31-2,2.6-2.94,4l-2.76,4.06q-1.64,2.64-3.26,5.29c-1.1,1.77-2.07,3.64-3.09,5.45-.62,1.23-1.23,2.46-1.84,3.69a80.23,80.23,0,0,0-3.62,8.55,70.18,70.18,0,0,0-2.1,7.54c-.55,3-.91,5.92-1.17,8.91-.14,2.65-.29,5.29-.3,8,0,1.27-.06,2.56,0,3.84l.15,4.57c.11,1.28.21,2.56.31,3.84.07.77.24,1.56.36,2.32s.21,1.41.31,2.11c.3,1.34.59,2.68.89,4,.36,1.67.86,3.32,1.29,5,.78,3,1.72,5.93,2.63,8.87.46,1.32.92,2.63,1.45,3.92s1.18,2.72,1.82,4.06,1.37,2.51,2.11,3.73,1.58,2.53,2.39,3.78l1.76,2.47c.6.85,1.29,1.66,1.95,2.49.51.56,1,1.12,1.54,1.69s1.31,1.25,2,1.86c1.84,1.56,3.71,3.07,5.69,4.47,1.63,1.08,3.3,2.11,5,3l3.32,1.75c2.95,1.35,5.9,2.67,8.89,3.91s6,2.37,9.05,3.5c1.61.54,3.22,1.07,4.86,1.54s3.06.78,4.6,1.1c4.86.94,9.79,1.45,14.71,2,4.5.49,9,.81,13.54,1.22,4.2.38,8.4.81,12.6,1.21,4.49.42,9,.77,13.51,1.1,6.6.3,13.2.51,19.81.67,7,.17,14.1.43,21.15.72,13,.53,26.06.86,39.08.46,7-.22,14-.45,21-.58,7.24-.13,14.49-.26,21.73-.45,13.73-.34,27.45-.95,41.16-1.72,11.18-.63,22.35-1.36,33.53-2.1q10.62-.8,21.25-1.55c6.25-.45,12.51-.88,18.77-1.18l12.08-.58c3.63-.17,7.28-.25,10.91-.37,6.47-.21,12.93-.4,19.39-.71l6.77-.33c13.54-.93,27.07-2,40.6-3.06,13-1,26-1.81,39-2.79s25.78-2,38.65-3.32c6.24-.64,12.48-1.38,18.7-2.15,3.2-.4,6.39-.84,9.59-1.28,2.85-.39,5.69-.92,8.52-1.39L670,951.4c1.38-.29,2.75-.72,4.12-1.08,1.71-.46,3.39-.94,5.07-1.49,2.16-.79,4.26-1.67,6.33-2.67,1.39-.74,2.76-1.52,4.1-2.37,1-.69,1.91-1.42,2.83-2.18s1.65-1.58,2.43-2.42a72.8,72.8,0,0,0,4.51-5.85c1.9-2.87,3.62-5.84,5.37-8.8.48-.82.87-1.69,1.3-2.54s1-2,1.51-3c1.06-2.31,2.05-4.64,2.92-7a103.86,103.86,0,0,0,3-11c.47-2.44.8-4.9,1.17-7.36.26-1.75.36-3.52.51-5.28.1-2.66.07-5.3-.08-8-.26-3.07-.74-6.11-1.17-9.15-.47-2.16-.92-4.31-1.39-6.46-.22-1-.6-2-.89-3l-1.15-3.88q-1.09-3-2.21-5.94c-.3-.82-.71-1.61-1.06-2.4-.46-1-.93-2.09-1.39-3.14l-2.18-4.14c-.72-1.36-1.54-2.67-2.34-4s-1.7-2.84-2.63-4.22l-2.7-4-4-5.32c-.55-.72-1.17-1.38-1.75-2.06L688,820.19c-2.17-2.33-4.33-4.65-6.57-6.91s-4.41-4.29-6.65-6.39c-2.23-1.87-4.44-3.74-6.74-5.51-1.07-.82-2.13-1.67-3.24-2.45l-3.93-2.74c-2.71-1.68-5.39-3.37-8.22-4.85-1.7-.81-3.42-1.53-5.19-2.19a63.37,63.37,0,0,0-6.9-1.88c-2.2-.41-4.41-.67-6.63-1-1.35-.17-2.72-.25-4.09-.34-2.07-.09-4.13-.19-6.19-.21-2.3,0-4.59,0-6.89.11-1.92.13-3.84.28-5.75.48-2.14.21-4.27.47-6.4.74s-4.46.51-6.67.85c-1.08.17-2.17.29-3.24.51L592,789c-2.47.66-4.93,1.35-7.38,2.09L585,791c-.85.29-1.73.57-2.55.93L579,793.36l-3,1.53c-1.43.72-2.8,1.57-4.19,2.35-2.68,1.5-5.31,3.09-8,4.62-5.5,3.19-10.94,6.47-16.29,9.92a7.93,7.93,0,0,1-6.22.81,8.06,8.06,0,0,1-4.25-12.72,9.19,9.19,0,0,1,2.31-2c5.43-3.64,11-7.05,16.61-10.36,6-3.53,11.93-7.21,18.3-10a84,84,0,0,1,20.94-5.77c3.2-.49,6.44-.84,9.66-1.23,3.43-.41,6.86-.72,10.31-1s6.91-.22,10.37-.19c1.84,0,3.72.12,5.56.27,1.59.12,3.21.17,4.8.38l5,.66a60,60,0,0,1,6.24,1.28,66.34,66.34,0,0,1,7.29,2.31,55.59,55.59,0,0,1,5.91,2.62c1.37.7,2.76,1.41,4.07,2.23l4.94,3.06c1.74,1.08,3.39,2.34,5.07,3.52,1.4,1,2.73,2,4.08,3.07,1.13.87,2.23,1.75,3.32,2.67,1.47,1.24,3,2.44,4.41,3.76l4.25,4c1.29,1.21,2.5,2.51,3.75,3.77,1,1,2,2,2.92,3.06,1.27,1.37,2.57,2.72,3.78,4.14l3.76,4.44c1.17,1.37,2.2,2.88,3.3,4.32.87,1.15,1.68,2.35,2.49,3.55,1,1.49,2.09,3,3,4.49l3,5c.8,1.31,1.49,2.66,2.2,4s1.56,2.85,2.22,4.33c.77,1.74,1.54,3.49,2.32,5.23.25.56.43,1.16.64,1.74l1.2,3.23c.57,1.52,1.09,3.05,1.55,4.61l1.56,5.32c.17.57.26,1.18.38,1.75l.84,3.92c.29,1.39.58,2.77.78,4.19.27,1.95.55,3.92.82,5.87.17,1.19.22,2.41.29,3.6s.14,2.49.18,3.73a56,56,0,0,1-.17,6.48l-.48,5.37c-.06.68-.21,1.36-.31,2-.17,1.14-.34,2.26-.51,3.39a92.92,92.92,0,0,1-2.36,10.68,90.35,90.35,0,0,1-4.66,12.94c-1,2.2-2.14,4.33-3.23,6.47a104.87,104.87,0,0,1-5.61,9.62,74.36,74.36,0,0,1-7.66,10.17,47,47,0,0,1-11.2,8.9,62.78,62.78,0,0,1-11.49,5.11c-2.37.79-4.75,1.43-7.17,2.07-3.23.85-6.49,1.49-9.76,2.17-1.76.36-3.53.63-5.3.92-1.48.25-3,.51-4.45.71-3.58.49-7.17,1-10.76,1.42-13.68,1.7-27.39,3-41.12,4.17C591.92,977.14,578.46,978,565,979q-21.15,1.57-42.29,3.27-9.9.76-19.81,1.24c-6.6.33-13.21.53-19.82.75q-10.47.35-20.94.83c-5.87.28-11.73.67-17.59,1-13.48,1-27,2-40.45,2.81s-26.71,1.69-40.08,2.19c-7,.26-14,.52-21,.7-7.29.18-14.57.3-21.86.44-6.86.12-13.72.37-20.58.58-3,.1-6.08.13-9.12.13C287.92,992.93,284.4,992.88,280.87,992.86Z"/><path d="M606,775.79a1.16,1.16,0,0,1-1.13-1.43s0,0,0,0,0-.11,0-.17,0-.23,0-.34-.06-.46-.11-.69c-.43-1.93-.93-3.84-1.48-5.75s-1.26-4-1.95-6l-.93-2.26c-.31-.76-.58-1.56-.94-2.3-.78-1.61-1.55-3.22-2.33-4.82-1.64-3-3.29-6-5-8.9s-3.54-5.69-5.36-8.52-3.87-5.48-5.91-8.14-4.2-5.39-6.34-8.06L567.69,710c-2.11-2.61-4.27-5.17-6.44-7.73l-3.53-3.82c-1-1.08-2.05-2.09-3.1-3.12s-2.18-2.17-3.32-3.19l-3.92-3.55c-2.14-1.77-4.26-3.57-6.49-5.24-1.2-.9-2.36-1.85-3.61-2.69l-4.45-3c-3.75-2.29-7.49-4.6-11.35-6.7q-6.08-3.3-12.2-6.48c-2.55-1.26-5.1-2.53-7.68-3.74q-5-2.33-10-4.63l-9.52-4.34c-2.79-1.27-5.68-2.36-8.51-3.53l-5.9-2c-1.74-.6-3.51-1-5.29-1.52s-3.63-1-5.48-1.39L450.8,642c-3.91-.67-7.81-1.33-11.74-1.86-1.78-.24-3.55-.5-5.34-.67l-6.64-.64a173.6,173.6,0,0,0-19.22-.33,80.31,80.31,0,0,0-8.75,1.18,76.2,76.2,0,0,0-8,2.18c-2.94,1.07-5.78,2.34-8.65,3.58l-4.39,2.24c-1.64.84-3.21,1.84-4.8,2.76-3,1.72-5.83,3.62-8.71,5.48-1.63,1.11-3.25,2.23-4.83,3.42s-3.08,2.45-4.59,3.72c-1.76,1.65-3.51,3.29-5.21,5s-3.55,3.66-5.24,5.56a54.05,54.05,0,0,0-3.43,4.4c-.94,1.44-1.8,2.94-2.61,4.46-.52,1.06-1,2.13-1.55,3.2s-.95,2.32-1.41,3.48a65.88,65.88,0,0,0-2,6.6c-.13.82-.24,1.65-.33,2.48a7.88,7.88,0,0,1-2.22,5.32,7.57,7.57,0,0,1-12.92-5.35,28.71,28.71,0,0,1,1-7.49c.59-2.2,1.33-4.35,2.08-6.51a44.45,44.45,0,0,1,2-5l1.56-3.24a58.12,58.12,0,0,1,4.41-7.45,80.62,80.62,0,0,1,7.42-8.88c1.38-1.51,2.82-3,4.25-4.46s2.9-2.85,4.42-4.18,3.17-2.78,4.83-4.08c3.34-2.6,6.81-5,10.35-7.34,3.37-2.2,6.74-4.46,10.3-6.35,2-1.06,3.95-2.18,6-3.1,2.8-1.25,5.57-2.51,8.47-3.55a77.84,77.84,0,0,1,17.5-4.08,87.71,87.71,0,0,1,11.91-.53c1.94,0,3.89,0,5.83.12l7.24.43c2.41.14,4.81.44,7.21.69,1.74.17,3.45.4,5.17.64s3.71.48,5.55.81L453,626c2.36.41,4.69,1,7,1.5,1.67.36,3.29.77,4.93,1.23,2.25.63,4.54,1.17,6.74,1.95l7,2.47c1.66.59,3.25,1.32,4.86,2s3.33,1.39,5,2.17q6.22,3,12.42,5.94c3.5,1.69,7,3.37,10.43,5.17,3.92,2.05,7.8,4.15,11.67,6.28,3.64,2,7.17,4.22,10.7,6.41A124.28,124.28,0,0,1,553.3,676a121.92,121.92,0,0,1,8.72,8.89c1.35,1.55,2.79,3,4.05,4.67l4.1,5.28c.54.68,1,1.44,1.51,2.15l2.34,3.34c1.26,1.8,2.44,3.66,3.65,5.49q3.15,4.77,6.18,9.61c2.07,3.32,4.16,6.64,6,10.08,1.06,2,2.18,3.91,3.15,5.92s2,4.05,3,6.08c1.83,3.76,3.43,7.63,5.06,11.48a106,106,0,0,1,3.79,11.24c.4,1.37.67,2.8,1,4.19s.56,2.64.79,4a45.19,45.19,0,0,1,.73,4.78c.07.94,0,2.65-1.29,2.65Z"/><path d="M225.94,862.68a22.66,22.66,0,0,1-4.32-4.64,23.51,23.51,0,0,1-2.56-6,47.37,47.37,0,0,1-1.41-5.09,43.83,43.83,0,0,1-.85-9.07,94.58,94.58,0,0,1,.91-11.27l.39-3.08c.11-.87.33-1.74.5-2.59.4-2.09.74-4.19,1.3-6.24.61-2.22,1.12-4.5,1.9-6.68s1.55-4.33,2.33-6.49c.26-.72.62-1.41.93-2.1l1.79-4c.85-1.91,1.89-3.73,2.87-5.58.44-.83.89-1.66,1.33-2.5s.89-1.44,1.33-2.15c1.12-1.81,2.2-3.66,3.42-5.39s2.59-3.68,3.89-5.51c.52-.75,1.12-1.44,1.68-2.16l2.47-3.16c1.27-1.63,2.64-3.19,4-4.78,1.17-1.4,2.37-2.77,3.57-4.15s2.51-2.94,3.83-4.35l4.85-5.2c.48-.52,1-1,1.52-1.47l3.23-3.14c1.3-1.27,2.65-2.46,4-3.67s2.94-2.65,4.45-3.94q5.08-4.35,10.23-8.64c3.19-2.66,6.5-5.16,9.83-7.64,1.61-1.2,3.28-2.3,4.94-3.43.82-.55,1.62-1.16,2.47-1.67l2.7-1.63,2.93-1.77c.74-.45,1.54-.83,2.31-1.25,1.89-1,3.76-2,5.69-2.89,3.87-1.82,7.81-3.46,11.77-5.07,1.86-.75,3.74-1.42,5.61-2.11a61.86,61.86,0,0,1,6.07-1.91,38.94,38.94,0,0,1,7.66-1.29,29.31,29.31,0,0,1,4.19.08,21.69,21.69,0,0,1,4.28,1,26.83,26.83,0,0,1,3.95,1.66,25.72,25.72,0,0,1,3.61,2.16,20.61,20.61,0,0,1,3.08,2.59,4.51,4.51,0,0,1,1.19,1.9,1.28,1.28,0,0,1-.87,1.57,1.25,1.25,0,0,1-1.53-.87l0-.05a.08.08,0,0,0,0,0c-.08-.13-.17-.25-.25-.37l.1.12a7,7,0,0,0-.75-.79c-.47-.4-.95-.77-1.45-1.12a26.63,26.63,0,0,0-2.58-1.5A29.49,29.49,0,0,0,355.5,704c-.79-.26-1.59-.49-2.41-.69a26,26,0,0,0-3-.43c-.66,0-1.3,0-2,0l.27,0a33.19,33.19,0,0,0-3.72.48,40.18,40.18,0,0,0-4.74,1.36c-1.93.7-3.8,1.54-5.65,2.41s-3.57,1.79-5.3,2.77c-2.18,1.23-4.36,2.46-6.51,3.73s-4.06,2.45-6.08,3.69c-1.72,1.06-3.38,2.23-5.05,3.36q-2.25,1.62-4.48,3.26c-1.24.9-2.43,1.87-3.62,2.83s-2.28,1.78-3.37,2.72L295.76,733q-7,6.46-14,13c-2.39,2.26-4.74,4.57-7.1,6.87-.87.85-1.69,1.75-2.53,2.62-1.07,1.11-2.19,2.19-3.22,3.33l-5.2,5.91q-4.78,5.81-9.49,11.68c-2.87,3.59-5.48,7.38-8.1,11.16l-3.84,6.26c-.62,1-1.12,2.11-1.67,3.16l-1.56,3c-1,2.18-2,4.37-2.92,6.56-.45,1-.77,2.14-1.15,3.2s-.69,1.92-1,2.87l-1.8,6.5c-.18,1-.37,1.91-.55,2.87s-.51,2.19-.65,3.3c-.39,3-.82,6.06-1.06,9.11-.11,1.94-.15,3.89-.07,5.83.1,1.18.26,2.34.47,3.5.24,1,.52,2,.82,3a44.07,44.07,0,0,0,1.58,4.14c.05.09.1.18.16.27.27.37.54.72.83,1.07s.5.55.76.82a6.47,6.47,0,0,1-3.7,11,6.25,6.25,0,0,1-.87.06A6.15,6.15,0,0,1,225.94,862.68Z"/><circle class="cls-1" cx="1562.5" cy="666.5" r="327.5"/><text class="cls-3" transform="translate(1097.45 106.49)"><tspan class="cls-4">T</tspan><tspan x="36.18" y="0">h</tspan><tspan class="cls-5" x="72.72" y="0">e</tspan><tspan x="106.38" y="0">y’ll find one I’m su</tspan><tspan class="cls-6" x="616.19" y="0">r</tspan><tspan x="638.27" y="0">e, </tspan><tspan x="0" y="72">but th</tspan><tspan class="cls-5" x="172.38" y="72">e</tspan><tspan x="206.04" y="72">y h</tspan><tspan class="cls-7" x="290.4" y="72">a</tspan><tspan class="cls-8" x="323.58" y="72">v</tspan><tspan x="354.96" y="72">e </tspan><tspan class="cls-9" x="404.52" y="72">t</tspan><tspan x="427.02" y="72">o ma</tspan><tspan class="cls-10" x="567.89" y="72">k</tspan><tspan x="600.06" y="72">e </tspan><tspan x="0" y="144">one, it will ta</tspan><tspan class="cls-10" x="356.21" y="144">k</tspan><tspan x="388.37" y="144">e a bit.</tspan></text><text class="cls-3" transform="translate(178.45 141.49)"><tspan class="cls-11">D</tspan><tspan x="43.92" y="0">o th</tspan><tspan class="cls-12" x="155.46" y="0">e</tspan><tspan class="cls-13" x="189.12" y="0">y h</tspan><tspan class="cls-10" x="273.48" y="0">a</tspan><tspan class="cls-9" x="306.66" y="0">v</tspan><tspan x="338.04" y="0">e a cu</tspan><tspan class="cls-6" x="505.43" y="0">r</tspan><tspan x="527.51" y="0">e, </tspan><tspan x="0" y="72">some medicine, </tspan><tspan x="0" y="144">h</tspan><tspan class="cls-9" x="36.54" y="144">o</tspan><tspan x="72.6" y="144">w do th</tspan><tspan class="cls-5" x="285.12" y="144">e</tspan><tspan x="318.78" y="144">y fix it?</tspan></text><path class="cls-14" d="M1275.79,898.88c-14.06-2.14-28.45-6.9-39.53-16.12A83.86,83.86,0,0,1,1225,871.51a85.53,85.53,0,0,1-5.77-8.23,98.74,98.74,0,0,1-7.25-13.86c-2.33-5.07-4.11-10.41-6-15.66-1.58-4.4-3.12-8.81-4.74-13.19-.92-2.48-2-4.89-3.13-7.27-2.43-4.18-5-8.28-7.59-12.34-1-1.4-2-2.8-3-4.16-2-2.66-4-5.49-6.15-8L1178,785c-1.8-2-3.82-3.82-5.75-5.7-2.34-2-4.7-3.91-7.15-5.77-3.82-2.89-7.74-5.63-11.65-8.39-7.43-5.23-14.71-10.69-21.76-16.42-4.08-3.32-8.2-6.63-12-10.33A72.28,72.28,0,0,1,1100.5,704a78.57,78.57,0,0,1-2.26-16.12c-.21-5.55.86-10.65,2-16a61.11,61.11,0,0,1,1.68-5.91c1.31-4.08,2.71-8.18,4.19-12.2,1.66-4.49,3.38-8.93,5.28-13.32a71.14,71.14,0,0,1,5.88-11.2,78,78,0,0,1,5.91-8.23c1.68-1.93,3.35-3.86,5.08-5.72a79.86,79.86,0,0,1,6.23-5.65,56,56,0,0,1,11.25-7.53,106.61,106.61,0,0,1,11.31-5.28q6-2.18,12.06-4.12c-1.36-4.89-2.33-10-3.25-14.89a115.09,115.09,0,0,1-2-18.36,71.17,71.17,0,0,1,2.45-19.26,87.42,87.42,0,0,1,7.33-18c6-11.69,14.58-21.7,24.21-30.49,8.14-7.43,16.78-14.25,25.49-21,4.45-3.46,9.19-6.65,14-9.66,3.08-1.95,6.15-3.86,9.36-5.6a158.53,158.53,0,0,1,24.91-10.84,160.29,160.29,0,0,1,22.19-5.42,169.68,169.68,0,0,1,23.26-2.42,174.4,174.4,0,0,1,31.14,1.79c5,.66,10.07,1.7,15,2.84,2.72.63,5.45,1.27,8.15,2q1.7-2.65,3.64-5.16a72.13,72.13,0,0,1,20.63-18.15,75.13,75.13,0,0,1,26.53-9.16c4.51-.73,9-1.55,13.55-1.87,7.6-.52,15.13-1.06,22.74-.89,12.13.29,24.38.49,36.36,2.52,12.15,2.07,24.26,5.21,35.47,10.43a126.68,126.68,0,0,1,15.91,8.43c3.72,2.41,7.45,4.88,11,7.52,3.77,2.78,7.31,6.16,10.76,9.21a65,65,0,0,1,4.95,4.87,141,141,0,0,1,10.42,12.32,125,125,0,0,1,8.91,13.66c2,3.71,3.91,7.47,5.6,11.33s2.87,7.94,4.22,11.91c.33,1,.59,2,.84,3,1,4.12,1.85,8.29,2.52,12.48a91.82,91.82,0,0,1,1.07,16.4,119,119,0,0,1-3.44,25.63,114.16,114.16,0,0,1-5.26,15.58l0,.05c1.23,1.45,2.44,2.91,3.66,4.37,4.06,4.89,8.14,9.83,11.9,15a140,140,0,0,1,17.23,30A135.64,135.64,0,0,1,1636,639a106.59,106.59,0,0,1,3.4,18.31c.34,4.27.76,8.71.71,13a113,113,0,0,1-.92,12.86,93,93,0,0,1-4,17.72,144.1,144.1,0,0,1-6,15.78c-1.68,3.59-3.49,7.12-5.34,10.62-2.44,4.61-5,9.15-7.56,13.68-2,3.51-4,7-6.25,10.43-5.37,8.25-10.63,16.6-16.73,24.34-9.54,12.09-20.62,22.81-31.58,33.58-8.72,8.56-17.57,16.95-26.84,24.9a228.22,228.22,0,0,1-22,16.13,212.73,212.73,0,0,1-23.81,13.25,163.22,163.22,0,0,1-18.5,7.82c-8.74,3.1-17.49,6.17-26.57,8.13-3.89.84-7.93,1.76-11.92,2.31s-8.15.73-12.2,1c-8.38.53-16.47-1-24.6-2.75a67.41,67.41,0,0,1-11.06-3.78,61.71,61.71,0,0,1-7.93-4c-4.33,3-8.79,5.8-13.32,8.43s-9.12,4.88-13.8,7.05a161.35,161.35,0,0,1-15.24,5.72,124,124,0,0,1-25.47,5.72,127.56,127.56,0,0,1-15.15.92A117.71,117.71,0,0,1,1275.79,898.88Z"/><path d="M1432.86,477.52l.24.4,0,0a2.75,2.75,0,0,1-.31-.59Zm-5.42,338.9c-3.45.39-6.91.68-10.38.89-4.08.24-8.16.55-12.25.65-8.07.18-16.15.41-24.22.33-4.07,0-8.15,0-12.22-.15-5.94-.28-11.87-.49-17.79-1.09a148,148,0,0,1-17.38-2.93c-2.19-.49-4.34-1.13-6.51-1.7-1.6-.43-3.23-.8-4.81-1.3l-7.4-2.3c-4.25-1.32-8.47-2.77-12.69-4.18-3.66-1.22-7.26-2.64-10.87-4-2-.75-4-1.69-5.91-2.59q-4.27-2-8.33-4.36c-2.48-1.46-4.9-3-7.27-4.68-1.76-1.23-3.54-2.48-5.21-3.82l-6-4.8c-1.31-1.06-2.62-2.11-3.87-3.25l-5.91-5.45c-2.92-2.69-5.67-5.59-8.33-8.54a136.57,136.57,0,0,1-19.85-28.8,108.11,108.11,0,0,1-6.7-16.4c-.68-2.1-1.2-4.26-1.79-6.38-.5-1.74-1-3.46-1.31-5.24L1209,699c-.37-1.82-.56-3.7-.84-5.54-.24-1.62-.5-3.25-.67-4.88-.25-2.33-.51-4.66-.76-7s-.35-4.9-.53-7.35c-.11-1.65-.18-3.29-.24-5-.07-2-.19-3.93-.2-5.9q0-3.68,0-7.35c0-1.86.13-3.72.21-5.58s.16-3.86.34-5.78c.22-2.23.43-4.46.65-6.69.08-.8.26-1.6.39-2.39.23-1.4.46-2.81.68-4.22.34-2.05.8-4.08,1.23-6.11.36-1.72.73-3.43,1.15-5.13.48-2,.9-4,1.46-5.9.67-2.29,1.33-4.58,2-6.86s1.49-4.25,2.27-6.35c.68-1.86,1.6-3.64,2.41-5.45.91-2,1.92-3.93,2.9-5.89,1.82-3.66,3.81-7.22,5.77-10.8.95-1.73,2-3.42,3-5.12.8-1.37,1.59-2.77,2.43-4.12,2.29-3.68,4.53-7.39,7-11,1.39-2.06,2.79-4.1,4.18-6.16,1.07-1.59,2.3-3.09,3.45-4.62,2.53-3.38,5.17-6.67,7.8-10,2.23-2.79,4.48-5.56,6.78-8.3,2.63-3.13,5.22-6.31,7.93-9.37s5.61-6.38,8.54-9.46l2.83-3c.43-.45.83-.92,1.28-1.34l5.33-5c1.36-1.28,2.76-2.49,4.18-3.7s3-2.67,4.62-3.89l6-4.55c1.57-1.2,3.21-2.28,4.83-3.4,1.45-1,2.88-2.05,4.37-3l6.16-3.86c2.09-1.31,4.32-2.42,6.52-3.55a85.28,85.28,0,0,1,8-3.57c3.51-1.38,7.13-2.45,10.76-3.49s7.43-2.11,11.2-2.95l4-.89c1-.21,1.93-.48,2.89-.63l6.62-1.06c.67-.11,1.38-.11,2.07-.17l4.23-.33c2.16-.16,4.32-.14,6.48-.17,4.12-.05,8.24.29,12.34.63s8,.84,11.92,1.37c1.84.25,3.67.57,5.49.86,1.08.18,2.16.43,3.23.64.84.17,1.67.31,2.49.52,2,.53,4,1.07,6,1.7s3.75,1.32,5.61,2.05c.92.36,1.8.85,2.69,1.26s1.73.85,2.57,1.3a24.36,24.36,0,0,1,2.57,1.51,3.88,3.88,0,0,1,1.65,1.93,2.33,2.33,0,0,1-1.87,2.89,2.17,2.17,0,0,1-1.91-.66l-1.16-.4c-1.62-.53-3.23-1-4.87-1.49s-3.35-.81-5-1.17l-4-.59c-1.36-.2-2.76-.24-4.13-.35-5.08-.2-10.15-.32-15.23-.28-3.05,0-6.09.07-9.14.13-2.5.06-5,.21-7.49.33l-5.82.53c-.74.06-1.47.18-2.21.3-.38.07-.77.13-1.15.18l-3.29.48-5.91,1.3c-1.2.26-2.39.66-3.57,1s-2.18.57-3.25.9c-5.09,1.55-10.19,3.09-15.2,4.87a92.3,92.3,0,0,0-10.09,4.42q-4,2.13-7.85,4.61l-5,3.26-5.11,3.64c-1.59,1.14-3.11,2.36-4.65,3.56s-2.89,2.23-4.28,3.42l-5.32,4.58-5.33,5.1c-1.59,1.52-3.06,3.17-4.57,4.77-3.17,3.37-6.23,6.84-9.25,10.34q-7.45,8.88-14.69,17.93c-1.24,1.55-2.52,3.08-3.71,4.67l-4.32,5.79c-2.3,3.09-4.4,6.32-6.54,9.5l-5,8.1c-1.67,2.69-3.21,5.48-4.81,8.22-2.91,5-5.52,10.16-8.09,15.34-.78,1.7-1.56,3.41-2.33,5.11-.39.85-.66,1.78-1,2.65s-.63,1.71-.94,2.57c-1,3.48-2,7-2.94,10.5-.41,1.66-.85,3.31-1.21,5-.43,2-.85,3.94-1.28,5.91l-.54,3.21c-.2,1.25-.5,2.52-.63,3.78-.27,2.71-.53,5.42-.81,8.13-.25,5.13-.49,10.26-.36,15.39.06,2.86.15,5.72.23,8.58.08,2.52.3,5,.48,7.57.25,2.34.48,4.69.72,7,.21,2,.54,4,.83,6,.26,1.8.51,3.6.88,5.39.45,2.17.89,4.34,1.34,6.52,1.19,4.2,2.29,8.41,3.73,12.53a101.92,101.92,0,0,0,4.73,10.77,120.12,120.12,0,0,0,17.46,25c2.72,2.95,5.54,5.79,8.5,8.51,1.88,1.72,3.77,3.44,5.65,5.18,5.19,4.2,10.34,8.44,15.91,12.13a99.74,99.74,0,0,0,9.66,5.46c8,3.76,16.32,6.53,24.66,9.33l5.69,1.77c1.55.48,3.09,1,4.65,1.43l7,1.84c2.61.68,5.21,1.29,7.86,1.82a156.86,156.86,0,0,0,16.6,2.1l11.74.53c1.9.09,3.8,0,5.7,0l6.73,0c4.28,0,8.57-.1,12.85-.16,4,0,8-.19,11.93-.29,1.79,0,3.59-.21,5.37-.32l6.76-.42a159.43,159.43,0,0,0,18.08-2.51,99.53,99.53,0,0,0,11.07-3.26c5.36-2,10.52-4.41,15.7-6.79,2.65-1.22,5.22-2.61,7.8-3.95l4.68-2.76c2.21-1.31,4.37-2.66,6.5-4.12a104.45,104.45,0,0,0,9.49-7.59,213.25,213.25,0,0,0,15.7-16.8c4.39-5.29,8.75-10.6,12.91-16.08,2.21-2.91,4.35-5.87,6.49-8.84,1.87-2.59,3.62-5.27,5.41-7.92s3.54-5.49,5.24-8.28c2.15-3.53,4.24-7.08,6.31-10.66,1.68-2.9,3.29-5.84,4.86-8.8,1.84-3.47,3.61-7,5.39-10.48q2.38-5,4.62-10.07c.79-1.78,1.44-3.64,2.16-5.45.61-1.54,1.11-3.15,1.64-4.73.54-1.83,1.09-3.66,1.63-5.48s.93-3.54,1.39-5.3c.81-3.08,1.43-6.21,2-9.33.25-1.63.57-3.27.71-4.9s.28-3.41.42-5.12l.21-5.19c.07-1.8.11-3.64.06-5.45,0-2-.08-4-.13-5.93s-.2-3.68-.31-5.52c-.24-2.8-.5-5.58-.81-8.38s-.83-5.64-1.36-8.45l-1.14-4.35c-.19-.75-.49-1.49-.74-2.22l-.69-2.1c-.48-1.26-.91-2.56-1.48-3.77l-2-4.23c-1.64-3-3.28-6.09-5.18-9q-3-4.6-6.15-9.12t-6.22-8.66c-2.07-2.83-4.3-5.55-6.48-8.28-4.27-5.32-8.63-10.54-13.15-15.64-1.36-1.42-2.71-2.84-4.13-4.2-1.71-1.63-3.45-3.23-5.21-4.82-3.13-2.84-6.31-5.64-9.5-8.42-1.85-1.55-3.7-3.08-5.62-4.55s-3.8-2.74-5.73-4.06c-2.15-1.32-4.28-2.64-6.48-3.86s-4.63-2.5-7-3.69l-2.11-.94c-.72-.31-1.43-.68-2.16-.95l-4.63-1.68-4.19-1.22c-1.28-.37-2.61-.59-3.91-.89-3.27-.62-6.54-1.27-9.83-1.77a7.94,7.94,0,0,1-5.09-2.86,7.75,7.75,0,0,1,1.22-10.88,7.93,7.93,0,0,1,5.79-1.63c2,.2,3.88.48,5.81.8,2.1.36,4.21.68,6.28,1.15l3.44.77c.91.2,1.79.51,2.68.77,2.24.66,4.41,1.42,6.6,2.21a105,105,0,0,1,11.57,5.3c3.46,1.77,6.76,3.87,10.07,5.9,1.86,1.14,3.62,2.46,5.42,3.69.76.52,1.46,1.13,2.19,1.69.9.7,1.8,1.39,2.67,2.13l-.77-.65c6.4,5.43,12.77,10.93,18.82,16.75s11.39,12.5,16.71,19.07c4.5,5.55,8.85,11.23,12.89,17.13,2.08,3,4.22,6.06,6.19,9.17,2.08,3.29,4.24,6.56,6,10l-.45-.86c.22.43.45.86.67,1.3v0l0,.08,0,0h0c.34.6.64,1.22,1,1.83l.06.12,0,0c.08.16.16.32.25.48s.21.41.32.62c-.06-.12-.12-.24-.19-.36l.27.5h0l0,0,0,0v0h0v0l0,0h0a.43.43,0,0,1,0,.07h0c.9,1.79,1.67,3.65,2.48,5.49.38.85.65,1.76,1,2.64s.75,2,1.06,3c.62,2,1.26,4,1.76,6,.25,1,.5,2.06.74,3.08.33,1.34.5,2.71.74,4.06.66,3.9,1,7.87,1.32,11.81s.52,8,.57,12.08,0,8.33-.22,12.5c-.1,2.25-.26,4.49-.45,6.74-.18,2.09-.47,4.14-.77,6.22s-.8,4.37-1.22,6.55c-.34,1.75-.75,3.5-1.18,5.23-1,3.84-1.89,7.73-3.13,11.49-1.33,4.07-2.63,8.15-4.29,12.09-1.56,3.71-3.14,7.42-4.88,11-2.05,4.29-4.13,8.54-6.27,12.79-1.74,3.45-3.6,6.85-5.45,10.26a271.23,271.23,0,0,1-26.65,40.26c-2.76,3.45-5.55,6.84-8.37,10.23-2.44,2.95-5,5.85-7.56,8.65l-4.64,5c-2,2.15-4.2,4.14-6.38,6.11s-4.57,3.9-7,5.71a102.83,102.83,0,0,1-9.76,6.51c-2.15,1.26-4.27,2.61-6.5,3.74-3.4,1.74-6.79,3.5-10.27,5.08-2.18,1-4.37,2-6.58,3a131.46,131.46,0,0,1-16.88,6,104.52,104.52,0,0,1-12.41,2.52C1430.78,816,1429.11,816.22,1427.44,816.42Z"/><path d="M1350.76,840.06a7.08,7.08,0,0,1,1.44.23,3.42,3.42,0,0,1,2.57,3.3c0,.9-.11,1.73-.22,2.63-.1.7-.21,1.4-.31,2.1-.15,1.1-.3,2.2-.46,3.3-.31,2.32-.61,4.63-.92,7-.54,4.12-1,8.25-1.61,12.36-.62,4.34-1.3,8.69-1.79,13.05-.25,2.27-.58,4.54-.75,6.81-.2,2.49-.39,5-.59,7.45-.07,1.45-.14,2.9-.2,4.35s-.16,2.67-.19,4l-.09,5.09c0,1.29-.08,2.58-.06,3.87q.06,4.63.14,9.25c0,1.46.2,2.93.3,4.38s.21,3.1.31,4.65c.47,4.16,1.12,8.29,2,12.39a105,105,0,0,0,3,10.74,69.89,69.89,0,0,0,3.26,7.48c.65,1.2,1.34,2.37,2.1,3.51.53.73,1.07,1.43,1.66,2.12l.48.44.53.4.4.22h0l0,0,.1-.07c.55-.52,1.07-1.06,1.59-1.62,1.38-1.67,2.67-3.41,4-5.13.53-.69,1-1.42,1.48-2.13l1.82-2.61,2.67-4.21a80.27,80.27,0,0,0,4.35-7.87,204.79,204.79,0,0,0,7.83-20.93c1.77-5.29,3.54-10.59,5.37-15.86,4.09-11.85,8.27-23.67,12.36-35.52q1.69-5.4,3.37-10.8c.5-1.6.89-3.25,1.33-4.87.64-2.38,1.3-4.75,1.89-7.14.53-2.17,1.13-4.31,1.74-6.46a8.43,8.43,0,0,1,1.84-3.53,6.45,6.45,0,0,1,1.3-1.14,6.13,6.13,0,0,1,1.53-.67,4.5,4.5,0,0,1,3.59.56,7.72,7.72,0,0,1,2.32,2.5c.41.61.82,1.22,1.22,1.83,1,1.47,1.93,3,2.88,4.46,3.88,6.1,7.32,12.47,10.85,18.79s7.4,12.64,11.22,18.89c.77,1.25,1.58,2.49,2.31,3.77l3.6,6.39c1.89,3.35,3.56,6.82,5.29,10.26,1.58,3.14,3,6.36,4.46,9.55,2.06,4.43,4.09,8.87,6.29,13.23a91.56,91.56,0,0,0,5,8.41,55.09,55.09,0,0,0,3.42,4.36c1,1.06,2,2.07,3.11,3.05.78.63,1.56,1.23,2.38,1.81s1.78,1,2.71,1.5c.49.22,1,.42,1.49.6.88.27,1.76.49,2.65.67a17.87,17.87,0,0,0,1.79.23l-.57,0a18.69,18.69,0,0,0,2,0l-.59,0a16,16,0,0,0,2-.21l.88-.24a8.19,8.19,0,0,0,1.3-.63l-.51.26.53-.34.51-.41a9.85,9.85,0,0,0,.92-1l-.37.42.33-.48.42-.74c-.08.16-.16.31-.23.47h0a15.83,15.83,0,0,0,.68-1.59c.29-1,.53-2,.74-3,.35-2.19.57-4.39.71-6.61.09-1.86.11-3.71.12-5.56,0-1.43.06-2.87,0-4.3-.07-3.06-.09-6.12-.24-9.18s-.25-6.16-.47-9.23c-.24-3.56-.48-7.11-.73-10.67q-.48-6.18-1-12.36a.17.17,0,0,0,0,.07c-1.18-15-1.87-30-2.68-45q-.32-5.73-.65-11.45-.21-3.6-.39-7.2c-.12-2.3-.1-4.6-.1-6.89,0-.87.09-1.71.18-2.56.09-.5.19-1,.31-1.5l.39-1.16a9.28,9.28,0,0,1,.82-1.56,7,7,0,0,1,1.15-1.15,4.39,4.39,0,0,1,3.17-.89,5.83,5.83,0,0,1,3,1.1,14.19,14.19,0,0,1,2.39,2.62c2.12,2.58,4.11,5.23,6,8,3.18,4.53,6,9.29,8.87,14,3.14,5.19,6.29,10.39,9.37,15.63s5.85,10.28,8.67,15.49c2.65,4.9,5.14,9.88,7.67,14.84l2.44,4.57c.7,1.31,1.45,2.58,2.21,3.85s1.58,2.76,2.45,4.09c1,1.55,2.07,3.11,3.09,4.66a72.56,72.56,0,0,0,5,6.33c.71.72,1.43,1.41,2.18,2.08q.62.49,1.26.93l-.45-.29a14.14,14.14,0,0,0,1.54.91l.62.24.45.09h.32l0,0,.15-.26c.08-.18.16-.37.23-.56.4-1.44.7-2.89,1-4.35l.57-3.15c.2-1.12.31-2.27.47-3.41.27-2,.4-4,.55-6.07l0-4.37c0-1.2-.09-2.41-.15-3.62-.12-2.64-.33-5.27-.52-7.91l-.54-6.94h0q-.28-3.72-.55-7.42c-.19-2-.37-4-.56-6-.17-1.8-.46-3.6-.71-5.4-.52-3.75-1.2-7.46-1.86-11.19-.61-3.45-1.31-6.89-2-10.32l-2.34-11.44q-1.2-5.5-2.39-11c-.79-3.62-1.66-7.22-2.4-10.84s-1.5-7.09-2.12-10.66a123.9,123.9,0,0,1-1.89-13.13,7,7,0,0,1,.7-4.11,6.87,6.87,0,0,1,2.3-2.4,5.24,5.24,0,0,1,4-.58,6.39,6.39,0,0,1,1.74.64,30.68,30.68,0,0,1,2.78,1.87c3,2.21,6,4.41,8.9,6.67,5.82,4.46,11.51,9.1,17.37,13.54,3.89,2.94,7.93,5.63,12,8.31l9.39,6c3.54,2.28,7.12,4.5,10.7,6.72,1.39.86,2.83,1.65,4.25,2.47s3.12,1.84,4.73,2.68l5.59,2.92c1.6.84,3.26,1.59,4.89,2.38l0,0c2.63,1.25,5.26,2.5,7.92,3.69,1.15.52,2.29,1.06,3.46,1.52l5.2,2-.57-.18c2.59.85,5.16,1.76,7.79,2.46l3,.78c.41.11.83.24,1.25.32l4.2.82c1.26.19,2.51.33,3.77.45.9,0,1.8.05,2.71,0l-.62,0c.43,0,.85-.06,1.27-.11-1.38-2.65-2.73-5.31-4.08-8q-3.72-7.11-7.47-14.19c-2.51-4.76-4.93-9.57-7.56-14.26-1.29-2.31-2.54-4.65-3.9-6.92l-2.72-4.57c-.59-1-1.15-2-1.77-2.94-1.62-2.54-3.25-5.07-4.88-7.62-.71-1.11-1.5-2.19-2.25-3.29l-2.48-3.64c-4.35-6.17-8.71-12.34-13.17-18.44-2.29-3.14-4.67-6.2-7-9.28-.81-1.06-1.69-2.06-2.54-3.08l-4.07-4.81-3.59-3.87c-1.07-1.16-2.13-2.35-3.24-3.48l-7.93-8c-1.58-1.59-3.15-3.18-4.73-4.76a97.94,97.94,0,0,1-8.44-9.76,37.06,37.06,0,0,1-5.85-11,9.15,9.15,0,0,1-.45-2.26,6.37,6.37,0,0,1,.09-2.22,7.37,7.37,0,0,1,.55-1.44,5.52,5.52,0,0,1,1.31-1.57,5.41,5.41,0,0,1,3.18-1l2.38-.15c1.75-.09,3.5-.15,5.25-.21,3.52-.12,7-.1,10.57-.14a198.82,198.82,0,0,1,21.55.91c3.06.29,6.12.54,9.18.78s6.39.22,9.59.26,6.22.1,9.3.41,6.44.7,9.66,1l5.09.53c1.6.16,3.23.21,4.85.3l5.18,0-.52,0c1.6-.12,3.2-.19,4.79-.4l2.77-.36c.69-.09,1.38-.26,2.07-.4,1.32-.36,2.63-.71,3.92-1.14.79-.31,1.55-.64,2.31-1,.39-.21.77-.45,1.14-.69l.87-.66-.33.3a10,10,0,0,0,1.47-1.51l-.29.34.29-.4-.39-.81c-.33-.59-.65-1.17-1-1.77l.26.37a11.2,11.2,0,0,0-1.49-1.88l.3.34c-1.74-1.81-3.53-3.56-5.33-5.31s-3.64-3.34-5.5-5c-1.78-1.45-3.56-2.88-5.39-4.26s-3.41-2.51-5.11-3.77c-4.13-3.06-8.18-6.19-12.2-9.38-3.75-3-7.5-6-11.34-8.84-1.94-1.45-3.9-2.86-5.9-4.25s-3.81-2.57-5.73-3.83c-6.29-3.91-12.6-7.79-18.81-11.82-3.39-2.19-6.75-4.42-10.12-6.65-1.36-.9-2.71-1.83-4.06-2.75-2.6-1.76-5.2-3.51-7.67-5.45a49.15,49.15,0,0,1-4.24-3.8,27.43,27.43,0,0,1-3.3-4.13,13.45,13.45,0,0,1-1.18-2.41,8.33,8.33,0,0,1-.57-2.08,8.74,8.74,0,0,1,.33-4.51,11.29,11.29,0,0,1,.83-1.67,11.66,11.66,0,0,1,1.17-1.55c.64-.76,1.34-1.48,2-2.21,1.29-1.38,2.6-2.73,3.91-4.09,2.41-2.49,4.89-4.93,7.46-7.25,1.3-1.17,2.6-2.31,3.93-3.44s2.95-2.36,4.45-3.5c2.72-2.09,5.51-4.07,8.3-6.07,1.48-1.07,3-2.12,4.48-3.18,1.27-.9,2.57-1.81,3.79-2.79s2.59-2,3.83-3.12,2.75-2.37,4.1-3.58q3.89-3.5,7.86-6.88c2.61-2.23,5.33-4.33,8-6.49s5.21-4.24,7.75-6.42c5.51-4.72,10.91-9.57,16.32-14.4l3.28-3.14c.9-.85,1.7-1.81,2.54-2.71,1.12-1.38,2.21-2.74,3.2-4.21q.39-.61.75-1.23c-2.24.22-4.46.53-6.68.87q-4.35.64-8.7,1.34c-5.6.9-11.16,2-16.7,3.17l-5.27,1.32c-1.65.41-3.27,1-4.89,1.46-3,.93-6,2-9,3.12-3.34,1.35-6.69,2.68-10,4.13q-5.2,2.28-10.39,4.6c-7,3.12-14.18,6-21.34,8.78a94.07,94.07,0,0,1-9.4,3.12,32.64,32.64,0,0,1-6,1.15,23.57,23.57,0,0,1-3,.05,19.35,19.35,0,0,1-3.23-.47,9.52,9.52,0,0,1-4.11-2,9.06,9.06,0,0,1-1.4-1.5,7.82,7.82,0,0,1-1-2.08,12.94,12.94,0,0,1-.59-5.1,14.78,14.78,0,0,1,1.31-5.09c1.36-3.24,2.91-6.41,4.5-9.54s3.22-6.16,5-9.17c3.73-6.45,7.42-13,11.59-19.15,2.11-3.12,4.35-6.14,6.69-9.1,2.21-2.78,4.47-5.5,6.72-8.24q6.74-8.24,13.27-16.64c2.19-2.84,4.43-5.65,6.53-8.56,1.07-1.49,2.21-3,3.22-4.48,1.14-1.69,2.26-3.39,3.39-5.09,1.21-2,2.37-4,3.39-6,.48-1.07.92-2.13,1.31-3.23.18-.6.35-1.21.48-1.82,0,.15,0,.3-.08.45a13.13,13.13,0,0,0,.27-1.76c0-.26,0-.52,0-.78,0,.15,0,.31,0,.47a10.74,10.74,0,0,0-.15-1.39c0-.12-.08-.23-.13-.35l-.12-.23-.36-.43-.34-.29c-.18-.1-.35-.21-.53-.3l-.69-.26-.23,0-.51-.07a5.48,5.48,0,0,0-.7,0,8.84,8.84,0,0,0-1.25.22l.18,0h0l.3-.07-.59.18c-.55.23-1.08.47-1.61.74-5.43,3-10.53,6.5-15.65,10q-4.53,3.18-9,6.43c-2.9,2.12-5.75,4.31-8.59,6.52-5.74,4.46-11.16,9.32-16.65,14.09q-3.89,3.36-7.82,6.64c-2.87,2.38-5.72,4.79-8.65,7.1-6,4.71-12,9.37-18.12,13.93a123.94,123.94,0,0,1-11.77,8,36.91,36.91,0,0,1-5.27,2.52,22.69,22.69,0,0,1-5.75,1.34,13.71,13.71,0,0,1-2.31,0,15.32,15.32,0,0,1-2.79-.35c-.91-.23-1.72-.49-2.6-.8l-1.45-.71q-.62-.39-1.2-.81a8,8,0,0,1-2.45-3c-.11-.21-.21-.43-.31-.64a8.16,8.16,0,0,1-.49-1.82,14.07,14.07,0,0,1-.24-2.52,23.16,23.16,0,0,1,.09-2.36c.07-1.1.17-2.18.3-3.27.1-.84.31-1.71.49-2.54s.37-1.65.56-2.47c.4-1.75.79-3.51,1.24-5.25s1-3.72,1.49-5.57,1.16-3.49,1.81-5.21c1.28-3.37,2.76-6.66,4.24-9.94,1.38-3.08,2.88-6.1,4.3-9.16q2.51-5.4,5-10.8c3.66-8,7.45-16,11.51-23.76,2.14-4.1,4.31-8.19,6.55-12.25,2.14-3.87,4.23-7.74,6.25-11.68,1-2.17,2.09-4.33,3-6.54.49-1.15,1-2.3,1.47-3.48q.82-2.19,1.64-4.38c.34-1.11.69-2.22,1-3.33.61-2,1.1-4,1.52-6a49.21,49.21,0,0,0,.72-5.53c0-.69,0-1.38,0-2.08s-.18-1.44-.32-2.16c-.08-.29-.17-.58-.26-.87l-.3-.7-.25-.41-.23-.28-.07-.05-.08-.05-.14,0c-1.53.44-3,.88-4.56,1.4l-.29.12-.22.14c-1.37,1.31-2.67,2.7-4,4.07s-2.54,2.7-3.79,4.06c-2.69,2.92-5.37,5.86-8,8.85q-8.4,9.64-16.71,19.37c-4.69,5.56-9.35,11.17-14.09,16.7-2.32,2.71-4.62,5.45-7,8.13q-4,4.56-8,9.1c-4.8,5.42-9.49,10.94-14.2,16.45s-9.85,10.86-15.13,15.95q-2,1.88-3.93,3.69c-1.52,1.39-3.06,2.73-4.64,4.05a41.8,41.8,0,0,1-9.42,6.08,19,19,0,0,1-2.73.91,10.89,10.89,0,0,1-2.66.39,15.36,15.36,0,0,1-5.12-.76,12.43,12.43,0,0,1-4.21-2.29,12.1,12.1,0,0,1-2.94-3.65,33.24,33.24,0,0,1-2.18-5.56c-.51-1.58-.87-3.21-1.22-4.83q-.66-3.1-1.24-6.22c-1.29-6.94-2.09-14-2.9-21-.84-7.27-1.23-14.57-1.61-21.86-.25-4.78-.33-9.54-.21-14.32s.41-9.67.75-14.5c.71-9.81,1.35-19.63,2-29.45.08-1.66.17-3.32.26-5s.09-3.43.14-5.14c.08-3.14-.12-6.28-.33-9.42-.16-1.38-.35-2.74-.59-4.1s-.7-2.81-1.16-4.2c-.16-.42-.33-.84-.52-1.24s-.34-.59-.53-.87c-.48-.62-1-1.21-1.49-1.79l-.28-.27-.16.23c-2.26,3.65-4.17,7.52-6.07,11.37q-6.51,14.14-12.38,28.58c-2,4.91-4,9.81-5.89,14.78-1,2.69-2,5.37-3,8.08l-2.94,8.28c-2.14,6.49-4.2,13-6.43,19.45-.47,1.34-.89,2.69-1.4,4l-2.43,6.25c-1.21,3.09-2.61,6.12-3.93,9.18-1.25,2.89-2.64,5.71-3.9,8.59l-2.79,6.33c-.58,1.3-1.08,2.63-1.61,3.95-.61,1.55-1.23,3.09-1.85,4.64-.74,1.83-1.36,3.73-2,5.59-.45,1.23-.88,2.47-1.31,3.7a4.06,4.06,0,0,1-1.48,5.3,3.22,3.22,0,0,1-.37.2l-.12.36,0-.07c-.72,2.28-1.38,4.6-2.16,6.87a1.18,1.18,0,0,1,0,1.57c-.25.29-.5.57-.74.86a5.07,5.07,0,0,1-.37.44,1.17,1.17,0,0,1-2-1.11c.76-2.47,1.38-5,2-7.5l.33-1.27a4.17,4.17,0,0,1-2.09-1.71c-1-1.53-2-3.13-3-4.69-1.11-1.75-2.26-3.48-3.43-5.2a234.77,234.77,0,0,0-16.93-21.31q-2.42-2.67-4.8-5.36c-.88-1-1.7-2.08-2.54-3.11s-1.44-1.82-2.14-2.74c-3-3.89-5.76-7.92-8.56-11.94l.26.37c-1.51-2.16-3-4.35-4.5-6.52l.27.38c-1.85-2.64-3.66-5.3-5.56-7.89-2.19-3-4.39-5.93-6.64-8.86-4.67-6.07-9.27-12.22-14.37-17.94a79.45,79.45,0,0,0-5.78-5.68,54.23,54.23,0,0,0-4.37-3.29c-.93-.58-1.86-1.11-2.84-1.61-.62-.28-1.26-.53-1.91-.76a13.8,13.8,0,0,0-1.82-.44l.5.1-.81-.08h-.67l-.5.08-.18.06-.27.14-.15.1-.36.37c-.18.24-.34.48-.52.71s-.37.63-.54,1c-.51,1.09-1,2.2-1.37,3.34s-.63,2.25-.87,3.41c-.23,1.38-.4,2.77-.5,4.17s0,3.05.06,4.59c.18,1.71.45,3.39.79,5.08a73.57,73.57,0,0,0,2,7.14l1.5,4.34c1.32,3.17,2.62,6.35,4.09,9.46q2.58,5.43,5.15,10.87c.6,1.27,1.23,2.54,1.78,3.83l3,7.08c.5,1.19.93,2.38,1.35,3.6l2.31,6.71c.13.37.22.76.32,1.14.3,1.14.59,2.29.89,3.43.42,1.63.88,3.26,1.21,4.91l1.38,6.72c.35,1.71.6,3.45.89,5.18.23,1.43.5,2.84.66,4.28q.38,3.39.76,6.77c.22,2,.28,4,.35,5.93.1,2.51,0,5-.1,7.52a40.41,40.41,0,0,1-.69,5.6,25.44,25.44,0,0,1-2,6.38,14.46,14.46,0,0,1-1.46,2.53,20.15,20.15,0,0,1-1.77,2,11.42,11.42,0,0,1-3.61,2.23,18.74,18.74,0,0,1-5.55,1.15,33.21,33.21,0,0,1-6.61-.15,42.69,42.69,0,0,1-11.45-3.14,80.9,80.9,0,0,1-7.85-3.78,111.06,111.06,0,0,1-10.6-6.42,99.86,99.86,0,0,1-10.51-8.39c-1.6-1.43-3.1-3-4.65-4.46-2.79-2.69-5.47-5.48-8.18-8.26-2.56-2.64-5.1-5.31-7.64-8q-7.48-7.83-14.78-15.83l-3.82-4.21.29.32c-1.92-2.11-3.87-4.19-5.8-6.29l-2.21-2.38c-.9-1-1.9-1.88-2.85-2.81l-4.08-4c-.59-.58-1.17-1.15-1.79-1.69l-6.83-6c-2.88-2.37-5.8-4.68-8.83-6.85.16,1.6.32,3.21.49,4.82.2,1.88.55,3.75.93,5.61a68.56,68.56,0,0,0,2,6.73,92.71,92.71,0,0,0,3.82,8.94c.92,1.86,1.85,3.72,2.77,5.59,1.6,2.85,3.13,5.75,4.82,8.55,2,3.34,4,6.68,6.07,10q6.3,10.18,12.47,20.47c3.58,5.93,7.33,11.75,11,17.61q1.88,3,3.73,5.94c.86,1.36,1.63,2.77,2.43,4.16s1.81,3,2.58,4.57l3.07,6.24c.86,1.74,1.58,3.53,2.33,5.32s1.53,3.57,2.19,5.4c.08.21.15.43.23.64l.19.52c-.08-.22-.16-.43-.23-.64l2.2,6.12c.74,2,1.32,4.16,2,6.24q1.41,4.61,2.44,9.31.72,3.28,1.2,6.62a68.37,68.37,0,0,1,.63,8.33,53.58,53.58,0,0,1-.36,7.16c-.12,1.06-.36,2.11-.57,3.15a13.52,13.52,0,0,1-.7,2.43,12.32,12.32,0,0,1-2.45,4,7.37,7.37,0,0,1-4,2,20.92,20.92,0,0,1-5.64-.28l-2.86-.38c-1.72-.23-3.43-.56-5.13-.85-.79-.14-1.57-.34-2.34-.52l-3.54-.82c-1.84-.43-3.65-1-5.47-1.57-3.49-1-6.92-2.25-10.36-3.43-1.87-.64-3.71-1.38-5.56-2.07-1.56-.58-3.1-1.19-4.64-1.8s-3.07-1.2-4.58-1.84c-1.86-.8-3.76-1.55-5.6-2.4q-6.82-3.16-13.59-6.44l.5.24c-5.24-2.52-10.55-4.91-15.86-7.28-1.16-.52-2.36-1-3.54-1.47l-4.65-1.92c-1.24-.52-2.55-.91-3.82-1.35l-4-1.42c-2.83-.79-5.64-1.66-8.49-2.34-3.12-.75-6.25-1.49-9.36-2.29s-6.47-1.66-9.68-2.59l-5.9-1.71-4-1.16c-2.42-.71-4.84-1.27-7.3-1.78-1.14-.21-2.27-.37-3.42-.5-1,0-1.93,0-2.91,0l.66,0a12.26,12.26,0,0,0-1.71.19l-.63.17-.4.16.21-.11h0l.36-.19a7.6,7.6,0,0,0-1.08.6h0l.06-.05-.09.09,0,0s0,.09-.07.13l-.06.15a.29.29,0,0,1,0,.09l0,.3c0,.31,0,.62,0,.92s.12.87.2,1.3c.14.61.31,1.22.51,1.82.39,1,.81,2,1.28,2.93,1.06,2,2.21,3.81,3.44,5.64,1.15,1.6,2.33,3.16,3.61,4.67,1,1.14,1.93,2.29,2.9,3.44,1.76,1.86,3.5,3.74,5.33,5.55,2.34,2.32,4.7,4.6,7.1,6.87,4.23,4,8.65,7.81,13.06,11.63,2.72,2.21,5.42,4.43,8.2,6.55,1.37,1,2.72,2.13,4.12,3.13l5.64,4c2.82,2,5.72,3.91,8.55,5.9,1.33.93,2.69,1.84,4,2.81l5.5,4.08c1.43,1,2.8,2.19,4.19,3.29s2.46,1.95,3.66,3l4.5,3.78c1.68,1.42,3.27,2.94,4.9,4.41a84.8,84.8,0,0,1,6.34,6.38,58.2,58.2,0,0,1,8.73,12.23,43.58,43.58,0,0,1,2.37,5.74,18,18,0,0,1,.68,2.79,19.6,19.6,0,0,1,.32,2.76,11.64,11.64,0,0,1-.71,4.53,6.19,6.19,0,0,1-2.45,3c-1.72,1.05-3.76,1-5.7.94-1.38-.05-2.76-.1-4.14-.19q-4.62-.3-9.22-.79c-6.31-.68-12.62-1.49-18.91-2.37-5.73-.8-11.41-1.87-17.14-2.68l-5.72-.81c-1.27-.18-2.53-.4-3.8-.53-3.32-.35-6.63-.7-10-1l-9.65-.46c-.31,0-.63,0-1,0l-3.47.1-4.82.13-4.13.41-3.1.3c-.49,0-1,.08-1.47.16-4,.62-7.9,1.19-11.81,2-2.19.5-4.36,1.07-6.5,1.76.71,1.19,1.44,2.36,2.18,3.53.86,1.37,1.79,2.69,2.71,4l3.1,4c1,1.29,2.08,2.52,3.12,3.78,1.83,2.21,3.75,4.34,5.64,6.5l3.63,3.81c1.79,1.87,3.66,3.63,5.61,5.31,1.7,1.41,3.45,2.73,5.28,4a64.39,64.39,0,0,0,5.91,3.32c3,1.39,6,2.65,9.05,3.81s6.16,2.24,9.25,3.34l5.16,1.69c1.87.6,3.77,1.11,5.66,1.66,3.19.93,6.42,1.73,9.63,2.59q10.58,2.81,21.11,5.67a182.6,182.6,0,0,1,18.15,5.55,54.64,54.64,0,0,1,21.8,15,11.61,11.61,0,0,1,1.46,2,16.37,16.37,0,0,1,1.08,2.23,6.9,6.9,0,0,1,.37,1.87,3.72,3.72,0,0,1-.08,1.37c-.53,2-2.41,3.24-4,4.42a31.19,31.19,0,0,1-4.12,2.47c-1.45.79-2.93,1.55-4.41,2.29s-3.24,1.63-4.87,2.42c-1.81.87-3.64,1.68-5.48,2.49-3,1.35-6.15,2.6-9.25,3.84q-5.82,2.32-11.64,4.69c-3.47,1.41-6.91,2.89-10.37,4.35-6.58,2.78-13.07,5.76-19.6,8.64-3.24,1.43-6.47,2.88-9.72,4.27q-5.62,2.4-11.22,4.85c-3,1.34-6,2.8-8.94,4.25l-4.43,2.45q-4.14,2.28-8,4.93a77.55,77.55,0,0,0-6.68,5.29c-1.44,1.36-2.79,2.77-4.09,4.25-1,1.23-1.93,2.48-2.82,3.78a50.28,50.28,0,0,0-2.55,4.52c-.41.93-.78,1.86-1.13,2.82s-.47,1.73-.66,2.62a13,13,0,0,0-.17,1.4c0,.36,0,.72,0,1.08s.07.6.1.9.12.54.19.8l-.17-.45a8.75,8.75,0,0,0,.76,1.78l-.22-.42.36.58.42.5.48.44.51.34.59.3.79.3c.52.15,1,.28,1.58.39,1.84.31,3.69.48,5.54.66l2.21.07c.86,0,1.75.1,2.61.06l6-.23c2.61-.22,5.23-.41,7.83-.7,3-.33,6-.64,9.06-1q10.65-1.33,21.27-2.79c5.74-.78,11.47-1.7,17.19-2.67,2.92-.49,5.85-.93,8.76-1.51l10.66-2.12,11.36-2.69c3.74-.89,7.45-1.91,11.17-2.85,7.42-1.9,14.84-3.75,22.26-5.6q5.2-1.3,10.42-2.58a112.07,112.07,0,0,1,12.47-2.43,40,40,0,0,1,6.74-.25,24.19,24.19,0,0,1,2.68.32c.48.09,1,.2,1.43.33a6.14,6.14,0,0,1,1.29.56,4.81,4.81,0,0,1,2,1.79,4.08,4.08,0,0,1,.77,2.6,4.93,4.93,0,0,1-.28,1.32,10.86,10.86,0,0,1-.74,1.44,15.66,15.66,0,0,1-1.57,2.07c-2.2,2.6-4.66,5-7,7.42-2,2-4,4.09-6,6.1-2.4,2.4-4.82,4.76-7.26,7.11-4.26,4.12-8.57,8.19-12.79,12.36q-6.91,6.81-13.88,13.56c-2.3,2.23-4.57,4.49-6.84,6.75-2.07,2-4,4.25-6,6.38l-2.77,3.29c-.86,1-1.78,2-2.6,3.08l-3.15,4c-.84,1.07-1.7,2.13-2.5,3.22l-3.29,4.5c-.78,1.08-1.6,2.13-2.35,3.23l-5.55,8.09c-1.24,1.91-2.46,3.82-3.63,5.77s-2.25,4-3.26,6.06a58.24,58.24,0,0,0-2.42,6c-.31,1-.59,2.06-.82,3.11s-.3,1.89-.39,2.86a10.76,10.76,0,0,0,0,1.27l.12,1,.18.72.24.59.15.26.22.25,0,0,.15.08.28.08.33,0,.6,0c3-.34,5.9-.88,8.83-1.34,2.29-.37,4.59-.7,6.88-1,6.06-.79,12.15-1.35,18.13-2.57a90.39,90.39,0,0,0,9.83-2.82,89.14,89.14,0,0,0,9.44-4.15,110,110,0,0,0,10.73-6.49l5.78-4c2.77-2.07,5.56-4.11,8.3-6.22,2.93-2.26,5.85-4.54,8.8-6.78,6-4.57,12-9.15,18.15-13.58,6.5-4.7,13-9.38,19.64-13.89,2.54-1.73,5.12-3.38,7.81-4.88a53.4,53.4,0,0,1,5.72-2.72c.85-.35,1.71-.62,2.58-.89a9.65,9.65,0,0,1,3.05-.54,5.83,5.83,0,0,1,2.75.62,4.26,4.26,0,0,1,1.69,2.07,4.43,4.43,0,0,1,0,2.94,8.43,8.43,0,0,1-.65,1.59c-.24.53-.49,1.07-.74,1.6-3,6.38-6.14,12.64-9.3,18.91l-2.84,6c-.88,1.87-1.6,3.83-2.39,5.74-1.52,3.66-2.81,7.41-4.14,11.15q-3,9.18-6,18.36l-1.8,5.51c-.56,1.75-1,3.54-1.56,5.31-.94,3.19-1.66,6.43-2.44,9.66-.29,1.61-.56,3.22-.84,4.82-.5,2.88-.89,5.75-1.11,8.67-.09,1.92-.15,3.84-.07,5.76.08.66.17,1.32.29,2,0-.16-.07-.32-.11-.49a10.72,10.72,0,0,0,.39,1.58l0,0c1.53-.39,3-.89,4.52-1.42.92-.37,1.8-.77,2.68-1.21,1.64-1,3.19-2,4.75-3.08,1.36-1,2.78-2,4.08-3.16l4.75-4.07,5.79-5.58c.43-.42.84-.86,1.25-1.3l3.84-4.12c1.39-1.5,2.77-3,4.1-4.55q2.79-3.24,5.57-6.47c9.45-11.44,18.86-22.93,27.88-34.72,2.11-2.76,4.23-5.51,6.25-8.34,2.15-3,4.3-6,6.41-9,2.25-3.23,4.46-6.47,6.82-9.62,1.33-1.77,2.64-3.57,4-5.29,1.24-1.54,2.56-3,3.92-4.46a5.82,5.82,0,0,1,1.32-.93,3.89,3.89,0,0,1,1.3-.46Zm142.75,120a25.7,25.7,0,0,1-5.16-.68,21.47,21.47,0,0,1-5.28-1.89,33.64,33.64,0,0,1-5.53-3.48,37.21,37.21,0,0,1-5.13-4.91c-5.46-6.2-9.32-13.62-12.82-21.06q-3.09-6.6-6.21-13.19c-1.68-3.55-3.52-7-5.31-10.51l-4.5-7.85c-1.36-2.38-2.86-4.69-4.3-7s-2.82-4.65-4.22-7-2.84-4.87-4.23-7.33c-2.58-4.56-4.92-9.25-7.49-13.82-1.52-2.71-3.13-5.38-4.8-8-.11.4-.21.8-.31,1.2-.25,1.06-.52,2.12-.81,3.17-.68,2.51-1.37,5-2.06,7.53-1,3.65-2.22,7.24-3.35,10.85s-2.37,7-3.58,10.46c-1.15,3.32-2.33,6.64-3.5,10q-3.51,9.94-6.91,19.92-1.82,5.31-3.61,10.63c-1.21,3.6-2.38,7.21-3.69,10.77q-1.18,3.24-2.38,6.48a80.63,80.63,0,0,1-5.23,11.18c-1.25,2.26-2.65,4.41-4,6.59q-1.47,2.29-3,4.51c-2.72,3.85-5.51,7.75-9,10.88a6.65,6.65,0,0,1-1.65,1,8.57,8.57,0,0,1-1.86.59,7.68,7.68,0,0,1-3.81-.13l-1-.34a13.32,13.32,0,0,1-3.14-2.09,25,25,0,0,1-1.87-2,34.15,34.15,0,0,1-2.2-3.15,46.93,46.93,0,0,1-2.89-5.48,65.88,65.88,0,0,1-2.58-6.6,98.43,98.43,0,0,1-3.73-15.35,92.6,92.6,0,0,1-1.28-10.5l-.45-7.64c-.07-1.31-.06-2.61-.07-3.92,0-2.1,0-4.19,0-6.29,0-1.93.1-3.88.15-5.81,0-1.54.07-3.08.15-4.62.14-2.61.21-5.23.43-7.83s.35-5.16.64-7.72c.57-4.94,1.16-9.86,1.87-14.78q1.13-7.75,2.14-15.52.38-2.81.76-5.61c-3.41,4.55-6.56,9.29-9.85,13.93l-4.22,6c-.77,1.08-1.52,2.19-2.32,3.25l-7.81,10.3c-2.41,3.19-4.94,6.29-7.4,9.44-2.18,2.77-4.4,5.51-6.61,8.27-4.42,5.52-8.88,11-13.46,16.43q-2,2.36-4,4.73c-1,1.23-2.18,2.4-3.28,3.6l-4.18,4.54c-.32.35-.69.68-1,1l-3.11,3c-1,1-2,2-3.12,3l-2.81,2.41c-.63.54-1.25,1.13-1.91,1.63-1.43,1.09-2.83,2.24-4.32,3.25l-2.64,1.8a31.44,31.44,0,0,1-6,3.11c-1.84.73-3.76,1.24-5.65,1.8a8.07,8.07,0,0,1-3.59.21,3.47,3.47,0,0,1-1.36-.45,8.38,8.38,0,0,1-2-1.52,8.12,8.12,0,0,1-1.22-1.67,14,14,0,0,1-.92-2.35,16.73,16.73,0,0,1-.48-2.54,25.25,25.25,0,0,1-.23-3c-.06-1.25,0-2.53.1-3.79.05-1,.13-2,.22-3a51.87,51.87,0,0,1,.74-5.54l1.26-6.6c.31-1.64.77-3.24,1.2-4.85s.72-3,1.18-4.43l2.1-6.63c.84-2.68,1.82-5.32,2.73-8s1.85-5.52,2.78-8.28,1.84-5.7,2.86-8.51l1.67-4.64c.5-1.37.94-2.78,1.5-4.13q1-2.4,2-4.8c.45-1.1.87-2.22,1.38-3.29,1.39-3,2.75-5.91,4.22-8.82,2.46-4.87,4.92-9.72,7.33-14.62-.79.36-1.58.73-2.36,1.12-2.47,1.32-4.84,2.8-7.18,4.35-2.87,2-5.75,4-8.59,6.07q-4.92,3.55-9.82,7.13-9.21,6.75-18.3,13.69-4.51,3.45-9,6.94c-3,2.35-6.11,4.66-9.18,7s-6,4.28-9.06,6.39a98.12,98.12,0,0,1-9.86,5.91,82.46,82.46,0,0,1-31.56,9.35c-3.58.39-7.17.76-10.74,1.26l-11.27,1.63c-.91.13-1.83.26-2.75.3a16.91,16.91,0,0,1-2.36-.06,6.48,6.48,0,0,1-1.82-.5,7.2,7.2,0,0,1-1.63-.9,10.46,10.46,0,0,1-3.8-8.17,30.32,30.32,0,0,1,2.09-11,68.53,68.53,0,0,1,6.61-13c2.74-4.44,5.82-8.67,8.82-12.94,2-2.84,4.13-5.57,6.19-8.35,1.17-1.57,2.43-3.07,3.64-4.59.94-1.2,1.88-2.39,2.87-3.55l4.59-5.37c1.16-1.35,2.43-2.62,3.65-3.91,1-1.08,2-2.17,3.07-3.2l5-4.9c2.47-2.43,5-4.81,7.49-7.22l8.84-8.64c5.33-5.21,10.78-10.29,16.16-15.44,2.5-2.38,4.91-4.85,7.34-7.3s4.91-4.94,7.27-7.49l.47-.51c.34-.42.67-.83,1-1.26-.44,0-.89-.09-1.34-.12-.75,0-1.5,0-2.25,0a67.87,67.87,0,0,0-8.14,1.28c-5.35,1.25-10.64,2.82-15.93,4.3l-11.07,3.07q-11.05,3.06-22.1,6.15c-3.6,1-7.23,1.88-10.85,2.8s-7.22,1.62-10.83,2.39c-7,1.5-14.17,2.68-21.3,3.77s-14.56,2.15-21.87,3c-3.88.45-7.75.89-11.64,1.27-1.87.18-3.74.4-5.62.53l-6.37.42c-1.6.11-3.19.11-4.78.13l-2.44,0c-1,0-2.1-.11-3.13-.17-.8,0-1.63,0-2.42-.14-1-.12-1.93-.26-2.9-.39-1.17-.16-2.32-.38-3.47-.62a14.45,14.45,0,0,1-2.58-.77,13.58,13.58,0,0,1-2.94-1.5,11.92,11.92,0,0,1-3.39-3.47,13.27,13.27,0,0,1-1.65-4,14.32,14.32,0,0,1-.38-3c0-1,.06-1.8.16-2.75a24.4,24.4,0,0,1,1.65-6,35.67,35.67,0,0,1,2.77-5.44,45.7,45.7,0,0,1,3.85-5.41,56,56,0,0,1,10.86-10,83,83,0,0,1,9.43-5.94l5.89-3.16c1.5-.8,3.06-1.49,4.6-2.22s2.92-1.38,4.4-2q5.65-2.49,11.34-4.93c3.34-1.45,6.66-3,10-4.45,6.49-2.9,12.92-5.93,19.44-8.76,3.35-1.45,6.69-2.94,10.06-4.34,3.86-1.61,7.71-3.21,11.58-4.79,3.26-1.33,6.53-2.67,9.75-4.12,1.83-.82,3.66-1.65,5.46-2.53,1.56-.76,3.11-1.55,4.65-2.35,2.28-1.19,4.57-2.37,6.76-3.73.48-.34.94-.7,1.4-1.07l0,0a15.47,15.47,0,0,0-1.13-1.3l.31.34c-.91-.94-1.84-1.84-2.82-2.7a62.5,62.5,0,0,0-5.19-3.83c-1.63-1-3.28-1.93-5-2.79a72.09,72.09,0,0,0-7.56-3c-5.66-1.8-11.48-3-17.27-4.3-3.2-.72-6.4-1.43-9.6-2.17l-12.06-2.78c-3.21-.73-6.42-1.45-9.6-2.28-3.74-1-7.47-2-11.13-3.21l-5.82-2c-1.8-.61-3.58-1.33-5.37-2-1.62-.61-3.21-1.34-4.81-2a65.54,65.54,0,0,1-9.85-5.26,69.91,69.91,0,0,1-9.88-8c-1.9-1.79-3.64-3.74-5.42-5.64-1.06-1.13-2.07-2.27-3.07-3.44-1.22-1.42-2.46-2.82-3.63-4.27s-2.44-2.92-3.58-4.43-2.54-3.23-3.68-4.93a98.9,98.9,0,0,1-6.11-10,9.42,9.42,0,0,1-1.35-4.17,7.76,7.76,0,0,1,1-3.88,8.36,8.36,0,0,1,3.24-2.92,23,23,0,0,1,6.07-2.2,83.19,83.19,0,0,1,9.93-1.89l7.33-.91c1.43-.18,2.88-.23,4.32-.32l3.91-.26c.67,0,1.35-.13,2-.13l6.28,0c1.48,0,3,0,4.43.1,3.68.26,7.37.42,11,.88l8.53,1.05c1.19.15,2.38.38,3.57.57l5.36.84c5,.79,10,1.72,15,2.58q7.21,1.23,14.48,2.17c2.82.37,5.65.71,8.48,1,2.45.28,4.92.46,7.38.63,1.58.08,3.16.17,4.74.16v0c0-.2,0-.39,0-.58s-.1-.63-.14-.94c-.21-.88-.46-1.73-.75-2.59s-.78-1.85-1.23-2.76c-.7-1.29-1.46-2.53-2.26-3.76a67.57,67.57,0,0,0-4.36-5.48c-2.32-2.51-4.77-4.86-7.33-7.14-1.39-1.16-2.77-2.34-4.16-3.51s-2.52-2-3.8-3-2.54-2.05-3.85-3l-5.65-4.21c-5.93-4.42-12.15-8.45-18.31-12.54-2.78-1.85-5.53-3.76-8.21-5.75-1.5-1.11-3-2.19-4.5-3.35l-5.28-4.23c-1.12-.89-2.2-1.83-3.28-2.76-1.51-1.3-3.06-2.56-4.54-3.9-3-2.68-5.94-5.37-8.85-8.12-2.44-2.31-4.87-4.65-7.18-7.08l-2.49-2.64c-.54-.57-1.11-1.12-1.62-1.72-1.31-1.55-2.63-3.1-3.94-4.66-1.08-1.27-2-2.65-3-4a62,62,0,0,1-3.54-5.64,37.42,37.42,0,0,1-2.61-5.94,21.81,21.81,0,0,1-1.1-6.65,15,15,0,0,1,.2-2.41,7.65,7.65,0,0,1,.56-2.11,16.07,16.07,0,0,1,1.15-2.17,13.16,13.16,0,0,1,1.37-1.71,7.53,7.53,0,0,1,1.71-1.36,22.88,22.88,0,0,1,2.2-1.15,16,16,0,0,1,6-1.1,22.32,22.32,0,0,1,2.83.11c1.29.12,2.53.31,3.8.55,2.33.44,4.63,1.05,6.9,1.7,3.09.88,6.13,1.95,9.19,2.93l6,1.93c1.84.59,3.72,1.06,5.58,1.59,3.58,1,7.17,1.95,10.77,2.88,1.54.4,3.07.88,4.6,1.32s3.2.89,4.77,1.44c3,1,6,2,8.92,3.21,3.09,1.26,6.18,2.49,9.24,3.82q9.63,4.17,19.13,8.6,8.55,3.94,17.34,7.34c3.29,1.28,6.59,2.49,9.9,3.7,2.66,1,5.36,1.84,8,2.73l6.86,2c.8.23,1.62.38,2.43.57l3.45.81c3.29.57,6.59,1.17,9.91,1.5a.14.14,0,0,1,0-.06c.15-.55.27-1.11.37-1.68,0,.2-.07.4-.11.6.19-1.19.32-2.36.42-3.56a71.68,71.68,0,0,0-.12-7.18,82.59,82.59,0,0,0-1.38-9.1c-.74-3.27-1.61-6.5-2.65-9.68l-1.92-5.83q-1.18-3.12-2.39-6.22c-.69-1.82-1.5-3.58-2.28-5.35s-1.4-3.28-2.21-4.86l-3.13-6.11c-1.74-3-3.43-5.94-5.27-8.84q-3.27-5.12-6.55-10.24c-4.06-6.36-8-12.81-11.87-19.28q-2.58-4.29-5.14-8.59c-2-3.28-3.94-6.55-5.84-9.87q-1.68-3-3.37-5.91c-.85-1.49-1.59-3-2.39-4.57l-1.56-3c-.24-.47-.52-.94-.73-1.43q-1.47-3.24-2.92-6.49c-1-2.22-1.84-4.51-2.66-6.81a65.09,65.09,0,0,1-3.19-12.94c-.26-1.87-.39-3.74-.5-5.61-.12-2.1-.22-4.21-.24-6.32q0-.81,0-1.62a8,8,0,0,1,.31-1.81,4.34,4.34,0,0,1,.68-1.42,6.44,6.44,0,0,1,1.2-1.4,5.43,5.43,0,0,1,2.56-1.24,3.91,3.91,0,0,1,1.08,0,5.78,5.78,0,0,1,1.89.33,19.48,19.48,0,0,1,3.8,1.95c2,1.36,3.88,2.91,5.76,4.43,3.76,3,7.29,6.36,10.87,9.62.66.61,1.34,1.19,2,1.84L1178,398l3.23,3.3c.88.89,1.68,1.86,2.52,2.78q6.58,7.33,13.13,14.7,7.91,8.52,16,16.9c2.58,2.7,5.22,5.35,7.84,8,1.13,1.16,2.34,2.25,3.52,3.36,1.78,1.69,3.54,3.38,5.39,5,1.38,1.16,2.77,2.3,4.2,3.4,2,1.51,4,2.9,6.11,4.26l-.37-.24,5.93,3.56c.73.43,1.52.79,2.27,1.18l3.27,1.7c2.21,1,4.44,1.94,6.73,2.74a47.6,47.6,0,0,0,4.69,1.24c1.09.18,2.17.31,3.27.42a38.43,38.43,0,0,0,3.87,0,21.28,21.28,0,0,0,2.24-.35c.38-.09.76-.2,1.14-.32l.58-.28.42-.25.38-.32.36-.38.45-.63.49-.88c.24-.5.44-1,.63-1.53.28-.95.52-1.91.72-2.89.23-1.38.39-2.76.5-4.15a84.31,84.31,0,0,0-.19-9.27c-.12-1.36-.23-2.74-.44-4.09-.15-1-.31-2-.47-3-.24-1.51-.4-3.06-.71-4.55l-1.35-6.24c-.4-1.86-.89-3.69-1.36-5.53-.39-1.56-.77-3.1-1.23-4.63q-1-3.23-1.94-6.46c-.6-1.57-1.18-3.15-1.78-4.73-.52-1.4-1-2.82-1.63-4.2-1.57-3.57-3.12-7.16-4.8-10.68s-3.46-7.26-5.15-10.91c-.59-1.24-1.19-2.47-1.69-3.75l-2.58-6.41c-.24-.6-.41-1.22-.61-1.84-.39-1.23-.77-2.45-1.16-3.69A68.9,68.9,0,0,1,1248,358a41.43,41.43,0,0,1,.06-12.38,33.2,33.2,0,0,1,4.09-11.7,20,20,0,0,1,1.31-1.94,10.13,10.13,0,0,1,1.52-1.68,13.12,13.12,0,0,1,2.06-1.51,7.38,7.38,0,0,1,1.78-.77,11.45,11.45,0,0,1,4.69-.4c1,.15,1.81.32,2.75.56a17.27,17.27,0,0,1,3.11,1.21c1.1.54,2.14,1.1,3.19,1.74.84.51,1.64,1.09,2.44,1.67a54.16,54.16,0,0,1,5.15,4.31,65.37,65.37,0,0,1,4.57,4.7c1.19,1.34,2.38,2.68,3.49,4.09,7.22,9.11,14.32,18.34,21,27.84,3.37,4.77,6.73,9.56,10.14,14.31,1.37,1.91,2.76,3.8,4.21,5.63.93,1.17,1.82,2.37,2.78,3.51s2.06,2.41,3.08,3.62c2.73,3,5.49,5.93,8.19,8.93s5.14,6.05,7.61,9.15,5,6.35,7.28,9.66c1.35,1.91,2.62,3.88,3.88,5.85,1-3.67,2.14-7.32,3.3-11,1.42-4.46,2.91-8.9,4.53-13.3q2.74-7.47,5.4-15c1-3.23,2.09-6.44,3-9.71q1.65-6,3.22-12c1.77-6.73,3.74-13.43,6-20,1.3-3.84,2.61-7.68,4-11.5s2.78-7.43,4.21-11.13c2.59-6.7,5.4-13.3,8.25-19.88a190.74,190.74,0,0,1,9.45-19.26,24.4,24.4,0,0,1,2.2-3.22,10.13,10.13,0,0,1,1.54-1.53,8,8,0,0,1,1.7-1.13,8.76,8.76,0,0,1,2-.69,8.23,8.23,0,0,1,2.27-.07,6.23,6.23,0,0,1,1.85.48q.59.26,1.17.54c.44.29.87.57,1.3.87a12.06,12.06,0,0,1,1.92,1.79c.59.62,1.12,1.3,1.65,2a18.77,18.77,0,0,1,2.54,4.46,30.48,30.48,0,0,1,1.65,5.6,46.15,46.15,0,0,1,1,6.07c.14,1.84.33,3.68.4,5.53s.14,3.73.14,5.6c0,3.61-.08,7.22-.18,10.83-.21,7.24-.4,14.49-.64,21.73-.21,6.37-.55,12.75-.47,19.12,0,3.09,0,6.18.25,9.26.22,3.31.44,6.61.7,9.92s.54,6.8.9,10.2.82,7.06,1.32,10.58c1,7.09,2.07,14.16,3.5,21.18a72.37,72.37,0,0,0,2.14,7.79c.12.32.26.64.4.95v0l.47.18.37.1.23,0,.42,0-.36.07h0l-.11,0-.09,0h0l.1,0-.3.06a2.84,2.84,0,0,0,.31-.06l.14,0-.13,0a10.22,10.22,0,0,0,1.21-.31c.51-.21,1-.43,1.51-.66,1.19-.65,2.32-1.35,3.45-2.09q3.21-2.28,6.2-4.84c1.67-1.44,3.32-2.91,5-4.39,2.62-2.42,5.19-4.86,7.68-7.4s4.88-5.11,7.22-7.75c5.09-5.75,10.19-11.49,15.37-17.17q7-7.69,13.84-15.61c4.81-5.6,9.56-11.26,14.43-16.81q7.86-9,15.88-17.84,7-7.75,14.41-15.11l1.77-1.72c.44-.42.9-.82,1.36-1.22l.45-.31c.43-.27.88-.51,1.33-.74a43.21,43.21,0,0,1,6.9-1.8,8.35,8.35,0,0,1,3.6.17,5.64,5.64,0,0,1,1.63.66,7.66,7.66,0,0,1,1.49,1,10,10,0,0,1,2.54,3.48,24.21,24.21,0,0,1,.94,2.84,15.78,15.78,0,0,1,.45,3,45.9,45.9,0,0,1-1.39,13c-.55,2.46-1.34,4.86-2.07,7.27-.51,1.73-1.2,3.41-1.81,5.11s-1.43,3.54-2.16,5.3c-.62,1.52-1.36,3-2,4.49s-1.29,2.68-1.94,4c-1.39,2.84-2.87,5.64-4.35,8.44-3.11,5.88-6.09,11.83-9,17.82q-3,6.24-5.77,12.53c-1.9,4.27-3.75,8.56-5.62,12.84-1.75,4-3.61,8-5.45,11.93s-3.6,8.31-5.16,12.56c-.89,2.71-1.64,5.45-2.3,8.24-.7,2.95-1.42,5.9-2,8.87-.14,1.07-.26,2.13-.35,3.2,0,.67,0,1.33,0,2a1.18,1.18,0,0,1,0,.2l.11.08.34.18.55.21.77.22-.57-.11a12.11,12.11,0,0,0,1.69.26h1.07l-.59.05a14.83,14.83,0,0,0,2.11-.26,17.25,17.25,0,0,0,1.74-.49c1.11-.43,2.17-.9,3.23-1.43a101,101,0,0,0,9.33-6c5.92-4.34,11.81-8.71,17.62-13.2,6.06-4.69,12-9.55,17.85-14.48,2.79-2.35,5.54-4.76,8.3-7.14s5.63-4.71,8.5-7,5.73-4.38,8.64-6.51q4.13-3,8.37-5.93c3-2,5.91-4,8.94-5.93s6.13-3.84,9.36-5.47a16.75,16.75,0,0,1,7.2-2.26,14.52,14.52,0,0,1,3.65.43,7.31,7.31,0,0,1,2,.81c.47.28.94.56,1.39.86s.8.68,1.19,1a8.58,8.58,0,0,1,2.23,3.58,12.06,12.06,0,0,1,.56,4.22,19,19,0,0,1-.91,5,39.24,39.24,0,0,1-2.83,6.69c-1.27,2.52-2.84,4.89-4.35,7.28-.93,1.46-1.87,2.92-2.84,4.35-2,3-4.08,6-6.19,8.91-4.23,5.93-8.49,11.83-13,17.58l-7.08,9.14c-2.08,2.69-4,5.5-5.9,8.31l-2.44,3.94c-.88,1.42-1.66,2.91-2.49,4.35-1.54,2.69-3,5.43-4.48,8.15-2.7,4.94-5.34,9.89-7.81,14.94-1.37,2.92-2.8,5.83-3.9,8.87,0,.17-.06.33-.1.5s0,.36,0,.54v0l.27.07c.35.06.7.1,1.06.13s1,0,1.46,0c1-.11,2-.26,3-.45,1.42-.32,2.84-.67,4.24-1.06s3-.92,4.49-1.4l-.58.2c3.39-1.22,6.78-2.42,10.14-3.73,3.82-1.48,7.62-3,11.42-4.53,3-1.22,6-2.52,9-3.78,1.74-.73,3.47-1.5,5.23-2.19l6.37-2.48c1.37-.54,2.75-1,4.14-1.48,1.74-.6,3.48-1.25,5.25-1.77l5.81-1.69c.77-.23,1.59-.38,2.38-.56l3.58-.84c1.8-.42,3.63-.72,5.44-1.07s3.57-.62,5.35-.93c3.39-.57,6.79-1,10.19-1.54s6.84-1,10.27-1.42c1.47-.18,3-.3,4.43-.36a20.33,20.33,0,0,1,2.59.12,5.14,5.14,0,0,1,3.12,1.54,5.21,5.21,0,0,1,1.37,3.07,7.35,7.35,0,0,1-.41,3.35,28.87,28.87,0,0,1-5,8.31c-.52.65-1,1.32-1.58,1.92-.71.78-1.42,1.55-2.14,2.32-1.17,1.28-2.49,2.44-3.74,3.64s-2.69,2.43-4,3.64-2.76,2.46-4.14,3.69c-2.88,2.61-5.77,5.21-8.7,7.75-2.69,2.33-5.45,4.57-8.21,6.81s-5.29,4.2-7.86,6.4q-2.93,2.52-5.8,5.11c-2.35,2.15-4.67,4.33-7.13,6.34-1.42,1.17-2.84,2.31-4.31,3.41s-2.87,2.12-4.32,3.16c-2.91,2.09-5.79,4.2-8.64,6.36s-5.3,4.19-7.85,6.43c-2.32,2.16-4.62,4.33-6.85,6.58-1.31,1.33-2.62,2.65-3.92,4s-2.62,2.61-3.85,4l-.26.33a.33.33,0,0,1-.06.1.09.09,0,0,1,0,.06v.09c0,.11,0,.22,0,.33s.09.36.13.54.16.41.23.61l-.24-.46a12.85,12.85,0,0,0,.85,1.48c.54.73,1.1,1.42,1.71,2.1.9.93,1.82,1.81,2.79,2.67,2.6,2.17,5.38,4.09,8.17,6,1.75,1.22,3.51,2.44,5.28,3.64q5.85,3.95,11.73,7.84c6.23,4,12.48,8,18.62,12.16s12.06,8.81,17.93,13.44c2.74,2.16,5.48,4.34,8.25,6.46,3,2.3,6.07,4.54,9.13,6.78,2.72,2,5.44,4,8,6.27,1.41,1.25,2.82,2.49,4.19,3.77s2.73,2.63,4.07,4c.79.8,1.56,1.6,2.33,2.42a15.76,15.76,0,0,1,1.54,1.82,30.09,30.09,0,0,1,1.83,3,9.06,9.06,0,0,1,1.38,4.07,3.49,3.49,0,0,1-.11.91,6,6,0,0,1-.36,1.56,9.5,9.5,0,0,1-1.56,2.54,17.15,17.15,0,0,1-5.31,4.18,35.6,35.6,0,0,1-5.92,2.35c-1.21.38-2.44.67-3.67,1s-2.52.43-3.77.64-2.55.27-3.81.41-2.37.13-3.56.17-2.28.08-3.43,0l-4.53-.15c-1.26,0-2.52-.19-3.78-.28l-3.3-.27q-4.08-.37-8.14-.7c-2.67-.12-5.32-.21-8-.18l-4.63,0c-1.58,0-3.18-.06-4.77-.09-1.29,0-2.58-.13-3.87-.21s-2.66-.16-4-.27q-4.68-.39-9.37-.73c-2.69-.12-5.38-.23-8.07-.27s-5.35,0-8,0c-4,0-7.92-.08-11.89,0q.35.79.72,1.59a51,51,0,0,0,2.74,4.53,102,102,0,0,0,7.25,8.82q3.49,3.66,7,7.31c2.67,2.76,5.35,5.5,8,8.34l4.5,4.93c1.16,1.26,2.24,2.61,3.34,3.92s2.29,2.61,3.34,4l4.22,5.44c4.29,5.51,8.39,11.16,12.5,16.8,2.4,3.29,4.79,6.58,7.15,9.9.92,1.29,1.87,2.56,2.75,3.88,1.34,2,2.67,4,4,6,2,3,3.88,6.09,5.8,9.15,1,1.57,1.89,3.19,2.83,4.78s1.73,3,2.58,4.47c3.76,6.62,7.38,13.33,11,20,1.72,3.17,3.36,6.39,5,9.61.83,1.63,1.63,3.28,2.45,4.91a12.84,12.84,0,0,1,1.08,2.53,9.71,9.71,0,0,1,.38,2.06,6.93,6.93,0,0,1-1.25,4.09,8.42,8.42,0,0,1-3.06,2.49,16.89,16.89,0,0,1-2.39.93,14.2,14.2,0,0,1-3.11.49,33.25,33.25,0,0,1-5.73-.12,43.84,43.84,0,0,1-4.69-.7c-1.7-.32-3.38-.63-5-1s-3.47-.84-5.17-1.38l-3.47-1.09c-.72-.22-1.45-.42-2.16-.69l-5.86-2.19c-1.69-.63-3.33-1.41-5-2.12s-3.47-1.53-5.21-2.3c-3.08-1.37-6.14-2.77-9.17-4.26-1.45-.71-2.94-1.38-4.37-2.16l-6.3-3.46c-3.08-1.7-6.06-3.56-9.08-5.36s-5.77-3.59-8.64-5.4c-3.28-2.07-6.54-4.17-9.8-6.27s-6.51-4.5-9.68-6.85c-4.41-3.27-8.69-6.72-13-10.11-1.78-1.4-3.56-2.8-5.35-4.18.24,1.76.49,3.51.73,5.27s.55,3.27.82,4.89.53,3.17.83,4.75c1.43,7.36,2.91,14.71,4.26,22.08,1.39,7.58,2.84,15.15,4,22.76.33,2.11.65,4.21,1,6.32s.51,4.11.76,6.16c.41,3.29.63,6.62.86,9.93.53,7.65,1.2,15.28,1.6,22.93.09,1.8.1,3.58.1,5.37s-.16,3.85-.29,5.77a82.55,82.55,0,0,1-1.44,10.28c-.22,1.15-.45,2.3-.69,3.44a15.48,15.48,0,0,1-1.5,4,8.32,8.32,0,0,1-2.35,2.59,9.51,9.51,0,0,1-1.69.92,6.32,6.32,0,0,1-1.35.39,4.14,4.14,0,0,1-1.11.16l-1.23,0a7.56,7.56,0,0,1-1.76-.26,12.13,12.13,0,0,1-2.1-.65,14.27,14.27,0,0,1-2.47-1.31,20,20,0,0,1-2.08-1.47,30,30,0,0,1-3.92-3.72c-1.75-1.94-3.36-4-4.92-6.07-1.16-1.57-2.22-3.21-3.32-4.82-1-1.43-1.87-2.94-2.78-4.42-1.76-2.88-3.43-5.81-5-8.79-2.86-5.48-5.7-11-8.67-16.38-3.07-5.61-6.27-11.14-9.52-16.64-2.93-5-5.9-9.9-8.82-14.87-2.77-4.71-5.56-9.41-8.64-13.94.07,2.51.21,5,.34,7.51.15,2.78.31,5.55.45,8.33l.87,16.59c.31,5.67.66,11.34,1,17,.31,5,.72,9.91,1.1,14.87q1,11.48,1.91,23c.28,3.59.45,7.18.66,10.76.09,1.62.11,3.25.16,4.87s.13,3.34.13,5c0,2.1,0,4.2,0,6.29,0,1.84-.16,3.68-.3,5.51a45,45,0,0,1-1.29,7.65,19.85,19.85,0,0,1-2.17,5.11,12.39,12.39,0,0,1-3,3.41c-.67.51-1.32,1-2,1.4a12.9,12.9,0,0,1-2.3,1.05,13.6,13.6,0,0,1-2.81.7A25,25,0,0,1,1493.51,960Z"/><path d="M1302.16,657.93a5.62,5.62,0,0,1-1.67-.81l-.06,0c-.23,0-.45.07-.68.09a7,7,0,0,1-3.75-.78,8.4,8.4,0,0,1-2.87-2.36,10.58,10.58,0,0,1-1.72-3.75,10.46,10.46,0,0,1,1.21-8,8.1,8.1,0,0,1,2.72-2.55,6.49,6.49,0,0,1,1.29-.57,4,4,0,0,1,1.6-1.28,6.21,6.21,0,0,1,3.59-.36,8.13,8.13,0,0,1,5.62,4.54,10.13,10.13,0,0,1,1,4.88,12.34,12.34,0,0,1,.72,4.08c0,2.5-1.08,5.46-3.52,6.52a6.56,6.56,0,0,1-2.46.57A3.45,3.45,0,0,1,1302.16,657.93Z"/><path d="M1356.79,667.51a7.62,7.62,0,0,1-5.58-2.77,12,12,0,0,1-2.62-5.36,18.15,18.15,0,0,1-.37-3.21,13.7,13.7,0,0,1,.51-3.54,4.52,4.52,0,0,1,4.45-3.31,6.94,6.94,0,0,1,1.55-1.6c.27-.19.53-.37.8-.54.26-.34.53-.66.81-1a14.29,14.29,0,0,1,2.39-2.14,7.8,7.8,0,0,1,2.41-1.37,6.76,6.76,0,0,1,2.76-.18,6.56,6.56,0,0,1,2.95,1.25,5.75,5.75,0,0,1,1.65,2,10.06,10.06,0,0,1,.9,2.55,15.71,15.71,0,0,1,.33,2.9,16.39,16.39,0,0,1-.47,3.75,17.63,17.63,0,0,1-6.88,10.93,8.84,8.84,0,0,1-5.13,1.59Z"/><path d="M1318,649.89c-1.64-2.37-3-4.93-4.5-7.4s-3-5-4.45-7.51q-3.9-6.6-7.65-13.3l-2.63-4.65c-.5-.89-1-1.79-1.48-2.69s-1-1.81-1.57-2.69l-.06-.1c0,.17.06.34.08.51a.68.68,0,0,1-1.35.19c-.15-.92-.28-1.83-.43-2.75l-.18-.8-.24-.52a1,1,0,0,1,.68-1.4,2,2,0,0,1,1.64,0,10.14,10.14,0,0,1,2.24,2,36.2,36.2,0,0,1,2.33,2.91c.68.91,1.36,1.82,2,2.76l0,0,0,0v0l-.12-.18.21.31,0,0,.57.85c0-.09-.11-.16-.16-.25.35.52.7,1,1,1.55l-.09-.14.61.91-.17-.25.42.62,0,0,.15.22,0,0h0l.55.81a.83.83,0,0,1-.08-.12l.48.71-.09-.13.32.47,0,0c.17.27.35.53.53.79l-.19-.27.5.73-.18-.27c.09.14.18.28.28.42l0,0h0l.15.23v0l.09.14.06.08.22.33-.08-.12,0,.06,0-.07-.05-.08.14.21c2.31,3.37,4.57,6.77,7,10.08,1.25,1.74,2.49,3.47,3.8,5.15.66.85,1.3,1.74,2,2.56s1.42,1.69,2.13,2.53,1.31,1.47,2,2.19a4.31,4.31,0,0,1,1.23,3,4.18,4.18,0,0,1-4.19,4.19A4.11,4.11,0,0,1,1318,649.89Z"/><path d="M1378.5,659.91a4.64,4.64,0,0,1-3.33-2.23c-.4-.64-.81-1.27-1.22-1.9-3-4.36-6.43-8.47-9.76-12.61s-6.66-8.08-10-12.12c-1.36-1.66-2.74-3.31-4.11-5l1.1,2.28,0,0h0l1.48,2.94s0,0,0,0c.4.8.83,1.58,1.25,2.37a24.65,24.65,0,0,1,1.37,3.17,29.82,29.82,0,0,1,.89,3.24c.11.44-.57.62-.67.18-.27-1.07-.52-2.14-.87-3.19v0a30.05,30.05,0,0,0-1.36-3.14l0,0c-.42-.81-.86-1.61-1.27-2.42h0l-1.49-3,0,0c-.84-1.65-1.62-3.35-2.42-5h0v0h0l-.15-.28-.85-1.14-.23-.3a1.93,1.93,0,0,1-.25-.78.59.59,0,0,1,.71-.72,1.6,1.6,0,0,1,.87.33l.38.36,2.09,1.94,2.32,2.19q3,2.82,6,5.67c4,3.87,8.08,7.76,12.18,11.59l1.45,1.36.17.15.54.47-.13-.12.14.13.16.14-.13-.11L1375,646l0,0,.11.1.22.19-.13-.11.66.57-.08-.07.18.16-.06,0,.1.09.15.13c2,1.77,4.21,3.39,6.22,5.21a4.47,4.47,0,0,1,1.34,3.24,4.57,4.57,0,0,1-4.59,4.58C1378.91,660,1378.7,659.93,1378.5,659.91Z"/><path d="M1315.16,731.33a41.72,41.72,0,0,1-8.71-3.36c-1.51-.72-3-1.47-4.5-2.21-1.28-.63-2.54-1.27-3.79-2a10.07,10.07,0,0,1-1.93-1.37,2.93,2.93,0,0,1-1-1.75,1.84,1.84,0,0,1,1-2.14,1.86,1.86,0,0,1,.7-.14h0a8.19,8.19,0,0,1,1.92.31c1.6.29,3.19.69,4.78,1l3.14.74c2.32.56,4.64,1.16,7,1.66,1.21.23,2.43.38,3.66.49s2.33.05,3.49,0a42.93,42.93,0,0,0,4.39-.62c5-1.12,10-2.62,14.88-4.22,1.15-.42,2.27-.9,3.37-1.43l3.53-1.87,1.58-.83a17.39,17.39,0,0,1,1.92-.87,10,10,0,0,1,3.37-.56,6.37,6.37,0,0,1,5.5,9.58,6.58,6.58,0,0,1-3.8,2.92l-.1,0-.56.2c-1.67.67-3.33,1.38-5,2.08a38.78,38.78,0,0,1-5,1.79c-1.37.37-2.77.58-4.16.82-3.6.62-7.21,1.26-10.82,1.81a56.42,56.42,0,0,1-7.34.68h-.55A32.33,32.33,0,0,1,1315.16,731.33Z"/><path d="M469.81,822.9c.69,0,1.37-.07,2.06-.12a29.71,29.71,0,0,0,4.49-.69,15.87,15.87,0,0,0,3.89-1.4,11.13,11.13,0,0,0,1.67-1.13A18.53,18.53,0,0,0,483.7,818c1.16-1.09,2.28-2.24,3.35-3.42a26.23,26.23,0,0,0,2.42-3.14c.44-.66.81-1.36,1.2-2,.47-.84.92-1.69,1.33-2.55.25-.54.51-1.09.77-1.63s.42-1,.63-1.55a30.56,30.56,0,0,0,2-6.9,38,38,0,0,0,.3-6c0-1,0-2-.06-3s-.1-2.29-.21-3.43c0-.43-.06-.86-.13-1.29l-.3-2c-.07-.39-.15-.77-.23-1.15-.12-.63-.23-1.27-.38-1.89-.25-1-.5-2-.74-3-.1-.41-.24-.81-.36-1.21l-.51-1.7c-.14-.49-.35-1-.53-1.45s-.34-1-.54-1.43c-.44-1-.85-1.95-1.34-2.89s-.9-1.79-1.39-2.67-1-1.82-1.58-2.7-1.19-1.88-1.85-2.78-1.19-1.63-1.83-2.41c-1.1-1.32-2.19-2.63-3.4-3.84a24.1,24.1,0,0,0-4.54-3.64,16,16,0,0,0-6-2.13A14.47,14.47,0,0,0,467,746a24.61,24.61,0,0,0-3.08.35,18.88,18.88,0,0,0-5.62,1.82,19.21,19.21,0,0,0-7.53,7.51c-.41.72-.78,1.47-1.13,2.22-.2.42-.38.84-.54,1.28a3.58,3.58,0,0,0-.25,1,1.88,1.88,0,0,0,0,.67c0,.17.11.34.15.52h0a1.23,1.23,0,0,1,0,.19.58.58,0,0,0,1.15,0,4.88,4.88,0,0,1,.06-.52s0-.09,0-.14l.06-.14.23-.39c.73-1.05,1.55-2.05,2.38-3l0,0,0,0,0,0,0,0a21.63,21.63,0,0,1,1.91-1.92c.43-.36.87-.7,1.33-1s.85-.53,1.3-.77.89-.4,1.36-.57c.72-.24,1.45-.44,2.19-.61a29.16,29.16,0,0,1,3.25-.42,31.25,31.25,0,0,1,3.21,0c.44,0,.87.09,1.31.16s.84.21,1.26.34.86.34,1.28.54,1.05.58,1.55.9,1.06.79,1.57,1.22c1,.93,2,1.92,2.92,2.94.61.73,1.23,1.46,1.85,2.18.3.37.58.76.86,1.14l1,1.27c.36.55.73,1.09,1.09,1.63s.64,1,1,1.56c.69,1.15,1.33,2.33,2,3.5l1.05,2.15c.2.4.34.83.51,1.23l.46,1.12c.41,1.26.83,2.52,1.17,3.8s.71,2.8,1,4.21c.13.66.28,1.32.37,2s.18,1.55.28,2.32c.06,1,.14,2,.17,3,0,1.89.14,3.79,0,5.68a24.55,24.55,0,0,1-.33,2.56,29,29,0,0,1-.87,3.16c-.31.86-.67,1.72-1,2.58-.25.63-.56,1.23-.85,1.84-.72,1.35-1.43,2.7-2.26,4-.47.66-1,1.28-1.49,1.89a50.62,50.62,0,0,1-3.73,3.74c-.51.44-1,.84-1.59,1.23l-.54.31c-.32.14-.63.27-.95.39-.62.2-1.23.34-1.86.48a26.41,26.41,0,0,1-3.06.4,50.42,50.42,0,0,1-6,.08,26.62,26.62,0,0,1-2.94-.4c-.94-.21-1.87-.45-2.79-.74-.48-.17-1-.33-1.44-.54-.68-.29-1.36-.59-2-.92a2.8,2.8,0,0,0-1.89-.13,3,3,0,0,0-1.73,1.33,2.91,2.91,0,0,0,1,4,16.94,16.94,0,0,0,3.27,1.42,31.31,31.31,0,0,0,6.55,1.45,25.51,25.51,0,0,0,2.76.14C467.56,823,468.68,823,469.81,822.9Z"/><path d="M431.07,752.09h0a3.72,3.72,0,0,1,0,2.89,3.77,3.77,0,0,1-2,2,3.9,3.9,0,0,1-2.89,0l-.67-.24-.45-.15c0,.11,0,.22.08.32.06.28-.36.39-.43.12s-.09-.38-.14-.58l-.59-.15-.28,0c-.31,0-.62,0-.94,0-.54,0-1.09.11-1.62.21a28,28,0,0,0-2.85.79,40.79,40.79,0,0,0-4.48,1.88c-.67.34-1.32.7-2,1.1-.4.28-.79.58-1.16.89l-.68.68a11.87,11.87,0,0,0-.81,1.06,22.63,22.63,0,0,0-1.2,2.09,30.19,30.19,0,0,0-1.28,3,21.83,21.83,0,0,0-.64,2.37c-.3,1.62-.44,3.24-.58,4.88-.05,1.27-.1,2.54-.09,3.81s.05,2.54.1,3.81.21,2.62.45,3.93a36,36,0,0,0,1.14,3.93c0-.14-.09-.28-.14-.42.32.92.62,1.85,1,2.75s.67,1.83,1,2.72.77,1.9,1.21,2.82.8,1.66,1.19,2.49l.65,1.24c.22.42.42.85.66,1.26l1.62,2.73c.31.45.61.91.92,1.37s.52.79.8,1.17c1.09,1.41,2.15,2.82,3.31,4.16a39.05,39.05,0,0,0,3.07,3.1c.69.59,1.4,1.17,2.14,1.7.5.32,1,.63,1.54.91q.53.24,1.05.45a11.56,11.56,0,0,0,1.19.32,13.55,13.55,0,0,0,1.41.17,32.52,32.52,0,0,0,3.42,0,29.42,29.42,0,0,0,3.23-.42c.6-.14,1.19-.3,1.77-.49.42-.16.84-.34,1.25-.53s1.06-.6,1.58-.93,1-.79,1.55-1.19l1.23-1.09c.45-.4.86-.85,1.29-1.27.87-.86,1.72-1.75,2.53-2.67.33-.38.64-.78.93-1.19a9.52,9.52,0,0,0,.52-.87c.67-1.45,1.15-3,1.7-4.49l1.14-3.14c.27-.84.52-1.69.71-2.56a30.89,30.89,0,0,0,.45-3.46c.12-1.95.07-3.91.05-5.86s-.08-3.88-.18-5.82c-.09-1-.2-1.9-.38-2.83a67.27,67.27,0,0,0-2-7.27,42.07,42.07,0,0,0-1.71-3.89c-.92-1.67-1.86-3.31-2.84-4.94-.5-.73-1-1.46-1.53-2.17s-1.1-1.37-1.66-2c-.45-.48-.88-1-1.36-1.43l-1.42-1.32c-.58-.49-1.14-1-1.75-1.46-.81-.6-1.61-1.22-2.43-1.78a26.93,26.93,0,0,0-2.63-1.58q-.66-.32-1.35-.57c-.27-.09-.54-.16-.81-.23Zm-1.93,74a15.07,15.07,0,0,1-2.91-.26,15.51,15.51,0,0,1-4.22-1.55,23.07,23.07,0,0,1-3.77-2.58,35.7,35.7,0,0,1-3.31-3.08c-1.36-1.42-2.59-2.92-3.81-4.46-.28-.36-.59-.71-.85-1.09l-1-1.5c-.36-.53-.77-1-1.1-1.61s-.52-.87-.77-1.31-.62-1-.87-1.47-.49-1-.73-1.44c-.56-1.1-1.08-2.2-1.59-3.32s-.87-2-1.28-3.09c-.88-2.22-1.6-4.5-2.31-6.77a35.75,35.75,0,0,1-1-4,41.11,41.11,0,0,1-.55-5.43c-.05-.93-.07-1.87-.07-2.81s0-2.15,0-3.23c.06-1.29.13-2.58.23-3.88a30.94,30.94,0,0,1,1.22-7.15,35,35,0,0,1,1.84-4.64,21.6,21.6,0,0,1,2.22-3.73,15.75,15.75,0,0,1,3.26-3.16,28.12,28.12,0,0,1,3.62-2.16,35.47,35.47,0,0,1,8.55-3.22,17.92,17.92,0,0,1,2.73-.37,9.69,9.69,0,0,1,2.22,0,15.37,15.37,0,0,1,3.44,1,9.11,9.11,0,0,1,2.32-.54,11.21,11.21,0,0,1,5.36,1.13,24.49,24.49,0,0,1,2.93,1.5l1.69,1c.48.3.93.65,1.39,1s.71.49,1,.76c.53.43,1.09.83,1.59,1.29l1.28,1.2a23.5,23.5,0,0,1,2.09,2.26c.34.41.69.8,1,1.23l1,1.38c.4.55.75,1.15,1.11,1.72.26.39.49.79.73,1.2.51.86,1,1.72,1.48,2.61.34.66.69,1.31,1,2a34.86,34.86,0,0,1,1.46,3.84c.32,1,.63,2.07.89,3.11a38.66,38.66,0,0,1,1.15,5.52c.26,2.48.29,5,.32,7.47A66.28,66.28,0,0,1,458,797a27.87,27.87,0,0,1-.89,4.72c-.21.72-.45,1.41-.69,2.11q-.54,1.59-1.11,3.18l-.48,1.42a21.69,21.69,0,0,1-1,2.69,16,16,0,0,1-2,3.17c-.44.52-.88,1-1.33,1.52a50.77,50.77,0,0,1-4.85,4.88,19.7,19.7,0,0,1-5.61,3.58,31.28,31.28,0,0,1-8.84,1.72C430.45,826.05,429.79,826.08,429.14,826.08Z"/><path d="M431.4,798.36a8.16,8.16,0,0,0,1-.26,9.22,9.22,0,0,0,4.18-.72,9.43,9.43,0,0,0,3.77-2.81,12.73,12.73,0,0,0,2.19-3.75,17.58,17.58,0,0,0,1-5,14.26,14.26,0,0,0-.54-4.73,11,11,0,0,0-2.4-4.42,11.46,11.46,0,0,0-3.4-2.63,16.71,16.71,0,0,0-4.82-1.52,23.25,23.25,0,0,0-2.36-.22l-.59,0a9.43,9.43,0,0,0-5-.74,6.22,6.22,0,0,0-3.17,1.74,6.15,6.15,0,0,0-1.13,1.51,10.52,10.52,0,0,0-.89,2.14,12.72,12.72,0,0,0-.53,4.42,14.64,14.64,0,0,0,.54,3.35c.06,5.45,2.34,11.6,7.85,13.35a8.94,8.94,0,0,0,2.75.44A8.06,8.06,0,0,0,431.4,798.36Z"/><path d="M475,793.16a9.91,9.91,0,0,0,5.9-4.09,9.36,9.36,0,0,0,1.4-3.52,10,10,0,0,0-1.69-7.26,14.79,14.79,0,0,0-2-2.43,15.18,15.18,0,0,0-.89-2.07,10.54,10.54,0,0,0-1.58-2.18,3.9,3.9,0,0,0-.12-.46,6.36,6.36,0,0,0-.88-1.67,4.76,4.76,0,0,0-1.4-1.28,6,6,0,0,0-3.88-.66,7.15,7.15,0,0,0-3.37,1.56,8.32,8.32,0,0,0-2.32,3,7.86,7.86,0,0,0-2.34,2.89,9.29,9.29,0,0,0-.8,3.37,6.87,6.87,0,0,0,.29,2.34,11.56,11.56,0,0,0-.13,5,9.4,9.4,0,0,0,3.74,5.66,12.5,12.5,0,0,0,6.63,2.2h.53A12.67,12.67,0,0,0,475,793.16Z"/><path d="M405.63,910.77a13.23,13.23,0,0,0,4.86-1.54,18.17,18.17,0,0,0,4.51-3.58c1.39-1.45,2.57-3.12,3.83-4.68.56-.62,1.12-1.24,1.72-1.83s1.42-1.34,2.15-2c1.34-1.15,2.77-2.2,4.21-3.23.4-.26.81-.5,1.24-.73l.75-.32c.52-.16,1-.3,1.57-.42s1.31-.21,2-.28l1.24-.08c.46,0,.92,0,1.38,0s1,.12,1.54.21,1,.26,1.52.42c.69.25,1.35.54,2,.85.83.42,1.67.85,2.47,1.34,1,.63,2,1.26,3,1.91,2.09,1.47,4.16,3,6.23,4.48,1.06.77,2.12,1.55,3.19,2.31,1.23.87,2.48,1.69,3.74,2.51.57.38,1.18.71,1.77,1a23,23,0,0,0,2.08,1.11c.71.33,1.41.66,2.13,1a18,18,0,0,0,5.67,1.13,29,29,0,0,0,5.74-.11,17.83,17.83,0,0,0,7.08-2.83A15,15,0,0,0,485.1,906a10.58,10.58,0,0,0,2.27-2.92,18.74,18.74,0,0,0,2-7.77,21.09,21.09,0,0,0-.15-4,31.66,31.66,0,0,0-1-4.51,24.91,24.91,0,0,0-1.42-3.84,3.32,3.32,0,0,0-1.34-1.53,3.22,3.22,0,0,0-1.68-.44l-.63-1.22a60.89,60.89,0,0,0-3.92-6.15c-.41-.6-.84-1.2-1.25-1.81s-.75-1-1.12-1.42-.83-1-1.23-1.55-1.09-1.21-1.63-1.81c-1.69-1.87-3.47-3.67-5.27-5.44-1-.94-1.9-1.91-2.89-2.83s-2.05-2-3.15-2.86-2.17-1.76-3.33-2.55-2.46-1.67-3.73-2.46-2.46-1.49-3.71-2.21-2.62-1.4-4-2.07-2.51-1.09-3.79-1.61c-.58-.23-1.18-.4-1.77-.59s-1.29-.45-2-.61l-2.32-.58c-.69-.16-1.38-.27-2.07-.4-1.34-.23-2.67-.4-4-.56a26.92,26.92,0,0,0-9.87.72l-2.32.59c-.64.16-1.27.4-1.9.6a43.59,43.59,0,0,0-4.17,1.58,42.23,42.23,0,0,0-6.7,4,33.14,33.14,0,0,0-4.29,3.55,26.54,26.54,0,0,0-3.35,4.13,29.22,29.22,0,0,0-2.32,4.12A63.56,63.56,0,0,0,393,872.14a57.82,57.82,0,0,0-1.54,8.86c-.27,3-.33,5.91-.35,8.88a53.44,53.44,0,0,0,.17,6.07,16.82,16.82,0,0,0,1.66,5.17,31.3,31.3,0,0,0,3,5,12.8,12.8,0,0,0,3.92,3.4,9.79,9.79,0,0,0,4.83,1.27C405,910.82,405.31,910.8,405.63,910.77Z"/></svg>