<svg id="Layer_1" data-name="Layer 1" xmlns="http://www.w3.org/2000/svg" viewBox="0 0 1920 1080"><defs><style>.cls-1{fill:blue;opacity:0.2;}.cls-2{fill:#fff;}.cls-3{font-size:60px;font-family:VarelaRound-Regular, Varela Round;}.cls-4{letter-spacing:-0.01em;}.cls-5{letter-spacing:-0.03em;}.cls-6{letter-spacing:-0.02em;}.cls-7{letter-spacing:0em;}.cls-8{letter-spacing:-0.01em;}.cls-9{letter-spacing:-0.02em;}.cls-10{letter-spacing:0em;}.cls-11{letter-spacing:-0.02em;}.cls-12{fill:#ffdc00;}</style></defs><circle class="cls-1" cx="488.5" cy="601.5" r="327.5"/><path class="cls-2" d="M722.72,634c0,23.17,43.85,90.84.75,107.37C696.67,751.61,620,763.8,582.05,769.77c-39.83,6.25-153.88,12-201.28,12-50.88,0-148.1,2.65-190-4.49-37.95-6.46-63-53.14-68.09-80.81-11.22-60.61-2.72-73.07,14.22-86.8,43.4-35.16,62.1-20.2,104-17.21,25.92,1.85,29.13-33.09,57.62-55.37,41.15-32.17,24.69-122,158.62-122,49.23,0,76.52,31.81,113,51.63,34.42,18.71,29.27,83.92,53.87,92.78C670.65,576.34,722.72,609.73,722.72,634Z"/><path d="M297.87,783.86c-6.36-.06-12.72-.34-19.06-.6q-10.95-.45-21.91-.72l-9.75-.26c-3.29-.09-6.6-.22-9.88-.46s-6.72-.46-10.08-.78c-3.64-.34-7.27-.68-10.91-1s-7.05-.66-10.58-1c-2.92-.26-5.86-.48-8.78-.79l-6.24-.68c-1.58-.18-3.14-.46-4.71-.7-2.45-.37-4.86-.81-7.29-1.35a80.56,80.56,0,0,1-10.83-3.32l-5.34-2c-1.73-.64-3.42-1.41-5.12-2.12-1.24-.51-2.45-1.06-3.67-1.62-1.66-.76-3.33-1.49-4.95-2.34-1.77-.94-3.56-1.84-5.28-2.85a66.57,66.57,0,0,1-9.45-6.68,53.68,53.68,0,0,1-7.73-7.64c-1.14-1.44-2.22-2.89-3.29-4.39s-2-3-3-4.54a85.31,85.31,0,0,1-5-9.23c-.36-.75-.63-1.55-.94-2.32-.23-.57-.44-1.14-.65-1.73-.69-2-1.37-4-2-6-1-3.29-1.93-6.6-2.79-9.92-.41-1.56-.75-3.13-1.1-4.71-.21-1-.47-1.93-.62-2.9s-.28-1.94-.43-2.9a86.69,86.69,0,0,1-.79-10.43c-.1-3.23-.1-6.47.07-9.69.12-2.28.22-4.56.42-6.83a78.43,78.43,0,0,1,2.53-14.24,86.78,86.78,0,0,1,4.88-12.92c.92-2,2-4,3-6,.68-1.33,1.45-2.6,2.2-3.89s1.63-2.77,2.49-4.13c1-1.53,1.91-3.1,3-4.59l3.52-5c.89-1.26,1.89-2.44,2.83-3.65s1.8-2.27,2.76-3.37c1.26-1.47,2.53-2.93,3.79-4.39s2.71-2.87,4.08-4.28c.92-.94,1.81-1.89,2.79-2.77q2.35-2.1,4.7-4.21c1.36-1.21,2.86-2.28,4.31-3.39s2.75-2,4.17-3c1.26-.85,2.5-1.74,3.82-2.51,1.75-1,3.49-2.12,5.31-3,2.47-1.23,4.91-2.47,7.47-3.51a58.87,58.87,0,0,1,15.52-3.81,60,60,0,0,1,20.28,1.62l2.82.67a53,53,0,0,1,7.14,2.39,56.09,56.09,0,0,1,13.71,8c2.48,1.91,4.73,4.1,7,6.23l4.34,4.1h0a84.55,84.55,0,0,0,6.78,5.48l.24.13a.67.67,0,0,1,.07,1.33,1,1,0,0,1-.42,0,20.86,20.86,0,0,1-2.63-1.21,57.86,57.86,0,0,1-5.36-3.2c-1.52-1-2.95-2.1-4.42-3.16s-3.07-2.19-4.6-3.28c-1.84-1.2-3.7-2.34-5.66-3.36a53.08,53.08,0,0,0-5.54-2.38c-1.93-.64-3.87-1.18-5.86-1.63s-4.23-.72-6.37-.94c-1.43-.08-2.87-.23-4.3-.22-2.6,0-5.19,0-7.78.13a60.36,60.36,0,0,0-6.28.86c-2.17.5-4.29,1.11-6.39,1.81s-4.4,1.75-6.54,2.79c-2.33,1.22-4.58,2.58-6.84,3.92-.68.4-1.32.88-2,1.31l-2.25,1.5-4.71,3.5c-.87.65-1.67,1.4-2.5,2.09L159.26,609l-5,4.75c-.86.83-1.64,1.78-2.45,2.66l-2.51,2.7c-2.08,2.51-4.18,5-6.14,7.61-1,1.31-2,2.6-2.94,4l-2.76,4.06q-1.64,2.64-3.26,5.29c-1.1,1.77-2.07,3.64-3.09,5.45-.62,1.23-1.23,2.46-1.84,3.69a80.23,80.23,0,0,0-3.62,8.55,70.18,70.18,0,0,0-2.1,7.54c-.55,3-.91,5.92-1.17,8.91-.14,2.65-.29,5.29-.3,8,0,1.27-.06,2.56,0,3.84l.15,4.57c.11,1.28.21,2.56.31,3.84.07.77.24,1.56.36,2.32s.21,1.41.31,2.11c.3,1.34.59,2.68.89,4,.36,1.67.86,3.32,1.29,5,.78,3,1.72,5.93,2.63,8.87.46,1.32.92,2.63,1.45,3.92s1.18,2.72,1.82,4.06,1.37,2.51,2.11,3.73,1.58,2.53,2.39,3.78l1.76,2.47c.6.85,1.29,1.66,2,2.49.51.56,1,1.12,1.54,1.69s1.31,1.25,2,1.86c1.84,1.56,3.71,3.07,5.69,4.47,1.63,1.08,3.3,2.11,5,3l3.32,1.75c2.95,1.35,5.9,2.67,8.89,3.91s6,2.37,9.05,3.5c1.61.54,3.22,1.07,4.86,1.54s3.06.78,4.6,1.1c4.86.94,9.79,1.45,14.71,2,4.5.49,9,.81,13.54,1.22,4.2.38,8.4.81,12.6,1.21,4.49.42,9,.77,13.51,1.1,6.6.3,13.2.51,19.81.67,7.05.17,14.1.43,21.15.72,13,.53,26.06.86,39.08.46,7-.22,14-.45,21-.58,7.24-.13,14.49-.26,21.73-.45,13.73-.34,27.45-.95,41.16-1.72,11.18-.63,22.35-1.36,33.53-2.1q10.62-.8,21.25-1.55c6.25-.45,12.51-.88,18.77-1.18l12.08-.58c3.63-.17,7.28-.25,10.91-.37,6.47-.21,12.93-.4,19.39-.71l6.77-.33c13.54-.93,27.07-2,40.6-3.06,13-1,26-1.81,39-2.79s25.78-2,38.65-3.32c6.24-.64,12.48-1.38,18.7-2.15,3.2-.4,6.39-.84,9.59-1.28,2.85-.39,5.69-.92,8.52-1.39L687,742.4c1.38-.29,2.75-.72,4.12-1.08,1.71-.46,3.39-.94,5.07-1.49,2.16-.79,4.26-1.67,6.33-2.67,1.39-.74,2.76-1.52,4.1-2.37,1-.69,1.91-1.42,2.83-2.18s1.65-1.58,2.43-2.42a72.8,72.8,0,0,0,4.51-5.85c1.9-2.87,3.62-5.84,5.37-8.8.48-.82.87-1.69,1.3-2.54s1-2,1.51-3c1.06-2.31,2.05-4.64,2.92-7a103.86,103.86,0,0,0,3-11c.47-2.44.8-4.9,1.17-7.36.26-1.75.36-3.52.51-5.28.1-2.66.07-5.3-.08-8-.26-3.07-.74-6.11-1.17-9.15-.47-2.16-.92-4.31-1.39-6.46-.22-1-.6-2-.89-3l-1.15-3.88q-1.09-3-2.21-5.94c-.3-.82-.71-1.61-1.06-2.4-.46-1-.93-2.09-1.39-3.14l-2.18-4.14c-.72-1.36-1.54-2.67-2.34-4s-1.7-2.84-2.63-4.22l-2.7-4-4-5.32c-.55-.72-1.17-1.38-1.75-2.06L705,611.19c-2.17-2.33-4.33-4.65-6.57-6.91s-4.41-4.29-6.65-6.39c-2.23-1.87-4.44-3.74-6.74-5.51-1.07-.82-2.13-1.67-3.24-2.45l-3.93-2.74c-2.71-1.68-5.39-3.37-8.22-4.85-1.7-.81-3.42-1.53-5.19-2.19a63.37,63.37,0,0,0-6.9-1.88c-2.2-.41-4.41-.67-6.63-1-1.35-.17-2.72-.25-4.09-.34-2.07-.09-4.13-.19-6.19-.21-2.3,0-4.59,0-6.89.11-1.92.13-3.84.28-5.75.48-2.14.21-4.27.47-6.4.74s-4.46.51-6.67.85c-1.08.17-2.17.29-3.24.51L609,580c-2.47.66-4.93,1.35-7.38,2.09L602,582c-.85.29-1.73.57-2.55.93L596,584.36l-3,1.53c-1.43.72-2.8,1.57-4.19,2.35-2.68,1.5-5.31,3.09-8,4.62-5.5,3.19-10.94,6.47-16.29,9.92a7.93,7.93,0,0,1-6.22.81,8.06,8.06,0,0,1-4.25-12.72,9.19,9.19,0,0,1,2.31-2c5.43-3.64,11-7.05,16.61-10.36,6-3.53,11.93-7.21,18.3-10a84,84,0,0,1,20.94-5.77c3.2-.49,6.44-.84,9.66-1.23,3.43-.41,6.86-.72,10.31-1s6.91-.22,10.37-.19c1.84,0,3.72.12,5.56.27,1.59.12,3.21.17,4.8.38l5,.66a60,60,0,0,1,6.24,1.28,66.34,66.34,0,0,1,7.29,2.31,55.59,55.59,0,0,1,5.91,2.62c1.37.7,2.76,1.41,4.07,2.23l4.94,3.06c1.74,1.08,3.39,2.34,5.07,3.52,1.4,1,2.73,2,4.08,3.07,1.13.87,2.23,1.75,3.32,2.67,1.47,1.24,3,2.44,4.41,3.76l4.25,4c1.29,1.21,2.5,2.51,3.75,3.77,1,1,2,2,2.92,3.06,1.27,1.37,2.57,2.72,3.78,4.14l3.76,4.44c1.17,1.37,2.2,2.88,3.3,4.32.87,1.15,1.68,2.35,2.49,3.55,1,1.49,2.09,3,3,4.49l3,5c.8,1.31,1.49,2.66,2.2,4s1.56,2.85,2.22,4.33c.77,1.74,1.54,3.49,2.32,5.23.25.56.43,1.16.64,1.74l1.2,3.23c.57,1.52,1.09,3.05,1.55,4.61l1.56,5.32c.17.57.26,1.18.38,1.75l.84,3.92c.29,1.39.58,2.77.78,4.19.27,1.95.55,3.92.82,5.87.17,1.19.22,2.41.29,3.6s.14,2.49.18,3.73a56,56,0,0,1-.17,6.48l-.48,5.37c-.06.68-.21,1.36-.31,2-.17,1.14-.34,2.26-.51,3.39a92.92,92.92,0,0,1-2.36,10.68,90.35,90.35,0,0,1-4.66,12.94c-1,2.2-2.14,4.33-3.23,6.47a104.87,104.87,0,0,1-5.61,9.62,74.36,74.36,0,0,1-7.66,10.17,47,47,0,0,1-11.2,8.9,62.78,62.78,0,0,1-11.49,5.11c-2.37.79-4.75,1.43-7.17,2.07-3.23.85-6.49,1.49-9.76,2.17-1.76.36-3.53.63-5.3.92-1.48.25-3,.51-4.45.71-3.58.49-7.17,1-10.76,1.42-13.68,1.7-27.39,3-41.12,4.17C608.92,768.14,595.46,769,582,770q-21.15,1.57-42.29,3.27-9.9.76-19.81,1.24c-6.6.33-13.21.53-19.82.75q-10.47.35-20.94.83c-5.87.28-11.73.67-17.59,1-13.48,1-27,2-40.45,2.81s-26.71,1.69-40.08,2.19c-7,.26-14,.52-21,.7-7.29.18-14.57.3-21.86.44-6.86.12-13.72.37-20.58.58-3,.1-6.08.13-9.12.13C304.92,783.93,301.4,783.88,297.87,783.86Z"/><path d="M623,566.79a1.16,1.16,0,0,1-1.13-1.43s0,0,0,0,0-.11,0-.17,0-.23,0-.34-.06-.46-.11-.69c-.43-1.93-.93-3.84-1.48-5.75s-1.26-4-1.95-6l-.93-2.26c-.31-.76-.58-1.56-.94-2.3-.78-1.61-1.55-3.22-2.33-4.82-1.64-3-3.29-6-5-8.9s-3.54-5.69-5.36-8.52-3.87-5.48-5.91-8.14-4.2-5.39-6.34-8.06L584.69,501c-2.11-2.61-4.27-5.17-6.44-7.73l-3.53-3.82c-1-1.08-2.05-2.09-3.1-3.12s-2.18-2.17-3.32-3.19l-3.92-3.55c-2.14-1.77-4.26-3.57-6.49-5.24-1.2-.9-2.36-1.85-3.61-2.69l-4.45-3c-3.75-2.29-7.49-4.6-11.35-6.7q-6.08-3.3-12.2-6.48c-2.55-1.26-5.1-2.53-7.68-3.74q-5-2.32-10-4.63l-9.52-4.34c-2.79-1.27-5.68-2.36-8.51-3.53l-5.9-2c-1.74-.6-3.51-1-5.29-1.52s-3.63-1-5.48-1.39L467.8,433c-3.91-.67-7.81-1.33-11.74-1.86-1.78-.24-3.55-.5-5.34-.67l-6.64-.64a173.6,173.6,0,0,0-19.22-.33,80.31,80.31,0,0,0-8.75,1.18,76.2,76.2,0,0,0-8,2.18c-2.94,1.07-5.78,2.34-8.65,3.58l-4.39,2.24c-1.64.84-3.21,1.84-4.8,2.76-3,1.72-5.83,3.62-8.71,5.48-1.63,1.11-3.25,2.23-4.83,3.42s-3.08,2.45-4.59,3.72c-1.76,1.65-3.51,3.29-5.21,5s-3.55,3.66-5.24,5.56a54.05,54.05,0,0,0-3.43,4.4c-.94,1.44-1.8,2.94-2.61,4.46-.52,1.06-1,2.13-1.55,3.2s-.95,2.32-1.41,3.48a65.88,65.88,0,0,0-2,6.6c-.13.82-.24,1.65-.33,2.48a7.88,7.88,0,0,1-2.22,5.32,7.57,7.57,0,0,1-12.92-5.35,28.71,28.71,0,0,1,1-7.49c.59-2.2,1.33-4.35,2.08-6.51a44.45,44.45,0,0,1,2-5l1.56-3.24a58.12,58.12,0,0,1,4.41-7.45,80.62,80.62,0,0,1,7.42-8.88c1.38-1.51,2.82-3,4.25-4.46s2.9-2.85,4.42-4.18,3.17-2.78,4.83-4.08c3.34-2.6,6.81-5,10.35-7.34,3.37-2.2,6.74-4.46,10.3-6.35,2-1.06,3.95-2.18,6-3.1,2.8-1.25,5.57-2.51,8.47-3.55a77.84,77.84,0,0,1,17.5-4.08,87.71,87.71,0,0,1,11.91-.53c1.94,0,3.89,0,5.83.12l7.24.43c2.41.14,4.81.44,7.21.69,1.74.17,3.45.4,5.17.64s3.71.48,5.55.81L470,417c2.36.41,4.69,1,7,1.5,1.67.36,3.29.77,4.93,1.23,2.25.63,4.54,1.17,6.74,1.95l7,2.47c1.66.59,3.25,1.32,4.86,2s3.33,1.39,5,2.17q6.22,3,12.42,5.94c3.5,1.69,7,3.37,10.43,5.17,3.92,2.05,7.8,4.15,11.67,6.28,3.64,2,7.17,4.22,10.7,6.41A124.28,124.28,0,0,1,570.3,467a121.92,121.92,0,0,1,8.72,8.89c1.35,1.55,2.79,3.05,4.05,4.67l4.1,5.28c.54.68,1,1.44,1.51,2.15l2.34,3.34c1.26,1.8,2.44,3.66,3.65,5.49q3.15,4.77,6.18,9.61c2.07,3.32,4.16,6.64,6,10.08,1.06,2,2.18,3.91,3.15,5.92s2,4.05,3,6.08c1.83,3.76,3.43,7.63,5.06,11.48a106,106,0,0,1,3.79,11.24c.4,1.37.67,2.8,1,4.19s.56,2.64.79,4a45.19,45.19,0,0,1,.73,4.78c.07.94,0,2.65-1.29,2.65Z"/><path d="M242.94,653.68a22.66,22.66,0,0,1-4.32-4.64,23.51,23.51,0,0,1-2.56-6,47.37,47.37,0,0,1-1.41-5.09,43.83,43.83,0,0,1-.85-9.07,94.58,94.58,0,0,1,.91-11.27l.39-3.08c.11-.87.33-1.74.5-2.59.4-2.09.74-4.19,1.3-6.24.61-2.22,1.12-4.5,1.9-6.68s1.55-4.33,2.33-6.49c.26-.72.62-1.41.93-2.1l1.79-4c.85-1.91,1.89-3.73,2.87-5.58.44-.83.89-1.66,1.33-2.5s.89-1.44,1.33-2.15c1.12-1.81,2.2-3.66,3.42-5.39s2.59-3.68,3.89-5.51c.52-.75,1.12-1.44,1.68-2.16l2.47-3.16c1.27-1.63,2.64-3.19,4-4.78,1.17-1.4,2.37-2.77,3.57-4.15s2.51-2.94,3.83-4.35l4.85-5.2c.48-.52,1-1,1.52-1.47l3.23-3.14c1.3-1.27,2.65-2.46,4-3.67s2.94-2.65,4.45-3.94q5.08-4.35,10.23-8.64c3.19-2.66,6.5-5.16,9.83-7.64,1.61-1.2,3.28-2.3,4.94-3.43.82-.55,1.62-1.16,2.47-1.67l2.7-1.63,2.93-1.77c.74-.45,1.54-.83,2.31-1.25,1.89-1,3.76-2,5.69-2.89,3.87-1.82,7.81-3.46,11.77-5.07,1.86-.75,3.74-1.42,5.61-2.11a61.86,61.86,0,0,1,6.07-1.91,38.94,38.94,0,0,1,7.66-1.29,29.31,29.31,0,0,1,4.19.08,21.69,21.69,0,0,1,4.28.95,26.83,26.83,0,0,1,3.95,1.66,25.72,25.72,0,0,1,3.61,2.16,20.61,20.61,0,0,1,3.08,2.59,4.51,4.51,0,0,1,1.19,1.9,1.28,1.28,0,0,1-.87,1.57,1.25,1.25,0,0,1-1.53-.87l0,0a.08.08,0,0,0,0-.05c-.08-.13-.17-.25-.25-.37l.1.12a7,7,0,0,0-.75-.79c-.47-.4-.95-.77-1.45-1.12a26.63,26.63,0,0,0-2.58-1.5A29.49,29.49,0,0,0,372.5,495c-.79-.26-1.59-.49-2.41-.69a26,26,0,0,0-3-.43c-.66,0-1.3,0-2,0l.27,0a33.19,33.19,0,0,0-3.72.48,40.18,40.18,0,0,0-4.74,1.36c-1.93.7-3.8,1.54-5.65,2.41s-3.57,1.79-5.3,2.77c-2.18,1.23-4.36,2.46-6.51,3.73s-4.06,2.45-6.08,3.69c-1.72,1.06-3.38,2.23-5.05,3.36q-2.25,1.62-4.48,3.26c-1.24.9-2.43,1.87-3.62,2.83s-2.28,1.78-3.37,2.72L312.76,524q-7,6.46-14,13c-2.39,2.26-4.74,4.57-7.1,6.87-.87.85-1.69,1.75-2.53,2.62-1.07,1.11-2.19,2.19-3.22,3.33l-5.2,5.91q-4.78,5.81-9.49,11.68c-2.87,3.59-5.48,7.38-8.1,11.16l-3.84,6.26c-.62,1-1.12,2.11-1.67,3.16l-1.56,3c-1,2.18-1.95,4.37-2.92,6.56-.45,1-.77,2.14-1.15,3.2s-.69,1.92-1,2.87l-1.8,6.5c-.18,1-.37,1.91-.55,2.87s-.51,2.19-.65,3.3c-.39,3-.82,6.06-1.06,9.11-.11,1.94-.15,3.89-.07,5.83.1,1.18.26,2.34.47,3.5.24,1,.52,2,.82,3a44.07,44.07,0,0,0,1.58,4.14c.05.09.1.18.16.27.27.37.54.72.83,1.07s.5.55.76.82a6.47,6.47,0,0,1-3.7,11,6.25,6.25,0,0,1-.87.06A6.15,6.15,0,0,1,242.94,653.68Z"/><circle class="cls-1" cx="1562.5" cy="666.5" r="327.5"/><text class="cls-3" transform="translate(1145.45 106.49)"><tspan class="cls-4">V</tspan><tspan x="41.04" y="0">iruses simply appea</tspan><tspan class="cls-5" x="599.21" y="0">r</tspan><tspan x="620.39" y="0">, </tspan><tspan x="0" y="72">it</tspan><tspan class="cls-6" x="37.86" y="72">’</tspan><tspan x="51.18" y="72">s ju</tspan><tspan class="cls-7" x="147.36" y="72">s</tspan><tspan x="175.92" y="72">t a shame.</tspan></text><text class="cls-3" transform="translate(125.45 141.49)">W<tspan class="cls-8" x="60.66" y="0">h</tspan><tspan x="96.66" y="0">y did it happe</tspan><tspan class="cls-9" x="484.13" y="0">n</tspan><tspan x="519.59" y="0">? </tspan><tspan x="0" y="72">Who do th</tspan><tspan class="cls-10" x="298.67" y="72">e</tspan><tspan x="332.33" y="72">y blam</tspan><tspan class="cls-11" x="521.75" y="72">e</tspan><tspan x="554.69" y="72">?</tspan></text><path class="cls-12" d="M1275.79,898.88c-14.06-2.14-28.45-6.9-39.53-16.12A83.86,83.86,0,0,1,1225,871.51a85.53,85.53,0,0,1-5.77-8.23,98.74,98.74,0,0,1-7.25-13.86c-2.33-5.07-4.11-10.41-6-15.66-1.58-4.4-3.12-8.81-4.74-13.19-.92-2.48-2-4.89-3.13-7.27-2.43-4.18-5-8.28-7.59-12.34-1-1.4-2-2.8-3-4.16-2-2.66-4-5.49-6.15-8L1178,785c-1.8-2-3.82-3.82-5.75-5.7-2.34-2-4.7-3.91-7.15-5.77-3.82-2.89-7.74-5.63-11.65-8.39-7.43-5.23-14.71-10.69-21.76-16.42-4.08-3.32-8.2-6.63-12-10.33A72.28,72.28,0,0,1,1100.5,704a78.57,78.57,0,0,1-2.26-16.12c-.21-5.55.86-10.65,2-16a61.11,61.11,0,0,1,1.68-5.91c1.31-4.08,2.71-8.18,4.19-12.2,1.66-4.49,3.38-8.93,5.28-13.32a71.14,71.14,0,0,1,5.88-11.2,78,78,0,0,1,5.91-8.23c1.68-1.93,3.35-3.86,5.08-5.72a79.86,79.86,0,0,1,6.23-5.65,56,56,0,0,1,11.25-7.53,106.61,106.61,0,0,1,11.31-5.28q6-2.18,12.06-4.12c-1.36-4.89-2.33-10-3.25-14.89a115.09,115.09,0,0,1-2-18.36,71.17,71.17,0,0,1,2.45-19.26,87.42,87.42,0,0,1,7.33-18c6-11.69,14.58-21.7,24.21-30.49,8.14-7.43,16.78-14.25,25.49-21,4.45-3.46,9.19-6.65,14-9.66,3.08-1.95,6.15-3.86,9.36-5.6a158.53,158.53,0,0,1,24.91-10.84,160.29,160.29,0,0,1,22.19-5.42,169.68,169.68,0,0,1,23.26-2.42,174.4,174.4,0,0,1,31.14,1.79c5,.66,10.07,1.7,15,2.84,2.72.63,5.45,1.27,8.15,2q1.7-2.65,3.64-5.16a72.13,72.13,0,0,1,20.63-18.15,75.13,75.13,0,0,1,26.53-9.16c4.51-.73,9-1.55,13.55-1.87,7.6-.52,15.13-1.06,22.74-.89,12.13.29,24.38.49,36.36,2.52,12.15,2.07,24.26,5.21,35.47,10.43a126.68,126.68,0,0,1,15.91,8.43c3.72,2.41,7.45,4.88,11,7.52,3.77,2.78,7.31,6.16,10.76,9.21a65,65,0,0,1,4.95,4.87,141,141,0,0,1,10.42,12.32,125,125,0,0,1,8.91,13.66c2,3.71,3.91,7.47,5.6,11.33s2.87,7.94,4.22,11.91c.33,1,.59,2,.84,3,1,4.12,1.85,8.29,2.52,12.48a91.82,91.82,0,0,1,1.07,16.4,119,119,0,0,1-3.44,25.63,114.16,114.16,0,0,1-5.26,15.58l0,.05c1.23,1.45,2.44,2.91,3.66,4.37,4.06,4.89,8.14,9.83,11.9,15a140,140,0,0,1,17.23,30A135.64,135.64,0,0,1,1636,639a106.59,106.59,0,0,1,3.4,18.31c.34,4.27.76,8.71.71,13a113,113,0,0,1-.92,12.86,93,93,0,0,1-4,17.72,144.1,144.1,0,0,1-6,15.78c-1.68,3.59-3.49,7.12-5.34,10.62-2.44,4.61-5,9.15-7.56,13.68-2,3.51-4,7-6.25,10.43-5.37,8.25-10.63,16.6-16.73,24.34-9.54,12.09-20.62,22.81-31.58,33.58-8.72,8.56-17.57,16.95-26.84,24.9a228.22,228.22,0,0,1-22,16.13,212.73,212.73,0,0,1-23.81,13.25,163.22,163.22,0,0,1-18.5,7.82c-8.74,3.1-17.49,6.17-26.57,8.13-3.89.84-7.93,1.76-11.92,2.31s-8.15.73-12.2,1c-8.38.53-16.47-1-24.6-2.75a67.41,67.41,0,0,1-11.06-3.78,61.71,61.71,0,0,1-7.93-4c-4.33,3-8.79,5.8-13.32,8.43s-9.12,4.88-13.8,7.05a161.35,161.35,0,0,1-15.24,5.72,124,124,0,0,1-25.47,5.72,127.56,127.56,0,0,1-15.15.92A117.71,117.71,0,0,1,1275.79,898.88Z"/><path d="M1455.67,488.84c.06.14.12.29.19.43s0,0,0,0a2.34,2.34,0,0,1-.21-.63Zm-56,334.29c-3.47-.12-6.93-.35-10.39-.67-4.07-.36-8.15-.66-12.21-1.19-8-1-16-2-24-3.28-4-.64-8.07-1.18-12.06-2-5.83-1.17-11.66-2.26-17.43-3.74a147.59,147.59,0,0,1-16.75-5.48c-2.08-.82-4.12-1.77-6.18-2.66-1.52-.67-3.07-1.28-4.56-2l-7-3.38c-4-1.94-8-4-11.93-6-3.44-1.75-6.78-3.7-10.15-5.56-1.88-1-3.68-2.26-5.46-3.44q-3.93-2.61-7.58-5.56c-2.24-1.81-4.4-3.73-6.5-5.71-1.56-1.48-3.12-3-4.58-4.56l-5.16-5.63c-1.14-1.25-2.28-2.48-3.34-3.79l-5-6.27c-2.49-3.1-4.77-6.37-7-9.69a136.67,136.67,0,0,1-15.33-31.44,108.57,108.57,0,0,1-4.17-17.22c-.36-2.18-.55-4.39-.82-6.58-.23-1.79-.42-3.56-.52-5.37q-.2-3.76-.4-7.53c-.1-1.86,0-3.74,0-5.61,0-1.64,0-3.28.07-4.92q.15-3.52.29-7c.1-2.45.39-4.9.58-7.34.13-1.65.3-3.29.49-4.93.23-2,.4-3.92.69-5.87l1.08-7.27c.27-1.84.68-3.66,1-5.49s.73-3.79,1.2-5.66c.55-2.18,1.08-4.35,1.64-6.52.2-.78.5-1.54.74-2.3.43-1.36.87-2.72,1.31-4.07.63-2,1.39-3.92,2.12-5.87.61-1.64,1.23-3.27,1.9-4.9.78-1.86,1.48-3.77,2.33-5.61l3-6.49c.93-2,2.11-4,3.19-5.94.95-1.73,2.13-3.36,3.2-5,1.19-1.84,2.49-3.61,3.74-5.39,2.35-3.35,4.85-6.57,7.33-9.82,1.19-1.57,2.48-3.08,3.71-4.62,1-1.24,2-2.5,3-3.71,2.82-3.3,5.59-6.63,8.54-9.82l5-5.46c1.31-1.41,2.74-2.71,4.11-4.06,3-3,6.11-5.82,9.2-8.69,2.62-2.42,5.26-4.83,7.94-7.19,3.07-2.71,6.11-5.46,9.24-8.09s6.5-5.47,9.86-8.08l3.24-2.51c.49-.38,1-.78,1.47-1.14l6-4.17c1.53-1.07,3.09-2.05,4.68-3s3.39-2.19,5.15-3.16L1325,481c1.72-.95,3.51-1.78,5.28-2.64,1.58-.78,3.15-1.6,4.76-2.3l6.67-2.89c2.26-1,4.64-1.75,7-2.54a84.12,84.12,0,0,1,8.43-2.34c3.68-.84,7.42-1.36,11.16-1.84s7.67-1,11.52-1.25l4.08-.28c1-.07,2-.19,3-.19,2.23,0,4.46,0,6.7-.06.68,0,1.38.09,2.07.14l4.23.31c2.16.15,4.3.49,6.44.79,4.08.57,8.1,1.52,12.1,2.46s7.75,2,11.59,3.14c1.78.52,3.54,1.11,5.3,1.68,1,.33,2.07.73,3.09,1.1.81.29,1.61.57,2.39.9,1.93.82,3.83,1.65,5.71,2.58s3.51,1.86,5.25,2.86c.85.5,1.65,1.11,2.47,1.65s1.59,1.1,2.35,1.67a24.63,24.63,0,0,1,2.32,1.87,3.85,3.85,0,0,1,1.33,2.16,2.3,2.3,0,0,1-2.27,2.57,2.19,2.19,0,0,1-1.8-.93c-.35-.2-.72-.39-1.08-.57-1.52-.77-3-1.51-4.6-2.2s-3.19-1.3-4.81-1.92l-3.88-1.17c-1.32-.4-2.7-.66-4-1-5-1-10-1.83-15-2.54-3-.44-6-.85-9.05-1.24-2.48-.32-5-.55-7.46-.79l-5.84-.35c-.74-.05-1.48,0-2.23,0h-1.16l-3.32,0-6,.4c-1.23.08-2.46.29-3.68.44s-2.24.24-3.35.4c-5.26.77-10.53,1.53-15.75,2.54a94.86,94.86,0,0,0-10.64,2.87c-2.87,1-5.68,2.13-8.45,3.38l-5.45,2.48-5.61,2.84c-1.74.88-3.42,1.86-5.12,2.82s-3.2,1.78-4.75,2.75l-5.94,3.73-6,4.25c-1.8,1.27-3.5,2.67-5.23,4-3.64,2.85-7.18,5.83-10.7,8.83-5.79,5.12-11.54,10.28-17.2,15.54-1.45,1.35-3,2.67-4.36,4.07l-5.14,5.08c-2.73,2.7-5.29,5.58-7.89,8.41l-6.18,7.26c-2,2.41-4,4.94-6,7.41-3.63,4.51-7,9.22-10.3,14-1,1.57-2,3.13-3.07,4.71-.51.78-.92,1.65-1.37,2.47l-1.32,2.39c-1.55,3.3-3.06,6.6-4.46,10-.66,1.57-1.35,3.14-1.95,4.74-.72,1.88-1.43,3.77-2.15,5.65-.33,1-.67,2.06-1,3.09-.4,1.21-.88,2.42-1.19,3.65-.68,2.63-1.34,5.28-2,7.91-1,5-2,10.07-2.66,15.17-.36,2.84-.7,5.68-1,8.52-.31,2.5-.46,5-.67,7.55-.1,2.35-.22,4.71-.33,7.07-.1,2-.07,4.06-.08,6.09,0,1.82,0,3.63.06,5.45q.18,3.33.35,6.66c.56,4.32,1,8.65,1.82,12.94a101.13,101.13,0,0,0,3.07,11.35A120.09,120.09,0,0,0,1235.33,734c2.24,3.32,4.61,6.56,7.13,9.68,1.61,2,3.22,4,4.82,6,4.5,4.93,9,9.89,13.92,14.37a99.12,99.12,0,0,0,8.73,6.84c7.3,4.91,15.17,8.9,23,12.91l5.37,2.6c1.45.71,2.89,1.47,4.38,2.11l6.61,2.85c2.48,1.07,5,2.06,7.5,3a154.67,154.67,0,0,0,16.11,4.55c3.84.76,7.68,1.53,11.53,2.28,1.86.37,3.75.6,5.62.89l6.65,1.05c4.23.67,8.49,1.18,12.73,1.77,3.94.54,7.9,1,11.84,1.49,1.78.23,3.58.33,5.36.49l6.74.59a161.09,161.09,0,0,0,18.25.22,98,98,0,0,0,11.44-1.58c5.6-1.15,11.06-2.78,16.54-4.37,2.8-.81,5.55-1.8,8.3-2.74l5-2c2.39-1,4.72-2,7-3.1a106.74,106.74,0,0,0,10.52-6.08,213.47,213.47,0,0,0,18-14.27c5.13-4.58,10.23-9.18,15.17-14,2.62-2.55,5.17-5.15,7.73-7.77,2.24-2.28,4.37-4.68,6.54-7s4.31-4.9,6.41-7.41c2.66-3.17,5.26-6.36,7.84-9.6,2.09-2.62,4.12-5.28,6.12-8,2.34-3.15,4.6-6.35,6.89-9.55q3.09-4.59,6.07-9.27c1-1.64,2-3.38,3-5.06.83-1.44,1.57-3,2.32-4.44q1.23-2.58,2.44-5.18c.77-1.64,1.44-3.35,2.16-5,1.26-2.92,2.34-5.92,3.42-8.92.48-1.57,1.05-3.15,1.43-4.74s.78-3.33,1.18-5,.65-3.41,1-5.1.65-3.59.87-5.39c.25-2,.51-3.92.75-5.88s.36-3.67.53-5.5q.27-4.2.44-8.41c.12-2.85,0-5.7-.08-8.56-.16-1.49-.32-3-.47-4.47-.09-.77-.27-1.55-.4-2.31s-.25-1.45-.38-2.18c-.28-1.32-.52-2.66-.9-4-.44-1.49-.87-3-1.31-4.47-1.17-3.25-2.34-6.51-3.79-9.65q-2.31-5-4.71-9.94c-1.6-3.18-3.21-6.35-4.86-9.49s-3.42-6.13-5.18-9.15q-5.13-8.85-10.66-17.44c-1.13-1.6-2.25-3.21-3.46-4.76-1.45-1.87-2.92-3.71-4.43-5.55-2.67-3.28-5.4-6.52-8.14-9.74-1.6-1.81-3.2-3.59-4.87-5.34s-3.35-3.27-5.07-4.87c-1.92-1.62-3.83-3.25-5.83-4.79s-4.2-3.15-6.33-4.69l-2-1.24c-.66-.41-1.31-.89-2-1.26l-4.33-2.35-4-1.83c-1.21-.56-2.5-1-3.74-1.46-3.14-1.11-6.28-2.24-9.45-3.23a7.91,7.91,0,0,1-4.61-3.58,7.73,7.73,0,0,1,2.83-10.57,7.88,7.88,0,0,1,6-.75c1.89.48,3.77,1.05,5.63,1.65,2,.67,4.06,1.31,6,2.08l3.28,1.27c.87.34,1.7.78,2.54,1.17,2.11,1,4.14,2.05,6.19,3.17a103.65,103.65,0,0,1,10.65,7c3.16,2.26,6.11,4.83,9.08,7.33,1.67,1.41,3.21,3,4.81,4.46.67.63,1.27,1.33,1.91,2,.78.82,1.57,1.64,2.32,2.5l-.66-.76c5.52,6.32,11,12.71,16.1,19.38s9.4,14,13.68,21.35c3.62,6.16,7.08,12.42,10.19,18.86,1.6,3.32,3.26,6.62,4.75,10,1.57,3.56,3.22,7.12,4.46,10.82-.1-.31-.21-.62-.31-.92l.47,1.38v0l0,.09,0,.05h0c.25.64.45,1.3.67,2l0,.12v0l.18.51c.07.23.15.45.23.67l-.14-.39c.07.18.13.36.19.54h0v0l0,0v0h0v0a.14.14,0,0,1,0,.06h0a.19.19,0,0,0,0,.07h0c.63,1.9,1.11,3.85,1.64,5.79.24.9.37,1.84.56,2.76s.44,2.07.6,3.11c.32,2.07.66,4.13.84,6.22.09,1.05.19,2.1.28,3.15.12,1.37.09,2.76.12,4.13.07,3.95-.14,7.93-.46,11.87s-.69,8-1.24,12-1.26,8.23-2.08,12.33c-.44,2.21-.92,4.4-1.45,6.6-.49,2-1.08,4-1.69,6s-1.44,4.21-2.19,6.3c-.6,1.68-1.26,3.35-2,5-1.53,3.66-3,7.36-4.8,10.9-1.92,3.82-3.82,7.66-6,11.31-2.1,3.44-4.21,6.87-6.48,10.2-2.66,3.94-5.36,7.83-8.11,11.71-2.23,3.15-4.58,6.24-6.91,9.33a271.56,271.56,0,0,1-32.37,35.83c-3.24,3-6.51,5.94-9.8,8.87-2.85,2.55-5.77,5.05-8.77,7.42l-5.33,4.24c-2.3,1.82-4.77,3.46-7.21,5.08s-5.11,3.17-7.75,4.61a101.5,101.5,0,0,1-10.62,5c-2.32.93-4.62,1.95-7,2.74-3.62,1.2-7.23,2.44-10.91,3.49-2.31.66-4.62,1.35-7,2a131.74,131.74,0,0,1-17.59,3.45,102.67,102.67,0,0,1-12.65.64C1403.09,823.23,1401.41,823.19,1399.72,823.13Z"/><path d="M1320.37,835.07a6.59,6.59,0,0,1,1.39.43,3.43,3.43,0,0,1,2,3.65c-.18.89-.36,1.69-.61,2.56-.2.68-.42,1.36-.62,2l-.94,3.19c-.66,2.25-1.3,4.49-2,6.74-1.15,4-2.25,8-3.44,12-1.26,4.2-2.58,8.4-3.71,12.64-.6,2.2-1.25,4.39-1.77,6.62-.56,2.43-1.13,4.85-1.69,7.28-.28,1.42-.57,2.84-.85,4.26s-.56,2.62-.78,3.94c-.28,1.67-.57,3.34-.85,5-.21,1.27-.47,2.54-.64,3.82-.42,3.06-.83,6.11-1.24,9.17-.2,1.44-.24,2.93-.36,4.38s-.26,3.09-.38,4.64c-.16,4.19-.13,8.36.11,12.54a103.21,103.21,0,0,0,1.4,11.08,71.46,71.46,0,0,0,2.1,7.88c.47,1.29,1,2.55,1.56,3.78.41.8.84,1.58,1.32,2.35l.41.51c.15.16.31.32.47.47l.35.28h.09l.1,0c.62-.44,1.22-.9,1.82-1.37,1.61-1.44,3.15-3,4.7-4.48.62-.6,1.19-1.26,1.79-1.89s1.45-1.53,2.18-2.3l3.27-3.76a80.33,80.33,0,0,0,5.47-7.14A204.34,204.34,0,0,0,1342,925.79q3.81-7.45,7.68-14.89c5.81-11.1,11.71-22.16,17.53-33.27q2.47-5.08,4.94-10.18c.74-1.51,1.36-3.08,2-4.61,1-2.26,2-4.51,2.93-6.79.85-2.06,1.77-4.09,2.69-6.12a8.49,8.49,0,0,1,2.34-3.21,6.86,6.86,0,0,1,1.46-.94,6.48,6.48,0,0,1,1.62-.44,4.47,4.47,0,0,1,3.46,1.1,7.54,7.54,0,0,1,1.92,2.82c.32.66.63,1.32.94,2,.75,1.6,1.46,3.22,2.18,4.83,2.93,6.62,5.37,13.43,7.92,20.2s5.43,13.61,8.28,20.36c.57,1.35,1.19,2.7,1.71,4.07l2.61,6.86c1.37,3.6,2.51,7.27,3.7,10.93,1.1,3.34,2,6.74,3,10.11,1.37,4.69,2.71,9.38,4.24,14a92.81,92.81,0,0,0,3.72,9.07,54.63,54.63,0,0,0,2.73,4.82c.83,1.2,1.7,2.35,2.62,3.48.67.74,1.36,1.45,2.09,2.14s1.6,1.29,2.45,1.89c.45.3.91.57,1.38.82.84.39,1.67.74,2.52,1.06.57.19,1.15.35,1.74.49l-.56-.12a15.89,15.89,0,0,0,2,.34l-.59,0a14.57,14.57,0,0,0,2,.08l.91-.1a11.42,11.42,0,0,0,1.37-.43l-.53.18.56-.26.57-.33a9,9,0,0,0,1.06-.88l-.42.37.4-.43.52-.67-.3.44h0a13.12,13.12,0,0,0,.91-1.46c.43-1,.82-1.9,1.19-2.88.67-2.12,1.22-4.26,1.69-6.43.36-1.83.65-3.65.94-5.49.23-1.41.49-2.82.67-4.24.38-3,.82-6.07,1.12-9.11s.68-6.13.92-9.2q.45-5.34.87-10.66.45-6.18.91-12.36a.13.13,0,0,1,0,.06c1.07-15,2.64-29.95,4.08-44.92q.54-5.72,1.07-11.42.33-3.58.69-7.18c.22-2.29.58-4.55.93-6.83.13-.85.34-1.67.55-2.5.17-.48.35-1,.54-1.43s.36-.73.55-1.09a9.14,9.14,0,0,1,1-1.42,6.88,6.88,0,0,1,1.3-1,4.44,4.44,0,0,1,3.27-.41,5.84,5.84,0,0,1,2.85,1.55,14.57,14.57,0,0,1,2,2.94q2.55,4.3,4.76,8.78c2.46,5,4.56,10.08,6.68,15.19,2.33,5.61,4.66,11.22,6.93,16.85S1502,881,1504,886.53c1.89,5.24,3.61,10.54,5.37,15.82q.85,2.43,1.73,4.88c.5,1.4,1,2.76,1.61,4.14s1.14,3,1.81,4.41q1.18,2.54,2.36,5.07a75.49,75.49,0,0,0,4,7c.59.82,1.2,1.61,1.85,2.38.35.39.72.76,1.1,1.11l-.4-.35a16.72,16.72,0,0,0,1.39,1.13l.57.32.43.16.32,0,0,0,.18-.23c.11-.17.21-.35.31-.53.61-1.36,1.12-2.75,1.64-4.14.35-1,.69-2,1-3s.66-2.2,1-3.3c.57-1.95,1-3.94,1.45-5.93.23-1.44.45-2.87.68-4.31.19-1.19.27-2.4.39-3.6.28-2.63.46-5.27.67-7.9.16-2.32.34-4.63.5-6.95h0c.18-2.47.38-4.94.57-7.41l.33-6c.11-1.81.09-3.63.12-5.44,0-3.79-.08-7.57-.18-11.35-.08-3.5-.26-7-.44-10.51l-.6-11.65-.72-11.25c-.24-3.69-.56-7.38-.76-11.08s-.42-7.23-.5-10.85a122.37,122.37,0,0,1,.09-13.27,7.08,7.08,0,0,1,1.31-4,6.86,6.86,0,0,1,2.63-2,5.25,5.25,0,0,1,4.06,0,6.61,6.61,0,0,1,1.63.89,31.18,31.18,0,0,1,2.47,2.27c2.61,2.63,5.23,5.24,7.8,7.92,5.09,5.28,10,10.72,15.15,16,3.41,3.49,7,6.75,10.62,10l8.38,7.38c3.16,2.78,6.37,5.5,9.58,8.23,1.25,1.06,2.55,2.06,3.83,3.08s2.82,2.29,4.28,3.35l5.09,3.73c1.46,1.07,3,2.06,4.48,3.08l0,0c2.42,1.63,4.83,3.26,7.29,4.84,1,.68,2.1,1.38,3.19,2l4.84,2.8-.54-.27c2.44,1.23,4.84,2.51,7.34,3.59l2.79,1.22c.4.17.79.36,1.2.5l4,1.44c1.21.37,2.42.7,3.66,1,.88.18,1.76.33,2.67.44l-.62,0a11,11,0,0,0,1.27.08c-1-2.82-1.9-5.65-2.85-8.48-1.73-5.05-3.5-10.1-5.26-15.15s-3.45-10.19-5.35-15.22c-.93-2.48-1.82-5-2.82-7.43l-2-4.93c-.43-1.06-.84-2.13-1.31-3.17-1.22-2.75-2.46-5.5-3.68-8.25-.54-1.22-1.16-2.4-1.74-3.6s-1.27-2.64-1.9-4c-3.39-6.75-6.78-13.5-10.28-20.2-1.79-3.44-3.69-6.83-5.57-10.22-.65-1.17-1.36-2.29-2.06-3.43q-1.65-2.68-3.31-5.37l-3-4.35c-.89-1.32-1.76-2.65-2.69-3.93l-6.64-9.1-4-5.42a97.24,97.24,0,0,1-6.89-10.91,36.89,36.89,0,0,1-4.14-11.71,8.94,8.94,0,0,1-.11-2.31,6.48,6.48,0,0,1,.41-2.18,8.41,8.41,0,0,1,.76-1.34,4.83,4.83,0,0,1,4.83-1.88l2.37.21c1.75.17,3.49.38,5.23.58,3.5.4,7,1,10.47,1.44a200.26,200.26,0,0,1,21.17,4.11c3,.74,6,1.45,9,2.15,3.14.6,6.28,1.17,9.44,1.68s6.13,1,9.13,1.79,6.26,1.66,9.4,2.47l5,1.28c1.56.4,3.17.69,4.75,1l5.13.76-.52,0c1.6.12,3.19.29,4.79.32l2.8.05c.7,0,1.4,0,2.1-.08,1.36-.16,2.71-.31,4-.55.82-.18,1.63-.4,2.43-.64.42-.15.83-.32,1.24-.51l1-.52-.37.25a10.9,10.9,0,0,0,1.68-1.27l-.34.29.35-.36-.27-.86c-.23-.63-.47-1.25-.72-1.89.07.13.13.27.2.4a11,11,0,0,0-1.19-2.08l.25.38c-1.45-2-3-4-4.48-6s-3.1-3.84-4.69-5.73c-1.55-1.7-3.09-3.38-4.7-5s-3-3-4.49-4.49c-3.63-3.64-7.17-7.34-10.66-11.1-3.27-3.5-6.53-7-9.9-10.42-1.7-1.73-3.43-3.41-5.19-5.09s-3.39-3.11-5.1-4.64c-5.63-4.81-11.3-9.59-16.84-14.5-3-2.68-6-5.38-9-8.08-1.21-1.1-2.41-2.22-3.61-3.33-2.3-2.13-4.61-4.25-6.76-6.53a47.52,47.52,0,0,1-3.62-4.4,27,27,0,0,1-2.65-4.57,12.91,12.91,0,0,1-.81-2.56,8.67,8.67,0,0,1-.26-2.15,8.87,8.87,0,0,1,1-4.41,11.54,11.54,0,0,1,1.07-1.52,11.9,11.9,0,0,1,1.39-1.36c.75-.66,1.55-1.27,2.34-1.89,1.48-1.16,3-2.3,4.48-3.45,2.75-2.1,5.56-4.15,8.46-6.06,1.45-1,2.91-1.89,4.39-2.81s3.27-1.89,4.93-2.8c3-1.66,6.06-3.2,9.11-4.77,1.62-.83,3.27-1.64,4.9-2.46,1.4-.71,2.81-1.41,4.17-2.2s2.86-1.63,4.26-2.51,3.06-1.94,4.58-2.93q4.37-2.88,8.8-5.63c2.91-1.81,5.91-3.48,8.87-5.22s5.78-3.42,8.62-5.2c6.15-3.84,12.22-7.83,18.29-11.8l3.71-2.61c1-.71,2-1.53,2.92-2.31,1.3-1.19,2.59-2.37,3.79-3.67.31-.37.62-.74.92-1.12-2.24-.11-4.49-.13-6.73-.13q-4.41,0-8.8,0c-5.67.05-11.34.31-17,.64l-5.41.51c-1.7.16-3.37.47-5.06.72-3.15.47-6.27,1.11-9.4,1.73-3.51.84-7,1.66-10.5,2.6q-5.49,1.47-11,3c-7.42,2-14.91,3.81-22.42,5.5a97,97,0,0,1-9.76,1.68,32.09,32.09,0,0,1-6.12.24,25.58,25.58,0,0,1-3-.4,20,20,0,0,1-3.12-1,9.52,9.52,0,0,1-3.75-2.62,8.65,8.65,0,0,1-1.16-1.7,7.4,7.4,0,0,1-.73-2.2,12.72,12.72,0,0,1,.18-5.14,14.67,14.67,0,0,1,2-4.84c1.83-3,3.83-5.9,5.87-8.76s4.11-5.6,6.27-8.32c4.66-5.83,9.28-11.71,14.32-17.2,2.56-2.78,5.22-5.43,8-8,2.59-2.42,5.24-4.77,7.87-7.14q7.89-7.14,15.6-14.47c2.6-2.48,5.23-4.93,7.74-7.5,1.29-1.31,2.63-2.58,3.86-3.94l4.11-4.53c1.49-1.77,2.93-3.55,4.25-5.45.64-1,1.22-2,1.78-3,.27-.56.52-1.14.75-1.72,0,.14-.11.28-.16.43a12.44,12.44,0,0,0,.54-1.7l.12-.77,0,.48a8.32,8.32,0,0,0,.06-1.41c0-.12,0-.24-.07-.36l-.09-.25-.29-.48-.3-.33-.47-.38-.64-.36-.22-.09-.5-.14-.69-.1a10.71,10.71,0,0,0-1.27,0h.18l.31,0-.61.08c-.58.14-1.14.31-1.71.49-5.81,2.16-11.38,4.86-17,7.54-3.3,1.64-6.58,3.3-9.85,5s-6.33,3.41-9.46,5.17c-6.35,3.55-12.43,7.55-18.57,11.44-2.9,1.83-5.8,3.63-8.73,5.4-3.19,1.93-6.37,3.88-9.61,5.73-6.62,3.76-13.28,7.47-20,11.07a124,124,0,0,1-12.83,6.18,36.77,36.77,0,0,1-5.59,1.71,22.8,22.8,0,0,1-5.88.46,12.84,12.84,0,0,1-2.3-.31,15,15,0,0,1-2.7-.75c-.86-.37-1.63-.74-2.46-1.18l-1.32-.92c-.37-.32-.72-.65-1.06-1a7.91,7.91,0,0,1-2-3.32c-.06-.23-.13-.46-.2-.69a7.78,7.78,0,0,1-.22-1.87,14.38,14.38,0,0,1,.15-2.53,23.07,23.07,0,0,1,.43-2.32c.23-1.07.5-2.12.79-3.18.23-.82.56-1.64.87-2.44s.6-1.57.91-2.36c.66-1.67,1.31-3.35,2-5s1.51-3.54,2.31-5.28,1.67-3.28,2.57-4.88c1.77-3.14,3.72-6.18,5.67-9.2,1.82-2.84,3.76-5.6,5.62-8.42,2.19-3.3,4.36-6.62,6.53-9.93,4.81-7.36,9.75-14.66,14.93-21.77,2.73-3.74,5.48-7.47,8.3-11.14,2.69-3.51,5.34-7,7.93-10.61,1.35-2,2.71-4,4-6,.66-1.07,1.36-2.12,2-3.22l2.27-4.09c.5-1,1-2.09,1.52-3.13.9-1.86,1.69-3.76,2.4-5.7a50.36,50.36,0,0,0,1.54-5.36c.13-.68.24-1.37.31-2.05s0-1.46,0-2.19c-.05-.3-.09-.6-.13-.9s-.13-.49-.19-.74-.13-.29-.19-.44l-.19-.31-.06-.06-.07-.06h-.15c-1.58.2-3.14.41-4.71.7l-.3.08-.24.1c-1.55,1.09-3,2.27-4.55,3.43s-2.91,2.29-4.36,3.45c-3.09,2.49-6.18,5-9.2,7.56q-9.75,8.28-19.42,16.66c-5.47,4.8-10.91,9.65-16.42,14.41-2.71,2.33-5.38,4.7-8.12,7l-9.29,7.79c-5.56,4.64-11,9.4-16.5,14.14s-11.37,9.28-17.34,13.52q-2.21,1.56-4.44,3.07c-1.71,1.15-3.44,2.23-5.19,3.3a41.86,41.86,0,0,1-10.23,4.61,18,18,0,0,1-2.83.49,11,11,0,0,1-2.69,0,15.44,15.44,0,0,1-4.95-1.51,12.57,12.57,0,0,1-3.82-2.89,12.31,12.31,0,0,1-2.36-4.05,33.06,33.06,0,0,1-1.33-5.83c-.27-1.63-.37-3.3-.48-5-.13-2.11-.22-4.22-.3-6.33-.24-7.05,0-14.14.27-21.18.25-7.31,1-14.59,1.67-21.86.47-4.75,1.09-9.48,1.93-14.19s1.84-9.5,2.91-14.22c2.16-9.6,4.26-19.21,6.37-28.83.33-1.62.66-3.25,1-4.88s.6-3.37.9-5.06c.55-3.1.82-6.23,1.08-9.36,0-1.39.07-2.77,0-4.15s-.27-2.88-.52-4.32c-.09-.44-.2-.88-.33-1.31s-.25-.63-.39-.94c-.38-.68-.79-1.33-1.21-2l-.23-.3-.2.2c-2.78,3.27-5.24,6.82-7.69,10.33q-8.55,13-16.52,26.42c-2.71,4.55-5.45,9.1-8,13.73-1.4,2.51-2.84,5-4.19,7.54l-4.14,7.75c-3.08,6.1-6.09,12.23-9.27,18.27-.65,1.25-1.27,2.53-2,3.76l-3.33,5.81c-1.66,2.88-3.49,5.67-5.26,8.49s-3.46,5.26-5.14,7.92l-3.7,5.84c-.77,1.2-1.46,2.44-2.18,3.66l-2.52,4.31c-1,1.71-1.9,3.49-2.85,5.23-.62,1.15-1.24,2.31-1.84,3.47a4.06,4.06,0,0,1-2.25,5,2.12,2.12,0,0,1-.4.14l-.18.35,0-.07c-1.06,2.15-2.06,4.34-3.17,6.46a1.18,1.18,0,0,1-.28,1.55l-.86.74a5.08,5.08,0,0,1-.43.38A1.17,1.17,0,0,1,1379,452c1.12-2.34,2.1-4.74,3.12-7.12l.51-1.21a4.32,4.32,0,0,1-1.82-2c-.79-1.67-1.47-3.39-2.21-5.08q-1.26-2.85-2.63-5.65a232.78,232.78,0,0,0-13.56-23.6q-2-3-3.94-6c-.72-1.12-1.37-2.3-2.05-3.45-.6-1-1.15-2-1.71-3-2.36-4.29-4.51-8.69-6.67-13.09.06.14.13.28.2.41-1.17-2.36-2.31-4.74-3.48-7.11l.21.4c-1.44-2.88-2.82-5.78-4.32-8.62-1.72-3.27-3.45-6.53-5.24-9.76-3.71-6.7-7.34-13.46-11.53-19.88a78.84,78.84,0,0,0-4.87-6.48,54.31,54.31,0,0,0-3.83-3.91c-.83-.71-1.68-1.37-2.57-2-.57-.37-1.17-.72-1.77-1a11.93,11.93,0,0,0-1.74-.7l.48.17-.79-.21-.66-.09h-.51l-.18,0-.29.1-.16.08-.42.31-.61.63c-.24.28-.46.56-.68.86-.67,1-1.28,2-1.85,3.1s-1,2.14-1.37,3.24c-.44,1.34-.81,2.68-1.12,4.05s-.49,3-.63,4.55c-.08,1.71,0,3.42,0,5.14a67.5,67.5,0,0,0,1,7.37c.27,1.51.56,3,.83,4.51.84,3.33,1.64,6.67,2.63,10q1.75,5.76,3.47,11.53c.41,1.34.84,2.68,1.19,4.05q.95,3.72,1.88,7.44c.32,1.25.56,2.5.8,3.76l1.29,7c.07.39.09.79.14,1.18l.36,3.52c.18,1.68.38,3.35.47,5l.36,6.85c.09,1.74.07,3.5.1,5.25,0,1.45.07,2.89,0,4.33q-.13,3.4-.26,6.81c-.08,2-.32,3.95-.54,5.92-.28,2.49-.71,5-1.22,7.42a39.41,39.41,0,0,1-1.52,5.43,25.35,25.35,0,0,1-2.93,6,15.38,15.38,0,0,1-1.82,2.29,20.75,20.75,0,0,1-2,1.72,11.57,11.57,0,0,1-3.9,1.68,19.2,19.2,0,0,1-5.66.31,33.5,33.5,0,0,1-6.51-1.14,42.92,42.92,0,0,1-10.86-4.82,78.08,78.08,0,0,1-7.2-4.91,109,109,0,0,1-9.52-7.93,100.3,100.3,0,0,1-9.14-9.86c-1.37-1.65-2.62-3.41-3.93-5.11-2.36-3.07-4.59-6.23-6.85-9.39-2.15-3-4.26-6-6.38-9-4.15-5.91-8.25-11.85-12.24-17.87q-1.57-2.37-3.16-4.73l.25.36c-1.59-2.37-3.2-4.72-4.8-7.08l-1.82-2.69c-.75-1.1-1.61-2.14-2.41-3.2-1.14-1.53-2.29-3.05-3.43-4.57-.5-.67-1-1.32-1.52-1.95-2-2.3-3.91-4.61-5.87-6.9-2.49-2.78-5-5.5-7.7-8.1-.08,1.61-.17,3.22-.24,4.84-.08,1.89,0,3.79.08,5.68.21,2.35.57,4.65,1,7a91.68,91.68,0,0,0,2.44,9.42c.63,2,1.27,3.95,1.9,5.93,1.16,3.06,2.25,6.16,3.5,9.18,1.49,3.6,3,7.21,4.5,10.79,3.15,7.35,6.21,14.73,9.27,22.1,2.66,6.4,5.5,12.72,8.27,19.06.93,2.15,1.87,4.29,2.8,6.44.64,1.47,1.2,3,1.78,4.47s1.34,3.24,1.86,4.9q1.07,3.31,2.11,6.63c.59,1.85,1,3.73,1.51,5.61s1,3.76,1.36,5.66c0,.23.09.45.13.67s.07.37.11.54c0-.22-.09-.44-.13-.67q.63,3.19,1.27,6.39c.42,2.13.67,4.3,1,6.46q.71,4.75,1,9.57c.15,2.24.21,4.49.2,6.73a70.09,70.09,0,0,1-.62,8.32,52.44,52.44,0,0,1-1.43,7c-.28,1-.66,2-1,3a13.19,13.19,0,0,1-1.06,2.29,12.12,12.12,0,0,1-3,3.62,7.32,7.32,0,0,1-4.29,1.36,20.59,20.59,0,0,1-5.53-1.12l-2.77-.8c-1.67-.48-3.31-1.06-5-1.61-.75-.25-1.49-.56-2.23-.86l-3.37-1.34c-1.76-.7-3.46-1.56-5.18-2.37-3.3-1.53-6.51-3.26-9.74-4.94-1.75-.9-3.46-1.92-5.18-2.88-1.45-.8-2.89-1.63-4.32-2.47s-2.85-1.64-4.25-2.5c-1.73-1.07-3.49-2.09-5.18-3.21q-6.27-4.14-12.48-8.39l.46.31c-4.81-3.28-9.7-6.43-14.59-9.57-1.08-.69-2.19-1.32-3.29-2l-4.3-2.59c-1.16-.7-2.4-1.28-3.59-1.91l-3.78-2c-2.67-1.19-5.33-2.47-8-3.58-3-1.21-6-2.4-8.91-3.65s-6.15-2.61-9.19-4l-5.58-2.58-3.79-1.74c-2.28-1.06-4.6-2-7-2.85-1.09-.37-2.18-.71-3.3-1-1-.19-1.9-.33-2.87-.45l.66.05a12.45,12.45,0,0,0-1.73-.07l-.64.07-.42.1.23-.07h0l.39-.13a8.91,8.91,0,0,0-1.16.43v0l.07,0-.11.07,0,0-.09.12-.08.14,0,.08-.07.29c-.05.31-.09.61-.12.92s0,.87,0,1.31a17.22,17.22,0,0,0,.23,1.88c.24,1,.51,2.06.83,3.08.75,2.09,1.61,4.1,2.56,6.1.89,1.75,1.83,3.47,2.87,5.15.78,1.28,1.57,2.55,2.36,3.83,1.46,2.11,2.9,4.23,4.43,6.29q3,4,6,7.85c3.6,4.6,7.4,9,11.19,13.46,2.36,2.58,4.69,5.19,7.13,7.69,1.2,1.24,2.37,2.52,3.61,3.72q2.49,2.4,5,4.81c2.49,2.4,5.07,4.72,7.58,7.11,1.17,1.12,2.38,2.22,3.52,3.37l4.83,4.86c1.25,1.25,2.44,2.58,3.65,3.88,1.08,1.14,2.14,2.29,3.18,3.48q2,2.19,3.89,4.4c1.44,1.65,2.79,3.4,4.18,5.1a82.26,82.26,0,0,1,5.32,7.25,58.21,58.21,0,0,1,6.8,13.39,41.62,41.62,0,0,1,1.49,6,18.1,18.1,0,0,1,.26,2.86,19.74,19.74,0,0,1-.1,2.77,11.59,11.59,0,0,1-1.38,4.37,6.23,6.23,0,0,1-2.87,2.57c-1.85.77-3.86.43-5.77.07-1.35-.25-2.71-.51-4.06-.8-3-.66-6-1.37-9-2.16q-9.23-2.43-18.35-5.16c-5.54-1.65-11-3.56-16.54-5.22l-5.54-1.65c-1.23-.37-2.44-.77-3.68-1.09l-9.68-2.51-9.48-1.89c-.31-.06-.63-.08-.94-.11l-3.45-.43-4.78-.58-4.15-.22-3.11-.16c-.49,0-1-.07-1.48-.07-4,0-8,0-12,.23-2.24.17-4.47.42-6.69.78.52,1.28,1.07,2.55,1.62,3.81.65,1.48,1.37,2.92,2.09,4.37s1.64,2.94,2.47,4.41,1.67,2.8,2.52,4.2c1.48,2.45,3.05,4.85,4.6,7.27l3,4.31c1.48,2.11,3.07,4.13,4.75,6.09,1.47,1.64,3,3.21,4.62,4.71a67.18,67.18,0,0,0,5.35,4.16c2.73,1.82,5.54,3.52,8.39,5.12s5.75,3.14,8.65,4.69l4.84,2.43c1.76.89,3.57,1.67,5.35,2.5,3,1.39,6.09,2.67,9.14,4q10,4.35,20,8.76a184,184,0,0,1,17.12,8.2,54.69,54.69,0,0,1,19.33,18,12.79,12.79,0,0,1,1.15,2.16,17.56,17.56,0,0,1,.73,2.37,6.76,6.76,0,0,1,.09,1.91,3.81,3.81,0,0,1-.28,1.33c-.83,1.92-2.87,2.84-4.6,3.78a31.18,31.18,0,0,1-4.44,1.83c-1.56.56-3.13,1.09-4.7,1.61-1.73.57-3.45,1.12-5.19,1.66-1.91.59-3.84,1.12-5.78,1.65-3.22.88-6.47,1.65-9.72,2.41q-6.11,1.43-12.21,2.9c-3.64.88-7.27,1.83-10.9,2.75-6.92,1.77-13.79,3.75-20.68,5.62-3.41.93-6.82,1.88-10.24,2.77q-5.92,1.53-11.82,3.13c-3.18.87-6.32,1.86-9.47,2.86l-4.76,1.76q-4.43,1.63-8.67,3.68a75.24,75.24,0,0,0-7.4,4.24c-1.62,1.13-3.17,2.31-4.67,3.59-1.17,1.06-2.28,2.16-3.36,3.31a50.4,50.4,0,0,0-3.19,4.09c-.55.86-1.05,1.72-1.54,2.62s-.73,1.64-1.05,2.49c-.14.44-.27.9-.37,1.36l-.15,1.07c0,.3,0,.6,0,.91l.06.81c0-.15-.07-.31-.1-.47a9.28,9.28,0,0,0,.49,1.88l-.16-.45.27.62c.12.19.23.38.34.57s.28.33.41.5l.45.41.54.39.74.41c.5.22,1,.43,1.51.62,1.77.58,3.57,1,5.37,1.49l2.18.39c.85.15,1.71.36,2.57.45l6,.67c2.62.18,5.23.38,7.85.48,3,.12,6.07.26,9.11.34q10.72.29,21.45.42c5.8.08,11.6,0,17.4-.07,3-.06,5.93-.06,8.88-.19l10.86-.51,11.64-1c3.83-.32,7.65-.77,11.47-1.15q11.42-1.15,22.85-2.22l10.68-1a112,112,0,0,1,12.69-.53,40.9,40.9,0,0,1,6.71.75,23.93,23.93,0,0,1,2.6.73c.46.16.92.34,1.36.54a5.7,5.7,0,0,1,1.2.74,4.81,4.81,0,0,1,1.76,2.08,4,4,0,0,1,.36,2.68,4.71,4.71,0,0,1-.46,1.27,11.22,11.22,0,0,1-.95,1.31,16.73,16.73,0,0,1-1.86,1.81c-2.57,2.24-5.35,4.23-8.06,6.29-2.26,1.73-4.53,3.45-6.82,5.14-2.72,2-5.48,4-8.23,5.95-4.84,3.44-9.7,6.82-14.5,10.3q-7.86,5.71-15.75,11.34c-2.6,1.86-5.18,3.76-7.77,5.65-2.35,1.72-4.59,3.61-6.87,5.42l-3.23,2.84c-1,.88-2.06,1.74-3,2.66l-3.71,3.53c-1,.94-2,1.85-3,2.82l-3.92,4c-.94.94-1.9,1.86-2.8,2.83q-3.34,3.6-6.7,7.18c-1.51,1.7-3,3.41-4.45,5.16s-2.82,3.62-4.14,5.5a61.88,61.88,0,0,0-3.27,5.54c-.47,1-.89,2-1.28,3s-.58,1.83-.82,2.77c-.07.41-.14.83-.18,1.26s0,.64,0,1,0,.49.07.74l.15.62.12.28a2.61,2.61,0,0,0,.17.28l0,0,.14.1.26.11.32.07.6.06c3,.11,6,0,8.93,0q3.48,0,7,0c6.1.12,12.21.48,18.31.16a91.29,91.29,0,0,0,10.14-1.31,89.65,89.65,0,0,0,10-2.7,109.52,109.52,0,0,0,11.58-4.82l6.3-3.08c3-1.63,6.12-3.23,9.14-4.91,3.24-1.8,6.47-3.62,9.72-5.39,6.63-3.62,13.25-7.25,20-10.72,7.13-3.67,14.26-7.33,21.5-10.8,2.77-1.33,5.56-2.58,8.45-3.66a51.51,51.51,0,0,1,6.06-1.83c.89-.22,1.78-.36,2.68-.5a9.79,9.79,0,0,1,3.1-.08,5.9,5.9,0,0,1,2.62,1,4.27,4.27,0,0,1,1.37,2.3,4.42,4.42,0,0,1-.47,2.91,8.12,8.12,0,0,1-.87,1.47l-1,1.47c-3.87,5.87-8,11.58-12,17.32l-3.71,5.53c-1.15,1.72-2.15,3.55-3.22,5.32-2.05,3.4-3.88,6.91-5.76,10.41q-4.35,8.63-8.67,17.26l-2.6,5.17c-.82,1.65-1.56,3.35-2.34,5-1.4,3-2.6,6.11-3.86,9.19-.52,1.55-1,3.1-1.55,4.64-.92,2.77-1.73,5.55-2.39,8.4-.37,1.9-.72,3.78-.92,5.7,0,.66,0,1.32,0,2l0-.5a9.63,9.63,0,0,0,.14,1.61l0,0c1.56-.16,3.14-.43,4.68-.73,1-.23,1.89-.49,2.82-.8,1.77-.7,3.46-1.51,5.16-2.34,1.51-.83,3.06-1.6,4.51-2.51l5.31-3.31,6.55-4.66c.49-.35,1-.73,1.43-1.1l4.41-3.5c1.61-1.27,3.19-2.55,4.74-3.88l6.47-5.57c11.06-9.9,22.07-19.86,32.75-30.17,2.5-2.41,5-4.81,7.43-7.31s5.14-5.27,7.68-7.95c2.71-2.85,5.38-5.73,8.18-8.49,1.58-1.56,3.14-3.14,4.77-4.63,1.46-1.34,3-2.6,4.54-3.82a5.61,5.61,0,0,1,1.45-.72,3.55,3.55,0,0,1,1.36-.27A3.42,3.42,0,0,1,1320.37,835.07ZM1443.62,975a25.36,25.36,0,0,1-5-1.45,21.43,21.43,0,0,1-4.95-2.65,34.73,34.73,0,0,1-5-4.27,37.29,37.29,0,0,1-4.33-5.61c-4.48-7-7.18-14.87-9.53-22.75q-2.08-7-4.18-14c-1.12-3.75-2.42-7.46-3.68-11.18l-3.27-8.43c-1-2.56-2.13-5.07-3.21-7.59s-2.09-5-3.13-7.54-2.08-5.24-3.08-7.88c-1.88-4.89-3.49-9.88-5.35-14.78q-1.65-4.36-3.55-8.64l-.48,1.14c-.41,1-.84,2-1.28,3q-1.58,3.57-3.16,7.14c-1.53,3.46-3.28,6.83-4.94,10.23s-3.38,6.55-5.09,9.81-3.3,6.22-5,9.33q-5,9.3-9.81,18.66l-5.15,10c-1.74,3.38-3.43,6.78-5.26,10.1q-1.65,3-3.32,6.06a81.81,81.81,0,0,1-6.84,10.27c-1.57,2-3.28,4-5,5.91-1.2,1.37-2.42,2.7-3.67,4-3.27,3.4-6.6,6.84-10.58,9.41a6.93,6.93,0,0,1-1.77.75,8.92,8.92,0,0,1-1.93.3,7.55,7.55,0,0,1-3.75-.7l-1-.48a13.7,13.7,0,0,1-2.79-2.54,22.89,22.89,0,0,1-1.55-2.24,30.59,30.59,0,0,1-1.71-3.44,46.36,46.36,0,0,1-2-5.84,63.3,63.3,0,0,1-1.57-6.91,97.78,97.78,0,0,1-1.4-15.75,90.79,90.79,0,0,1,.3-10.56c.23-2.55.47-5.09.7-7.63.12-1.3.33-2.59.51-3.89l.9-6.22c.27-1.91.67-3.82,1-5.72.27-1.52.53-3,.84-4.55.53-2.56,1-5.14,1.59-7.68s1.11-5.05,1.79-7.54c1.29-4.8,2.61-9.58,4.05-14.33q2.27-7.5,4.43-15c.53-1.81,1-3.62,1.59-5.43-4.05,4-7.88,8.21-11.82,12.3l-5.07,5.27c-.92,1-1.82,1.94-2.77,2.87l-9.26,9c-2.86,2.79-5.82,5.49-8.73,8.23-2.57,2.41-5.17,4.8-7.76,7.19-5.2,4.8-10.44,9.58-15.77,14.24l-4.67,4.07c-1.22,1.07-2.52,2.06-3.78,3.07l-4.81,3.87c-.38.3-.78.57-1.17.84l-3.53,2.54c-1.16.83-2.31,1.69-3.53,2.45l-3.13,2c-.71.44-1.4.93-2.13,1.33-1.58.86-3.14,1.79-4.76,2.57l-2.88,1.39a31.17,31.17,0,0,1-6.38,2.17c-1.92.45-3.9.67-5.86.94a7.85,7.85,0,0,1-3.57-.33,3.38,3.38,0,0,1-1.28-.65,8.34,8.34,0,0,1-1.76-1.8,7.83,7.83,0,0,1-1-1.83,14.85,14.85,0,0,1-.56-2.46,18.64,18.64,0,0,1-.1-2.59,25.08,25.08,0,0,1,.23-3c.13-1.25.42-2.5.66-3.74.2-1,.43-1.94.66-2.91a55,55,0,0,1,1.56-5.37q1.13-3.16,2.23-6.33c.56-1.58,1.25-3.09,1.91-4.63s1.16-2.83,1.84-4.2l3-6.24c1.24-2.53,2.6-5,3.9-7.48s2.66-5.18,4-7.77,2.66-5.37,4.09-8c.79-1.44,1.56-2.88,2.35-4.33.69-1.28,1.34-2.61,2.09-3.86l2.69-4.45c.61-1,1.19-2.06,1.86-3,1.81-2.71,3.6-5.43,5.49-8.09,3.15-4.44,6.32-8.88,9.42-13.36l-2.49.75c-2.65.94-5.21,2-7.76,3.23-3.13,1.57-6.28,3.12-9.39,4.72q-5.4,2.79-10.77,5.59-10.12,5.29-20.14,10.8c-3.32,1.82-6.63,3.67-9.93,5.52s-6.74,3.7-10.13,5.53c-3.24,1.76-6.59,3.33-9.9,5a100.14,100.14,0,0,1-10.63,4.37,82.78,82.78,0,0,1-32.61,4.54c-3.6-.15-7.2-.33-10.81-.36l-11.38-.07c-.92,0-1.85,0-2.76-.12a16.71,16.71,0,0,1-2.33-.41,6.17,6.17,0,0,1-1.72-.77,7.08,7.08,0,0,1-1.48-1.13,10.46,10.46,0,0,1-2.54-8.65,30.38,30.38,0,0,1,3.7-10.53,68.68,68.68,0,0,1,8.48-11.86c3.38-4,7-7.71,10.66-11.49,2.39-2.5,4.91-4.89,7.37-7.33,1.38-1.37,2.85-2.67,4.27-4,1.12-1,2.22-2.08,3.37-3.07l5.34-4.63c1.35-1.16,2.79-2.22,4.2-3.32,1.16-.92,2.31-1.84,3.51-2.71l5.66-4.1c2.8-2,5.66-4,8.47-6l10-7.22c6-4.36,12.19-8.57,18.29-12.85,2.82-2,5.58-4.07,8.34-6.13s5.59-4.15,8.31-6.32l.54-.43c.4-.36.79-.73,1.18-1.1l-1.31-.32c-.74-.12-1.48-.22-2.23-.28a66.62,66.62,0,0,0-8.24.05c-5.48.43-10.94,1.2-16.4,1.87-3.8.47-7.6.92-11.41,1.38-7.58.91-15.17,1.86-22.77,2.78-3.7.46-7.42.78-11.14,1.16s-7.38.52-11.07.74c-7.19.43-14.41.53-21.61.54-7.37,0-14.72,0-22.08-.3-3.9-.14-7.8-.27-11.7-.49-1.88-.1-3.76-.16-5.64-.31l-6.36-.53c-1.59-.13-3.17-.38-4.75-.59l-2.41-.32c-1-.14-2.06-.43-3.07-.64-.78-.16-1.61-.27-2.37-.5l-2.81-.82c-1.13-.32-2.23-.71-3.34-1.13a14.68,14.68,0,0,1-2.44-1.15,13.73,13.73,0,0,1-2.68-1.91,12.11,12.11,0,0,1-2.83-3.94,13.08,13.08,0,0,1-1-4.21,14.53,14.53,0,0,1,.07-3c.16-.94.33-1.77.57-2.69a24.55,24.55,0,0,1,2.53-5.66,35.37,35.37,0,0,1,3.55-5,45.16,45.16,0,0,1,4.61-4.77,55.94,55.94,0,0,1,12.23-8.26,82.19,82.19,0,0,1,10.22-4.48l6.29-2.24c1.6-.57,3.25-1,4.87-1.51s3.1-.93,4.67-1.35c4-1.08,8-2.14,11.94-3.19,3.53-.93,7-1.93,10.54-2.91,6.85-1.9,13.66-3.94,20.53-5.76,3.53-.94,7-1.9,10.59-2.79q6.08-1.53,12.16-3c3.43-.83,6.87-1.66,10.27-2.61,1.93-.54,3.85-1.09,5.77-1.69,1.66-.52,3.3-1.07,5-1.63,2.43-.84,4.87-1.66,7.24-2.68.52-.27,1-.55,1.54-.85,0,0,0,0,0,0a15.46,15.46,0,0,0-.92-1.45l.25.38c-.75-1.07-1.54-2.1-2.38-3.1-1.45-1.6-3-3.11-4.57-4.56-1.46-1.23-3-2.39-4.5-3.5a69.61,69.61,0,0,0-7-4.1c-5.33-2.63-10.9-4.68-16.43-6.83l-9.17-3.58-11.52-4.55c-3.06-1.2-6.12-2.39-9.15-3.69-3.54-1.52-7.08-3.07-10.52-4.84l-5.46-2.8c-1.69-.87-3.34-1.85-5-2.78-1.52-.84-3-1.81-4.45-2.72a64.11,64.11,0,0,1-9-6.67,70.3,70.3,0,0,1-8.59-9.33c-1.6-2.06-3-4.24-4.52-6.39-.87-1.27-1.7-2.55-2.52-3.86-1-1.58-2-3.15-2.95-4.76s-2-3.25-2.87-4.92-2-3.57-2.9-5.42a98.72,98.72,0,0,1-4.56-10.77,9.49,9.49,0,0,1-.71-4.33,7.78,7.78,0,0,1,1.58-3.68,8.39,8.39,0,0,1,3.65-2.4,22.68,22.68,0,0,1,6.32-1.27,83.28,83.28,0,0,1,10.11-.39l7.38.19c1.45,0,2.89.21,4.33.33l3.9.33c.66.06,1.35.07,2,.17l6.21,1c1.46.23,2.92.43,4.36.76,3.6.81,7.23,1.52,10.78,2.51l8.28,2.32c1.16.32,2.3.73,3.44,1.09l5.18,1.64c4.83,1.53,9.62,3.19,14.44,4.78q6.95,2.29,14,4.31c2.73.79,5.48,1.55,8.22,2.3,2.39.65,4.8,1.19,7.21,1.73,1.54.31,3.1.64,4.66.87,0,0,0,0,0,0,0-.2,0-.39,0-.59v-.94a26.34,26.34,0,0,0-.35-2.67c-.24-1-.5-2-.8-2.91-.51-1.38-1.07-2.73-1.68-4.07-1.06-2.08-2.23-4.1-3.49-6.07-1.92-2.82-4-5.51-6.18-8.14-1.2-1.37-2.4-2.73-3.59-4.1s-2.19-2.4-3.31-3.59-2.2-2.4-3.35-3.56l-5-5c-5.2-5.26-10.75-10.17-16.23-15.14-2.48-2.24-4.91-4.54-7.26-6.91-1.31-1.32-2.68-2.61-4-4l-4.59-5c-1-1-1.9-2.14-2.83-3.22-1.3-1.5-2.64-3-3.91-4.53-2.55-3.09-5.07-6.19-7.54-9.35-2.07-2.65-4.12-5.32-6-8.08l-2.07-3c-.45-.64-.92-1.27-1.34-1.93l-3.21-5.2c-.87-1.42-1.61-2.93-2.36-4.41a62.33,62.33,0,0,1-2.66-6.11,37.58,37.58,0,0,1-1.69-6.26,21.83,21.83,0,0,1-.1-6.75,15.75,15.75,0,0,1,.56-2.35,7.59,7.59,0,0,1,.87-2,16.55,16.55,0,0,1,1.46-2,14,14,0,0,1,1.6-1.48,8.15,8.15,0,0,1,1.9-1.09,23.24,23.24,0,0,1,2.35-.81,16.09,16.09,0,0,1,6.11-.19,22.32,22.32,0,0,1,2.78.53c1.25.31,2.46.68,3.68,1.11,2.23.79,4.41,1.73,6.57,2.72,2.92,1.33,5.77,2.84,8.64,4.26l5.68,2.81c1.73.86,3.52,1.61,5.28,2.41,3.38,1.54,6.8,3,10.21,4.45,1.47.63,2.91,1.33,4.35,2s3,1.35,4.51,2.13c2.79,1.48,5.62,2.9,8.34,4.51,2.87,1.7,5.74,3.38,8.57,5.15,5.93,3.7,11.8,7.51,17.63,11.36q7.86,5.19,16,9.85c3.06,1.75,6.14,3.44,9.24,5.13,2.48,1.36,5,2.62,7.54,3.91l6.48,3c.75.35,1.55.63,2.32.93l3.29,1.32c3.17,1.05,6.34,2.14,9.57,3l0-.05c.23-.53.44-1.07.62-1.61-.06.19-.13.38-.2.57.37-1.15.68-2.28.94-3.45a70.79,70.79,0,0,0,1-7.12,83,83,0,0,0,0-9.2c-.24-3.34-.62-6.67-1.18-10-.34-2-.69-4-1-6.06s-1-4.33-1.43-6.5c-.41-1.9-1-3.76-1.46-5.64-.47-1.71-.89-3.44-1.46-5.13-.73-2.16-1.45-4.33-2.18-6.5-1.28-3.19-2.5-6.39-3.89-9.53q-2.48-5.55-4.94-11.11c-3.08-6.89-6-13.86-8.87-20.83-1.28-3.09-2.53-6.17-3.8-9.26-1.45-3.54-2.92-7.06-4.3-10.63-.81-2.12-1.63-4.23-2.45-6.35-.62-1.6-1.12-3.25-1.68-4.88l-1.09-3.21c-.17-.5-.37-1-.52-1.51l-1.91-6.86c-.66-2.35-1.15-4.74-1.61-7.13a65.07,65.07,0,0,1-1.22-13.28c0-1.88.17-3.75.34-5.62.19-2.09.41-4.2.7-6.28.06-.53.15-1.07.24-1.6a8.76,8.76,0,0,1,.58-1.75,4.25,4.25,0,0,1,.89-1.29,6.48,6.48,0,0,1,1.39-1.22,5.5,5.5,0,0,1,2.72-.84,3.89,3.89,0,0,1,1.07.15,5.57,5.57,0,0,1,1.82.6,19.34,19.34,0,0,1,3.47,2.5c1.77,1.64,3.39,3.46,5,5.24,3.26,3.57,6.26,7.38,9.31,11.13.56.7,1.15,1.38,1.68,2.11l3.67,5.07,2.7,3.74c.74,1,1.39,2.08,2.07,3.12,3.62,5.49,7.2,11,10.8,16.49q6.54,9.61,13.24,19.1c2.15,3.06,4.37,6.07,6.56,9.1.94,1.31,2,2.57,3,3.85,1.51,1.93,3,3.87,4.59,5.73,1.18,1.35,2.4,2.68,3.64,4,1.72,1.8,3.56,3.47,5.41,5.13l-.33-.3,5.33,4.41c.65.54,1.38,1,2.07,1.51l3,2.17c2,1.34,4.1,2.58,6.24,3.71,1.46.72,2.93,1.36,4.45,1.93,1,.34,2.1.63,3.18.9,1.27.25,2.53.44,3.82.57a21.5,21.5,0,0,0,2.27,0,11.7,11.7,0,0,0,1.17-.15l.62-.19.45-.19.43-.25.41-.32.54-.56.62-.8q.45-.69.84-1.41c.42-.91.8-1.82,1.15-2.75.43-1.34.79-2.68,1.11-4a81.06,81.06,0,0,0,1.2-9.19c.08-1.37.19-2.74.18-4.11,0-1,0-2,0-3,0-1.53.06-3.08,0-4.61-.13-2.12-.27-4.24-.4-6.36-.12-1.9-.33-3.79-.52-5.68-.15-1.59-.3-3.17-.53-4.75-.31-2.23-.63-4.45-1-6.68l-1-4.94c-.31-1.47-.59-2.95-1-4.4-1-3.77-2-7.54-3.16-11.28s-2.33-7.7-3.47-11.55c-.39-1.32-.8-2.63-1.11-4q-.8-3.36-1.58-6.72c-.15-.63-.24-1.27-.34-1.91l-.6-3.82a69.32,69.32,0,0,1-.82-10.58,41.93,41.93,0,0,1,1.91-12.23,33.22,33.22,0,0,1,5.8-11,19.87,19.87,0,0,1,1.58-1.73,10.42,10.42,0,0,1,1.75-1.43,12.89,12.89,0,0,1,2.27-1.18,7.08,7.08,0,0,1,1.87-.5,11.3,11.3,0,0,1,4.7.31,27.75,27.75,0,0,1,2.64,1,16.27,16.27,0,0,1,2.89,1.66c1,.69,2,1.41,2.89,2.19.76.63,1.46,1.33,2.17,2a53.21,53.21,0,0,1,4.44,5,62.32,62.32,0,0,1,3.82,5.33c1,1.5,1.95,3,2.84,4.56,5.78,10.09,11.42,20.28,16.64,30.67,2.62,5.23,5.23,10.46,7.89,15.67,1.07,2.08,2.16,4.17,3.33,6.2.73,1.29,1.44,2.61,2.22,3.87s1.67,2.7,2.5,4.05c2.25,3.35,4.55,6.68,6.77,10.05s4.18,6.74,6.15,10.18,4,7,5.77,10.64c1,2.1,2,4.23,3,6.37,1.57-3.48,3.22-6.92,4.9-10.35,2.07-4.2,4.21-8.36,6.47-12.47q3.84-7,7.57-14c1.5-3,3-6.06,4.42-9.15q2.54-5.65,5-11.34c2.76-6.39,5.71-12.72,8.9-18.9,1.86-3.61,3.72-7.21,5.67-10.77s3.85-6.94,5.82-10.39c3.56-6.23,7.33-12.34,11.13-18.42a189.37,189.37,0,0,1,12.21-17.63,24,24,0,0,1,2.66-2.86,10.55,10.55,0,0,1,1.76-1.28,7.42,7.42,0,0,1,1.85-.86,8,8,0,0,1,2.12-.38,8.59,8.59,0,0,1,2.25.26,6.47,6.47,0,0,1,1.75.75c.37.23.72.47,1.08.72s.78.69,1.16,1a12.52,12.52,0,0,1,1.63,2.06c.49.7.91,1.45,1.34,2.2a19.07,19.07,0,0,1,1.84,4.79,30.57,30.57,0,0,1,.8,5.79,48.37,48.37,0,0,1,0,6.14c-.13,1.84-.23,3.69-.43,5.53s-.42,3.7-.7,5.55c-.55,3.57-1.16,7.13-1.8,10.69q-1.92,10.7-3.87,21.39c-1.16,6.26-2.44,12.52-3.32,18.84-.43,3.05-.89,6.11-1.14,9.19q-.42,4.95-.79,9.9c-.24,3.41-.48,6.82-.63,10.23s-.24,7.1-.27,10.66c-.08,7.16-.07,14.31.3,21.46a74.33,74.33,0,0,0,.95,8c.08.34.16.67.25,1v0l.44.25.35.14.22.07.42,0-.37,0h-.1l-.09,0h0l.09,0-.3,0h.31l.13.06-.12-.06a10.6,10.6,0,0,0,1.25-.13c.53-.13,1.06-.27,1.59-.43,1.26-.46,2.49-1,3.72-1.55q3.51-1.77,6.85-3.86c1.87-1.17,3.72-2.38,5.57-3.6,2.94-2,5.85-4,8.69-6.17s5.58-4.32,8.29-6.59c5.9-4.92,11.8-9.84,17.77-14.67q8.1-6.57,16-13.38c5.59-4.82,11.14-9.7,16.78-14.46q9.12-7.71,18.36-15.27c5.38-4.42,10.88-8.7,16.51-12.79l2-1.44c.5-.35,1-.67,1.52-1l.5-.24a14.23,14.23,0,0,1,1.42-.53,42.22,42.22,0,0,1,7.09-.75,8.75,8.75,0,0,1,1.84.16,8.61,8.61,0,0,1,1.7.54,6.19,6.19,0,0,1,1.51.89,8.28,8.28,0,0,1,1.32,1.26,9.92,9.92,0,0,1,2,3.82,24.22,24.22,0,0,1,.5,2.95,15.93,15.93,0,0,1,0,3,45.91,45.91,0,0,1-3.32,12.64c-.91,2.35-2,4.6-3.13,6.88-.77,1.63-1.7,3.19-2.55,4.78s-2,3.28-2.93,4.92c-.84,1.41-1.79,2.76-2.69,4.13s-1.67,2.46-2.51,3.68c-1.8,2.6-3.69,5.15-5.57,7.69-4,5.36-7.78,10.79-11.55,16.28q-3.84,5.73-7.57,11.53c-2.52,3.94-5,7.91-7.48,11.86-2.33,3.7-4.75,7.33-7.16,11s-4.8,7.68-7,11.65c-1.28,2.55-2.44,5.15-3.51,7.8-1.13,2.81-2.28,5.62-3.33,8.48-.3,1-.57,2.05-.82,3.1-.13.66-.24,1.32-.34,2a1.48,1.48,0,0,1,0,.21l.09.09.31.23.51.29.74.33-.55-.19a11.41,11.41,0,0,0,1.63.51l1.06.16-.59,0a15,15,0,0,0,2.12.06,18.07,18.07,0,0,0,1.8-.23,33.7,33.7,0,0,0,3.41-.93,101.34,101.34,0,0,0,10.11-4.5c6.5-3.4,13-6.85,19.39-10.42,6.7-3.73,13.28-7.66,19.81-11.66,3.12-1.9,6.19-3.87,9.28-5.82s6.26-3.81,9.44-5.64,6.33-3.48,9.52-5.15q4.53-2.4,9.16-4.61c3.22-1.56,6.45-3.09,9.72-4.53s6.64-2.89,10.08-4c2.4-.79,4.9-1.53,7.45-1.17a14.6,14.6,0,0,1,3.55,1,7.51,7.51,0,0,1,1.87,1.11c.42.34.84.69,1.24,1.06s.69.79,1,1.19a8.44,8.44,0,0,1,1.66,3.87,12,12,0,0,1-.07,4.26,18.69,18.69,0,0,1-1.65,4.8,37.79,37.79,0,0,1-3.8,6.19,82.08,82.08,0,0,1-5.38,6.55c-1.14,1.31-2.28,2.61-3.46,3.89-2.45,2.65-4.93,5.29-7.45,7.88-5.07,5.23-10.16,10.43-15.44,15.45l-8.36,8c-2.46,2.35-4.77,4.84-7.08,7.33l-3,3.54c-1.08,1.27-2.08,2.62-3.11,3.93-1.92,2.43-3.77,4.92-5.64,7.39-3.41,4.47-6.76,9-10,13.61-1.79,2.67-3.64,5.34-5.17,8.18l-.18.48-.12.53v0l.26.11c.34.11.68.2,1,.29s1,.16,1.45.21c1,0,2,0,3,0,1.46-.11,2.91-.24,4.36-.41s3.1-.47,4.64-.72l-.6.12c3.53-.71,7.07-1.39,10.58-2.18q6-1.35,12-2.78c3.17-.76,6.31-1.59,9.47-2.39,1.83-.46,3.66-1,5.5-1.39l6.67-1.5c1.43-.32,2.87-.58,4.31-.84,1.82-.33,3.63-.72,5.46-1l6-.8c.81-.11,1.63-.14,2.44-.2l3.67-.3c1.84-.14,3.7-.16,5.54-.24s3.62-.08,5.43-.12c3.44-.06,6.87,0,10.31,0s6.91,0,10.36.12c1.48,0,3,.15,4.44.31a20.39,20.39,0,0,1,2.54.51,5.15,5.15,0,0,1,2.86,2,5.37,5.37,0,0,1,.89,3.24,7.32,7.32,0,0,1-.91,3.26,28.88,28.88,0,0,1-6.15,7.47c-.6.56-1.19,1.15-1.84,1.67l-2.46,2c-1.35,1.09-2.83,2-4.25,3s-3,2-4.53,3-3.1,2-4.64,3c-3.25,2.14-6.49,4.29-9.77,6.36-3,1.9-6.07,3.71-9.13,5.51-2.91,1.71-5.86,3.36-8.72,5.15-2.19,1.37-4.35,2.77-6.51,4.19-2.64,1.77-5.26,3.58-8,5.2-1.58,1-3.15,1.86-4.77,2.73s-3.16,1.67-4.75,2.49c-3.18,1.63-6.35,3.28-9.49,5-3,1.62-5.87,3.36-8.72,5.19-2.62,1.78-5.22,3.59-7.76,5.49l-4.47,3.35c-1.48,1.11-3,2.2-4.4,3.37l-.31.3-.07.08a.21.21,0,0,1,0,.06v.09c0,.11,0,.22,0,.33s0,.37,0,.55.1.43.14.64c0-.17-.11-.33-.16-.5a10.88,10.88,0,0,0,.61,1.59c.43.81.88,1.58,1.37,2.34.76,1.05,1.54,2.06,2.36,3.06,2.26,2.53,4.72,4.84,7.18,7.17q2.34,2.21,4.69,4.38,5.19,4.79,10.42,9.51c5.56,4.9,11.15,9.77,16.6,14.8s10.61,10.51,15.73,16c2.38,2.55,4.76,5.1,7.19,7.61,2.63,2.73,5.32,5.4,8,8.07,2.39,2.38,4.77,4.81,6.94,7.39,1.2,1.45,2.41,2.88,3.58,4.36s2.31,3,3.43,4.54c.66.9,1.3,1.81,1.94,2.73a17.75,17.75,0,0,1,1.26,2,32.12,32.12,0,0,1,1.35,3.27,9.2,9.2,0,0,1,.76,4.23,3.85,3.85,0,0,1-.25.88,6.17,6.17,0,0,1-.59,1.49,9.54,9.54,0,0,1-1.92,2.28,17.31,17.31,0,0,1-5.87,3.34,36.58,36.58,0,0,1-6.21,1.44c-1.26.19-2.51.29-3.77.4s-2.56,0-3.83.07-2.55-.11-3.82-.17-2.37-.22-3.55-.36-2.27-.25-3.4-.46l-4.46-.83c-1.24-.23-2.46-.55-3.69-.84-1.08-.24-2.15-.5-3.23-.76q-4-1-7.94-1.9c-2.62-.52-5.23-1-7.88-1.37l-4.58-.65c-1.58-.22-3.14-.53-4.71-.8-1.27-.21-2.53-.51-3.8-.79s-2.6-.55-3.89-.86q-4.58-1.08-9.16-2.11c-2.64-.53-5.28-1-7.94-1.47s-5.29-.77-7.93-1.18c-3.91-.61-7.82-1.26-11.76-1.76.15.56.3,1.12.47,1.68.6,1.67,1.28,3.29,2,4.89a102.32,102.32,0,0,0,5.85,9.81q2.91,4.14,5.83,8.26c2.23,3.13,4.47,6.25,6.62,9.44,1.24,1.84,2.47,3.69,3.71,5.54,1,1.43,1.83,2.92,2.72,4.38s1.87,2.92,2.71,4.42l3.36,6c3.41,6.09,6.63,12.3,9.85,18.48,1.88,3.61,3.76,7.22,5.6,10.86.71,1.41,1.46,2.81,2.13,4.24,1,2.17,2,4.35,3.08,6.52,1.53,3.27,2.92,6.61,4.36,9.92.74,1.7,1.39,3.44,2.09,5.15s1.26,3.19,1.88,4.8c2.73,7.11,5.31,14.28,7.89,21.45,1.22,3.4,2.36,6.82,3.5,10.25.57,1.73,1.12,3.48,1.69,5.22a12.85,12.85,0,0,1,.69,2.66,9.84,9.84,0,0,1,.06,2.1,6.85,6.85,0,0,1-1.84,3.85,8.29,8.29,0,0,1-3.4,2,18.07,18.07,0,0,1-2.5.57,15.07,15.07,0,0,1-3.15,0,33.06,33.06,0,0,1-5.65-1,44.73,44.73,0,0,1-4.53-1.4c-1.63-.56-3.24-1.12-4.84-1.79s-3.3-1.35-4.91-2.13l-3.26-1.6c-.68-.33-1.38-.63-2-1l-5.46-3c-1.58-.87-3.09-1.9-4.62-2.84s-3.21-2-4.81-3c-2.84-1.82-5.66-3.66-8.43-5.58-1.33-.93-2.7-1.81-4-2.79l-5.71-4.37c-2.79-2.13-5.46-4.43-8.17-6.66s-5.18-4.4-7.75-6.62q-4.39-3.81-8.75-7.67c-3-2.62-5.76-5.41-8.55-8.21-3.87-3.89-7.59-7.94-11.35-11.95-1.55-1.64-3.09-3.29-4.66-4.92,0,1.77,0,3.54-.07,5.31s.06,3.32.09,5,0,3.21.11,4.82c.31,7.49.68,15,.91,22.46.25,7.7.55,15.41.59,23.11l0,6.4c0,2.06-.11,4.13-.17,6.2-.09,3.32-.37,6.64-.63,9.95-.62,7.64-1.09,15.29-1.85,22.91-.17,1.79-.43,3.55-.7,5.33s-.73,3.77-1.15,5.66a84.12,84.12,0,0,1-3,10c-.39,1.1-.79,2.2-1.2,3.29a15.71,15.71,0,0,1-2.08,3.71,8.11,8.11,0,0,1-2.7,2.2,9.13,9.13,0,0,1-1.81.66,7.26,7.26,0,0,1-1.4.19,4.2,4.2,0,0,1-1.12,0l-1.21-.17a7.32,7.32,0,0,1-1.71-.51,13.38,13.38,0,0,1-2-1,14.51,14.51,0,0,1-2.25-1.66,21.79,21.79,0,0,1-1.83-1.77,29.16,29.16,0,0,1-3.32-4.26,77.16,77.16,0,0,1-4-6.74c-.91-1.72-1.71-3.51-2.56-5.26-.77-1.56-1.41-3.18-2.09-4.79-1.31-3.1-2.53-6.25-3.62-9.43-2-5.84-4-11.7-6.12-17.49-2.21-6-4.55-12-6.94-17.88-2.15-5.34-4.35-10.67-6.5-16-2-5.08-4.09-10.14-6.46-15.08-.3,2.49-.54,5-.78,7.48-.27,2.77-.53,5.54-.8,8.3q-.81,8.27-1.61,16.53c-.55,5.66-1,11.31-1.54,17-.43,5-.76,9.91-1.13,14.86q-.74,11.51-1.54,23c-.26,3.58-.63,7.15-1,10.73-.14,1.62-.37,3.23-.56,4.84s-.37,3.32-.62,5q-.48,3.1-.95,6.21c-.29,1.81-.72,3.62-1.13,5.41a44.29,44.29,0,0,1-2.41,7.36,20,20,0,0,1-2.91,4.73,12.24,12.24,0,0,1-3.44,2.93c-.74.4-1.44.75-2.22,1.09a13.84,13.84,0,0,1-2.44.69,13.26,13.26,0,0,1-2.88.27A23.27,23.27,0,0,1,1443.62,975Z"/><path d="M469.63,601.13c-.05.16-.11.32-.17.49a97.9,97.9,0,0,0,2.74-9.49,46.37,46.37,0,0,0,.71-5.14,49.79,49.79,0,0,0,0-5.73,48.64,48.64,0,0,0-.68-5.37,47.45,47.45,0,0,0-1.4-5.06c-1.06-2.93-2.4-5.75-3.68-8.59-1-2.17-2-4.31-3.09-6.45-.86-1.69-1.79-3.36-2.82-5-.52-.75-1.08-1.48-1.67-2.18-.42-.46-.85-.89-1.31-1.31a16.5,16.5,0,0,0-1.48-1.13c-.65-.42-1.31-.81-2-1.17-1-.47-2-.87-3-1.24a21,21,0,0,0-2.19-.63c-.63-.11-1.26-.2-1.9-.25-.82,0-1.64,0-2.45,0a19.41,19.41,0,0,0-2,.26c-.39.09-.78.2-1.17.31s-.64.25-1,.39a4,4,0,0,1,2.77,2.29,3.92,3.92,0,0,1-2.06,5.08c-.51.23-1,.46-1.52.71s-1.12.63-1.66,1c-.79.56-1.54,1.16-2.28,1.79s-1.26,1.18-1.85,1.82c-.27.33-.53.68-.78,1-.68,1.08-1.24,2.22-1.88,3.34s-1.15,2.05-1.7,3.11a24.12,24.12,0,0,0-1,2.34c-.55,1.7-1,3.45-1.48,5.17-.4,1.32-.87,2.61-1.32,3.91,0-.12.08-.25.13-.38-.33.94-.59,1.9-.83,2.87-.31,1.59-.55,3.19-.81,4.79-.3,1.94-.68,3.86-.85,5.81,0,.72,0,1.45,0,2.17.08,1.11.18,2.22.32,3.33s.34,2,.52,3.06c.37,1.64.78,3.27,1.31,4.86.14.38.29.75.46,1.12s.54,1,.83,1.44.86,1.15,1.33,1.7a55.16,55.16,0,0,0,4.06,3.88c1.46,1.23,2.9,2.48,4.47,3.59a24.81,24.81,0,0,0,2.29,1.33,29.35,29.35,0,0,0,2.71,1.15c1,.31,1.93.56,2.91.78s2,.33,3.09.42,2.2.06,3.3,0a23.93,23.93,0,0,0,2.66-.36,20,20,0,0,0,2.05-.56c.7-.26,1.38-.56,2.06-.88s1.43-.8,2.12-1.25a31.52,31.52,0,0,0,2.68-2,24.69,24.69,0,0,0,1.86-1.83q.64-.76,1.23-1.59c.39-.62.77-1.25,1.1-1.9A58.62,58.62,0,0,0,469.63,601.13Zm-19.05,24.1a32.67,32.67,0,0,1-10.1-1.6,28.78,28.78,0,0,1-9.86-5.68c-1.22-1.05-2.42-2.14-3.58-3.25a27.43,27.43,0,0,1-5.67-6.9,19.63,19.63,0,0,1-1.77-4.74l-.51-2.27c-.32-1.43-.54-2.88-.75-4.32s-.35-2.81-.41-4.21a31.88,31.88,0,0,1,0-3.91c.08-1.07.24-2.12.4-3.18.21-1.36.44-2.71.65-4.07s.33-2.47.54-3.69a29.88,29.88,0,0,1,1-4c.43-1.34.85-2.67,1.2-4,.51-1.93.87-3.9,1.52-5.79a42,42,0,0,1,2.71-5.86,30.22,30.22,0,0,1,3.53-6.4,31.13,31.13,0,0,1,3.48-3.6c.21-.36.43-.72.66-1.07a35.79,35.79,0,0,1,2.19-3.13,14.45,14.45,0,0,1,5.59-4.42,20.21,20.21,0,0,1,4.27-1.2,18.06,18.06,0,0,1,4-.33,26.12,26.12,0,0,1,7.71,1.66,20.24,20.24,0,0,1,7,4.3,31.74,31.74,0,0,1,5.08,6.66c1.27,2.16,2.39,4.4,3.51,6.64.6,1.21,1.2,2.41,1.77,3.64.86,1.82,1.72,3.64,2.48,5.5a45.81,45.81,0,0,1,3.14,11.5,51.54,51.54,0,0,1,.21,12.16,52.65,52.65,0,0,1-2.15,10.16c-.55,1.74-1.08,3.48-1.68,5.21-1.23,3.61-2.72,7.28-5.23,10.21a28.22,28.22,0,0,1-4.24,4.08,30.52,30.52,0,0,1-4.39,2.89,24.21,24.21,0,0,1-5.47,2.18,27.4,27.4,0,0,1-5.57.79Z"/><path d="M505,622.68a28.64,28.64,0,0,0,4.86-2c1.28-.64,2.55-1.28,3.81-2a22.65,22.65,0,0,0,4.09-2.67,19.34,19.34,0,0,0,3.6-4.21,74.84,74.84,0,0,0,4.7-9.34c1-2.12,2-4.22,3-6.32.78-1.53,1.54-3.06,2.2-4.65a17.54,17.54,0,0,0,1.32-5.38,31.7,31.7,0,0,0-1.54-11c-.51-1.81-1.14-3.57-1.76-5.35-.43-1.19-.8-2.42-1.27-3.59q-2.89-7.12-5.66-14.28c-.67-1.72-1.34-3.41-2.14-5.08a29.62,29.62,0,0,0-6-8.48,23.7,23.7,0,0,0-8.71-5.37,26.65,26.65,0,0,0-5-1.23,19.4,19.4,0,0,0-5.54,0,15.29,15.29,0,0,0-4.75,1.49,22.12,22.12,0,0,0-4.11,2.74,29.82,29.82,0,0,0-6.2,7.19c-.45.71-.84,1.44-1.24,2.18-.26.48-.52,1-.75,1.46s-.52,1.16-.79,1.74-.5,1.32-.76,2-.5,1.36-.75,2-.52,1.28-.78,1.92c-.52,1.27-1.07,2.53-1.57,3.82-.14.37.42.61.56.24.49-1.27,1-2.52,1.55-3.77h0v0c.47-.94.95-1.87,1.48-2.78s1.07-1.78,1.63-2.67c.45-.59.89-1.19,1.35-1.78s1-1.23,1.56-1.83c.75-.81,1.52-1.57,2.34-2.31a27.56,27.56,0,0,1,2.35-1.8,28,28,0,0,1,2.59-1.53c.69-.33,1.38-.63,2.09-.89.54-.18,1.09-.34,1.64-.47s1.26-.21,1.9-.26,1.43,0,2.15,0,1.3.16,1.94.28c.81.18,1.6.4,2.39.66s1.76.71,2.63,1.13c.64.34,1.26.7,1.88,1.09a22.07,22.07,0,0,1,1.79,1.4c.63.57,1.23,1.17,1.81,1.8s1.14,1.43,1.66,2.18a30.69,30.69,0,0,1,1.61,2.77c1.25,2.57,2.22,5.27,3.25,7.94.75,1.93,1.53,3.85,2.31,5.77s1.68,4,2.49,6c.4,1,.75,2.08,1.13,3.12s.67,1.87,1,2.81a61.39,61.39,0,0,1,1.63,6c.16.81.29,1.62.37,2.45,0,.58,0,1.17,0,1.76,0,.37-.09.75-.15,1.12s-.18.7-.29,1c-.8,2.16-1.85,4.21-2.85,6.29-.5,1-1,2.09-1.48,3.14-1.2,2.65-2.36,5.34-3.66,7.95-.44.83-.91,1.64-1.42,2.43-.34.49-.7,1-1.09,1.42-.26.27-.52.54-.8.81s-.54.43-.82.62a41.36,41.36,0,0,1-4.13,2.26c-1.36.65-2.71,1.3-4.12,1.83-.56.19-1.13.35-1.71.49s-1.42.21-2.13.27-1.7,0-2.55,0c-1.18-.09-2.34-.23-3.5-.43l-.91-.25c-.23-.09-.45-.19-.66-.29l-.67-.4c-.41-.3-.8-.61-1.18-.94-.78-.71-1.53-1.46-2.29-2.2-.55-.53-1.05-1.12-1.55-1.68-.69-.83-1.38-1.66-2-2.51a4,4,0,0,0-6.61,4.46,34.35,34.35,0,0,0,5.54,6.6c.68.65,1.36,1.27,2.06,1.88a14.5,14.5,0,0,0,4.92,2.87,23.16,23.16,0,0,0,5,.91,31.7,31.7,0,0,0,3.37.18A23.26,23.26,0,0,0,505,622.68Z"/><path d="M514.57,591.28a6.61,6.61,0,0,0,3.55-3v0a4.19,4.19,0,0,0,.9-1.12,5.53,5.53,0,0,0,.74-2.26,5.94,5.94,0,0,0-.4-2.89,7.19,7.19,0,0,0-3.28-3.41,8.6,8.6,0,0,0-2.31-.82,8.73,8.73,0,0,0-1.36-.19,6.94,6.94,0,0,0-1.44,0,5.5,5.5,0,0,0-2.3.89l-.24.19a5.6,5.6,0,0,0-.76.51,7.31,7.31,0,0,0-2.52,3.72,5.75,5.75,0,0,0,.81,4.8,6.27,6.27,0,0,0,2.95,2.29,6,6,0,0,0,1.39.92,6.21,6.21,0,0,0,2.63.61A5.05,5.05,0,0,0,514.57,591.28Z"/><path d="M463.13,598.2a5.87,5.87,0,0,0,2.8-.78,5.36,5.36,0,0,0,1.11-.89,6.54,6.54,0,0,0,2.83-6.26,9.31,9.31,0,0,0-.6-2.54,5.55,5.55,0,0,0-.83-1.48c-.05-.11-.12-.22-.18-.33a7.47,7.47,0,0,0-4.09-3.37,6.24,6.24,0,0,0-5.07.44,6.64,6.64,0,0,0-1.89,1.61,6,6,0,0,0-1.14,2.28,11.91,11.91,0,0,0-.23,1.52,9.38,9.38,0,0,0,0,1.83,9.85,9.85,0,0,0,2.54,5.81,6.38,6.38,0,0,0,2.14,1.65,6.05,6.05,0,0,0,2.47.52Z"/><path d="M474.87,676a2.12,2.12,0,0,1-2,0,1.55,1.55,0,0,1-.71-1.36,6,6,0,0,1,.32-1.67c.06-.35.11-.7.14-1v-.34l-.63-.34,0,0a3.65,3.65,0,0,1-1.82-1.83,3.48,3.48,0,0,1,0-2.67l-.3-.12-.48-.14-1-.15c-.29,0-.57,0-.85,0a3,3,0,0,0-.42.06,5.44,5.44,0,0,0-.54.15c-.24.09-.46.19-.69.29l-.38.23a3.57,3.57,0,0,0-.38.3l-.22.21c-.14.17-.27.34-.4.53a4,4,0,0,0-.2.35c-.09.17-.16.35-.24.53s-.11.4-.16.6c-.09.51-.15,1-.19,1.51,0,.87,0,1.73,0,2.61.06.72.15,1.43.28,2.15s.33,1.34.54,2c.1.26.21.53.33.79l.19.32.08.11h0l.07,0,.28.12c.38.12.76.21,1.14.3,1,.16,1.95.25,2.94.32.76,0,1.52.05,2.28,0l.4-.05.12,0,.22-.09a5.55,5.55,0,0,0,.48-.29l.6-.47.34-.34c.21-.25.41-.51.6-.77l.51-.83s0-.09,0-.13C475,676.63,475,676.34,474.87,676Zm-3,13.47a18.18,18.18,0,0,1-2.2-.14c-.7-.09-1.39-.2-2.09-.32a16.64,16.64,0,0,1-5.22-1.78,9.29,9.29,0,0,1-3.7-3.55,10.93,10.93,0,0,1-1-2.71c-.19-.83-.37-1.67-.48-2.51a23.12,23.12,0,0,1-.15-5.45c.29-2.89.79-6,2.68-8.33a9.9,9.9,0,0,1,3.78-2.94,10.71,10.71,0,0,1,4.74-.86,10.14,10.14,0,0,1,5,1.54,7.76,7.76,0,0,1,2.43,2.72,7.45,7.45,0,0,1,.93.36,8.75,8.75,0,0,1,1.74,1.09,10.77,10.77,0,0,1,2.47,3,35.5,35.5,0,0,1,2,3.85,10.71,10.71,0,0,1,1.09,5.39,10.35,10.35,0,0,1-1.37,4,13.42,13.42,0,0,1-3.41,4.05,10.73,10.73,0,0,1-7.24,2.57Z"/><path d="M471.12,682a4.33,4.33,0,0,0,1.59-.31,3.58,3.58,0,0,0,.48-.24,5.12,5.12,0,0,0,1.58-.6,7.08,7.08,0,0,0,2.87-3.78,2.41,2.41,0,0,0-.41-2.2,7.17,7.17,0,0,0-.35-2.47,6.24,6.24,0,0,0-.4-1c0-.18-.08-.36-.13-.55a9.54,9.54,0,0,0-1.85-3.43,9.87,9.87,0,0,0-3.28-2.6,7.37,7.37,0,0,0-3.7-.93,5.26,5.26,0,0,0-3.36,1.52,5.58,5.58,0,0,0-1.33,3,5.9,5.9,0,0,0-.11.93,7,7,0,0,0-.66,1.79,7.55,7.55,0,0,0,2.41,7.34,7.26,7.26,0,0,0,2.56,1.35c.2.24.41.48.63.71a5.32,5.32,0,0,0,1.68,1.08,4.73,4.73,0,0,0,1.73.39Z"/><path d="M1253,653.45c-.28-.13-.55-.25-.82-.39a3.84,3.84,0,0,1-2.86-.76,7.64,7.64,0,0,1-2.46-4.24,8.13,8.13,0,0,1-.18-2.74,15.88,15.88,0,0,1-.26-3.08,14.8,14.8,0,0,1,1.94-7,12.19,12.19,0,0,1,5.63-5,9.45,9.45,0,0,1,5-.74,8.21,8.21,0,0,1,2.57.77,7.17,7.17,0,0,1,2.32,1.61,8.78,8.78,0,0,1,2.41,4.5c0,.17,0,.35.07.52a11.44,11.44,0,0,1,1,6.13,10.8,10.8,0,0,1-.87,3,15.83,15.83,0,0,1-1.88,3.14,12.28,12.28,0,0,1-4.89,3.94,9.49,9.49,0,0,1-3.88.9h0A6.9,6.9,0,0,1,1253,653.45Z"/><path d="M1310,656.22a8.65,8.65,0,0,1-6.1-3,11.27,11.27,0,0,1-2.45-5.67,11,11,0,0,1,.1-3.58,12.23,12.23,0,0,1,1.24-3.39,6.73,6.73,0,0,1,.87-1.21,6.46,6.46,0,0,1,1.23-1.22,7.92,7.92,0,0,1,1.35-.86c.27-.22.54-.43.82-.63a8.86,8.86,0,0,1,.94-.6c0-.07.12-.13.18-.2a4.68,4.68,0,0,1,1.19-1.2,3.13,3.13,0,0,1,1.55-.44,3.57,3.57,0,0,1,1.72.43,3.61,3.61,0,0,1,1,.77l.12,0a9,9,0,0,1,1.51.6,10.59,10.59,0,0,1,1.23.83,10.17,10.17,0,0,1,3.4,5.69,12.1,12.1,0,0,1-.23,6.15,11.23,11.23,0,0,1-3.83,5.54,9,9,0,0,1-5.42,2Z"/><path d="M1242.23,611.7a11.16,11.16,0,0,1-1.13-.93,2.92,2.92,0,0,1-.69-1.34,3.16,3.16,0,0,1,.48-2.67c1.44-1.88,4-2,6.14-2.37h0a100.86,100.86,0,0,1,13.66-1.4l8.85-.54c2.93-.2,5.87-.24,8.81-.36l3.91-.15c2.61-.1,5.23-.37,7.79.25a4.09,4.09,0,1,1-4,6.84l-.17-.17-.38-.17-.7-.17a13.94,13.94,0,0,0-1.81-.3l-1.77-.14-2.76-.22c-2-.06-3.93-.07-5.9-.11-1.3,0-2.59-.06-3.89,0-5.07.14-10.15.24-15.21.57l.32,0a68.86,68.86,0,0,0-7.84,1,2.38,2.38,0,0,1-.42,2,2.36,2.36,0,0,1-1.87.91A2.24,2.24,0,0,1,1242.23,611.7Z"/><path d="M1319.74,619.66a3.12,3.12,0,0,1,2.66-3.49c6.87-.53,13.77-.77,20.65-1.21l-.45,0c1.62-.17,3.23-.37,4.85-.57a3.82,3.82,0,1,1,0,7.57c-1.52-.19-3-.34-4.55-.46-1.17,0-2.35-.11-3.52-.09l-4.57.07c-2.32,0-4.63.22-6.94.35-1.54.15-3.09.27-4.63.45l-.37,0A3.13,3.13,0,0,1,1319.74,619.66Z"/><path d="M1316.4,762.19c-12.33-.91-24.72-2.87-36.14-7.81a62.76,62.76,0,0,1-10.57-6,67,67,0,0,1-9.62-8.18q-2.21-2.22-4.24-4.62c-1.43-1.68-2.76-3.47-4.09-5.24s-2.53-3.51-3.75-5.3c-.65-1-1.36-1.89-2-2.83s-1.18-1.66-1.83-2.45c-.33-.35-.66-.69-1-1a1.42,1.42,0,0,1-1.22.73,1.34,1.34,0,0,1-1.35-1.35c0-.25,0-.49,0-.73a2.19,2.19,0,0,1,.73-2.1,2.15,2.15,0,0,1,1.33-.58,5,5,0,0,1,2.07.47,14.62,14.62,0,0,1,4.42,3.4c1.89,1.89,3.59,3.94,5.33,6s3.43,3.85,5.19,5.73,3.71,3.67,5.66,5.4a64.25,64.25,0,0,0,6,4.69,74.69,74.69,0,0,0,7.17,4.21,69.41,69.41,0,0,0,6.9,2.9,94.14,94.14,0,0,0,10.69,2.87,126.6,126.6,0,0,0,15.76,2h-.09l.38,0,.19,0c4.94.31,9.86.47,14.81.46,5.11,0,10.24-.13,15.34-.45a116.56,116.56,0,0,0,13.93-1.89,88.08,88.08,0,0,0,10.1-2.74,91.71,91.71,0,0,0,8.9-3.78,87.4,87.4,0,0,0,8.37-5,107.41,107.41,0,0,0,8.73-6.93c.61-.54,1.22-1.09,1.79-1.69l.06-.07c.14-.24.28-.49.4-.73l.72-1.49s0,0,0,.05l.06-.12.3-.59-.17.33a.41.41,0,0,0,.05-.09,6.79,6.79,0,0,1,3.45-3.45,6.49,6.49,0,0,1,8.51,8.5,18.44,18.44,0,0,1-4.56,6.54c-1.3,1.14-2.72,2.15-4.1,3.2a131.13,131.13,0,0,1-10.78,7.49,84,84,0,0,1-16.31,7.67,93.82,93.82,0,0,1-17.83,4.14,134,134,0,0,1-18.57,1.1C1329.1,762.83,1322.75,762.65,1316.4,762.19Z"/></svg>