<svg id="Layer_1" data-name="Layer 1" xmlns="http://www.w3.org/2000/svg" viewBox="0 0 1920 1080"><defs><style>.cls-1{fill:blue;opacity:0.2;}.cls-2{fill:#fff;}.cls-3{font-size:60px;font-family:VarelaRound-Regular, Varela Round;}.cls-4{letter-spacing:-0.01em;}.cls-5{letter-spacing:-0.02em;}.cls-6{letter-spacing:-0.01em;}.cls-7{letter-spacing:-0.01em;}.cls-8{letter-spacing:0em;}.cls-9{letter-spacing:0em;}.cls-10{letter-spacing:-0.01em;}.cls-11{letter-spacing:-0.04em;}.cls-12{letter-spacing:-0.02em;}.cls-13{letter-spacing:0em;}.cls-14{letter-spacing:-0.01em;}.cls-15{letter-spacing:-0.01em;}.cls-16{letter-spacing:-0.04em;}.cls-17{fill:#ffdc00;}</style></defs><circle class="cls-1" cx="1505.5" cy="362.5" r="327.5"/><path class="cls-2" d="M1739.72,395c0,23.17,43.85,90.84.75,107.37-26.8,10.28-103.44,22.47-141.42,28.44-39.83,6.25-153.88,12-201.28,12-50.88,0-148.1,2.65-190-4.49-38-6.46-63-53.14-68.09-80.81-11.22-60.61-2.72-73.07,14.22-86.8,43.4-35.16,62.1-20.2,104-17.21,25.92,1.85,29.13-33.09,57.62-55.37,41.15-32.17,24.69-122,158.62-122,49.23,0,76.52,31.81,113,51.63,34.42,18.71,29.27,83.92,53.87,92.78C1687.65,337.34,1739.72,370.73,1739.72,395Z"/><path d="M1314.87,544.86c-6.36-.06-12.72-.34-19.06-.6q-10.95-.45-21.91-.72l-9.75-.26c-3.29-.09-6.6-.22-9.88-.46s-6.72-.46-10.08-.78c-3.64-.34-7.27-.68-10.91-1s-7-.66-10.58-1c-2.92-.26-5.86-.48-8.78-.79l-6.24-.68c-1.58-.18-3.14-.46-4.71-.7-2.45-.37-4.86-.81-7.29-1.35a80.56,80.56,0,0,1-10.83-3.32l-5.34-2c-1.73-.64-3.42-1.41-5.12-2.12-1.24-.51-2.45-1.06-3.67-1.62-1.66-.76-3.33-1.49-5-2.34s-3.56-1.84-5.28-2.85a66.57,66.57,0,0,1-9.45-6.68,53.68,53.68,0,0,1-7.73-7.64c-1.14-1.44-2.22-2.89-3.29-4.39s-2-3-3-4.54a85.31,85.31,0,0,1-5-9.23c-.36-.75-.63-1.55-.94-2.32-.23-.57-.44-1.14-.65-1.73-.69-2-1.37-4-2-6-1-3.29-1.93-6.6-2.79-9.92-.41-1.56-.75-3.13-1.1-4.71-.21-1-.47-1.93-.62-2.9s-.28-1.94-.43-2.9a86.69,86.69,0,0,1-.79-10.43c-.1-3.23-.1-6.47.07-9.69.12-2.28.22-4.56.42-6.83a78.43,78.43,0,0,1,2.53-14.24,86.78,86.78,0,0,1,4.88-12.92c.92-2,2-4,3-6,.68-1.33,1.45-2.6,2.2-3.89s1.63-2.77,2.49-4.13c1-1.53,1.91-3.1,3-4.59l3.52-5c.89-1.26,1.89-2.44,2.83-3.65s1.8-2.27,2.76-3.37c1.26-1.47,2.53-2.93,3.79-4.39s2.71-2.87,4.08-4.28c.92-.94,1.81-1.89,2.79-2.77q2.36-2.1,4.7-4.21c1.36-1.21,2.86-2.28,4.31-3.39s2.75-2,4.17-2.95c1.26-.85,2.5-1.74,3.82-2.51,1.75-1,3.49-2.12,5.31-3,2.47-1.23,4.91-2.47,7.47-3.51a58.87,58.87,0,0,1,15.52-3.81,60,60,0,0,1,20.28,1.62l2.82.67a53,53,0,0,1,7.14,2.39,56.09,56.09,0,0,1,13.71,8c2.48,1.91,4.73,4.1,7,6.23l4.34,4.1h0a84.55,84.55,0,0,0,6.78,5.48l.24.13a.67.67,0,0,1,.07,1.33,1,1,0,0,1-.42,0,20.86,20.86,0,0,1-2.63-1.21,57.86,57.86,0,0,1-5.36-3.2c-1.52-1-2.95-2.1-4.42-3.16s-3.07-2.19-4.6-3.28c-1.84-1.2-3.7-2.34-5.66-3.36a53.08,53.08,0,0,0-5.54-2.38c-1.93-.64-3.87-1.18-5.86-1.63s-4.23-.72-6.37-.94c-1.43-.08-2.87-.23-4.3-.22-2.6,0-5.19,0-7.78.13a60.36,60.36,0,0,0-6.28.86c-2.17.5-4.29,1.11-6.39,1.81s-4.4,1.75-6.54,2.79c-2.33,1.22-4.58,2.58-6.84,3.92-.68.4-1.32.88-2,1.31l-2.25,1.5-4.71,3.5c-.87.65-1.67,1.4-2.5,2.09l-2.07,1.71-5,4.75c-.86.83-1.64,1.78-2.45,2.66l-2.51,2.7c-2.08,2.51-4.18,5-6.14,7.61-1,1.31-2,2.6-2.94,4l-2.76,4.06q-1.63,2.64-3.26,5.29c-1.1,1.77-2.07,3.64-3.09,5.45-.62,1.23-1.23,2.46-1.84,3.69a80.23,80.23,0,0,0-3.62,8.55,70.18,70.18,0,0,0-2.1,7.54c-.55,2.95-.91,5.92-1.17,8.91-.14,2.65-.29,5.29-.3,8,0,1.27-.06,2.56,0,3.84l.15,4.57c.11,1.28.21,2.56.31,3.84.07.77.24,1.56.36,2.32s.21,1.41.31,2.11c.3,1.34.59,2.68.89,4,.36,1.67.86,3.32,1.29,5,.78,3,1.72,5.93,2.63,8.87.46,1.32.92,2.63,1.45,3.92s1.18,2.72,1.82,4.06,1.37,2.51,2.11,3.73,1.58,2.53,2.39,3.78l1.76,2.47c.6.85,1.29,1.66,2,2.49.51.56,1,1.12,1.54,1.69s1.31,1.25,2,1.86c1.84,1.56,3.71,3.07,5.69,4.47,1.63,1.08,3.3,2.11,5,3l3.32,1.75c3,1.35,5.9,2.67,8.89,3.91s6,2.37,9,3.5c1.61.54,3.22,1.07,4.86,1.54s3.06.78,4.6,1.1c4.86.94,9.79,1.45,14.71,2,4.5.49,9,.81,13.54,1.22,4.2.38,8.4.81,12.6,1.21,4.49.42,9,.77,13.51,1.1,6.6.3,13.2.51,19.81.67,7.05.17,14.1.43,21.15.72,13,.53,26.06.86,39.08.46,7-.22,14-.45,21-.58,7.24-.13,14.49-.26,21.73-.45,13.73-.34,27.45-.95,41.16-1.72,11.18-.63,22.35-1.36,33.53-2.1q10.62-.8,21.25-1.55c6.25-.45,12.51-.88,18.77-1.18l12.08-.58c3.63-.17,7.28-.25,10.91-.37,6.47-.21,12.93-.4,19.39-.71l6.77-.33c13.54-.93,27.07-2,40.6-3.06,13-1,26-1.81,39-2.79s25.78-2,38.65-3.32c6.24-.64,12.48-1.38,18.7-2.15,3.2-.4,6.39-.84,9.59-1.28,2.85-.39,5.69-.92,8.52-1.39l6.44-1.34c1.38-.29,2.75-.72,4.12-1.08,1.71-.46,3.39-.94,5.07-1.49,2.16-.79,4.26-1.67,6.33-2.67,1.39-.74,2.76-1.52,4.1-2.37,1-.69,1.91-1.42,2.83-2.18s1.65-1.58,2.43-2.42a72.8,72.8,0,0,0,4.51-5.85c1.9-2.87,3.62-5.84,5.37-8.8.48-.82.87-1.69,1.3-2.54s1-2,1.51-3c1.06-2.31,2-4.64,2.92-7a103.86,103.86,0,0,0,3-11c.47-2.44.8-4.9,1.17-7.36.26-1.75.36-3.52.51-5.28.1-2.66.07-5.3-.08-8-.26-3.07-.74-6.11-1.17-9.15-.47-2.16-.92-4.31-1.39-6.46-.22-1-.6-2-.89-3l-1.15-3.88q-1.1-3-2.21-5.94c-.3-.82-.71-1.61-1.06-2.4-.46-1.05-.93-2.09-1.39-3.14l-2.18-4.14c-.72-1.36-1.54-2.67-2.34-4s-1.7-2.84-2.63-4.22l-2.7-4-4.05-5.32c-.55-.72-1.17-1.38-1.75-2.06l-2.08-2.45c-2.17-2.33-4.33-4.65-6.57-6.91s-4.41-4.29-6.65-6.39c-2.23-1.87-4.44-3.74-6.74-5.51-1.07-.82-2.13-1.67-3.24-2.45l-3.93-2.74c-2.71-1.68-5.39-3.37-8.22-4.85-1.7-.81-3.42-1.53-5.19-2.19a63.37,63.37,0,0,0-6.9-1.88c-2.2-.41-4.41-.67-6.63-1-1.35-.17-2.72-.25-4.09-.34-2.07-.09-4.13-.19-6.19-.21-2.3,0-4.59,0-6.89.11-1.92.13-3.84.28-5.75.48-2.14.21-4.27.47-6.4.74s-4.46.51-6.67.85c-1.08.17-2.17.29-3.24.51L1626,341c-2.47.66-4.93,1.35-7.38,2.09l.35-.12c-.85.29-1.73.57-2.55.93l-3.36,1.46-3,1.53c-1.43.72-2.8,1.57-4.19,2.35-2.68,1.5-5.31,3.09-8,4.62-5.5,3.19-10.94,6.47-16.29,9.92a7.93,7.93,0,0,1-6.22.81,8.06,8.06,0,0,1-4.25-12.72,9.19,9.19,0,0,1,2.31-2c5.43-3.64,11-7.05,16.61-10.36,6-3.53,11.93-7.21,18.3-10a84,84,0,0,1,20.94-5.77c3.2-.49,6.44-.84,9.66-1.23,3.43-.41,6.86-.72,10.31-1s6.91-.22,10.37-.19c1.84,0,3.72.12,5.56.27,1.59.12,3.21.17,4.8.38l5,.66a60,60,0,0,1,6.24,1.28,66.34,66.34,0,0,1,7.29,2.31,55.59,55.59,0,0,1,5.91,2.62c1.37.7,2.76,1.41,4.07,2.23l4.94,3.06c1.74,1.08,3.39,2.34,5.07,3.52,1.4,1,2.73,2,4.08,3.07,1.13.87,2.23,1.75,3.32,2.67,1.47,1.24,3,2.44,4.41,3.76l4.25,4c1.29,1.21,2.5,2.51,3.75,3.77,1,1,2,2,2.92,3.06,1.27,1.37,2.57,2.72,3.78,4.14l3.76,4.44c1.17,1.37,2.2,2.88,3.3,4.32.87,1.15,1.68,2.35,2.49,3.55,1,1.49,2.09,2.95,3,4.49l3,5c.8,1.31,1.49,2.66,2.2,4s1.56,2.85,2.22,4.33c.77,1.74,1.54,3.49,2.32,5.23.25.56.43,1.16.64,1.74l1.2,3.23c.57,1.52,1.09,3.05,1.55,4.61l1.56,5.32c.17.57.26,1.18.38,1.75l.84,3.92c.29,1.39.58,2.77.78,4.19.27,2,.55,3.92.82,5.87.17,1.19.22,2.41.29,3.6s.14,2.49.18,3.73a56,56,0,0,1-.17,6.48l-.48,5.37c-.06.68-.21,1.36-.31,2l-.51,3.39a92.92,92.92,0,0,1-2.36,10.68,90.35,90.35,0,0,1-4.66,12.94c-1,2.2-2.14,4.33-3.23,6.47a104.87,104.87,0,0,1-5.61,9.62,74.36,74.36,0,0,1-7.66,10.17,47,47,0,0,1-11.2,8.9,62.78,62.78,0,0,1-11.49,5.11c-2.37.79-4.75,1.43-7.17,2.07-3.23.85-6.49,1.49-9.76,2.17-1.76.36-3.53.63-5.3.92-1.48.25-3,.51-4.45.71-3.58.49-7.17,1-10.76,1.42-13.68,1.7-27.39,3-41.12,4.17-13.44,1.11-26.9,1.93-40.35,2.92q-21.15,1.57-42.29,3.27-9.9.76-19.81,1.24c-6.6.33-13.21.53-19.82.75q-10.47.35-20.94.83c-5.87.28-11.73.67-17.59,1-13.48,1-27,2-40.45,2.81s-26.71,1.69-40.08,2.19c-7,.26-14,.52-21,.7-7.29.18-14.57.3-21.86.44-6.86.12-13.72.37-20.58.58-3,.1-6.08.13-9.12.13C1321.92,544.93,1318.4,544.88,1314.87,544.86Z"/><path d="M1640,327.79a1.16,1.16,0,0,1-1.13-1.43s0,0,0,0,0-.11,0-.17,0-.23,0-.34-.06-.46-.11-.69c-.43-1.93-.93-3.84-1.48-5.75s-1.26-4-2-6l-.93-2.26c-.31-.76-.58-1.56-.94-2.3-.78-1.61-1.55-3.22-2.33-4.82-1.64-3-3.29-6-5-8.9s-3.54-5.69-5.36-8.52-3.87-5.48-5.91-8.14-4.2-5.39-6.34-8.06l-6.83-8.46c-2.11-2.61-4.27-5.17-6.44-7.73l-3.53-3.82c-1-1.08-2-2.09-3.1-3.12s-2.18-2.17-3.32-3.19l-3.92-3.55c-2.14-1.77-4.26-3.57-6.49-5.24-1.2-.9-2.36-1.85-3.61-2.69l-4.45-3c-3.75-2.29-7.49-4.6-11.35-6.7q-6.07-3.3-12.2-6.48c-2.55-1.26-5.1-2.53-7.68-3.74q-5-2.32-10-4.63l-9.52-4.34c-2.79-1.27-5.68-2.36-8.51-3.53l-5.9-2c-1.74-.6-3.51-1-5.29-1.52s-3.63-1-5.48-1.39l-6.1-1.26c-3.91-.67-7.81-1.33-11.74-1.86-1.78-.24-3.55-.5-5.34-.67l-6.64-.64a173.6,173.6,0,0,0-19.22-.33,80.31,80.31,0,0,0-8.75,1.18,76.2,76.2,0,0,0-8,2.18c-2.94,1.07-5.78,2.34-8.65,3.58l-4.39,2.24c-1.64.84-3.21,1.84-4.8,2.76-3,1.72-5.83,3.62-8.71,5.48-1.63,1.11-3.25,2.23-4.83,3.42s-3.08,2.45-4.59,3.72c-1.76,1.65-3.51,3.29-5.21,5s-3.55,3.66-5.24,5.56a54.05,54.05,0,0,0-3.43,4.4c-.94,1.44-1.8,2.94-2.61,4.46-.52,1.06-1,2.13-1.55,3.2s-1,2.32-1.41,3.48a65.88,65.88,0,0,0-2,6.6c-.13.82-.24,1.65-.33,2.48a7.88,7.88,0,0,1-2.22,5.32,7.57,7.57,0,0,1-12.92-5.35,28.71,28.71,0,0,1,1-7.49c.59-2.2,1.33-4.35,2.08-6.51a44.45,44.45,0,0,1,2-5l1.56-3.24a58.12,58.12,0,0,1,4.41-7.45,80.62,80.62,0,0,1,7.42-8.88c1.38-1.51,2.82-3,4.25-4.46s2.9-2.85,4.42-4.18,3.17-2.78,4.83-4.08c3.34-2.6,6.81-5,10.35-7.34,3.37-2.2,6.74-4.46,10.3-6.35,2-1.06,4-2.18,6-3.1,2.8-1.25,5.57-2.51,8.47-3.55a77.84,77.84,0,0,1,17.5-4.08,87.71,87.71,0,0,1,11.91-.53c1.94,0,3.89,0,5.83.12l7.24.43c2.41.14,4.81.44,7.21.69,1.74.17,3.45.4,5.17.64s3.71.48,5.55.81L1487,178c2.36.41,4.69,1,7,1.5,1.67.36,3.29.77,4.93,1.23,2.25.63,4.54,1.17,6.74,1.95l6.95,2.47c1.66.59,3.25,1.32,4.86,2s3.33,1.39,5,2.17q6.22,3,12.42,5.94c3.5,1.69,7,3.37,10.43,5.17,3.92,2,7.8,4.15,11.67,6.28,3.64,2,7.17,4.22,10.7,6.41A124.28,124.28,0,0,1,1587.3,228a121.92,121.92,0,0,1,8.72,8.89c1.35,1.55,2.79,3,4,4.67l4.1,5.28c.54.68,1,1.44,1.51,2.15l2.34,3.34c1.26,1.8,2.44,3.66,3.65,5.49q3.15,4.77,6.18,9.61c2.07,3.32,4.16,6.64,6,10.08,1.06,2,2.18,3.91,3.15,5.92s2,4,3,6.08c1.83,3.76,3.43,7.63,5.06,11.48a106,106,0,0,1,3.79,11.24c.4,1.37.67,2.8,1,4.19s.56,2.64.79,4a45.19,45.19,0,0,1,.73,4.78c.07.94.05,2.65-1.29,2.65Z"/><path d="M1259.94,414.68a22.66,22.66,0,0,1-4.32-4.64,23.51,23.51,0,0,1-2.56-6,47.37,47.37,0,0,1-1.41-5.09,43.83,43.83,0,0,1-.85-9.07,94.58,94.58,0,0,1,.91-11.27l.39-3.08c.11-.87.33-1.74.5-2.59.4-2.09.74-4.19,1.3-6.24.61-2.22,1.12-4.5,1.9-6.68s1.55-4.33,2.33-6.49c.26-.72.62-1.41.93-2.1l1.79-4c.85-1.91,1.89-3.73,2.87-5.58.44-.83.89-1.66,1.33-2.5s.89-1.44,1.33-2.15c1.12-1.81,2.2-3.66,3.42-5.39s2.59-3.68,3.89-5.51c.52-.75,1.12-1.44,1.68-2.16l2.47-3.16c1.27-1.63,2.64-3.19,4-4.78,1.17-1.4,2.37-2.77,3.57-4.15s2.51-2.94,3.83-4.35l4.85-5.2c.48-.52,1-1,1.52-1.47l3.23-3.14c1.3-1.27,2.65-2.46,4-3.67s2.94-2.65,4.45-3.94q5.09-4.35,10.23-8.64c3.19-2.66,6.5-5.16,9.83-7.64,1.61-1.2,3.28-2.3,4.94-3.43.82-.55,1.62-1.16,2.47-1.67l2.7-1.63,2.93-1.77c.74-.45,1.54-.83,2.31-1.25,1.89-1,3.76-2,5.69-2.89,3.87-1.82,7.81-3.46,11.77-5.07,1.86-.75,3.74-1.42,5.61-2.11a61.86,61.86,0,0,1,6.07-1.91,38.94,38.94,0,0,1,7.66-1.29,29.31,29.31,0,0,1,4.19.08,21.69,21.69,0,0,1,4.28.95,26.83,26.83,0,0,1,4,1.66,25.72,25.72,0,0,1,3.61,2.16,20.61,20.61,0,0,1,3.08,2.59,4.51,4.51,0,0,1,1.19,1.9,1.28,1.28,0,0,1-.87,1.57,1.25,1.25,0,0,1-1.53-.87l0,0a.08.08,0,0,0,0-.05c-.08-.13-.17-.25-.25-.37l.1.12a7,7,0,0,0-.75-.79c-.47-.4-1-.77-1.45-1.12a26.63,26.63,0,0,0-2.58-1.5,29.49,29.49,0,0,0-2.89-1.23c-.79-.26-1.59-.49-2.41-.69a26,26,0,0,0-3-.43c-.66,0-1.3,0-2,0l.27,0a33.19,33.19,0,0,0-3.72.48,40.18,40.18,0,0,0-4.74,1.36c-1.93.7-3.8,1.54-5.65,2.41s-3.57,1.79-5.3,2.77c-2.18,1.23-4.36,2.46-6.51,3.73s-4.06,2.45-6.08,3.69c-1.72,1.06-3.38,2.23-5,3.36q-2.25,1.62-4.48,3.26c-1.24.9-2.43,1.87-3.62,2.83s-2.28,1.78-3.37,2.72l-4.07,3.52q-7,6.46-14,13c-2.39,2.26-4.74,4.57-7.1,6.87-.87.85-1.69,1.75-2.53,2.62-1.07,1.11-2.19,2.19-3.22,3.33l-5.2,5.91q-4.79,5.81-9.49,11.68c-2.87,3.59-5.48,7.38-8.1,11.16l-3.84,6.26c-.62,1-1.12,2.11-1.67,3.16l-1.56,2.95c-1,2.18-1.95,4.37-2.92,6.56-.45,1-.77,2.14-1.15,3.2s-.69,1.92-1,2.87l-1.8,6.5c-.18,1-.37,1.91-.55,2.87s-.51,2.19-.65,3.3c-.39,3-.82,6.06-1.06,9.11-.11,1.94-.15,3.89-.07,5.83.1,1.18.26,2.34.47,3.5s.52,2,.82,3a44.07,44.07,0,0,0,1.58,4.14c0,.09.1.18.16.27.27.37.54.72.83,1.07s.5.55.76.82a6.47,6.47,0,0,1-3.7,11,6.25,6.25,0,0,1-.87.06A6.15,6.15,0,0,1,1259.94,414.68Z"/><circle class="cls-1" cx="356.5" cy="612.5" r="327.5"/><text class="cls-3" transform="translate(130.45 116.49)"><tspan class="cls-4">I</tspan><tspan x="16.44" y="0">t</tspan><tspan class="cls-5" x="39.36" y="0">’</tspan><tspan x="52.68" y="0">s getting l</tspan><tspan class="cls-6" x="334.61" y="0">a</tspan><tspan class="cls-7" x="367.61" y="0">t</tspan><tspan class="cls-8" x="390.12" y="0">e, </tspan><tspan x="0" y="72">I </tspan><tspan class="cls-9" x="32.7" y="72">m</tspan><tspan x="87.54" y="72">u</tspan><tspan class="cls-9" x="124.08" y="72">s</tspan><tspan class="cls-8" x="152.64" y="72">t g</tspan><tspan class="cls-10" x="229.02" y="72">o</tspan><tspan x="264.9" y="72">.</tspan></text><text class="cls-3" transform="translate(1123.45 827.49)"><tspan class="cls-11">W</tspan><tspan x="58.26" y="0">ait, the</tspan><tspan class="cls-12" x="254.46" y="0">r</tspan><tspan class="cls-13" x="276.54" y="0">e a</tspan><tspan class="cls-12" x="359.81" y="0">r</tspan><tspan x="381.89" y="0">e so ma</tspan><tspan class="cls-14" x="601.13" y="0">n</tspan><tspan x="637.13" y="0">y </tspan><tspan x="0" y="72">an</tspan><tspan class="cls-9" x="70.26" y="72">s</tspan><tspan class="cls-15" x="98.82" y="72">w</tspan><tspan x="145.92" y="72">ers I </tspan><tspan class="cls-9" x="279.96" y="72">m</tspan><tspan x="334.8" y="72">u</tspan><tspan class="cls-9" x="371.34" y="72">s</tspan><tspan class="cls-8" x="399.9" y="72">t kn</tspan><tspan class="cls-7" x="507.65" y="72">o</tspan><tspan class="cls-16" x="543.71" y="72">w</tspan><tspan x="588.83" y="72">. </tspan></text><path class="cls-17" d="M308.79,898.88c-14.06-2.14-28.45-6.9-39.53-16.12A83.86,83.86,0,0,1,258,871.51a85.53,85.53,0,0,1-5.77-8.23A98.74,98.74,0,0,1,245,849.42c-2.33-5.07-4.11-10.41-6-15.66-1.58-4.4-3.12-8.81-4.74-13.19-.92-2.48-2-4.89-3.13-7.27-2.43-4.18-5-8.28-7.59-12.34-1-1.4-2-2.8-3-4.16-2-2.66-4-5.49-6.15-8L211,785c-1.8-2-3.82-3.82-5.75-5.7-2.34-2-4.7-3.91-7.15-5.77-3.82-2.89-7.74-5.63-11.65-8.39-7.43-5.23-14.71-10.69-21.76-16.42-4.08-3.32-8.2-6.63-11.95-10.33A72.28,72.28,0,0,1,133.5,704a78.57,78.57,0,0,1-2.26-16.12c-.21-5.55.86-10.65,2-16a61.11,61.11,0,0,1,1.68-5.91c1.31-4.08,2.71-8.18,4.19-12.2,1.66-4.49,3.38-8.93,5.28-13.32a71.14,71.14,0,0,1,5.88-11.2,78,78,0,0,1,5.91-8.23c1.68-1.93,3.35-3.86,5.08-5.72a79.86,79.86,0,0,1,6.23-5.65,56,56,0,0,1,11.25-7.53,106.61,106.61,0,0,1,11.31-5.28q6-2.18,12.06-4.12c-1.36-4.89-2.33-10-3.25-14.89a115.09,115.09,0,0,1-2-18.36,71.17,71.17,0,0,1,2.45-19.26,87.42,87.42,0,0,1,7.33-18c6-11.69,14.58-21.7,24.21-30.49,8.14-7.43,16.78-14.25,25.49-21,4.45-3.46,9.19-6.65,13.95-9.66,3.08-1.95,6.15-3.86,9.36-5.6a158.53,158.53,0,0,1,24.91-10.84,160.29,160.29,0,0,1,22.19-5.42A169.68,169.68,0,0,1,350,436.81a174.4,174.4,0,0,1,31.14,1.79c5,.66,10.07,1.7,15,2.84,2.72.63,5.45,1.27,8.15,2q1.69-2.65,3.64-5.16a72.13,72.13,0,0,1,20.63-18.15,75.13,75.13,0,0,1,26.53-9.16c4.51-.73,9-1.55,13.55-1.87,7.6-.52,15.13-1.06,22.74-.89,12.13.29,24.38.49,36.36,2.52,12.15,2.07,24.26,5.21,35.47,10.43a126.68,126.68,0,0,1,15.91,8.43c3.72,2.41,7.45,4.88,11,7.52,3.77,2.78,7.31,6.16,10.76,9.21a65,65,0,0,1,5,4.87,141,141,0,0,1,10.42,12.32,125,125,0,0,1,8.91,13.66c2,3.71,3.91,7.47,5.6,11.33s2.87,7.94,4.22,11.91c.33,1,.59,2,.84,3,1,4.12,1.85,8.29,2.52,12.48a91.82,91.82,0,0,1,1.07,16.4A119,119,0,0,1,636,557.84a114.16,114.16,0,0,1-5.26,15.58l0,.05c1.23,1.45,2.44,2.91,3.66,4.37,4.06,4.89,8.14,9.83,11.9,15a140,140,0,0,1,17.23,30A135.64,135.64,0,0,1,669,639a106.59,106.59,0,0,1,3.4,18.31c.34,4.27.76,8.71.71,13a113,113,0,0,1-.92,12.86,93,93,0,0,1-3.95,17.72,144.1,144.1,0,0,1-6,15.78c-1.68,3.59-3.49,7.12-5.34,10.62-2.44,4.61-5,9.15-7.56,13.68-2,3.51-4,7-6.25,10.43-5.37,8.25-10.63,16.6-16.73,24.34-9.54,12.09-20.62,22.81-31.58,33.58-8.72,8.56-17.57,16.95-26.84,24.9a228.22,228.22,0,0,1-22,16.13,212.73,212.73,0,0,1-23.81,13.25,163.22,163.22,0,0,1-18.5,7.82c-8.74,3.1-17.49,6.17-26.57,8.13-3.89.84-7.93,1.76-11.92,2.31s-8.15.73-12.2,1c-8.38.53-16.47-1-24.6-2.75a67.41,67.41,0,0,1-11.06-3.78,61.71,61.71,0,0,1-7.93-4c-4.33,3-8.79,5.8-13.32,8.43s-9.12,4.88-13.8,7.05A161.35,161.35,0,0,1,367,893.55a124,124,0,0,1-25.47,5.72,127.56,127.56,0,0,1-15.15.92A117.71,117.71,0,0,1,308.79,898.88Z"/><path d="M467.18,478.06l.24.41,0,0a3,3,0,0,1-.3-.59ZM458.91,816.9c-3.45.37-6.91.63-10.38.81-4.09.21-8.17.49-12.26.54-8.07.12-16.15.28-24.22.14-4.07-.07-8.15,0-12.22-.26-5.93-.33-11.87-.59-17.78-1.24a149.62,149.62,0,0,1-17.35-3.07c-2.19-.51-4.34-1.17-6.5-1.76-1.6-.44-3.22-.83-4.8-1.34L346,808.36c-4.24-1.36-8.44-2.84-12.66-4.29-3.65-1.25-7.23-2.7-10.83-4.08-2-.76-4-1.71-5.89-2.63q-4.25-2-8.29-4.43c-2.47-1.48-4.88-3.08-7.23-4.74-1.75-1.24-3.52-2.51-5.18-3.87L290,779.47c-1.3-1.07-2.61-2.13-3.84-3.28l-5.86-5.5c-2.9-2.72-5.62-5.63-8.26-8.61a136.12,136.12,0,0,1-19.61-29,108,108,0,0,1-6.56-16.45c-.66-2.11-1.16-4.27-1.74-6.4-.48-1.74-.92-3.47-1.27-5.24-.49-2.47-1-4.93-1.46-7.4-.36-1.83-.53-3.71-.79-5.55-.23-1.63-.47-3.26-.64-4.89l-.69-7c-.25-2.44-.32-4.9-.47-7.35-.1-1.65-.16-3.29-.2-5,0-2-.16-3.94-.15-5.9,0-2.45,0-4.91,0-7.36,0-1.85.16-3.72.25-5.57s.2-3.86.4-5.78c.24-2.23.46-4.46.7-6.69.09-.79.28-1.59.41-2.38L241,630c.35-2,.83-4.07,1.28-6.11.37-1.71.76-3.41,1.19-5.12.5-2,.93-3.94,1.51-5.88q1-3.43,2-6.85c.65-2.15,1.54-4.23,2.33-6.33.7-1.85,1.63-3.63,2.46-5.42.92-2,1.95-3.92,2.95-5.87,1.85-3.64,3.87-7.19,5.86-10.75,1-1.73,2-3.4,3-5.09.82-1.37,1.61-2.76,2.47-4.1,2.32-3.66,4.59-7.36,7.06-10.93l4.23-6.12c1.09-1.58,2.32-3.07,3.49-4.59,2.56-3.36,5.22-6.62,7.89-9.9,2.25-2.77,4.52-5.53,6.84-8.24,2.66-3.12,5.28-6.27,8-9.32s5.67-6.32,8.62-9.38l2.86-2.94c.43-.45.84-.92,1.29-1.34l5.37-5c1.37-1.27,2.78-2.47,4.21-3.66s3.05-2.65,4.65-3.85l6-4.5c1.58-1.19,3.23-2.26,4.86-3.36,1.46-1,2.89-2,4.39-2.95l6.19-3.8c2.11-1.29,4.35-2.39,6.55-3.5,2.61-1.31,5.3-2.46,8-3.5,3.53-1.35,7.15-2.4,10.79-3.4s7.46-2,11.23-2.86l4-.85c.95-.21,1.93-.46,2.89-.61l6.63-1c.68-.1,1.38-.1,2.07-.15l4.23-.3c2.16-.15,4.33-.11,6.49-.12,4.12,0,8.23.36,12.33.73s7.95.91,11.91,1.48c1.83.26,3.66.6,5.48.91,1.08.18,2.15.44,3.22.66.84.17,1.67.33,2.49.55,2,.54,4,1.09,6,1.75s3.74,1.35,5.6,2.09c.91.37,1.79.86,2.68,1.29s1.72.86,2.56,1.32a22.77,22.77,0,0,1,2.56,1.53,3.8,3.8,0,0,1,1.62,1.94,2.31,2.31,0,0,1-1.88,2.87,2.14,2.14,0,0,1-1.91-.67c-.38-.15-.77-.28-1.16-.41-1.61-.54-3.22-1.07-4.86-1.53s-3.34-.84-5-1.22l-4-.62c-1.36-.21-2.76-.26-4.13-.38-5.07-.25-10.15-.41-15.23-.41-3,0-6.09,0-9.13.06-2.5,0-5,.15-7.5.26l-5.82.48c-.74.06-1.48.17-2.21.28l-1.15.17-3.3.45-5.92,1.25c-1.2.26-2.39.64-3.58,1s-2.18.55-3.26.86c-5.1,1.51-10.21,3-15.24,4.74A96.13,96.13,0,0,0,366,488.05q-4,2.1-7.88,4.54l-5.05,3.22-5.15,3.6c-1.6,1.12-3.13,2.33-4.68,3.52s-2.91,2.21-4.31,3.39l-5.35,4.53-5.38,5.06c-1.6,1.51-3.08,3.14-4.61,4.73-3.2,3.34-6.28,6.79-9.34,10.26-5,5.88-10,11.8-14.84,17.81-1.24,1.54-2.54,3-3.74,4.63l-4.37,5.76c-2.33,3.06-4.45,6.28-6.63,9.44q-2.54,4-5.09,8.06c-1.7,2.68-3.26,5.45-4.88,8.18-3,5-5.61,10.11-8.22,15.26l-2.38,5.1c-.39.85-.67,1.77-1,2.65s-.65,1.7-1,2.55c-1.07,3.48-2.1,7-3,10.48-.43,1.65-.89,3.3-1.26,5-.44,2-.88,3.93-1.33,5.9-.19,1.07-.37,2.14-.56,3.2-.22,1.25-.52,2.52-.66,3.78-.3,2.7-.58,5.41-.89,8.12-.28,5.13-.56,10.25-.49,15.39q.08,4.29.17,8.58c0,2.52.25,5,.41,7.57.23,2.34.44,4.69.66,7,.19,2,.51,4,.78,6,.25,1.81.48,3.61.83,5.4l1.29,6.53c1.15,4.21,2.22,8.43,3.62,12.56a101,101,0,0,0,4.64,10.81A132,132,0,0,0,274.25,740a135.79,135.79,0,0,0,9.34,11.9c2.7,3,5.5,5.84,8.43,8.58,1.87,1.74,3.75,3.47,5.61,5.22,5.16,4.25,10.26,8.53,15.81,12.27a99.53,99.53,0,0,0,9.6,5.54c7.93,3.83,16.28,6.67,24.59,9.54l5.68,1.82c1.54.49,3.07,1,4.63,1.47l6.95,1.89c2.61.71,5.21,1.34,7.85,1.89a154.6,154.6,0,0,0,16.58,2.24l11.74.63c1.89.1,3.8.06,5.7.09l6.72.1c4.28.07,8.58,0,12.86,0,4,0,8-.12,11.93-.18,1.79,0,3.59-.18,5.38-.28l6.75-.37a157.19,157.19,0,0,0,18.1-2.35,99.75,99.75,0,0,0,11.11-3.17c5.37-1.93,10.55-4.32,15.75-6.66,2.66-1.19,5.24-2.56,7.83-3.89l4.71-2.72c2.22-1.29,4.39-2.62,6.52-4.05a106.66,106.66,0,0,0,9.56-7.51,213.14,213.14,0,0,0,15.84-16.67c4.44-5.26,8.84-10.53,13-16,2.23-2.89,4.4-5.83,6.56-8.78,1.89-2.57,3.66-5.24,5.48-7.88s3.58-5.45,5.31-8.23c2.18-3.51,4.3-7,6.4-10.61,1.7-2.88,3.34-5.81,4.94-8.76,1.87-3.45,3.66-6.94,5.47-10.43q2.43-5,4.71-10c.8-1.78,1.47-3.62,2.2-5.43.62-1.54,1.14-3.14,1.68-4.72l1.68-5.47c.53-1.74,1-3.52,1.43-5.29.83-3.07,1.48-6.19,2.12-9.31.26-1.62.6-3.26.75-4.89s.31-3.41.47-5.11.16-3.46.25-5.19.13-3.65.1-5.46c0-2,0-3.95-.08-5.92s-.17-3.69-.26-5.53q-.32-4.19-.74-8.38c-.29-2.84-.78-5.65-1.29-8.46L599,591c-.19-.75-.48-1.49-.72-2.22s-.45-1.41-.68-2.11c-.47-1.26-.89-2.56-1.44-3.78-.65-1.41-1.29-2.83-1.93-4.24-1.62-3.06-3.23-6.12-5.11-9q-3-4.64-6.08-9.18-3-4.38-6.14-8.71c-2.05-2.84-4.25-5.58-6.42-8.33q-6.31-8-13-15.76c-1.35-1.43-2.68-2.86-4.09-4.22q-2.55-2.48-5.17-4.87c-3.11-2.87-6.27-5.7-9.44-8.5-1.83-1.57-3.67-3.11-5.57-4.6s-3.78-2.77-5.7-4.11c-2.14-1.33-4.26-2.68-6.45-3.92s-4.6-2.53-6.93-3.75l-2.11-.95c-.71-.32-1.42-.69-2.15-1l-4.62-1.72L501,488.8c-1.28-.38-2.61-.62-3.91-.92-3.26-.65-6.53-1.33-9.81-1.86a7.93,7.93,0,0,1-5.07-2.9,7.74,7.74,0,0,1,1.31-10.86,7.88,7.88,0,0,1,5.81-1.59c1.94.22,3.88.51,5.8.85,2.09.37,4.21.72,6.28,1.2l3.43.8c.9.21,1.78.53,2.67.8,2.23.67,4.4,1.45,6.58,2.26a103.12,103.12,0,0,1,11.52,5.4c3.45,1.8,6.73,3.92,10,6,1.84,1.16,3.6,2.49,5.38,3.74.76.53,1.46,1.14,2.18,1.71.89.7,1.79,1.4,2.65,2.14-.26-.21-.51-.43-.76-.65,6.35,5.48,12.67,11,18.67,16.91S575.07,524.4,580.34,531c4.45,5.59,8.75,11.31,12.74,17.24,2,3.06,4.16,6.09,6.11,9.22,2.06,3.3,4.19,6.6,5.94,10.08-.14-.29-.29-.58-.44-.87l.67,1.31,0,0,0,.08,0,.05h0c.34.6.63,1.22.94,1.84l.06.12v0c.09.16.17.32.25.48s.21.42.32.63c-.06-.13-.13-.25-.19-.37.09.17.17.34.26.5v0a0,0,0,0,0,0,0l0,0h0v0l0,0h0l0,.06h0c.89,1.8,1.65,3.66,2.44,5.5.37.86.63,1.78.94,2.66s.73,2,1,3c.6,2,1.23,4,1.71,6l.72,3.08c.31,1.34.47,2.72.69,4.07.63,3.9,1,7.88,1.23,11.82s.45,8,.46,12.08-.09,8.33-.31,12.5c-.13,2.25-.3,4.49-.52,6.74-.19,2.09-.5,4.13-.82,6.21s-.83,4.37-1.28,6.55c-.35,1.74-.77,3.49-1.22,5.21-1,3.84-1.95,7.71-3.22,11.47-1.37,4.05-2.7,8.12-4.39,12.05-1.6,3.7-3.21,7.39-5,11q-3.12,6.4-6.38,12.73c-1.77,3.44-3.65,6.83-5.53,10.22a271.55,271.55,0,0,1-27,40c-2.78,3.42-5.61,6.79-8.45,10.16-2.47,2.92-5,5.8-7.64,8.58L540,778.25c-2,2.13-4.23,4.1-6.43,6s-4.6,3.86-7,5.65a100.91,100.91,0,0,1-9.81,6.43c-2.17,1.24-4.3,2.57-6.53,3.69-3.42,1.7-6.82,3.44-10.31,5-2.2,1-4.39,2-6.61,2.92a130.1,130.1,0,0,1-16.94,5.9,102.17,102.17,0,0,1-12.43,2.41C462.26,816.52,460.58,816.72,458.91,816.9Z"/><path d="M382,839.91a7,7,0,0,1,1.43.23,3.42,3.42,0,0,1,2.54,3.33c-.05.9-.12,1.72-.24,2.62-.1.7-.22,1.4-.33,2.1l-.48,3.29c-.33,2.32-.65,4.63-1,6.95-.57,4.11-1.1,8.24-1.72,12.35-.65,4.33-1.36,8.67-1.89,13-.28,2.26-.62,4.53-.82,6.8-.21,2.49-.43,5-.64,7.45-.08,1.45-.17,2.89-.24,4.34s-.19,2.67-.22,4c0,1.69-.09,3.39-.13,5.08,0,1.29-.11,2.58-.1,3.87l.06,9.25c0,1.46.17,2.93.26,4.39s.18,3.1.28,4.65c.44,4.16,1.05,8.29,1.88,12.4a105.81,105.81,0,0,0,2.94,10.77,69.81,69.81,0,0,0,3.2,7.5c.64,1.22,1.32,2.39,2.07,3.53.52.73,1.06,1.44,1.64,2.13l.48.46.53.4.39.22h0l0,0,.1-.07c.55-.52,1.08-1.05,1.6-1.61,1.4-1.65,2.7-3.38,4-5.09.53-.69,1-1.42,1.5-2.12l1.83-2.59,2.71-4.19a80.4,80.4,0,0,0,4.42-7.84,206.15,206.15,0,0,0,8-20.86c1.82-5.27,3.64-10.55,5.51-15.81,4.19-11.82,8.47-23.6,12.66-35.42q1.74-5.38,3.46-10.77c.52-1.6.91-3.24,1.37-4.86.66-2.37,1.34-4.74,1.95-7.12.55-2.17,1.17-4.3,1.79-6.44a8.51,8.51,0,0,1,1.87-3.52,7,7,0,0,1,1.31-1.13,6.33,6.33,0,0,1,1.54-.66,4.48,4.48,0,0,1,3.58.59,7.65,7.65,0,0,1,2.3,2.53c.41.61.81,1.22,1.21,1.83,1,1.48,1.9,3,2.84,4.48,3.83,6.14,7.21,12.54,10.69,18.89s7.29,12.7,11.07,19c.75,1.26,1.56,2.51,2.27,3.79q1.77,3.21,3.55,6.42c1.86,3.37,3.5,6.85,5.2,10.3,1.56,3.16,2.94,6.39,4.38,9.59,2,4.45,4,8.91,6.18,13.29a94.16,94.16,0,0,0,4.95,8.45c1.07,1.52,2.18,3,3.39,4.38,1,1.07,2,2.09,3.09,3.08.77.64,1.55,1.24,2.36,1.83s1.77,1,2.7,1.52a16,16,0,0,0,1.48.62c.88.27,1.75.5,2.65.69.59.11,1.19.19,1.78.24l-.57,0a16.37,16.37,0,0,0,2,.06l-.58,0a14.44,14.44,0,0,0,2-.19l.88-.23a11,11,0,0,0,1.3-.62l-.51.25.53-.33.52-.41a9.85,9.85,0,0,0,.92-1l-.36.43.33-.48.42-.74c-.08.16-.16.31-.23.47h0a14.8,14.8,0,0,0,.69-1.58c.29-1,.55-2,.77-3,.37-2.2.61-4.4.77-6.62.09-1.85.13-3.7.16-5.56,0-1.42.08-2.86.06-4.29,0-3.06,0-6.12-.17-9.18s-.2-6.16-.39-9.24c-.21-3.56-.42-7.11-.64-10.68-.29-4.12-.56-8.24-.84-12.36v.07c-1.05-15-1.61-30-2.3-45q-.25-5.73-.55-11.46-.18-3.6-.33-7.2c-.1-2.3-.06-4.59,0-6.89a24.3,24.3,0,0,1,.2-2.56c.09-.5.2-1,.33-1.49s.26-.77.39-1.16a8.29,8.29,0,0,1,.84-1.55,6.21,6.21,0,0,1,1.15-1.14,4.37,4.37,0,0,1,3.18-.87,5.8,5.8,0,0,1,3,1.13,14.11,14.11,0,0,1,2.37,2.63c2.09,2.6,4.06,5.27,6,8,3.14,4.56,5.94,9.34,8.76,14.1,3.09,5.22,6.19,10.45,9.23,15.71s5.77,10.33,8.54,15.56c2.61,4.92,5.06,9.93,7.54,14.91q1.22,2.29,2.41,4.59c.69,1.31,1.43,2.59,2.17,3.87s1.56,2.77,2.42,4.11q1.53,2.34,3.05,4.69a72,72,0,0,0,4.93,6.36q1.05,1.1,2.16,2.1c.41.34.82.65,1.26.95l-.45-.3a14.85,14.85,0,0,0,1.53.93l.61.24.45.09h.33l0,0,.15-.26c.08-.19.16-.38.23-.57.41-1.43.72-2.87,1-4.33.2-1.05.4-2.1.59-3.15s.34-2.27.5-3.4c.29-2,.44-4,.6-6.07,0-1.46.05-2.91.07-4.37,0-1.21-.07-2.41-.12-3.62-.1-2.64-.29-5.28-.45-7.91-.17-2.32-.32-4.64-.48-6.95h0q-.25-3.72-.49-7.42l-.51-6c-.16-1.81-.43-3.61-.66-5.41-.49-3.75-1.15-7.48-1.77-11.21-.58-3.45-1.25-6.9-1.92-10.34q-1.11-5.73-2.23-11.45l-2.31-11c-.75-3.62-1.59-7.23-2.31-10.86s-1.43-7.1-2-10.67a127,127,0,0,1-1.78-13.15,7,7,0,0,1,.75-4.1,6.75,6.75,0,0,1,2.31-2.38,5.24,5.24,0,0,1,4-.55,6.48,6.48,0,0,1,1.75.65c1,.59,1.86,1.22,2.76,1.9,3,2.24,5.91,4.46,8.83,6.74,5.8,4.52,11.45,9.2,17.26,13.69,3.87,3,7.89,5.69,11.93,8.41q4.66,3.08,9.33,6.12c3.53,2.31,7.09,4.56,10.65,6.81,1.38.87,2.81,1.67,4.23,2.5s3.1,1.87,4.7,2.72l5.57,3c1.59.85,3.24,1.62,4.87,2.42h0c2.63,1.27,5.25,2.54,7.9,3.75,1.14.53,2.27,1.08,3.44,1.55l5.19,2.09-.57-.2c2.58.88,5.14,1.81,7.77,2.53l2.94.8c.41.12.83.25,1.25.34l4.19.86c1.26.19,2.5.35,3.77.47.9.05,1.79.07,2.7.06l-.61,0c.42,0,.84,0,1.26-.1q-2-4-4-8-3.65-7.14-7.35-14.25c-2.47-4.78-4.85-9.61-7.44-14.32-1.27-2.32-2.5-4.68-3.84-7-.89-1.54-1.79-3.07-2.68-4.59-.58-1-1.14-2-1.74-3L682,770.67c-.7-1.13-1.48-2.21-2.22-3.32l-2.45-3.66c-4.3-6.21-8.61-12.41-13-18.55-2.26-3.15-4.61-6.24-7-9.34-.8-1.06-1.67-2.07-2.52-3.09l-4-4.86L647.21,724c-1.07-1.17-2.12-2.37-3.22-3.51-2.63-2.69-5.24-5.38-7.86-8.07l-4.69-4.81a95.59,95.59,0,0,1-8.36-9.83,36.89,36.89,0,0,1-5.75-11,8.36,8.36,0,0,1-.43-2.27,6.38,6.38,0,0,1,.1-2.22,7.32,7.32,0,0,1,.56-1.43,5.54,5.54,0,0,1,1.33-1.56,5.47,5.47,0,0,1,3.19-1l2.37-.12c1.76-.08,3.51-.13,5.26-.17,3.52-.1,7,0,10.57-.05A198.67,198.67,0,0,1,661.82,679c3.06.31,6.12.59,9.18.86s6.38.27,9.58.33,6.22.16,9.3.49,6.43.76,9.65,1.12l5.08.57c1.61.18,3.23.24,4.85.34l5.18,0-.52,0c1.6-.11,3.2-.17,4.79-.36l2.78-.34c.69-.08,1.38-.24,2.07-.38,1.32-.35,2.63-.69,3.93-1.11.79-.3,1.55-.62,2.32-1,.39-.21.77-.43,1.15-.68l.87-.65-.34.3a10.49,10.49,0,0,0,1.49-1.49l-.29.33.29-.4-.39-.81c-.31-.6-.64-1.18-1-1.78l.26.37a11.68,11.68,0,0,0-1.47-1.89c.09.12.19.23.29.34-1.72-1.82-3.49-3.59-5.28-5.35s-3.62-3.37-5.46-5c-1.77-1.47-3.53-2.91-5.36-4.31-1.68-1.29-3.39-2.53-5.08-3.81-4.1-3.09-8.12-6.25-12.11-9.48-3.73-3-7.46-6-11.27-8.93-1.93-1.47-3.88-2.89-5.86-4.3s-3.79-2.6-5.7-3.88c-6.25-4-12.53-7.9-18.71-12-3.37-2.22-6.72-4.48-10.06-6.73-1.36-.92-2.7-1.86-4-2.79-2.59-1.78-5.17-3.55-7.62-5.51a49.4,49.4,0,0,1-4.21-3.84,26.87,26.87,0,0,1-3.27-4.16,13.14,13.14,0,0,1-1.16-2.42,8.29,8.29,0,0,1-.55-2.08,8.75,8.75,0,0,1,.37-4.51,10.27,10.27,0,0,1,2-3.2c.65-.76,1.36-1.47,2.05-2.2,1.3-1.36,2.63-2.71,3.95-4,2.43-2.47,4.92-4.89,7.52-7.19,1.3-1.16,2.62-2.29,4-3.41s3-2.33,4.48-3.46c2.74-2.07,5.56-4,8.35-6,1.5-1.06,3-2.09,4.51-3.14,1.28-.89,2.59-1.79,3.81-2.76s2.61-2,3.87-3.09,2.76-2.35,4.12-3.55c2.62-2.3,5.25-4.57,7.92-6.81s5.37-4.28,8-6.42,5.24-4.19,7.8-6.35c5.55-4.68,11-9.48,16.44-14.27l3.31-3.1c.9-.85,1.71-1.8,2.56-2.7,1.13-1.36,2.23-2.72,3.23-4.17.26-.41.52-.82.76-1.24-2.24.21-4.46.51-6.69.82q-4.35.61-8.7,1.27c-5.61.85-11.18,1.91-16.73,3l-5.28,1.27c-1.66.4-3.28.94-4.91,1.42-3,.91-6,2-9.06,3-3.35,1.33-6.71,2.63-10,4.05q-5.24,2.24-10.43,4.51c-7.06,3.07-14.23,5.87-21.42,8.6a94.85,94.85,0,0,1-9.42,3.05,32.47,32.47,0,0,1-6,1.09,23.57,23.57,0,0,1-3,0,19.39,19.39,0,0,1-3.23-.5,9.57,9.57,0,0,1-4.08-2.06,8.72,8.72,0,0,1-1.39-1.52,7.22,7.22,0,0,1-1-2.08,12.61,12.61,0,0,1-.55-5.11,14.56,14.56,0,0,1,1.35-5.08c1.38-3.23,3-6.38,4.57-9.5s3.28-6.13,5-9.12c3.79-6.43,7.53-12.9,11.75-19.05,2.14-3.11,4.41-6.11,6.77-9,2.23-2.76,4.52-5.47,6.79-8.18,4.54-5.46,9-11,13.41-16.53,2.21-2.82,4.47-5.62,6.6-8.51,1.09-1.48,2.23-2.93,3.26-4.45q1.72-2.52,3.43-5.06c1.23-2,2.4-3.93,3.44-6,.49-1.06.94-2.12,1.34-3.21.19-.6.36-1.21.5-1.82l-.09.45a14.85,14.85,0,0,0,.29-1.75c0-.27,0-.53,0-.79,0,.16,0,.32,0,.48a9.35,9.35,0,0,0-.14-1.4l-.12-.34c0-.08-.08-.16-.13-.24s-.23-.29-.35-.44l-.34-.28-.52-.31-.69-.27-.23-.05-.51-.07H667a8.82,8.82,0,0,0-1.25.21l.17,0h0l.3-.07-.58.18c-.55.21-1.09.46-1.62.72-5.45,3-10.59,6.41-15.74,9.85q-4.54,3.13-9,6.35c-2.92,2.09-5.79,4.27-8.64,6.45-5.78,4.41-11.24,9.23-16.77,13.94q-3.91,3.33-7.88,6.59c-2.89,2.35-5.76,4.74-8.71,7-6,4.66-12.09,9.27-18.23,13.77a123.47,123.47,0,0,1-11.84,7.94,37.37,37.37,0,0,1-5.29,2.47,22.36,22.36,0,0,1-5.76,1.29,12.84,12.84,0,0,1-2.32,0,15.35,15.35,0,0,1-2.78-.37c-.9-.24-1.72-.5-2.6-.82l-1.44-.72c-.4-.27-.8-.54-1.19-.83a7.84,7.84,0,0,1-2.43-3l-.3-.65a7.62,7.62,0,0,1-.47-1.82,13.27,13.27,0,0,1-.22-2.52,20.89,20.89,0,0,1,.11-2.37c.07-1.09.19-2.17.33-3.26.11-.84.32-1.7.51-2.53l.57-2.47c.42-1.75.83-3.5,1.29-5.24s1-3.72,1.54-5.56,1.19-3.48,1.86-5.19c1.3-3.36,2.8-6.64,4.31-9.91,1.41-3.07,2.94-6.08,4.38-9.12q2.55-5.37,5.06-10.75c3.73-8,7.59-15.9,11.72-23.66,2.17-4.09,4.37-8.17,6.64-12.2,2.17-3.85,4.3-7.71,6.36-11.63,1.05-2.16,2.12-4.31,3.08-6.51.51-1.15,1.06-2.3,1.51-3.47.56-1.46,1.12-2.91,1.67-4.37.36-1.1.72-2.21,1.07-3.32.63-2,1.14-4,1.58-6a54.43,54.43,0,0,0,.76-5.53,20.59,20.59,0,0,0,0-2.08c-.06-.73-.16-1.44-.29-2.16-.09-.29-.17-.59-.25-.88l-.3-.7-.24-.41a3.11,3.11,0,0,1-.23-.28l-.07,0-.09-.05-.14,0c-1.53.42-3.06.85-4.56,1.35l-.3.13-.22.13c-1.38,1.3-2.69,2.68-4,4s-2.57,2.67-3.83,4c-2.71,2.9-5.42,5.81-8.05,8.78q-8.48,9.57-16.88,19.23c-4.73,5.52-9.44,11.09-14.22,16.58-2.35,2.69-4.67,5.41-7,8.07l-8.11,9c-4.85,5.38-9.58,10.86-14.34,16.33s-9.94,10.78-15.26,15.82q-2,1.86-4,3.67c-1.53,1.37-3.09,2.69-4.67,4a41.73,41.73,0,0,1-9.48,6,18.65,18.65,0,0,1-2.74.89,11.37,11.37,0,0,1-2.66.37,15.83,15.83,0,0,1-5.11-.8,12.52,12.52,0,0,1-4.19-2.33,12.21,12.21,0,0,1-2.91-3.67,33.59,33.59,0,0,1-2.13-5.58,49.68,49.68,0,0,1-1.18-4.85c-.43-2.07-.81-4.14-1.19-6.23-1.23-6.94-2-14-2.72-21-.78-7.27-1.11-14.57-1.43-21.87-.21-4.78-.25-9.54-.09-14.32s.49-9.67.88-14.5c.79-9.8,1.51-19.62,2.24-29.43l.3-5c.11-1.72.13-3.43.18-5.14.11-3.15-.06-6.29-.24-9.43-.15-1.38-.33-2.74-.56-4.1s-.67-2.82-1.12-4.21c-.16-.42-.33-.84-.52-1.25a9.52,9.52,0,0,0-.52-.87c-.47-.62-1-1.21-1.47-1.8l-.28-.27-.16.23c-2.3,3.63-4.23,7.48-6.17,11.31q-6.61,14.1-12.62,28.48c-2.05,4.89-4.11,9.78-6,14.73-1,2.68-2.1,5.35-3.08,8s-2,5.51-3,8.26c-2.19,6.47-4.31,13-6.6,19.39-.47,1.34-.9,2.69-1.43,4-.83,2.08-1.65,4.15-2.48,6.22-1.24,3.09-2.66,6.11-4,9.15-1.27,2.88-2.68,5.69-4,8.56q-1.43,3.16-2.84,6.31c-.59,1.29-1.1,2.62-1.64,3.93l-1.89,4.63c-.76,1.83-1.39,3.72-2.08,5.57-.46,1.23-.9,2.46-1.34,3.7a4.06,4.06,0,0,1-1.52,5.28,2.69,2.69,0,0,1-.38.19l-.12.37,0-.07c-.74,2.27-1.42,4.58-2.22,6.84a1.19,1.19,0,0,1-.06,1.58l-.75.85a3.81,3.81,0,0,1-.37.43,1.17,1.17,0,0,1-2-1.12c.78-2.47,1.42-5,2.08-7.48.12-.43.23-.85.34-1.27a4.31,4.31,0,0,1-2.08-1.72c-1-1.55-1.93-3.15-2.91-4.72q-1.65-2.64-3.39-5.23a234.77,234.77,0,0,0-16.75-21.45c-1.6-1.79-3.18-3.6-4.75-5.41-.87-1-1.69-2.08-2.52-3.12s-1.42-1.83-2.12-2.76c-2.94-3.91-5.69-8-8.45-12l.26.37c-1.5-2.18-3-4.37-4.45-6.55l.26.37c-1.82-2.65-3.61-5.33-5.49-7.93-2.17-3-4.34-6-6.56-8.92-4.62-6.11-9.17-12.3-14.22-18.06a79.28,79.28,0,0,0-5.73-5.72c-1.4-1.19-2.84-2.29-4.34-3.34-.93-.58-1.86-1.12-2.83-1.63-.63-.29-1.26-.54-1.9-.78a14.37,14.37,0,0,0-1.83-.45l.5.1-.81-.08h-.67l-.5.07-.17.06-.28.14-.15.1-.36.37-.52.71a9.81,9.81,0,0,0-.55.95c-.52,1.09-1,2.19-1.4,3.33s-.65,2.25-.9,3.4c-.25,1.38-.42,2.76-.54,4.17s-.06,3,0,4.58c.17,1.72.43,3.4.75,5.09a71.14,71.14,0,0,0,2,7.17c.48,1.45,1,2.89,1.45,4.34,1.3,3.18,2.57,6.37,4,9.49q2.54,5.46,5.05,10.92c.59,1.28,1.22,2.55,1.75,3.85l2.91,7.1c.49,1.19.91,2.39,1.32,3.61l2.26,6.73c.13.38.21.76.31,1.15.28,1.14.57,2.28.86,3.43.41,1.64.84,3.27,1.17,4.92l1.32,6.73c.33,1.72.57,3.46.84,5.19.23,1.43.48,2.85.63,4.28q.35,3.4.7,6.78c.2,2,.25,4,.3,5.93.08,2.51,0,5-.16,7.53a39.07,39.07,0,0,1-.74,5.59,25.55,25.55,0,0,1-2.05,6.36,15.55,15.55,0,0,1-1.48,2.52,20.09,20.09,0,0,1-1.79,2,11.5,11.5,0,0,1-3.62,2.2,19,19,0,0,1-5.57,1.11,33.87,33.87,0,0,1-6.6-.21,42.91,42.91,0,0,1-11.43-3.24,80.88,80.88,0,0,1-7.82-3.84,111.8,111.8,0,0,1-10.54-6.51,101.18,101.18,0,0,1-10.44-8.48c-1.59-1.44-3.08-3-4.61-4.5-2.78-2.71-5.43-5.53-8.11-8.33s-5.06-5.35-7.58-8q-7.42-7.89-14.65-16L219,413.17c.09.11.19.22.29.32-1.91-2.12-3.83-4.22-5.75-6.33l-2.18-2.41c-.9-1-1.89-1.89-2.83-2.83l-4-4c-.58-.58-1.16-1.16-1.78-1.71-2.26-2-4.51-4-6.78-6-2.85-2.4-5.75-4.73-8.77-6.93.15,1.61.29,3.22.45,4.82.19,1.89.52,3.77.88,5.62.54,2.3,1.22,4.53,2,6.75a96.54,96.54,0,0,0,3.74,9q1.37,2.79,2.72,5.6c1.58,2.87,3.09,5.78,4.76,8.59,2,3.36,4,6.72,6,10.06,4.15,6.83,8.22,13.7,12.29,20.57,3.53,6,7.24,11.81,10.87,17.71,1.23,2,2.46,4,3.68,6,.85,1.36,1.61,2.77,2.39,4.17s1.78,3,2.54,4.59l3,6.27c.85,1.75,1.55,3.55,2.29,5.34s1.5,3.58,2.14,5.42c.07.21.15.43.23.64l.18.52c-.08-.21-.15-.42-.23-.64l2.16,6.14c.72,2,1.28,4.17,1.9,6.25q1.36,4.62,2.36,9.34.69,3.3,1.15,6.63a70.34,70.34,0,0,1,.56,8.33,53.54,53.54,0,0,1-.42,7.16c-.13,1.06-.37,2.1-.6,3.15a13.72,13.72,0,0,1-.72,2.42,12.28,12.28,0,0,1-2.49,4,7.35,7.35,0,0,1-4.05,2,21,21,0,0,1-5.64-.33l-2.85-.4c-1.72-.24-3.42-.59-5.13-.89-.79-.14-1.56-.36-2.33-.54l-3.53-.85c-1.84-.45-3.65-1.07-5.46-1.62-3.48-1.05-6.9-2.31-10.34-3.52-1.86-.65-3.69-1.41-5.54-2.12-1.55-.59-3.08-1.21-4.62-1.83s-3.06-1.22-4.56-1.88c-1.86-.82-3.75-1.58-5.58-2.45q-6.8-3.21-13.54-6.55l.5.25c-5.22-2.57-10.5-5-15.8-7.42-1.15-.53-2.35-1-3.53-1.5l-4.63-2c-1.24-.52-2.55-.93-3.81-1.38l-4-1.46c-2.81-.81-5.62-1.7-8.46-2.41-3.12-.77-6.24-1.53-9.35-2.36s-6.45-1.72-9.65-2.68l-5.89-1.76-4-1.19c-2.41-.72-4.83-1.31-7.29-1.84-1.13-.22-2.26-.39-3.41-.53-1-.05-1.93-.07-2.91-.05l.66,0a14.31,14.31,0,0,0-1.72.17l-.62.17-.4.16.21-.11h0l.37-.19a8.8,8.8,0,0,0-1.09.59v0l.07,0-.1.09,0,0-.07.13-.06.15a.19.19,0,0,1,0,.08l0,.3c0,.31,0,.62,0,.93s.11.86.19,1.29c.13.62.3,1.23.49,1.83.39,1,.8,2,1.26,2.94,1,2,2.17,3.83,3.39,5.67,1.14,1.61,2.31,3.18,3.57,4.69,1,1.16,1.92,2.31,2.87,3.47,1.75,1.88,3.48,3.77,5.28,5.6q3.48,3.5,7,6.93c4.21,4.05,8.6,7.88,13,11.74,2.7,2.23,5.38,4.48,8.14,6.62,1.37,1.05,2.71,2.15,4.1,3.16l5.61,4.06c2.8,2,5.68,4,8.49,6,1.33.95,2.67,1.87,4,2.85l5.47,4.13c1.41,1.06,2.77,2.21,4.16,3.32,1.23,1,2.44,2,3.64,3l4.46,3.81c1.67,1.43,3.25,3,4.86,4.46a84.67,84.67,0,0,1,6.29,6.42A58.11,58.11,0,0,1,197.56,617a42.31,42.31,0,0,1,2.33,5.76,19,19,0,0,1,.66,2.8,19.57,19.57,0,0,1,.29,2.76,11.62,11.62,0,0,1-.75,4.52,6.2,6.2,0,0,1-2.48,2.94c-1.72,1-3.76,1-5.7.89-1.38-.06-2.76-.12-4.14-.22-3.07-.23-6.14-.51-9.21-.87-6.31-.73-12.61-1.59-18.89-2.53-5.72-.84-11.4-2-17.11-2.82l-5.72-.86c-1.27-.19-2.53-.42-3.8-.56-3.31-.38-6.62-.76-9.94-1.12l-9.64-.53c-.32,0-.64,0-.95,0l-3.47.07-4.83.09-4.13.38L97,628c-.49,0-1,.06-1.48.14-4,.59-7.9,1.13-11.82,1.91-2.19.48-4.36,1-6.51,1.71.7,1.19,1.42,2.37,2.15,3.55.84,1.37,1.76,2.69,2.68,4l3.06,4c1,1.29,2.06,2.53,3.09,3.8,1.81,2.22,3.71,4.37,5.58,6.55l3.6,3.84c1.77,1.88,3.63,3.66,5.57,5.36,1.69,1.42,3.42,2.76,5.24,4A67.13,67.13,0,0,0,114,670.3c3,1.41,6,2.69,9,3.88s6.13,2.3,9.22,3.42l5.14,1.73c1.86.63,3.76,1.15,5.64,1.71,3.19,1,6.41,1.79,9.61,2.67q10.54,2.89,21.06,5.85a184.56,184.56,0,0,1,18.11,5.7,54.71,54.71,0,0,1,21.67,15.13,13.14,13.14,0,0,1,1.45,2,20.09,20.09,0,0,1,1.06,2.25,6.88,6.88,0,0,1,.35,1.88,3.91,3.91,0,0,1-.09,1.36c-.55,2-2.44,3.22-4,4.39a31.22,31.22,0,0,1-4.14,2.44q-2.19,1.16-4.43,2.25c-1.63.8-3.25,1.6-4.89,2.37-1.82.86-3.65,1.65-5.5,2.45-3.06,1.33-6.17,2.55-9.28,3.76-3.9,1.51-7.79,3-11.68,4.59-3.48,1.38-6.94,2.83-10.4,4.26-6.61,2.73-13.12,5.66-19.68,8.48-3.25,1.4-6.49,2.82-9.76,4.19-3.76,1.57-7.51,3.14-11.25,4.76-3,1.3-6,2.74-9,4.17l-4.46,2.41q-4.14,2.24-8.07,4.87A73.75,73.75,0,0,0,93,778.47c-1.44,1.35-2.81,2.74-4.12,4.21-1,1.22-2,2.47-2.86,3.76a48.89,48.89,0,0,0-2.58,4.5c-.42.92-.8,1.85-1.15,2.81s-.5,1.72-.69,2.61c-.08.46-.14.93-.18,1.4s0,.72,0,1.08.06.6.1.9.11.54.17.8c0-.15-.1-.3-.16-.45a9,9,0,0,0,.75,1.79c-.08-.14-.15-.28-.22-.42.12.19.24.38.35.57l.42.52.48.43.5.35.59.31.79.3c.52.15,1.05.29,1.58.4,1.83.32,3.68.51,5.52.72l2.22.08c.86,0,1.74.11,2.6.08l6-.18c2.61-.19,5.23-.36,7.83-.63,3-.31,6-.6,9.07-.95q10.67-1.23,21.3-2.61c5.75-.73,11.48-1.6,17.21-2.52,2.93-.47,5.86-.89,8.77-1.44l10.67-2,11.39-2.6c3.75-.85,7.47-1.84,11.19-2.75q11.14-2.75,22.31-5.41l10.44-2.5a112.5,112.5,0,0,1,12.49-2.32,40,40,0,0,1,6.74-.19,22.06,22.06,0,0,1,2.68.34c.48.1,1,.21,1.43.35a5.66,5.66,0,0,1,1.29.56,4.93,4.93,0,0,1,2,1.81,4,4,0,0,1,.74,2.61,4.93,4.93,0,0,1-.28,1.32,12.13,12.13,0,0,1-.75,1.43,18.53,18.53,0,0,1-1.59,2.06c-2.23,2.58-4.7,4.93-7.09,7.36-2,2-4,4.05-6,6.05-2.41,2.38-4.86,4.72-7.32,7-4.29,4.08-8.63,8.11-12.89,12.24q-7,6.76-14,13.45c-2.32,2.21-4.61,4.45-6.9,6.69-2.09,2-4,4.21-6,6.33l-2.8,3.26c-.88,1-1.8,2-2.63,3.07l-3.18,4c-.85,1.07-1.72,2.12-2.53,3.21l-3.33,4.47c-.79,1.07-1.61,2.12-2.37,3.21l-5.62,8q-1.89,2.85-3.68,5.74c-1.19,2-2.28,4-3.32,6a64.19,64.19,0,0,0-2.46,6c-.32,1-.61,2-.85,3.1s-.31,1.9-.42,2.87c0,.42,0,.84,0,1.27l.12.95c.05.24.11.48.17.72l.24.6.15.26.21.25,0,0,.15.08.27.08.33,0,.61,0c2.95-.31,5.89-.83,8.83-1.27,2.3-.34,4.59-.66,6.9-.94,6.05-.75,12.15-1.25,18.15-2.42a88.76,88.76,0,0,0,9.85-2.74,90,90,0,0,0,9.47-4.07,109.19,109.19,0,0,0,10.78-6.4l5.81-3.94c2.79-2,5.6-4.06,8.36-6.15,2.95-2.24,5.89-4.5,8.85-6.71,6.06-4.52,12.11-9,18.27-13.42,6.54-4.65,13.08-9.27,19.76-13.73,2.56-1.71,5.15-3.34,7.85-4.81a50.8,50.8,0,0,1,5.75-2.67c.84-.34,1.71-.61,2.58-.87a9.61,9.61,0,0,1,3.05-.51,5.78,5.78,0,0,1,2.74.63,4.22,4.22,0,0,1,1.68,2.09,4.43,4.43,0,0,1-.05,2.94,8.75,8.75,0,0,1-.65,1.58l-.76,1.6c-3,6.35-6.25,12.58-9.47,18.83-1,2-1.92,4-2.88,6s-1.63,3.82-2.44,5.72c-1.55,3.66-2.87,7.4-4.23,11.12Q292.07,895,289,904.11q-.92,2.75-1.84,5.49c-.58,1.75-1.07,3.53-1.61,5.3-1,3.18-1.71,6.42-2.52,9.64-.3,1.61-.59,3.21-.88,4.81A87,87,0,0,0,281,938c-.11,1.92-.19,3.84-.12,5.76q.11,1,.27,2c0-.17-.07-.33-.1-.5a10.79,10.79,0,0,0,.37,1.59l0,0c1.53-.38,3-.87,4.53-1.38.92-.36,1.81-.76,2.69-1.19,1.65-.94,3.21-2,4.78-3,1.37-1,2.8-2,4.11-3.11l4.78-4,5.84-5.53c.43-.42.84-.85,1.25-1.29l3.88-4.08c1.41-1.49,2.79-3,4.14-4.52l5.62-6.42c9.55-11.36,19.05-22.77,28.17-34.48,2.14-2.75,4.29-5.48,6.33-8.29,2.17-3,4.35-6,6.48-9,2.28-3.21,4.52-6.44,6.91-9.57,1.34-1.76,2.66-3.54,4.06-5.25,1.26-1.53,2.6-3,4-4.43a5.86,5.86,0,0,1,1.34-.91,3.36,3.36,0,0,1,1.3-.45A3.44,3.44,0,0,1,382,839.91ZM523.77,961.07a25.57,25.57,0,0,1-5.15-.73,21.5,21.5,0,0,1-5.27-1.93,33.64,33.64,0,0,1-5.5-3.53,37.72,37.72,0,0,1-5.08-5c-5.42-6.25-9.21-13.7-12.64-21.17q-3-6.62-6.11-13.24c-1.64-3.56-3.45-7-5.22-10.55l-4.43-7.89c-1.35-2.39-2.82-4.71-4.24-7.06s-2.79-4.68-4.17-7-2.79-4.9-4.16-7.36c-2.55-4.59-4.85-9.3-7.37-13.89-1.5-2.72-3.09-5.41-4.74-8-.11.4-.21.8-.31,1.2-.27,1.06-.55,2.11-.84,3.16q-1.07,3.75-2.12,7.51c-1,3.64-2.29,7.22-3.45,10.82s-2.43,7-3.67,10.43q-1.77,5-3.58,9.94-3.6,9.9-7.08,19.85-1.84,5.31-3.7,10.61c-1.24,3.58-2.44,7.18-3.77,10.73-.81,2.16-1.63,4.31-2.44,6.47a81.16,81.16,0,0,1-5.33,11.13c-1.26,2.25-2.68,4.39-4.09,6.55-1,1.53-2,3-3.07,4.49-2.75,3.83-5.57,7.7-9.14,10.81a7,7,0,0,1-1.66,1,8.52,8.52,0,0,1-1.86.57,7.68,7.68,0,0,1-3.81-.16l-1-.35a9.57,9.57,0,0,1-1.43-.81,8.94,8.94,0,0,1-1.69-1.3,23.3,23.3,0,0,1-1.85-2,31.23,31.23,0,0,1-2.18-3.17,45.38,45.38,0,0,1-2.84-5.5,64.41,64.41,0,0,1-2.52-6.62,97.72,97.72,0,0,1-3.61-15.39,92.68,92.68,0,0,1-1.19-10.5c-.13-2.55-.25-5.1-.38-7.65-.07-1.31,0-2.61,0-3.92,0-2.1,0-4.19,0-6.29,0-1.93.12-3.88.19-5.81,0-1.54.1-3.08.19-4.62.16-2.6.25-5.22.49-7.82s.4-5.16.71-7.72c.61-4.93,1.24-9.85,2-14.76q1.18-7.74,2.27-15.51c.27-1.86.53-3.73.81-5.6-3.45,4.53-6.64,9.24-10,13.85q-2.13,3-4.27,5.93c-.78,1.08-1.53,2.18-2.34,3.23q-3.94,5.13-7.9,10.24c-2.44,3.17-5,6.25-7.48,9.37-2.21,2.76-4.44,5.48-6.67,8.22-4.48,5.49-9,11-13.61,16.32l-4.05,4.69c-1.06,1.23-2.2,2.39-3.3,3.57l-4.23,4.51c-.32.35-.69.67-1,1l-3.14,3c-1,1-2.05,2-3.14,2.93l-2.83,2.4c-.64.53-1.26,1.11-1.93,1.61-1.43,1.08-2.84,2.21-4.34,3.21-.88.6-1.77,1.19-2.66,1.78a31.4,31.4,0,0,1-6,3.06c-1.85.72-3.78,1.2-5.67,1.75a7.93,7.93,0,0,1-3.59.18,3.66,3.66,0,0,1-1.36-.46,8.61,8.61,0,0,1-2-1.54,7.53,7.53,0,0,1-1.21-1.68,13.9,13.9,0,0,1-.9-2.35,17,17,0,0,1-.46-2.55,25.22,25.22,0,0,1-.2-3c-.05-1.25.06-2.53.13-3.79.06-1,.14-2,.24-3a54.12,54.12,0,0,1,.79-5.53l1.32-6.59c.32-1.64.8-3.23,1.23-4.84s.76-3,1.23-4.42c.71-2.21,1.43-4.41,2.14-6.62.87-2.67,1.87-5.3,2.8-8s1.91-5.5,2.86-8.25,1.88-5.69,2.93-8.49l1.71-4.63c.51-1.36,1-2.77,1.53-4.11.67-1.6,1.35-3.19,2-4.79.46-1.09.89-2.21,1.41-3.28,1.41-2.94,2.8-5.88,4.3-8.78,2.49-4.84,5-9.68,7.44-14.55-.79.35-1.58.71-2.36,1.09-2.49,1.31-4.87,2.76-7.22,4.29-2.89,2-5.78,4-8.64,6q-4.95,3.51-9.88,7-9.27,6.66-18.41,13.53c-3,2.27-6.05,4.57-9.06,6.86s-6.15,4.62-9.24,6.91-6.06,4.22-9.11,6.31a97.26,97.26,0,0,1-9.9,5.83,88.49,88.49,0,0,1-13.28,5.51,87.56,87.56,0,0,1-18.36,3.57c-3.59.37-7.18.7-10.75,1.18-3.77.5-7.53,1-11.29,1.53-.91.12-1.83.24-2.74.28a18.49,18.49,0,0,1-2.36-.08,6.77,6.77,0,0,1-1.82-.52,7.65,7.65,0,0,1-1.63-.91,10.53,10.53,0,0,1-3.73-8.21,30.57,30.57,0,0,1,2.18-11,69.7,69.7,0,0,1,6.72-12.94c2.79-4.41,5.9-8.62,8.94-12.87,2-2.82,4.17-5.54,6.26-8.3,1.18-1.55,2.45-3,3.67-4.56,1-1.18,1.9-2.37,2.9-3.52l4.64-5.33c1.17-1.34,2.45-2.6,3.68-3.88,1-1.07,2-2.15,3.1-3.18l5-4.85c2.49-2.41,5-4.77,7.54-7.16q4.47-4.27,8.92-8.57c5.37-5.16,10.87-10.19,16.29-15.29,2.52-2.37,5-4.82,7.4-7.25s4.95-4.89,7.33-7.42l.48-.51c.34-.41.68-.83,1-1.25-.44,0-.89-.1-1.34-.13q-1.12,0-2.25,0a70.25,70.25,0,0,0-8.15,1.21c-5.36,1.21-10.66,2.73-16,4.17-3.69,1-7.4,2-11.1,3l-22.15,6c-3.6,1-7.24,1.81-10.87,2.71s-7.23,1.56-10.85,2.3c-7.06,1.43-14.19,2.55-21.32,3.58-7.29,1-14.58,2-21.9,2.81-3.88.41-7.76.83-11.65,1.17-1.88.17-3.75.37-5.63.48l-6.37.38c-1.6.09-3.19.07-4.78.08l-2.44,0c-1,0-2.1-.13-3.13-.2-.8,0-1.63,0-2.42-.15l-2.9-.42c-1.16-.17-2.31-.4-3.45-.65a14.36,14.36,0,0,1-2.59-.79,13.51,13.51,0,0,1-2.92-1.52,12,12,0,0,1-3.36-3.5,13.42,13.42,0,0,1-1.62-4,14.28,14.28,0,0,1-.35-3c0-1,.07-1.8.18-2.75a24.26,24.26,0,0,1,1.71-6A35.68,35.68,0,0,1,79,784.89a43.87,43.87,0,0,1,3.9-5.38,55.6,55.6,0,0,1,10.93-9.9,82.7,82.7,0,0,1,9.49-5.87l5.91-3.11c1.51-.79,3.08-1.46,4.62-2.18s2.93-1.36,4.42-2q5.69-2.44,11.38-4.84c3.36-1.42,6.68-2.9,10-4.36,6.51-2.85,13-5.83,19.51-8.6,3.37-1.43,6.72-2.88,10.1-4.26,3.87-1.57,7.73-3.14,11.61-4.69,3.28-1.3,6.56-2.61,9.8-4,1.83-.81,3.66-1.62,5.47-2.49,1.57-.75,3.12-1.53,4.67-2.31,2.29-1.17,4.59-2.33,6.79-3.67.48-.34.95-.69,1.41-1.06l0,0a15.48,15.48,0,0,0-1.12-1.31c.11.11.21.23.31.34-.9-1-1.82-1.85-2.8-2.72-1.66-1.38-3.37-2.67-5.16-3.88-1.62-1-3.26-1.95-5-2.83a70.29,70.29,0,0,0-7.53-3.07c-5.64-1.85-11.45-3.1-17.22-4.44-3.2-.75-6.4-1.49-9.59-2.26l-12-2.88c-3.2-.76-6.41-1.5-9.58-2.36-3.73-1-7.45-2-11.1-3.31l-5.8-2c-1.8-.62-3.57-1.36-5.35-2-1.63-.62-3.2-1.37-4.8-2.06a64.11,64.11,0,0,1-9.8-5.34,70.08,70.08,0,0,1-9.82-8c-1.88-1.81-3.61-3.77-5.37-5.69-1-1.13-2-2.28-3-3.46-1.21-1.43-2.44-2.84-3.6-4.3s-2.41-2.94-3.54-4.46-2.51-3.26-3.63-5a97.81,97.81,0,0,1-6-10,9.59,9.59,0,0,1-1.32-4.18,7.83,7.83,0,0,1,1-3.87,8.44,8.44,0,0,1,3.27-2.89,23,23,0,0,1,6.09-2.15,83.87,83.87,0,0,1,9.94-1.81l7.34-.85c1.44-.17,2.89-.2,4.33-.28l3.91-.23c.67,0,1.35-.12,2-.1l6.28.06c1.48,0,3,0,4.42.14,3.68.29,7.37.49,11,1l8.52,1.13c1.19.16,2.38.39,3.57.59l5.35.89c5,.84,10,1.81,15,2.7q7.2,1.29,14.46,2.3,4.23.58,8.47,1.12c2.45.3,4.91.5,7.37.69,1.58.1,3.16.2,4.74.2v0l0-.58c-.05-.31-.09-.63-.14-.94-.2-.88-.44-1.73-.72-2.59s-.77-1.86-1.21-2.77c-.69-1.3-1.44-2.54-2.23-3.78a67.58,67.58,0,0,0-4.31-5.52c-2.3-2.53-4.73-4.9-7.27-7.2l-4.14-3.54c-1.23-1.06-2.5-2.08-3.77-3.09s-2.52-2.07-3.82-3L160,592.08c-5.89-4.47-12.08-8.55-18.2-12.69-2.77-1.87-5.5-3.81-8.16-5.82-1.49-1.13-3-2.21-4.47-3.38l-5.25-4.28c-1.11-.9-2.18-1.85-3.25-2.79-1.51-1.31-3-2.59-4.51-3.93-3-2.71-5.89-5.42-8.78-8.2-2.42-2.33-4.83-4.69-7.12-7.14l-2.47-2.66c-.54-.57-1.1-1.13-1.6-1.73l-3.91-4.7c-1.07-1.28-2-2.66-3-4a61.17,61.17,0,0,1-3.49-5.67,37.29,37.29,0,0,1-2.56-6,21.88,21.88,0,0,1-1.05-6.67,16.1,16.1,0,0,1,.22-2.4,7.69,7.69,0,0,1,.58-2.11,17.29,17.29,0,0,1,1.17-2.16,12.42,12.42,0,0,1,1.38-1.69,7.49,7.49,0,0,1,1.72-1.35,21.87,21.87,0,0,1,2.21-1.13,15.86,15.86,0,0,1,6-1,22.34,22.34,0,0,1,2.83.13c1.29.13,2.53.33,3.8.58,2.32.46,4.61,1.09,6.89,1.76,3.08.91,6.11,2,9.16,3l6,2c1.83.61,3.72,1.09,5.57,1.64,3.57,1.05,7.15,2,10.74,3,1.54.41,3.06.9,4.59,1.36s3.2.91,4.76,1.47c3,1.08,6,2.08,8.89,3.29,3.08,1.28,6.16,2.54,9.21,3.9q9.6,4.25,19.06,8.75c5.68,2.69,11.44,5.17,17.28,7.5,3.27,1.3,6.56,2.54,9.86,3.78,2.65,1,5.34,1.88,8,2.8l6.84,2c.8.24,1.62.4,2.43.59l3.44.84c3.29.6,6.57,1.23,9.89,1.58l0,0c.15-.55.28-1.11.38-1.68,0,.2-.07.39-.11.59.2-1.18.34-2.35.44-3.55a68.79,68.79,0,0,0-.06-7.18,79.91,79.91,0,0,0-1.3-9.11c-.71-3.27-1.55-6.51-2.57-9.7q-.93-2.93-1.87-5.85-1.16-3.12-2.33-6.24c-.68-1.82-1.47-3.59-2.24-5.37s-1.37-3.29-2.17-4.88l-3.07-6.13c-1.72-3-3.38-6-5.2-8.88q-3.22-5.16-6.46-10.3c-4-6.4-7.87-12.88-11.72-19.38q-2.53-4.31-5.06-8.63c-1.93-3.3-3.89-6.58-5.75-9.92q-1.66-3-3.32-5.94c-.84-1.5-1.57-3.06-2.35-4.59-.52-1-1-2-1.54-3-.24-.47-.51-.94-.72-1.42-1-2.17-1.91-4.35-2.87-6.52s-1.8-4.53-2.59-6.83a65.07,65.07,0,0,1-3.09-13c-.24-1.86-.36-3.74-.45-5.61-.1-2.1-.19-4.21-.19-6.32,0-.54,0-1.08,0-1.62a8.61,8.61,0,0,1,.33-1.81,4.63,4.63,0,0,1,.69-1.41,6.68,6.68,0,0,1,1.21-1.39,5.57,5.57,0,0,1,2.57-1.22,4.34,4.34,0,0,1,1.08,0,6,6,0,0,1,1.89.34,20.14,20.14,0,0,1,3.79,2c2,1.38,3.85,2.95,5.72,4.48,3.73,3.07,7.23,6.42,10.78,9.71.66.61,1.34,1.2,2,1.85l4.35,4.5,3.21,3.32c.86.89,1.66,1.87,2.49,2.8q6.52,7.4,13,14.81,7.83,8.58,15.8,17c2.56,2.72,5.18,5.39,7.77,8.08,1.13,1.17,2.33,2.27,3.5,3.39,1.76,1.7,3.51,3.4,5.35,5,1.36,1.18,2.75,2.32,4.17,3.44,2,1.53,4,2.93,6.07,4.31l-.36-.25,5.89,3.61c.73.45,1.51.81,2.26,1.21l3.26,1.73c2.2,1,4.42,2,6.71,2.79a47.43,47.43,0,0,0,4.67,1.28c1.09.19,2.17.33,3.27.44a38.43,38.43,0,0,0,3.87,0,21.22,21.22,0,0,0,2.24-.33c.39-.09.77-.19,1.14-.31l.59-.27.42-.26.39-.31.35-.37.47-.64.49-.87c.24-.5.45-1,.64-1.52q.44-1.43.75-2.88c.24-1.38.41-2.76.53-4.16a81.92,81.92,0,0,0-.11-9.27c-.11-1.36-.2-2.74-.4-4.09l-.45-3c-.22-1.51-.37-3.06-.68-4.56L309,430.41c-.38-1.86-.86-3.7-1.31-5.54-.38-1.56-.75-3.11-1.19-4.64l-1.89-6.47L302.87,409c-.51-1.41-1-2.83-1.59-4.21-1.54-3.59-3.06-7.19-4.72-10.73s-3.39-7.29-5.06-10.94c-.57-1.25-1.16-2.49-1.65-3.77l-2.52-6.44c-.24-.6-.41-1.22-.6-1.84-.38-1.23-.75-2.46-1.13-3.69A69.34,69.34,0,0,1,283.29,357a41.71,41.71,0,0,1,.17-12.37A33.29,33.29,0,0,1,287.65,333a18.35,18.35,0,0,1,1.33-1.93,10.05,10.05,0,0,1,1.53-1.66,12.2,12.2,0,0,1,2.08-1.5,7.18,7.18,0,0,1,1.78-.76,11.48,11.48,0,0,1,4.7-.35c.95.16,1.8.33,2.74.58a15.93,15.93,0,0,1,3.1,1.24c1.09.54,2.13,1.12,3.17,1.76.84.51,1.63,1.1,2.43,1.69a52.87,52.87,0,0,1,5.11,4.35,65.38,65.38,0,0,1,4.53,4.74c1.18,1.35,2.36,2.7,3.46,4.12,7.14,9.17,14.16,18.46,20.79,28,3.33,4.81,6.65,9.62,10,14.4,1.35,1.92,2.73,3.83,4.17,5.67.91,1.18,1.79,2.39,2.75,3.53s2,2.43,3,3.65c2.71,3,5.44,6,8.12,9s5.09,6.09,7.53,9.22,4.92,6.39,7.2,9.72c1.33,1.93,2.59,3.9,3.83,5.89,1.06-3.67,2.21-7.31,3.39-10.94q2.18-6.67,4.64-13.26,2.82-7.45,5.53-14.94c1.05-3.22,2.14-6.43,3.08-9.69q1.71-6,3.32-11.92c1.83-6.72,3.86-13.4,6.15-20,1.33-3.83,2.67-7.66,4.09-11.46s2.84-7.41,4.3-11.11c2.65-6.66,5.52-13.25,8.42-19.8a189.67,189.67,0,0,1,9.61-19.18,23.49,23.49,0,0,1,2.23-3.2,9.69,9.69,0,0,1,1.55-1.52,7.6,7.6,0,0,1,1.71-1.11,8.23,8.23,0,0,1,2.05-.68,8.62,8.62,0,0,1,2.27-.05,6.5,6.5,0,0,1,1.84.49l1.16.56,1.3.88a12,12,0,0,1,1.9,1.8c.59.63,1.11,1.32,1.64,2a19.37,19.37,0,0,1,2.5,4.49,31.5,31.5,0,0,1,1.61,5.61,46.16,46.16,0,0,1,.89,6.08c.13,1.84.3,3.69.36,5.53s.1,3.73.08,5.6c0,3.61-.13,7.22-.27,10.84-.26,7.23-.52,14.48-.82,21.72-.26,6.36-.65,12.74-.63,19.11,0,3.09,0,6.18.17,9.27.19,3.3.39,6.61.62,9.91s.48,6.82.81,10.21.77,7.07,1.23,10.6c.94,7.1,2,14.17,3.33,21.2a74.79,74.79,0,0,0,2.07,7.81c.12.33.25.64.39,1v0l0,0,.47.19.36.09.23,0,.42,0-.36.07h0l-.11,0-.08,0h0l.1,0-.3.06.31-.05.14,0-.13,0a10.91,10.91,0,0,0,1.22-.31c.51-.2,1-.41,1.51-.65,1.19-.63,2.33-1.32,3.47-2.05,2.15-1.51,4.23-3.1,6.23-4.79,1.69-1.43,3.35-2.88,5-4.35,2.63-2.39,5.22-4.82,7.74-7.33s4.91-5.07,7.28-7.69c5.14-5.71,10.29-11.41,15.51-17q7.11-7.63,14-15.5c4.85-5.56,9.65-11.17,14.56-16.68q8-8.93,16-17.71c4.7-5.13,9.54-10.14,14.54-15,.6-.58,1.19-1.15,1.79-1.71.44-.42.91-.81,1.37-1.21l.45-.31c.44-.26.88-.5,1.34-.72a42.91,42.91,0,0,1,6.91-1.75,9.42,9.42,0,0,1,1.84-.09,8.09,8.09,0,0,1,1.76.29,6.23,6.23,0,0,1,1.62.67,7.81,7.81,0,0,1,1.48,1.06,9.9,9.9,0,0,1,2.51,3.5,22,22,0,0,1,.92,2.85,15.75,15.75,0,0,1,.43,3,45.88,45.88,0,0,1-1.5,13c-.57,2.46-1.38,4.85-2.13,7.25-.53,1.72-1.23,3.4-1.85,5.09s-1.47,3.53-2.21,5.29c-.63,1.51-1.38,3-2.08,4.47s-1.31,2.67-2,4c-1.42,2.83-2.92,5.61-4.43,8.39-3.16,5.86-6.18,11.78-9.14,17.75q-3,6.21-5.87,12.48c-1.93,4.26-3.82,8.53-5.73,12.8-1.78,4-3.67,7.93-5.54,11.88S558,447.73,556.42,452c-.91,2.71-1.69,5.44-2.37,8.22-.73,2.95-1.47,5.89-2.11,8.86-.15,1.07-.27,2.12-.37,3.19,0,.68-.05,1.34-.06,2a1.42,1.42,0,0,1,0,.2l.1.08.34.19.55.21.77.23-.57-.12a10.83,10.83,0,0,0,1.69.28h1.07l-.59,0a16.4,16.4,0,0,0,2.11-.23c.59-.14,1.17-.3,1.75-.49a34.4,34.4,0,0,0,3.24-1.4,102.31,102.31,0,0,0,9.38-5.88c6-4.29,11.88-8.61,17.73-13.05,6.1-4.64,12.06-9.45,18-14.33,2.81-2.33,5.58-4.71,8.36-7.07s5.67-4.66,8.56-6.93,5.77-4.33,8.69-6.44q4.15-3,8.42-5.85c3-2,6-4,9-5.86s6.16-3.79,9.41-5.39c2.27-1.11,4.63-2.19,7.21-2.2a14.49,14.49,0,0,1,3.65.46,7.69,7.69,0,0,1,2,.83q.71.42,1.38.87l1.18,1a8.59,8.59,0,0,1,2.2,3.6,12.3,12.3,0,0,1,.53,4.23,19.26,19.26,0,0,1-1,5,38.63,38.63,0,0,1-2.89,6.67,83.71,83.71,0,0,1-4.41,7.24c-.94,1.46-1.88,2.91-2.87,4.33-2.06,3-4.13,5.94-6.26,8.86-4.29,5.89-8.6,11.76-13.11,17.47q-3.58,4.55-7.16,9.08c-2.1,2.68-4,5.46-6,8.26l-2.47,3.92c-.89,1.41-1.69,2.89-2.53,4.33-1.56,2.68-3,5.41-4.55,8.11-2.74,4.91-5.42,9.84-7.93,14.88-1.4,2.9-2.85,5.8-4,8.83,0,.17-.07.33-.11.5s0,.35,0,.54v.05l.27.07c.35.06.71.11,1.06.14s1,0,1.47,0c1-.1,2-.24,3-.42,1.43-.31,2.85-.65,4.26-1s3-.89,4.5-1.36l-.58.2c3.39-1.19,6.8-2.37,10.16-3.65q5.75-2.17,11.46-4.44c3-1.19,6-2.46,9-3.69,1.75-.72,3.49-1.48,5.26-2.15l6.38-2.43c1.37-.52,2.76-1,4.15-1.44,1.75-.59,3.49-1.23,5.27-1.73l5.82-1.64c.78-.22,1.6-.36,2.39-.54l3.59-.81c1.8-.4,3.63-.69,5.44-1s3.58-.6,5.37-.89c3.39-.55,6.79-1,10.2-1.45s6.85-.94,10.28-1.34c1.47-.17,3-.27,4.43-.32a20.44,20.44,0,0,1,2.59.14,5.15,5.15,0,0,1,3.11,1.57,5.36,5.36,0,0,1,1.34,3.08,7.37,7.37,0,0,1-.44,3.35,29.11,29.11,0,0,1-5,8.27c-.52.63-1,1.3-1.59,1.9L723.43,510c-1.19,1.26-2.52,2.41-3.78,3.6s-2.71,2.41-4.07,3.61-2.78,2.43-4.16,3.66c-2.91,2.57-5.82,5.15-8.78,7.67-2.7,2.3-5.48,4.52-8.26,6.74s-5.33,4.15-7.91,6.33c-2,1.67-3.91,3.35-5.85,5.06-2.36,2.13-4.7,4.29-7.18,6.28-1.43,1.16-2.86,2.28-4.34,3.37s-2.89,2.1-4.35,3.13c-2.92,2.07-5.82,4.15-8.69,6.29-2.71,2-5.34,4.15-7.9,6.36-2.34,2.14-4.66,4.29-6.91,6.53l-4,4c-1.3,1.3-2.64,2.59-3.88,4l-.26.33-.06.09,0,.07v.09c0,.11,0,.22,0,.33l.12.54.24.61c-.09-.16-.16-.31-.24-.47a11.36,11.36,0,0,0,.83,1.49c.54.74,1.09,1.44,1.69,2.12.89.93,1.81,1.82,2.77,2.69,2.58,2.19,5.35,4.14,8.12,6.09,1.74,1.23,3.49,2.47,5.25,3.68q5.8,4,11.66,7.94c6.19,4.07,12.42,8.1,18.52,12.32s12,8.91,17.82,13.59c2.72,2.19,5.44,4.38,8.2,6.53,3,2.33,6,4.59,9.06,6.85,2.71,2,5.41,4.09,7.91,6.34,1.4,1.26,2.8,2.51,4.16,3.81s2.71,2.65,4,4c.78.8,1.54,1.62,2.3,2.44a14.84,14.84,0,0,1,1.53,1.83,28.37,28.37,0,0,1,1.8,3,9.06,9.06,0,0,1,1.35,4.08,3.5,3.5,0,0,1-.12.91,6.37,6.37,0,0,1-.37,1.55,9.36,9.36,0,0,1-1.58,2.53,17.11,17.11,0,0,1-5.34,4.14,36.65,36.65,0,0,1-5.94,2.3c-1.22.36-2.45.64-3.69.93s-2.52.41-3.77.6-2.55.25-3.81.38-2.37.11-3.56.14-2.29.07-3.43,0l-4.54-.19c-1.26,0-2.51-.2-3.77-.31l-3.3-.3q-4.07-.41-8.13-.76c-2.67-.14-5.32-.25-8-.25h-4.63c-1.58,0-3.18-.09-4.77-.13-1.29,0-2.58-.15-3.87-.24s-2.65-.18-4-.31q-4.7-.42-9.37-.8c-2.69-.15-5.38-.28-8.07-.34s-5.35,0-8,0c-3.95-.05-7.92-.14-11.88-.08.22.53.45,1.06.7,1.59a49.66,49.66,0,0,0,2.7,4.56,103.81,103.81,0,0,0,7.17,8.88q3.46,3.69,7,7.37c2.64,2.78,5.3,5.55,7.87,8.4l4.47,5c1.15,1.28,2.21,2.63,3.3,4s2.26,2.63,3.31,4c1.39,1.82,2.78,3.65,4.18,5.47,4.23,5.55,8.28,11.24,12.35,16.91,2.37,3.31,4.74,6.62,7.07,10,.91,1.29,1.84,2.58,2.71,3.9l4,6c2,3,3.83,6.13,5.72,9.21,1,1.57,1.86,3.2,2.8,4.8s1.7,3,2.54,4.49c3.7,6.65,7.26,13.39,10.83,20.12,1.69,3.19,3.3,6.42,4.91,9.65.81,1.64,1.6,3.29,2.41,4.93a13.08,13.08,0,0,1,1,2.54,9.17,9.17,0,0,1,.36,2.07,6.83,6.83,0,0,1-1.28,4.07,8.41,8.41,0,0,1-3.08,2.47,16.93,16.93,0,0,1-2.4.91,14.8,14.8,0,0,1-3.11.47,34.31,34.31,0,0,1-5.73-.17,46,46,0,0,1-4.68-.75c-1.7-.32-3.37-.65-5-1.09s-3.47-.87-5.16-1.42l-3.46-1.12c-.72-.23-1.45-.44-2.16-.7L681.72,831c-1.68-.65-3.32-1.45-5-2.16s-3.46-1.57-5.19-2.35c-3.07-1.39-6.12-2.82-9.13-4.34-1.45-.72-2.94-1.4-4.35-2.2l-6.27-3.51c-3.07-1.72-6-3.61-9-5.44s-5.74-3.63-8.6-5.47q-4.89-3.15-9.74-6.35c-3.31-2.18-6.47-4.55-9.63-6.93-4.38-3.3-8.63-6.79-12.91-10.22-1.77-1.42-3.53-2.83-5.31-4.23.22,1.76.45,3.52.68,5.28s.52,3.27.79,4.9.5,3.18.78,4.76c1.36,7.37,2.78,14.72,4.07,22.11,1.33,7.59,2.72,15.17,3.84,22.8l.93,6.32c.3,2,.48,4.11.71,6.16.38,3.3.57,6.63.77,9.94.47,7.65,1.08,15.29,1.41,23,.08,1.79.07,3.57.05,5.37s-.19,3.84-.33,5.77a84.6,84.6,0,0,1-1.52,10.26c-.24,1.15-.47,2.29-.73,3.44a15.43,15.43,0,0,1-1.54,4,8.24,8.24,0,0,1-2.36,2.56,8.91,8.91,0,0,1-1.7.9,6.5,6.5,0,0,1-1.35.39,4.24,4.24,0,0,1-1.11.15h-1.23a6.53,6.53,0,0,1-1.76-.27,13.1,13.1,0,0,1-2.1-.66,15.81,15.81,0,0,1-2.46-1.33,23.47,23.47,0,0,1-2.06-1.49,30,30,0,0,1-3.89-3.75c-1.74-2-3.33-4-4.87-6.12-1.14-1.58-2.19-3.23-3.28-4.84-1-1.45-1.84-3-2.74-4.45q-2.61-4.33-4.91-8.83c-2.81-5.5-5.6-11-8.53-16.46-3-5.63-6.18-11.18-9.38-16.72-2.89-5-5.82-9.94-8.7-14.93-2.73-4.74-5.48-9.46-8.52-14,.05,2.51.17,5,.28,7.52.13,2.77.26,5.55.38,8.32q.36,8.31.73,16.6.39,8.52.88,17c.27,5,.63,9.91,1,14.87q.9,11.49,1.71,23c.26,3.58.39,7.18.57,10.76.09,1.63.09,3.25.13,4.87s.1,3.34.08,5c0,2.09,0,4.19-.07,6.28,0,1.84-.19,3.69-.35,5.51a45.12,45.12,0,0,1-1.35,7.64,19.84,19.84,0,0,1-2.21,5.09,12.13,12.13,0,0,1-3,3.38,23.63,23.63,0,0,1-2,1.39,13.24,13.24,0,0,1-2.31,1,13.71,13.71,0,0,1-2.81.68A25.14,25.14,0,0,1,523.77,961.07Z"/><path d="M473.15,578.23a9,9,0,0,1-4.59-5.59,12.07,12.07,0,0,1-.44-4.76,10.36,10.36,0,0,1,1.05-7.23,12,12,0,0,1,1.14-1.64c.1-.17.21-.32.32-.48a18.66,18.66,0,0,1,5.92-5.37,11.9,11.9,0,0,1,6.77-1.85,10.65,10.65,0,0,1,3.19.73,7.61,7.61,0,0,1,2.78,2.25,9.8,9.8,0,0,1,1.6,2.9,10.28,10.28,0,0,1,.68,3.19,14.18,14.18,0,0,1-.24,3.45,12.56,12.56,0,0,1-.7,6.58,15.57,15.57,0,0,1-1.89,3.44,17.36,17.36,0,0,1-2.48,2.59,11.26,11.26,0,0,1-7.27,2.38,7.37,7.37,0,0,1-2.13.31A8.38,8.38,0,0,1,473.15,578.23Z"/><path d="M537.65,582.63l-1.26-.27a5.21,5.21,0,0,1-1.1-.42,8.82,8.82,0,0,1-1.93-.73,10.34,10.34,0,0,1-2.79-2.07,9.72,9.72,0,0,1-1.74-2.81A13,13,0,0,1,528,573a11.91,11.91,0,0,1,.22-4.37,18,18,0,0,1,2.95-6.76,16.2,16.2,0,0,1,2.4-2.63c.32-.27.65-.53,1-.77a24.57,24.57,0,0,1,1.83-2.1,13.46,13.46,0,0,1,2.65-2,10.16,10.16,0,0,1,3.76-1.38,9.17,9.17,0,0,1,6.91,2.17c3.87,3,4.31,8.72,3.12,13.17a17.79,17.79,0,0,1-1.16,3,21.85,21.85,0,0,1-1.94,3.39,30,30,0,0,1-4.86,5.21,11.86,11.86,0,0,1-1.06.94,12.19,12.19,0,0,1-2.06,1.23,5.64,5.64,0,0,1-1.46.4,5.07,5.07,0,0,1-1.29.16h-.19A10.88,10.88,0,0,1,537.65,582.63Z"/><path d="M514.32,662.17a21.62,21.62,0,0,0,.95,2.21l.12.23c0-.82.11-1.64.19-2.46,0-.18-.06-.36-.08-.53-.14-1-.22-2-.3-3a49.82,49.82,0,0,1,0-6.35,33.39,33.39,0,0,1,.83-5.79h0l-.39.73c-.43.9-.81,1.81-1.15,2.75a29,29,0,0,0-.81,2.94,21.92,21.92,0,0,0-.31,2.3c0,.63,0,1.25,0,1.88.07.88.18,1.75.33,2.62v0C513.85,660.54,514.07,661.35,514.32,662.17Zm23.16,25a31.61,31.61,0,0,1-8.37-1.75c-1.34-.46-2.66-1-4-1.54a18.4,18.4,0,0,1-3.36-2.07,15.65,15.65,0,0,1-4.62-6.12A19.71,19.71,0,0,1,516,672a25.64,25.64,0,0,1-.57-3.58,17.44,17.44,0,0,1-1.84-2.2A21.22,21.22,0,0,1,510.14,653a31.72,31.72,0,0,1,5.25-14.08,49.91,49.91,0,0,1,10.33-11.37,31.59,31.59,0,0,1,6.14-4,32.72,32.72,0,0,1,8.11-2.68,24.83,24.83,0,0,1,15.56,2.19,26.05,26.05,0,0,1,11.28,10.54,26.32,26.32,0,0,1,2.63,7.09,52,52,0,0,1,1.17,8.79,56.21,56.21,0,0,1,0,8,27.53,27.53,0,0,1-5.7,14.5,37.68,37.68,0,0,1-5.56,5.87,51.61,51.61,0,0,1-6.58,4.91,30.39,30.39,0,0,1-7.05,3.41,22.46,22.46,0,0,1-6.84,1Z"/><path d="M1465,394.3a55.44,55.44,0,0,1-13.26-1.79,25.23,25.23,0,0,1-11.17-6.32c-3.08-3.13-5-7.23-6.4-11.33a74.19,74.19,0,0,1-3.32-13.12,44.48,44.48,0,0,1-.39-6.92c0-2.44.19-4.89.44-7.33a72.17,72.17,0,0,1,2.65-13.09c1.52-5,2.87-10.22,5.31-14.93a37.09,37.09,0,0,1,6.14-8.39,18.09,18.09,0,0,1,3.43-2.87,7.64,7.64,0,0,1,1.86-.91,2.88,2.88,0,0,1,1.54.08,1.52,1.52,0,0,1,.66,2.52l0,.05a8.22,8.22,0,0,1-1,1.1c-.82,1-1.6,2-2.33,3.05l.11-.17c-.22.33-.44.66-.67,1a52,52,0,0,0-2.75,4.73,40.31,40.31,0,0,0-1.65,4c-1,2.87-1.7,5.8-2.41,8.74-.59,2.41-1.17,4.8-1.69,7.22a76.8,76.8,0,0,0-1.22,9.19,71.49,71.49,0,0,0,0,8.66,39.06,39.06,0,0,0,.63,4.45,77,77,0,0,0,2.49,8.82,49.83,49.83,0,0,0,2.06,5c.38.73.78,1.45,1.23,2.14a18.73,18.73,0,0,0,1.16,1.5c.33.36.67.7,1,1s.74.59,1.13.86c.58.37,1.17.72,1.78,1a26.63,26.63,0,0,0,2.54,1.05,34.15,34.15,0,0,0,3.44.91,48.85,48.85,0,0,0,5.23.66,62.29,62.29,0,0,0,6.83.09c.47,0,.93-.09,1.39-.17l1-.28c.54-.21,1.07-.43,1.59-.67,1-.57,2-1.2,3-1.86,1.39-1,2.75-2,4.11-3.05,1.1-.83,2.2-1.66,3.27-2.54.32-.31.64-.62.94-1s.6-.75.89-1.13.5-.83.73-1.26a68.6,68.6,0,0,0,2.65-6.47c.51-1.55,1-3.11,1.51-4.66.25-.77.4-1.6.59-2.38s.4-1.61.59-2.41l.66-3.76c.18-1.05.28-2.11.41-3.17s.26-2.1.34-3.15c.1-1.29.19-2.57.29-3.86.07-1.64.1-3.27,0-4.91-.17-2-.48-4.05-.82-6.07a76.24,76.24,0,0,0-2-7.69c-.5-1.36-1-2.69-1.67-4-.45-.85-.94-1.67-1.46-2.48s-1.11-1.49-1.71-2.21c-.83-.91-1.71-1.78-2.63-2.61s-1.73-1.42-2.65-2.07a59.75,59.75,0,0,0-5.41-3,59.11,59.11,0,0,0-6-2.61c-.74-.24-1.5-.45-2.27-.63-.38-.07-.76-.13-1.14-.17s-.75,0-1.12,0l-.21,0-.23.07-.26.11c-.36.19-.71.39-1,.61-.89.68-1.72,1.42-2.57,2.15a4.49,4.49,0,0,1-2.86,1,4.68,4.68,0,0,1-3.3-8,34,34,0,0,1,3.14-2.74,13,13,0,0,1,6.27-2.58,17.81,17.81,0,0,1,6.69.7,42.59,42.59,0,0,1,6.63,2.55c2,.92,3.93,2,5.85,3a35.25,35.25,0,0,1,5.89,4.1,33.68,33.68,0,0,1,8.33,10.42c2.63,5.22,4,10.95,5,16.67.21,1.16.39,2.32.52,3.5a51.73,51.73,0,0,1,.26,7c0,1.66-.19,3.32-.28,5s-.36,3.62-.55,5.43c-.06.54-.17,1.07-.25,1.6-.18,1.07-.36,2.13-.53,3.2-.11.63-.27,1.26-.42,1.88-.26,1.12-.54,2.23-.8,3.35-.38,1.56-.93,3.08-1.42,4.6a53.3,53.3,0,0,1-4.22,10.18,18.91,18.91,0,0,1-3.94,4.78c-1,.91-2.13,1.73-3.22,2.55a88.7,88.7,0,0,1-8.09,5.65,20.89,20.89,0,0,1-5.83,2.34,21.71,21.71,0,0,1-5,.48C1466.4,394.34,1465.71,394.32,1465,394.3Z"/><path d="M1413.59,387a17.32,17.32,0,0,1-6.35-1.3,26.06,26.06,0,0,1-3.57-1.91c-1-.64-2.09-1.26-3.1-1.94a22.39,22.39,0,0,1-4.38-3.68A17.74,17.74,0,0,1,1393,373a48.22,48.22,0,0,1-2-7.51c-.58-2.56-1.22-5.12-1.83-7.68-.49-2-1-4-1.37-6.09a45.78,45.78,0,0,1-.68-12,45,45,0,0,1,2.6-11.79,62.05,62.05,0,0,1,3.39-7.59c1.26-2.46,2.52-4.92,4-7.27.81-1.32,1.58-2.65,2.45-3.93s1.78-2.67,2.73-4a45.55,45.55,0,0,1,5.8-6.83,22.77,22.77,0,0,1,3.86-2.92,23.34,23.34,0,0,1,4.21-2,15.83,15.83,0,0,1,8.88-.66,18.17,18.17,0,0,1,4.29,1.6,16.11,16.11,0,0,1,3.58,2.61c3.33,3.1,5,7.52,6.57,11.66a11.3,11.3,0,0,1,.93,6.37,5.61,5.61,0,0,1-.93,2.27.41.41,0,0,1-.33.18.37.37,0,0,1-.26-.61l.05-.1.12-.31.09-.32c.05-.31.09-.61.11-.92h0v0s0,0,0-.05a.11.11,0,0,1,0,.05q0-.33,0-.66v0h0c0-.33-.07-.66-.13-1a6.83,6.83,0,0,0-.27-.91,1,1,0,0,1,0,.1c-.17-.44-.35-.87-.55-1.3-.73-1.38-1.59-2.68-2.43-4l.1.15a40.4,40.4,0,0,0-2.74-3.65,20,20,0,0,0-1.53-1.52c-.43-.36-.86-.7-1.32-1s-.88-.54-1.33-.79a16.92,16.92,0,0,0-1.7-.71c-.5-.16-1-.29-1.52-.41s-1-.16-1.51-.21-1.18,0-1.77,0c-.33,0-.66.08-1,.14-.5.11-1,.25-1.49.41s-1.07.43-1.59.68c-.73.39-1.45.8-2.16,1.25-.51.37-1,.75-1.5,1.16a27.31,27.31,0,0,0-1.94,1.94,65.17,65.17,0,0,0-4.07,5.4c-.66,1-1.33,2.08-2,3.11-.52.81-1,1.64-1.48,2.47s-1,1.7-1.47,2.57c-.59,1.13-1.2,2.27-1.8,3.4l-1.5,3.09a55.87,55.87,0,0,0-2.46,5.81,45.43,45.43,0,0,0-1.35,4.86,43.33,43.33,0,0,0-.64,4.69,41.47,41.47,0,0,0,0,4.86,44.83,44.83,0,0,0,.65,4.89c.62,2.9,1.39,5.77,2.11,8.65.32,1.25.64,2.5.94,3.75.5,2.16.92,4.37,1.61,6.49.16.44.34.87.53,1.3.13.23.26.45.4.66s.47.63.72.93.49.52.76.76c.59.48,1.2.94,1.82,1.37,1.46.95,3,1.85,4.5,2.69.38.18.77.35,1.17.5s.56.16.84.22.75.12,1.12.15.92,0,1.38,0c.63-.06,1.25-.15,1.87-.26.87-.2,1.71-.44,2.55-.72a58.3,58.3,0,0,0,5.35-2.41c.07-.2.13-.4.2-.6a4.73,4.73,0,0,1,1.62-2.42,4.6,4.6,0,0,1,3.45-.92,4.67,4.67,0,0,1,4,5.2,13.41,13.41,0,0,1-.65,2.87,7.63,7.63,0,0,1-1.63,2.59,8.63,8.63,0,0,1-2.41,1.7l-1.19.58c-.75.37-1.49.74-2.25,1.08a37.21,37.21,0,0,1-5.91,2.14,23.9,23.9,0,0,1-6,.73Z"/><path d="M1410.68,371.25a10.24,10.24,0,0,1-4.72-1.94,10.69,10.69,0,0,1-3-3.39,15,15,0,0,1-1.69-4.5c0-.26-.09-.51-.13-.76a16.51,16.51,0,0,1,1.35-14.72,11.83,11.83,0,0,1,3.47-3.54,11.31,11.31,0,0,1,3.14-1.4,10.66,10.66,0,0,1,.89-.6,5.38,5.38,0,0,1,.84-.4,16.86,16.86,0,0,1,2.07-1.37,8.17,8.17,0,0,1,4.15-1.06,5.06,5.06,0,0,1,3.35,1.54,8.38,8.38,0,0,1,2.2,3.88c.22.73.35,1.49.5,2.24a19.51,19.51,0,0,1,.32,2.52c0,.42.06.83.09,1.25a16,16,0,0,1,.88,4.89,22.29,22.29,0,0,1-.3,4.83,17.36,17.36,0,0,1-1.53,4.92,15.59,15.59,0,0,1-2.71,3.87,13.14,13.14,0,0,1-4.39,2.85,10.74,10.74,0,0,1-4.06.93A5.85,5.85,0,0,1,1410.68,371.25Z"/><path d="M1447.94,374.89a6.34,6.34,0,0,1-1.61-1.88,11.75,11.75,0,0,1-1-2.24,22.47,22.47,0,0,1-1-5.44q-.07-1.26,0-2.55a19,19,0,0,1-.19-4.76,16.82,16.82,0,0,1,4.58-10.19,10.38,10.38,0,0,1,4.44-2.69,9.33,9.33,0,0,1,9.89,3.09,11.45,11.45,0,0,1,2.36,5,16.22,16.22,0,0,1,.32,4.55l0,.39a13.36,13.36,0,0,1-.66,5.95,12.45,12.45,0,0,1-3.2,5l-.3.46a21.14,21.14,0,0,1-3.85,4.49,8.22,8.22,0,0,1-4.58,2.34l-.69,0A7.68,7.68,0,0,1,1447.94,374.89Z"/><path d="M1434.19,495.13c-1.93-.12-3.85-.3-5.78-.5a83.53,83.53,0,0,1-10.06-1.59c-.71-.16-1.44-.29-2.13-.5l-2.66-.82a35.4,35.4,0,0,1-12.21-6.33c-.89-.73-1.74-1.51-2.59-2.28s-1.63-1.48-2.41-2.26a34.44,34.44,0,0,1-4.14-4.89,23.66,23.66,0,0,1-1.74-3,21.78,21.78,0,0,1-1.37-3.69,39.49,39.49,0,0,1-1.18-10.16c0-1.76,0-3.52.12-5.28a68.48,68.48,0,0,1,.81-7.56,33.43,33.43,0,0,1,1.85-6.59,32.72,32.72,0,0,1,3.3-6.07,48.33,48.33,0,0,1,4-5.12,31.89,31.89,0,0,1,4.66-4.41l2.2-1.66a38.7,38.7,0,0,1,5.83-3.51,33.38,33.38,0,0,1,3.62-1.46c.83-.3,1.65-.61,2.48-.86l2.85-.86a44.3,44.3,0,0,1,5.79-1.27,50.06,50.06,0,0,1,11-.29c2.49.13,5,.24,7.47.46,1.55.13,3.09.26,4.63.44a36,36,0,0,1,9.54,2.34,16.92,16.92,0,0,1,6.2,4.36h0a24.1,24.1,0,0,1,5.81,2.18c1.44.74,2.76,1.68,4.16,2.48a37,37,0,0,1,4.47,2.82,36.55,36.55,0,0,1,3.76,3.27,39.25,39.25,0,0,1,3.34,4.05,42.27,42.27,0,0,1,2.73,4.39,21.49,21.49,0,0,1,2.68,7.34,27,27,0,0,1,.17,3.81c0,.89,0,1.77-.09,2.65s-.14,1.87-.24,2.81c-.09.77-.25,1.53-.39,2.3a42.39,42.39,0,0,1-1.45,5.3,48.49,48.49,0,0,1-1.92,4.8,37.9,37.9,0,0,1-2.25,4.28,29.74,29.74,0,0,1-3.24,4.16,22.86,22.86,0,0,1-1.67,1.59c-.77.7-1.58,1.38-2.38,2.05-1.29,1.08-2.64,2.06-4,3a35.64,35.64,0,0,1-4.62,2.72,46.31,46.31,0,0,1-4.92,2.1c-1.67.64-3.38,1.2-5.07,1.78-1.47.51-2.94,1.06-4.43,1.48-.74.22-1.47.45-2.23.62-1.07.23-2.14.44-3.22.61-1.68.27-3.38.38-5.08.51s-3.35.19-5,.22l-2.29,0C1436,495.2,1435.11,495.18,1434.19,495.13Z"/></svg>