<svg id="Layer_1" data-name="Layer 1" xmlns="http://www.w3.org/2000/svg" viewBox="0 0 1920 1080"><defs><style>.cls-1{fill:blue;opacity:0.2;}.cls-2{fill:#fff;}.cls-3{font-size:60px;font-family:VarelaRound-Regular, Varela Round;}.cls-4{letter-spacing:0em;}.cls-5{letter-spacing:0em;}.cls-6{letter-spacing:-0.01em;}.cls-7{letter-spacing:0em;}.cls-8{letter-spacing:-0.01em;}.cls-9{letter-spacing:-0.01em;}.cls-10{letter-spacing:-0.04em;}.cls-11{letter-spacing:0em;}.cls-12{letter-spacing:-0.01em;}.cls-13{fill:#ffdc00;}</style></defs><circle class="cls-1" cx="1505.5" cy="362.5" r="327.5"/><path class="cls-2" d="M1739.72,395c0,23.17,43.85,90.84.75,107.37-26.8,10.28-103.44,22.47-141.42,28.44-39.83,6.25-153.88,12-201.28,12-50.88,0-148.1,2.65-190-4.49-38-6.46-63-53.14-68.09-80.81-11.22-60.61-2.72-73.07,14.22-86.8,43.4-35.16,62.1-20.2,104-17.21,25.92,1.85,29.13-33.09,57.62-55.37,41.15-32.17,24.69-122,158.62-122,49.23,0,76.52,31.81,113,51.63,34.42,18.71,29.27,83.92,53.87,92.78C1687.65,337.34,1739.72,370.73,1739.72,395Z"/><path d="M1314.87,544.86c-6.36-.06-12.72-.34-19.06-.6q-10.95-.45-21.91-.72l-9.75-.26c-3.29-.09-6.6-.22-9.88-.46s-6.72-.46-10.08-.78c-3.64-.34-7.27-.68-10.91-1s-7-.66-10.58-1c-2.92-.26-5.86-.48-8.78-.79l-6.24-.68c-1.58-.18-3.14-.46-4.71-.7-2.45-.37-4.86-.81-7.29-1.35a80.56,80.56,0,0,1-10.83-3.32l-5.34-2c-1.73-.64-3.42-1.41-5.12-2.12-1.24-.51-2.45-1.06-3.67-1.62-1.66-.76-3.33-1.49-5-2.34s-3.56-1.84-5.28-2.85a66.57,66.57,0,0,1-9.45-6.68,53.68,53.68,0,0,1-7.73-7.64c-1.14-1.44-2.22-2.89-3.29-4.39s-2-3-3-4.54a85.31,85.31,0,0,1-5-9.23c-.36-.75-.63-1.55-.94-2.32-.23-.57-.44-1.14-.65-1.73-.69-2-1.37-4-2-6-1-3.29-1.93-6.6-2.79-9.92-.41-1.56-.75-3.13-1.1-4.71-.21-1-.47-1.93-.62-2.9s-.28-1.94-.43-2.9a86.69,86.69,0,0,1-.79-10.43c-.1-3.23-.1-6.47.07-9.69.12-2.28.22-4.56.42-6.83a78.43,78.43,0,0,1,2.53-14.24,86.78,86.78,0,0,1,4.88-12.92c.92-2,2-4,3-6,.68-1.33,1.45-2.6,2.2-3.89s1.63-2.77,2.49-4.13c1-1.53,1.91-3.1,3-4.59l3.52-5c.89-1.26,1.89-2.44,2.83-3.65s1.8-2.27,2.76-3.37c1.26-1.47,2.53-2.93,3.79-4.39s2.71-2.87,4.08-4.28c.92-.94,1.81-1.89,2.79-2.77q2.36-2.1,4.7-4.21c1.36-1.21,2.86-2.28,4.31-3.39s2.75-2,4.17-2.95c1.26-.85,2.5-1.74,3.82-2.51,1.75-1,3.49-2.12,5.31-3,2.47-1.23,4.91-2.47,7.47-3.51a58.87,58.87,0,0,1,15.52-3.81,60,60,0,0,1,20.28,1.62l2.82.67a53,53,0,0,1,7.14,2.39,56.09,56.09,0,0,1,13.71,8c2.48,1.91,4.73,4.1,7,6.23l4.34,4.1h0a84.55,84.55,0,0,0,6.78,5.48l.24.13a.67.67,0,0,1,.07,1.33,1,1,0,0,1-.42,0,20.86,20.86,0,0,1-2.63-1.21,57.86,57.86,0,0,1-5.36-3.2c-1.52-1-2.95-2.1-4.42-3.16s-3.07-2.19-4.6-3.28c-1.84-1.2-3.7-2.34-5.66-3.36a53.08,53.08,0,0,0-5.54-2.38c-1.93-.64-3.87-1.18-5.86-1.63s-4.23-.72-6.37-.94c-1.43-.08-2.87-.23-4.3-.22-2.6,0-5.19,0-7.78.13a60.36,60.36,0,0,0-6.28.86c-2.17.5-4.29,1.11-6.39,1.81s-4.4,1.75-6.54,2.79c-2.33,1.22-4.58,2.58-6.84,3.92-.68.4-1.32.88-2,1.31l-2.25,1.5-4.71,3.5c-.87.65-1.67,1.4-2.5,2.09l-2.07,1.71-5,4.75c-.86.83-1.64,1.78-2.45,2.66l-2.51,2.7c-2.08,2.51-4.18,5-6.14,7.61-1,1.31-2,2.6-2.94,4l-2.76,4.06q-1.63,2.64-3.26,5.29c-1.1,1.77-2.07,3.64-3.09,5.45-.62,1.23-1.23,2.46-1.84,3.69a80.23,80.23,0,0,0-3.62,8.55,70.18,70.18,0,0,0-2.1,7.54c-.55,2.95-.91,5.92-1.17,8.91-.14,2.65-.29,5.29-.3,8,0,1.27-.06,2.56,0,3.84l.15,4.57c.11,1.28.21,2.56.31,3.84.07.77.24,1.56.36,2.32s.21,1.41.31,2.11c.3,1.34.59,2.68.89,4,.36,1.67.86,3.32,1.29,5,.78,3,1.72,5.93,2.63,8.87.46,1.32.92,2.63,1.45,3.92s1.18,2.72,1.82,4.06,1.37,2.51,2.11,3.73,1.58,2.53,2.39,3.78l1.76,2.47c.6.85,1.29,1.66,2,2.49.51.56,1,1.12,1.54,1.69s1.31,1.25,2,1.86c1.84,1.56,3.71,3.07,5.69,4.47,1.63,1.08,3.3,2.11,5,3l3.32,1.75c3,1.35,5.9,2.67,8.89,3.91s6,2.37,9,3.5c1.61.54,3.22,1.07,4.86,1.54s3.06.78,4.6,1.1c4.86.94,9.79,1.45,14.71,2,4.5.49,9,.81,13.54,1.22,4.2.38,8.4.81,12.6,1.21,4.49.42,9,.77,13.51,1.1,6.6.3,13.2.51,19.81.67,7.05.17,14.1.43,21.15.72,13,.53,26.06.86,39.08.46,7-.22,14-.45,21-.58,7.24-.13,14.49-.26,21.73-.45,13.73-.34,27.45-.95,41.16-1.72,11.18-.63,22.35-1.36,33.53-2.1q10.62-.8,21.25-1.55c6.25-.45,12.51-.88,18.77-1.18l12.08-.58c3.63-.17,7.28-.25,10.91-.37,6.47-.21,12.93-.4,19.39-.71l6.77-.33c13.54-.93,27.07-2,40.6-3.06,13-1,26-1.81,39-2.79s25.78-2,38.65-3.32c6.24-.64,12.48-1.38,18.7-2.15,3.2-.4,6.39-.84,9.59-1.28,2.85-.39,5.69-.92,8.52-1.39l6.44-1.34c1.38-.29,2.75-.72,4.12-1.08,1.71-.46,3.39-.94,5.07-1.49,2.16-.79,4.26-1.67,6.33-2.67,1.39-.74,2.76-1.52,4.1-2.37,1-.69,1.91-1.42,2.83-2.18s1.65-1.58,2.43-2.42a72.8,72.8,0,0,0,4.51-5.85c1.9-2.87,3.62-5.84,5.37-8.8.48-.82.87-1.69,1.3-2.54s1-2,1.51-3c1.06-2.31,2-4.64,2.92-7a103.86,103.86,0,0,0,3-11c.47-2.44.8-4.9,1.17-7.36.26-1.75.36-3.52.51-5.28.1-2.66.07-5.3-.08-8-.26-3.07-.74-6.11-1.17-9.15-.47-2.16-.92-4.31-1.39-6.46-.22-1-.6-2-.89-3l-1.15-3.88q-1.1-3-2.21-5.94c-.3-.82-.71-1.61-1.06-2.4-.46-1.05-.93-2.09-1.39-3.14l-2.18-4.14c-.72-1.36-1.54-2.67-2.34-4s-1.7-2.84-2.63-4.22l-2.7-4-4.05-5.32c-.55-.72-1.17-1.38-1.75-2.06l-2.08-2.45c-2.17-2.33-4.33-4.65-6.57-6.91s-4.41-4.29-6.65-6.39c-2.23-1.87-4.44-3.74-6.74-5.51-1.07-.82-2.13-1.67-3.24-2.45l-3.93-2.74c-2.71-1.68-5.39-3.37-8.22-4.85-1.7-.81-3.42-1.53-5.19-2.19a63.37,63.37,0,0,0-6.9-1.88c-2.2-.41-4.41-.67-6.63-1-1.35-.17-2.72-.25-4.09-.34-2.07-.09-4.13-.19-6.19-.21-2.3,0-4.59,0-6.89.11-1.92.13-3.84.28-5.75.48-2.14.21-4.27.47-6.4.74s-4.46.51-6.67.85c-1.08.17-2.17.29-3.24.51L1626,341c-2.47.66-4.93,1.35-7.38,2.09l.35-.12c-.85.29-1.73.57-2.55.93l-3.36,1.46-3,1.53c-1.43.72-2.8,1.57-4.19,2.35-2.68,1.5-5.31,3.09-8,4.62-5.5,3.19-10.94,6.47-16.29,9.92a7.93,7.93,0,0,1-6.22.81,8.06,8.06,0,0,1-4.25-12.72,9.19,9.19,0,0,1,2.31-2c5.43-3.64,11-7.05,16.61-10.36,6-3.53,11.93-7.21,18.3-10a84,84,0,0,1,20.94-5.77c3.2-.49,6.44-.84,9.66-1.23,3.43-.41,6.86-.72,10.31-1s6.91-.22,10.37-.19c1.84,0,3.72.12,5.56.27,1.59.12,3.21.17,4.8.38l5,.66a60,60,0,0,1,6.24,1.28,66.34,66.34,0,0,1,7.29,2.31,55.59,55.59,0,0,1,5.91,2.62c1.37.7,2.76,1.41,4.07,2.23l4.94,3.06c1.74,1.08,3.39,2.34,5.07,3.52,1.4,1,2.73,2,4.08,3.07,1.13.87,2.23,1.75,3.32,2.67,1.47,1.24,3,2.44,4.41,3.76l4.25,4c1.29,1.21,2.5,2.51,3.75,3.77,1,1,2,2,2.92,3.06,1.27,1.37,2.57,2.72,3.78,4.14l3.76,4.44c1.17,1.37,2.2,2.88,3.3,4.32.87,1.15,1.68,2.35,2.49,3.55,1,1.49,2.09,2.95,3,4.49l3,5c.8,1.31,1.49,2.66,2.2,4s1.56,2.85,2.22,4.33c.77,1.74,1.54,3.49,2.32,5.23.25.56.43,1.16.64,1.74l1.2,3.23c.57,1.52,1.09,3.05,1.55,4.61l1.56,5.32c.17.57.26,1.18.38,1.75l.84,3.92c.29,1.39.58,2.77.78,4.19.27,2,.55,3.92.82,5.87.17,1.19.22,2.41.29,3.6s.14,2.49.18,3.73a56,56,0,0,1-.17,6.48l-.48,5.37c-.06.68-.21,1.36-.31,2l-.51,3.39a92.92,92.92,0,0,1-2.36,10.68,90.35,90.35,0,0,1-4.66,12.94c-1,2.2-2.14,4.33-3.23,6.47a104.87,104.87,0,0,1-5.61,9.62,74.36,74.36,0,0,1-7.66,10.17,47,47,0,0,1-11.2,8.9,62.78,62.78,0,0,1-11.49,5.11c-2.37.79-4.75,1.43-7.17,2.07-3.23.85-6.49,1.49-9.76,2.17-1.76.36-3.53.63-5.3.92-1.48.25-3,.51-4.45.71-3.58.49-7.17,1-10.76,1.42-13.68,1.7-27.39,3-41.12,4.17-13.44,1.11-26.9,1.93-40.35,2.92q-21.15,1.57-42.29,3.27-9.9.76-19.81,1.24c-6.6.33-13.21.53-19.82.75q-10.47.35-20.94.83c-5.87.28-11.73.67-17.59,1-13.48,1-27,2-40.45,2.81s-26.71,1.69-40.08,2.19c-7,.26-14,.52-21,.7-7.29.18-14.57.3-21.86.44-6.86.12-13.72.37-20.58.58-3,.1-6.08.13-9.12.13C1321.92,544.93,1318.4,544.88,1314.87,544.86Z"/><path d="M1640,327.79a1.16,1.16,0,0,1-1.13-1.43s0,0,0,0,0-.11,0-.17,0-.23,0-.34-.06-.46-.11-.69c-.43-1.93-.93-3.84-1.48-5.75s-1.26-4-2-6l-.93-2.26c-.31-.76-.58-1.56-.94-2.3-.78-1.61-1.55-3.22-2.33-4.82-1.64-3-3.29-6-5-8.9s-3.54-5.69-5.36-8.52-3.87-5.48-5.91-8.14-4.2-5.39-6.34-8.06l-6.83-8.46c-2.11-2.61-4.27-5.17-6.44-7.73l-3.53-3.82c-1-1.08-2-2.09-3.1-3.12s-2.18-2.17-3.32-3.19l-3.92-3.55c-2.14-1.77-4.26-3.57-6.49-5.24-1.2-.9-2.36-1.85-3.61-2.69l-4.45-3c-3.75-2.29-7.49-4.6-11.35-6.7q-6.07-3.3-12.2-6.48c-2.55-1.26-5.1-2.53-7.68-3.74q-5-2.32-10-4.63l-9.52-4.34c-2.79-1.27-5.68-2.36-8.51-3.53l-5.9-2c-1.74-.6-3.51-1-5.29-1.52s-3.63-1-5.48-1.39l-6.1-1.26c-3.91-.67-7.81-1.33-11.74-1.86-1.78-.24-3.55-.5-5.34-.67l-6.64-.64a173.6,173.6,0,0,0-19.22-.33,80.31,80.31,0,0,0-8.75,1.18,76.2,76.2,0,0,0-8,2.18c-2.94,1.07-5.78,2.34-8.65,3.58l-4.39,2.24c-1.64.84-3.21,1.84-4.8,2.76-3,1.72-5.83,3.62-8.71,5.48-1.63,1.11-3.25,2.23-4.83,3.42s-3.08,2.45-4.59,3.72c-1.76,1.65-3.51,3.29-5.21,5s-3.55,3.66-5.24,5.56a54.05,54.05,0,0,0-3.43,4.4c-.94,1.44-1.8,2.94-2.61,4.46-.52,1.06-1,2.13-1.55,3.2s-1,2.32-1.41,3.48a65.88,65.88,0,0,0-2,6.6c-.13.82-.24,1.65-.33,2.48a7.88,7.88,0,0,1-2.22,5.32,7.57,7.57,0,0,1-12.92-5.35,28.71,28.71,0,0,1,1-7.49c.59-2.2,1.33-4.35,2.08-6.51a44.45,44.45,0,0,1,2-5l1.56-3.24a58.12,58.12,0,0,1,4.41-7.45,80.62,80.62,0,0,1,7.42-8.88c1.38-1.51,2.82-3,4.25-4.46s2.9-2.85,4.42-4.18,3.17-2.78,4.83-4.08c3.34-2.6,6.81-5,10.35-7.34,3.37-2.2,6.74-4.46,10.3-6.35,2-1.06,4-2.18,6-3.1,2.8-1.25,5.57-2.51,8.47-3.55a77.84,77.84,0,0,1,17.5-4.08,87.71,87.71,0,0,1,11.91-.53c1.94,0,3.89,0,5.83.12l7.24.43c2.41.14,4.81.44,7.21.69,1.74.17,3.45.4,5.17.64s3.71.48,5.55.81L1487,178c2.36.41,4.69,1,7,1.5,1.67.36,3.29.77,4.93,1.23,2.25.63,4.54,1.17,6.74,1.95l6.95,2.47c1.66.59,3.25,1.32,4.86,2s3.33,1.39,5,2.17q6.22,3,12.42,5.94c3.5,1.69,7,3.37,10.43,5.17,3.92,2,7.8,4.15,11.67,6.28,3.64,2,7.17,4.22,10.7,6.41A124.28,124.28,0,0,1,1587.3,228a121.92,121.92,0,0,1,8.72,8.89c1.35,1.55,2.79,3,4,4.67l4.1,5.28c.54.68,1,1.44,1.51,2.15l2.34,3.34c1.26,1.8,2.44,3.66,3.65,5.49q3.15,4.77,6.18,9.61c2.07,3.32,4.16,6.64,6,10.08,1.06,2,2.18,3.91,3.15,5.92s2,4,3,6.08c1.83,3.76,3.43,7.63,5.06,11.48a106,106,0,0,1,3.79,11.24c.4,1.37.67,2.8,1,4.19s.56,2.64.79,4a45.19,45.19,0,0,1,.73,4.78c.07.94.05,2.65-1.29,2.65Z"/><path d="M1259.94,414.68a22.66,22.66,0,0,1-4.32-4.64,23.51,23.51,0,0,1-2.56-6,47.37,47.37,0,0,1-1.41-5.09,43.83,43.83,0,0,1-.85-9.07,94.58,94.58,0,0,1,.91-11.27l.39-3.08c.11-.87.33-1.74.5-2.59.4-2.09.74-4.19,1.3-6.24.61-2.22,1.12-4.5,1.9-6.68s1.55-4.33,2.33-6.49c.26-.72.62-1.41.93-2.1l1.79-4c.85-1.91,1.89-3.73,2.87-5.58.44-.83.89-1.66,1.33-2.5s.89-1.44,1.33-2.15c1.12-1.81,2.2-3.66,3.42-5.39s2.59-3.68,3.89-5.51c.52-.75,1.12-1.44,1.68-2.16l2.47-3.16c1.27-1.63,2.64-3.19,4-4.78,1.17-1.4,2.37-2.77,3.57-4.15s2.51-2.94,3.83-4.35l4.85-5.2c.48-.52,1-1,1.52-1.47l3.23-3.14c1.3-1.27,2.65-2.46,4-3.67s2.94-2.65,4.45-3.94q5.09-4.35,10.23-8.64c3.19-2.66,6.5-5.16,9.83-7.64,1.61-1.2,3.28-2.3,4.94-3.43.82-.55,1.62-1.16,2.47-1.67l2.7-1.63,2.93-1.77c.74-.45,1.54-.83,2.31-1.25,1.89-1,3.76-2,5.69-2.89,3.87-1.82,7.81-3.46,11.77-5.07,1.86-.75,3.74-1.42,5.61-2.11a61.86,61.86,0,0,1,6.07-1.91,38.94,38.94,0,0,1,7.66-1.29,29.31,29.31,0,0,1,4.19.08,21.69,21.69,0,0,1,4.28.95,26.83,26.83,0,0,1,4,1.66,25.72,25.72,0,0,1,3.61,2.16,20.61,20.61,0,0,1,3.08,2.59,4.51,4.51,0,0,1,1.19,1.9,1.28,1.28,0,0,1-.87,1.57,1.25,1.25,0,0,1-1.53-.87l0,0a.08.08,0,0,0,0-.05c-.08-.13-.17-.25-.25-.37l.1.12a7,7,0,0,0-.75-.79c-.47-.4-1-.77-1.45-1.12a26.63,26.63,0,0,0-2.58-1.5,29.49,29.49,0,0,0-2.89-1.23c-.79-.26-1.59-.49-2.41-.69a26,26,0,0,0-3-.43c-.66,0-1.3,0-2,0l.27,0a33.19,33.19,0,0,0-3.72.48,40.18,40.18,0,0,0-4.74,1.36c-1.93.7-3.8,1.54-5.65,2.41s-3.57,1.79-5.3,2.77c-2.18,1.23-4.36,2.46-6.51,3.73s-4.06,2.45-6.08,3.69c-1.72,1.06-3.38,2.23-5,3.36q-2.25,1.62-4.48,3.26c-1.24.9-2.43,1.87-3.62,2.83s-2.28,1.78-3.37,2.72l-4.07,3.52q-7,6.46-14,13c-2.39,2.26-4.74,4.57-7.1,6.87-.87.85-1.69,1.75-2.53,2.62-1.07,1.11-2.19,2.19-3.22,3.33l-5.2,5.91q-4.79,5.81-9.49,11.68c-2.87,3.59-5.48,7.38-8.1,11.16l-3.84,6.26c-.62,1-1.12,2.11-1.67,3.16l-1.56,2.95c-1,2.18-1.95,4.37-2.92,6.56-.45,1-.77,2.14-1.15,3.2s-.69,1.92-1,2.87l-1.8,6.5c-.18,1-.37,1.91-.55,2.87s-.51,2.19-.65,3.3c-.39,3-.82,6.06-1.06,9.11-.11,1.94-.15,3.89-.07,5.83.1,1.18.26,2.34.47,3.5s.52,2,.82,3a44.07,44.07,0,0,0,1.58,4.14c0,.09.1.18.16.27.27.37.54.72.83,1.07s.5.55.76.82a6.47,6.47,0,0,1-3.7,11,6.25,6.25,0,0,1-.87.06A6.15,6.15,0,0,1,1259.94,414.68Z"/><circle class="cls-1" cx="356.5" cy="551.5" r="327.5"/><text class="cls-3" transform="translate(130.45 106.49)">I <tspan class="cls-4" x="32.7" y="0">s</tspan><tspan x="61.26" y="0">till rise </tspan><tspan class="cls-5" x="260.87" y="0">e</tspan><tspan class="cls-6" x="294.53" y="0">v</tspan><tspan x="325.91" y="0">ery morning, </tspan><tspan x="0" y="72">so I’ll see </tspan><tspan class="cls-6" x="270.05" y="72">y</tspan><tspan x="301.85" y="72">ou </tspan><tspan class="cls-6" x="390.47" y="72">t</tspan><tspan class="cls-7" x="412.97" y="72">omor</tspan><tspan class="cls-8" x="563.99" y="72">r</tspan><tspan class="cls-9" x="586.07" y="72">o</tspan><tspan class="cls-10" x="622.13" y="72">w</tspan><tspan x="667.25" y="72">.</tspan></text><text class="cls-3" transform="translate(1183.45 827.49)">OK, I’ll talk <tspan class="cls-6" x="316.85" y="0">t</tspan><tspan x="339.35" y="0">o </tspan><tspan class="cls-9" x="391.43" y="0">y</tspan><tspan class="cls-11" x="423.23" y="0">ou then, </tspan><tspan x="0" y="72">if </tspan><tspan class="cls-6" x="53.46" y="72">y</tspan><tspan x="85.26" y="72">ou </tspan><tspan class="cls-4" x="173.88" y="72">m</tspan><tspan x="228.72" y="72">u</tspan><tspan class="cls-4" x="265.26" y="72">s</tspan><tspan x="293.82" y="72">t g</tspan><tspan class="cls-12" x="370.2" y="72">o</tspan><tspan x="406.07" y="72">.</tspan></text><path class="cls-13" d="M255.79,983.88c-14.06-2.14-28.45-6.9-39.53-16.12A83.86,83.86,0,0,1,205,956.51a85.53,85.53,0,0,1-5.77-8.23A98.74,98.74,0,0,1,192,934.42c-2.33-5.07-4.11-10.41-6-15.66-1.58-4.4-3.12-8.81-4.74-13.19-.92-2.48-2-4.89-3.13-7.27-2.43-4.18-5-8.28-7.59-12.34-1-1.4-2-2.8-3-4.16-2-2.66-4-5.49-6.15-8L158,870c-1.8-2-3.82-3.82-5.75-5.7-2.34-2-4.7-3.91-7.15-5.77-3.82-2.89-7.74-5.63-11.65-8.39-7.43-5.23-14.71-10.69-21.76-16.42-4.08-3.32-8.2-6.63-12-10.33A72.28,72.28,0,0,1,80.5,789a78.57,78.57,0,0,1-2.26-16.12c-.21-5.55.86-10.65,2-16A61.11,61.11,0,0,1,81.92,751c1.31-4.08,2.71-8.18,4.19-12.2,1.66-4.49,3.38-8.93,5.28-13.32a71.14,71.14,0,0,1,5.88-11.2,78,78,0,0,1,5.91-8.23c1.68-1.93,3.35-3.86,5.08-5.72a79.86,79.86,0,0,1,6.23-5.65,56,56,0,0,1,11.25-7.53,106.61,106.61,0,0,1,11.31-5.28q6-2.18,12.06-4.12c-1.36-4.89-2.33-10-3.25-14.89a115.09,115.09,0,0,1-2-18.36,71.17,71.17,0,0,1,2.45-19.26,87.42,87.42,0,0,1,7.33-18c6-11.69,14.58-21.7,24.21-30.49,8.14-7.43,16.78-14.25,25.49-21,4.45-3.46,9.19-6.65,14-9.66,3.08-2,6.15-3.86,9.36-5.6a158.53,158.53,0,0,1,24.91-10.84,160.29,160.29,0,0,1,22.19-5.42A169.68,169.68,0,0,1,297,521.81a174.4,174.4,0,0,1,31.14,1.79c5,.66,10.07,1.7,15,2.84,2.72.63,5.45,1.27,8.15,2q1.69-2.65,3.64-5.16a72.13,72.13,0,0,1,20.63-18.15,75.13,75.13,0,0,1,26.53-9.16c4.51-.73,9-1.55,13.55-1.87,7.6-.52,15.13-1.06,22.74-.89,12.13.29,24.38.49,36.36,2.52,12.15,2.07,24.26,5.21,35.47,10.43a126.68,126.68,0,0,1,15.91,8.43c3.72,2.41,7.45,4.88,11,7.52,3.77,2.78,7.31,6.16,10.76,9.21a65,65,0,0,1,5,4.87,141,141,0,0,1,10.42,12.32,125,125,0,0,1,8.91,13.66c2,3.71,3.91,7.47,5.6,11.33s2.87,7.94,4.22,11.91c.33,1,.59,2,.84,3,1,4.12,1.85,8.29,2.52,12.48a91.82,91.82,0,0,1,1.07,16.4A119,119,0,0,1,583,642.84a114.16,114.16,0,0,1-5.26,15.58l0,.05c1.23,1.45,2.44,2.91,3.66,4.37,4.06,4.89,8.14,9.83,11.9,15a140,140,0,0,1,17.23,30A135.64,135.64,0,0,1,616,724a106.59,106.59,0,0,1,3.4,18.31c.34,4.27.76,8.71.71,13a113,113,0,0,1-.92,12.86,93,93,0,0,1-3.95,17.72,144.1,144.1,0,0,1-6,15.78c-1.68,3.59-3.49,7.12-5.34,10.62-2.44,4.61-5,9.15-7.56,13.68-2,3.51-4,7-6.25,10.43-5.37,8.25-10.63,16.6-16.73,24.34-9.54,12.09-20.62,22.81-31.58,33.58-8.72,8.56-17.57,16.95-26.84,24.9a228.22,228.22,0,0,1-22,16.13,212.73,212.73,0,0,1-23.81,13.25,163.22,163.22,0,0,1-18.5,7.82c-8.74,3.1-17.49,6.17-26.57,8.13-3.89.84-7.93,1.76-11.92,2.31s-8.15.73-12.2,1c-8.38.53-16.47-1-24.6-2.75a67.41,67.41,0,0,1-11.06-3.78,61.71,61.71,0,0,1-7.93-4c-4.33,3-8.79,5.8-13.32,8.43s-9.12,4.88-13.8,7.05A161.35,161.35,0,0,1,314,978.55a124,124,0,0,1-25.47,5.72,127.56,127.56,0,0,1-15.15.92A117.71,117.71,0,0,1,255.79,983.88Z"/><path d="M432.39,571.94c.07.14.13.29.19.43s0,0,0,0a2.63,2.63,0,0,1-.23-.63ZM383.9,907.4q-5.2-.07-10.4-.44c-4.08-.27-8.17-.49-12.24-.92-8-.84-16.07-1.64-24.06-2.74-4-.55-8.09-1-12.1-1.71-5.86-1-11.72-2-17.51-3.35a146.26,146.26,0,0,1-16.87-5.11c-2.1-.76-4.16-1.67-6.24-2.52-1.54-.63-3.1-1.2-4.61-1.9l-7-3.22c-4.05-1.85-8.05-3.82-12.06-5.76-3.48-1.67-6.86-3.54-10.27-5.33-1.9-1-3.73-2.18-5.54-3.32q-4-2.52-7.7-5.39c-2.28-1.76-4.48-3.63-6.62-5.56-1.59-1.44-3.19-2.91-4.68-4.46l-5.29-5.51c-1.17-1.22-2.33-2.43-3.42-3.72-1.72-2.05-3.45-4.1-5.17-6.16-2.56-3-4.91-6.26-7.18-9.52a136.94,136.94,0,0,1-16-31.1,107.72,107.72,0,0,1-4.55-17.12c-.41-2.17-.65-4.38-1-6.56-.27-1.79-.5-3.55-.64-5.35-.19-2.51-.37-5-.56-7.53-.15-1.85-.1-3.74-.14-5.6,0-1.65-.07-3.29,0-4.93.05-2.34.09-4.69.14-7s.27-4.91.41-7.35c.09-1.65.23-3.29.39-4.94.18-2,.31-3.93.55-5.88.31-2.43.61-4.87.92-7.3.23-1.84.6-3.67.91-5.51s.65-3.8,1.08-5.69c.5-2.18,1-4.37,1.49-6.55.18-.78.46-1.55.69-2.32.4-1.36.81-2.73,1.22-4.1.59-2,1.3-3.94,2-5.9.57-1.66,1.16-3.31,1.79-5,.73-1.88,1.4-3.81,2.21-5.66q1.41-3.28,2.85-6.55c.89-2.06,2-4,3.06-6,.91-1.76,2.05-3.41,3.09-5.1,1.14-1.86,2.4-3.66,3.62-5.47,2.27-3.4,4.7-6.68,7.1-10,1.16-1.6,2.41-3.13,3.61-4.7,1-1.26,1.93-2.54,2.94-3.77,2.74-3.36,5.44-6.76,8.31-10l4.92-5.58c1.27-1.43,2.68-2.77,4-4.14,2.94-3,6-6,9-8.9q3.85-3.72,7.78-7.36c3-2.78,6-5.6,9.06-8.3s6.38-5.61,9.68-8.29l3.18-2.59c.48-.38.94-.8,1.44-1.17l5.93-4.3c1.51-1.1,3-2.12,4.61-3.14s3.34-2.26,5.08-3.27l6.49-3.76c1.71-1,3.48-1.85,5.23-2.75,1.56-.82,3.11-1.67,4.71-2.4l6.6-3c2.24-1,4.6-1.86,6.92-2.7a83.94,83.94,0,0,1,8.37-2.52c3.67-.93,7.39-1.53,11.12-2.1s7.65-1.14,11.49-1.5l4.07-.37c1-.09,2-.23,2.95-.26l6.69-.21c.69,0,1.39.06,2.08.1l4.24.21c2.16.11,4.3.4,6.45.65,4.09.48,8.13,1.34,12.16,2.19s7.78,1.85,11.65,2.88c1.79.48,3.56,1,5.33,1.56,1.05.31,2.09.69,3.12,1,.81.27,1.62.52,2.41.84,1.95.77,3.87,1.56,5.77,2.45s3.55,1.78,5.31,2.75c.86.47,1.68,1.06,2.51,1.59s1.6,1.06,2.38,1.61a26.09,26.09,0,0,1,2.36,1.83,3.82,3.82,0,0,1,1.38,2.12,2.31,2.31,0,0,1-2.21,2.63,2.17,2.17,0,0,1-1.82-.9l-1.1-.55c-1.53-.72-3.07-1.44-4.64-2.09s-3.22-1.23-4.85-1.81l-3.91-1.09c-1.33-.37-2.71-.59-4.06-.87-5-.85-10-1.61-15.06-2.21-3-.37-6.05-.72-9.08-1-2.49-.26-5-.43-7.48-.62l-5.84-.22c-.74,0-1.48,0-2.23,0l-1.16,0-3.33,0-6,.54c-1.23.11-2.45.35-3.67.52s-2.23.29-3.34.48c-5.24.89-10.49,1.77-15.69,2.89a94.14,94.14,0,0,0-10.57,3.1q-4.27,1.6-8.37,3.58L317,576l-5.54,3c-1.72.92-3.38,1.94-5.06,2.93s-3.16,1.85-4.68,2.85l-5.86,3.86L289.92,593c-1.77,1.31-3.44,2.75-5.14,4.15-3.57,2.94-7,6-10.49,9.08-5.68,5.24-11.31,10.52-16.85,15.92-1.43,1.38-2.89,2.73-4.28,4.15q-2.5,2.61-5,5.2c-2.67,2.77-5.16,5.7-7.7,8.59l-6,7.39c-2,2.46-3.88,5-5.81,7.54-3.53,4.59-6.78,9.37-10,14.18l-3,4.78c-.49.79-.88,1.68-1.31,2.51s-.85,1.61-1.27,2.42c-1.47,3.32-2.91,6.66-4.24,10.05-.63,1.59-1.27,3.17-1.84,4.78q-1,2.85-2,5.7c-.32,1-.63,2.08-.94,3.11-.37,1.22-.82,2.44-1.11,3.67-.62,2.66-1.22,5.31-1.84,8-.9,5.06-1.79,10.11-2.32,15.23-.3,2.84-.57,5.69-.85,8.53-.25,2.51-.35,5-.5,7.57-.05,2.35-.12,4.71-.18,7.07-.05,2,0,4.06.06,6.09,0,1.82.05,3.64.18,5.46q.25,3.32.5,6.64c.65,4.31,1.21,8.63,2.11,12.9A100.54,100.54,0,0,0,203.42,795a129.61,129.61,0,0,0,6.28,14.1A131.61,131.61,0,0,0,217.56,822c2.32,3.27,4.76,6.45,7.35,9.52l5,5.86c4.61,4.83,9.17,9.68,14.23,14.06a102,102,0,0,0,8.88,6.64c7.42,4.74,15.37,8.56,23.28,12.39l5.42,2.49c1.47.67,2.93,1.4,4.43,2l6.67,2.7c2.51,1,5,2,7.57,2.81a158.51,158.51,0,0,0,16.2,4.2c3.86.66,7.72,1.35,11.58,2,1.87.32,3.77.51,5.65.76l6.66.9c4.25.58,8.52,1,12.77,1.48,3.95.46,7.92.83,11.87,1.23,1.79.19,3.59.25,5.37.37l6.75.44a158.91,158.91,0,0,0,18.26-.19,98,98,0,0,0,11.4-1.83c5.56-1.28,11-3,16.43-4.73,2.78-.87,5.51-1.93,8.24-2.93l5-2.14c2.37-1,4.68-2.08,7-3.26a103.73,103.73,0,0,0,10.38-6.32,213.82,213.82,0,0,0,17.71-14.66c5-4.69,10-9.41,14.85-14.32,2.57-2.6,5.06-5.26,7.56-7.93,2.19-2.33,4.26-4.78,6.38-7.17s4.21-5,6.25-7.55c2.58-3.22,5.11-6.48,7.62-9.77,2-2.66,4-5.38,5.94-8.11,2.27-3.21,4.46-6.46,6.67-9.71,2-3.11,4-6.23,5.87-9.4,1-1.67,1.89-3.42,2.83-5.13.81-1.45,1.51-3,2.23-4.48.78-1.75,1.54-3.49,2.32-5.23s1.37-3.39,2-5.08c1.19-3,2.21-6,3.22-9,.44-1.58,1-3.17,1.32-4.77s.71-3.34,1.07-5,.58-3.41.86-5.12.57-3.6.76-5.4c.2-2,.42-3.93.62-5.9s.27-3.68.4-5.51q.18-4.22.26-8.41c.05-2.86-.11-5.71-.27-8.56-.2-1.49-.39-3-.58-4.46-.1-.77-.3-1.54-.45-2.3l-.42-2.17c-.32-1.31-.58-2.65-1-3.93l-1.41-4.44c-1.24-3.23-2.48-6.46-4-9.57q-2.41-5-4.94-9.83c-1.67-3.14-3.34-6.27-5.06-9.38s-3.56-6-5.39-9c-3.55-5.82-7.21-11.56-11-17.19-1.17-1.58-2.33-3.16-3.57-4.69-1.49-1.84-3-3.65-4.55-5.45q-4.12-4.81-8.36-9.55c-1.63-1.78-3.27-3.53-5-5.23s-3.42-3.2-5.17-4.76c-2-1.58-3.91-3.17-5.93-4.66s-4.27-3.06-6.44-4.54l-2-1.2c-.67-.4-1.33-.86-2-1.22l-4.38-2.25-4-1.74c-1.22-.54-2.51-.93-3.77-1.38-3.16-1-6.32-2.1-9.52-3a7.73,7.73,0,0,1-5.57-9.43,7.8,7.8,0,0,1,3.48-4.68,7.94,7.94,0,0,1,5.95-.88c1.91.44,3.79,1,5.66,1.53,2,.62,4.09,1.21,6.09,1.94l3.31,1.2c.87.31,1.71.74,2.56,1.11,2.13.93,4.19,2,6.26,3a104.66,104.66,0,0,1,10.8,6.73c3.21,2.19,6.22,4.69,9.24,7.13,1.7,1.37,3.28,2.9,4.91,4.35.69.61,1.31,1.31,1.95,2,.81.8,1.61,1.6,2.38,2.44l-.67-.74c5.65,6.2,11.27,12.47,16.53,19s9.71,13.85,14.15,21c3.76,6.08,7.35,12.27,10.6,18.64,1.68,3.28,3.42,6.54,5,9.88,1.65,3.52,3.38,7,4.71,10.71l-.34-.91.51,1.37v0l0,.08,0,0h0c.26.64.48,1.29.71,1.94l.05.12v0l.18.51c.08.22.16.44.25.66,0-.13-.1-.25-.14-.38.06.18.13.35.19.53h0a0,0,0,0,0,0,0v0h0v0s0,0,0,0h0l0,.07h0c.67,1.89,1.2,3.83,1.77,5.75.26.9.41,1.84.62,2.75s.49,2.06.67,3.1c.36,2.06.75,4.11,1,6.2.12,1,.23,2.09.35,3.14.15,1.37.15,2.75.21,4.13.16,3.94,0,7.93-.2,11.88s-.5,8-1,12.05-1.08,8.26-1.8,12.37c-.39,2.22-.83,4.42-1.31,6.63-.44,2-1,4-1.55,6.07s-1.35,4.24-2,6.34c-.56,1.69-1.18,3.38-1.83,5-1.45,3.69-2.86,7.42-4.56,11-1.84,3.86-3.65,7.74-5.8,11.44-2,3.49-4.06,7-6.25,10.35q-3.86,6-7.84,11.88c-2.17,3.2-4.45,6.34-6.71,9.48a271.27,271.27,0,0,1-31.56,36.55q-4.75,4.59-9.6,9.08c-2.8,2.61-5.66,5.17-8.6,7.62L469,878.66c-2.26,1.87-4.69,3.56-7.1,5.24s-5,3.29-7.64,4.78a100.64,100.64,0,0,1-10.51,5.21c-2.3,1-4.57,2.05-6.92,2.89-3.6,1.29-7.18,2.61-10.83,3.73-2.3.71-4.6,1.46-6.91,2.12a131.27,131.27,0,0,1-17.52,3.84,102.31,102.31,0,0,1-12.63.92C387.27,907.42,385.59,907.42,383.9,907.4Z"/><path d="M304.84,921.1a6.7,6.7,0,0,1,1.39.4,3.43,3.43,0,0,1,2.14,3.6c-.17.89-.33,1.71-.56,2.58-.18.68-.38,1.36-.57,2.05l-.87,3.21c-.61,2.26-1.2,4.52-1.8,6.78-1.06,4-2.07,8-3.18,12.06-1.16,4.22-2.38,8.45-3.42,12.71-.55,2.22-1.16,4.43-1.62,6.66l-1.53,7.31c-.25,1.43-.51,2.86-.76,4.29s-.5,2.63-.69,4c-.24,1.68-.49,3.35-.73,5-.19,1.28-.42,2.55-.56,3.83-.35,3.07-.69,6.13-1,9.2-.16,1.45-.17,2.93-.26,4.38s-.19,3.1-.28,4.65c-.06,4.19.06,8.36.4,12.54a100.82,100.82,0,0,0,1.64,11.05,71.31,71.31,0,0,0,2.28,7.82c.49,1.28,1,2.53,1.64,3.75.43.79.87,1.56,1.37,2.32l.42.5.48.46.36.27h.09l.1,0c.61-.45,1.2-.93,1.78-1.41,1.58-1.48,3.09-3,4.61-4.58.61-.62,1.16-1.29,1.74-1.93l2.13-2.35,3.18-3.84a81.72,81.72,0,0,0,5.32-7.25,204.72,204.72,0,0,0,10.43-19.77c2.43-5,4.86-10,7.34-15C341.38,985,347,973.84,352.6,962.6q2.37-5.13,4.72-10.28c.7-1.52,1.29-3.11,1.93-4.66.94-2.28,1.9-4.55,2.78-6.84.8-2.09,1.68-4.13,2.55-6.18a8.43,8.43,0,0,1,2.27-3.27,6.62,6.62,0,0,1,1.44-1,6.47,6.47,0,0,1,1.61-.47,4.49,4.49,0,0,1,3.48,1,7.65,7.65,0,0,1,2,2.78c.34.65.66,1.31,1,2,.78,1.58,1.53,3.19,2.28,4.78,3.08,6.55,5.67,13.31,8.37,20s5.73,13.49,8.73,20.17c.61,1.34,1.25,2.67,1.81,4l2.76,6.79c1.44,3.57,2.66,7.22,3.94,10.85,1.17,3.31,2.16,6.69,3.21,10,1.48,4.66,2.92,9.32,4.56,13.92a91.61,91.61,0,0,0,3.91,9c.88,1.64,1.81,3.22,2.84,4.76.86,1.18,1.75,2.31,2.7,3.42.69.73,1.39,1.42,2.13,2.1s1.64,1.25,2.5,1.83a14.79,14.79,0,0,0,1.4.79c.84.38,1.68.7,2.54,1q.87.25,1.74.45l-.55-.11a14.1,14.1,0,0,0,1.95.29l-.58,0a14.55,14.55,0,0,0,2,0l.9-.12a9.46,9.46,0,0,0,1.36-.46l-.53.19.56-.27.57-.34a11.19,11.19,0,0,0,1-.9l-.42.38.39-.44.5-.69-.28.45h0a17.13,17.13,0,0,0,.88-1.49c.41-1,.77-1.92,1.12-2.9.62-2.14,1.12-4.29,1.54-6.48.32-1.83.58-3.65.82-5.5.2-1.41.43-2.83.57-4.25.32-3,.69-6.09.93-9.14s.53-6.14.71-9.22c.22-3.56.43-7.11.64-10.68q.3-6.18.62-12.37v.06c.74-15,2-30,3.08-45,.28-3.81.54-7.62.81-11.44.17-2.4.34-4.79.53-7.19s.48-4.57.78-6.85a23.7,23.7,0,0,1,.5-2.51c.15-.49.32-1,.5-1.45l.53-1.1a9.56,9.56,0,0,1,1-1.44,7,7,0,0,1,1.29-1,4.39,4.39,0,0,1,3.25-.48,5.83,5.83,0,0,1,2.89,1.49,14.4,14.4,0,0,1,2,2.89c1.76,2.83,3.4,5.72,5,8.67,2.57,4.9,4.78,10,7,15,2.46,5.55,4.91,11.11,7.3,16.69s4.5,10.95,6.64,16.48c2,5.19,3.84,10.45,5.71,15.69.62,1.61,1.23,3.23,1.85,4.84.53,1.39,1.1,2.74,1.69,4.1s1.22,2.95,1.92,4.37c.82,1.67,1.65,3.34,2.47,5a74.15,74.15,0,0,0,4.13,6.91c.61.8,1.24,1.58,1.9,2.34.36.38.74.74,1.13,1.09l-.41-.35a14.84,14.84,0,0,0,1.41,1.1l.59.31.43.15.32.05,0,0,.18-.24q.16-.27.3-.54c.58-1.37,1.06-2.77,1.55-4.18l1-3.05c.35-1.09.61-2.21.9-3.32.53-2,.91-4,1.32-6,.2-1.44.39-2.88.59-4.32.16-1.2.22-2.41.31-3.61.21-2.64.34-5.28.49-7.91.11-2.33.23-4.64.35-7h0c.12-2.48.26-5,.4-7.43.06-2,.13-4,.2-6,.06-1.81,0-3.63,0-5.44,0-3.79-.25-7.56-.42-11.34-.17-3.5-.42-7-.68-10.5q-.42-5.82-.86-11.64-.5-5.61-1-11.23c-.32-3.68-.73-7.36-1-11s-.58-7.22-.74-10.84a127.74,127.74,0,0,1-.21-13.27,7.14,7.14,0,0,1,1.23-4,6.78,6.78,0,0,1,2.58-2.08,5.25,5.25,0,0,1,4.06-.07,6.32,6.32,0,0,1,1.65.86,32.92,32.92,0,0,1,2.52,2.21c2.66,2.57,5.34,5.13,8,7.74,5.21,5.17,10.27,10.5,15.51,15.64,3.48,3.41,7.15,6.6,10.84,9.77q4.26,3.62,8.54,7.19c3.22,2.71,6.49,5.37,9.76,8,1.27,1,2.6,2,3.9,3s2.87,2.23,4.35,3.26l5.17,3.61c1.49,1,3,2,4.56,3h0c2.45,1.57,4.91,3.14,7.39,4.67,1.07.65,2.13,1.33,3.24,1.94l4.9,2.69-.54-.26c2.46,1.18,4.89,2.4,7.41,3.43l2.82,1.15c.4.16.8.34,1.21.48l4.06,1.35c1.22.34,2.44.65,3.68.92.89.16,1.77.28,2.68.38l-.62,0c.43,0,.85.06,1.27.06-1-2.8-2-5.61-3-8.42q-2.78-7.53-5.61-15c-1.88-5-3.67-10.12-5.68-15.1-1-2.46-1.93-4.94-3-7.37-.71-1.63-1.42-3.25-2.12-4.88-.46-1-.89-2.11-1.38-3.14L610.86,888c-.57-1.2-1.21-2.37-1.81-3.56s-1.33-2.61-2-3.92c-3.53-6.68-7.08-13.35-10.72-20-1.87-3.4-3.84-6.74-5.8-10.09-.67-1.15-1.41-2.26-2.14-3.38-1.13-1.77-2.27-3.53-3.42-5.3l-3.06-4.28c-.92-1.3-1.82-2.61-2.78-3.87l-6.84-9-4.08-5.33a94.89,94.89,0,0,1-7.13-10.75A37,37,0,0,1,556.67,797a9,9,0,0,1-.16-2.31,6.3,6.3,0,0,1,.37-2.19,8.1,8.1,0,0,1,.73-1.36,5.53,5.53,0,0,1,1.5-1.39,5.46,5.46,0,0,1,3.28-.59l2.37.16c1.75.13,3.5.3,5.24.46,3.51.33,7,.8,10.5,1.2a200.87,200.87,0,0,1,21.26,3.65c3,.67,6,1.31,9,1.94,3.16.53,6.31,1,9.48,1.48s6.15.89,9.17,1.59,6.3,1.51,9.45,2.25l5,1.17c1.57.37,3.18.62,4.77.92l5.15.64-.52,0c1.6.08,3.2.22,4.8.21h2.79c.7,0,1.4-.07,2.1-.13,1.36-.18,2.7-.36,4-.63.82-.21,1.61-.44,2.42-.7.41-.16.82-.34,1.22-.54l.94-.54-.37.26a10.52,10.52,0,0,0,1.66-1.31l-.33.3.33-.36c-.09-.29-.18-.57-.28-.86-.25-.63-.5-1.24-.77-1.88l.21.4a11.48,11.48,0,0,0-1.23-2c.08.13.17.25.25.37-1.49-2-3-4-4.61-5.94s-3.19-3.78-4.82-5.63c-1.58-1.67-3.17-3.31-4.81-4.92s-3.06-2.91-4.59-4.38c-3.7-3.56-7.32-7.18-10.9-10.86-3.35-3.43-6.69-6.86-10.13-10.2-1.74-1.69-3.51-3.34-5.31-5s-3.45-3-5.2-4.53c-5.73-4.68-11.5-9.33-17.15-14.12q-4.62-3.91-9.19-7.88c-1.24-1.07-2.46-2.16-3.68-3.25-2.35-2.07-4.71-4.14-6.91-6.37a51,51,0,0,1-3.72-4.32,27.31,27.31,0,0,1-2.75-4.51,13.57,13.57,0,0,1-.86-2.54,8.2,8.2,0,0,1-.31-2.14,8.89,8.89,0,0,1,.9-4.43,11.65,11.65,0,0,1,1-1.55,12.66,12.66,0,0,1,1.35-1.39c.74-.68,1.53-1.3,2.3-1.94,1.46-1.2,2.93-2.37,4.4-3.55,2.71-2.17,5.47-4.27,8.33-6.25q2.15-1.48,4.33-2.91c1.57-1,3.23-2,4.86-2.91,3-1.72,6-3.33,9-5,1.61-.88,3.23-1.72,4.85-2.58,1.38-.73,2.78-1.47,4.11-2.29s2.83-1.7,4.21-2.6,3-2,4.51-3c2.87-2,5.76-3.92,8.67-5.82s5.84-3.61,8.76-5.42,5.7-3.54,8.5-5.38c6.07-4,12-8.1,18-12.21l3.65-2.69c1-.73,1.92-1.58,2.87-2.37,1.28-1.22,2.54-2.44,3.7-3.76.31-.38.61-.75.9-1.14-2.24-.06-4.49,0-6.73,0-2.94.06-5.87.13-8.8.23-5.67.17-11.32.56-17,1l-5.4.64c-1.69.2-3.36.54-5,.83-3.15.54-6.25,1.25-9.36,1.94-3.49.92-7,1.81-10.45,2.83q-5.45,1.59-10.89,3.23c-7.37,2.21-14.82,4.14-22.29,6a94.07,94.07,0,0,1-9.71,1.9,32.16,32.16,0,0,1-6.12.37,23.83,23.83,0,0,1-3-.33,21.53,21.53,0,0,1-3.14-.88,9.18,9.18,0,0,1-5-4.21,7.26,7.26,0,0,1-.77-2.18,12.76,12.76,0,0,1,.06-5.15,14.67,14.67,0,0,1,1.94-4.87c1.76-3,3.7-6,5.68-8.9s4-5.69,6.08-8.45c4.53-5.93,9-11.92,13.93-17.52,2.5-2.84,5.1-5.55,7.8-8.18,2.54-2.48,5.14-4.89,7.71-7.32,5.16-4.88,10.26-9.8,15.28-14.82,2.54-2.53,5.11-5,7.57-7.66,1.25-1.34,2.56-2.64,3.77-4,1.34-1.54,2.67-3.07,4-4.62,1.46-1.8,2.85-3.62,4.13-5.54.62-1,1.18-2,1.71-3,.26-.57.5-1.15.71-1.74,0,.14-.09.29-.14.43a13.86,13.86,0,0,0,.5-1.7c0-.26.07-.52.1-.78,0,.16,0,.32,0,.48a8.3,8.3,0,0,0,0-1.41,3.59,3.59,0,0,0-.08-.35l-.09-.25-.3-.48c-.1-.11-.2-.22-.31-.32l-.48-.37-.65-.34-.22-.09-.5-.13-.69-.08a8.93,8.93,0,0,0-1.27.06h.18l.3,0-.6.1c-.58.15-1.14.33-1.7.53-5.76,2.28-11.27,5.1-16.79,7.91q-4.89,2.56-9.73,5.22c-3.15,1.74-6.26,3.56-9.35,5.38-6.27,3.7-12.26,7.83-18.31,11.86q-4.27,2.84-8.6,5.6c-3.15,2-6.29,4-9.49,5.93Q554,574,544.08,579.58a123.05,123.05,0,0,1-12.69,6.47,36.18,36.18,0,0,1-5.56,1.83,22.67,22.67,0,0,1-5.86.6,13.73,13.73,0,0,1-2.31-.26,15.09,15.09,0,0,1-2.72-.7c-.87-.34-1.64-.7-2.48-1.12l-1.34-.89q-.56-.46-1.08-1a7.86,7.86,0,0,1-2.06-3.28c-.07-.23-.15-.45-.22-.68a7.81,7.81,0,0,1-.26-1.87,14.31,14.31,0,0,1,.09-2.53,21,21,0,0,1,.39-2.33c.2-1.08.44-2.13.71-3.2.21-.82.52-1.65.81-2.45l.86-2.39c.63-1.68,1.24-3.37,1.9-5.05s1.43-3.57,2.19-5.33,1.6-3.32,2.46-4.94c1.7-3.18,3.58-6.25,5.47-9.32,1.76-2.88,3.63-5.69,5.43-8.54,2.12-3.35,4.21-6.71,6.3-10.07,4.65-7.47,9.42-14.88,14.45-22.1,2.64-3.8,5.31-7.59,8-11.32,2.62-3.57,5.19-7.15,7.7-10.79,1.3-2,2.62-4,3.84-6.1.64-1.09,1.32-2.16,1.91-3.27q1.08-2.07,2.18-4.14l1.45-3.16c.86-1.88,1.6-3.8,2.27-5.75a50.45,50.45,0,0,0,1.42-5.4c.12-.68.21-1.37.27-2.06s0-1.45,0-2.18c-.05-.3-.1-.6-.14-.9l-.21-.73-.2-.44-.19-.3-.06-.07-.08-.06h-.15c-1.57.24-3.13.49-4.69.81l-.3.09-.24.11c-1.53,1.12-3,2.33-4.47,3.53s-2.86,2.35-4.28,3.54c-3,2.56-6.07,5.13-9,7.77q-9.55,8.49-19,17.08c-5.37,4.92-10.7,9.89-16.1,14.77-2.65,2.4-5.28,4.83-8,7.18-3,2.67-6.07,5.34-9.12,8-5.46,4.77-10.81,9.65-16.18,14.51s-11.16,9.52-17,13.89c-1.44,1.08-2.9,2.13-4.37,3.17-1.68,1.19-3.38,2.31-5.11,3.42a42,42,0,0,1-10.12,4.84,18.14,18.14,0,0,1-2.83.55,10.92,10.92,0,0,1-2.68,0,15.43,15.43,0,0,1-5-1.4,12.18,12.18,0,0,1-6.34-6.8,33,33,0,0,1-1.45-5.8,47.9,47.9,0,0,1-.59-4.94c-.19-2.11-.32-4.22-.44-6.33-.41-7-.3-14.13-.21-21.18.09-7.31.63-14.6,1.18-21.89.36-4.77.89-9.5,1.61-14.23s1.64-9.54,2.6-14.28c1.95-9.65,3.83-19.3,5.72-29,.3-1.64.6-3.27.89-4.91s.53-3.38.79-5.08c.48-3.1.69-6.24.88-9.38,0-1.39,0-2.77-.07-4.14a41.77,41.77,0,0,0-.61-4.31c-.1-.44-.23-.88-.36-1.31s-.26-.62-.41-.93c-.4-.67-.82-1.31-1.25-2l-.24-.3-.2.21c-2.71,3.33-5.09,6.93-7.46,10.5q-8.26,13.2-15.92,26.78c-2.62,4.61-5.25,9.21-7.72,13.91-1.34,2.54-2.72,5.06-4,7.63l-4,7.84c-2.94,6.16-5.81,12.35-8.85,18.47-.63,1.27-1.22,2.56-1.9,3.8l-3.2,5.88c-1.6,2.92-3.37,5.75-5.07,8.61-1.6,2.71-3.34,5.33-5,8l-3.57,5.92c-.74,1.22-1.4,2.47-2.1,3.71l-2.43,4.37c-1,1.73-1.82,3.53-2.72,5.29q-.9,1.74-1.77,3.51a4,4,0,0,1-2.14,5.06,3.12,3.12,0,0,1-.39.15c-.06.11-.11.23-.17.35l0-.07c-1,2.17-2,4.38-3,6.53a1.19,1.19,0,0,1-.24,1.56l-.85.76c-.14.13-.27.26-.42.38a1.17,1.17,0,0,1-1.8-1.34c1.07-2.36,2-4.78,2.95-7.19.17-.4.33-.81.49-1.22a4.24,4.24,0,0,1-1.86-1.95c-.82-1.66-1.55-3.36-2.33-5-.88-1.89-1.8-3.75-2.75-5.6a231.27,231.27,0,0,0-14.08-23.29c-1.37-2-2.72-3.95-4.07-5.93-.75-1.11-1.43-2.27-2.13-3.4s-1.19-2-1.78-3c-2.46-4.23-4.7-8.59-7-12.93l.21.41c-1.22-2.34-2.42-4.7-3.63-7l.21.4c-1.5-2.85-2.95-5.72-4.51-8.53-1.8-3.23-3.6-6.44-5.46-9.63-3.85-6.62-7.64-13.3-12-19.62a75,75,0,0,0-5-6.37,54.21,54.21,0,0,0-3.91-3.82c-.85-.7-1.71-1.34-2.61-2-.59-.36-1.19-.69-1.8-1a13.26,13.26,0,0,0-1.76-.66l.49.16-.8-.19-.66-.08h-.51l-.18,0-.29.1-.16.08-.41.33-.6.64a9.52,9.52,0,0,0-.65.88,35.94,35.94,0,0,0-1.78,3.13c-.48,1.08-.92,2.16-1.31,3.28-.4,1.34-.74,2.69-1,4.07s-.43,3-.53,4.56c0,1.72,0,3.42.14,5.14A70.5,70.5,0,0,0,275,439l.93,4.49c.91,3.31,1.79,6.63,2.85,9.9q1.88,5.72,3.73,11.44c.43,1.34.9,2.67,1.28,4l2,7.39c.35,1.25.62,2.49.88,3.75l1.44,6.95a11.37,11.37,0,0,1,.17,1.17l.45,3.51c.21,1.68.45,3.35.58,5l.51,6.84c.13,1.74.15,3.5.22,5.25,0,1.44.13,2.88.11,4.33,0,2.27-.07,4.54-.11,6.81,0,2-.22,4-.4,5.93-.22,2.49-.61,5-1.06,7.45a38,38,0,0,1-1.4,5.46,25.11,25.11,0,0,1-2.79,6.07,14.9,14.9,0,0,1-1.77,2.33,19.73,19.73,0,0,1-2,1.77,11.46,11.46,0,0,1-3.86,1.76,18.88,18.88,0,0,1-5.66.44,33.57,33.57,0,0,1-6.53-1,43.42,43.42,0,0,1-11-4.58,80.69,80.69,0,0,1-7.3-4.75,112.31,112.31,0,0,1-9.7-7.71,102.86,102.86,0,0,1-9.36-9.66c-1.4-1.62-2.69-3.35-4-5-2.43-3-4.73-6.13-7.06-9.23-2.2-2.95-4.38-5.91-6.57-8.87q-6.42-8.73-12.64-17.59L193.66,478l.26.36c-1.65-2.33-3.31-4.65-5-7-.63-.88-1.25-1.77-1.89-2.65-.77-1.08-1.65-2.1-2.47-3.15q-1.77-2.23-3.53-4.49c-.52-.65-1-1.29-1.57-1.91q-3-3.39-6-6.77c-2.55-2.72-5.16-5.39-7.89-7.93,0,1.62-.09,3.23-.13,4.84,0,1.9.07,3.8.21,5.69a67.71,67.71,0,0,0,1.17,6.93,94.13,94.13,0,0,0,2.64,9.36l2,5.89c1.22,3,2.38,6.1,3.7,9.09,1.57,3.58,3.13,7.15,4.74,10.7,3.31,7.27,6.54,14.58,9.76,21.89,2.8,6.34,5.78,12.58,8.69,18.87l2.94,6.37c.68,1.45,1.27,2.94,1.88,4.43s1.41,3.21,2,4.86q1.14,3.29,2.26,6.58c.63,1.83,1.12,3.7,1.64,5.57s1.06,3.74,1.48,5.64l.15.66c0,.18.08.36.11.54,0-.22-.09-.44-.14-.67l1.41,6.36c.47,2.12.77,4.29,1.14,6.43.54,3.17,1,6.35,1.24,9.55.2,2.24.31,4.48.35,6.72a70.28,70.28,0,0,1-.44,8.34,51.2,51.2,0,0,1-1.27,7.06c-.25,1-.62,2-1,3a12.63,12.63,0,0,1-1,2.32,12.11,12.11,0,0,1-2.94,3.69A7.34,7.34,0,0,1,204,626.7a21,21,0,0,1-5.55-1l-2.79-.74c-1.68-.44-3.33-1-5-1.5-.76-.23-1.5-.53-2.25-.81L185,621.4c-1.78-.67-3.5-1.49-5.23-2.26-3.33-1.46-6.58-3.11-9.85-4.72-1.77-.87-3.5-1.84-5.24-2.76-1.47-.77-2.93-1.57-4.38-2.37s-2.89-1.58-4.3-2.41c-1.75-1-3.53-2-5.25-3.09q-6.37-4-12.66-8.12l.46.3c-4.88-3.17-9.83-6.2-14.8-9.24-1.09-.66-2.22-1.27-3.33-1.91l-4.36-2.49c-1.17-.67-2.42-1.22-3.63-1.83l-3.82-1.92c-2.7-1.14-5.38-2.36-8.12-3.4-3-1.14-6-2.27-9-3.46s-6.21-2.47-9.28-3.8l-5.63-2.45-3.83-1.66c-2.31-1-4.65-1.88-7-2.69-1.1-.35-2.2-.66-3.33-.94-1-.16-1.9-.29-2.88-.39l.67,0a12.52,12.52,0,0,0-1.73,0l-.64.09-.42.11.23-.09h0l.38-.14a10.21,10.21,0,0,0-1.15.46h0l.07,0-.11.08,0,0-.09.13s-.05.09-.08.14l0,.08-.06.29c0,.31-.08.62-.1.92s0,.88,0,1.31c.06.63.15,1.25.27,1.87.26,1,.56,2.06.9,3.07.8,2.07,1.7,4.06,2.7,6,.93,1.73,1.91,3.43,3,5.08.81,1.26,1.63,2.52,2.44,3.79,1.51,2.07,3,4.15,4.58,6.18q3,3.9,6.16,7.72c3.69,4.52,7.6,8.85,11.48,13.2,2.42,2.53,4.81,5.08,7.3,7.54,1.23,1.21,2.43,2.45,3.69,3.63l5.09,4.7c2.54,2.34,5.16,4.61,7.72,6.93,1.21,1.1,2.43,2.17,3.6,3.3l4.94,4.75c1.28,1.23,2.49,2.53,3.74,3.8,1.1,1.12,2.19,2.24,3.25,3.4l4,4.32c1.48,1.62,2.86,3.33,4.29,5a85.9,85.9,0,0,1,5.48,7.13,58.64,58.64,0,0,1,7.1,13.24,42.85,42.85,0,0,1,1.62,6,22.39,22.39,0,0,1,.28,5.63,11.5,11.5,0,0,1-1.27,4.4,6.27,6.27,0,0,1-2.81,2.63c-1.84.82-3.85.51-5.77.2-1.36-.22-2.73-.45-4.08-.71-3-.59-6-1.23-9-2-6.18-1.49-12.33-3.09-18.46-4.76-5.58-1.52-11.08-3.31-16.65-4.84l-5.58-1.54c-1.23-.33-2.45-.71-3.7-1q-4.86-1.15-9.74-2.29L63.45,678c-.31-.05-.63-.06-.94-.1l-3.46-.34-4.8-.48-4.14-.12L47,676.82c-.49,0-1-.06-1.48,0-4,.12-8,.18-12,.49-2.23.22-4.45.52-6.66.93.54,1.27,1.13,2.52,1.7,3.78.68,1.46,1.44,2.88,2.19,4.31s1.71,2.91,2.56,4.36,1.74,2.76,2.61,4.14c1.54,2.42,3.17,4.79,4.77,7.17l3.12,4.24c1.53,2.08,3.17,4.06,4.89,6,1.51,1.61,3.07,3.15,4.73,4.61a65.47,65.47,0,0,0,5.44,4c2.76,1.76,5.61,3.39,8.49,4.93s5.83,3,8.75,4.49l4.9,2.33c1.78.84,3.61,1.59,5.41,2.37,3,1.33,6.14,2.54,9.22,3.8,6.75,2.74,13.48,5.53,20.22,8.31a186.22,186.22,0,0,1,17.29,7.81,54.64,54.64,0,0,1,19.72,17.6,12.44,12.44,0,0,1,1.21,2.13,17.49,17.49,0,0,1,.78,2.35,6.76,6.76,0,0,1,.13,1.91,3.88,3.88,0,0,1-.25,1.34c-.79,1.94-2.81,2.91-4.51,3.88a32.43,32.43,0,0,1-4.4,1.93q-2.32.88-4.67,1.71-2.56.91-5.14,1.78c-1.91.63-3.82,1.2-5.75,1.78-3.2,1-6.43,1.79-9.66,2.62q-6.07,1.56-12.14,3.17c-3.63,1-7.23,2-10.84,3-6.88,1.92-13.7,4-20.55,6.07-3.4,1-6.78,2-10.18,3-3.92,1.11-7.84,2.23-11.74,3.39-3.17.94-6.29,2-9.41,3.07l-4.71,1.87c-2.93,1.16-5.79,2.44-8.6,3.87a77.22,77.22,0,0,0-7.3,4.4c-1.59,1.17-3.12,2.38-4.59,3.69-1.14,1.1-2.23,2.22-3.28,3.39a49.87,49.87,0,0,0-3.1,4.16c-.53.87-1,1.75-1.48,2.66s-.69,1.65-1,2.51c-.14.45-.25.9-.35,1.36l-.12,1.08v.91c0,.27.05.54.07.81,0-.15-.07-.31-.1-.47a9.08,9.08,0,0,0,.52,1.87l-.16-.45c.1.21.19.42.28.62l.36.56.42.49.45.4.55.38.75.39c.5.21,1,.41,1.52.59,1.78.54,3.59.94,5.4,1.37l2.19.34c.86.13,1.72.32,2.58.4l6,.53c2.62.12,5.24.26,7.86.3,3,.06,6.07.13,9.11.14q10.74,0,21.46-.06c5.79,0,11.59-.23,17.39-.46,3-.12,5.92-.18,8.88-.38,3.61-.25,7.22-.51,10.84-.75l11.62-1.23c3.81-.4,7.62-.93,11.43-1.4,7.6-.94,15.2-1.83,22.8-2.72l10.66-1.24a111.82,111.82,0,0,1,12.67-.82,40.76,40.76,0,0,1,6.72.61,23.91,23.91,0,0,1,2.62.66q.7.22,1.38.51a6,6,0,0,1,1.21.72,5,5,0,0,1,1.81,2,4.05,4.05,0,0,1,.42,2.68,4.73,4.73,0,0,1-.44,1.28,12,12,0,0,1-.91,1.33,18.89,18.89,0,0,1-1.83,1.86c-2.51,2.29-5.25,4.34-7.91,6.46-2.23,1.77-4.46,3.55-6.71,5.29-2.68,2.08-5.38,4.11-8.1,6.13-4.75,3.55-9.54,7-14.26,10.63q-7.72,5.86-15.49,11.69c-2.56,1.91-5.1,3.87-7.64,5.82-2.32,1.77-4.51,3.7-6.75,5.57l-3.17,2.9c-1,.91-2,1.79-3,2.73l-3.63,3.61c-1,1-2,1.9-2.9,2.89-1.27,1.35-2.55,2.69-3.83,4-.91,1-1.85,1.91-2.74,2.9l-6.53,7.32c-1.47,1.74-2.93,3.48-4.34,5.26s-2.73,3.69-4,5.6a60.5,60.5,0,0,0-3.15,5.61c-.45,1-.85,2-1.22,3s-.53,1.84-.75,2.79q-.1.63-.15,1.26v1l.09.73c.05.21.11.42.16.62l.12.28.18.27,0,0a.71.71,0,0,1,.14.1l.27.11.32.06.6,0c3,0,6-.12,8.93-.21q3.48-.1,7-.12c6.1,0,12.21.2,18.31-.25a88.59,88.59,0,0,0,10.1-1.54,89.21,89.21,0,0,0,9.9-2.92A111.44,111.44,0,0,0,149.09,951l6.24-3.22c3-1.7,6-3.37,9-5.12,3.2-1.87,6.38-3.76,9.59-5.6,6.55-3.77,13.1-7.55,19.73-11.16,7.05-3.83,14.1-7.65,21.25-11.28,2.75-1.39,5.51-2.7,8.37-3.85a55.68,55.68,0,0,1,6-2c.89-.23,1.78-.39,2.67-.55a9.79,9.79,0,0,1,3.1-.15,6,6,0,0,1,2.64,1,4.29,4.29,0,0,1,1.42,2.27,4.43,4.43,0,0,1-.4,2.92,7.81,7.81,0,0,1-.84,1.49c-.31.5-.62,1-.94,1.5-3.74,5.95-7.7,11.75-11.63,17.57-1.2,1.87-2.39,3.75-3.58,5.62s-2.08,3.59-3.11,5.38c-2,3.45-3.72,7-5.52,10.54q-4.16,8.71-8.29,17.45c-.83,1.74-1.65,3.49-2.48,5.23s-1.48,3.38-2.23,5.07c-1.33,3-2.46,6.17-3.65,9.28L195,998c-.87,2.79-1.62,5.59-2.21,8.45-.33,1.9-.64,3.79-.79,5.71,0,.67,0,1.33,0,2,0-.16,0-.33,0-.5a11,11,0,0,0,.18,1.62v0c1.57-.19,3.13-.5,4.66-.83,1-.25,1.89-.54,2.81-.86,1.76-.74,3.43-1.59,5.11-2.46,1.48-.86,3-1.66,4.45-2.61l5.23-3.43,6.45-4.8c.48-.36.94-.75,1.41-1.13l4.33-3.6c1.57-1.31,3.13-2.62,4.65-4l6.34-5.7c10.83-10.15,21.63-20.35,32.07-30.89,2.45-2.48,4.91-4.93,7.27-7.48,2.5-2.7,5-5.39,7.5-8.12,2.64-2.91,5.25-5.85,8-8.67,1.54-1.59,3.06-3.21,4.66-4.74,1.43-1.37,2.93-2.66,4.46-3.92a5.58,5.58,0,0,1,1.43-.75,3.27,3.27,0,0,1,1.81-.27Zm126.33,137.15a26.25,26.25,0,0,1-5-1.33,21.9,21.9,0,0,1-5-2.55,33.47,33.47,0,0,1-5-4.16,38.11,38.11,0,0,1-4.46-5.51c-4.63-6.85-7.51-14.7-10-22.53q-2.24-6.93-4.49-13.87c-1.21-3.73-2.59-7.41-3.93-11.1-1.16-2.78-2.31-5.57-3.46-8.35-1.05-2.54-2.24-5-3.37-7.52s-2.21-5-3.3-7.47-2.19-5.19-3.26-7.8c-2-4.86-3.71-9.81-5.67-14.66q-1.75-4.33-3.75-8.56l-.45,1.15c-.39,1-.79,2-1.21,3l-3,7.2c-1.45,3.49-3.13,6.9-4.71,10.34s-3.24,6.62-4.88,9.92-3.15,6.29-4.74,9.44q-4.74,9.41-9.38,18.87-2.47,5-4.94,10.09c-1.66,3.41-3.27,6.85-5,10.21-1.06,2.05-2.13,4.09-3.19,6.13a82.53,82.53,0,0,1-6.61,10.42c-1.53,2.09-3.19,4-4.85,6q-1.75,2.08-3.58,4.09c-3.19,3.48-6.44,7-10.36,9.64a6.33,6.33,0,0,1-1.76.79,8.33,8.33,0,0,1-1.92.35,7.61,7.61,0,0,1-3.77-.62l-1-.46a10.41,10.41,0,0,1-1.32-1,9.38,9.38,0,0,1-1.52-1.5,24.84,24.84,0,0,1-1.6-2.21,31.4,31.4,0,0,1-1.78-3.4,44.45,44.45,0,0,1-2.17-5.8,65.08,65.08,0,0,1-1.72-6.87,97.48,97.48,0,0,1-1.75-15.71,93.18,93.18,0,0,1,.06-10.57c.18-2.55.36-5.09.53-7.64.09-1.3.27-2.6.43-3.9l.75-6.24c.23-1.92.59-3.83.89-5.74.23-1.53.46-3,.74-4.57.47-2.56.87-5.15,1.41-7.71s1-5.07,1.62-7.58c1.19-4.82,2.41-9.63,3.74-14.42q2.1-7.54,4.1-15.12c.48-1.82,1-3.65,1.46-5.47-4,4.09-7.69,8.38-11.54,12.57L282.42,952c-.9,1-1.78,2-2.71,2.93l-9.06,9.23c-2.8,2.85-5.69,5.61-8.54,8.41-2.52,2.47-5.06,4.91-7.6,7.37-5.09,4.91-10.22,9.8-15.45,14.58l-4.58,4.18c-1.19,1.09-2.46,2.11-3.7,3.15l-4.73,4c-.37.31-.77.58-1.15.87-1.16.86-2.32,1.74-3.47,2.61s-2.27,1.74-3.47,2.53l-3.1,2c-.69.46-1.37,1-2.1,1.37-1.55.9-3.09,1.86-4.69,2.68l-2.86,1.45a31.5,31.5,0,0,1-6.32,2.32c-1.91.49-3.89.75-5.84,1.07a8.19,8.19,0,0,1-3.58-.25,3.59,3.59,0,0,1-1.29-.62,8.59,8.59,0,0,1-1.8-1.76,8.34,8.34,0,0,1-1-1.82,14.54,14.54,0,0,1-.62-2.44,17.23,17.23,0,0,1-.15-2.59,25.3,25.3,0,0,1,.16-3c.1-1.25.36-2.5.58-3.75.17-1,.38-1.95.59-2.92a55.06,55.06,0,0,1,1.45-5.4c.69-2.13,1.39-4.26,2.08-6.39.52-1.58,1.18-3.11,1.81-4.66s1.1-2.86,1.74-4.24c1-2.11,1.95-4.21,2.92-6.31,1.18-2.55,2.48-5.05,3.72-7.57s2.55-5.23,3.82-7.86,2.54-5.42,3.92-8.08l2.24-4.38c.67-1.3,1.28-2.64,2-3.91l2.59-4.51c.59-1,1.15-2.09,1.79-3.09,1.75-2.75,3.48-5.51,5.31-8.21,3-4.51,6.12-9,9.12-13.56-.83.25-1.65.52-2.47.8-2.63,1-5.16,2.17-7.69,3.4-3.1,1.64-6.2,3.26-9.28,4.94-3.56,1.93-7.1,3.87-10.65,5.82q-10,5.52-19.89,11.25c-3.28,1.89-6.55,3.81-9.81,5.73s-6.65,3.85-10,5.76-6.52,3.48-9.8,5.18a95.64,95.64,0,0,1-10.53,4.61,82.78,82.78,0,0,1-32.49,5.27c-3.6-.07-7.21-.17-10.82-.12-3.8,0-7.59.12-11.38.18a25.38,25.38,0,0,1-2.76,0,18.36,18.36,0,0,1-2.34-.36,6.49,6.49,0,0,1-1.74-.73,7.39,7.39,0,0,1-1.51-1.1,10.52,10.52,0,0,1-2.73-8.59,30.66,30.66,0,0,1,3.47-10.61,69.44,69.44,0,0,1,8.21-12c3.29-4.06,6.88-7.86,10.4-11.72,2.34-2.56,4.8-5,7.21-7.49,1.35-1.41,2.79-2.73,4.18-4.1,1.09-1.06,2.17-2.13,3.3-3.15l5.24-4.74c1.32-1.19,2.74-2.29,4.12-3.42,1.14-.94,2.27-1.89,3.45-2.78l5.57-4.22c2.75-2.1,5.57-4.13,8.34-6.21l9.87-7.45c5.95-4.49,12-8.83,18-13.25,2.78-2.05,5.49-4.19,8.21-6.31s5.5-4.28,8.16-6.51l.54-.44,1.15-1.12c-.44-.11-.87-.21-1.31-.29-.75-.11-1.49-.19-2.24-.24a68.67,68.67,0,0,0-8.24.23c-5.47.56-10.91,1.45-16.35,2.24l-11.37,1.63-22.71,3.3c-3.69.53-7.4.94-11.11,1.4s-7.36.68-11,1c-7.18.58-14.4.85-21.6,1-7.36.18-14.71.28-22.07.19-3.91-.05-7.81-.1-11.71-.23-1.89-.05-3.77-.08-5.65-.19l-6.37-.38c-1.59-.1-3.18-.31-4.76-.48L25,860.77c-1-.12-2.07-.39-3.09-.58-.78-.14-1.6-.23-2.38-.44L16.74,859c-1.14-.31-2.25-.67-3.36-1.06a14,14,0,0,1-2.47-1.1A13.19,13.19,0,0,1,8.19,855a12.1,12.1,0,0,1-2.92-3.88,13.49,13.49,0,0,1-1.13-4.19,15.14,15.14,0,0,1,0-3c.14-.95.29-1.78.51-2.71a25.52,25.52,0,0,1,2.4-5.71,35.87,35.87,0,0,1,3.44-5A44.35,44.35,0,0,1,15,825.57,55.89,55.89,0,0,1,27,817a81.36,81.36,0,0,1,10.11-4.7L43.39,810c1.59-.6,3.23-1.08,4.84-1.61s3.08-1,4.64-1.46c4-1.17,7.91-2.31,11.87-3.45,3.5-1,7-2.09,10.46-3.14,6.81-2,13.57-4.25,20.4-6.22,3.51-1,7-2.06,10.53-3,4-1.1,8.05-2.2,12.09-3.27,3.41-.91,6.83-1.82,10.2-2.85,1.92-.58,3.84-1.17,5.74-1.82,1.64-.55,3.28-1.14,4.91-1.73,2.41-.9,4.84-1.77,7.18-2.84.52-.28,1-.58,1.52-.89v0a13.86,13.86,0,0,0-1-1.44l.27.37c-.78-1-1.59-2-2.45-3-1.49-1.57-3-3-4.67-4.46-1.49-1.2-3-2.33-4.58-3.41a72.66,72.66,0,0,0-7.12-3.94c-5.39-2.5-11-4.43-16.58-6.46-3.08-1.12-6.17-2.24-9.24-3.38l-11.62-4.29c-3.09-1.13-6.18-2.25-9.23-3.48-3.58-1.44-7.15-2.91-10.63-4.6l-5.52-2.68c-1.71-.84-3.38-1.78-5.07-2.67s-3-1.74-4.51-2.62a63.94,63.94,0,0,1-9.11-6.47A69.69,69.69,0,0,1,38,715.91c-1.65-2-3.13-4.17-4.66-6.28-.9-1.25-1.76-2.52-2.61-3.8-1-1.56-2.07-3.11-3.05-4.7s-2.05-3.21-3-4.85-2.1-3.53-3-5.36a99.89,99.89,0,0,1-4.79-10.67,9.44,9.44,0,0,1-.81-4.31,7.76,7.76,0,0,1,1.5-3.71,8.42,8.42,0,0,1,3.59-2.49,23,23,0,0,1,6.3-1.41,85,85,0,0,1,10.09-.61l7.39,0c1.44,0,2.89.14,4.33.23l3.91.24c.66,0,1.35,0,2,.13l6.23.82c1.47.19,2.93.37,4.38.66,3.62.73,7.26,1.36,10.84,2.28l8.32,2.13c1.16.29,2.31.67,3.47,1l5.21,1.52c4.86,1.42,9.69,3,14.54,4.46q7,2.14,14.08,4c2.76.72,5.51,1.43,8.28,2.12,2.4.59,4.82,1.08,7.24,1.57,1.55.27,3.11.57,4.68.76v0l0-.59c0-.31,0-.63,0-.94-.1-.9-.24-1.78-.42-2.66s-.54-1.94-.86-2.9c-.53-1.37-1.13-2.69-1.77-4-1.1-2.06-2.32-4-3.62-6-2-2.79-4.12-5.43-6.36-8l-3.69-4c-1.1-1.2-2.24-2.36-3.38-3.52s-2.26-2.35-3.43-3.48l-5.07-4.9c-5.32-5.13-11-9.92-16.56-14.76-2.53-2.19-5-4.43-7.42-6.75-1.34-1.29-2.73-2.55-4-3.89l-4.71-4.87c-1-1-1.94-2.09-2.9-3.15-1.33-1.48-2.7-2.94-4-4.45-2.62-3-5.21-6.08-7.75-9.18-2.13-2.6-4.23-5.23-6.22-7.94-.71-1-1.42-2-2.14-2.93-.46-.63-1-1.26-1.38-1.91q-1.65-2.56-3.32-5.13c-.91-1.39-1.68-2.88-2.46-4.35a63.74,63.74,0,0,1-2.8-6.05,38.27,38.27,0,0,1-1.83-6.22,21.78,21.78,0,0,1-.24-6.74,15.84,15.84,0,0,1,.5-2.37,7.75,7.75,0,0,1,.83-2,18.6,18.6,0,0,1,1.41-2,14,14,0,0,1,1.57-1.51,7.64,7.64,0,0,1,1.88-1.13,20.78,20.78,0,0,1,2.32-.86,15.9,15.9,0,0,1,6.11-.33,20.57,20.57,0,0,1,2.79.47c1.26.28,2.47.62,3.7,1,2.25.74,4.46,1.63,6.63,2.57,3,1.27,5.83,2.71,8.74,4.07l5.73,2.69c1.75.82,3.56,1.52,5.34,2.29,3.42,1.46,6.86,2.83,10.31,4.22,1.48.59,2.93,1.26,4.39,1.9s3.07,1.28,4.56,2c2.82,1.42,5.68,2.77,8.43,4.32,2.91,1.64,5.82,3.26,8.69,5,6,3.57,12,7.24,17.88,11q8,5,16.26,9.5c3.1,1.68,6.22,3.3,9.35,4.92,2.51,1.3,5.08,2.5,7.63,3.74,2.18.94,4.36,1.9,6.54,2.85.77.33,1.57.59,2.35.87l3.31,1.24c3.2,1,6.39,2,9.64,2.75l0-.05c.22-.53.41-1.07.58-1.62-.06.19-.12.38-.19.57.35-1.15.63-2.29.87-3.47a68.47,68.47,0,0,0,.79-7.13,80.68,80.68,0,0,0-.2-9.2c-.32-3.34-.77-6.66-1.4-9.95-.39-2-.78-4-1.16-6-.53-2.15-1.05-4.31-1.58-6.47-.46-1.89-1-3.74-1.59-5.6-.5-1.7-1-3.42-1.57-5.09-.77-2.16-1.55-4.31-2.32-6.46-1.35-3.16-2.65-6.33-4.11-9.44q-2.58-5.49-5.19-11c-3.22-6.83-6.28-13.73-9.32-20.64-1.35-3-2.67-6.11-4-9.17-1.53-3.5-3.08-7-4.54-10.53-.86-2.1-1.73-4.19-2.59-6.29-.66-1.59-1.2-3.23-1.79-4.84l-1.17-3.19c-.18-.49-.39-1-.54-1.5-.7-2.27-1.38-4.54-2.07-6.81s-1.25-4.71-1.77-7.1a65.55,65.55,0,0,1-1.52-13.24c0-1.88.09-3.76.22-5.63.15-2.1.31-4.2.56-6.29.05-.54.12-1.08.21-1.61a8.33,8.33,0,0,1,.54-1.76,4.08,4.08,0,0,1,.86-1.31,6,6,0,0,1,1.36-1.25,5.43,5.43,0,0,1,2.7-.9,3.86,3.86,0,0,1,1.07.12,5.73,5.73,0,0,1,1.83.56,19.88,19.88,0,0,1,3.53,2.42c1.81,1.61,3.47,3.39,5.14,5.13,3.35,3.5,6.43,7.24,9.56,10.92.58.69,1.18,1.36,1.73,2.08l3.78,5,2.79,3.68c.75,1,1.43,2,2.14,3.08q5.6,8.1,11.16,16.24,6.75,9.46,13.66,18.8c2.22,3,4.5,6,6.76,8.95,1,1.29,2,2.53,3.07,3.78,1.55,1.9,3.08,3.8,4.71,5.62,1.22,1.33,2.46,2.64,3.73,3.91,1.76,1.76,3.63,3.39,5.52,5l-.33-.28,5.42,4.28c.67.53,1.4,1,2.1,1.47l3,2.1c2.06,1.29,4.16,2.49,6.33,3.57a44.92,44.92,0,0,0,4.49,1.83c1.06.32,2.11.59,3.19.83a38,38,0,0,0,3.84.48,21.58,21.58,0,0,0,2.27-.06c.39,0,.78-.1,1.16-.17l.62-.2.45-.2.42-.27.4-.33.53-.57.6-.81c.29-.47.56-.94.81-1.43.4-.92.76-1.83,1.09-2.78.4-1.34.73-2.69,1-4.06a81.26,81.26,0,0,0,1-9.21c.05-1.37.13-2.75.09-4.12l-.09-3c0-1.53,0-3.08-.13-4.61l-.54-6.35c-.16-1.9-.42-3.78-.64-5.67-.19-1.59-.38-3.16-.64-4.74-.36-2.22-.73-4.43-1.1-6.65-.39-1.64-.77-3.28-1.16-4.92-.35-1.46-.66-2.93-1.08-4.38-1.11-3.74-2.19-7.49-3.41-11.2s-2.5-7.64-3.72-11.47c-.42-1.31-.86-2.61-1.2-3.94l-1.74-6.69c-.16-.63-.26-1.26-.37-1.9l-.69-3.8a70.75,70.75,0,0,1-1.05-10.57,41.74,41.74,0,0,1,1.63-12.27,33.37,33.37,0,0,1,5.55-11.08,20,20,0,0,1,1.55-1.77,10.32,10.32,0,0,1,1.71-1.46,12.68,12.68,0,0,1,2.25-1.24,7.49,7.49,0,0,1,1.86-.54,11.46,11.46,0,0,1,4.7.2c.94.28,1.76.55,2.66.91a16.32,16.32,0,0,1,2.93,1.6c1,.67,2,1.36,2.94,2.12.77.61,1.49,1.29,2.21,2a53.24,53.24,0,0,1,4.56,4.93,64.46,64.46,0,0,1,3.93,5.24c1,1.48,2,3,2.94,4.5,6,10,11.87,20,17.32,30.29,2.74,5.17,5.46,10.34,8.24,15.49,1.11,2.06,2.25,4.12,3.46,6.12.77,1.28,1.5,2.58,2.31,3.83s1.73,2.66,2.59,4c2.33,3.3,4.69,6.57,7,9.89s4.33,6.66,6.38,10.05,4.13,6.93,6,10.5c1.09,2.08,2.1,4.19,3.1,6.31,1.49-3.51,3.06-7,4.67-10.45q3-6.37,6.18-12.62,3.67-7.07,7.26-14.18c1.43-3.08,2.9-6.13,4.21-9.25q2.42-5.72,4.72-11.45c2.61-6.45,5.42-12.84,8.47-19.09,1.78-3.65,3.57-7.29,5.43-10.9s3.7-7,5.59-10.51c3.42-6.31,7-12.5,10.72-18.67a186.84,186.84,0,0,1,11.82-17.89,23.12,23.12,0,0,1,2.59-2.92,9.31,9.31,0,0,1,1.73-1.32,7.82,7.82,0,0,1,1.83-.91,8.4,8.4,0,0,1,2.11-.42,9,9,0,0,1,2.25.21,6.69,6.69,0,0,1,1.78.71l1.09.69,1.18,1a12,12,0,0,1,1.67,2c.51.69.95,1.44,1.39,2.17a19.09,19.09,0,0,1,1.95,4.75,31.4,31.4,0,0,1,.93,5.77,46.6,46.6,0,0,1,.16,6.14c-.09,1.84-.14,3.69-.3,5.53s-.34,3.72-.58,5.57c-.46,3.59-1,7.16-1.55,10.73-1.13,7.15-2.24,14.31-3.4,21.47-1,6.28-2.16,12.57-2.9,18.9-.36,3.07-.75,6.14-.93,9.22-.21,3.31-.4,6.61-.57,9.92s-.33,6.82-.4,10.24-.08,7.11,0,10.66c.08,7.16.25,14.31.78,21.45a77,77,0,0,0,1.12,8c.09.34.18.67.28,1v0l.45.24.35.14.22.06h.43l-.37,0h-.11l-.09,0h0l.09,0-.3,0,.32,0,.13.06-.13-.06a10.68,10.68,0,0,0,1.25-.16c.53-.14,1.06-.29,1.58-.46,1.25-.49,2.47-1,3.69-1.63,2.31-1.24,4.56-2.57,6.75-4,1.85-1.21,3.67-2.46,5.49-3.72,2.9-2.06,5.76-4.16,8.56-6.36s5.48-4.45,8.14-6.77c5.79-5.05,11.57-10.1,17.43-15.07q8-6.75,15.72-13.73c5.48-4.94,10.91-9.95,16.44-14.84q9-7.91,18-15.67c5.28-4.53,10.68-8.94,16.22-13.15l2-1.48c.49-.37,1-.7,1.5-1l.49-.25c.46-.21.94-.4,1.41-.56a43.15,43.15,0,0,1,7.07-.91,8.36,8.36,0,0,1,3.56.62,6.4,6.4,0,0,1,1.53.86,7.83,7.83,0,0,1,1.34,1.23,9.69,9.69,0,0,1,2.07,3.77,22.8,22.8,0,0,1,.58,2.94,15.92,15.92,0,0,1,.07,3,45.72,45.72,0,0,1-3,12.71c-.85,2.37-1.94,4.65-3,6.95-.73,1.64-1.63,3.23-2.44,4.83s-1.88,3.33-2.82,5c-.81,1.42-1.73,2.8-2.6,4.19s-1.62,2.5-2.43,3.73c-1.75,2.64-3.57,5.23-5.4,7.81-3.83,5.45-7.54,11-11.18,16.54q-3.72,5.81-7.32,11.7c-2.42,4-4.8,8-7.2,12-2.25,3.75-4.6,7.43-6.92,11.14s-4.63,7.78-6.72,11.79c-1.23,2.58-2.32,5.21-3.33,7.88-1.07,2.84-2.16,5.68-3.15,8.55-.27,1-.52,2.07-.75,3.12-.11.67-.21,1.32-.29,2,0,.07,0,.14,0,.21l.09.09.31.22.52.28.74.32-.55-.19a11.83,11.83,0,0,0,1.64.48l1.07.14-.6,0a13.77,13.77,0,0,0,2.13,0c.6-.06,1.19-.15,1.79-.27,1.15-.28,2.27-.61,3.38-1a101.65,101.65,0,0,0,10-4.73c6.42-3.54,12.82-7.14,19.15-10.85,6.61-3.88,13.1-8,19.55-12.09,3.07-2,6.1-4,9.14-6s6.18-4,9.32-5.86,6.24-3.61,9.4-5.36q4.47-2.49,9-4.81c3.18-1.62,6.38-3.23,9.62-4.75s6.57-3,10-4.23a16.63,16.63,0,0,1,7.42-1.33,14.71,14.71,0,0,1,3.57.89,7.2,7.2,0,0,1,1.89,1.07c.43.33.86.67,1.27,1l1,1.16a8.58,8.58,0,0,1,1.75,3.84,12.19,12.19,0,0,1,0,4.26,19.64,19.64,0,0,1-1.54,4.84,38.94,38.94,0,0,1-3.67,6.27,80,80,0,0,1-5.24,6.67c-1.1,1.33-2.22,2.66-3.36,4-2.4,2.71-4.81,5.4-7.27,8-5,5.34-9.93,10.65-15.1,15.79L605,584.38c-2.41,2.41-4.66,5-6.92,7.49l-2.92,3.6c-1,1.3-2,2.67-3,4-1.86,2.47-3.65,5-5.48,7.51-3.3,4.55-6.55,9.13-9.65,13.83-1.72,2.72-3.51,5.43-5,8.3,0,.16-.11.32-.16.48s-.08.35-.11.53v.06l.26.1c.34.1.68.19,1,.26s1,.14,1.46.18c1,0,2,0,3-.06,1.46-.14,2.9-.31,4.35-.51s3.09-.54,4.63-.83l-.6.14c3.51-.79,7-1.55,10.52-2.42q6-1.49,11.91-3c3.15-.83,6.28-1.73,9.42-2.6,1.82-.5,3.63-1,5.47-1.51l6.63-1.65c1.42-.36,2.85-.64,4.29-.94,1.81-.37,3.61-.8,5.44-1.09l6-.94c.8-.12,1.63-.16,2.44-.25l3.66-.37c1.83-.19,3.69-.25,5.53-.37s3.61-.17,5.43-.24c3.43-.14,6.86-.18,10.3-.23s6.91-.12,10.36-.11q2.24,0,4.44.21a19.71,19.71,0,0,1,2.55.45,5.1,5.1,0,0,1,2.91,1.92,5.39,5.39,0,0,1,1,3.22,7.39,7.39,0,0,1-.84,3.28,29.17,29.17,0,0,1-6,7.6c-.59.58-1.17,1.18-1.81,1.71l-2.41,2c-1.33,1.12-2.79,2.1-4.18,3.13s-3,2.07-4.47,3.1l-4.57,3.13c-3.2,2.22-6.39,4.43-9.62,6.58-3,2-6,3.84-9,5.71-2.87,1.78-5.79,3.49-8.61,5.34-2.15,1.42-4.28,2.87-6.41,4.34-2.59,1.83-5.18,3.69-7.87,5.38-1.56,1-3.11,1.93-4.71,2.83s-3.12,1.74-4.69,2.59c-3.15,1.7-6.28,3.42-9.38,5.21q-4.39,2.52-8.6,5.38c-2.58,1.84-5.13,3.71-7.63,5.65q-2.21,1.72-4.4,3.46c-1.45,1.14-2.93,2.26-4.33,3.47l-.29.3-.07.08,0,.06,0,.09v.34l.06.54c0,.22.11.43.16.64l-.18-.49a12,12,0,0,0,.64,1.57c.45.8.92,1.56,1.43,2.31.78,1,1.58,2,2.43,3,2.31,2.48,4.82,4.74,7.34,7,1.58,1.43,3.17,2.87,4.78,4.28q5.3,4.67,10.63,9.27c5.67,4.78,11.37,9.52,16.92,14.43s10.85,10.28,16.08,15.62c2.45,2.49,4.88,5,7.36,7.45,2.7,2.67,5.44,5.28,8.19,7.89,2.45,2.32,4.88,4.69,7.1,7.23,1.24,1.42,2.48,2.82,3.68,4.28s2.37,2.95,3.53,4.46c.68.89,1.34,1.78,2,2.69a17.56,17.56,0,0,1,1.3,2,30.08,30.08,0,0,1,1.43,3.24,9.23,9.23,0,0,1,.85,4.22,3.36,3.36,0,0,1-.23.88,6,6,0,0,1-.55,1.5,9.39,9.39,0,0,1-1.88,2.33,17.17,17.17,0,0,1-5.79,3.47,37.23,37.23,0,0,1-6.17,1.58c-1.25.21-2.5.35-3.77.48s-2.55.11-3.82.15-2.56-.05-3.83-.08-2.36-.17-3.55-.28-2.28-.2-3.41-.39l-4.47-.72c-1.25-.21-2.48-.5-3.71-.76s-2.17-.45-3.25-.69q-4-.89-8-1.72c-2.63-.46-5.25-.89-7.91-1.2l-4.6-.54c-1.57-.19-3.14-.47-4.72-.7-1.28-.19-2.54-.45-3.81-.7s-2.62-.49-3.91-.78c-3.07-.65-6.14-1.29-9.21-1.9-2.65-.47-5.3-.92-8-1.3s-5.31-.65-8-1c-3.93-.52-7.85-1.09-11.8-1.5.16.56.33,1.11.51,1.67a51,51,0,0,0,2.14,4.85,104.39,104.39,0,0,0,6.07,9.67q3,4.08,6,8.13c2.29,3.08,4.61,6.15,6.82,9.29l3.84,5.46c1,1.4,1.89,2.87,2.81,4.32s1.94,2.87,2.81,4.36l3.5,5.93c3.54,6,6.89,12.14,10.25,18.26q3,5.34,5.84,10.72c.74,1.4,1.52,2.78,2.23,4.2q1.61,3.23,3.22,6.45c1.61,3.23,3.07,6.54,4.58,9.82.78,1.68,1.47,3.4,2.2,5.1s1.34,3.17,2,4.76c2.88,7.05,5.62,14.16,8.37,21.27,1.3,3.36,2.51,6.76,3.72,10.16.62,1.72,1.2,3.46,1.81,5.19a12.64,12.64,0,0,1,.75,2.64,9.87,9.87,0,0,1,.11,2.1,6.92,6.92,0,0,1-1.76,3.89,8.31,8.31,0,0,1-3.35,2.08,16.48,16.48,0,0,1-2.49.62,14.33,14.33,0,0,1-3.14.09,33.87,33.87,0,0,1-5.67-.84c-1.56-.33-3.06-.82-4.57-1.3s-3.27-1.05-4.87-1.69-3.34-1.27-5-2l-3.3-1.52c-.68-.31-1.39-.61-2-1l-5.54-2.91c-1.59-.84-3.12-1.83-4.68-2.74s-3.25-2-4.87-3c-2.88-1.75-5.74-3.52-8.55-5.39-1.35-.89-2.75-1.74-4.06-2.7q-2.91-2.12-5.81-4.24c-2.84-2.07-5.56-4.3-8.32-6.47s-5.27-4.29-7.89-6.45q-4.49-3.72-8.93-7.47c-3-2.55-5.87-5.29-8.72-8-4-3.8-7.77-7.77-11.62-11.69q-2.37-2.41-4.76-4.82c0,1.77,0,3.54,0,5.32s.13,3.31.2,5,.12,3.21.22,4.81c.47,7.48,1,15,1.41,22.44.42,7.7.89,15.39,1.1,23.1l.18,6.38c.05,2.07,0,4.14,0,6.21,0,3.32-.22,6.65-.42,10-.44,7.65-.75,15.31-1.33,22.95-.14,1.79-.35,3.56-.59,5.34s-.64,3.79-1,5.69a85.14,85.14,0,0,1-2.73,10c-.37,1.11-.74,2.22-1.14,3.32a15.16,15.16,0,0,1-2,3.75,8.23,8.23,0,0,1-2.65,2.26,9,9,0,0,1-1.8.7,7.07,7.07,0,0,1-1.39.22,4.19,4.19,0,0,1-1.12,0l-1.22-.14a7.25,7.25,0,0,1-1.71-.48,13.34,13.34,0,0,1-2-.91,14,14,0,0,1-2.29-1.62,20.27,20.27,0,0,1-1.87-1.72,30.43,30.43,0,0,1-3.42-4.18c-1.49-2.15-2.83-4.37-4.1-6.66-.95-1.7-1.79-3.47-2.68-5.2-.8-1.55-1.48-3.15-2.2-4.74q-2.07-4.61-3.82-9.35c-2.14-5.8-4.26-11.6-6.51-17.35-2.34-6-4.81-11.84-7.34-17.72-2.26-5.29-4.59-10.57-6.85-15.86-2.15-5-4.32-10-6.79-14.93-.26,2.49-.44,5-.62,7.49-.21,2.78-.41,5.55-.62,8.32q-.62,8.28-1.24,16.56c-.42,5.67-.79,11.33-1.16,17-.32,5-.54,9.92-.8,14.88q-.46,11.52-1,23c-.17,3.59-.46,7.17-.71,10.75-.11,1.62-.3,3.24-.46,4.85s-.29,3.33-.51,5l-.81,6.23c-.24,1.82-.64,3.64-1,5.43a45.63,45.63,0,0,1-2.24,7.42,19.69,19.69,0,0,1-2.81,4.79,12.11,12.11,0,0,1-3.37,3c-.73.42-1.43.78-2.2,1.13a12.57,12.57,0,0,1-2.42.75,13.81,13.81,0,0,1-2.87.34A25,25,0,0,1,431.17,1058.25Z"/><path d="M420.15,663.23a9,9,0,0,1-4.59-5.59,12.07,12.07,0,0,1-.44-4.76,10.36,10.36,0,0,1,1.05-7.23,12,12,0,0,1,1.14-1.64c.1-.17.21-.32.32-.48a18.66,18.66,0,0,1,5.92-5.37,11.9,11.9,0,0,1,6.77-1.85,10.65,10.65,0,0,1,3.19.73,7.61,7.61,0,0,1,2.78,2.25,9.8,9.8,0,0,1,1.6,2.9,10.28,10.28,0,0,1,.68,3.19,14.18,14.18,0,0,1-.24,3.45,12.56,12.56,0,0,1-.7,6.58,15.57,15.57,0,0,1-1.89,3.44,17.36,17.36,0,0,1-2.48,2.59,11.26,11.26,0,0,1-7.27,2.38,7.37,7.37,0,0,1-2.13.31A8.38,8.38,0,0,1,420.15,663.23Z"/><path d="M484.65,667.63l-1.26-.27a5.21,5.21,0,0,1-1.1-.42,8.82,8.82,0,0,1-1.93-.73,10.34,10.34,0,0,1-2.79-2.07,9.72,9.72,0,0,1-1.74-2.81A13,13,0,0,1,475,658a11.91,11.91,0,0,1,.22-4.37,18,18,0,0,1,2.95-6.76,16.2,16.2,0,0,1,2.4-2.63c.32-.27.65-.53,1-.77a24.57,24.57,0,0,1,1.83-2.1,13.46,13.46,0,0,1,2.65-2,10.16,10.16,0,0,1,3.76-1.38,9.17,9.17,0,0,1,6.91,2.17c3.87,3,4.31,8.72,3.12,13.17a17.79,17.79,0,0,1-1.16,3,21.85,21.85,0,0,1-1.94,3.39,30,30,0,0,1-4.86,5.21,11.86,11.86,0,0,1-1.06.94,12.19,12.19,0,0,1-2.06,1.23,5.64,5.64,0,0,1-1.46.4,5.07,5.07,0,0,1-1.29.16h-.19A10.88,10.88,0,0,1,484.65,667.63Z"/><path d="M407.11,811.23a27.22,27.22,0,0,1-3.5-.44,36.68,36.68,0,0,1-6.06-1.84c-1.53-.56-3-1.17-4.52-1.77l-2.46-.89c-.79-.28-1.57-.61-2.37-.85l-5.28-1.56-3.85-1a50.55,50.55,0,0,1-8.6-2.66,39.12,39.12,0,0,1-6.81-4.35l-3.17-2.33-3.79-2.4c-.58-.37-1.21-.7-1.81-1-.92-.53-1.83-1.06-2.72-1.6a16.15,16.15,0,0,1-4.21-3.66,20.69,20.69,0,0,1-1.86-3q-1.12-2-2.28-4c-.58-1-1.2-2-1.73-3-.66-1.26-1.32-2.51-2-3.77-1.23-2.44-2.64-4.81-4-7.2-.54-.94-1-1.91-1.48-2.87-.33-.64-.59-1.32-.89-2-.2-.44-.41-.88-.58-1.33l-.78-2.06c-.2-.54-.33-1.1-.49-1.64a23.82,23.82,0,0,1-.72-3.2,28.57,28.57,0,0,1,1-13.86,67,67,0,0,1,2.41-7.12,3.92,3.92,0,0,1,2.11-2.11,5.81,5.81,0,0,1,3.53-.36c2.32.5,4,2.51,3.19,4.34-.61,1.47-1.16,3-1.7,4.44-.43,1.21-.75,2.45-1.11,3.67a32.7,32.7,0,0,0-.82,4.24,31.87,31.87,0,0,0,0,4.26,33.65,33.65,0,0,0,.69,3.82c.17.56.31,1.13.53,1.68.29.74.57,1.49.86,2.23a63.36,63.36,0,0,0,2.89,5.69c1.12,1.93,2.33,3.84,3.38,5.8,1.16,2.15,2.34,4.29,3.65,6.39,1.18,1.91,2.39,3.82,3.56,5.73a17.23,17.23,0,0,0,1,1.4l.33.33c.3.24.6.48.92.71,1.49.94,3.07,1.79,4.62,2.67,1.1.63,2.13,1.32,3.19,2s2.1,1.37,3.11,2.11c1.49,1.09,3,2.2,4.49,3.28.69.45,1.4.88,2.15,1.29.33.16.66.31,1,.45.88.33,1.79.61,2.71.87l7,1.78c2,.51,3.93,1.14,5.89,1.72.62.19,1.22.42,1.82.64l3.26,1.18c1.59.57,3.14,1.21,4.7,1.83,1.1.41,2.19.81,3.33,1.14.57.14,1.14.27,1.72.38s.89.1,1.34.14c1.36,0,2.72,0,4.09-.06,2.92-.17,5.82-.46,8.7-.89s5.48-1,8.15-1.7c2.07-.57,4.08-1.21,6.06-1.92l2.89-1,4.46-1.57c1.42-.5,2.85-1,4.25-1.52l4.46-1.72c3.05-1.36,6.11-2.68,9-4.18,1.67-.89,3.29-1.83,4.83-2.85,1-.7,2-1.44,2.86-2.21a39.28,39.28,0,0,0,2.89-2.88,33.76,33.76,0,0,0,2.45-3.22,43.7,43.7,0,0,0,2.81-5.2c.42-1,.85-2.08,1.28-3.11s.71-1.91,1.06-2.87c.7-2,1.36-3.91,2-5.87.78-2.31,1.54-4.61,2.29-6.93.63-1.95,1.18-3.91,1.75-5.88.33-1.55.65-3.1,1-4.66.13-.64.15-1.31.23-2s.18-1.57.28-2.36c.18-2.74.3-5.48.48-8.22.09-1.45.19-2.91.28-4.36,0-.44.06-.88.08-1.32-.86.71-1.72,1.42-2.64,2.1l-2.09,1.54c-.72.54-1.54,1-2.3,1.51-2.71,1.76-5.67,3.26-8.6,4.78-2.74,1.42-5.56,2.73-8.38,4a61.79,61.79,0,0,1-14.43,4.36l-2.6.5c-.83.16-1.7.25-2.54.36-1.56.21-3.1.43-4.67.55-1.89.16-3.79.36-5.69.45l-5.93.25c-1.13,0-2.27,0-3.41,0H422c-1.51,0-3,0-4.53,0s-3.1-.06-4.66-.11c-1.82-.07-3.66-.1-5.48-.22l-6.12-.4c-1.37-.09-2.73-.24-4.09-.38-1.53-.15-3.07-.27-4.59-.45l-6.23-.73c-1.26-.15-2.51-.32-3.77-.5-1.92-.26-3.85-.51-5.76-.81l-.45-.07c-2.07-.33-4.15-.66-6.21-1.06s-4.35-1-6.48-1.55a55.05,55.05,0,0,1-5.48-1.84,33.31,33.31,0,0,1-5.25-2.71c-1.91-1.15-3.7-2.44-5.52-3.69-1.24-.85-2.52-1.68-3.64-2.62l-.25-.16h0a1,1,0,0,1-.54-.82c0-.76,1-1.22,1.88-1a20.07,20.07,0,0,1,3.11,1.33c.67.33,1.34.65,2,1,2.72,1.39,5.43,2.81,8.35,4,1.38.5,2.79.94,4.22,1.33,3,.77,6,1.37,9,1.86,3.57.53,7.18.9,10.78,1.27,1.91.19,3.81.38,5.72.54,2.07.18,4.15.38,6.23.52l6.84.47,6.51.25c2.11.08,4.22.05,6.32.07,4,0,8.07-.1,12.1-.2,2.73-.17,5.46-.31,8.17-.58,1.5-.14,3-.23,4.51-.46l4.44-.67,4.29-.9c.62-.13,1.22-.32,1.83-.47l1.64-.43c1.27-.37,2.52-.77,3.75-1.23,3.82-1.52,7.41-3.39,11-5.22,1.55-.82,3.11-1.63,4.61-2.5.82-.47,1.67-.92,2.45-1.43l2.36-1.56,2.25-1.69c.7-.53,1.35-1.1,2-1.65l3.75-3.07c.84-.81,1.54-1.69,2.39-2.5.28-.26.59-.52.89-.77a6.59,6.59,0,0,1,2.12-1.16,6.32,6.32,0,0,1,6.46,1.52c1.32,1.46,1.51,3.24,1.65,5a30.77,30.77,0,0,1,0,4.4c-.08,1.32-.17,2.64-.25,4-.17,2.6-.29,5.21-.45,7.81-.09,1.36-.17,2.71-.27,4.06-.1,1.57-.34,3.12-.52,4.68-.15,1.24-.5,2.48-.76,3.71s-.57,2.42-.91,3.63c-.74,2.57-1.52,5.13-2.37,7.67s-1.79,5.33-2.7,8-1.85,5-2.87,7.5a42,42,0,0,1-4.54,8.18,37.87,37.87,0,0,1-8.45,8.46,51.7,51.7,0,0,1-5.3,3.35c-.94.52-1.9,1-2.86,1.5-.8.41-1.6.82-2.43,1.19l-5.18,2.31c-1.36.6-2.78,1.12-4.18,1.66s-2.71,1.05-4.09,1.54l-11.22,3.94a80.9,80.9,0,0,1-12.79,3.23,94.76,94.76,0,0,1-13.8,1.4l-1.5,0Q408.17,811.29,407.11,811.23Z"/><path d="M409.23,774.18c-2.29,0-4.58,0-6.87-.1-2.51-.07-5-.15-7.52-.25s-4.95-.22-7.43-.34-4.81-.29-7.22-.45c-4.63-.3-9.23-.79-13.81-1.36-2-.25-4-.49-6.05-.65q-3.88-.31-7.78-.57l-1-.09a2.41,2.41,0,0,1-1-.26.18.18,0,0,1,0-.31l.2-.12,0,0,.1-.09,0,0,.09-.1h0l.1-.13h0c.12-.21.22-.42.32-.64h0c.31-.72.59-1.46.85-2.2.08-.24.56-.13.48.1-.23.65-.46,1.3-.74,1.93a4.24,4.24,0,0,1-.61,1.15c.34,0,.68-.08,1-.09h.73l2.54,0c1.11,0,2.21,0,3.32,0,2.34.05,4.69.14,7,.26h-.15l4,.2c1.12.06,2.24.08,3.36.11,2.29.07,4.58.1,6.87.13,2.1,0,4.22,0,6.33,0,2.4,0,4.81,0,7.21-.08l8.34-.18c2.44-.07,4.88-.19,7.32-.31l-.39,0c1.6-.14,3.19-.3,4.8-.41l3-.22c.95-.07,1.91-.08,2.86-.12,1.76-.08,3.52-.12,5.28-.17,1.43,0,2.87-.14,4.3-.22s3.15-.26,4.71-.43l4.95-.52c.88-.08,1.76-.19,2.64-.26s1.68-.13,2.52-.22,1.55-.14,2.31-.25l2.82-.41c1.67-.27,3.34-.54,5-.78.89-.13,1.78-.28,2.67-.39l3.22-.37c1.79-.2,3.59-.32,5.4-.4s3.78-.08,5.67-.14c.42,0,.84-.08,1.26-.13a32.87,32.87,0,0,1,3.58-.54,4.66,4.66,0,0,1,2.23.34,3.08,3.08,0,0,1,1.45,1.27,2.14,2.14,0,0,1,.15,1.76,3,3,0,0,1-1.6,1.61,29.05,29.05,0,0,1-2.87,1.14,13.66,13.66,0,0,1-3.95.72c-.66,0-1.32,0-2,0-1.71,0-3.41,0-5.11.11-.94.06-1.89.1-2.83.19-1.19.12-2.4.2-3.59.35-2.45.31-4.9.63-7.34,1-1.07.15-2.15.26-3.23.39-.54.07-1.09.08-1.64.12l-1.5.1c-2.35.13-4.69.31-7,.5s-4.66.34-7,.5c-1.39.09-2.8.07-4.2.11-1,0-2.07,0-3.1,0-2.18,0-4.37-.06-6.55,0-1.1,0-2.21,0-3.32.05s-2.29.1-3.43.1Z"/><path d="M456.61,789.88a16.85,16.85,0,0,1-.53-3.44l0,.38a17.38,17.38,0,0,1,.17-3.88c.07-.56.14-1.11.26-1.67a15.54,15.54,0,0,0,.28-1.66l0-.32.09-1v-.18c0-2,.07-4,.07-5.94,0-1.65.07-3.3.16-4.94.24-4,.46-8.05.7-12.07.17-3,.34-6.09.61-9.12v.1c.09-1.05.18-2.1.28-3.15v.1a14.28,14.28,0,0,1,.41-2.51.84.84,0,0,1,.9-.46.73.73,0,0,1,.72.63c0,.13,0,.27,0,.41a.6.6,0,0,1-.1.31c-.27,3.67-.29,7.34-.31,11q0,3,0,6.07c0,1.8.11,3.59.18,5.38,0,1.28.13,2.55.2,3.83v-.19c.12,1.34.22,2.69.33,4,0-.07,0-.15,0-.22.38,2.94.68,5.89,1.28,8.8a40.36,40.36,0,0,1,.78,4.06c.07.73.13,1.46.23,2.19s.23,1.56.33,2.35a2.31,2.31,0,0,1-.46,1.79,3.68,3.68,0,0,1-2.18,1.29,4,4,0,0,1-.91.1C458.57,791.94,457,791.13,456.61,789.88Z"/><path d="M431.08,804.59a1.88,1.88,0,0,1-.78-1.76c.06-.52.1-1,.15-1.54a2.45,2.45,0,0,0,0,.27c.12-1.44.08-2.89.11-4.33,0-.8,0-1.6-.05-2.4,0-.53,0-1.07,0-1.6-.09-2.94-.19-5.88-.27-8.82-.05-1.52-.14-3-.13-4.57,0-1.77,0-3.54,0-5.31,0-1.48.09-3,.13-4.46.05-1.32.11-2.65.17-4q.19-4.25.47-8.47c.15-2.26.31-4.51.39-6.77h-.05a.62.62,0,0,1-.55-.75c.18-.58.36-1.16.53-1.74a2.29,2.29,0,0,1,.19-.63c.26-.58,1.48-.46,1.54.15a85.7,85.7,0,0,1,.12,9.75q-.11,4.36-.1,8.74c0,2.42.07,4.84.11,7.27,0,.84.07,1.69.11,2.53.06,1.27.11,2.55.19,3.82v-.17c.16,1.73.35,3.47.48,5.2v-.13c.29,2.89.61,5.78.92,8.67.33,3.09.62,6.18,1,9.27a1.82,1.82,0,0,1-.54,1.56,3.1,3.1,0,0,1-2.15.82A3.17,3.17,0,0,1,431.08,804.59Z"/><path d="M407.23,805.21a2.84,2.84,0,0,1-1.58-1.58c-.06-.21-.11-.43-.17-.64a4,4,0,0,1-.05-.85l0-.69c0-.4,0-.79,0-1.19,0-.87-.06-1.75-.1-2.62s0-1.6,0-2.4c0-.4.06-.8.09-1.2s0-1,0-1.44c0-.85,0-1.71-.07-2.57,0-.7-.07-1.39-.11-2.09-.11-1.72-.2-3.44-.29-5.16,0-.76-.12-1.54-.12-2.3s0-1.61,0-2.41c0-1.53,0-3.05,0-4.57q.2-5.6.42-11.19c.12-3,.2-6,.4-8.95.11-1.63.18-3.27.39-4.89a41.54,41.54,0,0,1,.86-5.53c.12-.45,1-.43,1,0a4.93,4.93,0,0,0,0,.67v0c.08.72.18,1.44.28,2.17,0,.27-.27.41-.53.38-.07,1-.13,1.9-.2,2.85-.1,1.7-.07,3.42-.09,5.13,0,1.53,0,3.07,0,4.61s0,2.89.08,4.33c.05,1.83.07,3.66.14,5.49l.24,6c.19,1.91.32,3.83.48,5.75a131.36,131.36,0,0,0,2.51,13.27c.19.72.38,1.43.55,2.14s.28,1.42.4,2.13a40.61,40.61,0,0,1,.52,4.52c0-.12,0-.24,0-.36,0,.23.05.46.06.69h0a2.22,2.22,0,0,1-.45,1.56,3.47,3.47,0,0,1-2.05,1.22,4.6,4.6,0,0,1-.91.09A4.27,4.27,0,0,1,407.23,805.21Z"/><path d="M380.9,798.2c-1.26-.13-2.33-1-2.29-2,.06-1.28.17-2.55.17-3.83,0-.61,0-1.23,0-1.84s-.08-1.36-.13-2v0h0v0h0v0h0v0l-.15-1.63v0a20.6,20.6,0,0,1-.07-2.48c0-1.09.06-2.16.13-3.24l.12-2c.1-1.49.2-3,.28-4.48s.19-3,.27-4.49c.08-1.23.18-2.46.23-3.69.06-1.58.14-3.16.21-4.73.06-1.24.13-2.48.16-3.72.08-2.76.13-5.52.2-8.27l.09-3.87.06-1.71c0-.6.05-1.19.11-1.79a5.34,5.34,0,0,1,.13-.8c.11-.38.26-.74.39-1.11a.86.86,0,0,1,1.37-.14,3.17,3.17,0,0,1,.35.65c.06.18.1.37.16.54a6,6,0,0,1,.26,1.67.58.58,0,0,1-.64.49.79.79,0,0,1-.44-.13c0,.8,0,1.6,0,2.41s0,1.9,0,2.85l0,3.37c0,2.86,0,5.72,0,8.58s-.09,5.61-.17,8.42c-.08,3-.15,6-.17,9l0,2.15c0,1.12,0,2.25.14,3.37v0h0v.07a18.52,18.52,0,0,0,.45,2.54c.21.69.46,1.37.62,2.07s.41,1.54.51,2.31.2,1.39.28,2.09a1.7,1.7,0,0,1,.85,1.75c-.13.55-.27,1.09-.41,1.63,0-.08.05-.17.07-.26-.07.27-.16.53-.25.8a2.65,2.65,0,0,1-2.56,1.5Z"/><path d="M1441.49,317.81c-.44,0-.87.1-1.3.17s-.93.26-1.39.42-.92.39-1.38.6c-.76.41-1.51.85-2.23,1.32s-1.4,1-2.07,1.61a36.53,36.53,0,0,0-2.65,2.63q-1.46,1.71-2.75,3.56a49.25,49.25,0,0,0-2.56,4.39c-1.59,3.24-2.89,6.6-4.15,10-.24.74-.47,1.49-.7,2.23s-.56,1.63-.76,2.45c-.41,1.68-.81,3.36-1.22,5-.17.95-.33,1.9-.5,2.86s-.39,1.88-.49,2.83l-.69,6.39c-.25,4.77-.51,9.53-.3,14.3.1,1.15.26,2.28.47,3.41.2.85.43,1.68.7,2.51s.62,1.56,1,2.32,1,1.72,1.5,2.54a42.2,42.2,0,0,0,2.67,3.41c.89,1,1.81,1.89,2.78,2.78.63.53,1.26,1,1.93,1.51.53.33,1.06.64,1.61.95s1.25.56,1.89.8,1.58.47,2.39.66a36,36,0,0,0,3.57.48c1.23.07,2.45.1,3.68.05a17.7,17.7,0,0,0,1.78-.24c1.16-.27,2.3-.6,3.44-1,1.3-.49,2.58-1,3.83-1.63q2.19-1.14,4.26-2.49a46.74,46.74,0,0,0,3.94-3.07c1-.89,1.92-1.82,2.82-2.8a36.41,36.41,0,0,0,2.27-3c1.08-1.65,2-3.37,2.93-5.11.48-1,1-2,1.41-3s.85-2.14,1.23-3.23.57-2.1.86-3.15c.23-.88.39-1.77.58-2.66.24-1.49.51-3,.7-4.47.21-1.66.39-3.31.53-5a27.47,27.47,0,0,0,0-2.87c-.08-.84-.2-1.67-.35-2.51A59.32,59.32,0,0,0,1469,348c-.9-2.34-1.81-4.68-2.89-6.94-.55-1.06-1.14-2.09-1.79-3.09a44.12,44.12,0,0,0-2.84-3.66c-1.91-2.12-4-4.09-6-6.1-1-.94-1.88-1.9-2.79-2.87a1.42,1.42,0,0,1-2.29-.31,11.43,11.43,0,0,1-1.4-2.6c-.25-.48-.52-.93-.81-1.38v0l0-.05,0,0a8,8,0,0,0-.67-.87c-.24-.27-.49-.52-.76-.77a8.27,8.27,0,0,0-.73-.56l-.44-.28.19.1a8.21,8.21,0,0,0-1-.47l.22.08a8.29,8.29,0,0,0-1.18-.33l.24.05a9.28,9.28,0,0,0-1.18-.15l-.93,0Zm-3.38,92.89a30.91,30.91,0,0,1-14.53-4.15,29.1,29.1,0,0,1-5.76-4.8,43.83,43.83,0,0,1-5-6.33,33,33,0,0,1-3.27-6.37,31.09,31.09,0,0,1-1.77-7.8,69.92,69.92,0,0,1,0-9.71c.15-3.69.47-7.37.94-11,.23-1.78.45-3.54.8-5.3s.7-3.85,1.21-5.73,1-3.89,1.71-5.8c.41-1.16.81-2.33,1.23-3.49.25-.72.57-1.41.86-2.11a81.38,81.38,0,0,1,5-10,35.28,35.28,0,0,1,10.65-11.33,22.65,22.65,0,0,1,6.53-2.95,12.92,12.92,0,0,1,6.87.14,10.84,10.84,0,0,1,5.29,3.35l0,.06a4.61,4.61,0,0,1,1.08-1.72,4.77,4.77,0,0,1,6.69,0l8.26,8.14,2.27,2.25a50.09,50.09,0,0,1,3.52,3.91,40.73,40.73,0,0,1,4.07,6.1c.82,1.49,1.51,3.05,2.18,4.62s1.36,3.31,2,5c.54,1.53,1.06,3.08,1.47,4.66a33.45,33.45,0,0,1,1.08,8.15,61,61,0,0,1-.44,6.9c-.17,1.69-.36,3.4-.68,5.06-.4,2.16-.84,4.29-1.34,6.43a44.81,44.81,0,0,1-1.89,5.74c-.67,1.75-1.52,3.43-2.35,5.1a40.15,40.15,0,0,1-8,11,46.77,46.77,0,0,1-13,8.81,41.88,41.88,0,0,1-6.91,2.41,29.77,29.77,0,0,1-4,.77,19.36,19.36,0,0,1-2.28.13C1439.75,410.79,1438.93,410.75,1438.11,410.7Z"/><path d="M1388.53,404.3a25,25,0,0,1-5.83-1,59.42,59.42,0,0,1-6-2.18c-1.44-.6-2.85-1.29-4.27-1.94a50,50,0,0,1-4.94-2.66c-.82-.49-1.62-1-2.41-1.56a22.1,22.1,0,0,1-2.47-2.06,14.48,14.48,0,0,1-3.15-4.41,22.73,22.73,0,0,1-1.63-5.71,57.11,57.11,0,0,1-.71-7.61l-.12-2.16c0-.64,0-1.3,0-1.94,0-1.4,0-2.78.08-4.18.07-1.55.14-3.08.31-4.61.07-.71.15-1.42.23-2.12s.28-1.58.42-2.37c.28-1.53.65-3,1-4.55s.81-2.74,1.25-4.1,1-2.86,1.55-4.28,1.12-2.67,1.7-4,1.39-2.71,2.09-4c.23-.45.52-.86.79-1.28l1.35-2.15c.77-1.23,1.63-2.42,2.46-3.61s1.67-2.37,2.52-3.55,1.84-2.5,2.81-3.73c.85-1.07,1.75-2.1,2.64-3.15a91.85,91.85,0,0,1,7.06-7.44,28.51,28.51,0,0,1,6.62-4.89,15.59,15.59,0,0,1,8.24-1.66,23.25,23.25,0,0,1,8.25,1.93,25.52,25.52,0,0,1,6.41,4.27,30.64,30.64,0,0,1,5.24,5.95,20.3,20.3,0,0,1,2.61,6,23.08,23.08,0,0,1,1.24,7.8,1,1,0,0,1-1.94.08h0c0-.44-.09-.88-.16-1.32s-.31-1.11-.49-1.66a55.83,55.83,0,0,0-2.24-5.43c-.28-.52-.58-1-.9-1.52s-.81-1.1-1.26-1.63c-.7-.76-1.45-1.49-2.22-2.19s-1.68-1.36-2.57-2-1.55-1-2.36-1.39a27.86,27.86,0,0,0-2.64-1.12c-.67-.22-1.34-.4-2-.56s-1.58-.25-2.37-.32a27.11,27.11,0,0,0-3.25,0c-.4,0-.8.08-1.2.14s-.83.21-1.23.33-.83.33-1.24.53a16.69,16.69,0,0,0-1.47.87c-.76.54-1.47,1.1-2.17,1.7a107.14,107.14,0,0,0-8.07,8.3c-.8.93-1.61,1.85-2.37,2.8-1,1.22-1.91,2.43-2.83,3.69-1.61,2.19-3.17,4.41-4.72,6.64-.67,1.05-1.34,2.09-2,3.14-.33.51-.58,1.08-.87,1.62s-.56,1-.83,1.55L1369,347c-.24.56-.43,1.14-.64,1.71s-.43,1.13-.64,1.7c-.42,1.28-.83,2.55-1.24,3.83-.18.56-.28,1.17-.42,1.75s-.33,1.36-.49,2c-.19,1.07-.37,2.14-.56,3.21-.09.53-.11,1.09-.16,1.62s-.12,1.11-.17,1.67c0,1.16-.09,2.32-.14,3.48s0,2.08,0,3.13,0,1.92,0,2.89c.07,1.17.13,2.33.2,3.5.16,1.7.37,3.38.69,5.05.14.63.3,1.25.5,1.86.17.45.35.89.55,1.32.13.23.27.45.41.67a2.88,2.88,0,0,0,.3.39c.31.33.62.65,1,1s.94.77,1.44,1.13a45.39,45.39,0,0,0,3.94,2.29,75.48,75.48,0,0,0,8.24,3.51c1.33.44,2.66.88,4,1.19.81.14,1.62.24,2.43.31.63,0,1.26,0,1.89,0s1.28-.15,1.92-.27a23,23,0,0,0,2.43-.67c.6-.22,1.18-.48,1.76-.76.9-.47,1.77-1,2.63-1.52s1.58-1.17,2.33-1.81,1.61-1.58,2.36-2.42c1-1.15,2-2.32,3-3.45l-.36.4c.16-.18.32-.35.47-.53a4.41,4.41,0,0,1,2.18-1.47,4.15,4.15,0,0,1,4.69,6.09,41,41,0,0,1-4,5.16,30.82,30.82,0,0,1-9.42,6.9,24.42,24.42,0,0,1-10.54,2.48Z"/><path d="M1377.88,391a10.39,10.39,0,0,1-1.24-2,9.33,9.33,0,0,1-.63-2.27,9.09,9.09,0,0,1,.86-5.33,10,10,0,0,1,3.06-3.69,9.46,9.46,0,0,1,2.11-1.17,8,8,0,0,1,2.9-.53,5.62,5.62,0,0,1,1.29.1,6.45,6.45,0,0,1,1.81,0,6.46,6.46,0,0,1,5.48,5.42,8.38,8.38,0,0,1-.77,5.09,17.63,17.63,0,0,1-6.7,6.73,6.52,6.52,0,0,1-2.46.47A7.28,7.28,0,0,1,1377.88,391Z"/><path d="M1434.58,396.6a5.73,5.73,0,0,1-2.62-2.83,9.59,9.59,0,0,1-.74-4,8.83,8.83,0,0,1,1.12-4.18,1,1,0,0,0,.08-.14,7.32,7.32,0,0,1,.82-1.18c.07-.08.13-.17.21-.25a12.2,12.2,0,0,1,1.58-1.55,9.82,9.82,0,0,1,3.78-1.78,6.24,6.24,0,0,1,4.23.39,6.8,6.8,0,0,1,3,2.71,8.09,8.09,0,0,1,1,4,9,9,0,0,1-1,4,9.42,9.42,0,0,1-2.62,3.38,9.81,9.81,0,0,1-1.41.93,6.91,6.91,0,0,1-2.25.73,4.18,4.18,0,0,1-.94,0,5,5,0,0,1-.65.23,4.07,4.07,0,0,1-1,.14A5.42,5.42,0,0,1,1434.58,396.6Z"/><path d="M1454.06,484.38a23.63,23.63,0,0,1-3.9-.78,22.62,22.62,0,0,1-4.44-2c-1.37-.71-2.72-1.45-4.09-2.15s-2.53-1.23-3.77-1.87c-1.45-.75-2.84-1.57-4.24-2.4s-2.63-1.76-3.93-2.65-2.29-1.63-3.44-2.43a58.45,58.45,0,0,0-5-3c-1.86-.89-3.72-1.81-5.67-2.54-.88-.29-1.77-.55-2.67-.76-.73-.13-1.46-.22-2.2-.29-1.1,0-2.2,0-3.3,0a35.47,35.47,0,0,0-3.84.54c-1.72.39-3.43.84-5.12,1.39a38.75,38.75,0,0,0-3.89,1.6,48.69,48.69,0,0,0-4.82,2.84,40.52,40.52,0,0,0-3.36,2.59c-.59.54-1.15,1.08-1.69,1.66a21.52,21.52,0,0,0-1.38,1.77c-.13.2-.26.42-.38.65s-.09.2-.14.3,0,.12,0,.18,0-.05,0-.07a2,2,0,0,1-3.89-.42,6.91,6.91,0,0,1,.92-2.89A22.28,22.28,0,0,1,1383,469a39.22,39.22,0,0,1,4.53-4.21,53,53,0,0,1,5.35-3.82,46.7,46.7,0,0,1,11.13-5,26,26,0,0,1,13-.62,57.14,57.14,0,0,1,8.1,2.63,44.43,44.43,0,0,1,8.15,4.31c1.44.92,2.87,1.82,4.31,2.72,1.23.76,2.49,1.43,3.76,2.12,2,.91,4,1.79,6,2.69,2.38,1.09,4.66,2.4,7.12,3.31l1.83.61a5.83,5.83,0,0,1,2.86,1.92,5.43,5.43,0,0,1-4.41,8.74Z"/></svg>