<svg id="Layer_1" data-name="Layer 1" xmlns="http://www.w3.org/2000/svg" viewBox="0 0 1920 1080"><defs><style>.cls-1{fill:#1a1a1a;opacity:0.8;}.cls-2{fill:#f3f3ff;}.cls-3{fill:#b3f4ff;}</style></defs><circle class="cls-1" cx="501.5" cy="640.5" r="327.5"/><path class="cls-2" d="M671.72,772.18c0,23.17,43.85,90.84.75,107.37C645.67,889.82,569,902,531.05,908c-39.83,6.25-153.88,12-201.28,12-50.88,0-148.1,2.65-190-4.49-37.95-6.45-63-53.14-68.09-80.81-11.22-60.6-2.72-73.07,14.22-86.79,43.4-35.17,62.1-20.2,104-17.21,25.92,1.85,29.13-33.1,57.62-55.37,41.15-32.18,24.69-122,158.62-122,49.23,0,76.52,31.8,113,51.62,34.42,18.71,29.27,83.92,53.87,92.79C619.65,714.55,671.72,747.94,671.72,772.18Z"/><path d="M246.87,922.07c-6.36-.05-12.72-.34-19.06-.59q-11-.45-21.91-.72l-9.75-.26c-3.29-.09-6.6-.23-9.88-.47s-6.72-.46-10.08-.77l-10.91-1q-5.28-.51-10.58-1c-2.92-.27-5.86-.48-8.78-.8l-6.24-.68c-1.58-.17-3.14-.46-4.71-.7-2.45-.37-4.86-.81-7.29-1.34a82,82,0,0,1-10.83-3.32l-5.34-2c-1.73-.65-3.42-1.42-5.12-2.13-1.24-.51-2.45-1.06-3.67-1.61-1.66-.76-3.33-1.49-5-2.35s-3.56-1.83-5.28-2.85A65.78,65.78,0,0,1,83,892.79a53.61,53.61,0,0,1-7.73-7.63c-1.14-1.45-2.22-2.89-3.29-4.39s-2-3-3-4.55A83.47,83.47,0,0,1,64,867c-.36-.74-.63-1.55-.94-2.31-.23-.58-.44-1.15-.65-1.73-.69-2-1.37-4-2-6-1-3.28-1.93-6.59-2.79-9.92-.41-1.56-.75-3.12-1.1-4.7-.21-1-.47-1.94-.62-2.9s-.28-1.94-.43-2.91a86.53,86.53,0,0,1-.79-10.42c-.1-3.23-.1-6.47.07-9.7.12-2.27.22-4.55.42-6.82a78.12,78.12,0,0,1,2.53-14.24,86.48,86.48,0,0,1,4.88-12.93c.92-2,2-4,3-5.94.68-1.33,1.45-2.61,2.2-3.9s1.63-2.77,2.49-4.13c1-1.53,1.91-3.1,3-4.58l3.52-5c.89-1.25,1.89-2.44,2.83-3.65s1.8-2.27,2.76-3.37l3.79-4.39c1.29-1.49,2.71-2.86,4.08-4.27.92-.94,1.81-1.9,2.79-2.77l4.7-4.21c1.36-1.22,2.86-2.28,4.31-3.39s2.75-2,4.17-3c1.26-.84,2.5-1.73,3.82-2.5,1.75-1,3.49-2.13,5.31-3,2.47-1.23,4.91-2.48,7.47-3.51A58.48,58.48,0,0,1,138.38,717a59.52,59.52,0,0,1,20.28,1.62l2.82.67a53,53,0,0,1,7.14,2.39,56.09,56.09,0,0,1,13.71,8c2.48,1.9,4.73,4.1,7,6.23l4.34,4.09h0a86.8,86.8,0,0,0,6.78,5.48l.24.13a.67.67,0,0,1,.07,1.32,1,1,0,0,1-.42,0,20.92,20.92,0,0,1-2.63-1.22,60.07,60.07,0,0,1-5.36-3.19c-1.52-1-2.95-2.1-4.42-3.16s-3.07-2.19-4.6-3.29c-1.84-1.19-3.7-2.34-5.66-3.36a55.31,55.31,0,0,0-5.54-2.38c-1.93-.64-3.87-1.18-5.86-1.63s-4.23-.72-6.37-.93c-1.43-.09-2.87-.23-4.3-.23-2.6,0-5.19,0-7.78.13a63.2,63.2,0,0,0-6.28.87,63.76,63.76,0,0,0-6.39,1.81c-2.23.83-4.4,1.75-6.54,2.78-2.33,1.22-4.58,2.58-6.84,3.92-.68.41-1.32.88-2,1.32l-2.25,1.5-4.71,3.5c-.87.64-1.67,1.39-2.5,2.08l-2.07,1.71-5,4.76c-.86.82-1.64,1.77-2.45,2.65l-2.51,2.7c-2.08,2.51-4.18,5-6.14,7.61-1,1.32-2,2.61-2.94,4l-2.76,4c-1.09,1.77-2.18,3.53-3.26,5.3s-2.07,3.63-3.09,5.45c-.62,1.23-1.23,2.46-1.84,3.69a80.07,80.07,0,0,0-3.62,8.54,70.83,70.83,0,0,0-2.1,7.54c-.55,3-.91,5.92-1.17,8.91-.14,2.65-.29,5.3-.3,7.95,0,1.28-.06,2.56,0,3.84l.15,4.57c.11,1.28.21,2.56.31,3.84.07.78.24,1.56.36,2.33s.21,1.4.31,2.1l.89,4c.36,1.66.86,3.31,1.29,5,.78,3,1.72,5.92,2.63,8.86.46,1.32.92,2.63,1.45,3.93s1.18,2.72,1.82,4.06,1.37,2.5,2.11,3.73,1.58,2.52,2.39,3.77l1.76,2.47c.6.86,1.29,1.67,1.95,2.49.51.57,1,1.13,1.54,1.69s1.31,1.26,2,1.87c1.84,1.55,3.71,3.06,5.69,4.46a58.42,58.42,0,0,0,5,3c1.11.58,2.22,1.16,3.32,1.75,3,1.34,5.9,2.66,8.89,3.91s6,2.36,9,3.49c1.61.55,3.22,1.07,4.86,1.54s3.06.78,4.6,1.11c4.86.93,9.79,1.44,14.71,2,4.5.49,9,.82,13.54,1.22,4.2.38,8.4.82,12.6,1.21,4.49.42,9,.78,13.51,1.11q9.9.44,19.81.67c7,.16,14.1.43,21.15.71,13,.53,26.06.87,39.08.47,7-.22,14-.45,21-.58q10.86-.2,21.73-.45c13.73-.35,27.45-1,41.16-1.72,11.18-.64,22.35-1.37,33.53-2.11l21.25-1.55c6.25-.45,12.51-.88,18.77-1.18l12.08-.58c3.63-.17,7.28-.24,10.91-.36,6.47-.22,12.93-.4,19.39-.71l6.77-.33c13.54-.93,27.07-2,40.6-3.06,13-1,26-1.82,39-2.79s25.78-2,38.65-3.33c6.24-.63,12.48-1.38,18.7-2.15,3.2-.39,6.39-.84,9.59-1.27,2.85-.39,5.69-.92,8.52-1.39l6.44-1.34c1.38-.29,2.75-.73,4.12-1.09,1.71-.45,3.39-.94,5.07-1.49a66.24,66.24,0,0,0,6.33-2.67c1.39-.74,2.76-1.52,4.1-2.36,1-.7,1.91-1.42,2.83-2.18s1.65-1.58,2.43-2.42a73,73,0,0,0,4.51-5.86c1.9-2.87,3.62-5.83,5.37-8.8.48-.82.87-1.69,1.3-2.53.5-1,1-2,1.51-3,1.06-2.31,2.05-4.64,2.92-7a103.39,103.39,0,0,0,3-11c.47-2.44.8-4.9,1.17-7.36.26-1.74.36-3.51.51-5.27.1-2.66.07-5.31-.08-8-.26-3.06-.74-6.1-1.17-9.15-.47-2.15-.92-4.3-1.39-6.45-.22-1-.6-2-.89-3.06-.38-1.29-.77-2.58-1.15-3.88q-1.09-3-2.21-5.94c-.3-.81-.71-1.6-1.06-2.4l-1.39-3.13-2.18-4.14c-.72-1.37-1.54-2.67-2.34-4s-1.7-2.85-2.63-4.23l-2.7-4-4-5.32c-.55-.72-1.17-1.38-1.75-2.07s-1.39-1.63-2.08-2.45c-2.17-2.32-4.33-4.64-6.57-6.9s-4.41-4.29-6.65-6.4c-2.23-1.87-4.44-3.73-6.74-5.5-1.07-.83-2.13-1.68-3.24-2.45l-3.93-2.74c-2.71-1.69-5.39-3.38-8.22-4.86-1.7-.8-3.42-1.53-5.19-2.19a68.25,68.25,0,0,0-6.9-1.88c-2.2-.4-4.41-.67-6.63-1-1.35-.18-2.72-.26-4.09-.35-2.07-.09-4.13-.18-6.19-.2-2.3,0-4.59,0-6.89.1-1.92.14-3.84.28-5.75.48-2.14.22-4.27.48-6.4.75s-4.46.51-6.67.85c-1.08.16-2.17.29-3.24.5l-2.76.56c-2.47.66-4.93,1.34-7.38,2.09l.35-.13c-.85.29-1.73.57-2.55.93L545,722.58c-1,.51-2,1-3,1.53-1.43.72-2.8,1.56-4.19,2.34-2.68,1.5-5.31,3.09-8,4.63-5.5,3.18-10.94,6.47-16.29,9.92a7.93,7.93,0,0,1-6.22.81,8.07,8.07,0,0,1-4.25-12.73,9.19,9.19,0,0,1,2.31-2c5.43-3.64,11-7,16.61-10.36,6-3.52,11.93-7.21,18.3-10a84,84,0,0,1,20.94-5.76c3.2-.49,6.44-.84,9.66-1.23,3.43-.42,6.86-.73,10.31-1s6.91-.22,10.37-.18c1.84,0,3.72.11,5.56.26,1.59.13,3.21.18,4.8.39l5,.65a57.55,57.55,0,0,1,6.24,1.29,66.28,66.28,0,0,1,7.29,2.3,53.71,53.71,0,0,1,5.91,2.63c1.37.7,2.76,1.41,4.07,2.22l4.94,3.07c1.74,1.08,3.39,2.34,5.07,3.51,1.4,1,2.73,2,4.08,3.08,1.13.86,2.23,1.74,3.32,2.66,1.47,1.24,3,2.45,4.41,3.76l4.25,4c1.29,1.21,2.5,2.52,3.75,3.77,1,1,2,2,2.92,3.07,1.27,1.37,2.57,2.72,3.78,4.14l3.76,4.43c1.17,1.37,2.2,2.89,3.3,4.32.87,1.16,1.68,2.35,2.49,3.55,1,1.5,2.09,3,3,4.49l3,5c.8,1.32,1.49,2.67,2.2,4s1.56,2.85,2.22,4.33q1.15,2.63,2.32,5.23c.25.56.43,1.17.64,1.74l1.2,3.23c.57,1.53,1.09,3.06,1.55,4.62l1.56,5.32c.17.56.26,1.17.38,1.75l.84,3.91c.29,1.39.58,2.78.78,4.19.27,2,.55,3.92.82,5.88.17,1.19.22,2.4.29,3.6s.14,2.48.18,3.73a55.86,55.86,0,0,1-.17,6.47l-.48,5.38c-.06.68-.21,1.36-.31,2l-.51,3.39a92.76,92.76,0,0,1-2.36,10.67,89.48,89.48,0,0,1-4.66,12.94c-1,2.2-2.14,4.33-3.23,6.48a106.23,106.23,0,0,1-5.61,9.62,74.27,74.27,0,0,1-7.66,10.16,47,47,0,0,1-11.2,8.9,62.11,62.11,0,0,1-11.49,5.11c-2.37.8-4.75,1.44-7.17,2.07-3.23.85-6.49,1.49-9.76,2.17-1.76.37-3.53.63-5.3.93-1.48.24-3,.51-4.45.71q-5.37.74-10.76,1.42c-13.68,1.69-27.39,3-41.12,4.16-13.44,1.11-26.9,1.93-40.35,2.93-14.1,1-28.2,2.16-42.29,3.26q-9.9.78-19.81,1.25c-6.6.32-13.21.52-19.82.74-7,.24-14,.5-20.94.84-5.87.28-11.73.67-17.59,1-13.48,1-27,2-40.45,2.81s-26.71,1.7-40.08,2.2c-7,.26-14,.51-21,.69-7.29.19-14.57.31-21.86.44-6.86.12-13.72.37-20.58.59-3,.09-6.08.12-9.12.12C253.92,922.14,250.4,922.1,246.87,922.07Z"/><path d="M572,705a1.16,1.16,0,0,1-1.13-1.43v0c0-.05,0-.11,0-.17s0-.22,0-.34-.06-.46-.11-.68c-.43-1.93-.93-3.85-1.48-5.75s-1.26-4-1.95-6l-.93-2.26c-.31-.76-.58-1.56-.94-2.3-.78-1.6-1.55-3.21-2.33-4.82-1.64-3-3.29-6-5-8.89s-3.54-5.7-5.36-8.53-3.87-5.47-5.91-8.14-4.2-5.39-6.34-8.05q-3.4-4.24-6.83-8.47c-2.11-2.6-4.27-5.17-6.44-7.73l-3.53-3.82c-1-1.08-2.05-2.09-3.1-3.12s-2.18-2.16-3.32-3.19l-3.92-3.54c-2.14-1.78-4.26-3.57-6.49-5.24-1.2-.9-2.36-1.86-3.61-2.69l-4.45-3c-3.75-2.29-7.49-4.6-11.35-6.7q-6.08-3.3-12.2-6.48c-2.55-1.26-5.1-2.54-7.68-3.74q-5-2.32-10-4.63c-3.17-1.46-6.35-2.9-9.52-4.35-2.79-1.27-5.68-2.36-8.51-3.53l-5.9-2c-1.74-.59-3.51-1-5.29-1.51s-3.63-1-5.48-1.4l-6.1-1.26c-3.91-.66-7.81-1.32-11.74-1.85-1.78-.24-3.55-.51-5.34-.68l-6.64-.63a171.19,171.19,0,0,0-19.22-.33,80.29,80.29,0,0,0-8.75,1.17,73.86,73.86,0,0,0-8,2.19c-2.94,1.06-5.78,2.33-8.65,3.57l-4.39,2.24c-1.64.85-3.21,1.84-4.8,2.77-3,1.71-5.83,3.61-8.71,5.47-1.63,1.12-3.25,2.24-4.83,3.42s-3.08,2.46-4.59,3.73c-1.76,1.64-3.51,3.29-5.21,5s-3.55,3.65-5.24,5.55c-1.22,1.42-2.36,2.88-3.43,4.41s-1.8,2.93-2.61,4.45c-.52,1.07-1,2.14-1.55,3.21s-.95,2.32-1.41,3.47a65.88,65.88,0,0,0-2,6.6q-.19,1.25-.33,2.49a7.9,7.9,0,0,1-2.22,5.32,7.57,7.57,0,0,1-12.92-5.35,28.65,28.65,0,0,1,1-7.49c.59-2.21,1.33-4.36,2.08-6.51a45.39,45.39,0,0,1,2-5l1.56-3.24a58.12,58.12,0,0,1,4.41-7.45,81.45,81.45,0,0,1,7.42-8.87c1.38-1.52,2.82-3,4.25-4.46s2.9-2.86,4.42-4.18,3.17-2.79,4.83-4.09c3.34-2.59,6.81-5,10.35-7.33,3.37-2.21,6.74-4.46,10.3-6.36,2-1,3.95-2.17,6-3.09,2.8-1.26,5.57-2.52,8.47-3.56a78.39,78.39,0,0,1,17.5-4.08,89.35,89.35,0,0,1,11.91-.53c1.94,0,3.89,0,5.83.13l7.24.42c2.41.14,4.81.45,7.21.69,1.74.18,3.45.4,5.17.65s3.71.48,5.55.8L419,555.2c2.36.42,4.69,1,7,1.51,1.67.36,3.29.76,4.93,1.22,2.25.63,4.54,1.18,6.74,2l7,2.47c1.66.59,3.25,1.31,4.86,2s3.33,1.39,5,2.16q6.22,3,12.42,6c3.5,1.68,7,3.37,10.43,5.16,3.92,2.05,7.8,4.15,11.67,6.29,3.64,2,7.17,4.22,10.7,6.41A123.68,123.68,0,0,1,519.3,605.2a121.78,121.78,0,0,1,8.72,8.88c1.35,1.55,2.79,3,4.05,4.68s2.73,3.52,4.1,5.27c.54.69,1,1.44,1.51,2.16l2.34,3.33c1.26,1.8,2.44,3.66,3.65,5.5q3.15,4.76,6.18,9.61c2.07,3.31,4.16,6.63,6,10.08,1.06,2,2.18,3.91,3.15,5.91s2,4.06,3,6.09c1.83,3.76,3.43,7.63,5.06,11.48a105.85,105.85,0,0,1,3.79,11.23c.4,1.38.67,2.8,1,4.19s.56,2.64.79,4a45.41,45.41,0,0,1,.73,4.77c.07.95,0,2.65-1.29,2.65Z"/><path d="M191.94,791.9a23.19,23.19,0,0,1-4.32-4.64,23.51,23.51,0,0,1-2.56-6,47.54,47.54,0,0,1-1.41-5.1,43.73,43.73,0,0,1-.85-9.06,94.41,94.41,0,0,1,.91-11.27l.39-3.08c.11-.87.33-1.74.5-2.6.4-2.08.74-4.18,1.3-6.23.61-2.23,1.12-4.5,1.9-6.68l2.33-6.5c.26-.71.62-1.4.93-2.1.6-1.33,1.19-2.68,1.79-4,.85-1.91,1.89-3.74,2.87-5.58l1.33-2.51c.39-.74.89-1.44,1.33-2.15,1.12-1.81,2.2-3.65,3.42-5.39l3.89-5.51c.52-.74,1.12-1.44,1.68-2.16l2.47-3.15c1.27-1.63,2.64-3.19,4-4.78,1.17-1.4,2.37-2.78,3.57-4.16s2.51-2.93,3.83-4.35l4.85-5.2c.48-.51,1-1,1.52-1.47l3.23-3.14c1.3-1.26,2.65-2.46,4-3.67s2.94-2.65,4.45-3.94q5.08-4.35,10.23-8.64c3.19-2.66,6.5-5.16,9.83-7.64,1.61-1.19,3.28-2.3,4.94-3.42.82-.56,1.62-1.16,2.47-1.67l2.7-1.64,2.93-1.77c.74-.45,1.54-.83,2.31-1.24,1.89-1,3.76-2,5.69-2.89,3.87-1.82,7.81-3.46,11.77-5.07,1.86-.75,3.74-1.42,5.61-2.12a59.22,59.22,0,0,1,6.07-1.9,38.23,38.23,0,0,1,7.66-1.3,32.56,32.56,0,0,1,4.19.08,21.69,21.69,0,0,1,4.28.95,25.84,25.84,0,0,1,3.95,1.67,24.73,24.73,0,0,1,3.61,2.15,21.89,21.89,0,0,1,3.08,2.59,4.64,4.64,0,0,1,1.19,1.9,1.29,1.29,0,0,1-.87,1.58,1.26,1.26,0,0,1-1.53-.87s0,0,0-.06l0,0-.25-.36a.63.63,0,0,1,.1.12,7.1,7.1,0,0,0-.75-.8c-.47-.39-.95-.76-1.45-1.12a28.86,28.86,0,0,0-2.58-1.5,29.42,29.42,0,0,0-2.89-1.22c-.79-.27-1.59-.5-2.41-.7-1-.19-2-.34-3-.43-.66,0-1.3,0-2,0l.27,0a31,31,0,0,0-3.72.47,40.22,40.22,0,0,0-4.74,1.37,61,61,0,0,0-5.65,2.41c-1.77.91-3.57,1.78-5.3,2.76-2.18,1.23-4.36,2.47-6.51,3.73s-4.06,2.45-6.08,3.7c-1.72,1.06-3.38,2.22-5.05,3.35l-4.48,3.26c-1.24.91-2.43,1.88-3.62,2.83s-2.28,1.78-3.37,2.73l-4.07,3.52q-7,6.46-14,13c-2.39,2.27-4.74,4.58-7.1,6.88-.87.85-1.69,1.74-2.53,2.61-1.07,1.12-2.19,2.19-3.22,3.34-1.73,2-3.46,3.94-5.2,5.9q-4.78,5.81-9.49,11.68c-2.87,3.6-5.48,7.38-8.1,11.16l-3.84,6.26c-.62,1-1.12,2.12-1.67,3.16l-1.56,2.95c-1,2.19-2,4.37-2.92,6.56-.45,1-.77,2.15-1.15,3.21s-.69,1.91-1,2.87l-1.8,6.5c-.18,1-.37,1.91-.55,2.86s-.51,2.2-.65,3.3c-.39,3-.82,6.06-1.06,9.11-.11,1.95-.15,3.89-.07,5.84.1,1.18.26,2.34.47,3.5.24,1,.52,2,.82,3a43.88,43.88,0,0,0,1.58,4.13c.05.09.1.19.16.28.27.36.54.72.83,1.07l.76.81a6.48,6.48,0,0,1-3.7,11,8.29,8.29,0,0,1-.87.06A6.21,6.21,0,0,1,191.94,791.9Z"/><circle class="cls-1" cx="1538.5" cy="649.5" r="327.5"/><path d="M1080.05,161a2.61,2.61,0,0,1-.78-1.92V123.27a3.86,3.86,0,0,1,1.14-2.79,3.71,3.71,0,0,1,2.76-1.17h.78a4.06,4.06,0,0,1,3.3,1.8l23.1,33.36v-32.4a2.71,2.71,0,0,1,.78-1.95,2.56,2.56,0,0,1,1.92-.81,2.77,2.77,0,0,1,2.76,2.76v35.82a3.71,3.71,0,0,1-1.17,2.76,3.86,3.86,0,0,1-2.79,1.14h-.72a3.75,3.75,0,0,1-1.8-.45,4.14,4.14,0,0,1-1.38-1.17l-23.22-33.54v32.46a2.56,2.56,0,0,1-.81,1.92,2.71,2.71,0,0,1-2,.78A2.61,2.61,0,0,1,1080.05,161Z"/><path d="M1127.78,157.92q-4.11-4.17-4.11-11.73a19.56,19.56,0,0,1,1.56-7.86,13.36,13.36,0,0,1,4.8-5.82,13.79,13.79,0,0,1,8-2.22,14,14,0,0,1,7.68,2.07,13.39,13.39,0,0,1,4.92,5.52,17,17,0,0,1,1.68,7.53,2.62,2.62,0,0,1-2.76,2.7h-20.34a9.87,9.87,0,0,0,3.12,6.54q2.64,2.34,7.38,2.34a18,18,0,0,0,4.41-.48,18.32,18.32,0,0,0,3.69-1.38,2.38,2.38,0,0,1,1.08-.24,2.41,2.41,0,0,1,1.68.66,2.18,2.18,0,0,1,.72,1.68,2.59,2.59,0,0,1-1.56,2.22,18.74,18.74,0,0,1-10.5,2.64Q1131.89,162.09,1127.78,157.92Zm19.11-14.25a9.61,9.61,0,0,0-1.53-4.92,8.26,8.26,0,0,0-3.33-2.91,9.15,9.15,0,0,0-8,0,8.06,8.06,0,0,0-3.3,2.91,9.79,9.79,0,0,0-1.5,4.92Z"/><path d="M1161.74,157.92q-4.11-4.17-4.11-11.73a19.56,19.56,0,0,1,1.56-7.86,13.36,13.36,0,0,1,4.8-5.82,13.79,13.79,0,0,1,8-2.22,14,14,0,0,1,7.68,2.07,13.39,13.39,0,0,1,4.92,5.52,17,17,0,0,1,1.68,7.53,2.62,2.62,0,0,1-2.76,2.7h-20.34a9.87,9.87,0,0,0,3.12,6.54q2.64,2.34,7.38,2.34a18,18,0,0,0,4.41-.48,18.32,18.32,0,0,0,3.69-1.38,2.38,2.38,0,0,1,1.08-.24,2.41,2.41,0,0,1,1.68.66,2.18,2.18,0,0,1,.72,1.68,2.59,2.59,0,0,1-1.56,2.22,18.74,18.74,0,0,1-10.5,2.64Q1165.85,162.09,1161.74,157.92Zm19.11-14.25a9.61,9.61,0,0,0-1.53-4.92,8.26,8.26,0,0,0-3.33-2.91,9.15,9.15,0,0,0-8,0,8.06,8.06,0,0,0-3.3,2.91,9.79,9.79,0,0,0-1.5,4.92Z"/><path d="M1199.06,160.2a14.34,14.34,0,0,1-5.4-5.52,18.45,18.45,0,0,1,0-17,14.34,14.34,0,0,1,5.4-5.52,14.07,14.07,0,0,1,7-1.89,13.79,13.79,0,0,1,10.26,4.56v-14.7a2.63,2.63,0,0,1,.81-2,2.71,2.71,0,0,1,2-.78,2.56,2.56,0,0,1,1.92.81,2.71,2.71,0,0,1,.78,2v38.94a2.66,2.66,0,0,1-2.7,2.7,2.71,2.71,0,0,1-2-.78,2.56,2.56,0,0,1-.81-1.92v-1.56a13.79,13.79,0,0,1-10.26,4.56A14.07,14.07,0,0,1,1199.06,160.2Zm13-4.44a14.82,14.82,0,0,0,4.29-3.27v-12.6a14.82,14.82,0,0,0-4.29-3.27,11.33,11.33,0,0,0-5.19-1.23,9.43,9.43,0,0,0-7.14,2.82q-2.7,2.82-2.7,8t2.7,8a9.43,9.43,0,0,0,7.14,2.82A11.33,11.33,0,0,0,1212.08,155.76Z"/><path d="M1245.89,159.39a2.29,2.29,0,0,1-1-2,2.41,2.41,0,0,1,.66-1.68,2.18,2.18,0,0,1,1.68-.72,2.64,2.64,0,0,1,1.08.24,24.25,24.25,0,0,0,3.84,1.32,17.85,17.85,0,0,0,4.32.48q6.66,0,6.66-4.26a2.27,2.27,0,0,0-1.53-2.1,31.33,31.33,0,0,0-5-1.62,45.27,45.27,0,0,1-5.85-1.74,10.29,10.29,0,0,1-4-2.73,6.94,6.94,0,0,1-1.65-4.83,8.65,8.65,0,0,1,3-6.84q3-2.64,8.67-2.64a25,25,0,0,1,8.7,1.5,2.25,2.25,0,0,1,1.29.9,2.41,2.41,0,0,1,.45,1.38,2.35,2.35,0,0,1-.69,1.68,2.27,2.27,0,0,1-1.71.72,3.37,3.37,0,0,1-.78-.12,23,23,0,0,0-6.84-1.08,9.37,9.37,0,0,0-5.07,1.17,3.49,3.49,0,0,0-1.83,3,2.77,2.77,0,0,0,1.68,2.64,24,24,0,0,0,5.22,1.62,50,50,0,0,1,5.76,1.77,9.52,9.52,0,0,1,3.81,2.73,7.41,7.41,0,0,1,1.59,5,7.93,7.93,0,0,1-3,6.36q-3,2.52-8.55,2.52A22.32,22.32,0,0,1,1245.89,159.39Z"/><path d="M1281.11,160.11a13.46,13.46,0,0,1-5.37-5.61,19.21,19.21,0,0,1,0-16.62,13.46,13.46,0,0,1,5.37-5.61,17.44,17.44,0,0,1,16.14,0,13.65,13.65,0,0,1,5.4,5.61,18.94,18.94,0,0,1,0,16.62,13.65,13.65,0,0,1-5.4,5.61,17.44,17.44,0,0,1-16.14,0Zm12.81-4.14a9.16,9.16,0,0,0,3.72-3.6,12,12,0,0,0,1.47-6.24,11.88,11.88,0,0,0-1.47-6.18,9,9,0,0,0-3.72-3.57,10.52,10.52,0,0,0-4.71-1.11,10.64,10.64,0,0,0-4.77,1.11,8.78,8.78,0,0,0-3.69,3.57,12.08,12.08,0,0,0-1.44,6.18,12.21,12.21,0,0,0,1.44,6.24,9,9,0,0,0,3.69,3.6,10.41,10.41,0,0,0,4.77,1.14A10.29,10.29,0,0,0,1293.92,156Z"/><path d="M1313,161a2.61,2.61,0,0,1-.78-1.92V133.35a2.71,2.71,0,0,1,.78-1.95,2.56,2.56,0,0,1,1.92-.81,2.77,2.77,0,0,1,2.76,2.76v2.46a15,15,0,0,1,4-4,11,11,0,0,1,6.15-1.56,9.33,9.33,0,0,1,5.76,1.8,10,10,0,0,1,3.42,4.38,12.09,12.09,0,0,1,11-6.18,9.11,9.11,0,0,1,5.61,1.68,10,10,0,0,1,3.33,4.32,14.44,14.44,0,0,1,1.08,5.52v17.28a2.56,2.56,0,0,1-.81,1.92,2.71,2.71,0,0,1-2,.78,2.66,2.66,0,0,1-2.7-2.7v-16.2q0-3.9-1.38-5.73t-4.74-1.83a7.92,7.92,0,0,0-5.07,1.59,15.38,15.38,0,0,0-3.57,4.17v18a2.56,2.56,0,0,1-.81,1.92,2.71,2.71,0,0,1-2,.78,2.66,2.66,0,0,1-2.7-2.7v-16.2q0-3.9-1.38-5.73t-4.74-1.83a7.92,7.92,0,0,0-5.07,1.59,15.38,15.38,0,0,0-3.57,4.17v18a2.56,2.56,0,0,1-.81,1.92,2.71,2.71,0,0,1-1.95.78A2.61,2.61,0,0,1,1313,161Z"/><path d="M1369.52,157.92q-4.11-4.17-4.11-11.73a19.56,19.56,0,0,1,1.56-7.86,13.36,13.36,0,0,1,4.8-5.82,13.79,13.79,0,0,1,8-2.22,14,14,0,0,1,7.68,2.07,13.39,13.39,0,0,1,4.92,5.52,17,17,0,0,1,1.68,7.53,2.62,2.62,0,0,1-2.76,2.7h-20.34a9.87,9.87,0,0,0,3.12,6.54q2.64,2.34,7.38,2.34a18,18,0,0,0,4.41-.48,18.32,18.32,0,0,0,3.69-1.38,2.38,2.38,0,0,1,1.08-.24,2.41,2.41,0,0,1,1.68.66,2.18,2.18,0,0,1,.72,1.68,2.59,2.59,0,0,1-1.56,2.22,18.74,18.74,0,0,1-10.5,2.64Q1373.63,162.09,1369.52,157.92Zm19.11-14.25a9.61,9.61,0,0,0-1.53-4.92,8.26,8.26,0,0,0-3.33-2.91,9.15,9.15,0,0,0-8,0,8.06,8.06,0,0,0-3.3,2.91,9.79,9.79,0,0,0-1.5,4.92Z"/><path d="M1423,160.17a14.78,14.78,0,0,1-5.85-5.52,17.44,17.44,0,0,1,0-16.92,14.78,14.78,0,0,1,5.85-5.52,16.92,16.92,0,0,1,8-1.92,16.63,16.63,0,0,1,5.49.81,20.74,20.74,0,0,1,4.29,2.07,2.39,2.39,0,0,1,.51,3.75,2.11,2.11,0,0,1-1.59.75,2.74,2.74,0,0,1-1.32-.36,22.85,22.85,0,0,0-3.39-1.47,11.7,11.7,0,0,0-3.51-.45,10.88,10.88,0,0,0-8.1,3,11.9,11.9,0,0,0,0,15.66,10.88,10.88,0,0,0,8.1,3,11.7,11.7,0,0,0,3.51-.45,22.85,22.85,0,0,0,3.39-1.47,2.74,2.74,0,0,1,1.32-.36,2.11,2.11,0,0,1,1.59.75,2.39,2.39,0,0,1-.51,3.75,20.74,20.74,0,0,1-4.29,2.07,16.63,16.63,0,0,1-5.49.81A16.92,16.92,0,0,1,1423,160.17Z"/><path d="M1454,160.11a13.46,13.46,0,0,1-5.37-5.61,19.21,19.21,0,0,1,0-16.62,13.46,13.46,0,0,1,5.37-5.61,17.44,17.44,0,0,1,16.14,0,13.65,13.65,0,0,1,5.4,5.61,18.94,18.94,0,0,1,0,16.62,13.65,13.65,0,0,1-5.4,5.61,17.44,17.44,0,0,1-16.14,0Zm12.81-4.14a9.16,9.16,0,0,0,3.72-3.6,12,12,0,0,0,1.47-6.24,11.88,11.88,0,0,0-1.47-6.18,9,9,0,0,0-3.72-3.57,10.52,10.52,0,0,0-4.71-1.11,10.64,10.64,0,0,0-4.77,1.11,8.78,8.78,0,0,0-3.69,3.57,12.08,12.08,0,0,0-1.44,6.18,12.21,12.21,0,0,0,1.44,6.24,9,9,0,0,0,3.69,3.6,10.41,10.41,0,0,0,4.77,1.14A10.29,10.29,0,0,0,1466.78,156Z"/><path d="M1485.83,161a2.57,2.57,0,0,1-.78-1.92V133.35a2.67,2.67,0,0,1,.78-1.95,2.53,2.53,0,0,1,1.92-.81,2.77,2.77,0,0,1,2.76,2.76v2.46a14.67,14.67,0,0,1,4-4,11,11,0,0,1,6.15-1.56,9.37,9.37,0,0,1,5.76,1.8,10.19,10.19,0,0,1,3.42,4.38,12.06,12.06,0,0,1,11-6.18,9.11,9.11,0,0,1,5.61,1.68,10,10,0,0,1,3.33,4.32,14.63,14.63,0,0,1,1.08,5.52v17.28a2.56,2.56,0,0,1-.81,1.92,2.73,2.73,0,0,1-2,.78,2.66,2.66,0,0,1-2.7-2.7v-16.2c0-2.6-.47-4.51-1.39-5.73s-2.5-1.83-4.73-1.83a7.9,7.9,0,0,0-5.07,1.59,15,15,0,0,0-3.57,4.17v18a2.56,2.56,0,0,1-.81,1.92,2.73,2.73,0,0,1-2,.78,2.66,2.66,0,0,1-2.7-2.7v-16.2c0-2.6-.47-4.51-1.38-5.73s-2.51-1.83-4.74-1.83a7.9,7.9,0,0,0-5.07,1.59,15,15,0,0,0-3.57,4.17v18a2.56,2.56,0,0,1-.81,1.92,2.73,2.73,0,0,1-2,.78A2.58,2.58,0,0,1,1485.83,161Z"/><path d="M1540.91,174.78a2.67,2.67,0,0,1-.78-1.95V133.29a2.66,2.66,0,0,1,2.7-2.7,2.73,2.73,0,0,1,2,.78,2.56,2.56,0,0,1,.81,1.92v1.56a13.76,13.76,0,0,1,10.26-4.56,14.09,14.09,0,0,1,7.05,1.89,14.34,14.34,0,0,1,5.4,5.52,18.45,18.45,0,0,1,0,17,14.34,14.34,0,0,1-5.4,5.52,14.09,14.09,0,0,1-7.05,1.89,13.76,13.76,0,0,1-10.26-4.56v15.3a2.67,2.67,0,0,1-2.76,2.76A2.53,2.53,0,0,1,1540.91,174.78Zm21.3-20.61q2.7-2.82,2.7-8t-2.7-8a9.44,9.44,0,0,0-7.14-2.82,11.33,11.33,0,0,0-5.19,1.23,14.69,14.69,0,0,0-4.29,3.27v12.6a14.69,14.69,0,0,0,4.29,3.27,11.33,11.33,0,0,0,5.19,1.23A9.44,9.44,0,0,0,1562.21,154.17Z"/><path d="M1580.9,161a8.46,8.46,0,0,1-3.57-3.15,8.6,8.6,0,0,1-1.33-4.77,8.42,8.42,0,0,1,3.52-7.08q3.49-2.64,10.29-2.64h7.25v-.48q0-4-1.94-5.7c-1.31-1.16-3.33-1.74-6.1-1.74a20.28,20.28,0,0,0-4,.36,34.1,34.1,0,0,0-3.94,1.08,3.38,3.38,0,0,1-.77.12,2.13,2.13,0,0,1-1.56-.66,2.17,2.17,0,0,1-.67-1.62,2.31,2.31,0,0,1,1.56-2.28,26.4,26.4,0,0,1,10.39-2.16,13.58,13.58,0,0,1,7,1.68,10.69,10.69,0,0,1,4.2,4.35,12.64,12.64,0,0,1,1.34,5.79v17a2.59,2.59,0,0,1-.8,1.92,2.73,2.73,0,0,1-2,.78,2.68,2.68,0,0,1-2.71-2.7v-1.56a15,15,0,0,1-11.27,4.56A11.12,11.12,0,0,1,1580.9,161Zm12-5a14.26,14.26,0,0,0,4.13-3.21v-5h-6.54q-9.06,0-9,4.74a4.42,4.42,0,0,0,1.47,3.48c1,.88,2.6,1.32,4.89,1.32A10.91,10.91,0,0,0,1592.93,156Z"/><path d="M1612.48,161a2.6,2.6,0,0,1-.77-1.92V133.35a2.7,2.7,0,0,1,.77-1.95,2.56,2.56,0,0,1,1.92-.81,2.66,2.66,0,0,1,1.95.81,2.63,2.63,0,0,1,.82,1.95v2.46a19.72,19.72,0,0,1,4.91-4,12.42,12.42,0,0,1,6.24-1.5,10.35,10.35,0,0,1,5.73,1.56,10.14,10.14,0,0,1,3.72,4.26,13.6,13.6,0,0,1,1.29,5.94v17a2.56,2.56,0,0,1-.81,1.92,2.71,2.71,0,0,1-2,.78,2.66,2.66,0,0,1-2.7-2.7V142.65q0-7.32-6.6-7.32a9.55,9.55,0,0,0-5.37,1.56,19.2,19.2,0,0,0-4.46,4.2v18a2.53,2.53,0,0,1-.82,1.92,2.71,2.71,0,0,1-1.95.78A2.61,2.61,0,0,1,1612.48,161Z"/><path d="M1652.72,174.81A2.55,2.55,0,0,1,1652,173a2.72,2.72,0,0,1,.18-1l3.9-10-11.28-27.48a2.88,2.88,0,0,1-.24-1.14,2.71,2.71,0,0,1,.78-1.95,2.53,2.53,0,0,1,1.92-.81,2.64,2.64,0,0,1,1.53.48,2.86,2.86,0,0,1,1,1.2l9.24,22.92,9.42-22.8a2.6,2.6,0,0,1,2.52-1.8,2.58,2.58,0,0,1,1.92.81,2.75,2.75,0,0,1,.78,1.95,2.88,2.88,0,0,1-.18,1l-16.38,39.36a2.72,2.72,0,0,1-2.52,1.86A2.43,2.43,0,0,1,1652.72,174.81Z"/><path d="M1686.55,149.64a2.17,2.17,0,0,1-.75-1.65,11,11,0,0,1,1-4.74,12.66,12.66,0,0,1,2.25-3.39,36.67,36.67,0,0,1,3.45-3.09,22.29,22.29,0,0,0,3.36-3.12,4.61,4.61,0,0,0,1.08-3q0-6.54-8.58-6.54a16.65,16.65,0,0,0-4.11.51,12.75,12.75,0,0,0-3.57,1.47,2.67,2.67,0,0,1-1.5.48,2.46,2.46,0,0,1-2.4-2.4,2.63,2.63,0,0,1,1.5-2.28,17.65,17.65,0,0,1,5-2.22,22,22,0,0,1,5.58-.66q6.12,0,9.81,3.06a10.19,10.19,0,0,1,3.69,8.28,9.49,9.49,0,0,1-.84,4.11,11,11,0,0,1-2,3,33.33,33.33,0,0,1-3.18,2.79,23.3,23.3,0,0,0-3.87,3.69,6.37,6.37,0,0,0-1.29,4.05,2.13,2.13,0,0,1-.78,1.65,2.71,2.71,0,0,1-1.86.69A2.68,2.68,0,0,1,1686.55,149.64Zm-.72,11a3.47,3.47,0,0,1-1-2.55,3.59,3.59,0,0,1,3.54-3.54,3.47,3.47,0,0,1,2.55,1,3.4,3.4,0,0,1,1.05,2.49,3.59,3.59,0,0,1-3.6,3.6A3.4,3.4,0,0,1,1685.83,160.68Z"/><path d="M1090.7,233a2.56,2.56,0,0,1-.81-1.92v-15.3l-14.34-20.1a3,3,0,0,1-.48-1.62,2.77,2.77,0,0,1,.75-1.95,2.47,2.47,0,0,1,1.89-.81,2.75,2.75,0,0,1,2.4,1.38l12.54,18.24,12.54-18.24a2.75,2.75,0,0,1,2.4-1.38,2.56,2.56,0,0,1,1.92.81,2.51,2.51,0,0,1,.72,1.95,3,3,0,0,1-.48,1.62l-14.4,20.1v15.3a2.66,2.66,0,0,1-2.7,2.7A2.71,2.71,0,0,1,1090.7,233Z"/><path d="M1117.43,232.11a13.46,13.46,0,0,1-5.37-5.61,19.21,19.21,0,0,1,0-16.62,13.46,13.46,0,0,1,5.37-5.61,17.44,17.44,0,0,1,16.14,0,13.65,13.65,0,0,1,5.4,5.61,18.94,18.94,0,0,1,0,16.62,13.65,13.65,0,0,1-5.4,5.61,17.44,17.44,0,0,1-16.14,0Zm12.81-4.14a9.16,9.16,0,0,0,3.72-3.6,12,12,0,0,0,1.47-6.24A11.88,11.88,0,0,0,1134,212a9,9,0,0,0-3.72-3.57,10.52,10.52,0,0,0-4.71-1.11,10.64,10.64,0,0,0-4.77,1.11,8.78,8.78,0,0,0-3.69,3.57,12.08,12.08,0,0,0-1.44,6.18,12.21,12.21,0,0,0,1.44,6.24,9,9,0,0,0,3.69,3.6,10.41,10.41,0,0,0,4.77,1.14A10.29,10.29,0,0,0,1130.24,228Z"/><path d="M1153.22,232.53a10.14,10.14,0,0,1-3.72-4.26,13.6,13.6,0,0,1-1.29-5.94v-17a2.56,2.56,0,0,1,.81-1.92,2.71,2.71,0,0,1,2-.78,2.66,2.66,0,0,1,2.7,2.7v16.44q0,7.32,6.6,7.32a9.55,9.55,0,0,0,5.37-1.56,19.44,19.44,0,0,0,4.47-4.2v-18a2.56,2.56,0,0,1,.81-1.92,2.71,2.71,0,0,1,1.95-.78,2.66,2.66,0,0,1,2.7,2.7V231a2.71,2.71,0,0,1-.78,1.95,2.56,2.56,0,0,1-1.92.81,2.77,2.77,0,0,1-2.76-2.76v-2.46a19.94,19.94,0,0,1-4.92,4,12.42,12.42,0,0,1-6.24,1.5A10.37,10.37,0,0,1,1153.22,232.53Z"/><path d="M1199.63,231.39a2.29,2.29,0,0,1-1-2,2.41,2.41,0,0,1,.66-1.68A2.18,2.18,0,0,1,1201,227a2.64,2.64,0,0,1,1.08.24,24.25,24.25,0,0,0,3.84,1.32,17.85,17.85,0,0,0,4.32.48q6.66,0,6.66-4.26a2.27,2.27,0,0,0-1.53-2.1,31.33,31.33,0,0,0-5-1.62,45.27,45.27,0,0,1-5.85-1.74,10.29,10.29,0,0,1-4-2.73,6.94,6.94,0,0,1-1.65-4.83,8.65,8.65,0,0,1,3-6.84q3-2.64,8.67-2.64a25,25,0,0,1,8.7,1.5,2.25,2.25,0,0,1,1.29.9,2.41,2.41,0,0,1,.45,1.38,2.35,2.35,0,0,1-.69,1.68,2.27,2.27,0,0,1-1.71.72,3.37,3.37,0,0,1-.78-.12,23,23,0,0,0-6.84-1.08,9.37,9.37,0,0,0-5.07,1.17,3.49,3.49,0,0,0-1.83,3,2.77,2.77,0,0,0,1.68,2.64,24,24,0,0,0,5.22,1.62,50,50,0,0,1,5.76,1.77,9.52,9.52,0,0,1,3.81,2.73,7.41,7.41,0,0,1,1.59,5,7.93,7.93,0,0,1-3,6.36q-3,2.52-8.55,2.52A22.32,22.32,0,0,1,1199.63,231.39Z"/><path d="M1231.7,229.92q-4.11-4.17-4.11-11.73a19.56,19.56,0,0,1,1.56-7.86,13.36,13.36,0,0,1,4.8-5.82,13.79,13.79,0,0,1,8-2.22,14,14,0,0,1,7.68,2.07,13.39,13.39,0,0,1,4.92,5.52,17,17,0,0,1,1.68,7.53,2.62,2.62,0,0,1-2.76,2.7h-20.34a9.87,9.87,0,0,0,3.12,6.54q2.64,2.34,7.38,2.34a18,18,0,0,0,4.41-.48,18.32,18.32,0,0,0,3.69-1.38,2.38,2.38,0,0,1,1.08-.24,2.41,2.41,0,0,1,1.68.66,2.18,2.18,0,0,1,.72,1.68,2.59,2.59,0,0,1-1.56,2.22,18.74,18.74,0,0,1-10.5,2.64Q1235.81,234.09,1231.7,229.92Zm19.11-14.25a9.61,9.61,0,0,0-1.53-4.92,8.26,8.26,0,0,0-3.33-2.91,9.15,9.15,0,0,0-8,0,8.06,8.06,0,0,0-3.3,2.91,9.79,9.79,0,0,0-1.5,4.92Z"/><path d="M1265.66,229.92q-4.11-4.17-4.11-11.73a19.56,19.56,0,0,1,1.56-7.86,13.36,13.36,0,0,1,4.8-5.82,13.79,13.79,0,0,1,8-2.22,14,14,0,0,1,7.68,2.07,13.39,13.39,0,0,1,4.92,5.52,17,17,0,0,1,1.68,7.53,2.62,2.62,0,0,1-2.76,2.7h-20.34a9.87,9.87,0,0,0,3.12,6.54q2.64,2.34,7.38,2.34a18,18,0,0,0,4.41-.48,18.32,18.32,0,0,0,3.69-1.38,2.38,2.38,0,0,1,1.08-.24,2.41,2.41,0,0,1,1.68.66,2.18,2.18,0,0,1,.72,1.68,2.59,2.59,0,0,1-1.56,2.22,18.74,18.74,0,0,1-10.5,2.64Q1269.77,234.09,1265.66,229.92Zm19.11-14.25a9.61,9.61,0,0,0-1.53-4.92,8.26,8.26,0,0,0-3.33-2.91,9.15,9.15,0,0,0-8,0,8.06,8.06,0,0,0-3.3,2.91,9.79,9.79,0,0,0-1.5,4.92Z"/><path d="M1298.15,233a2.61,2.61,0,0,1-.78-1.92V205.35a2.71,2.71,0,0,1,.78-1.95,2.56,2.56,0,0,1,1.92-.81,2.77,2.77,0,0,1,2.76,2.76v2.46a15,15,0,0,1,4.05-4,11,11,0,0,1,6.15-1.56,9.33,9.33,0,0,1,5.76,1.8,10,10,0,0,1,3.42,4.38,12.09,12.09,0,0,1,11-6.18,9.11,9.11,0,0,1,5.61,1.68,10,10,0,0,1,3.33,4.32,14.44,14.44,0,0,1,1.08,5.52v17.28a2.56,2.56,0,0,1-.81,1.92,2.71,2.71,0,0,1-2,.78,2.66,2.66,0,0,1-2.7-2.7v-16.2q0-3.9-1.38-5.73t-4.74-1.83a7.92,7.92,0,0,0-5.07,1.59,15.38,15.38,0,0,0-3.57,4.17v18a2.56,2.56,0,0,1-.81,1.92,2.71,2.71,0,0,1-2,.78,2.66,2.66,0,0,1-2.7-2.7v-16.2q0-3.9-1.38-5.73t-4.74-1.83a7.92,7.92,0,0,0-5.07,1.59,15.38,15.38,0,0,0-3.57,4.17v18A2.56,2.56,0,0,1,1302,233a2.71,2.71,0,0,1-2,.78A2.61,2.61,0,0,1,1298.15,233Z"/><path d="M1369.85,226.17v-18.6h-4.26a1.13,1.13,0,0,1-1.14-1.14,1.25,1.25,0,0,1,.54-1l8.16-8a1.51,1.51,0,0,1,1-.54,1.06,1.06,0,0,1,.81.36,1.2,1.2,0,0,1,.33.84v4.8h6.78a2.26,2.26,0,0,1,2.34,2.34,2.3,2.3,0,0,1-.66,1.65,2.22,2.22,0,0,1-1.68.69h-6.78v18.12q0,2.34,1.11,3a5.59,5.59,0,0,0,2.79.63,8.32,8.32,0,0,0,2.4-.36l.51-.12a3.27,3.27,0,0,1,.69-.06,2.11,2.11,0,0,1,1.5.63,2,2,0,0,1,.66,1.53,2.27,2.27,0,0,1-1.38,2.1,11.74,11.74,0,0,1-5,1.08Q1369.85,234.09,1369.85,226.17Z"/><path d="M1396,232.11a13.46,13.46,0,0,1-5.37-5.61,19.21,19.21,0,0,1,0-16.62,13.46,13.46,0,0,1,5.37-5.61,17.44,17.44,0,0,1,16.14,0,13.65,13.65,0,0,1,5.4,5.61,18.94,18.94,0,0,1,0,16.62,13.65,13.65,0,0,1-5.4,5.61,17.44,17.44,0,0,1-16.14,0Zm12.81-4.14a9.16,9.16,0,0,0,3.72-3.6,12,12,0,0,0,1.47-6.24,11.88,11.88,0,0,0-1.47-6.18,9,9,0,0,0-3.72-3.57,10.52,10.52,0,0,0-4.71-1.11,10.64,10.64,0,0,0-4.77,1.11,8.78,8.78,0,0,0-3.69,3.57,12.08,12.08,0,0,0-1.44,6.18,12.21,12.21,0,0,0,1.44,6.24,9,9,0,0,0,3.69,3.6,10.41,10.41,0,0,0,4.77,1.14A10.29,10.29,0,0,0,1408.76,228Z"/><path d="M1448.09,229.53v1.56a2.56,2.56,0,0,1-.81,1.92,2.73,2.73,0,0,1-2,.78,2.66,2.66,0,0,1-2.7-2.7V192.15a2.67,2.67,0,0,1,.78-2,2.53,2.53,0,0,1,1.92-.81,2.67,2.67,0,0,1,2.76,2.76v14.7a13.76,13.76,0,0,1,10.26-4.56,14.09,14.09,0,0,1,7.05,1.89,14.34,14.34,0,0,1,5.4,5.52,18.45,18.45,0,0,1,0,17,14.34,14.34,0,0,1-5.4,5.52,14.09,14.09,0,0,1-7.05,1.89A13.76,13.76,0,0,1,1448.09,229.53Zm16.62-3.36q2.7-2.82,2.7-8t-2.7-8a9.44,9.44,0,0,0-7.14-2.82,11.33,11.33,0,0,0-5.19,1.23,14.69,14.69,0,0,0-4.29,3.27v12.6a14.69,14.69,0,0,0,4.29,3.27,11.33,11.33,0,0,0,5.19,1.23A9.44,9.44,0,0,0,1464.71,226.17Z"/><path d="M1482.74,229.92q-4.12-4.17-4.12-11.73a19.39,19.39,0,0,1,1.57-7.86,13.29,13.29,0,0,1,4.8-5.82,13.76,13.76,0,0,1,8-2.22,14,14,0,0,1,7.68,2.07,13.36,13.36,0,0,1,4.91,5.52,17,17,0,0,1,1.69,7.53,2.71,2.71,0,0,1-.75,1.92,2.67,2.67,0,0,1-2,.78h-20.34a9.78,9.78,0,0,0,3.12,6.54q2.63,2.34,7.38,2.34a18.09,18.09,0,0,0,4.41-.48,18.78,18.78,0,0,0,3.69-1.38,2.32,2.32,0,0,1,1.08-.24,2.4,2.4,0,0,1,1.67.66,2.15,2.15,0,0,1,.73,1.68,2.61,2.61,0,0,1-1.56,2.22,22,22,0,0,1-4.63,2,21.63,21.63,0,0,1-5.87.66Q1486.84,234.09,1482.74,229.92Zm19.11-14.25a9.52,9.52,0,0,0-1.54-4.92,8.17,8.17,0,0,0-3.32-2.91,9.15,9.15,0,0,0-8,0,7.93,7.93,0,0,0-3.3,2.91,9.7,9.7,0,0,0-1.5,4.92Z"/><path d="M1533,233a8.52,8.52,0,0,1-3.57-3.15,8.68,8.68,0,0,1-1.32-4.77,8.41,8.41,0,0,1,3.51-7.08q3.51-2.64,10.29-2.64h7.26v-.48q0-4-1.95-5.7t-6.09-1.74a20.45,20.45,0,0,0-4,.36,34,34,0,0,0-3.93,1.08,3.37,3.37,0,0,1-.78.12,2.13,2.13,0,0,1-1.56-.66,2.2,2.2,0,0,1-.66-1.62,2.31,2.31,0,0,1,1.56-2.28,26.39,26.39,0,0,1,10.38-2.16,13.55,13.55,0,0,1,7,1.68,10.56,10.56,0,0,1,4.2,4.35,12.65,12.65,0,0,1,1.35,5.79v17a2.56,2.56,0,0,1-.81,1.92,2.71,2.71,0,0,1-2,.78,2.66,2.66,0,0,1-2.7-2.7v-1.56a15.07,15.07,0,0,1-11.28,4.56A11.15,11.15,0,0,1,1533,233Zm12-5a14.18,14.18,0,0,0,4.14-3.21v-5h-6.54q-9.06,0-9.06,4.74A4.45,4.45,0,0,0,1535,228q1.47,1.32,4.89,1.32A10.85,10.85,0,0,0,1545,228Z"/><path d="M1570.18,233.07a3.66,3.66,0,0,1-1.32-1.8l-8.52-25a3.23,3.23,0,0,1-.18-1,2.66,2.66,0,0,1,2.7-2.7,2.74,2.74,0,0,1,1.53.45,2.21,2.21,0,0,1,.93,1.17l7,23.1,7-22.56a3.08,3.08,0,0,1,5.88,0l7,22.56,7-23.1a2.21,2.21,0,0,1,.93-1.17,2.74,2.74,0,0,1,1.53-.45,2.66,2.66,0,0,1,2.7,2.7,3.23,3.23,0,0,1-.18,1l-8.52,25a3.66,3.66,0,0,1-1.32,1.8,3.6,3.6,0,0,1-4.32,0,4,4,0,0,1-1.38-1.86l-6.36-19.86-6.36,19.86a4,4,0,0,1-1.38,1.86,3.6,3.6,0,0,1-4.32,0Z"/><path d="M1612.58,229.92q-4.12-4.17-4.12-11.73a19.56,19.56,0,0,1,1.56-7.86,13.38,13.38,0,0,1,4.81-5.82,13.74,13.74,0,0,1,8-2.22,13.92,13.92,0,0,1,7.67,2.07,13.32,13.32,0,0,1,4.92,5.52,17,17,0,0,1,1.68,7.53,2.66,2.66,0,0,1-.75,1.92,2.64,2.64,0,0,1-2,.78H1614a9.87,9.87,0,0,0,3.12,6.54q2.64,2.34,7.38,2.34a18.12,18.12,0,0,0,4.42-.48,18.46,18.46,0,0,0,3.68-1.38,2.5,2.5,0,0,1,2.76.42,2.15,2.15,0,0,1,.72,1.68,2.59,2.59,0,0,1-1.56,2.22,18.74,18.74,0,0,1-10.5,2.64Q1616.68,234.09,1612.58,229.92Zm19.11-14.25a9.62,9.62,0,0,0-1.54-4.92,8.23,8.23,0,0,0-3.32-2.91,9.44,9.44,0,0,0-4-.93,9.3,9.3,0,0,0-4,.93,8,8,0,0,0-3.31,2.91,9.79,9.79,0,0,0-1.5,4.92Z"/><path d="M1649.89,232.2a14.34,14.34,0,0,1-5.4-5.52,18.45,18.45,0,0,1,0-17,14.34,14.34,0,0,1,5.4-5.52,14.07,14.07,0,0,1,7-1.89,13.79,13.79,0,0,1,10.26,4.56v-14.7a2.63,2.63,0,0,1,.81-2,2.71,2.71,0,0,1,2-.78,2.56,2.56,0,0,1,1.92.81,2.71,2.71,0,0,1,.78,2v38.94a2.66,2.66,0,0,1-2.7,2.7,2.71,2.71,0,0,1-2-.78,2.56,2.56,0,0,1-.81-1.92v-1.56a13.79,13.79,0,0,1-10.26,4.56A14.07,14.07,0,0,1,1649.89,232.2Zm13-4.44a14.82,14.82,0,0,0,4.29-3.27v-12.6a14.82,14.82,0,0,0-4.29-3.27,11.33,11.33,0,0,0-5.19-1.23,9.43,9.43,0,0,0-7.14,2.82q-2.7,2.82-2.7,8t2.7,8a9.43,9.43,0,0,0,7.14,2.82A11.33,11.33,0,0,0,1662.91,227.76Z"/><path d="M1682.53,232.68a3.23,3.23,0,0,1-1-2.37V230a3.38,3.38,0,0,1,3.36-3.36h.6a3.38,3.38,0,0,1,3.36,3.36v.36a3.38,3.38,0,0,1-3.36,3.36h-.6A3.23,3.23,0,0,1,1682.53,232.68Z"/><path d="M116.48,124.1a4.21,4.21,0,0,1-1.41-2L103.31,86a4.2,4.2,0,0,1-.18-1,2.37,2.37,0,0,1,.69-1.89,2.64,2.64,0,0,1,2-.75,2.54,2.54,0,0,1,1.68.6,3.23,3.23,0,0,1,1,1.56l10.08,33.12,10.14-33a3,3,0,0,1,1.17-1.65,3.33,3.33,0,0,1,3.9,0,3,3,0,0,1,1.17,1.65l10.14,33,10.08-33.12a3.23,3.23,0,0,1,1-1.56,2.54,2.54,0,0,1,1.68-.6,2.64,2.64,0,0,1,2,.75,2.37,2.37,0,0,1,.69,1.89,4.2,4.2,0,0,1-.18,1l-11.76,36.12a4.21,4.21,0,0,1-1.41,2,3.48,3.48,0,0,1-2.13.69,3.54,3.54,0,0,1-2.19-.75,3.73,3.73,0,0,1-1.35-2l-9.66-30.6-9.66,30.6a3.73,3.73,0,0,1-1.35,2,3.54,3.54,0,0,1-2.19.75A3.48,3.48,0,0,1,116.48,124.1Z"/><path d="M169.55,123.11a13.46,13.46,0,0,1-5.37-5.61,19.21,19.21,0,0,1,0-16.62,13.46,13.46,0,0,1,5.37-5.61,17.44,17.44,0,0,1,16.14,0,13.65,13.65,0,0,1,5.4,5.61,18.94,18.94,0,0,1,0,16.62,13.65,13.65,0,0,1-5.4,5.61,17.44,17.44,0,0,1-16.14,0ZM182.36,119a9.16,9.16,0,0,0,3.72-3.6,12,12,0,0,0,1.47-6.24,11.88,11.88,0,0,0-1.47-6.18,9,9,0,0,0-3.72-3.57,10.52,10.52,0,0,0-4.71-1.11,10.64,10.64,0,0,0-4.77,1.11,8.78,8.78,0,0,0-3.69,3.57,12.08,12.08,0,0,0-1.44,6.18,12.21,12.21,0,0,0,1.44,6.24,9,9,0,0,0,3.69,3.6,10.41,10.41,0,0,0,4.77,1.14A10.29,10.29,0,0,0,182.36,119Z"/><path d="M207.17,124.07a3.66,3.66,0,0,1-1.32-1.8l-8.52-25a3.23,3.23,0,0,1-.18-1,2.66,2.66,0,0,1,2.7-2.7,2.74,2.74,0,0,1,1.53.45,2.21,2.21,0,0,1,.93,1.17l7,23.1,7-22.56a3.08,3.08,0,0,1,5.88,0l7,22.56,7-23.1a2.21,2.21,0,0,1,.93-1.17,2.74,2.74,0,0,1,1.53-.45,2.66,2.66,0,0,1,2.7,2.7,3.23,3.23,0,0,1-.18,1l-8.52,25a3.66,3.66,0,0,1-1.32,1.8,3.6,3.6,0,0,1-4.32,0,4,4,0,0,1-1.38-1.86l-6.36-19.86-6.36,19.86a4,4,0,0,1-1.38,1.86,3.6,3.6,0,0,1-4.32,0Z"/><path d="M244.88,133a1.78,1.78,0,0,1-.51-1.26,1.67,1.67,0,0,1,.9-1.5,6.85,6.85,0,0,0,2.28-2.1,6.41,6.41,0,0,0,.78-3.48h-.24a3.38,3.38,0,0,1-3.36-3.36V121a3.38,3.38,0,0,1,3.36-3.36h.6a3.38,3.38,0,0,1,3.36,3.36v3.54a9.65,9.65,0,0,1-4.92,8.76,1.89,1.89,0,0,1-1,.3A1.63,1.63,0,0,1,244.88,133Z"/><path d="M283.49,124.07a3.66,3.66,0,0,1-1.32-1.8l-8.52-25a3.23,3.23,0,0,1-.18-1,2.66,2.66,0,0,1,2.7-2.7,2.74,2.74,0,0,1,1.53.45,2.21,2.21,0,0,1,.93,1.17l7,23.1,7-22.56a3.08,3.08,0,0,1,5.88,0l7,22.56,7-23.1A2.21,2.21,0,0,1,313.4,94a2.74,2.74,0,0,1,1.53-.45,2.66,2.66,0,0,1,2.7,2.7,3.23,3.23,0,0,1-.18,1l-8.52,25a3.66,3.66,0,0,1-1.32,1.8,3.6,3.6,0,0,1-4.32,0,4,4,0,0,1-1.38-1.86l-6.36-19.86-6.36,19.86a4,4,0,0,1-1.38,1.86,3.6,3.6,0,0,1-4.32,0Z"/><path d="M324.83,124a2.61,2.61,0,0,1-.78-1.92V83.15a2.71,2.71,0,0,1,.78-2,2.56,2.56,0,0,1,1.92-.81,2.77,2.77,0,0,1,2.76,2.76V98.81a19.94,19.94,0,0,1,4.92-4,12.42,12.42,0,0,1,6.24-1.5,10.37,10.37,0,0,1,5.73,1.56,10.14,10.14,0,0,1,3.72,4.26,13.6,13.6,0,0,1,1.29,5.94v17a2.56,2.56,0,0,1-.81,1.92,2.71,2.71,0,0,1-2,.78,2.66,2.66,0,0,1-2.7-2.7V105.65q0-7.32-6.6-7.32A9.55,9.55,0,0,0,334,99.89a19.44,19.44,0,0,0-4.47,4.2v18a2.56,2.56,0,0,1-.81,1.92,2.71,2.71,0,0,1-1.95.78A2.61,2.61,0,0,1,324.83,124Z"/><path d="M363.5,124a8.52,8.52,0,0,1-3.57-3.15,8.68,8.68,0,0,1-1.32-4.77,8.41,8.41,0,0,1,3.51-7.08q3.51-2.64,10.29-2.64h7.26v-.48q0-4-1.95-5.7t-6.09-1.74a20.45,20.45,0,0,0-4.05.36,34,34,0,0,0-3.93,1.08,3.37,3.37,0,0,1-.78.12,2.13,2.13,0,0,1-1.56-.66,2.2,2.2,0,0,1-.66-1.62,2.31,2.31,0,0,1,1.56-2.28,26.39,26.39,0,0,1,10.38-2.16,13.55,13.55,0,0,1,7,1.68,10.56,10.56,0,0,1,4.2,4.35,12.65,12.65,0,0,1,1.35,5.79v17a2.56,2.56,0,0,1-.81,1.92,2.71,2.71,0,0,1-1.95.78,2.66,2.66,0,0,1-2.7-2.7v-1.56a15.07,15.07,0,0,1-11.28,4.56A11.15,11.15,0,0,1,363.5,124Zm12-5a14.18,14.18,0,0,0,4.14-3.21v-5h-6.54q-9.06,0-9.06,4.74a4.45,4.45,0,0,0,1.47,3.48q1.47,1.32,4.89,1.32A10.85,10.85,0,0,0,375.53,119Z"/><path d="M395.39,117.17V98.57h-4.26A1.13,1.13,0,0,1,390,97.43a1.25,1.25,0,0,1,.54-1l8.16-8a1.51,1.51,0,0,1,1-.54,1.06,1.06,0,0,1,.81.36,1.2,1.2,0,0,1,.33.84v4.8h6.78A2.26,2.26,0,0,1,410,96.23a2.3,2.3,0,0,1-.66,1.65,2.22,2.22,0,0,1-1.68.69h-6.78v18.12q0,2.34,1.11,3a5.59,5.59,0,0,0,2.79.63,8.32,8.32,0,0,0,2.4-.36l.51-.12a3.27,3.27,0,0,1,.69-.06,2.11,2.11,0,0,1,1.5.63,2,2,0,0,1,.66,1.53,2.27,2.27,0,0,1-1.38,2.1,11.74,11.74,0,0,1-5,1.08Q395.39,125.09,395.39,117.17Z"/><path d="M435,124a8.52,8.52,0,0,1-3.57-3.15,8.68,8.68,0,0,1-1.32-4.77,8.41,8.41,0,0,1,3.51-7.08q3.51-2.64,10.29-2.64h7.26v-.48q0-4-1.95-5.7t-6.09-1.74a20.45,20.45,0,0,0-4,.36,34,34,0,0,0-3.93,1.08,3.37,3.37,0,0,1-.78.12,2.13,2.13,0,0,1-1.56-.66,2.2,2.2,0,0,1-.66-1.62,2.31,2.31,0,0,1,1.56-2.28,26.39,26.39,0,0,1,10.38-2.16,13.55,13.55,0,0,1,7,1.68,10.56,10.56,0,0,1,4.2,4.35,12.65,12.65,0,0,1,1.35,5.79v17a2.56,2.56,0,0,1-.81,1.92,2.71,2.71,0,0,1-1.95.78,2.66,2.66,0,0,1-2.7-2.7v-1.56a15.07,15.07,0,0,1-11.28,4.56A11.15,11.15,0,0,1,435,124Zm12-5a14.18,14.18,0,0,0,4.14-3.21v-5h-6.54q-9.06,0-9.06,4.74a4.45,4.45,0,0,0,1.47,3.48q1.47,1.32,4.89,1.32A10.85,10.85,0,0,0,447.05,119Z"/><path d="M488.39,124.07a3.66,3.66,0,0,1-1.32-1.8l-8.52-25a3.23,3.23,0,0,1-.18-1,2.66,2.66,0,0,1,2.7-2.7,2.74,2.74,0,0,1,1.53.45,2.21,2.21,0,0,1,.93,1.17l7,23.1,7-22.56a3.08,3.08,0,0,1,5.88,0l7,22.56,7-23.1A2.21,2.21,0,0,1,518.3,94a2.74,2.74,0,0,1,1.53-.45,2.66,2.66,0,0,1,2.7,2.7,3.23,3.23,0,0,1-.18,1l-8.52,25a3.66,3.66,0,0,1-1.32,1.8,3.6,3.6,0,0,1-4.32,0,4,4,0,0,1-1.38-1.86l-6.36-19.86-6.36,19.86a4,4,0,0,1-1.38,1.86,3.6,3.6,0,0,1-4.32,0Z"/><path d="M530.78,120.92q-4.11-4.17-4.11-11.73a19.56,19.56,0,0,1,1.56-7.86,13.36,13.36,0,0,1,4.8-5.82,13.79,13.79,0,0,1,8-2.22,14,14,0,0,1,7.68,2.07,13.39,13.39,0,0,1,4.92,5.52,17,17,0,0,1,1.68,7.53,2.62,2.62,0,0,1-2.76,2.7H532.19a9.87,9.87,0,0,0,3.12,6.54Q538,120,542.69,120a18,18,0,0,0,4.41-.48,18.32,18.32,0,0,0,3.69-1.38,2.38,2.38,0,0,1,1.08-.24,2.41,2.41,0,0,1,1.68.66,2.18,2.18,0,0,1,.72,1.68,2.59,2.59,0,0,1-1.56,2.22,18.74,18.74,0,0,1-10.5,2.64Q534.89,125.09,530.78,120.92Zm19.11-14.25a9.61,9.61,0,0,0-1.53-4.92A8.26,8.26,0,0,0,545,98.84a9.15,9.15,0,0,0-8,0,8.06,8.06,0,0,0-3.3,2.91,9.79,9.79,0,0,0-1.5,4.92Z"/><path d="M562.91,86.75a3,3,0,0,1-.9-2.16v-.24a3.07,3.07,0,0,1,3.06-3.06h.36a3.07,3.07,0,0,1,3.06,3.06v.24a3.07,3.07,0,0,1-3.06,3.06h-.36A3,3,0,0,1,562.91,86.75Zm.36,37.26a2.61,2.61,0,0,1-.78-1.92V96.35a2.71,2.71,0,0,1,.78-1.95,2.56,2.56,0,0,1,1.92-.81A2.67,2.67,0,0,1,568,96.35v25.74a2.56,2.56,0,0,1-.81,1.92,2.73,2.73,0,0,1-1.95.78A2.61,2.61,0,0,1,563.27,124Z"/><path d="M578.21,124a2.57,2.57,0,0,1-.78-1.92V96.35a2.67,2.67,0,0,1,.78-1.95,2.52,2.52,0,0,1,1.91-.81,2.77,2.77,0,0,1,2.77,2.76v2.58c2.79-3.76,5.94-5.64,9.42-5.64h.29a2.55,2.55,0,0,1,1.9.78,2.71,2.71,0,0,1,.75,1.92,2.42,2.42,0,0,1-.79,1.86,2.81,2.81,0,0,1-2,.72h-.29a10.21,10.21,0,0,0-5.28,1.41,12,12,0,0,0-4,3.87v18.24a2.56,2.56,0,0,1-.81,1.92,2.73,2.73,0,0,1-2,.78A2.57,2.57,0,0,1,578.21,124Z"/><path d="M605.11,123.2a14.34,14.34,0,0,1-5.4-5.52,18.45,18.45,0,0,1,0-17,14.34,14.34,0,0,1,5.4-5.52,14.07,14.07,0,0,1,7-1.89,13.79,13.79,0,0,1,10.26,4.56V83.15a2.63,2.63,0,0,1,.81-2,2.71,2.71,0,0,1,1.95-.78,2.56,2.56,0,0,1,1.92.81,2.71,2.71,0,0,1,.78,2v38.94a2.66,2.66,0,0,1-2.7,2.7,2.71,2.71,0,0,1-1.95-.78,2.56,2.56,0,0,1-.81-1.92v-1.56a13.79,13.79,0,0,1-10.26,4.56A14.07,14.07,0,0,1,605.11,123.2Zm13-4.44a14.82,14.82,0,0,0,4.29-3.27v-12.6a14.82,14.82,0,0,0-4.29-3.27,11.33,11.33,0,0,0-5.19-1.23,9.43,9.43,0,0,0-7.14,2.82q-2.7,2.82-2.7,8t2.7,8a9.43,9.43,0,0,0,7.14,2.82A11.33,11.33,0,0,0,618.13,118.76Z"/><path d="M654.76,117.17V98.57H650.5a1.13,1.13,0,0,1-1.14-1.14,1.25,1.25,0,0,1,.54-1l8.16-8a1.51,1.51,0,0,1,1-.54,1.06,1.06,0,0,1,.81.36,1.2,1.2,0,0,1,.33.84v4.8H667a2.26,2.26,0,0,1,2.34,2.34,2.3,2.3,0,0,1-.66,1.65,2.22,2.22,0,0,1-1.68.69h-6.78v18.12q0,2.34,1.11,3a5.59,5.59,0,0,0,2.79.63,8.32,8.32,0,0,0,2.4-.36l.51-.12a3.27,3.27,0,0,1,.69-.06,2.11,2.11,0,0,1,1.5.63,2,2,0,0,1,.66,1.53,2.27,2.27,0,0,1-1.38,2.1,11.74,11.74,0,0,1-5,1.08Q654.76,125.09,654.76,117.17Z"/><path d="M676.3,86.75a3,3,0,0,1-.9-2.16v-.24a3.07,3.07,0,0,1,3.06-3.06h.36a3.07,3.07,0,0,1,3.06,3.06v.24a3.07,3.07,0,0,1-3.06,3.06h-.36A3,3,0,0,1,676.3,86.75Zm.36,37.26a2.61,2.61,0,0,1-.78-1.92V96.35a2.71,2.71,0,0,1,.78-1.95,2.56,2.56,0,0,1,1.92-.81,2.67,2.67,0,0,1,2.76,2.76v25.74a2.56,2.56,0,0,1-.81,1.92,2.71,2.71,0,0,1-1.95.78A2.61,2.61,0,0,1,676.66,124Z"/><path d="M691.6,124a2.61,2.61,0,0,1-.78-1.92V96.35a2.71,2.71,0,0,1,.78-1.95,2.56,2.56,0,0,1,1.92-.81,2.77,2.77,0,0,1,2.76,2.76v2.46a15,15,0,0,1,4.05-4,11,11,0,0,1,6.15-1.56,9.33,9.33,0,0,1,5.76,1.8,10,10,0,0,1,3.42,4.38,12.09,12.09,0,0,1,11-6.18A9.11,9.11,0,0,1,732.31,95a10,10,0,0,1,3.33,4.32,14.44,14.44,0,0,1,1.08,5.52v17.28a2.56,2.56,0,0,1-.81,1.92,2.71,2.71,0,0,1-1.95.78,2.66,2.66,0,0,1-2.7-2.7v-16.2q0-3.9-1.38-5.73t-4.74-1.83a7.92,7.92,0,0,0-5.07,1.59,15.38,15.38,0,0,0-3.57,4.17v18a2.56,2.56,0,0,1-.81,1.92,2.71,2.71,0,0,1-2,.78,2.66,2.66,0,0,1-2.7-2.7v-16.2q0-3.9-1.38-5.73t-4.74-1.83a7.92,7.92,0,0,0-5.07,1.59,15.38,15.38,0,0,0-3.57,4.17v18a2.56,2.56,0,0,1-.81,1.92,2.71,2.71,0,0,1-2,.78A2.61,2.61,0,0,1,691.6,124Z"/><path d="M748.15,120.92Q744,116.75,744,109.19a19.56,19.56,0,0,1,1.56-7.86,13.36,13.36,0,0,1,4.8-5.82,13.79,13.79,0,0,1,8-2.22,14,14,0,0,1,7.68,2.07,13.39,13.39,0,0,1,4.92,5.52,17,17,0,0,1,1.68,7.53,2.62,2.62,0,0,1-2.76,2.7H749.56a9.87,9.87,0,0,0,3.12,6.54q2.64,2.34,7.38,2.34a18,18,0,0,0,4.41-.48,18.32,18.32,0,0,0,3.69-1.38,2.38,2.38,0,0,1,1.08-.24,2.41,2.41,0,0,1,1.68.66,2.18,2.18,0,0,1,.72,1.68,2.59,2.59,0,0,1-1.56,2.22,18.74,18.74,0,0,1-10.5,2.64Q752.26,125.09,748.15,120.92Zm19.11-14.25a9.61,9.61,0,0,0-1.53-4.92,8.26,8.26,0,0,0-3.33-2.91,9.15,9.15,0,0,0-8,0,8.06,8.06,0,0,0-3.3,2.91,9.79,9.79,0,0,0-1.5,4.92Z"/><path d="M780.25,123.68a3.23,3.23,0,0,1-1-2.37V121a3.38,3.38,0,0,1,3.36-3.36h.6a3.38,3.38,0,0,1,3.36,3.36v.36a3.38,3.38,0,0,1-3.36,3.36h-.6A3.23,3.23,0,0,1,780.25,123.68Z"/><path d="M117.77,196a2.61,2.61,0,0,1-.78-1.92V159.71H104.75a2.46,2.46,0,0,1-2.52-2.52,2.54,2.54,0,0,1,.72-1.83,2.39,2.39,0,0,1,1.8-.75h29.88a2.56,2.56,0,0,1,2.58,2.58,2.39,2.39,0,0,1-.75,1.8,2.54,2.54,0,0,1-1.83.72H122.45v34.38a2.56,2.56,0,0,1-.81,1.92,2.71,2.71,0,0,1-2,.78A2.61,2.61,0,0,1,117.77,196Z"/><path d="M143.15,196a2.61,2.61,0,0,1-.78-1.92V155.15a2.71,2.71,0,0,1,.78-2,2.56,2.56,0,0,1,1.92-.81,2.77,2.77,0,0,1,2.76,2.76v15.66a19.94,19.94,0,0,1,4.92-4,12.42,12.42,0,0,1,6.24-1.5,10.37,10.37,0,0,1,5.73,1.56,10.14,10.14,0,0,1,3.72,4.26,13.6,13.6,0,0,1,1.29,5.94v17a2.56,2.56,0,0,1-.81,1.92,2.71,2.71,0,0,1-1.95.78,2.66,2.66,0,0,1-2.7-2.7V177.65q0-7.32-6.6-7.32a9.55,9.55,0,0,0-5.37,1.56,19.44,19.44,0,0,0-4.47,4.2v18A2.56,2.56,0,0,1,147,196a2.71,2.71,0,0,1-2,.78A2.61,2.61,0,0,1,143.15,196Z"/><path d="M179.33,158.75a3,3,0,0,1-.9-2.16v-.24a3.07,3.07,0,0,1,3.06-3.06h.36a3.07,3.07,0,0,1,3.06,3.06v.24a3.07,3.07,0,0,1-3.06,3.06h-.36A3,3,0,0,1,179.33,158.75Zm.36,37.26a2.61,2.61,0,0,1-.78-1.92V168.35a2.71,2.71,0,0,1,.78-1.95,2.56,2.56,0,0,1,1.92-.81,2.67,2.67,0,0,1,2.76,2.76v25.74a2.56,2.56,0,0,1-.81,1.92,2.71,2.71,0,0,1-1.95.78A2.61,2.61,0,0,1,179.69,196Z"/><path d="M192.83,194.39a2.29,2.29,0,0,1-1-2,2.41,2.41,0,0,1,.66-1.68,2.18,2.18,0,0,1,1.68-.72,2.64,2.64,0,0,1,1.08.24,24.25,24.25,0,0,0,3.84,1.32,17.85,17.85,0,0,0,4.32.48q6.66,0,6.66-4.26a2.27,2.27,0,0,0-1.53-2.1,31.33,31.33,0,0,0-5-1.62,45.27,45.27,0,0,1-5.85-1.74,10.29,10.29,0,0,1-4-2.73,6.94,6.94,0,0,1-1.65-4.83,8.65,8.65,0,0,1,3-6.84q3-2.64,8.67-2.64a25,25,0,0,1,8.7,1.5,2.25,2.25,0,0,1,1.29.9,2.41,2.41,0,0,1,.45,1.38,2.35,2.35,0,0,1-.69,1.68,2.27,2.27,0,0,1-1.71.72,3.37,3.37,0,0,1-.78-.12,23,23,0,0,0-6.84-1.08,9.37,9.37,0,0,0-5.07,1.17,3.49,3.49,0,0,0-1.83,3,2.77,2.77,0,0,0,1.68,2.64,24,24,0,0,0,5.22,1.62,50,50,0,0,1,5.76,1.77,9.52,9.52,0,0,1,3.81,2.73,7.41,7.41,0,0,1,1.59,5,7.93,7.93,0,0,1-3,6.36q-3,2.52-8.55,2.52A22.32,22.32,0,0,1,192.83,194.39Z"/><path d="M238.67,158.75a3,3,0,0,1-.9-2.16v-.24a3.07,3.07,0,0,1,3.06-3.06h.36a3.07,3.07,0,0,1,3.06,3.06v.24a3.07,3.07,0,0,1-3.06,3.06h-.36A3,3,0,0,1,238.67,158.75ZM239,196a2.61,2.61,0,0,1-.78-1.92V168.35a2.71,2.71,0,0,1,.78-1.95,2.56,2.56,0,0,1,1.92-.81,2.67,2.67,0,0,1,2.76,2.76v25.74a2.56,2.56,0,0,1-.81,1.92,2.71,2.71,0,0,1-2,.78A2.61,2.61,0,0,1,239,196Z"/><path d="M252.17,194.39a2.29,2.29,0,0,1-1-2,2.41,2.41,0,0,1,.66-1.68,2.18,2.18,0,0,1,1.68-.72,2.64,2.64,0,0,1,1.08.24,24.25,24.25,0,0,0,3.84,1.32,17.85,17.85,0,0,0,4.32.48q6.66,0,6.66-4.26a2.27,2.27,0,0,0-1.53-2.1,31.33,31.33,0,0,0-5-1.62,45.27,45.27,0,0,1-5.85-1.74,10.29,10.29,0,0,1-4-2.73,6.94,6.94,0,0,1-1.65-4.83,8.65,8.65,0,0,1,3-6.84q3-2.64,8.67-2.64a25,25,0,0,1,8.7,1.5,2.25,2.25,0,0,1,1.29.9,2.41,2.41,0,0,1,.45,1.38,2.35,2.35,0,0,1-.69,1.68,2.27,2.27,0,0,1-1.71.72,3.37,3.37,0,0,1-.78-.12,23,23,0,0,0-6.84-1.08,9.37,9.37,0,0,0-5.07,1.17,3.49,3.49,0,0,0-1.83,3,2.77,2.77,0,0,0,1.68,2.64,24,24,0,0,0,5.22,1.62,50,50,0,0,1,5.76,1.77,9.52,9.52,0,0,1,3.81,2.73,7.41,7.41,0,0,1,1.59,5,7.93,7.93,0,0,1-3,6.36q-3,2.52-8.55,2.52A22.32,22.32,0,0,1,252.17,194.39Z"/><path d="M296.57,194.39a2.29,2.29,0,0,1-1-2,2.41,2.41,0,0,1,.66-1.68,2.18,2.18,0,0,1,1.68-.72,2.64,2.64,0,0,1,1.08.24,24.25,24.25,0,0,0,3.84,1.32,17.85,17.85,0,0,0,4.32.48q6.66,0,6.66-4.26a2.27,2.27,0,0,0-1.53-2.1,31.33,31.33,0,0,0-5-1.62,45.27,45.27,0,0,1-5.85-1.74,10.29,10.29,0,0,1-4-2.73,6.94,6.94,0,0,1-1.65-4.83,8.65,8.65,0,0,1,3-6.84q3-2.64,8.67-2.64a25,25,0,0,1,8.7,1.5,2.25,2.25,0,0,1,1.29.9,2.41,2.41,0,0,1,.45,1.38,2.35,2.35,0,0,1-.69,1.68,2.27,2.27,0,0,1-1.71.72,3.37,3.37,0,0,1-.78-.12,23,23,0,0,0-6.84-1.08,9.37,9.37,0,0,0-5.07,1.17,3.49,3.49,0,0,0-1.83,3,2.77,2.77,0,0,0,1.68,2.64,24,24,0,0,0,5.22,1.62,50,50,0,0,1,5.76,1.77,9.52,9.52,0,0,1,3.81,2.73,7.41,7.41,0,0,1,1.59,5,7.93,7.93,0,0,1-3,6.36q-3,2.52-8.55,2.52A22.32,22.32,0,0,1,296.57,194.39Z"/><path d="M331.79,195.11a13.46,13.46,0,0,1-5.37-5.61,19.21,19.21,0,0,1,0-16.62,13.46,13.46,0,0,1,5.37-5.61,17.44,17.44,0,0,1,16.14,0,13.65,13.65,0,0,1,5.4,5.61,18.94,18.94,0,0,1,0,16.62,13.65,13.65,0,0,1-5.4,5.61,17.44,17.44,0,0,1-16.14,0ZM344.6,191a9.16,9.16,0,0,0,3.72-3.6,12,12,0,0,0,1.47-6.24,11.88,11.88,0,0,0-1.47-6.18,9,9,0,0,0-3.72-3.57,10.52,10.52,0,0,0-4.71-1.11,10.64,10.64,0,0,0-4.77,1.11,8.78,8.78,0,0,0-3.69,3.57,12.08,12.08,0,0,0-1.44,6.18,12.21,12.21,0,0,0,1.44,6.24,9,9,0,0,0,3.69,3.6,10.41,10.41,0,0,0,4.77,1.14A10.29,10.29,0,0,0,344.6,191Z"/><path d="M383.87,195.11a13.46,13.46,0,0,1-5.37-5.61,19.21,19.21,0,0,1,0-16.62,13.46,13.46,0,0,1,5.37-5.61,17.44,17.44,0,0,1,16.14,0,13.71,13.71,0,0,1,5.4,5.61,18.94,18.94,0,0,1,0,16.62,13.71,13.71,0,0,1-5.4,5.61,17.44,17.44,0,0,1-16.14,0ZM396.68,191a9.16,9.16,0,0,0,3.72-3.6,12,12,0,0,0,1.47-6.24A11.88,11.88,0,0,0,400.4,175a9,9,0,0,0-3.72-3.57,10.52,10.52,0,0,0-4.71-1.11,10.64,10.64,0,0,0-4.77,1.11,8.78,8.78,0,0,0-3.69,3.57,12.08,12.08,0,0,0-1.44,6.18,12.21,12.21,0,0,0,1.44,6.24,9,9,0,0,0,3.69,3.6,10.41,10.41,0,0,0,4.77,1.14A10.29,10.29,0,0,0,396.68,191Z"/><path d="M420.55,195.2a14.34,14.34,0,0,1-5.4-5.52,18.45,18.45,0,0,1,0-17,14.34,14.34,0,0,1,5.4-5.52,14.07,14.07,0,0,1,7.05-1.89,13.79,13.79,0,0,1,10.26,4.56v-14.7a2.63,2.63,0,0,1,.81-2,2.71,2.71,0,0,1,1.95-.78,2.56,2.56,0,0,1,1.92.81,2.71,2.71,0,0,1,.78,2v38.94a2.66,2.66,0,0,1-2.7,2.7,2.71,2.71,0,0,1-1.95-.78,2.56,2.56,0,0,1-.81-1.92v-1.56a13.79,13.79,0,0,1-10.26,4.56A14.07,14.07,0,0,1,420.55,195.2Zm13-4.44a14.82,14.82,0,0,0,4.29-3.27v-12.6a14.82,14.82,0,0,0-4.29-3.27,11.33,11.33,0,0,0-5.19-1.23,9.43,9.43,0,0,0-7.14,2.82q-2.7,2.82-2.7,8t2.7,8a9.43,9.43,0,0,0,7.14,2.82A11.33,11.33,0,0,0,433.57,190.76Z"/><path d="M458.41,195.2a14.34,14.34,0,0,1-5.4-5.52,18.45,18.45,0,0,1,0-17,14.34,14.34,0,0,1,5.4-5.52,14.07,14.07,0,0,1,7-1.89,13.79,13.79,0,0,1,10.26,4.56v-14.7a2.63,2.63,0,0,1,.81-2,2.71,2.71,0,0,1,2-.78,2.56,2.56,0,0,1,1.92.81,2.71,2.71,0,0,1,.78,2v38.94a2.66,2.66,0,0,1-2.7,2.7,2.71,2.71,0,0,1-2-.78,2.56,2.56,0,0,1-.81-1.92v-1.56a13.79,13.79,0,0,1-10.26,4.56A14.07,14.07,0,0,1,458.41,195.2Zm13-4.44a14.82,14.82,0,0,0,4.29-3.27v-12.6a14.82,14.82,0,0,0-4.29-3.27,11.33,11.33,0,0,0-5.19-1.23,9.43,9.43,0,0,0-7.14,2.82q-2.7,2.82-2.7,8t2.7,8a9.43,9.43,0,0,0,7.14,2.82A11.33,11.33,0,0,0,471.43,190.76Z"/><path d="M491.05,195.68a3.23,3.23,0,0,1-1-2.37V193a3.38,3.38,0,0,1,3.36-3.36h.6a3.38,3.38,0,0,1,3.36,3.36v.36a3.38,3.38,0,0,1-3.36,3.36h-.6A3.23,3.23,0,0,1,491.05,195.68Z"/><path class="cls-3" d="M1664.18,787.67c.25-.75.48-1.51.69-2.26-.49,1.43-1,2.87-1.48,4.31C1663.66,789,1663.92,788.35,1664.18,787.67Zm-223.62,215a29.45,29.45,0,0,1-10.28-2.08l-2.36-.86c-6.84-2.49-12.84-10.13-13.36-17.44l-.15-2.07a30.85,30.85,0,0,1,.83-11.48,83.9,83.9,0,0,1,3.13-9.59c2-4.62,4.12-9.2,6.3-13.75,3.48-7.32,6.49-14.76,9.27-22.34l1.71-5.15c1.15-3.49,2.41-6.92,3.67-10.36a37,37,0,0,1,1.41-3.86q3.55-7.08,7.12-14.19c.5-1,1.2-1.9,1.79-2.83,1-1.58,2-3.17,3-4.75,7-11.07,15.42-21.12,23.14-31.67,8.62-13.49,16.33-27.54,23.69-41.76,6.58-14.24,12.64-28.72,18.36-43.32,3.57-11,6.7-22.1,10-33.16,1.9-6.32,3.84-12.63,5.29-19.07q1.86-8.25,3.65-16.53c.73-4,1.38-8.06,1.91-12.15.38-2.93.64-5.87.87-8.82.16-3.89.32-7.78.32-11.67,0-3.39-.1-6.74-.27-10.11-.63-7.12-1.24-14.25-2-21.36-.48-4.51-1-9-1.62-13.5-.34-2.42-.77-4.81-1.23-7.21-1.72-6.85-3.58-13.67-5.17-20.56-1.22-5.29-2.21-10.63-3.2-16-.52-2.81-.9-5.67-1.45-8.48s-1.19-5.79-1.78-8.69c.37,1.82.75,3.64,1.12,5.47a130.75,130.75,0,0,0-3.74-13.27c-1.29-3.46-2.6-6.9-4-10.32-1.68-4.06-3.52-8-5.36-12-3.87-7.59-7.82-15.16-11.4-22.89-3.46-7.47-6.87-15-10.37-22.4-2.71-5.16-5.49-10.25-8.5-15.24-3.6-6-7.25-11.9-11-17.76l-6.08-9c-5-7.36-10-14.68-15.36-21.81-4.67-6.24-9.65-12.27-14.7-18.21-8.81-9.45-17.86-18.67-26.54-28.26a91,91,0,0,1-7.89-9.61c-1.82-2.65-3.83-5.14-5.82-7.67-3.43-4.33-7-8.57-10.35-12.94a28.2,28.2,0,0,1-7.88-23.27c1.6-11.72,10.91-20.66,22-23.86,4-1.17,8.21-1.93,12.36-2.71,3.56-.67,7.14-1.33,10.73-1.84,7.29-1,14.58-1.84,21.89-2.68,8.24-.95,16.46-1.88,24.76-2.25,7.25-.32,14.52-.56,21.78-.65,10.37-.12,20.75.25,30.9,2.6,3.66.85,7.27,1.67,10.85,2.81,5.42,1.72,10.76,3.63,16.08,5.62,6.73,2.53,13.31,5.46,19.93,8.26,4.87,2.06,9.58,4.42,14.3,6.81a79.07,79.07,0,0,1,8.73,5l2.29,1.55,2.49,1.68.31.21-2-1.37,5,3.36.13.09,1.56,1h0l.41.27a190.72,190.72,0,0,1,19.49,15.68c2.51,2.22,5.11,4.37,7.48,6.75,3.71,3.72,7.26,7.51,10.63,11.56,9.6,11.52,17,24.67,25.1,37.28q4.68,6.87,9.36,13.73c3.14,4.61,6.18,9.28,9.23,13.95a88.68,88.68,0,0,1,4.79,8.15c4,7.93,8,15.87,11.62,24q4.76,10.76,9.58,21.46c5.84,12.92,12.19,25.63,18.24,38.44,3.17,6.7,6.2,13.45,9.25,20.2,1.91,4.25,3.61,8.62,5.17,13,2.22,6.26,4.42,12.52,6.1,19a209.22,209.22,0,0,1,5.56,30.34c.82,7.62,1.61,15.24,2.44,22.86.77,7.12,1.46,14.26,2.64,21.32,1.22,7.23,2.68,14.4,4.05,21.59,1.42,7.45,2.61,14.9,3.57,22.42,1.08,8.5,1.62,17.08,2.18,25.62.5,7.63.89,15.24,1,22.88.1,6.84-.18,13.68.08,20.51.29,7.48.73,15,1,22.43.3,9.57-.74,19.19-1.71,28.7-.18,1.72-.56,3.43-.84,5.12-.59,3.51-1.22,7-2,10.45-.47,2-.84,4-1.43,6a111.28,111.28,0,0,1-4.25,12.49c-1.69,3.91-3.62,7.72-5.6,11.48a170.68,170.68,0,0,1-9.4,14.73c-1.73,2.59-3.38,5.22-5.08,7.83-5.65,8.66-11.23,17.35-18.83,24.49-5.13,4.82-10.58,9.3-16,13.86l-7.75,6.84c-1.63,1.42-3.22,2.9-4.92,4.23a123.15,123.15,0,0,1-10.84,7.59c-1.45.9-2.9,1.84-4.42,2.63-7.91,4.1-15.81,8.28-23.83,12.16-6.47,3.13-13,6-19.67,8.56-5.46,2.1-10.92,4.14-16.28,6.47-5.1,2.68-10.2,5.42-15.46,7.72q-8.21,3.58-16.49,6.95a210.34,210.34,0,0,1-21.85,7.55,80.91,80.91,0,0,1-13.52,2.61c-3.53.37-7,.34-10.52.4-3.26.34-6.5.63-9.8.84a46.18,46.18,0,0,1-20.54-3.5l-.8-.34c-2.69,1.64-5.57,3-8.35,4.46-4.46,2.35-9,4.26-13.65,6.23-3.12,1.32-6.6,2.26-9.84,3.3-1.23.39-2.45.83-3.69,1.18-3.1.85-6.18,1.74-9.3,2.51a95.8,95.8,0,0,1-13.91,2.83l-3.24.3C1443.12,1002.51,1441.77,1002.66,1440.56,1002.66Z"/><path d="M1447.91,990.39c3.39-.1,6.78-.2,10.16-.41l6.39-.4c2.09-.13,4.16-.44,6.24-.68,3.35-.39,6.7-1,10-1.53,5.44-.93,10.9-1.69,16.33-2.67s11-1.93,16.48-3l1.06-.22,2.13-.43.44-.1.74-.15.77-.15.76-.16-.23,0,1.84-.38.3-.06.72-.14.49-.1c.3-.06.59-.13.89-.21l3-.74,6-1.49c1.84-.46,3.66-1,5.5-1.54,1.44-.41,2.89-.81,4.33-1.23,7.3-2.12,14.61-4.22,21.77-6.77l6.76-2.41c1.25-.44,2.46-1,3.68-1.49,3.28-1.38,6.58-2.72,9.82-4.2s6.77-3,10.12-4.65l11.32-5.42c6.84-3.29,13.64-6.67,20.45-10,1.48-.72,2.93-1.53,4.4-2.31l5.44-2.89c1.09-.58,2.13-1.25,3.19-1.88s2.1-1.29,3.15-1.94c2-1.23,3.87-2.54,5.77-3.86,2.08-1.44,4.09-3,6.09-4.53,1.18-.92,2.37-1.84,3.52-2.8q9.42-7.89,18.77-15.84c2.92-2.48,5.82-5,8.73-7.49s5.68-5.18,8.5-7.78c1-.92,1.93-1.94,2.88-2.93,1.39-1.45,2.87-2.85,4.17-4.4l7.92-9.43c.64-.75,1.23-1.56,1.83-2.34l5-6.4c1.26-1.62,2.53-3.24,3.79-4.87.72-.92,1.38-1.89,2-2.85,2.23-3.16,4.49-6.29,6.59-9.53l4-6.15c2.1-3.25,4-6.61,5.8-10a88.63,88.63,0,0,0,5.24-12.29c.9-2.62,1.7-5.25,2.45-7.91q1.53-5.38,3-10.76c1-3.48,2-7,3-10.43l2-6.67c.44-1.48.81-3,1.21-4.45.51-1.93,1.11-3.85,1.5-5.8l1.23-6.07c.29-1.42.66-2.85.86-4.29q.51-3.54,1-7.09c.19-1.37.44-2.75.57-4.13.22-2.22.43-4.45.64-6.66.33-3.34.64-6.67.9-10q.32-3.84.61-7.69c.11-1.38.24-2.77.32-4.15q.35-6.71.7-13.39c0-.92,0-1.84,0-2.76,0-2.69,0-5.39,0-8.08,0-1.58,0-3.17-.07-4.74l-.36-5.1c-.18-2.44-.35-4.87-.53-7.3-.07-1-.15-2-.3-3q-1-6.78-1.94-13.55c-.15-1-.4-2-.61-3-.55-2.61-1.1-5.23-1.64-7.84-.6-2.84-1.2-5.69-1.82-8.53q-2.52-11.58-5.06-23.17-1.27-5.81-2.54-11.62c-.55-2.5-1.18-5-1.78-7.47s-1.24-5-1.9-7.44c-1.41-5.28-3.14-10.46-5-15.59-.91-2.52-1.85-5-2.92-7.49l-3-6.72c-1-2.26-2-4.51-3-6.77-.39-.9-.77-1.81-1.19-2.7-3.12-6.6-6.19-13.23-9.39-19.79l-6.59-13.49c-1.29-2.65-2.66-5.25-4-7.86q-1.76-3.35-3.52-6.67c-.48-.91-.94-1.83-1.45-2.72l-7.09-12.47c-3.52-6.18-7.22-12.26-10.86-18.38-3.47-5.86-7-11.7-10.43-17.57q-3.72-6.25-7.43-12.54c-1.65-2.79-3.41-5.52-5.12-8.28l-3.74-6c-1.31-2.11-2.7-4.18-4.1-6.24q-4.23-6.27-8.9-12.25c-3.18-4.06-6.55-8-10-11.8s-7.38-7.56-11.18-11.22c-1.25-1.2-2.53-2.38-3.81-3.56l-10.14-9.4c-2.58-2.4-5.22-4.75-7.82-7.12-2.31-2.08-4.57-4.22-7-6.23l-10.54-8.92c-.81-.69-1.67-1.32-2.5-2l-6.53-5.1c-2.72-2.13-5.53-4.13-8.34-6.16l-4.85-3.5c-1.1-.8-2.29-1.5-3.44-2.23l-6.26-4c-.94-.61-1.87-1.18-2.84-1.73l-6.45-3.61c-1.34-.75-2.66-1.55-4-2.24l-11.5-5.74c-.88-.44-1.76-.84-2.65-1.24l-7.38-3.31c-3.3-1.49-6.69-2.78-10-4.11s-6.84-2.43-10.28-3.59c-1.36-.46-2.78-.76-4.18-1.13-1.6-.42-3.2-.93-4.82-1.23l-6.46-1.19c-1.52-.28-3-.45-4.57-.63-1.73-.21-3.45-.47-5.19-.62l-6.87-.58c-3.39-.3-6.79-.48-10.19-.7-2-.13-4-.11-6-.16-1.73-.05-3.44,0-5.16,0-3.58,0-7.16.09-10.73.22-1.85.06-3.7.13-5.55.24-1.28.08-2.54.2-3.81.36a11.19,11.19,0,0,0-1.7.36,2.45,2.45,0,0,0-.57.32.77.77,0,0,0,.09,1.35,2.34,2.34,0,0,0,.5.14l.29.07a.72.72,0,0,0,.83-.41c.26,0,.53-.05.8-.06h-.12c2.88-.16,5.76-.12,8.64-.09l7.5.11,3.15.08c1.27,0,2.54,0,3.81.1l7.94.45c4.08.4,8.16.79,12.23,1.27,1.82.22,3.64.4,5.44.68l7.26,1.12,7.85,1.74c.3.07.6.18.9.27l2.73.83,4.12,1.24,8,3c.75.28,1.48.62,2.22.94l5.19,2.23c4.62,2,9.13,4.25,13.68,6.43l9.6,5c.89.46,1.8.9,2.66,1.41l4.59,2.7c2.57,1.52,5.2,2.95,7.67,4.62l9.2,6.2,9.37,7.06c2.64,2,5.16,4.11,7.72,6.19l4.51,3.67c.87.71,1.7,1.49,2.54,2.23l8.87,7.79c4.69,4.41,9.42,8.77,14.07,13.22,8.38,8,16.93,15.91,24.62,24.62A211.17,211.17,0,0,1,1647,424.66l0-.06c1.71,2.53,3.42,5.06,5,7.67l3.54,5.85c1.82,3,3.7,6,5.46,9.05q5.64,9.76,11.29,19.52,6.15,10.59,12.32,21.18c1.48,2.55,3,5.08,4.42,7.65l7.17,12.83c1.08,1.93,2.07,3.9,3.08,5.86l4.46,8.62q3.74,7.71,7.44,15.44c2.06,4.26,4,8.57,6,12.86,1.14,2.44,2.28,4.89,3.43,7.33.72,1.55,1.36,3.15,2,4.71l4.26,9.87,1.22,2.82c.37.84.67,1.73,1,2.59.72,1.9,1.4,3.82,2.07,5.73q2.71,8,4.73,16.15c1,3.95,1.93,7.93,2.77,11.91q1.6,7.56,3.2,15.13,2.32,11,4.63,22.1,1.46,7.34,2.92,14.67c.11.56.15,1.14.23,1.7.24,1.75.47,3.49.71,5.24.36,2.73.73,5.46,1.09,8.18.22,3.59.45,7.17.67,10.76.07,1,.18,2.06.17,3.09q0,3.14,0,6.25c0,2.22,0,4.43,0,6.65,0,1-.08,1.93-.14,2.9q-.35,5.85-.7,11.68c-.51,6-1,12.11-1.61,18.14-.24,2.34-.49,4.68-.73,7-.1,1-.17,1.92-.31,2.87q-.8,5.35-1.58,10.71c-.47,2.22-.93,4.44-1.4,6.66-.19.92-.39,1.85-.58,2.77s-.46,1.7-.69,2.54c-.59,2.16-1.13,4.35-1.79,6.5-.84,2.78-1.69,5.55-2.54,8.33-1.3,4.26-2.5,8.55-3.73,12.83-1.4,4.86-2.73,9.75-4.36,14.54a98.59,98.59,0,0,1-4,9.48,129.36,129.36,0,0,1-6.67,11.45q-2.2,3.42-4.43,6.82l-6.24,8.85c-.49.68-1,1.32-1.54,2l-4.49,5.74c-1.83,2.35-3.61,4.76-5.53,7l-7.3,8.67-3,3.15c-1,1-1.87,2.05-2.89,3l-7.34,6.76q-8.24,7.05-16.51,14.09c-2.54,2.17-5.11,4.31-7.67,6.45l-4.34,3.62c-1.63,1.36-3.34,2.64-5,3.92q-2.82,2.16-5.76,4.15c-3.64,2.41-7.35,4.7-11.21,6.74l-6.86,3.65q-15.94,7.83-32,15.51c-2.82,1.34-5.68,2.6-8.51,3.9-2.22,1-4.44,2-6.7,2.93l-5.65,2.36c-.73.3-1.44.6-2.18.87l-8.81,3.13c-2.9.92-5.79,1.91-8.71,2.76l-10.28,3c-3,.88-6.08,1.7-9.12,2.55-1.57.44-3.18.79-4.76,1.18l-4.7,1.16-1,.2-.7.15-1.89.38-1.37.28a5.6,5.6,0,0,0-.59.12l-1.78.37a3.29,3.29,0,0,0-.43.09c-1.94.39-3.89.74-5.83,1.1-3.62.68-7.23,1.33-10.85,2s-7.2,1.18-10.79,1.75c-3.42.54-6.83,1.15-10.25,1.67-1.62.25-3.24.53-4.87.71l-5.7.67-6.56.41c-2.26.14-4.53.19-6.79.28s-4.29.13-6.43.19c-.94,0-1.88,0-2.82,0s-2.11,0-3.17,0c-4.43-.14-8.86-.29-13.3-.42l-1.75,0,1.51-1.74c1.28-1.48,2.42-3.11,3.59-4.67s2.15-3,3.25-4.41c2.48-3.28,4.93-6.62,7.52-9.81,1.37-1.69,2.71-3.42,4.12-5.07l4.06-4.73q3.75-4.2,7.55-8.32c2.36-2.56,4.72-5.12,7-7.72,1.06-1.2,2.15-2.37,3.17-3.6,1.44-1.76,2.89-3.51,4.34-5.27,1.16-1.42,2.23-2.93,3.35-4.4,1-1.26,1.91-2.52,2.84-3.8q3.64-5.07,7.27-10.14c.82-1.16,1.66-2.3,2.53-3.43,1.14-1.5,2.24-3.06,3.45-4.51q3.93-4.71,7.84-9.43c1-1.16,1.86-2.35,2.76-3.55,1.12-1.48,2.26-2.94,3.28-4.48,1.17-1.78,2.35-3.55,3.52-5.32.3-.45.56-.94.83-1.41.73-1.25,1.46-2.5,2.18-3.76s1.43-2.53,2.11-3.82c.92-1.71,1.87-3.41,2.72-5.15,1.64-3.32,3.3-6.63,4.84-10,.85-1.87,1.69-3.74,2.54-5.6.77-1.69,1.44-3.43,2.15-5.14,1.49-3.55,2.9-7.13,4.31-10.72s2.64-7.1,3.94-10.66c.51-1.42,1-2.87,1.44-4.32.56-1.73,1.18-3.45,1.69-5.19.59-2,1.19-4.07,1.78-6.1.44-1.52.93-3,1.32-4.58.53-2,1-4.11,1.57-6.16s1-3.85,1.43-5.81q1.11-5.48,2.21-11c.11-.51.15-1,.23-1.56l.51-3.55q.45-3.21.92-6.4c.23-1.62.35-3.25.52-4.87.2-1.85.39-3.7.6-5.55l1.38-12c.44-3.82,1-7.63,1.46-11.44.44-3.5,1-7,1.56-10.5s1.24-6.71,1.69-10.08q.88-6.56,1.76-13.1c.15-1.13.18-2.29.27-3.42q.3-4.15.62-8.29c.11-1.36.3-2.74.31-4.1,0-2,0-3.89,0-5.84,0-2.3,0-4.61,0-6.91,0-1.24-.09-2.46-.18-3.69q-.27-3.81-.53-7.62c-.1-1.32-.12-2.67-.31-4l-1.77-12.26c-.19-1.35-.44-2.69-.66-4-.45-2.68-.89-5.37-1.33-8-.54-3.27-1-6.55-1.45-9.83-1.13-7.84-2.32-15.66-3.52-23.49-.17-1-.41-2.09-.63-3.13q-.86-4-1.7-7.94c-.26-1.19-.45-2.41-.78-3.57l-1.74-6.07c-1-3.32-1.88-6.66-2.89-10-1.15-3.77-2.35-7.53-3.46-11.32q-3.4-11.61-6.77-23.25c-1-3.45-2-6.89-3-10.32-1-3.27-2-6.49-3.12-9.72l-2-5.85c-.43-1.27-1-2.5-1.46-3.75l-2.94-7.22c-.48-1.17-.92-2.38-1.46-3.53q-2.85-6-5.69-11.95c-1.62-3.41-3.36-6.76-5-10.13-3.17-6.35-6.17-12.78-9.14-19.22q-2.13-4.63-4.3-9.23c-1.59-3.38-3.1-6.82-4.82-10.13-1.06-2-2.12-4.11-3.19-6.16l-1.59-3.08c-.24-.46-.46-.93-.72-1.37q-1.61-2.7-3.2-5.4c-.77-1.29-1.52-2.6-2.34-3.86-4.25-6.54-8.54-13.05-12.75-19.61s-8.32-13-12.46-19.47c-2-3.15-3.91-6.38-5.95-9.51l-4.29-6.6c-1.19-1.84-2.56-3.57-3.87-5.32l-1.92-2.61c-.44-.59-1-1.13-1.42-1.7q-2.13-2.56-4.27-5.12c-1.59-1.91-3.18-3.81-4.73-5.75-1.19-1.48-2.25-3-3.33-4.59-1.11-1.82-2.22-3.63-3.32-5.46s-2.29-3.74-3.58-5.51-2.69-3.67-4.21-5.38-3-3.48-4.74-5.06a5.25,5.25,0,0,0-2.87-1.42,5,5,0,0,0-4.66,8c1,1.2,2.08,2.36,3.13,3.52s1.93,2.28,2.86,3.44,1.83,2.46,2.71,3.71,1.64,2.58,2.41,3.89c1,1.63,1.9,3.25,2.87,4.87.87,1.46,1.85,2.84,2.8,4.25s2.22,3,3.35,4.48,2.41,3,3.62,4.45l3.43,4.23c2.21,2.72,4.2,5.59,6.26,8.42,1.79,2.79,3.6,5.57,5.33,8.39q3,5,6.14,10c4.13,6.58,8.3,13.13,12.44,19.71,3.84,6.1,7.76,12.16,11.64,18.24,1,1.59,1.9,3.27,2.85,4.9.79,1.35,1.64,2.68,2.36,4.08l5.27,10.3c2.69,5.79,5.41,11.57,8.06,17.39,1.23,2.69,2.44,5.39,3.71,8.07,1.59,3.34,3.13,6.72,4.78,10s3.42,6.91,5.14,10.37c1.4,2.83,2.73,5.71,4.08,8.57.78,1.63,1.55,3.26,2.33,4.9.38.81.69,1.65,1,2.48l4.41,10.85q1.86,5.55,3.71,11.12c1.13,3.38,2,6.83,3.06,10.26,1.93,6.59,3.81,13.19,5.74,19.77,1,3.39,2,6.78,3,10.15,1.12,3.66,2.3,7.31,3.36,11q1.89,6.59,3.77,13.18c.26.89.45,1.79.65,2.71.57,2.64,1.13,5.29,1.7,7.94l.6,2.8c.84,5.47,1.72,10.93,2.51,16.4.85,5.94,1.62,11.89,2.61,17.81q.91,5.6,1.84,11.18c.46,2.77.81,5.55,1.21,8.33l.66,4.54c.12.87.13,1.76.19,2.63.23,3.3.47,6.61.7,9.91l-.09,13.69q-.45,5.94-.91,11.88c-.07.94-.12,1.88-.25,2.82q-.48,3.66-1,7.32c-.25,1.93-.51,3.85-.77,5.78-.24,1.75-.59,3.49-.88,5.23-.67,3.93-1.27,7.87-1.85,11.82-1.1,7.37-1.94,14.77-2.79,22.17q-.64,5.6-1.24,11.2c-.14,1.31-.25,2.62-.44,3.93-.34,2.44-.7,4.88-1,7.32-.18,1.21-.35,2.42-.52,3.63-.11.77-.3,1.53-.45,2.29l-1.65,8.16c-1.22,4.84-2.39,9.7-3.79,14.49l-1.44,4.94c-.25.88-.48,1.78-.77,2.65l-2.52,7.72c-1.17,3.26-2.31,6.54-3.58,9.77-1.45,3.72-2.89,7.43-4.43,11.11l-2.37,5.68c-.79,1.9-1.71,3.77-2.56,5.66-1.5,3.31-3.12,6.56-4.73,9.82l-2.7,5.08c-.79,1.46-1.62,2.9-2.46,4.34s-1.53,2.74-2.39,4l-3.21,4.87c-1.5,2-2.94,4.08-4.54,6l-5.54,6.73c-1,1.22-2,2.45-3,3.67-.89,1.07-1.68,2.22-2.52,3.33-1.78,2.35-3.49,4.74-5.19,7.15s-3.31,4.66-5,7-3.43,4.65-5.17,7-3.56,4.49-5.36,6.71c-1.53,1.88-3.16,3.67-4.75,5.48-3.21,3.55-6.47,7.06-9.61,10.67-3.36,3.86-6.66,7.74-9.84,11.75s-6.1,8-9.06,12.06c-1.3,1.78-2.55,3.58-3.83,5.38-.69,1-1.39,1.95-2.11,2.91s-1.34,1.71-2,2.55q-1.69,1.86-3.46,3.67c-1.63,1.67-3.56,3.27-4.49,5.47a5.8,5.8,0,0,0,2.4,7.06,10.45,10.45,0,0,0,3.46,1.1c.87.16,1.74.3,2.62.43a88.87,88.87,0,0,0,10.45.69l10.53.34c1.55.05,3.1.08,4.65.08C1443.32,990.5,1445.62,990.45,1447.91,990.39Z"/><path d="M1654.53,593.34a27.17,27.17,0,0,0,4.66-.79,37.59,37.59,0,0,0,4.25-1.5c2.74-1.08,5.36-2.45,8.12-3.49.43-.14.87-.27,1.31-.38l1-.15h.39c.26,0,.52.06.78.11l.09,0a4.12,4.12,0,0,0,3.18-7.53,9.11,9.11,0,0,0-3.66-1.18,12.41,12.41,0,0,0-4.53.55,27.61,27.61,0,0,0-4.26,1.83c-1.25.61-2.48,1.27-3.72,1.9-1.57.76-3.17,1.47-4.81,2.07a22.4,22.4,0,0,1-2.27.62c-.82.14-1.63.25-2.46.32-.61,0-1.23,0-1.84,0s-1.29-.16-1.92-.28-1.23-.31-1.84-.51c-1-.37-1.92-.79-2.85-1.24a51.8,51.8,0,0,1-4.75-2.84,52.43,52.43,0,0,1-4.69-3.59,41.22,41.22,0,0,1-3.31-3.3c-.58-.67-1.12-1.37-1.64-2.09-.33-.51-.65-1-.94-1.56s-.34-.78-.5-1.18q-.1-.35-.18-.69c0-.22-.06-.44-.08-.66v0l0,.32v-.54c0-.51.12-1,.2-1.52a9.62,9.62,0,0,0,1.65-2.1c1-1.54,1.85-3.17,2.86-4.71.49-.68,1-1.33,1.52-2s1.06-1.1,1.63-1.62,1.29-1,2-1.52,1.59-1,2.42-1.42,1.41-.64,2.13-.91a32.74,32.74,0,0,1,3.23-.87,39.17,39.17,0,0,1,4.46-.6,49.53,49.53,0,0,1,5.17,0c1,.08,2,.19,3,.37a28.57,28.57,0,0,1,3,.84c1.86.68,3.64,1.5,5.44,2.33l-.29-.15a104.86,104.86,0,0,1,10.15,5.54,3.55,3.55,0,0,0,.31.23,2.21,2.21,0,0,0,2.69,0,2.24,2.24,0,0,0,.56-2.85,3.33,3.33,0,0,0-.94-.93,18.05,18.05,0,0,0-1.82-1.22l-2.32-1.45c-1.1-.69-2.22-1.35-3.34-2a64.87,64.87,0,0,0-11.64-5.74,25.11,25.11,0,0,0-5.44-1.09,45,45,0,0,0-6.46-.28,30.62,30.62,0,0,0-11.46,2.4,26,26,0,0,0-9.24,6.84,64.2,64.2,0,0,0-4.09,5.64,23.87,23.87,0,0,0-1.35,2.08,4.53,4.53,0,0,0-.56,2.74c0,.07,0,.14,0,.21,0,.56-.09,1.12-.11,1.68a18.05,18.05,0,0,0,0,3,17.69,17.69,0,0,0,3.32,7.72,38.28,38.28,0,0,0,5.72,6.28,63.12,63.12,0,0,0,7.17,5.54,34.57,34.57,0,0,0,7.69,4.08,22,22,0,0,0,7.3,1.26C1653.32,593.42,1653.93,593.39,1654.53,593.34Z"/><path d="M1572,599.26a28.07,28.07,0,0,0,6.36-1,26.32,26.32,0,0,0,6.13-2.67c4.8-2.76,8.29-7.1,11.72-11.33.44-.56.9-1.1,1.35-1.65a7.49,7.49,0,0,0,1.18-1.77,6.83,6.83,0,0,0,.43-2.58,14.72,14.72,0,0,0-.29-3.44,18.34,18.34,0,0,0-1.59-4,79.43,79.43,0,0,0-5-8.38,31.47,31.47,0,0,0-3.26-4.18,17.69,17.69,0,0,0-15.51-5.67c-1.65.13-3.29.27-4.94.47a24.18,24.18,0,0,0-4,.81,4.12,4.12,0,0,0-2.79,1.79,1.25,1.25,0,0,0,1.62,1.63h0l.58-.15c.67-.11,1.34-.2,2-.25,1.62-.08,3.24,0,4.87.06a46.33,46.33,0,0,1,5.38.59c.63.15,1.24.31,1.84.5s1,.41,1.53.64.94.54,1.4.83.85.63,1.26,1,.94.91,1.38,1.39c.65.78,1.27,1.59,1.85,2.43a99.22,99.22,0,0,1,5.28,9.16c.35.75.7,1.49,1,2.26l.12.43c.05.28.08.56.11.85s0,.69,0,1c-.46.57-1,1.1-1.43,1.65l-1.72,2a53.89,53.89,0,0,1-4,4.16c-.66.56-1.34,1.09-2,1.6s-1.44.89-2.19,1.28-1.51.68-2.29,1a19.71,19.71,0,0,1-2,.55,24,24,0,0,1-2.53.35c-.81,0-1.62,0-2.44,0s-1.55-.19-2.32-.33-1.66-.46-2.47-.73a29.25,29.25,0,0,1-2.7-1.16,4.68,4.68,0,0,0-4.18,8.35,17.86,17.86,0,0,0,5.44,2,25.71,25.71,0,0,0,5.8.64Z"/><path d="M1566.16,580.82a6.94,6.94,0,0,0,4.15-1.76,7.6,7.6,0,0,0,1.2-9.52,8.75,8.75,0,0,0-4.19-3.5,6.67,6.67,0,0,0-5.15-.11,6.48,6.48,0,0,0-2,1.38,5.91,5.91,0,0,0-1.48,2.62,9.43,9.43,0,0,0-.22,1.38c-.07.23-.13.45-.18.68a7.3,7.3,0,0,0,.44,4.33,7.64,7.64,0,0,0,6.9,4.52Z"/><path d="M1644,573l.45-.1a7.94,7.94,0,0,0,1.86-.54,3.48,3.48,0,0,0,1.67-4.84,4.11,4.11,0,0,0-.12-.61,7.11,7.11,0,0,0-.8-1.83,6.22,6.22,0,0,0-1.37-1.48,7.81,7.81,0,0,0-1.76-1.05,9.28,9.28,0,0,0-2.52-.81,5.28,5.28,0,0,0-4.26.74,5,5,0,0,0-1.35,1.56,4.24,4.24,0,0,0-.44,2.42,6.83,6.83,0,0,0,.5,1.9,6.75,6.75,0,0,0,1.26,1.79,7.88,7.88,0,0,0,1.75,1.39,10.61,10.61,0,0,0,2.14,1,4.71,4.71,0,0,0,2.21.53A6.81,6.81,0,0,0,1644,573Z"/><path d="M1676.18,554.21a6.1,6.1,0,0,0,.29-.57c.11-.24.19-.49.28-.73s.44-.77.67-1.15c.39-.52.77-1.06,1.2-1.57l.79-1a14.42,14.42,0,0,0,.89-1.17,7,7,0,0,0,.39-.65c.11-.22.21-.45.31-.67a1.37,1.37,0,1,0-2.62-.72c-.05.34-.09.67-.16,1l0-.16a14.15,14.15,0,0,1-.48,1.69c-.27.74-.55,1.47-.83,2.2-.13.33-.26.66-.38,1-.22.58-.42,1.17-.67,1.74a.28.28,0,0,0-.41.26.89.89,0,0,0,0,.22h0a.46.46,0,0,0,.3.36.22.22,0,0,0,.11,0A.3.3,0,0,0,1676.18,554.21Z"/><path d="M1669.6,550.49a1.81,1.81,0,0,0,.38-.64,1.19,1.19,0,0,0-.07-.89s0-.07,0-.1,0-.2,0-.3.11-.49.18-.73a9.52,9.52,0,0,1,.41-.92v0c.39-.73.86-1.41,1.24-2.14a10.55,10.55,0,0,0,.87-2.31,1.83,1.83,0,1,0-3.57-.73c0,.2,0,.4,0,.61,0-.05,0-.09,0-.14,0,.3-.08.61-.13.91s-.23.84-.37,1.26-.33.91-.49,1.37l.06-.17a13.23,13.23,0,0,0-.53,1.76,8.68,8.68,0,0,0-.17,1.76,1.17,1.17,0,0,0,0,.74,3.08,3.08,0,0,0,.16.38h0a1.19,1.19,0,0,0,.45.47,1.34,1.34,0,0,0,.65.17A1.32,1.32,0,0,0,1669.6,550.49Z"/><path d="M1660.39,543.78c.1-.91.12-1.83.15-2.75s.07-1.94.11-2.91c0-.6.11-1.19.18-1.78a1.7,1.7,0,1,0-3.39-.23c.1,2.16.12,4.33,0,6.49,0,.26-.06.51-.1.77a1.55,1.55,0,0,0,1.31,1.72h.2A1.53,1.53,0,0,0,1660.39,543.78Z"/><path d="M1652.63,544.33a2.5,2.5,0,0,0,.68-2,37.14,37.14,0,0,0-.68-4.33c-.33-1.61-.64-3.22-1.11-4.79a2.38,2.38,0,0,0-4.58,1.26c.35,1,.6,2.1.86,3.16l-.06-.3.42,2.12c.12.64.18,1.29.27,1.94,0,.42.06.84.07,1.26a2.43,2.43,0,0,0,4.13,1.72Z"/><path d="M1639.48,545.36a.65.65,0,0,0,.55-.72c-.07-.38-.12-.75-.22-1.11s-.19-.7-.28-1-.26-.93-.38-1.4-.32-1.14-.45-1.72-.23-1-.35-1.57-.22-1.24-.32-1.87a1.53,1.53,0,1,0-2.84,1c.19.31.39.62.57.94l.36.67c.22.48.45,1,.68,1.45s.43,1,.64,1.5c.41,1,.82,2,1.18,3l.15.45a.64.64,0,0,0,.63.49Z"/><path d="M1631.11,550.39a22.76,22.76,0,0,0-1.09-4c-.29-.89-.6-1.77-.91-2.66-.63-1.81-1.29-3.62-2-5.39a2.22,2.22,0,1,0-4,2c.32.58.62,1.17.93,1.77.53,1.18,1,2.37,1.52,3.58s.85,2.31,1.26,3.48l-.09-.24c.15.5.29,1,.4,1.52l0,.21a2,2,0,1,0,3.95-.22Z"/><path d="M1624.56,559.38a1.14,1.14,0,0,0,.74-1.53,3.2,3.2,0,0,0-.4-.63l-.8-1.08a23.23,23.23,0,0,1-1.28-2.22c-.43-.92-.81-1.88-1.18-2.84-.15-.46-.31-.92-.46-1.37l-.3-.86c-.14-.41-.24-.84-.36-1.26a1.42,1.42,0,1,0-2.67.93c.54,1.15,1,2.31,1.53,3.48a35.82,35.82,0,0,0,1.76,3.57c.32.58.68,1.13,1,1.68s.66.89,1,1.34a1.13,1.13,0,0,0,1.11.82A1.27,1.27,0,0,0,1624.56,559.38Z"/><path d="M1595.2,571.48c.28-.32.58-.64.87-1,.62-.67,1.21-1.37,1.8-2.07s1-1.18,1.42-1.78,1.12-1.47,1.67-2.21a1.77,1.77,0,1,0-3.11-1.55c0,.13-.08.27-.13.41-.24.65-.5,1.29-.78,1.93s-.53,1-.8,1.57-.56,1-.85,1.45-.57,1-.87,1.43c-.12.21-.25.41-.37.63a6.71,6.71,0,0,0-.42.85l-.06.17a.63.63,0,0,0,0,.31h0a.66.66,0,0,0,.56.56h.1C1594.63,572.24,1594.93,571.76,1595.2,571.48Z"/><path d="M1588.39,563.25a2.2,2.2,0,0,0,.35-.51,11.64,11.64,0,0,0,.48-1.09c.23-.6.43-1.23.63-1.84l1-2.83c.38-1,.78-2.05,1.17-3.07a1.65,1.65,0,1,0-3.15-.86c-.1,1.06-.28,2.09-.48,3.13-.39,1.66-.76,3.32-1.3,4.92-.09.24-.19.47-.28.7h0a1,1,0,0,0-.25.68,1.1,1.1,0,0,0,1.08,1.09h.05A1.12,1.12,0,0,0,1588.39,563.25Z"/><path d="M1583.08,555.13c0-.56,0-1.11,0-1.66l0-2c0-1.34.09-2.68.16-4,0-.41.09-.82.13-1.23s.09-.55.15-.82.09-.33.13-.5a1.85,1.85,0,1,0-3.56,0c.12.42.22.83.31,1.25s.16.94.2,1.41c.07.64.13,1.27.19,1.91.05.85.11,1.7.13,2.55,0,1,.09,2.07,0,3.1a1,1,0,1,0,2.07,0Z"/><path d="M1574.48,553.42a.81.81,0,0,0,.29-1.11.57.57,0,0,0-.12-.15c-.09-.6-.15-1.21-.21-1.82-.11-1.69-.22-3.39-.24-5.09a1.33,1.33,0,1,0-2.62.35c.13.47.26.94.37,1.41.19,1,.37,2,.55,3,.13.77.29,1.53.47,2.29a1.8,1.8,0,0,0,.54,1.09.9.9,0,0,0,.54.18A.92.92,0,0,0,1574.48,553.42Z"/><path d="M1566.21,553.84a2.39,2.39,0,0,0,.91-.19,2.11,2.11,0,0,0,1.23-1.61,2.07,2.07,0,0,0-.78-1.91l0,0c-.58-1.71-1.19-3.42-1.71-5.15a2.13,2.13,0,0,0-2.59-1.47,2.11,2.11,0,0,0-1.37,2.84c.69,1.5,1.27,3,1.84,4.59a10.66,10.66,0,0,0,.8,2,2,2,0,0,0,1.61,1Z"/><path d="M1593.84,751.94a29.08,29.08,0,0,0,8.19-1.75,17.05,17.05,0,0,0,3.78-2,15.26,15.26,0,0,0,2.86-2.64,4.66,4.66,0,0,0,1-3,4.86,4.86,0,0,0-1.42-3.42,5,5,0,0,0-2.77-1.38,4.75,4.75,0,0,0-3.62,1c-.59.52-1.21,1-1.85,1.45-.35.21-.7.42-1.06.61-.62.29-1.25.54-1.89.78-.83.27-1.66.5-2.5.69s-1.72.28-2.59.36l-.67,0c.12-.71.25-1.41.36-2.11.27-1.58.6-3.15.86-4.74.12-.73.29-1.48.36-2.23.07-.92.15-1.85.22-2.77s.07-1.9.09-2.85c0-.63,0-1.26,0-1.89q0-5.48,0-11c0-1.37.06-2.76.1-4.14,0-1.54,0-3.09.12-4.63.2-3.19.4-6.38.58-9.57.17-3.36.39-6.73.45-10.09s.13-6.7.14-10.05,0-6.49.1-9.73l.24-8.08.84-9.69c.08-.9.23-1.79.37-2.68l.9-6.15c.43-3,1-5.89,1.56-8.83.47-2.63,1-5.26,1.51-7.89l.3-1.47c.17-.81.35-1.6.59-2.38,0-.09.07-.18.11-.27a1.15,1.15,0,0,0,.59-1.14,2.41,2.41,0,0,0-.18-.65,1.11,1.11,0,0,0-2,0,17.13,17.13,0,0,0-.88,2.39c-.28,1-.46,2-.68,3l-.39,1.84c-.35,1.71-.72,3.41-1.07,5.12-.61,3-1.29,6.08-1.83,9.14l-1,5.82c-.21,1.2-.46,2.4-.61,3.61l-.72,5.94c-.16,1.4-.4,2.81-.49,4.21,0-.07,0-.14,0-.21-.25,3.69-.51,7.38-.75,11.07v0c-.22,3.32-.34,6.65-.51,10,0-.1,0-.18,0-.28l-.36,5.11c-.11,1.44-.16,2.9-.32,4.33-.35,3.21-.67,6.43-1.05,9.64-.41,3.39-.84,6.77-1.13,10.18-.16,1.87-.31,3.75-.47,5.62s-.21,3.59-.31,5.39l-.12,2.06c-.11,1.65-.17,3.32-.37,5-.14,1.1-.27,2.19-.41,3.28-.11.87-.33,1.74-.51,2.6,0-.08,0-.15,0-.22-1,4.14-2.15,8.27-3,12.46a4.76,4.76,0,0,0,.49,3.41,7.64,7.64,0,0,0,1.21,1.51,6.82,6.82,0,0,0,1.76,1.19,14.64,14.64,0,0,0,6.18,1.18C1592.77,752,1593.31,752,1593.84,751.94Z"/><path d="M1632,792.37a30.86,30.86,0,0,0,9.33-3.75,29.69,29.69,0,0,0,7.56-6.75,34.1,34.1,0,0,0,4.65-7.82c.55-1.26,1.13-2.5,1.72-3.75.23-.44.45-.88.7-1.31a7.09,7.09,0,0,0,.77-1.5,2.74,2.74,0,0,0-4.32-2.9,7,7,0,0,0-1.16,1.39c-.44.62-.86,1.27-1.25,1.92-1.14,1.87-2.23,3.77-3.42,5.61-.69,1-1.41,1.93-2.18,2.84s-1.63,1.71-2.51,2.51c-.75.62-1.52,1.21-2.32,1.76s-1.37.85-2.07,1.23a31.69,31.69,0,0,1-3.12,1.32c-1.17.37-2.35.69-3.55,1-1.43.25-2.87.42-4.32.54a50.25,50.25,0,0,1-5.35,0,71.89,71.89,0,0,1-7.15-1c-2.3-.49-4.6-1-6.85-1.69-.28-.11-.56-.22-.83-.35a5.22,5.22,0,1,0-2.74,10c2.8.27,5.58.78,8.35,1.17a73,73,0,0,0,8.72.76l1.17,0A47.74,47.74,0,0,0,1632,792.37Z"/><path d="M1669.29,773.78a6.8,6.8,0,0,0,5.16-2.86,5.17,5.17,0,0,0,1-3,5,5,0,0,0-5-5,4.89,4.89,0,0,0-2.42.64c-.64-.16-1.26-.35-1.88-.55-.8-.29-1.58-.6-2.35-1s-1.47-.82-2.18-1.27c-.54-.4-1.05-.81-1.56-1.25a31.55,31.55,0,0,1-2.25-2.23l-.66-.89c-.35-.55-.68-1.11-1-1.69s-.5-1.11-.71-1.68-.29-1-.41-1.47c-.13-.77-.2-1.55-.33-2.31a4.82,4.82,0,0,0-3.43-4.08,4.69,4.69,0,0,0-5.74,3.25c-.07.31-.14.62-.2.93a8.69,8.69,0,0,0,0,1.53,18.91,18.91,0,0,0,.4,2.9,21.31,21.31,0,0,0,1.76,5,25.7,25.7,0,0,0,2.9,4.61,27.23,27.23,0,0,0,4,4,30.48,30.48,0,0,0,9.32,5.23,15.36,15.36,0,0,0,5.21,1.17Z"/><path d="M310.36,772.44a29.74,29.74,0,0,1-11.95-3,24.16,24.16,0,0,1-5.14-3.35,43,43,0,0,1-4.47-4.58,41.35,41.35,0,0,1-4.47-6.44,42.25,42.25,0,0,1-3.54-8.55,70.51,70.51,0,0,1-2.07-8.49,39.57,39.57,0,0,1,2.81-22.29,54.12,54.12,0,0,1,3.69-7.58,57.77,57.77,0,0,1,9.18-10.81,46.14,46.14,0,0,1,7.77-6.38A21.08,21.08,0,0,1,308,688.6a23.77,23.77,0,0,1,6.77-.74A17.36,17.36,0,0,1,325.82,692a11.3,11.3,0,0,1,2.64,3.86,8.38,8.38,0,0,1,.59,2.08,2.86,2.86,0,0,1,0,1.09,2,2,0,0,0,0,.24h0c0,.21,0,.41,0,.61a.72.72,0,0,1-1.44,0c0-.21,0-.42,0-.63v0l0-.07a6.93,6.93,0,0,0-.43-.75h0v0h0l0-.07,0,.06a5.66,5.66,0,0,0-.43-.54l.1.12a6.63,6.63,0,0,0-.53-.53c-.3-.26-.61-.5-.93-.73l-.89-.54a.45.45,0,0,0,.12.06c-.83-.4-1.67-.77-2.53-1.1a21,21,0,0,0-2.06-.58,17.83,17.83,0,0,0-1.91-.25,21.89,21.89,0,0,0-2.43,0c-.81.07-1.63.18-2.44.33s-1.59.41-2.36.66-1.46.57-2.17.91-1.34.72-2,1.12c-.78.57-1.53,1.16-2.27,1.78-2,1.84-3.89,3.87-5.77,5.87a69,69,0,0,0-4.65,5.74c-.71,1.09-1.38,2.21-2,3.37-1,2.13-1.88,4.32-2.73,6.53l.18-.55a44.15,44.15,0,0,0-1.37,4.78c-.24,1.31-.41,2.61-.52,3.94a43.24,43.24,0,0,0,0,4.83,42.28,42.28,0,0,0,.67,4.47c.53,2.41,1.26,4.75,2,7.1a41,41,0,0,0,1.67,4c.5,1,1,1.86,1.59,2.77,1,1.37,1.94,2.71,3,4,.91,1,1.87,2,2.88,2.89.37.31.74.61,1.13.89.67.42,1.35.82,2.06,1.19s1.61.72,2.45,1,1.54.46,2.33.64c1,.18,1.93.3,2.9.39a63.47,63.47,0,0,0,6.47,0q1.26-.09,2.49-.3.75-.17,1.5-.39c.45-.17.9-.37,1.35-.57s1-.57,1.48-.89c.69-.49,1.35-1,2-1.56,1.46-1.34,2.83-2.78,4.15-4.24,1-1.14,1.87-2.29,2.74-3.5s1.37-2.29,2.12-3.4l-.34.51a1.4,1.4,0,0,1,.1-.16,4.73,4.73,0,0,1,8.65,3.64,17.53,17.53,0,0,1-2.33,4.35,33.55,33.55,0,0,1-2.77,3.72q-1.59,1.88-3.3,3.64a39.46,39.46,0,0,1-4.92,4.4,22.91,22.91,0,0,1-5.07,2.83,23.16,23.16,0,0,1-6.84,1.41c-1.26.1-2.53.14-3.79.14S311.53,772.5,310.36,772.44Z"/><path d="M339.25,731.47l.17.25c1.24,1.81,2.5,3.63,3.59,5.55,1.24,2.16,2.39,4.39,3.74,6.48.34.48.7.94,1.08,1.39a20.8,20.8,0,0,0,1.49,1.48c.7.59,1.43,1.14,2.18,1.67,1,.63,2,1.21,3,1.75.87.4,1.75.78,2.65,1.11.35.11.71.21,1.06.29s1,.16,1.48.21c.73,0,1.47,0,2.2,0,.56-.06,1.11-.14,1.67-.24a18.1,18.1,0,0,0,1.88-.52c.57-.21,1.11-.44,1.65-.69s.84-.48,1.24-.74,1.05-.78,1.56-1.2c.66-.6,1.28-1.22,1.87-1.87s1-1.27,1.48-1.92,1-1.59,1.43-2.42.8-1.77,1.14-2.69a31.48,31.48,0,0,0,.91-3.33c.28-1.45.45-2.91.62-4.38a72.92,72.92,0,0,0,.15-8,63.74,63.74,0,0,0-1-6.72,38.27,38.27,0,0,0-1.09-4,26.44,26.44,0,0,0-1-2.46c-.35-.68-.73-1.33-1.14-2-.57-.8-1.17-1.57-1.81-2.32a46,46,0,0,0-3.38-3.32c-1.25-1.1-2.53-2.18-3.8-3.27-1.82-1.55-3.65-3.06-5.6-4.43-.4-.25-.8-.49-1.22-.71s-.84-.38-1.26-.55c-.27-.08-.53-.16-.8-.22s-.58-.09-.87-.12c-.78,0-1.57,0-2.36,0-2.29.22-4.55.74-6.82,1.16a4.16,4.16,0,0,1-2.18-8l.35-.14a.36.36,0,0,0,0-.1l-.06-.12-.22-.18-.2-.1-.21-.08-.36-.1-.39-.06a3,3,0,0,0-.6,0l-.32.05-.33.1a4.34,4.34,0,0,0-.62.28l.13-.07-.33.2a4.84,4.84,0,0,0-.46.33,16,16,0,0,0-1.23,1.24c-.65.78-1.25,1.6-1.83,2.44a36,36,0,0,0-2.1,3.47c-.29.58-.54,1.17-.77,1.77s-.34,1.13-.47,1.72a34.4,34.4,0,0,0-.47,3.51c-.08,1.2-.16,2.39-.17,3.59,0,1.47,0,2.93,0,4.41.08,2.49.22,5,.35,7.49a41.07,41.07,0,0,0,.52,4.14c.15.65.33,1.29.53,1.92s.48,1.2.76,1.78c.88,1.66,1.91,3.22,2.93,4.8.54.78,1.08,1.56,1.61,2.35h0Zm16.27,29a31.71,31.71,0,0,1-15.7-10.59c-2-2.73-3.29-5.95-5-8.88-.83-1.43-1.68-2.83-2.56-4.22-.69-1.09-1.42-2.17-2.07-3.29a38.45,38.45,0,0,1-3.56-7.15,28.85,28.85,0,0,1-1.24-10.12c.09-3.2.27-6.38.53-9.57.05-.6.14-1.2.22-1.8s.17-1.33.3-2a33.55,33.55,0,0,1,2.3-8,22.11,22.11,0,0,1,3.56-5h0a33.64,33.64,0,0,1,4.41-4.36,6.84,6.84,0,0,1,4.62-1.64,4.43,4.43,0,0,1,3.21,1.63,2.58,2.58,0,0,1,.28.58,26.15,26.15,0,0,1,7.43-1.86,19,19,0,0,1,6.34.45,19.29,19.29,0,0,1,6,2.93c2.22,1.54,4.27,3.28,6.33,5s4.2,3.56,6.15,5.51a30.54,30.54,0,0,1,6.85,10.16,56.32,56.32,0,0,1,3.22,18c0,1.59-.08,3.17-.17,4.76-.12,1.78-.28,3.56-.57,5.32a34.16,34.16,0,0,1-4.33,12,28.17,28.17,0,0,1-8.22,8.82,23.46,23.46,0,0,1-12,3.91l-1,0A22.59,22.59,0,0,1,355.52,760.49Z"/><path d="M356.74,743a6,6,0,0,1-4.59-2.63,7.34,7.34,0,0,1-.48-.71,5.43,5.43,0,0,1-1.31-3.44,5.57,5.57,0,0,1,2.09-4.53,8.54,8.54,0,0,1,2.07-1.09l.36-.1.45-.16a6.41,6.41,0,0,1,1.74-.24,4.86,4.86,0,0,1,2.9.83,6.17,6.17,0,0,1,1.75,1.17,6,6,0,0,1,1.93,4.41,6.82,6.82,0,0,1-6.88,6.49Z"/><path d="M308.1,753.19a4.52,4.52,0,0,1-2.65-1.43,8.4,8.4,0,0,1-1.08-.91,5.9,5.9,0,0,1-1.17-1.75,8,8,0,0,1-.37-4,4.17,4.17,0,0,1,1.46-2.7c.15-.54.33-1.07.53-1.61a8.92,8.92,0,0,1,1.74-2.67,5.39,5.39,0,0,1,1.13-.83,3.8,3.8,0,0,1,1.34-.49A6.1,6.1,0,0,1,312,737a5.25,5.25,0,0,1,.63.22,4,4,0,0,1,1.29.14,4.81,4.81,0,0,1,2.18,1.16,5.94,5.94,0,0,1,1.41,2.55,6.44,6.44,0,0,1,0,3.51,8.39,8.39,0,0,1-.06,2.18,7.1,7.1,0,0,1-3.57,4.85,10.66,10.66,0,0,1-3.15,1.15,4.9,4.9,0,0,1-2.07.51A3,3,0,0,1,308.1,753.19Z"/><path d="M339.84,840.41l-1.25-.07a19.27,19.27,0,0,1-3.37-.48,25.25,25.25,0,0,1-6.2-2.74c-1.39-.74-2.73-1.51-4-2.36s-2.78-1.89-4.11-2.92c-1.11-.85-2.15-1.8-3.22-2.7-.57-.47-1.12-.95-1.69-1.38l-.55-.33-.1,0-.2-.06h-.25l-.21.06-.57.23c-.3.17-.61.35-.9.54-.59.41-1.15.86-1.7,1.33-.71.65-1.37,1.33-2,2l.27-.31c-.51.58-1,1.16-1.51,1.77l-1,1.32c-.48.6-.92,1.24-1.43,1.81l-.26.33a2,2,0,0,1-2.09.7,2,2,0,0,1-1.43-1.64,11.67,11.67,0,0,1-.07-1.18,5.83,5.83,0,0,1,.27-1.43,16.15,16.15,0,0,1,.67-1.92c.43-1,.93-2,1.45-3a22.8,22.8,0,0,1,3.91-5.29,13.29,13.29,0,0,1,5.63-3.67,7.86,7.86,0,0,1,3.38-.12,10.24,10.24,0,0,1,3.59,1.39,27.37,27.37,0,0,1,3.17,2.32c1.36,1.07,2.75,2.09,4.18,3.08,1.07.69,2.13,1.38,3.24,2s2.27,1.2,3.4,1.79c.72.35,1.43.69,2.17,1,.26.08.52.16.78.22s.76.11,1.13.14c1.05,0,2.1.07,3.16,0l.35,0,.05,0,.14-.06c.25-.13.49-.28.73-.43s.76-.58,1.12-.88.49-.48.73-.73q1.47-1.73,2.76-3.58l.32-.51a5,5,0,0,1,2.27-2,4.78,4.78,0,0,1,6.26,6.26,20,20,0,0,1-2.25,3.45c-.42.56-.86,1.1-1.3,1.66a23.06,23.06,0,0,1-3,3.12,15.79,15.79,0,0,1-3.5,2.27,9.93,9.93,0,0,1-2.77.87c-.73.1-1.46.14-2.2.18H341Z"/></svg>