<svg id="Layer_1" data-name="Layer 1" xmlns="http://www.w3.org/2000/svg" viewBox="0 0 1920 1080"><defs><style>.cls-1{fill:#1a1a1a;opacity:0.8;}.cls-2{fill:#b3f4ff;}</style></defs><circle class="cls-1" cx="1440" cy="604" r="450"/><path d="M114.77,357.33a18.91,18.91,0,0,1-7.32-7.62,24.41,24.41,0,0,1,0-22.32,18.91,18.91,0,0,1,7.32-7.62,23.4,23.4,0,0,1,22,0,19.12,19.12,0,0,1,7.32,7.65,24.05,24.05,0,0,1,0,22.26,19.12,19.12,0,0,1-7.32,7.65,23.4,23.4,0,0,1-22,0Zm19.38-4.5a14.19,14.19,0,0,0,5.4-5.88,19.9,19.9,0,0,0,0-16.8,14.19,14.19,0,0,0-5.4-5.88,17.24,17.24,0,0,0-16.71,0,14.25,14.25,0,0,0-5.37,5.88,19.9,19.9,0,0,0,0,16.8,14.25,14.25,0,0,0,5.37,5.88,17.24,17.24,0,0,0,16.71,0Z"/><path d="M155.15,359a2.61,2.61,0,0,1-.78-1.92V318.15a2.71,2.71,0,0,1,.78-1.95,2.56,2.56,0,0,1,1.92-.81,2.77,2.77,0,0,1,2.76,2.76v15.66a19.94,19.94,0,0,1,4.92-4,12.42,12.42,0,0,1,6.24-1.5,10.37,10.37,0,0,1,5.73,1.56,10.14,10.14,0,0,1,3.72,4.26,13.6,13.6,0,0,1,1.29,5.94v17a2.56,2.56,0,0,1-.81,1.92,2.71,2.71,0,0,1-1.95.78,2.66,2.66,0,0,1-2.7-2.7V340.65q0-7.32-6.6-7.32a9.55,9.55,0,0,0-5.37,1.56,19.44,19.44,0,0,0-4.47,4.2v18A2.56,2.56,0,0,1,159,359a2.71,2.71,0,0,1-2,.78A2.61,2.61,0,0,1,155.15,359Z"/><path d="M211.52,372.81a2.59,2.59,0,0,1-.75-1.86,2.72,2.72,0,0,1,.18-1l3.9-10-11.28-27.48a3.07,3.07,0,0,1-.24-1.14,2.71,2.71,0,0,1,.78-2,2.56,2.56,0,0,1,1.92-.81,2.62,2.62,0,0,1,1.53.48,2.72,2.72,0,0,1,1,1.2l9.24,22.92,9.42-22.8a2.62,2.62,0,0,1,2.52-1.8,2.56,2.56,0,0,1,1.92.81,2.71,2.71,0,0,1,.78,2,2.88,2.88,0,0,1-.18,1l-16.38,39.36a2.7,2.7,0,0,1-2.52,1.86A2.44,2.44,0,0,1,211.52,372.81Z"/><path d="M240.56,355.92q-4.11-4.17-4.11-11.73a19.56,19.56,0,0,1,1.56-7.86,13.36,13.36,0,0,1,4.8-5.82,13.79,13.79,0,0,1,8-2.22,14,14,0,0,1,7.68,2.07,13.39,13.39,0,0,1,4.92,5.52,17,17,0,0,1,1.68,7.53,2.62,2.62,0,0,1-2.76,2.7H242a9.87,9.87,0,0,0,3.12,6.54q2.64,2.34,7.38,2.34a18,18,0,0,0,4.41-.48,18.32,18.32,0,0,0,3.69-1.38,2.38,2.38,0,0,1,1.08-.24,2.41,2.41,0,0,1,1.68.66,2.18,2.18,0,0,1,.72,1.68,2.59,2.59,0,0,1-1.56,2.22,18.74,18.74,0,0,1-10.5,2.64Q244.67,360.09,240.56,355.92Zm19.11-14.25a9.61,9.61,0,0,0-1.53-4.92,8.26,8.26,0,0,0-3.33-2.91,9.15,9.15,0,0,0-8,0,8.06,8.06,0,0,0-3.3,2.91,9.79,9.79,0,0,0-1.5,4.92Z"/><path d="M271.25,357.39a2.29,2.29,0,0,1-1-2,2.41,2.41,0,0,1,.66-1.68,2.18,2.18,0,0,1,1.68-.72,2.64,2.64,0,0,1,1.08.24,24.25,24.25,0,0,0,3.84,1.32,17.85,17.85,0,0,0,4.32.48q6.66,0,6.66-4.26a2.27,2.27,0,0,0-1.53-2.1,31.33,31.33,0,0,0-5-1.62,45.27,45.27,0,0,1-5.85-1.74,10.29,10.29,0,0,1-4-2.73,6.94,6.94,0,0,1-1.65-4.83,8.65,8.65,0,0,1,3-6.84q3-2.64,8.67-2.64a25,25,0,0,1,8.7,1.5,2.25,2.25,0,0,1,1.29.9,2.41,2.41,0,0,1,.45,1.38,2.35,2.35,0,0,1-.69,1.68,2.27,2.27,0,0,1-1.71.72,3.37,3.37,0,0,1-.78-.12,23,23,0,0,0-6.84-1.08,9.37,9.37,0,0,0-5.07,1.17,3.49,3.49,0,0,0-1.83,3,2.77,2.77,0,0,0,1.68,2.64,24,24,0,0,0,5.22,1.62,50,50,0,0,1,5.76,1.77,9.52,9.52,0,0,1,3.81,2.73,7.41,7.41,0,0,1,1.59,5,7.93,7.93,0,0,1-3,6.36q-3,2.52-8.55,2.52A22.32,22.32,0,0,1,271.25,357.39Z"/><path d="M300.62,368a1.78,1.78,0,0,1-.51-1.26,1.67,1.67,0,0,1,.9-1.5,6.85,6.85,0,0,0,2.28-2.1,6.41,6.41,0,0,0,.78-3.48h-.24a3.38,3.38,0,0,1-3.36-3.36V356a3.38,3.38,0,0,1,3.36-3.36h.6a3.38,3.38,0,0,1,3.36,3.36v3.54a9.65,9.65,0,0,1-4.92,8.76,1.89,1.89,0,0,1-1,.3A1.63,1.63,0,0,1,300.62,368Z"/><path d="M332.69,321.75a3,3,0,0,1-.9-2.16v-.24a3.07,3.07,0,0,1,3.06-3.06h.36a3.07,3.07,0,0,1,3.06,3.06v.24a3.07,3.07,0,0,1-3.06,3.06h-.36A3,3,0,0,1,332.69,321.75Zm.36,37.26a2.61,2.61,0,0,1-.78-1.92V331.35a2.71,2.71,0,0,1,.78-2,2.56,2.56,0,0,1,1.92-.81,2.67,2.67,0,0,1,2.76,2.76v25.74a2.56,2.56,0,0,1-.81,1.92,2.71,2.71,0,0,1-1.95.78A2.61,2.61,0,0,1,333.05,359Z"/><path d="M349,352.17v-18.6h-4.26a1.13,1.13,0,0,1-1.14-1.14,1.25,1.25,0,0,1,.54-1l8.16-8a1.51,1.51,0,0,1,1-.54,1.06,1.06,0,0,1,.81.36,1.2,1.2,0,0,1,.33.84v4.8h6.78a2.26,2.26,0,0,1,2.34,2.34,2.3,2.3,0,0,1-.66,1.65,2.22,2.22,0,0,1-1.68.69h-6.78v18.12q0,2.34,1.11,3a5.59,5.59,0,0,0,2.79.63,8.32,8.32,0,0,0,2.4-.36l.51-.12a3.27,3.27,0,0,1,.69-.06,2.11,2.11,0,0,1,1.5.63,2,2,0,0,1,.66,1.53,2.27,2.27,0,0,1-1.38,2.1,11.74,11.74,0,0,1-5,1.08Q349,360.09,349,352.17Z"/><path d="M369.68,330.33a1.78,1.78,0,0,1-.51-1.26,1.67,1.67,0,0,1,.9-1.5,6.85,6.85,0,0,0,2.28-2.1,6.41,6.41,0,0,0,.78-3.48h-.24a3.38,3.38,0,0,1-3.36-3.36v-.36a3.38,3.38,0,0,1,3.36-3.36h.6a3.38,3.38,0,0,1,3.36,3.36v3.54a9.65,9.65,0,0,1-4.92,8.76,1.89,1.89,0,0,1-1,.3A1.63,1.63,0,0,1,369.68,330.33Z"/><path d="M382.43,357.39a2.29,2.29,0,0,1-1-2,2.41,2.41,0,0,1,.66-1.68,2.18,2.18,0,0,1,1.68-.72,2.64,2.64,0,0,1,1.08.24,24.25,24.25,0,0,0,3.84,1.32,17.85,17.85,0,0,0,4.32.48q6.66,0,6.66-4.26a2.27,2.27,0,0,0-1.53-2.1,31.33,31.33,0,0,0-5-1.62,45.27,45.27,0,0,1-5.85-1.74,10.29,10.29,0,0,1-4-2.73,6.94,6.94,0,0,1-1.65-4.83,8.65,8.65,0,0,1,3-6.84q3-2.64,8.67-2.64a25,25,0,0,1,8.7,1.5,2.25,2.25,0,0,1,1.29.9,2.41,2.41,0,0,1,.45,1.38,2.35,2.35,0,0,1-.69,1.68,2.27,2.27,0,0,1-1.71.72,3.37,3.37,0,0,1-.78-.12,23,23,0,0,0-6.84-1.08,9.37,9.37,0,0,0-5.07,1.17,3.49,3.49,0,0,0-1.83,3,2.77,2.77,0,0,0,1.68,2.64,24,24,0,0,0,5.22,1.62,50,50,0,0,1,5.76,1.77,9.52,9.52,0,0,1,3.81,2.73,7.41,7.41,0,0,1,1.59,5,7.93,7.93,0,0,1-3,6.36q-3,2.52-8.55,2.52A22.32,22.32,0,0,1,382.43,357.39Z"/><path d="M430.76,359a8.52,8.52,0,0,1-3.57-3.15,8.68,8.68,0,0,1-1.32-4.77,8.41,8.41,0,0,1,3.51-7.08q3.51-2.64,10.29-2.64h7.26v-.48q0-4-1.95-5.7t-6.09-1.74a20.45,20.45,0,0,0-4.05.36,34,34,0,0,0-3.93,1.08,3.37,3.37,0,0,1-.78.12,2.13,2.13,0,0,1-1.56-.66,2.2,2.2,0,0,1-.66-1.62,2.31,2.31,0,0,1,1.56-2.28,26.39,26.39,0,0,1,10.38-2.16,13.55,13.55,0,0,1,7,1.68,10.56,10.56,0,0,1,4.2,4.35,12.65,12.65,0,0,1,1.35,5.79v17a2.56,2.56,0,0,1-.81,1.92,2.71,2.71,0,0,1-1.95.78,2.66,2.66,0,0,1-2.7-2.7v-1.56a15.07,15.07,0,0,1-11.28,4.56A11.15,11.15,0,0,1,430.76,359Zm12-5a14.18,14.18,0,0,0,4.14-3.21v-5h-6.54q-9.06,0-9.06,4.74A4.45,4.45,0,0,0,432.8,354q1.47,1.32,4.89,1.32A10.85,10.85,0,0,0,442.79,354Z"/><path d="M462.35,359a2.61,2.61,0,0,1-.78-1.92V331.35a2.71,2.71,0,0,1,.78-2,2.56,2.56,0,0,1,1.92-.81,2.77,2.77,0,0,1,2.76,2.76v2.46a19.94,19.94,0,0,1,4.92-4,12.42,12.42,0,0,1,6.24-1.5,10.37,10.37,0,0,1,5.73,1.56,10.14,10.14,0,0,1,3.72,4.26,13.6,13.6,0,0,1,1.29,5.94v17a2.56,2.56,0,0,1-.81,1.92,2.71,2.71,0,0,1-1.95.78,2.66,2.66,0,0,1-2.7-2.7V340.65q0-7.32-6.6-7.32a9.55,9.55,0,0,0-5.37,1.56,19.44,19.44,0,0,0-4.47,4.2v18a2.56,2.56,0,0,1-.81,1.92,2.71,2.71,0,0,1-2,.78A2.61,2.61,0,0,1,462.35,359Z"/><path d="M518.42,358.53a10.14,10.14,0,0,1-3.72-4.26,13.46,13.46,0,0,1-1.29-5.94v-17a2.56,2.56,0,0,1,.81-1.92,2.69,2.69,0,0,1,1.95-.78,2.66,2.66,0,0,1,2.7,2.7v16.44c0,4.88,2.19,7.32,6.6,7.32a9.59,9.59,0,0,0,5.37-1.56,19.64,19.64,0,0,0,4.47-4.2v-18a2.56,2.56,0,0,1,.81-1.92,2.71,2.71,0,0,1,2-.78,2.66,2.66,0,0,1,2.7,2.7V357a2.75,2.75,0,0,1-.78,2,2.59,2.59,0,0,1-1.92.81,2.77,2.77,0,0,1-2.76-2.76v-2.46a20.13,20.13,0,0,1-4.92,4,12.45,12.45,0,0,1-6.24,1.5A10.35,10.35,0,0,1,518.42,358.53Z"/><path d="M551,359a2.6,2.6,0,0,1-.77-1.92V331.35a2.7,2.7,0,0,1,.77-2,2.56,2.56,0,0,1,1.92-.81,2.7,2.7,0,0,1,2,.81,2.66,2.66,0,0,1,.81,2v2.46a19.72,19.72,0,0,1,4.91-4,12.42,12.42,0,0,1,6.24-1.5,10.35,10.35,0,0,1,5.73,1.56,10.14,10.14,0,0,1,3.72,4.26,13.6,13.6,0,0,1,1.29,5.94v17a2.56,2.56,0,0,1-.81,1.92,2.71,2.71,0,0,1-1.95.78,2.65,2.65,0,0,1-2.69-2.7V340.65q0-7.32-6.61-7.32a9.55,9.55,0,0,0-5.37,1.56,19.2,19.2,0,0,0-4.46,4.2v18a2.56,2.56,0,0,1-.81,1.92,2.75,2.75,0,0,1-2,.78A2.61,2.61,0,0,1,551,359Z"/><path d="M591.25,358.53a10.14,10.14,0,0,1-3.72-4.26,13.6,13.6,0,0,1-1.29-5.94v-17a2.56,2.56,0,0,1,.81-1.92,2.71,2.71,0,0,1,2-.78,2.66,2.66,0,0,1,2.7,2.7v16.44q0,7.32,6.6,7.32a9.55,9.55,0,0,0,5.37-1.56,19.44,19.44,0,0,0,4.47-4.2v-18a2.56,2.56,0,0,1,.81-1.92,2.71,2.71,0,0,1,1.95-.78,2.66,2.66,0,0,1,2.7,2.7V357a2.71,2.71,0,0,1-.78,2,2.56,2.56,0,0,1-1.92.81,2.77,2.77,0,0,1-2.76-2.76v-2.46a19.94,19.94,0,0,1-4.92,4,12.42,12.42,0,0,1-6.24,1.5A10.37,10.37,0,0,1,591.25,358.53Z"/><path d="M622.06,357.39a2.29,2.29,0,0,1-1-2,2.41,2.41,0,0,1,.66-1.68,2.18,2.18,0,0,1,1.68-.72,2.64,2.64,0,0,1,1.08.24,24.25,24.25,0,0,0,3.84,1.32,17.85,17.85,0,0,0,4.32.48q6.66,0,6.66-4.26a2.27,2.27,0,0,0-1.53-2.1,31.33,31.33,0,0,0-5-1.62,45.27,45.27,0,0,1-5.85-1.74,10.29,10.29,0,0,1-4-2.73,6.94,6.94,0,0,1-1.65-4.83,8.65,8.65,0,0,1,3-6.84q3-2.64,8.67-2.64a25,25,0,0,1,8.7,1.5,2.25,2.25,0,0,1,1.29.9,2.41,2.41,0,0,1,.45,1.38,2.35,2.35,0,0,1-.69,1.68,2.27,2.27,0,0,1-1.71.72,3.37,3.37,0,0,1-.78-.12,23,23,0,0,0-6.84-1.08,9.37,9.37,0,0,0-5.07,1.17,3.49,3.49,0,0,0-1.83,3,2.77,2.77,0,0,0,1.68,2.64,24,24,0,0,0,5.22,1.62,50,50,0,0,1,5.76,1.77,9.52,9.52,0,0,1,3.81,2.73,7.41,7.41,0,0,1,1.59,5,7.93,7.93,0,0,1-3,6.36q-3,2.52-8.55,2.52A22.32,22.32,0,0,1,622.06,357.39Z"/><path d="M656.59,358.53a10.14,10.14,0,0,1-3.72-4.26,13.6,13.6,0,0,1-1.29-5.94v-17a2.56,2.56,0,0,1,.81-1.92,2.71,2.71,0,0,1,2-.78,2.66,2.66,0,0,1,2.7,2.7v16.44q0,7.32,6.6,7.32a9.55,9.55,0,0,0,5.37-1.56,19.44,19.44,0,0,0,4.47-4.2v-18a2.56,2.56,0,0,1,.81-1.92,2.71,2.71,0,0,1,2-.78,2.66,2.66,0,0,1,2.7,2.7V357a2.71,2.71,0,0,1-.78,2,2.56,2.56,0,0,1-1.92.81,2.77,2.77,0,0,1-2.76-2.76v-2.46a19.94,19.94,0,0,1-4.92,4,12.42,12.42,0,0,1-6.24,1.5A10.37,10.37,0,0,1,656.59,358.53Z"/><path d="M691.33,359a8.52,8.52,0,0,1-3.57-3.15,8.68,8.68,0,0,1-1.32-4.77A8.41,8.41,0,0,1,690,344q3.51-2.64,10.29-2.64h7.26v-.48q0-4-2-5.7t-6.09-1.74a20.45,20.45,0,0,0-4.05.36,34,34,0,0,0-3.93,1.08,3.37,3.37,0,0,1-.78.12,2.13,2.13,0,0,1-1.56-.66,2.2,2.2,0,0,1-.66-1.62,2.31,2.31,0,0,1,1.56-2.28,26.39,26.39,0,0,1,10.38-2.16,13.55,13.55,0,0,1,7,1.68,10.56,10.56,0,0,1,4.2,4.35,12.65,12.65,0,0,1,1.35,5.79v17a2.56,2.56,0,0,1-.81,1.92,2.71,2.71,0,0,1-1.95.78,2.66,2.66,0,0,1-2.7-2.7v-1.56a15.07,15.07,0,0,1-11.28,4.56A11.15,11.15,0,0,1,691.33,359Zm12-5a14.18,14.18,0,0,0,4.14-3.21v-5H701q-9.06,0-9.06,4.74a4.45,4.45,0,0,0,1.47,3.48q1.47,1.32,4.89,1.32A10.85,10.85,0,0,0,703.36,354Z"/><path d="M722.92,359a2.61,2.61,0,0,1-.78-1.92V318.15a2.71,2.71,0,0,1,.78-1.95,2.56,2.56,0,0,1,1.92-.81,2.67,2.67,0,0,1,2.76,2.76v38.94a2.56,2.56,0,0,1-.81,1.92,2.71,2.71,0,0,1-1.95.78A2.61,2.61,0,0,1,722.92,359Z"/><path d="M108,424.17v-18.6h-4.26a1.13,1.13,0,0,1-1.14-1.14,1.25,1.25,0,0,1,.54-1l8.16-8a1.51,1.51,0,0,1,1-.54,1.06,1.06,0,0,1,.81.36,1.2,1.2,0,0,1,.33.84v4.8h6.78a2.26,2.26,0,0,1,2.34,2.34,2.3,2.3,0,0,1-.66,1.65,2.22,2.22,0,0,1-1.68.69h-6.78v18.12q0,2.34,1.11,3a5.59,5.59,0,0,0,2.79.63,8.32,8.32,0,0,0,2.4-.36l.51-.12a3.27,3.27,0,0,1,.69-.06,2.11,2.11,0,0,1,1.5.63,2,2,0,0,1,.66,1.53,2.27,2.27,0,0,1-1.38,2.1,11.74,11.74,0,0,1-5,1.08Q108,432.09,108,424.17Z"/><path d="M129.53,393.75a3,3,0,0,1-.9-2.16v-.24a3.07,3.07,0,0,1,3.06-3.06h.36a3.07,3.07,0,0,1,3.06,3.06v.24a3.07,3.07,0,0,1-3.06,3.06h-.36A3,3,0,0,1,129.53,393.75Zm.36,37.26a2.61,2.61,0,0,1-.78-1.92V403.35a2.71,2.71,0,0,1,.78-2,2.56,2.56,0,0,1,1.92-.81,2.67,2.67,0,0,1,2.76,2.76v25.74a2.56,2.56,0,0,1-.81,1.92,2.71,2.71,0,0,1-1.95.78A2.61,2.61,0,0,1,129.89,431Z"/><path d="M144.83,431a2.61,2.61,0,0,1-.78-1.92V403.35a2.71,2.71,0,0,1,.78-2,2.56,2.56,0,0,1,1.92-.81,2.77,2.77,0,0,1,2.76,2.76v2.46a15,15,0,0,1,4.05-4,11,11,0,0,1,6.15-1.56,9.33,9.33,0,0,1,5.76,1.8,10,10,0,0,1,3.42,4.38,12.09,12.09,0,0,1,11-6.18,9.11,9.11,0,0,1,5.61,1.68,10,10,0,0,1,3.33,4.32,14.44,14.44,0,0,1,1.08,5.52v17.28a2.56,2.56,0,0,1-.81,1.92,2.71,2.71,0,0,1-1.95.78,2.66,2.66,0,0,1-2.7-2.7v-16.2q0-3.9-1.38-5.73t-4.74-1.83a7.92,7.92,0,0,0-5.07,1.59,15.38,15.38,0,0,0-3.57,4.17v18a2.56,2.56,0,0,1-.81,1.92,2.71,2.71,0,0,1-1.95.78,2.66,2.66,0,0,1-2.7-2.7v-16.2q0-3.9-1.38-5.73t-4.74-1.83a7.92,7.92,0,0,0-5.07,1.59,15.38,15.38,0,0,0-3.57,4.17v18a2.56,2.56,0,0,1-.81,1.92,2.71,2.71,0,0,1-1.95.78A2.61,2.61,0,0,1,144.83,431Z"/><path d="M201.38,427.92q-4.11-4.17-4.11-11.73a19.56,19.56,0,0,1,1.56-7.86,13.36,13.36,0,0,1,4.8-5.82,13.79,13.79,0,0,1,8-2.22,14,14,0,0,1,7.68,2.07,13.39,13.39,0,0,1,4.92,5.52,17,17,0,0,1,1.68,7.53,2.62,2.62,0,0,1-2.76,2.7H202.79a9.87,9.87,0,0,0,3.12,6.54q2.64,2.34,7.38,2.34a18,18,0,0,0,4.41-.48,18.32,18.32,0,0,0,3.69-1.38,2.38,2.38,0,0,1,1.08-.24,2.41,2.41,0,0,1,1.68.66,2.18,2.18,0,0,1,.72,1.68,2.59,2.59,0,0,1-1.56,2.22,18.74,18.74,0,0,1-10.5,2.64Q205.49,432.09,201.38,427.92Zm19.11-14.25a9.61,9.61,0,0,0-1.53-4.92,8.26,8.26,0,0,0-3.33-2.91,9.15,9.15,0,0,0-8,0,8.06,8.06,0,0,0-3.3,2.91,9.79,9.79,0,0,0-1.5,4.92Z"/><path d="M249.11,393.75a3,3,0,0,1-.9-2.16v-.24a3.07,3.07,0,0,1,3.06-3.06h.36a3.07,3.07,0,0,1,3.06,3.06v.24a3.07,3.07,0,0,1-3.06,3.06h-.36A3,3,0,0,1,249.11,393.75Zm.36,37.26a2.61,2.61,0,0,1-.78-1.92V403.35a2.71,2.71,0,0,1,.78-2,2.56,2.56,0,0,1,1.92-.81,2.67,2.67,0,0,1,2.76,2.76v25.74a2.56,2.56,0,0,1-.81,1.92,2.71,2.71,0,0,1-2,.78A2.61,2.61,0,0,1,249.47,431Z"/><path d="M264.41,431a2.61,2.61,0,0,1-.78-1.92V403.35a2.71,2.71,0,0,1,.78-2,2.56,2.56,0,0,1,1.92-.81,2.77,2.77,0,0,1,2.76,2.76v2.46a19.94,19.94,0,0,1,4.92-4,12.42,12.42,0,0,1,6.24-1.5,10.37,10.37,0,0,1,5.73,1.56,10.14,10.14,0,0,1,3.72,4.26,13.6,13.6,0,0,1,1.29,5.94v17a2.56,2.56,0,0,1-.81,1.92,2.71,2.71,0,0,1-1.95.78,2.66,2.66,0,0,1-2.7-2.7V412.65q0-7.32-6.6-7.32a9.55,9.55,0,0,0-5.37,1.56,19.44,19.44,0,0,0-4.47,4.2v18a2.56,2.56,0,0,1-.81,1.92,2.71,2.71,0,0,1-1.95.78A2.61,2.61,0,0,1,264.41,431Z"/><path d="M317.57,424.17v-18.6h-4.26a1.13,1.13,0,0,1-1.14-1.14,1.25,1.25,0,0,1,.54-1l8.16-8a1.51,1.51,0,0,1,1-.54,1.06,1.06,0,0,1,.81.36,1.2,1.2,0,0,1,.33.84v4.8h6.78a2.26,2.26,0,0,1,2.34,2.34,2.3,2.3,0,0,1-.66,1.65,2.22,2.22,0,0,1-1.68.69H323v18.12q0,2.34,1.11,3a5.59,5.59,0,0,0,2.79.63,8.32,8.32,0,0,0,2.4-.36l.51-.12a3.27,3.27,0,0,1,.69-.06,2.11,2.11,0,0,1,1.5.63,2,2,0,0,1,.66,1.53,2.27,2.27,0,0,1-1.38,2.1,11.74,11.74,0,0,1-5,1.08Q317.57,432.09,317.57,424.17Z"/><path d="M339.47,431a2.61,2.61,0,0,1-.78-1.92V390.15a2.71,2.71,0,0,1,.78-1.95,2.56,2.56,0,0,1,1.92-.81,2.77,2.77,0,0,1,2.76,2.76v15.66a19.94,19.94,0,0,1,4.92-4,12.42,12.42,0,0,1,6.24-1.5,10.37,10.37,0,0,1,5.73,1.56,10.14,10.14,0,0,1,3.72,4.26,13.6,13.6,0,0,1,1.29,5.94v17a2.56,2.56,0,0,1-.81,1.92,2.71,2.71,0,0,1-1.95.78,2.66,2.66,0,0,1-2.7-2.7V412.65q0-7.32-6.6-7.32a9.55,9.55,0,0,0-5.37,1.56,19.44,19.44,0,0,0-4.47,4.2v18a2.56,2.56,0,0,1-.81,1.92,2.71,2.71,0,0,1-1.95.78A2.61,2.61,0,0,1,339.47,431Z"/><path d="M377.48,427.92q-4.11-4.17-4.11-11.73a19.56,19.56,0,0,1,1.56-7.86,13.36,13.36,0,0,1,4.8-5.82,13.79,13.79,0,0,1,8-2.22,14,14,0,0,1,7.68,2.07,13.39,13.39,0,0,1,4.92,5.52,17,17,0,0,1,1.68,7.53,2.62,2.62,0,0,1-2.76,2.7H378.89a9.87,9.87,0,0,0,3.12,6.54q2.64,2.34,7.38,2.34a18,18,0,0,0,4.41-.48,18.32,18.32,0,0,0,3.69-1.38,2.38,2.38,0,0,1,1.08-.24,2.41,2.41,0,0,1,1.68.66,2.18,2.18,0,0,1,.72,1.68,2.59,2.59,0,0,1-1.56,2.22,18.74,18.74,0,0,1-10.5,2.64Q381.59,432.09,377.48,427.92Zm19.11-14.25a9.61,9.61,0,0,0-1.53-4.92,8.26,8.26,0,0,0-3.33-2.91,9.15,9.15,0,0,0-8,0,8.06,8.06,0,0,0-3.3,2.91,9.79,9.79,0,0,0-1.5,4.92Z"/><path d="M425.56,431a2.6,2.6,0,0,1-.77-1.92V390.15a2.7,2.7,0,0,1,.77-1.95,2.56,2.56,0,0,1,1.92-.81,2.77,2.77,0,0,1,2.77,2.76v15.66a19.59,19.59,0,0,1,4.92-4,12.36,12.36,0,0,1,6.23-1.5,10.35,10.35,0,0,1,5.73,1.56,10.14,10.14,0,0,1,3.72,4.26,13.61,13.61,0,0,1,1.3,5.94v17a2.53,2.53,0,0,1-.82,1.92,2.71,2.71,0,0,1-1.95.78,2.65,2.65,0,0,1-2.69-2.7V412.65q0-7.32-6.61-7.32a9.55,9.55,0,0,0-5.37,1.56,19.2,19.2,0,0,0-4.46,4.2v18a2.56,2.56,0,0,1-.81,1.92,2.73,2.73,0,0,1-2,.78A2.61,2.61,0,0,1,425.56,431Z"/><path d="M461.74,393.75a3,3,0,0,1-.9-2.16v-.24a3.07,3.07,0,0,1,3.06-3.06h.36a3.07,3.07,0,0,1,3.06,3.06v.24a3.07,3.07,0,0,1-3.06,3.06h-.36A3,3,0,0,1,461.74,393.75ZM462.1,431a2.61,2.61,0,0,1-.78-1.92V403.35a2.71,2.71,0,0,1,.78-2,2.56,2.56,0,0,1,1.92-.81,2.67,2.67,0,0,1,2.76,2.76v25.74A2.56,2.56,0,0,1,466,431a2.71,2.71,0,0,1-2,.78A2.61,2.61,0,0,1,462.1,431Z"/><path d="M475.24,429.39a2.29,2.29,0,0,1-1-2,2.41,2.41,0,0,1,.66-1.68,2.18,2.18,0,0,1,1.68-.72,2.64,2.64,0,0,1,1.08.24,24.25,24.25,0,0,0,3.84,1.32,17.85,17.85,0,0,0,4.32.48q6.66,0,6.66-4.26a2.27,2.27,0,0,0-1.53-2.1,31.33,31.33,0,0,0-5-1.62,45.27,45.27,0,0,1-5.85-1.74,10.29,10.29,0,0,1-4-2.73,6.94,6.94,0,0,1-1.65-4.83,8.65,8.65,0,0,1,3-6.84q3-2.64,8.67-2.64a25,25,0,0,1,8.7,1.5,2.25,2.25,0,0,1,1.29.9,2.41,2.41,0,0,1,.45,1.38,2.35,2.35,0,0,1-.69,1.68,2.27,2.27,0,0,1-1.71.72,3.37,3.37,0,0,1-.78-.12,23,23,0,0,0-6.84-1.08,9.37,9.37,0,0,0-5.07,1.17,3.49,3.49,0,0,0-1.83,3,2.77,2.77,0,0,0,1.68,2.64,24,24,0,0,0,5.22,1.62,50,50,0,0,1,5.76,1.77,9.52,9.52,0,0,1,3.81,2.73,7.41,7.41,0,0,1,1.59,5,7.93,7.93,0,0,1-3,6.36q-3,2.52-8.55,2.52A22.32,22.32,0,0,1,475.24,429.39Z"/><path d="M506.62,424.17v-18.6h-4.26a1.13,1.13,0,0,1-1.14-1.14,1.25,1.25,0,0,1,.54-1l8.16-8a1.51,1.51,0,0,1,1-.54,1.06,1.06,0,0,1,.81.36,1.2,1.2,0,0,1,.33.84v4.8h6.78a2.26,2.26,0,0,1,2.34,2.34,2.3,2.3,0,0,1-.66,1.65,2.22,2.22,0,0,1-1.68.69h-6.78v18.12q0,2.34,1.11,3a5.59,5.59,0,0,0,2.79.63,8.32,8.32,0,0,0,2.4-.36l.51-.12a3.27,3.27,0,0,1,.69-.06,2.11,2.11,0,0,1,1.5.63,2,2,0,0,1,.66,1.53,2.27,2.27,0,0,1-1.38,2.1,11.74,11.74,0,0,1-5,1.08Q506.62,432.09,506.62,424.17Z"/><path d="M532.72,430.11a13.46,13.46,0,0,1-5.37-5.61,19.21,19.21,0,0,1,0-16.62,13.46,13.46,0,0,1,5.37-5.61,17.44,17.44,0,0,1,16.14,0,13.65,13.65,0,0,1,5.4,5.61,18.94,18.94,0,0,1,0,16.62,13.65,13.65,0,0,1-5.4,5.61,17.44,17.44,0,0,1-16.14,0ZM545.53,426a9.16,9.16,0,0,0,3.72-3.6,12,12,0,0,0,1.47-6.24,11.88,11.88,0,0,0-1.47-6.18,9,9,0,0,0-3.72-3.57,10.52,10.52,0,0,0-4.71-1.11,10.64,10.64,0,0,0-4.77,1.11,8.78,8.78,0,0,0-3.69,3.57,12.08,12.08,0,0,0-1.44,6.18,12.21,12.21,0,0,0,1.44,6.24,9,9,0,0,0,3.69,3.6,10.41,10.41,0,0,0,4.77,1.14A10.29,10.29,0,0,0,545.53,426Z"/><path d="M564.58,431a2.61,2.61,0,0,1-.78-1.92V403.35a2.71,2.71,0,0,1,.78-2,2.56,2.56,0,0,1,1.92-.81,2.77,2.77,0,0,1,2.76,2.76v2.58q4.2-5.64,9.42-5.64h.3a2.51,2.51,0,0,1,1.89.78,2.66,2.66,0,0,1,.75,1.92,2.42,2.42,0,0,1-.78,1.86,2.81,2.81,0,0,1-2,.72h-.3a10.23,10.23,0,0,0-5.28,1.41,12.16,12.16,0,0,0-4,3.87v18.24a2.56,2.56,0,0,1-.81,1.92,2.71,2.71,0,0,1-2,.78A2.61,2.61,0,0,1,564.58,431Z"/><path d="M591.79,444.81A2.59,2.59,0,0,1,591,443a2.72,2.72,0,0,1,.18-1l3.9-10-11.28-27.48a3.07,3.07,0,0,1-.24-1.14,2.71,2.71,0,0,1,.78-2,2.56,2.56,0,0,1,1.92-.81,2.62,2.62,0,0,1,1.53.48,2.72,2.72,0,0,1,1,1.2l9.24,22.92,9.42-22.8a2.62,2.62,0,0,1,2.52-1.8,2.56,2.56,0,0,1,1.92.81,2.71,2.71,0,0,1,.78,2,2.88,2.88,0,0,1-.18,1l-16.38,39.36a2.7,2.7,0,0,1-2.52,1.86A2.44,2.44,0,0,1,591.79,444.81Z"/><path d="M640,430.11a13.46,13.46,0,0,1-5.37-5.61,19.21,19.21,0,0,1,0-16.62,13.46,13.46,0,0,1,5.37-5.61,17.44,17.44,0,0,1,16.14,0,13.65,13.65,0,0,1,5.4,5.61,18.94,18.94,0,0,1,0,16.62,13.65,13.65,0,0,1-5.4,5.61,17.44,17.44,0,0,1-16.14,0ZM652.81,426a9.16,9.16,0,0,0,3.72-3.6,12,12,0,0,0,1.47-6.24,11.88,11.88,0,0,0-1.47-6.18,9,9,0,0,0-3.72-3.57,10.52,10.52,0,0,0-4.71-1.11,10.64,10.64,0,0,0-4.77,1.11,8.78,8.78,0,0,0-3.69,3.57,12.08,12.08,0,0,0-1.44,6.18,12.21,12.21,0,0,0,1.44,6.24,9,9,0,0,0,3.69,3.6,10.41,10.41,0,0,0,4.77,1.14A10.29,10.29,0,0,0,652.81,426Z"/><path d="M673.84,431a2.61,2.61,0,0,1-.78-1.92V405.57h-3.54a2.36,2.36,0,0,1-2.34-2.34,2.22,2.22,0,0,1,.69-1.68,2.3,2.3,0,0,1,1.65-.66h3.54v-3.48a12,12,0,0,1,1.29-5.91,8,8,0,0,1,3.36-3.36,9.49,9.49,0,0,1,4.35-1.05,11.51,11.51,0,0,1,5.22,1.2,2.59,2.59,0,0,1,1,.87,2.14,2.14,0,0,1,.39,1.23A2.23,2.23,0,0,1,688,392a2.09,2.09,0,0,1-1.56.69,5.69,5.69,0,0,1-1.38-.18q-1.44-.18-1.62-.18a5.26,5.26,0,0,0-3.69,1.14q-1.23,1.14-1.23,4.14v3.3H686a2.26,2.26,0,0,1,2.34,2.34,2.3,2.3,0,0,1-.66,1.65,2.22,2.22,0,0,1-1.68.69h-7.5v23.52a2.56,2.56,0,0,1-.81,1.92,2.71,2.71,0,0,1-2,.78A2.61,2.61,0,0,1,673.84,431Z"/><path d="M107,503a2.61,2.61,0,0,1-.78-1.92V475.35a2.71,2.71,0,0,1,.78-2,2.56,2.56,0,0,1,1.92-.81,2.77,2.77,0,0,1,2.76,2.76v2.46a15,15,0,0,1,4-4,11,11,0,0,1,6.15-1.56,9.33,9.33,0,0,1,5.76,1.8,10,10,0,0,1,3.42,4.38,12.09,12.09,0,0,1,11-6.18,9.11,9.11,0,0,1,5.61,1.68,10,10,0,0,1,3.33,4.32,14.44,14.44,0,0,1,1.08,5.52v17.28a2.56,2.56,0,0,1-.81,1.92,2.71,2.71,0,0,1-1.95.78,2.66,2.66,0,0,1-2.7-2.7v-16.2q0-3.9-1.38-5.73t-4.74-1.83a7.92,7.92,0,0,0-5.07,1.59,15.38,15.38,0,0,0-3.57,4.17v18a2.56,2.56,0,0,1-.81,1.92,2.71,2.71,0,0,1-1.95.78,2.66,2.66,0,0,1-2.7-2.7v-16.2q0-3.9-1.38-5.73t-4.74-1.83a7.92,7.92,0,0,0-5.07,1.59,15.38,15.38,0,0,0-3.57,4.17v18a2.56,2.56,0,0,1-.81,1.92,2.71,2.71,0,0,1-2,.78A2.61,2.61,0,0,1,107,503Z"/><path d="M164.18,503a8.52,8.52,0,0,1-3.57-3.15,8.68,8.68,0,0,1-1.32-4.77A8.41,8.41,0,0,1,162.8,488q3.51-2.64,10.29-2.64h7.26v-.48q0-4-1.95-5.7t-6.09-1.74a20.45,20.45,0,0,0-4.05.36,34,34,0,0,0-3.93,1.08,3.37,3.37,0,0,1-.78.12,2.13,2.13,0,0,1-1.56-.66,2.2,2.2,0,0,1-.66-1.62,2.31,2.31,0,0,1,1.56-2.28,26.39,26.39,0,0,1,10.38-2.16,13.55,13.55,0,0,1,7,1.68,10.56,10.56,0,0,1,4.2,4.35,12.65,12.65,0,0,1,1.35,5.79v17A2.56,2.56,0,0,1,185,503a2.71,2.71,0,0,1-1.95.78,2.66,2.66,0,0,1-2.7-2.7v-1.56a15.07,15.07,0,0,1-11.28,4.56A11.15,11.15,0,0,1,164.18,503Zm12-5a14.18,14.18,0,0,0,4.14-3.21v-5h-6.54q-9.06,0-9.06,4.74a4.45,4.45,0,0,0,1.47,3.48q1.47,1.32,4.89,1.32A10.85,10.85,0,0,0,176.21,498Z"/><path d="M195.77,503a2.61,2.61,0,0,1-.78-1.92V475.35a2.71,2.71,0,0,1,.78-2,2.56,2.56,0,0,1,1.92-.81,2.77,2.77,0,0,1,2.76,2.76v2.46a19.94,19.94,0,0,1,4.92-4,12.42,12.42,0,0,1,6.24-1.5,10.37,10.37,0,0,1,5.73,1.56,10.14,10.14,0,0,1,3.72,4.26,13.6,13.6,0,0,1,1.29,5.94v17a2.56,2.56,0,0,1-.81,1.92,2.71,2.71,0,0,1-1.95.78,2.66,2.66,0,0,1-2.7-2.7V484.65q0-7.32-6.6-7.32a9.55,9.55,0,0,0-5.37,1.56,19.44,19.44,0,0,0-4.47,4.2v18a2.56,2.56,0,0,1-.81,1.92,2.71,2.71,0,0,1-1.95.78A2.61,2.61,0,0,1,195.77,503Z"/><path d="M232.31,503a2.61,2.61,0,0,1-.78-1.92V462.15a2.71,2.71,0,0,1,.78-1.95,2.56,2.56,0,0,1,1.92-.81,2.77,2.77,0,0,1,2.76,2.76v24.54l14.28-13.2a2.76,2.76,0,0,1,1.8-.78,2.43,2.43,0,0,1,2,.78,2.87,2.87,0,0,1,.63,1.86,2.94,2.94,0,0,1-1,2l-8.64,7.74,10.86,14.4a2.63,2.63,0,0,1,.6,1.62,2.49,2.49,0,0,1-.78,1.92,2.81,2.81,0,0,1-2,.72,2.66,2.66,0,0,1-1.2-.3,3,3,0,0,1-1-.84l-10.32-14L237,493.35v7.74a2.56,2.56,0,0,1-.81,1.92,2.71,2.71,0,0,1-2,.78A2.61,2.61,0,0,1,232.31,503Z"/><path d="M264.65,465.75a3,3,0,0,1-.9-2.16v-.24a3.07,3.07,0,0,1,3.06-3.06h.36a3.07,3.07,0,0,1,3.06,3.06v.24a3.07,3.07,0,0,1-3.06,3.06h-.36A3,3,0,0,1,264.65,465.75ZM265,503a2.61,2.61,0,0,1-.78-1.92V475.35a2.71,2.71,0,0,1,.78-2,2.56,2.56,0,0,1,1.92-.81,2.67,2.67,0,0,1,2.76,2.76v25.74a2.56,2.56,0,0,1-.81,1.92,2.71,2.71,0,0,1-1.95.78A2.61,2.61,0,0,1,265,503Z"/><path d="M280,503a2.61,2.61,0,0,1-.78-1.92V475.35a2.71,2.71,0,0,1,.78-2,2.56,2.56,0,0,1,1.92-.81,2.77,2.77,0,0,1,2.76,2.76v2.46a19.94,19.94,0,0,1,4.92-4,12.42,12.42,0,0,1,6.24-1.5,10.37,10.37,0,0,1,5.73,1.56,10.14,10.14,0,0,1,3.72,4.26,13.6,13.6,0,0,1,1.29,5.94v17a2.56,2.56,0,0,1-.81,1.92,2.71,2.71,0,0,1-2,.78,2.66,2.66,0,0,1-2.7-2.7V484.65q0-7.32-6.6-7.32a9.55,9.55,0,0,0-5.37,1.56,19.44,19.44,0,0,0-4.47,4.2v18a2.56,2.56,0,0,1-.81,1.92,2.71,2.71,0,0,1-1.95.78A2.61,2.61,0,0,1,280,503Z"/><path d="M321.32,502.2a14.34,14.34,0,0,1-5.4-5.52,18.45,18.45,0,0,1,0-17,14.34,14.34,0,0,1,5.4-5.52,14.07,14.07,0,0,1,7.05-1.89,13.79,13.79,0,0,1,10.26,4.56v-14.7a2.63,2.63,0,0,1,.81-2,2.71,2.71,0,0,1,1.95-.78,2.56,2.56,0,0,1,1.92.81,2.71,2.71,0,0,1,.78,1.95v38.94a2.66,2.66,0,0,1-2.7,2.7,2.71,2.71,0,0,1-1.95-.78,2.56,2.56,0,0,1-.81-1.92v-1.56a13.79,13.79,0,0,1-10.26,4.56A14.07,14.07,0,0,1,321.32,502.2Zm13-4.44a14.82,14.82,0,0,0,4.29-3.27v-12.6a14.82,14.82,0,0,0-4.29-3.27,11.33,11.33,0,0,0-5.19-1.23,9.43,9.43,0,0,0-7.14,2.82q-2.7,2.82-2.7,8t2.7,8a9.43,9.43,0,0,0,7.14,2.82A11.33,11.33,0,0,0,334.34,497.76Z"/><path d="M354,502.68a3.23,3.23,0,0,1-1-2.37V500a3.38,3.38,0,0,1,3.36-3.36h.6a3.38,3.38,0,0,1,3.36,3.36v.36a3.38,3.38,0,0,1-3.36,3.36h-.6A3.23,3.23,0,0,1,354,502.68Z"/><path d="M108.05,647a2.61,2.61,0,0,1-.78-1.92v-37a2.71,2.71,0,0,1,.78-2,2.56,2.56,0,0,1,1.92-.81,2.77,2.77,0,0,1,2.76,2.76v37a2.56,2.56,0,0,1-.81,1.92,2.71,2.71,0,0,1-2,.78A2.61,2.61,0,0,1,108.05,647Z"/><path d="M124.43,640.17v-18.6h-4.26a1.13,1.13,0,0,1-1.14-1.14,1.25,1.25,0,0,1,.54-1l8.16-8a1.51,1.51,0,0,1,1-.54,1.06,1.06,0,0,1,.81.36,1.2,1.2,0,0,1,.33.84v4.8h6.78a2.26,2.26,0,0,1,2.34,2.34,2.3,2.3,0,0,1-.66,1.65,2.22,2.22,0,0,1-1.68.69h-6.78v18.12q0,2.34,1.11,3a5.59,5.59,0,0,0,2.79.63,8.32,8.32,0,0,0,2.4-.36l.51-.12a3.27,3.27,0,0,1,.69-.06,2.11,2.11,0,0,1,1.5.63,2,2,0,0,1,.66,1.53,2.27,2.27,0,0,1-1.38,2.1,11.74,11.74,0,0,1-5,1.08Q124.43,648.09,124.43,640.17Z"/><path d="M168.11,647.07a3.66,3.66,0,0,1-1.32-1.8l-8.52-25a3.23,3.23,0,0,1-.18-1,2.66,2.66,0,0,1,2.7-2.7,2.74,2.74,0,0,1,1.53.45,2.21,2.21,0,0,1,.93,1.17l7,23.1,7-22.56a3.08,3.08,0,0,1,5.88,0l7,22.56,7-23.1A2.21,2.21,0,0,1,198,617a2.74,2.74,0,0,1,1.53-.45,2.66,2.66,0,0,1,2.7,2.7,3.23,3.23,0,0,1-.18,1l-8.52,25a3.66,3.66,0,0,1-1.32,1.8,3.6,3.6,0,0,1-4.32,0,4,4,0,0,1-1.38-1.86l-6.36-19.86-6.36,19.86a4,4,0,0,1-1.38,1.86,3.6,3.6,0,0,1-4.32,0Z"/><path d="M209.09,609.75a3,3,0,0,1-.9-2.16v-.24a3.07,3.07,0,0,1,3.06-3.06h.36a3.07,3.07,0,0,1,3.06,3.06v.24a3.07,3.07,0,0,1-3.06,3.06h-.36A3,3,0,0,1,209.09,609.75Zm.36,37.26a2.61,2.61,0,0,1-.78-1.92V619.35a2.71,2.71,0,0,1,.78-2,2.56,2.56,0,0,1,1.92-.81,2.67,2.67,0,0,1,2.76,2.76v25.74a2.56,2.56,0,0,1-.81,1.92,2.71,2.71,0,0,1-1.95.78A2.61,2.61,0,0,1,209.45,647Z"/><path d="M224.39,647a2.61,2.61,0,0,1-.78-1.92V606.15a2.71,2.71,0,0,1,.78-1.95,2.56,2.56,0,0,1,1.92-.81,2.67,2.67,0,0,1,2.76,2.76v38.94a2.56,2.56,0,0,1-.81,1.92,2.71,2.71,0,0,1-1.95.78A2.61,2.61,0,0,1,224.39,647Z"/><path d="M239.33,647a2.61,2.61,0,0,1-.78-1.92V606.15a2.71,2.71,0,0,1,.78-1.95,2.56,2.56,0,0,1,1.92-.81,2.67,2.67,0,0,1,2.76,2.76v38.94a2.56,2.56,0,0,1-.81,1.92,2.71,2.71,0,0,1-1.95.78A2.61,2.61,0,0,1,239.33,647Z"/><path d="M274.55,643.53v1.56a2.56,2.56,0,0,1-.81,1.92,2.71,2.71,0,0,1-1.95.78,2.66,2.66,0,0,1-2.7-2.7V606.15a2.71,2.71,0,0,1,.78-1.95,2.56,2.56,0,0,1,1.92-.81,2.67,2.67,0,0,1,2.76,2.76v14.7a13.79,13.79,0,0,1,10.26-4.56,14.07,14.07,0,0,1,7.05,1.89,14.34,14.34,0,0,1,5.4,5.52,18.45,18.45,0,0,1,0,17,14.34,14.34,0,0,1-5.4,5.52,14.07,14.07,0,0,1-7.05,1.89A13.79,13.79,0,0,1,274.55,643.53Zm16.62-3.36q2.7-2.82,2.7-8t-2.7-8a9.43,9.43,0,0,0-7.14-2.82,11.33,11.33,0,0,0-5.19,1.23,14.82,14.82,0,0,0-4.29,3.27v12.6a14.82,14.82,0,0,0,4.29,3.27A11.33,11.33,0,0,0,284,643,9.43,9.43,0,0,0,291.17,640.17Z"/><path d="M309.2,643.92q-4.11-4.17-4.11-11.73a19.56,19.56,0,0,1,1.56-7.86,13.36,13.36,0,0,1,4.8-5.82,13.79,13.79,0,0,1,8-2.22,14,14,0,0,1,7.68,2.07,13.39,13.39,0,0,1,4.92,5.52,17,17,0,0,1,1.68,7.53,2.62,2.62,0,0,1-2.76,2.7H310.61a9.87,9.87,0,0,0,3.12,6.54q2.64,2.34,7.38,2.34a18,18,0,0,0,4.41-.48,18.32,18.32,0,0,0,3.69-1.38,2.38,2.38,0,0,1,1.08-.24,2.41,2.41,0,0,1,1.68.66,2.18,2.18,0,0,1,.72,1.68,2.59,2.59,0,0,1-1.56,2.22,18.74,18.74,0,0,1-10.5,2.64Q313.31,648.09,309.2,643.92Zm19.11-14.25a9.61,9.61,0,0,0-1.53-4.92,8.26,8.26,0,0,0-3.33-2.91,9.15,9.15,0,0,0-8,0,8.06,8.06,0,0,0-3.3,2.91,9.79,9.79,0,0,0-1.5,4.92Z"/><path d="M356.93,609.75a3,3,0,0,1-.9-2.16v-.24a3.07,3.07,0,0,1,3.06-3.06h.36a3.07,3.07,0,0,1,3.06,3.06v.24a3.07,3.07,0,0,1-3.06,3.06h-.36A3,3,0,0,1,356.93,609.75Zm.36,37.26a2.61,2.61,0,0,1-.78-1.92V619.35a2.71,2.71,0,0,1,.78-2,2.56,2.56,0,0,1,1.92-.81,2.67,2.67,0,0,1,2.76,2.76v25.74a2.56,2.56,0,0,1-.81,1.92,2.73,2.73,0,0,1-2,.78A2.61,2.61,0,0,1,357.29,647Z"/><path d="M372.23,647a2.57,2.57,0,0,1-.78-1.92V619.35a2.67,2.67,0,0,1,.78-2,2.53,2.53,0,0,1,1.92-.81,2.77,2.77,0,0,1,2.76,2.76v2.46a19.59,19.59,0,0,1,4.92-4,12.39,12.39,0,0,1,6.23-1.5,10.35,10.35,0,0,1,5.73,1.56,10.17,10.17,0,0,1,3.73,4.26,13.6,13.6,0,0,1,1.29,5.94v17A2.56,2.56,0,0,1,398,647a2.73,2.73,0,0,1-2,.78,2.65,2.65,0,0,1-2.69-2.7V628.65c0-4.88-2.21-7.32-6.6-7.32a9.5,9.5,0,0,0-5.37,1.56,19,19,0,0,0-4.47,4.2v18a2.56,2.56,0,0,1-.81,1.92,2.73,2.73,0,0,1-2,.78A2.58,2.58,0,0,1,372.23,647Z"/><path d="M409.06,640.17v-18.6H404.8a1.13,1.13,0,0,1-1.13-1.14,1.23,1.23,0,0,1,.54-1l8.15-8a1.53,1.53,0,0,1,1-.54,1.06,1.06,0,0,1,.81.36,1.2,1.2,0,0,1,.33.84v4.8h6.78a2.27,2.27,0,0,1,2.35,2.34,2.31,2.31,0,0,1-.67,1.65,2.22,2.22,0,0,1-1.68.69h-6.78v18.12q0,2.34,1.11,3a5.59,5.59,0,0,0,2.79.63,8.32,8.32,0,0,0,2.4-.36l.51-.12a3.34,3.34,0,0,1,.69-.06,2.11,2.11,0,0,1,1.5.63,2,2,0,0,1,.67,1.53,2.28,2.28,0,0,1-1.39,2.1,11.71,11.71,0,0,1-5,1.08Q409.06,648.09,409.06,640.17Z"/><path d="M432,643.92c-2.75-2.78-4.11-6.69-4.11-11.73a19.39,19.39,0,0,1,1.56-7.86,13.29,13.29,0,0,1,4.8-5.82,13.76,13.76,0,0,1,8-2.22,14,14,0,0,1,7.68,2.07,13.39,13.39,0,0,1,4.92,5.52,17.1,17.1,0,0,1,1.68,7.53,2.71,2.71,0,0,1-.75,1.92,2.67,2.67,0,0,1-2,.78H433.43a9.82,9.82,0,0,0,3.12,6.54q2.64,2.34,7.38,2.34a18,18,0,0,0,4.41-.48,18.32,18.32,0,0,0,3.69-1.38,2.38,2.38,0,0,1,1.08-.24,2.43,2.43,0,0,1,1.68.66,2.18,2.18,0,0,1,.72,1.68,2.61,2.61,0,0,1-1.56,2.22,18.74,18.74,0,0,1-10.5,2.64Q436.12,648.09,432,643.92Zm19.11-14.25a9.61,9.61,0,0,0-1.53-4.92,8.26,8.26,0,0,0-3.33-2.91,9.15,9.15,0,0,0-8,0,8,8,0,0,0-3.3,2.91,9.7,9.7,0,0,0-1.5,4.92Z"/><path d="M464.5,647a2.61,2.61,0,0,1-.78-1.92V619.35a2.71,2.71,0,0,1,.78-2,2.56,2.56,0,0,1,1.92-.81,2.77,2.77,0,0,1,2.76,2.76v2.58q4.2-5.64,9.42-5.64h.3a2.51,2.51,0,0,1,1.89.78,2.66,2.66,0,0,1,.75,1.92,2.42,2.42,0,0,1-.78,1.86,2.81,2.81,0,0,1-2,.72h-.3A10.23,10.23,0,0,0,473.2,623a12.16,12.16,0,0,0-4,3.87v18.24a2.56,2.56,0,0,1-.81,1.92,2.71,2.71,0,0,1-1.95.78A2.61,2.61,0,0,1,464.5,647Z"/><path d="M488.05,643.92q-4.11-4.17-4.11-11.73a19.56,19.56,0,0,1,1.56-7.86,13.36,13.36,0,0,1,4.8-5.82,13.79,13.79,0,0,1,8-2.22,14,14,0,0,1,7.68,2.07,13.39,13.39,0,0,1,4.92,5.52,17,17,0,0,1,1.68,7.53,2.62,2.62,0,0,1-2.76,2.7H489.46a9.87,9.87,0,0,0,3.12,6.54Q495.22,643,500,643a18,18,0,0,0,4.41-.48,18.32,18.32,0,0,0,3.69-1.38,2.38,2.38,0,0,1,1.08-.24,2.41,2.41,0,0,1,1.68.66,2.18,2.18,0,0,1,.72,1.68,2.59,2.59,0,0,1-1.56,2.22,18.74,18.74,0,0,1-10.5,2.64Q492.16,648.09,488.05,643.92Zm19.11-14.25a9.61,9.61,0,0,0-1.53-4.92,8.26,8.26,0,0,0-3.33-2.91,9.15,9.15,0,0,0-8,0,8.06,8.06,0,0,0-3.3,2.91,9.79,9.79,0,0,0-1.5,4.92Z"/><path d="M518.74,645.39a2.29,2.29,0,0,1-1-2,2.41,2.41,0,0,1,.66-1.68,2.18,2.18,0,0,1,1.68-.72,2.64,2.64,0,0,1,1.08.24,24.25,24.25,0,0,0,3.84,1.32,17.85,17.85,0,0,0,4.32.48q6.66,0,6.66-4.26a2.27,2.27,0,0,0-1.53-2.1,31.33,31.33,0,0,0-5-1.62,45.27,45.27,0,0,1-5.85-1.74,10.29,10.29,0,0,1-4-2.73,6.94,6.94,0,0,1-1.65-4.83,8.65,8.65,0,0,1,3-6.84q3-2.64,8.67-2.64a25,25,0,0,1,8.7,1.5,2.25,2.25,0,0,1,1.29.9,2.41,2.41,0,0,1,.45,1.38,2.35,2.35,0,0,1-.69,1.68,2.27,2.27,0,0,1-1.71.72,3.37,3.37,0,0,1-.78-.12,23,23,0,0,0-6.84-1.08,9.37,9.37,0,0,0-5.07,1.17,3.49,3.49,0,0,0-1.83,3,2.77,2.77,0,0,0,1.68,2.64,24,24,0,0,0,5.22,1.62,50,50,0,0,1,5.76,1.77,9.52,9.52,0,0,1,3.81,2.73,7.41,7.41,0,0,1,1.59,5,7.93,7.93,0,0,1-3,6.36q-3,2.52-8.55,2.52A22.32,22.32,0,0,1,518.74,645.39Z"/><path d="M550.12,640.17v-18.6h-4.26a1.13,1.13,0,0,1-1.14-1.14,1.25,1.25,0,0,1,.54-1l8.16-8a1.51,1.51,0,0,1,1-.54,1.06,1.06,0,0,1,.81.36,1.2,1.2,0,0,1,.33.84v4.8h6.78a2.26,2.26,0,0,1,2.34,2.34,2.3,2.3,0,0,1-.66,1.65,2.22,2.22,0,0,1-1.68.69h-6.78v18.12q0,2.34,1.11,3a5.59,5.59,0,0,0,2.79.63,8.32,8.32,0,0,0,2.4-.36l.51-.12a3.27,3.27,0,0,1,.69-.06,2.11,2.11,0,0,1,1.5.63,2,2,0,0,1,.66,1.53,2.27,2.27,0,0,1-1.38,2.1,11.74,11.74,0,0,1-5,1.08Q550.12,648.09,550.12,640.17Z"/><path d="M571.66,609.75a3,3,0,0,1-.9-2.16v-.24a3.07,3.07,0,0,1,3.06-3.06h.36a3.07,3.07,0,0,1,3.06,3.06v.24a3.07,3.07,0,0,1-3.06,3.06h-.36A3,3,0,0,1,571.66,609.75ZM572,647a2.61,2.61,0,0,1-.78-1.92V619.35a2.71,2.71,0,0,1,.78-2,2.56,2.56,0,0,1,1.92-.81,2.67,2.67,0,0,1,2.76,2.76v25.74a2.56,2.56,0,0,1-.81,1.92,2.71,2.71,0,0,1-1.95.78A2.61,2.61,0,0,1,572,647Z"/><path d="M587,647a2.61,2.61,0,0,1-.78-1.92V619.35a2.71,2.71,0,0,1,.78-2,2.56,2.56,0,0,1,1.92-.81,2.77,2.77,0,0,1,2.76,2.76v2.46a19.94,19.94,0,0,1,4.92-4,12.42,12.42,0,0,1,6.24-1.5,10.37,10.37,0,0,1,5.73,1.56,10.14,10.14,0,0,1,3.72,4.26,13.6,13.6,0,0,1,1.29,5.94v17a2.56,2.56,0,0,1-.81,1.92,2.71,2.71,0,0,1-2,.78,2.66,2.66,0,0,1-2.7-2.7V628.65q0-7.32-6.6-7.32a9.55,9.55,0,0,0-5.37,1.56,19.44,19.44,0,0,0-4.47,4.2v18a2.56,2.56,0,0,1-.81,1.92,2.71,2.71,0,0,1-2,.78A2.61,2.61,0,0,1,587,647Z"/><path d="M630,661a23,23,0,0,1-5.82-2.22,2.28,2.28,0,0,1-1.08-2.1,2.46,2.46,0,0,1,.69-1.71,2.23,2.23,0,0,1,1.71-.75,3,3,0,0,1,1.08.24,21.83,21.83,0,0,0,9.9,2.28q9.18,0,9.18-9.78v-4a13.54,13.54,0,0,1-10.26,4.56,14.46,14.46,0,0,1-6.87-1.77,14.3,14.3,0,0,1-5.49-5.28,18,18,0,0,1,0-17.1,14.3,14.3,0,0,1,5.49-5.28,14.46,14.46,0,0,1,6.87-1.77,13.54,13.54,0,0,1,10.26,4.56v-1.5a2.71,2.71,0,0,1,.78-2,2.56,2.56,0,0,1,1.92-.81,2.77,2.77,0,0,1,2.76,2.76v26.82q0,7.56-3.66,11.64T637,661.89A28.4,28.4,0,0,1,630,661Zm11.52-19.68a18,18,0,0,0,4.14-3.24V625.71a18,18,0,0,0-4.14-3.24,10.08,10.08,0,0,0-5-1.2,10.19,10.19,0,0,0-7.35,2.73q-2.85,2.73-2.85,7.89t2.85,7.89a10.19,10.19,0,0,0,7.35,2.73A10.08,10.08,0,0,0,641.5,641.31Z"/><path d="M678,640.17v-18.6h-4.26a1.13,1.13,0,0,1-1.14-1.14,1.25,1.25,0,0,1,.54-1l8.16-8a1.51,1.51,0,0,1,1-.54,1.06,1.06,0,0,1,.81.36,1.2,1.2,0,0,1,.33.84v4.8h6.78a2.26,2.26,0,0,1,2.34,2.34,2.3,2.3,0,0,1-.66,1.65,2.22,2.22,0,0,1-1.68.69h-6.78v18.12q0,2.34,1.11,3a5.59,5.59,0,0,0,2.79.63,8.32,8.32,0,0,0,2.4-.36l.51-.12a3.27,3.27,0,0,1,.69-.06,2.11,2.11,0,0,1,1.5.63,2,2,0,0,1,.66,1.53,2.27,2.27,0,0,1-1.38,2.1,11.74,11.74,0,0,1-5,1.08Q678,648.09,678,640.17Z"/><path d="M704.08,646.11a13.46,13.46,0,0,1-5.37-5.61,19.21,19.21,0,0,1,0-16.62,13.46,13.46,0,0,1,5.37-5.61,17.44,17.44,0,0,1,16.14,0,13.65,13.65,0,0,1,5.4,5.61,18.94,18.94,0,0,1,0,16.62,13.65,13.65,0,0,1-5.4,5.61,17.44,17.44,0,0,1-16.14,0ZM716.89,642a9.16,9.16,0,0,0,3.72-3.6,12,12,0,0,0,1.47-6.24,11.88,11.88,0,0,0-1.47-6.18,9,9,0,0,0-3.72-3.57,10.52,10.52,0,0,0-4.71-1.11,10.64,10.64,0,0,0-4.77,1.11,8.78,8.78,0,0,0-3.69,3.57,12.08,12.08,0,0,0-1.44,6.18,12.21,12.21,0,0,0,1.44,6.24,9,9,0,0,0,3.69,3.6,10.41,10.41,0,0,0,4.77,1.14A10.29,10.29,0,0,0,716.89,642Z"/><path d="M105.17,717.39a2.29,2.29,0,0,1-1-2,2.41,2.41,0,0,1,.66-1.68,2.18,2.18,0,0,1,1.68-.72,2.64,2.64,0,0,1,1.08.24,24.25,24.25,0,0,0,3.84,1.32,17.85,17.85,0,0,0,4.32.48q6.66,0,6.66-4.26a2.27,2.27,0,0,0-1.53-2.1,31.33,31.33,0,0,0-5-1.62,45.27,45.27,0,0,1-5.85-1.74,10.29,10.29,0,0,1-4-2.73,6.94,6.94,0,0,1-1.65-4.83,8.65,8.65,0,0,1,3-6.84q3-2.64,8.67-2.64a25,25,0,0,1,8.7,1.5,2.25,2.25,0,0,1,1.29.9,2.41,2.41,0,0,1,.45,1.38,2.35,2.35,0,0,1-.69,1.68,2.27,2.27,0,0,1-1.71.72,3.37,3.37,0,0,1-.78-.12,23,23,0,0,0-6.84-1.08,9.37,9.37,0,0,0-5.07,1.17,3.49,3.49,0,0,0-1.83,3,2.77,2.77,0,0,0,1.68,2.64,24,24,0,0,0,5.22,1.62,50,50,0,0,1,5.76,1.77,9.52,9.52,0,0,1,3.81,2.73,7.41,7.41,0,0,1,1.59,5,7.93,7.93,0,0,1-3,6.36q-3,2.52-8.55,2.52A22.32,22.32,0,0,1,105.17,717.39Z"/><path d="M137.24,715.92q-4.11-4.17-4.11-11.73a19.56,19.56,0,0,1,1.56-7.86,13.36,13.36,0,0,1,4.8-5.82,13.79,13.79,0,0,1,8-2.22,14,14,0,0,1,7.68,2.07,13.39,13.39,0,0,1,4.92,5.52,17,17,0,0,1,1.68,7.53,2.62,2.62,0,0,1-2.76,2.7H138.65a9.87,9.87,0,0,0,3.12,6.54q2.64,2.34,7.38,2.34a18,18,0,0,0,4.41-.48,18.32,18.32,0,0,0,3.69-1.38,2.38,2.38,0,0,1,1.08-.24,2.41,2.41,0,0,1,1.68.66,2.18,2.18,0,0,1,.72,1.68,2.59,2.59,0,0,1-1.56,2.22,18.74,18.74,0,0,1-10.5,2.64Q141.35,720.09,137.24,715.92Zm19.11-14.25a9.61,9.61,0,0,0-1.53-4.92,8.26,8.26,0,0,0-3.33-2.91,9.15,9.15,0,0,0-8,0,8.06,8.06,0,0,0-3.3,2.91,9.79,9.79,0,0,0-1.5,4.92Z"/><path d="M171.2,715.92q-4.11-4.17-4.11-11.73a19.56,19.56,0,0,1,1.56-7.86,13.36,13.36,0,0,1,4.8-5.82,13.79,13.79,0,0,1,8-2.22,14,14,0,0,1,7.68,2.07,13.39,13.39,0,0,1,4.92,5.52,17,17,0,0,1,1.68,7.53,2.62,2.62,0,0,1-2.76,2.7H172.61a9.87,9.87,0,0,0,3.12,6.54q2.64,2.34,7.38,2.34a18,18,0,0,0,4.41-.48,18.32,18.32,0,0,0,3.69-1.38,2.38,2.38,0,0,1,1.08-.24,2.41,2.41,0,0,1,1.68.66,2.18,2.18,0,0,1,.72,1.68,2.59,2.59,0,0,1-1.56,2.22,18.74,18.74,0,0,1-10.5,2.64Q175.31,720.09,171.2,715.92Zm19.11-14.25a9.61,9.61,0,0,0-1.53-4.92,8.26,8.26,0,0,0-3.33-2.91,9.15,9.15,0,0,0-8,0,8.06,8.06,0,0,0-3.3,2.91,9.79,9.79,0,0,0-1.5,4.92Z"/><path d="M219.29,719a2.61,2.61,0,0,1-.78-1.92V678.15a2.71,2.71,0,0,1,.78-1.95,2.56,2.56,0,0,1,1.92-.81,2.77,2.77,0,0,1,2.76,2.76v15.66a19.94,19.94,0,0,1,4.92-4,12.42,12.42,0,0,1,6.24-1.5,10.37,10.37,0,0,1,5.73,1.56,10.14,10.14,0,0,1,3.72,4.26,13.6,13.6,0,0,1,1.29,5.94v17a2.56,2.56,0,0,1-.81,1.92,2.71,2.71,0,0,1-1.95.78,2.66,2.66,0,0,1-2.7-2.7V700.65q0-7.32-6.6-7.32a9.55,9.55,0,0,0-5.37,1.56,19.44,19.44,0,0,0-4.47,4.2v18a2.56,2.56,0,0,1-.81,1.92,2.71,2.71,0,0,1-1.95.78A2.61,2.61,0,0,1,219.29,719Z"/><path d="M260.45,718.11a13.46,13.46,0,0,1-5.37-5.61,19.21,19.21,0,0,1,0-16.62,13.46,13.46,0,0,1,5.37-5.61,17.44,17.44,0,0,1,16.14,0,13.65,13.65,0,0,1,5.4,5.61,18.94,18.94,0,0,1,0,16.62,13.65,13.65,0,0,1-5.4,5.61,17.44,17.44,0,0,1-16.14,0ZM273.26,714a9.16,9.16,0,0,0,3.72-3.6,12,12,0,0,0,1.47-6.24A11.88,11.88,0,0,0,277,698a9,9,0,0,0-3.72-3.57,10.52,10.52,0,0,0-4.71-1.11,10.64,10.64,0,0,0-4.77,1.11,8.78,8.78,0,0,0-3.69,3.57,12.08,12.08,0,0,0-1.44,6.18,12.21,12.21,0,0,0,1.44,6.24,9,9,0,0,0,3.69,3.6,10.41,10.41,0,0,0,4.77,1.14A10.29,10.29,0,0,0,273.26,714Z"/><path d="M298.07,719.07a3.66,3.66,0,0,1-1.32-1.8l-8.52-25a3.23,3.23,0,0,1-.18-1,2.66,2.66,0,0,1,2.7-2.7,2.74,2.74,0,0,1,1.53.45,2.21,2.21,0,0,1,.93,1.17l7,23.1,7-22.56a3.08,3.08,0,0,1,5.88,0l7,22.56,7-23.1A2.21,2.21,0,0,1,328,689a2.74,2.74,0,0,1,1.53-.45,2.66,2.66,0,0,1,2.7,2.7,3.23,3.23,0,0,1-.18,1l-8.52,25a3.66,3.66,0,0,1-1.32,1.8,3.6,3.6,0,0,1-4.32,0,4,4,0,0,1-1.38-1.86l-6.36-19.86-6.36,19.86a4,4,0,0,1-1.38,1.86,3.6,3.6,0,0,1-4.32,0Z"/><path d="M356,712.17v-18.6h-4.26a1.13,1.13,0,0,1-1.14-1.14,1.25,1.25,0,0,1,.54-1l8.16-8a1.51,1.51,0,0,1,1-.54,1.06,1.06,0,0,1,.81.36,1.2,1.2,0,0,1,.33.84v4.8h6.78a2.26,2.26,0,0,1,2.34,2.34,2.3,2.3,0,0,1-.66,1.65,2.22,2.22,0,0,1-1.68.69h-6.78v18.12q0,2.34,1.11,3a5.59,5.59,0,0,0,2.79.63,8.32,8.32,0,0,0,2.4-.36l.51-.12a3.27,3.27,0,0,1,.69-.06,2.11,2.11,0,0,1,1.5.63,2,2,0,0,1,.66,1.53,2.27,2.27,0,0,1-1.38,2.1,11.74,11.74,0,0,1-5,1.08Q356,720.09,356,712.17Z"/><path d="M377.93,719a2.61,2.61,0,0,1-.78-1.92V678.15a2.71,2.71,0,0,1,.78-1.95,2.56,2.56,0,0,1,1.92-.81,2.77,2.77,0,0,1,2.76,2.76v15.66a19.94,19.94,0,0,1,4.92-4,12.42,12.42,0,0,1,6.24-1.5,10.37,10.37,0,0,1,5.73,1.56,10.14,10.14,0,0,1,3.72,4.26,13.6,13.6,0,0,1,1.29,5.94v17a2.56,2.56,0,0,1-.81,1.92,2.71,2.71,0,0,1-1.95.78,2.66,2.66,0,0,1-2.7-2.7V700.65q0-7.32-6.6-7.32a9.55,9.55,0,0,0-5.37,1.56,19.44,19.44,0,0,0-4.47,4.2v18a2.56,2.56,0,0,1-.81,1.92,2.71,2.71,0,0,1-1.95.78A2.61,2.61,0,0,1,377.93,719Z"/><path d="M414.11,681.75a3,3,0,0,1-.9-2.16v-.24a3.07,3.07,0,0,1,3.06-3.06h.36a3.07,3.07,0,0,1,3.06,3.06v.24a3.07,3.07,0,0,1-3.06,3.06h-.36A3,3,0,0,1,414.11,681.75Zm.36,37.26a2.61,2.61,0,0,1-.78-1.92V691.35a2.71,2.71,0,0,1,.78-2,2.56,2.56,0,0,1,1.92-.81,2.67,2.67,0,0,1,2.76,2.76v25.74a2.56,2.56,0,0,1-.81,1.92,2.71,2.71,0,0,1-1.95.78A2.61,2.61,0,0,1,414.47,719Z"/><path d="M427.61,717.39a2.27,2.27,0,0,1-1-2,2.36,2.36,0,0,1,.66-1.68,2.16,2.16,0,0,1,1.68-.72,2.64,2.64,0,0,1,1.08.24,23.91,23.91,0,0,0,3.84,1.32,17.73,17.73,0,0,0,4.32.48q6.66,0,6.66-4.26a2.27,2.27,0,0,0-1.53-2.1,31.68,31.68,0,0,0-5-1.62,44.32,44.32,0,0,1-5.85-1.74,10.21,10.21,0,0,1-4-2.73,6.89,6.89,0,0,1-1.65-4.83,8.62,8.62,0,0,1,3-6.84c2-1.76,4.91-2.64,8.67-2.64a25.09,25.09,0,0,1,8.7,1.5,2.25,2.25,0,0,1,1.29.9,2.37,2.37,0,0,1-.24,3.06,2.29,2.29,0,0,1-1.71.72,3.23,3.23,0,0,1-.78-.12,23,23,0,0,0-6.84-1.08,9.35,9.35,0,0,0-5.07,1.17,3.47,3.47,0,0,0-1.83,3,2.76,2.76,0,0,0,1.68,2.64,23.62,23.62,0,0,0,5.22,1.62,50,50,0,0,1,5.76,1.77,9.59,9.59,0,0,1,3.81,2.73,7.46,7.46,0,0,1,1.59,5,8,8,0,0,1-3,6.36q-3,2.52-8.55,2.52A22.26,22.26,0,0,1,427.61,717.39Z"/><path d="M480,719.07a3.66,3.66,0,0,1-1.32-1.8l-8.52-25a3.23,3.23,0,0,1-.18-1,2.66,2.66,0,0,1,2.7-2.7,2.74,2.74,0,0,1,1.53.45,2.21,2.21,0,0,1,.93,1.17l7,23.1,7-22.56a3.08,3.08,0,0,1,5.88,0l7,22.56,7-23.1a2.21,2.21,0,0,1,.93-1.17,2.74,2.74,0,0,1,1.53-.45,2.66,2.66,0,0,1,2.7,2.7,3.23,3.23,0,0,1-.18,1l-8.52,25a3.66,3.66,0,0,1-1.32,1.8,3.6,3.6,0,0,1-4.32,0,4,4,0,0,1-1.38-1.86L492,697.35l-6.36,19.86a4,4,0,0,1-1.38,1.86,3.6,3.6,0,0,1-4.32,0Z"/><path d="M521,681.75a3,3,0,0,1-.9-2.16v-.24a3.07,3.07,0,0,1,3.06-3.06h.36a3.07,3.07,0,0,1,3.06,3.06v.24a3.07,3.07,0,0,1-3.06,3.06h-.36A3,3,0,0,1,521,681.75Zm.36,37.26a2.61,2.61,0,0,1-.78-1.92V691.35a2.71,2.71,0,0,1,.78-2,2.56,2.56,0,0,1,1.92-.81,2.67,2.67,0,0,1,2.76,2.76v25.74a2.56,2.56,0,0,1-.81,1.92,2.71,2.71,0,0,1-2,.78A2.61,2.61,0,0,1,521.32,719Z"/><path d="M536.26,719a2.61,2.61,0,0,1-.78-1.92V678.15a2.71,2.71,0,0,1,.78-1.95,2.56,2.56,0,0,1,1.92-.81,2.67,2.67,0,0,1,2.76,2.76v38.94a2.56,2.56,0,0,1-.81,1.92,2.71,2.71,0,0,1-2,.78A2.61,2.61,0,0,1,536.26,719Z"/><path d="M551.2,719a2.61,2.61,0,0,1-.78-1.92V678.15a2.71,2.71,0,0,1,.78-1.95,2.56,2.56,0,0,1,1.92-.81,2.67,2.67,0,0,1,2.76,2.76v38.94a2.56,2.56,0,0,1-.81,1.92,2.71,2.71,0,0,1-2,.78A2.61,2.61,0,0,1,551.2,719Z"/><path d="M585.67,718.53a10.14,10.14,0,0,1-3.72-4.26,13.6,13.6,0,0,1-1.29-5.94v-17a2.56,2.56,0,0,1,.81-1.92,2.71,2.71,0,0,1,1.95-.78,2.66,2.66,0,0,1,2.7,2.7v16.44q0,7.32,6.6,7.32a9.55,9.55,0,0,0,5.37-1.56,19.44,19.44,0,0,0,4.47-4.2v-18a2.56,2.56,0,0,1,.81-1.92,2.71,2.71,0,0,1,2-.78,2.66,2.66,0,0,1,2.7,2.7V717a2.71,2.71,0,0,1-.78,2,2.56,2.56,0,0,1-1.92.81,2.77,2.77,0,0,1-2.76-2.76v-2.46a19.94,19.94,0,0,1-4.92,4,12.42,12.42,0,0,1-6.24,1.5A10.37,10.37,0,0,1,585.67,718.53Z"/><path d="M618.28,719a2.61,2.61,0,0,1-.78-1.92V691.35a2.71,2.71,0,0,1,.78-2,2.56,2.56,0,0,1,1.92-.81,2.77,2.77,0,0,1,2.76,2.76v2.46a19.94,19.94,0,0,1,4.92-4,12.42,12.42,0,0,1,6.24-1.5,10.37,10.37,0,0,1,5.73,1.56,10.14,10.14,0,0,1,3.72,4.26,13.6,13.6,0,0,1,1.29,5.94v17a2.56,2.56,0,0,1-.81,1.92,2.71,2.71,0,0,1-1.95.78,2.66,2.66,0,0,1-2.7-2.7V700.65q0-7.32-6.6-7.32a9.55,9.55,0,0,0-5.37,1.56,19.44,19.44,0,0,0-4.47,4.2v18a2.56,2.56,0,0,1-.81,1.92,2.71,2.71,0,0,1-1.95.78A2.61,2.61,0,0,1,618.28,719Z"/><path d="M660.46,719.07a3.66,3.66,0,0,1-1.32-1.8l-8.52-25a3.23,3.23,0,0,1-.18-1,2.66,2.66,0,0,1,2.7-2.7,2.74,2.74,0,0,1,1.53.45,2.21,2.21,0,0,1,.93,1.17l7,23.1,7-22.56a3.08,3.08,0,0,1,5.88,0l7,22.56,7-23.1a2.21,2.21,0,0,1,.93-1.17,2.74,2.74,0,0,1,1.53-.45,2.66,2.66,0,0,1,2.7,2.7,3.23,3.23,0,0,1-.18,1l-8.52,25a3.66,3.66,0,0,1-1.32,1.8,3.6,3.6,0,0,1-4.32,0,4,4,0,0,1-1.38-1.86l-6.36-19.86-6.36,19.86a4,4,0,0,1-1.38,1.86,3.6,3.6,0,0,1-4.32,0Z"/><path d="M701.44,681.75a3,3,0,0,1-.9-2.16v-.24a3.07,3.07,0,0,1,3.06-3.06H704a3.07,3.07,0,0,1,3.06,3.06v.24a3.07,3.07,0,0,1-3.06,3.06h-.36A3,3,0,0,1,701.44,681.75ZM701.8,719a2.61,2.61,0,0,1-.78-1.92V691.35a2.71,2.71,0,0,1,.78-2,2.56,2.56,0,0,1,1.92-.81,2.67,2.67,0,0,1,2.76,2.76v25.74a2.56,2.56,0,0,1-.81,1.92,2.71,2.71,0,0,1-1.95.78A2.61,2.61,0,0,1,701.8,719Z"/><path d="M716.74,719a2.61,2.61,0,0,1-.78-1.92V691.35a2.71,2.71,0,0,1,.78-2,2.56,2.56,0,0,1,1.92-.81,2.77,2.77,0,0,1,2.76,2.76v2.46a19.94,19.94,0,0,1,4.92-4,12.42,12.42,0,0,1,6.24-1.5,10.37,10.37,0,0,1,5.73,1.56,10.14,10.14,0,0,1,3.72,4.26,13.6,13.6,0,0,1,1.29,5.94v17a2.56,2.56,0,0,1-.81,1.92,2.71,2.71,0,0,1-2,.78,2.66,2.66,0,0,1-2.7-2.7V700.65q0-7.32-6.6-7.32a9.55,9.55,0,0,0-5.37,1.56,19.44,19.44,0,0,0-4.47,4.2v18a2.56,2.56,0,0,1-.81,1.92,2.71,2.71,0,0,1-2,.78A2.61,2.61,0,0,1,716.74,719Z"/><path d="M758.11,718.2a14.34,14.34,0,0,1-5.4-5.52,18.45,18.45,0,0,1,0-17,14.34,14.34,0,0,1,5.4-5.52,14.07,14.07,0,0,1,7-1.89,13.79,13.79,0,0,1,10.26,4.56v-14.7a2.63,2.63,0,0,1,.81-2,2.71,2.71,0,0,1,1.95-.78,2.56,2.56,0,0,1,1.92.81,2.71,2.71,0,0,1,.78,1.95v38.94a2.66,2.66,0,0,1-2.7,2.7,2.71,2.71,0,0,1-1.95-.78,2.56,2.56,0,0,1-.81-1.92v-1.56a13.79,13.79,0,0,1-10.26,4.56A14.07,14.07,0,0,1,758.11,718.2Zm13-4.44a14.82,14.82,0,0,0,4.29-3.27v-12.6a14.82,14.82,0,0,0-4.29-3.27,11.33,11.33,0,0,0-5.19-1.23,9.43,9.43,0,0,0-7.14,2.82q-2.7,2.82-2.7,8t2.7,8a9.43,9.43,0,0,0,7.14,2.82A11.33,11.33,0,0,0,771.13,713.76Z"/><path d="M790.75,718.68a3.23,3.23,0,0,1-1-2.37V716a3.38,3.38,0,0,1,3.36-3.36h.6a3.38,3.38,0,0,1,3.36,3.36v.36a3.38,3.38,0,0,1-3.36,3.36h-.6A3.23,3.23,0,0,1,790.75,718.68Z"/><path class="cls-2" d="M1242.31,677.72c-.41-1.73-.81-3.46-1.22-5.18.16.9.34,1.81.53,2.71ZM1472,950.14l-3.72-.73c-5.46-1.07-10.61-3-15.83-4.89-3.53-1.26-7-2.66-10.5-4-1.4-.54-2.77-1.19-4.15-1.79-3.65-1.59-7.58-3.08-11-5-5.14-2.83-10.22-5.58-15.13-8.82-3.06-2-6.25-3.94-9.18-6.15l-1,.3a54,54,0,0,1-24.26,1.68c-3.8-.63-7.54-1.34-11.28-2.12-4.07-.47-8.11-.85-12.18-1.69a92.9,92.9,0,0,1-15.39-4.59,248.05,248.05,0,0,1-24.51-11.31q-9.24-4.87-18.34-10c-5.84-3.28-11.44-7-17.06-10.76-6-3.33-12.05-6.33-18.15-9.4-7.49-3.77-14.7-7.84-21.85-12.23-8.86-5.44-17.56-11.2-26.27-16.88-1.67-1.09-3.25-2.35-4.82-3.57a145.83,145.83,0,0,1-11.71-10.07c-1.83-1.75-3.5-3.65-5.22-5.49q-4.12-4.42-8.21-8.85c-5.71-5.91-11.52-11.75-16.92-17.94-8-9.18-13.46-19.92-19-30.63-1.67-3.22-3.28-6.48-5-9.68-3.19-6-6.65-11.93-9.2-18.21-1.88-4.59-3.67-9.24-5.17-14a128.13,128.13,0,0,1-3.49-15c-.46-2.34-.65-4.77-1-7.14-.55-4.12-.88-8.23-1.15-12.37-.14-2-.38-4-.38-6,0-11.17-.11-22.46,1.35-33.54,1.14-8.66,2.52-17.28,3.72-25.94,1.09-7.9,1.56-15.88,2.48-23.8,1-8.87,2.35-17.66,3.82-26.46,1.64-9.85,3.26-19.76,5.5-29.5,2-8.62,4.24-17.14,6.75-25.62,2.43-8.2,5-16.35,7.21-24.61,2.19-8.06,3.82-16.27,5.55-24.45,1.85-8.75,3.65-17.52,5.48-26.27a244.14,244.14,0,0,1,10-34.59c2.7-7.28,6-14.3,9.29-21.31,2.32-4.91,4.8-9.79,7.51-14.49,4.32-7.49,8.63-15,13.09-22.39,8.52-14.18,17.36-28.2,25.64-42.52q6.87-11.88,13.62-23.82c5.12-9.05,10.68-17.8,16.29-26.55a106.59,106.59,0,0,1,6.5-8.9c4.09-5.07,8.16-10.15,12.35-15.13s8.31-9.9,12.46-14.86c10.81-13.71,21-28.12,33.47-40.38,4.39-4.31,9-8.3,13.7-12.2,3-2.49,6.3-4.68,9.47-7a222.32,222.32,0,0,1,24.45-15.94l.51-.27h0l1.93-1,.16-.09,6.17-3.33-2.51,1.36.38-.21,3.08-1.66,2.84-1.53a93.15,93.15,0,0,1,10.72-4.75c5.76-2.22,11.5-4.42,17.4-6.25,8-2.48,16-5.12,24.1-7.27,6.41-1.7,12.83-3.29,19.33-4.66,4.29-.91,8.58-1.45,12.93-2,12.06-1.55,24.16-.78,36.19.57,8.42.94,16.84,2.07,25.22,3.28,9.59,1.4,19,3.43,28.5,5.49,8.38,1.82,16.76,3.62,25.1,5.66,4.11,1,8.19,2.18,12.25,3.38,4.73,1.39,9.47,2.75,14,4.59,12.47,5,22.25,16.46,22.74,30.25a32.93,32.93,0,0,1-11.85,26.11c-4.43,4.68-9,9.2-13.52,13.83-2.61,2.7-5.23,5.37-7.65,8.23a105.91,105.91,0,0,1-10.29,10.25c-11.18,10.12-22.76,19.78-34.1,29.74-6.55,6.31-13,12.73-19.18,19.44-7,7.66-13.71,15.57-20.37,23.54q-4.05,4.89-8.11,9.76c-5.08,6.36-10,12.82-14.88,19.34-4.08,5.44-7.89,11-11.64,16.71-4.93,8.24-9.76,16.54-14.64,24.81-5.06,8.57-10.53,16.9-15.91,25.27-2.6,4.43-5.19,8.84-7.62,13.37-2,3.81-4,7.64-5.86,11.51a151.07,151.07,0,0,0-5.89,15c.64-2.08,1.29-4.15,1.93-6.22q-1.53,5-3.07,9.89c-1,3.2-1.74,6.47-2.67,9.68-1.77,6.09-3.54,12.17-5.57,18.18-2.65,7.81-5.6,15.51-8.39,23.27-.81,2.73-1.6,5.46-2.27,8.23-1.26,5.15-2.37,10.31-3.45,15.49-1.7,8.17-3.25,16.38-4.8,24.57-.58,3.9-1.1,7.78-1.49,11.71-.45,4.53-.71,9.06-1,13.6-.07,3.45-.12,6.89,0,10.34.14,4.81.44,9.55.81,14.33q1.13,9.83,2.33,19.63c.93,7.64,2.45,15.2,3.92,22.75,2.57,13.24,4.92,26.51,7.79,39.68,4.94,17.62,10.31,35.15,16.3,52.45,6.89,17.36,14.21,34.57,22.66,51.24,7.73,13.16,16.36,25.8,23.2,39.47l2.93,5.86c.57,1.15,1.28,2.3,1.74,3.5q3.33,8.65,6.63,17.31a43.22,43.22,0,0,1,1.19,4.64c1.06,4.15,2.12,8.28,3.06,12.46l1.38,6.18c2.36,9.13,5,18.11,8.18,27,2,5.54,3.88,11.1,5.71,16.7a97.54,97.54,0,0,1,2.53,11.51c.9,4.58.41,8.88-.38,13.42-.13.79-.27,1.59-.41,2.38-1.45,8.44-9.31,16.61-17.54,18.71l-2.84.73a34.54,34.54,0,0,1-12.18,1.22C1475,950.76,1473.41,950.43,1472,950.14Z"/><path d="M1469.26,935.79c-3.92-.5-7.85-1-11.75-1.66l-7.38-1.2c-2.41-.39-4.78-1-7.16-1.52-3.85-.84-7.67-1.9-11.47-2.94-6.21-1.7-12.47-3.22-18.67-5s-12.55-3.52-18.77-5.45c-.41-.12-.82-.24-1.21-.37l-2.43-.75-.49-.17-.85-.25-.87-.28-.87-.26.27.08-2.1-.65-.34-.11-.82-.25-.56-.17c-.34-.1-.67-.22-1-.35l-3.39-1.2-6.85-2.44c-2.09-.74-4.14-1.62-6.21-2.43-1.64-.64-3.27-1.27-4.9-1.92-8.23-3.32-16.47-6.6-24.49-10.4l-7.58-3.58c-1.39-.66-2.73-1.42-4.09-2.16-3.66-2-7.33-3.91-10.92-6s-7.51-4.33-11.21-6.58l-12.52-7.61c-7.56-4.61-15.06-9.33-22.59-14-1.63-1-3.23-2.12-4.84-3.19q-3-2-6-4c-1.19-.79-2.33-1.69-3.48-2.55s-2.29-1.74-3.43-2.62c-2.13-1.65-4.21-3.39-6.26-5.14-2.24-1.92-4.4-3.95-6.54-6-1.27-1.21-2.54-2.41-3.77-3.66q-10-10.24-20-20.57-4.65-4.85-9.27-9.72c-3.09-3.24-6-6.66-9-10-1.07-1.2-2-2.48-3-3.74-1.45-1.85-3-3.65-4.33-5.59l-8.1-11.88c-.65-1-1.24-2-1.86-2.93l-5.06-8c-1.28-2-2.56-4-3.83-6.08-.74-1.16-1.39-2.36-2.06-3.56-2.22-3.92-4.48-7.82-6.54-11.83l-3.9-7.6c-2.06-4-3.89-8.15-5.57-12.34a103.07,103.07,0,0,1-4.66-14.88c-.73-3.15-1.36-6.29-1.92-9.47-.77-4.29-1.54-8.56-2.3-12.85s-1.48-8.31-2.29-12.46c-.52-2.66-1-5.32-1.55-8-.34-1.77-.6-3.54-.89-5.31-.37-2.3-.84-4.6-1.07-6.91s-.48-4.8-.73-7.19c-.17-1.69-.43-3.39-.5-5.09l-.33-8.34c-.06-1.62-.19-3.25-.18-4.87,0-2.6,0-5.21,0-7.81,0-3.91,0-7.81.12-11.72.06-3,.13-6,.19-9,0-1.62,0-3.24.11-4.86l.75-15.63c0-1.07.16-2.13.27-3.21l1-9.38c.19-1.83.32-3.68.63-5.49l1-5.89c.48-2.8,1-5.61,1.45-8.41.2-1.17.42-2.29.7-3.43q1.92-7.76,3.83-15.51c.29-1.16.7-2.31,1.06-3.45l2.82-8.92q1.53-4.86,3.09-9.69,4.29-13.17,8.57-26.33,2.16-6.6,4.31-13.2c.93-2.84,2-5.65,2.93-8.47s2-5.63,3.06-8.42c2.26-6,4.87-11.78,7.63-17.53,1.35-2.82,2.74-5.62,4.27-8.35l4.21-7.46q2.11-3.76,4.24-7.52c.56-1,1.1-2,1.69-3,4.4-7.3,8.73-14.65,13.21-21.9l9.22-14.9c1.81-2.93,3.7-5.8,5.6-8.67l4.85-7.33c.66-1,1.31-2,2-3l9.69-13.65c4.8-6.77,9.81-13.4,14.74-20.09,4.71-6.39,9.45-12.78,14.16-19.18l10.08-13.71c2.24-3.05,4.6-6,6.91-9l5-6.55c1.77-2.3,3.62-4.53,5.48-6.77q5.65-6.79,11.76-13.19c4.17-4.35,8.54-8.51,13-12.54s9.45-7.92,14.29-11.73c1.59-1.26,3.22-2.47,4.83-3.7l12.87-9.74c3.29-2.48,6.62-4.9,9.92-7.35,2.92-2.16,5.8-4.38,8.79-6.44l13.27-9.14c1-.7,2.09-1.34,3.14-2l8.17-5.16c3.41-2.16,6.91-4.16,10.4-6.19q3-1.74,6-3.5c1.38-.8,2.84-1.47,4.26-2.2l7.73-3.95c1.17-.59,2.31-1.15,3.51-1.67l7.91-3.45c1.64-.72,3.27-1.49,4.94-2.13l14-5.34c1.06-.4,2.14-.76,3.22-1.12l8.95-3c4-1.34,8.08-2.44,12.15-3.6s8.22-2,12.35-3c1.64-.38,3.32-.57,5-.83,1.9-.3,3.82-.71,5.74-.87l7.64-.63c1.8-.15,3.58-.17,5.38-.21,2,0,4.06-.14,6.1-.11l8,.12c4,0,7.94.24,11.91.37,2.33.08,4.67.34,7,.51,2,.15,4,.35,6,.57,4.16.46,8.3.94,12.44,1.5q3.21.42,6.42.93c1.47.23,2.92.52,4.38.85a13.14,13.14,0,0,1,1.93.62,2.78,2.78,0,0,1,.62.44.89.89,0,0,1-.26,1.56,4,4,0,0,1-.59.1l-.34,0a.81.81,0,0,1-.92-.57c-.3-.06-.61-.12-.93-.16l.14,0c-3.32-.53-6.67-.81-10-1.11-2.9-.26-5.81-.5-8.72-.74-1.22-.11-2.45-.19-3.67-.28-1.47-.11-2.95-.26-4.43-.33l-9.28-.39c-4.79,0-9.57,0-14.35,0-2.14,0-4.27.05-6.4.16l-8.56.46-9.31,1.11c-.36,0-.73.14-1.08.21l-3.27.64-4.94,1c-3.21.85-6.42,1.69-9.62,2.55-.91.24-1.8.55-2.7.84l-6.28,2c-5.6,1.77-11.11,3.87-16.63,5.87L1444,153.25c-1.09.44-2.19.84-3.26,1.33l-5.64,2.6c-3.17,1.46-6.38,2.83-9.45,4.48l-11.4,6.13-11.7,7.11c-3.29,2-6.47,4.17-9.68,6.3l-5.66,3.73c-1.1.73-2.15,1.53-3.22,2.3l-11.2,8c-6,4.57-12,9.08-17.88,13.71-10.66,8.35-21.51,16.52-31.45,25.74a246,246,0,0,0-19.76,21l0-.06c-2.27,2.74-4.56,5.48-6.7,8.33l-4.78,6.38c-2.47,3.29-5,6.53-7.4,9.87q-7.68,10.69-15.37,21.37l-16.77,23.16c-2,2.79-4,5.56-6,8.38q-4.92,7-9.83,14.06c-1.47,2.11-2.84,4.29-4.25,6.45l-6.18,9.49q-5.23,8.54-10.44,17.07c-2.88,4.71-5.68,9.49-8.51,14.23l-4.83,8.12c-1,1.72-2,3.49-2.93,5.24l-6.09,11-1.74,3.13c-.52.94-1,1.94-1.46,2.9-1.06,2.12-2.08,4.26-3.08,6.41q-4.07,9-7.36,18.21c-1.61,4.47-3.16,9-4.61,13.5L1170,480.06q-4,12.56-8,25.12-2.54,8.35-5.09,16.7c-.2.64-.31,1.3-.47,2-.47,2-1,4-1.42,6-.74,3.12-1.49,6.25-2.23,9.37-.67,4.14-1.35,8.27-2,12.42-.19,1.18-.44,2.37-.55,3.57-.24,2.42-.47,4.84-.71,7.26s-.49,5.15-.74,7.72c-.11,1.13-.13,2.26-.18,3.39l-.54,13.65c-.11,7.08-.26,14.17-.23,21.25l0,8.22c0,1.12,0,2.25,0,3.37q.3,6.32.59,12.63.42,3.94.85,7.89c.12,1.1.23,2.19.35,3.29s.34,2,.51,3c.44,2.59.81,5.19,1.32,7.76l2,10c1,5.1,1.91,10.22,2.85,15.33,1.06,5.81,2,11.64,3.37,17.4a112.69,112.69,0,0,0,3.57,11.47,149.79,149.79,0,0,0,6.41,14.08c1.44,2.81,2.9,5.62,4.35,8.43l6.22,11c.48.84,1,1.65,1.56,2.48l4.54,7.19c1.86,2.94,3.64,5.94,5.61,8.81l7.47,10.92,3.15,4c1,1.27,1.94,2.6,3,3.81,2.58,2.89,5.16,5.8,7.74,8.7q8.76,9.15,17.54,18.29c2.7,2.8,5.43,5.59,8.16,8.37l4.62,4.72c1.73,1.77,3.58,3.44,5.38,5.13,2,1.89,4.1,3.71,6.21,5.49,4,3.22,8,6.31,12.24,9.13l7.55,5q17.61,11,35.31,21.72c3.12,1.89,6.29,3.68,9.43,5.52,2.46,1.44,4.93,2.82,7.44,4.18l6.29,3.4c.81.44,1.6.87,2.43,1.26l9.87,4.67c3.26,1.4,6.5,2.88,9.79,4.21l11.6,4.66c3.41,1.38,6.86,2.69,10.29,4,1.78.69,3.6,1.28,5.4,1.92l5.32,1.89,1.14.36.79.24,2.15.67,1.56.48c.23.06.45.13.67.21l2,.63.5.16c2.2.68,4.43,1.31,6.64,2,4.12,1.21,8.24,2.38,12.37,3.56s8.22,2.2,12.33,3.28c3.91,1,7.8,2.12,11.71,3.13,1.85.47,3.7,1,5.57,1.39l6.54,1.44,7.57,1.23c2.61.43,5.24.75,7.86,1.13s5,.64,7.44,1c1.09.14,2.19.22,3.28.33s2.45.27,3.68.35l15.5,1,2,.16-1.55-2.21c-1.32-1.87-2.45-3.88-3.62-5.84s-2.16-3.67-3.27-5.49c-2.5-4.11-4.95-8.26-7.6-12.27-1.39-2.12-2.74-4.28-4.19-6.37l-4.17-6q-3.86-5.31-7.8-10.54c-2.45-3.25-4.88-6.5-7.27-9.79-1.1-1.51-2.23-3-3.27-4.55l-4.42-6.62c-1.19-1.78-2.26-3.66-3.39-5.49-1-1.58-1.93-3.15-2.86-4.75q-3.65-6.3-7.26-12.62c-.82-1.45-1.67-2.87-2.54-4.28-1.15-1.88-2.25-3.81-3.48-5.63q-4-5.94-8-11.87c-1-1.46-1.89-2.94-2.8-4.44-1.12-1.85-2.28-3.68-3.28-5.59l-3.48-6.59c-.3-.55-.53-1.15-.8-1.73l-2.1-4.61c-.7-1.55-1.35-3.11-2-4.69-.87-2.09-1.77-4.17-2.56-6.29-1.52-4.05-3.07-8.09-4.45-12.19l-2.31-6.8c-.69-2-1.27-4.15-1.9-6.21-1.32-4.31-2.54-8.63-3.76-13s-2.24-8.55-3.33-12.83c-.44-1.72-.8-3.46-1.18-5.19-.45-2.07-1-4.14-1.36-6.23l-1.35-7.29c-.34-1.82-.74-3.64-1-5.47-.37-2.44-.73-4.89-1.1-7.33s-.76-4.6-1-6.92q-.64-6.48-1.3-13c-.06-.61-.06-1.23-.08-1.84l-.18-4.19q-.16-3.76-.32-7.54c-.09-1.9,0-3.81,0-5.71,0-2.17,0-4.34-.05-6.51l-.21-14.1c-.07-4.49-.24-9-.36-13.45-.11-4.13-.4-8.26-.6-12.38s-.66-7.93-.79-11.91q-.26-7.71-.52-15.42c0-1.33,0-2.67.08-4l.24-9.7c0-1.59,0-3.21.12-4.79q.32-3.4.64-6.79c.24-2.68.5-5.36.74-8,.14-1.43.4-2.84.64-4.26q.77-4.38,1.51-8.78c.26-1.53.45-3.09.82-4.6q1.74-7,3.47-14c.38-1.54.83-3.07,1.24-4.6.83-3.06,1.66-6.13,2.48-9.19,1-3.73,1.9-7.5,2.83-11.25,2.21-9,4.51-17.92,6.81-26.87.32-1.2.72-2.38,1.1-3.56,1-3,1.93-6,2.9-9,.43-1.35.79-2.74,1.31-4.05l2.73-6.85c1.49-3.75,3-7.51,4.51-11.24,1.78-4.24,3.6-8.47,5.34-12.73q5.29-13.11,10.56-26.23c1.56-3.88,3.14-7.76,4.71-11.63,1.49-3.69,3.13-7.3,4.76-10.93l2.94-6.56c.64-1.43,1.4-2.8,2.13-4.18l4.25-8.05c.7-1.31,1.34-2.66,2.11-3.93l8-13.22c2.27-3.77,4.68-7.46,7-11.18,4.41-7,8.65-14.13,12.84-21.26q3-5.13,6.06-10.22c2.24-3.74,4.39-7.56,6.78-11.21q2.2-3.39,4.42-6.78c.73-1.13,1.47-2.26,2.21-3.39.33-.5.63-1,1-1.51l4.35-5.89c1-1.42,2.06-2.85,3.16-4.22,5.7-7.09,11.43-14.16,17.08-21.3s11.17-14.08,16.73-21.15c2.7-3.43,5.28-7,8-10.37l5.75-7.16c1.6-2,3.38-3.84,5.11-5.73.84-.94,1.69-1.87,2.54-2.8.57-.64,1.22-1.21,1.83-1.81l5.56-5.46c2.07-2,4.14-4.05,6.17-6.12,1.54-1.58,3-3.27,4.39-4.95q2.25-3,4.49-6c1.53-2,3.1-4.08,4.8-6s3.56-4,5.52-5.76,3.94-3.7,6.09-5.33A6.11,6.11,0,0,1,1605,145a5.86,5.86,0,0,1,4.47,9.88c-1.32,1.28-2.68,2.5-4,3.73s-2.5,2.41-3.72,3.66-2.41,2.64-3.58,4-2.2,2.8-3.25,4.24q-1.94,2.67-3.9,5.32c-1.17,1.59-2.48,3.09-3.74,4.61-1.38,1.68-2.92,3.23-4.42,4.81s-3.14,3.17-4.71,4.75l-4.48,4.52c-2.88,2.9-5.53,6-8.25,9.05-2.4,3-4.83,6-7.16,9.13-2.75,3.63-5.5,7.25-8.29,10.84-5.56,7.17-11.16,14.3-16.74,21.46-5.17,6.64-10.42,13.22-15.63,19.83-1.36,1.73-2.59,3.57-3.88,5.35-1.08,1.49-2.22,2.93-3.21,4.47L1503.17,286c-3.8,6.41-7.63,12.81-11.38,19.25-1.74,3-3.46,6-5.25,8.94-2.23,3.7-4.41,7.45-6.71,11.11l-7.17,11.44c-2,3.13-3.84,6.32-5.74,9.48l-3.27,5.42c-.54.9-1,1.85-1.49,2.77q-3.18,6-6.38,12.08l-5.6,12.48c-1.7,3.8-3.18,7.71-4.74,11.57-3,7.42-6,14.87-9,22.3-1.55,3.81-3.08,7.63-4.67,11.43-1.73,4.13-3.52,8.22-5.18,12.38l-5.91,14.86c-.41,1-.74,2-1.07,3.07q-1.44,4.51-2.9,9l-1,3.18c-1.61,6.25-3.27,12.49-4.81,18.76-1.69,6.8-3.27,13.62-5.1,20.37q-1.72,6.39-3.44,12.78c-.86,3.16-1.59,6.35-2.37,9.53l-1.29,5.2c-.25,1-.36,2-.53,3q-1,5.72-2,11.43-.75,7.95-1.49,15.9l-.33,13.91c0,1.1-.07,2.2,0,3.3q.15,4.32.29,8.62c.08,2.27.16,4.53.23,6.8.07,2.06.28,4.12.42,6.17.32,4.65.55,9.3.78,14,.41,8.68.53,17.38.66,26.07q.09,6.57.13,13.15c0,1.54,0,3.08.06,4.62l.36,8.62c.07,1.43.13,2.85.19,4.27,0,.91.16,1.81.25,2.72q.48,4.83,1,9.66c.85,5.77,1.65,11.55,2.72,17.27.36,2,.73,3.94,1.09,5.91.2,1.05.36,2.12.59,3.17.68,3.08,1.35,6.17,2,9.25,1,3.93,1.93,7.87,3,11.77,1.26,4.48,2.5,9,3.86,13.41q1,3.43,2.09,6.87c.7,2.31,1.55,4.59,2.32,6.87,1.36,4,2.86,8,4.35,12l2.55,6.21c.74,1.8,1.54,3.56,2.35,5.33s1.45,3.36,2.3,5c1.06,2,2.11,4,3.17,6,1.51,2.51,2.94,5.08,4.57,7.51,1.88,2.82,3.77,5.65,5.66,8.46l3.1,4.62c.9,1.35,1.7,2.78,2.54,4.16,1.8,2.93,3.5,5.91,5.2,8.91s3.31,5.79,5,8.69,3.44,5.8,5.2,8.69,3.6,5.63,5.45,8.42c1.55,2.35,3.23,4.62,4.88,6.91,3.31,4.49,6.68,9,9.92,13.5,3.45,4.87,6.83,9.77,10,14.8s6.16,10,9.13,15.05c1.3,2.22,2.55,4.46,3.82,6.69.7,1.22,1.39,2.43,2.11,3.63s1.37,2.14,2.08,3.2c1.17,1.57,2.36,3.12,3.59,4.66,1.7,2.13,3.76,4.22,4.58,6.88a6.77,6.77,0,0,1-3.6,7.92,12.32,12.32,0,0,1-4.15.87c-1,.09-2.06.15-3.1.2a103.72,103.72,0,0,1-12.21-.41l-12.27-.83c-1.81-.12-3.61-.27-5.42-.45C1474.58,936.45,1471.92,936.13,1469.26,935.79Z"/><path d="M1270.53,420.89a23,23,0,0,1-4.94-.9c-.89-.26-1.75-.63-2.62-.95-1.27-.47-2.52-1-3.77-1.53-1-.41-2-.78-3.08-1.16-1.38-.42-2.76-.81-4.16-1.2a5.85,5.85,0,0,1,3.11-11.28c5.27,1.35,10.11,4,14.91,6.51.62.3,1.24.57,1.88.82.42.13.83.25,1.26.35,1.13.2,2.27.29,3.42.38,4.5.14,9,.11,13.5-.16a82.4,82.4,0,0,0,8.67-1.29,27.91,27.91,0,0,0,2.94-.82c1-.39,2-.85,3-1.33,1.37-.72,2.72-1.47,4-2.32.61-.44,1.2-.9,1.77-1.37.89-.84,1.75-1.69,2.59-2.58.94-1.07,1.86-2.16,2.74-3.29-.12-.09-.24-.18-.35-.28-.75-.58-1.5-1.15-2.27-1.7-1.66-1.06-3.34-2.08-5-3.13s-3.42-2.12-5.17-3.12c-1.28-.62-2.55-1.2-3.86-1.75s-2.64-1-4-1.49l.16.06c-2.42-.71-4.85-1.29-7.31-1.81h0a68.38,68.38,0,0,0-7.64-1.27c-1.46-.06-2.94-.14-4.41-.13l-2.34,0c-.8,0-1.61.11-2.41.16l.39,0c-2.28.3-4.52.71-6.77,1.14-1.07.23-2.14.45-3.2.73s-2.36.67-3.54,1c-1,.35-1.94.69-2.9,1.07s-2.16.91-3.24,1.4c-1.87,1-3.74,2-5.64,2.92a31.22,31.22,0,0,1-3.08,1.21c-1,.35-2,.77-3,1.09h0a.61.61,0,0,1-.54,0,.68.68,0,0,1-.27-.31.63.63,0,0,1,.14-.69,17.31,17.31,0,0,1,3.62-2.56c1.16-.7,2.3-1.44,3.43-2.2,1.32-.95,2.63-2,4-2.82,1.56-1,3.14-1.85,4.78-2.68a48.69,48.69,0,0,1,4.87-2.11c1.67-.62,3.4-1.1,5.11-1.58s3.31-.86,5-1.23a40.44,40.44,0,0,1,5.15-.62c1.86-.15,3.76-.24,5.63-.21a54.14,54.14,0,0,1,8.21,1,64.28,64.28,0,0,1,10.35,2.42c1.54.54,3.12,1,4.61,1.7,1.72.75,3.41,1.55,5.06,2.47s3,1.7,4.5,2.56a40.39,40.39,0,0,1,4.53,2.89,18,18,0,0,1,1.88,1.61,12,12,0,0,1,2,2.4,4.18,4.18,0,0,1,.05,4.28,18.27,18.27,0,0,1-2.11,2.46,64.6,64.6,0,0,1-8.23,8.06c-1.69,1.28-3.54,2.39-5.35,3.5a30.07,30.07,0,0,1-4.55,2.34,45.22,45.22,0,0,1-4.85,1.48l-5,1.37-2.58.69c-1,.25-2,.41-2.92.6-1.6.32-3.24.49-4.86.66-1.83.2-3.67.38-5.51.47-1.29.06-2.57.13-3.84.13C1271.93,421,1271.23,420.94,1270.53,420.89Z"/><path d="M1379.08,425.15l-3-.14a30.14,30.14,0,0,1-6-.85,27.45,27.45,0,0,1-6.51-3c-1.62-.89-3.28-1.68-4.88-2.6a27.38,27.38,0,0,1-4.91-3.66,38.24,38.24,0,0,1-3-3.24,77.09,77.09,0,0,1-5.74-8.15c-.37-.52-.72-1.06-1.11-1.56l-.91-1.19a16.89,16.89,0,0,1-1.29-1.73,8,8,0,0,1-1-2.31,5.32,5.32,0,0,1,.1-2.66,8.81,8.81,0,0,1,1.82-3,25.62,25.62,0,0,1,8-6.75,38.06,38.06,0,0,1,4.68-2.15c1.63-.61,3.25-1.21,4.9-1.74s3.12-1,4.71-1.36c1.78-.39,3.55-.75,5.34-1.07a34.26,34.26,0,0,1,4.4-.4,38.73,38.73,0,0,1,5.49.34,19.27,19.27,0,0,1,3.2.63,10.07,10.07,0,0,1,3,1.28,2.35,2.35,0,0,1,1.21,1.57,1.7,1.7,0,0,1-.48,1.43,1.67,1.67,0,0,1-2,.28l.17.06-.17-.06-.09-.05,0,0,0,0c-.24-.08-.48-.14-.73-.2a15,15,0,0,0-1.64-.2,46.82,46.82,0,0,0-5.16.17l.35,0c-.9.1-1.81.22-2.7.39a58.76,58.76,0,0,0-5.81,1.74c-2.39.89-4.74,1.82-7.06,2.88-2,.92-4,1.89-6,2.88-1.1.63-2.17,1.28-3.24,2s-2.07,1.57-3.06,2.43c-.52.49-1,1-1.56,1.51.65,1.14,1.33,2.25,2,3.37s1.49,2.51,2.26,3.76l1.17,1.69c.41.59.91,1.14,1.37,1.7.81.89,1.62,1.76,2.51,2.57.56.47,1.13.92,1.73,1.34s1.29.79,2,1.15c1.56.75,3.17,1.38,4.79,2,1.42.55,2.83,1.12,4.25,1.65.52.16,1.05.3,1.58.43q1.21.22,2.46.33a73.56,73.56,0,0,0,8.4-.05c.59-.06,1.16-.12,1.74-.22q.52-.12,1-.27c.3-.11.59-.22.88-.35.47-.25.92-.51,1.36-.79,1-.68,1.92-1.36,2.9-2a4.39,4.39,0,0,1,6.56,4.39,4.54,4.54,0,0,1-1.67,2.88,19.31,19.31,0,0,1-9.1,4.69,25.57,25.57,0,0,1-4.2.3C1381.37,425.25,1380.21,425.2,1379.08,425.15Z"/><path d="M1386.75,417.1a4.66,4.66,0,0,1-1-.16l-.72,0a4.46,4.46,0,0,1-3.55-2,5.1,5.1,0,0,1-.56-4.37,5.42,5.42,0,0,1,1.41-2.34,4.56,4.56,0,0,1,2.06-1.84,5.48,5.48,0,0,1,1.79-.68,5.32,5.32,0,0,1,2.28.17,5.08,5.08,0,0,1,2.78,2.14,5,5,0,0,1,.61,4,4.91,4.91,0,0,1-.46,1.17,5.24,5.24,0,0,1-1,2.22,3.61,3.61,0,0,1-1.64,1.27,5.13,5.13,0,0,1-1.79.38Z"/><path d="M1296.54,412.25a3,3,0,0,1-1.89-1.66,2.89,2.89,0,0,1,.29-2.74.54.54,0,0,1,0-.11,2.8,2.8,0,0,1-.2-1.08,3.83,3.83,0,0,1,0-2.07,3.17,3.17,0,0,1,1.25-1.86,2.76,2.76,0,0,1,1.82-.42,2.65,2.65,0,0,1,1.65.87,3.41,3.41,0,0,1,.63,1,4,4,0,0,1,1.71,2.17,4.21,4.21,0,0,1,.17,1.65,3.74,3.74,0,0,1-.48,1.57,5.68,5.68,0,0,1-1,1.26,8.6,8.6,0,0,1-1.66,1.08,3.05,3.05,0,0,1-1.49.4A3.21,3.21,0,0,1,1296.54,412.25Z"/><path d="M1250.69,387v-.07c0-.21,0-.43-.09-.65s-.1-.37-.16-.56-.21-.52-.33-.78a6.52,6.52,0,0,0-.43-.72,8.39,8.39,0,0,0-.62-.82,12,12,0,0,0-.88-.87,1.73,1.73,0,0,1,.16-2.59,1.76,1.76,0,0,1,1.52-.3,1.8,1.8,0,0,1,1.14,1l.26.56A12,12,0,0,1,1253,387a1.17,1.17,0,0,1-2.33,0Z"/><path d="M1264.09,382.43c0-.72,0-1.44-.06-2.16,0-.32-.07-.64-.12-1s-.24-.92-.38-1.38c-.28-.79-.58-1.57-.89-2.35a3.28,3.28,0,1,1,6.19-2.16c.36,1.28.78,2.54,1.14,3.81a25.61,25.61,0,0,1,.79,4.75,3.39,3.39,0,0,1-2.87,3.77l-.45,0A3.4,3.4,0,0,1,1264.09,382.43Z"/><path d="M1278.51,380.7a1.63,1.63,0,0,1,0-.79c.16-1,.41-2,.65-3s.44-1.85.64-2.78c.08-.5.17-1,.23-1.49a1.76,1.76,0,1,1,3.45.7c-.51,1.76-1,3.52-1.39,5.29-.09.51-.21,1-.26,1.55v.11a1.7,1.7,0,0,1-1.45,1.67h-.22A1.69,1.69,0,0,1,1278.51,380.7Z"/><path d="M1293.22,383.89a13.2,13.2,0,0,1,.48-2.49c.16-.6.31-1.21.47-1.82.24-.92.44-1.84.64-2.77l0,.16.12-.65a1.32,1.32,0,1,1,2.53.69c-.4,1-.77,2.08-1.14,3.12v0c-.39,1.22-.83,2.44-1.11,3.7a.2.2,0,0,1,0,.07l0,.14a1,1,0,0,1-1,.84A1,1,0,0,1,1293.22,383.89Z"/><path d="M1305.31,389.17a.94.94,0,0,1-.48-.28,1.06,1.06,0,0,1,0-1.48,1.09,1.09,0,0,1,.7-.3l0-.05.24-.32a7,7,0,0,0,.44-.75,21.21,21.21,0,0,0,.93-2.27l0,.12a42.85,42.85,0,0,0,1.31-4.41l0,.16c0-.24.09-.47.14-.7a1.41,1.41,0,0,1,.5-.87,1.32,1.32,0,0,1,2,.53,1.4,1.4,0,0,1-.08,1.18c-.09.19-.19.37-.29.55-.55,1.17-1,2.38-1.43,3.59-.27.75-.57,1.48-.88,2.22a9.8,9.8,0,0,1-1.05,2,3.4,3.4,0,0,1-.59.66,1.71,1.71,0,0,1-.72.43,1.65,1.65,0,0,1-.43.06A1.17,1.17,0,0,1,1305.31,389.17Z"/><path d="M1346.56,389.6c0-.23,0-.46,0-.68a14.87,14.87,0,0,0-.23-1.63h0c-.12-.52-.24-1-.41-1.54s-.37-1-.58-1.44-.35-.67-.53-1a9.64,9.64,0,0,0-.55-.86l.08.12-.36-.44a2,2,0,1,1,3.59-1.79c.28,1.06.64,2.09,1,3.13a21,21,0,0,1,1.12,6.13,1.57,1.57,0,0,1-3.13,0Z"/><path d="M1361.63,382.44a2.63,2.63,0,0,1-1.92-2.52,2.69,2.69,0,0,1,.23-1.08c-.12-.28-.25-.57-.39-.85-.55-1.06-1-2.15-1.51-3.26a2.78,2.78,0,0,1,1.81-3.73,2.72,2.72,0,0,1,2.12.28,2.87,2.87,0,0,1,1.34,2,2.74,2.74,0,0,1,0,.28c.1.44.22.87.35,1.3s.43,1.11.66,1.66a9.11,9.11,0,0,1,.61,2.11,3.88,3.88,0,0,1-.6,2.89,2.62,2.62,0,0,1-2.75.92Z"/><path d="M1373.18,379.06c-.07-1.26-.12-2.51-.12-3.77a31.58,31.58,0,0,1,.45-5,1.63,1.63,0,1,1,3.19.66c0,.22-.1.45-.14.67-.17.91-.3,1.8-.38,2.72l0-.21a39.23,39.23,0,0,0,.11,5,1.57,1.57,0,0,1-1.56,1.57A1.6,1.6,0,0,1,1373.18,379.06Z"/><path d="M1381.43,376.89a13.83,13.83,0,0,1,.69-3.81c.21-.81.46-1.62.74-2.41a1.74,1.74,0,1,1,3.2,1.35c-.19.42-.36.85-.53,1.29-.28.9-.57,1.79-.77,2.72,0,.26-.09.53-.12.8v.06a1.61,1.61,0,1,1-3.21,0Z"/><path d="M1340.31,568.6a4.23,4.23,0,0,1,2.7-7.84l.68.09a9.55,9.55,0,0,0,1.07,0l1.47-.06c-.13-1-.24-2.06-.36-3.08-.25-2-.46-4.06-.57-6.11-.17-2.31-.43-4.61-.67-6.92-.27-2.59-.52-5.17-.75-7.76-.24-2.78-.53-5.54-.84-8.31-.29-2.54-.67-5.07-1.07-7.6-.36-2.31-.8-4.61-1.23-6.91-.51-2.79-1-5.58-1.51-8.38-.18-1.07-.37-2.14-.53-3.21-.2-1.34-.46-2.67-.6-4s-.29-2.91-.44-4.36-.18-2.92-.27-4.38l0-.74,0,.5-.27-4,0,.5,0-.44c-.09-1.29-.26-2.59-.4-3.88s-.27-2.59-.41-3.88-.2-2.6-.29-3.9-.13-2.49-.17-3.74q-.22-7.66-.29-15.33c0-4.75,0-9.51-.07-14.26,0-2.43-.07-4.86-.13-7.29,0-2-.2-4.1-.32-6.14-.23-3.05-.45-6.09-.69-9.14-.11-1.37-.24-2.75-.3-4.13,0-.89-.08-1.78-.13-2.67,0-.54,0-1.08,0-1.62a.79.79,0,0,1,.35-.64h0a.75.75,0,0,1,.37-.13h0a.76.76,0,0,1,.75.57,34,34,0,0,1,.94,4.37c.24,1.27.49,2.55.72,3.83q.73,4.06,1.42,8.14c.38,2.23.74,4.48,1,6.73.17,1.45.34,2.91.5,4.36s.2,2.75.3,4.12c.23,3.1.43,6.2.63,9.31l0-.37c.41,5.4.83,10.8,1.22,16.2.17,2.3.34,4.61.62,6.91.16,1.29.29,2.59.49,3.87s.41,2.57.59,3.85.42,2.64.54,4,.25,2.78.37,4.17.2,2.67.29,4,.27,2.6.41,3.91c.24,2.26.61,4.52,1,6.77q.72,4.29,1.48,8.58c.37,2,.71,4.11,1.07,6.16.16,1,.27,2,.41,2.93s.26,1.81.36,2.72c.22,2.16.45,4.32.6,6.5s.3,4.3.44,6.45c.39,5.18.9,10.35,1.25,15.53v0c.36,3.29.86,6.57,1.31,9.84l0-.11a9.37,9.37,0,0,1,.13,1.2,4,4,0,0,1-.58,2,5.32,5.32,0,0,1-3,2.25,33.61,33.61,0,0,1-4.51,1.08l-1.81.4a5,5,0,0,1-1.15.14A4.2,4.2,0,0,1,1340.31,568.6Z"/><path d="M1340.48,604.15c-3.46-.24-6.91-.53-10.36-.85-.9-.09-1.8-.27-2.68-.41q-2.46-.37-4.86-1a29.28,29.28,0,0,1-6.27-2.36,33.05,33.05,0,0,1-6-4c-.89-.73-1.74-1.51-2.6-2.28-.55-.49-1.12-1-1.64-1.49l-2.25-2.23c-.67-.67-1.27-1.43-1.88-2.14a54.25,54.25,0,0,1-6-8.67,1.79,1.79,0,0,1-1-1.12c-.07-.25-.15-.51-.23-.76l-.12-.25a1.89,1.89,0,0,1,1.47-2.59,2.52,2.52,0,0,1,1.44.1,7,7,0,0,1,2.12,1.59c.85.82,1.62,1.75,2.41,2.63,1.23,1.37,2.58,2.63,3.91,3.89l2.3,1.93c.85.73,1.82,1.35,2.74,2,1.75,1.16,3.5,2.31,5.36,3.3.92.43,1.84.83,2.79,1.19s2.06.62,3.11.86c1.64.31,3.29.53,5,.68,2,.1,4.09.18,6.14.18s3.93-.08,5.89-.18l1.22-.1a6.34,6.34,0,0,1,4.56,1.21,6.1,6.1,0,0,1-1.35,10.46,5.9,5.9,0,0,1-2.43.46Z"/><path d="M1279.3,581.6A3.07,3.07,0,0,1,1282,577h.32c.32-.05.64-.13,1-.19l-.32.06c.6-.16,1.18-.39,1.77-.59.87-.38,1.74-.75,2.59-1.16a31.46,31.46,0,0,0,3-1.78,25.26,25.26,0,0,0,2.26-1.75c.7-.62,1.35-1.27,2-2l0,0a17.45,17.45,0,0,0,1.41-1.8c.23-.34.44-.69.63-1s.21-.46.3-.69l.08-.31,0,.12a3.87,3.87,0,0,0,.1-.67.37.37,0,0,0,0,.11v-.28l0-.15,0-.15-.06-.14a.67.67,0,0,1,.5-1.11,1.2,1.2,0,0,1,.89.61,2.71,2.71,0,0,1,.41,1.11,3.72,3.72,0,0,1-.06,1.37,11.59,11.59,0,0,1-1.4,3.18,23.68,23.68,0,0,1-2.51,3.38,37.36,37.36,0,0,1-6,5.34c-1.15.84-2.38,1.6-3.48,2.5l-.55.53-.27.37a3,3,0,0,1-2.42,1.19A3.07,3.07,0,0,1,1279.3,581.6Z"/></svg>