<svg id="Layer_1" data-name="Layer 1" xmlns="http://www.w3.org/2000/svg" viewBox="0 0 1920 1080"><defs><style>.cls-1{font-size:60px;font-family:VarelaRound-Regular, Varela Round;}.cls-2{letter-spacing:-0.01em;}.cls-3{letter-spacing:-0.01em;}.cls-4{letter-spacing:0em;}.cls-5{letter-spacing:-0.01em;}.cls-6{letter-spacing:-0.02em;}.cls-7{letter-spacing:0em;}.cls-8{fill:#1a1a1a;opacity:0.8;}.cls-9{fill:#f3f3ff;}.cls-10{fill:#b3f4ff;}</style></defs><text class="cls-1" transform="translate(1181.45 94.49)"><tspan class="cls-2">N</tspan><tspan x="47.34" y="0">o one kn</tspan><tspan class="cls-3" x="291.24" y="0">o</tspan><tspan x="327.3" y="0">ws, </tspan><tspan x="0" y="72">but I think th</tspan><tspan class="cls-4" x="364.31" y="72">e</tspan><tspan x="397.97" y="72">y </tspan><tspan x="0" y="144">will cu</tspan><tspan class="cls-5" x="176.46" y="144">r</tspan><tspan x="198.54" y="144">e it </tspan><tspan class="cls-6" x="301.55" y="144">f</tspan><tspan x="323.51" y="144">a</tspan><tspan class="cls-7" x="357.23" y="144">s</tspan><tspan x="385.79" y="144">t. </tspan></text><circle class="cls-8" cx="439.5" cy="631.5" r="327.5"/><path class="cls-9" d="M766.72,701.18c0,23.17,43.85,90.84.75,107.37C740.67,818.82,664,831,626.05,837c-39.83,6.25-153.88,12-201.28,12-50.88,0-148.1,2.65-190-4.49-37.95-6.45-63-53.14-68.09-80.81-11.22-60.6-2.72-73.07,14.22-86.79,43.4-35.17,62.1-20.2,104-17.21,25.92,1.85,29.13-33.1,57.62-55.37,41.15-32.18,24.69-122,158.62-122,49.23,0,76.52,31.8,113,51.62,34.42,18.71,29.27,83.92,53.87,92.79C714.65,643.55,766.72,676.94,766.72,701.18Z"/><path d="M341.87,851.07c-6.36-.05-12.72-.34-19.06-.59q-10.95-.45-21.91-.72l-9.75-.26c-3.29-.09-6.6-.23-9.88-.47s-6.72-.46-10.08-.77l-10.91-1q-5.28-.51-10.58-1c-2.92-.27-5.86-.48-8.78-.8l-6.24-.68c-1.58-.17-3.14-.46-4.71-.7-2.45-.37-4.86-.81-7.29-1.34a82,82,0,0,1-10.83-3.32l-5.34-2c-1.73-.65-3.42-1.42-5.12-2.13-1.24-.51-2.45-1.06-3.67-1.61-1.66-.76-3.33-1.49-4.95-2.35-1.77-.93-3.56-1.83-5.28-2.85a65.78,65.78,0,0,1-9.45-6.68,53.61,53.61,0,0,1-7.73-7.63c-1.14-1.45-2.22-2.89-3.29-4.39s-2-3-3-4.55a83.47,83.47,0,0,1-5-9.23c-.36-.74-.63-1.55-.94-2.31-.23-.58-.44-1.15-.65-1.73-.69-2-1.37-4-2-6-1-3.28-1.93-6.59-2.79-9.92-.41-1.56-.75-3.12-1.1-4.7-.21-1-.47-1.94-.62-2.9s-.28-1.94-.43-2.91a86.53,86.53,0,0,1-.79-10.42c-.1-3.23-.1-6.47.07-9.7.12-2.27.22-4.55.42-6.82a78.12,78.12,0,0,1,2.53-14.24,86.48,86.48,0,0,1,4.88-12.93c.92-2,2-4,3-5.94.68-1.33,1.45-2.61,2.2-3.9s1.63-2.77,2.49-4.13c1-1.53,1.91-3.1,3-4.58l3.52-5c.89-1.25,1.89-2.44,2.83-3.65s1.8-2.27,2.76-3.37l3.79-4.39c1.29-1.49,2.71-2.86,4.08-4.27.92-.94,1.81-1.9,2.79-2.77l4.7-4.21c1.36-1.22,2.86-2.28,4.31-3.39s2.75-2,4.17-3c1.26-.84,2.5-1.73,3.82-2.5,1.75-1,3.49-2.13,5.31-3,2.47-1.23,4.91-2.48,7.47-3.51A58.48,58.48,0,0,1,233.38,646a59.52,59.52,0,0,1,20.28,1.62l2.82.67a53,53,0,0,1,7.14,2.39,56.09,56.09,0,0,1,13.71,8c2.48,1.9,4.73,4.1,7,6.23l4.34,4.09h0a86.8,86.8,0,0,0,6.78,5.48l.24.13a.67.67,0,0,1,.07,1.32,1,1,0,0,1-.42,0,20.92,20.92,0,0,1-2.63-1.22,60.07,60.07,0,0,1-5.36-3.19c-1.52-1-3-2.1-4.42-3.16s-3.07-2.19-4.6-3.29c-1.84-1.19-3.7-2.34-5.66-3.36a55.31,55.31,0,0,0-5.54-2.38c-1.93-.64-3.87-1.18-5.86-1.63s-4.23-.72-6.37-.93c-1.43-.09-2.87-.23-4.3-.23-2.6,0-5.19,0-7.78.13a46.95,46.95,0,0,0-12.67,2.68c-2.23.83-4.4,1.75-6.54,2.78-2.33,1.22-4.58,2.58-6.84,3.92-.68.41-1.32.88-2,1.32l-2.25,1.5-4.71,3.5c-.87.64-1.67,1.39-2.5,2.08l-2.07,1.71-5,4.76c-.86.82-1.64,1.77-2.45,2.65l-2.51,2.7c-2.08,2.51-4.18,5-6.14,7.61-1,1.32-2,2.61-2.94,4l-2.76,4c-1.09,1.77-2.18,3.53-3.26,5.3s-2.07,3.63-3.09,5.45c-.62,1.23-1.23,2.46-1.84,3.69a80.07,80.07,0,0,0-3.62,8.54,70.83,70.83,0,0,0-2.1,7.54c-.55,3-.91,5.92-1.17,8.91-.14,2.65-.29,5.3-.3,7.95,0,1.28-.06,2.56,0,3.84l.15,4.57c.11,1.28.21,2.56.31,3.84.07.78.24,1.56.36,2.33s.21,1.4.31,2.1l.89,4c.36,1.66.86,3.31,1.29,5,.78,3,1.72,5.92,2.63,8.86.46,1.32.92,2.63,1.45,3.93s1.18,2.72,1.82,4.06,1.37,2.5,2.11,3.73,1.58,2.52,2.39,3.77l1.76,2.47c.6.86,1.29,1.67,2,2.49.51.57,1,1.13,1.54,1.69s1.31,1.26,2,1.87c1.84,1.55,3.71,3.06,5.69,4.46a58.42,58.42,0,0,0,5,3c1.11.58,2.22,1.16,3.32,1.75,2.95,1.34,5.9,2.66,8.89,3.91s6,2.36,9.05,3.49c1.61.55,3.22,1.07,4.86,1.54s3.06.78,4.6,1.11c4.86.93,9.79,1.44,14.71,2,4.5.49,9,.82,13.54,1.22,4.2.38,8.4.82,12.6,1.21,4.49.42,9,.78,13.51,1.11q9.9.44,19.81.67c7.05.16,14.1.43,21.15.71,13,.53,26.06.87,39.08.47,7-.22,14-.45,21-.58q10.86-.2,21.73-.45c13.73-.35,27.45-1,41.16-1.72,11.18-.64,22.35-1.37,33.53-2.11l21.25-1.55c6.25-.45,12.51-.88,18.77-1.18l12.08-.58c3.63-.17,7.28-.24,10.91-.36,6.47-.22,12.93-.4,19.39-.71l6.77-.33c13.54-.93,27.07-2,40.6-3.06,13-1,26-1.82,39-2.79s25.78-2,38.65-3.33c6.24-.63,12.48-1.38,18.7-2.15,3.2-.39,6.39-.84,9.59-1.27,2.85-.39,5.69-.92,8.52-1.39l6.44-1.34c1.38-.29,2.75-.73,4.12-1.09,1.71-.45,3.39-.94,5.07-1.49a66.24,66.24,0,0,0,6.33-2.67c1.39-.74,2.76-1.52,4.1-2.36,1-.7,1.91-1.42,2.83-2.18s1.65-1.58,2.43-2.42a73,73,0,0,0,4.51-5.86c1.9-2.87,3.62-5.83,5.37-8.8.48-.82.87-1.69,1.3-2.53.5-1,1-2,1.51-3,1.06-2.31,2.05-4.64,2.92-7a103.39,103.39,0,0,0,3-11c.47-2.44.8-4.9,1.17-7.36.26-1.74.36-3.51.51-5.27.1-2.66.07-5.31-.08-8-.26-3.06-.74-6.1-1.17-9.15-.47-2.15-.92-4.3-1.39-6.45-.22-1-.6-2-.89-3.06-.38-1.29-.77-2.58-1.15-3.88q-1.09-3-2.21-5.94c-.3-.81-.71-1.6-1.06-2.4l-1.39-3.13-2.18-4.14c-.72-1.37-1.54-2.67-2.34-4s-1.7-2.85-2.63-4.23l-2.7-4-4-5.32c-.55-.72-1.17-1.38-1.75-2.07s-1.39-1.63-2.08-2.45c-2.17-2.32-4.33-4.64-6.57-6.9s-4.41-4.29-6.65-6.4c-2.23-1.87-4.44-3.73-6.74-5.5-1.07-.83-2.13-1.68-3.24-2.45l-3.93-2.74c-2.71-1.69-5.39-3.38-8.22-4.86-1.7-.8-3.42-1.53-5.19-2.19a68.25,68.25,0,0,0-6.9-1.88c-2.2-.4-4.41-.67-6.63-1-1.35-.18-2.72-.26-4.09-.35-2.07-.09-4.13-.18-6.19-.2-2.3,0-4.59,0-6.89.1-1.92.14-3.84.28-5.75.48-2.14.22-4.27.48-6.4.75s-4.46.51-6.67.85c-1.08.16-2.17.29-3.24.5l-2.76.56c-2.47.66-4.93,1.34-7.38,2.09l.35-.13c-.85.29-1.73.57-2.55.93L640,651.58c-1,.51-2,1-3,1.53-1.43.72-2.8,1.56-4.19,2.34-2.68,1.5-5.31,3.09-8,4.63-5.5,3.18-10.94,6.47-16.29,9.92a7.93,7.93,0,0,1-6.22.81,8.07,8.07,0,0,1-4.25-12.73,9.19,9.19,0,0,1,2.31-2c5.43-3.64,11-7,16.61-10.36,6-3.52,11.93-7.21,18.3-10a84,84,0,0,1,20.94-5.76c3.2-.49,6.44-.84,9.66-1.23,3.43-.42,6.86-.73,10.31-1s6.91-.22,10.37-.18c1.84,0,3.72.11,5.56.26,1.59.13,3.21.18,4.8.39l5,.65a57.55,57.55,0,0,1,6.24,1.29,66.28,66.28,0,0,1,7.29,2.3,53.71,53.71,0,0,1,5.91,2.63c1.37.7,2.76,1.41,4.07,2.22l4.94,3.07c1.74,1.08,3.39,2.34,5.07,3.51,1.4,1,2.73,2,4.08,3.08,1.13.86,2.23,1.74,3.32,2.66,1.47,1.24,3,2.45,4.41,3.76l4.25,4c1.29,1.21,2.5,2.52,3.75,3.77,1,1,2,2,2.92,3.07,1.27,1.37,2.57,2.72,3.78,4.14l3.76,4.43c1.17,1.37,2.2,2.89,3.3,4.32.87,1.16,1.68,2.35,2.49,3.55,1,1.5,2.09,3,3,4.49l3,5c.8,1.32,1.49,2.67,2.2,4s1.56,2.85,2.22,4.33q1.15,2.63,2.32,5.23c.25.56.43,1.17.64,1.74l1.2,3.23c.57,1.53,1.09,3.06,1.55,4.62l1.56,5.32c.17.56.26,1.17.38,1.75l.84,3.91c.29,1.39.58,2.78.78,4.19.27,2,.55,3.92.82,5.88.17,1.19.22,2.4.29,3.6s.14,2.48.18,3.73a55.86,55.86,0,0,1-.17,6.47l-.48,5.38c-.06.68-.21,1.36-.31,2l-.51,3.39a92.76,92.76,0,0,1-2.36,10.67,89.48,89.48,0,0,1-4.66,12.94c-1,2.2-2.14,4.33-3.23,6.48a106.23,106.23,0,0,1-5.61,9.62,74.27,74.27,0,0,1-7.66,10.16,47,47,0,0,1-11.2,8.9,62.11,62.11,0,0,1-11.49,5.11c-2.37.8-4.75,1.44-7.17,2.07-3.23.85-6.49,1.49-9.76,2.17-1.76.37-3.53.63-5.3.93-1.48.24-3,.51-4.45.71q-5.37.74-10.76,1.42c-13.68,1.69-27.39,3-41.12,4.16-13.44,1.11-26.9,1.93-40.35,2.93-14.1,1-28.2,2.16-42.29,3.26q-9.9.78-19.81,1.25c-6.6.32-13.21.52-19.82.74-7,.24-14,.5-20.94.84-5.87.28-11.73.67-17.59,1-13.48,1-27,2-40.45,2.81s-26.71,1.7-40.08,2.2c-7,.26-14,.51-21,.69-7.29.19-14.57.31-21.86.44-6.86.12-13.72.37-20.58.59-3,.09-6.08.12-9.12.12C348.92,851.14,345.4,851.1,341.87,851.07Z"/><path d="M667,634a1.16,1.16,0,0,1-1.13-1.43v0c0-.05,0-.11,0-.17s0-.22,0-.34-.06-.46-.11-.68c-.43-1.93-.93-3.85-1.48-5.75s-1.26-4-1.95-6l-.93-2.26c-.31-.76-.58-1.56-.94-2.3-.78-1.6-1.55-3.21-2.33-4.82-1.64-3-3.29-6-5-8.89s-3.54-5.7-5.36-8.53-3.87-5.47-5.91-8.14-4.2-5.39-6.34-8.05q-3.4-4.24-6.83-8.47c-2.11-2.6-4.27-5.17-6.44-7.73l-3.53-3.82c-1-1.08-2.05-2.09-3.1-3.12s-2.18-2.16-3.32-3.19l-3.92-3.54c-2.14-1.78-4.26-3.57-6.49-5.24-1.2-.9-2.36-1.86-3.61-2.69l-4.45-3c-3.75-2.29-7.49-4.6-11.35-6.7q-6.08-3.3-12.2-6.48c-2.55-1.26-5.1-2.54-7.68-3.74q-5-2.32-10-4.63c-3.17-1.46-6.35-2.9-9.52-4.35-2.79-1.27-5.68-2.36-8.51-3.53l-5.9-2c-1.74-.59-3.51-1-5.29-1.51s-3.63-1-5.48-1.4l-6.1-1.26c-3.91-.66-7.81-1.32-11.74-1.85-1.78-.24-3.55-.51-5.34-.68l-6.64-.63a171.19,171.19,0,0,0-19.22-.33,80.29,80.29,0,0,0-8.75,1.17,73.86,73.86,0,0,0-8,2.19c-2.94,1.06-5.78,2.33-8.65,3.57l-4.39,2.24c-1.64.85-3.21,1.84-4.8,2.77-3,1.71-5.83,3.61-8.71,5.47-1.63,1.12-3.25,2.24-4.83,3.42s-3.08,2.46-4.59,3.73c-1.76,1.64-3.51,3.29-5.21,5s-3.55,3.65-5.24,5.55c-1.22,1.42-2.36,2.88-3.43,4.41s-1.8,2.93-2.61,4.45c-.52,1.07-1,2.14-1.55,3.21s-.95,2.32-1.41,3.47a65.88,65.88,0,0,0-2,6.6q-.19,1.25-.33,2.49a7.9,7.9,0,0,1-2.22,5.32,7.57,7.57,0,0,1-12.92-5.35,28.65,28.65,0,0,1,1-7.49c.59-2.21,1.33-4.36,2.08-6.51a45.39,45.39,0,0,1,2-5l1.56-3.24a58.12,58.12,0,0,1,4.41-7.45,81.45,81.45,0,0,1,7.42-8.87c1.38-1.52,2.82-3,4.25-4.46s2.9-2.86,4.42-4.18,3.17-2.79,4.83-4.09c3.34-2.59,6.81-5,10.35-7.33,3.37-2.21,6.74-4.46,10.3-6.36,2-1.05,3.95-2.17,6-3.09,2.8-1.26,5.57-2.52,8.47-3.56a78.39,78.39,0,0,1,17.5-4.08,89.35,89.35,0,0,1,11.91-.53c1.94,0,3.89,0,5.83.13l7.24.42c2.41.14,4.81.45,7.21.69,1.74.18,3.45.4,5.17.65s3.71.48,5.55.8L514,484.2c2.36.42,4.69,1,7,1.51,1.67.36,3.29.76,4.93,1.22,2.25.63,4.54,1.18,6.74,2l7,2.47c1.66.59,3.25,1.31,4.86,2s3.33,1.39,4.95,2.16q6.23,3,12.42,6c3.5,1.68,7,3.37,10.43,5.16,3.92,2.05,7.8,4.15,11.67,6.29,3.64,2,7.17,4.22,10.7,6.41A123.68,123.68,0,0,1,614.3,534.2a121.78,121.78,0,0,1,8.72,8.88c1.35,1.55,2.79,3,4.05,4.68s2.73,3.52,4.1,5.27c.54.69,1,1.44,1.51,2.16l2.34,3.33c1.26,1.8,2.44,3.66,3.65,5.5q3.15,4.76,6.18,9.61c2.07,3.31,4.16,6.63,6,10.08,1.06,2,2.18,3.91,3.15,5.91s2,4.06,3,6.09c1.83,3.76,3.43,7.63,5.06,11.48a105.85,105.85,0,0,1,3.79,11.23c.4,1.38.67,2.8,1,4.19s.56,2.64.79,4a45.41,45.41,0,0,1,.73,4.77c.07.95,0,2.65-1.29,2.65Z"/><path d="M286.94,720.9a23.19,23.19,0,0,1-4.32-4.64,23.51,23.51,0,0,1-2.56-6,47.54,47.54,0,0,1-1.41-5.1,43.73,43.73,0,0,1-.85-9.06,94.41,94.41,0,0,1,.91-11.27l.39-3.08c.11-.87.33-1.74.5-2.6.4-2.08.74-4.18,1.3-6.23.61-2.23,1.12-4.5,1.9-6.68l2.33-6.5c.26-.71.62-1.4.93-2.1.6-1.33,1.19-2.68,1.79-4,.85-1.91,1.89-3.74,2.87-5.58l1.33-2.51c.39-.74.89-1.44,1.33-2.15,1.12-1.81,2.2-3.65,3.42-5.39l3.89-5.51c.52-.74,1.12-1.44,1.68-2.16l2.47-3.15c1.27-1.63,2.64-3.19,4-4.78,1.17-1.4,2.37-2.78,3.57-4.16s2.51-2.93,3.83-4.35l4.85-5.2c.48-.51,1-1,1.52-1.47l3.23-3.14c1.3-1.26,2.65-2.46,4-3.67s2.94-2.65,4.45-3.94q5.08-4.35,10.23-8.64c3.19-2.66,6.5-5.16,9.83-7.64,1.61-1.19,3.28-2.3,4.94-3.42.82-.56,1.62-1.16,2.47-1.67l2.7-1.64,2.93-1.77c.74-.45,1.54-.83,2.31-1.24,1.89-1,3.76-2,5.69-2.89,3.87-1.82,7.81-3.46,11.77-5.07,1.86-.75,3.74-1.42,5.61-2.12a59.22,59.22,0,0,1,6.07-1.9,38.23,38.23,0,0,1,7.66-1.3,32.56,32.56,0,0,1,4.19.08,21.69,21.69,0,0,1,4.28.95,25.84,25.84,0,0,1,3.95,1.67,24.73,24.73,0,0,1,3.61,2.15,21.89,21.89,0,0,1,3.08,2.59,4.64,4.64,0,0,1,1.19,1.9,1.29,1.29,0,0,1-.87,1.58,1.26,1.26,0,0,1-1.53-.87s0,0,0-.06l0,0-.25-.36a.63.63,0,0,1,.1.12,7.1,7.1,0,0,0-.75-.8c-.47-.39-.95-.76-1.45-1.12a28.86,28.86,0,0,0-2.58-1.5,29.42,29.42,0,0,0-2.89-1.22c-.79-.27-1.59-.5-2.41-.7-1-.19-2-.34-3-.43-.66,0-1.3,0-2,0l.27,0a31,31,0,0,0-3.72.47,40.22,40.22,0,0,0-4.74,1.37,61,61,0,0,0-5.65,2.41c-1.77.91-3.57,1.78-5.3,2.76-2.18,1.23-4.36,2.47-6.51,3.73s-4.06,2.45-6.08,3.7c-1.72,1.06-3.38,2.22-5.05,3.35l-4.48,3.26c-1.24.91-2.43,1.88-3.62,2.83s-2.28,1.78-3.37,2.73l-4.07,3.52q-7,6.46-14,13c-2.39,2.27-4.74,4.58-7.1,6.88-.87.85-1.69,1.74-2.53,2.61-1.07,1.12-2.19,2.19-3.22,3.34-1.73,2-3.46,3.94-5.2,5.9q-4.78,5.81-9.49,11.68c-2.87,3.6-5.48,7.38-8.1,11.16l-3.84,6.26c-.62,1-1.12,2.12-1.67,3.16l-1.56,2.95c-1,2.19-1.95,4.37-2.92,6.56-.45,1-.77,2.15-1.15,3.21s-.69,1.91-1,2.87l-1.8,6.5c-.18,1-.37,1.91-.55,2.86s-.51,2.2-.65,3.3c-.39,3-.82,6.06-1.06,9.11-.11,1.95-.15,3.89-.07,5.84.1,1.18.26,2.34.47,3.5.24,1,.52,2,.82,3a43.88,43.88,0,0,0,1.58,4.13c0,.09.1.19.16.28.27.36.54.72.83,1.07l.76.81a6.48,6.48,0,0,1-3.7,11,8.29,8.29,0,0,1-.87.06A6.21,6.21,0,0,1,286.94,720.9Z"/><circle class="cls-8" cx="1435.5" cy="687.5" r="327.5"/><text class="cls-1" transform="translate(156.45 124.49)"><tspan class="cls-2">H</tspan><tspan class="cls-3" x="44.46" y="0">o</tspan><tspan x="80.52" y="0">w long will this </tspan><tspan x="0" y="72">virus la</tspan><tspan class="cls-7" x="199.32" y="72">s</tspan><tspan x="227.88" y="72">t?</tspan></text><path class="cls-10" d="M1561.18,825.67c.25-.75.48-1.51.69-2.26-.49,1.43-1,2.87-1.48,4.31C1560.66,827,1560.92,826.35,1561.18,825.67Zm-223.62,215a29.45,29.45,0,0,1-10.28-2.08l-2.36-.86c-6.84-2.49-12.84-10.13-13.36-17.44l-.15-2.07a30.85,30.85,0,0,1,.83-11.48,83.9,83.9,0,0,1,3.13-9.59c2-4.62,4.12-9.2,6.3-13.75,3.48-7.32,6.49-14.76,9.27-22.34l1.71-5.15c1.15-3.49,2.41-6.92,3.67-10.36a37,37,0,0,1,1.41-3.86q3.55-7.08,7.12-14.19c.5-1,1.2-1.9,1.79-2.83,1-1.58,2-3.17,3-4.75,7-11.07,15.42-21.12,23.14-31.67,8.62-13.49,16.33-27.54,23.69-41.76,6.58-14.24,12.64-28.72,18.36-43.32,3.57-11,6.7-22.1,10-33.16,1.9-6.32,3.84-12.63,5.29-19.07q1.86-8.25,3.65-16.53c.73-4,1.38-8.06,1.91-12.15.38-2.93.64-5.87.87-8.82.16-3.89.32-7.78.32-11.67,0-3.39-.1-6.74-.27-10.11-.63-7.12-1.24-14.25-2-21.36-.48-4.51-1-9-1.62-13.5-.34-2.42-.77-4.81-1.23-7.21-1.72-6.85-3.58-13.67-5.17-20.56-1.22-5.29-2.21-10.63-3.2-16-.52-2.81-.9-5.67-1.45-8.48s-1.19-5.79-1.78-8.69c.37,1.82.75,3.64,1.12,5.47a130.75,130.75,0,0,0-3.74-13.27c-1.29-3.46-2.6-6.9-4-10.32-1.68-4.06-3.52-8-5.36-12-3.87-7.59-7.82-15.16-11.4-22.89-3.46-7.47-6.87-15-10.37-22.4-2.71-5.16-5.49-10.25-8.5-15.24-3.6-6-7.25-11.9-11-17.76l-6.08-9c-5-7.36-10-14.68-15.36-21.81-4.67-6.24-9.65-12.27-14.7-18.21-8.81-9.45-17.86-18.67-26.54-28.26a91,91,0,0,1-7.89-9.61c-1.82-2.65-3.83-5.14-5.82-7.67-3.43-4.33-7-8.57-10.35-12.94a28.2,28.2,0,0,1-7.88-23.27c1.6-11.72,10.91-20.66,22-23.86,4-1.17,8.21-1.93,12.36-2.71,3.56-.67,7.14-1.33,10.73-1.84,7.29-1,14.58-1.84,21.89-2.68,8.24-.95,16.46-1.88,24.76-2.25,7.25-.32,14.52-.56,21.78-.65,10.37-.12,20.75.25,30.9,2.6,3.66.85,7.27,1.67,10.85,2.81,5.42,1.72,10.76,3.63,16.08,5.62,6.73,2.53,13.31,5.46,19.93,8.26,4.87,2.06,9.58,4.42,14.3,6.81a79.07,79.07,0,0,1,8.73,5l2.29,1.55,2.49,1.68.31.21-2-1.37,5,3.36.13.09,1.56,1h0l.41.27a190.72,190.72,0,0,1,19.49,15.68c2.51,2.22,5.11,4.37,7.48,6.75,3.71,3.72,7.26,7.51,10.63,11.56,9.6,11.52,17,24.67,25.1,37.28q4.68,6.87,9.36,13.73c3.14,4.61,6.18,9.28,9.23,13.95a88.68,88.68,0,0,1,4.79,8.15c4,7.93,8,15.87,11.62,24q4.76,10.76,9.58,21.46c5.84,12.92,12.19,25.63,18.24,38.44,3.17,6.7,6.2,13.45,9.25,20.2,1.91,4.25,3.61,8.62,5.17,13,2.22,6.26,4.42,12.52,6.1,19a209.22,209.22,0,0,1,5.56,30.34c.82,7.62,1.61,15.24,2.44,22.86.77,7.12,1.46,14.26,2.64,21.32,1.22,7.23,2.68,14.4,4.05,21.59,1.42,7.45,2.61,14.9,3.57,22.42,1.08,8.5,1.62,17.08,2.18,25.62.5,7.63.89,15.24,1,22.88.1,6.84-.18,13.68.08,20.51.29,7.48.73,15,1,22.43.3,9.57-.74,19.19-1.71,28.7-.18,1.72-.56,3.43-.84,5.12-.59,3.51-1.22,7-2,10.45-.47,2-.84,4-1.43,6a111.28,111.28,0,0,1-4.25,12.49c-1.69,3.91-3.62,7.72-5.6,11.48a170.68,170.68,0,0,1-9.4,14.73c-1.73,2.59-3.38,5.22-5.08,7.83-5.65,8.66-11.23,17.35-18.83,24.49-5.13,4.82-10.58,9.3-16,13.86l-7.75,6.84c-1.63,1.42-3.22,2.9-4.92,4.23a123.15,123.15,0,0,1-10.84,7.59c-1.45.9-2.9,1.84-4.42,2.63-7.91,4.1-15.81,8.28-23.83,12.16-6.47,3.13-13,6-19.67,8.56-5.46,2.1-10.92,4.14-16.28,6.47-5.1,2.68-10.2,5.42-15.46,7.72q-8.21,3.58-16.49,6.95a210.34,210.34,0,0,1-21.85,7.55,80.91,80.91,0,0,1-13.52,2.61c-3.53.37-7,.34-10.52.4-3.26.34-6.5.63-9.8.84a46.18,46.18,0,0,1-20.54-3.5l-.8-.34c-2.69,1.64-5.57,3-8.35,4.46-4.46,2.35-9,4.26-13.65,6.23-3.12,1.32-6.6,2.26-9.84,3.3-1.23.39-2.45.83-3.69,1.18-3.1.85-6.18,1.74-9.3,2.51a95.8,95.8,0,0,1-13.91,2.83l-3.24.3C1340.12,1040.51,1338.77,1040.66,1337.56,1040.66Z"/><path d="M1344.91,1028.39c3.39-.1,6.78-.2,10.16-.41l6.39-.4c2.09-.13,4.16-.44,6.24-.68,3.35-.39,6.7-1,10-1.53,5.44-.93,10.9-1.69,16.33-2.67s11-1.93,16.48-3l1.06-.22,2.13-.43.44-.1.74-.15.77-.15.76-.16-.23,0,1.84-.38.3-.06.72-.14.49-.1c.3-.06.59-.13.89-.21l3-.74,6-1.49c1.84-.46,3.66-1,5.5-1.54,1.44-.41,2.89-.81,4.33-1.23,7.3-2.12,14.61-4.22,21.77-6.77l6.76-2.41c1.25-.44,2.46-1,3.68-1.49,3.28-1.38,6.58-2.72,9.82-4.2s6.77-3,10.12-4.65l11.32-5.42c6.84-3.29,13.64-6.67,20.45-10,1.48-.72,2.93-1.53,4.4-2.31l5.44-2.89c1.09-.58,2.13-1.25,3.19-1.88s2.1-1.29,3.15-1.94c2-1.23,3.87-2.54,5.77-3.86,2.08-1.44,4.09-3,6.09-4.53,1.18-.92,2.37-1.84,3.52-2.8q9.42-7.89,18.77-15.84c2.92-2.48,5.82-5,8.73-7.49s5.68-5.18,8.5-7.78c1-.92,1.93-1.94,2.88-2.93,1.39-1.45,2.87-2.85,4.17-4.4l7.92-9.43c.64-.75,1.23-1.56,1.83-2.34l5-6.4c1.26-1.62,2.53-3.24,3.79-4.87.72-.92,1.38-1.89,2-2.85,2.23-3.16,4.49-6.29,6.59-9.53l4-6.15c2.1-3.25,4-6.61,5.8-10a88.63,88.63,0,0,0,5.24-12.29c.9-2.62,1.7-5.25,2.45-7.91q1.53-5.38,3-10.76c1-3.48,2-7,3-10.43l2-6.67c.44-1.48.81-3,1.21-4.45.51-1.93,1.11-3.85,1.5-5.8l1.23-6.07c.29-1.42.66-2.85.86-4.29q.51-3.54,1-7.09c.19-1.37.44-2.75.57-4.13.22-2.22.43-4.45.64-6.66.33-3.34.64-6.67.9-10q.32-3.84.61-7.69c.11-1.38.24-2.77.32-4.15q.35-6.71.7-13.39c0-.92,0-1.84,0-2.76,0-2.69,0-5.39,0-8.08,0-1.58,0-3.17-.07-4.74l-.36-5.1c-.18-2.44-.35-4.87-.53-7.3-.07-1-.15-2-.3-3q-1-6.78-1.94-13.55c-.15-1-.4-2-.61-3-.55-2.61-1.1-5.23-1.64-7.84-.6-2.84-1.2-5.69-1.82-8.53q-2.52-11.58-5.06-23.17-1.27-5.81-2.54-11.62c-.55-2.5-1.18-5-1.78-7.47s-1.24-5-1.9-7.44c-1.41-5.28-3.14-10.46-5-15.59-.91-2.52-1.85-5-2.92-7.49l-3-6.72c-1-2.26-2-4.51-3-6.77-.39-.9-.77-1.81-1.19-2.7-3.12-6.6-6.19-13.23-9.39-19.79l-6.59-13.49c-1.29-2.65-2.66-5.25-4-7.86q-1.76-3.35-3.52-6.67c-.48-.91-.94-1.83-1.45-2.72l-7.09-12.47c-3.52-6.18-7.22-12.26-10.86-18.38-3.47-5.86-7-11.7-10.43-17.57q-3.72-6.25-7.43-12.54c-1.65-2.79-3.41-5.52-5.12-8.28l-3.74-6c-1.31-2.11-2.7-4.18-4.1-6.24q-4.23-6.27-8.9-12.25c-3.18-4.06-6.55-8-10-11.8s-7.38-7.56-11.18-11.22c-1.25-1.2-2.53-2.38-3.81-3.56l-10.14-9.4c-2.58-2.4-5.22-4.75-7.82-7.12-2.31-2.08-4.57-4.22-7-6.23l-10.54-8.92c-.81-.69-1.67-1.32-2.5-2l-6.53-5.1c-2.72-2.13-5.53-4.13-8.34-6.16l-4.85-3.5c-1.1-.8-2.29-1.5-3.44-2.23l-6.26-4c-.94-.61-1.87-1.18-2.84-1.73l-6.45-3.61c-1.34-.75-2.66-1.55-4-2.24l-11.5-5.74c-.88-.44-1.76-.84-2.65-1.24l-7.38-3.31c-3.3-1.49-6.69-2.78-10-4.11s-6.84-2.43-10.28-3.59c-1.36-.46-2.78-.76-4.18-1.13-1.6-.42-3.2-.93-4.82-1.23l-6.46-1.19c-1.52-.28-3-.45-4.57-.63-1.73-.21-3.45-.47-5.19-.62l-6.87-.58c-3.39-.3-6.79-.48-10.19-.7-2-.13-4-.11-6-.16-1.73-.05-3.44,0-5.16,0-3.58,0-7.16.09-10.73.22-1.85.06-3.7.13-5.55.24-1.28.08-2.54.2-3.81.36a11.19,11.19,0,0,0-1.7.36,2.45,2.45,0,0,0-.57.32.77.77,0,0,0,.09,1.35,2.34,2.34,0,0,0,.5.14l.29.07a.72.72,0,0,0,.83-.41c.26,0,.53-.05.8-.06h-.12c2.88-.16,5.76-.12,8.64-.09l7.5.11,3.15.08c1.27,0,2.54,0,3.81.1l7.94.45c4.08.4,8.16.79,12.23,1.27,1.82.22,3.64.4,5.44.68l7.26,1.12,7.85,1.74c.3.07.6.18.9.27l2.73.83,4.12,1.24,8,3c.75.28,1.48.62,2.22.94l5.19,2.23c4.62,2,9.13,4.25,13.68,6.43l9.6,5c.89.46,1.8.9,2.66,1.41l4.59,2.7c2.57,1.52,5.2,2.95,7.67,4.62l9.2,6.2,9.37,7.06c2.64,2,5.16,4.11,7.72,6.19l4.51,3.67c.87.71,1.7,1.49,2.54,2.23l8.87,7.79c4.69,4.41,9.42,8.77,14.07,13.22,8.38,8,16.93,15.91,24.62,24.62A211.17,211.17,0,0,1,1544,462.66l0-.06c1.71,2.53,3.42,5.06,5,7.67l3.54,5.85c1.82,3,3.7,6,5.46,9.05q5.64,9.76,11.29,19.52,6.15,10.59,12.32,21.18c1.48,2.55,3,5.08,4.42,7.65l7.17,12.83c1.08,1.93,2.07,3.9,3.08,5.86l4.46,8.62q3.74,7.71,7.44,15.44c2.06,4.26,4,8.57,6,12.86,1.14,2.44,2.28,4.89,3.43,7.33.72,1.55,1.36,3.15,2,4.71l4.26,9.87,1.22,2.82c.37.84.67,1.73,1,2.59.72,1.9,1.4,3.82,2.07,5.73q2.71,8,4.73,16.15c1,3.95,1.93,7.93,2.77,11.91q1.6,7.56,3.2,15.13,2.32,11,4.63,22.1,1.46,7.34,2.92,14.67c.11.56.15,1.14.23,1.7.24,1.75.47,3.49.71,5.24.36,2.73.73,5.46,1.09,8.18.22,3.59.45,7.17.67,10.76.07,1,.18,2.06.17,3.09q0,3.14,0,6.25c0,2.22,0,4.43,0,6.65,0,1-.08,1.93-.14,2.9q-.35,5.85-.7,11.68c-.51,6-1,12.11-1.61,18.14-.24,2.34-.49,4.68-.73,7-.1,1-.17,1.92-.31,2.87q-.8,5.35-1.58,10.71c-.47,2.22-.93,4.44-1.4,6.66-.19.92-.39,1.85-.58,2.77s-.46,1.7-.69,2.54c-.59,2.16-1.13,4.35-1.79,6.5-.84,2.78-1.69,5.55-2.54,8.33-1.3,4.26-2.5,8.55-3.73,12.83-1.4,4.86-2.73,9.75-4.36,14.54a98.59,98.59,0,0,1-4,9.48,129.36,129.36,0,0,1-6.67,11.45q-2.2,3.42-4.43,6.82l-6.24,8.85c-.49.68-1,1.32-1.54,2l-4.49,5.74c-1.83,2.35-3.61,4.76-5.53,7l-7.3,8.67-3,3.15c-1,1-1.87,2.05-2.89,3l-7.34,6.76q-8.24,7.05-16.51,14.09c-2.54,2.17-5.11,4.31-7.67,6.45l-4.34,3.62c-1.63,1.36-3.34,2.64-5,3.92q-2.82,2.16-5.76,4.15c-3.64,2.41-7.35,4.7-11.21,6.74l-6.86,3.65q-15.94,7.83-32,15.51c-2.82,1.34-5.68,2.6-8.51,3.9-2.22,1-4.44,2-6.7,2.93l-5.65,2.36c-.73.3-1.44.6-2.18.87l-8.81,3.13c-2.9.92-5.79,1.91-8.71,2.76l-10.28,3c-3,.88-6.08,1.7-9.12,2.55-1.57.44-3.18.79-4.76,1.18l-4.7,1.16-1,.2-.7.15-1.89.38-1.37.28a5.6,5.6,0,0,0-.59.12l-1.78.37a3.29,3.29,0,0,0-.43.09c-1.94.39-3.89.74-5.83,1.1-3.62.68-7.23,1.33-10.85,2s-7.2,1.18-10.79,1.75c-3.42.54-6.83,1.15-10.25,1.67-1.62.25-3.24.53-4.87.71l-5.7.67-6.56.41c-2.26.14-4.53.19-6.79.28s-4.29.13-6.43.19c-.94,0-1.88,0-2.82,0s-2.11,0-3.17,0c-4.43-.14-8.86-.29-13.3-.42l-1.75,0,1.51-1.74c1.28-1.48,2.42-3.11,3.59-4.67s2.15-3,3.25-4.41c2.48-3.28,4.93-6.62,7.52-9.81,1.37-1.69,2.71-3.42,4.12-5.07l4.06-4.73q3.75-4.2,7.55-8.32c2.36-2.56,4.72-5.12,7-7.72,1.06-1.2,2.15-2.37,3.17-3.6,1.44-1.76,2.89-3.51,4.34-5.27,1.16-1.42,2.23-2.93,3.35-4.4,1-1.26,1.91-2.52,2.84-3.8q3.64-5.07,7.27-10.14c.82-1.16,1.66-2.3,2.53-3.43,1.14-1.5,2.24-3.06,3.45-4.51q3.93-4.71,7.84-9.43c1-1.16,1.86-2.35,2.76-3.55,1.12-1.48,2.26-2.94,3.28-4.48,1.17-1.78,2.35-3.55,3.52-5.32.3-.45.56-.94.83-1.41.73-1.25,1.46-2.5,2.18-3.76s1.43-2.53,2.11-3.82c.92-1.71,1.87-3.41,2.72-5.15,1.64-3.32,3.3-6.63,4.84-10,.85-1.87,1.69-3.74,2.54-5.6.77-1.69,1.44-3.43,2.15-5.14,1.49-3.55,2.9-7.13,4.31-10.72s2.64-7.1,3.94-10.66c.51-1.42,1-2.87,1.44-4.32.56-1.73,1.18-3.45,1.69-5.19.59-2,1.19-4.07,1.78-6.1.44-1.52.93-3,1.32-4.58.53-2,1-4.11,1.57-6.16s1-3.85,1.43-5.81q1.11-5.48,2.21-11c.11-.51.15-1,.23-1.56l.51-3.55q.45-3.21.92-6.4c.23-1.62.35-3.25.52-4.87.2-1.85.39-3.7.6-5.55l1.38-12c.44-3.82,1-7.63,1.46-11.44.44-3.5,1-7,1.56-10.5s1.24-6.71,1.69-10.08q.88-6.56,1.76-13.1c.15-1.13.18-2.29.27-3.42q.3-4.15.62-8.29c.11-1.36.3-2.74.31-4.1,0-2,0-3.89,0-5.84,0-2.3,0-4.61,0-6.91,0-1.24-.09-2.46-.18-3.69q-.27-3.81-.53-7.62c-.1-1.32-.12-2.67-.31-4l-1.77-12.26c-.19-1.35-.44-2.69-.66-4-.45-2.68-.89-5.37-1.33-8-.54-3.27-1-6.55-1.45-9.83-1.13-7.84-2.32-15.66-3.52-23.49-.17-1-.41-2.09-.63-3.13q-.86-4-1.7-7.94c-.26-1.19-.45-2.41-.78-3.57l-1.74-6.07c-1-3.32-1.88-6.66-2.89-10-1.15-3.77-2.35-7.53-3.46-11.32q-3.4-11.61-6.77-23.25c-1-3.45-2-6.89-3-10.32-1-3.27-2-6.49-3.12-9.72l-2-5.85c-.43-1.27-1-2.5-1.46-3.75l-2.94-7.22c-.48-1.17-.92-2.38-1.46-3.53q-2.85-6-5.69-12c-1.62-3.41-3.36-6.76-5-10.13-3.17-6.35-6.17-12.78-9.14-19.22q-2.13-4.63-4.3-9.23c-1.59-3.38-3.1-6.82-4.82-10.13-1.06-2-2.12-4.11-3.19-6.16l-1.59-3.08c-.24-.46-.46-.93-.72-1.37q-1.61-2.7-3.2-5.4c-.77-1.29-1.52-2.6-2.34-3.86-4.25-6.54-8.54-13.05-12.75-19.61s-8.32-13-12.46-19.47c-2-3.15-3.91-6.38-5.95-9.51l-4.29-6.6c-1.19-1.84-2.56-3.57-3.87-5.32l-1.92-2.61c-.44-.59-1-1.13-1.42-1.7q-2.13-2.56-4.27-5.12c-1.59-1.91-3.18-3.81-4.73-5.75-1.19-1.48-2.25-3-3.33-4.59-1.11-1.82-2.22-3.63-3.32-5.46s-2.29-3.74-3.58-5.51-2.69-3.67-4.21-5.38-3-3.48-4.74-5.06a5.25,5.25,0,0,0-2.87-1.42,5,5,0,0,0-4.66,8c1,1.2,2.08,2.36,3.13,3.52s1.93,2.28,2.86,3.44,1.83,2.46,2.71,3.71,1.64,2.58,2.41,3.89c1,1.63,1.9,3.25,2.87,4.87.87,1.46,1.85,2.84,2.8,4.25s2.22,3,3.35,4.48,2.41,3,3.62,4.45l3.43,4.23c2.21,2.72,4.2,5.59,6.26,8.42,1.79,2.79,3.6,5.57,5.33,8.39q3,5,6.14,10c4.13,6.58,8.3,13.13,12.44,19.71,3.84,6.1,7.76,12.16,11.64,18.24,1,1.59,1.9,3.27,2.85,4.9.79,1.35,1.64,2.68,2.36,4.08l5.27,10.3c2.69,5.79,5.41,11.57,8.06,17.39,1.23,2.69,2.44,5.39,3.71,8.07,1.59,3.34,3.13,6.72,4.78,10s3.42,6.91,5.14,10.37c1.4,2.83,2.73,5.71,4.08,8.57.78,1.63,1.55,3.26,2.33,4.9.38.81.69,1.65,1,2.48l4.41,10.85q1.86,5.55,3.71,11.12c1.13,3.38,2,6.83,3.06,10.26,1.93,6.59,3.81,13.19,5.74,19.77,1,3.39,2,6.78,3,10.15,1.12,3.66,2.3,7.31,3.36,11q1.89,6.59,3.77,13.18c.26.89.45,1.79.65,2.71.57,2.64,1.13,5.29,1.7,7.94l.6,2.8c.84,5.47,1.72,10.93,2.51,16.4.85,5.94,1.62,11.89,2.61,17.81q.91,5.6,1.84,11.18c.46,2.77.81,5.55,1.21,8.33l.66,4.54c.12.87.13,1.76.19,2.63.23,3.3.47,6.61.7,9.91l-.09,13.69q-.45,5.94-.91,11.88c-.07.94-.12,1.88-.25,2.82q-.48,3.66-1,7.32c-.25,1.93-.51,3.85-.77,5.78-.24,1.75-.59,3.49-.88,5.23-.67,3.93-1.27,7.87-1.85,11.82-1.1,7.37-1.94,14.77-2.79,22.17q-.64,5.6-1.24,11.2c-.14,1.31-.25,2.62-.44,3.93-.34,2.44-.7,4.88-1,7.32-.18,1.21-.35,2.42-.52,3.63-.11.77-.3,1.53-.45,2.29l-1.65,8.16c-1.22,4.84-2.39,9.7-3.79,14.49l-1.44,4.94c-.25.88-.48,1.78-.77,2.65l-2.52,7.72c-1.17,3.26-2.31,6.54-3.58,9.77-1.45,3.72-2.89,7.43-4.43,11.11l-2.37,5.68c-.79,1.9-1.71,3.77-2.56,5.66-1.5,3.31-3.12,6.56-4.73,9.82l-2.7,5.08c-.79,1.46-1.62,2.9-2.46,4.34s-1.53,2.74-2.39,4l-3.21,4.87c-1.5,2-2.94,4.08-4.54,6l-5.54,6.73c-1,1.22-2,2.45-3,3.67-.89,1.07-1.68,2.22-2.52,3.33-1.78,2.35-3.49,4.74-5.19,7.15s-3.31,4.66-5,7-3.43,4.65-5.17,7-3.56,4.49-5.36,6.71c-1.53,1.88-3.16,3.67-4.75,5.48-3.21,3.55-6.47,7.06-9.61,10.67-3.36,3.86-6.66,7.74-9.84,11.75s-6.1,8-9.06,12.06c-1.3,1.78-2.55,3.58-3.83,5.38-.69,1-1.39,1.95-2.11,2.91s-1.34,1.71-2,2.55q-1.69,1.86-3.46,3.67c-1.63,1.67-3.56,3.27-4.49,5.47a5.8,5.8,0,0,0,2.4,7.06,10.45,10.45,0,0,0,3.46,1.1c.87.16,1.74.3,2.62.43a88.87,88.87,0,0,0,10.45.69l10.53.34c1.55,0,3.1.08,4.65.08C1340.32,1028.5,1342.62,1028.45,1344.91,1028.39Z"/><path d="M548.21,737.26a6.48,6.48,0,0,0,4.48-2.49,10.55,10.55,0,0,0,1.81-4.27,18,18,0,0,0,0-6,31.81,31.81,0,0,0-1.53-5.87,42.46,42.46,0,0,0-2.47-5.73,43.88,43.88,0,0,0-7-9.92,31.17,31.17,0,0,0-6.28-4.92,4.1,4.1,0,0,0-2.12-.59,4.48,4.48,0,0,0-2.21.59c-.16-.15-.34-.31-.52-.45a29.1,29.1,0,0,0-5.25-3.32,41.78,41.78,0,0,0-6.9-2.77,17.58,17.58,0,0,0-5.11-.8c-.47,0-.93,0-1.36.06a29.79,29.79,0,0,0-4.77,1c-1.69.43-3.46,1-5.27,1.52a24.46,24.46,0,0,0-11.44,7.76l-.12.14-.1.12a24.38,24.38,0,0,0-3.26,5.27l0,.1-.09.2a22.41,22.41,0,0,0-1.86,7.36l-.06.78c-.29,3.91-.59,7.92.2,11.76a7,7,0,0,0,1.32,2.63,6.82,6.82,0,0,0,1,1l.23.2a6.23,6.23,0,0,0,1.69,1,15.79,15.79,0,0,0,3.12.77c.33,0,.67.08,1,.1l.34,0,1.29.11.45,0c1.32.12,2.69.25,4.05.29h.35c.66,0,1.32,0,2,0h.43c.58,0,1.16,0,1.74,0a29,29,0,0,0,4.3-.59,23.38,23.38,0,0,0,5-1.87c1-.45,1.9-.89,2.84-1.25.51-.15,1-.28,1.52-.39a20.75,20.75,0,0,1,2.21-.29c.28,0,.56,0,.84,0h.5c.4,0,.79.08,1.19.14s1,.26,1.51.41c.72.28,1.47.6,2.23,1,1,.54,2.07,1.13,3.08,1.71,1.68,1,3.37,1.92,5.12,2.7,1,.44,1.84.83,2.75,1.18A22.28,22.28,0,0,0,544.6,737l.67.08a14.77,14.77,0,0,0,2.1.19A5.83,5.83,0,0,0,548.21,737.26Z"/><path d="M495.48,575.3l-.9,0a8.84,8.84,0,0,0-1.15.16l.23-.05a7.38,7.38,0,0,0-1.14.31l.21-.07a8.37,8.37,0,0,0-1,.45l.18-.09-.44.27c-.24.17-.48.35-.71.55a10.21,10.21,0,0,0-.73.74,8.58,8.58,0,0,0-.65.84l0,0,0,0v0c-.28.44-.54.87-.78,1.34a12.13,12.13,0,0,1-1.37,2.53,1.38,1.38,0,0,1-2.22.3c-.89.94-1.8,1.87-2.72,2.79-2,2-4,3.87-5.85,5.92a43.36,43.36,0,0,0-2.76,3.56,34.58,34.58,0,0,0-1.74,3c-1.05,2.2-1.93,4.47-2.81,6.74a56.1,56.1,0,0,0-1.69,5.68c-.15.81-.26,1.62-.34,2.44a26,26,0,0,0,0,2.79c.14,1.62.31,3.23.51,4.84s.45,2.9.69,4.34c.18.87.34,1.74.56,2.59.28,1,.56,2,.83,3.07s.76,2.1,1.2,3.14.9,1.94,1.37,2.91c.9,1.69,1.8,3.36,2.85,5a36.2,36.2,0,0,0,2.21,2.89c.87.95,1.78,1.85,2.73,2.72,1.23,1.05,2.51,2.05,3.84,3a47.57,47.57,0,0,0,4.14,2.42c1.22.58,2.46,1.11,3.72,1.58,1.1.37,2.22.68,3.35,1,.57.1,1.14.18,1.73.23,1.19,0,2.38,0,3.57-.05a34,34,0,0,0,3.47-.47c.79-.18,1.56-.39,2.33-.64s1.23-.49,1.84-.78,1-.6,1.56-.92,1.26-1,1.87-1.46c.94-.87,1.84-1.76,2.7-2.71s1.79-2.16,2.61-3.31c.51-.8,1-1.62,1.45-2.47s.67-1.49,1-2.26.49-1.61.68-2.44c.21-1.1.36-2.2.46-3.31.21-4.64,0-9.27-.3-13.9-.21-2.07-.44-4.15-.66-6.22-.1-.91-.32-1.83-.48-2.75l-.48-2.77c-.4-1.63-.79-3.26-1.19-4.89-.2-.8-.5-1.59-.74-2.38s-.45-1.45-.68-2.17a102.74,102.74,0,0,0-4-9.7,48.92,48.92,0,0,0-2.48-4.27q-1.26-1.8-2.68-3.46a34.48,34.48,0,0,0-2.57-2.56q-1-.82-2-1.56c-.71-.46-1.43-.88-2.17-1.28-.45-.21-.89-.41-1.34-.59s-.9-.28-1.35-.4-.84-.13-1.27-.18Zm1.28,90.39a18.2,18.2,0,0,1-2.21-.13,29.39,29.39,0,0,1-3.85-.74,40.85,40.85,0,0,1-6.72-2.35,45.43,45.43,0,0,1-12.67-8.56,39.2,39.2,0,0,1-7.76-10.7c-.81-1.63-1.63-3.26-2.28-5a43.89,43.89,0,0,1-1.84-5.58c-.49-2.08-.91-4.15-1.31-6.25-.3-1.62-.49-3.27-.65-4.92a62.64,62.64,0,0,1-.44-6.71,33.12,33.12,0,0,1,1.06-7.92c.4-1.54.9-3,1.43-4.53q.87-2.48,1.9-4.87c.66-1.52,1.32-3,2.12-4.49a40,40,0,0,1,3.95-5.93,47.42,47.42,0,0,1,3.43-3.8l2.21-2.19,8-7.91a4.63,4.63,0,0,1,6.5,0,4.47,4.47,0,0,1,1,1.67l.05-.06a10.65,10.65,0,0,1,5.14-3.26,12.62,12.62,0,0,1,6.68-.12,21.89,21.89,0,0,1,6.35,2.86,34.34,34.34,0,0,1,10.34,11,78.24,78.24,0,0,1,4.82,9.76c.29.68.6,1.35.85,2,.4,1.13.79,2.27,1.19,3.4.66,1.85,1.14,3.74,1.66,5.63s.81,3.72,1.18,5.58c.34,1.7.55,3.42.77,5.15.46,3.55.78,7.13.92,10.72a69,69,0,0,1,0,9.43,30.39,30.39,0,0,1-1.72,7.59,32,32,0,0,1-3.18,6.19,42.06,42.06,0,0,1-4.89,6.15,28.48,28.48,0,0,1-5.6,4.67,30.2,30.2,0,0,1-14.13,4C498.36,665.65,497.56,665.69,496.76,665.69Z"/><path d="M547.35,659.38a24.52,24.52,0,0,0,5.66-.93,55.07,55.07,0,0,0,5.84-2.13c1.39-.58,2.76-1.24,4.14-1.88a49.4,49.4,0,0,0,4.81-2.58c.79-.48,1.57-1,2.33-1.52a21,21,0,0,0,2.41-2,14,14,0,0,0,3.06-4.29,21.88,21.88,0,0,0,1.58-5.55,55.48,55.48,0,0,0,.7-7.4c0-.7.07-1.4.11-2.09s0-1.27,0-1.89c0-1.36,0-2.71-.08-4.07s-.14-3-.3-4.48c-.07-.69-.15-1.37-.22-2.06s-.28-1.54-.41-2.3c-.27-1.49-.63-3-1-4.42s-.79-2.67-1.22-4-1-2.78-1.51-4.16-1.08-2.59-1.64-3.87-1.35-2.64-2-3.94c-.23-.43-.51-.83-.76-1.24l-1.32-2.09c-.75-1.2-1.58-2.35-2.39-3.51s-1.62-2.31-2.45-3.45-1.79-2.43-2.73-3.62-1.7-2-2.56-3.06a92.13,92.13,0,0,0-6.87-7.24,27.79,27.79,0,0,0-6.44-4.75,14.88,14.88,0,0,0-8-1.61,22.6,22.6,0,0,0-8,1.87,24.54,24.54,0,0,0-6.23,4.15,29.86,29.86,0,0,0-5.1,5.78,19.91,19.91,0,0,0-2.54,5.85c-.66,2.47-1.41,5-1.2,7.59a.94.94,0,0,0,1.88.08h0c0-.43.09-.86.16-1.28s.3-1.08.48-1.62a52.8,52.8,0,0,1,2.18-5.28c.27-.51.56-1,.87-1.47s.79-1.08,1.22-1.59c.69-.74,1.41-1.45,2.16-2.12a29.18,29.18,0,0,1,2.5-1.93c.75-.49,1.51-.94,2.3-1.36s1.69-.76,2.56-1.08c.65-.21,1.31-.39,2-.55s1.54-.24,2.31-.31a27.74,27.74,0,0,1,3.16,0c.39,0,.77.08,1.16.14s.81.2,1.2.32.81.32,1.21.51,1,.55,1.43.85c.73.52,1.42,1.07,2.1,1.66a101.08,101.08,0,0,1,7.84,8.06c.78.9,1.57,1.8,2.31,2.73.95,1.18,1.86,2.36,2.75,3.57,1.57,2.13,3.09,4.29,4.59,6.46.65,1,1.31,2,2,3.05.31.5.56,1.06.84,1.57l.81,1.52,1.43,3.24c.23.54.41,1.11.62,1.66s.42,1.11.62,1.66l1.2,3.72c.18.55.28,1.14.42,1.7s.31,1.32.47,2l.54,3.12c.1.52.11,1.06.16,1.58s.11,1.08.17,1.62c0,1.13.09,2.26.13,3.38s0,2,0,3,0,1.87,0,2.81c-.06,1.13-.13,2.27-.19,3.4a47.32,47.32,0,0,1-.68,4.9,18.72,18.72,0,0,1-.48,1.82c-.16.43-.34.86-.54,1.28-.12.22-.25.44-.39.65s-.19.26-.29.38q-.45.48-.93.93c-.46.39-.92.75-1.41,1.1a41.57,41.57,0,0,1-3.83,2.23,72.4,72.4,0,0,1-8,3.41,40.74,40.74,0,0,1-3.91,1.15c-.78.14-1.57.24-2.36.31q-.92,0-1.83,0c-.63-.06-1.25-.14-1.87-.25a23.53,23.53,0,0,1-2.36-.66,17.22,17.22,0,0,1-1.71-.73c-.88-.46-1.73-1-2.56-1.48s-1.53-1.14-2.26-1.77-1.57-1.53-2.3-2.34c-1-1.12-1.9-2.26-2.87-3.36l.34.39-.45-.52a4.26,4.26,0,0,0-2.12-1.42,4,4,0,0,0-4.56,5.92,41.18,41.18,0,0,0,3.92,5,29.91,29.91,0,0,0,9.17,6.71,23.62,23.62,0,0,0,10.24,2.41Z"/><path d="M561.71,624.48a10.56,10.56,0,0,0,1.2-2,9,9,0,0,0,.61-2.21,8.84,8.84,0,0,0-.83-5.18,9.57,9.57,0,0,0-3-3.58,9,9,0,0,0-2.05-1.14,7.75,7.75,0,0,0-2.82-.52,6,6,0,0,0-1.26.1,6.4,6.4,0,0,0-1.75,0,6.58,6.58,0,0,0-2.77,1.11,6.47,6.47,0,0,0-2.56,4.16,8.16,8.16,0,0,0,.75,4.95,17.45,17.45,0,0,0,6.51,6.54,6.39,6.39,0,0,0,2.4.45A7.1,7.1,0,0,0,561.71,624.48Z"/><path d="M510.59,630.9a5.55,5.55,0,0,0,2.54-2.76,9.4,9.4,0,0,0,.73-3.88,8.6,8.6,0,0,0-1.1-4.06l-.07-.13a7.56,7.56,0,0,0-.79-1.15l-.21-.24a11.58,11.58,0,0,0-1.54-1.51,9.62,9.62,0,0,0-3.67-1.73,6,6,0,0,0-4.11.38,6.54,6.54,0,0,0-2.88,2.63,7.79,7.79,0,0,0-.94,3.88,8.77,8.77,0,0,0,.95,3.91,9,9,0,0,0,3.92,4.19,6.72,6.72,0,0,0,2.18.71,4,4,0,0,0,.92,0,4.26,4.26,0,0,0,.63.22,3.83,3.83,0,0,0,1,.13A5.39,5.39,0,0,0,510.59,630.9Z"/><path d="M1549.42,600.84a30.52,30.52,0,0,0,5-.86,41.86,41.86,0,0,0,4.56-1.61c2.94-1.16,5.76-2.63,8.73-3.75.47-.15.94-.29,1.41-.41l1.07-.16h.42a8,8,0,0,1,.84.11l.1,0a4.43,4.43,0,0,0,3.41-8.09,9.73,9.73,0,0,0-3.92-1.27,13.21,13.21,0,0,0-4.88.59,29.25,29.25,0,0,0-4.57,2c-1.35.66-2.67,1.37-4,2-1.68.82-3.41,1.58-5.16,2.23-.81.26-1.62.48-2.45.66s-1.75.27-2.63.35c-.67,0-1.33,0-2,0s-1.38-.17-2.06-.3-1.32-.33-2-.54c-1-.4-2.07-.86-3.08-1.34a54.94,54.94,0,0,1-5.1-3.05,57,57,0,0,1-5-3.86,45.73,45.73,0,0,1-3.56-3.54c-.62-.73-1.2-1.47-1.76-2.25-.36-.55-.69-1.1-1-1.68-.19-.42-.37-.84-.54-1.27-.07-.24-.14-.49-.19-.74a5.56,5.56,0,0,1-.08-.7v0c0,.11,0,.23,0,.34v-.58c0-.55.13-1.09.22-1.63a9.88,9.88,0,0,0,1.77-2.25c1.07-1.67,2-3.42,3.08-5.07.52-.73,1.06-1.44,1.64-2.12a23.8,23.8,0,0,1,1.74-1.74c.69-.57,1.39-1.12,2.12-1.63s1.71-1.06,2.6-1.53,1.52-.68,2.29-1a34.81,34.81,0,0,1,3.47-.93,40.82,40.82,0,0,1,4.79-.65c1.86-.09,3.71-.1,5.57,0,1.08.09,2.16.21,3.23.4a32.14,32.14,0,0,1,3.23.9c2,.73,3.91,1.62,5.85,2.5l-.31-.15a111.76,111.76,0,0,1,10.91,6l.33.24a2.35,2.35,0,0,0,3.49-3,3.6,3.6,0,0,0-1-1,21.26,21.26,0,0,0-1.94-1.31l-2.5-1.56c-1.18-.74-2.39-1.45-3.59-2.15a70.23,70.23,0,0,0-12.51-6.17,27.7,27.7,0,0,0-5.85-1.17,47.43,47.43,0,0,0-6.95-.29,32.88,32.88,0,0,0-12.31,2.57,27.91,27.91,0,0,0-9.94,7.36,67.22,67.22,0,0,0-4.39,6.06,25,25,0,0,0-1.45,2.23,4.89,4.89,0,0,0-.6,2.95,1.85,1.85,0,0,0,0,.23q-.09.9-.12,1.8a19.58,19.58,0,0,0,0,3.25,19,19,0,0,0,3.57,8.3,40.21,40.21,0,0,0,6.15,6.75,67.43,67.43,0,0,0,7.71,6,37,37,0,0,0,8.27,4.38,23.6,23.6,0,0,0,7.84,1.36C1548.12,600.92,1548.77,600.89,1549.42,600.84Z"/><path d="M1460.65,607.19a29.88,29.88,0,0,0,6.84-1.11,28.38,28.38,0,0,0,6.59-2.87c5.16-3,8.91-7.63,12.59-12.18.48-.6,1-1.18,1.46-1.77a8.26,8.26,0,0,0,1.26-1.9,7.48,7.48,0,0,0,.47-2.77,15.83,15.83,0,0,0-.32-3.7,19,19,0,0,0-1.71-4.36,85.19,85.19,0,0,0-5.36-9A33.81,33.81,0,0,0,1479,563a20.89,20.89,0,0,0-4.83-3.85,20.47,20.47,0,0,0-11.84-2.24c-1.78.13-3.54.29-5.31.5a26.69,26.69,0,0,0-4.34.87c-1.13.33-2.46.8-3,1.92a1.35,1.35,0,0,0,1.75,1.76h0c.21,0,.4-.1.62-.16.72-.12,1.44-.22,2.18-.27,1.75-.09,3.49,0,5.23.06a49,49,0,0,1,5.8.64c.66.16,1.32.33,2,.54s1.1.43,1.64.69,1,.57,1.51.88.91.68,1.35,1,1,1,1.48,1.49c.71.84,1.37,1.71,2,2.61a106,106,0,0,1,5.68,9.85c.38.8.75,1.6,1.07,2.42,0,.16.09.31.13.47s.09.6.12.91,0,.74,0,1.11c-.49.61-1,1.18-1.53,1.78l-1.86,2.19a54.61,54.61,0,0,1-4.27,4.47c-.71.6-1.44,1.17-2.2,1.72s-1.55,1-2.36,1.38-1.62.73-2.46,1-1.42.42-2.15.59a27.38,27.38,0,0,1-2.72.38c-.87,0-1.74,0-2.62,0s-1.67-.21-2.5-.36-1.78-.49-2.65-.79-1.95-.78-2.9-1.24a5,5,0,0,0-4.49,9,19.26,19.26,0,0,0,5.84,2.14,28.38,28.38,0,0,0,6.23.68C1459.92,607.21,1460.29,607.21,1460.65,607.19Z"/><path d="M1454.43,587.37a7.28,7.28,0,0,0,4.45-1.89,8.12,8.12,0,0,0,2.48-5,8.23,8.23,0,0,0-1.19-5.28,9.36,9.36,0,0,0-4.5-3.76,7.17,7.17,0,0,0-5.53-.12,7,7,0,0,0-2.17,1.48,6.35,6.35,0,0,0-1.59,2.82,9.5,9.5,0,0,0-.24,1.48c-.07.25-.14.49-.19.73a7.92,7.92,0,0,0,.47,4.66,8.21,8.21,0,0,0,7.42,4.86A5.83,5.83,0,0,0,1454.43,587.37Z"/><path d="M1538.09,579a3.88,3.88,0,0,0,.49-.11,7.48,7.48,0,0,0,2-.58,3.73,3.73,0,0,0,1.8-5.2,3.82,3.82,0,0,0-.12-.66,7.48,7.48,0,0,0-.87-2,6.94,6.94,0,0,0-1.46-1.6,8.63,8.63,0,0,0-1.9-1.12,9.64,9.64,0,0,0-2.71-.87,5.67,5.67,0,0,0-4.58.79,5.39,5.39,0,0,0-1.44,1.68,4.58,4.58,0,0,0-.48,2.6,7.15,7.15,0,0,0,.54,2,6.8,6.8,0,0,0,1.35,1.92,8.54,8.54,0,0,0,1.88,1.51,12.53,12.53,0,0,0,2.3,1.05,5.19,5.19,0,0,0,2.38.57A5.9,5.9,0,0,0,1538.09,579Z"/><path d="M1572.68,558.77a5.07,5.07,0,0,0,.32-.61c.12-.26.2-.53.3-.78l.72-1.24c.42-.56.83-1.14,1.29-1.69l.84-1a12,12,0,0,0,1-1.26,6,6,0,0,0,.42-.69c.12-.24.23-.48.34-.72a1.47,1.47,0,1,0-2.81-.78c-.06.37-.11.73-.18,1.08l0-.17a16.37,16.37,0,0,1-.51,1.82c-.29.8-.59,1.58-.9,2.37-.14.35-.28.71-.41,1.06-.23.62-.45,1.26-.71,1.87a.31.31,0,0,0-.45.28,1.6,1.6,0,0,0,0,.23h0a.49.49,0,0,0,.33.38l.12,0A.3.3,0,0,0,1572.68,558.77Z"/><path d="M1565.61,554.77a1.67,1.67,0,0,0,.41-.69,1.25,1.25,0,0,0-.07-1,.41.41,0,0,1,0-.11c0-.1,0-.21,0-.32.06-.26.12-.52.2-.79s.28-.66.44-1v0c.41-.78.91-1.52,1.33-2.31a11,11,0,0,0,.93-2.47,2,2,0,1,0-3.83-.79c0,.22,0,.43,0,.65a.66.66,0,0,0,0-.14c0,.32-.08.65-.14,1s-.25.91-.39,1.36-.36,1-.53,1.47l.06-.18a13.68,13.68,0,0,0-.56,1.89,8.63,8.63,0,0,0-.19,1.9,1.22,1.22,0,0,0,0,.78,2.13,2.13,0,0,0,.18.41h0a1.3,1.3,0,0,0,.49.5,1.39,1.39,0,0,0,.69.18A1.35,1.35,0,0,0,1565.61,554.77Z"/><path d="M1555.72,547.57c.1-1,.13-2,.16-3s.07-2.09.12-3.13c0-.64.11-1.28.19-1.91a1.83,1.83,0,1,0-3.65-.25c.11,2.32.14,4.65,0,7,0,.27-.06.55-.11.82a1.66,1.66,0,0,0,1.41,1.85h.21A1.65,1.65,0,0,0,1555.72,547.57Z"/><path d="M1547.37,548.15a2.69,2.69,0,0,0,.74-2.19,40.19,40.19,0,0,0-.74-4.65c-.35-1.73-.69-3.46-1.19-5.15a2.56,2.56,0,1,0-4.93,1.36,33.33,33.33,0,0,1,.93,3.39l-.06-.33.45,2.29c.13.68.19,1.39.29,2.08,0,.45.06.91.08,1.36a2.6,2.6,0,0,0,4.43,1.84Z"/><path d="M1533.24,549.26a.7.7,0,0,0,.59-.78c-.07-.4-.13-.79-.23-1.19s-.21-.74-.31-1.12-.27-1-.41-1.51-.34-1.23-.48-1.84-.25-1.13-.37-1.69-.24-1.34-.35-2a1.65,1.65,0,1,0-3.06,1.06c.21.33.43.67.62,1s.25.48.38.72c.25.51.49,1,.74,1.56s.46,1.07.69,1.61c.44,1,.88,2.1,1.26,3.18,0,.16.11.32.16.48a.71.71,0,0,0,.68.54Z"/><path d="M1524.24,554.67a24,24,0,0,0-1.17-4.34c-.31-1-.64-1.91-1-2.86-.68-2-1.38-3.89-2.18-5.8a2.39,2.39,0,1,0-4.27,2.14c.34.63.67,1.26,1,1.9.57,1.28,1.12,2.55,1.64,3.85s.91,2.49,1.35,3.75l-.09-.26c.16.54.3,1.08.43,1.62l0,.23a2.13,2.13,0,1,0,4.24-.23Z"/><path d="M1517.2,564.33a1.21,1.21,0,0,0,.79-1.64,3.36,3.36,0,0,0-.42-.68c-.29-.38-.58-.77-.86-1.16a22.54,22.54,0,0,1-1.37-2.38c-.47-1-.88-2-1.28-3.06-.16-.49-.33-1-.5-1.48-.1-.3-.21-.61-.31-.92s-.26-.9-.39-1.35a1.52,1.52,0,1,0-2.87,1c.58,1.23,1.11,2.48,1.65,3.73a38.06,38.06,0,0,0,1.88,3.85c.35.62.74,1.21,1.13,1.8s.71,1,1.06,1.44a1.22,1.22,0,0,0,1.19.89A1,1,0,0,0,1517.2,564.33Z"/><path d="M1485.64,577.33l.94-1c.66-.73,1.29-1.48,1.93-2.23s1-1.27,1.53-1.92,1.2-1.58,1.79-2.37a1.9,1.9,0,1,0-3.34-1.67c0,.15-.09.3-.13.45-.27.7-.55,1.38-.85,2.08s-.57,1.12-.86,1.68-.6,1-.91,1.55-.61,1-.93,1.55c-.14.22-.28.44-.4.67a6,6,0,0,0-.45.92,1.22,1.22,0,0,0-.07.17.69.69,0,0,0,0,.35h0a.69.69,0,0,0,.6.6h.11C1485,578.15,1485.35,577.64,1485.64,577.33Z"/><path d="M1478.32,568.49a2.2,2.2,0,0,0,.38-.54c.19-.39.36-.78.51-1.18.26-.65.46-1.32.69-2,.33-1,.68-2,1-3s.84-2.2,1.26-3.3a1.77,1.77,0,1,0-3.38-.93c-.11,1.14-.31,2.25-.52,3.38-.42,1.77-.82,3.56-1.4,5.28l-.3.75h0a1.12,1.12,0,0,0-.27.74,1.18,1.18,0,0,0,1.17,1.16h0A1.2,1.2,0,0,0,1478.32,568.49Z"/><path d="M1472.62,559.76c0-.59,0-1.19,0-1.79s0-1.41,0-2.12c0-1.44.09-2.88.17-4.33.05-.44.1-.88.14-1.32s.1-.59.16-.89.1-.35.14-.53a2,2,0,1,0-3.83,0c.13.44.24.89.34,1.34s.17,1,.22,1.52c.06.68.13,1.36.19,2.05.06.91.12,1.83.14,2.74,0,1.11.1,2.23.06,3.33a1.12,1.12,0,0,0,1.11,1.12A1.13,1.13,0,0,0,1472.62,559.76Z"/><path d="M1463.37,557.93a.88.88,0,0,0,.31-1.2.61.61,0,0,0-.12-.16c-.1-.65-.17-1.3-.23-2-.12-1.83-.24-3.65-.26-5.48a1.44,1.44,0,1,0-2.82.38c.15.5.28,1,.4,1.52.2,1.05.4,2.11.59,3.17.15.83.32,1.65.51,2.47a1.93,1.93,0,0,0,.58,1.17,1,1,0,0,0,.58.19A.92.92,0,0,0,1463.37,557.93Z"/><path d="M1454.48,558.38a2.68,2.68,0,0,0,1-.21,2.2,2.2,0,0,0,.5-3.78l0,0c-.63-1.85-1.27-3.68-1.84-5.54a2.26,2.26,0,1,0-4.26,1.48c.75,1.6,1.37,3.26,2,4.92a11,11,0,0,0,.87,2.11,2.11,2.11,0,0,0,1.72,1Z"/><path d="M1484.18,771.31a31,31,0,0,0,8.81-1.88,19,19,0,0,0,4.06-2.14,16.18,16.18,0,0,0,3.07-2.83,5,5,0,0,0,1.08-3.18,5.21,5.21,0,0,0-4.49-5.16,5,5,0,0,0-3.89,1c-.64.55-1.31,1.06-2,1.55-.37.24-.75.45-1.14.66-.67.31-1.34.58-2,.84-.89.29-1.78.54-2.69.75s-1.84.3-2.77.38h-.72c.12-.75.26-1.51.38-2.26.28-1.7.64-3.39.92-5.09.13-.79.32-1.6.38-2.4.09-1,.17-2,.25-3s.07-2,.09-3.06c0-.68,0-1.36,0-2,0-3.93,0-7.86,0-11.79,0-1.48.06-3,.1-4.45,0-1.66,0-3.33.14-5,.21-3.43.43-6.86.62-10.29.19-3.61.42-7.23.48-10.85s.14-7.2.15-10.8,0-7,.11-10.46c.09-2.89.17-5.79.26-8.68l.9-10.41c.09-1,.26-1.93.4-2.89.32-2.2.64-4.41,1-6.61.46-3.17,1.1-6.33,1.67-9.48.51-2.84,1.08-5.66,1.62-8.49.12-.53.22-1.05.33-1.58.18-.87.38-1.71.63-2.56l.12-.29a1.24,1.24,0,0,0,.64-1.23,2.47,2.47,0,0,0-.2-.69,1.19,1.19,0,0,0-2.17,0,18,18,0,0,0-.94,2.57c-.3,1.07-.5,2.17-.73,3.25-.15.66-.28,1.33-.42,2-.38,1.83-.78,3.66-1.15,5.49-.66,3.27-1.39,6.54-2,9.83-.37,2.08-.73,4.17-1.1,6.26-.22,1.29-.49,2.58-.65,3.88-.26,2.13-.51,4.25-.77,6.38-.18,1.5-.43,3-.54,4.53a1.79,1.79,0,0,0,0-.23q-.4,5.94-.8,11.89v0c-.24,3.57-.37,7.16-.55,10.73l0-.29c-.14,1.83-.27,3.66-.4,5.49-.11,1.54-.17,3.11-.33,4.65-.38,3.45-.72,6.91-1.14,10.36-.43,3.65-.9,7.28-1.21,10.94l-.51,6.05c-.16,1.92-.22,3.86-.33,5.78,0,.74-.09,1.48-.13,2.23-.11,1.77-.18,3.56-.39,5.32l-.45,3.51c-.11.94-.35,1.87-.54,2.8,0-.08,0-.15,0-.23-1.12,4.44-2.31,8.88-3.19,13.39a5.15,5.15,0,0,0,.54,3.67,8.06,8.06,0,0,0,1.29,1.62,7.92,7.92,0,0,0,1.9,1.28,15.64,15.64,0,0,0,6.63,1.26C1483,771.36,1483.61,771.34,1484.18,771.31Z"/><path d="M1525.17,814.78a33.53,33.53,0,0,0,10-4,32,32,0,0,0,8.13-7.25,36.44,36.44,0,0,0,5-8.41c.6-1.35,1.21-2.69,1.85-4,.24-.48.48-.95.75-1.41a7.67,7.67,0,0,0,.83-1.61,3,3,0,0,0-4.65-3.12,7.18,7.18,0,0,0-1.24,1.5c-.48.66-.92,1.36-1.35,2.06-1.22,2-2.39,4-3.67,6-.75,1-1.52,2.07-2.35,3.06s-1.75,1.83-2.69,2.69c-.81.67-1.64,1.29-2.5,1.89s-1.46.91-2.22,1.32c-1.1.53-2.21,1-3.35,1.42s-2.53.74-3.82,1c-1.54.27-3.08.46-4.64.58a52.52,52.52,0,0,1-5.75,0c-2.59-.21-5.13-.61-7.69-1.07s-4.94-1.06-7.36-1.82c-.3-.12-.6-.24-.9-.38a5.61,5.61,0,1,0-2.94,10.72c3,.29,6,.83,9,1.26a81.53,81.53,0,0,0,9.36.82h1.26A50.84,50.84,0,0,0,1525.17,814.78Z"/><path d="M1565.28,794.79a7.29,7.29,0,0,0,5.54-3.07,5.6,5.6,0,0,0,1.12-3.29,5.36,5.36,0,0,0-5.37-5.37,5.26,5.26,0,0,0-2.6.69c-.69-.17-1.36-.37-2-.59-.86-.31-1.7-.65-2.53-1s-1.58-.88-2.34-1.37c-.58-.43-1.13-.87-1.68-1.34-.85-.76-1.64-1.56-2.41-2.4-.24-.32-.48-.63-.71-1-.38-.59-.74-1.19-1.07-1.81s-.53-1.2-.77-1.81-.31-1-.43-1.58c-.14-.82-.22-1.66-.36-2.49A5.18,5.18,0,0,0,1546,764a5,5,0,0,0-6.16,3.5c-.08.33-.15.66-.22,1a9.09,9.09,0,0,0,0,1.65,19.35,19.35,0,0,0,.43,3.12,22.93,22.93,0,0,0,1.89,5.4,28.89,28.89,0,0,0,3.11,5,29.36,29.36,0,0,0,4.25,4.31,32.89,32.89,0,0,0,10,5.62,16.46,16.46,0,0,0,5.61,1.26Z"/></svg>