<svg id="Layer_1" data-name="Layer 1" xmlns="http://www.w3.org/2000/svg" viewBox="0 0 1920 1080"><defs><style>.cls-1{font-size:60px;font-family:VarelaRound-Regular, Varela Round;}.cls-2{letter-spacing:-0.01em;}.cls-3{letter-spacing:-0.01em;}.cls-4{letter-spacing:-0.01em;}.cls-5{letter-spacing:-0.01em;}.cls-6{letter-spacing:0em;}.cls-7{fill:#1a1a1a;opacity:0.8;}.cls-8{fill:#f3f3ff;}.cls-9{letter-spacing:-0.01em;}.cls-10{letter-spacing:-0.03em;}.cls-11{letter-spacing:0em;}.cls-12{letter-spacing:-0.01em;}.cls-13{letter-spacing:0em;}.cls-14{fill:#b3f4ff;}</style></defs><text class="cls-1" transform="translate(1125.45 94.49)"><tspan class="cls-2">O</tspan><tspan x="48.18" y="0">h </tspan><tspan class="cls-3" x="100.32" y="0">m</tspan><tspan x="154.86" y="0">y dear cloud, </tspan><tspan x="0" y="72">thinking li</tspan><tspan class="cls-2" x="278.46" y="72">k</tspan><tspan x="310.62" y="72">e th</tspan><tspan class="cls-4" x="419.63" y="72">a</tspan><tspan x="452.63" y="72">t will </tspan><tspan x="0" y="144">ma</tspan><tspan class="cls-2" x="88.8" y="144">k</tspan><tspan x="120.96" y="144">e </tspan><tspan class="cls-5" x="170.52" y="144">y</tspan><tspan x="202.32" y="144">ou bur</tspan><tspan class="cls-6" x="388.32" y="144">s</tspan><tspan x="416.88" y="144">t.</tspan></text><circle class="cls-7" cx="439.5" cy="631.5" r="327.5"/><path class="cls-8" d="M766.72,773.18c0,23.17,43.85,90.84.75,107.37C740.67,890.82,664,903,626.05,909c-39.83,6.25-153.88,12-201.28,12-50.88,0-148.1,2.65-190-4.49-37.95-6.45-63-53.14-68.09-80.81-11.22-60.6-2.72-73.07,14.22-86.79,43.4-35.17,62.1-20.2,104-17.21,25.92,1.85,29.13-33.1,57.62-55.37,41.15-32.18,24.69-122,158.62-122,49.23,0,76.52,31.8,113,51.62,34.42,18.71,29.27,83.92,53.87,92.79C714.65,715.55,766.72,748.94,766.72,773.18Z"/><path d="M341.87,923.07c-6.36-.05-12.72-.34-19.06-.59q-10.95-.45-21.91-.72l-9.75-.26c-3.29-.09-6.6-.23-9.88-.47s-6.72-.46-10.08-.77l-10.91-1q-5.28-.51-10.58-1c-2.92-.27-5.86-.48-8.78-.8l-6.24-.68c-1.58-.17-3.14-.46-4.71-.7-2.45-.37-4.86-.81-7.29-1.34a82,82,0,0,1-10.83-3.32l-5.34-2c-1.73-.65-3.42-1.42-5.12-2.13-1.24-.51-2.45-1.06-3.67-1.61-1.66-.76-3.33-1.49-4.95-2.35-1.77-.93-3.56-1.83-5.28-2.85a65.78,65.78,0,0,1-9.45-6.68,53.61,53.61,0,0,1-7.73-7.63c-1.14-1.45-2.22-2.89-3.29-4.39s-2-3-3-4.55a83.47,83.47,0,0,1-5-9.23c-.36-.74-.63-1.55-.94-2.31-.23-.58-.44-1.15-.65-1.73-.69-2-1.37-4-2-6-1-3.28-1.93-6.59-2.79-9.92-.41-1.56-.75-3.12-1.1-4.7-.21-1-.47-1.94-.62-2.9s-.28-1.94-.43-2.91a86.53,86.53,0,0,1-.79-10.42c-.1-3.23-.1-6.47.07-9.7.12-2.27.22-4.55.42-6.82a78.12,78.12,0,0,1,2.53-14.24,86.48,86.48,0,0,1,4.88-12.93c.92-2,2-4,3-5.94.68-1.33,1.45-2.61,2.2-3.9s1.63-2.77,2.49-4.13c1-1.53,1.91-3.1,3-4.58l3.52-5c.89-1.25,1.89-2.44,2.83-3.65s1.8-2.27,2.76-3.37l3.79-4.39c1.29-1.49,2.71-2.86,4.08-4.27.92-.94,1.81-1.9,2.79-2.77l4.7-4.21c1.36-1.22,2.86-2.28,4.31-3.39s2.75-2,4.17-3c1.26-.84,2.5-1.73,3.82-2.5,1.75-1,3.49-2.13,5.31-3,2.47-1.23,4.91-2.48,7.47-3.51A58.48,58.48,0,0,1,233.38,718a59.52,59.52,0,0,1,20.28,1.62l2.82.67a53,53,0,0,1,7.14,2.39,56.09,56.09,0,0,1,13.71,8c2.48,1.9,4.73,4.1,7,6.23l4.34,4.09h0a86.8,86.8,0,0,0,6.78,5.48l.24.13a.67.67,0,0,1,.07,1.32,1,1,0,0,1-.42,0,20.92,20.92,0,0,1-2.63-1.22,60.07,60.07,0,0,1-5.36-3.19c-1.52-1-3-2.1-4.42-3.16s-3.07-2.19-4.6-3.29c-1.84-1.19-3.7-2.34-5.66-3.36a55.31,55.31,0,0,0-5.54-2.38c-1.93-.64-3.87-1.18-5.86-1.63s-4.23-.72-6.37-.93c-1.43-.09-2.87-.23-4.3-.23-2.6,0-5.19,0-7.78.13a46.95,46.95,0,0,0-12.67,2.68c-2.23.83-4.4,1.75-6.54,2.78-2.33,1.22-4.58,2.58-6.84,3.92-.68.41-1.32.88-2,1.32l-2.25,1.5-4.71,3.5c-.87.64-1.67,1.39-2.5,2.08l-2.07,1.71-5,4.76c-.86.82-1.64,1.77-2.45,2.65l-2.51,2.7c-2.08,2.51-4.18,5-6.14,7.61-1,1.32-2,2.61-2.94,4l-2.76,4c-1.09,1.77-2.18,3.53-3.26,5.3s-2.07,3.63-3.09,5.45c-.62,1.23-1.23,2.46-1.84,3.69a80.07,80.07,0,0,0-3.62,8.54,70.83,70.83,0,0,0-2.1,7.54c-.55,3-.91,5.92-1.17,8.91-.14,2.65-.29,5.3-.3,7.95,0,1.28-.06,2.56,0,3.84l.15,4.57c.11,1.28.21,2.56.31,3.84.07.78.24,1.56.36,2.33s.21,1.4.31,2.1l.89,4c.36,1.66.86,3.31,1.29,5,.78,3,1.72,5.92,2.63,8.86.46,1.32.92,2.63,1.45,3.93s1.18,2.72,1.82,4.06,1.37,2.5,2.11,3.73,1.58,2.52,2.39,3.77l1.76,2.47c.6.86,1.29,1.67,2,2.49.51.57,1,1.13,1.54,1.69s1.31,1.26,2,1.87c1.84,1.55,3.71,3.06,5.69,4.46a58.42,58.42,0,0,0,5,3c1.11.58,2.22,1.16,3.32,1.75,2.95,1.34,5.9,2.66,8.89,3.91s6,2.36,9.05,3.49c1.61.55,3.22,1.07,4.86,1.54s3.06.78,4.6,1.11c4.86.93,9.79,1.44,14.71,2,4.5.49,9,.82,13.54,1.22,4.2.38,8.4.82,12.6,1.21,4.49.42,9,.78,13.51,1.11q9.9.44,19.81.67c7.05.16,14.1.43,21.15.71,13,.53,26.06.87,39.08.47,7-.22,14-.45,21-.58q10.86-.2,21.73-.45c13.73-.35,27.45-1,41.16-1.72,11.18-.64,22.35-1.37,33.53-2.11l21.25-1.55c6.25-.45,12.51-.88,18.77-1.18l12.08-.58c3.63-.17,7.28-.24,10.91-.36,6.47-.22,12.93-.4,19.39-.71l6.77-.33c13.54-.93,27.07-2,40.6-3.06,13-1,26-1.82,39-2.79s25.78-2,38.65-3.33c6.24-.63,12.48-1.38,18.7-2.15,3.2-.39,6.39-.84,9.59-1.27,2.85-.39,5.69-.92,8.52-1.39l6.44-1.34c1.38-.29,2.75-.73,4.12-1.09,1.71-.45,3.39-.94,5.07-1.49a66.24,66.24,0,0,0,6.33-2.67c1.39-.74,2.76-1.52,4.1-2.36,1-.7,1.91-1.42,2.83-2.18s1.65-1.58,2.43-2.42a73,73,0,0,0,4.51-5.86c1.9-2.87,3.62-5.83,5.37-8.8.48-.82.87-1.69,1.3-2.53.5-1,1-2,1.51-3,1.06-2.31,2.05-4.64,2.92-7a103.39,103.39,0,0,0,3-11c.47-2.44.8-4.9,1.17-7.36.26-1.74.36-3.51.51-5.27.1-2.66.07-5.31-.08-8-.26-3.06-.74-6.1-1.17-9.15-.47-2.15-.92-4.3-1.39-6.45-.22-1-.6-2-.89-3.06-.38-1.29-.77-2.58-1.15-3.88q-1.09-3-2.21-5.94c-.3-.81-.71-1.6-1.06-2.4l-1.39-3.13-2.18-4.14c-.72-1.37-1.54-2.67-2.34-4s-1.7-2.85-2.63-4.23l-2.7-4-4-5.32c-.55-.72-1.17-1.38-1.75-2.07s-1.39-1.63-2.08-2.45c-2.17-2.32-4.33-4.64-6.57-6.9s-4.41-4.29-6.65-6.4c-2.23-1.87-4.44-3.73-6.74-5.5-1.07-.83-2.13-1.68-3.24-2.45l-3.93-2.74c-2.71-1.69-5.39-3.38-8.22-4.86-1.7-.8-3.42-1.53-5.19-2.19a68.25,68.25,0,0,0-6.9-1.88c-2.2-.4-4.41-.67-6.63-1-1.35-.18-2.72-.26-4.09-.35-2.07-.09-4.13-.18-6.19-.2-2.3,0-4.59,0-6.89.1-1.92.14-3.84.28-5.75.48-2.14.22-4.27.48-6.4.75s-4.46.51-6.67.85c-1.08.16-2.17.29-3.24.5l-2.76.56c-2.47.66-4.93,1.34-7.38,2.09l.35-.13c-.85.29-1.73.57-2.55.93L640,723.58c-1,.51-2,1-3,1.53-1.43.72-2.8,1.56-4.19,2.34-2.68,1.5-5.31,3.09-8,4.63-5.5,3.18-10.94,6.47-16.29,9.92a7.93,7.93,0,0,1-6.22.81,8.07,8.07,0,0,1-4.25-12.73,9.19,9.19,0,0,1,2.31-2c5.43-3.64,11-7,16.61-10.36,6-3.52,11.93-7.21,18.3-10a84,84,0,0,1,20.94-5.76c3.2-.49,6.44-.84,9.66-1.23,3.43-.42,6.86-.73,10.31-1s6.91-.22,10.37-.18c1.84,0,3.72.11,5.56.26,1.59.13,3.21.18,4.8.39l5,.65a57.55,57.55,0,0,1,6.24,1.29,66.28,66.28,0,0,1,7.29,2.3,53.71,53.71,0,0,1,5.91,2.63c1.37.7,2.76,1.41,4.07,2.22l4.94,3.07c1.74,1.08,3.39,2.34,5.07,3.51,1.4,1,2.73,2,4.08,3.08,1.13.86,2.23,1.74,3.32,2.66,1.47,1.24,3,2.45,4.41,3.76l4.25,4c1.29,1.21,2.5,2.52,3.75,3.77,1,1,2,2,2.92,3.07,1.27,1.37,2.57,2.72,3.78,4.14l3.76,4.43c1.17,1.37,2.2,2.89,3.3,4.32.87,1.16,1.68,2.35,2.49,3.55,1,1.5,2.09,3,3,4.49l3,5c.8,1.32,1.49,2.67,2.2,4s1.56,2.85,2.22,4.33q1.15,2.63,2.32,5.23c.25.56.43,1.17.64,1.74l1.2,3.23c.57,1.53,1.09,3.06,1.55,4.62l1.56,5.32c.17.56.26,1.17.38,1.75l.84,3.91c.29,1.39.58,2.78.78,4.19.27,2,.55,3.92.82,5.88.17,1.19.22,2.4.29,3.6s.14,2.48.18,3.73a55.86,55.86,0,0,1-.17,6.47l-.48,5.38c-.06.68-.21,1.36-.31,2l-.51,3.39a92.76,92.76,0,0,1-2.36,10.67,89.48,89.48,0,0,1-4.66,12.94c-1,2.2-2.14,4.33-3.23,6.48a106.23,106.23,0,0,1-5.61,9.62,74.27,74.27,0,0,1-7.66,10.16,47,47,0,0,1-11.2,8.9,62.11,62.11,0,0,1-11.49,5.11c-2.37.8-4.75,1.44-7.17,2.07-3.23.85-6.49,1.49-9.76,2.17-1.76.37-3.53.63-5.3.93-1.48.24-3,.51-4.45.71q-5.37.74-10.76,1.42c-13.68,1.69-27.39,3-41.12,4.16-13.44,1.11-26.9,1.93-40.35,2.93-14.1,1-28.2,2.16-42.29,3.26q-9.9.78-19.81,1.25c-6.6.32-13.21.52-19.82.74-7,.24-14,.5-20.94.84-5.87.28-11.73.67-17.59,1-13.48,1-27,2-40.45,2.81s-26.71,1.7-40.08,2.2c-7,.26-14,.51-21,.69-7.29.19-14.57.31-21.86.44-6.86.12-13.72.37-20.58.59-3,.09-6.08.12-9.12.12C348.92,923.14,345.4,923.1,341.87,923.07Z"/><path d="M667,706a1.16,1.16,0,0,1-1.13-1.43v0c0-.05,0-.11,0-.17s0-.22,0-.34-.06-.46-.11-.68c-.43-1.93-.93-3.85-1.48-5.75s-1.26-4-1.95-6l-.93-2.26c-.31-.76-.58-1.56-.94-2.3-.78-1.6-1.55-3.21-2.33-4.82-1.64-3-3.29-6-5-8.89s-3.54-5.7-5.36-8.53-3.87-5.47-5.91-8.14-4.2-5.39-6.34-8.05q-3.4-4.24-6.83-8.47c-2.11-2.6-4.27-5.17-6.44-7.73l-3.53-3.82c-1-1.08-2.05-2.09-3.1-3.12s-2.18-2.16-3.32-3.19l-3.92-3.54c-2.14-1.78-4.26-3.57-6.49-5.24-1.2-.9-2.36-1.86-3.61-2.69l-4.45-3c-3.75-2.29-7.49-4.6-11.35-6.7q-6.08-3.3-12.2-6.48c-2.55-1.26-5.1-2.54-7.68-3.74q-5-2.32-10-4.63c-3.17-1.46-6.35-2.9-9.52-4.35-2.79-1.27-5.68-2.36-8.51-3.53l-5.9-2c-1.74-.59-3.51-1-5.29-1.51s-3.63-1-5.48-1.4l-6.1-1.26c-3.91-.66-7.81-1.32-11.74-1.85-1.78-.24-3.55-.51-5.34-.68l-6.64-.63a171.19,171.19,0,0,0-19.22-.33,80.29,80.29,0,0,0-8.75,1.17,73.86,73.86,0,0,0-8,2.19c-2.94,1.06-5.78,2.33-8.65,3.57l-4.39,2.24c-1.64.85-3.21,1.84-4.8,2.77-3,1.71-5.83,3.61-8.71,5.47-1.63,1.12-3.25,2.24-4.83,3.42s-3.08,2.46-4.59,3.73c-1.76,1.64-3.51,3.29-5.21,5s-3.55,3.65-5.24,5.55c-1.22,1.42-2.36,2.88-3.43,4.41s-1.8,2.93-2.61,4.45c-.52,1.07-1,2.14-1.55,3.21s-.95,2.32-1.41,3.47a65.88,65.88,0,0,0-2,6.6q-.19,1.25-.33,2.49a7.9,7.9,0,0,1-2.22,5.32,7.57,7.57,0,0,1-12.92-5.35,28.65,28.65,0,0,1,1-7.49c.59-2.21,1.33-4.36,2.08-6.51a45.39,45.39,0,0,1,2-5l1.56-3.24a58.12,58.12,0,0,1,4.41-7.45,81.45,81.45,0,0,1,7.42-8.87c1.38-1.52,2.82-3,4.25-4.46s2.9-2.86,4.42-4.18,3.17-2.79,4.83-4.09c3.34-2.59,6.81-5,10.35-7.33,3.37-2.21,6.74-4.46,10.3-6.36,2-1,3.95-2.17,6-3.09,2.8-1.26,5.57-2.52,8.47-3.56a78.39,78.39,0,0,1,17.5-4.08,89.35,89.35,0,0,1,11.91-.53c1.94,0,3.89,0,5.83.13l7.24.42c2.41.14,4.81.45,7.21.69,1.74.18,3.45.4,5.17.65s3.71.48,5.55.8L514,556.2c2.36.42,4.69,1,7,1.51,1.67.36,3.29.76,4.93,1.22,2.25.63,4.54,1.18,6.74,2l7,2.47c1.66.59,3.25,1.31,4.86,2s3.33,1.39,4.95,2.16q6.23,3,12.42,6c3.5,1.68,7,3.37,10.43,5.16,3.92,2.05,7.8,4.15,11.67,6.29,3.64,2,7.17,4.22,10.7,6.41A123.68,123.68,0,0,1,614.3,606.2a121.78,121.78,0,0,1,8.72,8.88c1.35,1.55,2.79,3,4.05,4.68s2.73,3.52,4.1,5.27c.54.69,1,1.44,1.51,2.16l2.34,3.33c1.26,1.8,2.44,3.66,3.65,5.5q3.15,4.76,6.18,9.61c2.07,3.31,4.16,6.63,6,10.08,1.06,2,2.18,3.91,3.15,5.91s2,4.06,3,6.09c1.83,3.76,3.43,7.63,5.06,11.48a105.85,105.85,0,0,1,3.79,11.23c.4,1.38.67,2.8,1,4.19s.56,2.64.79,4a45.41,45.41,0,0,1,.73,4.77c.07.95,0,2.65-1.29,2.65Z"/><path d="M286.94,792.9a23.19,23.19,0,0,1-4.32-4.64,23.51,23.51,0,0,1-2.56-6,47.54,47.54,0,0,1-1.41-5.1,43.73,43.73,0,0,1-.85-9.06,94.41,94.41,0,0,1,.91-11.27l.39-3.08c.11-.87.33-1.74.5-2.6.4-2.08.74-4.18,1.3-6.23.61-2.23,1.12-4.5,1.9-6.68l2.33-6.5c.26-.71.62-1.4.93-2.1.6-1.33,1.19-2.68,1.79-4,.85-1.91,1.89-3.74,2.87-5.58l1.33-2.51c.39-.74.89-1.44,1.33-2.15,1.12-1.81,2.2-3.65,3.42-5.39l3.89-5.51c.52-.74,1.12-1.44,1.68-2.16l2.47-3.15c1.27-1.63,2.64-3.19,4-4.78,1.17-1.4,2.37-2.78,3.57-4.16s2.51-2.93,3.83-4.35l4.85-5.2c.48-.51,1-1,1.52-1.47l3.23-3.14c1.3-1.26,2.65-2.46,4-3.67s2.94-2.65,4.45-3.94q5.08-4.35,10.23-8.64c3.19-2.66,6.5-5.16,9.83-7.64,1.61-1.19,3.28-2.3,4.94-3.42.82-.56,1.62-1.16,2.47-1.67l2.7-1.64,2.93-1.77c.74-.45,1.54-.83,2.31-1.24,1.89-1,3.76-2,5.69-2.89,3.87-1.82,7.81-3.46,11.77-5.07,1.86-.75,3.74-1.42,5.61-2.12a59.22,59.22,0,0,1,6.07-1.9,38.23,38.23,0,0,1,7.66-1.3,32.56,32.56,0,0,1,4.19.08,21.69,21.69,0,0,1,4.28.95,25.84,25.84,0,0,1,3.95,1.67,24.73,24.73,0,0,1,3.61,2.15,21.89,21.89,0,0,1,3.08,2.59,4.64,4.64,0,0,1,1.19,1.9,1.29,1.29,0,0,1-.87,1.58,1.26,1.26,0,0,1-1.53-.87s0,0,0-.06l0,0-.25-.36a.63.63,0,0,1,.1.12,7.1,7.1,0,0,0-.75-.8c-.47-.39-.95-.76-1.45-1.12a28.86,28.86,0,0,0-2.58-1.5,29.42,29.42,0,0,0-2.89-1.22c-.79-.27-1.59-.5-2.41-.7-1-.19-2-.34-3-.43-.66,0-1.3,0-2,0l.27,0a31,31,0,0,0-3.72.47,40.22,40.22,0,0,0-4.74,1.37,61,61,0,0,0-5.65,2.41c-1.77.91-3.57,1.78-5.3,2.76-2.18,1.23-4.36,2.47-6.51,3.73s-4.06,2.45-6.08,3.7c-1.72,1.06-3.38,2.22-5.05,3.35l-4.48,3.26c-1.24.91-2.43,1.88-3.62,2.83s-2.28,1.78-3.37,2.73l-4.07,3.52q-7,6.46-14,13c-2.39,2.27-4.74,4.58-7.1,6.88-.87.85-1.69,1.74-2.53,2.61-1.07,1.12-2.19,2.19-3.22,3.34-1.73,2-3.46,3.94-5.2,5.9q-4.78,5.81-9.49,11.68c-2.87,3.6-5.48,7.38-8.1,11.16l-3.84,6.26c-.62,1-1.12,2.12-1.67,3.16l-1.56,2.95c-1,2.19-1.95,4.37-2.92,6.56-.45,1-.77,2.15-1.15,3.21s-.69,1.91-1,2.87l-1.8,6.5c-.18,1-.37,1.91-.55,2.86s-.51,2.2-.65,3.3c-.39,3-.82,6.06-1.06,9.11-.11,1.95-.15,3.89-.07,5.84.1,1.18.26,2.34.47,3.5.24,1,.52,2,.82,3a43.88,43.88,0,0,0,1.58,4.13c0,.09.1.19.16.28.27.36.54.72.83,1.07l.76.81a6.48,6.48,0,0,1-3.7,11,8.29,8.29,0,0,1-.87.06A6.21,6.21,0,0,1,286.94,792.9Z"/><circle class="cls-7" cx="1435.5" cy="687.5" r="327.5"/><text class="cls-1" transform="translate(137.45 124.49)">I am <tspan class="cls-5" x="137.1" y="0">w</tspan><tspan x="184.2" y="0">orried and </tspan><tspan class="cls-6" x="0" y="72">c</tspan><tspan x="31.74" y="72">o</tspan><tspan class="cls-9" x="68.22" y="72">n</tspan><tspan x="103.98" y="72">fused, and </tspan><tspan class="cls-10" x="0" y="144">f</tspan><tspan class="cls-11" x="21.18" y="144">earing the </tspan><tspan class="cls-12" x="325.79" y="144">w</tspan><tspan x="372.9" y="144">or</tspan><tspan class="cls-6" x="432.35" y="144">s</tspan><tspan class="cls-13" x="460.91" y="144">t.</tspan></text><path class="cls-14" d="M1568.94,821.23c.21-.76.41-1.53.58-2.29-.42,1.45-.85,2.91-1.26,4.37C1568.49,822.62,1568.72,821.93,1568.94,821.23ZM1356.53,1047.3a29.45,29.45,0,0,1-10.37-1.55l-2.4-.74c-7-2.14-13.34-9.46-14.23-16.74-.08-.69-.17-1.38-.25-2.06-.48-3.92-.73-7.62.24-11.5a82.79,82.79,0,0,1,2.64-9.74c1.8-4.72,3.65-9.4,5.59-14.06,3.11-7.48,5.73-15.06,8.13-22.78l1.44-5.23c1-3.54,2-7,3.14-10.53a34.87,34.87,0,0,1,1.21-3.92q3.19-7.28,6.4-14.54c.44-1,1.09-2,1.63-2.92l2.76-4.9c6.42-11.41,14.33-21.87,21.5-32.8,7.93-13.91,14.91-28.33,21.54-42.91,5.85-14.55,11.17-29.32,16.14-44.2,3-11.15,5.57-22.41,8.32-33.62,1.58-6.41,3.19-12.81,4.31-19.31q1.44-8.36,2.81-16.7c.52-4.07,1-8.12,1.29-12.23.23-3,.34-5.9.42-8.85,0-3.9-.08-7.79-.27-11.68-.17-3.38-.45-6.72-.78-10.08-1-7.08-2-14.17-3.09-21.23-.71-4.48-1.44-8.94-2.3-13.4-.46-2.4-1-4.77-1.6-7.14-2.06-6.75-4.26-13.47-6.2-20.27-1.49-5.22-2.75-10.5-4-15.78-.66-2.79-1.18-5.62-1.88-8.4l-2.22-8.59c.47,1.8.93,3.6,1.4,5.4a130.24,130.24,0,0,0-4.42-13.06c-1.46-3.39-2.94-6.75-4.53-10.1-1.89-4-3.92-7.86-6-11.76-4.26-7.39-8.59-14.74-12.56-22.29-3.83-7.28-7.62-14.58-11.49-21.84-3-5-6-10-9.26-14.79-3.9-5.78-7.84-11.51-11.92-17.17l-6.54-8.69c-5.36-7.1-10.77-14.15-16.45-21-5-6-10.25-11.76-15.6-17.44-9.28-9-18.79-17.75-27.94-26.87a92.24,92.24,0,0,1-8.37-9.2c-2-2.56-4.08-4.95-6.2-7.36-3.65-4.16-7.4-8.21-11-12.41a28.18,28.18,0,0,1-9-22.84c1-11.78,9.84-21.19,20.72-24.94,4-1.37,8.1-2.34,12.2-3.34,3.53-.85,7.07-1.68,10.63-2.37,7.22-1.4,14.47-2.59,21.72-3.8,8.19-1.36,16.35-2.71,24.62-3.5,7.22-.69,14.47-1.3,21.71-1.76,10.36-.65,20.75-.81,31,1,3.7.66,7.35,1.3,11,2.26,5.5,1.44,10.93,3.07,16.35,4.79,6.84,2.18,13.57,4.78,20.32,7.24,5,1.81,9.79,3.93,14.62,6.07a79.38,79.38,0,0,1,9,4.52l2.36,1.43,2.57,1.55.32.19-2.09-1.27,5.14,3.11.13.08,1.62,1h0l.43.25a191.66,191.66,0,0,1,20.25,14.66c2.62,2.1,5.33,4.11,7.81,6.37,3.9,3.53,7.64,7.14,11.21,11,10.17,11,18.28,23.77,27,36q5,6.62,10,13.23c3.38,4.44,6.65,9,9.94,13.47a87.93,87.93,0,0,1,5.19,7.89c4.43,7.72,8.82,15.44,12.83,23.4q5.28,10.5,10.66,20.95c6.49,12.6,13.47,25,20.16,37.46,3.5,6.53,6.88,13.12,10.27,19.7,2.12,4.15,4,8.43,5.81,12.72,2.55,6.14,5.06,12.29,7.06,18.62a209.17,209.17,0,0,1,7.1,30c1.2,7.57,2.38,15.15,3.59,22.72,1.14,7.07,2.19,14.16,3.73,21.15,1.58,7.16,3.4,14.24,5.14,21.36,1.79,7.37,3.37,14.75,4.7,22.21,1.51,8.43,2.49,17,3.48,25.47.89,7.6,1.66,15.18,2.16,22.81.45,6.82.52,13.66,1.13,20.47.66,7.46,1.48,14.89,2.1,22.35.78,9.55.23,19.2-.25,28.76-.09,1.72-.38,3.44-.58,5.15-.41,3.53-.86,7-1.51,10.54-.37,2-.63,4.08-1.12,6.07a111.42,111.42,0,0,1-3.61,12.7c-1.49,4-3.22,7.89-5,11.74-2.45,5.27-5.66,10.21-8.64,15.19-1.6,2.67-3.11,5.39-4.67,8.08-5.21,8.93-10.33,17.9-17.56,25.41-4.88,5.08-10.1,9.83-15.23,14.65q-3.69,3.63-7.4,7.23c-1.55,1.5-3.06,3.06-4.69,4.48a125.88,125.88,0,0,1-10.44,8.13c-1.4,1-2.81,2-4.28,2.85-7.69,4.5-15.37,9.07-23.18,13.35-6.31,3.46-12.65,6.64-19.22,9.55-5.34,2.37-10.69,4.69-15.92,7.29-5,2.94-9.91,5.93-15.05,8.49q-8,4-16.12,7.79a211.49,211.49,0,0,1-21.44,8.65,81.82,81.82,0,0,1-13.37,3.29c-3.51.54-7,.69-10.49.93-3.23.51-6.46,1-9.74,1.34a46.23,46.23,0,0,1-20.69-2.45l-.81-.3c-2.61,1.77-5.41,3.27-8.12,4.88-4.33,2.57-8.8,4.71-13.32,6.91-3,1.48-6.47,2.59-9.66,3.8-1.2.45-2.4,1-3.62,1.36-3,1-6.09,2.06-9.16,3a95.94,95.94,0,0,1-13.75,3.52l-3.22.47C1359.08,1047,1357.74,1047.24,1356.53,1047.3Z"/><path d="M1363.25,1034.67c3.37-.26,6.76-.54,10.12-.92l6.37-.73c2.07-.23,4.13-.65,6.19-1,3.33-.56,6.64-1.31,9.94-2,5.38-1.2,10.8-2.24,16.18-3.49s10.89-2.49,16.3-3.88l1.05-.27,2.11-.54.42-.12.74-.18.76-.2.75-.19-.23.06,1.82-.47.3-.08.71-.18.48-.12.89-.26,2.95-.89,6-1.8c1.82-.55,3.61-1.21,5.42-1.81l4.27-1.45c7.18-2.49,14.37-5,21.39-7.87l6.63-2.75c1.22-.5,2.4-1.1,3.6-1.67,3.21-1.54,6.43-3.05,9.59-4.69s6.61-3.39,9.87-5.16l11-6c6.67-3.63,13.28-7.35,19.92-11,1.44-.81,2.85-1.69,4.27-2.54l5.3-3.16c1.05-.64,2.06-1.36,3.08-2s2-1.39,3-2.1c1.89-1.33,3.74-2.73,5.57-4.14,2-1.55,3.93-3.19,5.85-4.84,1.14-1,2.28-2,3.38-3q9-8.34,17.93-16.77c2.79-2.63,5.56-5.28,8.34-7.93s5.41-5.45,8.1-8.19c1-1,1.83-2,2.73-3.07,1.31-1.52,2.72-3,3.93-4.61l7.44-9.82c.59-.79,1.14-1.62,1.71-2.43l4.66-6.65,3.54-5c.67-1,1.28-2,1.91-3,2.06-3.27,4.16-6.51,6.09-9.86l3.65-6.34c1.93-3.35,3.68-6.81,5.28-10.32a89.35,89.35,0,0,0,4.62-12.54c.76-2.67,1.42-5.33,2-8q1.24-5.45,2.5-10.89c.81-3.53,1.62-7.06,2.48-10.57.56-2.26,1.11-4.52,1.67-6.77.36-1.5.66-3,1-4.51.41-2,.91-3.9,1.2-5.87s.62-4.08.92-6.12c.22-1.43.52-2.88.65-4.33l.63-7.12c.12-1.39.3-2.78.36-4.17l.3-6.68c.16-3.35.3-6.69.39-10q.12-3.87.22-7.72c0-1.39.1-2.78.1-4.17q0-6.69,0-13.4c0-.92-.05-1.83-.1-2.76l-.45-8.07c-.09-1.57-.12-3.16-.31-4.72s-.42-3.39-.62-5.08l-.9-7.27c-.12-1-.26-2-.45-3q-1.32-6.71-2.63-13.43c-.2-1-.51-2-.77-3-.68-2.58-1.35-5.17-2-7.75-.75-2.81-1.49-5.62-2.25-8.42q-3.11-11.44-6.23-22.89-1.56-5.75-3.13-11.48c-.68-2.47-1.43-4.92-2.16-7.37s-1.48-4.9-2.27-7.33c-1.68-5.2-3.67-10.29-5.79-15.32-1-2.47-2.11-4.93-3.31-7.32q-1.63-3.29-3.29-6.57c-1.1-2.2-2.2-4.41-3.31-6.61-.44-.87-.86-1.77-1.32-2.63-3.46-6.43-6.86-12.9-10.39-19.29l-7.26-13.14c-1.43-2.58-2.93-5.11-4.43-7.65l-3.85-6.48c-.52-.88-1-1.78-1.59-2.65L1587.12,524c-3.83-6-7.84-11.89-11.78-17.81q-5.65-8.51-11.31-17L1556,477c-1.79-2.71-3.68-5.35-5.54-8l-4-5.82c-1.42-2-2.91-4-4.41-6-3-4-6.2-8-9.51-11.78s-7-7.64-10.61-11.27-7.76-7.18-11.74-10.64c-1.31-1.14-2.65-2.25-4-3.37l-10.61-8.87c-2.7-2.27-5.45-4.47-8.17-6.71-2.41-2-4.78-4-7.26-5.87l-11-8.38c-.85-.64-1.74-1.23-2.61-1.84l-6.77-4.76c-2.83-2-5.74-3.85-8.65-5.73l-5-3.25c-1.14-.74-2.36-1.38-3.55-2.06l-6.45-3.7c-1-.56-1.93-1.09-2.93-1.58l-6.62-3.28c-1.38-.69-2.74-1.42-4.15-2l-11.78-5.16c-.9-.39-1.8-.74-2.71-1.1l-7.54-2.93c-3.37-1.32-6.81-2.43-10.25-3.6s-6.95-2.07-10.44-3.05c-1.39-.39-2.82-.63-4.23-.92-1.62-.34-3.24-.77-4.88-1l-6.52-.87c-1.53-.2-3-.29-4.59-.4-1.73-.12-3.47-.29-5.21-.35l-6.89-.23c-3.41-.12-6.81-.13-10.21-.18-2,0-4,.09-6,.14-1.72,0-3.43.13-5.15.24-3.58.21-7.14.45-10.71.76q-2.76.23-5.53.52c-1.27.14-2.52.33-3.78.55a12.24,12.24,0,0,0-1.68.45,2.24,2.24,0,0,0-.55.35.77.77,0,0,0,.15,1.35,4.64,4.64,0,0,0,.51.11l.29,0a.71.71,0,0,0,.81-.45c.26,0,.53-.08.8-.1l-.12,0c2.86-.31,5.74-.41,8.62-.53l7.49-.27c1,0,2.11-.06,3.16-.09,1.26,0,2.53-.1,3.8-.09l8,.05c4.1.19,8.19.37,12.28.65,1.83.12,3.65.21,5.47.4l7.31.75,7.92,1.34c.3.05.61.15.91.22l2.77.69,4.19,1,8.13,2.59c.77.24,1.51.55,2.27.83l5.29,2c4.72,1.76,9.34,3.78,14,5.73l9.85,4.55c.91.42,1.84.81,2.72,1.27l4.73,2.47c2.64,1.38,5.34,2.68,7.89,4.22l9.5,5.73,9.72,6.58c2.73,1.85,5.36,3.84,8,5.78l4.69,3.44c.91.67,1.78,1.4,2.66,2.1l9.24,7.33c4.91,4.16,9.86,8.28,14.73,12.48,8.78,7.59,17.72,15,25.84,23.34a210.67,210.67,0,0,1,16,18.76l0-.06c1.83,2.44,3.68,4.89,5.39,7.41q1.9,2.83,3.83,5.66c2,2.92,4,5.8,5.91,8.76q6.12,9.48,12.27,18.93,6.68,10.26,13.38,20.52c1.61,2.47,3.23,4.93,4.8,7.42q3.9,6.22,7.82,12.45c1.17,1.87,2.25,3.79,3.37,5.7l4.89,8.38q4.13,7.51,8.22,15c2.27,4.15,4.46,8.35,6.68,12.53l3.8,7.15c.81,1.52,1.53,3.07,2.29,4.61l4.75,9.63,1.36,2.76c.41.82.76,1.69,1.13,2.54.82,1.86,1.6,3.73,2.36,5.61q3.12,7.83,5.55,15.89c1.18,3.89,2.32,7.82,3.37,11.75q2,7.47,4,15,2.89,10.92,5.75,21.83,1.83,7.26,3.67,14.51c.14.55.21,1.13.31,1.68q.49,2.61,1,5.2c.51,2.71,1,5.41,1.51,8.12q.61,5.36,1.22,10.71c.12,1,.28,2,.33,3.08l.3,6.24q.15,3.33.31,6.64c0,1,0,1.94,0,2.91,0,3.9-.07,7.8-.1,11.7-.21,6.07-.38,12.14-.7,18.2-.12,2.34-.24,4.69-.37,7-.05,1-.07,1.93-.16,2.88q-.52,5.4-1,10.78l-1,6.72c-.15.94-.3,1.87-.44,2.8s-.38,1.72-.57,2.57c-.48,2.19-.9,4.41-1.45,6.58-.7,2.82-1.41,5.64-2.11,8.45-1.09,4.32-2.07,8.66-3.08,13-1.15,4.93-2.23,9.88-3.62,14.75a98,98,0,0,1-3.52,9.67,128.53,128.53,0,0,1-6.08,11.78l-4.07,7-5.79,9.15c-.45.71-1,1.38-1.44,2.06q-2.09,3-4.19,6c-1.71,2.44-3.36,4.94-5.16,7.31l-6.85,9-2.87,3.3c-.91,1-1.77,2.15-2.73,3.13l-7,7.12q-7.87,7.49-15.77,14.92-3.65,3.44-7.34,6.83l-4.15,3.84c-1.55,1.44-3.2,2.8-4.82,4.17-1.8,1.53-3.66,3-5.54,4.43-3.51,2.59-7.11,5.07-10.85,7.31l-6.67,4q-15.52,8.63-31.14,17.11c-2.74,1.49-5.53,2.88-8.3,4.33-2.16,1.12-4.33,2.2-6.53,3.26l-5.53,2.65c-.71.34-1.41.67-2.13,1L1471,996.5c-2.85,1.07-5.69,2.2-8.56,3.2l-10.11,3.51c-3,1-6,2-9,3-1.55.52-3.14.95-4.7,1.42L1434,1009l-1,.26-.69.18-1.87.48-1.35.35a5.66,5.66,0,0,0-.59.15l-1.76.45-.43.12c-1.91.49-3.84.93-5.76,1.4-3.58.86-7.16,1.69-10.74,2.52s-7.12,1.54-10.68,2.3c-3.39.71-6.76,1.49-10.15,2.19-1.61.32-3.21.69-4.83,1l-5.66,1-6.53.74c-2.25.26-4.52.42-6.77.63s-4.27.34-6.41.51c-.94.07-1.88.1-2.82.15s-2.1.13-3.16.14l-13.31.25-1.75,0,1.43-1.82c1.2-1.55,2.25-3.23,3.34-4.85s2-3,3-4.56c2.31-3.41,4.58-6.86,7-10.19,1.28-1.75,2.52-3.55,3.85-5.27s2.55-3.29,3.82-4.93c2.35-2.92,4.71-5.81,7.11-8.69,2.24-2.68,4.46-5.36,6.64-8.07,1-1.25,2-2.47,3-3.76l4.07-5.48c1.09-1.48,2.09-3,3.13-4.56.89-1.31,1.78-2.61,2.64-4q3.39-5.23,6.74-10.49c.77-1.2,1.55-2.38,2.35-3.56,1.07-1.55,2.09-3.16,3.22-4.67,2.45-3.27,4.91-6.55,7.35-9.82.9-1.21,1.74-2.44,2.58-3.68,1-1.54,2.1-3.05,3-4.65l3.26-5.49c.27-.47.5-1,.75-1.45l2-3.86c.67-1.29,1.29-2.61,1.91-3.93.83-1.75,1.69-3.49,2.46-5.27,1.47-3.41,3-6.8,4.32-10.25l2.25-5.72c.68-1.73,1.26-3.5,1.89-5.24,1.31-3.63,2.53-7.27,3.76-10.93s2.28-7.22,3.39-10.84c.44-1.45.82-2.93,1.22-4.39.48-1.76,1-3.5,1.43-5.27l1.46-6.19c.36-1.54.78-3.08,1.09-4.63.42-2.08.83-4.16,1.25-6.24s.84-3.9,1.14-5.87l1.65-11.06c.08-.51.1-1,.14-1.57.11-1.19.22-2.38.34-3.57.19-2.15.39-4.3.58-6.44.16-1.63.19-3.27.29-4.89.1-1.86.2-3.72.31-5.57q.39-6,.77-12.06c.24-3.83.58-7.66.87-11.49.27-3.53.68-7.05,1-10.57s.9-6.76,1.18-10.16q.54-6.58,1.09-13.17c.09-1.14.06-2.29.09-3.43l.21-8.31c0-1.36.15-2.75.09-4.11-.09-1.94-.17-3.89-.26-5.83l-.3-6.91c-.06-1.23-.22-2.45-.37-3.67-.31-2.53-.62-5-.92-7.58-.16-1.32-.26-2.67-.51-4-.8-4-1.59-8.1-2.39-12.15-.26-1.33-.58-2.66-.87-4-.58-2.66-1.15-5.32-1.73-8-.71-3.24-1.32-6.5-2-9.75-1.52-7.76-3.12-15.52-4.71-23.28-.22-1-.51-2.06-.79-3.09l-2.1-7.85c-.32-1.17-.57-2.38-1-3.52q-1-3-2-6c-1.11-3.27-2.21-6.56-3.39-9.81-1.34-3.71-2.72-7.4-4-11.12q-4-11.43-7.94-22.88c-1.17-3.39-2.36-6.77-3.54-10.16-1.13-3.21-2.38-6.37-3.62-9.54l-2.25-5.75c-.49-1.24-1.07-2.45-1.64-3.66-1.1-2.36-2.21-4.71-3.31-7.07-.53-1.15-1-2.33-1.63-3.45q-3.15-5.82-6.29-11.65c-1.79-3.31-3.7-6.58-5.55-9.86-3.49-6.18-6.81-12.45-10.11-18.73q-2.36-4.51-4.75-9c-1.77-3.29-3.44-6.65-5.33-9.87l-3.5-6-1.75-3c-.26-.45-.5-.91-.79-1.34q-1.73-2.61-3.47-5.22c-.84-1.26-1.65-2.52-2.53-3.74-4.58-6.31-9.19-12.6-13.73-18.94s-9-12.52-13.43-18.81c-2.17-3.05-4.23-6.17-6.43-9.2-1.53-2.12-3.08-4.25-4.62-6.37-1.28-1.77-2.74-3.43-4.13-5.12l-2.06-2.5c-.46-.57-1-1.09-1.49-1.63l-4.53-4.9c-1.69-1.82-3.37-3.64-5-5.5-1.26-1.41-2.4-2.92-3.55-4.42q-1.82-2.62-3.6-5.28c-1.22-1.81-2.48-3.61-3.85-5.32s-2.88-3.52-4.48-5.16-3.22-3.32-5-4.81a5.26,5.26,0,0,0-2.93-1.28,5,5,0,0,0-4.25,8.27c1.08,1.15,2.2,2.25,3.31,3.36s2,2.17,3,3.29,2,2.36,2.9,3.56,1.76,2.5,2.59,3.77c1,1.58,2.07,3.15,3.12,4.72.94,1.41,2,2.74,3,4.1s2.37,2.88,3.58,4.3,2.56,2.84,3.83,4.26l3.65,4.05c2.34,2.61,4.48,5.38,6.68,8.1,1.93,2.69,3.88,5.37,5.75,8.11,2.2,3.22,4.39,6.43,6.63,9.62,4.46,6.37,9,12.7,13.43,19.07,4.15,5.89,8.37,11.74,12.55,17.62,1.09,1.53,2.07,3.16,3.1,4.74.86,1.32,1.77,2.6,2.56,4q2.89,5,5.78,10c3,5.65,6,11.28,8.94,17,1.36,2.63,2.71,5.27,4.12,7.88,1.75,3.26,3.46,6.55,5.28,9.78s3.77,6.73,5.66,10.1c1.54,2.76,3,5.56,4.51,8.35l2.57,4.77c.43.79.78,1.62,1.16,2.43l4.95,10.61q2.15,5.46,4.27,10.91c1.3,3.33,2.4,6.73,3.58,10.1,2.26,6.48,4.48,13,6.74,19.46,1.17,3.33,2.32,6.66,3.52,10,1.3,3.6,2.67,7.18,3.91,10.8l4.44,13c.3.88.54,1.77.78,2.67.71,2.62,1.41,5.23,2.11,7.85.25.92.49,1.85.74,2.77,1.12,5.42,2.28,10.82,3.34,16.25,1.15,5.89,2.22,11.79,3.5,17.65q1.21,5.54,2.42,11.07c.59,2.74,1.09,5.51,1.63,8.26.29,1.5.59,3,.88,4.51.17.85.23,1.74.33,2.61l1.2,9.86c.2,4.56.41,9.12.6,13.67q-.13,6-.29,11.92c0,.94,0,1.88-.11,2.83-.2,2.45-.41,4.9-.61,7.36l-.48,5.81c-.14,1.76-.41,3.51-.61,5.27-.47,4-.87,7.93-1.25,11.9-.72,7.41-1.19,14.85-1.66,22.28-.24,3.75-.45,7.5-.66,11.25-.08,1.31-.12,2.63-.24,4-.23,2.45-.45,4.91-.68,7.36l-.33,3.65c-.07.77-.22,1.54-.33,2.31-.42,2.74-.82,5.49-1.24,8.23-1,4.9-1.89,9.81-3,14.67-.4,1.67-.79,3.34-1.19,5-.21.89-.39,1.79-.63,2.68l-2.13,7.84c-1,3.32-2,6.65-3.08,9.94-1.26,3.78-2.51,7.56-3.86,11.32q-1,2.89-2.08,5.79c-.69,1.94-1.51,3.86-2.27,5.78-1.33,3.39-2.78,6.72-4.22,10.06-.81,1.73-1.63,3.46-2.44,5.2-.71,1.5-1.47,3-2.23,4.46s-1.39,2.82-2.19,4.17c-1,1.68-2,3.35-3,5-1.39,2.08-2.73,4.22-4.22,6.23q-2.6,3.51-5.2,7l-2.85,3.82c-.83,1.11-1.56,2.3-2.34,3.45-1.66,2.44-3.25,4.91-4.83,7.41s-3.07,4.82-4.61,7.23-3.19,4.82-4.82,7.22-3.32,4.66-5,7c-1.42,1.95-3,3.82-4.46,5.71-3,3.71-6.1,7.38-9.06,11.15-3.16,4-6.26,8.07-9.22,12.23s-5.69,8.3-8.44,12.5c-1.21,1.85-2.37,3.71-3.55,5.57-.65,1-1.29,2-2,3s-1.26,1.77-1.91,2.65c-1.07,1.3-2.16,2.57-3.27,3.84-1.55,1.75-3.39,3.45-4.21,5.69a5.8,5.8,0,0,0,2.76,6.93,10.66,10.66,0,0,0,3.51.92c.88.12,1.76.21,2.64.3a89.2,89.2,0,0,0,10.47.16l10.53-.2c1.55,0,3.11-.08,4.66-.16C1358.67,1035,1361,1034.85,1363.25,1034.67Z"/><path d="M546,748.32h1.29c.37,0,.74,0,1.1,0l3-.15c6.33-.31,12.84-1.17,18.33-4.57a24.46,24.46,0,0,0,4.31-3.42,22.61,22.61,0,0,0,3.42-4.64,34.81,34.81,0,0,0,3.92-10.78,38.85,38.85,0,0,0,.43-11.59,49.45,49.45,0,0,0-2.58-11.4,67.89,67.89,0,0,0-3.34-7.91l-1.23-2.46c-.32-.62-.6-1.27-.94-1.88q-1.14-2-2.26-4c-.63-1.11-1.34-2.19-2-3.28A65.37,65.37,0,0,0,557,667.27a26.67,26.67,0,0,0-10.44-5.63,17.13,17.13,0,0,0-2.67-.46,17.86,17.86,0,0,0-3.27,0,22.13,22.13,0,0,0-6.22,1.36,12,12,0,0,0-4.48,2.91,15.13,15.13,0,0,0-2.75,4.56,12.58,12.58,0,0,0-1.09,5.27,5.16,5.16,0,0,0,.43,1.89,3.62,3.62,0,0,0,.73.93,4.82,4.82,0,0,1,.35.44l0,0c.27.37.93.13.77-.34a1.27,1.27,0,0,0-.06-.18,3.37,3.37,0,0,1-.1-.34c0-.06,0-.13,0-.19v-.21a11.65,11.65,0,0,1,.19-1.32c.08-.34.18-.68.29-1s.29-.71.45-1.07.51-.89.79-1.32.61-.81.94-1.2.59-.59.9-.86a6.8,6.8,0,0,1,.6-.46c.33-.22.66-.43,1-.62s.84-.39,1.27-.56,1.08-.33,1.63-.46c.76-.13,1.51-.22,2.28-.29,1-.05,1.92,0,2.88,0,.56,0,1.11.13,1.67.23s1.1.29,1.64.47,1.31.54,2,.86,1.42.79,2.11,1.23c.89.62,1.75,1.28,2.57,2,1.06.95,2.06,2,3,3l2.34,2.69c.46.52.85,1.11,1.27,1.66l1.26,1.65c.65,1,1.31,1.95,2,2.92s1.18,1.92,1.77,2.88c1.18,2,2.26,4,3.35,6l1.71,3.5a69.69,69.69,0,0,1,3,7.2,46.13,46.13,0,0,1,1.47,5.26,53.15,53.15,0,0,1,.79,5.76,40.64,40.64,0,0,1,0,4.13,35.16,35.16,0,0,1-.5,3.67,37.71,37.71,0,0,1-1,3.74c-.37,1-.77,2-1.23,2.94s-.9,1.64-1.41,2.43c-.3.42-.61.82-.93,1.22s-.68.69-1,1-1,.78-1.49,1.15-1.12.69-1.7,1c-.76.36-1.53.68-2.31,1a27.54,27.54,0,0,1-2.84.74,57.58,57.58,0,0,1-6.14.79l-5,.23c-.61,0-1.22,0-1.83,0l-2.59,0,.61,0c-1.2-.08-2.4-.15-3.6-.29s-2.54-.32-3.81-.54a4.46,4.46,0,0,0-1.79,8.71,23.37,23.37,0,0,0,4.15.7c1.34.14,2.69.22,4,.31l-.22,0c.82.06,1.64.07,2.46.07Z"/><path d="M514.41,759.65a31.75,31.75,0,0,0,11.48-5.71,26.25,26.25,0,0,0,7.56-10.32,35.76,35.76,0,0,0,2.71-12.82c.07-2.16,0-4.32-.13-6.48,0-1.67-.21-3.34-.32-5-.09-1.41-.22-2.81-.34-4.21s-.22-2.72-.38-4.08q-.32-2.78-.65-5.57c-.19-1.64-.51-3.27-.77-4.9a68,68,0,0,0-2.14-9.37,39.23,39.23,0,0,0-2.18-5.57,40.52,40.52,0,0,0-2.59-4.76c-.53-.8-1-1.61-1.57-2.41-.4-.61-.77-1.25-1.21-1.83-.89-1.2-1.79-2.39-2.69-3.59-.66-.87-1.39-1.69-2.11-2.5a40.09,40.09,0,0,0-3.52-3.5c-2.22-1.93-4.92-3.71-8-3.71a6.5,6.5,0,0,0-3.55,1.11,4.46,4.46,0,0,0-1.07,1,1.63,1.63,0,0,0-.25.47h0a1.23,1.23,0,1,0,0,2.46,7.76,7.76,0,0,0,1.28-.2c.31,0,.61.07.92.09l.72,0,.77.06.36,0c.29.07.57.14.86.23l.45.19c.31.18.61.35.92.55s.63.48.93.74a27.26,27.26,0,0,1,2.16,2.14c1.27,1.46,2.45,3,3.58,4.55l1.16,1.75c.45.67,1,1.34,1.35,2.05,1,1.75,2.05,3.48,3,5.29a49.66,49.66,0,0,1,2,4.74,54.9,54.9,0,0,1,1.64,6.2c.78,3.95,1.3,7.95,1.7,11.95.15,1.59.34,3.17.45,4.76s.24,3.42.35,5.13a120.52,120.52,0,0,1,.26,12.75c-.09,1.13-.25,2.25-.45,3.37a39.27,39.27,0,0,1-1.05,3.82c-.34.94-.73,1.85-1.16,2.75s-.81,1.47-1.26,2.18-.81,1.09-1.25,1.61-.91,1-1.39,1.4-1.08.87-1.65,1.28q-1.2.78-2.46,1.44c-1,.48-2,.9-3.09,1.28a36.22,36.22,0,0,1-3.84,1,39.65,39.65,0,0,1-4.18.59,32.7,32.7,0,0,1-3.43,0c-.7-.07-1.39-.16-2.08-.28s-1.55-.4-2.3-.64-1.46-.59-2.17-.93c-.92-.48-1.82-1-2.69-1.56a51.55,51.55,0,0,1-4.24-3.28,67.32,67.32,0,0,1-5.29-5.26,54,54,0,0,1-3.35-4.31,52.83,52.83,0,0,1-3-5.1,44.42,44.42,0,0,1-2-4.62,33.57,33.57,0,0,1-.94-3.4,42.68,42.68,0,0,1-.54-4.51,81.61,81.61,0,0,1,0-9.12,54.66,54.66,0,0,1,.79-6,46.15,46.15,0,0,1,1.25-4.57,40.92,40.92,0,0,1,1.64-3.94c.64-1.24,1.35-2.44,2.11-3.61a40.87,40.87,0,0,1,2.69-3.48c.8-.88,1.64-1.72,2.52-2.53s1.69-1.36,2.58-2a30,30,0,0,1,2.62-1.55c.75-.36,1.51-.68,2.29-1,1.47-.48,3-.87,4.47-1.21,2.07-.39,4.18-.59,6.28-.82,1.15-.13,2.31-.24,3.46-.32a4.06,4.06,0,0,0,2.41-1.2,4.23,4.23,0,0,0,1.24-3,4.3,4.3,0,0,0-.88-2.58,4.11,4.11,0,0,0-2.77-1.6,39.41,39.41,0,0,0-5,0c-1.24.08-2.48.17-3.71.3A41.14,41.14,0,0,0,491,671.5a32,32,0,0,0-5.8,2.33,32.73,32.73,0,0,0-5.66,3.83,39.75,39.75,0,0,0-8.55,10A41.92,41.92,0,0,0,466,700a56,56,0,0,0-1.39,13,55.12,55.12,0,0,0,1.25,13.32A46.83,46.83,0,0,0,471,738.23a54.39,54.39,0,0,0,8,10.29A55.19,55.19,0,0,0,489.3,757a27,27,0,0,0,12.06,4.07c.82.07,1.66.1,2.49.1A41.06,41.06,0,0,0,514.41,759.65Z"/><path d="M517.72,709.05a6.12,6.12,0,0,0,3.19-4.06,7.66,7.66,0,0,0,.05-2.94,9.39,9.39,0,0,0-2.58-4.87,4.32,4.32,0,0,0-.89-.76,8.19,8.19,0,0,0-1.52-.94,9.58,9.58,0,0,0-2.33-.74,4.56,4.56,0,0,0-1.33,0,9.19,9.19,0,0,0-1.07.2,4.7,4.7,0,0,0-1,.4,4.83,4.83,0,0,0-1.36.93,7,7,0,0,0-1.94,4,6.85,6.85,0,0,0,.09,2.43,7.58,7.58,0,0,0,1,2.63,9.6,9.6,0,0,0,3.85,3.49,6.65,6.65,0,0,0,3,.85A6.3,6.3,0,0,0,517.72,709.05Z"/><path d="M556.7,702.36a5.51,5.51,0,0,0,2.33-1l.55,0a6.57,6.57,0,0,0,2.31-.77,4.57,4.57,0,0,0,1-.79,6.32,6.32,0,0,0,1.06-1.35,9,9,0,0,0,.56-1.22,6.19,6.19,0,0,0,.25-1.21,7.37,7.37,0,0,0-.29-2.72,9.11,9.11,0,0,0-3.2-4.61,13.11,13.11,0,0,0-4.88-2.4,7.14,7.14,0,0,0-2.87-.24c-.43.06-.85.15-1.27.25a8.89,8.89,0,0,0-1.65.7,4.81,4.81,0,0,0-1.08.82,7.74,7.74,0,0,0-.82,1,9.06,9.06,0,0,0-1.16,2.43A7.59,7.59,0,0,0,548,697a10.57,10.57,0,0,0,3.56,3.78,8.34,8.34,0,0,0,4.5,1.66A4.87,4.87,0,0,0,556.7,702.36Z"/><path d="M534.29,717.63c2.58-.39,5.19-.57,7.76-1s5-.78,7.49-1.19c1.24-.21,2.48-.45,3.73-.62s2.57-.39,3.86-.52q4-.39,8-.73a66.29,66.29,0,0,1,7.18-.28l-.23,0,1.26.08h0c.21,0,.42,0,.63.08l.23.06a1.22,1.22,0,0,0,2.38-.53s0-.09,0-.13a1.48,1.48,0,0,0-.16-.88,2.88,2.88,0,0,0-1-1,11.93,11.93,0,0,0-3.75-1.06c-1.76-.26-3.54-.3-5.31-.39-2.24-.11-4.47-.17-6.71-.2-2.41,0-4.82-.07-7.23.07s-5.08.31-7.62.49c-1.76.1-3.51.2-5.27.25-1.93,0-3.85,0-5.77-.05a3.81,3.81,0,0,0,0,7.61A3.23,3.23,0,0,0,534.29,717.63Z"/><path d="M481.13,734.53l1.8-.15c2.95-.18,5.91-.35,8.86-.62s5.94-.53,8.91-.74c4.8-.28,9.6-.53,14.39-1a121.85,121.85,0,0,0,13.8-2.43l2.18-.44c.37-.07.74-.11,1.11-.17a5.51,5.51,0,0,0,1-.15,1.63,1.63,0,0,0,.68-.42,1.45,1.45,0,0,0,.37-.62,1.46,1.46,0,0,0-.34-1.42,1.64,1.64,0,0,0-.71-.45,4,4,0,0,0-1.2-.1c-.5,0-1,0-1.5,0-1.09.1-2.19.2-3.28.33-2.2.27-4.4.5-6.6.72l-4.17.27c-.49,0-1,0-1.47,0h-.73c-.74,0-1.49,0-2.23,0-3.06-.09-6.12-.22-9.18-.35s-6.3-.15-9.46-.11c-2.92,0-5.85,0-8.77,0-1,0-1.92-.08-2.87-.13l-.58-.05a4.22,4.22,0,0,0-3,.81,4,4,0,0,0,2.55,7.21Z"/><path d="M577.15,822.72a2.53,2.53,0,0,0,.71-2.09c0-.45-.08-.89-.13-1.33-.05-1.07-.1-2.14-.11-3.22,0-1.35-.06-2.72,0-4.08,0-1.55.07-3.09.11-4.64,0-.77,0-1.54,0-2.31,0-1.1.12-2.21.19-3.3,0,.07,0,.14,0,.21a72.77,72.77,0,0,1,1.14-9.19,24.63,24.63,0,0,1,.65-2.42,1.25,1.25,0,0,0,.79-1,8.35,8.35,0,0,0,0-1,1.32,1.32,0,0,0-2.46-.66c-.25.42-.54.83-.75,1.27a12.64,12.64,0,0,0-.54,1.45,31.53,31.53,0,0,0-.89,3.6c-.5,2.5-.85,5-1.11,7.55s-.44,5-.62,7.46c-.26,3.41-.5,6.82-.93,10.21l-.24,1.1a2.57,2.57,0,0,0,.25,1.92,2.51,2.51,0,0,0,1.81,1.21l.33,0A2.48,2.48,0,0,0,577.15,822.72Z"/><path d="M475.19,846.18a30.93,30.93,0,0,0,3.71-1.44c1.45-.64,2.89-1.27,4.35-1.88l2.63-.9c.93-.31,1.87-.56,2.81-.84l5.11-1.55,3.46-1.07c1-.3,1.95-.53,2.92-.8,1.67-.45,3.36-.79,5.05-1.14,5.71-.89,11.42-1.77,17.1-2.88,2.89-.57,5.77-1.16,8.65-1.81s5.66-1.23,8.5-1.82l5.53-.82c.73-.1,1.49-.11,2.23-.16l2.18-.16c2.33-.07,4.67-.16,7-.16s4.87,0,7.32.17c1.9.17,3.79.38,5.7.6a4.53,4.53,0,0,0,5.1-3.87,4.55,4.55,0,0,0-3.87-5.1c-3.07-.36-6.14-.72-9.24-.79-2.87-.06-5.76-.09-8.63,0-1.56.05-3.12.08-4.67.19l-2.88.22c-.51,0-1,0-1.56.12l-5.24.77c-.51.08-1,.2-1.51.3l-3.11.66c-3.54.74-7.07,1.56-10.61,2.31-2.92.57-5.84,1.13-8.76,1.65s-5.55.9-8.33,1.34a86.45,86.45,0,0,0-8.85,1.87c-2.94.8-5.84,1.72-8.76,2.61l-3.71,1.12c-1.32.39-2.62.85-3.92,1.29s-2.47.94-3.67,1.49l-.47.21c-.05-.9-.11-1.81-.17-2.72-.19-3-.49-6-.77-9.06-.26-2.71-.54-5.41-.81-8.12-.13-1.31-.23-2.63-.35-3.94s-.27-2.78-.36-4.17l0,.57c-.11-1.77-.23-3.53-.35-5.3-.09-1.31-.18-2.61-.23-3.91,1.07.45,2.16.88,3.23,1.31,1.42.57,2.87,1,4.3,1.57s2.6.88,3.91,1.31q4.59,1.49,9.23,2.87a78.83,78.83,0,0,0,7.73,2,39.1,39.1,0,0,0,10.8.44c1.44-.13,2.9-.2,4.33-.4s3-.36,4.52-.62c3.08-.55,6.15-1.1,9.22-1.72s6-1.26,8.92-1.92c1.79-.4,3.57-.92,5.32-1.47a45,45,0,0,0,6.19-2.45,68.79,68.79,0,0,0,6.52-3.71c3.21-2,6.41-4,9.78-5.73,1.45-.71,2.9-1.43,4.41-2a9.88,9.88,0,0,0,1.05-.34l.2-.1a.85.85,0,0,0,.79,0,1.68,1.68,0,0,0,.44-.29,2,2,0,0,0,.3-.2h0a1.3,1.3,0,0,0,.41-.43,1.26,1.26,0,0,0-.32-1.64,2.69,2.69,0,0,0-1.18-.53c-.35-.05-.69-.08-1-.1a7.37,7.37,0,0,0-1.48.1,26.6,26.6,0,0,0-2.76.59c-1,.26-2.07.6-3.09.95s-2.3.82-3.41,1.31l-2.91,1.31c-1.28.57-2.54,1.18-3.8,1.79a82,82,0,0,1-7.75,3.4,68.25,68.25,0,0,1-8.34,2.21l.23,0-.26,0-.1,0,.09,0c-4.11.82-8.25,1.47-12.38,2.15-1.93.32-3.87.57-5.8.85-1.74.25-3.5.39-5.25.58a70.94,70.94,0,0,1-7.85.18,39.34,39.34,0,0,1-4.47-.6c-3.9-.85-7.7-2.15-11.5-3.34-2.2-.68-4.38-1.44-6.56-2.18-1.61-.6-3.25-1.14-4.84-1.81s-3.3-1.39-4.91-2.17c-.61-.34-1.2-.7-1.79-1.06a7.75,7.75,0,0,0-2-1,5.28,5.28,0,0,0-3.42.2c-2.13.9-3.12,3.21-3.29,5.38a50,50,0,0,0,.18,7c.36,5.38.82,10.76,1.35,16.12s1.05,10.57,1.43,15.87c.08,1.62.15,3.24.16,4.87,0,2-.26,4.11.69,5.91a5,5,0,0,0,2.44,2.22,4.87,4.87,0,0,0,1.59.34l.59,0A5.83,5.83,0,0,0,475.19,846.18Z"/><path d="M471.19,823.1c1.51-.14,3-.39,4.5-.62s2.71-.35,4.05-.59,2.78-.52,4.17-.71c.73-.1,1.45-.23,2.18-.3l2.5-.24c5-.31,9.9-.55,14.84-1,2.43-.19,4.86-.5,7.28-.75l7.6-.83c2.22-.25,4.44-.56,6.66-.88,2.48-.36,4.95-.74,7.43-1.14s5.25-.86,7.88-1.27c2.17-.34,4.34-.65,6.5-1.07l3.74-.73c1-.18,1.91-.44,2.87-.67,1.9-.45,3.8-.93,5.69-1.4,2.09-.42,4.17-.84,6.27-1.14,2.4-.35,4.79-.65,7.2-.86.33,0,.48,0,.83-.08a.33.33,0,0,0,.08-.63,3.25,3.25,0,0,0-.43-.18,7.81,7.81,0,0,0-.82-.14l-1-.12c-.51,0-1-.1-1.53-.13-1.27-.06-2.53-.09-3.8-.11-2.34,0-4.67.1-7,.24-1.14.07-2.29.25-3.43.39l-3,.38c-1,.12-2,.26-3,.35l-4,.36c-3.12.2-6.24.39-9.35.6h0l-.36,0h-.4l-.22,0h0l-.94.06h.13l-.54,0h-.32l-.73.05h0c-5.05.34-10.1.74-15.15,1.09q-7.29.46-14.58.88c-2.34.13-4.7.11-7,.13q-3.88,0-7.77.13c-1.63,0-3.26.2-4.87.37s-3.08.44-4.61.7a52.09,52.09,0,0,0-9.52,2.41,3.8,3.8,0,0,0,1.55,7.31Z"/><path d="M493.52,827.24c-.15-1.08-.36-2.15-.55-3.22s-.33-2-.49-3c-.29-1.86-.53-3.73-.79-5.6s-.49-4-.73-5.93c-.1-.77-.17-1.55-.26-2.32s-.13-1.24-.2-1.85a13,13,0,0,0-.3-1.63,2.07,2.07,0,0,0-4.06.55c0,.51.06,1,.07,1.52a4.86,4.86,0,0,0,.14,1.2v0a1.18,1.18,0,0,0,.07.2c.08,1,.17,2,.27,2.93.22,2,.42,3.95.66,5.92.44,3.64.93,7.29,1.22,11,0,.2,0,.4,0,.6a2.54,2.54,0,0,0,.72,1.75,2.47,2.47,0,0,0,4.19-2.08Z"/><path d="M506,826.43c-.34-3-.57-6-.86-8.95l-.51-5.09c-.15-1.53-.38-3-.56-4.57a4.25,4.25,0,0,0-.71-2.47,1.16,1.16,0,0,0-1.87.37h0a1.17,1.17,0,0,0,.14,1.13.19.19,0,0,0,0,.07c.06.47.09,1,.14,1.42L502,810c.09.9.19,1.81.29,2.72s.14,1.73.21,2.59.14,1.78.21,2.67c0,.67.06,1.33.1,2s.09,1.25.1,1.87c0,1.61.06,3.21,0,4.81a1.58,1.58,0,1,0,3.14-.21Z"/><path d="M517.68,827.4a1.65,1.65,0,0,0,1.28-2.26l-.21-.53q-.37-1.12-.66-2.28c-.22-1.1-.46-2.19-.63-3.3s-.42-2.4-.57-3.61c-.17-1.43-.35-2.85-.52-4.28-.1-.77-.15-1.55-.23-2.33s-.21-1.77-.34-2.66a4.49,4.49,0,0,0-.67-1.86,1.35,1.35,0,0,0-.55-.45,1.53,1.53,0,0,0-.52-.08.79.79,0,0,0-.11,1.57l.06.13,0-.09s0,.11.07.17a3.74,3.74,0,0,1,.12.45c.1.55.14,1.11.22,1.66s.13,1.34.17,2c.29,4.35.81,8.67,1.21,13,.06,1,.09,2.07.06,3.11a1.65,1.65,0,0,0,1.65,1.63Z"/><path d="M528.37,824.39a1.86,1.86,0,0,0,1.52-2.31c-.35-1.18-.69-2.37-1-3.56-.13-.46-.21-.93-.32-1.39s-.24-1.1-.36-1.65q-.62-3.09-1.12-6.21c-.22-1.33-.44-2.67-.67-4-.11-.67-.2-1.34-.34-2a16.16,16.16,0,0,0-.58-2,2.7,2.7,0,0,0-.83-1.22,1.6,1.6,0,0,0-1.13-.24,1.17,1.17,0,0,0-.17,2.32c.16.49.3,1,.41,1.48a.3.3,0,0,1,0-.1c.2,1.06.34,2.13.49,3.2s.27,2,.41,2.93c.18,1.31.37,2.62.56,3.93.4,2.81.83,5.61,1,8.44l0,.59a1.89,1.89,0,0,0,.54,1.29,1.85,1.85,0,0,0,1.31.54Z"/><path d="M546.57,829.3a1.92,1.92,0,0,0,.95-1.42,11.68,11.68,0,0,0,0-1.87c-.06-.73-.15-1.46-.25-2.19-.07-.52-.11-1.05-.16-1.58-.1-1.06-.21-2.11-.29-3.17-.15-2.12-.31-4.24-.46-6.35h0s0-.05,0-.07l-.42-6.59c-.06-1-.18-1.94-.27-2.91,0-.59-.11-1.17-.16-1.76,0-.37-.1-.74-.15-1.1s-.11-.66-.17-1a6,6,0,0,0-.25-.85.72.72,0,0,0-.75-.42.69.69,0,0,0-.53.38v0a.65.65,0,0,0-.08.22v0h0a.67.67,0,0,0,0,.2h0a21.79,21.79,0,0,1,.29,2.56c.08,1.51.16,3,.23,4.52,0,.49,0,1,0,1.48,0,1.05,0,2.11.08,3.16q.1,4.34.18,8.68c0,.72,0,1.44,0,2.17,0,.54,0,1.09,0,1.64s0,1.09-.07,1.64v-.14c0,.46-.08.91-.16,1.37,0,.14-.07.29-.11.43a1,1,0,0,1,0,.1l-.09.18a2.09,2.09,0,0,0-.2,1.51,2,2,0,0,0,1.12,1.27,1.81,1.81,0,0,0,.76.15A1.87,1.87,0,0,0,546.57,829.3Z"/><path d="M565.69,819.45c-.05-1.44-.05-2.89-.08-4.34,0-.55,0-1.1,0-1.65-.07-.78-.13-1.55-.19-2.33-.21-2.63-.45-5.25-.68-7.87q-.21-2.94-.4-5.9c-.09-2.19-.2-4.39-.28-6.59a1.65,1.65,0,0,0-1.62-1.62,1.62,1.62,0,0,0-1.61,1.62q.24,5,.61,10c.22,2.89.47,5.77.73,8.65l.15,2.3c0,.52.07,1.05.1,1.58a5.63,5.63,0,0,1,0,.58c0,1,0,1.94,0,2.91,0,.62-.06,1.24-.1,1.86,0,.2,0,.41-.07.62a1.78,1.78,0,0,0,1.5,2l.22,0A1.77,1.77,0,0,0,565.69,819.45Z"/><path d="M1539.4,601.2a34,34,0,0,0,5.14-.58,8.68,8.68,0,0,0,4.34-2,9.25,9.25,0,0,0,1.29-1.63,5.66,5.66,0,0,0,.73-2.36,5.34,5.34,0,0,0-3.84-5.83,5.27,5.27,0,0,0-5.2,1.46h0a41.42,41.42,0,0,1-4.16.5c-1.87.09-3.73.09-5.6,0q-1.85-.16-3.66-.51c-1-.22-1.9-.46-2.84-.75a37.36,37.36,0,0,1-3.55-1.55c-1.82-.95-3.56-2-5.27-3.16.3-.51.61-1,.92-1.5.88-1.25,1.82-2.44,2.81-3.6a56.37,56.37,0,0,1,4.43-4.45c.87-.75,1.76-1.47,2.7-2.14.72-.47,1.45-.91,2.21-1.32s1.24-.55,1.88-.78a20.65,20.65,0,0,1,2-.55c1.14-.19,2.29-.32,3.45-.4,4.7-.24,9.41.12,14.11.24a11.27,11.27,0,0,0,1.41.16,1.65,1.65,0,0,0,.41-3.25h0c-3.71-.82-7.48-1.34-11.25-1.84-1.57-.21-3.15-.39-4.73-.48-1.29-.07-2.58-.14-3.87-.11a21.54,21.54,0,0,0-3.92.48c-5.13,1.13-9.63,4.1-13.64,7.39a48.34,48.34,0,0,0-5.43,5.28c-1,1.18-2,2.42-3,3.67-.29.38-.59.75-.9,1.12a6,6,0,0,0-.16,7.1,8.87,8.87,0,0,0,1.2,1.25c.59.45,1.2.86,1.82,1.27,1,.61,1.91,1.21,2.87,1.81a67.67,67.67,0,0,0,6.16,3.45,34.45,34.45,0,0,0,7.51,2.67,43.45,43.45,0,0,0,8.73,1l1.52,0C1537.19,601.3,1538.3,601.26,1539.4,601.2Z"/><path d="M1534.79,584.16a5.77,5.77,0,0,0,1-2.48,7.87,7.87,0,0,0-.19-2.77,4.57,4.57,0,0,0-1.69-2.91,4.45,4.45,0,0,0-3.79-.79,7.44,7.44,0,0,0-1.83-.27,5.74,5.74,0,0,0-4.09,1.59,5.12,5.12,0,0,0-1.19,4.89,6.32,6.32,0,0,0,2.86,3.53,11.81,11.81,0,0,0,1.94.91,9.81,9.81,0,0,0,2.73.5h.24A5.29,5.29,0,0,0,1534.79,584.16Z"/><path d="M1462.11,606.64a17.8,17.8,0,0,0,4-1,26.49,26.49,0,0,0,3.15-1.47c1-.52,2-1.09,2.92-1.71a30,30,0,0,0,5.36-4.51,42.47,42.47,0,0,0,2.9-3.53c.94-1.25,1.87-2.5,2.71-3.82a5.73,5.73,0,0,0,.59-5.58,13.51,13.51,0,0,0-1.78-2.65,17.36,17.36,0,0,0-2.7-2.51c-.63-.52-1.28-1-1.93-1.52a37.67,37.67,0,0,0-9.61-5.52,35.38,35.38,0,0,0-6.09-1.49c-1-.16-2-.24-3-.36s-1.71-.09-2.56-.12a24.92,24.92,0,0,0-2.73.11,5.74,5.74,0,0,0-1,.16l-.26,0a1.39,1.39,0,0,0-.84.28h0a1.56,1.56,0,0,0-.77,1.59,2,2,0,0,0,.53,1.15,3.54,3.54,0,0,0,1.73.83l2.72.58c2.2.5,4.37,1.09,6.52,1.8a32.7,32.7,0,0,1,3.52,1.47c.92.49,1.82,1,2.69,1.59a54.13,54.13,0,0,1,4.85,3.84c.73.69,1.47,1.38,2.16,2.12l.21.28.22.35c-.94,1.28-2,2.51-3,3.71-.65.71-1.32,1.38-2,2-.57.47-1.14.91-1.73,1.33-.79.51-1.59,1-2.42,1.41q-1.47.71-3,1.26c-.39.12-.79.23-1.19.33l-.6.08h-.08l-.19-.08,0,0-.57-.47-.55-.51a4.86,4.86,0,0,0-3.39-1.4,4.79,4.79,0,0,0-3.38,8.18,11.64,11.64,0,0,0,5.16,3.41,10.27,10.27,0,0,0,2.63.39A8.46,8.46,0,0,0,1462.11,606.64Z"/><path d="M1458.33,588.28a4.3,4.3,0,0,0,2.08-3.19,5.13,5.13,0,0,0-.11-2.1,7.62,7.62,0,0,0-1-2.18,4.69,4.69,0,0,0-1.45-1.39,4.78,4.78,0,0,0-1.87-.71,4.43,4.43,0,0,0-2.22.25,6.16,6.16,0,0,0-.68.34,4.51,4.51,0,0,0-.66.26,4.31,4.31,0,0,0-1.37,1.18,3.77,3.77,0,0,0-.7,2.91,4.69,4.69,0,0,0,.84,2.07,6.7,6.7,0,0,0,1.59,2,3.7,3.7,0,0,0,2.52,1,3.15,3.15,0,0,0,.44,0,3.92,3.92,0,0,0,2.61-.49Z"/><path d="M1550.4,564.78a5.83,5.83,0,0,0,1-2.12l.39-1.14.65-1.65a2.1,2.1,0,0,0-3-2.63,2.17,2.17,0,0,0-1,1.53l-.15.73a2.38,2.38,0,0,0,0-.26c-.21,1-.43,1.93-.69,2.89a1.94,1.94,0,0,0-.06,2.78l0,.05a1.89,1.89,0,0,0,1.33.56A2,2,0,0,0,1550.4,564.78Z"/><path d="M1536.59,568.15a1.34,1.34,0,0,0,1.14-1.5c-.1-.84-.16-1.69-.24-2.54s-.09-1.65-.08-2.47V560c0-.44.06-.89.08-1.33a1.21,1.21,0,0,1,0,.19c0-.28.08-.57.11-.85a1.49,1.49,0,0,0-2.53-1.25,1.52,1.52,0,0,0-.42,1.25c0,.22,0,.44,0,.66.1,2.78.11,5.56.41,8.32a1.32,1.32,0,0,0,1.32,1.15Z"/><path d="M1529.32,566.68a1.08,1.08,0,0,0,.75-1.32c-.28-1.35-.72-2.65-1.1-4-.24-.82-.47-1.64-.71-2.45a1.44,1.44,0,1,0-2.64,1.11l.36.63c.22.46.45.92.65,1.4.36.89.72,1.78,1,2.68,0,.15.09.29.13.43a.86.86,0,0,0,0,.28c.07.19.13.39.21.58a1.07,1.07,0,0,0,1,.66A1.26,1.26,0,0,0,1529.32,566.68Z"/><path d="M1519.59,571.54a1.86,1.86,0,0,0,.4-.44,1.2,1.2,0,0,0-.42-1.64h0c-.08-.18-.15-.36-.22-.55l-.42-1.28h0s0,.07,0,.11l0,0,0,.07,0-.11s0-.09-.05-.13-.07-.21-.1-.31-.12-.39-.2-.57a2.83,2.83,0,0,0-.11-.31l-.06-.19-.06-.15-.06-.17c0-.05,0-.09,0-.14l-.06-.16h0c0-.13-.09-.26-.14-.38l0-.06,0-.08v0c-.41-1.18-.81-2.37-1.23-3.56l-.24-.7a1.62,1.62,0,0,0-.69-.91,1.57,1.57,0,0,0-1.37-.09,1.55,1.55,0,0,0-.72,2.17l.42.76c.2.41.42.81.6,1.22.26.61.52,1.22.79,1.83l.1.24a.87.87,0,0,0,.07.17c0,.11.1.23.14.34l0,.06a1.3,1.3,0,0,0,.13.3l.18.48s0,0,0,.08a1.48,1.48,0,0,0,.12.29c.07.17.13.34.19.51h0a.68.68,0,0,0,.07.2c0,.12.08.24.13.36v0c.16.47.31,1,.49,1.41a5.26,5.26,0,0,0,.68,1.17,1.2,1.2,0,0,0,1.68.21Z"/><path d="M1512.26,580a2.34,2.34,0,0,0,2-2.63,29.86,29.86,0,0,0-.81-3.61,16.13,16.13,0,0,0-1.65-3.55,2.16,2.16,0,0,0-3.86,1.93,21.14,21.14,0,0,1,.89,2.09c.16.5.3,1,.42,1.5.14.76.26,1.52.39,2.28a2.37,2.37,0,0,0,2.31,2A1.63,1.63,0,0,0,1512.26,580Z"/><path d="M1508.46,586.57c.8-1.37.54-3.18.33-4.67a26.29,26.29,0,0,0-1.47-5.29,22.25,22.25,0,0,0-2.72-5.09,2.65,2.65,0,0,0-4.38,3c.28.49.54,1,.8,1.46.35.77.67,1.54,1,2.33.33,1,.64,2,.87,3,.11.57.19,1.14.25,1.72,0,.25,0,.5,0,.75a2.9,2.9,0,0,0-.29,1.28,3,3,0,0,0,5.62,1.51Z"/><path d="M1482.25,583.78a3.27,3.27,0,0,0,1.56-2.32c0-.3.11-.61.17-.91.14-.6.29-1.18.47-1.77l.18-.46a3.21,3.21,0,1,0-6.05-2.11c-.32,1.33-.67,2.65-1,4a3.25,3.25,0,0,0,2.24,3.94,3.4,3.4,0,0,0,.84.11A3.18,3.18,0,0,0,1482.25,583.78Z"/><path d="M1472.67,578.11c-.07-1.7,0-3.41.06-5.12.06-.68.13-1.36.22-2a1.46,1.46,0,1,0-2.9-.2c.12,2.45,0,4.91,0,7.36a1.29,1.29,0,1,0,2.57,0Z"/><path d="M1464.89,571.62c0-.43,0-.86,0-1.28l.06-.86c0-.54.12-1.07.2-1.61a2,2,0,1,0-4-.27c0,1.34-.1,2.67-.11,4a1.93,1.93,0,1,0,3.86,0Z"/><path d="M1458.57,569.49a21.18,21.18,0,0,0-1.23-8.57,1.81,1.81,0,0,0-2.13-1,1.83,1.83,0,0,0-1.26,2.22c0,.17.09.35.13.53a33,33,0,0,1,.64,4,13,13,0,0,1,0,1.65c0,.24,0,.48-.06.72a2,2,0,0,0,1.68,2.22h.24A2,2,0,0,0,1458.57,569.49Z"/><path d="M1454.46,573.63a1.75,1.75,0,0,0,1.49-2,45.93,45.93,0,0,0-1.11-5,29.31,29.31,0,0,0-2-4.83l.1.2-.42-.87a2,2,0,0,0-1-1,1.86,1.86,0,0,0-2.19,2.85c.16.21.31.43.47.65.26.41.51.83.74,1.25.27.58.52,1.17.74,1.77.26.8.48,1.61.66,2.42.2,1,.36,2,.52,3.07a1.78,1.78,0,0,0,1.72,1.5Z"/><path d="M1511.42,803.27a4.27,4.27,0,0,0-4.25-4.25l-4.14.17c-2.29.08-4.59.19-6.88.07-.84-.07-1.67-.16-2.5-.3-.3-.07-.6-.15-.89-.24l-.27-.12c-.11-.05-.21-.12-.32-.18l-.15-.12-.45-.58c0-.06,0-.12,0-.18-.08-1.61,0-3.23-.08-4.84s0-3.46,0-5.19c0,0,0-.1,0-.16.29-1.4.48-2.82.67-4.24s.35-2.69.47-4.05c.17-1.72.31-3.43.38-5.16,0-.61.07-1.22,0-1.83,0-1,0-1.9-.07-2.85,0-1.56-.17-3.12-.26-4.68s-.12-3.12-.18-4.68c-.12-3.14-.17-6.28-.22-9.42,0-2.84,0-5.67,0-8.5s.09-5.69.08-8.54v-6.54c0-1.08,0-2.18,0-3.26q-.29-5.46-.59-10.92c0-.84-.13-1.68-.23-2.52-.23-2.09-.47-4.18-.7-6.27-.29-2.54-.55-5.08-.91-7.62q-.81-5.82-1.63-11.63c-.11-.77-.17-1.55-.25-2.33-.21-2.15-.43-4.3-.64-6.45-.16-1.56-.32-3.12-.47-4.69-.13-3.39-.28-6.78-.42-10.17-.12-2.84-.14-5.67-.19-8.52-.1-5.77-.21-11.55-.18-17.32,0-1.93,0-3.85,0-5.78,0-.81,0-1.61,0-2.42l.42-8.74a86.19,86.19,0,0,1,1.16-8.62v0a43.45,43.45,0,0,1,1.14-4.35,24.6,24.6,0,0,1,1-2.49,1.44,1.44,0,0,0,.57-1.52v0a1.39,1.39,0,0,0-1.86-.9,2.12,2.12,0,0,0-.86.74,3.41,3.41,0,0,0-.35.65c-.2.4-.37.81-.55,1.21a31,31,0,0,0-1.82,6c-.44,2-.74,3.92-1,5.9-.16,1.21-.32,2.42-.4,3.64l-.42,6c-.08,1.09-.19,2.17-.22,3.26q-.35,10.11-.57,20.22c-.07,3.12-.12,6.23-.18,9.34-.06,2.77,0,5.54,0,8.31l0,5.48c0,.87.1,1.74.16,2.61.25,3.72.5,7.43.76,11.15,0,.52.11,1.05.17,1.57.17,1.51.33,3,.5,4.55.29,2.62.59,5.25.88,7.87.24,2.15.36,4.3.54,6.45s.39,4.6.58,6.9c.08,3.45.15,6.89.23,10.33.06,2.93-.11,5.86-.2,8.79-.09,2.75-.18,5.49-.3,8.24-.11,2.91-.27,5.82-.29,8.74s-.06,5.59-.08,8.39c0,2.2,0,4.41.09,6.61,0,2,.09,4,.15,6s0,4.16-.14,6.24c-.29,2.94-.64,5.87-.94,8.81s-.27,5.8-.32,8.7c0,1.43,0,2.86,0,4.29a12.15,12.15,0,0,0,.37,2.94,10.12,10.12,0,0,0,1.17,2.38,8.71,8.71,0,0,0,2.2,2.33,12.64,12.64,0,0,0,5.42,2.06,42,42,0,0,0,6.53.5c1.53,0,3.06,0,4.58,0l2.76,0h.08A4.29,4.29,0,0,0,1511.42,803.27Z"/><path d="M1500.14,828.83a5.47,5.47,0,0,0-.54-.41l.12.09-.31-.18.15.07a3.87,3.87,0,0,0-.55-.25,5.17,5.17,0,0,0-.68-.16l.16,0a6.36,6.36,0,0,0-.75-.08h-.18l-.46.07-.35.09a8,8,0,0,1,2.88.64c.28.12.56.26.84.4C1500.36,829,1500.26,828.93,1500.14,828.83Zm-.09,13.56a5.69,5.69,0,0,1-3.11-1l-.56-.38a5,5,0,0,1-2.13-.76,8,8,0,0,1-2.21-2,4.47,4.47,0,0,1-1.35-1.8,10.54,10.54,0,0,1-.41-1.46,6,6,0,0,1,0-1.52,5.72,5.72,0,0,1,.92-2.44c.1-.16.21-.32.32-.47s0-.15,0-.23a6,6,0,0,1,5.06-5,6,6,0,0,1,6.09,3.17,5.27,5.27,0,0,1,.55,1.78,9.4,9.4,0,0,1,.11,1.19c.09.11.17.23.26.35a8.9,8.9,0,0,1,1.08,2,7.92,7.92,0,0,1,.51,2.2,7.16,7.16,0,0,1-.27,2.52,5.22,5.22,0,0,1-.91,1.88,5.28,5.28,0,0,1-3.18,1.93A4,4,0,0,1,1500.05,842.39Z"/></svg>