<svg id="Layer_1" data-name="Layer 1" xmlns="http://www.w3.org/2000/svg" viewBox="0 0 1920 1080"><defs><style>.cls-1{fill:#1a1a1a;opacity:0.8;}.cls-2{fill:#b3f4ff;}</style></defs><circle class="cls-1" cx="1437" cy="589" r="465"/><path d="M148.77,357.33a18.91,18.91,0,0,1-7.32-7.62,24.41,24.41,0,0,1,0-22.32,18.91,18.91,0,0,1,7.32-7.62,23.4,23.4,0,0,1,22,0,19.12,19.12,0,0,1,7.32,7.65,24.05,24.05,0,0,1,0,22.26,19.12,19.12,0,0,1-7.32,7.65,23.4,23.4,0,0,1-22,0Zm19.38-4.5a14.19,14.19,0,0,0,5.4-5.88,19.9,19.9,0,0,0,0-16.8,14.19,14.19,0,0,0-5.4-5.88,17.24,17.24,0,0,0-16.71,0,14.25,14.25,0,0,0-5.37,5.88,19.9,19.9,0,0,0,0,16.8,14.25,14.25,0,0,0,5.37,5.88,17.24,17.24,0,0,0,16.71,0Z"/><path d="M189.15,359a2.61,2.61,0,0,1-.78-1.92V331.35a2.71,2.71,0,0,1,.78-2,2.56,2.56,0,0,1,1.92-.81,2.77,2.77,0,0,1,2.76,2.76v2.46a19.94,19.94,0,0,1,4.92-4,12.42,12.42,0,0,1,6.24-1.5,10.37,10.37,0,0,1,5.73,1.56,10.14,10.14,0,0,1,3.72,4.26,13.6,13.6,0,0,1,1.29,5.94v17a2.56,2.56,0,0,1-.81,1.92,2.71,2.71,0,0,1-1.95.78,2.66,2.66,0,0,1-2.7-2.7V340.65q0-7.32-6.6-7.32a9.55,9.55,0,0,0-5.37,1.56,19.44,19.44,0,0,0-4.47,4.2v18A2.56,2.56,0,0,1,193,359a2.71,2.71,0,0,1-2,.78A2.61,2.61,0,0,1,189.15,359Z"/><path d="M227.16,355.92q-4.11-4.17-4.11-11.73a19.56,19.56,0,0,1,1.56-7.86,13.36,13.36,0,0,1,4.8-5.82,13.79,13.79,0,0,1,8-2.22,14,14,0,0,1,7.68,2.07,13.39,13.39,0,0,1,4.92,5.52,17,17,0,0,1,1.68,7.53,2.62,2.62,0,0,1-2.76,2.7H228.57a9.87,9.87,0,0,0,3.12,6.54q2.64,2.34,7.38,2.34a18,18,0,0,0,4.41-.48,18.32,18.32,0,0,0,3.69-1.38,2.38,2.38,0,0,1,1.08-.24,2.41,2.41,0,0,1,1.68.66,2.18,2.18,0,0,1,.72,1.68,2.59,2.59,0,0,1-1.56,2.22,18.74,18.74,0,0,1-10.5,2.64Q231.27,360.09,227.16,355.92Zm19.11-14.25a9.61,9.61,0,0,0-1.53-4.92,8.26,8.26,0,0,0-3.33-2.91,9.15,9.15,0,0,0-8,0,8.06,8.06,0,0,0-3.3,2.91,9.79,9.79,0,0,0-1.5,4.92Z"/><path d="M276.27,352.17v-18.6H272a1.13,1.13,0,0,1-1.14-1.14,1.25,1.25,0,0,1,.54-1l8.16-8a1.51,1.51,0,0,1,1-.54,1.06,1.06,0,0,1,.81.36,1.2,1.2,0,0,1,.33.84v4.8h6.78a2.26,2.26,0,0,1,2.34,2.34,2.3,2.3,0,0,1-.66,1.65,2.22,2.22,0,0,1-1.68.69h-6.78v18.12q0,2.34,1.11,3a5.59,5.59,0,0,0,2.79.63,8.32,8.32,0,0,0,2.4-.36l.51-.12a3.27,3.27,0,0,1,.69-.06,2.11,2.11,0,0,1,1.5.63,2,2,0,0,1,.66,1.53A2.27,2.27,0,0,1,290,359a11.74,11.74,0,0,1-5,1.08Q276.27,360.09,276.27,352.17Z"/><path d="M298.17,359a2.61,2.61,0,0,1-.78-1.92V318.15a2.71,2.71,0,0,1,.78-1.95,2.56,2.56,0,0,1,1.92-.81,2.77,2.77,0,0,1,2.76,2.76v15.66a19.94,19.94,0,0,1,4.92-4,12.42,12.42,0,0,1,6.24-1.5,10.37,10.37,0,0,1,5.73,1.56,10.14,10.14,0,0,1,3.72,4.26,13.6,13.6,0,0,1,1.29,5.94v17a2.56,2.56,0,0,1-.81,1.92,2.71,2.71,0,0,1-1.95.78,2.66,2.66,0,0,1-2.7-2.7V340.65q0-7.32-6.6-7.32a9.55,9.55,0,0,0-5.37,1.56,19.44,19.44,0,0,0-4.47,4.2v18A2.56,2.56,0,0,1,302,359a2.71,2.71,0,0,1-2,.78A2.61,2.61,0,0,1,298.17,359Z"/><path d="M334.35,321.75a3,3,0,0,1-.9-2.16v-.24a3.07,3.07,0,0,1,3.06-3.06h.36a3.07,3.07,0,0,1,3.06,3.06v.24a3.07,3.07,0,0,1-3.06,3.06h-.36A3,3,0,0,1,334.35,321.75Zm.36,37.26a2.61,2.61,0,0,1-.78-1.92V331.35a2.71,2.71,0,0,1,.78-2,2.56,2.56,0,0,1,1.92-.81,2.67,2.67,0,0,1,2.76,2.76v25.74a2.56,2.56,0,0,1-.81,1.92,2.71,2.71,0,0,1-1.95.78A2.61,2.61,0,0,1,334.71,359Z"/><path d="M349.65,359a2.61,2.61,0,0,1-.78-1.92V331.35a2.71,2.71,0,0,1,.78-2,2.56,2.56,0,0,1,1.92-.81,2.77,2.77,0,0,1,2.76,2.76v2.46a19.94,19.94,0,0,1,4.92-4,12.42,12.42,0,0,1,6.24-1.5,10.37,10.37,0,0,1,5.73,1.56,10.14,10.14,0,0,1,3.72,4.26,13.6,13.6,0,0,1,1.29,5.94v17a2.56,2.56,0,0,1-.81,1.92,2.71,2.71,0,0,1-1.95.78,2.66,2.66,0,0,1-2.7-2.7V340.65q0-7.32-6.6-7.32a9.55,9.55,0,0,0-5.37,1.56,19.44,19.44,0,0,0-4.47,4.2v18a2.56,2.56,0,0,1-.81,1.92,2.71,2.71,0,0,1-1.95.78A2.61,2.61,0,0,1,349.65,359Z"/><path d="M392.67,373a23,23,0,0,1-5.82-2.22,2.28,2.28,0,0,1-1.08-2.1,2.46,2.46,0,0,1,.69-1.71,2.23,2.23,0,0,1,1.71-.75,3,3,0,0,1,1.08.24,21.83,21.83,0,0,0,9.9,2.28q9.18,0,9.18-9.78v-4a13.54,13.54,0,0,1-10.26,4.56,14.46,14.46,0,0,1-6.87-1.77,14.3,14.3,0,0,1-5.49-5.28,18,18,0,0,1,0-17.1,14.3,14.3,0,0,1,5.49-5.28,14.46,14.46,0,0,1,6.87-1.77,13.54,13.54,0,0,1,10.26,4.56v-1.5a2.71,2.71,0,0,1,.78-2,2.56,2.56,0,0,1,1.92-.81,2.77,2.77,0,0,1,2.76,2.76v26.82q0,7.56-3.66,11.64t-10.44,4.08A28.4,28.4,0,0,1,392.67,373Zm11.52-19.68a18,18,0,0,0,4.14-3.24V337.71a18,18,0,0,0-4.14-3.24,10.08,10.08,0,0,0-5-1.2,10.19,10.19,0,0,0-7.35,2.73q-2.85,2.73-2.85,7.89t2.85,7.89a10.19,10.19,0,0,0,7.35,2.73A10.08,10.08,0,0,0,404.19,353.31Z"/><path d="M443.88,372.81a2.59,2.59,0,0,1-.75-1.86,2.72,2.72,0,0,1,.18-1l3.9-10-11.28-27.48a3.07,3.07,0,0,1-.24-1.14,2.71,2.71,0,0,1,.78-2,2.56,2.56,0,0,1,1.92-.81,2.62,2.62,0,0,1,1.53.48,2.72,2.72,0,0,1,1,1.2l9.24,22.92,9.42-22.8a2.62,2.62,0,0,1,2.52-1.8,2.56,2.56,0,0,1,1.92.81,2.71,2.71,0,0,1,.78,2,2.88,2.88,0,0,1-.18,1l-16.38,39.36a2.7,2.7,0,0,1-2.52,1.86A2.44,2.44,0,0,1,443.88,372.81Z"/><path d="M476.07,358.11a13.46,13.46,0,0,1-5.37-5.61,19.21,19.21,0,0,1,0-16.62,13.46,13.46,0,0,1,5.37-5.61,17.44,17.44,0,0,1,16.14,0,13.65,13.65,0,0,1,5.4,5.61,18.94,18.94,0,0,1,0,16.62,13.65,13.65,0,0,1-5.4,5.61,17.44,17.44,0,0,1-16.14,0ZM488.88,354a9.16,9.16,0,0,0,3.72-3.6,12,12,0,0,0,1.47-6.24A11.88,11.88,0,0,0,492.6,338a9,9,0,0,0-3.72-3.57,10.52,10.52,0,0,0-4.71-1.11,10.64,10.64,0,0,0-4.77,1.11,8.78,8.78,0,0,0-3.69,3.57,12.08,12.08,0,0,0-1.44,6.18,12.21,12.21,0,0,0,1.44,6.24,9,9,0,0,0,3.69,3.6,10.41,10.41,0,0,0,4.77,1.14A10.29,10.29,0,0,0,488.88,354Z"/><path d="M511.86,358.53a10.14,10.14,0,0,1-3.72-4.26,13.6,13.6,0,0,1-1.29-5.94v-17a2.56,2.56,0,0,1,.81-1.92,2.71,2.71,0,0,1,1.95-.78,2.61,2.61,0,0,1,1.92.78,2.65,2.65,0,0,1,.78,1.92v16.44q0,7.32,6.6,7.32a9.55,9.55,0,0,0,5.37-1.56,19.44,19.44,0,0,0,4.47-4.2v-18a2.56,2.56,0,0,1,.81-1.92,2.71,2.71,0,0,1,2-.78,2.66,2.66,0,0,1,2.7,2.7V357a2.71,2.71,0,0,1-.78,2,2.56,2.56,0,0,1-1.92.81,2.77,2.77,0,0,1-2.76-2.76v-2.46a20.13,20.13,0,0,1-4.92,4,12.45,12.45,0,0,1-6.24,1.5A10.35,10.35,0,0,1,511.86,358.53Z"/><path d="M565.46,358.17a14.69,14.69,0,0,1-5.84-5.52,17.37,17.37,0,0,1,0-16.92,14.69,14.69,0,0,1,5.84-5.52,16.93,16.93,0,0,1,8-1.92,16.71,16.71,0,0,1,5.49.81,20.91,20.91,0,0,1,4.28,2.07,2.39,2.39,0,0,1,.51,3.75,2.09,2.09,0,0,1-1.59.75,2.74,2.74,0,0,1-1.32-.36,22.8,22.8,0,0,0-3.38-1.47,11.82,11.82,0,0,0-3.52-.45,10.88,10.88,0,0,0-8.1,3,11.9,11.9,0,0,0,0,15.66,10.88,10.88,0,0,0,8.1,3,11.82,11.82,0,0,0,3.52-.45,22.8,22.8,0,0,0,3.38-1.47,2.74,2.74,0,0,1,1.32-.36,2.09,2.09,0,0,1,1.59.75,2.39,2.39,0,0,1-.51,3.75,20.91,20.91,0,0,1-4.28,2.07,16.71,16.71,0,0,1-5.49.81A16.93,16.93,0,0,1,565.46,358.17Z"/><path d="M594.17,359a8.52,8.52,0,0,1-3.57-3.15,8.68,8.68,0,0,1-1.32-4.77,8.43,8.43,0,0,1,3.51-7.08q3.51-2.64,10.29-2.64h7.26v-.48q0-4-2-5.7t-6.09-1.74a20.45,20.45,0,0,0-4,.36,34,34,0,0,0-3.93,1.08,3.37,3.37,0,0,1-.78.12,2.13,2.13,0,0,1-1.56-.66,2.2,2.2,0,0,1-.66-1.62,2.31,2.31,0,0,1,1.56-2.28,26.39,26.39,0,0,1,10.38-2.16,13.55,13.55,0,0,1,7,1.68,10.65,10.65,0,0,1,4.21,4.35,12.77,12.77,0,0,1,1.34,5.79v17A2.56,2.56,0,0,1,615,359a2.69,2.69,0,0,1-2,.78,2.66,2.66,0,0,1-2.7-2.7v-1.56a15.07,15.07,0,0,1-11.28,4.56A11.15,11.15,0,0,1,594.17,359Zm12-5a14.26,14.26,0,0,0,4.13-3.21v-5H603.8q-9.06,0-9.06,4.74a4.45,4.45,0,0,0,1.47,3.48q1.47,1.32,4.89,1.32A10.92,10.92,0,0,0,606.21,354Z"/><path d="M625.76,359a2.61,2.61,0,0,1-.78-1.92V331.35a2.71,2.71,0,0,1,.78-2,2.56,2.56,0,0,1,1.92-.81,2.77,2.77,0,0,1,2.76,2.76v2.46a19.94,19.94,0,0,1,4.92-4,12.42,12.42,0,0,1,6.24-1.5,10.37,10.37,0,0,1,5.73,1.56,10.14,10.14,0,0,1,3.72,4.26,13.6,13.6,0,0,1,1.29,5.94v17a2.56,2.56,0,0,1-.81,1.92,2.71,2.71,0,0,1-1.95.78,2.66,2.66,0,0,1-2.7-2.7V340.65q0-7.32-6.6-7.32a9.55,9.55,0,0,0-5.37,1.56,19.44,19.44,0,0,0-4.47,4.2v18a2.56,2.56,0,0,1-.81,1.92,2.71,2.71,0,0,1-2,.78A2.61,2.61,0,0,1,625.76,359Z"/><path d="M146.37,430.17a14.78,14.78,0,0,1-5.85-5.52,17.44,17.44,0,0,1,0-16.92,14.78,14.78,0,0,1,5.85-5.52,16.92,16.92,0,0,1,8-1.92,16.63,16.63,0,0,1,5.49.81,20.74,20.74,0,0,1,4.29,2.07,2.39,2.39,0,0,1,.51,3.75,2.11,2.11,0,0,1-1.59.75,2.74,2.74,0,0,1-1.32-.36,22.85,22.85,0,0,0-3.39-1.47,11.7,11.7,0,0,0-3.51-.45,10.88,10.88,0,0,0-8.1,3,11.9,11.9,0,0,0,0,15.66,10.88,10.88,0,0,0,8.1,3,11.7,11.7,0,0,0,3.51-.45,22.85,22.85,0,0,0,3.39-1.47,2.74,2.74,0,0,1,1.32-.36,2.11,2.11,0,0,1,1.59.75,2.39,2.39,0,0,1-.51,3.75,20.74,20.74,0,0,1-4.29,2.07,16.63,16.63,0,0,1-5.49.81A16.92,16.92,0,0,1,146.37,430.17Z"/><path d="M177.33,430.11A13.46,13.46,0,0,1,172,424.5a19.21,19.21,0,0,1,0-16.62,13.46,13.46,0,0,1,5.37-5.61,17.44,17.44,0,0,1,16.14,0,13.65,13.65,0,0,1,5.4,5.61,18.94,18.94,0,0,1,0,16.62,13.65,13.65,0,0,1-5.4,5.61,17.44,17.44,0,0,1-16.14,0ZM190.14,426a9.16,9.16,0,0,0,3.72-3.6,12,12,0,0,0,1.47-6.24,11.88,11.88,0,0,0-1.47-6.18,9,9,0,0,0-3.72-3.57,10.52,10.52,0,0,0-4.71-1.11,10.64,10.64,0,0,0-4.77,1.11A8.78,8.78,0,0,0,177,410a12.08,12.08,0,0,0-1.44,6.18,12.21,12.21,0,0,0,1.44,6.24,9,9,0,0,0,3.69,3.6,10.41,10.41,0,0,0,4.77,1.14A10.29,10.29,0,0,0,190.14,426Z"/><path d="M209.19,431a2.61,2.61,0,0,1-.78-1.92V403.35a2.71,2.71,0,0,1,.78-2,2.56,2.56,0,0,1,1.92-.81,2.77,2.77,0,0,1,2.76,2.76v2.46a19.94,19.94,0,0,1,4.92-4,12.42,12.42,0,0,1,6.24-1.5,10.37,10.37,0,0,1,5.73,1.56,10.14,10.14,0,0,1,3.72,4.26,13.6,13.6,0,0,1,1.29,5.94v17A2.56,2.56,0,0,1,235,431a2.71,2.71,0,0,1-2,.78,2.66,2.66,0,0,1-2.7-2.7V412.65q0-7.32-6.6-7.32a9.55,9.55,0,0,0-5.37,1.56,19.44,19.44,0,0,0-4.47,4.2v18a2.56,2.56,0,0,1-.81,1.92,2.71,2.71,0,0,1-1.95.78A2.61,2.61,0,0,1,209.19,431Z"/><path d="M246,424.17v-18.6h-4.26a1.13,1.13,0,0,1-1.14-1.14,1.25,1.25,0,0,1,.54-1l8.16-8a1.51,1.51,0,0,1,1-.54,1.06,1.06,0,0,1,.81.36,1.2,1.2,0,0,1,.33.84v4.8h6.78a2.26,2.26,0,0,1,2.34,2.34,2.3,2.3,0,0,1-.66,1.65,2.22,2.22,0,0,1-1.68.69h-6.78v18.12q0,2.34,1.11,3a5.59,5.59,0,0,0,2.79.63,8.32,8.32,0,0,0,2.4-.36l.51-.12a3.27,3.27,0,0,1,.69-.06,2.11,2.11,0,0,1,1.5.63,2,2,0,0,1,.66,1.53,2.27,2.27,0,0,1-1.38,2.1,11.74,11.74,0,0,1-5,1.08Q246,432.09,246,424.17Z"/><path d="M267.93,431a2.61,2.61,0,0,1-.78-1.92V403.35a2.71,2.71,0,0,1,.78-2,2.56,2.56,0,0,1,1.92-.81,2.77,2.77,0,0,1,2.76,2.76v2.58q4.2-5.64,9.42-5.64h.3a2.51,2.51,0,0,1,1.89.78A2.66,2.66,0,0,1,285,403a2.42,2.42,0,0,1-.78,1.86,2.81,2.81,0,0,1-2,.72h-.3a10.23,10.23,0,0,0-5.28,1.41,12.16,12.16,0,0,0-4,3.87v18.24a2.56,2.56,0,0,1-.81,1.92,2.71,2.71,0,0,1-1.95.78A2.61,2.61,0,0,1,267.93,431Z"/><path d="M294.63,430.11a13.46,13.46,0,0,1-5.37-5.61,19.21,19.21,0,0,1,0-16.62,13.46,13.46,0,0,1,5.37-5.61,17.44,17.44,0,0,1,16.14,0,13.65,13.65,0,0,1,5.4,5.61,18.94,18.94,0,0,1,0,16.62,13.65,13.65,0,0,1-5.4,5.61,17.44,17.44,0,0,1-16.14,0ZM307.44,426a9.16,9.16,0,0,0,3.72-3.6,12,12,0,0,0,1.47-6.24,11.88,11.88,0,0,0-1.47-6.18,9,9,0,0,0-3.72-3.57,10.52,10.52,0,0,0-4.71-1.11,10.64,10.64,0,0,0-4.77,1.11,8.78,8.78,0,0,0-3.69,3.57,12.08,12.08,0,0,0-1.44,6.18,12.21,12.21,0,0,0,1.44,6.24A9,9,0,0,0,298,426a10.41,10.41,0,0,0,4.77,1.14A10.29,10.29,0,0,0,307.44,426Z"/><path d="M326.49,431a2.61,2.61,0,0,1-.78-1.92V390.15a2.71,2.71,0,0,1,.78-1.95,2.56,2.56,0,0,1,1.92-.81,2.67,2.67,0,0,1,2.76,2.76v38.94a2.56,2.56,0,0,1-.81,1.92,2.71,2.71,0,0,1-1.95.78A2.61,2.61,0,0,1,326.49,431Z"/><path d="M356.67,393.75a3,3,0,0,1-.9-2.16v-.24a3.07,3.07,0,0,1,3.06-3.06h.36a3.07,3.07,0,0,1,3.06,3.06v.24a3.07,3.07,0,0,1-3.06,3.06h-.36A3,3,0,0,1,356.67,393.75ZM357,431a2.61,2.61,0,0,1-.78-1.92V403.35a2.71,2.71,0,0,1,.78-2,2.56,2.56,0,0,1,1.92-.81,2.67,2.67,0,0,1,2.76,2.76v25.74a2.56,2.56,0,0,1-.81,1.92,2.71,2.71,0,0,1-1.95.78A2.61,2.61,0,0,1,357,431Z"/><path d="M370.17,429.39a2.29,2.29,0,0,1-1-2,2.41,2.41,0,0,1,.66-1.68,2.16,2.16,0,0,1,1.68-.72,2.64,2.64,0,0,1,1.08.24,23.91,23.91,0,0,0,3.84,1.32,17.79,17.79,0,0,0,4.32.48q6.66,0,6.66-4.26a2.27,2.27,0,0,0-1.53-2.1,31.33,31.33,0,0,0-5-1.62,45.27,45.27,0,0,1-5.85-1.74,10.21,10.21,0,0,1-4-2.73,6.94,6.94,0,0,1-1.65-4.83,8.65,8.65,0,0,1,3-6.84q3-2.64,8.67-2.64a25.05,25.05,0,0,1,8.7,1.5,2.25,2.25,0,0,1,1.29.9,2.37,2.37,0,0,1-.24,3.06,2.27,2.27,0,0,1-1.71.72,3.37,3.37,0,0,1-.78-.12,23,23,0,0,0-6.84-1.08,9.37,9.37,0,0,0-5.07,1.17,3.47,3.47,0,0,0-1.83,3,2.77,2.77,0,0,0,1.68,2.64,23.8,23.8,0,0,0,5.22,1.62,50,50,0,0,1,5.76,1.77,9.52,9.52,0,0,1,3.81,2.73,7.46,7.46,0,0,1,1.59,5,7.93,7.93,0,0,1-3,6.36q-3,2.52-8.55,2.52A22.32,22.32,0,0,1,370.17,429.39Z"/><path d="M416.37,431a2.57,2.57,0,0,1-.78-1.92V390.15a2.67,2.67,0,0,1,.78-1.95,2.55,2.55,0,0,1,1.92-.81,2.75,2.75,0,0,1,2.75,2.76v15.66a20.13,20.13,0,0,1,4.92-4,12.44,12.44,0,0,1,6.25-1.5,10.4,10.4,0,0,1,5.73,1.56,10.28,10.28,0,0,1,3.72,4.26,13.6,13.6,0,0,1,1.29,5.94v17a2.53,2.53,0,0,1-.82,1.92,2.67,2.67,0,0,1-1.94.78,2.66,2.66,0,0,1-2.7-2.7V412.65q0-7.32-6.61-7.32a9.49,9.49,0,0,0-5.36,1.56,19.47,19.47,0,0,0-4.48,4.2v18a2.55,2.55,0,0,1-.8,1.92,2.73,2.73,0,0,1-1.95.78A2.59,2.59,0,0,1,416.37,431Z"/><path d="M457.53,430.11a13.48,13.48,0,0,1-5.38-5.61,19.21,19.21,0,0,1,0-16.62,13.48,13.48,0,0,1,5.38-5.61,17.42,17.42,0,0,1,16.13,0,13.65,13.65,0,0,1,5.4,5.61,18.94,18.94,0,0,1,0,16.62,13.65,13.65,0,0,1-5.4,5.61,17.42,17.42,0,0,1-16.13,0Zm12.8-4.14a9.16,9.16,0,0,0,3.72-3.6,11.91,11.91,0,0,0,1.48-6.24,11.78,11.78,0,0,0-1.48-6.18,9,9,0,0,0-3.72-3.57,10.52,10.52,0,0,0-4.71-1.11,10.63,10.63,0,0,0-4.76,1.11,8.8,8.8,0,0,0-3.7,3.57,12.18,12.18,0,0,0-1.44,6.18,12.31,12.31,0,0,0,1.44,6.24,9,9,0,0,0,3.7,3.6,10.4,10.4,0,0,0,4.76,1.14A10.29,10.29,0,0,0,470.33,426Z"/><path d="M495.14,431.07a3.66,3.66,0,0,1-1.32-1.8l-8.52-25a3.23,3.23,0,0,1-.18-1,2.66,2.66,0,0,1,2.7-2.7,2.74,2.74,0,0,1,1.53.45,2.21,2.21,0,0,1,.93,1.17l7,23.1,7-22.56a3.08,3.08,0,0,1,4.77-1.56,3,3,0,0,1,1.11,1.56l7,22.56,7-23.1a2.21,2.21,0,0,1,.93-1.17,2.74,2.74,0,0,1,1.53-.45,2.66,2.66,0,0,1,2.7,2.7,3.23,3.23,0,0,1-.18,1l-8.52,25a3.66,3.66,0,0,1-1.32,1.8,3.6,3.6,0,0,1-4.32,0,4,4,0,0,1-1.38-1.86l-6.36-19.86-6.36,19.86a4,4,0,0,1-1.38,1.86,3.6,3.6,0,0,1-4.32,0Z"/><path d="M556.31,444.81a2.59,2.59,0,0,1-.75-1.86,2.72,2.72,0,0,1,.18-1l3.9-10-11.28-27.48a3.07,3.07,0,0,1-.24-1.14,2.71,2.71,0,0,1,.78-2,2.56,2.56,0,0,1,1.92-.81,2.62,2.62,0,0,1,1.53.48,2.72,2.72,0,0,1,1,1.2l9.24,22.92,9.42-22.8a2.62,2.62,0,0,1,2.52-1.8,2.56,2.56,0,0,1,1.92.81,2.71,2.71,0,0,1,.78,2,2.88,2.88,0,0,1-.18,1l-16.38,39.36a2.7,2.7,0,0,1-2.52,1.86A2.44,2.44,0,0,1,556.31,444.81Z"/><path d="M588.5,430.11a13.46,13.46,0,0,1-5.37-5.61,19.21,19.21,0,0,1,0-16.62,13.46,13.46,0,0,1,5.37-5.61,17.44,17.44,0,0,1,16.14,0,13.65,13.65,0,0,1,5.4,5.61,18.94,18.94,0,0,1,0,16.62,13.65,13.65,0,0,1-5.4,5.61,17.44,17.44,0,0,1-16.14,0ZM601.31,426a9.16,9.16,0,0,0,3.72-3.6,12,12,0,0,0,1.47-6.24A11.88,11.88,0,0,0,605,410a9,9,0,0,0-3.72-3.57,10.52,10.52,0,0,0-4.71-1.11,10.64,10.64,0,0,0-4.77,1.11,8.78,8.78,0,0,0-3.69,3.57,12.08,12.08,0,0,0-1.44,6.18,12.21,12.21,0,0,0,1.44,6.24,9,9,0,0,0,3.69,3.6,10.41,10.41,0,0,0,4.77,1.14A10.29,10.29,0,0,0,601.31,426Z"/><path d="M624.29,430.53a10.14,10.14,0,0,1-3.72-4.26,13.6,13.6,0,0,1-1.29-5.94v-17a2.56,2.56,0,0,1,.81-1.92,2.71,2.71,0,0,1,1.95-.78,2.66,2.66,0,0,1,2.7,2.7v16.44q0,7.32,6.6,7.32a9.55,9.55,0,0,0,5.37-1.56,19.44,19.44,0,0,0,4.47-4.2v-18a2.56,2.56,0,0,1,.81-1.92,2.71,2.71,0,0,1,2-.78,2.66,2.66,0,0,1,2.7,2.7V429a2.71,2.71,0,0,1-.78,2,2.56,2.56,0,0,1-1.92.81,2.77,2.77,0,0,1-2.76-2.76v-2.46a19.94,19.94,0,0,1-4.92,4,12.42,12.42,0,0,1-6.24,1.5A10.37,10.37,0,0,1,624.29,430.53Z"/><path d="M141,516.78a2.71,2.71,0,0,1-.78-1.95V475.29a2.66,2.66,0,0,1,2.7-2.7,2.71,2.71,0,0,1,2,.78,2.56,2.56,0,0,1,.81,1.92v1.56a13.79,13.79,0,0,1,10.26-4.56,14.07,14.07,0,0,1,7.05,1.89,14.34,14.34,0,0,1,5.4,5.52,18.45,18.45,0,0,1,0,17,14.34,14.34,0,0,1-5.4,5.52,14.07,14.07,0,0,1-7.05,1.89,13.79,13.79,0,0,1-10.26-4.56v15.3a2.67,2.67,0,0,1-2.76,2.76A2.56,2.56,0,0,1,141,516.78Zm21.3-20.61q2.7-2.82,2.7-8t-2.7-8a9.43,9.43,0,0,0-7.14-2.82,11.33,11.33,0,0,0-5.19,1.23,14.82,14.82,0,0,0-4.29,3.27v12.6a14.82,14.82,0,0,0,4.29,3.27,11.33,11.33,0,0,0,5.19,1.23A9.43,9.43,0,0,0,162.27,496.17Z"/><path d="M180.3,499.92q-4.11-4.17-4.11-11.73a19.56,19.56,0,0,1,1.56-7.86,13.36,13.36,0,0,1,4.8-5.82,13.79,13.79,0,0,1,8-2.22,14,14,0,0,1,7.68,2.07,13.39,13.39,0,0,1,4.92,5.52,17,17,0,0,1,1.68,7.53,2.62,2.62,0,0,1-2.76,2.7H181.71a9.87,9.87,0,0,0,3.12,6.54q2.64,2.34,7.38,2.34a18,18,0,0,0,4.41-.48,18.32,18.32,0,0,0,3.69-1.38,2.38,2.38,0,0,1,1.08-.24,2.41,2.41,0,0,1,1.68.66,2.18,2.18,0,0,1,.72,1.68,2.59,2.59,0,0,1-1.56,2.22,18.74,18.74,0,0,1-10.5,2.64Q184.41,504.09,180.3,499.92Zm19.11-14.25a9.61,9.61,0,0,0-1.53-4.92,8.26,8.26,0,0,0-3.33-2.91,9.15,9.15,0,0,0-8,0,8.06,8.06,0,0,0-3.3,2.91,9.79,9.79,0,0,0-1.5,4.92Z"/><path d="M212.79,503a2.61,2.61,0,0,1-.78-1.92V475.35a2.71,2.71,0,0,1,.78-2,2.56,2.56,0,0,1,1.92-.81,2.77,2.77,0,0,1,2.76,2.76v2.58q4.2-5.64,9.42-5.64h.3a2.51,2.51,0,0,1,1.89.78,2.66,2.66,0,0,1,.75,1.92,2.42,2.42,0,0,1-.78,1.86,2.81,2.81,0,0,1-2,.72h-.3a10.23,10.23,0,0,0-5.28,1.41,12.16,12.16,0,0,0-4,3.87v18.24a2.56,2.56,0,0,1-.81,1.92,2.71,2.71,0,0,1-1.95.78A2.61,2.61,0,0,1,212.79,503Z"/><path d="M240.27,502.17a14.78,14.78,0,0,1-5.85-5.52,17.44,17.44,0,0,1,0-16.92,14.78,14.78,0,0,1,5.85-5.52,16.92,16.92,0,0,1,8-1.92,16.63,16.63,0,0,1,5.49.81,20.74,20.74,0,0,1,4.29,2.07,2.39,2.39,0,0,1,.51,3.75,2.11,2.11,0,0,1-1.59.75,2.74,2.74,0,0,1-1.32-.36,22.85,22.85,0,0,0-3.39-1.47,11.7,11.7,0,0,0-3.51-.45,10.88,10.88,0,0,0-8.1,3,11.9,11.9,0,0,0,0,15.66,10.88,10.88,0,0,0,8.1,3,11.7,11.7,0,0,0,3.51-.45,22.85,22.85,0,0,0,3.39-1.47,2.74,2.74,0,0,1,1.32-.36,2.11,2.11,0,0,1,1.59.75,2.39,2.39,0,0,1-.51,3.75,20.74,20.74,0,0,1-4.29,2.07,16.63,16.63,0,0,1-5.49.81A16.92,16.92,0,0,1,240.27,502.17Z"/><path d="M268.08,499.92Q264,495.75,264,488.19a19.56,19.56,0,0,1,1.56-7.86,13.36,13.36,0,0,1,4.8-5.82,13.79,13.79,0,0,1,8-2.22,14,14,0,0,1,7.68,2.07,13.39,13.39,0,0,1,4.92,5.52,17,17,0,0,1,1.68,7.53,2.62,2.62,0,0,1-2.76,2.7H269.49a9.87,9.87,0,0,0,3.12,6.54Q275.25,499,280,499a18,18,0,0,0,4.41-.48,18.32,18.32,0,0,0,3.69-1.38,2.38,2.38,0,0,1,1.08-.24,2.41,2.41,0,0,1,1.68.66,2.18,2.18,0,0,1,.72,1.68,2.59,2.59,0,0,1-1.56,2.22,18.74,18.74,0,0,1-10.5,2.64Q272.19,504.09,268.08,499.92Zm19.11-14.25a9.61,9.61,0,0,0-1.53-4.92,8.26,8.26,0,0,0-3.33-2.91,9.15,9.15,0,0,0-8,0,8.06,8.06,0,0,0-3.3,2.91,9.79,9.79,0,0,0-1.5,4.92Z"/><path d="M300.21,465.75a3,3,0,0,1-.9-2.16v-.24a3.07,3.07,0,0,1,3.06-3.06h.36a3.07,3.07,0,0,1,3.06,3.06v.24a3.07,3.07,0,0,1-3.06,3.06h-.36A3,3,0,0,1,300.21,465.75Zm.36,37.26a2.61,2.61,0,0,1-.78-1.92V475.35a2.71,2.71,0,0,1,.78-2,2.56,2.56,0,0,1,1.92-.81,2.67,2.67,0,0,1,2.76,2.76v25.74a2.56,2.56,0,0,1-.81,1.92,2.71,2.71,0,0,1-1.95.78A2.61,2.61,0,0,1,300.57,503Z"/><path d="M323.61,503.16a3.75,3.75,0,0,1-1.32-1.59l-10.44-25a3.36,3.36,0,0,1-.3-1.26,2.71,2.71,0,0,1,.78-2,2.56,2.56,0,0,1,1.92-.81,2.81,2.81,0,0,1,2.46,1.56l9.18,23.28,9.18-23.28a2.81,2.81,0,0,1,2.46-1.56,2.56,2.56,0,0,1,1.92.81,2.71,2.71,0,0,1,.78,2,3.36,3.36,0,0,1-.3,1.26l-10.44,25a3.75,3.75,0,0,1-1.32,1.59,3.38,3.38,0,0,1-2,.63h-.6A3.38,3.38,0,0,1,323.61,503.16Z"/><path d="M348.36,499.92q-4.11-4.17-4.11-11.73a19.56,19.56,0,0,1,1.56-7.86,13.36,13.36,0,0,1,4.8-5.82,13.79,13.79,0,0,1,8-2.22,14,14,0,0,1,7.68,2.07,13.39,13.39,0,0,1,4.92,5.52,17,17,0,0,1,1.68,7.53,2.62,2.62,0,0,1-2.76,2.7H349.77a9.87,9.87,0,0,0,3.12,6.54q2.64,2.34,7.38,2.34a18,18,0,0,0,4.41-.48,18.32,18.32,0,0,0,3.69-1.38,2.38,2.38,0,0,1,1.08-.24,2.41,2.41,0,0,1,1.68.66,2.18,2.18,0,0,1,.72,1.68,2.59,2.59,0,0,1-1.56,2.22,18.74,18.74,0,0,1-10.5,2.64Q352.47,504.09,348.36,499.92Zm19.11-14.25a9.61,9.61,0,0,0-1.53-4.92,8.26,8.26,0,0,0-3.33-2.91,9.15,9.15,0,0,0-8,0,8.06,8.06,0,0,0-3.3,2.91,9.79,9.79,0,0,0-1.5,4.92Z"/><path d="M397.47,496.17v-18.6h-4.26a1.13,1.13,0,0,1-1.14-1.14,1.25,1.25,0,0,1,.54-1l8.16-8a1.51,1.51,0,0,1,1-.54,1.06,1.06,0,0,1,.81.36,1.2,1.2,0,0,1,.33.84v4.8h6.78a2.26,2.26,0,0,1,2.34,2.34,2.3,2.3,0,0,1-.66,1.65,2.22,2.22,0,0,1-1.68.69h-6.78v18.12q0,2.34,1.11,3a5.59,5.59,0,0,0,2.79.63,8.32,8.32,0,0,0,2.4-.36l.51-.12a3.27,3.27,0,0,1,.69-.06,2.11,2.11,0,0,1,1.5.63,2,2,0,0,1,.66,1.53,2.27,2.27,0,0,1-1.38,2.1,11.74,11.74,0,0,1-5,1.08Q397.47,504.09,397.47,496.17Z"/><path d="M419.37,503a2.61,2.61,0,0,1-.78-1.92V462.15a2.71,2.71,0,0,1,.78-1.95,2.56,2.56,0,0,1,1.92-.81,2.77,2.77,0,0,1,2.76,2.76v15.66a19.94,19.94,0,0,1,4.92-4,12.42,12.42,0,0,1,6.24-1.5,10.37,10.37,0,0,1,5.73,1.56,10.14,10.14,0,0,1,3.72,4.26,13.6,13.6,0,0,1,1.29,5.94v17a2.56,2.56,0,0,1-.81,1.92,2.71,2.71,0,0,1-1.95.78,2.66,2.66,0,0,1-2.7-2.7V484.65q0-7.32-6.6-7.32a9.55,9.55,0,0,0-5.37,1.56,19.44,19.44,0,0,0-4.47,4.2v18a2.56,2.56,0,0,1-.81,1.92,2.71,2.71,0,0,1-1.95.78A2.61,2.61,0,0,1,419.37,503Z"/><path d="M455.55,465.75a3,3,0,0,1-.9-2.16v-.24a3.07,3.07,0,0,1,3.06-3.06h.36a3.07,3.07,0,0,1,3.06,3.06v.24a3.07,3.07,0,0,1-3.06,3.06h-.36A3,3,0,0,1,455.55,465.75Zm.36,37.26a2.61,2.61,0,0,1-.78-1.92V475.35a2.71,2.71,0,0,1,.78-2,2.56,2.56,0,0,1,1.92-.81,2.67,2.67,0,0,1,2.76,2.76v25.74a2.56,2.56,0,0,1-.81,1.92,2.71,2.71,0,0,1-1.95.78A2.61,2.61,0,0,1,455.91,503Z"/><path d="M469.05,501.39a2.29,2.29,0,0,1-1-2,2.41,2.41,0,0,1,.66-1.68,2.16,2.16,0,0,1,1.68-.72,2.64,2.64,0,0,1,1.08.24,23.91,23.91,0,0,0,3.84,1.32,17.85,17.85,0,0,0,4.32.48q6.66,0,6.66-4.26a2.27,2.27,0,0,0-1.53-2.1,31.68,31.68,0,0,0-5-1.62,45.27,45.27,0,0,1-5.85-1.74,10.29,10.29,0,0,1-4-2.73,6.89,6.89,0,0,1-1.65-4.83,8.65,8.65,0,0,1,3-6.84c2-1.76,4.91-2.64,8.67-2.64a25.05,25.05,0,0,1,8.7,1.5,2.25,2.25,0,0,1,1.29.9,2.41,2.41,0,0,1,.45,1.38,2.35,2.35,0,0,1-.69,1.68,2.27,2.27,0,0,1-1.71.72,3.23,3.23,0,0,1-.78-.12,23,23,0,0,0-6.84-1.08,9.37,9.37,0,0,0-5.07,1.17,3.49,3.49,0,0,0-1.83,3,2.76,2.76,0,0,0,1.68,2.64,24,24,0,0,0,5.22,1.62,50,50,0,0,1,5.76,1.77,9.59,9.59,0,0,1,3.81,2.73,7.41,7.41,0,0,1,1.59,5,7.93,7.93,0,0,1-3,6.36q-3,2.52-8.55,2.52A22.29,22.29,0,0,1,469.05,501.39Z"/><path d="M499.26,502.68a3.23,3.23,0,0,1-1-2.37V500a3.38,3.38,0,0,1,3.35-3.36h.61a3.38,3.38,0,0,1,3.36,3.36v.36a3.38,3.38,0,0,1-3.36,3.36h-.61A3.23,3.23,0,0,1,499.26,502.68Z"/><path d="M152.7,647a2.56,2.56,0,0,1-.81-1.92v-15.3l-14.34-20.1a3,3,0,0,1-.48-1.62,2.77,2.77,0,0,1,.75-2,2.47,2.47,0,0,1,1.89-.81,2.75,2.75,0,0,1,2.4,1.38l12.54,18.24,12.54-18.24a2.75,2.75,0,0,1,2.4-1.38,2.56,2.56,0,0,1,1.92.81,2.51,2.51,0,0,1,.72,2,3,3,0,0,1-.48,1.62l-14.4,20.1v15.3a2.66,2.66,0,0,1-2.7,2.7A2.71,2.71,0,0,1,152.7,647Z"/><path d="M179.43,646.11a13.46,13.46,0,0,1-5.37-5.61,19.21,19.21,0,0,1,0-16.62,13.46,13.46,0,0,1,5.37-5.61,17.44,17.44,0,0,1,16.14,0,13.65,13.65,0,0,1,5.4,5.61,18.94,18.94,0,0,1,0,16.62,13.65,13.65,0,0,1-5.4,5.61,17.44,17.44,0,0,1-16.14,0ZM192.24,642a9.16,9.16,0,0,0,3.72-3.6,12,12,0,0,0,1.47-6.24A11.88,11.88,0,0,0,196,626a9,9,0,0,0-3.72-3.57,10.52,10.52,0,0,0-4.71-1.11,10.64,10.64,0,0,0-4.77,1.11,8.78,8.78,0,0,0-3.69,3.57,12.08,12.08,0,0,0-1.44,6.18,12.21,12.21,0,0,0,1.44,6.24,9,9,0,0,0,3.69,3.6,10.41,10.41,0,0,0,4.77,1.14A10.29,10.29,0,0,0,192.24,642Z"/><path d="M215.22,646.53a10.14,10.14,0,0,1-3.72-4.26,13.6,13.6,0,0,1-1.29-5.94v-17a2.56,2.56,0,0,1,.81-1.92,2.71,2.71,0,0,1,1.95-.78,2.66,2.66,0,0,1,2.7,2.7v16.44q0,7.32,6.6,7.32a9.55,9.55,0,0,0,5.37-1.56,19.44,19.44,0,0,0,4.47-4.2v-18a2.56,2.56,0,0,1,.81-1.92,2.71,2.71,0,0,1,2-.78,2.66,2.66,0,0,1,2.7,2.7V645a2.71,2.71,0,0,1-.78,2,2.56,2.56,0,0,1-1.92.81,2.77,2.77,0,0,1-2.76-2.76v-2.46a19.94,19.94,0,0,1-4.92,4,12.42,12.42,0,0,1-6.24,1.5A10.37,10.37,0,0,1,215.22,646.53Z"/><path d="M263.43,647a2.61,2.61,0,0,1-.78-1.92V619.35a2.71,2.71,0,0,1,.78-2,2.56,2.56,0,0,1,1.92-.81,2.77,2.77,0,0,1,2.76,2.76v2.46a19.94,19.94,0,0,1,4.92-4,12.42,12.42,0,0,1,6.24-1.5,10.37,10.37,0,0,1,5.73,1.56,10.14,10.14,0,0,1,3.72,4.26,13.6,13.6,0,0,1,1.29,5.94v17a2.56,2.56,0,0,1-.81,1.92,2.71,2.71,0,0,1-1.95.78,2.66,2.66,0,0,1-2.7-2.7V628.65q0-7.32-6.6-7.32a9.55,9.55,0,0,0-5.37,1.56,19.44,19.44,0,0,0-4.47,4.2v18a2.56,2.56,0,0,1-.81,1.92,2.71,2.71,0,0,1-1.95.78A2.61,2.61,0,0,1,263.43,647Z"/><path d="M301.44,643.92q-4.11-4.17-4.11-11.73a19.56,19.56,0,0,1,1.56-7.86,13.36,13.36,0,0,1,4.8-5.82,13.79,13.79,0,0,1,8-2.22,14,14,0,0,1,7.68,2.07,13.39,13.39,0,0,1,4.92,5.52,17,17,0,0,1,1.68,7.53,2.62,2.62,0,0,1-2.76,2.7H302.85a9.87,9.87,0,0,0,3.12,6.54q2.64,2.34,7.38,2.34a18,18,0,0,0,4.41-.48,18.32,18.32,0,0,0,3.69-1.38,2.38,2.38,0,0,1,1.08-.24,2.41,2.41,0,0,1,1.68.66,2.18,2.18,0,0,1,.72,1.68,2.59,2.59,0,0,1-1.56,2.22,18.74,18.74,0,0,1-10.5,2.64Q305.55,648.09,301.44,643.92Zm19.11-14.25a9.61,9.61,0,0,0-1.53-4.92,8.26,8.26,0,0,0-3.33-2.91,9.15,9.15,0,0,0-8,0,8.06,8.06,0,0,0-3.3,2.91,9.79,9.79,0,0,0-1.5,4.92Z"/><path d="M335.4,643.92q-4.11-4.17-4.11-11.73a19.56,19.56,0,0,1,1.56-7.86,13.36,13.36,0,0,1,4.8-5.82,13.79,13.79,0,0,1,8-2.22,14,14,0,0,1,7.68,2.07,13.39,13.39,0,0,1,4.92,5.52,17,17,0,0,1,1.68,7.53,2.62,2.62,0,0,1-2.76,2.7H336.81a9.87,9.87,0,0,0,3.12,6.54q2.64,2.34,7.38,2.34a18,18,0,0,0,4.41-.48,18.32,18.32,0,0,0,3.69-1.38,2.38,2.38,0,0,1,1.08-.24,2.41,2.41,0,0,1,1.68.66,2.18,2.18,0,0,1,.72,1.68,2.59,2.59,0,0,1-1.56,2.22,18.74,18.74,0,0,1-10.5,2.64Q339.51,648.09,335.4,643.92Zm19.11-14.25a9.61,9.61,0,0,0-1.53-4.92,8.26,8.26,0,0,0-3.33-2.91,9.15,9.15,0,0,0-8,0,8.06,8.06,0,0,0-3.3,2.91,9.79,9.79,0,0,0-1.5,4.92Z"/><path d="M372.72,646.2a14.34,14.34,0,0,1-5.4-5.52,18.45,18.45,0,0,1,0-17,14.34,14.34,0,0,1,5.4-5.52,14.07,14.07,0,0,1,7-1.89A13.79,13.79,0,0,1,390,620.85v-14.7a2.63,2.63,0,0,1,.81-2,2.71,2.71,0,0,1,2-.78,2.58,2.58,0,0,1,1.92.81,2.71,2.71,0,0,1,.78,1.95v38.94a2.66,2.66,0,0,1-2.7,2.7,2.71,2.71,0,0,1-2-.78,2.56,2.56,0,0,1-.81-1.92v-1.56a13.79,13.79,0,0,1-10.26,4.56A14.07,14.07,0,0,1,372.72,646.2Zm13-4.44a14.82,14.82,0,0,0,4.29-3.27v-12.6a14.82,14.82,0,0,0-4.29-3.27,11.33,11.33,0,0,0-5.19-1.23,9.43,9.43,0,0,0-7.14,2.82q-2.7,2.82-2.7,8t2.7,8a9.43,9.43,0,0,0,7.14,2.82A11.33,11.33,0,0,0,385.74,641.76Z"/><path d="M423.62,647a2.64,2.64,0,0,1-.77-1.92V621.57h-3.54a2.36,2.36,0,0,1-2.34-2.34,2.22,2.22,0,0,1,.69-1.68,2.3,2.3,0,0,1,1.65-.66h3.54v-3.48a12,12,0,0,1,1.29-5.91,8,8,0,0,1,3.36-3.36,9.49,9.49,0,0,1,4.35-1,11.54,11.54,0,0,1,5.22,1.2,2.74,2.74,0,0,1,1,.87,2.14,2.14,0,0,1,.39,1.23,2.23,2.23,0,0,1-.66,1.59,2.09,2.09,0,0,1-1.56.69,5.69,5.69,0,0,1-1.38-.18q-1.44-.18-1.62-.18a5.24,5.24,0,0,0-3.69,1.14c-.83.76-1.23,2.14-1.23,4.14v3.3h7.5a2.36,2.36,0,0,1,1.68,4,2.24,2.24,0,0,1-1.68.69h-7.5v23.52a2.56,2.56,0,0,1-.81,1.92,2.73,2.73,0,0,1-1.95.78A2.63,2.63,0,0,1,423.62,647Z"/><path d="M445.44,647a8.52,8.52,0,0,1-3.57-3.15,8.69,8.69,0,0,1-1.33-4.77,8.42,8.42,0,0,1,3.52-7.08q3.51-2.64,10.29-2.64h7.26v-.48q0-4-1.95-5.7t-6.09-1.74a20.38,20.38,0,0,0-4.05.36,34,34,0,0,0-3.93,1.08,3.37,3.37,0,0,1-.78.12,2.13,2.13,0,0,1-1.56-.66,2.16,2.16,0,0,1-.66-1.62,2.31,2.31,0,0,1,1.56-2.28,26.35,26.35,0,0,1,10.38-2.16,13.55,13.55,0,0,1,7,1.68,10.56,10.56,0,0,1,4.2,4.35,12.65,12.65,0,0,1,1.35,5.79v17a2.6,2.6,0,0,1-.81,1.92,2.73,2.73,0,0,1-1.95.78,2.58,2.58,0,0,1-1.92-.78,2.61,2.61,0,0,1-.78-1.92v-1.56a15.09,15.09,0,0,1-11.28,4.56A11.12,11.12,0,0,1,445.44,647Zm12-5a14.18,14.18,0,0,0,4.14-3.21v-5h-6.54q-9.06,0-9.06,4.74a4.45,4.45,0,0,0,1.47,3.48q1.47,1.32,4.89,1.32A10.88,10.88,0,0,0,457.47,642Z"/><path d="M476.67,609.75a3,3,0,0,1-.9-2.16v-.24a3.07,3.07,0,0,1,3.06-3.06h.36a3.07,3.07,0,0,1,3.06,3.06v.24a3.07,3.07,0,0,1-3.06,3.06h-.36A3,3,0,0,1,476.67,609.75ZM477,647a2.57,2.57,0,0,1-.78-1.92V619.35a2.67,2.67,0,0,1,.78-2,2.55,2.55,0,0,1,1.92-.81,2.67,2.67,0,0,1,2.76,2.76v25.74a2.56,2.56,0,0,1-.81,1.92,2.71,2.71,0,0,1-1.95.78A2.59,2.59,0,0,1,477,647Z"/><path d="M493,640.17v-18.6h-4.26a1.14,1.14,0,0,1-1.14-1.14,1.25,1.25,0,0,1,.54-1l8.17-8a1.48,1.48,0,0,1,1-.54,1.09,1.09,0,0,1,.82.36,1.25,1.25,0,0,1,.33.84v4.8h6.77a2.26,2.26,0,0,1,2.34,2.34,2.3,2.3,0,0,1-.66,1.65,2.22,2.22,0,0,1-1.68.69h-6.77v18.12c0,1.56.36,2.55,1.1,3a5.59,5.59,0,0,0,2.79.63,8.32,8.32,0,0,0,2.4-.36l.51-.12a3.37,3.37,0,0,1,.7-.06,2.15,2.15,0,0,1,1.5.63,2.07,2.07,0,0,1,.66,1.53,2.28,2.28,0,0,1-1.39,2.1,11.71,11.71,0,0,1-5,1.08Q493,648.09,493,640.17Z"/><path d="M514.88,647a2.61,2.61,0,0,1-.78-1.92V606.15a2.71,2.71,0,0,1,.78-1.95,2.56,2.56,0,0,1,1.92-.81,2.77,2.77,0,0,1,2.76,2.76v15.66a19.94,19.94,0,0,1,4.92-4,12.42,12.42,0,0,1,6.24-1.5,10.37,10.37,0,0,1,5.73,1.56,10.14,10.14,0,0,1,3.72,4.26,13.6,13.6,0,0,1,1.29,5.94v17a2.56,2.56,0,0,1-.81,1.92,2.71,2.71,0,0,1-1.95.78,2.66,2.66,0,0,1-2.7-2.7V628.65q0-7.32-6.6-7.32a9.55,9.55,0,0,0-5.37,1.56,19.44,19.44,0,0,0-4.47,4.2v18a2.56,2.56,0,0,1-.81,1.92,2.71,2.71,0,0,1-2,.78A2.61,2.61,0,0,1,514.88,647Z"/><path d="M550.19,656a1.78,1.78,0,0,1-.51-1.26,1.67,1.67,0,0,1,.9-1.5,6.85,6.85,0,0,0,2.28-2.1,6.41,6.41,0,0,0,.78-3.48h-.24a3.38,3.38,0,0,1-3.36-3.36V644a3.38,3.38,0,0,1,3.36-3.36h.6a3.38,3.38,0,0,1,3.36,3.36v3.54a9.65,9.65,0,0,1-4.92,8.76,1.89,1.89,0,0,1-1,.3A1.63,1.63,0,0,1,550.19,656Z"/><path d="M584.75,647a8.52,8.52,0,0,1-3.57-3.15,8.68,8.68,0,0,1-1.32-4.77,8.41,8.41,0,0,1,3.51-7.08q3.51-2.64,10.29-2.64h7.26v-.48q0-4-1.95-5.7t-6.09-1.74a20.45,20.45,0,0,0-4,.36,34,34,0,0,0-3.93,1.08,3.37,3.37,0,0,1-.78.12,2.13,2.13,0,0,1-1.56-.66,2.2,2.2,0,0,1-.66-1.62,2.31,2.31,0,0,1,1.56-2.28,26.39,26.39,0,0,1,10.38-2.16,13.55,13.55,0,0,1,7,1.68,10.56,10.56,0,0,1,4.2,4.35,12.65,12.65,0,0,1,1.35,5.79v17a2.56,2.56,0,0,1-.81,1.92,2.71,2.71,0,0,1-2,.78,2.66,2.66,0,0,1-2.7-2.7v-1.56a15.07,15.07,0,0,1-11.28,4.56A11.15,11.15,0,0,1,584.75,647Zm12-5a14.18,14.18,0,0,0,4.14-3.21v-5h-6.54q-9.06,0-9.06,4.74a4.45,4.45,0,0,0,1.47,3.48q1.47,1.32,4.89,1.32A10.85,10.85,0,0,0,596.78,642Z"/><path d="M616.34,647a2.61,2.61,0,0,1-.78-1.92V619.35a2.71,2.71,0,0,1,.78-2,2.56,2.56,0,0,1,1.92-.81,2.77,2.77,0,0,1,2.76,2.76v2.46a19.94,19.94,0,0,1,4.92-4,12.42,12.42,0,0,1,6.24-1.5,10.37,10.37,0,0,1,5.73,1.56,10.14,10.14,0,0,1,3.72,4.26,13.6,13.6,0,0,1,1.29,5.94v17a2.56,2.56,0,0,1-.81,1.92,2.71,2.71,0,0,1-2,.78,2.66,2.66,0,0,1-2.7-2.7V628.65q0-7.32-6.6-7.32a9.55,9.55,0,0,0-5.37,1.56,19.44,19.44,0,0,0-4.47,4.2v18a2.56,2.56,0,0,1-.81,1.92,2.71,2.71,0,0,1-2,.78A2.61,2.61,0,0,1,616.34,647Z"/><path d="M657.71,646.2a14.34,14.34,0,0,1-5.4-5.52,18.45,18.45,0,0,1,0-17,14.34,14.34,0,0,1,5.4-5.52,14.07,14.07,0,0,1,7-1.89A13.79,13.79,0,0,1,675,620.85v-14.7a2.63,2.63,0,0,1,.81-2,2.71,2.71,0,0,1,1.95-.78,2.56,2.56,0,0,1,1.92.81,2.71,2.71,0,0,1,.78,1.95v38.94a2.66,2.66,0,0,1-2.7,2.7,2.71,2.71,0,0,1-1.95-.78,2.56,2.56,0,0,1-.81-1.92v-1.56a13.79,13.79,0,0,1-10.26,4.56A14.07,14.07,0,0,1,657.71,646.2Zm13-4.44a14.82,14.82,0,0,0,4.29-3.27v-12.6a14.82,14.82,0,0,0-4.29-3.27,11.33,11.33,0,0,0-5.19-1.23,9.43,9.43,0,0,0-7.14,2.82q-2.7,2.82-2.7,8t2.7,8a9.43,9.43,0,0,0,7.14,2.82A11.33,11.33,0,0,0,670.73,641.76Z"/><path d="M145.59,718.11a13.46,13.46,0,0,1-5.37-5.61,19.21,19.21,0,0,1,0-16.62,13.46,13.46,0,0,1,5.37-5.61,17.44,17.44,0,0,1,16.14,0,13.65,13.65,0,0,1,5.4,5.61,18.94,18.94,0,0,1,0,16.62,13.65,13.65,0,0,1-5.4,5.61,17.44,17.44,0,0,1-16.14,0ZM158.4,714a9.16,9.16,0,0,0,3.72-3.6,12,12,0,0,0,1.47-6.24,11.88,11.88,0,0,0-1.47-6.18,9,9,0,0,0-3.72-3.57,10.52,10.52,0,0,0-4.71-1.11,10.64,10.64,0,0,0-4.77,1.11,8.78,8.78,0,0,0-3.69,3.57,12.08,12.08,0,0,0-1.44,6.18,12.21,12.21,0,0,0,1.44,6.24,9,9,0,0,0,3.69,3.6,10.41,10.41,0,0,0,4.77,1.14A10.29,10.29,0,0,0,158.4,714Z"/><path d="M177.45,732.78a2.71,2.71,0,0,1-.78-1.95V691.29a2.66,2.66,0,0,1,2.7-2.7,2.71,2.71,0,0,1,1.95.78,2.56,2.56,0,0,1,.81,1.92v1.56a13.79,13.79,0,0,1,10.26-4.56,14.07,14.07,0,0,1,7.05,1.89,14.34,14.34,0,0,1,5.4,5.52,18.45,18.45,0,0,1,0,17,14.34,14.34,0,0,1-5.4,5.52,14.07,14.07,0,0,1-7.05,1.89,13.79,13.79,0,0,1-10.26-4.56v15.3a2.67,2.67,0,0,1-2.76,2.76A2.56,2.56,0,0,1,177.45,732.78Zm21.3-20.61q2.7-2.82,2.7-8t-2.7-8a9.43,9.43,0,0,0-7.14-2.82,11.33,11.33,0,0,0-5.19,1.23,14.82,14.82,0,0,0-4.29,3.27v12.6a14.82,14.82,0,0,0,4.29,3.27,11.33,11.33,0,0,0,5.19,1.23A9.43,9.43,0,0,0,198.75,712.17Z"/><path d="M216.09,712.17v-18.6h-4.26a1.13,1.13,0,0,1-1.14-1.14,1.25,1.25,0,0,1,.54-1l8.16-8a1.51,1.51,0,0,1,1-.54,1.06,1.06,0,0,1,.81.36,1.2,1.2,0,0,1,.33.84v4.8h6.78a2.26,2.26,0,0,1,2.34,2.34,2.3,2.3,0,0,1-.66,1.65,2.22,2.22,0,0,1-1.68.69h-6.78v18.12q0,2.34,1.11,3a5.59,5.59,0,0,0,2.79.63,8.32,8.32,0,0,0,2.4-.36l.51-.12a3.27,3.27,0,0,1,.69-.06,2.11,2.11,0,0,1,1.5.63,2,2,0,0,1,.66,1.53,2.27,2.27,0,0,1-1.38,2.1,11.74,11.74,0,0,1-5,1.08Q216.09,720.09,216.09,712.17Z"/><path d="M237.63,681.75a3,3,0,0,1-.9-2.16v-.24a3.07,3.07,0,0,1,3.06-3.06h.36a3.07,3.07,0,0,1,3.06,3.06v.24a3.07,3.07,0,0,1-3.06,3.06h-.36A3,3,0,0,1,237.63,681.75ZM238,719a2.61,2.61,0,0,1-.78-1.92V691.35a2.71,2.71,0,0,1,.78-2,2.56,2.56,0,0,1,1.92-.81,2.67,2.67,0,0,1,2.76,2.76v25.74a2.56,2.56,0,0,1-.81,1.92,2.71,2.71,0,0,1-2,.78A2.61,2.61,0,0,1,238,719Z"/><path d="M252.93,719a2.61,2.61,0,0,1-.78-1.92V691.35a2.71,2.71,0,0,1,.78-2,2.56,2.56,0,0,1,1.92-.81,2.77,2.77,0,0,1,2.76,2.76v2.46a15,15,0,0,1,4.05-4,11,11,0,0,1,6.15-1.56,9.33,9.33,0,0,1,5.76,1.8,10,10,0,0,1,3.42,4.38,12.09,12.09,0,0,1,11-6.18,9.11,9.11,0,0,1,5.61,1.68,10,10,0,0,1,3.33,4.32,14.44,14.44,0,0,1,1.08,5.52v17.28a2.56,2.56,0,0,1-.81,1.92,2.71,2.71,0,0,1-1.95.78,2.66,2.66,0,0,1-2.7-2.7v-16.2q0-3.9-1.38-5.73t-4.74-1.83a7.92,7.92,0,0,0-5.07,1.59,15.38,15.38,0,0,0-3.57,4.17v18A2.56,2.56,0,0,1,277,719a2.71,2.71,0,0,1-1.95.78,2.66,2.66,0,0,1-2.7-2.7v-16.2q0-3.9-1.38-5.73t-4.74-1.83a7.92,7.92,0,0,0-5.07,1.59,15.38,15.38,0,0,0-3.57,4.17v18a2.56,2.56,0,0,1-.81,1.92,2.71,2.71,0,0,1-2,.78A2.61,2.61,0,0,1,252.93,719Z"/><path d="M307.65,681.75a3,3,0,0,1-.9-2.16v-.24a3.07,3.07,0,0,1,3.06-3.06h.36a3.07,3.07,0,0,1,3.06,3.06v.24a3.07,3.07,0,0,1-3.06,3.06h-.36A3,3,0,0,1,307.65,681.75ZM308,719a2.61,2.61,0,0,1-.78-1.92V691.35a2.71,2.71,0,0,1,.78-2,2.56,2.56,0,0,1,1.92-.81,2.67,2.67,0,0,1,2.76,2.76v25.74a2.56,2.56,0,0,1-.81,1.92,2.71,2.71,0,0,1-1.95.78A2.61,2.61,0,0,1,308,719Z"/><path d="M321.15,717.39a2.29,2.29,0,0,1-1-2,2.41,2.41,0,0,1,.66-1.68,2.18,2.18,0,0,1,1.68-.72,2.64,2.64,0,0,1,1.08.24,24.25,24.25,0,0,0,3.84,1.32,17.85,17.85,0,0,0,4.32.48q6.66,0,6.66-4.26a2.27,2.27,0,0,0-1.53-2.1,31.33,31.33,0,0,0-5-1.62,45.27,45.27,0,0,1-5.85-1.74,10.29,10.29,0,0,1-4-2.73,6.94,6.94,0,0,1-1.65-4.83,8.65,8.65,0,0,1,3-6.84q3-2.64,8.67-2.64a25,25,0,0,1,8.7,1.5,2.25,2.25,0,0,1,1.29.9,2.41,2.41,0,0,1,.45,1.38,2.35,2.35,0,0,1-.69,1.68,2.27,2.27,0,0,1-1.71.72,3.37,3.37,0,0,1-.78-.12,23,23,0,0,0-6.84-1.08,9.37,9.37,0,0,0-5.07,1.17,3.49,3.49,0,0,0-1.83,3,2.77,2.77,0,0,0,1.68,2.64,24,24,0,0,0,5.22,1.62,50,50,0,0,1,5.76,1.77,9.52,9.52,0,0,1,3.81,2.73,7.41,7.41,0,0,1,1.59,5,7.93,7.93,0,0,1-3,6.36q-3,2.52-8.55,2.52A22.32,22.32,0,0,1,321.15,717.39Z"/><path d="M351.75,719a2.61,2.61,0,0,1-.78-1.92V691.35a2.71,2.71,0,0,1,.78-2,2.56,2.56,0,0,1,1.92-.81,2.77,2.77,0,0,1,2.76,2.76v2.46a15,15,0,0,1,4.05-4,11,11,0,0,1,6.15-1.56,9.33,9.33,0,0,1,5.76,1.8,10,10,0,0,1,3.42,4.38,12.09,12.09,0,0,1,11-6.18,9.11,9.11,0,0,1,5.61,1.68,10,10,0,0,1,3.33,4.32,14.44,14.44,0,0,1,1.08,5.52v17.28a2.56,2.56,0,0,1-.81,1.92,2.71,2.71,0,0,1-1.95.78,2.66,2.66,0,0,1-2.7-2.7v-16.2q0-3.9-1.38-5.73t-4.74-1.83a7.92,7.92,0,0,0-5.07,1.59,15.38,15.38,0,0,0-3.57,4.17v18a2.56,2.56,0,0,1-.81,1.92,2.71,2.71,0,0,1-1.95.78,2.66,2.66,0,0,1-2.7-2.7v-16.2q0-3.9-1.38-5.73t-4.74-1.83a7.92,7.92,0,0,0-5.07,1.59,15.38,15.38,0,0,0-3.57,4.17v18a2.56,2.56,0,0,1-.81,1.92,2.71,2.71,0,0,1-1.95.78A2.61,2.61,0,0,1,351.75,719Z"/><path d="M405.6,728a1.78,1.78,0,0,1-.51-1.26,1.67,1.67,0,0,1,.9-1.5,6.85,6.85,0,0,0,2.28-2.1,6.41,6.41,0,0,0,.78-3.48h-.24a3.38,3.38,0,0,1-3.36-3.36V716a3.38,3.38,0,0,1,3.36-3.36h.6a3.38,3.38,0,0,1,3.36,3.36v3.54a9.65,9.65,0,0,1-4.92,8.76,1.89,1.89,0,0,1-1,.3A1.63,1.63,0,0,1,405.6,728Z"/><path d="M440.16,719a8.52,8.52,0,0,1-3.57-3.15,8.68,8.68,0,0,1-1.32-4.77,8.41,8.41,0,0,1,3.51-7.08q3.51-2.64,10.29-2.64h7.26v-.48q0-4-1.95-5.7t-6.09-1.74a20.45,20.45,0,0,0-4.05.36,34,34,0,0,0-3.93,1.08,3.37,3.37,0,0,1-.78.12,2.13,2.13,0,0,1-1.56-.66,2.2,2.2,0,0,1-.66-1.62,2.31,2.31,0,0,1,1.56-2.28,26.39,26.39,0,0,1,10.38-2.16,13.55,13.55,0,0,1,7,1.68,10.56,10.56,0,0,1,4.2,4.35,12.65,12.65,0,0,1,1.35,5.79v17A2.56,2.56,0,0,1,461,719a2.71,2.71,0,0,1-2,.78,2.66,2.66,0,0,1-2.7-2.7v-1.56a15.07,15.07,0,0,1-11.28,4.56A11.15,11.15,0,0,1,440.16,719Zm12-5a14.18,14.18,0,0,0,4.14-3.21v-5h-6.54q-9.06,0-9.06,4.74A4.45,4.45,0,0,0,442.2,714q1.47,1.32,4.89,1.32A10.85,10.85,0,0,0,452.19,714Z"/><path d="M471.75,719a2.61,2.61,0,0,1-.78-1.92V691.35a2.71,2.71,0,0,1,.78-2,2.56,2.56,0,0,1,1.92-.81,2.77,2.77,0,0,1,2.76,2.76v2.46a19.94,19.94,0,0,1,4.92-4,12.42,12.42,0,0,1,6.24-1.5,10.37,10.37,0,0,1,5.73,1.56,10.14,10.14,0,0,1,3.72,4.26,13.6,13.6,0,0,1,1.29,5.94v17a2.56,2.56,0,0,1-.81,1.92,2.71,2.71,0,0,1-1.95.78,2.66,2.66,0,0,1-2.7-2.7V700.65q0-7.32-6.6-7.32a9.55,9.55,0,0,0-5.37,1.56,19.44,19.44,0,0,0-4.47,4.2v18a2.56,2.56,0,0,1-.81,1.92,2.71,2.71,0,0,1-1.95.78A2.61,2.61,0,0,1,471.75,719Z"/><path d="M513.12,718.2a14.34,14.34,0,0,1-5.4-5.52,18.45,18.45,0,0,1,0-17,14.34,14.34,0,0,1,5.4-5.52,14.07,14.07,0,0,1,7-1.89,13.79,13.79,0,0,1,10.26,4.56v-14.7a2.63,2.63,0,0,1,.81-2,2.71,2.71,0,0,1,2-.78,2.56,2.56,0,0,1,1.92.81,2.75,2.75,0,0,1,.78,1.95v38.94a2.65,2.65,0,0,1-.78,1.92,2.61,2.61,0,0,1-1.92.78,2.71,2.71,0,0,1-2-.78,2.56,2.56,0,0,1-.81-1.92v-1.56a13.79,13.79,0,0,1-10.26,4.56A14.07,14.07,0,0,1,513.12,718.2Zm13-4.44a14.82,14.82,0,0,0,4.29-3.27v-12.6a14.82,14.82,0,0,0-4.29-3.27,11.33,11.33,0,0,0-5.19-1.23,9.43,9.43,0,0,0-7.14,2.82q-2.7,2.82-2.7,8t2.7,8A9.43,9.43,0,0,0,521,715,11.33,11.33,0,0,0,526.14,713.76Z"/><path d="M561.75,719a2.57,2.57,0,0,1-.78-1.92V678.15a2.67,2.67,0,0,1,.78-1.95,2.56,2.56,0,0,1,1.92-.81,2.77,2.77,0,0,1,2.76,2.76v15.66a19.76,19.76,0,0,1,4.92-4,12.42,12.42,0,0,1,6.24-1.5,10.37,10.37,0,0,1,5.73,1.56,10.21,10.21,0,0,1,3.72,4.26,13.6,13.6,0,0,1,1.29,5.94v17a2.56,2.56,0,0,1-.81,1.92,2.71,2.71,0,0,1-1.95.78,2.66,2.66,0,0,1-2.7-2.7V700.65q0-7.32-6.6-7.32a9.53,9.53,0,0,0-5.37,1.56,19.24,19.24,0,0,0-4.47,4.2v18a2.56,2.56,0,0,1-.81,1.92,2.73,2.73,0,0,1-2,.78A2.61,2.61,0,0,1,561.75,719Z"/><path d="M602.91,718.11a13.34,13.34,0,0,1-5.37-5.61,19.12,19.12,0,0,1,0-16.62,13.34,13.34,0,0,1,5.37-5.61,17.42,17.42,0,0,1,16.13,0,13.67,13.67,0,0,1,5.41,5.61,18.94,18.94,0,0,1,0,16.62,13.67,13.67,0,0,1-5.41,5.61,17.42,17.42,0,0,1-16.13,0Zm12.8-4.14a9.19,9.19,0,0,0,3.73-3.6,12,12,0,0,0,1.47-6.24,11.88,11.88,0,0,0-1.47-6.18,9,9,0,0,0-3.73-3.57,10.5,10.5,0,0,0-4.7-1.11,10.64,10.64,0,0,0-4.77,1.11,8.86,8.86,0,0,0-3.7,3.57,12.08,12.08,0,0,0-1.43,6.18,12.21,12.21,0,0,0,1.43,6.24,9.06,9.06,0,0,0,3.7,3.6,10.41,10.41,0,0,0,4.77,1.14A10.28,10.28,0,0,0,615.71,714Z"/><path d="M634.76,732.78a2.71,2.71,0,0,1-.78-1.95V691.29a2.66,2.66,0,0,1,2.7-2.7,2.71,2.71,0,0,1,2,.78,2.56,2.56,0,0,1,.81,1.92v1.56a13.79,13.79,0,0,1,10.26-4.56,14.07,14.07,0,0,1,7,1.89,14.34,14.34,0,0,1,5.4,5.52,18.45,18.45,0,0,1,0,17,14.34,14.34,0,0,1-5.4,5.52,14.07,14.07,0,0,1-7,1.89,13.79,13.79,0,0,1-10.26-4.56v15.3a2.67,2.67,0,0,1-2.76,2.76A2.56,2.56,0,0,1,634.76,732.78Zm21.3-20.61q2.7-2.82,2.7-8t-2.7-8a9.43,9.43,0,0,0-7.14-2.82,11.33,11.33,0,0,0-5.19,1.23,14.82,14.82,0,0,0-4.29,3.27v12.6a14.82,14.82,0,0,0,4.29,3.27,11.33,11.33,0,0,0,5.19,1.23A9.43,9.43,0,0,0,656.06,712.17Z"/><path d="M674.09,715.92Q670,711.75,670,704.19a19.56,19.56,0,0,1,1.56-7.86,13.36,13.36,0,0,1,4.8-5.82,13.79,13.79,0,0,1,8-2.22,14,14,0,0,1,7.68,2.07,13.39,13.39,0,0,1,4.92,5.52,17,17,0,0,1,1.68,7.53,2.62,2.62,0,0,1-2.76,2.7H675.5a9.87,9.87,0,0,0,3.12,6.54Q681.26,715,686,715a18,18,0,0,0,4.41-.48,18.32,18.32,0,0,0,3.69-1.38,2.38,2.38,0,0,1,1.08-.24,2.41,2.41,0,0,1,1.68.66,2.18,2.18,0,0,1,.72,1.68,2.59,2.59,0,0,1-1.56,2.22,18.74,18.74,0,0,1-10.5,2.64Q678.2,720.09,674.09,715.92Zm19.11-14.25a9.61,9.61,0,0,0-1.53-4.92,8.26,8.26,0,0,0-3.33-2.91,9.15,9.15,0,0,0-8,0,8.06,8.06,0,0,0-3.3,2.91,9.79,9.79,0,0,0-1.5,4.92Z"/><path d="M145.59,790.11a13.46,13.46,0,0,1-5.37-5.61,19.21,19.21,0,0,1,0-16.62,13.46,13.46,0,0,1,5.37-5.61,17.44,17.44,0,0,1,16.14,0,13.65,13.65,0,0,1,5.4,5.61,18.94,18.94,0,0,1,0,16.62,13.65,13.65,0,0,1-5.4,5.61,17.44,17.44,0,0,1-16.14,0ZM158.4,786a9.16,9.16,0,0,0,3.72-3.6,12,12,0,0,0,1.47-6.24,11.88,11.88,0,0,0-1.47-6.18,9,9,0,0,0-3.72-3.57,10.52,10.52,0,0,0-4.71-1.11,10.64,10.64,0,0,0-4.77,1.11,8.78,8.78,0,0,0-3.69,3.57,12.08,12.08,0,0,0-1.44,6.18,12.21,12.21,0,0,0,1.44,6.24,9,9,0,0,0,3.69,3.6,10.41,10.41,0,0,0,4.77,1.14A10.29,10.29,0,0,0,158.4,786Z"/><path d="M179.43,791a2.61,2.61,0,0,1-.78-1.92V765.57h-3.54a2.36,2.36,0,0,1-2.34-2.34,2.22,2.22,0,0,1,.69-1.68,2.3,2.3,0,0,1,1.65-.66h3.54v-3.48a12,12,0,0,1,1.29-5.91,8,8,0,0,1,3.36-3.36,9.49,9.49,0,0,1,4.35-1,11.51,11.51,0,0,1,5.22,1.2,2.59,2.59,0,0,1,1,.87,2.14,2.14,0,0,1,.39,1.23,2.23,2.23,0,0,1-.66,1.59,2.09,2.09,0,0,1-1.56.69,5.69,5.69,0,0,1-1.38-.18q-1.44-.18-1.62-.18a5.26,5.26,0,0,0-3.69,1.14q-1.23,1.14-1.23,4.14v3.3h7.5a2.26,2.26,0,0,1,2.34,2.34,2.3,2.3,0,0,1-.66,1.65,2.22,2.22,0,0,1-1.68.69h-7.5v23.52a2.56,2.56,0,0,1-.81,1.92,2.71,2.71,0,0,1-2,.78A2.61,2.61,0,0,1,179.43,791Z"/><path d="M218,791a2.61,2.61,0,0,1-.78-1.92V765.57h-3.54a2.36,2.36,0,0,1-2.34-2.34,2.22,2.22,0,0,1,.69-1.68,2.3,2.3,0,0,1,1.65-.66h3.54v-3.48a12,12,0,0,1,1.29-5.91,8,8,0,0,1,3.36-3.36,9.49,9.49,0,0,1,4.35-1,11.51,11.51,0,0,1,5.22,1.2,2.59,2.59,0,0,1,1,.87,2.14,2.14,0,0,1,.39,1.23,2.23,2.23,0,0,1-.66,1.59,2.09,2.09,0,0,1-1.56.69,5.69,5.69,0,0,1-1.38-.18q-1.44-.18-1.62-.18a5.26,5.26,0,0,0-3.69,1.14q-1.23,1.14-1.23,4.14v3.3h7.5a2.26,2.26,0,0,1,2.34,2.34,2.3,2.3,0,0,1-.66,1.65,2.22,2.22,0,0,1-1.68.69h-7.5v23.52a2.56,2.56,0,0,1-.81,1.92,2.71,2.71,0,0,1-1.95.78A2.61,2.61,0,0,1,218,791Z"/><path d="M242.52,790.53a10.14,10.14,0,0,1-3.72-4.26,13.6,13.6,0,0,1-1.29-5.94v-17a2.56,2.56,0,0,1,.81-1.92,2.71,2.71,0,0,1,2-.78,2.66,2.66,0,0,1,2.7,2.7v16.44q0,7.32,6.6,7.32a9.55,9.55,0,0,0,5.37-1.56,19.44,19.44,0,0,0,4.47-4.2v-18a2.56,2.56,0,0,1,.81-1.92,2.71,2.71,0,0,1,1.95-.78,2.66,2.66,0,0,1,2.7,2.7V789a2.71,2.71,0,0,1-.78,2,2.56,2.56,0,0,1-1.92.81,2.77,2.77,0,0,1-2.76-2.76v-2.46a19.94,19.94,0,0,1-4.92,4,12.42,12.42,0,0,1-6.24,1.5A10.37,10.37,0,0,1,242.52,790.53Z"/><path d="M276.15,784.17v-18.6h-4.26a1.13,1.13,0,0,1-1.14-1.14,1.25,1.25,0,0,1,.54-1l8.16-8a1.51,1.51,0,0,1,1-.54,1.06,1.06,0,0,1,.81.36,1.2,1.2,0,0,1,.33.84v4.8h6.78a2.26,2.26,0,0,1,2.34,2.34,2.3,2.3,0,0,1-.66,1.65,2.22,2.22,0,0,1-1.68.69h-6.78v18.12q0,2.34,1.11,3a5.59,5.59,0,0,0,2.79.63,8.32,8.32,0,0,0,2.4-.36l.51-.12a3.27,3.27,0,0,1,.69-.06,2.11,2.11,0,0,1,1.5.63,2,2,0,0,1,.66,1.53,2.27,2.27,0,0,1-1.38,2.1,11.74,11.74,0,0,1-5,1.08Q276.15,792.09,276.15,784.17Z"/><path d="M302,790.53a10.14,10.14,0,0,1-3.72-4.26,13.6,13.6,0,0,1-1.29-5.94v-17a2.56,2.56,0,0,1,.81-1.92,2.71,2.71,0,0,1,2-.78,2.66,2.66,0,0,1,2.7,2.7v16.44q0,7.32,6.6,7.32a9.55,9.55,0,0,0,5.37-1.56,19.44,19.44,0,0,0,4.47-4.2v-18a2.56,2.56,0,0,1,.81-1.92,2.71,2.71,0,0,1,1.95-.78,2.66,2.66,0,0,1,2.7,2.7V789a2.71,2.71,0,0,1-.78,2,2.56,2.56,0,0,1-1.92.81,2.77,2.77,0,0,1-2.76-2.76v-2.46a19.94,19.94,0,0,1-4.92,4,12.42,12.42,0,0,1-6.24,1.5A10.37,10.37,0,0,1,302,790.53Z"/><path d="M334.59,791a2.61,2.61,0,0,1-.78-1.92V763.35a2.71,2.71,0,0,1,.78-2,2.56,2.56,0,0,1,1.92-.81,2.77,2.77,0,0,1,2.76,2.76v2.58q4.2-5.64,9.42-5.64h.3a2.51,2.51,0,0,1,1.89.78,2.66,2.66,0,0,1,.75,1.92,2.42,2.42,0,0,1-.78,1.86,2.81,2.81,0,0,1-2,.72h-.3a10.23,10.23,0,0,0-5.28,1.41,12.16,12.16,0,0,0-4,3.87v18.24a2.56,2.56,0,0,1-.81,1.92,2.71,2.71,0,0,1-1.95.78A2.61,2.61,0,0,1,334.59,791Z"/><path d="M358.14,787.92Q354,783.75,354,776.19a19.56,19.56,0,0,1,1.56-7.86,13.36,13.36,0,0,1,4.8-5.82,13.79,13.79,0,0,1,8-2.22,14,14,0,0,1,7.68,2.07,13.39,13.39,0,0,1,4.92,5.52,17,17,0,0,1,1.68,7.53,2.62,2.62,0,0,1-2.76,2.7H359.55a9.87,9.87,0,0,0,3.12,6.54q2.64,2.34,7.38,2.34a18,18,0,0,0,4.41-.48,18.32,18.32,0,0,0,3.69-1.38,2.38,2.38,0,0,1,1.08-.24,2.41,2.41,0,0,1,1.68.66,2.18,2.18,0,0,1,.72,1.68,2.59,2.59,0,0,1-1.56,2.22,18.74,18.74,0,0,1-10.5,2.64Q362.25,792.09,358.14,787.92Zm19.11-14.25a9.61,9.61,0,0,0-1.53-4.92,8.26,8.26,0,0,0-3.33-2.91,9.15,9.15,0,0,0-8,0,8.06,8.06,0,0,0-3.3,2.91,9.79,9.79,0,0,0-1.5,4.92Z"/><path d="M410.91,787.53v1.56a2.56,2.56,0,0,1-.81,1.92,2.73,2.73,0,0,1-2,.78,2.66,2.66,0,0,1-2.7-2.7V750.15a2.71,2.71,0,0,1,.78-1.95,2.55,2.55,0,0,1,1.92-.81,2.64,2.64,0,0,1,2,.78,2.69,2.69,0,0,1,.79,2v14.7a13.77,13.77,0,0,1,10.26-4.56,14,14,0,0,1,7,1.89,14.29,14.29,0,0,1,5.41,5.52,18.45,18.45,0,0,1,0,17,14.29,14.29,0,0,1-5.41,5.52,14,14,0,0,1-7,1.89A13.77,13.77,0,0,1,410.91,787.53Zm16.62-3.36q2.7-2.82,2.7-8t-2.7-8a9.43,9.43,0,0,0-7.14-2.82,11.3,11.3,0,0,0-5.19,1.23,14.69,14.69,0,0,0-4.29,3.27v12.6a14.69,14.69,0,0,0,4.29,3.27,11.3,11.3,0,0,0,5.19,1.23A9.43,9.43,0,0,0,427.53,784.17Z"/><path d="M444.09,791a2.57,2.57,0,0,1-.78-1.92V750.15a2.67,2.67,0,0,1,.78-1.95,2.56,2.56,0,0,1,1.92-.81,2.67,2.67,0,0,1,2.76,2.76v38.94A2.56,2.56,0,0,1,448,791a2.73,2.73,0,0,1-1.95.78A2.61,2.61,0,0,1,444.09,791Z"/><path d="M458.67,753.75a2.92,2.92,0,0,1-.91-2.16v-.24a3.09,3.09,0,0,1,3.06-3.06h.37a3.09,3.09,0,0,1,3.06,3.06v.24a3.09,3.09,0,0,1-3.06,3.06h-.37A2.91,2.91,0,0,1,458.67,753.75ZM459,791a2.57,2.57,0,0,1-.78-1.92V763.35a2.67,2.67,0,0,1,.78-2,2.53,2.53,0,0,1,1.92-.81,2.68,2.68,0,0,1,2.76,2.76v25.74a2.53,2.53,0,0,1-.82,1.92,2.69,2.69,0,0,1-1.94.78A2.58,2.58,0,0,1,459,791Z"/><path d="M472.16,789.39a2.29,2.29,0,0,1-1-2,2.41,2.41,0,0,1,.66-1.68,2.18,2.18,0,0,1,1.68-.72,2.64,2.64,0,0,1,1.08.24,24.25,24.25,0,0,0,3.84,1.32,17.85,17.85,0,0,0,4.32.48q6.66,0,6.66-4.26a2.26,2.26,0,0,0-1.53-2.1,31.33,31.33,0,0,0-5-1.62,45.27,45.27,0,0,1-5.85-1.74,10.29,10.29,0,0,1-4-2.73,6.94,6.94,0,0,1-1.65-4.83,8.65,8.65,0,0,1,3-6.84q3-2.64,8.67-2.64a25,25,0,0,1,8.7,1.5,2.25,2.25,0,0,1,1.29.9,2.37,2.37,0,0,1-.24,3.06,2.27,2.27,0,0,1-1.71.72,3.37,3.37,0,0,1-.78-.12,23,23,0,0,0-6.84-1.08,9.37,9.37,0,0,0-5.07,1.17,3.49,3.49,0,0,0-1.83,3,2.77,2.77,0,0,0,1.68,2.64,24,24,0,0,0,5.22,1.62,50,50,0,0,1,5.76,1.77,9.52,9.52,0,0,1,3.81,2.73,7.41,7.41,0,0,1,1.59,5,7.93,7.93,0,0,1-3,6.36q-3,2.52-8.55,2.52A22.32,22.32,0,0,1,472.16,789.39Z"/><path d="M501,789.39a2.29,2.29,0,0,1-1-2,2.41,2.41,0,0,1,.66-1.68,2.18,2.18,0,0,1,1.68-.72,2.64,2.64,0,0,1,1.08.24,24.25,24.25,0,0,0,3.84,1.32,17.85,17.85,0,0,0,4.32.48q6.66,0,6.66-4.26a2.27,2.27,0,0,0-1.53-2.1,31.33,31.33,0,0,0-5-1.62,45.27,45.27,0,0,1-5.85-1.74,10.29,10.29,0,0,1-4-2.73,6.94,6.94,0,0,1-1.65-4.83,8.65,8.65,0,0,1,3-6.84q3-2.64,8.67-2.64a25,25,0,0,1,8.7,1.5,2.25,2.25,0,0,1,1.29.9,2.41,2.41,0,0,1,.45,1.38,2.35,2.35,0,0,1-.69,1.68,2.27,2.27,0,0,1-1.71.72,3.37,3.37,0,0,1-.78-.12,23,23,0,0,0-6.84-1.08,9.37,9.37,0,0,0-5.07,1.17,3.49,3.49,0,0,0-1.83,3,2.77,2.77,0,0,0,1.68,2.64,24,24,0,0,0,5.22,1.62,50,50,0,0,1,5.76,1.77,9.52,9.52,0,0,1,3.81,2.73,7.41,7.41,0,0,1,1.59,5,7.93,7.93,0,0,1-3,6.36q-3,2.52-8.55,2.52A22.32,22.32,0,0,1,501,789.39Z"/><path d="M531.17,790.68a3.23,3.23,0,0,1-1-2.37V788a3.38,3.38,0,0,1,3.36-3.36h.6A3.38,3.38,0,0,1,537.5,788v.36a3.38,3.38,0,0,1-3.36,3.36h-.6A3.23,3.23,0,0,1,531.17,790.68Z"/><path class="cls-2" d="M1510.91,675.25c.2-.9.38-1.81.54-2.71q-.62,2.58-1.22,5.18C1510.46,676.9,1510.69,676.07,1510.91,675.25ZM1276.17,950.9a34.54,34.54,0,0,1-12.18-1.22l-2.84-.73c-8.23-2.1-16.1-10.27-17.54-18.71l-.42-2.38c-.78-4.54-1.28-8.84-.37-13.42a97.54,97.54,0,0,1,2.53-11.51c1.82-5.6,3.71-11.16,5.71-16.7,3.19-8.91,5.82-17.89,8.18-27l1.38-6.18c.94-4.18,2-8.31,3.06-12.46a43.22,43.22,0,0,1,1.19-4.64q3.32-8.65,6.63-17.31c.46-1.2,1.16-2.35,1.74-3.5l2.93-5.86c6.84-13.67,15.47-26.31,23.2-39.47,8.45-16.67,15.77-33.88,22.66-51.24,6-17.3,11.36-34.83,16.3-52.45,2.87-13.17,5.21-26.44,7.79-39.68,1.47-7.55,3-15.11,3.92-22.75q1.2-9.81,2.33-19.63c.37-4.78.67-9.52.81-14.33.1-3.45,0-6.89,0-10.34-.26-4.54-.52-9.07-1-13.6-.39-3.93-.91-7.81-1.49-11.71-1.56-8.19-3.1-16.4-4.8-24.57-1.09-5.18-2.19-10.34-3.45-15.49-.68-2.77-1.46-5.5-2.27-8.23-2.79-7.76-5.74-15.46-8.39-23.27-2-6-3.8-12.09-5.57-18.18-.93-3.21-1.7-6.48-2.67-9.68s-2-6.59-3.07-9.89c.64,2.07,1.29,4.14,1.93,6.22a151.07,151.07,0,0,0-5.89-15c-1.89-3.87-3.82-7.7-5.86-11.51-2.43-4.53-5-8.94-7.62-13.37-5.39-8.37-10.85-16.7-15.91-25.27-4.88-8.27-9.71-16.57-14.64-24.81-3.75-5.67-7.56-11.27-11.64-16.71-4.88-6.52-9.8-13-14.88-19.34q-4.05-4.87-8.11-9.76c-6.66-8-13.36-15.88-20.37-23.54-6.15-6.71-12.63-13.13-19.18-19.44-11.34-10-22.92-19.62-34.11-29.74a106.94,106.94,0,0,1-10.28-10.25c-2.42-2.86-5-5.53-7.65-8.23-4.48-4.63-9.09-9.15-13.52-13.83a32.93,32.93,0,0,1-11.85-26.11c.49-13.79,10.27-25.26,22.74-30.25,4.57-1.84,9.31-3.2,14-4.59,4.06-1.2,8.14-2.37,12.25-3.38,8.34-2,16.72-3.84,25.1-5.66,9.47-2.06,18.91-4.09,28.5-5.49,8.38-1.21,16.8-2.34,25.22-3.28,12-1.35,24.13-2.12,36.19-.57,4.35.56,8.64,1.1,12.93,2,6.49,1.37,12.91,3,19.33,4.66,8.1,2.15,16.09,4.79,24.1,7.27,5.89,1.83,11.63,4,17.39,6.25a92.54,92.54,0,0,1,10.73,4.75l2.84,1.53c1,.56,2,1.11,3.08,1.66l.38.21c-.84-.45-1.68-.9-2.51-1.36l6.17,3.33.16.09,1.93,1h0l.51.27c8.54,4.6,16.6,10.27,24.45,15.94,3.17,2.29,6.44,4.48,9.47,7,4.74,3.9,9.31,7.89,13.69,12.2,12.48,12.26,22.67,26.67,33.48,40.38q6.23,7.44,12.46,14.86c4.19,5,8.26,10.06,12.35,15.13a106.59,106.59,0,0,1,6.5,8.9c5.61,8.75,11.17,17.5,16.29,26.55q6.75,11.94,13.62,23.82c8.28,14.32,17.12,28.34,25.64,42.52,4.46,7.41,8.77,14.9,13.09,22.39,2.71,4.7,5.19,9.58,7.51,14.49,3.31,7,6.59,14,9.29,21.31a244.14,244.14,0,0,1,10,34.59c1.83,8.75,3.63,17.52,5.48,26.27,1.72,8.18,3.36,16.39,5.55,24.45,2.25,8.26,4.78,16.41,7.21,24.61,2.51,8.48,4.76,17,6.75,25.62,2.24,9.74,3.86,19.65,5.5,29.5,1.47,8.8,2.8,17.59,3.82,26.46.91,7.92,1.38,15.9,2.48,23.8,1.2,8.66,2.58,17.28,3.72,25.94,1.46,11.08,1.37,22.37,1.35,33.54,0,2-.25,4-.38,6-.27,4.14-.6,8.25-1.16,12.37-.31,2.37-.51,4.8-1,7.14a128.13,128.13,0,0,1-3.49,15c-1.5,4.73-3.3,9.38-5.17,14-2.55,6.28-6,12.23-9.2,18.21-1.71,3.2-3.32,6.46-5,9.68-5.56,10.71-11,21.45-19,30.63-5.4,6.19-11.21,12-16.92,17.94l-8.21,8.85c-1.72,1.84-3.39,3.74-5.22,5.49a145.83,145.83,0,0,1-11.71,10.07c-1.57,1.22-3.15,2.48-4.82,3.57-8.71,5.68-17.41,11.44-26.27,16.88-7.15,4.39-14.37,8.46-21.85,12.23-6.1,3.07-12.2,6.07-18.15,9.4-5.62,3.71-11.22,7.48-17.07,10.76q-9.1,5.12-18.33,10a248.05,248.05,0,0,1-24.51,11.31,92.73,92.73,0,0,1-15.4,4.59c-4.06.84-8.1,1.22-12.17,1.69-3.74.78-7.48,1.49-11.28,2.12a54,54,0,0,1-24.26-1.68l-1-.3c-2.93,2.21-6.12,4.12-9.18,6.15-4.91,3.24-10,6-15.13,8.82-3.47,1.89-7.4,3.38-11,5-1.38.6-2.75,1.25-4.15,1.79-3.5,1.35-7,2.75-10.5,4-5.23,1.86-10.37,3.82-15.83,4.89l-3.72.73C1279.13,950.43,1277.58,950.76,1276.17,950.9Z"/><path d="M1283.28,935.79c3.92-.5,7.85-1,11.74-1.66l7.39-1.2c2.41-.39,4.78-1,7.16-1.52,3.85-.84,7.67-1.9,11.47-2.94,6.21-1.7,12.47-3.22,18.66-5s12.56-3.52,18.78-5.45l1.21-.37,2.43-.75.49-.17.85-.25.87-.28.87-.26-.27.08,2.1-.65.34-.11.82-.25.56-.17c.34-.1.67-.22,1-.35l3.39-1.2,6.85-2.44c2.09-.74,4.14-1.62,6.21-2.43,1.64-.64,3.27-1.27,4.9-1.92,8.23-3.32,16.47-6.6,24.49-10.4l7.58-3.58c1.39-.66,2.73-1.42,4.09-2.16,3.66-2,7.33-3.91,10.92-6s7.51-4.33,11.21-6.58l12.52-7.61c7.56-4.61,15.06-9.33,22.58-14,1.64-1,3.23-2.12,4.84-3.19l6-4c1.2-.79,2.33-1.69,3.49-2.55s2.29-1.74,3.43-2.62c2.13-1.65,4.21-3.39,6.26-5.14,2.24-1.92,4.4-3.95,6.54-6,1.27-1.21,2.54-2.41,3.77-3.66q10-10.24,20-20.57,4.65-4.85,9.27-9.72c3.09-3.24,6-6.66,9-10,1.07-1.2,2-2.48,3-3.74,1.45-1.85,3-3.65,4.33-5.59l8.1-11.88c.65-1,1.24-2,1.86-2.93l5.06-8c1.28-2,2.56-4,3.83-6.08.73-1.16,1.39-2.36,2.06-3.56,2.22-3.92,4.48-7.82,6.54-11.83l3.9-7.6c2.06-4,3.89-8.15,5.56-12.34a101.87,101.87,0,0,0,4.67-14.88c.73-3.15,1.35-6.29,1.92-9.47.77-4.29,1.53-8.56,2.3-12.85s1.48-8.31,2.29-12.46q.76-4,1.55-8c.34-1.77.6-3.54.89-5.31.37-2.3.83-4.6,1.07-6.91s.48-4.8.73-7.19c.17-1.69.43-3.39.5-5.09q.16-4.17.32-8.34c.07-1.62.2-3.25.19-4.87,0-2.6,0-5.21,0-7.81,0-3.91,0-7.81-.12-11.72-.06-3-.13-6-.19-9,0-1.62,0-3.24-.12-4.86q-.36-7.81-.74-15.63c0-1.07-.16-2.13-.27-3.21l-1-9.38c-.19-1.83-.32-3.68-.63-5.49l-1-5.89c-.48-2.8-1-5.61-1.45-8.41-.21-1.17-.42-2.29-.7-3.43q-1.92-7.76-3.83-15.51c-.29-1.16-.7-2.31-1.06-3.45l-2.82-8.92q-1.53-4.86-3.1-9.69-4.28-13.17-8.56-26.33-2.16-6.6-4.31-13.2c-.93-2.84-2-5.65-2.93-8.47s-2-5.63-3.06-8.42c-2.26-6-4.88-11.78-7.63-17.53-1.36-2.82-2.74-5.62-4.27-8.35l-4.21-7.46-4.24-7.52c-.56-1-1.1-2-1.69-3-4.4-7.3-8.73-14.65-13.21-21.9l-9.22-14.9c-1.81-2.93-3.7-5.8-5.6-8.67l-4.85-7.33c-.66-1-1.31-2-2-3l-9.69-13.65c-4.8-6.77-9.81-13.4-14.74-20.09q-7.08-9.58-14.16-19.18l-10.08-13.71c-2.25-3.05-4.6-6-6.91-9l-5-6.55c-1.77-2.3-3.62-4.53-5.48-6.77q-5.65-6.79-11.76-13.19c-4.17-4.35-8.54-8.51-13-12.54s-9.45-7.92-14.29-11.73c-1.59-1.26-3.22-2.47-4.83-3.7q-6.43-4.86-12.87-9.74c-3.29-2.48-6.62-4.9-9.92-7.35-2.92-2.16-5.8-4.38-8.79-6.44L1370,178.52c-1-.7-2.09-1.34-3.14-2l-8.17-5.16c-3.41-2.16-6.91-4.16-10.4-6.19q-3-1.74-6-3.5c-1.38-.8-2.84-1.47-4.26-2.2l-7.73-3.95c-1.17-.59-2.31-1.15-3.51-1.67l-7.91-3.45c-1.64-.72-3.27-1.49-4.94-2.13l-14-5.34c-1.06-.4-2.14-.76-3.22-1.12l-9-3c-4-1.34-8.09-2.44-12.15-3.6s-8.22-2-12.35-3c-1.64-.38-3.33-.57-5-.83-1.9-.3-3.82-.71-5.74-.87l-7.65-.63c-1.79-.15-3.57-.17-5.37-.21-2,0-4.06-.14-6.1-.11l-8,.12c-4,0-7.94.24-11.91.37-2.33.08-4.67.34-7,.51-2,.15-4,.35-6,.57-4.15.46-8.29.94-12.43,1.5-2.15.28-4.28.59-6.42.93-1.47.23-2.92.52-4.38.85a13.14,13.14,0,0,0-1.93.62,3.09,3.09,0,0,0-.63.44.9.9,0,0,0,.26,1.56,4.17,4.17,0,0,0,.6.1l.34,0a.82.82,0,0,0,.92-.57c.3-.06.61-.12.93-.16l-.14,0c3.32-.53,6.67-.81,10-1.11,2.9-.26,5.81-.5,8.72-.74,1.22-.11,2.44-.19,3.67-.28,1.47-.11,3-.26,4.43-.33l9.28-.39c4.79,0,9.57,0,14.35,0,2.14,0,4.27.05,6.4.16l8.56.46,9.31,1.11c.36,0,.73.14,1.08.21l3.27.64,4.93,1c3.22.85,6.43,1.69,9.63,2.55.91.24,1.8.55,2.7.84l6.28,2c5.6,1.77,11.11,3.87,16.63,5.87l11.74,4.75c1.09.44,2.19.84,3.25,1.33l5.65,2.6c3.16,1.46,6.38,2.83,9.45,4.48l11.4,6.13,11.7,7.11c3.29,2,6.47,4.17,9.68,6.3l5.66,3.73c1.1.73,2.15,1.53,3.22,2.3l11.2,8c6,4.57,12,9.08,17.87,13.71,10.67,8.35,21.52,16.52,31.46,25.74a246,246,0,0,1,19.76,21l-.06-.06c2.28,2.74,4.57,5.48,6.71,8.33l4.78,6.38c2.46,3.29,5,6.53,7.4,9.87q7.68,10.69,15.37,21.37l16.77,23.16c2,2.79,4,5.56,6,8.38q4.92,7,9.82,14.06c1.48,2.11,2.85,4.29,4.26,6.45l6.18,9.49q5.23,8.54,10.44,17.07c2.88,4.71,5.68,9.49,8.51,14.23l4.83,8.12c1,1.72,2,3.49,2.93,5.24,2,3.65,4.06,7.3,6.09,11l1.74,3.13c.52.94,1,1.94,1.46,2.9,1.06,2.12,2.07,4.26,3.07,6.41q4.08,9,7.37,18.21c1.61,4.47,3.16,9,4.6,13.5q2.75,8.61,5.47,17.21,4,12.56,7.94,25.12l5.1,16.7c.2.64.31,1.3.46,2q.72,3,1.43,6l2.22,9.37c.68,4.14,1.36,8.27,2,12.42.2,1.18.45,2.37.56,3.57q.36,3.63.7,7.26l.75,7.72c.11,1.13.13,2.26.18,3.39l.54,13.65c.11,7.08.25,14.17.23,21.25l0,8.22c0,1.12,0,2.25,0,3.37q-.3,6.32-.59,12.63c-.28,2.63-.57,5.26-.85,7.89-.12,1.1-.23,2.19-.35,3.29s-.34,2-.51,3c-.44,2.59-.81,5.19-1.32,7.76q-1,5-2,10c-1,5.1-1.91,10.22-2.84,15.33-1.06,5.81-2,11.64-3.38,17.4a112.64,112.64,0,0,1-3.56,11.47,149.79,149.79,0,0,1-6.41,14.08l-4.35,8.43-6.22,11c-.49.84-1,1.65-1.56,2.48l-4.54,7.19c-1.86,2.94-3.65,5.94-5.61,8.81l-7.47,10.92-3.15,4c-1,1.27-1.94,2.6-3,3.81-2.59,2.89-5.16,5.8-7.75,8.7q-8.75,9.15-17.53,18.29c-2.7,2.8-5.43,5.59-8.16,8.37l-4.62,4.72c-1.74,1.77-3.58,3.44-5.38,5.13-2,1.89-4.1,3.71-6.21,5.49-4,3.22-8,6.31-12.24,9.13l-7.55,5q-17.61,11-35.32,21.72c-3.11,1.89-6.28,3.68-9.43,5.52-2.46,1.44-4.92,2.82-7.43,4.18l-6.29,3.4c-.81.44-1.61.87-2.43,1.26l-9.87,4.67c-3.26,1.4-6.5,2.88-9.8,4.21L1385.35,894c-3.41,1.38-6.86,2.69-10.29,4-1.78.69-3.6,1.28-5.4,1.92l-5.32,1.89-1.14.36-.79.24-2.15.67-1.56.48c-.23.06-.45.13-.67.21l-2,.63-.5.16c-2.21.68-4.43,1.31-6.64,2-4.12,1.21-8.25,2.38-12.37,3.56s-8.22,2.2-12.33,3.28c-3.91,1-7.8,2.12-11.71,3.13-1.85.47-3.7,1-5.57,1.39l-6.54,1.44-7.57,1.23c-2.61.43-5.24.75-7.86,1.13s-5,.64-7.44,1c-1.09.14-2.19.22-3.28.33s-2.45.27-3.68.35l-15.5,1-2,.16c.53-.74,1-1.47,1.56-2.21,1.32-1.87,2.45-3.88,3.62-5.84s2.16-3.67,3.27-5.49c2.5-4.11,5-8.26,7.6-12.27,1.39-2.12,2.74-4.28,4.19-6.37l4.17-6q3.85-5.31,7.8-10.54c2.44-3.25,4.88-6.5,7.27-9.79,1.1-1.51,2.23-3,3.27-4.55l4.42-6.62c1.19-1.78,2.26-3.66,3.39-5.49,1-1.58,1.92-3.15,2.85-4.75q3.66-6.3,7.27-12.62c.82-1.45,1.66-2.87,2.54-4.28,1.15-1.88,2.25-3.81,3.48-5.63l8-11.87c1-1.46,1.89-2.94,2.8-4.44,1.12-1.85,2.27-3.68,3.28-5.59l3.48-6.59c.3-.55.53-1.15.8-1.73.7-1.54,1.4-3.07,2.09-4.61s1.36-3.11,2-4.69c.86-2.09,1.77-4.17,2.56-6.29,1.52-4.05,3.06-8.09,4.45-12.19l2.31-6.8c.69-2,1.27-4.15,1.9-6.21,1.32-4.31,2.54-8.63,3.76-13s2.24-8.55,3.33-12.83c.44-1.72.8-3.46,1.18-5.19.45-2.07,1-4.14,1.36-6.23l1.35-7.29c.34-1.82.74-3.64,1-5.47.37-2.44.73-4.89,1.1-7.33s.76-4.6,1-6.92q.65-6.48,1.3-13c.06-.61,0-1.23.08-1.84l.18-4.19c.11-2.51.21-5,.32-7.54.08-1.9,0-3.81.05-5.71,0-2.17,0-4.34,0-6.51l.21-14.1c.06-4.49.24-9,.36-13.45.11-4.13.39-8.26.59-12.38s.67-7.93.8-11.91q.25-7.71.52-15.42c0-1.33-.06-2.67-.08-4-.09-3.23-.16-6.47-.24-9.7,0-1.59,0-3.21-.12-4.79-.21-2.27-.43-4.53-.64-6.79-.24-2.68-.5-5.36-.75-8-.13-1.43-.39-2.84-.63-4.26q-.77-4.38-1.51-8.78c-.26-1.53-.45-3.09-.82-4.6q-1.74-7-3.47-14c-.38-1.54-.83-3.07-1.24-4.6-.83-3.06-1.66-6.13-2.48-9.19-1-3.73-1.9-7.5-2.83-11.25-2.21-9-4.51-17.92-6.82-26.87-.31-1.2-.71-2.38-1.09-3.56-1-3-1.94-6-2.9-9-.43-1.35-.79-2.74-1.32-4.05q-1.35-3.44-2.72-6.85c-1.49-3.75-3-7.51-4.51-11.24-1.78-4.24-3.6-8.47-5.34-12.73q-5.3-13.11-10.56-26.23c-1.56-3.88-3.14-7.76-4.71-11.63-1.49-3.69-3.13-7.3-4.76-10.93q-1.47-3.28-2.95-6.56c-.64-1.43-1.39-2.8-2.12-4.18l-4.25-8.05c-.7-1.31-1.35-2.66-2.11-3.93l-8-13.22c-2.27-3.77-4.68-7.46-7-11.18-4.41-7-8.65-14.13-12.84-21.26q-3-5.13-6.06-10.22c-2.24-3.74-4.39-7.56-6.78-11.21q-2.2-3.39-4.42-6.78l-2.21-3.39c-.33-.5-.63-1-1-1.51l-4.35-5.89c-1-1.42-2.06-2.85-3.16-4.22-5.7-7.09-11.43-14.16-17.08-21.3s-11.18-14.08-16.73-21.15c-2.7-3.43-5.28-7-8-10.37l-5.75-7.16c-1.6-2-3.39-3.84-5.11-5.73l-2.54-2.8c-.57-.64-1.22-1.21-1.84-1.81l-5.55-5.46c-2.08-2-4.14-4.05-6.17-6.12-1.54-1.58-3-3.27-4.39-4.95q-2.26-3-4.49-6c-1.53-2-3.1-4.08-4.8-6s-3.56-4-5.52-5.76-3.94-3.7-6.09-5.33a6.11,6.11,0,0,0-3.5-1.32,5.86,5.86,0,0,0-4.47,9.88c1.31,1.28,2.68,2.5,4,3.73s2.5,2.41,3.72,3.66,2.41,2.64,3.58,4,2.2,2.8,3.24,4.24q1.95,2.67,3.91,5.32c1.17,1.59,2.48,3.09,3.74,4.61,1.38,1.68,2.92,3.23,4.41,4.81s3.15,3.17,4.72,4.75l4.48,4.52c2.87,2.9,5.53,6,8.25,9.05,2.4,3,4.83,6,7.16,9.13,2.75,3.63,5.49,7.25,8.29,10.84,5.56,7.17,11.16,14.3,16.73,21.46,5.18,6.64,10.43,13.22,15.64,19.83,1.36,1.73,2.59,3.57,3.88,5.35,1.08,1.49,2.22,2.93,3.21,4.47l7.32,11.36c3.8,6.41,7.62,12.81,11.37,19.25,1.75,3,3.47,6,5.26,8.94,2.23,3.7,4.41,7.45,6.71,11.11l7.17,11.44c2,3.13,3.84,6.32,5.74,9.48l3.27,5.42c.54.9,1,1.85,1.49,2.77q3.18,6,6.38,12.08,2.79,6.24,5.6,12.48c1.7,3.8,3.18,7.71,4.74,11.57,3,7.42,6,14.87,9,22.3,1.55,3.81,3.08,7.63,4.67,11.43,1.73,4.13,3.52,8.22,5.17,12.38q3,7.42,5.92,14.86c.4,1,.73,2,1.06,3.07l2.91,9,1,3.18c1.61,6.25,3.27,12.49,4.81,18.76,1.68,6.8,3.27,13.62,5.1,20.37q1.71,6.39,3.44,12.78c.85,3.16,1.59,6.35,2.37,9.53l1.29,5.2c.25,1,.36,2,.53,3q1,5.72,2,11.43c.49,5.3,1,10.6,1.49,15.9l.33,13.91c0,1.1.07,2.2,0,3.3q-.14,4.32-.29,8.62c-.07,2.27-.15,4.53-.22,6.8-.07,2.06-.28,4.12-.42,6.17-.32,4.65-.55,9.3-.78,14-.42,8.68-.54,17.38-.66,26.07q-.09,6.57-.13,13.15c0,1.54,0,3.08-.06,4.62l-.36,8.62c-.07,1.43-.13,2.85-.19,4.27,0,.91-.17,1.81-.25,2.72q-.49,4.83-1,9.66c-.85,5.77-1.65,11.55-2.72,17.27-.36,2-.73,3.94-1.09,5.91-.2,1.05-.36,2.12-.59,3.17-.68,3.08-1.35,6.17-2,9.25-1,3.93-1.93,7.87-3,11.77-1.26,4.48-2.5,9-3.86,13.41-.7,2.29-1.39,4.58-2.09,6.87s-1.55,4.59-2.32,6.87c-1.36,4-2.86,8-4.35,12l-2.55,6.21c-.74,1.8-1.55,3.56-2.35,5.33s-1.46,3.36-2.31,5l-3.16,6c-1.51,2.51-2.94,5.08-4.57,7.51-1.88,2.82-3.77,5.65-5.66,8.46l-3.1,4.62c-.91,1.35-1.7,2.78-2.54,4.16-1.8,2.93-3.5,5.91-5.2,8.91s-3.31,5.79-5,8.69-3.44,5.8-5.2,8.69-3.6,5.63-5.45,8.42c-1.55,2.35-3.23,4.62-4.88,6.91-3.31,4.49-6.68,9-9.92,13.5-3.45,4.87-6.83,9.77-10.05,14.8s-6.16,10-9.13,15.05c-1.3,2.22-2.55,4.46-3.82,6.69-.7,1.22-1.39,2.43-2.12,3.63s-1.36,2.14-2.07,3.2c-1.17,1.57-2.36,3.12-3.59,4.66-1.71,2.13-3.76,4.22-4.58,6.88a6.76,6.76,0,0,0,3.6,7.92,12.32,12.32,0,0,0,4.15.87c1,.09,2.06.15,3.1.2a103.72,103.72,0,0,0,12.21-.41l12.27-.83c1.81-.12,3.61-.27,5.41-.45C1278,936.45,1280.62,936.13,1283.28,935.79Z"/><path d="M1473.9,433.79a3.29,3.29,0,0,0,2.1-1.25,3.19,3.19,0,0,0-3-5.07l-.1,0-.5-.08c-.61-.12-1.23-.22-1.84-.38l-1.64-.42c-.35-.09-.71-.16-1.06-.27l-4.35-1.45.4.13c-1.73-.72-3.49-1.4-5.18-2.2a47.87,47.87,0,0,1-4.38-2.43c-.87-.58-1.7-1.19-2.51-1.84-.63-.56-1.23-1.14-1.81-1.76a48.36,48.36,0,0,1-3.09-3.92c-.57-.84-1.1-1.7-1.58-2.58-.23-.47-.44-.94-.63-1.43s-.21-.73-.3-1.1-.11-.7-.15-1.05c.74-.57,1.49-1.13,2.24-1.67s1.35-.88,2.06-1.27c.56-.27,1.13-.51,1.7-.73.72-.24,1.45-.44,2.19-.62q2.83-.59,5.71-1c2-.31,4-.45,6-.62a56.85,56.85,0,0,1,6.53-.25c1.36.09,2.69.29,4,.49s2.92.62,4.36,1l2,.53,1.28.34a4.2,4.2,0,0,0,1.89.21.88.88,0,0,0,.31-1.63,13.55,13.55,0,0,0-1.49-.71l-1-.45-1.7-.76c-1.35-.57-2.7-1.11-4.07-1.63s-3.07-1.08-4.63-1.5a22.42,22.42,0,0,0-4.59-.74l-2.37-.13c-2.49-.14-5-.18-7.48-.11-3.86.12-7.8.18-11.46,1.54a28.59,28.59,0,0,0-4.58,2.33c-1.5.9-3.22,1.81-4.1,3.4a7.65,7.65,0,0,0-.39,5.21,18.27,18.27,0,0,0,1.91,5.15,36.87,36.87,0,0,0,4.78,6.6,33.43,33.43,0,0,0,2.32,2.44,31.29,31.29,0,0,0,4.47,3.39,45.83,45.83,0,0,0,7.45,3.88c1.4.57,2.79,1.23,4.23,1.7l4.21,1.4c1,.33,2,.53,3.06.79.52.14,1.06.22,1.59.33l1,.2a6,6,0,0,0,1.85,0Z"/><path d="M1464.24,418.18a3.19,3.19,0,0,0,1.36-1.24,4.33,4.33,0,0,0,.44-2,2.39,2.39,0,0,0-.71-1.79,4.42,4.42,0,0,0-.29-1,4.51,4.51,0,0,0-2.28-2.48,3.78,3.78,0,0,0-3,0,3.67,3.67,0,0,0-2,2.61,4.32,4.32,0,0,0,.61,3.19,7,7,0,0,0,.6.83,1.14,1.14,0,0,0,.69.73,9.48,9.48,0,0,0,1.24.95,3.59,3.59,0,0,0,2.41.55A3.34,3.34,0,0,0,1464.24,418.18Z"/><path d="M1396.39,446.12a31.93,31.93,0,0,0,2.23-2.56L1400,442a3.88,3.88,0,0,1-.26.31c1.38-1.61,2.77-3.21,4-4.93a30.62,30.62,0,0,0,4.71-10.9,29.64,29.64,0,0,0,.69-5.79c0-.93,0-1.86,0-2.78,0-1.29.06-2.56.11-3.84.06-.63.13-1.26.19-1.9.12-1.15.29-2.3.3-3.46a5.56,5.56,0,0,0-1.86-4.45,4.74,4.74,0,0,0-2.31-1.05,6.31,6.31,0,0,0-2,.13c-1.21.23-2.41.49-3.61.76-.69.16-1.4.31-2.09.5a21.62,21.62,0,0,0-4.87,2c-1.23.68-2.41,1.45-3.61,2.17-1,.59-2,1.15-3,1.68l-3.67,2a21.29,21.29,0,0,0-3.11,2,21.72,21.72,0,0,0-3,2.93c-.34.39-.68.78-1,1.18a14.91,14.91,0,0,0-.93,1.17,4.11,4.11,0,0,0-1.07,2.19.28.28,0,0,0,0,.09,1.07,1.07,0,0,0,1.06,1,1.91,1.91,0,0,0,1.2-.55c.35-.25.67-.56,1-.82.83-.65,1.68-1.28,2.53-1.9a32.53,32.53,0,0,1,3.24-2c1.49-.73,3-1.29,4.58-1.87s3-1.08,4.46-1.65,2.94-1.31,4.44-1.89a25.43,25.43,0,0,1,2.45-.7c1.22-.24,2.44-.43,3.67-.64l.62-.11-.15,2.51c-.06,1,0,2,0,3,0,2.11.16,4.22.07,6.33-.07.81-.18,1.61-.32,2.41-.21,1-.47,2-.77,2.94a32.69,32.69,0,0,1-1.32,3.26c-.27.53-.57,1.05-.88,1.55q-.74,1.08-1.56,2.07c-1.33,1.54-2.75,3-4.21,4.41h0c-.66.59-1.32,1.17-2,1.7a3.48,3.48,0,0,0,1.74,6.18,3.46,3.46,0,0,0,.91,0A3.69,3.69,0,0,0,1396.39,446.12Z"/><path d="M1392.37,427.08a4.26,4.26,0,0,0,.9-1.44,4.82,4.82,0,0,0,.33-1.76,11.33,11.33,0,0,0-.91-3.55,3,3,0,0,0-1.65-1.61,3.07,3.07,0,0,0-2.38,0,3.14,3.14,0,0,0-1.59,1.62l-.1,0a2.4,2.4,0,0,0-1.3,1.83,3.27,3.27,0,0,0,.13,1.28,3.38,3.38,0,0,0,0,.9,6.14,6.14,0,0,0,.18.74,8.19,8.19,0,0,0,.39.85,4.39,4.39,0,0,0,1,1.09,4,4,0,0,0,1.59.88,3.67,3.67,0,0,0,3.42-.91Z"/><path d="M1478.18,399.24a1.07,1.07,0,0,0,.51-.43,4.38,4.38,0,0,0,.41-.91c.14-.36.25-.73.37-1.09a.14.14,0,0,0,0-.06v0c0-.07,0-.13.07-.19h0l.33-1v0c.19-.55.4-1.1.61-1.65a.76.76,0,0,0-.5-1,.75.75,0,0,0-.93.63q-.11.87-.24,1.74h0v0h0l0,.14-.09.48a.2.2,0,0,0,0-.07c0,.17-.06.34-.1.52a.09.09,0,0,0,0,0l0,.15h0v0h0v0l-.18.8c-.07.26-.15.52-.22.78,0,0,0,0,0-.05a1.66,1.66,0,0,1-.12.31.41.41,0,0,1,0,.09l0,0h0a.34.34,0,1,0-.24.64.94.94,0,0,0,.4.07Z"/><path d="M1470.3,396.9c0-.53.07-1.08.09-1.62s.07-1.27.15-1.9c0-.32.06-.66.12-1s.13-.71.2-1.07l.36-1.6a1.27,1.27,0,0,0-.9-1.54,1.29,1.29,0,0,0-1.57,1.06c-.06.71-.13,1.42-.2,2.13s-.11,1.38-.14,2.08c-.06,1.1,0,2.22-.1,3.33a1,1,0,0,0,.88,1,.7.7,0,0,0,.25,0A1,1,0,0,0,1470.3,396.9Z"/><path d="M1461.54,397.93a.78.78,0,0,0,.54-1c-.14-.5-.25-1-.37-1.51l-.18-1c0-.29-.07-.59-.1-.89v.12c0-.43-.07-.87-.12-1.31a1.05,1.05,0,1,0-2,.57c.06.15.13.29.19.44.43,1.31.71,2.67,1.07,4a.79.79,0,0,0,.87.57Z"/><path d="M1452.88,399.3a1.11,1.11,0,0,0,.57-1.45c-.67-1.44-1.25-2.91-1.85-4.37v0l0,.08,0-.07v0l-1-2.69h0c-.44-1.29-.81-2.6-1.19-3.91a1.19,1.19,0,1,0-2.29.66c.72,2.22,1.52,4.41,2.34,6.59v0l0,.07,0,.06v0c.1.28.23.56.34.84.21.5.41,1,.62,1.52.28.69.59,1.38.9,2.06a1.11,1.11,0,0,0,1.17.65A1,1,0,0,0,1452.88,399.3Z"/><path d="M1445,398.27a.46.46,0,0,0,0-.26.67.67,0,0,0-.09-.21c-.38-.78-.76-1.57-1.12-2.36-.16-.36-.34-.71-.49-1.08s-.35-.86-.51-1.29-.34-1-.5-1.46a.85.85,0,1,0-1.54.67c.27.46.54.92.8,1.38l0-.06,0,.07h0l.7,1.31,0-.07c.29.56.6,1.11.9,1.66s.66,1.19,1,1.77a.44.44,0,0,0,.45.21A.46.46,0,0,0,1445,398.27Z"/><path d="M1441.5,402a.56.56,0,0,0,0-.22.38.38,0,0,0-.27-.3q-.29-.33-.54-.69l0,0c-.48-.7-.91-1.44-1.34-2.17-.31-.54-.63-1.08-.94-1.63-.42-.72-.81-1.46-1.22-2.19a.59.59,0,0,0,0,.08c-.28-.56-.56-1.11-.82-1.68a1,1,0,0,0-1.43-.45,1,1,0,0,0-.18,1.56,6.77,6.77,0,0,1,.55.51h0c.3.33.61.65.88,1s.65.88,1,1.31l0-.06,1.3,1.9c.24.37.49.73.74,1.1s.49.73.76,1.09a9.26,9.26,0,0,0,.88,1,.36.36,0,0,0,.29.1A.42.42,0,0,0,1441.5,402Z"/><path d="M1405.21,404.88c-.62-3.25-1.71-6.4-2.45-9.62a1.74,1.74,0,1,0-3.27,1.18c.09.23.18.46.26.69.34,1,.65,2,1,3.06s.51,2,.77,3v0c.16.74.33,1.49.44,2.24a1.67,1.67,0,1,0,3.31-.48Z"/><path d="M1397.16,407.41s0,0,0-.05a1.62,1.62,0,0,0-.43-1.54l-.06-.12c-.67-1.33-1.33-2.65-2-4l.12.21-.35-.67.11.22q-.3-.58-.63-1.14a2,2,0,0,0-3.75.79,2.11,2.11,0,0,0,.6,1.71l.22.24c.3.35.59.73.88,1.09l-.13-.19c.36.52.74,1,1.08,1.58l.66,1a14.3,14.3,0,0,0,.91,1.38,1.59,1.59,0,0,0,2.78-.59Z"/><path d="M1391.68,410.17a1.51,1.51,0,0,0,.23-2.08c-.11-.17-.23-.33-.35-.49l-.12-.18.11.15-1.26-1.8h0l0,0h0c-1.28-1.84-2.5-3.72-3.73-5.6a1.62,1.62,0,0,0-2.18-.53,1.6,1.6,0,0,0-.42,2.34c.83,1,1.56,2,2.29,3.06,1.11,1.65,2.23,3.31,3.38,4.95a1.42,1.42,0,0,0,1.37.53A1.59,1.59,0,0,0,1391.68,410.17Z"/><path d="M1382.9,409.58a1.48,1.48,0,0,0,1.25-.93,1.51,1.51,0,0,0-.1-1.26,1.45,1.45,0,0,0-1-.67h0c-.14-.13-.27-.27-.41-.41a29.89,29.89,0,0,1-2.06-2.72l.12.17c-.39-.56-.77-1.11-1.17-1.66a1.77,1.77,0,1,0-2.62,2.38c.73.67,1.42,1.37,2.1,2.09a32,32,0,0,0,2.33,2.33l-.13-.12a2.24,2.24,0,0,0,1.73.81Z"/><path d="M1377.48,414.1c0-.08.1-.15.14-.23a1.66,1.66,0,0,0-.57-2.21c-.4-.61-.76-1.26-1.14-1.88l-.83-1.36c-.69-1.14-1.37-2.28-2.08-3.4a2,2,0,1,0-3.23,2.25c.9,1,1.7,2.09,2.5,3.18l1,1.48a11.75,11.75,0,0,0,1.75,2.36,1.71,1.71,0,0,0,1.15.46l.22,0A1.59,1.59,0,0,0,1377.48,414.1Z"/><path d="M1375.73,418.58a1.87,1.87,0,0,0,.31-1.34,2,2,0,0,0-.72-1.25c-1.07-1.5-2.26-2.94-3.45-4.35a2,2,0,0,0-2.72-.31,1.92,1.92,0,0,0-.71,1.27,2,2,0,0,0,.57,1.63l.12.12c1.1,1.23,2.11,2.52,3.11,3.84.07.12.14.24.22.36a1.91,1.91,0,0,0,1.65.92l.25,0A2,2,0,0,0,1375.73,418.58Z"/><path d="M1440.49,622.57a10.14,10.14,0,0,0,4.06-2.05,2.75,2.75,0,0,0-1.37-4.88,2.83,2.83,0,0,0-2.06.58l-.1.07-.65.39-.71.29c-.3.09-.6.18-.9.25s-.65.11-1,.14H1437l-.49-.07-.09,0-.18-.08c0-.34,0-.69-.07-1l0,.41c-.13-1.62-.13-3.25-.17-4.88s0-3.32.07-5c.09-1.05.13-2.13.27-3.18.22-1.72.51-3.45.56-5.19s-.09-3.56-.2-5.34c-.07-1.09-.22-2.17-.35-3.26-.28-2.36-.58-4.71-.91-7.07s-.63-4.45-.92-6.68-.66-4.61-.91-6.92-.51-4.76-.77-7.13v0h0l0-.32,0,.32h0l-.06-.77c0-.18,0-.35,0-.53l-.06-.74,0,.4-.09-1.23,0,.39c0-.56-.09-1.12-.13-1.68l0,.39c0-.48-.08-1-.11-1.45,0,.06,0,.11,0,.17,0-.15,0-.3,0-.45v.08c0-.16,0-.32,0-.48a.92.92,0,0,0,0-.16v0l0-.32s0,.06,0,.1c-.18-2.5-.35-5-.54-7.49-.21-2.66-.48-5.3-.71-8-.21-2.34-.53-4.67-.8-7-.24-2-.5-4.09-.78-6.13-.68-5.07-1.33-10.15-2-15.23-.33-2.5-.54-5-.81-7.52s-.52-4.71-.79-7.06c-.48-4.3-1.07-8.6-1.62-12.9-.31-2.43-.68-4.87-.94-7.31l-.9-8.52-.06-.52c-.14-2.62-.3-5.23-.45-7.84-.13-2.34-.13-4.69-.18-7s0-4.62,0-6.94.11-4.34.16-6.52c.13-1.84.2-3.69.48-5.52l0,.13c0-.12,0-.24.08-.36a1.08,1.08,0,0,0,.23-1,1.09,1.09,0,0,0-2-.2v0l0,.08,0,0h0a3.06,3.06,0,0,0-.21.73q-.17,1.17-.27,2.37l-.15,1.9c-.08,1.05-.15,2.09-.19,3.14l-.18,4c0,1.25,0,2.5,0,3.74-.07,4.61-.07,9.22.09,13.83.07,2.26.1,4.53.28,6.79q.35,4.15.67,8.31c.21,2.58.51,5.16.77,7.74.22,2.21.42,4.42.62,6.62.12,1.25.24,2.49.35,3.73q.54,7.57,1,15.14c.15,2.32.39,4.63.59,6.95.19,2.06.38,4.13.58,6.19.26,2.55.55,5.09.76,7.64.23,2.83.45,5.66.7,8.49l.42,7.93c.13,2.35.17,4.71.24,7.06s.18,4.68.27,7c0,1,.14,1.94.22,2.91l.36,4.65v0l0,.34v-.15c.17,2.08.45,4.15.68,6.21.18,1.59.36,3.16.56,4.74.24,2,.54,4,.74,6s.41,3.92.61,5.89c.09,1.7.19,3.4.13,5.1s-.36,3.11-.57,4.66c-.14,1.09-.18,2.19-.26,3.29s-.07,2.35-.08,3.53c0,1,0,2,.13,3,.09,1.17.18,2.33.36,3.49s.41,2,.65,3.07a6.29,6.29,0,0,0,.37,1.11,3.58,3.58,0,0,0,1.28,1.45,9.41,9.41,0,0,0,3.93,1.45,9.84,9.84,0,0,0,2.71-.05C1439.41,622.81,1440,622.69,1440.49,622.57Z"/><path d="M1479.45,665a73.25,73.25,0,0,0,19-6.21,43.63,43.63,0,0,0,7.21-4.41,45.73,45.73,0,0,0,7-6.82c1.37-1.6,2.64-3.29,3.9-5,.76-1,1.57-2,2.29-3.09l1.35-2a4.13,4.13,0,0,0,.9-2.4,1.51,1.51,0,0,0-2.1-1.37l-.07,0a1.76,1.76,0,0,0-.37.23,8.78,8.78,0,0,0-.74.66c-1.32,1.14-2.51,2.44-3.72,3.71-2.47,2.59-4.88,5.24-7.52,7.68-1.09,1-2.23,1.85-3.41,2.7a44.43,44.43,0,0,1-4,2.45,57.07,57.07,0,0,1-5.91,2.53,72.59,72.59,0,0,1-7.62,2.17,75,75,0,0,1-9.33,1.4,66,66,0,0,1-6.89.11,58.9,58.9,0,0,1-6.06-.72,47.26,47.26,0,0,1-4.68-1.21c-1.45-.51-2.86-1.06-4.25-1.71-1.78-.91-3.5-1.91-5.18-3-2.74-1.85-5.3-3.9-7.84-6-1.77-1.56-3.52-3.14-5.27-4.71-3.08-2.76-7.36-5.46-11.57-3.47a7.24,7.24,0,0,0-3.24,2.93,6.58,6.58,0,0,0-.81,4.38,8.25,8.25,0,0,0,1.54,3.67,9.87,9.87,0,0,0,2.62,2.19c.94.57,1.94,1,2.93,1.52,2.11,1,4.13,2.25,6.15,3.44,2.51,1.48,5,3,7.53,4.44a67.88,67.88,0,0,0,8.82,4.1,47.23,47.23,0,0,0,9.59,2.39,57.06,57.06,0,0,0,16.86-.2C1477.51,665.32,1478.48,665.16,1479.45,665Z"/></svg>