<svg id="Layer_1" data-name="Layer 1" xmlns="http://www.w3.org/2000/svg" viewBox="0 0 1920 1080"><defs><style>.cls-1{fill:aqua;opacity:0.6;}.cls-2{fill:#3fa9f5;opacity:0.5;}.cls-3{fill:#1a1a1a;opacity:0.8;}.cls-4{fill:#b3f4ff;}</style></defs><circle class="cls-1" cx="1466.43" cy="476.94" r="413.57"/><rect class="cls-2" x="1075.57" y="502.64" width="791.55" height="362.65" transform="translate(-27.1 61.62) rotate(-2.38)"/><circle class="cls-3" cx="439.5" cy="635.5" r="327.5"/><path d="M108.38,119.38a3.64,3.64,0,0,1-1.11-2.67V81.07a2.71,2.71,0,0,1,.78-1.95,2.56,2.56,0,0,1,1.92-.81,2.77,2.77,0,0,1,2.76,2.76v34h19.62a2.77,2.77,0,0,1,2.76,2.76,2.56,2.56,0,0,1-.81,1.92,2.71,2.71,0,0,1-2,.78h-21.3A3.64,3.64,0,0,1,108.38,119.38Z"/><path d="M143,116.92q-4.11-4.17-4.11-11.73a19.56,19.56,0,0,1,1.56-7.86,13.36,13.36,0,0,1,4.8-5.82,13.79,13.79,0,0,1,8-2.22,14,14,0,0,1,7.68,2.07,13.39,13.39,0,0,1,4.92,5.52,17,17,0,0,1,1.68,7.53,2.62,2.62,0,0,1-2.76,2.7H144.41a9.87,9.87,0,0,0,3.12,6.54q2.64,2.34,7.38,2.34a18,18,0,0,0,4.41-.48,18.32,18.32,0,0,0,3.69-1.38,2.38,2.38,0,0,1,1.08-.24,2.41,2.41,0,0,1,1.68.66,2.18,2.18,0,0,1,.72,1.68,2.59,2.59,0,0,1-1.56,2.22,18.74,18.74,0,0,1-10.5,2.64Q147.11,121.09,143,116.92Zm19.11-14.25a9.61,9.61,0,0,0-1.53-4.92,8.26,8.26,0,0,0-3.33-2.91,9.15,9.15,0,0,0-8,0,8.06,8.06,0,0,0-3.3,2.91,9.79,9.79,0,0,0-1.5,4.92Z"/><path d="M173.69,118.39a2.29,2.29,0,0,1-1-2,2.41,2.41,0,0,1,.66-1.68A2.18,2.18,0,0,1,175,114a2.64,2.64,0,0,1,1.08.24,24.25,24.25,0,0,0,3.84,1.32,17.85,17.85,0,0,0,4.32.48q6.66,0,6.66-4.26a2.27,2.27,0,0,0-1.53-2.1,31.33,31.33,0,0,0-5-1.62,45.27,45.27,0,0,1-5.85-1.74,10.29,10.29,0,0,1-4-2.73,6.94,6.94,0,0,1-1.65-4.83,8.65,8.65,0,0,1,3-6.84q3-2.64,8.67-2.64a25,25,0,0,1,8.7,1.5,2.25,2.25,0,0,1,1.29.9,2.41,2.41,0,0,1,.45,1.38,2.35,2.35,0,0,1-.69,1.68,2.27,2.27,0,0,1-1.71.72,3.37,3.37,0,0,1-.78-.12A23,23,0,0,0,185,94.27,9.37,9.37,0,0,0,180,95.44a3.49,3.49,0,0,0-1.83,3,2.77,2.77,0,0,0,1.68,2.64,24,24,0,0,0,5.22,1.62,50,50,0,0,1,5.76,1.77,9.52,9.52,0,0,1,3.81,2.73,7.41,7.41,0,0,1,1.59,5,7.93,7.93,0,0,1-3,6.36q-3,2.52-8.55,2.52A22.32,22.32,0,0,1,173.69,118.39Z"/><path d="M202.49,118.39a2.29,2.29,0,0,1-1-2,2.41,2.41,0,0,1,.66-1.68,2.18,2.18,0,0,1,1.68-.72,2.64,2.64,0,0,1,1.08.24,24.25,24.25,0,0,0,3.84,1.32,17.85,17.85,0,0,0,4.32.48q6.66,0,6.66-4.26a2.27,2.27,0,0,0-1.53-2.1,31.33,31.33,0,0,0-5-1.62,45.27,45.27,0,0,1-5.85-1.74,10.29,10.29,0,0,1-4-2.73,6.94,6.94,0,0,1-1.65-4.83,8.65,8.65,0,0,1,3-6.84q3-2.64,8.67-2.64a25,25,0,0,1,8.7,1.5,2.25,2.25,0,0,1,1.29.9,2.41,2.41,0,0,1,.45,1.38,2.35,2.35,0,0,1-.69,1.68,2.27,2.27,0,0,1-1.71.72,3.37,3.37,0,0,1-.78-.12,23,23,0,0,0-6.84-1.08,9.37,9.37,0,0,0-5.07,1.17,3.49,3.49,0,0,0-1.83,3,2.77,2.77,0,0,0,1.68,2.64,24,24,0,0,0,5.22,1.62,50,50,0,0,1,5.76,1.77,9.52,9.52,0,0,1,3.81,2.73,7.41,7.41,0,0,1,1.59,5,7.93,7.93,0,0,1-3,6.36q-3,2.52-8.55,2.52A22.32,22.32,0,0,1,202.49,118.39Z"/><path d="M254.09,119.17a14.78,14.78,0,0,1-5.85-5.52,17.44,17.44,0,0,1,0-16.92,14.78,14.78,0,0,1,5.85-5.52,16.92,16.92,0,0,1,8-1.92,16.63,16.63,0,0,1,5.49.81,20.74,20.74,0,0,1,4.29,2.07,2.39,2.39,0,0,1,.51,3.75,2.11,2.11,0,0,1-1.59.75,2.74,2.74,0,0,1-1.32-.36,22.85,22.85,0,0,0-3.39-1.47,11.7,11.7,0,0,0-3.51-.45,10.88,10.88,0,0,0-8.1,3,11.9,11.9,0,0,0,0,15.66,10.88,10.88,0,0,0,8.1,3,11.7,11.7,0,0,0,3.51-.45,22.85,22.85,0,0,0,3.39-1.47,2.74,2.74,0,0,1,1.32-.36,2.11,2.11,0,0,1,1.59.75,2.39,2.39,0,0,1-.51,3.75,20.74,20.74,0,0,1-4.29,2.07,16.63,16.63,0,0,1-5.49.81A16.92,16.92,0,0,1,254.09,119.17Z"/><path d="M282.8,120a8.52,8.52,0,0,1-3.57-3.15,8.68,8.68,0,0,1-1.32-4.77,8.41,8.41,0,0,1,3.51-7.08q3.51-2.64,10.29-2.64H299v-.48q0-4-2-5.7t-6.09-1.74a20.45,20.45,0,0,0-4.05.36A34,34,0,0,0,283,95.89a3.37,3.37,0,0,1-.78.12,2.13,2.13,0,0,1-1.56-.66,2.2,2.2,0,0,1-.66-1.62,2.31,2.31,0,0,1,1.56-2.28,26.39,26.39,0,0,1,10.38-2.16,13.55,13.55,0,0,1,7,1.68,10.56,10.56,0,0,1,4.2,4.35,12.65,12.65,0,0,1,1.35,5.79v17a2.56,2.56,0,0,1-.81,1.92,2.71,2.71,0,0,1-1.95.78,2.66,2.66,0,0,1-2.7-2.7v-1.56a15.07,15.07,0,0,1-11.28,4.56A11.15,11.15,0,0,1,282.8,120Zm12-5a14.18,14.18,0,0,0,4.14-3.21v-5h-6.54q-9.06,0-9.06,4.74a4.45,4.45,0,0,0,1.47,3.48q1.47,1.32,4.89,1.32A10.85,10.85,0,0,0,294.83,115Z"/><path d="M314.39,120a2.61,2.61,0,0,1-.78-1.92V92.35a2.71,2.71,0,0,1,.78-1.95,2.56,2.56,0,0,1,1.92-.81,2.77,2.77,0,0,1,2.76,2.76v2.58q4.2-5.64,9.42-5.64h.3a2.51,2.51,0,0,1,1.89.78,2.66,2.66,0,0,1,.75,1.92,2.42,2.42,0,0,1-.78,1.86,2.81,2.81,0,0,1-2,.72h-.3A10.23,10.23,0,0,0,323.09,96a12.16,12.16,0,0,0-4,3.87v18.24a2.56,2.56,0,0,1-.81,1.92,2.71,2.71,0,0,1-1.95.78A2.61,2.61,0,0,1,314.39,120Z"/><path d="M335.57,118.39a2.29,2.29,0,0,1-1-2,2.41,2.41,0,0,1,.66-1.68,2.18,2.18,0,0,1,1.68-.72,2.64,2.64,0,0,1,1.08.24,24.25,24.25,0,0,0,3.84,1.32,17.85,17.85,0,0,0,4.32.48q6.66,0,6.66-4.26a2.27,2.27,0,0,0-1.53-2.1,31.33,31.33,0,0,0-5-1.62,45.27,45.27,0,0,1-5.85-1.74,10.29,10.29,0,0,1-4-2.73,6.94,6.94,0,0,1-1.65-4.83,8.65,8.65,0,0,1,3-6.84q3-2.64,8.67-2.64a25,25,0,0,1,8.7,1.5,2.25,2.25,0,0,1,1.29.9,2.41,2.41,0,0,1,.45,1.38,2.35,2.35,0,0,1-.69,1.68,2.27,2.27,0,0,1-1.71.72,3.37,3.37,0,0,1-.78-.12,23,23,0,0,0-6.84-1.08,9.37,9.37,0,0,0-5.07,1.17,3.49,3.49,0,0,0-1.83,3,2.77,2.77,0,0,0,1.68,2.64,24,24,0,0,0,5.22,1.62,50,50,0,0,1,5.76,1.77,9.52,9.52,0,0,1,3.81,2.73,7.41,7.41,0,0,1,1.59,5,7.93,7.93,0,0,1-3,6.36q-3,2.52-8.55,2.52A22.32,22.32,0,0,1,335.57,118.39Z"/><path d="M386.39,119.11A13.46,13.46,0,0,1,381,113.5a19.21,19.21,0,0,1,0-16.62,13.46,13.46,0,0,1,5.37-5.61,17.44,17.44,0,0,1,16.14,0,13.65,13.65,0,0,1,5.4,5.61,18.94,18.94,0,0,1,0,16.62,13.65,13.65,0,0,1-5.4,5.61,17.44,17.44,0,0,1-16.14,0ZM399.2,115a9.16,9.16,0,0,0,3.72-3.6,12,12,0,0,0,1.47-6.24A11.88,11.88,0,0,0,402.92,99a9,9,0,0,0-3.72-3.57,10.52,10.52,0,0,0-4.71-1.11,10.64,10.64,0,0,0-4.77,1.11A8.78,8.78,0,0,0,386,99a12.08,12.08,0,0,0-1.44,6.18,12.21,12.21,0,0,0,1.44,6.24,9,9,0,0,0,3.69,3.6,10.41,10.41,0,0,0,4.77,1.14A10.29,10.29,0,0,0,399.2,115Z"/><path d="M418.25,120a2.61,2.61,0,0,1-.78-1.92V92.35a2.71,2.71,0,0,1,.78-1.95,2.56,2.56,0,0,1,1.92-.81,2.77,2.77,0,0,1,2.76,2.76v2.46a19.94,19.94,0,0,1,4.92-4,12.42,12.42,0,0,1,6.24-1.5,10.37,10.37,0,0,1,5.73,1.56,10.14,10.14,0,0,1,3.72,4.26,13.6,13.6,0,0,1,1.29,5.94v17A2.56,2.56,0,0,1,444,120a2.71,2.71,0,0,1-1.95.78,2.66,2.66,0,0,1-2.7-2.7V101.65q0-7.32-6.6-7.32a9.55,9.55,0,0,0-5.37,1.56,19.44,19.44,0,0,0-4.47,4.2v18a2.56,2.56,0,0,1-.81,1.92,2.71,2.71,0,0,1-1.95.78A2.61,2.61,0,0,1,418.25,120Z"/><path d="M471.41,113.17V94.57h-4.26A1.13,1.13,0,0,1,466,93.43a1.25,1.25,0,0,1,.54-1l8.16-8a1.5,1.5,0,0,1,1-.54,1.09,1.09,0,0,1,.81.36,1.25,1.25,0,0,1,.33.84v4.8h6.78a2.31,2.31,0,0,1,1.68.66,2.28,2.28,0,0,1,.66,1.68,2.3,2.3,0,0,1-.66,1.65,2.25,2.25,0,0,1-1.68.69h-6.78v18.12c0,1.56.36,2.55,1.11,3a5.57,5.57,0,0,0,2.79.63,8.42,8.42,0,0,0,2.4-.36l.51-.12a3.2,3.2,0,0,1,.69-.06,2.15,2.15,0,0,1,1.5.63,2.07,2.07,0,0,1,.66,1.53,2.29,2.29,0,0,1-1.38,2.1,11.77,11.77,0,0,1-5,1.08C474.32,121.09,471.41,118.45,471.41,113.17Z"/><path d="M493.3,120a2.61,2.61,0,0,1-.78-1.92V79.15a2.71,2.71,0,0,1,.78-2,2.56,2.56,0,0,1,1.92-.81A2.77,2.77,0,0,1,498,79.15V94.81a19.94,19.94,0,0,1,4.92-4,12.42,12.42,0,0,1,6.24-1.5,10.37,10.37,0,0,1,5.73,1.56,10.14,10.14,0,0,1,3.72,4.26,13.6,13.6,0,0,1,1.29,5.94v17a2.56,2.56,0,0,1-.81,1.92,2.71,2.71,0,0,1-2,.78,2.66,2.66,0,0,1-2.7-2.7V101.65q0-7.32-6.6-7.32a9.55,9.55,0,0,0-5.37,1.56,19.44,19.44,0,0,0-4.47,4.2v18a2.56,2.56,0,0,1-.81,1.92,2.71,2.71,0,0,1-1.95.78A2.61,2.61,0,0,1,493.3,120Z"/><path d="M531.31,116.92q-4.11-4.17-4.11-11.73a19.56,19.56,0,0,1,1.56-7.86,13.36,13.36,0,0,1,4.8-5.82,13.79,13.79,0,0,1,8-2.22,14,14,0,0,1,7.68,2.07,13.39,13.39,0,0,1,4.92,5.52,17,17,0,0,1,1.68,7.53,2.62,2.62,0,0,1-2.76,2.7H532.72a9.87,9.87,0,0,0,3.12,6.54q2.64,2.34,7.38,2.34a18,18,0,0,0,4.41-.48,18.32,18.32,0,0,0,3.69-1.38,2.38,2.38,0,0,1,1.08-.24,2.41,2.41,0,0,1,1.68.66,2.18,2.18,0,0,1,.72,1.68,2.59,2.59,0,0,1-1.56,2.22,18.74,18.74,0,0,1-10.5,2.64Q535.42,121.09,531.31,116.92Zm19.11-14.25a9.61,9.61,0,0,0-1.53-4.92,8.26,8.26,0,0,0-3.33-2.91,9.15,9.15,0,0,0-8,0,8.06,8.06,0,0,0-3.3,2.91,9.79,9.79,0,0,0-1.5,4.92Z"/><path d="M579.4,120a2.61,2.61,0,0,1-.78-1.92V92.35a2.71,2.71,0,0,1,.78-1.95,2.56,2.56,0,0,1,1.92-.81,2.77,2.77,0,0,1,2.76,2.76v2.58q4.2-5.64,9.42-5.64h.3a2.51,2.51,0,0,1,1.89.78,2.66,2.66,0,0,1,.75,1.92,2.42,2.42,0,0,1-.78,1.86,2.81,2.81,0,0,1-2,.72h-.3A10.23,10.23,0,0,0,588.1,96a12.16,12.16,0,0,0-4,3.87v18.24a2.56,2.56,0,0,1-.81,1.92,2.71,2.71,0,0,1-1.95.78A2.61,2.61,0,0,1,579.4,120Z"/><path d="M606.1,119.11a13.46,13.46,0,0,1-5.37-5.61,19.21,19.21,0,0,1,0-16.62,13.46,13.46,0,0,1,5.37-5.61,17.44,17.44,0,0,1,16.14,0,13.65,13.65,0,0,1,5.4,5.61,18.94,18.94,0,0,1,0,16.62,13.65,13.65,0,0,1-5.4,5.61,17.44,17.44,0,0,1-16.14,0ZM618.91,115a9.16,9.16,0,0,0,3.72-3.6,12,12,0,0,0,1.47-6.24A11.88,11.88,0,0,0,622.63,99a9,9,0,0,0-3.72-3.57,10.52,10.52,0,0,0-4.71-1.11,10.64,10.64,0,0,0-4.77,1.11A8.78,8.78,0,0,0,605.74,99a12.08,12.08,0,0,0-1.44,6.18,12.21,12.21,0,0,0,1.44,6.24,9,9,0,0,0,3.69,3.6,10.41,10.41,0,0,0,4.77,1.14A10.29,10.29,0,0,0,618.91,115Z"/><path d="M640.09,120a8.52,8.52,0,0,1-3.57-3.15,8.68,8.68,0,0,1-1.32-4.77,8.41,8.41,0,0,1,3.51-7.08q3.51-2.64,10.29-2.64h7.26v-.48q0-4-2-5.7t-6.09-1.74a20.45,20.45,0,0,0-4.05.36,34,34,0,0,0-3.93,1.08,3.37,3.37,0,0,1-.78.12,2.13,2.13,0,0,1-1.56-.66,2.2,2.2,0,0,1-.66-1.62,2.31,2.31,0,0,1,1.56-2.28,26.39,26.39,0,0,1,10.38-2.16,13.55,13.55,0,0,1,7,1.68,10.56,10.56,0,0,1,4.2,4.35,12.65,12.65,0,0,1,1.35,5.79v17a2.56,2.56,0,0,1-.81,1.92,2.71,2.71,0,0,1-1.95.78,2.66,2.66,0,0,1-2.7-2.7v-1.56A15.07,15.07,0,0,1,645,121.09,11.15,11.15,0,0,1,640.09,120Zm12-5a14.18,14.18,0,0,0,4.14-3.21v-5h-6.54q-9.06,0-9.06,4.74a4.45,4.45,0,0,0,1.47,3.48q1.47,1.32,4.89,1.32A10.85,10.85,0,0,0,652.12,115Z"/><path d="M676.51,119.2a14.34,14.34,0,0,1-5.4-5.52,18.45,18.45,0,0,1,0-17,14.34,14.34,0,0,1,5.4-5.52,14.07,14.07,0,0,1,7-1.89,13.79,13.79,0,0,1,10.26,4.56V79.15a2.63,2.63,0,0,1,.81-2,2.71,2.71,0,0,1,2-.78,2.56,2.56,0,0,1,1.92.81,2.71,2.71,0,0,1,.78,2v38.94a2.66,2.66,0,0,1-2.7,2.7,2.71,2.71,0,0,1-2-.78,2.56,2.56,0,0,1-.81-1.92v-1.56a13.79,13.79,0,0,1-10.26,4.56A14.07,14.07,0,0,1,676.51,119.2Zm13-4.44a14.82,14.82,0,0,0,4.29-3.27V98.89a14.82,14.82,0,0,0-4.29-3.27,11.33,11.33,0,0,0-5.19-1.23,9.43,9.43,0,0,0-7.14,2.82q-2.7,2.82-2.7,8t2.7,8a9.43,9.43,0,0,0,7.14,2.82A11.33,11.33,0,0,0,689.53,114.76Z"/><path d="M724.78,82.75a3,3,0,0,1-.9-2.16v-.24a3.07,3.07,0,0,1,3.06-3.06h.36a3.07,3.07,0,0,1,3.06,3.06v.24a3.07,3.07,0,0,1-3.06,3.06h-.36A3,3,0,0,1,724.78,82.75Zm.36,37.26a2.61,2.61,0,0,1-.78-1.92V92.35a2.71,2.71,0,0,1,.78-1.95,2.56,2.56,0,0,1,1.92-.81,2.67,2.67,0,0,1,2.76,2.76v25.74A2.56,2.56,0,0,1,729,120a2.71,2.71,0,0,1-2,.78A2.61,2.61,0,0,1,725.14,120Z"/><path d="M738.28,118.39a2.29,2.29,0,0,1-1-2,2.41,2.41,0,0,1,.66-1.68,2.18,2.18,0,0,1,1.68-.72,2.64,2.64,0,0,1,1.08.24,24.25,24.25,0,0,0,3.84,1.32,17.85,17.85,0,0,0,4.32.48q6.66,0,6.66-4.26a2.27,2.27,0,0,0-1.53-2.1,31.33,31.33,0,0,0-5-1.62,45.27,45.27,0,0,1-5.85-1.74,10.29,10.29,0,0,1-4-2.73,6.94,6.94,0,0,1-1.65-4.83,8.65,8.65,0,0,1,3-6.84q3-2.64,8.67-2.64a25,25,0,0,1,8.7,1.5,2.25,2.25,0,0,1,1.29.9,2.41,2.41,0,0,1,.45,1.38,2.35,2.35,0,0,1-.69,1.68,2.27,2.27,0,0,1-1.71.72,3.37,3.37,0,0,1-.78-.12,23,23,0,0,0-6.84-1.08,9.37,9.37,0,0,0-5.07,1.17,3.49,3.49,0,0,0-1.83,3,2.77,2.77,0,0,0,1.68,2.64,24,24,0,0,0,5.22,1.62,50,50,0,0,1,5.76,1.77,9.52,9.52,0,0,1,3.81,2.73,7.41,7.41,0,0,1,1.59,5,7.93,7.93,0,0,1-3,6.36q-3,2.52-8.55,2.52A22.32,22.32,0,0,1,738.28,118.39Z"/><path d="M112.37,191.17a14.78,14.78,0,0,1-5.85-5.52,17.44,17.44,0,0,1,0-16.92,14.78,14.78,0,0,1,5.85-5.52,16.92,16.92,0,0,1,8-1.92,16.63,16.63,0,0,1,5.49.81,20.74,20.74,0,0,1,4.29,2.07,2.39,2.39,0,0,1,.51,3.75,2.11,2.11,0,0,1-1.59.75,2.74,2.74,0,0,1-1.32-.36,22.85,22.85,0,0,0-3.39-1.47,11.7,11.7,0,0,0-3.51-.45,10.88,10.88,0,0,0-8.1,3,11.9,11.9,0,0,0,0,15.66,10.88,10.88,0,0,0,8.1,3,11.7,11.7,0,0,0,3.51-.45,22.85,22.85,0,0,0,3.39-1.47,2.74,2.74,0,0,1,1.32-.36,2.11,2.11,0,0,1,1.59.75,2.39,2.39,0,0,1-.51,3.75,20.74,20.74,0,0,1-4.29,2.07,16.63,16.63,0,0,1-5.49.81A16.92,16.92,0,0,1,112.37,191.17Z"/><path d="M139,192a2.61,2.61,0,0,1-.78-1.92V151.15a2.71,2.71,0,0,1,.78-2,2.56,2.56,0,0,1,1.92-.81,2.67,2.67,0,0,1,2.76,2.76v38.94a2.56,2.56,0,0,1-.81,1.92,2.71,2.71,0,0,1-1.95.78A2.61,2.61,0,0,1,139,192Z"/><path d="M155.36,188.92q-4.11-4.17-4.11-11.73a19.56,19.56,0,0,1,1.56-7.86,13.36,13.36,0,0,1,4.8-5.82,13.79,13.79,0,0,1,8-2.22,14,14,0,0,1,7.68,2.07,13.39,13.39,0,0,1,4.92,5.52,17,17,0,0,1,1.68,7.53,2.62,2.62,0,0,1-2.76,2.7H156.77a9.87,9.87,0,0,0,3.12,6.54q2.64,2.34,7.38,2.34a18,18,0,0,0,4.41-.48,18.32,18.32,0,0,0,3.69-1.38,2.38,2.38,0,0,1,1.08-.24,2.41,2.41,0,0,1,1.68.66,2.18,2.18,0,0,1,.72,1.68,2.59,2.59,0,0,1-1.56,2.22,18.74,18.74,0,0,1-10.5,2.64Q159.47,193.09,155.36,188.92Zm19.11-14.25a9.61,9.61,0,0,0-1.53-4.92,8.26,8.26,0,0,0-3.33-2.91,9.15,9.15,0,0,0-8,0,8.06,8.06,0,0,0-3.3,2.91,9.79,9.79,0,0,0-1.5,4.92Z"/><path d="M190,192a8.52,8.52,0,0,1-3.57-3.15,8.68,8.68,0,0,1-1.32-4.77A8.41,8.41,0,0,1,188.6,177q3.51-2.64,10.29-2.64h7.26v-.48q0-4-2-5.7t-6.09-1.74a20.45,20.45,0,0,0-4.05.36,34,34,0,0,0-3.93,1.08,3.37,3.37,0,0,1-.78.12,2.13,2.13,0,0,1-1.56-.66,2.2,2.2,0,0,1-.66-1.62,2.31,2.31,0,0,1,1.56-2.28,26.39,26.39,0,0,1,10.38-2.16,13.55,13.55,0,0,1,7,1.68,10.56,10.56,0,0,1,4.2,4.35,12.65,12.65,0,0,1,1.35,5.79v17a2.56,2.56,0,0,1-.81,1.92,2.71,2.71,0,0,1-2,.78,2.66,2.66,0,0,1-2.7-2.7v-1.56a15.07,15.07,0,0,1-11.28,4.56A11.15,11.15,0,0,1,190,192Zm12-5a14.18,14.18,0,0,0,4.14-3.21v-5h-6.54q-9.06,0-9.06,4.74A4.45,4.45,0,0,0,192,187q1.47,1.32,4.89,1.32A10.85,10.85,0,0,0,202,187Z"/><path d="M221.57,192a2.61,2.61,0,0,1-.78-1.92V164.35a2.71,2.71,0,0,1,.78-1.95,2.56,2.56,0,0,1,1.92-.81,2.77,2.77,0,0,1,2.76,2.76v2.58q4.2-5.64,9.42-5.64h.3a2.51,2.51,0,0,1,1.89.78,2.66,2.66,0,0,1,.75,1.92,2.42,2.42,0,0,1-.78,1.86,2.81,2.81,0,0,1-2,.72h-.3a10.23,10.23,0,0,0-5.28,1.41,12.16,12.16,0,0,0-4,3.87v18.24a2.56,2.56,0,0,1-.81,1.92,2.71,2.71,0,0,1-1.95.78A2.61,2.61,0,0,1,221.57,192Z"/><path d="M244.19,154.75a3,3,0,0,1-.9-2.16v-.24a3.07,3.07,0,0,1,3.06-3.06h.36a3.07,3.07,0,0,1,3.06,3.06v.24a3.07,3.07,0,0,1-3.06,3.06h-.36A3,3,0,0,1,244.19,154.75Zm.36,37.26a2.61,2.61,0,0,1-.78-1.92V164.35a2.71,2.71,0,0,1,.78-1.95,2.56,2.56,0,0,1,1.92-.81,2.67,2.67,0,0,1,2.76,2.76v25.74a2.56,2.56,0,0,1-.81,1.92,2.71,2.71,0,0,1-1.95.78A2.61,2.61,0,0,1,244.55,192Z"/><path d="M259.49,192a2.61,2.61,0,0,1-.78-1.92V164.35a2.71,2.71,0,0,1,.78-1.95,2.56,2.56,0,0,1,1.92-.81,2.77,2.77,0,0,1,2.76,2.76v2.46a19.94,19.94,0,0,1,4.92-4,12.42,12.42,0,0,1,6.24-1.5,10.37,10.37,0,0,1,5.73,1.56,10.14,10.14,0,0,1,3.72,4.26,13.6,13.6,0,0,1,1.29,5.94v17a2.56,2.56,0,0,1-.81,1.92,2.71,2.71,0,0,1-1.95.78,2.66,2.66,0,0,1-2.7-2.7V173.65q0-7.32-6.6-7.32a9.55,9.55,0,0,0-5.37,1.56,19.44,19.44,0,0,0-4.47,4.2v18a2.56,2.56,0,0,1-.81,1.92,2.71,2.71,0,0,1-1.95.78A2.61,2.61,0,0,1,259.49,192Z"/><path d="M302.51,206a23,23,0,0,1-5.82-2.22,2.28,2.28,0,0,1-1.08-2.1,2.46,2.46,0,0,1,.69-1.71,2.23,2.23,0,0,1,1.71-.75,3,3,0,0,1,1.08.24,21.83,21.83,0,0,0,9.9,2.28q9.18,0,9.18-9.78v-4a13.54,13.54,0,0,1-10.26,4.56,14.46,14.46,0,0,1-6.87-1.77,14.3,14.3,0,0,1-5.49-5.28,18,18,0,0,1,0-17.1,14.3,14.3,0,0,1,5.49-5.28,14.46,14.46,0,0,1,6.87-1.77,13.54,13.54,0,0,1,10.26,4.56v-1.5a2.71,2.71,0,0,1,.78-1.95,2.56,2.56,0,0,1,1.92-.81,2.77,2.77,0,0,1,2.76,2.76v26.82q0,7.56-3.66,11.64t-10.44,4.08A28.4,28.4,0,0,1,302.51,206ZM314,186.31a18,18,0,0,0,4.14-3.24V170.71a18,18,0,0,0-4.14-3.24,10.08,10.08,0,0,0-5-1.2A10.19,10.19,0,0,0,301.7,169q-2.85,2.73-2.85,7.89t2.85,7.89a10.19,10.19,0,0,0,7.35,2.73A10.08,10.08,0,0,0,314,186.31Z"/><path d="M350.51,185.17v-18.6h-4.26a1.13,1.13,0,0,1-1.14-1.14,1.25,1.25,0,0,1,.54-1l8.16-8a1.51,1.51,0,0,1,1-.54,1.06,1.06,0,0,1,.81.36,1.2,1.2,0,0,1,.33.84v4.8h6.78a2.26,2.26,0,0,1,2.34,2.34,2.3,2.3,0,0,1-.66,1.65,2.22,2.22,0,0,1-1.68.69H356v18.12q0,2.34,1.11,3a5.59,5.59,0,0,0,2.79.63,8.32,8.32,0,0,0,2.4-.36l.51-.12a3.27,3.27,0,0,1,.69-.06,2.11,2.11,0,0,1,1.5.63,2,2,0,0,1,.66,1.53,2.27,2.27,0,0,1-1.38,2.1,11.74,11.74,0,0,1-5,1.08Q350.51,193.09,350.51,185.17Z"/><path d="M372.41,192a2.61,2.61,0,0,1-.78-1.92V151.15a2.71,2.71,0,0,1,.78-2,2.56,2.56,0,0,1,1.92-.81,2.77,2.77,0,0,1,2.76,2.76v15.66a19.94,19.94,0,0,1,4.92-4,12.42,12.42,0,0,1,6.24-1.5,10.37,10.37,0,0,1,5.73,1.56,10.14,10.14,0,0,1,3.72,4.26,13.6,13.6,0,0,1,1.29,5.94v17a2.56,2.56,0,0,1-.81,1.92,2.71,2.71,0,0,1-1.95.78,2.66,2.66,0,0,1-2.7-2.7V173.65q0-7.32-6.6-7.32a9.55,9.55,0,0,0-5.37,1.56,19.44,19.44,0,0,0-4.47,4.2v18a2.56,2.56,0,0,1-.81,1.92,2.71,2.71,0,0,1-1.95.78A2.61,2.61,0,0,1,372.41,192Z"/><path d="M410.42,188.92q-4.11-4.17-4.11-11.73a19.56,19.56,0,0,1,1.56-7.86,13.36,13.36,0,0,1,4.8-5.82,13.79,13.79,0,0,1,8-2.22,14,14,0,0,1,7.68,2.07,13.39,13.39,0,0,1,4.92,5.52,17,17,0,0,1,1.68,7.53,2.62,2.62,0,0,1-2.76,2.7H411.83a9.87,9.87,0,0,0,3.12,6.54q2.64,2.34,7.38,2.34a18,18,0,0,0,4.41-.48,18.32,18.32,0,0,0,3.69-1.38,2.38,2.38,0,0,1,1.08-.24,2.41,2.41,0,0,1,1.68.66,2.18,2.18,0,0,1,.72,1.68,2.59,2.59,0,0,1-1.56,2.22,18.74,18.74,0,0,1-10.5,2.64Q414.53,193.09,410.42,188.92Zm19.11-14.25a9.61,9.61,0,0,0-1.53-4.92,8.26,8.26,0,0,0-3.33-2.91,9.15,9.15,0,0,0-8,0,8.06,8.06,0,0,0-3.3,2.91,9.79,9.79,0,0,0-1.5,4.92Z"/><path d="M456.71,190.39a2.27,2.27,0,0,1-1-2,2.4,2.4,0,0,1,.65-1.68A2.18,2.18,0,0,1,458,186a2.64,2.64,0,0,1,1.08.24,24.25,24.25,0,0,0,3.84,1.32,17.85,17.85,0,0,0,4.32.48c4.45,0,6.66-1.42,6.66-4.26a2.26,2.26,0,0,0-1.52-2.1,31.53,31.53,0,0,0-5-1.62,45.27,45.27,0,0,1-5.85-1.74,10.29,10.29,0,0,1-4-2.73,6.94,6.94,0,0,1-1.65-4.83,8.63,8.63,0,0,1,3-6.84q3-2.64,8.66-2.64a25,25,0,0,1,8.7,1.5,2.25,2.25,0,0,1,1.29.9,2.34,2.34,0,0,1,.45,1.38,2.38,2.38,0,0,1-.68,1.68,2.3,2.3,0,0,1-1.71.72,3.37,3.37,0,0,1-.79-.12,23,23,0,0,0-6.84-1.08,9.31,9.31,0,0,0-5.06,1.17,3.47,3.47,0,0,0-1.83,3,2.77,2.77,0,0,0,1.67,2.64,24,24,0,0,0,5.22,1.62,50,50,0,0,1,5.76,1.77,9.52,9.52,0,0,1,3.81,2.73,7.41,7.41,0,0,1,1.6,5,7.93,7.93,0,0,1-3,6.36q-3,2.52-8.55,2.52A22.25,22.25,0,0,1,456.71,190.39Z"/><path d="M487.3,192a2.61,2.61,0,0,1-.78-1.92V164.35a2.71,2.71,0,0,1,.78-1.95,2.56,2.56,0,0,1,1.92-.81,2.77,2.77,0,0,1,2.76,2.76v2.46a15,15,0,0,1,4-4,11,11,0,0,1,6.15-1.56,9.33,9.33,0,0,1,5.76,1.8,10,10,0,0,1,3.42,4.38,12.09,12.09,0,0,1,11-6.18A9.11,9.11,0,0,1,528,163a10,10,0,0,1,3.33,4.32,14.44,14.44,0,0,1,1.08,5.52v17.28a2.56,2.56,0,0,1-.81,1.92,2.71,2.71,0,0,1-2,.78,2.66,2.66,0,0,1-2.7-2.7v-16.2q0-3.9-1.38-5.73t-4.74-1.83a7.92,7.92,0,0,0-5.07,1.59,15.38,15.38,0,0,0-3.57,4.17v18a2.56,2.56,0,0,1-.81,1.92,2.71,2.71,0,0,1-1.95.78,2.66,2.66,0,0,1-2.7-2.7v-16.2q0-3.9-1.38-5.73t-4.74-1.83a7.92,7.92,0,0,0-5.07,1.59,15.38,15.38,0,0,0-3.57,4.17v18a2.56,2.56,0,0,1-.81,1.92,2.71,2.71,0,0,1-1.95.78A2.61,2.61,0,0,1,487.3,192Z"/><path d="M547,191.11a13.46,13.46,0,0,1-5.37-5.61,19.21,19.21,0,0,1,0-16.62,13.46,13.46,0,0,1,5.37-5.61,17.44,17.44,0,0,1,16.14,0,13.65,13.65,0,0,1,5.4,5.61,18.94,18.94,0,0,1,0,16.62,13.65,13.65,0,0,1-5.4,5.61,17.44,17.44,0,0,1-16.14,0ZM559.81,187a9.16,9.16,0,0,0,3.72-3.6,12,12,0,0,0,1.47-6.24,11.88,11.88,0,0,0-1.47-6.18,9,9,0,0,0-3.72-3.57,10.52,10.52,0,0,0-4.71-1.11,10.64,10.64,0,0,0-4.77,1.11,8.78,8.78,0,0,0-3.69,3.57,12.08,12.08,0,0,0-1.44,6.18,12.21,12.21,0,0,0,1.44,6.24,9,9,0,0,0,3.69,3.6,10.41,10.41,0,0,0,4.77,1.14A10.29,10.29,0,0,0,559.81,187Z"/><path d="M585.34,206a23,23,0,0,1-5.82-2.22,2.28,2.28,0,0,1-1.08-2.1,2.46,2.46,0,0,1,.69-1.71,2.23,2.23,0,0,1,1.71-.75,3,3,0,0,1,1.08.24,21.83,21.83,0,0,0,9.9,2.28q9.18,0,9.18-9.78v-4a13.54,13.54,0,0,1-10.26,4.56,14.46,14.46,0,0,1-6.87-1.77,14.3,14.3,0,0,1-5.49-5.28,18,18,0,0,1,0-17.1,14.3,14.3,0,0,1,5.49-5.28,14.46,14.46,0,0,1,6.87-1.77A13.54,13.54,0,0,1,601,165.85v-1.5a2.71,2.71,0,0,1,.78-1.95,2.56,2.56,0,0,1,1.92-.81,2.77,2.77,0,0,1,2.76,2.76v26.82q0,7.56-3.66,11.64t-10.44,4.08A28.4,28.4,0,0,1,585.34,206Zm11.52-19.68a18,18,0,0,0,4.14-3.24V170.71a18,18,0,0,0-4.14-3.24,10.08,10.08,0,0,0-5-1.2,10.19,10.19,0,0,0-7.35,2.73q-2.85,2.73-2.85,7.89t2.85,7.89a10.19,10.19,0,0,0,7.35,2.73A10.08,10.08,0,0,0,596.86,186.31Z"/><path d="M616.33,191.68a3.23,3.23,0,0,1-1-2.37V189a3.38,3.38,0,0,1,3.36-3.36h.6a3.38,3.38,0,0,1,3.36,3.36v.36a3.38,3.38,0,0,1-3.36,3.36h-.6A3.23,3.23,0,0,1,616.33,191.68Z"/><path d="M1114.48,950.1a4.21,4.21,0,0,1-1.41-2L1101.31,912a4.2,4.2,0,0,1-.18-1,2.37,2.37,0,0,1,.69-1.89,2.64,2.64,0,0,1,2-.75,2.54,2.54,0,0,1,1.68.6,3.23,3.23,0,0,1,1,1.56l10.08,33.12,10.14-33a3,3,0,0,1,1.17-1.65,3.33,3.33,0,0,1,3.9,0,3,3,0,0,1,1.17,1.65l10.14,33,10.08-33.12a3.23,3.23,0,0,1,1-1.56,2.54,2.54,0,0,1,1.68-.6,2.64,2.64,0,0,1,2,.75,2.37,2.37,0,0,1,.69,1.89,4.2,4.2,0,0,1-.18,1l-11.76,36.12a4.21,4.21,0,0,1-1.41,2,3.48,3.48,0,0,1-2.13.69,3.54,3.54,0,0,1-2.19-.75,3.73,3.73,0,0,1-1.35-1.95l-9.66-30.6-9.66,30.6a3.73,3.73,0,0,1-1.35,1.95,3.54,3.54,0,0,1-2.19.75A3.48,3.48,0,0,1,1114.48,950.1Z"/><path d="M1164.4,946.92q-4.11-4.17-4.11-11.73a19.56,19.56,0,0,1,1.56-7.86,13.36,13.36,0,0,1,4.8-5.82,13.79,13.79,0,0,1,8-2.22,14,14,0,0,1,7.68,2.07,13.39,13.39,0,0,1,4.92,5.52,17,17,0,0,1,1.68,7.53,2.62,2.62,0,0,1-2.76,2.7h-20.34a9.87,9.87,0,0,0,3.12,6.54q2.64,2.34,7.38,2.34a18,18,0,0,0,4.41-.48,18.32,18.32,0,0,0,3.69-1.38,2.38,2.38,0,0,1,1.08-.24,2.41,2.41,0,0,1,1.68.66,2.18,2.18,0,0,1,.72,1.68,2.59,2.59,0,0,1-1.56,2.22,18.74,18.74,0,0,1-10.5,2.64Q1168.51,951.09,1164.4,946.92Zm19.11-14.25a9.61,9.61,0,0,0-1.53-4.92,8.26,8.26,0,0,0-3.33-2.91,9.15,9.15,0,0,0-8,0,8.06,8.06,0,0,0-3.3,2.91,9.79,9.79,0,0,0-1.5,4.92Z"/><path d="M1217.89,949.17a14.78,14.78,0,0,1-5.85-5.52,17.44,17.44,0,0,1,0-16.92,14.78,14.78,0,0,1,5.85-5.52,16.92,16.92,0,0,1,8-1.92,16.63,16.63,0,0,1,5.49.81,20.74,20.74,0,0,1,4.29,2.07,2.39,2.39,0,0,1,.51,3.75,2.11,2.11,0,0,1-1.59.75,2.74,2.74,0,0,1-1.32-.36,22.85,22.85,0,0,0-3.39-1.47,11.7,11.7,0,0,0-3.51-.45,10.88,10.88,0,0,0-8.1,3,11.9,11.9,0,0,0,0,15.66,10.88,10.88,0,0,0,8.1,3,11.7,11.7,0,0,0,3.51-.45,22.85,22.85,0,0,0,3.39-1.47,2.74,2.74,0,0,1,1.32-.36,2.11,2.11,0,0,1,1.59.75,2.39,2.39,0,0,1-.51,3.75,20.74,20.74,0,0,1-4.29,2.07,16.63,16.63,0,0,1-5.49.81A16.92,16.92,0,0,1,1217.89,949.17Z"/><path d="M1246.6,950a8.52,8.52,0,0,1-3.57-3.15,8.68,8.68,0,0,1-1.32-4.77,8.41,8.41,0,0,1,3.51-7.08q3.51-2.64,10.29-2.64h7.26v-.48q0-4-2-5.7t-6.09-1.74a20.45,20.45,0,0,0-4,.36,34,34,0,0,0-3.93,1.08,3.37,3.37,0,0,1-.78.12,2.13,2.13,0,0,1-1.56-.66,2.2,2.2,0,0,1-.66-1.62,2.31,2.31,0,0,1,1.56-2.28,26.39,26.39,0,0,1,10.38-2.16,13.55,13.55,0,0,1,7,1.68,10.56,10.56,0,0,1,4.2,4.35,12.65,12.65,0,0,1,1.35,5.79v17a2.56,2.56,0,0,1-.81,1.92,2.71,2.71,0,0,1-2,.78,2.66,2.66,0,0,1-2.7-2.7v-1.56a15.07,15.07,0,0,1-11.28,4.56A11.15,11.15,0,0,1,1246.6,950Zm12-5a14.18,14.18,0,0,0,4.14-3.21v-5h-6.54q-9.06,0-9.06,4.74a4.45,4.45,0,0,0,1.47,3.48q1.47,1.32,4.89,1.32A10.85,10.85,0,0,0,1258.63,945Z"/><path d="M1278.19,950a2.61,2.61,0,0,1-.78-1.92V922.35a2.71,2.71,0,0,1,.78-2,2.56,2.56,0,0,1,1.92-.81,2.77,2.77,0,0,1,2.76,2.76v2.46a19.94,19.94,0,0,1,4.92-4,12.42,12.42,0,0,1,6.24-1.5,10.37,10.37,0,0,1,5.73,1.56,10.14,10.14,0,0,1,3.72,4.26,13.6,13.6,0,0,1,1.29,5.94v17A2.56,2.56,0,0,1,1304,950a2.71,2.71,0,0,1-2,.78,2.66,2.66,0,0,1-2.7-2.7V931.65q0-7.32-6.6-7.32a9.55,9.55,0,0,0-5.37,1.56,19.44,19.44,0,0,0-4.47,4.2v18a2.56,2.56,0,0,1-.81,1.92,2.71,2.71,0,0,1-2,.78A2.61,2.61,0,0,1,1278.19,950Z"/><path d="M1328.53,948.39a2.29,2.29,0,0,1-1-2,2.41,2.41,0,0,1,.66-1.68,2.18,2.18,0,0,1,1.68-.72,2.64,2.64,0,0,1,1.08.24,24.25,24.25,0,0,0,3.84,1.32,17.85,17.85,0,0,0,4.32.48q6.66,0,6.66-4.26a2.27,2.27,0,0,0-1.53-2.1,31.33,31.33,0,0,0-5-1.62,45.27,45.27,0,0,1-5.85-1.74,10.29,10.29,0,0,1-4-2.73,6.94,6.94,0,0,1-1.65-4.83,8.65,8.65,0,0,1,3-6.84q3-2.64,8.67-2.64a25,25,0,0,1,8.7,1.5,2.25,2.25,0,0,1,1.29.9,2.41,2.41,0,0,1,.45,1.38,2.35,2.35,0,0,1-.69,1.68,2.27,2.27,0,0,1-1.71.72,3.37,3.37,0,0,1-.78-.12,23,23,0,0,0-6.84-1.08,9.37,9.37,0,0,0-5.07,1.17,3.49,3.49,0,0,0-1.83,3,2.77,2.77,0,0,0,1.68,2.64,24,24,0,0,0,5.22,1.62,50,50,0,0,1,5.76,1.77,9.52,9.52,0,0,1,3.81,2.73,7.41,7.41,0,0,1,1.59,5,7.93,7.93,0,0,1-3,6.36q-3,2.52-8.55,2.52A22.32,22.32,0,0,1,1328.53,948.39Z"/><path d="M1360.6,946.92q-4.11-4.17-4.11-11.73a19.56,19.56,0,0,1,1.56-7.86,13.36,13.36,0,0,1,4.8-5.82,13.79,13.79,0,0,1,8-2.22,14,14,0,0,1,7.68,2.07,13.39,13.39,0,0,1,4.92,5.52,17,17,0,0,1,1.68,7.53,2.62,2.62,0,0,1-2.76,2.7H1362a9.87,9.87,0,0,0,3.12,6.54q2.64,2.34,7.38,2.34a18,18,0,0,0,4.41-.48,18.32,18.32,0,0,0,3.69-1.38,2.38,2.38,0,0,1,1.08-.24,2.41,2.41,0,0,1,1.68.66,2.18,2.18,0,0,1,.72,1.68,2.59,2.59,0,0,1-1.56,2.22,18.74,18.74,0,0,1-10.5,2.64Q1364.71,951.09,1360.6,946.92Zm19.11-14.25a9.61,9.61,0,0,0-1.53-4.92,8.26,8.26,0,0,0-3.33-2.91,9.15,9.15,0,0,0-8,0,8.06,8.06,0,0,0-3.3,2.91,9.79,9.79,0,0,0-1.5,4.92Z"/><path d="M1394.56,946.92q-4.11-4.17-4.11-11.73a19.56,19.56,0,0,1,1.56-7.86,13.36,13.36,0,0,1,4.8-5.82,13.79,13.79,0,0,1,8-2.22,14,14,0,0,1,7.68,2.07,13.39,13.39,0,0,1,4.92,5.52,17,17,0,0,1,1.68,7.53,2.62,2.62,0,0,1-2.76,2.7H1396a9.87,9.87,0,0,0,3.12,6.54q2.64,2.34,7.38,2.34a18,18,0,0,0,4.41-.48,18.32,18.32,0,0,0,3.69-1.38,2.38,2.38,0,0,1,1.08-.24,2.41,2.41,0,0,1,1.68.66,2.18,2.18,0,0,1,.72,1.68,2.59,2.59,0,0,1-1.56,2.22,18.74,18.74,0,0,1-10.5,2.64Q1398.67,951.09,1394.56,946.92Zm19.11-14.25a9.61,9.61,0,0,0-1.53-4.92,8.26,8.26,0,0,0-3.33-2.91,9.15,9.15,0,0,0-8,0,8.06,8.06,0,0,0-3.3,2.91,9.79,9.79,0,0,0-1.5,4.92Z"/><path d="M1448.05,949.17a14.71,14.71,0,0,1-5.85-5.52,17.44,17.44,0,0,1,0-16.92,14.71,14.71,0,0,1,5.85-5.52,16.89,16.89,0,0,1,8-1.92,16.63,16.63,0,0,1,5.49.81,21,21,0,0,1,4.29,2.07,2.39,2.39,0,0,1,.51,3.75,2.12,2.12,0,0,1-1.59.75,2.71,2.71,0,0,1-1.32-.36,22.85,22.85,0,0,0-3.39-1.47,11.7,11.7,0,0,0-3.51-.45q-5.17,0-8.1,3a11.9,11.9,0,0,0,0,15.66q2.92,3,8.1,3a11.7,11.7,0,0,0,3.51-.45,22.85,22.85,0,0,0,3.39-1.47,2.71,2.71,0,0,1,1.32-.36,2.12,2.12,0,0,1,1.59.75,2.39,2.39,0,0,1-.51,3.75,21,21,0,0,1-4.29,2.07,16.63,16.63,0,0,1-5.49.81A16.89,16.89,0,0,1,1448.05,949.17Z"/><path d="M1474.27,912.75a3,3,0,0,1-.91-2.16v-.24a3,3,0,0,1,.91-2.16,2.91,2.91,0,0,1,2.15-.9h.37a2.92,2.92,0,0,1,2.15.9,3,3,0,0,1,.91,2.16v.24a3,3,0,0,1-.91,2.16,2.92,2.92,0,0,1-2.15.9h-.37A2.91,2.91,0,0,1,1474.27,912.75Zm.35,37.26a2.6,2.6,0,0,1-.77-1.92V922.35a2.7,2.7,0,0,1,.77-2,2.56,2.56,0,0,1,1.92-.81,2.68,2.68,0,0,1,2.77,2.76v25.74a2.56,2.56,0,0,1-.81,1.92,2.73,2.73,0,0,1-2,.78A2.61,2.61,0,0,1,1474.62,950Z"/><path d="M1490.58,943.17v-18.6h-4.26a1.13,1.13,0,0,1-1.14-1.14,1.25,1.25,0,0,1,.54-1l8.16-8a1.51,1.51,0,0,1,1-.54,1.06,1.06,0,0,1,.81.36,1.2,1.2,0,0,1,.33.84v4.8h6.78a2.26,2.26,0,0,1,2.34,2.34,2.3,2.3,0,0,1-.66,1.65,2.22,2.22,0,0,1-1.68.69H1496v18.12q0,2.34,1.11,3a5.59,5.59,0,0,0,2.79.63,8.32,8.32,0,0,0,2.4-.36l.51-.12a3.27,3.27,0,0,1,.69-.06,2.11,2.11,0,0,1,1.5.63,2,2,0,0,1,.66,1.53,2.27,2.27,0,0,1-1.38,2.1,11.74,11.74,0,0,1-5,1.08Q1490.58,951.09,1490.58,943.17Z"/><path d="M1512.12,912.75a3,3,0,0,1-.9-2.16v-.24a3.07,3.07,0,0,1,3.06-3.06h.36a3.07,3.07,0,0,1,3.06,3.06v.24a3.07,3.07,0,0,1-3.06,3.06h-.36A3,3,0,0,1,1512.12,912.75Zm.36,37.26a2.61,2.61,0,0,1-.78-1.92V922.35a2.71,2.71,0,0,1,.78-2,2.56,2.56,0,0,1,1.92-.81,2.67,2.67,0,0,1,2.76,2.76v25.74a2.56,2.56,0,0,1-.81,1.92,2.71,2.71,0,0,1-1.95.78A2.61,2.61,0,0,1,1512.48,950Z"/><path d="M1528.89,946.92q-4.11-4.17-4.11-11.73a19.56,19.56,0,0,1,1.56-7.86,13.36,13.36,0,0,1,4.8-5.82,13.79,13.79,0,0,1,8-2.22,14,14,0,0,1,7.68,2.07,13.39,13.39,0,0,1,4.92,5.52,17,17,0,0,1,1.68,7.53,2.62,2.62,0,0,1-2.76,2.7H1530.3a9.87,9.87,0,0,0,3.12,6.54q2.64,2.34,7.38,2.34a18,18,0,0,0,4.41-.48,18.32,18.32,0,0,0,3.69-1.38,2.38,2.38,0,0,1,1.08-.24,2.41,2.41,0,0,1,1.68.66,2.18,2.18,0,0,1,.72,1.68,2.59,2.59,0,0,1-1.56,2.22,18.74,18.74,0,0,1-10.5,2.64Q1533,951.09,1528.89,946.92ZM1548,932.67a9.61,9.61,0,0,0-1.53-4.92,8.26,8.26,0,0,0-3.33-2.91,9.15,9.15,0,0,0-8,0,8.06,8.06,0,0,0-3.3,2.91,9.79,9.79,0,0,0-1.5,4.92Z"/><path d="M1559.58,948.39a2.29,2.29,0,0,1-1-2,2.41,2.41,0,0,1,.66-1.68,2.18,2.18,0,0,1,1.68-.72,2.64,2.64,0,0,1,1.08.24,24.25,24.25,0,0,0,3.84,1.32,17.85,17.85,0,0,0,4.32.48q6.66,0,6.66-4.26a2.27,2.27,0,0,0-1.53-2.1,31.33,31.33,0,0,0-5-1.62,45.27,45.27,0,0,1-5.85-1.74,10.29,10.29,0,0,1-4-2.73,6.94,6.94,0,0,1-1.65-4.83,8.65,8.65,0,0,1,3-6.84q3-2.64,8.67-2.64a25,25,0,0,1,8.7,1.5,2.25,2.25,0,0,1,1.29.9,2.41,2.41,0,0,1,.45,1.38,2.35,2.35,0,0,1-.69,1.68,2.27,2.27,0,0,1-1.71.72,3.37,3.37,0,0,1-.78-.12,23,23,0,0,0-6.84-1.08,9.37,9.37,0,0,0-5.07,1.17,3.49,3.49,0,0,0-1.83,3,2.77,2.77,0,0,0,1.68,2.64,24,24,0,0,0,5.22,1.62,50,50,0,0,1,5.76,1.77,9.52,9.52,0,0,1,3.81,2.73,7.41,7.41,0,0,1,1.59,5,7.93,7.93,0,0,1-3,6.36q-3,2.52-8.55,2.52A22.32,22.32,0,0,1,1559.58,948.39Z"/><path d="M1612,950.07a3.66,3.66,0,0,1-1.32-1.8l-8.52-25a3.23,3.23,0,0,1-.18-1,2.66,2.66,0,0,1,2.7-2.7,2.74,2.74,0,0,1,1.53.45,2.21,2.21,0,0,1,.93,1.17l7,23.1,7-22.56a3.08,3.08,0,0,1,5.88,0l7,22.56,7-23.1a2.21,2.21,0,0,1,.93-1.17,2.74,2.74,0,0,1,1.53-.45,2.66,2.66,0,0,1,2.7,2.7,3.23,3.23,0,0,1-.18,1l-8.52,25a3.66,3.66,0,0,1-1.32,1.8,3.6,3.6,0,0,1-4.32,0,4,4,0,0,1-1.38-1.86L1624,928.35l-6.36,19.86a4,4,0,0,1-1.38,1.86,3.6,3.6,0,0,1-4.32,0Z"/><path d="M1652.94,912.75a3,3,0,0,1-.9-2.16v-.24a3.07,3.07,0,0,1,3.06-3.06h.36a3.07,3.07,0,0,1,3.06,3.06v.24a3.07,3.07,0,0,1-3.06,3.06h-.36A3,3,0,0,1,1652.94,912.75Zm.36,37.26a2.61,2.61,0,0,1-.78-1.92V922.35a2.71,2.71,0,0,1,.78-2,2.56,2.56,0,0,1,1.92-.81,2.67,2.67,0,0,1,2.76,2.76v25.74a2.56,2.56,0,0,1-.81,1.92,2.71,2.71,0,0,1-2,.78A2.61,2.61,0,0,1,1653.3,950Z"/><path d="M1669.26,943.17v-18.6H1665a1.13,1.13,0,0,1-1.14-1.14,1.25,1.25,0,0,1,.54-1l8.16-8a1.51,1.51,0,0,1,1-.54,1.06,1.06,0,0,1,.81.36,1.2,1.2,0,0,1,.33.84v4.8h6.78a2.26,2.26,0,0,1,2.34,2.34,2.3,2.3,0,0,1-.66,1.65,2.22,2.22,0,0,1-1.68.69h-6.78v18.12q0,2.34,1.11,3a5.59,5.59,0,0,0,2.79.63,8.32,8.32,0,0,0,2.4-.36l.51-.12a3.27,3.27,0,0,1,.69-.06,2.11,2.11,0,0,1,1.5.63,2,2,0,0,1,.66,1.53A2.27,2.27,0,0,1,1683,950a11.74,11.74,0,0,1-5,1.08Q1669.26,951.09,1669.26,943.17Z"/><path d="M1691.16,950a2.61,2.61,0,0,1-.78-1.92V909.15a2.71,2.71,0,0,1,.78-1.95,2.56,2.56,0,0,1,1.92-.81,2.77,2.77,0,0,1,2.76,2.76v15.66a19.94,19.94,0,0,1,4.92-4,12.42,12.42,0,0,1,6.24-1.5,10.37,10.37,0,0,1,5.73,1.56,10.14,10.14,0,0,1,3.72,4.26,13.6,13.6,0,0,1,1.29,5.94v17a2.56,2.56,0,0,1-.81,1.92,2.71,2.71,0,0,1-2,.78,2.66,2.66,0,0,1-2.7-2.7V931.65q0-7.32-6.6-7.32a9.55,9.55,0,0,0-5.37,1.56,19.44,19.44,0,0,0-4.47,4.2v18A2.56,2.56,0,0,1,1695,950a2.71,2.71,0,0,1-2,.78A2.61,2.61,0,0,1,1691.16,950Z"/><path d="M1732.32,949.11a13.46,13.46,0,0,1-5.37-5.61,19.21,19.21,0,0,1,0-16.62,13.46,13.46,0,0,1,5.37-5.61,17.44,17.44,0,0,1,16.14,0,13.65,13.65,0,0,1,5.4,5.61,18.94,18.94,0,0,1,0,16.62,13.65,13.65,0,0,1-5.4,5.61,17.44,17.44,0,0,1-16.14,0Zm12.81-4.14a9.16,9.16,0,0,0,3.72-3.6,12,12,0,0,0,1.47-6.24,11.88,11.88,0,0,0-1.47-6.18,9,9,0,0,0-3.72-3.57,10.52,10.52,0,0,0-4.71-1.11,10.64,10.64,0,0,0-4.77,1.11A8.78,8.78,0,0,0,1732,929a12.08,12.08,0,0,0-1.44,6.18,12.21,12.21,0,0,0,1.44,6.24,9,9,0,0,0,3.69,3.6,10.41,10.41,0,0,0,4.77,1.14A10.29,10.29,0,0,0,1745.13,945Z"/><path d="M1768.11,949.53a10.14,10.14,0,0,1-3.72-4.26,13.6,13.6,0,0,1-1.29-5.94v-17a2.56,2.56,0,0,1,.81-1.92,2.71,2.71,0,0,1,1.95-.78,2.66,2.66,0,0,1,2.7,2.7v16.44q0,7.32,6.6,7.32a9.55,9.55,0,0,0,5.37-1.56,19.44,19.44,0,0,0,4.47-4.2v-18a2.56,2.56,0,0,1,.81-1.92,2.71,2.71,0,0,1,2-.78,2.66,2.66,0,0,1,2.7,2.7V948a2.71,2.71,0,0,1-.78,2,2.56,2.56,0,0,1-1.92.81A2.77,2.77,0,0,1,1785,948v-2.46a19.94,19.94,0,0,1-4.92,4,12.42,12.42,0,0,1-6.24,1.5A10.37,10.37,0,0,1,1768.11,949.53Z"/><path d="M1801.74,943.17v-18.6h-4.26a1.13,1.13,0,0,1-1.14-1.14,1.25,1.25,0,0,1,.54-1l8.16-8a1.51,1.51,0,0,1,1-.54,1.06,1.06,0,0,1,.81.36,1.2,1.2,0,0,1,.33.84v4.8H1814a2.26,2.26,0,0,1,2.34,2.34,2.3,2.3,0,0,1-.66,1.65,2.22,2.22,0,0,1-1.68.69h-6.78v18.12q0,2.34,1.11,3a5.59,5.59,0,0,0,2.79.63,8.32,8.32,0,0,0,2.4-.36l.51-.12a3.27,3.27,0,0,1,.69-.06,2.11,2.11,0,0,1,1.5.63,2,2,0,0,1,.66,1.53,2.27,2.27,0,0,1-1.38,2.1,11.74,11.74,0,0,1-5,1.08Q1801.74,951.09,1801.74,943.17Z"/><path d="M1107.1,1022a8.52,8.52,0,0,1-3.57-3.15,8.68,8.68,0,0,1-1.32-4.77,8.41,8.41,0,0,1,3.51-7.08q3.51-2.64,10.29-2.64h7.26v-.48q0-4-2-5.7t-6.09-1.74a20.45,20.45,0,0,0-4,.36,34,34,0,0,0-3.93,1.08,3.37,3.37,0,0,1-.78.12,2.13,2.13,0,0,1-1.56-.66,2.2,2.2,0,0,1-.66-1.62,2.31,2.31,0,0,1,1.56-2.28,26.39,26.39,0,0,1,10.38-2.16,13.55,13.55,0,0,1,7,1.68,10.56,10.56,0,0,1,4.2,4.35,12.65,12.65,0,0,1,1.35,5.79v17a2.56,2.56,0,0,1-.81,1.92,2.71,2.71,0,0,1-2,.78,2.66,2.66,0,0,1-2.7-2.7v-1.56a15.07,15.07,0,0,1-11.28,4.56A11.15,11.15,0,0,1,1107.1,1022Zm12-5a14.18,14.18,0,0,0,4.14-3.21v-5h-6.54q-9.06,0-9.06,4.74a4.45,4.45,0,0,0,1.47,3.48q1.47,1.32,4.89,1.32A10.85,10.85,0,0,0,1119.13,1017Z"/><path d="M1155.31,1015.17v-18.6h-4.26a1.13,1.13,0,0,1-1.14-1.14,1.25,1.25,0,0,1,.54-1l8.16-8a1.51,1.51,0,0,1,1-.54,1.06,1.06,0,0,1,.81.36,1.2,1.2,0,0,1,.33.84v4.8h6.78a2.26,2.26,0,0,1,2.34,2.34,2.3,2.3,0,0,1-.66,1.65,2.22,2.22,0,0,1-1.68.69h-6.78v18.12q0,2.34,1.11,3a5.59,5.59,0,0,0,2.79.63,8.32,8.32,0,0,0,2.4-.36l.51-.12a3.27,3.27,0,0,1,.69-.06,2.11,2.11,0,0,1,1.5.63,2,2,0,0,1,.66,1.53,2.27,2.27,0,0,1-1.38,2.1,11.74,11.74,0,0,1-5,1.08Q1155.31,1023.09,1155.31,1015.17Z"/><path d="M1181.41,1021.11a13.46,13.46,0,0,1-5.37-5.61,19.21,19.21,0,0,1,0-16.62,13.46,13.46,0,0,1,5.37-5.61,17.44,17.44,0,0,1,16.14,0,13.65,13.65,0,0,1,5.4,5.61,18.94,18.94,0,0,1,0,16.62,13.65,13.65,0,0,1-5.4,5.61,17.44,17.44,0,0,1-16.14,0Zm12.81-4.14a9.16,9.16,0,0,0,3.72-3.6,12,12,0,0,0,1.47-6.24,11.88,11.88,0,0,0-1.47-6.18,9,9,0,0,0-3.72-3.57,10.52,10.52,0,0,0-4.71-1.11,10.64,10.64,0,0,0-4.77,1.11,8.78,8.78,0,0,0-3.69,3.57,12.08,12.08,0,0,0-1.44,6.18,12.21,12.21,0,0,0,1.44,6.24,9,9,0,0,0,3.69,3.6,10.41,10.41,0,0,0,4.77,1.14A10.29,10.29,0,0,0,1194.22,1017Z"/><path d="M1210.72,1022a2.85,2.85,0,0,1-.69-2,2.7,2.7,0,0,1,.6-1.68l9.3-11-9.3-11.34a2.79,2.79,0,0,1-.66-1.74,2.58,2.58,0,0,1,.78-1.95,2.66,2.66,0,0,1,1.92-.75,2.47,2.47,0,0,1,2.16,1l8.4,10.38,8.34-10.38a2.41,2.41,0,0,1,2.1-1,2.74,2.74,0,0,1,2,.75,2.44,2.44,0,0,1,.78,1.83,2.7,2.7,0,0,1-.6,1.68l-9.48,11.16,9.36,11.28a2.48,2.48,0,0,1,.66,1.74,2.83,2.83,0,0,1-.72,2,2.59,2.59,0,0,1-2,.81,2.46,2.46,0,0,1-2.1-1.08l-8.52-10.2-8,10.08a2.8,2.8,0,0,1-2.34,1.2A2.44,2.44,0,0,1,1210.72,1022Z"/><path d="M1244.59,984.75a3,3,0,0,1-.9-2.16v-.24a3.07,3.07,0,0,1,3.06-3.06h.36a3.07,3.07,0,0,1,3.06,3.06v.24a3.07,3.07,0,0,1-3.06,3.06h-.36A3,3,0,0,1,1244.59,984.75ZM1245,1022a2.61,2.61,0,0,1-.78-1.92V994.35a2.71,2.71,0,0,1,.78-2,2.56,2.56,0,0,1,1.92-.81,2.67,2.67,0,0,1,2.76,2.76v25.74a2.56,2.56,0,0,1-.81,1.92,2.71,2.71,0,0,1-2,.78A2.61,2.61,0,0,1,1245,1022Z"/><path d="M1265.29,1021.17a14.78,14.78,0,0,1-5.85-5.52,17.44,17.44,0,0,1,0-16.92,14.78,14.78,0,0,1,5.85-5.52,16.92,16.92,0,0,1,8-1.92,16.63,16.63,0,0,1,5.49.81,20.74,20.74,0,0,1,4.29,2.07,2.39,2.39,0,0,1,.51,3.75,2.11,2.11,0,0,1-1.59.75,2.74,2.74,0,0,1-1.32-.36,22.85,22.85,0,0,0-3.39-1.47,11.7,11.7,0,0,0-3.51-.45,10.88,10.88,0,0,0-8.1,3,11.9,11.9,0,0,0,0,15.66,10.88,10.88,0,0,0,8.1,3,11.7,11.7,0,0,0,3.51-.45,22.85,22.85,0,0,0,3.39-1.47,2.74,2.74,0,0,1,1.32-.36,2.11,2.11,0,0,1,1.59.75,2.39,2.39,0,0,1-.51,3.75,20.74,20.74,0,0,1-4.29,2.07,16.63,16.63,0,0,1-5.49.81A16.92,16.92,0,0,1,1265.29,1021.17Z"/><path d="M1309.75,1022a2.61,2.61,0,0,1-.78-1.92V996.57h-3.54a2.36,2.36,0,0,1-2.34-2.34,2.22,2.22,0,0,1,.69-1.68,2.3,2.3,0,0,1,1.65-.66H1309v-3.48a12,12,0,0,1,1.29-5.91,8,8,0,0,1,3.36-3.36,9.49,9.49,0,0,1,4.35-1,11.51,11.51,0,0,1,5.22,1.2,2.59,2.59,0,0,1,1,.87,2.14,2.14,0,0,1,.39,1.23,2.23,2.23,0,0,1-.66,1.59,2.09,2.09,0,0,1-1.56.69,5.69,5.69,0,0,1-1.38-.18q-1.44-.18-1.62-.18a5.26,5.26,0,0,0-3.69,1.14q-1.23,1.14-1.23,4.14v3.3h7.5a2.26,2.26,0,0,1,2.34,2.34,2.3,2.3,0,0,1-.66,1.65,2.22,2.22,0,0,1-1.68.69h-7.5v23.52a2.56,2.56,0,0,1-.81,1.92,2.71,2.71,0,0,1-1.95.78A2.61,2.61,0,0,1,1309.75,1022Z"/><path d="M1333.27,1021.11a13.46,13.46,0,0,1-5.37-5.61,19.21,19.21,0,0,1,0-16.62,13.46,13.46,0,0,1,5.37-5.61,17.44,17.44,0,0,1,16.14,0,13.65,13.65,0,0,1,5.4,5.61,18.94,18.94,0,0,1,0,16.62,13.65,13.65,0,0,1-5.4,5.61,17.44,17.44,0,0,1-16.14,0Zm12.81-4.14a9.16,9.16,0,0,0,3.72-3.6,12,12,0,0,0,1.47-6.24,11.88,11.88,0,0,0-1.47-6.18,9,9,0,0,0-3.72-3.57,10.52,10.52,0,0,0-4.71-1.11,10.64,10.64,0,0,0-4.77,1.11,8.78,8.78,0,0,0-3.69,3.57,12.08,12.08,0,0,0-1.44,6.18,12.21,12.21,0,0,0,1.44,6.24,9,9,0,0,0,3.69,3.6,10.41,10.41,0,0,0,4.77,1.14A10.29,10.29,0,0,0,1346.08,1017Z"/><path d="M1371.61,1036a23,23,0,0,1-5.82-2.22,2.28,2.28,0,0,1-1.08-2.1,2.46,2.46,0,0,1,.69-1.71,2.23,2.23,0,0,1,1.71-.75,3,3,0,0,1,1.08.24,21.83,21.83,0,0,0,9.9,2.28q9.18,0,9.18-9.78v-4a13.54,13.54,0,0,1-10.26,4.56,14.46,14.46,0,0,1-6.87-1.77,14.3,14.3,0,0,1-5.49-5.28,18,18,0,0,1,0-17.1,14.3,14.3,0,0,1,5.49-5.28,14.46,14.46,0,0,1,6.87-1.77,13.54,13.54,0,0,1,10.26,4.56v-1.5a2.71,2.71,0,0,1,.78-2,2.56,2.56,0,0,1,1.92-.81,2.77,2.77,0,0,1,2.76,2.76v26.82q0,7.56-3.66,11.64t-10.44,4.08A28.4,28.4,0,0,1,1371.61,1036Zm11.52-19.68a18,18,0,0,0,4.14-3.24v-12.36a18,18,0,0,0-4.14-3.24,10.08,10.08,0,0,0-5-1.2,10.19,10.19,0,0,0-7.35,2.73q-2.85,2.73-2.85,7.89t2.85,7.89a10.19,10.19,0,0,0,7.35,2.73A10.08,10.08,0,0,0,1383.13,1016.31Z"/><path d="M1402.6,1021.68a3.23,3.23,0,0,1-1-2.37V1019a3.38,3.38,0,0,1,3.36-3.36h.6a3.38,3.38,0,0,1,3.36,3.36v.36a3.38,3.38,0,0,1-3.36,3.36h-.6A3.23,3.23,0,0,1,1402.6,1021.68Z"/><path class="cls-4" d="M300.53,712.86c-.34-1.48-.69-3-1-4.43.13.77.29,1.54.46,2.32ZM497.29,946.27l-3.19-.63a95.76,95.76,0,0,1-13.56-4.19c-3-1.08-6-2.28-9-3.43-1.2-.46-2.37-1-3.56-1.54-3.12-1.36-6.49-2.63-9.46-4.26-4.41-2.42-8.76-4.78-13-7.55-2.63-1.74-5.36-3.38-7.87-5.28l-.84.26a46.11,46.11,0,0,1-20.78,1.45c-3.26-.54-6.46-1.15-9.66-1.82-3.49-.41-7-.73-10.43-1.45a80.06,80.06,0,0,1-13.2-3.93,213.08,213.08,0,0,1-21-9.69q-7.92-4.17-15.71-8.56c-5-2.81-9.81-6-14.62-9.22-5.1-2.85-10.33-5.42-15.55-8.06-6.42-3.23-12.6-6.71-18.73-10.47-7.59-4.66-15-9.6-22.5-14.47-1.43-.93-2.79-2-4.13-3.06a124.66,124.66,0,0,1-10-8.62c-1.56-1.5-3-3.13-4.47-4.71q-3.53-3.78-7-7.58c-4.89-5.06-9.87-10.07-14.5-15.37-6.85-7.86-11.53-17.07-16.29-26.24-1.44-2.76-2.81-5.55-4.28-8.3-2.73-5.12-5.7-10.21-7.89-15.59-1.6-3.94-3.13-7.93-4.42-12a110.88,110.88,0,0,1-3-12.85c-.38-2-.55-4.1-.82-6.13-.47-3.52-.76-7-1-10.59-.11-1.72-.32-3.46-.33-5.18,0-9.56-.09-19.24,1.16-28.73,1-7.42,2.16-14.81,3.19-22.22.94-6.78,1.34-13.61,2.12-20.4.88-7.6,2-15.13,3.27-22.67,1.41-8.44,2.8-16.93,4.72-25.27,1.7-7.39,3.63-14.69,5.79-22,2.07-7,4.24-14,6.17-21.09,1.88-6.91,3.28-13.94,4.75-20.95,1.59-7.5,3.13-15,4.7-22.51a207.81,207.81,0,0,1,8.56-29.64c2.3-6.23,5.12-12.24,8-18.25,2-4.21,4.11-8.38,6.44-12.42,3.7-6.41,7.39-12.83,11.21-19.18,7.3-12.15,14.87-24.16,22-36.43q5.88-10.18,11.67-20.41c4.39-7.75,9.15-15.25,14-22.74a86.52,86.52,0,0,1,5.57-7.63c3.5-4.34,7-8.69,10.57-13s7.13-8.49,10.68-12.73c9.27-11.75,18-24.1,28.68-34.6,3.76-3.7,7.67-7.11,11.74-10.46,2.59-2.13,5.39-4,8.11-6a190,190,0,0,1,20.95-13.65l.43-.24h0l1.66-.9.14-.07,5.28-2.85-2.15,1.16.32-.18,2.65-1.42,2.43-1.31a78.49,78.49,0,0,1,9.19-4.07c4.93-1.9,9.85-3.79,14.9-5.35,6.86-2.13,13.7-4.4,20.65-6.24,5.49-1.46,11-2.82,16.56-4,3.67-.78,7.35-1.24,11.08-1.72,10.33-1.33,20.7-.67,31,.49,7.21.81,14.42,1.77,21.6,2.81,8.22,1.19,16.31,2.94,24.42,4.7,7.18,1.56,14.36,3.1,21.5,4.85,3.53.86,7,1.87,10.5,2.9,4,1.19,8.11,2.36,12,3.93,10.69,4.27,19.06,14.1,19.48,25.92A28.21,28.21,0,0,1,624,295.16c-3.79,4-7.74,7.88-11.58,11.85-2.24,2.31-4.49,4.59-6.56,7.05a92.42,92.42,0,0,1-8.81,8.78c-9.59,8.67-19.51,17-29.22,25.48-5.61,5.41-11.17,10.9-16.43,16.66-6,6.56-11.75,13.34-17.46,20.17L527,393.51c-4.35,5.45-8.56,11-12.75,16.57-3.49,4.66-6.75,9.46-10,14.31-4.23,7.07-8.37,14.17-12.55,21.26-4.34,7.34-9,14.48-13.63,21.65-2.23,3.8-4.45,7.58-6.53,11.46-1.75,3.26-3.4,6.55-5,9.86a132.85,132.85,0,0,0-5.05,12.83c.56-1.78,1.11-3.55,1.66-5.33l-2.64,8.48c-.82,2.74-1.48,5.54-2.28,8.29-1.52,5.22-3,10.43-4.77,15.57-2.27,6.69-4.8,13.3-7.19,19.95-.7,2.33-1.37,4.68-1.95,7.05-1.08,4.41-2,8.83-3,13.27-1.46,7-2.78,14-4.12,21-.49,3.34-.94,6.66-1.27,10-.38,3.87-.61,7.75-.84,11.64-.06,3-.1,5.91,0,8.87.12,4.11.38,8.18.7,12.27q1,8.42,2,16.82c.8,6.55,2.1,13,3.36,19.49,2.21,11.34,4.22,22.71,6.67,34,4.24,15.1,8.84,30.11,14,44.93,5.9,14.88,12.18,29.62,19.41,43.91,6.63,11.27,14,22.1,19.88,33.81l2.51,5c.5,1,1.1,2,1.5,3q2.84,7.39,5.67,14.82a36.87,36.87,0,0,1,1,4c.92,3.55,1.82,7.09,2.62,10.68.4,1.76.79,3.53,1.19,5.29,2,7.82,4.27,15.52,7,23.15q2.56,7.13,4.89,14.31a86.14,86.14,0,0,1,2.17,9.86,30.69,30.69,0,0,1-.33,11.5c-.11.68-.23,1.36-.35,2-1.24,7.23-8,14.23-15,16l-2.43.62a29.67,29.67,0,0,1-10.44,1C499.87,946.8,498.54,946.52,497.29,946.27Z"/><path d="M495,934c-3.36-.43-6.72-.87-10.06-1.42l-6.33-1c-2.06-.34-4.1-.85-6.13-1.3-3.31-.72-6.57-1.62-9.83-2.52-5.32-1.46-10.69-2.76-16-4.27s-10.76-3-16.09-4.67l-1-.32-2.08-.65-.42-.14-.73-.22-.74-.23-.75-.23.23.07-1.8-.56a1.61,1.61,0,0,1-.29-.09l-.7-.21a3.68,3.68,0,0,1-.47-.15l-.88-.29-2.9-1-5.87-2.09c-1.79-.63-3.55-1.38-5.32-2.07l-4.19-1.65c-7.05-2.84-14.11-5.66-21-8.91l-6.49-3.07c-1.19-.57-2.34-1.22-3.51-1.85-3.13-1.69-6.28-3.36-9.35-5.15s-6.44-3.71-9.61-5.64l-10.72-6.52c-6.48-4-12.91-8-19.35-12-1.41-.87-2.77-1.82-4.15-2.74l-5.13-3.42c-1-.68-2-1.45-3-2.19s-2-1.49-2.94-2.24c-1.82-1.42-3.6-2.91-5.36-4.41-1.92-1.64-3.77-3.38-5.6-5.12-1.09-1-2.18-2.07-3.23-3.14q-8.6-8.78-17.1-17.62c-2.66-2.76-5.29-5.55-7.94-8.33s-5.14-5.71-7.69-8.58c-.91-1-1.73-2.12-2.57-3.2-1.24-1.58-2.57-3.13-3.71-4.79l-6.95-10.17c-.55-.82-1.06-1.68-1.59-2.51l-4.33-6.87L238,775.2c-.62-1-1.18-2-1.76-3-1.9-3.37-3.84-6.71-5.6-10.14-1.12-2.17-2.23-4.35-3.34-6.52-1.77-3.44-3.34-7-4.77-10.57a87.65,87.65,0,0,1-4-12.75c-.63-2.69-1.16-5.39-1.65-8.11q-1-5.51-2-11c-.64-3.56-1.27-7.12-2-10.67-.45-2.28-.89-4.56-1.34-6.85-.29-1.51-.51-3-.76-4.54-.32-2-.71-3.94-.91-5.93l-.63-6.15c-.14-1.45-.37-2.91-.42-4.36-.1-2.38-.19-4.76-.29-7.15-.05-1.39-.16-2.78-.16-4.17l0-6.7c0-3.34,0-6.69.1-10q.07-3.86.16-7.71c0-1.39,0-2.78.1-4.17l.63-13.39c.05-.92.14-1.83.24-2.75l.84-8c.17-1.56.28-3.15.54-4.7l.87-5c.42-2.41.83-4.81,1.25-7.21.18-1,.36-2,.6-2.94q1.63-6.64,3.28-13.29c.25-1,.6-2,.91-3,.81-2.54,1.61-5.09,2.42-7.64q1.31-4.15,2.65-8.3,3.66-11.28,7.34-22.56l3.69-11.31c.79-2.43,1.67-4.84,2.51-7.26s1.72-4.82,2.62-7.21c1.94-5.11,4.18-10.09,6.54-15,1.16-2.41,2.34-4.81,3.66-7.15l3.6-6.4,3.63-6.44c.49-.85.95-1.72,1.46-2.56,3.76-6.26,7.47-12.55,11.31-18.76l7.9-12.77c1.55-2.51,3.17-5,4.8-7.42q2.07-3.15,4.16-6.29c.56-.86,1.12-1.73,1.71-2.56l8.3-11.7c4.12-5.8,8.4-11.49,12.63-17.21l12.13-16.44,8.64-11.74c1.92-2.62,3.94-5.16,5.92-7.73q2.16-2.81,4.31-5.62c1.52-2,3.11-3.88,4.7-5.79q4.85-5.82,10.08-11.31c3.57-3.73,7.31-7.28,11.15-10.74s8.09-6.79,12.24-10.05c1.36-1.08,2.75-2.12,4.14-3.17l11-8.35c2.81-2.12,5.66-4.19,8.49-6.29,2.5-1.85,5-3.75,7.53-5.52l11.38-7.83c.87-.6,1.79-1.15,2.68-1.71l7-4.43c2.93-1.85,5.92-3.56,8.92-5.3l5.17-3c1.18-.68,2.43-1.26,3.65-1.88l6.62-3.38c1-.51,2-1,3-1.44l6.77-2.95c1.41-.62,2.8-1.28,4.24-1.83l12-4.57c.92-.35,1.84-.66,2.76-1l7.67-2.56c3.44-1.15,6.93-2.1,10.42-3.09s7-1.74,10.57-2.54c1.41-.32,2.85-.49,4.28-.71,1.63-.26,3.27-.61,4.92-.75l6.55-.54c1.54-.13,3.06-.15,4.6-.18,1.74,0,3.49-.12,5.23-.09l6.89.1c3.41,0,6.81.2,10.21.32,2,.07,4,.29,6,.44,1.72.12,3.42.3,5.14.48,3.55.39,7.11.81,10.65,1.28,1.84.25,3.67.51,5.5.8,1.26.2,2.5.45,3.75.73a11.88,11.88,0,0,1,1.66.53,2.31,2.31,0,0,1,.53.38.76.76,0,0,1-.22,1.33,3.06,3.06,0,0,1-.51.1l-.29,0a.71.71,0,0,1-.79-.49c-.26-.06-.53-.1-.79-.14l.12,0c-2.85-.45-5.72-.69-8.59-.94l-7.47-.64-3.14-.24c-1.27-.09-2.54-.22-3.8-.28l-8-.33c-4.1,0-8.2,0-12.3,0-1.83,0-3.66,0-5.48.14-2.45.12-4.89.25-7.34.39l-8,1c-.31,0-.62.12-.93.18l-2.8.55-4.23.83L505.35,252c-.78.21-1.54.48-2.31.72l-5.38,1.71c-4.8,1.52-9.51,3.31-14.25,5l-10.06,4.07c-.92.37-1.87.71-2.78,1.13l-4.84,2.24c-2.71,1.25-5.47,2.42-8.09,3.83L447.87,276l-10,6.09c-2.82,1.72-5.54,3.57-8.29,5.39l-4.85,3.2c-.94.62-1.84,1.31-2.76,2l-9.59,6.87c-5.11,3.92-10.25,7.79-15.32,11.75-9.14,7.15-18.44,14.15-26.95,22.05a211.12,211.12,0,0,0-16.93,17.95l.05-.05c-1.95,2.34-3.92,4.7-5.75,7.14l-4.1,5.46c-2.11,2.82-4.28,5.6-6.33,8.46q-6.58,9.17-13.18,18.31-7.17,9.93-14.36,19.85c-1.73,2.38-3.47,4.75-5.16,7.17q-4.21,6-8.42,12.05c-1.26,1.81-2.44,3.68-3.64,5.53q-2.64,4.06-5.3,8.13L278,457.91c-2.47,4-4.86,8.13-7.29,12.2l-4.14,6.95c-.88,1.47-1.68,3-2.51,4.49l-5.22,9.39c-.5.89-1,1.79-1.49,2.69s-.84,1.65-1.25,2.48c-.91,1.81-1.78,3.65-2.64,5.49q-3.48,7.66-6.31,15.6c-1.37,3.83-2.71,7.69-3.94,11.57l-4.68,14.74q-3.42,10.75-6.81,21.53-2.18,7.15-4.37,14.31c-.16.54-.26,1.11-.39,1.66l-1.23,5.15c-.63,2.68-1.27,5.35-1.9,8l-1.74,10.64c-.17,1-.38,2-.48,3.06l-.6,6.22c-.21,2.21-.42,4.41-.64,6.62-.09,1-.11,1.93-.15,2.9q-.24,5.85-.47,11.69c-.09,6.07-.21,12.14-.19,18.21q0,3.53,0,7.05c0,1,0,1.92,0,2.88q.26,5.41.5,10.82c.25,2.25.49,4.51.73,6.76l.3,2.82c.1.86.3,1.73.44,2.59.37,2.22.69,4.45,1.13,6.65.57,2.85,1.13,5.69,1.7,8.54.87,4.37,1.64,8.75,2.44,13.13.9,5,1.74,10,2.89,14.91a97.1,97.1,0,0,0,3.05,9.83,129.61,129.61,0,0,0,5.49,12.06L242,758.8l5.34,9.42c.41.72.88,1.42,1.33,2.13q2,3.07,3.89,6.16c1.59,2.51,3.12,5.09,4.8,7.54l6.41,9.36,2.7,3.44c.85,1.08,1.66,2.22,2.58,3.26l6.63,7.45q7.5,7.85,15,15.67c2.32,2.41,4.66,4.79,7,7.18,1.32,1.34,2.63,2.69,3.95,4,1.49,1.51,3.07,2.95,4.62,4.4,1.72,1.62,3.5,3.17,5.32,4.7,3.38,2.76,6.85,5.4,10.48,7.82l6.47,4.31q15.07,9.39,30.26,18.61c2.66,1.62,5.38,3.15,8.08,4.73q3.15,1.85,6.37,3.58l5.39,2.91c.69.38,1.37.75,2.08,1.08l8.46,4c2.79,1.2,5.56,2.47,8.38,3.61l9.94,4c2.92,1.17,5.88,2.3,8.82,3.45,1.52.59,3.08,1.09,4.62,1.64l4.56,1.62,1,.31c.23.06.45.14.68.21L429,906l1.33.41a5.58,5.58,0,0,1,.58.18l1.73.54.42.13c1.89.59,3.8,1.13,5.7,1.69,3.52,1,7.06,2,10.59,3s7.05,1.89,10.57,2.81c3.35.88,6.68,1.83,10,2.69,1.59.4,3.17.84,4.77,1.19l5.6,1.23,6.49,1.06c2.24.37,4.49.64,6.74,1s4.25.55,6.37.82c.94.12,1.88.19,2.81.28s2.1.24,3.15.31q6.64.43,13.28.89l1.75.13c-.45-.62-.89-1.25-1.34-1.88-1.12-1.6-2.09-3.33-3.1-5s-1.85-3.16-2.8-4.71c-2.14-3.52-4.24-7.08-6.51-10.52-1.19-1.81-2.35-3.67-3.59-5.45L500,891.69q-3.31-4.55-6.68-9c-2.1-2.78-4.19-5.57-6.24-8.38-.93-1.3-1.91-2.57-2.79-3.9q-1.9-2.83-3.79-5.68c-1-1.53-1.94-3.14-2.91-4.7-.83-1.35-1.65-2.7-2.44-4.08Q472,850.54,469,845.11c-.7-1.23-1.43-2.45-2.17-3.66-1-1.61-1.93-3.26-3-4.82q-3.44-5.08-6.86-10.18c-.84-1.25-1.62-2.51-2.4-3.8-1-1.58-1.95-3.15-2.81-4.79l-3-5.64c-.25-.48-.46-1-.68-1.49l-1.8-4c-.61-1.32-1.16-2.66-1.72-4-.74-1.79-1.51-3.58-2.19-5.39-1.31-3.48-2.63-6.93-3.82-10.45-.66-1.94-1.31-3.88-2-5.83-.59-1.75-1.09-3.55-1.63-5.32-1.13-3.68-2.17-7.39-3.22-11.1s-1.92-7.32-2.86-11c-.37-1.47-.68-3-1-4.44-.39-1.78-.84-3.56-1.17-5.34-.39-2.09-.77-4.17-1.16-6.25-.29-1.56-.63-3.12-.87-4.68q-.47-3.15-.94-6.29c-.29-2-.65-3.94-.85-5.92l-1.11-11.13c-.05-.52,0-1-.07-1.58l-.15-3.58q-.13-3.24-.28-6.46c-.07-1.63,0-3.27,0-4.9,0-1.86,0-3.72,0-5.57L421,675.46c-.06-3.84-.21-7.68-.31-11.52-.1-3.54-.34-7.07-.51-10.61s-.57-6.79-.68-10.2L419,629.92c0-1.14,0-2.29.08-3.43.07-2.77.13-5.54.2-8.31,0-1.36,0-2.75.1-4.11q.29-2.9.55-5.81c.21-2.3.43-4.59.64-6.89.11-1.23.34-2.43.54-3.65q.66-3.75,1.29-7.52c.23-1.31.39-2.65.71-4l3-12c.33-1.32.71-2.63,1.07-3.94l2.12-7.88c.87-3.2,1.63-6.42,2.42-9.64,1.9-7.68,3.87-15.35,5.84-23,.27-1,.62-2,.94-3q1.25-3.87,2.48-7.74c.38-1.15.68-2.34,1.13-3.47l2.34-5.87c1.28-3.21,2.53-6.43,3.86-9.62,1.53-3.64,3.09-7.26,4.57-10.91q4.55-11.23,9.06-22.47,2-5,4-10c1.28-3.16,2.68-6.25,4.07-9.36.85-1.88,1.69-3.75,2.53-5.63.55-1.22,1.19-2.39,1.82-3.58,1.22-2.29,2.43-4.59,3.65-6.89.59-1.12,1.14-2.28,1.8-3.37l6.85-11.33c1.95-3.22,4-6.39,6-9.58,3.79-6,7.42-12.1,11-18.21q2.58-4.4,5.19-8.76c1.92-3.2,3.76-6.47,5.81-9.6l3.78-5.81,1.9-2.9c.28-.43.54-.88.85-1.3l3.72-5.05c.9-1.21,1.77-2.43,2.71-3.61,4.88-6.08,9.8-12.13,14.64-18.24s9.57-12.07,14.33-18.13c2.31-2.94,4.53-6,6.87-8.88l4.93-6.14c1.37-1.71,2.9-3.29,4.37-4.91L575,293c.49-.54,1-1,1.57-1.55l4.76-4.67c1.78-1.74,3.55-3.48,5.29-5.25,1.32-1.35,2.54-2.8,3.76-4.24,1.29-1.7,2.58-3.39,3.85-5.1s2.66-3.49,4.11-5.12,3-3.39,4.73-4.94a68.41,68.41,0,0,1,5.22-4.56,5.21,5.21,0,0,1,3-1.13,5,5,0,0,1,3.83,8.46c-1.13,1.09-2.3,2.14-3.47,3.19s-2.14,2.07-3.18,3.14-2.06,2.26-3.07,3.42-1.88,2.4-2.78,3.64q-1.67,2.28-3.34,4.55c-1,1.37-2.13,2.65-3.21,4s-2.5,2.76-3.78,4.11-2.7,2.72-4,4.07l-3.84,3.87c-2.46,2.49-4.74,5.15-7.07,7.76-2.05,2.6-4.13,5.18-6.13,7.82-2.36,3.11-4.71,6.21-7.1,9.29-4.77,6.14-9.57,12.25-14.34,18.39-4.44,5.68-8.94,11.32-13.4,17-1.16,1.48-2.22,3.06-3.33,4.58-.92,1.27-1.9,2.51-2.75,3.83q-3.13,4.86-6.26,9.73c-3.26,5.49-6.54,11-9.75,16.49-1.5,2.56-3,5.13-4.5,7.67-1.92,3.17-3.79,6.37-5.75,9.51l-6.15,9.81c-1.68,2.68-3.28,5.41-4.92,8.12l-2.8,4.64c-.46.77-.85,1.58-1.27,2.37l-5.47,10.35-4.79,10.7c-1.46,3.26-2.73,6.6-4.07,9.91-2.58,6.36-5.11,12.74-7.68,19.1-1.33,3.27-2.64,6.55-4,9.8-1.47,3.53-3,7-4.43,10.6L453.38,519c-.34.86-.62,1.74-.91,2.63-.83,2.58-1.66,5.15-2.48,7.73-.3.91-.59,1.82-.88,2.73-1.38,5.36-2.8,10.7-4.13,16.07-1.44,5.82-2.8,11.67-4.36,17.46q-1.47,5.48-2.95,10.94c-.73,2.71-1.36,5.45-2,8.17l-1.11,4.45c-.21.85-.31,1.74-.45,2.6l-1.68,9.79q-.63,6.81-1.27,13.63-.15,6-.28,11.91c0,1-.07,1.89,0,2.84.08,2.46.17,4.91.25,7.38.06,1.94.13,3.88.19,5.82.07,1.77.24,3.53.36,5.29.28,4,.48,8,.67,11.95.36,7.44.46,14.89.57,22.34,0,3.75.08,7.51.11,11.27,0,1.31,0,2.63.05,4,.1,2.46.21,4.93.31,7.39.06,1.22.11,2.44.16,3.66,0,.77.14,1.55.22,2.32.27,2.76.55,5.52.82,8.29.74,4.94,1.42,9.89,2.33,14.79q.48,2.54.94,5.07c.17.9.31,1.81.51,2.71q.87,4,1.73,7.93c.85,3.36,1.66,6.74,2.59,10.08,1.08,3.84,2.14,7.68,3.31,11.49.6,2,1.19,3.93,1.79,5.89s1.33,3.92,2,5.88c1.16,3.45,2.45,6.85,3.73,10.25.72,1.77,1.45,3.55,2.18,5.32.64,1.54,1.32,3.05,2,4.56s1.25,2.89,2,4.28l2.71,5.16c1.29,2.15,2.52,4.35,3.92,6.43l4.84,7.25,2.66,4c.78,1.15,1.46,2.38,2.18,3.56,1.54,2.52,3,5.07,4.45,7.64s2.84,5,4.26,7.44,2.95,5,4.46,7.45,3.08,4.82,4.66,7.21c1.33,2,2.78,4,4.18,5.92,2.84,3.85,5.73,7.67,8.5,11.57,3,4.18,5.86,8.37,8.62,12.68s5.27,8.56,7.82,12.9c1.12,1.9,2.18,3.82,3.27,5.73.6,1,1.19,2.08,1.81,3.11s1.17,1.83,1.78,2.74c1,1.35,2,2.68,3.08,4,1.46,1.83,3.22,3.61,3.93,5.9a5.8,5.8,0,0,1-3.1,6.78,10.53,10.53,0,0,1-3.55.75c-.88.07-1.77.12-2.65.17a91.5,91.5,0,0,1-10.47-.35l-10.51-.71c-1.55-.11-3.09-.24-4.64-.39C499.54,934.54,497.26,934.26,495,934Z"/><path d="M314.74,493.72a73,73,0,0,1-13.27-1.33c-.88-.18-1.76-.37-2.62-.63a13.28,13.28,0,0,1-3-1.31,8.15,8.15,0,0,1-3.55-4.27,5.18,5.18,0,0,1,0-3.89,5,5,0,0,1,9.18-.09l.16.09c.2.1.41.18.62.26,1.35.42,2.72.77,4.11,1.06a64.62,64.62,0,0,0,7.08.9,97.93,97.93,0,0,0,11.62,0,54.31,54.31,0,0,0,6.47-.86c1.86-.4,3.69-.94,5.51-1.51a87.11,87.11,0,0,0,8.41-3.35c.23-.12.45-.25.67-.38s.67-.49,1-.75l.1-.1c.16-.19.31-.39.46-.59l.18-.31.05-.1-.37-.59c-1-1.43-2.05-2.78-3.15-4.12a101,101,0,0,0-7.14-7.2c-1.21-1-2.45-2-3.74-2.93-.9-.58-1.81-1.12-2.75-1.62s-1.82-.82-2.76-1.17c-1.13-.37-2.28-.68-3.44-.94a32.91,32.91,0,0,0-3.27-.44c-1.33-.06-2.64,0-4,0a50,50,0,0,0-5.73.79l.45-.09A93.16,93.16,0,0,0,302,460.6c-.43.16-.85.33-1.27.52s-.73.42-1.09.65a10.57,10.57,0,0,0-.83.67l.24-.21c-.24.22-.47.44-.69.68s-.45.56-.67.84a2,2,0,0,0,.16-.24,6.9,6.9,0,0,0-.43.67,1.65,1.65,0,0,1,.12.85,1.63,1.63,0,0,1-1.92,1.36,2.12,2.12,0,0,1-.82-.08A1.89,1.89,0,0,1,293.5,465a4.44,4.44,0,0,1-.15-1.7,8.26,8.26,0,0,1,.93-2.63,13.91,13.91,0,0,1,3.51-4.23,14.71,14.71,0,0,1,2.42-1.49,22.49,22.49,0,0,1,3.37-1.38l2.92-.95a64.21,64.21,0,0,1,7.36-1.93,37.49,37.49,0,0,1,15.43-.12,32.51,32.51,0,0,1,6.92,2.37,41.17,41.17,0,0,1,6.39,3.95c2.41,1.76,4.61,3.79,6.84,5.76,2.61,2.31,5.05,4.78,7.59,7.16a8,8,0,0,1,2.24,2.81,7.85,7.85,0,0,1-.34,6.19,13.91,13.91,0,0,1-3.56,4.51,19.1,19.1,0,0,1-5,3.11c-2.15,1-4.43,1.63-6.66,2.39l-4.13,1.43.53-.18A61.62,61.62,0,0,1,328.21,493a88.38,88.38,0,0,1-12.17.75Z"/><path d="M327.6,479a5.67,5.67,0,0,1-.67-1.23,3.3,3.3,0,0,1-1.06-2.51,3.75,3.75,0,0,1,1.45-2.8,3.21,3.21,0,0,1,.24-.45,7,7,0,0,1,1.51-1.84,6.16,6.16,0,0,1,2.62-1.42,12.66,12.66,0,0,1,1.37-.24,7.94,7.94,0,0,1,1.29,0,6,6,0,0,1,5.26,5.34,5.13,5.13,0,0,1-.39,2.51,7.57,7.57,0,0,1-1.51,2.16,7.18,7.18,0,0,1-2.25,1.53c-.45.22-.89.44-1.35.62a7.21,7.21,0,0,1-1.77.4,4.3,4.3,0,0,1-.62,0A5,5,0,0,1,327.6,479Z"/><path d="M400.4,502.54a31.07,31.07,0,0,1-8.61-4.13,31.64,31.64,0,0,1-7.14-6.57,19.27,19.27,0,0,1-2.27-3.77,7.56,7.56,0,0,1-.71-4.67,4.62,4.62,0,0,1,.75-1.66,9.48,9.48,0,0,1,.86-.94c.42-.46.85-.91,1.27-1.36.74-.78,1.5-1.53,2.26-2.28s1.73-1.69,2.61-2.53a41.84,41.84,0,0,1,5.14-4.34,34.69,34.69,0,0,1,6.37-3.31c1.83-.74,3.66-1.47,5.56-2.05a24.91,24.91,0,0,1,4.52-1,21.94,21.94,0,0,1,4.86.07c.72.08,1.44.21,2.15.34.5.08,1,.16,1.52.27a53.16,53.16,0,0,1,6.07,1.73l.38.13h0l.08,0-.09,0-.11,0h0a.93.93,0,0,1,0,1.83,3.2,3.2,0,0,1-1.15-.11l-1.28-.26c-.7-.12-1.4-.29-2.11-.37l-2.47-.29c-1.45-.05-2.89-.11-4.33-.05a25.08,25.08,0,0,0-2.87.4c-.73.16-1.45.37-2.16.6-1.59.58-3.12,1.26-4.65,2a60.36,60.36,0,0,0-6.35,3.52,28.25,28.25,0,0,0-2.53,2c-1.81,1.63-3.49,3.39-5.19,5.14-1.24,1.28-2.5,2.54-3.73,3.83,0,0,0,.07,0,.11.05.21.11.42.17.63s.28.69.44,1,.51.91.79,1.34c.43.62.88,1.2,1.36,1.77a27.23,27.23,0,0,0,2,2,27.79,27.79,0,0,0,5.63,3.84c.95.46,1.92.87,2.91,1.24a33.17,33.17,0,0,0,3.25.88c1.19.22,2.38.38,3.58.48a34.75,34.75,0,0,0,3.68,0,36.27,36.27,0,0,0,4-.54,67.24,67.24,0,0,0,7.26-2.15c1.95-.77,3.88-1.54,5.78-2.39a3.26,3.26,0,0,1,4.41,3.87,3.4,3.4,0,0,1-1.5,1.95,18.82,18.82,0,0,1-3.91,1.68c-1,.34-1.95.72-2.94,1-1.24.36-2.47.73-3.71,1.08a36.31,36.31,0,0,1-4.82,1,34.84,34.84,0,0,1-5.3.41h-.14A34.71,34.71,0,0,1,400.4,502.54Z"/><path d="M415.78,489.19a5.75,5.75,0,0,1-1.65-1.92,7.43,7.43,0,0,1-.71-3.08,7,7,0,0,1,.71-3.1,8.42,8.42,0,0,1,8.35-4.83,4.89,4.89,0,0,1,2.67,1.47,3.94,3.94,0,0,1,1,1.66c.06.08.1.15.15.23a5.55,5.55,0,0,1,.73,2.7,5.36,5.36,0,0,1-.15,1.26,5.26,5.26,0,0,1-.33,1.11,7.89,7.89,0,0,1-1.36,2.07,12.41,12.41,0,0,1-4.41,3.09,5.08,5.08,0,0,1-1.92.37A4.81,4.81,0,0,1,415.78,489.19Z"/><path d="M298.91,458.06a1.67,1.67,0,0,1-1-1,.21.21,0,0,1,0,.06,29.72,29.72,0,0,1-1.21-3.1l-.61-1.63c-.16-.41-.36-.82-.55-1.22l-.34-.62a1.55,1.55,0,1,1,2.84-1.2c.25,1.12.55,2.23.86,3.33s.54,2,.86,2.92c.06.18.13.35.21.53a1.11,1.11,0,0,1,.35.81,1.15,1.15,0,0,1-1.17,1.14A1.43,1.43,0,0,1,298.91,458.06Z"/><path d="M309.14,452.41c0-.21,0-.41,0-.62l0-.87-.06-1.34a16.74,16.74,0,0,0-.26-2.13v0a18.21,18.21,0,0,0-.6-2.16h0l-.18-.5a1.38,1.38,0,0,1,0-1,1.27,1.27,0,0,1,.85-.75,1.32,1.32,0,0,1,1.64,1.08c.1.69.19,1.37.28,2.05a19.68,19.68,0,0,1,.17,3.34c0,.46,0,.92,0,1.39,0,.28,0,.57,0,.86s0,.42,0,.63a.88.88,0,0,1-1.74,0Z"/><path d="M320.9,451.1c.05-1.46.11-2.92.2-4.38s.12-3,.18-4.56a2.11,2.11,0,1,1,4.15.56c-.16.54-.28,1.09-.39,1.64-.19,1.35-.33,2.68-.45,4,0,.91-.09,1.81-.06,2.71a1.82,1.82,0,0,1-3.63,0Z"/><path d="M332.67,456.7l-.25-.05a1.62,1.62,0,0,1-1-2.36.91.91,0,0,1,.11-.16c.13-.51.23-1,.38-1.52l.45-1.43c.19-.63.4-1.25.63-1.87.55-1.52,1.11-3,1.77-4.52a1.85,1.85,0,1,1,3.31,1.66c-.28.48-.55,1-.81,1.46l0-.07c-.25.48-.51,1-.72,1.46-.29.69-.58,1.38-.88,2.07l-.54,1.6c-.07.23-.15.45-.23.68-.13.4-.2.83-.31,1.24a6.55,6.55,0,0,1-.29.85,1.59,1.59,0,0,1-1.53,1Z"/><path d="M340.56,459.24a2.1,2.1,0,0,1-.13-.26,2,2,0,0,1,.93-2.51l.2-.3c1-1.53,1.89-3.13,2.8-4.7.56-1,1.08-2,1.59-3,.08-.17.17-.33.25-.5a2.18,2.18,0,0,1,1.1-1.1,2.07,2.07,0,0,1,2.44,3.17l-.39.55c-.71,1.07-1.39,2.15-2.06,3.25L346,456c-.25.41-.48.82-.72,1.24s-.62.95-.9,1.44a2.75,2.75,0,0,1-1.39,1.38,2.31,2.31,0,0,1-.76.14A2,2,0,0,1,340.56,459.24Z"/><path d="M350.59,466.64a1.37,1.37,0,0,1-.28-.64,1.19,1.19,0,0,1,.69-1.23l.07-.07.13-.18c.36-.56.65-1.16,1-1.75v0l.06-.12a.54.54,0,0,0-.05.11c.32-.68.65-1.35,1-2s.68-1.55,1-2.33a1.52,1.52,0,1,1,2.71,1.36c-.57.89-1.12,1.8-1.65,2.72l-.81,1.41c-.29.49-.56,1-.86,1.46-.16.25-.33.48-.5.72a7.17,7.17,0,0,1-.68.67,1.26,1.26,0,0,1-.87.33A1,1,0,0,1,350.59,466.64Z"/><path d="M357,475.89a2.08,2.08,0,0,1-1.76-2.33c.23-1.18.46-2.36.78-3.53a19.35,19.35,0,0,1,1.61-3.82,36.38,36.38,0,0,1,2.85-4.44,2.05,2.05,0,0,1,3.25,2.51c-.5.65-1,1.32-1.44,2s-.88,1.41-1.27,2.16-.62,1.34-.88,2-.35,1.33-.49,2v0c0,.17-.07.34-.1.51-.08.39-.15.79-.22,1.18a2.12,2.12,0,0,1-2,1.79Z"/><path d="M388.59,481.31a1.69,1.69,0,0,1-.95-.32,4,4,0,0,1-.88-1.29c-.26-.46-.56-.89-.84-1.33l-1.11-1.52c-.32-.44-.69-.85-1.05-1.27s-.86-.9-1.3-1.34a2.58,2.58,0,1,1,4.32-2.51l.18.67a31.14,31.14,0,0,0,1.28,2.9c.27.55.55,1.08.8,1.63.17.37.34.74.52,1.11s.28.75.46,1.11l0,0a1.54,1.54,0,0,1,0,1.26,1.57,1.57,0,0,1-1.36.95Z"/><path d="M396.09,473.38a1.43,1.43,0,0,1-.76-1.87,2.44,2.44,0,0,1,.1-.24l.06-.25,0,.11a12.54,12.54,0,0,0,.19-1.37,15.39,15.39,0,0,0,0-1.92,22.51,22.51,0,0,0-.38-2.42c-.32-1.33-.66-2.64-1-4a2.06,2.06,0,1,1,4-.55q0,1.06.06,2.13c.08,1.06.18,2.13.25,3.19a26.79,26.79,0,0,1,0,3.47,11.72,11.72,0,0,1-.58,2.92,1.43,1.43,0,0,1-1.87.76Z"/><path d="M405.4,465.84c.08-1.42.13-2.85.15-4.28,0-1.05,0-2.09.06-3.14a15.76,15.76,0,0,1,.26-2.28,13.63,13.63,0,0,1,.8-2.49,1.8,1.8,0,1,1,3.31,1.4c-.21.43-.41.87-.58,1.32a5.9,5.9,0,0,0-.2.72,13.45,13.45,0,0,0-.19,1.42c-.12,2.44,0,4.89-.13,7.33a1.74,1.74,0,1,1-3.48,0Z"/><path d="M416.81,463.73a.69.69,0,0,1-.61-.7.73.73,0,0,1,.17-.47c0-.09.05-.18.07-.28.13-.71.2-1.45.29-2.17.06-.51.13-1,.18-1.52.21-1.81.36-3.65.73-5.43v0c.06-.31.12-.6.19-.9a1.34,1.34,0,1,1,2.44,1l-.32.58c-.15.32-.29.64-.41,1a14.41,14.41,0,0,0-.47,1.71.51.51,0,0,1,0-.13c0,.21-.09.42-.13.64a.6.6,0,0,0,0-.12c-.08.43-.18.87-.27,1.31,0,.17-.07.35-.1.52l0,.12a.13.13,0,0,0,0-.06c-.15.76-.27,1.53-.41,2.3-.1.53-.19,1.07-.33,1.59a1.68,1.68,0,0,1-.39.76.74.74,0,0,1-.54.21Z"/><path d="M423.71,467.55a2.19,2.19,0,0,1-1.78-2.76v0c.29-1,.67-2,1-3.06s.7-1.9,1.05-2.85c.63-1.7,1.34-3.38,2.06-5.05a2.34,2.34,0,1,1,4.18,2.09c-.39.67-.74,1.33-1.1,2s-.69,1.42-1,2.15L427.05,463c-.33,1-.7,1.9-.94,2.89a2.15,2.15,0,0,1-.39.86,2.21,2.21,0,0,1-1.72.84Z"/><path d="M380.6,683.37a46,46,0,0,1-6.09-1.85,32.16,32.16,0,0,1-3.17-1.26,3.4,3.4,0,0,1-1.74-1.74,3.27,3.27,0,0,1,4.28-4.28c1.62.67,3.28,1.26,4.93,1.84.86.29,1.73.56,2.6.79-.14-1.47-.25-3-.42-4.41s-.32-2.68-.46-4c-.16-1.57-.27-3.13-.37-4.69l0,.45c-.21-3.05-.23-6.11-.31-9.16-.07-1-.14-2.1-.2-3.15-.21-2-.6-4-.86-6.08s-.55-4.26-.84-6.38c-.31-2.32-.62-4.65-.94-7a61.57,61.57,0,0,1-.52-7.91c0-1.51,0-3,.09-4.54.07-2.56.1-5.12.14-7.69,0-1,0-2.05,0-3.07,0-1.29,0-2.57-.06-3.86,0,.14,0,.29,0,.43q-.26-3.72-.44-7.45c-.15-2.2-.35-4.39-.53-6.59-.09-1.09-.1-2.18-.13-3.27,0-1.69,0-3.38.05-5.07.07-1.52.18-3,.31-4.56.1-1.16.19-2.33.35-3.48.59-4.46,1.19-8.92,1.9-13.37.25-1.57.56-3.15.7-4.74.18-2,.36-3.94.52-5.91,0-2.38.11-4.75.17-7.13,0-.74,0-1.48,0-2.21l-.12-4.32c-.05-2.1-.25-4.21-.38-6.31-.06-.95-.11-1.91-.17-2.87s-.14-1.88-.15-2.82c0-2.35,0-4.7,0-7.05l.12-6.76c0-1.88,0-3.78,0-5.67,0-1.17-.07-2.34-.1-3.51s-.1-2.14-.1-3.21a6.37,6.37,0,0,1,.16-2.35.72.72,0,0,1,1.1-.29.74.74,0,0,1,.27.57h0v.08a18,18,0,0,1,.53,2.73c.14.95.3,1.9.4,2.86.12,1.15.25,2.3.37,3.46s.16,2.19.25,3.28c.28,3.9.37,7.82.56,11.73.1,1.35.21,2.7.31,4s.31,2.75.46,4.13c.12,1,.24,2.07.35,3.1.16,1.41.37,2.82.48,4.24,0,0,0-.07,0-.1.17,2.31.35,4.63.5,6.94.06,1,0,1.93,0,2.89l.06,4.23c0,.71-.05,1.42-.08,2.13-.08,1.49-.15,3-.22,4.47,0,.7-.1,1.4-.19,2.1-.2,1.51-.39,3-.58,4.53-.25,2-.48,3.89-.69,5.84-.35,3-.71,6-.93,9-.12,2-.21,3.91-.21,5.87s.08,3.92.21,5.88c.23,2.28.44,4.58.67,6.87.08.83.12,1.66.18,2.5l.3,4.31c.16,2.29.15,4.6.2,6.9,0,2.11,0,4.22,0,6.32,0,3.25-.18,6.5,0,9.75,0-.15,0-.3,0-.44.34,4.48,1.18,8.91,1.77,13.36.25,1.89.48,3.78.72,5.67s.58,3.65.7,5.49l0-.45c0,.19,0,.39,0,.59v-.06l0,.34v.07c0,.44.05.87.08,1.3l0-.45c.05.7.1,1.39.14,2.09l0-.45c.21,3,.12,6.09.32,9.12l0-.45c0,.19,0,.39,0,.59v0c0,.12,0,.24,0,.36a1.94,1.94,0,0,0,0-.24l0,.38v-.06c0,.11,0,.23,0,.34v.07l0,.45V665c0,.22,0,.43,0,.65v.09c.39,3.78.93,7.55,1.27,11.34.13,1.34.38,2.9-.39,4.11a4.78,4.78,0,0,1-1.1,1.27,5.82,5.82,0,0,1-1.89.92,8.15,8.15,0,0,1-1.9.22h-.24A10.09,10.09,0,0,1,380.6,683.37Z"/><path d="M335.48,725.67c-3.46-.24-6.91-.53-10.36-.85-.9-.09-1.8-.28-2.68-.41-1.64-.25-3.26-.59-4.86-1a29.82,29.82,0,0,1-6.27-2.36,33.57,33.57,0,0,1-6-4c-.89-.74-1.74-1.51-2.6-2.29-.55-.49-1.12-1-1.64-1.48L298.8,711c-.67-.66-1.27-1.42-1.88-2.13a54.25,54.25,0,0,1-6-8.67,1.79,1.79,0,0,1-1-1.12c-.07-.26-.15-.51-.23-.76l-.12-.26a1.89,1.89,0,0,1,1.47-2.59,2.71,2.71,0,0,1,1.44.1,7.23,7.23,0,0,1,2.12,1.6c.85.82,1.62,1.75,2.41,2.63,1.23,1.37,2.58,2.62,3.91,3.89l2.3,1.93c.85.73,1.82,1.35,2.74,2,1.75,1.16,3.5,2.31,5.36,3.3.92.44,1.84.84,2.79,1.2s2.06.61,3.11.86a48.44,48.44,0,0,0,5,.67c2,.11,4.09.19,6.14.19s3.93-.08,5.89-.19l1.22-.09a6.3,6.3,0,0,1,4.56,1.21,6.1,6.1,0,0,1,.59,9.15,6,6,0,0,1-4.37,1.77Z"/><path d="M274.3,703.11a3.1,3.1,0,0,1,0-3.09A3.15,3.15,0,0,1,277,698.5h.32c.32,0,.64-.13,1-.19l-.32.06c.6-.16,1.18-.39,1.77-.59.87-.38,1.74-.76,2.59-1.17a29.43,29.43,0,0,0,3-1.77,27.26,27.26,0,0,0,2.26-1.75c.7-.62,1.35-1.27,2-2l0,0a17.45,17.45,0,0,0,1.41-1.8c.23-.34.44-.69.63-1s.21-.46.3-.7,0-.2.08-.3l0,.12a3.85,3.85,0,0,0,.1-.68.49.49,0,0,0,0,.12v-.28l0-.16s0-.09-.05-.14l-.06-.14a.66.66,0,0,1-.17-.45.68.68,0,0,1,.67-.67,1.19,1.19,0,0,1,.89.62,2.72,2.72,0,0,1,.41,1.1,3.72,3.72,0,0,1-.06,1.37,11.65,11.65,0,0,1-1.4,3.19,23.68,23.68,0,0,1-2.51,3.38,36.83,36.83,0,0,1-6,5.33c-1.15.85-2.38,1.6-3.48,2.51l-.55.52-.27.38a3,3,0,0,1-2.42,1.19A3.08,3.08,0,0,1,274.3,703.11Z"/><path d="M1848.94,525.77c-7.75-.23-15.49-.47-23.23-.8s-15.38-.85-23.08-1c-8.36-.1-16.72,0-25.09,0q-12,0-24,.13c-7.67.06-15.34.23-23,.45-4.17.12-8.33.24-12.5.33l-6.66.13c-1.34,0-2.68,0-4,0h-2.11c-15.53,0-31.06-.48-46.59-.66-4.17,0-8.33-.09-12.5-.17l-6.15-.12c-2.2,0-4.41-.14-6.61-.22-8.26-.27-16.53-.7-24.79-1.08-3.84-.17-7.69-.27-11.53-.41-1.82-.06-3.65-.07-5.47-.11s-3.78-.09-5.66-.1q-12.43,0-24.86.06c-7.67.07-15.33.21-23,.34-8,.14-16,.33-24.06.31q-6.77,0-13.51-.08c-3.68,0-7.36-.08-11-.21l-.58,0a3.57,3.57,0,0,0-2.92-3.29,5.15,5.15,0,0,0,.72-2.49l2.78.09c3.67.1,7.35.14,11,.17q6.75.06,13.51,0c8,0,16-.19,24.06-.33,7.66-.14,15.32-.27,23-.32q12.42-.09,24.86,0c1.64,0,3.28.06,4.93.1,2.06,0,4.13.05,6.2.13,3.84.15,7.69.26,11.53.44,8.26.4,16.53.85,24.79,1.14l6.54.24c2.08.07,4.15.09,6.22.14,4.17.09,8.33.15,12.5.21,15.53.23,31.06.73,46.59.73h6c2.24,0,4.49-.07,6.73-.11,4.17-.07,8.33-.18,12.5-.28,7.67-.19,15.34-.33,23-.37q12-.06,24,0c8.37,0,16.73,0,25.09.15,7.7.12,15.39.62,23.08,1.06,4,.23,8.09.36,12.13.5l11.1.38a2.43,2.43,0,0,1,.07,4.86Z"/><path d="M1300.73,522.74c-2.12,0-4.25-.06-6.37-.09-6-.07-12-.3-18-.57-5.81-.27-11.61-.62-17.42-.94l-10.55-.59c-2.9-.16-5.79-.41-8.68-.62-.35,0-.69-.07-1-.11l-3.29-.38c-1.53-.17-3.05-.36-4.58-.54-3-.36-5.94-.58-8.91-.81-3.81-.23-7.63-.45-11.44-.61q-3-.13-6-.21c-.82,0-1.65-.07-2.47-.07l-4.16,0c-3.94,0-7.87.2-11.8.31-3.69.11-7.38.17-11.07.16l-12.45-.05c-4.23,0-8.45.1-12.68.23-1.78,0-3.56.18-5.34.28l-5.91.35c-3.5.22-7,.4-10.49.39a89.65,89.65,0,0,1-10.09-.79c-1.31-.16-2.61-.34-3.91-.53-1.53-.22-3.06-.41-4.58-.59l-2.71-.13a.74.74,0,0,1-.72-.36.75.75,0,0,1,.45-1.09,11.15,11.15,0,0,1,2.17-.14h.6c.4,0,.78,0,1.18.06.78.06,1.55.09,2.33.17q4.57.46,9.16.84c1.62.09,3.24.14,4.86.17,2.27,0,4.53-.11,6.79-.26,2.46-.17,4.91-.42,7.37-.65,2-.19,4-.35,6.07-.52,1.5-.13,3-.22,4.5-.31,2-.13,4-.26,6-.33,4-.14,8-.26,11.94-.33l6.64-.12c2.17,0,4.34-.14,6.51-.21,3.89-.13,7.78-.37,11.66-.55,1.89-.09,3.77-.14,5.65-.19.77,0,1.54-.06,2.3,0l4.32,0c3.73.05,7.47.19,11.19.38,1.84.09,3.69.18,5.53.3,2.2.15,4.38.32,6.58.51,3.16.29,6.32.68,9.48,1,1.33.14,2.66.21,4,.31l5.18.35-.32,0,11.24.59c4,.21,8,.47,12,.63s8,.38,12,.48c4.36.11,8.72.21,13.08.25,1.75,0,3.5.06,5.25,0l7.87-.09c1.52,0,3-.08,4.54-.13l5.91-.19c4.2-.16,8.41-.32,12.61-.45,3.78-.13,7.56-.22,11.33-.37l7.23-.3c2.32-.1,4.64-.25,7-.37H1358l6.1-.42c2-.14,4.07-.33,6.11-.5,4-.33,8-.73,12-1.08q5.76-.51,11.55-.77c3.9-.18,7.8-.25,11.71-.3,3.76,0,7.52-.1,11.28-.06l7.11.07c2,0,4,.14,6,.21,1.59.06,3.17.15,4.76.25,2,.14,4,.24,6,.41l12.94,1.07,1.89.15a3,3,0,0,0-.5,2.22,3,3,0,0,0,2.24,2.38l.13,0,0,0,.35.24a3,3,0,0,0,.72.46,2.25,2.25,0,0,0-.34.47l-10.27-.86-8-.67c-2.59-.23-5.2-.37-7.8-.54-3.21-.12-6.43-.28-9.64-.32-4,0-7.89-.07-11.84-.06-3.1,0-6.21,0-9.31.1-1.82,0-3.65,0-5.47.12l-5.72.24-5.68.39c-2.1.14-4.19.34-6.29.51-4.06.34-8.13.69-12.2,1-3.63.28-7.28.46-10.92.63-3.82.17-7.65.32-11.48.41l-13,.29c-3.64.08-7.28.21-10.92.32-3.95.11-7.9.24-11.85.27l-6.38.06Z"/><path d="M1826.16,519.79a.52.52,0,0,1,.43-.54l.06-.15c0-.22.08-.45.11-.68h1.42c-.15.69-.45,1.52-1.06,1.77a1.35,1.35,0,0,1-.35.06h-.06A.53.53,0,0,1,1826.16,519.79Z"/><path d="M1045.12,800.64a5.32,5.32,0,0,1,.44-6.94,97.69,97.69,0,0,1,8-7c2.35-1.91,4.86-3.6,7.39-5.28,2.38-1.74,4.64-3.6,6.89-5.5,2.63-2.39,5.24-4.81,7.89-7.18,2.87-2.55,5.84-5,8.75-7.47,5.67-4.84,11.22-9.82,17-14.54,4.83-3.95,10-7.51,15-11.26,2.48-1.88,5-3.76,7.38-5.75s5.06-4.27,7.56-6.44l3.71-3.26,0,0c5.8-5.13,11.59-10.25,17.5-15.24,5.33-4.5,10.84-8.79,16.24-13.21,11.72-9.57,23.45-19.12,35.46-28.34,5.72-4.39,11.53-8.66,17.16-13.16s11.47-9.23,17.35-13.67c5.71-4.32,11.52-8.52,17.24-12.83q4.93-3.72,9.78-7.54c2.52-2,5-4,7.53-5.94,5.86-4.53,11.82-8.94,17.66-13.51s11.63-9.34,17.49-14q4.51-3.57,9.13-7c3.09-2.31,6.31-4.46,9.48-6.64,6-4.11,11.86-8.32,17.74-12.55,2.12-1.52,4.22-3.08,6.27-4.69,1-.82,2.13-1.61,3.15-2.46l3.4-2.84,3.54-3.16c1.25-1.12,2.45-2.32,3.67-3.48,2.29-2.17,4.53-4.37,6.85-6.5s4.7-4.14,7.15-6.1l3.67-3c1.29-1,2.49-2.16,3.82-3.13a.52.52,0,0,1,.67.79,94.47,94.47,0,0,1-8.13,7.75c-2.64,2.4-5.12,4.94-7.61,7.49-1.36,1.38-2.65,2.83-4,4.25s-2.53,2.69-3.79,4-2.35,2.44-3.56,3.6-2.46,2.41-3.75,3.55c-2.84,2.51-5.7,5-8.69,7.37s-6.13,4.85-9.22,7.26c-2.68,2.09-5.38,4.15-8.07,6.22-3,2.3-6,4.58-8.93,7-3.39,2.82-6.72,5.69-10,8.59l.32-.28c-5.64,5-11.22,10-17,14.84-5.59,4.66-11.23,9.25-16.76,14-3,2.52-5.9,5-8.87,7.56s-5.82,4.8-8.76,7.18c-2.65,2.14-5.37,4.2-8,6.3q-4.89,3.84-9.74,7.7c-5.7,4.55-11.2,9.35-16.79,14-2.48,2.08-5,4.07-7.58,6.06-3.22,2.5-6.45,5-9.65,7.56-11.26,8.92-22.2,18.22-33.29,27.35q-5,4.15-10.07,8.29c-3.17,2.6-6.28,5.27-9.4,7.93-5.52,4.92-11,9.86-16.59,14.74s-11.13,9.55-17,13.91-11.73,8.63-17.24,13.39-11.28,9.78-17,14.61l-3.64,3.11c-1.43,1.29-2.84,2.58-4.25,3.88s-3,2.78-4.54,4.08-3.07,2.59-4.66,3.84-3.36,2.43-5.1,3.57c-.93.63-1.86,1.26-2.77,1.93l-3.71,2.8c-1,.78-2.08,1.54-3.15,2.27a32.47,32.47,0,0,1-4.6,2.59,4.6,4.6,0,0,1-2,.43A5.42,5.42,0,0,1,1045.12,800.64Z"/><path d="M1829.39,835.57c-1.3-1.4-2.59-2.81-3.77-4.31s-2.08-2.8-3.07-4.22-2.14-2.93-3.19-4.4-2-2.8-3-4.18c-2.08-2.82-4.13-5.66-6.1-8.57-1-1.54-2.08-3.1-3-4.71s-1.89-3.42-2.78-5.16c-1.49-2.89-2.82-5.85-4.21-8.78-3.28-6.31-7-12.38-10.75-18.39-3.93-6.22-7.84-12.46-11.48-18.86-1.82-3.2-3.58-6.43-5.41-9.62s-3.63-6.27-5.41-9.42q-5.55-9.83-10.75-19.83c-1.68-3.2-3.3-6.43-5-9.62s-3.52-6.61-5.29-9.9c-3.43-6.34-7.05-12.58-10.41-19-3.16-6-6.17-12.15-9.2-18.26-2.33-4.6-4.71-9.18-7-13.79-2.65-5.26-5.24-10.55-7.88-15.83-.07-.14-.15-.29-.22-.44l0-.07c-.14-.27-.27-.54-.41-.8h0c-.1-.22-.21-.43-.33-.66a2.4,2.4,0,0,1-.11-.23c-.13-.26-.26-.52-.4-.78a.83.83,0,0,1,.07.13c-2.26-4.52-4.48-9.07-6.6-13.66s-4.38-9.45-6.66-14.13c-1.67-3.27-3.39-6.51-4.93-9.85-1.63-3.52-3-7.15-4.43-10.75-1.3-3.26-2.46-6.56-3.65-9.85-1.29-3.58-2.74-7.07-4.31-10.54-1-2.22-2.06-4.41-3-6.66-1.12-2.67-2.19-5.35-3.25-8.05-.43-1.1-.78-2.21-1.14-3.34s-.82-2.44-1.11-3.7c-.19-.85-.37-1.69-.57-2.54a17.45,17.45,0,0,1-.34-3.68,7.44,7.44,0,0,1,.73-3.35,2.05,2.05,0,0,1,1.55-.91,1.2,1.2,0,0,1,1.24.64,1.35,1.35,0,0,1,.47.45.89.89,0,0,1-.12,1c.1.26.19.53.27.8,1.44,3.71,3.12,7.31,4.75,10.94,1.58,3,3.13,6.11,4.9,9.06,1.93,3.23,3.93,6.42,5.69,9.74.86,1.62,1.72,3.26,2.47,4.94s1.55,3.56,2.3,5.36c1.4,3.4,2.79,6.84,4.33,10.18.89,1.91,1.78,3.81,2.71,5.7,1.36,2.58,2.83,5.11,4.23,7.68s2.83,5.4,4.16,8.15c2.75,5.7,5.5,11.4,8.34,17.06l-.33-.65c2.7,5.23,5.41,10.45,8,15.71l1.6,3.18c4.75,9.23,9.59,18.39,14.16,27.71q4.89,9.56,10.15,18.91,5.5,9.75,10.72,19.67c1.66,3.12,3.26,6.28,4.9,9.42,1.79,3.41,3.63,6.8,5.47,10.19,3.44,6.34,7.12,12.55,10.67,18.83,3.62,6.44,7.18,12.92,11,19.27s7.54,12.32,11,18.68a130,130,0,0,1,5.71,11.83c1.65,4,3.35,8,5.21,11.9,1.71,3.33,3.44,6.64,5.25,9.91,2,3.55,3.9,7.13,5.69,10.78a82,82,0,0,0,4.7,8l.46.68-.14-.21,1,1.5a2.74,2.74,0,0,1-2.21,4.41A2.57,2.57,0,0,1,1829.39,835.57Z"/><path d="M1535.23,545.29a2,2,0,0,1-.93-2.81c1.21-1.92,2.45-3.81,3.62-5.75.63-1,1.25-2.08,1.87-3.13l.68-1.17c.43-.76.89-1.5,1.28-2.27l0,.07c.1-.21.21-.41.33-.61a1,1,0,0,1,.31-.44.6.6,0,0,1,.49-.1l.05,0a.66.66,0,0,1,.49.56,2.82,2.82,0,0,1,0,.82,6,6,0,0,1-.25,1c-.1.36-.22.7-.35,1-.19.52-.37,1.05-.59,1.55-.48,1.16-1,2.3-1.48,3.44-1,2.22-1.94,4.47-2.91,6.7a2,2,0,0,1-1.84,1.2A2,2,0,0,1,1535.23,545.29Z"/><path d="M1518.34,584.11a3,3,0,0,1-1.57-3.88c.81-1.76,1.8-3.41,2.77-5.08s1.79-3.07,2.7-4.6,1.76-2.95,2.65-4.41c.45-.76.91-1.5,1.37-2.25.18-.3.36-.58.56-.86l.46-.66a2.66,2.66,0,0,1,.6-.56,1.09,1.09,0,0,1,1.74.86,4,4,0,0,1-.12,1c-.1.36-.18.73-.31,1.08-.25.64-.49,1.28-.74,1.93-.39,1-.84,2-1.27,3.05-1,2.38-2,4.77-2.9,7.21l-.15.44,0-.06-.27.77h0l-.06.19h0s0,0,0,0v0h0l0,.09v0a.88.88,0,0,0,0,.15s0-.08,0-.12c-.47,1.39-.94,2.76-1.53,4.1a3,3,0,0,1-3.88,1.58Z"/><path d="M1495.38,634.31a2.53,2.53,0,0,1-1.19-3.57c1.32-2.35,2.61-4.71,3.93-7s2.47-4.69,3.67-7l0,.09v0l0-.07c.1-.19.19-.37.28-.56l1.47-2.93.06-.13h0l0-.07v0l0-.08h0l0-.06h0c.49-1,1-2,1.48-2.94l0,.07a.21.21,0,0,1,0,.06.25.25,0,0,0,0-.07l0,0h0v0l0-.08c.86-1.7,1.7-3.42,2.39-5.19l.06-.18a.78.78,0,0,1,.87-.57.8.8,0,0,1,.68.89,5.14,5.14,0,0,1-.24,1c-.12.4-.24.81-.37,1.21q-.45,1.37-.93,2.73c-.56,1.56-1.15,3.1-1.73,4.64-1.38,3.63-2.78,7.24-4.19,10.86-1,2.58-2,5.17-3.09,7.72a2.56,2.56,0,0,1-2.33,1.52A2.41,2.41,0,0,1,1495.38,634.31Z"/><path d="M1466.42,705.89a5,5,0,0,1-3-2.28,4.82,4.82,0,0,1-.5-3.83,27.68,27.68,0,0,1,2.08-4.85c.67-1.19,1.39-2.34,2.09-3.51,1.39-2.32,2.68-4.7,3.93-7.09,2.07-4.15,4-8.34,6-12.56.86-1.89,1.69-3.8,2.53-5.71.49-1.09.93-2.2,1.49-3.26a13,13,0,0,1,1.9-3.08l.17-.21a.91.91,0,0,1,1.55.2,10.37,10.37,0,0,1,.31,4.47,23.23,23.23,0,0,1-.37,2.34c-.11.64-.2,1.28-.35,1.9-.34,1.42-.62,2.87-1,4.27-.48,1.58-.94,3.16-1.42,4.74s-1.07,3.18-1.6,4.77-1.05,2.95-1.58,4.43c-.95,2.65-2,5.28-3,7.9-1.11,2.83-2.19,5.66-3.26,8.5a4.92,4.92,0,0,1-4.62,3A4.64,4.64,0,0,1,1466.42,705.89Z"/><path d="M1435.59,783.42a5,5,0,0,1-3-2.29,4.94,4.94,0,0,1-.29-4.47c.9-1.86,1.92-3.65,2.89-5.47q1.2-2.24,2.34-4.47c2.7-5.43,5.31-10.88,7.77-16.41,1.34-3,2.61-6,4-9s2.85-5.81,4.34-8.68c.52-1,1-2,1.58-3a11.61,11.61,0,0,1,1.8-2.69,1.09,1.09,0,0,1,1.83.91c-.61,3.17-1.5,6.28-2.4,9.37s-1.89,6.21-2.86,9.31c-.86,2.74-1.72,5.49-2.66,8.21q-1.8,5.18-3.7,10.31c-1.63,4.4-3.39,8.74-5,13.15-.19.56-.38,1.12-.56,1.68a5.17,5.17,0,0,1-2.29,3,5,5,0,0,1-3.86.5Z"/><path d="M1408.22,860.81a4.88,4.88,0,0,1-2.56-6.32c.94-2.18,2-4.27,3.1-6.38,3-6.13,6-12.29,8.91-18.51,1.38-3,2.61-6.12,3.88-9.2.63-1.54,1.3-3.07,2-4.61a31.71,31.71,0,0,1,2.11-4.25,5.31,5.31,0,0,1,.87-1.17h0l0,0a1.46,1.46,0,0,1,2.27.29,1.4,1.4,0,0,1,0,1.4c-1.22,4.8-2.36,9.63-3.79,14.37-.43,1.45-.87,2.91-1.31,4.36-.38,1.25-.84,2.48-1.26,3.72-.81,2.36-1.64,4.72-2.47,7.07-.86,2.54-1.73,5.06-2.5,7.62-.92,3-1.77,6.09-2.91,9.06a4.76,4.76,0,0,1-4.48,2.92A4.68,4.68,0,0,1,1408.22,860.81Z"/><path d="M1248.09,519.29a2.5,2.5,0,0,1-2.13-2.45c0-1.49,0-3-.06-4.48-.05-.58-.14-1.16-.24-1.73a103.62,103.62,0,0,1-1.44-10.36c-.4-3.61-.55-7.25-.69-10.88-.29-7.34-.63-14.69-.79-22.05s0-14.89.25-22.34c.19-7.18.08-14.38.08-21.56,0-15,.07-29.94-.49-44.9-.12-3.48-.3-7-.39-10.42-.11-3.87-.18-7.73-.24-11.59-.12-7.27-.13-14.54-.1-21.81,0-7.52,0-15,0-22.56,0-7.18.14-14.34.21-21.52s.12-14.66.59-22c.12-2,.27-3.93.46-5.88s.5-3.68.85-5.51c.71-3.69,1.74-7.35,2.67-11a30.08,30.08,0,0,1,1.56-4.45,20.67,20.67,0,0,1,1.42-2.67,10.93,10.93,0,0,1,3.72-3.4c1.16-.71,2.32-1.39,3.51-2s2.43-1.29,3.61-2c2.64-1.58,5.23-3.25,7.82-4.92a72.6,72.6,0,0,1,7.73-4c.94-.48,1.87-1,2.81-1.42l2-1a4.12,4.12,0,0,1,2-.6,1.18,1.18,0,0,1,.48,2.23l0,0a18,18,0,0,1-2.47,2.39c-.81.72-1.67,1.41-2.51,2.09-1.87,1.51-3.71,3-5.52,4.63l0,0-.19.16c-1.91,1.7-3.84,3.39-5.84,5s-4.06,3.22-6,4.9c-.7.67-1.39,1.34-2,2.05l-.06.08,0,.05c-.11.26-.21.51-.31.78-.32,1-.59,2-.83,3-.56,3-1.1,6.07-1.7,9.1-.29,1.53-.54,3.07-.77,4.61s-.31,2.87-.41,4.3c-.37,7.21-.48,14.4-.51,21.62s-.1,14.44-.12,21.66,0,14.59,0,21.89c0,7.59,0,15.18.07,22.77.09,7.21.25,14.41.55,21.61.31,7.54.53,15.08.59,22.64,0,7.28,0,14.57,0,21.86s.1,14.52,0,21.77c-.12,7.53-.34,15.06-.55,22.58-.2,7.34-.52,14.68-.8,22-.16,4.13-.33,8.26-.61,12.38-.17,2.73-.26,5.46-.44,8.19-.1,1.58-.24,3.16-.38,4.75a32.75,32.75,0,0,1-1.45,6.53,2.52,2.52,0,0,1-2.39,1.81Z"/><path d="M1317.93,344.8a5.11,5.11,0,0,1-2.42-3.15c-.77-3.67-1.25-7.38-1.69-11.1s-.72-7.52-.9-11.29c-.16-3.4-.08-6.81,0-10.22s.17-6.77.35-10.15c.27-5.18.62-10.37.7-15.56.07-5,0-10-.27-15-.11-1.22-.25-2.42-.47-3.62a15.46,15.46,0,0,0-.41-1.52l-.12-.28c-.39-.69-.81-1.35-1.25-2-1.49-2.17-3-4.29-4.55-6.46-.82-1.18-1.64-2.37-2.53-3.5s-1.76-2.15-2.67-3.21l-1.29-1.33c-.44-.45-.87-1-1.34-1.37l-3.28-2.92.25.22c-1.47-1.12-2.93-2.25-4.42-3.34a18.41,18.41,0,0,1-3.92-3.71,17.79,17.79,0,0,1-1.55-2.68c-.74-1.4-1.5-2.79-2.3-4.16s-1.72-2.77-2.62-4.14l-1.06-1.47a3.59,3.59,0,0,1-.83-1.62,1.07,1.07,0,0,1,1.46-1.11c.43.16.7.6,1,.94s.83.83,1.24,1.26a1,1,0,0,1,.24.45c.93,1.15,1.8,2.35,2.68,3.53,1.45,2,2.88,4,4.49,5.82.22.24.46.48.7.7.44.37.89.71,1.35,1,1.2.79,2.43,1.52,3.64,2.3l2.81,1.84c.68.44,1.31,1,2,1.43s1.36,1,2,1.51c2.85,2.36,5.66,4.76,8.37,7.27,2.47,2.29,4.79,4.73,7.15,7.11a32,32,0,0,1,2.65,2.82,10.41,10.41,0,0,1,1.38,2.67,25.1,25.1,0,0,1,.75,2.42,30.78,30.78,0,0,1,.8,5.5,199.38,199.38,0,0,1,.52,22c-.09,3.4-.25,6.79-.32,10.19s-.14,6.9-.13,10.34c0,2,0,3.9.08,5.84,0,1.57.14,3.13.23,4.7.28,3,.57,6,.92,9,.17,1.5.34,3,.49,4.49a30.47,30.47,0,0,1,0,5.73,5.27,5.27,0,0,1-4.5,4.5,5.78,5.78,0,0,1-.71,0A5.28,5.28,0,0,1,1317.93,344.8Z"/><path d="M1216.31,520.18a2.72,2.72,0,0,1-2.29-3c.19-2.12.31-4.24.49-6.36.16-1.88.33-3.76.49-5.64.17-2.92.25-5.82.22-8.74s-.2-5.87-.36-8.8a.11.11,0,0,1,0,.05.25.25,0,0,0,0-.08v0h0l-.18-2.66h0q-.75-10.06-1.55-20.14c-.25-3.22-.65-6.43-1-9.63-.41-3.44-1-6.87-1.62-10.29-1.06-6.32-2.47-12.58-3.51-18.91-.26-1.62-.55-3.23-.75-4.85s-.42-3.28-.59-4.92q-.52-5-1-10.05-.93-10.07-1.82-20.14c-.31-3.37-.61-6.74-.76-10.12s-.24-6.64-.23-10c0-6.89.27-13.77.43-20.66.16-6.63-.07-13.25-.08-19.88s.16-13.08.5-19.61c.35-6.74.8-13.48,1.46-20.19.2-2.06.41-4.12.6-6.18.18-1.81.47-3.62.7-5.42s.48-3.5.72-5.25c.22-1.58.35-3.17.5-4.76a40.37,40.37,0,0,0,0-4.4c-.06-.72-.15-1.44-.28-2.15,0-.13-.07-.27-.11-.4a.5.5,0,0,1,0-.13,1,1,0,0,1-.1-.17c-3-4.47-5.86-9.07-8.82-13.58q-1.63-2.43-3.28-4.85a58,58,0,0,0-4-5.4,54.49,54.49,0,0,0-3.9-3.85,1.14,1.14,0,0,0,.16.15,120.14,120.14,0,0,1-9.37-8.06,48.34,48.34,0,0,1-4.11-5c-.3-.4-.56-.83-.84-1.24a4.68,4.68,0,0,1-1-1.94.51.51,0,0,1,.9-.38c.61.88,1.32,1.68,2,2.49,1.3,1.44,2.61,2.85,4.05,4.16a46.66,46.66,0,0,0,4.5,3.45l-.14-.09c1.93,1.28,3.86,2.53,5.79,3.79a47.87,47.87,0,0,1,7.25,5.91c2.39,2.34,4.53,4.91,6.69,7.45s4,5,6,7.52c1,1.19,2,2.37,2.94,3.53.43.51.87,1,1.28,1.55a11.11,11.11,0,0,1,2,6,39.7,39.7,0,0,1-.11,7.86c-.13,1.26-.22,2.52-.39,3.77q-.57,4.38-1.11,8.78c-.32,2.67-.54,5.35-.78,8-.21,2.33-.38,4.67-.54,7-.2,3.31-.45,6.61-.58,9.92-.07,1.7-.18,3.4-.21,5.1,0,2-.08,4-.12,6-.13,6.67,0,13.33.28,20,.45,13-.45,26.05.36,39.06.07,1,.12,2,.19,3,.57,6.6,1.3,13.19,1.93,19.79.31,3.12.61,6.25.94,9.37.34,3.31.63,6.64,1.08,9.94.23,1.69.41,3.4.7,5.08s.62,3.5.93,5.24c.61,3.46,1.35,6.92,2,10.37,1.22,6.32,2.34,12.67,3,19.08.72,6.92.94,13.89,1.19,20.84.11,3.28.21,6.55.23,9.83s0,6.32-.15,9.47a91.45,91.45,0,0,1-1.16,11.31c-.34,1.93-.73,3.84-1.19,5.75s-1,3.56-1.48,5.32a2.72,2.72,0,0,1-2.58,2A2.31,2.31,0,0,1,1216.31,520.18Z"/><path d="M1124.1,516.49a2.58,2.58,0,0,1-2.21-2.54c-.07-3.33-.07-6.65-.12-10s-.24-6.44-.38-9.65-.13-6.59-.08-9.89.2-6.74.47-10.1c.37-4.79.85-9.56,1.18-14.35.22-3.31.46-6.6.78-9.89s.7-6.68,1-10c.29-3,.44-6,.72-9,.32-3.39.73-6.76,1.14-10.14q.54-4.35,1-8.71c.3-2.73.48-5.47.7-8.2.17-3,.37-6.12.46-9.18l.27-10.21c.09-3.26.21-6.51.5-9.75s.65-6.56,1-9.83c1.2-9.76,2.16-19.54,3.12-29.33l.3-4.46c.1-1.66.09-3.33.13-5,.09-3.27,0-6.55,0-9.82,0-6.51-.41-13-.13-19.52.16-3.45.39-6.89.59-10.34.18-3,.22-6,.2-9,0-3.37-.06-6.74-.08-10.11s0-6.44.07-9.66a34.6,34.6,0,0,1,.63-7,11.32,11.32,0,0,1,1.09-3.15,9,9,0,0,1,2.16-2.55c1.08-.85,2.18-1.67,3.28-2.5q2.71-2.07,5.38-4.22c1.68-1.36,3.31-2.8,4.94-4.22,1.94-1.85,3.85-3.71,5.73-5.62,1.68-1.7,3.33-3.43,5-5.13,2-2.06,4.08-4.08,6.15-6.09.79-.77,1.61-1.5,2.44-2.22a12,12,0,0,1,3.36-2.32,2.16,2.16,0,0,1,1-.11,1.73,1.73,0,0,1,.75.38c.72.5.81,1.65,1,2.44.25,1.07.5,2.13.77,3.19s.38,2,.56,3a.29.29,0,0,0,0-.09c.11.5.25,1,.32,1.49a.69.69,0,1,1-1.38.09,1.21,1.21,0,0,1,0-.19c-.08-.71-.2-1.4-.33-2.1h0v0c-.32-1.33-.79-2.62-1.24-3.91h0v0a.19.19,0,0,0,0-.07v0c-.15-.45-.31-.89-.46-1.34v0a.25.25,0,0,0,0-.07.05.05,0,0,0,0,0l0,0h0l-.21-.55a3,3,0,0,0-.33.21,6.87,6.87,0,0,0-.66.55l.11-.1c-1.34,1.25-2.66,2.51-3.91,3.84l-2.77,2.94c-1.25,1.34-2.45,2.72-3.66,4.09h0l-5.39,6.22c-1.54,1.77-3.14,3.49-4.82,5.11-1,.94-1.92,1.91-2.92,2.81l-3.1,2.83-2.66,2.39c-1.22,1.1-2.5,2.16-3.63,3.35l-.42.54a2,2,0,0,0-.11.2,5.3,5.3,0,0,0-.28.65c-.11.36-.21.72-.29,1.09-.12.67-.2,1.35-.28,2-.06,1.47-.07,2.92,0,4.39s.13,3.05.19,4.58c.15,3.33.33,6.66.52,10,.17,3.12.36,6.26.38,9.39,0,3.3,0,6.59-.07,9.88,0,1.78,0,3.55-.06,5.33s.07,3.41.13,5.11c.11,3.14.36,6.29.52,9.42s.26,6.38.33,9.58c0,1.65.1,3.3.09,5s0,3.33,0,5q-.16,5.06-.58,10.1c-.27,3.23-.5,6.45-.79,9.67-.31,3.49-.62,7-1,10.45-.31,3.09-.67,6.18-1,9.28-.23,2.17-.42,4.35-.59,6.52-.18,3.38-.33,6.74-.44,10.12-.1,2.93-.2,5.86-.37,8.79-.19,3.47-.41,6.94-.73,10.4s-.69,6.74-1.13,10.1c-.41,3.13-.9,6.24-1.37,9.36s-.92,6.41-1.3,9.62-.76,6.38-1.18,9.56-.93,6.11-1.29,9.18c-.52,4.4-.9,8.82-1.37,13.23-.45,4.09-1,8.17-1.3,12.27-.35,5.69-.52,11.39-.42,17.09,0,2.75.13,5.5.08,8.26a45.11,45.11,0,0,1-.9,9.35,2.55,2.55,0,0,1-2.49,1.88Z"/><path d="M1092.93,510.1a4.3,4.3,0,0,1-1.66-2.87c0-.59-.12-1.19-.12-1.79,0-.41,0-.83,0-1.25,0-.73,0-1.46.06-2.19q0-1.81.12-3.63c.11-2.83.25-5.66.53-8.48.55-5.4,1.11-10.8,1.64-16.2.26-2.61.48-5.21.7-7.83.34-5.51.55-11,.75-16.57s.44-11.17.72-16.76c.57-11,1.55-21.93,3.2-32.79.3-1.93.54-3.88.89-5.81l1.38-7.69c.31-1.74.65-3.47,1-5.21a99.56,99.56,0,0,0,1.7-10.58s0,.06,0,.09c0-.62.06-1.22,0-1.83,0-.37-.07-.72-.12-1.08a1.21,1.21,0,0,0,0-.18c-.46.34-1.19-.3-.76-.81.22-.27.53-.59.92-.54.62.09.87.74,1,1.25a6.62,6.62,0,0,1,.23,1.77c0,.95,0,1.89-.07,2.84-.12,1.82-.4,3.64-.68,5.43-.43,2.67-.91,5.34-1.28,8-.42,3-.86,6-1.29,8.93-.15,1.08-.24,2.18-.36,3.27l-.6,5.36c-.15,1.33-.22,2.67-.33,4-.13,1.78-.27,3.57-.41,5.35-.11,2.89-.25,5.78-.38,8.67,0,1.16,0,2.32,0,3.48,0,1.66-.05,3.32-.07,5,0,2.77.05,5.55.07,8.32s.12,5.54.18,8.31c.12,5.22.32,10.43.46,15.63.08,3,.13,6,.17,9,0,1.45,0,2.91-.06,4.35s-.08,2.78-.12,4.16c-.15,4.49-.25,9-.25,13.47q0,3.18,0,6.36a80.48,80.48,0,0,1-.14,8.22,4.37,4.37,0,0,1-7,2.87Z"/><path d="M1111,369.78c-.18-.11-.36-.22-.55-.32l-.19-.08a.93.93,0,0,1-.5-.26,1.13,1.13,0,0,1-.23-.79,1.11,1.11,0,0,1,.27-.65,4.63,4.63,0,0,1,1-.85,15.88,15.88,0,0,1,2.68-1.48c1.13-.5,2.29-.94,3.46-1.33a54.81,54.81,0,0,1,6.43-1.7l3.05-.63-.2,0,2.41-.48c.54-.11,1.07-.19,1.61-.25a10.49,10.49,0,0,1,2.31,0,2.18,2.18,0,1,1-1.14,4.16l-.44-.17-.44-.12c-.42-.07-.85-.12-1.28-.15s-1.07,0-1.61,0c-.36,0-.73,0-1.1,0l-2.83.13c-1.48.16-3,.34-4.43.64a41.86,41.86,0,0,0-5.27,1.43l0,0a18,18,0,0,0-1.76.72h0c-.44.23-.91.46-1.34.73h0l-.13.1-.07.06,0,.06,0,.06.81.43a.45.45,0,0,1-.22.83A.49.49,0,0,1,1111,369.78Z"/><path d="M1248.93,400.35c-2.28-.42-4.62-.66-6.92-.94-2.11-.25-4.22-.45-6.33-.67-2.36-.25-4.72-.5-7.07-.84-1-.15-2.08-.3-3.11-.51l-1.72-.34a11,11,0,0,1-1.86-.54,5.26,5.26,0,0,1-1.45-.75,1.26,1.26,0,0,1,.27-2.14,1.38,1.38,0,0,1,.4-.1,1.3,1.3,0,0,1,.78.17l.08,0c.73.12,1.46.19,2.2.24H1224c1.85.11,3.69.2,5.54.27s3.82.05,5.74.05c3.37,0,6.73-.2,10.09-.41,1.35-.1,2.69-.21,4-.26a3.43,3.43,0,0,1,3.4,3.4,3.47,3.47,0,0,1-3.33,3.41A2.44,2.44,0,0,1,1248.93,400.35Z"/><path d="M1295.94,473.4a46.09,46.09,0,0,1-.18-5.64c0-1.61-.09-3.21-.14-4.81-.11-3.11-.23-6.21-.27-9.32q-.07-5.16-.26-10.34l-.15-4.54c0-.81,0-1.61,0-2.42s0-1.39,0-2.09c.09-2.17.19-4.32.37-6.49s.37-4.15.58-6.22c.18-1.82.37-3.65.55-5.47s.32-3.89.48-5.82c.21-4.11.38-8.23.61-12.34q.39-7,.86-14.09c.2-3.29.35-6.58.47-9.87.11-3,.15-6.07.21-9.11,0-1.67,0-3.34.13-5,0-.9.09-1.81.13-2.71s.17-1.68.26-2.52a82.14,82.14,0,0,1,1.5-9.36,11,11,0,0,1,.4-1.47.33.33,0,0,1,.57-.07l.06.1a.3.3,0,0,1,0,.29c-.27,1.95-.49,3.91-.71,5.87v-.08c-.09,1.52-.22,3-.25,4.55,0,.89,0,1.78,0,2.66s.07,1.83.11,2.74c.12,3.25.38,6.5.56,9.75.36,6.54.47,13.09.65,19.64.18,6.76.46,13.51.62,20.27.08,3.07,0,6.16,0,9.23,0,3.39,0,6.77.06,10.16,0,.52,0,1,0,1.57.08,1.17.17,2.34.24,3.5.68,6.43,1.44,12.83,2.09,19.25q.46,4.67,1,9.31c.17,1.56.35,3.12.5,4.69.07.75.14,1.51.2,2.27.05.57.1,1.15.13,1.73a18.13,18.13,0,0,1-.06,2.21,5.4,5.4,0,0,1-1.61,3.24,5.66,5.66,0,0,1-9.61-3.24Z"/><path d="M1357.5,429.73c-.23-2.3-.24-4.62-.28-6.93,0-2,0-4.07,0-6.1,0-4.08.06-8.18.34-12.25,0,.17,0,.35,0,.53.11-1.6.22-3.19.37-4.78.12-1.28.29-2.56.45-3.84.3-2.42.7-4.81,1.1-7.21s.78-4.64,1.22-6.95l.81-4.21c.28-1.43.65-2.85,1-4.28s.81-2.92,1.22-4.38.85-2.89,1.28-4.33c.38-1.26.74-2.52,1.09-3.79.64-2.26,1.29-4.51,1.78-6.81a34.47,34.47,0,0,0,.5-3.51c0-.1,0-.21,0-.32-2,.18-4,.31-6,.41-2.53.12-5,.16-7.59,0-5.14-.2-10.29-.28-15.43-.43-4.79-.14-9.56-.52-14.34-.89-2.22-.18-4.44-.4-6.66-.59s-4.59-.32-6.88-.47h0c-3-.07-6-.21-9,0h0c-1.12.08-2.23.15-3.33.34h0c-.34.07-.67.16-1,.26l-.29.11-.23.13-.21.16-.11.15V350c0,.22,0,.43.09.65a.7.7,0,0,0,0,.12.3.3,0,0,1-.5.33.84.84,0,0,1-.12-.31,2.91,2.91,0,0,1-.09-1.14c.18-.67.9-1,1.48-1.24a15.88,15.88,0,0,1,4.11-.83,36,36,0,0,1,3.59-.34c2.53-.09,5.06-.21,7.59-.18,5.37,0,10.74.14,16.11.16,2.32,0,4.64-.05,7-.11,2.07,0,4.14-.21,6.21-.34,3.68-.32,7.36-.64,11-1,1.83-.18,3.64-.41,5.46-.67,1.66-.25,3.31-.57,5-.9l3.38-.73a8.51,8.51,0,0,1,4.1-.17,5.45,5.45,0,0,1,3.57,3.78,13.69,13.69,0,0,1,.32,5,39.11,39.11,0,0,1-1,5.68c-.41,1.67-.89,3.32-1.36,5-1.38,4.8-3,9.55-4.12,14.42-.18.73-.35,1.47-.52,2.21-.63,3.25-1.22,6.51-1.71,9.79-.28,1.9-.57,3.79-.8,5.7-.21,1.73-.38,3.45-.53,5.18-.21,3.73-.24,7.46-.22,11.19s.14,7.3.36,10.95c.17,2.33.44,4.66.41,7a4.33,4.33,0,0,1-3.69,4.23l-.53,0A4.27,4.27,0,0,1,1357.5,429.73Z"/><path d="M1375.89,511a2.69,2.69,0,0,1-.75-1.8c0-.29,0-.57,0-.86s0-.72-.08-1.08l0,.38c-.33-4.91-.47-9.81-.47-14.72,0-2.47,0-4.94.07-7.4s.17-5.19.43-7.78.53-4.91,1-7.34c.5-2.77,1-5.53,1.56-8.29.9-4.66,1.61-9.35,2.3-14,.34-2.24.68-4.48.86-6.73,0-.84.06-1.67,0-2.51,0-.2,0-.4-.07-.59-.9-.19-1.79-.42-2.68-.64-1.23-.3-2.46-.59-3.7-.86-2.24-.49-4.51-.87-6.71-1.51-1.32-.38-2.63-.78-3.94-1.23s-2.33-.75-3.49-1.12-2.13-.56-3.19-.82-2.42-.56-3.61-.9l-2.43-.7c-.56-.16-1.14-.3-1.69-.5l-2.54-.93-.7-.25c-.48-.18-1-.41-1.43-.62-.33-.14-.66-.27-1-.43-.2.36-.92.28-.9-.23v-.14a.66.66,0,0,1,0-.61.59.59,0,0,1,.47-.36,6.34,6.34,0,0,1,2.32.37c.56.16,1.11.31,1.67.45l2.93.71c1.42.25,2.84.56,4.27.72,1.79.19,3.57.38,5.36.53,3.11.25,6.21.55,9.32.79,2.46.1,4.92.13,7.39.12,1.11,0,2.21,0,3.31,0l1.8.07c.44,0,.87.06,1.3.11a6.19,6.19,0,0,1,2.9,1.09c3.11,2.12,3,6.56,2.66,9.88-.15,1.61-.47,3.21-.72,4.81-.39,2.49-.89,5-1.32,7.45-.53,3.11-1.05,6.23-1.68,9.33-.29,1.45-.59,2.91-.88,4.36s-.54,2.76-.81,4.14-.44,2.67-.66,4c-.4,2.41-.56,4.86-.77,7.31q-.18,3.27-.31,6.56c-.08,2.28-.12,4.58-.17,6.87,0,2-.08,4-.19,6.05-.07,1.27-.14,2.53-.24,3.8s-.28,2.4-.46,3.59a2.55,2.55,0,0,1-4.32,1.46Z"/><path d="M1356.38,510.45q-.33-.85-.6-1.74a13.35,13.35,0,0,1-.39-1.88,16.23,16.23,0,0,1-.08-2.61c0-1,0-1.92,0-2.89.05-1.89,0-3.78-.1-5.68-.07-1-.18-2-.26-3s-.24-1.92-.37-2.87c-.24-1.79-.55-3.57-.85-5.35-.66-3.87-1.24-7.75-1.81-11.63-.28-1.91-.58-3.83-.83-5.75s-.58-3.95-.77-5.94-.44-4-.56-6-.23-4.13-.27-6.2c0-2.65-.08-5.29,0-7.95.07-3.08.08-6.18.3-9.26a.54.54,0,0,1,.8-.39,1,1,0,0,1,.36.32s0,0,0,.05h.39a.55.55,0,1,1-.08,1.09,1.93,1.93,0,0,1-.46-.08c0,2.24.06,4.48.12,6.72,0,2.07.12,4.14.24,6.21l.21,2.78c0,.78.09,1.56.18,2.33.12,1.09.25,2.18.37,3.28.07.65.13,1.32.23,2,.18,1.11.36,2.22.53,3.32.11.7.2,1.4.34,2.1.37,1.92.76,3.84,1.13,5.76,0-.07,0-.13,0-.2.83,3.88,1.69,7.74,2.67,11.58.46,1.82,1,3.62,1.43,5.43.3,1.16.59,2.32.89,3.47s.45,2,.67,3.05c.29,1.3.51,2.62.74,3.93s.37,2.49.54,3.74c.07.59.1,1.2.15,1.79s.1,1.28.14,1.91.07,1.25.08,1.88c0,1,0,2,.06,3,.06.73.17,1.45.3,2.17a2.89,2.89,0,0,1-2.07,3.15,3,3,0,0,1-.73.09A2.84,2.84,0,0,1,1356.38,510.45Z"/><path d="M1321.5,516.74c0-1,0-2.06-.06-3.1s-.06-2.13-.08-3.2c0-1.94.06-3.88.13-5.82,0-1,.12-2,.17-2.95s.12-1.75.2-2.62c.09-1.14.2-2.27.3-3.41s.24-2,.36-3c.39-3.28.94-6.54,1.59-9.78l.24-1.17-1.31,0c-.91,0-1.83,0-2.74-.09-2.25-.12-4.49-.28-6.74-.46-1.66-.14-3.31-.32-5-.45l-6.18-.46q-6-.44-12.05-1c-3.78-.34-7.55-.73-11.33-1l-2.78-.2-2.1-.11c-.88-.05-1.74-.12-2.61-.21h0a.59.59,0,0,1-.41-.24.63.63,0,0,1,.32-1l.83-.22s.3-.08.4-.09l.45,0,2-.14c.74-.05,1.46-.08,2.21-.09,1.94,0,3.88,0,5.81,0s3.91.11,5.86.14,4,.11,6,.11h1.72c1.39,0,2.78,0,4.18,0l6.28-.13c3.81-.09,7.63,0,11.43-.17l1.81-.09c1.57-.14,3.13-.28,4.69-.44a6.82,6.82,0,0,1,3.3.23,4.14,4.14,0,0,1,2.36,2.63,5,5,0,0,1,.18,1.59c0,.52-.11,1-.18,1.53-.12.9-.36,1.79-.55,2.68-.23,1.18-.47,2.37-.72,3.55l-.57,3.6c-.15,1-.25,1.93-.37,2.89s-.25,2-.33,3c-.1,1.31-.21,2.61-.31,3.92s-.1,2.4-.15,3.6c0,.66,0,1.32,0,2s0,1.16,0,1.74c0,1.36.07,2.72.06,4.08,0,.8,0,1.59-.1,2.39a22.6,22.6,0,0,1-.36,2.45,3.12,3.12,0,0,1-.84,1.69,3,3,0,0,1-5.08-2.1Z"/><path d="M1275.83,519.76a2.52,2.52,0,0,1-1-2c-.11-1.82,0-3.64,0-5.46s0-3.43,0-5.14c-.08-3.52-.17-7-.38-10.55-.13-2.23-.24-4.47-.39-6.7-.14-1.69-.26-3.37-.39-5.06l-.27-3.29c-.07-.92-.1-1.84-.08-2.76a5.55,5.55,0,0,1,.35-2.3.77.77,0,0,1,1.31-.17,1.2,1.2,0,0,1,.28.59.81.81,0,0,1-.32.74v.07a20.85,20.85,0,0,0,0,2.5c.11,1.43.3,2.85.45,4.27.14,1.22.27,2.44.41,3.67.18,1.6.34,3.2.51,4.81.35,3.41.67,6.84,1.11,10.25.31,2.34.6,4.68,1,7s1,4.79,1.32,7.21a2.5,2.5,0,0,1-2.11,2.79l-.33,0A2.5,2.5,0,0,1,1275.83,519.76Z"/><path d="M1452.67,516.37a1.4,1.4,0,0,1-.4-.66,6.24,6.24,0,0,1-.34-1.54c-.07-.44-.08-.91-.12-1.36s0-.89-.07-1.34l0,0,0,.05.05.05.06.05,0,.06,0,.06,0,.06.05.06,0,.06,0,.07,0,.06,0,.06,0,.07.05.07,0,.06,0,.07,0,.07.06.06.06.07.06.06.06.06.08.07.07.06.08,0,.07.06.08,0,.07.05.08,0,.07,0,.08,0,.08,0,.08,0,.08,0,.09,0,.08,0,.09,0,.08,0,.1,0h0c-.12.71-.2,1.43-.36,2.13,0,0,0,.09,0,.13a.45.45,0,0,1,.1.3.53.53,0,0,1-.51.51.69.69,0,0,1-.2,0A.91.91,0,0,1,1452.67,516.37Z"/><path d="M1509.68,521.9c-6.29-.77-12.6-1.25-18.91-1.73q-6.06-.45-12.13-.88h.09c-1.71-.11-3.43-.16-5.13-.24l-4.44-.2c-1.48-.06-3-.16-4.45-.26-.68,0-1.36-.07-2-.14-1-.09-1.89-.2-2.84-.3-2.45-.25-4.89-.65-7.33-1-.48-.07-1-.17-1.43-.26-.63-.11-1.28-.2-1.91-.35l-2-.46c-.29-.07-.59-.2-.87-.29a3.09,3.09,0,0,1-.7-.36.73.73,0,0,1,.26-1.33,3.85,3.85,0,0,1,.67-.05l.9,0c.67,0,1.34.12,2,.18,1,.11,2.1.23,3.15.32l6.88.56c2.85.15,5.7.28,8.56.29l10.33.07c1.5,0,3,.09,4.5.14,1.31,0,2.61.09,3.92.15q4.95.22,9.89.49c4.54.24,9.07.65,13.58,1.26a2.21,2.21,0,0,1-.33,4.39Z"/><path d="M1506.5,521.8c-4.57-.09-9.13-.25-13.7-.37l-6.23-.19-7.14-.24c-1,0-2-.09-3.07-.14l-4-.19c-.9,0-1.79-.12-2.68-.19l-3.9-.29h0c-.34,0-.68-.07-1-.1l-2.25-.24-2.24-.23c-.31,0-.62,0-.93-.1-2.17-.3-4.34-.59-6.5-.93l-1.94-.3c-.84-.13-1.69-.27-2.55-.34l1.37.43c.68.22,1.34.46,2,.69s1.25.47,1.86.74c.29.12.58.24.85.38.43.22.87.45,1.3.69s0,.7-.3.51l-1.37-.72c-.56-.24-1.11-.49-1.68-.7s-1.27-.47-1.9-.7h0c-.54-.19-1.08-.37-1.63-.54s-1.24-.38-1.85-.59a.31.31,0,0,1-.19-.32.92.92,0,0,1,.09-.28.56.56,0,0,1,.21-.17,1.83,1.83,0,0,1,1,0h0c.56,0,1.12,0,1.69,0,.29,0,.59,0,.88.06l1.3.13,2.38.23,2.78.27c.78.08,1.56.17,2.34.23l6.29.42h0c.3,0,.62,0,.92,0l2.27.08,2.27.08.92,0c2.38,0,4.75,0,7.13.06.85,0,1.7,0,2.55,0l4.36,0c2.12,0,4.26-.06,6.39-.09,4.29-.06,8.57-.19,12.85-.28l1,0a1.63,1.63,0,0,1,0,3.25Z"/><path d="M1508.68,525.61q-7.07-.83-14.12-1.57c-.93-.1-1.87-.18-2.81-.27l-3.12-.3-7.08-.61c-2.36-.21-4.73-.39-7.09-.58-2.19-.17-4.39-.4-6.59-.61-.63-.06-1.26-.15-1.9-.24l-3.31-.43c-2.42-.32-4.84-.71-7.28-.87h.08a26.36,26.36,0,0,0-3.08,0h0a9.38,9.38,0,0,0-1.05.12c-.17,0-.33.06-.5.09a.6.6,0,1,1-.25-1.15l.7-.07a25,25,0,0,1,4.15-.14c1.81.07,3.61.29,5.41.49,2.26.26,4.52.49,6.79.74h0c2.17.14,4.34.31,6.5.47h0c1.2.06,2.4.15,3.6.22s2.57.15,3.85.25h0c2.36.14,4.71.33,7.06.5,1,.07,2.06.16,3.09.25s1.95.14,2.92.23c4.71.45,9.42.92,14.12,1.46a1,1,0,0,1-.15,2h-.12Z"/><path d="M1743.81,382.67h-3.38c-.4,0-.83-.06-1.23-.08l-2.42-.17-3.69-.27a9.25,9.25,0,0,1-.92-.12l-2.49-.32-2.28-.3c-.31-.05-.63-.07-1-.13l-3.83-.72c-1.19-.23-2.39-.42-3.58-.68-3.29-.75-6.54-1.61-9.76-2.64a83,83,0,0,1-9.39-3.67,80.76,80.76,0,0,1-8.71-4.76c-1.2-.74-2.35-1.56-3.51-2.36l-1.89-1.3c-.25-.17-.51-.33-.74-.52l-3.3-2.59-1.5-1.18c-.78-.61-1.52-1.29-2.27-2a96.64,96.64,0,0,1-10.21-10.62l-3.16-3.79c-.44-.54-.88-1.06-1.3-1.61l-2.82-3.69c-.56-.73-1.15-1.45-1.67-2.2l-2.31-3.32c-.63-.91-1.3-1.8-1.9-2.73s-1.38-2.14-2.06-3.21c-.52-.82-1.07-1.62-1.57-2.45l-2.18-3.68c-.42-.72-.87-1.43-1.26-2.18l-2.13-4c-.4-.76-.83-1.5-1.18-2.28-.59-1.33-1.18-2.65-1.76-4-.51-1.15-1-2.29-1.5-3.46a82.76,82.76,0,0,1-5.35-19.34,73.12,73.12,0,0,1-.2-15.79c.19-2.33.32-4.66.65-7,.23-1.63.45-3.26.69-4.89.1-.74.2-1.47.36-2.2.32-1.5.64-3,1-4.5.15-.68.29-1.35.44-2a7.43,7.43,0,0,1,.17-.79c.68-2.39,1.4-4.78,2.09-7.18.09-.27.2-.55.3-.82.25-.7.51-1.41.77-2.11l1.43-3.92c.31-.86.68-1.69,1-2.53l1.67-4.1c.9-2.21,1.9-4.38,2.85-6.58s2-4.27,3.1-6.34a66.32,66.32,0,0,1,5.1-8.19,44.74,44.74,0,0,1,6.41-7.06q1.68-1.49,3.48-2.82c1.32-1,2.7-1.85,4.09-2.73,2.38-1.5,4.86-2.86,7.3-4.27,2.06-1.2,4.18-2.29,6.27-3.43,1.83-1,3.7-1.93,5.56-2.87s3.77-1.94,5.71-2.8l4.52-2c1-.44,2-.9,3-1.3a92,92,0,0,1,15.44-4.87l3.93-.83c1.16-.25,2.35-.39,3.53-.57,1.4-.22,2.8-.45,4.21-.6a89.19,89.19,0,0,1,10.21-.55c1.92,0,3.84.07,5.76.22l4.86.36c2.33.17,4.64.51,7,.8s4.64.71,7,1.09,4.71,1,7,1.49a87.72,87.72,0,0,1,14.83,4.84c1.2.5,2.37,1.06,3.55,1.6l3.69,1.7c.9.42,1.77.94,2.65,1.41l3.94,2.1c.73.39,1.41.87,2.11,1.32l3.92,2.49c.68.43,1.31.92,2,1.4l3.81,2.85c.6.45,1.16.92,1.72,1.41l3.63,3.07c1.69,1.44,3.3,3,4.87,4.58q1.61,1.62,3.1,3.35c.87,1,1.76,2,2.56,3,1.48,2,3,3.93,4.47,5.92.66.9,1.26,1.85,1.89,2.77l2.37,3.48.14.19a.1.1,0,0,1,0,0c.62.91,1.17,1.86,1.76,2.79l2.07,3.31c.59.93,1.12,1.91,1.67,2.86.73,1.24,1.45,2.47,2.13,3.73s1.43,2.73,2.07,4.14a45.48,45.48,0,0,1,1.72,4.51,36.09,36.09,0,0,1,1.09,4.33,40.26,40.26,0,0,1,.7,4.89c.16,2.31.29,4.61.22,6.92,0,1.41-.07,2.81-.25,4.21a.6.6,0,0,1-1.19-.16,10.56,10.56,0,0,0,.15-1.11c0-1.12,0-2.24,0-3.37,0-1-.08-2-.12-2.94s-.17-1.66-.26-2.49c-.14-1.37-.36-2.73-.63-4.08v0a43.25,43.25,0,0,0-1.35-5l0,.11a49.41,49.41,0,0,0-2.29-5.42l.06.12c-1.09-2.12-2.3-4.16-3.58-6.17-.81-1.27-1.63-2.54-2.42-3.81l.09.13c-1.17-1.69-2.32-3.4-3.47-5.1-1-1.39-2-2.73-3-4.09s-1.9-2.61-2.91-3.87c-.85-1-1.69-2.07-2.53-3.1-.55-.67-1.08-1.35-1.65-2l.14.16a89.47,89.47,0,0,0-7.84-7.86,1.37,1.37,0,0,0,.18.16c-2.35-2.05-4.82-3.95-7.27-5.89-.2-.16-.43-.31-.64-.46l-2.08-1.46-3-2.13c-2.08-1.23-4.14-2.48-6.21-3.73-.32-.19-.69-.35-1-.52l-2.26-1.14-3-1.55c-1.5-.65-3-1.31-4.51-2l-2-.87c-1.67-.74-3.4-1.35-5.12-2a82.46,82.46,0,0,0-10-2.82l-5.57-1.16-5.68-.91c-1.63-.26-3.26-.43-4.9-.63l-2.67-.33c-.55-.06-1.12-.08-1.67-.12l-5.67-.43a96.58,96.58,0,0,0-10.21.07c-1.91.13-3.82.31-5.72.59l-4.46.66c-.8.11-1.59.28-2.38.44l-3.48.7q-4.55,1.08-9,2.59l.3-.1c-1.71.59-3.44,1.19-5.11,1.91l-2.14.93-5.89,2.56c-1.26.54-2.48,1.21-3.7,1.82l-4.54,2.24.06,0-3.88,2.08c-1.24.66-2.51,1.3-3.73,2-3.49,2-7,3.9-10.38,6.13a47.77,47.77,0,0,0-4.45,3.46l.21-.19a44.13,44.13,0,0,0-3.45,3.39,54.2,54.2,0,0,0-3.9,5,76.08,76.08,0,0,0-4.64,8l.12-.24c-1.27,2.53-2.42,5.12-3.58,7.7-.69,1.54-1.35,3.08-2,4.63s-1.44,3.31-2.07,5c-.74,2-1.49,3.91-2.21,5.88l-1,3.49c-.25.85-.51,1.7-.77,2.55-.1.35-.24.7-.31,1.06-.52,2.53-1.13,5-1.65,7.56q-.54,3.76-1.09,7.53c-.05.3-.06.61-.08.91l-.21,2.44c-.1,1.2-.2,2.39-.31,3.58a89.25,89.25,0,0,0,0,10.6,1.09,1.09,0,0,0,0-.18,59.6,59.6,0,0,0,1.07,7.53,2.21,2.21,0,0,1,0-.25,80.13,80.13,0,0,0,2.76,9.83c0-.08,0-.16-.08-.23.36,1,.74,2.07,1.13,3.11.3.79.59,1.6.94,2.37l.93,2.07c.7,1.56,1.39,3.11,2.09,4.66l2.6,4.84c.68,1.27,1.43,2.49,2.17,3.72s1.54,2.58,2.37,3.83c1,1.54,2,3.07,3,4.61l3.7,5.17c1,1.44,2.15,2.8,3.23,4.19s2,2.54,3,3.77l4.23,5a108,108,0,0,0,8.36,8.35l-.09-.08c.81.72,1.63,1.45,2.49,2.11l1.75,1.32,3.19,2.43,3.76,2.48a70.83,70.83,0,0,0,7.17,4.13,81.47,81.47,0,0,0,9,3.82l-.31-.11a107.38,107.38,0,0,0,12.66,3.49l7,1.25c.27,0,.54.07.8.1l2.22.26,3.61.44,3.35.2c.8.06,1.61.11,2.41.15.3,0,.6.06.9.06l7.51-.05,7.18-.6c.82-.07,1.64-.21,2.45-.32l4.73-.63c2.31-.3,4.62-.68,6.93-1s4.58-.73,6.86-1.1c2.5-.41,5-.93,7.46-1.43,2.22-.52,4.41-1.12,6.56-1.85h0a53.64,53.64,0,0,0,6-2.51,60.63,60.63,0,0,0,6-3.5q2.09-1.43,4.08-3l3.83-3c1.86-1.45,3.66-3,5.49-4.47l5.4-4.47c1.75-1.46,3.46-2.95,5.19-4.44,1.43-1.33,2.83-2.69,4.13-4.15a47.41,47.41,0,0,0,3.2-4.13,53.75,53.75,0,0,0,3.22-5.55c.85-1.73,1.59-3.51,2.36-5.27l1-2.22c.27-.63.51-1.29.76-1.93.43-1.12.85-2.25,1.25-3.39a78.79,78.79,0,0,0,2.39-8.83,52.77,52.77,0,0,0,.81-6,53.47,53.47,0,0,0,0-6.33,40.87,40.87,0,0,0-.61-4.67,54.56,54.56,0,0,0-1.65-5.88,56.94,56.94,0,0,0-2.55-5.7c-1.18-2.33-2.51-4.58-3.79-6.86-.71-1.26-1.49-2.49-2.27-3.71l-.58-.83a3,3,0,0,1-.58-2.15,2.88,2.88,0,0,1,5.14-1.37,72,72,0,0,1,4.52,6.91c1.25,2.08,2.48,4.18,3.57,6.35.72,1.42,1.42,2.86,2,4.34a41.72,41.72,0,0,1,1.61,5,41.3,41.3,0,0,1,1.07,5.15,42.34,42.34,0,0,1,.39,5.28,51.64,51.64,0,0,1-.8,10.24,73,73,0,0,1-2.55,10c-.5,1.53-1.07,3-1.65,4.52-.33.87-.67,1.74-1,2.59l-1.86,4.18c-.68,1.53-1.4,3-2.18,4.51a48.92,48.92,0,0,1-5.4,8.19q-1.44,1.77-3,3.39c-1,1-2,2-3.13,3-1.7,1.43-3.39,2.89-5.11,4.3s-3.61,3-5.43,4.45-3.67,3-5.55,4.48c-2.51,1.93-5,3.89-7.6,5.68a63.17,63.17,0,0,1-8.31,4.84,55.52,55.52,0,0,1-9.32,3.46c-3.27.92-6.61,1.5-9.94,2.14-.88.17-1.77.29-2.65.43l-4.3.67c-2.41.38-4.82.7-7.22,1.05s-4.65.6-7,.89-4.5.42-6.76.59l-1.87.15c-.3,0-.62.06-.93.06Z"/><path d="M1689.55,242.58a1.33,1.33,0,0,1-.8-.53,1.75,1.75,0,0,1-.27-1,1.73,1.73,0,0,1,.24-.85c-.24,0-.47,0-.7.08h0a.45.45,0,0,1-.55-.3.45.45,0,0,1,.37-.56c.34,0,.69,0,1-.07h0a5.23,5.23,0,0,1,.56,0l.27-.2a2.79,2.79,0,0,1,1.27-.43,2,2,0,0,1,1.2.29,1.61,1.61,0,0,1,.72.94,1.93,1.93,0,0,1-.11,1.23,1.51,1.51,0,0,1-.32.47,1.62,1.62,0,0,1-.56.41,1.75,1.75,0,0,1-.59.14,1.55,1.55,0,0,1-.56-.11,1.24,1.24,0,0,1-1,.54A.9.9,0,0,1,1689.55,242.58Z"/><path d="M1735.35,265l-.06-.2-.33-.89a5.09,5.09,0,0,1-.46-1.78,3.7,3.7,0,0,1,.62-2.07,3.31,3.31,0,0,1,.41-.5,1.61,1.61,0,0,1,.33-.5,1.52,1.52,0,0,1,2.36.31l.11.19a1.45,1.45,0,0,1-.36,1.85,1.47,1.47,0,0,1-.72.29l0,.08,0-.08h0v0l0,0,0,0-.06.13a1.21,1.21,0,0,1-.05.18.34.34,0,0,1,0,.1.57.57,0,0,0,0,.13.88.88,0,0,0,0,.17c.08.39.21.77.32,1.15v0l.27.79a1.23,1.23,0,0,1-.86,1.51,1.12,1.12,0,0,1-.32,0A1.24,1.24,0,0,1,1735.35,265Z"/><path d="M1699.4,307.31a38.28,38.28,0,0,1-8.35-2.78,32.5,32.5,0,0,1-7.19-4.7,28.65,28.65,0,0,1-2.78-2.73,17.82,17.82,0,0,1-2.32-3.14,5.7,5.7,0,0,1-.88-3.26,1.64,1.64,0,0,1,1.06-1.6,1.32,1.32,0,0,1,1.54.75,1.27,1.27,0,0,1,0,.94v.11h0a2.35,2.35,0,0,0,.08.6l0-.17a2.76,2.76,0,0,0,.08.27c.05.14.11.27.17.4a12.47,12.47,0,0,0,.66,1.11c.33.46.68.89,1,1.32a28.84,28.84,0,0,0,2.3,2.26,33.28,33.28,0,0,0,2.9,2.23,28,28,0,0,0,2.86,1.66,32.52,32.52,0,0,0,3.7,1.56,36.91,36.91,0,0,0,4.39,1.18l-.24-.05a45.59,45.59,0,0,0,5.71.79c1.51.07,3,.06,4.52,0h0a43.78,43.78,0,0,0,4.85-.64,60.73,60.73,0,0,0,7.13-2c1.65-.58,3.27-1.23,4.89-1.88,1-.39,1.89-.84,2.83-1.28,1.1-.58,2.18-1.17,3.23-1.84a2.54,2.54,0,1,1,2.57,4.39c-1.12.68-2.28,1.27-3.45,1.85-.86.42-1.76.77-2.64,1.15-.41.18-.85.31-1.28.46l-2,.73a61,61,0,0,1-7.38,2.13c-1.42.32-2.86.59-4.31.79a42,42,0,0,1-4.76.32h-.48A40.76,40.76,0,0,1,1699.4,307.31Z"/></svg>