<svg id="Layer_1" data-name="Layer 1" xmlns="http://www.w3.org/2000/svg" viewBox="0 0 1920 1080"><defs><style>.cls-1{font-size:60px;font-family:VarelaRound-Regular, Varela Round;}.cls-2{letter-spacing:-0.01em;}.cls-3{letter-spacing:-0.01em;}.cls-4{letter-spacing:0em;}.cls-5{letter-spacing:-0.01em;}.cls-6{letter-spacing:-0.01em;}.cls-7{letter-spacing:0em;}.cls-8{letter-spacing:0em;}.cls-9{letter-spacing:-0.01em;}.cls-10{letter-spacing:-0.02em;}.cls-11{letter-spacing:-0.01em;}.cls-12{letter-spacing:-0.03em;}.cls-13{fill:#1a1a1a;opacity:0.8;}.cls-14{fill:#b3f4ff;}</style></defs><text class="cls-1" transform="translate(127.45 435.49)">Kn<tspan class="cls-2" x="76.74" y="0">o</tspan><tspan x="112.8" y="0">w th</tspan><tspan class="cls-3" x="235.38" y="0">a</tspan><tspan class="cls-4" x="268.38" y="0">t one d</tspan><tspan class="cls-5" x="467.33" y="0">a</tspan><tspan x="500.51" y="0">y </tspan><tspan x="0" y="72">soon things will be </tspan><tspan x="0" y="144">back </tspan><tspan class="cls-2" x="151.86" y="144">t</tspan><tspan x="174.36" y="144">o normal, a time </tspan><tspan x="0" y="216">when g</tspan><tspan class="cls-6" x="208.02" y="216">r</tspan><tspan x="230.1" y="216">o</tspan><tspan class="cls-7" x="266.58" y="216">c</tspan><tspan x="298.32" y="216">ery </tspan><tspan class="cls-8" x="403.07" y="216">s</tspan><tspan class="cls-9" x="431.63" y="216">t</tspan><tspan x="454.13" y="216">o</tspan><tspan class="cls-10" x="490.61" y="216">r</tspan><tspan class="cls-4" x="512.69" y="216">es </tspan><tspan class="cls-2" x="0" y="288">w</tspan><tspan x="47.1" y="288">o</tspan><tspan class="cls-11" x="83.58" y="288">n</tspan><tspan x="119.28" y="288">’t seem so </tspan><tspan class="cls-12" x="420.35" y="288">f</tspan><tspan x="441.53" y="288">ormal.</tspan></text><circle class="cls-13" cx="1436.5" cy="545.5" r="409.5"/><path class="cls-14" d="M1574,706.29c.21-1,.41-1.93.58-2.9q-.66,2.77-1.31,5.55C1573.51,708.06,1573.75,707.17,1574,706.29Zm-251.48,295.3a36.85,36.85,0,0,1-13-1.3l-3-.78c-8.82-2.25-17.24-11-18.79-20l-.45-2.56c-.84-4.86-1.37-9.47-.4-14.37a106.58,106.58,0,0,1,2.71-12.33c2-6,4-12,6.12-17.9,3.42-9.53,6.24-19.16,8.76-28.94.5-2.21,1-4.41,1.49-6.62,1-4.48,2.13-8.91,3.27-13.34a44.33,44.33,0,0,1,1.28-5q3.54-9.27,7.1-18.54c.49-1.28,1.25-2.52,1.86-3.75,1.05-2.09,2.09-4.19,3.14-6.28,7.33-14.65,16.57-28.19,24.86-42.29,9-17.85,16.89-36.29,24.27-54.89,6.42-18.54,12.17-37.31,17.47-56.19,3.07-14.11,5.58-28.33,8.34-42.5,1.57-8.1,3.2-16.19,4.2-24.38q1.29-10.51,2.49-21c.4-5.12.72-10.2.87-15.35.11-3.7.06-7.39,0-11.08-.28-4.86-.56-9.72-1-14.56-.42-4.22-1-8.38-1.59-12.55-1.67-8.78-3.32-17.57-5.15-26.32-1.16-5.55-2.34-11.08-3.69-16.6-.73-3-1.57-5.89-2.44-8.81-3-8.32-6.15-16.57-9-24.94-2.18-6.44-4.08-12.95-6-19.47-1-3.44-1.82-6.94-2.86-10.37s-2.2-7.07-3.29-10.6l2.07,6.67a163.36,163.36,0,0,0-6.31-16.05c-2-4.14-4.09-8.25-6.28-12.33-2.6-4.85-5.38-9.58-8.16-14.33-5.77-9-11.63-17.89-17-27.07-5.24-8.86-10.41-17.75-15.69-26.58-4-6.07-8.1-12.06-12.47-17.9-5.23-7-10.5-13.9-15.94-20.72q-4.35-5.22-8.69-10.45c-7.13-8.54-14.32-17-21.83-25.22-6.58-7.19-13.52-14.07-20.54-20.83-12.15-10.67-24.55-21-36.54-31.86a114,114,0,0,1-11-11c-2.6-3.08-5.41-5.93-8.2-8.82-4.8-5-9.74-9.8-14.49-14.82a35.27,35.27,0,0,1-12.69-28c.52-14.77,11-27.06,24.36-32.4,4.9-2,10-3.43,15-4.92,4.35-1.28,8.72-2.54,13.13-3.62,8.93-2.18,17.9-4.11,26.89-6.06,10.14-2.2,20.25-4.39,30.53-5.88,9-1.3,18-2.51,27-3.52,12.89-1.44,25.86-2.27,38.77-.61,4.67.61,9.26,1.18,13.86,2.15,7,1.47,13.83,3.17,20.7,5,8.69,2.31,17.24,5.14,25.83,7.8,6.31,2,12.46,4.31,18.63,6.69a100.58,100.58,0,0,1,11.49,5.09c1,.55,2,1.1,3,1.64l3.3,1.78.41.22-2.69-1.45q3.3,1.78,6.61,3.56l.17.1,2.07,1.12h0c.18.1.36.2.55.29,9.15,4.94,17.78,11,26.19,17.08,3.4,2.46,6.9,4.8,10.14,7.47,5.08,4.18,10,8.45,14.67,13.06,13.37,13.14,24.28,28.58,35.87,43.27q6.66,8,13.35,15.92c4.48,5.34,8.84,10.77,13.22,16.2a111.9,111.9,0,0,1,7,9.54c6,9.37,12,18.75,17.45,28.44q7.24,12.79,14.59,25.52c8.87,15.35,18.35,30.36,27.47,45.56,4.77,7.93,9.39,16,14,24,2.91,5.05,5.56,10.28,8,15.53,3.54,7.51,7.06,15,10,22.83a261.84,261.84,0,0,1,10.69,37.05c2,9.38,3.9,18.78,5.88,28.15,1.84,8.76,3.59,17.56,5.94,26.2,2.41,8.84,5.12,17.58,7.72,26.36,2.69,9.09,5.11,18.21,7.23,27.45,2.4,10.43,4.14,21,5.9,31.6,1.57,9.43,3,18.85,4.09,28.34,1,8.5,1.48,17,2.66,25.51,1.28,9.27,2.76,18.51,4,27.78,1.57,11.88,1.47,24,1.45,35.93,0,2.15-.26,4.33-.41,6.48-.29,4.43-.65,8.84-1.24,13.24-.34,2.54-.54,5.15-1,7.66a137.23,137.23,0,0,1-3.74,16.07c-1.61,5.07-3.53,10-5.53,15-2.74,6.72-6.45,13.09-9.87,19.5-1.83,3.43-3.55,6.92-5.34,10.37-6,11.47-11.81,23-20.38,32.81-5.79,6.63-12,12.89-18.12,19.23q-4.39,4.74-8.8,9.47c-1.84,2-3.63,4-5.59,5.89a158.67,158.67,0,0,1-12.54,10.78c-1.69,1.31-3.38,2.66-5.17,3.82-9.33,6.09-18.65,12.27-28.14,18.1-7.66,4.7-15.39,9.05-23.41,13.09-6.54,3.29-13.07,6.51-19.45,10.08-6,4-12,8-18.28,11.53q-9.75,5.47-19.64,10.7a267.34,267.34,0,0,1-26.25,12.11,100,100,0,0,1-16.5,4.92c-4.35.9-8.68,1.3-13,1.81-4,.84-8,1.6-12.08,2.27a57.73,57.73,0,0,1-26-1.8c-.35-.11-.7-.21-1-.33-3.14,2.38-6.56,4.42-9.84,6.59-5.26,3.48-10.7,6.43-16.21,9.45-3.71,2-7.92,3.63-11.83,5.33-1.48.64-3,1.34-4.45,1.92-3.75,1.45-7.47,2.94-11.25,4.29-5.6,2-11.11,4.09-17,5.24l-4,.79C1325.68,1001.1,1324,1001.44,1322.51,1001.59Z"/><path d="M1330.13,985.41c4.2-.53,8.4-1.09,12.58-1.77l7.91-1.29c2.58-.43,5.12-1.07,7.67-1.63,4.13-.9,8.22-2,12.29-3.15,6.65-1.82,13.36-3.45,20-5.34s13.44-3.78,20.11-5.84l1.3-.4,2.6-.81.53-.18.91-.27.93-.29.93-.29-.29.09,2.25-.7.37-.11.87-.27.6-.18c.36-.11.72-.24,1.09-.37l3.63-1.29,7.34-2.61c2.24-.8,4.43-1.74,6.65-2.6,1.75-.69,3.5-1.37,5.24-2.07,8.82-3.55,17.65-7.07,26.24-11.14l8.12-3.83c1.49-.71,2.93-1.52,4.38-2.31,3.92-2.12,7.86-4.2,11.7-6.45,4-2.34,8.05-4.63,12-7l13.41-8.16c8.11-4.93,16.14-10,24.2-15,1.76-1.09,3.46-2.28,5.19-3.43l6.41-4.28c1.28-.85,2.5-1.81,3.73-2.73s2.46-1.86,3.68-2.8c2.28-1.78,4.51-3.64,6.7-5.52,2.41-2.05,4.72-4.22,7-6.4,1.36-1.29,2.73-2.58,4-3.92q10.72-11,21.38-22c3.32-3.45,6.62-6.94,9.93-10.41s6.42-7.14,9.61-10.73c1.14-1.28,2.16-2.65,3.22-4,1.55-2,3.21-3.91,4.63-6,2.9-4.23,5.79-8.48,8.69-12.71.7-1,1.33-2.1,2-3.14l5.42-8.59,4.11-6.53c.78-1.23,1.48-2.52,2.2-3.8,2.37-4.21,4.8-8.38,7-12.68l4.17-8.14c2.21-4.3,4.17-8.73,6-13.22a111.11,111.11,0,0,0,5-15.94c.79-3.37,1.45-6.74,2.06-10.15l2.46-13.76c.8-4.46,1.59-8.91,2.45-13.35.56-2.85,1.11-5.7,1.67-8.56.36-1.88.64-3.79.95-5.68.4-2.46.9-4.93,1.15-7.41l.78-7.69c.18-1.81.46-3.64.53-5.45q.18-4.47.35-8.94c.07-1.74.21-3.48.2-5.22q0-4.18,0-8.37c0-4.19,0-8.37-.13-12.55-.06-3.22-.13-6.43-.2-9.65,0-1.74,0-3.48-.13-5.21q-.39-8.37-.79-16.75c0-1.15-.17-2.28-.29-3.43q-.54-5-1.06-10c-.21-2-.34-3.94-.68-5.89s-.72-4.2-1.09-6.3c-.52-3-1-6-1.56-9-.21-1.24-.44-2.45-.74-3.67l-4.11-16.61c-.31-1.25-.75-2.48-1.14-3.7q-1.5-4.79-3-9.56c-1.1-3.46-2.2-6.93-3.32-10.38q-4.59-14.1-9.18-28.2l-4.61-14.15c-1-3-2.09-6-3.14-9.07s-2.15-6-3.28-9c-2.42-6.39-5.22-12.62-8.18-18.78-1.45-3-2.93-6-4.57-8.94l-4.51-8q-2.27-4-4.54-8c-.6-1.07-1.18-2.16-1.81-3.21-4.71-7.82-9.35-15.69-14.16-23.46l-9.87-16c-1.94-3.14-4-6.21-6-9.29q-2.6-3.93-5.2-7.86c-.71-1.07-1.4-2.15-2.14-3.2q-5.19-7.32-10.37-14.63c-5.15-7.25-10.52-14.36-15.8-21.52q-7.57-10.28-15.17-20.55l-10.8-14.68c-2.4-3.27-4.93-6.45-7.4-9.67l-5.4-7c-1.89-2.46-3.88-4.85-5.87-7.24q-6.06-7.29-12.6-14.14c-4.47-4.66-9.15-9.11-13.94-13.43s-10.12-8.49-15.31-12.57c-1.7-1.35-3.44-2.65-5.17-4l-13.79-10.44c-3.52-2.66-7.09-5.25-10.62-7.87-3.13-2.32-6.22-4.69-9.42-6.9L1423,174.15c-1.1-.75-2.24-1.43-3.36-2.14l-8.76-5.54c-3.65-2.31-7.4-4.45-11.14-6.62l-6.47-3.76c-1.48-.85-3-1.57-4.56-2.35l-8.29-4.23c-1.24-.64-2.47-1.24-3.75-1.79l-8.47-3.7c-1.76-.76-3.51-1.6-5.3-2.28l-15-5.72c-1.14-.43-2.29-.82-3.45-1.2l-9.59-3.21c-4.29-1.44-8.66-2.62-13-3.87s-8.8-2.16-13.22-3.17c-1.76-.41-3.57-.61-5.35-.89-2-.33-4.09-.76-6.15-.93l-8.19-.68c-1.92-.16-3.83-.19-5.76-.22-2.17,0-4.35-.15-6.53-.12l-8.62.12c-4.26.06-8.51.26-12.77.41-2.49.08-5,.36-7.49.54-2.15.16-4.27.38-6.42.61-4.45.49-8.89,1-13.32,1.6-2.3.31-4.58.63-6.87,1-1.58.25-3.14.56-4.7.91a15.14,15.14,0,0,0-2.07.67,2.82,2.82,0,0,0-.66.47,1,1,0,0,0,.27,1.67,3.57,3.57,0,0,0,.64.11l.37,0a.88.88,0,0,0,1-.61c.33-.07.66-.13,1-.17l-.15,0c3.55-.57,7.14-.87,10.73-1.19l9.34-.8c1.31-.11,2.62-.19,3.93-.29,1.58-.12,3.17-.28,4.75-.35l9.94-.42c5.13,0,10.25,0,15.38,0,2.29.05,4.57.05,6.85.17l9.18.49,10,1.19c.38,0,.77.16,1.16.23l3.49.68,5.29,1,10.32,2.73c1,.26,1.93.6,2.88.9l6.73,2.13c6,1.91,11.9,4.15,17.82,6.3l12.58,5.08c1.16.47,2.35.9,3.48,1.43,2,.92,4,1.86,6.06,2.79,3.38,1.56,6.83,3,10.11,4.79l12.21,6.57,12.55,7.62c3.52,2.15,6.92,4.47,10.37,6.74,2,1.34,4,2.67,6.06,4,1.18.78,2.3,1.64,3.45,2.47l12,8.58c6.39,4.9,12.82,9.74,19.15,14.7,11.43,8.94,23.06,17.7,33.71,27.57a264.07,264.07,0,0,1,21.16,22.45l-.06-.07c2.44,2.93,4.89,5.87,7.18,8.93l5.13,6.83c2.64,3.52,5.35,7,7.92,10.58q8.22,11.44,16.47,22.88l18,24.82c2.16,3,4.34,5.95,6.44,9l10.53,15.07c1.58,2.26,3,4.6,4.56,6.91q3.3,5.08,6.62,10.17l11.18,18.28c3.09,5.05,6.08,10.17,9.12,15.25q2.58,4.35,5.18,8.7c1.09,1.84,2.09,3.74,3.13,5.61l6.53,11.74c.62,1.12,1.24,2.24,1.87,3.36s1,2.07,1.56,3.1c1.13,2.27,2.22,4.57,3.29,6.87q4.37,9.59,7.89,19.5c1.72,4.79,3.39,9.62,4.93,14.47q2.92,9.22,5.86,18.43,4.27,13.45,8.51,26.92,2.71,9,5.46,17.89c.21.68.33,1.4.5,2.09l1.53,6.43q1.18,5,2.38,10,1.08,6.65,2.17,13.31c.21,1.27.47,2.54.6,3.82l.75,7.78q.39,4.14.8,8.27c.12,1.21.14,2.42.19,3.63q.28,7.3.58,14.62c.12,7.59.27,15.19.25,22.77l0,8.81c0,1.2,0,2.41,0,3.61l-.63,13.53c-.3,2.81-.6,5.64-.91,8.45-.12,1.18-.25,2.35-.38,3.52s-.36,2.17-.54,3.24c-.47,2.77-.87,5.56-1.42,8.32q-1.07,5.34-2.12,10.68c-1.09,5.46-2.05,10.94-3.05,16.42-1.13,6.23-2.18,12.47-3.62,18.64a117.93,117.93,0,0,1-3.81,12.29,161.1,161.1,0,0,1-6.87,15.08q-2.33,4.51-4.66,9l-6.67,11.78c-.51.9-1.11,1.77-1.67,2.65l-4.86,7.71c-2,3.15-3.91,6.36-6,9.43l-8,11.7c-1.12,1.44-2.25,2.87-3.37,4.3s-2.08,2.79-3.23,4.08l-8.29,9.32q-9.37,9.81-18.78,19.59c-2.9,3-5.82,6-8.75,9l-5,5.06c-1.85,1.89-3.83,3.69-5.76,5.5q-3.25,3-6.66,5.87c-4.22,3.45-8.56,6.76-13.1,9.79l-8.09,5.39q-18.87,11.73-37.84,23.27c-3.33,2-6.73,3.94-10.1,5.91-2.63,1.54-5.28,3-8,4.48q-3.37,1.82-6.74,3.64c-.87.47-1.72.93-2.61,1.35l-10.57,5c-3.5,1.5-7,3.09-10.49,4.51l-12.42,5c-3.66,1.47-7.35,2.88-11,4.31-1.9.74-3.86,1.37-5.78,2l-5.71,2-1.21.38-.85.27-2.31.71-1.66.52c-.25.06-.49.14-.72.22l-2.17.68-.53.16c-2.36.73-4.74,1.41-7.12,2.11-4.41,1.29-8.83,2.54-13.25,3.81s-8.8,2.35-13.21,3.51c-4.18,1.1-8.35,2.28-12.54,3.36-2,.5-4,1.06-6,1.49l-7,1.54-8.12,1.32c-2.8.46-5.61.8-8.41,1.2s-5.32.69-8,1c-1.17.15-2.34.24-3.51.35s-2.62.29-3.94.38l-16.6,1.12-2.19.17,1.67-2.36c1.41-2,2.62-4.17,3.88-6.26s2.31-3.94,3.5-5.88c2.68-4.4,5.3-8.85,8.14-13.15,1.49-2.27,2.93-4.59,4.49-6.82l4.46-6.39q4.14-5.68,8.36-11.29c2.62-3.48,5.23-7,7.79-10.48,1.18-1.62,2.39-3.22,3.5-4.88l4.74-7.09c1.28-1.91,2.42-3.93,3.63-5.89,1-1.69,2.06-3.37,3.06-5.09q3.91-6.75,7.78-13.52c.88-1.54,1.79-3.06,2.72-4.58,1.24-2,2.41-4.08,3.73-6l8.59-12.72c1-1.56,2-3.15,3-4.75,1.2-2,2.44-3.94,3.52-6l3.72-7.06c.32-.6.58-1.24.86-1.85l2.25-5c.76-1.65,1.45-3.33,2.14-5,.93-2.23,1.9-4.46,2.75-6.74,1.63-4.34,3.28-8.66,4.77-13.06.82-2.43,1.65-4.85,2.47-7.28.74-2.2,1.36-4.44,2-6.66,1.42-4.61,2.72-9.24,4-13.88s2.41-9.16,3.57-13.75c.47-1.83.85-3.7,1.26-5.55.49-2.22,1-4.44,1.46-6.67.49-2.61,1-5.21,1.45-7.82.36-1.94.79-3.89,1.08-5.85q.6-3.93,1.18-7.86c.37-2.47.82-4.93,1.06-7.41q.69-6.95,1.39-13.91c.07-.65.06-1.32.09-2,.06-1.5.13-3,.19-4.48q.18-4.05.34-8.08c.09-2,0-4.09.06-6.13,0-2.32,0-4.65.05-7q.11-7.54.22-15.1c.08-4.81.26-9.61.39-14.42.12-4.41.42-8.84.64-13.25s.71-8.5.85-12.76q.29-8.26.56-16.52c0-1.42-.06-2.87-.09-4.29-.09-3.46-.17-6.93-.25-10.39,0-1.7,0-3.44-.14-5.13-.22-2.43-.45-4.85-.68-7.28-.26-2.87-.53-5.73-.8-8.6-.14-1.54-.42-3-.68-4.57q-.81-4.69-1.61-9.41c-.28-1.63-.48-3.31-.88-4.93l-3.72-15c-.41-1.65-.89-3.29-1.33-4.94q-1.34-4.92-2.66-9.84c-1.08-4-2-8-3-12.05-2.37-9.61-4.83-19.2-7.3-28.79-.33-1.29-.77-2.55-1.17-3.82q-1.56-4.83-3.11-9.67c-.46-1.44-.85-2.94-1.41-4.34q-1.46-3.66-2.92-7.34c-1.6-4-3.16-8-4.83-12-1.91-4.55-3.86-9.08-5.72-13.65q-5.68-14-11.32-28.09c-1.66-4.16-3.36-8.31-5-12.46-1.6-3.95-3.35-7.82-5.1-11.71l-3.15-7c-.69-1.53-1.5-3-2.28-4.48l-4.56-8.62c-.74-1.4-1.43-2.85-2.25-4.21l-8.57-14.16c-2.44-4-5-8-7.53-12-4.73-7.51-9.27-15.13-13.76-22.78q-3.23-5.49-6.5-10.95c-2.4-4-4.7-8.09-7.25-12l-4.74-7.27-2.37-3.63c-.35-.54-.68-1.1-1.06-1.62-1.55-2.1-3.1-4.21-4.66-6.31-1.12-1.52-2.21-3.05-3.38-4.51-6.11-7.61-12.25-15.18-18.3-22.82s-12-15.09-17.93-22.67c-2.89-3.67-5.65-7.45-8.59-11.1l-6.15-7.67c-1.72-2.14-3.63-4.12-5.48-6.15l-2.72-3c-.62-.68-1.31-1.3-2-1.94-2-1.95-4-3.91-5.95-5.85-2.22-2.17-4.43-4.34-6.61-6.56-1.65-1.69-3.17-3.5-4.7-5.3-1.61-2.12-3.22-4.24-4.81-6.38s-3.32-4.36-5.15-6.4-3.81-4.24-5.91-6.18-4.22-3.95-6.52-5.7a6.6,6.6,0,0,0-3.75-1.42,6.28,6.28,0,0,0-4.79,10.59c1.41,1.37,2.87,2.67,4.33,4s2.68,2.59,4,3.93,2.58,2.82,3.84,4.27,2.35,3,3.47,4.55q2.09,2.85,4.18,5.69c1.26,1.71,2.66,3.31,4,4.94,1.49,1.8,3.14,3.46,4.73,5.15s3.38,3.4,5,5.09,3.2,3.23,4.8,4.84c3.08,3.11,5.93,6.44,8.84,9.7,2.57,3.25,5.17,6.48,7.68,9.78,2.94,3.88,5.88,7.77,8.87,11.62,6,7.67,12,15.31,17.93,23,5.54,7.12,11.17,14.16,16.75,21.25,1.46,1.85,2.78,3.83,4.16,5.73,1.15,1.59,2.38,3.14,3.44,4.79q3.93,6.07,7.84,12.16c4.07,6.87,8.17,13.73,12.19,20.63,1.86,3.2,3.71,6.41,5.62,9.58,2.4,4,4.73,8,7.19,11.9s5.13,8.17,7.69,12.26c2.1,3.35,4.1,6.76,6.15,10.15,1.16,1.94,2.33,3.87,3.5,5.81.58,1,1.07,2,1.59,3l6.84,12.94q3,6.67,6,13.37c1.83,4.07,3.41,8.25,5.09,12.39,3.22,7.95,6.39,15.93,9.61,23.89,1.66,4.09,3.3,8.18,5,12.25,1.85,4.42,3.77,8.81,5.54,13.25q3.18,8,6.34,15.93c.43,1.08.79,2.18,1.14,3.29q1.56,4.83,3.11,9.67c.36,1.14.73,2.27,1.09,3.41,1.73,6.7,3.51,13.38,5.16,20.1,1.8,7.28,3.5,14.59,5.46,21.82l3.69,13.68c.91,3.39,1.7,6.82,2.54,10.22l1.38,5.57c.26,1.06.39,2.17.57,3.24l2.1,12.25,1.59,17q.18,7.44.35,14.89c0,1.19.08,2.36,0,3.55q-.15,4.61-.31,9.23l-.24,7.28c-.08,2.21-.3,4.41-.45,6.62-.34,5-.59,10-.83,14.94-.45,9.3-.58,18.62-.71,27.93q-.1,7-.14,14.08c0,1.65,0,3.3-.06,5-.13,3.08-.27,6.16-.4,9.24-.06,1.52-.13,3.05-.19,4.57,0,1-.18,1.94-.27,2.91-.35,3.45-.69,6.9-1,10.36-.91,6.18-1.77,12.36-2.91,18.5q-.58,3.17-1.18,6.33c-.2,1.13-.38,2.27-.63,3.39q-1.08,4.95-2.17,9.92c-1.06,4.2-2.07,8.42-3.24,12.6-1.34,4.8-2.67,9.6-4.13,14.37-.74,2.45-1.49,4.91-2.24,7.36s-1.66,4.91-2.48,7.36c-1.46,4.31-3.07,8.56-4.66,12.81q-1.38,3.33-2.74,6.65c-.79,1.93-1.65,3.81-2.51,5.71s-1.56,3.61-2.47,5.34L1371,834.2c-1.62,2.68-3.16,5.44-4.9,8l-6.06,9.07-3.33,5c-1,1.44-1.81,3-2.72,4.45-1.92,3.15-3.75,6.33-5.57,9.55s-3.54,6.2-5.32,9.31-3.69,6.21-5.57,9.31-3.86,6-5.84,9c-1.66,2.52-3.46,4.94-5.22,7.4-3.56,4.81-7.17,9.59-10.63,14.47-3.7,5.21-7.33,10.46-10.77,15.84s-6.6,10.71-9.78,16.13c-1.4,2.38-2.73,4.78-4.1,7.17-.74,1.3-1.49,2.6-2.26,3.88s-1.46,2.3-2.22,3.43c-1.26,1.69-2.54,3.35-3.85,5-1.83,2.28-4,4.52-4.91,7.37a7.27,7.27,0,0,0,3.86,8.49,13.5,13.5,0,0,0,4.45.93c1.1.09,2.2.15,3.31.2a110,110,0,0,0,13.09-.43l13.14-.89q2.91-.2,5.8-.49C1324.43,986.12,1327.28,985.77,1330.13,985.41Z"/><path d="M1543.28,409.68c2-.44,4-1.06,5.93-1.68a46.83,46.83,0,0,0,9.47-4,32.85,32.85,0,0,0,8.22-6.91c1.12-1.3,2.12-2.68,3.15-4.05a22.46,22.46,0,0,0,2.32-3.77,3.11,3.11,0,0,0,.35-1.22,2.7,2.7,0,0,0-.39-1.29,1.34,1.34,0,0,0-1.89-.53v0a5.09,5.09,0,0,0-1.12.9l.19-.16-2,1.62a86.27,86.27,0,0,1-7.61,5.71c-1,.6-2,1.14-3,1.65a40.37,40.37,0,0,1-3.83,1.48,56.55,56.55,0,0,1-5.89,1.38,73,73,0,0,1-8.07.92c-.88,0-1.76,0-2.64-.08-1.09-.14-2.17-.34-3.25-.58a40.19,40.19,0,0,1-3.85-1.25c-1.47-.59-2.91-1.24-4.31-2-1-.54-1.89-1.13-2.82-1.72-.41-.3-.82-.6-1.22-.91a7.1,7.1,0,0,0-5.09-1.53,6.95,6.95,0,0,0-6.23,7.6,6.89,6.89,0,0,0,3.24,5.21,56.5,56.5,0,0,0,14,5.23,35.58,35.58,0,0,0,10.83.94l.49,0A43.88,43.88,0,0,0,1543.28,409.68Z"/><path d="M1441.58,421.29a26.45,26.45,0,0,0,7.93-4.39,19.36,19.36,0,0,0,4.94-6.22c1-1.87,1.92-4.3,1.26-6.42a2.57,2.57,0,0,0-2.6-2.08,1.31,1.31,0,0,0-.22,2.56c0,.07,0,.14,0,.22s0,.19,0,.28,0,.25,0,.37l-.06.39c0-.07,0-.13,0-.19a6.37,6.37,0,0,1-.26.95c-.2.47-.41.92-.64,1.37-.34.61-.71,1.2-1.11,1.78q-.47.63-1,1.23a20.28,20.28,0,0,1-1.51,1.42c-.55.43-1.12.84-1.7,1.22s-1.19.67-1.81,1a32.26,32.26,0,0,1-3.1,1.17c-.91.25-1.83.46-2.76.64a44.87,44.87,0,0,1-5.31.56,42.86,42.86,0,0,1-4.67-.15,30,30,0,0,1-3.1-.55c-1-.26-2-.57-3-.93s-2.07-.89-3.08-1.4c-.76-.43-1.51-.89-2.25-1.35-1-.72-1.88-1.46-2.84-2.17a5.83,5.83,0,0,0-4.12-1.25,5.63,5.63,0,0,0-1.78,10.73,34.35,34.35,0,0,0,4.3,1.42c1.32.39,2.62.83,4,1.19a41,41,0,0,0,4.78,1,34.55,34.55,0,0,0,8.56.17A47.86,47.86,0,0,0,1441.58,421.29Z"/><path d="M1532.28,663.6a4.71,4.71,0,0,0,2.79-2,4.53,4.53,0,0,0,.57-3.46,4.6,4.6,0,0,0-6.06-3.18l-.69.25a44.09,44.09,0,0,1-4.43,1.1,32.35,32.35,0,0,1-3.27.35c-.78,0-1.55,0-2.33,0-.08-.71-.15-1.42-.23-2.12-.16-1.41-.28-2.84-.37-4.26-.21-3.25-.29-6.52-.59-9.76q-.9-9.43-1.9-18.86c-.69-6.54-1.32-13.1-2.07-19.64q-.63-5.47-1.24-10.93c-.14-1.28-.36-2.55-.54-3.82l-1-6.67c-.65-4.55-1.42-9.09-2.19-13.62,0,.19.07.37.1.55-.56-3.51-1-7.06-1.47-10.59-.45-3.26-.85-6.54-1.28-9.8s-1-6.44-1.53-9.65c-.18-1.07-.34-2.15-.57-3.21-.44-2-.89-4-1.33-6.06,0-.06,0-.12,0-.18-.32-1.45-.64-2.9-1-4.35-.29-1.3-.66-2.6-1-3.9-.81-3.22-1.61-6.45-2.44-9.67-1.66-6.52-3.32-13-4.93-19.57q-2.55-10.38-5.13-20.75c-.73-3-1.42-6-2.12-9-.36-1.51-.71-3-1.07-4.52-.28-1.2-.44-2.45-.66-3.67l-1.53-8.46c-.47-3.68-.93-7.36-1.41-11l-1-7.4a74.86,74.86,0,0,0-2.82-12.37l.06.18a7.52,7.52,0,0,0-.91-2.43,1.44,1.44,0,0,0-2.57.6h0a1.63,1.63,0,0,0,.27,1.09l.09.19.09.28c.44,1.6.94,3.18,1.35,4.79.45,1.78.78,3.6,1.09,5.41s.52,3.9.74,5.87c.17,1.51.36,3,.52,4.56.37,3.52.73,7,1.1,10.55.13,1.23.38,2.46.56,3.69.36,2.26.7,4.52,1,6.79.44,2.85,1,5.65,1.62,8.47,2.56,12.57,5.22,25.12,7.88,37.67.79,3.76,1.61,7.51,2.39,11.27.89,4.23,1.72,8.48,2.65,12.7l0,.18,0-.15h0l0,.24s0,.09,0,.14l0-.11c0,.22.08.44.11.65,0-.14,0-.28-.07-.42,0,.26.09.52.13.78l-.07-.43c.06.35.12.69.17,1l-.07-.43.15.89c0-.14,0-.28-.07-.43.09.52.17,1,.26,1.56a2.74,2.74,0,0,0,0-.28c.07.38.12.77.21,1.14,0,.14,0,.28.06.42l0-.16c.06.34.12.68.17,1l0-.17c0,.25.09.5.13.75,0-.15-.05-.3-.07-.44.09.55.18,1.11.28,1.67l.12.72,0-.17a2.93,2.93,0,0,0,0,.29s0,.1,0,.16v-.11l.15.92a1.55,1.55,0,0,0,0,.21v0s0,.09,0,.13,0,.21,0,.32,0-.07,0-.1c0,.14,0,.29.07.43l0-.2c0,.08,0,.16,0,.25l0,.2s0-.09,0-.14c0,.15.05.29.07.44a.78.78,0,0,1,0-.16c0,.1,0,.19,0,.29l0,.17s0-.05,0-.08l0,.16v0l0-.1v0c.23,1.49.34,3,.51,4.52l.63,5.58c.15,1.32.23,2.65.35,4,.17,2.1.36,4.2.54,6.31.28,3.32.68,6.64,1,9.95.33,3.08.78,6.14,1.2,9.2s.78,5.83,1.15,8.75.79,6.11,1.1,9.17c.68,6.8,1.33,13.61,2,20.41q1,9.76,2,19.51c.37,3.43.75,6.87,1.06,10.31.28,3,.49,6,.92,9,.23,1.64.49,3.26.8,4.88.12.62.27,1.25.41,1.86a8.29,8.29,0,0,0,1.19,3.17c1.07,1.47,2.9,1.84,4.59,2.11a30.44,30.44,0,0,0,6,.35q1,0,2.1-.15A39.93,39.93,0,0,0,1532.28,663.6Z"/><path d="M1546.15,717.5a31.16,31.16,0,0,0,7.73-3.89c1.21-.83,2.35-1.76,3.5-2.67.87-.68,1.76-1.35,2.6-2.07,3.3-2.84,6.59-5.68,9.79-8.64,1.35-1.25,2.65-2.55,4-3.8,1.64-1.53,3.3-3,5-4.48l.93-.8,3.62-2.86,2.41-1.87c.23-.18.47-.35.68-.54s.57-.49.86-.74a1.22,1.22,0,0,0,1-1.15,1.25,1.25,0,0,0-1.1-1.62,4.79,4.79,0,0,0-2.57,1c-.6.32-1.19.68-1.79,1-1.22.7-2.42,1.42-3.62,2.15-2.23,1.36-4.44,2.79-6.59,4.28-4.59,3.16-9.19,6.29-13.87,9.32a96.82,96.82,0,0,1-9.12,5.23c-.88.39-1.76.74-2.67,1s-1.85.47-2.79.65c-1.24.18-2.48.33-3.73.4-1,0-1.92,0-2.89-.11-.68-.09-1.35-.2-2-.34-1-.27-2-.59-3-.94-3.48-1.42-6.83-3.34-10.49-4.28a6.65,6.65,0,0,0-4.16.15,6.31,6.31,0,0,0-3.63,8.2,6.53,6.53,0,0,0,3.27,3.49c1.92.95,3.91,1.72,5.9,2.5a58.76,58.76,0,0,0,5.78,2,28.5,28.5,0,0,0,9,1c.44,0,.87,0,1.3-.1A31.19,31.19,0,0,0,1546.15,717.5Z"/><path d="M1595.27,687.18a2.64,2.64,0,0,0-1.44-3.88l-.73-.19-1-.4c-.52-.29-1-.6-1.54-.93-.65-.49-1.28-1-1.88-1.55s-.9-.93-1.32-1.43a15.9,15.9,0,0,1-1-1.32c-.26-.43-.5-.88-.72-1.34s-.28-.68-.41-1a1.49,1.49,0,0,0-2.09-.77,1.51,1.51,0,0,0-.76,1.46,1.29,1.29,0,0,0,.13.61,14.77,14.77,0,0,0,2.55,5,32.05,32.05,0,0,0,4.66,4.87l1.37,1.3a2.68,2.68,0,0,0,2.15.8A2.61,2.61,0,0,0,1595.27,687.18Z"/><path d="M1521,417.41c-.07-4-.86-7.92-1-11.91,0-.59,0-1.19,0-1.79,0-.35.09-.7.16-1h0a1.53,1.53,0,0,0,.68-.86,1.56,1.56,0,0,0-.36-1.53,1.58,1.58,0,0,0-1.78-.5,3.71,3.71,0,0,0-1.85,2.68,18.72,18.72,0,0,0-.56,4.95c0,.7,0,1.4,0,2.11,0,2.58.13,5.15,0,7.72a2.37,2.37,0,0,0,2.28,2.46,1.41,1.41,0,0,0,.29,0A2.36,2.36,0,0,0,1521,417.41Z"/><path d="M1528.82,415.29a1.41,1.41,0,0,0,.72-2c-.23-.44-.44-.88-.65-1.32l-.08-.17c-.18-.44-.33-.9-.49-1.35a.5.5,0,0,1,0,.13c-.23-.79-.45-1.57-.63-2.37l-.33-1.44a8.9,8.9,0,0,0-.3-1.38,1,1,0,0,0-.33-.44.81.81,0,0,0-1.28.72.84.84,0,0,0,.15.38c0,.07,0,.13,0,.2.22,1.56.49,3.12.76,4.68.17,1.12.34,2.24.53,3.36a1.38,1.38,0,0,0,1.51,1.05A1.87,1.87,0,0,0,1528.82,415.29Z"/><path d="M1539.48,418.53a1.59,1.59,0,0,0,1.09-2.08c-.11-.31-.23-.63-.34-.95-.33-1.17-.64-2.34-.86-3.55a21.58,21.58,0,0,1-.25-2.27,1.37,1.37,0,0,0-.62-1.87,1.41,1.41,0,0,0-1.78.57,2,2,0,0,0-.26,1.21c0,.63.08,1.27.15,1.9.18,1.6.51,3.17.8,4.75.06.38.13.76.19,1.13a1.56,1.56,0,0,0,1.69,1.19Z"/><path d="M1550.91,419.57a1.43,1.43,0,0,0,.06-2.24l-.49-.38c-.24-.24-.46-.48-.68-.73l-.59-.76c-.17-.22-.34-.43-.5-.65l-1.17-1.72c-.31-.52-.64-1-1-1.56s-.58-1-.86-1.56-.52-1-.77-1.5l-.14-.28a7.5,7.5,0,0,0-.48-.88,2.42,2.42,0,0,0-.27-.36,1.57,1.57,0,0,0-.26-.19,3.88,3.88,0,0,0-.46-.22.41.41,0,0,0-.54.2.41.41,0,0,0,.2.54l.09.05.06,0,.06.07.06.08c.17.4.3.82.45,1.22.1.25.2.5.29.75s.29.72.44,1.08l.63,1.44c.2.46.43.9.65,1.35.4.84.84,1.66,1.28,2.48.2.38.41.75.62,1.13.39.72.77,1.43,1.2,2.13a1.43,1.43,0,0,0,1.38.73A1.53,1.53,0,0,0,1550.91,419.57Z"/><path d="M1559,411.42a1.21,1.21,0,0,0,.39-1.75c-.45-.59-.89-1.18-1.3-1.8s-.69-1.08-1-1.62l0,0c-.57-.89-1.14-1.78-1.74-2.65a10.93,10.93,0,0,0-.94-1.19,2.58,2.58,0,0,0-.89-.72,1,1,0,0,0-1.46,1,1,1,0,0,0,.78.89l.12.11-.1-.09c.13.13.26.27.38.41a21,21,0,0,1,1.34,1.9l-.06-.11a57.68,57.68,0,0,1,2.88,5.08,1.22,1.22,0,0,0,1.62.48Z"/><path d="M1567.49,408.88a1.14,1.14,0,0,0-.06-1.7l-.6-.51c-.26-.26-.51-.51-.75-.77s-.56-.64-.84-1l-2.13-2.62a23,23,0,0,0-2.61-2.88s0,0,0,0a4.38,4.38,0,0,0-1-.82,1,1,0,0,0-.61-.08.39.39,0,0,0-.35.44.39.39,0,0,0,.43.36h.13l.05,0,.11.06.13.1q.33.33.63.69h0c.6.76,1.12,1.57,1.66,2.37l1.32,2,1.17,1.76.6.91.44.66c.19.28.39.54.6.81a1.16,1.16,0,0,0,1,.45A1.13,1.13,0,0,0,1567.49,408.88Z"/><path d="M1579.44,402a1.5,1.5,0,0,0-1.78-1.51l-.57-.36-.76-.46c-.31-.18-.62-.36-.92-.56-.79-.52-1.6-1-2.37-1.56l-2.74-1.87-.84-.58-.76-.53-.62-.39a.8.8,0,0,0-1-.25.81.81,0,0,0-.27,1.18,3.55,3.55,0,0,0,.23.31,3.35,3.35,0,0,0,.43.41l.46.36c.4.33.81.65,1.22,1l2.5,1.93,2.16,1.66.74.58c.42.33.87.65,1.28,1a6,6,0,0,0,.83.7,2.52,2.52,0,0,0,1.1.37,1.53,1.53,0,0,0,.37,0A1.5,1.5,0,0,0,1579.44,402Z"/><path d="M1461.9,419.63a1.9,1.9,0,0,0,.47-2.94c-.27-.28-.55-.56-.8-.86a1.15,1.15,0,0,0,.14.17l-.17-.19,0,0-1.07-1.29a.21.21,0,0,1,0,.06l-.06-.08h0v0l0,0,0,0,0-.05,0,.06h0c-.75-1-1.52-2-2.26-3-.38-.55-.75-1.1-1.16-1.63l-.77-1-.28-.36a3.85,3.85,0,0,0-.68-.6.69.69,0,0,0-1.08.78h0a1.22,1.22,0,0,0,.07.17l0,.38a.56.56,0,0,0,.31.44c.6,1.35,1.32,2.65,2,3.95.4.75.81,1.5,1.22,2.25s.65,1.27,1,1.91l.4.88a2,2,0,0,0,1,1,1.94,1.94,0,0,0,1,.16A2,2,0,0,0,1461.9,419.63Z"/><path d="M1446.92,427.71a2.42,2.42,0,0,0,1.24-3.37c-.38-.68-.72-1.37-1.05-2.07s-.52-1.33-.77-2c-.33-1.1-.65-2.19-.94-3.3a29.49,29.49,0,0,0-.75-3.05,2,2,0,0,0-3.8,1.29v0c.44,1.53.65,3.13,1.06,4.68.46,1.74,1,3.45,1.55,5.17.1.34.2.67.29,1a2.47,2.47,0,0,0,2.56,1.82A2.34,2.34,0,0,0,1446.92,427.71Z"/><path d="M1438,428.81c-.4-2.73-.74-5.48-1.24-8.19a.13.13,0,0,0,0-.06v0a1.71,1.71,0,0,0-3.38.53c.05.53.16,1.05.23,1.58s.15,1.34.22,2c.12,1.1.17,2.2.21,3.3,0,.33,0,.65,0,1a2,2,0,0,0,1.93,2.07h.24A2,2,0,0,0,1438,428.81Z"/><path d="M1424.45,433.37a1.93,1.93,0,0,0,.76-1.42c.09-1,0-2,.08-3,0-1.54.1-3.09.23-4.63v.07a.45.45,0,0,1,0-.11v0c0-.27.06-.54.08-.8v0c0-.36.09-.72.16-1.08a1.82,1.82,0,0,1,.07-.25,1.37,1.37,0,0,0,.53-.31,1.36,1.36,0,0,0-.07-2,2.16,2.16,0,0,0-.77-.39,1.34,1.34,0,0,0-1.52.56,7,7,0,0,0-.65,1.24,9.37,9.37,0,0,0-.36,1.67c-.16,1.16-.27,2.32-.38,3.48v0c-.12,1.13-.3,2.25-.52,3.36-.11.4-.22.81-.35,1.21l0-.07c0,.07,0,.13-.07.19a1.87,1.87,0,0,0,1.13,2.53,1.81,1.81,0,0,0,.73.08A1.89,1.89,0,0,0,1424.45,433.37Z"/><path d="M1412.68,429.47c.75-1.76,1.5-3.51,2.39-5.2q.24-.42.51-.81l.09-.12,0,0a2,2,0,0,0-2.25-3.3,4.3,4.3,0,0,0-1.17,1.08,15.14,15.14,0,0,0-1.32,2.1c-.41.72-.79,1.46-1.18,2.19l.13-.24-1.32,2.47a2.24,2.24,0,0,0,1.11,3,2.25,2.25,0,0,0,3-1.1Z"/><path d="M1404.48,423.77c1.14-1.27,2.33-2.52,3.39-3.86a15.67,15.67,0,0,0,2.33-3.75,1.86,1.86,0,0,0-.9-2.42,1.83,1.83,0,0,0-2.42.9c0,.1-.09.19-.14.29a13.52,13.52,0,0,1-.82,1.3c-.53.7-1.1,1.36-1.7,2-.9.93-1.86,1.8-2.83,2.66a2.13,2.13,0,0,0-.09,3,2.05,2.05,0,0,0,1.71.64A2.27,2.27,0,0,0,1404.48,423.77Z"/></svg>