<svg id="Layer_1" data-name="Layer 1" xmlns="http://www.w3.org/2000/svg" viewBox="0 0 1920 1080"><defs><style>.cls-1{fill:#1a1a1a;opacity:0.8;}.cls-2{fill:#f3f3ff;}.cls-3{fill:#b3f4ff;}</style></defs><circle class="cls-1" cx="1553.5" cy="443.5" r="327.5"/><path class="cls-2" d="M1158.28,551.18c0,23.17-43.85,90.84-.75,107.37C1184.33,668.82,1261,681,1299,687c39.83,6.25,153.88,12,201.28,12,50.88,0,148.1,2.65,190-4.49,38-6.45,63-53.14,68.09-80.81,11.22-60.6,2.72-73.07-14.22-86.79-43.4-35.17-62.1-20.2-104-17.21-25.92,1.85-29.13-33.1-57.62-55.37-41.15-32.18-24.69-122-158.62-122-49.23,0-76.52,31.8-113,51.62-34.42,18.71-29.27,83.92-53.87,92.79C1210.35,493.55,1158.28,526.94,1158.28,551.18Z"/><path d="M1583.13,701.07c6.36-.05,12.72-.34,19.06-.59q10.95-.45,21.91-.72l9.75-.26c3.29-.09,6.6-.23,9.88-.47s6.72-.46,10.08-.77l10.91-1q5.28-.51,10.58-1c2.92-.27,5.86-.48,8.78-.8l6.24-.68c1.58-.17,3.14-.46,4.71-.7,2.45-.37,4.86-.81,7.29-1.34a82,82,0,0,0,10.83-3.32l5.34-2c1.73-.65,3.42-1.42,5.12-2.13,1.24-.51,2.45-1.06,3.67-1.61,1.66-.76,3.33-1.49,5-2.35s3.56-1.83,5.28-2.85a65.78,65.78,0,0,0,9.45-6.68,53.61,53.61,0,0,0,7.73-7.63c1.14-1.45,2.22-2.89,3.29-4.39s2-3,3-4.55a83.47,83.47,0,0,0,5-9.23c.36-.74.63-1.55.94-2.31.23-.58.44-1.15.65-1.73.69-2,1.37-4,2-6,1-3.28,1.93-6.59,2.79-9.92.41-1.56.75-3.12,1.1-4.7.21-1,.47-1.94.62-2.9s.28-1.94.43-2.91a86.53,86.53,0,0,0,.79-10.42c.1-3.23.1-6.47-.07-9.7-.12-2.27-.22-4.55-.42-6.82a78.12,78.12,0,0,0-2.53-14.24,86.48,86.48,0,0,0-4.88-12.93c-.92-2-2-4-3-5.94-.68-1.33-1.45-2.61-2.2-3.9s-1.63-2.77-2.49-4.13c-1-1.53-1.91-3.1-3-4.58l-3.52-5c-.89-1.25-1.89-2.44-2.83-3.65s-1.8-2.27-2.76-3.37l-3.79-4.39c-1.29-1.49-2.71-2.86-4.08-4.27-.92-.94-1.81-1.9-2.79-2.77l-4.7-4.21c-1.36-1.22-2.86-2.28-4.31-3.39s-2.75-2-4.17-3c-1.26-.84-2.5-1.73-3.82-2.5-1.75-1-3.49-2.13-5.31-3-2.47-1.23-4.91-2.48-7.47-3.51a58.48,58.48,0,0,0-15.52-3.81,59.52,59.52,0,0,0-20.28,1.62l-2.82.67a53,53,0,0,0-7.14,2.39,56.09,56.09,0,0,0-13.71,8c-2.48,1.9-4.73,4.1-7,6.23l-4.34,4.09h0a86.8,86.8,0,0,1-6.78,5.48l-.24.13a.67.67,0,0,0-.07,1.32,1,1,0,0,0,.42,0,20.92,20.92,0,0,0,2.63-1.22,60.07,60.07,0,0,0,5.36-3.19c1.52-1,2.95-2.1,4.42-3.16s3.07-2.19,4.6-3.29c1.84-1.19,3.7-2.34,5.66-3.36a55.31,55.31,0,0,1,5.54-2.38c1.93-.64,3.87-1.18,5.86-1.63s4.23-.72,6.37-.93c1.43-.09,2.87-.23,4.3-.23,2.6,0,5.19,0,7.78.13a46.95,46.95,0,0,1,12.67,2.68c2.23.83,4.4,1.75,6.54,2.78,2.33,1.22,4.58,2.58,6.84,3.92.68.41,1.32.88,2,1.32l2.25,1.5,4.71,3.5c.87.64,1.67,1.39,2.5,2.08l2.07,1.71,5,4.76c.86.82,1.64,1.77,2.45,2.65l2.51,2.7c2.08,2.51,4.18,5,6.14,7.61,1,1.32,2,2.61,2.94,4l2.76,4c1.09,1.77,2.18,3.53,3.26,5.3s2.07,3.63,3.09,5.45c.62,1.23,1.23,2.46,1.84,3.69a80.07,80.07,0,0,1,3.62,8.54,70.83,70.83,0,0,1,2.1,7.54c.55,3,.91,5.92,1.17,8.91.14,2.65.29,5.3.3,7.95,0,1.28.06,2.56,0,3.84l-.15,4.57c-.11,1.28-.21,2.56-.31,3.84-.07.78-.24,1.56-.36,2.33s-.21,1.4-.31,2.1l-.89,4c-.36,1.66-.86,3.31-1.29,5-.78,3-1.72,5.92-2.63,8.86-.46,1.32-.92,2.63-1.45,3.93s-1.18,2.72-1.82,4.06-1.37,2.5-2.11,3.73-1.58,2.52-2.39,3.77l-1.76,2.47c-.6.86-1.29,1.67-2,2.49-.51.57-1,1.13-1.54,1.69s-1.31,1.26-2,1.87c-1.84,1.55-3.71,3.06-5.69,4.46a58.42,58.42,0,0,1-5,3c-1.11.58-2.22,1.16-3.32,1.75-3,1.34-5.9,2.66-8.89,3.91s-6,2.36-9,3.49c-1.61.55-3.22,1.07-4.86,1.54s-3.06.78-4.6,1.11c-4.86.93-9.79,1.44-14.71,2-4.5.49-9,.82-13.54,1.22-4.2.38-8.4.82-12.6,1.21-4.49.42-9,.78-13.51,1.11q-9.9.44-19.81.67c-7.05.16-14.1.43-21.15.71-13,.53-26.06.87-39.08.47-7-.22-14-.45-21-.58q-10.86-.2-21.73-.45c-13.73-.35-27.45-1-41.16-1.72-11.18-.64-22.35-1.37-33.53-2.11l-21.25-1.55c-6.25-.45-12.51-.88-18.77-1.18l-12.08-.58c-3.63-.17-7.28-.24-10.91-.36-6.47-.22-12.93-.4-19.39-.71l-6.77-.33c-13.54-.93-27.07-2-40.6-3.06-13-1-26-1.82-39-2.79s-25.78-2-38.65-3.33c-6.24-.63-12.48-1.38-18.7-2.15-3.2-.39-6.39-.84-9.59-1.27-2.85-.39-5.69-.92-8.52-1.39l-6.44-1.34c-1.38-.29-2.75-.73-4.12-1.09-1.71-.45-3.39-.94-5.07-1.49a66.24,66.24,0,0,1-6.33-2.67c-1.39-.74-2.76-1.52-4.1-2.36-1-.7-1.91-1.42-2.83-2.18s-1.65-1.58-2.43-2.42a73,73,0,0,1-4.51-5.86c-1.9-2.87-3.62-5.83-5.37-8.8-.48-.82-.87-1.69-1.3-2.53-.5-1-1-2-1.51-3-1.06-2.31-2-4.64-2.92-7a103.39,103.39,0,0,1-3-11c-.47-2.44-.8-4.9-1.17-7.36-.26-1.74-.36-3.51-.51-5.27-.1-2.66-.07-5.31.08-8,.26-3.06.74-6.1,1.17-9.15.47-2.15.92-4.3,1.39-6.45.22-1,.6-2,.89-3.06.38-1.29.77-2.58,1.15-3.88q1.1-3,2.21-5.94c.3-.81.71-1.6,1.06-2.4l1.39-3.13,2.18-4.14c.72-1.37,1.54-2.67,2.34-4s1.7-2.85,2.63-4.23l2.7-4,4.05-5.32c.55-.72,1.17-1.38,1.75-2.07s1.39-1.63,2.08-2.45c2.17-2.32,4.33-4.64,6.57-6.9s4.41-4.29,6.65-6.4c2.23-1.87,4.44-3.73,6.74-5.5,1.07-.83,2.13-1.68,3.24-2.45l3.93-2.74c2.71-1.69,5.39-3.38,8.22-4.86,1.7-.8,3.42-1.53,5.19-2.19a68.25,68.25,0,0,1,6.9-1.88c2.2-.4,4.41-.67,6.63-1,1.35-.18,2.72-.26,4.09-.35,2.07-.09,4.13-.18,6.19-.2,2.3,0,4.59,0,6.89.1,1.92.14,3.84.28,5.75.48,2.14.22,4.27.48,6.4.75s4.46.51,6.67.85c1.08.16,2.17.29,3.24.5l2.76.56c2.47.66,4.93,1.34,7.38,2.09l-.35-.13c.85.29,1.73.57,2.55.93l3.36,1.47c1,.51,2,1,3,1.53,1.43.72,2.8,1.56,4.19,2.34,2.68,1.5,5.31,3.09,8,4.63,5.5,3.18,10.94,6.47,16.29,9.92a7.93,7.93,0,0,0,6.22.81,8.07,8.07,0,0,0,4.25-12.73,9.19,9.19,0,0,0-2.31-2c-5.43-3.64-11-7.05-16.61-10.36-6-3.52-11.93-7.21-18.3-10a84,84,0,0,0-20.94-5.76c-3.2-.49-6.44-.84-9.66-1.23-3.43-.42-6.86-.73-10.31-1s-6.91-.22-10.37-.18c-1.84,0-3.72.11-5.56.26-1.59.13-3.21.18-4.8.39l-5,.65a57.55,57.55,0,0,0-6.24,1.29,66.28,66.28,0,0,0-7.29,2.3,53.71,53.71,0,0,0-5.91,2.63c-1.37.7-2.76,1.41-4.07,2.22l-4.94,3.07c-1.74,1.08-3.39,2.34-5.07,3.51-1.4,1-2.73,2-4.08,3.08-1.13.86-2.23,1.74-3.32,2.66-1.47,1.24-3,2.45-4.41,3.76l-4.25,4c-1.29,1.21-2.5,2.52-3.75,3.77-1,1-2,2-2.92,3.07-1.27,1.37-2.57,2.72-3.78,4.14l-3.76,4.43c-1.17,1.37-2.2,2.89-3.3,4.32-.87,1.16-1.68,2.35-2.49,3.55-1,1.5-2.09,3-3,4.49l-3,5c-.8,1.32-1.49,2.67-2.2,4s-1.56,2.85-2.22,4.33q-1.15,2.63-2.32,5.23c-.25.56-.43,1.17-.64,1.74l-1.2,3.23c-.57,1.53-1.09,3.06-1.55,4.62l-1.56,5.32c-.17.56-.26,1.17-.38,1.75l-.84,3.91c-.29,1.39-.58,2.78-.78,4.19-.27,2-.55,3.92-.82,5.88-.17,1.19-.22,2.4-.29,3.6s-.14,2.48-.18,3.73a55.86,55.86,0,0,0,.17,6.47l.48,5.38c.06.68.21,1.36.31,2l.51,3.39a92.76,92.76,0,0,0,2.36,10.67,89.48,89.48,0,0,0,4.66,12.94c1,2.2,2.14,4.33,3.23,6.48a106.23,106.23,0,0,0,5.61,9.62,74.27,74.27,0,0,0,7.66,10.16,47,47,0,0,0,11.2,8.9,62.11,62.11,0,0,0,11.49,5.11c2.37.8,4.75,1.44,7.17,2.07,3.23.85,6.49,1.49,9.76,2.17,1.76.37,3.53.63,5.3.93,1.48.24,3,.51,4.45.71q5.37.74,10.76,1.42c13.68,1.69,27.39,3,41.12,4.16,13.44,1.11,26.9,1.93,40.35,2.93,14.1,1,28.2,2.16,42.29,3.26q9.9.78,19.81,1.25c6.6.32,13.21.52,19.82.74,7,.24,14,.5,20.94.84,5.87.28,11.73.67,17.59,1,13.48,1,27,2,40.45,2.81s26.71,1.7,40.08,2.2c7,.26,14,.51,21,.69,7.29.19,14.57.31,21.86.44,6.86.12,13.72.37,20.58.59,3,.09,6.08.12,9.12.12C1576.08,701.14,1579.6,701.1,1583.13,701.07Z"/><path d="M1258,484a1.16,1.16,0,0,0,1.13-1.43v0s0-.11,0-.17,0-.22,0-.34.06-.46.11-.68c.43-1.93.93-3.85,1.48-5.75s1.26-4,2-6l.93-2.26c.31-.76.58-1.56.94-2.3.78-1.6,1.55-3.21,2.33-4.82,1.64-3,3.29-6,5-8.89s3.54-5.7,5.36-8.53,3.87-5.47,5.91-8.14,4.2-5.39,6.34-8.05q3.4-4.25,6.83-8.47c2.11-2.6,4.27-5.17,6.44-7.73l3.53-3.82c1-1.08,2-2.09,3.1-3.12s2.18-2.16,3.32-3.19l3.92-3.54c2.14-1.78,4.26-3.57,6.49-5.24,1.2-.9,2.36-1.86,3.61-2.69l4.45-3c3.75-2.29,7.49-4.6,11.35-6.7q6.07-3.3,12.2-6.48c2.55-1.26,5.1-2.54,7.68-3.74q5-2.32,10-4.63c3.17-1.46,6.35-2.9,9.52-4.35,2.79-1.27,5.68-2.36,8.51-3.53l5.9-2c1.74-.59,3.51-1,5.29-1.51s3.63-1,5.48-1.4l6.1-1.26c3.91-.66,7.81-1.32,11.74-1.85,1.78-.24,3.55-.51,5.34-.68l6.64-.63a171.19,171.19,0,0,1,19.22-.33,80.29,80.29,0,0,1,8.75,1.17,73.86,73.86,0,0,1,8,2.19c2.94,1.06,5.78,2.33,8.65,3.57l4.39,2.24c1.64.85,3.21,1.84,4.8,2.77,3,1.71,5.83,3.61,8.71,5.47,1.63,1.12,3.25,2.24,4.83,3.42s3.08,2.46,4.59,3.73c1.76,1.64,3.51,3.29,5.21,5s3.55,3.65,5.24,5.55c1.22,1.42,2.36,2.88,3.43,4.41s1.8,2.93,2.61,4.45c.52,1.07,1,2.14,1.55,3.21s1,2.32,1.41,3.47a65.88,65.88,0,0,1,2,6.6q.2,1.25.33,2.49a7.9,7.9,0,0,0,2.22,5.32,7.57,7.57,0,0,0,12.92-5.35,28.65,28.65,0,0,0-1-7.49c-.59-2.21-1.33-4.36-2.08-6.51a45.39,45.39,0,0,0-2-5l-1.56-3.24a58.12,58.12,0,0,0-4.41-7.45,81.45,81.45,0,0,0-7.42-8.87c-1.38-1.52-2.82-3-4.25-4.46s-2.9-2.86-4.42-4.18-3.17-2.79-4.83-4.09c-3.34-2.59-6.81-5-10.35-7.33-3.37-2.21-6.74-4.46-10.3-6.36-2-1.05-4-2.17-6-3.09-2.8-1.26-5.57-2.52-8.47-3.56a78.39,78.39,0,0,0-17.5-4.08,89.35,89.35,0,0,0-11.91-.53c-1.94,0-3.89,0-5.83.13l-7.24.42c-2.41.14-4.81.45-7.21.69-1.74.18-3.45.4-5.17.65s-3.71.48-5.55.8l-7.21,1.28c-2.36.42-4.69,1-7,1.51-1.67.36-3.29.76-4.93,1.22-2.25.63-4.54,1.18-6.74,2l-6.95,2.47c-1.66.59-3.25,1.31-4.86,2s-3.33,1.39-5,2.16q-6.22,3-12.42,6c-3.5,1.68-7,3.37-10.43,5.16-3.92,2.05-7.8,4.15-11.67,6.29-3.64,2-7.17,4.22-10.7,6.41a123.68,123.68,0,0,0-19.67,14.86,121.78,121.78,0,0,0-8.72,8.88c-1.35,1.55-2.79,3.05-4,4.68s-2.73,3.52-4.1,5.27c-.54.69-1,1.44-1.51,2.16l-2.34,3.33c-1.26,1.8-2.44,3.66-3.65,5.5q-3.15,4.75-6.18,9.61c-2.07,3.31-4.16,6.63-6,10.08-1.06,2-2.18,3.91-3.15,5.91s-2,4.06-3,6.09c-1.83,3.76-3.43,7.63-5.06,11.48a105.85,105.85,0,0,0-3.79,11.23c-.4,1.38-.67,2.8-1,4.19s-.56,2.64-.79,4a45.41,45.41,0,0,0-.73,4.77c-.07.95-.05,2.65,1.29,2.65Z"/><path d="M1638.06,570.9a23.19,23.19,0,0,0,4.32-4.64,23.51,23.51,0,0,0,2.56-6,47.54,47.54,0,0,0,1.41-5.1,43.73,43.73,0,0,0,.85-9.06,94.41,94.41,0,0,0-.91-11.27l-.39-3.08c-.11-.87-.33-1.74-.5-2.6-.4-2.08-.74-4.18-1.3-6.23-.61-2.23-1.12-4.5-1.9-6.68l-2.33-6.5c-.26-.71-.62-1.4-.93-2.1-.6-1.33-1.19-2.68-1.79-4-.85-1.91-1.89-3.74-2.87-5.58L1633,495.5c-.39-.74-.89-1.44-1.33-2.15-1.12-1.81-2.2-3.65-3.42-5.39l-3.89-5.51c-.52-.74-1.12-1.44-1.68-2.16l-2.47-3.15c-1.27-1.63-2.64-3.19-4-4.78-1.17-1.4-2.37-2.78-3.57-4.16s-2.51-2.93-3.83-4.35l-4.85-5.2c-.48-.51-1-1-1.52-1.47l-3.23-3.14c-1.3-1.26-2.65-2.46-4-3.67s-2.94-2.65-4.45-3.94q-5.09-4.35-10.23-8.64c-3.19-2.66-6.5-5.16-9.83-7.64-1.61-1.19-3.28-2.3-4.94-3.42-.82-.56-1.62-1.16-2.47-1.67l-2.7-1.64-2.93-1.77c-.74-.45-1.54-.83-2.31-1.24-1.89-1-3.76-2-5.69-2.89-3.87-1.82-7.81-3.46-11.77-5.07-1.86-.75-3.74-1.42-5.61-2.12a59.22,59.22,0,0,0-6.07-1.9,38.23,38.23,0,0,0-7.66-1.3,32.56,32.56,0,0,0-4.19.08,21.69,21.69,0,0,0-4.28,1,25.84,25.84,0,0,0-4,1.67,24.73,24.73,0,0,0-3.61,2.15,21.89,21.89,0,0,0-3.08,2.59,4.64,4.64,0,0,0-1.19,1.9,1.29,1.29,0,0,0,.87,1.58,1.26,1.26,0,0,0,1.53-.87s0,0,0-.06l0-.05.25-.36a.63.63,0,0,0-.1.12,7.1,7.1,0,0,1,.75-.8c.47-.39,1-.76,1.45-1.12a28.86,28.86,0,0,1,2.58-1.5,29.42,29.42,0,0,1,2.89-1.22c.79-.27,1.59-.5,2.41-.7,1-.19,2-.34,3-.43.66,0,1.3,0,2,0l-.27,0a31,31,0,0,1,3.72.47,40.22,40.22,0,0,1,4.74,1.37,61,61,0,0,1,5.65,2.41c1.77.91,3.57,1.78,5.3,2.76,2.18,1.23,4.36,2.47,6.51,3.73s4.06,2.45,6.08,3.7c1.72,1.06,3.38,2.22,5,3.35l4.48,3.26c1.24.91,2.43,1.88,3.62,2.83s2.28,1.78,3.37,2.73l4.07,3.52q7,6.46,14,13c2.39,2.27,4.74,4.58,7.1,6.88.87.85,1.69,1.74,2.53,2.61,1.07,1.12,2.19,2.19,3.22,3.34,1.73,2,3.46,3.94,5.2,5.9q4.79,5.81,9.49,11.68c2.87,3.6,5.48,7.38,8.1,11.16l3.84,6.26c.62,1,1.12,2.12,1.67,3.16l1.56,2.95c1,2.19,1.95,4.37,2.92,6.56.45,1,.77,2.15,1.15,3.21s.69,1.91,1,2.87l1.8,6.5c.18,1,.37,1.91.55,2.86s.51,2.2.65,3.3c.39,3,.82,6.06,1.06,9.11.11,1.95.15,3.89.07,5.84-.1,1.18-.26,2.34-.47,3.5-.24,1-.52,2-.82,3a43.88,43.88,0,0,1-1.58,4.13c0,.09-.1.19-.16.28-.27.36-.54.72-.83,1.07l-.76.81a6.48,6.48,0,0,0,3.7,11,8.29,8.29,0,0,0,.87.06A6.21,6.21,0,0,0,1638.06,570.9Z"/><circle class="cls-1" cx="441.5" cy="585.5" r="327.5"/><path d="M107.05,121a2.61,2.61,0,0,1-.78-1.92V83.27a3.86,3.86,0,0,1,1.14-2.79,3.71,3.71,0,0,1,2.76-1.17h2a3.64,3.64,0,0,1,2.19.72,4.41,4.41,0,0,1,1.47,1.8l13.62,34,13.62-34a4.41,4.41,0,0,1,1.47-1.8,3.64,3.64,0,0,1,2.19-.72h2a3.71,3.71,0,0,1,2.76,1.17,3.86,3.86,0,0,1,1.14,2.79v35.82a2.66,2.66,0,0,1-2.7,2.7,2.71,2.71,0,0,1-1.95-.78,2.56,2.56,0,0,1-.81-1.92V85l-13.86,34.26a4,4,0,0,1-1.53,1.83,4.21,4.21,0,0,1-4.62,0,4,4,0,0,1-1.53-1.83L111.73,85v34.08a2.56,2.56,0,0,1-.81,1.92,2.71,2.71,0,0,1-2,.78A2.61,2.61,0,0,1,107.05,121Z"/><path d="M166.06,121a8.52,8.52,0,0,1-3.57-3.15,8.68,8.68,0,0,1-1.32-4.77,8.41,8.41,0,0,1,3.51-7.08q3.51-2.64,10.29-2.64h7.26v-.48q0-4-1.95-5.7t-6.09-1.74a20.45,20.45,0,0,0-4.05.36,34,34,0,0,0-3.93,1.08,3.37,3.37,0,0,1-.78.12,2.13,2.13,0,0,1-1.56-.66,2.2,2.2,0,0,1-.66-1.62,2.31,2.31,0,0,1,1.56-2.28,26.39,26.39,0,0,1,10.38-2.16,13.55,13.55,0,0,1,7,1.68,10.56,10.56,0,0,1,4.2,4.35,12.65,12.65,0,0,1,1.35,5.79v17a2.56,2.56,0,0,1-.81,1.92,2.71,2.71,0,0,1-1.95.78,2.66,2.66,0,0,1-2.7-2.7v-1.56A15.07,15.07,0,0,1,171,122.09,11.15,11.15,0,0,1,166.06,121Zm12-5a14.18,14.18,0,0,0,4.14-3.21v-5h-6.54q-9.06,0-9.06,4.74A4.45,4.45,0,0,0,168.1,116q1.47,1.32,4.89,1.32A10.85,10.85,0,0,0,178.09,116Z"/><path d="M197.65,121a2.61,2.61,0,0,1-.78-1.92V93.35a2.71,2.71,0,0,1,.78-1.95,2.56,2.56,0,0,1,1.92-.81,2.77,2.77,0,0,1,2.76,2.76v2.46a19.94,19.94,0,0,1,4.92-4,12.42,12.42,0,0,1,6.24-1.5,10.37,10.37,0,0,1,5.73,1.56,10.14,10.14,0,0,1,3.72,4.26,13.6,13.6,0,0,1,1.29,5.94v17a2.56,2.56,0,0,1-.81,1.92,2.71,2.71,0,0,1-1.95.78,2.66,2.66,0,0,1-2.7-2.7V102.65q0-7.32-6.6-7.32a9.55,9.55,0,0,0-5.37,1.56,19.44,19.44,0,0,0-4.47,4.2v18a2.56,2.56,0,0,1-.81,1.92,2.71,2.71,0,0,1-2,.78A2.61,2.61,0,0,1,197.65,121Z"/><path d="M234.19,121a2.61,2.61,0,0,1-.78-1.92V80.15a2.71,2.71,0,0,1,.78-2,2.56,2.56,0,0,1,1.92-.81,2.77,2.77,0,0,1,2.76,2.76v24.54l14.28-13.2a2.76,2.76,0,0,1,1.8-.78,2.43,2.43,0,0,1,2,.78,2.87,2.87,0,0,1,.63,1.86,2.94,2.94,0,0,1-1,2l-8.64,7.74,10.86,14.4a2.63,2.63,0,0,1,.6,1.62,2.49,2.49,0,0,1-.78,1.92,2.81,2.81,0,0,1-2,.72,2.66,2.66,0,0,1-1.2-.3,3,3,0,0,1-1-.84l-10.32-14-5.22,4.74v7.74a2.56,2.56,0,0,1-.81,1.92,2.71,2.71,0,0,1-1.95.78A2.61,2.61,0,0,1,234.19,121Z"/><path d="M266.53,83.75a3,3,0,0,1-.9-2.16v-.24a3.07,3.07,0,0,1,3.06-3.06h.36a3.07,3.07,0,0,1,3.06,3.06v.24a3.07,3.07,0,0,1-3.06,3.06h-.36A3,3,0,0,1,266.53,83.75Zm.36,37.26a2.61,2.61,0,0,1-.78-1.92V93.35a2.71,2.71,0,0,1,.78-1.95,2.56,2.56,0,0,1,1.92-.81,2.67,2.67,0,0,1,2.76,2.76v25.74a2.56,2.56,0,0,1-.81,1.92,2.71,2.71,0,0,1-1.95.78A2.61,2.61,0,0,1,266.89,121Z"/><path d="M281.83,121a2.61,2.61,0,0,1-.78-1.92V93.35a2.71,2.71,0,0,1,.78-1.95,2.56,2.56,0,0,1,1.92-.81,2.77,2.77,0,0,1,2.76,2.76v2.46a19.94,19.94,0,0,1,4.92-4,12.42,12.42,0,0,1,6.24-1.5,10.37,10.37,0,0,1,5.73,1.56,10.14,10.14,0,0,1,3.72,4.26,13.6,13.6,0,0,1,1.29,5.94v17a2.56,2.56,0,0,1-.81,1.92,2.71,2.71,0,0,1-2,.78,2.66,2.66,0,0,1-2.7-2.7V102.65q0-7.32-6.6-7.32A9.55,9.55,0,0,0,291,96.89a19.44,19.44,0,0,0-4.47,4.2v18a2.56,2.56,0,0,1-.81,1.92,2.71,2.71,0,0,1-1.95.78A2.61,2.61,0,0,1,281.83,121Z"/><path d="M323.2,120.2a14.34,14.34,0,0,1-5.4-5.52,18.45,18.45,0,0,1,0-17,14.34,14.34,0,0,1,5.4-5.52,14.07,14.07,0,0,1,7.05-1.89,13.79,13.79,0,0,1,10.26,4.56V80.15a2.63,2.63,0,0,1,.81-2,2.71,2.71,0,0,1,1.95-.78,2.56,2.56,0,0,1,1.92.81,2.71,2.71,0,0,1,.78,2v38.94a2.66,2.66,0,0,1-2.7,2.7,2.71,2.71,0,0,1-1.95-.78,2.56,2.56,0,0,1-.81-1.92v-1.56a13.79,13.79,0,0,1-10.26,4.56A14.07,14.07,0,0,1,323.2,120.2Zm13-4.44a14.82,14.82,0,0,0,4.29-3.27V99.89a14.82,14.82,0,0,0-4.29-3.27A11.33,11.33,0,0,0,331,95.39a9.43,9.43,0,0,0-7.14,2.82q-2.7,2.82-2.7,8t2.7,8A9.43,9.43,0,0,0,331,117,11.33,11.33,0,0,0,336.22,115.76Z"/><path d="M378,121.07a3.66,3.66,0,0,1-1.32-1.8l-8.52-25a3.23,3.23,0,0,1-.18-1,2.66,2.66,0,0,1,2.7-2.7,2.74,2.74,0,0,1,1.53.45,2.21,2.21,0,0,1,.93,1.17l7,23.1,7-22.56a3.08,3.08,0,0,1,5.88,0l7,22.56,7-23.1a2.21,2.21,0,0,1,.93-1.17,2.74,2.74,0,0,1,1.53-.45,2.66,2.66,0,0,1,2.7,2.7,3.23,3.23,0,0,1-.18,1l-8.52,25a3.66,3.66,0,0,1-1.32,1.8,3.6,3.6,0,0,1-4.32,0,4,4,0,0,1-1.38-1.86l-6.36-19.86-6.36,19.86a4,4,0,0,1-1.38,1.86,3.6,3.6,0,0,1-4.32,0Z"/><path d="M419,83.75a3,3,0,0,1-.9-2.16v-.24a3.07,3.07,0,0,1,3.06-3.06h.36a3.07,3.07,0,0,1,3.06,3.06v.24a3.07,3.07,0,0,1-3.06,3.06h-.36A3,3,0,0,1,419,83.75Zm.36,37.26a2.61,2.61,0,0,1-.78-1.92V93.35a2.71,2.71,0,0,1,.78-1.95,2.56,2.56,0,0,1,1.92-.81A2.67,2.67,0,0,1,424,93.35v25.74a2.56,2.56,0,0,1-.81,1.92,2.71,2.71,0,0,1-2,.78A2.61,2.61,0,0,1,419.35,121Z"/><path d="M434.29,121a2.61,2.61,0,0,1-.78-1.92V80.15a2.71,2.71,0,0,1,.78-2,2.56,2.56,0,0,1,1.92-.81A2.67,2.67,0,0,1,439,80.15v38.94a2.56,2.56,0,0,1-.81,1.92,2.73,2.73,0,0,1-2,.78A2.61,2.61,0,0,1,434.29,121Z"/><path d="M449.23,121a2.61,2.61,0,0,1-.78-1.92V80.15a2.71,2.71,0,0,1,.78-2,2.55,2.55,0,0,1,1.92-.81,2.64,2.64,0,0,1,2,.78,2.69,2.69,0,0,1,.79,2v38.94a2.56,2.56,0,0,1-.81,1.92,2.73,2.73,0,0,1-2,.78A2.59,2.59,0,0,1,449.23,121Z"/><path d="M479.76,121a2.61,2.61,0,0,1-.78-1.92V80.15a2.71,2.71,0,0,1,.78-2,2.56,2.56,0,0,1,1.92-.81,2.68,2.68,0,0,1,2.77,2.76v38.94a2.57,2.57,0,0,1-.82,1.92,2.71,2.71,0,0,1-1.95.78A2.61,2.61,0,0,1,479.76,121Z"/><path d="M496.17,117.92q-4.11-4.17-4.11-11.73a19.56,19.56,0,0,1,1.56-7.86,13.36,13.36,0,0,1,4.8-5.82,13.79,13.79,0,0,1,8-2.22,14,14,0,0,1,7.68,2.07A13.39,13.39,0,0,1,519,97.88a17,17,0,0,1,1.68,7.53,2.62,2.62,0,0,1-2.76,2.7H497.58a9.87,9.87,0,0,0,3.12,6.54q2.64,2.34,7.38,2.34a18,18,0,0,0,4.41-.48,18.32,18.32,0,0,0,3.69-1.38,2.38,2.38,0,0,1,1.08-.24,2.41,2.41,0,0,1,1.68.66,2.18,2.18,0,0,1,.72,1.68,2.59,2.59,0,0,1-1.56,2.22,18.74,18.74,0,0,1-10.5,2.64Q500.28,122.09,496.17,117.92Zm19.11-14.25a9.61,9.61,0,0,0-1.53-4.92,8.26,8.26,0,0,0-3.33-2.91,9.15,9.15,0,0,0-8,0,8.06,8.06,0,0,0-3.3,2.91,9.79,9.79,0,0,0-1.5,4.92Z"/><path d="M530.79,121a8.52,8.52,0,0,1-3.57-3.15,8.68,8.68,0,0,1-1.32-4.77,8.41,8.41,0,0,1,3.51-7.08q3.51-2.64,10.29-2.64H547v-.48q0-4-2-5.7t-6.09-1.74a20.45,20.45,0,0,0-4,.36,34,34,0,0,0-3.93,1.08,3.37,3.37,0,0,1-.78.12,2.13,2.13,0,0,1-1.56-.66,2.2,2.2,0,0,1-.66-1.62,2.31,2.31,0,0,1,1.56-2.28,26.39,26.39,0,0,1,10.38-2.16,13.55,13.55,0,0,1,7,1.68,10.56,10.56,0,0,1,4.2,4.35,12.65,12.65,0,0,1,1.35,5.79v17a2.56,2.56,0,0,1-.81,1.92,2.71,2.71,0,0,1-2,.78,2.66,2.66,0,0,1-2.7-2.7v-1.56a15.07,15.07,0,0,1-11.28,4.56A11.15,11.15,0,0,1,530.79,121Zm12-5a14.18,14.18,0,0,0,4.14-3.21v-5h-6.54q-9.06,0-9.06,4.74a4.45,4.45,0,0,0,1.47,3.48q1.47,1.32,4.89,1.32A10.85,10.85,0,0,0,542.82,116Z"/><path d="M562.38,121a2.61,2.61,0,0,1-.78-1.92V93.35a2.71,2.71,0,0,1,.78-1.95,2.56,2.56,0,0,1,1.92-.81,2.77,2.77,0,0,1,2.76,2.76v2.58q4.2-5.64,9.42-5.64h.3a2.51,2.51,0,0,1,1.89.78,2.66,2.66,0,0,1,.75,1.92,2.42,2.42,0,0,1-.78,1.86,2.81,2.81,0,0,1-2,.72h-.3A10.23,10.23,0,0,0,571.08,97a12.16,12.16,0,0,0-4,3.87v18.24a2.56,2.56,0,0,1-.81,1.92,2.71,2.71,0,0,1-2,.78A2.61,2.61,0,0,1,562.38,121Z"/><path d="M585.36,121a2.61,2.61,0,0,1-.78-1.92V93.35a2.71,2.71,0,0,1,.78-1.95,2.56,2.56,0,0,1,1.92-.81A2.77,2.77,0,0,1,590,93.35v2.46a19.94,19.94,0,0,1,4.92-4,12.42,12.42,0,0,1,6.24-1.5,10.37,10.37,0,0,1,5.73,1.56,10.14,10.14,0,0,1,3.72,4.26,13.6,13.6,0,0,1,1.29,5.94v17a2.56,2.56,0,0,1-.81,1.92,2.71,2.71,0,0,1-2,.78,2.66,2.66,0,0,1-2.7-2.7V102.65q0-7.32-6.6-7.32a9.55,9.55,0,0,0-5.37,1.56,19.44,19.44,0,0,0-4.47,4.2v18a2.56,2.56,0,0,1-.81,1.92,2.71,2.71,0,0,1-2,.78A2.61,2.61,0,0,1,585.36,121Z"/><path d="M639.78,121a2.61,2.61,0,0,1-.78-1.92V95.57h-3.54a2.36,2.36,0,0,1-2.34-2.34,2.22,2.22,0,0,1,.69-1.68,2.3,2.3,0,0,1,1.65-.66H639V87.41a12,12,0,0,1,1.29-5.91,8,8,0,0,1,3.36-3.36,9.49,9.49,0,0,1,4.35-1,11.51,11.51,0,0,1,5.22,1.2,2.59,2.59,0,0,1,1,.87,2.14,2.14,0,0,1,.39,1.23,2.23,2.23,0,0,1-.66,1.59,2.09,2.09,0,0,1-1.56.69,5.69,5.69,0,0,1-1.38-.18q-1.44-.18-1.62-.18a5.26,5.26,0,0,0-3.69,1.14q-1.23,1.14-1.23,4.14v3.3H652a2.26,2.26,0,0,1,2.34,2.34,2.3,2.3,0,0,1-.66,1.65,2.22,2.22,0,0,1-1.68.69h-7.5v23.52a2.56,2.56,0,0,1-.81,1.92,2.71,2.71,0,0,1-1.95.78A2.61,2.61,0,0,1,639.78,121Z"/><path d="M660.42,121a2.61,2.61,0,0,1-.78-1.92V93.35a2.71,2.71,0,0,1,.78-1.95,2.56,2.56,0,0,1,1.92-.81,2.77,2.77,0,0,1,2.76,2.76v2.58q4.2-5.64,9.42-5.64h.3a2.51,2.51,0,0,1,1.89.78,2.66,2.66,0,0,1,.75,1.92,2.42,2.42,0,0,1-.78,1.86,2.81,2.81,0,0,1-2,.72h-.3A10.23,10.23,0,0,0,669.12,97a12.16,12.16,0,0,0-4,3.87v18.24a2.56,2.56,0,0,1-.81,1.92,2.71,2.71,0,0,1-1.95.78A2.61,2.61,0,0,1,660.42,121Z"/><path d="M687.12,120.11a13.46,13.46,0,0,1-5.37-5.61,19.21,19.21,0,0,1,0-16.62,13.46,13.46,0,0,1,5.37-5.61,17.44,17.44,0,0,1,16.14,0,13.65,13.65,0,0,1,5.4,5.61,18.94,18.94,0,0,1,0,16.62,13.65,13.65,0,0,1-5.4,5.61,17.44,17.44,0,0,1-16.14,0ZM699.93,116a9.16,9.16,0,0,0,3.72-3.6,12,12,0,0,0,1.47-6.24,11.88,11.88,0,0,0-1.47-6.18,9,9,0,0,0-3.72-3.57,10.52,10.52,0,0,0-4.71-1.11,10.64,10.64,0,0,0-4.77,1.11,8.78,8.78,0,0,0-3.69,3.57,12.08,12.08,0,0,0-1.44,6.18,12.21,12.21,0,0,0,1.44,6.24,9,9,0,0,0,3.69,3.6,10.41,10.41,0,0,0,4.77,1.14A10.29,10.29,0,0,0,699.93,116Z"/><path d="M719,121a2.61,2.61,0,0,1-.78-1.92V93.35A2.71,2.71,0,0,1,719,91.4a2.56,2.56,0,0,1,1.92-.81,2.77,2.77,0,0,1,2.76,2.76v2.46a15,15,0,0,1,4.05-4,11,11,0,0,1,6.15-1.56,9.33,9.33,0,0,1,5.76,1.8A10,10,0,0,1,743,96.47a12.09,12.09,0,0,1,11-6.18A9.11,9.11,0,0,1,759.69,92,10,10,0,0,1,763,96.29a14.44,14.44,0,0,1,1.08,5.52v17.28a2.56,2.56,0,0,1-.81,1.92,2.71,2.71,0,0,1-1.95.78,2.66,2.66,0,0,1-2.7-2.7v-16.2q0-3.9-1.38-5.73t-4.74-1.83a7.92,7.92,0,0,0-5.07,1.59,15.38,15.38,0,0,0-3.57,4.17v18a2.56,2.56,0,0,1-.81,1.92,2.71,2.71,0,0,1-2,.78,2.66,2.66,0,0,1-2.7-2.7v-16.2q0-3.9-1.38-5.73t-4.74-1.83a7.92,7.92,0,0,0-5.07,1.59,15.38,15.38,0,0,0-3.57,4.17v18a2.56,2.56,0,0,1-.81,1.92,2.71,2.71,0,0,1-2,.78A2.61,2.61,0,0,1,719,121Z"/><path d="M107,186.17v-18.6h-4.26a1.13,1.13,0,0,1-1.14-1.14,1.25,1.25,0,0,1,.54-1l8.16-8a1.51,1.51,0,0,1,1-.54,1.06,1.06,0,0,1,.81.36,1.2,1.2,0,0,1,.33.84v4.8h6.78a2.26,2.26,0,0,1,2.34,2.34,2.3,2.3,0,0,1-.66,1.65,2.22,2.22,0,0,1-1.68.69h-6.78v18.12q0,2.34,1.11,3a5.59,5.59,0,0,0,2.79.63,8.32,8.32,0,0,0,2.4-.36l.51-.12a3.27,3.27,0,0,1,.69-.06,2.11,2.11,0,0,1,1.5.63,2,2,0,0,1,.66,1.53,2.27,2.27,0,0,1-1.38,2.1,11.74,11.74,0,0,1-5,1.08Q107,194.09,107,186.17Z"/><path d="M128.89,193a2.61,2.61,0,0,1-.78-1.92V152.15a2.71,2.71,0,0,1,.78-2,2.56,2.56,0,0,1,1.92-.81,2.77,2.77,0,0,1,2.76,2.76v15.66a19.94,19.94,0,0,1,4.92-4,12.42,12.42,0,0,1,6.24-1.5,10.37,10.37,0,0,1,5.73,1.56,10.14,10.14,0,0,1,3.72,4.26,13.6,13.6,0,0,1,1.29,5.94v17a2.56,2.56,0,0,1-.81,1.92,2.71,2.71,0,0,1-1.95.78,2.66,2.66,0,0,1-2.7-2.7V174.65q0-7.32-6.6-7.32a9.55,9.55,0,0,0-5.37,1.56,19.44,19.44,0,0,0-4.47,4.2v18a2.56,2.56,0,0,1-.81,1.92,2.71,2.71,0,0,1-1.95.78A2.61,2.61,0,0,1,128.89,193Z"/><path d="M165.07,155.75a3,3,0,0,1-.9-2.16v-.24a3.07,3.07,0,0,1,3.06-3.06h.36a3.07,3.07,0,0,1,3.06,3.06v.24a3.07,3.07,0,0,1-3.06,3.06h-.36A3,3,0,0,1,165.07,155.75Zm.36,37.26a2.61,2.61,0,0,1-.78-1.92V165.35a2.71,2.71,0,0,1,.78-1.95,2.56,2.56,0,0,1,1.92-.81,2.67,2.67,0,0,1,2.76,2.76v25.74a2.56,2.56,0,0,1-.81,1.92,2.71,2.71,0,0,1-2,.78A2.61,2.61,0,0,1,165.43,193Z"/><path d="M178.57,191.39a2.29,2.29,0,0,1-1-2,2.41,2.41,0,0,1,.66-1.68,2.18,2.18,0,0,1,1.68-.72,2.64,2.64,0,0,1,1.08.24,24.25,24.25,0,0,0,3.84,1.32,17.85,17.85,0,0,0,4.32.48q6.66,0,6.66-4.26a2.27,2.27,0,0,0-1.53-2.1,31.33,31.33,0,0,0-5-1.62,45.27,45.27,0,0,1-5.85-1.74,10.29,10.29,0,0,1-4-2.73,6.94,6.94,0,0,1-1.65-4.83,8.65,8.65,0,0,1,3-6.84q3-2.64,8.67-2.64a25,25,0,0,1,8.7,1.5,2.25,2.25,0,0,1,1.29.9,2.41,2.41,0,0,1,.45,1.38,2.35,2.35,0,0,1-.69,1.68,2.27,2.27,0,0,1-1.71.72,3.37,3.37,0,0,1-.78-.12,23,23,0,0,0-6.84-1.08,9.37,9.37,0,0,0-5.07,1.17,3.49,3.49,0,0,0-1.83,3,2.77,2.77,0,0,0,1.68,2.64,24,24,0,0,0,5.22,1.62,50,50,0,0,1,5.76,1.77,9.52,9.52,0,0,1,3.81,2.73,7.41,7.41,0,0,1,1.59,5,7.93,7.93,0,0,1-3,6.36q-3,2.52-8.55,2.52A22.32,22.32,0,0,1,178.57,191.39Z"/><path d="M226.9,193a8.52,8.52,0,0,1-3.57-3.15,8.68,8.68,0,0,1-1.32-4.77,8.41,8.41,0,0,1,3.51-7.08q3.51-2.64,10.29-2.64h7.26v-.48q0-4-1.95-5.7T235,167.45a20.45,20.45,0,0,0-4.05.36,34,34,0,0,0-3.93,1.08,3.37,3.37,0,0,1-.78.12,2.13,2.13,0,0,1-1.56-.66,2.2,2.2,0,0,1-.66-1.62,2.31,2.31,0,0,1,1.56-2.28A26.39,26.39,0,0,1,236,162.29a13.55,13.55,0,0,1,7,1.68,10.56,10.56,0,0,1,4.2,4.35,12.65,12.65,0,0,1,1.35,5.79v17a2.56,2.56,0,0,1-.81,1.92,2.71,2.71,0,0,1-1.95.78,2.66,2.66,0,0,1-2.7-2.7v-1.56a15.07,15.07,0,0,1-11.28,4.56A11.15,11.15,0,0,1,226.9,193Zm12-5a14.18,14.18,0,0,0,4.14-3.21v-5h-6.54q-9.06,0-9.06,4.74a4.45,4.45,0,0,0,1.47,3.48q1.47,1.32,4.89,1.32A10.85,10.85,0,0,0,238.93,188Z"/><path d="M258.49,193a2.61,2.61,0,0,1-.78-1.92V165.35a2.71,2.71,0,0,1,.78-1.95,2.56,2.56,0,0,1,1.92-.81,2.77,2.77,0,0,1,2.76,2.76v2.46a19.94,19.94,0,0,1,4.92-4,12.42,12.42,0,0,1,6.24-1.5,10.37,10.37,0,0,1,5.73,1.56,10.14,10.14,0,0,1,3.72,4.26,13.6,13.6,0,0,1,1.29,5.94v17a2.56,2.56,0,0,1-.81,1.92,2.71,2.71,0,0,1-1.95.78,2.66,2.66,0,0,1-2.7-2.7V174.65q0-7.32-6.6-7.32a9.55,9.55,0,0,0-5.37,1.56,19.44,19.44,0,0,0-4.47,4.2v18a2.56,2.56,0,0,1-.81,1.92,2.71,2.71,0,0,1-1.95.78A2.61,2.61,0,0,1,258.49,193Z"/><path d="M299.86,192.2a14.34,14.34,0,0,1-5.4-5.52,18.45,18.45,0,0,1,0-17,14.34,14.34,0,0,1,5.4-5.52,14.07,14.07,0,0,1,7.05-1.89,13.79,13.79,0,0,1,10.26,4.56v-14.7a2.63,2.63,0,0,1,.81-2,2.71,2.71,0,0,1,1.95-.78,2.56,2.56,0,0,1,1.92.81,2.71,2.71,0,0,1,.78,2v38.94a2.66,2.66,0,0,1-2.7,2.7A2.71,2.71,0,0,1,318,193a2.56,2.56,0,0,1-.81-1.92v-1.56a13.79,13.79,0,0,1-10.26,4.56A14.07,14.07,0,0,1,299.86,192.2Zm13-4.44a14.82,14.82,0,0,0,4.29-3.27v-12.6a14.82,14.82,0,0,0-4.29-3.27,11.33,11.33,0,0,0-5.19-1.23,9.43,9.43,0,0,0-7.14,2.82q-2.7,2.82-2.7,8t2.7,8a9.43,9.43,0,0,0,7.14,2.82A11.33,11.33,0,0,0,312.88,187.76Z"/><path d="M355,207a23,23,0,0,1-5.82-2.22,2.28,2.28,0,0,1-1.08-2.1,2.46,2.46,0,0,1,.69-1.71,2.23,2.23,0,0,1,1.71-.75,3,3,0,0,1,1.08.24,21.83,21.83,0,0,0,9.9,2.28q9.18,0,9.18-9.78v-4a13.54,13.54,0,0,1-10.26,4.56,14.46,14.46,0,0,1-6.87-1.77,14.3,14.3,0,0,1-5.49-5.28,18,18,0,0,1,0-17.1,14.3,14.3,0,0,1,5.49-5.28,14.46,14.46,0,0,1,6.87-1.77,13.54,13.54,0,0,1,10.26,4.56v-1.5a2.71,2.71,0,0,1,.78-1.95,2.56,2.56,0,0,1,1.92-.81,2.77,2.77,0,0,1,2.76,2.76v26.82q0,7.56-3.66,11.64T362,207.89A28.4,28.4,0,0,1,355,207Zm11.52-19.68a18,18,0,0,0,4.14-3.24V171.71a18,18,0,0,0-4.14-3.24,10.08,10.08,0,0,0-5-1.2,10.19,10.19,0,0,0-7.35,2.73q-2.85,2.73-2.85,7.89t2.85,7.89a10.19,10.19,0,0,0,7.35,2.73A10.08,10.08,0,0,0,366.49,187.31Z"/><path d="M386.35,193a2.61,2.61,0,0,1-.78-1.92V165.35a2.71,2.71,0,0,1,.78-1.95,2.56,2.56,0,0,1,1.92-.81,2.77,2.77,0,0,1,2.76,2.76v2.58q4.2-5.64,9.42-5.64h.3a2.51,2.51,0,0,1,1.89.78,2.66,2.66,0,0,1,.75,1.92,2.42,2.42,0,0,1-.78,1.86,2.81,2.81,0,0,1-2,.72h-.3a10.23,10.23,0,0,0-5.28,1.41,12.16,12.16,0,0,0-4,3.87v18.24a2.56,2.56,0,0,1-.81,1.92,2.71,2.71,0,0,1-2,.78A2.61,2.61,0,0,1,386.35,193Z"/><path d="M413.05,192.11a13.46,13.46,0,0,1-5.37-5.61,19.21,19.21,0,0,1,0-16.62,13.46,13.46,0,0,1,5.37-5.61,17.44,17.44,0,0,1,16.14,0,13.65,13.65,0,0,1,5.4,5.61,18.94,18.94,0,0,1,0,16.62,13.65,13.65,0,0,1-5.4,5.61,17.44,17.44,0,0,1-16.14,0ZM425.86,188a9.16,9.16,0,0,0,3.72-3.6,12,12,0,0,0,1.47-6.24,11.88,11.88,0,0,0-1.47-6.18,9,9,0,0,0-3.72-3.57,10.52,10.52,0,0,0-4.71-1.11,10.64,10.64,0,0,0-4.77,1.11,8.78,8.78,0,0,0-3.69,3.57,12.08,12.08,0,0,0-1.44,6.18,12.21,12.21,0,0,0,1.44,6.24,9,9,0,0,0,3.69,3.6,10.41,10.41,0,0,0,4.77,1.14A10.29,10.29,0,0,0,425.86,188Z"/><path d="M450.67,193.07a3.66,3.66,0,0,1-1.32-1.8l-8.52-25a3.23,3.23,0,0,1-.18-1,2.66,2.66,0,0,1,2.7-2.7,2.74,2.74,0,0,1,1.53.45,2.21,2.21,0,0,1,.93,1.17l7,23.1,7-22.56a3.08,3.08,0,0,1,5.88,0l7,22.56,7-23.1a2.21,2.21,0,0,1,.93-1.17,2.74,2.74,0,0,1,1.53-.45,2.66,2.66,0,0,1,2.7,2.7,3.23,3.23,0,0,1-.18,1l-8.52,25a3.66,3.66,0,0,1-1.32,1.8,3.6,3.6,0,0,1-4.32,0,4,4,0,0,1-1.38-1.86l-6.36-19.86-6.36,19.86a4.08,4.08,0,0,1-1.38,1.86,3.6,3.6,0,0,1-4.32,0Z"/><path d="M489.22,192.68a3.23,3.23,0,0,1-1-2.37V190a3.38,3.38,0,0,1,3.36-3.36h.6a3.38,3.38,0,0,1,3.36,3.36v.36a3.38,3.38,0,0,1-3.36,3.36h-.6A3.23,3.23,0,0,1,489.22,192.68Z"/><path d="M115.48,1004.1a4.21,4.21,0,0,1-1.41-2L102.31,966a4.2,4.2,0,0,1-.18-1,2.37,2.37,0,0,1,.69-1.89,2.64,2.64,0,0,1,2-.75,2.54,2.54,0,0,1,1.68.6,3.23,3.23,0,0,1,1,1.56l10.08,33.12,10.14-33a3,3,0,0,1,1.17-1.65,3.33,3.33,0,0,1,3.9,0,3,3,0,0,1,1.17,1.65l10.14,33,10.08-33.12a3.23,3.23,0,0,1,1-1.56,2.54,2.54,0,0,1,1.68-.6,2.64,2.64,0,0,1,2,.75,2.37,2.37,0,0,1,.69,1.89,4.2,4.2,0,0,1-.18,1l-11.76,36.12a4.21,4.21,0,0,1-1.41,2,3.48,3.48,0,0,1-2.13.69,3.54,3.54,0,0,1-2.19-.75,3.73,3.73,0,0,1-1.35-1.95l-9.66-30.6-9.66,30.6a3.73,3.73,0,0,1-1.35,1.95,3.54,3.54,0,0,1-2.19.75A3.48,3.48,0,0,1,115.48,1004.1Z"/><path d="M165.4,1000.92q-4.11-4.17-4.11-11.73a19.56,19.56,0,0,1,1.56-7.86,13.36,13.36,0,0,1,4.8-5.82,13.79,13.79,0,0,1,8-2.22,14,14,0,0,1,7.68,2.07,13.39,13.39,0,0,1,4.92,5.52,17,17,0,0,1,1.68,7.53,2.62,2.62,0,0,1-2.76,2.7H166.81a9.87,9.87,0,0,0,3.12,6.54q2.64,2.34,7.38,2.34a18,18,0,0,0,4.41-.48,18.32,18.32,0,0,0,3.69-1.38,2.38,2.38,0,0,1,1.08-.24,2.41,2.41,0,0,1,1.68.66,2.18,2.18,0,0,1,.72,1.68,2.59,2.59,0,0,1-1.56,2.22,18.74,18.74,0,0,1-10.5,2.64Q169.51,1005.09,165.4,1000.92Zm19.11-14.25a9.61,9.61,0,0,0-1.53-4.92,8.26,8.26,0,0,0-3.33-2.91,9.15,9.15,0,0,0-8,0,8.06,8.06,0,0,0-3.3,2.91,9.79,9.79,0,0,0-1.5,4.92Z"/><path d="M195.94,975.33a1.78,1.78,0,0,1-.51-1.26,1.67,1.67,0,0,1,.9-1.5,6.85,6.85,0,0,0,2.28-2.1,6.41,6.41,0,0,0,.78-3.48h-.24a3.38,3.38,0,0,1-3.36-3.36v-.36a3.38,3.38,0,0,1,3.36-3.36h.6a3.38,3.38,0,0,1,3.36,3.36v3.54a9.65,9.65,0,0,1-4.92,8.76,1.89,1.89,0,0,1-1,.3A1.63,1.63,0,0,1,195.94,975.33Z"/><path d="M211.45,1004a2.61,2.61,0,0,1-.78-1.92V963.15a2.71,2.71,0,0,1,.78-1.95,2.56,2.56,0,0,1,1.92-.81,2.67,2.67,0,0,1,2.76,2.76v38.94a2.56,2.56,0,0,1-.81,1.92,2.71,2.71,0,0,1-1.95.78A2.61,2.61,0,0,1,211.45,1004Z"/><path d="M226.39,1004a2.61,2.61,0,0,1-.78-1.92V963.15a2.71,2.71,0,0,1,.78-1.95,2.56,2.56,0,0,1,1.92-.81,2.67,2.67,0,0,1,2.76,2.76v38.94a2.56,2.56,0,0,1-.81,1.92,2.71,2.71,0,0,1-1.95.78A2.61,2.61,0,0,1,226.39,1004Z"/><path d="M261.61,1000.53v1.56a2.56,2.56,0,0,1-.81,1.92,2.71,2.71,0,0,1-1.95.78,2.66,2.66,0,0,1-2.7-2.7V963.15a2.71,2.71,0,0,1,.78-1.95,2.56,2.56,0,0,1,1.92-.81,2.67,2.67,0,0,1,2.76,2.76v14.7a13.79,13.79,0,0,1,10.26-4.56,14.07,14.07,0,0,1,7.05,1.89,14.34,14.34,0,0,1,5.4,5.52,18.45,18.45,0,0,1,0,17,14.34,14.34,0,0,1-5.4,5.52,14.07,14.07,0,0,1-7.05,1.89A13.79,13.79,0,0,1,261.61,1000.53Zm16.62-3.36q2.7-2.82,2.7-8t-2.7-8a9.43,9.43,0,0,0-7.14-2.82,11.33,11.33,0,0,0-5.19,1.23,14.82,14.82,0,0,0-4.29,3.27v12.6a14.82,14.82,0,0,0,4.29,3.27,11.33,11.33,0,0,0,5.19,1.23A9.43,9.43,0,0,0,278.23,997.17Z"/><path d="M296.26,1000.92q-4.11-4.17-4.11-11.73a19.56,19.56,0,0,1,1.56-7.86,13.36,13.36,0,0,1,4.8-5.82,13.79,13.79,0,0,1,8-2.22,14,14,0,0,1,7.68,2.07,13.39,13.39,0,0,1,4.92,5.52,17,17,0,0,1,1.68,7.53,2.62,2.62,0,0,1-2.76,2.7H297.67a9.87,9.87,0,0,0,3.12,6.54q2.64,2.34,7.38,2.34a18,18,0,0,0,4.41-.48,18.32,18.32,0,0,0,3.69-1.38,2.38,2.38,0,0,1,1.08-.24,2.41,2.41,0,0,1,1.68.66,2.18,2.18,0,0,1,.72,1.68,2.59,2.59,0,0,1-1.56,2.22,18.74,18.74,0,0,1-10.5,2.64Q300.37,1005.09,296.26,1000.92Zm19.11-14.25a9.61,9.61,0,0,0-1.53-4.92,8.26,8.26,0,0,0-3.33-2.91,9.15,9.15,0,0,0-8,0,8.06,8.06,0,0,0-3.3,2.91,9.79,9.79,0,0,0-1.5,4.92Z"/><path d="M352.15,1002.33a18.84,18.84,0,0,1-7.32-7.62,24.41,24.41,0,0,1,0-22.32,18.84,18.84,0,0,1,7.32-7.62,23.4,23.4,0,0,1,22.05,0,19.12,19.12,0,0,1,7.32,7.65,24.05,24.05,0,0,1,0,22.26,19.12,19.12,0,0,1-7.32,7.65,23.4,23.4,0,0,1-22.05,0Zm19.38-4.5a14.19,14.19,0,0,0,5.4-5.88,19.9,19.9,0,0,0,0-16.8,14.19,14.19,0,0,0-5.4-5.88,17.24,17.24,0,0,0-16.71,0,14.25,14.25,0,0,0-5.37,5.88,19.9,19.9,0,0,0,0,16.8,14.25,14.25,0,0,0,5.37,5.88,17.24,17.24,0,0,0,16.71,0Z"/><path d="M394.15,1004a2.57,2.57,0,0,1-.78-1.92v-37a2.67,2.67,0,0,1,.78-2,2.56,2.56,0,0,1,1.92-.81,2.77,2.77,0,0,1,2.76,2.76v19.08l20.52-20.88a2.61,2.61,0,0,1,2-1,2.53,2.53,0,0,1,1.77.69,2.23,2.23,0,0,1,.75,1.71,2.52,2.52,0,0,1-.66,1.86l-13.86,13.8,15.9,20a2.79,2.79,0,0,1,.66,1.74,2.34,2.34,0,0,1-.72,1.86,2.61,2.61,0,0,1-1.92.78,2.5,2.5,0,0,1-2.16-1.08L405.67,984l-6.84,6.9v11.22A2.56,2.56,0,0,1,398,1004a2.71,2.71,0,0,1-1.95.78A2.61,2.61,0,0,1,394.15,1004Z"/><path d="M432,1013a1.78,1.78,0,0,1-.51-1.26,1.67,1.67,0,0,1,.9-1.5,7,7,0,0,0,2.28-2.1,6.5,6.5,0,0,0,.78-3.48h-.24a3.38,3.38,0,0,1-3.36-3.36V1001a3.38,3.38,0,0,1,3.36-3.36h.6a3.38,3.38,0,0,1,3.36,3.36v3.54a9.67,9.67,0,0,1-4.92,8.76,1.94,1.94,0,0,1-1,.3A1.63,1.63,0,0,1,432,1013Z"/><path d="M465.48,997.17v-18.6h-4.26a1.14,1.14,0,0,1-1.14-1.14,1.25,1.25,0,0,1,.54-1l8.17-8a1.48,1.48,0,0,1,1-.54,1.09,1.09,0,0,1,.82.36,1.25,1.25,0,0,1,.33.84v4.8h6.77a2.26,2.26,0,0,1,2.34,2.34,2.3,2.3,0,0,1-.66,1.65,2.22,2.22,0,0,1-1.68.69H471v18.12c0,1.56.36,2.55,1.1,3a5.59,5.59,0,0,0,2.79.63,8.32,8.32,0,0,0,2.4-.36l.51-.12a3.37,3.37,0,0,1,.7-.06,2.15,2.15,0,0,1,1.5.63,2.07,2.07,0,0,1,.66,1.53,2.28,2.28,0,0,1-1.39,2.1,11.71,11.71,0,0,1-5,1.08Q465.48,1005.09,465.48,997.17Z"/><path d="M487.38,1004a2.61,2.61,0,0,1-.78-1.92V963.15a2.71,2.71,0,0,1,.78-1.95,2.56,2.56,0,0,1,1.92-.81,2.77,2.77,0,0,1,2.76,2.76v15.66a19.94,19.94,0,0,1,4.92-4,12.42,12.42,0,0,1,6.24-1.5,10.37,10.37,0,0,1,5.73,1.56,10.14,10.14,0,0,1,3.72,4.26,13.6,13.6,0,0,1,1.29,5.94v17a2.56,2.56,0,0,1-.81,1.92,2.71,2.71,0,0,1-1.95.78,2.66,2.66,0,0,1-2.7-2.7V985.65q0-7.32-6.6-7.32a9.55,9.55,0,0,0-5.37,1.56,19.44,19.44,0,0,0-4.47,4.2v18a2.56,2.56,0,0,1-.81,1.92,2.71,2.71,0,0,1-1.95.78A2.61,2.61,0,0,1,487.38,1004Z"/><path d="M523.56,966.75a3,3,0,0,1-.9-2.16v-.24a3.07,3.07,0,0,1,3.06-3.06h.36a3.07,3.07,0,0,1,3.06,3.06v.24a3.07,3.07,0,0,1-3.06,3.06h-.36A3,3,0,0,1,523.56,966.75Zm.36,37.26a2.61,2.61,0,0,1-.78-1.92V976.35a2.71,2.71,0,0,1,.78-2,2.56,2.56,0,0,1,1.92-.81,2.67,2.67,0,0,1,2.76,2.76v25.74a2.56,2.56,0,0,1-.81,1.92,2.71,2.71,0,0,1-1.95.78A2.61,2.61,0,0,1,523.92,1004Z"/><path d="M537.06,1002.39a2.29,2.29,0,0,1-1-2,2.41,2.41,0,0,1,.66-1.68,2.18,2.18,0,0,1,1.68-.72,2.64,2.64,0,0,1,1.08.24,24.25,24.25,0,0,0,3.84,1.32,17.85,17.85,0,0,0,4.32.48q6.66,0,6.66-4.26a2.27,2.27,0,0,0-1.53-2.1,31.33,31.33,0,0,0-5-1.62,45.27,45.27,0,0,1-5.85-1.74,10.29,10.29,0,0,1-4-2.73,6.94,6.94,0,0,1-1.65-4.83,8.65,8.65,0,0,1,3-6.84q3-2.64,8.67-2.64a25,25,0,0,1,8.7,1.5,2.25,2.25,0,0,1,1.29.9,2.41,2.41,0,0,1,.45,1.38,2.35,2.35,0,0,1-.69,1.68,2.27,2.27,0,0,1-1.71.72,3.37,3.37,0,0,1-.78-.12,23,23,0,0,0-6.84-1.08,9.37,9.37,0,0,0-5.07,1.17,3.49,3.49,0,0,0-1.83,3,2.77,2.77,0,0,0,1.68,2.64,24,24,0,0,0,5.22,1.62,50,50,0,0,1,5.76,1.77,9.52,9.52,0,0,1,3.81,2.73,7.41,7.41,0,0,1,1.59,5,7.93,7.93,0,0,1-3,6.36q-3,2.52-8.55,2.52A22.32,22.32,0,0,1,537.06,1002.39Z"/><path d="M584.34,1004a2.61,2.61,0,0,1-.78-1.92v-37a2.71,2.71,0,0,1,.78-2,2.56,2.56,0,0,1,1.92-.81,2.77,2.77,0,0,1,2.76,2.76v37a2.56,2.56,0,0,1-.81,1.92,2.71,2.71,0,0,1-2,.78A2.61,2.61,0,0,1,584.34,1004Z"/><path d="M616,1004a2.61,2.61,0,0,1-.78-1.92V963.15a2.71,2.71,0,0,1,.78-1.95,2.56,2.56,0,0,1,1.92-.81,2.77,2.77,0,0,1,2.76,2.76v24.54l14.28-13.2a2.76,2.76,0,0,1,1.8-.78,2.43,2.43,0,0,1,2,.78,2.87,2.87,0,0,1,.63,1.86,2.94,2.94,0,0,1-1,2l-8.64,7.74,10.86,14.4a2.63,2.63,0,0,1,.6,1.62,2.49,2.49,0,0,1-.78,1.92,2.81,2.81,0,0,1-2,.72,2.66,2.66,0,0,1-1.2-.3,3,3,0,0,1-1-.84l-10.32-14-5.22,4.74v7.74a2.56,2.56,0,0,1-.81,1.92,2.71,2.71,0,0,1-2,.78A2.61,2.61,0,0,1,616,1004Z"/><path d="M648.66,1004a2.61,2.61,0,0,1-.78-1.92V976.35a2.71,2.71,0,0,1,.78-2,2.56,2.56,0,0,1,1.92-.81,2.77,2.77,0,0,1,2.76,2.76v2.46a19.94,19.94,0,0,1,4.92-4,12.42,12.42,0,0,1,6.24-1.5,10.37,10.37,0,0,1,5.73,1.56,10.14,10.14,0,0,1,3.72,4.26,13.6,13.6,0,0,1,1.29,5.94v17a2.56,2.56,0,0,1-.81,1.92,2.71,2.71,0,0,1-1.95.78,2.66,2.66,0,0,1-2.7-2.7V985.65q0-7.32-6.6-7.32a9.55,9.55,0,0,0-5.37,1.56,19.44,19.44,0,0,0-4.47,4.2v18a2.56,2.56,0,0,1-.81,1.92,2.71,2.71,0,0,1-1.95.78A2.61,2.61,0,0,1,648.66,1004Z"/><path d="M689.82,1003.11a13.46,13.46,0,0,1-5.37-5.61,19.21,19.21,0,0,1,0-16.62,13.46,13.46,0,0,1,5.37-5.61,17.44,17.44,0,0,1,16.14,0,13.65,13.65,0,0,1,5.4,5.61,18.94,18.94,0,0,1,0,16.62,13.65,13.65,0,0,1-5.4,5.61,17.44,17.44,0,0,1-16.14,0ZM702.63,999a9.16,9.16,0,0,0,3.72-3.6,12,12,0,0,0,1.47-6.24,11.88,11.88,0,0,0-1.47-6.18,9,9,0,0,0-3.72-3.57,10.52,10.52,0,0,0-4.71-1.11,10.64,10.64,0,0,0-4.77,1.11,8.78,8.78,0,0,0-3.69,3.57,12.08,12.08,0,0,0-1.44,6.18,12.21,12.21,0,0,0,1.44,6.24,9,9,0,0,0,3.69,3.6,10.41,10.41,0,0,0,4.77,1.14A10.29,10.29,0,0,0,702.63,999Z"/><path d="M727.44,1004.07a3.66,3.66,0,0,1-1.32-1.8l-8.52-25a3.23,3.23,0,0,1-.18-1,2.66,2.66,0,0,1,2.7-2.7,2.74,2.74,0,0,1,1.53.45,2.21,2.21,0,0,1,.93,1.17l7,23.1,7-22.56a3.08,3.08,0,0,1,5.88,0l7,22.56,7-23.1a2.21,2.21,0,0,1,.93-1.17,2.74,2.74,0,0,1,1.53-.45,2.66,2.66,0,0,1,2.7,2.7,3.23,3.23,0,0,1-.18,1l-8.52,25a3.66,3.66,0,0,1-1.32,1.8,3.6,3.6,0,0,1-4.32,0,4,4,0,0,1-1.38-1.86l-6.36-19.86-6.36,19.86a4,4,0,0,1-1.38,1.86,3.6,3.6,0,0,1-4.32,0Z"/><path d="M766,1003.68a3.23,3.23,0,0,1-1-2.37V1001a3.38,3.38,0,0,1,3.36-3.36h.6a3.38,3.38,0,0,1,3.36,3.36v.36a3.38,3.38,0,0,1-3.36,3.36h-.6A3.23,3.23,0,0,1,766,1003.68Z"/><path d="M1543.32,1004a2.61,2.61,0,0,1-.78-1.92V967.71H1530.3a2.46,2.46,0,0,1-2.52-2.52,2.54,2.54,0,0,1,.72-1.83,2.39,2.39,0,0,1,1.8-.75h29.88a2.56,2.56,0,0,1,2.58,2.58,2.39,2.39,0,0,1-.75,1.8,2.54,2.54,0,0,1-1.83.72H1548v34.38a2.56,2.56,0,0,1-.81,1.92,2.71,2.71,0,0,1-2,.78A2.61,2.61,0,0,1,1543.32,1004Z"/><path d="M1568.7,1004a2.61,2.61,0,0,1-.78-1.92V963.15a2.71,2.71,0,0,1,.78-1.95,2.56,2.56,0,0,1,1.92-.81,2.77,2.77,0,0,1,2.76,2.76v15.66a19.94,19.94,0,0,1,4.92-4,12.42,12.42,0,0,1,6.24-1.5,10.37,10.37,0,0,1,5.73,1.56,10.14,10.14,0,0,1,3.72,4.26,13.6,13.6,0,0,1,1.29,5.94v17a2.56,2.56,0,0,1-.81,1.92,2.71,2.71,0,0,1-2,.78,2.66,2.66,0,0,1-2.7-2.7V985.65q0-7.32-6.6-7.32a9.55,9.55,0,0,0-5.37,1.56,19.44,19.44,0,0,0-4.47,4.2v18a2.56,2.56,0,0,1-.81,1.92,2.71,2.71,0,0,1-2,.78A2.61,2.61,0,0,1,1568.7,1004Z"/><path d="M1606.71,1000.92q-4.11-4.17-4.11-11.73a19.56,19.56,0,0,1,1.56-7.86,13.36,13.36,0,0,1,4.8-5.82,13.79,13.79,0,0,1,8-2.22,14,14,0,0,1,7.68,2.07,13.39,13.39,0,0,1,4.92,5.52,17,17,0,0,1,1.68,7.53,2.62,2.62,0,0,1-2.76,2.7h-20.34a9.87,9.87,0,0,0,3.12,6.54q2.64,2.34,7.38,2.34a18,18,0,0,0,4.41-.48,18.32,18.32,0,0,0,3.69-1.38,2.38,2.38,0,0,1,1.08-.24,2.41,2.41,0,0,1,1.68.66,2.18,2.18,0,0,1,.72,1.68,2.59,2.59,0,0,1-1.56,2.22,18.74,18.74,0,0,1-10.5,2.64Q1610.82,1005.09,1606.71,1000.92Zm19.11-14.25a9.61,9.61,0,0,0-1.53-4.92,8.26,8.26,0,0,0-3.33-2.91,9.15,9.15,0,0,0-8,0,8.06,8.06,0,0,0-3.3,2.91,9.79,9.79,0,0,0-1.5,4.92Z"/><path d="M1656.27,1000.92q-4.11-4.17-4.11-11.73a19.56,19.56,0,0,1,1.56-7.86,13.36,13.36,0,0,1,4.8-5.82,13.79,13.79,0,0,1,8-2.22,14,14,0,0,1,7.68,2.07,13.39,13.39,0,0,1,4.92,5.52,17,17,0,0,1,1.68,7.53,2.62,2.62,0,0,1-2.76,2.7h-20.34a9.87,9.87,0,0,0,3.12,6.54q2.64,2.34,7.38,2.34a18,18,0,0,0,4.41-.48,18.32,18.32,0,0,0,3.69-1.38,2.38,2.38,0,0,1,1.08-.24,2.41,2.41,0,0,1,1.68.66,2.18,2.18,0,0,1,.72,1.68,2.59,2.59,0,0,1-1.56,2.22,18.74,18.74,0,0,1-10.5,2.64Q1660.38,1005.09,1656.27,1000.92Zm19.11-14.25a9.61,9.61,0,0,0-1.53-4.92,8.26,8.26,0,0,0-3.33-2.91,9.15,9.15,0,0,0-8,0,8.06,8.06,0,0,0-3.3,2.91,9.79,9.79,0,0,0-1.5,4.92Z"/><path d="M1688.76,1004a2.61,2.61,0,0,1-.78-1.92V976.35a2.71,2.71,0,0,1,.78-2,2.56,2.56,0,0,1,1.92-.81,2.77,2.77,0,0,1,2.76,2.76v2.46a19.94,19.94,0,0,1,4.92-4,12.42,12.42,0,0,1,6.24-1.5,10.37,10.37,0,0,1,5.73,1.56,10.14,10.14,0,0,1,3.72,4.26,13.6,13.6,0,0,1,1.29,5.94v17a2.56,2.56,0,0,1-.81,1.92,2.71,2.71,0,0,1-2,.78,2.66,2.66,0,0,1-2.7-2.7V985.65q0-7.32-6.6-7.32a9.55,9.55,0,0,0-5.37,1.56,19.44,19.44,0,0,0-4.47,4.2v18a2.56,2.56,0,0,1-.81,1.92,2.71,2.71,0,0,1-2,.78A2.61,2.61,0,0,1,1688.76,1004Z"/><path d="M1730.13,1003.2a14.34,14.34,0,0,1-5.4-5.52,18.45,18.45,0,0,1,0-17,14.34,14.34,0,0,1,5.4-5.52,14.07,14.07,0,0,1,7-1.89,13.79,13.79,0,0,1,10.26,4.56v-14.7a2.63,2.63,0,0,1,.81-2,2.71,2.71,0,0,1,2-.78,2.56,2.56,0,0,1,1.92.81,2.71,2.71,0,0,1,.78,1.95v38.94a2.66,2.66,0,0,1-2.7,2.7,2.71,2.71,0,0,1-2-.78,2.56,2.56,0,0,1-.81-1.92v-1.56a13.79,13.79,0,0,1-10.26,4.56A14.07,14.07,0,0,1,1730.13,1003.2Zm13-4.44a14.82,14.82,0,0,0,4.29-3.27v-12.6a14.82,14.82,0,0,0-4.29-3.27,11.33,11.33,0,0,0-5.19-1.23,9.43,9.43,0,0,0-7.14,2.82q-2.7,2.82-2.7,8t2.7,8A9.43,9.43,0,0,0,1738,1000,11.33,11.33,0,0,0,1743.15,998.76Z"/><path d="M1762.77,1003.68a3.23,3.23,0,0,1-1-2.37V1001a3.38,3.38,0,0,1,3.36-3.36h.6a3.38,3.38,0,0,1,3.36,3.36v.36a3.38,3.38,0,0,1-3.36,3.36h-.6A3.23,3.23,0,0,1,1762.77,1003.68Z"/><path class="cls-3" d="M369.18,772.64l-2.8-3.59c.44.64.91,1.28,1.39,1.91ZM645.5,902.4l-3.16.77A96.44,96.44,0,0,1,628.27,905c-3.2.28-6.4.44-9.61.65-1.28.08-2.58.06-3.87.09-3.41.07-7,.32-10.38.08-5-.35-9.95-.68-14.93-1.44-3.12-.48-6.28-.83-9.36-1.5l-.64.58a46.21,46.21,0,0,1-18.28,10c-3.18.88-6.34,1.66-9.54,2.39-3.33,1.09-6.62,2.25-10.08,3A80.21,80.21,0,0,1,528,920.87a212.28,212.28,0,0,1-23.12,0q-8.94-.48-17.85-1.21c-5.73-.46-11.44-1.39-17.14-2.26-5.82-.46-11.64-.61-17.49-.82-7.18-.25-14.25-.83-21.39-1.68-8.84-1.06-17.68-2.43-26.49-3.74-1.69-.25-3.37-.66-5-1a121.46,121.46,0,0,1-12.72-3.64c-2.05-.7-4-1.59-6-2.4l-9.56-3.95c-6.56-2.55-13.17-5-19.6-7.9-9.51-4.28-17.61-10.68-25.77-17-2.46-1.9-4.88-3.86-7.35-5.74-4.63-3.52-9.45-6.9-13.69-10.87-3.1-2.91-6.16-5.89-9-9a110.47,110.47,0,0,1-8.09-10.43c-1.19-1.66-2.21-3.48-3.31-5.21-1.9-3-3.63-6.09-5.33-9.22-.82-1.51-1.74-3-2.46-4.56-4-8.69-8.13-17.44-11-26.59-2.22-7.15-4.23-14.35-6.4-21.52-2-6.54-4.47-12.92-6.6-19.41-2.38-7.27-4.49-14.59-6.5-22-2.25-8.26-4.54-16.55-6.28-24.93-1.55-7.42-2.84-14.86-3.93-22.36-1.05-7.25-2-14.51-3.2-21.74-1.19-7.06-2.86-14-4.45-21-1.69-7.48-3.43-15-5.14-22.42a209.31,209.31,0,0,1-4.62-30.5c-.51-6.62-.47-13.26-.4-19.91,0-4.65.22-9.33.65-14,.68-7.37,1.35-14.74,2.16-22.11,1.55-14.09,3.41-28.16,4.73-42.28q1.09-11.7,2.07-23.42c.74-8.87,1.93-17.68,3.17-26.49a86.25,86.25,0,0,1,1.87-9.26c1.36-5.41,2.71-10.82,4.19-16.2s2.92-10.68,4.37-16c3.51-14.54,6.27-29.4,11.59-43.42,1.87-4.93,4-9.67,6.29-14.4,1.46-3,3.22-5.9,4.87-8.82A191.81,191.81,0,0,1,277.3,310.2l.3-.4h0c.38-.5.76-1,1.13-1.51l.1-.12,3.61-4.8L281,305.32l.22-.29,1.81-2.4,1.66-2.21a80.63,80.63,0,0,1,6.64-7.54c3.69-3.79,7.37-7.56,11.3-11.09,5.35-4.8,10.62-9.72,16.15-14.3,4.39-3.62,8.81-7.16,13.38-10.55,3-2.24,6.16-4.2,9.35-6.19,8.82-5.53,18.52-9.27,28.37-12.53,6.88-2.27,13.84-4.42,20.79-6.47,8-2.35,16.05-4.15,24.15-5.94,7.18-1.59,14.35-3.19,21.57-4.59,3.56-.69,7.15-1.23,10.75-1.76,4.17-.61,8.35-1.24,12.56-1.46,11.5-.58,23.22,4.85,28.54,15.4a28.2,28.2,0,0,1,.13,24.57c-1.77,5.23-3.74,10.4-5.57,15.61-1.06,3-2.15,6.05-3,9.15a91.05,91.05,0,0,1-4.34,11.65c-5.08,11.89-10.63,23.56-15.89,35.37-2.84,7.26-5.58,14.57-8,22-2.71,8.47-5.1,17-7.42,25.62l-2.82,10.5c-1.68,6.77-3.19,13.56-4.66,20.38-1.22,5.7-2.18,11.42-3.06,17.18-.89,8.18-1.68,16.37-2.51,24.55-.87,8.49-2.14,16.92-3.33,25.37-.44,4.38-.87,8.74-1.14,13.13-.23,3.7-.35,7.37-.44,11.06a129.11,129.11,0,0,0,.78,13.77c-.24-1.85-.48-3.69-.73-5.54.39,2.94.77,5.87,1.16,8.81s1,5.65,1.39,8.49c.8,5.37,1.6,10.73,2.17,16.14.74,7,1.21,14.08,1.81,21.12.35,2.41.72,4.82,1.18,7.22.87,4.45,1.86,8.87,2.87,13.29,1.6,7,3.34,13.91,5.06,20.84.94,3.24,1.93,6.45,3,9.65,1.27,3.68,2.69,7.3,4.11,10.93,1.17,2.71,2.37,5.41,3.69,8.06,1.83,3.69,3.76,7.27,5.76,10.86q4.39,7.25,8.84,14.44c3.47,5.62,7.35,11,11.21,16.31,6.74,9.38,13.32,18.86,20.27,28.09C509,714,519.42,725.68,530.28,737c11.59,11,23.45,21.81,36,31.76,10.74,7.47,22,14.22,32.2,22.41l4.39,3.52c.85.68,1.82,1.33,2.6,2.09l11.36,11.1a36.06,36.06,0,0,1,2.59,3.19c2.31,2.84,4.62,5.68,6.84,8.6,1.1,1.44,2.2,2.87,3.29,4.31,5.11,6.27,10.37,12.32,16.05,18.1,3.54,3.6,7,7.25,10.43,10.95a85.4,85.4,0,0,1,6.09,8.05,30.74,30.74,0,0,1,4.51,10.58c.18.67.36,1.34.53,2,1.9,7.09-1.29,16.26-6.95,20.85-.64.52-1.29,1.05-2,1.57a29.45,29.45,0,0,1-9,5.32C648.07,901.8,646.74,902.1,645.5,902.4Z"/><path d="M638.27,892.2c-3.23,1-6.48,2-9.74,2.92l-6.18,1.7c-2,.56-4.07.94-6.11,1.39-3.31.72-6.65,1.27-10,1.82-5.44.9-10.86,2-16.31,2.8s-11,1.76-16.57,2.49l-1.07.14-2.16.28-.44,0-.76.11-.77.1-.77.1.24,0-1.87.24-.3,0-.73.1a4.1,4.1,0,0,1-.49.06c-.31,0-.61.07-.92.1l-3.07.28-6.2.55c-1.9.17-3.81.23-5.71.34-1.5.09-3,.18-4.49.25-7.6.37-15.19.76-22.79.69l-7.18-.08c-1.32,0-2.64-.12-4-.21-3.56-.23-7.11-.42-10.65-.77-3.7-.37-7.4-.68-11.08-1.1l-12.47-1.44c-7.54-.88-15.07-1.86-22.6-2.81-1.64-.21-3.28-.5-4.91-.76l-6.1-1c-1.21-.19-2.42-.48-3.62-.74s-2.41-.53-3.61-.81c-2.25-.52-4.49-1.13-6.71-1.76-2.44-.69-4.84-1.49-7.24-2.31-1.42-.48-2.84-1-4.24-1.5q-11.47-4.38-22.9-8.86c-3.57-1.4-7.13-2.83-10.69-4.24s-7.06-3-10.58-4.58c-1.25-.55-2.45-1.21-3.67-1.84-1.79-.91-3.65-1.76-5.37-2.8l-10.57-6.33c-.85-.51-1.66-1.08-2.49-1.62l-6.81-4.43-5.17-3.36c-1-.64-1.92-1.34-2.87-2-3.13-2.26-6.29-4.48-9.33-6.87L320.49,842c-3-2.39-5.95-5-8.75-7.61a89.56,89.56,0,0,1-9-9.91c-1.7-2.18-3.31-4.41-4.89-6.68l-6.39-9.18c-2.07-3-4.13-5.94-6.24-8.88l-4.07-5.65c-.9-1.25-1.74-2.54-2.6-3.82-1.11-1.65-2.29-3.27-3.31-5l-3.13-5.33c-.74-1.26-1.55-2.49-2.22-3.78l-3.24-6.38c-.63-1.24-1.31-2.46-1.89-3.72q-1.4-3-2.78-6.09c-1.39-3.05-2.77-6.09-4.11-9.17l-3.08-7.07c-.55-1.28-1.13-2.54-1.65-3.83q-2.51-6.21-5-12.43c-.35-.85-.64-1.72-.93-2.59-.87-2.55-1.73-5.11-2.6-7.66-.5-1.49-1.07-3-1.47-4.5l-1.32-5q-.94-3.53-1.88-7.07c-.26-1-.5-1.92-.69-2.91q-1.29-6.72-2.57-13.45c-.19-1-.28-2-.41-3.07q-.51-4-1-7.95-.56-4.32-1.07-8.65l-2.76-23.56-1.38-11.81c-.29-2.55-.51-5.1-.75-7.65s-.45-5.09-.63-7.65c-.38-5.45-.43-10.91-.34-16.37,0-2.68.11-5.36.33-8l.6-7.32q.3-3.67.61-7.37c.08-1,.13-2,.24-2.93.81-7.26,1.55-14.53,2.44-21.77l1.83-14.9c.36-2.93.81-5.84,1.26-8.76q.57-3.72,1.15-7.44c.15-1,.29-2,.48-3.05q1.33-7,2.65-14.09c1.31-7,2.83-14,4.28-20.92q2.07-10,4.14-20l2.94-14.27c.66-3.18,1.43-6.34,2.15-9.5.52-2.3,1-4.6,1.57-6.9s1.2-4.83,1.85-7.23c1.31-4.88,2.77-9.71,4.42-14.49s3.6-9.67,5.64-14.41,4.51-9.56,6.91-14.26c.79-1.54,1.62-3.07,2.44-4.6q3.27-6.11,6.53-12.2c1.66-3.1,3.39-6.18,5.08-9.27,1.5-2.72,3-5.48,4.54-8.16q3.53-5.92,7.06-11.86c.54-.92,1.14-1.8,1.72-2.69,1.5-2.31,3-4.62,4.51-6.94,1.88-2.9,3.89-5.71,5.88-8.54l3.45-4.89c.78-1.12,1.68-2.17,2.52-3.24,1.54-1.95,3.07-3.9,4.61-5.84.69-.88,1.38-1.73,2.13-2.56q2.44-2.76,4.92-5.52c1-1.14,2-2.33,3.08-3.43l9-9.18c.68-.69,1.39-1.36,2.1-2l5.9-5.54c2.64-2.48,5.42-4.8,8.17-7.16s5.67-4.52,8.54-6.73c1.14-.88,2.39-1.63,3.59-2.43,1.37-.92,2.72-1.92,4.16-2.73l5.72-3.24c1.34-.75,2.72-1.41,4.11-2.08,1.56-.76,3.11-1.56,4.71-2.27l6.3-2.79c3.11-1.38,6.27-2.66,9.41-4,1.84-.77,3.75-1.41,5.62-2.11,1.62-.6,3.24-1.16,4.87-1.7q5.1-1.71,10.22-3.29,2.65-.82,5.32-1.58c1.23-.34,2.46-.64,3.72-.9a11.07,11.07,0,0,1,1.72-.21,2.07,2.07,0,0,1,.65.12.76.76,0,0,1,.35,1.3,2.94,2.94,0,0,1-.42.3l-.26.15a.69.69,0,0,1-.91-.12q-.39.09-.78.21l.11,0c-2.77.78-5.48,1.76-8.19,2.73L419,237.49c-1,.36-2,.74-3,1.11-1.19.44-2.39.85-3.57,1.33l-7.36,3c-3.73,1.7-7.46,3.39-11.15,5.18-1.65.8-3.31,1.56-4.92,2.41L382.54,254l-6.84,4.2c-.26.16-.51.37-.77.55l-2.31,1.66-3.49,2.53-6.59,5.43c-.62.51-1.2,1.08-1.79,1.62l-4.18,3.8c-3.72,3.39-7.25,7-10.84,10.53l-7.43,7.9c-.69.73-1.41,1.43-2.06,2.2l-3.46,4.05c-1.94,2.27-4,4.48-5.75,6.86l-6.68,8.86q-3.27,4.88-6.56,9.73c-1.84,2.74-3.54,5.56-5.28,8.37-1,1.64-2,3.29-3.07,4.93-.59,1-1.12,2-1.68,2.94q-2.91,5.13-5.84,10.25c-3,5.7-6.05,11.36-9,17.08-5.31,10.32-10.83,20.57-15.26,31.3a209.13,209.13,0,0,0-7.87,23.38v-.06c-.79,2.94-1.59,5.9-2.23,8.88l-1.44,6.68c-.73,3.44-1.54,6.88-2.22,10.33-1.43,7.39-2.85,14.77-4.31,22.14q-2.37,12-4.75,24c-.57,2.89-1.16,5.77-1.69,8.67q-1.31,7.23-2.6,14.47c-.39,2.17-.68,4.36-1,6.54l-1.41,9.6q-1,8.52-2,17c-.56,4.71-1,9.42-1.53,14.13-.28,2.69-.57,5.37-.85,8-.19,1.7-.27,3.42-.4,5.12-.27,3.57-.55,7.15-.82,10.72-.08,1-.15,2-.23,3.06s-.07,1.86-.1,2.78q-.09,3-.1,6.09c0,5.62.3,11.21.79,16.81.36,4,.76,8.12,1.26,12.16q.94,7.68,1.91,15.35,1.4,11.19,2.81,22.4,1,7.41,2,14.82c.08.57.22,1.13.34,1.68q.51,2.6,1,5.19l1.62,8.09q1.44,5.19,2.87,10.39c.28,1,.51,2,.85,3,.68,2,1.37,3.93,2,5.9l2.19,6.28c.32.92.7,1.8,1.08,2.7q2.22,5.42,4.46,10.82c2.46,5.55,4.88,11.12,7.44,16.62q1.47,3.2,3,6.39c.41.87.79,1.76,1.23,2.61l5,9.62,3.49,5.84c.48.81,1,1.62,1.45,2.43s1,1.45,1.48,2.17c1.26,1.86,2.48,3.75,3.8,5.57l5.12,7c2.62,3.61,5.15,7.27,7.7,10.92,2.91,4.14,5.76,8.33,8.86,12.33a95.9,95.9,0,0,0,6.89,7.65,125.29,125.29,0,0,0,10,8.66l6.41,5,8.78,6.33c.68.48,1.4.91,2.1,1.37q3.06,2,6.11,4c2.5,1.62,5,3.32,7.52,4.85l9.73,5.82,3.89,2c1.23.63,2.44,1.33,3.7,1.88l9.15,4q10.08,4,20.19,8,4.68,1.82,9.36,3.59l5.28,2c2,.75,4,1.4,6,2.07,2.25.74,4.52,1.41,6.8,2,4.22,1.09,8.48,2,12.79,2.72l7.68,1.21q17.63,2.22,35.27,4.26c3.1.36,6.21.61,9.32.92,2.42.23,4.84.43,7.28.59l6.11.39c.79.05,1.56.1,2.35.11L524,897c3-.07,6.09-.08,9.13-.22l10.69-.53c3.16-.15,6.31-.36,9.46-.55,1.63-.1,3.26-.3,4.89-.44l4.82-.44,1-.13.7-.09,1.92-.25,1.38-.18c.2,0,.4-.06.6-.08l1.8-.23a3.32,3.32,0,0,1,.44-.06c2-.26,3.92-.57,5.88-.85,3.63-.54,7.26-1.11,10.9-1.67s7.18-1.23,10.77-1.86c3.41-.6,6.83-1.14,10.23-1.76,1.61-.29,3.23-.55,4.83-.9l5.61-1.23,6.34-1.75c2.18-.61,4.34-1.3,6.51-1.94s4.1-1.28,6.14-1.92c.9-.29,1.78-.62,2.67-.92s2-.67,3-1l12.44-4.73,1.64-.61-2-1.16c-1.7-1-3.3-2.15-4.91-3.25s-3-2.09-4.51-3.1c-3.42-2.3-6.82-4.66-10.31-6.83-1.85-1.15-3.67-2.35-5.55-3.45l-5.38-3.16c-3.27-1.83-6.54-3.63-9.84-5.4-3.07-1.65-6.13-3.31-9.17-5-1.39-.79-2.81-1.54-4.17-2.38l-5.82-3.56c-1.56-1-3.07-2-4.6-3.07q-2-1.31-3.93-2.67c-3.39-2.4-6.79-4.8-10.17-7.22-1.16-.83-2.32-1.63-3.51-2.42-1.57-1.05-3.11-2.16-4.73-3.13l-10.48-6.37c-1.29-.79-2.52-1.62-3.77-2.46-1.54-1-3.09-2-4.56-3.17l-5.06-3.88c-.44-.33-.83-.71-1.24-1.06L540.83,797c-1.11-.95-2.17-1.94-3.24-2.93-1.42-1.32-2.87-2.61-4.25-4-2.63-2.61-5.28-5.2-7.83-7.89l-4.23-4.47c-1.27-1.35-2.47-2.77-3.7-4.16-2.57-2.87-5.07-5.8-7.57-8.73s-4.81-5.85-7.19-8.8c-1-1.18-1.86-2.4-2.77-3.61-1.1-1.45-2.25-2.88-3.3-4.36l-3.66-5.19c-.92-1.3-1.88-2.57-2.75-3.89l-3.48-5.32c-1.09-1.67-2.24-3.31-3.25-5L478,719c-.27-.45-.48-.94-.72-1.4l-1.64-3.19-2.95-5.76c-.75-1.45-1.39-2.95-2.09-4.43-.79-1.68-1.57-3.37-2.37-5q-2.6-5.44-5.21-10.9c-1.66-3.46-3.4-6.89-5.1-10.34-1.57-3.17-3.26-6.28-4.9-9.42s-3.35-5.93-4.88-9q-3-5.91-5.93-11.81c-.51-1-.92-2.11-1.37-3.15L437.5,637c-.54-1.24-1.17-2.49-1.62-3.77-.65-1.83-1.29-3.67-1.94-5.51-.77-2.17-1.53-4.35-2.3-6.52-.41-1.16-.7-2.35-1-3.55q-1-3.68-2-7.37c-.34-1.28-.76-2.57-1-3.88q-1.15-6.08-2.32-12.16c-.26-1.34-.46-2.69-.69-4-.45-2.68-.91-5.36-1.36-8-.55-3.27-1.21-6.52-1.83-9.77-1.49-7.77-2.91-15.57-4.32-23.36-.19-1-.3-2.1-.42-3.16-.33-2.69-.65-5.38-1-8.07-.15-1.2-.37-2.41-.43-3.62l-.33-6.31c-.18-3.45-.39-6.9-.51-10.36-.14-3.94-.24-7.88-.42-11.82q-.56-12.11-1.17-24.2c-.18-3.58-.33-7.16-.5-10.74-.16-3.4-.18-6.8-.21-10.2l-.06-6.17c0-1.34.08-2.68.16-4,.14-2.6.29-5.2.43-7.79.07-1.27.09-2.55.23-3.81q.74-6.58,1.49-13.16c.42-3.75,1-7.48,1.46-11.22.93-7,1.68-14.09,2.38-21.15q.51-5.07,1.06-10.12c.4-3.72.71-7.45,1.26-11.15q.49-3.44,1-6.86c.17-1.15.34-2.29.5-3.43.08-.51.13-1,.23-1.53.43-2.05.85-4.1,1.28-6.15.31-1.47.58-3,.95-4.41,1.89-7.57,3.82-15.12,5.66-22.7s3.65-15,5.45-22.46c.87-3.63,1.61-7.3,2.52-10.93.64-2.55,1.27-5.09,1.91-7.64.53-2.12,1.26-4.2,1.93-6.29.32-1,.64-2.06,1-3.09.22-.7.52-1.38.78-2.07l2.37-6.23c.89-2.32,1.77-4.64,2.61-7,.63-1.78,1.13-3.6,1.64-5.42q.69-3.12,1.37-6.25c.45-2.13.95-4.28,1.59-6.37s1.35-4.35,2.23-6.46a68.78,68.78,0,0,1,2.83-6.32,5.29,5.29,0,0,1,2.25-2.29,5,5,0,0,1,7,6.09c-.56,1.47-1.19,2.9-1.81,4.35s-1.08,2.78-1.58,4.18-.93,2.92-1.36,4.39-.71,3-1,4.47c-.37,1.84-.75,3.69-1.13,5.53-.35,1.66-.83,3.29-1.26,4.93-.48,1.81-1.13,3.56-1.72,5.33s-1.31,3.59-2,5.38-1.24,3.42-1.87,5.12c-1.19,3.29-2.15,6.66-3.17,10-.78,3.22-1.59,6.44-2.31,9.67-.84,3.81-1.68,7.61-2.56,11.41-1.76,7.57-3.57,15.13-5.34,22.7-1.65,7-3.38,14-5.06,21-.45,1.83-.74,3.71-1.11,5.56-.31,1.54-.68,3.07-.9,4.63-.54,3.82-1.09,7.63-1.62,11.45-.67,6.36-1.35,12.71-2,19.06-.29,3-.56,5.9-.89,8.85-.41,3.68-.77,7.37-1.24,11.05s-1,7.65-1.49,11.47c-.4,3.14-.72,6.29-1.07,9.43l-.6,5.4c-.1.89-.12,1.79-.17,2.68q-.31,5.85-.64,11.69l.12,11.72c0,3.57.28,7.14.45,10.7.32,6.86.69,13.71,1,20.57.16,3.52.33,7.05.46,10.57.13,3.83.2,7.66.4,11.49l.72,13.68c0,.93.16,1.85.28,2.77.32,2.69.65,5.38,1,8.07.12.95.23,1.9.35,2.84,1,5.45,1.93,10.9,3,16.33,1.13,5.89,2.33,11.77,3.33,17.68q1,5.59,1.9,11.17c.47,2.77,1,5.52,1.57,8.27.28,1.51.57,3,.86,4.51.16.86.44,1.71.67,2.55q1.28,4.8,2.57,9.6,2.26,6.45,4.54,12.91,2.36,5.46,4.72,10.94c.38.87.74,1.74,1.16,2.59l3.31,6.6,2.61,5.21c.8,1.58,1.69,3.11,2.54,4.65,1.92,3.51,3.76,7,5.6,10.58,3.44,6.61,6.65,13.33,9.86,20.06q2.43,5.07,4.81,10.18c.56,1.19,1.09,2.4,1.7,3.57l3.37,6.59,1.67,3.25c.36.69.78,1.35,1.17,2l4.22,7.18c2.73,4.19,5.42,8.39,8.3,12.47l3,4.21c.53.74,1,1.51,1.59,2.25l4.9,6.48c2.17,2.7,4.32,5.43,6.56,8.07,2.59,3,5.16,6.08,7.81,9.06l4.09,4.59c1.37,1.55,2.85,3,4.27,4.52,2.49,2.65,5.09,5.19,7.67,7.75l4.21,3.92c1.22,1.13,2.47,2.22,3.73,3.31s2.34,2.09,3.58,3.05L558,796c2.07,1.41,4.11,2.89,6.25,4.2l7.44,4.56,4.07,2.49c1.18.72,2.31,1.55,3.46,2.32,2.45,1.64,4.84,3.35,7.24,5.07s4.65,3.33,7,5,4.76,3.28,7.16,4.9,4.82,3.09,7.26,4.6c2.05,1.28,4.17,2.44,6.27,3.63,4.19,2.31,8.41,4.57,12.56,7,4.43,2.55,8.82,5.15,13.12,7.91s8.38,5.57,12.5,8.45c1.81,1.25,3.58,2.55,5.37,3.83,1,.7,1.95,1.4,2.95,2.07s1.83,1.18,2.76,1.75q2.21,1.2,4.46,2.34c2.09,1,4.44,1.94,6,3.71a5.8,5.8,0,0,1,0,7.46A10.45,10.45,0,0,1,671,879.4c-.77.44-1.56.85-2.34,1.26a89.53,89.53,0,0,1-9.65,4.06l-9.85,3.75c-1.45.56-2.91,1.08-4.38,1.59C642.64,890.81,640.46,891.51,638.27,892.2Z"/><path d="M313.61,584.08a27.41,27.41,0,0,1-4.67.77,39.74,39.74,0,0,1-4.5,0c-2.94-.13-5.86-.57-8.81-.66-.46,0-.92,0-1.37.07s-.66.11-1,.19l-.37.13c-.24.11-.47.22-.71.35l-.07.05a4.19,4.19,0,0,1-5.4-.65,4.15,4.15,0,0,1-.06-5.44,9,9,0,0,1,3.07-2.3,12.53,12.53,0,0,1,4.47-1,27.56,27.56,0,0,1,4.62.34c1.38.17,2.76.4,4.14.59,1.73.21,3.48.35,5.22.39a23,23,0,0,0,2.35-.16,22.06,22.06,0,0,0,2.42-.49c.59-.18,1.17-.38,1.75-.61s1.16-.57,1.72-.89,1.06-.7,1.57-1.08c.8-.66,1.56-1.37,2.3-2.11a51.23,51.23,0,0,0,3.56-4.22,54,54,0,0,0,3.27-4.93,40.58,40.58,0,0,0,2.05-4.19c.32-.83.61-1.66.87-2.51.15-.59.28-1.18.38-1.78,0-.43.07-.85.09-1.28,0-.24,0-.48-.05-.72s-.09-.43-.15-.64v0l.09.32-.18-.52c-.21-.46-.44-.91-.68-1.37a9.17,9.17,0,0,1-2.25-1.44c-1.44-1.14-2.78-2.4-4.24-3.52-.68-.49-1.37-.94-2.08-1.37s-1.36-.7-2.07-1-1.55-.56-2.35-.79-1.82-.42-2.75-.56c-.77-.09-1.54-.14-2.31-.17a31.05,31.05,0,0,0-3.34.23,38.65,38.65,0,0,0-4.41.88,50.56,50.56,0,0,0-4.9,1.68c-.93.41-1.84.84-2.72,1.33a28,28,0,0,0-2.57,1.78c-1.54,1.24-3,2.6-4.39,4l.23-.23a103.21,103.21,0,0,0-7.79,8.54l-.22.32a2.19,2.19,0,0,1-4-1.62,3.3,3.3,0,0,1,.58-1.19,18.64,18.64,0,0,1,1.32-1.75l1.72-2.12c.81-1,1.66-2,2.51-3a65.22,65.22,0,0,1,9.13-9.22,26.09,26.09,0,0,1,4.79-2.8,45.18,45.18,0,0,1,6-2.37,30.69,30.69,0,0,1,11.61-1.46,25.86,25.86,0,0,1,11,3.46,60.62,60.62,0,0,1,5.69,4,24.38,24.38,0,0,1,2,1.52,4.56,4.56,0,0,1,1.42,2.41l0,.22c.24.51.45,1,.65,1.54a18.32,18.32,0,0,1,.95,2.88,17.52,17.52,0,0,1-.62,8.38,37.68,37.68,0,0,1-3.37,7.8,61.1,61.1,0,0,1-5,7.58,34.13,34.13,0,0,1-5.94,6.36,22,22,0,0,1-6.49,3.57C314.77,583.76,314.2,583.94,313.61,584.08Z"/><path d="M393.61,562.78a27.35,27.35,0,0,1-6.35,1.1,26.72,26.72,0,0,1-6.67-.53c-5.43-1-10.14-4-14.76-6.9-.6-.38-1.21-.75-1.82-1.12a7,7,0,0,1-1.68-1.29,6.67,6.67,0,0,1-1.26-2.29,15.09,15.09,0,0,1-.84-3.35,18.11,18.11,0,0,1,.18-4.35,79.35,79.35,0,0,1,2-9.55,31.52,31.52,0,0,1,1.72-5,17.7,17.7,0,0,1,12.82-10.42c1.6-.41,3.2-.81,4.82-1.16a24.4,24.4,0,0,1,4.08-.55,4.15,4.15,0,0,1,3.22.79,1.25,1.25,0,0,1-1,2.07h0a5.41,5.41,0,0,1-.59,0c-.68.11-1.34.25-2,.42-1.56.46-3.07,1.06-4.59,1.65a45.53,45.53,0,0,0-4.9,2.31c-.54.34-1.06.69-1.57,1.07s-.84.72-1.23,1.1-.72.81-1.06,1.24-.6.87-.88,1.32-.59,1.16-.85,1.76c-.36,1-.69,1.92-1,2.9a102.39,102.39,0,0,0-2,10.39c-.09.82-.17,1.63-.21,2.45l0,.45c0,.28.1.56.17.84s.21.66.33,1c.62.38,1.26.72,1.88,1.09l2.3,1.37a52.52,52.52,0,0,0,5.11,2.64c.81.31,1.63.6,2.46.84s1.65.37,2.49.5,1.65.15,2.48.17a20.36,20.36,0,0,0,2.07-.13,23.67,23.67,0,0,0,2.51-.49c.78-.23,1.55-.49,2.3-.79s1.41-.69,2.09-1.08,1.42-1,2.1-1.49,1.48-1.28,2.17-2a4.67,4.67,0,0,1,6.67,6.52,17.55,17.55,0,0,1-4.49,3.65,26.31,26.31,0,0,1-5.28,2.5Z"/><path d="M393.08,543.47a6.92,6.92,0,0,1-4.49-.32,7.64,7.64,0,0,1-3.68-3.61,7.77,7.77,0,0,1-.56-5,8.74,8.74,0,0,1,2.83-4.67,6.64,6.64,0,0,1,4.82-1.78,6.24,6.24,0,0,1,2.36.64,5.86,5.86,0,0,1,2.25,2,9.22,9.22,0,0,1,.67,1.23c.14.19.26.39.38.59a7.28,7.28,0,0,1,1,4.23,7.66,7.66,0,0,1-5.05,6.53Z"/><path d="M316.94,561.43a3.41,3.41,0,0,1-.46.05,7.34,7.34,0,0,1-1.93.1,3.48,3.48,0,0,1-3.15-4,3.21,3.21,0,0,1-.09-.61,7,7,0,0,1,.16-2,6.51,6.51,0,0,1,.81-1.85,8.21,8.21,0,0,1,1.32-1.56,9.18,9.18,0,0,1,2.13-1.59,5.29,5.29,0,0,1,4.27-.69,5.15,5.15,0,0,1,1.78,1,4.27,4.27,0,0,1,1.2,2.15,5.94,5.94,0,0,1-.46,4,7.77,7.77,0,0,1-1.2,1.89,10.91,10.91,0,0,1-1.7,1.63,4.74,4.74,0,0,1-1.92,1.22A6,6,0,0,1,316.94,561.43Z"/><path d="M280.4,554.13c-.16-.14-.32-.28-.47-.44s-.33-.4-.5-.6l-1-.86c-.55-.37-1.08-.76-1.65-1.1l-1-.64a11,11,0,0,1-1.23-.82,6.55,6.55,0,0,1-.58-.49l-.51-.53a1.37,1.37,0,1,1,2.24-1.53q.23.46.48.9l-.08-.14c.31.5.65,1,1,1.45s1,1.21,1.51,1.8l.68.81c.4.48.78,1,1.19,1.43a.29.29,0,0,1,.48.11.54.54,0,0,1,0,.22h0a.45.45,0,0,1-.17.44.18.18,0,0,1-.09.06A.31.31,0,0,1,280.4,554.13Z"/><path d="M285.4,548.47a1.61,1.61,0,0,1-.56-.48,1.14,1.14,0,0,1-.23-.86.36.36,0,0,0,0-.09c0-.09-.08-.18-.13-.27s-.27-.43-.41-.63a9.58,9.58,0,0,0-.69-.73h0c-.61-.57-1.27-1.06-1.88-1.63a11,11,0,0,1-1.57-1.89,1.83,1.83,0,1,1,3.14-1.86l.23.56a.61.61,0,0,0,0-.12q.19.42.42.81c.24.37.49.73.76,1.08l.91,1.13a1.71,1.71,0,0,0-.11-.14,14.41,14.41,0,0,1,1.07,1.49,9,9,0,0,1,.74,1.61,1.2,1.2,0,0,1,.23.7,1.88,1.88,0,0,1,0,.41h0a1.29,1.29,0,0,1-.83,1A1.31,1.31,0,0,1,285.4,548.47Z"/><path d="M291.93,539.14c-.39-.84-.71-1.7-1-2.55s-.7-1.82-1.06-2.72c-.24-.55-.48-1.09-.74-1.63a1.7,1.7,0,1,1,3.13-1.32c.61,2.08,1.29,4.13,2.09,6.14.11.24.22.47.34.7a1.54,1.54,0,0,1-.67,2l-.18.08A1.54,1.54,0,0,1,291.93,539.14Z"/><path d="M299.44,537.12a2.46,2.46,0,0,1-1.31-1.7,39.43,39.43,0,0,1-.76-4.32c-.22-1.62-.44-3.25-.51-4.89a2.37,2.37,0,1,1,4.74-.3,32.45,32.45,0,0,0,.22,3.27l-.05-.31.3,2.15c.09.64.25,1.28.37,1.92.11.41.23.81.35,1.22a2.42,2.42,0,0,1-3.35,3Z"/><path d="M312.21,533.82a.66.66,0,0,1-.76-.51c-.05-.37-.12-.74-.15-1.12s0-.72-.07-1.08-.06-1-.1-1.45-.07-1.18-.13-1.77-.12-1.06-.19-1.6-.19-1.25-.3-1.87a1.53,1.53,0,1,1,3,0q-.13.54-.24,1.08l-.12.74c-.06.53-.11,1.07-.17,1.6s-.08,1.09-.12,1.63c-.07,1-.14,2.11-.15,3.17v.48a.66.66,0,0,1-.43.68Z"/><path d="M321.76,535.85a23.33,23.33,0,0,1-.28-4.17c0-.94,0-1.88,0-2.82,0-1.92,0-3.84.17-5.75a2.22,2.22,0,1,1,4.4.58c-.11.66-.21,1.32-.3,2-.12,1.3-.21,2.59-.27,3.89s-.06,2.47-.06,3.7V533q0,.78.12,1.56a1.55,1.55,0,0,0,0,.21,2,2,0,1,1-3.81,1.08Z"/><path d="M330.88,542.21a1.13,1.13,0,0,1-1.19-1.2,3.1,3.1,0,0,1,.17-.73c.14-.42.28-.85.4-1.28a21.4,21.4,0,0,0,.49-2.51c.11-1,.15-2,.19-3.08,0-.48,0-1,0-1.44v-.91c0-.44,0-.87-.07-1.31a1.42,1.42,0,1,1,2.83,0c-.13,1.26-.22,2.52-.32,3.79a32.78,32.78,0,0,1-.49,4c-.12.65-.28,1.29-.45,1.92s-.33,1.06-.49,1.59a1.15,1.15,0,0,1-.78,1.15A.87.87,0,0,1,330.88,542.21Z"/><path d="M362.59,544.09l-1.14-.62c-.8-.43-1.59-.9-2.38-1.37s-1.28-.81-1.92-1.23-1.53-1-2.3-1.54a1.77,1.77,0,1,1,2.44-2.48l.25.35c.44.54.9,1,1.37,1.57l1.27,1.23c.4.38.85.72,1.27,1.09l1.29,1.07c.18.15.37.3.55.47a5.38,5.38,0,0,1,.68.67,1.34,1.34,0,0,1,.11.14.56.56,0,0,1,.14.29h0a.67.67,0,0,1-.35.71l-.09,0C363.37,544.62,362.93,544.27,362.59,544.09Z"/><path d="M366.35,534.09a2,2,0,0,1-.5-.36c-.29-.29-.56-.58-.81-.88-.42-.49-.81-1-1.2-1.53L362,529c-.69-.84-1.4-1.68-2.1-2.52a1.64,1.64,0,1,1,2.69-1.84c.44,1,1,1.89,1.48,2.81.91,1.43,1.8,2.88,2.83,4.22.16.2.33.39.5.57h0a1,1,0,0,1,.46.57,1.09,1.09,0,0,1-.67,1.37l0,0A1.08,1.08,0,0,1,366.35,534.09Z"/><path d="M368.72,524.69c-.16-.53-.37-1.05-.56-1.57s-.44-1.24-.67-1.86c-.46-1.26-.95-2.51-1.45-3.76l-.54-1.12c-.12-.25-.26-.49-.4-.73l-.29-.42a1.85,1.85,0,1,1,3.38-1.17c0,.43.06.86.1,1.28s.16.95.27,1.41l.45,1.86c.23.82.45,1.64.71,2.46.31,1,.58,2,1,2.94a1,1,0,1,1-2,.68Z"/><path d="M376.29,520.27a.81.81,0,0,1-.63-.95.6.6,0,0,1,.06-.19c-.11-.6-.25-1.19-.39-1.78-.45-1.64-.9-3.28-1.43-4.9a1.33,1.33,0,1,1,2.59-.51c0,.48.06,1,.11,1.44.14,1,.29,2,.44,3,.13.77.22,1.55.3,2.32a1.77,1.77,0,0,1-.15,1.2,1,1,0,0,1-.46.36A.93.93,0,0,1,376.29,520.27Z"/><path d="M384.25,518a2.21,2.21,0,0,1-.92.12,2.06,2.06,0,0,1-1.58-3.18l0,0c0-1.81,0-3.62-.06-5.43a2.1,2.1,0,1,1,4.2,0c-.17,1.64-.22,3.28-.25,4.93a10.78,10.78,0,0,1-.12,2.12,2,2,0,0,1-1.21,1.44Z"/><path d="M422.64,714.27a29.2,29.2,0,0,1-8.32,1,17.68,17.68,0,0,1-4.22-.66,14.87,14.87,0,0,1-3.56-1.56,4.61,4.61,0,0,1-1.91-2.47,4.85,4.85,0,0,1,.22-3.7,4.91,4.91,0,0,1,2.17-2.2,4.71,4.71,0,0,1,3.73-.26c.73.29,1.48.54,2.23.76.4.09.8.17,1.2.23.68.07,1.36.11,2,.13.87,0,1.73-.07,2.6-.16s1.71-.3,2.55-.5l.64-.21c-.34-.63-.69-1.25-1-1.87-.76-1.41-1.58-2.79-2.35-4.2-.35-.66-.76-1.31-1.06-2l-1.12-2.55c-.38-.86-.68-1.77-1-2.66-.22-.59-.43-1.18-.63-1.78q-1.76-5.19-3.53-10.38c-.44-1.31-.95-2.6-1.44-3.89-.54-1.44-1-2.91-1.63-4.34-1.22-2.95-2.45-5.9-3.65-8.86-1.27-3.12-2.57-6.23-3.72-9.4s-2.3-6.28-3.4-9.45-2.12-6.13-3.27-9.17l-2.85-7.55-4-8.89c-.36-.83-.8-1.62-1.22-2.42l-2.85-5.52c-1.37-2.65-2.89-5.24-4.35-7.84-1.3-2.34-2.66-4.65-4-7-.26-.43-.52-.86-.77-1.29-.42-.71-.85-1.39-1.33-2.06-.07-.07-.13-.15-.19-.22a1.18,1.18,0,0,1-.94-.88,2.21,2.21,0,0,1,0-.68,1.1,1.1,0,0,1,1.9-.65,15.91,15.91,0,0,1,1.61,2c.59.85,1.09,1.76,1.63,2.64.33.53.65,1.08,1,1.62.89,1.49,1.8,3,2.68,4.48,1.57,2.68,3.2,5.33,4.7,8l2.87,5.18c.59,1.06,1.22,2.12,1.75,3.21l2.61,5.38c.61,1.27,1.29,2.52,1.84,3.82,0-.06-.05-.13-.08-.19l4.31,10.22,0,0c1.29,3.07,2.49,6.18,3.73,9.27l-.1-.25,2,4.71c.57,1.33,1.1,2.68,1.71,4,1.38,2.92,2.73,5.86,4.14,8.77,1.48,3.07,3,6.13,4.38,9.26l2.27,5.16c.73,1.64,1.37,3.33,2.05,5,.26.64.52,1.28.79,1.91.64,1.53,1.23,3.08,2,4.56l1.45,3c.39.78.88,1.53,1.33,2.29l-.11-.19c2.33,3.57,4.73,7.11,6.86,10.81a4.81,4.81,0,0,1,.65,3.39,7.34,7.34,0,0,1-.66,1.82,7.25,7.25,0,0,1-1.27,1.7,14.79,14.79,0,0,1-5.46,3.12C423.67,714,423.15,714.13,422.64,714.27Z"/><path d="M399.75,764.92a30.86,30.86,0,0,1-10.05-.51,29.55,29.55,0,0,1-9.34-3.92,33.61,33.61,0,0,1-6.94-5.87c-.94-1-1.89-2-2.85-3-.36-.35-.72-.69-1.09-1a7.51,7.51,0,0,1-1.22-1.17,2.74,2.74,0,0,1,3.14-4.15,6.61,6.61,0,0,1,1.55.94c.62.44,1.22.92,1.81,1.41,1.68,1.39,3.34,2.84,5.06,4.19,1,.7,2,1.36,3,2s2.09,1.08,3.18,1.55c.92.34,1.84.64,2.78.91.78.19,1.56.35,2.35.49,1.12.13,2.24.21,3.38.23s2.44-.12,3.66-.26c1.44-.23,2.85-.54,4.26-.9a50.41,50.41,0,0,0,5.05-1.78c2.21-1,4.32-2.09,6.43-3.27s4-2.42,5.93-3.83c.23-.2.45-.39.67-.6a5.22,5.22,0,1,1,5.84,8.54c-2.55,1.16-5,2.54-7.52,3.82a75,75,0,0,1-8,3.56l-1.1.4A47.91,47.91,0,0,1,399.75,764.92Z"/><path d="M358.42,759.49a6.76,6.76,0,0,1-5.81-1,5.16,5.16,0,0,1-2-2.55,5,5,0,0,1,3.1-6.35,4.86,4.86,0,0,1,2.5-.19c.54-.35,1.07-.73,1.59-1.13s1.3-1.08,1.91-1.67,1.12-1.25,1.65-1.91.73-1.11,1.07-1.69c.51-.92,1-1.87,1.39-2.84.12-.35.24-.7.34-1.06.16-.63.28-1.27.39-1.92s.11-1.21.12-1.82,0-1-.09-1.52c-.13-.77-.31-1.53-.44-2.3a4.83,4.83,0,0,1,1.91-5,4.7,4.7,0,0,1,6.49,1.21c.17.27.33.53.49.81a8.22,8.22,0,0,1,.51,1.44,17.68,17.68,0,0,1,.57,2.88,21.52,21.52,0,0,1,0,5.32,26.1,26.1,0,0,1-1.24,5.31,27.15,27.15,0,0,1-2.43,5.07,30.25,30.25,0,0,1-7.1,8,15.36,15.36,0,0,1-4.56,2.81Z"/><path d="M1420,619.06a41.67,41.67,0,0,1-7.53-2.53,33.9,33.9,0,0,1-7.31-4.28,20.16,20.16,0,0,1-4.7-5.13,14.56,14.56,0,0,1-1.45-3,9.05,9.05,0,0,1-.39-1.35,4.37,4.37,0,0,1,0-1.35,2.28,2.28,0,0,1,1.66-1.91l.36-.07a2.27,2.27,0,0,1,2.54,1.83l.59,1c.4.56.83,1.1,1.27,1.62s.71.76,1.09,1.12q.84.72,1.74,1.38c1,.63,2,1.21,3,1.75,1.35.64,2.73,1.18,4.14,1.69a47.5,47.5,0,0,0,4.81,1.31,63.83,63.83,0,0,0,7.55,1,77.55,77.55,0,0,0,8.89,0,47.75,47.75,0,0,0,5.18-.71,52.88,52.88,0,0,0,5.24-1.47,56.29,56.29,0,0,0,5.44-2.28,51.94,51.94,0,0,0,4.62-2.69q1.77-1.24,3.41-2.65c.91-.83,1.78-1.7,2.62-2.61s1.57-1.93,2.28-3c1-1.54,1.94-3.14,2.79-4.77a88.87,88.87,0,0,0,3.86-9.38c1.23-3.59,2.4-7.19,3.47-10.83a5.43,5.43,0,1,1,10.23,3.56c-.74,1.9-1.41,3.83-2.1,5.75-1.47,4.09-3,8.15-4.74,12.12a47.74,47.74,0,0,1-9.51,14.25,45.46,45.46,0,0,1-14.49,9.42,48.93,48.93,0,0,1-17.22,3.92c-.76,0-1.53,0-2.29,0A70.37,70.37,0,0,1,1420,619.06Z"/><path d="M1446.87,443.78c-.49.06-1,.13-1.47.22l-.41.12c-.24.09-.47.19-.71.3s-.43.24-.64.38c-.48.34-1,.7-1.4,1.08s-.94.92-1.38,1.4c-.57.68-1.1,1.38-1.61,2.11-.78,1.2-1.48,2.46-2.14,3.73-.54,1.08-1,2.17-1.55,3.27-.39.84-.83,1.67-1.17,2.53l-2.19,5.39c-.43,1.23-.85,2.46-1.28,3.7a66.31,66.31,0,0,0-2.06,7.23,57.45,57.45,0,0,0-.87,5.69l-.36,3.58c-.08,2.07-.17,4.12-.09,6.19q.14,1.6.42,3.18c.24,1.08.53,2.14.87,3.2a46,46,0,0,0,1.85,4.34c.77,1.5,1.6,2.94,2.5,4.36s1.81,2.64,2.83,3.87c.36.39.71.76,1.09,1.12s.61.47.92.7.75.45,1.13.66q1.1.51,2.22.93c1.08.34,2.16.63,3.26.88a48.79,48.79,0,0,0,5.12.68,43.9,43.9,0,0,0,4.73,0c.87-.07,1.72-.18,2.58-.33.54-.12,1.08-.27,1.61-.43l1-.44c.42-.23.83-.46,1.22-.71.63-.45,1.23-.93,1.82-1.42,1.76-1.65,3.34-3.45,4.93-5.26l3.15-4c.49-.61.91-1.29,1.36-1.93l1.33-1.89c.79-1.24,1.54-2.5,2.22-3.8.22-.46.42-.93.6-1.4.2-.69.38-1.38.55-2.08.57-3.05.81-6.16,1.11-9.25.18-1.7.27-3.41.38-5.12.11-3.21.25-6.41.08-9.62a53.46,53.46,0,0,0-.71-5.34c-.21-1-.46-1.92-.76-2.87s-.67-1.7-1.07-2.53-.8-1.42-1.24-2.11-.88-1.17-1.35-1.73q-1.52-1.68-3.18-3.21c-.74-.62-1.51-1.19-2.29-1.74s-1.53-1-2.31-1.38-1.48-.66-2.23-.95-1.78-.53-2.7-.73c-.64-.11-1.29-.19-1.94-.25s-1.33,0-2,0c-1.17.13-2.33.33-3.49.49a1.72,1.72,0,0,1,.07.21,1.63,1.63,0,0,1-3.14.91.71.71,0,0,1-.1-.14l-.35-.44a4.89,4.89,0,0,0-.39-.4,6.86,6.86,0,0,0-.67-.5l.17.12-.41-.22L1448,444l-.61-.18-.4-.05Zm3.82,82.16a39.81,39.81,0,0,1-16.37-3.75,20.48,20.48,0,0,1-6-4.57,40.87,40.87,0,0,1-3.53-4.75,51.33,51.33,0,0,1-5.92-11.94,33.19,33.19,0,0,1-1.6-8,41.94,41.94,0,0,1,.07-6.34c.14-1.67.28-3.32.51-5,.14-1,.28-2.08.43-3.13a55.07,55.07,0,0,1,1.34-6.32,68.13,68.13,0,0,1,2.85-8.17c.6-1.52,1.18-3,1.87-4.5s1.44-3.26,2.3-4.8c1.22-2.18,2.39-4.37,3.8-6.43a26.66,26.66,0,0,1,8.73-8.37,12.84,12.84,0,0,1,2.4-1.05,6.53,6.53,0,0,1,1.52-.39,15.16,15.16,0,0,1,1.65-.05,6.46,6.46,0,0,1,1.11.15,5.66,5.66,0,0,1,.69-2,5.8,5.8,0,0,1,3.28-2.53,31.79,31.79,0,0,1,5-1.11,24.41,24.41,0,0,1,9,.46,30.31,30.31,0,0,1,7.36,2.72,30.62,30.62,0,0,1,3.23,2,32.38,32.38,0,0,1,3.48,2.7,45.89,45.89,0,0,1,5.23,5.48,29.52,29.52,0,0,1,4.18,7.37c2.09,5.15,2.66,10.86,2.72,16.38,0,1.22,0,2.44-.08,3.67s-.06,2.51-.15,3.77c-.13,1.87-.22,3.74-.41,5.61-.26,2.65-.5,5.31-.88,7.95a28.63,28.63,0,0,1-2.12,7.72,39.17,39.17,0,0,1-3.66,6.3c-1.12,1.59-2.2,3.22-3.41,4.74-.78,1-1.57,2-2.36,3-.59.74-1.24,1.44-1.88,2.15l-2.06,2.31a31.22,31.22,0,0,1-6.56,5.5c-4,2.57-9,3.29-13.69,3.29C1452.05,526,1451.37,526,1450.69,525.94Z"/><path d="M1408.35,523.36c-3.4-.45-6.8-.83-10.21-1.21a42.12,42.12,0,0,1-5.67-1,18.19,18.19,0,0,1-6.77-3.3,21.93,21.93,0,0,1-3.15-3.31c-.54-.63-1.07-1.26-1.6-1.9l-3.43-4.11-1.68-2a46.85,46.85,0,0,1-4.45-6.12c-2.64-4.42-3.37-9.66-3.51-14.72a54.89,54.89,0,0,1,.37-7.47,43.94,43.94,0,0,1,1.53-7.36c.71-2.49,1.65-4.9,2.52-7.33.55-1.52,1.21-3,1.85-4.48a102.72,102.72,0,0,1,4.63-9.42l1.23-2.22c.54-1,1.19-1.87,1.81-2.78a30.08,30.08,0,0,1,2.38-3,39.44,39.44,0,0,1,5.08-4.76c.92-.72,1.89-1.37,2.86-2a25.5,25.5,0,0,1,7.11-3.46,15.06,15.06,0,0,1,4.21-.73,23.3,23.3,0,0,1,8.16,1.58,23.64,23.64,0,0,1,6.2,3.38l1.41,1.05a18,18,0,0,1,3,3,27.73,27.73,0,0,1,2.43,3.17,13.44,13.44,0,0,1,1.62,4.6,12.94,12.94,0,0,1,.24,4,2.09,2.09,0,0,1-.66,1.49l-.07.06c-.61.61-1.42-.33-1-.86,0-.39-.09-.77-.16-1.15s-.25-1-.4-1.45-.42-1-.66-1.52c-.18-.31-.37-.61-.56-.9s-.3-.41-.47-.61c-.33-.36-.68-.7-1-1s-.93-.72-1.41-1.06a29.18,29.18,0,0,0-2.77-1.59c-1.54-.76-3.15-1.44-4.76-2.05a33.13,33.13,0,0,0-3.24-.91c-.85-.16-1.7-.28-2.56-.36-.65,0-1.3,0-2,0l-.84.11c-.36.09-.71.19-1.06.3-.61.22-1.2.47-1.78.74-.81.43-1.59.9-2.35,1.39-1.25.88-2.44,1.81-3.59,2.8q-1.25,1.14-2.37,2.37c-.72.85-1.39,1.72-2,2.63-1.37,2.08-2.48,4.3-3.64,6.5-.38.82-.77,1.65-1.16,2.47s-.75,1.48-1.06,2.24c-.77,1.87-1.53,3.74-2.31,5.61a84.36,84.36,0,0,0-3,9.63,42.87,42.87,0,0,0-.61,4.53,55.74,55.74,0,0,0,0,6.2c.11,1.18.26,2.35.47,3.51.16.72.36,1.42.58,2.12.17.48.37.94.58,1.41.37.66.76,1.3,1.17,1.94,1.81,2.56,4,4.85,6,7.26,1.47,1.77,2.92,3.56,4.42,5.3.19.21.37.4.57.59l.4.3.49.29c.25.11.49.22.75.32.74.23,1.48.42,2.24.59,2.64.47,5.33.69,8,1,2.21.24,4.41.56,6.62.76h1l1-.13c.8-.19,1.59-.43,2.37-.69,1.33-.49,2.62-1.06,3.9-1.66.61-.33,1.21-.67,1.8-1l.32-.24.16-.17q.69-.82,1.32-1.71a5.47,5.47,0,0,1,9.37,1.22,5.35,5.35,0,0,1,0,4.26,18.4,18.4,0,0,1-1.58,2.76,13.4,13.4,0,0,1-1.16,1.45,17.54,17.54,0,0,1-1.34,1.25,14.46,14.46,0,0,1-1.5,1.06q-.73.46-1.5.87c-1.27.68-2.6,1.27-3.93,1.83a30,30,0,0,1-7,2.06,16.46,16.46,0,0,1-2.43.18A28.53,28.53,0,0,1,1408.35,523.36Z"/><path d="M1391.75,500.45a6.44,6.44,0,0,1-2.55-.9,6.3,6.3,0,0,1-1.92-1.75,8.23,8.23,0,0,1-1.14-2.46,8.42,8.42,0,0,1-.27-1.5,6.6,6.6,0,0,1,0-1.83,12.35,12.35,0,0,1,2-5.13c.11-.24.22-.48.34-.71,1.64-3.19,4.83-6.06,8.58-6.2a7.45,7.45,0,0,1,4.94,1.43,9.31,9.31,0,0,1,1.86,1.9,8.9,8.9,0,0,1,1.21,2.66,8.59,8.59,0,0,1-.17,4.92,13,13,0,0,1-2.92,4.8,18,18,0,0,1-2,1.74,16.91,16.91,0,0,1-2.36,1.56,17.27,17.27,0,0,1-2.38,1.13,7.93,7.93,0,0,1-1.6.38l-.55,0C1392.49,500.52,1392.12,500.48,1391.75,500.45Z"/><path d="M1438.37,502.45a6,6,0,0,1-2.78-.94,8.87,8.87,0,0,1-3.73-5.33,12.48,12.48,0,0,1,0-6.42,9.67,9.67,0,0,1,.63-2.46,10.44,10.44,0,0,1,1.14-2,6.17,6.17,0,0,1,1.84-1.53,5.66,5.66,0,0,1,2.29-.77,6.33,6.33,0,0,1,2.25.15,6.23,6.23,0,0,1,2.84,1,8.44,8.44,0,0,1,3.72,5.76,9.87,9.87,0,0,1-.59,5.43,12.48,12.48,0,0,1-.58,2.07,10.91,10.91,0,0,1-1.49,2.56,6.32,6.32,0,0,1-2.61,2,6.55,6.55,0,0,1-2.58.53Z"/></svg>