<svg id="Layer_1" data-name="Layer 1" xmlns="http://www.w3.org/2000/svg" viewBox="0 0 1920 1080"><defs><style>.cls-1{fill:blue;opacity:0.2;}.cls-2{font-size:60px;font-family:VarelaRound-Regular, Varela Round;}.cls-3{letter-spacing:-0.07em;}.cls-4{letter-spacing:-0.01em;}.cls-5{letter-spacing:-0.02em;}.cls-6{letter-spacing:0em;}.cls-7{letter-spacing:-0.03em;}.cls-8{letter-spacing:-0.02em;}.cls-9{letter-spacing:-0.01em;}.cls-10{letter-spacing:0em;}.cls-11{letter-spacing:-0.01em;}.cls-12{fill:#ffdc00;}</style></defs><circle class="cls-1" cx="1440" cy="544" r="450"/><text class="cls-2" transform="translate(91.45 513.49)"><tspan class="cls-3">Y</tspan><tspan x="33.84" y="0">ou </tspan><tspan class="cls-4" x="122.46" y="0">w</tspan><tspan x="169.56" y="0">e</tspan><tspan class="cls-5" x="203.52" y="0">r</tspan><tspan class="cls-6" x="225.6" y="0">e sleeping </tspan><tspan class="cls-7" x="529.61" y="0">f</tspan><tspan x="550.79" y="0">or a </tspan><tspan x="0" y="72">long time, it</tspan><tspan class="cls-8" x="337.37" y="72">’</tspan><tspan x="350.69" y="72">s </tspan><tspan class="cls-9" x="395.09" y="72">a</tspan><tspan x="428.09" y="72">t lea</tspan><tspan class="cls-10" x="549.23" y="72">s</tspan><tspan x="577.79" y="72">t </tspan><tspan class="cls-11" x="0" y="144">y</tspan><tspan x="31.8" y="144">ear 2020.</tspan></text><path class="cls-12" d="M1252.44,947.71c-16.06-2.44-32.51-7.88-45.16-18.41a96.61,96.61,0,0,1-12.89-12.85,101,101,0,0,1-6.59-9.41c-3.3-4.9-5.82-10.5-8.28-15.83-2.67-5.79-4.7-11.89-6.85-17.89-1.81-5-3.56-10.06-5.42-15.07-1-2.83-2.28-5.58-3.57-8.3q-4.17-7.17-8.68-14.1c-1.11-1.6-2.24-3.2-3.43-4.75-2.33-3-4.52-6.27-7-9.17l-3.84-4.36c-2.06-2.28-4.36-4.38-6.57-6.52-2.67-2.26-5.37-4.47-8.17-6.59-4.36-3.31-8.83-6.44-13.31-9.59-8.48-6-16.8-12.21-24.85-18.76-4.67-3.79-9.37-7.57-13.65-11.8a82.48,82.48,0,0,1-22-39.21,89.84,89.84,0,0,1-2.58-18.42c-.24-6.34,1-12.16,2.28-18.29.49-2.3,1.21-4.52,1.92-6.76,1.5-4.67,3.09-9.34,4.79-13.93,1.89-5.13,3.86-10.2,6-15.23a82,82,0,0,1,6.71-12.79,87.84,87.84,0,0,1,6.76-9.4c1.92-2.2,3.82-4.41,5.81-6.54a92.84,92.84,0,0,1,7.11-6.45,63.59,63.59,0,0,1,12.86-8.6,122.13,122.13,0,0,1,12.91-6q6.86-2.49,13.78-4.71c-1.55-5.59-2.66-11.36-3.72-17a131.48,131.48,0,0,1-2.26-21,80.87,80.87,0,0,1,2.79-22c1.87-7.27,5-13.89,8.37-20.53,6.81-13.35,16.66-24.78,27.66-34.83,9.3-8.49,19.18-16.27,29.12-24,5.08-3.95,10.5-7.61,15.94-11,3.52-2.23,7-4.41,10.69-6.4a180.3,180.3,0,0,1,28.45-12.38,183.91,183.91,0,0,1,25.36-6.2,192.53,192.53,0,0,1,26.57-2.75c11.93-.57,23.77.47,35.57,2,5.74.76,11.5,1.95,17.14,3.26,3.11.72,6.22,1.44,9.31,2.23,1.29-2,2.68-4,4.15-5.9a82.65,82.65,0,0,1,23.57-20.73,86,86,0,0,1,30.31-10.47c5.15-.82,10.27-1.76,15.49-2.12,8.68-.6,17.28-1.22,26-1,13.85.32,27.85.56,41.53,2.88,13.88,2.35,27.72,5.94,40.53,11.9a148.83,148.83,0,0,1,18.17,9.63c4.25,2.76,8.51,5.58,12.6,8.6,4.3,3.17,8.34,7,12.28,10.52a72.55,72.55,0,0,1,5.66,5.57,161.3,161.3,0,0,1,11.9,14.06,143.6,143.6,0,0,1,10.18,15.61c2.27,4.24,4.47,8.54,6.39,12.95s3.28,9.07,4.83,13.6c.38,1.11.68,2.25,1,3.38,1.18,4.7,2.11,9.48,2.88,14.26a105.85,105.85,0,0,1,1.22,18.74,136.28,136.28,0,0,1-3.93,29.28c-1.39,6.08-3.76,12-6,17.79l0,.06q2.1,2.49,4.18,5c4.63,5.59,9.3,11.23,13.59,17.09,7.81,10.67,14.72,22,19.68,34.26a152,152,0,0,1,6.23,18.48,123.07,123.07,0,0,1,3.89,20.93c.39,4.87.86,9.94.8,14.89a126.63,126.63,0,0,1-1,14.69,107.25,107.25,0,0,1-4.51,20.24,165,165,0,0,1-6.82,18c-1.92,4.1-4,8.13-6.11,12.13-2.78,5.27-5.68,10.45-8.63,15.63-2.28,4-4.62,8-7.14,11.92-6.14,9.42-12.15,19-19.12,27.8-10.9,13.81-23.55,26.05-36.07,38.36-10,9.78-20.07,19.36-30.67,28.45a258.69,258.69,0,0,1-25.09,18.43c-8.66,5.79-17.88,10.48-27.2,15.13a187.75,187.75,0,0,1-21.14,8.94c-10,3.53-20,7-30.35,9.28-4.45,1-9.06,2-13.61,2.64s-9.32.83-13.94,1.12c-9.58.6-18.82-1.12-28.11-3.15a76.46,76.46,0,0,1-12.63-4.31,69,69,0,0,1-9.06-4.54c-4.94,3.42-10,6.63-15.22,9.64s-10.41,5.58-15.76,8.05a182.2,182.2,0,0,1-17.41,6.54,142.07,142.07,0,0,1-29.09,6.53,145,145,0,0,1-17.32,1.05A133.89,133.89,0,0,1,1252.44,947.71Z"/><path d="M1458,479.29c.07.17.13.34.2.5l0,0a2.5,2.5,0,0,1-.25-.71Zm-64,381.89q-5.94-.21-11.87-.76c-4.65-.42-9.32-.77-14-1.36-9.15-1.17-18.31-2.29-27.42-3.75-4.59-.74-9.21-1.35-13.77-2.26-6.66-1.33-13.33-2.58-19.91-4.27a167.18,167.18,0,0,1-19.14-6.27c-2.38-.93-4.71-2-7.06-3-1.74-.75-3.51-1.45-5.22-2.28l-8-3.86c-4.58-2.22-9.1-4.57-13.63-6.89-3.93-2-7.74-4.22-11.6-6.36-2.14-1.18-4.2-2.57-6.23-3.92q-4.49-3-8.66-6.35c-2.56-2.07-5-4.27-7.42-6.53-1.78-1.68-3.57-3.4-5.23-5.21l-5.91-6.43c-1.3-1.42-2.6-2.83-3.81-4.33q-2.87-3.59-5.75-7.16c-2.84-3.55-5.44-7.28-8-11.07A156.21,156.21,0,0,1,1174,733.16a123.37,123.37,0,0,1-4.76-19.67c-.42-2.49-.63-5-1-7.52-.25-2.05-.47-4.07-.58-6.13q-.24-4.3-.46-8.61c-.11-2.12,0-4.27,0-6.4,0-1.88,0-3.76.07-5.63.12-2.68.23-5.35.34-8s.44-5.6.66-8.38c.15-1.89.35-3.76.57-5.64.26-2.23.46-4.48.78-6.69q.63-4.17,1.24-8.32c.31-2.1.77-4.18,1.18-6.26s.84-4.33,1.38-6.48q.93-3.72,1.87-7.44c.23-.89.57-1.76.84-2.63l1.5-4.65c.73-2.26,1.59-4.47,2.42-6.7.71-1.88,1.42-3.74,2.18-5.6.88-2.13,1.69-4.31,2.66-6.41l3.42-7.41c1.07-2.33,2.42-4.54,3.65-6.78,1.09-2,2.43-3.85,3.66-5.74,1.36-2.1,2.84-4.12,4.28-6.16,2.67-3.83,5.53-7.51,8.36-11.22,1.37-1.8,2.83-3.52,4.25-5.27,1.14-1.42,2.26-2.86,3.45-4.24,3.22-3.77,6.38-7.58,9.74-11.22l5.77-6.24c1.49-1.61,3.13-3.09,4.69-4.63,3.44-3.39,7-6.65,10.52-9.93,3-2.77,6-5.52,9.07-8.22,3.5-3.09,7-6.24,10.56-9.24s7.42-6.24,11.26-9.22l3.7-2.87c.56-.43,1.1-.9,1.68-1.3l6.88-4.77c1.75-1.21,3.53-2.34,5.34-3.46,2-1.2,3.88-2.5,5.89-3.61l7.51-4.12c2-1.09,4-2,6-3,1.81-.89,3.6-1.82,5.45-2.62l7.61-3.3c2.59-1.13,5.3-2,8-2.91,3.16-1.06,6.39-1.92,9.63-2.66,4.21-1,8.48-1.56,12.75-2.11s8.77-1.12,13.16-1.42l4.66-.32c1.12-.09,2.26-.22,3.37-.23l7.66-.06c.78,0,1.58.1,2.36.16l4.84.35c2.47.18,4.91.57,7.36.91,4.66.65,9.25,1.73,13.82,2.81s8.85,2.31,13.24,3.59c2,.59,4,1.27,6,1.91,1.19.38,2.36.85,3.54,1.27.91.33,1.83.64,2.72,1,2.21.94,4.38,1.88,6.53,2.95s4,2.13,6,3.27c1,.57,1.89,1.26,2.83,1.88s1.81,1.26,2.68,1.91a25.71,25.71,0,0,1,2.64,2.14,4.39,4.39,0,0,1,1.53,2.46,2.64,2.64,0,0,1-2.59,2.94,2.49,2.49,0,0,1-2.06-1.06c-.4-.23-.82-.44-1.24-.66-1.73-.87-3.47-1.72-5.25-2.51s-3.64-1.49-5.49-2.19l-4.44-1.34c-1.5-.46-3.08-.75-4.61-1.1-5.69-1.1-11.41-2.1-17.15-2.91-3.45-.5-6.89-1-10.34-1.41-2.84-.37-5.68-.63-8.52-.91l-6.67-.4c-.84-.05-1.69,0-2.54,0-.45,0-.89,0-1.33,0l-3.8,0-6.9.46c-1.4.09-2.81.33-4.2.5s-2.56.27-3.83.46c-6,.88-12,1.75-18,2.9a108.48,108.48,0,0,0-12.16,3.27q-4.9,1.72-9.65,3.87l-6.23,2.83-6.4,3.24c-2,1-3.91,2.13-5.86,3.23s-3.64,2-5.42,3.13l-6.78,4.26-6.9,4.86c-2,1.45-4,3.06-6,4.61-4.16,3.26-8.2,6.67-12.22,10.1-6.62,5.84-13.19,11.73-19.65,17.75-1.66,1.54-3.37,3-5,4.64l-5.87,5.8c-3.12,3.09-6,6.38-9,9.61q-3.52,4.15-7.06,8.29c-2.35,2.76-4.56,5.65-6.83,8.47-4.14,5.15-8,10.53-11.76,15.94l-3.51,5.38c-.58.9-1,1.9-1.56,2.83s-1,1.82-1.51,2.73c-1.77,3.77-3.49,7.53-5.1,11.37-.75,1.8-1.54,3.59-2.23,5.42-.82,2.15-1.63,4.31-2.45,6.46-.39,1.17-.77,2.35-1.15,3.53-.45,1.38-1,2.76-1.36,4.16-.77,3-1.52,6-2.31,9-1.15,5.76-2.29,11.51-3,17.33-.41,3.24-.8,6.49-1.2,9.73-.34,2.86-.52,5.75-.75,8.63-.12,2.69-.26,5.38-.39,8.07-.11,2.32-.08,4.64-.09,7,0,2.08,0,4.15.07,6.23.14,2.53.27,5.07.4,7.6.63,4.94,1.16,9.89,2.08,14.79a116.54,116.54,0,0,0,3.5,13,149.48,149.48,0,0,0,6.82,16.27,152.17,152.17,0,0,0,8.64,15c2.57,3.8,5.27,7.49,8.15,11.06q2.76,3.41,5.5,6.82c5.15,5.63,10.24,11.29,15.91,16.41a110.63,110.63,0,0,0,10,7.82c8.34,5.61,17.33,10.16,26.26,14.75l6.13,3c1.67.81,3.31,1.68,5,2.41l7.55,3.26c2.84,1.22,5.68,2.35,8.57,3.41a180.82,180.82,0,0,0,18.4,5.2l13.17,2.6c2.13.42,4.29.68,6.43,1l7.59,1.2c4.83.76,9.7,1.35,14.55,2,4.5.62,9,1.14,13.52,1.7,2,.26,4.09.38,6.13.56l7.7.67a181.3,181.3,0,0,0,20.85.26,115.33,115.33,0,0,0,13.07-1.8c6.39-1.32,12.62-3.18,18.89-5,3.19-.93,6.33-2.06,9.48-3.13l5.76-2.32c2.72-1.11,5.39-2.26,8-3.54a123.59,123.59,0,0,0,12-7,243.22,243.22,0,0,0,20.6-16.3c5.87-5.23,11.69-10.49,17.33-16,3-2.91,5.92-5.89,8.84-8.87,2.56-2.61,5-5.34,7.47-8s4.93-5.6,7.32-8.46c3-3.61,6-7.27,8.95-11,2.39-3,4.72-6,7-9.12,2.67-3.6,5.26-7.25,7.87-10.91,2.36-3.5,4.68-7,6.94-10.59,1.2-1.88,2.25-3.86,3.37-5.78,1-1.64,1.79-3.37,2.65-5.07l2.79-5.91c.88-1.89,1.65-3.84,2.47-5.75,1.43-3.34,2.67-6.77,3.9-10.19.55-1.8,1.2-3.6,1.64-5.42s.89-3.8,1.34-5.7.75-3.89,1.12-5.83.74-4.1,1-6.15c.28-2.24.58-4.48.86-6.72.26-2.08.4-4.19.6-6.29q.31-4.78.51-9.6c.13-3.26,0-6.51-.09-9.77l-.54-5.12c-.1-.88-.31-1.76-.46-2.63s-.29-1.66-.43-2.49c-.32-1.51-.59-3-1-4.51q-.76-2.57-1.5-5.11c-1.34-3.72-2.67-7.44-4.33-11q-2.64-5.71-5.39-11.36-2.73-5.45-5.54-10.84c-1.86-3.54-3.91-7-5.92-10.45-3.91-6.74-8-13.39-12.18-19.92-1.29-1.83-2.57-3.67-4-5.44-1.65-2.14-3.34-4.24-5-6.34q-4.59-5.61-9.31-11.13c-1.82-2.07-3.65-4.11-5.56-6.1s-3.83-3.74-5.79-5.56c-2.2-1.86-4.38-3.72-6.66-5.47s-4.8-3.61-7.24-5.36l-2.23-1.42c-.75-.47-1.49-1-2.27-1.44L1499,499l-4.53-2.09c-1.38-.64-2.85-1.13-4.27-1.68-3.58-1.26-7.17-2.56-10.8-3.68a9.08,9.08,0,0,1-5.26-4.09,8.85,8.85,0,0,1,10.06-12.94c2.16.56,4.3,1.2,6.43,1.89,2.3.76,4.63,1.49,6.9,2.37l3.75,1.46c1,.38,1.93.89,2.89,1.33,2.42,1.12,4.74,2.35,7.08,3.62a117.17,117.17,0,0,1,12.16,8c3.61,2.58,7,5.51,10.37,8.38,1.91,1.6,3.67,3.39,5.49,5.09.77.72,1.47,1.52,2.19,2.28.9.94,1.79,1.87,2.65,2.86l-.75-.87c6.3,7.23,12.55,14.53,18.39,22.14s10.74,16.06,15.63,24.39c4.13,7,8.08,14.2,11.63,21.55,1.83,3.79,3.73,7.56,5.43,11.41,1.79,4.07,3.67,8.14,5.1,12.36l-.36-1c.18.53.35,1,.54,1.58v0l0,.1,0,.06h0c.28.73.51,1.48.76,2.23l0,.14v0l.21.58c.08.26.17.51.26.76l-.15-.44c.07.21.13.41.21.61v0l0,0v0h0v0a.64.64,0,0,1,0,.07h0l0,.07h0c.72,2.18,1.27,4.4,1.87,6.62.28,1,.43,2.11.64,3.15s.51,2.36.69,3.56c.36,2.37.75,4.71,1,7.1.11,1.2.21,2.4.32,3.6.13,1.57.1,3.15.13,4.72.08,4.51-.16,9.06-.52,13.56s-.79,9.18-1.42,13.74q-1,7.08-2.37,14.08c-.51,2.53-1.06,5-1.67,7.54-.55,2.33-1.23,4.6-1.92,6.89s-1.65,4.81-2.51,7.2c-.68,1.92-1.43,3.83-2.22,5.7-1.75,4.18-3.45,8.41-5.49,12.45-2.2,4.37-4.37,8.75-6.91,12.92-2.4,3.93-4.81,7.85-7.4,11.66q-4.58,6.74-9.27,13.37c-2.55,3.6-5.23,7.13-7.9,10.66a310,310,0,0,1-37,40.93c-3.7,3.42-7.43,6.78-11.19,10.13-3.26,2.91-6.6,5.76-10,8.48l-6.09,4.84c-2.63,2.08-5.45,4-8.24,5.8s-5.83,3.63-8.85,5.26a116.51,116.51,0,0,1-12.14,5.69c-2.65,1.06-5.27,2.22-8,3.12-4.14,1.38-8.27,2.79-12.46,4-2.65.76-5.29,1.56-8,2.24a151.27,151.27,0,0,1-20.1,4,118.12,118.12,0,0,1-14.45.72C1397.85,861.29,1395.92,861.25,1394,861.18Z"/><path d="M1303.35,874.81a7.35,7.35,0,0,1,1.59.5,3.92,3.92,0,0,1,2.34,4.17c-.21,1-.42,1.93-.7,2.92-.22.78-.48,1.55-.71,2.33-.36,1.21-.71,2.43-1.07,3.65q-1.12,3.84-2.23,7.7c-1.31,4.55-2.57,9.13-3.94,13.68-1.44,4.8-2.94,9.59-4.24,14.43-.67,2.52-1.42,5-2,7.57-.65,2.77-1.29,5.54-1.94,8.31-.32,1.63-.65,3.25-1,4.88s-.64,3-.89,4.49q-.48,2.87-1,5.73c-.24,1.45-.54,2.9-.73,4.36-.48,3.5-1,7-1.42,10.48-.23,1.65-.28,3.34-.41,5s-.3,3.53-.44,5.3c-.18,4.78-.15,9.55.13,14.33a122.3,122.3,0,0,0,1.59,12.66,80.14,80.14,0,0,0,2.41,9c.53,1.47,1.11,2.9,1.78,4.32.47.91,1,1.8,1.5,2.68l.47.58.54.54.4.32h0l.06,0,.12,0c.71-.5,1.39-1,2.07-1.56,1.85-1.65,3.6-3.4,5.38-5.12.71-.69,1.36-1.44,2-2.16l2.49-2.63q1.88-2.15,3.73-4.3a91.28,91.28,0,0,0,6.26-8.15,233.33,233.33,0,0,0,12.42-22.3c2.91-5.68,5.81-11.36,8.77-17,6.64-12.69,13.39-25.32,20-38q2.84-5.82,5.65-11.63c.84-1.72,1.55-3.52,2.33-5.27,1.13-2.58,2.28-5.15,3.35-7.75,1-2.36,2-4.67,3.07-7a9.59,9.59,0,0,1,2.68-3.67,7.47,7.47,0,0,1,1.66-1.07,7.15,7.15,0,0,1,1.85-.5,5.1,5.1,0,0,1,4,1.25,8.51,8.51,0,0,1,2.19,3.22c.37.75.73,1.51,1.08,2.27.85,1.83,1.67,3.68,2.48,5.52,3.35,7.56,6.14,15.34,9,23.08s6.2,15.55,9.46,23.26c.66,1.54,1.36,3.08,2,4.65q1.49,3.91,3,7.83c1.56,4.11,2.86,8.31,4.23,12.49,1.25,3.82,2.29,7.7,3.41,11.55,1.56,5.36,3.09,10.72,4.84,16a108.23,108.23,0,0,0,4.24,10.36,60.85,60.85,0,0,0,3.13,5.5c.94,1.37,1.94,2.69,3,4,.77.85,1.56,1.66,2.38,2.45s1.84,1.47,2.8,2.16c.52.33,1,.65,1.59.94,1,.44,1.9.84,2.88,1.21.65.21,1.31.4,2,.55l-.63-.13a18.38,18.38,0,0,0,2.22.38l-.66,0a15.48,15.48,0,0,0,2.26.1l1-.12a9.83,9.83,0,0,0,1.57-.49l-.61.21.65-.29.65-.38a11.68,11.68,0,0,0,1.21-1l-.48.42.45-.49c.2-.26.4-.51.59-.77l-.34.5h0a17.91,17.91,0,0,0,1-1.67c.49-1.09.93-2.17,1.35-3.28.77-2.43,1.39-4.88,1.93-7.36.41-2.08.75-4.16,1.08-6.26.26-1.61.56-3.23.76-4.84.43-3.47.94-6.94,1.29-10.42s.77-7,1-10.51c.33-4.06.67-8.11,1-12.18q.51-7.07,1-14.11a.17.17,0,0,1,0,.07c1.23-17.14,3-34.22,4.66-51.32.42-4.35.82-8.69,1.23-13.05q.38-4.09.78-8.19c.26-2.62.67-5.21,1.07-7.81a28.06,28.06,0,0,1,.63-2.86c.19-.55.4-1.09.62-1.63s.41-.83.62-1.25a10.53,10.53,0,0,1,1.2-1.61,7.31,7.31,0,0,1,1.49-1.11,5.07,5.07,0,0,1,3.74-.47,6.71,6.71,0,0,1,3.26,1.77A16.76,16.76,0,0,1,1485,868c1.94,3.27,3.74,6.61,5.43,10,2.81,5.66,5.21,11.53,7.63,17.36,2.66,6.41,5.32,12.81,7.91,19.26,2.52,6.27,4.86,12.61,7.15,19,2.16,6,4.12,12,6.13,18.06l2,5.58c.56,1.6,1.19,3.16,1.83,4.73s1.31,3.39,2.07,5l2.7,5.79a84,84,0,0,0,4.54,8c.68.93,1.38,1.84,2.11,2.72a16.91,16.91,0,0,0,1.27,1.27c-.16-.13-.31-.27-.46-.41a16.28,16.28,0,0,0,1.58,1.3l.66.37.49.18.36.06,0,0,.21-.27c.12-.2.24-.4.35-.6.7-1.55,1.29-3.14,1.88-4.74l1.18-3.46c.42-1.24.74-2.51,1.11-3.77.65-2.23,1.14-4.5,1.66-6.77l.78-4.93c.22-1.36.31-2.74.45-4.11.31-3,.52-6,.76-9,.19-2.65.38-5.29.58-7.94h0c.2-2.83.42-5.65.64-8.47l.39-6.87c.11-2.07.1-4.15.12-6.22,0-4.33-.09-8.64-.19-13-.1-4-.3-8-.5-12l-.69-13.31q-.42-6.42-.83-12.85c-.26-4.22-.64-8.43-.86-12.65s-.48-8.26-.58-12.4a147.41,147.41,0,0,1,.11-15.16,8.1,8.1,0,0,1,1.5-4.52,7.83,7.83,0,0,1,3-2.32,6,6,0,0,1,4.64,0,7.56,7.56,0,0,1,1.87,1,38.13,38.13,0,0,1,2.81,2.59c3,3,6,6,8.91,9,5.82,6,11.46,12.25,17.32,18.26,3.89,4,8,7.71,12.13,11.43q4.77,4.23,9.57,8.43c3.61,3.17,7.28,6.29,10.94,9.41,1.43,1.21,2.92,2.35,4.38,3.52,1.62,1.29,3.21,2.61,4.88,3.83l5.82,4.25c1.67,1.23,3.41,2.36,5.12,3.53l0,0c2.77,1.85,5.52,3.71,8.33,5.52,1.2.77,2.4,1.58,3.64,2.3l5.53,3.2-.61-.32c2.78,1.41,5.52,2.88,8.38,4.11l3.19,1.39c.45.19.9.41,1.37.58l4.6,1.64c1.39.43,2.77.8,4.18,1.15,1,.2,2,.37,3,.49l-.7-.05a11.6,11.6,0,0,0,1.44.09c-1.1-3.22-2.17-6.45-3.24-9.69-2-5.77-4-11.54-6-17.3s-3.94-11.65-6.1-17.4c-1.07-2.83-2.08-5.69-3.23-8.48q-1.14-2.82-2.3-5.63c-.49-1.21-1-2.43-1.49-3.62q-2.1-4.72-4.21-9.44c-.62-1.38-1.32-2.73-2-4.1s-1.45-3-2.18-4.53c-3.86-7.72-7.74-15.43-11.73-23.09-2-3.93-4.22-7.79-6.37-11.67-.73-1.34-1.55-2.62-2.35-3.91q-1.87-3.07-3.77-6.14l-3.39-5c-1-1.5-2-3-3.08-4.49l-7.58-10.39-4.53-6.19a111.3,111.3,0,0,1-7.87-12.47,42,42,0,0,1-4.73-13.38,10.08,10.08,0,0,1-.13-2.63,7.35,7.35,0,0,1,.48-2.5,9.22,9.22,0,0,1,.86-1.53,6.36,6.36,0,0,1,1.76-1.55,6.24,6.24,0,0,1,3.76-.59l2.71.25c2,.19,4,.42,6,.65,4,.46,8,1.1,12,1.64a228.54,228.54,0,0,1,24.19,4.71c3.41.85,6.82,1.65,10.24,2.45,3.59.68,7.17,1.34,10.78,1.92s7,1.18,10.44,2.05c3.59.92,7.15,1.9,10.74,2.82l5.65,1.46c1.79.47,3.62.8,5.43,1.17l5.86.87-.59,0c1.82.12,3.64.32,5.47.36l3.19.06c.8,0,1.6,0,2.4-.1,1.56-.17,3.09-.35,4.63-.62.94-.21,1.86-.46,2.78-.73.48-.18.94-.37,1.41-.59l1.09-.59-.43.28a12.32,12.32,0,0,0,1.93-1.45l-.39.34.39-.41-.3-1c-.26-.73-.54-1.44-.83-2.17.08.15.16.31.23.46a12.08,12.08,0,0,0-1.35-2.37l.28.42c-1.66-2.33-3.38-4.62-5.12-6.9s-3.54-4.39-5.36-6.55c-1.77-1.94-3.53-3.87-5.37-5.74s-3.42-3.41-5.13-5.12c-4.14-4.16-8.18-8.39-12.17-12.68-3.74-4-7.46-8-11.31-11.92-1.94-2-3.92-3.89-5.93-5.8s-3.87-3.56-5.83-5.31c-6.43-5.5-12.9-10.95-19.23-16.56q-5.17-4.59-10.29-9.24c-1.39-1.25-2.75-2.53-4.12-3.8-2.64-2.43-5.27-4.85-7.73-7.46a55.16,55.16,0,0,1-4.14-5,31.34,31.34,0,0,1-3-5.23,15.72,15.72,0,0,1-.92-2.92,9.66,9.66,0,0,1-.29-2.45,10,10,0,0,1,1.14-5,14.12,14.12,0,0,1,1.23-1.75,13.62,13.62,0,0,1,1.58-1.55c.86-.75,1.77-1.44,2.67-2.15q2.55-2,5.12-3.94c3.15-2.41,6.36-4.74,9.67-6.93q2.49-1.63,5-3.21c1.83-1.14,3.74-2.16,5.63-3.2,3.43-1.89,6.93-3.65,10.41-5.44,1.86-1,3.73-1.88,5.6-2.82,1.6-.8,3.22-1.61,4.76-2.51s3.27-1.86,4.87-2.87,3.5-2.21,5.23-3.35q5-3.27,10.06-6.42c3.32-2.07,6.75-4,10.13-6s6.6-3.89,9.85-5.93c7-4.39,14-9,20.89-13.48l4.24-3c1.16-.82,2.23-1.76,3.33-2.64,1.5-1.36,3-2.71,4.33-4.2.36-.42.72-.84,1.06-1.27-2.56-.13-5.13-.15-7.69-.16q-5,0-10.05,0c-6.48.06-12.95.36-19.42.73l-6.17.59c-1.94.18-3.86.52-5.78.81-3.6.54-7.16,1.28-10.74,2-4,1-8,1.9-12,3q-6.29,1.68-12.53,3.41c-8.47,2.34-17,4.35-25.61,6.28a107.58,107.58,0,0,1-11.14,1.92,36.4,36.4,0,0,1-7,.28,28.26,28.26,0,0,1-3.43-.46,23.35,23.35,0,0,1-3.57-1.09,10.93,10.93,0,0,1-4.29-3,10.21,10.21,0,0,1-1.32-1.94A8.9,8.9,0,0,1,1604,552a14.53,14.53,0,0,1,.21-5.87,16.94,16.94,0,0,1,2.34-5.52c2.09-3.43,4.38-6.74,6.71-10s4.69-6.4,7.17-9.5c5.32-6.66,10.59-13.38,16.36-19.66,2.92-3.17,6-6.2,9.11-9.14,3-2.76,6-5.45,9-8.16,6-5.44,12-10.93,17.83-16.53,3-2.83,6-5.63,8.84-8.56,1.47-1.5,3-2.95,4.41-4.5l4.69-5.18c1.71-2,3.35-4.06,4.86-6.23.73-1.12,1.4-2.24,2-3.42.31-.65.6-1.3.86-2l-.18.49a14.55,14.55,0,0,0,.61-1.94c.05-.29.1-.59.14-.88,0,.18,0,.36,0,.54a9.53,9.53,0,0,0,.07-1.6c0-.14,0-.27-.08-.41s-.06-.19-.1-.28l-.33-.56-.34-.38-.54-.43-.73-.41-.26-.1-.56-.16c-.26-.05-.53-.08-.79-.11a10,10,0,0,0-1.45,0l.2,0h0l.35,0-.69.1c-.66.16-1.3.35-2,.56-6.64,2.46-13,5.55-19.38,8.6-3.77,1.88-7.52,3.78-11.25,5.73s-7.23,3.89-10.81,5.9c-7.25,4.06-14.2,8.63-21.22,13.07q-4.95,3.14-10,6.18c-3.64,2.2-7.27,4.43-11,6.54q-11.34,6.45-22.84,12.64a142.07,142.07,0,0,1-14.66,7.06,42,42,0,0,1-6.39,1.95,25.69,25.69,0,0,1-6.72.53,15.42,15.42,0,0,1-2.62-.35,17.29,17.29,0,0,1-3.09-.87,30,30,0,0,1-2.8-1.35c-.51-.34-1-.69-1.52-1.05s-.82-.73-1.21-1.12a8.89,8.89,0,0,1-2.26-3.8l-.24-.78a9.06,9.06,0,0,1-.24-2.14,15.62,15.62,0,0,1,.16-2.89,24.23,24.23,0,0,1,.5-2.65c.26-1.23.57-2.42.9-3.64.26-.93.64-1.87,1-2.78l1-2.7c.76-1.91,1.5-3.83,2.3-5.72s1.72-4,2.64-6S1554,458.8,1555,457c2-3.59,4.24-7.05,6.47-10.51,2.09-3.24,4.3-6.4,6.43-9.61,2.5-3.77,5-7.56,7.45-11.35,5.5-8.41,11.14-16.75,17.06-24.87,3.12-4.27,6.26-8.53,9.48-12.72,3.08-4,6.1-8,9.06-12.13,1.55-2.27,3.1-4.53,4.55-6.87.75-1.22,1.56-2.42,2.26-3.68l2.59-4.67c.58-1.19,1.17-2.38,1.74-3.58a69.9,69.9,0,0,0,2.75-6.5,59.5,59.5,0,0,0,1.76-6.13c.15-.78.27-1.56.35-2.35s0-1.66,0-2.49c0-.35-.1-.69-.14-1s-.15-.55-.22-.83a5.49,5.49,0,0,1-.21-.51c-.08-.11-.15-.23-.22-.35l-.07-.08-.09-.06h-.16c-1.81.23-3.6.47-5.38.8l-.35.09-.27.12c-1.78,1.24-3.48,2.59-5.2,3.92s-3.33,2.61-5,3.94c-3.53,2.84-7.06,5.69-10.51,8.63q-11.15,9.47-22.19,19c-6.25,5.48-12.46,11-18.76,16.46-3.09,2.66-6.15,5.37-9.27,8l-10.62,8.91c-6.36,5.3-12.59,10.74-18.85,16.15s-13,10.6-19.81,15.44q-2.52,1.78-5.08,3.5c-1.95,1.32-3.92,2.56-5.92,3.78a47.56,47.56,0,0,1-11.68,5.26,21,21,0,0,1-3.25.56,12.05,12.05,0,0,1-3.06,0,17.79,17.79,0,0,1-5.66-1.73,13.8,13.8,0,0,1-7.06-7.93,37.88,37.88,0,0,1-1.51-6.65,56.66,56.66,0,0,1-.55-5.67c-.16-2.41-.26-4.82-.34-7.23-.28-8.06,0-16.15.3-24.2.29-8.35,1.09-16.66,1.91-25,.54-5.43,1.25-10.83,2.2-16.21s2.11-10.85,3.33-16.25c2.48-11,4.87-21.94,7.28-32.92l1.14-5.58c.4-1.92.69-3.86,1-5.78.62-3.54.93-7.12,1.23-10.7.06-1.59.08-3.16,0-4.73s-.31-3.3-.59-4.94q-.17-.75-.39-1.5c-.13-.36-.28-.72-.44-1.07-.44-.78-.9-1.53-1.38-2.27l-.27-.35-.23.23c-3.17,3.74-6,7.78-8.79,11.8q-9.77,14.88-18.86,30.18c-3.11,5.2-6.23,10.39-9.17,15.69-1.6,2.86-3.24,5.71-4.79,8.61l-4.73,8.85c-3.52,7-7,14-10.58,20.87-.75,1.43-1.46,2.89-2.27,4.3l-3.81,6.63c-1.89,3.3-4,6.48-6,9.71-1.9,3-4,6-5.88,9l-4.23,6.68c-.87,1.37-1.66,2.78-2.48,4.18q-1.44,2.47-2.89,4.93c-1.15,1.95-2.17,4-3.25,6q-1.07,2-2.1,4a4.64,4.64,0,0,1-2.58,5.73,3.43,3.43,0,0,1-.45.16l-.2.39,0-.07c-1.21,2.45-2.35,4.95-3.62,7.38a1.35,1.35,0,0,1-.32,1.77l-1,.85c-.15.15-.31.29-.48.43a1.34,1.34,0,0,1-2-1.58c1.28-2.67,2.41-5.41,3.56-8.14l.59-1.38a4.78,4.78,0,0,1-2.07-2.28c-.91-1.91-1.69-3.87-2.54-5.8-1-2.18-2-4.32-3-6.46a266.85,266.85,0,0,0-15.49-27c-1.52-2.28-3-4.57-4.5-6.87-.83-1.28-1.57-2.63-2.35-3.94-.68-1.14-1.31-2.3-2-3.46-2.7-4.91-5.15-9.94-7.62-14.95l.23.47c-1.34-2.71-2.64-5.43-4-8.14l.23.47c-1.64-3.29-3.22-6.61-4.93-9.86-2-3.73-4-7.45-6-11.14-4.23-7.65-8.38-15.38-13.17-22.71a89.19,89.19,0,0,0-5.55-7.4,61.59,61.59,0,0,0-4.38-4.47c-1-.81-1.92-1.57-2.93-2.3-.66-.43-1.34-.82-2-1.19a15,15,0,0,0-2-.8l.55.19-.9-.23-.76-.11h-.58l-.2,0-.34.11-.18.09-.48.36c-.23.24-.46.48-.7.71s-.53.65-.77,1a40.88,40.88,0,0,0-2.12,3.54c-.57,1.22-1.09,2.44-1.57,3.7-.5,1.53-.92,3.06-1.27,4.63s-.56,3.44-.72,5.19c-.09,2-.06,3.92,0,5.88a79.45,79.45,0,0,0,1.09,8.42c.31,1.72.63,3.43.94,5.15,1,3.81,1.88,7.62,3,11.38,1.33,4.39,2.65,8.77,4,13.17.47,1.53,1,3.07,1.36,4.62l2.15,8.51c.36,1.42.64,2.85.91,4.29l1.47,8c.08.44.11.89.16,1.34l.42,4c.2,1.92.43,3.83.54,5.76.13,2.61.27,5.21.4,7.82.1,2,.09,4,.12,6,0,1.65.08,3.29,0,4.94q-.16,3.9-.3,7.78c-.09,2.26-.36,4.52-.61,6.76-.32,2.85-.82,5.68-1.4,8.48a44.58,44.58,0,0,1-1.74,6.2,28.16,28.16,0,0,1-3.35,6.86,16.4,16.4,0,0,1-2.08,2.62,20.85,20.85,0,0,1-2.34,2,12.94,12.94,0,0,1-4.45,1.91,21.62,21.62,0,0,1-6.47.36,39.17,39.17,0,0,1-7.44-1.3,48.83,48.83,0,0,1-12.4-5.51,90.13,90.13,0,0,1-8.22-5.6,127.39,127.39,0,0,1-10.88-9.06,116,116,0,0,1-10.44-11.28c-1.56-1.88-3-3.89-4.49-5.83-2.7-3.51-5.25-7.12-7.83-10.73-2.45-3.41-4.86-6.86-7.28-10.29q-7.11-10.12-14-20.41l-3.6-5.41.28.41c-1.81-2.71-3.65-5.39-5.48-8.09l-2.08-3.07c-.86-1.26-1.84-2.45-2.75-3.66l-3.92-5.22c-.57-.76-1.13-1.5-1.74-2.22-2.23-2.63-4.46-5.27-6.7-7.89-2.84-3.18-5.75-6.29-8.8-9.26-.09,1.85-.19,3.69-.27,5.53-.09,2.16,0,4.34.09,6.5.24,2.68.65,5.31,1.15,7.95a107.54,107.54,0,0,0,2.79,10.76c.72,2.25,1.45,4.51,2.17,6.77,1.33,3.5,2.56,7,4,10.48,1.71,4.12,3.4,8.24,5.15,12.34,3.59,8.39,7.09,16.82,10.59,25.25,3,7.31,6.28,14.52,9.44,21.77l3.2,7.35c.73,1.68,1.37,3.4,2,5.11s1.53,3.7,2.13,5.6c.8,2.52,1.6,5.05,2.41,7.57.67,2.11,1.18,4.26,1.72,6.41s1.12,4.29,1.55,6.47c0,.26.11.51.16.77l.12.62-.15-.77q.72,3.64,1.45,7.29c.48,2.44.77,4.92,1.14,7.38q.81,5.44,1.17,10.94c.16,2.56.24,5.12.22,7.68a79.77,79.77,0,0,1-.71,9.52,60.62,60.62,0,0,1-1.63,8c-.31,1.18-.76,2.33-1.18,3.47a15.89,15.89,0,0,1-1.2,2.62,14.22,14.22,0,0,1-3.46,4.14,8.41,8.41,0,0,1-4.9,1.55,23.59,23.59,0,0,1-6.32-1.28l-3.16-.91c-1.91-.55-3.78-1.22-5.66-1.84-.87-.29-1.71-.65-2.55-1l-3.86-1.53c-2-.8-3.95-1.79-5.91-2.7-3.77-1.76-7.44-3.73-11.12-5.65-2-1-4-2.19-5.93-3.29q-2.49-1.38-4.93-2.82c-1.63-1-3.26-1.87-4.86-2.86-2-1.22-4-2.38-5.91-3.66q-7.17-4.74-14.26-9.6l.53.36c-5.5-3.75-11.08-7.34-16.67-10.93-1.23-.79-2.5-1.51-3.75-2.27l-4.92-3c-1.33-.79-2.74-1.45-4.1-2.18l-4.32-2.29c-3-1.37-6.08-2.83-9.18-4.09-3.4-1.38-6.81-2.74-10.19-4.18s-7-3-10.49-4.58l-6.37-2.94-4.34-2c-2.6-1.2-5.25-2.26-7.94-3.25-1.25-.42-2.5-.81-3.78-1.15-1.09-.22-2.16-.38-3.28-.52l.76.06a14.36,14.36,0,0,0-2-.08l-.73.08-.49.12.26-.09h0l.44-.15a9.24,9.24,0,0,0-1.33.49s0,0,0,0l.08-.05-.12.09,0,0-.1.13-.09.16,0,.09-.08.34c-.06.35-.11.7-.14,1.05a14.83,14.83,0,0,0,0,1.49c.05.72.14,1.44.26,2.15.27,1.19.58,2.36,1,3.53.86,2.37,1.84,4.67,2.93,7,1,2,2.09,4,3.27,5.88q1.35,2.19,2.69,4.38c1.67,2.41,3.32,4.83,5.07,7.18q3.38,4.53,6.85,9c4.1,5.25,8.44,10.3,12.77,15.37,2.7,2.95,5.36,5.92,8.14,8.79,1.38,1.42,2.71,2.87,4.13,4.24l5.68,5.5c2.85,2.74,5.79,5.39,8.65,8.12,1.35,1.28,2.72,2.54,4,3.85l5.52,5.55c1.43,1.44,2.78,3,4.17,4.44q1.85,1.95,3.63,4c1.48,1.68,3,3.35,4.44,5,1.65,1.89,3.19,3.88,4.77,5.83a92.62,92.62,0,0,1,6.08,8.28,66.39,66.39,0,0,1,7.77,15.3,48.13,48.13,0,0,1,1.7,6.89,21,21,0,0,1,.3,3.27,22.41,22.41,0,0,1-.12,3.17,13.35,13.35,0,0,1-1.57,5,7.17,7.17,0,0,1-3.28,2.93c-2.12.88-4.41.48-6.59.08-1.55-.29-3.1-.58-4.64-.92-3.45-.75-6.87-1.56-10.28-2.46-7-1.85-14-3.84-21-5.91-6.33-1.88-12.57-4.06-18.89-5.95l-6.33-1.89c-1.4-.42-2.79-.88-4.2-1.25-3.69-1-7.37-1.92-11.06-2.86L1033.87,591c-.35-.07-.72-.09-1.07-.14l-3.94-.48-5.47-.67c-1.57-.08-3.15-.17-4.73-.24l-3.56-.19c-.56,0-1.13-.08-1.69-.08-4.56,0-9.12,0-13.68.26-2.56.2-5.1.48-7.64.89.6,1.46,1.23,2.91,1.86,4.36.73,1.69,1.56,3.33,2.38,5l2.82,5.05c.91,1.62,1.92,3.2,2.88,4.79,1.69,2.81,3.49,5.55,5.26,8.31l3.45,4.92c1.7,2.41,3.52,4.72,5.43,7,1.68,1.88,3.43,3.67,5.28,5.38a75.8,75.8,0,0,0,6.11,4.76c3.12,2.08,6.32,4,9.58,5.84s6.58,3.59,9.88,5.36l5.54,2.78c2,1,4.07,1.9,6.11,2.85,3.44,1.59,6.95,3.05,10.44,4.57q11.45,5,22.87,10a208.7,208.7,0,0,1,19.56,9.36,62.46,62.46,0,0,1,22.07,20.6,14.28,14.28,0,0,1,1.32,2.47,21.1,21.1,0,0,1,.84,2.7,8,8,0,0,1,.09,2.18,4.23,4.23,0,0,1-.32,1.53c-.94,2.19-3.27,3.25-5.25,4.32a36,36,0,0,1-5.07,2.09c-1.78.64-3.58,1.24-5.38,1.83-2,.65-3.94,1.29-5.92,1.9-2.19.67-4.39,1.28-6.6,1.88-3.68,1-7.4,1.89-11.11,2.76q-7,1.62-13.94,3.31c-4.17,1-8.31,2.08-12.46,3.14-7.91,2-15.75,4.28-23.62,6.42-3.91,1.06-7.8,2.15-11.71,3.16-4.5,1.17-9,2.35-13.49,3.57-3.64,1-7.23,2.14-10.83,3.27l-5.43,2c-3.37,1.25-6.67,2.64-9.91,4.21a86.08,86.08,0,0,0-8.45,4.83c-1.85,1.29-3.62,2.64-5.34,4.1-1.33,1.22-2.6,2.48-3.83,3.79a58.6,58.6,0,0,0-3.65,4.67c-.62,1-1.2,2-1.75,3s-.84,1.87-1.2,2.84c-.17.51-.31,1-.43,1.55s-.11.82-.17,1.22l0,1c0,.31,0,.62.07.93,0-.17-.07-.35-.11-.53a10.51,10.51,0,0,0,.55,2.14c-.06-.17-.12-.34-.17-.51l.3.71.39.64.48.58.5.47.62.44.85.47c.56.26,1.14.5,1.72.71,2,.66,4.07,1.17,6.13,1.7l2.5.45c1,.17,2,.41,2.93.51l6.83.77c3,.2,6,.43,9,.55,3.47.13,6.94.3,10.41.39q12.25.32,24.5.48c6.62.09,13.25,0,19.88-.09,3.38,0,6.77-.06,10.15-.21,4.13-.19,8.26-.39,12.4-.57l13.3-1.11c4.37-.36,8.73-.88,13.1-1.31q13-1.32,26.1-2.53l12.2-1.14a127.67,127.67,0,0,1,14.5-.61,45.73,45.73,0,0,1,7.66.87,25.61,25.61,0,0,1,3,.82c.53.18,1,.39,1.56.62a6.27,6.27,0,0,1,1.37.85,5.58,5.58,0,0,1,2,2.37,4.68,4.68,0,0,1,.42,3.07,5.52,5.52,0,0,1-.54,1.45,13.14,13.14,0,0,1-1.08,1.49,18.1,18.1,0,0,1-2.13,2.07c-2.93,2.56-6.11,4.83-9.2,7.18-2.59,2-5.18,3.94-7.79,5.88-3.12,2.3-6.26,4.55-9.41,6.79-5.52,3.93-11.08,7.79-16.56,11.77q-9,6.51-18,13c-3,2.12-5.93,4.29-8.88,6.45-2.69,2-5.24,4.12-7.85,6.19l-3.69,3.24c-1.16,1-2.36,2-3.47,3l-4.25,4c-1.13,1.07-2.28,2.11-3.37,3.22l-4.49,4.52c-1.06,1.08-2.16,2.13-3.2,3.24l-7.65,8.2c-1.72,1.94-3.43,3.89-5.08,5.89s-3.22,4.14-4.73,6.29a70.56,70.56,0,0,0-3.74,6.33c-.53,1.11-1,2.22-1.46,3.37s-.66,2.09-.93,3.17q-.13.71-.21,1.44c0,.36,0,.73,0,1.1s.05.56.07.84l.18.71.13.32c.07.11.13.22.2.32l0,.05.16.12.3.13.37.08.68.06c3.4.13,6.81,0,10.2,0q4,0,7.95,0c7,.14,14,.55,20.92.19a86.15,86.15,0,0,0,23-4.59,126.12,126.12,0,0,0,13.22-5.5l7.2-3.52c3.49-1.86,7-3.69,10.44-5.61,3.7-2.05,7.39-4.13,11.1-6.16,7.58-4.13,15.15-8.28,22.82-12.24,8.15-4.19,16.29-8.37,24.56-12.33,3.16-1.52,6.36-3,9.65-4.19a62.07,62.07,0,0,1,6.93-2.09c1-.25,2-.41,3.06-.57a10.79,10.79,0,0,1,3.54-.08,6.78,6.78,0,0,1,3,1.16,4.94,4.94,0,0,1,1.56,2.63,5.13,5.13,0,0,1-.53,3.32,9.8,9.8,0,0,1-1,1.68l-1.11,1.68c-4.42,6.71-9.1,13.23-13.74,19.78l-4.23,6.32c-1.31,2-2.46,4-3.68,6.08-2.34,3.88-4.44,7.9-6.58,11.89q-5,9.84-9.91,19.72l-3,5.91c-.94,1.88-1.78,3.82-2.67,5.73-1.6,3.44-3,7-4.41,10.5l-1.77,5.3c-1.06,3.16-2,6.34-2.73,9.6-.43,2.16-.83,4.31-1.06,6.5,0,.76,0,1.52,0,2.27,0-.19,0-.38,0-.57a12.72,12.72,0,0,0,.17,1.85s0,0,0,.05c1.79-.18,3.58-.49,5.34-.83,1.1-.26,2.16-.57,3.23-.91,2-.8,3.95-1.73,5.89-2.68,1.72-.94,3.5-1.82,5.16-2.86l6.06-3.79,7.49-5.32c.56-.4,1.09-.83,1.63-1.25l5-4c1.83-1.45,3.64-2.91,5.41-4.44l7.39-6.35c12.63-11.32,25.22-22.69,37.42-34.46,2.86-2.77,5.72-5.51,8.49-8.36,2.93-3,5.87-6,8.77-9.08,3.09-3.26,6.15-6.55,9.35-9.7,1.8-1.78,3.58-3.58,5.45-5.29,1.66-1.53,3.41-3,5.19-4.37a6.69,6.69,0,0,1,1.65-.82,4.15,4.15,0,0,1,1.55-.3A4.55,4.55,0,0,1,1303.35,874.81Zm140.78,159.86a28.28,28.28,0,0,1-5.71-1.65,24.22,24.22,0,0,1-5.65-3,38.67,38.67,0,0,1-5.65-4.88,42.14,42.14,0,0,1-4.95-6.41c-5.12-7.94-8.21-17-10.89-26q-2.37-8-4.77-16c-1.29-4.29-2.77-8.53-4.21-12.77l-3.73-9.64c-1.14-2.92-2.43-5.78-3.66-8.67s-2.4-5.74-3.58-8.61-2.37-6-3.52-9c-2.15-5.59-4-11.29-6.11-16.89-1.25-3.32-2.62-6.61-4.06-9.87l-.54,1.31c-.47,1.15-1,2.3-1.46,3.44-1.2,2.71-2.41,5.43-3.61,8.15-1.75,3.95-3.75,7.8-5.65,11.68s-3.86,7.48-5.82,11.21q-2.8,5.34-5.65,10.66-5.67,10.62-11.21,21.31l-5.89,11.4c-2,3.85-3.92,7.74-6,11.53l-3.79,6.92a94.92,94.92,0,0,1-7.82,11.73c-1.8,2.35-3.75,4.54-5.69,6.75-1.37,1.57-2.76,3.09-4.2,4.58-3.73,3.89-7.54,7.81-12.08,10.75a7.3,7.3,0,0,1-2,.86,9.09,9.09,0,0,1-2.2.34,8.61,8.61,0,0,1-4.28-.79l-1.09-.56a15.36,15.36,0,0,1-3.19-2.89,28.29,28.29,0,0,1-1.76-2.56,34.19,34.19,0,0,1-2-3.93,51.29,51.29,0,0,1-2.33-6.68,73.75,73.75,0,0,1-1.79-7.89,113,113,0,0,1-1.6-18,103.48,103.48,0,0,1,.35-12.07c.26-2.9.53-5.81.79-8.71.14-1.49.38-3,.59-4.44l1-7.11c.32-2.19.77-4.37,1.16-6.54.31-1.74.61-3.47,1-5.19.6-2.92,1.13-5.87,1.82-8.77s1.27-5.77,2-8.62c1.48-5.48,3-10.94,4.63-16.37q2.6-8.57,5.07-17.17.9-3.1,1.81-6.21c-4.62,4.57-9,9.38-13.5,14.06l-5.79,6c-1,1.1-2.08,2.22-3.17,3.28l-10.58,10.3c-3.27,3.19-6.65,6.27-10,9.39-2.94,2.77-5.91,5.49-8.87,8.22-5.94,5.49-11.92,10.94-18,16.26l-5.34,4.66c-1.4,1.22-2.87,2.35-4.32,3.51l-5.5,4.42c-.42.34-.89.64-1.33,1l-4,2.89c-1.33,1-2.64,1.94-4,2.81l-3.59,2.25c-.8.5-1.6,1.06-2.43,1.51-1.8,1-3.58,2-5.43,2.94l-3.3,1.58a36,36,0,0,1-7.28,2.49c-2.2.51-4.46.76-6.69,1.07a9.27,9.27,0,0,1-4.09-.37,4.22,4.22,0,0,1-1.46-.75,9.76,9.76,0,0,1-2-2.05,9.13,9.13,0,0,1-1.09-2.1,16.85,16.85,0,0,1-.65-2.81,20.73,20.73,0,0,1-.1-3,30.44,30.44,0,0,1,.25-3.44c.15-1.43.48-2.85.76-4.26.23-1.12.49-2.23.75-3.33.5-2.07,1.09-4.13,1.79-6.13l2.55-7.24c.63-1.8,1.43-3.53,2.18-5.28s1.33-3.24,2.1-4.8l3.49-7.14c1.41-2.88,3-5.69,4.45-8.54s3-5.92,4.56-8.88,3-6.13,4.68-9.13q1.34-2.48,2.68-5c.79-1.46,1.53-3,2.39-4.41l3.06-5.08c.71-1.16,1.37-2.36,2.13-3.49,2.07-3.09,4.12-6.2,6.28-9.23,3.6-5.08,7.21-10.15,10.76-15.26-1,.26-1.9.55-2.85.85-3,1.08-5.94,2.34-8.86,3.69-3.58,1.79-7.17,3.57-10.73,5.4q-6.16,3.17-12.31,6.38-11.57,6-23,12.33c-3.79,2.08-7.57,4.19-11.34,6.3s-7.7,4.23-11.56,6.33-7.54,3.8-11.32,5.66a111.57,111.57,0,0,1-12.15,5,94.28,94.28,0,0,1-37.24,5.18c-4.11-.17-8.23-.37-12.35-.41l-13-.08c-1,0-2.11,0-3.15-.13a19.59,19.59,0,0,1-2.65-.47,7.18,7.18,0,0,1-2-.88,8.5,8.5,0,0,1-1.69-1.29c-2.52-2.55-3.34-6.41-2.9-9.89a35,35,0,0,1,4.23-12,79.24,79.24,0,0,1,9.69-13.55c3.86-4.55,8.06-8.8,12.18-13.12,2.73-2.86,5.61-5.59,8.41-8.37,1.59-1.57,3.27-3.05,4.89-4.57,1.27-1.18,2.53-2.37,3.85-3.51l6.1-5.28c1.54-1.34,3.19-2.55,4.79-3.8,1.33-1,2.65-2.1,4-3.1l6.46-4.68c3.2-2.32,6.47-4.57,9.69-6.88l11.46-8.25c6.91-5,13.93-9.78,20.89-14.67,3.22-2.27,6.38-4.65,9.54-7s6.38-4.74,9.48-7.22l.62-.5c.46-.41.9-.82,1.35-1.25-.5-.13-1-.25-1.49-.36-.85-.15-1.7-.25-2.55-.33a77.91,77.91,0,0,0-9.42.06c-6.26.5-12.5,1.37-18.73,2.13-4.34.54-8.69,1-13,1.58-8.67,1-17.34,2.12-26,3.18-4.24.52-8.49.88-12.73,1.32s-8.43.59-12.65.84c-8.21.49-16.46.61-24.69.62-8.41,0-16.82,0-25.22-.35-4.46-.15-8.91-.31-13.37-.55-2.14-.12-4.29-.19-6.44-.36l-7.26-.61c-1.82-.15-3.62-.43-5.43-.67l-2.75-.37c-1.18-.16-2.36-.49-3.52-.73-.89-.19-1.83-.31-2.7-.56l-3.21-.94c-1.29-.38-2.55-.82-3.81-1.29a16.94,16.94,0,0,1-2.79-1.32,15.38,15.38,0,0,1-3.06-2.19,13.66,13.66,0,0,1-3.24-4.5,15.08,15.08,0,0,1-1.18-4.81,16.48,16.48,0,0,1,.08-3.44c.18-1.08.38-2,.65-3.08a27.93,27.93,0,0,1,2.89-6.46,41.85,41.85,0,0,1,4-5.68,52.24,52.24,0,0,1,5.28-5.45,63.49,63.49,0,0,1,14-9.44,95.93,95.93,0,0,1,11.67-5.11l7.19-2.56c1.83-.65,3.72-1.16,5.57-1.72s3.54-1.06,5.33-1.55q6.81-1.84,13.65-3.64c4-1.06,8-2.21,12-3.32,7.82-2.17,15.61-4.5,23.46-6.58,4-1.07,8-2.18,12.1-3.19,4.63-1.16,9.25-2.31,13.89-3.43,3.92-.95,7.84-1.9,11.73-3,2.2-.62,4.4-1.24,6.59-1.93,1.9-.59,3.78-1.22,5.66-1.85,2.77-1,5.56-1.91,8.27-3.07.59-.31,1.18-.63,1.76-1l0,0a16.12,16.12,0,0,0-1-1.67l.29.44c-.86-1.22-1.76-2.39-2.72-3.53a73.45,73.45,0,0,0-5.22-5.22c-1.66-1.41-3.37-2.73-5.14-4a81.54,81.54,0,0,0-8-4.68c-6.09-3-12.45-5.35-18.77-7.8q-5.23-2-10.47-4.1-6.57-2.61-13.16-5.19c-3.49-1.38-7-2.74-10.45-4.22-4.05-1.74-8.1-3.51-12-5.53l-6.24-3.2c-1.93-1-3.82-2.12-5.72-3.18-1.74-1-3.4-2.06-5.09-3.1a73.24,73.24,0,0,1-10.23-7.62,79.94,79.94,0,0,1-9.81-10.67c-1.84-2.34-3.47-4.84-5.16-7.29-1-1.46-2-2.92-2.88-4.41-1.13-1.81-2.3-3.6-3.37-5.44s-2.25-3.72-3.29-5.62c-1.11-2.06-2.31-4.09-3.31-6.2a111.67,111.67,0,0,1-5.21-12.3,10.93,10.93,0,0,1-.81-4.95,8.94,8.94,0,0,1,1.81-4.2,9.71,9.71,0,0,1,4.17-2.75,26.53,26.53,0,0,1,7.22-1.44,94.76,94.76,0,0,1,11.55-.45l8.43.22c1.65,0,3.3.24,4.94.38l4.46.38c.76.06,1.54.08,2.3.2l7.09,1.09c1.67.26,3.34.49,5,.86,4.12.93,8.26,1.74,12.32,2.88l9.45,2.65c1.33.37,2.63.83,3.94,1.24l5.91,1.87c5.52,1.75,11,3.65,16.5,5.47q7.93,2.63,16,4.92,4.7,1.35,9.4,2.63c2.72.75,5.47,1.36,8.22,2,1.77.36,3.55.73,5.33,1a.06.06,0,0,0,0,0c0-.22,0-.44,0-.66v-1.08c-.08-1-.22-2-.4-3.05s-.57-2.23-.91-3.33c-.58-1.58-1.22-3.11-1.92-4.64a78.17,78.17,0,0,0-4-6.93,116.15,116.15,0,0,0-7.06-9.31l-4.1-4.68c-1.23-1.4-2.5-2.75-3.78-4.1s-2.52-2.74-3.83-4.07c-1.89-1.9-3.77-3.81-5.66-5.72-6-6-12.28-11.62-18.54-17.28-2.83-2.56-5.61-5.19-8.29-7.9-1.51-1.51-3.06-3-4.51-4.54-1.76-1.89-3.5-3.79-5.25-5.69-1.11-1.19-2.17-2.44-3.23-3.67-1.49-1.73-3-3.42-4.47-5.18-2.91-3.54-5.79-7.08-8.61-10.69-2.36-3-4.7-6.08-6.9-9.22l-2.37-3.41c-.51-.73-1-1.45-1.52-2.21q-1.85-3-3.67-5.94c-1-1.62-1.85-3.34-2.7-5a73.24,73.24,0,0,1-3-7,43.15,43.15,0,0,1-1.93-7.15,25.23,25.23,0,0,1-.11-7.71,19,19,0,0,1,.64-2.68,9.12,9.12,0,0,1,1-2.29,19.38,19.38,0,0,1,1.67-2.26,16.29,16.29,0,0,1,1.83-1.69,8.65,8.65,0,0,1,2.17-1.24,25.74,25.74,0,0,1,2.68-.93,18.42,18.42,0,0,1,7-.22,26.24,26.24,0,0,1,3.18.61c1.43.36,2.81.78,4.2,1.27,2.55.9,5.05,2,7.51,3.1,3.33,1.52,6.59,3.25,9.87,4.88q3.24,1.59,6.48,3.21c2,1,4,1.83,6,2.75,3.86,1.76,7.77,3.41,11.67,5.08,1.67.72,3.31,1.52,5,2.28s3.47,1.55,5.15,2.44c3.18,1.7,6.41,3.31,9.52,5.15,3.27,1.95,6.56,3.87,9.79,5.89q10.17,6.35,20.14,13c6,4,12.11,7.69,18.34,11.26,3.49,2,7,3.93,10.54,5.87,2.84,1.55,5.74,3,8.62,4.46l7.41,3.42c.86.4,1.77.71,2.65,1.06l3.76,1.5c3.61,1.2,7.23,2.45,10.93,3.39l0-.06c.27-.6.5-1.22.71-1.84-.07.22-.15.44-.23.65.42-1.31.77-2.6,1.08-3.94.51-2.69.85-5.4,1.09-8.13a92.13,92.13,0,0,0,0-10.51c-.28-3.82-.71-7.62-1.35-11.39l-1.17-6.92c-.54-2.48-1.09-4.95-1.63-7.43-.48-2.17-1.09-4.3-1.67-6.44-.54-2-1-3.93-1.67-5.86-.83-2.48-1.65-4.95-2.49-7.43-1.46-3.64-2.85-7.3-4.44-10.89q-2.82-6.35-5.65-12.68c-3.51-7.88-6.83-15.84-10.13-23.81q-2.18-5.28-4.33-10.58c-1.66-4-3.34-8.06-4.91-12.14-.93-2.42-1.87-4.83-2.8-7.25-.71-1.83-1.28-3.72-1.92-5.58l-1.25-3.66c-.2-.57-.43-1.15-.59-1.73-.74-2.61-1.46-5.22-2.19-7.84s-1.3-5.41-1.83-8.14a74.37,74.37,0,0,1-1.4-15.17c0-2.15.2-4.29.39-6.42.22-2.39.47-4.8.8-7.17.08-.62.17-1.23.28-1.84a9.32,9.32,0,0,1,.67-2,4.69,4.69,0,0,1,1-1.48,7.24,7.24,0,0,1,1.58-1.39,6.3,6.3,0,0,1,3.11-1,4.55,4.55,0,0,1,1.22.17,6.52,6.52,0,0,1,2.08.68,22.87,22.87,0,0,1,4,2.86c2,1.88,3.87,3.95,5.74,6,3.73,4.08,7.15,8.43,10.64,12.72.64.8,1.32,1.58,1.92,2.41q2.08,2.89,4.19,5.78l3.09,4.28c.83,1.15,1.58,2.38,2.36,3.57q6.2,9.4,12.34,18.84c5,7.32,10,14.57,15.12,21.82,2.45,3.49,5,6.93,7.49,10.39,1.08,1.5,2.27,2.94,3.41,4.4,1.72,2.2,3.42,4.42,5.23,6.54,1.36,1.55,2.74,3.07,4.17,4.56,2,2,4.06,4,6.17,5.85l-.37-.33,6.08,5c.75.62,1.58,1.15,2.37,1.72l3.41,2.49c2.31,1.52,4.67,2.94,7.13,4.24a54.43,54.43,0,0,0,5.08,2.2c1.2.39,2.4.72,3.63,1,1.45.28,2.89.5,4.37.64a22.39,22.39,0,0,0,2.59,0,12.27,12.27,0,0,0,1.34-.17l.7-.21.52-.22.49-.29.46-.36.63-.64.7-.91q.53-.8,1-1.62c.49-1,.92-2.07,1.32-3.14.49-1.52.9-3,1.26-4.61a92.79,92.79,0,0,0,1.37-10.5c.1-1.56.22-3.13.21-4.7l0-3.44c0-1.75.07-3.52,0-5.27l-.45-7.27c-.14-2.16-.38-4.32-.59-6.48-.18-1.82-.35-3.63-.61-5.43l-1.08-7.63c-.41-1.88-.8-3.77-1.2-5.65-.36-1.68-.68-3.36-1.13-5-1.16-4.31-2.3-8.62-3.6-12.89s-2.67-8.79-4-13.2c-.45-1.5-.91-3-1.27-4.52-.6-2.57-1.21-5.13-1.81-7.69-.17-.72-.27-1.45-.38-2.17l-.69-4.37a80.29,80.29,0,0,1-.93-12.09,47.62,47.62,0,0,1,2.18-14,38.17,38.17,0,0,1,6.62-12.52,22.47,22.47,0,0,1,1.81-2,12,12,0,0,1,2-1.64,14.85,14.85,0,0,1,2.59-1.35,8.36,8.36,0,0,1,2.14-.57,13,13,0,0,1,5.37.35c1.06.34,2,.67,3,1.1a19.43,19.43,0,0,1,3.31,1.9c1.14.79,2.23,1.61,3.3,2.5.86.72,1.66,1.52,2.47,2.3a61.59,61.59,0,0,1,5.08,5.75,72.66,72.66,0,0,1,4.36,6.1c1.11,1.71,2.23,3.43,3.25,5.21,6.59,11.53,13,23.16,19,35,3,6,6,11.95,9,17.9,1.22,2.39,2.47,4.76,3.8,7.09.84,1.47,1.65,3,2.54,4.42l2.86,4.62c2.57,3.84,5.19,7.64,7.73,11.49s4.77,7.7,7,11.63,4.53,8,6.58,12.15c1.2,2.4,2.29,4.84,3.38,7.28,1.79-4,3.67-7.91,5.6-11.82q3.54-7.2,7.38-14.25,4.38-8,8.66-16c1.71-3.47,3.46-6.92,5-10.46q2.89-6.45,5.69-13c3.14-7.3,6.52-14.53,10.16-21.59,2.12-4.12,4.26-8.23,6.48-12.31s4.4-7.92,6.65-11.86c4.07-7.12,8.37-14.1,12.72-21a216.11,216.11,0,0,1,14-20.14,26.08,26.08,0,0,1,3-3.26,10.62,10.62,0,0,1,2-1.47,8.9,8.9,0,0,1,2.12-1,9.91,9.91,0,0,1,2.42-.43,9.71,9.71,0,0,1,2.57.3,7.7,7.7,0,0,1,2,.86c.42.26.83.54,1.23.82s.89.79,1.33,1.2a14.14,14.14,0,0,1,1.86,2.35c.56.8,1,1.66,1.53,2.51a21.56,21.56,0,0,1,2.1,5.48,35.07,35.07,0,0,1,.92,6.61,54.66,54.66,0,0,1,0,7c-.15,2.11-.26,4.22-.49,6.32s-.48,4.23-.8,6.35q-.94,6.1-2.06,12.2c-1.46,8.15-2.92,16.3-4.43,24.44-1.32,7.15-2.78,14.31-3.79,21.52-.48,3.49-1,7-1.3,10.5-.31,3.77-.62,7.54-.9,11.32s-.55,7.78-.72,11.67c-.18,4.06-.27,8.12-.32,12.19-.08,8.17-.07,16.34.35,24.51a83.08,83.08,0,0,0,1.08,9.17c.09.38.18.76.29,1.14v0l.5.29.4.16.25.08.49,0-.42,0h-.13l-.09-.05h0l.1.05-.34,0h.36l.15.07-.14-.07a11.2,11.2,0,0,0,1.42-.15c.62-.14,1.22-.31,1.82-.49,1.45-.53,2.85-1.13,4.26-1.77q4-2,7.82-4.41c2.14-1.34,4.25-2.72,6.36-4.11,3.36-2.29,6.68-4.61,9.94-7.05s6.37-4.94,9.47-7.52c6.73-5.63,13.47-11.25,20.29-16.77q9.26-7.5,18.3-15.28c6.38-5.5,12.72-11.08,19.16-16.52q10.42-8.81,21-17.44c6.15-5.05,12.42-9.94,18.86-14.61l2.3-1.64c.57-.41,1.15-.77,1.74-1.15l.56-.27c.54-.23,1.08-.43,1.63-.61a50,50,0,0,1,8.1-.86,10.59,10.59,0,0,1,2.1.19,10.19,10.19,0,0,1,1.94.62,6.85,6.85,0,0,1,1.73,1,9.23,9.23,0,0,1,1.5,1.43,11.23,11.23,0,0,1,2.27,4.37,27.27,27.27,0,0,1,.58,3.37,18.71,18.71,0,0,1,0,3.43,52.52,52.52,0,0,1-3.79,14.45c-1,2.68-2.35,5.25-3.58,7.85-.88,1.86-1.94,3.65-2.91,5.46s-2.23,3.76-3.35,5.62c-1,1.61-2,3.16-3.07,4.73s-1.91,2.81-2.88,4.2c-2,3-4.21,5.88-6.35,8.78-4.52,6.12-8.9,12.33-13.2,18.6q-4.4,6.54-8.66,13.17c-2.87,4.5-5.69,9-8.53,13.55-2.67,4.22-5.44,8.37-8.19,12.54s-5.49,8.77-8,13.3c-1.46,2.92-2.78,5.89-4,8.92-1.29,3.21-2.61,6.42-3.81,9.68-.34,1.18-.65,2.35-.93,3.55-.15.76-.28,1.5-.39,2.26,0,.08,0,.16,0,.24l.1.1.36.27.58.33.84.38-.63-.22a13.79,13.79,0,0,0,1.86.58l1.22.18-.68-.05a16.45,16.45,0,0,0,2.43.08c.69-.06,1.37-.15,2-.26a39.93,39.93,0,0,0,3.89-1.07,115.82,115.82,0,0,0,11.56-5.14c7.42-3.88,14.82-7.82,22.15-11.9,7.65-4.26,15.17-8.75,22.64-13.32,3.55-2.17,7.07-4.42,10.59-6.64s7.16-4.36,10.79-6.46,7.23-4,10.87-5.88q5.19-2.73,10.46-5.26c3.68-1.78,7.38-3.53,11.12-5.18s7.58-3.29,11.51-4.58c2.74-.89,5.59-1.74,8.51-1.32a16.2,16.2,0,0,1,4,1.1,8.41,8.41,0,0,1,2.14,1.27c.48.39,1,.79,1.42,1.2l1.17,1.36a9.76,9.76,0,0,1,1.9,4.43,13.74,13.74,0,0,1-.08,4.87,21.8,21.8,0,0,1-1.88,5.48,44.63,44.63,0,0,1-4.34,7.08c-1.86,2.63-4,5-6.16,7.48-1.3,1.49-2.6,3-4,4.43q-4.2,4.56-8.51,9c-5.79,6-11.61,11.92-17.64,17.65q-4.79,4.54-9.55,9.11c-2.81,2.69-5.45,5.53-8.09,8.38l-3.43,4c-1.23,1.45-2.37,3-3.55,4.49-2.19,2.77-4.3,5.62-6.45,8.44-3.89,5.11-7.72,10.25-11.37,15.54-2,3.06-4.16,6.11-5.91,9.35l-.21.55c0,.2-.09.4-.13.6a.13.13,0,0,0,0,.06l.29.13c.39.12.78.23,1.17.32.55.11,1.11.19,1.66.25,1.14.05,2.26,0,3.41,0,1.66-.12,3.32-.27,5-.47s3.54-.53,5.31-.83l-.69.14c4-.8,8.07-1.58,12.08-2.49q6.85-1.53,13.68-3.17c3.62-.86,7.21-1.81,10.82-2.73,2.09-.52,4.18-1.1,6.29-1.58l7.61-1.72c1.63-.37,3.28-.65,4.92-1,2.08-.38,4.15-.82,6.24-1.1l6.85-.92c.92-.13,1.86-.15,2.79-.23l4.19-.33c2.1-.17,4.22-.19,6.32-.28s4.14-.1,6.21-.14c3.92-.07,7.85,0,11.77,0s7.89,0,11.84.14q2.54.08,5.07.36a24,24,0,0,1,2.9.57,5.85,5.85,0,0,1,3.26,2.27,6.06,6.06,0,0,1,1,3.7,8.51,8.51,0,0,1-1,3.72,33.2,33.2,0,0,1-7,8.54c-.69.64-1.36,1.31-2.1,1.9l-2.81,2.26c-1.55,1.24-3.24,2.33-4.85,3.47s-3.46,2.28-5.19,3.42-3.54,2.3-5.3,3.47c-3.7,2.44-7.41,4.89-11.16,7.26-3.43,2.17-6.93,4.23-10.43,6.29-3.32,2-6.7,3.84-10,5.89q-3.75,2.34-7.43,4.78c-3,2-6,4.09-9.14,6-1.8,1.07-3.6,2.12-5.45,3.11s-3.6,1.91-5.42,2.84c-3.64,1.86-7.26,3.75-10.84,5.71-3.4,1.85-6.71,3.83-10,5.92-3,2-6,4.11-8.87,6.27l-5.11,3.83c-1.68,1.27-3.4,2.51-5,3.85l-.34.34-.08.09,0,.07s0,.07,0,.1,0,.25,0,.38,0,.42,0,.63.11.49.17.73l-.2-.56a16.51,16.51,0,0,0,.7,1.81c.49.92,1,1.8,1.57,2.67q1.29,1.8,2.7,3.49c2.57,2.89,5.39,5.54,8.2,8.2,1.78,1.67,3.56,3.35,5.35,5q5.92,5.47,11.91,10.86c6.35,5.61,12.74,11.17,19,16.91s12.12,12,18,18.25c2.73,2.91,5.45,5.83,8.22,8.7,3,3.12,6.08,6.17,9.15,9.22,2.73,2.71,5.45,5.49,7.93,8.44,1.37,1.65,2.75,3.29,4.08,5s2.64,3.43,3.92,5.18c.75,1,1.49,2.08,2.22,3.13a19,19,0,0,1,1.43,2.32,33.85,33.85,0,0,1,1.55,3.74,10.47,10.47,0,0,1,.87,4.84,3.94,3.94,0,0,1-.29,1,6.92,6.92,0,0,1-.67,1.7,10.55,10.55,0,0,1-2.2,2.6,19.52,19.52,0,0,1-6.7,3.82,41.18,41.18,0,0,1-7.09,1.64c-1.44.22-2.87.34-4.32.46s-2.91.06-4.36.08-2.92-.13-4.37-.19-2.7-.26-4-.42-2.6-.29-3.89-.52l-5.09-1c-1.42-.26-2.82-.63-4.22-1q-1.85-.42-3.69-.87-4.53-1.11-9.07-2.17c-3-.59-6-1.14-9-1.57l-5.24-.73c-1.79-.25-3.58-.62-5.37-.92-1.46-.25-2.9-.59-4.34-.9s-3-.63-4.45-1q-5.22-1.23-10.46-2.41c-3-.6-6-1.18-9.07-1.69s-6-.87-9.06-1.34c-4.47-.7-8.94-1.44-13.43-2,.16.64.34,1.28.53,1.92a59.34,59.34,0,0,0,2.33,5.59,117.3,117.3,0,0,0,6.68,11.2c2.22,3.15,4.43,6.3,6.66,9.44,2.55,3.58,5.11,7.14,7.56,10.78l4.25,6.34c1.09,1.63,2.08,3.33,3.1,5s2.13,3.33,3.09,5q1.92,3.43,3.85,6.86c3.89,7,7.56,14,11.24,21.12q3.23,6.18,6.39,12.4c.82,1.61,1.67,3.21,2.44,4.85l3.51,7.45c1.76,3.73,3.35,7.54,5,11.33.84,1.94,1.59,3.92,2.38,5.88s1.45,3.65,2.15,5.48c3.12,8.13,6.06,16.32,9,24.51,1.39,3.88,2.69,7.79,4,11.7.66,2,1.28,4,1.93,6a14.55,14.55,0,0,1,.79,3,11.23,11.23,0,0,1,.07,2.39,7.88,7.88,0,0,1-2.11,4.4,9.53,9.53,0,0,1-3.88,2.3,21.14,21.14,0,0,1-2.86.64,16.57,16.57,0,0,1-3.59,0,38.16,38.16,0,0,1-6.45-1.11,51.69,51.69,0,0,1-5.18-1.6c-1.87-.64-3.71-1.28-5.53-2s-3.77-1.54-5.61-2.43l-3.73-1.83c-.77-.37-1.57-.73-2.32-1.14l-6.24-3.48c-1.8-1-3.53-2.16-5.28-3.24s-3.66-2.32-5.49-3.49c-3.25-2.07-6.46-4.17-9.63-6.37-1.52-1.06-3.09-2.07-4.57-3.19l-6.52-5c-3.19-2.44-6.24-5.06-9.34-7.6s-5.91-5-8.85-7.58q-5-4.35-10-8.76c-3.38-3-6.58-6.18-9.76-9.38-4.43-4.44-8.67-9.07-13-13.64-1.77-1.88-3.54-3.77-5.33-5.63,0,2,0,4-.08,6.07s.06,3.79.1,5.67.06,3.67.13,5.51c.35,8.55.77,17.1,1,25.66.28,8.8.62,17.6.67,26.4l0,7.31c0,2.35-.13,4.72-.19,7.08-.11,3.79-.42,7.59-.73,11.37-.7,8.72-1.25,17.46-2.11,26.17-.2,2-.49,4.06-.8,6.09s-.84,4.31-1.31,6.47a96.13,96.13,0,0,1-3.38,11.36c-.45,1.26-.9,2.52-1.37,3.77a18.13,18.13,0,0,1-2.37,4.23,9.66,9.66,0,0,1-3.09,2.52,10.9,10.9,0,0,1-2.07.75,8.44,8.44,0,0,1-1.59.21,4.57,4.57,0,0,1-1.28,0l-1.39-.19a8.29,8.29,0,0,1-2-.59,15.14,15.14,0,0,1-2.26-1.09,16.41,16.41,0,0,1-2.57-1.9,26.67,26.67,0,0,1-2.1-2,35.62,35.62,0,0,1-3.79-4.86c-1.65-2.5-3.12-5.07-4.52-7.71-1-2-2-4-2.93-6-.87-1.79-1.61-3.64-2.39-5.48q-2.23-5.31-4.12-10.78c-2.3-6.67-4.56-13.36-7-20-2.52-6.86-5.2-13.64-7.93-20.42-2.45-6.11-5-12.19-7.42-18.29-2.32-5.8-4.68-11.58-7.38-17.22-.35,2.84-.62,5.69-.9,8.54q-.45,4.74-.91,9.48-.93,9.43-1.85,18.89c-.62,6.46-1.19,12.92-1.75,19.38-.49,5.65-.87,11.31-1.29,17q-.84,13.15-1.77,26.29c-.29,4.09-.71,8.17-1.09,12.26-.16,1.85-.42,3.69-.64,5.53s-.42,3.79-.71,5.67c-.37,2.37-.73,4.73-1.09,7.1-.32,2.07-.82,4.13-1.29,6.18a52,52,0,0,1-2.75,8.41,22.59,22.59,0,0,1-3.33,5.4,14,14,0,0,1-3.93,3.35c-.84.46-1.65.85-2.53,1.24a14.28,14.28,0,0,1-2.79.78,14.52,14.52,0,0,1-3.29.32A27.1,27.1,0,0,1,1444.13,1034.67Z"/><path d="M1366.45,621.68a17.8,17.8,0,0,1-2.52-.61,11.14,11.14,0,0,1-2.67-.45,9.28,9.28,0,0,1-2-.87,15.35,15.35,0,0,1-1.7-.56,10.07,10.07,0,0,1-3-2,12.14,12.14,0,0,1-2.22-2.68,14.89,14.89,0,0,1-1.95-7.63,12.89,12.89,0,0,1,.65-3.79,13.87,13.87,0,0,1,1.82-3.42,14.16,14.16,0,0,1,6.31-4.79,12.63,12.63,0,0,1,7.68-.6,12.87,12.87,0,0,1,6.71,4.23,15,15,0,0,1,2.83,5l.08.13a10.2,10.2,0,0,1,1,1.81q.19.38.36.75c2.14,4.78.38,11.16-4.17,13.88a13.12,13.12,0,0,1-3.2,1.36,9.92,9.92,0,0,1-2.58.35A9.13,9.13,0,0,1,1366.45,621.68Z"/><path d="M1303.85,611a12.25,12.25,0,0,1-4.75-1.16,13.93,13.93,0,0,1-4.27-3.06l-.73-.07a6.91,6.91,0,0,1-2-.46,6.43,6.43,0,0,1-3.17-4c-1.42-4.09,0-9.08,2.86-12.22a10.94,10.94,0,0,1,1.58-2.64,16.43,16.43,0,0,1,4.59-4,18.32,18.32,0,0,1,1.9-1,8.7,8.7,0,0,1,3.84-.72h.47a18.6,18.6,0,0,1,2.24.16,7.63,7.63,0,0,1,2.25.64,11,11,0,0,1,3.4,2.27,12.18,12.18,0,0,1,1.36,1.68,9.68,9.68,0,0,1,.86,1.7c.09.21.17.43.24.65a19.66,19.66,0,0,1,1.54,3.67,14.88,14.88,0,0,1,.7,4.35,15.11,15.11,0,0,1-2.28,8.72,11.94,11.94,0,0,1-6.59,5,15.09,15.09,0,0,1-3.78.5Z"/><path d="M1407.07,760q-3.83-.06-7.63-.15c-9.28-.22-18.52-.82-27.78-1.52-4.66-.36-9.35-.66-14-1.16-2.26-.25-4.52-.46-6.77-.78-2.5-.36-5-.75-7.47-1.2-4.72-.84-9.38-1.94-14-3.24s-9.17-2.83-13.72-4.37c-8.7-2.95-17.24-6.31-25.65-10-4.39-1.92-8.77-3.86-13.1-5.93s-8.53-4.18-12.72-6.42c-4-2.13-7.84-4.54-11.7-6.89s-7.78-4.94-11.55-7.6c-3.57-2.53-7.09-5.22-10.45-8-3.68-3.09-7.29-6.23-10.72-9.6a77.32,77.32,0,0,1-8.58-10.51c-1.27-1.79-2.49-3.68-3.6-5.58a40.8,40.8,0,0,1-3.19-6.2c-.74-2-1.39-4-2-6l0-.07a1.6,1.6,0,0,1-.2-.44.66.66,0,0,1,1-.69,2.31,2.31,0,0,1,.69,1,73.75,73.75,0,0,0,4,6.91c2,2.94,4.2,5.75,6.48,8.52,1,1.1,2,2.21,3,3.28s2.22,2.2,3.36,3.28c2.32,2,4.69,3.91,7.12,5.78s4.75,3.49,7.14,5.19c4.33,2.9,8.69,5.69,13.23,8.24,4.7,2.63,9.46,5.12,14.27,7.55,3.61,1.79,7.25,3.5,11,5q6,2.52,12.11,4.91c3.73,1.48,7.5,2.88,11.23,4.34s7.68,2.89,11.56,4.25a319.89,319.89,0,0,0,30.93,8.73c3.21.59,6.42,1.23,9.66,1.62l5.36.63c1.72.21,3.47.3,5.19.44,9.13.58,18.27,1.12,27.41,1.51,4.45.2,8.92.24,13.39.27s9,.12,13.54-.16l2.85-.18c1.79-.19,3.58-.34,5.36-.62,2.13-.32,4.25-.65,6.37-1,3.89-.7,7.76-1.48,11.63-2.26,4.45-1,8.86-2,13.25-3.13s8.68-2.5,13-3.93c3-1.08,6.1-2.15,9.09-3.39,1.87-.78,3.73-1.57,5.59-2.39,1.61-.71,3.18-1.51,4.76-2.29,5.29-2.66,10.57-5.33,15.87-8,2-1,4-2,5.81-3.16s3.85-2.46,5.75-3.73c1.52-1.09,3-2.18,4.52-3.34s3.12-2.49,4.66-3.77l-.75.66,2.14-1.87,0,0,.13-.11v0h0l.18-.16-.06.05.08-.07.24-.21-.14.12.15-.13,0,0h0l0,0c2.78-2.69,5.48-5.44,8.14-8.24s5.24-5.75,7.91-8.57a7.75,7.75,0,0,1,13.22,5.48,8,8,0,0,1-2.27,5.48c-2.89,3.18-5.77,6.37-8.74,9.48-1.53,1.61-3,3.25-4.64,4.8-1.75,1.71-3.53,3.37-5.37,5a113.09,113.09,0,0,1-11.24,8.74c-1,.7-2,1.42-3.09,2.09s-2.08,1.41-3.16,2c-2,1.16-4,2.3-6.09,3.35l-12.09,6.14c-4.41,2.25-8.8,4.51-13.39,6.39a201.8,201.8,0,0,1-27.27,8.86c-9.14,2.3-18.42,3.94-27.72,5.46-2.27.37-4.56.65-6.85.87-2.81.27-5.62.43-8.44.56-1,.05-2.08.07-3.12.07S1408.07,760,1407.07,760Z"/></svg>