<svg id="Layer_1" data-name="Layer 1" xmlns="http://www.w3.org/2000/svg" viewBox="0 0 1920 1080"><defs><style>.cls-1{fill:blue;opacity:0.2;}.cls-2{fill:#fff;}.cls-3{font-size:60px;font-family:VarelaRound-Regular, Varela Round;}.cls-4{letter-spacing:-0.01em;}.cls-5{letter-spacing:-0.01em;}.cls-6{letter-spacing:-0.01em;}.cls-7{letter-spacing:-0.02em;}.cls-8{letter-spacing:-0.01em;}.cls-9{letter-spacing:0em;}.cls-10{letter-spacing:-0.06em;}.cls-11{letter-spacing:-0.01em;}.cls-12{letter-spacing:-0.01em;}.cls-13{letter-spacing:0em;}.cls-14{fill:#ffdc00;}</style></defs><circle class="cls-1" cx="525.5" cy="657.5" r="327.5"/><path class="cls-2" d="M700.72,729c0,23.17,43.85,90.84.75,107.37C674.67,846.61,598,858.8,560.05,864.77c-39.83,6.25-153.88,12-201.28,12-50.88,0-148.1,2.65-190-4.49-37.95-6.46-63-53.14-68.09-80.81-11.22-60.61-2.72-73.07,14.22-86.8,43.4-35.16,62.1-20.2,104-17.21,25.92,1.85,29.13-33.09,57.62-55.37,41.15-32.17,24.69-122,158.62-122,49.23,0,76.52,31.81,113,51.63,34.42,18.71,29.27,83.92,53.87,92.78C648.65,671.34,700.72,704.73,700.72,729Z"/><path d="M275.87,878.86c-6.36-.06-12.72-.34-19.06-.6q-11-.45-21.91-.72l-9.75-.26c-3.29-.09-6.6-.22-9.88-.46s-6.72-.46-10.08-.78c-3.64-.34-7.27-.68-10.91-1s-7.05-.66-10.58-1c-2.92-.26-5.86-.48-8.78-.79l-6.24-.68c-1.58-.18-3.14-.46-4.71-.7-2.45-.37-4.86-.81-7.29-1.35a80.56,80.56,0,0,1-10.83-3.32l-5.34-2c-1.73-.64-3.42-1.41-5.12-2.12-1.24-.51-2.45-1.06-3.67-1.62-1.66-.76-3.33-1.49-5-2.34-1.77-.94-3.56-1.84-5.28-2.85a66.57,66.57,0,0,1-9.45-6.68,53.68,53.68,0,0,1-7.73-7.64c-1.14-1.44-2.22-2.89-3.29-4.39s-2-3-3-4.54a85.31,85.31,0,0,1-5-9.23c-.36-.75-.63-1.55-.94-2.32-.23-.57-.44-1.14-.65-1.73-.69-2-1.37-4-2-6-1-3.29-1.93-6.6-2.79-9.92-.41-1.56-.75-3.13-1.1-4.71-.21-1-.47-1.93-.62-2.9s-.28-1.94-.43-2.9a86.69,86.69,0,0,1-.79-10.43c-.1-3.23-.1-6.47.07-9.69.12-2.28.22-4.56.42-6.83a78.43,78.43,0,0,1,2.53-14.24,86.78,86.78,0,0,1,4.88-12.92c.92-2,2-4,3-6,.68-1.33,1.45-2.6,2.2-3.89s1.63-2.77,2.49-4.13c1-1.53,1.91-3.1,3-4.59l3.52-5c.89-1.26,1.89-2.44,2.83-3.65s1.8-2.27,2.76-3.37c1.26-1.47,2.53-2.93,3.79-4.39s2.71-2.87,4.08-4.28c.92-.94,1.81-1.89,2.79-2.77q2.36-2.1,4.7-4.21c1.36-1.21,2.86-2.28,4.31-3.39s2.75-2,4.17-3c1.26-.85,2.5-1.74,3.82-2.51,1.75-1,3.49-2.12,5.31-3,2.47-1.23,4.91-2.47,7.47-3.51a58.87,58.87,0,0,1,15.52-3.81,60,60,0,0,1,20.28,1.62l2.82.67a53,53,0,0,1,7.14,2.39,56.09,56.09,0,0,1,13.71,8c2.48,1.91,4.73,4.1,7,6.23l4.34,4.1h0a84.55,84.55,0,0,0,6.78,5.48l.24.13a.67.67,0,0,1,.07,1.33,1,1,0,0,1-.42,0,20.86,20.86,0,0,1-2.63-1.21,57.86,57.86,0,0,1-5.36-3.2c-1.52-1-2.95-2.1-4.42-3.16s-3.07-2.19-4.6-3.28c-1.84-1.2-3.7-2.34-5.66-3.36a53.08,53.08,0,0,0-5.54-2.38c-1.93-.64-3.87-1.18-5.86-1.63s-4.23-.72-6.37-.94c-1.43-.08-2.87-.23-4.3-.22-2.6,0-5.19,0-7.78.13a60.36,60.36,0,0,0-6.28.86c-2.17.5-4.29,1.11-6.39,1.81s-4.4,1.75-6.54,2.79c-2.33,1.22-4.58,2.58-6.84,3.92-.68.4-1.32.88-2,1.31l-2.25,1.5-4.71,3.5c-.87.65-1.67,1.4-2.5,2.09L137.26,704l-5,4.75c-.86.83-1.64,1.78-2.45,2.66l-2.51,2.7c-2.08,2.51-4.18,5-6.14,7.61-1,1.31-2,2.6-2.94,4l-2.76,4.06q-1.64,2.64-3.26,5.29c-1.1,1.77-2.07,3.64-3.09,5.45-.62,1.23-1.23,2.46-1.84,3.69a80.23,80.23,0,0,0-3.62,8.55,70.18,70.18,0,0,0-2.1,7.54c-.55,3-.91,5.92-1.17,8.91-.14,2.65-.29,5.29-.3,8,0,1.27-.06,2.56,0,3.84l.15,4.57c.11,1.28.21,2.56.31,3.84.07.77.24,1.56.36,2.32s.21,1.41.31,2.11c.3,1.34.59,2.68.89,4,.36,1.67.86,3.32,1.29,5,.78,3,1.72,5.93,2.63,8.87.46,1.32.92,2.63,1.45,3.92s1.18,2.72,1.82,4.06,1.37,2.51,2.11,3.73,1.58,2.53,2.39,3.78l1.76,2.47c.6.85,1.29,1.66,1.95,2.49.51.56,1,1.12,1.54,1.69s1.31,1.25,2,1.86c1.84,1.56,3.71,3.07,5.69,4.47,1.63,1.08,3.3,2.11,5,3l3.32,1.75c2.95,1.35,5.9,2.67,8.89,3.91s6,2.37,9.05,3.5c1.61.54,3.22,1.07,4.86,1.54s3.06.78,4.6,1.1c4.86.94,9.79,1.45,14.71,2,4.5.49,9,.81,13.54,1.22,4.2.38,8.4.81,12.6,1.21,4.49.42,9,.77,13.51,1.1,6.6.3,13.2.51,19.81.67,7,.17,14.1.43,21.15.72,13,.53,26.06.86,39.08.46,7-.22,14-.45,21-.58,7.24-.13,14.49-.26,21.73-.45,13.73-.34,27.45-.95,41.16-1.72,11.18-.63,22.35-1.36,33.53-2.1q10.62-.8,21.25-1.55c6.25-.45,12.51-.88,18.77-1.18l12.08-.58c3.63-.17,7.28-.25,10.91-.37,6.47-.21,12.93-.4,19.39-.71l6.77-.33c13.54-.93,27.07-2,40.6-3.06,13-1,26-1.81,39-2.79s25.78-2,38.65-3.32c6.24-.64,12.48-1.38,18.7-2.15,3.2-.4,6.39-.84,9.59-1.28,2.85-.39,5.69-.92,8.52-1.39L665,837.4c1.38-.29,2.75-.72,4.12-1.08,1.71-.46,3.39-.94,5.07-1.49,2.16-.79,4.26-1.67,6.33-2.67,1.39-.74,2.76-1.52,4.1-2.37,1-.69,1.91-1.42,2.83-2.18s1.65-1.58,2.43-2.42a72.8,72.8,0,0,0,4.51-5.85c1.9-2.87,3.62-5.84,5.37-8.8.48-.82.87-1.69,1.3-2.54s1-2,1.51-3c1.06-2.31,2.05-4.64,2.92-7a103.86,103.86,0,0,0,3-11c.47-2.44.8-4.9,1.17-7.36.26-1.75.36-3.52.51-5.28.1-2.66.07-5.3-.08-8-.26-3.07-.74-6.11-1.17-9.15-.47-2.16-.92-4.31-1.39-6.46-.22-1-.6-2-.89-3l-1.15-3.88q-1.09-3-2.21-5.94c-.3-.82-.71-1.61-1.06-2.4-.46-1-.93-2.09-1.39-3.14l-2.18-4.14c-.72-1.36-1.54-2.67-2.34-4s-1.7-2.84-2.63-4.22l-2.7-4-4-5.32c-.55-.72-1.17-1.38-1.75-2.06L683,706.19c-2.17-2.33-4.33-4.65-6.57-6.91s-4.41-4.29-6.65-6.39c-2.23-1.87-4.44-3.74-6.74-5.51-1.07-.82-2.13-1.67-3.24-2.45l-3.93-2.74c-2.71-1.68-5.39-3.37-8.22-4.85-1.7-.81-3.42-1.53-5.19-2.19a63.37,63.37,0,0,0-6.9-1.88c-2.2-.41-4.41-.67-6.63-1-1.35-.17-2.72-.25-4.09-.34-2.07-.09-4.13-.19-6.19-.21-2.3,0-4.59,0-6.89.11-1.92.13-3.84.28-5.75.48-2.14.21-4.27.47-6.4.74s-4.46.51-6.67.85c-1.08.17-2.17.29-3.24.51L587,675c-2.47.66-4.93,1.35-7.38,2.09L580,677c-.85.29-1.73.57-2.55.93L574,679.36l-3,1.53c-1.43.72-2.8,1.57-4.19,2.35-2.68,1.5-5.31,3.09-8,4.62-5.5,3.19-10.94,6.47-16.29,9.92a7.93,7.93,0,0,1-6.22.81,8.06,8.06,0,0,1-4.25-12.72,9.19,9.19,0,0,1,2.31-2c5.43-3.64,11-7.05,16.61-10.36,6-3.53,11.93-7.21,18.3-10a84,84,0,0,1,20.94-5.77c3.2-.49,6.44-.84,9.66-1.23,3.43-.41,6.86-.72,10.31-1s6.91-.22,10.37-.19c1.84,0,3.72.12,5.56.27,1.59.12,3.21.17,4.8.38l5,.66a60,60,0,0,1,6.24,1.28,66.34,66.34,0,0,1,7.29,2.31,55.59,55.59,0,0,1,5.91,2.62c1.37.7,2.76,1.41,4.07,2.23l4.94,3.06c1.74,1.08,3.39,2.34,5.07,3.52,1.4,1,2.73,2,4.08,3.07,1.13.87,2.23,1.75,3.32,2.67,1.47,1.24,3,2.44,4.41,3.76l4.25,4c1.29,1.21,2.5,2.51,3.75,3.77,1,1,2,2,2.92,3.06,1.27,1.37,2.57,2.72,3.78,4.14l3.76,4.44c1.17,1.37,2.2,2.88,3.3,4.32.87,1.15,1.68,2.35,2.49,3.55,1,1.49,2.09,3,3,4.49l3,5c.8,1.31,1.49,2.66,2.2,4s1.56,2.85,2.22,4.33c.77,1.74,1.54,3.49,2.32,5.23.25.56.43,1.16.64,1.74l1.2,3.23c.57,1.52,1.09,3.05,1.55,4.61l1.56,5.32c.17.57.26,1.18.38,1.75l.84,3.92c.29,1.39.58,2.77.78,4.19.27,1.95.55,3.92.82,5.87.17,1.19.22,2.41.29,3.6s.14,2.49.18,3.73a56,56,0,0,1-.17,6.48l-.48,5.37c-.06.68-.21,1.36-.31,2-.17,1.14-.34,2.26-.51,3.39a92.92,92.92,0,0,1-2.36,10.68,90.35,90.35,0,0,1-4.66,12.94c-1,2.2-2.14,4.33-3.23,6.47a104.87,104.87,0,0,1-5.61,9.62,74.36,74.36,0,0,1-7.66,10.17,47,47,0,0,1-11.2,8.9,62.78,62.78,0,0,1-11.49,5.11c-2.37.79-4.75,1.43-7.17,2.07-3.23.85-6.49,1.49-9.76,2.17-1.76.36-3.53.63-5.3.92-1.48.25-3,.51-4.45.71-3.58.49-7.17,1-10.76,1.42-13.68,1.7-27.39,3-41.12,4.17C586.92,863.14,573.46,864,560,865q-21.15,1.57-42.29,3.27-9.9.76-19.81,1.24c-6.6.33-13.21.53-19.82.75q-10.47.35-20.94.83c-5.87.28-11.73.67-17.59,1-13.48,1-27,2-40.45,2.81s-26.71,1.69-40.08,2.19c-7,.26-14,.52-21,.7-7.29.18-14.57.3-21.86.44-6.86.12-13.72.37-20.58.58-3,.1-6.08.13-9.12.13C282.92,878.93,279.4,878.88,275.87,878.86Z"/><path d="M601,661.79a1.16,1.16,0,0,1-1.13-1.43s0,0,0,0,0-.11,0-.17,0-.23,0-.34-.06-.46-.11-.69c-.43-1.93-.93-3.84-1.48-5.75s-1.26-4-1.95-6l-.93-2.26c-.31-.76-.58-1.56-.94-2.3-.78-1.61-1.55-3.22-2.33-4.82-1.64-3-3.29-6-5-8.9s-3.54-5.69-5.36-8.52-3.87-5.48-5.91-8.14-4.2-5.39-6.34-8.06L562.69,596c-2.11-2.61-4.27-5.17-6.44-7.73l-3.53-3.82c-1-1.08-2.05-2.09-3.1-3.12s-2.18-2.17-3.32-3.19l-3.92-3.55c-2.14-1.77-4.26-3.57-6.49-5.24-1.2-.9-2.36-1.85-3.61-2.69l-4.45-3c-3.75-2.29-7.49-4.6-11.35-6.7q-6.08-3.3-12.2-6.48c-2.55-1.26-5.1-2.53-7.68-3.74q-5-2.33-10-4.63l-9.52-4.34c-2.79-1.27-5.68-2.36-8.51-3.53l-5.9-2c-1.74-.6-3.51-1-5.29-1.52s-3.63-1-5.48-1.39L445.8,528c-3.91-.67-7.81-1.33-11.74-1.86-1.78-.24-3.55-.5-5.34-.67l-6.64-.64a173.6,173.6,0,0,0-19.22-.33,80.31,80.31,0,0,0-8.75,1.18,76.2,76.2,0,0,0-8,2.18c-2.94,1.07-5.78,2.34-8.65,3.58l-4.39,2.24c-1.64.84-3.21,1.84-4.8,2.76-3,1.72-5.83,3.62-8.71,5.48-1.63,1.11-3.25,2.23-4.83,3.42s-3.08,2.45-4.59,3.72c-1.76,1.65-3.51,3.29-5.21,5s-3.55,3.66-5.24,5.56a54.05,54.05,0,0,0-3.43,4.4c-.94,1.44-1.8,2.94-2.61,4.46-.52,1.06-1,2.13-1.55,3.2s-.95,2.32-1.41,3.48a65.88,65.88,0,0,0-2,6.6c-.13.82-.24,1.65-.33,2.48a7.88,7.88,0,0,1-2.22,5.32,7.57,7.57,0,0,1-12.92-5.35,28.71,28.71,0,0,1,1-7.49c.59-2.2,1.33-4.35,2.08-6.51a44.45,44.45,0,0,1,2-5l1.56-3.24a58.12,58.12,0,0,1,4.41-7.45,80.62,80.62,0,0,1,7.42-8.88c1.38-1.51,2.82-3,4.25-4.46s2.9-2.85,4.42-4.18,3.17-2.78,4.83-4.08c3.34-2.6,6.81-5,10.35-7.34,3.37-2.2,6.74-4.46,10.3-6.35,2-1.06,3.95-2.18,6-3.1,2.8-1.25,5.57-2.51,8.47-3.55a77.84,77.84,0,0,1,17.5-4.08,87.71,87.71,0,0,1,11.91-.53c1.94,0,3.89,0,5.83.12l7.24.43c2.41.14,4.81.44,7.21.69,1.74.17,3.45.4,5.17.64s3.71.48,5.55.81L448,512c2.36.41,4.69,1,7,1.5,1.67.36,3.29.77,4.93,1.23,2.25.63,4.54,1.17,6.74,1.95l7,2.47c1.66.59,3.25,1.32,4.86,2s3.33,1.39,5,2.17q6.22,3,12.42,5.94c3.5,1.69,7,3.37,10.43,5.17,3.92,2.05,7.8,4.15,11.67,6.28,3.64,2,7.17,4.22,10.7,6.41A124.28,124.28,0,0,1,548.3,562a121.92,121.92,0,0,1,8.72,8.89c1.35,1.55,2.79,3,4.05,4.67l4.1,5.28c.54.68,1,1.44,1.51,2.15l2.34,3.34c1.26,1.8,2.44,3.66,3.65,5.49q3.15,4.77,6.18,9.61c2.07,3.32,4.16,6.64,6,10.08,1.06,2,2.18,3.91,3.15,5.92s2,4.05,3,6.08c1.83,3.76,3.43,7.63,5.06,11.48a106,106,0,0,1,3.79,11.24c.4,1.37.67,2.8,1,4.19s.56,2.64.79,4a45.19,45.19,0,0,1,.73,4.78c.07.94,0,2.65-1.29,2.65Z"/><path d="M220.94,748.68a22.66,22.66,0,0,1-4.32-4.64,23.51,23.51,0,0,1-2.56-6,47.37,47.37,0,0,1-1.41-5.09,43.83,43.83,0,0,1-.85-9.07,94.58,94.58,0,0,1,.91-11.27l.39-3.08c.11-.87.33-1.74.5-2.59.4-2.09.74-4.19,1.3-6.24.61-2.22,1.12-4.5,1.9-6.68s1.55-4.33,2.33-6.49c.26-.72.62-1.41.93-2.1l1.79-4c.85-1.91,1.89-3.73,2.87-5.58.44-.83.89-1.66,1.33-2.5s.89-1.44,1.33-2.15c1.12-1.81,2.2-3.66,3.42-5.39s2.59-3.68,3.89-5.51c.52-.75,1.12-1.44,1.68-2.16l2.47-3.16c1.27-1.63,2.64-3.19,4-4.78,1.17-1.4,2.37-2.77,3.57-4.15s2.51-2.94,3.83-4.35l4.85-5.2c.48-.52,1-1,1.52-1.47l3.23-3.14c1.3-1.27,2.65-2.46,4-3.67s2.94-2.65,4.45-3.94q5.08-4.35,10.23-8.64c3.19-2.66,6.5-5.16,9.83-7.64,1.61-1.2,3.28-2.3,4.94-3.43.82-.55,1.62-1.16,2.47-1.67l2.7-1.63,2.93-1.77c.74-.45,1.54-.83,2.31-1.25,1.89-1,3.76-2,5.69-2.89,3.87-1.82,7.81-3.46,11.77-5.07,1.86-.75,3.74-1.42,5.61-2.11a61.86,61.86,0,0,1,6.07-1.91,38.94,38.94,0,0,1,7.66-1.29,29.31,29.31,0,0,1,4.19.08,21.69,21.69,0,0,1,4.28,1,26.83,26.83,0,0,1,3.95,1.66,25.72,25.72,0,0,1,3.61,2.16,20.61,20.61,0,0,1,3.08,2.59,4.51,4.51,0,0,1,1.19,1.9,1.28,1.28,0,0,1-.87,1.57,1.25,1.25,0,0,1-1.53-.87l0-.05a.08.08,0,0,0,0,0c-.08-.13-.17-.25-.25-.37l.1.12a7,7,0,0,0-.75-.79c-.47-.4-.95-.77-1.45-1.12a26.63,26.63,0,0,0-2.58-1.5A29.49,29.49,0,0,0,350.5,590c-.79-.26-1.59-.49-2.41-.69a26,26,0,0,0-3-.43c-.66,0-1.3,0-2,0l.27,0a33.19,33.19,0,0,0-3.72.48,40.18,40.18,0,0,0-4.74,1.36c-1.93.7-3.8,1.54-5.65,2.41s-3.57,1.79-5.3,2.77c-2.18,1.23-4.36,2.46-6.51,3.73s-4.06,2.45-6.08,3.69c-1.72,1.06-3.38,2.23-5.05,3.36q-2.25,1.62-4.48,3.26c-1.24.9-2.43,1.87-3.62,2.83s-2.28,1.78-3.37,2.72L290.76,619q-7,6.46-14,13c-2.39,2.26-4.74,4.57-7.1,6.87-.87.85-1.69,1.75-2.53,2.62-1.07,1.11-2.19,2.19-3.22,3.33l-5.2,5.91q-4.78,5.81-9.49,11.68c-2.87,3.59-5.48,7.38-8.1,11.16l-3.84,6.26c-.62,1-1.12,2.11-1.67,3.16l-1.56,3c-1,2.18-2,4.37-2.92,6.56-.45,1-.77,2.14-1.15,3.2s-.69,1.92-1,2.87l-1.8,6.5c-.18,1-.37,1.91-.55,2.87s-.51,2.19-.65,3.3c-.39,3-.82,6.06-1.06,9.11-.11,1.94-.15,3.89-.07,5.83.1,1.18.26,2.34.47,3.5.24,1,.52,2,.82,3a44.07,44.07,0,0,0,1.58,4.14c.05.09.1.18.16.27.27.37.54.72.83,1.07s.5.55.76.82a6.47,6.47,0,0,1-3.7,11,6.25,6.25,0,0,1-.87.06A6.15,6.15,0,0,1,220.94,748.68Z"/><circle class="cls-1" cx="1562.5" cy="666.5" r="327.5"/><text class="cls-3" transform="translate(1097.45 106.49)"><tspan class="cls-4">T</tspan><tspan x="36.18" y="0">he</tspan><tspan class="cls-5" x="106.68" y="0">r</tspan><tspan class="cls-6" x="128.76" y="0">e</tspan><tspan class="cls-7" x="162" y="0">’</tspan><tspan x="175.32" y="0">s a </tspan><tspan class="cls-8" x="269.04" y="0">w</tspan><tspan class="cls-9" x="316.14" y="0">orl</tspan><tspan class="cls-10" x="390.54" y="0">d</tspan><tspan class="cls-11" x="424.8" y="0">-</tspan><tspan x="448.79" y="0">wide virus </tspan><tspan x="0" y="72">th</tspan><tspan class="cls-6" x="59.46" y="72">a</tspan><tspan x="92.46" y="72">t</tspan><tspan class="cls-7" x="115.38" y="72">’</tspan><tspan x="128.7" y="72">s made mankind </tspan><tspan x="0" y="144">qui</tspan><tspan class="cls-12" x="89.34" y="144">t</tspan><tspan x="111.84" y="144">e </tspan><tspan class="cls-13" x="161.4" y="144">s</tspan><tspan x="189.96" y="144">trange. </tspan></text><text class="cls-3" transform="translate(125.45 141.49)">Wh<tspan class="cls-6" x="97.2" y="0">a</tspan><tspan x="130.2" y="0">t</tspan><tspan class="cls-7" x="153.12" y="0">’</tspan><tspan x="166.44" y="0">s going on, </tspan><tspan x="0" y="72">wh</tspan><tspan class="cls-6" x="84.06" y="72">a</tspan><tspan x="117.06" y="72">t has changed?</tspan></text><path class="cls-14" d="M1275.79,898.88c-14.06-2.14-28.45-6.9-39.53-16.12A83.86,83.86,0,0,1,1225,871.51a85.53,85.53,0,0,1-5.77-8.23,98.74,98.74,0,0,1-7.25-13.86c-2.33-5.07-4.11-10.41-6-15.66-1.58-4.4-3.12-8.81-4.74-13.19-.92-2.48-2-4.89-3.13-7.27-2.43-4.18-5-8.28-7.59-12.34-1-1.4-2-2.8-3-4.16-2-2.66-4-5.49-6.15-8L1178,785c-1.8-2-3.82-3.82-5.75-5.7-2.34-2-4.7-3.91-7.15-5.77-3.82-2.89-7.74-5.63-11.65-8.39-7.43-5.23-14.71-10.69-21.76-16.42-4.08-3.32-8.2-6.63-12-10.33A72.28,72.28,0,0,1,1100.5,704a78.57,78.57,0,0,1-2.26-16.12c-.21-5.55.86-10.65,2-16a61.11,61.11,0,0,1,1.68-5.91c1.31-4.08,2.71-8.18,4.19-12.2,1.66-4.49,3.38-8.93,5.28-13.32a71.14,71.14,0,0,1,5.88-11.2,78,78,0,0,1,5.91-8.23c1.68-1.93,3.35-3.86,5.08-5.72a79.86,79.86,0,0,1,6.23-5.65,56,56,0,0,1,11.25-7.53,106.61,106.61,0,0,1,11.31-5.28q6-2.18,12.06-4.12c-1.36-4.89-2.33-10-3.25-14.89a115.09,115.09,0,0,1-2-18.36,71.17,71.17,0,0,1,2.45-19.26,87.42,87.42,0,0,1,7.33-18c6-11.69,14.58-21.7,24.21-30.49,8.14-7.43,16.78-14.25,25.49-21,4.45-3.46,9.19-6.65,14-9.66,3.08-1.95,6.15-3.86,9.36-5.6a158.53,158.53,0,0,1,24.91-10.84,160.29,160.29,0,0,1,22.19-5.42,169.68,169.68,0,0,1,23.26-2.42,174.4,174.4,0,0,1,31.14,1.79c5,.66,10.07,1.7,15,2.84,2.72.63,5.45,1.27,8.15,2q1.7-2.65,3.64-5.16a72.13,72.13,0,0,1,20.63-18.15,75.13,75.13,0,0,1,26.53-9.16c4.51-.73,9-1.55,13.55-1.87,7.6-.52,15.13-1.06,22.74-.89,12.13.29,24.38.49,36.36,2.52,12.15,2.07,24.26,5.21,35.47,10.43a126.68,126.68,0,0,1,15.91,8.43c3.72,2.41,7.45,4.88,11,7.52,3.77,2.78,7.31,6.16,10.76,9.21a65,65,0,0,1,4.95,4.87,141,141,0,0,1,10.42,12.32,125,125,0,0,1,8.91,13.66c2,3.71,3.91,7.47,5.6,11.33s2.87,7.94,4.22,11.91c.33,1,.59,2,.84,3,1,4.12,1.85,8.29,2.52,12.48a91.82,91.82,0,0,1,1.07,16.4,119,119,0,0,1-3.44,25.63,114.16,114.16,0,0,1-5.26,15.58l0,.05c1.23,1.45,2.44,2.91,3.66,4.37,4.06,4.89,8.14,9.83,11.9,15a140,140,0,0,1,17.23,30A135.64,135.64,0,0,1,1636,639a106.59,106.59,0,0,1,3.4,18.31c.34,4.27.76,8.71.71,13a113,113,0,0,1-.92,12.86,93,93,0,0,1-4,17.72,144.1,144.1,0,0,1-6,15.78c-1.68,3.59-3.49,7.12-5.34,10.62-2.44,4.61-5,9.15-7.56,13.68-2,3.51-4,7-6.25,10.43-5.37,8.25-10.63,16.6-16.73,24.34-9.54,12.09-20.62,22.81-31.58,33.58-8.72,8.56-17.57,16.95-26.84,24.9a228.22,228.22,0,0,1-22,16.13,212.73,212.73,0,0,1-23.81,13.25,163.22,163.22,0,0,1-18.5,7.82c-8.74,3.1-17.49,6.17-26.57,8.13-3.89.84-7.93,1.76-11.92,2.31s-8.15.73-12.2,1c-8.38.53-16.47-1-24.6-2.75a67.41,67.41,0,0,1-11.06-3.78,61.71,61.71,0,0,1-7.93-4c-4.33,3-8.79,5.8-13.32,8.43s-9.12,4.88-13.8,7.05a161.35,161.35,0,0,1-15.24,5.72,124,124,0,0,1-25.47,5.72,127.56,127.56,0,0,1-15.15.92A117.71,117.71,0,0,1,1275.79,898.88Z"/><path d="M1450.81,486.06c.07.14.13.29.2.43l0,0a2.16,2.16,0,0,1-.24-.61Zm-44.92,336q-5.21,0-10.41-.32c-4.08-.23-8.17-.4-12.24-.79-8-.76-16.09-1.47-24.1-2.49-4-.51-8.1-.91-12.11-1.57-5.87-1-11.74-1.88-17.55-3.17a146.78,146.78,0,0,1-16.92-4.93c-2.11-.74-4.18-1.63-6.27-2.45-1.54-.61-3.11-1.18-4.62-1.85l-7.08-3.15c-4.07-1.81-8.09-3.74-12.12-5.63-3.49-1.64-6.89-3.47-10.33-5.23-1.91-1-3.75-2.13-5.57-3.26q-4-2.48-7.76-5.3c-2.3-1.74-4.52-3.59-6.67-5.5-1.61-1.42-3.23-2.87-4.73-4.4l-5.35-5.46c-1.18-1.21-2.36-2.4-3.46-3.68l-5.24-6.1c-2.59-3-5-6.21-7.28-9.45a137.13,137.13,0,0,1-16.36-30.93,108.19,108.19,0,0,1-4.73-17.07c-.43-2.16-.69-4.36-1-6.54-.28-1.79-.53-3.55-.69-5.35-.22-2.51-.43-5-.65-7.52-.16-1.85-.13-3.74-.19-5.6-.05-1.65-.11-3.29-.1-4.93,0-2.34,0-4.69.07-7s.22-4.91.33-7.36c.08-1.65.2-3.29.33-4.94.17-2,.27-3.93.5-5.88l.84-7.31c.21-1.85.56-3.68.85-5.52s.61-3.81,1-5.7q.71-3.29,1.42-6.57c.18-.78.45-1.55.66-2.32.39-1.37.79-2.74,1.18-4.12.57-2,1.26-4,1.93-5.92.56-1.67,1.12-3.32,1.74-5,.71-1.9,1.35-3.83,2.14-5.69l2.78-6.59c.87-2.06,2-4,3-6,.89-1.76,2-3.43,3-5.12,1.13-1.88,2.37-3.69,3.57-5.52,2.23-3.42,4.62-6.72,7-10,1.15-1.61,2.38-3.16,3.56-4.73,1-1.28,1.9-2.57,2.9-3.81,2.71-3.39,5.37-6.82,8.2-10.1q2.45-2.8,4.87-5.63c1.25-1.45,2.65-2.79,4-4.18,2.91-3.07,5.91-6,8.91-9q3.81-3.76,7.7-7.45c3-2.81,5.92-5.66,9-8.39s6.32-5.68,9.59-8.4l3.15-2.61c.48-.4.94-.82,1.44-1.19l5.87-4.37c1.5-1.11,3-2.15,4.58-3.18s3.32-2.3,5-3.33l6.45-3.83c1.69-1,3.46-1.89,5.19-2.81,1.56-.83,3.1-1.69,4.69-2.45l6.57-3.11c2.23-1.06,4.57-1.9,6.88-2.77,2.74-1,5.53-1.87,8.35-2.61,3.66-1,7.37-1.61,11.1-2.21s7.63-1.23,11.47-1.62l4.07-.42c1-.1,2-.25,2.94-.29l6.7-.28c.68,0,1.38.05,2.07.07l4.24.17c2.16.09,4.31.36,6.46.58,4.1.44,8.15,1.25,12.18,2.07s7.81,1.76,11.68,2.75c1.8.46,3.57,1,5.36,1.5,1.05.3,2.08.67,3.13,1,.81.26,1.62.5,2.41.81,2,.76,3.88,1.52,5.8,2.39s3.57,1.75,5.33,2.69c.87.47,1.69,1,2.53,1.57s1.62,1,2.4,1.59a23,23,0,0,1,2.37,1.79,3.83,3.83,0,0,1,1.41,2.11,2.3,2.3,0,0,1-2.18,2.65,2.18,2.18,0,0,1-1.83-.87c-.36-.19-.73-.36-1.1-.54-1.55-.71-3.09-1.41-4.67-2s-3.23-1.2-4.87-1.76l-3.92-1.05c-1.33-.35-2.71-.56-4.06-.83-5-.79-10-1.5-15.1-2.05-3-.33-6-.65-9.08-.93-2.49-.24-5-.39-7.49-.55l-5.84-.16c-.74,0-1.48,0-2.23,0l-1.16.05-3.32.09-6,.6c-1.23.12-2.45.37-3.67.56s-2.22.31-3.33.51c-5.23.95-10.47,1.88-15.66,3.06a94.17,94.17,0,0,0-10.54,3.21q-4.25,1.65-8.33,3.67l-5.37,2.65-5.51,3c-1.71.94-3.36,2-5,3s-3.13,1.88-4.65,2.9l-5.82,3.92-5.89,4.45c-1.75,1.33-3.4,2.79-5.09,4.21-3.54,3-7,6.07-10.4,9.18-5.62,5.31-11.2,10.65-16.68,16.1-1.41,1.4-2.86,2.76-4.23,4.21l-5,5.25c-2.65,2.79-5.11,5.75-7.61,8.66l-5.94,7.46c-2,2.48-3.82,5.07-5.73,7.6-3.48,4.62-6.67,9.44-9.83,14.29l-2.91,4.81c-.49.8-.86,1.69-1.29,2.52s-.83,1.62-1.24,2.43c-1.44,3.34-2.84,6.69-4.14,10.09-.6,1.6-1.23,3.19-1.79,4.81l-2,5.72c-.31,1-.61,2.08-.91,3.12-.35,1.22-.79,2.44-1.07,3.68-.59,2.66-1.16,5.33-1.76,8-.84,5.07-1.67,10.13-2.15,15.25-.27,2.85-.52,5.7-.77,8.55-.22,2.51-.29,5-.41,7.56q0,3.54-.11,7.08c0,2,.07,4.06.13,6.09,0,1.82.08,3.63.24,5.45l.57,6.64c.69,4.3,1.3,8.61,2.24,12.87a100.64,100.64,0,0,0,3.44,11.25,119.39,119.39,0,0,0,14.43,26.87q3.52,4.88,7.45,9.44l5,5.81c4.66,4.78,9.28,9.58,14.38,13.9a98.61,98.61,0,0,0,9,6.55c7.47,4.67,15.46,8.39,23.41,12.15l5.45,2.42c1.48.66,2.94,1.37,4.45,2l6.7,2.63c2.51,1,5,1.89,7.6,2.73a155.86,155.86,0,0,0,16.24,4c3.87.62,7.73,1.27,11.6,1.9,1.87.3,3.77.47,5.65.7l6.68.83c4.25.53,8.53.9,12.78,1.35,4,.41,7.93.74,11.89,1.1,1.78.17,3.58.21,5.37.31l6.75.37a161,161,0,0,0,18.25-.38,100,100,0,0,0,11.39-1.95c5.55-1.34,10.95-3.15,16.38-4.91,2.77-.9,5.49-2,8.21-3l5-2.19c2.35-1.05,4.65-2.13,6.93-3.33a106.33,106.33,0,0,0,10.31-6.43A210.55,210.55,0,0,0,1493,769.48c5-4.75,9.93-9.52,14.7-14.47,2.54-2.64,5-5.32,7.48-8,2.16-2.36,4.21-4.82,6.3-7.24s4.15-5,6.17-7.61c2.55-3.25,5-6.53,7.51-9.85,2-2.68,3.95-5.42,5.86-8.18,2.23-3.23,4.39-6.5,6.57-9.77q2.94-4.7,5.77-9.47c1-1.67,1.85-3.44,2.77-5.15.79-1.47,1.47-3,2.18-4.51.76-1.75,1.51-3.51,2.27-5.26s1.33-3.4,2-5.1c1.16-3,2.15-6,3.12-9,.43-1.58,1-3.18,1.28-4.78s.67-3.35,1-5l.81-5.13c.28-1.79.53-3.61.7-5.41.18-2,.38-3.94.56-5.9s.23-3.69.34-5.52c.09-2.81.15-5.61.17-8.42s-.17-5.7-.36-8.55l-.63-4.46c-.1-.77-.31-1.53-.47-2.29l-.45-2.17c-.33-1.3-.6-2.64-1-3.91-.48-1.48-1-3-1.45-4.43-1.28-3.21-2.55-6.43-4.11-9.52-1.65-3.28-3.32-6.54-5-9.78s-3.41-6.24-5.16-9.33-3.62-6-5.48-9q-5.42-8.67-11.23-17.08c-1.19-1.56-2.36-3.13-3.61-4.64q-2.26-2.73-4.61-5.4-4.18-4.79-8.46-9.47c-1.66-1.76-3.32-3.49-5-5.17s-3.45-3.17-5.22-4.71c-2-1.56-3.94-3.12-6-4.59s-4.3-3-6.49-4.48l-2-1.17c-.67-.4-1.34-.85-2-1.2l-4.41-2.2-4-1.7c-1.23-.53-2.53-.9-3.79-1.35-3.17-1-6.34-2-9.55-2.91a7.93,7.93,0,0,1-4.72-3.43,7.73,7.73,0,0,1,2.48-10.66,7.93,7.93,0,0,1,5.94-.94c1.91.42,3.8.92,5.68,1.47,2,.6,4.1,1.17,6.11,1.87l3.32,1.17c.87.3,1.72.72,2.57,1.08,2.14.91,4.21,1.92,6.29,3a102,102,0,0,1,10.87,6.62c3.24,2.16,6.27,4.63,9.32,7,1.72,1.35,3.31,2.86,5,4.3.7.6,1.33,1.29,2,1.93.81.8,1.63,1.59,2.4,2.42l-.68-.73c5.72,6.14,11.4,12.35,16.73,18.84s9.86,13.74,14.38,20.88c3.82,6,7.48,12.19,10.8,18.52,1.71,3.26,3.48,6.51,5.07,9.83,1.69,3.51,3.45,7,4.82,10.67-.12-.31-.23-.61-.34-.91l.51,1.36v0l0,.09,0,0h0c.27.64.49,1.29.73,1.93l0,.13v0c.06.17.13.34.19.5l.25.66-.15-.38.21.53h0v0l0,0v0h0v0a.14.14,0,0,0,0,.06h0l0,.07h0c.69,1.89,1.24,3.82,1.83,5.74.27.89.43,1.83.65,2.74s.51,2,.7,3.09c.39,2.06.79,4.1,1,6.19.12,1,.25,2.1.38,3.14.16,1.37.18,2.75.25,4.12.2,3.95.12,7.94-.07,11.88s-.42,8-.84,12.07-1,8.27-1.67,12.38c-.37,2.23-.78,4.44-1.24,6.65-.42,2-.94,4-1.49,6.08s-1.3,4.26-2,6.37c-.54,1.7-1.14,3.39-1.78,5.05-1.41,3.71-2.77,7.46-4.44,11.06-1.8,3.88-3.57,7.78-5.67,11.5-2,3.51-4,7-6.14,10.41q-3.81,6-7.72,12c-2.14,3.23-4.38,6.39-6.61,9.56a272.26,272.26,0,0,1-31.17,36.88c-3.14,3.1-6.31,6.14-9.5,9.18-2.77,2.64-5.61,5.23-8.52,7.71l-5.19,4.41c-2.24,1.89-4.66,3.61-7,5.31s-5,3.34-7.59,4.86a102.66,102.66,0,0,1-10.45,5.33c-2.29,1-4.55,2.09-6.89,3-3.58,1.32-7.15,2.68-10.79,3.84-2.29.74-4.58,1.51-6.89,2.19a132.76,132.76,0,0,1-17.47,4A100.52,100.52,0,0,1,1411,822C1409.26,822,1407.57,822,1405.89,822Z"/><path d="M1327,836.55a7.77,7.77,0,0,1,1.41.39,3.4,3.4,0,0,1,2.16,3.58c-.15.89-.3,1.71-.52,2.58-.18.69-.37,1.37-.55,2.06l-.84,3.22-1.73,6.8c-1,4-2,8.07-3.05,12.09-1.12,4.24-2.29,8.47-3.29,12.75-.52,2.22-1.1,4.43-1.54,6.67-.49,2.45-1,4.89-1.46,7.33-.23,1.44-.47,2.87-.7,4.3s-.48,2.63-.66,3.95c-.22,1.68-.45,3.36-.68,5-.17,1.28-.38,2.56-.51,3.84q-.48,4.61-.94,9.21c-.15,1.45-.15,2.93-.22,4.38s-.15,3.1-.23,4.66c0,4.18.15,8.35.53,12.53a105.47,105.47,0,0,0,1.76,11,73,73,0,0,0,2.36,7.8c.51,1.27,1.06,2.51,1.68,3.73.44.79.89,1.55,1.4,2.3l.43.5.48.46.36.26h0l.06,0,.1,0c.61-.45,1.19-.93,1.77-1.42,1.57-1.5,3.05-3.08,4.56-4.63.6-.62,1.14-1.3,1.72-1.95l2.1-2.37,3.15-3.87a83.8,83.8,0,0,0,5.24-7.31,204.66,204.66,0,0,0,10.21-19.88c2.38-5,4.76-10.1,7.19-15.12,5.44-11.3,11-22.54,16.42-33.84q2.31-5.16,4.61-10.33c.69-1.53,1.26-3.13,1.89-4.68.91-2.29,1.85-4.57,2.7-6.88.78-2.09,1.63-4.14,2.49-6.2a8.37,8.37,0,0,1,2.23-3.29,5.56,5.56,0,0,1,3-1.48,4.52,4.52,0,0,1,3.5,1,7.66,7.66,0,0,1,2,2.76c.34.65.67,1.3,1,2,.8,1.58,1.57,3.18,2.34,4.77,3.15,6.51,5.81,13.24,8.58,19.93s5.87,13.42,9,20.07c.61,1.33,1.28,2.66,1.84,4l2.84,6.77c1.48,3.55,2.74,7.19,4.06,10.8,1.2,3.31,2.22,6.67,3.31,10,1.53,4.64,3,9.29,4.71,13.87a90.55,90.55,0,0,0,4,8.94,54.32,54.32,0,0,0,2.89,4.73q1.3,1.76,2.74,3.39c.7.72,1.41,1.41,2.15,2.08s1.65,1.23,2.52,1.8q.69.42,1.41.78c.84.36,1.68.68,2.55,1,.58.16,1.16.31,1.75.43l-.56-.1a16.2,16.2,0,0,0,2,.27l-.59,0a14.54,14.54,0,0,0,2,0l.9-.13a8.13,8.13,0,0,0,1.36-.48l-.52.2.55-.27.56-.35a8.94,8.94,0,0,0,1-.91l-.41.38.38-.44.5-.69-.28.45h0a14.75,14.75,0,0,0,.86-1.49c.4-1,.76-1.93,1.09-2.91.61-2.15,1.08-4.31,1.48-6.49.3-1.84.53-3.67.76-5.51.18-1.42.4-2.84.53-4.26.28-3,.62-6.1.82-9.15s.47-6.15.62-9.22c.18-3.57.36-7.13.52-10.69q.24-6.2.5-12.38a.13.13,0,0,1,0,.06c.58-15,1.66-30,2.6-45q.36-5.73.7-11.45c.14-2.4.29-4.79.44-7.19s.44-4.58.71-6.86c.11-.86.28-1.68.47-2.52.15-.49.32-1,.49-1.45l.52-1.11a8.91,8.91,0,0,1,1-1.45,6.88,6.88,0,0,1,1.27-1,4.41,4.41,0,0,1,3.25-.52,5.88,5.88,0,0,1,2.91,1.46,14.36,14.36,0,0,1,2.07,2.87c1.8,2.81,3.46,5.68,5,8.62,2.62,4.87,4.89,9.92,7.17,15,2.51,5.53,5,11.06,7.48,16.62s4.61,10.9,6.8,16.4c2.06,5.17,4,10.41,5.89,15.63l1.89,4.82c.55,1.38,1.14,2.73,1.74,4.09s1.25,2.92,2,4.34c.85,1.66,1.69,3.33,2.53,5a74.19,74.19,0,0,0,4.2,6.87c.62.8,1.26,1.57,1.93,2.32.36.37.74.73,1.14,1.07l-.41-.34a14.86,14.86,0,0,0,1.42,1.09l.59.31.43.14.32,0,0,0,.18-.24c.1-.18.2-.36.29-.54.57-1.38,1-2.78,1.51-4.2l.93-3.06c.33-1.09.58-2.22.86-3.33.51-2,.87-4,1.26-6l.54-4.33c.15-1.2.19-2.41.27-3.62.19-2.63.29-5.27.41-7.91q.13-3.48.28-7h0c.1-2.48.22-4.95.32-7.43q.08-3,.14-6c.05-1.82,0-3.63-.06-5.45-.09-3.78-.33-7.55-.55-11.33-.2-3.5-.49-7-.79-10.49q-.48-5.82-1-11.63-.56-5.61-1.09-11.22c-.36-3.68-.81-7.36-1.12-11s-.66-7.22-.87-10.83a127.82,127.82,0,0,1-.34-13.27,7.07,7.07,0,0,1,1.18-4,6.89,6.89,0,0,1,2.56-2.11,5.25,5.25,0,0,1,4.06-.11,6.48,6.48,0,0,1,1.66.84,31,31,0,0,1,2.54,2.18c2.7,2.55,5.4,5.07,8.06,7.66,5.26,5.12,10.37,10.39,15.67,15.48,3.52,3.37,7.22,6.51,10.94,9.65q4.3,3.56,8.62,7.1c3.25,2.67,6.55,5.29,9.84,7.92,1.29,1,2.62,2,3.94,3s2.88,2.19,4.38,3.21q2.61,1.77,5.21,3.55c1.5,1,3,2,4.58,2.94l0,0c2.47,1.55,4.94,3.09,7.44,4.59,1.08.64,2.15,1.31,3.26,1.91l4.93,2.64-.55-.26c2.48,1.15,4.92,2.35,7.45,3.35l2.84,1.12c.4.16.79.34,1.21.47l4.07,1.31c1.23.33,2.45.62,3.69.88.89.15,1.78.26,2.68.35l-.61,0c.42,0,.84,0,1.27,0-1.06-2.79-2.09-5.59-3.13-8.39q-2.85-7.49-5.76-15c-1.94-5-3.78-10.08-5.84-15.05-1-2.44-2-4.91-3.06-7.33l-2.18-4.86c-.46-1-.91-2.09-1.41-3.12-1.31-2.71-2.64-5.42-3.95-8.13-.58-1.2-1.24-2.36-1.85-3.54l-2-3.9c-3.6-6.64-7.22-13.27-10.93-19.85-1.91-3.38-3.92-6.7-5.91-10-.68-1.14-1.44-2.24-2.17-3.35l-3.48-5.26-3.11-4.26c-.93-1.28-1.84-2.58-2.82-3.84l-6.93-8.87-4.14-5.29a95.34,95.34,0,0,1-7.25-10.67,37.06,37.06,0,0,1-4.53-11.57,9.4,9.4,0,0,1-.18-2.3,6.53,6.53,0,0,1,.34-2.2,7.78,7.78,0,0,1,.72-1.37,5.52,5.52,0,0,1,1.49-1.4,5.37,5.37,0,0,1,3.27-.63l2.38.14c1.75.11,3.49.25,5.24.4,3.51.29,7,.72,10.51,1.09a198.81,198.81,0,0,1,21.3,3.42c3,.64,6,1.25,9,1.85,3.16.49,6.31,1,9.49,1.37s6.16.83,9.19,1.49,6.31,1.45,9.47,2.16l5,1.11c1.58.36,3.19.59,4.79.87l5.15.59-.52,0c1.6.06,3.2.18,4.8.15l2.79,0c.7,0,1.4-.1,2.1-.16,1.35-.2,2.69-.39,4-.67.82-.22,1.61-.46,2.41-.73.41-.16.82-.35,1.22-.55l.94-.55-.37.26a11,11,0,0,0,1.64-1.32l-.33.3.33-.37c-.09-.28-.19-.56-.29-.85-.25-.63-.51-1.24-.78-1.87l.21.4a10.67,10.67,0,0,0-1.26-2l.26.37c-1.52-2-3.09-3.95-4.67-5.9s-3.23-3.74-4.88-5.57c-1.6-1.65-3.2-3.29-4.87-4.87s-3.09-2.88-4.63-4.34c-3.74-3.51-7.4-7.1-11-10.74-3.38-3.39-6.76-6.79-10.23-10.09-1.76-1.68-3.55-3.3-5.36-4.91s-3.49-3-5.25-4.48c-5.79-4.62-11.6-9.21-17.31-13.93-3.1-2.58-6.18-5.18-9.27-7.79-1.25-1-2.48-2.13-3.71-3.2-2.38-2.06-4.75-4.1-7-6.31a47.64,47.64,0,0,1-3.76-4.27,26.75,26.75,0,0,1-2.8-4.49,13.33,13.33,0,0,1-.89-2.53,8.15,8.15,0,0,1-.33-2.13,8.85,8.85,0,0,1,.85-4.45,10.32,10.32,0,0,1,2.36-3c.74-.68,1.51-1.31,2.28-2,1.44-1.22,2.9-2.4,4.37-3.6,2.68-2.19,5.42-4.33,8.25-6.33,1.42-1,2.85-2,4.3-3s3.21-2,4.83-3c2.94-1.76,6-3.39,9-5.06,1.6-.89,3.21-1.75,4.82-2.63,1.37-.75,2.76-1.5,4.09-2.33s2.81-1.73,4.17-2.65,3-2,4.49-3.08c2.85-2,5.71-4,8.61-5.92s5.8-3.67,8.69-5.51,5.67-3.6,8.45-5.47c6-4,11.95-8.23,17.89-12.4l3.62-2.73c1-.74,1.9-1.6,2.84-2.4,1.27-1.23,2.51-2.46,3.67-3.8.3-.38.6-.76.88-1.14-2.24,0-4.49,0-6.73.08q-4.4.14-8.79.32c-5.67.24-11.32.69-17,1.2l-5.38.69c-1.69.22-3.36.58-5,.88-3.14.58-6.23,1.33-9.34,2-3.48,1-7,1.89-10.41,2.94-3.63,1.11-7.24,2.23-10.86,3.36-7.35,2.28-14.78,4.29-22.22,6.23a94.26,94.26,0,0,1-9.7,2,32.05,32.05,0,0,1-6.11.44,23.4,23.4,0,0,1-3-.3,19,19,0,0,1-3.15-.85,9.25,9.25,0,0,1-5.06-4.15,7.59,7.59,0,0,1-.79-2.18,12.71,12.71,0,0,1,0-5.14,14.74,14.74,0,0,1,1.9-4.9c1.72-3.06,3.63-6,5.57-9s3.92-5.74,6-8.52c4.46-6,8.88-12,13.75-17.67,2.46-2.86,5-5.6,7.71-8.26,2.51-2.5,5.08-4.94,7.63-7.4q7.65-7.39,15.12-15c2.51-2.56,5.06-5.1,7.48-7.74,1.24-1.35,2.54-2.67,3.73-4.07l4-4.66c1.43-1.82,2.81-3.65,4.07-5.59.6-1,1.16-2,1.67-3.05.26-.58.49-1.16.7-1.75,0,.14-.09.29-.14.43a14.46,14.46,0,0,0,.48-1.71l.09-.78c0,.16,0,.32,0,.48a9.48,9.48,0,0,0,0-1.41c0-.11,0-.23-.08-.35a2.6,2.6,0,0,0-.1-.25l-.3-.47-.31-.32-.49-.37-.65-.33-.22-.08-.5-.13c-.23,0-.46-.06-.7-.07a9,9,0,0,0-1.27.07h.18l.31,0-.6.11c-.58.16-1.13.35-1.69.55-5.74,2.34-11.22,5.22-16.71,8.08-3.24,1.76-6.47,3.53-9.68,5.34s-6.21,3.61-9.29,5.47c-6.22,3.76-12.17,8-18.18,12.05q-4.25,2.88-8.54,5.69c-3.13,2-6.24,4.09-9.42,6-6.5,4-13,7.91-19.62,11.72a123.17,123.17,0,0,1-12.63,6.6,36.06,36.06,0,0,1-5.53,1.89,22.67,22.67,0,0,1-5.86.66,13.81,13.81,0,0,1-2.31-.23,16.24,16.24,0,0,1-2.73-.67c-.87-.34-1.65-.69-2.49-1.1l-1.35-.88c-.38-.3-.74-.61-1.09-.94a7.85,7.85,0,0,1-2.09-3.26c-.08-.23-.16-.45-.23-.68A7.83,7.83,0,0,1,1526,492a14.17,14.17,0,0,1,.06-2.52,23.2,23.2,0,0,1,.36-2.34c.2-1.08.43-2.14.69-3.21a24.19,24.19,0,0,1,.78-2.46c.28-.8.55-1.6.84-2.39.6-1.7,1.2-3.39,1.84-5.08s1.39-3.58,2.14-5.35,1.55-3.34,2.4-5c1.67-3.2,3.52-6.3,5.37-9.39,1.73-2.89,3.57-5.72,5.34-8.59,2.08-3.37,4.14-6.76,6.19-10.14,4.57-7.52,9.27-15,14.21-22.25,2.61-3.83,5.23-7.64,7.93-11.41,2.58-3.59,5.11-7.2,7.58-10.87,1.28-2,2.57-4.05,3.77-6.14.63-1.09,1.3-2.17,1.88-3.29l2.13-4.15,1.42-3.19c.84-1.88,1.56-3.81,2.22-5.77a55.57,55.57,0,0,0,1.36-5.41c.11-.68.19-1.37.24-2.06s0-1.46-.06-2.19l-.15-.9c-.08-.24-.15-.48-.22-.72l-.2-.44-.2-.3-.06-.06-.08-.06h-.14c-1.57.26-3.14.52-4.69.86l-.3.09-.24.11c-1.51,1.14-3,2.37-4.42,3.58s-2.84,2.38-4.25,3.59c-3,2.59-6,5.19-9,7.86q-9.46,8.6-18.86,17.28c-5.31,5-10.59,10-15.94,14.94-2.63,2.43-5.22,4.88-7.88,7.27l-9,8.09c-5.41,4.83-10.71,9.77-16,14.68s-11,9.65-16.89,14.08c-1.43,1.09-2.88,2.16-4.33,3.21-1.67,1.21-3.36,2.35-5.08,3.48a42.23,42.23,0,0,1-10.07,4.94,18.09,18.09,0,0,1-2.82.58,10.94,10.94,0,0,1-2.68.08,15.53,15.53,0,0,1-5-1.35,12.51,12.51,0,0,1-3.91-2.76,12.3,12.3,0,0,1-2.5-4,33.89,33.89,0,0,1-1.51-5.78,48,48,0,0,1-.65-4.94c-.2-2.11-.36-4.21-.5-6.32-.48-7-.45-14.13-.44-21.18,0-7.31.48-14.61.95-21.9.32-4.77.79-9.51,1.46-14.24s1.54-9.56,2.45-14.32c1.85-9.66,3.62-19.34,5.41-29l.84-4.92c.29-1.69.5-3.39.74-5.09.45-3.11.61-6.25.77-9.39,0-1.39,0-2.76-.1-4.14s-.37-2.88-.66-4.3c-.11-.44-.24-.87-.38-1.3s-.27-.63-.42-.93c-.4-.67-.83-1.31-1.27-2l-.25-.3c-.06.07-.13.14-.19.22-2.67,3.36-5,7-7.35,10.57q-8.12,13.31-15.63,26.95c-2.57,4.64-5.15,9.27-7.57,14-1.32,2.55-2.67,5.09-3.94,7.67l-3.89,7.89c-2.88,6.19-5.68,12.41-8.65,18.56-.62,1.27-1.2,2.57-1.86,3.82l-3.14,5.92c-1.57,2.93-3.31,5.78-5,8.66-1.58,2.72-3.29,5.37-4.88,8.08l-3.51,6c-.73,1.22-1.38,2.48-2.06,3.73q-1.18,2.2-2.38,4.39c-1,1.74-1.78,3.55-2.67,5.32-.59,1.17-1.16,2.35-1.73,3.53a4.05,4.05,0,0,1-2.08,5.08l-.4.16c0,.11-.11.23-.16.35l0-.07c-1,2.18-1.91,4.4-3,6.56a1.19,1.19,0,0,1-.23,1.56l-.84.77a5.08,5.08,0,0,1-.41.39,1.17,1.17,0,0,1-1.82-1.32c1-2.38,1.95-4.81,2.88-7.22l.48-1.23a4.26,4.26,0,0,1-1.89-1.93c-.84-1.65-1.58-3.34-2.38-5q-1.35-2.81-2.81-5.56a233.3,233.3,0,0,0-14.33-23.15c-1.39-1.95-2.76-3.91-4.13-5.88-.76-1.1-1.45-2.26-2.17-3.38s-1.21-2-1.8-3c-2.51-4.21-4.8-8.54-7.11-12.86.08.13.15.27.22.4-1.25-2.33-2.47-4.67-3.71-7,.07.13.14.27.22.4-1.53-2.83-3-5.69-4.6-8.48-1.83-3.21-3.67-6.41-5.56-9.58-3.93-6.57-7.78-13.21-12.18-19.49a80.89,80.89,0,0,0-5.07-6.31,54.39,54.39,0,0,0-4-3.78c-.86-.69-1.73-1.32-2.63-1.93-.59-.36-1.2-.68-1.81-1a13.75,13.75,0,0,0-1.76-.65l.48.16-.79-.18-.67-.07h-.5l-.18,0-.3.11-.15.08-.41.33c-.19.22-.39.43-.59.64s-.44.59-.65.89c-.63,1-1.21,2.07-1.75,3.16s-.89,2.17-1.26,3.28c-.4,1.35-.72,2.71-1,4.09s-.39,3-.47,4.56c0,1.72.05,3.43.19,5.14a69.72,69.72,0,0,0,1.2,7.34c.32,1.49.65,3,1,4.48,1,3.3,1.86,6.61,3,9.87l3.84,11.4c.45,1.33.93,2.66,1.32,4l2.13,7.38c.35,1.24.64,2.47.92,3.73.5,2.31,1,4.63,1.51,6.94a11.38,11.38,0,0,1,.18,1.17c.16,1.16.32,2.33.49,3.5.23,1.67.48,3.34.63,5,.19,2.27.39,4.55.58,6.83.15,1.74.19,3.5.28,5.25.07,1.44.16,2.88.15,4.32l0,6.82c0,2-.19,4-.34,5.93-.2,2.5-.55,5-1,7.46a39.32,39.32,0,0,1-1.34,5.47,25.13,25.13,0,0,1-2.73,6.1,13.93,13.93,0,0,1-1.75,2.35,18.8,18.8,0,0,1-2,1.8,11.34,11.34,0,0,1-3.84,1.79,18.82,18.82,0,0,1-5.65.5,33.68,33.68,0,0,1-6.54-.92,42.85,42.85,0,0,1-11-4.46,79.28,79.28,0,0,1-7.35-4.67,111.89,111.89,0,0,1-9.78-7.61,102.85,102.85,0,0,1-9.46-9.56c-1.42-1.6-2.73-3.32-4.09-5-2.46-3-4.8-6.08-7.16-9.16-2.24-2.92-4.45-5.87-6.67-8.8q-6.51-8.65-12.83-17.45l-3.3-4.63.26.35c-1.67-2.32-3.36-4.61-5-6.92l-1.92-2.63c-.78-1.07-1.67-2.08-2.5-3.12-1.2-1.48-2.39-3-3.59-4.46-.51-.64-1-1.28-1.58-1.88-2-2.24-4-4.49-6.09-6.72-2.58-2.69-5.21-5.33-8-7.84,0,1.62-.06,3.23-.07,4.85a56.83,56.83,0,0,0,.27,5.68,70.05,70.05,0,0,0,1.23,6.92,94.14,94.14,0,0,0,2.75,9.33l2.1,5.87c1.26,3,2.44,6.07,3.79,9,1.61,3.56,3.21,7.11,4.86,10.65,3.38,7.23,6.69,14.51,10,21.78,2.87,6.31,5.92,12.52,8.89,18.78l3,6.33c.69,1.45,1.3,2.94,1.93,4.41s1.44,3.2,2,4.84l2.33,6.56c.65,1.82,1.15,3.69,1.69,5.56s1.1,3.72,1.54,5.61c0,.22.11.45.16.67l.12.54-.15-.67q.73,3.17,1.48,6.34c.49,2.12.82,4.28,1.21,6.42.58,3.16,1,6.34,1.34,9.54.22,2.23.35,4.47.42,6.71a70.5,70.5,0,0,1-.35,8.35,54.19,54.19,0,0,1-1.19,7.06c-.25,1-.6,2.06-.93,3.07a13.66,13.66,0,0,1-1,2.33,12.54,12.54,0,0,1-2.91,3.72,7.38,7.38,0,0,1-4.24,1.5,20.7,20.7,0,0,1-5.57-.94l-2.79-.71c-1.68-.42-3.34-1-5-1.44-.76-.23-1.51-.52-2.26-.79l-3.41-1.23c-1.79-.64-3.51-1.45-5.25-2.19-3.35-1.43-6.62-3.05-9.9-4.62-1.78-.85-3.52-1.81-5.28-2.71q-2.2-1.14-4.4-2.33c-1.44-.78-2.9-1.54-4.33-2.36-1.75-1-3.55-2-5.27-3q-6.42-3.95-12.75-8l.47.3c-4.92-3.13-9.91-6.11-14.91-9.09-1.09-.65-2.23-1.25-3.34-1.87l-4.39-2.45c-1.18-.66-2.44-1.2-3.65-1.79l-3.84-1.88c-2.71-1.11-5.41-2.3-8.16-3.31-3-1.11-6-2.21-9-3.37s-6.23-2.4-9.31-3.7l-5.66-2.39-3.85-1.62c-2.31-1-4.66-1.83-7-2.62-1.11-.33-2.21-.63-3.34-.9-1-.15-1.91-.27-2.88-.36l.66,0a14.27,14.27,0,0,0-1.73,0l-.63.1-.42.11.22-.08h0l.39-.14a7.7,7.7,0,0,0-1.15.47h0l.07,0-.11.08,0,0-.08.13-.08.14a.31.31,0,0,0,0,.08l-.06.3c0,.3-.07.61-.09.92s0,.87,0,1.31a17.27,17.27,0,0,0,.29,1.87c.27,1,.58,2,.93,3,.82,2.06,1.75,4,2.76,6,1,1.73,2,3.41,3,5l2.49,3.76c1.53,2.06,3,4.13,4.64,6.13q3.07,3.87,6.25,7.66c3.74,4.48,7.69,8.77,11.62,13.08,2.44,2.5,4.86,5,7.38,7.46,1.24,1.19,2.45,2.43,3.73,3.59l5.13,4.64c2.57,2.32,5.22,4.56,7.8,6.86,1.22,1.08,2.45,2.14,3.63,3.25l5,4.7c1.29,1.21,2.52,2.51,3.78,3.76s2.21,2.22,3.29,3.37c1.34,1.42,2.69,2.84,4,4.27,1.5,1.61,2.9,3.31,4.34,5a82.27,82.27,0,0,1,5.56,7.07,58.19,58.19,0,0,1,7.24,13.16,41.61,41.61,0,0,1,1.68,6,17,17,0,0,1,.36,2.85,19.7,19.7,0,0,1,0,2.77,11.72,11.72,0,0,1-1.23,4.42,6.32,6.32,0,0,1-2.78,2.66c-1.83.83-3.85.55-5.77.26-1.36-.21-2.73-.42-4.09-.67-3-.56-6.05-1.17-9.06-1.86-6.2-1.41-12.36-2.95-18.51-4.56-5.6-1.46-11.12-3.19-16.71-4.66l-5.59-1.48c-1.23-.32-2.46-.69-3.71-1-3.25-.73-6.5-1.47-9.76-2.19L1083,596c-.31-.05-.63-.05-.94-.08l-3.46-.31-4.81-.43-4.15-.08-3.11-.06c-.49,0-1,0-1.48,0-4,.16-8,.27-12,.62-2.24.25-4.45.57-6.66,1,.56,1.26,1.15,2.51,1.75,3.76.69,1.46,1.46,2.87,2.22,4.29L1053,609c.84,1.4,1.76,2.75,2.65,4.12,1.57,2.4,3.22,4.75,4.84,7.11l3.17,4.21c1.55,2.06,3.21,4,5,5.93,1.53,1.59,3.11,3.11,4.78,4.56a67.13,67.13,0,0,0,5.48,4c2.78,1.73,5.64,3.33,8.55,4.84s5.85,3,8.79,4.4l4.93,2.28c1.79.82,3.62,1.54,5.43,2.31,3.06,1.29,6.17,2.47,9.26,3.69q10.17,4,20.3,8.1a182.66,182.66,0,0,1,17.38,7.63,54.71,54.71,0,0,1,19.91,17.39,12.7,12.7,0,0,1,1.22,2.11,17.62,17.62,0,0,1,.81,2.35,6.69,6.69,0,0,1,.15,1.9,3.66,3.66,0,0,1-.24,1.35c-.76,2-2.77,2.93-4.46,3.93a32.41,32.41,0,0,1-4.38,2c-1.54.61-3.1,1.19-4.65,1.76-1.71.63-3.41,1.24-5.13,1.83-1.89.65-3.8,1.25-5.72,1.84-3.19,1-6.41,1.87-9.64,2.73q-6.06,1.63-12.1,3.3c-3.62,1-7.21,2.06-10.81,3.11-6.86,2-13.66,4.2-20.48,6.3-3.39,1-6.76,2.1-10.15,3.1q-5.87,1.73-11.71,3.52c-3.15,1-6.26,2.07-9.37,3.17l-4.69,1.91q-4.38,1.78-8.56,4a77.12,77.12,0,0,0-7.25,4.47c-1.58,1.19-3.09,2.42-4.55,3.74-1.13,1.11-2.21,2.24-3.25,3.43a50.35,50.35,0,0,0-3,4.19c-.52.88-1,1.76-1.45,2.67s-.68,1.66-1,2.52c-.13.45-.24.91-.33,1.37s-.07.72-.11,1.07,0,.61,0,.91.05.55.08.82c0-.16-.07-.31-.11-.47a9.53,9.53,0,0,0,.55,1.87c-.06-.15-.12-.3-.17-.45.1.2.19.41.29.61l.36.56.43.48.46.4.55.37.75.38c.5.21,1,.41,1.53.58,1.78.52,3.6.9,5.41,1.31l2.2.32c.85.12,1.72.3,2.58.37l6,.47c2.62.08,5.24.2,7.86.22,3,0,6.08.06,9.12,0,7.15-.05,14.3-.16,21.45-.29,5.8-.1,11.59-.35,17.39-.64,3-.15,5.92-.25,8.87-.48l10.83-.87,11.61-1.35c3.81-.44,7.62-1,11.42-1.52,7.58-1,15.18-2,22.76-3l10.65-1.34a109.56,109.56,0,0,1,12.67-1,39.82,39.82,0,0,1,6.72.54,23.24,23.24,0,0,1,2.62.63c.47.15.93.31,1.39.5a5.93,5.93,0,0,1,1.22.7,5,5,0,0,1,1.83,2,4,4,0,0,1,.45,2.67,4.71,4.71,0,0,1-.43,1.28,12.18,12.18,0,0,1-.9,1.35,18.69,18.69,0,0,1-1.8,1.87c-2.49,2.32-5.21,4.4-7.85,6.54-2.2,1.8-4.42,3.6-6.65,5.37-2.65,2.1-5.34,4.16-8,6.21-4.72,3.6-9.47,7.14-14.15,10.78q-7.66,6-15.36,11.85c-2.55,1.94-5.06,3.93-7.59,5.9-2.29,1.8-4.47,3.76-6.69,5.65l-3.13,2.94c-1,.91-2,1.8-3,2.76l-3.6,3.65c-1,1-1.93,1.91-2.86,2.91-1.26,1.36-2.53,2.72-3.79,4.09-.9,1-1.83,1.92-2.71,2.93l-6.46,7.38c-1.45,1.75-2.88,3.51-4.27,5.31s-2.7,3.71-4,5.64a60.53,60.53,0,0,0-3.1,5.64c-.43,1-.82,2-1.18,3s-.51,1.84-.72,2.79c-.06.42-.11.84-.14,1.27s0,.64,0,1l.09.74c.06.2.12.41.17.61l.13.28.18.27,0,.05.14.09.27.11.32.06.61,0c3,0,6-.18,8.92-.3,2.32-.09,4.64-.16,7-.19,6.11-.09,12.22.07,18.31-.44a93,93,0,0,0,10.09-1.65,88.43,88.43,0,0,0,9.86-3,107.6,107.6,0,0,0,11.41-5.2q3.1-1.64,6.2-3.28c3-1.73,6-3.43,9-5.21,3.18-1.9,6.35-3.83,9.54-5.71,6.51-3.83,13-7.68,19.61-11.36,7-3.91,14-7.8,21.13-11.51,2.72-1.42,5.48-2.76,8.32-3.94a55.7,55.7,0,0,1,6-2c.88-.24,1.77-.41,2.67-.58a9.72,9.72,0,0,1,3.09-.18,5.82,5.82,0,0,1,2.65.93,4.27,4.27,0,0,1,1.45,2.26,4.43,4.43,0,0,1-.37,2.92,8.74,8.74,0,0,1-.82,1.5l-.93,1.5c-3.68,6-7.58,11.84-11.45,17.7-1.17,1.88-2.34,3.77-3.52,5.65s-2,3.62-3,5.42c-1.94,3.47-3.65,7-5.41,10.6q-4.07,8.76-8.11,17.54l-2.42,5.25c-.77,1.67-1.45,3.4-2.18,5.09-1.3,3.06-2.39,6.2-3.55,9.32-.47,1.56-.93,3.12-1.4,4.68-.83,2.8-1.55,5.61-2.11,8.48-.31,1.9-.6,3.8-.73,5.72,0,.67,0,1.33,0,2,0-.17,0-.33,0-.5a12.42,12.42,0,0,0,.2,1.61l0,0c1.56-.21,3.12-.54,4.65-.88,1-.26,1.88-.56,2.8-.9,1.74-.75,3.4-1.62,5.08-2.5,1.47-.88,3-1.7,4.42-2.66l5.2-3.49,6.39-4.87c.48-.36.94-.76,1.4-1.14l4.29-3.64c1.56-1.33,3.1-2.66,4.61-4l6.28-5.78c10.72-10.26,21.41-20.57,31.74-31.23,2.42-2.5,4.85-5,7.19-7.55,2.47-2.73,5-5.44,7.41-8.2,2.61-2.94,5.19-5.91,7.9-8.76,1.53-1.6,3-3.23,4.61-4.78,1.42-1.39,2.9-2.7,4.42-4a5.74,5.74,0,0,1,1.42-.77,3.69,3.69,0,0,1,1.35-.31Zm127.78,135.8a25,25,0,0,1-5-1.27,21.47,21.47,0,0,1-5-2.5,33.48,33.48,0,0,1-5.09-4.1,36.94,36.94,0,0,1-4.51-5.47c-4.71-6.8-7.67-14.62-10.28-22.41q-2.31-6.92-4.63-13.83c-1.25-3.72-2.67-7.38-4.05-11l-3.55-8.32c-1.08-2.53-2.29-5-3.45-7.49s-2.26-4.95-3.38-7.43-2.25-5.17-3.34-7.77c-2-4.83-3.81-9.76-5.83-14.6-1.19-2.87-2.48-5.71-3.83-8.51l-.45,1.15c-.37,1-.77,2-1.17,3L1388.2,869c-1.42,3.51-3.06,6.93-4.6,10.38s-3.17,6.66-4.78,10-3.08,6.32-4.64,9.49q-4.64,9.45-9.18,19L1360.17,928c-1.62,3.43-3.2,6.88-4.92,10.26l-3.12,6.16a80.75,80.75,0,0,1-6.5,10.49c-1.5,2.11-3.14,4.08-4.78,6.07-1.16,1.41-2.33,2.78-3.54,4.13-3.15,3.51-6.37,7-10.26,9.76a6.33,6.33,0,0,1-1.75.8,8.28,8.28,0,0,1-1.91.37,7.7,7.7,0,0,1-3.77-.57l-1-.46a13.47,13.47,0,0,1-2.87-2.44,21.72,21.72,0,0,1-1.62-2.19,28.93,28.93,0,0,1-1.82-3.38,44.36,44.36,0,0,1-2.23-5.77,65.28,65.28,0,0,1-1.8-6.86,98.46,98.46,0,0,1-1.91-15.69,90.91,90.91,0,0,1-.05-10.57l.45-7.64c.07-1.31.24-2.6.38-3.91l.69-6.25c.21-1.92.55-3.84.82-5.75.22-1.53.44-3,.7-4.57.44-2.57.81-5.17,1.33-7.72s1-5.09,1.54-7.6c1.14-4.84,2.3-9.66,3.58-14.46q2-7.58,3.94-15.17.69-2.73,1.4-5.48c-3.91,4.13-7.6,8.46-11.4,12.69l-4.89,5.43c-.89,1-1.76,2-2.68,3q-4.49,4.67-9,9.32c-2.77,2.88-5.64,5.68-8.45,8.51-2.49,2.5-5,5-7.53,7.44-5,5-10.11,9.92-15.29,14.75l-4.53,4.23c-1.19,1.1-2.45,2.13-3.68,3.19l-4.68,4c-.36.31-.76.59-1.14.88l-3.44,2.64c-1.14.88-2.26,1.77-3.45,2.58l-3.07,2.07c-.69.46-1.37,1-2.08,1.39-1.55.92-3.08,1.89-4.67,2.73l-2.84,1.48a30.7,30.7,0,0,1-6.3,2.38c-1.91.52-3.88.79-5.82,1.14a8.07,8.07,0,0,1-3.59-.22,3.51,3.51,0,0,1-1.3-.6,8.64,8.64,0,0,1-1.82-1.75,8.25,8.25,0,0,1-1-1.8,14.49,14.49,0,0,1-.64-2.43,18.68,18.68,0,0,1-.18-2.59,25.26,25.26,0,0,1,.13-3c.09-1.25.34-2.51.54-3.76.16-1,.36-2,.56-2.93a53,53,0,0,1,1.39-5.41c.67-2.14,1.35-4.28,2-6.41.5-1.59,1.15-3.13,1.75-4.68s1.07-2.87,1.7-4.26l2.85-6.35c1.15-2.56,2.43-5.06,3.64-7.6s2.49-5.26,3.74-7.9,2.48-5.45,3.83-8.12q1.09-2.21,2.2-4.41c.65-1.3,1.25-2.65,2-3.92l2.54-4.54c.58-1,1.13-2.1,1.76-3.11,1.72-2.77,3.42-5.54,5.22-8.26,3-4.55,6-9.09,9-13.67-.82.26-1.65.54-2.46.84-2.62,1-5.14,2.21-7.65,3.48-3.08,1.67-6.17,3.32-9.24,5q-5.3,3-10.58,5.94-9.94,5.61-19.77,11.45c-3.26,1.93-6.5,3.89-9.75,5.84s-6.61,3.92-9.93,5.87-6.48,3.54-9.74,5.28a95.61,95.61,0,0,1-10.48,4.72,82.54,82.54,0,0,1-32.43,5.61c-3.61,0-7.22-.09-10.82,0-3.8.09-7.59.2-11.38.31-.92,0-1.85,0-2.77,0a18.15,18.15,0,0,1-2.33-.33,6.22,6.22,0,0,1-1.75-.72,7.1,7.1,0,0,1-1.52-1.08,10.5,10.5,0,0,1-2.82-8.56,30.59,30.59,0,0,1,3.35-10.65,69.76,69.76,0,0,1,8.08-12.13c3.25-4.09,6.8-7.94,10.28-11.83,2.31-2.58,4.75-5.06,7.13-7.57,1.33-1.42,2.76-2.76,4.14-4.14,1.08-1.07,2.15-2.15,3.26-3.19l5.19-4.79c1.31-1.21,2.72-2.32,4.08-3.46,1.14-1,2.26-1.92,3.43-2.83l5.52-4.28c2.73-2.12,5.52-4.19,8.27-6.3l9.79-7.54c5.9-4.56,11.91-9,17.85-13.45,2.76-2.07,5.45-4.25,8.15-6.4s5.45-4.33,8.09-6.58l.53-.46,1.14-1.13-1.32-.28c-.74-.1-1.49-.17-2.24-.21a68.47,68.47,0,0,0-8.23.32c-5.46.62-10.9,1.56-16.33,2.41-3.78.6-7.57,1.17-11.36,1.76q-11.33,1.74-22.66,3.53c-3.69.57-7.4,1-11.1,1.52s-7.36.76-11,1.11c-7.17.66-14.38,1-21.59,1.25s-14.71.44-22.07.42c-3.9,0-7.8,0-11.71-.1-1.88,0-3.76,0-5.64-.13l-6.38-.32c-1.59-.08-3.18-.27-4.76-.43l-2.43-.24c-1-.11-2.07-.36-3.09-.54-.79-.14-1.61-.22-2.38-.42l-2.84-.73c-1.14-.29-2.25-.64-3.37-1a14.69,14.69,0,0,1-2.48-1.06,13.93,13.93,0,0,1-2.74-1.83,12.11,12.11,0,0,1-3-3.85,13.17,13.17,0,0,1-1.17-4.17,13.77,13.77,0,0,1,0-3c.13-1,.27-1.79.48-2.72a24.4,24.4,0,0,1,2.34-5.73,36.54,36.54,0,0,1,3.38-5.09,46.16,46.16,0,0,1,4.46-4.92,55.6,55.6,0,0,1,11.94-8.66,84.49,84.49,0,0,1,10.07-4.81l6.21-2.45c1.59-.62,3.22-1.11,4.83-1.66s3.06-1,4.61-1.51q5.91-1.82,11.84-3.58c3.49-1,6.95-2.16,10.43-3.25,6.78-2.12,13.53-4.39,20.33-6.44,3.5-1,7-2.13,10.5-3.13q6-1.73,12-3.41c3.4-.94,6.81-1.89,10.17-3,1.92-.6,3.82-1.21,5.72-1.88,1.64-.57,3.27-1.18,4.89-1.78,2.4-.93,4.82-1.83,7.15-2.92.51-.29,1-.59,1.52-.9l0,0a15.6,15.6,0,0,0-1-1.43l.27.37c-.79-1-1.61-2-2.49-3-1.5-1.55-3.06-3-4.71-4.41-1.5-1.18-3-2.29-4.62-3.35a71.55,71.55,0,0,0-7.16-3.87c-5.41-2.45-11-4.32-16.64-6.28l-9.28-3.28-11.66-4.17c-3.1-1.1-6.21-2.18-9.27-3.38-3.6-1.41-7.19-2.84-10.68-4.49l-5.54-2.62c-1.73-.82-3.41-1.75-5.1-2.62s-3-1.71-4.55-2.57a64.41,64.41,0,0,1-9.17-6.37,69.74,69.74,0,0,1-8.89-9c-1.67-2-3.17-4.13-4.72-6.23-.92-1.24-1.79-2.5-2.65-3.78-1-1.54-2.11-3.08-3.11-4.66s-2.07-3.18-3-4.82-2.14-3.51-3.08-5.33a98,98,0,0,1-4.91-10.61,9.54,9.54,0,0,1-.85-4.3,7.77,7.77,0,0,1,1.46-3.73,8.42,8.42,0,0,1,3.56-2.52,23.08,23.08,0,0,1,6.28-1.48A83.19,83.19,0,0,1,1057,586l7.39,0c1.44,0,2.89.11,4.33.19l3.91.2c.67,0,1.35,0,2,.11l6.24.75c1.47.17,2.93.33,4.38.61,3.63.69,7.28,1.28,10.86,2.16l8.34,2c1.17.29,2.33.65,3.49,1l5.22,1.47c4.88,1.37,9.72,2.87,14.59,4.3q7,2.07,14.12,3.85c2.77.69,5.53,1.37,8.3,2,2.41.57,4.83,1,7.26,1.49,1.56.26,3.12.54,4.69.71v0l0-.58,0-1c-.11-.9-.25-1.77-.44-2.66s-.57-1.92-.9-2.88c-.55-1.36-1.15-2.68-1.81-4a67.81,67.81,0,0,0-3.69-6c-2-2.76-4.17-5.38-6.44-7.94-1.25-1.32-2.49-2.65-3.73-4s-2.26-2.33-3.42-3.48-2.28-2.33-3.47-3.44l-5.12-4.85c-5.37-5.08-11.08-9.81-16.72-14.59-2.54-2.15-5-4.37-7.48-6.67-1.36-1.27-2.76-2.52-4.08-3.84l-4.75-4.82c-1-1-2-2.08-2.94-3.12-1.35-1.47-2.73-2.91-4-4.4-2.65-3-5.27-6-7.84-9.11-2.16-2.57-4.29-5.18-6.3-7.87l-2.18-2.91c-.46-.62-1-1.24-1.4-1.89l-3.37-5.09c-.92-1.39-1.72-2.87-2.51-4.33a63.7,63.7,0,0,1-2.86-6,38.27,38.27,0,0,1-1.9-6.2,21.78,21.78,0,0,1-.31-6.74,16,16,0,0,1,.47-2.37,8.28,8.28,0,0,1,.81-2,18.55,18.55,0,0,1,1.39-2,13.26,13.26,0,0,1,1.56-1.53,7.14,7.14,0,0,1,1.86-1.15,20.94,20.94,0,0,1,2.32-.89,15.86,15.86,0,0,1,6.1-.39,20.24,20.24,0,0,1,2.79.44c1.27.26,2.48.6,3.72,1,2.26.72,4.47,1.59,6.65,2.5,3,1.24,5.86,2.65,8.79,4l5.76,2.62c1.76.8,3.57,1.49,5.36,2.24,3.43,1.42,6.89,2.76,10.35,4.11,1.49.58,3,1.23,4.42,1.85s3.08,1.25,4.57,2c2.83,1.4,5.71,2.72,8.48,4.24,2.92,1.6,5.85,3.19,8.74,4.86,6,3.51,12,7.12,18,10.77,5.36,3.29,10.82,6.38,16.37,9.32,3.11,1.65,6.25,3.24,9.4,4.83,2.53,1.28,5.1,2.45,7.66,3.65l6.58,2.78c.77.33,1.57.58,2.35.86l3.33,1.2c3.2.95,6.41,1.93,9.67,2.65a.14.14,0,0,1,0-.06,15.56,15.56,0,0,0,.57-1.62l-.18.57c.33-1.15.6-2.3.83-3.48a71,71,0,0,0,.72-7.14,80.73,80.73,0,0,0-.31-9.2c-.35-3.33-.83-6.64-1.5-9.93l-1.23-6c-.54-2.15-1.09-4.31-1.64-6.46-.48-1.88-1.07-3.72-1.65-5.58-.52-1.7-1-3.41-1.62-5.08l-2.4-6.43c-1.38-3.14-2.71-6.3-4.2-9.39-1.77-3.65-3.53-7.3-5.31-10.94-3.3-6.79-6.43-13.66-9.54-20.54q-2.07-4.56-4.1-9.12c-1.57-3.49-3.15-7-4.65-10.49-.88-2.09-1.77-4.17-2.66-6.26-.67-1.58-1.23-3.22-1.84-4.82-.39-1.06-.8-2.12-1.2-3.18-.19-.49-.4-1-.56-1.49-.72-2.26-1.43-4.53-2.14-6.79s-1.3-4.7-1.84-7.08a64.82,64.82,0,0,1-1.66-13.22c0-1.88,0-3.76.16-5.63.12-2.1.26-4.21.49-6.3,0-.54.11-1.08.19-1.62a8.46,8.46,0,0,1,.52-1.76,4.36,4.36,0,0,1,.84-1.32,6.71,6.71,0,0,1,1.35-1.26,5.62,5.62,0,0,1,2.7-.94,3.86,3.86,0,0,1,1.07.12,5.58,5.58,0,0,1,1.84.54,19.66,19.66,0,0,1,3.55,2.38c1.83,1.59,3.5,3.35,5.2,5.08,3.38,3.46,6.5,7.17,9.67,10.82.59.68,1.2,1.34,1.75,2.05q1.91,2.47,3.83,4.94l2.83,3.65c.76,1,1.45,2,2.17,3.06q5.68,8.06,11.34,16.13c4.56,6.26,9.2,12.46,13.86,18.65,2.24,3,4.56,5.91,6.85,8.87,1,1.29,2.07,2.51,3.11,3.75,1.57,1.88,3.12,3.77,4.77,5.58,1.23,1.31,2.48,2.6,3.77,3.86,1.78,1.74,3.67,3.35,5.57,4.94l-.33-.28,5.46,4.23c.68.52,1.42,1,2.13,1.44l3,2.08c2.07,1.26,4.17,2.44,6.36,3.5,1.48.67,3,1.26,4.51,1.78,1.06.3,2.12.56,3.2.79a38.24,38.24,0,0,0,3.84.44,19.14,19.14,0,0,0,2.27-.08,11.22,11.22,0,0,0,1.16-.19l.62-.2.44-.21.42-.27.4-.33.52-.58.6-.81a15.61,15.61,0,0,0,.79-1.45c.39-.91.74-1.83,1.06-2.78.38-1.35.7-2.7,1-4.07a81.68,81.68,0,0,0,.9-9.23c0-1.37.1-2.75,0-4.11,0-1-.07-2-.12-3-.06-1.52,0-3.08-.18-4.6l-.6-6.35c-.18-1.89-.46-3.77-.71-5.66-.2-1.58-.4-3.16-.68-4.73l-1.17-6.65c-.41-1.63-.81-3.26-1.22-4.9-.36-1.46-.69-2.92-1.13-4.36-1.14-3.74-2.26-7.47-3.52-11.17s-2.58-7.62-3.85-11.43c-.43-1.31-.88-2.6-1.24-3.93l-1.8-6.67c-.17-.62-.28-1.26-.4-1.89l-.72-3.8a69.37,69.37,0,0,1-1.17-10.55,42.14,42.14,0,0,1,1.5-12.29,33.57,33.57,0,0,1,5.43-11.14,20,20,0,0,1,1.54-1.78,10,10,0,0,1,1.69-1.49,13.28,13.28,0,0,1,2.23-1.26,8,8,0,0,1,1.86-.56,11.51,11.51,0,0,1,4.71.16c.93.26,1.75.53,2.66.87a16.69,16.69,0,0,1,3,1.57c1,.66,2,1.34,3,2.09.78.61,1.5,1.28,2.23,1.94a54.63,54.63,0,0,1,4.61,4.89,64.56,64.56,0,0,1,4,5.2c1,1.47,2,2.94,3,4.47,6.1,9.89,12.08,19.89,17.63,30.1,2.8,5.14,5.58,10.28,8.41,15.4,1.13,2.05,2.3,4.1,3.53,6.09.78,1.27,1.52,2.56,2.35,3.8l2.63,4c2.36,3.28,4.76,6.53,7.1,9.82s4.39,6.61,6.48,10,4.2,6.88,6.11,10.44c1.11,2.06,2.14,4.16,3.16,6.27,1.46-3.53,3-7,4.56-10.5,1.93-4.27,3.93-8.5,6-12.68q3.62-7.11,7.11-14.26c1.4-3.09,2.83-6.16,4.12-9.3q2.34-5.73,4.59-11.49c2.55-6.48,5.29-12.9,8.27-19.18,1.74-3.67,3.49-7.33,5.31-11s3.63-7.06,5.48-10.57c3.35-6.34,6.92-12.57,10.52-18.78a190.73,190.73,0,0,1,11.63-18,22.39,22.39,0,0,1,2.56-2.94,9.62,9.62,0,0,1,1.71-1.34,7.82,7.82,0,0,1,1.82-.93,9,9,0,0,1,2.11-.44,8.57,8.57,0,0,1,2.26.19,6.45,6.45,0,0,1,1.78.69c.37.22.73.44,1.09.68s.8.67,1.2,1a12.43,12.43,0,0,1,1.69,2c.52.69,1,1.43,1.42,2.16a19.46,19.46,0,0,1,2,4.73,30.45,30.45,0,0,1,1,5.76,46.48,46.48,0,0,1,.23,6.13c-.07,1.85-.1,3.7-.24,5.54s-.3,3.72-.52,5.58c-.43,3.58-.92,7.16-1.44,10.74-1.05,7.16-2.09,14.34-3.17,21.5-1,6.3-2,12.6-2.7,18.94-.32,3.07-.68,6.14-.84,9.22-.16,3.31-.32,6.62-.46,9.93s-.26,6.83-.29,10.24,0,7.11.07,10.67c.16,7.15.41,14.3,1,21.44a76.83,76.83,0,0,0,1.21,8c.09.34.19.67.29,1v0h0a4.92,4.92,0,0,0,.45.24l.35.14.22.06h.43l-.37,0h-.11l-.08,0h0l.08,0-.29,0,.31,0,.13.06-.12-.06c.41,0,.83-.09,1.24-.17s1.06-.31,1.57-.49c1.26-.5,2.47-1.06,3.68-1.67,2.3-1.26,4.54-2.61,6.71-4.08,1.83-1.24,3.64-2.5,5.45-3.78,2.88-2.1,5.72-4.22,8.49-6.45s5.43-4.51,8.07-6.86c5.73-5.11,11.46-10.22,17.27-15.25q7.89-6.83,15.57-13.9c5.42-5,10.8-10.06,16.29-15q8.85-8,17.85-15.86c5.23-4.59,10.58-9.05,16.08-13.32l2-1.51c.48-.37,1-.7,1.49-1l.48-.26c.46-.21.93-.4,1.41-.58a44.1,44.1,0,0,1,7.06-1,8.15,8.15,0,0,1,3.56.59,5.9,5.9,0,0,1,1.54.84,8.72,8.72,0,0,1,1.36,1.21,9.93,9.93,0,0,1,2.11,3.76,24.18,24.18,0,0,1,.61,2.93,16.7,16.7,0,0,1,.1,3,45.85,45.85,0,0,1-2.9,12.75c-.83,2.38-1.9,4.67-2.9,7-.72,1.66-1.6,3.25-2.39,4.86s-1.84,3.36-2.77,5c-.79,1.44-1.7,2.82-2.55,4.22s-1.59,2.51-2.4,3.76c-1.71,2.66-3.51,5.26-5.3,7.87-3.78,5.48-7.43,11-11,16.65q-3.66,5.85-7.2,11.77c-2.38,4-4.71,8.07-7.07,12.1-2.21,3.77-4.52,7.49-6.8,11.21s-4.55,7.84-6.6,11.87c-1.19,2.59-2.26,5.23-3.24,7.91-1,2.85-2.1,5.7-3.06,8.59-.26,1-.5,2.07-.71,3.13-.11.66-.2,1.32-.28,2a1.36,1.36,0,0,1,0,.2l.09.09.32.22.52.28.74.3-.55-.17a13.45,13.45,0,0,0,1.65.46l1.07.12-.6,0a15.14,15.14,0,0,0,2.13,0,17.84,17.84,0,0,0,1.78-.29c1.15-.29,2.27-.64,3.38-1a99.34,99.34,0,0,0,10-4.83c6.38-3.61,12.74-7.27,19-11,6.57-4,13-8.09,19.43-12.3,3-2,6-4.08,9.07-6.13s6.14-4,9.26-6,6.2-3.68,9.34-5.46q4.46-2.54,9-4.91c3.17-1.66,6.35-3.3,9.57-4.85s6.54-3.1,9.94-4.34c2.38-.86,4.84-1.68,7.41-1.4a13.84,13.84,0,0,1,3.58.85,7.17,7.17,0,0,1,1.9,1c.44.33.87.67,1.28,1l1.07,1.15a8.63,8.63,0,0,1,1.79,3.82,12.19,12.19,0,0,1,.07,4.26,19.19,19.19,0,0,1-1.49,4.85,38.3,38.3,0,0,1-3.6,6.32,83.85,83.85,0,0,1-5.17,6.72c-1.09,1.34-2.19,2.68-3.32,4-2.37,2.74-4.75,5.46-7.19,8.13-4.89,5.39-9.81,10.76-14.92,15.95-2.71,2.75-5.4,5.5-8.1,8.25-2.38,2.43-4.6,5-6.83,7.56l-2.88,3.63c-1,1.31-2,2.7-3,4-1.84,2.49-3.61,5-5.4,7.56-3.26,4.59-6.46,9.2-9.5,13.93-1.7,2.74-3.46,5.47-4.91,8.35,0,.17-.1.33-.16.49s-.07.35-.1.53v0l.26.1a9.81,9.81,0,0,0,1,.25,14.32,14.32,0,0,0,1.45.17c1,0,2,0,3-.1,1.45-.15,2.9-.33,4.34-.55s3.08-.57,4.62-.88l-.6.14c3.51-.81,7-1.61,10.5-2.52q6-1.54,11.88-3.17c3.14-.86,6.26-1.8,9.38-2.7,1.82-.52,3.63-1.09,5.46-1.57l6.61-1.72c1.42-.37,2.85-.67,4.28-1,1.81-.39,3.61-.84,5.43-1.15l6-1c.8-.14,1.63-.19,2.43-.28l3.66-.41c1.83-.21,3.69-.29,5.52-.43s3.62-.2,5.43-.3c3.43-.18,6.87-.24,10.3-.34s6.91-.19,10.37-.21c1.48,0,3,0,4.44.16a20.23,20.23,0,0,1,2.55.42,5.08,5.08,0,0,1,2.92,1.89,5.31,5.31,0,0,1,1,3.21,7.23,7.23,0,0,1-.81,3.28,28.91,28.91,0,0,1-5.89,7.67c-.59.58-1.16,1.19-1.79,1.73l-2.4,2.05c-1.31,1.14-2.76,2.13-4.14,3.18s-3,2.1-4.44,3.14-3,2.12-4.53,3.19c-3.18,2.25-6.34,4.49-9.56,6.68-2.94,2-5.94,3.9-8.94,5.8-2.85,1.81-5.75,3.55-8.55,5.44-2.14,1.44-4.25,2.91-6.36,4.4-2.58,1.86-5.15,3.75-7.82,5.46-1.55,1-3.09,2-4.68,2.88s-3.1,1.78-4.66,2.65c-3.13,1.73-6.24,3.48-9.33,5.3q-4.36,2.58-8.54,5.47c-2.56,1.87-5.09,3.76-7.57,5.74q-2.19,1.74-4.36,3.5c-1.44,1.16-2.91,2.29-4.29,3.52l-.29.3-.07.08a.43.43,0,0,0,0,.07v.08c0,.12,0,.23,0,.34s0,.36.07.55.11.42.17.63c-.07-.16-.13-.33-.19-.49a14.46,14.46,0,0,0,.66,1.57c.46.79.94,1.55,1.46,2.29.78,1,1.6,2,2.46,3,2.33,2.45,4.87,4.69,7.41,6.93,1.6,1.41,3.2,2.83,4.82,4.22q5.34,4.62,10.74,9.16c5.71,4.72,11.46,9.4,17.07,14.25s11,10.16,16.24,15.45c2.47,2.46,4.94,4.94,7.44,7.37,2.72,2.64,5.5,5.22,8.27,7.8,2.48,2.29,4.93,4.64,7.18,7.16,1.25,1.4,2.51,2.79,3.72,4.23s2.41,2.93,3.58,4.43c.69.88,1.36,1.77,2,2.67a15.6,15.6,0,0,1,1.32,2,30,30,0,0,1,1.46,3.22,9.06,9.06,0,0,1,.9,4.21,3.51,3.51,0,0,1-.22.89,5.86,5.86,0,0,1-.54,1.5,9.32,9.32,0,0,1-1.85,2.34,16.92,16.92,0,0,1-5.75,3.54,36.32,36.32,0,0,1-6.16,1.64c-1.25.23-2.5.38-3.76.52s-2.55.14-3.81.2-2.57,0-3.84,0-2.36-.15-3.55-.25-2.28-.18-3.41-.35l-4.49-.67c-1.24-.19-2.48-.48-3.72-.72-1.08-.21-2.17-.43-3.25-.66-2.66-.56-5.33-1.1-8-1.64s-5.27-.82-7.93-1.11l-4.6-.49c-1.58-.17-3.15-.43-4.73-.65-1.28-.17-2.55-.43-3.82-.66s-2.62-.47-3.92-.73q-4.61-.95-9.23-1.81c-2.65-.44-5.31-.86-8-1.22s-5.31-.59-8-.92c-3.93-.47-7.86-1-11.81-1.37.16.56.33,1.11.52,1.67a49.84,49.84,0,0,0,2.2,4.82,101.84,101.84,0,0,0,6.17,9.61c2,2.7,4,5.39,6.1,8.07,2.33,3.05,4.67,6.09,6.92,9.21l3.9,5.42c1,1.39,1.91,2.85,2.86,4.29s2,2.85,2.85,4.33l3.56,5.89c3.61,6,7,12.07,10.45,18.15,2,3.55,4,7.09,5.95,10.66.76,1.39,1.55,2.77,2.27,4.18,1.1,2.14,2.19,4.28,3.29,6.41,1.64,3.22,3.14,6.51,4.69,9.77.79,1.68,1.5,3.39,2.25,5.08s1.37,3.15,2,4.74c3,7,5.78,14.1,8.59,21.18,1.34,3.35,2.59,6.74,3.84,10.12.63,1.72,1.23,3.45,1.86,5.17a12.35,12.35,0,0,1,.77,2.64,9.76,9.76,0,0,1,.14,2.09,6.89,6.89,0,0,1-1.72,3.91,8.48,8.48,0,0,1-3.33,2.12,17.7,17.7,0,0,1-2.48.64,15,15,0,0,1-3.14.13,34.06,34.06,0,0,1-5.68-.79,44.88,44.88,0,0,1-4.58-1.25c-1.65-.51-3.28-1-4.89-1.63s-3.35-1.24-5-2l-3.31-1.49c-.69-.3-1.4-.59-2.07-.93l-5.56-2.86c-1.61-.82-3.15-1.79-4.71-2.69s-3.27-1.92-4.91-2.89c-2.9-1.72-5.77-3.47-8.61-5.3-1.36-.88-2.76-1.72-4.08-2.66l-5.86-4.18c-2.86-2-5.6-4.24-8.39-6.38s-5.31-4.23-8-6.37q-4.53-3.66-9-7.37c-3-2.52-5.93-5.22-8.81-7.93-4-3.76-7.85-7.68-11.74-11.56q-2.4-2.4-4.81-4.77c0,1.77.07,3.54.1,5.31s.16,3.31.25,5,.15,3.21.27,4.82c.55,7.47,1.17,14.94,1.65,22.42.5,7.69,1,15.38,1.35,23.08l.24,6.38c.07,2.07,0,4.15,0,6.21,0,3.32-.15,6.65-.3,10-.37,7.65-.59,15.31-1.09,23-.12,1.79-.32,3.56-.53,5.34s-.61,3.8-1,5.7a85.13,85.13,0,0,1-2.62,10c-.36,1.11-.72,2.23-1.1,3.33a15.68,15.68,0,0,1-2,3.77,8.18,8.18,0,0,1-2.63,2.3,9.53,9.53,0,0,1-1.79.71,6.42,6.42,0,0,1-1.39.24,4.19,4.19,0,0,1-1.12,0l-1.22-.13a7.42,7.42,0,0,1-1.72-.46,13.24,13.24,0,0,1-2-.89,15,15,0,0,1-2.3-1.59,19.18,19.18,0,0,1-1.89-1.71,29.1,29.1,0,0,1-3.46-4.14c-1.52-2.13-2.88-4.34-4.18-6.61-1-1.69-1.83-3.45-2.73-5.17-.82-1.54-1.52-3.14-2.25-4.72-1.41-3.06-2.73-6.17-3.92-9.31-2.2-5.77-4.38-11.56-6.7-17.28-2.4-5.93-4.93-11.79-7.52-17.64-2.32-5.27-4.7-10.52-7-15.79-2.2-5-4.43-10-7-14.85-.23,2.49-.38,5-.54,7.5-.18,2.77-.35,5.54-.53,8.31q-.53,8.29-1.07,16.58c-.36,5.67-.67,11.34-1,17-.27,5-.44,9.93-.64,14.89q-.36,11.52-.79,23c-.14,3.59-.39,7.17-.6,10.76-.09,1.62-.26,3.24-.4,4.85s-.26,3.33-.46,5l-.75,6.25c-.22,1.82-.59,3.64-1,5.44a45.88,45.88,0,0,1-2.16,7.44,20.07,20.07,0,0,1-2.76,4.82,12.27,12.27,0,0,1-3.34,3c-.73.43-1.42.8-2.18,1.16a12.86,12.86,0,0,1-2.42.77,13.84,13.84,0,0,1-2.86.37A23.57,23.57,0,0,1,1454.75,972.35Z"/><path d="M1266.55,607.71c0,.15-.12.29-.18.45s-.1.3-.14.45c.28-.21.57-.41.88-.6a12,12,0,0,1,1.24-2.42l-.1.07,0,0a4.6,4.6,0,0,0-.68.56l.14-.13-.32.34a6.41,6.41,0,0,0-.45.58h0C1266.83,607.21,1266.69,607.45,1266.55,607.71Zm10.35,5c-.12.33-.25.66-.39,1l.08,0c.23-.12.45-.25.67-.38l.33-.26.14-.14.07-.1,0-.08s0-.07,0-.11l.09-.31,0-.15v0l0-.1a2.41,2.41,0,0,0-.15-.33c-.14-.28-.3-.55-.46-.81A11.75,11.75,0,0,1,1276.9,612.69Zm-7,8.57a13.42,13.42,0,0,1-2.32-1.28,8.91,8.91,0,0,1-2.34-2.07,6.52,6.52,0,0,1-1.21-2.28,7,7,0,0,1-.11-3.36,1.57,1.57,0,0,1-.57-.72c-.84-2.48.25-5.15,1.83-7.09a7.45,7.45,0,0,1,3.29-2.29,7.28,7.28,0,0,1,4.16-.14l.35.1.5-.1a8.17,8.17,0,0,1,5.19.75,13.26,13.26,0,0,1,4.6,4,9.81,9.81,0,0,1,2.09,5,8.58,8.58,0,0,1-1.09,4.91,11.91,11.91,0,0,1-8.83,5.43,7.26,7.26,0,0,1-.93.06A13.58,13.58,0,0,1,1269.88,621.26Z"/><path d="M1346.92,619.05a10.69,10.69,0,0,1-4.41-6.34,10.49,10.49,0,0,1,1-7.35,12.73,12.73,0,0,1,6.42-5.66,11,11,0,0,1,3.15-.84,9.8,9.8,0,0,1,3.45-1.41,7.41,7.41,0,0,1,5.94,1.48,10.35,10.35,0,0,1,3.31,5.15,11.32,11.32,0,0,1,.35,3.62,12.1,12.1,0,0,1-.86,3.93,14,14,0,0,1-1.73,3.06,11.67,11.67,0,0,1-2.4,2.51,19.66,19.66,0,0,1-3,2,10.54,10.54,0,0,1-5.47,1.48A10.25,10.25,0,0,1,1346.92,619.05Z"/><path d="M1266.67,746.14a3.79,3.79,0,0,1-1.84-3.8c.15-.92.29-1.82.38-2.76,0-.56.11-1.13.16-1.69.06-2.16.18-4.32.12-6.47-.07-3.15-.08-6.31-.28-9.45h0c0-.07,0-.14,0-.2a.43.43,0,0,0,0,0h0c-.21-3.1-.46-6.2-.85-9.29s-.92-6.14-1.53-9.18h0a98,98,0,0,0-3-11.43l0,.14c-.37-1-.79-2.06-1.19-3.09-.34-.85-.62-1.72-1-2.56a6.49,6.49,0,0,0-.44-.76,3.66,3.66,0,0,0-.32-.39l.07.08-.17-.16-.16-.12-.14-.09-.15,0-.12,0c-.06.13-.11.26-.16.4s-.11.46-.16.7v0c-.25,1.25-.42,2.53-.55,3.79-.09.84-.17,1.68-.26,2.51a7.92,7.92,0,0,1-1,3.74c-.24.38-.85,0-.6-.35.1-.16.21-.32.3-.48l0,0a3.88,3.88,0,0,0,.23-.56h0c0-.13.07-.25.1-.38h0c.33-1.65.4-3.33.61-5,.18-1.38.36-2.77.65-4.14a1.4,1.4,0,0,1,.27-1.2,1.89,1.89,0,0,1,1.65-.28,3.93,3.93,0,0,1,1.71,1.55,22.88,22.88,0,0,1,1.57,2.93l-.06-.11a58.26,58.26,0,0,1,3.55,8.93c1.17,3.57,2.11,7.19,2.93,10.85a167.56,167.56,0,0,1,2.79,16.82c.31,2.65.6,5.3,1,8l.06.46h.12a4.4,4.4,0,0,1,2.85,1.66,4.28,4.28,0,0,1,.75,3.81c-.39,1.23-.75,2.46-1.13,3.7a9.56,9.56,0,0,1-.87,2.12,5.09,5.09,0,0,1-1.6,1.6,4.14,4.14,0,0,1-1.81.75,2.74,2.74,0,0,1-.5,0A3.85,3.85,0,0,1,1266.67,746.14Z"/><path d="M1278.52,762.25a23.59,23.59,0,0,1-7-2.46,23.05,23.05,0,0,1-2.78-1.84,14,14,0,0,1-2.39-2.41,6.45,6.45,0,0,1,9.67-8.51l.29.29a2.31,2.31,0,0,0,.19.14c.58.37,1.18.72,1.79,1l1,.39c.55.17,1.1.32,1.66.46s1.27.2,1.91.26c1.25,0,2.48,0,3.73,0,2.63-.2,5.23-.49,7.84-.91,2.84-.45,5.68-.94,8.52-1.38s5.89-.95,8.84-1.39c3.22-.47,6.45-.77,9.68-1a168.75,168.75,0,0,1,31.3.79l8.4,1c1.48.17,3,.31,4.44.54,2.63.4,5.25.82,7.88,1.23,3.23.5,6.46,1.13,9.71,1.44.7,0,1.39,0,2.09,0,.2-4,.3-8,.43-12,.08-2.44.11-4.88.28-7.32.2-2.8.4-5.59.59-8.39.13-1.81.43-3.6.69-5.4l.66-4.63c.14-1,.26-2,.48-2.92.55-2.46,1.09-4.91,1.64-7.36.37-1.68.7-3.38,1.17-5,1-3.49,2-7,2.94-10.47.3-1.1.68-2.19,1-3.27-1.92.64-3.85,1.23-5.8,1.74-4.56,1.17-9.09,2.38-13.61,3.68-2.15.62-4.29,1.29-6.44,1.93a112.46,112.46,0,0,1-17.95,3.92c-7.11.92-14.3.8-21.45.87-2.12,0-4.23,0-6.35,0-1.92,0-3.85,0-5.77-.06-4.44-.09-8.89-.16-13.34-.3-4.65-.16-9.3-.29-14-.51q-7.45-.36-14.89-.77l-3.67-.2c-1.54-.09-3.08-.18-4.63-.22-.76,0-1.51,0-2.26-.06-.48,0-1,0-1.44,0s-1,0-1.43,0-.74.05-1.12.06v0a1.86,1.86,0,0,1-1.79-2.33,2.64,2.64,0,0,1,.9-1.62,11.63,11.63,0,0,1,1.37-.91,7.45,7.45,0,0,1,1.32-.49,20.3,20.3,0,0,1,4-.8c1.66-.19,3.36-.37,5-.41,2.54-.07,5.09-.12,7.63-.18,4.58-.11,9.17-.14,13.75-.19,8.45-.1,16.92-.3,25.36-.61,3.7-.14,7.4-.21,11.09-.41,3.43-.2,6.86-.37,10.3-.56a118,118,0,0,0,12.57-1.62c2.17-.46,4.32-1,6.47-1.56,2.35-.64,4.66-1.43,7-2.19,3.79-1.31,7.58-2.62,11.38-3.89,3.21-1.07,6.49-1.93,9.71-3,1.7-.6,3.38-1.19,5-1.85s3.36-1.36,5-2l3.12-1.23a23.32,23.32,0,0,1,2.25-.82,7.43,7.43,0,0,1,4.81.3,7.33,7.33,0,0,1,3,2.23,7,7,0,0,1,1.17,2.33,6.24,6.24,0,0,1,.37,2.22L1412,675c-.13.68-.27,1.35-.41,2a33.31,33.31,0,0,1-1.26,4.13c-1,2.89-1.88,5.82-2.82,8.73-.25.78-.45,1.57-.66,2.36l-1.56,5.61-1,3.51c-.26.92-.41,1.87-.62,2.8-.6,2.72-1.18,5.44-1.79,8.16q-.75,5.28-1.48,10.56c-.06.42-.07.85-.1,1.27l-.24,3.56c-.1,1.42-.2,2.84-.29,4.26-.14,4.42-.2,8.85-.37,13.26-.1,2.52-.17,5-.45,7.54a15.68,15.68,0,0,1-1.13,4.35,7.91,7.91,0,0,1-2.66,3.29,11.62,11.62,0,0,1-4.85,1.84,32.89,32.89,0,0,1-8.41.2c-2.52-.2-5-.74-7.49-1.13L1366,760c-4.6-.72-9.24-1.16-13.86-1.69-3-.34-6-.59-9-.8a154,154,0,0,0-19.69,0c-2.25.16-4.49.36-6.73.63-2.69.32-5.36.78-8,1.23s-5.29.85-7.93,1.31-5.11.92-7.68,1.29c-2.31.33-4.66.54-7,.67q-1.11.06-2.22.06A28.72,28.72,0,0,1,1278.52,762.25Z"/><path d="M1285.59,724.49a30.4,30.4,0,0,1-4-.44c-1-.21-2-.49-3-.78-.51-.15-1-.32-1.51-.49-.8-.27-1.63-.47-2.42-.76a.56.56,0,0,1-.07-1,8.69,8.69,0,0,1,1.62-.86c1-.31,2-.57,3-.79,2.09-.46,4.21-.77,6.33-1s4.47-.51,6.72-.63l11.2-.55c.73,0,1.45,0,2.17,0l6.13,0c2.57,0,5.14-.05,7.71,0l11.61.22c5.44.1,10.88,0,16.31-.31s11.13-1.23,16.64-2.11c2.78-.45,5.56-1,8.35-1.32s5.81-.76,8.72-1.08c3.15-.34,6.29-.68,9.44-1.1a5.12,5.12,0,0,1,4.31,8.69,5.25,5.25,0,0,1-4.31,1.45c-.78-.09-1.56-.15-2.34-.21-2.63-.12-5.26-.16-7.9-.19-1.29,0-2.6.1-3.9.14s-2.65.11-4,.15c-3.14.26-6.28.55-9.42.82q-4.27.38-8.57.64c-4.42.27-8.84.27-13.27.14-7.47-.24-14.92-.93-22.38-1.45-5-.27-10-.5-15-.78-.61,0-1.22,0-1.83,0h-.87l-5.47-.06-4.23,0c-2.42,0-4.85.11-7.27.26h.16c-1.39.1-2.78.22-4.17.34s-2.57.33-3.85.53a45.16,45.16,0,0,0,5.44,1.6,37.73,37.73,0,0,0,4,.43c.44,0,.36.69-.06.69Z"/><path d="M1369.7,744.61a2.51,2.51,0,0,1-.7-2.08c.14-1.62.27-3.24.41-4.86.21-3.42.4-6.83.48-10.25.1-3.84.19-7.67.24-11.5,0-3.28.08-6.55.07-9.83,0-2,0-4.07,0-6.1,0-.55,0-1.11,0-1.66s0-1.13,0-1.69a2.29,2.29,0,0,1,.09-.94.94.94,0,0,1,.61-.54.7.7,0,0,1,.29,0h.07a.91.91,0,0,1,.73.56,2.46,2.46,0,0,1,.11.94c0,.67.07,1.34.1,2s0,1.13.07,1.7c.09,2.43.17,4.87.25,7.3.13,3.75.2,7.5.29,11.25.07,3.05.16,6.11.25,9.16.09,3.21.28,6.42.48,9.61.14,1.73.27,3.46.35,5.19a2.46,2.46,0,0,1-4.2,1.75Z"/><path d="M1350.48,751.76c0-2.38.18-4.75.23-7.14,0-2.17.13-4.35.13-6.52q0-7,0-14c0-3.37,0-6.74.1-10.1q0-3.64.11-7.29c0-.75,0-1.49,0-2.23,0-1.28,0-2.56.09-3.83a17.7,17.7,0,0,1,.24-1.78,9.45,9.45,0,0,1,.6-1.69,1.5,1.5,0,0,1,2.66-.17,4,4,0,0,1,.37.81,1.53,1.53,0,0,1-.75,1.74c-.08.48-.14,1-.18,1.45-.08,1.57-.06,3.15-.07,4.72l0,4.27c0,1.87,0,3.75,0,5.62,0,2.18,0,4.36.06,6.53.07,2.35.13,4.7.21,7,.25,6.7.35,13.41.71,20.1.09.71.21,1.42.33,2.13a2.45,2.45,0,0,1-2.08,2.73,1.67,1.67,0,0,1-.32,0A2.44,2.44,0,0,1,1350.48,751.76Z"/><path d="M1335.53,751a29.37,29.37,0,0,1-1.86-7.85,63.66,63.66,0,0,1-.42-8.05q0-3.57.08-7.15c.06-4.59.23-9.19.35-13.78,0-1.61.12-3.22.25-4.82s.5-3.4.77-5.09a1.18,1.18,0,0,1,1.15-1,6.76,6.76,0,0,1,.9,0,2,2,0,0,1,.82.33,3.94,3.94,0,0,1,1.07,1.32l.61.78a1.17,1.17,0,0,1-1.85,1.43c-.22-.29-.43-.59-.63-.89-.14,1-.28,2-.35,3.09v-.07c-.2,3.22-.13,6.45-.09,9.68,0,2.3.05,4.6.08,6.89,0,1.21.07,2.41.12,3.62.08,1.84.14,3.67.24,5.5a64,64,0,0,0,.84,6.49,35.49,35.49,0,0,0,1.08,4.08c.3.84.62,1.67,1,2.48l.4.72a2.58,2.58,0,0,1-.92,3.49,2.49,2.49,0,0,1-1.26.34A2.57,2.57,0,0,1,1335.53,751Z"/><path d="M1320.6,751.37a7.72,7.72,0,0,1-.83-1.68,16.82,16.82,0,0,1-.41-1.84,18.38,18.38,0,0,1-.23-2c-.06-.76-.11-1.51-.15-2.27-.06-1.38-.07-2.75-.09-4.13,0-2.21,0-4.41-.07-6.62,0-3.73-.09-7.46-.09-11.2s0-7.72,0-11.57c0-1.72,0-3.44.08-5.16,0-1.05,0-2.1,0-3.15,0-1.55.11-3.09.18-4.64a1,1,0,0,1,2-.14,13.53,13.53,0,0,1,.18,1.67v-.08c.2,2,.43,4,.65,6a1,1,0,0,1-.71,1.08v.16c0,1.61,0,3.23.1,4.84.14,4,.22,7.9.42,11.84.18,3.43.37,6.85.54,10.27a115.93,115.93,0,0,0,1.24,12.06c.16.74.34,1.46.57,2.18.1.28.22.56.34.83l0,.09c.14.18.3.36.45.54a2.62,2.62,0,0,1-.47,3.64,2.55,2.55,0,0,1-1.55.53A2.68,2.68,0,0,1,1320.6,751.37Z"/><path d="M1306.46,753a2.62,2.62,0,0,1-1.46-1.66,35.52,35.52,0,0,1-1-6.57c-.13-1.15-.27-2.3-.38-3.45-.13-1.44-.27-2.88-.4-4.32-.08-.82-.16-1.63-.23-2.45,0-.32-.07-.64-.09-1h0v0a.86.86,0,0,1,0-.15v.08s0,0,0,.08,0,0,0-.06h0q-.4-5.79-.79-11.57h0c-.08-1-.06-2.08-.09-3.12l-.15-6.24-.09-3.67c0-.82,0-1.65,0-2.48,0-1.13,0-2.27.11-3.4.06-1,.15-1.91.27-2.87a27.18,27.18,0,0,1,.68-2.8.69.69,0,0,1,1.2-.23,8.77,8.77,0,0,1,.64,1c.18.31.3.66.45,1,1,1.81,1.94,3.57,3,5.33a.68.68,0,1,1-1.17.68c-.66-1.16-1.3-2.33-1.94-3.5-.41-.75-.77-1.53-1.14-2.3a21.87,21.87,0,0,0-.29,2.55v0c-.14,2.36-.09,4.73,0,7.09.15,2.1.21,4.2.32,6.3s.22,4.32.32,6.47c.38,3.61.78,7.21,1.17,10.81.12,1.09.31,2.17.49,3.26.29,1.7.53,3.43.85,5.13.22.87.43,1.75.65,2.62.12.5.25,1,.37,1.5s.36,1.19.56,1.78l-.09-.25a16.68,16.68,0,0,0,.7,1.69l.21.39.42.52a2.56,2.56,0,0,1-.72,3.74,2.67,2.67,0,0,1-1.29.34A2.55,2.55,0,0,1,1306.46,753Z"/><path d="M1294.77,755.31a2.62,2.62,0,0,1-2-1.31,109.44,109.44,0,0,1-4.64-11.06c-.71-1.85-1.33-3.75-1.93-5.63-.79-2.47-1.49-5-2.16-7.46-1.33-5-2.43-10.12-3.33-15.24-.5-2.89-.93-5.8-1.23-8.72-.15-1.39-.26-2.79-.34-4.19,0-.73-.08-1.46,0-2.19s.08-1.32.13-2v0a1.93,1.93,0,0,1,0-.24.72.72,0,0,1,1.41-.19c0,.12,0,.24.07.37.1.4.16.81.23,1.21.22.75.43,1.5.69,2.23l0-.07a18.65,18.65,0,0,0,.78,1.91c.16.32.34.64.53.94l.12.19h0l.09.1a.54.54,0,0,1,0,.77.55.55,0,0,1-.77,0,7.55,7.55,0,0,1-1.08-1.81c-.06-.12-.12-.24-.17-.37.4,3.36,1,6.69,1.66,10h0a163.57,163.57,0,0,0,5.48,20.19q.82,2.28,1.72,4.52c.31.76.62,1.52.94,2.27.24.57.47,1.16.74,1.71l-.11-.23c.85,1.69,1.7,3.39,2.54,5.08.12.22.26.43.38.65.32.54.64,1.08,1,1.63s.73,1.14,1.11,1.7l.69.91a2.68,2.68,0,0,1-2.12,4.32Z"/><path d="M461.4,643.73v0c-.85-1.67-1.73-3.35-2.73-4.93a5.14,5.14,0,0,1-2.1.15,5.25,5.25,0,0,1-2.88-1.42c-.89-.81-1.69-1.71-2.56-2.54-.32-.26-.65-.51-1-.74s-.54-.33-.82-.48-.64-.29-1-.41-.82-.25-1.24-.35-.68-.1-1-.14c-1.36,0-2.73,0-4.09.07-1.05.09-2.09.22-3.13.41s-1.85.47-2.76.77-1.66.67-2.47,1.07c-1.15.61-2.27,1.26-3.36,2-.72.5-1.46,1-2.15,1.51l-2.66,2c-1.47,1.13-2.88,2.32-4.3,3.52-.49.46-1,.93-1.43,1.43s-.93,1.18-1.36,1.79c-.66,1-1.27,2.07-1.84,3.15a39.88,39.88,0,0,0-1.61,3.81c-.28.86-.54,1.72-.74,2.61-.09.56-.15,1.13-.2,1.7-.11,2.24,0,4.48.09,6.71a75.18,75.18,0,0,0,1,8.2c.25,1.11.55,2.2.9,3.28a42.1,42.1,0,0,0,1.75,4,113.16,113.16,0,0,0,5.92,9.85c.93,1.31,1.9,2.58,2.95,3.81.81.88,1.66,1.71,2.54,2.51a82.18,82.18,0,0,0,7.15,5.49,40.21,40.21,0,0,0,3.53,2.07c.68.33,1.38.62,2.08.89s1.14.34,1.72.48.91.14,1.37.18c.68,0,1.35,0,2,0,.85-.09,1.7-.2,2.54-.35s2-.51,2.94-.82c.79-.3,1.56-.63,2.32-1s1.22-.68,1.81-1.06,1-.76,1.52-1.17,1-.93,1.44-1.43c.57-.68,1.1-1.38,1.61-2.11a35.42,35.42,0,0,0,1.82-3.1,44.14,44.14,0,0,0,1.82-4.31,53.14,53.14,0,0,0,1.41-5.27,65.35,65.35,0,0,0,.95-7.25c.07-1.26.09-2.53.12-3.79,0-1,.1-2,.07-3-.07-2.49-.09-5-.24-7.48a59.25,59.25,0,0,0-.9-6.92,52.57,52.57,0,0,0-1.59-5.78A72.05,72.05,0,0,0,461.4,643.73Zm-15.95,73.63a20.18,20.18,0,0,1-2.7-.18,23.85,23.85,0,0,1-6.46-1.78,58.79,58.79,0,0,1-13.44-8.8,39.38,39.38,0,0,1-7.9-9c-1-1.47-1.89-3-2.75-4.52-2.44-4.33-5-8.72-6.39-13.51-1.6-5.34-1.94-11-2.12-16.54-.05-1.56-.11-3.12,0-4.68a24,24,0,0,1,1.29-6.9,44.49,44.49,0,0,1,2.86-6.8A30.88,30.88,0,0,1,416.46,634c1.39-1.18,2.79-2.33,4.21-3.47a49.44,49.44,0,0,1,5.18-3.67,32,32,0,0,1,13.35-4.73,44.66,44.66,0,0,1,7.31-.2,19,19,0,0,1,6.91,1.78,17.37,17.37,0,0,1,5.77,4.39,21.29,21.29,0,0,1,2.41,3.34,5.25,5.25,0,0,1,.66,2.87c.47.46.92.95,1.34,1.45a57.71,57.71,0,0,1,5.7,8.4,51.26,51.26,0,0,1,4.29,9.42,48.71,48.71,0,0,1,1.72,6.8c.26,1.52.52,3,.64,4.57l.48,5.87c.15,1.79.13,3.61.19,5.41a58.94,58.94,0,0,1-.61,10.62,48.65,48.65,0,0,1-1.63,7.44,45.08,45.08,0,0,1-2.49,6.26,29.29,29.29,0,0,1-8.62,10.89,31.1,31.1,0,0,1-13,5.47A28.7,28.7,0,0,1,445.45,717.36Z"/><path d="M454,672.17a8.41,8.41,0,0,0,3.68-3.55,10.71,10.71,0,0,0,1.39-5,10.44,10.44,0,0,0-1.21-5.67,7.43,7.43,0,0,0-1.42-1.83,6.11,6.11,0,0,0-2.23-1.27,5.45,5.45,0,0,0-2.56-.3,7.29,7.29,0,0,0-1.3.33,8,8,0,0,0-1.56.81,9.15,9.15,0,0,0-3.12,3.74,11.21,11.21,0,0,0-1.1,5.78,9,9,0,0,0,.34,1.62,6.07,6.07,0,0,0,1,3.2,6.29,6.29,0,0,0,3.68,2.59,4.82,4.82,0,0,0,1.37.19A8.29,8.29,0,0,0,454,672.17Z"/><path d="M486.47,709.18c2.65-.22,5.29-.45,7.92-.89a27.56,27.56,0,0,0,5.8-1.61,16.19,16.19,0,0,0,5.13-3.48,20.22,20.22,0,0,0,3.38-4.68,29.85,29.85,0,0,0,2-4.39c.52-1.47,1.08-2.93,1.53-4.42s.9-2.83,1.28-4.27c.6-2.32,1.19-4.62,1.63-7a60.83,60.83,0,0,0,.84-12.86,53.22,53.22,0,0,0-1.56-12.38,56.94,56.94,0,0,0-2.74-7.64,40.34,40.34,0,0,0-4.23-7.74c-.49-.71-1-1.41-1.49-2.11s-.95-1.22-1.42-1.82c-.91-1.14-1.87-2.23-2.82-3.33a42.74,42.74,0,0,0-3-3.13c-1.23-1.14-2.48-2.28-3.8-3.34a21.24,21.24,0,0,0-4.72-2.92,16.69,16.69,0,0,0-6.37-1.2,18.86,18.86,0,0,0-3,.23,11.91,11.91,0,0,0-3,.8,20.84,20.84,0,0,0-3.89,2.23,30.35,30.35,0,0,0-3,2.32,16,16,0,0,0-3.51,4.47,20.81,20.81,0,0,0-1.71,5,10.5,10.5,0,0,0-.34,3.82,1.18,1.18,0,0,0,2.35,0v0c0-.2.06-.4.09-.6a1.24,1.24,0,0,0,0,.16,11.66,11.66,0,0,1,.34-1.29c.27-.72.57-1.41.9-2.11s.65-1.16,1-1.72c.22-.31.44-.61.69-.9s.53-.56.81-.82.6-.49.91-.71a16.18,16.18,0,0,1,1.65-1,39.52,39.52,0,0,1,3.75-1.56c.54-.18,1.08-.34,1.63-.47a18.23,18.23,0,0,1,1.95-.25c.57,0,1.13,0,1.7,0s1.23.13,1.84.24c.43.1.86.22,1.28.36s.62.25.92.39.72.42,1.08.65c.62.45,1.21.94,1.79,1.44.89.8,1.76,1.61,2.61,2.44s1.76,1.81,2.63,2.73c.94,1.12,1.88,2.22,2.77,3.37.47.6,1,1.18,1.39,1.81s.93,1.32,1.39,2c.67,1.05,1.3,2.12,1.88,3.23a68.33,68.33,0,0,1,2.91,6.89,41.71,41.71,0,0,1,1.24,4.54,52.67,52.67,0,0,1,.72,5.86,76.7,76.7,0,0,1,.06,8.71,59.37,59.37,0,0,1-.93,6.76c-.46,2.16-1,4.32-1.66,6.44-.29.95-.54,1.91-.86,2.85s-.7,2-1,3-.78,1.94-1.23,2.88c-.34.63-.69,1.24-1.06,1.85-.32.44-.64.87-1,1.29-.22.23-.44.44-.67.66s-.52.42-.78.62l-.75.44c-.45.21-.9.39-1.36.57-.64.21-1.28.39-1.93.54a79.6,79.6,0,0,1-9.11,1c-1,.06-2,.11-3.07.07-.37,0-.74-.08-1.11-.14l-.28-.07-.33-.14c-.52-.28-1-.58-1.5-.9s-.94-.72-1.39-1.11a35.39,35.39,0,0,1-2.69-2.65c-.23-.26-.45-.51-.67-.78a4.08,4.08,0,0,0-2-1.37,3.89,3.89,0,0,0-4.39,5.7,23.48,23.48,0,0,0,8.4,8.08,12.26,12.26,0,0,0,2.73,1.12,14,14,0,0,0,3,.39c.29,0,.59,0,.89,0C484.05,709.39,485.26,709.28,486.47,709.18Z"/><path d="M498.59,673l.2,0a7.65,7.65,0,0,0,1.41-.22,6.15,6.15,0,0,0,1.72-.81,12.41,12.41,0,0,0,1.44-1.06,4.81,4.81,0,0,0,1.78-3.07,4.69,4.69,0,0,0-1.33-3.94,4.35,4.35,0,0,0-.87-.68,13.09,13.09,0,0,0-1.24-3.35,6.78,6.78,0,0,0-2.48-2.59,5.73,5.73,0,0,0-3.89-.6,6.62,6.62,0,0,0-4.81,4.6,8.47,8.47,0,0,0,.59,6.7,10,10,0,0,0,4.18,4.23,4,4,0,0,0,2.58.87A5.79,5.79,0,0,0,498.59,673Z"/><path d="M459.23,819.8c1.9-.16,3.81-.38,5.71-.57l2.89-.18c2.05-.13,4.09-.15,6.14-.35a19.24,19.24,0,0,0,4-.8,19.82,19.82,0,0,0,7.31-4.26c1.17-1,2.28-2,3.4-3s2.15-1.72,3.27-2.53a45.61,45.61,0,0,0,6.34-4.61c3.17-3,4.61-7.38,5.65-11.48.95-3.79,1.78-7.61,2.58-11.45.42-2,.72-4,1.06-6,.13-.76.18-1.55.26-2.31.12-1,.24-2.06.35-3.08s.13-2.16.19-3.24c.05-.85.1-1.7.12-2.56a60.57,60.57,0,0,0-.08-6.32,5.39,5.39,0,0,0-10.68,0c-.18,2-.22,4-.28,6,0,1.64-.13,3.27-.22,4.9s-.36,3.42-.55,5.13c-.09.89-.3,1.78-.45,2.66s-.28,1.73-.43,2.6a127.06,127.06,0,0,1-3.24,13.34c-.28.74-.58,1.45-.9,2.16-.17.31-.34.61-.52.91-.05,0-.09.11-.14.17-.25.26-.51.52-.78.77l-.52.4L486,798.5a55.44,55.44,0,0,0-6.92,5.68c-.86.75-1.72,1.48-2.64,2.15-.2.13-.4.25-.61.36-.43.21-.86.39-1.31.57l-.5.14c-.89.15-1.79.24-2.69.33-1.54.08-3.07.14-4.61.25-1.07.08-2.16.11-3.23.23-2.78.32-5.56.66-8.36.89-1.64.08-3.28.09-4.92,0-1.19-.1-2.36-.26-3.54-.47s-2.45-.65-3.67-1c-2.32-.81-4.63-1.61-6.95-2.39-2.59-.87-5.22-1.61-7.82-2.48-.9-.33-1.78-.7-2.66-1.11-.56-.3-1.1-.61-1.64-1s-1.07-.81-1.59-1.24c-1.07-1-2.09-2.06-3.06-3.16a73.63,73.63,0,0,1-4.9-6.36c-.9-1.35-1.74-2.72-2.5-4.15a31,31,0,0,1-1.3-3c-.37-1.2-.68-2.42-.95-3.64s-.36-2.17-.5-3.27c-.1-.77-.24-1.55-.3-2.32,0,.19,0,.39,0,.59-.11-1.73-.27-3.45-.3-5.19s-.07-3.58-.05-5.38c0-3.38.18-6.75.4-10.13.26-2.52.55-5,1-7.52s.89-5.18,1.36-7.78c.24.43.51.85.79,1.26a44.45,44.45,0,0,0,3.58,4.27q1.65,1.9,3.28,3.82a61.05,61.05,0,0,0,6,6.35,52.35,52.35,0,0,0,12.51,7.82,48.34,48.34,0,0,0,15.65,4.17,57.39,57.39,0,0,0,11.35-.16c.86-.09,1.73-.12,2.57-.27l3.7-.65a60.26,60.26,0,0,0,11.92-3.46c2.89-1.16,5.57-2.77,8.34-4.18.62-.29,1.25-.56,1.89-.79.89-.3,1.8-.57,2.7-.85.42-.12.84-.26,1.25-.39a5.78,5.78,0,0,0,1.22-.46,2.79,2.79,0,0,0,0-4.76,4.5,4.5,0,0,0-3-.21c-1.07.13-2.14.21-3.22.3a19.75,19.75,0,0,0-5.59,1.48c-1.72.69-3.43,1.38-5.17,2a61.7,61.7,0,0,1-7.08,1.93c-2.67.51-5.34.79-8,1.08-2.77.1-5.52.21-8.29.07a57.38,57.38,0,0,1-5.72-.77,53.6,53.6,0,0,1-5.42-1.48,49.43,49.43,0,0,1-4.69-2,64.33,64.33,0,0,1-5.59-3.33q-1.79-1.24-3.47-2.64c-1-.86-1.84-1.78-2.71-2.72q-2.19-2.58-4.35-5.2c-1.33-1.61-2.75-3.16-4.17-4.71-.59-.7-1.14-1.42-1.67-2.18-.73-1.08-1.45-2.16-2.23-3.2a18.64,18.64,0,0,0-3.05-3.1l.14.12a5.26,5.26,0,0,0-2.77-1.41,4.19,4.19,0,0,0-2.64.51,5.66,5.66,0,0,0-2.12,2.63,40.68,40.68,0,0,0-2.18,6.44c-.53,2-.91,4-1.35,6.06s-1,4.33-1.44,6.5-.92,4.46-1.18,6.72c-.28,2.42-.51,4.83-.7,7.25a127.48,127.48,0,0,0-.22,14c0,1.15.17,2.31.27,3.45a50.92,50.92,0,0,0,1,6.49c1.3,5.93,4.87,11.21,8.45,16a63.54,63.54,0,0,0,5.71,6.65,24.59,24.59,0,0,0,7.11,4.9,45.26,45.26,0,0,0,5.64,2.17l3.28,1.11c1.45.54,2.91,1.06,4.35,1.61a66.08,66.08,0,0,0,8.3,2.85,40.2,40.2,0,0,0,7.25.94c.53,0,1.07,0,1.61,0C455.13,820.15,457.18,820,459.23,819.8Z"/><path d="M461.7,788.35l2.62-.06c.63,0,1.27-.1,1.9-.15l2.81-.24c1.47-.12,2.94-.33,4.4-.5l4.44-.5c1.4-.16,2.81-.23,4.21-.33,2.7-.12,5.41-.22,8.11-.28,1.27,0,2.55-.07,3.82-.12.74,0,1.49-.11,2.24-.18a9.51,9.51,0,0,0,3-.59A.71.71,0,0,0,499,784c-.95,0-1.9,0-2.85-.08l-2-.1c-5-.42-10-.93-15-1.22-2.3-.13-4.6-.14-6.9-.2-2.52-.05-5-.16-7.52-.28l-4.62-.43c-.56-.05-1.12-.17-1.67-.26l-2.93-.46c-1.48-.23-2.94-.55-4.42-.83s-2.7-.53-4.05-.8c-2.83-.56-5.68-1-8.54-1.33s-5.53-.89-8.29-1.43c-1.24-.27-2.48-.53-3.71-.84-1.49-.39-3-.8-4.45-1.24a21.42,21.42,0,0,0-5-1c-1.51-.07-3-.11-4.52-.08a4,4,0,0,0-2,7.48,31.34,31.34,0,0,0,8.86,3.35c1.49.39,3,.75,4.49,1.08s3.1.59,4.66.86a86.11,86.11,0,0,0,9.34.93c1.43.08,2.87.07,4.3.11s2.66.12,4,.2l3.76.31c1.63.13,3.26.31,4.89.39l4.78.23h.4C460.54,788.41,461.13,788.36,461.7,788.35Z"/><path d="M419.17,805.08a2.38,2.38,0,0,0,1.13-1.71c.1-.56.19-1.11.3-1.67,0,0,0,0,0-.06s0-.06,0-.08h0c0-.22.09-.45.13-.67h0a.36.36,0,0,0,0-.1l0-.12c0-.19.08-.38.11-.58v0c0-.11.05-.22.07-.34v0c.22-1.06.49-2.11.73-3.17.33-1.41.68-2.81.93-4.24a45.2,45.2,0,0,0,.5-4.5v.18c.14-1.9.11-3.79.15-5.68,0-1.12.06-2.24.08-3.36l.09-3.59c0-1.81.17-3.63.29-5.43h0a84.26,84.26,0,0,1,1.36-10.62s0,0,0,.06a37.89,37.89,0,0,1,1.25-4.79c.22-.57.47-1.12.73-1.68a1.91,1.91,0,0,1,.15-.28.52.52,0,0,0,.3-.06.54.54,0,0,0,.21-.68.73.73,0,0,0-.6-.45c-.42-.06-.8.36-1,.68a18.26,18.26,0,0,0-2.06,5.31c-.55,2.07-.93,4.18-1.27,6.29s-.62,4.4-.82,6.62c-.36,4.08-.59,8.16-.87,12.24v-.15a60.64,60.64,0,0,1-.75,6.45,34.26,34.26,0,0,1-1.14,4.26c-1.06,3-2.29,5.95-3.41,8.93a2.33,2.33,0,0,0,1.53,3.16,2.16,2.16,0,0,0,.62.09A2.41,2.41,0,0,0,419.17,805.08Z"/><path d="M435.74,811.3a65.82,65.82,0,0,0,1.8-14.87c.08-2.47.15-4.94.25-7.41s.14-4.73.28-7.08c.18-2.87.37-5.73.53-8.6.33-3.14.6-6.29.9-9.43.28-3,.78-5.93,1.06-8.91a1.64,1.64,0,0,0-3.26-.44c-.27,2.74-.68,5.46-1,8.19-.32,2.47-.55,5-.81,7.43-.49,4.5-.84,9-1.18,13.52-.2,2.72-.34,5.45-.63,8.16-.17,1.55-.33,3.1-.49,4.64-.06.57-.19,1.13-.29,1.68l-.33,2c-.34,1.52-.67,3-1.06,4.55-.46,1.8-1,3.6-1.28,5.43a2.87,2.87,0,0,0,2.06,3.13,3,3,0,0,0,.73.09A2.86,2.86,0,0,0,435.74,811.3Z"/><path d="M454.48,813.16a3.26,3.26,0,0,0,1.55-2.32c.18-1.1.26-2.21.34-3.31l.21-3c.14-1.91.26-3.82.38-5.74a.25.25,0,0,0,0,.08c.31-4.56.51-9.13.72-13.69q.3-6.3.34-12.6c0-1.19,0-2.38,0-3.58s0-2.35-.09-3.52c0-.69-.08-1.38-.13-2.07s-.22-1.43-.34-2.13a1,1,0,0,0-1.71-.45,2.2,2.2,0,0,0-.35.66.84.84,0,0,0,.17.91c0,.9,0,1.8,0,2.69,0,1.28-.1,2.56-.17,3.84h0c-.16,2.22-.31,4.45-.47,6.67-.07.93-.19,1.85-.29,2.78-.14,1.39-.28,2.79-.43,4.19-.23,2.23-.52,4.45-.79,6.68-.24,2-.52,4.09-.8,6.14-.16,1.16-.29,2.34-.49,3.49-.26,1.55-.53,3.09-.8,4.64-.21.91-.42,1.82-.64,2.73-.26,1.11-.62,2.2-.92,3.3a3.23,3.23,0,0,0,2.23,3.94,3.48,3.48,0,0,0,.85.11A3.23,3.23,0,0,0,454.48,813.16Z"/><path d="M470.26,805.07h0l.25-.18h0a2.53,2.53,0,0,0,1-2.37s0-.06,0-.09c.05-.77,0-1.52,0-2.29a2.55,2.55,0,0,0-.11-.68c0-1.07.07-2.15.14-3.23a.13.13,0,0,1,0,.06.13.13,0,0,0,0-.06v-.06c.18-2.25.35-4.51.55-6.76l.42-5c.1-1.16.23-2.33.3-3.49,0,.05,0,.11,0,.17.21-2.75.41-5.49.62-8.24.1-1.28.18-2.56.23-3.84.08-1.78.13-3.55.08-5.33a22.06,22.06,0,0,0-.19-2.3c-.12-.83-.33-1.64-.51-2.46h0l0-.1v0c0-.09,0-.17-.05-.25a.81.81,0,0,0-.89-.68,1.58,1.58,0,0,0-.79.26,1.52,1.52,0,0,0-.42.64l.05-.08a6.26,6.26,0,0,0-.73,2.7.73.73,0,0,0,.72.73.74.74,0,0,0,.73-.73,1.93,1.93,0,0,1,0-.34h0v0h0v0h0v0a2,2,0,0,1,0-.24c0,.33.08.67.11,1a49.48,49.48,0,0,1-.08,5.31V767c-.31,4.55-.89,9.07-1.39,13.6-.19,1.64-.44,3.27-.66,4.9s-.41,3.13-.65,4.69q-.44,2.7-.86,5.4c-.13.79-.28,1.58-.43,2.37a2.35,2.35,0,0,0-1.23,1.82c0,.55-.08,1.09-.1,1.64,0,.22,0,.44,0,.66a4.68,4.68,0,0,0,0,.53,5.8,5.8,0,0,0,.14.93,2.58,2.58,0,0,0,2.52,1.88A2.31,2.31,0,0,0,470.26,805.07Z"/><path d="M486.29,808.14A2.5,2.5,0,0,0,487.5,806c0-1,0-2.12-.06-3.18,0-.83,0-1.67,0-2.5,0-1.6.1-3.21.16-4.81.11-2.75.25-5.49.36-8.24q.21-5.28.4-10.56c.12-3.15.15-6.3.23-9.45,0-.68,0-1.35,0-2,0-1.38,0-2.77,0-4.15,0-.68-.05-1.35-.11-2a14.1,14.1,0,0,0-.36-1.94.49.49,0,0,0-.85-.17,2.49,2.49,0,0,0-.23.37.41.41,0,0,1-.07.11l0,.06a.48.48,0,0,0-.23.37.35.35,0,0,0,.55.29c0,.06,0,.13,0,.19a60.76,60.76,0,0,1-.1,7.14l-.18,3.61c-.13,2.44-.21,4.88-.37,7.31,0,0,0-.08,0-.12-.26,3.64-.52,7.27-.76,10.91,0,0,0,.06,0,.09-.11,1.25-.26,2.5-.38,3.75l-.27,2.62c0,.35-.05.71-.1,1.06-.22,1.49-.43,3-.64,4.47-.15,1.06-.37,2.11-.57,3.16-.14.48-.29,1-.43,1.44l-.24.54a1.27,1.27,0,0,0-.13.19,2.43,2.43,0,0,0-.42,2.13,2.47,2.47,0,0,0,1.39,1.6,2.64,2.64,0,0,0,.95.19A2.41,2.41,0,0,0,486.29,808.14Z"/><path d="M469.45,815.14a1,1,0,0,0-.38-.77s0,0,0-.08c-.05-.87,0-1.73,0-2.6l.06-1.59c.07-1.46.13-2.92.19-4.38.1-2.33.13-4.66.21-7,0-.83,0-1.66.09-2.48a.49.49,0,0,0,0,.12c.05-.69.09-1.38.13-2.07v.18c0-.34.06-.68.1-1a1.4,1.4,0,1,0-2.79-.19c.14,2.52.2,5.06.23,7.59,0,1.54,0,3.09,0,4.63,0,1.27,0,2.55,0,3.82,0,.94,0,1.87,0,2.81,0,.71,0,1.42.06,2.13s.2,1.86,1.16,1.86A1,1,0,0,0,469.45,815.14Z"/></svg>