<svg id="Layer_1" data-name="Layer 1" xmlns="http://www.w3.org/2000/svg" viewBox="0 0 1920 1080"><defs><style>.cls-1{fill:#85aa52;}.cls-2{fill:#daec70;}.cls-3{fill:#1b1464;}.cls-4{fill:#fbb03b;}.cls-5,.cls-9{fill:none;stroke:#000;stroke-miterlimit:10;}.cls-6{fill:#fff;}.cls-7{fill:#f7931e;}.cls-8{fill:#006837;}.cls-9{stroke-width:2px;}</style></defs><path d="M426,243.18a3.4,3.4,0,0,0,1,2.74v.21a4.55,4.55,0,0,0,.39,1.55,6.1,6.1,0,0,1,.39,2.25,2,2,0,0,0,.56,1.69,3.24,3.24,0,0,1-.35.42.61.61,0,0,0-.21.42c0,.14.05.22.17.25a.21.21,0,0,1,.18.24l-.07.14a2.85,2.85,0,0,1-.07,1.06,3.22,3.22,0,0,0-.14.95,2.23,2.23,0,0,0,.07.67l-.57,1.19a2.83,2.83,0,0,1,.07.71,1.76,1.76,0,0,1-1.26,1.75,4.79,4.79,0,0,1,.07.92,5,5,0,0,1-.18,1.3,8.71,8.71,0,0,0-.24,1.37,1.18,1.18,0,0,0-.78,1.19,2.06,2.06,0,0,0-1,.74,7.1,7.1,0,0,1-.73.88,2.5,2.5,0,0,1-.57.46,1.45,1.45,0,0,0-.42.35,1.94,1.94,0,0,0-.35.6,2.75,2.75,0,0,1-.63,1c-.28.19-.43.37-.43.53a1.58,1.58,0,0,1-.42.77,3.9,3.9,0,0,1-1.44,1,5,5,0,0,0-1.72,1.23h-.21l-.78.28a2.44,2.44,0,0,0-.42.63c-.23.33-.77.42-1.61.28-.29.14-.6.32-.95.53a2.2,2.2,0,0,1-1.13.32q-.6,0-.6.24c0,.17-.15.25-.45.25a1.26,1.26,0,0,0-.67.14h-.07l-1-.28a3.36,3.36,0,0,1-1.26.28l-1.76-.42a1,1,0,0,0-.42.14,1.06,1.06,0,0,0-.7-.42,1.63,1.63,0,0,1-.71-.28,1.5,1.5,0,0,0-.56.42h-.14l-1.34.07c-.51,0-.82-.17-.91-.49a2.05,2.05,0,0,1-1.72-.53,2.65,2.65,0,0,1-1.16-1.37h-.21l-.85-.28c-.14-.19-.28-.37-.42-.53a1.24,1.24,0,0,1-.28-.6,1.77,1.77,0,0,1-.92-.53,1.36,1.36,0,0,0-1.05-.38,1.19,1.19,0,0,0-.46-.64c-.21-.14-.41-.28-.59-.42a6.05,6.05,0,0,0-1.69-2.6q-1.33-3.59-1.73-4.43a5,5,0,0,1-.38-1l.21-.71-.14-.35c0-.09,0-.14.07-.14s.07-.05.07-.14l-.28-1.62.14-1.05-.35-.78.49-2v-.85a1.75,1.75,0,0,1,.14-.67,5.31,5.31,0,0,0,.28-.91,6.82,6.82,0,0,0,.14-1.48,5.86,5.86,0,0,1,.21-1.61,1.92,1.92,0,0,1,.53-1c.21-.16.27-.53.18-1.09a7.45,7.45,0,0,0,1.16-2.14,8.07,8.07,0,0,0,.31-1.16.9.9,0,0,1,.21-.64.55.55,0,0,0,.32-.56.47.47,0,0,1,.18-.49,1.66,1.66,0,0,0,.42-.42,3.91,3.91,0,0,0,.42-.78,5.81,5.81,0,0,1,.56-1l.28-.14c.14-.42,1-1.2,2.6-2.32a.73.73,0,0,0,.25-.42.57.57,0,0,1,.18-.35,7.24,7.24,0,0,0,1.12-.5l.14-.28,1.13-.56.07-.28a.56.56,0,0,1,.35,0,2.29,2.29,0,0,0,1-.28,14.17,14.17,0,0,0,1.72-.91,3.62,3.62,0,0,1,1.86-.6c.59,0,.94-.07,1.06-.21a1,1,0,0,1,.56-.32,2.13,2.13,0,0,1,.88,0,.87.87,0,0,0,.84-.35h.07a.64.64,0,0,1,.57.42,3.47,3.47,0,0,1,1.54-.42c.47,0,.71,0,.71.1s0,.13.14.18a.34.34,0,0,0,.28,0,.91.91,0,0,1,.42-.07c.19,0,.46.17.81.52a1.91,1.91,0,0,0,1.44.53l1.34-.07a2.45,2.45,0,0,1,1.33.32,2.67,2.67,0,0,0,1.13.39.24.24,0,0,1,.14.24.43.43,0,0,0,.14.32h.28a2.19,2.19,0,0,1,.46.45,1.29,1.29,0,0,0,.38.39l.71.42a3.6,3.6,0,0,1,.49.46,2.19,2.19,0,0,0,.56.46,1.33,1.33,0,0,1,.39.42,3.94,3.94,0,0,0,.38.53,2.39,2.39,0,0,0,.43.38,1.14,1.14,0,0,1,.35.46,1.53,1.53,0,0,1,.14.6,1.41,1.41,0,0,0,.14.6q.13.32.21.24c.05,0,.07.06.07.32a2.27,2.27,0,0,0,.18.84,9.14,9.14,0,0,0,.45,1c.19.35.36.69.5,1s.28.51.42.56Zm-30.38,7-.35,3.59a2.59,2.59,0,0,0,.11.81,4.67,4.67,0,0,1,.17,1,11.65,11.65,0,0,1,0,1.62,13.59,13.59,0,0,0,.1,2.14,6.15,6.15,0,0,0,.85,2.39,6.49,6.49,0,0,1,.84,2.67c.38.52.74,1.06,1.09,1.62s.71,1.1,1.09,1.62a5.63,5.63,0,0,0,3.09,2.39,3,3,0,0,0,2.89,1.41c.42,0,.65,0,.7.14h1.05l3.31.35a1.91,1.91,0,0,0,.81-.18,1.21,1.21,0,0,1,.74-.1,1.81,1.81,0,0,1,1.05-.53,5.59,5.59,0,0,0,1.2-.25c.09,0,.12-.15.1-.31a.26.26,0,0,1,.18-.32,2,2,0,0,1,.63-.07,1.66,1.66,0,0,1,1.13-1.05,4.34,4.34,0,0,0,1.51-.88l1.3-1.16a5.73,5.73,0,0,0,1.16-1.52,6.25,6.25,0,0,1,.88-1.3l.77-.7a.53.53,0,0,0,.14-.39c0-.16.15-.31.46-.45a1.31,1.31,0,0,0,.56-.39.44.44,0,0,0,.07-.32.3.3,0,0,1,.11-.28c.28-.09.41-.24.38-.45s0-.45,0-.71a.87.87,0,0,1,.24-.63.53.53,0,0,0,0-.67,1.3,1.3,0,0,0,.56-.95,4.37,4.37,0,0,1,.25-1.05,1.86,1.86,0,0,1,.42-.71,1.9,1.9,0,0,0,.39-.59c-.1-.1-.14-.38-.14-.85v-.7a3.33,3.33,0,0,0,.28-3.44,5.69,5.69,0,0,1-.43-2.36c0-1-.14-1.56-.42-1.79s-.42-.43-.42-.57v-.49l-.28-1.54a1.09,1.09,0,0,0-.32-.71,1.86,1.86,0,0,1-.42-.7,1.39,1.39,0,0,1,0-.7,1.84,1.84,0,0,0-.14-.92,1.56,1.56,0,0,0-.53-.77c-.21-.14-.32-.54-.32-1.2a1.33,1.33,0,0,1-.91-1.12,1.72,1.72,0,0,1-1.13-.88,1.69,1.69,0,0,0-.67-.81c-.21-.09-.32-.13-.35-.11s-.08,0-.17,0h-.07l-.14-.35a1.51,1.51,0,0,0-.85-.28l-1.19.28a1.85,1.85,0,0,1-1.2-.49,1.66,1.66,0,0,0-1.05-.5,1.56,1.56,0,0,0-.85.22,1.19,1.19,0,0,1-.28-.46.65.65,0,0,0-.28-.39,1.69,1.69,0,0,1-.84-.28,3.91,3.91,0,0,0-.78-.42l-.28.07-1.4-.28a.51.51,0,0,0-.32.17.6.6,0,0,1-.53.14,1.85,1.85,0,0,0-.63,0,2.54,2.54,0,0,0-.49.17,2.79,2.79,0,0,1-.49.18,1.68,1.68,0,0,1-.71,0,1.29,1.29,0,0,0-.74.07,1.43,1.43,0,0,0-.49.35.42.42,0,0,1-.53.07,1,1,0,0,0-.59.46c-.12.21-.67.32-1.66.32a5.73,5.73,0,0,1-2.88,2.39,1.55,1.55,0,0,1-.56.88,4.42,4.42,0,0,0-.77.73,8.12,8.12,0,0,0-1.06,2,7,7,0,0,0-.63,2.18l.14.57a1.68,1.68,0,0,1-.28.91,3.49,3.49,0,0,0-.42.81,1.36,1.36,0,0,0-.07.77,1.82,1.82,0,0,1,0,.77,4.38,4.38,0,0,1-.32.81A3,3,0,0,0,395.62,250.14Z"/><path d="M453.91,248.59c.33,0,.49.15.49.43,0,.09.11.25.32.49a1.88,1.88,0,0,0,.56.46c.17.07.25.41.25,1v.21l.28.28a6.12,6.12,0,0,1,.35,1.58,5.73,5.73,0,0,0,.42,1.65,2.52,2.52,0,0,0-.35.67,2.43,2.43,0,0,0-.21.74.28.28,0,0,0,.21.28c.14.05.21.22.21.53a1.92,1.92,0,0,1-.31,1,2.11,2.11,0,0,0-.32,1.09l.07.63a2.09,2.09,0,0,1-.39,1.16,1.55,1.55,0,0,1-.95.74c-.09.1-.13.18-.1.25a1.19,1.19,0,0,1,0,.31.28.28,0,0,1-.21.29v.07c0,.09-.13.21-.38.35a2.7,2.7,0,0,0-.71.56,4.86,4.86,0,0,1-.66.63v.28a.68.68,0,0,1-.25.6.83.83,0,0,0-.32.53,8.16,8.16,0,0,0-2.11,1.41h-1.12a1,1,0,0,0-.63.28,3.45,3.45,0,0,1-.67.42,2.37,2.37,0,0,1-.78.17,7.38,7.38,0,0,0-.8.11l-.14-.14c0,.09-.08.14-.22.14l-1-.28-1.83.14-1.83-.42a1.75,1.75,0,0,0-.35-.49,1.67,1.67,0,0,1-.35-.57l-1.19-.35a1.05,1.05,0,0,1-.25-.39.36.36,0,0,0-.35-.24,1.35,1.35,0,0,0-.46.07.39.39,0,0,1-.14-.42c.05-.14-.05-.21-.28-.21s-.35-.1-.35-.29-.12-.25-.35-.21a1.56,1.56,0,0,0-.22-.49,2.91,2.91,0,0,1-.63-1.55.66.66,0,0,0-.35-.35.73.73,0,0,1-.35-.21,12.69,12.69,0,0,1-1.41-4.71,10.89,10.89,0,0,1,.18-2.35,9.53,9.53,0,0,1,1-2.64,8.57,8.57,0,0,0,.63-1.55,1.16,1.16,0,0,0,.74-.77,1.15,1.15,0,0,1,.42-.7.76.76,0,0,1,.35-.14.31.31,0,0,0,.21-.11c.07-.07.1-.14.07-.21a.36.36,0,0,1,.07-.28,3.57,3.57,0,0,1,.64-.64c.35-.3.58-.5.7-.59a.88.88,0,0,1,.42-.18,1.71,1.71,0,0,0,.53-.17l.67-.36a4.36,4.36,0,0,1,1.12-.38,10.88,10.88,0,0,1,1.72-.25,4.12,4.12,0,0,0,1.9-.63,9.66,9.66,0,0,0,1.76.53c.61.11,1.2.24,1.76.38a1.09,1.09,0,0,0,.21.53,1.33,1.33,0,0,1,.21.53l2.39-.35c.24,0,.66.27,1.27.8s.86.93.77,1.16A.45.45,0,0,0,453.91,248.59Zm-6.4,16a2.19,2.19,0,0,1,1.48-.5.73.73,0,0,1,.46-.45,2.64,2.64,0,0,0,.77-.5,3.47,3.47,0,0,0,.81-1.05,2.41,2.41,0,0,1,1-1,2.23,2.23,0,0,1,.5-.95c.23-.26.45-.51.66-.77a2.25,2.25,0,0,0,.43-1c.07-.39.15-.92.24-1.58a13,13,0,0,0,.14-2,2.05,2.05,0,0,0-.31-1.33,1.45,1.45,0,0,1-.39-.78,2.29,2.29,0,0,1,0-.66,3.54,3.54,0,0,0,0-.6v-.21a4.62,4.62,0,0,0-.81-.67,4.53,4.53,0,0,1-.74-.6,8.81,8.81,0,0,1-3-.63,12,12,0,0,0-2.91-.78,2.78,2.78,0,0,0-1.41-.49,5.12,5.12,0,0,0-.84,0,1.55,1.55,0,0,0-.36.1l-.28.18a1.84,1.84,0,0,1-.38.21,1,1,0,0,1-.5.07,1.28,1.28,0,0,0-.56.07,2.65,2.65,0,0,0-.7.39,3.8,3.8,0,0,1-.74.42,1.8,1.8,0,0,1-.46.81,3.46,3.46,0,0,0-.63,1.33,6,6,0,0,0-.32,1.69,22.23,22.23,0,0,0,.5,3.13l-.14.14a6.92,6.92,0,0,0,.31,1.09c.12.31.21.57.28.81a1.11,1.11,0,0,1,.07.53,2.17,2.17,0,0,0,0,.38l.28,1.13v.07l.28.28v.28a.71.71,0,0,0,.21.39,1.23,1.23,0,0,1,.21.81,3.67,3.67,0,0,1,.85.8,3.14,3.14,0,0,0,.88.81,3.35,3.35,0,0,0,1.37.39,5.42,5.42,0,0,1,1.68.46A8.64,8.64,0,0,1,447.51,264.63Z"/><path d="M468.33,259l-.43.92a4.26,4.26,0,0,1,.14.91l-.14,1.62a.36.36,0,0,1,.14.28l-.14.28.21,1a10.44,10.44,0,0,1,.32,2.82q0,1.4,0,2.88l.14,1.05-.14.85.28,1.4a2.1,2.1,0,0,1-.07.57.6.6,0,0,0,.07.49l-.14,1.19.14.78-.28,1.05.14.85-.14.91.42,1.62a1.93,1.93,0,0,0,1.19-.36,2.31,2.31,0,0,1,1.34-.35.75.75,0,0,1,.84.85,1.43,1.43,0,0,1-.77,1.3,12.8,12.8,0,0,1-1.27.67,2.78,2.78,0,0,1-.88.24c-.25,0-.55.07-.87.14a3.21,3.21,0,0,0-.64.18,2.79,2.79,0,0,1-.81.07,7,7,0,0,0-1.79.31,2.75,2.75,0,0,0-1.47.81.28.28,0,0,1-.22,0,.47.47,0,0,0-.24,0,1.73,1.73,0,0,0-.67.32,1.59,1.59,0,0,1-1.05.25h-.22c-.51-.24-.77-.89-.77-2,.14,0,.24,0,.28-.18a.58.58,0,0,1,.25-.35.56.56,0,0,1,.39-.07,2.84,2.84,0,0,0,1-.28,15.13,15.13,0,0,1,2.08-.6,3.17,3.17,0,0,0,.21-1.12,4.34,4.34,0,0,0-.14-1.09,2.67,2.67,0,0,1-.07-1.09v-2.46a9.56,9.56,0,0,1,.07-1.76l-.21-.64.14-.42-.28-1.12a19.84,19.84,0,0,1-.14-2.46v-2.46a11.12,11.12,0,0,0-.21-2.18c-.14-.71-.26-1.43-.36-2.18V261l-.28-2.11.07-2.32-.07-2V253a2,2,0,0,0,.14-.63l-.28-.7a1.07,1.07,0,0,1,.14-.42,16.37,16.37,0,0,0-.14-2.18l-.28-1.13.14-.42-.35-4.92.28-2.6-.14-.92.21-.84-.28-2.53.21-3.31-.28-3c-.09-1.13-.14-2.19-.14-3.2s-.33-1.51-1-1.51l-1.41.14a1.37,1.37,0,0,1-1.2-.63,2.25,2.25,0,0,1-.42-.85l.07-.28a1,1,0,0,1,1.09-.63,12.13,12.13,0,0,0,1.65-.11,21.91,21.91,0,0,0,2.18-.45,9.69,9.69,0,0,1,2.29-.36c.59,0,.95.19,1.09.57a2.05,2.05,0,0,1-.49,1.26,2,2,0,0,0-.57,1l.15,2-.22,1.61.29,1.9c0,.24.05.39.17.46s.18.24.18.53l-.14,1.33.14.42-.14.28a7.92,7.92,0,0,1,.31,2.57,6.76,6.76,0,0,0,.32,2.43,9.13,9.13,0,0,0-.14,2.25l-.14,2.32a14.53,14.53,0,0,0,.1,1.72c.07.59.15,1.3.25,2.14l.21,3c.09,1.12.19,2.27.28,3.44a2.89,2.89,0,0,0,.88.07c.49,0,.86-.3,1.09-.91a.66.66,0,0,0,.56-.28c.33-.47.57-.63.71-.49s.28.08.42-.18a1,1,0,0,1,.38-.46c.12,0,.2-.06.25,0a.58.58,0,0,0,.21,0,.25.25,0,0,0,.21-.07c.05-.23.68-.47,1.9-.7s1.9-.35,2-.35a3.8,3.8,0,0,1,.63.07l1.37.21a1.59,1.59,0,0,1,1.2.56,5.86,5.86,0,0,0,.77,1l1.3,1.37a10.33,10.33,0,0,1,1.41,1.86.88.88,0,0,1,.32.39.83.83,0,0,0,.31.38,1.16,1.16,0,0,0-.07.43l.56,2.25a2,2,0,0,0,.15.77,2.7,2.7,0,0,1,.17.81,8.13,8.13,0,0,0,.11.88l.28,1a7.83,7.83,0,0,1,.14,1.48v1.4c0,.1,0,.14-.07.14s-.07.05-.07.15l.42,2-.28,1.76.28,2.46a21.14,21.14,0,0,1-.14,2.39,10.12,10.12,0,0,0,0,2.46,3.66,3.66,0,0,0-.42,1.76v1.41a2.47,2.47,0,0,0,.14.84,3.18,3.18,0,0,0,1.05.14l2.82-.56a1,1,0,0,0,.52.46c.26.11.39.27.39.45,0,.57-.21.85-.63.85a3.67,3.67,0,0,0-2.61,1.19,2.37,2.37,0,0,0-.63-.07l-1.9.35h-.49c-.28,0-.43.06-.46.18s-.22.18-.59.18l-1.76.21-.56-.07c-.33,0-.52.1-.57.31s-.21.32-.49.32l-.28-.07a2.61,2.61,0,0,1-.28-1.2,1.34,1.34,0,0,1,.25-.91,1.5,1.5,0,0,1,.56-.42,6.8,6.8,0,0,1,.7-.28,1.14,1.14,0,0,0,.6-.5l.35-1.75a2.51,2.51,0,0,0,.07-.64l-.21-1.89.14-1.41-.14-1.2.28-1.4-.14-1.27.14-2.74a8.93,8.93,0,0,0-.32-2.39,9.64,9.64,0,0,1-.31-2.46l.14-1s-.1-.63-.28-1.75l.14-.21q-.42-.5-.39-.6a2.68,2.68,0,0,0,0-.57,2.19,2.19,0,0,0-.18-.87,5.19,5.19,0,0,1-.28-.92c-.07-.33-.13-.7-.18-1.12a2.86,2.86,0,0,0-.52-1.44,3.06,3.06,0,0,1-.5-.74,2.29,2.29,0,0,0-.31-.57,1.65,1.65,0,0,0-.53-.45,3.21,3.21,0,0,1-.67-.53,2.61,2.61,0,0,1-1.51.32c-.63,0-1.09,0-1.37,0s-.43.05-.46.14a1.16,1.16,0,0,1-.21.39,2.52,2.52,0,0,1-.49.49,2.18,2.18,0,0,0-.53.6,1.88,1.88,0,0,0-1.83.7,6.3,6.3,0,0,1-1.33,1.76c-.14.42-.32.64-.53.67s-.27.15-.18.38l-.07.22.29.84Z"/><path d="M498.91,280.87a13,13,0,0,1-1.26.46,1.55,1.55,0,0,0-.67.31,2.2,2.2,0,0,1-.6.35,1.81,1.81,0,0,1-1.62-2.25,6.2,6.2,0,0,0-.88-.35,2.27,2.27,0,0,1-.8-.42v-2.11a3.92,3.92,0,0,0,.56-.91,2.43,2.43,0,0,1,.49-.78.82.82,0,0,1,.53-.28.61.61,0,0,0,.38-.1.74.74,0,0,0,.22-.25.43.43,0,0,1,.21-.21l1-.14a5.32,5.32,0,0,1,1-.14,1.43,1.43,0,0,1,1.4.95,4,4,0,0,1,.42,1.44q0,.49.18.63c.12.1.17.48.17,1.16A7,7,0,0,1,498.91,280.87Zm-.28-28.69-.42,7.81.07,2.25c0,1-.17,1.47-.49,1.47-.14,0-.14.05,0,.14a10.34,10.34,0,0,0-.6,1.27c-.21.51-.48.77-.81.77-.61,0-1.1-.49-1.48-1.47a7.12,7.12,0,0,1-.49-3.17v-2.88l-.14-2.32.14-3-.14-1.4.28-.85-.14-.84.07-2.46a54.51,54.51,0,0,0-.38-7.52,26.44,26.44,0,0,1-.39-3.27,3.9,3.9,0,0,1,.31-1.55,5.69,5.69,0,0,0,.39-1.09c0-.33.19-.49.42-.49s.24,0,.28-.14.12-.28.22-.28a2,2,0,0,1,1.37.42l.84.81a2.64,2.64,0,0,0,.53.45,3.47,3.47,0,0,1,.28.64l.28.14a.56.56,0,0,1,0,.35.37.37,0,0,0,.1.35l.28.14a3.41,3.41,0,0,1,.28,1.27l-.49,3.44.21,3.45v3.23a14.68,14.68,0,0,1-.21,2.71A9.48,9.48,0,0,0,498.63,252.18Z"/><path d="M1231.43,228.7a8.84,8.84,0,0,1,6.26,3.61c.31.48.64.94,1,1.38a4.74,4.74,0,0,1,.72,1.5,12.15,12.15,0,0,1,.48,5.17,16.22,16.22,0,0,0,.36,5.47c.4,1.41.8,2.75,1.2,4q1.08,3.38-1.32,9c-1.2,3.45-2.69,5.49-4.45,6.13l-2.16.72a11.88,11.88,0,0,1-5.35.78,4.86,4.86,0,0,1-3.07-1.26,7.66,7.66,0,0,1-1.2-7.21,7.14,7.14,0,0,0,0-2.65,2.55,2.55,0,0,0-2-2.28,1.79,1.79,0,0,1-1.27-.84c-.2-.41-.36-.75-.48-1a2,2,0,0,0-.36-.6q-.18-.18-1.14.54c-.64.48-1,.75-1.08.78s-.35,0-.78-.18a1.42,1.42,0,0,0-1.27.12,4.08,4.08,0,0,0-1.2,1.33q-2.16,3.72-.84,12.14c.32,1.68.64,3.25,1,4.69a43.8,43.8,0,0,1,.9,7.21,13.37,13.37,0,0,1-.72,3.79c-.44,1.32-.82,2.63-1.14,3.91q-1.44,4.93.36,8.41a40.19,40.19,0,0,0,2.76,5.05,3.23,3.23,0,0,0,5-.66,26.36,26.36,0,0,0,1.57-3,31.47,31.47,0,0,1,1.56-3.07,3.15,3.15,0,0,1,2-1.68,10,10,0,0,1,3-.06q1.8.18,2.46.18a2.84,2.84,0,0,1,1.63.78c.64.52,1,1.68,1,3.49s.1,3.24.18,4.33a4.1,4.1,0,0,1-.84,2.88,7.37,7.37,0,0,0-1.26,2.29,11.5,11.5,0,0,0-.42,2,7.8,7.8,0,0,1-.91,3.73,19.86,19.86,0,0,1-1.44,2c-.44.52-1.6.78-3.49.78a6.68,6.68,0,0,0-5.11,2.65q-2.28,2.64-4.32,2.34a3.54,3.54,0,0,1-2.89-2.46c-.56-1.29-1.8-2-3.73-2.05a6.39,6.39,0,0,1-1.56-.42,8.41,8.41,0,0,0-1.68-.48,5.53,5.53,0,0,1-1.93-.78,10.07,10.07,0,0,1-4-4.21,24.51,24.51,0,0,0-1.87-3,20.21,20.21,0,0,1-1.5-2.29,6.41,6.41,0,0,1-1.2-4.57q.72-5.78-1.57-7.57c-.88-.56-1.32-1-1.32-1.33a9.38,9.38,0,0,0-.48-2,8.69,8.69,0,0,1,.06-5.05,12.64,12.64,0,0,0,.54-4.75c-.16-1.24-.36-2.54-.6-3.91-.48-3.52-.52-5.85-.12-7a11.63,11.63,0,0,0,.3-4.81c-.2-2.08-.3-3.79-.3-5.11s-.1-3.06-.3-5.23a44.66,44.66,0,0,1-.06-7q.84-9.37,6.37-12.87,8.3-4.92,10.58-4.69a10.46,10.46,0,0,1,1.75.18,4.55,4.55,0,0,0,2-.06,5.33,5.33,0,0,0,1.68-.72c.48-.32,1-.68,1.45-1.08q2.88-2.64,5.17-.6a21.57,21.57,0,0,0,3.36,3.37A11.15,11.15,0,0,0,1231.43,228.7Z"/><path d="M1277.6,298.43l.12-9.13v-3c0-2.4-.24-3.93-.72-4.57a3.59,3.59,0,0,0-3.37-1.62,4.06,4.06,0,0,0-3.3,1.38,6.14,6.14,0,0,0-1.2,3.25c-.12,1.28-.2,2.68-.24,4.21s-.06,3.16-.06,4.93a55.66,55.66,0,0,0,.06,8.17,10.92,10.92,0,0,1,0,3.67,4.07,4.07,0,0,1-1.27,1.56,5.73,5.73,0,0,0-1.56,2.05q-.6,1.26-1.08,2.58c-1,2.08-2,3.17-3,3.25q-4.68.48-8-5a11.19,11.19,0,0,0-1.93-2.53q-2.52-2.76-1-8.89a29.25,29.25,0,0,0,.6-6,27.9,27.9,0,0,0-.24-4.39,9,9,0,0,1,0-2.94,4.94,4.94,0,0,0-.36-2.89,6.39,6.39,0,0,1-.42-3.3,10,10,0,0,0-.24-3.55,5.79,5.79,0,0,1-.18-2.7,2.35,2.35,0,0,0-.3-1.93,2.83,2.83,0,0,1-.36-2.1c.12-.92.22-1.91.3-2.95.24-2.88-.12-5.09-1.08-6.61a24.92,24.92,0,0,1-2.47-5.29,11.61,11.61,0,0,1,.3-7.22,33.86,33.86,0,0,0,1.21-14.06,8.62,8.62,0,0,1,.84-4.45q1.56-4,10.22-4.45a23.13,23.13,0,0,0,5-.72,8.83,8.83,0,0,1,4.45-.06,3.19,3.19,0,0,1,2.58,2.82,20.15,20.15,0,0,0,.66,3.13,8.61,8.61,0,0,1,.42,1.68,15.64,15.64,0,0,1-.48,5,38.65,38.65,0,0,0-.84,5.77c-.08,1.57-.12,3.07-.12,4.51a25.59,25.59,0,0,1-.42,7.52,7.42,7.42,0,0,0-.42,3.36,3.6,3.6,0,0,0,1,1.87c1.6,1.44,3.81,1.28,6.61-.48a3.17,3.17,0,0,0,1.08-1.21,56,56,0,0,1-.72-8.29q-.12-7.34-.48-11.48a27.57,27.57,0,0,1,.12-6.92,10.76,10.76,0,0,1,2.53-5.17q2-2.4,3.78-2.1a5.2,5.2,0,0,1,2.89,1.44,2.66,2.66,0,0,0,2.1,1,7.16,7.16,0,0,0,2.65-1.2q4.44-2.64,8.3,3.25-1.21,1.2-.67,4.39a12,12,0,0,1,.18,4.56,20,20,0,0,0-.48,3.85c-.08,1.65-.14,3.23-.18,4.75a47.47,47.47,0,0,1-.66,6,45,45,0,0,0-.12,11.91,62.77,62.77,0,0,1,.24,12.14,60.06,60.06,0,0,0-.24,9,14.63,14.63,0,0,1-.18,4.81q-.42,1.2-.9,2.4a17.83,17.83,0,0,0-2,7.09c-.17,2-.29,4-.36,6a33.16,33.16,0,0,1-.61,5.23c-.72,3.44-2.36,5.17-4.93,5.17-2.88,0-4.53-2.21-4.93-6.62a9.34,9.34,0,0,1-4.5-2.88Q1277.36,303.37,1277.6,298.43Z"/><path d="M1317,230.62a15.28,15.28,0,0,0,2.28-2.58,12.09,12.09,0,0,1,2.53-2.59q4.2-3.48,8.41-2a40.45,40.45,0,0,0,9.5,2.4c2.89.33,5,1.05,6.32,2.17a22.2,22.2,0,0,1,3.42,3.6,20.74,20.74,0,0,1,4.21,10,5.75,5.75,0,0,0,.72,2.89c1,1.76,1.38,4.13,1,7.09a32.71,32.71,0,0,0-.36,6.2,7.88,7.88,0,0,0,.6,2.58c.28.56.55,1.12.79,1.68a11.75,11.75,0,0,1,1,4.57,10.34,10.34,0,0,1-1.93,5.77c-.56.73-.76,2.13-.6,4.21s.28,4.17.36,6.25c.08,5.22-.2,8.44-.84,9.68a9.31,9.31,0,0,1-1.38,2.23,8.25,8.25,0,0,1-.78.6c-1.2.56-2.27,2.22-3.19,5a19.08,19.08,0,0,1-3.67,6.73,23.75,23.75,0,0,1-4.74,4.21l-3.85,2.52a7.6,7.6,0,0,0-2,1.75l-1.2,1.68a4.89,4.89,0,0,1-4,1.92c-2.72,0-4.73-.64-6-1.92a16.84,16.84,0,0,1-1.8-3.13,15.38,15.38,0,0,0-4.81-5.29,9.63,9.63,0,0,1-4.09-6.85,9.13,9.13,0,0,1-.18-3.12,15.61,15.61,0,0,0-.18-4,17.22,17.22,0,0,0-1-4.33,12.92,12.92,0,0,1-.84-3.61c-.41-3.36-1.53-5.17-3.37-5.41q-2-.24-2.4-6.13a33.22,33.22,0,0,1,.24-5.71,28.31,28.31,0,0,1,1-4.63,23.73,23.73,0,0,0,.6-8.12,47,47,0,0,1,0-8.23,28.07,28.07,0,0,1,2.89-10.94,15,15,0,0,1,3.18-3.61C1314.29,232.91,1315.68,231.75,1317,230.62Zm7.63,34.39a5.4,5.4,0,0,0,1.21,2.7,6.83,6.83,0,0,1,1.32,3.19,20.07,20.07,0,0,1,.3,4.75c-.08,1.73-.12,3.37-.12,4.93a33.24,33.24,0,0,0,.24,4.21,20.6,20.6,0,0,0,.72,3.42q1.32,3.74,3.73,3.73,3.72,0,5.17-14.43a87.46,87.46,0,0,0,.48-10.16,27.23,27.23,0,0,0-1.92-10.7q-1.93-4.5-4.69-4.5T1326.3,258C1325,261.56,1324.47,263.89,1324.67,265Z"/><path d="M1421.28,312.74c-2.64,0-3.85-2.24-3.61-6.73a78.55,78.55,0,0,0,.06-8.06,27,27,0,0,0-1.5-7.33,40.83,40.83,0,0,1-1.8-7,15,15,0,0,1,.72-6.86,22.42,22.42,0,0,0,.24-11.78,10.2,10.2,0,0,1-.24-2.22,17,17,0,0,0-.12-2.11q-.12-2.28-1.2-2.28c-.65,0-1.08.56-1.33,1.68a33.8,33.8,0,0,1-1.68,6.73q-2.64,6.26-2,10.34,1.56,6-.24,9.26a5.93,5.93,0,0,1-2,2.29,5,5,0,0,0-1.56,1.26,3.41,3.41,0,0,0-.3,1.92,3.1,3.1,0,0,1-.66,2.23,3.84,3.84,0,0,0-.9,1.8c-.12.64-.27,1.24-.42,1.8a2.27,2.27,0,0,1-2.65,1.93,3.34,3.34,0,0,1-2.83-2.53,28.61,28.61,0,0,1-1.2-5.29l-.84-6a10.18,10.18,0,0,0-1.56-4.57,9.35,9.35,0,0,1-1.57-3.12,27.89,27.89,0,0,1-.66-3.25,16.35,16.35,0,0,0-1.56-5.65,15.76,15.76,0,0,1-1.32-5.41,40,40,0,0,0-.9-5.41c-.29-1-.79-1.45-1.51-1.45s-1.24.69-1.32,1.81a5.8,5.8,0,0,0,.36,2.76,8.06,8.06,0,0,1,.12,3.85,13.52,13.52,0,0,0,.12,4.81c.32,1.36.64,2.58,1,3.67s.6,2.22.84,3.42a19.85,19.85,0,0,1,.55,8.36,43.92,43.92,0,0,0-.79,5.29,3.2,3.2,0,0,1-1.5,2.71,3.6,3.6,0,0,0-1.68,1.74,9.66,9.66,0,0,0-.42,2c-.08.77-.16,1.57-.24,2.41a11.48,11.48,0,0,1-.84,3.06q-1.57,3.86-1,5.65a4.86,4.86,0,0,1-.6,3.85,4,4,0,0,1-3.24,2.23,4.72,4.72,0,0,1-3.37-.79,9.85,9.85,0,0,1-2.22-2.4,22.86,22.86,0,0,1-3.13-14.67c.08-1.2.18-2.4.3-3.61a24,24,0,0,0-.06-4.44q-.36-6.49-3-10.22a11.7,11.7,0,0,1-2-6.14c-.4-4.16-.16-7.13.72-8.89a9,9,0,0,0,.6-3.79c0-1.72,0-3-.06-3.73a4.91,4.91,0,0,1,.12-1.68,8,8,0,0,0,.24-1.92c0-.93.06-2,.06-3.19a26.92,26.92,0,0,0-.84-5.95,28.94,28.94,0,0,1-.9-4.69,18.22,18.22,0,0,1,.06-3.91c.24-2.88.74-4.93,1.5-6.13a4.71,4.71,0,0,1,2.11-2.11,7.57,7.57,0,0,1,2.16-.3,4.39,4.39,0,0,0,2-.42,18.94,18.94,0,0,1,1.81-.78,5.26,5.26,0,0,1,4-.12,6.42,6.42,0,0,0,3.3.48,22.44,22.44,0,0,0,2.59-.6c2.08-.8,3.67-1,4.75-.6a7.53,7.53,0,0,1,2.94,2,5.79,5.79,0,0,1,1.51,2.35,2.47,2.47,0,0,0,.54,1.26,7.83,7.83,0,0,0,.84.72,3.35,3.35,0,0,1,1,2.65,24.49,24.49,0,0,0,1.44,7.09q2.54,8.41,4.81,9.14c.32.08.88-.16,1.69-.72a4.42,4.42,0,0,0,1.68-2.53,11.87,11.87,0,0,0,.48-4.39,2.92,2.92,0,0,1,.42-2.34,3,3,0,0,0,.72-1.56c0-.48.1-1.12.18-1.93a22.36,22.36,0,0,1,.48-2.76,14,14,0,0,1,2.77-6,6.72,6.72,0,0,1,3.73-2.41,14.12,14.12,0,0,1,3.9-.18l4,.36a8.5,8.5,0,0,0,4-.66q5.41-2.4,7.45-.12a4,4,0,0,0,1.15.84l1,.48a3.11,3.11,0,0,1,1.14,2.23,8.2,8.2,0,0,0,.42,2q.24.54.48,1,1.32,3.13,1.68,10.82.36,12.63-.48,14.43c.56,3.29.28,5.61-.84,7l-.72.72a9.63,9.63,0,0,0-2.64,5.77,5,5,0,0,0,.06,2.4,7.26,7.26,0,0,1,.3,2.05q0,1.08-.06,1.92c0,.56-.06,1.16-.06,1.8a29.87,29.87,0,0,0-.06,5.05,7.08,7.08,0,0,1,0,2.29,8.89,8.89,0,0,1-.43,1.32,6.23,6.23,0,0,0-.36,3.07,4.07,4.07,0,0,1,0,2,11,11,0,0,1-.6,1.44,10.89,10.89,0,0,0-.78,5.23,22.09,22.09,0,0,1-.24,5.35,23.39,23.39,0,0,0-.42,4.45q-.24,6.38-1.68,5.89c-.41-.16-.75,0-1,.61a9.19,9.19,0,0,0-.73,2.16,1.1,1.1,0,0,1-1.62.9,2.61,2.61,0,0,1-1.74-2,3.68,3.68,0,0,0-1.08-2A3.42,3.42,0,0,0,1421.28,312.74Z"/><path d="M1457.23,315.39c-1.12-.08-2.26-1.29-3.43-3.61a27.46,27.46,0,0,1-2.4-8.9c-.44-3.6-.74-6.05-.9-7.33a27,27,0,0,0-.48-2.89,7.89,7.89,0,0,0-1.39-3.18,8.81,8.81,0,0,1-1.26-2.11,30.9,30.9,0,0,1-.12-5.41q.24-9.25-.84-12.26a4.68,4.68,0,0,1-.36-2.17,8.81,8.81,0,0,0,.06-1.8,4.86,4.86,0,0,0-.66-2,25.35,25.35,0,0,1-1.2-2.53c-1.29-2.56-1.93-4.33-1.93-5.29a9,9,0,0,1,1.2-4.09,28,28,0,0,0,3.07-6.19,17.77,17.77,0,0,0,.36-4.45c0-1.8-.06-3.62-.06-5.47q-.24-7.09,1.2-8.89a5.1,5.1,0,0,1,2.29-1.33q1.32-.36,3.36-1.08a20.68,20.68,0,0,1,6.2-1.44,4.82,4.82,0,0,1,3.36,1.14,5.09,5.09,0,0,0,3,1.32,7.29,7.29,0,0,0,2.34,0l1.15-.3a6.53,6.53,0,0,1,2.4-.6,2.46,2.46,0,0,1,2.28,1.2,22,22,0,0,0,1.33,2,1.74,1.74,0,0,0,2,.42,9.1,9.1,0,0,1,2.1-.36H1481a7.92,7.92,0,0,0,3.12-.12q2.65-.84,4.09.84a2.34,2.34,0,0,0,1.68,1.2,8.44,8.44,0,0,1,2.29,1,6.49,6.49,0,0,1,3.13,4.21,23,23,0,0,1,.48,11.42c-.33,1.37-.59,2.45-.79,3.25s-.36,1.5-.48,2.1a14.36,14.36,0,0,0-.24,1.75q-.06.84-.12,2c0,.8-.06,1.68-.06,2.65v3.24a56.2,56.2,0,0,0,.24,5.89q.72,6-5.41,8.66a11.24,11.24,0,0,0-2.88,1.56,5.71,5.71,0,0,0-1.45,2.17,18.28,18.28,0,0,1-2.22,3.61,10.77,10.77,0,0,1-4.93,3.42c-2.2.84-4.11,1.55-5.71,2.11s-2.61,1.24-3,2c-.56,1-.7,3.51-.42,7.39a68.62,68.62,0,0,1,.3,7.4,17.39,17.39,0,0,1-.36,2.58,2.55,2.55,0,0,1-1.2,1.63,3.3,3.3,0,0,1-1.68.6,2.3,2.3,0,0,0-1.51.72,15.31,15.31,0,0,0-1.38,1.44,10.29,10.29,0,0,1-1.32,1.32A5.62,5.62,0,0,1,1457.23,315.39Zm8.18-67.33c-.48.48-1,1.88-1.45,4.21a28.87,28.87,0,0,0-.72,5.53,7.83,7.83,0,0,0,.84,3.66,5.5,5.5,0,0,1,.79,2.65q-.06,1-.24,2.16a15.21,15.21,0,0,0-.18,2.35c-.17,1.92,0,3.12.48,3.6a1.69,1.69,0,0,0,1.62.54,7.44,7.44,0,0,0,1.86-.66,15.21,15.21,0,0,0,1.75-1,5.69,5.69,0,0,1,1.56-.78,1.79,1.79,0,0,0,1.14-1.08,3.8,3.8,0,0,1,1.08-1.44,3,3,0,0,0,1.15-1.63q.3-1,.6-2.16a3.64,3.64,0,0,0-.06-2.17c-.24-.68-.68-1.7-1.33-3.06a6.49,6.49,0,0,1-.48-3.25c.64-3.36.24-5.69-1.2-7a7.55,7.55,0,0,0-4.63-1.44A4.46,4.46,0,0,0,1465.41,248.06Z"/><path d="M1517.35,276.55l-.24,8.54q0,8.3-3.49,11.06a5.93,5.93,0,0,1-4,1.32,4.24,4.24,0,0,1-2.7-1.32,3.93,3.93,0,0,1-1-2.52,30.81,30.81,0,0,0-.61-4.15q-.54-2.72-1.32-5.41a16.4,16.4,0,0,1-.54-5.83c.16-2.09.26-4.05.3-5.9a6.16,6.16,0,0,0-1-4.08,6.4,6.4,0,0,1-1.44-4.09,6.21,6.21,0,0,1,.48-2.53,17.17,17.17,0,0,0,1.08-5.53q0-2.4-.12-3.48c-.08-.73-.18-1.43-.3-2.11s-.26-1.72-.42-3.12a24.07,24.07,0,0,1,0-4.81,31.23,31.23,0,0,0,0-5.47c-.16-1.85-.26-3.33-.3-4.45a11.1,11.1,0,0,1,.78-4,13.74,13.74,0,0,1,1.38-3.07,5.21,5.21,0,0,1,1.86-1.38c.89-.44,1.49-.76,1.81-1a1.94,1.94,0,0,1,1.32-.18,3.29,3.29,0,0,1,1.8,1.14,7.21,7.21,0,0,0,2.29,1.62c.88.41,1.9.89,3.06,1.45a3.31,3.31,0,0,1,2,2.7,10.39,10.39,0,0,0,.42,2.23,2.28,2.28,0,0,0,.42.6,13.84,13.84,0,0,1,.48,3.18,16.5,16.5,0,0,1-.42,5.41,23,23,0,0,0-.72,4.51,13.34,13.34,0,0,1-.66,3.67,9.59,9.59,0,0,0-.42,3.85,15.06,15.06,0,0,1,.06,2.94,17.08,17.08,0,0,1-.3,1.75,7.18,7.18,0,0,0-.18,1.62,12.27,12.27,0,0,0,.42,2.58,11.68,11.68,0,0,1,.36,3.19,20.33,20.33,0,0,0,.12,3.07,14.63,14.63,0,0,1,0,3.24A46.73,46.73,0,0,0,1517.35,276.55Zm-15.15,34.87a3,3,0,0,1-.18-1.8,5.52,5.52,0,0,1,2-2.53,25.29,25.29,0,0,1,4.45-3c1.76-1,4.17-1.25,7.21-.85a4.29,4.29,0,0,1,3.37,2.53q2.52,4.32-2.28,7.81a10.54,10.54,0,0,1-3.85,1.75,3.91,3.91,0,0,0-2.35,1.08,1.94,1.94,0,0,1-2.1.42,2.61,2.61,0,0,1-1.92-1.5,2.55,2.55,0,0,0-1.45-1.51,6.68,6.68,0,0,1-1.74-1A3.58,3.58,0,0,1,1502.2,311.42Z"/><path class="cls-1" d="M1427.27,610.91c-30.86-14.38-62.25-29.14-94.69-39.61-15.48-5-32.16-6.61-48.16-9.16-22.05-3.53-44.11-7-66.23-10-7.2-1-14.5-2.23-21.77-2.56-10.87-.49-21.8-.34-32.68-.54-7.72-.13-7.72,11.87,0,12,15.69.28,31.28.05,46.85,2.08,21,2.73,41.83,6,62.69,9.33,16.59,2.63,34,4.22,50.21,8.66,19.13,5.23,37.6,13.55,55.76,21.39q21.11,9.1,42,18.78c7,3.24,13.06-7.1,6.06-10.36Z"/><rect class="cls-1" x="1457.64" y="576.34" width="12" height="34" rx="6" transform="translate(466.8 -631.66) rotate(28.8)"/><path class="cls-2" d="M1480.79,793.87c-15.76,87.23-36.86,47.89-70.56,41.81s-67.22,23.38-51.47-63.85c2.89-16,18-98.24,21.67-114.16,16.3-70.88,29.41-68,72.81-60.14,42.1,7.6,56,12.9,46.27,87C1497.61,699.07,1483.36,779.61,1480.79,793.87Z"/><path class="cls-1" d="M1196.9,548.55l-17.65-14.18c-2.52-2-6-2.46-8.48,0-2.1,2.1-2.54,6.45,0,8.49L1188.42,557c2.52,2,6,2.46,8.48,0,2.1-2.1,2.54-6.45,0-8.49Z"/><path class="cls-1" d="M599.27,610.91c-30.86-14.38-62.25-29.14-94.69-39.61-15.48-5-32.16-6.61-48.16-9.16-22.05-3.53-44.11-7-66.23-10-7.2-1-14.5-2.23-21.77-2.56-10.87-.49-21.8-.34-32.68-.54-7.72-.13-7.72,11.87,0,12,15.69.28,31.28.05,46.85,2.08,21,2.73,41.83,6,62.69,9.33,16.59,2.63,34,4.22,50.21,8.66,19.13,5.23,37.6,13.55,55.76,21.39q21.11,9.1,42,18.78c7,3.24,13.06-7.1,6.06-10.36Z"/><path class="cls-1" d="M368.9,548.55l-17.65-14.18c-2.52-2-6-2.46-8.48,0-2.1,2.1-2.54,6.45,0,8.49L360.42,557c2.52,2,6,2.46,8.48,0,2.1-2.1,2.54-6.45,0-8.49Z"/><path class="cls-1" d="M1374.62,852.07A83.49,83.49,0,0,0,1369,879c-.22,3.75-.24,7.5-.35,11.26-.06,2,.39,6.62-.76,8.12-.82,1.07-7.62.54-9.86.24a60.61,60.61,0,0,1-9-1.93c-7.43-2.15-10.6,9.42-3.19,11.58,8.79,2.55,22.94,5.7,30.42-1.36,5.09-4.8,4.34-13.56,4.48-19.95.25-11,1.34-21.41,5.52-31.68,2.91-7.15-8.7-10.26-11.57-3.19Z"/><path class="cls-1" d="M1418,867.54c5.49,9.33,8,19.42,9.78,30,1.1,6.41,1.57,15.35,7.63,19.26,8.76,5.65,22.06.27,30.58-3.62,7-3.21.92-13.55-6.06-10.36l-.7.31c1.62-.68-.83.33-1.1.43-2.17.82-4.35,1.59-6.58,2.21s-8.24,2.13-9.45,1.16c-1.49-1.19-1.76-6.88-2.08-8.66-.65-3.7-1.22-7.41-2-11.09a83.86,83.86,0,0,0-9.68-25.69c-3.92-6.64-14.3-.61-10.36,6.06Z"/><path class="cls-3" d="M1476.3,846.84c12.84-71.09,7.73-45.6-57.71-57.42s-62.3-37.67-73.17,33.79c-.29,1.92-.59,3.68-.75,5.34-.6,2.55-1.15,5.15-1.63,7.82-6.38,35.34,9.14,17.63,23.86,20.28,6.46,1.17,11.69,6.07,16.07,8.21a5.07,5.07,0,0,0,2.3.85,5.2,5.2,0,0,0,2.45,0c4.85-.48,11.47-3.23,17.93-2.07s11.69,6.06,16.06,8.2a5.16,5.16,0,0,0,2.31.86,5.08,5.08,0,0,0,2.45,0c4.85-.47,11.46-3.23,17.92-2.06,14.72,2.66,23.07,24.68,29.45-10.66.44-2.47.82-4.9,1.14-7.31C1475.47,850.92,1475.91,849,1476.3,846.84Z"/><rect class="cls-1" x="624.64" y="576.34" width="12" height="34" rx="6" transform="translate(363.79 -230.41) rotate(28.8)"/><path class="cls-2" d="M779.5,562.73c-15.62,48-69.57,56.76-126.55,38.21s-95.4-57.43-79.78-105.41,46.5-97.58,136.36-68.31C794.63,454.93,795.13,514.76,779.5,562.73Z"/><path class="cls-2" d="M647.79,793.87c-15.76,87.23-36.86,47.89-70.56,41.81S510,859.06,525.76,771.83c2.89-16,18-98.24,21.67-114.16,16.3-70.88,29.41-68,72.81-60.14,42.1,7.6,56,12.9,46.27,87C664.61,699.07,650.36,779.61,647.79,793.87Z"/><circle class="cls-4" cx="729.87" cy="515.22" r="33.5"/><ellipse cx="710.46" cy="515.29" rx="20.94" ry="4.28" transform="translate(0.49 1031.25) rotate(-71.96)"/><circle class="cls-4" cx="623.36" cy="477.38" r="33.5"/><ellipse cx="609.25" cy="484.49" rx="20.94" ry="4.28" transform="translate(-40.09 913.76) rotate(-71.96)"/><path class="cls-1" d="M794.91,539.71s-7.87.45-7.84-5.56-1.58-36.61,4.62-55.65,17.66-42.38,19.4-41.81,4.32,10.43,5.18,13.71,2.46,10.87,5.18,13.72c3.22,3.39,11,19.47,11.24,24.72.27,5.5,4.3,16.44-2.74,26.19S802.77,539.26,801,538.69,794.91,539.71,794.91,539.71Z"/><path class="cls-1" d="M576.25,470.6s6.09,5,9.61.12,22.84-28.66,29-47.7,10.68-44.65,8.94-45.22-9.64,5.89-12.27,8-8.39,7.34-12.26,8c-4.6.83-20.34,9.26-23.65,13.36-3.45,4.28-13.15,10.76-13.2,22.77s7.7,35.6,9.44,36.17S576.25,470.6,576.25,470.6Z"/><path class="cls-1" d="M541.62,852.07A83.49,83.49,0,0,0,536,879c-.22,3.75-.24,7.5-.35,11.26-.06,2,.39,6.62-.76,8.12-.82,1.07-7.62.54-9.86.24a60.61,60.61,0,0,1-9-1.93c-7.43-2.15-10.6,9.42-3.19,11.58,8.79,2.55,22.94,5.7,30.42-1.36,5.09-4.8,4.34-13.56,4.48-19.95.25-11,1.34-21.41,5.52-31.68,2.91-7.15-8.7-10.26-11.57-3.19Z"/><path class="cls-1" d="M585,867.54c5.49,9.33,8,19.42,9.78,30,1.1,6.41,1.57,15.35,7.63,19.26,8.76,5.65,22.06.27,30.58-3.62,7-3.21.92-13.55-6.06-10.36l-.7.31c1.62-.68-.83.33-1.1.43-2.17.82-4.35,1.59-6.58,2.21s-8.24,2.13-9.45,1.16c-1.49-1.19-1.76-6.88-2.08-8.66-.65-3.7-1.22-7.41-2-11.09a83.86,83.86,0,0,0-9.68-25.69c-3.92-6.64-14.3-.61-10.36,6.06Z"/><path class="cls-3" d="M643.3,846.84c12.84-71.09,7.73-45.6-57.71-57.42s-62.3-37.67-73.17,33.79c-.29,1.92-.59,3.68-.75,5.34-.6,2.55-1.15,5.15-1.63,7.82-6.38,35.34,9.14,17.63,23.86,20.28,6.46,1.17,11.69,6.07,16.07,8.21a5.07,5.07,0,0,0,2.3.85,5.2,5.2,0,0,0,2.45,0c4.85-.48,11.47-3.23,17.93-2.07s11.69,6.06,16.06,8.2a5.16,5.16,0,0,0,2.31.86,5.08,5.08,0,0,0,2.45,0c4.85-.47,11.46-3.23,17.92-2.06,14.72,2.66,23.07,24.68,29.45-10.66.44-2.47.82-4.9,1.14-7.31C642.47,850.92,642.91,849,643.3,846.84Z"/><path class="cls-2" d="M781.81,496.63c-2,6.15-19-4.23-42.42-11.84s-44.21-9.57-42.21-15.72,9.72-11.29,46.57.72C778.65,481.15,783.81,490.48,781.81,496.63Z"/><path class="cls-2" d="M687.43,483.24c-3.44,4.63-16.59-10.24-36.32-24.89S612.54,434.81,616,430.18s11.91-6.42,43,16.69C688.48,468.76,690.87,478.61,687.43,483.24Z"/><path class="cls-2" d="M655.57,514c-1.78,11.18-17,.62-37.75-2.68s-39.34,1.89-37.57-9.29,8.64-23,41.43-17.76C652.75,489.16,657.35,502.78,655.57,514Z"/><path class="cls-2" d="M757.54,558.15c-4,12.45-19.64-2.41-43-10s-45.67-5.09-41.62-17.54,14.08-24.67,50.93-12.67C758.74,529.29,761.59,545.7,757.54,558.15Z"/><path class="cls-5" d="M655.83,506.61a11.16,11.16,0,0,0-6.7,6.68c-1.65,5.07,3.21,13,3.21,13"/><path d="M689,594c-13.61.47-44.7-15.84-47-15.38C612,558,606,556,605,552c-1.76-7-13.25-49.48-7-48,9.55,2.27,43.62,34.92,58,42,17,8.39,75.91,2.77,82,8C740.41,556.06,692.75,593.87,689,594Z"/><polygon class="cls-6" points="683.6 576.21 672.6 588.48 685.64 592.56 683.6 576.21"/><polygon class="cls-6" points="622.93 546.4 608.45 554.28 619.36 562.5 622.93 546.4"/><path class="cls-5" d="M607.48,554.43S636.8,575.75,643,578.57s43.8,14.67,43.8,14.67"/><path class="cls-1" d="M658.13,635.13c-30,14.07-60.54,28.53-92.13,38.72-15.17,4.89-31.52,6.5-47.19,9-21.92,3.55-43.86,7-65.86,10.1-17.41,2.44-34.58,2.56-52.16,2.9-7.71.15-7.74,12.15,0,12,15.83-.31,31.54-.13,47.25-2.22,21.67-2.88,43.28-6.3,64.88-9.75,16.88-2.7,34.61-4.33,51.11-8.95,19.62-5.48,38.55-14.1,57.21-22.17q21.6-9.36,43-19.31c7-3.28.9-13.63-6.06-10.37Z"/><path class="cls-1" d="M425.47,699.84l-17.62,14.21c-2.53,2-2.12,6.37,0,8.49,2.49,2.49,5.95,2,8.48,0L434,708.33c2.53-2,2.12-6.37,0-8.49-2.49-2.49-5.95-2-8.48,0Z"/><path class="cls-1" d="M1491.13,635.13c-30,14.07-60.54,28.53-92.13,38.72-15.17,4.89-31.52,6.5-47.19,9-21.92,3.55-43.86,7-65.86,10.1-17.41,2.44-34.58,2.56-52.16,2.9-7.71.15-7.74,12.15,0,12,15.83-.31,31.54-.13,47.25-2.22,21.67-2.88,43.28-6.3,64.88-9.75,16.88-2.7,34.61-4.33,51.11-8.95,19.62-5.48,38.55-14.1,57.21-22.17q21.6-9.36,43-19.31c7-3.28.9-13.63-6.06-10.37Z"/><path class="cls-1" d="M1258.47,699.84l-17.62,14.21c-2.53,2-2.12,6.37,0,8.49,2.49,2.49,6,2,8.48,0L1267,708.33c2.53-2,2.12-6.37,0-8.49-2.49-2.49-6-2-8.48,0Z"/><path class="cls-4" d="M303.54,677.38c32.93,51.12,109.24,37.89,183.19-9.75S604.27,556,571.33,504.85s-87.24-97.47-203.86-22.34C257,553.68,270.6,626.26,303.54,677.38Z"/><path class="cls-7" d="M368,635.86c-28.37-44-46.42-101.42,3.37-151.41,68.16-26,109.43,16.41,137.8,60.46,26.41,41,12.57,84.49-23.22,119C439.73,682.22,394.39,676.84,368,635.86Z"/><path class="cls-7" d="M336.38,502.54c4-2.6,8-5,11.87-7.15-72.22,53.36-53.45,118.55-22,167.36,30.7,47.66,87,47.18,140.52,17.24q-5.37,3.94-11.13,7.67c-56.78,36.58-119.17,40.84-152.1-10.28S251.57,557.18,336.38,502.54Z"/><path class="cls-7" d="M547.82,520c-31.45-48.81-78.73-95.62-160.9-49.51,3.41-2.52,7-5,10.84-7.48,89.54-57.69,139.84-8.76,172.77,42.36S573.8,611.53,517,648.11q-5.76,3.72-11.58,7C554.81,618.73,578.53,567.66,547.82,520Z"/><path class="cls-8" d="M379.09,477.2s-1.73-4.51-3.63-6-7.39-8.46-14.89-10.51-17.62-2.92-17.86-2-3.28,2.37-2.46,3.55,9.15,5.42,17.16,16.09c1.34,1.78,4.84,10.25,9.61,9.65s10-7.52,10.27-8.41A8.24,8.24,0,0,1,379.09,477.2Z"/><path class="cls-4" d="M405.06,612c-28.38-44-53.36-97-33.62-127.57,37-6,73.19,39.75,101.57,83.8,26.4,41,27.91,74.6,13.39,95.4C461.46,668.23,431.46,653,405.06,612Z"/><path d="M445.63,696.41c-8.87,5.62-28.93,11.93-28.93,11.93s-21.13-6.31-16.49-6.45,22.71-2.74,22.71-2.74-8.2-17.6-4.2-13,21.17,5.74,21.17,5.74,4.89-20.64,6.66-15.86,7.93,3.33,7.93,3.33,7.64-20,9.42-15.21,5.45,10.73,8.85,8.63,17.35-11.87,20.55-16.2-8.28-.31.08-5.69,17.45-19.23,16.67-12.87,1.36,11.72,4.65,7.53,11.12-22,11.52-17.51-1.23,9.43,3.25,5.26,11-16.41,10.37-13.66,3,8.37-.89,12.71-25.82,23.74-39.82,33.56-31.82,19.63-38.49,23.75S454.5,690.79,445.63,696.41Z"/><path d="M427.29,510.93c-6.36-1.71,40.3,46.51,38.29,38.94s-1-27,.52-22.63,28.26,12.42,20.9,5.31-14.09-16.67-17.47-18.84S433.66,512.64,427.29,510.93Z"/><path d="M543.45,478.05a32.84,32.84,0,0,1-4.1-11.82c-10.71-10.27-22.79-18.73-36.58-23.87h0c5.08,7.09,5.93,24.52,7.52,30,1.67,5.77,18.37,19.23,14.14,10.74s-.69-19.24.61-14.68S548.3,486.38,543.45,478.05Z"/><path d="M503,439.74h0Z"/><path class="cls-4" d="M1128.54,731.38c32.93,51.12,109.24,37.89,183.19-9.75s117.54-111.67,84.6-162.78-87.24-97.47-203.86-22.34C1082,607.68,1095.6,680.26,1128.54,731.38Z"/><path class="cls-7" d="M1193,689.86c-28.37-44-46.42-101.42,3.37-151.41,68.16-26,109.43,16.41,137.8,60.46,26.41,41,12.57,84.49-23.22,119C1264.73,736.22,1219.39,730.84,1193,689.86Z"/><path class="cls-7" d="M1161.38,556.54c4-2.6,8-5,11.87-7.15-72.22,53.36-53.45,118.55-22,167.36,30.7,47.66,87,47.18,140.52,17.24q-5.37,3.94-11.13,7.67c-56.78,36.58-119.17,40.84-152.1-10.28S1076.57,611.18,1161.38,556.54Z"/><path class="cls-7" d="M1372.82,574c-31.45-48.81-78.73-95.62-160.9-49.51,3.41-2.52,7-5,10.84-7.48,89.54-57.69,139.84-8.76,172.77,42.36s3.27,106.17-53.51,142.75q-5.76,3.72-11.58,7C1379.81,672.73,1403.53,621.66,1372.82,574Z"/><path class="cls-8" d="M1204.09,531.2s-1.73-4.51-3.63-6-7.39-8.46-14.89-10.51-17.62-2.92-17.86-2-3.28,2.37-2.46,3.55,9.15,5.42,17.16,16.09c1.34,1.78,4.84,10.25,9.61,9.65s10-7.52,10.27-8.41A8.24,8.24,0,0,1,1204.09,531.2Z"/><path class="cls-4" d="M1230.06,666c-28.38-44-53.36-97-33.62-127.57,37-6,73.19,39.75,101.57,83.8,26.4,41,27.91,74.6,13.39,95.4C1286.46,722.23,1256.46,707,1230.06,666Z"/><path d="M1270.63,750.41c-8.87,5.62-28.93,11.93-28.93,11.93s-21.13-6.31-16.49-6.45,22.71-2.74,22.71-2.74-8.2-17.6-4.2-13,21.17,5.74,21.17,5.74,4.89-20.64,6.66-15.86,7.93,3.33,7.93,3.33,7.64-20,9.42-15.21,5.45,10.73,8.85,8.63,17.35-11.87,20.55-16.2-8.28-.31.08-5.69,17.45-19.23,16.67-12.87,1.36,11.72,4.65,7.53,11.12-22,11.52-17.51-1.23,9.43,3.25,5.26,11-16.41,10.37-13.66,3,8.37-.89,12.71-25.82,23.74-39.82,33.56-31.82,19.63-38.49,23.75S1279.5,744.79,1270.63,750.41Z"/><path d="M1252.29,564.93c-6.36-1.71,40.3,46.51,38.29,38.94s-1-27,.52-22.63,28.26,12.42,20.9,5.31-14.09-16.67-17.47-18.84S1258.66,566.64,1252.29,564.93Z"/><path d="M1368.45,532.05a32.84,32.84,0,0,1-4.1-11.82c-10.71-10.27-22.79-18.73-36.58-23.87h0c5.08,7.09,5.93,24.52,7.52,30,1.67,5.77,18.37,19.23,14.14,10.74s-.69-19.24.61-14.68S1373.3,540.38,1368.45,532.05Z"/><path d="M1328,493.74h0Z"/><path class="cls-2" d="M1620.11,570.33c-13.71,42.08-66.7,47.95-123.68,29.39s-96.36-54.51-82.65-96.59,42.43-85.07,132.28-55.81C1631.16,475,1633.82,528.24,1620.11,570.33Z"/><circle class="cls-4" cx="1565.35" cy="533.01" r="33.5"/><ellipse cx="1550.94" cy="522.07" rx="20.94" ry="4.28" transform="translate(574.25 1835.1) rotate(-71.96)"/><circle class="cls-4" cx="1458.84" cy="495.16" r="33.5"/><ellipse cx="1473.73" cy="493.28" rx="20.94" ry="4.28" transform="translate(548.33 1741.81) rotate(-71.96)"/><path class="cls-1" d="M1630.38,557.49s-7.86.45-7.83-5.56-1.58-36.61,4.62-55.65,17.66-42.38,19.4-41.81,4.32,10.43,5.18,13.72,2.46,10.87,5.18,13.72c3.22,3.38,11,19.46,11.24,24.72.27,5.49,4.3,16.44-2.74,26.18s-27.18,24.24-28.93,23.67S1630.38,557.49,1630.38,557.49Z"/><path class="cls-1" d="M1411.73,488.39s6.09,5,9.61.12,22.84-28.66,29-47.7,10.68-44.66,8.94-45.22-9.64,5.88-12.27,8-8.39,7.33-12.26,8c-4.6.84-20.34,9.26-23.65,13.36-3.45,4.28-13.15,10.76-13.2,22.78s7.7,35.59,9.44,36.16S1411.73,488.39,1411.73,488.39Z"/><path class="cls-2" d="M1612.59,528.83c-4.21,12.94-19.69-2.27-43.06-9.88s-45.78-4.74-41.56-17.68,14.41-25.7,51.26-13.7C1614.13,498.94,1616.8,515.9,1612.59,528.83Z"/><path class="cls-2" d="M1498.73,511c-7.28,9.81-17.7-8.74-37.43-23.39s-41.3-19.86-34-29.67,20.09-17.42,51.21,5.69C1508,485.54,1506,501.22,1498.73,511Z"/><path class="cls-2" d="M1491.05,531.74c-1.78,11.18-19.28.26-43-3.51s-44.72,1-43-10.15,9.32-22.86,46.76-16.91C1487.29,506.8,1492.82,520.57,1491.05,531.74Z"/><path class="cls-2" d="M1593,575.93c-4.06,12.45-19.65-2.41-43-10s-45.67-5.09-41.62-17.54,14.07-24.66,50.93-12.66C1594.22,547.08,1597.07,563.49,1593,575.93Z"/><path class="cls-2" d="M1418.77,500.07c11.31-3.3,7.76,14.41,13.43,33.86s18.41,33.28,7.1,36.57S1414,573,1405,542.29C1396.54,513.24,1407.46,503.37,1418.77,500.07Z"/><polygon class="cls-6" points="1494.2 549.45 1486.26 563.89 1499.88 564.92 1494.2 549.45"/><polygon class="cls-6" points="1468.46 541.1 1454.48 549.84 1465.87 557.38 1468.46 541.1"/><path class="cls-5" d="M1453.9,549.49s16.93,12,20.57,13,26.06,2,26.06,2"/><path class="cls-5" d="M1491.31,524.39a11.16,11.16,0,0,0-6.7,6.68c-1.66,5.07,3.21,13,3.21,13"/><path class="cls-2" d="M1526.21,542.4c11.43,2.81,0,14.38-4.24,31.54s.41,33.41-11,30.6-23.32-10-16.67-37C1500.56,541.87,1514.77,539.59,1526.21,542.4Z"/><path class="cls-2" d="M1424,564.87c-10.58-5.17,3.07-14,10.83-29.92s6.69-32.74,17.27-27.57,20.67,14.7,8.44,39.74C1449,570.83,1434.59,570,1424,564.87Z"/><path d="M1405.83,581.14a69.49,69.49,0,0,0-9.5-22.29c-1.21-1.88-2.45-3.76-3.73-5.62-.59,5-1,8.58-1,8.58s-27.71,3.76-30.36,2.18,12.47,21,12.47,21-38,4.69-40.6.88,11.31,22,11.31,22-38.83.12-29.74,2.9,13.29,13.1,13.29,13.1-30.6.89-25.11,6.17,4.56,17.41,1.71,19.65-1.46,6.46-10.33,4.94,20,9.17,20.67,5.76,7.81-16.78,7.39-21.6,25,2.26,22.41-4.94,1.09-12.78,3.53-10.45,20.13,4.64,14.77-1.62.2-25,2-21,29.87,3.68,21.72-.1,5.32-23.44,6.76-20.22c1.09,2.46,10.48,5.43,13.34,4.33C1406.52,583.54,1406.2,582.34,1405.83,581.14Z"/><path class="cls-7" d="M1530.42,666.33c15.86,16.06,25.94,23.95,35.85,26.75s18,11.16,11,11.8-10.82,10.76-30.75-4.06-25.18-9-27.75-23,1.25-19.85-1.14-25.55S1530.42,666.33,1530.42,666.33Z"/><path class="cls-7" d="M1418.81,700.89s-15-14.52-13.28-30,9.72-29.87,9.72-29.87,4.72,16.74,3.18,23.42S1418.81,700.89,1418.81,700.89Z"/><path class="cls-7" d="M1544.71,618.94c-19-1.12-30.15-11.41-34.25-17.76s-7.69-27.31-7.69-27.31,16.3,11.77,24.41,20-.21,5.27,13.79,12.55S1561.1,619,1561.1,619c-16.18-.42-10.26,2.47-7.06,5.19S1544.71,618.94,1544.71,618.94Z"/><path class="cls-7" d="M1376,438.51c16.12,10.08-9.34,17.59-8.79,25.14s-.69,31.23-.69,31.23-8.67-18.14-11.84-29.26,2.71-4.52-6.09-17.63S1337,427.28,1337,427.28c27.43,12.34,28.38,10.46,26.87,6.54S1376,438.51,1376,438.51Z"/><path class="cls-9" d="M570.41,90.38l-267,78.51c-4.84,0-8.8,6-8.8,13.36l33.51,183c0,7.35,4,13.36,8.79,13.36l123.4-18.22L540.91,426l-8.23-76.26,29.78-4.39c4.84,0,8.79-6,8.79-13.37l8-228.18C579.2,96.4,575.25,90.38,570.41,90.38Z"/></svg>