<svg id="Layer_1" data-name="Layer 1" xmlns="http://www.w3.org/2000/svg" xmlns:xlink="http://www.w3.org/1999/xlink" viewBox="0 0 1920 1080"><defs><style>.cls-1{fill:none;}.cls-2{clip-path:url(#clip-path);}.cls-3{fill:#fbb03b;}.cls-4{fill:#f7931e;}.cls-5{fill:#006837;}.cls-6{fill:#85aa52;}.cls-7{fill:#daec70;}.cls-8{fill:#fff;}.cls-9{fill:#edcc43;}.cls-10{fill:#ffe497;}.cls-11{fill:#1b1464;}</style><clipPath id="clip-path"><rect class="cls-1" x="-1" width="1920" height="1080"/></clipPath></defs><path d="M159.34,123.27a1.54,1.54,0,0,1-.47-1.15V101.49h-7.34A1.49,1.49,0,0,1,150,100a1.52,1.52,0,0,1,.44-1.1,1.41,1.41,0,0,1,1.08-.45h17.92a1.5,1.5,0,0,1,1.1.45A1.49,1.49,0,0,1,171,100a1.44,1.44,0,0,1-.45,1.08,1.57,1.57,0,0,1-1.1.43h-7.31v20.63a1.55,1.55,0,0,1-.48,1.15,1.66,1.66,0,0,1-1.17.47A1.56,1.56,0,0,1,159.34,123.27Z"/><path d="M174.56,123.27a1.57,1.57,0,0,1-.46-1.15V98.75a1.65,1.65,0,0,1,.46-1.17,1.57,1.57,0,0,1,1.16-.48,1.64,1.64,0,0,1,1.65,1.65v9.4a12.16,12.16,0,0,1,2.95-2.41,7.49,7.49,0,0,1,3.75-.91,6.26,6.26,0,0,1,3.44.94,6.17,6.17,0,0,1,2.23,2.56,8.24,8.24,0,0,1,.77,3.56v10.23a1.55,1.55,0,0,1-.48,1.15,1.66,1.66,0,0,1-1.17.47,1.56,1.56,0,0,1-1.15-.47,1.54,1.54,0,0,1-.47-1.15v-9.87q0-4.4-4-4.39a5.72,5.72,0,0,0-3.23.94,11.64,11.64,0,0,0-2.68,2.52v10.8a1.55,1.55,0,0,1-.48,1.15,1.66,1.66,0,0,1-1.17.47A1.6,1.6,0,0,1,174.56,123.27Z"/><path d="M197.37,121.41a9.59,9.59,0,0,1-2.47-7,11.8,11.8,0,0,1,.94-4.72,8,8,0,0,1,2.88-3.49,8.27,8.27,0,0,1,4.79-1.34,8.39,8.39,0,0,1,4.61,1.25,8.06,8.06,0,0,1,2.95,3.31,10.22,10.22,0,0,1,1,4.52,1.6,1.6,0,0,1-.45,1.15,1.62,1.62,0,0,1-1.21.47h-12.2a5.87,5.87,0,0,0,1.87,3.92,6.42,6.42,0,0,0,4.43,1.41,10.14,10.14,0,0,0,4.86-1.12,1.34,1.34,0,0,1,.64-.14,1.45,1.45,0,0,1,1,.39,1.31,1.31,0,0,1,.43,1,1.55,1.55,0,0,1-.93,1.33,12.85,12.85,0,0,1-2.77,1.19,13.2,13.2,0,0,1-3.53.4A9.18,9.18,0,0,1,197.37,121.41Zm11.47-8.55a5.85,5.85,0,0,0-.92-3,5,5,0,0,0-2-1.74,5.47,5.47,0,0,0-4.82,0,4.72,4.72,0,0,0-2,1.74,5.84,5.84,0,0,0-.9,3Z"/><path d="M222.23,131.87a1.3,1.3,0,0,1-.94-1.29,1.34,1.34,0,0,1,.4-1,1.31,1.31,0,0,1,1-.41,4.31,4.31,0,0,1,.54,0,3.15,3.15,0,0,0,.54.06,2.86,2.86,0,0,0,1.66-.4c.36-.26.54-.84.54-1.73V106.71a1.61,1.61,0,0,1,.46-1.17,1.52,1.52,0,0,1,1.15-.49,1.61,1.61,0,0,1,1.66,1.66v20.55a5.44,5.44,0,0,1-1.13,3.59,4.43,4.43,0,0,1-3.58,1.35A7.05,7.05,0,0,1,222.23,131.87Zm4-31a1.76,1.76,0,0,1-.54-1.29v-.15a1.84,1.84,0,0,1,1.83-1.83h.22a1.8,1.8,0,0,1,1.3.54,1.76,1.76,0,0,1,.54,1.29v.15a1.76,1.76,0,0,1-.54,1.29,1.8,1.8,0,0,1-1.3.54h-.22A1.76,1.76,0,0,1,226.19,100.91Z"/><path d="M236.64,123.27a5.11,5.11,0,0,1-2.93-4.75,5,5,0,0,1,2.11-4.25q2.1-1.59,6.17-1.59h4.36v-.28a4.36,4.36,0,0,0-1.17-3.42,5.37,5.37,0,0,0-3.66-1,11.85,11.85,0,0,0-2.43.22,19.51,19.51,0,0,0-2.36.65,2.46,2.46,0,0,1-.46.07,1.28,1.28,0,0,1-.94-.4,1.33,1.33,0,0,1-.39-1,1.39,1.39,0,0,1,.93-1.37,15.93,15.93,0,0,1,6.23-1.3,8.12,8.12,0,0,1,4.19,1,6.43,6.43,0,0,1,2.52,2.61,7.61,7.61,0,0,1,.81,3.48v10.19a1.55,1.55,0,0,1-.48,1.15,1.66,1.66,0,0,1-1.17.47,1.6,1.6,0,0,1-1.16-.47,1.57,1.57,0,0,1-.46-1.15v-.94a9.08,9.08,0,0,1-6.77,2.74A6.73,6.73,0,0,1,236.64,123.27Zm7.22-3a8.31,8.31,0,0,0,2.49-1.93v-3h-3.93q-5.43,0-5.43,2.85a2.64,2.64,0,0,0,.88,2.08,4.35,4.35,0,0,0,2.93.8A6.45,6.45,0,0,0,243.86,120.26Z"/><path d="M258.84,122.76a8.86,8.86,0,0,1-3.51-3.31,10.42,10.42,0,0,1,0-10.15,8.93,8.93,0,0,1,3.51-3.31,10.78,10.78,0,0,1,8.08-.67,13,13,0,0,1,2.57,1.24,1.46,1.46,0,0,1,.72,1.26,1.41,1.41,0,0,1-.41,1,1.25,1.25,0,0,1-.95.45,1.71,1.71,0,0,1-.8-.21,13.53,13.53,0,0,0-2-.88,7,7,0,0,0-2.11-.27,6.53,6.53,0,0,0-4.86,1.78,7.14,7.14,0,0,0,0,9.39,6.54,6.54,0,0,0,4.86,1.79,6.7,6.7,0,0,0,2.11-.28,12.56,12.56,0,0,0,2-.88,1.71,1.71,0,0,1,.8-.21,1.25,1.25,0,0,1,.95.45,1.41,1.41,0,0,1,.41,1,1.43,1.43,0,0,1-.72,1.26,12.46,12.46,0,0,1-2.57,1.24,10.78,10.78,0,0,1-8.08-.67Z"/><path d="M274.79,123.27a1.54,1.54,0,0,1-.47-1.15V98.75a1.62,1.62,0,0,1,.47-1.17,1.53,1.53,0,0,1,1.15-.48,1.64,1.64,0,0,1,1.65,1.65v14.73l8.57-7.92a1.62,1.62,0,0,1,1.08-.47,1.45,1.45,0,0,1,1.21.47,1.72,1.72,0,0,1,.38,1.11,1.78,1.78,0,0,1-.62,1.23L283,112.54l6.52,8.64a1.58,1.58,0,0,1,.36,1,1.48,1.48,0,0,1-.47,1.15,1.7,1.7,0,0,1-1.19.44,1.6,1.6,0,0,1-.72-.18,1.76,1.76,0,0,1-.61-.51l-6.19-8.42-3.14,2.84v4.65a1.55,1.55,0,0,1-.48,1.15,1.66,1.66,0,0,1-1.17.47A1.56,1.56,0,0,1,274.79,123.27Z"/><path d="M306.54,122.73a8,8,0,0,1-3.22-3.37,11.47,11.47,0,0,1,0-10,8.05,8.05,0,0,1,3.22-3.37,10.44,10.44,0,0,1,9.68,0,8.29,8.29,0,0,1,3.24,3.37,11.38,11.38,0,0,1,0,10,8.22,8.22,0,0,1-3.24,3.37,10.44,10.44,0,0,1-9.68,0Zm7.68-2.49a5.45,5.45,0,0,0,2.24-2.16,8.32,8.32,0,0,0,0-7.45,5.4,5.4,0,0,0-2.24-2.14,6.35,6.35,0,0,0-2.82-.67,6.43,6.43,0,0,0-2.86.67,5.24,5.24,0,0,0-2.22,2.14,8.5,8.5,0,0,0,0,7.45,5.29,5.29,0,0,0,2.22,2.16,6.19,6.19,0,0,0,2.86.69A6.12,6.12,0,0,0,314.22,120.24Z"/><path d="M325.19,105.59a1,1,0,0,1-.36-.65c-.2-1-.38-2.08-.54-3.29a23.32,23.32,0,0,1-.26-3.19,1.69,1.69,0,0,1,.54-1.27,1.86,1.86,0,0,1,2.6,0,1.69,1.69,0,0,1,.54,1.27,23.32,23.32,0,0,1-.26,3.19c-.16,1.21-.34,2.31-.54,3.29a1,1,0,0,1-.36.65,1,1,0,0,1-1.36,0Z"/><path d="M333.18,123.27a1.58,1.58,0,0,1-.47-1.15V98.75a1.66,1.66,0,0,1,.47-1.17,1.53,1.53,0,0,1,1.15-.48A1.58,1.58,0,0,1,336,98.75v23.37a1.55,1.55,0,0,1-.48,1.15,1.64,1.64,0,0,1-1.17.47A1.56,1.56,0,0,1,333.18,123.27Z"/><path d="M343.42,123.27a5.1,5.1,0,0,1-2.14-1.89,5.19,5.19,0,0,1-.8-2.86,5.05,5.05,0,0,1,2.11-4.25q2.1-1.59,6.17-1.59h4.36v-.28A4.36,4.36,0,0,0,352,109a5.36,5.36,0,0,0-3.65-1,11.71,11.71,0,0,0-2.43.22,19,19,0,0,0-2.36.65,2.54,2.54,0,0,1-.47.07,1.24,1.24,0,0,1-.93-.4,1.3,1.3,0,0,1-.4-1,1.39,1.39,0,0,1,.93-1.37,15.93,15.93,0,0,1,6.23-1.3,8.16,8.16,0,0,1,4.2,1,6.43,6.43,0,0,1,2.52,2.61,7.61,7.61,0,0,1,.81,3.48v10.19a1.56,1.56,0,0,1-.49,1.15,1.62,1.62,0,0,1-1.17.47,1.6,1.6,0,0,1-1.62-1.62v-.94a9.07,9.07,0,0,1-6.77,2.74A6.72,6.72,0,0,1,343.42,123.27Zm7.22-3a8.39,8.39,0,0,0,2.48-1.93v-3H349.2q-5.44,0-5.44,2.85a2.64,2.64,0,0,0,.88,2.08,4.36,4.36,0,0,0,2.94.8A6.5,6.5,0,0,0,350.64,120.26Z"/><path d="M362.37,123.27a1.58,1.58,0,0,1-.47-1.15V106.67a1.66,1.66,0,0,1,.47-1.17,1.55,1.55,0,0,1,1.15-.48,1.66,1.66,0,0,1,1.66,1.65v1.48a12,12,0,0,1,2.95-2.41,7.49,7.49,0,0,1,3.75-.91,6.23,6.23,0,0,1,3.43.94,6.12,6.12,0,0,1,2.24,2.56,8.24,8.24,0,0,1,.77,3.56v10.23a1.52,1.52,0,0,1-.49,1.15,1.62,1.62,0,0,1-1.17.47,1.6,1.6,0,0,1-1.62-1.62v-9.87q0-4.4-4-4.39a5.68,5.68,0,0,0-3.22.94,11.45,11.45,0,0,0-2.68,2.52v10.8a1.52,1.52,0,0,1-.49,1.15,1.62,1.62,0,0,1-1.17.47A1.58,1.58,0,0,1,362.37,123.27Z"/><path d="M384.48,119.16V108h-2.56a.65.65,0,0,1-.68-.68.74.74,0,0,1,.32-.61l4.9-4.79a.87.87,0,0,1,.61-.32.63.63,0,0,1,.48.21.7.7,0,0,1,.2.51v2.88h4.07a1.34,1.34,0,0,1,1.4,1.4,1.41,1.41,0,0,1-.39,1,1.33,1.33,0,0,1-1,.41h-4.07v10.88c0,.93.22,1.53.67,1.78a3.35,3.35,0,0,0,1.67.38,5.14,5.14,0,0,0,1.44-.22l.31-.07a1.58,1.58,0,0,1,.41,0,1.27,1.27,0,0,1,.9.38,1.21,1.21,0,0,1,.4.92,1.37,1.37,0,0,1-.83,1.26,7.05,7.05,0,0,1-3,.65Q384.48,123.92,384.48,119.16Z"/><path d="M398.25,121.41a9.55,9.55,0,0,1-2.47-7,11.63,11.63,0,0,1,.94-4.72,8,8,0,0,1,2.88-3.49,8.23,8.23,0,0,1,4.78-1.34,8.34,8.34,0,0,1,4.61,1.25,8,8,0,0,1,2.95,3.31,10.09,10.09,0,0,1,1,4.52,1.57,1.57,0,0,1-1.65,1.62H399.09a5.91,5.91,0,0,0,1.87,3.92,6.45,6.45,0,0,0,4.43,1.41,10.07,10.07,0,0,0,4.86-1.12,1.38,1.38,0,0,1,.65-.14,1.47,1.47,0,0,1,1,.39,1.31,1.31,0,0,1,.43,1,1.55,1.55,0,0,1-.94,1.33,12.65,12.65,0,0,1-2.77,1.19,13.14,13.14,0,0,1-3.53.4A9.18,9.18,0,0,1,398.25,121.41Zm11.46-8.55a5.75,5.75,0,0,0-.92-3,4.93,4.93,0,0,0-2-1.74,5.49,5.49,0,0,0-4.83,0,4.84,4.84,0,0,0-2,1.74,5.84,5.84,0,0,0-.9,3Z"/><path d="M417.74,123.27a1.58,1.58,0,0,1-.47-1.15V106.67a1.66,1.66,0,0,1,.47-1.17,1.55,1.55,0,0,1,1.15-.48,1.66,1.66,0,0,1,1.66,1.65v1.55q2.52-3.39,5.65-3.39h.18a1.54,1.54,0,0,1,1.14.47,1.66,1.66,0,0,1,.44,1.16,1.45,1.45,0,0,1-.46,1.11,1.67,1.67,0,0,1-1.19.43h-.18a6.19,6.19,0,0,0-3.17.85,7.3,7.3,0,0,0-2.41,2.32v11a1.52,1.52,0,0,1-.49,1.15,1.62,1.62,0,0,1-1.17.47A1.58,1.58,0,0,1,417.74,123.27Z"/><path d="M431.53,123.27a1.58,1.58,0,0,1-.47-1.15V106.67a1.66,1.66,0,0,1,.47-1.17,1.53,1.53,0,0,1,1.15-.48,1.59,1.59,0,0,1,1.17.48,1.63,1.63,0,0,1,.49,1.17v1.48a11.8,11.8,0,0,1,3-2.41,7.43,7.43,0,0,1,3.74-.91,6.26,6.26,0,0,1,3.44.94,6.1,6.1,0,0,1,2.23,2.56,8.11,8.11,0,0,1,.78,3.56v10.23a1.56,1.56,0,0,1-.49,1.15,1.62,1.62,0,0,1-1.17.47,1.56,1.56,0,0,1-1.15-.47,1.58,1.58,0,0,1-.47-1.15v-9.87q0-4.4-4-4.39a5.68,5.68,0,0,0-3.22.94,11.45,11.45,0,0,0-2.68,2.52v10.8a1.56,1.56,0,0,1-.49,1.15,1.62,1.62,0,0,1-1.17.47A1.56,1.56,0,0,1,431.53,123.27Z"/><path d="M462.6,100.91a1.77,1.77,0,0,1-.55-1.29v-.15a1.86,1.86,0,0,1,1.84-1.83h.22a1.84,1.84,0,0,1,1.83,1.83v.15a1.84,1.84,0,0,1-1.83,1.83h-.22A1.76,1.76,0,0,1,462.6,100.91Zm.21,22.36a1.58,1.58,0,0,1-.47-1.15V106.67a1.66,1.66,0,0,1,.47-1.17A1.55,1.55,0,0,1,464,105a1.61,1.61,0,0,1,1.19.46,1.64,1.64,0,0,1,.47,1.19v15.45a1.52,1.52,0,0,1-.49,1.15,1.62,1.62,0,0,1-1.17.47A1.58,1.58,0,0,1,462.81,123.27Z"/><path d="M470.7,122.3a1.39,1.39,0,0,1-.62-1.19,1.46,1.46,0,0,1,.4-1,1.29,1.29,0,0,1,1-.43,1.69,1.69,0,0,1,.65.14,13.61,13.61,0,0,0,2.3.79,10.31,10.31,0,0,0,2.59.29q4,0,4-2.56a1.35,1.35,0,0,0-.92-1.25,18.17,18.17,0,0,0-3-1,26.85,26.85,0,0,1-3.51-1,6.21,6.21,0,0,1-2.37-1.64,4.16,4.16,0,0,1-1-2.9,5.16,5.16,0,0,1,1.82-4.1,7.65,7.65,0,0,1,5.2-1.59,15,15,0,0,1,5.22.91,1.31,1.31,0,0,1,.77.54,1.42,1.42,0,0,1-.14,1.83,1.37,1.37,0,0,1-1,.43,2,2,0,0,1-.47-.07,13.85,13.85,0,0,0-4.1-.65,5.6,5.6,0,0,0-3,.71,2.08,2.08,0,0,0-1.1,1.81,1.68,1.68,0,0,0,1,1.59,14.5,14.5,0,0,0,3.13,1A29.66,29.66,0,0,1,481,114a5.77,5.77,0,0,1,2.28,1.64,4.42,4.42,0,0,1,1,3,4.75,4.75,0,0,1-1.82,3.81,7.79,7.79,0,0,1-5.13,1.52A13.36,13.36,0,0,1,470.7,122.3Z"/><path d="M501.65,122.76a8.86,8.86,0,0,1-3.51-3.31,10.49,10.49,0,0,1,0-10.15,8.93,8.93,0,0,1,3.51-3.31,10.81,10.81,0,0,1,8.09-.67,13,13,0,0,1,2.57,1.24,1.44,1.44,0,0,1,.31,2.25,1.28,1.28,0,0,1-1,.45,1.67,1.67,0,0,1-.79-.21,13.53,13.53,0,0,0-2-.88,7.08,7.08,0,0,0-2.11-.27,6.53,6.53,0,0,0-4.86,1.78,7.14,7.14,0,0,0,0,9.39,6.54,6.54,0,0,0,4.86,1.79,6.74,6.74,0,0,0,2.11-.28,12.56,12.56,0,0,0,2-.88,1.67,1.67,0,0,1,.79-.21,1.28,1.28,0,0,1,1,.45,1.45,1.45,0,0,1,.41,1,1.43,1.43,0,0,1-.72,1.26,12.46,12.46,0,0,1-2.57,1.24,10.81,10.81,0,0,1-8.09-.67Z"/><path d="M520.23,122.73a8.12,8.12,0,0,1-3.22-3.37,11.56,11.56,0,0,1,0-10,8.18,8.18,0,0,1,3.22-3.37,10.44,10.44,0,0,1,9.68,0,8.16,8.16,0,0,1,3.24,3.37,11.29,11.29,0,0,1,0,10,8.1,8.1,0,0,1-3.24,3.37,10.44,10.44,0,0,1-9.68,0Zm7.69-2.49a5.43,5.43,0,0,0,2.23-2.16,8.32,8.32,0,0,0,0-7.45,5.38,5.38,0,0,0-2.23-2.14,6.38,6.38,0,0,0-5.69,0,5.22,5.22,0,0,0-2.21,2.14,8.41,8.41,0,0,0,0,7.45,5.27,5.27,0,0,0,2.21,2.16,6.21,6.21,0,0,0,5.69,0Z"/><path d="M539.35,123.27a1.58,1.58,0,0,1-.47-1.15V106.67a1.66,1.66,0,0,1,.47-1.17,1.53,1.53,0,0,1,1.15-.48,1.61,1.61,0,0,1,1.17.48,1.62,1.62,0,0,1,.48,1.17v1.48a9.31,9.31,0,0,1,2.43-2.38,6.65,6.65,0,0,1,3.7-.94,5.59,5.59,0,0,1,3.45,1.09,6,6,0,0,1,2,2.62,7.27,7.27,0,0,1,6.63-3.71,5.47,5.47,0,0,1,3.36,1,6,6,0,0,1,2,2.6,8.68,8.68,0,0,1,.65,3.31v10.37a1.52,1.52,0,0,1-.49,1.15,1.62,1.62,0,0,1-1.17.47,1.6,1.6,0,0,1-1.62-1.62V112.4a5.68,5.68,0,0,0-.83-3.44,3.34,3.34,0,0,0-2.84-1.1,4.78,4.78,0,0,0-3,1,9,9,0,0,0-2.14,2.51v10.8a1.56,1.56,0,0,1-.49,1.15,1.62,1.62,0,0,1-1.17.47,1.56,1.56,0,0,1-1.15-.47,1.58,1.58,0,0,1-.47-1.15V112.4a5.75,5.75,0,0,0-.83-3.44,3.34,3.34,0,0,0-2.84-1.1,4.78,4.78,0,0,0-3,1,9.23,9.23,0,0,0-2.15,2.51v10.8a1.55,1.55,0,0,1-.48,1.15,1.64,1.64,0,0,1-1.17.47A1.56,1.56,0,0,1,539.35,123.27Z"/><path d="M572.39,131.53a1.61,1.61,0,0,1-.46-1.17V106.64a1.57,1.57,0,0,1,1.62-1.62,1.65,1.65,0,0,1,1.17.46,1.57,1.57,0,0,1,.48,1.16v.93a8.34,8.34,0,0,1,10.39-1.6,8.67,8.67,0,0,1,3.24,3.31,11.09,11.09,0,0,1,0,10.19,8.6,8.6,0,0,1-3.24,3.31,8.34,8.34,0,0,1-10.39-1.6v9.18a1.64,1.64,0,0,1-2.81,1.17Zm12.78-12.37a7.88,7.88,0,0,0,0-9.57,5.63,5.63,0,0,0-4.28-1.69,6.81,6.81,0,0,0-3.11.73,9,9,0,0,0-2.58,2v7.56a9,9,0,0,0,2.58,2,6.82,6.82,0,0,0,3.11.74A5.64,5.64,0,0,0,585.17,119.16Z"/><path d="M595.11,123.27a1.58,1.58,0,0,1-.47-1.15V98.75a1.66,1.66,0,0,1,.47-1.17,1.55,1.55,0,0,1,1.15-.48,1.61,1.61,0,0,1,1.19.46,1.64,1.64,0,0,1,.47,1.19v23.37a1.52,1.52,0,0,1-.49,1.15,1.62,1.62,0,0,1-1.17.47A1.58,1.58,0,0,1,595.11,123.27Z"/><path d="M605,121.41a9.55,9.55,0,0,1-2.47-7,11.63,11.63,0,0,1,.94-4.72,8,8,0,0,1,2.88-3.49,8.23,8.23,0,0,1,4.78-1.34,8.34,8.34,0,0,1,4.61,1.25,8,8,0,0,1,2.95,3.31,10.09,10.09,0,0,1,1,4.52,1.57,1.57,0,0,1-1.65,1.62H605.8a5.91,5.91,0,0,0,1.87,3.92,6.45,6.45,0,0,0,4.43,1.41,10.07,10.07,0,0,0,4.86-1.12,1.38,1.38,0,0,1,.65-.14,1.47,1.47,0,0,1,1,.39,1.31,1.31,0,0,1,.43,1,1.55,1.55,0,0,1-.94,1.33,12.65,12.65,0,0,1-2.77,1.19,13.14,13.14,0,0,1-3.53.4A9.18,9.18,0,0,1,605,121.41Zm11.46-8.55a5.75,5.75,0,0,0-.92-3,4.93,4.93,0,0,0-2-1.74,5.49,5.49,0,0,0-4.83,0,4.84,4.84,0,0,0-2,1.74,5.94,5.94,0,0,0-.9,3Z"/><path d="M625.06,119.16V108h-2.55a.66.66,0,0,1-.49-.19.7.7,0,0,1-.2-.49.75.75,0,0,1,.33-.61l4.89-4.79a.89.89,0,0,1,.61-.32.64.64,0,0,1,.49.21.74.74,0,0,1,.2.51v2.88h4.07a1.41,1.41,0,0,1,1,2.39,1.31,1.31,0,0,1-1,.41h-4.07v10.88c0,.93.22,1.53.66,1.78a3.42,3.42,0,0,0,1.68.38,5.14,5.14,0,0,0,1.44-.22l.3-.07a1.66,1.66,0,0,1,.42,0,1.3,1.3,0,0,1,.9.38,1.23,1.23,0,0,1,.39.92,1.36,1.36,0,0,1-.82,1.26,7.12,7.12,0,0,1-3,.65Q625.05,123.92,625.06,119.16Z"/><path d="M638.83,121.41a9.59,9.59,0,0,1-2.46-7,11.8,11.8,0,0,1,.93-4.72,8.11,8.11,0,0,1,2.88-3.49,8.27,8.27,0,0,1,4.79-1.34,8.37,8.37,0,0,1,4.61,1.25,8,8,0,0,1,2.95,3.31,10.22,10.22,0,0,1,1,4.52,1.58,1.58,0,0,1-1.66,1.62h-12.2a5.87,5.87,0,0,0,1.87,3.92,6.44,6.44,0,0,0,4.43,1.41,10.14,10.14,0,0,0,4.86-1.12,1.38,1.38,0,0,1,.65-.14,1.43,1.43,0,0,1,1,.39,1.32,1.32,0,0,1,.44,1,1.56,1.56,0,0,1-.94,1.33,12.85,12.85,0,0,1-2.77,1.19,13.14,13.14,0,0,1-3.53.4A9.2,9.2,0,0,1,638.83,121.41Zm11.47-8.55a5.75,5.75,0,0,0-.92-3,5,5,0,0,0-2-1.74,5.47,5.47,0,0,0-4.82,0,4.84,4.84,0,0,0-2,1.74,5.84,5.84,0,0,0-.9,3Z"/><path d="M153.74,164.61a9.55,9.55,0,0,1-2.47-7,11.63,11.63,0,0,1,.94-4.72,8,8,0,0,1,2.88-3.49,8.24,8.24,0,0,1,4.79-1.33,8.33,8.33,0,0,1,4.6,1.24,8.09,8.09,0,0,1,3,3.31,10.22,10.22,0,0,1,1,4.52,1.59,1.59,0,0,1-1.66,1.62H154.58a5.92,5.92,0,0,0,1.88,3.92,6.41,6.41,0,0,0,4.42,1.41,10.9,10.9,0,0,0,2.65-.29,10.54,10.54,0,0,0,2.21-.83,1.41,1.41,0,0,1,.65-.14,1.45,1.45,0,0,1,1,.39,1.31,1.31,0,0,1,.43,1,1.55,1.55,0,0,1-.93,1.33,12.72,12.72,0,0,1-2.78,1.19,13.06,13.06,0,0,1-3.52.4A9.18,9.18,0,0,1,153.74,164.61Zm11.47-8.55a5.85,5.85,0,0,0-.92-2.95,5,5,0,0,0-2-1.74,5.49,5.49,0,0,0-4.83,0,4.84,4.84,0,0,0-2,1.74,6,6,0,0,0-.9,2.95Z"/><path d="M172,166.49a1.71,1.71,0,0,1-.42-1.21,1.62,1.62,0,0,1,.36-1l5.58-6.59-5.58-6.8a1.7,1.7,0,0,1-.4-1,1.56,1.56,0,0,1,.47-1.17,1.62,1.62,0,0,1,1.15-.45,1.48,1.48,0,0,1,1.3.61l5,6.23,5-6.23a1.44,1.44,0,0,1,1.26-.61,1.63,1.63,0,0,1,1.19.45,1.46,1.46,0,0,1,.47,1.09,1.62,1.62,0,0,1-.36,1l-5.69,6.7,5.62,6.77a1.48,1.48,0,0,1,.39,1,1.68,1.68,0,0,1-.43,1.17,1.56,1.56,0,0,1-1.22.49,1.48,1.48,0,0,1-1.26-.65l-5.11-6.12-4.83,6.05a1.68,1.68,0,0,1-1.4.72A1.45,1.45,0,0,1,172,166.49Z"/><path d="M195.26,166a8.86,8.86,0,0,1-3.51-3.31,10.49,10.49,0,0,1,0-10.15,8.93,8.93,0,0,1,3.51-3.31,10.94,10.94,0,0,1,8.09-.67,13,13,0,0,1,2.57,1.24,1.44,1.44,0,0,1,.31,2.25,1.28,1.28,0,0,1-1,.45,1.67,1.67,0,0,1-.79-.21,13.53,13.53,0,0,0-2-.88,7.08,7.08,0,0,0-2.11-.27,6.53,6.53,0,0,0-4.86,1.78,7.14,7.14,0,0,0,0,9.39,6.54,6.54,0,0,0,4.86,1.79,7.08,7.08,0,0,0,2.11-.27,13.72,13.72,0,0,0,2-.89,1.67,1.67,0,0,1,.79-.21,1.28,1.28,0,0,1,1,.45,1.45,1.45,0,0,1,.41,1,1.43,1.43,0,0,1-.72,1.26,12.46,12.46,0,0,1-2.57,1.24,10.81,10.81,0,0,1-8.09-.67Z"/><path d="M212,164.61a9.59,9.59,0,0,1-2.47-7,11.8,11.8,0,0,1,.94-4.72,8,8,0,0,1,2.88-3.49,8.26,8.26,0,0,1,4.79-1.33,8.39,8.39,0,0,1,4.61,1.24,8.06,8.06,0,0,1,3,3.31,10.22,10.22,0,0,1,1,4.52,1.6,1.6,0,0,1-.45,1.15,1.62,1.62,0,0,1-1.21.47H212.8a5.87,5.87,0,0,0,1.87,3.92,6.42,6.42,0,0,0,4.43,1.41,10.14,10.14,0,0,0,4.86-1.12,1.34,1.34,0,0,1,.64-.14,1.45,1.45,0,0,1,1,.39,1.31,1.31,0,0,1,.43,1,1.55,1.55,0,0,1-.93,1.33,12.85,12.85,0,0,1-2.77,1.19,13.2,13.2,0,0,1-3.53.4A9.18,9.18,0,0,1,212,164.61Zm11.47-8.55a5.85,5.85,0,0,0-.92-2.95,5,5,0,0,0-2-1.74,5.47,5.47,0,0,0-4.82,0,4.72,4.72,0,0,0-2,1.74,5.84,5.84,0,0,0-.9,2.95Z"/><path d="M231.44,174.73a1.61,1.61,0,0,1-.46-1.17V149.84a1.57,1.57,0,0,1,1.62-1.62,1.65,1.65,0,0,1,1.17.46,1.57,1.57,0,0,1,.48,1.16v.93a8.29,8.29,0,0,1,6.16-2.73,8.38,8.38,0,0,1,4.23,1.13,8.67,8.67,0,0,1,3.24,3.31,11.09,11.09,0,0,1,0,10.19,8.6,8.6,0,0,1-3.24,3.31,8.39,8.39,0,0,1-4.23,1.14,8.3,8.3,0,0,1-6.16-2.74v9.18a1.61,1.61,0,0,1-.46,1.19,1.64,1.64,0,0,1-1.19.47A1.58,1.58,0,0,1,231.44,174.73Zm12.78-12.37a7.88,7.88,0,0,0,0-9.57,5.63,5.63,0,0,0-4.28-1.69,6.81,6.81,0,0,0-3.11.73,9,9,0,0,0-2.58,2v7.56a9,9,0,0,0,2.58,2,6.82,6.82,0,0,0,3.11.74A5.64,5.64,0,0,0,244.22,162.36Z"/><path d="M254.63,162.36V151.2h-2.56a.65.65,0,0,1-.48-.19.7.7,0,0,1-.2-.49.76.76,0,0,1,.32-.61l4.9-4.79a.87.87,0,0,1,.61-.32.67.67,0,0,1,.49.21.74.74,0,0,1,.19.51v2.88H262a1.37,1.37,0,0,1,1,.39,1.4,1.4,0,0,1,.4,1,1.42,1.42,0,0,1-.4,1,1.31,1.31,0,0,1-1,.41H257.9v10.88c0,.93.23,1.53.67,1.78a3.35,3.35,0,0,0,1.67.38,5.21,5.21,0,0,0,1.45-.22l.3-.07a1.62,1.62,0,0,1,.41,0,1.27,1.27,0,0,1,.9.38,1.21,1.21,0,0,1,.4.92,1.37,1.37,0,0,1-.83,1.26,7.05,7.05,0,0,1-3,.65Q254.63,167.12,254.63,162.36Z"/><path d="M277.74,162.36V151.2h-2.56a.65.65,0,0,1-.48-.19.7.7,0,0,1-.2-.49.76.76,0,0,1,.32-.61l4.9-4.79a.89.89,0,0,1,.61-.32.65.65,0,0,1,.49.21.74.74,0,0,1,.2.51v2.88h4.06a1.37,1.37,0,0,1,1,.39,1.36,1.36,0,0,1,.4,1,1.37,1.37,0,0,1-.4,1,1.31,1.31,0,0,1-1,.41H281v10.88c0,.93.22,1.53.66,1.78a3.37,3.37,0,0,0,1.68.38,5.14,5.14,0,0,0,1.44-.22l.3-.07a1.66,1.66,0,0,1,.42,0,1.3,1.3,0,0,1,.9.38,1.23,1.23,0,0,1,.39.92,1.35,1.35,0,0,1-.83,1.26,7,7,0,0,1-3,.65Q277.74,167.12,277.74,162.36Z"/><path d="M290.88,166.47a1.58,1.58,0,0,1-.47-1.15V142a1.66,1.66,0,0,1,.47-1.17,1.55,1.55,0,0,1,1.15-.48,1.66,1.66,0,0,1,1.66,1.65v9.4a11.8,11.8,0,0,1,2.95-2.41,7.45,7.45,0,0,1,3.74-.9,6.26,6.26,0,0,1,3.44.93,6.1,6.1,0,0,1,2.23,2.56,8.11,8.11,0,0,1,.78,3.56v10.23a1.52,1.52,0,0,1-.49,1.15,1.62,1.62,0,0,1-1.17.47,1.56,1.56,0,0,1-1.15-.47,1.58,1.58,0,0,1-.47-1.15v-9.87q0-4.39-4-4.39a5.68,5.68,0,0,0-3.22.94,11.45,11.45,0,0,0-2.68,2.52v10.8a1.52,1.52,0,0,1-.49,1.15,1.62,1.62,0,0,1-1.17.47A1.58,1.58,0,0,1,290.88,166.47Z"/><path d="M313.69,164.61a9.55,9.55,0,0,1-2.47-7,11.63,11.63,0,0,1,.94-4.72,8,8,0,0,1,2.88-3.49,8.23,8.23,0,0,1,4.78-1.33,8.36,8.36,0,0,1,4.61,1.24,8,8,0,0,1,2.95,3.31,10.22,10.22,0,0,1,1,4.52,1.57,1.57,0,0,1-1.65,1.62H314.53a5.91,5.91,0,0,0,1.87,3.92,6.45,6.45,0,0,0,4.43,1.41,10.07,10.07,0,0,0,4.86-1.12,1.38,1.38,0,0,1,.65-.14,1.47,1.47,0,0,1,1,.39,1.34,1.34,0,0,1,.43,1,1.55,1.55,0,0,1-.94,1.33,12.65,12.65,0,0,1-2.77,1.19,13.14,13.14,0,0,1-3.53.4A9.18,9.18,0,0,1,313.69,164.61Zm11.46-8.55a5.75,5.75,0,0,0-.92-2.95,4.93,4.93,0,0,0-2-1.74,5.49,5.49,0,0,0-4.83,0,4.84,4.84,0,0,0-2,1.74,5.84,5.84,0,0,0-.9,2.95Z"/><path d="M333.18,166.47a1.58,1.58,0,0,1-.47-1.15V149.87a1.66,1.66,0,0,1,.47-1.17,1.55,1.55,0,0,1,1.15-.48,1.59,1.59,0,0,1,1.17.48,1.63,1.63,0,0,1,.49,1.17v1.55c1.68-2.26,3.56-3.38,5.65-3.38h.18a1.51,1.51,0,0,1,1.13.46,1.62,1.62,0,0,1,.45,1.16,1.45,1.45,0,0,1-.46,1.11,1.69,1.69,0,0,1-1.19.43h-.18a6.17,6.17,0,0,0-3.17.85,7.21,7.21,0,0,0-2.41,2.32v10.95a1.56,1.56,0,0,1-.49,1.15,1.62,1.62,0,0,1-1.17.47A1.58,1.58,0,0,1,333.18,166.47Z"/><path d="M347.31,164.61a9.59,9.59,0,0,1-2.47-7,11.8,11.8,0,0,1,.94-4.72,8,8,0,0,1,2.88-3.49,8.26,8.26,0,0,1,4.79-1.33,8.39,8.39,0,0,1,4.61,1.24,8.06,8.06,0,0,1,2.95,3.31,10.22,10.22,0,0,1,1,4.52,1.6,1.6,0,0,1-.45,1.15,1.62,1.62,0,0,1-1.21.47h-12.2a5.87,5.87,0,0,0,1.87,3.92,6.42,6.42,0,0,0,4.43,1.41,10.14,10.14,0,0,0,4.86-1.12,1.34,1.34,0,0,1,.64-.14,1.45,1.45,0,0,1,1,.39,1.31,1.31,0,0,1,.43,1,1.55,1.55,0,0,1-.93,1.33,12.85,12.85,0,0,1-2.77,1.19,13.2,13.2,0,0,1-3.53.4A9.18,9.18,0,0,1,347.31,164.61Zm11.47-8.55a5.85,5.85,0,0,0-.92-2.95,5,5,0,0,0-2-1.74,5.47,5.47,0,0,0-4.82,0,4.72,4.72,0,0,0-2,1.74,5.84,5.84,0,0,0-.9,2.95Z"/><path d="M376,144.11a1.76,1.76,0,0,1-.54-1.29v-.15a1.84,1.84,0,0,1,1.83-1.83h.22a1.8,1.8,0,0,1,1.3.54,1.75,1.75,0,0,1,.53,1.29v.15a1.75,1.75,0,0,1-.53,1.29,1.8,1.8,0,0,1-1.3.54h-.22A1.76,1.76,0,0,1,376,144.11Zm.21,22.36a1.57,1.57,0,0,1-.46-1.15V149.87a1.65,1.65,0,0,1,.46-1.17,1.55,1.55,0,0,1,1.15-.48,1.61,1.61,0,0,1,1.19.46,1.64,1.64,0,0,1,.47,1.19v15.45a1.52,1.52,0,0,1-.49,1.15,1.62,1.62,0,0,1-1.17.47A1.58,1.58,0,0,1,376.16,166.47Z"/><path d="M384.05,165.5a1.38,1.38,0,0,1-.61-1.19,1.45,1.45,0,0,1,.39-1,1.31,1.31,0,0,1,1-.43,1.73,1.73,0,0,1,.65.14,13.61,13.61,0,0,0,2.3.79,10.31,10.31,0,0,0,2.59.29q4,0,4-2.55a1.35,1.35,0,0,0-.92-1.26,18.31,18.31,0,0,0-3-1,25.94,25.94,0,0,1-3.51-1,6.17,6.17,0,0,1-2.38-1.64,4.16,4.16,0,0,1-1-2.9,5.19,5.19,0,0,1,1.82-4.1,7.64,7.64,0,0,1,5.2-1.58,15,15,0,0,1,5.22.9,1.31,1.31,0,0,1,.77.54,1.42,1.42,0,0,1-.14,1.83,1.37,1.37,0,0,1-1,.43,1.83,1.83,0,0,1-.46-.07,13.92,13.92,0,0,0-4.11-.65,5.58,5.58,0,0,0-3,.71,2.08,2.08,0,0,0-1.1,1.81,1.68,1.68,0,0,0,1,1.59,14.5,14.5,0,0,0,3.13,1,29.66,29.66,0,0,1,3.46,1.06,5.7,5.7,0,0,1,2.28,1.64,4.42,4.42,0,0,1,1,3,4.75,4.75,0,0,1-1.82,3.81,7.79,7.79,0,0,1-5.13,1.52A13.36,13.36,0,0,1,384.05,165.5Z"/><path d="M413,166.47a5.09,5.09,0,0,1-2.14-1.89,5.27,5.27,0,0,1-.79-2.86,5,5,0,0,1,2.11-4.25q2.1-1.59,6.17-1.59h4.36v-.28a4.36,4.36,0,0,0-1.17-3.42,5.37,5.37,0,0,0-3.66-1.05,11.85,11.85,0,0,0-2.43.22,20,20,0,0,0-2.36.65,2.46,2.46,0,0,1-.46.07,1.26,1.26,0,0,1-.94-.4,1.34,1.34,0,0,1-.4-1,1.4,1.4,0,0,1,.94-1.37A15.91,15.91,0,0,1,418.5,148a8.15,8.15,0,0,1,4.19,1,6.43,6.43,0,0,1,2.52,2.61,7.61,7.61,0,0,1,.81,3.48v10.19a1.55,1.55,0,0,1-.48,1.15,1.66,1.66,0,0,1-1.17.47,1.6,1.6,0,0,1-1.16-.47,1.57,1.57,0,0,1-.46-1.15v-.94a9.08,9.08,0,0,1-6.77,2.74A6.77,6.77,0,0,1,413,166.47Zm7.22-3a8.58,8.58,0,0,0,2.49-1.92v-3h-3.93q-5.43,0-5.43,2.85a2.64,2.64,0,0,0,.88,2.08,4.33,4.33,0,0,0,2.93.8A6.45,6.45,0,0,0,420.26,163.46Z"/><path d="M440.28,165.5a1.38,1.38,0,0,1-.61-1.19,1.45,1.45,0,0,1,.39-1,1.31,1.31,0,0,1,1-.43,1.69,1.69,0,0,1,.65.14,13.61,13.61,0,0,0,2.3.79,10.31,10.31,0,0,0,2.59.29q4,0,4-2.55a1.35,1.35,0,0,0-.92-1.26,18.31,18.31,0,0,0-3-1,25.94,25.94,0,0,1-3.51-1,6.17,6.17,0,0,1-2.38-1.64,4.16,4.16,0,0,1-1-2.9,5.19,5.19,0,0,1,1.82-4.1,7.64,7.64,0,0,1,5.2-1.58,15,15,0,0,1,5.22.9,1.31,1.31,0,0,1,.77.54,1.43,1.43,0,0,1,.27.82,1.39,1.39,0,0,1-.41,1,1.37,1.37,0,0,1-1,.43,1.83,1.83,0,0,1-.46-.07,13.92,13.92,0,0,0-4.11-.65,5.6,5.6,0,0,0-3,.71,2.08,2.08,0,0,0-1.1,1.81,1.68,1.68,0,0,0,1,1.59,14.5,14.5,0,0,0,3.13,1,29.66,29.66,0,0,1,3.46,1.06,5.7,5.7,0,0,1,2.28,1.64,4.42,4.42,0,0,1,1,3A4.75,4.75,0,0,1,452,165.6a7.79,7.79,0,0,1-5.13,1.52A13.36,13.36,0,0,1,440.28,165.5Z"/><path d="M459.52,164.61a9.59,9.59,0,0,1-2.47-7,11.8,11.8,0,0,1,.94-4.72,8,8,0,0,1,2.88-3.49,8.26,8.26,0,0,1,4.79-1.33,8.39,8.39,0,0,1,4.61,1.24,8.13,8.13,0,0,1,3,3.31,10.22,10.22,0,0,1,1,4.52,1.6,1.6,0,0,1-.45,1.15,1.64,1.64,0,0,1-1.21.47h-12.2a5.87,5.87,0,0,0,1.87,3.92,6.42,6.42,0,0,0,4.43,1.41,10.14,10.14,0,0,0,4.86-1.12,1.34,1.34,0,0,1,.64-.14,1.45,1.45,0,0,1,1,.39,1.31,1.31,0,0,1,.43,1,1.55,1.55,0,0,1-.93,1.33,12.85,12.85,0,0,1-2.77,1.19,13.2,13.2,0,0,1-3.53.4A9.18,9.18,0,0,1,459.52,164.61ZM471,156.06a5.85,5.85,0,0,0-.92-2.95,5,5,0,0,0-2-1.74,5.47,5.47,0,0,0-4.82,0,4.72,4.72,0,0,0-2,1.74,5.84,5.84,0,0,0-.9,2.95Z"/><path d="M479.9,164.61a9.55,9.55,0,0,1-2.47-7,11.63,11.63,0,0,1,.94-4.72,8,8,0,0,1,2.88-3.49A8.23,8.23,0,0,1,486,148a8.34,8.34,0,0,1,4.61,1.24,8,8,0,0,1,2.95,3.31,10.09,10.09,0,0,1,1,4.52,1.57,1.57,0,0,1-1.65,1.62H480.74a5.91,5.91,0,0,0,1.87,3.92,6.44,6.44,0,0,0,4.43,1.41,10.07,10.07,0,0,0,4.86-1.12,1.38,1.38,0,0,1,.65-.14,1.47,1.47,0,0,1,1,.39,1.31,1.31,0,0,1,.43,1,1.55,1.55,0,0,1-.94,1.33,12.65,12.65,0,0,1-2.77,1.19,13.14,13.14,0,0,1-3.53.4A9.18,9.18,0,0,1,479.9,164.61Zm11.46-8.55a5.75,5.75,0,0,0-.92-2.95,4.93,4.93,0,0,0-2-1.74,5.49,5.49,0,0,0-4.83,0,4.84,4.84,0,0,0-2,1.74,5.84,5.84,0,0,0-.9,2.95Z"/><path d="M502.29,166a8.6,8.6,0,0,1-3.24-3.31,11,11,0,0,1,0-10.19,8.67,8.67,0,0,1,3.24-3.31,8.38,8.38,0,0,1,4.23-1.13,8.27,8.27,0,0,1,6.15,2.73V142a1.62,1.62,0,0,1,1.66-1.65,1.53,1.53,0,0,1,1.15.48A1.66,1.66,0,0,1,516,142v23.37a1.58,1.58,0,0,1-.47,1.15,1.56,1.56,0,0,1-1.15.47,1.62,1.62,0,0,1-1.17-.47,1.56,1.56,0,0,1-.49-1.15v-.94a8.28,8.28,0,0,1-6.15,2.74A8.39,8.39,0,0,1,502.29,166Zm7.81-2.66a8.91,8.91,0,0,0,2.57-2V153.8a9,9,0,0,0-2.57-2,6.81,6.81,0,0,0-3.11-.73,5.66,5.66,0,0,0-4.29,1.69,7.88,7.88,0,0,0,0,9.57,5.66,5.66,0,0,0,4.29,1.7A6.82,6.82,0,0,0,510.1,163.32Z"/><path d="M531.25,144.11a1.76,1.76,0,0,1-.54-1.29v-.15a1.84,1.84,0,0,1,1.83-1.83h.22a1.84,1.84,0,0,1,1.84,1.83v.15a1.84,1.84,0,0,1-1.84,1.83h-.22A1.76,1.76,0,0,1,531.25,144.11Zm.21,22.36a1.57,1.57,0,0,1-.46-1.15V149.87a1.65,1.65,0,0,1,.46-1.17,1.57,1.57,0,0,1,1.16-.48,1.59,1.59,0,0,1,1.65,1.65v15.45a1.55,1.55,0,0,1-.48,1.15,1.66,1.66,0,0,1-1.17.47A1.6,1.6,0,0,1,531.46,166.47Z"/><path d="M540.43,166.47a1.58,1.58,0,0,1-.47-1.15V149.87a1.66,1.66,0,0,1,.47-1.17,1.53,1.53,0,0,1,1.15-.48,1.59,1.59,0,0,1,1.17.48,1.63,1.63,0,0,1,.49,1.17v1.48a11.8,11.8,0,0,1,3-2.41,7.42,7.42,0,0,1,3.74-.9,6.26,6.26,0,0,1,3.44.93,6.1,6.1,0,0,1,2.23,2.56,8.11,8.11,0,0,1,.78,3.56v10.23a1.56,1.56,0,0,1-.49,1.15,1.62,1.62,0,0,1-1.17.47,1.56,1.56,0,0,1-1.15-.47,1.58,1.58,0,0,1-.47-1.15v-9.87q0-4.39-4-4.39a5.68,5.68,0,0,0-3.22.94,11.45,11.45,0,0,0-2.68,2.52v10.8a1.56,1.56,0,0,1-.49,1.15,1.62,1.62,0,0,1-1.17.47A1.56,1.56,0,0,1,540.43,166.47Z"/><path d="M572.32,162.36V151.2h-2.55a.67.67,0,0,1-.49-.19.7.7,0,0,1-.2-.49.75.75,0,0,1,.33-.61l4.89-4.79a.89.89,0,0,1,.62-.32.63.63,0,0,1,.48.21.74.74,0,0,1,.2.51v2.88h4.07a1.34,1.34,0,0,1,1.4,1.4,1.41,1.41,0,0,1-.39,1,1.33,1.33,0,0,1-1,.41H575.6v10.88c0,.93.22,1.53.67,1.78a3.35,3.35,0,0,0,1.67.38,5.14,5.14,0,0,0,1.44-.22l.31-.07a1.53,1.53,0,0,1,.41,0,1.27,1.27,0,0,1,.9.38,1.24,1.24,0,0,1,.4.92,1.37,1.37,0,0,1-.83,1.26,7.12,7.12,0,0,1-3,.65C574.08,167.12,572.32,165.53,572.32,162.36Z"/><path d="M585.46,166.47a1.57,1.57,0,0,1-.46-1.15V142a1.65,1.65,0,0,1,.46-1.17,1.57,1.57,0,0,1,1.16-.48,1.64,1.64,0,0,1,1.65,1.65v9.4a12,12,0,0,1,3-2.41A7.49,7.49,0,0,1,595,148a6.28,6.28,0,0,1,3.44.93,6.17,6.17,0,0,1,2.23,2.56,8.24,8.24,0,0,1,.77,3.56v10.23a1.55,1.55,0,0,1-.48,1.15,1.66,1.66,0,0,1-1.17.47,1.6,1.6,0,0,1-1.16-.47,1.57,1.57,0,0,1-.46-1.15v-9.87q0-4.39-4-4.39A5.69,5.69,0,0,0,591,152a11.64,11.64,0,0,0-2.68,2.52v10.8a1.55,1.55,0,0,1-.48,1.15,1.66,1.66,0,0,1-1.17.47A1.6,1.6,0,0,1,585.46,166.47Z"/><path d="M608.27,164.61a9.55,9.55,0,0,1-2.47-7,11.8,11.8,0,0,1,.94-4.72,8,8,0,0,1,2.88-3.49,8.26,8.26,0,0,1,4.79-1.33,8.39,8.39,0,0,1,4.61,1.24,8.13,8.13,0,0,1,3,3.31,10.22,10.22,0,0,1,1,4.52,1.6,1.6,0,0,1-.45,1.15,1.64,1.64,0,0,1-1.21.47h-12.2a5.87,5.87,0,0,0,1.87,3.92,6.42,6.42,0,0,0,4.43,1.41,10.14,10.14,0,0,0,4.86-1.12,1.34,1.34,0,0,1,.64-.14,1.45,1.45,0,0,1,1,.39,1.31,1.31,0,0,1,.43,1,1.55,1.55,0,0,1-.93,1.33,12.85,12.85,0,0,1-2.77,1.19,13.2,13.2,0,0,1-3.53.4A9.18,9.18,0,0,1,608.27,164.61Zm11.47-8.55a5.85,5.85,0,0,0-.92-2.95,5,5,0,0,0-2-1.74,5.47,5.47,0,0,0-4.82,0,4.72,4.72,0,0,0-2,1.74,5.84,5.84,0,0,0-.9,2.95Z"/><path d="M637.73,162.36V151.2h-2.55a.67.67,0,0,1-.49-.19.7.7,0,0,1-.2-.49.75.75,0,0,1,.33-.61l4.89-4.79a.89.89,0,0,1,.62-.32.63.63,0,0,1,.48.21.7.7,0,0,1,.2.51v2.88h4.07a1.34,1.34,0,0,1,1.4,1.4,1.41,1.41,0,0,1-.39,1,1.33,1.33,0,0,1-1,.41H641v10.88c0,.93.22,1.53.67,1.78a3.35,3.35,0,0,0,1.67.38,5.14,5.14,0,0,0,1.44-.22l.31-.07a1.58,1.58,0,0,1,.41,0,1.27,1.27,0,0,1,.9.38,1.21,1.21,0,0,1,.4.92,1.37,1.37,0,0,1-.83,1.26,7.09,7.09,0,0,1-3,.65C639.49,167.12,637.73,165.53,637.73,162.36Z"/><path d="M653.39,165.93a8.12,8.12,0,0,1-3.22-3.37,11.56,11.56,0,0,1,0-10,8.18,8.18,0,0,1,3.22-3.37,9.73,9.73,0,0,1,4.87-1.18,9.59,9.59,0,0,1,4.82,1.18,8.29,8.29,0,0,1,3.24,3.37,11.38,11.38,0,0,1,0,10,8.22,8.22,0,0,1-3.24,3.37,9.6,9.6,0,0,1-4.82,1.19A9.73,9.73,0,0,1,653.39,165.93Zm7.69-2.49a5.43,5.43,0,0,0,2.23-2.16,8.24,8.24,0,0,0,0-7.45,5.38,5.38,0,0,0-2.23-2.14,6.35,6.35,0,0,0-2.82-.67,6.47,6.47,0,0,0-2.87.67,5.28,5.28,0,0,0-2.21,2.14,8.41,8.41,0,0,0,0,7.45,5.33,5.33,0,0,0,2.21,2.16,6.23,6.23,0,0,0,2.87.69A6.12,6.12,0,0,0,661.08,163.44Z"/><path d="M672.51,174.73a1.62,1.62,0,0,1-.47-1.17V149.84a1.6,1.6,0,0,1,.47-1.16,1.57,1.57,0,0,1,1.15-.46,1.61,1.61,0,0,1,1.17.46,1.54,1.54,0,0,1,.49,1.16v.93a8.27,8.27,0,0,1,6.15-2.73,8.45,8.45,0,0,1,4.24,1.13,8.67,8.67,0,0,1,3.24,3.31,11.09,11.09,0,0,1,0,10.19,8.6,8.6,0,0,1-3.24,3.31,8.46,8.46,0,0,1-4.24,1.14,8.28,8.28,0,0,1-6.15-2.74v9.18a1.61,1.61,0,0,1-1.66,1.66A1.56,1.56,0,0,1,672.51,174.73Zm12.78-12.37a7.88,7.88,0,0,0,0-9.57A5.65,5.65,0,0,0,681,151.1a6.85,6.85,0,0,0-3.12.73,9,9,0,0,0-2.57,2v7.56a8.91,8.91,0,0,0,2.57,2,6.86,6.86,0,0,0,3.12.74A5.66,5.66,0,0,0,685.29,162.36Z"/><path d="M694.63,166.27a2,2,0,0,1-.59-1.42v-.22a2,2,0,0,1,.59-1.42,1.93,1.93,0,0,1,1.42-.59h.36a1.93,1.93,0,0,1,1.43.59,2,2,0,0,1,.59,1.42v.22a2,2,0,0,1-.59,1.42,1.93,1.93,0,0,1-1.43.59h-.36A1.93,1.93,0,0,1,694.63,166.27Z"/><path d="M1075.5,123.27a1.57,1.57,0,0,1-.46-1.15V99.9a1.65,1.65,0,0,1,.46-1.17,1.57,1.57,0,0,1,1.16-.48,1.64,1.64,0,0,1,1.65,1.65v9.58H1092V99.9a1.65,1.65,0,0,1,.46-1.17,1.57,1.57,0,0,1,1.16-.48,1.64,1.64,0,0,1,1.65,1.65v22.22a1.55,1.55,0,0,1-.48,1.15,1.66,1.66,0,0,1-1.17.47,1.6,1.6,0,0,1-1.16-.47,1.57,1.57,0,0,1-.46-1.15v-9.58h-13.65v9.58a1.55,1.55,0,0,1-.48,1.15,1.66,1.66,0,0,1-1.17.47A1.6,1.6,0,0,1,1075.5,123.27Z"/><path d="M1102.41,121.41a9.59,9.59,0,0,1-2.46-7,11.8,11.8,0,0,1,.93-4.72,8.11,8.11,0,0,1,2.88-3.49,9.18,9.18,0,0,1,9.4-.09,8,8,0,0,1,2.95,3.31,10.22,10.22,0,0,1,1,4.52,1.58,1.58,0,0,1-1.66,1.62h-12.2a5.91,5.91,0,0,0,1.87,3.92,6.44,6.44,0,0,0,4.43,1.41,10.07,10.07,0,0,0,4.86-1.12,1.38,1.38,0,0,1,.65-.14,1.47,1.47,0,0,1,1,.39,1.34,1.34,0,0,1,.43,1,1.55,1.55,0,0,1-.94,1.33,12.65,12.65,0,0,1-2.77,1.19,13.14,13.14,0,0,1-3.53.4A9.2,9.2,0,0,1,1102.41,121.41Zm11.47-8.55a5.75,5.75,0,0,0-.92-3,4.89,4.89,0,0,0-2-1.74,5.47,5.47,0,0,0-4.82,0,4.84,4.84,0,0,0-2,1.74,5.84,5.84,0,0,0-.9,3Z"/><path d="M1131.88,119.16V108h-2.56a.65.65,0,0,1-.48-.19.7.7,0,0,1-.2-.49.76.76,0,0,1,.32-.61l4.9-4.79a.89.89,0,0,1,.61-.32.65.65,0,0,1,.49.21.74.74,0,0,1,.2.51v2.88h4.06a1.37,1.37,0,0,1,1,.39,1.36,1.36,0,0,1,.4,1,1.37,1.37,0,0,1-.4,1,1.31,1.31,0,0,1-1,.41h-4.06v10.88c0,.93.22,1.53.66,1.78a3.39,3.39,0,0,0,1.68.38,5.19,5.19,0,0,0,1.44-.22l.3-.07a1.66,1.66,0,0,1,.42,0,1.26,1.26,0,0,1,.89.38,1.21,1.21,0,0,1,.4.92,1.35,1.35,0,0,1-.83,1.26,7.05,7.05,0,0,1-3,.65Q1131.88,123.92,1131.88,119.16Z"/><path d="M1145,123.27a1.58,1.58,0,0,1-.47-1.15V106.67a1.66,1.66,0,0,1,.47-1.17,1.53,1.53,0,0,1,1.15-.48,1.66,1.66,0,0,1,1.66,1.65v1.55q2.52-3.39,5.65-3.39h.18a1.5,1.5,0,0,1,1.13.47,1.62,1.62,0,0,1,.45,1.16,1.45,1.45,0,0,1-.46,1.11,1.69,1.69,0,0,1-1.19.43h-.18a6.19,6.19,0,0,0-3.17.85,7.21,7.21,0,0,0-2.41,2.32v11a1.52,1.52,0,0,1-.49,1.15,1.62,1.62,0,0,1-1.17.47A1.56,1.56,0,0,1,1145,123.27Z"/><path d="M1158.59,100.91a1.76,1.76,0,0,1-.54-1.29v-.15a1.84,1.84,0,0,1,1.84-1.83h.21a1.84,1.84,0,0,1,1.84,1.83v.15a1.84,1.84,0,0,1-1.84,1.83h-.21A1.77,1.77,0,0,1,1158.59,100.91Zm.22,22.36a1.58,1.58,0,0,1-.47-1.15V106.67a1.66,1.66,0,0,1,.47-1.17A1.53,1.53,0,0,1,1160,105a1.61,1.61,0,0,1,1.19.46,1.64,1.64,0,0,1,.47,1.19v15.45a1.56,1.56,0,0,1-.49,1.15,1.64,1.64,0,0,1-1.17.47A1.56,1.56,0,0,1,1158.81,123.27Z"/><path d="M1168.65,121.41a9.59,9.59,0,0,1-2.46-7,11.8,11.8,0,0,1,.93-4.72,8.11,8.11,0,0,1,2.88-3.49,8.27,8.27,0,0,1,4.79-1.34,8.37,8.37,0,0,1,4.61,1.25,8,8,0,0,1,2.95,3.31,10.22,10.22,0,0,1,1,4.52,1.58,1.58,0,0,1-1.66,1.62h-12.2a5.87,5.87,0,0,0,1.87,3.92,6.44,6.44,0,0,0,4.43,1.41,10.07,10.07,0,0,0,4.86-1.12,1.38,1.38,0,0,1,.65-.14,1.47,1.47,0,0,1,1,.39,1.34,1.34,0,0,1,.43,1,1.55,1.55,0,0,1-.94,1.33,12.65,12.65,0,0,1-2.77,1.19,13.14,13.14,0,0,1-3.53.4A9.2,9.2,0,0,1,1168.65,121.41Zm11.47-8.55a5.75,5.75,0,0,0-.92-3,4.89,4.89,0,0,0-2-1.74,5.47,5.47,0,0,0-4.82,0,4.84,4.84,0,0,0-2,1.74,5.84,5.84,0,0,0-.9,3Z"/><path d="M1187.07,122.3a1.38,1.38,0,0,1-.61-1.19,1.45,1.45,0,0,1,.39-1,1.31,1.31,0,0,1,1-.43,1.69,1.69,0,0,1,.65.14,13.92,13.92,0,0,0,2.3.79,10.31,10.31,0,0,0,2.59.29q4,0,4-2.56a1.35,1.35,0,0,0-.92-1.25,18.17,18.17,0,0,0-3-1,26.85,26.85,0,0,1-3.51-1,6.21,6.21,0,0,1-2.37-1.64,4.16,4.16,0,0,1-1-2.9,5.19,5.19,0,0,1,1.82-4.1,7.65,7.65,0,0,1,5.2-1.59,15,15,0,0,1,5.22.91,1.28,1.28,0,0,1,.77.54,1.42,1.42,0,0,1-.14,1.83,1.37,1.37,0,0,1-1,.43,2,2,0,0,1-.47-.07,13.85,13.85,0,0,0-4.1-.65,5.6,5.6,0,0,0-3,.71,2.08,2.08,0,0,0-1.1,1.81,1.68,1.68,0,0,0,1,1.59,14.69,14.69,0,0,0,3.13,1,29.66,29.66,0,0,1,3.46,1.06,5.77,5.77,0,0,1,2.28,1.64,4.42,4.42,0,0,1,1,3,4.75,4.75,0,0,1-1.82,3.81,7.79,7.79,0,0,1-5.13,1.52A13.39,13.39,0,0,1,1187.07,122.3Z"/><path d="M1215.4,119.16V108h-2.56a.65.65,0,0,1-.48-.19.66.66,0,0,1-.2-.49.76.76,0,0,1,.32-.61l4.9-4.79a.89.89,0,0,1,.61-.32.65.65,0,0,1,.49.21.74.74,0,0,1,.2.51v2.88h4.06a1.37,1.37,0,0,1,1,.39,1.36,1.36,0,0,1,.4,1,1.37,1.37,0,0,1-.4,1,1.31,1.31,0,0,1-1,.41h-4.06v10.88c0,.93.22,1.53.66,1.78a3.39,3.39,0,0,0,1.68.38,5.25,5.25,0,0,0,1.44-.22l.3-.07a1.66,1.66,0,0,1,.42,0,1.26,1.26,0,0,1,.89.38,1.21,1.21,0,0,1,.4.92,1.35,1.35,0,0,1-.83,1.26,7.05,7.05,0,0,1-3,.65Q1215.4,123.92,1215.4,119.16Z"/><path d="M1231.06,122.73a8.05,8.05,0,0,1-3.22-3.37,11.47,11.47,0,0,1,0-10,8.11,8.11,0,0,1,3.22-3.37,10.44,10.44,0,0,1,9.68,0,8.29,8.29,0,0,1,3.24,3.37,11.29,11.29,0,0,1,0,10,8.22,8.22,0,0,1-3.24,3.37,10.44,10.44,0,0,1-9.68,0Zm7.69-2.49a5.43,5.43,0,0,0,2.23-2.16,8.32,8.32,0,0,0,0-7.45,5.38,5.38,0,0,0-2.23-2.14,6.38,6.38,0,0,0-5.69,0,5.3,5.3,0,0,0-2.22,2.14,8.5,8.5,0,0,0,0,7.45,5.35,5.35,0,0,0,2.22,2.16,6.21,6.21,0,0,0,5.69,0Z"/><path d="M1262.34,121.18v.94a1.55,1.55,0,0,1-.48,1.15,1.66,1.66,0,0,1-1.17.47,1.56,1.56,0,0,1-1.15-.47,1.54,1.54,0,0,1-.47-1.15V98.75a1.62,1.62,0,0,1,.47-1.17,1.53,1.53,0,0,1,1.15-.48,1.58,1.58,0,0,1,1.65,1.65v8.82a8.34,8.34,0,0,1,10.39-1.6,8.67,8.67,0,0,1,3.24,3.31,11.09,11.09,0,0,1,0,10.19,8.6,8.6,0,0,1-3.24,3.31,8.34,8.34,0,0,1-10.39-1.6Zm10-2a7.84,7.84,0,0,0,0-9.57,5.63,5.63,0,0,0-4.28-1.69,6.81,6.81,0,0,0-3.11.73,9.13,9.13,0,0,0-2.58,2v7.56a9.09,9.09,0,0,0,2.58,2,6.82,6.82,0,0,0,3.11.74A5.64,5.64,0,0,0,1272.31,119.16Z"/><path d="M1282,100.91a1.77,1.77,0,0,1-.55-1.29v-.15a1.77,1.77,0,0,1,.55-1.29,1.74,1.74,0,0,1,1.29-.54h.22a1.84,1.84,0,0,1,1.83,1.83v.15a1.84,1.84,0,0,1-1.83,1.83h-.22A1.74,1.74,0,0,1,1282,100.91Zm.21,22.36a1.58,1.58,0,0,1-.47-1.15V106.67a1.66,1.66,0,0,1,.47-1.17,1.55,1.55,0,0,1,1.15-.48,1.61,1.61,0,0,1,1.19.46,1.64,1.64,0,0,1,.47,1.19v15.45a1.52,1.52,0,0,1-.49,1.15,1.62,1.62,0,0,1-1.17.47A1.58,1.58,0,0,1,1282.25,123.27Z"/><path d="M1291.83,119.16V108h-2.56a.65.65,0,0,1-.48-.19.66.66,0,0,1-.2-.49.76.76,0,0,1,.32-.61l4.9-4.79a.87.87,0,0,1,.61-.32.63.63,0,0,1,.48.21.7.7,0,0,1,.2.51v2.88h4.07a1.34,1.34,0,0,1,1.4,1.4,1.41,1.41,0,0,1-.39,1,1.33,1.33,0,0,1-1,.41h-4.07v10.88c0,.93.22,1.53.67,1.78a3.35,3.35,0,0,0,1.67.38,5.14,5.14,0,0,0,1.44-.22l.31-.07a1.62,1.62,0,0,1,.41,0,1.27,1.27,0,0,1,.9.38,1.21,1.21,0,0,1,.4.92,1.37,1.37,0,0,1-.83,1.26,7.09,7.09,0,0,1-3,.65Q1291.83,123.92,1291.83,119.16Z"/><path d="M1305.6,121.41a9.55,9.55,0,0,1-2.47-7,11.63,11.63,0,0,1,.94-4.72,8,8,0,0,1,2.88-3.49,8.23,8.23,0,0,1,4.78-1.34,8.34,8.34,0,0,1,4.61,1.25,8,8,0,0,1,3,3.31,10.09,10.09,0,0,1,1,4.52,1.57,1.57,0,0,1-1.65,1.62h-12.21a5.91,5.91,0,0,0,1.87,3.92,6.45,6.45,0,0,0,4.43,1.41,10.07,10.07,0,0,0,4.86-1.12,1.38,1.38,0,0,1,.65-.14,1.47,1.47,0,0,1,1,.39,1.31,1.31,0,0,1,.43,1,1.55,1.55,0,0,1-.94,1.33,12.65,12.65,0,0,1-2.77,1.19,13.12,13.12,0,0,1-3.52.4A9.18,9.18,0,0,1,1305.6,121.41Zm11.46-8.55a5.66,5.66,0,0,0-.92-3,4.87,4.87,0,0,0-2-1.74,5.49,5.49,0,0,0-4.83,0,4.84,4.84,0,0,0-2,1.74,5.94,5.94,0,0,0-.9,3Z"/><path d="M1334.23,100.91a1.8,1.8,0,0,1-.54-1.29v-.15a1.84,1.84,0,0,1,1.84-1.83h.22a1.84,1.84,0,0,1,1.83,1.83v.15a1.84,1.84,0,0,1-1.83,1.83h-.22A1.78,1.78,0,0,1,1334.23,100.91Zm.22,22.36a1.58,1.58,0,0,1-.47-1.15V106.67a1.66,1.66,0,0,1,.47-1.17,1.55,1.55,0,0,1,1.15-.48,1.61,1.61,0,0,1,1.19.46,1.64,1.64,0,0,1,.47,1.19v15.45a1.52,1.52,0,0,1-.49,1.15,1.62,1.62,0,0,1-1.17.47A1.58,1.58,0,0,1,1334.45,123.27Z"/><path d="M1344,119.16V108h-2.56a.65.65,0,0,1-.68-.68.74.74,0,0,1,.32-.61l4.9-4.79a.87.87,0,0,1,.61-.32.63.63,0,0,1,.48.21.7.7,0,0,1,.2.51v2.88h4.07a1.34,1.34,0,0,1,1.4,1.4,1.41,1.41,0,0,1-.39,1,1.33,1.33,0,0,1-1,.41h-4.07v10.88c0,.93.22,1.53.67,1.78a3.35,3.35,0,0,0,1.67.38,5.14,5.14,0,0,0,1.44-.22l.31-.07a1.58,1.58,0,0,1,.41,0,1.27,1.27,0,0,1,.9.38,1.21,1.21,0,0,1,.4.92,1.37,1.37,0,0,1-.83,1.26,7.09,7.09,0,0,1-3,.65Q1344,123.92,1344,119.16Z"/><path d="M1369.3,122.73a8,8,0,0,1-3.22-3.37,11.47,11.47,0,0,1,0-10,8.05,8.05,0,0,1,3.22-3.37,10.44,10.44,0,0,1,9.68,0,8.29,8.29,0,0,1,3.24,3.37,11.38,11.38,0,0,1,0,10,8.22,8.22,0,0,1-3.24,3.37,10.44,10.44,0,0,1-9.68,0Zm7.68-2.49a5.37,5.37,0,0,0,2.23-2.16,8.24,8.24,0,0,0,0-7.45,5.32,5.32,0,0,0-2.23-2.14,6.35,6.35,0,0,0-2.82-.67,6.5,6.5,0,0,0-2.87.67,5.28,5.28,0,0,0-2.21,2.14,8.5,8.5,0,0,0,0,7.45,5.33,5.33,0,0,0,2.21,2.16,6.26,6.26,0,0,0,2.87.69A6.12,6.12,0,0,0,1377,120.24Z"/><path d="M1389.6,123.27a1.58,1.58,0,0,1-.47-1.15V108H1387a1.31,1.31,0,0,1-1-.41,1.34,1.34,0,0,1-.41-1,1.33,1.33,0,0,1,.41-1,1.37,1.37,0,0,1,1-.39h2.12v-2.09a7.21,7.21,0,0,1,.78-3.55,4.8,4.8,0,0,1,2-2,5.71,5.71,0,0,1,2.61-.63,6.93,6.93,0,0,1,3.14.72,1.62,1.62,0,0,1,.59.52,1.25,1.25,0,0,1,.23.74,1.35,1.35,0,0,1-.39.95,1.25,1.25,0,0,1-.94.41,3.54,3.54,0,0,1-.83-.1c-.57-.08-.9-.11-1-.11a3.18,3.18,0,0,0-2.21.68,3.31,3.31,0,0,0-.74,2.49v2h4.5a1.34,1.34,0,0,1,1.4,1.4,1.41,1.41,0,0,1-.39,1,1.33,1.33,0,0,1-1,.41h-4.5v14.12a1.52,1.52,0,0,1-.49,1.15,1.62,1.62,0,0,1-1.17.47A1.58,1.58,0,0,1,1389.6,123.27Z"/><path d="M1403,123.27a1.57,1.57,0,0,1-.46-1.15V108h-2.13a1.34,1.34,0,0,1-1-.41,1.38,1.38,0,0,1-.41-1,1.36,1.36,0,0,1,.41-1,1.41,1.41,0,0,1,1-.39h2.13v-2.09a7.21,7.21,0,0,1,.77-3.55,4.83,4.83,0,0,1,2-2,5.65,5.65,0,0,1,2.61-.63,6.92,6.92,0,0,1,3.13.72,1.48,1.48,0,0,1,.59.52,1.26,1.26,0,0,1,.24.74,1.36,1.36,0,0,1-.4.95,1.24,1.24,0,0,1-.94.41,3.4,3.4,0,0,1-.82-.1c-.58-.08-.9-.11-1-.11a3.18,3.18,0,0,0-2.21.68,3.35,3.35,0,0,0-.74,2.49v2h4.5a1.35,1.35,0,0,1,1.41,1.4,1.42,1.42,0,0,1-.4,1,1.33,1.33,0,0,1-1,.41h-4.5v14.12a1.55,1.55,0,0,1-.48,1.15,1.66,1.66,0,0,1-1.17.47A1.58,1.58,0,0,1,1403,123.27Z"/><path d="M1413.56,128.67a1.1,1.1,0,0,1-.31-.76,1,1,0,0,1,.54-.9,4.1,4.1,0,0,0,1.37-1.26,3.85,3.85,0,0,0,.47-2.09h-.14a1.93,1.93,0,0,1-1.43-.59,2,2,0,0,1-.59-1.42v-.22a2,2,0,0,1,.59-1.42,1.93,1.93,0,0,1,1.43-.59h.36a1.93,1.93,0,0,1,1.42.59,2,2,0,0,1,.59,1.42v2.13a5.78,5.78,0,0,1-2.95,5.25,1.14,1.14,0,0,1-.61.18A1,1,0,0,1,1413.56,128.67Z"/><path d="M1434.29,123.27a5.11,5.11,0,0,1-2.93-4.75,5,5,0,0,1,2.11-4.25q2.1-1.59,6.17-1.59H1444v-.28a4.36,4.36,0,0,0-1.17-3.42,5.37,5.37,0,0,0-3.66-1,11.85,11.85,0,0,0-2.43.22,20,20,0,0,0-2.36.65,2.46,2.46,0,0,1-.46.07,1.26,1.26,0,0,1-.94-.4,1.34,1.34,0,0,1-.4-1,1.4,1.4,0,0,1,.94-1.37,15.93,15.93,0,0,1,6.23-1.3,8.15,8.15,0,0,1,4.19,1,6.43,6.43,0,0,1,2.52,2.61,7.61,7.61,0,0,1,.81,3.48v10.19a1.55,1.55,0,0,1-.48,1.15,1.66,1.66,0,0,1-1.17.47,1.6,1.6,0,0,1-1.16-.47,1.57,1.57,0,0,1-.46-1.15v-.94a9.08,9.08,0,0,1-6.77,2.74A6.77,6.77,0,0,1,1434.29,123.27Zm7.22-3a8.44,8.44,0,0,0,2.49-1.93v-3h-3.93q-5.43,0-5.43,2.85a2.64,2.64,0,0,0,.88,2.08,4.33,4.33,0,0,0,2.93.8A6.45,6.45,0,0,0,1441.51,120.26Z"/><path d="M1453.25,123.27a1.58,1.58,0,0,1-.47-1.15V106.67a1.66,1.66,0,0,1,.47-1.17,1.53,1.53,0,0,1,1.15-.48,1.59,1.59,0,0,1,1.17.48,1.63,1.63,0,0,1,.49,1.17v1.48a11.8,11.8,0,0,1,3-2.41,7.43,7.43,0,0,1,3.74-.91,6.26,6.26,0,0,1,3.44.94,6.1,6.1,0,0,1,2.23,2.56,8.11,8.11,0,0,1,.78,3.56v10.23a1.56,1.56,0,0,1-.49,1.15,1.62,1.62,0,0,1-1.17.47,1.56,1.56,0,0,1-1.15-.47,1.58,1.58,0,0,1-.47-1.15v-9.87q0-4.4-4-4.39a5.68,5.68,0,0,0-3.22.94,11.45,11.45,0,0,0-2.68,2.52v10.8a1.56,1.56,0,0,1-.49,1.15,1.62,1.62,0,0,1-1.17.47A1.56,1.56,0,0,1,1453.25,123.27Z"/><path d="M1478.07,122.78a8.6,8.6,0,0,1-3.24-3.31,11.09,11.09,0,0,1,0-10.19,8.67,8.67,0,0,1,3.24-3.31,8.34,8.34,0,0,1,10.39,1.6V98.75a1.61,1.61,0,0,1,.48-1.19,1.65,1.65,0,0,1,1.17-.46,1.53,1.53,0,0,1,1.15.48,1.62,1.62,0,0,1,.47,1.17v23.37a1.54,1.54,0,0,1-.47,1.15,1.56,1.56,0,0,1-1.15.47,1.66,1.66,0,0,1-1.17-.47,1.55,1.55,0,0,1-.48-1.15v-.94a8.34,8.34,0,0,1-10.39,1.6Zm7.81-2.66a9.09,9.09,0,0,0,2.58-2V110.6a9.13,9.13,0,0,0-2.58-2,6.81,6.81,0,0,0-3.11-.73,5.66,5.66,0,0,0-4.29,1.69,7.88,7.88,0,0,0,0,9.57,5.66,5.66,0,0,0,4.29,1.7A6.82,6.82,0,0,0,1485.88,120.12Z"/><path d="M1507.86,119.16V108h-2.56a.65.65,0,0,1-.48-.19.7.7,0,0,1-.2-.49.76.76,0,0,1,.32-.61l4.9-4.79a.87.87,0,0,1,.61-.32.67.67,0,0,1,.49.21.74.74,0,0,1,.19.51v2.88h4.07a1.37,1.37,0,0,1,1,.39,1.4,1.4,0,0,1,.4,1,1.42,1.42,0,0,1-.4,1,1.31,1.31,0,0,1-1,.41h-4.07v10.88c0,.93.23,1.53.67,1.78a3.35,3.35,0,0,0,1.67.38,5.15,5.15,0,0,0,1.45-.22l.3-.07a1.62,1.62,0,0,1,.41,0,1.31,1.31,0,0,1,.91.38,1.23,1.23,0,0,1,.39.92,1.37,1.37,0,0,1-.83,1.26,7,7,0,0,1-3,.65Q1507.86,123.92,1507.86,119.16Z"/><path d="M1521,123.27a1.58,1.58,0,0,1-.47-1.15V98.75a1.66,1.66,0,0,1,.47-1.17,1.55,1.55,0,0,1,1.15-.48,1.59,1.59,0,0,1,1.17.48,1.63,1.63,0,0,1,.49,1.17v9.4a11.8,11.8,0,0,1,3-2.41,7.43,7.43,0,0,1,3.74-.91,6.26,6.26,0,0,1,3.44.94,6.1,6.1,0,0,1,2.23,2.56,8.11,8.11,0,0,1,.78,3.56v10.23a1.52,1.52,0,0,1-.49,1.15,1.62,1.62,0,0,1-1.17.47,1.56,1.56,0,0,1-1.15-.47,1.58,1.58,0,0,1-.47-1.15v-9.87q0-4.4-4-4.39a5.68,5.68,0,0,0-3.22.94,11.45,11.45,0,0,0-2.68,2.52v10.8a1.56,1.56,0,0,1-.49,1.15,1.62,1.62,0,0,1-1.17.47A1.58,1.58,0,0,1,1521,123.27Z"/><path d="M1543.8,121.41a9.59,9.59,0,0,1-2.46-7,11.63,11.63,0,0,1,.94-4.72,8,8,0,0,1,2.87-3.49,9.18,9.18,0,0,1,9.4-.09,8,8,0,0,1,3,3.31,10.22,10.22,0,0,1,1,4.52,1.57,1.57,0,0,1-1.65,1.62h-12.21a5.91,5.91,0,0,0,1.87,3.92,6.44,6.44,0,0,0,4.43,1.41,10.07,10.07,0,0,0,4.86-1.12,1.38,1.38,0,0,1,.65-.14,1.47,1.47,0,0,1,1,.39,1.34,1.34,0,0,1,.43,1,1.55,1.55,0,0,1-.94,1.33,12.65,12.65,0,0,1-2.77,1.19,13.14,13.14,0,0,1-3.53.4A9.2,9.2,0,0,1,1543.8,121.41Zm11.47-8.55a5.75,5.75,0,0,0-.92-3,4.93,4.93,0,0,0-2-1.74,5.49,5.49,0,0,0-4.83,0,4.84,4.84,0,0,0-2,1.74,5.84,5.84,0,0,0-.9,3Z"/><path d="M1563.3,123.27a1.58,1.58,0,0,1-.47-1.15V106.67a1.66,1.66,0,0,1,.47-1.17,1.53,1.53,0,0,1,1.15-.48,1.66,1.66,0,0,1,1.66,1.65v1.48a11.8,11.8,0,0,1,3-2.41,7.45,7.45,0,0,1,3.74-.91,6.26,6.26,0,0,1,3.44.94,6.1,6.1,0,0,1,2.23,2.56,8.11,8.11,0,0,1,.78,3.56v10.23a1.56,1.56,0,0,1-.49,1.15,1.62,1.62,0,0,1-1.17.47,1.56,1.56,0,0,1-1.15-.47,1.58,1.58,0,0,1-.47-1.15v-9.87q0-4.4-4-4.39a5.68,5.68,0,0,0-3.22.94,11.45,11.45,0,0,0-2.68,2.52v10.8a1.52,1.52,0,0,1-.49,1.15,1.62,1.62,0,0,1-1.17.47A1.56,1.56,0,0,1,1563.3,123.27Z"/><path d="M1584.48,128.67a1.09,1.09,0,0,1-.3-.76,1,1,0,0,1,.54-.9,4.1,4.1,0,0,0,1.37-1.26,3.86,3.86,0,0,0,.46-2.09h-.14a1.91,1.91,0,0,1-1.42-.59,1.94,1.94,0,0,1-.6-1.42v-.22a1.94,1.94,0,0,1,.6-1.42,1.91,1.91,0,0,1,1.42-.59h.36a1.91,1.91,0,0,1,1.42.59,1.94,1.94,0,0,1,.6,1.42v2.13a5.79,5.79,0,0,1-3,5.25,1.11,1.11,0,0,1-.61.18A1,1,0,0,1,1584.48,128.67Z"/><path d="M1603.94,131.53a1.62,1.62,0,0,1-.47-1.17V106.64a1.6,1.6,0,0,1,.47-1.16,1.57,1.57,0,0,1,1.15-.46,1.61,1.61,0,0,1,1.17.46,1.54,1.54,0,0,1,.49,1.16v.93a8.28,8.28,0,0,1,6.16-2.74,8.39,8.39,0,0,1,4.22,1.14,8.62,8.62,0,0,1,3.25,3.31,11.09,11.09,0,0,1,0,10.19,8.55,8.55,0,0,1-3.25,3.31,8.39,8.39,0,0,1-4.22,1.14,8.28,8.28,0,0,1-6.16-2.74v9.18a1.61,1.61,0,0,1-1.66,1.66A1.56,1.56,0,0,1,1603.94,131.53Zm12.78-12.37a7.88,7.88,0,0,0,0-9.57,5.65,5.65,0,0,0-4.28-1.69,6.82,6.82,0,0,0-3.12.73,9,9,0,0,0-2.57,2v7.56a8.91,8.91,0,0,0,2.57,2,6.83,6.83,0,0,0,3.12.74A5.66,5.66,0,0,0,1616.72,119.16Z"/><path d="M1629.43,122.73a8.05,8.05,0,0,1-3.22-3.37,11.47,11.47,0,0,1,0-10,8.11,8.11,0,0,1,3.22-3.37,10.44,10.44,0,0,1,9.68,0,8.29,8.29,0,0,1,3.24,3.37,11.29,11.29,0,0,1,0,10,8.22,8.22,0,0,1-3.24,3.37,10.44,10.44,0,0,1-9.68,0Zm7.69-2.49a5.43,5.43,0,0,0,2.23-2.16,8.32,8.32,0,0,0,0-7.45,5.38,5.38,0,0,0-2.23-2.14,6.38,6.38,0,0,0-5.69,0,5.3,5.3,0,0,0-2.22,2.14,8.5,8.5,0,0,0,0,7.45,5.35,5.35,0,0,0,2.22,2.16,6.21,6.21,0,0,0,5.69,0Z"/><path d="M1648.54,131.53a1.61,1.61,0,0,1-.46-1.17V106.64a1.57,1.57,0,0,1,1.62-1.62,1.65,1.65,0,0,1,1.17.46,1.57,1.57,0,0,1,.48,1.16v.93a8.34,8.34,0,0,1,10.39-1.6,8.67,8.67,0,0,1,3.24,3.31,11.09,11.09,0,0,1,0,10.19,8.6,8.6,0,0,1-3.24,3.31,8.34,8.34,0,0,1-10.39-1.6v9.18a1.64,1.64,0,0,1-2.81,1.17Zm12.78-12.37a7.84,7.84,0,0,0,0-9.57,5.63,5.63,0,0,0-4.28-1.69,6.81,6.81,0,0,0-3.11.73,9.13,9.13,0,0,0-2.58,2v7.56a9.09,9.09,0,0,0,2.58,2,6.82,6.82,0,0,0,3.11.74A5.64,5.64,0,0,0,1661.32,119.16Z"/><path d="M1671.53,123.07a2.08,2.08,0,0,1-.63-1.53,2,2,0,0,1,.63-1.49,2,2,0,0,1,1.5-.63,2.08,2.08,0,0,1,1.52.63,2,2,0,0,1,.64,1.49,2.17,2.17,0,0,1-2.16,2.16A2,2,0,0,1,1671.53,123.07Zm.63-6.75a1.08,1.08,0,0,1-.36-.76l-.65-11.88v-3.56a1.8,1.8,0,0,1,.54-1.33,1.82,1.82,0,0,1,1.34-.54,1.76,1.76,0,0,1,1.31.54,1.82,1.82,0,0,1,.52,1.33v3.56l-.65,11.88a1.1,1.1,0,0,1-.34.76,1.19,1.19,0,0,1-.84.29A1.27,1.27,0,0,1,1672.16,116.32Z"/><g class="cls-2"><path class="cls-3" d="M1692.1,582.15c-27.82,90.88-148.22,103.4-279.7,63.15s-224.23-118-196.41-208.9,89.82-183.67,297.16-120.2C1709.52,376.31,1719.92,491.27,1692.1,582.15Z"/><path class="cls-4" d="M1577.52,547.07c24-78.3,26.74-172.27-69.39-226.31-113.56-10.16-157.62,71.18-181.59,149.48-22.31,72.86,17,132.43,85.48,169.11C1489.3,647.29,1555.21,619.94,1577.52,547.07Z"/><path class="cls-4" d="M1568.42,333.12c-7.18-2.2-14.13-4.09-20.89-5.72C1678.82,377,1678.29,483,1651.72,569.79c-25.94,84.73-110.85,107.93-204,85.63q9.75,3.66,20,6.8c100.94,30.91,196.6,10.81,224.42-80.07S1719.2,379.27,1568.42,333.12Z"/><path class="cls-4" d="M1257.79,449.19c26.56-86.78,77.8-177.28,221-142.84q-9.3-3.51-19.48-6.64C1300.1,251,1245.23,346,1217.41,436.84s40.2,161.08,141.14,192q10.25,3.13,20.38,5.55C1289.23,600.68,1231.85,533.93,1257.79,449.19Z"/><path class="cls-5" d="M1493.41,313.14s.69-7.52,2.92-10.54,7.52-15.86,17.93-22.13,25.26-11.87,26-10.64,6,2.17,5.2,4.29-11.46,12-19,31.5c-1.25,3.24-2.92,17.47-10.35,18.59s-18.28-7-19-8.28S1493.41,313.14,1493.41,313.14Z"/><path class="cls-3" d="M1511.6,526.89c24-78.3,39.07-168.5-3.62-206.17-58.24,6.78-93.21,90.89-117.18,169.19-22.3,72.87-10.29,124.08,20.39,149.19C1450.67,635.47,1489.3,599.76,1511.6,526.89Z"/><path d="M1325.37,503.69c-4.92-12.44,3.78,32.47,8.64,30.71s27.35-3,33.14-7.29,16.41,33.48,23.58,24.65,17.07-8.49,16-3.58,9.64,29.15,13.47,17.51,31.83-19,28.21-13.7,18.38,40.77,16.89,27.5,33.89-11.33,30.91-7,3.87,27.38,8,18.95,78.29-62.67,67.91-59.25-53.79,23.55-53.79,23.55-26.17-32.29-26.19-36.87-17,32-17,32-35.32-44.69-32.46-50.88-19.2,31.35-19.2,31.35-30.14-49.23-26.65-35.54-6.38,27-6.38,27-24.75-38.18-27.22-27.14-18.59,19.24-23.64,17.35S1330.29,516.14,1325.37,503.69Z"/><path d="M1390.23,348c-1.77-9.64-36.67,83.79-27.8,76.27s35.52-18.57,30.7-13.77,1.4,45.86,6.23,31.45,13.37-29.57,14.12-35.48S1392,357.63,1390.23,348Z"/><path d="M1578.1,416.12c-4.83,11.78-29.6,25-36.28,30.89s-14.09,36.94-5.39,25.85,25.38-13.23,20.1-8.57-9.21,42.67-1.13,30.84,17.23-14.67,26.08-22.2S1582.93,404.34,1578.1,416.12Z"/><path d="M1355.17,629.15c-15-4.4-41.7-20.59-41.7-20.59s-13.68-29.78-9-24.75,25.33,22.67,25.33,22.67,11.6-26.42,10.42-17.46,14.35,29.27,14.35,29.27,27.85-14.8,24.25-8.12,4.06,12.12,4.06,12.12,29.82-11.08,26.22-4.41-6.64,16.62-1,18.36,30.28,7.72,38.26,7-7.79-9.55,6.43-5.5,38.58.63,30.72,6-11.75,13-3.84,12.58,35.43-9.13,30.85-4.31-11.74,7.87-2.69,8.79,29.14-3.8,25.43-1.83-6.43,11.54-15.07,11.47S1466.43,665,1441.74,659s-53.13-16.27-64.27-19.68S1370.15,633.55,1355.17,629.15Z"/><path d="M351.06,608.66c-16.12.18-47.41-7.73-47.41-7.73s-22.51-25.27-16.33-21.73,31.87,14.73,31.87,14.73,3.47-29.6,5-20.39,23,24.56,23,24.56,23-23,21.48-15.35,7.68,10.74,7.68,10.74,26.09-20,24.56-12.28-1.54,18.42,4.6,18.42,32.23-1.53,39.91-4.6-10.58-7.07,4.69-7.37,38.28-11,32.14-3.38-7.67,16.42,0,13.58,32.23-19.72,29.16-13.58-9.21,11.32,0,9.5,27.63-12.57,24.56-9.5-2.86,13.35-11.4,15.88-52.87,10.22-79.06,11.75-57.38,0-69.41,0S367.17,608.47,351.06,608.66Z"/><path class="cls-6" d="M416.25,919.87c31.92-39.25,64.6-79.11,91.45-122.06,12.82-20.5,21.2-43.95,30.69-66.1,13.21-30.78,26.31-61.62,38.85-92.68,10.09-25,16.79-50.36,23.84-76.4,3-11.1-14.2-15.83-17.2-4.74-6.09,22.51-11.41,45.06-20,66.76-11.55,29.23-23.86,58.16-36.19,87.06-9.8,23-18.41,47.45-30.7,69.24-14.59,25.85-33.44,49.6-51.44,73.12Q425,881,403.64,907.26c-7.18,8.83,5.37,21.52,12.61,12.61Z"/><path class="cls-6" d="M589.72,610.44l26.84-20.29c3.83-2.9,5.83-7.69,3.2-12.2-2.21-3.78-8.34-6.12-12.21-3.2L580.71,595c-3.83,2.9-5.83,7.7-3.2,12.2,2.21,3.78,8.34,6.13,12.21,3.2Z"/><rect class="cls-6" x="358.36" y="813.91" width="17.84" height="50.53" rx="8.92" transform="translate(449.65 -73.14) rotate(28.8)"/><path class="cls-7" d="M392.76,1137.23c-23.41,129.65-54.78,71.19-104.86,62.14s-99.92,34.76-76.51-94.89c4.29-23.78,26.78-146,32.21-169.68,24.23-105.36,43.72-101,108.22-89.39,62.57,11.3,83.19,19.17,68.77,129.37C417.77,996.33,396.59,1116,392.76,1137.23Z"/><path class="cls-6" d="M289.43,881.18c-22-44.09-44.63-88.91-60.9-135.47-7.82-22.36-10.82-46.59-15.16-69.8-6.07-32.44-12-64.91-17.4-97.48-1.76-10.69-3.58-19.83-4.19-29.08-1.06-16.07-1.35-32.22-2.06-48.31-.5-11.44-18.34-11.5-17.84,0,1.06,23.91,1.44,47.63,5.15,71.3,5,31.72,10.8,63.31,16.64,94.87,4.63,25,7.69,51.28,15.14,75.63,8.86,28.95,22.3,56.8,35,84.22q14.68,31.77,30.25,63.13c5.13,10.27,20.52,1.25,15.4-9Z"/><path class="cls-6" d="M184.91,537.78l-21.76-25.67c-3.11-3.67-9.4-3.21-12.61,0-3.64,3.64-3.12,8.93,0,12.61l21.76,25.67c3.12,3.68,9.4,3.21,12.61,0,3.64-3.64,3.13-8.93,0-12.61Z"/><path class="cls-6" d="M553.22,751s-10.76,4.61-13.76-3.8-20.78-50.35-21.77-80.09,3.19-68.17,5.92-68.26,11.32,12.38,14.19,16.54,9,13.94,14.19,16.54c6.22,3.09,25.22,21.62,28.24,28.84,3.16,7.54,14.33,20.79,9.45,38s-25.7,47.65-28.42,47.74S553.22,751,553.22,751Z"/><path class="cls-6" d="M220.12,744.48s11,3.88,13.48-4.71S251,688.15,250,658.41s-7.71-67.81-10.43-67.72-10.48,13.11-13.06,17.45-8,14.5-13.06,17.45c-6,3.5-23.73,23.25-26.26,30.65-2.65,7.73-12.92,21.7-6.91,38.52s28.81,45.83,31.53,45.74S220.12,744.48,220.12,744.48Z"/><path class="cls-7" d="M547.83,733c2.5,74.94-68.42,114.58-157.44,117.54S228,818.66,225.48,743.72,241,583.8,381.36,579.13C514.31,574.71,545.34,658,547.83,733Z"/><circle class="cls-3" cx="454.41" cy="666.5" r="49.79"/><ellipse cx="451.1" cy="648.2" rx="6.36" ry="31.12" transform="translate(-21.31 15.36) rotate(-1.91)"/><circle class="cls-3" cx="286.4" cy="667.63" r="49.79"/><ellipse cx="286.65" cy="649.05" rx="6.36" ry="31.12" transform="translate(-21.43 9.89) rotate(-1.91)"/><path class="cls-7" d="M517.54,614.2c.32,9.61-28.76,3.74-65.27,5s-66.62,9.05-66.94-.56,7.85-20.7,65.43-22.62C505.29,594.17,517.22,604.59,517.54,614.2Z"/><path class="cls-7" d="M378.89,643.34c-2.46,8.22-28.37-5.89-63.37-16.36s-65.82-13.33-63.36-21.55,13.39-15,68.58,1.51C373,622.57,381.34,635.13,378.89,643.34Z"/><path class="cls-7" d="M350,702.41c3.19,16.52-23.37,9.47-54.1,15.4s-54,22.58-57.19,6.07.41-36.48,48.87-45.83C333.44,669.2,346.77,685.89,350,702.41Z"/><path class="cls-7" d="M514.82,712.45c.65,19.45-28.66,6.6-65.17,7.81s-66.39,16-67-3.41,7.15-41.59,64.73-43.51C501.87,671.52,514.18,693,514.82,712.45Z"/><path d="M355.67,701c-.45-.36-11.07-8.87-11.34-17s6-13.14,6.27-13.35l.9,1.18c-.06,0-5.93,4.69-5.69,12.12s10.68,15.84,10.78,15.93Z"/><path d="M437.24,797.29c-18.77,7.56-70.48.54-73.49,2.35C311.41,786,302,786.28,298.59,781.2c-6-9-43.6-62.42-34.12-63.51C279,716,343.12,744.36,366.8,747c28.08,3.08,107.46-34.61,118.62-30.4C489.83,718.23,442.41,795.21,437.24,797.29Z"/><polygon class="cls-8" points="422.36 765.54 414.28 788.67 434.5 786.82 422.36 765.54"/><polygon class="cls-8" points="320.79 755.38 304.56 773.72 323.98 779.66 320.79 755.38"/><path d="M371.91,791.07c-3.05,0-5.44-.05-6.87-.17-10-.82-59.85-15.15-62-15.76l.41-1.43c.52.15,51.83,14.9,61.68,15.71s68-1.7,68.55-1.72l.06,1.48C431.72,789.27,390.09,791.07,371.91,791.07Z"/><path class="cls-3" d="M412.45,251.89c-223.91,0-257.09,110.37-257.09,208.51,0,69.89,58.37,114.72,143.24,134.75-6.23-7.22-15.52-18.38-11.28-15.95,6.18,3.55,31.87,14.73,31.87,14.73s3.47-29.6,5-20.39,23,24.56,23,24.56,23-23,21.49-15.35,7.67,10.74,7.67,10.74,26.09-20,24.56-12.28-1.54,18.42,4.6,18.42,32.23-1.53,39.91-4.6-10.58-7.07,4.69-7.37,38.28-11,32.14-3.38-7.67,16.42,0,13.58,32.23-19.72,29.16-13.58-9.2,11.32,0,9.5,27.63-12.57,24.56-9.5c-1.76,1.76-2.45,5.88-4.31,9.56,81.93-20.64,137.84-65,137.84-133.44C669.53,362.26,624.51,251.89,412.45,251.89Z"/><path class="cls-4" d="M360.33,586c4.86-4,9.06-6.7,8.38-3.28a8,8,0,0,0,2.85,7.88q2.88,1.1,5.82,2.11c4.75-3.56,24.91-18.3,23.56-11.53-1.54,7.68-1.54,18.42,4.6,18.42,2.86,0,10.06-.33,17.71-1a237.2,237.2,0,0,0,23.19-7c-2.09-2-6.1-3.74,3.7-3.93a56.14,56.14,0,0,0,8.68-1c52.47-22.92,87-64.95,87-126.26,0-84.56-25.67-178.19-136.92-202.48C293.67,282.21,274.75,375.84,274.75,460.4,274.75,521.17,308.65,563,360.33,586Z"/><path class="cls-4" d="M303.65,600.93s-5.33-6-10.1-11.73c-55.87-22.28-93.05-65.15-93.05-128.8,0-93.72,23.24-198.57,175-207.84q-10.25-.66-21.24-.67c-171.92,0-197.39,110.37-197.39,208.51,0,90.75,75.56,139.27,173.13,146.07C316.53,604.18,303.65,600.93,303.65,600.93Z"/><path class="cls-5" d="M392,254.83s-1.59-7.62-.3-11.28,2.63-17.94,11-27.27,21.36-19.36,22.46-18.37,6.53.34,6.43,2.67-7.67,15.34-9.21,36.83c-.25,3.58,2.39,18.14-4.6,21.49s-20.18-1.44-21.28-2.43S392,254.83,392,254.83Z"/><path class="cls-3" d="M474.61,460.4c0-84.56-12.36-178.19-65.91-202.48-55.45,24.29-64.55,117.92-64.55,202.48,0,78.69,27.34,125.62,65.23,141.14C447.26,586,474.61,539.09,474.61,460.4Z"/><path d="M283.7,493.79c-8.62-10.8,13.55,30.91,17.81,27.7s26.1-11.26,30.53-17.21,26.32,28.09,30.73,17.21,14.29-13.54,14.72-8.37,18.33,25.87,18.58,13.21,25.69-28.38,23.72-22.05,30.48,34.71,25,22.05,30-21.42,28.39-16.27,12.1,25.86,13.67,16.27,58.36-85.53,49.15-79-46,39.51-46,39.51-35.6-24-37-28.48-7.11,36.75-7.11,36.75-48.39-33.45-47.43-40.43S389,491.42,389,491.42s-44.63-39.5-37-27S353.77,493,353.77,493s-36-30.21-35.08-18.57-12.54,24.62-18.1,24.28S292.33,504.59,283.7,493.79Z"/><path d="M300.69,320.45c-4.66-9-10.88,93.82-4.4,83.71s29.46-29.08,26.15-22.88,15.24,44.87,15.66,29.17,4.27-33.23,3.22-39.3S305.34,329.42,300.69,320.45Z"/><path d="M506.78,330.92c-1.21,13.09-21.68,33.6-26.49,41.47s-2.74,40.73,2.5,27.15S503.85,378.81,500,385s3.81,44.92,8.21,30.8,12.58-19.69,19-29.81S508,317.83,506.78,330.92Z"/><path class="cls-4" d="M472.14,251.89q-11.62,0-22.36.67C594.4,261.83,625.93,366.68,625.93,460.4c0,63.34-36.82,106.1-92.23,128.47-1.51,4.2-3.25,9.56-9.1,11.29-4.59,1.36-19.45,4.2-36.28,6.77,101.45-4.63,181.21-53.29,181.21-146.53C669.53,362.26,635,251.89,472.14,251.89Z"/><path d="M1829.62,494.07c-18.37-40.47-40-81.46-69.82-114.74-16.14-18-36.17-32.87-54.59-48.48q-29.87-25.31-59.86-50.49c-12-10-23.86-22.13-37.2-30.41-2.44-1.51-4.68,2.34-2.25,3.85,11.18,6.94,21.15,17,31.21,25.45q29.22,24.42,58.24,49.07c18,15.24,37.25,29.78,54,46.42,19.47,19.37,34.7,42.95,48.34,66.64,10.26,17.84,19.6,36.2,28.1,54.94,1.19,2.6,5,.34,3.85-2.25Z"/><path d="M1865.51,439.79a596.45,596.45,0,0,0-33.91-80.4C1822.61,342,1812.52,325,1800,310c-15.52-18.67-33.7-35.5-50.52-53-10-10.43-19.73-22.66-31.3-31.44-2.29-1.73-4.51,2.14-2.25,3.86,9.59,7.27,17.71,17.54,26,26.18,16.46,17.11,33.26,34,49.42,51.33,25.86,27.8,42.61,64.5,56.79,99.29q7,17.22,13.06,34.81c.93,2.7,5.24,1.54,4.3-1.18Z"/><path d="M1223.41,680.05c-26.78-36.59-57-73.22-94-99.86-19.27-13.87-41.51-24.12-62.33-35.43q-34.36-18.66-68.8-37.16c-13.55-7.25-27.39-16.45-41.89-21.74-2.7-1-3.87,3.32-1.19,4.3,11.86,4.33,23.75,12.17,35,18.18q32.21,17.2,64.28,34.66c20.9,11.34,42.59,21.89,62.81,34.42,23.46,14.54,43.48,34.65,61.86,55a632.66,632.66,0,0,1,40.38,49.84c1.68,2.29,5.55.07,3.85-2.25Z"/><path d="M1174.15,723.47c-17.6-24.05-36.65-47.18-57.69-68.31-13.84-13.89-28.68-27.19-45.33-37.65-20.51-12.89-42.59-23.7-63.79-35.42-12-6.65-24.32-15-37.32-19.75-2.7-1-3.86,3.33-1.18,4.3,10.71,3.89,20.9,10.83,30.84,16.31,20.6,11.36,41.26,22.63,61.82,34.07,33.49,18.61,60.61,48.64,84.79,77.85q12.46,15.06,24,30.85c1.67,2.29,5.55.07,3.85-2.25Z"/><path class="cls-9" d="M508.4,328.57c-5.14,17.4-4.89,17-5,17.21-5.08,7.66-.58,16.85-.67,22.7-.16,10.37.22,15.07,1.86,12.55,2.56-3.94,7.82-29.21,5.82-40.83"/><path class="cls-10" d="M516.29,368.12c1.68,6.77.78,12.82-2,13.51s-6.41-4.24-8.09-11-.06-9.94,2.73-10.63S514.61,361.35,516.29,368.12Z"/><path class="cls-6" d="M1418.33,694.05c33,37.57,66.55,76,104.11,109.16,18.35,16.2,40.21,28.57,60.72,41.77,27.75,17.86,55.58,35.64,83.71,52.9,23,14.1,46.87,24.91,71.39,36.18,10.36,4.77,19.43-10.6,9-15.4-21.19-9.74-42.54-18.72-62.53-30.79-27.31-16.48-54.2-33.69-81.06-50.9q-19.25-12.33-38.4-24.81c-8-5.21-17.6-11-24.12-16.36-23.07-18.86-43.45-41.39-63.73-63.14q-23.6-25.29-46.48-51.22c-7.59-8.64-20.17,4-12.61,12.61Z"/><path class="cls-6" d="M1694.37,916.65l15.55,29.84c5.31,10.18,20.71,1.17,15.4-9l-15.55-29.84c-5.31-10.18-20.71-1.17-15.4,9Z"/><rect class="cls-6" x="1381.11" y="629.91" width="17.84" height="50.53" rx="8.92" transform="translate(487.49 -588.55) rotate(28.8)"/><path class="cls-7" d="M1415.5,953.23c-23.41,129.65-54.78,71.19-104.86,62.14s-99.92,34.76-76.51-94.89c4.3-23.78,26.78-146,32.22-169.68,24.22-105.36,43.71-101,108.21-89.39,62.57,11.3,83.19,19.17,68.77,129.37C1440.51,812.33,1419.33,932,1415.5,953.23Z"/><path class="cls-6" d="M1257.7,1039.73c-5.21,12.79-7.62,26.25-8.42,40-.33,5.57-.36,11.16-.52,16.74-.09,2.89.57,9.83-1.13,12.07-1.21,1.6-11.33.8-14.66.36a91.31,91.31,0,0,1-13.4-2.87c-11-3.2-15.76,14-4.74,17.2,13.07,3.8,34.1,8.48,45.21-2,7.56-7.14,6.45-20.15,6.67-29.65.36-16.33,2-31.83,8.19-47.1,4.32-10.62-12.92-15.25-17.2-4.74Z"/><path class="cls-6" d="M1322.16,1062.73c8.17,13.86,11.86,28.86,14.55,44.58,1.63,9.51,2.33,22.81,11.33,28.62,13,8.4,32.79.4,45.45-5.38,10.43-4.76,1.38-20.14-9-15.4l-1,.46c2.41-1-1.24.49-1.64.64-3.22,1.22-6.46,2.37-9.77,3.29s-12.26,3.17-14.06,1.72c-2.21-1.77-2.61-10.23-3.08-12.87-1-5.49-1.82-11-3-16.48a124.31,124.31,0,0,0-14.39-38.18c-5.82-9.88-21.24-.92-15.4,9Z"/><path class="cls-11" d="M1408.84,1032c19.08-105.68,11.48-67.78-85.79-85.34s-92.59-56-108.75,50.21c-.43,2.85-.88,5.47-1.11,7.93q-1.34,5.7-2.42,11.63c-9.48,52.53,13.58,26.2,35.46,30.15,9.6,1.74,17.37,9,23.88,12.19a7.65,7.65,0,0,0,3.42,1.27,7.51,7.51,0,0,0,3.65,0c7.21-.71,17-4.8,26.64-3.07s17.38,9,23.88,12.19a7.65,7.65,0,0,0,3.42,1.27,7.51,7.51,0,0,0,3.65,0c7.21-.7,17-4.8,26.64-3.07,21.88,4,34.28,36.68,43.77-15.85.66-3.66,1.21-7.28,1.69-10.86C1407.6,1038,1408.26,1035.15,1408.84,1032Z"/><path class="cls-6" d="M1316.45,676.78C1285.2,638.66,1253.22,600,1227,558.16c-12.59-20.07-20.9-43-30.29-64.68-13-30-25.92-60-38.26-90.32-10-24.53-16.6-49.49-23.62-75-3-11.06-20.25-6.37-17.2,4.74,6.24,22.69,11.73,45.38,20.48,67.25,12.07,30.15,24.91,60,37.77,89.81,10.06,23.33,18.9,48.29,31.57,70.37,15,26.08,34.15,50,52.49,73.78q21.58,27.95,43.9,55.31c7.29,8.88,19.84-3.8,12.62-12.61Z"/><path class="cls-6" d="M1138.15,365.25l-26.92-20.18c-3.85-2.89-10-.62-12.2,3.2-2.66,4.56-.66,9.3,3.2,12.2l26.92,20.18c3.86,2.9,10,.63,12.2-3.2,2.67-4.55.67-9.3-3.2-12.2Z"/></g></svg>