<svg id="Layer_1" data-name="Layer 1" xmlns="http://www.w3.org/2000/svg" viewBox="0 0 1920 1080"><defs><style>.cls-1{fill:#85aa52;}.cls-2{fill:#42210b;}.cls-3{fill:#ff0;}.cls-4{fill:#fbb03b;}.cls-5{fill:#f7931e;}.cls-6{fill:#006837;}.cls-7{fill:#daec70;}.cls-8{fill:#1b1464;}.cls-9{fill:none;stroke:#000;stroke-miterlimit:10;stroke-width:2px;}</style></defs><path class="cls-1" d="M1163.32,717.11c-21-25.64-42.54-51.69-60.18-79.8-8.48-13.5-14.06-28.95-20.38-43.52-8.76-20.18-17.44-40.4-25.74-60.77-6.73-16.5-11.17-33.29-15.89-50.48-2.05-7.44-13.63-4.28-11.58,3.19,4.2,15.27,7.89,30.54,13.78,45.25,8.12,20.28,16.76,40.36,25.41,60.42,6.77,15.7,12.72,32.49,21.25,47.35,10.07,17.54,23,33.66,35.31,49.64q14.52,18.79,29.54,37.21c4.9,6,13.34-2.56,8.48-8.49Z"/><path class="cls-1" d="M1043.37,507.52l-18.12-13.58c-2.59-1.95-6.7-.42-8.2,2.15-1.8,3.07-.45,6.26,2.15,8.21l18.11,13.58c2.59,1.94,6.71.42,8.21-2.15,1.79-3.07.45-6.26-2.15-8.21Z"/><path class="cls-2" d="M1097.18,962.24C1097.15,952.59,1111,1,1111,1L895,.8l-4.82,967.44C909.17,970.35,1097.21,970.37,1097.18,962.24Z"/><polygon class="cls-3" points="1155.07 435.22 1242.08 330.88 1125.27 410.05 1136.27 317.76 1098.8 420.86 1068.76 355.25 1087.3 460.18 1021.18 365.46 1051.79 477.52 952.97 406.54 1010.6 524.58 911.99 475.85 990.77 563.01 889.48 531.05 984.49 615.41 900.44 638.91 995.01 678.67 965.82 726.73 1011.26 702.53 1031.51 773.48 1045.52 722.04 1083.13 734.66 1061.6 679.11 1129.3 696.51 1075.32 636.31 1131.62 615.57 1089.7 589 1160.86 565.98 1112.13 527.58 1231.61 501.26 1151.13 480.26 1291.8 425.25 1155.07 435.22"/><path d="M1448,203.63l.49-6.75v-2.32a7.51,7.51,0,0,0-.07-1l-.21-2.53a8.43,8.43,0,0,1,0-1.34c0-.46,0-.86,0-1.19v-.84a4.11,4.11,0,0,0-.07-.71l-.21-.91.07-.71a1,1,0,0,0-.14-.56,2.15,2.15,0,0,1-.25-.63,2.62,2.62,0,0,1,0-1,2,2,0,0,0,0-.88.93.93,0,0,0-.28-.46,1.88,1.88,0,0,1-.31-.32.71.71,0,0,1-.18-.38.89.89,0,0,0-.28-.46,2.26,2.26,0,0,0-.77-.46,3.45,3.45,0,0,1-1-.56,4.35,4.35,0,0,0,0-1,2,2,0,0,1,.25-1,5.55,5.55,0,0,1,1.79-.28,2.46,2.46,0,0,1,1.48.39,2,2,0,0,0,1.19.38,2.33,2.33,0,0,0,1.44-.63,5.86,5.86,0,0,0,1.76.21l2.6-.07,3.45.28,1.26-.14a6.67,6.67,0,0,1,1.9.28,6.33,6.33,0,0,0,1.9.28l1.69-.07,1-.14,1.2.28,1.26-.14,1.2.07a3.78,3.78,0,0,0,1.19-.21,8.15,8.15,0,0,0,.74-2.6,5.16,5.16,0,0,1,.88-2.39,6.31,6.31,0,0,1,1.09-.14.67.67,0,0,1,.6.35,1.22,1.22,0,0,1,.21.56l-.14.43.21,1.54-.14,1.27.21,2-.14,1.26.21,1.13-.21,1.4.07.5a1.69,1.69,0,0,0-.53.77,4.13,4.13,0,0,1-.38.84l-.88.46a1.64,1.64,0,0,1-.74.25c-.19,0-.4-.31-.63-.92a4.23,4.23,0,0,1-.35-1.47l.14-1.55v-.42a1.91,1.91,0,0,0-1.41-.56l-1.27.35-2.11-.5-1.75.15a.45.45,0,0,1-.35-.15h-1.41l-2.6-.14a3.76,3.76,0,0,0-1.27.18c-.33.12-.68.22-1.05.32s-.84.17-1.37.24-1.08.13-1.62.18l-1.62.14c-.54.05-.92.07-1.16.07a1,1,0,0,0-.28.88,1.58,1.58,0,0,1-.07.84c-.09.21-.17.32-.21.32s-.07.16-.07.49l.42,3.45v1.82l.07,1c-.09,0-.14.1-.14.31a3.91,3.91,0,0,0,.49,1.31,3.67,3.67,0,0,0-.07.77l-.21.91.21.85-.07,1.68.14,2.11-.49,7.95a8.87,8.87,0,0,0,.28,2.18,4.6,4.6,0,0,1,.07,2.11,4.28,4.28,0,0,0,2.92.7c1.48,0,2.38,0,2.71.07l.84.14.7-.14,1.62.28,1.69.14a1.12,1.12,0,0,0,1.19-.77,3,3,0,0,1,.57-1.48,3.63,3.63,0,0,1,.35-1.68l1-.29c.24,0,.46.2.67.6a2.28,2.28,0,0,1,.32.95l-.57,4.29.29,2a8.82,8.82,0,0,0-.78,1.69,3.79,3.79,0,0,0-.84.24,2.13,2.13,0,0,1-.85.18,1.3,1.3,0,0,1-.24-.39,1.66,1.66,0,0,0-.35-.49,1.53,1.53,0,0,1-.35-.84c-.08-.4-.16-.77-.25-1.09a1.44,1.44,0,0,0-1.13-.25,1.14,1.14,0,0,1-1-.32,2.2,2.2,0,0,1-1,.28,1.44,1.44,0,0,1-.81-.28,5.66,5.66,0,0,1-1.83.28l-2.32-.07h-.63a2.13,2.13,0,0,0-1,.22,1.11,1.11,0,0,1-.6.17.3.3,0,0,0-.28.11l.07.28-.42,3.51.14,2-.21,1.2.21.84-.21,3.17c0,1.5.49,2.25,1.48,2.25l1.33-.15,1.69.22a1.2,1.2,0,0,0,.91-.36,2.88,2.88,0,0,0,1.13.22l2.6-.22h.42a1.33,1.33,0,0,1,.57.14,6,6,0,0,1,2-.28c.8,0,1.45,0,1.94-.07s1-.1,1.4-.17a8.45,8.45,0,0,1,1.3-.11l1.2.07c.52,0,.83-.1,1-.31a1,1,0,0,1,.53-.46c0-.19.09-.45.14-.77.18-1.32.61-2,1.26-2,.42,0,.69.11.81.35a2.07,2.07,0,0,0,.67.7q.21,2.53.21,3.45a.12.12,0,0,0-.14.14l.14,1.61a2.52,2.52,0,0,1-.35,1.34c0,.23-.07.35-.35.35a1.11,1.11,0,0,0-.67.18,1.42,1.42,0,0,0-.39.38.53.53,0,0,1-.49.22l-1.19-.43c0-.42-.1-.89-.15-1.4a2.86,2.86,0,0,0-.42-1.34,4.76,4.76,0,0,1-.84.07h-.92c-.93,0-1.45.14-1.54.42a1.39,1.39,0,0,0-.6-.14,1.46,1.46,0,0,0-.74.28.76.76,0,0,0-.56-.21l-1,.07-.78-.14-.77.14-1.2-.35a4.89,4.89,0,0,0-2.25,1.06l-1.83-.5q-.13,0-.24.18a.41.41,0,0,1-.39.18l-2.18-.29-1.47.22h-1.13a4.27,4.27,0,0,0-2.46.49,1.52,1.52,0,0,0-1-.28l-.5.14-.35-.14a2.38,2.38,0,0,0-1.23.42,2.43,2.43,0,0,1-.88.42c-.94,0-1.4-.59-1.4-1.76v-.35c.18-.37.7-.66,1.54-.84a14.33,14.33,0,0,1,1.41-.28A4.22,4.22,0,0,0,1448,227c.07-.52.12-.94.17-1.27a5,5,0,0,0,.07-.7l-.21-1.26.21-.85-.21-.56.14-.7-.21-.64.21-1.82a1.4,1.4,0,0,0,0-.53,3.47,3.47,0,0,1,0-.6l.21-1.83-.28-1.76a2.48,2.48,0,0,1,.07-.63,5.93,5.93,0,0,0,.14-.67,3.24,3.24,0,0,0,0-.84c0-.3,0-.6,0-.88v-.77a.13.13,0,0,1-.14-.14l.21-.5-.21-.84a6.82,6.82,0,0,1-.17-2c0-.82,0-1.51,0-2.08Z"/><path d="M1486.27,207l-.42.92a5,5,0,0,1,.14.91l-.14,1.62a.4.4,0,0,1,.14.28l-.14.28.21,1a10.85,10.85,0,0,1,.32,2.82c0,.93,0,1.89,0,2.88l.14,1.05-.14.85.28,1.4a1.76,1.76,0,0,1-.07.57.69.69,0,0,0,.07.49l-.14,1.19.14.78-.28,1,.14.85-.14.91.42,1.62a2,2,0,0,0,1.2-.36,2.28,2.28,0,0,1,1.33-.35.75.75,0,0,1,.85.85,1.44,1.44,0,0,1-.78,1.3,11.79,11.79,0,0,1-1.26.67,2.85,2.85,0,0,1-.88.24c-.26,0-.55.07-.88.14a2.85,2.85,0,0,0-.63.18,2.84,2.84,0,0,1-.81.07,7,7,0,0,0-1.79.31,2.79,2.79,0,0,0-1.48.81.25.25,0,0,1-.21,0,.51.51,0,0,0-.25,0,1.71,1.71,0,0,0-.66.32,1.6,1.6,0,0,1-1.06.25h-.21c-.52-.24-.77-.89-.77-2,.14,0,.23,0,.28-.18a.57.57,0,0,1,.24-.35.59.59,0,0,1,.39-.07,2.92,2.92,0,0,0,1-.28,15,15,0,0,1,2.07-.6,3.19,3.19,0,0,0,.22-1.12,3.93,3.93,0,0,0-.15-1.09,3.07,3.07,0,0,1-.07-1.09v-2.46a10.75,10.75,0,0,1,.07-1.76l-.21-.64.14-.42-.28-1.12a22,22,0,0,1-.14-2.46v-2.46a11.12,11.12,0,0,0-.21-2.18c-.14-.71-.26-1.43-.35-2.18V209l-.28-2.11.07-2.32-.07-2V201a2.35,2.35,0,0,0,.14-.63l-.28-.7a.92.92,0,0,1,.14-.42,18.24,18.24,0,0,0-.14-2.18l-.28-1.13.14-.42-.35-4.92.28-2.6-.14-.92.21-.84-.28-2.53.21-3.31-.28-3c-.1-1.13-.14-2.19-.14-3.2s-.33-1.51-1-1.51l-1.41.14a1.35,1.35,0,0,1-1.19-.63,2.25,2.25,0,0,1-.42-.85l.07-.28c.14-.42.5-.63,1.09-.63a12.35,12.35,0,0,0,1.65-.11c.52-.07,1.24-.22,2.18-.45a9.69,9.69,0,0,1,2.28-.36c.59,0,1,.19,1.09.57a1.94,1.94,0,0,1-.49,1.26,2,2,0,0,0-.56,1l.14,2-.21,1.61.28,1.9c0,.24.06.39.18.46s.17.24.17.53l-.14,1.33.14.42-.14.28a7.91,7.91,0,0,1,.32,2.57,6.77,6.77,0,0,0,.31,2.43,9.71,9.71,0,0,0-.14,2.25l-.14,2.32a14.58,14.58,0,0,0,.11,1.72c.07.59.15,1.3.24,2.14l.22,3c.09,1.12.18,2.27.28,3.44a2.8,2.8,0,0,0,.88.07c.49,0,.85-.3,1.09-.91a.66.66,0,0,0,.56-.28c.33-.47.56-.63.7-.49s.28.08.42-.18a1,1,0,0,1,.39-.46c.12,0,.2-.06.25,0a.51.51,0,0,0,.21,0,.28.28,0,0,0,.21-.07c0-.23.68-.47,1.9-.7s1.89-.35,2-.35a3.8,3.8,0,0,1,.63.07l1.37.21a1.57,1.57,0,0,1,1.19.56,6.59,6.59,0,0,0,.78,1l1.3,1.37a11.34,11.34,0,0,1,1.41,1.86.86.86,0,0,1,.31.39.85.85,0,0,0,.32.38,1,1,0,0,0-.07.43l.56,2.25a2.15,2.15,0,0,0,.14.77,3,3,0,0,1,.18.81c0,.3.06.6.1.88l.28,1a7.08,7.08,0,0,1,.14,1.48v1.4c0,.1,0,.14-.07.14s-.07,0-.07.15l.43,2-.29,1.76.29,2.46a19.05,19.05,0,0,1-.15,2.39,11.24,11.24,0,0,0,0,2.46,3.66,3.66,0,0,0-.42,1.76v1.41a2.74,2.74,0,0,0,.14.84,3.24,3.24,0,0,0,1.06.14l2.81-.56a1,1,0,0,0,.53.46c.25.11.38.27.38.45,0,.57-.21.85-.63.85a3.65,3.65,0,0,0-2.6,1.19,2.37,2.37,0,0,0-.63-.07l-1.9.35H1501c-.28,0-.44.06-.46.18s-.22.18-.6.18l-1.76.21-.56-.07c-.33,0-.51.1-.56.31s-.21.32-.49.32l-.28-.07a2.62,2.62,0,0,1-.29-1.2,1.39,1.39,0,0,1,.25-.91,1.5,1.5,0,0,1,.56-.42,7,7,0,0,1,.71-.28,1.15,1.15,0,0,0,.59-.5l.36-1.75a3.06,3.06,0,0,0,.07-.64l-.22-1.89.15-1.41-.15-1.2.29-1.4-.14-1.27.14-2.74a9.35,9.35,0,0,0-.32-2.39,9.65,9.65,0,0,1-.32-2.46l.14-1s-.09-.63-.28-1.75l.14-.21c-.28-.33-.41-.53-.38-.6a3,3,0,0,0,0-.57,2.36,2.36,0,0,0-.17-.87,5.2,5.2,0,0,1-.29-.92,9.89,9.89,0,0,1-.17-1.12,2.86,2.86,0,0,0-.53-1.44,3,3,0,0,1-.49-.74,2.34,2.34,0,0,0-.32-.57,1.61,1.61,0,0,0-.52-.45,2.77,2.77,0,0,1-.67-.53,2.63,2.63,0,0,1-1.51.32c-.64,0-1.09,0-1.38,0s-.43.05-.45.14a1.71,1.71,0,0,1-.21.39,2.33,2.33,0,0,1-.5.49,2.15,2.15,0,0,0-.52.6,1.88,1.88,0,0,0-1.83.7,6.28,6.28,0,0,1-1.34,1.76c-.14.42-.31.64-.52.67s-.27.15-.18.38l-.07.22.28.84Z"/><path d="M1516.86,228.87c-.57.23-1,.38-1.27.46a1.67,1.67,0,0,0-.67.31,2,2,0,0,1-.59.35,1.8,1.8,0,0,1-1.62-2.25,6.72,6.72,0,0,0-.88-.35,2.32,2.32,0,0,1-.81-.42v-2.11a3.61,3.61,0,0,0,.56-.91,2.44,2.44,0,0,1,.5-.78.8.8,0,0,1,.52-.28.63.63,0,0,0,.39-.1.82.82,0,0,0,.21-.25.53.53,0,0,1,.21-.21l1-.14a5.14,5.14,0,0,1,1-.14,1.44,1.44,0,0,1,1.41.95,4,4,0,0,1,.42,1.44.83.83,0,0,0,.17.63c.12.1.18.48.18,1.16A7.2,7.2,0,0,1,1516.86,228.87Zm-.28-28.69-.43,7.81.07,2.25c0,1-.16,1.47-.49,1.47-.14,0-.14,0,0,.14a12.06,12.06,0,0,0-.6,1.27c-.21.51-.48.77-.8.77-.61,0-1.11-.49-1.48-1.47a7,7,0,0,1-.49-3.17v-2.88l-.14-2.32.14-3-.14-1.4.28-.85-.14-.84.07-2.46A52.61,52.61,0,0,0,1512,188a26.44,26.44,0,0,1-.39-3.27,3.91,3.91,0,0,1,.32-1.55,6.5,6.5,0,0,0,.39-1.09c0-.33.18-.49.42-.49s.23,0,.28-.14.12-.28.21-.28a2,2,0,0,1,1.37.42c.31.28.59.55.85.81a2.69,2.69,0,0,0,.52.45,2.85,2.85,0,0,1,.28.64l.29.14a.65.65,0,0,1,0,.35.37.37,0,0,0,.11.35l.28.14a3.62,3.62,0,0,1,.28,1.27l-.49,3.44.21,3.45v3.23a14.68,14.68,0,0,1-.21,2.71A9.48,9.48,0,0,0,1516.58,200.18Z"/><path d="M526.59,431l-.72-4.45a2.12,2.12,0,0,0-.48-1.62l-1.56-1.39a4.6,4.6,0,0,1-1.33-3.06,31.45,31.45,0,0,1-.12-4.87c.16-2.33.6-6.25,1.33-11.79q-.86-10.33-1.09-13.34-1.32-15.87.72-19.6a5.34,5.34,0,0,1,1-1.44,4,4,0,0,0,.84-3.13c-.32-3,1.24-5,4.69-6.13a19.55,19.55,0,0,0,3-1.2c1-.48,2-.92,3-1.32a7.39,7.39,0,0,1,5.95.05,8.75,8.75,0,0,0,5.11,1c1.76-.2,3.57-.44,5.41-.72s3.63-.46,5.35-.55a7,7,0,0,1,4.45,1.21q1.86,1.32,4,2.88a24.16,24.16,0,0,1,3.78,3.49q3.74,4.32,3.13,8.42a13.19,13.19,0,0,1,.84,8.65,4,4,0,0,0-.12,2.17,7.77,7.77,0,0,1,0,3.84,8.12,8.12,0,0,0-.18,3.55,6.68,6.68,0,0,1-.54,3.79,14,14,0,0,0-1.08,3.6,5.47,5.47,0,0,1-1.2,2.83,3.68,3.68,0,0,1-1.75,1.32,3.5,3.5,0,0,0-1.44.72,3.7,3.7,0,0,0-1,1.15,7.05,7.05,0,0,1-.9,1.32,10.34,10.34,0,0,1-3.73,3,10.87,10.87,0,0,0,3.12,3.54,15.6,15.6,0,0,1,3.07,2.77,4.87,4.87,0,0,1,1.32,2.82,8.87,8.87,0,0,0,.54,2.65,4.67,4.67,0,0,1,.37,2.1c-.09.52-.19,1.08-.31,1.69s-.26,1.24-.42,1.92a8.25,8.25,0,0,0-.18,2.28,6,6,0,0,1-.24,2.17,9.09,9.09,0,0,1-.84,1.8q-.54.9-1.26,2a13.91,13.91,0,0,0-1.32,2.65,8.94,8.94,0,0,1-2.35,3.43q-1.62,1.5-2.52,2.4a10.62,10.62,0,0,0-1.75,2.47,7.25,7.25,0,0,1-4.33,3.72,3.12,3.12,0,0,1-3.84-1.32c-.48-.88-1.35-1-2.59-.48s-2.22,1-2.94,1.38a4.52,4.52,0,0,1-2.59.36q-1.5-.18-3-.48a5.79,5.79,0,0,0-3.07.24,5.69,5.69,0,0,1-2.89.3,7.76,7.76,0,0,1-2.4-.84,5.84,5.84,0,0,1-3.13-3.37,20.94,20.94,0,0,1-1-4.5,32.29,32.29,0,0,0-.72-4.33,14,14,0,0,1-.48-2.83Zm17.07-32.71q0,6.38,2.29,6.38c.8,0,1.52-.58,2.16-1.75a10.06,10.06,0,0,0,1.2-3.3c.08-1,.14-2.11.19-3.19a8.9,8.9,0,0,1,1.56-4.09,5.87,5.87,0,0,0,1-4.57q-.54-2.1-1.86-2.52a6.41,6.41,0,0,1-2.35-1.32,10.15,10.15,0,0,0-2.28-1.51c-.84-.4-1.57-.1-2.17.91a3.46,3.46,0,0,0,0,3.42,10.12,10.12,0,0,1,.6,5.17Q543.66,395.14,543.66,398.25ZM547,415.57c-1.84-.56-2.85.36-3,2.76-.16,1.69-.36,3.41-.6,5.17a12.05,12.05,0,0,0-.06,4c.2.88.42,1.85.66,2.89a17,17,0,0,0,1.45,1.08q.72.48,1.32,1a9.64,9.64,0,0,1,1.38-2.16,9.1,9.1,0,0,0,1.14-1.57,10,10,0,0,0,1.39-4.75,11.53,11.53,0,0,0-.42-4.5Q549.31,416.29,547,415.57Z"/><path d="M591,363.87a15.34,15.34,0,0,0,2.28-2.59,11.77,11.77,0,0,1,2.52-2.58q4.21-3.49,8.42-2.05a39.91,39.91,0,0,0,9.5,2.41q4.34.48,6.31,2.16a22.75,22.75,0,0,1,3.43,3.61,20.8,20.8,0,0,1,4.21,10,5.74,5.74,0,0,0,.72,2.88c1,1.77,1.38,4.13,1,7.1a32.61,32.61,0,0,0-.36,6.19,7.88,7.88,0,0,0,.6,2.58c.28.57.54,1.13.78,1.69a11.68,11.68,0,0,1,1,4.57,10.38,10.38,0,0,1-1.92,5.77c-.56.72-.76,2.12-.6,4.21s.28,4.16.36,6.25q.12,7.81-.84,9.68A9,9,0,0,1,627,428a8.25,8.25,0,0,1-.78.6c-1.2.56-2.26,2.23-3.18,5a19.29,19.29,0,0,1-3.67,6.74,24,24,0,0,1-4.75,4.2c-1.64,1.09-2.93,1.93-3.85,2.53a7.35,7.35,0,0,0-2,1.74l-1.2,1.68a4.9,4.9,0,0,1-4,1.93q-4.1,0-6-1.93a17.6,17.6,0,0,1-1.81-3.12A15.17,15.17,0,0,0,591,442a9.65,9.65,0,0,1-4.09-6.85,9.2,9.2,0,0,1-.18-3.13,15.64,15.64,0,0,0-.18-4,17.32,17.32,0,0,0-1-4.33,12.93,12.93,0,0,1-.84-3.6q-.6-5.06-3.36-5.41-2.05-.24-2.41-6.14a33.27,33.27,0,0,1,.24-5.71,28.53,28.53,0,0,1,1-4.63,23.43,23.43,0,0,0,.61-8.11,47.06,47.06,0,0,1,0-8.24A28.3,28.3,0,0,1,583.7,371a15.17,15.17,0,0,1,3.19-3.61Q589,365.55,591,363.87Zm7.63,34.38a5.43,5.43,0,0,0,1.2,2.71,6.84,6.84,0,0,1,1.33,3.19,21.09,21.09,0,0,1,.3,4.74c-.08,1.73-.12,3.37-.12,4.93a31.38,31.38,0,0,0,.24,4.21,20.51,20.51,0,0,0,.72,3.43c.88,2.48,2.12,3.73,3.72,3.73q3.74,0,5.17-14.43a87.27,87.27,0,0,0,.49-10.16,27.16,27.16,0,0,0-1.93-10.7q-1.92-4.51-4.69-4.51t-4.81,5.89Q598.37,396.58,598.67,398.25Z"/><path d="M648.87,363.87a15.34,15.34,0,0,0,2.28-2.59,11.6,11.6,0,0,1,2.53-2.58q4.2-3.49,8.41-2.05a40,40,0,0,0,9.5,2.41q4.33.48,6.31,2.16a22.31,22.31,0,0,1,3.43,3.61,20.8,20.8,0,0,1,4.21,10,5.74,5.74,0,0,0,.72,2.88c1,1.77,1.38,4.13,1,7.1a32.61,32.61,0,0,0-.36,6.19,7.88,7.88,0,0,0,.6,2.58c.28.57.54,1.13.78,1.69a11.7,11.7,0,0,1,1,4.57,10.39,10.39,0,0,1-1.93,5.77c-.56.72-.76,2.12-.6,4.21s.28,4.16.36,6.25q.12,7.81-.84,9.68a9.39,9.39,0,0,1-1.38,2.22,8.25,8.25,0,0,1-.78.6c-1.21.56-2.27,2.23-3.19,5a19.29,19.29,0,0,1-3.67,6.74,24,24,0,0,1-4.75,4.2L668.65,447a7.26,7.26,0,0,0-2,1.74l-1.2,1.68a4.89,4.89,0,0,1-4,1.93c-2.72,0-4.73-.64-6-1.93a17,17,0,0,1-1.8-3.12,15.3,15.3,0,0,0-4.81-5.29,9.65,9.65,0,0,1-4.09-6.85,9.2,9.2,0,0,1-.18-3.13,15.64,15.64,0,0,0-.18-4,17.32,17.32,0,0,0-1-4.33,12.59,12.59,0,0,1-.84-3.6q-.61-5.06-3.37-5.41-2.06-.24-2.41-6.14a33.27,33.27,0,0,1,.24-5.71,28.45,28.45,0,0,1,1-4.63,23.69,23.69,0,0,0,.6-8.11,47.06,47.06,0,0,1,0-8.24A28.3,28.3,0,0,1,641.53,371a15.4,15.4,0,0,1,3.19-3.61Q646.82,365.55,648.87,363.87Zm7.63,34.38a5.43,5.43,0,0,0,1.2,2.71,6.64,6.64,0,0,1,1.33,3.19,20,20,0,0,1,.3,4.74c-.08,1.73-.12,3.37-.12,4.93a33.13,33.13,0,0,0,.24,4.21,20.51,20.51,0,0,0,.72,3.43c.88,2.48,2.12,3.73,3.73,3.73q3.72,0,5.17-14.43a87.58,87.58,0,0,0,.48-10.16,27,27,0,0,0-1.93-10.7q-1.92-4.51-4.69-4.51t-4.81,5.89Q656.2,396.58,656.5,398.25Z"/><path d="M753.11,446q-4,0-3.61-6.74a78.36,78.36,0,0,0,.06-8.05,27,27,0,0,0-1.5-7.34,40.6,40.6,0,0,1-1.8-7A14.77,14.77,0,0,1,747,410a22.46,22.46,0,0,0,.24-11.79A10.2,10.2,0,0,1,747,396a17,17,0,0,0-.12-2.1c-.08-1.53-.48-2.29-1.2-2.29s-1.09.56-1.33,1.68a33.92,33.92,0,0,1-1.68,6.74q-2.65,6.26-2,10.34,1.56,6-.25,9.26a5.73,5.73,0,0,1-2,2.28,5,5,0,0,0-1.56,1.26,3.44,3.44,0,0,0-.3,1.93,3.08,3.08,0,0,1-.66,2.22,3.86,3.86,0,0,0-.91,1.8c-.12.65-.26,1.25-.42,1.81a2.26,2.26,0,0,1-2.64,1.92,3.32,3.32,0,0,1-2.83-2.52,29,29,0,0,1-1.2-5.29l-.84-6a10.13,10.13,0,0,0-1.56-4.56,9.49,9.49,0,0,1-1.57-3.13,27.07,27.07,0,0,1-.66-3.25,16.35,16.35,0,0,0-1.56-5.65,15.7,15.7,0,0,1-1.32-5.41,41.52,41.52,0,0,0-.91-5.41q-.42-1.44-1.5-1.44t-1.32,1.8a5.84,5.84,0,0,0,.36,2.77,8,8,0,0,1,.12,3.84,13.52,13.52,0,0,0,.12,4.81c.32,1.37.64,2.59,1,3.67s.6,2.23.84,3.43a19.94,19.94,0,0,1,.54,8.35,45.89,45.89,0,0,0-.78,5.29,3.19,3.19,0,0,1-1.5,2.71,3.6,3.6,0,0,0-1.68,1.74,9.16,9.16,0,0,0-.42,2.05c-.08.76-.17,1.56-.24,2.4a12.11,12.11,0,0,1-.85,3.07c-1,2.56-1.38,4.45-1,5.65a4.87,4.87,0,0,1-.6,3.85,4,4,0,0,1-3.25,2.22,4.71,4.71,0,0,1-3.36-.78,9.75,9.75,0,0,1-2.23-2.41A22.89,22.89,0,0,1,700.45,430c.08-1.21.18-2.41.3-3.61a24.07,24.07,0,0,0-.06-4.45q-.36-6.49-3-10.22a11.67,11.67,0,0,1-2-6.13c-.4-4.17-.16-7.13.72-8.9a8.93,8.93,0,0,0,.6-3.79q0-2.58-.06-3.72a5,5,0,0,1,.12-1.69,8,8,0,0,0,.24-1.92c0-.92.06-2,.06-3.19a27.1,27.1,0,0,0-.84-5.95,28.74,28.74,0,0,1-.9-4.69,18.23,18.23,0,0,1,.06-3.91q.36-4.32,1.5-6.13a4.63,4.63,0,0,1,2.11-2.1,7.23,7.23,0,0,1,2.16-.3,4.52,4.52,0,0,0,2-.42,17.9,17.9,0,0,1,1.81-.78,5.24,5.24,0,0,1,4-.12,6.47,6.47,0,0,0,3.31.48,22.93,22.93,0,0,0,2.59-.6q3.12-1.22,4.75-.61a7.67,7.67,0,0,1,2.94,2.05,5.66,5.66,0,0,1,1.5,2.34,2.52,2.52,0,0,0,.54,1.27,8,8,0,0,0,.85.72,3.33,3.33,0,0,1,1,2.64,24.55,24.55,0,0,0,1.44,7.1q2.52,8.42,4.81,9.13.48.12,1.68-.72a4.44,4.44,0,0,0,1.69-2.52,11.91,11.91,0,0,0,.48-4.39,3,3,0,0,1,.42-2.35,3,3,0,0,0,.72-1.56q.06-.72.18-1.92a22.49,22.49,0,0,1,.48-2.77,13.91,13.91,0,0,1,2.77-6,6.77,6.77,0,0,1,3.72-2.4,14.2,14.2,0,0,1,3.91-.19l4,.37a8.39,8.39,0,0,0,4-.67q5.4-2.4,7.45-.12a3.82,3.82,0,0,0,1.14.85l1,.48a3.08,3.08,0,0,1,1.14,2.22,8.2,8.2,0,0,0,.42,2c.16.37.32.71.48,1q1.32,3.12,1.68,10.82.36,12.62-.48,14.43c.56,3.28.28,5.61-.84,7l-.72.72a9.72,9.72,0,0,0-2.65,5.77,5.29,5.29,0,0,0,.06,2.41,6.8,6.8,0,0,1,.3,2q0,1.08-.06,1.92c0,.57-.06,1.17-.06,1.81a31,31,0,0,0-.06,5.05,7,7,0,0,1,0,2.28,11,11,0,0,1-.42,1.33,6.19,6.19,0,0,0-.36,3.06,4.07,4.07,0,0,1,0,2,10.57,10.57,0,0,1-.6,1.45,10.85,10.85,0,0,0-.78,5.23,22.15,22.15,0,0,1-.24,5.35,23.31,23.31,0,0,0-.42,4.45q-.24,6.38-1.68,5.89c-.41-.16-.75,0-1,.6a9.71,9.71,0,0,0-.72,2.16,1.11,1.11,0,0,1-1.62.91,2.64,2.64,0,0,1-1.74-2,3.75,3.75,0,0,0-1.09-2A3.36,3.36,0,0,0,753.11,446Z"/><path d="M792.19,409.8l-.24,8.53q0,8.3-3.49,11.06a5.91,5.91,0,0,1-4,1.33,4.2,4.2,0,0,1-2.7-1.33,3.89,3.89,0,0,1-1-2.52,29.13,29.13,0,0,0-.6-4.15c-.36-1.8-.8-3.61-1.32-5.41a16.38,16.38,0,0,1-.54-5.83c.16-2.08.26-4.05.3-5.89a6.19,6.19,0,0,0-1-4.09,6.37,6.37,0,0,1-1.45-4.09,6,6,0,0,1,.49-2.52,17.27,17.27,0,0,0,1.08-5.53c0-1.61,0-2.77-.12-3.49s-.18-1.42-.3-2.1-.26-1.73-.42-3.13a22.66,22.66,0,0,1,0-4.81,31.23,31.23,0,0,0,0-5.47c-.17-1.84-.27-3.33-.3-4.45a10.72,10.72,0,0,1,.78-4,13.59,13.59,0,0,1,1.38-3.06,5.34,5.34,0,0,1,1.86-1.39c.88-.43,1.48-.76,1.81-1a1.94,1.94,0,0,1,1.32-.18,3.29,3.29,0,0,1,1.8,1.14,7,7,0,0,0,2.29,1.63q1.32.6,3.06,1.44a3.35,3.35,0,0,1,2,2.71,10.39,10.39,0,0,0,.42,2.22,2.28,2.28,0,0,0,.42.6,13.86,13.86,0,0,1,.48,3.19,16.54,16.54,0,0,1-.42,5.41,22.82,22.82,0,0,0-.72,4.51,13.34,13.34,0,0,1-.66,3.66,9.46,9.46,0,0,0-.43,3.85,16.23,16.23,0,0,1,.07,3c-.09.64-.19,1.22-.31,1.74a7.18,7.18,0,0,0-.18,1.62,12.24,12.24,0,0,0,.42,2.59,11.24,11.24,0,0,1,.37,3.18,19,19,0,0,0,.12,3.07,14.72,14.72,0,0,1,0,3.25A46.45,46.45,0,0,0,792.19,409.8ZM777,444.66a3,3,0,0,1-.18-1.8,5.57,5.57,0,0,1,2-2.53,24.92,24.92,0,0,1,4.45-3c1.76-1,4.17-1.24,7.21-.84a4.26,4.26,0,0,1,3.37,2.52q2.52,4.33-2.29,7.82a10.56,10.56,0,0,1-3.84,1.74,3.89,3.89,0,0,0-2.35,1.08,1.94,1.94,0,0,1-2.1.42,2.62,2.62,0,0,1-1.93-1.5,2.54,2.54,0,0,0-1.44-1.5,6.68,6.68,0,0,1-1.74-1A3.55,3.55,0,0,1,777,444.66Z"/><path d="M1422.31,654.31c0-29.73-1.84-60.73-10.67-89.27-4.72-15.23-12.62-29.56-19.42-43.94q-11.31-23.93-22.71-47.8-4.89-10.2-9.86-20.37c-1.6-3.24-3-6.79-5-9.82-1.07-1.59-3.67-.09-2.6,1.52,4.9,7.32,8.19,16.21,12,24.11q10.93,22.74,21.7,45.56c7.07,15,15.29,29.86,21,45.4,6.29,17.18,9,35.65,10.76,53.78,1.28,13.57,1.87,27.2,1.87,40.83a1.5,1.5,0,0,0,3,0Z"/><path d="M1490.74,570.66a402.43,402.43,0,0,0-22.82-54.09c-6.05-11.68-12.84-23.13-21.27-33.26-10.44-12.56-22.67-23.88-34-35.67-6.73-7-13.27-15.24-21.06-21.15-1.54-1.16-3,1.44-1.51,2.59,6.46,4.9,11.92,11.81,17.51,17.62,11.07,11.51,22.37,22.84,33.25,34.54,17.39,18.7,28.67,43.39,38.21,66.8q4.73,11.58,8.78,23.42c.63,1.82,3.53,1,2.9-.8Z"/><path d="M847.09,460.2c-9.66,28.79-18,59.53-18.29,90.07-.14,16.39,3,33.05,4.9,49.3q3,25.47,6.15,50.93c1.27,10.25,1.57,21.47,4.29,31.48a1.5,1.5,0,0,0,2.89-.8c-2.27-8.38-2.56-17.7-3.63-26.28q-3.14-25-6.08-50.09c-1.84-15.45-4.38-31-5.33-46.56-1.15-19,2.25-38.23,6.49-56.68,3.14-13.7,7-27.24,11.5-40.57.62-1.84-2.28-2.62-2.89-.8Z"/><path d="M766.15,487.52a397,397,0,0,0-6.22,59.85c-.28,13.2.2,26.6,2.9,39.57,3.31,15.95,8.37,31.7,12.58,47.44,2.38,9,4.06,18.8,7.84,27.31.78,1.76,3.37.23,2.59-1.52-3.11-7-4.49-15.2-6.47-22.56-4.09-15.29-8.26-30.57-12.31-45.87-6.59-24.91-4.67-52.07-1.79-77.41q1.5-13.05,3.77-26c.33-1.89-2.56-2.7-2.89-.8Z"/><path class="cls-2" d="M899.85,149.71s-78.67-48.08-87.41-52.45-61.18-17.48-65.55-17.48H677.83c-11.8,0-53.32,10.93-57.69,10.93S576.44,71,576.44,68.85s6.55-21.85,8.74-24,24-6,24-5.18,10.92,20.47,10.92,22.66S607,73.22,607,73.22s-15.3-4.37-13.11-6.55,8.74-6.56,8.74-8.74a2.14,2.14,0,0,0-2.19-2.19s-15.29,6.56-13.11,8.74S604.84,77.59,607,77.59s21.85-8.74,21.85-10.92S618,29.52,615.77,29.52s-41.52,2.18-41.52,4.37S559,71,561.14,73.22s35,19.67,35,21.86S559,103.82,559,103.82s-15.29-32.78-17.48-35-39.33-8.74-39.33-8.74-28.41,13.11-30.6,13.11-24-28.4-24-28.4,21.85-24,24-24,19.67,8.74,19.67,10.92,2.19,21.86,0,21.86S478.1,62.3,475.92,62.3s-8.75-8.74-8.75-10.93,8.75-6.55,8.75-8.74a2.14,2.14,0,0,0-2.19-2.19L460.62,51.37s8.74,15.3,10.92,15.3,24-6.56,24-8.74S500,31.7,497.77,29.52s-21.85-15.3-24-15.3S434.4,40.44,434.4,42.63,462.8,86.34,465,86.34s35-13.12,37.15-13.12,26.22,2.19,26.22,4.37,8.74,21.86,6.56,24-50.26-10.92-52.45-8.74S430,147.52,427.84,147.52s-24,0-24-2.18-19.67-35-17.48-37.15,17.48-21.85,19.67-24,26.94-4.37,29.86-2.19,9.47,26.23,7.29,26.23-24,13.11-26.23,13.11-8.74-13.11-6.55-15.3,15.29-2.18,15.29-4.37-4.37-4.37-4.37-4.37-17.48,4.37-17.48,6.56,4.37,21.85,8.74,24,39.34-13.11,39.34-15.29-4.37-37.15-6.56-39.34S403.8,68.85,401.62,71s-28.41,30.59-28.41,35,15.3,35,13.11,37.15-32.78,8.74-35,10.93-2.19,24,2.18,26.22S379.76,200,382,202.15s26.22-4.37,26.22-8.74,4.37-17.48,2.19-19.66-17.48-6.56-19.67-8.75-17.48,4.37-17.48,6.56,8.74,13.11,10.92,13.11,4.38,2.19,4.38,0-13.12-8.74-10.93-10.92,8.74-4.38,10.93-4.38,15.29,6.56,15.29,8.75S401.62,189,399.43,189s-13.11,4.37-15.3,4.37-19.66-15.29-19.66-17.48-2.19-8.74,2.18-10.93,26.23-4.37,28.41-4.37,37.15,8.74,39.34,6.56,50.26-48.08,52.44-48.08,10.93-2.18,10.93,0-28.41,37.15-28.41,39.34S489,224,489,226.19s-6.56,13.11-8.74,15.3-10.93,4.37-13.12,2.18S460.62,224,462.8,224s8.74-2.19,10.93-2.19,6.56,2.19,6.56,6.56-2.19,6.55-4.37,6.55-4.38,0-4.38-2.18,2.19-2.19,0-2.19-4.37,6.56-2.18,6.56,6.56,2.18,10.93,0,4.37-4.37,4.37-8.74-4.37-8.74-6.56-10.93-21.85,0-21.85,2.19,0,26.22,2.18,28.4,17.49,6.56,24,4.37,19.67-17.48,19.67-21.85-6.56-19.67-4.37-19.67,10.92,6.56,15.29,6.56,26.23,0,30.6-4.37,17.48-19.67,17.48-26.22S554.58,165,552.4,165s-8.74-8.74-10.93-8.74S524,165,524,167.19s2.19,17.48,2.19,19.67,10.92,6.55,13.11,4.37,2.18-2.19,0-4.37-10.93-4.37-10.93-6.56,0-10.93,2.19-13.11,6.55-4.37,8.74-4.37,13.11,19.67,13.11,21.85-8.74,19.67-10.93,19.67-30.59,0-32.78-2.19-13.11-10.92-13.11-10.92S489,165,489,162.82s24-30.59,26.22-32.78,69.93,4.37,72.11,2.19,15.3-6.56,17.48-6.56-13.11,19.67-10.92,24,17.48,30.59,19.67,30.59,35,0,35-2.18-2.19-26.23,0-28.41,8.74-6.56,13.11-6.56,8.74,10.93,6.56,13.11S655.11,165,657.29,165s17.48-2.18,17.48-4.37-2.18-21.85-4.37-24-17.48,2.18-21.85,2.18-10.93,8.74-10.93,8.74,2.19,19.67-2.18,19.67-8.74,2.18-13.11-2.19-8.74-10.92-6.56-15.29,21.85-35,28.41-37.15,52.45-17.48,59-17.48,39.34,0,45.89,2.18,32.78,8.74,37.15,13.11S900,213.44,900,213.44l-.15-17.81Z"/><path class="cls-4" d="M1345.24,597.27c-13.2,62.57-82.09,80-159,63.09S1053.6,598.71,1066.8,536.15s46-129,167.26-102.35C1348.9,459,1358.44,534.71,1345.24,597.27Z"/><path class="cls-5" d="M1278.23,582.56c11.37-53.9,10.06-116.64-46.92-145.35-65.66,1.79-88.49,59.23-99.86,113.13-10.58,50.16,13.87,86.83,54.41,106.08C1230.57,655.89,1267.65,632.72,1278.23,582.56Z"/><path class="cls-5" d="M1266.38,440.89q-6.3-1.38-12.2-2.23c77.07,23.1,80,93.69,67.45,153.43-12.31,58.33-60.45,80.16-114.75,72.34,3.81,1.13,7.72,2.15,11.71,3,59,13,113.45-7.61,126.65-70.18S1354.56,460.25,1266.38,440.89Z"/><path class="cls-5" d="M1091.24,541.52c12.61-59.75,39.29-123.83,122.74-111.69q-5.46-1.63-11.42-2.95c-93.1-20.44-121.73,46.89-134.93,109.45s28.11,104.15,87.14,117.11q6,1.32,11.9,2.16C1114,639.94,1078.94,599.85,1091.24,541.52Z"/><path class="cls-6" d="M1222.61,433.24s.16-5.05,1.35-7.22,3.83-11.13,9.63-16.08,14.17-9.8,14.63-9,3.49,1,3.13,2.47-6.22,8.87-9.94,22.38c-.62,2.25-1.15,11.85-5.39,13.15s-10.73-3.31-11.19-4.08A6.84,6.84,0,0,0,1222.61,433.24Z"/><path class="cls-4" d="M1239.68,574.1c11.37-53.9,17.27-115.06-8.46-136.91-33.3,8.9-50.82,67.5-62.19,121.4-10.58,50.16-2.08,83.33,16.35,97.73C1208,650.93,1229.1,624.26,1239.68,574.1Z"/><path d="M1101.74,456c1.18-5.79-26.71,46.15-22.56,42.46s14.56-8,12.18-5.58-7.86,27-3.72,18.95,9.56-16.24,10.86-19.65S1100.55,461.77,1101.74,456Z"/><path d="M1136.93,469.45c-2.2,8.24-13.07,19.44-16,24s-6.42,25.74-2.55,17.55,11.13-11.29,8.79-7.68-4.35,29-.75,20.41,7.61-11.41,11.51-17.27S1139.12,461.2,1136.93,469.45Z"/><path d="M1152.84,653.92c-8.75-1.8-24.63-10.56-24.63-10.56s-8.79-18.79-5.93-15.79,15.28,13.17,15.28,13.17,5.86-18.45,5.45-12.4,9.17,18.39,9.17,18.39,15.56-11.94,13.7-7.23,2.71,7.76,2.71,7.76,16.81-9.61,15-4.9-3.31,11.55,0,12.28,17.66,2.86,22.23,1.81-4.78-5.76,3.53-4.14,22.22-2.49,17.86,1.67-6.36,9.55-1.83,8.66,20.11-8.74,17.62-5.19-6.51,6.12-1.28,6,16.66-4.72,14.58-3.13-3.34,8.17-8.31,8.77-30,.22-44.39-1.91S1172.49,660.4,1166,659,1161.59,655.72,1152.84,653.92Z"/><path d="M1138.63,546.63c-4.11,3.44-21.49,21.64-21.49,21.64s-9.3-18-9.19-21-7.44,22.88-7.44,22.88-12.53-25.06-11.25-29.43-8.28,22.69-8.28,22.69-10.39-28.62-9.4-20.09-3.19,18.37-3.19,18.37-1.48-3.8-3.3-7.71l.19.42a91.67,91.67,0,0,0,2.43,26.18v0c3-6.59,6.85-7.53,6.3-4.2s3,17.91,4.77,9.86,12.85-16.11,11.3-12.23,6.06,24.48,5.83,16,13.45-11.34,12.18-8.18.78,17.42,2.62,11.43S1142.75,543.19,1138.63,546.63Z"/><rect class="cls-1" x="1161.07" y="646.24" width="12" height="40.61" rx="6" transform="translate(656.07 -576.52) rotate(37.92)"/><path class="cls-7" d="M1184.52,863.56c-4.87,88.5-30.67,52.07-64.86,50.18s-63.83,31.5-59-57c.89-16.23,5.76-99.72,7.43-116,7.43-72.35,20.8-71.08,64.83-68.66,42.72,2.35,57.13,5.9,56.65,80.67C1189.53,767.4,1185.32,849.08,1184.52,863.56Z"/><path class="cls-1" d="M1086.49,933.68a84.69,84.69,0,0,0-2.45,28.14c.27,3.71.71,7.39,1,11.09.19,2.17,1.14,6.25.22,8.3.27-.61-1.59.56-2.63.81a28.16,28.16,0,0,1-6.67.57,68.4,68.4,0,0,1-7-.38c-.39,0-2.49-.28-1.62-.17s-.05,0-.29,0c-7.55-1.21-10.8,10.35-3.19,11.57,9.19,1.47,22.9,3.08,30.09-4.19,5-5,3.41-13.36,2.77-19.69-1.13-11.11-1.64-21.91,1.29-32.81,2-7.47-9.56-10.66-11.57-3.19Z"/><path class="cls-1" d="M1130.87,943.79c6.41,8.32,10.28,17.56,13.3,27.53,1.87,6.17,3.35,15.32,9.21,19.1,9,5.84,22.58-1.33,30.54-6.24,6.57-4,.55-14.42-6.05-10.36a61.88,61.88,0,0,1-8.6,4.44,29,29,0,0,1-6.8,2.1c-2.13.29-2.12.33-2.75-.53-1.46-2-2-5.14-2.7-7.45-1-3.4-2-6.81-3.16-10.17a83.19,83.19,0,0,0-12.63-24.47c-2-2.59-5.13-3.9-8.21-2.15-2.54,1.44-4.12,5.64-2.15,8.2Z"/><path class="cls-8" d="M1186.6,916.68c4-72.14,2.05-46.21-64.35-49.86s-66.47-29.7-68.45,42.54c0,1.94-.13,3.73-.08,5.4q-.42,3.9-.65,8c-2,35.86,11.24,16.37,26.17,17.19,6.56.36,12.35,4.57,17,6.16a5.16,5.16,0,0,0,2.39.56,5.1,5.1,0,0,0,2.44-.3c4.75-1.07,11-4.62,17.53-4.26s12.35,4.58,17,6.16a5,5,0,0,0,2.39.56,5.06,5.06,0,0,0,2.43-.29c4.76-1.07,11-4.62,17.53-4.26,14.94.82,25.93,21.64,27.91-14.22.14-2.49.21-5,.23-7.39C1186.28,920.82,1186.48,918.85,1186.6,916.68Z"/><path class="cls-1" d="M1151.31,730.39c-22.24-25.27-44.79-51.13-70.07-73.42-12.35-10.9-27.06-19.21-40.86-28.09-18.68-12-37.4-24-56.34-35.57-15.47-9.48-31.54-16.75-48-24.33-7-3.2-13.08,7.14-6.06,10.36,14.26,6.55,28.63,12.59,42.07,20.7,18.39,11.09,36.48,22.66,54.56,34.23q12.95,8.29,25.84,16.68c5.37,3.51,11.84,7.42,16.23,11,15.53,12.68,29.25,27.83,42.9,42.46q15.87,17,31.28,34.45c5.11,5.81,13.57-2.7,8.48-8.48Z"/><path class="cls-1" d="M965.54,580.69l-10.47-20.07c-3.58-6.85-13.94-.79-10.37,6l10.48,20.07c3.57,6.85,13.93.79,10.36-6Z"/><path class="cls-9" d="M1347.38,56.38l267,78.51c4.84,0,8.79,6,8.79,13.36l-33.5,183c0,7.35-4,13.36-8.79,13.36L1457.5,326.38,1376.87,392l8.24-76.26-29.78-4.39c-4.84,0-8.79-6-8.79-13.37l-8-228.18C1338.58,62.4,1342.54,56.38,1347.38,56.38Z"/></svg>