<svg id="Layer_1" data-name="Layer 1" xmlns="http://www.w3.org/2000/svg" viewBox="0 0 1920 1080"><defs><style>.cls-1{fill:#c69c6d;}.cls-2{fill:#534741;}.cls-3{fill:#fbb03b;}.cls-4{fill:#b3b3b3;}.cls-5{fill:#85aa52;}.cls-6{fill:#ff0;}.cls-7{fill:#f7931e;}.cls-8{fill:#006837;}.cls-9{fill:#daec70;}.cls-10{fill:#1b1464;}.cls-11{fill:#fff;stroke:#000;stroke-miterlimit:10;stroke-width:2px;}</style></defs><rect class="cls-1" x="1053.85" y="467.61" width="50.03" height="543.14"/><path class="cls-1" d="M1068.26,139.33c79.27,10,90.06,58,100,100s-46.51,77.07-100,71.41-88.18-49-85.92-86.51S1033.55,134.94,1068.26,139.33Z"/><path class="cls-2" d="M1035.36,230.56c7.31.92,8.31,5.34,9.23,9.22s-4.29,7.11-9.23,6.59-8.13-4.52-7.92-8S1032.16,230.15,1035.36,230.56Z"/><path class="cls-2" d="M1122.52,229.48c7.31.92,8.31,5.35,9.23,9.23s-4.29,7.1-9.23,6.58-8.13-4.52-7.92-8S1119.32,229.08,1122.52,229.48Z"/><path class="cls-2" d="M1238.56,200.51c-11.42-8.73-23.45-18.26-68.72-24.74-10.06-41.89-24.28-88.7-101.85-98.51-35.92-4.54-86.6,51.32-88.93,90.15a51.5,51.5,0,0,0,0,6.81c-36.14,5.22-65.5,13.12-67.78,20-4,12,57,28,151.2,29.79S1256.12,214,1238.56,200.51Z"/><path class="cls-3" d="M789.67,309.43c-10.76,0-43.56-9.06-43.56-9.06l5.89,20.9-21.52,2.15s26.91,6.85,29.6,6.65-25.44,8.77-26.44,9.66,24.94,1.44,24.94,1.44l-28.1,18.25,33.36-4.8L795.05,332l15.06-6.46Z"/><path class="cls-3" d="M1340.92,351.59c10.74-.71,44.06,6.17,44.06,6.17l-7.26-20.46,21.34-3.56s-27.3-5.07-30-4.7,24.8-10.41,25.74-11.38-25,.22-25,.22l26.84-20.06-33,7-29.65,24.61-14.61,7.43Z"/><path class="cls-3" d="M1181.84,559.9l-20.13-32.85-5.28-15.52-17.67,19.15c-.54,7-5.6,22.94-9.09,33.26-2.14-7.18-4-14.18-4.26-18.2l-17.67-19.14-5.28,15.51-14.25,23.26-16.89-27.56L1066,522.29l-17.67,19.15c-.29,3.79-1.92,10.24-3.91,17a84.52,84.52,0,0,1-3-13.77l-17.66-19.15L1018.53,541l-4.21,6.87L1008,528.66l-1.53-16.32-21.63,14.51c-3.3,10.24-22,38.69-22,38.69l21.69.79-4.55,21.14s14.77-23.5,15.41-26.12.54,26.89,1.09,28.12c.1.22.43-.35.91-1.42l-1.28,19.47,13.75-25.21,4.39,16.2.13-.76c.45,3.22.86,5.44,1.11,5.11.82-1.07,7.6-29.8,7.6-27.1s8.91,29,8.91,29l.5-21.62,3.55.71-.12.33.88-.18,17,3.41s-.91-2.51-2.23-6.36l5.66-1.14.49,21.62s8.9-26.29,8.91-29,6.78,26,7.6,27.1,3.35-24.76,3.35-24.76l4.2,7.71-1.71,26,7.94-14.58,5.6,10.28-1.2-18.33,3.69-6.78s2.53,25.82,3.35,24.75,7.59-29.79,7.6-27.1,8.91,29,8.91,29l.49-21.63,21.28,4.28s-2.66-7.39-5.52-16.25l15.41-3.09.49,21.62s8.9-26.29,8.91-29,6.78,26,7.6,27.1,3.35-24.76,3.35-24.76l16,29.42Z"/><path class="cls-4" d="M1365.36,338.48c-8.1-72.31-21.24-25.5-317.92-29-129.88-1.52-284.32-61.42-283.6,30,.28,35.82,71.4,29.3,240.9,29.68-12.57,23-21.47,49.54-22.4,72-2.26,54.45-49.56,126.42,85.92,125.59,152.36-.93,110-45.7,100-106.78-5-30.4-10.14-62.91-23.85-89.69C1286.23,371.27,1368.67,368.07,1365.36,338.48Z"/><path class="cls-2" d="M1018.88,266.37c3.12,2.75,5.87,5.87,8.82,8.79a57.44,57.44,0,0,0,11,8.77,48.78,48.78,0,0,0,16.67,5.93,147.8,147.8,0,0,0,21.62,2,167.73,167.73,0,0,0,17.22-.58c3.92-.32,8.16-.34,11.94-1.51a58.52,58.52,0,0,0,10.48-4.76c4-2.18,7.81-4.56,11.6-7,5.33-3.46,10.58-7.06,15.67-10.86,1.53-1.14,0-3.74-1.51-2.59-4.07,3-8.25,5.93-12.47,8.75-7,4.67-14.23,9.51-22,12.68a24.29,24.29,0,0,1-4.41,1.39c-1.46.29-3.54.41-5.33.57-5.34.51-10.69.88-16.05.95a148.46,148.46,0,0,1-19.88-1.06c-6.35-.77-12.69-1.89-18.51-4.65a49.05,49.05,0,0,1-12.9-9.18c-3.32-3.2-6.33-6.7-9.8-9.75-1.44-1.27-3.57.84-2.12,2.12Z"/><path class="cls-5" d="M1032.73,700.09c-33.47-6.39-67.53-13-101.56-15.19-16.23-1-32.8,1.47-48.95,2.91-22.23,2-44.47,4-66.66,6.52-7.23.81-14.6,1.42-21.73,2.88-10.66,2.19-21.22,5-31.81,7.49-7.52,1.76-4.33,13.33,3.19,11.57q14.31-3.35,28.6-6.73a127.68,127.68,0,0,1,16.55-2.61c21.24-2.49,42.55-4.46,63.85-6.4,16.72-1.52,34-4.23,50.8-3.9,19.81.38,39.73,4,59.24,7.1q22.69,3.66,45.29,7.93c7.54,1.44,10.78-10.12,3.19-11.57Z"/><path class="cls-5" d="M794.13,696.05l-20.59-9.42c-7-3.2-13.07,7.14-6,10.36l20.58,9.42c7,3.19,13.08-7.15,6.06-10.36Z"/><polygon class="cls-6" points="1007.97 633.16 950.42 510.09 1043.19 616.41 1056.08 524.37 1066.04 633.62 1111.8 577.82 1067.14 674.57 1155.21 599.82 1097.06 700.38 1210.7 656.92 1124.9 756.39 1232.67 734.39 1134.28 798.6 1240.37 793.5 1126.99 850.87 1202.29 895.01 1100.71 909.36 1116.69 963.27 1078.92 928.29 1041.25 991.74 1040.81 938.43 1001.23 941.05 1036.2 892.82 966.3 892.39 1033.85 847.93 984.69 813.53 1031.99 798.52 969.05 758.13 1025.95 733.42 917.13 677.52 1000.29 677.72 878.29 588.68 1007.97 633.16"/><path d="M382.41,665.71l-.72-4.45a2.16,2.16,0,0,0-.48-1.62c-.33-.28-.85-.74-1.57-1.38a4.65,4.65,0,0,1-1.32-3.07,31.41,31.41,0,0,1-.12-4.87q.24-3.48,1.32-11.78-.84-10.34-1.08-13.35-1.32-15.87.72-19.59a5.85,5.85,0,0,1,1-1.45A4,4,0,0,0,381,601c-.32-3,1.25-5,4.69-6.13a19.71,19.71,0,0,0,3-1.21c1-.48,2-.92,3-1.32a7.43,7.43,0,0,1,5.95.06,8.81,8.81,0,0,0,5.11,1q2.64-.3,5.41-.72a51.3,51.3,0,0,1,5.35-.54,6.94,6.94,0,0,1,4.45,1.2q1.86,1.33,4,2.89a23.33,23.33,0,0,1,3.79,3.49q3.72,4.32,3.13,8.41a13.22,13.22,0,0,1,.84,8.66,4,4,0,0,0-.12,2.16,7.81,7.81,0,0,1,0,3.85,8.11,8.11,0,0,0-.18,3.55,6.64,6.64,0,0,1-.54,3.78,14.17,14.17,0,0,0-1.08,3.61,5.61,5.61,0,0,1-1.21,2.83,3.62,3.62,0,0,1-1.74,1.32,3.5,3.5,0,0,0-1.44.72,3.6,3.6,0,0,0-1,1.14,7.09,7.09,0,0,1-.9,1.33,10.09,10.09,0,0,1-3.72,3,10.91,10.91,0,0,0,3.12,3.55,15.85,15.85,0,0,1,3.07,2.76,4.92,4.92,0,0,1,1.32,2.83,8.87,8.87,0,0,0,.54,2.64,4.56,4.56,0,0,1,.36,2.11q-.12.78-.3,1.68c-.12.6-.26,1.25-.42,1.92a8.35,8.35,0,0,0-.18,2.29A6,6,0,0,1,425,666a9.17,9.17,0,0,1-.84,1.81q-.54.9-1.26,2a13.61,13.61,0,0,0-1.33,2.65,8.88,8.88,0,0,1-2.34,3.42c-1.08,1-1.93,1.81-2.53,2.41a10.54,10.54,0,0,0-1.74,2.46,7.23,7.23,0,0,1-4.33,3.73,3.12,3.12,0,0,1-3.84-1.32c-.49-.89-1.35-1-2.59-.48s-2.22,1-3,1.38a4.48,4.48,0,0,1-2.58.36c-1-.12-2-.28-3-.48a5.76,5.76,0,0,0-3.06.24,5.71,5.71,0,0,1-2.89.3,7.76,7.76,0,0,1-2.4-.84,5.81,5.81,0,0,1-3.13-3.37,20.9,20.9,0,0,1-1-4.51,32.84,32.84,0,0,0-.72-4.33,13.91,13.91,0,0,1-.48-2.82ZM399.48,633q0,6.38,2.29,6.37,1.2,0,2.16-1.74a10,10,0,0,0,1.2-3.31q.12-1.56.18-3.18a9,9,0,0,1,1.57-4.09,5.88,5.88,0,0,0,1-4.57A3.21,3.21,0,0,0,406,620a6.45,6.45,0,0,1-2.34-1.32,9.64,9.64,0,0,0-2.29-1.5q-1.26-.6-2.16.9a3.48,3.48,0,0,0,0,3.43,10.11,10.11,0,0,1,.6,5.17C399.58,628.8,399.48,630.93,399.48,633Zm3.37,17.31q-2.78-.84-3,2.77c-.16,1.68-.36,3.41-.6,5.17a12.06,12.06,0,0,0-.06,4l.66,2.88a15,15,0,0,0,1.44,1.08c.49.33.93.65,1.33,1A9.51,9.51,0,0,1,404,665a8.66,8.66,0,0,0,1.14-1.56,10.06,10.06,0,0,0,1.38-4.75,11.58,11.58,0,0,0-.42-4.51C405.45,652.09,404.37,650.8,402.85,650.32Z"/><path d="M446.85,598.62a15.35,15.35,0,0,0,2.29-2.58,12,12,0,0,1,2.52-2.59q4.21-3.48,8.42-2a40.21,40.21,0,0,0,9.5,2.4c2.88.33,5,1.05,6.31,2.17a22.72,22.72,0,0,1,3.43,3.6,20.82,20.82,0,0,1,4.2,10,5.64,5.64,0,0,0,.73,2.89c1,1.76,1.38,4.13,1,7.09a32.71,32.71,0,0,0-.36,6.2,7.88,7.88,0,0,0,.6,2.58q.42.84.78,1.68a11.75,11.75,0,0,1,1,4.57,10.33,10.33,0,0,1-1.92,5.77c-.56.73-.77,2.13-.6,4.21s.28,4.17.36,6.25c.08,5.22-.2,8.44-.84,9.68a9.56,9.56,0,0,1-1.39,2.23,8.25,8.25,0,0,1-.78.6q-1.8.84-3.19,5a19.23,19.23,0,0,1-3.66,6.73,24.07,24.07,0,0,1-4.75,4.21l-3.85,2.52a7.53,7.53,0,0,0-2,1.75c-.4.56-.81,1.12-1.2,1.68a4.92,4.92,0,0,1-4,1.92q-4.1,0-6-1.92a16.26,16.26,0,0,1-1.81-3.13,15.28,15.28,0,0,0-4.81-5.29,9.69,9.69,0,0,1-4.09-6.85,9.13,9.13,0,0,1-.18-3.12,15.16,15.16,0,0,0-.18-4,17.22,17.22,0,0,0-1-4.33,12.92,12.92,0,0,1-.84-3.61c-.4-3.36-1.52-5.17-3.37-5.41q-2-.24-2.4-6.13a33.22,33.22,0,0,1,.24-5.71,28.31,28.31,0,0,1,1-4.63,23.73,23.73,0,0,0,.6-8.12,47,47,0,0,1,0-8.23,28.24,28.24,0,0,1,2.89-10.94,14.8,14.8,0,0,1,3.19-3.61Q444.81,600.31,446.85,598.62ZM454.49,633a5.39,5.39,0,0,0,1.2,2.7A6.83,6.83,0,0,1,457,638.9a20.07,20.07,0,0,1,.3,4.75c-.08,1.73-.12,3.37-.12,4.93a33.24,33.24,0,0,0,.24,4.21,20.6,20.6,0,0,0,.72,3.42q1.34,3.74,3.73,3.73,3.74,0,5.17-14.43a87.46,87.46,0,0,0,.48-10.16,27.23,27.23,0,0,0-1.92-10.7c-1.28-3-2.85-4.5-4.69-4.5s-3.37,2-4.81,5.89C454.83,629.56,454.29,631.89,454.49,633Z"/><path d="M504.8,593.81q6-2.4,6.5-.48a3.66,3.66,0,0,1,4.45,1.81q.48.84,1.86,3.48t3,5.65q1.62,3,3.06,5.65l1.93,3.55a1.69,1.69,0,0,0,1.2,1,2,2,0,0,0,1.44-.36q1.56-1.2.9-3.6a13.18,13.18,0,0,1-.6-3.79,17.2,17.2,0,0,1,.3-2.59,12.8,12.8,0,0,0,.24-5.41,16.8,16.8,0,0,1-.48-3.84q0-3.61,5.89-3.61c.8,0,1.73,0,2.77.06a38.42,38.42,0,0,0,4.69-.24,7.11,7.11,0,0,1,5.47,1.68q2.34,2,1.5,7a55.26,55.26,0,0,0-1,9.19c.08,1.57.12,3,.12,4.39a41.17,41.17,0,0,1-.72,6.37q-1.33,7.46-.72,10.58a26.73,26.73,0,0,1,.48,4.09v1.93a10.54,10.54,0,0,0,.24,1.56,5.16,5.16,0,0,1-.12,2.46,6.14,6.14,0,0,0-.12,2.71,5.82,5.82,0,0,1-.6,3.31,9,9,0,0,0-.79,4.08,18.11,18.11,0,0,1-.3,4,8.78,8.78,0,0,0,.36,4.21c.73,2.49.12,6.85-1.8,13.11a4.49,4.49,0,0,1-1.5,2.94c-.68.44-1.19.78-1.5,1a2.55,2.55,0,0,0-.73,1.57q-.6,2.4-2.52,2.16c-1.68-.24-3-1.92-4.09-5q-2.16-6.5-3.49-7.57a6.57,6.57,0,0,1-2-3,40.59,40.59,0,0,1-1.14-4c-.64-3.36-1.29-5.31-1.93-5.83a5.84,5.84,0,0,1-1.56-3.07,12.66,12.66,0,0,0-1.2-3.24,17.49,17.49,0,0,1-1.14-2.17c-.36-.8-.75-1.6-1.15-2.4-1-2-2-2.89-3-2.65-.56.17-.94.87-1.14,2.11s-.39,2.75-.54,4.51q-.74,7.69-2.41,11.06A47.23,47.23,0,0,1,514.6,664a14.75,14.75,0,0,1-.24,6.13q-.78,3.55-1.26,5.71a38,38,0,0,1-1,3.79,7.38,7.38,0,0,1-1.26,2.46,1.86,1.86,0,0,1-1.81.67,2.21,2.21,0,0,1-1.44-.67l-.72-1a5,5,0,0,0-2.89-2.28,6.16,6.16,0,0,1-2.88-1.8,5.59,5.59,0,0,1-1.08-2.53,21.18,21.18,0,0,1-.3-3.13,11.44,11.44,0,0,0-.85-3.66,9.5,9.5,0,0,1-.78-3.31,10.27,10.27,0,0,1,.24-2.34l.48-2a6.48,6.48,0,0,0-.48-3.18c-1-3-.68-5.41.84-7.34q1.69-2.4,1.45-4.09c-.48-2.32-1.41-3.84-2.77-4.56a1.74,1.74,0,0,1-1-1.45,5.35,5.35,0,0,0-.54-2.7,2.77,2.77,0,0,1-.06-2.35,2.74,2.74,0,0,0-.12-2.4c0-.08-.1-.9-.3-2.47s-.4-3.56-.6-6-.42-5.09-.67-7.93-.4-5.6-.48-8.24q-.48-9.13.18-10.7a4.48,4.48,0,0,1,2.05-2.29,9.4,9.4,0,0,1,2.94-1A11.89,11.89,0,0,1,504.8,593.81Z"/><path d="M597.14,630.24q-2.4,4.93-3.3,7.22a10.46,10.46,0,0,0-.9,3.43,9.2,9.2,0,0,0,.78,3.12c.52,1.32,1.18,2.81,2,4.45s1.7,3.47,2.71,5.47,1.86,3.87,2.58,5.59,1.22,3.05,1.5,4a26.57,26.57,0,0,1,.67,2.7,20.94,20.94,0,0,1-.18,5.17,19.14,19.14,0,0,0-.24,4.63,23.89,23.89,0,0,1,.12,3.19,5.6,5.6,0,0,1-.55,2.34c-.32.6-1.26,1-2.82,1.09a5.61,5.61,0,0,1-4.33-1.63,16.75,16.75,0,0,1-3.37-4.27,35.25,35.25,0,0,1-2.28-4.86,11.89,11.89,0,0,0-2.34-4,12.65,12.65,0,0,1-2.47-4.57c-.68-2-1.26-3.93-1.74-5.77a37.3,37.3,0,0,0-1.57-4.81c-.56-1.36-1.34-2.13-2.34-2.29s-1.64.08-1.93.73a6,6,0,0,0-.36,2.58c0,1.08.14,2.28.31,3.61s.25,2.76.3,4.33a25.58,25.58,0,0,1-.25,4.38A7.61,7.61,0,0,1,575.2,670a10,10,0,0,0-2.16,3.79c-.36,1.28-.66,2.52-.9,3.73a14.36,14.36,0,0,1-1,3.12,2.08,2.08,0,0,1-2,1.32c-1.92.08-3.69-1-5.29-3.24a16.77,16.77,0,0,1-2.77-8.78c-.24-2.08-.84-3.44-1.8-4.09s-1.16-2.76-.84-6.61a13.16,13.16,0,0,1,.48-2.76,37.6,37.6,0,0,0-.06-10.65c-.52-4.6-.86-7.33-1-8.17s-.34-1.84-.54-3-.36-2.4-.48-3.72-.18-2.69-.18-4.09a19.85,19.85,0,0,1,.54-4.45,21.76,21.76,0,0,0,.6-3.91,20.23,20.23,0,0,0-.06-2.76,28.17,28.17,0,0,1-.42-6.2,23.64,23.64,0,0,0-.18-5c-.24-1.76-.41-3.48-.48-5.17a15.22,15.22,0,0,1,.42-4.62,4.74,4.74,0,0,1,2.16-3.07,4.41,4.41,0,0,1,2.83-.78,22,22,0,0,1,2.52.54,15.84,15.84,0,0,0,5.53.84q9.13-2.28,7.34,11.66c-.24,1.53-.48,2.89-.72,4.09a19.74,19.74,0,0,0-.49,6.49,24.64,24.64,0,0,1,.3,3.13c0,1.12.1,2.16.19,3.13q.22,3.36,1.56,3.36,2,0,5.17-7a21.45,21.45,0,0,0,1-2.53q.3-1,.84-2.28a27.59,27.59,0,0,1,1.26-2.65c1.28-2.16,2.65-3.52,4.09-4.08q-1.56-3.37-.54-5.83c.68-1.65,1.22-2.87,1.62-3.67a7.59,7.59,0,0,1,1.33-1.93q1.32-1.32,3.9-.6a7.85,7.85,0,0,0,4.51.12c1.28-.4,2.55-.82,3.79-1.26a21.39,21.39,0,0,1,3.67-1,3.57,3.57,0,0,1,3.06.78,4.49,4.49,0,0,1,1.57,2.47,6.82,6.82,0,0,1-.06,2.94,14.06,14.06,0,0,1-3.61,6.37,22.15,22.15,0,0,1-5.53,10.46,17,17,0,0,1-3.61,9.5A32.93,32.93,0,0,0,597.14,630.24Z"/><path d="M628,644.55l-.24,8.54q0,8.29-3.48,11.06a6,6,0,0,1-4,1.32,4.27,4.27,0,0,1-2.71-1.32,3.93,3.93,0,0,1-1-2.52,28.94,28.94,0,0,0-.6-4.15q-.54-2.72-1.32-5.41a16.4,16.4,0,0,1-.54-5.83c.16-2.09.26-4,.3-5.9a6.16,6.16,0,0,0-1-4.08,6.36,6.36,0,0,1-1.45-4.09,6.21,6.21,0,0,1,.48-2.53,17.21,17.21,0,0,0,1.09-5.53c0-1.6,0-2.76-.12-3.48s-.18-1.43-.3-2.11-.27-1.72-.43-3.12a24.07,24.07,0,0,1,0-4.81,31.23,31.23,0,0,0,0-5.47c-.16-1.85-.26-3.33-.3-4.45a11.1,11.1,0,0,1,.78-4,14.1,14.1,0,0,1,1.39-3.07,5.21,5.21,0,0,1,1.86-1.38q1.32-.66,1.8-1a2,2,0,0,1,1.33-.18,3.29,3.29,0,0,1,1.8,1.14,7.1,7.1,0,0,0,2.29,1.62c.88.41,1.9.89,3.06,1.45a3.35,3.35,0,0,1,2,2.7,9.75,9.75,0,0,0,.42,2.23,2.28,2.28,0,0,0,.42.6A13.84,13.84,0,0,1,630,604a16.5,16.5,0,0,1-.42,5.41,23,23,0,0,0-.72,4.51,13.75,13.75,0,0,1-.67,3.67,9.59,9.59,0,0,0-.42,3.85,15.06,15.06,0,0,1,.06,2.94,17.08,17.08,0,0,1-.3,1.75,7.18,7.18,0,0,0-.18,1.62,12.27,12.27,0,0,0,.42,2.58,11.68,11.68,0,0,1,.36,3.19,20.33,20.33,0,0,0,.12,3.07,14.62,14.62,0,0,1,0,3.24A46.73,46.73,0,0,0,628,644.55Zm-15.15,34.87a3,3,0,0,1-.18-1.8,5.57,5.57,0,0,1,2-2.53,24.92,24.92,0,0,1,4.45-3q2.64-1.46,7.21-.85a4.32,4.32,0,0,1,3.37,2.53q2.52,4.32-2.29,7.81a10.44,10.44,0,0,1-3.84,1.75,3.89,3.89,0,0,0-2.35,1.08,1.94,1.94,0,0,1-2.1.42,2.6,2.6,0,0,1-1.93-1.5,2.53,2.53,0,0,0-1.44-1.51,6.68,6.68,0,0,1-1.74-1A3.53,3.53,0,0,1,612.89,679.42Z"/><path d="M685.16,579.07c0-29.49,1.81-60.17,10.57-88.47,4.89-15.79,13.19-30.69,20.23-45.59q11-23.26,22.1-46.48c4.57-9.53,8.5-20.32,14.4-29.15,1.08-1.61-1.52-3.11-2.59-1.51-5,7.47-8.34,16.55-12.22,24.61q-11.39,23.68-22.59,47.45c-6.82,14.41-14.67,28.75-20.16,43.73-6.23,17-9,35.31-10.74,53.28-1.37,14-2,28.06-2,42.13a1.5,1.5,0,0,0,3,0Z"/><path d="M570.63,493.22a398.23,398.23,0,0,1,22.2-52.77c6.09-11.83,12.92-23.53,21.52-33.75,10.08-12,21.73-22.83,32.57-34.12,6.85-7.14,13.54-15.73,21.47-21.74,1.52-1.15,0-3.76-1.52-2.59-6.34,4.81-11.68,11.4-17.17,17.11-11.53,12-23.36,23.73-34.61,36C597.8,420.11,586.56,444.56,577,468q-5,12.09-9.22,24.47c-.63,1.83,2.27,2.61,2.89.8Z"/><path d="M1195.49,447.75c9.71,28.92,18.25,59.94,18.19,90.63,0,15.52-2.92,31.25-4.75,46.65q-3,25.54-6.16,51.09c-1.29,10.37-1.58,21.69-4.33,31.82a1.5,1.5,0,0,0,2.9.79c2.25-8.28,2.54-17.52,3.61-26q3.12-24.9,6-49.83c1.94-16.3,4.77-32.79,5.55-49.19.89-18.37-2.32-37-6.35-54.84a431.28,431.28,0,0,0-11.81-41.9c-.61-1.82-3.51-1-2.9.79Z"/><path d="M1276.44,475.08a395.13,395.13,0,0,1,6.09,58.33c.32,13.37-.09,27-2.91,40.12-3.27,15.27-8,30.33-12.07,45.42-2.43,9.11-4.07,19.32-7.91,28-.78,1.75,1.81,3.27,2.59,1.51,3-6.88,4.48-14.76,6.42-22,4.28-15.91,8.67-31.81,12.82-47.75,6.61-25.38,4.6-53,1.6-78.79q-1.52-12.86-3.74-25.62c-.33-1.9-3.22-1.09-2.89.8Z"/><path class="cls-3" d="M812.69,573.77c6.63,63.6,73.34,88.06,151.57,79.25S1102.6,605.49,1096,541.89s-32.35-133-155.72-119.17C823.41,435.87,806.06,510.18,812.69,573.77Z"/><path class="cls-7" d="M880.87,566.1c-5.71-54.79,2.11-117,61.76-139.7,65.11,8.6,81.86,68.1,87.57,122.89,5.32,51-22.82,84.93-65.13,99.86C920.65,644,886.18,617.09,880.87,566.1Z"/><path class="cls-7" d="M907.36,426.42q6.4-.72,12.37-.95c-79.06,15-89.34,84.87-83,145.6,6.18,59.29,51.79,86,106.62,83.86q-5.88,1.11-12,1.79c-60.06,6.76-112-19.35-118.68-83S817.65,436.52,907.36,426.42Z"/><path class="cls-7" d="M1071.11,544.69c-6.33-60.73-26.22-127.23-110.48-123.82q5.61-1.06,11.66-1.75C1067,408.46,1088.5,478.39,1095.13,542s-38.77,100.67-98.83,107.43c-4.06.45-8.09.75-12.06.91C1038.23,640.22,1077.29,604,1071.11,544.69Z"/><path class="cls-8" d="M951.7,423.36s.36-5-.6-7.33-2.66-11.46-7.91-17-13.07-11.22-13.61-10.51-3.57.62-3.37,2.12,5.27,9.47,7.57,23.3c.38,2.3-.1,11.9,4,13.64s11-2.19,11.56-2.9A6.75,6.75,0,0,1,951.7,423.36Z"/><path class="cls-3" d="M920.09,561.69c-5.72-54.8-5.23-116.23,22.63-135.3C974.91,438.7,986.25,498.8,992,553.6c5.32,51-6.58,83.09-26.4,95.5C943.64,641.39,925.4,612.67,920.09,561.69Z"/><path d="M1069.55,458.53c-.58-5.89,21.77,48.67,18,44.57s-13.65-9.47-11.52-6.81,5,27.67,1.73,19.23-7.82-17.15-8.77-20.68S1070.13,464.41,1069.55,458.53Z"/><path d="M1033.15,468.27c1.33,8.43,11,20.69,13.44,25.55s3.71,26.27.72,17.73-9.9-12.39-8-8.56,1.32,29.31-1.37,20.38-6.38-12.14-9.65-18.37S1031.83,459.84,1033.15,468.27Z"/><path d="M998.17,650.09c8.89-.88,25.6-8,25.6-8s10.69-17.77,7.53-15.09-16.57,11.52-16.57,11.52-3.91-19-4.13-12.9-11,17.34-11,17.34-14.24-13.49-12.87-8.61-3.5,7.43-3.5,7.43-15.73-11.31-14.36-6.43,2.09,11.84-1.3,12.22-17.86,1-22.29-.51,5.34-5.24-3.09-4.48-21.84-4.79-17.93-.2,5.33,10.16.91,8.8-19.09-10.78-17-7,5.84,6.76.64,6.16-16.07-6.43-14.17-4.64,2.48,8.47,7.36,9.59,29.81,3.34,44.34,2.71,31.62-3.56,38.25-4.31S989.28,651,998.17,650.09Z"/><path d="M1023.44,544.86c3.74,3.85,19.13,23.75,19.13,23.75s11.12-17,11.32-20,5,23.53,5,23.53,15.06-23.63,14.25-28.11,5.87,23.44,5.87,23.44,13.31-27.4,11.44-19,1.26,18.6,1.26,18.6,1.87-3.63,4.09-7.33l-.24.4a91.62,91.62,0,0,1-5.13,25.79v0c-2.31-6.87-6-8.2-5.84-4.83s-4.81,17.5-5.75,9.31-11.12-17.36-10-13.34-8.56,23.72-7.46,15.3-12.19-12.68-11.26-9.4-2.58,17.24-3.79,11.09S1019.7,541,1023.44,544.86Z"/><rect class="cls-5" x="976.41" y="647" width="12" height="40.61" rx="6" transform="matrix(-0.84, 0.54, -0.54, -0.84, 2169.68, 695.41)"/><path class="cls-9" d="M917.4,841.85C899.94,928.76,934,900,967.61,906.69s53.91,46.48,71.36-40.42c3.2-15.94,19.4-98,21.86-114.13,10.93-71.91-2.33-74-45.57-82.71-41.94-8.43-56.79-8.61-75,63.91C936.64,747.51,920.25,827.64,917.4,841.85Z"/><path class="cls-5" d="M980.42,930.62c2.86,10.66,2.47,21.27,1.36,32.14-.66,6.48-2.43,15.18,2.7,20.37,7.19,7.26,20.9,5.66,30.08,4.18,7.61-1.22,4.38-12.78-3.19-11.57-.23,0-.45.08-.68.1,1.64-.21-.3,0-.89.09-2.29.23-4.58.39-6.88.41a31.22,31.22,0,0,1-6.69-.47,10.78,10.78,0,0,1-2.45-.71c-.69-.33-1-1-.61-.19-.85-1.9,0-5.66.16-7.68.32-3.65.77-7.3,1-10.95A85.55,85.55,0,0,0,992,927.43c-2-7.45-13.59-4.29-11.57,3.19Z"/><path class="cls-5" d="M937.24,931.49a82.65,82.65,0,0,0-12.39,23.79c-1.17,3.39-2.17,6.83-3.22,10.27-.75,2.48-1.3,5.92-2.87,8-.64.86-.53.82-2.66.55a28,28,0,0,1-6.72-2,61.53,61.53,0,0,1-8.77-4.51c-6.59-4.06-12.63,6.31-6.06,10.36,8,4.94,21.46,12,30.55,6.24,5.71-3.63,7.21-12.49,9-18.47,3.08-10.2,6.94-19.66,13.49-28.16,2-2.59.38-6.7-2.15-8.21-3.07-1.84-6.24-.4-8.21,2.15Z"/><path class="cls-10" d="M902.07,892.76c14.23-70.83,9.6-45.24,74.8-32.15s71.79-12.1,55.6,58.34c-.43,1.89-.81,3.64-1.27,5.24q-.57,3.88-1.36,7.87c-7.07,35.21-15,13-29.65,10.08-6.44-1.29-13.1,1.34-18,1.72a5.1,5.1,0,0,1-2.45-.06,5,5,0,0,1-2.29-.9c-4.33-2.22-9.47-7.22-15.9-8.51s-13.11,1.34-18,1.71a5,5,0,0,1-2.46-.05,4.94,4.94,0,0,1-2.28-.9c-4.34-2.22-9.47-7.22-15.91-8.51-14.66-2.95-30.52,14.46-23.45-20.75.49-2.46,1-4.86,1.63-7.22C901.35,896.85,901.65,894.89,902.07,892.76Z"/><path class="cls-5" d="M1046.87,702.86c33.41-2.88,67.43-5.91,101-4.63,14.91.57,31,4.65,46.79,7.71,21.76,4.22,43.52,8.53,65.19,13.23,17.57,3.82,34.07,9.66,51.08,15.53,7.31,2.53,10.45-9.06,3.19-11.57-15-5.17-29.65-10.76-45.12-14.22-21-4.7-42.13-8.86-63.25-13-17-3.34-34.42-7.88-51.73-9.32-19.9-1.66-40.25-.15-60.15,1-15.67.88-31.34,2-47,3.3-7.63.65-7.7,12.66,0,12Z"/><path class="cls-5" d="M1287.71,722.68l21.44-7.26c7.28-2.47,4.15-14.06-3.19-11.58l-21.44,7.26c-7.28,2.47-4.16,14.06,3.19,11.58Z"/><path class="cls-11" d="M1264.38,42.38l267,78.51c4.84,0,8.79,6,8.79,13.36l-33.5,183c0,7.35-4,13.36-8.79,13.36L1374.5,312.38,1137,469l165.11-167.31-29.78-4.39c-4.84,0-8.79-6-8.79-13.37l-8-228.18C1255.58,48.4,1259.54,42.38,1264.38,42.38Z"/><path d="M1360,183.63l.49-6.75v-2.32a7.51,7.51,0,0,0-.07-1l-.21-2.53a8.43,8.43,0,0,1,0-1.34c0-.46,0-.86,0-1.19v-.84a4.11,4.11,0,0,0-.07-.71l-.21-.91.07-.71a1,1,0,0,0-.14-.56,2.15,2.15,0,0,1-.25-.63,2.62,2.62,0,0,1,0-1,2,2,0,0,0,0-.88.93.93,0,0,0-.28-.46,1.88,1.88,0,0,1-.31-.32.71.71,0,0,1-.18-.38.89.89,0,0,0-.28-.46,2.26,2.26,0,0,0-.77-.46,3.45,3.45,0,0,1-1-.56,4.35,4.35,0,0,0,0-1,2,2,0,0,1,.25-1,5.55,5.55,0,0,1,1.79-.28,2.46,2.46,0,0,1,1.48.39,2,2,0,0,0,1.19.38,2.33,2.33,0,0,0,1.44-.63,5.86,5.86,0,0,0,1.76.21l2.6-.07,3.45.28,1.26-.14a6.67,6.67,0,0,1,1.9.28,6.33,6.33,0,0,0,1.9.28l1.69-.07,1-.14,1.2.28,1.26-.14,1.2.07a3.78,3.78,0,0,0,1.19-.21,8.15,8.15,0,0,0,.74-2.6,5.16,5.16,0,0,1,.88-2.39,6.31,6.31,0,0,1,1.09-.14.67.67,0,0,1,.6.35,1.22,1.22,0,0,1,.21.56l-.14.43.21,1.54-.14,1.27.21,2-.14,1.26.21,1.13-.21,1.4.07.5a1.69,1.69,0,0,0-.53.77,4.13,4.13,0,0,1-.38.84l-.88.46a1.64,1.64,0,0,1-.74.25c-.19,0-.4-.31-.63-.92a4.23,4.23,0,0,1-.35-1.47l.14-1.55v-.42a1.91,1.91,0,0,0-1.41-.56l-1.27.35-2.11-.5-1.75.15a.45.45,0,0,1-.35-.15h-1.41l-2.6-.14a3.76,3.76,0,0,0-1.27.18c-.33.12-.68.22-1.05.32s-.84.17-1.37.24-1.08.13-1.62.18l-1.62.14c-.54.05-.92.07-1.16.07a1,1,0,0,0-.28.88,1.58,1.58,0,0,1-.07.84c-.09.21-.17.32-.21.32s-.07.16-.07.49l.42,3.45v1.82l.07,1c-.09,0-.14.1-.14.31a3.91,3.91,0,0,0,.49,1.31,3.67,3.67,0,0,0-.07.77l-.21.91.21.85-.07,1.68.14,2.11-.49,7.95a8.87,8.87,0,0,0,.28,2.18,4.6,4.6,0,0,1,.07,2.11,4.28,4.28,0,0,0,2.92.7c1.48,0,2.38,0,2.71.07l.84.14.7-.14,1.62.28,1.69.14a1.12,1.12,0,0,0,1.19-.77,3,3,0,0,1,.57-1.48,3.63,3.63,0,0,1,.35-1.68l1-.29c.24,0,.46.2.67.6a2.28,2.28,0,0,1,.32.95l-.57,4.29.29,2a8.82,8.82,0,0,0-.78,1.69,3.79,3.79,0,0,0-.84.24,2.13,2.13,0,0,1-.85.18,1.3,1.3,0,0,1-.24-.39,1.66,1.66,0,0,0-.35-.49,1.53,1.53,0,0,1-.35-.84c-.08-.4-.16-.77-.25-1.09a1.44,1.44,0,0,0-1.13-.25,1.14,1.14,0,0,1-1-.32,2.2,2.2,0,0,1-1,.28,1.44,1.44,0,0,1-.81-.28,5.66,5.66,0,0,1-1.83.28l-2.32-.07h-.63a2.13,2.13,0,0,0-1,.22,1.11,1.11,0,0,1-.6.17.3.3,0,0,0-.28.11l.07.28-.42,3.51.14,2-.21,1.2.21.84-.21,3.17c0,1.5.49,2.25,1.48,2.25l1.33-.15,1.69.22a1.2,1.2,0,0,0,.91-.36,2.88,2.88,0,0,0,1.13.22l2.6-.22h.42a1.33,1.33,0,0,1,.57.14,6,6,0,0,1,2-.28c.8,0,1.45,0,1.94-.07s1-.1,1.4-.17a8.45,8.45,0,0,1,1.3-.11l1.2.07c.52,0,.83-.1,1-.31a1,1,0,0,1,.53-.46c0-.19.09-.45.14-.77.18-1.32.61-2,1.26-2,.42,0,.69.11.81.35a2.07,2.07,0,0,0,.67.7q.21,2.53.21,3.45a.12.12,0,0,0-.14.14l.14,1.61a2.52,2.52,0,0,1-.35,1.34c0,.23-.07.35-.35.35a1.11,1.11,0,0,0-.67.18,1.42,1.42,0,0,0-.39.38.53.53,0,0,1-.49.22l-1.19-.43c0-.42-.1-.89-.15-1.4a2.86,2.86,0,0,0-.42-1.34,4.76,4.76,0,0,1-.84.07h-.92c-.93,0-1.45.14-1.54.42a1.39,1.39,0,0,0-.6-.14,1.46,1.46,0,0,0-.74.28.76.76,0,0,0-.56-.21l-1,.07-.78-.14-.77.14-1.2-.35a4.89,4.89,0,0,0-2.25,1.06l-1.83-.5q-.13,0-.24.18a.41.41,0,0,1-.39.18l-2.18-.29-1.47.22h-1.13a4.27,4.27,0,0,0-2.46.49,1.52,1.52,0,0,0-1-.28l-.5.14-.35-.14a2.38,2.38,0,0,0-1.23.42,2.43,2.43,0,0,1-.88.42c-.94,0-1.4-.59-1.4-1.76v-.35c.18-.37.7-.66,1.54-.84a14.33,14.33,0,0,1,1.41-.28A4.22,4.22,0,0,0,1360,207c.07-.52.12-.94.17-1.27a5,5,0,0,0,.07-.7l-.21-1.26.21-.85-.21-.56.14-.7-.21-.64.21-1.82a1.4,1.4,0,0,0,0-.53,3.47,3.47,0,0,1,0-.6l.21-1.83-.28-1.76a2.48,2.48,0,0,1,.07-.63,5.93,5.93,0,0,0,.14-.67,3.24,3.24,0,0,0,0-.84c0-.3,0-.6,0-.88v-.77a.13.13,0,0,1-.14-.14l.21-.5-.21-.84a6.82,6.82,0,0,1-.17-2c0-.82,0-1.51,0-2.08Z"/><path d="M1406.36,182.36l2,2.88v.14a2.65,2.65,0,0,0,.59,1.76,5.23,5.23,0,0,1,1,1.69,4.26,4.26,0,0,1-.42.49,1.63,1.63,0,0,0-.35.56,2.68,2.68,0,0,1-.7.14l-1.13-.07a1.07,1.07,0,0,0-.7.22,1.56,1.56,0,0,0-.85-.22H1405a3,3,0,0,1-1.19-.21.66.66,0,0,0-.43.43c-.09.23-.42.34-1,.31a4.6,4.6,0,0,0-1.23.07,3.34,3.34,0,0,0-.6.21,1.45,1.45,0,0,1-.63.11l-1.41-.14h-1.69c-.42.65-.63,2.39-.63,5.2l.49,3.09-.07,1.48a1.73,1.73,0,0,0,.14.92,2.16,2.16,0,0,1,.5,1.37,3.48,3.48,0,0,0,.38,1.51,6.31,6.31,0,0,1,.5,1.23,8,8,0,0,0,.38,1.16,3.3,3.3,0,0,0,1,1.3,2.61,2.61,0,0,0,1.69.6,2.56,2.56,0,0,0,1.62-.53,7.91,7.91,0,0,1,1-.74c.26-.14.41-.2.46-.17s.15,0,.31-.11a5.46,5.46,0,0,0,.85-.7,6.84,6.84,0,0,0,.74-.78,3.68,3.68,0,0,0,.28-.59l.38-1.09c.17-.47.41-.71.74-.71s.67.25,1,.74a2.55,2.55,0,0,1,.53,1.48,1.29,1.29,0,0,1-.81,1.16,1.89,1.89,0,0,0-1,1.19c-.75.33-1.18.65-1.3.95a1.11,1.11,0,0,1-.35.56c-.12.08-.2.1-.25.08a.37.37,0,0,0-.21,0c-.09,0-.14.09-.14.28a5.77,5.77,0,0,0-.84.7,1.83,1.83,0,0,0-1.69.32,2.81,2.81,0,0,1-1.62.6,2.08,2.08,0,0,1-1.4-.56,2.21,2.21,0,0,1-.78.14,2.47,2.47,0,0,0-.84.14,3.78,3.78,0,0,0-1.27-.85c-.46-.18-.93-.39-1.4-.63-.1-.28-.2-.43-.32-.46s-.13-.2,0-.52l-.53-.28-.53-.29a3.75,3.75,0,0,0-.77-1v-.91a1.21,1.21,0,0,1-.74-.88,1.62,1.62,0,0,0-.74-1,7.74,7.74,0,0,0-.32-1.66,5.73,5.73,0,0,1-.24-1.65v-1.26l-.49-3v-.56l.21-.63-.21-.63.49-3,.28-.42q.35-1.83.6-3.3a9,9,0,0,1,1-2.85c.49-.92,1-1.78,1.51-2.6a6.9,6.9,0,0,0,1-2.29,29.8,29.8,0,0,1,4.29-2.88,1.67,1.67,0,0,0,.56.14l1.12-.21a2.3,2.3,0,0,1,1.48.84l.77-.14h.29a1.15,1.15,0,0,1,.17.49.38.38,0,0,0,.32.35,2.65,2.65,0,0,1,.95,1.52,2,2,0,0,0,1,1.37Zm-2,5.91,2.39-.5v-.28a3.46,3.46,0,0,0-.11-.84,8.33,8.33,0,0,1-.17-.84,4.84,4.84,0,0,0-.81-.78,1.1,1.1,0,0,1-.32-1.05,1.21,1.21,0,0,1-.81-.92c-.11-.46-.22-.91-.31-1.33-.1,0-.14-.1-.14-.28a6.55,6.55,0,0,1-.71-.57,3.31,3.31,0,0,0-2.42-.77,3.66,3.66,0,0,0-2.11.39,4.79,4.79,0,0,0-.95,2.11c-.33,1.15-.62,2.11-.88,2.88a7.33,7.33,0,0,0-.39,2.35v.43l2.25.28,1.62-.14.56.14,1.13-.28,1,.14.57-.28Z"/><path d="M1422,208.87c-.57.23-1,.38-1.27.46a1.67,1.67,0,0,0-.67.31,2,2,0,0,1-.59.35,1.8,1.8,0,0,1-1.62-2.25,6.72,6.72,0,0,0-.88-.35,2.23,2.23,0,0,1-.81-.42v-2.11a3.92,3.92,0,0,0,.56-.91,2.44,2.44,0,0,1,.5-.78.8.8,0,0,1,.52-.28.64.64,0,0,0,.39-.1.82.82,0,0,0,.21-.25.53.53,0,0,1,.21-.21l1-.14a5.14,5.14,0,0,1,1-.14,1.44,1.44,0,0,1,1.41.95,4,4,0,0,1,.42,1.44.83.83,0,0,0,.17.63c.12.1.18.48.18,1.16A7.2,7.2,0,0,1,1422,208.87Zm-.28-28.69-.43,7.81.07,2.25c0,1-.16,1.47-.49,1.47-.14,0-.14,0,0,.14a10.34,10.34,0,0,0-.6,1.27c-.21.51-.48.77-.8.77-.61,0-1.11-.49-1.48-1.47a7,7,0,0,1-.49-3.17v-2.88l-.14-2.32.14-3-.14-1.4.28-.85-.14-.84.07-2.46a52.61,52.61,0,0,0-.39-7.52,26.44,26.44,0,0,1-.39-3.27,3.91,3.91,0,0,1,.32-1.55,6.5,6.5,0,0,0,.39-1.09c0-.33.18-.49.42-.49s.23,0,.28-.14.12-.28.21-.28a2,2,0,0,1,1.37.42c.31.28.59.55.85.81a2.69,2.69,0,0,0,.52.45,2.85,2.85,0,0,1,.28.64l.29.14a.65.65,0,0,1,0,.35.37.37,0,0,0,.11.35l.28.14a3.62,3.62,0,0,1,.28,1.27l-.49,3.44.21,3.45v3.23a14.68,14.68,0,0,1-.21,2.71A9.48,9.48,0,0,0,1421.69,180.18Z"/></svg>