<svg id="Layer_1" data-name="Layer 1" xmlns="http://www.w3.org/2000/svg" xmlns:xlink="http://www.w3.org/1999/xlink" viewBox="0 0 1920 1080"><defs><style>.cls-1,.cls-9{fill:none;}.cls-2{fill:#85aa52;}.cls-3{fill:#fbb03b;}.cls-4{fill:#f7931e;}.cls-5{fill:#006837;}.cls-6{fill:#daec70;}.cls-7{fill:#1b1464;}.cls-8{fill:#999;}.cls-9{stroke:#000;stroke-miterlimit:10;stroke-width:2px;}.cls-10{clip-path:url(#clip-path);}</style><clipPath id="clip-path"><rect class="cls-1" x="-1" y="-1100" width="1920" height="1080"/></clipPath></defs><path d="M683.4,53.28a1,1,0,0,1,1.07-.79h1a.69.69,0,0,1,.62.32,1.06,1.06,0,0,1,.09.8l-2.49,9.69h8.6l2.54-10a1,1,0,0,1,1.09-.79h1a.69.69,0,0,1,.63.32,1.07,1.07,0,0,1,.09.8l-6.15,24.16a1,1,0,0,1-1.09.79h-1a.68.68,0,0,1-.64-.33,1,1,0,0,1-.09-.78l3-11.67h-8.59l-3.06,12a1,1,0,0,1-1.07.8h-1a.7.7,0,0,1-.64-.33.94.94,0,0,1-.07-.78Z"/><path d="M699,73.55c-.33,1.78,0,2.76,1,3a9.56,9.56,0,0,0,3.25-2.72.55.55,0,0,1,.72-.07l.68.42c.31.25.42.52.31.8a9.23,9.23,0,0,1-2.53,2.79q-1.85,1.47-3,1.26a3.62,3.62,0,0,1-3-2.7q-.51-2.73.9-7.46a16.05,16.05,0,0,1,3.93-7.14,5.4,5.4,0,0,1,2.19-1.2,4,4,0,0,1,2.77.22c1,.41,1.46,1.58,1.45,3.51a7.88,7.88,0,0,1-2.54,5.48A16,16,0,0,1,699,73.55Zm.44-2.31a12.13,12.13,0,0,0,2.87-1.68,8.09,8.09,0,0,0,2-2.36,5.75,5.75,0,0,0,.78-2.85c0-1-.28-1.46-.84-1.46q-1.65,0-2.88,2.7A29.35,29.35,0,0,0,699.48,71.24Z"/><path d="M720.53,60.27h1.36a.43.43,0,0,1,.37.28.85.85,0,0,1,0,.65L717,80.34c-.57,2.22-1.52,3.69-2.83,4.4a9.75,9.75,0,0,1-1.16.58c-.48.21-1.19,0-2.11-.54l-3.68-2.08a.79.79,0,0,1-.29-1.3l.54-.76a1,1,0,0,1,1.2-.3l4,2.47c.52.28.92,0,1.19-1l3.42-12.36-.82,1.58-2.12,3.58a10.65,10.65,0,0,1-2.31,3,3.5,3.5,0,0,1-2.08,1h-.22a1.64,1.64,0,0,1-1.25-.55,3.87,3.87,0,0,1-.56-3.85l3.67-13.39c.1-.33.29-.5.57-.5H714c.36,0,.45.29.28.87l-3.64,12.48c-.19.75-.22,1.21-.07,1.4.27.41.87-.09,1.82-1.51s3.37-5.67,7.25-12.74A.94.94,0,0,1,720.53,60.27Z"/><path d="M737.67,52.06l-3.94,15.45,5.46-6.85a1.12,1.12,0,0,1,1-.39h1.33c.37,0,.57.14.6.4a1.19,1.19,0,0,1-.39.85l-6.2,7.3,2.79,8.78q.33,1-.75,1h-1a1.34,1.34,0,0,1-.73-.14,1.25,1.25,0,0,1-.33-.66l-2.35-8.05-2,8.05a1,1,0,0,1-1.09.8h-.6c-.89,0-1.24-.39-1-1.16L735,52a1,1,0,0,1,1.07-.79h.83C737.54,51.24,737.81,51.51,737.67,52.06Z"/><path d="M748.57,61l-4.35,16.74a1,1,0,0,1-1.08.79h-1.06c-.67,0-.94-.28-.8-.83L745.68,61a.9.9,0,0,1,1-.72h1.2a1,1,0,0,1,.63.16A.69.69,0,0,1,748.57,61Zm-.66-6.24h.33a1.51,1.51,0,0,1,1.11.54,1.79,1.79,0,0,1,.51,1.25,1.59,1.59,0,0,1-.53,1.21,1.84,1.84,0,0,1-1.31.5h-.29a1.47,1.47,0,0,1-1.1-.52,1.78,1.78,0,0,1,0-2.45A1.69,1.69,0,0,1,747.91,54.79Z"/><path d="M764.67,52.12l-6.85,23.75A11.91,11.91,0,0,0,760,73.44c.25-.39.55-.47.89-.25l.86.58q.59.39.18.9a18.73,18.73,0,0,1-2.72,2.68,7.39,7.39,0,0,1-3,1.35.51.51,0,0,1-.67-.39l-.7-2A8.69,8.69,0,0,1,753.31,78a2.45,2.45,0,0,1-1.35.67h-.08c-.46,0-1.09-.39-1.86-1.19a3.8,3.8,0,0,1-1.2-2.55,22.11,22.11,0,0,1,1.59-7.32q1.64-4.5,3-5.89A4.71,4.71,0,0,1,757,60.34a4.29,4.29,0,0,1,2.26.65l2.42-9a1.08,1.08,0,0,1,1.17-.79h1C764.55,51.24,764.83,51.53,764.67,52.12Zm-6,10.88a2.65,2.65,0,0,0-3-.14c-.81.57-1.57,1.85-2.31,3.83a40.67,40.67,0,0,0-1.59,5.22,5.84,5.84,0,0,0-.15,3.11c.24.58.64.62,1.19.14a8.92,8.92,0,0,0,3-3.94A54.77,54.77,0,0,0,758.69,63Z"/><path d="M766.54,74.81A16.27,16.27,0,0,1,764,82.92c-.6,1-1.2,1.54-1.81,1.54-.28,0-.43-.15-.44-.46a5.79,5.79,0,0,1,.53-1.81,13.35,13.35,0,0,0,.83-3,39.64,39.64,0,0,0,.41-4c0-.41.26-.68.76-.81l1.44-.32C766.26,74,766.54,74.24,766.54,74.81Z"/><path d="M786.15,54.72l-1.42,5.55h1.87q.79,0,.54.78l-.24.92a1,1,0,0,1-.95.78h-1.87l-3.82,15a1,1,0,0,1-1.08.8h-.67a.91.91,0,0,1-.81-.33,1,1,0,0,1-.14-.83l3.74-14.65h-1.44c-.48,0-.63-.28-.45-.85l.28-.95a.81.81,0,0,1,.79-.68h1.44l1.45-5.59a1,1,0,0,1,1.07-.79h.92C786,53.89,786.29,54.17,786.15,54.72Z"/><path d="M787,78.56h-1.08a.43.43,0,0,1-.4-.29.85.85,0,0,1,0-.65L792.08,52a1.09,1.09,0,0,1,1.16-.79h.87q1,0,.84.87L791.18,66l-.95,3.77,3.37-5.62a11,11,0,0,1,2.47-2.93,3.79,3.79,0,0,1,2.18-1H799a1.73,1.73,0,0,1,.89.2,1.47,1.47,0,0,1,.53.88,3.85,3.85,0,0,1-.21,2l-4,14.68a.55.55,0,0,1-.58.51h-1.89q-.54,0-.3-.87l3.81-12.35a6.7,6.7,0,0,0,.26-1.28c0-.2-.08-.31-.24-.31a1,1,0,0,0-.58.33,8.74,8.74,0,0,0-.92,1.2l-1.61,2.57c-.65,1-1.21,1.93-1.71,2.7l-2.07,3.28c-.9,1.42-1.71,2.84-2.45,4.26A1.07,1.07,0,0,1,787,78.56Z"/><path d="M811.37,61c.09-.57.37-.85.82-.85l.83,0c.88,0,1.2.45,1,1.3l-4.33,14.37a10.35,10.35,0,0,0,2.23-2.38c.27-.39.57-.48.9-.25l.88.58a.57.57,0,0,1,.18.9,19,19,0,0,1-2.72,2.7,7.37,7.37,0,0,1-2.94,1.36.54.54,0,0,1-.65-.39l-.67-2a9.11,9.11,0,0,1-1.74,1.85,2.29,2.29,0,0,1-1.11.5H804a1.87,1.87,0,0,1-.89-.41,7.19,7.19,0,0,1-1.17-1.08,4.27,4.27,0,0,1-.83-1.46,7.55,7.55,0,0,1,0-2.88A31.36,31.36,0,0,1,802.74,67a15.1,15.1,0,0,1,2.77-5.22,4.64,4.64,0,0,1,3.57-1.45A4.36,4.36,0,0,1,811.37,61Zm-.55,1.89q-1.92-1-3.12,0a10.35,10.35,0,0,0-2.35,4.21,35.07,35.07,0,0,0-1.5,5,11.56,11.56,0,0,0-.29,2.46,1.11,1.11,0,0,0,.64.95c.38.2,1-.19,1.92-1.18a13.07,13.07,0,0,0,2.35-4.07C809.15,68.51,809.93,66.07,810.82,62.89Z"/><path d="M823.22,54.72l-1.42,5.55h1.87c.53,0,.71.26.55.78L824,62a1,1,0,0,1-1,.78h-1.87l-3.81,15a1,1,0,0,1-1.09.8h-.67a.93.93,0,0,1-.81-.33,1,1,0,0,1-.13-.83l3.74-14.65h-1.44c-.48,0-.64-.28-.46-.85l.28-.95a.81.81,0,0,1,.79-.68H819l1.45-5.59a1,1,0,0,1,1.07-.79h.92C823.1,53.89,823.36,54.17,823.22,54.72Z"/><path d="M840.69,62.28c.38.41.43.78.14,1.12l-.6.69c-.41.46-.77.51-1.09.17l-.39-.43c-.86-.88-1.55-1.26-2-1.15-.87.17-1.78,1.09-2.74,2.77a18.84,18.84,0,0,0-2.07,5.2,11.42,11.42,0,0,0-.31,4.48,1.24,1.24,0,0,0,.67.8,1.43,1.43,0,0,0,.91.29,8.85,8.85,0,0,0,2.41-2.16c.27-.37.66-.39,1.16-.07l.55.35q1.14.68-1.95,3.18a6.33,6.33,0,0,1-2,1.31,3.43,3.43,0,0,1-2.18-.54,3.84,3.84,0,0,1-1.81-1.46q-1-2.19,0-6.25a19.75,19.75,0,0,1,2.39-6.19,14.34,14.34,0,0,1,2.77-3.26,3.85,3.85,0,0,1,2.92-1A5.52,5.52,0,0,1,840.69,62.28Z"/><path d="M839.47,73.33a21,21,0,0,1,2.42-9.12c1.51-2.87,3.42-4.28,5.75-4.23a3.36,3.36,0,0,1,2.82,1.81,7.13,7.13,0,0,1,.62,4,19.66,19.66,0,0,1-2.93,9.86c-1.28,2.21-3,3.28-5.17,3.2a3.18,3.18,0,0,1-2.13-1Q839.37,76.44,839.47,73.33Zm6.17,1.44a17,17,0,0,0,2.55-8.67,10,10,0,0,0-.21-2.85,1,1,0,0,0-1.05-.74,1.84,1.84,0,0,0-1.46.76,9.44,9.44,0,0,0-1.29,2.16A18.23,18.23,0,0,0,842.46,73q-.06,3.26,1.11,3.36C844.26,76.35,845,75.83,845.64,74.77Z"/><path d="M858.53,60.05h.54a3.32,3.32,0,0,1,2.27.92A7.22,7.22,0,0,1,863,63.25a.77.77,0,0,1-.25,1.13l-1.09.6c-.5.36-.86.3-1.07-.19l-.29-.67a8.16,8.16,0,0,0-.41-.86,2.45,2.45,0,0,0-.56-.57,1.86,1.86,0,0,0-.9-.41,3.05,3.05,0,0,0-1.71,1.2,4.5,4.5,0,0,0-.8,2.87,1.35,1.35,0,0,0,.38,1.11,3.38,3.38,0,0,0,1.37.52l1,.21c1.46.32,2.19,1.54,2.19,3.67a9.2,9.2,0,0,1-1.4,4.37,6.24,6.24,0,0,1-1.83,2,4.34,4.34,0,0,1-2.52.81h-.26a3.5,3.5,0,0,1-2.44-1,6,6,0,0,1-1.52-2q-.43-1,0-1.5l.79-.66a1,1,0,0,1,.81-.34c.28,0,.48.23.58.64a4.16,4.16,0,0,0,.88,1.45,2.06,2.06,0,0,0,1.34.88,2.84,2.84,0,0,0,1.86-1.28,4.23,4.23,0,0,0,.79-2.54,3.83,3.83,0,0,0-.27-1.83,2,2,0,0,0-1.23-.62l-.8-.17a3.2,3.2,0,0,1-1.94-1.17,4,4,0,0,1-.57-2.25,7.14,7.14,0,0,1,1.67-4.49A4.7,4.7,0,0,1,858.53,60.05Z"/><path d="M871.88,54.72l-1.42,5.55h1.87q.79,0,.54.78l-.25.92a1,1,0,0,1-.94.78h-1.87l-3.82,15a1,1,0,0,1-1.08.8h-.67a.94.94,0,0,1-.82-.33,1,1,0,0,1-.13-.83L867,62.75h-1.44c-.48,0-.63-.28-.46-.85l.29-.95a.81.81,0,0,1,.79-.68h1.44l1.44-5.59a1,1,0,0,1,1.08-.79h.92C871.75,53.89,872,54.17,871.88,54.72Z"/><path d="M881.16,69l-3.29,5.52a11.06,11.06,0,0,1-2.28,3,3.38,3.38,0,0,1-2,1h-.22a1.91,1.91,0,0,1-1.71-1.23,4.38,4.38,0,0,1-.08-3.17l3.68-13.39a.54.54,0,0,1,.56-.5h1.88c.37,0,.46.29.28.87l-3.64,12.48a2.56,2.56,0,0,0-.07,1.44c.27.38.84-.16,1.69-1.62l7.38-12.67a1,1,0,0,1,.88-.5h1.36c.15,0,.27.1.37.29a.89.89,0,0,1,0,.65l-4.49,16.41c-.12.63-.37.94-.74.94h-1.47c-.58,0-.77-.35-.58-1Z"/><path d="M890.08,61.21a1.88,1.88,0,0,1,.33-.81.61.61,0,0,1,.39-.13h1.48c.6,0,.79.35.58,1l-2.71,9.07,3.75-6.19a10.28,10.28,0,0,1,2.29-2.86,3.62,3.62,0,0,1,2.07-1.06H899a1.71,1.71,0,0,1,.86.19,1.41,1.41,0,0,1,.51.85,3.57,3.57,0,0,1-.2,1.95l-2.2,8.09,4.17-7.19a9.47,9.47,0,0,1,2.41-2.92,4,4,0,0,1,2.18-1h.76a1.77,1.77,0,0,1,.9.2,1.47,1.47,0,0,1,.52.87,3.92,3.92,0,0,1-.2,2l-4,14.68c-.08.34-.27.52-.57.52h-1.87c-.35,0-.44-.29-.28-.87l3.78-12.35a5.73,5.73,0,0,0,.28-1.26c0-.2-.08-.31-.24-.31a.88.88,0,0,0-.57.33,7.65,7.65,0,0,0-.89,1.2c-.44.67-.94,1.43-1.48,2.3L900.68,71c-.87,1.37-1.47,2.3-1.79,2.76a39,39,0,0,0-2.78,4.21c-.13.41-.31.62-.54.62H894q-.48,0-.24-.87l3.78-12.35a5.73,5.73,0,0,0,.28-1.26c0-.2-.08-.31-.24-.31a.94.94,0,0,0-.59.32,8,8,0,0,0-.93,1.18q-.67,1-1.65,2.55c-.64,1-1.46,2.33-2.44,3.86-1.85,2.83-3.17,4.95-3.94,6.37a.92.92,0,0,1-.86.51h-1c-.14,0-.26-.1-.36-.29a.85.85,0,0,1,0-.65Z"/><path d="M911.93,73.55c-.33,1.78,0,2.76,1,3a9.56,9.56,0,0,0,3.25-2.72.55.55,0,0,1,.72-.07l.68.42c.31.25.42.52.31.8a9.23,9.23,0,0,1-2.53,2.79q-1.85,1.47-3,1.26a3.62,3.62,0,0,1-3-2.7q-.51-2.73.9-7.46a16.05,16.05,0,0,1,3.93-7.14,5.4,5.4,0,0,1,2.19-1.2,4,4,0,0,1,2.77.22c1,.41,1.46,1.58,1.45,3.51a7.88,7.88,0,0,1-2.54,5.48A16,16,0,0,1,911.93,73.55Zm.44-2.31a12.13,12.13,0,0,0,2.87-1.68,8.09,8.09,0,0,0,2-2.36,5.75,5.75,0,0,0,.78-2.85c0-1-.28-1.46-.84-1.46q-1.65,0-2.88,2.7A29.35,29.35,0,0,0,912.37,71.24Z"/><path d="M933.76,61,929.4,77.77a1,1,0,0,1-1.08.79h-1.06c-.67,0-.93-.28-.79-.83L930.86,61a.91.91,0,0,1,1-.72h1.19a.92.92,0,0,1,.63.16C933.8,60.54,933.82,60.74,933.76,61Zm-.66-6.24h.33a1.51,1.51,0,0,1,1.11.54,1.79,1.79,0,0,1,.51,1.25,1.63,1.63,0,0,1-.53,1.21,1.85,1.85,0,0,1-1.32.5h-.28a1.45,1.45,0,0,1-1.1-.52,1.74,1.74,0,0,1-.48-1.22,1.7,1.7,0,0,1,.5-1.23A1.66,1.66,0,0,1,933.1,54.79Z"/><path d="M940.92,60.05h.54a3.32,3.32,0,0,1,2.27.92,7.37,7.37,0,0,1,1.69,2.28.78.78,0,0,1-.25,1.13l-1.09.6c-.5.36-.86.3-1.07-.19l-.29-.67a8.16,8.16,0,0,0-.41-.86,2.45,2.45,0,0,0-.56-.57,1.86,1.86,0,0,0-.9-.41,3.05,3.05,0,0,0-1.71,1.2,4.5,4.5,0,0,0-.81,2.87,1.36,1.36,0,0,0,.39,1.11,3.32,3.32,0,0,0,1.37.52l1,.21c1.47.32,2.2,1.54,2.2,3.67a9.11,9.11,0,0,1-1.41,4.37,6,6,0,0,1-1.83,2,4.29,4.29,0,0,1-2.51.81h-.26a3.54,3.54,0,0,1-2.45-1,6.15,6.15,0,0,1-1.51-2q-.44-1,0-1.5l.79-.66a1,1,0,0,1,.8-.34c.29,0,.49.23.59.64a4.16,4.16,0,0,0,.88,1.45,2.06,2.06,0,0,0,1.34.88,2.84,2.84,0,0,0,1.86-1.28,4.23,4.23,0,0,0,.79-2.54,3.83,3.83,0,0,0-.27-1.83,2,2,0,0,0-1.23-.62l-.8-.17a3.2,3.2,0,0,1-1.94-1.17,4,4,0,0,1-.57-2.25,7.14,7.14,0,0,1,1.67-4.49A4.7,4.7,0,0,1,940.92,60.05Z"/><path d="M967.84,52.12,961,75.87a12.21,12.21,0,0,0,2.16-2.43c.26-.39.56-.47.9-.25l.86.58q.58.39.18.9a19.25,19.25,0,0,1-2.72,2.68,7.46,7.46,0,0,1-3,1.35.51.51,0,0,1-.67-.39l-.7-2A8.42,8.42,0,0,1,956.47,78a2.39,2.39,0,0,1-1.35.67h-.07c-.47,0-1.09-.39-1.86-1.19a3.8,3.8,0,0,1-1.2-2.55,22.11,22.11,0,0,1,1.59-7.32c1.08-3,2.1-5,3-5.89a4.69,4.69,0,0,1,3.51-1.37,4.32,4.32,0,0,1,2.26.65l2.41-9a1.1,1.1,0,0,1,1.18-.79h1C967.72,51.24,968,51.53,967.84,52.12Zm-6,10.88a2.63,2.63,0,0,0-3-.14c-.81.57-1.57,1.85-2.31,3.83a42.57,42.57,0,0,0-1.6,5.22,5.91,5.91,0,0,0-.14,3.11c.24.58.64.62,1.19.14a9.07,9.07,0,0,0,3-3.94A53.82,53.82,0,0,0,961.85,63Z"/><path d="M976.37,61c.1-.57.37-.85.83-.85l.83,0c.87,0,1.2.45,1,1.3l-4.32,14.37a10.57,10.57,0,0,0,2.23-2.38c.27-.39.57-.48.9-.25l.88.58a.56.56,0,0,1,.17.9,18.48,18.48,0,0,1-2.72,2.7,7.25,7.25,0,0,1-2.94,1.36.55.55,0,0,1-.65-.39l-.67-2a9.11,9.11,0,0,1-1.74,1.85,2.3,2.3,0,0,1-1.1.5H969a1.87,1.87,0,0,1-.89-.41,6.8,6.8,0,0,1-1.17-1.08,4.14,4.14,0,0,1-.84-1.46,7.41,7.41,0,0,1,0-2.88A31.17,31.17,0,0,1,967.74,67a15.09,15.09,0,0,1,2.78-5.22,4.64,4.64,0,0,1,3.57-1.45A4.33,4.33,0,0,1,976.37,61Zm-.54,1.89q-1.92-1-3.12,0a10.34,10.34,0,0,0-2.36,4.21,34.77,34.77,0,0,0-1.49,5,10.91,10.91,0,0,0-.29,2.46,1.08,1.08,0,0,0,.63.95c.39.2,1-.19,1.92-1.18a13.07,13.07,0,0,0,2.36-4.07C974.15,68.51,974.94,66.07,975.83,62.89Z"/><path d="M983.79,70.43l3.74-6.22A11.33,11.33,0,0,1,990,61.26a3.77,3.77,0,0,1,2.16-1h.75a1.78,1.78,0,0,1,.91.2,1.47,1.47,0,0,1,.53.88,3.85,3.85,0,0,1-.21,2l-4,14.68a.56.56,0,0,1-.58.51h-1.88c-.35,0-.45-.29-.28-.87l3.77-12.35a6.07,6.07,0,0,0,.29-1.28c0-.2-.09-.31-.25-.31a1,1,0,0,0-.59.33,7.19,7.19,0,0,0-.92,1.19q-.69,1-1.65,2.55c-.65,1.05-1.46,2.34-2.45,3.88q-2.8,4.24-4,6.37a1,1,0,0,1-.9.49h-1c-.15,0-.27-.1-.38-.29a.85.85,0,0,1,0-.65l4.35-16.41c.13-.63.38-.94.75-.94h1.54c.59,0,.79.36.61,1.07Z"/><path d="M1010.55,52.12l-6.84,23.75a12.21,12.21,0,0,0,2.16-2.43c.26-.39.56-.47.9-.25l.86.58c.38.26.44.56.17.9a19.24,19.24,0,0,1-2.71,2.68,7.5,7.5,0,0,1-3,1.35.5.5,0,0,1-.66-.39l-.71-2A8.69,8.69,0,0,1,999.19,78a2.39,2.39,0,0,1-1.35.67h-.07c-.47,0-1.09-.39-1.87-1.19a3.74,3.74,0,0,1-1.19-2.55,21.61,21.61,0,0,1,1.59-7.32q1.62-4.5,3-5.89a4.69,4.69,0,0,1,3.5-1.37,4.35,4.35,0,0,1,2.27.65l2.41-9a1.1,1.1,0,0,1,1.18-.79h1C1010.43,51.24,1010.72,51.53,1010.55,52.12Zm-6,10.88a2.65,2.65,0,0,0-3-.14,8.3,8.3,0,0,0-2.3,3.83,40.89,40.89,0,0,0-1.6,5.22,5.8,5.8,0,0,0-.14,3.11c.24.58.63.62,1.18.14a9,9,0,0,0,3-3.94A56.11,56.11,0,0,0,1004.57,63Z"/><path d="M1021.42,60.27h1.36a.42.42,0,0,1,.36.28.85.85,0,0,1,0,.65l-5.29,19.14q-.85,3.33-2.83,4.4a9,9,0,0,1-1.16.58c-.48.21-1.18,0-2.11-.54l-3.67-2.08a.76.76,0,0,1-.51-.64.83.83,0,0,1,.21-.66l.55-.76a.94.94,0,0,1,1.19-.3l4,2.47c.53.28.93,0,1.2-1l3.41-12.36-.82,1.58-2.11,3.58a11,11,0,0,1-2.31,3,3.52,3.52,0,0,1-2.09,1h-.21a1.67,1.67,0,0,1-1.26-.55,3.9,3.9,0,0,1-.56-3.85l3.68-13.39c.09-.33.28-.5.56-.5h1.88c.37,0,.46.29.28.87l-3.64,12.48c-.19.75-.21,1.21-.07,1.4.27.41.88-.09,1.83-1.51s3.36-5.67,7.24-12.74A1,1,0,0,1,1021.42,60.27Z"/><path d="M1024,75.16h.41a1.65,1.65,0,0,1,1.24.62,2.09,2.09,0,0,1,.55,1.46,2,2,0,0,1-.57,1.42,2,2,0,0,1-1.48.58h-.36a1.59,1.59,0,0,1-1.24-.6,2.13,2.13,0,0,1-.51-1.44,2,2,0,0,1,.55-1.44A1.84,1.84,0,0,1,1024,75.16Zm.48-3L1028.77,53c.1-.53.45-.79,1.08-.79H1032c.69,0,1,.28.79.83l-6.48,19.19a1,1,0,0,1-1,.79h-.21C1024.55,73,1024.33,72.7,1024.45,72.14Z"/><path d="M1378,339.18a3.4,3.4,0,0,0,1,2.74v.21a4.55,4.55,0,0,0,.39,1.55,6.31,6.31,0,0,1,.39,2.25,2,2,0,0,0,.56,1.69,3.24,3.24,0,0,1-.35.42.61.61,0,0,0-.21.42c0,.14,0,.22.17.25a.21.21,0,0,1,.18.24l-.07.14a2.85,2.85,0,0,1-.07,1.06,3.22,3.22,0,0,0-.14,1,2.23,2.23,0,0,0,.07.67l-.57,1.19a2.83,2.83,0,0,1,.07.71,1.76,1.76,0,0,1-1.26,1.75,4.79,4.79,0,0,1,.07.92,5,5,0,0,1-.18,1.3,8.71,8.71,0,0,0-.24,1.37,1.18,1.18,0,0,0-.78,1.19,2.06,2.06,0,0,0-1,.74,7.1,7.1,0,0,1-.73.88,2.5,2.5,0,0,1-.57.46,1.45,1.45,0,0,0-.42.35,1.94,1.94,0,0,0-.35.6,2.75,2.75,0,0,1-.63,1c-.28.19-.42.37-.42.53a1.63,1.63,0,0,1-.43.77,3.9,3.9,0,0,1-1.44,1,5,5,0,0,0-1.72,1.23h-.21l-.78.28a2.44,2.44,0,0,0-.42.63c-.23.33-.77.42-1.61.28-.29.14-.6.32-1,.53a2.17,2.17,0,0,1-1.13.32q-.6,0-.6.24c0,.17-.15.25-.45.25a1.26,1.26,0,0,0-.67.14h-.07l-1-.28a3.36,3.36,0,0,1-1.26.28l-1.76-.42a1,1,0,0,0-.42.14,1.06,1.06,0,0,0-.7-.42,1.63,1.63,0,0,1-.71-.28,1.5,1.5,0,0,0-.56.42h-.14l-1.34.07c-.51,0-.82-.17-.91-.49a2,2,0,0,1-1.72-.53,2.65,2.65,0,0,1-1.16-1.37h-.21l-.85-.28c-.14-.19-.28-.37-.42-.53a1.24,1.24,0,0,1-.28-.6,1.77,1.77,0,0,1-.92-.53,1.36,1.36,0,0,0-1-.38,1.24,1.24,0,0,0-.46-.64c-.21-.14-.41-.28-.59-.42a6.05,6.05,0,0,0-1.69-2.6c-.89-2.39-1.47-3.87-1.72-4.43a4.7,4.7,0,0,1-.39-1l.21-.71-.14-.35c0-.09,0-.14.07-.14s.07-.05.07-.14l-.28-1.62.14-1.05-.35-.78.49-2v-.85a1.58,1.58,0,0,1,.14-.67,5.31,5.31,0,0,0,.28-.91,6.24,6.24,0,0,0,.14-1.48,5.86,5.86,0,0,1,.21-1.61,1.92,1.92,0,0,1,.53-1c.21-.16.27-.53.18-1.09a7.22,7.22,0,0,0,1.16-2.14,8.07,8.07,0,0,0,.31-1.16.9.9,0,0,1,.21-.64.55.55,0,0,0,.32-.56.47.47,0,0,1,.18-.49,1.66,1.66,0,0,0,.42-.42,3.91,3.91,0,0,0,.42-.78,5.81,5.81,0,0,1,.56-1l.28-.14c.14-.42,1-1.2,2.6-2.32a.73.73,0,0,0,.25-.42.57.57,0,0,1,.18-.35,7.24,7.24,0,0,0,1.12-.5l.14-.28,1.13-.56.07-.28a.56.56,0,0,1,.35,0,2.29,2.29,0,0,0,1-.28,14.17,14.17,0,0,0,1.72-.91,3.62,3.62,0,0,1,1.86-.6c.59,0,.94-.07,1.06-.21a1,1,0,0,1,.56-.32,2.13,2.13,0,0,1,.88,0,.87.87,0,0,0,.84-.35h.07a.64.64,0,0,1,.57.42,3.51,3.51,0,0,1,1.54-.42c.47,0,.71,0,.71.1s0,.13.14.18a.34.34,0,0,0,.28,0,.91.91,0,0,1,.42-.07c.19,0,.46.17.81.52a1.91,1.91,0,0,0,1.44.53l1.34-.07a2.45,2.45,0,0,1,1.33.32,2.67,2.67,0,0,0,1.13.39.24.24,0,0,1,.14.24.43.43,0,0,0,.14.32h.28a2.19,2.19,0,0,1,.46.45,1.29,1.29,0,0,0,.38.39l.71.42a3.6,3.6,0,0,1,.49.46,2.19,2.19,0,0,0,.56.46,1.33,1.33,0,0,1,.39.42,3.28,3.28,0,0,0,.39.53,2.06,2.06,0,0,0,.42.38,1.14,1.14,0,0,1,.35.46,1.53,1.53,0,0,1,.14.6,1.41,1.41,0,0,0,.14.6q.13.32.21.24s.07.06.07.32a2.27,2.27,0,0,0,.18.84,9.14,9.14,0,0,0,.45,1c.19.35.36.69.5,1s.28.51.42.56Zm-30.38,7-.35,3.59a2.59,2.59,0,0,0,.11.81,4.67,4.67,0,0,1,.17,1,11.65,11.65,0,0,1,0,1.62,13.59,13.59,0,0,0,.1,2.14,6.15,6.15,0,0,0,.85,2.39,6.49,6.49,0,0,1,.84,2.67c.38.52.74,1.06,1.09,1.62s.71,1.1,1.09,1.62a5.63,5.63,0,0,0,3.09,2.39,3,3,0,0,0,2.89,1.41c.42,0,.65,0,.7.14h1l3.31.35a1.91,1.91,0,0,0,.81-.18,1.21,1.21,0,0,1,.74-.1,1.81,1.81,0,0,1,1-.53,5.59,5.59,0,0,0,1.2-.25c.09,0,.13-.15.1-.31a.26.26,0,0,1,.18-.32,2,2,0,0,1,.63-.07,1.66,1.66,0,0,1,1.13-1.05,4.34,4.34,0,0,0,1.51-.88l1.3-1.16a5.73,5.73,0,0,0,1.16-1.52,6.25,6.25,0,0,1,.88-1.3l.77-.7a.53.53,0,0,0,.14-.39c0-.16.15-.31.46-.45a1.31,1.31,0,0,0,.56-.39.44.44,0,0,0,.07-.32.3.3,0,0,1,.11-.28c.28-.09.41-.24.38-.45s0-.45,0-.71a.87.87,0,0,1,.24-.63.53.53,0,0,0,0-.67,1.3,1.3,0,0,0,.56-.95,4.37,4.37,0,0,1,.25-1.05,1.86,1.86,0,0,1,.42-.71,1.9,1.9,0,0,0,.39-.59c-.1-.1-.14-.38-.14-.85v-.7a3.33,3.33,0,0,0,.28-3.44,5.7,5.7,0,0,1-.42-2.36c0-1-.15-1.56-.43-1.79s-.42-.43-.42-.57v-.49l-.28-1.54a1.09,1.09,0,0,0-.32-.71,1.86,1.86,0,0,1-.42-.7,1.39,1.39,0,0,1,0-.7,1.84,1.84,0,0,0-.14-.92,1.56,1.56,0,0,0-.53-.77c-.21-.14-.32-.54-.32-1.2a1.32,1.32,0,0,1-.91-1.12,1.72,1.72,0,0,1-1.13-.88,1.74,1.74,0,0,0-.66-.81c-.22-.09-.33-.13-.36-.11s-.08,0-.17,0h-.07l-.14-.35a1.51,1.51,0,0,0-.85-.28l-1.19.28a1.85,1.85,0,0,1-1.2-.49,1.66,1.66,0,0,0-1-.5,1.56,1.56,0,0,0-.85.22,1.19,1.19,0,0,1-.28-.46.65.65,0,0,0-.28-.39,1.65,1.65,0,0,1-.84-.28,3.91,3.91,0,0,0-.78-.42l-.28.07-1.4-.28a.51.51,0,0,0-.32.17.6.6,0,0,1-.53.14,1.85,1.85,0,0,0-.63,0,2.54,2.54,0,0,0-.49.17,2.79,2.79,0,0,1-.49.18,1.68,1.68,0,0,1-.71,0,1.29,1.29,0,0,0-.74.07,1.43,1.43,0,0,0-.49.35.4.4,0,0,1-.52.07,1,1,0,0,0-.6.46c-.12.21-.67.32-1.65.32a5.75,5.75,0,0,1-2.89,2.39,1.55,1.55,0,0,1-.56.88,4.42,4.42,0,0,0-.77.73,8.47,8.47,0,0,0-1.06,2,7,7,0,0,0-.63,2.18l.14.57a1.68,1.68,0,0,1-.28.91,3.49,3.49,0,0,0-.42.81,1.36,1.36,0,0,0-.07.77,1.82,1.82,0,0,1,0,.77,3.78,3.78,0,0,1-.32.81A3,3,0,0,0,1347.62,346.14Z"/><path d="M1391.92,355l-.42.92a5,5,0,0,1,.14.91l-.14,1.62a.4.4,0,0,1,.14.28l-.14.28.21,1a10.85,10.85,0,0,1,.32,2.82c0,.93,0,1.89,0,2.88l.14,1.05-.14.85.28,1.4a1.76,1.76,0,0,1-.07.57.64.64,0,0,0,.07.49l-.14,1.19.14.78-.28,1.05.14.85-.14.91.42,1.62a2,2,0,0,0,1.2-.36,2.26,2.26,0,0,1,1.33-.35.75.75,0,0,1,.85.85,1.44,1.44,0,0,1-.78,1.3,12.84,12.84,0,0,1-1.26.67,2.92,2.92,0,0,1-.88.24c-.26,0-.55.07-.88.14a2.85,2.85,0,0,0-.63.18,2.9,2.9,0,0,1-.81.07,6.89,6.89,0,0,0-1.79.31,2.79,2.79,0,0,0-1.48.81c-.1.05-.17.06-.21,0a.51.51,0,0,0-.25,0,1.8,1.8,0,0,0-.67.32,1.57,1.57,0,0,1-1.05.25h-.21c-.52-.24-.77-.89-.77-2,.14,0,.23,0,.28-.18a.57.57,0,0,1,.24-.35.59.59,0,0,1,.39-.07,2.92,2.92,0,0,0,1-.28,15,15,0,0,1,2.07-.6,3.17,3.17,0,0,0,.21-1.12,3.93,3.93,0,0,0-.14-1.09,3.07,3.07,0,0,1-.07-1.09v-2.46a10.75,10.75,0,0,1,.07-1.76l-.21-.64.14-.42-.28-1.12a22,22,0,0,1-.14-2.46v-2.46a11.12,11.12,0,0,0-.21-2.18c-.14-.71-.26-1.43-.35-2.18V357l-.28-2.11.07-2.32-.07-2V349a2.35,2.35,0,0,0,.14-.63l-.28-.7a.92.92,0,0,1,.14-.42,18.24,18.24,0,0,0-.14-2.18l-.28-1.13.14-.42-.36-4.92.29-2.6-.14-.92.21-.84-.29-2.53.22-3.31-.29-3c-.09-1.13-.14-2.19-.14-3.2s-.32-1.51-1-1.51l-1.41.14a1.35,1.35,0,0,1-1.19-.63,2.25,2.25,0,0,1-.42-.85l.07-.28c.14-.42.5-.63,1.09-.63a12.35,12.35,0,0,0,1.65-.11c.51-.07,1.24-.22,2.18-.45a9.69,9.69,0,0,1,2.28-.36c.59,0,1,.19,1.09.57a1.94,1.94,0,0,1-.49,1.26,1.93,1.93,0,0,0-.56,1l.14,2-.21,1.61.28,1.9c0,.24.06.39.18.46s.17.24.17.53l-.14,1.33.14.42-.14.28a8.19,8.19,0,0,1,.32,2.57,6.77,6.77,0,0,0,.31,2.43,9.71,9.71,0,0,0-.14,2.25l-.14,2.32a14.58,14.58,0,0,0,.11,1.72c.07.59.15,1.3.24,2.14l.21,3c.1,1.12.19,2.27.29,3.44a2.76,2.76,0,0,0,.87.07c.5,0,.86-.3,1.09-.91a.67.67,0,0,0,.57-.28c.32-.47.56-.63.7-.49s.28.08.42-.18a1,1,0,0,1,.39-.46c.11,0,.2-.06.24,0a.61.61,0,0,0,.22,0,.28.28,0,0,0,.21-.07c0-.23.67-.47,1.9-.7s1.89-.35,2-.35a3.9,3.9,0,0,1,.64.07l1.37.21a1.57,1.57,0,0,1,1.19.56,6.59,6.59,0,0,0,.78,1l1.3,1.37a10.77,10.77,0,0,1,1.4,1.86.88.88,0,0,1,.32.39.85.85,0,0,0,.32.38,1,1,0,0,0-.07.43l.56,2.25a2,2,0,0,0,.14.77,3,3,0,0,1,.18.81,8.16,8.16,0,0,0,.1.88l.28,1a7.08,7.08,0,0,1,.14,1.48v1.4c0,.1,0,.14-.07.14s-.07.05-.07.15l.42,2-.28,1.76.28,2.46a19,19,0,0,1-.14,2.39,11.24,11.24,0,0,0,0,2.46,3.66,3.66,0,0,0-.42,1.76v1.41a2.74,2.74,0,0,0,.14.84,3.2,3.2,0,0,0,1.06.14L1412,375a1,1,0,0,0,.53.46c.25.11.38.27.38.45,0,.57-.21.85-.63.85a3.65,3.65,0,0,0-2.6,1.19,2.37,2.37,0,0,0-.63-.07l-1.9.35h-.49c-.29,0-.44.06-.46.18s-.22.18-.6.18l-1.76.21-.56-.07c-.33,0-.52.1-.56.31s-.21.32-.49.32l-.29-.07a2.75,2.75,0,0,1-.28-1.2,1.34,1.34,0,0,1,.25-.91,1.5,1.5,0,0,1,.56-.42,7,7,0,0,1,.71-.28,1.15,1.15,0,0,0,.59-.5l.35-1.75a2.51,2.51,0,0,0,.07-.64l-.21-1.89.14-1.41-.14-1.2.28-1.4-.14-1.27.14-2.74a9.33,9.33,0,0,0-.31-2.39,9.65,9.65,0,0,1-.32-2.46l.14-1s-.09-.63-.28-1.75l.14-.21c-.28-.33-.41-.53-.38-.6a3,3,0,0,0,0-.57,2.19,2.19,0,0,0-.18-.87,6.18,6.18,0,0,1-.28-.92,9.89,9.89,0,0,1-.17-1.12,2.86,2.86,0,0,0-.53-1.44,3,3,0,0,1-.49-.74,2.34,2.34,0,0,0-.32-.57,1.55,1.55,0,0,0-.53-.45,2.94,2.94,0,0,1-.66-.53,2.65,2.65,0,0,1-1.52.32c-.63,0-1.09,0-1.37,0s-.43.05-.45.14a1.71,1.71,0,0,1-.21.39,2.59,2.59,0,0,1-.5.49,2.15,2.15,0,0,0-.52.6,1.87,1.87,0,0,0-1.83.7,6.28,6.28,0,0,1-1.34,1.76c-.14.42-.31.64-.53.67s-.27.15-.17.38l-.07.22.28.84Z"/><path d="M1417.09,327.51l-.07-.63a3.51,3.51,0,0,1,.74-1.66,5.19,5.19,0,0,0,.88-1.93,9,9,0,0,0,1.33-1.12,1.62,1.62,0,0,1,.88-.64,5.76,5.76,0,0,0,.88-.28c.24-.09.35-.16.35-.21s.07-.09.21-.14a.92.92,0,0,1,.43,0,1.49,1.49,0,0,0,.7-.14,5.25,5.25,0,0,0,1-.49,2.08,2.08,0,0,1,1.09-.31c.37,0,.56.07.56.21a9.66,9.66,0,0,1,3.17.7l.63.49a8.21,8.21,0,0,1,1.9,1.51c.42.5.77.92,1,1.27s.54.66.78.91a1.36,1.36,0,0,1,.38.78,1.32,1.32,0,0,0,.25.66l.21.14a9.42,9.42,0,0,1,.74,2.11,6.11,6.11,0,0,0,.88,2.11,3,3,0,0,0-.14,1,3.36,3.36,0,0,0,.24,1.19,4.57,4.57,0,0,1,.25,1.66,8.21,8.21,0,0,1-.46,2.46,13.77,13.77,0,0,0-.53,2,1.68,1.68,0,0,1-.31.84,2.54,2.54,0,0,1-.5.49,1.55,1.55,0,0,0-.38.39.56.56,0,0,0-.11.42.59.59,0,0,1-.14.46,1.57,1.57,0,0,1-.49.42,1.85,1.85,0,0,0-.56.49,3,3,0,0,0-.39.6,2.71,2.71,0,0,1-.49.63l-.07.35a.4.4,0,0,1-.28,0c-.1,0-.19,0-.28.17a4.51,4.51,0,0,1-.88.74c-.5.35-.86.51-1.09.46a3.09,3.09,0,0,1-.46.49,1.44,1.44,0,0,0-.39.56,1.22,1.22,0,0,0-.91.21c-.24.19-.49.38-.77.57h-.22a4.76,4.76,0,0,0-1.23.24c-.53.17-.8.37-.8.6l.28.42-.21.5.21,1.12a16.34,16.34,0,0,1-.25,3.55,5.26,5.26,0,0,0-.25,1.23l.07,1.2-.28,2a2.51,2.51,0,0,0,.21,1,2.61,2.61,0,0,1-1.44,1.34,4.77,4.77,0,0,1-1.82.49.79.79,0,0,1-.88-.67,2,2,0,0,0-.5-1l.29-2.39-.08-1.34.22-1a1,1,0,0,0,0-.42,4.54,4.54,0,0,1,0-.6,1.58,1.58,0,0,1,.28-.84,1.87,1.87,0,0,0,.28-1l-.21-1.06a10,10,0,0,1,.35-2.7,10.29,10.29,0,0,0,.35-2.64l-.21-1.48.21-1a5.93,5.93,0,0,1,.84-2.11l.92-.14a1.4,1.4,0,0,1,.88.56,4.11,4.11,0,0,1,.67.88,1.59,1.59,0,0,1,.1.74.49.49,0,0,0,.32.56v.21l-.07.91v.29a2.84,2.84,0,0,0,.88.14,1.63,1.63,0,0,0,1-.53,2.61,2.61,0,0,1,1.19-.67.51.51,0,0,1,.25-.49,1,1,0,0,0,.38-.39,1.73,1.73,0,0,0,.21-.49c0-.16.19-.25.43-.25a1.54,1.54,0,0,1,.31-.84,4.25,4.25,0,0,0,.46-.63v-.14a4.63,4.63,0,0,1,.39-1.83,4.8,4.8,0,0,0,.38-1.83l-.14-.28a2.37,2.37,0,0,0,.21-.49l-.14-1.27.07-2.11a3.93,3.93,0,0,0-.42-1.76,1.76,1.76,0,0,0,.14-.77,3.65,3.65,0,0,0-.63-1.55v-.28a2,2,0,0,0-.21-.91,3,3,0,0,1-.28-.74,1.46,1.46,0,0,1,0-.53,1,1,0,0,0,0-.45,2.05,2.05,0,0,0-.43-.67,2.75,2.75,0,0,1-.49-.85.91.91,0,0,1-.74-.38c-.11-.21-.27-.48-.45-.81a7.63,7.63,0,0,0-1-.28,1.24,1.24,0,0,1-.81-.49,1.08,1.08,0,0,0-.84.49c-.19.28-.52.33-1,.14a1.08,1.08,0,0,0-.77.56.79.79,0,0,1-.78.42,1.78,1.78,0,0,0-.35.78.93.93,0,0,0-.74.28,2.18,2.18,0,0,1-.66.49c0,.7-.19,1.15-.57,1.34a1.67,1.67,0,0,0-.8.77,1.35,1.35,0,0,0-.22.6,1.13,1.13,0,0,1,0,.38l-.21.78.07,1-.07,1.62a1.82,1.82,0,0,1-.32,1.16,1.35,1.35,0,0,0-.31.88c0,.33.23.58.7.77a3.24,3.24,0,0,0,.88-2.25,6.81,6.81,0,0,1,.45-2.18,1,1,0,0,1,.57-.1l.52,0a1.23,1.23,0,0,0,.53-.14s.18.18.39.53a2.94,2.94,0,0,1,.32.6l-.08.35c0,.14,0,.18.15.14s.14.22.14.81a2.77,2.77,0,0,1-.6,1.68c-.4.54-.79,1.09-1.16,1.66h-.07l-.92.14a1.54,1.54,0,0,0-.66.63,1,1,0,0,1-.92.42,1.44,1.44,0,0,1-1.12-.49,3.52,3.52,0,0,0-1-.77v-.43L1416,334a3.9,3.9,0,0,1,.28-1.48,4.1,4.1,0,0,0,.28-1.48l-.07-1.82a5.68,5.68,0,0,1,.21-1.48Zm5.42,47.46.07.56a2.07,2.07,0,0,1,.73.35,1.73,1.73,0,0,0,.88.29,2.79,2.79,0,0,0,.39.66,1.44,1.44,0,0,1,.25.88,1.77,1.77,0,0,1-.25,1,1.57,1.57,0,0,1-.56.56c-.21.12-.41.23-.6.32s-.28.21-.28.35l-.56-.21c-.14,0-.36.16-.64.49a2.29,2.29,0,0,1-.77.64,5.8,5.8,0,0,0-1.34-.14,1,1,0,0,1-1-.57h-.14l-.63.21q-.49,0-.78-.63a3.06,3.06,0,0,1-.28-1.19c0-.38.07-.6.21-.67a1.45,1.45,0,0,0,.49-.6,3,3,0,0,1,.57-.74q.27-.24.63-.6c.23-.23.35-.38.35-.45s.08-.19.25-.35a1.9,1.9,0,0,1,.74-.43,2.28,2.28,0,0,0,.84-.52h.21a1.21,1.21,0,0,1,.67.17,2.79,2.79,0,0,0,.6.32C1422.53,374.67,1422.51,374.78,1422.51,375Z"/><path class="cls-2" d="M946.79,704.56c-32.22-8.77-65.07-17.58-96-30.27C836.3,668.35,823,659,809.61,650.94c-19-11.48-38-23-56.74-34.92-3.63-2.3-7.26-4.62-10.86-7-1.37-.91-2.75-1.82-4.11-2.77-.49-.34-1-.69-1.47-1-.19-.14-1.55-1.17-.64-.46s-.2-.18-.24-.21l-2.17-1.79-3.88-3.18-8.19-6.7-10.22-8.34c-5.94-4.85-14.48,3.6-8.49,8.48,12.45,10.15,24.49,20.67,38,29.38,18.16,11.71,36.63,22.93,55.1,34.13,14.62,8.86,29.19,19.1,44.75,26.26,18.53,8.52,38.45,14.33,57.92,20.25q22.53,6.86,45.24,13.08c7.46,2,10.65-9.54,3.19-11.57Z"/><path class="cls-2" d="M727.48,603.17l-22.63-.57c-7.73-.19-7.72,11.81,0,12l22.63.57c7.73.19,7.72-11.81,0-12Z"/><path class="cls-3" d="M1135.06,691.37c-48.62,41.53-113.82,13.3-164.46-47s-67.53-129.76-18.92-171.3,115.12-74.15,195,20.9C1222.29,584,1183.68,649.83,1135.06,691.37Z"/><path class="cls-4" d="M1090.93,638.84c41.89-35.78,79.11-86.3,51.47-143.81-53.13-38.62-106.25-7-148.14,28.75-39,33.3-42,77.28-21.58,117.26C1008.44,667.88,1052,672.14,1090.93,638.84Z"/><path class="cls-4" d="M1167.94,519.34c-2.76-3.29-5.53-6.35-8.3-9.21,47,65.31,6.29,123.07-40.13,162.73-45.33,38.72-96.79,26.66-135.06-12.66,2.33,3.22,4.81,6.41,7.44,9.54,38.88,46.27,94.55,63.16,143.17,21.63S1226,588.46,1167.94,519.34Z"/><path class="cls-4" d="M967.78,492.27c46.43-39.66,106.65-74.17,165.38-13.65q-3.33-4.64-7.25-9.3c-61.31-73-125.06-37.09-173.68,4.44s-41.25,99.68-2.37,146q3.95,4.69,8.11,9C925.8,584.16,922.45,531,967.78,492.27Z"/><path class="cls-5" d="M1137.92,486.58s3.2-3.9,5.48-4.9,9.82-6.48,17.43-6.87,17.21.88,17.11,1.77,2.16,2.91,1,3.85-10.34,3.24-21.53,11.68c-1.87,1.41-8.13,8.69-12.29,7.14s-6.48-9.17-6.39-10.06A6.73,6.73,0,0,0,1137.92,486.58Z"/><path class="cls-3" d="M1065.54,608.62c41.89-35.78,83.86-80.65,76.8-113.66-31.81-13.25-81.44,22.5-123.33,58.28-39,33.3-52.47,64.77-46.65,87.42C993.56,650.17,1026.56,641.92,1065.54,608.62Z"/><path d="M1028.27,430.88c4.47-3.87-49.32,20.28-43.77,19.89s16.41,2.55,13,3-22.69,16.61-14.5,12.74,17.48-7,20.6-8.94S1023.8,434.75,1028.27,430.88Z"/><path d="M1047.94,463c-6.77,5.2-22.21,7.44-27.34,9.27s-20.79,16.48-12.73,12.36,15.7-2.16,11.65-.73-21.14,20.34-13,15.72,13-4.41,19.66-6.67S1054.71,457.82,1047.94,463Z"/><path d="M948,618.91C942.2,612.15,935,595.52,935,595.52s4.49-20.25,4.94-16.13S944,599.15,944,599.15s15.9-11,11.88-6.5-4,20.16-4,20.16,19.62,0,15.27,2.63-2.59,7.8-2.59,7.8,19.19,2.64,14.84,5.23-9.67,7.14-7.48,9.75,12.26,13,16.51,15-.26-7.48,5.33-1.13,19.12,11.58,13.13,12.22-10.86,3.69-6.72,5.75,21.26,5.34,17.12,6.63-8.89.88-4.7,4,16.08,6.41,13.46,6.4-7.63,4.44-11.93,1.88-23.91-18.12-34-28.58S959.66,636,955.37,630.93,953.88,625.67,948,618.91Z"/><path d="M1002.22,525.22c-5.36.22-30.23,4-30.23,4s3.63-20,5.53-22.26-19.85,13.59-19.85,13.59,5.36-27.5,9-30.18-20.41,12.93-20.41,12.93,9.23-29,4.81-21.65-13.73,12.61-13.73,12.61,1.14-3.92,2.08-8.13c0,.16-.07.31-.1.46a91.53,91.53,0,0,0-14.05,22.23h0c6.41-3.39,10-1.79,7.56.51s-8.57,16-2.24,10.72,20-4.93,16.41-2.79-10.13,23.09-5.13,16.22,17.57-.78,14.64,1-10,14.27-4.9,10.65S1007.58,525,1002.22,525.22Z"/><rect class="cls-2" x="964.07" y="646.24" width="12" height="40.61" rx="6" transform="translate(614.48 -455.45) rotate(37.92)"/><path class="cls-6" d="M987.52,863.56c-4.87,88.5-30.67,52.07-64.86,50.18s-63.83,31.5-58.95-57c.89-16.23,5.76-99.72,7.43-116,7.43-72.35,20.8-71.08,64.83-68.66,42.72,2.35,57.13,5.9,56.65,80.67C992.53,767.4,988.32,849.08,987.52,863.56Z"/><path class="cls-2" d="M889.49,933.68A84.69,84.69,0,0,0,887,961.82c.27,3.71.71,7.39,1.05,11.09.19,2.17,1.14,6.25.22,8.3.27-.61-1.59.56-2.63.81a28.16,28.16,0,0,1-6.67.57,68.4,68.4,0,0,1-7-.38c-.39,0-2.49-.28-1.62-.17s0,0-.29,0c-7.55-1.21-10.8,10.35-3.19,11.57,9.19,1.47,22.9,3.08,30.09-4.19,5-5,3.41-13.36,2.77-19.69-1.13-11.11-1.64-21.91,1.29-32.81,2-7.47-9.56-10.66-11.57-3.19Z"/><path class="cls-2" d="M933.87,943.79c6.41,8.32,10.28,17.56,13.3,27.53,1.87,6.17,3.35,15.32,9.21,19.1,9,5.84,22.58-1.33,30.54-6.24,6.57-4,.55-14.42-6-10.36a61.88,61.88,0,0,1-8.6,4.44,29,29,0,0,1-6.8,2.1c-2.13.29-2.12.33-2.75-.53-1.46-2-2-5.14-2.7-7.45-1-3.4-2-6.81-3.16-10.17a83.19,83.19,0,0,0-12.63-24.47c-2-2.59-5.13-3.9-8.21-2.15-2.54,1.44-4.12,5.64-2.15,8.2Z"/><path class="cls-7" d="M989.6,916.68c4-72.14,2-46.21-64.35-49.86s-66.47-29.7-68.45,42.54c0,1.94-.13,3.73-.08,5.4q-.42,3.9-.65,8c-2,35.86,11.24,16.37,26.17,17.19,6.56.36,12.35,4.57,17,6.16a5.16,5.16,0,0,0,2.39.56,5.1,5.1,0,0,0,2.44-.3c4.75-1.07,11-4.62,17.53-4.26s12.35,4.58,17,6.16a5,5,0,0,0,2.39.56,5.06,5.06,0,0,0,2.43-.29c4.76-1.07,11-4.62,17.53-4.26,14.94.82,25.93,21.64,27.91-14.22.14-2.49.21-5,.23-7.39C989.28,920.82,989.48,918.85,989.6,916.68Z"/><path class="cls-2" d="M964.31,697.65c-34,1.48-68.68,3-102.32,8.64-16,2.71-31.58,9-47,14.08-21.19,7-42.36,14.17-63.38,21.68-17.27,6.17-33.23,14.26-49.65,22.43-6.91,3.45-.84,13.8,6.06,10.37q13.14-6.55,26.28-13.13c1.23-.62,2.45-1.23,3.7-1.81s-.83.33.25-.11l1.88-.75c3.22-1.27,6.48-2.47,9.74-3.65,20.1-7.31,40.39-14.12,60.67-20.91,15.93-5.33,32.1-11.94,48.55-15.49,19.36-4.17,39.58-5.23,59.29-6.65,15.28-1.1,30.58-2,45.89-2.7,7.7-.33,7.74-12.33,0-12Z"/><path class="cls-2" d="M731.24,748.55,709,744.11c-7.54-1.5-10.76,10.06-3.19,11.58l22.2,4.43c7.54,1.51,10.77-10,3.19-11.57Z"/><path class="cls-8" d="M427,1001c19,27,23.25,25.27,54.13,38.14S521.59,1055,551,1056c28,1,32.44,1.86,38-15,5.3-16.07-29.52-37-59-55-22-13.46-42.34-22.25-28-72s8.2-29,19-77,15-146.56,16-140.28S545,847,538,877c-6.81,29.2-20,66.2,20,89s31.14,17.32,69,23c20,3,15,4.2,48,5s49.94-12.39,27-30-28.71-23.49-58-35c-28-11-26-7-27.2-23.87-2.41-34-3.8-33.13,2.2-75.13s15.49-114.41,17-131c2.52-27.65,30.66-98,23-114-12-25-36.44-80.86-63-118s-49-70.55-49-70.55,11.76-37.86,23-66.45c22-56,53.52-214.53,58-236s4.65-70,4.65-70L605.24,0,366.88-.8s-24.87,22.18-45.37,146-32.4,146.73-20,171.77-5.4,90.72,10.45,116,53,94,53,94,76.84,94.94,78,107,10,39,6,53-9.35,92.31-10,101-12,101-15,129C423.12,925.26,427,1001,427,1001Z"/><path class="cls-8" d="M366.73,41.2c-3.73-.2-89.15,172.15-94.44,208S246,256.92,263,317s35.89,132.28,69,150.16,30.35,16.16,70.71,25,89.37,27.18,99.36,36,39,26,39,20.93-13.3-48.74-13.3-48.74S487,462.74,470.49,443.87s-44.87-19.49-41.68-41.68-5.18-26-4.49-69.59,36-74.14,36.85-121.87S416,63,416,63Z"/><path class="cls-8" d="M631.25,52c3,8.89,47.39,171.81,47.39,171.81s15.45,43.89,31.11,43S762,240.15,774.4,223.84,806,189.75,806,189.75s-17.77-23.7-8.88-31.11S804.76,134.76,810,140a6.83,6.83,0,0,1,2,7c-1,4,5,0,6-1,3.31-3.31,38.73-44.51,47-39,3,2-10,16-16,23-5.24,6.11-13,11.89-13,18,0,2,1.52,0,3,0,3,0,24.79,9.16,30.71,13.61s4.45,8.88,3,16.29-3,8.89-10.37,13.33-23.7,7.4-23.7,7.4l-5.07,9.06L837,216l-22,33s-13.63,14.15-24,26-12.59,12.63-20,23-31.63,38.38-39,44.31-11.85,25.18-26.67,31.1-8.88,11.85-23.69-4.44S665.31,358.6,649,330.46,625.32,294.91,619.4,286,585.33,252,580.89,244.55,572,185.3,572,176.42s5.92-54.81,20.74-60.73S631.25,52,631.25,52Z"/><path class="cls-9" d="M1259.38,220.38l267,78.51c4.84,0,8.79,6,8.79,13.36l-33.5,183c0,7.35-4,13.36-8.79,13.36L1369.5,490.38,1213,541l84.11-61.31-29.78-4.39c-4.84,0-8.79-6-8.79-13.37l-8-228.18C1250.58,226.4,1254.54,220.38,1259.38,220.38Z"/><g class="cls-10"><path class="cls-6" d="M392.76,37.23C369.35,166.88,338,108.42,287.9,99.37S188,134.13,211.39,4.48c4.29-23.78,26.78-146,32.21-169.68,24.23-105.36,43.72-101,108.22-89.39,62.57,11.3,83.19,19.17,68.77,129.37C417.77-103.67,396.59,16,392.76,37.23Z"/><path class="cls-2" d="M235,123.73c-5.21,12.79-7.62,26.25-8.42,40-.33,5.57-.36,11.16-.53,16.74-.08,2.89.58,9.83-1.13,12.07-1.21,1.6-11.33.8-14.65.36A91.72,91.72,0,0,1,196.82,190c-11-3.2-15.76,14-4.74,17.2,13.07,3.8,34.11,8.48,45.21-2,7.57-7.14,6.46-20.15,6.67-29.65.37-16.33,2-31.83,8.19-47.1,4.33-10.62-12.92-15.25-17.19-4.74Z"/><path class="cls-2" d="M299.42,146.73c8.17,13.86,11.86,28.86,14.55,44.58,1.63,9.51,2.33,22.81,11.33,28.62,13,8.4,32.79.4,45.45-5.38,10.43-4.76,1.37-20.14-9-15.4l-1,.46c2.41-1-1.24.49-1.64.64-3.22,1.22-6.46,2.37-9.78,3.29s-12.25,3.17-14.05,1.72c-2.21-1.77-2.61-10.23-3.08-12.87-1-5.49-1.82-11-3-16.48a124.31,124.31,0,0,0-14.39-38.18c-5.82-9.88-21.25-.92-15.4,9Z"/><path class="cls-7" d="M386.09,116c19.09-105.68,11.49-67.78-85.78-85.34s-92.59-56-108.75,50.21c-.43,2.85-.88,5.47-1.11,7.93-.89,3.8-1.71,7.67-2.42,11.63-9.49,52.53,13.58,26.2,35.45,30.15,9.61,1.74,17.38,9,23.89,12.19a10.4,10.4,0,0,0,7.07,1.28c7.21-.71,17-4.8,26.64-3.07s17.37,9,23.88,12.19a7.6,7.6,0,0,0,3.42,1.27,7.51,7.51,0,0,0,3.65,0c7.21-.7,17-4.8,26.64-3.07,21.87,4,34.28,36.68,43.76-15.85q1-5.49,1.69-10.86C384.86,122,385.52,119.15,386.09,116Z"/><path class="cls-2" d="M1257.7-60.27c-5.21,12.79-7.62,26.25-8.42,40-.33,5.57-.36,11.16-.52,16.74-.09,2.89.57,9.83-1.13,12.07-1.21,1.6-11.33.8-14.66.36A91.31,91.31,0,0,1,1219.57,6c-11-3.2-15.76,14-4.74,17.2,13.07,3.8,34.1,8.48,45.21-2,7.56-7.14,6.45-20.15,6.67-29.65.36-16.33,2-31.83,8.19-47.1,4.32-10.62-12.92-15.25-17.2-4.74Z"/><path class="cls-2" d="M1322.16-37.27c8.17,13.86,11.86,28.86,14.55,44.58,1.63,9.51,2.33,22.81,11.33,28.62,13,8.4,32.79.4,45.45-5.38,10.43-4.76,1.38-20.14-9-15.4l-1,.46c2.41-1-1.24.49-1.64.64-3.22,1.22-6.46,2.37-9.77,3.29s-12.26,3.17-14.06,1.72c-2.21-1.77-2.61-10.23-3.08-12.87-1-5.49-1.82-11-3-16.48a124.31,124.31,0,0,0-14.39-38.18c-5.82-9.88-21.24-.92-15.4,9Z"/></g></svg>