<svg id="Layer_1" data-name="Layer 1" xmlns="http://www.w3.org/2000/svg" xmlns:xlink="http://www.w3.org/1999/xlink" viewBox="0 0 1920 1080"><defs><style>.cls-1,.cls-10{fill:none;}.cls-2{fill:#fbb03b;}.cls-3{fill:#f7931e;}.cls-4{fill:#006837;}.cls-5{clip-path:url(#clip-path);}.cls-6{fill:#42210b;}.cls-7{fill:#85aa52;}.cls-8{fill:#daec70;}.cls-9{fill:#1b1464;}.cls-10,.cls-11{stroke:#000;stroke-miterlimit:10;stroke-width:2px;}.cls-11{fill:#fff;}</style><clipPath id="clip-path"><rect class="cls-1" x="-1940" y="1100" width="1920" height="1080"/></clipPath></defs><path class="cls-2" d="M1442.06,528.37c-48.62,41.53-113.82,13.3-164.46-47s-67.53-129.76-18.92-171.3,115.12-74.15,195,20.9C1529.29,421,1490.68,486.83,1442.06,528.37Z"/><path class="cls-3" d="M1397.93,475.84c41.89-35.78,79.11-86.3,51.47-143.81-53.13-38.62-106.25-7-148.14,28.75-39,33.3-42,77.28-21.58,117.26C1315.44,504.88,1359,509.14,1397.93,475.84Z"/><path class="cls-3" d="M1474.94,356.34c-2.76-3.29-5.53-6.35-8.3-9.21,47,65.31,6.29,123.07-40.13,162.73-45.33,38.72-96.79,26.66-135.06-12.66,2.33,3.22,4.81,6.41,7.44,9.54,38.88,46.27,94.55,63.16,143.17,21.63S1533,425.46,1474.94,356.34Z"/><path class="cls-3" d="M1274.78,329.27c46.43-39.66,106.65-74.17,165.38-13.65q-3.33-4.64-7.25-9.3c-61.31-73-125.06-37.09-173.68,4.44s-41.25,99.68-2.37,146q3.95,4.69,8.11,9C1232.8,421.16,1229.45,368,1274.78,329.27Z"/><path class="cls-4" d="M1444.92,323.58s3.2-3.9,5.48-4.9,9.82-6.48,17.43-6.87,17.21.88,17.11,1.77,2.16,2.91,1,3.85-10.34,3.24-21.53,11.68c-1.87,1.41-8.13,8.69-12.29,7.14s-6.48-9.17-6.39-10.06A6.73,6.73,0,0,0,1444.92,323.58Z"/><path class="cls-2" d="M1372.54,445.62c41.89-35.78,83.86-80.65,76.8-113.66-31.81-13.25-81.44,22.5-123.33,58.28-39,33.3-52.47,64.77-46.65,87.42C1300.56,487.17,1333.56,478.92,1372.54,445.62Z"/><path d="M1335.27,267.88c4.47-3.87-49.32,20.28-43.77,19.89s16.41,2.55,13,3-22.69,16.61-14.5,12.74,17.48-7,20.6-8.94S1330.8,271.75,1335.27,267.88Z"/><path d="M1354.94,300c-6.77,5.2-22.21,7.44-27.34,9.27s-20.79,16.48-12.73,12.36,15.7-2.16,11.65-.73-21.14,20.34-13,15.72,13-4.41,19.66-6.67S1361.71,294.82,1354.94,300Z"/><path d="M1255,455.91c-5.84-6.76-13.08-23.39-13.08-23.39s4.49-20.25,4.94-16.13,4.07,19.76,4.07,19.76,15.9-11,11.88-6.5-3.95,20.16-3.95,20.16,19.62,0,15.27,2.63-2.59,7.8-2.59,7.8,19.19,2.64,14.84,5.23-9.67,7.14-7.48,9.75,12.26,13,16.51,15-.26-7.48,5.33-1.13,19.12,11.58,13.13,12.22-10.86,3.69-6.72,5.75,21.26,5.34,17.12,6.63-8.89.88-4.7,4,16.08,6.41,13.46,6.4-7.63,4.44-11.93,1.88-23.91-18.12-34-28.58-20.47-24.36-24.76-29.47S1260.88,462.67,1255,455.91Z"/><path d="M1309.22,362.22c-5.36.22-30.23,4-30.23,4s3.63-20,5.53-22.26-19.85,13.59-19.85,13.59,5.36-27.5,9-30.18-20.41,12.93-20.41,12.93,9.23-29,4.81-21.65-13.73,12.61-13.73,12.61,1.14-3.92,2.08-8.13c0,.16-.07.31-.1.46a91.53,91.53,0,0,0-14,22.23h0c6.41-3.39,10-1.79,7.56.51s-8.57,16-2.24,10.72,20-4.93,16.41-2.79-10.13,23.09-5.13,16.22,17.57-.78,14.64.95-10,14.27-4.9,10.65S1314.58,362,1309.22,362.22Z"/><g class="cls-5"><path class="cls-6" d="M224,1422.76s-402-245.65-446.64-268-312.65-89.32-335-89.32H-910.46c-60.3,0-272.46,55.83-294.79,55.83s-223.32-100.5-223.32-111.66,33.5-111.66,44.67-122.83,122.82-30.6,122.82-26.47,55.83,104.63,55.83,115.8-67,55.83-67,55.83-78.17-22.33-67-33.5,44.66-33.5,44.66-44.66-11.16-11.17-11.16-11.17-78.16,33.5-67,44.66,89.33,67,100.5,67,111.66-44.66,111.66-55.83-55.83-189.82-67-189.82-212.15,11.16-212.15,22.33-78.17,189.82-67,201,178.66,100.49,178.66,111.66-189.83,44.66-189.83,44.66-78.16-167.49-89.32-178.65-201-44.67-201-44.67-145.16,67-156.33,67-122.82-145.16-122.82-145.16S-1975.7,764-1964.54,764s100.5,44.67,100.5,55.83,11.16,111.66,0,111.66-67,44.67-78.16,44.67-44.67-44.67-44.67-55.83,44.67-33.5,44.67-44.67-11.17-11.16-11.17-11.16l-67,55.83s44.67,78.16,55.83,78.16,122.83-33.5,122.83-44.66,22.33-134,11.17-145.16-111.66-78.16-122.83-78.16-201,134-201,145.15,145.16,223.32,156.33,223.32,178.65-67,189.82-67,134,11.16,134,22.33,44.66,111.66,33.5,122.83-256.82-55.83-268-44.67-268,279.15-279.15,279.15-122.82,0-122.82-11.16-100.5-178.66-89.33-189.83,89.33-111.66,100.49-122.82,137.66-22.33,152.58-11.17,48.41,134,37.25,134-122.83,67-134,67-44.66-67-33.49-78.16,78.16-11.17,78.16-22.33-22.33-22.34-22.33-22.34-89.33,22.34-89.33,33.5,22.33,111.66,44.66,122.83,201-67,201-78.16-22.33-189.83-33.5-201-212.15-22.33-223.32-11.17S-2467,1177.11-2467,1199.44s78.17,178.65,67,189.82-167.49,44.66-178.66,55.83-11.16,122.83,11.17,134,134,100.5,145.16,111.66,134-22.33,134-44.66,22.33-89.33,11.17-100.5-89.33-33.49-100.5-44.66-89.33,22.33-89.33,33.5,44.67,67,55.83,67,22.34,11.17,22.34,0-67-44.66-55.83-55.83,44.66-22.33,55.83-22.33,78.16,33.5,78.16,44.67-11.17,55.83-22.33,55.83-67,22.33-78.17,22.33-100.49-78.16-100.49-89.33-11.17-44.66,11.17-55.83,134-22.33,145.15-22.33,189.83,44.66,201,33.5,256.82-245.66,268-245.66,55.83-11.16,55.83,0-145.16,189.83-145.16,201,100.49,335,100.49,346.15-33.5,67-44.66,78.16-55.83,22.33-67,11.17-33.5-100.5-22.33-100.5,44.66-11.16,55.83-11.16,33.5,11.16,33.5,33.49-11.17,33.5-22.33,33.5-22.34,0-22.34-11.16,11.17-11.17,0-11.17-22.33,33.5-11.16,33.5,33.5,11.16,55.83,0,22.33-22.33,22.33-44.67-22.33-44.66-33.5-55.83-111.66,0-111.66,11.17,0,134,11.17,145.16,89.33,33.5,122.82,22.33,100.5-89.33,100.5-111.66-33.5-100.49-22.33-100.49,55.83,33.49,78.16,33.49,134,0,156.32-22.33,89.33-100.49,89.33-134-33.5-111.66-44.66-111.66-44.67-44.66-55.83-44.66-89.33,44.66-89.33,55.83,11.16,89.32,11.16,100.49,55.83,33.5,67,22.33,11.17-11.16,0-22.33-55.83-22.33-55.83-33.5,0-55.83,11.17-67,33.49-22.34,44.66-22.34,67,100.5,67,111.66-44.67,100.5-55.83,100.5-156.33,0-167.49-11.17-67-55.83-67-55.83-33.5-134-33.5-145.16,122.83-156.32,134-167.49,357.32,22.34,368.48,11.17,78.16-33.5,89.33-33.5-67,100.5-55.83,122.83,89.33,156.32,100.49,156.32,178.66,0,178.66-11.16-11.17-134,0-145.16,44.66-33.5,67-33.5,44.66,55.83,33.49,67-67,44.66-55.83,44.66,89.33-11.17,89.33-22.33-11.16-111.66-22.33-122.83-89.33,11.17-111.66,11.17-55.83,44.66-55.83,44.66,11.17,100.5-11.17,100.5-44.66,11.16-67-11.17-44.67-55.83-33.5-78.16,111.66-178.66,145.16-189.82,268-89.33,301.48-89.33,201,0,234.49,11.16,167.49,44.67,189.82,67S814,2182,814,2182l8-542Z"/></g><path d="M1548.94,384.56c-14.3-26.42-30.86-53.14-52.59-74.1-11.54-11.13-25.44-20-38.33-29.47q-21.27-15.62-42.61-31.13c-8.56-6.21-17.15-13.82-26.54-18.78-1.71-.9-3.23,1.69-1.52,2.59,7.48,4,14.33,10,21.15,14.88q20.61,14.9,41.1,30c13.08,9.59,27,18.65,39.29,29.2,14.35,12.27,25.93,27.75,36.39,43.36,7.59,11.31,14.59,23,21.07,35,.92,1.7,3.51.19,2.59-1.51Z"/><path d="M1563.55,354.42a401.09,401.09,0,0,0-22.81-54.09c-6-11.68-12.84-23.13-21.27-33.27-10.44-12.56-22.67-23.88-34-35.66-6.73-7-13.27-15.25-21.06-21.15-1.54-1.17-3,1.44-1.51,2.59,6.45,4.9,11.92,11.81,17.5,17.62,11.08,11.51,22.38,22.84,33.26,34.54,17.39,18.7,28.66,43.39,38.21,66.8q4.71,11.58,8.78,23.42c.63,1.81,3.53,1,2.89-.8Z"/><path d="M1001.4,402.74c15.32,26.24,33,52.87,55.82,73.17,11.69,10.38,25.5,18.61,38.37,27.43q21.77,14.93,43.59,29.75c8.75,5.93,17.58,13.26,27.13,17.92,1.72.84,3.25-1.75,1.51-2.59-7.6-3.71-14.63-9.48-21.62-14.19q-20.81-14.06-41.49-28.26c-13.41-9.19-27.56-17.84-40.31-27.93-14.78-11.69-26.89-26.78-37.84-42-8.09-11.23-15.59-22.88-22.57-34.83a1.5,1.5,0,0,0-2.59,1.52Z"/><path d="M962.06,453.71a393.36,393.36,0,0,0,43.06,42.47c10.11,8.44,20.85,16.45,32.65,22.37,14.38,7.22,29.58,13.1,44.3,19.6,8.44,3.72,17.21,8.64,26.18,11a1.5,1.5,0,0,0,.8-2.89c-7.43-2-14.65-5.95-21.66-9-14.68-6.45-29.42-12.79-44.05-19.36-23.69-10.62-43.76-29.33-61.79-47.62q-9-9.09-17.37-18.66c-1.28-1.46-3.39.67-2.12,2.12Z"/><path class="cls-7" d="M1312.83,563.52c30.38,15.38,61.28,31.11,93.37,42.62,15.31,5.5,31.93,7.66,47.84,10.73,21.92,4.24,43.86,8.41,65.87,12.16,18.11,3.09,36,3.9,54.32,4.82,7.72.38,7.7-11.62,0-12q-14.67-.74-29.34-1.44a121.11,121.11,0,0,1-16.62-2.08c-21.11-3.48-42.13-7.48-63.14-11.51-16.49-3.16-33.82-5.31-49.9-10.28-19-5.85-37.11-14.82-55-23.24q-20.79-9.79-41.33-20.14c-6.87-3.48-13,6.87-6.06,10.36Z"/><path class="cls-7" d="M1541,633.39l17.18,14.74c5.83,5,14.35-3.44,8.48-8.48L1549.5,624.9c-5.83-5-14.35,3.45-8.48,8.49Z"/><rect class="cls-7" x="1285.64" y="497.34" width="12" height="34" rx="6" transform="translate(564.98 -670.93) rotate(36.78)"/><path class="cls-8" d="M1272.13,727.33c-38.06,80.06-48.12,36.56-79.05,21.86s-71,4.95-32.94-75.1c7-14.68,43.13-90.09,50.83-104.49,34.3-64.14,46.19-57.9,86-39,38.64,18.37,50.64,27.12,21.84,96.13C1313.2,640.25,1278.35,714.24,1272.13,727.33Z"/><path class="cls-7" d="M1140.34,750.43c-15.61,2.37-27.83,10.82-41.73,17.42-1.63.78-1.13.89-2.53-.57a22.59,22.59,0,0,1-3.74-6.2,57.3,57.3,0,0,1-3.46-9.77c-2-7.47-13.53-4.3-11.57,3.19,2.39,9.14,7.77,25.33,19.24,25.83,6.56.29,13.22-4.7,18.68-7.78,9-5,18-9,28.3-10.55,7.61-1.15,4.37-12.72-3.19-11.57Z"/><path class="cls-7" d="M1213.63,774.69c1.75,10.46.24,20.71-1.83,31-1.27,6.31-3.84,14.45,0,20.29,5.61,8.45,20,8.54,29.05,8,7.67-.47,7.72-12.47,0-12a68.63,68.63,0,0,1-9.62-.13,28.08,28.08,0,0,1-7-1.33c-.8-.29-2.92-1.94-2.39-.7-.8-1.87.53-5.95.89-7.83.73-3.78,1.57-7.55,2.2-11.35a87.65,87.65,0,0,0,.27-29.13c-1.27-7.6-12.83-4.38-11.58,3.19Z"/><path class="cls-9" d="M1253.92,777.28c31-65.25,19.4-42-40.66-70.54s-50.25-52.68-79.46,13.43c-.78,1.78-1.54,3.4-2.12,5q-1.87,3.47-3.62,7.12c-15.42,32.43,4.2,19.41,17.7,25.83,5.93,2.82,9.7,8.91,13.36,12.13a5.21,5.21,0,0,0,2,1.42,5,5,0,0,0,2.37.65c4.8.82,11.91-.11,17.83,2.71s9.7,8.91,13.36,12.12a7,7,0,0,0,4.37,2.08c4.8.81,11.91-.12,17.84,2.7,13.5,6.42,15.78,29.86,31.2-2.57,1.08-2.26,2.08-4.52,3-6.76C1252.05,781,1253,779.24,1253.92,777.28Z"/><path class="cls-7" d="M1242.15,527.88c-29.38-15.89-59.31-32-86.57-51.36-12.53-8.9-23.63-21.2-34.8-32.11-15.89-15.51-31.73-31.08-47.28-46.93-12.63-12.87-22.47-25.8-33.54-40.16-2-2.58-5.13-3.9-8.21-2.15-2.54,1.45-4.12,5.65-2.15,8.21,9.8,12.72,19.09,25.74,30.26,37.3,15,15.53,30.43,30.67,45.86,45.79,12.22,12,24.09,25.19,37.58,35.77,16,12.58,34.13,22.76,51.73,33q20.37,11.81,41.07,23c6.79,3.67,12.86-6.69,6.05-10.37Z"/><path class="cls-7" d="M1051.82,379.11l-21.91-5.71c-7.48-1.95-10.67,9.62-3.19,11.57l21.91,5.71c7.48,2,10.67-9.62,3.19-11.57Z"/><path class="cls-2" d="M220.21,404.41c-1.7,63.93,72.42,97.68,164.89,100.14s168.29-27.3,170-91.23-18-136.38-163.83-140.26C253.14,269.39,221.91,340.49,220.21,404.41Z"/><path class="cls-3" d="M300.8,406.56c1.47-55.08,19.81-115.61,92.69-129.51,74.61,17.82,85.31,79.13,83.85,134.2-1.37,51.25-39.18,80.84-90.72,89.58C335.63,489.36,299.44,457.81,300.8,406.56Z"/><path class="cls-3" d="M352.38,272q7.58.2,14.56.82c-94.36,3.53-116.71,71.28-118.33,132.32-1.59,59.6,47.61,92.57,111.83,98.28q-7,.26-14.21.06c-71-1.88-127.72-35.17-126-99.1S246.33,269.21,352.38,272Z"/><path class="cls-3" d="M525.69,412.54c1.62-61-11.69-129.74-110.4-138.4q6.69-.25,13.85-.07c112,3,126.65,75.3,125,139.23S494,507.45,423,505.56q-7.2-.19-14.19-.82C473.22,502.44,524.11,472.14,525.69,412.54Z"/><path class="cls-4" d="M404.51,275.33s1.17-4.93.39-7.34-1.4-11.73-6.7-18-13.58-13-14.31-12.35-4.26.1-4.23,1.62,4.73,10.13,5.36,24.15c.1,2.34-1.88,11.77,2.62,14.08s13.17-.59,13.9-1.22A8.87,8.87,0,0,1,404.51,275.33Z"/><path class="cls-2" d="M347.16,407.79C348.63,352.71,358.3,292,393.6,277.05c35.69,16.79,40,77.92,38.53,133-1.36,51.25-20,81.35-44.93,90.8C362.8,490.08,345.8,459,347.16,407.79Z"/><path d="M470.92,432.84c5.81-6.88-9.36,19.9-12.08,17.74s-16.8-7.79-19.58-11.74S421.63,456.68,419,449.52s-9.08-9.07-9.44-5.71-12.39,16.53-12.34,8.29-16.24-18.94-15.06-14.78-20.46,22.08-16.67,13.93-19.19-14.48-18.21-11.09-8.32,16.63-9.18,10.36S301.52,393.8,307.4,398.2s29.28,26.53,29.28,26.53,23.6-15,24.6-17.91,4,24.06,4,24.06,32.1-20.95,31.6-25.51,5.54,24.11,5.54,24.11,29.75-25,24.6-17-1.71,18.59-1.71,18.59,24-19.06,23.17-11.49,7.74,16.25,11.37,16.13S465.12,439.73,470.92,432.84Z"/><path d="M462.87,319.65c3.19-5.77,5.46,61.3,1.41,54.6s-18.69-19.45-16.64-15.36-10.7,29-10.7,18.73-2.21-21.72-1.42-25.65S459.68,325.42,462.87,319.65Z"/><path d="M328.45,322.9C329,331.45,342,345.16,345,350.37s1.07,26.58-2.1,17.64-13.36-13.87-11-9.77-3.26,29.19-5.88,19.92-7.86-13.05-11.89-19.74S327.89,314.35,328.45,322.9Z"/><path d="M425.07,506.49c10.49.4,31-4.21,31-4.21s15.09-16.07,11-13.87-21,9-21,9-1.75-19.34-2.91-13.36-15.42,15.59-15.42,15.59-14.6-15.39-13.73-10.37-5.19,6.87-5.19,6.87-16.64-13.45-15.78-8.43.68,12-3.31,11.92-21-1.56-25.92-3.69,7-4.42-2.92-4.88-24.75-7.86-20.88-2.76,4.71,10.83-.24,8.85-20.65-13.4-18.75-9.35,5.8,7.53-.17,6.18-17.77-8.66-15.83-6.61,1.63,8.74,7.16,10.54,34.25,7.57,51.28,9,37.37,1,45.21,1.21S414.57,506.09,425.07,506.49Z"/><path d="M169,451.66c2.58-29,7.09-59,18-86.12,6.14-15.3,15.68-29.35,24-43.53q13-22.26,26.2-44.47,5.77-9.74,11.62-19.42c1.76-2.89,3.74-6.64,5.66-9,1.2-1.49-.91-3.62-2.12-2.12-5.61,7-9.74,15.61-14.31,23.26Q224.47,293,211.06,316c-8.19,13.95-17.52,27.77-24.27,42.49-7.66,16.71-12,34.9-15.34,52.92-2.44,13.33-4.22,26.78-5.42,40.28-.17,1.92,2.83,1.91,3,0Z"/><path d="M105.69,373.22a399.51,399.51,0,0,1,22.19-52.77c6.1-11.83,12.93-23.53,21.52-33.75,10.08-12,21.73-22.83,32.57-34.12,6.86-7.14,13.54-15.73,21.47-21.74,1.52-1.15,0-3.76-1.51-2.59-6.34,4.81-11.68,11.4-17.17,17.11-11.53,12-23.36,23.73-34.61,36C132.86,300.11,121.62,324.56,112,348q-5,12.09-9.21,24.47c-.63,1.83,2.26,2.61,2.89.8Z"/><path d="M662.36,401.22c-15.21,26.06-32.68,52.41-55.35,72.57-12.12,10.77-26.57,19.3-39.92,28.44q-21.15,14.5-42.38,28.91c-8.45,5.72-17,12.79-26.18,17.28-1.74.84-.22,3.43,1.51,2.59,7.92-3.86,15.24-9.89,22.51-14.79q21.45-14.51,42.79-29.16c12.9-8.84,26.48-17.17,38.73-26.9,14.62-11.6,26.62-26.47,37.52-41.5A427.86,427.86,0,0,0,665,402.74a1.5,1.5,0,0,0-2.59-1.52Z"/><path d="M702.17,451.59a398.52,398.52,0,0,1-41.41,41.08c-10.23,8.68-21.13,16.88-33.12,23-14.09,7.18-29.08,12.92-43.55,19.3-8.65,3.82-17.61,8.87-26.79,11.3a1.5,1.5,0,0,0,.8,2.89c7.25-1.91,14.33-5.8,21.16-8.8,14.9-6.55,29.82-13,44.69-19.64,23.79-10.56,44-29.22,62.13-47.5q9.4-9.48,18.21-19.51c1.27-1.45-.84-3.58-2.12-2.12Z"/><path class="cls-7" d="M347.46,553.16c-29.57,15-59.63,30.41-90.89,41.55-15,5.35-31.3,7.47-46.9,10.49-21.8,4.22-43.62,8.36-65.51,12.11-4.24.72-8.49,1.44-12.74,2.08a60.79,60.79,0,0,1-6.8.87c-10.81.78-21.68,1-32.5,1.59-7.69.38-7.73,12.38,0,12,16.08-.81,32-1.16,47.95-3.75,21.32-3.48,42.55-7.53,63.76-11.59,16.79-3.22,34.47-5.39,50.82-10.5,19.44-6.09,38.13-15.23,56.52-23.87q21.32-10,42.35-20.62c6.89-3.49.82-13.84-6.06-10.36Z"/><path class="cls-7" d="M116.85,624.9,99.67,639.65c-5.87,5,2.65,13.49,8.49,8.48l17.17-14.74c5.87-5-2.65-13.5-8.48-8.49Z"/><rect class="cls-7" x="378.71" y="500.34" width="12" height="34" rx="6" transform="translate(568.98 1135.14) rotate(-159.97)"/><path class="cls-8" d="M394.22,727.33c38.06,80.06,48.12,36.56,79,21.86s71,4.95,32.94-75.1c-7-14.68-43.13-90.09-50.83-104.49-34.3-64.14-46.19-57.9-86-39-38.64,18.37-50.64,27.12-21.84,96.13C353.15,640.25,388,714.24,394.22,727.33Z"/><path class="cls-7" d="M522.82,762c10,1.52,19,5.32,27.76,10.25,5.58,3.13,12.51,8.43,19.22,8.08,11.48-.58,16.83-16.64,19.24-25.83,2-7.48-9.61-10.67-11.57-3.19a59.74,59.74,0,0,1-3.26,9.34,25.12,25.12,0,0,1-3.66,6.33,5.61,5.61,0,0,1-1.73,1.49c1-.26-.64-.41-1.08-.62-13.91-6.6-26.11-15.05-41.73-17.42-7.55-1.15-10.81,10.42-3.19,11.57Z"/><path class="cls-7" d="M441.14,771.5a87,87,0,0,0,.15,28.39c.61,3.85,1.45,7.66,2.2,11.49.39,2,1.87,6.43,1,8.43.55-1.28-1.24.28-2,.57a26.07,26.07,0,0,1-7,1.41,65.24,65.24,0,0,1-10.08.18c-7.71-.47-7.68,11.53,0,12,9.06.55,23.39.45,29.05-8,3.8-5.66,1.42-13.52.18-19.65-2.11-10.5-3.74-20.94-2-31.64,1.25-7.56-10.31-10.8-11.58-3.19Z"/><path class="cls-9" d="M412.43,777.28c-31-65.25-19.4-42,40.66-70.54s50.25-52.68,79.46,13.43c.79,1.78,1.54,3.4,2.12,5q1.88,3.47,3.62,7.12c15.42,32.43-4.2,19.41-17.7,25.83-5.93,2.82-9.7,8.91-13.36,12.13a5.13,5.13,0,0,1-2,1.42,5,5,0,0,1-2.37.65c-4.8.82-11.91-.11-17.83,2.71s-9.7,8.91-13.36,12.12a7,7,0,0,1-4.37,2.08c-4.8.81-11.91-.12-17.83,2.7-13.51,6.42-15.79,29.86-31.21-2.57-1.08-2.26-2.08-4.52-3-6.76C414.3,781,413.37,779.24,412.43,777.28Z"/><path class="cls-7" d="M430.25,538.25c29.72-16.08,60.14-32.31,87.59-52.09,13.41-9.66,24.84-22.15,36.62-33.66,16-15.59,31.9-31.25,47.53-47.2,12.82-13.09,23.57-27.4,34.76-41.92,2-2.59.37-6.69-2.15-8.21-3.08-1.84-6.25-.4-8.21,2.15-9.74,12.64-18.3,24.46-29.23,35.75-14.89,15.36-30.15,30.35-45.43,45.32q-11.1,10.88-22.27,21.66c-4.75,4.58-9.39,9.44-14.62,13.49-15.35,11.91-33.49,22-50.54,31.86q-19.91,11.51-40.1,22.48c-6.8,3.68-.75,14,6.05,10.37Z"/><path class="cls-7" d="M617.72,390.68,639.63,385c7.46-2,4.3-13.52-3.19-11.57l-21.91,5.71c-7.47,1.95-4.3,13.53,3.19,11.57Z"/><path d="M1690,336.63l.49-6.75v-2.32a7.51,7.51,0,0,0-.07-1l-.21-2.53a8.43,8.43,0,0,1,0-1.34c0-.46,0-.86,0-1.19v-.84a4.11,4.11,0,0,0-.07-.71l-.21-.91.07-.71a1,1,0,0,0-.14-.56,2.48,2.48,0,0,1-.25-.63,2.62,2.62,0,0,1,0-1,2.18,2.18,0,0,0,0-.88.93.93,0,0,0-.28-.46,1.88,1.88,0,0,1-.31-.32.71.71,0,0,1-.18-.38.89.89,0,0,0-.28-.46,2.26,2.26,0,0,0-.77-.46,3.45,3.45,0,0,1-1-.56,4.35,4.35,0,0,0,0-.95,2,2,0,0,1,.25-1,5.55,5.55,0,0,1,1.79-.28,2.46,2.46,0,0,1,1.48.39,2,2,0,0,0,1.19.38,2.33,2.33,0,0,0,1.44-.63,5.86,5.86,0,0,0,1.76.21l2.6-.07,3.45.28,1.26-.14a6.67,6.67,0,0,1,1.9.28,6.33,6.33,0,0,0,1.9.28l1.69-.07,1-.14,1.2.28,1.26-.14,1.2.07a3.89,3.89,0,0,0,1.2-.21,8.41,8.41,0,0,0,.73-2.6,5.16,5.16,0,0,1,.88-2.39,6.31,6.31,0,0,1,1.09-.14.67.67,0,0,1,.6.35,1.22,1.22,0,0,1,.21.56l-.14.43.21,1.54-.14,1.27.21,2-.14,1.26.21,1.13-.21,1.4.07.5a1.62,1.62,0,0,0-.53.77,4.13,4.13,0,0,1-.38.84l-.88.46a1.64,1.64,0,0,1-.74.25c-.19,0-.4-.31-.63-.92a4.23,4.23,0,0,1-.35-1.47l.14-1.55v-.42a1.91,1.91,0,0,0-1.41-.56l-1.27.35-2.11-.5-1.75.15a.45.45,0,0,1-.35-.15h-1.41l-2.6-.14a3.76,3.76,0,0,0-1.27.18c-.33.12-.68.22-1.05.32s-.84.17-1.37.24l-1.62.18-1.62.14c-.54.05-.92.07-1.16.07a1,1,0,0,0-.28.88,1.58,1.58,0,0,1-.07.84c-.1.21-.17.32-.21.32s-.07.16-.07.49l.42,3.45v1.82l.07,1c-.09,0-.14.1-.14.31a3.91,3.91,0,0,0,.49,1.31,3.67,3.67,0,0,0-.07.77l-.21.91.21.85-.07,1.68.14,2.11-.49,7.95a8.87,8.87,0,0,0,.28,2.18,4.6,4.6,0,0,1,.07,2.11,4.28,4.28,0,0,0,2.92.7c1.48,0,2.38,0,2.71.07l.84.14.7-.14,1.62.28,1.69.14a1.12,1.12,0,0,0,1.19-.77,3,3,0,0,1,.57-1.48,3.63,3.63,0,0,1,.35-1.68l1-.29c.24,0,.46.2.67.6a2.28,2.28,0,0,1,.32.95l-.57,4.29.29,2a8.82,8.82,0,0,0-.78,1.69,3.79,3.79,0,0,0-.84.24,2.13,2.13,0,0,1-.85.18,1.3,1.3,0,0,1-.24-.39,1.66,1.66,0,0,0-.35-.49,1.53,1.53,0,0,1-.35-.84,11.13,11.13,0,0,0-.25-1.09,1.44,1.44,0,0,0-1.13-.25,1.14,1.14,0,0,1-1-.32,2.2,2.2,0,0,1-1,.28,1.44,1.44,0,0,1-.81-.28,5.66,5.66,0,0,1-1.83.28l-2.32-.07h-.63a2.13,2.13,0,0,0-1,.22,1.11,1.11,0,0,1-.6.17.3.3,0,0,0-.28.11l.07.28-.42,3.51.14,2-.21,1.2.21.84-.21,3.17c0,1.5.49,2.25,1.48,2.25l1.33-.15,1.69.22a1.2,1.2,0,0,0,.91-.36,2.88,2.88,0,0,0,1.13.22l2.6-.22h.42a1.33,1.33,0,0,1,.57.14,6,6,0,0,1,2-.28c.8,0,1.45,0,1.94-.07s1-.1,1.4-.17a8.47,8.47,0,0,1,1.31-.11l1.19.07c.52,0,.83-.1,1-.31a1,1,0,0,1,.53-.46c0-.19.09-.45.14-.77.18-1.32.61-2,1.26-2,.43,0,.69.11.81.35a2.07,2.07,0,0,0,.67.7q.21,2.54.21,3.45a.12.12,0,0,0-.14.14l.14,1.61a2.52,2.52,0,0,1-.35,1.34c0,.23-.07.35-.35.35a1.11,1.11,0,0,0-.67.18,1.42,1.42,0,0,0-.39.38.52.52,0,0,1-.49.22l-1.19-.43c0-.42-.1-.89-.15-1.4a2.86,2.86,0,0,0-.42-1.34,4.76,4.76,0,0,1-.84.07h-.91c-.94,0-1.46.14-1.55.42a1.39,1.39,0,0,0-.6-.14,1.46,1.46,0,0,0-.74.28.76.76,0,0,0-.56-.21l-1,.07-.78-.14-.77.14-1.2-.35a4.89,4.89,0,0,0-2.25,1.06l-1.82-.5a.29.29,0,0,0-.25.18.41.41,0,0,1-.39.18l-2.18-.29-1.47.22h-1.13a4.27,4.27,0,0,0-2.46.49,1.52,1.52,0,0,0-1-.28l-.5.14-.35-.14a2.38,2.38,0,0,0-1.23.42,2.43,2.43,0,0,1-.88.42c-.94,0-1.4-.59-1.4-1.76v-.35c.18-.37.7-.66,1.54-.84a14.33,14.33,0,0,1,1.41-.28A4.22,4.22,0,0,0,1690,360c.07-.52.13-.94.17-1.27a5,5,0,0,0,.07-.7l-.21-1.26.21-.85-.21-.56.14-.7-.21-.64.21-1.82a1.4,1.4,0,0,0,0-.53,3.47,3.47,0,0,1,0-.6l.21-1.83-.28-1.76a3,3,0,0,1,.07-.63,5.93,5.93,0,0,0,.14-.67,3.24,3.24,0,0,0,0-.84c0-.3,0-.6,0-.88v-.77a.13.13,0,0,1-.14-.14l.21-.5-.21-.84a6.82,6.82,0,0,1-.17-2c0-.82,0-1.51,0-2.08Z"/><path d="M1723.91,334a3.82,3.82,0,0,1-1.54,2.25,2.33,2.33,0,0,0,.63,1.41,5.81,5.81,0,0,1,.81,1.13,5.08,5.08,0,0,1,.31.7,6,6,0,0,0,.39.77,9.05,9.05,0,0,0,.81,1.2c.32.42.62.84.88,1.26s.5.82.74,1.2l.56.77a4.69,4.69,0,0,1,.49.78,7.3,7.3,0,0,0,.49.84l.21.14c.28.56.58,1.1.88,1.62a16.3,16.3,0,0,1,.81,1.54l.28.14a7.33,7.33,0,0,0,.71,1.55l.28.14c.28.71.6,1.06,1,1.06s.66-.35.84-1.06a7.18,7.18,0,0,1,.78-2.53,1.23,1.23,0,0,0,.14-.53,1.07,1.07,0,0,1,.14-.52l.42-.78.35-1.05a2.32,2.32,0,0,1,.18-.39,2.91,2.91,0,0,0,.21-.46,2.1,2.1,0,0,0,.1-.73,2.93,2.93,0,0,1,.22-1c.14-.38.3-.85.49-1.41a11.5,11.5,0,0,1,.67-1.62c.25-.51.49-1,.7-1.51s.4-.9.56-1.23a5.52,5.52,0,0,1,.35-.63l.21-.28a.37.37,0,0,0,.07-.32.63.63,0,0,1,.07-.39,1,1,0,0,1,.39-.38,1.7,1.7,0,0,0,.53-.74,10.29,10.29,0,0,0,.49-1.55,2.5,2.5,0,0,1,.92-1.47,2.27,2.27,0,0,1,1.37-.5,1.21,1.21,0,0,1,1,.35,1.92,1.92,0,0,0,.56.5v.21c0,.89-.23,1.4-.7,1.54a20.09,20.09,0,0,1-1,3c-.35.78-.6,1.19-.74,1.23a8.08,8.08,0,0,1-1.54,3.17,1.92,1.92,0,0,0-.15.77,2.63,2.63,0,0,1-.63,1.69,2.3,2.3,0,0,0-.63,1.4v.85a3,3,0,0,1-.63,1.62,4.21,4.21,0,0,1-.21,1.33,10.84,10.84,0,0,0-1,3.87c-.24.09-.49.61-.77,1.55a9.84,9.84,0,0,0-.42,1.68l.07,1.27a1.08,1.08,0,0,1-.36.95,1.74,1.74,0,0,0-.52.53,4.48,4.48,0,0,0-.32.56,1,1,0,0,1-.42.42,1.06,1.06,0,0,1,.14.67,14.49,14.49,0,0,1-1.44,3.41c-1,1.92-1.49,2.95-1.58,3.09v1.13a5.12,5.12,0,0,0-.39.56,3.24,3.24,0,0,1-.46.56,1.25,1.25,0,0,0-.35.63c0,.24-.24.33-.56.29a7.38,7.38,0,0,1-.63,1.72,5,5,0,0,0-.53,1.33c-.07.36-.18.55-.32.6a.73.73,0,0,0-.35.25.78.78,0,0,0-.18.35c0,.12-.08.15-.17.1h-.21v.08l.14.63v.21a4,4,0,0,0-1.34,2.39,1.38,1.38,0,0,0-.7.63,2.33,2.33,0,0,1-.49.71,4.44,4.44,0,0,1-.85,1,2.87,2.87,0,0,0-.77,1.12c-.24.05-.45.09-.63.11a2.32,2.32,0,0,0-.64.18,2.35,2.35,0,0,1-1,.8,2.2,2.2,0,0,0-1.06,1,7.09,7.09,0,0,0-1.51.6,5.83,5.83,0,0,1-1.65.6c-.14.09-.27.19-.39.28a2.67,2.67,0,0,1-.59.32,6.22,6.22,0,0,1-1.83.17,9.63,9.63,0,0,1-2.25-.21,4.44,4.44,0,0,1-1.41.21c-1.31,0-2-.3-2-.91,0-.14-.09-.22-.28-.25a.72.72,0,0,1-.49-.31v-.28h-.28c-.33-.29-.52-.45-.56-.5,0-.28-.07-.45-.22-.52s-.16-.25-.07-.53a2.36,2.36,0,0,1-1-1.83,14.74,14.74,0,0,1-.28-1.76l.28-.91-.14-.78a3.31,3.31,0,0,1,.35-1.12,4.52,4.52,0,0,0,.42-1.27,2.56,2.56,0,0,0,1-1.4,1.86,1.86,0,0,0,.88-.67c.21-.31.43-.6.66-.88.52-.14,1.05-.29,1.59-.46a6.83,6.83,0,0,1,1.93-.24,2.79,2.79,0,0,1,1.9.67,15.76,15.76,0,0,1,1.19,1.12,11.43,11.43,0,0,0,1,1,14.15,14.15,0,0,0-.14,1.83,2.63,2.63,0,0,0-.64.35,1.24,1.24,0,0,1-.77.21.66.66,0,0,1-.67-.42,1,1,0,0,0-.74-.56l-.49-1.27a5.79,5.79,0,0,1-.91-.21,3.8,3.8,0,0,0-1.13-.14,1.12,1.12,0,0,0-1,.63,4.31,4.31,0,0,1-.92,1.13l-.14.28a4.74,4.74,0,0,1-.52.28.62.62,0,0,0-.39.42,1.62,1.62,0,0,1,.14.7,1.65,1.65,0,0,1-.32.92,1.92,1.92,0,0,0-.31,1.05,2.46,2.46,0,0,0,.31,1.16,4.74,4.74,0,0,1,.46,1.16,3.71,3.71,0,0,1,1,1,3.17,3.17,0,0,0,1,.91,2.22,2.22,0,0,0,1,0,5.07,5.07,0,0,1,1.06-.11l.84.28.07-.21h1a8.12,8.12,0,0,0,2.14-.38,10.92,10.92,0,0,0,1.94-.74l.63-.5c.32-.23.67-.45,1-.66a4.7,4.7,0,0,0,.91-.71,6.43,6.43,0,0,0,.71-.84,2.46,2.46,0,0,1,.8-.74c.29-.56.64-1.19,1.06-1.9a19.72,19.72,0,0,0,2.81-6.11,4.85,4.85,0,0,0,1.13-1.87,4.34,4.34,0,0,1,1-1.72,2.59,2.59,0,0,1,.63-1.48,3.77,3.77,0,0,1,.53-1.68,4.76,4.76,0,0,0,.6-1.52,10.54,10.54,0,0,1,.35-1.37,2.83,2.83,0,0,0,.63-1.72,2.35,2.35,0,0,0-.28-1.3,1.18,1.18,0,0,1-.14-1,.73.73,0,0,1-.35-.25,1.45,1.45,0,0,0-.42-.32,4.42,4.42,0,0,0-.67-1.16,10.91,10.91,0,0,1-.74-1,2.81,2.81,0,0,1-.46-1.06.88.88,0,0,0-.8-.66l.07-.14a.47.47,0,0,0-.14-.39c-.1-.07-.12-.22-.08-.46s-.21-.28-.49-.28a1.07,1.07,0,0,0-.28-.74,3.24,3.24,0,0,1-.42-.56c-.1-.16-.13-.27-.11-.32s0-.11-.1-.21l-.28-.14a.41.41,0,0,1-.14-.32,1.45,1.45,0,0,0-.21-.56c-.14-.25-.35-.58-.6-1a7.58,7.58,0,0,1-.67-1.3q-.57-.63-1-1.2a4,4,0,0,1-.78-1.4,4.84,4.84,0,0,1-1.12-1.52,6.83,6.83,0,0,0-1.06-1.58v-.14a2.42,2.42,0,0,0-.35-1,3.28,3.28,0,0,0-.6-.88,3,3,0,0,1-.42-.45,1.41,1.41,0,0,1-.24-.53,1.07,1.07,0,0,0-.29-.49l-2.25.14c-1,0-1.54-.17-1.54-.5l.14-.49a.13.13,0,0,0-.14-.14l-.28-.49c0-.14,0-.21.14-.21,0-.38.36-.57.95-.6a5.49,5.49,0,0,0,1.58-.28,1.84,1.84,0,0,1,1.12-.11,2.65,2.65,0,0,0,.71-.42,1.24,1.24,0,0,1,.77-.28l1.19.14,1.13-.28,1,.14.5-.14A1.74,1.74,0,0,1,1723.91,334Z"/><path d="M1763,335.36l2,2.88v.14a2.61,2.61,0,0,0,.6,1.76,5.23,5.23,0,0,1,.95,1.69,4.26,4.26,0,0,1-.42.49,1.63,1.63,0,0,0-.35.56,2.68,2.68,0,0,1-.7.14L1764,343a1.07,1.07,0,0,0-.7.22,1.56,1.56,0,0,0-.85-.22h-.84a3.07,3.07,0,0,1-1.2-.21.66.66,0,0,0-.42.43c-.09.23-.42.34-1,.31a4.57,4.57,0,0,0-1.23.07,3.34,3.34,0,0,0-.6.21,1.45,1.45,0,0,1-.63.11l-1.41-.14h-1.69c-.42.65-.63,2.39-.63,5.2l.49,3.09-.07,1.48a1.73,1.73,0,0,0,.14.92,2.16,2.16,0,0,1,.5,1.37,3.34,3.34,0,0,0,.38,1.51,5.6,5.6,0,0,1,.49,1.23,8.27,8.27,0,0,0,.39,1.16,3.3,3.3,0,0,0,1,1.3,2.61,2.61,0,0,0,1.69.6,2.56,2.56,0,0,0,1.62-.53,7.91,7.91,0,0,1,1-.74c.26-.14.41-.2.46-.17s.15,0,.31-.11a5.46,5.46,0,0,0,.85-.7,8,8,0,0,0,.74-.78,3.68,3.68,0,0,0,.28-.59l.38-1.09c.17-.47.41-.71.74-.71s.67.25,1,.74a2.55,2.55,0,0,1,.53,1.48,1.29,1.29,0,0,1-.81,1.16,1.89,1.89,0,0,0-1,1.19c-.75.33-1.19.65-1.3.95a1.18,1.18,0,0,1-.35.56c-.12.08-.2.1-.25.08a.41.41,0,0,0-.21,0c-.09,0-.14.09-.14.28a5.77,5.77,0,0,0-.84.7,1.83,1.83,0,0,0-1.69.32,2.81,2.81,0,0,1-1.62.6,2.06,2.06,0,0,1-1.4-.56,2.21,2.21,0,0,1-.78.14,2.47,2.47,0,0,0-.84.14,3.78,3.78,0,0,0-1.27-.85,13.37,13.37,0,0,1-1.4-.63c-.1-.28-.2-.43-.32-.46s-.13-.2,0-.52l-.52-.28-.53-.29a3.75,3.75,0,0,0-.77-1.05v-.91a1.19,1.19,0,0,1-.74-.88,1.62,1.62,0,0,0-.74-1,7.74,7.74,0,0,0-.32-1.66,5.73,5.73,0,0,1-.24-1.65v-1.26l-.49-3v-.56l.21-.63-.21-.63.49-3,.28-.42q.35-1.83.6-3.3a9,9,0,0,1,1-2.85c.49-.92,1-1.78,1.51-2.6a6.9,6.9,0,0,0,1-2.29,29.8,29.8,0,0,1,4.29-2.88,1.67,1.67,0,0,0,.56.14l1.12-.21a2.3,2.3,0,0,1,1.48.84l.77-.14h.28a1,1,0,0,1,.18.49.37.37,0,0,0,.32.35,2.65,2.65,0,0,1,1,1.52,2,2,0,0,0,1,1.37Zm-2,5.91,2.39-.5v-.28a3.46,3.46,0,0,0-.11-.84,8.33,8.33,0,0,1-.17-.84,5.25,5.25,0,0,0-.81-.78,1.08,1.08,0,0,1-.32-1,1.21,1.21,0,0,1-.81-.92c-.11-.46-.22-.91-.31-1.33-.1,0-.14-.1-.14-.28a6.55,6.55,0,0,1-.71-.57,3.31,3.31,0,0,0-2.42-.77,3.66,3.66,0,0,0-2.11.39,4.68,4.68,0,0,0-1,2.11c-.33,1.15-.62,2.11-.88,2.88a7.33,7.33,0,0,0-.39,2.35v.43l2.25.28,1.62-.14.56.14,1.13-.28,1,.14.56-.28Z"/><path d="M1778.62,361.87c-.57.23-1,.38-1.27.46a1.67,1.67,0,0,0-.67.31,1.94,1.94,0,0,1-.6.35,1.8,1.8,0,0,1-1.61-2.25,6.72,6.72,0,0,0-.88-.35,2.23,2.23,0,0,1-.81-.42v-2.11a3.92,3.92,0,0,0,.56-.91,2.61,2.61,0,0,1,.49-.78.84.84,0,0,1,.53-.28.64.64,0,0,0,.39-.1.82.82,0,0,0,.21-.25.43.43,0,0,1,.21-.21l1-.14a5.32,5.32,0,0,1,1-.14,1.43,1.43,0,0,1,1.4.95,3.82,3.82,0,0,1,.43,1.44.83.83,0,0,0,.17.63c.12.1.18.48.18,1.16A7.2,7.2,0,0,1,1778.62,361.87Zm-.29-28.69-.42,7.81.07,2.25c0,1-.16,1.47-.49,1.47-.14,0-.14.05,0,.14a10.34,10.34,0,0,0-.6,1.27c-.21.51-.48.77-.81.77q-.91,0-1.47-1.47a7,7,0,0,1-.49-3.17v-2.88l-.15-2.32.15-3-.15-1.4.29-.85-.14-.84.07-2.46a54.15,54.15,0,0,0-.39-7.52,26.44,26.44,0,0,1-.39-3.27,3.91,3.91,0,0,1,.32-1.55,6.5,6.5,0,0,0,.39-1.09c0-.33.18-.49.42-.49s.23.05.28-.14.11-.28.21-.28a2,2,0,0,1,1.37.42q.46.42.84.81a3,3,0,0,0,.53.45,2.85,2.85,0,0,1,.28.64l.28.14a.56.56,0,0,1,0,.35.37.37,0,0,0,.1.35l.29.14a3.62,3.62,0,0,1,.28,1.27l-.5,3.44.22,3.45v3.23a13.77,13.77,0,0,1-.22,2.71A9.48,9.48,0,0,0,1778.33,333.18Z"/><path class="cls-10" d="M1596.38,197.38l267,78.51c4.84,0,8.79,6,8.79,13.36l-33.5,183c0,7.35-4,13.36-8.79,13.36L1706.5,467.38,1535,505l99.11-48.31-29.78-4.39c-4.84,0-8.79-6-8.79-13.37l-8-228.18C1587.58,203.4,1591.54,197.38,1596.38,197.38Z"/><path class="cls-11" d="M570.38,13.38l267,78.51c4.84,0,8.79,6,8.79,13.36l-33.5,183c0,7.35-4,13.36-8.79,13.36L680.5,283.38,560,363l48.11-90.31-29.78-4.39c-4.84,0-8.79-6-8.79-13.37l-8-228.18C561.58,19.4,565.54,13.38,570.38,13.38Z"/><path d="M666,154.63l.49-6.75v-2.32a7.51,7.51,0,0,0-.07-1l-.21-2.53a8.43,8.43,0,0,1,0-1.34c0-.46,0-.86,0-1.19v-.84a4.11,4.11,0,0,0-.07-.71l-.21-.91.07-.71a1,1,0,0,0-.14-.56,2.48,2.48,0,0,1-.25-.63,2.62,2.62,0,0,1,0-1,2.18,2.18,0,0,0,0-.88.93.93,0,0,0-.28-.46,1.88,1.88,0,0,1-.31-.32.71.71,0,0,1-.18-.38.89.89,0,0,0-.28-.46,2.26,2.26,0,0,0-.77-.46,3.45,3.45,0,0,1-1-.56,4.35,4.35,0,0,0,0-1,2,2,0,0,1,.25-1,5.55,5.55,0,0,1,1.79-.28,2.46,2.46,0,0,1,1.48.39,2,2,0,0,0,1.19.38,2.33,2.33,0,0,0,1.44-.63,5.86,5.86,0,0,0,1.76.21l2.6-.07,3.45.28,1.26-.14a6.67,6.67,0,0,1,1.9.28,6.33,6.33,0,0,0,1.9.28l1.69-.07,1-.14,1.2.28,1.26-.14,1.2.07a3.89,3.89,0,0,0,1.2-.21,8.41,8.41,0,0,0,.73-2.6,5.16,5.16,0,0,1,.88-2.39,6.31,6.31,0,0,1,1.09-.14.67.67,0,0,1,.6.35,1.22,1.22,0,0,1,.21.56l-.14.43.21,1.54-.14,1.27.21,2-.14,1.26.21,1.13-.21,1.4.07.5a1.62,1.62,0,0,0-.53.77,4.13,4.13,0,0,1-.38.84l-.88.46a1.64,1.64,0,0,1-.74.25c-.19,0-.4-.31-.63-.92a4.23,4.23,0,0,1-.35-1.47l.14-1.55v-.42a1.91,1.91,0,0,0-1.41-.56l-1.27.35-2.11-.5-1.75.15a.45.45,0,0,1-.35-.15h-1.41l-2.6-.14a3.76,3.76,0,0,0-1.27.18c-.33.12-.68.22-1,.32s-.84.17-1.37.24l-1.62.18-1.62.14c-.54.05-.92.07-1.16.07a1,1,0,0,0-.28.88,1.58,1.58,0,0,1-.07.84c-.1.21-.17.32-.21.32s-.07.16-.07.49l.42,3.45v1.82l.07,1c-.09,0-.14.1-.14.31a3.91,3.91,0,0,0,.49,1.31,3.67,3.67,0,0,0-.07.77l-.21.91.21.85-.07,1.68.14,2.11-.49,7.95a8.87,8.87,0,0,0,.28,2.18,4.6,4.6,0,0,1,.07,2.11,4.28,4.28,0,0,0,2.92.7c1.48,0,2.38,0,2.71.07l.84.14.7-.14,1.62.28,1.69.14a1.12,1.12,0,0,0,1.19-.77,3,3,0,0,1,.57-1.48,3.63,3.63,0,0,1,.35-1.68l1-.29c.24,0,.46.2.67.6a2.28,2.28,0,0,1,.32.95l-.57,4.29.29,2a8.82,8.82,0,0,0-.78,1.69,3.79,3.79,0,0,0-.84.24,2.13,2.13,0,0,1-.85.18,1.3,1.3,0,0,1-.24-.39,1.66,1.66,0,0,0-.35-.49,1.53,1.53,0,0,1-.35-.84,11.13,11.13,0,0,0-.25-1.09,1.44,1.44,0,0,0-1.13-.25,1.14,1.14,0,0,1-1.05-.32,2.2,2.2,0,0,1-.95.28,1.44,1.44,0,0,1-.81-.28,5.66,5.66,0,0,1-1.83.28l-2.32-.07h-.63a2.13,2.13,0,0,0-1,.22,1.11,1.11,0,0,1-.6.17.3.3,0,0,0-.28.11l.07.28-.42,3.51.14,2-.21,1.2.21.84-.21,3.17c0,1.5.49,2.25,1.48,2.25l1.33-.15,1.69.22a1.2,1.2,0,0,0,.91-.36,2.88,2.88,0,0,0,1.13.22l2.6-.22h.42a1.33,1.33,0,0,1,.57.14,6,6,0,0,1,2-.28c.8,0,1.45,0,1.94-.07s1-.1,1.4-.17a8.47,8.47,0,0,1,1.31-.11l1.19.07c.52,0,.83-.1,1-.31a1,1,0,0,1,.53-.46c0-.19.09-.45.14-.77.18-1.32.61-2,1.26-2,.43,0,.69.11.81.35a2.07,2.07,0,0,0,.67.7q.21,2.53.21,3.45a.12.12,0,0,0-.14.14l.14,1.61a2.52,2.52,0,0,1-.35,1.34c0,.23-.07.35-.35.35a1.11,1.11,0,0,0-.67.18,1.42,1.42,0,0,0-.39.38.52.52,0,0,1-.49.22l-1.19-.43c-.05-.42-.1-.89-.15-1.4a2.86,2.86,0,0,0-.42-1.34,4.76,4.76,0,0,1-.84.07h-.91c-.94,0-1.46.14-1.55.42a1.39,1.39,0,0,0-.6-.14,1.46,1.46,0,0,0-.74.28.76.76,0,0,0-.56-.21l-1,.07-.78-.14-.77.14-1.2-.35a4.89,4.89,0,0,0-2.25,1.06l-1.82-.5a.29.29,0,0,0-.25.18.41.41,0,0,1-.39.18l-2.18-.29-1.47.22h-1.13a4.27,4.27,0,0,0-2.46.49,1.52,1.52,0,0,0-1-.28l-.5.14-.35-.14a2.38,2.38,0,0,0-1.23.42,2.43,2.43,0,0,1-.88.42c-.94,0-1.4-.59-1.4-1.76v-.35c.18-.37.7-.66,1.54-.84a14.33,14.33,0,0,1,1.41-.28A4.22,4.22,0,0,0,666,178c.07-.52.13-.94.17-1.27a5,5,0,0,0,.07-.7l-.21-1.26.21-.85-.21-.56.14-.7-.21-.64.21-1.82a1.4,1.4,0,0,0,0-.53,3.47,3.47,0,0,1,0-.6l.21-1.83-.28-1.76a3,3,0,0,1,.07-.63,5.93,5.93,0,0,0,.14-.67,3.24,3.24,0,0,0,0-.84c0-.3,0-.6,0-.88v-.77a.13.13,0,0,1-.14-.14l.21-.5-.21-.84a6.82,6.82,0,0,1-.17-2c0-.82,0-1.51,0-2.08Z"/><path d="M712.36,153.36l2,2.88v.14a2.65,2.65,0,0,0,.59,1.76,5.23,5.23,0,0,1,1,1.69,4.26,4.26,0,0,1-.42.49,1.63,1.63,0,0,0-.35.56,2.68,2.68,0,0,1-.7.14l-1.13-.07a1.07,1.07,0,0,0-.7.22,1.56,1.56,0,0,0-.85-.22H711a3,3,0,0,1-1.19-.21.66.66,0,0,0-.43.43c-.09.23-.42.34-1,.31a4.6,4.6,0,0,0-1.23.07,3.34,3.34,0,0,0-.6.21,1.45,1.45,0,0,1-.63.11l-1.41-.14h-1.69c-.42.65-.63,2.39-.63,5.2l.49,3.09-.07,1.48a1.73,1.73,0,0,0,.14.92,2.16,2.16,0,0,1,.5,1.37,3.48,3.48,0,0,0,.38,1.51,5.73,5.73,0,0,1,.5,1.23,8,8,0,0,0,.38,1.16,3.3,3.3,0,0,0,1,1.3,2.61,2.61,0,0,0,1.69.6,2.56,2.56,0,0,0,1.62-.53,7.91,7.91,0,0,1,1.05-.74c.26-.14.41-.2.46-.17s.15,0,.31-.11a5.46,5.46,0,0,0,.85-.7,6.84,6.84,0,0,0,.74-.78,3.68,3.68,0,0,0,.28-.59l.38-1.09c.17-.47.41-.71.74-.71s.67.25,1,.74a2.55,2.55,0,0,1,.53,1.48,1.29,1.29,0,0,1-.81,1.16,1.89,1.89,0,0,0-1,1.19c-.75.33-1.18.65-1.3.95a1.18,1.18,0,0,1-.35.56c-.12.08-.2.1-.25.08a.37.37,0,0,0-.21,0c-.09,0-.14.09-.14.28a5.77,5.77,0,0,0-.84.7,1.83,1.83,0,0,0-1.69.32,2.81,2.81,0,0,1-1.62.6,2.08,2.08,0,0,1-1.4-.56,2.21,2.21,0,0,1-.78.14,2.47,2.47,0,0,0-.84.14,3.78,3.78,0,0,0-1.27-.85,14.37,14.37,0,0,1-1.4-.63c-.1-.28-.2-.43-.32-.46s-.13-.2,0-.52l-.53-.28-.53-.29a3.75,3.75,0,0,0-.77-1v-.91a1.21,1.21,0,0,1-.74-.88,1.62,1.62,0,0,0-.74-1,8.39,8.39,0,0,0-.31-1.66,5.41,5.41,0,0,1-.25-1.65v-1.26l-.49-3v-.56l.21-.63-.21-.63.49-3,.28-.42q.35-1.83.6-3.3a9,9,0,0,1,1-2.85c.49-.92,1-1.78,1.51-2.6a6.9,6.9,0,0,0,1-2.29,29.8,29.8,0,0,1,4.29-2.88,1.67,1.67,0,0,0,.56.14l1.13-.21a2.3,2.3,0,0,1,1.47.84l.78-.14h.28a1.15,1.15,0,0,1,.17.49.38.38,0,0,0,.32.35,2.65,2.65,0,0,1,1,1.52,2,2,0,0,0,1,1.37Zm-2,5.91,2.39-.5v-.28a3.46,3.46,0,0,0-.11-.84,8.33,8.33,0,0,1-.17-.84,4.84,4.84,0,0,0-.81-.78,1.1,1.1,0,0,1-.32-1.05,1.21,1.21,0,0,1-.81-.92c-.11-.46-.22-.91-.31-1.33-.1,0-.14-.1-.14-.28a6.55,6.55,0,0,1-.71-.57,3.31,3.31,0,0,0-2.42-.77,3.66,3.66,0,0,0-2.11.39,4.79,4.79,0,0,0-1,2.11c-.33,1.15-.62,2.11-.88,2.88a7.33,7.33,0,0,0-.39,2.35v.43l2.25.28,1.62-.14.56.14,1.13-.28,1,.14.57-.28Z"/><path d="M728,179.87c-.57.23-1,.38-1.27.46a1.67,1.67,0,0,0-.67.31,2,2,0,0,1-.59.35,1.8,1.8,0,0,1-1.62-2.25,6.72,6.72,0,0,0-.88-.35,2.32,2.32,0,0,1-.81-.42v-2.11a3.61,3.61,0,0,0,.56-.91,2.44,2.44,0,0,1,.5-.78.8.8,0,0,1,.52-.28.64.64,0,0,0,.39-.1.82.82,0,0,0,.21-.25.53.53,0,0,1,.21-.21l1-.14a5.14,5.14,0,0,1,1-.14,1.44,1.44,0,0,1,1.41.95,4,4,0,0,1,.42,1.44.83.83,0,0,0,.17.63c.12.1.18.48.18,1.16A7.2,7.2,0,0,1,728,179.87Zm-.28-28.69-.43,7.81.07,2.25c0,1-.16,1.47-.49,1.47-.14,0-.14,0,0,.14a12.06,12.06,0,0,0-.6,1.27c-.21.51-.48.77-.8.77-.61,0-1.11-.49-1.48-1.47a7,7,0,0,1-.49-3.17v-2.88l-.14-2.32.14-3-.14-1.4.28-.85-.14-.84.07-2.46a52.61,52.61,0,0,0-.39-7.52,26.44,26.44,0,0,1-.39-3.27,3.91,3.91,0,0,1,.32-1.55,6.5,6.5,0,0,0,.39-1.09c0-.33.18-.49.42-.49s.23,0,.28-.14.12-.28.21-.28a2,2,0,0,1,1.37.42c.31.28.59.55.85.81a2.69,2.69,0,0,0,.52.45,2.85,2.85,0,0,1,.28.64l.29.14a.65.65,0,0,1,0,.35.37.37,0,0,0,.11.35l.28.14a3.62,3.62,0,0,1,.28,1.27l-.49,3.44.21,3.45v3.23a14.68,14.68,0,0,1-.21,2.71A9.48,9.48,0,0,0,727.69,151.18Z"/></svg>