<svg id="Layer_1" data-name="Layer 1" xmlns="http://www.w3.org/2000/svg" viewBox="0 0 1920 1080"><defs><style>.cls-1{fill:#fbb03b;}.cls-2{fill:#f7931e;}.cls-3{fill:#006837;}.cls-4{fill:#ff0;}.cls-5{fill:#85aa52;}.cls-6{fill:#daec70;}.cls-7,.cls-9{fill:none;stroke:#000;stroke-miterlimit:10;}.cls-8{fill:#1b1464;}.cls-9{stroke-width:2px;}</style></defs><path class="cls-1" d="M357,408.28c-30.78,56,10.1,114.14,79.4,151.48S577.16,599.52,608,543.49s49.22-127.78-60.08-186.67C444.37,301.06,387.77,352.24,357,408.28Z"/><path class="cls-2" d="M417.38,440.82c26.53-48.29,68.43-95,130.35-79.61,48.61,44.16,28.48,102.6,1.95,150.88C525,557,482.54,568.88,439.25,557,405.7,527.48,392.7,485.75,417.38,440.82Z"/><path class="cls-2" d="M518.74,341.13q5.67,3.06,10.7,6.26C456,314.65,407.67,366.23,378.27,419.74,349.56,472,371.83,519.93,418.1,549.41c-3.63-1.63-7.26-3.41-10.85-5.35C354,515.4,326.2,464.32,357,408.28S439.26,298.31,518.74,341.13Z"/><path class="cls-2" d="M585.92,531.62c29.4-53.52,51-119.5-20.24-164.71q5.21,2.32,10.58,5.21C660.18,417.33,638,487,607.2,543.08s-89.22,60.64-142.43,32c-3.6-1.93-7.08-4-10.43-6.12C504.47,591.39,557.21,583.87,585.92,531.62Z"/><path class="cls-3" d="M556.91,363.87s3.18-3.93,3.69-6.36S565,346.58,563.78,339s-4.35-16.67-5.2-16.39-3.29-1.52-4-.17-1.07,10.78-7.06,23.45c-1,2.11-6.86,9.73-4.5,13.48s10.3,4.49,11.15,4.21A6.82,6.82,0,0,1,556.91,363.87Z"/><path class="cls-1" d="M452.13,459.53c26.52-48.28,61.92-98.49,95.68-98.28,19.44,28.45-5.48,84.31-32,132.59-24.68,44.93-52.75,64.54-76.11,63.44C426.07,538.45,427.44,504.46,452.13,459.53Z"/><path d="M633.73,459.92c2.88-5.16-9.83,52.4-10.58,46.9s-5.83-15.56-5.6-12.17-11.65,25.6-9.53,16.8,3.34-18.56,4.58-22S630.85,465.08,633.73,459.92Z"/><path d="M598.27,447.19c-3.71,7.68-2.77,23.26-3.52,28.65s-11.91,23.71-9.51,15-1.08-15.82-1.66-11.57-15.61,24.84-12.73,16,1.67-13.61,2.53-20.6S602,439.5,598.27,447.19Z"/><path d="M465.92,576.68c7.81,4.34,25.57,8.05,25.57,8.05s18.91-8.51,14.78-8.11-20.17,0-20.17,0,7.59-17.82,3.95-13-18.94,8-18.94,8-4-19.2-5.67-14.42-7.12,4.12-7.12,4.12-6.48-18.26-8.13-13.47-5,10.92-8,9.31-15.25-9.36-18-13.13,7.38-1.25,0-5.44-15.22-16.37-14.63-10.38-1.41,11.39-4.26,7.75-9.55-19.73-10-15.42,1,8.89-3,5.42-9.55-14.43-9-11.87-2.79,8.37.58,12.06,22.6,19.73,34.9,27.5,28,15.09,33.89,18.25S458.12,572.33,465.92,576.68Z"/><path d="M546.65,504.59c.88,5.3,2.19,30.42,2.19,30.42s18.81-7.6,20.67-9.94-9.28,22.2-9.28,22.2,25.84-10.84,27.73-15-8.53,22.61-8.53,22.61S606,540,599.66,545.79s-9.56,16-9.56,16,3.6-1.92,7.53-3.69l-.42.19a91.9,91.9,0,0,1-18.91,18.27v0c2-7-.28-10.17-2-7.29s-13.92,11.64-10,4.37.76-20.6-.6-16.64-20.55,14.61-14.84,8.32-2.8-17.37-3.9-14.14-11.94,12.69-9.44,7S545.77,499.3,546.65,504.59Z"/><polygon class="cls-4" points="1304.77 704.26 1174.85 744 1315.93 741.63 1256.23 812.87 1344.01 747.07 1333.25 818.42 1375.15 720.44 1378.67 835.9 1414.36 725.36 1458.24 838.84 1474.58 708.5 1530.46 803.24 1512.21 687.18 1579.51 769.35 1546.13 646.76 1629.35 673.07 1571.94 588.05 1622.66 563.8 1571.39 559.19 1593.25 488.72 1553.38 524.11 1528.81 492.97 1516.43 551.25 1469.29 499.64 1481.54 579.58 1423.06 566.13 1443.62 611.3 1371.46 591.64 1391.24 650.44 1276.83 607.11 1332.7 668.72 1184.86 637.79 1304.77 704.26"/><path class="cls-1" d="M1380.75,693.75a123,123,0,0,0,16,10.49c10.21-28.49,13.3-60.65,28-86.85,2.3-4.45,20.07,4.73,22.36.28,9.61-16.42-2.2-37.15-4.18-57.3,10.26,1.92,23.59,8.8,29.93,3.07,11-11.43,14.13-28.93,20.6-44.65-63.54-80.47-132.36-61.2-182.61-27.41-53.06,35.67-43.39,106.06,1.07,171,12.17,17.79,25.68,33.32,40,45.77C1364.82,709.5,1376.22,708.11,1380.75,693.75Z"/><path class="cls-2" d="M1424.67,617.39c2.3-4.45,20.07,4.73,22.36.28,9.61-16.42-2.2-37.15-4.18-57.3,10.26,1.92,23.59,8.8,29.93,3.07,8.91-9.23,12.64-22.41,17.15-35.42-45.51-29.35-98.42-8.26-140.42,20-42.54,28.61-50.13,71.66-33.88,113.32,24.68,22.69,55,33.4,86.51,25.46C1408.63,663.11,1413,638.34,1424.67,617.39Z"/><path class="cls-2" d="M1324.42,511.33c50.67-34.07,117.23-57.76,167.52,5.05q-3-5.16-6.64-10.47c-51-74.51-121.47-50.21-174.53-14.53s-51.76,93.83-17.62,143.71c2.3,3.37,4.71,6.62,7.19,9.73C1272.74,597.4,1274.94,544.59,1324.42,511.33Z"/><path class="cls-2" d="M1323.58,678.79q3,5.16,6.46,10.22a160.08,160.08,0,0,0,14.47,18.21c3.94.58,7.81,1.09,11.51,1.27A132.77,132.77,0,0,1,1323.58,678.79Z"/><path class="cls-1" d="M1424.67,617.39a132.38,132.38,0,0,0-9.24,21c9.21-6.24,18.46-12.77,27.3-19.51C1436.64,618.31,1426.38,614.08,1424.67,617.39Z"/><path class="cls-1" d="M1442.85,560.37c10.26,1.92,23.59,8.8,29.93,3.07,7.76-8,11.59-19.08,15.44-30.4-31.08-3.71-77,21-116.42,47.52-42.54,28.61-59.36,58.18-55.89,81.15,20.25,11.7,54.19,7.15,96.74-21.45l2.78-1.89a132.38,132.38,0,0,1,9.24-21c1.71-3.31,12,.92,18.06,1.47q3-2.29,6-4.63C1455.05,598.41,1444.69,579.14,1442.85,560.37Z"/><path d="M1349.35,709.87s20.71,1.11,16.86-.43c-.63-.25-1.52-.66-2.57-1.17-5.19.66-11,.1-17.09-.75C1348.25,709,1349.35,709.87,1349.35,709.87Z"/><path d="M1348.27,700.21s14.91-12.34,9.45-9.7-20.48-1.61-20.48-1.61,5.24-18.9,1.57-15.41-8.21.4-8.21.4,2.61-19.19-1-15.7-9.48,7.39-11.4,4.59-9.26-15.31-10-19.94,7.14,2.27,2.52-4.82-6-21.54-8.24-15.94-6.47,9.48-7.34,4.94.57-21.92-1.79-18.28-3.24,8.33-5.14,3.45-1.85-17.21-2.55-14.69-6.32,6.16-5,11,11,27.9,18.4,40.44,18,26.26,21.74,31.77,4.66,2.84,9.61,10.29c3.56,5.36,11.86,12.79,16.22,16.53,6,.85,11.9,1.41,17.09.75C1358.17,705.62,1348.27,700.21,1348.27,700.21Z"/><rect class="cls-5" x="1339.53" y="718.87" width="12" height="34" rx="6" transform="translate(1920.17 -686.01) rotate(83.33)"/><path class="cls-6" d="M1536.13,721.62c-9.29,40.37-61.24,49.54-119.64,36.11s-101.13-44.36-91.85-84.73,33.37-82.63,125.46-61.45C1537.33,631.6,1545.41,681.25,1536.13,721.62Z"/><circle class="cls-1" cx="1490.56" cy="698.32" r="33.5"/><ellipse cx="1479.21" cy="709.05" rx="20.94" ry="4.28" transform="translate(456.75 1991.78) rotate(-77.05)"/><circle class="cls-1" cx="1381.11" cy="670.08" r="33.5"/><ellipse cx="1385.11" cy="658.68" rx="20.94" ry="4.28" transform="translate(432.82 1860.98) rotate(-77.05)"/><path class="cls-5" d="M1543.87,713.8s-7.79,1.15-8.3-4.84-4.82-36.33-.34-55.84,13.83-43.78,15.62-43.37,5.23,10,6.38,13.2,3.41,10.61,6.37,13.21c3.51,3.08,12.67,18.41,13.39,23.62.76,5.45,5.74,16-.4,26.33s-24.93,26.55-26.72,26.14S1543.87,713.8,1543.87,713.8Z"/><path class="cls-5" d="M1319.94,664.37s6.51,4.43,9.58-.73,20.21-30.58,24.7-50.09,6.67-45.42,4.89-45.83-9.08,6.71-11.51,9.09-7.7,8.05-11.5,9.1c-4.5,1.24-19.44,11-22.36,15.4-3.06,4.57-12.15,11.88-11.14,23.86s10.83,34.77,12.62,35.18S1319.94,664.37,1319.94,664.37Z"/><path class="cls-7" d="M1429.16,699.33a11.13,11.13,0,0,1,2.31,9.17c-1.19,5.2-9.43,9.47-9.43,9.47"/><path class="cls-6" d="M1533.7,705.38c-3.53,15.35-20,.09-43.9-5.41s-46.36.82-42.83-14.53,13.09-31.34,50.86-22.65C1533.61,671,1537.23,690,1533.7,705.38Z"/><path class="cls-6" d="M1436.72,654.12c-1.52,6.65-19.37-2.43-43.32-7.93s-44.94-5.37-43.41-12,8.84-12.84,46.61-4.15C1432.37,638.25,1438.25,647.47,1436.72,654.12Z"/><path class="cls-6" d="M1338.32,684.91c1.49-6.46,19.36,2.48,43.31,8s44.91,5.5,43.43,12-8.75,12.43-46.52,3.75C1342.76,700.37,1336.84,691.37,1338.32,684.91Z"/><path class="cls-6" d="M1439.61,717.43c1.49-6.46,19.36,2.48,43.31,8s44.91,5.49,43.43,12-8.75,12.44-46.53,3.75C1444.05,732.9,1438.13,723.89,1439.61,717.43Z"/><ellipse cx="1402.32" cy="736.65" rx="8" ry="7" transform="translate(370.18 1938.26) rotate(-77.05)"/><path d="M1230.62,269.94a8.88,8.88,0,0,1,6.25,3.61q.48.72,1,1.38a4.79,4.79,0,0,1,.72,1.51,12.13,12.13,0,0,1,.48,5.17,16.26,16.26,0,0,0,.36,5.47c.4,1.4.8,2.74,1.21,4q1.08,3.38-1.33,9-1.8,5.17-4.45,6.13l-2.16.72a11.75,11.75,0,0,1-5.35.79,4.83,4.83,0,0,1-3.07-1.27,7.66,7.66,0,0,1-1.2-7.21,7.13,7.13,0,0,0,0-2.65,2.55,2.55,0,0,0-2-2.28,1.76,1.76,0,0,1-1.26-.84c-.21-.4-.37-.74-.49-1a2,2,0,0,0-.36-.6q-.18-.18-1.14.54t-1.08.78-.78-.18a1.43,1.43,0,0,0-1.27.12,3.93,3.93,0,0,0-1.2,1.32q-2.16,3.73-.84,12.14c.32,1.69.64,3.25,1,4.69a45.5,45.5,0,0,1,.91,7.22,13.77,13.77,0,0,1-.73,3.78c-.44,1.33-.82,2.63-1.14,3.91-1,3.29-.84,6.09.36,8.42a40.44,40.44,0,0,0,2.77,5.05,3.05,3.05,0,0,0,2.64.9,3.12,3.12,0,0,0,2.41-1.56,26.5,26.5,0,0,0,1.56-3,31.28,31.28,0,0,1,1.56-3.06,3.13,3.13,0,0,1,2-1.69,9.91,9.91,0,0,1,2.94-.06c1.2.12,2,.18,2.47.18a2.82,2.82,0,0,1,1.62.78c.64.53,1,1.69,1,3.49s.1,3.25.18,4.33a4.1,4.1,0,0,1-.84,2.88,7.48,7.48,0,0,0-1.26,2.29,12.53,12.53,0,0,0-.42,2,7.66,7.66,0,0,1-.9,3.73,21.49,21.49,0,0,1-1.45,2c-.44.53-1.6.79-3.48.79a6.66,6.66,0,0,0-5.11,2.64q-2.3,2.64-4.33,2.35a3.57,3.57,0,0,1-2.89-2.47q-.84-1.92-3.72-2a6.35,6.35,0,0,1-1.57-.42,8.41,8.41,0,0,0-1.68-.48,5.59,5.59,0,0,1-1.92-.79,10,10,0,0,1-4-4.21,22.29,22.29,0,0,0-1.87-3,19.36,19.36,0,0,1-1.5-2.29,6.38,6.38,0,0,1-1.2-4.56q.72-5.78-1.56-7.58c-.89-.56-1.33-1-1.33-1.32a9.25,9.25,0,0,0-.48-2,8.69,8.69,0,0,1,.06-5.05,12.68,12.68,0,0,0,.54-4.75c-.16-1.25-.36-2.55-.6-3.91-.48-3.53-.52-5.85-.12-7a11.59,11.59,0,0,0,.3-4.8c-.2-2.09-.3-3.79-.3-5.11s-.1-3.07-.3-5.24a44.65,44.65,0,0,1-.06-7q.84-9.37,6.37-12.86,8.29-4.94,10.58-4.69a10.27,10.27,0,0,1,1.75.18,4.71,4.71,0,0,0,2-.06,5.33,5.33,0,0,0,1.68-.72,14.08,14.08,0,0,0,1.45-1.09q2.88-2.64,5.17-.6a21.12,21.12,0,0,0,3.36,3.37A11.19,11.19,0,0,0,1230.62,269.94Z"/><path d="M1277.15,268.38l3.84-.24c2.73,0,4.67.44,5.84,1.32a16.74,16.74,0,0,1,2.64,2.41,20.91,20.91,0,0,1,1.62,2.22,12.7,12.7,0,0,0,2,2.35,3.77,3.77,0,0,1,1.26,2.82,3.65,3.65,0,0,0,.9,2.59,4.47,4.47,0,0,1,.9,3.12c0,1.45,0,2.83-.06,4.15a13.68,13.68,0,0,1-.42,3.25,9.14,9.14,0,0,0-.36,2.52,4.84,4.84,0,0,0,.54,2.29c.36.68.4,2.32.12,4.93a68.75,68.75,0,0,1-1.32,7.87,30.29,30.29,0,0,1-2.34,6.85,20,20,0,0,1-9.38,8.54c.4,1,.86,2,1.38,3.19s1,2.34,1.5,3.54a22.65,22.65,0,0,1,1.57,6.44,16.31,16.31,0,0,0,.18,2.88,5.57,5.57,0,0,0,.42,1.38,1.63,1.63,0,0,0,.66.73,11.85,11.85,0,0,1,1.26.9,4.38,4.38,0,0,1,1.32,2.22,11,11,0,0,1,.48,3.25c0,2.56-.3,4.15-.9,4.75a4.54,4.54,0,0,1-1.92,1.2,12.13,12.13,0,0,1-2.11.42q-2.76.36-3.48-.72a3.08,3.08,0,0,1-1-2,5,5,0,0,0-.43-1.81,1.6,1.6,0,0,0-1.08-1q-.72-.18-1-1.5a3.12,3.12,0,0,0-.84-1.75,3.22,3.22,0,0,0-2.22-.18c-2,.41-3.49-.8-4.45-3.6a20.83,20.83,0,0,1-.72-2.53c-.25-1-.53-2-.85-3q-1-3.5-2.22-3.79a1.88,1.88,0,0,0-1.86.3,3.64,3.64,0,0,0-.91,1.62,8.09,8.09,0,0,0-.3,2.29,13.27,13.27,0,0,0,.3,2.7,5.51,5.51,0,0,1,.06,2.41,4.7,4.7,0,0,1-.66,1.56,8.05,8.05,0,0,1-.9,1.08,3,3,0,0,0-1.14,2.41,19.28,19.28,0,0,1-.54,3.12c-.48,2.17-1.13,3.53-1.93,4.09a5.66,5.66,0,0,1-2.4,1,6.91,6.91,0,0,1-2.4-.06c-2-.4-3.25-1.1-3.73-2.1a8.65,8.65,0,0,1-.84-2.29,5.46,5.46,0,0,1-.06-1.5c0-.48.09-1,.18-1.56a10.42,10.42,0,0,0,.06-2,19.11,19.11,0,0,0-.54-3.06,22.7,22.7,0,0,1-.61-4.57l-.12-3.13a3.51,3.51,0,0,1,.85-1.62,3.22,3.22,0,0,0,.54-2.65,2.34,2.34,0,0,0-1.39-1.92q-1.08-.42-1.08-1c0-.4.08-1.4.24-3a28.77,28.77,0,0,0-.18-6c-.28-2.4-.46-4.53-.54-6.37q-.48-6-2.1-6.79a3,3,0,0,1-1.87-1.93,7,7,0,0,1,0-2.58c.16-1,.34-2.17.54-3.61s.42-2.9.67-4.39.46-2.86.66-4.15.34-2.16.42-2.64a5.4,5.4,0,0,0,.06-1.38c0-.44-.06-.86-.06-1.27a11.76,11.76,0,0,1,0-3.36,11.92,11.92,0,0,0,.24-3.91,8.07,8.07,0,0,1,.42-3.49,20.94,20.94,0,0,1,1.14-3.3,3.06,3.06,0,0,1,1.8-1.45,10.65,10.65,0,0,0,2.59-1.38q1.26-.9,2.34-1.8c.73-.6,1.37-1.16,1.93-1.69a5.1,5.1,0,0,1,2-1.14,10.73,10.73,0,0,1,5.11-.18,7.52,7.52,0,0,1,2.35,1.14,12.22,12.22,0,0,0,1.74,1.21,8.51,8.51,0,0,0,2.16.9,8.31,8.31,0,0,0,2.11.3,7.59,7.59,0,0,1,3.06.66A2,2,0,0,0,1277.15,268.38Zm-10,33.55.72,10.94a18,18,0,0,1-.12,2.1q-.12,1-.24,1.86c-.08,1.21.36,1.93,1.32,2.17a1.82,1.82,0,0,0,1.92-.66,9.5,9.5,0,0,0,1.33-2.47c1-2,1.28-3.28,1-3.85a2,2,0,0,1-.54-2.1c.28-.6.88-1.78,1.8-3.55a33.59,33.59,0,0,0,2-4.57,8.41,8.41,0,0,0,.31-4.14,22.06,22.06,0,0,1-.37-3.07v-1.32a2.28,2.28,0,0,0-.9-1.74,3.5,3.5,0,0,0-1.26-.85,3.77,3.77,0,0,0-.6-.06,3.16,3.16,0,0,1-2-.18,3.87,3.87,0,0,0-1.81-.36,3.32,3.32,0,0,0-1.92,1.14,3.73,3.73,0,0,0-1.2,2.23,13.85,13.85,0,0,0,0,2.58A52.3,52.3,0,0,1,1267.17,301.93Z"/><path d="M1310.21,356.27a4.3,4.3,0,0,1-2.71-.18,3.42,3.42,0,0,1-2.1-2,12.54,12.54,0,0,1-.78-3.49,30,30,0,0,1-.06-4.27c.08-1.52.12-3,.12-4.45,0-3.2-.52-5.25-1.56-6.13q-3.25-2.4-2.65-12.26a90.77,90.77,0,0,1,1.32-9,42.42,42.42,0,0,0,1.15-9.38,41.63,41.63,0,0,1,.24-6,26,26,0,0,1,.72-3.61q.42-1.44,1-3a25.25,25.25,0,0,0,1.08-5.17q1.2-9,2.17-11.18a60.94,60.94,0,0,1,3.18-6.2,19.22,19.22,0,0,1,3.07-4.26c1.84-1.37,4.49-1.49,7.93-.37a15.13,15.13,0,0,0,7.16.85,32,32,0,0,1,5-.43,8.66,8.66,0,0,1,3.9,1.33,10.22,10.22,0,0,1,3.37,3,11.2,11.2,0,0,1,1.68,3.79,24.33,24.33,0,0,1,.13,8.84,47.43,47.43,0,0,0-.55,8.66,18.35,18.35,0,0,0,1.45,6.25,31.15,31.15,0,0,1,1.68,4.69q.42,1.74.72,3.48c.2,1.17.36,2.41.48,3.73a38.45,38.45,0,0,0,.72,4.51,26.61,26.61,0,0,1,.61,4,18.36,18.36,0,0,1-.06,2.46c-.09.64-.19,1.22-.31,1.74a6.49,6.49,0,0,0,.12,2.41,10.56,10.56,0,0,1,0,3.55q-.3,1.92-.66,3.72-1.32,5.53-1.08,7.82a17.12,17.12,0,0,1,0,5.83q-.48,1.74-.9,2.82c-.28.73-.6,1.73-1,3a7.56,7.56,0,0,1-2.23,3.49q-1.68,1.56-3.18,1a3.1,3.1,0,0,1-1.93-1.74,22.84,22.84,0,0,1-.72-2.35,13.66,13.66,0,0,0-.72-2.16,1.73,1.73,0,0,0-1.5-1.08,2.14,2.14,0,0,1-2-2.23,19.74,19.74,0,0,1,.06-3.49,8.84,8.84,0,0,0-.18-3.06,10.77,10.77,0,0,0-1.2-3c-1.44-2.48-3.13-3.84-5-4.09-2.88-.4-4.89,1-6,4.21a16.83,16.83,0,0,0-.54,3.19,9.89,9.89,0,0,1-1,3.55,13.66,13.66,0,0,1-1.69,2.64l-1.68,2a4.56,4.56,0,0,0-1,2.22C1313.66,353.83,1312.29,355.79,1310.21,356.27Zm10.7-50.38q-2.4,6.5-.6,10.34a3.84,3.84,0,0,0,3.13,2.29q3.48.36,4.14-.54c.44-.6,1-1.25,1.57-1.93a3.91,3.91,0,0,0,.66-3.12c-.16-1.4-.28-2.65-.36-3.73a10.12,10.12,0,0,0-1.14-3.67,14.45,14.45,0,0,1-1.39-4.39c-.24-1.56-.4-3.06-.48-4.51q-.48-4.8-2.16-4.8a1.44,1.44,0,0,0-1.51,1.26,19.75,19.75,0,0,0-.42,3.3A27.79,27.79,0,0,1,1320.91,305.89Z"/><path d="M1399.24,284.73a2.93,2.93,0,0,1,.18,1.56,8.11,8.11,0,0,1-1.68,2.89,9.05,9.05,0,0,0-1.86,4.39,18.61,18.61,0,0,0-.18,3.85,15.77,15.77,0,0,1,0,2.58,3.81,3.81,0,0,1-2.89,3.61c-1.6.64-2.85.6-3.73-.12a8.1,8.1,0,0,1-2.16-2.83,26.09,26.09,0,0,1-1.26-3c-.29-.84-.75-1.3-1.39-1.39a3,3,0,0,0-2.58.36,17.41,17.41,0,0,0-1.38,1.21,5.48,5.48,0,0,1-2,1.32,9.13,9.13,0,0,0-1.62.72,2.7,2.7,0,0,0-1,2.77q.48,3.72,8.29,11.3,1.46,1.44,3.43,3.12a41.5,41.5,0,0,1,3.91,3.85,20.16,20.16,0,0,1,4.81,11.66,22.23,22.23,0,0,1-1.93,11.55c-1.28,2.64-2.8,4.37-4.57,5.17a5.7,5.7,0,0,0-2.76,2.82c-.48,1.17-.84,2-1.08,2.53a3,3,0,0,1-1.51,1.32,5,5,0,0,1-2.58.42,11.63,11.63,0,0,1-2.71-.54,15,15,0,0,1-2.28-1,6.2,6.2,0,0,0-1.68-.66,1.45,1.45,0,0,0-1.27.42q-.6.54-1.2,1.14c-1.2,1.2-2.28,1.66-3.25,1.38a20.68,20.68,0,0,1-3.36-1.38,20.22,20.22,0,0,1-3.73-2.41q-6.49-5-4.45-10.34a12.52,12.52,0,0,1,3-4.92,4.54,4.54,0,0,1,2.58-1.45,2.11,2.11,0,0,1,2.11,1.14l.9,1.93a4.32,4.32,0,0,0,.84,1.26,5.4,5.4,0,0,0,1.5,1,6.57,6.57,0,0,0,2.23.6,4.53,4.53,0,0,0,4.57-2.4,9,9,0,0,0,1.2-5.77c-.56-3.77-1.37-5.37-2.41-4.81a3.4,3.4,0,0,1-3.24.06c-1.29-.52-2-1.2-2-2.05a12.74,12.74,0,0,0-.48-2.46,19.17,19.17,0,0,0-.84-2.28c-.72-1.85-1.36-2.85-1.92-3a11.15,11.15,0,0,0-2.59-.24q-1.62,0-3.54-2.1a12.34,12.34,0,0,1-2.77-5.29c-.56-2.13-1-4-1.44-5.54s-.76-2.78-1.08-3.66a25.57,25.57,0,0,1-.85-2.77q-1.2-4.56-.12-11.78a21.12,21.12,0,0,1,2.65-7.4,67.57,67.57,0,0,1,4.33-6.31q4.56-6.12,8.41-8.53c2.57-1.61,4.53-1.77,5.9-.48a4.74,4.74,0,0,0,3.9,1.26,23.88,23.88,0,0,0,3.31-.66l2.16-.48a8.13,8.13,0,0,1,4.15.12q2.1.6,3.79,4.08a21.86,21.86,0,0,0,1.74,3.13c.6.88,1.18,1.72,1.75,2.52a14,14,0,0,1,2.1,4.75,7.39,7.39,0,0,0,.84,2.71A10.14,10.14,0,0,1,1399.24,284.73Z"/><path d="M1435.49,339.68l.12-9.14v-3c0-2.41-.24-3.93-.72-4.57a3.58,3.58,0,0,0-3.37-1.63,4,4,0,0,0-3.3,1.39A6.11,6.11,0,0,0,1427,326c-.12,1.28-.2,2.69-.24,4.21s-.06,3.17-.06,4.93a55.8,55.8,0,0,0,.06,8.18,10.87,10.87,0,0,1,0,3.66,4.09,4.09,0,0,1-1.27,1.57,5.78,5.78,0,0,0-1.56,2q-.6,1.26-1.08,2.58c-1,2.09-2,3.17-3,3.25q-4.68.48-8-5.05a11.14,11.14,0,0,0-1.93-2.52q-2.52-2.77-1-8.9a29.15,29.15,0,0,0,.6-5.95,27.73,27.73,0,0,0-.24-4.39,9.1,9.1,0,0,1,0-2.95,4.9,4.9,0,0,0-.36-2.88,6.43,6.43,0,0,1-.42-3.31,10,10,0,0,0-.24-3.55,5.79,5.79,0,0,1-.18-2.7,2.32,2.32,0,0,0-.3-1.92,2.86,2.86,0,0,1-.36-2.11q.18-1.38.3-2.94c.24-2.89-.12-5.09-1.08-6.62a24.22,24.22,0,0,1-2.47-5.29,11.58,11.58,0,0,1,.3-7.21,33.76,33.76,0,0,0,1.2-14.07,8.66,8.66,0,0,1,.85-4.45q1.56-4,10.22-4.45a23.13,23.13,0,0,0,5-.72,8.79,8.79,0,0,1,4.44-.06,3.2,3.2,0,0,1,2.59,2.83,20.23,20.23,0,0,0,.66,3.12,8.88,8.88,0,0,1,.42,1.69,15.68,15.68,0,0,1-.48,5,38.47,38.47,0,0,0-.84,5.77c-.08,1.56-.12,3.06-.12,4.51a25.51,25.51,0,0,1-.42,7.51,7.48,7.48,0,0,0-.42,3.37,3.61,3.61,0,0,0,1,1.86c1.6,1.44,3.81,1.29,6.61-.48a3.2,3.2,0,0,0,1.08-1.2,56.1,56.1,0,0,1-.72-8.3c-.08-4.89-.24-8.71-.48-11.48a27.47,27.47,0,0,1,.12-6.91,10.68,10.68,0,0,1,2.53-5.17q2-2.41,3.78-2.11a5.2,5.2,0,0,1,2.89,1.44,2.65,2.65,0,0,0,2.1,1,7.16,7.16,0,0,0,2.65-1.2q4.44-2.65,8.3,3.24c-.81.8-1,2.27-.67,4.39a12.23,12.23,0,0,1,.18,4.57,19.82,19.82,0,0,0-.48,3.85c-.08,1.64-.14,3.22-.18,4.75a47.66,47.66,0,0,1-.66,6,44.94,44.94,0,0,0-.12,11.9,62.78,62.78,0,0,1,.24,12.14,60.09,60.09,0,0,0-.24,9,14.6,14.6,0,0,1-.18,4.81c-.28.8-.58,1.6-.9,2.41a17.73,17.73,0,0,0-2,7.09c-.17,2-.29,4-.37,5.95a31.82,31.82,0,0,1-.6,5.23q-1.08,5.17-4.93,5.17c-2.88,0-4.53-2.2-4.93-6.61a9.28,9.28,0,0,1-4.5-2.89Q1435.25,344.61,1435.49,339.68Z"/><path d="M1479.74,317.8l-.24,8.53q0,8.3-3.49,11.06a5.9,5.9,0,0,1-4,1.33,4.2,4.2,0,0,1-2.7-1.33,3.93,3.93,0,0,1-1-2.52,30.67,30.67,0,0,0-.6-4.15c-.37-1.8-.81-3.61-1.33-5.41a16.38,16.38,0,0,1-.54-5.83c.16-2.08.26-4.05.3-5.89a6.19,6.19,0,0,0-1-4.09,6.36,6.36,0,0,1-1.44-4.09,6.16,6.16,0,0,1,.48-2.52,17.27,17.27,0,0,0,1.08-5.53c0-1.61,0-2.77-.12-3.49s-.18-1.42-.3-2.1-.26-1.73-.42-3.13a24.07,24.07,0,0,1,0-4.81,31.23,31.23,0,0,0,0-5.47c-.16-1.84-.26-3.33-.3-4.45a11.13,11.13,0,0,1,.78-4,13.59,13.59,0,0,1,1.38-3.06,5.29,5.29,0,0,1,1.87-1.39c.88-.43,1.48-.76,1.8-1a1.94,1.94,0,0,1,1.32-.18,3.29,3.29,0,0,1,1.8,1.14,7.19,7.19,0,0,0,2.29,1.63c.88.4,1.9.88,3.07,1.44a3.32,3.32,0,0,1,2,2.71,10.39,10.39,0,0,0,.42,2.22,2.28,2.28,0,0,0,.42.6,13.86,13.86,0,0,1,.48,3.19,16.54,16.54,0,0,1-.42,5.41,22.82,22.82,0,0,0-.72,4.51,13.34,13.34,0,0,1-.66,3.66,9.63,9.63,0,0,0-.42,3.85,15.16,15.16,0,0,1,.06,3,17.35,17.35,0,0,1-.3,1.74A7.18,7.18,0,0,0,1479,301a12.24,12.24,0,0,0,.42,2.59,11.58,11.58,0,0,1,.36,3.18,20.24,20.24,0,0,0,.12,3.07,14.72,14.72,0,0,1,0,3.25A46.45,46.45,0,0,0,1479.74,317.8Zm-15.15,34.86a3,3,0,0,1-.18-1.8,5.57,5.57,0,0,1,2-2.53,25.29,25.29,0,0,1,4.45-3c1.76-1,4.17-1.24,7.21-.84a4.26,4.26,0,0,1,3.37,2.52q2.52,4.33-2.28,7.82a10.67,10.67,0,0,1-3.85,1.74,3.85,3.85,0,0,0-2.34,1.08,2,2,0,0,1-2.11.42,2.61,2.61,0,0,1-1.92-1.5,2.53,2.53,0,0,0-1.45-1.5,6.68,6.68,0,0,1-1.74-1A3.55,3.55,0,0,1,1464.59,352.66Z"/><path d="M588.33,642.24c19.13-23.76,37.7-49.76,48.59-78.44,5.67-14.93,8.47-31.17,12.2-46.67q6.17-25.58,12.2-51.17c2.37-10.07,5.94-20.67,6.86-31,.17-1.92-2.83-1.91-3,0-.75,8.39-3.79,17.56-5.74,25.9q-5.58,23.93-11.36,47.8c-3.74,15.55-6.83,31.49-11.46,46.81-5.38,17.77-15,34.27-25,49.76a427.91,427.91,0,0,1-25.38,34.91c-1.2,1.49.91,3.62,2.12,2.12Z"/><path d="M688.84,629.06a397.63,397.63,0,0,0,21.52-56.18c3.7-12.68,6.7-25.74,7.46-39,.94-16.27.14-32.79.16-49.09,0-9.26.95-19.21-.49-28.41-.3-1.9-3.19-1.1-2.9.79,1.19,7.57.4,15.84.4,23.46,0,15.83.06,31.66,0,47.49-.1,25.77-9,51.5-18.35,75.22q-4.83,12.24-10.39,24.16c-.81,1.74,1.78,3.27,2.59,1.52Z"/><path d="M205.38,344.09c3.28,29.36,8.5,59.58,20.17,86.86,6.37,14.9,15.95,28.47,24.43,42.22q14.19,23,28.49,46c5.67,9.09,10.85,19.45,17.78,27.68,1.24,1.48,3.35-.65,2.12-2.12-5.72-6.79-10.18-15.67-14.93-23.26Q270,500,256.71,478.36c-8.52-13.79-18.1-27.41-25.35-41.93-8.08-16.19-12.79-34.08-16.5-51.72-2.83-13.42-5-27-6.48-40.62-.21-1.89-3.21-1.91-3,0Z"/><path d="M148.73,374.78a402.86,402.86,0,0,0,21.05,54.07c5.71,11.86,12.16,23.53,20.28,33.93,9.88,12.66,21.61,24.11,32.42,36,6.76,7.43,13.29,16.24,21.17,22.55,1.49,1.2,3.63-.91,2.12-2.12-6.09-4.88-11.17-11.58-16.41-17.32-10.93-12-22-23.87-32.82-36-17.13-19.2-27.8-44.46-36.77-68.28q-4.41-11.7-8.15-23.65c-.58-1.83-3.47-1.05-2.89.8Z"/><path class="cls-5" d="M425.61,618.17c21.29,26.07,42.89,52.74,67.32,75.94,11.93,11.33,26.4,20.16,39.85,29.53,18.22,12.69,36.49,25.32,55,37.61,15.12,10,30.91,17.9,47.12,26.08,6.87,3.47,13-6.88,6-10.36-14-7.07-28.14-13.63-41.28-22.23-18-11.76-35.63-24-53.27-36.22q-12.63-8.76-25.2-17.61c-5.64-4-11.37-7.76-15.79-11.64-15.06-13.22-28.2-28.89-41.3-44q-15.24-17.58-30-35.58c-4.89-6-13.33,2.55-8.48,8.49Z"/><path class="cls-5" d="M605.71,774.63l9.73,20.44c3.32,7,13.67.88,10.36-6.06l-9.73-20.44c-3.32-7-13.66-.89-10.36,6.06Z"/><rect class="cls-5" x="409.18" y="545.57" width="12" height="34" rx="6" transform="translate(38.95 -26.76) rotate(3.87)"/><path class="cls-6" d="M321.4,750.71c-67.23,57.77-58.81,13.93-81.12-12s-66.93-24.24.3-82c12.33-10.6,75.93-64.89,88.81-74.94,57.34-44.74,65.69-34.22,94.43-.77,27.88,32.44,35.31,45.3-19,96.73C394.23,687.73,332.39,741.26,321.4,750.71Z"/><path class="cls-5" d="M192.26,718.58a84.69,84.69,0,0,0-28.14-2.5c-3.71.26-7.39.7-11.09,1-2.17.19-6.27,1.14-8.31.21.62.28-.55-1.62-.79-2.64a28.69,28.69,0,0,1-.56-6.67c0-2.34.16-4.67.4-7,0-.39.29-2.49.18-1.62s0,0,.05-.29c1.23-7.55-10.33-10.8-11.57-3.19-1.49,9.18-3.12,22.9,4.14,30.09,5,5,13.36,3.43,19.69,2.8,11.11-1.1,21.91-1.59,32.81,1.36,7.46,2,10.65-9.55,3.19-11.57Z"/><path class="cls-5" d="M248.89,769.6c-2.46,9.59-7.14,17.94-12.77,26-3.68,5.28-9.88,11.78-10,18.61-.22,11.59,15.33,18.25,24.37,21.62,7.25,2.7,10.37-8.9,3.19-11.57a62.8,62.8,0,0,1-8.88-4.3,23.11,23.11,0,0,1-6-4.55c-1.1-1.27-1-.59.13-2.6,3.09-5.63,7.32-10.6,10.79-16a82.08,82.08,0,0,0,10.72-24.05c1.91-7.49-9.66-10.68-11.57-3.19Z"/><path class="cls-8" d="M284.51,789c54.8-47.08,34.75-30.52-8.59-81s-24.59-68.52-78.09-19.92c-1.43,1.3-2.78,2.49-4,3.67-2.07,1.61-4.14,3.28-6.19,5-27.24,23.41-4,19.45,5.72,30.79,4.28,5,5.25,12.08,7.3,16.5a5,5,0,0,0,1.25,2.11,5.14,5.14,0,0,0,1.9,1.56c4.07,2.69,10.94,4.72,15.21,9.7s5.26,12.07,7.3,16.49a5.18,5.18,0,0,0,1.25,2.12,5.07,5.07,0,0,0,1.91,1.55c4.06,2.69,10.93,4.72,15.21,9.7,9.74,11.34,2.33,33.7,29.57,10.29,1.9-1.63,3.73-3.29,5.5-5C281.3,791.63,282.86,790.41,284.51,789Z"/><path class="cls-5" d="M374.18,555.49c2.05,2.65-.65-.85-1.21-1.58q-2.55-3.33-5.09-6.68-8.28-10.93-16.42-22c-12.23-16.66-24.62-33.45-35.11-51.28a115.41,115.41,0,0,1-8.21-17.16q-5.43-13.25-10.72-26.54c-8.21-20.56-16.36-41.15-24.12-61.89-6.24-16.69-10.2-33.6-14.43-50.92-1.83-7.5-13.4-4.32-11.57,3.19,3.75,15.38,7,30.75,12.47,45.63,7.48,20.39,15.5,40.59,23.52,60.77,6.37,16,11.89,33.07,20,48.28,9.56,17.83,22,34.32,33.86,50.64q14,19.2,28.49,38c2,2.59,6.38,2.06,8.49,0,2.55-2.5,2-5.93,0-8.48Z"/><path class="cls-5" d="M257.5,328.49l-17.71-14.1c-2.53-2-6-2.47-8.49,0-2.09,2.09-2.55,6.46,0,8.49L249,337c2.53,2,6,2.47,8.48,0,2.09-2.09,2.55-6.46,0-8.49Z"/><path class="cls-5" d="M1321.05,788.49c33.54,2.82,67.72,5.85,101.39,4.42,16.46-.7,32.89-4.94,49-8.1,21.79-4.27,43.57-8.62,65.27-13.37,17.73-3.87,34.35-9.76,51.5-15.72,7.25-2.52,4.13-14.12-3.19-11.57-14.82,5.15-29.37,10.74-44.69,14.21-20.93,4.74-42,8.93-63.06,13.1q-15.07,3-30.18,5.87c-6.66,1.26-13.69,2.8-19.26,3.26-20,1.63-40.39.18-60.36-.92-15.48-.85-31-1.88-46.42-3.18-7.7-.65-7.66,11.36,0,12Z"/><path class="cls-5" d="M1558.65,767.79l21.46,7.22c7.33,2.47,10.48-9.11,3.19-11.57l-21.46-7.22c-7.33-2.47-10.48,9.12-3.19,11.57Z"/><path class="cls-6" d="M1152.46,813.25c-88.11,9.76-56.41-21.68-60.18-55.71S1050.7,699.77,1138.8,690c16.16-1.79,99.3-10.74,115.6-11.77,72.59-4.58,73.55,8.82,78.4,52.65,4.71,42.52,3.59,57.32-70.24,69.16C1248.12,802.36,1166.86,811.66,1152.46,813.25Z"/><path class="cls-5" d="M1063.63,713.5a82,82,0,0,0-20.16-16.8c-5.45-3.31-12.22-5.72-17.08-9.89-1-.83-1.07-.2-.66-1.82a22.63,22.63,0,0,1,3.31-6.65,56.12,56.12,0,0,1,6.44-8.13c5.32-5.6-3.15-14.1-8.48-8.49-6.56,6.9-17.43,19.79-12.11,29.94,3,5.76,10.83,8.82,16.23,11.8,9.06,5,17.27,10.58,24,18.52,5,5.89,13.47-2.63,8.49-8.48Z"/><path class="cls-5" d="M1081.57,788.27c-7.58,6.64-16.51,10.84-25.86,14.32-5.89,2.19-14.71,4.18-18.2,10-5.57,9.26,2.37,22.47,7.76,30.1,4.41,6.26,14.82.28,10.36-6a66.59,66.59,0,0,1-5.32-9,22.17,22.17,0,0,1-2.52-7.16,12.94,12.94,0,0,1,0-1.64c0-.23.23-.62-.23.1s.75-.38,1.17-.6c5.71-2.87,11.88-4.69,17.77-7.15a84.9,84.9,0,0,0,23.56-14.43c5.82-5.1-2.7-13.56-8.48-8.49Z"/><path class="cls-8" d="M1100.4,824.05c71.81-8,45.91-5.59,38.59-71.69s18.35-70.45-53.23-60.5c-1.93.27-3.71.48-5.34.8-2.61.16-5.27.38-8,.67-35.69,4-14.29,13.79-12.64,28.65.72,6.53-2.48,12.94-3.29,17.74a5.16,5.16,0,0,0-.16,2.45,5.09,5.09,0,0,0,.7,2.36c1.83,4.51,6.36,10.06,7.08,16.59s-2.48,12.93-3.28,17.74a5,5,0,0,0-.16,2.44,5.12,5.12,0,0,0,.69,2.36c1.84,4.51,6.37,10.07,7.09,16.59,1.65,14.87-17.08,29.14,18.61,25.19,2.49-.28,4.93-.62,7.33-1C1096.26,824.42,1098.24,824.29,1100.4,824.05Z"/><path class="cls-5" d="M1286.18,684.49c2,2.65-.65-.85-1.21-1.58q-2.55-3.33-5.09-6.68-8.28-10.93-16.42-22c-12.23-16.66-24.62-33.45-35.11-51.28a115.41,115.41,0,0,1-8.21-17.16q-5.43-13.24-10.72-26.54c-8.21-20.56-16.36-41.15-24.12-61.89-6.24-16.69-10.2-33.6-14.43-50.92-1.83-7.5-13.4-4.32-11.57,3.19,3.75,15.38,7,30.75,12.47,45.63,7.48,20.39,15.5,40.59,23.52,60.77,6.37,16,11.89,33.07,20,48.28,9.56,17.83,22,34.32,33.86,50.64q14,19.2,28.49,38c2,2.59,6.38,2.06,8.49,0,2.55-2.5,2-5.93,0-8.48Z"/><path class="cls-5" d="M1173.5,472.49l-17.71-14.1c-2.53-2-6-2.47-8.49,0-2.09,2.09-2.55,6.46,0,8.49L1165,481c2.53,2,6,2.47,8.48,0,2.09-2.09,2.55-6.46,0-8.49Z"/><path class="cls-1" d="M1607.18,598.51c-3.87-4.87-7.74-9.4-11.6-13.64-5.35,16.14-7.19,33.81-17.4,46-5.91,6.17-19.7.25-30.07-.94,3.4,20,16.64,39.8,8.23,56.86-2,4.59-20.35-3.3-22.33,1.29-12.76,27.17-13.57,59.48-21.74,88.62a122,122,0,0,1-16.66-9.34c-3.51,14.65-14.78,16.84-27.84,16.43,40.17,30.27,84.33,38.51,120.93,9.94C1639.11,754.39,1684.36,695.75,1607.18,598.51Z"/><path class="cls-2" d="M1605.32,602.48a101.57,101.57,0,0,0-12.53-8.15c-3.58,13.29-6.37,26.7-14.61,36.54-5.91,6.17-19.7.25-30.07-.94,3.4,20,16.64,39.8,8.23,56.86-2,4.59-20.35-3.3-22.33,1.29-10.2,21.74-12.77,46.75-17.56,70.8a102.61,102.61,0,0,0,31.1-17C1591,708,1632.55,662.25,1605.32,602.48Z"/><path class="cls-2" d="M1627.22,623.77q-3.79-4.78-7.66-9c47.56,69.64,1.72,121.76-46.41,159.32-33.75,26.33-69.77,26.6-101.18,9.69-3.69.08-7.6-.15-11.56-.45,36.38,34.14,84,43.86,127.77,9.7C1638.58,753.73,1686.48,698.43,1627.22,623.77Z"/><path class="cls-3" d="M1612.7,608.56s4.47-2.36,5.9-4.39,8.31-8.33,10.22-15.71,2.57-17,1.69-17.12-2.43-2.7-3.59-1.72-5.24,9.48-15.74,18.76c-1.75,1.54-10.14,6.23-9.45,10.61s7.69,8.19,8.58,8.27A6.67,6.67,0,0,1,1612.7,608.56Z"/><path class="cls-1" d="M1578.18,630.87c-5.91,6.17-19.7.25-30.07-.94,3.17,18.59,14.86,37.07,9.65,53.31,29.64-27,52.48-55.9,47.62-80.68a39.22,39.22,0,0,0-14-3.1C1588.4,611,1585.36,622.3,1578.18,630.87Z"/><path d="M1645.37,727.13c4.69-3.61-29.71,44.26-28.23,38.91s.79-16.59-.34-13.38-20.81,18.91-15.38,11.66,10.39-15.72,12.88-18.39S1640.69,730.74,1645.37,727.13Z"/><path d="M1617.82,701.43c-6.44,5.6-11.73,20.28-14.54,24.94s-20.3,17.08-14.65,10,5.25-15,3-11.28-24.15,16.66-18,9.64,6.91-11.84,10.46-17.93S1624.26,695.84,1617.82,701.43Z"/><path d="M1547.73,733.8c-1.28,5.21-10,28.82-10,28.82s20.28.43,22.91-1-17.28,16.74-17.28,16.74,28,.24,31.38-2.83S1558,793,1558,793s30.28-3.24,22.18-.38-15.1,10.93-15.1,10.93,4.07-.33,8.38-.41H1573a92.09,92.09,0,0,1-24.59,9.32l0,0c4.6-5.61,3.75-9.46,1-7.51s-17.39,5.2-11,.05,8.83-18.62,6-15.53-24.65,5.32-16.92,1.79,4.28-17.06,2-14.53-16,7-11.42,2.66S1549,728.6,1547.73,733.8Z"/><path class="cls-2" d="M1468.2,816.16c10.43,20,17.73,30.54,26.38,36.14s14,16,7,14.51-13.51,7.1-28.19-12.94-21.41-16-19.73-30.17,7-18.59,6.43-24.75S1468.2,816.16,1468.2,816.16Z"/><path class="cls-2" d="M1560.55,508.91s-7.06-19.69,1.41-32.82,22-22.47,22-22.47-3.19,17.1-7.53,22.4S1560.55,508.91,1560.55,508.91Z"/><path class="cls-2" d="M1656.2,488.62c-.54,19-10.48,30.48-16.71,34.77s-27.06,8.52-27.06,8.52,11.27-16.65,19.25-25,5.28.05,12.13-14.17,12-20.51,12-20.51c.07,16.19,2.78,10.19,5.4,6.91S1656.2,488.62,1656.2,488.62Z"/><path class="cls-2" d="M1487.09,421.11c18.63,3.76-2.56,19.75.6,26.62S1498,477.21,1498,477.21s-14.5-13.93-21.37-23.23.94-5.19-11.9-14.36-18.17-15.31-18.17-15.31c30,1.92,30.25-.18,27.46-3.32S1487.09,421.11,1487.09,421.11Z"/><path d="M705,172.18a3.4,3.4,0,0,0,1,2.74v.21a4.55,4.55,0,0,0,.39,1.55,6.31,6.31,0,0,1,.39,2.25,2,2,0,0,0,.56,1.69,3.24,3.24,0,0,1-.35.42.61.61,0,0,0-.21.42c0,.14,0,.22.17.25a.21.21,0,0,1,.18.24l-.07.14a2.85,2.85,0,0,1-.07,1.06,3.22,3.22,0,0,0-.14.95,2.23,2.23,0,0,0,.07.67l-.57,1.19a2.83,2.83,0,0,1,.07.71,1.76,1.76,0,0,1-1.26,1.75,4.79,4.79,0,0,1,.07.92,5,5,0,0,1-.18,1.3,8.71,8.71,0,0,0-.24,1.37,1.18,1.18,0,0,0-.78,1.19,2.06,2.06,0,0,0-1,.74,7.1,7.1,0,0,1-.73.88,2.5,2.5,0,0,1-.57.46,1.45,1.45,0,0,0-.42.35,1.94,1.94,0,0,0-.35.6,2.75,2.75,0,0,1-.63,1c-.28.19-.42.37-.42.53a1.63,1.63,0,0,1-.43.77,3.9,3.9,0,0,1-1.44,1,5,5,0,0,0-1.72,1.23h-.21l-.78.28a2.44,2.44,0,0,0-.42.63c-.23.33-.77.42-1.61.28-.29.14-.6.32-1,.53a2.17,2.17,0,0,1-1.13.32q-.6,0-.6.24c0,.17-.15.25-.45.25a1.26,1.26,0,0,0-.67.14h-.07l-1-.28a3.36,3.36,0,0,1-1.26.28l-1.76-.42a1,1,0,0,0-.42.14,1.06,1.06,0,0,0-.7-.42,1.63,1.63,0,0,1-.71-.28,1.5,1.5,0,0,0-.56.42h-.14l-1.34.07c-.51,0-.82-.17-.91-.49a2,2,0,0,1-1.72-.53,2.65,2.65,0,0,1-1.16-1.37h-.21l-.85-.28c-.14-.19-.28-.37-.42-.53a1.24,1.24,0,0,1-.28-.6,1.77,1.77,0,0,1-.92-.53,1.36,1.36,0,0,0-1-.38,1.24,1.24,0,0,0-.46-.64c-.21-.14-.41-.28-.59-.42a6.05,6.05,0,0,0-1.69-2.6c-.89-2.39-1.47-3.87-1.72-4.43a4.7,4.7,0,0,1-.39-1l.21-.71-.14-.35c0-.09,0-.14.07-.14s.07-.05.07-.14l-.28-1.62.14-1-.35-.78.49-2v-.85a1.58,1.58,0,0,1,.14-.67,5.31,5.31,0,0,0,.28-.91,6.24,6.24,0,0,0,.14-1.48,5.86,5.86,0,0,1,.21-1.61,1.92,1.92,0,0,1,.53-1c.21-.16.27-.53.18-1.09a7.22,7.22,0,0,0,1.16-2.14,8.07,8.07,0,0,0,.31-1.16.9.9,0,0,1,.21-.64.55.55,0,0,0,.32-.56.47.47,0,0,1,.18-.49,1.66,1.66,0,0,0,.42-.42,3.91,3.91,0,0,0,.42-.78,5.81,5.81,0,0,1,.56-1l.28-.14c.14-.42,1-1.2,2.6-2.32a.73.73,0,0,0,.25-.42.57.57,0,0,1,.18-.35,7.24,7.24,0,0,0,1.12-.5l.14-.28,1.13-.56.07-.28a.56.56,0,0,1,.35,0,2.29,2.29,0,0,0,1-.28,14.17,14.17,0,0,0,1.72-.91,3.62,3.62,0,0,1,1.86-.6c.59,0,.94-.07,1.06-.21a1,1,0,0,1,.56-.32,2.13,2.13,0,0,1,.88,0,.87.87,0,0,0,.84-.35h.07a.64.64,0,0,1,.57.42,3.51,3.51,0,0,1,1.54-.42c.47,0,.71,0,.71.1s0,.13.14.18a.34.34,0,0,0,.28,0,.91.91,0,0,1,.42-.07c.19,0,.46.17.81.52a1.91,1.91,0,0,0,1.44.53l1.34-.07a2.45,2.45,0,0,1,1.33.32,2.67,2.67,0,0,0,1.13.39.24.24,0,0,1,.14.24.43.43,0,0,0,.14.32h.28a2.19,2.19,0,0,1,.46.45,1.29,1.29,0,0,0,.38.39l.71.42a3.6,3.6,0,0,1,.49.46,2.19,2.19,0,0,0,.56.46,1.33,1.33,0,0,1,.39.42,3.28,3.28,0,0,0,.39.53,2.06,2.06,0,0,0,.42.38,1.14,1.14,0,0,1,.35.46,1.53,1.53,0,0,1,.14.6,1.41,1.41,0,0,0,.14.6q.14.32.21.24s.07.06.07.32a2.27,2.27,0,0,0,.18.84,9.14,9.14,0,0,0,.45,1c.19.35.36.69.5,1s.28.51.42.56Zm-30.38,7-.35,3.59a2.59,2.59,0,0,0,.11.81,4.67,4.67,0,0,1,.17,1,11.65,11.65,0,0,1,0,1.62,13.59,13.59,0,0,0,.1,2.14,6.15,6.15,0,0,0,.85,2.39,6.49,6.49,0,0,1,.84,2.67c.38.52.74,1.06,1.09,1.62s.71,1.1,1.09,1.62a5.63,5.63,0,0,0,3.09,2.39,3,3,0,0,0,2.89,1.41c.42,0,.65,0,.7.14h1l3.31.35a1.91,1.91,0,0,0,.81-.18,1.21,1.21,0,0,1,.74-.1,1.81,1.81,0,0,1,1.05-.53,5.59,5.59,0,0,0,1.2-.25c.09,0,.13-.15.1-.31a.26.26,0,0,1,.18-.32,2,2,0,0,1,.63-.07,1.66,1.66,0,0,1,1.13-1.05,4.34,4.34,0,0,0,1.51-.88l1.3-1.16a5.73,5.73,0,0,0,1.16-1.52,6.25,6.25,0,0,1,.88-1.3l.77-.7a.53.53,0,0,0,.14-.39c0-.16.15-.31.46-.45a1.31,1.31,0,0,0,.56-.39.44.44,0,0,0,.07-.32.3.3,0,0,1,.11-.28c.28-.09.41-.24.38-.45s0-.45,0-.71a.87.87,0,0,1,.24-.63.53.53,0,0,0,0-.67,1.3,1.3,0,0,0,.56-1,4.37,4.37,0,0,1,.25-1,1.86,1.86,0,0,1,.42-.71,1.9,1.9,0,0,0,.39-.59c-.1-.1-.14-.38-.14-.85v-.7a3.33,3.33,0,0,0,.28-3.44,5.7,5.7,0,0,1-.42-2.36c0-1-.15-1.56-.43-1.79s-.42-.43-.42-.57v-.49l-.28-1.54a1.09,1.09,0,0,0-.32-.71,1.86,1.86,0,0,1-.42-.7,1.39,1.39,0,0,1,0-.7,1.84,1.84,0,0,0-.14-.92,1.56,1.56,0,0,0-.53-.77c-.21-.14-.32-.54-.32-1.2a1.32,1.32,0,0,1-.91-1.12,1.72,1.72,0,0,1-1.13-.88,1.74,1.74,0,0,0-.66-.81c-.22-.09-.33-.13-.36-.11s-.08,0-.17,0h-.07l-.14-.35a1.51,1.51,0,0,0-.85-.28l-1.19.28a1.85,1.85,0,0,1-1.2-.49,1.66,1.66,0,0,0-1-.5,1.56,1.56,0,0,0-.85.22,1.19,1.19,0,0,1-.28-.46.65.65,0,0,0-.28-.39,1.65,1.65,0,0,1-.84-.28,3.91,3.91,0,0,0-.78-.42l-.28.07-1.4-.28a.51.51,0,0,0-.32.17.6.6,0,0,1-.53.14,1.85,1.85,0,0,0-.63,0,2.54,2.54,0,0,0-.49.17,2.79,2.79,0,0,1-.49.18,1.68,1.68,0,0,1-.71,0,1.29,1.29,0,0,0-.74.07,1.43,1.43,0,0,0-.49.35.4.4,0,0,1-.52.07,1,1,0,0,0-.6.46c-.12.21-.67.32-1.65.32a5.75,5.75,0,0,1-2.89,2.39,1.55,1.55,0,0,1-.56.88,4.42,4.42,0,0,0-.77.73,8.47,8.47,0,0,0-1.06,2,7,7,0,0,0-.63,2.18l.14.57a1.68,1.68,0,0,1-.28.91,3.49,3.49,0,0,0-.42.81,1.36,1.36,0,0,0-.07.77,1.82,1.82,0,0,1,0,.77,3.78,3.78,0,0,1-.32.81A3,3,0,0,0,674.62,179.14Z"/><path d="M718.92,188l-.42.92a5,5,0,0,1,.14.91l-.14,1.62a.4.4,0,0,1,.14.28l-.14.28.21,1a10.85,10.85,0,0,1,.32,2.82c0,.93,0,1.89,0,2.88l.14,1.05-.14.85.28,1.4a1.76,1.76,0,0,1-.07.57.64.64,0,0,0,.07.49l-.14,1.19.14.78-.28,1,.14.85-.14.91.42,1.62a2,2,0,0,0,1.2-.36,2.26,2.26,0,0,1,1.33-.35.75.75,0,0,1,.85.85,1.44,1.44,0,0,1-.78,1.3,12.84,12.84,0,0,1-1.26.67,2.92,2.92,0,0,1-.88.24c-.26,0-.55.07-.88.14a2.85,2.85,0,0,0-.63.18,2.9,2.9,0,0,1-.81.07,6.89,6.89,0,0,0-1.79.31,2.79,2.79,0,0,0-1.48.81c-.1.05-.17.06-.21,0a.51.51,0,0,0-.25,0,1.8,1.8,0,0,0-.67.32,1.57,1.57,0,0,1-1,.25h-.21c-.52-.24-.77-.89-.77-2,.14,0,.23,0,.28-.18a.57.57,0,0,1,.24-.35.59.59,0,0,1,.39-.07,2.92,2.92,0,0,0,1-.28,15,15,0,0,1,2.07-.6,3.17,3.17,0,0,0,.21-1.12,3.93,3.93,0,0,0-.14-1.09,3.07,3.07,0,0,1-.07-1.09v-2.46a10.75,10.75,0,0,1,.07-1.76l-.21-.64.14-.42-.28-1.12a22,22,0,0,1-.14-2.46v-2.46a11.12,11.12,0,0,0-.21-2.18c-.14-.71-.26-1.43-.35-2.18V190l-.28-2.11.07-2.32-.07-2V182a2.35,2.35,0,0,0,.14-.63l-.28-.7a.92.92,0,0,1,.14-.42,18.24,18.24,0,0,0-.14-2.18l-.28-1.13.14-.42-.36-4.92.29-2.6-.14-.92.21-.84-.29-2.53.22-3.31-.29-3c-.09-1.13-.14-2.19-.14-3.2s-.32-1.51-1-1.51l-1.41.14a1.35,1.35,0,0,1-1.19-.63,2.25,2.25,0,0,1-.42-.85l.07-.28c.14-.42.5-.63,1.09-.63a12.35,12.35,0,0,0,1.65-.11c.51-.07,1.24-.22,2.18-.45a9.69,9.69,0,0,1,2.28-.36c.59,0,.95.19,1.09.57a1.94,1.94,0,0,1-.49,1.26,1.93,1.93,0,0,0-.56,1l.14,2-.21,1.61.28,1.9c0,.24.06.39.18.46s.17.24.17.53l-.14,1.33.14.42-.14.28a8.19,8.19,0,0,1,.32,2.57,6.77,6.77,0,0,0,.31,2.43,9.71,9.71,0,0,0-.14,2.25l-.14,2.32a14.58,14.58,0,0,0,.11,1.72c.07.59.15,1.3.24,2.14l.21,3c.1,1.12.19,2.27.29,3.44a2.76,2.76,0,0,0,.87.07c.5,0,.86-.3,1.09-.91a.67.67,0,0,0,.57-.28c.32-.47.56-.63.7-.49s.28.08.42-.18a1,1,0,0,1,.39-.46c.11,0,.2-.06.24,0a.61.61,0,0,0,.22,0,.28.28,0,0,0,.21-.07c0-.23.67-.47,1.9-.7s1.89-.35,2-.35a3.9,3.9,0,0,1,.64.07l1.37.21a1.57,1.57,0,0,1,1.19.56,6.59,6.59,0,0,0,.78,1l1.3,1.37a10.77,10.77,0,0,1,1.4,1.86.88.88,0,0,1,.32.39.85.85,0,0,0,.32.38,1,1,0,0,0-.07.43l.56,2.25a2,2,0,0,0,.14.77,3,3,0,0,1,.18.81,8.16,8.16,0,0,0,.1.88l.28,1a7.08,7.08,0,0,1,.14,1.48v1.4c0,.1,0,.14-.07.14s-.07,0-.07.15l.42,2-.28,1.76.28,2.46a19,19,0,0,1-.14,2.39,11.24,11.24,0,0,0,0,2.46,3.66,3.66,0,0,0-.42,1.76v1.41a2.74,2.74,0,0,0,.14.84,3.2,3.2,0,0,0,1.06.14L739,208a1,1,0,0,0,.53.46c.25.11.38.27.38.45,0,.57-.21.85-.63.85a3.65,3.65,0,0,0-2.6,1.19,2.37,2.37,0,0,0-.63-.07l-1.9.35h-.49c-.29,0-.44.06-.46.18s-.22.18-.6.18l-1.76.21-.56-.07c-.33,0-.52.1-.56.31s-.21.32-.49.32l-.29-.07a2.75,2.75,0,0,1-.28-1.2,1.34,1.34,0,0,1,.25-.91,1.5,1.5,0,0,1,.56-.42,7,7,0,0,1,.71-.28,1.15,1.15,0,0,0,.59-.5l.35-1.75a2.51,2.51,0,0,0,.07-.64l-.21-1.89.14-1.41-.14-1.2.28-1.4-.14-1.27.14-2.74a9.33,9.33,0,0,0-.31-2.39,9.65,9.65,0,0,1-.32-2.46l.14-1s-.09-.63-.28-1.75l.14-.21c-.28-.33-.41-.53-.38-.6a3,3,0,0,0,0-.57,2.19,2.19,0,0,0-.18-.87,6.18,6.18,0,0,1-.28-.92,9.89,9.89,0,0,1-.17-1.12,2.86,2.86,0,0,0-.53-1.44,3,3,0,0,1-.49-.74,2.34,2.34,0,0,0-.32-.57,1.55,1.55,0,0,0-.53-.45,2.94,2.94,0,0,1-.66-.53,2.65,2.65,0,0,1-1.52.32c-.63,0-1.09,0-1.37,0s-.43.05-.45.14a1.71,1.71,0,0,1-.21.39,2.59,2.59,0,0,1-.5.49,2.15,2.15,0,0,0-.52.6,1.87,1.87,0,0,0-1.83.7,6.28,6.28,0,0,1-1.34,1.76c-.14.42-.31.64-.53.67s-.27.15-.17.38l-.07.22.28.84Z"/><path d="M749.51,209.87c-.57.23-1,.38-1.27.46a1.67,1.67,0,0,0-.67.31,1.94,1.94,0,0,1-.6.35,1.8,1.8,0,0,1-1.61-2.25,6.72,6.72,0,0,0-.88-.35,2.23,2.23,0,0,1-.81-.42v-2.11a3.92,3.92,0,0,0,.56-.91,2.61,2.61,0,0,1,.49-.78.84.84,0,0,1,.53-.28.64.64,0,0,0,.39-.1.82.82,0,0,0,.21-.25.43.43,0,0,1,.21-.21l1-.14a5.32,5.32,0,0,1,1-.14,1.44,1.44,0,0,1,1.41.95,4,4,0,0,1,.42,1.44.83.83,0,0,0,.17.63c.12.1.18.48.18,1.16A7.2,7.2,0,0,1,749.51,209.87Zm-.29-28.69L748.8,189l.07,2.25c0,1-.16,1.47-.49,1.47-.14,0-.14,0,0,.14a10.34,10.34,0,0,0-.6,1.27c-.21.51-.48.77-.81.77-.6,0-1.1-.49-1.47-1.47a7,7,0,0,1-.49-3.17v-2.88l-.14-2.32.14-3-.14-1.4.28-.85L745,179l.07-2.46a52.61,52.61,0,0,0-.39-7.52,26.44,26.44,0,0,1-.39-3.27,3.91,3.91,0,0,1,.32-1.55,6.5,6.5,0,0,0,.39-1.09c0-.33.18-.49.42-.49s.23,0,.28-.14.11-.28.21-.28a2,2,0,0,1,1.37.42q.47.42.84.81a3,3,0,0,0,.53.45,2.85,2.85,0,0,1,.28.64l.28.14a.56.56,0,0,1,0,.35.35.35,0,0,0,.11.35l.28.14a3.62,3.62,0,0,1,.28,1.27l-.49,3.44.21,3.45v3.23a14.68,14.68,0,0,1-.21,2.71A8.75,8.75,0,0,0,749.22,181.18Z"/><path class="cls-9" d="M586.38,53.38l267,78.51c4.84,0,8.79,6,8.79,13.36l-33.5,183c0,7.35-4,13.36-8.79,13.36L696.5,323.38,610,364l14.11-51.31-29.78-4.39c-4.84,0-8.79-6-8.79-13.37l-8-228.18C577.58,59.4,581.54,53.38,586.38,53.38Z"/><path d="M1606,232.18a3.4,3.4,0,0,0,1,2.74v.21a4.55,4.55,0,0,0,.39,1.55,6.31,6.31,0,0,1,.39,2.25,2,2,0,0,0,.56,1.69,3.24,3.24,0,0,1-.35.42.61.61,0,0,0-.21.42c0,.14,0,.22.17.25a.21.21,0,0,1,.18.24l-.07.14a2.85,2.85,0,0,1-.07,1.06,3.22,3.22,0,0,0-.14.95,2.23,2.23,0,0,0,.07.67l-.57,1.19a2.83,2.83,0,0,1,.07.71,1.76,1.76,0,0,1-1.26,1.75,4.79,4.79,0,0,1,.07.92,5,5,0,0,1-.18,1.3,8.71,8.71,0,0,0-.24,1.37,1.18,1.18,0,0,0-.78,1.19,2.06,2.06,0,0,0-1,.74,7.1,7.1,0,0,1-.73.88,2.5,2.5,0,0,1-.57.46,1.45,1.45,0,0,0-.42.35,1.94,1.94,0,0,0-.35.6,2.75,2.75,0,0,1-.63,1c-.28.19-.42.37-.42.53a1.63,1.63,0,0,1-.43.77,3.9,3.9,0,0,1-1.44,1,5,5,0,0,0-1.72,1.23h-.21l-.78.28a2.44,2.44,0,0,0-.42.63c-.23.33-.77.42-1.61.28-.29.14-.6.32-1,.53a2.17,2.17,0,0,1-1.13.32q-.6,0-.6.24c0,.17-.15.25-.45.25a1.26,1.26,0,0,0-.67.14h-.07l-1-.28a3.36,3.36,0,0,1-1.26.28l-1.76-.42a1,1,0,0,0-.42.14,1.06,1.06,0,0,0-.7-.42,1.63,1.63,0,0,1-.71-.28,1.5,1.5,0,0,0-.56.42h-.14l-1.34.07c-.51,0-.82-.17-.91-.49a2,2,0,0,1-1.72-.53,2.65,2.65,0,0,1-1.16-1.37h-.21l-.85-.28c-.14-.19-.28-.37-.42-.53a1.24,1.24,0,0,1-.28-.6,1.77,1.77,0,0,1-.92-.53,1.36,1.36,0,0,0-1-.38,1.24,1.24,0,0,0-.46-.64c-.21-.14-.41-.28-.59-.42a6.05,6.05,0,0,0-1.69-2.6c-.89-2.39-1.47-3.87-1.72-4.43a4.7,4.7,0,0,1-.39-1l.21-.71-.14-.35c0-.09,0-.14.07-.14s.07-.05.07-.14l-.28-1.62.14-1-.35-.78.49-2v-.85a1.58,1.58,0,0,1,.14-.67,5.31,5.31,0,0,0,.28-.91,6.24,6.24,0,0,0,.14-1.48,5.86,5.86,0,0,1,.21-1.61,1.92,1.92,0,0,1,.53-1c.21-.16.27-.53.18-1.09a7.22,7.22,0,0,0,1.16-2.14,8.07,8.07,0,0,0,.31-1.16.9.9,0,0,1,.21-.64.55.55,0,0,0,.32-.56.47.47,0,0,1,.18-.49,1.66,1.66,0,0,0,.42-.42,3.91,3.91,0,0,0,.42-.78,5.81,5.81,0,0,1,.56-1l.28-.14c.14-.42,1-1.2,2.6-2.32a.73.73,0,0,0,.25-.42.57.57,0,0,1,.18-.35,7.24,7.24,0,0,0,1.12-.5l.14-.28,1.13-.56.07-.28a.56.56,0,0,1,.35,0,2.29,2.29,0,0,0,1-.28,14.17,14.17,0,0,0,1.72-.91,3.62,3.62,0,0,1,1.86-.6c.59,0,.94-.07,1.06-.21a1,1,0,0,1,.56-.32,2.13,2.13,0,0,1,.88,0,.87.87,0,0,0,.84-.35h.07a.64.64,0,0,1,.57.42,3.51,3.51,0,0,1,1.54-.42c.47,0,.71,0,.71.1s0,.13.14.18a.34.34,0,0,0,.28,0,.91.91,0,0,1,.42-.07c.19,0,.46.17.81.52a1.91,1.91,0,0,0,1.44.53l1.34-.07a2.45,2.45,0,0,1,1.33.32,2.67,2.67,0,0,0,1.13.39.24.24,0,0,1,.14.24.43.43,0,0,0,.14.32h.28a2.19,2.19,0,0,1,.46.45,1.29,1.29,0,0,0,.38.39l.71.42a3.6,3.6,0,0,1,.49.46,2.19,2.19,0,0,0,.56.46,1.33,1.33,0,0,1,.39.42,3.28,3.28,0,0,0,.39.53,2.06,2.06,0,0,0,.42.38,1.14,1.14,0,0,1,.35.46,1.53,1.53,0,0,1,.14.6,1.41,1.41,0,0,0,.14.6q.13.32.21.24s.07.06.07.32a2.27,2.27,0,0,0,.18.84,9.14,9.14,0,0,0,.45,1c.19.35.36.69.5,1s.28.51.42.56Zm-30.38,7-.35,3.59a2.59,2.59,0,0,0,.11.81,4.67,4.67,0,0,1,.17,1,11.65,11.65,0,0,1,0,1.62,13.59,13.59,0,0,0,.1,2.14,6.15,6.15,0,0,0,.85,2.39,6.49,6.49,0,0,1,.84,2.67c.38.52.74,1.06,1.09,1.62s.71,1.1,1.09,1.62a5.63,5.63,0,0,0,3.09,2.39,3,3,0,0,0,2.89,1.41c.42,0,.65,0,.7.14h1l3.31.35a1.91,1.91,0,0,0,.81-.18,1.21,1.21,0,0,1,.74-.1,1.81,1.81,0,0,1,1-.53,5.59,5.59,0,0,0,1.2-.25c.09,0,.13-.15.1-.31a.26.26,0,0,1,.18-.32,2,2,0,0,1,.63-.07,1.66,1.66,0,0,1,1.13-1.05,4.34,4.34,0,0,0,1.51-.88l1.3-1.16a5.73,5.73,0,0,0,1.16-1.52,6.25,6.25,0,0,1,.88-1.3l.77-.7a.53.53,0,0,0,.14-.39c0-.16.15-.31.46-.45a1.31,1.31,0,0,0,.56-.39.44.44,0,0,0,.07-.32.3.3,0,0,1,.11-.28c.28-.09.41-.24.38-.45s0-.45,0-.71a.87.87,0,0,1,.24-.63.53.53,0,0,0,0-.67,1.3,1.3,0,0,0,.56-1,4.37,4.37,0,0,1,.25-1,1.86,1.86,0,0,1,.42-.71,1.9,1.9,0,0,0,.39-.59c-.1-.1-.14-.38-.14-.85v-.7a3.33,3.33,0,0,0,.28-3.44,5.7,5.7,0,0,1-.42-2.36c0-1-.15-1.56-.43-1.79s-.42-.43-.42-.57v-.49l-.28-1.54a1.09,1.09,0,0,0-.32-.71,1.86,1.86,0,0,1-.42-.7,1.39,1.39,0,0,1,0-.7,1.84,1.84,0,0,0-.14-.92,1.56,1.56,0,0,0-.53-.77c-.21-.14-.32-.54-.32-1.2a1.32,1.32,0,0,1-.91-1.12,1.72,1.72,0,0,1-1.13-.88,1.74,1.74,0,0,0-.66-.81c-.22-.09-.33-.13-.36-.11s-.08,0-.17,0h-.07l-.14-.35a1.51,1.51,0,0,0-.85-.28l-1.19.28a1.85,1.85,0,0,1-1.2-.49,1.66,1.66,0,0,0-1-.5,1.56,1.56,0,0,0-.85.22,1.19,1.19,0,0,1-.28-.46.65.65,0,0,0-.28-.39,1.65,1.65,0,0,1-.84-.28,3.91,3.91,0,0,0-.78-.42l-.28.07-1.4-.28a.51.51,0,0,0-.32.17.6.6,0,0,1-.53.14,1.85,1.85,0,0,0-.63,0,2.54,2.54,0,0,0-.49.17,2.79,2.79,0,0,1-.49.18,1.68,1.68,0,0,1-.71,0,1.29,1.29,0,0,0-.74.07,1.43,1.43,0,0,0-.49.35.4.4,0,0,1-.52.07,1,1,0,0,0-.6.46c-.12.21-.67.32-1.65.32a5.75,5.75,0,0,1-2.89,2.39,1.55,1.55,0,0,1-.56.88,4.42,4.42,0,0,0-.77.73,8.47,8.47,0,0,0-1.06,2,7,7,0,0,0-.63,2.18l.14.57a1.68,1.68,0,0,1-.28.91,3.49,3.49,0,0,0-.42.81,1.36,1.36,0,0,0-.07.77,1.82,1.82,0,0,1,0,.77,3.78,3.78,0,0,1-.32.81A3,3,0,0,0,1575.62,239.14Z"/><path d="M1633.91,237.59c.33,0,.49.15.49.43,0,.09.11.25.32.49a1.88,1.88,0,0,0,.56.46c.17.07.25.41.25,1v.21l.28.28a5.74,5.74,0,0,1,.35,1.58,5.73,5.73,0,0,0,.42,1.65,2.52,2.52,0,0,0-.35.67,2.43,2.43,0,0,0-.21.74.28.28,0,0,0,.21.28c.14,0,.21.22.21.53a1.92,1.92,0,0,1-.31,1,2.11,2.11,0,0,0-.32,1.09l.07.63a2.09,2.09,0,0,1-.39,1.16,1.55,1.55,0,0,1-1,.74c-.09.1-.13.18-.1.25a1.19,1.19,0,0,1,0,.31.28.28,0,0,1-.21.29v.07c0,.09-.13.21-.38.35a2.7,2.7,0,0,0-.71.56,4.86,4.86,0,0,1-.66.63v.28a.68.68,0,0,1-.25.6.83.83,0,0,0-.32.53,8.16,8.16,0,0,0-2.11,1.41h-1.12a1,1,0,0,0-.63.28,3.45,3.45,0,0,1-.67.42,2.37,2.37,0,0,1-.78.17,7.38,7.38,0,0,0-.8.11l-.14-.14c0,.09-.07.14-.22.14l-1-.28-1.83.14-1.83-.42a1.75,1.75,0,0,0-.35-.49,1.67,1.67,0,0,1-.35-.57l-1.19-.35a1.05,1.05,0,0,1-.25-.39.36.36,0,0,0-.35-.24,1.35,1.35,0,0,0-.46.07.39.39,0,0,1-.14-.42c0-.14,0-.21-.28-.21s-.35-.1-.35-.29-.12-.25-.35-.21a1.56,1.56,0,0,0-.22-.49,2.91,2.91,0,0,1-.63-1.55.66.66,0,0,0-.35-.35.73.73,0,0,1-.35-.21,12.69,12.69,0,0,1-1.41-4.71,10.89,10.89,0,0,1,.18-2.35,9.53,9.53,0,0,1,1-2.64,8.57,8.57,0,0,0,.63-1.55,1.16,1.16,0,0,0,.74-.77,1.1,1.1,0,0,1,.42-.7.81.81,0,0,1,.35-.14.31.31,0,0,0,.21-.11c.07-.07.1-.14.07-.21a.36.36,0,0,1,.07-.28,4,4,0,0,1,.64-.64c.35-.3.58-.5.7-.59a.88.88,0,0,1,.42-.18,1.71,1.71,0,0,0,.53-.17l.67-.36a4.36,4.36,0,0,1,1.12-.38,10.88,10.88,0,0,1,1.72-.25,4.12,4.12,0,0,0,1.9-.63,9.66,9.66,0,0,0,1.76.53c.61.11,1.2.24,1.76.38a1.09,1.09,0,0,0,.21.53,1.33,1.33,0,0,1,.21.53l2.39-.35c.24,0,.66.27,1.27.8s.86.93.77,1.16A.45.45,0,0,0,1633.91,237.59Zm-6.4,16a2.19,2.19,0,0,1,1.48-.5.73.73,0,0,1,.46-.45,2.64,2.64,0,0,0,.77-.5,3.32,3.32,0,0,0,.81-1.05,2.41,2.41,0,0,1,1-1,2.23,2.23,0,0,1,.5-1c.23-.26.45-.51.66-.77a2.14,2.14,0,0,0,.43-1c.07-.39.15-.92.24-1.58a13,13,0,0,0,.14-2,2.05,2.05,0,0,0-.31-1.33,1.52,1.52,0,0,1-.39-.78,2.29,2.29,0,0,1,0-.66,3.54,3.54,0,0,0,0-.6v-.21a4.62,4.62,0,0,0-.81-.67,4.53,4.53,0,0,1-.74-.6,8.81,8.81,0,0,1-3-.63,12,12,0,0,0-2.91-.78,2.78,2.78,0,0,0-1.41-.49,5.12,5.12,0,0,0-.84,0,1.55,1.55,0,0,0-.36.1l-.28.18a1.84,1.84,0,0,1-.38.21,1,1,0,0,1-.5.07,1.28,1.28,0,0,0-.56.07,2.5,2.5,0,0,0-.7.39,3.8,3.8,0,0,1-.74.42,1.89,1.89,0,0,1-.46.81,3.46,3.46,0,0,0-.63,1.33,6,6,0,0,0-.32,1.69,22.23,22.23,0,0,0,.5,3.13l-.14.14a8.19,8.19,0,0,0,.31,1.09c.12.31.21.57.28.81a1.11,1.11,0,0,1,.07.53,2.17,2.17,0,0,0,0,.38l.28,1.13v.07l.28.28v.28a.71.71,0,0,0,.21.39,1.23,1.23,0,0,1,.21.81,3.67,3.67,0,0,1,.85.8,3.14,3.14,0,0,0,.88.81,3.35,3.35,0,0,0,1.37.39,5.42,5.42,0,0,1,1.68.46A8.64,8.64,0,0,1,1627.51,253.63Z"/><path d="M1663.44,237.59c.33,0,.5.15.5.43,0,.09.1.25.31.49a1.88,1.88,0,0,0,.56.46c.17.07.25.41.25,1v.21l.28.28a5.74,5.74,0,0,1,.35,1.58,5.45,5.45,0,0,0,.43,1.65,2.21,2.21,0,0,0-.36.67,2.43,2.43,0,0,0-.21.74.28.28,0,0,0,.21.28c.14,0,.21.22.21.53a1.92,1.92,0,0,1-.31,1,2.11,2.11,0,0,0-.32,1.09l.07.63a2.16,2.16,0,0,1-.38,1.16,1.6,1.6,0,0,1-1,.74c-.1.1-.13.18-.11.25a1.11,1.11,0,0,1,0,.31.28.28,0,0,1-.22.29v.07c0,.09-.13.21-.38.35a2.66,2.66,0,0,0-.7.56,5.58,5.58,0,0,1-.67.63v.28a.66.66,0,0,1-.25.6.83.83,0,0,0-.32.53,8.08,8.08,0,0,0-2.1,1.41h-1.13a1,1,0,0,0-.63.28,3.45,3.45,0,0,1-.67.42,2.37,2.37,0,0,1-.77.17,7.25,7.25,0,0,0-.81.11l-.14-.14c0,.09-.07.14-.21.14l-1-.28-1.83.14-1.82-.42a2,2,0,0,0-.36-.49,1.85,1.85,0,0,1-.35-.57l-1.19-.35a1.05,1.05,0,0,1-.25-.39.36.36,0,0,0-.35-.24,1.35,1.35,0,0,0-.46.07.39.39,0,0,1-.14-.42c0-.14,0-.21-.28-.21s-.35-.1-.35-.29-.12-.25-.35-.21a1.81,1.81,0,0,0-.21-.49,2.85,2.85,0,0,1-.64-1.55.66.66,0,0,0-.35-.35.73.73,0,0,1-.35-.21,12.69,12.69,0,0,1-1.41-4.71,10.89,10.89,0,0,1,.18-2.35,10.17,10.17,0,0,1,.42-1.38,10.28,10.28,0,0,1,.6-1.26,8.57,8.57,0,0,0,.63-1.55,1.16,1.16,0,0,0,.74-.77,1.19,1.19,0,0,1,.42-.7.81.81,0,0,1,.35-.14.31.31,0,0,0,.21-.11.2.2,0,0,0,.08-.21.33.33,0,0,1,.07-.28,3.76,3.76,0,0,1,.63-.64c.35-.3.58-.5.7-.59a.88.88,0,0,1,.42-.18,1.71,1.71,0,0,0,.53-.17l.67-.36a4.36,4.36,0,0,1,1.12-.38,11,11,0,0,1,1.73-.25,4.08,4.08,0,0,0,1.89-.63,9.66,9.66,0,0,0,1.76.53c.61.11,1.2.24,1.76.38a1.33,1.33,0,0,0,.21.53,1.19,1.19,0,0,1,.21.53l2.39-.35c.24,0,.66.27,1.27.8s.87.93.77,1.16A.46.46,0,0,0,1663.44,237.59Zm-6.4,16a2.19,2.19,0,0,1,1.48-.5.76.76,0,0,1,.46-.45,2.51,2.51,0,0,0,.77-.5,3.32,3.32,0,0,0,.81-1.05,2.41,2.41,0,0,1,1-1,2.23,2.23,0,0,1,.5-1l.67-.77a2.13,2.13,0,0,0,.42-1c.07-.39.15-.92.24-1.58a13,13,0,0,0,.14-2,2.05,2.05,0,0,0-.31-1.33,1.6,1.6,0,0,1-.39-.78,1.93,1.93,0,0,1,0-.66,5.21,5.21,0,0,0,0-.6v-.21a4.62,4.62,0,0,0-.81-.67,4.53,4.53,0,0,1-.74-.6,8.7,8.7,0,0,1-3-.63,12.2,12.2,0,0,0-2.92-.78,2.78,2.78,0,0,0-1.41-.49,5.12,5.12,0,0,0-.84,0,1.34,1.34,0,0,0-.35.1,2.29,2.29,0,0,0-.29.18,1.84,1.84,0,0,1-.38.21,1,1,0,0,1-.49.07,1.31,1.31,0,0,0-.57.07,2.65,2.65,0,0,0-.7.39,3.53,3.53,0,0,1-.74.42,1.71,1.71,0,0,1-.46.81,3.46,3.46,0,0,0-.63,1.33,6,6,0,0,0-.31,1.69,21.61,21.61,0,0,0,.49,3.13l-.14.14a8.19,8.19,0,0,0,.31,1.09c.12.31.21.57.28.81a1.14,1.14,0,0,1,.08.53,1.48,1.48,0,0,0,0,.38l.28,1.13v.07l.28.28v.28a.71.71,0,0,0,.21.39,1.23,1.23,0,0,1,.21.81,3.48,3.48,0,0,1,.85.8,3.14,3.14,0,0,0,.88.81,3.35,3.35,0,0,0,1.37.39,5.48,5.48,0,0,1,1.69.46A8.5,8.5,0,0,1,1657,253.63Z"/><path d="M1693,237.59c.33,0,.5.15.5.43,0,.09.1.25.31.49a1.79,1.79,0,0,0,.57.46q.24.1.24,1v.21l.28.28a5.74,5.74,0,0,1,.35,1.58,5.45,5.45,0,0,0,.43,1.65,2.46,2.46,0,0,0-.36.67,2.43,2.43,0,0,0-.21.74.28.28,0,0,0,.21.28c.15,0,.22.22.22.53a2,2,0,0,1-.32,1,2.11,2.11,0,0,0-.32,1.09l.07.63a2.16,2.16,0,0,1-.38,1.16,1.6,1.6,0,0,1-1,.74c-.1.1-.13.18-.11.25a.83.83,0,0,1,0,.31.28.28,0,0,1-.21.29v.07c0,.09-.13.21-.39.35a2.66,2.66,0,0,0-.7.56,4.92,4.92,0,0,1-.67.63v.28a.66.66,0,0,1-.25.6.82.82,0,0,0-.31.53,8,8,0,0,0-2.11,1.41h-1.13a1,1,0,0,0-.63.28,3.45,3.45,0,0,1-.67.42,2.37,2.37,0,0,1-.77.17,7.25,7.25,0,0,0-.81.11l-.14-.14c0,.09-.07.14-.21.14l-1-.28-1.83.14-1.82-.42a1.78,1.78,0,0,0-.36-.49,1.85,1.85,0,0,1-.35-.57l-1.19-.35a1.05,1.05,0,0,1-.25-.39.36.36,0,0,0-.35-.24,1.35,1.35,0,0,0-.46.07.41.41,0,0,1-.14-.42c0-.14,0-.21-.28-.21s-.35-.1-.35-.29-.12-.25-.35-.21a1.81,1.81,0,0,0-.21-.49,2.93,2.93,0,0,1-.64-1.55.66.66,0,0,0-.35-.35.78.78,0,0,1-.35-.21,12.63,12.63,0,0,1-1.4-4.71,11,11,0,0,1,.17-2.35,11.83,11.83,0,0,1,.42-1.38,10.28,10.28,0,0,1,.6-1.26,7.9,7.9,0,0,0,.63-1.55,1.16,1.16,0,0,0,.74-.77,1.19,1.19,0,0,1,.42-.7.79.79,0,0,1,.36-.14.31.31,0,0,0,.21-.11.21.21,0,0,0,.07-.21.33.33,0,0,1,.07-.28,3.76,3.76,0,0,1,.63-.64l.7-.59a.88.88,0,0,1,.42-.18,1.71,1.71,0,0,0,.53-.17l.67-.36a4.5,4.5,0,0,1,1.12-.38,11,11,0,0,1,1.73-.25,4.16,4.16,0,0,0,1.9-.63,9.33,9.33,0,0,0,1.75.53c.61.11,1.2.24,1.76.38a1.33,1.33,0,0,0,.21.53,1.09,1.09,0,0,1,.21.53l2.39-.35c.24,0,.66.27,1.27.8s.87.93.77,1.16A.46.46,0,0,0,1693,237.59Zm-6.39,16a2.15,2.15,0,0,1,1.47-.5.76.76,0,0,1,.46-.45,2.51,2.51,0,0,0,.77-.5,3.18,3.18,0,0,0,.81-1.05,2.44,2.44,0,0,1,1-1,2.11,2.11,0,0,1,.49-1c.23-.26.46-.51.67-.77a2.13,2.13,0,0,0,.42-1c.07-.39.15-.92.24-1.58a13,13,0,0,0,.14-2,2.05,2.05,0,0,0-.31-1.33,1.6,1.6,0,0,1-.39-.78,1.93,1.93,0,0,1,0-.66,5.21,5.21,0,0,0,0-.6v-.21a4.62,4.62,0,0,0-.81-.67,5,5,0,0,1-.74-.6,8.7,8.7,0,0,1-3-.63,12.2,12.2,0,0,0-2.92-.78,2.78,2.78,0,0,0-1.41-.49,5.12,5.12,0,0,0-.84,0,1.34,1.34,0,0,0-.35.1,1.67,1.67,0,0,0-.28.18,2.29,2.29,0,0,1-.39.21,1,1,0,0,1-.49.07,1.33,1.33,0,0,0-.57.07,2.65,2.65,0,0,0-.7.39,3.53,3.53,0,0,1-.74.42,1.78,1.78,0,0,1-.45.81,3.44,3.44,0,0,0-.64,1.33,6,6,0,0,0-.31,1.69,21.61,21.61,0,0,0,.49,3.13l-.14.14a8.19,8.19,0,0,0,.31,1.09c.12.31.22.57.29.81a1.25,1.25,0,0,1,.07.53,1.48,1.48,0,0,0,0,.38l.28,1.13v.07l.28.28v.28a.71.71,0,0,0,.21.39,1.17,1.17,0,0,1,.22.81,3.65,3.65,0,0,1,.84.8,3.14,3.14,0,0,0,.88.81,3.35,3.35,0,0,0,1.37.39,5.48,5.48,0,0,1,1.69.46A8.51,8.51,0,0,1,1686.58,253.63Z"/><path d="M1722.51,237.59c.32,0,.49.15.49.43,0,.09.1.25.31.49a1.9,1.9,0,0,0,.57.46q.24.1.24,1v.21l.28.28a6.14,6.14,0,0,1,.36,1.58,5.15,5.15,0,0,0,.42,1.65,2.25,2.25,0,0,0-.35.67,2.43,2.43,0,0,0-.21.74.28.28,0,0,0,.21.28c.14,0,.21.22.21.53a2,2,0,0,1-.32,1,2.11,2.11,0,0,0-.32,1.09l.07.63a2.16,2.16,0,0,1-.38,1.16,1.6,1.6,0,0,1-.95.74c-.1.1-.13.18-.11.25a.83.83,0,0,1,0,.31.28.28,0,0,1-.21.29v.07c0,.09-.13.21-.39.35a2.66,2.66,0,0,0-.7.56,4.92,4.92,0,0,1-.67.63v.28a.66.66,0,0,1-.25.6.82.82,0,0,0-.31.53,8,8,0,0,0-2.11,1.41h-1.13a1,1,0,0,0-.63.28,3.45,3.45,0,0,1-.67.42,2.37,2.37,0,0,1-.77.17,7.25,7.25,0,0,0-.81.11l-.14-.14c0,.09-.07.14-.21.14l-1-.28-1.82.14-1.83-.42a2,2,0,0,0-.35-.49,1.86,1.86,0,0,1-.36-.57l-1.19-.35a1.05,1.05,0,0,1-.25-.39.35.35,0,0,0-.35-.24,1.43,1.43,0,0,0-.46.07.41.41,0,0,1-.14-.42c.05-.14,0-.21-.28-.21s-.35-.1-.35-.29-.12-.25-.35-.21a1.81,1.81,0,0,0-.21-.49,2.91,2.91,0,0,1-.63-1.55.71.71,0,0,0-.36-.35.78.78,0,0,1-.35-.21,12.63,12.63,0,0,1-1.4-4.71,8.53,8.53,0,0,1,.59-3.73,12,12,0,0,1,.6-1.26,7.33,7.33,0,0,0,.63-1.55,1.14,1.14,0,0,0,.74-.77,1.19,1.19,0,0,1,.42-.7.83.83,0,0,1,.36-.14.31.31,0,0,0,.21-.11.21.21,0,0,0,.07-.21.33.33,0,0,1,.07-.28,3.76,3.76,0,0,1,.63-.64l.7-.59a.88.88,0,0,1,.43-.18,1.66,1.66,0,0,0,.52-.17l.67-.36a4.45,4.45,0,0,1,1.13-.38,10.71,10.71,0,0,1,1.72-.25,4.16,4.16,0,0,0,1.9-.63,9.56,9.56,0,0,0,1.75.53c.61.11,1.2.24,1.76.38a1.33,1.33,0,0,0,.21.53,1.09,1.09,0,0,1,.21.53l2.4-.35c.23,0,.65.27,1.26.8s.87.93.77,1.16A.48.48,0,0,0,1722.51,237.59Zm-6.4,16a2.16,2.16,0,0,1,1.47-.5.76.76,0,0,1,.46-.45,2.51,2.51,0,0,0,.77-.5,3.18,3.18,0,0,0,.81-1.05,2.5,2.5,0,0,1,1-1,2.11,2.11,0,0,1,.49-1c.23-.26.46-.51.67-.77a2.13,2.13,0,0,0,.42-1c.07-.39.15-.92.25-1.58a14.39,14.39,0,0,0,.14-2,2,2,0,0,0-.32-1.33,1.6,1.6,0,0,1-.39-.78,2.23,2.23,0,0,1,0-.66,5.21,5.21,0,0,0,0-.6v-.21a4.62,4.62,0,0,0-.81-.67,4.47,4.47,0,0,1-.73-.6,8.76,8.76,0,0,1-3-.63,12.2,12.2,0,0,0-2.92-.78,2.75,2.75,0,0,0-1.41-.49,5.12,5.12,0,0,0-.84,0,1.34,1.34,0,0,0-.35.1,1.67,1.67,0,0,0-.28.18,2.29,2.29,0,0,1-.39.21,1,1,0,0,1-.49.07,1.27,1.27,0,0,0-.56.07,2.54,2.54,0,0,0-.71.39,3.53,3.53,0,0,1-.74.42,1.78,1.78,0,0,1-.45.81,3.59,3.59,0,0,0-.64,1.33,6,6,0,0,0-.31,1.69,21.61,21.61,0,0,0,.49,3.13l-.14.14a6.85,6.85,0,0,0,.32,1.09c.11.31.21.57.28.81a1.25,1.25,0,0,1,.07.53,1.48,1.48,0,0,0,0,.38l.28,1.13v.07l.28.28v.28c0,.1.08.22.22.39a1.23,1.23,0,0,1,.21.81,3.65,3.65,0,0,1,.84.8,3.14,3.14,0,0,0,.88.81,3.35,3.35,0,0,0,1.37.39,5.48,5.48,0,0,1,1.69.46A8.58,8.58,0,0,1,1716.11,253.63Z"/><path d="M1752,237.59c.32,0,.49.15.49.43,0,.09.1.25.32.49a1.77,1.77,0,0,0,.56.46q.24.1.24,1v.21l.29.28a6.57,6.57,0,0,1,.35,1.58,5.15,5.15,0,0,0,.42,1.65,2.25,2.25,0,0,0-.35.67,2.43,2.43,0,0,0-.21.74.28.28,0,0,0,.21.28c.14,0,.21.22.21.53a2,2,0,0,1-.32,1,2.1,2.1,0,0,0-.31,1.09l.07.63a2.09,2.09,0,0,1-.39,1.16,1.6,1.6,0,0,1-.95.74c-.1.1-.13.18-.11.25a.83.83,0,0,1,0,.31.28.28,0,0,1-.21.29v.07c0,.09-.13.21-.39.35a2.66,2.66,0,0,0-.7.56,4.4,4.4,0,0,1-.67.63v.28a.66.66,0,0,1-.25.6.82.82,0,0,0-.31.53,8.16,8.16,0,0,0-2.11,1.41h-1.13a1.07,1.07,0,0,0-.63.28,3.45,3.45,0,0,1-.67.42,2.37,2.37,0,0,1-.77.17,7.6,7.6,0,0,0-.81.11l-.14-.14c0,.09-.07.14-.21.14l-1-.28-1.83.14-1.83-.42a2,2,0,0,0-.35-.49,1.67,1.67,0,0,1-.35-.57l-1.2-.35a1.05,1.05,0,0,1-.25-.39.35.35,0,0,0-.35-.24,1.33,1.33,0,0,0-.45.07.39.39,0,0,1-.14-.42c0-.14,0-.21-.29-.21s-.35-.1-.35-.29-.11-.25-.35-.21a1.81,1.81,0,0,0-.21-.49,2.91,2.91,0,0,1-.63-1.55.7.7,0,0,0-.35-.35.77.77,0,0,1-.36-.21,12.63,12.63,0,0,1-1.4-4.71,11.77,11.77,0,0,1,.17-2.35,10.45,10.45,0,0,1,1-2.64,7.88,7.88,0,0,0,.64-1.55,1.15,1.15,0,0,0,.73-.77,1.15,1.15,0,0,1,.43-.7.76.76,0,0,1,.35-.14.31.31,0,0,0,.21-.11.21.21,0,0,0,.07-.21.33.33,0,0,1,.07-.28,3.76,3.76,0,0,1,.63-.64l.71-.59a.81.81,0,0,1,.42-.18,1.66,1.66,0,0,0,.52-.17l.67-.36a4.6,4.6,0,0,1,1.13-.38,10.71,10.71,0,0,1,1.72-.25,4.12,4.12,0,0,0,1.9-.63,9.43,9.43,0,0,0,1.76.53c.6.11,1.19.24,1.75.38a1.33,1.33,0,0,0,.21.53,1.19,1.19,0,0,1,.22.53l2.39-.35c.23,0,.65.27,1.26.8s.87.93.78,1.16A.45.45,0,0,0,1752,237.59Zm-6.4,16a2.17,2.17,0,0,1,1.48-.5.72.72,0,0,1,.45-.45,2.66,2.66,0,0,0,.78-.5,3.3,3.3,0,0,0,.8-1.05,2.5,2.5,0,0,1,1-1,2.11,2.11,0,0,1,.49-1c.24-.26.46-.51.67-.77a2.13,2.13,0,0,0,.42-1c.07-.39.15-.92.25-1.58a14.39,14.39,0,0,0,.14-2,2,2,0,0,0-.32-1.33,1.6,1.6,0,0,1-.39-.78,2.23,2.23,0,0,1,0-.66,5.21,5.21,0,0,0,0-.6v-.21a5,5,0,0,0-.8-.67,4.14,4.14,0,0,1-.74-.6,8.76,8.76,0,0,1-3-.63,12.07,12.07,0,0,0-2.92-.78,2.75,2.75,0,0,0-1.41-.49,5.12,5.12,0,0,0-.84,0,1.34,1.34,0,0,0-.35.1,1.67,1.67,0,0,0-.28.18,2,2,0,0,1-.39.21.93.93,0,0,1-.49.07,1.27,1.27,0,0,0-.56.07,2.69,2.69,0,0,0-.71.39,3.48,3.48,0,0,1-.73.42,1.89,1.89,0,0,1-.46.81,3.46,3.46,0,0,0-.63,1.33,5.7,5.7,0,0,0-.32,1.69,21.61,21.61,0,0,0,.49,3.13l-.14.14a6.85,6.85,0,0,0,.32,1.09c.11.31.21.57.28.81a1.25,1.25,0,0,1,.07.53,1.48,1.48,0,0,0,0,.38l.28,1.13v.07l.29.28v.28a.71.71,0,0,0,.21.39,1.23,1.23,0,0,1,.21.81,3.65,3.65,0,0,1,.84.8,3.14,3.14,0,0,0,.88.81,3.4,3.4,0,0,0,1.37.39,5.48,5.48,0,0,1,1.69.46A8.58,8.58,0,0,1,1745.64,253.63Z"/><path d="M1766.45,248l-.42.92a5,5,0,0,1,.14.91l-.14,1.62a.4.4,0,0,1,.14.28l-.14.28.21,1a10.85,10.85,0,0,1,.32,2.82c0,.93,0,1.89,0,2.88l.14,1.05-.14.85.28,1.4a1.76,1.76,0,0,1-.07.57.69.69,0,0,0,.07.49l-.14,1.19.14.78-.28,1.05.14.85-.14.91.42,1.62a2,2,0,0,0,1.2-.36,2.26,2.26,0,0,1,1.33-.35.75.75,0,0,1,.85.85,1.44,1.44,0,0,1-.78,1.3,11.79,11.79,0,0,1-1.26.67,2.85,2.85,0,0,1-.88.24c-.26,0-.55.07-.88.14a2.85,2.85,0,0,0-.63.18,2.84,2.84,0,0,1-.81.07,7,7,0,0,0-1.79.31,2.79,2.79,0,0,0-1.48.81c-.1.05-.17.06-.21,0a.51.51,0,0,0-.25,0,1.71,1.71,0,0,0-.66.32,1.6,1.6,0,0,1-1.06.25h-.21c-.52-.24-.77-.89-.77-2,.14,0,.23,0,.28-.18a.57.57,0,0,1,.24-.35.59.59,0,0,1,.39-.07,2.92,2.92,0,0,0,1-.28,15,15,0,0,1,2.07-.6,3.19,3.19,0,0,0,.22-1.12,3.93,3.93,0,0,0-.15-1.09,3.07,3.07,0,0,1-.07-1.09v-2.46a10.75,10.75,0,0,1,.07-1.76l-.21-.64.14-.42-.28-1.12a22,22,0,0,1-.14-2.46v-2.46a11.12,11.12,0,0,0-.21-2.18c-.14-.71-.26-1.43-.35-2.18V250l-.28-2.11.07-2.32-.07-2V242a2.35,2.35,0,0,0,.14-.63l-.28-.7a.92.92,0,0,1,.14-.42,18.24,18.24,0,0,0-.14-2.18L1761,237l.14-.42-.35-4.92.28-2.6-.14-.92.21-.84-.28-2.53.21-3.31-.28-3c-.1-1.13-.14-2.19-.14-3.2s-.33-1.51-1-1.51l-1.41.14a1.35,1.35,0,0,1-1.19-.63,2.25,2.25,0,0,1-.42-.85l.07-.28c.14-.42.5-.63,1.09-.63a12.35,12.35,0,0,0,1.65-.11c.52-.07,1.24-.22,2.18-.45a9.69,9.69,0,0,1,2.28-.36c.59,0,.95.19,1.09.57a1.94,1.94,0,0,1-.49,1.26,2,2,0,0,0-.56,1l.14,2-.21,1.61.28,1.9c0,.24.06.39.18.46s.17.24.17.53l-.14,1.33.14.42-.14.28a7.91,7.91,0,0,1,.32,2.57,6.77,6.77,0,0,0,.31,2.43,9.71,9.71,0,0,0-.14,2.25l-.14,2.32a14.58,14.58,0,0,0,.11,1.72c.07.59.15,1.3.24,2.14l.22,3c.09,1.12.18,2.27.28,3.44a2.8,2.8,0,0,0,.88.07c.49,0,.85-.3,1.09-.91a.66.66,0,0,0,.56-.28c.32-.47.56-.63.7-.49s.28.08.42-.18a1,1,0,0,1,.39-.46c.12,0,.2-.06.25,0a.51.51,0,0,0,.21,0,.28.28,0,0,0,.21-.07c0-.23.68-.47,1.9-.7s1.89-.35,2-.35a3.8,3.8,0,0,1,.63.07l1.37.21a1.57,1.57,0,0,1,1.19.56,6.59,6.59,0,0,0,.78,1l1.3,1.37a11.34,11.34,0,0,1,1.41,1.86.86.86,0,0,1,.31.39.85.85,0,0,0,.32.38,1,1,0,0,0-.07.43l.56,2.25a2.15,2.15,0,0,0,.14.77,3,3,0,0,1,.18.81c0,.3.06.6.1.88l.28,1a7.08,7.08,0,0,1,.14,1.48v1.4c0,.1,0,.14-.07.14s-.07,0-.07.15l.43,2-.29,1.76.29,2.46A19.05,19.05,0,0,1,1783,262a11.24,11.24,0,0,0,0,2.46,3.66,3.66,0,0,0-.42,1.76v1.41a2.74,2.74,0,0,0,.14.84,3.24,3.24,0,0,0,1.06.14l2.81-.56a1,1,0,0,0,.53.46c.25.11.38.27.38.45,0,.57-.21.85-.63.85a3.65,3.65,0,0,0-2.6,1.19,2.37,2.37,0,0,0-.63-.07l-1.9.35h-.49c-.28,0-.44.06-.46.18s-.22.18-.6.18l-1.76.21-.56-.07c-.33,0-.52.1-.56.31s-.21.32-.49.32l-.28-.07a2.62,2.62,0,0,1-.29-1.2,1.34,1.34,0,0,1,.25-.91,1.5,1.5,0,0,1,.56-.42,7,7,0,0,1,.71-.28,1.15,1.15,0,0,0,.59-.5l.36-1.75a3.06,3.06,0,0,0,.07-.64l-.22-1.89.15-1.41-.15-1.2.29-1.4-.14-1.27.14-2.74a9.35,9.35,0,0,0-.32-2.39,9.65,9.65,0,0,1-.32-2.46l.14-1s-.09-.63-.28-1.75l.14-.21c-.28-.33-.41-.53-.38-.6a3,3,0,0,0,0-.57,2.36,2.36,0,0,0-.17-.87,6.19,6.19,0,0,1-.29-.92,9.89,9.89,0,0,1-.17-1.12,2.86,2.86,0,0,0-.53-1.44,3,3,0,0,1-.49-.74,2.34,2.34,0,0,0-.32-.57,1.61,1.61,0,0,0-.52-.45,2.77,2.77,0,0,1-.67-.53,2.63,2.63,0,0,1-1.51.32c-.64,0-1.09,0-1.38,0s-.43.05-.45.14a1.71,1.71,0,0,1-.21.39,2.33,2.33,0,0,1-.5.49,2.15,2.15,0,0,0-.52.6,1.88,1.88,0,0,0-1.83.7,6.28,6.28,0,0,1-1.34,1.76c-.14.42-.31.64-.52.67s-.28.15-.18.38l-.07.22.28.84Z"/><path class="cls-9" d="M1545.38,103.38l267,78.51c4.84,0,8.79,6,8.79,13.36l-33.5,183c0,7.35-4,13.36-8.79,13.36L1655.5,373.38,1518,444l65.11-81.31-29.78-4.39c-4.84,0-8.79-6-8.79-13.37l-8-228.18C1536.58,109.4,1540.54,103.38,1545.38,103.38Z"/></svg>