<svg id="Layer_1" data-name="Layer 1" xmlns="http://www.w3.org/2000/svg" viewBox="0 0 1920 1080"><defs><style>.cls-1{fill:#85aa52;}.cls-2{fill:#f15a24;}.cls-3{fill:#fbb03b;}.cls-4{fill:#f7931e;}.cls-5{fill:#006837;}.cls-6{fill:#daec70;}.cls-7{fill:#1b1464;}.cls-8{fill:#fff;}</style></defs><path d="M142.66,203.35a11.2,11.2,0,0,1-4.5-4.5,15.25,15.25,0,0,1,0-13.72,11.33,11.33,0,0,1,4.5-4.5,13.28,13.28,0,0,1,6.46-1.56,15.45,15.45,0,0,1,4.38.57,19,19,0,0,1,3.83,1.66,1.44,1.44,0,0,1,.79,1.37,1.33,1.33,0,0,1-.39,1,1.38,1.38,0,0,1-1,.42,1.34,1.34,0,0,1-.64-.15,16.83,16.83,0,0,0-3.1-1.26,12.67,12.67,0,0,0-3.49-.43,10.3,10.3,0,0,0-5.28,1.28A8.15,8.15,0,0,0,140.9,187a12,12,0,0,0,0,10,8.23,8.23,0,0,0,3.27,3.5,10.3,10.3,0,0,0,5.28,1.27,12.67,12.67,0,0,0,3.49-.43,16.83,16.83,0,0,0,3.1-1.26,1.47,1.47,0,0,1,.64-.14,1.43,1.43,0,0,1,1,.39,1.35,1.35,0,0,1,.39,1,1.43,1.43,0,0,1-.79,1.36,18.43,18.43,0,0,1-3.83,1.66,15.44,15.44,0,0,1-4.38.58A13.28,13.28,0,0,1,142.66,203.35Z"/><path d="M162.62,204.27a1.57,1.57,0,0,1-.46-1.15V187.67a1.65,1.65,0,0,1,.46-1.17,1.57,1.57,0,0,1,1.16-.48,1.64,1.64,0,0,1,1.65,1.65v1.55c1.68-2.26,3.57-3.39,5.65-3.39h.18a1.52,1.52,0,0,1,1.14.47,1.62,1.62,0,0,1,.45,1.16,1.46,1.46,0,0,1-.47,1.11,1.67,1.67,0,0,1-1.19.43H171a6.19,6.19,0,0,0-3.17.85,7.3,7.3,0,0,0-2.41,2.32v11a1.55,1.55,0,0,1-.48,1.15,1.66,1.66,0,0,1-1.17.47A1.6,1.6,0,0,1,162.62,204.27Z"/><path d="M178.64,203.73a8.12,8.12,0,0,1-3.22-3.37,11.56,11.56,0,0,1,0-10,8.18,8.18,0,0,1,3.22-3.37,9.72,9.72,0,0,1,4.86-1.19,9.61,9.61,0,0,1,4.83,1.19,8.29,8.29,0,0,1,3.24,3.37,11.38,11.38,0,0,1,0,10,8.22,8.22,0,0,1-3.24,3.37,9.61,9.61,0,0,1-4.83,1.19A9.72,9.72,0,0,1,178.64,203.73Zm7.69-2.49a5.43,5.43,0,0,0,2.23-2.16,8.32,8.32,0,0,0,0-7.45,5.38,5.38,0,0,0-2.23-2.14,6.36,6.36,0,0,0-2.83-.67,6.46,6.46,0,0,0-2.86.67,5.22,5.22,0,0,0-2.21,2.14,8.41,8.41,0,0,0,0,7.45,5.27,5.27,0,0,0,2.21,2.16,6.22,6.22,0,0,0,2.86.69A6.13,6.13,0,0,0,186.33,201.24Z"/><path d="M201,203.76a8.86,8.86,0,0,1-3.51-3.31,10.49,10.49,0,0,1,0-10.15A8.93,8.93,0,0,1,201,187a10.78,10.78,0,0,1,8.08-.67,13.07,13.07,0,0,1,2.58,1.24,1.48,1.48,0,0,1,.72,1.26,1.42,1.42,0,0,1-.42,1,1.25,1.25,0,0,1-1,.45,1.71,1.71,0,0,1-.8-.21,13.1,13.1,0,0,0-2-.88,7,7,0,0,0-2.1-.27,6.54,6.54,0,0,0-4.87,1.78,7.14,7.14,0,0,0,0,9.39,6.55,6.55,0,0,0,4.87,1.79,6.63,6.63,0,0,0,2.1-.28,12.2,12.2,0,0,0,2-.88,1.71,1.71,0,0,1,.8-.21,1.25,1.25,0,0,1,1,.45,1.42,1.42,0,0,1,.42,1,1.45,1.45,0,0,1-.72,1.26,12.54,12.54,0,0,1-2.58,1.24,10.78,10.78,0,0,1-8.08-.67Z"/><path d="M226.31,204.27a1.54,1.54,0,0,1-.47-1.15V179.75a1.62,1.62,0,0,1,.47-1.17,1.53,1.53,0,0,1,1.15-.48,1.66,1.66,0,0,1,1.66,1.65v9.4a11.8,11.8,0,0,1,2.95-2.41,7.43,7.43,0,0,1,3.74-.91,6.26,6.26,0,0,1,3.44.94,6.17,6.17,0,0,1,2.23,2.56,8.1,8.1,0,0,1,.77,3.56v10.23a1.55,1.55,0,0,1-.48,1.15,1.64,1.64,0,0,1-1.17.47,1.56,1.56,0,0,1-1.15-.47,1.54,1.54,0,0,1-.47-1.15v-9.87q0-4.4-4-4.39a5.66,5.66,0,0,0-3.22.94,11.45,11.45,0,0,0-2.68,2.52v10.8a1.56,1.56,0,0,1-.49,1.15,1.66,1.66,0,0,1-1.17.47A1.56,1.56,0,0,1,226.31,204.27Z"/><path d="M249.51,204.27a5.1,5.1,0,0,1-2.14-1.89,5.19,5.19,0,0,1-.8-2.86,5.05,5.05,0,0,1,2.11-4.25q2.1-1.59,6.17-1.59h4.36v-.28A4.36,4.36,0,0,0,258,190a5.36,5.36,0,0,0-3.65-1,11.71,11.71,0,0,0-2.43.22,19,19,0,0,0-2.36.65,2.54,2.54,0,0,1-.47.07,1.24,1.24,0,0,1-.93-.4,1.3,1.3,0,0,1-.4-1,1.39,1.39,0,0,1,.93-1.37,15.93,15.93,0,0,1,6.23-1.3,8.16,8.16,0,0,1,4.2,1,6.43,6.43,0,0,1,2.52,2.61,7.61,7.61,0,0,1,.81,3.48v10.19a1.56,1.56,0,0,1-.49,1.15,1.62,1.62,0,0,1-1.17.47,1.6,1.6,0,0,1-1.62-1.62v-.94a9.07,9.07,0,0,1-6.77,2.74A6.72,6.72,0,0,1,249.51,204.27Zm7.22-3a8.39,8.39,0,0,0,2.48-1.93v-3h-3.92q-5.44,0-5.44,2.85a2.64,2.64,0,0,0,.88,2.08,4.36,4.36,0,0,0,2.94.8A6.5,6.5,0,0,0,256.73,201.26Z"/><path d="M267.38,203.3a1.38,1.38,0,0,1-.61-1.19,1.42,1.42,0,0,1,.4-1,1.29,1.29,0,0,1,1-.43,1.65,1.65,0,0,1,.65.14,14.24,14.24,0,0,0,2.3.79,10.4,10.4,0,0,0,2.6.29q4,0,4-2.56a1.34,1.34,0,0,0-.91-1.25,18.85,18.85,0,0,0-3-1,25.94,25.94,0,0,1-3.51-1,6.24,6.24,0,0,1-2.38-1.64,4.16,4.16,0,0,1-1-2.9,5.19,5.19,0,0,1,1.82-4.1,7.66,7.66,0,0,1,5.2-1.59,15,15,0,0,1,5.22.91,1.3,1.3,0,0,1,.78.54,1.43,1.43,0,0,1,.27.82,1.4,1.4,0,0,1-.42,1,1.33,1.33,0,0,1-1,.43,1.9,1.9,0,0,1-.47-.07,13.85,13.85,0,0,0-4.1-.65,5.64,5.64,0,0,0-3.05.71,2.07,2.07,0,0,0-1.09,1.81,1.67,1.67,0,0,0,1,1.59,14.62,14.62,0,0,0,3.14,1,30,30,0,0,1,3.45,1.06,5.8,5.8,0,0,1,2.29,1.64,4.47,4.47,0,0,1,.95,3,4.72,4.72,0,0,1-1.82,3.81,7.79,7.79,0,0,1-5.13,1.52A13.39,13.39,0,0,1,267.38,203.3Z"/><path d="M296.38,204.27a5.11,5.11,0,0,1-2.93-4.75,5,5,0,0,1,2.1-4.25,10.14,10.14,0,0,1,6.17-1.59h4.36v-.28a4.36,4.36,0,0,0-1.17-3.42,5.36,5.36,0,0,0-3.65-1,11.85,11.85,0,0,0-2.43.22,19,19,0,0,0-2.36.65,2.54,2.54,0,0,1-.47.07,1.24,1.24,0,0,1-.93-.4,1.3,1.3,0,0,1-.4-1,1.39,1.39,0,0,1,.94-1.37,15.84,15.84,0,0,1,6.22-1.3,8.16,8.16,0,0,1,4.2,1,6.43,6.43,0,0,1,2.52,2.61,7.61,7.61,0,0,1,.81,3.48v10.19a1.52,1.52,0,0,1-.49,1.15,1.62,1.62,0,0,1-1.17.47,1.6,1.6,0,0,1-1.62-1.62v-.94a9.07,9.07,0,0,1-6.77,2.74A6.72,6.72,0,0,1,296.38,204.27Zm7.22-3a8.39,8.39,0,0,0,2.48-1.93v-3h-3.92q-5.45,0-5.44,2.85a2.67,2.67,0,0,0,.88,2.08,4.36,4.36,0,0,0,2.94.8A6.5,6.5,0,0,0,303.6,201.26Z"/><path d="M328.58,212.66a13.61,13.61,0,0,1-3.49-1.34,1.36,1.36,0,0,1-.65-1.26,1.49,1.49,0,0,1,.41-1,1.35,1.35,0,0,1,1-.45,1.91,1.91,0,0,1,.65.14,13.1,13.1,0,0,0,5.94,1.37q5.5,0,5.51-5.87v-2.41a8.16,8.16,0,0,1-6.16,2.74,8.75,8.75,0,0,1-7.42-4.23,10.85,10.85,0,0,1,0-10.26,8.73,8.73,0,0,1,7.42-4.24,8.16,8.16,0,0,1,6.16,2.74v-.9a1.62,1.62,0,0,1,.47-1.17,1.53,1.53,0,0,1,1.15-.48,1.64,1.64,0,0,1,1.65,1.65v16.09q0,4.55-2.19,7a8,8,0,0,1-6.27,2.45A17.06,17.06,0,0,1,328.58,212.66Zm6.91-11.81A10.77,10.77,0,0,0,338,198.9v-7.41a10.77,10.77,0,0,0-2.49-2,6,6,0,0,0-3-.72,6.14,6.14,0,0,0-4.41,1.64,7.41,7.41,0,0,0,0,9.47,6.14,6.14,0,0,0,4.41,1.64A6,6,0,0,0,335.49,200.85Z"/><path d="M350.18,203.73a8.05,8.05,0,0,1-3.22-3.37,11.47,11.47,0,0,1,0-10,8.11,8.11,0,0,1,3.22-3.37,10.44,10.44,0,0,1,9.68,0,8.16,8.16,0,0,1,3.24,3.37,11.29,11.29,0,0,1,0,10,8.1,8.1,0,0,1-3.24,3.37,10.44,10.44,0,0,1-9.68,0Zm7.69-2.49a5.43,5.43,0,0,0,2.23-2.16,8.32,8.32,0,0,0,0-7.45,5.38,5.38,0,0,0-2.23-2.14,6.38,6.38,0,0,0-5.69,0,5.3,5.3,0,0,0-2.22,2.14,8.5,8.5,0,0,0,0,7.45,5.35,5.35,0,0,0,2.22,2.16,6.21,6.21,0,0,0,5.69,0Z"/><path d="M372.07,203.73a8.05,8.05,0,0,1-3.22-3.37,11.47,11.47,0,0,1,0-10,8.11,8.11,0,0,1,3.22-3.37,10.44,10.44,0,0,1,9.68,0,8.29,8.29,0,0,1,3.24,3.37,11.38,11.38,0,0,1,0,10,8.22,8.22,0,0,1-3.24,3.37,10.44,10.44,0,0,1-9.68,0Zm7.68-2.49a5.45,5.45,0,0,0,2.24-2.16,8.32,8.32,0,0,0,0-7.45,5.4,5.4,0,0,0-2.24-2.14,6.35,6.35,0,0,0-2.82-.67,6.43,6.43,0,0,0-2.86.67,5.3,5.3,0,0,0-2.22,2.14,8.5,8.5,0,0,0,0,7.45,5.35,5.35,0,0,0,2.22,2.16,6.19,6.19,0,0,0,2.86.69A6.12,6.12,0,0,0,379.75,201.24Z"/><path d="M394.08,203.78a8.6,8.6,0,0,1-3.24-3.31,11.09,11.09,0,0,1,0-10.19,8.67,8.67,0,0,1,3.24-3.31,8.34,8.34,0,0,1,10.39,1.6v-8.82a1.61,1.61,0,0,1,.48-1.19,1.65,1.65,0,0,1,1.17-.46,1.57,1.57,0,0,1,1.16.48,1.65,1.65,0,0,1,.46,1.17v23.37a1.57,1.57,0,0,1-.46,1.15,1.6,1.6,0,0,1-1.16.47,1.66,1.66,0,0,1-1.17-.47,1.55,1.55,0,0,1-.48-1.15v-.94a8.34,8.34,0,0,1-10.39,1.6Zm7.81-2.66a9,9,0,0,0,2.58-2V191.6a9,9,0,0,0-2.58-2,6.81,6.81,0,0,0-3.11-.73,5.63,5.63,0,0,0-4.28,1.69,7.88,7.88,0,0,0,0,9.57,5.64,5.64,0,0,0,4.28,1.7A6.82,6.82,0,0,0,401.89,201.12Z"/><path d="M423.26,204.27a1.58,1.58,0,0,1-.47-1.15V179.75a1.66,1.66,0,0,1,.47-1.17,1.55,1.55,0,0,1,1.15-.48,1.61,1.61,0,0,1,1.19.46,1.64,1.64,0,0,1,.47,1.19v23.37a1.56,1.56,0,0,1-.49,1.15,1.62,1.62,0,0,1-1.17.47A1.58,1.58,0,0,1,423.26,204.27Z"/><path d="M433.5,204.27a5.11,5.11,0,0,1-2.93-4.75,5,5,0,0,1,2.1-4.25,10.15,10.15,0,0,1,6.18-1.59h4.35v-.28A4.36,4.36,0,0,0,442,190a5.34,5.34,0,0,0-3.65-1,11.85,11.85,0,0,0-2.43.22,19.51,19.51,0,0,0-2.36.65,2.54,2.54,0,0,1-.47.07,1.24,1.24,0,0,1-.93-.4,1.3,1.3,0,0,1-.4-1,1.39,1.39,0,0,1,.94-1.37,15.89,15.89,0,0,1,6.23-1.3,8.15,8.15,0,0,1,4.19,1,6.43,6.43,0,0,1,2.52,2.61,7.61,7.61,0,0,1,.81,3.48v10.19a1.52,1.52,0,0,1-.49,1.15,1.62,1.62,0,0,1-1.17.47,1.6,1.6,0,0,1-1.62-1.62v-.94a9,9,0,0,1-6.76,2.74A6.73,6.73,0,0,1,433.5,204.27Zm7.22-3a8.39,8.39,0,0,0,2.48-1.93v-3h-3.92q-5.44,0-5.44,2.85a2.67,2.67,0,0,0,.88,2.08,4.36,4.36,0,0,0,2.94.8A6.5,6.5,0,0,0,440.72,201.26Z"/><path d="M454.67,204a6,6,0,0,1-2.23-2.56,8.08,8.08,0,0,1-.78-3.56V187.64a1.54,1.54,0,0,1,.49-1.16,1.61,1.61,0,0,1,1.17-.46,1.57,1.57,0,0,1,1.15.46,1.6,1.6,0,0,1,.47,1.16v9.86q0,4.4,4,4.39a5.75,5.75,0,0,0,3.22-.93,11.88,11.88,0,0,0,2.68-2.52v-10.8a1.54,1.54,0,0,1,.49-1.16,1.61,1.61,0,0,1,1.17-.46,1.57,1.57,0,0,1,1.15.46,1.6,1.6,0,0,1,.47,1.16v15.44a1.62,1.62,0,0,1-.47,1.17,1.56,1.56,0,0,1-1.15.49,1.6,1.6,0,0,1-1.17-.49,1.56,1.56,0,0,1-.49-1.17V201.6a11.84,11.84,0,0,1-2.95,2.42,7.45,7.45,0,0,1-3.74.9A6.26,6.26,0,0,1,454.67,204Z"/><path d="M478.12,212.66a13.76,13.76,0,0,1-3.49-1.34,1.36,1.36,0,0,1-.65-1.26,1.46,1.46,0,0,1,.42-1,1.31,1.31,0,0,1,1-.45,1.91,1.91,0,0,1,.65.14A13.1,13.1,0,0,0,482,210.1q5.5,0,5.51-5.87v-2.41a8.16,8.16,0,0,1-6.16,2.74,8.67,8.67,0,0,1-4.12-1.07,8.5,8.5,0,0,1-3.29-3.16,10.77,10.77,0,0,1,0-10.26,8.53,8.53,0,0,1,3.29-3.17,8.67,8.67,0,0,1,4.12-1.07,8.16,8.16,0,0,1,6.16,2.74v-.9a1.62,1.62,0,0,1,.47-1.17,1.53,1.53,0,0,1,1.15-.48,1.64,1.64,0,0,1,1.65,1.65v16.09q0,4.55-2.19,7a8,8,0,0,1-6.27,2.45A17.06,17.06,0,0,1,478.12,212.66ZM485,200.85a10.73,10.73,0,0,0,2.48-1.95v-7.41a10.73,10.73,0,0,0-2.48-2,6.68,6.68,0,0,0-7.4.92,7.41,7.41,0,0,0,0,9.47,6.68,6.68,0,0,0,7.4.92Z"/><path d="M497,204.27a1.58,1.58,0,0,1-.47-1.15V179.75a1.66,1.66,0,0,1,.47-1.17,1.55,1.55,0,0,1,1.15-.48,1.66,1.66,0,0,1,1.66,1.65v9.4a11.8,11.8,0,0,1,2.95-2.41,7.46,7.46,0,0,1,3.75-.91,6.25,6.25,0,0,1,3.43.94,6.1,6.1,0,0,1,2.23,2.56,8.11,8.11,0,0,1,.78,3.56v10.23a1.52,1.52,0,0,1-.49,1.15,1.62,1.62,0,0,1-1.17.47,1.6,1.6,0,0,1-1.62-1.62v-9.87q0-4.4-4-4.39a5.68,5.68,0,0,0-3.22.94,11.45,11.45,0,0,0-2.68,2.52v10.8a1.52,1.52,0,0,1-.49,1.15,1.62,1.62,0,0,1-1.17.47A1.58,1.58,0,0,1,497,204.27Z"/><path d="M531,202.18v.94a1.52,1.52,0,0,1-.49,1.15,1.62,1.62,0,0,1-1.17.47,1.59,1.59,0,0,1-1.61-1.62V179.75a1.65,1.65,0,0,1,.46-1.17,1.55,1.55,0,0,1,1.15-.48,1.6,1.6,0,0,1,1.19.46,1.64,1.64,0,0,1,.47,1.19v8.82a8.3,8.3,0,0,1,6.16-2.74,8.39,8.39,0,0,1,4.23,1.14,8.67,8.67,0,0,1,3.24,3.31,11.09,11.09,0,0,1,0,10.19,8.6,8.6,0,0,1-3.24,3.31,8.39,8.39,0,0,1-4.23,1.14A8.3,8.3,0,0,1,531,202.18Zm10-2a7.88,7.88,0,0,0,0-9.57,5.63,5.63,0,0,0-4.28-1.69,6.78,6.78,0,0,0-3.11.73,9,9,0,0,0-2.58,2v7.56a9,9,0,0,0,2.58,2,6.79,6.79,0,0,0,3.11.74A5.64,5.64,0,0,0,541,200.16Z"/><path d="M551.83,202.41a9.59,9.59,0,0,1-2.46-7,11.8,11.8,0,0,1,.93-4.72,8,8,0,0,1,2.88-3.49,8.27,8.27,0,0,1,4.79-1.34,8.39,8.39,0,0,1,4.61,1.25,8.06,8.06,0,0,1,2.95,3.31,10.22,10.22,0,0,1,1,4.52,1.6,1.6,0,0,1-.45,1.15,1.62,1.62,0,0,1-1.21.47h-12.2a5.87,5.87,0,0,0,1.87,3.92,6.44,6.44,0,0,0,4.43,1.41,10.14,10.14,0,0,0,4.86-1.12,1.34,1.34,0,0,1,.64-.14,1.44,1.44,0,0,1,1,.39,1.32,1.32,0,0,1,.44,1,1.56,1.56,0,0,1-.94,1.33,12.85,12.85,0,0,1-2.77,1.19,13.2,13.2,0,0,1-3.53.4A9.18,9.18,0,0,1,551.83,202.41Zm11.47-8.55a5.85,5.85,0,0,0-.92-3,5,5,0,0,0-2-1.74,5.47,5.47,0,0,0-4.82,0,4.84,4.84,0,0,0-2,1.74,5.84,5.84,0,0,0-.9,3Z"/><path d="M574.56,203.76a8.86,8.86,0,0,1-3.51-3.31,10.49,10.49,0,0,1,0-10.15,8.93,8.93,0,0,1,3.51-3.31,10.81,10.81,0,0,1,8.09-.67,13,13,0,0,1,2.57,1.24,1.44,1.44,0,0,1,.31,2.25,1.28,1.28,0,0,1-1,.45,1.67,1.67,0,0,1-.79-.21,13.53,13.53,0,0,0-2-.88,7.08,7.08,0,0,0-2.11-.27,6.53,6.53,0,0,0-4.86,1.78,7.14,7.14,0,0,0,0,9.39,6.54,6.54,0,0,0,4.86,1.79,6.74,6.74,0,0,0,2.11-.28,12.56,12.56,0,0,0,2-.88,1.67,1.67,0,0,1,.79-.21,1.28,1.28,0,0,1,1,.45,1.45,1.45,0,0,1,.41,1,1.43,1.43,0,0,1-.72,1.26,12.46,12.46,0,0,1-2.57,1.24,10.81,10.81,0,0,1-8.09-.67Z"/><path d="M591.79,204.27a5.11,5.11,0,0,1-2.93-4.75,5,5,0,0,1,2.1-4.25,10.15,10.15,0,0,1,6.18-1.59h4.35v-.28a4.36,4.36,0,0,0-1.17-3.42,5.36,5.36,0,0,0-3.65-1,11.85,11.85,0,0,0-2.43.22,19,19,0,0,0-2.36.65,2.54,2.54,0,0,1-.47.07,1.24,1.24,0,0,1-.93-.4,1.3,1.3,0,0,1-.4-1,1.39,1.39,0,0,1,.94-1.37,15.88,15.88,0,0,1,6.22-1.3,8.16,8.16,0,0,1,4.2,1,6.43,6.43,0,0,1,2.52,2.61,7.61,7.61,0,0,1,.81,3.48v10.19a1.52,1.52,0,0,1-.49,1.15,1.62,1.62,0,0,1-1.17.47,1.6,1.6,0,0,1-1.62-1.62v-.94a9,9,0,0,1-6.77,2.74A6.72,6.72,0,0,1,591.79,204.27Zm7.22-3a8.39,8.39,0,0,0,2.48-1.93v-3h-3.92c-3.62,0-5.44.95-5.44,2.85a2.65,2.65,0,0,0,.89,2.08,4.31,4.31,0,0,0,2.93.8A6.5,6.5,0,0,0,599,201.26Z"/><path d="M613,204a6,6,0,0,1-2.23-2.56,8.08,8.08,0,0,1-.78-3.56V187.64a1.58,1.58,0,0,1,.49-1.16,1.61,1.61,0,0,1,1.17-.46,1.57,1.57,0,0,1,1.15.46,1.6,1.6,0,0,1,.47,1.16v9.86q0,4.4,4,4.39a5.75,5.75,0,0,0,3.22-.93,11.88,11.88,0,0,0,2.68-2.52v-10.8a1.54,1.54,0,0,1,.49-1.16,1.61,1.61,0,0,1,1.17-.46,1.55,1.55,0,0,1,1.15.46,1.6,1.6,0,0,1,.47,1.16v15.44a1.62,1.62,0,0,1-.47,1.17,1.54,1.54,0,0,1-1.15.49,1.6,1.6,0,0,1-1.17-.49,1.56,1.56,0,0,1-.49-1.17V201.6a11.84,11.84,0,0,1-3,2.42,7.45,7.45,0,0,1-3.74.9A6.26,6.26,0,0,1,613,204Z"/><path d="M631.45,203.3a1.39,1.39,0,0,1-.62-1.19,1.42,1.42,0,0,1,.4-1,1.29,1.29,0,0,1,1-.43,1.64,1.64,0,0,1,.64.14,14,14,0,0,0,2.31.79,10.31,10.31,0,0,0,2.59.29q4,0,4-2.56a1.35,1.35,0,0,0-.92-1.25,18.51,18.51,0,0,0-3-1,26.85,26.85,0,0,1-3.51-1,6.21,6.21,0,0,1-2.37-1.64,4.16,4.16,0,0,1-1-2.9,5.19,5.19,0,0,1,1.81-4.1,7.69,7.69,0,0,1,5.21-1.59,15.08,15.08,0,0,1,5.22.91,1.31,1.31,0,0,1,.77.54,1.42,1.42,0,0,1-.14,1.83,1.37,1.37,0,0,1-1,.43,1.9,1.9,0,0,1-.47-.07,13.85,13.85,0,0,0-4.1-.65,5.58,5.58,0,0,0-3,.71,2.06,2.06,0,0,0-1.1,1.81,1.67,1.67,0,0,0,1,1.59,14.5,14.5,0,0,0,3.13,1,30.28,30.28,0,0,1,3.46,1.06A5.84,5.84,0,0,1,644,196.6a4.42,4.42,0,0,1,1,3,4.75,4.75,0,0,1-1.82,3.81,7.81,7.81,0,0,1-5.13,1.52A13.36,13.36,0,0,1,631.45,203.3Z"/><path d="M650.69,202.41a9.55,9.55,0,0,1-2.47-7,11.63,11.63,0,0,1,.94-4.72,8,8,0,0,1,2.88-3.49,8.23,8.23,0,0,1,4.78-1.34,8.34,8.34,0,0,1,4.61,1.25,8,8,0,0,1,3,3.31,10.09,10.09,0,0,1,1,4.52,1.57,1.57,0,0,1-1.65,1.62H651.53a5.91,5.91,0,0,0,1.87,3.92,6.45,6.45,0,0,0,4.43,1.41,10.07,10.07,0,0,0,4.86-1.12,1.38,1.38,0,0,1,.65-.14,1.47,1.47,0,0,1,1,.39,1.31,1.31,0,0,1,.43,1,1.55,1.55,0,0,1-.94,1.33,12.65,12.65,0,0,1-2.77,1.19,13.14,13.14,0,0,1-3.53.4A9.18,9.18,0,0,1,650.69,202.41Zm11.46-8.55a5.66,5.66,0,0,0-.92-3,4.87,4.87,0,0,0-2-1.74,5.49,5.49,0,0,0-4.83,0,4.84,4.84,0,0,0-2,1.74,5.94,5.94,0,0,0-.9,3Z"/><path d="M138.47,243.36V232.2h-2.56a.65.65,0,0,1-.48-.19.66.66,0,0,1-.2-.49.76.76,0,0,1,.32-.61l4.9-4.79a.87.87,0,0,1,.61-.32.67.67,0,0,1,.49.21.74.74,0,0,1,.19.51v2.88h4.07a1.37,1.37,0,0,1,1,.39,1.4,1.4,0,0,1,.4,1,1.42,1.42,0,0,1-.4,1,1.31,1.31,0,0,1-1,.41h-4.07v10.88c0,.93.23,1.53.67,1.78a3.35,3.35,0,0,0,1.67.38,5.26,5.26,0,0,0,1.45-.22l.3-.07a1.62,1.62,0,0,1,.41,0,1.27,1.27,0,0,1,.9.38,1.21,1.21,0,0,1,.4.92,1.37,1.37,0,0,1-.83,1.26,7.05,7.05,0,0,1-3,.65Q138.47,248.12,138.47,243.36Z"/><path d="M151.61,247.47a1.58,1.58,0,0,1-.47-1.15V223a1.66,1.66,0,0,1,.47-1.17,1.53,1.53,0,0,1,1.15-.48,1.59,1.59,0,0,1,1.17.48,1.63,1.63,0,0,1,.49,1.17v9.4a11.8,11.8,0,0,1,3-2.41,7.42,7.42,0,0,1,3.74-.9,6.26,6.26,0,0,1,3.44.93,6.1,6.1,0,0,1,2.23,2.56,8.11,8.11,0,0,1,.78,3.56v10.23a1.56,1.56,0,0,1-.49,1.15,1.62,1.62,0,0,1-1.17.47,1.56,1.56,0,0,1-1.15-.47,1.58,1.58,0,0,1-.47-1.15v-9.87q0-4.39-4-4.39a5.68,5.68,0,0,0-3.22.94,11.45,11.45,0,0,0-2.68,2.52v10.8a1.56,1.56,0,0,1-.49,1.15,1.62,1.62,0,0,1-1.17.47A1.56,1.56,0,0,1,151.61,247.47Z"/><path d="M174.41,245.61a9.59,9.59,0,0,1-2.46-7,11.8,11.8,0,0,1,.93-4.72,8.11,8.11,0,0,1,2.88-3.49,9.24,9.24,0,0,1,9.4-.09,8,8,0,0,1,3,3.31,10.22,10.22,0,0,1,1,4.52,1.58,1.58,0,0,1-1.66,1.62h-12.2a5.91,5.91,0,0,0,1.87,3.92,6.44,6.44,0,0,0,4.43,1.41,10.07,10.07,0,0,0,4.86-1.12,1.38,1.38,0,0,1,.65-.14,1.47,1.47,0,0,1,1,.39,1.34,1.34,0,0,1,.43,1,1.55,1.55,0,0,1-.94,1.33,12.65,12.65,0,0,1-2.77,1.19,13.14,13.14,0,0,1-3.53.4A9.2,9.2,0,0,1,174.41,245.61Zm11.47-8.55a5.75,5.75,0,0,0-.92-2.95,4.89,4.89,0,0,0-2-1.74,5.47,5.47,0,0,0-4.82,0,4.84,4.84,0,0,0-2,1.74,5.84,5.84,0,0,0-.9,2.95Z"/><path d="M199.27,256.07a1.35,1.35,0,0,1-.68-.48,1.32,1.32,0,0,1-.25-.81,1.37,1.37,0,0,1,.39-1,1.32,1.32,0,0,1,1-.41,4,4,0,0,1,.54.05,3.15,3.15,0,0,0,.54.06,2.84,2.84,0,0,0,1.66-.4c.36-.26.54-.84.54-1.73V230.91a1.58,1.58,0,0,1,.47-1.17,1.51,1.51,0,0,1,1.15-.49,1.61,1.61,0,0,1,1.66,1.66v20.55a5.39,5.39,0,0,1-1.14,3.59,4.41,4.41,0,0,1-3.58,1.35A7.1,7.1,0,0,1,199.27,256.07Zm4-31a1.76,1.76,0,0,1-.54-1.29v-.15a1.84,1.84,0,0,1,1.84-1.83h.21a1.84,1.84,0,0,1,1.84,1.83v.15a1.84,1.84,0,0,1-1.84,1.83h-.21A1.77,1.77,0,0,1,203.23,225.11Z"/><path d="M213.69,247.47a5,5,0,0,1-2.14-1.89,5.19,5.19,0,0,1-.79-2.86,5,5,0,0,1,2.1-4.25,10.15,10.15,0,0,1,6.18-1.59h4.35v-.28a4.36,4.36,0,0,0-1.17-3.42,5.36,5.36,0,0,0-3.65-1.05,11.78,11.78,0,0,0-2.43.22,19,19,0,0,0-2.36.65,2.54,2.54,0,0,1-.47.07,1.24,1.24,0,0,1-.93-.4,1.3,1.3,0,0,1-.4-1,1.39,1.39,0,0,1,.94-1.37,15.87,15.87,0,0,1,6.22-1.29,8.16,8.16,0,0,1,4.2,1,6.43,6.43,0,0,1,2.52,2.61,7.61,7.61,0,0,1,.81,3.48v10.19a1.52,1.52,0,0,1-.49,1.15,1.62,1.62,0,0,1-1.17.47,1.56,1.56,0,0,1-1.15-.47,1.58,1.58,0,0,1-.47-1.15v-.94a9,9,0,0,1-6.77,2.74A6.72,6.72,0,0,1,213.69,247.47Zm7.22-3a8.53,8.53,0,0,0,2.48-1.92v-3h-3.92q-5.44,0-5.44,2.85a2.64,2.64,0,0,0,.88,2.08,4.36,4.36,0,0,0,2.94.8A6.5,6.5,0,0,0,220.91,244.46Z"/><path d="M235.88,247a8.86,8.86,0,0,1-3.51-3.31,10.49,10.49,0,0,1,0-10.15,8.93,8.93,0,0,1,3.51-3.31,10.92,10.92,0,0,1,8.08-.67,12.81,12.81,0,0,1,2.58,1.24,1.46,1.46,0,0,1,.72,1.26,1.42,1.42,0,0,1-.42,1,1.25,1.25,0,0,1-1,.45,1.67,1.67,0,0,1-.79-.21,13.16,13.16,0,0,0-2-.88,7,7,0,0,0-2.1-.27,6.5,6.5,0,0,0-4.86,1.78,7.11,7.11,0,0,0,0,9.39,6.51,6.51,0,0,0,4.86,1.79,7,7,0,0,0,2.1-.27,13.33,13.33,0,0,0,2-.89,1.67,1.67,0,0,1,.79-.21,1.25,1.25,0,0,1,1,.45,1.43,1.43,0,0,1-.3,2.25,12.29,12.29,0,0,1-2.58,1.24,10,10,0,0,1-3.29.49A10.15,10.15,0,0,1,235.88,247Z"/><path d="M251.83,247.47a1.58,1.58,0,0,1-.47-1.15V223a1.66,1.66,0,0,1,.47-1.17,1.55,1.55,0,0,1,1.15-.48,1.66,1.66,0,0,1,1.66,1.65v14.73l8.57-7.92a1.62,1.62,0,0,1,1.08-.47,1.42,1.42,0,0,1,1.2.47,1.72,1.72,0,0,1,.38,1.11,1.76,1.76,0,0,1-.61,1.23l-5.19,4.64,6.52,8.64a1.58,1.58,0,0,1,.36,1,1.48,1.48,0,0,1-.47,1.15,1.68,1.68,0,0,1-1.19.44,1.6,1.6,0,0,1-.72-.18,1.76,1.76,0,0,1-.61-.51l-6.19-8.42-3.13,2.84v4.65a1.52,1.52,0,0,1-.49,1.15,1.62,1.62,0,0,1-1.17.47A1.58,1.58,0,0,1,251.83,247.47Z"/><path d="M283.58,246.93a8.12,8.12,0,0,1-3.22-3.37,11.47,11.47,0,0,1,0-10,8.18,8.18,0,0,1,3.22-3.37,10.54,10.54,0,0,1,9.69,0,8.29,8.29,0,0,1,3.24,3.37,11.38,11.38,0,0,1,0,10,8.22,8.22,0,0,1-3.24,3.37,10.46,10.46,0,0,1-9.69,0Zm7.69-2.49a5.43,5.43,0,0,0,2.23-2.16,8.32,8.32,0,0,0,0-7.45,5.38,5.38,0,0,0-2.23-2.14,6.38,6.38,0,0,0-5.69,0,5.22,5.22,0,0,0-2.21,2.14,8.41,8.41,0,0,0,0,7.45,5.27,5.27,0,0,0,2.21,2.16,6.21,6.21,0,0,0,5.69,0Z"/><path d="M302.23,229.79a1.11,1.11,0,0,1-.36-.65c-.19-1-.37-2.08-.54-3.29a23.16,23.16,0,0,1-.25-3.19,1.69,1.69,0,0,1,.54-1.27,1.85,1.85,0,0,1,2.59,0,1.69,1.69,0,0,1,.54,1.27,23.16,23.16,0,0,1-.25,3.19c-.17,1.21-.35,2.31-.54,3.29a1.11,1.11,0,0,1-.36.65,1,1,0,0,1-.69.25A1,1,0,0,1,302.23,229.79Z"/><path d="M310.22,247.47a1.58,1.58,0,0,1-.47-1.15V223a1.66,1.66,0,0,1,.47-1.17,1.55,1.55,0,0,1,1.15-.48,1.61,1.61,0,0,1,1.19.46A1.64,1.64,0,0,1,313,223v23.37a1.52,1.52,0,0,1-.49,1.15,1.62,1.62,0,0,1-1.17.47A1.58,1.58,0,0,1,310.22,247.47Z"/><path d="M320.46,247.47a5.09,5.09,0,0,1-2.14-1.89,5.19,5.19,0,0,1-.79-2.86,5,5,0,0,1,2.1-4.25,10.17,10.17,0,0,1,6.18-1.59h4.35v-.28a4.36,4.36,0,0,0-1.17-3.42,5.34,5.34,0,0,0-3.65-1.05,11.85,11.85,0,0,0-2.43.22,19.51,19.51,0,0,0-2.36.65,2.43,2.43,0,0,1-.47.07,1.24,1.24,0,0,1-.93-.4,1.3,1.3,0,0,1-.4-1,1.39,1.39,0,0,1,.94-1.37,15.88,15.88,0,0,1,6.23-1.29,8.15,8.15,0,0,1,4.19,1,6.43,6.43,0,0,1,2.52,2.61,7.61,7.61,0,0,1,.81,3.48v10.19a1.55,1.55,0,0,1-.48,1.15,1.66,1.66,0,0,1-1.17.47,1.61,1.61,0,0,1-1.63-1.62v-.94a9,9,0,0,1-6.76,2.74A6.73,6.73,0,0,1,320.46,247.47Zm7.22-3a8.53,8.53,0,0,0,2.48-1.92v-3h-3.92c-3.62,0-5.44,1-5.44,2.85a2.65,2.65,0,0,0,.89,2.08,4.31,4.31,0,0,0,2.93.8A6.45,6.45,0,0,0,327.68,244.46Z"/><path d="M339.42,247.47a1.54,1.54,0,0,1-.47-1.15V230.87a1.62,1.62,0,0,1,.47-1.17,1.53,1.53,0,0,1,1.15-.48,1.64,1.64,0,0,1,1.65,1.65v1.48a12,12,0,0,1,3-2.41,7.42,7.42,0,0,1,3.74-.9,6.26,6.26,0,0,1,3.44.93,6.17,6.17,0,0,1,2.23,2.56,8.1,8.1,0,0,1,.77,3.56v10.23a1.55,1.55,0,0,1-.48,1.15,1.66,1.66,0,0,1-1.17.47,1.56,1.56,0,0,1-1.15-.47,1.54,1.54,0,0,1-.47-1.15v-9.87q0-4.39-4-4.39a5.66,5.66,0,0,0-3.22.94,11.48,11.48,0,0,0-2.69,2.52v10.8a1.55,1.55,0,0,1-.48,1.15,1.66,1.66,0,0,1-1.17.47A1.56,1.56,0,0,1,339.42,247.47Z"/><path d="M361.52,243.36V232.2H359a.65.65,0,0,1-.48-.19.7.7,0,0,1-.2-.49.76.76,0,0,1,.32-.61l4.9-4.79a.89.89,0,0,1,.61-.32.65.65,0,0,1,.49.21.74.74,0,0,1,.2.51v2.88h4.06a1.37,1.37,0,0,1,1,.39,1.36,1.36,0,0,1,.4,1,1.37,1.37,0,0,1-.4,1,1.31,1.31,0,0,1-1,.41H364.8v10.88c0,.93.22,1.53.66,1.78a3.39,3.39,0,0,0,1.68.38,5.14,5.14,0,0,0,1.44-.22l.3-.07a1.66,1.66,0,0,1,.42,0,1.3,1.3,0,0,1,.9.38,1.23,1.23,0,0,1,.39.92,1.35,1.35,0,0,1-.83,1.26,7,7,0,0,1-3,.65Q361.52,248.12,361.52,243.36Z"/><path d="M375.29,245.61a9.59,9.59,0,0,1-2.47-7,11.8,11.8,0,0,1,.94-4.72,8,8,0,0,1,2.88-3.49,8.26,8.26,0,0,1,4.79-1.33,8.36,8.36,0,0,1,4.61,1.24,8.06,8.06,0,0,1,2.95,3.31,10.22,10.22,0,0,1,1,4.52,1.58,1.58,0,0,1-1.66,1.62h-12.2a5.87,5.87,0,0,0,1.87,3.92,6.42,6.42,0,0,0,4.43,1.41,10.14,10.14,0,0,0,4.86-1.12,1.38,1.38,0,0,1,.65-.14,1.43,1.43,0,0,1,1,.39,1.31,1.31,0,0,1,.43,1,1.55,1.55,0,0,1-.93,1.33,12.85,12.85,0,0,1-2.77,1.19,13.14,13.14,0,0,1-3.53.4A9.2,9.2,0,0,1,375.29,245.61Zm11.47-8.55a5.75,5.75,0,0,0-.92-2.95,5,5,0,0,0-2-1.74,5.47,5.47,0,0,0-4.82,0,4.72,4.72,0,0,0-2,1.74,5.84,5.84,0,0,0-.9,2.95Z"/><path d="M394.79,247.47a1.54,1.54,0,0,1-.47-1.15V230.87a1.62,1.62,0,0,1,.47-1.17,1.53,1.53,0,0,1,1.15-.48,1.64,1.64,0,0,1,1.65,1.65v1.55c1.68-2.26,3.57-3.38,5.66-3.38h.18a1.51,1.51,0,0,1,1.13.46,1.62,1.62,0,0,1,.45,1.16,1.46,1.46,0,0,1-.47,1.11,1.67,1.67,0,0,1-1.19.43h-.18a6.13,6.13,0,0,0-3.16.85,7.24,7.24,0,0,0-2.42,2.32v10.95a1.55,1.55,0,0,1-.48,1.15,1.66,1.66,0,0,1-1.17.47A1.56,1.56,0,0,1,394.79,247.47Z"/><path d="M408.57,247.47a1.57,1.57,0,0,1-.46-1.15V230.87a1.65,1.65,0,0,1,.46-1.17,1.55,1.55,0,0,1,1.15-.48,1.66,1.66,0,0,1,1.66,1.65v1.48a12,12,0,0,1,2.95-2.41,7.49,7.49,0,0,1,3.75-.9,6.28,6.28,0,0,1,3.44.93,6.17,6.17,0,0,1,2.23,2.56,8.24,8.24,0,0,1,.77,3.56v10.23a1.55,1.55,0,0,1-.48,1.15,1.66,1.66,0,0,1-1.17.47,1.6,1.6,0,0,1-1.16-.47,1.57,1.57,0,0,1-.46-1.15v-9.87q0-4.39-4-4.39a5.69,5.69,0,0,0-3.23.94,11.64,11.64,0,0,0-2.68,2.52v10.8a1.52,1.52,0,0,1-.49,1.15,1.62,1.62,0,0,1-1.17.47A1.58,1.58,0,0,1,408.57,247.47Z"/><path d="M442.66,245.38v.94a1.55,1.55,0,0,1-.48,1.15,1.66,1.66,0,0,1-1.17.47,1.56,1.56,0,0,1-1.15-.47,1.54,1.54,0,0,1-.47-1.15V223a1.62,1.62,0,0,1,.47-1.17,1.53,1.53,0,0,1,1.15-.48,1.58,1.58,0,0,1,1.65,1.65v8.82a8.38,8.38,0,0,1,10.39-1.6,8.67,8.67,0,0,1,3.24,3.31,11.09,11.09,0,0,1,0,10.19,8.6,8.6,0,0,1-3.24,3.31,8.34,8.34,0,0,1-10.39-1.6Zm10-2a7.88,7.88,0,0,0,0-9.57,5.66,5.66,0,0,0-4.29-1.69,6.81,6.81,0,0,0-3.11.73,9.13,9.13,0,0,0-2.58,2v7.56a9.09,9.09,0,0,0,2.58,2,6.82,6.82,0,0,0,3.11.74A5.66,5.66,0,0,0,452.64,243.36Z"/><path d="M462.57,247.47a1.58,1.58,0,0,1-.47-1.15V230.87a1.66,1.66,0,0,1,.47-1.17,1.55,1.55,0,0,1,1.15-.48,1.66,1.66,0,0,1,1.66,1.65v1.55c1.68-2.26,3.56-3.38,5.65-3.38h.18a1.53,1.53,0,0,1,1.14.46,1.62,1.62,0,0,1,.45,1.16,1.46,1.46,0,0,1-.47,1.11,1.67,1.67,0,0,1-1.19.43H471a6.19,6.19,0,0,0-3.17.85,7.3,7.3,0,0,0-2.41,2.32v10.95a1.52,1.52,0,0,1-.49,1.15,1.62,1.62,0,0,1-1.17.47A1.58,1.58,0,0,1,462.57,247.47Z"/><path d="M478.59,246.93a8.12,8.12,0,0,1-3.22-3.37,11.56,11.56,0,0,1,0-10,8.18,8.18,0,0,1,3.22-3.37,10.54,10.54,0,0,1,9.69,0,8.29,8.29,0,0,1,3.24,3.37,11.38,11.38,0,0,1,0,10,8.22,8.22,0,0,1-3.24,3.37,10.46,10.46,0,0,1-9.69,0Zm7.69-2.49a5.43,5.43,0,0,0,2.23-2.16,8.32,8.32,0,0,0,0-7.45,5.38,5.38,0,0,0-2.23-2.14,6.38,6.38,0,0,0-5.69,0,5.22,5.22,0,0,0-2.21,2.14,8.41,8.41,0,0,0,0,7.45,5.27,5.27,0,0,0,2.21,2.16,6.21,6.21,0,0,0,5.69,0Z"/><path d="M497.71,247.47a1.58,1.58,0,0,1-.47-1.15V223a1.66,1.66,0,0,1,.47-1.17,1.53,1.53,0,0,1,1.15-.48,1.59,1.59,0,0,1,1.17.48,1.63,1.63,0,0,1,.49,1.17v14.73l8.56-7.92a1.62,1.62,0,0,1,1.08-.47,1.45,1.45,0,0,1,1.21.47,1.72,1.72,0,0,1,.38,1.11,1.81,1.81,0,0,1-.61,1.23L506,236.74l6.52,8.64a1.58,1.58,0,0,1,.36,1,1.48,1.48,0,0,1-.47,1.15,1.68,1.68,0,0,1-1.19.44,1.6,1.6,0,0,1-.72-.18,1.76,1.76,0,0,1-.61-.51l-6.19-8.42-3.13,2.84v4.65a1.56,1.56,0,0,1-.49,1.15,1.62,1.62,0,0,1-1.17.47A1.56,1.56,0,0,1,497.71,247.47Z"/><path d="M517.89,245.61a9.55,9.55,0,0,1-2.47-7,11.63,11.63,0,0,1,.94-4.72,8,8,0,0,1,2.88-3.49A8.23,8.23,0,0,1,524,229a8.34,8.34,0,0,1,4.61,1.24,8,8,0,0,1,3,3.31,10.09,10.09,0,0,1,1,4.52,1.57,1.57,0,0,1-1.65,1.62H518.73a5.91,5.91,0,0,0,1.87,3.92,6.44,6.44,0,0,0,4.43,1.41,10.07,10.07,0,0,0,4.86-1.12,1.38,1.38,0,0,1,.65-.14,1.47,1.47,0,0,1,1,.39,1.31,1.31,0,0,1,.43,1,1.55,1.55,0,0,1-.94,1.33,12.65,12.65,0,0,1-2.77,1.19,13.14,13.14,0,0,1-3.53.4A9.18,9.18,0,0,1,517.89,245.61Zm11.46-8.55a5.75,5.75,0,0,0-.92-2.95,4.93,4.93,0,0,0-2-1.74,5.49,5.49,0,0,0-4.83,0,4.84,4.84,0,0,0-2,1.74,5.84,5.84,0,0,0-.9,2.95Z"/><path d="M546.52,225.11a1.76,1.76,0,0,1-.54-1.29v-.15a1.84,1.84,0,0,1,1.84-1.83H548a1.84,1.84,0,0,1,1.83,1.83v.15a1.84,1.84,0,0,1-1.83,1.83h-.22A1.77,1.77,0,0,1,546.52,225.11Zm.22,22.36a1.58,1.58,0,0,1-.47-1.15V230.87a1.66,1.66,0,0,1,.47-1.17,1.55,1.55,0,0,1,1.15-.48,1.61,1.61,0,0,1,1.19.46,1.64,1.64,0,0,1,.47,1.19v15.45a1.56,1.56,0,0,1-.49,1.15,1.62,1.62,0,0,1-1.17.47A1.58,1.58,0,0,1,546.74,247.47Z"/><path d="M555.7,247.47a1.58,1.58,0,0,1-.47-1.15V230.87a1.66,1.66,0,0,1,.47-1.17,1.57,1.57,0,0,1,1.16-.48,1.64,1.64,0,0,1,1.65,1.65v1.48a12,12,0,0,1,3-2.41,7.49,7.49,0,0,1,3.75-.9,6.22,6.22,0,0,1,3.43.93,6.12,6.12,0,0,1,2.24,2.56,8.24,8.24,0,0,1,.77,3.56v10.23a1.55,1.55,0,0,1-.48,1.15,1.66,1.66,0,0,1-1.18.47,1.59,1.59,0,0,1-1.61-1.62v-9.87c0-2.93-1.33-4.39-4-4.39a5.69,5.69,0,0,0-3.23.94,11.45,11.45,0,0,0-2.68,2.52v10.8a1.55,1.55,0,0,1-.48,1.15,1.66,1.66,0,0,1-1.17.47A1.6,1.6,0,0,1,555.7,247.47Z"/><path d="M587,247.47a1.54,1.54,0,0,1-.47-1.15V223a1.62,1.62,0,0,1,.47-1.17,1.53,1.53,0,0,1,1.15-.48,1.64,1.64,0,0,1,1.65,1.65v9.4a12,12,0,0,1,3-2.41,7.42,7.42,0,0,1,3.74-.9,6.26,6.26,0,0,1,3.44.93,6.17,6.17,0,0,1,2.23,2.56,8.1,8.1,0,0,1,.77,3.56v10.23a1.55,1.55,0,0,1-.48,1.15,1.66,1.66,0,0,1-1.17.47,1.56,1.56,0,0,1-1.15-.47,1.54,1.54,0,0,1-.47-1.15v-9.87q0-4.39-4-4.39a5.66,5.66,0,0,0-3.22.94,11.48,11.48,0,0,0-2.69,2.52v10.8a1.55,1.55,0,0,1-.48,1.15,1.66,1.66,0,0,1-1.17.47A1.56,1.56,0,0,1,587,247.47Z"/><path d="M610.19,247.47a5,5,0,0,1-2.14-1.89,5.19,5.19,0,0,1-.8-2.86,5.05,5.05,0,0,1,2.11-4.25q2.1-1.59,6.17-1.59h4.36v-.28a4.36,4.36,0,0,0-1.17-3.42,5.36,5.36,0,0,0-3.65-1.05,11.71,11.71,0,0,0-2.43.22,19,19,0,0,0-2.36.65,2.54,2.54,0,0,1-.47.07,1.24,1.24,0,0,1-.93-.4,1.3,1.3,0,0,1-.4-1,1.39,1.39,0,0,1,.93-1.37,15.91,15.91,0,0,1,6.23-1.29,8.16,8.16,0,0,1,4.2,1,6.43,6.43,0,0,1,2.52,2.61,7.61,7.61,0,0,1,.81,3.48v10.19a1.56,1.56,0,0,1-.49,1.15,1.64,1.64,0,0,1-1.17.47,1.56,1.56,0,0,1-1.15-.47,1.58,1.58,0,0,1-.47-1.15v-.94a9.07,9.07,0,0,1-6.77,2.74A6.72,6.72,0,0,1,610.19,247.47Zm7.22-3a8.53,8.53,0,0,0,2.48-1.92v-3H616q-5.44,0-5.44,2.85a2.64,2.64,0,0,0,.88,2.08,4.36,4.36,0,0,0,2.94.8A6.5,6.5,0,0,0,617.41,244.46Z"/><path d="M629.14,247.47a1.58,1.58,0,0,1-.47-1.15V223a1.66,1.66,0,0,1,.47-1.17,1.55,1.55,0,0,1,1.15-.48,1.61,1.61,0,0,1,1.19.46A1.64,1.64,0,0,1,632,223v23.37a1.52,1.52,0,0,1-.49,1.15,1.62,1.62,0,0,1-1.17.47A1.58,1.58,0,0,1,629.14,247.47Z"/><path d="M639.47,247.47a1.57,1.57,0,0,1-.46-1.15V232.2h-2.13a1.34,1.34,0,0,1-1-.41,1.38,1.38,0,0,1-.41-1,1.36,1.36,0,0,1,.41-1,1.41,1.41,0,0,1,1-.39H639v-2.09a7.21,7.21,0,0,1,.77-3.55,4.8,4.8,0,0,1,2-2,5.72,5.72,0,0,1,2.62-.63,6.92,6.92,0,0,1,3.13.72,1.55,1.55,0,0,1,.59.52,1.26,1.26,0,0,1,.24.74,1.36,1.36,0,0,1-.4,1,1.24,1.24,0,0,1-.94.41,3.4,3.4,0,0,1-.82-.1c-.58-.08-.91-.11-1-.11a3.18,3.18,0,0,0-2.21.68,3.35,3.35,0,0,0-.74,2.49v2h4.5a1.37,1.37,0,0,1,1,.39,1.4,1.4,0,0,1,.4,1,1.42,1.42,0,0,1-.4,1,1.31,1.31,0,0,1-1,.41h-4.5v14.12a1.52,1.52,0,0,1-.49,1.15,1.62,1.62,0,0,1-1.17.47A1.59,1.59,0,0,1,639.47,247.47Z"/><path d="M650.54,247.27a2,2,0,0,1-.59-1.42v-.22a2,2,0,0,1,.59-1.42,1.93,1.93,0,0,1,1.42-.59h.37a1.93,1.93,0,0,1,1.42.59,2,2,0,0,1,.59,1.42v.22a2,2,0,0,1-.59,1.42,1.93,1.93,0,0,1-1.42.59H652A1.93,1.93,0,0,1,650.54,247.27Z"/><rect class="cls-1" x="1046.86" y="723.53" width="18.41" height="52.17" rx="9.21" transform="translate(1272.76 2026.43) rotate(-135)"/><path class="cls-2" d="M1387.64,693.31a57.29,57.29,0,0,0,2.7,8.32c24.48,60.22,139,64.83,236.18,57.56s122.28-43,105.88-83.32c-1.1-2.73,7.51-6,6-8.58.93,3.91-1.47-5.3-5-14.07-3.19-7.85-8-16.53-6.14-13.4a56,56,0,0,0-2.6-8.11,66.8,66.8,0,0,0-8.81-15.28c-3.24-.91-6.46-1.79-9.67-2.61h0l-1.8-.45-.19,0q-1.77-.44-3.54-.84l-.16,0h0c-15.41-3.46-30.34-4.56-44.12,2.22a119.76,119.76,0,0,0-15.8-10.93c-6.49,3-12.66,6.08-18.69,9.29h0l-.07,0c-7.86,4.18-15.47,8.49-23.19,12.75l-2.11,1.15-2.1,1.15-2.87,1.55-1.36.72c-1.21.65-2.43,1.3-3.66,1.94l-1,.51c-1.09.57-2.19,1.13-3.3,1.69l-.92.47-3.94,1.94-1,.5q-1.89.92-3.81,1.8c-16.9,1.29-34,2.76-50.74,4.46-2.83-.71-5.25-1-6.8-.47-7.19,2.25-11.89,5.28-15.24,8.77l0,0c-.31.32-.61.65-.9,1l0,0c-.29.33-.56.67-.83,1,0,0,0,0,0,0l-.77,1h0c-3.17,4.48-4.85,9.48-6.95,14.47h0l-.48,1.15c-.05.09-.09.18-.13.27-.13.31-.27.62-.42.94l-.18.39-.39.82-.23.46-.39.77-.26.49c-.13.25-.27.49-.41.74l-.29.5c-.14.25-.29.49-.45.74l-.29.48c-.17.27-.35.53-.53.8s-.18.27-.28.4c-.27.4-.56.8-.86,1.19-13.21-4-27.6-12-40.13-10.23-1.09.19-2.15.4-3.2.62l-.65.13-.9.2-1.56.35-1.18.29-.23.06-.68.16-1,.25-1.19.33-1.29.36-.67.2-1,.29-1.78.56-.17,0-.52.17-.38.12-1.93.66-.85.3-.29.1-.65.24-1.77.65-.55.22-.22.09-1,.4-.87.34-1,.42-.59.24-.7.29-.32.13-1.14.49-1.29.55-.67.29-.69.31-1.39.62-.8.36-.78.35-.21.1-.77.35-1.2.56-2.28,1.06-.18.08c-6.11,2.87-12.21,5.81-18.73,8.52"/><path class="cls-3" d="M1743.56,626.84c.43-9.55.52-18.69.32-27.48-22.45,13.29-42.39,31.89-66.48,35.72-13.06,1.18-23.05-19.56-33.86-31.39-16.17,26.53-20.83,62.84-47.76,74.11-6.92,3.32-20.23-24.33-27.15-21-42.14,18.6-75.62,55.16-114.44,80.67-4-8.3-7.27-18.64-9.88-27.6-18.82,13.42-34.07,4.6-48.78-9,16,75.51,58.81,129.54,130,133.35C1623.48,839.44,1734.93,817.15,1743.56,626.84Z"/><path class="cls-4" d="M1737.41,629.56a155.68,155.68,0,0,0-6.29-22.07c-17.54,11.79-34.28,24.5-53.72,27.59-13.06,1.18-23.05-19.56-33.86-31.39-16.17,26.53-20.83,62.84-47.76,74.11-6.92,3.32-20.23-24.33-27.15-21-33.7,14.88-61.87,41.24-91.66,64.25,15.56,6.55,33.26,10.61,53.13,11.67C1614.52,737.25,1708.71,726.17,1737.41,629.56Z"/><path class="cls-4" d="M1741.32,676.27q.42-9.36.15-18.09c-15.1,128.52-120.67,142.66-214.23,137.64-65.59-3.51-107.55-39.5-126.87-90.71-4.36-3.63-8.64-7.83-12.93-12.17,7.71,76.17,53,135.38,138.12,139.94C1623.54,838.13,1734.69,822.39,1741.32,676.27Z"/><path class="cls-5" d="M1739.84,644s7.55,1.77,11.25.87,18-1.28,27.65-7.9,20.15-17.12,19.2-18.11-.09-5.57-2.41-5.61-15.62,5.7-37.13,5.86c-3.58,0-18-3-21.63,2.76s.66,17.23,1.61,18.22S1739.84,644,1739.84,644Z"/><path class="cls-3" d="M1677.4,635.08c-13.06,1.18-23.05-19.56-33.86-31.39-15.06,24.71-20.15,57.89-42.53,71.43,61.51-1.4,117-11.84,136.39-45.42a60.09,60.09,0,0,0-13-17.63C1709.23,622.39,1694.34,632.39,1677.4,635.08Z"/><path d="M1658.2,814.19c9.06.54-79,21.3-71.88,16.6s17.62-18.42,13.09-15.84-43.15.93-29.57-2,27.88-7.73,33.45-8.31S1649.14,813.65,1658.2,814.19Z"/><path d="M1652.19,756.69c-13.09,0-34,11.65-42,14.21s-40.7-.68-27-3.17,21.15-12,14.89-10-44.74-5.05-30.56-7,19.93-6.75,30.17-10.21S1665.28,756.7,1652.19,756.69Z"/><path d="M1538.45,723.54c-6.73,4.74-40.6,23.28-40.6,23.28s23,20.94,27.51,22-36.87,2-36.87,2,32.19,28.51,39.18,28.35-36.93,3.27-36.93,3.27,38.31,26.76,26.06,21.9-28.5-2.55-28.5-2.55,5,3.7,10.12,7.95l-.55-.45a140.76,140.76,0,0,1-37.85-14h0c11-1.85,13.87-7.17,8.73-7.68s-25.37-11.51-12.73-11,29-12.67,22.61-11.92-33.89-18.68-21.39-15,22.14-15.43,17-14.8-25.51-8.06-15.9-8.42S1545.18,718.81,1538.45,723.54Z"/><path class="cls-2" d="M999.58,428.42a57.89,57.89,0,0,1,2.64,8.34c15.06,63.25-75.46,133.52-158.8,184.07s-124.5,36-134.59-6.31c-.68-2.86-9.57-.49-9.85-3.51,1.52,3.73-1.89-5.16-4.08-14.36-2-8.25-3.13-18.09-2.79-14.47a55.45,55.45,0,0,1-2.59-8.12,67,67,0,0,1-1.71-17.56c2.11-2.62,4.22-5.21,6.36-7.73v0l1.2-1.41.13-.14c.79-.93,1.59-1.84,2.4-2.74l.11-.13h0c10.54-11.78,22-21.34,37.21-23.83a118.5,118.5,0,0,1,6.51-18.07c7-1.37,13.84-2.41,20.61-3.3h.07c8.83-1.17,17.53-2.08,26.29-3.11l2.38-.28,2.38-.29,3.24-.4,1.52-.2,4.11-.55,1.1-.16,3.66-.54,1-.16c1.45-.22,2.89-.46,4.35-.71l1.12-.19,4.15-.75c14.5-8.76,29.3-17.53,43.88-25.85,1.9-2.22,3.69-3.86,5.27-4.32,7.16-2.35,12.75-2.62,17.5-1.72h0c.45.08.88.18,1.31.28l.06,0q.65.15,1.26.33l.06,0c.41.12.83.26,1.23.4h0c5.18,1.81,9.45,4.9,14.06,7.74h0l1.07.65.25.15.89.52.37.21.81.44.44.24.77.4.5.25.77.36.51.24.8.35.52.21.89.34.46.18c.46.16.93.32,1.4.46,8.4-11,15.48-25.8,26.72-31.64,1-.47,2-.92,3-1.36l.61-.26.85-.37,1.47-.61,1.12-.45.23-.09.65-.26.91-.35,1.16-.43,1.26-.45.66-.23,1-.33,1.77-.58.17-.06.52-.17.39-.11c.65-.21,1.3-.4,2-.59l.87-.25.29-.09.67-.18c.6-.17,1.21-.34,1.81-.49l.58-.15.23-.06,1.07-.27.91-.23,1.08-.25.62-.15.74-.17.34-.08,1.21-.27,1.37-.29.72-.16.73-.15,1.49-.3.87-.17.83-.17.23,0,.83-.16L976,431l2.47-.46.2,0c6.64-1.22,13.31-2.37,20.2-4"/><path class="cls-3" d="M980.42,438.33c-3-8.84-6.72-19-11.07-27.15-37.67,27.17-69.54,65.15-110.83,85.56-6.76,3.62-21.27-23.42-28-19.8-26.42,12.43-29.5,48.9-44.51,76.11-11.31-11.35-22.19-31.63-35.18-29.89-23.91,4.87-43,24.31-64.87,38.57,10.44,157,114.23,192.42,207.14,193.37,98.12,1,147-96.44,147.28-217.24.06-33.07-3.54-64.45-10.8-92.63C1014.26,432.26,998.64,424.1,980.42,438.33Z"/><path class="cls-4" d="M858.52,496.74c-6.76,3.62-21.27-23.42-28-19.8-26.42,12.43-29.5,48.9-44.51,76.11-11.31-11.35-22.19-31.63-35.18-29.89-19.3,3.93-35.47,17.36-52.48,29.89,32.06,76.68,117.31,96,195,96.77,78.66.8,125.67-47.06,141.31-113.87-11.49-50.14-40.53-90.06-87.28-107.38C918.55,452.85,891.55,480.42,858.52,496.74Z"/><path class="cls-4" d="M893.15,718c-93.69-1-198.46-28.84-207.49-152q-.67,9.13-.7,19C684.69,723.57,795,754.1,893.07,755.1s147-73.71,147.18-166.46q0-9.4-.64-18.55C1033.3,654.05,984.62,718.93,893.15,718Z"/><path class="cls-4" d="M1039.73,506.92q.69-9.12.72-18.54a244.72,244.72,0,0,0-2.48-35.6c-4.47-4.15-8.93-8.17-13.44-11.6C1033,460.94,1038.05,483.21,1039.73,506.92Z"/><path class="cls-3" d="M858.52,496.74a201.76,201.76,0,0,0,29.92-18.52c-17.07-.11-34.44.12-51.48,1C844.18,485.18,853.49,499.43,858.52,496.74Z"/><path class="cls-3" d="M786,553.05c-11.31-11.35-22.19-31.63-35.18-29.89-16.81,3.42-31.25,14.06-45.94,25,36.07,31.71,115.66,40.33,188.53,41.07,78.66.79,125.63-22,141.21-54.07-15.46-32.39-62.33-56.13-141-56.93l-5.17,0a201.76,201.76,0,0,1-29.92,18.52c-5,2.69-14.34-11.56-21.56-17.56q-5.82.27-11.58.66C803.6,494.34,800,527.71,786,553.05Z"/><path d="M1034.15,445.23s-25.22-19.4-21.69-14.11c.57.85,1.34,2.15,2.23,3.71,7.14,3.67,14,9.48,21,15.8C1034.77,447.32,1034.15,445.23,1034.15,445.23Z"/><path d="M1027.13,458.38s-29.59,2.66-20.39,4.05,24.51,19.84,24.51,19.84-23,19.35-15.38,18.13S1026.6,507,1026.6,507s-20,22-12.31,20.77,18.41-1.12,18.4,4.11-1.59,27.4-4.67,33.9-7-9.07-7.38,3.92-11.1,32.46-3.42,27.31,16.42-6.36,13.58.14-19.77,27.22-13.63,24.67,11.33-7.72,9.5.1-12.61,23.38-9.54,20.79,13.35-2.29,15.9-9.54,10.29-44.87,11.87-67.14.09-48.82.11-59-3.42-7.66-3.21-21.37c.15-9.87-3.88-26.48-6.15-35-6.91-6.32-13.82-12.13-21-15.8C1019.31,442.94,1027.13,458.38,1027.13,458.38Z"/><path class="cls-1" d="M1029.66,876.11c51.48,4.32,103.93,9,155.59,6.78,25.26-1.07,50.47-7.58,75.2-12.43,33.43-6.56,66.86-13.23,100.15-20.51,27.21-6,52.72-15,79-24.14,11.12-3.86,6.34-21.66-4.9-17.75-22.74,7.9-45.06,16.49-68.57,21.81-32.13,7.27-64.45,13.7-96.76,20.1q-23.14,4.59-46.33,9c-10.22,1.94-21,4.3-29.55,5-30.66,2.51-62,.27-92.62-1.41q-35.64-2-71.24-4.88c-11.81-1-11.74,17.43,0,18.42Z"/><path class="cls-1" d="M1394.28,844.35l32.92,11.08c11.26,3.78,16.09-14,4.9-17.76l-32.93-11.08c-11.26-3.79-16.09,14-4.89,17.76Z"/><path class="cls-6" d="M771,914.1c-135.2,15-86.57-33.26-92.35-85.49S614.8,740,750,725c24.79-2.75,152.38-16.47,177.4-18.05,111.39-7,112.85,13.53,120.3,80.78,7.23,65.25,5.51,88-107.79,106.13C917.76,897.39,793.06,911.65,771,914.1Z"/><path class="cls-1" d="M634.64,761a126.06,126.06,0,0,0-30.93-25.78c-8.36-5.08-18.74-8.78-26.2-15.18-1.49-1.27-1.64-.3-1-2.79.94-3.7,3-7,5.07-10.21a86.75,86.75,0,0,1,9.9-12.47c8.16-8.59-4.84-21.63-13-13-10.06,10.59-26.74,30.36-18.57,45.94,4.64,8.84,16.62,13.53,24.9,18.1,13.9,7.66,26.5,16.25,36.86,28.43,7.69,9,20.66-4,13-13Z"/><path class="cls-1" d="M662.17,875.77c-11.62,10.19-25.32,16.63-39.68,22-9,3.37-22.57,6.42-27.92,15.33-8.55,14.22,3.63,34.48,11.9,46.2,6.78,9.61,22.75.42,15.9-9.3a102.72,102.72,0,0,1-8.16-13.78c-1.65-3.36-3.49-7.24-3.87-11a17.57,17.57,0,0,1,0-2.51c0-.36.35-.95-.35.15s1.14-.59,1.79-.91c8.76-4.42,18.23-7.2,27.27-11a129.8,129.8,0,0,0,36.15-22.14c8.93-7.82-4.14-20.81-13-13Z"/><path class="cls-7" d="M691.08,930.67c110.19-12.21,70.45-8.57,59.21-110s28.16-108.11-81.69-92.85c-3,.41-5.68.75-8.18,1.24-4,.24-8.09.57-12.22,1-54.77,6.07-21.93,21.15-19.4,44,1.1,10-3.81,19.84-5,27.22a7.89,7.89,0,0,0-.25,3.76,7.7,7.7,0,0,0,1.07,3.61c2.81,6.93,9.76,15.45,10.87,25.46s-3.8,19.85-5,27.22a10.87,10.87,0,0,0,.82,7.38c2.82,6.92,9.76,15.44,10.87,25.45,2.53,22.82-26.21,44.72,28.57,38.65,3.81-.42,7.56-.94,11.25-1.52C684.72,931.23,687.76,931,691.08,930.67Z"/><path class="cls-1" d="M976.15,716.51c3.15,4.07-1-1.3-1.84-2.41q-3.93-5.13-7.82-10.26-12.72-16.79-25.19-33.76c-18.77-25.56-37.79-51.32-53.88-78.69-5.85-9.94-8.38-16.06-12.6-26.34q-8.34-20.31-16.45-40.72c-12.61-31.55-25.11-63.15-37-95-9.58-25.61-15.66-51.56-22.15-78.14-2.8-11.51-20.57-6.63-17.75,4.9,5.76,23.6,10.74,47.19,19.13,70,11.49,31.29,23.78,62.29,36.1,93.25,9.77,24.56,18.24,50.76,30.75,74.1,14.68,27.36,33.75,52.66,52,77.7q21.45,29.48,43.72,58.35c3.06,4,9.79,3.16,13,0,3.93-3.84,3-9.11,0-13Z"/><path class="cls-1" d="M803.25,391.2l-27.18-21.64c-3.89-3.09-9.23-3.79-13,0-3.21,3.21-3.91,9.91,0,13l27.18,21.64c3.89,3.09,9.22,3.79,13,0,3.21-3.21,3.91-9.91,0-13Z"/><path class="cls-6" d="M1008.89,662.55c0,63.56,74.55,95.14,166.5,95.14s166.5-31.58,166.5-95.14-21.49-135-166.5-135C1038.05,527.51,1008.89,599,1008.89,662.55Z"/><path class="cls-1" d="M1000,648.19s11.27,4.39,14.08-4.39,19.71-52.67,19.71-83.39-5.63-70.23-8.45-70.23-11.26,13.16-14.07,17.55-8.76,14.69-14.08,17.56c-6.31,3.4-25.28,23.18-28.15,30.73-3,7.88-14.08,21.94-8.45,39.5s28.15,48.28,31,48.28S1000,648.19,1000,648.19Z"/><path class="cls-1" d="M1351.88,651.26s-11.26,4.39-14.07-4.39-19.71-52.67-19.71-83.39,5.63-70.23,8.45-70.23,11.26,13.16,14.07,17.55,8.76,14.69,14.08,17.56c6.31,3.4,25.28,23.18,28.15,30.73,3,7.88,14.07,21.94,8.44,39.5s-28.15,48.28-31,48.28S1351.88,651.26,1351.88,651.26Z"/><path d="M1204.17,690.75l-1-1.17c.1-.09,10.57-9.07,10.57-16.8s-6.22-12.27-6.28-12.32l.89-1.24c.29.2,6.93,5.08,6.93,13.56S1204.63,690.37,1204.17,690.75Z"/><path d="M1055.43,650.25l-1.3-.81c.13-.21,13.51-21.24,48.22-27.27,35.26-6.14,55.69,12.28,55.89,12.47l-1,1.12c-.19-.18-20.12-18.07-54.59-12.08C1068.62,629.59,1055.56,650,1055.43,650.25Z"/><path d="M1229.43,647.76l-1.27-.85c.16-.24,16.32-23.62,51.57-24.94,18.76-.68,32.19,3.53,40.16,7.2,8.67,4,12.84,8.13,13,8.31l-1.09,1.08c-.16-.16-16.81-16.4-52-15.06C1245.35,624.79,1229.59,647.53,1229.43,647.76Z"/><path d="M1101.71,704.55c-2.52,14,46.64,49.11,87.47,49.57s71-24.75,81.33-41.07c10.74-17,7.67-32.57-30.69-29.74-10.71.79-38.3,10.4-49.1,9.91-12.21-.55-43.33-10.57-57.68-12.25C1104.78,677.64,1103.25,696.06,1101.71,704.55Z"/><path class="cls-8" d="M1188.37,700.41s1.94,17.81-5.53,16.06-7.72-19.17-7.72-19.17Z"/><path class="cls-8" d="M1171.55,695.87s1.79,17.83-5.67,16-7.56-19.23-7.56-19.23Z"/><path class="cls-8" d="M1154.19,690.77s3,17.67-4.57,16.36-8.84-18.68-8.84-18.68Z"/><path class="cls-8" d="M1138.84,687.7s3,17.67-4.57,16.36-8.84-18.68-8.84-18.68Z"/><path class="cls-8" d="M1193.18,700.41s-1.94,17.81,5.53,16.06,7.72-19.17,7.72-19.17Z"/><path class="cls-8" d="M1210,695.87s-1.79,17.83,5.67,16,7.55-19.23,7.55-19.23Z"/><path class="cls-8" d="M1227.36,692.3s-3,17.67,4.57,16.37,8.84-18.68,8.84-18.68Z"/><path class="cls-8" d="M1244.24,689.24s-3,17.66,4.57,16.36,8.84-18.68,8.84-18.68Z"/><polygon class="cls-8" points="1149.43 723.44 1147.64 741.9 1134.33 734.21 1149.43 723.44"/><polygon class="cls-8" points="1227.54 725.91 1241.54 738.09 1227.54 744.46 1227.54 725.91"/></svg>