<svg id="Layer_1" data-name="Layer 1" xmlns="http://www.w3.org/2000/svg" viewBox="0 0 1920 1080"><defs><style>.cls-1{fill:#85aa52;}.cls-2{fill:#daec70;}.cls-3{fill:#fbb03b;}.cls-4{fill:#1b1464;}.cls-5{fill:#f15a24;}.cls-6{fill:#f7931e;}.cls-7{fill:#006837;}.cls-8{fill:#fff;}</style></defs><path d="M146.39,263.19a1.6,1.6,0,0,1-.72-.6,1.53,1.53,0,0,1,.12-1.94,1.39,1.39,0,0,1,1.07-.45,1.76,1.76,0,0,1,.68.14,17.13,17.13,0,0,0,7.09,1.48q6.3,0,6.3-4.14a2.31,2.31,0,0,0-.81-1.8,5.71,5.71,0,0,0-2-1.13c-.79-.28-1.92-.61-3.38-1A43.58,43.58,0,0,1,150,252.3a8.12,8.12,0,0,1-3.1-2.11,5.26,5.26,0,0,1-1.3-3.74,6.75,6.75,0,0,1,1.08-3.73,7.44,7.44,0,0,1,3.19-2.66,11.8,11.8,0,0,1,5.06-1,20.29,20.29,0,0,1,7.16,1.19,1.41,1.41,0,0,1,1,1.44,1.54,1.54,0,0,1-.4,1,1.3,1.3,0,0,1-1,.47,1.59,1.59,0,0,1-.58-.15,17.77,17.77,0,0,0-5.79-1,8.84,8.84,0,0,0-4.63,1.08,3.37,3.37,0,0,0-1.78,3,2.79,2.79,0,0,0,.84,2.1,5.91,5.91,0,0,0,2.13,1.26,34.3,34.3,0,0,0,3.47,1,35.93,35.93,0,0,1,4.59,1.36,7.54,7.54,0,0,1,3,2.13,5.73,5.73,0,0,1,1.24,3.89,6,6,0,0,1-1.15,3.61,7.58,7.58,0,0,1-3.24,2.51,12.08,12.08,0,0,1-4.82.9A21.38,21.38,0,0,1,146.39,263.19Z"/><path d="M171.8,263.73a8.12,8.12,0,0,1-3.22-3.37,11.56,11.56,0,0,1,0-10A8.18,8.18,0,0,1,171.8,247a9.72,9.72,0,0,1,4.86-1.19,9.61,9.61,0,0,1,4.83,1.19,8.29,8.29,0,0,1,3.24,3.37,11.38,11.38,0,0,1,0,10,8.22,8.22,0,0,1-3.24,3.37,9.61,9.61,0,0,1-4.83,1.19A9.72,9.72,0,0,1,171.8,263.73Zm7.69-2.49a5.43,5.43,0,0,0,2.23-2.16,8.32,8.32,0,0,0,0-7.45,5.38,5.38,0,0,0-2.23-2.14,6.36,6.36,0,0,0-2.83-.67,6.46,6.46,0,0,0-2.86.67,5.22,5.22,0,0,0-2.21,2.14,8.41,8.41,0,0,0,0,7.45,5.27,5.27,0,0,0,2.21,2.16,6.22,6.22,0,0,0,2.86.69A6.13,6.13,0,0,0,179.49,261.24Z"/><path d="M201.16,262.41a9.59,9.59,0,0,1-2.46-7,11.8,11.8,0,0,1,.93-4.72,8,8,0,0,1,2.88-3.49,8.27,8.27,0,0,1,4.79-1.34,8.39,8.39,0,0,1,4.61,1.25,8.06,8.06,0,0,1,3,3.31,10.22,10.22,0,0,1,1,4.52,1.6,1.6,0,0,1-.45,1.15,1.62,1.62,0,0,1-1.21.47H202a5.87,5.87,0,0,0,1.87,3.92,6.44,6.44,0,0,0,4.43,1.41,10.14,10.14,0,0,0,4.86-1.12,1.34,1.34,0,0,1,.64-.14,1.44,1.44,0,0,1,1,.39,1.32,1.32,0,0,1,.44,1,1.56,1.56,0,0,1-.94,1.33,12.85,12.85,0,0,1-2.77,1.19,13.2,13.2,0,0,1-3.53.4A9.18,9.18,0,0,1,201.16,262.41Zm11.47-8.55a5.85,5.85,0,0,0-.92-3,5,5,0,0,0-2-1.74,5.47,5.47,0,0,0-4.82,0,4.84,4.84,0,0,0-2,1.74,5.84,5.84,0,0,0-.9,3Z"/><path d="M225.34,264.36a2.19,2.19,0,0,1-.8-1l-6.26-15a2,2,0,0,1-.18-.76,1.66,1.66,0,0,1,.47-1.17,1.53,1.53,0,0,1,1.15-.48,1.71,1.71,0,0,1,1.48.93l5.5,14,5.51-14a1.68,1.68,0,0,1,1.48-.93,1.55,1.55,0,0,1,1.15.48,1.66,1.66,0,0,1,.47,1.17,2,2,0,0,1-.18.76l-6.27,15a2.16,2.16,0,0,1-.79,1,2,2,0,0,1-1.19.38h-.36A2,2,0,0,1,225.34,264.36Z"/><path d="M240.19,262.41a9.55,9.55,0,0,1-2.47-7,11.63,11.63,0,0,1,.94-4.72,8,8,0,0,1,2.88-3.49,8.23,8.23,0,0,1,4.78-1.34,8.37,8.37,0,0,1,4.61,1.25,8,8,0,0,1,2.95,3.31,10.22,10.22,0,0,1,1,4.52,1.57,1.57,0,0,1-1.65,1.62H241a5.91,5.91,0,0,0,1.87,3.92,6.45,6.45,0,0,0,4.43,1.41,10.07,10.07,0,0,0,4.86-1.12,1.38,1.38,0,0,1,.65-.14,1.47,1.47,0,0,1,1,.39,1.34,1.34,0,0,1,.43,1,1.55,1.55,0,0,1-.94,1.33,12.65,12.65,0,0,1-2.77,1.19,13.14,13.14,0,0,1-3.53.4A9.18,9.18,0,0,1,240.19,262.41Zm11.46-8.55a5.75,5.75,0,0,0-.92-3,4.93,4.93,0,0,0-2-1.74,5.49,5.49,0,0,0-4.83,0,4.84,4.84,0,0,0-2,1.74,5.84,5.84,0,0,0-.9,3Z"/><path d="M259.68,264.27a1.58,1.58,0,0,1-.47-1.15V247.67a1.66,1.66,0,0,1,.47-1.17,1.55,1.55,0,0,1,1.15-.48,1.66,1.66,0,0,1,1.66,1.65v1.55q2.52-3.39,5.65-3.39h.18a1.5,1.5,0,0,1,1.13.47,1.62,1.62,0,0,1,.45,1.16,1.45,1.45,0,0,1-.46,1.11,1.69,1.69,0,0,1-1.19.43h-.18a6.19,6.19,0,0,0-3.17.85,7.21,7.21,0,0,0-2.41,2.32v11a1.52,1.52,0,0,1-.49,1.15,1.62,1.62,0,0,1-1.17.47A1.58,1.58,0,0,1,259.68,264.27Z"/><path d="M276,272.55a1.56,1.56,0,0,1-.45-1.12,1.63,1.63,0,0,1,.1-.57l2.34-6-6.76-16.48a1.79,1.79,0,0,1-.15-.69,1.66,1.66,0,0,1,.47-1.17,1.55,1.55,0,0,1,1.15-.48,1.58,1.58,0,0,1,.92.28,1.69,1.69,0,0,1,.59.72l5.55,13.76,5.65-13.68a1.57,1.57,0,0,1,1.51-1.08,1.53,1.53,0,0,1,1.15.48,1.66,1.66,0,0,1,.47,1.17,1.54,1.54,0,0,1-.11.61l-9.82,23.62A1.63,1.63,0,0,1,277.1,273,1.44,1.44,0,0,1,276,272.55Z"/><path d="M304.7,272.55a1.56,1.56,0,0,1-.45-1.12,1.44,1.44,0,0,1,.11-.57l2.34-6-6.77-16.48a1.79,1.79,0,0,1-.15-.69,1.66,1.66,0,0,1,.47-1.17,1.55,1.55,0,0,1,1.15-.48,1.58,1.58,0,0,1,.92.28,1.79,1.79,0,0,1,.6.72l5.54,13.76,5.65-13.68a1.61,1.61,0,0,1,2.67-.6,1.65,1.65,0,0,1,.46,1.17,1.54,1.54,0,0,1-.11.61l-9.82,23.62a1.63,1.63,0,0,1-1.52,1.12A1.46,1.46,0,0,1,304.7,272.55Z"/><path d="M322.12,262.41a9.59,9.59,0,0,1-2.46-7,11.8,11.8,0,0,1,.93-4.72,8.11,8.11,0,0,1,2.88-3.49,8.27,8.27,0,0,1,4.79-1.34,8.37,8.37,0,0,1,4.61,1.25,8.06,8.06,0,0,1,2.95,3.31,10.22,10.22,0,0,1,1,4.52,1.58,1.58,0,0,1-1.66,1.62H323a5.87,5.87,0,0,0,1.87,3.92,6.44,6.44,0,0,0,4.43,1.41,10.14,10.14,0,0,0,4.86-1.12,1.38,1.38,0,0,1,.65-.14,1.47,1.47,0,0,1,1,.39,1.34,1.34,0,0,1,.43,1,1.56,1.56,0,0,1-.94,1.33,12.85,12.85,0,0,1-2.77,1.19,13.14,13.14,0,0,1-3.53.4A9.2,9.2,0,0,1,322.12,262.41Zm11.47-8.55a5.75,5.75,0,0,0-.92-3,5,5,0,0,0-2-1.74,5.47,5.47,0,0,0-4.82,0,4.84,4.84,0,0,0-2,1.74,5.84,5.84,0,0,0-.9,3Z"/><path d="M342.89,264.27a5.11,5.11,0,0,1-2.93-4.75,5,5,0,0,1,2.11-4.25q2.1-1.59,6.17-1.59h4.36v-.28a4.36,4.36,0,0,0-1.17-3.42,5.37,5.37,0,0,0-3.66-1,11.85,11.85,0,0,0-2.43.22,19.51,19.51,0,0,0-2.36.65,2.46,2.46,0,0,1-.46.07,1.26,1.26,0,0,1-.94-.4,1.34,1.34,0,0,1-.4-1,1.4,1.4,0,0,1,.94-1.37,15.93,15.93,0,0,1,6.23-1.3,8.15,8.15,0,0,1,4.19,1,6.43,6.43,0,0,1,2.52,2.61,7.61,7.61,0,0,1,.81,3.48v10.19a1.55,1.55,0,0,1-.48,1.15,1.66,1.66,0,0,1-1.17.47,1.6,1.6,0,0,1-1.16-.47,1.57,1.57,0,0,1-.46-1.15v-.94a9.08,9.08,0,0,1-6.77,2.74A6.73,6.73,0,0,1,342.89,264.27Zm7.22-3a8.44,8.44,0,0,0,2.49-1.93v-3h-3.93q-5.43,0-5.43,2.85a2.64,2.64,0,0,0,.88,2.08,4.33,4.33,0,0,0,2.93.8A6.45,6.45,0,0,0,350.11,261.26Z"/><path d="M361.85,264.27a1.58,1.58,0,0,1-.47-1.15V247.67a1.66,1.66,0,0,1,.47-1.17A1.53,1.53,0,0,1,363,246a1.59,1.59,0,0,1,1.17.48,1.63,1.63,0,0,1,.49,1.17v1.55q2.52-3.39,5.65-3.39h.18a1.52,1.52,0,0,1,1.13.47,1.62,1.62,0,0,1,.45,1.16,1.42,1.42,0,0,1-.47,1.11,1.67,1.67,0,0,1-1.18.43h-.18a6.17,6.17,0,0,0-3.17.85,7.21,7.21,0,0,0-2.41,2.32v11a1.56,1.56,0,0,1-.49,1.15,1.62,1.62,0,0,1-1.17.47A1.56,1.56,0,0,1,361.85,264.27Z"/><path d="M386.27,264.27a5.11,5.11,0,0,1-2.93-4.75,5,5,0,0,1,2.11-4.25q2.1-1.59,6.17-1.59H396v-.28A4.36,4.36,0,0,0,394.8,250a5.32,5.32,0,0,0-3.65-1,11.85,11.85,0,0,0-2.43.22,19.51,19.51,0,0,0-2.36.65,2.43,2.43,0,0,1-.47.07,1.26,1.26,0,0,1-.93-.4,1.34,1.34,0,0,1-.4-1,1.4,1.4,0,0,1,.94-1.37,15.93,15.93,0,0,1,6.23-1.3,8.15,8.15,0,0,1,4.19,1,6.43,6.43,0,0,1,2.52,2.61,7.61,7.61,0,0,1,.81,3.48v10.19a1.55,1.55,0,0,1-.48,1.15,1.66,1.66,0,0,1-1.17.47,1.61,1.61,0,0,1-1.63-1.62v-.94a9,9,0,0,1-6.76,2.74A6.73,6.73,0,0,1,386.27,264.27Zm7.22-3a8.39,8.39,0,0,0,2.48-1.93v-3h-3.92q-5.43,0-5.43,2.85a2.64,2.64,0,0,0,.88,2.08,4.31,4.31,0,0,0,2.93.8A6.45,6.45,0,0,0,393.49,261.26Z"/><path d="M405.41,260.16V249h-2.56a.65.65,0,0,1-.48-.19.66.66,0,0,1-.2-.49.76.76,0,0,1,.32-.61l4.9-4.79a.87.87,0,0,1,.61-.32.63.63,0,0,1,.48.21.7.7,0,0,1,.2.51v2.88h4.07a1.34,1.34,0,0,1,1.4,1.4,1.41,1.41,0,0,1-.39,1,1.33,1.33,0,0,1-1,.41h-4.07v10.88c0,.93.22,1.53.67,1.78A3.35,3.35,0,0,0,411,262a5.14,5.14,0,0,0,1.44-.22l.31-.07a1.62,1.62,0,0,1,.41,0,1.27,1.27,0,0,1,.9.38,1.21,1.21,0,0,1,.4.92,1.37,1.37,0,0,1-.83,1.26,7.09,7.09,0,0,1-3,.65Q405.41,264.92,405.41,260.16Z"/><path d="M428.55,264.27a1.57,1.57,0,0,1-.46-1.15V240.9a1.65,1.65,0,0,1,.46-1.17,1.57,1.57,0,0,1,1.16-.48,1.64,1.64,0,0,1,1.65,1.65v9.58H445V240.9a1.65,1.65,0,0,1,.46-1.17,1.57,1.57,0,0,1,1.16-.48,1.64,1.64,0,0,1,1.65,1.65v22.22a1.55,1.55,0,0,1-.48,1.15,1.66,1.66,0,0,1-1.17.47,1.6,1.6,0,0,1-1.16-.47,1.57,1.57,0,0,1-.46-1.15v-9.58H431.36v9.58a1.55,1.55,0,0,1-.48,1.15,1.66,1.66,0,0,1-1.17.47A1.6,1.6,0,0,1,428.55,264.27Z"/><path d="M456.36,264.27a5.11,5.11,0,0,1-2.93-4.75,5,5,0,0,1,2.11-4.25q2.1-1.59,6.17-1.59h4.36v-.28A4.36,4.36,0,0,0,464.9,250a5.37,5.37,0,0,0-3.66-1,11.85,11.85,0,0,0-2.43.22,19.51,19.51,0,0,0-2.36.65,2.46,2.46,0,0,1-.46.07,1.25,1.25,0,0,1-.94-.4,1.34,1.34,0,0,1-.4-1,1.39,1.39,0,0,1,.94-1.37,15.93,15.93,0,0,1,6.23-1.3,8.15,8.15,0,0,1,4.19,1,6.43,6.43,0,0,1,2.52,2.61,7.61,7.61,0,0,1,.81,3.48v10.19a1.55,1.55,0,0,1-.48,1.15,1.66,1.66,0,0,1-1.17.47,1.6,1.6,0,0,1-1.16-.47,1.57,1.57,0,0,1-.46-1.15v-.94a9.08,9.08,0,0,1-6.77,2.74A6.73,6.73,0,0,1,456.36,264.27Zm7.22-3a8.44,8.44,0,0,0,2.49-1.93v-3h-3.93q-5.43,0-5.43,2.85a2.64,2.64,0,0,0,.88,2.08,4.33,4.33,0,0,0,2.93.8A6.45,6.45,0,0,0,463.58,261.26Z"/><path d="M475.32,264.27a1.58,1.58,0,0,1-.47-1.15V239.75a1.66,1.66,0,0,1,.47-1.17,1.53,1.53,0,0,1,1.15-.48,1.58,1.58,0,0,1,1.65,1.65v23.37a1.55,1.55,0,0,1-.48,1.15,1.64,1.64,0,0,1-1.17.47A1.56,1.56,0,0,1,475.32,264.27Z"/><path d="M484.28,264.27a1.58,1.58,0,0,1-.47-1.15V239.75a1.66,1.66,0,0,1,.47-1.17,1.55,1.55,0,0,1,1.15-.48,1.61,1.61,0,0,1,1.19.46,1.64,1.64,0,0,1,.47,1.19v23.37a1.52,1.52,0,0,1-.49,1.15,1.62,1.62,0,0,1-1.17.47A1.58,1.58,0,0,1,484.28,264.27Z"/><path d="M496,263.73a8.08,8.08,0,0,1-3.23-3.37,11.56,11.56,0,0,1,0-10A8.14,8.14,0,0,1,496,247a10.44,10.44,0,0,1,9.68,0,8.29,8.29,0,0,1,3.24,3.37,11.38,11.38,0,0,1,0,10,8.22,8.22,0,0,1-3.24,3.37,10.44,10.44,0,0,1-9.68,0Zm7.68-2.49a5.45,5.45,0,0,0,2.24-2.16,8.32,8.32,0,0,0,0-7.45,5.4,5.4,0,0,0-2.24-2.14,6.35,6.35,0,0,0-2.82-.67,6.43,6.43,0,0,0-2.86.67,5.3,5.3,0,0,0-2.22,2.14,8.5,8.5,0,0,0,0,7.45,5.35,5.35,0,0,0,2.22,2.16,6.19,6.19,0,0,0,2.86.69A6.12,6.12,0,0,0,503.7,261.24Z"/><path d="M518.59,264.3a2.13,2.13,0,0,1-.79-1.08l-5.11-15a1.75,1.75,0,0,1-.11-.61A1.57,1.57,0,0,1,514.2,246a1.68,1.68,0,0,1,.92.27,1.3,1.3,0,0,1,.55.7l4.21,13.86,4.18-13.54a1.85,1.85,0,0,1,3.53,0l4.18,13.54L536,247a1.27,1.27,0,0,1,.56-.7,1.62,1.62,0,0,1,.91-.27,1.57,1.57,0,0,1,1.62,1.62,1.75,1.75,0,0,1-.11.61l-5.11,15a2.07,2.07,0,0,1-.79,1.08,2.13,2.13,0,0,1-2.59,0,2.36,2.36,0,0,1-.83-1.11l-3.82-11.92L522,263.19a2.42,2.42,0,0,1-.83,1.11,2.13,2.13,0,0,1-2.59,0Z"/><path d="M544,262.41a9.59,9.59,0,0,1-2.46-7,11.8,11.8,0,0,1,.93-4.72,8.11,8.11,0,0,1,2.88-3.49,8.27,8.27,0,0,1,4.79-1.34,8.37,8.37,0,0,1,4.61,1.25,8.06,8.06,0,0,1,3,3.31,10.22,10.22,0,0,1,1,4.52,1.58,1.58,0,0,1-1.66,1.62h-12.2a5.87,5.87,0,0,0,1.87,3.92,6.44,6.44,0,0,0,4.43,1.41,10.14,10.14,0,0,0,4.86-1.12,1.38,1.38,0,0,1,.65-.14,1.47,1.47,0,0,1,1,.39,1.34,1.34,0,0,1,.43,1,1.56,1.56,0,0,1-.94,1.33,12.85,12.85,0,0,1-2.77,1.19,13.14,13.14,0,0,1-3.53.4A9.2,9.2,0,0,1,544,262.41Zm11.47-8.55a5.75,5.75,0,0,0-.92-3,4.89,4.89,0,0,0-2-1.74,5.47,5.47,0,0,0-4.82,0,4.84,4.84,0,0,0-2,1.74,5.84,5.84,0,0,0-.9,3Z"/><path d="M564.4,262.41a9.55,9.55,0,0,1-2.47-7,11.63,11.63,0,0,1,.94-4.72,8,8,0,0,1,2.88-3.49,8.24,8.24,0,0,1,4.79-1.34,8.33,8.33,0,0,1,4.6,1.25,8.09,8.09,0,0,1,3,3.31,10.22,10.22,0,0,1,1,4.52,1.57,1.57,0,0,1-.46,1.15,1.6,1.6,0,0,1-1.2.47H565.24a5.92,5.92,0,0,0,1.88,3.92,6.41,6.41,0,0,0,4.42,1.41,10.9,10.9,0,0,0,2.65-.29,10.54,10.54,0,0,0,2.21-.83,1.41,1.41,0,0,1,.65-.14,1.45,1.45,0,0,1,1,.39,1.31,1.31,0,0,1,.43,1,1.55,1.55,0,0,1-.93,1.33,12.85,12.85,0,0,1-2.77,1.19,13.2,13.2,0,0,1-3.53.4A9.18,9.18,0,0,1,564.4,262.41Zm11.47-8.55a5.85,5.85,0,0,0-.92-3,5,5,0,0,0-2-1.74,5.49,5.49,0,0,0-4.83,0,4.84,4.84,0,0,0-2,1.74,6,6,0,0,0-.9,3Z"/><path d="M583.89,264.27a1.58,1.58,0,0,1-.47-1.15V247.67a1.66,1.66,0,0,1,.47-1.17A1.56,1.56,0,0,1,585,246a1.66,1.66,0,0,1,1.66,1.65v1.48a12,12,0,0,1,2.95-2.41,7.49,7.49,0,0,1,3.75-.91,6.23,6.23,0,0,1,3.43.94,6.12,6.12,0,0,1,2.24,2.56,8.24,8.24,0,0,1,.77,3.56v10.23a1.55,1.55,0,0,1-.48,1.15,1.66,1.66,0,0,1-1.18.47,1.6,1.6,0,0,1-1.62-1.62v-9.87q0-4.4-3.95-4.39a5.69,5.69,0,0,0-3.23.94,11.45,11.45,0,0,0-2.68,2.52v10.8a1.52,1.52,0,0,1-.49,1.15,1.62,1.62,0,0,1-1.17.47A1.59,1.59,0,0,1,583.89,264.27Z"/><path d="M605.08,269.67a1.1,1.1,0,0,1-.31-.76,1,1,0,0,1,.54-.9,4.1,4.1,0,0,0,1.37-1.26,3.85,3.85,0,0,0,.47-2.09H607a1.93,1.93,0,0,1-1.42-.59,2,2,0,0,1-.59-1.42v-.22a2,2,0,0,1,.59-1.42,1.93,1.93,0,0,1,1.42-.59h.37a1.93,1.93,0,0,1,1.42.59,2,2,0,0,1,.59,1.42v2.13a5.78,5.78,0,0,1-3,5.25,1.14,1.14,0,0,1-.61.18A1,1,0,0,1,605.08,269.67Z"/><path d="M147.47,303.36V292.2h-2.56a.65.65,0,0,1-.48-.19.66.66,0,0,1-.2-.49.76.76,0,0,1,.32-.61l4.9-4.79a.87.87,0,0,1,.61-.32.67.67,0,0,1,.49.21.74.74,0,0,1,.19.51v2.88h4.07a1.37,1.37,0,0,1,1,.39,1.4,1.4,0,0,1,.4,1,1.42,1.42,0,0,1-.4,1,1.31,1.31,0,0,1-1,.41h-4.07v10.88c0,.93.23,1.53.67,1.78a3.35,3.35,0,0,0,1.67.38,5.26,5.26,0,0,0,1.45-.22l.3-.07a1.62,1.62,0,0,1,.41,0,1.27,1.27,0,0,1,.9.38,1.21,1.21,0,0,1,.4.92,1.37,1.37,0,0,1-.83,1.26,7.05,7.05,0,0,1-3,.65Q147.47,308.12,147.47,303.36Z"/><path d="M160.61,307.47a1.58,1.58,0,0,1-.47-1.15V283a1.66,1.66,0,0,1,.47-1.17,1.53,1.53,0,0,1,1.15-.48,1.59,1.59,0,0,1,1.17.48,1.63,1.63,0,0,1,.49,1.17v9.4a11.8,11.8,0,0,1,3-2.41,7.42,7.42,0,0,1,3.74-.9,6.26,6.26,0,0,1,3.44.93,6.1,6.1,0,0,1,2.23,2.56,8.11,8.11,0,0,1,.78,3.56v10.23a1.56,1.56,0,0,1-.49,1.15,1.62,1.62,0,0,1-1.17.47,1.56,1.56,0,0,1-1.15-.47,1.58,1.58,0,0,1-.47-1.15v-9.87q0-4.4-4-4.39a5.68,5.68,0,0,0-3.22.94,11.45,11.45,0,0,0-2.68,2.52v10.8a1.56,1.56,0,0,1-.49,1.15,1.62,1.62,0,0,1-1.17.47A1.56,1.56,0,0,1,160.61,307.47Z"/><path d="M182.32,285.11a1.76,1.76,0,0,1-.54-1.29v-.15a1.84,1.84,0,0,1,1.83-1.83h.22a1.84,1.84,0,0,1,1.83,1.83v.15a1.84,1.84,0,0,1-1.83,1.83h-.22A1.76,1.76,0,0,1,182.32,285.11Zm.21,22.36a1.58,1.58,0,0,1-.47-1.15V290.87a1.66,1.66,0,0,1,.47-1.17,1.55,1.55,0,0,1,1.15-.48,1.61,1.61,0,0,1,1.19.46,1.64,1.64,0,0,1,.47,1.19v15.45a1.52,1.52,0,0,1-.49,1.15,1.62,1.62,0,0,1-1.17.47A1.58,1.58,0,0,1,182.53,307.47Z"/><path d="M191.5,307.47a1.54,1.54,0,0,1-.47-1.15V290.87a1.62,1.62,0,0,1,.47-1.17,1.53,1.53,0,0,1,1.15-.48,1.64,1.64,0,0,1,1.65,1.65v1.48a12,12,0,0,1,3-2.41A7.42,7.42,0,0,1,201,289a6.26,6.26,0,0,1,3.44.93,6.17,6.17,0,0,1,2.23,2.56,8.1,8.1,0,0,1,.77,3.56v10.23a1.55,1.55,0,0,1-.48,1.15,1.66,1.66,0,0,1-1.17.47,1.56,1.56,0,0,1-1.15-.47,1.54,1.54,0,0,1-.47-1.15v-9.87q0-4.4-4-4.39A5.66,5.66,0,0,0,197,293a11.48,11.48,0,0,0-2.69,2.52v10.8a1.55,1.55,0,0,1-.48,1.15,1.66,1.66,0,0,1-1.17.47A1.56,1.56,0,0,1,191.5,307.47Z"/><path d="M213.42,307.47a1.58,1.58,0,0,1-.47-1.15V283a1.66,1.66,0,0,1,.47-1.17,1.55,1.55,0,0,1,1.15-.48,1.66,1.66,0,0,1,1.66,1.65v14.73l8.57-7.92a1.62,1.62,0,0,1,1.08-.47,1.42,1.42,0,0,1,1.2.47,1.72,1.72,0,0,1,.38,1.11,1.76,1.76,0,0,1-.61,1.23l-5.19,4.64,6.52,8.64a1.58,1.58,0,0,1,.36,1,1.48,1.48,0,0,1-.47,1.15,1.68,1.68,0,0,1-1.19.44,1.6,1.6,0,0,1-.72-.18,1.76,1.76,0,0,1-.61-.51l-6.19-8.42-3.13,2.84v4.65a1.52,1.52,0,0,1-.49,1.15,1.62,1.62,0,0,1-1.17.47A1.58,1.58,0,0,1,213.42,307.47Z"/><path d="M245.17,306.93a8.12,8.12,0,0,1-3.22-3.37,11.47,11.47,0,0,1,0-10,8.18,8.18,0,0,1,3.22-3.37,10.54,10.54,0,0,1,9.69,0,8.29,8.29,0,0,1,3.24,3.37,11.38,11.38,0,0,1,0,10,8.22,8.22,0,0,1-3.24,3.37,10.46,10.46,0,0,1-9.69,0Zm7.69-2.49a5.43,5.43,0,0,0,2.23-2.16,8.32,8.32,0,0,0,0-7.45,5.38,5.38,0,0,0-2.23-2.14,6.38,6.38,0,0,0-5.69,0,5.22,5.22,0,0,0-2.21,2.14,8.41,8.41,0,0,0,0,7.45,5.27,5.27,0,0,0,2.21,2.16,6.21,6.21,0,0,0,5.69,0Z"/><path d="M265.47,307.47a1.57,1.57,0,0,1-.46-1.15V292.2h-2.13a1.34,1.34,0,0,1-1-.41,1.38,1.38,0,0,1-.41-1,1.36,1.36,0,0,1,.41-1,1.41,1.41,0,0,1,1-.39H265v-2.09a7.32,7.32,0,0,1,.77-3.55,4.83,4.83,0,0,1,2-2,5.65,5.65,0,0,1,2.61-.63,6.89,6.89,0,0,1,3.13.72,1.48,1.48,0,0,1,.59.52,1.26,1.26,0,0,1,.24.74,1.36,1.36,0,0,1-.4.95,1.23,1.23,0,0,1-.93.41,3.48,3.48,0,0,1-.83-.1c-.58-.08-.9-.11-1-.11a3.19,3.19,0,0,0-2.22.68,3.35,3.35,0,0,0-.74,2.49v2h4.5a1.37,1.37,0,0,1,1,.39,1.4,1.4,0,0,1,.4,1,1.42,1.42,0,0,1-.4,1,1.31,1.31,0,0,1-1,.41h-4.5v14.12a1.55,1.55,0,0,1-.48,1.15,1.66,1.66,0,0,1-1.17.47A1.6,1.6,0,0,1,265.47,307.47Z"/><path d="M287.83,303.36V292.2h-2.55a.66.66,0,0,1-.49-.19.7.7,0,0,1-.2-.49.76.76,0,0,1,.32-.61l4.9-4.79a.89.89,0,0,1,.61-.32.64.64,0,0,1,.49.21.74.74,0,0,1,.2.51v2.88h4.06a1.37,1.37,0,0,1,1,.39,1.36,1.36,0,0,1,.4,1,1.37,1.37,0,0,1-.4,1,1.31,1.31,0,0,1-1,.41h-4.06v10.88c0,.93.22,1.53.66,1.78a3.42,3.42,0,0,0,1.68.38,5.14,5.14,0,0,0,1.44-.22l.3-.07a1.66,1.66,0,0,1,.42,0,1.3,1.3,0,0,1,.9.38,1.23,1.23,0,0,1,.39.92,1.35,1.35,0,0,1-.83,1.26,7,7,0,0,1-3,.65Q287.83,308.12,287.83,303.36Z"/><path d="M301,307.47a1.58,1.58,0,0,1-.47-1.15V283a1.66,1.66,0,0,1,.47-1.17,1.55,1.55,0,0,1,1.15-.48,1.66,1.66,0,0,1,1.66,1.65v9.4a11.8,11.8,0,0,1,3-2.41,7.48,7.48,0,0,1,3.74-.9,6.26,6.26,0,0,1,3.44.93,6.1,6.1,0,0,1,2.23,2.56,8.11,8.11,0,0,1,.78,3.56v10.23a1.52,1.52,0,0,1-.49,1.15,1.62,1.62,0,0,1-1.17.47,1.6,1.6,0,0,1-1.62-1.62v-9.87q0-4.4-4-4.39a5.68,5.68,0,0,0-3.22.94,11.45,11.45,0,0,0-2.68,2.52v10.8a1.52,1.52,0,0,1-.49,1.15,1.62,1.62,0,0,1-1.17.47A1.58,1.58,0,0,1,301,307.47Z"/><path d="M322.68,285.11a1.76,1.76,0,0,1-.54-1.29v-.15a1.84,1.84,0,0,1,1.83-1.83h.22a1.84,1.84,0,0,1,1.84,1.83v.15a1.84,1.84,0,0,1-1.84,1.83H324A1.76,1.76,0,0,1,322.68,285.11Zm.21,22.36a1.57,1.57,0,0,1-.46-1.15V290.87a1.65,1.65,0,0,1,.46-1.17,1.57,1.57,0,0,1,1.16-.48,1.59,1.59,0,0,1,1.65,1.65v15.45a1.55,1.55,0,0,1-.48,1.15,1.66,1.66,0,0,1-1.17.47A1.6,1.6,0,0,1,322.89,307.47Z"/><path d="M330.78,306.5a1.38,1.38,0,0,1-.61-1.19,1.45,1.45,0,0,1,.39-1,1.31,1.31,0,0,1,1-.43,1.69,1.69,0,0,1,.65.14,13.92,13.92,0,0,0,2.3.79,10.34,10.34,0,0,0,2.6.29q4,0,4-2.55a1.35,1.35,0,0,0-.92-1.26,18.31,18.31,0,0,0-3-1,25.94,25.94,0,0,1-3.51-1,6.17,6.17,0,0,1-2.38-1.64,4.16,4.16,0,0,1-1-2.9,5.19,5.19,0,0,1,1.82-4.1,7.64,7.64,0,0,1,5.2-1.58,15,15,0,0,1,5.22.9,1.28,1.28,0,0,1,.77.54,1.43,1.43,0,0,1,.27.82,1.39,1.39,0,0,1-.41,1,1.37,1.37,0,0,1-1,.43,1.83,1.83,0,0,1-.46-.07,13.92,13.92,0,0,0-4.11-.65,5.6,5.6,0,0,0-3,.71,2.08,2.08,0,0,0-1.1,1.81,1.68,1.68,0,0,0,1,1.59,14.69,14.69,0,0,0,3.13,1,29.66,29.66,0,0,1,3.46,1.06,5.7,5.7,0,0,1,2.28,1.64,4.42,4.42,0,0,1,1,3,4.75,4.75,0,0,1-1.82,3.81,7.79,7.79,0,0,1-5.13,1.52A13.39,13.39,0,0,1,330.78,306.5Z"/><path d="M359.87,307.47a1.54,1.54,0,0,1-.47-1.15V292.2h-2.13a1.34,1.34,0,0,1-1-.41,1.38,1.38,0,0,1-.41-1,1.36,1.36,0,0,1,.41-1,1.41,1.41,0,0,1,1-.39h2.13v-2.09a7.32,7.32,0,0,1,.77-3.55,4.83,4.83,0,0,1,2-2,5.68,5.68,0,0,1,2.61-.63,6.89,6.89,0,0,1,3.13.72,1.48,1.48,0,0,1,.59.52,1.26,1.26,0,0,1,.24.74,1.36,1.36,0,0,1-.4.95,1.22,1.22,0,0,1-.93.41,3.48,3.48,0,0,1-.83-.1c-.58-.08-.9-.11-1-.11a3.19,3.19,0,0,0-2.22.68,3.35,3.35,0,0,0-.74,2.49v2h4.5a1.37,1.37,0,0,1,1,.39,1.36,1.36,0,0,1,.4,1,1.37,1.37,0,0,1-.4,1,1.31,1.31,0,0,1-1,.41h-4.5v14.12a1.55,1.55,0,0,1-.48,1.15,1.66,1.66,0,0,1-1.17.47A1.56,1.56,0,0,1,359.87,307.47Z"/><path d="M374.61,307.18a6,6,0,0,1-2.23-2.56,8.08,8.08,0,0,1-.78-3.56V290.84a1.54,1.54,0,0,1,.49-1.16,1.61,1.61,0,0,1,1.17-.46,1.57,1.57,0,0,1,1.15.46,1.6,1.6,0,0,1,.47,1.16v9.86q0,4.4,4,4.39a5.75,5.75,0,0,0,3.22-.93,11.88,11.88,0,0,0,2.68-2.52v-10.8a1.54,1.54,0,0,1,.49-1.16,1.61,1.61,0,0,1,1.17-.46,1.57,1.57,0,0,1,1.15.46,1.6,1.6,0,0,1,.47,1.16v15.44a1.62,1.62,0,0,1-.47,1.17,1.56,1.56,0,0,1-1.15.49,1.6,1.6,0,0,1-1.17-.49,1.56,1.56,0,0,1-.49-1.17V304.8a11.84,11.84,0,0,1-2.95,2.42,7.45,7.45,0,0,1-3.74.9A6.26,6.26,0,0,1,374.61,307.18Z"/><path d="M394.17,307.47a1.57,1.57,0,0,1-.46-1.15V290.87a1.65,1.65,0,0,1,.46-1.17,1.57,1.57,0,0,1,1.16-.48,1.64,1.64,0,0,1,1.65,1.65v1.48a12,12,0,0,1,2.95-2.41,7.49,7.49,0,0,1,3.75-.9,6.28,6.28,0,0,1,3.44.93,6.17,6.17,0,0,1,2.23,2.56,8.24,8.24,0,0,1,.77,3.56v10.23a1.55,1.55,0,0,1-.48,1.15,1.66,1.66,0,0,1-1.18.47,1.59,1.59,0,0,1-1.61-1.62v-9.87q0-4.4-4-4.39a5.72,5.72,0,0,0-3.23.94,11.45,11.45,0,0,0-2.68,2.52v10.8a1.55,1.55,0,0,1-.48,1.15,1.66,1.66,0,0,1-1.17.47A1.6,1.6,0,0,1,394.17,307.47Z"/><path d="M416.1,307.47a1.58,1.58,0,0,1-.47-1.15V290.87a1.66,1.66,0,0,1,.47-1.17,1.53,1.53,0,0,1,1.15-.48,1.59,1.59,0,0,1,1.17.48,1.63,1.63,0,0,1,.49,1.17v1.48a11.8,11.8,0,0,1,2.95-2.41,7.42,7.42,0,0,1,3.74-.9A6.26,6.26,0,0,1,429,290a6.1,6.1,0,0,1,2.23,2.56,8.1,8.1,0,0,1,.77,3.56v10.23a1.55,1.55,0,0,1-.48,1.15,1.62,1.62,0,0,1-1.17.47,1.56,1.56,0,0,1-1.15-.47,1.58,1.58,0,0,1-.47-1.15v-9.87q0-4.4-4-4.39a5.68,5.68,0,0,0-3.22.94,11.45,11.45,0,0,0-2.68,2.52v10.8a1.56,1.56,0,0,1-.49,1.15,1.62,1.62,0,0,1-1.17.47A1.56,1.56,0,0,1,416.1,307.47Z"/><path d="M440.24,315.75a1.56,1.56,0,0,1-.45-1.12,1.63,1.63,0,0,1,.1-.57l2.34-6-6.76-16.48a1.79,1.79,0,0,1-.15-.69,1.66,1.66,0,0,1,.47-1.17,1.55,1.55,0,0,1,1.15-.48,1.58,1.58,0,0,1,.92.28,1.79,1.79,0,0,1,.6.72L444,304l5.65-13.68a1.57,1.57,0,0,1,1.51-1.08,1.53,1.53,0,0,1,1.15.48,1.66,1.66,0,0,1,.47,1.17,1.54,1.54,0,0,1-.11.61l-9.82,23.62a1.63,1.63,0,0,1-1.52,1.12A1.46,1.46,0,0,1,440.24,315.75Z"/><path d="M470.28,315.86a13.61,13.61,0,0,1-3.49-1.34,1.34,1.34,0,0,1-.65-1.26,1.49,1.49,0,0,1,.41-1,1.35,1.35,0,0,1,1-.45,1.86,1.86,0,0,1,.64.14,13.16,13.16,0,0,0,5.94,1.37c3.68,0,5.51-2,5.51-5.87V305a8.12,8.12,0,0,1-6.15,2.74,8.71,8.71,0,0,1-4.13-1.07,8.5,8.5,0,0,1-3.29-3.16,10.77,10.77,0,0,1,0-10.26,8.53,8.53,0,0,1,3.29-3.17,8.69,8.69,0,0,1,4.13-1.06,8.11,8.11,0,0,1,6.15,2.73v-.9a1.66,1.66,0,0,1,.47-1.17,1.55,1.55,0,0,1,1.15-.48,1.66,1.66,0,0,1,1.66,1.65V307q0,4.55-2.2,7a8,8,0,0,1-6.26,2.45A17,17,0,0,1,470.28,315.86Zm6.91-11.81a10.73,10.73,0,0,0,2.48-1.95v-7.41a10.73,10.73,0,0,0-2.48-1.95,6.68,6.68,0,0,0-7.4.92,7.41,7.41,0,0,0,0,9.47,6.68,6.68,0,0,0,7.4.92Z"/><path d="M491.88,306.93a8.08,8.08,0,0,1-3.23-3.37,11.56,11.56,0,0,1,0-10,8.14,8.14,0,0,1,3.23-3.37,10.52,10.52,0,0,1,9.68,0,8.29,8.29,0,0,1,3.24,3.37,11.38,11.38,0,0,1,0,10,8.22,8.22,0,0,1-3.24,3.37,10.44,10.44,0,0,1-9.68,0Zm7.68-2.49a5.37,5.37,0,0,0,2.23-2.16,8.24,8.24,0,0,0,0-7.45,5.32,5.32,0,0,0-2.23-2.14,6.35,6.35,0,0,0-2.82-.67,6.43,6.43,0,0,0-2.86.67,5.24,5.24,0,0,0-2.22,2.14,8.5,8.5,0,0,0,0,7.45,5.29,5.29,0,0,0,2.22,2.16,6.19,6.19,0,0,0,2.86.69A6.12,6.12,0,0,0,499.56,304.44Z"/><path d="M513.8,305.38v.94a1.52,1.52,0,0,1-.49,1.15,1.62,1.62,0,0,1-1.17.47,1.6,1.6,0,0,1-1.62-1.62V283a1.66,1.66,0,0,1,.47-1.17,1.55,1.55,0,0,1,1.15-.48,1.61,1.61,0,0,1,1.19.46,1.64,1.64,0,0,1,.47,1.19v8.82A8.27,8.27,0,0,1,520,289a8.44,8.44,0,0,1,4.23,1.13,8.67,8.67,0,0,1,3.24,3.31,11.09,11.09,0,0,1,0,10.19,8.6,8.6,0,0,1-3.24,3.31,8.45,8.45,0,0,1-4.23,1.14A8.28,8.28,0,0,1,513.8,305.38Zm10-2a7.88,7.88,0,0,0,0-9.57,5.65,5.65,0,0,0-4.28-1.69,6.78,6.78,0,0,0-3.11.73,8.86,8.86,0,0,0-2.58,2v7.56a8.82,8.82,0,0,0,2.58,2,6.79,6.79,0,0,0,3.11.74A5.66,5.66,0,0,0,523.77,303.36Z"/><path d="M533.71,307.47a1.58,1.58,0,0,1-.47-1.15V283a1.66,1.66,0,0,1,.47-1.17,1.53,1.53,0,0,1,1.15-.48,1.61,1.61,0,0,1,1.19.46,1.64,1.64,0,0,1,.47,1.19v23.37a1.56,1.56,0,0,1-.49,1.15,1.62,1.62,0,0,1-1.17.47A1.56,1.56,0,0,1,533.71,307.47Z"/><path d="M542.46,285.11a1.76,1.76,0,0,1-.54-1.29v-.15a1.84,1.84,0,0,1,1.83-1.83H544a1.84,1.84,0,0,1,1.83,1.83v.15a1.84,1.84,0,0,1-1.83,1.83h-.22A1.76,1.76,0,0,1,542.46,285.11Zm.21,22.36a1.58,1.58,0,0,1-.47-1.15V290.87a1.66,1.66,0,0,1,.47-1.17,1.55,1.55,0,0,1,1.15-.48,1.61,1.61,0,0,1,1.19.46,1.64,1.64,0,0,1,.47,1.19v15.45a1.52,1.52,0,0,1-.49,1.15,1.62,1.62,0,0,1-1.17.47A1.58,1.58,0,0,1,542.67,307.47Z"/><path d="M551.63,307.47a1.57,1.57,0,0,1-.46-1.15V290.87a1.65,1.65,0,0,1,.46-1.17,1.57,1.57,0,0,1,1.16-.48,1.64,1.64,0,0,1,1.65,1.65v1.48a12,12,0,0,1,3-2.41,7.42,7.42,0,0,1,3.74-.9,6.26,6.26,0,0,1,3.44.93,6.17,6.17,0,0,1,2.23,2.56,8.1,8.1,0,0,1,.77,3.56v10.23a1.55,1.55,0,0,1-.48,1.15,1.66,1.66,0,0,1-1.17.47,1.56,1.56,0,0,1-1.15-.47,1.54,1.54,0,0,1-.47-1.15v-9.87q0-4.4-4-4.39a5.72,5.72,0,0,0-3.23.94,11.64,11.64,0,0,0-2.68,2.52v10.8a1.55,1.55,0,0,1-.48,1.15,1.66,1.66,0,0,1-1.17.47A1.6,1.6,0,0,1,551.63,307.47Z"/><path d="M581.84,306.5a1.38,1.38,0,0,1-.61-1.19,1.45,1.45,0,0,1,.39-1,1.31,1.31,0,0,1,1-.43,1.69,1.69,0,0,1,.65.14,13.92,13.92,0,0,0,2.3.79,10.34,10.34,0,0,0,2.6.29q4,0,4-2.55a1.34,1.34,0,0,0-.92-1.26,18.31,18.31,0,0,0-3-1,25.94,25.94,0,0,1-3.51-1,6.17,6.17,0,0,1-2.38-1.64,4.16,4.16,0,0,1-1-2.9,5.19,5.19,0,0,1,1.82-4.1,7.64,7.64,0,0,1,5.2-1.58,15,15,0,0,1,5.22.9,1.25,1.25,0,0,1,.77.54,1.43,1.43,0,0,1,.27.82,1.39,1.39,0,0,1-.41,1,1.37,1.37,0,0,1-1,.43,1.83,1.83,0,0,1-.46-.07,13.87,13.87,0,0,0-4.11-.65,5.6,5.6,0,0,0-3,.71,2.08,2.08,0,0,0-1.1,1.81,1.68,1.68,0,0,0,1,1.59,14.69,14.69,0,0,0,3.13,1,29.66,29.66,0,0,1,3.46,1.06,5.7,5.7,0,0,1,2.28,1.64,4.42,4.42,0,0,1,1,3,4.75,4.75,0,0,1-1.82,3.81,7.79,7.79,0,0,1-5.13,1.52A13.39,13.39,0,0,1,581.84,306.5Z"/><path d="M603.44,307a8.73,8.73,0,0,1-3.51-3.31,10.49,10.49,0,0,1,0-10.15,8.8,8.8,0,0,1,3.51-3.31,10.92,10.92,0,0,1,8.08-.67,13.07,13.07,0,0,1,2.58,1.24,1.47,1.47,0,0,1,.71,1.26,1.41,1.41,0,0,1-.41,1,1.26,1.26,0,0,1-.95.45,1.71,1.71,0,0,1-.8-.21,13.1,13.1,0,0,0-2-.88,7,7,0,0,0-2.1-.27,6.54,6.54,0,0,0-4.87,1.78,7.14,7.14,0,0,0,0,9.39,6.55,6.55,0,0,0,4.87,1.79,7,7,0,0,0,2.1-.27,13.28,13.28,0,0,0,2-.89,1.71,1.71,0,0,1,.8-.21,1.26,1.26,0,0,1,.95.45,1.41,1.41,0,0,1,.41,1,1.44,1.44,0,0,1-.71,1.26,12.54,12.54,0,0,1-2.58,1.24,10.78,10.78,0,0,1-8.08-.67Z"/><path d="M620.12,305.61a9.59,9.59,0,0,1-2.46-7,11.8,11.8,0,0,1,.93-4.72,8.11,8.11,0,0,1,2.88-3.49,9.24,9.24,0,0,1,9.4-.09,8,8,0,0,1,3,3.31,10.22,10.22,0,0,1,1,4.52,1.58,1.58,0,0,1-1.66,1.62H621a5.91,5.91,0,0,0,1.87,3.92,6.44,6.44,0,0,0,4.43,1.41,10.07,10.07,0,0,0,4.86-1.12,1.38,1.38,0,0,1,.65-.14,1.47,1.47,0,0,1,1,.39,1.34,1.34,0,0,1,.43,1,1.55,1.55,0,0,1-.94,1.33,12.65,12.65,0,0,1-2.77,1.19,13.14,13.14,0,0,1-3.53.4A9.2,9.2,0,0,1,620.12,305.61Zm11.47-8.55a5.75,5.75,0,0,0-.92-2.95,4.89,4.89,0,0,0-2-1.74,5.47,5.47,0,0,0-4.82,0,4.84,4.84,0,0,0-2,1.74,5.84,5.84,0,0,0-.9,2.95Z"/><path d="M639.62,307.47a1.58,1.58,0,0,1-.47-1.15V290.87a1.66,1.66,0,0,1,.47-1.17,1.53,1.53,0,0,1,1.15-.48,1.59,1.59,0,0,1,1.17.48,1.63,1.63,0,0,1,.49,1.17v1.48a11.8,11.8,0,0,1,3-2.41,7.42,7.42,0,0,1,3.74-.9,6.26,6.26,0,0,1,3.44.93,6.1,6.1,0,0,1,2.23,2.56,8.11,8.11,0,0,1,.78,3.56v10.23a1.56,1.56,0,0,1-.49,1.15,1.62,1.62,0,0,1-1.17.47,1.56,1.56,0,0,1-1.15-.47,1.58,1.58,0,0,1-.47-1.15v-9.87q0-4.4-4-4.39a5.68,5.68,0,0,0-3.22.94,11.45,11.45,0,0,0-2.68,2.52v10.8a1.56,1.56,0,0,1-.49,1.15,1.62,1.62,0,0,1-1.17.47A1.56,1.56,0,0,1,639.62,307.47Z"/><path d="M662.42,305.61a9.59,9.59,0,0,1-2.46-7,11.8,11.8,0,0,1,.93-4.72,8.11,8.11,0,0,1,2.88-3.49,9.24,9.24,0,0,1,9.4-.09,8,8,0,0,1,3,3.31,10.22,10.22,0,0,1,1,4.52,1.58,1.58,0,0,1-1.66,1.62h-12.2a5.91,5.91,0,0,0,1.87,3.92,6.44,6.44,0,0,0,4.43,1.41,10.07,10.07,0,0,0,4.86-1.12,1.38,1.38,0,0,1,.65-.14,1.47,1.47,0,0,1,1,.39,1.34,1.34,0,0,1,.43,1,1.55,1.55,0,0,1-.94,1.33,12.65,12.65,0,0,1-2.77,1.19,13.14,13.14,0,0,1-3.53.4A9.2,9.2,0,0,1,662.42,305.61Zm11.47-8.55a5.75,5.75,0,0,0-.92-2.95,4.89,4.89,0,0,0-2-1.74,5.47,5.47,0,0,0-4.82,0,4.84,4.84,0,0,0-2,1.74,5.84,5.84,0,0,0-.9,2.95Z"/><path d="M681.68,307.27a2,2,0,0,1-.59-1.42v-.22a2,2,0,0,1,.59-1.42,1.93,1.93,0,0,1,1.43-.59h.36a1.93,1.93,0,0,1,1.42.59,2,2,0,0,1,.59,1.42v.22a2,2,0,0,1-.59,1.42,1.93,1.93,0,0,1-1.42.59h-.36A1.93,1.93,0,0,1,681.68,307.27Z"/><rect class="cls-1" x="1250.99" y="482.9" width="18.15" height="51.42" rx="9.07"/><path class="cls-2" d="M1457.54,439.6c-14.66,60.91-93.37,74-181.48,52.77s-152.26-68.65-137.6-129.56,51.73-124.45,190.68-91C1460.75,303.48,1472.2,378.7,1457.54,439.6Z"/><path class="cls-2" d="M1168.06,806.31c-83.57,104.82-83.44,37.3-123.93,5s-106.28-17.11-22.71-121.94c15.33-19.22,94.49-117.86,110.79-136.42,72.57-82.68,87.94-69.4,140.09-27.82,50.59,40.33,65.26,57.34-.87,149.09C1258.5,692.17,1181.73,789.17,1168.06,806.31Z"/><circle class="cls-3" cx="1389" cy="403.66" r="50.67"/><ellipse cx="1414.78" cy="414.57" rx="31.67" ry="6.48" transform="translate(680.67 1693.07) rotate(-76.47)"/><circle class="cls-3" cx="1223.9" cy="359.26" r="50.67"/><ellipse cx="1208.12" cy="343.02" rx="31.67" ry="6.48" transform="translate(591.94 1437.33) rotate(-76.47)"/><path class="cls-1" d="M1469.37,427.9s-11.8,1.61-12.47-7.45-6.74-55,.35-84.46,21.59-66,24.29-65.35,7.75,15.22,9.43,20.07,5,16.09,9.44,20.07c5.26,4.72,18.88,28,19.89,35.93,1.06,8.25,8.43,24.28-1,39.81s-38.11,39.77-40.8,39.12S1469.37,427.9,1469.37,427.9Z"/><path class="cls-1" d="M1131.48,349.69s9.78,6.8,14.5-1,31-45.93,38.12-75.37,10.8-68.59,8.1-69.24-13.82,10-17.53,13.58-11.78,12.05-17.54,13.57c-6.83,1.81-29.57,16.38-34.06,22.95-4.7,6.87-18.55,17.79-17.21,35.91s15.85,52.76,18.54,53.41S1131.48,349.69,1131.48,349.69Z"/><path d="M1285.41,433l-.68-1.35c.12-.06,12.23-6.25,14-13.66s-3.14-13.19-3.19-13.25l1.15-1c.22.26,5.46,6.46,3.51,14.59S1285.93,432.73,1285.41,433Z"/><path class="cls-1" d="M990.62,795a125.52,125.52,0,0,0-39.68,9.55c-9.51,3.94-18.65,8.58-28.33,12.07-1.67.6-1.9-.26-1,.23.43.22-1.23-1.22-1.51-1.66a47.14,47.14,0,0,1-5-10.32,102.56,102.56,0,0,1-4-15.42c-2-11.48-19.52-6.62-17.5,4.82,2.44,13.77,8.06,36,23.58,40.18,10,2.68,21.34-4.49,30-8.5,13.88-6.44,28.06-11.73,43.46-12.8,11.59-.81,11.68-19,0-18.15Z"/><path class="cls-1" d="M1055.82,846.26c3.32,15.69,1.92,31.25-.53,47-1.55,9.91-5.27,23.19,1.9,31.74,9.61,11.46,29.84,10.9,43.44,9.48,11.5-1.2,11.62-19.36,0-18.15a102.45,102.45,0,0,1-14.55.43,44.3,44.3,0,0,1-10.74-1.44,11.16,11.16,0,0,1-3.58-1.39c-.57-.41-.89-1.4-.61-.56-.88-2.6.5-7.73.9-10.55.83-5.84,1.85-11.65,2.61-17.51a129.33,129.33,0,0,0-1.34-43.83c-2.41-11.42-19.91-6.59-17.5,4.83Z"/><path class="cls-4" d="M1124.07,873.61c68.12-85.44,43-55.16-35.63-117.86s-55.9-94.86-121.65-7.54c-1.76,2.35-3.43,4.48-4.83,6.57q-3.94,4.46-7.78,9.25c-33.86,42.47-.49,30,17.2,44.13,7.76,6.19,11.21,16.46,15.51,22.45a7.54,7.54,0,0,0,2.45,2.78,7.71,7.71,0,0,0,3.26,1.78c6.8,2.84,17.58,3.92,25.34,10.11s11.22,16.46,15.51,22.45a10.55,10.55,0,0,0,5.72,4.56c6.79,2.85,17.57,3.93,25.34,10.12,17.68,14.1,13,49.4,46.85,6.93q3.54-4.44,6.76-8.91C1120,878.44,1122,876.18,1124.07,873.61Z"/><path class="cls-2" d="M1458.09,398.55c-3.71,15.43-29.64-2.4-65.78-11.1s-68.8-5-65.09-20.39,16.33-30.74,73.32-17C1454.52,363,1461.8,383.13,1458.09,398.55Z"/><path class="cls-2" d="M1308.25,336c-2.41,10-29.26-4-65.4-12.67s-67.88-8.8-65.47-18.83,13.57-19.27,70.56-5.56C1301.92,311.92,1310.67,326,1308.25,336Z"/><path class="cls-2" d="M1159,381c2.35-9.75,29.24,4.05,65.38,12.75s67.84,9,65.49,18.75-13.43,18.67-70.42,5C1165.44,404.49,1156.62,390.78,1159,381Z"/><path class="cls-2" d="M1311.64,431.78c2.35-9.75,29.24,4.05,65.38,12.74s67.84,9,65.49,18.75-13.42,18.67-70.42,5C1318.12,455.24,1309.3,441.52,1311.64,431.78Z"/><path class="cls-1" d="M1201.93,493.26c-28.18-4.35-56.28-9.58-84.13-15.72C1099,473.4,1080.12,469,1062,462.43c-3-1.11-5.92-2.35-8.86-3.64-.78-.34-1.72-1.21-2.53-1.33,1.13.16,1.32,1.28,1.45,1.4-.75-.67,1,2.22.23.48-.59-1.38.22,2.15.14,1.06,0-.16.08-.77,0-.84s.7-3.25-.15.85a7.63,7.63,0,0,1,.2-1c.28-.85.51-1.71.8-2.56.41-1.19-.73,1.41.31-.64.47-.91.94-1.82,1.45-2.72,1.23-2.17,2.62-4.26,4.06-6.3a142.74,142.74,0,0,1,10-12.36c9.89-11.27,20.61-21.82,31.5-32.12,24.63-23.3,50.48-45.34,76.63-66.91,15.46-12.74,31-25.37,46.87-37.65,9.21-7.15-3.71-19.91-12.84-12.83-41.45,32.17-82.13,65.78-120.43,101.67-11.69,11-23.21,22.17-33.84,34.18-7.4,8.36-15.21,17.31-19.83,27.59-3.87,8.65-4.35,18.92,4.67,24.53,14.33,8.92,33.57,12.64,49.7,16.67,34.76,8.7,70.18,15.29,105.59,20.75,11.43,1.76,16.35-15.72,4.82-17.5Z"/><path class="cls-1" d="M1349.53,913.43l11.59-24.72c2.08-4.44,1.24-9.79-3.25-12.42-3.94-2.3-10.33-1.2-12.42,3.26l-11.6,24.72c-2.08,4.44-1.24,9.79,3.26,12.42,3.94,2.3,10.32,1.2,12.42-3.26Z"/><path class="cls-5" d="M1395.88,842.1a56.06,56.06,0,0,0,2.66,8.2c24.13,59.36,137,63.9,232.78,56.74s120.51-42.39,104.36-82.13c-1.1-2.69,7.39-5.88,5.89-8.45.92,3.85-1.44-5.23-5-13.87-3.15-7.74-7.85-16.29-6-13.2a55.75,55.75,0,0,0-2.57-8,65.81,65.81,0,0,0-8.68-15.06c-3.19-.89-6.37-1.76-9.53-2.57h0l-1.78-.44-.18,0c-1.16-.29-2.33-.56-3.49-.83l-.16,0h0c-15.19-3.41-29.9-4.5-43.48,2.19a117.08,117.08,0,0,0-15.58-10.77c-6.39,2.91-12.48,6-18.42,9.15h0l-.06,0c-7.75,4.12-15.25,8.37-22.86,12.56l-2.08,1.14-2.07,1.14-2.83,1.52-1.33.72c-1.2.64-2.41,1.27-3.62,1.9l-1,.51-3.25,1.66-.91.46c-1.28.65-2.58,1.29-3.89,1.92l-1,.49q-1.86.9-3.75,1.77c-16.66,1.28-33.55,2.72-50,4.4-2.8-.7-5.18-1-6.7-.46-7.09,2.22-11.72,5.2-15,8.64l0,0c-.3.32-.6.64-.88,1l0,.05c-.28.32-.56.65-.82,1l0,0c-.27.34-.52.69-.77,1v0c-3.12,4.41-4.78,9.34-6.84,14.25v0c-.16.38-.32.75-.49,1.13,0,.09-.08.18-.11.27l-.42.92-.18.38c-.12.27-.26.55-.39.82s-.14.3-.22.45l-.39.76-.25.48-.41.73c-.09.16-.18.33-.28.49l-.44.73c-.1.16-.19.32-.29.47s-.35.53-.53.79-.17.27-.27.4c-.27.39-.55.78-.85,1.17-13-4-27.2-11.83-39.55-10.08-1.07.19-2.12.39-3.16.6l-.64.14-.89.2-1.53.34-1.16.28-.23.06-.67.17-.93.24-1.18.32-1.27.36-.66.19-1,.29-1.76.55-.17,0-.51.17-.38.12-1.9.65-.84.29-.28.1-.64.24c-.58.21-1.17.42-1.74.64l-.55.22-.22.08-1,.39-.86.34-1,.42-.57.24-.7.28-.31.13-1.12.48-1.28.55-.66.28-.68.31L1420,829l-.8.35-.76.35-.21.1-.75.34-1.19.55-2.25,1-.17.09c-6,2.82-12,5.72-18.47,8.39"/><path class="cls-3" d="M1746.67,776.59c.43-9.41.52-18.41.32-27.08-22.13,13.1-41.78,31.43-65.53,35.2-12.87,1.16-22.71-19.28-33.36-30.93-15.95,26.14-20.54,61.93-47.08,73-6.82,3.28-19.94-24-26.76-20.69-41.53,18.33-74.53,54.37-112.79,79.51-3.93-8.18-7.17-18.37-9.74-27.2-18.55,13.23-33.58,4.53-48.07-8.9,15.78,74.42,58,127.67,128.09,131.42C1628.32,986.13,1738.17,964.16,1746.67,776.59Z"/><path class="cls-6" d="M1740.61,779.27a153.25,153.25,0,0,0-6.2-21.75c-17.28,11.62-33.78,24.15-53,27.19-12.87,1.16-22.71-19.28-33.36-30.93-15.95,26.14-20.54,61.93-47.08,73-6.82,3.28-19.94-24-26.76-20.69-33.22,14.66-61,40.65-90.34,63.33,15.34,6.45,32.78,10.45,52.37,11.5C1619.49,885.41,1712.33,874.5,1740.61,779.27Z"/><path class="cls-6" d="M1744.46,825.31q.42-9.22.15-17.83c-14.88,126.67-118.93,140.6-211.14,135.66-64.65-3.46-106-38.94-125-89.41-4.3-3.57-8.52-7.71-12.75-12,7.6,75.08,52.28,133.43,136.13,137.93C1628.38,984.84,1737.93,969.32,1744.46,825.31Z"/><path class="cls-7" d="M1743,793.54s7.44,1.74,11.09.85,17.75-1.26,27.25-7.79,19.86-16.87,18.93-17.85-.09-5.48-2.38-5.52-15.39,5.62-36.59,5.77c-3.53,0-17.75-3-21.32,2.72s.65,17,1.58,18S1743,793.54,1743,793.54Z"/><path class="cls-3" d="M1681.46,784.71c-12.87,1.16-22.71-19.28-33.36-30.93-14.86,24.35-19.86,57.05-41.93,70.4,60.63-1.38,115.37-11.67,134.43-44.77A59.3,59.3,0,0,0,1727.77,762C1712.83,772.21,1698.16,782.06,1681.46,784.71Z"/><path d="M1662.54,961.24c8.93.54-77.86,21-70.85,16.36s17.38-18.15,12.9-15.61-42.52.92-29.13-2,27.47-7.62,33-8.2S1653.61,960.71,1662.54,961.24Z"/><path d="M1656.62,904.57c-12.91,0-33.51,11.49-41.36,14s-40.11-.68-26.64-3.13,20.84-11.85,14.66-9.85-44.09-5-30.11-6.88,19.64-6.65,29.73-10.07S1669.52,904.58,1656.62,904.57Z"/><path d="M1544.52,871.9c-6.64,4.67-40,23-40,23s22.71,20.63,27.12,21.64-36.34,1.93-36.34,1.93,31.72,28.1,38.61,27.94-36.4,3.23-36.4,3.23,37.76,26.37,25.68,21.58-28.08-2.52-28.08-2.52,5,3.66,10,7.84l-.54-.45a138.73,138.73,0,0,1-37.31-13.78h0c10.82-1.83,13.68-7.07,8.6-7.57s-25-11.34-12.54-10.81,28.56-12.49,22.28-11.75-33.39-18.41-21.08-14.76,21.83-15.21,16.71-14.59-25.14-7.95-15.67-8.3S1551.15,867.24,1544.52,871.9Z"/><path class="cls-5" d="M842.51,581a57.89,57.89,0,0,1,2.6,8.22C860,651.59,770.73,720.85,688.6,770.67S565.89,806.18,556,764.45c-.67-2.82-9.44-.49-9.72-3.45,1.5,3.67-1.86-5.09-4-14.17-1.93-8.12-3.08-17.82-2.74-14.26a53.84,53.84,0,0,1-2.56-8,65.49,65.49,0,0,1-1.68-17.3q3.1-3.87,6.26-7.63h0l1.19-1.39.12-.14c.79-.92,1.57-1.81,2.37-2.7l.11-.13h0c10.39-11.6,21.73-21,36.67-23.49A118.75,118.75,0,0,1,588.36,654c6.9-1.34,13.64-2.37,20.31-3.25h.08c8.69-1.15,17.27-2.05,25.9-3.06l2.35-.28,2.35-.28,3.19-.4,1.49-.19,4.05-.55,1.09-.16,3.61-.53,1-.15,4.28-.7,1.11-.19c1.35-.24,2.71-.48,4.08-.74,14.3-8.64,28.89-17.28,43.26-25.48,1.87-2.18,3.63-3.81,5.18-4.26,7.06-2.31,12.57-2.57,17.25-1.69h0c.43.08.86.17,1.28.27l.07,0c.41.1.83.21,1.23.33l.06,0c.41.12.82.25,1.22.39h0c5.1,1.77,9.32,4.82,13.85,7.62h0l1,.64.25.15.87.51.37.21.79.44.44.23c.25.14.51.26.76.39l.49.25.76.36.5.23.79.34.51.22.88.33.46.17c.45.16.91.32,1.37.46,8.29-10.81,15.27-25.43,26.34-31.18,1-.47,2-.92,2.92-1.34l.6-.27.83-.35c.49-.21,1-.42,1.45-.61l1.11-.45.22-.08.64-.26.9-.34,1.15-.42c.41-.16.83-.31,1.24-.45l.65-.23.95-.32,1.75-.58.17,0,.51-.17.38-.11,1.93-.58.85-.25.29-.08.66-.18,1.79-.49.57-.14.22-.06,1.05-.27.9-.22,1.07-.25.61-.15.73-.17.33-.07,1.19-.27,1.35-.29.71-.15.73-.15,1.47-.3.85-.17.82-.16.23,0,.81-.16,1.29-.25,2.43-.45.19,0c6.55-1.21,13.13-2.33,19.91-3.9"/><path class="cls-3" d="M823.63,590.8c-3-8.72-6.63-18.76-10.92-26.76-37.13,26.78-68.53,64.21-109.24,84.32-6.66,3.58-21-23.08-27.62-19.51-26,12.25-29.07,48.2-43.87,75-11.14-11.18-21.86-31.17-34.67-29.45-23.56,4.79-42.4,24-63.94,38C543.66,867.15,646,902.07,737.53,903c96.7,1,144.93-95,145.16-214.11.06-32.59-3.49-63.52-10.65-91.29C857,584.81,841.58,576.77,823.63,590.8Z"/><path class="cls-6" d="M703.47,648.36c-6.66,3.58-21-23.08-27.62-19.51-26,12.25-29.07,48.2-43.87,75-11.14-11.18-21.86-31.17-34.67-29.45-19,3.87-35,17.1-51.72,29.46,31.59,75.57,115.61,94.6,192.14,95.37C815.26,800,861.6,752.85,877,687c-11.33-49.42-40-88.76-86-105.83C762.64,605.11,736,632.28,703.47,648.36Z"/><path class="cls-6" d="M737.6,866.44C645.26,865.5,542,838,533.11,716.65q-.66,9-.7,18.75C532.15,871.93,640.83,902,737.53,903s144.89-72.64,145.06-164q0-9.27-.63-18.29C875.74,803.41,827.77,867.35,737.6,866.44Z"/><path class="cls-6" d="M882.08,658.4q.67-9,.7-18.27A239.34,239.34,0,0,0,880.34,605c-4.4-4.09-8.8-8-13.25-11.44C875.42,613.09,880.42,635,882.08,658.4Z"/><path class="cls-3" d="M703.47,648.36A199,199,0,0,0,733,630.12c-16.83-.11-34,.12-50.74.94C689.35,637,698.52,651,703.47,648.36Z"/><path class="cls-3" d="M632,703.86c-11.14-11.18-21.86-31.17-34.67-29.45-16.57,3.37-30.8,13.85-45.28,24.67,35.55,31.25,114,39.74,185.82,40.47,77.53.79,123.81-21.67,139.17-53.29-15.23-31.92-61.43-55.32-139-56.1l-5.09,0a199,199,0,0,1-29.5,18.24c-5,2.66-14.12-11.39-21.24-17.3q-5.75.27-11.41.65C649.35,646,645.76,678.89,632,703.86Z"/><path d="M876.58,597.6s-24.86-19.12-21.38-13.91c.56.84,1.32,2.12,2.2,3.66,7,3.62,13.85,9.34,20.65,15.57C877.18,599.66,876.58,597.6,876.58,597.6Z"/><path d="M869.66,610.56s-29.17,2.62-20.1,4,24.16,19.54,24.16,19.54S851,653.18,858.56,652s10.58,6.54,10.58,6.54S849.44,680.19,857,679s18.15-1.1,18.14,4-1.57,27-4.6,33.41-6.95-8.93-7.27,3.86-10.95,32-3.38,26.92,16.19-6.27,13.38.14-19.48,26.83-13.42,24.32,11.16-7.61,9.35.09-12.42,23-9.39,20.5S873,790,875.47,782.86s10.15-44.22,11.7-66.17.09-48.12.11-58.2-3.37-7.55-3.16-21.06c.15-9.73-3.83-26.11-6.07-34.51-6.8-6.23-13.62-11.95-20.65-15.57C862,595.34,869.66,610.56,869.66,610.56Z"/><path d="M1200,426.74c-5.22,11.84,30.83,53.43,66.89,62.54s68.17-6.78,80.79-19c13.13-12.76,13.73-27.22-20.85-32.88-9.65-1.59-36.13,1.05-45.6-1.69-10.69-3.1-36.12-18.6-48.46-23.15C1208.47,403.57,1203.19,419.54,1200,426.74Z"/><path class="cls-8" d="M1277.64,441.54s-2.07,16.19-8.32,13-2.75-18.62-2.75-18.62Z"/><path class="cls-8" d="M1263.71,433.94s-2.21,16.17-8.43,13-2.59-18.64-2.59-18.64Z"/><path class="cls-8" d="M1249.43,425.72s-1.12,16.29-7.54,13.52-3.85-18.43-3.85-18.43Z"/><path class="cls-8" d="M1236.49,419.73s-1.12,16.29-7.54,13.52-3.84-18.43-3.84-18.43Z"/><path class="cls-8" d="M1281.9,442.57s-5.51,15.36,1.48,15.4,10.92-15.33,10.92-15.33Z"/><path class="cls-8" d="M1297.77,442.13s-5.39,15.41,1.6,15.39,10.79-15.42,10.79-15.42Z"/><path class="cls-8" d="M1313.9,442.68s-6.41,15,.56,15.46,11.81-14.66,11.81-14.66Z"/><path class="cls-8" d="M1329.51,443.56s-6.42,15,.56,15.46,11.8-14.66,11.8-14.66Z"/><polygon class="cls-8" points="1234.06 456.83 1230.64 473.38 1219.33 465.11 1234.06 456.83"/><polygon class="cls-8" points="1304.56 466.72 1316.04 479.12 1302.74 483.52 1304.56 466.72"/><path class="cls-1" d="M1298.65,590.72c1.12,42.33,2.53,84.69,5.33,126.94,1.59,24,4.72,46.34,12.13,69.34,8.77,27.21,20.32,53.62,28,81.17a54.62,54.62,0,0,1,2.14,11.81,18.55,18.55,0,0,0,10.27,15.56c9.24,4.74,21.68,3.26,31.42.89,11.35-2.76,6.54-20.27-4.82-17.5-4,1-14.91,3.79-18.46.44-.74-.7-.53-4.38-.91-6.77a101,101,0,0,0-3.25-13c-8.09-26.73-19-52.55-27.48-79.17-14-43.86-12.86-92.22-14.61-139.33q-.93-25.17-1.63-50.34c-.3-11.65-18.45-11.7-18.15,0Z"/><path class="cls-1" d="M1184.77,324.54c8.43.29,16,.39,24.28-1l29.18-4.87c11.5-1.91,6.62-19.41-4.82-17.5l-28,4.66c-2.18.36-4.36.71-6.54,1.09-3.38.59.47,0-.11-.05-4.54-.67-9.45-.33-14-.49-11.68-.41-11.66,17.74,0,18.15Z"/><path d="M1288.49,152.41a274.55,274.55,0,0,1,36,.88,160.18,160.18,0,0,1,16.46,2.2c3.26.63,8.47,1.17,11.2,3.29,11.93,9.26-18.51,13.51-21.85,13.91-22.31,2.67-45.93,5.07-68.4,3.25a90.68,90.68,0,0,1-27.06-6.46c-3.81-1.59-6.38-2.85-3.9-6.65,1.92-2.94,5.06-5.54,7.63-7.89,7.53-6.89,16.29-13.52,25.94-17.12,8.09-3,17.48-2.73,26-3.06,27.4-1.06,55.1.79,81.65,7.92,18.38,4.94,37.32,7.84,55.59,13.12,3.23.93,13.17,2.93,11.31,7.41-1,2.51-6.14,4.52-8.32,5.61a158,158,0,0,1-19,7.63c-50,17.33-102.3,23.54-155,24.23-2.92,0-2.93,4.57,0,4.53,56.28-.73,113.58-7.24,166.28-28.11,7.46-2.95,32-13.38,15.45-22.18-7.6-4-16.91-5.48-25.23-7.28-11.76-2.54-23.58-4.86-35.2-8-30.5-8.3-61.65-10.78-93.17-9.13-10,.53-18.89,1.14-27.94,5.78A100,100,0,0,0,1231,156c-3.36,3.51-8.38,8.37-4.69,13.36,2.16,2.93,6.41,4.2,9.69,5.36a109.71,109.71,0,0,0,17,4.63c24.88,4.38,52.54.83,77.36-2.13,8.62-1,34.68-3.35,27.63-18.64-3.11-6.76-15.08-7.48-21.3-8.41a257.12,257.12,0,0,0-48.19-2.31c-2.91.11-2.92,4.65,0,4.54Z"/></svg>