<svg id="Layer_1" data-name="Layer 1" xmlns="http://www.w3.org/2000/svg" xmlns:xlink="http://www.w3.org/1999/xlink" viewBox="0 0 1920 1080"><defs><style>.cls-1,.cls-9{fill:none;}.cls-2{clip-path:url(#clip-path);}.cls-3{fill:#662d91;}.cls-4{fill:#85aa52;}.cls-5{fill:#daec70;}.cls-6{fill:#fbb03b;}.cls-7{fill:#1b1464;}.cls-8{fill:#fff;}.cls-9{stroke:#000;stroke-miterlimit:10;}.cls-10{fill:#f7931e;}.cls-11{fill:#006837;}</style><clipPath id="clip-path"><rect class="cls-1" x="1" y="-1241" width="1920" height="1080"/></clipPath></defs><g class="cls-2"><ellipse class="cls-3" cx="961" cy="-44.82" rx="578.5" ry="220.24"/></g><path d="M297.68,251.19l.5-6.75v-2.32c0-.28,0-.61-.07-1l-.22-2.53a8.3,8.3,0,0,1,0-1.33q0-.71,0-1.2v-.84a4,4,0,0,0-.07-.7l-.21-.92.07-.7a.93.93,0,0,0-.14-.56,2.26,2.26,0,0,1-.24-.64,2.61,2.61,0,0,1,0-1,2,2,0,0,0,0-.88,1.06,1.06,0,0,0-.28-.46,1.88,1.88,0,0,1-.32-.31.87.87,0,0,1-.18-.39.86.86,0,0,0-.28-.46,2.33,2.33,0,0,0-.77-.45,3.64,3.64,0,0,1-.95-.57,3.8,3.8,0,0,0,0-1,2,2,0,0,1,.25-1,5.83,5.83,0,0,1,1.79-.28,2.44,2.44,0,0,1,1.48.39,2,2,0,0,0,1.2.39,2.33,2.33,0,0,0,1.44-.64,5.74,5.74,0,0,0,1.75.21l2.61-.07,3.44.29,1.27-.15a6.39,6.39,0,0,1,1.9.29,6.6,6.6,0,0,0,1.89.28l1.69-.07,1-.14,1.19.28,1.27-.14,1.19.07a3.79,3.79,0,0,0,1.2-.21,8.85,8.85,0,0,0,.74-2.61,5.19,5.19,0,0,1,.87-2.39,6.42,6.42,0,0,1,1.09-.14.66.66,0,0,1,.6.36,1.18,1.18,0,0,1,.21.56l-.14.42.21,1.55-.14,1.26.21,2-.14,1.27.21,1.12-.21,1.41.07.49a1.7,1.7,0,0,0-.52.77,5.23,5.23,0,0,1-.39.85l-.88.45a1.64,1.64,0,0,1-.74.25c-.19,0-.4-.3-.63-.91a4.22,4.22,0,0,1-.35-1.48l.14-1.55V229a2,2,0,0,0-1.41-.56l-1.26.35-2.11-.49-1.76.14a.48.48,0,0,1-.35-.14h-1.41l-2.6-.14a4.06,4.06,0,0,0-1.27.17,9.28,9.28,0,0,1-1.05.32,13.27,13.27,0,0,1-1.37.25c-.54.07-1.08.13-1.62.17l-1.62.14c-.53.05-.92.07-1.16.07a1,1,0,0,0-.28.88,1.48,1.48,0,0,1-.07.84c-.09.22-.16.32-.21.32s-.07.17-.07.49l.42,3.45v1.83l.07,1c-.09,0-.14.11-.14.32a4.22,4.22,0,0,0,.49,1.3,3.74,3.74,0,0,0-.07.77l-.21.92.21.84-.07,1.69.14,2.11L302,254a9.31,9.31,0,0,0,.28,2.18,4.6,4.6,0,0,1,.07,2.11,4.29,4.29,0,0,0,2.92.7c1.48,0,2.38,0,2.71.07l.84.15.71-.15,1.61.29,1.69.14a1.15,1.15,0,0,0,1.2-.78,2.88,2.88,0,0,1,.56-1.47,3.67,3.67,0,0,1,.35-1.69l1-.28c.24,0,.46.2.67.6a2.2,2.2,0,0,1,.32.94l-.56,4.29.28,2a9.1,9.1,0,0,0-.78,1.69,3.83,3.83,0,0,0-.84.25,2.29,2.29,0,0,1-.84.17,1.05,1.05,0,0,1-.25-.39,1.8,1.8,0,0,0-.35-.49,1.5,1.5,0,0,1-.35-.84,9.28,9.28,0,0,0-.25-1.09,1.46,1.46,0,0,0-1.12-.25,1.15,1.15,0,0,1-1.06-.31,2.3,2.3,0,0,1-.95.28,1.55,1.55,0,0,1-.81-.28,5.93,5.93,0,0,1-1.82.28l-2.32-.07h-.64a2.26,2.26,0,0,0-1,.21,1.11,1.11,0,0,1-.59.17.33.33,0,0,0-.29.11l.08.28-.43,3.52.14,2-.21,1.19.21.84-.21,3.17c0,1.5.5,2.25,1.48,2.25l1.34-.14,1.68.21a1.27,1.27,0,0,0,.92-.35,2.8,2.8,0,0,0,1.12.21l2.6-.21h.43a1.19,1.19,0,0,1,.56.14,5.75,5.75,0,0,1,2-.28c.79,0,1.44,0,1.93-.07s1-.11,1.41-.18a8.31,8.31,0,0,1,1.3-.1l1.19.07c.52,0,.83-.11.95-.32a1,1,0,0,1,.53-.46,7.46,7.46,0,0,0,.14-.77c.19-1.31.61-2,1.27-2,.42,0,.69.12.8.35a2,2,0,0,0,.67.7q.21,2.53.21,3.45a.13.13,0,0,0-.14.14l.14,1.62a2.4,2.4,0,0,1-.35,1.33c.05.24-.07.36-.35.36a1.13,1.13,0,0,0-.67.17,1.55,1.55,0,0,0-.38.39.56.56,0,0,1-.5.21l-1.19-.42c-.05-.42-.1-.89-.14-1.41a3.16,3.16,0,0,0-.42-1.34,5,5,0,0,1-.85.08h-.91c-.94,0-1.46.14-1.55.42a1.26,1.26,0,0,0-.6-.14,1.4,1.4,0,0,0-.74.28.75.75,0,0,0-.56-.21l-1,.07-.78-.14-.77.14-1.19-.35a5,5,0,0,0-2.25,1.05l-1.83-.49a.3.3,0,0,0-.25.17.41.41,0,0,1-.39.18l-2.18-.28-1.47.21h-1.13a4.27,4.27,0,0,0-2.46.49,1.51,1.51,0,0,0-1-.28l-.49.14-.36-.14a2.38,2.38,0,0,0-1.23.42,2.29,2.29,0,0,1-.88.42c-.93,0-1.4-.58-1.4-1.75v-.36c.19-.37.7-.65,1.55-.84s1.31-.28,1.4-.28a4.22,4.22,0,0,0,.39-1.34c.07-.51.13-.93.17-1.26a5.09,5.09,0,0,0,.07-.71l-.21-1.26.21-.84-.21-.57.14-.7-.21-.63.21-1.83a1.39,1.39,0,0,0,0-.53,3.39,3.39,0,0,1,0-.6l.22-1.82-.29-1.76a2.88,2.88,0,0,1,.07-.63,6.45,6.45,0,0,0,.14-.67,3.35,3.35,0,0,0,0-.85c0-.3,0-.59,0-.88v-.77a.12.12,0,0,1-.14-.14l.22-.49-.22-.85a6.82,6.82,0,0,1-.17-2q0-1.23,0-2.07Z"/><path d="M335.93,254.56l-.42.92a4.35,4.35,0,0,1,.14.91l-.14,1.62a.38.38,0,0,1,.14.28l-.14.28.21,1a10.37,10.37,0,0,1,.32,2.81c0,.94,0,1.9,0,2.88l.14,1.06-.14.84.29,1.41a1.71,1.71,0,0,1-.08.56.65.65,0,0,0,.08.49l-.15,1.2.15.77-.29,1.05.14.85-.14.91.43,1.62a2,2,0,0,0,1.19-.35,2.22,2.22,0,0,1,1.34-.35.74.74,0,0,1,.84.84,1.44,1.44,0,0,1-.77,1.3,11,11,0,0,1-1.27.67,3.21,3.21,0,0,1-.88.25,6.87,6.87,0,0,0-.88.14,3.27,3.27,0,0,0-.63.17,2.45,2.45,0,0,1-.81.07,7.13,7.13,0,0,0-1.79.32,2.7,2.7,0,0,0-1.48.81c-.09,0-.16.06-.21,0a.66.66,0,0,0-.24,0,1.65,1.65,0,0,0-.67.31,1.54,1.54,0,0,1-1.06.25h-.21c-.51-.24-.77-.89-.77-2,.14,0,.23,0,.28-.18a.58.58,0,0,1,.25-.35.55.55,0,0,1,.38-.07,2.7,2.7,0,0,0,1-.28,14.73,14.73,0,0,1,2.08-.6,3.13,3.13,0,0,0,.21-1.12,4.34,4.34,0,0,0-.14-1.09,2.65,2.65,0,0,1-.07-1.09v-2.46a9.64,9.64,0,0,1,.07-1.76l-.21-.63.14-.42-.28-1.13a19.82,19.82,0,0,1-.15-2.46v-2.46a11.12,11.12,0,0,0-.21-2.18c-.14-.7-.25-1.43-.35-2.18v-1.48l-.28-2.11.07-2.32-.07-2v-1.47A2.35,2.35,0,0,0,331,248l-.28-.71a1.17,1.17,0,0,1,.14-.42,18.38,18.38,0,0,0-.14-2.18l-.28-1.12.14-.43-.35-4.92.28-2.6-.14-.91.21-.85-.28-2.53.21-3.3-.28-3c-.1-1.12-.14-2.19-.14-3.2s-.33-1.51-1-1.51l-1.4.14a1.36,1.36,0,0,1-1.2-.63,2.16,2.16,0,0,1-.42-.84l.07-.29c.14-.42.5-.63,1.09-.63a12.19,12.19,0,0,0,1.65-.1c.52-.07,1.24-.23,2.18-.46a10.13,10.13,0,0,1,2.29-.35c.58,0,.95.19,1.09.56a2,2,0,0,1-.5,1.27,1.92,1.92,0,0,0-.56,1l.14,2-.21,1.62.28,1.89c0,.24.06.39.18.46s.17.25.17.53l-.14,1.34.14.42-.14.28a7.84,7.84,0,0,1,.32,2.56,6.72,6.72,0,0,0,.32,2.43,9.19,9.19,0,0,0-.14,2.25l-.14,2.32a14.41,14.41,0,0,0,.1,1.72c.07.59.15,1.3.25,2.15l.21,2.95c.09,1.13.18,2.28.28,3.45a3.24,3.24,0,0,0,.88.07c.49,0,.85-.31,1.09-.92a.66.66,0,0,0,.56-.28c.33-.47.56-.63.7-.49s.29.08.43-.18a1,1,0,0,1,.38-.45.36.36,0,0,1,.25,0,.37.37,0,0,0,.21,0,.33.33,0,0,0,.21-.07c0-.24.68-.47,1.9-.71s1.9-.35,2-.35a5.36,5.36,0,0,1,.63.07l1.37.21a1.61,1.61,0,0,1,1.2.57,5.84,5.84,0,0,0,.77,1c.35.38.78.83,1.3,1.37a10.33,10.33,0,0,1,1.41,1.86.92.92,0,0,1,.31.39.88.88,0,0,0,.32.39.91.91,0,0,0-.07.42l.56,2.25a2.11,2.11,0,0,0,.14.77,2.83,2.83,0,0,1,.18.81c0,.31.06.6.1.88l.29,1a7.91,7.91,0,0,1,.14,1.48v1.41c0,.09,0,.14-.07.14s-.07.05-.07.14l.42,2-.28,1.76.28,2.46a21.42,21.42,0,0,1-.14,2.39,10.12,10.12,0,0,0,0,2.46,3.61,3.61,0,0,0-.42,1.76v1.4a2.57,2.57,0,0,0,.14.85,3.46,3.46,0,0,0,1.05.14l2.81-.57a1.06,1.06,0,0,0,.53.46c.26.12.39.27.39.46,0,.56-.21.84-.64.84a3.64,3.64,0,0,0-2.6,1.2,2,2,0,0,0-.63-.07l-1.9.35h-.49c-.28,0-.43.06-.46.17s-.22.18-.6.18l-1.75.21-.57-.07c-.32,0-.51.11-.56.32s-.21.31-.49.31l-.28-.07a2.57,2.57,0,0,1-.28-1.19,1.43,1.43,0,0,1,.24-.92,1.79,1.79,0,0,1,.57-.42c.21-.09.44-.19.7-.28a1.12,1.12,0,0,0,.6-.49l.35-1.76a3,3,0,0,0,.07-.63l-.21-1.9.14-1.41L348,268.7l.28-1.41-.14-1.26.14-2.75a9.41,9.41,0,0,0-.32-2.39,9.53,9.53,0,0,1-.31-2.46l.14-1c0-.05-.1-.64-.28-1.76l.14-.21q-.44-.49-.39-.6a3,3,0,0,0,0-.56,2.38,2.38,0,0,0-.17-.88,5.08,5.08,0,0,1-.28-.91c-.07-.33-.13-.71-.18-1.13a2.77,2.77,0,0,0-.53-1.44,3.06,3.06,0,0,1-.49-.74,2.24,2.24,0,0,0-.31-.56,1.8,1.8,0,0,0-.53-.46,3,3,0,0,1-.67-.53,2.63,2.63,0,0,1-1.51.32l-1.37,0c-.28,0-.44,0-.46.14a1.14,1.14,0,0,1-.21.38,2.27,2.27,0,0,1-.49.49,2.33,2.33,0,0,0-.53.6,1.89,1.89,0,0,0-1.83.71,6.58,6.58,0,0,1-1.33,1.75c-.14.43-.32.65-.53.67s-.27.15-.18.39l-.07.21.28.84Z"/><path d="M366.52,276.43a8.7,8.7,0,0,1-1.27.46,1.46,1.46,0,0,0-.66.32,2.49,2.49,0,0,1-.6.35,1.8,1.8,0,0,1-1.62-2.25,5.21,5.21,0,0,0-.88-.35,2.62,2.62,0,0,1-.81-.43v-2.11a3.47,3.47,0,0,0,.57-.91,2.27,2.27,0,0,1,.49-.77.75.75,0,0,1,.53-.28.61.61,0,0,0,.38-.11.56.56,0,0,0,.21-.25.53.53,0,0,1,.21-.21l1-.14a6.45,6.45,0,0,1,1-.14,1.45,1.45,0,0,1,1.41.95,4,4,0,0,1,.42,1.44q0,.5.18.63c.11.1.17.49.17,1.16A7,7,0,0,1,366.52,276.43Zm-.28-28.69-.42,7.81.07,2.25c0,1-.17,1.48-.5,1.48-.14,0-.14,0,0,.14a12,12,0,0,0-.59,1.26q-.32.78-.81.78c-.61,0-1.1-.5-1.48-1.48a6.94,6.94,0,0,1-.49-3.17v-2.88l-.14-2.32.14-3-.14-1.41.28-.84-.14-.85.07-2.46a52.61,52.61,0,0,0-.39-7.52,27.85,27.85,0,0,1-.38-3.27,3.94,3.94,0,0,1,.31-1.55,6.5,6.5,0,0,0,.39-1.09c.05-.32.19-.49.42-.49s.24,0,.28-.14.12-.28.21-.28a2,2,0,0,1,1.37.42c.31.28.59.55.85.81a2.83,2.83,0,0,0,.53.46,3.21,3.21,0,0,1,.28.63l.28.14a.57.57,0,0,1,0,.35.37.37,0,0,0,.11.35l.28.14a3.45,3.45,0,0,1,.28,1.27l-.49,3.45.21,3.44v3.24a14.57,14.57,0,0,1-.21,2.7A9.61,9.61,0,0,0,366.24,247.74Z"/><path d="M1250.43,255.7a8.84,8.84,0,0,1,6.26,3.61c.31.48.64.94,1,1.38a4.74,4.74,0,0,1,.72,1.5,12.15,12.15,0,0,1,.48,5.17,16.22,16.22,0,0,0,.36,5.47c.4,1.41.8,2.75,1.2,4q1.08,3.38-1.32,9c-1.2,3.45-2.69,5.49-4.45,6.13l-2.16.72a11.88,11.88,0,0,1-5.35.78,4.86,4.86,0,0,1-3.07-1.26,7.66,7.66,0,0,1-1.2-7.21,7.14,7.14,0,0,0,0-2.65,2.55,2.55,0,0,0-2-2.28,1.79,1.79,0,0,1-1.27-.84c-.2-.41-.36-.75-.48-1a2,2,0,0,0-.36-.6q-.18-.18-1.14.54c-.64.48-1,.75-1.08.78s-.35,0-.78-.18a1.42,1.42,0,0,0-1.27.12,4.08,4.08,0,0,0-1.2,1.33q-2.16,3.72-.84,12.14c.32,1.68.64,3.25,1,4.69a43.8,43.8,0,0,1,.9,7.21,13.37,13.37,0,0,1-.72,3.79c-.44,1.32-.82,2.63-1.14,3.91q-1.44,4.93.36,8.41a40.19,40.19,0,0,0,2.76,5.05,3.23,3.23,0,0,0,5-.66,26.36,26.36,0,0,0,1.57-3,31.47,31.47,0,0,1,1.56-3.07,3.15,3.15,0,0,1,2-1.68,10,10,0,0,1,3-.06q1.8.18,2.46.18a2.84,2.84,0,0,1,1.63.78c.64.52,1,1.68,1,3.49s.1,3.24.18,4.33a4.1,4.1,0,0,1-.84,2.88,7.37,7.37,0,0,0-1.26,2.29,11.5,11.5,0,0,0-.42,2,7.8,7.8,0,0,1-.91,3.73,19.86,19.86,0,0,1-1.44,2c-.44.52-1.6.78-3.49.78a6.68,6.68,0,0,0-5.11,2.65q-2.28,2.64-4.32,2.34a3.54,3.54,0,0,1-2.89-2.46c-.56-1.29-1.8-2-3.73-2.05a6.39,6.39,0,0,1-1.56-.42,8.41,8.41,0,0,0-1.68-.48,5.53,5.53,0,0,1-1.93-.78,10.07,10.07,0,0,1-4-4.21,24.51,24.51,0,0,0-1.87-3,20.21,20.21,0,0,1-1.5-2.29,6.41,6.41,0,0,1-1.2-4.57q.72-5.78-1.57-7.57c-.88-.56-1.32-1-1.32-1.33a9.38,9.38,0,0,0-.48-2,8.69,8.69,0,0,1,.06-5.05,12.64,12.64,0,0,0,.54-4.75c-.16-1.24-.36-2.54-.6-3.91-.48-3.52-.52-5.85-.12-7a11.63,11.63,0,0,0,.3-4.81c-.2-2.08-.3-3.79-.3-5.11s-.1-3.06-.3-5.23a44.66,44.66,0,0,1-.06-7q.84-9.37,6.37-12.87,8.3-4.92,10.58-4.69a10.46,10.46,0,0,1,1.75.18,4.55,4.55,0,0,0,2-.06,5.33,5.33,0,0,0,1.68-.72c.48-.32,1-.68,1.45-1.08q2.88-2.64,5.17-.6a21.57,21.57,0,0,0,3.36,3.37A11.15,11.15,0,0,0,1250.43,255.7Z"/><path d="M1296.6,325.43l.12-9.13v-3c0-2.4-.24-3.93-.72-4.57a3.59,3.59,0,0,0-3.37-1.62,4.06,4.06,0,0,0-3.3,1.38,6.14,6.14,0,0,0-1.2,3.25c-.12,1.28-.2,2.68-.24,4.21s-.06,3.16-.06,4.93a55.66,55.66,0,0,0,.06,8.17,10.92,10.92,0,0,1,0,3.67,4.07,4.07,0,0,1-1.27,1.56,5.73,5.73,0,0,0-1.56,2.05q-.6,1.26-1.08,2.58c-1,2.08-2,3.17-3,3.25q-4.68.48-8-5a11.19,11.19,0,0,0-1.93-2.53q-2.52-2.76-1-8.89a29.25,29.25,0,0,0,.6-6,27.9,27.9,0,0,0-.24-4.39,9,9,0,0,1,0-2.94,4.94,4.94,0,0,0-.36-2.89,6.39,6.39,0,0,1-.42-3.3,10,10,0,0,0-.24-3.55,5.79,5.79,0,0,1-.18-2.7,2.35,2.35,0,0,0-.3-1.93,2.83,2.83,0,0,1-.36-2.1c.12-.92.22-1.91.3-2.95.24-2.88-.12-5.09-1.08-6.61a24.92,24.92,0,0,1-2.47-5.29,11.61,11.61,0,0,1,.3-7.22,33.86,33.86,0,0,0,1.21-14.06,8.62,8.62,0,0,1,.84-4.45q1.56-4,10.22-4.45a23.13,23.13,0,0,0,5-.72,8.83,8.83,0,0,1,4.45-.06,3.19,3.19,0,0,1,2.58,2.82,20.15,20.15,0,0,0,.66,3.13,8.61,8.61,0,0,1,.42,1.68,15.64,15.64,0,0,1-.48,5,38.65,38.65,0,0,0-.84,5.77c-.08,1.57-.12,3.07-.12,4.51a25.59,25.59,0,0,1-.42,7.52,7.42,7.42,0,0,0-.42,3.36,3.6,3.6,0,0,0,1,1.87c1.6,1.44,3.81,1.28,6.61-.48a3.17,3.17,0,0,0,1.08-1.21,56,56,0,0,1-.72-8.29q-.12-7.33-.48-11.48a27.57,27.57,0,0,1,.12-6.92,10.76,10.76,0,0,1,2.53-5.17q2-2.4,3.78-2.1a5.2,5.2,0,0,1,2.89,1.44,2.66,2.66,0,0,0,2.1,1,7.16,7.16,0,0,0,2.65-1.2q4.44-2.64,8.3,3.25-1.21,1.2-.67,4.39a12,12,0,0,1,.18,4.56,20,20,0,0,0-.48,3.85c-.08,1.65-.14,3.23-.18,4.75a47.47,47.47,0,0,1-.66,6,45,45,0,0,0-.12,11.91,62.77,62.77,0,0,1,.24,12.14,60.06,60.06,0,0,0-.24,9,14.63,14.63,0,0,1-.18,4.81q-.42,1.2-.9,2.4a17.83,17.83,0,0,0-2,7.09c-.17,2-.29,4-.36,6a33.16,33.16,0,0,1-.61,5.23c-.72,3.44-2.36,5.17-4.93,5.17-2.88,0-4.53-2.21-4.93-6.62a9.34,9.34,0,0,1-4.5-2.88Q1296.36,330.37,1296.6,325.43Z"/><path d="M1336,257.62a15.28,15.28,0,0,0,2.28-2.58,12.09,12.09,0,0,1,2.53-2.59q4.2-3.48,8.41-2a40.45,40.45,0,0,0,9.5,2.4c2.89.33,5,1.05,6.32,2.17a22.2,22.2,0,0,1,3.42,3.6,20.74,20.74,0,0,1,4.21,10,5.75,5.75,0,0,0,.72,2.89c1,1.76,1.38,4.13,1,7.09a32.71,32.71,0,0,0-.36,6.2,7.88,7.88,0,0,0,.6,2.58c.28.56.55,1.12.79,1.68a11.75,11.75,0,0,1,1,4.57,10.34,10.34,0,0,1-1.93,5.77c-.56.73-.76,2.13-.6,4.21s.28,4.17.36,6.25c.08,5.22-.2,8.44-.84,9.68a9.31,9.31,0,0,1-1.38,2.23,8.25,8.25,0,0,1-.78.6c-1.2.56-2.27,2.22-3.19,5a19.08,19.08,0,0,1-3.67,6.73,23.75,23.75,0,0,1-4.74,4.21l-3.85,2.52a7.6,7.6,0,0,0-2,1.75l-1.2,1.68a4.89,4.89,0,0,1-4,1.92c-2.72,0-4.73-.64-6-1.92a16.84,16.84,0,0,1-1.8-3.13,15.38,15.38,0,0,0-4.81-5.29,9.63,9.63,0,0,1-4.09-6.85,9.13,9.13,0,0,1-.18-3.12,15.61,15.61,0,0,0-.18-4,17.22,17.22,0,0,0-1-4.33,12.92,12.92,0,0,1-.84-3.61c-.41-3.36-1.53-5.17-3.37-5.41q-2-.24-2.4-6.13a33.22,33.22,0,0,1,.24-5.71,28.31,28.31,0,0,1,1-4.63,23.73,23.73,0,0,0,.6-8.12,47,47,0,0,1,0-8.23,28.07,28.07,0,0,1,2.89-10.94,15,15,0,0,1,3.18-3.61C1333.29,259.91,1334.68,258.75,1336,257.62Zm7.63,34.39a5.4,5.4,0,0,0,1.21,2.7,6.83,6.83,0,0,1,1.32,3.19,20.07,20.07,0,0,1,.3,4.75c-.08,1.73-.12,3.37-.12,4.93a33.24,33.24,0,0,0,.24,4.21,20.6,20.6,0,0,0,.72,3.42q1.32,3.74,3.73,3.73,3.72,0,5.17-14.43a87.46,87.46,0,0,0,.48-10.16,27.23,27.23,0,0,0-1.92-10.7q-1.93-4.5-4.69-4.5T1345.3,285C1344,288.56,1343.47,290.89,1343.67,292Z"/><path d="M1440.28,339.74c-2.64,0-3.85-2.24-3.61-6.73a78.55,78.55,0,0,0,.06-8.06,27,27,0,0,0-1.5-7.33,40.83,40.83,0,0,1-1.8-7,15,15,0,0,1,.72-6.86,22.42,22.42,0,0,0,.24-11.78,10.2,10.2,0,0,1-.24-2.22,17,17,0,0,0-.12-2.11q-.12-2.28-1.2-2.28c-.65,0-1.08.56-1.33,1.68a33.8,33.8,0,0,1-1.68,6.73q-2.64,6.26-2,10.34,1.56,6-.24,9.26a5.93,5.93,0,0,1-2,2.29,5,5,0,0,0-1.56,1.26,3.41,3.41,0,0,0-.3,1.92,3.1,3.1,0,0,1-.66,2.23,3.84,3.84,0,0,0-.9,1.8c-.12.64-.27,1.24-.42,1.8a2.27,2.27,0,0,1-2.65,1.93,3.34,3.34,0,0,1-2.83-2.53,28.61,28.61,0,0,1-1.2-5.29l-.84-6a10.18,10.18,0,0,0-1.56-4.57,9.35,9.35,0,0,1-1.57-3.12,27.89,27.89,0,0,1-.66-3.25,16.35,16.35,0,0,0-1.56-5.65,15.76,15.76,0,0,1-1.32-5.41,40,40,0,0,0-.9-5.41c-.29-1-.79-1.45-1.51-1.45s-1.24.69-1.32,1.81a5.8,5.8,0,0,0,.36,2.76,8.06,8.06,0,0,1,.12,3.85,13.52,13.52,0,0,0,.12,4.81c.32,1.36.64,2.58,1,3.67s.6,2.22.84,3.42a19.85,19.85,0,0,1,.55,8.36,43.92,43.92,0,0,0-.79,5.29,3.2,3.2,0,0,1-1.5,2.71,3.6,3.6,0,0,0-1.68,1.74,9.66,9.66,0,0,0-.42,2c-.08.77-.16,1.57-.24,2.41a11.48,11.48,0,0,1-.84,3.06q-1.57,3.86-1,5.65a4.86,4.86,0,0,1-.6,3.85,4,4,0,0,1-3.24,2.23,4.72,4.72,0,0,1-3.37-.79,9.85,9.85,0,0,1-2.22-2.4,22.86,22.86,0,0,1-3.13-14.67c.08-1.2.18-2.4.3-3.61a24,24,0,0,0-.06-4.44q-.36-6.49-3-10.22a11.7,11.7,0,0,1-2-6.14c-.4-4.16-.16-7.13.72-8.89a9,9,0,0,0,.6-3.79c0-1.72,0-3-.06-3.73a4.91,4.91,0,0,1,.12-1.68,8,8,0,0,0,.24-1.92c0-.93.06-2,.06-3.19a26.92,26.92,0,0,0-.84-5.95,28.94,28.94,0,0,1-.9-4.69,18.22,18.22,0,0,1,.06-3.91c.24-2.88.74-4.93,1.5-6.13a4.71,4.71,0,0,1,2.11-2.11,7.57,7.57,0,0,1,2.16-.3,4.39,4.39,0,0,0,2-.42,18.94,18.94,0,0,1,1.81-.78,5.26,5.26,0,0,1,4-.12,6.42,6.42,0,0,0,3.3.48,22.44,22.44,0,0,0,2.59-.6c2.08-.8,3.67-1,4.75-.6a7.53,7.53,0,0,1,2.94,2,5.79,5.79,0,0,1,1.51,2.35,2.47,2.47,0,0,0,.54,1.26,7.83,7.83,0,0,0,.84.72,3.35,3.35,0,0,1,1,2.65,24.49,24.49,0,0,0,1.44,7.09q2.54,8.42,4.81,9.14c.32.08.88-.16,1.69-.72a4.42,4.42,0,0,0,1.68-2.53,11.87,11.87,0,0,0,.48-4.39,2.92,2.92,0,0,1,.42-2.34,3,3,0,0,0,.72-1.56c0-.48.1-1.12.18-1.93a22.36,22.36,0,0,1,.48-2.76,14,14,0,0,1,2.77-6,6.72,6.72,0,0,1,3.73-2.41,14.12,14.12,0,0,1,3.9-.18l4,.36a8.5,8.5,0,0,0,4-.66q5.41-2.4,7.45-.12a4,4,0,0,0,1.15.84l1,.48a3.11,3.11,0,0,1,1.14,2.23,8.2,8.2,0,0,0,.42,2q.24.54.48,1,1.32,3.13,1.68,10.82.36,12.63-.48,14.43c.56,3.29.28,5.61-.84,7l-.72.72a9.63,9.63,0,0,0-2.64,5.77,5,5,0,0,0,.06,2.4,7.26,7.26,0,0,1,.3,2.05q0,1.08-.06,1.92c0,.56-.06,1.16-.06,1.8a29.87,29.87,0,0,0-.06,5.05,7.08,7.08,0,0,1,0,2.29,8.89,8.89,0,0,1-.43,1.32,6.23,6.23,0,0,0-.36,3.07,4.07,4.07,0,0,1,0,2,11,11,0,0,1-.6,1.44,10.89,10.89,0,0,0-.78,5.23,22.09,22.09,0,0,1-.24,5.35,23.39,23.39,0,0,0-.42,4.45q-.24,6.38-1.68,5.89c-.41-.16-.75,0-1,.61a9.19,9.19,0,0,0-.73,2.16,1.1,1.1,0,0,1-1.62.9,2.61,2.61,0,0,1-1.74-2,3.68,3.68,0,0,0-1.08-2A3.42,3.42,0,0,0,1440.28,339.74Z"/><path d="M1476.23,342.39c-1.12-.08-2.26-1.29-3.43-3.61a27.46,27.46,0,0,1-2.4-8.9c-.44-3.6-.74-6.05-.9-7.33a27,27,0,0,0-.48-2.89,7.89,7.89,0,0,0-1.39-3.18,8.81,8.81,0,0,1-1.26-2.11,30.9,30.9,0,0,1-.12-5.41q.24-9.25-.84-12.26a4.68,4.68,0,0,1-.36-2.17,8.81,8.81,0,0,0,.06-1.8,4.86,4.86,0,0,0-.66-2,25.35,25.35,0,0,1-1.2-2.53c-1.29-2.56-1.93-4.33-1.93-5.29a9,9,0,0,1,1.2-4.09,28,28,0,0,0,3.07-6.19,17.77,17.77,0,0,0,.36-4.45c0-1.8-.06-3.62-.06-5.47q-.24-7.1,1.2-8.89a5.1,5.1,0,0,1,2.29-1.33q1.32-.36,3.36-1.08a20.68,20.68,0,0,1,6.2-1.44,4.82,4.82,0,0,1,3.36,1.14,5.09,5.09,0,0,0,3,1.32,7.29,7.29,0,0,0,2.34,0l1.15-.3a6.53,6.53,0,0,1,2.4-.6,2.46,2.46,0,0,1,2.28,1.2,22,22,0,0,0,1.33,2,1.74,1.74,0,0,0,2,.42,9.1,9.1,0,0,1,2.1-.36H1500a7.92,7.92,0,0,0,3.12-.12q2.65-.84,4.09.84a2.34,2.34,0,0,0,1.68,1.2,8.44,8.44,0,0,1,2.29,1,6.49,6.49,0,0,1,3.13,4.21,23,23,0,0,1,.48,11.42c-.33,1.37-.59,2.45-.79,3.25s-.36,1.5-.48,2.1a14.36,14.36,0,0,0-.24,1.75q-.06.84-.12,2c0,.8-.06,1.68-.06,2.65v3.24a56.2,56.2,0,0,0,.24,5.89q.72,6-5.41,8.66a11.24,11.24,0,0,0-2.88,1.56,5.71,5.71,0,0,0-1.45,2.17,18.28,18.28,0,0,1-2.22,3.61,10.77,10.77,0,0,1-4.93,3.42c-2.2.84-4.11,1.55-5.71,2.11s-2.61,1.24-3,2c-.56,1-.7,3.51-.42,7.39a68.62,68.62,0,0,1,.3,7.4,17.39,17.39,0,0,1-.36,2.58,2.55,2.55,0,0,1-1.2,1.63,3.3,3.3,0,0,1-1.68.6,2.3,2.3,0,0,0-1.51.72,15.31,15.31,0,0,0-1.38,1.44,10.29,10.29,0,0,1-1.32,1.32A5.62,5.62,0,0,1,1476.23,342.39Zm8.18-67.33c-.48.48-1,1.88-1.45,4.21a28.87,28.87,0,0,0-.72,5.53,7.83,7.83,0,0,0,.84,3.66,5.5,5.5,0,0,1,.79,2.65q-.06,1-.24,2.16a15.21,15.21,0,0,0-.18,2.35c-.17,1.92,0,3.12.48,3.6a1.69,1.69,0,0,0,1.62.54,7.44,7.44,0,0,0,1.86-.66,15.21,15.21,0,0,0,1.75-1,5.69,5.69,0,0,1,1.56-.78,1.79,1.79,0,0,0,1.14-1.08,3.8,3.8,0,0,1,1.08-1.44,3,3,0,0,0,1.15-1.63q.3-1,.6-2.16a3.64,3.64,0,0,0-.06-2.17c-.24-.68-.68-1.7-1.33-3.06a6.49,6.49,0,0,1-.48-3.25c.64-3.36.24-5.69-1.2-7a7.55,7.55,0,0,0-4.63-1.44A4.46,4.46,0,0,0,1484.41,275.06Z"/><path d="M1536.35,303.55l-.24,8.54q0,8.3-3.49,11.06a5.93,5.93,0,0,1-4,1.32,4.24,4.24,0,0,1-2.7-1.32,3.93,3.93,0,0,1-1-2.52,30.81,30.81,0,0,0-.61-4.15q-.54-2.72-1.32-5.41a16.4,16.4,0,0,1-.54-5.83c.16-2.09.26-4.05.3-5.9a6.16,6.16,0,0,0-1-4.08,6.4,6.4,0,0,1-1.44-4.09,6.21,6.21,0,0,1,.48-2.53,17.17,17.17,0,0,0,1.08-5.53q0-2.4-.12-3.48c-.08-.73-.18-1.43-.3-2.11s-.26-1.72-.42-3.12a24.07,24.07,0,0,1,0-4.81,31.23,31.23,0,0,0,0-5.47c-.16-1.85-.26-3.33-.3-4.45a11.1,11.1,0,0,1,.78-4,13.74,13.74,0,0,1,1.38-3.07,5.21,5.21,0,0,1,1.86-1.38c.89-.44,1.49-.76,1.81-1a1.94,1.94,0,0,1,1.32-.18,3.29,3.29,0,0,1,1.8,1.14,7.21,7.21,0,0,0,2.29,1.62c.88.41,1.9.89,3.06,1.45a3.31,3.31,0,0,1,2,2.7,10.39,10.39,0,0,0,.42,2.23,2.28,2.28,0,0,0,.42.6,13.84,13.84,0,0,1,.48,3.18,16.5,16.5,0,0,1-.42,5.41,23,23,0,0,0-.72,4.51,13.34,13.34,0,0,1-.66,3.67,9.59,9.59,0,0,0-.42,3.85,15.06,15.06,0,0,1,.06,2.94,17.08,17.08,0,0,1-.3,1.75,7.18,7.18,0,0,0-.18,1.62,12.27,12.27,0,0,0,.42,2.58,11.68,11.68,0,0,1,.36,3.19,20.33,20.33,0,0,0,.12,3.07,14.63,14.63,0,0,1,0,3.24A46.73,46.73,0,0,0,1536.35,303.55Zm-15.15,34.87a3,3,0,0,1-.18-1.8,5.52,5.52,0,0,1,2-2.53,25.29,25.29,0,0,1,4.45-3c1.76-1,4.17-1.25,7.21-.85a4.29,4.29,0,0,1,3.37,2.53q2.52,4.32-2.28,7.81a10.54,10.54,0,0,1-3.85,1.75,3.91,3.91,0,0,0-2.35,1.08,1.94,1.94,0,0,1-2.1.42,2.61,2.61,0,0,1-1.92-1.5,2.55,2.55,0,0,0-1.45-1.51,6.68,6.68,0,0,1-1.74-1A3.58,3.58,0,0,1,1521.2,338.42Z"/><path class="cls-4" d="M1446.27,637.91c-30.86-14.38-62.25-29.14-94.69-39.61-15.48-5-32.16-6.61-48.16-9.16-22.05-3.53-44.11-7-66.23-10-7.2-1-14.5-2.23-21.77-2.56-10.87-.49-21.8-.34-32.68-.54-7.72-.13-7.72,11.87,0,12,15.69.28,31.28.05,46.85,2.08,21,2.73,41.83,6,62.69,9.33,16.59,2.63,34,4.22,50.21,8.66,19.13,5.23,37.6,13.55,55.76,21.39q21.11,9.1,42,18.78c7,3.24,13.06-7.1,6.06-10.36Z"/><rect class="cls-4" x="1476.64" y="603.34" width="12" height="34" rx="6" transform="translate(482.16 -637.47) rotate(28.8)"/><path class="cls-5" d="M1628.63,598.54c-13.7,42.09-66.7,48-123.68,29.4s-96.36-54.51-82.65-96.59,42.43-85.08,132.28-55.81C1639.69,503.25,1642.34,556.46,1628.63,598.54Z"/><path class="cls-5" d="M1499.79,820.87c-15.76,87.23-36.86,47.89-70.56,41.81s-67.22,23.38-51.47-63.85c2.89-16,18-98.24,21.67-114.16,16.3-70.88,29.41-68,72.81-60.14,42.1,7.6,56,12.9,46.27,87C1516.61,726.07,1502.36,806.61,1499.79,820.87Z"/><circle class="cls-6" cx="1573.87" cy="561.22" r="33.5"/><ellipse cx="1557.46" cy="564.29" rx="20.94" ry="4.28" transform="translate(538.61 1870.44) rotate(-71.96)"/><circle class="cls-6" cx="1467.36" cy="523.38" r="33.5"/><ellipse cx="1451.25" cy="525.49" rx="20.94" ry="4.28" transform="translate(502.18 1742.68) rotate(-71.96)"/><path class="cls-4" d="M1638.91,585.71s-7.87.45-7.84-5.56-1.58-36.61,4.62-55.65,17.66-42.38,19.4-41.81,4.32,10.43,5.18,13.71,2.46,10.87,5.18,13.72c3.22,3.39,11,19.47,11.24,24.72.27,5.5,4.3,16.44-2.74,26.19s-27.18,24.23-28.93,23.66S1638.91,585.71,1638.91,585.71Z"/><path class="cls-4" d="M1420.25,516.6s6.09,5,9.61.12,22.84-28.66,29-47.7,10.68-44.65,8.94-45.22-9.64,5.89-12.27,8-8.39,7.34-12.26,8c-4.6.83-20.34,9.26-23.65,13.36-3.45,4.28-13.15,10.76-13.2,22.77s7.7,35.6,9.44,36.17S1420.25,516.6,1420.25,516.6Z"/><path class="cls-4" d="M1215.9,575.55l-17.65-14.18c-2.52-2-6-2.46-8.48,0-2.1,2.1-2.54,6.45,0,8.49L1207.42,584c2.52,2,6,2.46,8.48,0,2.1-2.1,2.54-6.45,0-8.49Z"/><path class="cls-4" d="M1393.62,879.07A83.49,83.49,0,0,0,1388,906c-.22,3.75-.24,7.5-.35,11.26-.06,2,.39,6.62-.76,8.12-.82,1.07-7.62.54-9.86.24a60.61,60.61,0,0,1-9-1.93c-7.43-2.15-10.6,9.42-3.19,11.58,8.79,2.55,22.94,5.7,30.42-1.36,5.09-4.8,4.34-13.56,4.48-19.95.25-11,1.34-21.41,5.52-31.68,2.91-7.15-8.7-10.26-11.57-3.19Z"/><path class="cls-4" d="M1437,894.54c5.49,9.33,8,19.42,9.78,30,1.1,6.41,1.57,15.35,7.63,19.26,8.76,5.65,22.06.27,30.58-3.62,7-3.21.92-13.55-6.06-10.36l-.7.31c1.62-.68-.83.33-1.1.43-2.17.82-4.35,1.59-6.58,2.21s-8.24,2.13-9.45,1.16c-1.49-1.19-1.76-6.88-2.08-8.66-.65-3.7-1.22-7.41-2-11.09a83.86,83.86,0,0,0-9.68-25.69c-3.92-6.64-14.3-.61-10.36,6.06Z"/><path class="cls-7" d="M1495.3,873.84c12.84-71.09,7.73-45.6-57.71-57.42s-62.3-37.67-73.17,33.79c-.29,1.92-.59,3.68-.75,5.34-.6,2.55-1.15,5.15-1.63,7.82-6.38,35.34,9.14,17.63,23.86,20.28,6.46,1.17,11.69,6.07,16.07,8.21a5.07,5.07,0,0,0,2.3.85,5.2,5.2,0,0,0,2.45,0c4.85-.48,11.47-3.23,17.93-2.07s11.69,6.06,16.06,8.2a5.16,5.16,0,0,0,2.31.86,5.08,5.08,0,0,0,2.45,0c4.85-.47,11.46-3.23,17.92-2.06,14.72,2.66,23.07,24.68,29.45-10.66.44-2.47.82-4.9,1.14-7.31C1494.47,877.92,1494.91,876,1495.3,873.84Z"/><path class="cls-5" d="M1621.11,557.05c-4.21,12.93-19.69-2.27-43-9.88s-45.78-4.75-41.57-17.68,14.41-25.71,51.26-13.7C1622.65,527.15,1625.33,544.11,1621.11,557.05Z"/><path class="cls-5" d="M1507.25,539.25c-7.28,9.81-17.7-8.74-37.43-23.4s-41.3-19.86-34-29.67,20.09-17.42,51.21,5.69C1516.48,513.76,1514.54,529.44,1507.25,539.25Z"/><path class="cls-5" d="M1499.57,560c-1.78,11.18-19.28.26-43-3.52s-44.73,1-43-10.14,9.31-22.87,46.75-16.92C1495.82,535,1501.35,548.78,1499.57,560Z"/><path class="cls-5" d="M1601.54,604.15c-4,12.45-19.64-2.41-43-10s-45.67-5.09-41.62-17.54,14.08-24.67,50.93-12.67C1602.74,575.29,1605.59,591.7,1601.54,604.15Z"/><path class="cls-5" d="M1518.62,632.65c-3.23-11.33,20.06-9.27,46.64-16.85s46.36-21.91,49.59-10.59.65,25.84-41.26,37.79C1533.91,654.31,1521.85,644,1518.62,632.65Z"/><path class="cls-5" d="M1427.29,528.28c11.31-3.29,7.76,14.42,13.43,33.87s18.41,33.27,7.1,36.57-25.35,2.46-34.29-28.21C1405.06,541.46,1416,531.58,1427.29,528.28Z"/><polygon class="cls-8" points="1502.72 577.67 1494.78 592.11 1508.4 593.14 1502.72 577.67"/><polygon class="cls-8" points="1476.98 569.32 1463 578.05 1474.39 585.59 1476.98 569.32"/><path class="cls-9" d="M1462.42,577.71s16.94,12,20.57,13,26.07,2,26.07,2"/><path class="cls-9" d="M1499.83,552.61a11.16,11.16,0,0,0-6.7,6.68c-1.65,5.07,3.21,13,3.21,13"/><path class="cls-6" d="M1360.89,749.91c59.68-11.62,75.7-87.39,58.89-173.74S1359.68,425.6,1300,437.22s-122.88,44.87-96.36,181C1228.75,747.23,1301.2,761.54,1360.89,749.91Z"/><path class="cls-10" d="M1346.23,674.66c-51.43,10-111.4,5.49-139.36-59.29,1.13-72.94,55.83-95.53,107.26-105.55,47.85-9.32,83.13,19.68,101.89,65.71C1415.9,625.23,1394.09,665.34,1346.23,674.66Z"/><path class="cls-10" d="M1210.7,654.56q-1.38-7.06-2.24-13.67c22.77,86.85,90.27,93.61,147.26,82.51,55.65-10.84,76.09-63.32,68.13-124.11,1.12,4.3,2.13,8.7,3,13.18,12.91,66.3-6.28,125.82-66,137.44S1230,753.59,1210.7,654.56Z"/><path class="cls-10" d="M1305.34,464.67c-57,11.1-118,37.65-105.67,131.06q-1.62-6.15-2.92-12.83c-20.37-104.56,43.74-133.12,103.42-144.74S1400,474.5,1412.89,540.8q1.3,6.72,2.17,13.34C1399.63,494.81,1361,453.84,1305.34,464.67Z"/><path class="cls-11" d="M1203,605.5s-4.83-.07-6.9,1.15-10.6,3.73-15.28,9.93-9.25,15.28-8.51,15.83,1,3.93,2.38,3.6,8.42-6.49,21.31-10c2.15-.58,11.31-.7,12.52-5.35s-3.26-12.1-4-12.65A8.3,8.3,0,0,1,1203,605.5Z"/><path class="cls-6" d="M1337.8,631.37c-51.43,10-109.83,13.59-131-16.1,8.21-36.6,64.07-53.22,115.5-63.24,47.85-9.32,79.64,1.75,93.56,23C1411,599.86,1385.66,622.05,1337.8,631.37Z"/><path d="M1431.26,625c1.93,10.33.35,31.3.35,31.3s-13.69,17.28-12.11,12.91,5.88-22.1,5.88-22.1-19.38,1.09-13.65-.93,13.19-17.53,13.19-17.53-17.36-12.19-12.26-12.07,6-6.13,6-6.13S1403,596,1408.06,596.08s12-1.08,11.3-5-4.59-20.52-7.42-25.1-3.36,7.58-5.26-2.18-11.38-23.34-5.77-20.26,11.4,3.09,8.72-1.52-16.27-18.48-12-17.2,8.3,4.65,6.1-1.06-11.16-16.32-8.85-14.7,8.89.34,11.47,5.54,12.48,32.79,16.4,49.43,6.43,36.83,7.78,44.55S1429.34,614.69,1431.26,625Z"/><path class="cls-4" d="M1510.13,662.13c-30,14.07-60.54,28.53-92.13,38.72-15.17,4.89-31.52,6.5-47.19,9-21.92,3.55-43.86,7-65.86,10.1-17.41,2.44-34.58,2.56-52.16,2.9-7.71.15-7.74,12.15,0,12,15.83-.31,31.54-.13,47.25-2.22,21.67-2.88,43.28-6.3,64.88-9.75,16.88-2.7,34.61-4.33,51.11-8.95,19.62-5.48,38.55-14.1,57.21-22.17q21.6-9.36,43-19.31c7-3.28.9-13.63-6.06-10.37Z"/><path class="cls-4" d="M1277.47,726.84l-17.62,14.21c-2.53,2-2.12,6.37,0,8.49,2.49,2.49,6,2,8.48,0L1286,735.33c2.53-2,2.12-6.37,0-8.49-2.49-2.49-6-2-8.48,0Z"/><path class="cls-5" d="M1534.73,570.62c11.44,2.81,0,14.37-4.24,31.53s.41,33.42-11,30.61-23.32-10-16.67-37C1509.09,570.09,1523.29,567.81,1534.73,570.62Z"/><path class="cls-5" d="M1432.53,593.08c-10.58-5.17,3.07-14,10.83-29.92s6.69-32.74,17.27-27.56,20.67,14.7,8.44,39.73C1457.48,599,1443.12,598.26,1432.53,593.08Z"/><path class="cls-10" d="M1373.75,432.27C1362,413,1354,403,1345,398s-15-15-8-14,13-8,29,11,22.44,14.53,21.72,28.77-5.77,19-4.74,25.13S1373.75,432.27,1373.75,432.27Z"/><path class="cls-10" d="M1547.5,666.69s20.63,3.44,28,17.24,8.9,30.12,8.9,30.12-13.37-11.12-15.88-17.5S1547.5,666.69,1547.5,666.69Z"/><path class="cls-10" d="M1483.36,734.87c14.64,12.13,17.56,27,17.1,34.58s-10,26.57-10,26.57-6.17-19.13-7.84-30.58,3.29-4.12-3.69-18.28-8.76-22.08-8.76-22.08c12.79,9.92,9.74,4.08,8.76,0S1483.36,734.87,1483.36,734.87Z"/><path class="cls-10" d="M1291,805c-7-17.68,18-8.61,22-15s19.11-24.72,19.11-24.72-3.8,19.74-7.85,30.57-4.87,2-5.58,17.8-3,23.57-3,23.57C1301,811,1299.11,812,1298,816S1291,805,1291,805Z"/><path class="cls-4" d="M523.27,637.91c-30.86-14.38-62.25-29.14-94.69-39.61-15.48-5-32.16-6.61-48.16-9.16-22.05-3.53-44.11-7-66.23-10-7.2-1-14.5-2.23-21.77-2.56-10.87-.49-21.8-.34-32.68-.54-7.72-.13-7.72,11.87,0,12,15.69.28,31.28.05,46.85,2.08,21,2.73,41.83,6,62.69,9.33,16.59,2.63,34,4.22,50.21,8.66,19.13,5.23,37.6,13.55,55.76,21.39q21.11,9.1,42,18.78c7,3.24,13.06-7.1,6.06-10.36Z"/><rect class="cls-4" x="553.64" y="603.34" width="12" height="34" rx="6" transform="translate(368.02 -192.87) rotate(28.8)"/><path class="cls-5" d="M708.5,589.73c-15.62,48-69.57,56.76-126.55,38.21s-95.4-57.43-79.78-105.41,46.5-97.58,136.36-68.31C723.63,481.93,724.13,541.76,708.5,589.73Z"/><path class="cls-5" d="M576.79,820.87c-15.76,87.23-36.86,47.89-70.56,41.81S439,886.06,454.76,798.83c2.89-16,18-98.24,21.67-114.16,16.3-70.88,29.41-68,72.81-60.14,42.1,7.6,56,12.9,46.27,87C593.61,726.07,579.36,806.61,576.79,820.87Z"/><circle class="cls-6" cx="658.87" cy="542.22" r="33.5"/><ellipse cx="642.46" cy="545.29" rx="20.94" ry="4.28" transform="translate(-74.98 987.31) rotate(-71.96)"/><circle class="cls-6" cx="552.36" cy="504.38" r="33.5"/><ellipse cx="536.25" cy="506.49" rx="20.94" ry="4.28" transform="translate(-111.4 859.54) rotate(-71.96)"/><path class="cls-4" d="M723.91,566.71s-7.87.45-7.84-5.56-1.58-36.61,4.62-55.65,17.66-42.38,19.4-41.81,4.32,10.43,5.18,13.71,2.46,10.87,5.18,13.72c3.22,3.39,11,19.47,11.24,24.72.27,5.5,4.3,16.44-2.74,26.19S731.77,566.26,730,565.69,723.91,566.71,723.91,566.71Z"/><path class="cls-4" d="M505.25,497.6s6.09,5,9.61.12,22.84-28.66,29-47.7,10.68-44.65,8.94-45.22-9.64,5.89-12.27,8-8.39,7.34-12.26,8c-4.6.83-20.34,9.26-23.65,13.36-3.45,4.28-13.15,10.76-13.2,22.77s7.7,35.6,9.44,36.17S505.25,497.6,505.25,497.6Z"/><path class="cls-4" d="M292.9,575.55l-17.65-14.18c-2.52-2-6-2.46-8.48,0-2.1,2.1-2.54,6.45,0,8.49L284.42,584c2.52,2,6,2.46,8.48,0,2.1-2.1,2.54-6.45,0-8.49Z"/><path class="cls-4" d="M470.62,879.07A83.49,83.49,0,0,0,465,906c-.22,3.75-.24,7.5-.35,11.26-.06,2,.39,6.62-.76,8.12-.82,1.07-7.62.54-9.86.24a60.61,60.61,0,0,1-9-1.93c-7.43-2.15-10.6,9.42-3.19,11.58,8.79,2.55,22.94,5.7,30.42-1.36,5.09-4.8,4.34-13.56,4.48-19.95.25-11,1.34-21.41,5.52-31.68,2.91-7.15-8.7-10.26-11.57-3.19Z"/><path class="cls-4" d="M514,894.54c5.49,9.33,8,19.42,9.78,30,1.1,6.41,1.57,15.35,7.63,19.26,8.76,5.65,22.06.27,30.58-3.62,7-3.21.92-13.55-6.06-10.36l-.7.31c1.62-.68-.83.33-1.1.43-2.17.82-4.35,1.59-6.58,2.21s-8.24,2.13-9.45,1.16c-1.49-1.19-1.76-6.88-2.08-8.66-.65-3.7-1.22-7.41-2-11.09a83.86,83.86,0,0,0-9.68-25.69c-3.92-6.64-14.3-.61-10.36,6.06Z"/><path class="cls-7" d="M572.3,873.84c12.84-71.09,7.73-45.6-57.71-57.42s-62.3-37.67-73.17,33.79c-.29,1.92-.59,3.68-.75,5.34-.6,2.55-1.15,5.15-1.63,7.82-6.38,35.34,9.14,17.63,23.86,20.28,6.46,1.17,11.69,6.07,16.07,8.21a5.07,5.07,0,0,0,2.3.85,5.2,5.2,0,0,0,2.45,0c4.85-.48,11.47-3.23,17.93-2.07s11.69,6.06,16.06,8.2a5.16,5.16,0,0,0,2.31.86,5.08,5.08,0,0,0,2.45,0c4.85-.47,11.46-3.23,17.92-2.06,14.72,2.66,23.07,24.68,29.45-10.66.44-2.47.82-4.9,1.14-7.31C571.47,877.92,571.91,876,572.3,873.84Z"/><path class="cls-5" d="M710.81,523.63c-2,6.15-19-4.23-42.42-11.84s-44.21-9.57-42.21-15.72,9.72-11.29,46.57.72C707.65,508.15,712.81,517.48,710.81,523.63Z"/><path class="cls-5" d="M616.43,510.24c-3.44,4.63-16.59-10.24-36.32-24.89S541.54,461.81,545,457.18s11.91-6.42,43,16.69C617.48,495.76,619.87,505.61,616.43,510.24Z"/><path class="cls-5" d="M584.57,541c-1.78,11.18-17,.62-37.75-2.68s-39.34,1.89-37.57-9.29,8.64-23,41.43-17.76C581.75,516.16,586.35,529.78,584.57,541Z"/><path class="cls-5" d="M686.54,585.15c-4,12.45-19.64-2.41-43-10s-45.67-5.09-41.62-17.54,14.08-24.67,50.93-12.67C687.74,556.29,690.59,572.7,686.54,585.15Z"/><path class="cls-9" d="M584.83,533.61a11.16,11.16,0,0,0-6.7,6.68c-1.65,5.07,3.21,13,3.21,13"/><path class="cls-6" d="M437.89,749.91c59.68-11.62,75.7-87.39,58.89-173.74S436.68,425.6,377,437.22s-122.88,44.87-96.36,181C305.75,747.23,378.2,761.54,437.89,749.91Z"/><path class="cls-10" d="M423.23,674.66c-51.43,10-111.4,5.49-139.36-59.29,1.13-72.94,55.83-95.53,107.26-105.55C439,500.5,474.26,529.5,493,575.53,492.9,625.23,471.09,665.34,423.23,674.66Z"/><path class="cls-10" d="M287.7,654.56q-1.38-7.06-2.24-13.67c22.77,86.85,90.27,93.61,147.26,82.51,55.65-10.84,76.09-63.32,68.13-124.11,1.12,4.3,2.13,8.7,3,13.18,12.91,66.3-6.28,125.82-66,137.44S307,753.59,287.7,654.56Z"/><path class="cls-10" d="M382.34,464.67c-57,11.1-118,37.65-105.67,131.06q-1.62-6.15-2.92-12.83c-20.37-104.56,43.74-133.12,103.42-144.74S477,474.5,489.89,540.8q1.31,6.72,2.17,13.34C476.63,494.81,438,453.84,382.34,464.67Z"/><path class="cls-11" d="M280,605.5s-4.83-.07-6.9,1.15-10.6,3.73-15.28,9.93-9.25,15.28-8.51,15.83,1,3.93,2.38,3.6,8.42-6.49,21.31-10c2.15-.58,11.31-.7,12.52-5.35s-3.26-12.1-4-12.65A8.3,8.3,0,0,1,280,605.5Z"/><path class="cls-6" d="M414.8,631.37c-51.43,10-109.83,13.59-130.95-16.1,8.21-36.6,64.07-53.22,115.5-63.24,47.85-9.32,79.64,1.75,93.56,23C488,599.86,462.66,622.05,414.8,631.37Z"/><path class="cls-4" d="M587.13,662.13c-30,14.07-60.54,28.53-92.13,38.72-15.17,4.89-31.52,6.5-47.19,9-21.92,3.55-43.86,7-65.86,10.1-17.41,2.44-34.58,2.56-52.16,2.9-7.71.15-7.74,12.15,0,12,15.83-.31,31.54-.13,47.25-2.22,21.67-2.88,43.28-6.3,64.88-9.75,16.88-2.7,34.61-4.33,51.11-8.95,19.62-5.48,38.55-14.1,57.21-22.17q21.6-9.36,43-19.31c7-3.28.9-13.63-6.06-10.37Z"/><path class="cls-4" d="M354.47,726.84l-17.62,14.21c-2.53,2-2.12,6.37,0,8.49,2.49,2.49,5.95,2,8.48,0L363,735.33c2.53-2,2.12-6.37,0-8.49-2.49-2.49-5.95-2-8.48,0Z"/><path d="M618,621c-13.61.47-44.7-15.84-47-15.38C541,585,535,583,534,579c-1.76-7,10.45-44.6,16.69-43.12,9.55,2.27,24.93,22,39.31,29.12,17,8.39,38,9.09,44.08,14.32C636.49,581.38,621.75,620.87,618,621Z"/><polygon class="cls-8" points="612.6 603.21 601.6 615.48 614.64 619.56 612.6 603.21"/><polygon class="cls-8" points="551.93 573.4 537.45 581.28 548.36 589.5 551.93 573.4"/><path class="cls-9" d="M536.48,581.43S565.8,602.75,572,605.57s43.8,14.67,43.8,14.67"/><path class="cls-9" d="M462.83,81.86l-267,78.51c-4.83,0-8.79,6-8.79,13.36l33.5,183c0,7.35,4,13.36,8.79,13.36L352.7,351.86l80.63,65.56-8.24-76.25,29.79-4.4c4.83,0,8.79-6,8.79-13.36l7.95-228.19C471.62,87.87,467.66,81.86,462.83,81.86Z"/></svg>