<svg id="Layer_1" data-name="Layer 1" xmlns="http://www.w3.org/2000/svg" xmlns:xlink="http://www.w3.org/1999/xlink" viewBox="0 0 1920 1080"><defs><style>.cls-1{fill:#effaff;}.cls-2{fill:url(#linear-gradient);}.cls-3{fill:#e6e6e6;}.cls-4{fill:url(#linear-gradient-2);}.cls-5{fill:url(#linear-gradient-3);}.cls-6{fill:url(#linear-gradient-4);}.cls-7{fill:url(#linear-gradient-5);}.cls-8{fill:url(#linear-gradient-6);}.cls-9{fill:url(#linear-gradient-7);}.cls-10{fill:url(#linear-gradient-8);}.cls-11{fill:url(#linear-gradient-9);}.cls-12{fill:url(#linear-gradient-10);}.cls-13{fill:url(#linear-gradient-11);}.cls-14{fill:url(#linear-gradient-12);}.cls-15{fill:url(#linear-gradient-13);}.cls-16{fill:url(#linear-gradient-14);}.cls-17{fill:url(#linear-gradient-15);}.cls-18{fill:url(#linear-gradient-16);}.cls-19{fill:url(#linear-gradient-17);}.cls-20{fill:url(#linear-gradient-18);}.cls-21{fill:url(#linear-gradient-19);}.cls-22{fill:url(#linear-gradient-20);}.cls-23{fill:url(#linear-gradient-21);}.cls-24{fill:url(#linear-gradient-22);}.cls-25{fill:#ffe2ce;}.cls-26{fill:#d5a93d;}.cls-27{fill:#ffe794;}.cls-28{fill:#717171;}.cls-29{fill:#fff;}</style><linearGradient id="linear-gradient" x1="967" y1="501" x2="967" y2="1080" gradientUnits="userSpaceOnUse"><stop offset="0" stop-color="#bdccd4" stop-opacity="0.6"/><stop offset="1" stop-color="#4d4d4d" stop-opacity="0"/></linearGradient><linearGradient id="linear-gradient-2" x1="1181.71" y1="446.95" x2="1307" y2="446.95" xlink:href="#linear-gradient"/><linearGradient id="linear-gradient-3" x1="968" y1="430" x2="1102" y2="430" xlink:href="#linear-gradient"/><linearGradient id="linear-gradient-4" x1="1055" y1="485" x2="1189" y2="485" xlink:href="#linear-gradient"/><linearGradient id="linear-gradient-5" x1="1772.71" y1="440.95" x2="1898" y2="440.95" xlink:href="#linear-gradient"/><linearGradient id="linear-gradient-6" x1="1559" y1="424" x2="1693" y2="424" xlink:href="#linear-gradient"/><linearGradient id="linear-gradient-7" x1="1646" y1="479" x2="1780" y2="479" xlink:href="#linear-gradient"/><linearGradient id="linear-gradient-8" x1="760.71" y1="440.95" x2="886" y2="440.95" xlink:href="#linear-gradient"/><linearGradient id="linear-gradient-9" x1="547" y1="424" x2="681" y2="424" xlink:href="#linear-gradient"/><linearGradient id="linear-gradient-10" x1="634" y1="479" x2="768" y2="479" xlink:href="#linear-gradient"/><linearGradient id="linear-gradient-11" x1="1513.71" y1="440.95" x2="1639" y2="440.95" xlink:href="#linear-gradient"/><linearGradient id="linear-gradient-12" x1="1300" y1="424" x2="1434" y2="424" xlink:href="#linear-gradient"/><linearGradient id="linear-gradient-13" x1="1387" y1="479" x2="1521" y2="479" xlink:href="#linear-gradient"/><linearGradient id="linear-gradient-14" x1="277.71" y1="431.95" x2="403" y2="431.95" xlink:href="#linear-gradient"/><linearGradient id="linear-gradient-15" x1="64" y1="415" x2="198" y2="415" xlink:href="#linear-gradient"/><linearGradient id="linear-gradient-16" x1="151" y1="470" x2="285" y2="470" xlink:href="#linear-gradient"/><linearGradient id="linear-gradient-17" x1="367" y1="631.3" x2="757.82" y2="631.3" xlink:href="#linear-gradient"/><linearGradient id="linear-gradient-18" x1="1577" y1="737.3" x2="1967.82" y2="737.3" xlink:href="#linear-gradient"/><linearGradient id="linear-gradient-19" x1="749" y1="543.3" x2="1139.82" y2="543.3" xlink:href="#linear-gradient"/><linearGradient id="linear-gradient-20" x1="1215" y1="621.3" x2="1605.82" y2="621.3" xlink:href="#linear-gradient"/><linearGradient id="linear-gradient-21" x1="81" y1="576.3" x2="471.82" y2="576.3" xlink:href="#linear-gradient"/><linearGradient id="linear-gradient-22" x1="290.11" y1="372.86" x2="595" y2="372.86" xlink:href="#linear-gradient"/></defs><polygon class="cls-1" points="-15.99 1095 -16 -31.99 1949.99 -32 1950 1094.99 1949.99 1095 -15.99 1095"/><rect class="cls-2" x="-16" y="501" width="1966" height="579"/><polygon class="cls-3" points="1244.35 392.36 1237.32 532.67 1251.39 532.67 1244.35 392.36"/><polygon class="cls-4" points="1244.35 392.7 1181.71 501.21 1307 501.21 1244.35 392.7"/><polygon class="cls-3" points="1035 371.6 1027.47 521.67 1042.53 521.67 1035 371.6"/><polygon class="cls-5" points="1035 371.97 968 488.02 1102 488.02 1035 371.97"/><polygon class="cls-3" points="1122 426.6 1114.47 576.67 1129.53 576.67 1122 426.6"/><polygon class="cls-6" points="1122 426.97 1055 543.02 1189 543.02 1122 426.97"/><polygon class="cls-3" points="1835.35 386.36 1828.32 526.67 1842.39 526.67 1835.35 386.36"/><polygon class="cls-7" points="1835.35 386.7 1772.71 495.21 1898 495.21 1835.35 386.7"/><polygon class="cls-3" points="1626 365.6 1618.47 515.67 1633.53 515.67 1626 365.6"/><polygon class="cls-8" points="1626 365.97 1559 482.02 1693 482.02 1626 365.97"/><polygon class="cls-3" points="1713 420.6 1705.47 570.67 1720.53 570.67 1713 420.6"/><polygon class="cls-9" points="1713 420.97 1646 537.02 1780 537.02 1713 420.97"/><polygon class="cls-3" points="823.35 386.36 816.32 526.67 830.39 526.67 823.35 386.36"/><polygon class="cls-10" points="823.35 386.7 760.71 495.21 886 495.21 823.35 386.7"/><polygon class="cls-3" points="614 365.6 606.47 515.67 621.53 515.67 614 365.6"/><polygon class="cls-11" points="614 365.97 547 482.02 681 482.02 614 365.97"/><polygon class="cls-3" points="701 420.6 693.47 570.67 708.53 570.67 701 420.6"/><polygon class="cls-12" points="701 420.97 634 537.02 768 537.02 701 420.97"/><polygon class="cls-3" points="1576.35 386.36 1569.32 526.67 1583.39 526.67 1576.35 386.36"/><polygon class="cls-13" points="1576.35 386.7 1513.71 495.21 1639 495.21 1576.35 386.7"/><polygon class="cls-3" points="1367 365.6 1359.47 515.67 1374.53 515.67 1367 365.6"/><polygon class="cls-14" points="1367 365.97 1300 482.02 1434 482.02 1367 365.97"/><polygon class="cls-3" points="1454 420.6 1446.47 570.67 1461.53 570.67 1454 420.6"/><polygon class="cls-15" points="1454 420.97 1387 537.02 1521 537.02 1454 420.97"/><polygon class="cls-3" points="340.35 377.36 333.32 517.67 347.39 517.67 340.35 377.36"/><polygon class="cls-16" points="340.35 377.7 277.71 486.21 403 486.21 340.35 377.7"/><polygon class="cls-3" points="131 356.6 123.47 506.67 138.53 506.67 131 356.6"/><polygon class="cls-17" points="131 356.97 64 473.02 198 473.02 131 356.97"/><polygon class="cls-3" points="218 411.6 210.47 561.67 225.53 561.67 218 411.6"/><polygon class="cls-18" points="218 411.97 151 528.02 285 528.02 218 411.97"/><polygon class="cls-3" points="562.41 461 540.46 898.67 584.36 898.67 562.41 461"/><polygon class="cls-19" points="562.41 462.07 367 800.53 757.82 800.53 562.41 462.07"/><polygon class="cls-3" points="1772.41 567 1750.46 1004.67 1794.36 1004.67 1772.41 567"/><polygon class="cls-20" points="1772.41 568.07 1577 906.53 1967.82 906.53 1772.41 568.07"/><polygon class="cls-3" points="944.41 373 922.46 810.67 966.36 810.67 944.41 373"/><polygon class="cls-21" points="944.41 374.07 749 712.53 1139.82 712.53 944.41 374.07"/><polygon class="cls-3" points="1410.41 451 1388.46 888.67 1432.36 888.67 1410.41 451"/><polygon class="cls-22" points="1410.41 452.07 1215 790.53 1605.82 790.53 1410.41 452.07"/><polygon class="cls-3" points="276.41 406 254.46 843.67 298.36 843.67 276.41 406"/><polygon class="cls-23" points="276.41 407.07 81 745.53 471.82 745.53 276.41 407.07"/><polygon class="cls-3" points="442.56 240 425.43 581.44 459.68 581.44 442.56 240"/><polygon class="cls-24" points="442.56 240.84 290.11 504.88 595 504.88 442.56 240.84"/><path class="cls-25" d="M931.36,429.5c0-1.51,0-3,0-4.53a9.34,9.34,0,0,1-2-.25c.24.63.49,1.26.75,1.88-.27-.63-.54-1.26-.8-1.9h0C930,426.3,930.64,427.91,931.36,429.5Zm-.81,37.85c-3.27-1-5.94-3-8.57-5-5.25-4.18-8.57-10.27-11.68-16.1a110.4,110.4,0,0,1-4.67-10.42A82.45,82.45,0,0,1,900.18,414a58.31,58.31,0,0,1-.32-11,48.57,48.57,0,0,1,2.22-11.95,38.32,38.32,0,0,1,2.7-6.12,18.86,18.86,0,0,1,1.32-2.09,46.86,46.86,0,0,1,1.87-4.36,19.2,19.2,0,0,1,2.48-3.52,9.75,9.75,0,0,1,1.6-1.61,23.61,23.61,0,0,1,3.48-2.45,30.56,30.56,0,0,1,4.05-1.68,19.79,19.79,0,0,1,4.38-.72,14.76,14.76,0,0,1,4.29.37,21,21,0,0,1,8.59,4.62,30.44,30.44,0,0,1,7.95,10.13,83.76,83.76,0,0,1,5.08,13.82,113.6,113.6,0,0,1,2.48,14.43,131.29,131.29,0,0,1,1,14.42,126,126,0,0,1-.51,13.32c-.19,2.06-.46,4.12-.66,6.19a38.13,38.13,0,0,1-1.5,8.55,24,24,0,0,1-3.24,6.38,23,23,0,0,1-2.86,3.41,14.26,14.26,0,0,1-5.49,3.25,11.69,11.69,0,0,1-4,.65A16.28,16.28,0,0,1,930.55,467.35Z"/><path class="cls-25" d="M913,491.59a20.85,20.85,0,0,1-3.77-1c-.79-.19-1.57-.4-2.35-.67a30.47,30.47,0,0,1-6.91-3.3,33.64,33.64,0,0,1-5.93-4.92,42.54,42.54,0,0,1-2.94-3.75,11,11,0,0,1-1.22-2.09,50.8,50.8,0,0,1-5-7.94,47.33,47.33,0,0,1-4.81-14.74,60.23,60.23,0,0,1-.76-8.57,46,46,0,0,1,1-8.34c-.25-1-.48-2-.7-2.95-1.33-6-2.41-12.14-4.15-18.06-.92-3.13-2-6.18-3.16-9.22-.79-2-1.61-3.94-2.26-6a58.62,58.62,0,0,1-2-12c-1.28-12.81-.88-25.91,2.31-38.43A66.2,66.2,0,0,1,874.68,338a41.83,41.83,0,0,1,4.77-7.37,45.23,45.23,0,0,1,4.84-5.77,39.06,39.06,0,0,1,5-3.82c1.21-.85,2.45-1.65,3.68-2.48s2.61-1.85,3.93-2.76a37.9,37.9,0,0,1,7.53-3.57c.7-.29,1.44-.52,2.17-.76q2.28-.74,4.59-1.42a39.14,39.14,0,0,1,6.91-1.18,20.85,20.85,0,0,1,5.21.56c1.35.48,2.68,1,4,1.64a7.7,7.7,0,0,1,1.68,1l.24.18c.52,0,1-.07,1.59-.07a33.71,33.71,0,0,1,5.18.68,14.68,14.68,0,0,1,3,.91,36.15,36.15,0,0,1,5.17,2.39c4.39,2.51,7.69,6.34,10.45,10.48a52.11,52.11,0,0,1,5.79,13.24,60.94,60.94,0,0,1,2.5,14,28.47,28.47,0,0,1,0,3.81c.29.87.57,1.75.85,2.62a79.65,79.65,0,0,1,2.71,13.18,286.12,286.12,0,0,1,2.77,29.23,120.17,120.17,0,0,1-2,28.65,35.65,35.65,0,0,1-2.66,7.81,23.2,23.2,0,0,1-2.7,4.65l0,.05c-.34,2.22-.73,4.43-1.15,6.63-.38,2-.79,4.08-1.23,6.12a68.73,68.73,0,0,1-2,13.24,38.9,38.9,0,0,1-2.52,6.94,24,24,0,0,1-4.81,6.56,18.2,18.2,0,0,1-14.74,5.13l-.6-.07a35.1,35.1,0,0,1-4.94,2.26,30,30,0,0,1-8.71,1.66l-1,0A42.89,42.89,0,0,1,913,491.59Z"/><path class="cls-26" d="M771.66,910.59c-4.59-2.89-6.29-8.41-8.2-13.2a37.75,37.75,0,0,1-1.94-6.34,100,100,0,0,1-2.43-18.7c-.05-2.75-.07-5.42.09-8.16s.37-5.32.68-8c.71-6.22,1.69-12.42,2.66-18.61.6-4.89,1.13-9.8,1.43-14.72.39-6.37.47-12.74.87-19.11.38-6,.84-12.06,1.31-18.09.53-6.6,1.16-13.2,1.06-19.82s-.94-13-1.49-19.45c-.53-6.13-.53-12.33-.56-18.48a347.82,347.82,0,0,1,1.69-37.36A191.94,191.94,0,0,1,770,667.91c1.29-5.78,3.06-11.46,4.9-17.09l2.34-5.55a23.24,23.24,0,0,1,40.13,0q1.17,2.78,2.35,5.55a23.52,23.52,0,0,1,0,12.35c-1.11,5.73-2.2,11.45-3.13,17.2-1.23,11.31-2.39,22.64-2.78,34-.24,6.74-.28,13.46-.3,20.2,0,6.34.45,12.69.88,19a118.08,118.08,0,0,1,.06,18.9c-.58,6.28-1.52,12.55-2.28,18.82-1,8.15-1.78,16.39-3.42,24.43-.62,3-1.71,5.92-2.57,8.86-.93,3.17-1.72,6.38-2.58,9.57-2.91,10.86-7.82,21-12.4,31.26-1,2.67-2,5.33-2.85,8.06q-1.74,5.63-3.32,11.3c-.85,3-1.61,6.08-2.44,9.11q-.58,2.19-1.2,4.38c.81-.83,1.7-1.56,2.45-2.45l.63-.92c.88-1.32,3-.09,2.13,1.24-.29.43-.58.87-.91,1.27-1,1.22-2.19,2.18-3.22,3.34s-1.73,2.15-2.57,3.23l-.22.29c-.22.81-.48,1.6-.7,2.4a4.55,4.55,0,0,1-.77,2.33l.09-.22a5,5,0,0,1-1.72,1.8,4.5,4.5,0,0,1-2.45.68A4.67,4.67,0,0,1,771.66,910.59Z"/><path class="cls-26" d="M790.24,897c-.8-.07-1.72-.12-2.19-.88a1.23,1.23,0,0,1,.44-1.68,1.24,1.24,0,0,1,1.29,0l.14,0,.32,0a1.32,1.32,0,0,1,.87.36,1.24,1.24,0,0,1-.79,2.11Z"/><path class="cls-26" d="M820.46,925.82q-12.21-1.44-24.34-3.29c-2.41-.28-4.83-.53-7.26-.73-1-.08-1.94-.11-2.91-.16s-1.69,0-2.54-.13a19.88,19.88,0,0,1-7.25-1.12,24.4,24.4,0,0,1-10.77-6.28c-3.25-2.55-5.74-7.28-6.82-11.19a27.29,27.29,0,0,1,.11-14.21c1.52-6.21,5.38-10.67,9.18-15.55l-1.14,1.46,2.58-3.27a51.87,51.87,0,0,0,3.47-5.46c.44-1.43.8-2.88,1.1-4.35.59-7.42.15-15-.24-22.37l-1-20.55q-.5-9.93-.8-19.85c-.11-3.58-.28-7.16-.26-10.75a223.86,223.86,0,0,1,1.84-28.22c1.27-9.73,2.89-19.39,4.72-29l2-10.65a72.1,72.1,0,0,1,2.61-11.3l2.39-5.66a23.58,23.58,0,0,1,31.58-8.91c-.07-2.89-.13-5.77-.24-8.65a157.84,157.84,0,0,1,.29-19.21c.71-8.17,2-16.35,3.37-24.44,1.12-6.65,2.29-13.28,3.31-19.93.77-7.42,1.39-14.87,2.8-22.2q1.72-8.92,4-17.74.63-2.46,1.27-4.89A58.65,58.65,0,0,1,836,565.51c1.37-2.68,3.09-5.21,4.71-7.74s3.26-5.06,4.82-7.62c3.49-5.72,6.9-11.52,12.94-15a25.76,25.76,0,0,1,25.64.09c4.29,2.51,6.35,5.23,9.13,9.26s2.9,8.3,3.53,13a36.24,36.24,0,0,1-.3,9.53c-.42,3.22-.85,6.45-1.26,9.68-.82,6.51-1.67,13-2.23,19.55-.26,3.08-.44,6.16-.76,9.22-.54,5.3-1.31,10.56-2.17,15.81-1,6-2.44,12-3.52,18-1.17,11.82-1.31,23.72-1.58,35.59-.14,6-.69,12-1.09,18q-.68,10.11-1.21,20.24a119.69,119.69,0,0,0,.16,17.56c.32,3.24.64,6.48.89,9.72.15,2,.31,4,.37,6.08A91.29,91.29,0,0,1,882.43,765c-1.08,6-2.45,11.92-3.91,17.86,0,.19-.09.38-.13.57q.24,1.27.51,2.55c.66,3.12,1.71,6.2,2.61,9.25s1.64,6.08,2.39,9.14c.71,2.89,1.45,5.75,2.26,8.62s2,5.39,2.77,8.15a142.38,142.38,0,0,1,3.61,19q1.35,9.23,3,18.4c1,5.88,2.65,11.66,3.83,17.52.59,3,1.13,6,2,8.88.94,3.17,2.08,6.23,3.25,9.33,1.65,4.36,4,8.65,2.23,13.5a10.89,10.89,0,0,1-12.91,7.72c-1.22,1-2.49,1.93-3.79,2.83-2,1.38-4.55,2-6.81,2.91a19.52,19.52,0,0,1-2.37.7c-.82.23-1.66.37-2.49.55a105.94,105.94,0,0,1-14.87,1.81c-6.26.45-12.54.45-18.8,1-3.28.28-6.52.88-9.8,1.16-1.29.11-2.58.16-3.87.16A90.49,90.49,0,0,1,820.46,925.82Z"/><path class="cls-26" d="M774.27,801.11c-2.06-1.62-3.69-4.15-5.22-6.21-1.16-1.57-2.3-3.15-3.46-4.72l-2.8-3.24c-1-1.22-2.35-2.27-3.52-3.38-2.23-2.11-4.6-4.09-6.83-6.2-4.25-4-8.17-8.37-12.12-12.67-2.45-2.67-5.17-5.05-7.56-7.77a64.42,64.42,0,0,1-5.66-7.68,60,60,0,0,1-4.39-9.64c-1.06-2.65-1.88-5.37-2.7-8.1-1.72-5.77-3.89-11.4-5.49-17.2a169,169,0,0,1-4.62-23.78A174.41,174.41,0,0,1,709,671c-.07-6,.19-12,.48-18,.16-3.51.36-7,.58-10.52.1-1.42.34-2.84.51-4.25.42-3.42.84-6.83,1.39-10.23,1-6.3,1.85-12.67,3.23-18.9.78-3.5,1.66-6.88,2.67-10.31a121.49,121.49,0,0,1,5.3-13.82,97.16,97.16,0,0,1,8.53-16.45c3.61-5.28,7.27-10.53,10.8-15.86l1.68-2.56.21-1.09c1.19-6,3.77-11.61,6.15-17.16a112.18,112.18,0,0,1,8.28-15.19c6-9.7,12.59-19.53,21.58-26.69a91.13,91.13,0,0,1,12.94-9.07l4.47-2.45c1.39-.76,2.83-1.42,4.24-2.12a83.3,83.3,0,0,1,8.91-3.71,15.11,15.11,0,0,1,2.81-.59c3-.46,5.39-1,8.25-.7a50.21,50.21,0,0,1,7.31,1.11,37.38,37.38,0,0,1,6.51,2.73c1.57.75,5.58,4.24,5.46,4.11a38.46,38.46,0,0,1,4.23,5.54,22,22,0,0,1,2.66,7.31,16.69,16.69,0,0,1,1.86,1.6,17.5,17.5,0,0,1,5.09,11.85,23.56,23.56,0,0,1,4.9,3.48,23.93,23.93,0,0,1,4.28,5.26c3,4.86,3.2,11.07,2,16.5a46.15,46.15,0,0,1-1.44,4.45c-.56,1.67-1.13,3.32-1.77,5-1.27,3.26-2.61,6.5-3.93,9.74-2.57,6.29-5.23,12.52-7.94,18.74q-1.25,2.84-2.66,5.58c-1.89,5-3.67,10-5.53,14.95-.64,1.69-1.14,3.44-1.7,5.17l-4.18,13c-1.58,4.91-3.12,9.77-4.44,14.76q-1.83,7-3.68,13.93a29.94,29.94,0,0,1,1,6c.09,1-.09,2.09,0,3.12.23,2.29.39,4.59.58,6.88s.18,4.61.27,6.9c.13,3.22.21,6.42.21,9.65,0,6.33-.12,12.66-.68,19-.52,5.84-1.21,11.68-2.12,17.48.4,1.06.79,2.11,1.17,3.17h-.09a15.28,15.28,0,0,1,.09,8.46,16,16,0,0,1-5.3,8.11l-.45,1.7c-.26,1-.53,2-.86,3a22,22,0,0,1-4.3,7.68c-3.72,4.56-9.91,5.59-15.26,3.78a12.14,12.14,0,0,1-5.33-3.1L796,735.54a12.11,12.11,0,0,1-1.65-6.1c-.6-5.66-1.12-11.28-1.47-17-.14-2.27-.27-4.55-.41-6.82-.84-1.64-1.68-3.28-2.46-4.94-.52-.24-1-.51-1.54-.8l-3.88-3-.15-.16c-.24.78-.48,1.57-.73,2.35-1.1,3.55-2.19,7.11-3.24,10.67q-1.39,4.69-2.78,9.37c-.1.36-.21.71-.32,1.06q-1.35,5.58-2.81,11.13a17.49,17.49,0,0,1-7.94,10.41c.51,1.35,1,2.72,1.41,4.12,1,3.5,1.77,7.06,2.61,10.62a115.47,115.47,0,0,0,3.18,11.22c1,3,2.26,5.86,3.49,8.75-.12-.28-.24-.55-.35-.83l.36.85c.19.45.38.89.56,1.34-.18-.44-.37-.88-.56-1.33,1.86,4.42,3.69,9,6.45,12.94l.44.49a7.72,7.72,0,0,1,4.39,6.86,7.46,7.46,0,0,1-2.17,5.24,7.88,7.88,0,0,1-5.24,2.17l-.52,0C778.22,804.21,776.1,802.56,774.27,801.11Z"/><path class="cls-26" d="M1023.71,919.6a6.81,6.81,0,0,1-2.5-.45,26.7,26.7,0,0,1-3.74-1.68,24.2,24.2,0,0,1-3.43-2.6,63.17,63.17,0,0,1-4.65-5.93c-1.78-2.48-3.27-5.17-4.82-7.8q-2.54-4.29-5.05-8.6c-3-5.14-5.81-10.4-8.66-15.62-3.2-5.91-6.42-11.79-9.5-17.76a125,125,0,0,1-8.52-22c-1.74-5.88-3.37-11.78-5.27-17.6-2-6.23-4-12.39-5.49-18.78-1.38-6-2.26-12.2-3.13-18.34-1.12-8-2.29-16-2.92-24-1-12.91-1.48-25.84-2.18-38.77-.66-12.35-2.09-24.65-2.41-37-.17-6.31-.2-12.61-.28-18.92-.1-6.57-.53-13.08-1-19.62-.47-6.29-.89-12.58-1.36-18.87a175.75,175.75,0,0,1-.73-18.07c.09-3.52.22-7,.33-10.55a55.37,55.37,0,0,0-.22-6.31c-1-4.79-2.24-9.69-1.9-14.51A88.57,88.57,0,0,1,948,564.31a32.31,32.31,0,0,1,3.6-9c3.16-5.68,9.66-10.91,16.11-12.12a32.25,32.25,0,0,1,14.3,0,51.94,51.94,0,0,1,5.22,1.21c1.58.43,3.15.89,4.73,1.33,1.88.53,3.76,1.13,5.65,1.66a24.61,24.61,0,0,1,4.61-6.54c4.09-4.44,10.26-6.32,16.11-6.56a39.73,39.73,0,0,1,4.75.21l1.08.06c0-4.23-.53-8.49-.65-12.7a81.85,81.85,0,0,1,1.26-14.31c.49-3.68,1.07-7.34,1.73-11a40.82,40.82,0,0,1,1.09-4.75c1.8-5.88,5.1-11.08,10.51-14.24,3.8-2.22,6.22-2.37,10.54-2.8a19.7,19.7,0,0,1,9.94,2.67,23.24,23.24,0,0,1,23.39,0c7.4,4.2,12.17,11.59,17.87,17.64,2.36,2.51,5,4.74,7.37,7.25,1,1.07,1.91,2.29,2.83,3.44a50,50,0,0,0,4.93,5.52l1.44,1c3,2,5.89,4.33,8.71,6.61a26.94,26.94,0,0,1,4,4.28,80.5,80.5,0,0,1,5.88,8,93.7,93.7,0,0,1,4.65,8.37c.68,1.42,1.35,2.85,2,4.3a83.24,83.24,0,0,1,3.94,9.66c.84,2.93,1.49,5.9,2.12,8.87l.78,3.77a25.34,25.34,0,0,1,2.5.53c9.81,2.71,17.75,12.34,17.33,22.77,0,.86,0,1.63-.11,2.35-.59,11.86-2.09,23.61-3.7,35.37-.46,3.85-1,7.7-1.13,11.58l.12,1.86c.1,1.84.25,3.66.2,5.51,0,1.29-.07,2.59-.13,3.88.5,1.91,1,3.83,1.47,5.75a95.24,95.24,0,0,1,2.7,30.53c-.48,6.15-1.28,12.24-1.59,18.41a125.64,125.64,0,0,0,1,18.39c.15,1.47.23,3,.33,4.44a44.35,44.35,0,0,1-1.41,13c-.69,2.92-1.29,5.85-1.83,8.79-.12.65-.23,1.3-.35,2-.06.31-.11.62-.17.93-.86,4.86-3.53,7.63-6.42,11.32-2.35,3-7.46,5.58-11,6.57-5,1.39-8.66,1-13.71,0-1.07-.2-2.09-.52-3.12-.82l-.3-.09c1.53,7.85,2.54,15.82,3.43,23.76q1.29,11.54,2.74,23c1.45,8.55,3.21,17.16,6.37,25.28,1.16,3,2.37,6,3.48,9a48.81,48.81,0,0,1,1.74,4.78c.21.83.4,1.66.56,2.49.9,4.73.84,6,.05,10.68a18.67,18.67,0,0,1-3.57,7.9c0,.51,0,1,.07,1.52.17.69.38,1.36.61,2a21.09,21.09,0,0,1,2.37,3.26,20.18,20.18,0,0,1,2.86,10.38,14.07,14.07,0,0,1-.73,5.52,19.83,19.83,0,0,1-5.11,8.76q-2,1.68-4.08,3.15a20.61,20.61,0,0,1-7.75,2.63,27,27,0,0,1-10.38,5.57,18.86,18.86,0,0,1-2.92.58,24.15,24.15,0,0,1-4.65,1.68,40.56,40.56,0,0,1-10.28,1c-2.8-.09-5.58-.14-8.38-.17-3,0-6-.17-9-.37a44.4,44.4,0,0,0-5.15-.06c-1.32.27-2.64.53-4,.76a69.8,69.8,0,0,1-7.7,1,39.51,39.51,0,0,1-8.49-.84c-1.55-.25-3.06-.67-4.57-1l-.94,0c-6,1.12-12.39,2.69-18.38,2.69C1032.3,924,1027.63,922.9,1023.71,919.6Z"/><path class="cls-27" d="M912,549.72a16.7,16.7,0,0,1-6.57-5.38,4.07,4.07,0,0,1-.7-1l-.3-.44a16.13,16.13,0,0,1-8.84-5,16.2,16.2,0,0,1-6.24-1.42,15.54,15.54,0,0,1-4.65-3.3,15.79,15.79,0,0,1-17.38-9.86c0-.14-.06-.28-.1-.42a12.58,12.58,0,0,1-1.49-.8c-.68.38-1.36.72-2,1a14.8,14.8,0,0,1-11.78-.18,15.47,15.47,0,0,1-7.82-8.42c-.15-.38-.28-.76-.39-1.13a16.68,16.68,0,0,1-1.8-6.08,32.22,32.22,0,0,1,.17-8.14c.06-2.67.14-5.34.34-8,.18-.6.37-1.2.55-1.8a19.62,19.62,0,0,1-2.72-8.1c-.26-2.51-.24-5.07-.29-7.6,0-1.42-.09-2.82-.15-4.23-4.16-3.41-6.33-9.25-4.79-14.46.58-3.36,1.17-6.71,1.65-10.09.16-1.14.27-2.29.34-3.45,0-.57,0-1.14,0-1.71a16.53,16.53,0,0,1,5.48-14c.3-1.72.44-3.49.68-5.22.32-2.38.63-4.76,1-7.15.46-3.41.54-6.92.75-10.38.08-4.16.18-8.33.34-12.49a9,9,0,0,1,14.51-5.42,9.29,9.29,0,0,1,3.16,5.69l.2.8,1.26,4.13a9.19,9.19,0,0,1-.21,6.82l-.21.42c.07,1.51.12,3,.14,4.53.06,3.06.15,6.11,0,9.17-.12,2.81-.23,5.63-.35,8.46a15.26,15.26,0,0,1,5.2,7c1.67,4.73,2.49,9.83,3.4,14.76.56,3,1.11,6.09,1.45,9.14.68,6.12,1.29,12.24,1.41,18.39.26.61.5,1.23.7,1.86a13.13,13.13,0,0,1,6-.37,14,14,0,0,1,10.5,8.59c.18.44.35.89.51,1.33l.12,0a14.55,14.55,0,0,1,9.26,5.76c.82,1.14,1.48,2.17,2.14,3.3a14.4,14.4,0,0,1,4.43,1.65,15.7,15.7,0,0,1,14.28,3.29c2.91-5.72,9.79-8.86,16-8.22a16.75,16.75,0,0,1,4.15-2.35,18,18,0,0,1,7.12-1.12,15.41,15.41,0,0,1,3.53-3.59c3.1-2.26,7.85-3.75,11.68-2.73,1.1.29,2.22.54,3.32.87q-.76-3.15-1.23-6.36a40.62,40.62,0,0,1-.14-7.95c0-4.11,0-8.19-.33-12.3-.34-4.79-1.47-9.56-2.33-14.28s-1.79-9.68-2.35-14.57c-.28-2.38-.48-4.78-.63-7.17a74.78,74.78,0,0,1,.08-8.6c0-2,0-4-.11-6-.07-2.93-.29-6.07.54-8.92,1.26-4.31,1.91-6.87,4.9-10.41a14.62,14.62,0,0,1,3.94-3.63c2.72-1.69,6.05-3.59,9.41-3.56l5,.17a14.56,14.56,0,0,1,6.68,2.53l0,0,.18.11.07.05c.79.5,1.55,1,2.28,1.54,3.09,2.14,5.07,6,6.58,9.27a21.1,21.1,0,0,1,1.64,8.7c0,.12,0,.24,0,.37.73,2.36,1.45,4.73,2.14,7.1,1.3,4.51,2.46,9.05,3.73,13.57h0a14.8,14.8,0,0,1,6,1.34,19.79,19.79,0,0,1,10,10.63c.47,1.12.89,2.23,1.29,3.38.74,2.11,1.33,4.29,2,6.44.58,1.94,1,4,1.37,6a2,2,0,0,1,0,.85q0,2.16-.18,4.32c-.06.76-.32,1.55-.43,2.31-.23,1.49-.38,3-.49,4.5,0,.34,0,.68,0,1,.17.65.32,1.31.47,2,.52,2.25.77,4.6,1.1,6.89.17,1.2.33,2.39.47,3.58a26.54,26.54,0,0,1,.16,3.32c0,.34.07.68.1,1a10.79,10.79,0,0,1-2.36,7.84q-.21.26-.45.51a17.57,17.57,0,0,1,.29,2.5,20.27,20.27,0,0,1-1.54,10c0,1.38,0,2.75,0,4.13a110.85,110.85,0,0,1-.45,11.23c-.45,4.82-2.15,10-5.54,13.52a19.06,19.06,0,0,1-18,6.73c-.55-.1-1.1-.22-1.64-.36a17.4,17.4,0,0,1-7.75,3.3,16.39,16.39,0,0,1-22.15,4.94,23,23,0,0,1-6.16,1.64,15.91,15.91,0,0,1-10.47-2.26L954,544a17.92,17.92,0,0,1-16.53-1.94,18.3,18.3,0,0,1-3.69.28,16.71,16.71,0,0,1-13.11,8.78,16.28,16.28,0,0,1-1.7.09A16.64,16.64,0,0,1,912,549.72Z"/><path class="cls-27" d="M962.89,492.32a4.84,4.84,0,0,1-2.59-2.76,11.58,11.58,0,0,1-.58-3.18c0-1.37.17-2.68.32-4,.11-1,.21-1.91.32-2.87.15-1.31.25-2.63.33-4a9.47,9.47,0,0,0-.05-1.07,6.83,6.83,0,0,1,4.35-7.08,6.79,6.79,0,0,1,2.42-.46l.67-1c2.7-4.38,5.3-8.81,7.76-13.33.58-1.06,1.12-2.14,1.68-3.22a64.53,64.53,0,0,1,3.87-6.69,30.89,30.89,0,0,1,3.33-4.15c.62-.66,1.25-1.32,1.86-2a33.14,33.14,0,0,0,3-3.9,40.48,40.48,0,0,0,2.89-6.23c.23-1,.43-2,.58-3,.19-1.3.28-2.61.48-3.9a59.53,59.53,0,0,1,1.42-6.88c.18-.57.36-1.15.53-1.72a7.08,7.08,0,0,1,2.24-2.73,6.94,6.94,0,0,1,10.93,6.79c-.51,2.66-.94,5.33-1.35,8-.12.76-.22,1.52-.39,2.26a24.86,24.86,0,0,1-1.49,4.19c-.52,1.16-1.17,2.26-1.79,3.36-1.32,2.37-2.67,4.7-4.11,7a39.26,39.26,0,0,1-5.32,6.52c-1.07,1.1-2.11,2.23-3.1,3.39a39.56,39.56,0,0,0-3.28,4.56c-2.15,3.67-4.28,7.37-6.3,11.12a1,1,0,0,1,1.05.15,1.05,1.05,0,0,1,.16,1.48,14.82,14.82,0,0,0-1.66,2.42c-.38.59-.74,1.19-1.13,1.76-.78,1.13-1.54,2.25-2.34,3.35-1.68,2.29-3.4,4.52-5.18,6.73l.09-.15a15.52,15.52,0,0,0-1.19,1.94c0,.06-.05.13-.08.19l-.07.25c-.34,1.25-.69,2.49-1,3.74,0,.06,0,.12,0,.18a8.62,8.62,0,0,1-.64,2.44,5,5,0,0,1-4.07,2.91,4.26,4.26,0,0,1-.5,0A5.07,5.07,0,0,1,962.89,492.32Z"/><path class="cls-27" d="M851,370c-.8,1.53-1.52,3.11-2.21,4.71l.08-.1a5.57,5.57,0,0,1,2.65-1.87c.34-2,.83-3.93,1.21-5.87.3-1.49.55-3,.85-4.48-.75,1.42-1.51,2.84-2.25,4.27A4.63,4.63,0,0,1,851,370Zm30.43,123.91c-2.72-1.08-3.66-3.77-4.6-6.26-.57-1.51-1.15-3-1.72-4.52-1.05-2.77-2.2-5.49-3.26-8.25s-2.11-5.61-3.09-8.44c-3.09-5.28-6.47-10.39-9.5-15.71a96.39,96.39,0,0,1-4.59-8.93,80,80,0,0,1-3.46-9.82,131.74,131.74,0,0,1-4-21.13c-.39,1.55-.79,3.1-1.18,4.65-.61,2.44-1.41,4.83-2.15,7.23-.52,1.67-1.08,3.3-1.71,4.93a15.21,15.21,0,0,1-1.93,4,7.11,7.11,0,0,1-3.65,2.43,4.86,4.86,0,0,1-6.46-4,32.63,32.63,0,0,1-.52-3.41h0a6.61,6.61,0,0,1-2.85-1.36,6.88,6.88,0,0,1-1.77-2.64,5.77,5.77,0,0,1-.47-2.33,5,5,0,0,1-4.82-5.72c1.32-6.77,3.76-13.19,6.07-19.67,1.34-3.76,2.74-7.5,4.13-11.25s2.88-7.54,4.31-11.32l-.14.06a4.85,4.85,0,0,1-2.51.18q-.93,1.32-1.92,2.58a4.38,4.38,0,0,1-6.78-5.55l.87-1.29a4.73,4.73,0,0,1-.2-6.1c4-5.3,7.94-10.67,11.91-16,2.16-2.89,4.31-5.79,6.49-8.65,1-1.29,2-2.58,3-3.86l1.43-1.84c.47-.6.89-1.21,1.38-1.79a20,20,0,0,1-1.53-3.11c-.41-1.74-.83-3.48-1.24-5.22a20,20,0,0,1,1.72-10.34,32.9,32.9,0,0,1,5.71-9.13c.95-1.15,2-2.26,3-3.33,1.89-1.92,3.77-3.82,5.71-5.66,2-2.38,4-4.75,6.06-7.09a70.89,70.89,0,0,1,7.22-7.28,38.41,38.41,0,0,1,4.31-3.3,39,39,0,0,1,10.16-4.81c1.35-.39,2.76-.76,4.21-1a37.15,37.15,0,0,1,7.05-3.78,27.28,27.28,0,0,1,14.72-1.41,34,34,0,0,1,6.57,2.11c.7.27,1.38.57,2.07.88.35-.05.7-.08,1-.1a22.43,22.43,0,0,1,7.92,1.17,57.37,57.37,0,0,1,17.2,7.89,20.35,20.35,0,0,1,3.63,2.59,17.39,17.39,0,0,1,2.63,3c4.39,4.91,7.09,11,9.35,17.09.08.23.17.46.26.69l1.73,1.06a61,61,0,0,1,5.93,4,46.19,46.19,0,0,1,5.22,5.06,32.91,32.91,0,0,1,5.85,10,14.93,14.93,0,0,1,1.18,6.64,6.26,6.26,0,0,1-.1.74l0,0a7.52,7.52,0,0,1-.16,5.52c1.23,4.25,2.12,8.61,3.08,12.92,1,2.83,1.95,5.67,2.84,8.51,1.44,4.6,2.62,9.25,3.74,13.93,1.05,1.91,2.06,3.85,3.05,5.8.6,1.19,1.1,2.42,1.58,3.66a16.51,16.51,0,0,1,1,7.62,11.12,11.12,0,0,1-2.41,5.9,6.44,6.44,0,0,1-2.34,2l-2.22,1.2c-1.08.28-2.17.53-3.26.77a25.88,25.88,0,0,1-3.41-.07,11.19,11.19,0,0,1-3.14-.86,17.45,17.45,0,0,1-4.81-3,46.53,46.53,0,0,1-3.52-3.64,41.88,41.88,0,0,1-3.23-3.93,79.61,79.61,0,0,1-5.73-9.61,41.82,41.82,0,0,1-3.56-9.16,43,43,0,0,1-1.16-5.61,31.94,31.94,0,0,1,.06-6.26,13.23,13.23,0,0,1,3.18-7.66c-1.5-3.35-3.09-6.65-4.8-9.88a78.21,78.21,0,0,0-6.83-10.39c-2.88-3.6-2.56-8.77,0-12.4-.65-1.06-1.26-2.14-1.85-3.24a20.45,20.45,0,0,1-5.09,2.86,21.53,21.53,0,0,1-13.71.5,27.44,27.44,0,0,1-13.3-9,37.2,37.2,0,0,1-6.33,4.31l-.31.49c-1.63,2.55-3.54,4.87-5.31,7.31a10.18,10.18,0,0,1-1.49,2.07,9.93,9.93,0,0,1-4.68,2.82,8.51,8.51,0,0,1-6.2-.19,8.15,8.15,0,0,1-4-4c-.38.56-.76,1.11-1.15,1.66-.75,1-1.51,2.07-2.29,3.09L885.45,325c-.35.56-.69,1.13-1,1.7a36.6,36.6,0,0,1-3.16,5.13,23.42,23.42,0,0,1-5.51,5c-.09.4-.18.79-.26,1.18-.23,1.08-.5,2.15-.75,3.23q-.62,2.63-1.24,5.25c-.7,2.91-1.37,5.82-2,8.74-.47,4.05-.81,8.1-1.1,12.16-.21,3.88-.43,7.77-.59,11.66,0,2,0,3.92-.18,5.88a4.6,4.6,0,0,1-1.16,2.71l.21,1c.55,2.26,1.11,4.5,1.68,6.75,1,3.86,2.42,7.61,3.65,11.39a99.67,99.67,0,0,1,2.87,10.89,63.43,63.43,0,0,1,1.26,9.1c.34,5.56.53,11.12,1.22,16.66s1.47,11.27,2.6,16.86q.72,2.58,1.5,5.12a102.73,102.73,0,0,1,4.38,11,111.62,111.62,0,0,1,2.93,10.9c.5,2.18-1,4.75-2.68,6a6.41,6.41,0,0,1-3.79,1.22A7.6,7.6,0,0,1,881.43,493.87Z"/><path class="cls-27" d="M988.8,957.73a50.79,50.79,0,0,1-6.21-.27c-.92-.19-1.82-.39-2.72-.61-3.08-.76-6.16-1.44-9.26-2.07s-6.27-1-9.41-1.43a60,60,0,0,1-9.62-2.6c-3.21-1-6.25-3.13-9-4.93a37.1,37.1,0,0,1-6.1-4.77c-1.76-1.75-4-3.83-5.3-6.14-1.15-2.07-2.32-4.12-3.36-6.25a33,33,0,0,1-1.7-4.07c-1.93-5.7-3.93-11.38-6-17.05-2.1-5.93-4-11.93-6-17.9s-4.29-11.85-6.58-17.71c-2.21-5.69-5-11.12-7.24-16.79-1.09-2.77-1.89-5.67-2.7-8.53q-1.38-4.9-2.87-9.77c-1.86-6.17-4.36-12.19-6.76-18.18a87.93,87.93,0,0,1-4.09-11.58A134.73,134.73,0,0,1,880.89,791c-.78-6.24-1.39-12.51-2.4-18.72-2-12.22-4.52-24.36-6-36.64-.78-6.22-1.54-12.44-2.1-18.69s-1.37-12.43-1.24-18.64A109.64,109.64,0,0,1,870,684.2c.49-3.23,1.07-6.45,1.53-9.68.91-6.28,1.33-12.61,2.22-18.9s2.24-12.51,3.49-18.73c1.2-6,2.38-11.92,3.78-17.83,1.23-5.16,2.84-10.21,4.37-15.29q2.7-9,5.54-17.92c1.36-4.43,2.7-8.87,4-13.32,1.52-5.27,3.34-10.43,5.19-15.59a34.46,34.46,0,0,0,1.42-6.58c.29-3.13,3.35-5.6,6.31-5.89a7,7,0,0,1,2.81.28c.4-2.69.73-5.39,1.28-8a21.48,21.48,0,0,1,8.33-13.42,21,21,0,0,1,29.28,4.63q1.29,2.39,2.6,4.77a21,21,0,0,1,1.1,11.08c-.17,4.76-1.29,9.51-1.92,14.22-.71,5.28-1,10.58-1.69,15.86-1.13,8.88-2.15,17.76-2.65,26.7q0,10-.42,20c-.18,4.56-.49,9.13-.77,13.68,0,3.4,0,6.79.09,10.2.19,5.07.34,10.14.3,15.22-.09,11.05-.84,22.06-1.53,33.08-.05,5,0,10.06.4,15.11.53,6.88,1.16,13.76,1.81,20.63,1.18,12.38,2.41,24.79,4.79,37,1.57,8,3.43,16,4.75,24,.56,3.48,1.06,7,1.67,10.46.53,3,1.13,6.08,1.76,9.11,3.06,11.15,6.77,22.08,10.74,32.94,2.2,6,4.49,12,6.58,18.06s4,12.18,6.22,18.2c.78,2.14,1.49,4.32,2.45,6.39l3.46,7.53c3.16,5.59,6.41,11.14,9.36,16.83a75.2,75.2,0,0,1,5,11.84c1,3.2,1.74,6.47,2.48,9.73a40.75,40.75,0,0,1,1,6.31,19.43,19.43,0,0,1-7.69,17.1c-3.15,2.29-6.53,3.16-10.33,3.73Z"/><path class="cls-27" d="M1006.49,972.52c-2.4-.11-4.67-1.28-6.94-2-.59-.19-1.17-.42-1.76-.64a46.16,46.16,0,0,1-6.22-3,57.22,57.22,0,0,0-9.05-4.3c-2.67-.8-5.32-1.63-7.92-2.58-1.68-.61-3.34-1.23-5-1.83-3.33-.8-6.71-1.24-10.11-1.72-3.05-.43-6.09-1.08-9.12-1.64-5.35-1-10.69-2.08-16.1-2.58-2.86,0-5.71-.15-8.56-.28-6.6.06-13.23,1-19.78,1.68-7.22.76-14.41,1.71-21.52,3.15L880,957.84c-1.5.35-3,.75-4.52,1a97,97,0,0,1-9.92,1.08,142.32,142.32,0,0,1-23.54-.33,249.06,249.06,0,0,1-36.63-6.08c-4.54-1.17-9-2.69-13.4-4.3a55.44,55.44,0,0,1-9.36-4.39A76.8,76.8,0,0,1,776,940.5c-1.29-1-2.47-2-3.68-3.1a37.7,37.7,0,0,1-4.16-4.32l-1.62-2a19.59,19.59,0,0,1-1.88-3.23,7.18,7.18,0,0,1-.34-3.59,4.25,4.25,0,0,1,1.77-2.84,4.45,4.45,0,0,1,2.84-.82,32.91,32.91,0,0,1,4,.26c.76.06,1.52.15,2.27.22,1.41.15,2.81.26,4.22.38,1.88.16,3.76.27,5.63.36,5.7,0,11.4-.33,17.1-.36q9.23,0,18.42-.42c6.06-.25,12.1-.5,18.17-.44a171,171,0,0,0,18.66-.78c2.28-.23,4.57-.44,6.84-.74,2-.26,3.89-.56,5.82-.92,6.68-1.75,13.37-3.4,20.18-4.57,6-1,12.12-1.66,18.19-2.36,2.83-.33,5.67-.66,8.51-.9a104.31,104.31,0,0,1,14.47,0,43.32,43.32,0,0,1,13.14,3.21c2.89,1.13,5.65,2.54,8.5,3.77a72.44,72.44,0,0,0,12.49,1.46l7,.24-4.41-.15a54.18,54.18,0,0,1,12.17,1.42l4.25,1.12c2.9.78,5.81,1.4,8.75,2a67.67,67.67,0,0,1,15.61,5.71,55.93,55.93,0,0,0,5.15,2.27c1.57.35,3.15.61,4.75.81,1.64-.12,3.26-.31,4.91-.34a39.44,39.44,0,0,1,9,.52,71.57,71.57,0,0,1,8.9,2.66,17.49,17.49,0,0,1,10,18.84,17.39,17.39,0,0,1-3.7,8.12l-3.25,3.07a17.28,17.28,0,0,1-8.54,3.25c-2.44.52-4.87.94-7.36,1.23-1.17.13-2.35.23-3.51.38-1.18.41-2.35.82-3.57,1.12-2.51.6-4.41,1.12-6.75,1.48a18.11,18.11,0,0,1-2.76.19C1010.18,972.82,1008.3,972.62,1006.49,972.52Z"/><path class="cls-27" d="M827.44,933c-.94-.26-1.88-.47-2.81-.75-.58-.18-1.16-.36-1.73-.58a19,19,0,0,1-2.49-1.2c-1.59-.91-3.08-2-4.61-3a39.64,39.64,0,0,0-8.52-3.86,52.09,52.09,0,0,0-26.25-.9,28.35,28.35,0,0,0-5.87,2,5.69,5.69,0,0,0-.71.5l-.17.21,0,0,.05.07a7.72,7.72,0,0,0,.72.56,36.29,36.29,0,0,0,5.4,2.32,1.06,1.06,0,0,1,.53,1.39,1.08,1.08,0,0,1-1.4.52c-1.55-.58-3.12-1.14-4.61-1.87a14.73,14.73,0,0,1-1.63-1,4.91,4.91,0,0,1-.77-.59,3,3,0,0,1-.52-.7,3.07,3.07,0,0,1,.66-3.43,11.36,11.36,0,0,1,3.66-2.54,31,31,0,0,1,4.44-1.79,47.54,47.54,0,0,1,5.1-1.28,45.88,45.88,0,0,1,5.35-.74,58,58,0,0,1,10.46.08,47.67,47.67,0,0,1,9.45,1.89,41.22,41.22,0,0,1,4.8,1.77,35.09,35.09,0,0,1,4,2.18c1.53,1,3,2,4.5,3,.73.43,1.48.85,2.23,1.27l.62.35,1.27.76a6.89,6.89,0,0,1,.85.66,2.61,2.61,0,0,1,.72,3.07,2.66,2.66,0,0,1-.83,1,2.77,2.77,0,0,1-1.52.51A2.12,2.12,0,0,1,827.44,933Z"/><path class="cls-27" d="M1034.68,963.47a6.55,6.55,0,0,1-1.26-12.57c1.61-.69,3.2-1.42,4.82-2.07s3.48-1.2,5.24-1.72c1-.31,2.07-.61,3.11-.89a6.91,6.91,0,0,1-1.26-9.12,5.09,5.09,0,0,1-.54-1.79,6.12,6.12,0,0,1,0-.74c-5.48.06-11,.16-16.45.26l-.71,0-10.8.57c-3.3.17-6.59.42-9.89.63l-4.3.31-2.78.2a20,20,0,0,1-6.18,0,5.34,5.34,0,0,1-1.86-.84h-3.33l-9.7-.14c-3,0-6.09-.25-9.13-.38l-18.33-.78c-5.06-.08-10.12-.26-15.17-.17-5.77.09-11.54.17-17.32.36s-11.81.39-17.72.52c-2.51.05-5,.18-7.55.15l-10.28-.12c-5.42-.06-10.83-.44-16.25-.73-.95-.05-1.9-.18-2.85-.27L858,933.6c-1.34-.13-2.68-.28-4-.44a3.65,3.65,0,0,1-1.92.59c-1.15,0-2.31,0-3.46-.17l-2.63-.34c-1.11-.14-2.22-.29-3.32-.45-2.72-.41-5.44-.83-8.17-1.21l-3.72-.51h-.11a66,66,0,0,1-9.3-1.17l-.51-.1-3.8-.34c-2.39-.23-4.78-.53-7.18-.67l-10.61-.63c-4.91-.3-9.82-.5-14.74-.68l-9.5-.36-4.09-.18-1.41-.08a17.59,17.59,0,0,1-3.08-.33,4.47,4.47,0,0,1-1.81-.75,2.3,2.3,0,0,1-1.68-.12,2.51,2.51,0,0,1-1.22-3.3,4,4,0,0,1,1-1.2.85.85,0,0,1,0-.17c-.62-.17-1.24-.36-1.85-.55l-.52-.16a4.48,4.48,0,0,1-2.12-1,4.56,4.56,0,0,1-.65-6.42,18.08,18.08,0,0,1,1.57-1.46,7,7,0,0,1,3.09-1.12c.91-.16,1.82-.35,2.72-.54,1.5-.32,3-.55,4.53-.72a44.43,44.43,0,0,1,11.57.47l1.89.32.55-.11a26.51,26.51,0,0,1,5.48-.38c2.16,0,4.33.13,6.48.31,3.79.32,7.56.91,11.3,1.59l.71.13c1.79.14,3.61.23,5.38.5l1.41.21,2.37,0c3.4.06,6.78.14,10.17.27l21.69.84c4.37,0,8.75.12,13.13.06,2.38,0,4.77-.08,7.16-.14l3.08-.07c.74,0,1.47-.09,2.21-.15a14.38,14.38,0,0,1,2,.13,5.36,5.36,0,0,1,2.46,1.2,4.57,4.57,0,0,1,1.63,4.35,4.52,4.52,0,0,1-2.89,3.53l-1,.28a2.91,2.91,0,0,1,.26.33,4.77,4.77,0,0,1,.91,2.38,4.91,4.91,0,0,1-1.66,4.16l4.07.27c5,0,10,.26,15,.1,5.68-.18,11.37-.33,17.06-.62q8.89-.45,17.81-.78c2.56-.09,5.13-.26,7.7-.27l10.34,0c5.54,0,11.07.17,16.61.3,4.85.12,9.72.37,14.57.36l10.73,0,2.39-.05a4.55,4.55,0,0,1,2-.72c2.14-.26,4.27-.58,6.43-.7l5.68-.3c2-.1,4-.23,6-.3,1.36-.09,2.72-.18,4.07-.25,6.92-.37,13.87-.6,20.77-1.18.79-.09,1.58-.18,2.37-.21a5,5,0,0,1,3.2.93q11.71-.24,23.44-.44c1.93,0,3.87,0,5.81,0h2l12.15-2.14c5.46-1,10.93-1.81,16.39-2.71l7.25-1.18,4.06-.66c1.33-.21,2.64-.52,4-.78a19,19,0,0,1,6.68.06,5.65,5.65,0,0,1,4.63,5,5.34,5.34,0,0,1-.44,2.76l1.25.95c3.28,2.47,3.55,7.48,1.06,10.55l-.06.07a6.42,6.42,0,0,1-.76,6.76c-.28.36-.56.72-.83,1.09-.55.52-1.09,1-1.66,1.54s-1.4.78-2.11,1.16a11.59,11.59,0,0,1-1.41.58,30.06,30.06,0,0,1-3.95,1c-1.05.24-2.12.41-3.18.6s-1.87.38-2.81.58a6.63,6.63,0,0,1-1.51.81,8.53,8.53,0,0,1-1.06.5,14.26,14.26,0,0,1-1.8.53c-1,.24-2,.46-2.93.69-9.8,2.32-19.78,3.72-29.64,5.68-3.92,1-7.82,1.94-11.75,2.86a7.31,7.31,0,0,1-3.8-.63,7.53,7.53,0,0,1-1.2-.7l-1.51.28c-2.19.4-4.4.73-6.59,1.09-1.72.27-3.44.56-5.15.84-2.26.36-4.49.88-6.75,1.21a13.76,13.76,0,0,1-1.92.13A16.36,16.36,0,0,1,1034.68,963.47Z"/><path class="cls-27" d="M1127.36,950.93a6.39,6.39,0,0,1-2.48-2l-.11-.15c-.79-.08-1.58-.18-2.36-.32a7.14,7.14,0,0,1-6-6.62,3,3,0,0,1-.19-.41c-.84-2.17.22-5.17,2.6-5.87l.81-.23.35-.27a8.54,8.54,0,0,1-1.63-4.11,10.85,10.85,0,0,1,.4-4.54,11.47,11.47,0,0,1-1.77-5,11.33,11.33,0,0,1,10.06-12.3l7.49-.58,3.5-.27c1-.08,2-.18,3-.28a45.42,45.42,0,0,1,7.19,0,10.32,10.32,0,0,1,8.53,9.15h0a9.78,9.78,0,0,1,1.84,4.82,10.41,10.41,0,0,1-2.71,7.92,8.19,8.19,0,0,1-1.72,6.62,8.78,8.78,0,0,1-2.71,2.62,6.52,6.52,0,0,1,1.54,3.62,6.86,6.86,0,0,1-.59,3.52,6.52,6.52,0,0,1-3.74,3.53,23.72,23.72,0,0,1-3.73.76c-.63.06-1.31,0-2,.08s-1.56.09-2.33.16c-3.37.29-6.72.72-10.11.7-.21,0-.43,0-.64,0A6.31,6.31,0,0,1,1127.36,950.93Z"/><path class="cls-28" d="M815.43,1044.49c-2.89-.27-5.79-.53-8.68-.82-3.19-.32-6.3-.92-9.45-1.55a32,32,0,0,1-15.61-9c-2-2.1-2.92-4.62-3.74-7.34a12.84,12.84,0,0,1,0-6.16,12.5,12.5,0,0,1-.34-4.32,15.9,15.9,0,0,1,2.62-6.88,27.11,27.11,0,0,1,3-3.48c.52-.58,1-1.15,1.58-1.73,1.44-1.59,3.12-2.92,4.64-4.43s2.7-2.76,4-4.2q5.79-6.65,11.38-13.44c1.86-2.24,3.65-4.54,5.44-6.83l2.94-3.75c1-1.26,1.82-2.64,2.74-4a26.39,26.39,0,0,1,2.85-3.34,18.59,18.59,0,0,1,3.66-2.65c2.73-1.63,6.52-1.29,9.26.23a12.52,12.52,0,0,1,11.2-10c1.08-.13,2.18-.18,3.28-.21a16.05,16.05,0,0,1,10.38-.23l5.47-.11c6.23-.14,12.47-.42,18.7-.36,1.81,0,3.62.06,5.43.13,5.93-.08,11.89-.13,17.79.34a21.1,21.1,0,0,1,5.58,1.2l2.58.22,3.06.3,1.34.16c2.47.3,5.43.76,7.4,2.47a12.73,12.73,0,0,1,.44,20.8c.13.41.25.85.37,1.32a27.39,27.39,0,0,1,.56,5.64,49.38,49.38,0,0,1-.58,8.84c0,.12,0,.24-.05.36a13.2,13.2,0,0,1,2.32,2.1c2.22,2.52,3.9,6.49,3.38,9.91a85.29,85.29,0,0,1-2.8,12.41c-.77,2.49-1.54,5-2.48,7.4-2.14,5.55-5.17,11.37-10.88,14a17.38,17.38,0,0,1-7.85,1.44,12.64,12.64,0,0,1-3.91,1.63,13.44,13.44,0,0,1-6.32-.55,9.13,9.13,0,0,1-2.1-.93l-5,0c-3.43,0-6.86,0-10.28,0h-1.3c-2.06.58-4.12,1.13-6.18,1.67-11.94,3.13-24.38,2.81-36.6,3.64l1.17-.09-.54,0,1.18-.08-1.66.11-1.2.09h0l-.76,0,.75,0c-.86.1-1.73.13-2.74.19-2.64.18-5.27.34-7.92.36h-.24C820.25,1045,817.82,1044.72,815.43,1044.49Z"/><path class="cls-28" d="M1033,1039.78a61.2,61.2,0,0,1-13.26-3.4c-2.87-1.05-5.78-2.05-8.58-3.28a69.09,69.09,0,0,1-8.5-4.3c-.42-.29-.83-.6-1.22-.92-1.38-1.19-2.74-2.38-4.09-3.59a44.3,44.3,0,0,1-4.75-6.51,50.49,50.49,0,0,1-4-7.71,61.57,61.57,0,0,1-3.35-9.86c-.42-1.76-.9-3.48-1.45-5.2l-1.38-4-.67-1.92a14.06,14.06,0,0,1-.39-4.92,12.27,12.27,0,0,1,2.18-6.21,4.25,4.25,0,0,1-2.07-2.17,6.15,6.15,0,0,1-.42-4.26,5.47,5.47,0,0,1,4-3.81c2.42-.79,5.2-.34,7.73-.27,2.81.07,5.6,0,8.41,0,4.17-.33,8.31-.76,12.46-1.39,2.37-.37,4.75-.73,7.12-1.13s4.79-.7,7.16-1.27c2-.49,4-1.08,6-1.65,4.54-1.29,9.12-2.32,13.69-3.49,2.32-.6,4.62-1.3,7-1.85.47-.11,1-.15,1.43-.22a32.73,32.73,0,0,1,6.52-.32c1.92.3,3.82.71,5.71,1.11,4,.76,8,1.55,11.58,3.61a12.75,12.75,0,0,1,3.52-2.61,13.07,13.07,0,0,1,15.45,3v0c.35.46.77.83,1.11,1.31s.79,1.11,1.17,1.67l1.19,1.07a7.59,7.59,0,0,1,1.9,3.51l.18.27a11.08,11.08,0,0,1,1,1.48c.1.14.19.29.29.44h0a11.92,11.92,0,0,1,1.2,3.91c.56.75,1.14,1.47,1.76,2.17,1,1.13,2.09,2.17,3.15,3.26,2.18,2.28,4.08,4.74,6.09,7.17l.52.63.6.24a64.11,64.11,0,0,1,9.16,4.47,54.13,54.13,0,0,1,5.27,3.88,54.32,54.32,0,0,0,5.67,3.73,43.73,43.73,0,0,1,8,6.2c3.6,3.58,4.42,9.69,2.81,14.33a14.43,14.43,0,0,1-4.13,6.15l-3.08,2.07a14.33,14.33,0,0,1-7.3,1.52,18.1,18.1,0,0,1-2.12,1,28,28,0,0,1-5.63,1.74c-2.29.32-4.56.49-6.87.62-2.84.15-5.66.13-8.49.11h-3.47c-4.1,0-8.18.07-12.28.16l-3.79.25c-6,.59-12,1.26-17.95,1.78-6.25.55-12.51,1-18.71,2-2.88.48-5.73,1-8.65,1.3-2.74.25-5.44.44-8.15.44A46.25,46.25,0,0,1,1033,1039.78Z"/><path d="M914.27,434.82a52.57,52.57,0,0,1-4.92-3.28,33.86,33.86,0,0,1-3.06-2.52,17.56,17.56,0,0,1-2.67-3.29,10.76,10.76,0,0,1-1-2.31,9.78,9.78,0,0,1-.43-2.47,21.59,21.59,0,0,1,.38-4.39c.33-2.09.82-4.16,1.32-6.22s1-4.12,1.57-6.17c1-3.64,2-7.26,3-10.9.5-1.8,1-3.59,1.47-5.4.38-1.42.78-2.83,1.16-4.25a2.8,2.8,0,0,1,.09-.81c.38-1.43.81-2.85,1.11-4.29a2.84,2.84,0,0,1,5.48,0,11.57,11.57,0,0,1,.27,2.63c0,.84-.18,1.68-.28,2.51s-.21,1.6-.35,2.39L916.6,391c-.41,2.44-.91,4.87-1.39,7.3-1.06,5.4-2.1,10.8-3,16.24,0-.32.08-.63.13-.94a37.82,37.82,0,0,0-.62,6.71c0,.16.08.33.13.5s.27.46.42.68a38.08,38.08,0,0,0,4.18,3.74c.73.6,1.46,1.2,2.2,1.78l.11.09.9.7a4.49,4.49,0,0,1,1.16,2,4.46,4.46,0,0,1-4.35,5.65A4.49,4.49,0,0,1,914.27,434.82Z"/><path d="M946.76,386.56a5.62,5.62,0,0,1-1.81-.74,1.51,1.51,0,0,1-.42.05A1.93,1.93,0,0,1,943,385a4.22,4.22,0,0,1-.56-2.63,5.85,5.85,0,0,1,1.24-3.41,4.91,4.91,0,0,1,3.13-1.86,5.15,5.15,0,0,1,3.6.8,4.53,4.53,0,0,1,1.17,1.14,5.31,5.31,0,0,1,.72,1.4,3.94,3.94,0,0,1,.16,1.53,6,6,0,0,1-.6,2.14,5.39,5.39,0,0,1-.43.63,3.57,3.57,0,0,1-.62.72,5,5,0,0,1-2,1.09l-1,.15A5.05,5.05,0,0,1,946.76,386.56Z"/><path d="M892.87,374.87a1.59,1.59,0,0,1-.16.69l.28-.32a4.06,4.06,0,0,0,.25-.41l.06-.23a2.26,2.26,0,0,0,0-.26l-.09-.09-.12-.07-.21-.05h-.21A1.5,1.5,0,0,1,892.87,374.87Zm-1.93,1.63a1.61,1.61,0,0,1,.3.21c.22-.13.43-.26.65-.41a1.56,1.56,0,0,1-.57.11h-.55Zm-2.29,3.92a2.29,2.29,0,0,1-.46-3.57,2.35,2.35,0,0,1,1.45-.66l0,0a2.2,2.2,0,0,1-.84-3,4.07,4.07,0,0,1,2.81-2,4.84,4.84,0,0,1,1.78,0,3.61,3.61,0,0,1,1.79.78,3.36,3.36,0,0,1,.94,1.11,3.49,3.49,0,0,1,.31,1.56,4.43,4.43,0,0,1-.31,1.52,6.62,6.62,0,0,1-1.11,1.76,11.55,11.55,0,0,1-1.09,1.23,9.61,9.61,0,0,1-1.59,1.32,3.87,3.87,0,0,1-1.72.55h-.15A3.5,3.5,0,0,1,888.65,380.42Z"/><path d="M875.87,373.7c-.12,1.45-.29,2.91-.35,4.37s-.16,3-.18,4.53l-.05,4.56c0,2.9.08,5.8.19,8.69s.18,6,.33,8.95c.07,1.36.07,2.73.21,4.09s.27,2.75.41,4.13c.52,3.64,1.08,7.28,1.57,10.93s.93,7.39,1.38,11.09c.76,5.16,1.58,10.3,2.78,15.38q1,4.13,2.05,8.21a72.48,72.48,0,0,0,2.45,7.24c1.14,2.66,2.31,5.31,3.62,7.88.76,1.52,1.53,3,2.35,4.52a47.29,47.29,0,0,0,3,4.94,29.75,29.75,0,0,0,4.32,4.15,58.76,58.76,0,0,0,10.89,6.44,29.26,29.26,0,0,0,6,1.72,35.58,35.58,0,0,0,8,0,55,55,0,0,0,5.94-1.26,46,46,0,0,0,5-1.58,54.87,54.87,0,0,0,6.63-3.87c1.41-.92,2.76-1.91,4.1-2.94.37-.3.72-.63,1.08-.94s.75-.64,1.1-1l2.81-2.57c.82-.74,1.64-1.48,2.48-2.19l1.46-1.23a24.78,24.78,0,0,0,3-3,28,28,0,0,0,2.75-4.82,71.83,71.83,0,0,0,2.59-8.74c.53-2.17.87-4.37,1.22-6.57q.4-4.54.72-9.07c.2-2.94.47-5.88.74-8.81.25-2.76.5-5.52.64-8.29.16-3,.3-6,.52-9s.44-5.92.61-8.88.22-5.93.24-8.89-.09-5.69-.21-8.53-.37-5.42-.63-8.12c-.8-5.49-1.69-11-2.79-16.4-.58-2.86-1.27-5.69-1.83-8.56s-1.09-5.8-1.65-8.7a48.13,48.13,0,0,0-1.09-4.9c-.25-.82-.45-1.67-.77-2.47s-.52-1.35-.79-2a64.33,64.33,0,0,0-6.34-11.35c-.87-1.08-1.77-2.15-2.73-3.13l-2.19-2.24a68.58,68.58,0,0,0-5.93-5.51c-1.11-.82-2.24-1.62-3.39-2.39a38,38,0,0,0-3.43-2.16,4.4,4.4,0,0,1-2.22-3.16.29.29,0,0,1-.16,0,6.54,6.54,0,0,1-1.29-.37,13.45,13.45,0,0,0-6.24-.62,32.08,32.08,0,0,0-7.3,2.16c-2.43,1.15-4.76,2.49-7.16,3.7l-4,2.07A39.56,39.56,0,0,0,901,322.4a69.94,69.94,0,0,0-5.91,5.51c-.81.81-1.55,1.71-2.31,2.56s-1.4,1.69-2.09,2.54l-1.76,2.31c-.66.88-1.26,1.81-1.89,2.7s-1.13,1.79-1.68,2.68a43,43,0,0,0-3,5.83,87.48,87.48,0,0,0-4.21,14.18c-.72,3.18-1.3,6.38-1.84,9.59,0,0,0-.05,0-.07C876.14,371.39,876,372.54,875.87,373.7Zm38,130.55a32.58,32.58,0,0,1-6.14-2.13,42.41,42.41,0,0,1-4.53-2.25c-1.29-.74-2.62-1.44-3.85-2.27a74.52,74.52,0,0,1-6.58-4.87,27.47,27.47,0,0,1-4.25-4.57,29.61,29.61,0,0,1-2.12-3.32c-.73-1.29-1.41-2.6-2.08-3.92s-1.23-2.54-1.81-3.83c-.67-1.49-1.33-3-2-4.48s-1.31-3-1.84-4.59c-.47-1.41-.92-2.82-1.35-4.25-.87-2.89-1.46-5.87-2.12-8.81s-1.22-5.72-1.7-8.6c-.57-3.37-1-6.75-1.44-10.13-.37-3-.63-6-.93-8.92s-.69-5.94-1.07-8.91c-.19-1.47-.36-2.93-.54-4.4s-.25-2.91-.36-4.36c-.22-3-.19-6-.23-9s-.11-6-.15-8.95.1-6,.21-9,.42-5.93.73-8.88c.17-1.66.47-3.32.71-5,.2-1.37.51-2.73.77-4.09s.54-2.63.86-3.93.67-2.87,1.06-4.29c.54-1.92,1-3.85,1.65-5.75a57.59,57.59,0,0,1,4.95-11.46c.44-.77.93-1.5,1.42-2.24.38-.58.73-1.18,1.14-1.73,1-1.31,1.92-2.63,3-3.88l1.64-2c.5-.61,1.07-1.18,1.6-1.76,1-1.1,2.06-2.14,3.11-3.2.5-.5,1.06-.95,1.58-1.42s1-.86,1.46-1.25l1.86-1.46a21.81,21.81,0,0,1,5.45-3.1c1.56-.62,3.15-1.18,4.71-1.77l4-1.52c1.2-.47,2.4-1,3.61-1.43s2.72-.93,4.1-1.33a32.59,32.59,0,0,1,5.79-1.14,20,20,0,0,1,4.7.19,18.14,18.14,0,0,1,2.26.55c.41.13.81.29,1.23.39a4.61,4.61,0,0,1,3.41-4.48l1.24-.17a4.75,4.75,0,0,1,2.36.64,40.94,40.94,0,0,1,4.08,2.19,48.36,48.36,0,0,1,6.56,4.65c1.78,1.49,3.39,3.13,5,4.78.57.58,1.14,1.16,1.7,1.75a45.1,45.1,0,0,1,3.86,4.63,59.26,59.26,0,0,1,6.66,12.18c.38.86.71,1.73,1.05,2.6.25.65.53,1.3.73,2l.73,2.39c.23.75.38,1.54.56,2.3.64,2.66,1.08,5.38,1.61,8.06.62,3.11,1.29,6.21,2,9.3.6,2.66,1.12,5.35,1.53,8.05.51,3.33,1,6.67,1.36,10,.16,1.49.3,2.95.39,4.44s.15,3.14.19,4.71c.06,3.05,0,6.1,0,9.16,0,5.7-.51,11.38-1,17.05-.51,6.22-.82,12.44-1.35,18.66-.26,3-.47,6-.66,9-.1,1.54-.18,3.08-.27,4.63,0,.73-.1,1.46-.16,2.2l-.21.55a55.69,55.69,0,0,0-2.4,7.34,73.34,73.34,0,0,0-1.2,8.24,34.15,34.15,0,0,1-1.34,4.4c-.58,1.65-1.34,3.35-1.76,5.06a29.7,29.7,0,0,1-2.4,3.5,28.74,28.74,0,0,1-3.28,3.43c-1.07,1-2.13,2-3.16,3-2.09,2.06-4.14,4.16-6.39,6a87.57,87.57,0,0,1-8,5.87,25.32,25.32,0,0,1-3.2,1.82,28.44,28.44,0,0,1-5.64,2.06l-2.6.61c-1.79.42-3.61.66-5.43.9a37.44,37.44,0,0,1-5.07.34A40.63,40.63,0,0,1,913.9,504.25Z"/><path d="M921.66,555.52a6.2,6.2,0,0,1-1-.07,16.91,16.91,0,0,1-2.11-.36,11.15,11.15,0,0,1-1.92-.77c-.46-.22-.92-.46-1.37-.69-1.45-.75-2.84-1.61-4.31-2.31a14.85,14.85,0,0,0-2.07-.6,10.74,10.74,0,0,0-1.39,0,11.28,11.28,0,0,0-1.13.34c-.9.44-1.75,1-2.62,1.5-.39.23-.77.48-1.16.72a22.22,22.22,0,0,1-3.68,1.64,8.66,8.66,0,0,1-2.39.3,10.17,10.17,0,0,1-1.89-.23,5,5,0,0,1-2-.94c-3.79-2.75-4.83-7.57-7.36-11.28-.24-.28-.49-.55-.76-.81a18,18,0,0,1-3.51,1.69,4.48,4.48,0,0,1-3.37-.32,5,5,0,0,1-1.3-1.08l-.54-.69c-.18-.41-.35-.82-.5-1.24a9.57,9.57,0,0,1-.3-1.2c-.08-.29-.16-.58-.25-.87-.27-.91-.54-1.81-.87-2.7-.07-.16-.16-.32-.24-.47-1.15,1.12-2.22,2.33-3.32,3.5a13.58,13.58,0,0,1-2.62,2.28c-.4.19-.8.36-1.21.52a4.46,4.46,0,0,1-1.73.35l-1.27-.16a4.42,4.42,0,0,1-1.79-1.09,5.35,5.35,0,0,1-1.09-1.72,10.14,10.14,0,0,1-.47-1.19,8.28,8.28,0,0,1-.21-1.21c-.09-.71-.25-1.42-.38-2.12a35.69,35.69,0,0,0-1.6-6.3,11.29,11.29,0,0,0-.93-1.58l-.2-.21-.27-.15-.17,0a.29.29,0,0,1-.1,0c-.3.16-.58.32-.87.5-1.32,1.11-2.51,2.38-3.81,3.51a17.72,17.72,0,0,1-2.57,1.92,13.28,13.28,0,0,1-1.58.73,6.55,6.55,0,0,1-2.17.55,5.7,5.7,0,0,1-3.11-.67,5.22,5.22,0,0,1-2.14-2.15c-1.11-2.1-.94-4.62-.87-6.91s.31-4.78.49-7.17L840,511c.22-2.93.45-5.86.61-8.79s.37-6.07.47-9.11c.18-5.83.51-11.67-.17-17.47a14.8,14.8,0,0,0-.74-2.8,7.89,7.89,0,0,0-.44-.81l-.12,0c-.57.18-1.12.36-1.68.56A6.44,6.44,0,0,1,836,473a4,4,0,0,1-2-.43,3.23,3.23,0,0,1-1.42-1.24c-.13-.3-.26-.59-.38-.89s-.11-.66-.15-1c0-.55-.05-1.1-.05-1.65,0-.73.09-1.46.11-2.19q.11-3.25.15-6.51c0-2,0-3.92,0-5.89a95.89,95.89,0,0,0-.54-9.88c-.14-1-.3-2-.5-2.95a17.25,17.25,0,0,0-.93-3.07,11.08,11.08,0,0,0-.85-1.55,6.2,6.2,0,0,0-.45-.44c-.19-.11-.38-.22-.58-.32l-.07,0a5.68,5.68,0,0,0-.92,0,7.32,7.32,0,0,1-2.87.19,5.15,5.15,0,0,1-1.26-.46,3.1,3.1,0,0,1-1-1.09,8.33,8.33,0,0,1-.51-1.28,4.89,4.89,0,0,1-.11-1.38c0-.42.1-.87.15-1.29.09-.68.22-1.35.36-2,.18-.85.4-1.7.61-2.54.16-.65.29-1.3.48-1.93.54-1.81,1.07-3.62,1.61-5.43.36-1.21.79-2.4,1.19-3.6,2-5.94,4.06-11.85,6-17.81q.79-2.42,1.6-4.85c.36-1.12.71-2.26,1.06-3.39s.62-2.1.89-3.16c.19-.77.4-1.53.57-2.31l-1,.67c-.67.43-1.35.84-2,1.26-1.26.79-2.55,1.54-3.87,2.22a20.75,20.75,0,0,1-5.63,2.18,3.92,3.92,0,0,1-2.55-.25,4.52,4.52,0,0,1-1.63-1.65,3.72,3.72,0,0,1-.38-2.47,27.58,27.58,0,0,1,.7-3.12c.58-2.1,1.38-4.15,2.1-6.2.43-1.23.85-2.45,1.37-3.65l2.51-5.87c1.25-2.91,2.81-5.68,4.26-8.49.41-.78.79-1.58,1.24-2.33l2.77-4.6c1.39-2.32,2.8-4.62,4.26-6.9,1.56-2.45,3.1-4.9,4.7-7.32l3.21-4.85c.52-.79,1-1.57,1.58-2.35l.76-1.12-.27.15-3,1.57c-.93.49-1.88.93-2.82,1.39l-1.81.89c-.57.28-1.16.53-1.75.76a7,7,0,0,1-2,.3,1.64,1.64,0,0,1-1.57-2.07,6.58,6.58,0,0,1,.48-1.35,12.77,12.77,0,0,1,.77-1.28l.63-1c.41-.65.81-1.32,1.23-2,.82-1.24,1.6-2.5,2.46-3.71l3.26-4.62c.83-1.18,1.75-2.31,2.62-3.46s1.64-2.21,2.52-3.27l3.94-4.73c1.94-2.34,4-4.55,6.09-6.81.73-.81,1.52-1.57,2.28-2.34q1.49-1.53,3-3.05c1.26-1.3,2.58-2.54,3.89-3.8l-.21.08-1.62.57a13,13,0,0,1-3.11.54,2.07,2.07,0,0,1-2.07-2.07,3.48,3.48,0,0,1,.57-2,7.23,7.23,0,0,1,1.23-1.18l1.61-1.44c1-.87,2-1.71,3-2.51a87.25,87.25,0,0,1,17.87-10.66c6.31-2.85,13-5.17,19.89-5.81a23.73,23.73,0,0,1,10,1.13,10,10,0,0,1,3.74,2.24,4.44,4.44,0,0,1,1,1.7,3.48,3.48,0,0,1,.07,1.16c0,.32-.08.64-.13,1,0,.14,0,.28,0,.43a1.37,1.37,0,0,1-1.34,1.34,1.34,1.34,0,0,1-1.35-1.34l.15-1.13a5.27,5.27,0,0,0,0-.79.88.88,0,0,0-.05-.15,3,3,0,0,0-.39-.57l.21.27a4.26,4.26,0,0,0-.43-.42,12.74,12.74,0,0,0-1.84-1,18.68,18.68,0,0,0-4.05-1,27.92,27.92,0,0,0-6.46.08,55.86,55.86,0,0,0-13.15,3.83,88.91,88.91,0,0,0-19.25,11.05c-.79.62-1.59,1.24-2.33,1.91h0l.28-.09,2.17-.66a5.13,5.13,0,0,1,1.68-.34,2.31,2.31,0,0,1,2.11,1.81,2.72,2.72,0,0,1-.8,2.48c-.63.66-1.27,1.31-1.92,2-.83.81-1.7,1.6-2.54,2.4q-1.91,1.8-3.8,3.61c-1.23,1.16-2.38,2.4-3.57,3.6-.81.83-1.63,1.65-2.41,2.51-1.39,1.52-2.77,3.05-4.16,4.58-.84.91-1.61,1.88-2.41,2.83L851.52,313l-3.46,4.52c-1,1.34-2,2.73-3,4.1s-2.07,3-3.08,4.48l-1.15,1.71c-.14.23-.3.46-.45.69,1.46-.69,2.9-1.42,4.33-2.16l2.62-1.37,1.56-.84c.39-.21.75-.44,1.14-.65a5.54,5.54,0,0,1,2-.52,1.51,1.51,0,0,1,1.32.76,1.62,1.62,0,0,1,0,1.54c-.41.86-.79,1.72-1.27,2.55s-1.14,1.79-1.74,2.66-1.13,1.66-1.68,2.5l-3.48,5.29c-1.74,2.64-3.4,5.34-5.09,8s-3.13,5.2-4.67,7.81c-.58,1-1.24,2-1.76,3l-2.5,5-1.92,3.81-3.25,7.86c-.17.4-.29.83-.43,1.25-.34,1-.69,2-1,3.07-.22.64-.44,1.29-.65,1.93a36.62,36.62,0,0,0-1.28,5.05,2,2,0,0,0,0,.25l0,.05,0,0h.07a15.75,15.75,0,0,0,2.34-.7,59.31,59.31,0,0,0,7.23-4l1.5-.94,1-.6c.4-.26.78-.53,1.2-.76a5.37,5.37,0,0,1,1.34-.43,1.9,1.9,0,0,1,2.31,1.31c.1.41.22.81.32,1.22a5.2,5.2,0,0,1,.09,1.42,14.16,14.16,0,0,1-.57,3.08c-.59,2.28-1.23,4.54-1.94,6.79-.5,1.62-1,3.24-1.55,4.85q-1.44,4.48-2.93,8.95t-2.91,8.91c-.44,1.37-.94,2.72-1.32,4.1l-1.48,5.38c-.19.68-.32,1.37-.47,2.05-.25,1.2-.5,2.39-.69,3.59a11.71,11.71,0,0,0-.09,1.18,7.24,7.24,0,0,1,3.64.09,6.82,6.82,0,0,1,3.25,2.47,15.54,15.54,0,0,1,1.84,3.91,28.84,28.84,0,0,1,1.07,5.11,94.8,94.8,0,0,1,.81,11.67c.09,2.31.09,4.61.1,6.92,0,.95,0,1.88,0,2.82,0,1.22,0,2.47,0,3.7l1-.38a5.53,5.53,0,0,1,3.07-.15,4.89,4.89,0,0,1,1.36.48,7.77,7.77,0,0,1,1.13.85,6.32,6.32,0,0,1,.91,1.2,9.87,9.87,0,0,1,.85,1.8A16.33,16.33,0,0,1,846,474c.19,1.07.29,2.16.38,3.23.21,2.39.29,4.77.3,7.18,0,1.86-.06,3.72-.1,5.57,0,1.36,0,2.72-.09,4.08q-.37,9.38-.89,18.73c-.1,1.86-.21,3.72-.31,5.58l-.12,2.37a42.3,42.3,0,0,0,0,5.85l.09.39.13-.05A11.11,11.11,0,0,0,847,526c1-.8,1.94-1.65,2.89-2.5a14.93,14.93,0,0,1,3.65-2.61,7.12,7.12,0,0,1,2.31-.66,6.3,6.3,0,0,1,2.51.29,6.43,6.43,0,0,1,2.39,1.37,10.68,10.68,0,0,1,1.54,1.81,16.43,16.43,0,0,1,2,4c.47,1.24.84,2.5,1.19,3.78.15.52.28,1.05.42,1.57l1.06-1.11c.38-.39.77-.77,1.17-1.15A14.26,14.26,0,0,1,870.1,529a8.92,8.92,0,0,1,1.9-1,3.53,3.53,0,0,1,1.29-.25,4.41,4.41,0,0,1,1.7.12,7.47,7.47,0,0,1,2,.92,6.9,6.9,0,0,1,2,2.1,17.07,17.07,0,0,1,1.78,4.17c.08.26.16.51.25.76a7.67,7.67,0,0,1,3-1,6.71,6.71,0,0,1,3.56.65,9.73,9.73,0,0,1,2.5,1.93,22,22,0,0,1,3.3,4.86,49.48,49.48,0,0,0,2.68,4.56,5.73,5.73,0,0,0,.54.56,4.05,4.05,0,0,0,.47-.12c1.54-.76,2.95-1.74,4.41-2.65a18.54,18.54,0,0,1,3.26-1.51,7.51,7.51,0,0,1,1.49-.35,17.18,17.18,0,0,1,2.15-.2,13.88,13.88,0,0,1,3.74.51,18.61,18.61,0,0,1,3.39,1.32c1.67.77,3.24,1.73,4.89,2.55a9,9,0,0,0,.89.25h.33l.34-.1a12.2,12.2,0,0,0,1.48-.87c1.27-1,2.47-2.15,3.82-3.08a10.47,10.47,0,0,1,6.45-1.89,14.19,14.19,0,0,1,6.48,2.42,51.63,51.63,0,0,0,4.54,2.65,11.52,11.52,0,0,0,1.52.45h.47c.23,0,.45-.12.67-.19a6.71,6.71,0,0,0,.77-.45c1.84-1.52,3.51-3.29,5.62-4.45a12.47,12.47,0,0,1,4.76-1.23,15.17,15.17,0,0,1,5.22.61,40.65,40.65,0,0,1,6.63,2.46l3.22,1.41a23,23,0,0,0,3,1,11,11,0,0,0,1.15,0c.35-.08.69-.17,1-.28a17,17,0,0,0,2.6-1.6c.6-.46,1.2-.92,1.82-1.37a30.9,30.9,0,0,1,2.56-1.8,19.45,19.45,0,0,1,3-1.39A10.64,10.64,0,0,1,992,539a13.55,13.55,0,0,1,3.36.34,17.44,17.44,0,0,1,3.33,1.27c1,.41,1.91.87,2.85,1.35.77.4,1.57.76,2.36,1.1a22,22,0,0,0,3.43,1.08,10.25,10.25,0,0,0,0-1.11c-.49-2.62-1.36-5.13-2-7.71-.15-.62-.19-1.27-.28-1.9,0-.15,0-.29,0-.43.05-.46.11-.91.18-1.37a9.18,9.18,0,0,1,.74-1.63,4.62,4.62,0,0,1,1.59-1.58,9,9,0,0,1,1.59-.6,7.7,7.7,0,0,1,1.79-.16,10.54,10.54,0,0,1,4.15,1.14,44.12,44.12,0,0,1,6,3.52c1.37.86,2.78,1.66,4.15,2.51a4.1,4.1,0,0,1,1.45,5.54,4.06,4.06,0,0,1-2.41,1.86,3.92,3.92,0,0,1-3.12-.41c-1.12-.81-2.21-1.68-3.29-2.54a48,48,0,0,0-5-3.38c.16.59.33,1.17.5,1.75a31.22,31.22,0,0,1,1,4.87,10.07,10.07,0,0,1,0,1.9,9.2,9.2,0,0,1-.55,2.7,6.35,6.35,0,0,1-.56,1.21c-.26.35-.53.69-.81,1s-.68.56-1,.82a5.43,5.43,0,0,1-1.56.74,13.19,13.19,0,0,1-1.38.22,6,6,0,0,1-.95-.05,13.79,13.79,0,0,1-2.57-.53,41.34,41.34,0,0,1-4.47-1.67c-1.32-.57-2.61-1.2-3.93-1.79a19.12,19.12,0,0,0-3-1,11.06,11.06,0,0,0-1.41,0,9.17,9.17,0,0,0-1,.27,19.9,19.9,0,0,0-2.57,1.58c-.8.63-1.6,1.26-2.39,1.9a21.29,21.29,0,0,1-3.24,2.25,11.66,11.66,0,0,1-3.59,1.31,15,15,0,0,1-2.41.24,12.59,12.59,0,0,1-2.51-.32,18.2,18.2,0,0,1-3.42-1.18c-.79-.33-1.59-.66-2.37-1L966,550c-.91-.38-1.82-.75-2.76-1.06a21.06,21.06,0,0,0-3-.76,11.5,11.5,0,0,0-1.66,0c-.35.07-.69.16-1,.26a8.15,8.15,0,0,0-1,.65c-1.46,1.2-2.75,2.59-4.29,3.69a12.14,12.14,0,0,1-2.92,1.42,5.57,5.57,0,0,1-1.27.29,8.89,8.89,0,0,1-2.52.08,13.75,13.75,0,0,1-3.47-.84,27.86,27.86,0,0,1-3.12-1.49l-2.41-1.41a22.54,22.54,0,0,0-2.28-1.2q-.34-.12-.69-.21h-.48l-.41.11a12.91,12.91,0,0,0-1.29.77c-1.18,1-2.31,2.06-3.57,3a13.3,13.3,0,0,1-2.13,1.24,14.41,14.41,0,0,1-1.92.75,9.06,9.06,0,0,1-2.07.29Z"/><path d="M1024.6,525.14a3.79,3.79,0,0,1-1.15-2.78c.11-1.32.29-2.64.52-3.94a9.46,9.46,0,0,1,1.35-3.56,5.51,5.51,0,0,1,1.72-1.71l.23-.12c-.44-1.38-.92-2.75-1.4-4.13-.26-.78-.61-1.55-.92-2.32l-1-2.35-1.68-3.68c-.21-.48-.43-.95-.65-1.43a29.72,29.72,0,0,1-2.17-5.52,15.94,15.94,0,0,1-.4-2.83c.07-.51.14-1,.2-1.51a5.32,5.32,0,0,1,1.23-2.18l1.13-.87a5.4,5.4,0,0,1,1.82-.63,4.44,4.44,0,0,1,1.62-.13,11.53,11.53,0,0,1,2.1.36c1.64.37,3.26.78,4.9,1.12a44.75,44.75,0,0,0-2.1-8q-.88-2.42-1.79-4.82c-.47-1.27-1-2.52-1.51-3.79-.34-.87-.64-1.76-1-2.64a18.72,18.72,0,0,1-.89-3.28,19,19,0,0,1-.34-3.09c.07-.56.15-1.11.23-1.67,0-.13.1-.25.14-.38a4.77,4.77,0,0,1,1.21-2.07,3.75,3.75,0,0,1,1.22-1.05,7.88,7.88,0,0,1,.69-.41c-.16-.61-.31-1.23-.52-1.82-.54-1.55-1.09-3.09-1.63-4.64-.41-.94-.81-1.89-1.21-2.84s-.83-2-1.3-3c-1.22-2.51-2.43-5-3.68-7.54s-2.51-5-3.71-7.52c-.74-1.56-1.49-3.12-2.23-4.69-.59-1.24-1.18-2.49-1.72-3.75a16.85,16.85,0,0,1-1.76-5.7c-.56-1.14-1.23-2.25-1.86-3.35s-1.42-2.44-2.13-3.65c-1.35-2.28-2.6-4.6-3.81-7s-2.38-4.81-3.55-7.23c-.84-1.74-1.62-3.51-2.32-5.31-.31-.82-.58-1.67-.83-2.51a18.39,18.39,0,0,1-.55-3.05,8.26,8.26,0,0,1,1.18-5.58,6.33,6.33,0,0,1,2.38-2.16l.37-.17c-.26-.47-.52-.93-.79-1.39q-1.19-2-2.39-4c-1.62-2.69-3.21-5.41-4.94-8-2-3-4-5.91-6-8.83-.92-1.33-1.79-2.69-2.69-4-.31-.47-.65-.92-1-1.37l-.26-.4q-.27-.6-.51-1.2a3.94,3.94,0,0,1,.89-3.93,3.83,3.83,0,0,1,1.66-1.05,4.11,4.11,0,0,1,2.06,0c.36.12.71.27,1.06.42.52.18,1.06.32,1.59.48.74.22,1.48.41,2.22.56a69.16,69.16,0,0,0-2.67-8,121.15,121.15,0,0,0-8.75-15.65c-1.58-2.53-3.17-5.05-4.73-7.59s-3.27-5.24-4.84-7.89l-2.82-4.81a64.2,64.2,0,0,0-3.6-5.74,14.32,14.32,0,0,0-1.69-1.79c-.53-.32-1.06-.6-1.57-.95l-1.35-1c-1.4-1-2.8-2-4.13-3.09a90.15,90.15,0,0,1-6.53-6.29c-1-1-2-2-3.07-3s-2.39-2.12-3.64-3.11a22.73,22.73,0,0,0-4.77-2.83,14.94,14.94,0,0,0-2.78-.79,12.71,12.71,0,0,0-2.39,0,8.06,8.06,0,0,0-3.86,1.55,7.32,7.32,0,0,0-.89.87l-.15.25a1.22,1.22,0,0,1-1.37,1.76,2.31,2.31,0,0,1-.74-.44,1.72,1.72,0,0,1-.51-1.52,3.24,3.24,0,0,1,.81-1.79,8.05,8.05,0,0,1,1.86-1.68,10.87,10.87,0,0,1,5.22-1.73,12,12,0,0,1,5.61.95,21.84,21.84,0,0,1,5,2.86,52.74,52.74,0,0,1,4.46,3.73c3,2.75,5.65,5.78,8.81,8.32a33.77,33.77,0,0,0,6.38,3.68,14,14,0,0,1,1.32.54,8.44,8.44,0,0,1,2.41,1.92,31.34,31.34,0,0,1,3.73,5.14l3.06,4.92c1.85,3,3.78,5.87,5.69,8.79s3.71,5.57,5.57,8.35c1.49,2.22,3,4.44,4.41,6.69A72.79,72.79,0,0,1,994.1,335c.5,1.3.93,2.64,1.39,4,.25.75.51,1.5.75,2.26.44,1.44,1,3,.13,4.4a5.1,5.1,0,0,1-3.4,2.45,7.2,7.2,0,0,1-2.45,0h-.07c.87,1.3,1.77,2.58,2.65,3.86,1.73,2.51,3.43,5,5,7.63,1.76,2.86,3.51,5.73,5.28,8.6.8,1.31,1.61,2.62,2.4,3.95s1.82,2.72,1.65,4.4a3.53,3.53,0,0,1-1,2.48l-.25.21a3.59,3.59,0,0,1-1.54.9,18.18,18.18,0,0,1-2.18.52c0,.28,0,.57,0,.85a23,23,0,0,0,1.26,3.87c1.31,2.94,2.9,5.77,4.38,8.63.44.84.92,1.65,1.38,2.47s1,1.86,1.57,2.76c1.32,2.11,2.65,4.2,4,6.28l1.78,2.66,1,1.43a8.14,8.14,0,0,1,.7,1.3,6.51,6.51,0,0,1,.55,1.38,4.22,4.22,0,0,1,.16,1.43,17.72,17.72,0,0,0,.66,1.85c1,2.16,2,4.26,3.09,6.37.63,1.29,1.25,2.58,1.91,3.84,1.63,3.14,3.26,6.27,4.86,9.42.69,1.37,1.45,2.72,2.08,4.13l2.5,5.61a77.11,77.11,0,0,1,3.54,10,15,15,0,0,1,.6,3.18,8.07,8.07,0,0,1-.21,2.13,5.86,5.86,0,0,1-1.46,2.44c-.41.35-.83.69-1.27,1a8.6,8.6,0,0,1-1.35.61,53.91,53.91,0,0,0,1.74,5.16c.46,1.21.89,2.42,1.32,3.63s.77,2.21,1.15,3.31a49.56,49.56,0,0,1,1.55,5.61c.25,1.14.42,2.29.59,3.44a19.66,19.66,0,0,1,.3,3.9,9.17,9.17,0,0,1-.28,1.89,6.12,6.12,0,0,1-1.53,2.52,7.07,7.07,0,0,1-1.62,1.15,7.6,7.6,0,0,1-2.39.81,9.15,9.15,0,0,1-2.27.11c-.75-.06-1.53-.2-2.28-.32-.55-.09-1.1-.2-1.65-.32l.1.25,2.08,4.81c.83,1.91,1.55,3.86,2.3,5.8.55,1.43,1,2.89,1.47,4.35.16.53.33,1.06.49,1.59a10,10,0,0,1,.63,2.9,6.84,6.84,0,0,1-.27,2,4,4,0,0,1-1,1.78,5.45,5.45,0,0,1-2.8,1.59l-.11,0c-.18.77-.3,1.55-.42,2.32,0,.26-.07.52-.1.78a3.93,3.93,0,0,1-6.58,1.74Z"/><path d="M928.35,958.15l-1-.41a4.25,4.25,0,0,1-1.48-1.47,15.16,15.16,0,0,1-1.63-2.95c-.54-1.19-1-2.42-1.44-3.65-.7-2-1.38-4.08-2.06-6.13l-4.26-13c-2.74-8.39-5.36-16.81-7.94-25.25-2.39-7.82-4.79-15.64-6.95-23.51-1.14-4.15-2.32-8.29-3.41-12.44q-2-7.73-4.06-15.46c-2-7.58-4-15.15-5.95-22.75-.78-3-1.55-6.08-2.33-9.11-.36-1.42-.76-2.83-1.08-4.26q-1.74-7.56-3.46-15.12c-.25-1.09-.53-2.18-.72-3.29-.44-2.51-.87-5-1.31-7.54l-1.5-8.67c-.2-1.14-.39-2.28-.51-3.44q-.87-8.37-1.75-16.72c-.11-1-.24-2-.28-3-.11-2.46-.21-4.93-.32-7.39-.14-3.08-.27-6.15-.41-9.23,0-1.24-.16-2.48-.15-3.72q.06-7.86.13-15.72c0-1.84,0-3.68,0-5.52,0-1.4.17-2.8.25-4.2l1-16.46c.06-1,.19-2,.3-3q.48-4.38,1-8.77.45-4.15.92-8.31c.11-1,.22-2,.37-2.94,1.29-8.73,2.55-17.46,3.9-26.18.85-5.48,1.76-10.94,2.54-16.42L887.34,614v-.07a0,0,0,0,1,0,0,0,0,0,0,0,0,0c1-8.54,2.07-17.07,3-25.61.5-4.34,1-8.66,1.6-13,.32-2.39.61-4.79,1-7.17.23-1.49.44-3,.7-4.46s.58-2.67.88-4,.9-3.44,2.69-3.53a1,1,0,0,1,1,1,1,1,0,0,1-.89,1h0l-.07,0-.05,0a3.3,3.3,0,0,0-.26.45,16.92,16.92,0,0,0-.55,2.09c-.2.91-.43,1.81-.61,2.72-.39,2-.63,3.94-.92,5.92-.51,3.9-1.07,7.8-1.51,11.71l-1.65,14.73c-.92,8.12-1.85,16.23-2.94,24.32-.62,4.61-1.2,9.22-1.86,13.81q-1.1,7.47-2.18,14.93c-1.29,8.8-2.45,17.63-3.65,26.45,0,.34-.09.69-.14,1,0-.14,0-.27,0-.39-.45,4.74-.92,9.49-1.37,14.24q-.33,3.3-.64,6.6c-.11,1.09-.11,2.19-.15,3.28q-.36,8.49-.7,17c0,.92,0,1.82,0,2.74l.09,8.24c0,2.91.07,5.82.1,8.73,0,1.1,0,2.21,0,3.32q.52,8,1,16.07l.21,3.24c0,.43,0,.86.08,1.28l.69,5.4,1.77,14q1.39,7.18,2.8,14.37c.28,1.41.49,2.85.84,4.24l1.54,6.16c.74,3,1.49,5.92,2.23,8.87.28,1.09.54,2.19.84,3.28q2.17,7.82,4.34,15.65c2.05,7.4,4.19,14.78,6.3,22.17,1.29,4.53,2.53,9.09,3.88,13.61q2.17,7.29,4.34,14.58c1.23,4.13,2.62,8.21,3.94,12.31s2.61,8,3.93,12.06q4.11,12.52,8.49,24.94c2,5.78,4,11.58,6.32,17.25.5,1.16,1,2.32,1.41,3.51a4.11,4.11,0,0,1-4,5.2A4,4,0,0,1,928.35,958.15Z"/><path d="M1010.19,966.58c-1.07,0-2.16-.1-3.22-.18l-4.23-.34c-2.21-.17-4.42-.28-6.62-.41-2-.11-4-.16-6-.22-3.45-.09-6.9-.19-10.35-.32a103.34,103.34,0,0,1-14-1.59,81.88,81.88,0,0,1-13.65-3.84c-2.14-.77-4.22-1.67-6.3-2.59a41.29,41.29,0,0,1-5.34-2.83,32.88,32.88,0,0,1-5.38-4,3.69,3.69,0,0,1,2.6-6.29,3.8,3.8,0,0,1,2.61,1.08,7.29,7.29,0,0,0,.58.53c.88.64,1.8,1.22,2.72,1.81a50.89,50.89,0,0,0,7.24,3.7,99,99,0,0,0,10.31,3.59,78,78,0,0,0,11,2.26c1.24.15,2.49.3,3.74.41,1.8.17,3.6.23,5.4.31l5.44.2,5.27.18c.83,0,1.65,0,2.48.09,2.37.16,4.76.26,7.13.47l4.69.41c.78.07,1.55.13,2.33.18a25.72,25.72,0,0,0,4.3,0,8,8,0,0,0,.84-.22l.08-.05a5.61,5.61,0,0,0,0-.71c0-.27,0-.52-.08-.78-.12-.86-.22-1.72-.37-2.56-.22-1.21-.44-2.43-.65-3.64s-.54-2.29-.81-3.43c-.21-.9-.46-1.79-.71-2.69-1.13-4.08-2.31-8.13-3.59-12.16l-2.25-7.07c-.2-.65-.45-1.28-.68-1.93-.54-1.5-1.07-3-1.61-4.52l-1.36-3.82c-.16-.45-.31-.91-.49-1.35-1-2.4-2-4.79-2.95-7.19l-2.13-5.19q-2.82-6.48-5.63-13c-.6-1.37-1.13-2.78-1.67-4.18l-3.42-8.81-1.23-3.16c-.13-.33-.27-.66-.38-1l-1.95-6.13c-1-3-1.91-6-2.87-9-.4-1.25-.85-2.5-1.19-3.76l-4.08-15.21-1.44-5.34c-.36-1.38-.65-2.79-1-4.18q-1.92-8.19-3.86-16.39c-.23-1-.41-2-.62-3l-1.74-8.81-1.62-8.2c-.19-.92-.35-1.83-.49-2.76q-1.29-8.58-2.57-17.16c-.18-1.18-.39-2.37-.51-3.56q-.35-3.22-.68-6.45-.82-7.75-1.64-15.52c-.13-1.17-.2-2.35-.3-3.52l-.75-9.12c-.31-3.74-.61-7.49-.93-11.23-.74-8.84-1.43-17.69-2.31-26.52q-1.46-14.65-3-29.31-.3-3-.61-5.91c-.16-1.55-.23-3.12-.34-4.68q-.33-4.75-.68-9.51l-.24-3.43c0-.41-.08-.84-.09-1.25q-.17-7.78-.34-15.57c-.08-3.71-.06-7.43-.05-11.15,0-4.08,0-8.16,0-12.24,0-4.85,0-9.69.14-14.53q.1-6.39.23-12.78c0-1.92.15-3.84.23-5.77,0-1,.08-1.92.11-2.88s.12-2,.21-3a17.34,17.34,0,0,1,.29-1.73,8.69,8.69,0,0,1,.6-1.45,1.14,1.14,0,0,1,1.56-.41,1.5,1.5,0,0,1,.78,1.2,1.13,1.13,0,0,1-.64,1,10.1,10.1,0,0,0-.31,1.45c-.28,3-.34,6-.46,8.93-.08,1.64-.13,3.28-.17,4.93-.09,4.32-.2,8.65-.25,13,0,4.62-.13,9.25-.14,13.88q0,8,0,16c0,3.84.14,7.67.24,11.51s.09,7.73.4,11.57q.66,8.19,1.31,16.37c.09,1.16.25,2.3.38,3.45.35,3.09.71,6.17,1.06,9.25q1.56,13.63,3.07,27.3c.42,3.82.75,7.66,1.11,11.48q.59,6,1.15,12,.62,6.44,1.21,12.86l.66,6.91c.08.95.15,1.9.27,2.85q1.3,11.07,2.6,22.12L966,782.51c.35,2.15.7,4.29,1.06,6.44.19,1.17.48,2.33.73,3.49q1.78,8.34,3.58,16.68c.19.93.43,1.86.67,2.79q1,4.2,2.12,8.41l2.17,8.56c.24,1,.47,1.9.74,2.85q2.32,8.09,4.63,16.19c.37,1.27.68,2.57,1.1,3.82q1,2.91,2,5.82,1.51,4.49,3,9c.34,1,.68,2,1,3,.12.33.22.68.35,1,2.07,5.05,4.12,10.1,6.19,15.15q2.94,6.52,5.91,13c.63,1.39,1.21,2.81,1.81,4.22q1.73,4.06,3.46,8.13c.64,1.51,1.21,3,1.78,4.56,1,2.67,2,5.33,2.95,8,.66,1.79,1.23,3.63,1.84,5.44s1.24,3.71,1.84,5.58c.69,2.15,1.39,4.29,2.06,6.45.4,1.27.79,2.55,1.18,3.82.33,1.06.58,2.14.87,3.21.53,2,.95,4.05,1.3,6.1l.27,1.59c0,.23.07.46.11.69.07.55.15,1.1.22,1.65a11.66,11.66,0,0,1-.15,2.28c0,.21-.07.43-.11.64-.18.48-.38.95-.58,1.42a11.46,11.46,0,0,1-1.33,1.62,9,9,0,0,1-1.71,1.22l-1.39.57a7.71,7.71,0,0,1-1.15.28,23.88,23.88,0,0,1-4.31.36Z"/><path d="M1150.68,773.27a3,3,0,0,1-2.19-2.88,13.44,13.44,0,0,1,.32-2c.09-.33.22-.65.33-1,.23-.66.5-1.3.75-1.95.56-1.45,1.1-2.91,1.64-4.37s1-2.85,1.49-4.28.88-2.56,1.24-3.87c.54-2,1.09-4,1.64-6,.26-1,.45-2,.64-3,.42-2.16.84-4.33,1.25-6.48.2-1,.42-2,.56-3.06q.89-6.62,1.78-13.23c.35-3.41.67-6.83,1-10.24.24-2.54.53-5.08.72-7.62q.48-6.27.94-12.54c.16-2.22.34-4.43.48-6.65q.4-6.39.8-12.77c.11-1.82.22-3.64.34-5.46,0-.55.07-1.09.08-1.62.18-7,.38-13.94.54-20.91,0-1.15,0-2.3,0-3.44,0-1.34-.06-2.68-.1-4-.08-2.67-.22-5.35-.38-8-.33-5.17-.86-10.33-1.54-15.47,0,0,0,.06,0,.09l0-.24v.1c0-.11,0-.22,0-.33v0a232.85,232.85,0,0,0-4.85-25.09c-1.06-4.16-2.23-8.29-3.54-12.38s-2.89-8.26-4.57-12.3a.77.77,0,0,0,.07.16,115,115,0,0,0-14.47-25.16l.18.24a183.34,183.34,0,0,0-13.48-15.33c-1.64-1.69-3.28-3.4-5-5l-2.55-2.41-7.28-6.84c-3.2-3-6.62-5.78-10.09-8.48l.19.14a158.36,158.36,0,0,0-14-9.6,117.72,117.72,0,0,0-15.28-7.94l.1,0c-2.23-.93-4.47-1.81-6.75-2.61l-2.47-.88c-.83-.29-1.62-.63-2.43-1a.81.81,0,0,1-.37-.9s0-.1.05-.15a.78.78,0,0,1,.55-.56h0a.84.84,0,0,1,.92.4l.26.11c1.74.73,3.57,1.3,5.36,1.92,1.47.52,2.92,1.11,4.36,1.7,2.11.85,4.18,1.78,6.22,2.77a144.91,144.91,0,0,1,23.42,14.45c1.7,1.27,3.37,2.59,5,3.92.88.71,1.74,1.42,2.6,2.14s1.46,1.19,2.15,1.83l3,2.76,8.54,7.88c1.13,1,2.2,2.14,3.29,3.22q2.6,2.57,5.12,5.21c3.15,3.31,6.2,6.73,9.1,10.27a111.63,111.63,0,0,1,14.43,23,165.3,165.3,0,0,1,9.54,25.89,227.43,227.43,0,0,1,6,27.57,244.6,244.6,0,0,1,2.6,28.35c.06,1.85.12,3.69.09,5.54l-.06,5.73q-.09,6.38-.16,12.77c0,2-.14,4.08-.24,6.12-.31,6.5-.58,13-1,19.49q-.39,6.6-.76,13.21c-.13,2.26-.31,4.52-.49,6.78q-.46,6-.94,11.91c-.06.8-.17,1.6-.27,2.4q-.37,3.36-.76,6.7l-.6,5.29c-.13,1.14-.34,2.28-.53,3.41q-.59,3.38-1.15,6.77c-.17,1-.34,2-.58,3-.57,2.31-1.15,4.62-1.72,6.93-.16.64-.38,1.27-.58,1.91l-1.08,3.52c-.53,1.72-1.13,3.41-1.72,5.11a60.22,60.22,0,0,1-2.35,5.92A2.89,2.89,0,0,1,1153,773a3,3,0,0,1-1.51.41A2.65,2.65,0,0,1,1150.68,773.27Z"/><path d="M757.11,877.9a2.25,2.25,0,0,1-1.32-1,2.24,2.24,0,0,1,0-2.24c.25-.56.5-1.13.76-1.69l.33-.81a16.72,16.72,0,0,0,.93-3.34c.26-1.32.44-2.65.65-4,.31-2,.6-4,.89-5.94l.84-6.85c.19-1.55.29-3.11.41-4.67.32-4.13.71-8.26.87-12.4q.56-14.62,1-29.26l0-.88q-.94-2.24-1.93-4.44l-1.44-3.19c-.43-.93-.92-1.84-1.37-2.76-2-3.95-4-7.84-6.08-11.75-1-1.84-1.88-3.7-2.81-5.56-.8-1.6-1.6-3.2-2.35-4.82-1.8-3.9-3.63-7.77-5.33-11.71q-1.83-4.26-3.67-8.52c-.58-1.35-1.18-2.69-1.73-4.06q-2.9-7.31-5.81-14.59c-.39-1-.75-2-1.11-2.94-1.14-3.06-2.25-6.12-3.29-9.21-2.06-6-3.78-12.21-5.23-18.43a180.15,180.15,0,0,1-3.12-18.49c-.77-6.3-1.25-12.64-1.52-19a241.93,241.93,0,0,1,1.44-38.53,156.59,156.59,0,0,1,3.28-18.49,150.37,150.37,0,0,1,5.65-18.09c1-2.77,2.19-5.49,3.37-8.21.67-1.56,1.32-3.14,2.08-4.67,1.08-2.19,2.17-4.39,3.26-6.58q2-4,4-8.09c.46-.93.91-1.87,1.4-2.78q4-7.33,8-14.68c.56-1,1.09-2.12,1.71-3.13l3.45-5.65,4.88-8,1.54-2.52c.17-.27.32-.55.5-.81l9.05-12.93c2-2.89,4.22-5.66,6.46-8.41,2-2.51,4.18-4.92,6.39-7.28a97.88,97.88,0,0,1,7.23-7,78.31,78.31,0,0,1,6.86-5.3,43,43,0,0,1,8.27-4.36,23.93,23.93,0,0,1,4-1.21,16.75,16.75,0,0,1,4.3-.28,15.68,15.68,0,0,1,4.18.79c.5.17,1,.41,1.5.63.81.35,1.62.72,2.42,1.11a1.26,1.26,0,0,1,.45,1.71,1.28,1.28,0,0,1-1.71.45c-1-.48-2-.92-3-1.36-.31-.13-.63-.24-1-.34a9.83,9.83,0,0,0-1.73-.36,18.75,18.75,0,0,0-4.17,0,25.8,25.8,0,0,0-5.15,1.52,45.66,45.66,0,0,0-4.84,2.44,49.6,49.6,0,0,0-5,3.39c-1.83,1.42-3.6,2.88-5.31,4.44s-3.45,3.34-5.11,5.08c-3.43,3.62-6.61,7.45-9.67,11.39L775,509c-.85,1.11-1.73,2.2-2.52,3.35L770.6,515l-5.37,7.74-2,2.89c-.25.35-.51.69-.73,1.06-1,1.63-2,3.27-3,4.9l-4.91,8.11-1.74,2.89c-.23.38-.49.75-.7,1.15l-7,13L742.41,562c-.22.42-.41.84-.62,1.26L740,567.07q-2.22,4.56-4.43,9.11l-1.34,2.73c-.82,1.7-1.53,3.46-2.26,5.2,0-.06.05-.11.07-.17-1.29,3.08-2.52,6.18-3.64,9.31-1.2,3.34-2.23,6.72-3.2,10.13a146,146,0,0,0-4.1,19.85,235.64,235.64,0,0,0-1.9,31.41,245.18,245.18,0,0,0,2.09,31c.54,3.9,1.18,7.79,2,11.65.81,4,1.82,8,2.93,12s2.31,7.8,3.64,11.64c.65,1.89,1.34,3.78,2,5.66.61,1.65,1.2,3.31,1.86,4.94L739.94,747l5.73,13.09c.59,1.36,1.24,2.7,1.87,4l3.39,7.17c.26.55.54,1.07.81,1.61l2.18,4.25c1,1.88,2,3.73,3,5.58s2.07,3.81,3.11,5.71,2,3.78,3,5.68v0c.17-3.64.32-7.28.52-10.92q.33-5.94.65-11.88,0-2.75,0-5.49c0-2.07,0-4.14-.06-6.21,0-1,0-2,0-2.95a31,31,0,0,1,.1-3.34,2.21,2.21,0,0,1,.6-1.47,2.1,2.1,0,0,1,1.47-.61,2.12,2.12,0,0,1,1.48.61,2.16,2.16,0,0,1,.6,1.47l.06.9c.2,3.53.35,7.07.46,10.6.07,2,.15,4,.19,6,0,2.65.09,5.29.13,7.94.06,3.73,0,7.47.07,11.2a175.1,175.1,0,0,0,.74,18.33c0,.31.1.61.16.91a7.88,7.88,0,0,0,.2.87,3.64,3.64,0,0,1,.45,1.74,2.57,2.57,0,0,1-.36,1.32,2.61,2.61,0,0,1-3.59.94,2.27,2.27,0,0,1-.64-.54q-.39,11.65-.81,23.29c-.06,1.59-.22,3.19-.34,4.78-.2,2.82-.41,5.64-.61,8.47-.13,1.82-.39,3.64-.6,5.46-.24,2.07-.49,4.14-.77,6.21l-.93,6.6c-.08.52-.15,1-.24,1.54a20.5,20.5,0,0,1-.84,3.37c-.36,1-.79,2.05-1.2,3.06-.07.18-.15.35-.22.53a2.17,2.17,0,0,1-.8.79,2.22,2.22,0,0,1-1.12.31A2.33,2.33,0,0,1,757.11,877.9Z"/><path d="M1143.51,861a3.37,3.37,0,0,1-.65-.52,2.56,2.56,0,0,1-.69-1.19,2.73,2.73,0,0,1,.28-2.09c0-.69-.08-1.38-.14-2.07-.12-1.31-.24-2.62-.38-3.94-.26-2.46-.54-4.93-.85-7.39,0,.14,0,.28.05.41q-.41-2.88-.79-5.77c-.17-1.16-.31-2.33-.51-3.49q-1-6.28-2.08-12.57c-.13-.79-.32-1.56-.49-2.35l-1.44-6.68c-.5-2.34-1-4.69-1.51-7-.16-.71-.31-1.43-.47-2.14,0-.2-.08-.4-.13-.6q-1.67-5.7-3.31-11.39-.86-3-1.72-5.92c-.19-.67-.39-1.3-.63-2l-3.42-9.23c-.13-.32-.25-.65-.37-1-1.4-2.83-2.79-5.66-4.2-8.48l-2-4.16c-.28-.55-.55-1.11-.82-1.67-.48-1-1-1.91-1.47-2.89-.19-.38-.36-.78-.52-1.19a13.47,13.47,0,0,1-.44-1.57.46.46,0,0,1,.84-.35c.66,1,1.35,1.9,2,2.87a37.22,37.22,0,0,1,1.91,3.3c1.16,2.19,2.19,4.43,3.2,6.69.41.92.83,1.83,1.2,2.76l.81,2.09q2.46,6.25,4.9,12.52c.25.64.46,1.28.67,2l1.86,6q1.71,5.53,3.43,11.09c.07.21.11.44.16.66.17.75.35,1.5.53,2.25.55,2.35,1.11,4.7,1.66,7.06q.78,3.27,1.55,6.54c.18.76.36,1.51.51,2.27q1.21,6.25,2.42,12.5c.59,3,1.11,6,1.67,9,.46,2.48,1,5,1.44,7.45.25,1.24.51,2.49.77,3.73.16.76.31,1.52.5,2.28a2.63,2.63,0,0,1,.53,2.42v0a3,3,0,0,1-.29.77,2.59,2.59,0,0,1-1.55,1.18,2.8,2.8,0,0,1-.73.1A2,2,0,0,1,1143.51,861Z"/><path d="M935.83,957.48c-3,0-5.92-.06-8.88-.12-2.37,0-4.74-.09-7.11-.22s-5-.25-7.52-.48l-9-.83-8.38-.77c-2-.18-3.92-.39-5.89-.48l-10.59-.48-3.1-.15c-.66,0-1.34,0-2,0l-10.85.29-3,.08c-.67,0-1.34.1-2,.15l-10.84.85c-4.4.34-8.8.73-13.21,1-3.83.25-7.67.28-11.51.2a107.31,107.31,0,0,1-11.47-.83,112.21,112.21,0,0,1-22.5-5.29,99.93,99.93,0,0,1-10.39-4.28,53.56,53.56,0,0,1-9.15-5.61,28.3,28.3,0,0,1-3.72-3.37,22,22,0,0,1-3.08-4.5,18.9,18.9,0,0,1-1.74-4.67,31.58,31.58,0,0,1-.6-5.48,34.4,34.4,0,0,1,.18-4.54c.13-1.51.29-3,.45-4.53s.35-3,.55-4.43.41-3,.67-4.5l1.2-6.79c.45-2.55.88-5.1,1.43-7.63.68-3.09,1.51-6.13,2.39-9.18a32.24,32.24,0,0,1,1.32-3.92,12.69,12.69,0,0,1,.93-1.84,17.89,17.89,0,0,1,1.52-1.84,1.23,1.23,0,0,1,.9-.37,1.47,1.47,0,0,1,.9.37,4.28,4.28,0,0,1,1,1.06,1.33,1.33,0,0,1-.47,1.79,1.36,1.36,0,0,1-1.43-.06l-.31.36a11.45,11.45,0,0,0-.78,1.52,56.22,56.22,0,0,0-1.79,5.7c-.59,2-1.07,4.12-1.53,6.2-.4,1.83-.74,3.66-1,5.5q-.54,3.24-1.07,6.48c-.23,1.37-.47,2.73-.66,4.1-.41,3.09-.78,6.18-1,9.29-.13,1.66-.25,3.32-.29,5a33,33,0,0,0,.27,4.55,19.48,19.48,0,0,0,1.13,4.43,22.19,22.19,0,0,0,2.48,4.2,24.37,24.37,0,0,0,3.62,3.56,55.74,55.74,0,0,0,11.77,6.66,110.09,110.09,0,0,0,27.2,7.35,119.37,119.37,0,0,0,22.76.61c4.79-.31,9.56-.84,14.34-1.29l10.87-1.05,2.65-.25c.76-.08,1.54-.07,2.3-.11l10.88-.5,2.65-.12c.8-.05,1.61,0,2.4,0l10.74.25c1.87,0,3.73.17,5.6.29l17.59,1.16c5,.33,10.1.39,15.16.41,3,0,6,0,9.07-.05a3.53,3.53,0,0,1,0,7.05Z"/><path d="M1022.22,970.4a1.18,1.18,0,0,1-1.09-.83,1.16,1.16,0,0,1,.79-1.4c1.78-.63,3.6-1.13,5.42-1.66l2.9-.84,9.56-2.67c1-.28,2-.47,3-.7l6.1-1.43,3.84-.9c.83-.19,1.69-.28,2.53-.41l11-1.81c2.4-.39,4.84-.57,7.25-.83,2.87-.31,5.74-.66,8.61-.93l10-.91c5.87-.54,11.72-1.18,17.58-1.81,2.76-.29,5.52-.7,8.27-1s5.25-.66,7.88-1c5.55-.67,11.11-1.24,16.67-1.9l3.21-.47c.62-.09,1.24-.22,1.87-.33.8-.13,1.6-.27,2.38-.47,0-.17.09-.35.13-.52,0-.54.08-1.09.12-1.63.08-1,.19-2,.26-3.07s.11-1.93.14-2.89c.06-1.63.12-3.26.17-4.89.08-2.2.14-4.39.14-6.59,0-3.22,0-6.43,0-9.65,0-1.08-.07-2.16-.12-3.23-.09-2-.22-4.08-.37-6.12-.27-3.72-.67-7.43-1.16-11.14-.68-4.93-1.47-9.85-2.42-14.74q-1.15-5.88-2.29-11.76c-1.09-5.65-2.34-11.26-3.53-16.88q-1.24-5.81-2.48-11.61a4.35,4.35,0,0,1,.42-3.2,4.12,4.12,0,0,1,5.67-1.48,4.05,4.05,0,0,1,1.91,2.47l5.22,25.25c.45,2.22.83,4.45,1.24,6.68q1,5.29,2,10.58c.49,2.67.85,5.37,1.23,8.06.63,4.38,1.19,8.78,1.55,13.19.34,4.24.51,8.49.59,12.74,0,1.37,0,2.74-.07,4.11l-.18,6.29c0,1,0,2-.09,3-.23,3.09-.45,6.18-.68,9.28-.1,1.32-.31,2.65-.48,4s-.39,2.58-.63,3.86a8.35,8.35,0,0,1-.48,1.71,6.86,6.86,0,0,1-1.14,2,3.67,3.67,0,0,1-1.36,1.11,3.08,3.08,0,0,1-1,.36,9.74,9.74,0,0,1-1.32.18l.23,0c-1.75.22-3.51.33-5.26.47-1.39.1-2.77.21-4.16.3-3.22.21-6.45.4-9.68.6-2.94.18-5.88.46-8.82.71-2.7.22-5.39.5-8.09.76-6,.59-12.1,1.07-18.15,1.56-2.55.21-5.11.36-7.66.54s-5.09.31-7.63.54c-4.76.44-9.52.85-14.28,1.31l-9.06,1.37-4.6.7c-.67.1-1.33.28-2,.43l-10.8,2.44c-.72.17-1.43.37-2.14.57l-5.9,1.62-3.78,1c-1.8.52-3.61,1-5.4,1.57a1.09,1.09,0,0,1-.94.51h-.06A3.05,3.05,0,0,1,1022.22,970.4Z"/><path d="M1062.71,1045.4c-1.43-.07-2.85-.14-4.27-.29l-7.19-.82c-3.76-.43-7.5-1-11.24-1.54l-4.43-.58c-.73-.09-1.46-.14-2.18-.21s-1.69-.19-2.52-.24c-3.42-.19-6.82-.31-10.24-.41l-5.61-.18a66.73,66.73,0,0,1-7.74-.62,8.2,8.2,0,0,1-3.76-1.84,12.76,12.76,0,0,1-2.32-2.65,33.78,33.78,0,0,1-2.11-3.52c-.91-1.63-1.89-3.22-2.87-4.81-1.51-2.46-3.25-4.78-4.9-7.15-1.76-2.53-3.59-5-5.39-7.53-1.52-2.11-2.93-4.31-4.28-6.54a45.46,45.46,0,0,1-5.42-12,58.45,58.45,0,0,1-1.37-10c-.14-1.72-.24-3.43-.26-5.15a4.31,4.31,0,0,1,4.27-4.27,4.26,4.26,0,0,1,3,1.25,4.37,4.37,0,0,1,1.26,3c.12,3,.44,6.06.81,9.06a33.41,33.41,0,0,0,1.93,7.23,84.58,84.58,0,0,0,8.28,13.87c1.61,2.27,3.26,4.52,4.84,6.81l2.92,4.25c.58.84,1.17,1.67,1.71,2.55.73,1.21,1.51,2.4,2.2,3.63.82,1.47,1.6,3,2.56,4.38l.36.4c1.14,0,2.27,0,3.41.07l2.26.1,5.37.23c3.27.13,6.54.27,9.81.52,3.68.27,7.33.83,11,1.39,3.17.48,6.32,1,9.48,1.56l-1.17-.16c3.41.45,6.81.92,10.22,1.38a136.12,136.12,0,0,0,14.13.68q4.3,0,8.61-.3l10-.6c3.32-.2,6.65-.39,10-.6,5.2-.33,10.41-.61,15.59-1.25a72.85,72.85,0,0,0,17.14-4.47,53.15,53.15,0,0,0,10.46-6,17.12,17.12,0,0,0,2.41-2.33,8.45,8.45,0,0,0,.49-.82c.09-.28.17-.57.24-.86s0-.46,0-.69a11.09,11.09,0,0,0-.45-1.62,18.44,18.44,0,0,0-1.81-3,20.12,20.12,0,0,0-2.64-2.58,99.37,99.37,0,0,0-9.61-6c-3-1.77-6.08-3.52-9.1-5.33-1.78-1.06-3.52-2.23-5.23-3.4a23.89,23.89,0,0,1-5-4.12,21.06,21.06,0,0,1-2.62-4.34q-2.51-4.92-5.17-9.74a49.07,49.07,0,0,0-4-6.07c-.71-.9-1.46-1.79-2.14-2.7a6.85,6.85,0,0,1-.92-1.37,1.87,1.87,0,0,1-.25-.92c0-.24.06-.48.11-.72a1.71,1.71,0,0,1,.82-1.06,2,2,0,0,1,1.38-.18.45.45,0,0,1,.16,0,1.73,1.73,0,0,1,1.28,1.6c1.06,1.27,2.13,2.52,3.15,3.82,1.26,1.6,2.4,3.29,3.5,5,1,1.49,1.81,3,2.71,4.57.72,1.22,1.4,2.45,2.1,3.68a48.52,48.52,0,0,0,2.76,4.59,13.85,13.85,0,0,0,2,2,115,115,0,0,0,11.77,7.33c2.86,1.63,5.8,3.15,8.65,4.81q2.52,1.47,5,3a20.72,20.72,0,0,1,8.54,9.75,10.35,10.35,0,0,1,.75,3.16,9.2,9.2,0,0,1-2.27,6.5,20.33,20.33,0,0,1-2.62,2.71,51.22,51.22,0,0,1-12.08,7.54,70,70,0,0,1-7.14,2.74,70.78,70.78,0,0,1-7.56,1.89c-2.55.52-5.12.88-7.69,1.19-1.59.21-3.19.4-4.78.53l-10.61.89-10.62.88c-5.94.52-11.86,1.08-17.83,1.18h-1.45C1067.07,1045.57,1064.89,1045.5,1062.71,1045.4Z"/><path d="M808.79,1056.23a49.92,49.92,0,0,1-11.61-2.45A48.75,48.75,0,0,1,778,1041a41.31,41.31,0,0,1-3.56-4.45,29.44,29.44,0,0,1-3-5.68,21,21,0,0,1-.87-11.76,23.16,23.16,0,0,1,2-5.6,27.93,27.93,0,0,1,3.54-5.4,46.37,46.37,0,0,1,3.7-4.11,40.52,40.52,0,0,1,3.45-3.11l3.94-3.08c1.15-.9,2.36-1.72,3.55-2.56,2.14-1.51,4.34-2.93,6.53-4.36l4-2.63c1.06-.69,2.09-1.43,3.12-2.16l1.74-1.22,3.56-2.8c.44-.36.85-.76,1.27-1.14l2.33-2.12c.43-.4.82-.85,1.23-1.27.64-.67,1.28-1.34,1.93-2,.45-.47.84-1,1.26-1.49.57-.67,1.15-1.34,1.7-2q1.53-2,2.9-4.1a39.1,39.1,0,0,0,2.57-4.77c0,.09-.08.17-.11.26l.83-2,.56-1.35c.21-.5.51-1.09,1.09-1.21a.86.86,0,0,1,1,.6,1.42,1.42,0,0,1,.06.42.84.84,0,0,1-.41.72c-.64,1.91-1.19,3.83-2,5.69a43.86,43.86,0,0,1-4.7,8.27c-.84,1.18-1.65,2.41-2.56,3.53l-1.64,2c-.35.44-.69.91-1.07,1.32l-3.23,3.45c-.3.33-.65.61-1,.91-.74.7-1.49,1.39-2.24,2.08-.92.85-1.9,1.63-2.87,2.43s-2.1,1.7-3.17,2.52l-7.58,5.74c-1.66,1.33-3.34,2.62-4.93,4-1.1,1-2.21,1.92-3.3,2.89s-2,1.9-2.94,2.89-2.07,2.28-3,3.48a30.58,30.58,0,0,0-3.36,5.56,21.15,21.15,0,0,0-1.19,4.34,14.17,14.17,0,0,0,1,7.4,28.51,28.51,0,0,0,3.13,5.23,46.33,46.33,0,0,0,7.41,7.27,38.94,38.94,0,0,0,19.18,7.9,73.91,73.91,0,0,0,18.14-.33q2.76-.39,5.51-.86c.81-.14,1.61-.26,2.41-.43l4.56-1c2.81-.58,5.63-1.13,8.43-1.75q7.89-1.74,15.8-3.42c2.81-.59,5.62-1.23,8.44-1.77l9.26-1.76c2.74-.52,5.5-1,8.25-1.46,2.53-.45,5.05-.92,7.57-1.38,2-.37,4.1-.71,6.15-1.07,1.14-.2,2.29-.32,3.43-.48s2.35-.34,3.54-.46c2.23-.23,4.45-.43,6.68-.6,1.83-.14,3.67-.28,5.5-.44l.06-.27a79,79,0,0,0,0-9c-.06-3.32-.12-6.65,0-10s.33-6.52.73-9.76a93.91,93.91,0,0,1,2-10.65c.73-3,1.59-5.9,2.44-8.84q1.54-5.38,3.11-10.78a4.2,4.2,0,0,1,8.09,2.23q-1.89,6.6-3.77,13.19a118.88,118.88,0,0,0-3.57,15.34,165.45,165.45,0,0,0-.78,23.24,36.44,36.44,0,0,1-.42,6.35c-.08.44-.17.88-.29,1.32a12.42,12.42,0,0,1-.68,1.71,7.15,7.15,0,0,1-1,1.45,4.53,4.53,0,0,1-1.29,1.14,8.4,8.4,0,0,1-3.37.93l-1.33.13-2.21.22c-2.45.23-4.9.35-7.34.56q-4,.35-7.89.82c-5.18.8-10.35,1.57-15.53,2.36-2.66.41-5.32.8-8,1.25s-5.43.86-8.12,1.38l-10.09,2c-2.38.45-4.75,1-7.12,1.47q-8.81,1.83-17.64,3.61a132.17,132.17,0,0,1-16.56,2.42c-2.2.17-4.41.27-6.61.27A55.43,55.43,0,0,1,808.79,1056.23Z"/><path d="M894,364.34a6.8,6.8,0,0,1-1.59-3l-.57-1.44c0-.08-.07-.15-.1-.22a2.1,2.1,0,0,1-2.24.73l-.17-.07a2.06,2.06,0,0,1-.64.57,2.4,2.4,0,0,1-1.12.33,2.8,2.8,0,0,1-1.14-.17,6.65,6.65,0,0,1-1.18-.55,1.75,1.75,0,0,1-.25.78,2,2,0,0,1-1.2.93,2,2,0,0,1-2.46-1.4c-.15-.55-.32-1.08-.49-1.62-.1-.35-.2-.7-.29-1.05a6.36,6.36,0,0,1-.21-1.22,4.3,4.3,0,0,1,.17-1.33,2.26,2.26,0,0,1,.58-1,2.17,2.17,0,0,1,1.59-.66,7.34,7.34,0,0,1,1,.16,3.25,3.25,0,0,1,1.31.81c.22.19.42.4.63.6l.38.34a8,8,0,0,1,.24-1.26,2.19,2.19,0,0,1,2.66-1.51,5.94,5.94,0,0,1,.79.32l.17.09,0,0a2.26,2.26,0,0,1,1-.58l.6-.08a2.34,2.34,0,0,1,1.13.31,2.69,2.69,0,0,1,.91.59,3.78,3.78,0,0,1,.84,1.5v0a1.9,1.9,0,0,1,1.67-1,2,2,0,0,1,1.83,1,2.37,2.37,0,0,1,.3.76,4.79,4.79,0,0,1,.06.92,13.16,13.16,0,0,0,.09,1.4c0,.6.07,1.21.11,1.81.08-.07.15-.15.22-.22l1.42-1.47,1-1c.31-.31.63-.6,1-.89s.65-.63,1-.91a2.28,2.28,0,0,1,1.14-.59,1.51,1.51,0,0,1,.79,0,1.93,1.93,0,0,1,.77.45,1.74,1.74,0,0,1,.5,1.29,3.18,3.18,0,0,1-.5,1.3c-.1.26-.21.51-.31.77s-.29.75-.42,1.13l.41-.45,1.11-1.25c.34-.38.68-.77,1-1.15a14.24,14.24,0,0,1,1.48-1.32.73.73,0,0,1,1.21.71,4.09,4.09,0,0,1-.28.81c-.1.24-.27.46-.39.69l-.52,1c-.27.5-.53,1-.79,1.5-.55,1-1.09,2.07-1.61,3.11a.64.64,0,1,1-1.11-.65c.34-.69.7-1.38,1.06-2.06a3,3,0,0,0-.22.28l.14-.19-.89,1.2c-.18.24-.33.5-.51.75a2.06,2.06,0,0,1-.64.64,3.94,3.94,0,0,1-.82.34,1.15,1.15,0,0,1-1.43-.81,8.62,8.62,0,0,1-.2-1.13,4.52,4.52,0,0,1,.06-1.1.11.11,0,0,0,0-.05l-.48.53c-.62.67-1.25,1.34-1.83,2l-.43.54a2.49,2.49,0,0,1-1,.64,2.79,2.79,0,0,1-.91.14,2,2,0,0,1-.91-.25,2.32,2.32,0,0,1-.3.22,1.83,1.83,0,0,1-2.22-.29Z"/><path d="M930.82,370.51a.79.79,0,0,1-.56-1c0-.15.07-.29.1-.44a15.61,15.61,0,0,0,0-3.55,10.71,10.71,0,0,0-.21-1.13l0-.08c-.38-.68-.73-1.36-1.09-2s-.62-1.26-.9-1.91c-.19-.45-.39-.9-.59-1.34-.29-.67-.5-1.36-.73-2.05a1.37,1.37,0,0,1,.63-1.54,1.38,1.38,0,0,1,1.86.49,7.36,7.36,0,0,1,.54,1.26c.29.62.59,1.22.89,1.83s.49,1,.77,1.48c.19.32.36.65.55,1q-.09-1-.18-1.92c-.1-1.11-.23-2.2-.34-3.3a2.07,2.07,0,0,1,2.06-2.07,5.4,5.4,0,0,1,.82.12,2.67,2.67,0,0,1,1.39,1.1,7.08,7.08,0,0,1,.76,1.71c.49,1.1,1,2.19,1.61,3.25.06-.36.11-.72.16-1.08.09-.65.19-1.28.29-1.92a2.24,2.24,0,0,1,.58-1,2.27,2.27,0,0,1,3.8,1c.13.52.25,1,.34,1.56,0-.11,0-.22.08-.33s.11-.48.16-.71.17-.74.27-1.1a11.26,11.26,0,0,1,.53-1.29,2.38,2.38,0,0,1,.82-.82,2.41,2.41,0,0,1,1.15-.31,2.26,2.26,0,0,1,2,1.13,9.38,9.38,0,0,1,.79,1.95,15.39,15.39,0,0,1,.29,1.65c.43-1,.89-2.07,1.4-3.07a2.29,2.29,0,0,1,1.41-1.08,2.37,2.37,0,0,1,2.29.61,5.25,5.25,0,0,1,.73.89,4.13,4.13,0,0,1,.44,1.89,7.2,7.2,0,0,1-.06,1.13,2.41,2.41,0,0,1,1.32-.92,2.46,2.46,0,0,1,1.82.24,2.78,2.78,0,0,1,1.48,2,9.8,9.8,0,0,1,.08,2l0,1.78c0,1.19,0,2.38,0,3.56a2.32,2.32,0,0,1-4.57.59c-.2.18-.41.33-.6.51a2.39,2.39,0,0,1-3.36,0,5.16,5.16,0,0,1-.77-.91,2.12,2.12,0,0,1-.33-.93c-.17.2-.33.41-.5.62a2.19,2.19,0,0,1-1.63.68,2.35,2.35,0,0,1-2-1.15,5.46,5.46,0,0,1-.51-1,2.09,2.09,0,0,1-.14.3,7.5,7.5,0,0,1-.78,1.15,2.42,2.42,0,0,1-1.36,1.05,2.21,2.21,0,0,1-1.74-.23,6.53,6.53,0,0,1-.83-.6,3.44,3.44,0,0,1-.83-1.35c-.06-.21-.11-.42-.16-.63a2.65,2.65,0,0,1-1.34.45,3.3,3.3,0,0,1-2.26-.88,6,6,0,0,1-1-1.4,4.57,4.57,0,0,1-.17.71c-.11.34-.25.66-.38,1a1.71,1.71,0,0,1-.78,1,1.77,1.77,0,0,1-1.31.18,5,5,0,0,1-.78-.24c0,.38,0,.76-.06,1.14s-.07.71-.12,1.07a2.36,2.36,0,0,1-.26.93.81.81,0,0,1-.68.39A.51.51,0,0,1,930.82,370.51Z"/><path d="M909.4,920.89c-.49-.15-1-.3-1.48-.42s-.87-.17-1.31-.24c-1.45-.16-2.9-.17-4.34-.2L899.5,920c-1.36,0-2.72-.06-4.08-.13-3.09-.14-6.17-.32-9.26-.45-1.35-.06-2.71-.08-4.07-.11-1.52,0-3,0-4.55,0h-4.37c-1.45,0-2.91,0-4.36,0l-5-.06c-.61,0-1.22,0-1.83-.07l-3.24-.13c-.47,0-.94,0-1.4-.06l-2-.14-5.66-.41-.89-.09L846,918l-4.93-.53c-.56-.06-1.11-.17-1.67-.25l-3.17-.49c-1.24-.19-2.47-.38-3.71-.6s-2.79-.53-4.2-.75l-4.49-.69-4.84-.55c-1.35-.16-2.72-.24-4.08-.35s-2.48-.21-3.72-.28l-5.84-.31q-3.9-.21-7.8-.38l-5.26-.22c-.39,0-.78,0-1.16,0h-.58l-3.17,0a57.12,57.12,0,0,0-7.61.52h0a24.17,24.17,0,0,0-2.94.55,20.21,20.21,0,0,0-2.15.61,2.78,2.78,0,0,0-.47.28l-.14.15a.41.41,0,0,1-.05.09,1.36,1.36,0,0,0-.06.29.25.25,0,0,0,0-.09,2.81,2.81,0,0,0,0,.29l0,.12,0,.06c.15.15.33.28.48.42a5.81,5.81,0,0,1,.66.74,1.72,1.72,0,0,1,.41.91.25.25,0,0,1-.5,0,1.83,1.83,0,0,0-.08-.25v0a2,2,0,0,0-.24-.37l0,.05a5.77,5.77,0,0,0-.8-.84l.06,0c-.11-.08-.24-.16-.34-.25a1.81,1.81,0,0,1-.25-.3,1.4,1.4,0,0,1-.13-.83c0-.64.65-1,1.16-1.26a19.09,19.09,0,0,1,2.1-.69,22.35,22.35,0,0,1,3.15-.68,62.2,62.2,0,0,1,6.25-.69c.75-.05,1.5-.05,2.25-.06l3.16-.07c.39,0,.79,0,1.18,0l5.47.1c2.65,0,5.3.13,7.94.21l5.7.19c1.41.05,2.82.16,4.23.24s2.54.15,3.8.25l3.17.28q.66,0,1.32.12l2.93.37c.66.09,1.33.16,2,.26l5.13.8c2.29.36,4.59.6,6.88,1l4.54.44,2.9.28,1,.08,5.51.34c1.13.08,2.26.15,3.39.17l5.27.14c.59,0,1.18,0,1.77,0l3.1,0c1.43,0,2.86-.06,4.29-.09l4.35-.09c3-.05,5.91,0,8.87,0,1.5,0,3,.07,4.49.13s3.12.12,4.69.16,3,.07,4.5.08l3,0c1.16,0,2.32,0,3.46.13.67.08,1.33.18,2,.31a16.63,16.63,0,0,1,2,.57,1.65,1.65,0,0,1,1,.75,1.7,1.7,0,0,1,.17,1.27,1.67,1.67,0,0,1-1.59,1.2A1.65,1.65,0,0,1,909.4,920.89Z"/><path d="M1053.75,928.52c-5.11,0-10.22-.28-15.33-.35-2.77,0-5.54,0-8.32,0-1.35,0-2.71,0-4.06,0l-2.38,0a.37.37,0,0,1-.55.12l-.2-.14-1.21-.05c-.36,0-.72-.06-1.08-.11a1.32,1.32,0,0,1-.62-.15l-.42-.23a.74.74,0,0,1,.18-1.35v0c.23,0,.47-.1.7-.11.42,0,.83,0,1.24-.08l1.39-.16,2.52-.26,3.57-.4c2.52-.28,5-.6,7.56-.86,2.76-.3,5.51-.56,8.27-.8s5.38-.42,8.07-.64c5-.41,10-1.1,15-1.55,2.56-.23,5.14-.4,7.71-.63s4.94-.44,7.41-.61c5.09-.35,10.19-.63,15.29-1,5.32-.36,10.63-.82,16-1.34l7.9-.75c1.38-.13,2.76-.24,4.14-.32,1.55-.1,3.12-.06,4.66-.06a4.17,4.17,0,0,1,4.13,4.13,4.13,4.13,0,0,1-1.21,2.91l-.84.65a4.08,4.08,0,0,1-2.08.56c-5.27.47-10.56.88-15.84,1.34-5,.42-9.91.87-14.89,1.12-5.19.26-10.39.51-15.6.65s-10.34.47-15.52.46q-3.79,0-7.59,0l-6.68,0Z"/><path class="cls-29" d="M916,458.69c-1.64-.74-3.49-1.8-3.54-3.84a3.54,3.54,0,0,1,.28-1.85,3.61,3.61,0,0,1,2-1.9,3.57,3.57,0,0,1,.9-.21h0a4.47,4.47,0,0,1,3,.79c.84.19,1.66.33,2.51.46a17.19,17.19,0,0,0,2.38.15h0a2.21,2.21,0,0,1,1.49-.85l.26,0a13,13,0,0,1,1.54-.16c1.06-.14,2.11-.32,3.16-.56s2.18-.64,3.26-1l1.74-.57a10.21,10.21,0,0,1,2.47-.64,2.12,2.12,0,0,1,.87.13l.13-.1a13.8,13.8,0,0,1,2.28-1.29c.38-.22.78-.44,1.19-.63.29-.62.58-1.24.91-1.84a18.06,18.06,0,0,1,1.56-2.38c.22-.28.45-.54.67-.8a19.7,19.7,0,0,0,1-2.31,10.93,10.93,0,0,0,.24-1.27c0-.32-.08-.64-.11-1s-.06-.51-.1-.77a6.69,6.69,0,0,1-.06-1.85,4.57,4.57,0,0,1,1.88-3.1,4.66,4.66,0,0,1,7.09,2.1,4.52,4.52,0,0,1,.28,1.08,10.21,10.21,0,0,1,.1,1.26c0,.71,0,1.42,0,2.12a3.13,3.13,0,0,1-.15.81c0,.25,0,.5-.07.74s-.07.51-.1.76,0,.64.08,1c.11,1.17.19,2.34.21,3.51.08,4.22-1.08,8.69-4.22,11.66a25.83,25.83,0,0,1-2,1.76,20.48,20.48,0,0,1-2.67,1.66c-.86.47-1.72.9-2.6,1.34a24.16,24.16,0,0,1-3.15,1.33,28.92,28.92,0,0,1-4.67,1.14c-.61.08-1.22.16-1.83.19s-1.33,0-2,0a6.36,6.36,0,0,1-1.44-.38l-.63.23c-.42.12-.83.22-1.25.3a2.27,2.27,0,0,1-2.51-2s0-.07,0-.1a8.29,8.29,0,0,1-2.81-1.22,2.43,2.43,0,0,1-.58-.53,17.25,17.25,0,0,1-3.93-.33,14.72,14.72,0,0,1-2.84-.92Z"/><path d="M948.91,434.74a27.33,27.33,0,0,1-.9,2.92,25,25,0,0,1-1.36,3,31.74,31.74,0,0,1-3.48,5.26,25.59,25.59,0,0,1-9.58,7.45,24.27,24.27,0,0,1-5.67,1.53,36,36,0,0,1-6,.47c-1.52,0-3,0-4.54-.12a32.8,32.8,0,0,1-4.74-.68l-.3-.06,1.71,2.09,1.72,2.07c1,1.26,2.13,2.44,3.27,3.6a22.16,22.16,0,0,0,2.34,2,26.87,26.87,0,0,0,2.48,1.6,19.55,19.55,0,0,0,4.11,1.66,17.47,17.47,0,0,0,9.44-.24,29.13,29.13,0,0,0,6.13-2.63,29.72,29.72,0,0,0,5.6-4.31,23.26,23.26,0,0,0,3.35-4.37,18.21,18.21,0,0,0,1.48-3.7,16.26,16.26,0,0,0,.41-3.67,21.93,21.93,0,0,0-.2-2.28,16.82,16.82,0,0,0-.5-2.32c-.31-1.1-.66-2.19-1-3.26s-.86-2.23-1.31-3.34c-.33-.84-.67-1.68-1-2.51s-.59-1.42-.88-2.14C949.25,433.41,949.08,434.07,948.91,434.74Zm-28.09,33.89a25.65,25.65,0,0,1-2.71-1.76,24.78,24.78,0,0,1-2.25-2c-.85-.81-1.7-1.63-2.5-2.5s-1.74-2-2.61-2.94c-1.06-1.2-2.11-2.41-3.12-3.65a2.26,2.26,0,0,1,.17-2.94,4.07,4.07,0,0,1-.59-.4,2.32,2.32,0,0,1-.45-.58c-.11-.2,0-.5.06-.7a.48.48,0,0,1,.63-.27,1.81,1.81,0,0,1,.31.09.48.48,0,0,1,.26.61.75.75,0,0,1-.07.12l.25.17a7,7,0,0,0,.74.34,2.29,2.29,0,0,1,2.23.81h0l.71.2-.14,0a39.31,39.31,0,0,0,10,.91h-.16a41,41,0,0,0,4.43-.29,31.78,31.78,0,0,0,4.32-.87h0a19.89,19.89,0,0,0,2.25-.77,19.6,19.6,0,0,0,2.29-1.15,25.3,25.3,0,0,0,4.7-3.67,30.9,30.9,0,0,0,4.67-6.24l-.06.1a25.93,25.93,0,0,0,2.54-6.28l-.06.27a30.8,30.8,0,0,0,.77-4.25q.13-1.5.15-3c-.14-.43-.27-.85-.38-1.27a14.52,14.52,0,0,1-.45-1.84,5.25,5.25,0,0,1,0-1.05c0-.19.09-.39.14-.58s.15-.37.23-.55a1.44,1.44,0,0,1,2.66,0,5.86,5.86,0,0,1,.35,1.24,6.13,6.13,0,0,1,0,1.42,3,3,0,0,1,0,.31c.71,2.23,1.61,4.38,2.5,6.53s1.69,4.07,2.5,6.12a48.38,48.38,0,0,1,1.95,6.12,19.56,19.56,0,0,1,.43,6.29,18.41,18.41,0,0,1-.62,3,17.4,17.4,0,0,1-1.14,3,23.3,23.3,0,0,1-3.59,5.22A31.33,31.33,0,0,1,942,469.26a30,30,0,0,1-5.85,2,21.23,21.23,0,0,1-6.21.4,20.15,20.15,0,0,1-6.21-1.49l-.3-.13A28.5,28.5,0,0,1,920.82,468.63Z"/><path d="M922.12,465.55a.79.79,0,0,1-.22-.93,1.6,1.6,0,0,1,.71-.65,11,11,0,0,1,1.66-.69c.44-.14.87-.31,1.32-.44l2.72-.76c.89-.25,1.79-.49,2.66-.83.43-.17.88-.31,1.3-.51l1.38-.64,1.31-.73,0,0c.83-.5,1.69-1,2.48-1.54s1.78-1.31,2.66-2a40.55,40.55,0,0,1,5.42-3.13,13.92,13.92,0,0,0,2.18-1.71l1.5-1.38c1.05-.94,2.12-1.85,3.19-2.76a1.63,1.63,0,0,1,2.56,1.13,1.55,1.55,0,0,1-.35,1.21c-.92.88-1.85,1.74-2.81,2.58-.73.65-1.45,1.32-2.19,2a14.31,14.31,0,0,1-1.88,1.49,17.74,17.74,0,0,1-1.88,1c-.89.44-1.77.89-2.65,1.36-.55.3-1.07.65-1.59,1a21.48,21.48,0,0,1-2.1,1.29l.33-.17c-.32.17-.63.35-.95.51l.22-.12c-1.47.8-3,1.53-4.47,2.23-.34.16-.72.28-1.07.42s-.61.23-.93.32c-.8.24-1.6.45-2.41.64h0l-.19.05H930c-.63.14-1.27.25-1.9.36s-1.42.26-2.13.4a15.28,15.28,0,0,0-2.72.84.8.8,0,0,1-1,.27A.54.54,0,0,1,922.12,465.55Z"/><path d="M949.05,459.74c-.4-1.11-.74-2.24-1.13-3.35-.08-.23-.15-.47-.25-.7s-.27-.64-.39-1-.41-.85-.62-1.27-.49-.93-.77-1.38-.66-1.09-1-1.62c-.75-1.17-1.48-2.34-2.13-3.56v0a.43.43,0,0,1-.56.22.43.43,0,0,1-.21-.56c.07-.15.15-.29.21-.44a1,1,0,0,1,.07-.23.57.57,0,0,1,.33-.28.53.53,0,0,1,.5.09,2.06,2.06,0,0,1,.54.56c.28.38.54.79.82,1.18.56.77,1.13,1.54,1.72,2.3.45.6.92,1.21,1.35,1.83.24.34.49.67.71,1s.56.84.8,1.28l.63,1.14c.1.18.17.39.26.58s.16.35.23.53c.35.93.66,1.86,1,2.79a1.11,1.11,0,0,1,0,.84,1.06,1.06,0,0,1-.61.58,1.11,1.11,0,0,1-1.41-.62Z"/><path d="M939.29,467.52c-.21-.75-.41-1.51-.65-2.25l-.39-1.14a16.61,16.61,0,0,0-1.13-2.51.3.3,0,0,0,0,.08c-.55-1-1.18-2-1.8-2.94-.45-.69-.91-1.38-1.34-2.08a10.8,10.8,0,0,1-1.63-3.9A.7.7,0,0,1,933,452a.72.72,0,0,1,.77.62c0,.13,0,.27.07.4a9,9,0,0,0,.72,1.76,34.39,34.39,0,0,0,2.37,3.52c.46.64.91,1.28,1.38,1.92a24,24,0,0,1,3.2,6.43,1.21,1.21,0,0,1-.68,1.54,1.15,1.15,0,0,1-.91,0A1.11,1.11,0,0,1,939.29,467.52Z"/><path d="M925.45,468.34c-.58-1.75-1.07-3.53-1.57-5.31q-.4-1.39-.84-2.79a19.75,19.75,0,0,0-.9-2.24c-.26-.53-.55-1.05-.83-1.58a4.66,4.66,0,0,1-.26-.61.88.88,0,0,1,0-.64.54.54,0,0,1,.72-.28.94.94,0,0,1,.42.46c0,.1.08.21.12.31a.55.55,0,0,1,0,.31c.37.66.79,1.29,1.14,1.95s.59,1.14.84,1.73l.84,2c.27.66.52,1.32.83,2,.16.33.3.68.47,1l.44.81c.3.54.6,1.08.91,1.61a1.48,1.48,0,0,1,.25,1,1.37,1.37,0,0,1-.55.91,1.41,1.41,0,0,1-1.39.12A1.17,1.17,0,0,1,925.45,468.34Z"/></svg>