<svg id="Layer_1" data-name="Layer 1" xmlns="http://www.w3.org/2000/svg" xmlns:xlink="http://www.w3.org/1999/xlink" viewBox="0 0 1920 1080"><defs><style>.cls-1{fill:none;}.cls-2{clip-path:url(#clip-path);}.cls-3{fill:url(#linear-gradient);}.cls-4{opacity:0.8;}.cls-5{fill:#ff8f8f;}.cls-6{fill:#ffe7e7;}.cls-7{fill:#ffd6d6;}.cls-8{fill:#ffb6b6;}.cls-9{fill:#ffc4c4;}.cls-10{fill:#fcc;}.cls-11{fill:#ffdbdb;}.cls-12{fill:#ffabab;}.cls-13{fill:#ffb5b5;}</style><clipPath id="clip-path"><circle class="cls-1" cx="1486.89" cy="395.48" r="354.52"/></clipPath><linearGradient id="linear-gradient" x1="1486.98" y1="40.87" x2="1486.98" y2="605.69" gradientUnits="userSpaceOnUse"><stop offset="0" stop-color="red" stop-opacity="0.6"/><stop offset="0.11" stop-color="#f0f" stop-opacity="0.29"/><stop offset="1" stop-color="#f0f" stop-opacity="0"/></linearGradient></defs><g class="cls-2"><rect class="cls-3" x="1129.61" y="40.87" width="714.73" height="564.81"/></g><path d="M147.69,339.16a2.58,2.58,0,0,1-.79-1.92v-37a2.68,2.68,0,0,1,.79-2,2.53,2.53,0,0,1,1.92-.81,2.64,2.64,0,0,1,1.94.81,2.67,2.67,0,0,1,.82,2v37a2.57,2.57,0,0,1-.82,1.92,2.69,2.69,0,0,1-1.94.78A2.58,2.58,0,0,1,147.69,339.16Z"/><path d="M164.06,332.32v-18.6H159.8a1.13,1.13,0,0,1-1.13-1.14,1.23,1.23,0,0,1,.54-1l8.16-8a1.48,1.48,0,0,1,1-.54,1.08,1.08,0,0,1,.82.36,1.25,1.25,0,0,1,.33.84V309h6.77a2.26,2.26,0,0,1,2.34,2.34A2.3,2.3,0,0,1,178,313a2.22,2.22,0,0,1-1.68.69h-6.77v18.12c0,1.56.36,2.55,1.1,3a5.62,5.62,0,0,0,2.79.63,8.32,8.32,0,0,0,2.4-.36l.51-.12a3.37,3.37,0,0,1,.7-.06,2.15,2.15,0,0,1,1.5.63,2.07,2.07,0,0,1,.66,1.53,2.28,2.28,0,0,1-1.39,2.1,11.71,11.71,0,0,1-5,1.08Q164.06,340.24,164.06,332.32Z"/><path d="M199.76,337.54a2.29,2.29,0,0,1-1-2,2.41,2.41,0,0,1,.66-1.68,2.18,2.18,0,0,1,1.68-.72,2.64,2.64,0,0,1,1.08.24,24.25,24.25,0,0,0,3.84,1.32,17.85,17.85,0,0,0,4.32.48q6.66,0,6.66-4.26a2.27,2.27,0,0,0-1.53-2.1,31.33,31.33,0,0,0-5-1.62,45.27,45.27,0,0,1-5.85-1.74,10.29,10.29,0,0,1-4-2.73,6.94,6.94,0,0,1-1.65-4.83,8.65,8.65,0,0,1,3-6.84q3-2.64,8.67-2.64a25,25,0,0,1,8.7,1.5,2.25,2.25,0,0,1,1.29.9,2.41,2.41,0,0,1,.45,1.38,2.35,2.35,0,0,1-.69,1.68,2.27,2.27,0,0,1-1.71.72,3.37,3.37,0,0,1-.78-.12,23,23,0,0,0-6.84-1.08,9.37,9.37,0,0,0-5.07,1.17,3.49,3.49,0,0,0-1.83,3,2.77,2.77,0,0,0,1.68,2.64,24,24,0,0,0,5.22,1.62,50,50,0,0,1,5.76,1.77,9.52,9.52,0,0,1,3.81,2.73,7.41,7.41,0,0,1,1.59,5,7.93,7.93,0,0,1-3,6.36q-3,2.52-8.55,2.52A22.32,22.32,0,0,1,199.76,337.54Z"/><path d="M230.36,339.16a2.61,2.61,0,0,1-.78-1.92V298.3a2.71,2.71,0,0,1,.78-1.95,2.56,2.56,0,0,1,1.92-.81A2.67,2.67,0,0,1,235,298.3v38.94a2.56,2.56,0,0,1-.81,1.92,2.71,2.71,0,0,1-1.95.78A2.61,2.61,0,0,1,230.36,339.16Z"/><path d="M246.77,336.07q-4.11-4.17-4.11-11.73a19.56,19.56,0,0,1,1.56-7.86,13.36,13.36,0,0,1,4.8-5.82,13.79,13.79,0,0,1,8-2.22,14,14,0,0,1,7.68,2.07A13.39,13.39,0,0,1,269.6,316a17,17,0,0,1,1.68,7.53,2.62,2.62,0,0,1-2.76,2.7H248.18a9.87,9.87,0,0,0,3.12,6.54q2.64,2.34,7.38,2.34a18,18,0,0,0,4.41-.48,18.32,18.32,0,0,0,3.69-1.38,2.38,2.38,0,0,1,1.08-.24,2.41,2.41,0,0,1,1.68.66,2.18,2.18,0,0,1,.72,1.68,2.59,2.59,0,0,1-1.56,2.22,18.74,18.74,0,0,1-10.5,2.64Q250.88,340.24,246.77,336.07Zm19.11-14.25a9.61,9.61,0,0,0-1.53-4.92A8.26,8.26,0,0,0,261,314a9.15,9.15,0,0,0-8,0,8.06,8.06,0,0,0-3.3,2.91,9.79,9.79,0,0,0-1.5,4.92Z"/><path d="M280.73,336.07q-4.11-4.17-4.11-11.73a19.56,19.56,0,0,1,1.56-7.86,13.36,13.36,0,0,1,4.8-5.82,13.79,13.79,0,0,1,8-2.22,14,14,0,0,1,7.68,2.07,13.39,13.39,0,0,1,4.92,5.52,17,17,0,0,1,1.68,7.53,2.62,2.62,0,0,1-2.76,2.7H282.14a9.87,9.87,0,0,0,3.12,6.54q2.64,2.34,7.38,2.34a18,18,0,0,0,4.41-.48,18.32,18.32,0,0,0,3.69-1.38,2.38,2.38,0,0,1,1.08-.24,2.41,2.41,0,0,1,1.68.66,2.18,2.18,0,0,1,.72,1.68,2.59,2.59,0,0,1-1.56,2.22,18.74,18.74,0,0,1-10.5,2.64Q284.84,340.24,280.73,336.07Zm19.11-14.25a9.61,9.61,0,0,0-1.53-4.92A8.26,8.26,0,0,0,295,314a9.15,9.15,0,0,0-8,0,8.06,8.06,0,0,0-3.3,2.91,9.79,9.79,0,0,0-1.5,4.92Z"/><path d="M313.22,352.93a2.71,2.71,0,0,1-.78-1.95V311.44a2.66,2.66,0,0,1,2.7-2.7,2.71,2.71,0,0,1,1.95.78,2.56,2.56,0,0,1,.81,1.92V313a13.79,13.79,0,0,1,10.26-4.56,14.07,14.07,0,0,1,7,1.89,14.34,14.34,0,0,1,5.4,5.52,18.45,18.45,0,0,1,0,17,14.34,14.34,0,0,1-5.4,5.52,14.07,14.07,0,0,1-7,1.89,13.79,13.79,0,0,1-10.26-4.56V351a2.67,2.67,0,0,1-2.76,2.76A2.56,2.56,0,0,1,313.22,352.93Zm21.3-20.61q2.7-2.82,2.7-8t-2.7-8a9.43,9.43,0,0,0-7.14-2.82,11.33,11.33,0,0,0-5.19,1.23A14.82,14.82,0,0,0,317.9,318v12.6a14.82,14.82,0,0,0,4.29,3.27,11.33,11.33,0,0,0,5.19,1.23A9.43,9.43,0,0,0,334.52,332.32Z"/><path d="M349.28,337.54a2.29,2.29,0,0,1-1-2,2.41,2.41,0,0,1,.66-1.68,2.18,2.18,0,0,1,1.68-.72,2.64,2.64,0,0,1,1.08.24,24.25,24.25,0,0,0,3.84,1.32,17.85,17.85,0,0,0,4.32.48q6.66,0,6.66-4.26a2.27,2.27,0,0,0-1.53-2.1,31.33,31.33,0,0,0-5-1.62,45.27,45.27,0,0,1-5.85-1.74,10.29,10.29,0,0,1-4-2.73,6.94,6.94,0,0,1-1.65-4.83,8.65,8.65,0,0,1,3-6.84q3-2.64,8.67-2.64a25,25,0,0,1,8.7,1.5,2.25,2.25,0,0,1,1.29.9,2.41,2.41,0,0,1,.45,1.38,2.35,2.35,0,0,1-.69,1.68,2.27,2.27,0,0,1-1.71.72,3.37,3.37,0,0,1-.78-.12,23,23,0,0,0-6.84-1.08,9.37,9.37,0,0,0-5.07,1.17,3.49,3.49,0,0,0-1.83,3,2.77,2.77,0,0,0,1.68,2.64,24,24,0,0,0,5.22,1.62,50,50,0,0,1,5.76,1.77,9.52,9.52,0,0,1,3.81,2.73,7.41,7.41,0,0,1,1.59,5,7.93,7.93,0,0,1-3,6.36q-3,2.52-8.55,2.52A22.32,22.32,0,0,1,349.28,337.54Z"/><path d="M400.1,338.26a13.46,13.46,0,0,1-5.37-5.61,19.21,19.21,0,0,1,0-16.62,13.46,13.46,0,0,1,5.37-5.61,17.44,17.44,0,0,1,16.14,0,13.65,13.65,0,0,1,5.4,5.61,18.94,18.94,0,0,1,0,16.62,13.65,13.65,0,0,1-5.4,5.61,17.44,17.44,0,0,1-16.14,0Zm12.81-4.14a9.16,9.16,0,0,0,3.72-3.6,12,12,0,0,0,1.47-6.24,11.88,11.88,0,0,0-1.47-6.18,9,9,0,0,0-3.72-3.57,10.52,10.52,0,0,0-4.71-1.11,10.64,10.64,0,0,0-4.77,1.11,8.78,8.78,0,0,0-3.69,3.57,12.08,12.08,0,0,0-1.44,6.18,12.21,12.21,0,0,0,1.44,6.24,9,9,0,0,0,3.69,3.6,10.41,10.41,0,0,0,4.77,1.14A10.29,10.29,0,0,0,412.91,334.12Z"/><path d="M432,339.16a2.61,2.61,0,0,1-.78-1.92V311.5a2.71,2.71,0,0,1,.78-1.95,2.56,2.56,0,0,1,1.92-.81,2.77,2.77,0,0,1,2.76,2.76V314a19.94,19.94,0,0,1,4.92-4,12.42,12.42,0,0,1,6.24-1.5,10.37,10.37,0,0,1,5.73,1.56,10.14,10.14,0,0,1,3.72,4.26,13.6,13.6,0,0,1,1.29,5.94v17a2.56,2.56,0,0,1-.81,1.92,2.71,2.71,0,0,1-2,.78,2.66,2.66,0,0,1-2.7-2.7V320.8q0-7.32-6.6-7.32a9.55,9.55,0,0,0-5.37,1.56,19.44,19.44,0,0,0-4.47,4.2v18a2.56,2.56,0,0,1-.81,1.92,2.71,2.71,0,0,1-1.95.78A2.61,2.61,0,0,1,432,339.16Z"/><path d="M483.74,301.9a3,3,0,0,1-.9-2.16v-.24a3.07,3.07,0,0,1,3.06-3.06h.36a3.07,3.07,0,0,1,3.06,3.06v.24a3.07,3.07,0,0,1-3.06,3.06h-.36A3,3,0,0,1,483.74,301.9Zm.36,37.26a2.61,2.61,0,0,1-.78-1.92V311.5a2.71,2.71,0,0,1,.78-1.95,2.56,2.56,0,0,1,1.92-.81,2.67,2.67,0,0,1,2.76,2.76v25.74a2.56,2.56,0,0,1-.81,1.92,2.71,2.71,0,0,1-2,.78A2.61,2.61,0,0,1,484.1,339.16Z"/><path d="M500.06,332.32v-18.6H495.8a1.13,1.13,0,0,1-1.14-1.14,1.25,1.25,0,0,1,.54-1l8.16-8a1.51,1.51,0,0,1,1-.54,1.06,1.06,0,0,1,.81.36,1.2,1.2,0,0,1,.33.84V309h6.78a2.26,2.26,0,0,1,2.34,2.34A2.3,2.3,0,0,1,514,313a2.22,2.22,0,0,1-1.68.69h-6.78v18.12q0,2.34,1.11,3a5.59,5.59,0,0,0,2.79.63,8.32,8.32,0,0,0,2.4-.36l.51-.12a3.27,3.27,0,0,1,.69-.06,2.11,2.11,0,0,1,1.5.63,2,2,0,0,1,.66,1.53,2.27,2.27,0,0,1-1.38,2.1,11.74,11.74,0,0,1-5,1.08Q500.06,340.24,500.06,332.32Z"/><path d="M520.16,337.54a2.29,2.29,0,0,1-1-2,2.41,2.41,0,0,1,.66-1.68,2.18,2.18,0,0,1,1.68-.72,2.64,2.64,0,0,1,1.08.24,24.25,24.25,0,0,0,3.84,1.32,17.85,17.85,0,0,0,4.32.48q6.66,0,6.66-4.26a2.27,2.27,0,0,0-1.53-2.1,31.33,31.33,0,0,0-5-1.62,45.27,45.27,0,0,1-5.85-1.74,10.29,10.29,0,0,1-4-2.73,6.94,6.94,0,0,1-1.65-4.83,8.65,8.65,0,0,1,3-6.84q3-2.64,8.67-2.64a25,25,0,0,1,8.7,1.5,2.25,2.25,0,0,1,1.29.9,2.41,2.41,0,0,1,.45,1.38,2.35,2.35,0,0,1-.69,1.68,2.27,2.27,0,0,1-1.71.72,3.37,3.37,0,0,1-.78-.12,23,23,0,0,0-6.84-1.08,9.37,9.37,0,0,0-5.07,1.17,3.49,3.49,0,0,0-1.83,3,2.77,2.77,0,0,0,1.68,2.64,24,24,0,0,0,5.22,1.62,50,50,0,0,1,5.76,1.77,9.52,9.52,0,0,1,3.81,2.73,7.41,7.41,0,0,1,1.59,5,7.93,7.93,0,0,1-3,6.36q-3,2.52-8.55,2.52A22.32,22.32,0,0,1,520.16,337.54Z"/><path d="M571,335.68v1.56a2.56,2.56,0,0,1-.81,1.92,2.71,2.71,0,0,1-2,.78,2.66,2.66,0,0,1-2.7-2.7V298.3a2.71,2.71,0,0,1,.78-1.95,2.56,2.56,0,0,1,1.92-.81A2.67,2.67,0,0,1,571,298.3V313a13.79,13.79,0,0,1,10.26-4.56,14.07,14.07,0,0,1,7.05,1.89,14.34,14.34,0,0,1,5.4,5.52,18.45,18.45,0,0,1,0,17,14.34,14.34,0,0,1-5.4,5.52,14.07,14.07,0,0,1-7.05,1.89A13.79,13.79,0,0,1,571,335.68Zm16.62-3.36q2.7-2.82,2.7-8t-2.7-8a9.43,9.43,0,0,0-7.14-2.82,11.33,11.33,0,0,0-5.19,1.23A14.82,14.82,0,0,0,571,318v12.6a14.82,14.82,0,0,0,4.29,3.27,11.33,11.33,0,0,0,5.19,1.23A9.43,9.43,0,0,0,587.66,332.32Z"/><path d="M606.35,339.16a8.52,8.52,0,0,1-3.57-3.15,8.68,8.68,0,0,1-1.32-4.77,8.41,8.41,0,0,1,3.51-7.08q3.51-2.64,10.29-2.64h7.26V321q0-4-1.95-5.7t-6.09-1.74a20.45,20.45,0,0,0-4.05.36A34,34,0,0,0,606.5,315a3.37,3.37,0,0,1-.78.12,2.13,2.13,0,0,1-1.56-.66,2.2,2.2,0,0,1-.66-1.62,2.31,2.31,0,0,1,1.56-2.28,26.39,26.39,0,0,1,10.38-2.16,13.55,13.55,0,0,1,7,1.68,10.56,10.56,0,0,1,4.2,4.35,12.65,12.65,0,0,1,1.35,5.79v17a2.56,2.56,0,0,1-.81,1.92,2.71,2.71,0,0,1-1.95.78,2.66,2.66,0,0,1-2.7-2.7v-1.56a15.07,15.07,0,0,1-11.28,4.56A11.15,11.15,0,0,1,606.35,339.16Zm12-5a14.18,14.18,0,0,0,4.14-3.21v-5H616q-9.06,0-9.06,4.74a4.45,4.45,0,0,0,1.47,3.48q1.47,1.32,4.89,1.32A10.85,10.85,0,0,0,618.38,334.15Z"/><path d="M643.34,338.32a14.78,14.78,0,0,1-5.85-5.52,17.44,17.44,0,0,1,0-16.92,14.78,14.78,0,0,1,5.85-5.52,16.92,16.92,0,0,1,8-1.92,16.63,16.63,0,0,1,5.49.81,20.74,20.74,0,0,1,4.29,2.07,2.39,2.39,0,0,1,.51,3.75,2.11,2.11,0,0,1-1.59.75,2.74,2.74,0,0,1-1.32-.36,22.85,22.85,0,0,0-3.39-1.47,11.7,11.7,0,0,0-3.51-.45,10.88,10.88,0,0,0-8.1,3,11.9,11.9,0,0,0,0,15.66,10.88,10.88,0,0,0,8.1,3,11.7,11.7,0,0,0,3.51-.45,22.85,22.85,0,0,0,3.39-1.47,2.74,2.74,0,0,1,1.32-.36,2.11,2.11,0,0,1,1.59.75,2.39,2.39,0,0,1-.51,3.75,20.74,20.74,0,0,1-4.29,2.07,16.63,16.63,0,0,1-5.49.81A16.92,16.92,0,0,1,643.34,338.32Z"/><path d="M669.92,339.16a2.61,2.61,0,0,1-.78-1.92V298.3a2.71,2.71,0,0,1,.78-1.95,2.56,2.56,0,0,1,1.92-.81,2.77,2.77,0,0,1,2.76,2.76v24.54l14.28-13.2a2.76,2.76,0,0,1,1.8-.78,2.43,2.43,0,0,1,2,.78,2.87,2.87,0,0,1,.63,1.86,2.94,2.94,0,0,1-1,2l-8.64,7.74,10.86,14.4a2.63,2.63,0,0,1,.6,1.62,2.49,2.49,0,0,1-.78,1.92,2.81,2.81,0,0,1-2,.72,2.66,2.66,0,0,1-1.2-.3,3,3,0,0,1-1-.84l-10.32-14-5.22,4.74v7.74a2.56,2.56,0,0,1-.81,1.92,2.71,2.71,0,0,1-1.95.78A2.61,2.61,0,0,1,669.92,339.16Z"/><path d="M724.4,339.22a3.66,3.66,0,0,1-1.32-1.8l-8.52-25a3.23,3.23,0,0,1-.18-1,2.66,2.66,0,0,1,2.7-2.7,2.74,2.74,0,0,1,1.53.45,2.21,2.21,0,0,1,.93,1.17l7,23.1,7-22.56a3.08,3.08,0,0,1,5.88,0l7,22.56,7-23.1a2.21,2.21,0,0,1,.93-1.17,2.74,2.74,0,0,1,1.53-.45,2.66,2.66,0,0,1,2.7,2.7,3.23,3.23,0,0,1-.18,1l-8.52,25a3.66,3.66,0,0,1-1.32,1.8,3.6,3.6,0,0,1-4.32,0,4,4,0,0,1-1.38-1.86l-6.36-19.86-6.36,19.86a4,4,0,0,1-1.38,1.86,3.6,3.6,0,0,1-4.32,0Z"/><path d="M765.38,301.9a3,3,0,0,1-.9-2.16v-.24a3.07,3.07,0,0,1,3.06-3.06h.36A3.07,3.07,0,0,1,771,299.5v.24a3.07,3.07,0,0,1-3.06,3.06h-.36A3,3,0,0,1,765.38,301.9Zm.36,37.26a2.61,2.61,0,0,1-.78-1.92V311.5a2.71,2.71,0,0,1,.78-1.95,2.56,2.56,0,0,1,1.92-.81,2.67,2.67,0,0,1,2.76,2.76v25.74a2.56,2.56,0,0,1-.81,1.92,2.71,2.71,0,0,1-2,.78A2.61,2.61,0,0,1,765.74,339.16Z"/><path d="M781.7,332.32v-18.6h-4.26a1.13,1.13,0,0,1-1.14-1.14,1.25,1.25,0,0,1,.54-1l8.16-8a1.51,1.51,0,0,1,1-.54,1.06,1.06,0,0,1,.81.36,1.25,1.25,0,0,1,.33.84V309h6.78a2.26,2.26,0,0,1,2.34,2.34,2.3,2.3,0,0,1-.66,1.65,2.22,2.22,0,0,1-1.68.69h-6.78v18.12q0,2.34,1.11,3a5.59,5.59,0,0,0,2.79.63,8.32,8.32,0,0,0,2.4-.36L794,335a3.27,3.27,0,0,1,.69-.06,2.11,2.11,0,0,1,1.5.63,2,2,0,0,1,.66,1.53,2.27,2.27,0,0,1-1.38,2.1,11.74,11.74,0,0,1-5,1.08Q781.7,340.24,781.7,332.32Z"/><path d="M803.6,339.16a2.61,2.61,0,0,1-.78-1.92V298.3a2.71,2.71,0,0,1,.78-1.95,2.56,2.56,0,0,1,1.92-.81,2.77,2.77,0,0,1,2.76,2.76V314a19.76,19.76,0,0,1,4.92-4,12.42,12.42,0,0,1,6.24-1.5,10.4,10.4,0,0,1,5.73,1.56,10.14,10.14,0,0,1,3.72,4.26,13.6,13.6,0,0,1,1.29,5.94v17a2.56,2.56,0,0,1-.81,1.92,2.71,2.71,0,0,1-2,.78,2.66,2.66,0,0,1-2.7-2.7V320.8q0-7.32-6.6-7.32a9.55,9.55,0,0,0-5.37,1.56,19.44,19.44,0,0,0-4.47,4.2v18a2.56,2.56,0,0,1-.81,1.92,2.71,2.71,0,0,1-2,.78A2.61,2.61,0,0,1,803.6,339.16Z"/><path d="M146.25,373.9a2.92,2.92,0,0,1-.91-2.16v-.24a3.09,3.09,0,0,1,3.06-3.06h.37a3.09,3.09,0,0,1,3.06,3.06v.24a3.09,3.09,0,0,1-3.06,3.06h-.37A2.91,2.91,0,0,1,146.25,373.9Zm.36,37.26a2.57,2.57,0,0,1-.78-1.92V383.5a2.67,2.67,0,0,1,.78-1.95,2.53,2.53,0,0,1,1.92-.81,2.68,2.68,0,0,1,2.76,2.76v25.74a2.53,2.53,0,0,1-.82,1.92,2.69,2.69,0,0,1-1.94.78A2.58,2.58,0,0,1,146.61,411.16Z"/><path d="M162.56,404.32v-18.6H158.3a1.13,1.13,0,0,1-1.14-1.14,1.24,1.24,0,0,1,.55-1l8.15-8a1.51,1.51,0,0,1,1-.54,1.06,1.06,0,0,1,.81.36,1.2,1.2,0,0,1,.33.84V381h6.78a2.26,2.26,0,0,1,2.34,2.34,2.3,2.3,0,0,1-.66,1.65,2.22,2.22,0,0,1-1.68.69H168v18.12q0,2.34,1.11,3a5.59,5.59,0,0,0,2.79.63,8.32,8.32,0,0,0,2.4-.36l.51-.12a3.27,3.27,0,0,1,.69-.06,2.11,2.11,0,0,1,1.5.63,2,2,0,0,1,.66,1.53,2.27,2.27,0,0,1-1.38,2.1,11.74,11.74,0,0,1-5,1.08Q162.56,412.24,162.56,404.32Z"/><path d="M182.66,409.54a2.29,2.29,0,0,1-1-2,2.41,2.41,0,0,1,.66-1.68,2.18,2.18,0,0,1,1.68-.72,2.64,2.64,0,0,1,1.08.24,24.25,24.25,0,0,0,3.84,1.32,17.85,17.85,0,0,0,4.32.48q6.66,0,6.66-4.26a2.27,2.27,0,0,0-1.53-2.1,31.33,31.33,0,0,0-5-1.62,45.27,45.27,0,0,1-5.85-1.74,10.29,10.29,0,0,1-4-2.73,6.94,6.94,0,0,1-1.65-4.83,8.65,8.65,0,0,1,3-6.84q3-2.64,8.67-2.64a25,25,0,0,1,8.7,1.5,2.25,2.25,0,0,1,1.29.9,2.41,2.41,0,0,1,.45,1.38,2.35,2.35,0,0,1-.69,1.68,2.27,2.27,0,0,1-1.71.72,3.37,3.37,0,0,1-.78-.12,23,23,0,0,0-6.84-1.08,9.37,9.37,0,0,0-5.07,1.17,3.49,3.49,0,0,0-1.83,3,2.77,2.77,0,0,0,1.68,2.64,24,24,0,0,0,5.22,1.62,50,50,0,0,1,5.76,1.77,9.52,9.52,0,0,1,3.81,2.73,7.41,7.41,0,0,1,1.59,5,7.93,7.93,0,0,1-3,6.36q-3,2.52-8.55,2.52A22.32,22.32,0,0,1,182.66,409.54Z"/><path d="M228.86,411.16a2.61,2.61,0,0,1-.78-1.92V370.3a2.71,2.71,0,0,1,.78-1.95,2.56,2.56,0,0,1,1.92-.81,2.67,2.67,0,0,1,2.76,2.76v38.94a2.56,2.56,0,0,1-.81,1.92,2.71,2.71,0,0,1-1.95.78A2.61,2.61,0,0,1,228.86,411.16Z"/><path d="M245.27,408.07q-4.11-4.17-4.11-11.73a19.56,19.56,0,0,1,1.56-7.86,13.36,13.36,0,0,1,4.8-5.82,13.79,13.79,0,0,1,8-2.22,14,14,0,0,1,7.68,2.07A13.39,13.39,0,0,1,268.1,388a17,17,0,0,1,1.68,7.53,2.62,2.62,0,0,1-2.76,2.7H246.68a9.87,9.87,0,0,0,3.12,6.54q2.64,2.34,7.38,2.34a18,18,0,0,0,4.41-.48,18.32,18.32,0,0,0,3.69-1.38,2.38,2.38,0,0,1,1.08-.24,2.41,2.41,0,0,1,1.68.66,2.18,2.18,0,0,1,.72,1.68,2.59,2.59,0,0,1-1.56,2.22,18.74,18.74,0,0,1-10.5,2.64Q249.38,412.24,245.27,408.07Zm19.11-14.25a9.61,9.61,0,0,0-1.53-4.92,8.26,8.26,0,0,0-3.33-2.91,9.15,9.15,0,0,0-8,0,8.06,8.06,0,0,0-3.3,2.91,9.79,9.79,0,0,0-1.5,4.92Z"/><path d="M284.24,425.14a23,23,0,0,1-5.82-2.22,2.28,2.28,0,0,1-1.08-2.1,2.46,2.46,0,0,1,.69-1.71,2.23,2.23,0,0,1,1.71-.75,3,3,0,0,1,1.08.24,21.83,21.83,0,0,0,9.9,2.28q9.18,0,9.18-9.78v-4a13.54,13.54,0,0,1-10.26,4.56,14.46,14.46,0,0,1-6.87-1.77,14.3,14.3,0,0,1-5.49-5.28,18,18,0,0,1,0-17.1,14.3,14.3,0,0,1,5.49-5.28,14.46,14.46,0,0,1,6.87-1.77A13.54,13.54,0,0,1,299.9,385v-1.5a2.71,2.71,0,0,1,.78-1.95,2.56,2.56,0,0,1,1.92-.81,2.77,2.77,0,0,1,2.76,2.76v26.82q0,7.56-3.66,11.64T291.26,426A28.4,28.4,0,0,1,284.24,425.14Zm11.52-19.68a18,18,0,0,0,4.14-3.24V389.86a18,18,0,0,0-4.14-3.24,10.08,10.08,0,0,0-5-1.2,10.19,10.19,0,0,0-7.35,2.73q-2.85,2.73-2.85,7.89t2.85,7.89a10.19,10.19,0,0,0,7.35,2.73A10.08,10.08,0,0,0,295.76,405.46Z"/><path d="M313.82,409.54a2.29,2.29,0,0,1-1-2,2.41,2.41,0,0,1,.66-1.68,2.18,2.18,0,0,1,1.68-.72,2.64,2.64,0,0,1,1.08.24,24.25,24.25,0,0,0,3.84,1.32,17.85,17.85,0,0,0,4.32.48q6.66,0,6.66-4.26a2.27,2.27,0,0,0-1.53-2.1,31.33,31.33,0,0,0-5-1.62,45.27,45.27,0,0,1-5.85-1.74,10.29,10.29,0,0,1-4-2.73,6.94,6.94,0,0,1-1.65-4.83,8.65,8.65,0,0,1,3-6.84q3-2.64,8.67-2.64a25,25,0,0,1,8.7,1.5,2.25,2.25,0,0,1,1.29.9,2.41,2.41,0,0,1,.45,1.38,2.35,2.35,0,0,1-.69,1.68,2.27,2.27,0,0,1-1.71.72,3.37,3.37,0,0,1-.78-.12,23,23,0,0,0-6.84-1.08,9.37,9.37,0,0,0-5.07,1.17,3.49,3.49,0,0,0-1.83,3,2.77,2.77,0,0,0,1.68,2.64,24,24,0,0,0,5.22,1.62,50,50,0,0,1,5.76,1.77,9.52,9.52,0,0,1,3.81,2.73,7.41,7.41,0,0,1,1.59,5,7.93,7.93,0,0,1-3,6.36q-3,2.52-8.55,2.52A22.32,22.32,0,0,1,313.82,409.54Z"/><path d="M364,410.68a10.14,10.14,0,0,1-3.72-4.26,13.6,13.6,0,0,1-1.29-5.94v-17a2.56,2.56,0,0,1,.81-1.92,2.71,2.71,0,0,1,1.95-.78,2.66,2.66,0,0,1,2.7,2.7v16.44q0,7.32,6.6,7.32a9.55,9.55,0,0,0,5.37-1.56,19.44,19.44,0,0,0,4.47-4.2v-18a2.56,2.56,0,0,1,.81-1.92,2.71,2.71,0,0,1,2-.78,2.66,2.66,0,0,1,2.7,2.7v25.74a2.71,2.71,0,0,1-.78,1.95,2.56,2.56,0,0,1-1.92.81,2.77,2.77,0,0,1-2.76-2.76v-2.46a19.94,19.94,0,0,1-4.92,4,12.42,12.42,0,0,1-6.24,1.5A10.37,10.37,0,0,1,364,410.68Z"/><path d="M396.56,424.93a2.71,2.71,0,0,1-.78-1.95V383.44a2.66,2.66,0,0,1,2.7-2.7,2.71,2.71,0,0,1,1.95.78,2.56,2.56,0,0,1,.81,1.92V385a13.79,13.79,0,0,1,10.26-4.56,14.07,14.07,0,0,1,7.05,1.89,14.34,14.34,0,0,1,5.4,5.52,18.45,18.45,0,0,1,0,17,14.34,14.34,0,0,1-5.4,5.52,14.07,14.07,0,0,1-7.05,1.89,13.79,13.79,0,0,1-10.26-4.56V423a2.67,2.67,0,0,1-2.76,2.76A2.56,2.56,0,0,1,396.56,424.93Zm21.3-20.61q2.7-2.82,2.7-8t-2.7-8a9.43,9.43,0,0,0-7.14-2.82,11.33,11.33,0,0,0-5.19,1.23,14.82,14.82,0,0,0-4.29,3.27v12.6a14.82,14.82,0,0,0,4.29,3.27,11.33,11.33,0,0,0,5.19,1.23A9.43,9.43,0,0,0,417.86,404.32Z"/><path d="M449.66,373.9a3,3,0,0,1-.9-2.16v-.24a3.07,3.07,0,0,1,3.06-3.06h.36a3.07,3.07,0,0,1,3.06,3.06v.24a3.07,3.07,0,0,1-3.06,3.06h-.36A3,3,0,0,1,449.66,373.9Zm.36,37.26a2.61,2.61,0,0,1-.78-1.92V383.5a2.71,2.71,0,0,1,.78-1.95,2.56,2.56,0,0,1,1.92-.81,2.67,2.67,0,0,1,2.76,2.76v25.74a2.56,2.56,0,0,1-.81,1.92,2.71,2.71,0,0,1-1.95.78A2.61,2.61,0,0,1,450,411.16Z"/><path d="M465,411.16a2.61,2.61,0,0,1-.78-1.92V383.5a2.71,2.71,0,0,1,.78-1.95,2.56,2.56,0,0,1,1.92-.81,2.77,2.77,0,0,1,2.76,2.76V386a19.94,19.94,0,0,1,4.92-4,12.42,12.42,0,0,1,6.24-1.5,10.37,10.37,0,0,1,5.73,1.56,10.14,10.14,0,0,1,3.72,4.26,13.6,13.6,0,0,1,1.29,5.94v17a2.56,2.56,0,0,1-.81,1.92,2.71,2.71,0,0,1-2,.78,2.66,2.66,0,0,1-2.7-2.7V392.8q0-7.32-6.6-7.32a9.55,9.55,0,0,0-5.37,1.56,19.44,19.44,0,0,0-4.47,4.2v18a2.56,2.56,0,0,1-.81,1.92,2.71,2.71,0,0,1-1.95.78A2.61,2.61,0,0,1,465,411.16Z"/><path d="M518.12,404.32v-18.6h-4.26a1.13,1.13,0,0,1-1.14-1.14,1.25,1.25,0,0,1,.54-1l8.16-8a1.51,1.51,0,0,1,1-.54,1.06,1.06,0,0,1,.81.36,1.2,1.2,0,0,1,.33.84V381h6.78a2.26,2.26,0,0,1,2.34,2.34A2.3,2.3,0,0,1,532,385a2.22,2.22,0,0,1-1.68.69h-6.78v18.12q0,2.34,1.11,3a5.59,5.59,0,0,0,2.79.63,8.32,8.32,0,0,0,2.4-.36l.51-.12a3.27,3.27,0,0,1,.69-.06,2.11,2.11,0,0,1,1.5.63,2,2,0,0,1,.66,1.53,2.27,2.27,0,0,1-1.38,2.1,11.74,11.74,0,0,1-5,1.08Q518.12,412.24,518.12,404.32Z"/><path d="M540,411.16a2.61,2.61,0,0,1-.78-1.92V370.3a2.71,2.71,0,0,1,.78-1.95,2.56,2.56,0,0,1,1.92-.81,2.77,2.77,0,0,1,2.76,2.76V386a19.94,19.94,0,0,1,4.92-4,12.42,12.42,0,0,1,6.24-1.5,10.37,10.37,0,0,1,5.73,1.56,10.14,10.14,0,0,1,3.72,4.26,13.6,13.6,0,0,1,1.29,5.94v17a2.56,2.56,0,0,1-.81,1.92,2.71,2.71,0,0,1-1.95.78,2.66,2.66,0,0,1-2.7-2.7V392.8q0-7.32-6.6-7.32a9.55,9.55,0,0,0-5.37,1.56,19.44,19.44,0,0,0-4.47,4.2v18a2.56,2.56,0,0,1-.81,1.92,2.71,2.71,0,0,1-1.95.78A2.61,2.61,0,0,1,540,411.16Z"/><path d="M578,408.07q-4.11-4.17-4.11-11.73a19.56,19.56,0,0,1,1.56-7.86,13.36,13.36,0,0,1,4.8-5.82,13.79,13.79,0,0,1,8-2.22,14,14,0,0,1,7.68,2.07,13.39,13.39,0,0,1,4.92,5.52,17,17,0,0,1,1.68,7.53,2.62,2.62,0,0,1-2.76,2.7H579.44a9.87,9.87,0,0,0,3.12,6.54q2.64,2.34,7.38,2.34a18,18,0,0,0,4.41-.48,18.32,18.32,0,0,0,3.69-1.38,2.38,2.38,0,0,1,1.08-.24,2.41,2.41,0,0,1,1.68.66,2.18,2.18,0,0,1,.72,1.68A2.59,2.59,0,0,1,600,409.6a18.74,18.74,0,0,1-10.5,2.64Q582.14,412.24,578,408.07Zm19.11-14.25a9.61,9.61,0,0,0-1.53-4.92,8.26,8.26,0,0,0-3.33-2.91,9.15,9.15,0,0,0-8,0,8.06,8.06,0,0,0-3.3,2.91,9.79,9.79,0,0,0-1.5,4.92Z"/><path d="M628.25,411.16a8.52,8.52,0,0,1-3.57-3.15,8.68,8.68,0,0,1-1.32-4.77,8.41,8.41,0,0,1,3.51-7.08q3.51-2.64,10.29-2.64h7.26V393q0-4-1.95-5.7t-6.09-1.74a20.45,20.45,0,0,0-4,.36A34,34,0,0,0,628.4,387a3.37,3.37,0,0,1-.78.12,2.13,2.13,0,0,1-1.56-.66,2.2,2.2,0,0,1-.66-1.62A2.31,2.31,0,0,1,627,382.6a26.39,26.39,0,0,1,10.38-2.16,13.55,13.55,0,0,1,7,1.68,10.56,10.56,0,0,1,4.2,4.35,12.65,12.65,0,0,1,1.35,5.79v17a2.56,2.56,0,0,1-.81,1.92,2.71,2.71,0,0,1-2,.78,2.66,2.66,0,0,1-2.7-2.7v-1.56a15.07,15.07,0,0,1-11.28,4.56A11.15,11.15,0,0,1,628.25,411.16Zm12-5a14.18,14.18,0,0,0,4.14-3.21v-5h-6.54q-9.06,0-9.06,4.74a4.45,4.45,0,0,0,1.47,3.48q1.47,1.32,4.89,1.32A10.85,10.85,0,0,0,640.28,406.15Z"/><path d="M659.48,373.9a3,3,0,0,1-.9-2.16v-.24a3.07,3.07,0,0,1,3.06-3.06H662a3.07,3.07,0,0,1,3.06,3.06v.24A3.07,3.07,0,0,1,662,374.8h-.36A3,3,0,0,1,659.48,373.9Zm.36,37.26a2.61,2.61,0,0,1-.78-1.92V383.5a2.71,2.71,0,0,1,.78-1.95,2.56,2.56,0,0,1,1.92-.81,2.67,2.67,0,0,1,2.76,2.76v25.74a2.56,2.56,0,0,1-.81,1.92,2.71,2.71,0,0,1-2,.78A2.61,2.61,0,0,1,659.84,411.16Z"/><path d="M674.78,411.16a2.61,2.61,0,0,1-.78-1.92V383.5a2.71,2.71,0,0,1,.78-1.95,2.56,2.56,0,0,1,1.92-.81,2.77,2.77,0,0,1,2.76,2.76v2.58q4.2-5.64,9.42-5.64h.3a2.51,2.51,0,0,1,1.89.78,2.66,2.66,0,0,1,.75,1.92A2.42,2.42,0,0,1,691,385a2.81,2.81,0,0,1-2,.72h-.3a10.23,10.23,0,0,0-5.28,1.41,12.16,12.16,0,0,0-4,3.87v18.24a2.56,2.56,0,0,1-.81,1.92,2.71,2.71,0,0,1-1.95.78A2.61,2.61,0,0,1,674.78,411.16Z"/><path d="M695.57,410.83a3.23,3.23,0,0,1-1-2.37v-.36a3.38,3.38,0,0,1,3.36-3.36h.6a3.38,3.38,0,0,1,3.36,3.36v.36a3.38,3.38,0,0,1-3.36,3.36h-.6A3.23,3.23,0,0,1,695.57,410.83Z"/><path d="M144.83,634.16a2.66,2.66,0,0,1-.75-1.92,3.27,3.27,0,0,1,.3-1.2l15.31-36.12a4.5,4.5,0,0,1,1.35-1.77,3.3,3.3,0,0,1,2.13-.69h.6a3.29,3.29,0,0,1,2.12.69,4.72,4.72,0,0,1,1.36,1.77L182.54,631a3.27,3.27,0,0,1,.3,1.2,2.66,2.66,0,0,1-.75,1.92,2.57,2.57,0,0,1-2,.78,2.69,2.69,0,0,1-1.52-.45,2.82,2.82,0,0,1-1.06-1.23l-3.89-9.36h-20.4l-3.9,9.36a3,3,0,0,1-1.06,1.23,2.73,2.73,0,0,1-1.52.45A2.59,2.59,0,0,1,144.83,634.16Zm10.54-15.24h16.19l-8.1-19.5Z"/><path d="M191,634.16a2.61,2.61,0,0,1-.78-1.92V606.5a2.71,2.71,0,0,1,.78-2,2.56,2.56,0,0,1,1.92-.81,2.75,2.75,0,0,1,2.76,2.76V609a19.94,19.94,0,0,1,4.92-4,12.42,12.42,0,0,1,6.24-1.5,10.35,10.35,0,0,1,5.73,1.56,10.14,10.14,0,0,1,3.72,4.26,13.6,13.6,0,0,1,1.29,5.94v17a2.56,2.56,0,0,1-.81,1.92,2.71,2.71,0,0,1-2,.78,2.66,2.66,0,0,1-2.7-2.7V615.8q0-7.32-6.6-7.32a9.55,9.55,0,0,0-5.37,1.56,19.44,19.44,0,0,0-4.47,4.2v18a2.59,2.59,0,0,1-.8,1.92,2.75,2.75,0,0,1-2,.78A2.61,2.61,0,0,1,191,634.16Z"/><path d="M232.37,633.35a14.34,14.34,0,0,1-5.4-5.52,18.45,18.45,0,0,1,0-17,14.34,14.34,0,0,1,5.4-5.52,14.07,14.07,0,0,1,7-1.89A13.79,13.79,0,0,1,249.68,608V593.3a2.63,2.63,0,0,1,.81-2,2.71,2.71,0,0,1,1.95-.78,2.56,2.56,0,0,1,1.92.81,2.71,2.71,0,0,1,.78,1.95v38.94a2.66,2.66,0,0,1-2.7,2.7,2.71,2.71,0,0,1-1.95-.78,2.56,2.56,0,0,1-.81-1.92v-1.56a13.79,13.79,0,0,1-10.26,4.56A14.07,14.07,0,0,1,232.37,633.35Zm13-4.44a14.82,14.82,0,0,0,4.29-3.27V613a14.82,14.82,0,0,0-4.29-3.27,11.33,11.33,0,0,0-5.19-1.23,9.43,9.43,0,0,0-7.14,2.82q-2.7,2.82-2.7,8t2.7,8a9.43,9.43,0,0,0,7.14,2.82A11.33,11.33,0,0,0,245.39,628.91Z"/><path d="M283.13,634.16a8.52,8.52,0,0,1-3.57-3.15,8.68,8.68,0,0,1-1.32-4.77,8.41,8.41,0,0,1,3.51-7.08q3.51-2.64,10.29-2.64h7.26V616q0-4-1.95-5.7t-6.09-1.74a20.45,20.45,0,0,0-4.05.36,34,34,0,0,0-3.93,1.08,3.37,3.37,0,0,1-.78.12,2.13,2.13,0,0,1-1.56-.66,2.2,2.2,0,0,1-.66-1.62,2.31,2.31,0,0,1,1.56-2.28,26.39,26.39,0,0,1,10.38-2.16,13.55,13.55,0,0,1,7,1.68,10.56,10.56,0,0,1,4.2,4.35,12.65,12.65,0,0,1,1.35,5.79v17a2.56,2.56,0,0,1-.81,1.92,2.71,2.71,0,0,1-1.95.78,2.66,2.66,0,0,1-2.7-2.7v-1.56A15.07,15.07,0,0,1,288,635.24,11.15,11.15,0,0,1,283.13,634.16Zm12-5a14.18,14.18,0,0,0,4.14-3.21v-5h-6.54q-9.06,0-9.06,4.74a4.45,4.45,0,0,0,1.47,3.48q1.47,1.32,4.89,1.32A10.85,10.85,0,0,0,295.16,629.15Z"/><path d="M328.52,632.54a2.29,2.29,0,0,1-1-2,2.41,2.41,0,0,1,.66-1.68,2.18,2.18,0,0,1,1.68-.72,2.64,2.64,0,0,1,1.08.24,24.25,24.25,0,0,0,3.84,1.32,17.85,17.85,0,0,0,4.32.48q6.66,0,6.66-4.26a2.27,2.27,0,0,0-1.53-2.1,31.33,31.33,0,0,0-5-1.62,45.27,45.27,0,0,1-5.85-1.74,10.29,10.29,0,0,1-4-2.73,6.94,6.94,0,0,1-1.65-4.83,8.65,8.65,0,0,1,3-6.84q3-2.64,8.67-2.64a25,25,0,0,1,8.7,1.5,2.25,2.25,0,0,1,1.29.9,2.41,2.41,0,0,1,.45,1.38,2.35,2.35,0,0,1-.69,1.68,2.27,2.27,0,0,1-1.71.72,3.37,3.37,0,0,1-.78-.12,23,23,0,0,0-6.84-1.08,9.37,9.37,0,0,0-5.07,1.17,3.49,3.49,0,0,0-1.83,3,2.77,2.77,0,0,0,1.68,2.64,24,24,0,0,0,5.22,1.62,50,50,0,0,1,5.76,1.77,9.52,9.52,0,0,1,3.81,2.73,7.41,7.41,0,0,1,1.59,5,7.93,7.93,0,0,1-3,6.36q-3,2.52-8.55,2.52A22.32,22.32,0,0,1,328.52,632.54Z"/><path d="M359.12,634.16a2.61,2.61,0,0,1-.78-1.92V606.5a2.71,2.71,0,0,1,.78-2,2.56,2.56,0,0,1,1.92-.81,2.77,2.77,0,0,1,2.76,2.76V609a15,15,0,0,1,4.05-4,11,11,0,0,1,6.15-1.56,9.33,9.33,0,0,1,5.76,1.8,10,10,0,0,1,3.42,4.38,12.09,12.09,0,0,1,11-6.18,9.11,9.11,0,0,1,5.61,1.68,10,10,0,0,1,3.33,4.32,14.44,14.44,0,0,1,1.08,5.52v17.28a2.56,2.56,0,0,1-.81,1.92,2.71,2.71,0,0,1-1.95.78,2.66,2.66,0,0,1-2.7-2.7V616q0-3.9-1.38-5.73t-4.74-1.83a7.92,7.92,0,0,0-5.07,1.59,15.38,15.38,0,0,0-3.57,4.17v18a2.56,2.56,0,0,1-.81,1.92,2.71,2.71,0,0,1-1.95.78,2.66,2.66,0,0,1-2.7-2.7V616q0-3.9-1.38-5.73t-4.74-1.83a7.92,7.92,0,0,0-5.07,1.59,15.38,15.38,0,0,0-3.57,4.17v18a2.56,2.56,0,0,1-.81,1.92,2.71,2.71,0,0,1-1.95.78A2.61,2.61,0,0,1,359.12,634.16Z"/><path d="M413.84,596.9a3,3,0,0,1-.9-2.16v-.24a3.07,3.07,0,0,1,3.06-3.06h.36a3.07,3.07,0,0,1,3.06,3.06v.24a3.07,3.07,0,0,1-3.06,3.06H416A3,3,0,0,1,413.84,596.9Zm.36,37.26a2.61,2.61,0,0,1-.78-1.92V606.5a2.71,2.71,0,0,1,.78-2,2.56,2.56,0,0,1,1.92-.81,2.67,2.67,0,0,1,2.76,2.76v25.74a2.56,2.56,0,0,1-.81,1.92,2.71,2.71,0,0,1-1.95.78A2.61,2.61,0,0,1,414.2,634.16Z"/><path d="M429.14,634.16a2.61,2.61,0,0,1-.78-1.92V593.3a2.71,2.71,0,0,1,.78-1.95,2.56,2.56,0,0,1,1.92-.81,2.67,2.67,0,0,1,2.76,2.76v38.94a2.56,2.56,0,0,1-.81,1.92,2.71,2.71,0,0,1-1.95.78A2.61,2.61,0,0,1,429.14,634.16Z"/><path d="M445.55,631.07q-4.11-4.17-4.11-11.73a19.56,19.56,0,0,1,1.56-7.86,13.36,13.36,0,0,1,4.8-5.82,13.79,13.79,0,0,1,8-2.22,14,14,0,0,1,7.68,2.07,13.39,13.39,0,0,1,4.92,5.52,17,17,0,0,1,1.68,7.53,2.62,2.62,0,0,1-2.76,2.7H447a9.87,9.87,0,0,0,3.12,6.54q2.64,2.34,7.38,2.34a18,18,0,0,0,4.41-.48,18.32,18.32,0,0,0,3.69-1.38,2.38,2.38,0,0,1,1.08-.24,2.41,2.41,0,0,1,1.68.66,2.18,2.18,0,0,1,.72,1.68,2.59,2.59,0,0,1-1.56,2.22,18.74,18.74,0,0,1-10.5,2.64Q449.66,635.24,445.55,631.07Zm19.11-14.25a9.61,9.61,0,0,0-1.53-4.92A8.26,8.26,0,0,0,459.8,609a9.15,9.15,0,0,0-8,0,8.06,8.06,0,0,0-3.3,2.91,9.79,9.79,0,0,0-1.5,4.92Z"/><path d="M498.26,633.26a13.46,13.46,0,0,1-5.37-5.61,19.21,19.21,0,0,1,0-16.62,13.46,13.46,0,0,1,5.37-5.61,17.44,17.44,0,0,1,16.14,0,13.65,13.65,0,0,1,5.4,5.61,18.94,18.94,0,0,1,0,16.62,13.65,13.65,0,0,1-5.4,5.61,17.44,17.44,0,0,1-16.14,0Zm12.81-4.14a9.16,9.16,0,0,0,3.72-3.6,12,12,0,0,0,1.47-6.24,11.88,11.88,0,0,0-1.47-6.18,9,9,0,0,0-3.72-3.57,10.52,10.52,0,0,0-4.71-1.11,10.64,10.64,0,0,0-4.77,1.11,8.78,8.78,0,0,0-3.69,3.57,12.08,12.08,0,0,0-1.44,6.18,12.21,12.21,0,0,0,1.44,6.24,9,9,0,0,0,3.69,3.6,10.41,10.41,0,0,0,4.77,1.14A10.29,10.29,0,0,0,511.07,629.12Z"/><path d="M530.12,634.16a2.61,2.61,0,0,1-.78-1.92V606.5a2.71,2.71,0,0,1,.78-2,2.56,2.56,0,0,1,1.92-.81,2.77,2.77,0,0,1,2.76,2.76V609a19.94,19.94,0,0,1,4.92-4,12.42,12.42,0,0,1,6.24-1.5,10.37,10.37,0,0,1,5.73,1.56,10.14,10.14,0,0,1,3.72,4.26,13.6,13.6,0,0,1,1.29,5.94v17a2.56,2.56,0,0,1-.81,1.92,2.71,2.71,0,0,1-1.95.78,2.66,2.66,0,0,1-2.7-2.7V615.8q0-7.32-6.6-7.32a9.55,9.55,0,0,0-5.37,1.56,19.44,19.44,0,0,0-4.47,4.2v18a2.56,2.56,0,0,1-.81,1.92,2.71,2.71,0,0,1-2,.78A2.61,2.61,0,0,1,530.12,634.16Z"/><path d="M581.9,596.9a3,3,0,0,1-.9-2.16v-.24a3.07,3.07,0,0,1,3.06-3.06h.36a3.07,3.07,0,0,1,3.06,3.06v.24a3.07,3.07,0,0,1-3.06,3.06h-.36A3,3,0,0,1,581.9,596.9Zm.36,37.26a2.61,2.61,0,0,1-.78-1.92V606.5a2.71,2.71,0,0,1,.78-2,2.56,2.56,0,0,1,1.92-.81,2.67,2.67,0,0,1,2.76,2.76v25.74a2.56,2.56,0,0,1-.81,1.92,2.71,2.71,0,0,1-2,.78A2.61,2.61,0,0,1,582.26,634.16Z"/><path d="M598.22,627.32v-18.6H594a1.13,1.13,0,0,1-1.14-1.14,1.25,1.25,0,0,1,.54-1l8.16-8a1.51,1.51,0,0,1,1-.54,1.06,1.06,0,0,1,.81.36,1.2,1.2,0,0,1,.33.84V604h6.78a2.26,2.26,0,0,1,2.34,2.34,2.3,2.3,0,0,1-.66,1.65,2.22,2.22,0,0,1-1.68.69h-6.78v18.12q0,2.34,1.11,3a5.59,5.59,0,0,0,2.79.63,8.32,8.32,0,0,0,2.4-.36l.51-.12a3.27,3.27,0,0,1,.69-.06,2.11,2.11,0,0,1,1.5.63,2,2,0,0,1,.66,1.53,2.27,2.27,0,0,1-1.38,2.1,11.74,11.74,0,0,1-5,1.08Q598.22,635.24,598.22,627.32Z"/><path d="M618.32,632.54a2.29,2.29,0,0,1-1-2,2.41,2.41,0,0,1,.66-1.68,2.18,2.18,0,0,1,1.68-.72,2.64,2.64,0,0,1,1.08.24,24.25,24.25,0,0,0,3.84,1.32,17.85,17.85,0,0,0,4.32.48q6.66,0,6.66-4.26a2.27,2.27,0,0,0-1.53-2.1,31.33,31.33,0,0,0-5-1.62,45.27,45.27,0,0,1-5.85-1.74,10.29,10.29,0,0,1-4-2.73,6.94,6.94,0,0,1-1.65-4.83,8.65,8.65,0,0,1,3-6.84q3-2.64,8.67-2.64a25,25,0,0,1,8.7,1.5,2.25,2.25,0,0,1,1.29.9,2.41,2.41,0,0,1,.45,1.38,2.35,2.35,0,0,1-.69,1.68,2.27,2.27,0,0,1-1.71.72,3.37,3.37,0,0,1-.78-.12,23,23,0,0,0-6.84-1.08,9.37,9.37,0,0,0-5.07,1.17,3.49,3.49,0,0,0-1.83,3,2.77,2.77,0,0,0,1.68,2.64,24,24,0,0,0,5.22,1.62,50,50,0,0,1,5.76,1.77,9.52,9.52,0,0,1,3.81,2.73,7.41,7.41,0,0,1,1.59,5,7.93,7.93,0,0,1-3,6.36q-3,2.52-8.55,2.52A22.32,22.32,0,0,1,618.32,632.54Z"/><path d="M148.88,706.16a2.64,2.64,0,0,1-.77-1.92V680.72h-3.55a2.23,2.23,0,0,1-1.64-.69,2.26,2.26,0,0,1-.7-1.65,2.23,2.23,0,0,1,.7-1.68,2.28,2.28,0,0,1,1.64-.66h3.55v-3.48a12,12,0,0,1,1.28-5.91,8.05,8.05,0,0,1,3.36-3.36,9.5,9.5,0,0,1,4.36-1,11.57,11.57,0,0,1,5.22,1.2,2.63,2.63,0,0,1,1,.87,2.15,2.15,0,0,1,.4,1.23,2.24,2.24,0,0,1-.67,1.59,2.09,2.09,0,0,1-1.56.69,5.55,5.55,0,0,1-1.37-.18c-1-.12-1.5-.18-1.63-.18a5.26,5.26,0,0,0-3.69,1.14q-1.23,1.14-1.23,4.14V676h7.5a2.36,2.36,0,0,1,1.69,4,2.26,2.26,0,0,1-1.69.69h-7.5v23.52a2.56,2.56,0,0,1-.81,1.92,2.71,2.71,0,0,1-1.95.78A2.61,2.61,0,0,1,148.88,706.16Z"/><path d="M170.7,706.16a8.54,8.54,0,0,1-3.58-3.15,8.68,8.68,0,0,1-1.32-4.77,8.41,8.41,0,0,1,3.51-7.08q3.51-2.64,10.3-2.64h7.26V688c0-2.64-.66-4.54-2-5.7s-3.34-1.74-6.1-1.74a20.28,20.28,0,0,0-4,.36,34.1,34.1,0,0,0-3.94,1.08,3.37,3.37,0,0,1-.78.12,2.15,2.15,0,0,1-1.56-.66,2.2,2.2,0,0,1-.66-1.62,2.31,2.31,0,0,1,1.56-2.28,26.4,26.4,0,0,1,10.39-2.16,13.58,13.58,0,0,1,7,1.68,10.6,10.6,0,0,1,4.19,4.35,12.52,12.52,0,0,1,1.35,5.79v17a2.59,2.59,0,0,1-.8,1.92,2.75,2.75,0,0,1-2,.78,2.65,2.65,0,0,1-2.69-2.7v-1.56a15.11,15.11,0,0,1-11.29,4.56A11.11,11.11,0,0,1,170.7,706.16Zm12-5a14.22,14.22,0,0,0,4.15-3.21v-5h-6.55q-9,0-9,4.74a4.44,4.44,0,0,0,1.46,3.48q1.47,1.32,4.89,1.32A10.85,10.85,0,0,0,182.72,701.15Z"/><path d="M207.68,705.32a14.78,14.78,0,0,1-5.85-5.52,17.44,17.44,0,0,1,0-16.92,14.78,14.78,0,0,1,5.85-5.52,16.94,16.94,0,0,1,8-1.92,16.63,16.63,0,0,1,5.49.81,21.07,21.07,0,0,1,4.3,2.07,2.4,2.4,0,0,1,.51,3.75,2.14,2.14,0,0,1-1.59.75,2.74,2.74,0,0,1-1.33-.36,22.85,22.85,0,0,0-3.39-1.47,11.7,11.7,0,0,0-3.51-.45,10.88,10.88,0,0,0-8.1,3,11.9,11.9,0,0,0,0,15.66,10.88,10.88,0,0,0,8.1,3,11.7,11.7,0,0,0,3.51-.45,22.85,22.85,0,0,0,3.39-1.47,2.74,2.74,0,0,1,1.33-.36,2.14,2.14,0,0,1,1.59.75,2.4,2.4,0,0,1-.51,3.75,21.07,21.07,0,0,1-4.3,2.07,16.63,16.63,0,0,1-5.49.81A16.94,16.94,0,0,1,207.68,705.32Z"/><path d="M235.49,703.07q-4.11-4.17-4.11-11.73a19.56,19.56,0,0,1,1.56-7.86,13.36,13.36,0,0,1,4.8-5.82,13.79,13.79,0,0,1,8-2.22,14,14,0,0,1,7.68,2.07,13.39,13.39,0,0,1,4.92,5.52,17,17,0,0,1,1.68,7.53,2.62,2.62,0,0,1-2.76,2.7H236.9A9.87,9.87,0,0,0,240,699.8q2.64,2.34,7.38,2.34a18,18,0,0,0,4.41-.48,18.32,18.32,0,0,0,3.69-1.38,2.38,2.38,0,0,1,1.08-.24,2.41,2.41,0,0,1,1.68.66,2.18,2.18,0,0,1,.72,1.68,2.59,2.59,0,0,1-1.56,2.22,18.74,18.74,0,0,1-10.5,2.64Q239.6,707.24,235.49,703.07Zm19.11-14.25a9.61,9.61,0,0,0-1.53-4.92,8.26,8.26,0,0,0-3.33-2.91,9.15,9.15,0,0,0-8,0,8.06,8.06,0,0,0-3.3,2.91,9.79,9.79,0,0,0-1.5,4.92Z"/><path d="M283.58,706.16a2.61,2.61,0,0,1-.78-1.92V665.3a2.71,2.71,0,0,1,.78-1.95,2.56,2.56,0,0,1,1.92-.81,2.67,2.67,0,0,1,2.76,2.76v38.94a2.56,2.56,0,0,1-.81,1.92,2.71,2.71,0,0,1-1.95.78A2.61,2.61,0,0,1,283.58,706.16Z"/><path d="M298.16,668.9a3,3,0,0,1-.9-2.16v-.24a3.07,3.07,0,0,1,3.06-3.06h.36a3.07,3.07,0,0,1,3.06,3.06v.24a3.07,3.07,0,0,1-3.06,3.06h-.36A3,3,0,0,1,298.16,668.9Zm.36,37.26a2.61,2.61,0,0,1-.78-1.92V678.5a2.71,2.71,0,0,1,.78-2,2.56,2.56,0,0,1,1.92-.81,2.67,2.67,0,0,1,2.76,2.76v25.74a2.56,2.56,0,0,1-.81,1.92,2.71,2.71,0,0,1-1.95.78A2.61,2.61,0,0,1,298.52,706.16Z"/><path d="M313.46,706.16a2.61,2.61,0,0,1-.78-1.92V665.3a2.71,2.71,0,0,1,.78-1.95,2.56,2.56,0,0,1,1.92-.81,2.77,2.77,0,0,1,2.76,2.76v24.54l14.28-13.2a2.76,2.76,0,0,1,1.8-.78,2.43,2.43,0,0,1,2,.78,2.87,2.87,0,0,1,.63,1.86,2.94,2.94,0,0,1-1,2l-8.64,7.74,10.86,14.4a2.63,2.63,0,0,1,.6,1.62,2.49,2.49,0,0,1-.78,1.92,2.81,2.81,0,0,1-2,.72,2.66,2.66,0,0,1-1.2-.3,3,3,0,0,1-1-.84l-10.32-14-5.22,4.74v7.74a2.56,2.56,0,0,1-.81,1.92,2.71,2.71,0,0,1-1.95.78A2.61,2.61,0,0,1,313.46,706.16Z"/><path d="M347.09,703.07Q343,698.9,343,691.34a19.56,19.56,0,0,1,1.56-7.86,13.36,13.36,0,0,1,4.8-5.82,13.79,13.79,0,0,1,8-2.22,14,14,0,0,1,7.68,2.07,13.39,13.39,0,0,1,4.92,5.52,17,17,0,0,1,1.68,7.53,2.62,2.62,0,0,1-2.76,2.7H348.5a9.87,9.87,0,0,0,3.12,6.54q2.64,2.34,7.38,2.34a18,18,0,0,0,4.41-.48,18.32,18.32,0,0,0,3.69-1.38,2.38,2.38,0,0,1,1.08-.24,2.41,2.41,0,0,1,1.68.66,2.18,2.18,0,0,1,.72,1.68A2.59,2.59,0,0,1,369,704.6a18.74,18.74,0,0,1-10.5,2.64Q351.2,707.24,347.09,703.07Zm19.11-14.25a9.61,9.61,0,0,0-1.53-4.92,8.26,8.26,0,0,0-3.33-2.91,9.15,9.15,0,0,0-8,0,8.06,8.06,0,0,0-3.3,2.91,9.79,9.79,0,0,0-1.5,4.92Z"/><path d="M394.82,668.9a3,3,0,0,1-.9-2.16v-.24a3.07,3.07,0,0,1,3.06-3.06h.36a3.07,3.07,0,0,1,3.06,3.06v.24a3.07,3.07,0,0,1-3.06,3.06H397A3,3,0,0,1,394.82,668.9Zm.36,37.26a2.61,2.61,0,0,1-.78-1.92V678.5a2.71,2.71,0,0,1,.78-2,2.56,2.56,0,0,1,1.92-.81,2.67,2.67,0,0,1,2.76,2.76v25.74a2.56,2.56,0,0,1-.81,1.92,2.71,2.71,0,0,1-1.95.78A2.61,2.61,0,0,1,395.18,706.16Z"/><path d="M411.14,699.32v-18.6h-4.26a1.13,1.13,0,0,1-1.14-1.14,1.25,1.25,0,0,1,.54-1l8.16-8a1.51,1.51,0,0,1,1-.54,1.06,1.06,0,0,1,.81.36,1.2,1.2,0,0,1,.33.84V676h6.78a2.26,2.26,0,0,1,2.34,2.34,2.3,2.3,0,0,1-.66,1.65,2.22,2.22,0,0,1-1.68.69H416.6v18.12q0,2.34,1.11,3a5.59,5.59,0,0,0,2.79.63,8.32,8.32,0,0,0,2.4-.36l.51-.12a3.27,3.27,0,0,1,.69-.06,2.11,2.11,0,0,1,1.5.63,2,2,0,0,1,.66,1.53,2.27,2.27,0,0,1-1.38,2.1,11.74,11.74,0,0,1-5,1.08Q411.14,707.24,411.14,699.32Z"/><path d="M442,720.5a2.26,2.26,0,0,1-1.14-.81,2.3,2.3,0,0,1,.24-2.94,2.15,2.15,0,0,1,1.62-.69,5.66,5.66,0,0,1,.9.09,5.66,5.66,0,0,0,.9.09,4.68,4.68,0,0,0,2.76-.66q.9-.66.9-2.88V678.56a2.71,2.71,0,0,1,.78-1.95,2.56,2.56,0,0,1,1.92-.81,2.67,2.67,0,0,1,2.76,2.76v34.26a9,9,0,0,1-1.89,6q-1.89,2.25-6,2.25A12,12,0,0,1,442,720.5Zm6.6-51.6a3,3,0,0,1-.9-2.16v-.24a3.07,3.07,0,0,1,3.06-3.06h.36a3.07,3.07,0,0,1,3.06,3.06v.24a3.07,3.07,0,0,1-3.06,3.06h-.36A3,3,0,0,1,448.58,668.9Z"/><path d="M467.81,705.68a10.14,10.14,0,0,1-3.72-4.26,13.6,13.6,0,0,1-1.29-5.94v-17a2.56,2.56,0,0,1,.81-1.92,2.71,2.71,0,0,1,1.95-.78,2.66,2.66,0,0,1,2.7,2.7v16.44q0,7.32,6.6,7.32a9.55,9.55,0,0,0,5.37-1.56,19.44,19.44,0,0,0,4.47-4.2v-18a2.56,2.56,0,0,1,.81-1.92,2.71,2.71,0,0,1,1.95-.78,2.66,2.66,0,0,1,2.7,2.7v25.74a2.71,2.71,0,0,1-.78,2,2.56,2.56,0,0,1-1.92.81,2.77,2.77,0,0,1-2.76-2.76v-2.46a19.94,19.94,0,0,1-4.92,4,12.42,12.42,0,0,1-6.24,1.5A10.37,10.37,0,0,1,467.81,705.68Z"/><path d="M498.62,704.54a2.29,2.29,0,0,1-1-2,2.41,2.41,0,0,1,.66-1.68,2.18,2.18,0,0,1,1.68-.72,2.64,2.64,0,0,1,1.08.24,24.25,24.25,0,0,0,3.84,1.32,17.85,17.85,0,0,0,4.32.48q6.66,0,6.66-4.26a2.27,2.27,0,0,0-1.53-2.1,31.33,31.33,0,0,0-5-1.62,45.27,45.27,0,0,1-5.85-1.74,10.29,10.29,0,0,1-4-2.73,6.94,6.94,0,0,1-1.65-4.83,8.65,8.65,0,0,1,3-6.84q3-2.64,8.67-2.64a25,25,0,0,1,8.7,1.5,2.25,2.25,0,0,1,1.29.9,2.41,2.41,0,0,1,.45,1.38,2.35,2.35,0,0,1-.69,1.68,2.27,2.27,0,0,1-1.71.72,3.37,3.37,0,0,1-.78-.12,23,23,0,0,0-6.84-1.08,9.37,9.37,0,0,0-5.07,1.17,3.49,3.49,0,0,0-1.83,3,2.77,2.77,0,0,0,1.68,2.64,24,24,0,0,0,5.22,1.62,50,50,0,0,1,5.76,1.77,9.52,9.52,0,0,1,3.81,2.73,7.41,7.41,0,0,1,1.59,5,7.93,7.93,0,0,1-3,6.36q-3,2.52-8.55,2.52A22.32,22.32,0,0,1,498.62,704.54Z"/><path d="M530,699.32v-18.6h-4.26a1.13,1.13,0,0,1-1.14-1.14,1.25,1.25,0,0,1,.54-1l8.16-8a1.51,1.51,0,0,1,1-.54,1.06,1.06,0,0,1,.81.36,1.2,1.2,0,0,1,.33.84V676h6.78a2.26,2.26,0,0,1,2.34,2.34,2.3,2.3,0,0,1-.66,1.65,2.22,2.22,0,0,1-1.68.69h-6.78v18.12q0,2.34,1.11,3a5.59,5.59,0,0,0,2.79.63,8.32,8.32,0,0,0,2.4-.36l.51-.12a3.27,3.27,0,0,1,.69-.06,2.11,2.11,0,0,1,1.5.63,2,2,0,0,1,.66,1.53,2.27,2.27,0,0,1-1.38,2.1,11.74,11.74,0,0,1-5,1.08Q530,707.24,530,699.32Z"/><path d="M151.44,777.35a14.27,14.27,0,0,1-5.4-5.52,18.37,18.37,0,0,1,0-17,14.27,14.27,0,0,1,5.4-5.52,14,14,0,0,1,7-1.89A13.83,13.83,0,0,1,168.75,752V737.3a2.66,2.66,0,0,1,.8-2,2.71,2.71,0,0,1,1.95-.78,2.56,2.56,0,0,1,1.92.81,2.72,2.72,0,0,1,.79,1.95v38.94a2.68,2.68,0,0,1-2.71,2.7,2.71,2.71,0,0,1-1.95-.78,2.59,2.59,0,0,1-.8-1.92v-1.56a13.83,13.83,0,0,1-10.27,4.56A14,14,0,0,1,151.44,777.35Zm13-4.44a15,15,0,0,0,4.29-3.27V757a15,15,0,0,0-4.29-3.27,11.39,11.39,0,0,0-5.19-1.23,9.44,9.44,0,0,0-7.15,2.82c-1.79,1.88-2.7,4.54-2.7,8s.91,6.1,2.7,8a9.44,9.44,0,0,0,7.15,2.82A11.39,11.39,0,0,0,164.46,772.91Z"/><path d="M189.08,777.26a13.46,13.46,0,0,1-5.37-5.61,19.21,19.21,0,0,1,0-16.62,13.46,13.46,0,0,1,5.37-5.61,17.44,17.44,0,0,1,16.14,0,13.65,13.65,0,0,1,5.4,5.61,18.94,18.94,0,0,1,0,16.62,13.65,13.65,0,0,1-5.4,5.61,17.44,17.44,0,0,1-16.14,0Zm12.81-4.14a9.25,9.25,0,0,0,3.73-3.6,12.11,12.11,0,0,0,1.46-6.24,12,12,0,0,0-1.46-6.18,9,9,0,0,0-3.73-3.57,10.5,10.5,0,0,0-4.7-1.11,10.61,10.61,0,0,0-4.77,1.11,8.86,8.86,0,0,0-3.7,3.57,12.08,12.08,0,0,0-1.43,6.18,12.21,12.21,0,0,0,1.43,6.24,9.06,9.06,0,0,0,3.7,3.6,10.4,10.4,0,0,0,9.47,0Z"/><path d="M222.41,775.07q-4.11-4.17-4.11-11.73a19.56,19.56,0,0,1,1.56-7.86,13.36,13.36,0,0,1,4.8-5.82,13.79,13.79,0,0,1,8-2.22,14,14,0,0,1,7.68,2.07,13.39,13.39,0,0,1,4.92,5.52,17,17,0,0,1,1.68,7.53,2.62,2.62,0,0,1-2.76,2.7H223.82a9.87,9.87,0,0,0,3.12,6.54q2.64,2.34,7.38,2.34a18,18,0,0,0,4.41-.48,18.32,18.32,0,0,0,3.69-1.38,2.38,2.38,0,0,1,1.08-.24,2.41,2.41,0,0,1,1.68.66,2.18,2.18,0,0,1,.72,1.68,2.59,2.59,0,0,1-1.56,2.22,18.74,18.74,0,0,1-10.5,2.64Q226.52,779.24,222.41,775.07Zm19.11-14.25A9.61,9.61,0,0,0,240,755.9a8.26,8.26,0,0,0-3.33-2.91,9.15,9.15,0,0,0-8,0,8.06,8.06,0,0,0-3.3,2.91,9.79,9.79,0,0,0-1.5,4.92Z"/><path d="M253.1,776.54a2.29,2.29,0,0,1-1-2,2.41,2.41,0,0,1,.66-1.68,2.18,2.18,0,0,1,1.68-.72,2.64,2.64,0,0,1,1.08.24,24.25,24.25,0,0,0,3.84,1.32,17.85,17.85,0,0,0,4.32.48q6.66,0,6.66-4.26a2.27,2.27,0,0,0-1.53-2.1,31.33,31.33,0,0,0-5-1.62,45.27,45.27,0,0,1-5.85-1.74,10.29,10.29,0,0,1-4-2.73,6.94,6.94,0,0,1-1.65-4.83,8.65,8.65,0,0,1,3-6.84q3-2.64,8.67-2.64a25,25,0,0,1,8.7,1.5,2.25,2.25,0,0,1,1.29.9,2.41,2.41,0,0,1,.45,1.38,2.35,2.35,0,0,1-.69,1.68,2.27,2.27,0,0,1-1.71.72,3.37,3.37,0,0,1-.78-.12,23,23,0,0,0-6.84-1.08,9.37,9.37,0,0,0-5.07,1.17,3.49,3.49,0,0,0-1.83,3,2.77,2.77,0,0,0,1.68,2.64,24,24,0,0,0,5.22,1.62,50,50,0,0,1,5.76,1.77,9.52,9.52,0,0,1,3.81,2.73,7.41,7.41,0,0,1,1.59,5,7.93,7.93,0,0,1-3,6.36q-3,2.52-8.55,2.52A22.32,22.32,0,0,1,253.1,776.54Z"/><path d="M283.7,778.16a2.61,2.61,0,0,1-.78-1.92V750.5a2.71,2.71,0,0,1,.78-2,2.56,2.56,0,0,1,1.92-.81,2.77,2.77,0,0,1,2.76,2.76V753a19.94,19.94,0,0,1,4.92-4,12.42,12.42,0,0,1,6.24-1.5,10.37,10.37,0,0,1,5.73,1.56,10.14,10.14,0,0,1,3.72,4.26,13.6,13.6,0,0,1,1.29,5.94v17a2.56,2.56,0,0,1-.81,1.92,2.71,2.71,0,0,1-2,.78,2.66,2.66,0,0,1-2.7-2.7V759.8q0-7.32-6.6-7.32a9.55,9.55,0,0,0-5.37,1.56,19.44,19.44,0,0,0-4.47,4.2v18a2.56,2.56,0,0,1-.81,1.92,2.71,2.71,0,0,1-1.95.78A2.61,2.61,0,0,1,283.7,778.16Z"/><path d="M318.17,749.48a1.78,1.78,0,0,1-.51-1.26,1.67,1.67,0,0,1,.9-1.5,6.85,6.85,0,0,0,2.28-2.1,6.41,6.41,0,0,0,.78-3.48h-.24a3.38,3.38,0,0,1-3.36-3.36v-.36a3.38,3.38,0,0,1,3.36-3.36h.6a3.38,3.38,0,0,1,3.36,3.36V741a9.65,9.65,0,0,1-4.92,8.76,1.89,1.89,0,0,1-1,.3A1.63,1.63,0,0,1,318.17,749.48Z"/><path d="M334.7,771.32v-18.6h-4.26a1.13,1.13,0,0,1-1.14-1.14,1.25,1.25,0,0,1,.54-1l8.16-8a1.51,1.51,0,0,1,1-.54,1.06,1.06,0,0,1,.81.36,1.2,1.2,0,0,1,.33.84V748h6.78a2.26,2.26,0,0,1,2.34,2.34,2.3,2.3,0,0,1-.66,1.65,2.22,2.22,0,0,1-1.68.69h-6.78v18.12q0,2.34,1.11,3a5.59,5.59,0,0,0,2.79.63,8.32,8.32,0,0,0,2.4-.36L347,774a3.27,3.27,0,0,1,.69-.06,2.11,2.11,0,0,1,1.5.63,2,2,0,0,1,.66,1.53,2.27,2.27,0,0,1-1.38,2.1,11.74,11.74,0,0,1-5,1.08Q334.7,779.24,334.7,771.32Z"/><path d="M377.6,777.32a14.78,14.78,0,0,1-5.85-5.52,17.44,17.44,0,0,1,0-16.92,14.78,14.78,0,0,1,5.85-5.52,16.92,16.92,0,0,1,8-1.92,16.63,16.63,0,0,1,5.49.81,20.74,20.74,0,0,1,4.29,2.07,2.39,2.39,0,0,1,.51,3.75,2.11,2.11,0,0,1-1.59.75,2.74,2.74,0,0,1-1.32-.36,22.85,22.85,0,0,0-3.39-1.47,11.7,11.7,0,0,0-3.51-.45,10.88,10.88,0,0,0-8.1,3,11.9,11.9,0,0,0,0,15.66,10.88,10.88,0,0,0,8.1,3,11.7,11.7,0,0,0,3.51-.45,22.85,22.85,0,0,0,3.39-1.47,2.74,2.74,0,0,1,1.32-.36,2.11,2.11,0,0,1,1.59.75,2.39,2.39,0,0,1-.51,3.75,20.74,20.74,0,0,1-4.29,2.07,16.63,16.63,0,0,1-5.49.81A16.92,16.92,0,0,1,377.6,777.32Z"/><path d="M406.31,778.16a8.52,8.52,0,0,1-3.57-3.15,8.68,8.68,0,0,1-1.32-4.77,8.41,8.41,0,0,1,3.51-7.08q3.51-2.64,10.29-2.64h7.26V760q0-4-2-5.7t-6.09-1.74a20.45,20.45,0,0,0-4.05.36,34,34,0,0,0-3.93,1.08,3.37,3.37,0,0,1-.78.12,2.13,2.13,0,0,1-1.56-.66,2.2,2.2,0,0,1-.66-1.62A2.31,2.31,0,0,1,405,749.6a26.39,26.39,0,0,1,10.38-2.16,13.55,13.55,0,0,1,7,1.68,10.56,10.56,0,0,1,4.2,4.35,12.65,12.65,0,0,1,1.35,5.79v17a2.56,2.56,0,0,1-.81,1.92,2.71,2.71,0,0,1-1.95.78,2.66,2.66,0,0,1-2.7-2.7v-1.56a15.07,15.07,0,0,1-11.28,4.56A11.15,11.15,0,0,1,406.31,778.16Zm12-5a14.18,14.18,0,0,0,4.14-3.21v-5h-6.54q-9.06,0-9.06,4.74a4.45,4.45,0,0,0,1.47,3.48q1.47,1.32,4.89,1.32A10.85,10.85,0,0,0,418.34,773.15Z"/><path d="M437.9,778.16a2.61,2.61,0,0,1-.78-1.92V750.5a2.71,2.71,0,0,1,.78-2,2.56,2.56,0,0,1,1.92-.81,2.77,2.77,0,0,1,2.76,2.76v2.58q4.2-5.64,9.42-5.64h.3a2.51,2.51,0,0,1,1.89.78,2.66,2.66,0,0,1,.75,1.92,2.42,2.42,0,0,1-.78,1.86,2.81,2.81,0,0,1-2,.72h-.3a10.23,10.23,0,0,0-5.28,1.41,12.16,12.16,0,0,0-4,3.87v18.24a2.56,2.56,0,0,1-.81,1.92,2.71,2.71,0,0,1-1.95.78A2.61,2.61,0,0,1,437.9,778.16Z"/><path d="M461.45,775.07q-4.11-4.17-4.11-11.73a19.56,19.56,0,0,1,1.56-7.86,13.36,13.36,0,0,1,4.8-5.82,13.79,13.79,0,0,1,8-2.22,14,14,0,0,1,7.68,2.07,13.39,13.39,0,0,1,4.92,5.52,17,17,0,0,1,1.68,7.53,2.62,2.62,0,0,1-2.76,2.7H462.86A9.87,9.87,0,0,0,466,771.8q2.64,2.34,7.38,2.34a18,18,0,0,0,4.41-.48,18.32,18.32,0,0,0,3.69-1.38,2.38,2.38,0,0,1,1.08-.24,2.41,2.41,0,0,1,1.68.66,2.18,2.18,0,0,1,.72,1.68,2.59,2.59,0,0,1-1.56,2.22,18.74,18.74,0,0,1-10.5,2.64Q465.56,779.24,461.45,775.07Zm19.11-14.25A9.61,9.61,0,0,0,479,755.9,8.26,8.26,0,0,0,475.7,753a9.15,9.15,0,0,0-8,0,8.06,8.06,0,0,0-3.3,2.91,9.79,9.79,0,0,0-1.5,4.92Z"/><path d="M493.55,777.83a3.23,3.23,0,0,1-1-2.37v-.36a3.38,3.38,0,0,1,3.36-3.36h.6a3.38,3.38,0,0,1,3.36,3.36v.36a3.38,3.38,0,0,1-3.36,3.36h-.6A3.23,3.23,0,0,1,493.55,777.83Z"/><g class="cls-4"><g class="cls-4"><path class="cls-5" d="M1499.69,485.14c15.35,2.94,6.14-.39,1.07-3-.41.14-.89.27-1.39.4A20.82,20.82,0,0,1,1499.69,485.14Z"/><path class="cls-5" d="M1499.37,482.58c.5-.13,1-.26,1.39-.4-.63-.32-1.18-.62-1.62-.9C1499.23,481.71,1499.31,482.15,1499.37,482.58Z"/><path class="cls-5" d="M1491.88,483.56c3.13.66,5.69,1.18,7.81,1.58a20.82,20.82,0,0,0-.32-2.56A39.31,39.31,0,0,1,1491.88,483.56Z"/><path class="cls-5" d="M1499.14,481.28a14,14,0,0,0-.27-1.38C1497.6,480,1498,480.57,1499.14,481.28Z"/><path class="cls-6" d="M1387.91,416.09c-4,5.39-7.84,10.84-11.51,16.38s-7,11.18-10.29,16.88c8.92-1.59,18-2.9,24.13-4.47,9.79-2.22,11.21-6.36,9.34-11.49S1392.21,422.1,1387.91,416.09Z"/><path class="cls-7" d="M1358.36,467q-2.64,5.94-5.12,12C1358,475.57,1360.72,471.81,1358.36,467Z"/><path class="cls-6" d="M1391.79,417.8c4.3,6,9.75,12.11,11.69,17.2a9.7,9.7,0,0,1,.71,3.63,5.52,5.52,0,0,1-1,3.17c-1.34,1.94-4.15,3.51-9,4.62-6.12,1.56-15.21,2.86-24.1,4.44q-3.78,6.79-7.31,13.7c-2.34,4.6-4.43,9.29-6.54,14a7,7,0,0,1,.12,6.53,16,16,0,0,1-5.08,5.52c-1.79,4.73-3.61,9.5-5.17,14.32s-3,9.69-4.45,14.59-2.55,9.87-3.71,14.85-2.14,10-3,15.11a345.24,345.24,0,0,0-5.22,62.92A10,10,0,0,0,1331,616a30.84,30.84,0,0,0,3.89,5.53c3.39,3.88,8.31,7.66,14.42,8.7l9.23,4,5.61-.2c.46-3.77,2.69-7.5-.82-11.49,0-2.42-6.22-4.76-6.23-7.21,0-5.51,1.53-10.7,1.54-16s-1.26-10.81-7.19-17.18c-1.49-1-1.08-2.05.29-3.15a35,35,0,0,1,6.07-3.34c4.69-2.24,9.38-4.4,6.44-6.38a13,13,0,0,1,.81-10.46,48.38,48.38,0,0,1,6.65-9.41c5-6.07,10.28-11.76,7.91-18.59-2.51-5.66-6.39-10.66-8.83-15.55s-3.38-9.65.52-14.57c.37-2.38-5.07-6.94-4.69-9.36,2.09-3.67,4.32-7.3,6.62-10.89s4.68-7.13,7.29-10.6a130.52,130.52,0,0,1,8.64-10.15q2.34-2.46,4.9-4.86c1.76-1.58,3.59-3.13,5.52-4.65.41-1.73,6.74-2.05,12.32-2.5s10.41-1,7.85-3.43c-10.7-7.4-15.34-13.5-20-19.68.31-1.17,18.23,2.5,18.82.28,3.47-3.67,1.74-8.59-.53-13.68a80,80,0,0,1-3.2-7.53c-.77-2.41-1.09-4.68-.38-6.61-1.87-.11-3.6-.18-5.24-.2-1.55,1.7-3.1,3.41-4.59,5.15s-2.93,3.48-4.37,5.24C1397.35,410.67,1394.5,414.21,1391.79,417.8Z"/><path class="cls-6" d="M1423.87,374.56a57,57,0,0,1,5.73,6c14-3.19,19-10.46,12-22.12q-4.61,3.93-9.07,7.94l-4.43,4C1426.68,371.8,1425.29,373.18,1423.87,374.56Z"/><path class="cls-6" d="M1417.86,386.3l1.07.09c-3.34,3.41-6.57,6.88-9.75,10.38,1.64,0,3.37.09,5.24.2.83-2.31,3.06-4.15,7.78-5.13,1.33-.24,2.58-.51,3.79-.8a53,53,0,0,0-4.21-4.39l2.07.19c8.61.78,9.2-1.8,5.75-6.25-1.22.26-2.48.52-3.82.73C1421,382.21,1418.75,384,1417.86,386.3Z"/><path class="cls-8" d="M1572.63,440.91c-9.63.16-7.52,3.55-4.64,7,1.44,1.75,3,3.54,3.48,5.05s-.3,2.74-3.67,3.39c-8.72,2.22-9,6.9-7.4,11.94,10.18-7.78,19.95-14.67,22.34-23.93A86.88,86.88,0,0,1,1572.63,440.91Z"/><path class="cls-9" d="M1509.32,388.89c7.79,5.25,11,9.2,6.6,11.4-4,1.77-10.56,2.38-16.49,3.18s-11.11,1.81-12,4.3c-2.67,3-2,7.29-.27,11.89.85,2.31,2,4.7,3.12,7.08s2.35,4.79,3.26,7.08c1.84,4.59,2.56,8.77.07,12s-8.16,5.55-19.42,6.46c-9.76,1-15.74,3.32-19.39,6.32a13.46,13.46,0,0,0-5,10.73c-.08,4,1,8.35,1.81,12.62.4,2.14.84,4.27,1.06,6.37a21.7,21.7,0,0,1-.13,6.14c-.3,1.59,2.36,4,5,6.33s5.41,4.68,5.15,6.24c-.41,2.61-.81,5.15-1.2,7.65s-.79,4.93-1.08,7.36c-.62,4.84-1.29,9.55-1.84,14.27-.39,3.67-8.17,4.94-15.22,6.53s-13.43,3.47-10.74,8.13c-.09,1.08-12.4,2.25-12.49,3.38a95.12,95.12,0,0,1,.91,9.77c.19,3.26.25,6.52.14,9.77s-.41,6.5-.71,9.76-.78,6.52-1.38,9.78c-.29,1.64-.62,3.27-1,4.91s-.68,3.27-1.06,4.91q-1.15,4.92-2.66,9.87c-1,3.29-2,6.6-3.13,9.91s-2.36,6.64-3.67,10c13.34-.27,26.29-.76,38.2-1.46a25.26,25.26,0,0,1,.89-12.83q.49-1.61,1.14-3.21c.44-1.07.94-2.14,1.47-3.21,1.06-2.13,2.26-4.24,3.53-6.33s2.59-4.17,3.92-6.21l4-6a66.85,66.85,0,0,0,6.37-11.63,43,43,0,0,0,6.17-15.14,110.07,110.07,0,0,0,2-15.27,99.4,99.4,0,0,1,2.38-15.21A40,40,0,0,1,1485,522a94.08,94.08,0,0,0,9-13.35c2.49-4.56,4.07-9.25,3.78-14.2-2.13-.37-4.69-.85-7.83-1.47a39.24,39.24,0,0,0,7.49-1.09c-.07-.43-.14-.85-.23-1.29-1.14-.68-1.55-1.22-.27-1.37.14.47.16.91.27,1.37.43.27,1,.56,1.62.87,6.59-2.39,2.72-7.07-1.35-11.59s-8.22-8.76-2.57-9.7c9.79-1.6,14.67-4.45,17.14-8s2.17-7.89,1.42-12.36-1.91-9-1.65-13a9.15,9.15,0,0,1,1.83-5.28,11,11,0,0,1,5.64-3.59c16.06-8.64,17.71-18.93-3.93-37.92C1513.43,389.74,1511.44,389.36,1509.32,388.89Z"/><path class="cls-10" d="M1456.05,369.37c-3.64-.91-6.79-1.66-9.22-2.22,6.77,5.34,11.48,10.08,14.61,14.35s4.79,8.14,5.29,11.65a18.49,18.49,0,0,1-1.29,9.72,39.71,39.71,0,0,1-4.79,8.56c-.33,1-12.62-.53-19.12-.16-3.77,1.8,1.46,5.77,6.69,9.49s10.56,7.26,7,8.52a70.58,70.58,0,0,0-17.82,10.21,55.28,55.28,0,0,0-6.42,6,49.46,49.46,0,0,0-4.81,6.47,45.46,45.46,0,0,0-5.83,14,60.88,60.88,0,0,0-1.28,7.36,58.89,58.89,0,0,0-.41,7.53,122.71,122.71,0,0,0,1.17,15.34c.79,5.14,1.78,10.29,2.76,15.39,2.12,10.24,4.22,20.29,4.8,30.08-.23,2.23-30.27-3.1-36.68-.22a19.57,19.57,0,0,0-2.13,3.27,27,27,0,0,0-1.34,3.26c-.75,2.17-1.3,4.29-2.22,6.36-1.86,4.14-5.25,8-14.56,11.66-6.13.86,11.91,5.51,17.81,9.26a16.32,16.32,0,0,1,4.49,5,8.54,8.54,0,0,1,1.1,4.7c-.18,3.08-2,6.07-4,9.09-1,1.51-2,3-2.93,4.56a20.64,20.64,0,0,0-2,4.63c-.86,3.11-.48,6.29,2.56,9.48,4.46,3.44,4.94,6.86,4.89,10.31s-.54,6.92,2.22,10.26q6.51-.06,13-.18,2-5,3.67-10c1.15-3.31,2.09-6.62,3.13-9.91s1.89-6.59,2.66-9.87c.38-1.64.73-3.28,1.06-4.91s.7-3.27,1-4.91q.9-4.89,1.38-9.78c.3-3.26.63-6.51.71-9.76s0-6.51-.14-9.77a95.12,95.12,0,0,0-.91-9.77c.09-1.13,12.4-2.3,12.49-3.38-2.11-3.6,4.24-5,11.1-6.61s14.37-3.43,14.86-8c.56-4.81,1.22-9.47,1.84-14.28.29-2.4.67-4.83,1.07-7.31s.79-5,1.21-7.69c.26-1.56-2.51-3.89-5.15-6.24s-5.32-4.74-5-6.33a21.7,21.7,0,0,0,.13-6.14c-.22-2.1-.66-4.23-1.06-6.37-.85-4.27-1.89-8.59-1.81-12.62a13.46,13.46,0,0,1,5-10.73c3.65-3,9.63-5.28,19.39-6.32,11.26-.91,17-3.21,19.42-6.46s1.77-7.42-.07-12c-.91-2.29-2.12-4.69-3.26-7.08s-2.27-4.77-3.12-7.08c-1.7-4.6-2.4-8.89.27-11.89.87-2.49,6.06-3.51,12-4.3s12.53-1.41,16.49-3.18c4.4-2.2,1.19-6.15-6.6-11.4-14.79-3.27-34.67-9.69-54.19-17.09Z"/><path class="cls-11" d="M1500.59,380.62c-27.4-9.26-46-14.34-53.52-16s-3.72-.12,13.57,4.27c-.34.88-.69,1.81-.92,2.41,19.5,7.47,39.36,14,54.11,17.28C1510.28,386.15,1505.79,383.49,1500.59,380.62Z"/><path class="cls-11" d="M1441.1,365.86l-3.37,2.91a20.89,20.89,0,0,1,3.08,7.84,9.83,9.83,0,0,1-1,6.34c-2,3.72-6.8,6.4-13.79,8.09,3.55,4.4,3,7-5.58,6.37-2.15-.21-4.09-.33-6-.44-.71,1.93-.39,4.2.38,6.61a80,80,0,0,0,3.2,7.53c2.27,5.09,4,10,.53,13.68-.59,2.22-18.51-1.45-18.82-.28,4.68,6.18,9.32,12.28,20,19.68,2.56,2.41-2.27,3-7.85,3.43s-11.91.77-12.32,2.5c-1.93,1.52-3.76,3.07-5.52,4.65s-3.34,3.22-4.9,4.86a130.52,130.52,0,0,0-8.64,10.15c-2.61,3.47-5,7-7.29,10.6s-4.53,7.22-6.62,10.89c-.38,2.42,5.06,7,4.69,9.36-3.9,4.92-2.94,9.69-.52,14.57s6.32,9.89,8.83,15.55c2.37,6.83-2.91,12.52-7.91,18.59a48.38,48.38,0,0,0-6.65,9.41,13,13,0,0,0-.81,10.46c2.94,2-1.75,4.14-6.44,6.38a35,35,0,0,0-6.07,3.34c-1.37,1.1-1.78,2.17-.29,3.15,5.93,6.37,7.25,11.84,7.19,17.18s-1.54,10.52-1.54,16c0,2.45,6.18,4.79,6.23,7.21,3.51,4,1.28,7.72.82,11.49l20.75-.77,9.75,0c-2.76-3.34-2.26-6.82-2.22-10.26s-.43-6.87-4.89-10.31c-3-3.19-3.42-6.37-2.56-9.48a20.64,20.64,0,0,1,2-4.63c.89-1.53,1.94-3,2.93-4.56,2-3,3.78-6,4-9.09a8.54,8.54,0,0,0-1.1-4.7,16.32,16.32,0,0,0-4.49-5c-5.9-3.75-23.94-8.4-17.81-9.26,9.31-3.65,12.7-7.52,14.56-11.66.92-2.07,1.47-4.19,2.22-6.36a27,27,0,0,1,1.34-3.26,19.57,19.57,0,0,1,2.13-3.27c6.41-2.88,36.45,2.45,36.68.22-.58-9.79-2.68-19.84-4.8-30.08-1-5.1-2-10.25-2.76-15.39a122.71,122.71,0,0,1-1.17-15.34,58.89,58.89,0,0,1,.41-7.53,60.88,60.88,0,0,1,1.28-7.36,45.46,45.46,0,0,1,5.83-14,49.46,49.46,0,0,1,4.81-6.47,55.28,55.28,0,0,1,6.42-6,70.58,70.58,0,0,1,17.82-10.21c3.53-1.26-1.78-4.78-7-8.52s-10.46-7.69-6.69-9.49c6.5-.37,18.79,1.2,19.12.16a39.71,39.71,0,0,0,4.79-8.56,18.49,18.49,0,0,0,1.29-9.72c-.5-3.51-2.17-7.38-5.29-11.65s-7.84-9-14.61-14.35Z"/><path class="cls-8" d="M1522.52,522.21a47,47,0,0,1,4.53-12.29,10.09,10.09,0,0,1,.79-1.76c-1.79,2.15-3.87,4.31-5,6.63A7.76,7.76,0,0,0,1522.52,522.21Z"/><path class="cls-8" d="M1531.61,501.57c2.61-4.31,5.72-9.09,7.18-11.68-10.37.9-17.73,2.84-18.52,6.58,0,0,2.77,1,5.58,2.18S1531.51,501.06,1531.61,501.57Z"/><path class="cls-12" d="M1583.17,437.44a31.35,31.35,0,0,0-4.44-11.93,90.28,90.28,0,0,0-11.47-15.21c-2.65,2.73-2,6.7,1,11.37S1576.58,431.79,1583.17,437.44Z"/><path class="cls-13" d="M1515.33,390.07c21.64,19,20,29.28,3.93,37.92a11,11,0,0,0-5.64,3.59,9.15,9.15,0,0,0-1.83,5.28c-.26,3.95,1,8.54,1.65,13s1,8.8-1.42,12.36-7.35,6.4-17.14,8c-5.65.94-1.52,5.21,2.57,9.7s7.94,9.2,1.35,11.59c5.08,2.49,14.33,5.67-1,3,.29,5-1.29,9.64-3.78,14.2a94.08,94.08,0,0,1-9,13.35,40,40,0,0,0-7.28,14.46,99.4,99.4,0,0,0-2.38,15.21,110.07,110.07,0,0,1-2,15.27,43,43,0,0,1-6.17,15.14,66.85,66.85,0,0,1-6.37,11.63l-4,6c-1.33,2-2.66,4.11-3.92,6.21s-2.47,4.2-3.53,6.33c-.53,1.07-1,2.14-1.47,3.21s-.81,2.14-1.14,3.21a25.26,25.26,0,0,0-.89,12.83c17.42-1,32.6-2.43,43.4-4.19s17.24-3.84,17.18-6.35c2.29-2.54,4.24-5,6-7.39a64.21,64.21,0,0,0,4.56-7,50.49,50.49,0,0,0,3.13-6.69,45,45,0,0,0,2.08-6.48,44.27,44.27,0,0,0,1-6.34c.17-2.09.34-4.17.32-6.25s-.11-4.16-.29-6.23c-.1-1-.21-2.08-.34-3.12l-.33-3.13c-3.54-3.36-6.14-6.7-7.4-9.93a10,10,0,0,1-.76-4.73,9.4,9.4,0,0,1,1.62-4.47,20.79,20.79,0,0,0,2.71,5c.61.85,1.28,1.7,2,2.56s1.61,1.73,2.51,2.6c-.25-1.9-.46-3.8-.66-5.71s-.44-3.84-.65-5.78-.42-3.88-.56-5.84-.18-3.93-.19-5.92c-.29.19-.47.41-.75.6.19-1.87.4-3.76.77-5.66a7.24,7.24,0,0,1-.9-3.82,9.5,9.5,0,0,1,1.09-3.59,43.61,43.61,0,0,1,4.9-6.73c.4-.8.92-1.81,1.54-2.94l2.16-3.7a14.42,14.42,0,0,1-.5-5.85,6.69,6.69,0,0,1,1.93-3.79,9.28,9.28,0,0,1,5.54-2.15,11.43,11.43,0,0,0,.87-1.79,50.58,50.58,0,0,1,4.17-5.55c.77-.89,1.57-1.77,2.39-2.63s1.72-1.7,2.61-2.53c3.57-3.31,7.4-6.43,11.19-9.43-1.59-5-1.46-9.68,7.2-12.06,6.77-1.38,9.71-4.59,11.33-7.4s2-5.19,3.46-4.82a18.11,18.11,0,0,0,.31-7c-3.35-2.78-6.43-5.51-9-8.11a51.35,51.35,0,0,1-6.19-7.4,15.81,15.81,0,0,1-2.73-6.4,5.68,5.68,0,0,1,1.56-5c-2.7-2.92-5.77-6-9.26-9.36-6.33-6-18.18-12.31-31.9-18.09A72.69,72.69,0,0,1,1515.33,390.07Z"/></g></g><g class="cls-4"><g class="cls-4"><path class="cls-5" d="M1740.4,524.7c14.77-5.12,5-3.9-.82-4a15.12,15.12,0,0,1-.94,1.25A28.74,28.74,0,0,1,1740.4,524.7Z"/><path class="cls-5" d="M1738.64,521.93a15.12,15.12,0,0,0,.94-1.25,16.55,16.55,0,0,1-1.89-.12C1738,521,1738.33,521.46,1738.64,521.93Z"/><path class="cls-5" d="M1732.83,527.2c3.05-1,5.53-1.79,7.57-2.5a28.74,28.74,0,0,0-1.76-2.77A32.82,32.82,0,0,1,1732.83,527.2Z"/><path class="cls-5" d="M1737.69,520.56c-.36-.47-.64-1-1-1.43C1735.66,520,1736.31,520.38,1737.69,520.56Z"/><path class="cls-6" d="M1606.79,517q-.91,21.5-.33,42.18c6.84-6,13.85-12,18.23-16.8C1638.92,527.71,1620.67,523.05,1606.79,517Z"/><path class="cls-7" d="M1608.68,579.31q.57,6.81,1.31,13.6C1612.52,587.56,1613.1,582.66,1608.68,579.31Z"/><path class="cls-6" d="M1611,516.35c13.87,6.06,32.12,10.72,17.9,25.37-4.38,4.77-11.39,10.76-18.24,16.81q.45,16.47,1.79,32.6c4.43,3.36,3.85,8.25,1.31,13.6C1618.3,647,1627.47,688,1641,730.48c.79,2.49,11.71,13.41,24.1,12.22l10.08,1.59,5.35-1.7c-.68-4,.32-8.51-4.26-11.66-.79-2.5-7.38-3.14-8.18-5.63-3.56-11.21-.92-23-16.49-31.77-7-1.9,14.24-15.49,7.26-17.39-10.55-13.1,8.7-32.92-1.46-44.77-9.36-9.36-23.33-13.15-21.09-26.2-.79-2.49-7.78-4.38-8.57-6.87.66-18,1.31-36.06,7.78-55.93-1.19-3.74,20.82-14.85,13.84-16.74-13.18-1.3-20.57-4.43-28-7.57-.4-1.24,16.61-8,15.82-10.5,1.42-11-17.55-14.76-20-23.55-1.57,1-3,2-4.35,3Q1611.56,501.91,1611,516.35Z"/><path class="cls-6" d="M1610.78,457.84a50.62,50.62,0,0,1,8.32,1.77c9.08-11.86,7.94-22.09-5-27.82Q1612.19,445,1610.78,457.84Z"/><path class="cls-6" d="M1613.45,472.18l.9-.58q-.84,7.77-1.5,15.41c1.35-1,2.78-2,4.35-3-.73-2.61-.06-5.64,3.12-9.48.92-1,1.75-2.07,2.54-3.1a45.47,45.47,0,0,0-6.09-1.38c.6-.38,1.13-.73,1.77-1.12,7.31-4.69,6.11-7.48.56-9.32-.78,1-1.62,2.05-2.54,3.09C1613.38,466.54,1612.71,469.58,1613.45,472.18Z"/><path class="cls-8" d="M1770.93,426c-14.64,14.24,16,10,7.12,22.41-5.37,8.71-2.41,14.52,2.22,19.76,3-16.26,5.78-31.88.91-45.2A59,59,0,0,1,1770.93,426Z"/><path class="cls-9" d="M1686.05,413.69c9.51-.25,14.73,1.62,13,7.05-3.42,9.31-18.84,21.07-16.86,27.29-.26,19.27,52.48,24.45,17.41,54.79-29.67,27.24-.53,38.55,5.41,57.22,1.18,3.74,14.37,5,15.56,8.77,4,12.45,7.52,23.65,11.08,34.86,2.77,8.72-25.85,19.18-16.88,27.3.4,1.24-10.42,7.41-10,8.66,14.67,26.9,19,58.34,17.44,90.48,12.8-3.77,25.15-7.69,36.43-11.59-9.37-18.78,2.44-44.93,1.64-65,3.68-28.58-15.83-49.8-12.15-78.39,1.25-13.25,2.13-27.37-3.9-38.6-2,.71-4.52,1.52-7.57,2.49a32,32,0,0,0,5.8-5.27c-.3-.46-.61-.91-.94-1.36-1.38-.18-2-.57-1-1.43.4.45.68,1,1,1.43a16.39,16.39,0,0,0,1.89.12c8.45-12.71-24.22-13.5-15.85-22.12,28.88-29.74-19.25-40.5-7-62.21,6.86-20.3.44-33.73-29.12-37.61C1689.73,411.61,1688,412.65,1686.05,413.69Z"/><path class="cls-10" d="M1632.32,431.93c-3.4,1.63-6.31,3.06-8.55,4.18,34.91,1.23,38.68,17.49,39.52,33,.4,1.25-10.42,7.42-15.42,11.76-3.83,8.07,26.36,2.59,22.15,9.41-32.56,58.32,16.08,90.84,35.73,132.58.79,2.49-29,9.21-33.6,14.79-2.65,11.8,5.93,18.67-8.72,32.93-5.4,3.08,13.19,1.29,20.19,3.18,21.74,8.16-3.31,29.83,12.66,39.84,10.92,4.65,6,14.35,13.4,20.12q6.27-1.77,12.46-3.6c1.54-32.14-2.77-63.58-17.44-90.48-.4-1.25,10.42-7.42,10-8.66-6.93-6.27,20.37-16.32,16.88-27.3-3.63-11.41-7.07-22.23-11.08-34.86-1.19-3.74-14.38-5-15.56-8.77-5.94-18.67-35.08-30-5.41-57.22,35.07-30.34-17.67-35.52-17.41-54.79-2-6.22,13.44-18,16.86-27.29,1.78-5.43-3.44-7.3-13-7.05-13.41,7.29-32.93,14.78-52.82,21.1C1633,434.08,1632.65,433,1632.32,431.93Z"/><path class="cls-11" d="M1673.76,411.63c-54,20.93-70.56,32.15-38.29,16.68.34,1.06.69,2.16.91,2.87,19.9-6.33,39.42-13.82,52.82-21.1A132.56,132.56,0,0,0,1673.76,411.63Z"/><path class="cls-11" d="M1618.52,438.78c-.24,1.62-.46,3.23-.68,4.84,13,5.73,14.1,16,5,27.81,5.55,1.85,6.75,4.64-.56,9.33-1.86,1.13-3.5,2.2-5.1,3.25,2.43,8.79,21.4,12.52,20,23.55.79,2.48-16.22,9.26-15.82,10.5,7.39,3.14,14.78,6.27,28,7.57,7,1.89-15,13-13.84,16.74-6.47,19.87-7.12,37.9-7.78,55.93.79,2.49,7.78,4.38,8.57,6.87-2.24,13.05,11.73,16.84,21.09,26.2,10.16,11.85-9.09,31.67,1.46,44.77,7,1.9-14.23,15.49-7.26,17.39,15.57,8.76,12.93,20.56,16.49,31.77.8,2.49,7.39,3.13,8.18,5.63,4.58,3.15,3.58,7.65,4.26,11.66l19.79-6.29c3.14-.84,6.27-1.71,9.4-2.59-7.43-5.77-2.48-15.47-13.4-20.12-16-10,9.08-31.68-12.66-39.84-7-1.89-25.59-.1-20.19-3.18,14.65-14.26,6.07-21.13,8.72-32.93,4.6-5.58,34.39-12.3,33.6-14.79-19.65-41.74-68.29-74.26-35.73-132.58,4.21-6.82-26-1.34-22.15-9.41,5-4.34,15.82-10.51,15.42-11.76-.84-15.5-4.61-31.76-39.52-33C1620.44,437.77,1618.52,438.78,1618.52,438.78Z"/><path class="cls-8" d="M1781.28,557.1a98.31,98.31,0,0,1-3-17.61,17.29,17.29,0,0,1-.34-2.59C1777.31,544.14,1776,551.84,1781.28,557.1Z"/><path class="cls-8" d="M1777.32,526.7c-.33-6.77-.66-14.44-1-18.5-8.18,7.14-13.29,13.56-11.72,18.49C1764.61,526.69,1776.55,525.55,1777.32,526.7Z"/><path class="cls-12" d="M1776.42,414c-5.84-8.07-15.75-15-31.88-20.21C1744.65,404.18,1758.12,409.91,1776.42,414Z"/><path class="cls-13" d="M1691.39,410.57c29.56,3.88,36,17.31,29.12,37.61-12.27,21.71,35.86,32.47,7,62.21-8.37,8.62,24.3,9.41,15.85,22.12,5.8.11,15.59-1.1.82,4,6,11.23,5.15,25.35,3.9,38.6-3.68,28.59,15.83,49.81,12.15,78.39.8,20.07-11,46.22-1.64,65,33-11.39,56.65-22.55,54.58-29,9.77-31.33,2.33-52.83-7.74-73.63-9.83-5.88-16.08-12.82-15.53-21.73a40.86,40.86,0,0,0,11.77,9.9c-4.56-9.43-9.61-18.74-13.92-28.71-.15.38-.2.73-.34,1.11-.84-2.45-1.67-4.91-2.35-7.48-5.29-5.26-4-13-3.36-20.21-.21-2.4-.4-6.13-.6-10.2-.77-1.14-9.17-11.35-1-18.49a19,19,0,0,0-.36-2.71c-.5-12.33,2-25,4.3-37.33-4.63-5.24-7.59-11.05-2.22-19.76,8.85-12.41.34-24.33,3.13-25.45a37.05,37.05,0,0,0-4.76-8.93c-18.3-4.11-31.77-9.85-31.88-20.22-4.16-1.35-8.73-2.59-13.75-3.72-9.11-2-22.39.07-36.73,4.1A56.41,56.41,0,0,1,1691.39,410.57Z"/></g></g><path d="M1157.57,796.73c4,4.42,8.13,8.66,12.41,12.76a127.66,127.66,0,0,0,12,9.84c4.3,3.22,8.66,6.38,13,9.56s8.42,6.09,12.64,9.11c2,1.44,4.09,2.82,6.16,4.17q3.65,2.4,7.33,4.72c4.41,2.78,8.94,5.33,13.51,7.83,9.11,5,18,10.39,27.25,15.1,2.33,1.19,4.67,2.34,7,3.52s4.69,2.22,7,3.31c4.57,2.11,9,4.5,13.38,7,2.09,1.21,4.15,2.48,6.28,3.62s4.48,2.44,6.78,3.54c4.76,2.27,9.6,4.35,14.47,6.35s9.75,3.67,14.73,5.21c2.46.76,4.94,1.49,7.41,2.24s5.19,1.62,7.79,2.42l7,2.15c2.62.79,5.26,1.52,7.91,2.24l7.12,2c2.55.7,5.13,1.3,7.72,1.85a66.62,66.62,0,0,0,8.89,1.2c1.22.09,2.44.11,3.66.17a49.89,49.89,0,0,0,5.47-.1s0,0,0,0c-1.6-.5-3.19-1-4.81-1.46-1.19-.32-2.38-.65-3.55-1-2.58-.8-5.17-1.56-7.72-2.45-5-1.76-10.13-3.16-15.25-4.54-2.37-.65-4.76-1.29-7.11-2-2.59-.78-5.17-1.58-7.75-2.38-4.85-1.49-9.71-2.95-14.56-4.44-3.55-1.1-7.07-2.25-10.57-3.52-3.28-1.19-6.49-2.55-9.71-3.88-2.23-1-4.44-2-6.64-3s-4.57-2.28-6.84-3.48-4.46-2.46-6.68-3.73-4.17-2.46-6.33-3.58-4.47-2.34-6.74-3.44-4.84-2.27-7.27-3.38-4.55-2.25-6.81-3.37-4.71-2.36-7-3.62c-4.52-2.48-9-5-13.5-7.57-4.68-2.67-9.43-5.22-14.16-7.83-4.48-2.49-8.87-5.19-13.15-8-2.23-1.46-4.47-2.91-6.65-4.43s-4.16-2.94-6.23-4.42c-4-2.86-7.92-5.77-11.89-8.65s-8-5.81-12-8.78c-2.14-1.68-4.25-3.41-6.42-5.07-2.47-2-5-3.9-7.61-5.64-3.27-2.18-6.62-4.2-10-6.14h0A0,0,0,0,0,1157.57,796.73Z"/><path d="M1364.63,691l-3.65.11c-3.28.12-6.55.26-9.83.45-2.78.15-5.56.41-8.32.8l-2.9.4c-1.19.17-2.37.41-3.54.68-2.35.55-4.65,1.37-6.94,2.1-5.8,1.85-11.5,4-17.23,6-5.54,2-11,4.06-16.54,6.15-5.23,2-10.43,4.08-15.65,6.11-5.39,2.1-10.76,4.29-16.14,6.44-1.39.55-2.78,1.09-4.15,1.68l-4.61,2c-2.72,1.18-5.4,2.49-8.08,3.76l-8.58,4c-2.46,1.16-4.93,2.29-7.37,3.52-5.17,2.6-10.19,5.5-15.22,8.37-2.52,1.44-5,3-7.48,4.5l-4.07,2.54c-1.23.76-2.42,1.58-3.62,2.38-2.52,1.7-5,3.46-7.47,5.22s-4.83,3.62-7.16,5.53c-1,.87-2.06,1.76-3.07,2.68-1.72,1.54-3.42,3.08-5,4.74a44.74,44.74,0,0,0-3.63,4.39,30.32,30.32,0,0,0-3.14,5.36,17,17,0,0,0-1.49,5,22.15,22.15,0,0,0-.21,2.69c0,1.06.1,2.12.15,3.17l.06,1.21s0,0,0,0c.29-1.26.56-2.52.83-3.79a22.52,22.52,0,0,1,1.22-3.78,27.33,27.33,0,0,1,3.38-5.42,87.35,87.35,0,0,1,10.36-10.71c.8-.72,1.58-1.46,2.42-2.15l3.12-2.55,3.69-2.74c1.19-.88,2.43-1.71,3.65-2.56,2.31-1.63,4.69-3.18,7.06-4.73,1.09-.72,2.22-1.36,3.33-2,1.35-.82,2.7-1.65,4.06-2.46,2.49-1.5,5-2.92,7.59-4.34,2.38-1.34,4.77-2.65,7.18-3.95s5.1-2.75,7.73-4q8.54-4,17.07-8c3.19-1.5,6.43-2.89,9.67-4.28,5.33-2.1,10.63-4.25,16-6.32,2.83-1.1,5.68-2.17,8.5-3.29,2.51-1,5-2,7.52-3q8.88-3.39,17.77-6.68c2.67-1,5.35-1.93,8-2.89s5.31-1.91,8-2.8c2.43-.79,4.86-1.56,7.31-2.31a39.67,39.67,0,0,1,6.12-1.31l3.67-.5-.4,0,5-.43c1.37-.12,2.75-.16,4.12-.23,3-.16,5.92-.24,8.88-.34,1.54,0,3.07-.07,4.61-.1,1.29,0,2.58,0,3.87,0,3.18.07,6.35.19,9.53.31,5.84.23,11.68.36,17.52.48s11.41.21,17.11.22c2,0,4-.07,6-.17s4.1-.34,6.15-.39a51.87,51.87,0,0,0,6.07-.65c2-.29,4-.68,6-1h0l.38-.05s0,0,0,0c-1.46-.34-3-.55-4.42-.79s-2.89-.43-4.33-.63l-2.06-.26c-.76-.09-1.54-.06-2.31-.08s-1.45-.13-2.17-.18l-2-.15c-6-.41-11.93-.31-17.9-.35-5.65,0-11.3-.13-17-.32-6.25-.21-12.5-.46-18.75-.6h-.67C1366.93,690.88,1365.78,690.93,1364.63,691Z"/><path d="M1425.47,926.21c3.81,2.71,7.73,5.28,11.44,8.14l-.39-.29c3.43,2.66,6.76,5.45,10.15,8.15,1.85,1.48,3.74,2.92,5.55,4.46l7.73,6.53c1.48,1.25,3,2.42,4.53,3.61l7.47,5.83c.58.45,1.18.87,1.78,1.29l4.16,2.92,6.68,4.69c.69.47,1.41.9,2.11,1.35l4.61,3,4.49,2.89c.61.39,1.21.81,1.83,1.17l7.36,4.32,4.4,2.58c.5.29,1,.6,1.5.86l8.45,4.34,3.48,1.78c.57.29,1.17.53,1.75.79l9.25,4.08c2.34,1,4.76,1.85,7.13,2.74,4.21,1.59,8.42,3.14,12.74,4.4,1.71.49,3.44.94,5.17,1.35,1.33.32,2.68.66,4,.88l4.55.74,3.75.6c1.47.24,3,.37,4.44.55,1.11.13,2.23.32,3.35.39l4.86.34c2.43.17,4.88.17,7.32.2,1.36,0,2.71,0,4.07,0,1.13,0,2.26-.2,3.39-.11a9,9,0,0,0,1.87.1l2.1-.24c1.6-.21,3.21-.4,4.79-.68a5.2,5.2,0,0,0,4-2.63,3.61,3.61,0,0,0,.42-1.57,9.49,9.49,0,0,0-.14-1.41,18.75,18.75,0,0,0-.72-2.64c-.35-1.16-.68-2.34-1-3.49-.77-2.42-1.51-4.85-2.31-7.26q-2.49-7.49-5.24-14.87c-.94-2.54-1.91-5.06-2.93-7.56-.49-1.23-1-2.46-1.52-3.68s-.92-2.31-1.48-3.41-1.1-2.22-1.73-3.28-1.4-2.4-2.13-3.57q-2.16-3.4-4.33-6.79a62.92,62.92,0,0,0-5.07-6.75,49.12,49.12,0,0,0-5-5.27,52.83,52.83,0,0,0-5.44-4.23,44.52,44.52,0,0,0-6.14-3.34s0,0,0,0c1.25,1.3,2.5,2.6,3.71,3.93s2.07,2.45,3.06,3.7l-.17-.22.18.24.07.08-.06-.07,1,1.27,2.28,3.09c.75,1,1.43,2.13,2.16,3.18,1.47,2.11,3,4.18,4.45,6.3s2.89,4.45,4.31,6.69,2.63,4.26,3.78,6.49c.43.84.83,1.68,1.21,2.56s.7,1.62,1,2.44c1,2.29,1.88,4.59,2.77,6.91s1.69,4.57,2.52,6.86q2.67,7.35,5,14.79c.38,1.2.78,2.39,1.15,3.6.25.87.51,1.73.77,2.6s.46,1.43.64,2.16c-.7.16-1.42.24-2.13.34l-1.34.18c-.73.1-1.45.18-2.18.26a10.2,10.2,0,0,0-1.64.27l-1.32.34a130.45,130.45,0,0,1-13.12.1c-.93,0-1.86-.11-2.79-.17s-2.06-.08-3.07-.2l-6.62-.76-7-1.1a90,90,0,0,1-13.35-3.29c-5.3-1.69-10.48-3.72-15.68-5.69l-7.6-3.36-3.26-1.45c-.68-.3-1.32-.68-2-1l-9.3-4.8c-1.65-.85-3.23-1.83-4.83-2.78l-8.76-5.18c-1.67-1-3.28-2.1-4.9-3.16l-8.27-5.37c-1.74-1.13-3.41-2.4-5.11-3.61-2.38-1.69-4.77-3.37-7.14-5.07l-6.14-4.86c-1.64-1.3-3.31-2.56-4.89-3.92l-7.72-6.62c-1.64-1.42-3.34-2.77-5-4.14-1.21-1-2.41-2-3.64-3s-2.44-1.83-3.72-2.69a51.73,51.73,0,0,0-8.64-4.65,80.4,80.4,0,0,0-9.69-3.24h0S1425.46,926.2,1425.47,926.21Z"/><path d="M1681,816.07c-.86,2.33-1.77,4.65-2.56,7-.7,2.12-1.37,4.24-2,6.38-.53,1.84-1,3.69-1.42,5.55-.3,1.3-.59,2.6-.84,3.91-.47,2.42-.64,5-1.52,7.27-.11.26-.23.51-.36.76a8.4,8.4,0,0,0-.62,1.28c-.07.26-.15.51-.22.77-.41.79-.86,1.56-1.34,2.32s-1.06,1.57-1.6,2.35c-2.37,3-5,5.81-7.58,8.62-1.33,1.44-2.61,2.94-4,4.35-.72.75-1.42,1.49-2.11,2.25-.29.32-.58.63-.88.94a4.83,4.83,0,0,0-1.52,2.1,2.48,2.48,0,0,0-.06.54l-.73.67c-1,.91-2,1.79-3.06,2.68q-2.82,2.48-5.65,4.92-6,5.22-12,10.42c-3.35,2.91-6.73,5.8-10.09,8.69l-7.5,6.46q-3.92,3.36-7.93,6.59l-2.25,1.78q-1.63,1.26-3.33,2.46a35.55,35.55,0,0,1-3.75,2.34c-1,.54-2,1-3,1.55s-1.92.77-2.91,1.12-2.18.67-3.29,1c-2.06.56-4.19.88-6.29,1.28-1.37.16-2.74.32-4.13.37-1.74.07-3.48.15-5.21.25-3.53.19-7,.46-10.56.8,0,0,0,0,0,0,5.23.93,10.5,1.69,15.79,2.13a29.19,29.19,0,0,0,7.41-.37,53.36,53.36,0,0,0,7.26-1.77c1.15-.36,2.25-.82,3.36-1.28.62-.25,1.21-.57,1.82-.87.79-.41,1.59-.82,2.37-1.24a37.67,37.67,0,0,0,4.09-2.66c1.49-1.08,2.94-2.2,4.38-3.34s2.6-2.09,3.89-3.15c1.08-.89,2.18-1.77,3.25-2.67l12.92-11q11.06-9.45,22.1-18.93l4-3.39,1.66-1.43c1-.9,2.12-1.78,3.07-2.76a2.24,2.24,0,0,0,.63-1.58l.06-.06c.82-.86,1.66-1.71,2.46-2.6,1.65-1.84,3.31-3.67,5-5.48s3.08-3.42,4.6-5.15a38.53,38.53,0,0,0,4.37-6.1c.18-.31.34-.64.5-1l.14-.16.21-.27a7.66,7.66,0,0,0,.74-1.14,17.16,17.16,0,0,0,1.6-4.68c.43-2,.71-4,1-6.07.4-2.72.7-5.44.92-8.17.39-4.85.68-9.71.71-14.58a0,0,0,0,0,0,0A0,0,0,0,0,1681,816.07Z"/><path d="M1758.25,545.08a5.32,5.32,0,0,0-2.51.78,5.09,5.09,0,0,0-1.91,2.38,38.3,38.3,0,0,0-2,6.83c-.34,1.42-.69,2.84-1,4.27-.65,2.66-1.25,5.33-1.86,8-.29,1.24-.58,2.48-.86,3.72-.25,1.08-.54,2.16-.71,3.25l-.66,4.11c-.25,1.58-.35,3.18-.51,4.76q-.17,1.54-.27,3.09c-.11,1.33-.25,2.67-.3,4s-.11,2.88-.17,4.31c0,1.25,0,2.52,0,3.77,0,2.64.21,5.3.41,7.94.12,1.51.27,3,.42,4.52s.47,3.3.71,5a14.2,14.2,0,0,1,.09,2.26,8.5,8.5,0,0,1-.25.9c-.07.13-.14.25-.22.37a35.88,35.88,0,0,1-3.58,3.61c-.8.73-1.64,1.4-2.49,2.06-1.87,1.42-3.79,2.78-5.68,4.18-2.26,1.69-4.43,3.47-6.59,5.28-.86.73-1.75,1.43-2.58,2.19-1,.92-2,1.84-3,2.78s-1.62,1.66-2.41,2.5c-1,1.05-2,2.09-3,3.12-1.72,1.78-3.5,3.51-5.25,5.26s-3.43,3.51-5.13,5.28l-2.76,2.82a38.77,38.77,0,0,0-2.82,3.33,29.11,29.11,0,0,0-1.94,3c-.64,1.09-1.25,2.21-1.82,3.34a60.52,60.52,0,0,0-2.6,6.41c-.78,2.17-1.48,4.38-2.36,6.52v0c-.11.26-.23.51-.34.77,0,0,0,0,0,0a56.15,56.15,0,0,0,5-6.28c.67-.94,1.31-1.92,2-2.86s1.34-1.82,2-2.72l.87-1.12.54-.69c.75-.95,1.49-1.9,2.27-2.83s1.63-1.81,2.47-2.7c1.77-1.87,3.58-3.7,5.38-5.53s3.36-3.46,5.07-5.16,3.66-3.67,5.44-5.56q1.48-1.57,3-3.13c1-1.07,2.18-2,3.28-3s2.22-1.86,3.33-2.78,2.14-1.77,3.22-2.64c3.3-2.49,6.7-4.84,9.89-7.47.75-.62,1.45-1.31,2.15-2s1.29-1.31,1.9-2a9.1,9.1,0,0,0,1.23-1.67,8.5,8.5,0,0,0,.75-2.12,16.61,16.61,0,0,0-.26-6c-.14-.89-.27-1.78-.4-2.67-.25-2.45-.48-4.9-.62-7.36-.08-1.44-.14-2.87-.19-4.3s0-2.68,0-4c0-2.47.18-4.94.36-7.4.21-2.75.48-5.48.76-8.22v0c.16-1,.33-2.1.5-3.15s.43-2.15.66-3.22c.5-2.29,1-4.56,1.56-6.84.44-1.92.88-3.83,1.35-5.75.35-1.45.71-2.9,1.07-4.35a43,43,0,0,1,1.51-5.44c0-.1.1-.21.16-.31l.61.19,2,.88a8.78,8.78,0,0,0,1.3.56l1.08.29c.36.2.73.41,1.08.63.53.32,1.07.61,1.58,1,1.06.72,2.1,1.47,3.14,2.23,1.79,1.43,3.56,2.88,5.26,4.42q3.2,2.88,6.33,5.84c3.85,3.62,7.44,7.52,11,11.39,4.16,4.46,8.34,8.95,12.11,13.76a91,91,0,0,1,5.46,7.95,67.19,67.19,0,0,1,4.4,8.67c0-.09-.07-.17-.1-.26l.15.38.07.16-.06-.14a93.57,93.57,0,0,1,3.18,9.54c.32,1.15.57,2.34.86,3.51.59,2.38,1.18,4.76,1.73,7.15.59,2.6,1.21,5.2,1.71,7.82.24,1.27.54,2.54.73,3.82l.51,3.46c.23,2.86.42,5.72.49,8.58,0,1.47.07,2.93.07,4.4A60.48,60.48,0,0,1,1823,664a26.87,26.87,0,0,1-1.56,5.56c-.72,1.61-1.68,3.11-2.54,4.65-.63,1.12-1.28,2.24-1.92,3.37-1.23,2.16-2.52,4.28-3.82,6.4-2.63,4.27-5.41,8.44-8.2,12.61-2.31,3.45-4.65,6.87-7,10.29-1.93,2.79-4,5.5-6,8.24-.79,1-1.57,1.94-2.35,2.92s-1.54,2-2.36,2.92l-5.27,6c-1.85,2.12-3.79,4.16-5.69,6.23-.56.61-1.18,1.19-1.77,1.77l-3.9,3.89c-2.32,2.31-4.83,4.43-7.27,6.62-.92.83-1.89,1.61-2.85,2.4l-4.06,3.37-3,2.27c-.85.65-1.67,1.34-2.55,1.93-2.09,1.41-4.16,2.82-6.26,4.2q-7.11,4.64-14.29,9.18c-2.1,1.33-4.27,2.57-6.36,3.93s-3.92,2.56-5.84,3.9c-.76.52-1.49,1.1-2.28,1.59q-1.83,1.17-3.64,2.38c-.83.55-1.71,1-2.55,1.55-1.36.87-2.71,1.75-4,2.67,0,0,0,0,0,0q2.32-.67,4.64-1.39c1-.31,2.05-.57,3-.94,1.33-.5,2.64-1,3.94-1.55s2.49-1.17,3.71-1.78c2.25-1.13,4.45-2.32,6.61-3.61s4.14-2.55,6.19-3.86q7-4.51,14-9.1c1.11-.73,2.2-1.49,3.3-2.24.84-.57,1.71-1.11,2.51-1.73,2.13-1.63,4.31-3.22,6.39-4.94l4.13-3.42c.64-.53,1.28-1,1.9-1.59l6.4-5.71c.87-.78,1.67-1.66,2.5-2.48l3.67-3.63c.53-.52,1-1.07,1.53-1.62l3.69-4c1.73-1.89,3.4-3.81,5.09-5.73s3.37-4,5-6.06,3.29-4.27,4.9-6.44c1.47-2,2.88-4,4.29-6,3-4.24,5.82-8.53,8.68-12.84s5.64-8.66,8.25-13.12c1.29-2.21,2.54-4.44,3.88-6.62a23.78,23.78,0,0,0,1.74-3.17,25.27,25.27,0,0,0,1.7-5.24,37.87,37.87,0,0,0,.57-7.74c0-2.71-.07-5.4-.15-8.11,0-1.23-.11-2.48-.21-3.71s-.2-2.74-.4-4.1-.34-2.51-.58-3.75l-.93-4.74c-.51-2.64-1.18-5.25-1.79-7.87s-1.27-5.09-1.9-7.64c-.44-1.74-.94-3.46-1.46-5.18a76.89,76.89,0,0,0-4-10.28A87.16,87.16,0,0,0,1804,584.36c-2.13-2.52-4.41-4.93-6.64-7.37-1.7-1.87-3.44-3.71-5.17-5.56s-3.57-3.73-5.37-5.58c-1.63-1.67-3.33-3.26-5-4.86-1.52-1.43-3-2.87-4.62-4.23-1.9-1.65-3.8-3.3-5.81-4.81-1-.75-2-1.46-3-2.15s-1.89-1.09-2.81-1.68l-.34-.27a5.61,5.61,0,0,0-1-.75c-.67-.32-1.35-.62-2-.92a9.73,9.73,0,0,0-3.86-1.1Z"/><path d="M1686.81,650.08c-.1,1.59-.25,3.19-.34,4.78,0,.68-.06,1.36-.08,2s-.11,1.44-.15,2.16q-.26,3.75-.32,7.5c-.06,2.83,0,5.67.13,8.5.13,2.29.28,4.59.38,6.89s.16,4.48.34,6.72c.2,2.56.48,5.11.89,7.64.17,1.06.31,2.14.55,3.19.31,1.39.64,2.76,1,4.14.61,2.44,1.44,4.83,2.27,7.2a0,0,0,0,0,0,0c0-2.9-.14-5.79-.17-8.68,0-1.21-.08-2.43-.07-3.63,0-1.6,0-3.19,0-4.78,0-1.3,0-2.59,0-3.89,0-1-.06-2-.1-3-.09-2.81-.25-5.61-.41-8.41-.14-2.39-.26-4.78-.48-7.17s-.45-4.49-.75-6.73-.62-4.73-1-7.09c-.18-1.09-.33-2.18-.53-3.26a41,41,0,0,0-1.08-4.09,0,0,0,0,0,0,0Z"/><path d="M1702.4,763.42a106,106,0,0,0-7.35,15.77,80.35,80.35,0,0,0-2.52,7.84c-.68,2.66-1.37,5.33-2.09,8-.46,1.68-.87,3.37-1.33,5,0,.13-.11.26-.16.38a9.57,9.57,0,0,0-.49,1.16l-.57,2.17c-.34,1.3-.75,2.57-1.13,3.86s-.74,2.48-1.15,3.71-.87,2.44-1.32,3.66-.8,2.33-1.26,3.47-1,2.36-1.41,3.55c-.94,2.47-1.85,5-2.64,7.47-.34,1.06-.73,2.11-1.1,3.16-.43,1.25-.84,2.5-1.29,3.74q-1.44,4.05-2.82,8.13s0,0,0,0a80.2,80.2,0,0,0,9.76-14.45c1.22-2.42,2.36-4.86,3.38-7.36.51-1.24,1-2.49,1.48-3.74s.79-2.27,1.22-3.39c.9-2.37,1.64-4.77,2.36-7.2.34-1.15.7-2.3,1-3.46.17-.64.35-1.3.52-2a8.64,8.64,0,0,0,.16-1.27c0-.13,0-.26,0-.4.69-2.61,1.33-5.24,2-7.85s1.39-5.24,2.06-7.87q1-3.68,1.78-7.36c.59-2.58,1.05-5.18,1.57-7.77.46-2.34.86-4.69,1.26-7,0,0,0,0,0,0Z"/><path d="M1520.4,488.85a14.2,14.2,0,0,0-2.49.63c-2.61.91-5.14,2-7.68,3.11q-15.3,6.57-30.53,13.34c-1.94.86-3.86,1.76-5.78,2.67-2.88,1.35-5.82,2.65-8.66,4.13-3.39,1.77-6.73,3.64-10,5.68-1.55,1-3.08,2-4.59,3.05-1.15.79-2.33,1.59-3.44,2.45l-7.64,5.88c-.68.53-1.38,1-2,1.6l-3.65,3.15c-1.82,1.57-3.68,3.1-5.43,4.76q-6.55,6.19-13,12.45c-3.51,3.37-7,6.71-10.47,10.14-3.93,3.93-7.84,7.89-11.67,11.91-1.36,1.43-2.7,2.87-4,4.33-.56.6-1.09,1.23-1.66,1.83a16.08,16.08,0,0,0-1.16,1.43,6,6,0,0,0-.75,1.41,4.52,4.52,0,0,0-.22,2.5,44,44,0,0,0,1.21,5.53c.27,1,.55,2,.83,3a10.57,10.57,0,0,0,.58,1.44c.15.35.31.7.47,1,1.6,5.21,3.19,10.42,4.85,15.6.36,1.12.75,2.22,1.13,3.32s.73,2.23,1.16,3.32c.58,1.45,1.1,2.93,1.76,4.33.54,1.19,1.09,2.39,1.65,3.56,2.39,5,4.94,9.93,7.42,14.88s5,9.82,7.47,14.74c2.36,4.66,4.61,9.4,7.2,13.94s5.33,9.26,8.21,13.75l1.78,2.72s0,0,0,0c-.71-2.91-1.46-5.82-2.36-8.68-.51-1.57-1-3.13-1.58-4.68-.44-1.25-1-2.47-1.48-3.7-2.12-5.05-4.74-9.86-7.23-14.73-4.84-9.46-9.82-18.85-14.56-28.36-.91-1.82-1.73-3.69-2.58-5.54-.51-1.27-1-2.55-1.52-3.83s-.82-2.39-1.22-3.58c-.87-2.57-1.68-5.15-2.51-7.73s-1.53-5.07-2.29-7.61q-.23-.71-.42-1.41a14.65,14.65,0,0,1-.52-1.83c-.1-.69-.2-1.37-.31-2.06a7.7,7.7,0,0,0-.25-.91l-.27-.94a61.86,61.86,0,0,1-1.49-6.26c.12-.2.24-.38.37-.56,3.49-4,7.17-7.74,10.84-11.51,3.5-3.59,7-7.16,10.64-10.63l12.86-12.36c1.9-1.83,3.82-3.63,5.74-5.44.69-.66,1.36-1.35,2.08-2l3-2.6c1.8-1.55,3.59-3.11,5.39-4.65l6.64-5.12a125.75,125.75,0,0,1,13.24-8.93q2.38-1.39,4.82-2.68c1-.55,2-1.1,3-1.59l3.82-1.79c2.38-1.13,4.75-2.3,7.16-3.37,9.89-4.4,19.8-8.78,29.75-13l4.72-2a49.35,49.35,0,0,1,4.86-1.89c-.16.46-.33.91-.49,1.37l-1.08,2.93c-.56,1.54-1.19,3-1.79,4.57-1,2.62-2.14,5.2-3.23,7.79l0,0,.09-.21c0,.08-.07.16-.1.23l0,.11a2.62,2.62,0,0,0-.19.46,2.87,2.87,0,0,0-.18.4,2,2,0,0,0-.16.4l-.19.43c-.11.25-.2.5-.3.75a2.24,2.24,0,0,0-.25.6h0c0,.08-.07.16-.1.25h0a2.73,2.73,0,0,0-.26.61l-.12.3a3,3,0,0,0-.24.55l0,.08a2.38,2.38,0,0,0-.23.55c0,.09-.08.17-.11.26a2.66,2.66,0,0,0-.23.52c0,.08-.07.15-.1.23a3.34,3.34,0,0,0-.31.73l-.09.22a3.49,3.49,0,0,0-.22.53c-2.09,4.81-4.17,9.63-6.33,14.41s-4.49,9.28-6.64,14c-2.23,4.86-4.51,9.71-6.78,14.56-2.2,4.7-4.5,9.39-7,13.92-.65,1.17-1.3,2.33-1.93,3.51-.29.56-.57,1.13-.85,1.7a14.81,14.81,0,0,0-1.45,5,19.33,19.33,0,0,0,.64,6.81c.16.62.42,1.23.63,1.83s.49,1.25.75,1.87a78.21,78.21,0,0,0,3.46,7.36q1.8,3.36,3.66,6.69l1.94,3.58s0,0,0,0c-.33-2.45-.77-4.88-1.29-7.29-.4-1.89-1-3.75-1.45-5.62s-1.09-4-1.66-6c-.3-1.1-.62-2.2-.92-3.3a24.75,24.75,0,0,1-.54-2.67,16.37,16.37,0,0,1,0-3,13.6,13.6,0,0,1,.68-2.5c1-2.24,2.3-4.35,3.48-6.51,1.27-2.32,2.49-4.68,3.65-7q3.45-7.07,6.73-14.2l3.68-8c1-2.16,2.08-4.28,3.1-6.41,2.28-4.73,4.41-9.52,6.51-14.33.93-2.13,1.88-4.26,2.78-6.41l0,0-.08.18.09-.21,0-.11a2.41,2.41,0,0,0,.21-.5,2.19,2.19,0,0,0,.17-.38,2.39,2.39,0,0,0,.15-.37c.07-.16.14-.31.2-.47s.19-.45.29-.69l0-.08a2.21,2.21,0,0,0,.23-.55v0l.11-.26a2.62,2.62,0,0,0,.26-.62h0l0-.08.1-.22a2.91,2.91,0,0,0,.22-.51s0-.08,0-.12a2.31,2.31,0,0,0,.24-.56l0,0,.07-.19v0a2.17,2.17,0,0,0,.23-.52c0-.08.07-.15.1-.22a3.61,3.61,0,0,0,.32-.76l.09-.22a2.57,2.57,0,0,0,.21-.52c2-4.79,4-9.58,5.82-14.47.23-.63.46-1.26.7-1.89s.48-1.4.69-2.11a10,10,0,0,0,.24-1.21,5.45,5.45,0,0,0-.07-2.09,3.5,3.5,0,0,0-1.8-2.15,3.78,3.78,0,0,0-1.77-.39A7.92,7.92,0,0,0,1520.4,488.85Z"/><path d="M1497.93,601.38a53.94,53.94,0,0,0-4.27,7.92,37.25,37.25,0,0,0-2.14,7.3,54.46,54.46,0,0,0-1,8.63,66.68,66.68,0,0,0,.3,7.74,119.36,119.36,0,0,0,2.48,15.82s0,0,0,0c.77-5.65,1.39-11.34,1.69-17,.27-5.24.21-10.49.53-15.73.11-1.76.3-3.52.48-5.27.22-1.33.45-2.65.74-4,.4-1.8.82-3.6,1.19-5.41l0,0Z"/><path d="M1663.21,574.72c.32.85.63,1.7,1,2.54.8,2.11,1.54,4.22,2.28,6.35s1.48,4.31,2.13,6.49,1.41,4.61,2,6.94,1.2,4.46,1.76,6.7q1.59,6.3,3.25,12.58c.59,2.19,1.14,4.39,1.69,6.6.26,1,.5,2.07.74,3.11.41,1.77.88,3.55,1.16,5.35.25,2,.5,3.93.66,5.89s.28,3.74.41,5.62c.28,4.23.7,8.46,1.19,12.68,0,0,0,0,0,0,.78-5,1.38-10.12,1.73-15.21a48.29,48.29,0,0,0,0-6.91c-.06-.89-.13-1.78-.25-2.67a41,41,0,0,0-.79-4.09c-.27-1.2-.52-2.41-.81-3.61-.56-2.33-1.11-4.67-1.69-7s-1.16-4.58-1.71-6.87c-1.13-4.69-2.1-9.44-3.47-14.07a46.73,46.73,0,0,0-2.11-5.49c-.78-1.78-1.67-3.49-2.59-5.19s-1.88-3.2-2.89-4.75a52.1,52.1,0,0,0-3.72-5h0Z"/><path d="M1660.91,414.68a4,4,0,0,0-1.39.88,5.32,5.32,0,0,0-.94,1.39,13.82,13.82,0,0,0-.75,1.77c-.13.36-.27.72-.4,1.07-.19.52-.38,1-.52,1.58-.65,2.51-1.22,5-1.89,7.55s-1.39,4.92-2.22,7.35-1.66,4.69-2.42,7.06-1.53,4.81-2.16,7.26a101,101,0,0,0-2.67,15.65c-.24,2.54-.35,5.08-.4,7.64,0,1.16,0,2.31-.05,3.45,0,1.36,0,2.72-.16,4.07-.12,1.55-.24,3.1-.37,4.66-.09,1.19-.25,2.37-.38,3.55-.07.44-.15.89-.22,1.33s-.13,1-.24,1.49c-.25,1-.43,2.09-.75,3.1s-.66,2.19-1.06,3.27-.79,2.07-1.2,3.1c-.72,1.58-1.44,3.15-2.3,4.68a37.73,37.73,0,0,1-3,4.47c-1.09,1.44-2.14,2.91-3.22,4.35a25.9,25.9,0,0,0-3.52,5.37h0c-.05.1-.09.21-.14.31s0,0,0,0a15.78,15.78,0,0,1,1.51-1.44c2-1.52,4.13-3,6.11-4.57a40.82,40.82,0,0,0,5.5-5.09,26.22,26.22,0,0,0,4.13-6.79,46,46,0,0,0,2.54-7.5l.45-1.9c.16-.7.23-1.43.35-2.14.23-1.46.39-2.94.55-4.41.26-2.38.46-4.76.55-7.14.1-2.75.14-5.49.19-8.23,0-2.49.29-5,.55-7.45.08-.75.17-1.49.27-2.23.36-2.46.77-4.92,1.32-7.35s1.24-4.77,2-7.13c1.44-4.86,3.3-9.59,4.74-14.45.65-2.21,1.21-4.45,1.75-6.69.31-1.27.63-2.55,1-3.82a18.79,18.79,0,0,1,.84-2.46c1.2.76,2.34,1.63,3.47,2.47a105.92,105.92,0,0,1,9.29,8.29c1.6,1.62,3.23,3.21,4.79,4.86,1.41,1.5,2.77,3,4.06,4.63.77,1,1.5,2.08,2.18,3.17s1.45,2.44,2.1,3.7c1.24,2.38,2.31,4.85,3.38,7.31.49,1.33,1,2.66,1.46,4,.37,1,.66,2.08,1,3.12s.73,2.24,1,3.36c.39,1.52.78,3,1.18,4.54,1.24,4.8,2.31,9.64,3.36,14.48q1.4,6.43,2.84,12.87c.25,1.13.6,2.25.9,3.36s.51,2,.76,2.94a60.13,60.13,0,0,1,1.17,6,15,15,0,0,1,0,3,20.33,20.33,0,0,1-.88,3.7c-.49,1.05-1.07,2.06-1.63,3.07-.31.54-.61,1.09-.93,1.64a9.9,9.9,0,0,0-.67,1.87c-2.24,4.46-4.41,9-6.61,13.43-1.13,2.31-2.31,4.58-3.58,6.82s-2.48,4.19-3.75,6.27-2.69,4.4-4.17,6.49-3,4.27-4.64,6.36q-4.75,6.27-9.26,12.75-1.26,1.82-2.51,3.65s0,0,0,0q2.09-1.6,4.09-3.3c.88-.74,1.78-1.49,2.63-2.27,2.09-1.94,4.14-3.92,6.11-6a80.09,80.09,0,0,0,9.23-12.12c2.85-4.41,5.6-8.91,8.07-13.55,1.19-2.24,2.26-4.55,3.4-6.82s2.24-4.5,3.37-6.74c.52-1,1-2,1.57-3,.1-.12.2-.23.29-.35a7.54,7.54,0,0,0,.75-1l1-1.82a27.63,27.63,0,0,0,2.32-4.61,21.85,21.85,0,0,0,.7-3,18.8,18.8,0,0,0,.29-2.24,14.72,14.72,0,0,0-.16-3.18c-.2-1.46-.43-2.92-.75-4.36-.61-2.67-1.32-5.33-2-8-.3-1.11-.52-2.24-.77-3.35s-.56-2.45-.82-3.68q-1.8-8.28-3.67-16.54c-.57-2.49-1.25-4.95-1.88-7.42s-1.38-4.75-2.1-7.12c-.38-1.24-.88-2.45-1.32-3.67s-1-2.49-1.54-3.72-1.08-2.42-1.64-3.61-1.14-2.32-1.73-3.46-1.31-2.23-2-3.32a35.14,35.14,0,0,0-2.33-3.22c-1.62-2-3.35-3.89-5.12-5.77-.79-.84-1.63-1.64-2.45-2.46q-1.51-1.51-3.06-3c-1.78-1.74-3.67-3.38-5.58-5a69.68,69.68,0,0,0-6.23-4.71l-.73-.49a11.25,11.25,0,0,0-1.81-.89,2.85,2.85,0,0,0-1.08-.19A4,4,0,0,0,1660.91,414.68Z"/><path d="M1525.47,371.4a11.4,11.4,0,0,0-2.48,1.15c-.47.29-.92.61-1.37.93l-1.69,1.18c-1,.73-2.09,1.45-3.12,2.2l-7.6,5.57c-4.51,3.29-9,6.66-13.43,10-3.62,2.71-7.23,5.44-10.84,8.15-5,3.72-9.92,7.4-14.82,11.19l.17-.13c-3,2.28-5.93,4.56-8.86,6.89s-5.9,4.72-8.59,7.35c-2.25,2.2-4.36,4.54-6.48,6.87a29.52,29.52,0,0,0-4.68,6.38,20.42,20.42,0,0,0-1.65,4.52c-.11.48-.18,1-.25,1.45s-.17,1.12-.22,1.68c-.11,1.25-.22,2.5-.24,3.76,0,.75,0,1.5,0,2.25a17.93,17.93,0,0,0,.18,1.94c.14,1.4.16,2.79.2,4.19s.12,2.66.19,4c.11,2.4.23,4.8.43,7.2.21,2.6.38,5.2.69,7.79l.63,5.22c.14,1.16.35,2.31.55,3.46l.72,4.35a49,49,0,0,0,2.21,8.25,46.13,46.13,0,0,0,4.26,8.77,38,38,0,0,0,6.76,7.4s0,0,0,0c-.64-1.18-1.28-2.37-1.95-3.54a38.53,38.53,0,0,1-1.78-3.44,1,1,0,0,1,.07.15,1.42,1.42,0,0,1-.08-.18,1,1,0,0,0,0-.1l0,.09a75.49,75.49,0,0,1-2.87-9c-.44-1.6-.84-3.21-1.22-4.83s-.76-3-1-4.54c-.4-2.35-.81-4.68-1.21-7s-.64-4.58-.83-6.87c-.23-2.8-.48-5.6-.65-8.4s-.3-5.43-.42-8.14c0-.65,0-1.31,0-2s-.08-1.22,0-1.81l.24-2.36c.06-.6.07-1.21.08-1.82,0-1.56.14-3.11.29-4.66,0-.32.09-.63.14-.95a14.82,14.82,0,0,1,.9-3.27,21,21,0,0,1,2.36-4c2-2.53,4.31-4.87,6.55-7.23a79.93,79.93,0,0,1,6.56-6c3.16-2.66,6.43-5.19,9.69-7.72l-.39.31,4.75-3.67-.53.41c8.17-6.13,16.31-12.3,24.5-18.41,4.25-3.16,8.46-6.35,12.73-9.48l3-2.16c-.53,1-1,2-1.54,3-.61,1.19-1.25,2.38-1.84,3.6l-2,4.07c-.57,1.16-1.07,2.36-1.6,3.54-.61,1.37-1.1,2.8-1.64,4.2-.47,1.2-.81,2.48-1.2,3.72a120,120,0,0,0-3.47,15.58c-.23,1.31-.43,2.62-.64,3.92s-.43,2.72-.58,4.07c-.28,2.72-.51,5.43-.67,8.16-.3,5.16-.36,10.34-.41,15.51,0,2.56,0,5.12-.08,7.67,0,1.18-.09,2.36-.11,3.55,0,1.38,0,2.76,0,4.14,0,2.18.22,4.36.43,6.54.1.94.2,1.87.32,2.81.09.67.19,1.34.28,2a24.76,24.76,0,0,0,.87,3.67s0,0,0,0c0-.71.07-1.42.15-2.13,0,0,0,.07,0,.1.39-2.87,1-5.71,1.46-8.58.39-2.49.8-5,1.16-7.46.21-1.48.41-3,.57-4.44.12-1.18.13-2.37.14-3.55,0-2.57,0-5.15.06-7.72,0-3.36.14-6.73.28-10.09s.41-6.76.76-10.14c.32-2.21.65-4.43,1-6.63.47-2.7,1-5.38,1.52-8.06.26-1.34.62-2.66.93-4,.11-.51.28-1,.43-1.5.18-.64.35-1.28.55-1.91.39-1.24.79-2.48,1.18-3.72.18-.58.44-1.14.66-1.71l.66-1.72c.48-1.07.93-2.15,1.45-3.2.66-1.37,1.34-2.75,2-4.12s1.47-2.88,2.21-4.32a48.92,48.92,0,0,1,4.18-7.08c.93-1.15,1.92-2.25,2.9-3.34l1.26-1.42c.25-.27.5-.55.74-.83a12.57,12.57,0,0,0,.89-1.15,4.65,4.65,0,0,0,.41-1.08,2.68,2.68,0,0,0-2.5-3.34A2.31,2.31,0,0,0,1525.47,371.4Z"/><path d="M1523.89,404.52c-1,.06-2.05.13-3.08.21-2.31.2-4.62.43-6.91.8,0,0,0,0,0,0,2.28.46,4.55,1,6.83,1.46,1,.21,2,.44,3.08.6,1.22.19,2.45.35,3.68.49,2.55.46,5.12.87,7.69,1.25,1.19.18,2.38.4,3.56.58a27.53,27.53,0,0,1,3.39.7c4.73,1.37,9.41,2.91,14.08,4.48,2.16.72,4.34,1.43,6.46,2.27s4.2,1.68,6.29,2.55c4.38,2,8.7,4.2,12.89,6.61,2.11,1.21,4.21,2.45,6.33,3.65a67.7,67.7,0,0,1,6.11,3.81c1,.74,2.08,1.5,3.1,2.28,2.36,1.85,4.71,3.7,7.08,5.53l-.27-.2c4.09,3.2,8.13,6.46,12.18,9.7,1.82,1.45,3.62,2.93,5.43,4.39l3.22,2.59c.87.71,1.71,1.46,2.57,2.19,3.63,3.07,7.15,6.27,10.77,9.35,0,0,0,0,0,0-1.48-2.29-3-4.56-4.63-6.75s-3.17-4-4.87-5.93c-3.39-3.85-7.51-7-11.49-10.23s-7.71-6.28-11.62-9.36c-1.88-1.48-3.73-3-5.62-4.51-2.06-1.62-4.16-3.15-6.34-4.6-1.07-.72-2.22-1.34-3.32-2l-3.16-1.84c-2.07-1.22-4.13-2.48-6.25-3.62s-4.35-2.31-6.56-3.41l-3.29-1.57c-1.12-.53-2.29-1-3.43-1.44-2.34-1-4.68-1.89-7.07-2.72s-4.86-1.61-7.29-2.43-4.72-1.6-7.08-2.36c-1.08-.35-2.17-.76-3.27-1l-2-.48c-.64-.15-1.32-.21-2-.31a66.35,66.35,0,0,0-6.76-.64c-1.81-.09-3.62,0-5.43-.08-.63,0-1.27,0-1.91,0Z"/><path d="M1438.14,393.14a105.14,105.14,0,0,0-11,2.13c-2.33.57-4.67,1.16-7,1.91l-4.11,1.35-5.14,1.68c-.75.25-1.52.47-2.26.75l-8.06,3c-1.88.7-3.73,1.39-5.58,2.17l-9.21,3.9c-1.69.71-3.35,1.51-5,2.3-3.31,1.59-6.58,3.28-9.77,5.12-4,2.3-7.89,4.81-11.76,7.34-2,1.34-4.1,2.66-6.11,4l-4.17,2.91c-.83.57-1.61,1.22-2.4,1.85-2.1,1.68-4.19,3.37-6.25,5.1s-3.9,3.3-5.84,5-3.58,3.13-5.32,4.74-3.62,3.35-5.33,5.12c-.34.36-.67.72-1,1.09a8.15,8.15,0,0,1-.86,1l-.71.55a4.35,4.35,0,0,0-.63.82l-.75,1a56.73,56.73,0,0,1-4.21,4.82c-.53.53-1.11,1-1.6,1.59a3.23,3.23,0,0,0-.9,2.91,2.88,2.88,0,0,0,2.71,2.18,10.47,10.47,0,0,0,2.62-.22c.62-.11,1.23-.24,1.85-.37,1.22-.25,2.42-.56,3.64-.83l3.43-.76c2.5-.56,5-1,7.55-1.53,2.17-.44,4.36-.74,6.56-1.05,1.88-.19,3.75-.38,5.64-.53s4-.32,6.09-.33,4-.07,5.94,0,4.06.25,6.09.46c2.2.3,4.38.65,6.56,1.07a70.62,70.62,0,0,1,7,1.76c2.35.69,4.69,1.43,7,2.16,1.19.37,2.42.64,3.63.94l3.5.85c1.75.42,3.5.9,5.22,1.44s3.47,1.22,5.18,1.89,3.54,1.59,5.28,2.46,3.68,2,5.49,3c1,.54,1.9,1.11,2.86,1.65s1.72.92,2.57,1.39c2,1.1,3.91,2.27,5.79,3.56l-.36-.28,1.77,1.36c2.54,2.06,5.09,4.11,7.62,6.18,0,0,0,0,0,0a79.16,79.16,0,0,0-4.35-6.8c-.81-1.12-1.66-2.19-2.54-3.25A25.87,25.87,0,0,0,1425,481a48.61,48.61,0,0,0-6.07-4.4c-2-1.31-4.13-2.46-6.24-3.6s-4.25-2.12-6.43-3a71.08,71.08,0,0,0-7.23-2.66c-2.4-.7-4.83-1.3-7.27-1.89-1.17-.28-2.34-.56-3.51-.88s-2.39-.7-3.59-1.09a99.7,99.7,0,0,0-14.13-3.55c-2.51-.41-5-.77-7.55-1s-4.82-.26-7.25-.24-5,.09-7.54.29-5.13.42-7.68.77c-1.27.17-2.55.32-3.81.55s-2.64.47-4,.74c-2.34.48-4.69.92-7,1.44l-3.83.85a2.62,2.62,0,0,0,.22-.25c.69-.8,1.32-1.67,2-2.51.29-.38.56-.76.84-1.14a3,3,0,0,0,.3-.48c.1-.2.17-.45.29-.65.66-.81,1.33-1.61,2.06-2.36s1.73-1.75,2.61-2.6c1.73-1.67,3.47-3.31,5.26-4.91s3.72-3.32,5.63-4.95,3.61-3.11,5.46-4.61c1.42-1.14,2.85-2.29,4.26-3.44l5.55-3.88c1.76-1.23,3.6-2.38,5.4-3.56,3.12-2.07,6.27-4.08,9.49-6,2.64-1.58,5.35-3.06,8.09-4.46,1.44-.74,2.9-1.45,4.36-2.15,1-.51,2.09-1,3.16-1.49,3.89-1.64,7.78-3.27,11.66-4.93l-.46.2,7.67-2.84c1.8-.67,3.59-1.35,5.42-1.94l9.51-3.1c1.66-.55,3.35-1,5-1.45q5.4-1.44,10.93-2.38c.65-.11,1.32-.21,2-.3a45.11,45.11,0,0,1,5.45-.4,42.39,42.39,0,0,1,5.51.38c1.69.23,3.37.49,5,.76a23.09,23.09,0,0,1,2.85.66c.88.27,1.74.63,2.6,1l0,0c1.31.56,2.63,1.1,4,1.64,2.19,1.05,4.4,2.05,6.6,3.09,0,0,0,0,0,0-1.3-1.18-2.63-2.3-4-3.4-.86-.7-1.7-1.37-2.62-2-1.49-1-3-2-4.56-2.89a20.3,20.3,0,0,0-4.66-1.75,47.51,47.51,0,0,0-5.38-1.1,34.94,34.94,0,0,0-4.89-.33A47.39,47.39,0,0,0,1438.14,393.14Z"/><path d="M1365,854.09c-1,.27-2,.59-3,.95a26.5,26.5,0,0,0-2.44,1.07,10.29,10.29,0,0,0-2,1.39,21.17,21.17,0,0,0-3.42,4.12c-.38.51-.69,1.08-1,1.62s-.49.78-.73,1.19c-.82,1.46-1.63,2.93-2.41,4.42,0,0,0,0,0,0,2.85-2.61,5.59-5.35,8.62-7.75a12.7,12.7,0,0,1,2-1.23,30,30,0,0,1,4.95-1.28c1.13-.21,2.24-.44,3.37-.61a24.25,24.25,0,0,1,4.59-.06c.48,0,1,.1,1.43.15,1,.19,2,.4,3,.64a26,26,0,0,1,2.7.91,18.79,18.79,0,0,1,1.91.94,30.68,30.68,0,0,1,2.65,1.71c1.67,1.36,3.17,2.91,4.72,4.4s2.78,2.81,4.19,4.19c.65.65,1.23,1.38,1.85,2s1.07,1.16,1.59,1.74c.67.76,1.4,1.47,2,2.25s1.21,1.47,1.81,2.2,1,1.38,1.5,2l0-.06,2.32,3s0,0,0,0a45.21,45.21,0,0,0-1.59-4.68c-.59-1.34-1.24-2.66-1.88-4-.56-1.14-1.25-2.23-1.89-3.32s-1.53-2.37-2.31-3.53-1.82-2.35-2.74-3.49a39.77,39.77,0,0,0-2.73-2.93,31,31,0,0,0-7.52-5.92,26,26,0,0,0-7.06-2.53,47,47,0,0,0-4.87-.63c-.4,0-.81,0-1.21,0A24.39,24.39,0,0,0,1365,854.09Z"/><path d="M1243.61,736.89s0,0,0,0l4,1.34c1.12.37,2.25.72,3.36,1.14,2.4.9,4.8,1.78,7.18,2.7l.6.25c.8.35,1.59.69,2.4,1l1.14.48c1.09.48,2.19.94,3.3,1.39L1265,745c2,.83,4,1.57,5.92,2.39,1.73.72,3.48,1.39,5.22,2.09,3.53,1.42,7.06,2.83,10.58,4.3a60.13,60.13,0,0,1,6.45,3c2.1,1.2,4.11,2.55,6.16,3.84,4.22,2.67,8.43,5.35,12.67,8,3.1,1.93,6.11,4,9.06,6.22.64.53,1.29,1.06,1.92,1.6a30.52,30.52,0,0,1,2.84,2.73c.39.42.76.86,1.13,1.31,1.14,1.36,2.25,2.74,3.35,4.13,1.26,1.69,2.49,3.41,3.66,5.16,1.36,2,2.68,4.08,3.94,6.17a99.25,99.25,0,0,1,5.9,11.92,41.66,41.66,0,0,1,2.3,7.71l-.09-.69c0,.34.09.69.14,1a14.88,14.88,0,0,1,.1,1.77l-.27-.05c-1.75-1.12-3.42-2.35-5.16-3.48s-3.85-2.34-5.79-3.49-4-2.29-6-3.38-4.21-2.3-6.31-3.46-4.19-2.43-6.28-3.65-4.28-2.61-6.41-3.94-4-2.53-6.08-3.78c-1.08-.66-2.18-1.31-3.27-2a33,33,0,0,0-3-1.53c-2.33-1.08-4.74-2-7.12-3s-4.71-1.92-7.08-2.85a102.17,102.17,0,0,0-14-4.58c-1.14-.27-2.27-.57-3.42-.79l-4.5-.85c-1.26-.24-2.55-.38-3.82-.57s-2.58-.34-3.87-.49c-2.39-.29-4.78-.53-7.17-.63-1.23-.06-2.44-.1-3.66-.09h-3.43q-7.82,0-15.62.16c-2.44,0-4.89.14-7.33.25-2.69.13-5.36.32-8,.52-1.24.09-2.47.28-3.71.42s-2.33.29-3.49.48c-2.72.42-5.42.9-8.13,1.4-2.43.45-4.84,1.08-7.24,1.71-2.23.58-4.47,1.27-6.65,2-1.6.56-3.18,1.14-4.73,1.83a14.94,14.94,0,0,0-4.81,3.44,21.15,21.15,0,0,0-1.67,2.17c-.45.66-.88,1.32-1.3,2a39.3,39.3,0,0,0-2,3.73,18.09,18.09,0,0,0-1.06,2.94,17.69,17.69,0,0,0-.42,2.72s0,0,0,0c.09-.22.17-.44.27-.66h0c.31-.72.63-1.43,1-2.12a22.14,22.14,0,0,1,1.67-2.42c.63-.79,1.29-1.55,2-2.3.39-.42.75-.87,1.15-1.28a34.66,34.66,0,0,1,2.75-2.67,15.48,15.48,0,0,1,2.63-1.49c1.07-.41,2.16-.75,3.26-1.08s2.07-.69,3.11-1c2.53-.8,5.07-1.55,7.65-2.22a148.26,148.26,0,0,1,14.76-2.82l4-.45c1.07-.12,2.13-.19,3.21-.27,2.63-.18,5.26-.3,7.9-.41,2.29-.1,4.59-.12,6.88-.15,2.82,0,5.64-.06,8.46-.08l5.69,0h2.16c.91,0,1.82,0,2.72,0l3.43.16c.9,0,1.81.16,2.71.25,1.76.16,3.51.39,5.27.61l3.88.59c1.19.18,2.37.45,3.56.67,1,.2,2.06.41,3.09.65l2.5.59c.38.09.76.16,1.13.27l4.38,1.32c1,.32,2.07.71,3.11,1.08,2.26.8,4.51,1.64,6.73,2.56l5.56,2.3c2.13.9,4.27,1.79,6.35,2.81s4.22,2.4,6.29,3.67c4.18,2.59,8.31,5.3,12.57,7.75,2.08,1.19,4.12,2.43,6.21,3.6l6.37,3.55c2,1.1,3.94,2.31,5.91,3.48s3.81,2.3,5.66,3.51c.77.5,1.5,1,2.26,1.54s1.3.83,2,1.25a2.59,2.59,0,0,0,.82.79c.35.2.7.4,1,.58a9.28,9.28,0,0,0,1.13.47,3.2,3.2,0,0,0,1.91-.11,4.7,4.7,0,0,0,2.36-2.08,4.61,4.61,0,0,0,.47-1.27,9.39,9.39,0,0,0,.23-2c0-.44,0-.89,0-1.34,0-.84-.19-1.69-.3-2.53l.09.7a36.26,36.26,0,0,0-2-7.38c-.45-1.27-1-2.5-1.54-3.74-.45-1-.9-2.06-1.38-3.07-1.06-2.23-2.14-4.45-3.4-6.56-1.36-2.27-2.75-4.51-4.22-6.7s-2.9-4.29-4.51-6.31c-.75-1-1.49-1.93-2.27-2.87a47.51,47.51,0,0,0-4.27-4.7,67.34,67.34,0,0,0-7.34-5.7c-1.88-1.3-3.76-2.6-5.7-3.81-4.24-2.64-8.45-5.32-12.67-8-2-1.29-4.05-2.64-6.16-3.84a61.26,61.26,0,0,0-6.61-3.11c-4.52-1.91-9.07-3.73-13.64-5.53a122.19,122.19,0,0,0-13-4.82c-1.46-.39-2.92-.77-4.4-1s-3.17-.47-4.76-.65a40.77,40.77,0,0,0-4.56-.32C1247.09,736.8,1245.35,736.81,1243.61,736.89Z"/><path d="M1262.17,743.19a14.92,14.92,0,0,0-2,1.35c-1.65,1.26-3.24,2.6-4.81,4-2.75,2.37-5.51,4.72-8.27,7.08l-9,7.71c-2.55,2.19-5.1,4.39-7.75,6.47a1.33,1.33,0,0,1-.19.14,12.42,12.42,0,0,0-2.62,1.9c-.31.23-.62.46-1,.67-.08-.15-.16-.29-.23-.44a32,32,0,0,1-1-5c-.2-1.08-.39-2.17-.57-3.26-.38-2.22-.71-4.46-1.17-6.67s-.94-4.51-1.51-6.74c-.25-1-.55-2-.85-3a20.7,20.7,0,0,0-1.21-3.33s0,0,0,0a29.86,29.86,0,0,1,0,3.9c0,1.18,0,2.35-.12,3.53-.15,2.69-.17,5.37-.14,8.06,0,1.3,0,2.59.07,3.89s.18,2.54.34,3.8a48.81,48.81,0,0,0,.88,5.39,9.94,9.94,0,0,0,2.21,4.15,3.88,3.88,0,0,0,2.6,1.18,5.34,5.34,0,0,0,2.89-.7,13.91,13.91,0,0,0,1.92-1.32l1.58-1.27a2.69,2.69,0,0,0,.65-.34l1.14-.87,1.55-1.25c.91-.74,1.81-1.49,2.7-2.24l6.61-5.65c4.5-3.84,9-7.66,13.47-11.52,1.52-1.31,3-2.61,4.6-3.85.4-.3.8-.59,1.21-.85a47,47,0,0,1,0,6.28c-.12,2.21-.37,4.42-.65,6.62-.16,1.16-.33,2.32-.48,3.48-.33,2.4-.73,4.79-1,7.19-.14,1.15-.32,2.32-.35,3.48a22.8,22.8,0,0,0,.06,3.2c.19,1.76.7,3.83,2.3,4.84a3,3,0,0,0,2.5.41,5.12,5.12,0,0,0,1.83-1.1c.43-.34.86-.71,1.28-1.07.84-.71,1.68-1.42,2.53-2.1,1.7-1.37,3.42-2.71,5.13-4.05l2.78-2.12c.93-.7,1.91-1.31,2.89-1.93,2.07-1.32,4.21-2.53,6.31-3.79s4.39-2.6,6.64-3.78c1-.52,1.94-1,2.89-1.53.38-.21.76-.44,1.13-.67,0,.35,0,.7,0,1,0,1.1.17,2.18.22,3.27a34,34,0,0,1-.41,6.12c-.37,2.54-.88,5.05-1.32,7.57-.49,2.78-1,5.54-1.36,8.33-.15,1.21-.22,2.43-.27,3.65,0,.48,0,.95,0,1.42a12.09,12.09,0,0,0,.31,2.54c.39,1.82,1.75,3.88,3.83,3.77a7.37,7.37,0,0,0,2.89-1.06c.57-.3,1.12-.65,1.67-1l3-1.72c1.4-.79,2.86-1.5,4.29-2.22s3.13-1.62,4.67-2.45c2.74-1.48,5.53-2.9,8.39-4.14,1.74-.68,3.49-1.33,5.26-1.92a29.39,29.39,0,0,1,4.92-1.09l.17,0c0,.18,0,.35,0,.53,0,.67-.1,1.34-.16,2a4.5,4.5,0,0,0,0,.82c0,.33.09.66.13,1a4.64,4.64,0,0,1-.09,1c0,.29,0,.58-.08.88-.13,1.36-.28,2.72-.4,4.08s-.17,2.5-.22,3.75-.1,2.46-.06,3.68c.06,1.47.13,2.94.22,4.41a57.55,57.55,0,0,0,1.07,7.75c.32,1.57.76,3.12,1.19,4.66a0,0,0,0,0,0,0c.16-3,.32-6,.57-9,.22-2.71.63-5.41.89-8.11,0,.17,0,.35-.07.53.6-4.35,1-8.73,1.5-13.09.09-.3.19-.59.29-.88a6.09,6.09,0,0,0,.19-1.27l.18-2c.06-.65.12-1.29.13-2a5.38,5.38,0,0,0-.22-1.39,3.4,3.4,0,0,0-.83-1.42l-.26-.21a2.73,2.73,0,0,0-1.15-.67,6.86,6.86,0,0,0-2-.36,9.37,9.37,0,0,0-1.91.19l-1,.14c-.66.11-1.31.24-2,.38a24,24,0,0,0-3.62,1c-2.57.93-5.1,1.91-7.58,3.06-2.32,1.08-4.59,2.28-6.85,3.5-2.43,1.31-4.91,2.55-7.37,3.82-1.62.85-3.18,1.81-4.78,2.69a33.33,33.33,0,0,1,.14-3.6c.06-1,.2-2,.34-3l-.09.69q.6-3.87,1.34-7.72c.51-2.72,1-5.44,1.33-8.2a37.45,37.45,0,0,0,.35-3.81c0-1.22-.06-2.43-.15-3.66s-.15-2.61-.21-3.91a13.47,13.47,0,0,0-.25-2,3.25,3.25,0,0,0-.57-1.22c-.13-.18-.27-.35-.41-.53l-.74-.57a3.36,3.36,0,0,0-1.58-.42,8.91,8.91,0,0,0-1.35.25,7.17,7.17,0,0,0-1.69.83c-1,.62-2,1.26-3.12,1.81s-2,1-3,1.58c-2.24,1.24-4.44,2.55-6.65,3.85s-4.45,2.63-6.62,4c-1,.67-2,1.43-3,2.17s-2.19,1.66-3.26,2.52c-1.46,1.16-2.94,2.29-4.39,3.46-.53.43-1,.87-1.57,1.31a43.44,43.44,0,0,1,.52-6.43c.29-2,.59-3.94.85-5.92.4-2.77.78-5.54,1-8.33a53.63,53.63,0,0,0,.13-7.5,24.42,24.42,0,0,0-.26-2.7,4.47,4.47,0,0,0-4.16-3.79A6.27,6.27,0,0,0,1262.17,743.19Z"/><path d="M1691,799.94a41.88,41.88,0,0,0-3.6,4.36,28.94,28.94,0,0,0-2.8,4.45c-.43.9-.82,1.82-1.18,2.75l-.47,1.2a4.44,4.44,0,0,0-.12.67,4.45,4.45,0,0,1-.24.7,27,27,0,0,0-1.11,4.93c-.16,1.07-.27,2.14-.38,3.22s-.24,2.09-.25,3.15a20.77,20.77,0,0,0,1.33,6.4s0,0,0,0a34.84,34.84,0,0,1-.14-5.59c.07-.46.15-.92.23-1.37s.3-1.13.44-1.69c.27-1,.49-2,.75-3s.57-2,.87-3.08.61-1.84.92-2.76a5.54,5.54,0,0,0,.46-.91c.13-.35.25-.7.37-1,.23-.67.49-1.33.73-2,.48-1.27,1-2.53,1.5-3.79.73-1.74,1.42-3.5,2.11-5.25l0,.07.41-1h0v0h0c.06-.15.12-.3.19-.44s0,0,0,0A0,0,0,0,0,1691,799.94Z"/><path d="M1715.91,784.65c-1,.12-2,.27-3.05.37-.71.07-1.43.14-2.14.24s-1.55.28-2.32.45a14.23,14.23,0,0,0-2.29.83,19,19,0,0,0-3.9,2.43,44.44,44.44,0,0,0-4.17,3.7s0,0,0,0c1.18-.43,2.34-.89,3.49-1.38h0l0,0h0c2.57-1.09,5.07-2.35,7.61-3.5l.78-.32-.18.07.84-.36.55-.23h0c.67-.27,1.32-.55,2-.85.94-.44,1.85-.94,2.75-1.44,0,0,0,0,0,0Z"/></svg>