<svg id="Layer_1" data-name="Layer 1" xmlns="http://www.w3.org/2000/svg" xmlns:xlink="http://www.w3.org/1999/xlink" viewBox="0 0 1920 1080"><defs><style>.cls-1{fill:none;}.cls-2{clip-path:url(#clip-path);}.cls-3{fill:url(#linear-gradient);}.cls-4{opacity:0.8;}.cls-5{fill:#ff8f8f;}.cls-6{fill:#ffe7e7;}.cls-7{fill:#ffd6d6;}.cls-8{fill:#ffb6b6;}.cls-9{fill:#ffc4c4;}.cls-10{fill:#fcc;}.cls-11{fill:#ffdbdb;}.cls-12{fill:#ffabab;}.cls-13{fill:#ffb5b5;}</style><clipPath id="clip-path"><circle class="cls-1" cx="1447.89" cy="376.48" r="328.11"/></clipPath><linearGradient id="linear-gradient" x1="1447.97" y1="48.29" x2="1447.97" y2="571.03" gradientUnits="userSpaceOnUse"><stop offset="0" stop-color="red" stop-opacity="0.6"/><stop offset="0.11" stop-color="#f0f" stop-opacity="0.29"/><stop offset="1" stop-color="#f0f" stop-opacity="0"/></linearGradient></defs><g class="cls-2"><rect class="cls-3" x="1117.23" y="48.29" width="661.48" height="522.74"/></g><path d="M125.49,510.41a2.61,2.61,0,0,1-.78-1.92v-37a2.71,2.71,0,0,1,.78-2,2.55,2.55,0,0,1,1.92-.81,2.77,2.77,0,0,1,2.76,2.76v37a2.56,2.56,0,0,1-.81,1.92,2.73,2.73,0,0,1-2,.78A2.59,2.59,0,0,1,125.49,510.41Z"/><path d="M141.87,503.57V485h-4.26a1.13,1.13,0,0,1-1.14-1.14,1.25,1.25,0,0,1,.54-1l8.16-8a1.5,1.5,0,0,1,1-.54,1.06,1.06,0,0,1,.81.36,1.25,1.25,0,0,1,.33.84v4.8h6.78a2.31,2.31,0,0,1,1.68.66,2.28,2.28,0,0,1,.66,1.68,2.3,2.3,0,0,1-.66,1.65,2.25,2.25,0,0,1-1.68.69h-6.78v18.12c0,1.56.36,2.55,1.11,3a5.59,5.59,0,0,0,2.79.63,8.37,8.37,0,0,0,2.4-.36l.51-.12a3.27,3.27,0,0,1,.69-.06,2.11,2.11,0,0,1,1.5.63,2.07,2.07,0,0,1,.66,1.53,2.27,2.27,0,0,1-1.38,2.1,11.74,11.74,0,0,1-5,1.08C144.78,511.49,141.87,508.85,141.87,503.57Z"/><path d="M179.36,524.18a2.71,2.71,0,0,1-.78-1.95V482.69a2.66,2.66,0,0,1,2.7-2.7,2.71,2.71,0,0,1,1.95.78,2.56,2.56,0,0,1,.81,1.92v1.56a13.79,13.79,0,0,1,10.26-4.56,14.07,14.07,0,0,1,7,1.89,14.34,14.34,0,0,1,5.4,5.52,18.45,18.45,0,0,1,0,17,14.34,14.34,0,0,1-5.4,5.52,14.07,14.07,0,0,1-7,1.89A13.79,13.79,0,0,1,184,506.93v15.3a2.67,2.67,0,0,1-2.76,2.76A2.56,2.56,0,0,1,179.36,524.18Zm21.3-20.61q2.7-2.82,2.7-8t-2.7-8a9.43,9.43,0,0,0-7.14-2.82,11.33,11.33,0,0,0-5.19,1.23,14.82,14.82,0,0,0-4.29,3.27v12.6a14.82,14.82,0,0,0,4.29,3.27,11.33,11.33,0,0,0,5.19,1.23A9.43,9.43,0,0,0,200.66,503.57Z"/><path d="M217.22,510.41a2.61,2.61,0,0,1-.78-1.92V469.55a2.71,2.71,0,0,1,.78-1.95,2.56,2.56,0,0,1,1.92-.81,2.67,2.67,0,0,1,2.76,2.76v38.94a2.56,2.56,0,0,1-.81,1.92,2.71,2.71,0,0,1-2,.78A2.61,2.61,0,0,1,217.22,510.41Z"/><path d="M236.78,509.51a13.46,13.46,0,0,1-5.37-5.61,19.21,19.21,0,0,1,0-16.62,13.46,13.46,0,0,1,5.37-5.61,17.44,17.44,0,0,1,16.14,0,13.65,13.65,0,0,1,5.4,5.61,18.94,18.94,0,0,1,0,16.62,13.65,13.65,0,0,1-5.4,5.61,17.44,17.44,0,0,1-16.14,0Zm12.81-4.14a9.16,9.16,0,0,0,3.72-3.6,12,12,0,0,0,1.47-6.24,11.88,11.88,0,0,0-1.47-6.18,9,9,0,0,0-3.72-3.57,10.52,10.52,0,0,0-4.71-1.11,10.64,10.64,0,0,0-4.77,1.11,8.78,8.78,0,0,0-3.69,3.57,12.08,12.08,0,0,0-1.44,6.18,12.21,12.21,0,0,0,1.44,6.24,9,9,0,0,0,3.69,3.6,10.41,10.41,0,0,0,4.77,1.14A10.29,10.29,0,0,0,249.59,505.37Z"/><path d="M274.4,510.47a3.66,3.66,0,0,1-1.32-1.8l-8.52-25a3.23,3.23,0,0,1-.18-1,2.66,2.66,0,0,1,2.7-2.7,2.74,2.74,0,0,1,1.53.45,2.21,2.21,0,0,1,.93,1.17l7,23.1,7-22.56a3.08,3.08,0,0,1,5.88,0l7,22.56,7-23.1a2.21,2.21,0,0,1,.93-1.17,2.74,2.74,0,0,1,1.53-.45,2.66,2.66,0,0,1,2.7,2.7,3.23,3.23,0,0,1-.18,1l-8.52,25a3.66,3.66,0,0,1-1.32,1.8,3.6,3.6,0,0,1-4.32,0,4,4,0,0,1-1.38-1.86l-6.36-19.86-6.36,19.86a4,4,0,0,1-1.38,1.86,3.6,3.6,0,0,1-4.32,0Z"/><path d="M313.94,508.79a2.29,2.29,0,0,1-1-2,2.41,2.41,0,0,1,.66-1.68,2.18,2.18,0,0,1,1.68-.72,2.64,2.64,0,0,1,1.08.24,24.25,24.25,0,0,0,3.84,1.32,17.85,17.85,0,0,0,4.32.48q6.66,0,6.66-4.26a2.27,2.27,0,0,0-1.53-2.1,31.33,31.33,0,0,0-5-1.62,45.27,45.27,0,0,1-5.85-1.74,10.29,10.29,0,0,1-4-2.73,6.94,6.94,0,0,1-1.65-4.83,8.65,8.65,0,0,1,3-6.84q3-2.64,8.67-2.64a25,25,0,0,1,8.7,1.5,2.25,2.25,0,0,1,1.29.9,2.41,2.41,0,0,1,.45,1.38,2.35,2.35,0,0,1-.69,1.68,2.27,2.27,0,0,1-1.71.72,3.37,3.37,0,0,1-.78-.12,23,23,0,0,0-6.84-1.08,9.37,9.37,0,0,0-5.07,1.17,3.49,3.49,0,0,0-1.83,3,2.77,2.77,0,0,0,1.68,2.64,24,24,0,0,0,5.22,1.62A50,50,0,0,1,331,494.9a9.52,9.52,0,0,1,3.81,2.73,7.41,7.41,0,0,1,1.59,5,7.93,7.93,0,0,1-3,6.36q-3,2.52-8.55,2.52A22.32,22.32,0,0,1,313.94,508.79Z"/><path d="M361.16,503.57V485H356.9a1.13,1.13,0,0,1-1.14-1.14,1.25,1.25,0,0,1,.54-1l8.16-8a1.51,1.51,0,0,1,1-.54,1.06,1.06,0,0,1,.81.36,1.2,1.2,0,0,1,.33.84v4.8h6.78a2.26,2.26,0,0,1,2.34,2.34,2.3,2.3,0,0,1-.66,1.65,2.22,2.22,0,0,1-1.68.69h-6.78v18.12q0,2.34,1.11,3a5.59,5.59,0,0,0,2.79.63,8.32,8.32,0,0,0,2.4-.36l.51-.12a3.27,3.27,0,0,1,.69-.06,2.11,2.11,0,0,1,1.5.63,2,2,0,0,1,.66,1.53,2.27,2.27,0,0,1-1.38,2.1,11.74,11.74,0,0,1-5,1.08Q361.16,511.49,361.16,503.57Z"/><path d="M383.06,510.41a2.61,2.61,0,0,1-.78-1.92V469.55a2.71,2.71,0,0,1,.78-1.95,2.56,2.56,0,0,1,1.92-.81,2.77,2.77,0,0,1,2.76,2.76v15.66a19.94,19.94,0,0,1,4.92-4,12.42,12.42,0,0,1,6.24-1.5,10.37,10.37,0,0,1,5.73,1.56,10.14,10.14,0,0,1,3.72,4.26,13.6,13.6,0,0,1,1.29,5.94v17a2.56,2.56,0,0,1-.81,1.92,2.71,2.71,0,0,1-1.95.78,2.66,2.66,0,0,1-2.7-2.7V492.05q0-7.32-6.6-7.32a9.55,9.55,0,0,0-5.37,1.56,19.44,19.44,0,0,0-4.47,4.2v18a2.56,2.56,0,0,1-.81,1.92,2.71,2.71,0,0,1-1.95.78A2.61,2.61,0,0,1,383.06,510.41Z"/><path d="M419.6,510.41a2.61,2.61,0,0,1-.78-1.92V482.75a2.71,2.71,0,0,1,.78-1.95,2.56,2.56,0,0,1,1.92-.81,2.77,2.77,0,0,1,2.76,2.76v2.58q4.2-5.64,9.42-5.64h.3a2.51,2.51,0,0,1,1.89.78,2.66,2.66,0,0,1,.75,1.92,2.42,2.42,0,0,1-.78,1.86,2.81,2.81,0,0,1-2,.72h-.3a10.23,10.23,0,0,0-5.28,1.41,12.16,12.16,0,0,0-4,3.87v18.24a2.56,2.56,0,0,1-.81,1.92,2.71,2.71,0,0,1-2,.78A2.61,2.61,0,0,1,419.6,510.41Z"/><path d="M446.3,509.51a13.46,13.46,0,0,1-5.37-5.61,19.21,19.21,0,0,1,0-16.62,13.46,13.46,0,0,1,5.37-5.61,17.44,17.44,0,0,1,16.14,0,13.65,13.65,0,0,1,5.4,5.61,18.94,18.94,0,0,1,0,16.62,13.65,13.65,0,0,1-5.4,5.61,17.44,17.44,0,0,1-16.14,0Zm12.81-4.14a9.16,9.16,0,0,0,3.72-3.6,12,12,0,0,0,1.47-6.24,11.88,11.88,0,0,0-1.47-6.18,9,9,0,0,0-3.72-3.57,10.52,10.52,0,0,0-4.71-1.11,10.64,10.64,0,0,0-4.77,1.11,8.78,8.78,0,0,0-3.69,3.57,12.08,12.08,0,0,0-1.44,6.18,12.21,12.21,0,0,0,1.44,6.24,9,9,0,0,0,3.69,3.6,10.41,10.41,0,0,0,4.77,1.14A10.29,10.29,0,0,0,459.11,505.37Z"/><path d="M482.09,509.93a10.14,10.14,0,0,1-3.72-4.26,13.6,13.6,0,0,1-1.29-5.94v-17a2.56,2.56,0,0,1,.81-1.92,2.71,2.71,0,0,1,1.95-.78,2.66,2.66,0,0,1,2.7,2.7v16.44q0,7.32,6.6,7.32a9.55,9.55,0,0,0,5.37-1.56,19.44,19.44,0,0,0,4.47-4.2v-18a2.56,2.56,0,0,1,.81-1.92,2.71,2.71,0,0,1,1.95-.78,2.66,2.66,0,0,1,2.7,2.7v25.74a2.71,2.71,0,0,1-.78,1.95,2.56,2.56,0,0,1-1.92.81,2.77,2.77,0,0,1-2.76-2.76V506a19.94,19.94,0,0,1-4.92,4,12.42,12.42,0,0,1-6.24,1.5A10.37,10.37,0,0,1,482.09,509.93Z"/><path d="M521.18,524.39a23,23,0,0,1-5.82-2.22,2.28,2.28,0,0,1-1.08-2.1,2.46,2.46,0,0,1,.69-1.71,2.23,2.23,0,0,1,1.71-.75,3,3,0,0,1,1.08.24,21.83,21.83,0,0,0,9.9,2.28q9.18,0,9.18-9.78v-4a13.54,13.54,0,0,1-10.26,4.56,14.46,14.46,0,0,1-6.87-1.77,14.3,14.3,0,0,1-5.49-5.28,18,18,0,0,1,0-17.1,14.3,14.3,0,0,1,5.49-5.28,14.46,14.46,0,0,1,6.87-1.77,13.54,13.54,0,0,1,10.26,4.56v-1.5a2.71,2.71,0,0,1,.78-1.95,2.56,2.56,0,0,1,1.92-.81,2.77,2.77,0,0,1,2.76,2.76v26.82q0,7.56-3.66,11.64t-10.44,4.08A28.4,28.4,0,0,1,521.18,524.39Zm11.52-19.68a18,18,0,0,0,4.14-3.24V489.11a18,18,0,0,0-4.14-3.24,10.08,10.08,0,0,0-5-1.2,10.19,10.19,0,0,0-7.35,2.73q-2.85,2.73-2.85,7.89t2.85,7.89a10.19,10.19,0,0,0,7.35,2.73A10.08,10.08,0,0,0,532.7,504.71Z"/><path d="M552.56,510.41a2.61,2.61,0,0,1-.78-1.92V469.55a2.71,2.71,0,0,1,.78-1.95,2.56,2.56,0,0,1,1.92-.81,2.77,2.77,0,0,1,2.76,2.76v15.66a19.94,19.94,0,0,1,4.92-4,12.42,12.42,0,0,1,6.24-1.5,10.37,10.37,0,0,1,5.73,1.56,10.14,10.14,0,0,1,3.72,4.26,13.6,13.6,0,0,1,1.29,5.94v17a2.56,2.56,0,0,1-.81,1.92,2.71,2.71,0,0,1-2,.78,2.66,2.66,0,0,1-2.7-2.7V492.05q0-7.32-6.6-7.32a9.55,9.55,0,0,0-5.37,1.56,19.44,19.44,0,0,0-4.47,4.2v18a2.56,2.56,0,0,1-.81,1.92,2.71,2.71,0,0,1-1.95.78A2.61,2.61,0,0,1,552.56,510.41Z"/><path d="M604.34,473.15a3,3,0,0,1-.9-2.16v-.24a3.07,3.07,0,0,1,3.06-3.06h.36a3.07,3.07,0,0,1,3.06,3.06V471a3.07,3.07,0,0,1-3.06,3.06h-.36A3,3,0,0,1,604.34,473.15Zm.36,37.26a2.61,2.61,0,0,1-.78-1.92V482.75a2.71,2.71,0,0,1,.78-1.95,2.56,2.56,0,0,1,1.92-.81,2.67,2.67,0,0,1,2.76,2.76v25.74a2.56,2.56,0,0,1-.81,1.92,2.71,2.71,0,0,1-2,.78A2.61,2.61,0,0,1,604.7,510.41Z"/><path d="M620.66,503.57V485H616.4a1.13,1.13,0,0,1-1.14-1.14,1.25,1.25,0,0,1,.54-1l8.16-8a1.51,1.51,0,0,1,1-.54,1.06,1.06,0,0,1,.81.36,1.2,1.2,0,0,1,.33.84v4.8h6.78a2.26,2.26,0,0,1,2.34,2.34,2.3,2.3,0,0,1-.66,1.65,2.22,2.22,0,0,1-1.68.69h-6.78v18.12q0,2.34,1.11,3a5.59,5.59,0,0,0,2.79.63,8.32,8.32,0,0,0,2.4-.36l.51-.12a3.27,3.27,0,0,1,.69-.06,2.11,2.11,0,0,1,1.5.63,2,2,0,0,1,.66,1.53,2.27,2.27,0,0,1-1.38,2.1,11.74,11.74,0,0,1-5,1.08Q620.66,511.49,620.66,503.57Z"/><path d="M641.33,519.41a1.78,1.78,0,0,1-.51-1.26,1.67,1.67,0,0,1,.9-1.5,6.85,6.85,0,0,0,2.28-2.1,6.41,6.41,0,0,0,.78-3.48h-.24a3.38,3.38,0,0,1-3.36-3.36v-.36a3.38,3.38,0,0,1,3.36-3.36h.6a3.38,3.38,0,0,1,3.36,3.36v3.54a9.65,9.65,0,0,1-4.92,8.76,1.89,1.89,0,0,1-1,.3A1.63,1.63,0,0,1,641.33,519.41Z"/><path d="M124.41,596.18a2.71,2.71,0,0,1-.78-1.95V554.69a2.66,2.66,0,0,1,2.7-2.7,2.73,2.73,0,0,1,2,.78,2.56,2.56,0,0,1,.81,1.92v1.56a13.77,13.77,0,0,1,10.26-4.56,14.09,14.09,0,0,1,7.05,1.89,14.34,14.34,0,0,1,5.4,5.52,18.45,18.45,0,0,1,0,17,14.34,14.34,0,0,1-5.4,5.52,14.09,14.09,0,0,1-7.05,1.89,13.77,13.77,0,0,1-10.26-4.56v15.3a2.72,2.72,0,0,1-.78,2,2.68,2.68,0,0,1-2,.78A2.56,2.56,0,0,1,124.41,596.18Zm21.3-20.61q2.7-2.82,2.7-8t-2.7-8a9.43,9.43,0,0,0-7.14-2.82,11.33,11.33,0,0,0-5.19,1.23,14.69,14.69,0,0,0-4.29,3.27v12.6a14.69,14.69,0,0,0,4.29,3.27,11.33,11.33,0,0,0,5.19,1.23A9.43,9.43,0,0,0,145.71,575.57Z"/><path d="M166.89,581.51a13.46,13.46,0,0,1-5.37-5.61,19.21,19.21,0,0,1,0-16.62,13.46,13.46,0,0,1,5.37-5.61,17.44,17.44,0,0,1,16.14,0,13.77,13.77,0,0,1,5.4,5.61,18.94,18.94,0,0,1,0,16.62,13.77,13.77,0,0,1-5.4,5.61,17.44,17.44,0,0,1-16.14,0Zm12.81-4.14a9.22,9.22,0,0,0,3.72-3.6,12,12,0,0,0,1.47-6.24,11.88,11.88,0,0,0-1.47-6.18,9,9,0,0,0-3.72-3.57,10.52,10.52,0,0,0-4.71-1.11,10.64,10.64,0,0,0-4.77,1.11,8.78,8.78,0,0,0-3.69,3.57,12.08,12.08,0,0,0-1.44,6.18,12.21,12.21,0,0,0,1.44,6.24,9,9,0,0,0,3.69,3.6,10.41,10.41,0,0,0,4.77,1.14A10.29,10.29,0,0,0,179.7,577.37Z"/><path d="M202.67,581.93a10.14,10.14,0,0,1-3.72-4.26,13.6,13.6,0,0,1-1.29-5.94v-17a2.56,2.56,0,0,1,.81-1.92,2.71,2.71,0,0,1,1.95-.78,2.66,2.66,0,0,1,2.7,2.7v16.44q0,7.32,6.6,7.32a9.55,9.55,0,0,0,5.37-1.56,19.44,19.44,0,0,0,4.47-4.2v-18a2.56,2.56,0,0,1,.81-1.92,2.71,2.71,0,0,1,1.95-.78,2.66,2.66,0,0,1,2.7,2.7v25.74a2.71,2.71,0,0,1-.78,2,2.56,2.56,0,0,1-1.92.81,2.77,2.77,0,0,1-2.76-2.76V578a19.94,19.94,0,0,1-4.92,4,12.42,12.42,0,0,1-6.24,1.5A10.37,10.37,0,0,1,202.67,581.93Z"/><path d="M235.28,582.41a2.61,2.61,0,0,1-.78-1.92V554.75a2.71,2.71,0,0,1,.78-2,2.56,2.56,0,0,1,1.92-.81,2.77,2.77,0,0,1,2.76,2.76v2.46a19.94,19.94,0,0,1,4.92-4,12.42,12.42,0,0,1,6.24-1.5,10.37,10.37,0,0,1,5.73,1.56,10.14,10.14,0,0,1,3.72,4.26,13.6,13.6,0,0,1,1.29,5.94v17a2.56,2.56,0,0,1-.81,1.92,2.71,2.71,0,0,1-1.95.78,2.66,2.66,0,0,1-2.7-2.7V564.05q0-7.32-6.6-7.32a9.55,9.55,0,0,0-5.37,1.56,19.44,19.44,0,0,0-4.47,4.2v18a2.56,2.56,0,0,1-.81,1.92,2.71,2.71,0,0,1-2,.78A2.61,2.61,0,0,1,235.28,582.41Z"/><path d="M277.22,581.57a14.78,14.78,0,0,1-5.85-5.52,17.44,17.44,0,0,1,0-16.92,14.78,14.78,0,0,1,5.85-5.52,16.92,16.92,0,0,1,8-1.92,16.63,16.63,0,0,1,5.49.81,20.74,20.74,0,0,1,4.29,2.07,2.39,2.39,0,0,1,.51,3.75,2.11,2.11,0,0,1-1.59.75,2.74,2.74,0,0,1-1.32-.36,22.85,22.85,0,0,0-3.39-1.47,11.7,11.7,0,0,0-3.51-.45,10.88,10.88,0,0,0-8.1,3,11.9,11.9,0,0,0,0,15.66,10.88,10.88,0,0,0,8.1,3,11.7,11.7,0,0,0,3.51-.45,22.85,22.85,0,0,0,3.39-1.47,2.74,2.74,0,0,1,1.32-.36,2.11,2.11,0,0,1,1.59.75,2.39,2.39,0,0,1-.51,3.75,20.74,20.74,0,0,1-4.29,2.07,16.63,16.63,0,0,1-5.49.81A16.92,16.92,0,0,1,277.22,581.57Z"/><path d="M305,579.32q-4.11-4.17-4.11-11.73a19.56,19.56,0,0,1,1.56-7.86,13.36,13.36,0,0,1,4.8-5.82,13.79,13.79,0,0,1,8-2.22,14,14,0,0,1,7.68,2.07,13.39,13.39,0,0,1,4.92,5.52,17,17,0,0,1,1.68,7.53,2.62,2.62,0,0,1-2.76,2.7H306.44a9.87,9.87,0,0,0,3.12,6.54q2.64,2.34,7.38,2.34a18,18,0,0,0,4.41-.48,18.32,18.32,0,0,0,3.69-1.38,2.38,2.38,0,0,1,1.08-.24,2.41,2.41,0,0,1,1.68.66,2.18,2.18,0,0,1,.72,1.68,2.59,2.59,0,0,1-1.56,2.22,18.74,18.74,0,0,1-10.5,2.64Q309.14,583.49,305,579.32Zm19.11-14.25a9.61,9.61,0,0,0-1.53-4.92,8.26,8.26,0,0,0-3.33-2.91,9.15,9.15,0,0,0-8,0,8.06,8.06,0,0,0-3.3,2.91,9.79,9.79,0,0,0-1.5,4.92Z"/><path d="M335.72,580.79a2.29,2.29,0,0,1-1-2,2.41,2.41,0,0,1,.66-1.68,2.18,2.18,0,0,1,1.68-.72,2.64,2.64,0,0,1,1.08.24A24.25,24.25,0,0,0,342,578a17.85,17.85,0,0,0,4.32.48q6.66,0,6.66-4.26a2.27,2.27,0,0,0-1.53-2.1,31.33,31.33,0,0,0-5-1.62,45.27,45.27,0,0,1-5.85-1.74,10.29,10.29,0,0,1-4-2.73,6.94,6.94,0,0,1-1.65-4.83,8.65,8.65,0,0,1,3-6.84q3-2.64,8.67-2.64a25,25,0,0,1,8.7,1.5,2.25,2.25,0,0,1,1.29.9,2.41,2.41,0,0,1,.45,1.38,2.35,2.35,0,0,1-.69,1.68,2.27,2.27,0,0,1-1.71.72,3.37,3.37,0,0,1-.78-.12,23,23,0,0,0-6.84-1.08,9.37,9.37,0,0,0-5.07,1.17,3.49,3.49,0,0,0-1.83,3,2.77,2.77,0,0,0,1.68,2.64,24,24,0,0,0,5.22,1.62,50,50,0,0,1,5.76,1.77,9.52,9.52,0,0,1,3.81,2.73,7.41,7.41,0,0,1,1.59,5,7.93,7.93,0,0,1-3,6.36q-3,2.52-8.55,2.52A22.32,22.32,0,0,1,335.72,580.79Z"/><path d="M386.54,581.51a13.46,13.46,0,0,1-5.37-5.61,19.21,19.21,0,0,1,0-16.62,13.46,13.46,0,0,1,5.37-5.61,17.44,17.44,0,0,1,16.14,0,13.65,13.65,0,0,1,5.4,5.61,18.94,18.94,0,0,1,0,16.62,13.65,13.65,0,0,1-5.4,5.61,17.44,17.44,0,0,1-16.14,0Zm12.81-4.14a9.16,9.16,0,0,0,3.72-3.6,12,12,0,0,0,1.47-6.24,11.88,11.88,0,0,0-1.47-6.18,9,9,0,0,0-3.72-3.57,10.52,10.52,0,0,0-4.71-1.11,10.64,10.64,0,0,0-4.77,1.11,8.78,8.78,0,0,0-3.69,3.57,12.08,12.08,0,0,0-1.44,6.18,12.21,12.21,0,0,0,1.44,6.24,9,9,0,0,0,3.69,3.6,10.41,10.41,0,0,0,4.77,1.14A10.29,10.29,0,0,0,399.35,577.37Z"/><path d="M418.4,582.41a2.61,2.61,0,0,1-.78-1.92V554.75a2.71,2.71,0,0,1,.78-2,2.56,2.56,0,0,1,1.92-.81,2.77,2.77,0,0,1,2.76,2.76v2.46a19.94,19.94,0,0,1,4.92-4,12.42,12.42,0,0,1,6.24-1.5,10.37,10.37,0,0,1,5.73,1.56,10.14,10.14,0,0,1,3.72,4.26,13.6,13.6,0,0,1,1.29,5.94v17a2.56,2.56,0,0,1-.81,1.92,2.71,2.71,0,0,1-1.95.78,2.66,2.66,0,0,1-2.7-2.7V564.05q0-7.32-6.6-7.32a9.55,9.55,0,0,0-5.37,1.56,19.44,19.44,0,0,0-4.47,4.2v18a2.56,2.56,0,0,1-.81,1.92,2.71,2.71,0,0,1-1.95.78A2.61,2.61,0,0,1,418.4,582.41Z"/><path d="M470.18,545.15a3,3,0,0,1-.9-2.16v-.24a3.07,3.07,0,0,1,3.06-3.06h.36a3.07,3.07,0,0,1,3.06,3.06V543a3.07,3.07,0,0,1-3.06,3.06h-.36A3,3,0,0,1,470.18,545.15Zm.36,37.26a2.61,2.61,0,0,1-.78-1.92V554.75a2.71,2.71,0,0,1,.78-2,2.56,2.56,0,0,1,1.92-.81,2.67,2.67,0,0,1,2.76,2.76v25.74a2.56,2.56,0,0,1-.81,1.92,2.71,2.71,0,0,1-2,.78A2.61,2.61,0,0,1,470.54,582.41Z"/><path d="M486.5,575.57V557h-4.26a1.13,1.13,0,0,1-1.14-1.14,1.25,1.25,0,0,1,.54-1l8.16-8a1.51,1.51,0,0,1,1-.54,1.06,1.06,0,0,1,.81.36,1.2,1.2,0,0,1,.33.84v4.8h6.78a2.26,2.26,0,0,1,2.34,2.34,2.3,2.3,0,0,1-.66,1.65,2.22,2.22,0,0,1-1.68.69H492v18.12q0,2.34,1.11,3a5.59,5.59,0,0,0,2.79.63,8.32,8.32,0,0,0,2.4-.36l.51-.12a3.27,3.27,0,0,1,.69-.06,2.11,2.11,0,0,1,1.5.63,2,2,0,0,1,.66,1.53,2.27,2.27,0,0,1-1.38,2.1,11.74,11.74,0,0,1-5,1.08Q486.5,583.49,486.5,575.57Z"/><path d="M507.17,591.41a1.78,1.78,0,0,1-.51-1.26,1.67,1.67,0,0,1,.9-1.5,6.85,6.85,0,0,0,2.28-2.1,6.41,6.41,0,0,0,.78-3.48h-.24a3.38,3.38,0,0,1-3.36-3.36v-.36a3.38,3.38,0,0,1,3.36-3.36h.6a3.38,3.38,0,0,1,3.36,3.36v3.54a9.65,9.65,0,0,1-4.92,8.76,1.89,1.89,0,0,1-1,.3A1.63,1.63,0,0,1,507.17,591.41Z"/><path d="M126.54,654.41a8.46,8.46,0,0,1-3.57-3.15,8.68,8.68,0,0,1-1.32-4.77,8.41,8.41,0,0,1,3.51-7.08q3.51-2.64,10.29-2.64h7.26v-.48c0-2.64-.66-4.54-2-5.7s-3.33-1.74-6.09-1.74a20.31,20.31,0,0,0-4,.36,34,34,0,0,0-3.93,1.08,3.45,3.45,0,0,1-.78.12,2.13,2.13,0,0,1-1.56-.66,2.2,2.2,0,0,1-.66-1.62,2.3,2.3,0,0,1,1.56-2.28,26.35,26.35,0,0,1,10.38-2.16,13.55,13.55,0,0,1,7,1.68,10.62,10.62,0,0,1,4.2,4.35,12.65,12.65,0,0,1,1.35,5.79v17a2.56,2.56,0,0,1-.81,1.92,2.73,2.73,0,0,1-2,.78,2.66,2.66,0,0,1-2.7-2.7v-1.56a15.09,15.09,0,0,1-11.28,4.56A11.12,11.12,0,0,1,126.54,654.41Zm12-5a14.18,14.18,0,0,0,4.14-3.21v-5h-6.54q-9.06,0-9.06,4.74a4.42,4.42,0,0,0,1.47,3.48q1.47,1.32,4.89,1.32A10.85,10.85,0,0,0,138.57,649.4Z"/><path d="M158.13,654.41a2.57,2.57,0,0,1-.78-1.92V626.75a2.67,2.67,0,0,1,.78-2,2.53,2.53,0,0,1,1.92-.81,2.77,2.77,0,0,1,2.76,2.76v2.46a19.59,19.59,0,0,1,4.92-4,12.42,12.42,0,0,1,6.24-1.5,10.4,10.4,0,0,1,5.73,1.56,10.21,10.21,0,0,1,3.72,4.26,13.6,13.6,0,0,1,1.29,5.94v17a2.56,2.56,0,0,1-.81,1.92,2.73,2.73,0,0,1-2,.78,2.58,2.58,0,0,1-1.92-.78,2.61,2.61,0,0,1-.78-1.92V636.05c0-4.88-2.21-7.32-6.6-7.32a9.5,9.5,0,0,0-5.37,1.56,19,19,0,0,0-4.47,4.2v18a2.56,2.56,0,0,1-.81,1.92,2.73,2.73,0,0,1-1.95.78A2.58,2.58,0,0,1,158.13,654.41Z"/><path d="M199.49,653.6a14.34,14.34,0,0,1-5.4-5.52,18.45,18.45,0,0,1,0-17,14.34,14.34,0,0,1,5.4-5.52,14.07,14.07,0,0,1,7-1.89,13.79,13.79,0,0,1,10.26,4.56v-14.7a2.63,2.63,0,0,1,.81-2,2.71,2.71,0,0,1,1.95-.78,2.56,2.56,0,0,1,1.92.81,2.71,2.71,0,0,1,.78,1.95v38.94a2.66,2.66,0,0,1-2.7,2.7,2.71,2.71,0,0,1-1.95-.78,2.56,2.56,0,0,1-.81-1.92v-1.56a13.79,13.79,0,0,1-10.26,4.56A14.07,14.07,0,0,1,199.49,653.6Zm13-4.44a14.69,14.69,0,0,0,4.29-3.27v-12.6a14.69,14.69,0,0,0-4.29-3.27,11.33,11.33,0,0,0-5.19-1.23,9.43,9.43,0,0,0-7.14,2.82c-1.79,1.88-2.7,4.54-2.7,8s.91,6.1,2.7,8a9.43,9.43,0,0,0,7.14,2.82A11.33,11.33,0,0,0,212.51,649.16Z"/><path d="M248.12,668.18a2.71,2.71,0,0,1-.78-1.95V626.69A2.66,2.66,0,0,1,250,624a2.71,2.71,0,0,1,2,.78,2.56,2.56,0,0,1,.81,1.92v1.56a13.79,13.79,0,0,1,10.26-4.56,14.07,14.07,0,0,1,7.05,1.89,14.34,14.34,0,0,1,5.4,5.52,18.45,18.45,0,0,1,0,17,14.34,14.34,0,0,1-5.4,5.52,14.07,14.07,0,0,1-7.05,1.89,13.79,13.79,0,0,1-10.26-4.56v15.3A2.67,2.67,0,0,1,250,669,2.56,2.56,0,0,1,248.12,668.18Zm21.3-20.61q2.7-2.82,2.7-8t-2.7-8a9.43,9.43,0,0,0-7.14-2.82,11.33,11.33,0,0,0-5.19,1.23,14.82,14.82,0,0,0-4.29,3.27v12.6a14.82,14.82,0,0,0,4.29,3.27,11.33,11.33,0,0,0,5.19,1.23A9.43,9.43,0,0,0,269.42,647.57Z"/><path d="M289.91,653.93a10.14,10.14,0,0,1-3.72-4.26,13.6,13.6,0,0,1-1.29-5.94v-17a2.56,2.56,0,0,1,.81-1.92,2.71,2.71,0,0,1,2-.78,2.66,2.66,0,0,1,2.7,2.7v16.44q0,7.32,6.6,7.32a9.55,9.55,0,0,0,5.37-1.56,19.44,19.44,0,0,0,4.47-4.2v-18a2.56,2.56,0,0,1,.81-1.92,2.71,2.71,0,0,1,1.95-.78,2.66,2.66,0,0,1,2.7,2.7v25.74a2.71,2.71,0,0,1-.78,2,2.56,2.56,0,0,1-1.92.81,2.77,2.77,0,0,1-2.76-2.76V650a19.94,19.94,0,0,1-4.92,4,12.42,12.42,0,0,1-6.24,1.5A10.37,10.37,0,0,1,289.91,653.93Z"/><path d="M323.54,647.57V629h-4.26a1.13,1.13,0,0,1-1.14-1.14,1.25,1.25,0,0,1,.54-1l8.16-8a1.51,1.51,0,0,1,1-.54,1.06,1.06,0,0,1,.81.36,1.2,1.2,0,0,1,.33.84v4.8h6.78a2.26,2.26,0,0,1,2.34,2.34,2.3,2.3,0,0,1-.66,1.65,2.22,2.22,0,0,1-1.68.69H329v18.12q0,2.34,1.11,3a5.59,5.59,0,0,0,2.79.63,8.32,8.32,0,0,0,2.4-.36l.51-.12a3.27,3.27,0,0,1,.69-.06,2.11,2.11,0,0,1,1.5.63,2,2,0,0,1,.66,1.53,2.27,2.27,0,0,1-1.38,2.1,11.74,11.74,0,0,1-5,1.08Q323.54,655.49,323.54,647.57Z"/><path d="M343.64,652.79a2.29,2.29,0,0,1-1-2,2.41,2.41,0,0,1,.66-1.68,2.18,2.18,0,0,1,1.68-.72,2.64,2.64,0,0,1,1.08.24,24.25,24.25,0,0,0,3.84,1.32,17.85,17.85,0,0,0,4.32.48q6.66,0,6.66-4.26a2.27,2.27,0,0,0-1.53-2.1,31.33,31.33,0,0,0-5-1.62,45.27,45.27,0,0,1-5.85-1.74,10.29,10.29,0,0,1-4-2.73,6.94,6.94,0,0,1-1.65-4.83,8.65,8.65,0,0,1,3-6.84q3-2.64,8.67-2.64a25,25,0,0,1,8.7,1.5,2.25,2.25,0,0,1,1.29.9,2.41,2.41,0,0,1,.45,1.38,2.35,2.35,0,0,1-.69,1.68,2.27,2.27,0,0,1-1.71.72,3.37,3.37,0,0,1-.78-.12,23,23,0,0,0-6.84-1.08,9.37,9.37,0,0,0-5.07,1.17,3.49,3.49,0,0,0-1.83,3,2.77,2.77,0,0,0,1.68,2.64,24,24,0,0,0,5.22,1.62,50,50,0,0,1,5.76,1.77,9.52,9.52,0,0,1,3.81,2.73,7.41,7.41,0,0,1,1.59,5,7.93,7.93,0,0,1-3,6.36q-3,2.52-8.55,2.52A22.32,22.32,0,0,1,343.64,652.79Z"/><path d="M394.46,653.51a13.46,13.46,0,0,1-5.37-5.61,19.21,19.21,0,0,1,0-16.62,13.46,13.46,0,0,1,5.37-5.61,17.44,17.44,0,0,1,16.14,0,13.65,13.65,0,0,1,5.4,5.61,18.94,18.94,0,0,1,0,16.62,13.65,13.65,0,0,1-5.4,5.61,17.44,17.44,0,0,1-16.14,0Zm12.81-4.14a9.16,9.16,0,0,0,3.72-3.6,12,12,0,0,0,1.47-6.24,11.88,11.88,0,0,0-1.47-6.18,9,9,0,0,0-3.72-3.57,10.52,10.52,0,0,0-4.71-1.11,10.64,10.64,0,0,0-4.77,1.11,8.78,8.78,0,0,0-3.69,3.57,12.08,12.08,0,0,0-1.44,6.18,12.21,12.21,0,0,0,1.44,6.24,9,9,0,0,0,3.69,3.6,10.41,10.41,0,0,0,4.77,1.14A10.29,10.29,0,0,0,407.27,649.37Z"/><path d="M426.32,654.41a2.61,2.61,0,0,1-.78-1.92V626.75a2.71,2.71,0,0,1,.78-2,2.56,2.56,0,0,1,1.92-.81,2.77,2.77,0,0,1,2.76,2.76v2.46a19.94,19.94,0,0,1,4.92-4,12.42,12.42,0,0,1,6.24-1.5,10.37,10.37,0,0,1,5.73,1.56,10.14,10.14,0,0,1,3.72,4.26,13.6,13.6,0,0,1,1.29,5.94v17a2.56,2.56,0,0,1-.81,1.92,2.71,2.71,0,0,1-1.95.78,2.66,2.66,0,0,1-2.7-2.7V636.05q0-7.32-6.6-7.32a9.55,9.55,0,0,0-5.37,1.56,19.44,19.44,0,0,0-4.47,4.2v18a2.56,2.56,0,0,1-.81,1.92,2.71,2.71,0,0,1-1.95.78A2.61,2.61,0,0,1,426.32,654.41Z"/><path d="M480.59,654.41a8.52,8.52,0,0,1-3.57-3.15,8.68,8.68,0,0,1-1.32-4.77,8.41,8.41,0,0,1,3.51-7.08q3.51-2.64,10.29-2.64h7.26v-.48q0-4-1.95-5.7t-6.09-1.74a20.45,20.45,0,0,0-4.05.36,34,34,0,0,0-3.93,1.08,3.37,3.37,0,0,1-.78.12,2.13,2.13,0,0,1-1.56-.66,2.2,2.2,0,0,1-.66-1.62,2.31,2.31,0,0,1,1.56-2.28,26.39,26.39,0,0,1,10.38-2.16,13.55,13.55,0,0,1,7,1.68,10.56,10.56,0,0,1,4.2,4.35,12.65,12.65,0,0,1,1.35,5.79v17a2.56,2.56,0,0,1-.81,1.92,2.71,2.71,0,0,1-2,.78,2.66,2.66,0,0,1-2.7-2.7v-1.56a15.07,15.07,0,0,1-11.28,4.56A11.15,11.15,0,0,1,480.59,654.41Zm12-5a14.18,14.18,0,0,0,4.14-3.21v-5h-6.54q-9.06,0-9.06,4.74a4.45,4.45,0,0,0,1.47,3.48q1.47,1.32,4.89,1.32A10.85,10.85,0,0,0,492.62,649.4Z"/><path d="M526,652.79a2.29,2.29,0,0,1-1-2,2.41,2.41,0,0,1,.66-1.68,2.18,2.18,0,0,1,1.68-.72,2.64,2.64,0,0,1,1.08.24,24.25,24.25,0,0,0,3.84,1.32,17.85,17.85,0,0,0,4.32.48q6.66,0,6.66-4.26a2.27,2.27,0,0,0-1.53-2.1,31.33,31.33,0,0,0-5-1.62,45.27,45.27,0,0,1-5.85-1.74,10.29,10.29,0,0,1-4-2.73,6.94,6.94,0,0,1-1.65-4.83,8.65,8.65,0,0,1,3-6.84q3-2.64,8.67-2.64a25,25,0,0,1,8.7,1.5,2.25,2.25,0,0,1,1.29.9,2.41,2.41,0,0,1,.45,1.38,2.35,2.35,0,0,1-.69,1.68,2.27,2.27,0,0,1-1.71.72,3.37,3.37,0,0,1-.78-.12,23,23,0,0,0-6.84-1.08,9.37,9.37,0,0,0-5.07,1.17,3.49,3.49,0,0,0-1.83,3,2.77,2.77,0,0,0,1.68,2.64,24,24,0,0,0,5.22,1.62,50,50,0,0,1,5.76,1.77,9.52,9.52,0,0,1,3.81,2.73,7.41,7.41,0,0,1,1.59,5,7.93,7.93,0,0,1-3,6.36q-3,2.52-8.55,2.52A22.32,22.32,0,0,1,526,652.79Z"/><path d="M556.58,654.41a2.61,2.61,0,0,1-.78-1.92V613.55a2.71,2.71,0,0,1,.78-1.95,2.56,2.56,0,0,1,1.92-.81,2.77,2.77,0,0,1,2.76,2.76v15.66a19.94,19.94,0,0,1,4.92-4,12.42,12.42,0,0,1,6.24-1.5,10.37,10.37,0,0,1,5.73,1.56,10.14,10.14,0,0,1,3.72,4.26,13.6,13.6,0,0,1,1.29,5.94v17a2.56,2.56,0,0,1-.81,1.92,2.71,2.71,0,0,1-2,.78,2.66,2.66,0,0,1-2.7-2.7V636.05q0-7.32-6.6-7.32a9.55,9.55,0,0,0-5.37,1.56,19.44,19.44,0,0,0-4.47,4.2v18a2.56,2.56,0,0,1-.81,1.92,2.71,2.71,0,0,1-2,.78A2.61,2.61,0,0,1,556.58,654.41Z"/><path d="M597.74,653.51a13.46,13.46,0,0,1-5.37-5.61,19.21,19.21,0,0,1,0-16.62,13.46,13.46,0,0,1,5.37-5.61,17.44,17.44,0,0,1,16.14,0,13.65,13.65,0,0,1,5.4,5.61,18.94,18.94,0,0,1,0,16.62,13.65,13.65,0,0,1-5.4,5.61,17.44,17.44,0,0,1-16.14,0Zm12.81-4.14a9.16,9.16,0,0,0,3.72-3.6,12,12,0,0,0,1.47-6.24,11.88,11.88,0,0,0-1.47-6.18,9,9,0,0,0-3.72-3.57,10.52,10.52,0,0,0-4.71-1.11,10.64,10.64,0,0,0-4.77,1.11,8.78,8.78,0,0,0-3.69,3.57,12.08,12.08,0,0,0-1.44,6.18,12.21,12.21,0,0,0,1.44,6.24,9,9,0,0,0,3.69,3.6,10.41,10.41,0,0,0,4.77,1.14A10.29,10.29,0,0,0,610.55,649.37Z"/><path d="M635.36,654.47a3.66,3.66,0,0,1-1.32-1.8l-8.52-25a3.23,3.23,0,0,1-.18-1A2.66,2.66,0,0,1,628,624a2.74,2.74,0,0,1,1.53.45,2.21,2.21,0,0,1,.93,1.17l7,23.1,7-22.56a3.08,3.08,0,0,1,5.88,0l7,22.56,7-23.1a2.21,2.21,0,0,1,.93-1.17,2.74,2.74,0,0,1,1.53-.45,2.66,2.66,0,0,1,2.7,2.7,3.23,3.23,0,0,1-.18,1l-8.52,25a3.66,3.66,0,0,1-1.32,1.8,3.6,3.6,0,0,1-4.32,0,4,4,0,0,1-1.38-1.86l-6.36-19.86-6.36,19.86a4,4,0,0,1-1.38,1.86,3.6,3.6,0,0,1-4.32,0Z"/><path d="M673.91,654.08a3.23,3.23,0,0,1-1-2.37v-.36a3.38,3.38,0,0,1,3.36-3.36h.6a3.38,3.38,0,0,1,3.36,3.36v.36a3.38,3.38,0,0,1-3.36,3.36h-.6A3.23,3.23,0,0,1,673.91,654.08Z"/><path d="M125.49,247.41a2.61,2.61,0,0,1-.78-1.92v-37a2.71,2.71,0,0,1,.78-1.95,2.55,2.55,0,0,1,1.92-.81,2.77,2.77,0,0,1,2.76,2.76v37a2.56,2.56,0,0,1-.81,1.92,2.73,2.73,0,0,1-2,.78A2.59,2.59,0,0,1,125.49,247.41Z"/><path d="M141.87,240.57V222h-4.26a1.13,1.13,0,0,1-1.14-1.14,1.25,1.25,0,0,1,.54-1l8.16-8a1.5,1.5,0,0,1,1-.54,1.06,1.06,0,0,1,.81.36,1.25,1.25,0,0,1,.33.84v4.8h6.78a2.31,2.31,0,0,1,1.68.66,2.28,2.28,0,0,1,.66,1.68,2.3,2.3,0,0,1-.66,1.65,2.25,2.25,0,0,1-1.68.69h-6.78v18.12c0,1.56.36,2.55,1.11,3a5.59,5.59,0,0,0,2.79.63,8.37,8.37,0,0,0,2.4-.36l.51-.12a3.27,3.27,0,0,1,.69-.06,2.11,2.11,0,0,1,1.5.63,2.07,2.07,0,0,1,.66,1.53,2.27,2.27,0,0,1-1.38,2.1,11.74,11.74,0,0,1-5,1.08C144.78,248.49,141.87,245.85,141.87,240.57Z"/><path d="M179.36,247.41a2.61,2.61,0,0,1-.78-1.92V206.55a2.71,2.71,0,0,1,.78-2,2.56,2.56,0,0,1,1.92-.81,2.67,2.67,0,0,1,2.76,2.76v38.94a2.56,2.56,0,0,1-.81,1.92,2.71,2.71,0,0,1-1.95.78A2.61,2.61,0,0,1,179.36,247.41Z"/><path d="M198.92,246.51a13.46,13.46,0,0,1-5.37-5.61,19.21,19.21,0,0,1,0-16.62,13.46,13.46,0,0,1,5.37-5.61,17.44,17.44,0,0,1,16.14,0,13.65,13.65,0,0,1,5.4,5.61,18.94,18.94,0,0,1,0,16.62,13.65,13.65,0,0,1-5.4,5.61,17.44,17.44,0,0,1-16.14,0Zm12.81-4.14a9.16,9.16,0,0,0,3.72-3.6,12,12,0,0,0,1.47-6.24,11.88,11.88,0,0,0-1.47-6.18,9,9,0,0,0-3.72-3.57,10.52,10.52,0,0,0-4.71-1.11,10.64,10.64,0,0,0-4.77,1.11,8.78,8.78,0,0,0-3.69,3.57,12.08,12.08,0,0,0-1.44,6.18,12.21,12.21,0,0,0,1.44,6.24,9,9,0,0,0,3.69,3.6,10.41,10.41,0,0,0,4.77,1.14A10.29,10.29,0,0,0,211.73,242.37Z"/><path d="M238.46,247.56a3.75,3.75,0,0,1-1.32-1.59L226.7,221a3.36,3.36,0,0,1-.3-1.26,2.71,2.71,0,0,1,.78-1.95,2.56,2.56,0,0,1,1.92-.81,2.81,2.81,0,0,1,2.46,1.56l9.18,23.28,9.18-23.28a2.81,2.81,0,0,1,2.46-1.56,2.56,2.56,0,0,1,1.92.81,2.71,2.71,0,0,1,.78,1.95,3.36,3.36,0,0,1-.3,1.26l-10.44,25a3.75,3.75,0,0,1-1.32,1.59,3.38,3.38,0,0,1-2,.63h-.6A3.38,3.38,0,0,1,238.46,247.56Z"/><path d="M263.22,244.32q-4.12-4.17-4.12-11.73a19.56,19.56,0,0,1,1.56-7.86,13.31,13.31,0,0,1,4.81-5.82,13.74,13.74,0,0,1,8-2.22,13.92,13.92,0,0,1,7.67,2.07,13.39,13.39,0,0,1,4.92,5.52,17,17,0,0,1,1.68,7.53,2.62,2.62,0,0,1-2.75,2.7H264.62a9.87,9.87,0,0,0,3.12,6.54q2.64,2.34,7.38,2.34a18,18,0,0,0,4.41-.48,18.32,18.32,0,0,0,3.69-1.38,2.38,2.38,0,0,1,1.08-.24A2.41,2.41,0,0,1,286,242a2.15,2.15,0,0,1,.72,1.68,2.59,2.59,0,0,1-1.56,2.22,18.74,18.74,0,0,1-10.5,2.64Q267.32,248.49,263.22,244.32Zm19.1-14.25a9.52,9.52,0,0,0-1.53-4.92,8.3,8.3,0,0,0-3.32-2.91,9.44,9.44,0,0,0-4-.93,9.3,9.3,0,0,0-4,.93,8,8,0,0,0-3.31,2.91,9.79,9.79,0,0,0-1.5,4.92Z"/><path d="M293.9,245.79a2.29,2.29,0,0,1-1-2,2.41,2.41,0,0,1,.66-1.68,2.18,2.18,0,0,1,1.68-.72,2.64,2.64,0,0,1,1.08.24,24.25,24.25,0,0,0,3.84,1.32,17.85,17.85,0,0,0,4.32.48q6.66,0,6.66-4.26a2.27,2.27,0,0,0-1.53-2.1,31.33,31.33,0,0,0-5-1.62,45.27,45.27,0,0,1-5.85-1.74,10.29,10.29,0,0,1-4-2.73,6.94,6.94,0,0,1-1.65-4.83,8.65,8.65,0,0,1,3-6.84q3-2.64,8.67-2.64a25,25,0,0,1,8.7,1.5,2.25,2.25,0,0,1,1.29.9,2.41,2.41,0,0,1,.45,1.38,2.35,2.35,0,0,1-.69,1.68,2.27,2.27,0,0,1-1.71.72,3.37,3.37,0,0,1-.78-.12,23,23,0,0,0-6.84-1.08,9.37,9.37,0,0,0-5.07,1.17,3.49,3.49,0,0,0-1.83,3,2.77,2.77,0,0,0,1.68,2.64,24,24,0,0,0,5.22,1.62A50,50,0,0,1,311,231.9a9.52,9.52,0,0,1,3.81,2.73,7.41,7.41,0,0,1,1.59,5,7.93,7.93,0,0,1-3,6.36q-3,2.52-8.55,2.52A22.32,22.32,0,0,1,293.9,245.79Z"/><path d="M342.38,247.41a2.61,2.61,0,0,1-.78-1.92V222h-3.54a2.36,2.36,0,0,1-2.34-2.34,2.22,2.22,0,0,1,.69-1.68,2.3,2.3,0,0,1,1.65-.66h3.54v-3.48a12,12,0,0,1,1.29-5.91,8,8,0,0,1,3.36-3.36,9.49,9.49,0,0,1,4.35-1,11.51,11.51,0,0,1,5.22,1.2,2.59,2.59,0,0,1,1,.87,2.14,2.14,0,0,1,.39,1.23,2.23,2.23,0,0,1-.66,1.59,2.09,2.09,0,0,1-1.56.69,5.69,5.69,0,0,1-1.38-.18q-1.44-.18-1.62-.18a5.26,5.26,0,0,0-3.69,1.14q-1.23,1.14-1.23,4.14v3.3h7.5a2.26,2.26,0,0,1,2.34,2.34,2.3,2.3,0,0,1-.66,1.65,2.22,2.22,0,0,1-1.68.69h-7.5v23.52a2.56,2.56,0,0,1-.81,1.92,2.71,2.71,0,0,1-1.95.78A2.61,2.61,0,0,1,342.38,247.41Z"/><path d="M363,247.41a2.61,2.61,0,0,1-.78-1.92V219.75a2.71,2.71,0,0,1,.78-1.95,2.56,2.56,0,0,1,1.92-.81,2.77,2.77,0,0,1,2.76,2.76v2.58q4.2-5.64,9.42-5.64h.3a2.51,2.51,0,0,1,1.89.78,2.66,2.66,0,0,1,.75,1.92,2.42,2.42,0,0,1-.78,1.86,2.81,2.81,0,0,1-2,.72H377a10.23,10.23,0,0,0-5.28,1.41,12.16,12.16,0,0,0-4,3.87v18.24a2.56,2.56,0,0,1-.81,1.92,2.71,2.71,0,0,1-1.95.78A2.61,2.61,0,0,1,363,247.41Z"/><path d="M386.57,244.32q-4.11-4.17-4.11-11.73a19.56,19.56,0,0,1,1.56-7.86,13.36,13.36,0,0,1,4.8-5.82,13.79,13.79,0,0,1,8-2.22,14,14,0,0,1,7.68,2.07,13.39,13.39,0,0,1,4.92,5.52,17,17,0,0,1,1.68,7.53,2.62,2.62,0,0,1-2.76,2.7H388a9.87,9.87,0,0,0,3.12,6.54q2.64,2.34,7.38,2.34a18,18,0,0,0,4.41-.48,18.32,18.32,0,0,0,3.69-1.38,2.38,2.38,0,0,1,1.08-.24,2.41,2.41,0,0,1,1.68.66,2.18,2.18,0,0,1,.72,1.68,2.59,2.59,0,0,1-1.56,2.22,18.74,18.74,0,0,1-10.5,2.64Q390.68,248.49,386.57,244.32Zm19.11-14.25a9.61,9.61,0,0,0-1.53-4.92,8.26,8.26,0,0,0-3.33-2.91,9.15,9.15,0,0,0-8,0,8.06,8.06,0,0,0-3.3,2.91,9.79,9.79,0,0,0-1.5,4.92Z"/><path d="M420.53,244.32q-4.11-4.17-4.11-11.73a19.56,19.56,0,0,1,1.56-7.86,13.36,13.36,0,0,1,4.8-5.82,13.79,13.79,0,0,1,8-2.22,14,14,0,0,1,7.68,2.07,13.39,13.39,0,0,1,4.92,5.52,17,17,0,0,1,1.68,7.53,2.62,2.62,0,0,1-2.76,2.7H421.94a9.87,9.87,0,0,0,3.12,6.54q2.64,2.34,7.38,2.34a18,18,0,0,0,4.41-.48,18.32,18.32,0,0,0,3.69-1.38,2.38,2.38,0,0,1,1.08-.24,2.41,2.41,0,0,1,1.68.66,2.18,2.18,0,0,1,.72,1.68,2.59,2.59,0,0,1-1.56,2.22,18.74,18.74,0,0,1-10.5,2.64Q424.64,248.49,420.53,244.32Zm19.11-14.25a9.61,9.61,0,0,0-1.53-4.92,8.26,8.26,0,0,0-3.33-2.91,9.15,9.15,0,0,0-8,0,8.06,8.06,0,0,0-3.3,2.91,9.79,9.79,0,0,0-1.5,4.92Z"/><path d="M451,247.05a2.8,2.8,0,0,1-1.08-2.34,3.6,3.6,0,0,1,1-2.46l17.28-19.86H453a2.46,2.46,0,0,1-2.52-2.52,2.54,2.54,0,0,1,.72-1.83,2.39,2.39,0,0,1,1.8-.75h18.18a3.41,3.41,0,0,1,2.52,1,3.33,3.33,0,0,1,1,2.46,3.66,3.66,0,0,1-.84,2.4L457,242.79H472.4a2.56,2.56,0,0,1,2.58,2.58,2.39,2.39,0,0,1-.75,1.8,2.54,2.54,0,0,1-1.83.72H453.68A4.27,4.27,0,0,1,451,247.05Z"/><path d="M482.54,210.15a3,3,0,0,1-.9-2.16v-.24a3.07,3.07,0,0,1,3.06-3.06h.36a3.07,3.07,0,0,1,3.06,3.06V208a3.07,3.07,0,0,1-3.06,3.06h-.36A3,3,0,0,1,482.54,210.15Zm.36,37.26a2.61,2.61,0,0,1-.78-1.92V219.75a2.71,2.71,0,0,1,.78-1.95,2.56,2.56,0,0,1,1.92-.81,2.67,2.67,0,0,1,2.76,2.76v25.74a2.56,2.56,0,0,1-.81,1.92,2.71,2.71,0,0,1-1.95.78A2.61,2.61,0,0,1,482.9,247.41Z"/><path d="M497.84,247.41a2.61,2.61,0,0,1-.78-1.92V219.75a2.71,2.71,0,0,1,.78-1.95,2.56,2.56,0,0,1,1.92-.81,2.77,2.77,0,0,1,2.76,2.76v2.46a19.94,19.94,0,0,1,4.92-4,12.42,12.42,0,0,1,6.24-1.5,10.37,10.37,0,0,1,5.73,1.56,10.14,10.14,0,0,1,3.72,4.26,13.6,13.6,0,0,1,1.29,5.94v17a2.56,2.56,0,0,1-.81,1.92,2.71,2.71,0,0,1-2,.78,2.66,2.66,0,0,1-2.7-2.7V229.05q0-7.32-6.6-7.32a9.55,9.55,0,0,0-5.37,1.56,19.44,19.44,0,0,0-4.47,4.2v18a2.56,2.56,0,0,1-.81,1.92,2.71,2.71,0,0,1-1.95.78A2.61,2.61,0,0,1,497.84,247.41Z"/><path d="M540.86,261.39a23,23,0,0,1-5.82-2.22,2.28,2.28,0,0,1-1.08-2.1,2.46,2.46,0,0,1,.69-1.71,2.23,2.23,0,0,1,1.71-.75,3,3,0,0,1,1.08.24,21.83,21.83,0,0,0,9.9,2.28q9.18,0,9.18-9.78v-4a13.54,13.54,0,0,1-10.26,4.56,14.46,14.46,0,0,1-6.87-1.77,14.3,14.3,0,0,1-5.49-5.28,18,18,0,0,1,0-17.1,14.3,14.3,0,0,1,5.49-5.28,14.46,14.46,0,0,1,6.87-1.77,13.54,13.54,0,0,1,10.26,4.56v-1.5a2.71,2.71,0,0,1,.78-1.95,2.56,2.56,0,0,1,1.92-.81,2.77,2.77,0,0,1,2.76,2.76v26.82q0,7.56-3.66,11.64t-10.44,4.08A28.4,28.4,0,0,1,540.86,261.39Zm11.52-19.68a18,18,0,0,0,4.14-3.24V226.11a18,18,0,0,0-4.14-3.24,10.08,10.08,0,0,0-5-1.2,10.19,10.19,0,0,0-7.35,2.73q-2.85,2.73-2.85,7.89t2.85,7.89a10.19,10.19,0,0,0,7.35,2.73A10.08,10.08,0,0,0,552.38,241.71Z"/><path d="M594,247.47a3.66,3.66,0,0,1-1.32-1.8l-8.52-25a3.23,3.23,0,0,1-.18-1,2.66,2.66,0,0,1,2.7-2.7,2.74,2.74,0,0,1,1.53.45,2.21,2.21,0,0,1,.93,1.17l7,23.1,7-22.56a3.08,3.08,0,0,1,5.88,0l7,22.56,7-23.1a2.21,2.21,0,0,1,.93-1.17,2.74,2.74,0,0,1,1.53-.45,2.66,2.66,0,0,1,2.7,2.7,3.23,3.23,0,0,1-.18,1l-8.52,25a3.66,3.66,0,0,1-1.32,1.8,3.6,3.6,0,0,1-4.32,0,4,4,0,0,1-1.38-1.86l-6.36-19.86-6.36,19.86a4,4,0,0,1-1.38,1.86,3.6,3.6,0,0,1-4.32,0Z"/><path d="M636.41,244.32q-4.11-4.17-4.11-11.73a19.56,19.56,0,0,1,1.56-7.86,13.36,13.36,0,0,1,4.8-5.82,13.79,13.79,0,0,1,8-2.22,14,14,0,0,1,7.68,2.07,13.39,13.39,0,0,1,4.92,5.52,17,17,0,0,1,1.68,7.53,2.62,2.62,0,0,1-2.76,2.7H637.82a9.87,9.87,0,0,0,3.12,6.54q2.64,2.34,7.38,2.34a18,18,0,0,0,4.41-.48,18.32,18.32,0,0,0,3.69-1.38,2.38,2.38,0,0,1,1.08-.24,2.41,2.41,0,0,1,1.68.66,2.18,2.18,0,0,1,.72,1.68,2.59,2.59,0,0,1-1.56,2.22,18.74,18.74,0,0,1-10.5,2.64Q640.52,248.49,636.41,244.32Zm19.11-14.25a9.61,9.61,0,0,0-1.53-4.92,8.26,8.26,0,0,0-3.33-2.91,9.15,9.15,0,0,0-8,0,8.06,8.06,0,0,0-3.3,2.91,9.79,9.79,0,0,0-1.5,4.92Z"/><path d="M671,247.41a8.52,8.52,0,0,1-3.57-3.15,8.68,8.68,0,0,1-1.32-4.77,8.41,8.41,0,0,1,3.51-7.08q3.51-2.64,10.29-2.64h7.26v-.48q0-4-2-5.7t-6.09-1.74a20.45,20.45,0,0,0-4,.36,34,34,0,0,0-3.93,1.08,3.37,3.37,0,0,1-.78.12,2.13,2.13,0,0,1-1.56-.66,2.2,2.2,0,0,1-.66-1.62,2.31,2.31,0,0,1,1.56-2.28,26.39,26.39,0,0,1,10.38-2.16,13.55,13.55,0,0,1,7,1.68,10.56,10.56,0,0,1,4.2,4.35,12.65,12.65,0,0,1,1.35,5.79v17a2.56,2.56,0,0,1-.81,1.92,2.71,2.71,0,0,1-2,.78,2.66,2.66,0,0,1-2.7-2.7v-1.56a15.07,15.07,0,0,1-11.28,4.56A11.15,11.15,0,0,1,671,247.41Zm12-5a14.18,14.18,0,0,0,4.14-3.21v-5h-6.54q-9.06,0-9.06,4.74a4.45,4.45,0,0,0,1.47,3.48q1.47,1.32,4.89,1.32A10.85,10.85,0,0,0,683.06,242.4Z"/><path d="M702.92,240.57V222h-4.26a1.13,1.13,0,0,1-1.14-1.14,1.25,1.25,0,0,1,.54-1l8.16-8a1.51,1.51,0,0,1,1-.54,1.06,1.06,0,0,1,.81.36,1.2,1.2,0,0,1,.33.84v4.8h6.78a2.26,2.26,0,0,1,2.34,2.34,2.3,2.3,0,0,1-.66,1.65,2.22,2.22,0,0,1-1.68.69h-6.78v18.12q0,2.34,1.11,3a5.59,5.59,0,0,0,2.79.63,8.32,8.32,0,0,0,2.4-.36l.51-.12a3.27,3.27,0,0,1,.69-.06,2.11,2.11,0,0,1,1.5.63,2,2,0,0,1,.66,1.53,2.27,2.27,0,0,1-1.38,2.1,11.74,11.74,0,0,1-5,1.08Q702.92,248.49,702.92,240.57Z"/><path d="M724.82,247.41a2.61,2.61,0,0,1-.78-1.92V206.55a2.71,2.71,0,0,1,.78-2,2.56,2.56,0,0,1,1.92-.81,2.77,2.77,0,0,1,2.76,2.76v15.66a19.94,19.94,0,0,1,4.92-4,12.42,12.42,0,0,1,6.24-1.5,10.37,10.37,0,0,1,5.73,1.56,10.14,10.14,0,0,1,3.72,4.26,13.6,13.6,0,0,1,1.29,5.94v17a2.56,2.56,0,0,1-.81,1.92,2.71,2.71,0,0,1-2,.78,2.66,2.66,0,0,1-2.7-2.7V229.05q0-7.32-6.6-7.32a9.55,9.55,0,0,0-5.37,1.56,19.44,19.44,0,0,0-4.47,4.2v18a2.56,2.56,0,0,1-.81,1.92,2.71,2.71,0,0,1-2,.78A2.61,2.61,0,0,1,724.82,247.41Z"/><path d="M762.83,244.32q-4.11-4.17-4.11-11.73a19.56,19.56,0,0,1,1.56-7.86,13.36,13.36,0,0,1,4.8-5.82,13.79,13.79,0,0,1,8-2.22,14,14,0,0,1,7.68,2.07,13.39,13.39,0,0,1,4.92,5.52,17,17,0,0,1,1.68,7.53,2.62,2.62,0,0,1-2.76,2.7H764.24a9.87,9.87,0,0,0,3.12,6.54q2.64,2.34,7.38,2.34a18,18,0,0,0,4.41-.48,18.32,18.32,0,0,0,3.69-1.38,2.38,2.38,0,0,1,1.08-.24,2.41,2.41,0,0,1,1.68.66,2.18,2.18,0,0,1,.72,1.68,2.59,2.59,0,0,1-1.56,2.22,18.74,18.74,0,0,1-10.5,2.64Q766.94,248.49,762.83,244.32Zm19.11-14.25a9.61,9.61,0,0,0-1.53-4.92,8.26,8.26,0,0,0-3.33-2.91,9.15,9.15,0,0,0-8,0,8.06,8.06,0,0,0-3.3,2.91,9.79,9.79,0,0,0-1.5,4.92Z"/><path d="M795.32,247.41a2.61,2.61,0,0,1-.78-1.92V219.75a2.71,2.71,0,0,1,.78-1.95,2.56,2.56,0,0,1,1.92-.81,2.77,2.77,0,0,1,2.76,2.76v2.58q4.2-5.64,9.42-5.64h.3a2.51,2.51,0,0,1,1.89.78,2.66,2.66,0,0,1,.75,1.92,2.42,2.42,0,0,1-.78,1.86,2.81,2.81,0,0,1-2,.72h-.3a10.23,10.23,0,0,0-5.28,1.41,12.16,12.16,0,0,0-4,3.87v18.24a2.56,2.56,0,0,1-.81,1.92,2.71,2.71,0,0,1-2,.78A2.61,2.61,0,0,1,795.32,247.41Z"/><path d="M126.54,319.41a8.46,8.46,0,0,1-3.57-3.15,8.68,8.68,0,0,1-1.32-4.77,8.41,8.41,0,0,1,3.51-7.08q3.51-2.64,10.29-2.64h7.26v-.48c0-2.64-.66-4.54-2-5.7s-3.33-1.74-6.09-1.74a20.31,20.31,0,0,0-4,.36,34,34,0,0,0-3.93,1.08,3.45,3.45,0,0,1-.78.12,2.13,2.13,0,0,1-1.56-.66,2.2,2.2,0,0,1-.66-1.62,2.3,2.3,0,0,1,1.56-2.28,26.35,26.35,0,0,1,10.38-2.16,13.55,13.55,0,0,1,7,1.68,10.62,10.62,0,0,1,4.2,4.35,12.65,12.65,0,0,1,1.35,5.79v17a2.56,2.56,0,0,1-.81,1.92,2.73,2.73,0,0,1-2,.78,2.66,2.66,0,0,1-2.7-2.7v-1.56a15.09,15.09,0,0,1-11.28,4.56A11.12,11.12,0,0,1,126.54,319.41Zm12-5a14.18,14.18,0,0,0,4.14-3.21v-5h-6.54q-9.06,0-9.06,4.74a4.42,4.42,0,0,0,1.47,3.48q1.47,1.32,4.89,1.32A10.85,10.85,0,0,0,138.57,314.4Z"/><path d="M158.13,319.41a2.57,2.57,0,0,1-.78-1.92V291.75a2.67,2.67,0,0,1,.78-1.95,2.53,2.53,0,0,1,1.92-.81,2.77,2.77,0,0,1,2.76,2.76v2.46a19.59,19.59,0,0,1,4.92-4,12.42,12.42,0,0,1,6.24-1.5,10.4,10.4,0,0,1,5.73,1.56,10.21,10.21,0,0,1,3.72,4.26,13.6,13.6,0,0,1,1.29,5.94v17a2.56,2.56,0,0,1-.81,1.92,2.73,2.73,0,0,1-2,.78,2.58,2.58,0,0,1-1.92-.78,2.61,2.61,0,0,1-.78-1.92V301.05c0-4.88-2.21-7.32-6.6-7.32a9.5,9.5,0,0,0-5.37,1.56,19,19,0,0,0-4.47,4.2v18a2.56,2.56,0,0,1-.81,1.92,2.73,2.73,0,0,1-1.95.78A2.58,2.58,0,0,1,158.13,319.41Z"/><path d="M199.49,318.6a14.34,14.34,0,0,1-5.4-5.52,18.45,18.45,0,0,1,0-17,14.34,14.34,0,0,1,5.4-5.52,14.07,14.07,0,0,1,7-1.89,13.79,13.79,0,0,1,10.26,4.56v-14.7a2.63,2.63,0,0,1,.81-2,2.71,2.71,0,0,1,1.95-.78,2.56,2.56,0,0,1,1.92.81,2.71,2.71,0,0,1,.78,1.95v38.94a2.66,2.66,0,0,1-2.7,2.7,2.71,2.71,0,0,1-1.95-.78,2.56,2.56,0,0,1-.81-1.92v-1.56a13.79,13.79,0,0,1-10.26,4.56A14.07,14.07,0,0,1,199.49,318.6Zm13-4.44a14.69,14.69,0,0,0,4.29-3.27v-12.6a14.69,14.69,0,0,0-4.29-3.27,11.33,11.33,0,0,0-5.19-1.23,9.43,9.43,0,0,0-7.14,2.82c-1.79,1.88-2.7,4.54-2.7,8s.91,6.1,2.7,8a9.43,9.43,0,0,0,7.14,2.82A11.33,11.33,0,0,0,212.51,314.16Z"/><path d="M252.8,315.93v1.56a2.56,2.56,0,0,1-.81,1.92,2.71,2.71,0,0,1-2,.78,2.66,2.66,0,0,1-2.7-2.7V278.55a2.71,2.71,0,0,1,.78-1.95,2.56,2.56,0,0,1,1.92-.81,2.67,2.67,0,0,1,2.76,2.76v14.7a13.79,13.79,0,0,1,10.26-4.56,14.07,14.07,0,0,1,7.05,1.89,14.34,14.34,0,0,1,5.4,5.52,18.45,18.45,0,0,1,0,17,14.34,14.34,0,0,1-5.4,5.52,14.07,14.07,0,0,1-7.05,1.89A13.79,13.79,0,0,1,252.8,315.93Zm16.62-3.36q2.7-2.82,2.7-8t-2.7-8a9.43,9.43,0,0,0-7.14-2.82,11.33,11.33,0,0,0-5.19,1.23,14.82,14.82,0,0,0-4.29,3.27v12.6a14.82,14.82,0,0,0,4.29,3.27,11.33,11.33,0,0,0,5.19,1.23A9.43,9.43,0,0,0,269.42,312.57Z"/><path d="M287.45,316.32q-4.11-4.17-4.11-11.73a19.56,19.56,0,0,1,1.56-7.86,13.36,13.36,0,0,1,4.8-5.82,13.79,13.79,0,0,1,8-2.22,14,14,0,0,1,7.68,2.07,13.39,13.39,0,0,1,4.92,5.52,17,17,0,0,1,1.68,7.53,2.62,2.62,0,0,1-2.76,2.7H288.86a9.87,9.87,0,0,0,3.12,6.54q2.64,2.34,7.38,2.34a18,18,0,0,0,4.41-.48,18.32,18.32,0,0,0,3.69-1.38,2.38,2.38,0,0,1,1.08-.24,2.41,2.41,0,0,1,1.68.66,2.18,2.18,0,0,1,.72,1.68,2.59,2.59,0,0,1-1.56,2.22,18.74,18.74,0,0,1-10.5,2.64Q291.56,320.49,287.45,316.32Zm19.11-14.25a9.61,9.61,0,0,0-1.53-4.92,8.26,8.26,0,0,0-3.33-2.91,9.15,9.15,0,0,0-8,0,8.06,8.06,0,0,0-3.3,2.91,9.79,9.79,0,0,0-1.5,4.92Z"/><path d="M319.58,282.15a3,3,0,0,1-.9-2.16v-.24a3.07,3.07,0,0,1,3.06-3.06h.36a3.07,3.07,0,0,1,3.06,3.06V280a3.07,3.07,0,0,1-3.06,3.06h-.36A3,3,0,0,1,319.58,282.15Zm.36,37.26a2.61,2.61,0,0,1-.78-1.92V291.75a2.71,2.71,0,0,1,.78-1.95,2.56,2.56,0,0,1,1.92-.81,2.67,2.67,0,0,1,2.76,2.76v25.74a2.56,2.56,0,0,1-.81,1.92,2.71,2.71,0,0,1-1.95.78A2.61,2.61,0,0,1,319.94,319.41Z"/><path d="M334.88,319.41a2.61,2.61,0,0,1-.78-1.92V291.75a2.71,2.71,0,0,1,.78-1.95,2.56,2.56,0,0,1,1.92-.81,2.77,2.77,0,0,1,2.76,2.76v2.46a19.94,19.94,0,0,1,4.92-4,12.42,12.42,0,0,1,6.24-1.5,10.37,10.37,0,0,1,5.73,1.56,10.14,10.14,0,0,1,3.72,4.26,13.6,13.6,0,0,1,1.29,5.94v17a2.56,2.56,0,0,1-.81,1.92,2.71,2.71,0,0,1-1.95.78,2.66,2.66,0,0,1-2.7-2.7V301.05q0-7.32-6.6-7.32a9.55,9.55,0,0,0-5.37,1.56,19.44,19.44,0,0,0-4.47,4.2v18a2.56,2.56,0,0,1-.81,1.92,2.71,2.71,0,0,1-1.95.78A2.61,2.61,0,0,1,334.88,319.41Z"/><path d="M377.9,333.39a23,23,0,0,1-5.82-2.22,2.28,2.28,0,0,1-1.08-2.1,2.46,2.46,0,0,1,.69-1.71,2.23,2.23,0,0,1,1.71-.75,3,3,0,0,1,1.08.24,21.83,21.83,0,0,0,9.9,2.28q9.18,0,9.18-9.78v-4a13.54,13.54,0,0,1-10.26,4.56,14.46,14.46,0,0,1-6.87-1.77,14.3,14.3,0,0,1-5.49-5.28,18,18,0,0,1,0-17.1,14.3,14.3,0,0,1,5.49-5.28,14.46,14.46,0,0,1,6.87-1.77,13.54,13.54,0,0,1,10.26,4.56v-1.5a2.71,2.71,0,0,1,.78-1.95,2.56,2.56,0,0,1,1.92-.81,2.77,2.77,0,0,1,2.76,2.76v26.82q0,7.56-3.66,11.64t-10.44,4.08A28.4,28.4,0,0,1,377.9,333.39Zm11.52-19.68a18,18,0,0,0,4.14-3.24V298.11a18,18,0,0,0-4.14-3.24,10.08,10.08,0,0,0-5-1.2,10.19,10.19,0,0,0-7.35,2.73q-2.85,2.73-2.85,7.89t2.85,7.89a10.19,10.19,0,0,0,7.35,2.73A10.08,10.08,0,0,0,389.42,313.71Z"/><path d="M424.52,282.15a3,3,0,0,1-.9-2.16v-.24a3.07,3.07,0,0,1,3.06-3.06H427a3.07,3.07,0,0,1,3.06,3.06V280a3.07,3.07,0,0,1-3.06,3.06h-.36A3,3,0,0,1,424.52,282.15Zm.36,37.26a2.61,2.61,0,0,1-.78-1.92V291.75a2.71,2.71,0,0,1,.78-1.95,2.56,2.56,0,0,1,1.92-.81,2.67,2.67,0,0,1,2.76,2.76v25.74a2.56,2.56,0,0,1-.81,1.92,2.71,2.71,0,0,1-1.95.78A2.61,2.61,0,0,1,424.88,319.41Z"/><path d="M439.82,319.41a2.61,2.61,0,0,1-.78-1.92V291.75a2.71,2.71,0,0,1,.78-1.95,2.56,2.56,0,0,1,1.92-.81,2.77,2.77,0,0,1,2.76,2.76v2.46a19.94,19.94,0,0,1,4.92-4,12.42,12.42,0,0,1,6.24-1.5,10.37,10.37,0,0,1,5.73,1.56,10.14,10.14,0,0,1,3.72,4.26,13.6,13.6,0,0,1,1.29,5.94v17a2.56,2.56,0,0,1-.81,1.92,2.71,2.71,0,0,1-1.95.78,2.66,2.66,0,0,1-2.7-2.7V301.05q0-7.32-6.6-7.32a9.55,9.55,0,0,0-5.37,1.56,19.44,19.44,0,0,0-4.47,4.2v18a2.56,2.56,0,0,1-.81,1.92,2.71,2.71,0,0,1-1.95.78A2.61,2.61,0,0,1,439.82,319.41Z"/><path d="M493,312.57V294h-4.26a1.13,1.13,0,0,1-1.14-1.14,1.25,1.25,0,0,1,.54-1l8.16-8a1.51,1.51,0,0,1,1-.54,1.06,1.06,0,0,1,.81.36,1.2,1.2,0,0,1,.33.84v4.8h6.78a2.26,2.26,0,0,1,2.34,2.34,2.3,2.3,0,0,1-.66,1.65,2.22,2.22,0,0,1-1.68.69h-6.78v18.12q0,2.34,1.11,3a5.59,5.59,0,0,0,2.79.63,8.32,8.32,0,0,0,2.4-.36l.51-.12a3.27,3.27,0,0,1,.69-.06,2.11,2.11,0,0,1,1.5.63,2,2,0,0,1,.66,1.53,2.27,2.27,0,0,1-1.38,2.1,11.74,11.74,0,0,1-5,1.08Q493,320.49,493,312.57Z"/><path d="M514.88,319.41a2.61,2.61,0,0,1-.78-1.92V278.55a2.71,2.71,0,0,1,.78-1.95,2.56,2.56,0,0,1,1.92-.81,2.77,2.77,0,0,1,2.76,2.76v15.66a19.94,19.94,0,0,1,4.92-4,12.42,12.42,0,0,1,6.24-1.5,10.37,10.37,0,0,1,5.73,1.56,10.14,10.14,0,0,1,3.72,4.26,13.6,13.6,0,0,1,1.29,5.94v17a2.56,2.56,0,0,1-.81,1.92,2.71,2.71,0,0,1-1.95.78,2.66,2.66,0,0,1-2.7-2.7V301.05q0-7.32-6.6-7.32a9.55,9.55,0,0,0-5.37,1.56,19.44,19.44,0,0,0-4.47,4.2v18a2.56,2.56,0,0,1-.81,1.92,2.71,2.71,0,0,1-2,.78A2.61,2.61,0,0,1,514.88,319.41Z"/><path d="M552.89,316.32q-4.11-4.17-4.11-11.73a19.56,19.56,0,0,1,1.56-7.86,13.36,13.36,0,0,1,4.8-5.82,13.79,13.79,0,0,1,8-2.22,14,14,0,0,1,7.68,2.07,13.39,13.39,0,0,1,4.92,5.52,17,17,0,0,1,1.68,7.53,2.62,2.62,0,0,1-2.76,2.7H554.3a9.87,9.87,0,0,0,3.12,6.54q2.64,2.34,7.38,2.34a18,18,0,0,0,4.41-.48,18.32,18.32,0,0,0,3.69-1.38,2.38,2.38,0,0,1,1.08-.24,2.41,2.41,0,0,1,1.68.66,2.18,2.18,0,0,1,.72,1.68,2.59,2.59,0,0,1-1.56,2.22,18.74,18.74,0,0,1-10.5,2.64Q557,320.49,552.89,316.32ZM572,302.07a9.61,9.61,0,0,0-1.53-4.92,8.26,8.26,0,0,0-3.33-2.91,9.15,9.15,0,0,0-8,0,8.06,8.06,0,0,0-3.3,2.91,9.79,9.79,0,0,0-1.5,4.92Z"/><path d="M599.18,317.79a2.29,2.29,0,0,1-1-2,2.41,2.41,0,0,1,.66-1.68,2.18,2.18,0,0,1,1.68-.72,2.64,2.64,0,0,1,1.08.24,24.25,24.25,0,0,0,3.84,1.32,17.85,17.85,0,0,0,4.32.48q6.66,0,6.66-4.26a2.27,2.27,0,0,0-1.53-2.1,31.33,31.33,0,0,0-5-1.62,45.27,45.27,0,0,1-5.85-1.74,10.29,10.29,0,0,1-4-2.73,6.94,6.94,0,0,1-1.65-4.83,8.65,8.65,0,0,1,3-6.84q3-2.64,8.67-2.64a25,25,0,0,1,8.7,1.5,2.25,2.25,0,0,1,1.29.9,2.41,2.41,0,0,1,.45,1.38,2.35,2.35,0,0,1-.69,1.68,2.27,2.27,0,0,1-1.71.72,3.37,3.37,0,0,1-.78-.12,23,23,0,0,0-6.84-1.08,9.37,9.37,0,0,0-5.07,1.17,3.49,3.49,0,0,0-1.83,3,2.77,2.77,0,0,0,1.68,2.64,24,24,0,0,0,5.22,1.62,50,50,0,0,1,5.76,1.77,9.52,9.52,0,0,1,3.81,2.73,7.41,7.41,0,0,1,1.59,5,7.93,7.93,0,0,1-3,6.36q-3,2.52-8.55,2.52A22.32,22.32,0,0,1,599.18,317.79Z"/><path d="M629.78,319.41a2.61,2.61,0,0,1-.78-1.92V291.75a2.71,2.71,0,0,1,.78-1.95,2.56,2.56,0,0,1,1.92-.81,2.77,2.77,0,0,1,2.76,2.76v2.46a19.94,19.94,0,0,1,4.92-4,12.42,12.42,0,0,1,6.24-1.5,10.37,10.37,0,0,1,5.73,1.56,10.14,10.14,0,0,1,3.72,4.26,13.6,13.6,0,0,1,1.29,5.94v17a2.56,2.56,0,0,1-.81,1.92,2.71,2.71,0,0,1-1.95.78,2.66,2.66,0,0,1-2.7-2.7V301.05q0-7.32-6.6-7.32a9.55,9.55,0,0,0-5.37,1.56,19.44,19.44,0,0,0-4.47,4.2v18a2.56,2.56,0,0,1-.81,1.92,2.71,2.71,0,0,1-1.95.78A2.61,2.61,0,0,1,629.78,319.41Z"/><path d="M670.94,318.51a13.46,13.46,0,0,1-5.37-5.61,19.21,19.21,0,0,1,0-16.62,13.46,13.46,0,0,1,5.37-5.61,17.44,17.44,0,0,1,16.14,0,13.65,13.65,0,0,1,5.4,5.61,18.94,18.94,0,0,1,0,16.62,13.65,13.65,0,0,1-5.4,5.61,17.44,17.44,0,0,1-16.14,0Zm12.81-4.14a9.16,9.16,0,0,0,3.72-3.6,12,12,0,0,0,1.47-6.24,11.88,11.88,0,0,0-1.47-6.18,9,9,0,0,0-3.72-3.57,10.52,10.52,0,0,0-4.71-1.11,10.64,10.64,0,0,0-4.77,1.11,8.78,8.78,0,0,0-3.69,3.57,12.08,12.08,0,0,0-1.44,6.18,12.21,12.21,0,0,0,1.44,6.24,9,9,0,0,0,3.69,3.6,10.41,10.41,0,0,0,4.77,1.14A10.29,10.29,0,0,0,683.75,314.37Z"/><path d="M708.56,319.47a3.66,3.66,0,0,1-1.32-1.8l-8.52-25a3.23,3.23,0,0,1-.18-1,2.66,2.66,0,0,1,2.7-2.7,2.74,2.74,0,0,1,1.53.45,2.21,2.21,0,0,1,.93,1.17l7,23.1,7-22.56a3.08,3.08,0,0,1,5.88,0l7,22.56,7-23.1a2.21,2.21,0,0,1,.93-1.17A2.74,2.74,0,0,1,740,289a2.66,2.66,0,0,1,2.7,2.7,3.23,3.23,0,0,1-.18,1l-8.52,25a3.66,3.66,0,0,1-1.32,1.8,3.6,3.6,0,0,1-4.32,0,4,4,0,0,1-1.38-1.86l-6.36-19.86-6.36,19.86a4,4,0,0,1-1.38,1.86,3.6,3.6,0,0,1-4.32,0Z"/><path d="M747.11,319.08a3.23,3.23,0,0,1-1-2.37v-.36a3.38,3.38,0,0,1,3.36-3.36h.6a3.38,3.38,0,0,1,3.36,3.36v.36a3.38,3.38,0,0,1-3.36,3.36h-.6A3.23,3.23,0,0,1,747.11,319.08Z"/><g class="cls-4"><g class="cls-4"><path class="cls-5" d="M1287.05,770.72c-15.61-.77-6.11,2.09-.81,4.75a15.35,15.35,0,0,1,1.36-1C1287.38,773.26,1287.15,772,1287.05,770.72Z"/><path class="cls-5" d="M1287.6,774.52a15.35,15.35,0,0,0-1.36,1,16.24,16.24,0,0,1,1.69.95C1287.81,775.79,1287.7,775.16,1287.6,774.52Z"/><path class="cls-5" d="M1295,771.26c-3.18-.26-5.79-.43-8-.54.1,1.27.33,2.54.55,3.8A30.23,30.23,0,0,1,1295,771.26Z"/><path class="cls-5" d="M1287.93,776.42c.15.68.21,1.36.4,2C1289.59,777.94,1289.14,777.22,1287.93,776.42Z"/><path class="cls-6" d="M1405.35,842.33c3.45-8.36,6.79-16.74,9.93-25.15s5.92-16.86,8.62-25.34c-8.75,4.08-17.69,7.9-23.67,11.46-9.59,5.3-10.61,11.44-8.25,18.09S1400.45,835.19,1405.35,842.33Z"/><path class="cls-7" d="M1429.9,766.22q2-8.62,3.93-17.32C1429.45,754.35,1427.07,760.06,1429.9,766.22Z"/><path class="cls-6" d="M1401.29,841c-4.89-7.11-11-14.26-13.36-20.87a16.23,16.23,0,0,1-1.06-4.87,11,11,0,0,1,.67-4.65c1.16-3,3.83-5.87,8.6-8.51,6-3.56,14.94-7.38,23.66-11.45q3.09-10.1,6-20.25c1.89-6.77,3.5-13.57,5.14-20.39a12.59,12.59,0,0,1-.76-8.91,23.87,23.87,0,0,1,4.51-8.45c1.32-6.79,2.66-13.6,3.73-20.44s2.07-13.71,3-20.61,1.54-13.83,2.21-20.79,1.13-14,1.52-21a643.08,643.08,0,0,0-1-86.29c-.15-3.48-9-21-21.35-23.2l-9.62-5.06-5.59.56c-.08,5.26-1.93,10.59,2,15.94.29,3.37,6.7,6.23,7,9.63.55,7.62-.45,14.93.07,22.33a38.87,38.87,0,0,0,8.89,23.15c1.58,1.21,1.28,2.72,0,4.37a36.19,36.19,0,0,1-5.72,5.24c-4.44,3.58-8.89,7.1-5.77,9.54a24.85,24.85,0,0,1,.25,14.65,78.23,78.23,0,0,1-5.69,13.94c-4.36,9.11-9,17.85-6,27.08,3.07,7.56,7.41,13.94,10.33,20.34s4.32,12.82.91,20.31c-.14,3.37,5.74,8.7,5.59,12.1-1.71,5.44-3.58,10.86-5.53,16.26s-4,10.76-6.23,16.1-4.84,10.62-7.64,15.85q-2.1,3.95-4.43,7.82t-5.07,7.72c-.49,5-25.19,7.5-19.62,13,11.41,7.84,16.64,15.15,21.92,22.54-.19,1.67-18.51,1.1-18.9,4.37-3.14,6-1,12.47,1.82,18.91,1.37,3.22,2.92,6.44,3.93,9.57a18.66,18.66,0,0,1,1,9c1.89-.37,3.64-.76,5.3-1.18,1.39-2.77,2.79-5.54,4.12-8.32s2.59-5.58,3.89-8.36C1396.4,852.15,1398.92,846.57,1401.29,841Z"/><path class="cls-6" d="M1373.14,909.12a52.82,52.82,0,0,1-6.36-6.56c-13.83,8.59-18.28,20.44-10.12,34.2q4.29-6.88,8.45-13.79l4.11-6.91C1370.57,913.76,1371.84,911.44,1373.14,909.12Z"/><path class="cls-6" d="M1378.1,891.24l-1.08.17c3-5.65,6-11.34,8.83-17-1.66.42-3.41.81-5.3,1.18-.62,3.4-2.69,6.56-7.36,9.28-1.31.7-2.55,1.44-3.74,2.19a48.92,48.92,0,0,0,4.67,4.84c-.72.11-1.36.24-2.12.34-8.77,1.44-9.12,5.22-5.22,10.33,1.21-.74,2.46-1.46,3.79-2.15C1375.29,897.76,1377.42,894.62,1378.1,891.24Z"/><path class="cls-8" d="M1216.86,860.38c9.8-3.62,7.42-8.14,4.28-12.68-1.58-2.28-3.31-4.57-3.86-6.82s.12-4.45,3.49-6.57c8.68-6.35,8.69-13.73,6.65-21.22-9.7,15.36-19.19,29.72-21.07,45.35A52.61,52.61,0,0,1,1216.86,860.38Z"/><path class="cls-9" d="M1285.1,916.68c-8.36-4.88-11.94-9.59-7.61-14.36,3.91-4,10.57-7.11,16.54-10.22s11.13-6.24,11.81-10.12c2.46-5.19,1.38-11.18-.71-17.37-1.06-3.1-2.4-6.25-3.74-9.4s-2.77-6.32-3.87-9.43c-2.24-6.23-3.3-12.23-1.06-17.73s7.74-10.51,19-14.81c9.71-4.07,15.5-8.88,18.88-14.12a27.37,27.37,0,0,0,4.07-16.75c-.3-5.85-1.73-11.89-3-17.93-.6-3-1.23-6.05-1.65-9.07a45.35,45.35,0,0,1-.44-9c.29-4.79-11.46-11.75-11.32-16.46.17-3.94.33-7.78.48-11.55s.32-7.46.38-11.11c.15-7.29.36-14.39.45-21.49,0-5.51,7.64-8.62,14.5-12,3.43-1.69,6.67-3.44,8.68-5.58a6.38,6.38,0,0,0,1.2-7.87c0-1.59,12.1-5,12.08-6.58-6.32-37.24-3-75.77,4.37-114.54-13.31,1-26.2,2.28-38,3.83a54.45,54.45,0,0,1,.52,19c-.21,1.61-.47,3.22-.78,4.84s-.71,3.23-1.13,4.84c-.83,3.23-1.79,6.46-2.83,9.67s-2.14,6.4-3.24,9.56l-3.39,9.4a123.83,123.83,0,0,0-5.11,18.08,89.41,89.41,0,0,0-4.57,23.55c-.65,7.79-.5,15.56-.43,23.33a229.88,229.88,0,0,1-.88,23.32,84.42,84.42,0,0,1-5.86,23.13,182.31,182.31,0,0,0-7.73,22c-2.07,7.44-3.23,14.94-2.5,22.38,2.16.08,4.77.22,8,.44a31.82,31.82,0,0,0-7.39,3.35c.1.63.21,1.27.34,1.9,1.2.77,1.65,1.49.39,2-.19-.67-.24-1.34-.39-2a14.24,14.24,0,0,0-1.7-.94c-6.38,5.16-2.11,11.4,2.36,17.2s9,11.11,3.41,14c-19.22,9.76-19.26,22.59-17,35.65,1,6.5,2.64,13,2.69,19a21,21,0,0,1-1.45,8.46,17.47,17.47,0,0,1-5.43,7.14c-15.61,18.07-16.69,34.73,6.89,54.77C1280.84,916.9,1282.91,916.75,1285.1,916.68Z"/><path class="cls-10" d="M1341,926.39c3.78.08,7,.11,9.56.1-7.36-5.21-12.57-10.31-16.12-15.32a35.78,35.78,0,0,1-6.38-14.77,38.18,38.18,0,0,1,.46-14.23,83.16,83.16,0,0,1,4.09-13.63c.25-1.58,12.78-2.93,19.3-5.28,3.64-3.59-2-7.72-7.6-11.55s-11.27-7.44-7.82-10.22a98.23,98.23,0,0,0,17-19.28,92.94,92.94,0,0,0,5.88-10.09,90.15,90.15,0,0,0,4.22-10.34,92.13,92.13,0,0,0,4.53-21.16q.51-5.36.58-10.74c0-3.59,0-7.18-.3-10.79-.52-7.21-1.45-14.43-2.63-21.64s-2.76-14.41-4.23-21.57c-3.1-14.35-6.17-28.55-7.72-42.68,0-3.25,30.43.06,36.52-4.92a33,33,0,0,0,1.8-4.92c.43-1.61.74-3.2,1-4.78.53-3.15.86-6.22,1.58-9.25,1.43-6.07,4.42-12,13.32-18.1,6-1.88-12.41-6.36-18.67-11.08a21.44,21.44,0,0,1-5-6.57,16.14,16.14,0,0,1-1.58-6.57c-.14-4.39,1.35-8.81,3-13.27.83-2.23,1.73-4.46,2.46-6.7a36.89,36.89,0,0,0,1.56-6.7,17.13,17.13,0,0,0-3.54-13.24c-4.79-4.56-5.63-9.39-5.93-14.3s-.19-9.84-3.29-14.46c-4.33.25-8.65.55-12.94.86-7.4,38.77-10.69,77.3-4.37,114.54,0,1.63-12.1,5-12.08,6.58,1.23,2.48.3,4.45-1.78,6.23s-5.26,3.34-8.61,5c-6.69,3.39-14,7.22-14,14.17-.09,7.23-.31,14.27-.45,21.5-.06,3.62-.21,7.28-.37,11s-.32,7.61-.49,11.61c-.14,4.71,11.61,11.67,11.32,16.46a45.35,45.35,0,0,0,.44,9c.42,3,1,6,1.65,9.07,1.23,6,2.66,12.08,3,17.93a27.37,27.37,0,0,1-4.07,16.75c-3.38,5.24-9.17,10-18.88,14.12-11.23,4.3-16.8,9.3-19,14.81s-1.18,11.5,1.06,17.73c1.1,3.11,2.53,6.27,3.87,9.43s2.68,6.3,3.74,9.4c2.09,6.19,3.17,12.18.71,17.37-.68,3.88-5.86,7-11.81,10.12s-12.63,6.24-16.54,10.22c-4.33,4.77-.75,9.48,7.61,14.36,15.36-.45,36.13,2,56.62,6C1341.55,923.61,1341.27,925,1341,926.39Z"/><path class="cls-11" d="M1294.67,925.57c28.74,3.68,48.16,4.61,55.9,4.54s3.79-1.06-14.18-1.48c.26-1.35.54-2.76.72-3.67-20.49-4-41.26-6.58-56.59-6.17A120.1,120.1,0,0,0,1294.67,925.57Z"/><path class="cls-11" d="M1356.51,926.42l3.15-5.07a28.69,28.69,0,0,1-3.85-9.88,19.36,19.36,0,0,1,.46-9.11c1.71-5.78,6.29-10.94,13.18-15.31-4-5.06-3.71-8.85,5-10.4,2.19-.33,4.15-.69,6.08-1.07a18.66,18.66,0,0,0-1-9c-1-3.13-2.56-6.35-3.93-9.57-2.77-6.44-5-12.89-1.82-18.91.39-3.27,18.71-2.7,18.9-4.37-5.28-7.39-10.51-14.7-21.92-22.54-5.57-5.51,19.13-8,19.62-13q2.67-3.84,5.07-7.72t4.43-7.82c2.8-5.23,5.32-10.53,7.64-15.85s4.28-10.71,6.23-16.1,3.82-10.82,5.53-16.26c.15-3.4-5.73-8.73-5.59-12.1,3.41-7.49,2-13.91-.91-20.31s-7.26-12.78-10.33-20.34c-3-9.23,1.66-18,6-27.08a78.23,78.23,0,0,0,5.69-13.94,24.85,24.85,0,0,0-.25-14.65c-3.12-2.44,1.33-6,5.77-9.54a36.19,36.19,0,0,0,5.72-5.24c1.25-1.65,1.55-3.16,0-4.37a38.87,38.87,0,0,1-8.89-23.15c-.52-7.4.48-14.71-.07-22.33-.26-3.4-6.67-6.26-7-9.63-3.91-5.35-2.06-10.68-2-15.94l-20.66,2.06c-3.25.14-6.49.31-9.74.49,3.1,4.62,3,9.57,3.29,14.46s1.14,9.74,5.93,14.3a17.13,17.13,0,0,1,3.54,13.24,36.89,36.89,0,0,1-1.56,6.7c-.73,2.24-1.63,4.47-2.46,6.7-1.66,4.46-3.15,8.88-3,13.27a16.14,16.14,0,0,0,1.58,6.57,21.44,21.44,0,0,0,5,6.57c6.26,4.72,24.69,9.2,18.67,11.08-8.9,6.15-11.89,12-13.32,18.1-.72,3-1,6.1-1.58,9.25-.26,1.58-.57,3.17-1,4.78a33,33,0,0,1-1.8,4.92c-6.09,5-36.51,1.67-36.52,4.92,1.55,14.13,4.62,28.33,7.72,42.68,1.47,7.16,3,14.36,4.23,21.57s2.11,14.43,2.63,21.64c.28,3.61.35,7.2.3,10.79s-.24,7.17-.58,10.74a92.13,92.13,0,0,1-4.53,21.16,90.15,90.15,0,0,1-4.22,10.34,92.94,92.94,0,0,1-5.88,10.09,98.23,98.23,0,0,1-17,19.28c-3.45,2.78,2.21,6.36,7.82,10.22s11.24,8,7.6,11.55c-6.52,2.35-19.05,3.7-19.3,5.28a83.16,83.16,0,0,0-4.09,13.63,38.18,38.18,0,0,0-.46,14.23,35.78,35.78,0,0,0,6.38,14.77c3.55,5,8.76,10.11,16.12,15.32C1354.32,926.48,1356.51,926.42,1356.51,926.42Z"/><path class="cls-8" d="M1261,718.75a112.38,112.38,0,0,1-3.42,20.18,24.76,24.76,0,0,1-.64,2.93c1.6-3.77,3.5-7.6,4.45-11.47A18.29,18.29,0,0,0,1261,718.75Z"/><path class="cls-8" d="M1253.72,753c-2.24,7.36-5,15.62-6.21,20.06,10.31-4.07,17.51-8.83,18-14.8C1265.5,758.28,1254,754.55,1253.72,753Z"/><path class="cls-12" d="M1206.33,869.65a53.08,53.08,0,0,0,5.23,17.15A93,93,0,0,0,1224.25,906c2.56-5.22,1.64-11.06-1.66-17.19S1213.39,876.19,1206.33,869.65Z"/><path class="cls-13" d="M1278.88,917.09c-23.58-20-22.5-36.7-6.89-54.77a17.47,17.47,0,0,0,5.43-7.14,21,21,0,0,0,1.45-8.46c0-6-1.66-12.5-2.69-19-2.28-13.06-2.24-25.89,17-35.65,5.57-2.85,1.08-8.17-3.41-14s-8.74-12-2.36-17.2c-5.29-2.59-14.82-5.34.79-4.75-.73-7.44.43-14.94,2.5-22.38a182.31,182.31,0,0,1,7.73-22,84.42,84.42,0,0,0,5.86-23.13,229.88,229.88,0,0,0,.88-23.32c-.07-7.77-.22-15.54.43-23.33a89.41,89.41,0,0,1,4.57-23.55,123.83,123.83,0,0,1,5.11-18.08l3.39-9.4c1.1-3.16,2.2-6.35,3.24-9.56s2-6.44,2.83-9.67c.42-1.61.81-3.23,1.13-4.84s.57-3.23.78-4.84a54.45,54.45,0,0,0-.52-19c-34.61,4.57-60,11.12-59.35,18.94-2,4.09-3.65,8-5.14,11.91a117,117,0,0,0-3.75,11.32,125.19,125.19,0,0,0-3.71,21.24c-.27,3.43-.36,6.8-.32,10.14s.11,6.65.35,9.94.56,6.56,1,9.83l1.32,9.78a47.59,47.59,0,0,1,8.38,14.58,23.06,23.06,0,0,1,1.23,7.3,21.59,21.59,0,0,1-1.17,7.23,37.68,37.68,0,0,0-3.2-7.46c-.68-1.24-1.44-2.48-2.27-3.73s-1.78-2.48-2.76-3.72c.44,3,.84,5.93,1.23,8.91s.81,6,1.21,9,.8,6,1.14,9.09.55,6.14.75,9.24c.27-.35.42-.71.68-1.07,0,3,0,6-.23,9a15.53,15.53,0,0,1,1.25,5.81,22.44,22.44,0,0,1-.76,5.83,87.59,87.59,0,0,1-4.27,11.52c-.32,1.33-.76,3-1.27,4.93l-1.83,6.26a33.91,33.91,0,0,1,1,9,15.4,15.4,0,0,1-1.61,6.38,10.3,10.3,0,0,1-5.36,4.71,24.08,24.08,0,0,0-.72,3c-1.08,3.32-2.34,6.58-3.73,9.78-.69,1.61-1.42,3.19-2.17,4.77s-1.59,3.12-2.42,4.67c-3.34,6.18-6.94,12.16-10.53,18,2,7.44,2.18,14.84-6.4,21.3-6.74,4.31-9.51,10.4-11,15.43s-1.71,9-3.2,8.86a45.3,45.3,0,0,0,.11,11.21,117.12,117.12,0,0,1,9.66,9.63A56.64,56.64,0,0,1,1225,875a25.2,25.2,0,0,1,3.19,8.92,14,14,0,0,1-1.27,8.27q4.41,5.25,10.08,10.89c6.89,6.82,19.47,11.77,34,15.3A52.42,52.42,0,0,1,1278.88,917.09Z"/></g></g><path d="M1331.09,386.77c-.47.61-.95,1.22-1.39,1.84-.28.39-.55.78-.83,1.16-.66.89-1.3,1.79-1.93,2.69-1.17,1.67-2.25,3.4-3.3,5.15a102.8,102.8,0,0,0-5.36,10.64c-.82,1.82-1.58,3.67-2.31,5.53s-1.48,3.81-2.2,5.71c-.64,1.72-1.3,3.42-1.89,5.15q-1.26,3.64-2.5,7.29c-.46,1.34-.86,2.69-1.27,4-.71,2.28-1.37,4.57-1.94,6.88s-1.06,4.5-1.51,6.76c-.26,1.32-.53,2.64-.73,4q-.42,3-.86,5.91c-.22,1.5-.46,3-.66,4.5l0-.36c0,.41-.11.82-.17,1.24a1.27,1.27,0,0,0,0,.28l-.33,2.48a2,2,0,0,0,0,.26c-.07.58-.15,1.15-.22,1.73a1.26,1.26,0,0,0,0,.27l-.42,3.24c0-.11,0-.23,0-.35-.55,4-1,8-1.41,12.05-.19,1.81-.39,3.62-.53,5.45-.11,1.43-.22,2.87-.32,4.31-.06.82-.15,1.64-.18,2.46q-.13,3.52-.25,7c-.07,1.85,0,3.7,0,5.55s0,3.53,0,5.29c0,2.22,0,4.45.09,6.67s.12,4.36.19,6.53c0,1,.13,2,.19,3,0,.76.1,1.52.16,2.28.15,2,.27,4.09.47,6.13q.35,3.36.67,6.7c.1,1,.28,2,.42,2.94.18,1.2.35,2.39.52,3.59.12.83.31,1.67.46,2.5.2,1.1.39,2.2.62,3.3.2.93.48,1.85.74,2.76.3,1.08.62,2.15,1,3.23.27.86.6,1.7.92,2.55.41,1.11.84,2.22,1.28,3.32.27.67.57,1.32.85,2,0,0,0,0,0,0-.39-2.73-.78-5.48-1.26-8.2-.15-.8-.25-1.6-.38-2.4q-.32-1.86-.69-3.72c-.16-.79-.28-1.59-.43-2.39-.22-1.15-.43-2.3-.65-3.46-.16-.86-.26-1.75-.38-2.63l-.51-3.48c-.21-2.17-.43-4.33-.64-6.5s-.31-4.08-.47-6.11c0-.74-.09-1.47-.14-2.21s-.08-1.39-.13-2.09c0-.35-.06-.7-.06-1,0-2.17-.12-4.34-.18-6.52s0-4.36-.08-6.55c0-1.75,0-3.5,0-5.26s0-3.74.05-5.61q.13-3.56.28-7.13c0-.72.11-1.43.17-2.15.11-1.45.22-2.91.34-4.36.14-1.79.33-3.58.53-5.37s.36-3.58.59-5.36c.28-2.23.55-4.46.85-6.68l0,.18v.18l0-.26v0a.77.77,0,0,0,0-.15s0,.07,0,.1,0-.1,0-.15v0l0-.28,0,.25.09-.64v0c0-.13,0-.25,0-.37V472c0-.11,0-.23,0-.34v0h0v-.17a2.51,2.51,0,0,0,0-.27v.07l.09-.64v0c0-.11,0-.21,0-.32v0l.12-.9c0,.12,0,.24-.05.36l.12-.91v.09c0-.09,0-.18,0-.27s0-.24,0-.36v-.06a5.21,5.21,0,0,0,.08-.55c0-.13,0-.25,0-.38v.09s0-.06,0-.09l0-.27,0,.26s0-.05,0-.07,0-.24,0-.37.07-.54.11-.82c0,.12,0,.25,0,.37,0-.18,0-.35.07-.52V466l.06-.41a1.47,1.47,0,0,0,0-.36l.06-.45s0,.09,0,.14c0-.18,0-.37.07-.55.35-2.15.64-4.31,1-6.46.18-1.16.35-2.32.52-3.49.27-1.83.66-3.66,1-5.47.61-3,1.31-5.89,2.13-8.79.39-1.38.8-2.74,1.22-4.11.33-1.05.64-2.1,1-3.14.79-2.32,1.59-4.64,2.38-7s1.61-4.42,2.44-6.62,1.61-4.18,2.44-6.27c1.51-3.53,3.06-7,4.86-10.43,1.91-3.62,3.62-7.33,5.23-11.1.26-.6.51-1.2.76-1.81a1.17,1.17,0,0,1,0,.11,31.58,31.58,0,0,0,1.12-3h0Z"/><path d="M1307.57,288.13a2.1,2.1,0,0,0-1.31,1,3.27,3.27,0,0,0-.4,1.26,4,4,0,0,0,.15,1.33,10,10,0,0,0,.65,1.64c.49,1.12,1.06,2.2,1.6,3.3l.84,1.74a16.2,16.2,0,0,0,.92,1.55c.13.23.22.51.33.75l.39.88.62,1.44c.62,1.55,1.25,3.1,1.79,4.69.3.9.58,1.78.85,2.69s.45,1.68.67,2.52c.39,1.54.69,3.11,1,4.66q.57,2.85,1.13,5.7c.65,3.35,1.41,6.68,2.22,10s1.73,6.71,2.63,10.06,1.95,7,3,10.41l.66,2.15c.23.76.45,1.52.71,2.26.36,1,.72,2,1.07,3s.77,1.78,1.15,2.66c1.35,3.07,2.72,6.12,4.16,9.14.83,1.74,1.67,3.49,2.51,5.23.35.73.75,1.44,1.12,2.17s.73,1.4,1.09,2.11c.73,1.47,1.45,2.94,2.2,4.4.39.77.8,1.52,1.24,2.26s.86,1.34,1.3,2a106.6,106.6,0,0,0,6.47,8.63s0,0,0,0c-1.34-3.54-2.85-7-4.51-10.43-.37-.76-.75-1.52-1.13-2.27s-.63-1.35-1-2c-.77-1.56-1.56-3.12-2.35-4.66s-1.64-3.12-2.4-4.71-1.65-3.43-2.47-5.15c-1.49-3.11-2.88-6.27-4.26-9.43-.1-.22-.2-.44-.29-.66q-.49-1.33-1-2.67c-.25-.67-.45-1.36-.66-2l-1.59-5.13c-1-3.28-1.88-6.59-2.78-9.89-.49-1.81-1-3.61-1.44-5.42-.42-1.62-.85-3.23-1.22-4.86s-.77-3.47-1.15-5.2-.75-3.66-1.11-5.49q-.48-2.49-1-5c-.17-.83-.36-1.65-.55-2.48s-.34-1.48-.55-2.2c-.52-1.75-1.07-3.49-1.71-5.2s-1.26-3.26-2-4.86c-.19-.42-.36-.84-.54-1.25a17.59,17.59,0,0,0-.71-2l-.93-1.94c-.5-1-1-2-1.48-3.05l.13,0a9.2,9.2,0,0,1,1.15.4l1,.43c.78.36,1.55.73,2.32,1.13s1.47.8,2.2,1.22q2.38,1.36,4.78,2.7c3,1.68,6,3.22,9.08,4.8l2.47,1.3c.66.35,1.3.74,1.94,1.12s1.43.8,2.1,1.25l2.57,1.74c1.49,1,3,2.05,4.43,3.09,1.31.92,2.63,1.83,3.93,2.77,5.74,4.14,11.34,8.47,17.14,12.5q2.05,1.43,4.12,2.8c1.39.92,2.76,1.85,4.19,2.72s3,1.83,4.57,2.72,3,1.72,4.52,2.6l2.14,1.24c.62.36,1.26.69,1.87,1.07s1.37.84,2.05,1.28,1.22.87,1.82,1.31c1.08.9,2.15,1.79,3.18,2.75s2.34,2.21,3.55,3.27c0,0,0,0,0,0-.88-1.62-1.74-3.27-2.71-4.85a24.67,24.67,0,0,0-1.53-2.15,20.23,20.23,0,0,0-1.62-1.85,20.83,20.83,0,0,0-2.17-1.92c-.71-.53-1.43-1-2.18-1.5-1.39-.87-2.86-1.65-4.29-2.47-3-1.74-6.11-3.49-9.07-5.38-1.47-.93-2.91-1.91-4.35-2.88s-2.72-1.82-4-2.77c-5.75-4.1-11.35-8.38-17.14-12.43l-4.62-3.25c-1.45-1-2.93-2-4.4-3-.53-.36-1.09-.67-1.64-1l-2.46-1.44c-.31-.18-.65-.34-1-.5l-1.58-.83-2.31-1.19c-1.42-.73-2.85-1.46-4.26-2.22-1.71-.91-3.4-1.84-5.09-2.79a61.47,61.47,0,0,0-9.61-4.87l-1.06-.34a8.62,8.62,0,0,0-1.23-.24,5.65,5.65,0,0,0-.59,0A1.67,1.67,0,0,0,1307.57,288.13Z"/><path d="M1442.07,273.79c-1.55.76-3,1.63-4.52,2.5-1.11.65-2.2,1.33-3.29,2q-3.42,2.13-6.67,4.52l-7.34,5.33c-1.09.8-2.16,1.64-3.24,2.46s-2.24,1.76-3.35,2.64a25.43,25.43,0,0,0-2.93,2.75c-.45.48-.89,1-1.32,1.45-.9,1-1.81,2-2.7,3s-2,2.32-3,3.49-1.81,2.24-2.7,3.36c-1.63,2.05-3.26,4.09-4.85,6.17l-1.77,2.32c-.22.28-.44.56-.64.85-1,1.4-2,2.79-3,4.2-1.39,2-2.6,4.12-3.79,6.24-.47.83-.9,1.68-1.33,2.52-.75,1.48-1.47,3-2.16,4.46,0,0,0,0,0,0,.35-.46.69-.92,1-1.37h0l0,0h0q1.53-2,3-4c.7-1,1.42-1.89,2.12-2.84s1.43-2.05,2.17-3.05c1-1.39,2-2.82,3-4.24,1.36-1.93,2.83-3.78,4.26-5.66q2.67-3.35,5.36-6.66c1.69-2.09,3.51-4.08,5.32-6.07,1.07-1.16,2.13-2.33,3.24-3.45a31.22,31.22,0,0,1,2.78-2.36l1.65-1.29,3.57-2.67c1.13-.84,2.3-1.64,3.45-2.46,2-1.46,4.09-2.88,6.09-4.38s3.9-3,5.78-4.63c.81-.69,1.61-1.4,2.4-2.12,1.1-1,2.2-2,3.27-3,0,0,0,0,0,0Z"/><path d="M1506.42,162.57a3.56,3.56,0,0,0-1.41.75,8,8,0,0,0-1.57,2c-.42.7-.83,1.41-1.24,2.11-.19.32-.33.67-.49,1a10.8,10.8,0,0,1-.63,1.1c-.39.65-.78,1.3-1.18,2-.86,1.38-1.79,2.72-2.76,4-1.85,2.53-3.69,5.08-5.54,7.62-2,2.71-4,5.38-5.92,8.15-.89,1.29-1.72,2.64-2.55,4s-1.69,2.67-2.44,4c-1.58,2.94-3.14,5.89-4.6,8.88-2.86,5.87-5.5,11.83-8.21,17.77-1.35,2.95-2.75,5.87-4.14,8.8-.7,1.47-1.44,2.93-2.19,4.37s-1.44,2.89-2.2,4.31-1.59,2.88-2.4,4.3-1.63,2.93-2.46,4.38-1.63,2.79-2.51,4.15-1.75,2.5-2.61,3.76-1.66,2.48-2.5,3.71-1.79,2.64-2.62,4-1.59,2.68-2.34,4.05c-.89,1.63-1.71,3.3-2.49,5,0,0,0,0,0,0,2.32-2.62,4.6-5.28,6.78-8,1-1.33,2.12-2.64,3.09-4s1.85-2.74,2.8-4.09,1.84-2.57,2.72-3.88,1.7-2.78,2.51-4.18,1.58-2.82,2.38-4.22,1.54-2.68,2.25-4,1.49-2.89,2.25-4.33,1.45-2.82,2.14-4.25c1.42-2.95,2.84-5.89,4.21-8.86,2.8-6.08,5.55-12.17,8.49-18.17.72-1.45,1.48-2.88,2.24-4.31s1.41-2.69,2.17-4,1.68-2.79,2.56-4.16,1.73-2.73,2.66-4.06c1.85-2.65,3.81-5.21,5.72-7.81s3.92-5.4,5.91-8.07c.69-.93,1.36-1.86,2-2.83s1.34-2.13,2-3.2l.48-.61a14.11,14.11,0,0,0,.85-1.32c.46-.77.88-1.56,1.39-2.3a16.47,16.47,0,0,1,1.7,1.84c.63.86,1.15,1.78,1.69,2.69.36.61.7,1.23,1,1.85.71,1.32,1.41,2.64,2.08,4,1.36,2.67,2.61,5.39,3.88,8.1.29.7.57,1.4.85,2.1s.52,1.2.74,1.82q.94,2.64,1.91,5.28c.22.62.41,1.26.62,1.9.34,1,.67,2,1,3,.5,1.52,1,3,1.42,4.58.23.73.42,1.47.62,2.21s.37,1.32.56,2c.47,1.76.93,3.51,1.38,5.27.38,1.49.76,3,1.11,4.49s.72,3.22,1.08,4.83c.28,1.3.57,2.6.81,3.91s.48,2.89.7,4.34c.34,2.54.78,5.07,1.19,7.6.47,2.93,1.07,5.84,1.72,8.74,0,0,0,0,0,0a82.58,82.58,0,0,0,.84-10.54,43.39,43.39,0,0,0-.26-5.09c-.2-1.75-.48-3.51-.8-5.25-.58-3.26-1.33-6.49-2.08-9.72s-1.62-6.42-2.49-9.61c-.79-2.95-1.65-5.88-2.61-8.78-.34-1.05-.69-2.1-1-3.15-.19-.57-.36-1.14-.57-1.7q-.94-2.64-1.91-5.28c-.25-.68-.55-1.35-.82-2-.34-.84-.65-1.71-1-2.53q-1-2.27-2.12-4.53c-1.41-3-3-5.84-4.51-8.72-.38-.72-.83-1.41-1.24-2.11a18.55,18.55,0,0,0-1.9-2.57,11,11,0,0,0-2.34-2.13,2.36,2.36,0,0,0-1.28-.37A1.9,1.9,0,0,0,1506.42,162.57Z"/><path d="M1567,244.25c-1.06,0-2.11.11-3.17.17l-2.82.21c-1.09.09-2.2.15-3.3.27l-4,.48c-1,.12-2,.29-3,.5a25.84,25.84,0,0,0-3,.72c-1.83.58-3.61,1.23-5.38,2a48.33,48.33,0,0,0-5,2.44s0,0,0,0c2-.32,3.92-.65,5.89-.93s3.66-.55,5.48-.88c1.51-.16,3-.37,4.52-.62s3-.38,4.55-.57c.87-.1,1.75-.15,2.63-.23.71-.06,1.42-.14,2.13-.19,1.63-.11,3.26-.25,4.89-.28l2.75,0a50.6,50.6,0,0,1,7,.41l3.3.52c.82.14,1.64.25,2.46.41l4.21.86c.77.16,1.54.3,2.31.48l4,1c.91.22,1.83.41,2.72.66l7,2c.34.1.68.22,1,.34l2.92,1c1.2.41,2.42.8,3.61,1.26q4.47,1.74,8.92,3.5l3,1.29a59,59,0,0,1,7.61,4.24c1.86,1.17,3.71,2.38,5.59,3.52q6,3.69,12.08,7.41c3.78,2.34,7.5,4.79,11.23,7.21,1.8,1.17,3.57,2.41,5.34,3.62s3.38,2.36,5,3.56c1.24.89,2.48,1.77,3.7,2.68l4.71,3.51,2.51,2,1.71,1.36c.26.2.53.4.78.61,1.83,1.62,3.68,3.23,5.52,4.84.51.45,1,.93,1.48,1.39l3.46,3.28,4.22,4,9.43,9c3.32,3.17,6.68,6.28,10,9.41.91.85,1.84,1.69,2.72,2.56q1.58,1.55,3.14,3.12c1.83,1.85,3.45,3.91,5.1,5.93.69.91,1.38,1.83,2,2.77l2.34,3.41c.31.45.49,1,.79,1.43s.75,1.15,1.11,1.73c.72,1.14,1.48,2.27,2.13,3.44a1.63,1.63,0,0,1-.11.17,17.72,17.72,0,0,1-1.78,1.9c-.8.74-1.61,1.47-2.44,2.17-1,.88-2.08,1.72-3.13,2.56l-4.15,3.28c-5.76,4.36-11.53,8.72-17.22,13.18l-5.48,4.16c-.58.44-1.2.83-1.8,1.24l-3.9,2.64c-.53.36-1,.73-1.59,1.06l-3.57,2.16-2.86,1.74c-.85.51-1.73,1-2.6,1.45-2,1.13-4.09,2.26-6.15,3.36s-4.16,2.18-6.31,3.11a71.21,71.21,0,0,1-13.07,3.73c-1.55.32-3.12.65-4.68.87l-2,.29-10.46,1.5L1628.84,409c-1.56.15-3.13.2-4.69.29l-8.61.49c-1.83.1-3.67.12-5.51.17-2,.06-4,.12-6,.16l-6.9.11c-1.3,0-2.6.08-3.89.17-1.11.07-2.22.1-3.32.18a23.64,23.64,0,0,1-4.37-.07,9.25,9.25,0,0,1-1.47-.35,4.93,4.93,0,0,1-1-.58c-.22-.19-.43-.39-.64-.6,0,0,0,0,0,0a4.47,4.47,0,0,0,2.16,2.43,10.87,10.87,0,0,0,1.67.74,16.14,16.14,0,0,0,2.29.63c1.43.31,2.9.46,4.35.63,1,.11,2.09.15,3.13.2.85,0,1.7.05,2.56,0q7.46-.14,14.91-.35c1.55,0,3.11-.13,4.67-.22l9-.52c1.37-.07,2.72-.22,4.08-.35l9.32-.94c1.46-.14,2.92-.29,4.37-.5l8.86-1.28,2.79-.4c.93-.13,1.84-.32,2.75-.49,1.65-.31,3.28-.65,4.91-1a64.77,64.77,0,0,0,9-2.67c1.09-.42,2.19-.86,3.24-1.38l1.82-.89c4-2,7.88-4.2,11.78-6.38.76-.42,1.5-.91,2.25-1.36l3.86-2.34c.5-.3,1-.62,1.47-.95l3.78-2.56c.81-.55,1.64-1.07,2.42-1.65l3.92-3c2-1.51,4-3.06,5.94-4.6,3.46-2.63,6.91-5.28,10.37-7.9q2.81-2.12,5.56-4.29c1-.82,2.08-1.64,3.11-2.48s2.33-1.93,3.45-2.94c.51-.46,1-.92,1.5-1.4a14.65,14.65,0,0,0,1.53-1.81,3.56,3.56,0,0,0,.6-1.16,2.5,2.5,0,0,0,.05-1.41,6.88,6.88,0,0,0-.52-1.22c-.15-.27-.33-.53-.49-.8-.36-.6-.72-1.19-1.1-1.77s-.76-1.23-1.16-1.83a10.9,10.9,0,0,0-.84-1.21l-.71-.78c-1.21-1.73-2.38-3.5-3.67-5.17s-2.8-3.5-4.24-5.22c-.34-.4-.7-.78-1-1.17s-.61-.68-.94-1c-.83-.83-1.66-1.66-2.5-2.48-1.54-1.51-3.14-2.95-4.71-4.41s-3.43-3.16-5.13-4.75c-1.55-1.44-3.08-2.92-4.61-4.39l-10.1-9.61-4.31-4.1-2.88-2.73c-.5-.47-1-.92-1.55-1.37l-3.5-3.06c-.5-.44-1-.87-1.52-1.28-1.79-1.42-3.56-2.88-5.39-4.25s-3.53-2.67-5.32-4l-5.93-4.25c-.83-.6-1.69-1.16-2.54-1.74l-3.42-2.33c-1.85-1.26-3.77-2.45-5.65-3.67-7.31-4.74-14.81-9.19-22.19-13.84l-3.85-2.41a49.16,49.16,0,0,0-6.45-3.43c-1.08-.47-2.15-1-3.25-1.4l-3.72-1.48-2.61-1c-1-.4-2.07-.84-3.12-1.21l-6.73-2.32c-.81-.27-1.65-.47-2.46-.71l-4.23-1.22c-.63-.18-1.26-.33-1.9-.49l-4.45-1.1c-2.12-.52-4.26-.93-6.39-1.37s-4.31-.76-6.48-1.1a46.52,46.52,0,0,0-7-.59h-.68C1569.44,244.2,1568.22,244.23,1567,244.25Z"/><path d="M1617.54,171.32l-1,.58a10.28,10.28,0,0,0-.93.65,10.13,10.13,0,0,1-.85.61l-1.44.84-2.1,1.21c-3,1.75-6,3.49-9,5.28s-5.86,3.64-8.77,5.49-5.53,3.77-8.23,5.75c-1.33,1-2.63,2-3.94,3l-1.8,1.36c-1,.72-1.87,1.52-2.79,2.3s-1.92,1.69-2.86,2.57a88,88,0,0,0-9.63,10.69,84.61,84.61,0,0,0-7.91,12.35c-.82,1.58-1.55,3.2-2.22,4.85a39.55,39.55,0,0,0-1.57,5,50.1,50.1,0,0,0-1,5.28q-.4,2.72-.67,5.43s0,0,0,0c2.26-5.29,4.18-10.72,6.4-16,0,.11-.09.23-.14.34a67,67,0,0,1,4.35-8.31,83.35,83.35,0,0,1,5.48-8l-.22.28a83.51,83.51,0,0,1,6.6-7.58,93.28,93.28,0,0,1,7.74-7q2.19-1.63,4.36-3.29c1.32-1,2.67-1.95,4-2.92,2.71-2,5.55-3.77,8.39-5.56s5.71-3.55,8.6-5.27c2.74-1.64,5.53-3.2,8.3-4.78.52-.3,1-.62,1.57-.89s1-.44,1.53-.68.84-.49,1.25-.73a22.69,22.69,0,0,1,2-1.11,4.44,4.44,0,0,1,.62-.19h.25l.13,0,.4.24c.17.16.32.31.47.48a12.36,12.36,0,0,1,1.14,2,61.39,61.39,0,0,1,1.83,6.07c.12.44.21.89.32,1.35.25,1.12.51,2.24.76,3.36.11.49.25,1,.34,1.49.14.76.28,1.52.41,2.28.31,1.67.61,3.34.91,5s.41,3.42.62,5.12c.15,1.31.34,2.61.44,3.92q.26,3.34.52,6.69c.1,1.37.17,2.74.24,4.12q.57,10.3.69,20.63c0,1,0,2,0,3s0,1.7,0,2.55c0,.57,0,1.14-.05,1.71s-.06,1-.09,1.56c0,.89-.18,1.79-.29,2.68-.06.48-.13,1-.19,1.43l0-.24c-.14.84-.28,1.68-.41,2.53-.16,1.09-.25,2.21-.33,3.32h0c.44-1,.86-1.94,1.34-2.89.36-.75.72-1.5,1.07-2.25a26.88,26.88,0,0,0,1-2.58,19,19,0,0,0,.63-2.2,34.48,34.48,0,0,0,.69-5.36c0-.84,0-1.7,0-2.55s0-1.76,0-2.64c0-3.11-.12-6.22-.25-9.32-.07-1.78-.12-3.57-.22-5.35l-.33-5.93c-.18-3.21-.48-6.4-.74-9.61,0-.56-.13-1.12-.2-1.68-.15-1.2-.29-2.41-.44-3.62-.17-1.46-.31-2.93-.57-4.37q-.58-3.18-1.16-6.36c-.29-1.57-.69-3.12-1.05-4.67-.14-.6-.25-1.2-.42-1.79-.27-1-.55-2-.83-3a27,27,0,0,0-1.33-3.89c-.91-2-2.38-4.32-4.83-4.52h-.32C1620.26,169.57,1618.86,170.53,1617.54,171.32Z"/><path d="M1582.84,291.17a120.9,120.9,0,0,0,9.77,7.39q2.17,1.49,4.47,2.79,2.49,1.39,5,2.76c1.48.81,3,1.56,4.52,2.29s3.25,1.44,4.92,2.07a38.61,38.61,0,0,0,9.84,2.18c2.49.24,5,.32,7.48.43,0,0,0,0,0,0-1.74-.68-3.5-1.24-5.27-1.82-.74-.23-1.48-.45-2.21-.69s-1.63-.49-2.43-.77-1.72-.57-2.58-.84-1.42-.51-2.14-.75c-1.46-.5-2.89-1.07-4.32-1.66s-3-1.43-4.48-2.21-2.8-1.52-4.18-2.31c-2.9-1.66-5.77-3.38-8.79-4.82s-6.33-2.84-9.59-4h0S1582.83,291.16,1582.84,291.17Z"/><path d="M1598.09,340.54a1.16,1.16,0,0,1,0-.18c0,.19.07.38.1.57a19.37,19.37,0,0,1,0,3.32c0,.47-.1.94-.16,1.41,0,.32-.1.64-.16.95a3.4,3.4,0,0,1-.09-.46c0-.24-.07-.48-.1-.73a14,14,0,0,1,0-3.17C1597.83,341.67,1598,341.11,1598.09,340.54Zm.15-6.09-.46.06a4.11,4.11,0,0,0-.57.25,2.8,2.8,0,0,0-.9.91,10.44,10.44,0,0,0-1.3,3.05c-.1.37-.2.74-.28,1.12a18.75,18.75,0,0,0-.4,2.24,15.59,15.59,0,0,0,0,3.8c.06.38.11.77.16,1.15a13.16,13.16,0,0,0,.7,2.62c.22.6.44,1.19.69,1.78-.19.33-.38.67-.58,1a34.64,34.64,0,0,1-2.18,3.33c-2.62,3.29-6,5.85-9.19,8.58-.56.42-1.11.85-1.66,1.28s-1.07.81-1.62,1.18c-.87.59-1.72,1.19-2.56,1.83,0,0,0,0,0,0a51.84,51.84,0,0,0,5.42-1.75c.77-.32,1.54-.64,2.28-1,1.14-.6,2.26-1.22,3.35-1.91a31.51,31.51,0,0,0,2.89-2.12,20.77,20.77,0,0,0,2.64-2.58,31.19,31.19,0,0,0,3.12-4.3,17.77,17.77,0,0,0,2.56,3.36l.86.93c.32.34.67.65,1,1,.55.53,1.16,1,1.75,1.51,1.42,1.19,2.91,2.26,4.42,3.32,1.27.9,2.6,1.73,3.91,2.58,1.53,1,3.09,1.93,4.65,2.88a46.83,46.83,0,0,0,8.51,3.92l2.83,1c.7.25,1.42.45,2.13.68,1.48.47,3,.93,4.44,1.38l3.44,1c.46.14.92.3,1.39.42l6,1.51,2,.51c.48.12,1,.18,1.49.26l6.57,1.16c1.33.24,2.67.33,4,.47l5.63.56c.34,0,.69,0,1,0h.5l3.54.08c1.36,0,2.73.11,4.1.05l6.37-.28c1,0,2-.18,3.06-.29,1.91-.19,3.81-.38,5.71-.73a34.48,34.48,0,0,0,8-2.5c1.66-.76,3.3-1.55,4.9-2.41,0,0,0,0,0,0-1.6.33-3.2.66-4.8,1-.53.11-1,.25-1.59.35-1.7.32-3.41.61-5.13.84l.31,0c-2.7.36-5.4.65-8.11.93-.64.06-1.28.16-1.92.19l-2.38.1-3.58.15c-.48,0-1,.07-1.44.06l-6-.14-2.54-.06c-.16,0-.32,0-.47,0l-1.56-.16-6.4-.64-5.09-.91-3-.52c-.34-.06-.65-.13-1-.21l-6.35-1.63c-1.31-.33-2.59-.72-3.88-1.11-2.29-.7-4.57-1.4-6.84-2.13-2.55-.82-5.11-1.69-7.59-2.72q-1.1-.48-2.16-1c-.7-.35-1.41-.7-2.07-1.11l-1.64-1c-1-.63-2.06-1.26-3.07-1.92s-2.2-1.44-3.29-2.18-2-1.37-2.94-2.07l0,0c-.51-.39-1-.77-1.5-1.18-.66-.56-1.32-1.13-2-1.71a30.1,30.1,0,0,1-3.36-3.6,14.61,14.61,0,0,1-1.2-2c-.08-.27-.16-.53-.25-.8a4.13,4.13,0,0,0-.17-.45,16,16,0,0,0,1.65-4.86c.16-1,.29-2.07.36-3.11a16.15,16.15,0,0,0-.64-5.7,8.08,8.08,0,0,0-1.26-2.84,1.82,1.82,0,0,0-1.42-.7Z"/><path d="M1600.59,364.44a91.68,91.68,0,0,0-6.71,10.73c-1.55,3-2.83,6.05-4.14,9.11q-1,2.45-2.09,4.89a9.79,9.79,0,0,0-.62,1.36,2.36,2.36,0,0,0,.39,1.91,1.62,1.62,0,0,0,.93.71,1.67,1.67,0,0,0,1.18-.16c.36-.16.71-.31,1-.49a8,8,0,0,0,1.22-.88c.76-.6,1.46-1.24,2.16-1.91l2-2q1.56-1.51,3.13-3c.92-.87,1.84-1.75,2.79-2.6l1.66-1.5c.42-.38.84-.77,1.27-1.14a21.28,21.28,0,0,0,1.94-1.37q.89-.75,1.8-1.47a6.21,6.21,0,0,1,.14.62,41,41,0,0,1,.2,4.71c0,.81,0,1.63,0,2.44s-.11,1.66-.19,2.5c-.07.64-.15,1.28-.23,1.92a13.51,13.51,0,0,0-.27,1.91,4.82,4.82,0,0,0,.14,1c.06.27.14.53.21.79a1.74,1.74,0,0,0,2.53,1c.54-.29,1.1-.55,1.63-.86a9.28,9.28,0,0,0,1.78-1.47c.69-.69,1.3-1.45,2-2.18l2.27-2.52c.65-.72,1.3-1.43,1.94-2.15l1.28-1.44.55-.63c.24-.29.49-.56.75-.82a27.79,27.79,0,0,1,.74,3.74c.14,1,.28,2.06.4,3.1.09.76.18,1.52.26,2.28A10.49,10.49,0,0,0,1625,393a5,5,0,0,0,1.17,2.16,2.83,2.83,0,0,0,2.55.57,6.32,6.32,0,0,0,2.32-1,17.14,17.14,0,0,0,1.86-1.65c.69-.68,1.38-1.36,2-2.06s1.06-1.14,1.59-1.71l.82-.93c.31-.35.62-.69.94-1s.42-.48.66-.7l.24.27a16,16,0,0,1,1.19,2.38c.12.27.24.55.35.82a5.92,5.92,0,0,0,1.16,1.76,4.68,4.68,0,0,0,1.67,1,5.82,5.82,0,0,0,2.19.35,5,5,0,0,0,2-.55c.53-.24,1-.52,1.55-.81.94-.55,1.88-1.09,2.83-1.62,1.24-.7,2.45-1.49,3.74-2.09l.13,0h.4a4.77,4.77,0,0,1,.54.15,4.25,4.25,0,0,1,.46.27c.12.1.22.2.33.31a6.48,6.48,0,0,1,.46.81,14.63,14.63,0,0,1,.66,2.93c0,.44,0,.87.11,1.29a4.28,4.28,0,0,0,.4,1.19,2.77,2.77,0,0,0,.65.9,1.91,1.91,0,0,0,1.31.52,3.75,3.75,0,0,0,1.28-.31c.33-.15.64-.33,1-.51a18.33,18.33,0,0,0,2.11-1.5c.92-.7,1.84-1.41,2.73-2.16.42-.36.84-.71,1.24-1.08.66-.6,1.28-1.24,2-1.81l.46-.28.09,0c.53,0,1.07.06,1.61.06a8.64,8.64,0,0,0,2.08-.3,11.1,11.1,0,0,0,3.08-1.33c1.22-.71,2.41-1.46,3.59-2.24,0,0,0,0,0,0-1,.26-1.91.55-2.87.82a30.87,30.87,0,0,1-3.28.83,12.14,12.14,0,0,1-2.41,0c-.61-.11-1.18-.28-1.8-.33a3.7,3.7,0,0,0-1.77.45,8,8,0,0,0-1.51,1.08c-.27.21-.54.44-.8.66l-2.33,1.94.3-.22-1.83,1.41,0,0-.09.07h0l-.8.63.07-.06a11.56,11.56,0,0,1-1.56,1v0c0-.59-.1-1.18-.2-1.77s-.24-1.24-.38-1.85a6,6,0,0,0-2-3.33,4.75,4.75,0,0,0-3.83-1.05,7.63,7.63,0,0,0-1.67.69c-.47.24-.93.5-1.39.76l-2.81,1.53c-1,.55-2,1.17-3.08,1.65a4,4,0,0,1-.67.21,3,3,0,0,1-.52,0,3.46,3.46,0,0,1-.53-.14,4.48,4.48,0,0,1-.56-.32l-.12-.13a4.16,4.16,0,0,1-.44-.77l-.48-1.15a11.29,11.29,0,0,0-1.37-2.65,5.35,5.35,0,0,0-1.19-1.23,2.74,2.74,0,0,0-1.57-.45,4.15,4.15,0,0,0-1.65.45,2.93,2.93,0,0,0-.73.52,9.35,9.35,0,0,0-.69.72c-.94,1-1.89,2.05-2.84,3.06-.45.48-.9.95-1.36,1.42s-.83.81-1.25,1.2-.8.79-1.22,1.15a4.24,4.24,0,0,1-.65.38l-.29.1a6.63,6.63,0,0,1-.25-.9c0-.53-.08-1.05-.14-1.58l-.21-1.76c-.11-.88-.23-1.76-.35-2.63q-.11-.84-.24-1.68c-.08-.58-.17-1.15-.28-1.73s-.29-1.12-.44-1.68a4.48,4.48,0,0,0-.6-1.36,2.85,2.85,0,0,0-1.47-1.13,2.79,2.79,0,0,0-1.69-.06,4.41,4.41,0,0,0-1.66,1.11,17.11,17.11,0,0,0-1.46,1.6l-1.19,1.32c-.58.65-1.16,1.28-1.75,1.92l-4.17,4.61c-.17.19-.34.38-.53.56.21-1.46.34-2.93.43-4.4.05-.9,0-1.81.05-2.71q0-1.08,0-2.16c0-.56-.07-1.12-.11-1.67a16.46,16.46,0,0,0-.24-2,5.15,5.15,0,0,0-.61-1.5,3.54,3.54,0,0,0-.54-.73,3.22,3.22,0,0,0-.66-.57,2.68,2.68,0,0,0-.76-.28,2.6,2.6,0,0,0-1.11,0,7.87,7.87,0,0,0-.81.3,4.2,4.2,0,0,0-1,.63c-.8.64-1.59,1.28-2.37,1.93a7.18,7.18,0,0,0-.8.85,10.07,10.07,0,0,1-.79.81l-2.06,1.85c-1.55,1.39-3.07,2.83-4.58,4.26l-2.07,2c-.77.75-1.53,1.51-2.32,2.25q1.71-3.85,3.46-7.68a105.18,105.18,0,0,0,4-10.25c.6-1.8,1.15-3.62,1.66-5.44,0,0,0,0,0,0Z"/><path d="M1591.79,422.07q-.55,3.71-.88,7.43c-.12,1.23-.19,2.45-.21,3.68a35.59,35.59,0,0,0,.19,4,61.74,61.74,0,0,0,1.3,7.75,73.23,73.23,0,0,0,2.12,7.39,94.15,94.15,0,0,0,14.25,26.73q2.31,3,4.84,5.91c.95,1.08,1.91,2.16,2.93,3.18l4.46,4.48c1.26,1.27,2.58,2.48,3.86,3.72,1.11,1.06,2.2,2.13,3.31,3.17,1.52,1.44,3.06,2.86,4.57,4.3l.74.7a4.08,4.08,0,0,1,.36.36c.35.43.68.88,1,1.3s.7.68,1,1c.12.13.24.25.37.37-.71,0-1.41-.12-2.1-.18l-2.72-.28-4.2-.43c-2.5-.25-5-.61-7.48-.94l-4.92-.72c-1.88-.27-3.75-.58-5.62-.9l-4.84-.85c-1.48-.26-3-.5-4.44-.8l-6.8-1.41c-3.07-.63-6.1-1.39-9.13-2.21-2.48-.68-4.93-1.45-7.37-2.29-1.15-.4-2.31-.82-3.46-1.24s-2.31-.83-3.44-1.3l-5.21-2.14-3.26-1.34-6.32-2.82-2.65-1.22-1.85-.85c-.76-.35-1.53-.66-2.3-1a11.8,11.8,0,0,1-2.2-1.28,8.33,8.33,0,0,1-.86-.82,4.25,4.25,0,0,1-.32-.54,13.71,13.71,0,0,1-.59-2.76,39.94,39.94,0,0,1-.09-5.89s0,0,0,0a30.32,30.32,0,0,0-1.17,3.23c-.16.56-.31,1.12-.44,1.68a15.54,15.54,0,0,0-.26,1.92,7.85,7.85,0,0,0,.23,3.2,6.87,6.87,0,0,0,2,2.78A10.58,10.58,0,0,0,1547,488l1.56.7,3.16,1.46q2.23,1,4.48,2c1.43.64,2.85,1.29,4.3,1.89l6.47,2.66c2.91,1.2,5.86,2.29,8.83,3.31,2.43.84,4.89,1.59,7.38,2.27,1.2.33,2.41.64,3.62.94s2.22.58,3.34.81l5.7,1.18c1.38.28,2.76.59,4.15.84l6.31,1.12,4.92.84c1.56.27,3.14.46,4.7.68,2,.3,4.07.58,6.1.84,1.53.2,3.06.43,4.6.59l5.36.54c1.23.12,2.47.25,3.71.35.6,0,1.2.06,1.8.07a5.87,5.87,0,0,0,1.62-.16,2.25,2.25,0,0,0,1.54-1.44,3.05,3.05,0,0,0-.42-2.16,4,4,0,0,0-.41-.6c-.18-.24-.37-.48-.57-.71s-.43-.46-.64-.68l-.93-.94c-.2-.18-.38-.37-.57-.56a6.65,6.65,0,0,0-.59-.46l-.93-.7c-.56-.49-1.08-1-1.63-1.52l-1.88-1.73q-2.1-2-4.19-4l-3.92-3.75c-1.15-1.09-2.26-2.21-3.37-3.34l-2.72-2.73c-.44-.43-.84-.9-1.25-1.35l-1.81-2c-1.15-1.32-2.25-2.67-3.32-4.05l.1.12-.1-.13a1.09,1.09,0,0,1-.13-.17l.1.14a95.54,95.54,0,0,1-6.47-9.57,94,94,0,0,1-5.41-10.75,86.65,86.65,0,0,1-3.93-11.61c-.55-2.1-1-4.23-1.31-6.36-.16-1-.29-2-.44-3.08s-.3-2.07-.45-3.1c-.24-1.87-.44-3.76-.69-5.63s-.61-4-1-6h0Z"/><path d="M1291.41,569.64a39.4,39.4,0,0,0-4.61.52,85,85,0,0,0-16.46,4.59c-5.93,2.33-11.61,5.22-17.32,8-1.2.59-2.4,1.16-3.58,1.77l-7.09,3.67c-3.47,1.79-6.85,3.72-10.27,5.61-.39.21-.78.45-1.16.68l-3.69,2.19c-1.47.88-2.93,1.75-4.37,2.66-3.51,2.23-7,4.48-10.46,6.79-.71.48-1.42,1-2.12,1.45l-1.14.79c-.15.1-.33.19-.49.28l-1.13.64a8.12,8.12,0,0,0-1,.73c-.38.29-.76.57-1.13.87s-.69.56-1,.86a9.6,9.6,0,0,0-1.59,1.66c-.07.1-.14.2-.2.3-.12.28-.24.57-.34.85a6.08,6.08,0,0,0-.23,1.52,6.65,6.65,0,0,0,.13,1.61,15.86,15.86,0,0,0,.32,1.67,34,34,0,0,0,1.16,3.67c.53,1.44,1.08,2.87,1.65,4.3,1,2.41,2,4.78,3.07,7.13,1.23,2.62,2.58,5.18,4,7.72,2.45,4.5,5.11,8.88,7.7,13.3,2,3.45,4.08,6.86,6.13,10.29.63,1.06,1.27,2.11,1.88,3.19l3.65,6.43,3,5.31c.22.38.4.78.6,1.17l1.86,3.59,2.91,5.66c.29.55.54,1.13.81,1.69.63,1.32,1.25,2.64,1.88,4,1.63,3.41,3.2,6.86,4.75,10.31s3.18,7.17,4.93,10.68a26.83,26.83,0,0,0,3,4.72,19.42,19.42,0,0,0,1.54,1.73,5.48,5.48,0,0,0,.56.52,2.35,2.35,0,0,0,1,.56,2.32,2.32,0,0,0,1.14.05,2.76,2.76,0,0,0,1.22-.78,5.18,5.18,0,0,0,1-2.46c.18-.76.26-1.57.38-2.35.19-1.23.37-2.45.56-3.68.27-1.73.54-3.47.84-5.2.68-3.87,1.38-7.74,2.22-11.58.8-3.68,1.63-7.35,2.53-11,.46-1.83.89-3.67,1.32-5.51s.83-3.56,1.31-5.32c.73-2.7,1.6-5.36,2.43-8s1.75-5.31,2.67-8,1.82-5,2.83-7.44c.47-1.17.9-2.35,1.34-3.54s1-2.57,1.53-3.85a28.29,28.29,0,0,1,2.55-4.88,9.47,9.47,0,0,1,1-.95,12.86,12.86,0,0,1,1.14-.65c1.53-.61,3.11-1,4.68-1.52s3-.83,4.56-1.25c3.14-.87,6.25-1.83,9.35-2.83s6.07-2,9.15-2.91c1.56-.46,3.15-.83,4.72-1.28.71-.2,1.41-.46,2.11-.7a20.31,20.31,0,0,1,2.41-.74h.19l.33.19a5.18,5.18,0,0,1,.4.41,30,30,0,0,1,2.7,4.78c.76,1.61,1.49,3.23,2.22,4.85.81,1.82,1.64,3.63,2.44,5.46s1.65,3.77,2.51,5.64,1.75,3.79,2.63,5.69c.36.77.69,1.57,1.08,2.33l1.49,2.9,1.58,3.07c.29.55.62,1.07.94,1.6l3.4,5.73a5.59,5.59,0,0,0,.33.47l.83,1.21,2.52,3.61c.83,1.2,1.66,2.4,2.53,3.57l4.84,6.42c.32.44.64.89,1,1.31.56.67,1.11,1.34,1.67,2l5.1,6.13c.86,1,1.79,2,2.71,3,1.78,1.93,3.57,3.86,5.35,5.8.92,1,1.92,1.92,2.9,2.86l5.65,5.44c1,1,2,1.84,3.08,2.75l5.92,5.21c.92.81,1.88,1.56,2.84,2.33l6.52,5.24c1,.77,1.91,1.54,2.89,2.29l11.27,8.67c1,.77,2,1.46,3.07,2.18l6.93,4.89,2.32,1.64c1.11.78,2.24,1.5,3.38,2.24,4.77,3.09,9.65,6,14.7,8.59a183.55,183.55,0,0,0,23.54,10.08l7.82,2.75c1.1.39,2.19.77,3.31,1.12l7.83,2.45c1.3.4,2.59.86,3.9,1.19l12.63,3.2c.53.14,1.08.2,1.62.3l4,.76,6.59,1.23c.47.09,1,.13,1.42.19l3.81.46,6.4.79c.34,0,.69.06,1,.09l2.74.23,5,.42c2.54.21,5.1.36,7.65.51,3,.18,6,.33,8.93.5,2.7.16,5.41.31,8.1.62l1.48.24.33.1,1.14.33a7.68,7.68,0,0,0,2,.38,1.72,1.72,0,0,0,.87-3.21,10.82,10.82,0,0,0-2.9-.83l-.61-.11-.1,0c-.82-.26-1.63-.55-2.45-.82s-1.83-.59-2.73-.94l-2.88-1.13-5.17-2.45a7,7,0,0,1-.66-.36l-1.58-.85-3.64-2c-1.69-.91-3.32-1.95-5-2.93l-2.08-1.23c-.73-.44-1.42-.94-2.13-1.4-1.7-1.11-3.43-2.19-5.11-3.33l-5.84-4c-3.32-2.26-6.65-4.48-10-6.71-2-1.38-4.13-2.71-6.2-4.05l-6.39-4.17c-2.07-1.35-4.08-2.78-6.11-4.17-1.88-1.29-3.74-2.6-5.6-3.9l-4.8-3.77c-.45-.35-.87-.74-1.31-1.12l-3.31-2.87c-2.7-2.33-5.31-4.76-7.91-7.2-3-2.83-6.08-5.64-9.14-8.43-1.59-1.45-3.21-2.86-4.81-4.28-1.4-1.25-2.78-2.51-4.17-3.77-1-.9-2-1.81-3-2.73-1.21-1.14-2.42-2.27-3.58-3.45l-2.17-2.22c-.49-.5-.95-1-1.43-1.56s-.9-1-1.33-1.49l-1.75-2.11-1.13-1.47c-.46-.6-.85-1.26-1.27-1.89-.32-.47-.6-.94-.88-1.43-.39-.7-.8-1.39-1.18-2.09-1.45-2.66-2.84-5.34-4.22-8-1.28-2.51-2.49-5.06-3.74-7.58-1.17-2.36-2.27-4.78-3.3-7.2-.48-1.3-.93-2.6-1.37-3.91-.25-.75-.42-1.53-.63-2.29s-.37-1.53-.55-2.3c-.66-2.8-1.1-5.66-1.5-8.51l0,.14a23.24,23.24,0,0,1-.33-4.08c0-.06,0-.13,0-.19l.09,0c.77.34,1.53.69,2.26,1.1a18.19,18.19,0,0,1,2.21,1.49l3.76,3.07c1.42,1.15,2.77,2.39,4.21,3.52,3,2.39,6.06,4.76,9.25,6.94,1.59,1.09,3.18,2.17,4.79,3.24.78.52,1.61,1,2.42,1.44s1.65.94,2.49,1.39c1.65.89,3.32,1.74,5,2.53q2.93,1.38,5.86,2.71l4.78,2.17c1.7.78,3.45,1.48,5.17,2.21s3.2,1.29,4.8,1.91,3.33,1.29,5,1.92c3.2,1.22,6.45,2.34,9.68,3.47,1.65.59,3.31,1.13,5,1.69.71.24,1.44.47,2.14.73s1.57.6,2.35.92c1.77.81,3.55,1.62,5.31,2.47s3.48,1.76,5.21,2.66,3.76,1.68,5.66,2.46l2.57,1c.77.3,1.55.56,2.31.86s1.64.8,2.45,1.24c1,.56,2,1.21,2.93,1.82.54.34,1.07.69,1.6,1s1.09.65,1.63,1c.89.55,1.75,1.15,2.6,1.75a13.94,13.94,0,0,1,1.38,1.28c.51.55,1,1.12,1.44,1.7,2.11,2.83,4,5.83,5.85,8.85,1,1.63,2,3.27,2.92,4.91.43.73.9,1.44,1.34,2.17s1,1.73,1.56,2.59c.4.65.84,1.27,1.24,1.91.53.82,1,1.68,1.52,2.51.22.36.45.71.7,1.06l.61.83a3.47,3.47,0,0,0,.59.68,1.84,1.84,0,0,0,1.22.51,2.51,2.51,0,0,0,1.17-.3,2.07,2.07,0,0,0,.81-1,2.61,2.61,0,0,0,.27-.86,12,12,0,0,0,.23-1.31c.09-.57.17-1.15.23-1.72a14.75,14.75,0,0,0,0-1.49c0-.47,0-1,0-1.43,0-1-.08-2-.13-3-.07-1.76-.18-3.5-.35-5.24a109.27,109.27,0,0,0-1.67-11.69c-.42-2-.85-4-1.35-5.9a53,53,0,0,0-1.85-5.45c-1.42-3.69-3.2-7.22-4.94-10.76-.78-1.59-1.53-3.2-2.33-4.78-.44-.85-.84-1.73-1.31-2.57l-1.74-3.08c-1.92-3.41-4-6.73-6.07-10-.48-.78-1-1.55-1.47-2.33s-1-1.48-1.57-2.21c-1.14-1.59-2.29-3.19-3.46-4.77l-2-2.65c-.57-.76-1.18-1.48-1.76-2.22-1.23-1.54-2.47-3.09-3.71-4.62-2.51-3.09-5-6.18-7.52-9.29q-1.73-2.14-3.58-4.2c-1.22-1.33-2.43-2.68-3.65-4s-2.36-2.68-3.58-4-2.33-2.43-3.47-3.67-2.2-2.55-3.3-3.82-2.06-2.38-3.08-3.58-2.26-2.71-3.42-4-2.45-2.86-3.63-4.33c0,0,0,0,0,0a43.28,43.28,0,0,0,2.33,5.69c.81,1.67,1.69,3.31,2.66,4.9a34.83,34.83,0,0,0,3.23,4.38c1.21,1.39,2.37,2.82,3.64,4.15s2.67,2.77,4,4.21l3.66,4.06c1.4,1.55,2.81,3.09,4.17,4.66s2.54,3.13,3.8,4.69c1.78,2.21,3.58,4.41,5.37,6.61s3.38,4.2,5.06,6.31c1.07,1.43,2.15,2.84,3.19,4.29q1.83,2.55,3.65,5.12c.3.42.56.86.83,1.29s.38.59.56.89c.54.85,1.07,1.71,1.6,2.57,1.15,1.88,2.3,3.78,3.43,5.68,1,1.65,1.91,3.33,2.86,5,.43.77.8,1.57,1.2,2.36s.83,1.66,1.24,2.49c.82,1.71,1.66,3.41,2.49,5.12s1.77,3.7,2.61,5.57c.55,1.39,1.1,2.79,1.63,4.19.14.36.25.75.37,1.12s.28.79.38,1.2c.21.8.43,1.61.62,2.43.39,1.64.75,3.3,1.07,5,.16.82.34,1.64.47,2.46s.27,1.77.4,2.65c.14,1.13.28,2.26.39,3.4.15,1.45.27,2.9.39,4.34.06.66.07,1.33.1,2s0,1.31.08,2c.06,1.29.14,2.57.09,3.86-.35-.6-.69-1.2-1.07-1.78s-1-1.45-1.41-2.19-.92-1.54-1.39-2.3c-1-1.63-2-3.26-2.93-4.91s-2-3.26-3-4.88-2-3-3-4.48a30.48,30.48,0,0,0-3.39-4.21,15.77,15.77,0,0,0-2.14-1.76c-.71-.5-1.45-1-2.19-1.46s-1.59-1-2.37-1.47-1.7-1.11-2.56-1.63-1.85-1.09-2.79-1.59a24.86,24.86,0,0,0-3.22-1.29c-1.07-.38-2.11-.84-3.17-1.27l-3-1.21c-.72-.32-1.45-.65-2.15-1s-1.51-.81-2.27-1.19q-2.48-1.26-5-2.44c-1.7-.8-3.43-1.56-5.17-2.28-.86-.36-1.75-.64-2.63-.94l-2.86-1c-7.16-2.37-14.2-5.06-21.22-7.81l-5.06-2.16c-1.58-.67-3.12-1.41-4.68-2.12s-3-1.37-4.53-2.07c-1.71-.8-3.42-1.58-5.09-2.46s-3-1.63-4.54-2.49c-.73-.43-1.48-.85-2.19-1.32s-1.56-1-2.33-1.56q-2.25-1.51-4.45-3.08c-1.39-1-2.72-2-4.07-3.05s-2.66-2-3.94-3.13l-4.32-3.63a46.3,46.3,0,0,0-4.17-3.22,16,16,0,0,0-2.18-1.21l-1-.44a4.21,4.21,0,0,0-2.69-.47,2.87,2.87,0,0,0-1.89,1.27,5.77,5.77,0,0,0-.52,1.26c0,.21-.07.42-.1.63a5,5,0,0,0-.08.86,12.64,12.64,0,0,0,.15,2.13c.06.53.13,1.06.2,1.59q.36,2.81.85,5.59c.35,1.93.78,3.84,1.23,5.75.11.47.27,1,.4,1.42s.19.77.32,1.15c.31.94.62,1.88,1,2.82.68,1.84,1.5,3.62,2.32,5.4s1.6,3.42,2.43,5.11c1.64,3.31,3.27,6.63,5,9.91.85,1.63,1.71,3.26,2.62,4.86q.49.86,1,1.74c.14.25.28.5.44.74.55.84,1.08,1.69,1.7,2.5,1.17,1.52,2.33,3.06,3.62,4.48.72.81,1.45,1.61,2.18,2.41s1.45,1.5,2.18,2.24c1.44,1.48,3,2.88,4.46,4.31s2.89,2.65,4.35,4c2.64,2.4,5.34,4.74,8,7.15,1.51,1.37,3,2.73,4.53,4.13l5,4.7c1.45,1.35,2.94,2.68,4.41,4s2.73,2.41,4.11,3.61l2.33,2c.59.52,1.24,1,1.86,1.47,1.56,1.22,3.08,2.47,4.71,3.61l4.75,3.31,3.22,2.21c.7.49,1.39,1,2.1,1.45l10.54,6.86c3.41,2.24,6.8,4.52,10.19,6.79,1.47,1,2.92,2,4.39,3s2.92,2,4.41,3q3.1,2,6.22,4.07c1.5,1,3.07,1.86,4.61,2.78l2.6,1.55c.66.39,1.34.73,2,1.09,1.72.94,3.42,1.93,5.19,2.76l2,.95c-2.57-.14-5.14-.27-7.7-.43-3.76-.22-7.51-.52-11.26-.83-1.65-.14-3.31-.24-5-.44l-7.6-.93-2.59-.32-12.18-2.27c-.34-.07-.68-.16-1-.25l-3.56-.9-7.69-1.95c-1.17-.3-2.32-.68-3.48-1l-8-2.5c-3.69-1.16-7.33-2.5-11-3.79l-3.3-1.16c-1.1-.39-2.19-.83-3.28-1.25-1.81-.7-3.6-1.42-5.39-2.16q-6.85-2.91-13.45-6.42c-4.42-2.33-8.68-4.93-12.88-7.64-1.06-.68-2.12-1.35-3.15-2.08l-1.84-1.3-6-4.26-4.31-3c-.87-.61-1.69-1.29-2.53-1.94l-9.38-7.22-10.11-8.12c-1-.8-2-1.68-2.93-2.53l-6-5.29c-1-.87-1.93-1.79-2.87-2.71l-5.75-5.53c-1-.93-1.85-1.94-2.76-2.92l-5.36-5.8c-1.16-1.26-2.22-2.61-3.31-3.93l-4.5-5.4c-1.21-1.61-2.43-3.22-3.64-4.84-1-1.27-2-2.53-2.86-3.84l-4.36-6.27c-.26-.38-.55-.75-.78-1.14-.59-1-1.18-2-1.76-3-.93-1.56-1.91-3.1-2.75-4.72l-1.8-3.5c-.36-.7-.74-1.39-1.07-2.1-1.66-3.57-3.34-7.12-4.92-10.72-1.7-3.85-3.42-7.67-5.15-11.5q-1.07-2.37-2.31-4.65c-.2-.36-.43-.7-.64-1s-.39-.56-.61-.86l-.27-.35a4.22,4.22,0,0,0-.79-.79,5.19,5.19,0,0,0-1.17-.72l-.41-.17c-.29-.06-.59-.11-.88-.14a9.25,9.25,0,0,0-1.39.16,8.88,8.88,0,0,0-1.14.36c-1.65.54-3.27,1.11-4.94,1.54s-3.54,1-5.28,1.49-3.53,1.15-5.29,1.72-3.39,1.09-5.09,1.62c-1.92.6-3.86,1.17-5.8,1.7-1.7.48-3.41.92-5.11,1.42-.82.25-1.66.48-2.47.76s-1.33.46-2,.73a12.88,12.88,0,0,0-1.34.67,8.1,8.1,0,0,0-1.49,1.17,6.15,6.15,0,0,0-.9,1.07c-.28.41-.55.82-.8,1.25s-.4.7-.58,1.05c-.47.95-.92,1.91-1.34,2.89-.74,1.73-1.42,3.5-2.08,5.27s-1.3,3.35-2,5c-1.39,3.45-2.54,7-3.72,10.51-.62,1.85-1.2,3.72-1.78,5.58s-1.08,3.47-1.55,5.23-.89,3.53-1.3,5.31-.88,3.69-1.32,5.54-.87,3.55-1.26,5.33c-.45,2-.89,4-1.32,6-.84,3.88-1.52,7.79-2.2,11.69-.27,1.5-.49,3-.72,4.51-.16,1.06-.32,2.13-.49,3.2s-.26,1.93-.46,2.89c-.38-.43-.73-.87-1.08-1.31-.51-.72-1-1.45-1.46-2.22s-.91-1.68-1.34-2.53c-.8-1.59-1.53-3.21-2.27-4.82-1.77-3.87-3.53-7.74-5.32-11.6-.73-1.58-1.48-3.14-2.23-4.7s-1.46-3.17-2.26-4.72l-3.42-6.6c-.66-1.28-1.29-2.58-2-3.83l-6.56-11.55c-.59-1-1.21-2-1.81-3.06q-2.1-3.51-4.19-7c-1.78-3-3.53-6-5.29-9-.91-1.55-1.82-3.12-2.74-4.67-.67-1.15-1.29-2.35-1.92-3.52s-1.26-2.35-1.87-3.54c-1.21-2.36-2.32-4.76-3.36-7.18q-1.21-2.93-2.31-5.89a35.42,35.42,0,0,1-1.79-5.89,13,13,0,0,1-.06-1.4l-.06.45a4.39,4.39,0,0,1,.2-1.07l0,0a24,24,0,0,1,2.48-2.24l.54-.41c.28-.21.6-.42.86-.66l1.5-1.36c1.58-1.14,3.2-2.23,4.82-3.33s3-2,4.48-3l5.55-3.54c.44-.28.89-.53,1.33-.8l3.77-2.23c1.32-.79,2.64-1.57,4-2.31l6.84-3.75c1.37-.76,2.79-1.44,4.18-2.15l5.9-3c.65-.33,1.33-.64,2-1l4.89-2.35,4.06-2c2-1,4.06-1.83,6.11-2.7l-.19.07.28-.11.09,0-.06,0c1.82-.76,3.66-1.47,5.53-2.11,2.15-.73,4.32-1.34,6.52-1.89s4.46-1,6.7-1.42,4.52-1,6.81-1.31c.6-.07,1.19-.14,1.78-.19s1.27,0,1.9,0c1.43,0,2.85.11,4.27.15,0,0,0,0,0,0-1.16-.45-2.32-.87-3.49-1.28a14.53,14.53,0,0,0-3.32-.82,28.51,28.51,0,0,0-3.06-.16Z"/><path d="M1541.75,450.79c-.43,1.94-.87,3.88-1.25,5.82-.25,1.26-.49,2.53-.73,3.79-.61,3.25-1,6.53-1.46,9.81-.22,1.59-.42,3.17-.74,4.74-.35,1.74-.69,3.48-1.06,5.21-.78,3.6-1.57,7.21-2.38,10.8-.24,1.09-.49,2.17-.73,3.25-.17.74-.38,1.48-.57,2.21s-.39,1.59-.62,2.37l-.75,2.62c-.45,1.56-.88,3.13-1.36,4.68-.69,2.24-1.39,4.47-2.08,6.7-.37,1.19-.77,2.37-1.17,3.54l-2.22,6.42c-.1.31-.23.62-.36.92-.41,1-.83,2.05-1.26,3.08-.66,1.62-1.31,3.24-2,4.86s-1.61,3.36-2.42,5c-.49,1-1,2.06-1.48,3.08-.16.34-.32.67-.5,1l-3.25,5.91c-.63,1.13-1.24,2.25-1.91,3.36-1.22,2-2.45,4.08-3.67,6.13-.71,1.19-1.49,2.35-2.24,3.52l-2.1,3.24c-.31.49-.61,1-.93,1.45l-3.63,5.17c-1.33,1.91-2.73,3.77-4.11,5.65-.55.66-1.09,1.33-1.64,2s-1,1.24-1.48,1.82c-1.14,1.25-2.25,2.54-3.44,3.76s-2.49,2.61-3.8,3.86-2.61,2.52-4,3.76c-1.14,1.06-2.25,2.15-3.45,3.14l-4.19,3.47c-1.63,1.24-3.25,2.49-4.91,3.7-2.11,1.53-4.2,3.08-6.26,4.68a26.26,26.26,0,0,0-2.68,2.26,27.42,27.42,0,0,0-2.35,2.8c-.84,1.12-1.61,2.31-2.36,3.49,0,0,0,0,0,0,1.28-1.16,2.59-2.28,4-3.34l-.1.08c.9-.68,1.81-1.34,2.76-1.94s1.75-1,2.61-1.51,1.79-1.13,2.68-1.72c.7-.47,1.37-1,2-1.48l1.75-1.28,2.65-2c.73-.56,1.49-1.09,2.2-1.68l4.6-3.81c.47-.39.91-.82,1.36-1.24l2.49-2.33c1.27-1.17,2.49-2.39,3.73-3.59.59-.57,1.15-1.17,1.72-1.76s1.27-1.32,1.91-2c.2-.21.39-.44.58-.65l1.32-1.47c.46-.5.93-1,1.36-1.53l2.21-2.74c.42-.52.84-1,1.23-1.57l2.11-2.88c.39-.54.8-1.07,1.18-1.62,1.24-1.78,2.48-3.55,3.71-5.33.83-1.18,1.59-2.41,2.37-3.62l2.09-3.25c.31-.49.64-1,.93-1.45q1.55-2.61,3.11-5.22c.68-1.14,1.38-2.28,2-3.45,1.16-2.12,2.33-4.24,3.49-6.37.24-.44.51-.87.73-1.32l.93-2,3.06-6.39c.62-1.3,1.12-2.64,1.67-4l2.34-5.74c.19-.47.33-1,.5-1.45.41-1.19.81-2.38,1.23-3.58.48-1.41,1-2.83,1.45-4.26,1.09-3.57,2.21-7.13,3.24-10.72.48-1.69,1-3.38,1.43-5.09l.87-3.37c.19-.75.34-1.51.51-2.26.81-3.62,1.62-7.23,2.41-10.86.37-1.65.71-3.31,1.06-5,.18-.85.35-1.71.53-2.56.07-.33.11-.67.16-1,.1-.66.2-1.32.31-2q.43-2.83.79-5.7c.22-1.76.31-3.54.4-5.31,0-1.25.07-2.48.06-3.73,0-2.06-.09-4.12-.26-6.18h0Z"/><path d="M1656.48,287.58q1.49,4.67,3.39,9.18l0-.08c1.21,2.86,2.54,5.69,3.84,8.51q.4,1,.78,2c.27.73.43,1.5.68,2.24.61,1.78,1.17,3.58,1.72,5.38h0c.12-1.17.2-2.33.23-3.5,0-.87,0-1.74-.07-2.6a12.49,12.49,0,0,0-.24-1.49c-.09-.46-.15-.93-.23-1.39a20,20,0,0,0-.6-2.43,28.55,28.55,0,0,0-2.1-5.12,48.77,48.77,0,0,0-2.84-4.64c-1.4-2.1-2.94-4.1-4.54-6.05h0S1656.47,287.57,1656.48,287.58Z"/><path d="M1355.77,716.58a24.31,24.31,0,0,0-2.55.31,21.91,21.91,0,0,0-4.53,1.51,84.19,84.19,0,0,0-8.78,4.47c-2.7,1.54-5.38,3.1-8.07,4.66l-7,4.07c-1.58.92-3.14,1.9-4.71,2.85-3.76,2.28-7.53,4.55-11.28,6.87s-7.75,4.74-11.56,7.21l-7.82,5.05c-1.35.87-2.69,1.78-4,2.69l-6.48,4.4c-.15.1-.29.22-.44.33l-1.5,1.15-3.91,3c-.89.68-1.79,1.35-2.65,2.06-2.45,2-4.83,4.12-7.07,6.37a89.31,89.31,0,0,0-6.4,7.21,80.83,80.83,0,0,0-5.64,7.89q-1.59,2.55-3,5.22l-1.81,3.5c-.19.36-.33.74-.5,1.1l-1,2.21c-.33.74-.62,1.48-.91,2.23a21.46,21.46,0,0,0-1.22,4.87,15,15,0,0,0-.14,2.12A10.49,10.49,0,0,0,1243,811a9.12,9.12,0,0,0,.22,1,10.89,10.89,0,0,0,.76,2,13.76,13.76,0,0,0,1.29,2.15,28.75,28.75,0,0,0,6.54,6.44,53.89,53.89,0,0,0,8,4.91,74.54,74.54,0,0,0,8.83,3.76c3,1.08,6.15,1.93,9.27,2.71s6.41,1.52,9.65,2.12,6.58,1.11,9.88,1.61c.78.12,1.57.21,2.36.31l15.35,1.86c.58.07,1.16.09,1.74.14l4.31.34,9,.72,3.89.27,9.59.62c1.42.1,2.85.21,4.28.27l8.77.39c1.84.08,3.69.2,5.53.25l8.12.23c3.21.09,6.42.18,9.64.22s6.61-.05,9.92-.27a78.53,78.53,0,0,0,9.78-1.25,82.22,82.22,0,0,0,9.41-2.43c3.12-1,6.19-2.19,9.21-3.47q2.61-1.11,5.18-2.32l4.22-2,2.18-1.06c1.06-.52,2.14-1,3.2-1.56q3.06-1.58,6.11-3.2c.94-.49,1.86-1,2.77-1.57,1.18-.68,2.35-1.37,3.47-2.13a25.4,25.4,0,0,0,2.58-2,23.3,23.3,0,0,0,2.31-2.35,13.22,13.22,0,0,0,1.26-1.71,6.75,6.75,0,0,0,.48-1.06c.12-.34.22-.67.31-1a10.66,10.66,0,0,0,.19-2.4,13,13,0,0,0-.26-2.49,8.89,8.89,0,0,0-.71-2.13,10.51,10.51,0,0,0-1-1.76,15.17,15.17,0,0,0-3.19-3.16,28.88,28.88,0,0,0-2.68-1.84c-.44-.26-.86-.54-1.31-.77l-1.67-.86c-1-.5-2-1-2.94-1.44-2.1-1-4.21-2-6.38-2.82l-1.87-.71c-.73-.26-1.45-.51-2.18-.74s-1.71-.48-2.57-.68a93.51,93.51,0,0,0-9.53-1.65c-2.92-.39-5.85-.72-8.79-1.06-1.76-.21-3.53-.43-5.31-.58l-9-.79c-1.77-.15-3.54-.27-5.32-.4-2.76-.2-5.52-.45-8.29-.56a99.11,99.11,0,0,0-20,1c-1.56.26-3.11.59-4.64.94-1,.22-2,.43-2.93.68l-4,1.08-3.39.91c-1,.28-2,.61-3,.91s-2,.55-2.92.87l-4,1.34c-.85.28-1.68.6-2.52.92l-3.44,1.31c-1.13.43-2.25.9-3.37,1.35-.86.34-1.73.68-2.58,1a74.11,74.11,0,0,0-7,3.32c-.5.27-1,.56-1.47.85s-1,.62-1.55,1-1.12.71-1.63,1.12l-1,.83c-.48.4-.92.84-1.37,1.27,0,0,0,0,0,0l1.34-.64h0l0,0,0,0,1.55-.61c.51-.2,1-.33,1.57-.5,1-.34,2.12-.64,3.17-1s2.2-.65,3.28-1,2.2-.72,3.29-1.12c.8-.29,1.6-.61,2.39-.93l4.07-1.61c.89-.35,1.8-.68,2.69-1l2.11-.79.86-.32,3.2-1.06c.59-.2,1.17-.4,1.77-.57l3.4-1c.7-.2,1.39-.43,2.09-.61l6.16-1.67c1-.27,2-.51,3-.74,2.49-.59,5-1.12,7.54-1.47a94.21,94.21,0,0,1,9.64-.67c1.62,0,3.24,0,4.87,0l2.43.07c.68,0,1.36,0,2,.08l7.82.58c4.62.34,9.24.76,13.86,1.16,1.67.15,3.33.37,5,.57,2.64.3,5.28.6,7.92,1l-.45-.06a93.59,93.59,0,0,1,10.63,1.92,56.17,56.17,0,0,1,6.21,2.14c1.14.49,2.27,1,3.39,1.49s2.22,1.06,3.31,1.6l1.53.76c.6.31,1.21.61,1.79,1,1.1.66,2.18,1.36,3.22,2.13a16.27,16.27,0,0,1,2.16,2.07,10.81,10.81,0,0,1,1,1.61,11,11,0,0,1,.5,1.87,13,13,0,0,1,0,2.49,6.93,6.93,0,0,1-.3,1.08,5.76,5.76,0,0,1-.51.9,18.46,18.46,0,0,1-2.16,2.35c-.58.52-1.15,1-1.75,1.51a38.78,38.78,0,0,1-3.61,2.31c-1.06.62-2.13,1.22-3.2,1.83-.91.51-1.84,1-2.76,1.47-1.09.58-2.19,1.12-3.28,1.69-.93.48-1.89.93-2.83,1.39-.79.39-1.57.78-2.36,1.15l-4.1,1.95q-2.25,1.07-4.55,2.07l-1.2.51a103.45,103.45,0,0,1-10.5,3.78,76.92,76.92,0,0,1-11.23,2.42c-3.17.41-6.37.59-9.57.7s-6.66,0-10,0c-2.42,0-4.84-.13-7.26-.2-2,0-4-.08-6-.17l-7.7-.34-7-.3-1.62-.11-4.24-.27c-4.29-.28-8.58-.54-12.87-.87l-9.63-.76c-1.43-.11-2.87-.19-4.29-.36l-16-1.93-.13,0c-5.73-.86-11.46-1.77-17.1-3.1-2.76-.65-5.51-1.35-8.23-2.16a75.13,75.13,0,0,1-7.59-2.69h0l-.35-.15.28.12a60.17,60.17,0,0,1-12.44-7.06,28.32,28.32,0,0,1-4.68-4.54,16.18,16.18,0,0,1-1.77-2.9,11,11,0,0,1-.52-1.95,11.25,11.25,0,0,1,.11-2.32,26.67,26.67,0,0,1,.59-2.65c.26-.88.6-1.74.93-2.6.48-1.11,1-2.21,1.45-3.31.12-.27.25-.53.38-.79.36-.71.73-1.42,1.09-2.14l1-1.89c.5-1,1.07-1.94,1.63-2.89a76.86,76.86,0,0,1,5.44-8.06,94.26,94.26,0,0,1,7.89-8.94c1.35-1.33,2.77-2.6,4.2-3.85.85-.74,1.7-1.49,2.59-2.18,2.35-1.82,4.71-3.64,7.05-5.48,2-1.39,4.07-2.81,6.11-4.22,1.36-.94,2.72-1.88,4.1-2.79l7.73-5.08c1.18-.77,2.36-1.54,3.56-2.3l7.92-5c1.32-.82,2.63-1.66,4-2.47l7.25-4.46c1.65-1,3.29-2.06,5-3.05l8.9-5.28L1339,726a104.91,104.91,0,0,1,11.33-6,26.48,26.48,0,0,1,4.07-1.32c.71-.16,1.43-.27,2.14-.37a8.32,8.32,0,0,1,1.65-.07l.08,0h0c0,.06,0,.13-.07.2a7.12,7.12,0,0,1-.63,1,20.41,20.41,0,0,1-2.89,2.61c-.63.51-1.26,1-1.88,1.54-1.6,1.32-3.19,2.66-4.77,4,0,0,0,0,0,0q3.39-2.2,6.74-4.48l1.44-1c.5-.36,1-.72,1.46-1.11a8.39,8.39,0,0,0,1.55-1.71,2.35,2.35,0,0,0,.37-.7,2.21,2.21,0,0,0,.08-.72,1,1,0,0,0-.21-.55l-.11-.15a3.92,3.92,0,0,0-.33-.27l-.29-.13a1.52,1.52,0,0,0-.5-.15,4.23,4.23,0,0,0-.79-.08h-.34C1356.66,716.51,1356.21,716.54,1355.77,716.58Z"/><path d="M1264.19,856.73c-.78.74-1.53,1.5-2.28,2.28-.46.48-.92,1-1.36,1.48-.56.67-1.15,1.34-1.67,2s-1,1.36-1.5,2.05c-.16.23-.3.47-.44.71-.26.43-.53.86-.78,1.3-.38.63-.71,1.28-1.05,1.94-.15.29-.28.61-.41.91s-.4.85-.56,1.28c-.24.7-.52,1.38-.72,2.09l-.39,1.38a19.39,19.39,0,0,0-.54,3.12,6,6,0,0,0,0,1.47,10,10,0,0,0,1.74,4.65,12.05,12.05,0,0,0,2.06,2.39,22.39,22.39,0,0,0,2.84,2.1c1,.67,2.09,1.26,3.18,1.83,1.39.73,2.76,1.46,4.18,2.12s2.91,1.38,4.38,2c5.69,2.51,11.41,5,17,7.74,1.49.72,3,1.46,4.49,2.13s3.14,1.36,4.75,1.91c1.06.36,2.12.69,3.19,1,.81.24,1.63.5,2.45.69,3,.72,6.08,1.48,9.13,2.17,6.29,1.42,12.59,2.83,18.88,4.27,1.63.38,3.29.68,4.93,1,1.26.26,2.51.51,3.77.74,1.53.27,3,.57,4.58.81,2.46.4,4.93.86,7.4,1.1a38.69,38.69,0,0,0,10.4-.87c1.43-.25,2.85-.54,4.25-.93.78-.22,1.56-.43,2.33-.68s1.59-.54,2.38-.83c1.48-.55,2.92-1.2,4.35-1.86a43.21,43.21,0,0,0,5.74-3.25,47.92,47.92,0,0,0,5.18-4c.78-.69,1.53-1.42,2.24-2.18.36-.38.69-.78,1-1.18a10,10,0,0,0,1.09-1.49,6.71,6.71,0,0,0,.84-3.09,10.65,10.65,0,0,0-.13-1.59,9,9,0,0,0-.4-1.69,5.91,5.91,0,0,0-2.73-3.54,10,10,0,0,0-1.6-.8,29.86,29.86,0,0,0-6.23-1.74c-2.57-.49-5.16-.73-7.75-1-.6-.06-1.19-.15-1.79-.19l-2.43-.16c-1.41-.09-2.83-.2-4.24-.26-1.7-.08-3.39-.18-5.08-.23l-5.15-.16h-4.56c-.76,0-1.52,0-2.28.06s-1.29,0-1.93.05c-1.64.11-3.27.21-4.91.36s-3.09.32-4.63.51c-.93.11-1.85.27-2.78.41-.2,0-.4.08-.6.13l-1.68.38c-1.58.36-3.16.77-4.73,1.21-.61.18-1.21.39-1.81.6s-1.32.46-2,.72c-.91.36-1.82.74-2.73,1.12-.7.3-1.39.66-2.08,1a43.66,43.66,0,0,0-4.71,2.77s0,0,0,0l3-.91c.67-.2,1.36-.38,2-.55l2.37-.59c.84-.21,1.68-.38,2.52-.58l1.93-.45,2-.5c1.55-.36,3.08-.79,4.62-1.14l1.6-.36c.28-.07.57-.15.86-.2l2.34-.35q2.21-.28,4.41-.51c1.64-.15,3.27-.26,4.91-.37.64,0,1.28,0,1.93-.06s1.52,0,2.28,0h3.32c.41,0,.83,0,1.24,0l5.15.16c1.69.06,3.38.16,5.08.24,1.41.07,2.83.18,4.24.28l2.43.17c.6,0,1.19.12,1.79.19,1.15.12,2.3.22,3.45.36h0l.36,0-.17,0a39.18,39.18,0,0,1,9.26,2.14,10.13,10.13,0,0,1,1.64.92,5.81,5.81,0,0,1,.43.43,7,7,0,0,1,.51.93,8.46,8.46,0,0,1,.42,1.57,7.91,7.91,0,0,1,0,1.54,6.46,6.46,0,0,1-.24.86,5.46,5.46,0,0,1-.58,1,36.86,36.86,0,0,1-6.11,5.73,44.56,44.56,0,0,1-6.18,3.89c-1.14.6-2.31,1.13-3.49,1.66-1,.4-2,.79-3,1.16-1.18.44-2.39.76-3.6,1.1-.47.13-1,.24-1.43.35s-1.06.26-1.6.36c-1.68.29-3.37.61-5.07.84a27.24,27.24,0,0,1-6.93,0c-3.55-.49-7.07-1.11-10.6-1.74-1.29-.23-2.57-.5-3.86-.77s-2.86-.55-4.28-.88l-9-2.05c-3.28-.75-6.56-1.47-9.84-2.24l-7-1.67c-.89-.22-1.78-.42-2.66-.66-1.52-.42-3-.87-4.53-1.36-1.34-.45-2.66-1-4-1.51-.65-.29-1.31-.56-2-.87l-2.11-1c-1.52-.73-3-1.46-4.55-2.17-2.63-1.22-5.28-2.4-7.93-3.57s-5.58-2.42-8.32-3.72c-1.35-.64-2.7-1.27-4-2l-2.54-1.34a29.43,29.43,0,0,1-4.08-2.61,12,12,0,0,1-1.83-1.8,11.44,11.44,0,0,1-1.16-2,9.56,9.56,0,0,1-.51-1.81,7.78,7.78,0,0,1,0-1.6,17.59,17.59,0,0,1,.44-2.16l.39-1.42c.17-.61.43-1.22.65-1.82s.49-1.12.72-1.69c.47-1,.92-2,1.38-3,.21-.44.4-.89.62-1.33.32-.64.63-1.28.94-1.93.22-.47.47-.92.7-1.38s.43-.9.67-1.34c.75-1.37,1.46-2.76,2.18-4.15v0Z"/><path d="M1290.8,931.09c-1.16.54-2.3,1.1-3.43,1.69-.78.39-1.52.83-2.27,1.28a19,19,0,0,0-4.34,3.49,11.25,11.25,0,0,0-1.92,2.9,11.71,11.71,0,0,0-.6,1.66,11,11,0,0,0-.34,2.14,14.87,14.87,0,0,0,1,6.3,17.2,17.2,0,0,0,1.95,3.85,17.73,17.73,0,0,0,2.13,2.53,12.56,12.56,0,0,0,3.17,2.12c1,.5,2,.92,3,1.34l1.44.57a26,26,0,0,0,3.69,1.08c1.13.25,2.27.41,3.41.6.81.13,1.62.27,2.43.37l3.54.41c1.69.19,3.38.32,5.06.47,1,.09,1.93.15,2.89.22a45.37,45.37,0,0,0,5.47.13c1.28-.06,2.56-.23,3.83-.38.87-.1,1.73-.21,2.59-.33,1.77-.25,3.54-.51,5.29-.86s3.64-.75,5.46-1.14,3.37-.88,5.07-1.27a6.69,6.69,0,0,0,1.09-.38,19.34,19.34,0,0,0,2.56-1.21,8.83,8.83,0,0,0,2.46-2,5.69,5.69,0,0,0,1-1.7,4.27,4.27,0,0,0,.17-2.13,6.59,6.59,0,0,0-1.72-3.09,12.83,12.83,0,0,0-1.09-1.12,20.13,20.13,0,0,0-2.88-2.23,13.28,13.28,0,0,0-7.16-1.82,21.9,21.9,0,0,0-3.43.34,20.2,20.2,0,0,0-2.46.49l-1.46.4c-.44.12-.88.31-1.31.45a37.92,37.92,0,0,0-4.21,1.78,28.27,28.27,0,0,0-3.55,2.13,34.35,34.35,0,0,0-6.91,6.44s0,0,0,0c1.55-.93,3.15-1.79,4.76-2.63,1.39-.71,2.81-1.34,4.24-2l-.08,0,1.23-.51c1.75-.67,3.49-1.37,5.27-2,.47-.16.95-.36,1.44-.49l1.68-.46c.48-.13,1-.21,1.48-.31s.73-.12,1.09-.17l1.3-.12a13.31,13.31,0,0,1,2.75,0,11.21,11.21,0,0,1,2.29.61,14.24,14.24,0,0,1,2.1,1.23c.38.3.75.6,1.11.93a16.94,16.94,0,0,1,1.56,1.61,6.28,6.28,0,0,1,.48.78l.09.33v.08l-.06.23a5,5,0,0,1-.33.55,6.75,6.75,0,0,1-.85.84,14.46,14.46,0,0,1-2.24,1.26c-.83.33-1.65.68-2.47,1-.51.17-1,.31-1.57.45s-1.27.34-1.91.49c-1.31.29-2.61.59-3.91.85s-2.79.56-4.19.8c-1.2.21-2.4.37-3.61.54l-2.28.26c-1.22.15-2.44.24-3.67.28a69.21,69.21,0,0,1-7.33-.38c-2.93-.22-5.85-.58-8.78-.91l-3.93-.65a24.36,24.36,0,0,1-4.43-1.19c-.61-.23-1.22-.48-1.83-.73a21.81,21.81,0,0,1-4.17-2.19,12.38,12.38,0,0,1-1.83-1.93,16.22,16.22,0,0,1-1.84-3.27c-.12-.32-.23-.64-.34-.95a11,11,0,0,1-.56-5.08,13.47,13.47,0,0,1,.71-2.5,15.86,15.86,0,0,1,1.77-2.93,27.77,27.77,0,0,1,2.36-2.62c.51-.51,1-1,1.54-1.54s.93-.88,1.39-1.32c.64-.63,1.28-1.25,1.91-1.89,0,0,0,0,0,0Z"/><path d="M1296.55,981.5c-.52,2-1.06,3.92-1.45,5.91a15.46,15.46,0,0,0-.29,3.46,23.85,23.85,0,0,0,.27,2.53c.13,1,.3,1.91.51,2.86.17.75.39,1.48.62,2.21a20.78,20.78,0,0,0,1.75,4.25,25.9,25.9,0,0,0,3.22,4.35c1.56,1.73,3.41,3.17,4.89,5a15.75,15.75,0,0,1,1.23,2h0a15.72,15.72,0,0,0-.47-2,9.14,9.14,0,0,0-.59-1.41c-.29-.56-.58-1.11-.89-1.65s-.5-.89-.77-1.32-.59-.89-.87-1.34c-.61-1-1.22-1.94-1.78-2.94a39.74,39.74,0,0,1-1.85-3.62c-.34-.85-.61-1.72-.9-2.59l-.6-1.9a42.16,42.16,0,0,1-1.61-6.25c-.14-1.29-.15-2.59-.21-3.88s-.13-2.37-.2-3.56h0Z"/></svg>