<svg id="Layer_1" data-name="Layer 1" xmlns="http://www.w3.org/2000/svg" xmlns:xlink="http://www.w3.org/1999/xlink" viewBox="0 0 1920 1080"><defs><style>.cls-1{fill:none;}.cls-2{clip-path:url(#clip-path);}.cls-3{fill:url(#linear-gradient);}.cls-4{opacity:0.8;}.cls-5{fill:#ff8f8f;}.cls-6{fill:#ffe7e7;}.cls-7{fill:#ffd6d6;}.cls-8{fill:#ffb6b6;}.cls-9{fill:#ffc4c4;}.cls-10{fill:#fcc;}.cls-11{fill:#ffdbdb;}.cls-12{fill:#ffabab;}.cls-13{fill:#ffb5b5;}</style><clipPath id="clip-path"><circle class="cls-1" cx="1449.56" cy="386.8" r="343.2"/></clipPath><linearGradient id="linear-gradient" x1="1449.65" y1="43.53" x2="1449.65" y2="590.3" gradientUnits="userSpaceOnUse"><stop offset="0" stop-color="red" stop-opacity="0.6"/><stop offset="0.11" stop-color="#f0f" stop-opacity="0.29"/><stop offset="1" stop-color="#f0f" stop-opacity="0"/></linearGradient></defs><g class="cls-2"><path class="cls-3" d="M1103.7,590.3V43.53h691.89V590.29H1103.7Z"/></g><path d="M109.69,230.16a2.58,2.58,0,0,1-.79-1.92v-37a2.68,2.68,0,0,1,.79-1.95,2.52,2.52,0,0,1,1.91-.81,2.75,2.75,0,0,1,2.76,2.76v37a2.59,2.59,0,0,1-.8,1.92,2.73,2.73,0,0,1-2,.78A2.57,2.57,0,0,1,109.69,230.16Z"/><path d="M126.06,223.32v-18.6H121.8a1.13,1.13,0,0,1-1.13-1.14,1.23,1.23,0,0,1,.54-1l8.15-8a1.53,1.53,0,0,1,1-.54,1.06,1.06,0,0,1,.81.36,1.2,1.2,0,0,1,.33.84V200h6.78a2.27,2.27,0,0,1,2.35,2.34A2.31,2.31,0,0,1,140,204a2.22,2.22,0,0,1-1.68.69h-6.78v18.12q0,2.34,1.11,3a5.59,5.59,0,0,0,2.79.63,8.32,8.32,0,0,0,2.4-.36l.51-.12a3.34,3.34,0,0,1,.69-.06,2.11,2.11,0,0,1,1.5.63,2,2,0,0,1,.67,1.53,2.28,2.28,0,0,1-1.39,2.1,11.71,11.71,0,0,1-5,1.08Q126.06,231.24,126.06,223.32Z"/><path d="M161.76,228.54a2.29,2.29,0,0,1-1-2,2.41,2.41,0,0,1,.66-1.68,2.18,2.18,0,0,1,1.68-.72,2.64,2.64,0,0,1,1.08.24,24.25,24.25,0,0,0,3.84,1.32,17.85,17.85,0,0,0,4.32.48q6.66,0,6.66-4.26a2.27,2.27,0,0,0-1.53-2.1,31.33,31.33,0,0,0-5-1.62,45.27,45.27,0,0,1-5.85-1.74,10.29,10.29,0,0,1-4-2.73,6.94,6.94,0,0,1-1.65-4.83,8.65,8.65,0,0,1,3-6.84q3-2.64,8.67-2.64a25,25,0,0,1,8.7,1.5,2.25,2.25,0,0,1,1.29.9,2.41,2.41,0,0,1,.45,1.38,2.35,2.35,0,0,1-.69,1.68,2.27,2.27,0,0,1-1.71.72,3.37,3.37,0,0,1-.78-.12,23,23,0,0,0-6.84-1.08,9.37,9.37,0,0,0-5.07,1.17,3.49,3.49,0,0,0-1.83,3,2.77,2.77,0,0,0,1.68,2.64,24,24,0,0,0,5.22,1.62,50,50,0,0,1,5.76,1.77,9.52,9.52,0,0,1,3.81,2.73,7.41,7.41,0,0,1,1.59,5,7.93,7.93,0,0,1-3,6.36q-3,2.52-8.55,2.52A22.32,22.32,0,0,1,161.76,228.54Z"/><path d="M192,192.9a3,3,0,0,1-.9-2.16v-.24a3.07,3.07,0,0,1,3.06-3.06h.36a3.07,3.07,0,0,1,3.06,3.06v.24a3.07,3.07,0,0,1-3.06,3.06h-.36A3,3,0,0,1,192,192.9Zm.36,37.26a2.61,2.61,0,0,1-.78-1.92V202.5a2.71,2.71,0,0,1,.78-1.95,2.56,2.56,0,0,1,1.92-.81A2.67,2.67,0,0,1,197,202.5v25.74a2.56,2.56,0,0,1-.81,1.92,2.71,2.71,0,0,1-1.95.78A2.61,2.61,0,0,1,192.36,230.16Z"/><path d="M207.3,230.16a2.61,2.61,0,0,1-.78-1.92V202.5a2.71,2.71,0,0,1,.78-1.95,2.56,2.56,0,0,1,1.92-.81A2.77,2.77,0,0,1,212,202.5V205a19.94,19.94,0,0,1,4.92-4,12.42,12.42,0,0,1,6.24-1.5,10.37,10.37,0,0,1,5.73,1.56,10.14,10.14,0,0,1,3.72,4.26,13.6,13.6,0,0,1,1.29,5.94v17a2.56,2.56,0,0,1-.81,1.92,2.71,2.71,0,0,1-1.95.78,2.66,2.66,0,0,1-2.7-2.7V211.8q0-7.32-6.6-7.32a9.55,9.55,0,0,0-5.37,1.56,19.44,19.44,0,0,0-4.47,4.2v18a2.56,2.56,0,0,1-.81,1.92,2.71,2.71,0,0,1-1.95.78A2.61,2.61,0,0,1,207.3,230.16Z"/><path d="M250.32,244.14a23,23,0,0,1-5.82-2.22,2.28,2.28,0,0,1-1.08-2.1,2.46,2.46,0,0,1,.69-1.71,2.23,2.23,0,0,1,1.71-.75,3,3,0,0,1,1.08.24,21.83,21.83,0,0,0,9.9,2.28q9.18,0,9.18-9.78v-4a13.54,13.54,0,0,1-10.26,4.56,14.46,14.46,0,0,1-6.87-1.77,14.3,14.3,0,0,1-5.49-5.28,18,18,0,0,1,0-17.1,14.3,14.3,0,0,1,5.49-5.28,14.46,14.46,0,0,1,6.87-1.77A13.54,13.54,0,0,1,266,204v-1.5a2.71,2.71,0,0,1,.78-1.95,2.56,2.56,0,0,1,1.92-.81,2.77,2.77,0,0,1,2.76,2.76v26.82q0,7.56-3.66,11.64T257.34,245A28.4,28.4,0,0,1,250.32,244.14Zm11.52-19.68a18,18,0,0,0,4.14-3.24V208.86a18,18,0,0,0-4.14-3.24,10.08,10.08,0,0,0-5-1.2,10.19,10.19,0,0,0-7.35,2.73q-2.85,2.73-2.85,7.89t2.85,7.89a10.19,10.19,0,0,0,7.35,2.73A10.08,10.08,0,0,0,261.84,224.46Z"/><path d="M279.9,228.54a2.29,2.29,0,0,1-1-2,2.41,2.41,0,0,1,.66-1.68,2.18,2.18,0,0,1,1.68-.72,2.64,2.64,0,0,1,1.08.24,24.25,24.25,0,0,0,3.84,1.32,17.85,17.85,0,0,0,4.32.48q6.66,0,6.66-4.26a2.27,2.27,0,0,0-1.53-2.1,31.33,31.33,0,0,0-5-1.62,45.27,45.27,0,0,1-5.85-1.74,10.29,10.29,0,0,1-4-2.73,6.94,6.94,0,0,1-1.65-4.83,8.65,8.65,0,0,1,3-6.84q3-2.64,8.67-2.64a25,25,0,0,1,8.7,1.5,2.25,2.25,0,0,1,1.29.9,2.41,2.41,0,0,1,.45,1.38,2.35,2.35,0,0,1-.69,1.68,2.27,2.27,0,0,1-1.71.72,3.37,3.37,0,0,1-.78-.12,23,23,0,0,0-6.84-1.08,9.37,9.37,0,0,0-5.07,1.17,3.49,3.49,0,0,0-1.83,3,2.77,2.77,0,0,0,1.68,2.64,24,24,0,0,0,5.22,1.62,50,50,0,0,1,5.76,1.77,9.52,9.52,0,0,1,3.81,2.73,7.41,7.41,0,0,1,1.59,5,7.93,7.93,0,0,1-3,6.36q-3,2.52-8.55,2.52A22.32,22.32,0,0,1,279.9,228.54Z"/><path d="M332.28,230.22a3.66,3.66,0,0,1-1.32-1.8l-8.52-25a3.23,3.23,0,0,1-.18-1,2.66,2.66,0,0,1,2.7-2.7,2.74,2.74,0,0,1,1.53.45,2.21,2.21,0,0,1,.93,1.17l7,23.1,7-22.56a3.08,3.08,0,0,1,5.88,0l7,22.56,7-23.1a2.21,2.21,0,0,1,.93-1.17,2.74,2.74,0,0,1,1.53-.45,2.66,2.66,0,0,1,2.7,2.7,3.23,3.23,0,0,1-.18,1l-8.52,25a3.66,3.66,0,0,1-1.32,1.8,3.6,3.6,0,0,1-4.32,0,4,4,0,0,1-1.38-1.86l-6.36-19.86L338,228.36a4,4,0,0,1-1.38,1.86,3.6,3.6,0,0,1-4.32,0Z"/><path d="M373.26,192.9a3,3,0,0,1-.9-2.16v-.24a3.07,3.07,0,0,1,3.06-3.06h.36a3.07,3.07,0,0,1,3.06,3.06v.24a3.07,3.07,0,0,1-3.06,3.06h-.36A3,3,0,0,1,373.26,192.9Zm.36,37.26a2.61,2.61,0,0,1-.78-1.92V202.5a2.71,2.71,0,0,1,.78-1.95,2.56,2.56,0,0,1,1.92-.81,2.67,2.67,0,0,1,2.76,2.76v25.74a2.56,2.56,0,0,1-.81,1.92,2.71,2.71,0,0,1-1.95.78A2.61,2.61,0,0,1,373.62,230.16Z"/><path d="M388.56,230.16a2.61,2.61,0,0,1-.78-1.92V202.5a2.71,2.71,0,0,1,.78-1.95,2.56,2.56,0,0,1,1.92-.81,2.77,2.77,0,0,1,2.76,2.76V205a19.94,19.94,0,0,1,4.92-4,12.42,12.42,0,0,1,6.24-1.5,10.37,10.37,0,0,1,5.73,1.56,10.14,10.14,0,0,1,3.72,4.26,13.6,13.6,0,0,1,1.29,5.94v17a2.56,2.56,0,0,1-.81,1.92,2.71,2.71,0,0,1-1.95.78,2.66,2.66,0,0,1-2.7-2.7V211.8q0-7.32-6.6-7.32a9.55,9.55,0,0,0-5.37,1.56,19.44,19.44,0,0,0-4.47,4.2v18a2.56,2.56,0,0,1-.81,1.92,2.71,2.71,0,0,1-1.95.78A2.61,2.61,0,0,1,388.56,230.16Z"/><path d="M425.4,223.32v-18.6h-4.26a1.13,1.13,0,0,1-1.14-1.14,1.25,1.25,0,0,1,.54-1l8.16-8a1.51,1.51,0,0,1,1-.54,1.06,1.06,0,0,1,.81.36,1.2,1.2,0,0,1,.33.84V200h6.78a2.26,2.26,0,0,1,2.34,2.34,2.3,2.3,0,0,1-.66,1.65,2.22,2.22,0,0,1-1.68.69h-6.78v18.12q0,2.34,1.11,3a5.59,5.59,0,0,0,2.79.63,8.32,8.32,0,0,0,2.4-.36l.51-.12a3.27,3.27,0,0,1,.69-.06,2.11,2.11,0,0,1,1.5.63,2,2,0,0,1,.66,1.53,2.27,2.27,0,0,1-1.38,2.1,11.74,11.74,0,0,1-5,1.08Q425.4,231.24,425.4,223.32Z"/><path d="M448.35,227.07q-4.11-4.17-4.11-11.73a19.56,19.56,0,0,1,1.56-7.86,13.36,13.36,0,0,1,4.8-5.82,13.79,13.79,0,0,1,8-2.22,14,14,0,0,1,7.68,2.07,13.39,13.39,0,0,1,4.92,5.52,17,17,0,0,1,1.68,7.53,2.62,2.62,0,0,1-2.76,2.7H449.76a9.87,9.87,0,0,0,3.12,6.54q2.64,2.34,7.38,2.34a18,18,0,0,0,4.41-.48,18.32,18.32,0,0,0,3.69-1.38,2.38,2.38,0,0,1,1.08-.24,2.41,2.41,0,0,1,1.68.66,2.18,2.18,0,0,1,.72,1.68,2.59,2.59,0,0,1-1.56,2.22,18.74,18.74,0,0,1-10.5,2.64Q452.46,231.24,448.35,227.07Zm19.11-14.25a9.61,9.61,0,0,0-1.53-4.92A8.26,8.26,0,0,0,462.6,205a9.15,9.15,0,0,0-8,0,8.06,8.06,0,0,0-3.3,2.91,9.79,9.79,0,0,0-1.5,4.92Z"/><path d="M480.84,230.16a2.61,2.61,0,0,1-.78-1.92V202.5a2.71,2.71,0,0,1,.78-1.95,2.56,2.56,0,0,1,1.92-.81,2.77,2.77,0,0,1,2.76,2.76v2.58q4.2-5.64,9.42-5.64h.3a2.51,2.51,0,0,1,1.89.78,2.66,2.66,0,0,1,.75,1.92,2.42,2.42,0,0,1-.78,1.86,2.81,2.81,0,0,1-2,.72h-.3a10.23,10.23,0,0,0-5.28,1.41,12.16,12.16,0,0,0-4,3.87v18.24a2.56,2.56,0,0,1-.81,1.92,2.71,2.71,0,0,1-1.95.78A2.61,2.61,0,0,1,480.84,230.16Z"/><path d="M517.62,228.54a2.29,2.29,0,0,1-1-2,2.41,2.41,0,0,1,.66-1.68,2.18,2.18,0,0,1,1.68-.72,2.64,2.64,0,0,1,1.08.24,24.25,24.25,0,0,0,3.84,1.32,17.85,17.85,0,0,0,4.32.48q6.66,0,6.66-4.26a2.27,2.27,0,0,0-1.53-2.1,31.33,31.33,0,0,0-5-1.62,45.27,45.27,0,0,1-5.85-1.74,10.29,10.29,0,0,1-4-2.73,6.94,6.94,0,0,1-1.65-4.83,8.65,8.65,0,0,1,3-6.84q3-2.64,8.67-2.64a25,25,0,0,1,8.7,1.5,2.25,2.25,0,0,1,1.29.9,2.41,2.41,0,0,1,.45,1.38,2.35,2.35,0,0,1-.69,1.68,2.27,2.27,0,0,1-1.71.72,3.37,3.37,0,0,1-.78-.12,23,23,0,0,0-6.84-1.08,9.37,9.37,0,0,0-5.07,1.17,3.49,3.49,0,0,0-1.83,3,2.77,2.77,0,0,0,1.68,2.64,24,24,0,0,0,5.22,1.62,50,50,0,0,1,5.76,1.77,9.52,9.52,0,0,1,3.81,2.73,7.41,7.41,0,0,1,1.59,5,7.93,7.93,0,0,1-3,6.36q-3,2.52-8.55,2.52A22.32,22.32,0,0,1,517.62,228.54Z"/><path d="M552.84,229.26a13.46,13.46,0,0,1-5.37-5.61,19.21,19.21,0,0,1,0-16.62,13.46,13.46,0,0,1,5.37-5.61,17.44,17.44,0,0,1,16.14,0,13.65,13.65,0,0,1,5.4,5.61,18.94,18.94,0,0,1,0,16.62,13.65,13.65,0,0,1-5.4,5.61,17.44,17.44,0,0,1-16.14,0Zm12.81-4.14a9.16,9.16,0,0,0,3.72-3.6,12,12,0,0,0,1.47-6.24,11.88,11.88,0,0,0-1.47-6.18,9,9,0,0,0-3.72-3.57,10.52,10.52,0,0,0-4.71-1.11,10.64,10.64,0,0,0-4.77,1.11,8.78,8.78,0,0,0-3.69,3.57,12.08,12.08,0,0,0-1.44,6.18,12.21,12.21,0,0,0,1.44,6.24,9,9,0,0,0,3.69,3.6,10.41,10.41,0,0,0,4.77,1.14A10.29,10.29,0,0,0,565.65,225.12Z"/><path d="M584.7,230.16a2.61,2.61,0,0,1-.78-1.92V202.5a2.71,2.71,0,0,1,.78-1.95,2.56,2.56,0,0,1,1.92-.81,2.77,2.77,0,0,1,2.76,2.76V205a19.94,19.94,0,0,1,4.92-4,12.42,12.42,0,0,1,6.24-1.5,10.37,10.37,0,0,1,5.73,1.56,10.14,10.14,0,0,1,3.72,4.26,13.6,13.6,0,0,1,1.29,5.94v17a2.56,2.56,0,0,1-.81,1.92,2.71,2.71,0,0,1-2,.78,2.66,2.66,0,0,1-2.7-2.7V211.8q0-7.32-6.6-7.32a9.55,9.55,0,0,0-5.37,1.56,19.44,19.44,0,0,0-4.47,4.2v18a2.56,2.56,0,0,1-.81,1.92,2.71,2.71,0,0,1-2,.78A2.61,2.61,0,0,1,584.7,230.16Z"/><path d="M627.72,244.14a23,23,0,0,1-5.82-2.22,2.28,2.28,0,0,1-1.08-2.1,2.46,2.46,0,0,1,.69-1.71,2.23,2.23,0,0,1,1.71-.75,3,3,0,0,1,1.08.24,21.83,21.83,0,0,0,9.9,2.28q9.18,0,9.18-9.78v-4a13.54,13.54,0,0,1-10.26,4.56,14.46,14.46,0,0,1-6.87-1.77,14.3,14.3,0,0,1-5.49-5.28,18,18,0,0,1,0-17.1,14.3,14.3,0,0,1,5.49-5.28,14.46,14.46,0,0,1,6.87-1.77A13.54,13.54,0,0,1,643.38,204v-1.5a2.71,2.71,0,0,1,.78-1.95,2.56,2.56,0,0,1,1.92-.81,2.77,2.77,0,0,1,2.76,2.76v26.82q0,7.56-3.66,11.64T634.74,245A28.4,28.4,0,0,1,627.72,244.14Zm11.52-19.68a18,18,0,0,0,4.14-3.24V208.86a18,18,0,0,0-4.14-3.24,10.08,10.08,0,0,0-5-1.2,10.19,10.19,0,0,0-7.35,2.73q-2.85,2.73-2.85,7.89t2.85,7.89a10.19,10.19,0,0,0,7.35,2.73A10.08,10.08,0,0,0,639.24,224.46Z"/><path d="M657.3,228.54a2.29,2.29,0,0,1-1-2,2.41,2.41,0,0,1,.66-1.68,2.18,2.18,0,0,1,1.68-.72,2.64,2.64,0,0,1,1.08.24,24.25,24.25,0,0,0,3.84,1.32,17.85,17.85,0,0,0,4.32.48q6.66,0,6.66-4.26a2.27,2.27,0,0,0-1.53-2.1,31.33,31.33,0,0,0-5-1.62,45.27,45.27,0,0,1-5.85-1.74,10.29,10.29,0,0,1-4-2.73,6.94,6.94,0,0,1-1.65-4.83,8.65,8.65,0,0,1,3-6.84q3-2.64,8.67-2.64a25,25,0,0,1,8.7,1.5,2.25,2.25,0,0,1,1.29.9,2.41,2.41,0,0,1,.45,1.38,2.35,2.35,0,0,1-.69,1.68,2.27,2.27,0,0,1-1.71.72,3.37,3.37,0,0,1-.78-.12,23,23,0,0,0-6.84-1.08,9.37,9.37,0,0,0-5.07,1.17,3.49,3.49,0,0,0-1.83,3,2.77,2.77,0,0,0,1.68,2.64,24,24,0,0,0,5.22,1.62,50,50,0,0,1,5.76,1.77,9.52,9.52,0,0,1,3.81,2.73,7.41,7.41,0,0,1,1.59,5,7.93,7.93,0,0,1-3,6.36q-3,2.52-8.55,2.52A22.32,22.32,0,0,1,657.3,228.54Z"/><path d="M704.52,223.32v-18.6h-4.26a1.13,1.13,0,0,1-1.14-1.14,1.25,1.25,0,0,1,.54-1l8.16-8a1.51,1.51,0,0,1,1-.54,1.06,1.06,0,0,1,.81.36,1.2,1.2,0,0,1,.33.84V200h6.78a2.26,2.26,0,0,1,2.34,2.34,2.3,2.3,0,0,1-.66,1.65,2.22,2.22,0,0,1-1.68.69H710v18.12q0,2.34,1.11,3a5.59,5.59,0,0,0,2.79.63,8.32,8.32,0,0,0,2.4-.36l.51-.12a3.27,3.27,0,0,1,.69-.06,2.11,2.11,0,0,1,1.5.63,2,2,0,0,1,.66,1.53,2.27,2.27,0,0,1-1.38,2.1,11.74,11.74,0,0,1-5,1.08Q704.52,231.24,704.52,223.32Z"/><path d="M726.42,230.16a2.61,2.61,0,0,1-.78-1.92V189.3a2.71,2.71,0,0,1,.78-2,2.56,2.56,0,0,1,1.92-.81,2.77,2.77,0,0,1,2.76,2.76V205a19.94,19.94,0,0,1,4.92-4,12.42,12.42,0,0,1,6.24-1.5A10.37,10.37,0,0,1,748,201a10.14,10.14,0,0,1,3.72,4.26A13.6,13.6,0,0,1,753,211.2v17a2.56,2.56,0,0,1-.81,1.92,2.71,2.71,0,0,1-2,.78,2.66,2.66,0,0,1-2.7-2.7V211.8q0-7.32-6.6-7.32a9.55,9.55,0,0,0-5.37,1.56,19.44,19.44,0,0,0-4.47,4.2v18a2.56,2.56,0,0,1-.81,1.92,2.71,2.71,0,0,1-1.95.78A2.61,2.61,0,0,1,726.42,230.16Z"/><path d="M765.09,230.16a8.52,8.52,0,0,1-3.57-3.15,8.68,8.68,0,0,1-1.32-4.77,8.41,8.41,0,0,1,3.51-7.08q3.51-2.64,10.29-2.64h7.26V212q0-4-2-5.7t-6.09-1.74a20.45,20.45,0,0,0-4.05.36,34,34,0,0,0-3.93,1.08,3.37,3.37,0,0,1-.78.12,2.13,2.13,0,0,1-1.56-.66,2.2,2.2,0,0,1-.66-1.62,2.31,2.31,0,0,1,1.56-2.28,26.39,26.39,0,0,1,10.38-2.16,13.55,13.55,0,0,1,7,1.68,10.56,10.56,0,0,1,4.2,4.35,12.65,12.65,0,0,1,1.35,5.79v17a2.56,2.56,0,0,1-.81,1.92,2.71,2.71,0,0,1-1.95.78,2.66,2.66,0,0,1-2.7-2.7v-1.56A15.07,15.07,0,0,1,770,231.24,11.15,11.15,0,0,1,765.09,230.16Zm12-5a14.18,14.18,0,0,0,4.14-3.21v-5h-6.54q-9.06,0-9.06,4.74a4.45,4.45,0,0,0,1.47,3.48q1.47,1.32,4.89,1.32A10.85,10.85,0,0,0,777.12,225.15Z"/><path d="M797,223.32v-18.6h-4.26a1.13,1.13,0,0,1-1.14-1.14,1.25,1.25,0,0,1,.54-1l8.16-8a1.51,1.51,0,0,1,1-.54,1.06,1.06,0,0,1,.81.36,1.2,1.2,0,0,1,.33.84V200h6.78a2.26,2.26,0,0,1,2.34,2.34,2.3,2.3,0,0,1-.66,1.65,2.22,2.22,0,0,1-1.68.69h-6.78v18.12q0,2.34,1.11,3a5.59,5.59,0,0,0,2.79.63,8.32,8.32,0,0,0,2.4-.36l.51-.12a3.27,3.27,0,0,1,.69-.06,2.11,2.11,0,0,1,1.5.63,2,2,0,0,1,.66,1.53,2.27,2.27,0,0,1-1.38,2.1,11.74,11.74,0,0,1-5,1.08Q797,231.24,797,223.32Z"/><path d="M114.79,302.22a3.68,3.68,0,0,1-1.33-1.8l-8.52-25a3.51,3.51,0,0,1-.17-1,2.65,2.65,0,0,1,2.69-2.7,2.8,2.8,0,0,1,1.54.45,2.24,2.24,0,0,1,.92,1.17l7,23.1,7-22.56a3,3,0,0,1,1.12-1.56,3.08,3.08,0,0,1,3.65,0,3.09,3.09,0,0,1,1.12,1.56l7,22.56,7-23.1a2.15,2.15,0,0,1,.92-1.17,2.75,2.75,0,0,1,1.54-.45,2.65,2.65,0,0,1,2.69,2.7,3.51,3.51,0,0,1-.17,1l-8.52,25a3.74,3.74,0,0,1-1.33,1.8,3.6,3.6,0,0,1-4.32,0,3.92,3.92,0,0,1-1.37-1.86l-6.37-19.86-6.36,19.86a4,4,0,0,1-1.38,1.86,3.51,3.51,0,0,1-2.16.72A3.46,3.46,0,0,1,114.79,302.22Z"/><path d="M155.76,264.9a3,3,0,0,1-.9-2.16v-.24a3.07,3.07,0,0,1,3.06-3.06h.36a3.07,3.07,0,0,1,3.06,3.06v.24a3.07,3.07,0,0,1-3.06,3.06h-.36A3,3,0,0,1,155.76,264.9Zm.36,37.26a2.61,2.61,0,0,1-.78-1.92V274.5a2.71,2.71,0,0,1,.78-1.95,2.56,2.56,0,0,1,1.92-.81,2.67,2.67,0,0,1,2.76,2.76v25.74a2.56,2.56,0,0,1-.81,1.92,2.71,2.71,0,0,1-2,.78A2.61,2.61,0,0,1,156.12,302.16Z"/><path d="M171.06,302.16a2.61,2.61,0,0,1-.78-1.92V261.3a2.71,2.71,0,0,1,.78-1.95,2.56,2.56,0,0,1,1.92-.81,2.67,2.67,0,0,1,2.76,2.76v38.94a2.56,2.56,0,0,1-.81,1.92,2.71,2.71,0,0,1-2,.78A2.61,2.61,0,0,1,171.06,302.16Z"/><path d="M186,302.16a2.61,2.61,0,0,1-.78-1.92V261.3a2.71,2.71,0,0,1,.78-1.95,2.56,2.56,0,0,1,1.92-.81,2.67,2.67,0,0,1,2.76,2.76v38.94a2.56,2.56,0,0,1-.81,1.92,2.71,2.71,0,0,1-2,.78A2.61,2.61,0,0,1,186,302.16Z"/><path d="M216.54,315.93a2.71,2.71,0,0,1-.78-1.95V274.44a2.66,2.66,0,0,1,2.7-2.7,2.71,2.71,0,0,1,1.95.78,2.56,2.56,0,0,1,.81,1.92V276a13.79,13.79,0,0,1,10.26-4.56,14.07,14.07,0,0,1,7.05,1.89,14.34,14.34,0,0,1,5.4,5.52,18.45,18.45,0,0,1,0,17,14.34,14.34,0,0,1-5.4,5.52,14.07,14.07,0,0,1-7.05,1.89,13.79,13.79,0,0,1-10.26-4.56V314a2.67,2.67,0,0,1-2.76,2.76A2.56,2.56,0,0,1,216.54,315.93Zm21.3-20.61q2.7-2.82,2.7-8t-2.7-8a9.43,9.43,0,0,0-7.14-2.82,11.33,11.33,0,0,0-5.19,1.23,14.82,14.82,0,0,0-4.29,3.27v12.6a14.82,14.82,0,0,0,4.29,3.27,11.33,11.33,0,0,0,5.19,1.23A9.43,9.43,0,0,0,237.84,295.32Z"/><path d="M258.33,301.68a10.14,10.14,0,0,1-3.72-4.26,13.6,13.6,0,0,1-1.29-5.94v-17a2.56,2.56,0,0,1,.81-1.92,2.71,2.71,0,0,1,1.95-.78,2.66,2.66,0,0,1,2.7,2.7v16.44q0,7.32,6.6,7.32a9.55,9.55,0,0,0,5.37-1.56,19.44,19.44,0,0,0,4.47-4.2v-18a2.56,2.56,0,0,1,.81-1.92,2.71,2.71,0,0,1,2-.78,2.66,2.66,0,0,1,2.7,2.7v25.74a2.71,2.71,0,0,1-.78,1.95,2.56,2.56,0,0,1-1.92.81,2.77,2.77,0,0,1-2.76-2.76v-2.46a19.94,19.94,0,0,1-4.92,4,12.42,12.42,0,0,1-6.24,1.5A10.37,10.37,0,0,1,258.33,301.68Z"/><path d="M292,295.32v-18.6H287.7a1.13,1.13,0,0,1-1.14-1.14,1.25,1.25,0,0,1,.54-1l8.16-8a1.51,1.51,0,0,1,1-.54,1.06,1.06,0,0,1,.81.36,1.2,1.2,0,0,1,.33.84V272h6.78a2.26,2.26,0,0,1,2.34,2.34,2.3,2.3,0,0,1-.66,1.65,2.22,2.22,0,0,1-1.68.69h-6.78v18.12q0,2.34,1.11,3a5.59,5.59,0,0,0,2.79.63,8.32,8.32,0,0,0,2.4-.36l.51-.12a3.27,3.27,0,0,1,.69-.06,2.11,2.11,0,0,1,1.5.63,2,2,0,0,1,.66,1.53,2.27,2.27,0,0,1-1.38,2.1,11.74,11.74,0,0,1-5,1.08Q292,303.24,292,295.32Z"/><path d="M333.69,316a2.59,2.59,0,0,1-.75-1.86,2.72,2.72,0,0,1,.18-1l3.9-10-11.28-27.48a3.07,3.07,0,0,1-.24-1.14,2.71,2.71,0,0,1,.78-1.95,2.56,2.56,0,0,1,1.92-.81,2.62,2.62,0,0,1,1.53.48,2.72,2.72,0,0,1,1,1.2L340,296.34l9.42-22.8a2.62,2.62,0,0,1,2.52-1.8,2.56,2.56,0,0,1,1.92.81,2.71,2.71,0,0,1,.78,1.95,2.88,2.88,0,0,1-.18,1L338,314.88a2.7,2.7,0,0,1-2.52,1.86A2.44,2.44,0,0,1,333.69,316Z"/><path d="M365.88,301.26a13.46,13.46,0,0,1-5.37-5.61,19.21,19.21,0,0,1,0-16.62,13.46,13.46,0,0,1,5.37-5.61,17.44,17.44,0,0,1,16.14,0,13.65,13.65,0,0,1,5.4,5.61,18.94,18.94,0,0,1,0,16.62,13.65,13.65,0,0,1-5.4,5.61,17.44,17.44,0,0,1-16.14,0Zm12.81-4.14a9.16,9.16,0,0,0,3.72-3.6,12,12,0,0,0,1.47-6.24,11.88,11.88,0,0,0-1.47-6.18,9,9,0,0,0-3.72-3.57,10.52,10.52,0,0,0-4.71-1.11,10.64,10.64,0,0,0-4.77,1.11,8.78,8.78,0,0,0-3.69,3.57,12.08,12.08,0,0,0-1.44,6.18,12.21,12.21,0,0,0,1.44,6.24,9,9,0,0,0,3.69,3.6,10.41,10.41,0,0,0,4.77,1.14A10.29,10.29,0,0,0,378.69,297.12Z"/><path d="M401.67,301.68a10.14,10.14,0,0,1-3.72-4.26,13.6,13.6,0,0,1-1.29-5.94v-17a2.56,2.56,0,0,1,.81-1.92,2.71,2.71,0,0,1,1.95-.78,2.66,2.66,0,0,1,2.7,2.7v16.44q0,7.32,6.6,7.32a9.55,9.55,0,0,0,5.37-1.56,19.44,19.44,0,0,0,4.47-4.2v-18a2.56,2.56,0,0,1,.81-1.92,2.71,2.71,0,0,1,1.95-.78,2.66,2.66,0,0,1,2.7,2.7v25.74a2.71,2.71,0,0,1-.78,1.95,2.56,2.56,0,0,1-1.92.81,2.77,2.77,0,0,1-2.76-2.76v-2.46a19.94,19.94,0,0,1-4.92,4,12.42,12.42,0,0,1-6.24,1.5A10.37,10.37,0,0,1,401.67,301.68Z"/><path d="M450.9,295.32v-18.6h-4.26a1.13,1.13,0,0,1-1.14-1.14,1.25,1.25,0,0,1,.54-1l8.16-8a1.51,1.51,0,0,1,1-.54,1.06,1.06,0,0,1,.81.36,1.2,1.2,0,0,1,.33.84V272h6.78a2.26,2.26,0,0,1,2.34,2.34,2.3,2.3,0,0,1-.66,1.65,2.22,2.22,0,0,1-1.68.69h-6.78v18.12q0,2.34,1.11,3a5.59,5.59,0,0,0,2.79.63,8.32,8.32,0,0,0,2.4-.36l.51-.12a3.27,3.27,0,0,1,.69-.06,2.11,2.11,0,0,1,1.5.63,2,2,0,0,1,.66,1.53,2.27,2.27,0,0,1-1.38,2.1,11.74,11.74,0,0,1-5,1.08Q450.9,303.24,450.9,295.32Z"/><path d="M477,301.26a13.46,13.46,0,0,1-5.37-5.61,19.21,19.21,0,0,1,0-16.62,13.46,13.46,0,0,1,5.37-5.61,17.44,17.44,0,0,1,16.14,0,13.65,13.65,0,0,1,5.4,5.61,18.94,18.94,0,0,1,0,16.62,13.65,13.65,0,0,1-5.4,5.61,17.44,17.44,0,0,1-16.14,0Zm12.81-4.14a9.16,9.16,0,0,0,3.72-3.6,12,12,0,0,0,1.47-6.24,11.88,11.88,0,0,0-1.47-6.18,9,9,0,0,0-3.72-3.57,10.52,10.52,0,0,0-4.71-1.11,10.64,10.64,0,0,0-4.77,1.11,8.78,8.78,0,0,0-3.69,3.57,12.08,12.08,0,0,0-1.44,6.18,12.21,12.21,0,0,0,1.44,6.24,9,9,0,0,0,3.69,3.6,10.41,10.41,0,0,0,4.77,1.14A10.29,10.29,0,0,0,489.81,297.12Z"/><path d="M522.66,300.54a2.29,2.29,0,0,1-1-2,2.41,2.41,0,0,1,.66-1.68,2.18,2.18,0,0,1,1.68-.72,2.64,2.64,0,0,1,1.08.24,24.25,24.25,0,0,0,3.84,1.32,17.85,17.85,0,0,0,4.32.48q6.66,0,6.66-4.26a2.27,2.27,0,0,0-1.53-2.1,31.33,31.33,0,0,0-5-1.62,45.27,45.27,0,0,1-5.85-1.74,10.29,10.29,0,0,1-4-2.73,6.94,6.94,0,0,1-1.65-4.83,8.65,8.65,0,0,1,3-6.84q3-2.64,8.67-2.64a25,25,0,0,1,8.7,1.5,2.25,2.25,0,0,1,1.29.9,2.41,2.41,0,0,1,.45,1.38,2.35,2.35,0,0,1-.69,1.68,2.27,2.27,0,0,1-1.71.72,3.37,3.37,0,0,1-.78-.12,23,23,0,0,0-6.84-1.08,9.37,9.37,0,0,0-5.07,1.17,3.49,3.49,0,0,0-1.83,3,2.77,2.77,0,0,0,1.68,2.64,24,24,0,0,0,5.22,1.62,50,50,0,0,1,5.76,1.77,9.52,9.52,0,0,1,3.81,2.73,7.41,7.41,0,0,1,1.59,5,7.93,7.93,0,0,1-3,6.36q-3,2.52-8.55,2.52A22.32,22.32,0,0,1,522.66,300.54Z"/><path d="M553.26,302.16a2.61,2.61,0,0,1-.78-1.92V261.3a2.71,2.71,0,0,1,.78-1.95,2.56,2.56,0,0,1,1.92-.81,2.67,2.67,0,0,1,2.76,2.76v38.94a2.56,2.56,0,0,1-.81,1.92,2.71,2.71,0,0,1-2,.78A2.61,2.61,0,0,1,553.26,302.16Z"/><path d="M569.67,299.07q-4.11-4.17-4.11-11.73a19.56,19.56,0,0,1,1.56-7.86,13.36,13.36,0,0,1,4.8-5.82,13.79,13.79,0,0,1,8-2.22,14,14,0,0,1,7.68,2.07A13.39,13.39,0,0,1,592.5,279a17,17,0,0,1,1.68,7.53,2.62,2.62,0,0,1-2.76,2.7H571.08a9.87,9.87,0,0,0,3.12,6.54q2.64,2.34,7.38,2.34a18,18,0,0,0,4.41-.48,18.32,18.32,0,0,0,3.69-1.38,2.38,2.38,0,0,1,1.08-.24,2.41,2.41,0,0,1,1.68.66,2.18,2.18,0,0,1,.72,1.68,2.59,2.59,0,0,1-1.56,2.22,18.74,18.74,0,0,1-10.5,2.64Q573.78,303.24,569.67,299.07Zm19.11-14.25a9.61,9.61,0,0,0-1.53-4.92,8.26,8.26,0,0,0-3.33-2.91,9.15,9.15,0,0,0-8,0,8.06,8.06,0,0,0-3.3,2.91,9.79,9.79,0,0,0-1.5,4.92Z"/><path d="M603.63,299.07q-4.11-4.17-4.11-11.73a19.56,19.56,0,0,1,1.56-7.86,13.36,13.36,0,0,1,4.8-5.82,13.79,13.79,0,0,1,8-2.22,14,14,0,0,1,7.68,2.07,13.39,13.39,0,0,1,4.92,5.52,17,17,0,0,1,1.68,7.53,2.62,2.62,0,0,1-2.76,2.7H605a9.87,9.87,0,0,0,3.12,6.54q2.64,2.34,7.38,2.34a18,18,0,0,0,4.41-.48,18.32,18.32,0,0,0,3.69-1.38,2.38,2.38,0,0,1,1.08-.24,2.41,2.41,0,0,1,1.68.66,2.18,2.18,0,0,1,.72,1.68,2.59,2.59,0,0,1-1.56,2.22,18.74,18.74,0,0,1-10.5,2.64Q607.74,303.24,603.63,299.07Zm19.11-14.25a9.61,9.61,0,0,0-1.53-4.92,8.26,8.26,0,0,0-3.33-2.91,9.15,9.15,0,0,0-8,0,8.06,8.06,0,0,0-3.3,2.91,9.79,9.79,0,0,0-1.5,4.92Z"/><path d="M636.12,315.93a2.71,2.71,0,0,1-.78-1.95V274.44a2.66,2.66,0,0,1,2.7-2.7,2.71,2.71,0,0,1,2,.78,2.56,2.56,0,0,1,.81,1.92V276a13.79,13.79,0,0,1,10.26-4.56,14.07,14.07,0,0,1,7.05,1.89,14.34,14.34,0,0,1,5.4,5.52,18.45,18.45,0,0,1,0,17,14.34,14.34,0,0,1-5.4,5.52,14.07,14.07,0,0,1-7.05,1.89,13.79,13.79,0,0,1-10.26-4.56V314a2.67,2.67,0,0,1-2.76,2.76A2.56,2.56,0,0,1,636.12,315.93Zm21.3-20.61q2.7-2.82,2.7-8t-2.7-8a9.43,9.43,0,0,0-7.14-2.82,11.33,11.33,0,0,0-5.19,1.23A14.82,14.82,0,0,0,640.8,281v12.6a14.82,14.82,0,0,0,4.29,3.27,11.33,11.33,0,0,0,5.19,1.23A9.43,9.43,0,0,0,657.42,295.32Z"/><path d="M673,301.83a3.23,3.23,0,0,1-1-2.37v-.36a3.38,3.38,0,0,1,3.36-3.36h.6a3.38,3.38,0,0,1,3.36,3.36v.36a3.38,3.38,0,0,1-3.36,3.36h-.6A3.23,3.23,0,0,1,673,301.83Z"/><path d="M108,457a3.24,3.24,0,0,1-1-2.37v-3.54a9.65,9.65,0,0,1,4.92-8.76,1.71,1.71,0,0,1,1-.3,1.63,1.63,0,0,1,1.23.54,1.79,1.79,0,0,1,.52,1.26,1.69,1.69,0,0,1-.9,1.5,6.79,6.79,0,0,0-2.29,2.1,6.41,6.41,0,0,0-.77,3.48H111a3.27,3.27,0,0,1,2.38,1,3.22,3.22,0,0,1,1,2.37v.36a3.22,3.22,0,0,1-1,2.37,3.27,3.27,0,0,1-2.38,1h-.6A3.2,3.2,0,0,1,108,457Zm10.86,0a3.2,3.2,0,0,1-1-2.37v-3.54a9.64,9.64,0,0,1,4.93-8.76,1.76,1.76,0,0,1,2.25.24,1.81,1.81,0,0,1,.5,1.26,1.66,1.66,0,0,1-.89,1.5,6.79,6.79,0,0,0-2.29,2.1,6.41,6.41,0,0,0-.78,3.48h.24a3.4,3.4,0,0,1,3.37,3.36v.36a3.4,3.4,0,0,1-3.37,3.36h-.59A3.22,3.22,0,0,1,118.9,457Z"/><path d="M144.33,486.25a4.21,4.21,0,0,1-1.41-2l-11.76-36.12a4.2,4.2,0,0,1-.18-1,2.37,2.37,0,0,1,.69-1.89,2.64,2.64,0,0,1,2-.75,2.54,2.54,0,0,1,1.68.6,3.23,3.23,0,0,1,1,1.56l10.08,33.12,10.14-33a3,3,0,0,1,1.17-1.65,3.33,3.33,0,0,1,3.9,0,3,3,0,0,1,1.17,1.65l10.14,33L183,446.62a3.23,3.23,0,0,1,1-1.56,2.54,2.54,0,0,1,1.68-.6,2.64,2.64,0,0,1,2,.75,2.37,2.37,0,0,1,.69,1.89,4.2,4.2,0,0,1-.18,1L176.4,484.24a4.21,4.21,0,0,1-1.41,2,3.48,3.48,0,0,1-2.13.69,3.54,3.54,0,0,1-2.19-.75,3.73,3.73,0,0,1-1.35-1.95l-9.66-30.6L150,484.24a3.73,3.73,0,0,1-1.35,1.95,3.54,3.54,0,0,1-2.19.75A3.48,3.48,0,0,1,144.33,486.25Z"/><path d="M197.4,485.26a13.46,13.46,0,0,1-5.37-5.61A19.21,19.21,0,0,1,192,463a13.46,13.46,0,0,1,5.37-5.61,17.44,17.44,0,0,1,16.14,0,13.65,13.65,0,0,1,5.4,5.61,18.94,18.94,0,0,1,0,16.62,13.65,13.65,0,0,1-5.4,5.61,17.44,17.44,0,0,1-16.14,0Zm12.81-4.14a9.16,9.16,0,0,0,3.72-3.6,12,12,0,0,0,1.47-6.24,11.88,11.88,0,0,0-1.47-6.18,9,9,0,0,0-3.72-3.57,10.52,10.52,0,0,0-4.71-1.11,10.64,10.64,0,0,0-4.77,1.11A8.78,8.78,0,0,0,197,465.1a12.08,12.08,0,0,0-1.44,6.18,12.21,12.21,0,0,0,1.44,6.24,9,9,0,0,0,3.69,3.6,10.41,10.41,0,0,0,4.77,1.14A10.29,10.29,0,0,0,210.21,481.12Z"/><path d="M233.88,485.26a13.46,13.46,0,0,1-5.37-5.61,19.21,19.21,0,0,1,0-16.62,13.46,13.46,0,0,1,5.37-5.61,17.44,17.44,0,0,1,16.14,0,13.65,13.65,0,0,1,5.4,5.61,18.94,18.94,0,0,1,0,16.62,13.65,13.65,0,0,1-5.4,5.61,17.44,17.44,0,0,1-16.14,0Zm12.81-4.14a9.16,9.16,0,0,0,3.72-3.6,12,12,0,0,0,1.47-6.24,11.88,11.88,0,0,0-1.47-6.18,9,9,0,0,0-3.72-3.57,10.52,10.52,0,0,0-4.71-1.11,10.64,10.64,0,0,0-4.77,1.11,8.78,8.78,0,0,0-3.69,3.57,12.08,12.08,0,0,0-1.44,6.18,12.21,12.21,0,0,0,1.44,6.24,9,9,0,0,0,3.69,3.6,10.41,10.41,0,0,0,4.77,1.14A10.29,10.29,0,0,0,246.69,481.12Z"/><path d="M265.74,486.16a2.61,2.61,0,0,1-.78-1.92V445.3a2.71,2.71,0,0,1,.78-1.95,2.56,2.56,0,0,1,1.92-.81,2.77,2.77,0,0,1,2.76,2.76v24.54l14.28-13.2a2.76,2.76,0,0,1,1.8-.78,2.43,2.43,0,0,1,2,.78,2.87,2.87,0,0,1,.63,1.86,2.94,2.94,0,0,1-1,2l-8.64,7.74,10.86,14.4a2.63,2.63,0,0,1,.6,1.62,2.49,2.49,0,0,1-.78,1.92,2.81,2.81,0,0,1-2,.72,2.66,2.66,0,0,1-1.2-.3,3,3,0,0,1-1-.84l-10.32-14-5.22,4.74v7.74a2.56,2.56,0,0,1-.81,1.92,2.71,2.71,0,0,1-1.95.78A2.61,2.61,0,0,1,265.74,486.16Z"/><path d="M300,486.16A8.52,8.52,0,0,1,296.4,483a8.68,8.68,0,0,1-1.32-4.77,8.41,8.41,0,0,1,3.51-7.08q3.51-2.64,10.29-2.64h7.26V468q0-4-1.95-5.7t-6.09-1.74a20.45,20.45,0,0,0-4.05.36,34,34,0,0,0-3.93,1.08,3.37,3.37,0,0,1-.78.12,2.13,2.13,0,0,1-1.56-.66,2.2,2.2,0,0,1-.66-1.62,2.31,2.31,0,0,1,1.56-2.28,26.39,26.39,0,0,1,10.38-2.16,13.55,13.55,0,0,1,7,1.68,10.56,10.56,0,0,1,4.2,4.35,12.65,12.65,0,0,1,1.35,5.79v17a2.56,2.56,0,0,1-.81,1.92,2.71,2.71,0,0,1-2,.78,2.66,2.66,0,0,1-2.7-2.7v-1.56a15.07,15.07,0,0,1-11.28,4.56A11.15,11.15,0,0,1,300,486.16Zm12-5a14.18,14.18,0,0,0,4.14-3.21v-5H309.6q-9.06,0-9.06,4.74a4.45,4.45,0,0,0,1.47,3.48q1.47,1.32,4.89,1.32A10.85,10.85,0,0,0,312,481.15Z"/><path d="M353.34,486.22a3.66,3.66,0,0,1-1.32-1.8l-8.52-25a3.23,3.23,0,0,1-.18-1,2.66,2.66,0,0,1,2.7-2.7,2.74,2.74,0,0,1,1.53.45,2.21,2.21,0,0,1,.93,1.17l7,23.1,7-22.56a3.08,3.08,0,0,1,5.88,0l7,22.56,7-23.1a2.21,2.21,0,0,1,.93-1.17,2.74,2.74,0,0,1,1.53-.45,2.66,2.66,0,0,1,2.7,2.7,3.23,3.23,0,0,1-.18,1l-8.52,25a3.66,3.66,0,0,1-1.32,1.8,3.6,3.6,0,0,1-4.32,0,4,4,0,0,1-1.38-1.86L365.4,464.5,359,484.36a4,4,0,0,1-1.38,1.86,3.6,3.6,0,0,1-4.32,0Z"/><path d="M398.88,485.26a13.46,13.46,0,0,1-5.37-5.61,19.21,19.21,0,0,1,0-16.62,13.46,13.46,0,0,1,5.37-5.61,17.44,17.44,0,0,1,16.14,0,13.65,13.65,0,0,1,5.4,5.61,18.94,18.94,0,0,1,0,16.62,13.65,13.65,0,0,1-5.4,5.61,17.44,17.44,0,0,1-16.14,0Zm12.81-4.14a9.16,9.16,0,0,0,3.72-3.6,12,12,0,0,0,1.47-6.24,11.88,11.88,0,0,0-1.47-6.18,9,9,0,0,0-3.72-3.57,10.52,10.52,0,0,0-4.71-1.11,10.64,10.64,0,0,0-4.77,1.11,8.78,8.78,0,0,0-3.69,3.57,12.08,12.08,0,0,0-1.44,6.18,12.21,12.21,0,0,0,1.44,6.24,9,9,0,0,0,3.69,3.6,10.41,10.41,0,0,0,4.77,1.14A10.29,10.29,0,0,0,411.69,481.12Z"/><path d="M435.36,485.26a13.46,13.46,0,0,1-5.37-5.61A19.21,19.21,0,0,1,430,463a13.46,13.46,0,0,1,5.37-5.61,17.44,17.44,0,0,1,16.14,0,13.65,13.65,0,0,1,5.4,5.61,18.94,18.94,0,0,1,0,16.62,13.65,13.65,0,0,1-5.4,5.61,17.44,17.44,0,0,1-16.14,0Zm12.81-4.14a9.16,9.16,0,0,0,3.72-3.6,12,12,0,0,0,1.47-6.24,11.88,11.88,0,0,0-1.47-6.18,9,9,0,0,0-3.72-3.57,10.52,10.52,0,0,0-4.71-1.11,10.64,10.64,0,0,0-4.77,1.11A8.78,8.78,0,0,0,435,465.1a12.08,12.08,0,0,0-1.44,6.18,12.21,12.21,0,0,0,1.44,6.24,9,9,0,0,0,3.69,3.6,10.41,10.41,0,0,0,4.77,1.14A10.29,10.29,0,0,0,448.17,481.12Z"/><path d="M465,457.48a1.78,1.78,0,0,1-.51-1.26,1.67,1.67,0,0,1,.9-1.5,6.85,6.85,0,0,0,2.28-2.1,6.41,6.41,0,0,0,.78-3.48h-.24a3.38,3.38,0,0,1-3.36-3.36v-.36a3.38,3.38,0,0,1,3.36-3.36h.6a3.38,3.38,0,0,1,3.36,3.36V449a9.65,9.65,0,0,1-4.92,8.76,1.89,1.89,0,0,1-1,.3A1.63,1.63,0,0,1,465,457.48Zm10.86,0a1.78,1.78,0,0,1-.51-1.26,1.67,1.67,0,0,1,.9-1.5,6.85,6.85,0,0,0,2.28-2.1,6.41,6.41,0,0,0,.78-3.48h-.24a3.38,3.38,0,0,1-3.36-3.36v-.36a3.38,3.38,0,0,1,3.36-3.36h.6a3.38,3.38,0,0,1,3.36,3.36V449a9.65,9.65,0,0,1-4.92,8.76,1.71,1.71,0,0,1-1,.3A1.63,1.63,0,0,1,475.89,457.48Z"/><path d="M508.53,483.07q-4.11-4.17-4.11-11.73a19.56,19.56,0,0,1,1.56-7.86,13.36,13.36,0,0,1,4.8-5.82,13.79,13.79,0,0,1,8-2.22,14,14,0,0,1,7.68,2.07,13.39,13.39,0,0,1,4.92,5.52,17,17,0,0,1,1.68,7.53,2.62,2.62,0,0,1-2.76,2.7H509.94a9.87,9.87,0,0,0,3.12,6.54q2.64,2.34,7.38,2.34a18,18,0,0,0,4.41-.48,18.32,18.32,0,0,0,3.69-1.38,2.38,2.38,0,0,1,1.08-.24,2.41,2.41,0,0,1,1.68.66,2.18,2.18,0,0,1,.72,1.68,2.59,2.59,0,0,1-1.56,2.22,18.74,18.74,0,0,1-10.5,2.64Q512.64,487.24,508.53,483.07Zm19.11-14.25a9.61,9.61,0,0,0-1.53-4.92,8.26,8.26,0,0,0-3.33-2.91,9.15,9.15,0,0,0-8,0,8.06,8.06,0,0,0-3.3,2.91,9.79,9.79,0,0,0-1.5,4.92Z"/><path d="M546.42,485.32a14.78,14.78,0,0,1-5.85-5.52,17.44,17.44,0,0,1,0-16.92,14.78,14.78,0,0,1,5.85-5.52,16.92,16.92,0,0,1,8-1.92,16.63,16.63,0,0,1,5.49.81,20.74,20.74,0,0,1,4.29,2.07,2.39,2.39,0,0,1,.51,3.75,2.11,2.11,0,0,1-1.59.75,2.74,2.74,0,0,1-1.32-.36,22.85,22.85,0,0,0-3.39-1.47,11.7,11.7,0,0,0-3.51-.45,10.88,10.88,0,0,0-8.1,3,11.9,11.9,0,0,0,0,15.66,10.88,10.88,0,0,0,8.1,3,11.7,11.7,0,0,0,3.51-.45,22.85,22.85,0,0,0,3.39-1.47,2.74,2.74,0,0,1,1.32-.36,2.11,2.11,0,0,1,1.59.75,2.39,2.39,0,0,1-.51,3.75,20.74,20.74,0,0,1-4.29,2.07,16.63,16.63,0,0,1-5.49.81A16.92,16.92,0,0,1,546.42,485.32Z"/><path d="M573,486.16a2.61,2.61,0,0,1-.78-1.92V445.3a2.71,2.71,0,0,1,.78-1.95,2.56,2.56,0,0,1,1.92-.81,2.77,2.77,0,0,1,2.76,2.76V461a19.94,19.94,0,0,1,4.92-4,12.42,12.42,0,0,1,6.24-1.5,10.37,10.37,0,0,1,5.73,1.56,10.14,10.14,0,0,1,3.72,4.26,13.6,13.6,0,0,1,1.29,5.94v17a2.56,2.56,0,0,1-.81,1.92,2.71,2.71,0,0,1-1.95.78,2.66,2.66,0,0,1-2.7-2.7V467.8q0-7.32-6.6-7.32a9.55,9.55,0,0,0-5.37,1.56,19.44,19.44,0,0,0-4.47,4.2v18a2.56,2.56,0,0,1-.81,1.92,2.71,2.71,0,0,1-2,.78A2.61,2.61,0,0,1,573,486.16Z"/><path d="M614.16,485.26a13.46,13.46,0,0,1-5.37-5.61,19.21,19.21,0,0,1,0-16.62,13.46,13.46,0,0,1,5.37-5.61,17.44,17.44,0,0,1,16.14,0,13.65,13.65,0,0,1,5.4,5.61,18.94,18.94,0,0,1,0,16.62,13.65,13.65,0,0,1-5.4,5.61,17.44,17.44,0,0,1-16.14,0ZM627,481.12a9.16,9.16,0,0,0,3.72-3.6,12,12,0,0,0,1.47-6.24,11.88,11.88,0,0,0-1.47-6.18,9,9,0,0,0-3.72-3.57,10.52,10.52,0,0,0-4.71-1.11,10.64,10.64,0,0,0-4.77,1.11,8.78,8.78,0,0,0-3.69,3.57,12.08,12.08,0,0,0-1.44,6.18,12.21,12.21,0,0,0,1.44,6.24,9,9,0,0,0,3.69,3.6,10.41,10.41,0,0,0,4.77,1.14A10.29,10.29,0,0,0,627,481.12Z"/><path d="M647.49,483.07q-4.11-4.17-4.11-11.73a19.56,19.56,0,0,1,1.56-7.86,13.36,13.36,0,0,1,4.8-5.82,13.79,13.79,0,0,1,8-2.22,14,14,0,0,1,7.68,2.07,13.39,13.39,0,0,1,4.92,5.52,17,17,0,0,1,1.68,7.53,2.62,2.62,0,0,1-2.76,2.7H648.9A9.87,9.87,0,0,0,652,479.8q2.64,2.34,7.38,2.34a18,18,0,0,0,4.41-.48,18.32,18.32,0,0,0,3.69-1.38,2.38,2.38,0,0,1,1.08-.24,2.41,2.41,0,0,1,1.68.66,2.18,2.18,0,0,1,.72,1.68,2.59,2.59,0,0,1-1.56,2.22,18.74,18.74,0,0,1-10.5,2.64Q651.6,487.24,647.49,483.07Zm19.11-14.25a9.61,9.61,0,0,0-1.53-4.92,8.26,8.26,0,0,0-3.33-2.91,9.15,9.15,0,0,0-8,0,8.06,8.06,0,0,0-3.3,2.91,9.79,9.79,0,0,0-1.5,4.92Z"/><path d="M678.18,484.54a2.29,2.29,0,0,1-1-2,2.41,2.41,0,0,1,.66-1.68,2.18,2.18,0,0,1,1.68-.72,2.64,2.64,0,0,1,1.08.24,24.25,24.25,0,0,0,3.84,1.32,17.85,17.85,0,0,0,4.32.48q6.66,0,6.66-4.26a2.27,2.27,0,0,0-1.53-2.1,31.33,31.33,0,0,0-5-1.62,45.27,45.27,0,0,1-5.85-1.74,10.29,10.29,0,0,1-4-2.73,6.94,6.94,0,0,1-1.65-4.83,8.65,8.65,0,0,1,3-6.84q3-2.64,8.67-2.64a25,25,0,0,1,8.7,1.5,2.25,2.25,0,0,1,1.29.9,2.41,2.41,0,0,1,.45,1.38,2.35,2.35,0,0,1-.69,1.68,2.27,2.27,0,0,1-1.71.72,3.37,3.37,0,0,1-.78-.12,23,23,0,0,0-6.84-1.08,9.37,9.37,0,0,0-5.07,1.17,3.49,3.49,0,0,0-1.83,3,2.77,2.77,0,0,0,1.68,2.64,24,24,0,0,0,5.22,1.62,50,50,0,0,1,5.76,1.77,9.52,9.52,0,0,1,3.81,2.73,7.41,7.41,0,0,1,1.59,5,7.93,7.93,0,0,1-3,6.36q-3,2.52-8.55,2.52A22.32,22.32,0,0,1,678.18,484.54Z"/><path d="M109.62,551.32v-18.6h-4.26a1.13,1.13,0,0,1-1.13-1.14,1.23,1.23,0,0,1,.54-1l8.15-8a1.53,1.53,0,0,1,1-.54,1.06,1.06,0,0,1,.81.36,1.2,1.2,0,0,1,.33.84V528h6.78a2.27,2.27,0,0,1,2.35,2.34,2.31,2.31,0,0,1-.67,1.65,2.22,2.22,0,0,1-1.68.69h-6.78v18.12q0,2.34,1.11,3a5.59,5.59,0,0,0,2.79.63,8.32,8.32,0,0,0,2.4-.36l.52-.12a3.17,3.17,0,0,1,.68-.06,2.11,2.11,0,0,1,1.5.63,2,2,0,0,1,.67,1.53,2.28,2.28,0,0,1-1.39,2.1,11.71,11.71,0,0,1-5,1.08Q109.62,559.24,109.62,551.32Z"/><path d="M131.52,558.16a2.61,2.61,0,0,1-.78-1.92V517.3a2.71,2.71,0,0,1,.78-1.95,2.56,2.56,0,0,1,1.92-.81,2.77,2.77,0,0,1,2.76,2.76V533a19.94,19.94,0,0,1,4.92-4,12.42,12.42,0,0,1,6.24-1.5,10.37,10.37,0,0,1,5.73,1.56,10.14,10.14,0,0,1,3.72,4.26,13.6,13.6,0,0,1,1.29,5.94v17a2.56,2.56,0,0,1-.81,1.92,2.71,2.71,0,0,1-1.95.78,2.66,2.66,0,0,1-2.7-2.7V539.8q0-7.32-6.6-7.32a9.55,9.55,0,0,0-5.37,1.56,19.44,19.44,0,0,0-4.47,4.2v18a2.56,2.56,0,0,1-.81,1.92,2.71,2.71,0,0,1-1.95.78A2.61,2.61,0,0,1,131.52,558.16Z"/><path d="M168.06,558.16a2.61,2.61,0,0,1-.78-1.92V530.5a2.71,2.71,0,0,1,.78-2,2.56,2.56,0,0,1,1.92-.81,2.77,2.77,0,0,1,2.76,2.76v2.58q4.2-5.64,9.42-5.64h.3a2.51,2.51,0,0,1,1.89.78,2.66,2.66,0,0,1,.75,1.92,2.42,2.42,0,0,1-.78,1.86,2.81,2.81,0,0,1-2,.72H182a10.23,10.23,0,0,0-5.28,1.41,12.16,12.16,0,0,0-4,3.87v18.24a2.56,2.56,0,0,1-.81,1.92,2.71,2.71,0,0,1-2,.78A2.61,2.61,0,0,1,168.06,558.16Z"/><path d="M194.76,557.26a13.46,13.46,0,0,1-5.37-5.61,19.21,19.21,0,0,1,0-16.62,13.46,13.46,0,0,1,5.37-5.61,17.44,17.44,0,0,1,16.14,0,13.65,13.65,0,0,1,5.4,5.61,18.94,18.94,0,0,1,0,16.62,13.65,13.65,0,0,1-5.4,5.61,17.44,17.44,0,0,1-16.14,0Zm12.81-4.14a9.16,9.16,0,0,0,3.72-3.6,12,12,0,0,0,1.47-6.24,11.88,11.88,0,0,0-1.47-6.18,9,9,0,0,0-3.72-3.57,10.52,10.52,0,0,0-4.71-1.11,10.64,10.64,0,0,0-4.77,1.11,8.78,8.78,0,0,0-3.69,3.57,12.08,12.08,0,0,0-1.44,6.18,12.21,12.21,0,0,0,1.44,6.24,9,9,0,0,0,3.69,3.6,10.41,10.41,0,0,0,4.77,1.14A10.29,10.29,0,0,0,207.57,553.12Z"/><path d="M230.55,557.68a10.14,10.14,0,0,1-3.72-4.26,13.6,13.6,0,0,1-1.29-5.94v-17a2.56,2.56,0,0,1,.81-1.92,2.71,2.71,0,0,1,2-.78,2.66,2.66,0,0,1,2.7,2.7v16.44q0,7.32,6.6,7.32a9.55,9.55,0,0,0,5.37-1.56,19.44,19.44,0,0,0,4.47-4.2v-18a2.56,2.56,0,0,1,.81-1.92,2.71,2.71,0,0,1,1.95-.78,2.66,2.66,0,0,1,2.7,2.7v25.74a2.71,2.71,0,0,1-.78,2,2.56,2.56,0,0,1-1.92.81,2.77,2.77,0,0,1-2.76-2.76v-2.46a19.94,19.94,0,0,1-4.92,4,12.42,12.42,0,0,1-6.24,1.5A10.37,10.37,0,0,1,230.55,557.68Z"/><path d="M269.64,572.14a23,23,0,0,1-5.82-2.22,2.28,2.28,0,0,1-1.08-2.1,2.46,2.46,0,0,1,.69-1.71,2.23,2.23,0,0,1,1.71-.75,3,3,0,0,1,1.08.24,21.83,21.83,0,0,0,9.9,2.28q9.18,0,9.18-9.78v-4A13.54,13.54,0,0,1,275,558.64a14.46,14.46,0,0,1-6.87-1.77,14.3,14.3,0,0,1-5.49-5.28,18,18,0,0,1,0-17.1,14.3,14.3,0,0,1,5.49-5.28,14.46,14.46,0,0,1,6.87-1.77A13.54,13.54,0,0,1,285.3,532v-1.5a2.71,2.71,0,0,1,.78-2,2.56,2.56,0,0,1,1.92-.81,2.77,2.77,0,0,1,2.76,2.76v26.82q0,7.56-3.66,11.64T276.66,573A28.4,28.4,0,0,1,269.64,572.14Zm11.52-19.68a18,18,0,0,0,4.14-3.24V536.86a18,18,0,0,0-4.14-3.24,10.08,10.08,0,0,0-5-1.2,10.19,10.19,0,0,0-7.35,2.73Q266,537.88,266,543t2.85,7.89a10.19,10.19,0,0,0,7.35,2.73A10.08,10.08,0,0,0,281.16,552.46Z"/><path d="M301,558.16a2.61,2.61,0,0,1-.78-1.92V517.3a2.71,2.71,0,0,1,.78-1.95,2.56,2.56,0,0,1,1.92-.81,2.77,2.77,0,0,1,2.76,2.76V533a19.94,19.94,0,0,1,4.92-4,12.42,12.42,0,0,1,6.24-1.5,10.37,10.37,0,0,1,5.73,1.56,10.14,10.14,0,0,1,3.72,4.26,13.6,13.6,0,0,1,1.29,5.94v17a2.56,2.56,0,0,1-.81,1.92,2.71,2.71,0,0,1-2,.78,2.66,2.66,0,0,1-2.7-2.7V539.8q0-7.32-6.6-7.32a9.55,9.55,0,0,0-5.37,1.56,19.44,19.44,0,0,0-4.47,4.2v18a2.56,2.56,0,0,1-.81,1.92,2.71,2.71,0,0,1-1.95.78A2.61,2.61,0,0,1,301,558.16Z"/><path d="M354.18,551.32v-18.6h-4.26a1.13,1.13,0,0,1-1.14-1.14,1.25,1.25,0,0,1,.54-1l8.16-8a1.51,1.51,0,0,1,1-.54,1.06,1.06,0,0,1,.81.36,1.2,1.2,0,0,1,.33.84V528h6.78a2.26,2.26,0,0,1,2.34,2.34,2.3,2.3,0,0,1-.66,1.65,2.22,2.22,0,0,1-1.68.69h-6.78v18.12q0,2.34,1.11,3a5.59,5.59,0,0,0,2.79.63,8.32,8.32,0,0,0,2.4-.36l.51-.12a3.27,3.27,0,0,1,.69-.06,2.11,2.11,0,0,1,1.5.63,2,2,0,0,1,.66,1.53,2.27,2.27,0,0,1-1.38,2.1,11.74,11.74,0,0,1-5,1.08Q354.18,559.24,354.18,551.32Z"/><path d="M376.08,558.16a2.61,2.61,0,0,1-.78-1.92V517.3a2.71,2.71,0,0,1,.78-1.95,2.56,2.56,0,0,1,1.92-.81,2.77,2.77,0,0,1,2.76,2.76V533a19.94,19.94,0,0,1,4.92-4,12.42,12.42,0,0,1,6.24-1.5,10.37,10.37,0,0,1,5.73,1.56,10.14,10.14,0,0,1,3.72,4.26,13.6,13.6,0,0,1,1.29,5.94v17a2.56,2.56,0,0,1-.81,1.92,2.71,2.71,0,0,1-2,.78,2.66,2.66,0,0,1-2.7-2.7V539.8q0-7.32-6.6-7.32a9.55,9.55,0,0,0-5.37,1.56,19.44,19.44,0,0,0-4.47,4.2v18a2.56,2.56,0,0,1-.81,1.92,2.71,2.71,0,0,1-1.95.78A2.61,2.61,0,0,1,376.08,558.16Z"/><path d="M414.09,555.07Q410,550.9,410,543.34a19.56,19.56,0,0,1,1.56-7.86,13.36,13.36,0,0,1,4.8-5.82,13.79,13.79,0,0,1,8-2.22,14,14,0,0,1,7.68,2.07,13.39,13.39,0,0,1,4.92,5.52,17,17,0,0,1,1.68,7.53,2.62,2.62,0,0,1-2.76,2.7H415.5a9.87,9.87,0,0,0,3.12,6.54q2.64,2.34,7.38,2.34a18,18,0,0,0,4.41-.48,18.32,18.32,0,0,0,3.69-1.38,2.38,2.38,0,0,1,1.08-.24,2.41,2.41,0,0,1,1.68.66,2.18,2.18,0,0,1,.72,1.68A2.59,2.59,0,0,1,436,556.6a18.74,18.74,0,0,1-10.5,2.64Q418.2,559.24,414.09,555.07Zm19.11-14.25a9.61,9.61,0,0,0-1.53-4.92,8.26,8.26,0,0,0-3.33-2.91,9.15,9.15,0,0,0-8,0,8.06,8.06,0,0,0-3.3,2.91,9.79,9.79,0,0,0-1.5,4.92Z"/><path d="M462.18,558.16a2.61,2.61,0,0,1-.78-1.92V517.3a2.71,2.71,0,0,1,.78-1.95,2.56,2.56,0,0,1,1.92-.81,2.77,2.77,0,0,1,2.76,2.76V533a19.94,19.94,0,0,1,4.92-4,12.42,12.42,0,0,1,6.24-1.5,10.37,10.37,0,0,1,5.73,1.56,10.14,10.14,0,0,1,3.72,4.26,13.6,13.6,0,0,1,1.29,5.94v17a2.56,2.56,0,0,1-.81,1.92,2.71,2.71,0,0,1-1.95.78,2.66,2.66,0,0,1-2.7-2.7V539.8q0-7.32-6.6-7.32a9.55,9.55,0,0,0-5.37,1.56,19.44,19.44,0,0,0-4.47,4.2v18a2.56,2.56,0,0,1-.81,1.92,2.71,2.71,0,0,1-1.95.78A2.61,2.61,0,0,1,462.18,558.16Z"/><path d="M498.36,520.9a3,3,0,0,1-.9-2.16v-.24a3.07,3.07,0,0,1,3.06-3.06h.36a3.07,3.07,0,0,1,3.06,3.06v.24a3.07,3.07,0,0,1-3.06,3.06h-.36A3,3,0,0,1,498.36,520.9Zm.36,37.26a2.61,2.61,0,0,1-.78-1.92V530.5a2.71,2.71,0,0,1,.78-2,2.56,2.56,0,0,1,1.92-.81,2.67,2.67,0,0,1,2.76,2.76v25.74a2.56,2.56,0,0,1-.81,1.92,2.71,2.71,0,0,1-1.95.78A2.61,2.61,0,0,1,498.72,558.16Z"/><path d="M513.66,558.16a2.61,2.61,0,0,1-.78-1.92V517.3a2.71,2.71,0,0,1,.78-1.95,2.56,2.56,0,0,1,1.92-.81,2.67,2.67,0,0,1,2.76,2.76v38.94a2.56,2.56,0,0,1-.81,1.92,2.71,2.71,0,0,1-1.95.78A2.61,2.61,0,0,1,513.66,558.16Z"/><path d="M528.6,558.16a2.61,2.61,0,0,1-.78-1.92V517.3a2.71,2.71,0,0,1,.78-1.95,2.56,2.56,0,0,1,1.92-.81,2.67,2.67,0,0,1,2.76,2.76v38.94a2.56,2.56,0,0,1-.81,1.92,2.71,2.71,0,0,1-2,.78A2.61,2.61,0,0,1,528.6,558.16Z"/><path d="M541.74,556.54a2.29,2.29,0,0,1-1-2,2.41,2.41,0,0,1,.66-1.68,2.18,2.18,0,0,1,1.68-.72,2.64,2.64,0,0,1,1.08.24,24.25,24.25,0,0,0,3.84,1.32,17.85,17.85,0,0,0,4.32.48q6.66,0,6.66-4.26a2.27,2.27,0,0,0-1.53-2.1,31.33,31.33,0,0,0-5-1.62,45.27,45.27,0,0,1-5.85-1.74,10.29,10.29,0,0,1-4-2.73,6.94,6.94,0,0,1-1.65-4.83,8.65,8.65,0,0,1,3-6.84q3-2.64,8.67-2.64a25,25,0,0,1,8.7,1.5,2.25,2.25,0,0,1,1.29.9,2.41,2.41,0,0,1,.45,1.38,2.35,2.35,0,0,1-.69,1.68,2.27,2.27,0,0,1-1.71.72,3.37,3.37,0,0,1-.78-.12,23,23,0,0,0-6.84-1.08,9.37,9.37,0,0,0-5.07,1.17,3.49,3.49,0,0,0-1.83,3,2.77,2.77,0,0,0,1.68,2.64,24,24,0,0,0,5.22,1.62,50,50,0,0,1,5.76,1.77,9.52,9.52,0,0,1,3.81,2.73,7.41,7.41,0,0,1,1.59,5,7.93,7.93,0,0,1-3,6.36q-3,2.52-8.55,2.52A22.32,22.32,0,0,1,541.74,556.54Z"/><path d="M110.73,630.16a8.43,8.43,0,0,1-3.56-3.15,8.6,8.6,0,0,1-1.33-4.77,8.43,8.43,0,0,1,3.51-7.08q3.51-2.64,10.3-2.64h7.25V612q0-4-1.94-5.7t-6.1-1.74a20.45,20.45,0,0,0-4,.36,34.54,34.54,0,0,0-3.93,1.08,3.37,3.37,0,0,1-.78.12,2.13,2.13,0,0,1-1.56-.66,2.2,2.2,0,0,1-.66-1.62,2.31,2.31,0,0,1,1.56-2.28,26.4,26.4,0,0,1,10.39-2.16,13.54,13.54,0,0,1,7,1.68,10.65,10.65,0,0,1,4.21,4.35,12.64,12.64,0,0,1,1.34,5.79v17a2.59,2.59,0,0,1-.8,1.92,2.73,2.73,0,0,1-2,.78,2.68,2.68,0,0,1-2.7-2.7v-1.56a15.06,15.06,0,0,1-11.28,4.56A11.15,11.15,0,0,1,110.73,630.16Zm12-5a14.26,14.26,0,0,0,4.13-3.21v-5h-6.54q-9.06,0-9,4.74a4.44,4.44,0,0,0,1.46,3.48q1.47,1.32,4.9,1.32A10.91,10.91,0,0,0,122.77,625.15Z"/><path d="M140.52,628.54a2.29,2.29,0,0,1-1-2,2.41,2.41,0,0,1,.66-1.68,2.18,2.18,0,0,1,1.68-.72,2.64,2.64,0,0,1,1.08.24,24.25,24.25,0,0,0,3.84,1.32,17.85,17.85,0,0,0,4.32.48q6.66,0,6.66-4.26a2.27,2.27,0,0,0-1.53-2.1,31.33,31.33,0,0,0-5-1.62,45.27,45.27,0,0,1-5.85-1.74,10.29,10.29,0,0,1-4-2.73,6.94,6.94,0,0,1-1.65-4.83,8.65,8.65,0,0,1,3-6.84q3-2.64,8.67-2.64a25,25,0,0,1,8.7,1.5,2.25,2.25,0,0,1,1.29.9,2.41,2.41,0,0,1,.45,1.38,2.35,2.35,0,0,1-.69,1.68,2.27,2.27,0,0,1-1.71.72,3.37,3.37,0,0,1-.78-.12,23,23,0,0,0-6.84-1.08,9.37,9.37,0,0,0-5.07,1.17,3.49,3.49,0,0,0-1.83,3,2.77,2.77,0,0,0,1.68,2.64,24,24,0,0,0,5.22,1.62,50,50,0,0,1,5.76,1.77,9.52,9.52,0,0,1,3.81,2.73,7.41,7.41,0,0,1,1.59,5,7.93,7.93,0,0,1-3,6.36q-3,2.52-8.55,2.52A22.32,22.32,0,0,1,140.52,628.54Z"/><path d="M187.74,623.32v-18.6h-4.26a1.13,1.13,0,0,1-1.14-1.14,1.25,1.25,0,0,1,.54-1l8.16-8a1.51,1.51,0,0,1,1-.54,1.06,1.06,0,0,1,.81.36,1.2,1.2,0,0,1,.33.84V600H200a2.26,2.26,0,0,1,2.34,2.34,2.3,2.3,0,0,1-.66,1.65,2.22,2.22,0,0,1-1.68.69H193.2v18.12q0,2.34,1.11,3a5.59,5.59,0,0,0,2.79.63,8.32,8.32,0,0,0,2.4-.36L200,626a3.27,3.27,0,0,1,.69-.06,2.11,2.11,0,0,1,1.5.63,2,2,0,0,1,.66,1.53,2.27,2.27,0,0,1-1.38,2.1,11.74,11.74,0,0,1-5,1.08Q187.74,631.24,187.74,623.32Z"/><path d="M209.64,630.16a2.61,2.61,0,0,1-.78-1.92V589.3a2.71,2.71,0,0,1,.78-1.95,2.56,2.56,0,0,1,1.92-.81,2.77,2.77,0,0,1,2.76,2.76V605a19.94,19.94,0,0,1,4.92-4,12.42,12.42,0,0,1,6.24-1.5,10.37,10.37,0,0,1,5.73,1.56,10.14,10.14,0,0,1,3.72,4.26,13.6,13.6,0,0,1,1.29,5.94v17a2.56,2.56,0,0,1-.81,1.92,2.71,2.71,0,0,1-1.95.78,2.66,2.66,0,0,1-2.7-2.7V611.8q0-7.32-6.6-7.32a9.55,9.55,0,0,0-5.37,1.56,19.44,19.44,0,0,0-4.47,4.2v18a2.56,2.56,0,0,1-.81,1.92,2.71,2.71,0,0,1-1.95.78A2.61,2.61,0,0,1,209.64,630.16Z"/><path d="M247.65,627.07q-4.11-4.17-4.11-11.73a19.56,19.56,0,0,1,1.56-7.86,13.36,13.36,0,0,1,4.8-5.82,13.79,13.79,0,0,1,8-2.22,14,14,0,0,1,7.68,2.07,13.39,13.39,0,0,1,4.92,5.52,17,17,0,0,1,1.68,7.53,2.62,2.62,0,0,1-2.76,2.7H249.06a9.87,9.87,0,0,0,3.12,6.54q2.64,2.34,7.38,2.34a18,18,0,0,0,4.41-.48,18.32,18.32,0,0,0,3.69-1.38,2.38,2.38,0,0,1,1.08-.24,2.41,2.41,0,0,1,1.68.66,2.18,2.18,0,0,1,.72,1.68,2.59,2.59,0,0,1-1.56,2.22,18.74,18.74,0,0,1-10.5,2.64Q251.76,631.24,247.65,627.07Zm19.11-14.25a9.61,9.61,0,0,0-1.53-4.92A8.26,8.26,0,0,0,261.9,605a9.15,9.15,0,0,0-8,0,8.06,8.06,0,0,0-3.3,2.91,9.79,9.79,0,0,0-1.5,4.92Z"/><path d="M303.84,630.31a3.75,3.75,0,0,1-1.32-1.59l-10.44-25a3.36,3.36,0,0,1-.3-1.26,2.71,2.71,0,0,1,.78-2,2.56,2.56,0,0,1,1.92-.81,2.81,2.81,0,0,1,2.46,1.56l9.18,23.28,9.18-23.28a2.81,2.81,0,0,1,2.46-1.56,2.56,2.56,0,0,1,1.92.81,2.71,2.71,0,0,1,.78,2,3.36,3.36,0,0,1-.3,1.26l-10.44,25a3.75,3.75,0,0,1-1.32,1.59,3.38,3.38,0,0,1-2,.63h-.6A3.38,3.38,0,0,1,303.84,630.31Z"/><path d="M327.18,592.9a3,3,0,0,1-.9-2.16v-.24a3.07,3.07,0,0,1,3.06-3.06h.36a3.07,3.07,0,0,1,3.06,3.06v.24a3.07,3.07,0,0,1-3.06,3.06h-.36A3,3,0,0,1,327.18,592.9Zm.36,37.26a2.61,2.61,0,0,1-.78-1.92V602.5a2.71,2.71,0,0,1,.78-2,2.56,2.56,0,0,1,1.92-.81,2.67,2.67,0,0,1,2.76,2.76v25.74a2.56,2.56,0,0,1-.81,1.92,2.71,2.71,0,0,1-2,.78A2.61,2.61,0,0,1,327.54,630.16Z"/><path d="M342.48,630.16a2.61,2.61,0,0,1-.78-1.92V589.3a2.71,2.71,0,0,1,.78-1.95,2.56,2.56,0,0,1,1.92-.81,2.67,2.67,0,0,1,2.76,2.76v38.94a2.56,2.56,0,0,1-.81,1.92,2.71,2.71,0,0,1-2,.78A2.61,2.61,0,0,1,342.48,630.16Z"/><path d="M357.42,630.16a2.61,2.61,0,0,1-.78-1.92V589.3a2.71,2.71,0,0,1,.78-1.95,2.56,2.56,0,0,1,1.92-.81,2.67,2.67,0,0,1,2.76,2.76v38.94a2.56,2.56,0,0,1-.81,1.92,2.71,2.71,0,0,1-2,.78A2.61,2.61,0,0,1,357.42,630.16Z"/><path d="M374.49,630.16a8.52,8.52,0,0,1-3.57-3.15,8.68,8.68,0,0,1-1.32-4.77,8.41,8.41,0,0,1,3.51-7.08q3.51-2.64,10.29-2.64h7.26V612q0-4-2-5.7t-6.09-1.74a20.45,20.45,0,0,0-4.05.36,34,34,0,0,0-3.93,1.08,3.37,3.37,0,0,1-.78.12,2.13,2.13,0,0,1-1.56-.66,2.2,2.2,0,0,1-.66-1.62,2.31,2.31,0,0,1,1.56-2.28,26.39,26.39,0,0,1,10.38-2.16,13.55,13.55,0,0,1,7,1.68,10.56,10.56,0,0,1,4.2,4.35,12.65,12.65,0,0,1,1.35,5.79v17a2.56,2.56,0,0,1-.81,1.92,2.71,2.71,0,0,1-1.95.78,2.66,2.66,0,0,1-2.7-2.7v-1.56a15.07,15.07,0,0,1-11.28,4.56A11.15,11.15,0,0,1,374.49,630.16Zm12-5a14.18,14.18,0,0,0,4.14-3.21v-5h-6.54q-9.06,0-9.06,4.74a4.45,4.45,0,0,0,1.47,3.48q1.47,1.32,4.89,1.32A10.85,10.85,0,0,0,386.52,625.15Z"/><path d="M412.56,644.14a23,23,0,0,1-5.82-2.22,2.28,2.28,0,0,1-1.08-2.1,2.46,2.46,0,0,1,.69-1.71,2.23,2.23,0,0,1,1.71-.75,3,3,0,0,1,1.08.24,21.83,21.83,0,0,0,9.9,2.28q9.18,0,9.18-9.78v-4A13.54,13.54,0,0,1,418,630.64a14.46,14.46,0,0,1-6.87-1.77,14.3,14.3,0,0,1-5.49-5.28,18,18,0,0,1,0-17.1,14.3,14.3,0,0,1,5.49-5.28,14.46,14.46,0,0,1,6.87-1.77A13.54,13.54,0,0,1,428.22,604v-1.5a2.71,2.71,0,0,1,.78-2,2.56,2.56,0,0,1,1.92-.81,2.77,2.77,0,0,1,2.76,2.76v26.82q0,7.56-3.66,11.64T419.58,645A28.4,28.4,0,0,1,412.56,644.14Zm11.52-19.68a18,18,0,0,0,4.14-3.24V608.86a18,18,0,0,0-4.14-3.24,10.08,10.08,0,0,0-5-1.2,10.19,10.19,0,0,0-7.35,2.73q-2.85,2.73-2.85,7.89t2.85,7.89a10.19,10.19,0,0,0,7.35,2.73A10.08,10.08,0,0,0,424.08,624.46Z"/><path d="M445.41,627.07q-4.11-4.17-4.11-11.73a19.56,19.56,0,0,1,1.56-7.86,13.36,13.36,0,0,1,4.8-5.82,13.79,13.79,0,0,1,8-2.22,14,14,0,0,1,7.68,2.07,13.39,13.39,0,0,1,4.92,5.52,17,17,0,0,1,1.68,7.53,2.62,2.62,0,0,1-2.76,2.7H446.82a9.87,9.87,0,0,0,3.12,6.54q2.64,2.34,7.38,2.34a18,18,0,0,0,4.41-.48,18.32,18.32,0,0,0,3.69-1.38,2.38,2.38,0,0,1,1.08-.24,2.41,2.41,0,0,1,1.68.66,2.18,2.18,0,0,1,.72,1.68,2.59,2.59,0,0,1-1.56,2.22,18.74,18.74,0,0,1-10.5,2.64Q449.52,631.24,445.41,627.07Zm19.11-14.25A9.61,9.61,0,0,0,463,607.9a8.26,8.26,0,0,0-3.33-2.91,9.15,9.15,0,0,0-8,0,8.06,8.06,0,0,0-3.3,2.91,9.79,9.79,0,0,0-1.5,4.92Z"/><path d="M477.9,630.16a2.61,2.61,0,0,1-.78-1.92V602.5a2.71,2.71,0,0,1,.78-2,2.56,2.56,0,0,1,1.92-.81,2.77,2.77,0,0,1,2.76,2.76v2.58q4.2-5.64,9.42-5.64h.3a2.51,2.51,0,0,1,1.89.78,2.66,2.66,0,0,1,.75,1.92,2.42,2.42,0,0,1-.78,1.86,2.81,2.81,0,0,1-2,.72h-.3a10.23,10.23,0,0,0-5.28,1.41,12.16,12.16,0,0,0-4,3.87v18.24a2.56,2.56,0,0,1-.81,1.92,2.71,2.71,0,0,1-1.95.78A2.61,2.61,0,0,1,477.9,630.16Z"/><path d="M499.08,628.54a2.29,2.29,0,0,1-1-2,2.41,2.41,0,0,1,.66-1.68,2.18,2.18,0,0,1,1.68-.72,2.64,2.64,0,0,1,1.08.24,24.25,24.25,0,0,0,3.84,1.32,17.85,17.85,0,0,0,4.32.48q6.66,0,6.66-4.26a2.27,2.27,0,0,0-1.53-2.1,31.33,31.33,0,0,0-5-1.62,45.27,45.27,0,0,1-5.85-1.74,10.29,10.29,0,0,1-4-2.73,6.94,6.94,0,0,1-1.65-4.83,8.65,8.65,0,0,1,3-6.84q3-2.64,8.67-2.64a25,25,0,0,1,8.7,1.5,2.25,2.25,0,0,1,1.29.9,2.41,2.41,0,0,1,.45,1.38,2.35,2.35,0,0,1-.69,1.68,2.27,2.27,0,0,1-1.71.72,3.37,3.37,0,0,1-.78-.12,23,23,0,0,0-6.84-1.08,9.37,9.37,0,0,0-5.07,1.17,3.49,3.49,0,0,0-1.83,3,2.77,2.77,0,0,0,1.68,2.64,24,24,0,0,0,5.22,1.62,50,50,0,0,1,5.76,1.77,9.52,9.52,0,0,1,3.81,2.73,7.41,7.41,0,0,1,1.59,5,7.93,7.93,0,0,1-3,6.36q-3,2.52-8.55,2.52A22.32,22.32,0,0,1,499.08,628.54Z"/><path d="M108.6,702.16a2.6,2.6,0,0,1-.77-1.92V661.3a2.7,2.7,0,0,1,.77-1.95,2.56,2.56,0,0,1,1.92-.81,2.77,2.77,0,0,1,2.77,2.76V677a19.59,19.59,0,0,1,4.92-4,12.36,12.36,0,0,1,6.23-1.5,10.35,10.35,0,0,1,5.73,1.56,10.23,10.23,0,0,1,3.73,4.26,13.74,13.74,0,0,1,1.29,5.94v17a2.56,2.56,0,0,1-.81,1.92,2.75,2.75,0,0,1-2,.78,2.65,2.65,0,0,1-2.69-2.7V683.8q0-7.32-6.61-7.32a9.55,9.55,0,0,0-5.37,1.56,19.2,19.2,0,0,0-4.46,4.2v18a2.56,2.56,0,0,1-.81,1.92,2.73,2.73,0,0,1-2,.78A2.61,2.61,0,0,1,108.6,702.16Z"/><path d="M144.78,664.9a3,3,0,0,1-.9-2.16v-.24a3.07,3.07,0,0,1,3.06-3.06h.36a3.07,3.07,0,0,1,3.06,3.06v.24a3.07,3.07,0,0,1-3.06,3.06h-.36A3,3,0,0,1,144.78,664.9Zm.36,37.26a2.61,2.61,0,0,1-.78-1.92V674.5a2.71,2.71,0,0,1,.78-2,2.56,2.56,0,0,1,1.92-.81,2.67,2.67,0,0,1,2.76,2.76v25.74a2.56,2.56,0,0,1-.81,1.92,2.71,2.71,0,0,1-1.95.78A2.61,2.61,0,0,1,145.14,702.16Z"/><path d="M164.91,701.35a14.34,14.34,0,0,1-5.4-5.52,18.45,18.45,0,0,1,0-17,14.34,14.34,0,0,1,5.4-5.52,14.07,14.07,0,0,1,7.05-1.89A13.79,13.79,0,0,1,182.22,676V661.3a2.63,2.63,0,0,1,.81-2,2.71,2.71,0,0,1,1.95-.78,2.56,2.56,0,0,1,1.92.81,2.71,2.71,0,0,1,.78,1.95v38.94a2.66,2.66,0,0,1-2.7,2.7,2.71,2.71,0,0,1-1.95-.78,2.56,2.56,0,0,1-.81-1.92v-1.56A13.79,13.79,0,0,1,172,703.24,14.07,14.07,0,0,1,164.91,701.35Zm13-4.44a14.82,14.82,0,0,0,4.29-3.27V681a14.82,14.82,0,0,0-4.29-3.27,11.33,11.33,0,0,0-5.19-1.23,9.43,9.43,0,0,0-7.14,2.82q-2.7,2.82-2.7,8t2.7,8a9.43,9.43,0,0,0,7.14,2.82A11.33,11.33,0,0,0,177.93,696.91Z"/><path d="M199.41,699.07q-4.11-4.17-4.11-11.73a19.56,19.56,0,0,1,1.56-7.86,13.36,13.36,0,0,1,4.8-5.82,13.79,13.79,0,0,1,8-2.22,14,14,0,0,1,7.68,2.07,13.39,13.39,0,0,1,4.92,5.52,17,17,0,0,1,1.68,7.53,2.62,2.62,0,0,1-2.76,2.7H200.82a9.87,9.87,0,0,0,3.12,6.54q2.64,2.34,7.38,2.34a18,18,0,0,0,4.41-.48,18.32,18.32,0,0,0,3.69-1.38,2.38,2.38,0,0,1,1.08-.24,2.41,2.41,0,0,1,1.68.66,2.18,2.18,0,0,1,.72,1.68,2.59,2.59,0,0,1-1.56,2.22,18.74,18.74,0,0,1-10.5,2.64Q203.52,703.24,199.41,699.07Zm19.11-14.25A9.61,9.61,0,0,0,217,679.9a8.26,8.26,0,0,0-3.33-2.91,9.15,9.15,0,0,0-8,0,8.06,8.06,0,0,0-3.3,2.91,9.79,9.79,0,0,0-1.5,4.92Z"/><path d="M248.52,695.32v-18.6h-4.26a1.13,1.13,0,0,1-1.14-1.14,1.25,1.25,0,0,1,.54-1l8.16-8a1.51,1.51,0,0,1,1-.54,1.06,1.06,0,0,1,.81.36,1.2,1.2,0,0,1,.33.84V672h6.78a2.26,2.26,0,0,1,2.34,2.34,2.3,2.3,0,0,1-.66,1.65,2.22,2.22,0,0,1-1.68.69H254v18.12q0,2.34,1.11,3a5.59,5.59,0,0,0,2.79.63,8.32,8.32,0,0,0,2.4-.36l.51-.12a3.27,3.27,0,0,1,.69-.06,2.11,2.11,0,0,1,1.5.63,2,2,0,0,1,.66,1.53,2.27,2.27,0,0,1-1.38,2.1,11.74,11.74,0,0,1-5,1.08Q248.52,703.24,248.52,695.32Z"/><path d="M270.42,702.16a2.61,2.61,0,0,1-.78-1.92V661.3a2.71,2.71,0,0,1,.78-1.95,2.56,2.56,0,0,1,1.92-.81,2.77,2.77,0,0,1,2.76,2.76V677a19.94,19.94,0,0,1,4.92-4,12.42,12.42,0,0,1,6.24-1.5A10.37,10.37,0,0,1,292,673a10.14,10.14,0,0,1,3.72,4.26A13.6,13.6,0,0,1,297,683.2v17a2.56,2.56,0,0,1-.81,1.92,2.71,2.71,0,0,1-1.95.78,2.66,2.66,0,0,1-2.7-2.7V683.8q0-7.32-6.6-7.32a9.55,9.55,0,0,0-5.37,1.56,19.44,19.44,0,0,0-4.47,4.2v18a2.56,2.56,0,0,1-.81,1.92,2.71,2.71,0,0,1-2,.78A2.61,2.61,0,0,1,270.42,702.16Z"/><path d="M308.43,699.07q-4.11-4.17-4.11-11.73a19.56,19.56,0,0,1,1.56-7.86,13.36,13.36,0,0,1,4.8-5.82,13.79,13.79,0,0,1,8-2.22,14,14,0,0,1,7.68,2.07,13.39,13.39,0,0,1,4.92,5.52,17,17,0,0,1,1.68,7.53,2.62,2.62,0,0,1-2.76,2.7H309.84A9.87,9.87,0,0,0,313,695.8q2.64,2.34,7.38,2.34a18,18,0,0,0,4.41-.48,18.32,18.32,0,0,0,3.69-1.38,2.38,2.38,0,0,1,1.08-.24,2.41,2.41,0,0,1,1.68.66,2.18,2.18,0,0,1,.72,1.68,2.59,2.59,0,0,1-1.56,2.22,18.74,18.74,0,0,1-10.5,2.64Q312.54,703.24,308.43,699.07Zm19.11-14.25A9.61,9.61,0,0,0,326,679.9a8.26,8.26,0,0,0-3.33-2.91,9.15,9.15,0,0,0-8,0,8.06,8.06,0,0,0-3.3,2.91,9.79,9.79,0,0,0-1.5,4.92Z"/><path d="M340.56,664.9a3,3,0,0,1-.9-2.16v-.24a3.07,3.07,0,0,1,3.06-3.06h.36a3.07,3.07,0,0,1,3.06,3.06v.24a3.07,3.07,0,0,1-3.06,3.06h-.36A3,3,0,0,1,340.56,664.9Zm.36,37.26a2.61,2.61,0,0,1-.78-1.92V674.5a2.71,2.71,0,0,1,.78-2,2.56,2.56,0,0,1,1.92-.81,2.67,2.67,0,0,1,2.76,2.76v25.74a2.56,2.56,0,0,1-.81,1.92,2.71,2.71,0,0,1-2,.78A2.61,2.61,0,0,1,340.92,702.16Z"/><path d="M355.86,702.16a2.61,2.61,0,0,1-.78-1.92V674.5a2.71,2.71,0,0,1,.78-2,2.56,2.56,0,0,1,1.92-.81,2.77,2.77,0,0,1,2.76,2.76v2.58q4.2-5.64,9.42-5.64h.3a2.51,2.51,0,0,1,1.89.78,2.66,2.66,0,0,1,.75,1.92,2.42,2.42,0,0,1-.78,1.86,2.81,2.81,0,0,1-2,.72h-.3a10.23,10.23,0,0,0-5.28,1.41,12.16,12.16,0,0,0-4,3.87v18.24a2.56,2.56,0,0,1-.81,1.92,2.71,2.71,0,0,1-2,.78A2.61,2.61,0,0,1,355.86,702.16Z"/><path d="M392.64,700.54a2.29,2.29,0,0,1-1-2,2.41,2.41,0,0,1,.66-1.68,2.18,2.18,0,0,1,1.68-.72,2.64,2.64,0,0,1,1.08.24,24.25,24.25,0,0,0,3.84,1.32,17.85,17.85,0,0,0,4.32.48q6.66,0,6.66-4.26a2.27,2.27,0,0,0-1.53-2.1,31.33,31.33,0,0,0-5-1.62,45.27,45.27,0,0,1-5.85-1.74,10.29,10.29,0,0,1-4-2.73,6.94,6.94,0,0,1-1.65-4.83,8.65,8.65,0,0,1,3-6.84q3-2.64,8.67-2.64a25,25,0,0,1,8.7,1.5,2.25,2.25,0,0,1,1.29.9,2.41,2.41,0,0,1,.45,1.38,2.35,2.35,0,0,1-.69,1.68,2.27,2.27,0,0,1-1.71.72,3.37,3.37,0,0,1-.78-.12,23,23,0,0,0-6.84-1.08,9.37,9.37,0,0,0-5.07,1.17,3.49,3.49,0,0,0-1.83,3,2.77,2.77,0,0,0,1.68,2.64,24,24,0,0,0,5.22,1.62,50,50,0,0,1,5.76,1.77,9.52,9.52,0,0,1,3.81,2.73,7.41,7.41,0,0,1,1.59,5,7.93,7.93,0,0,1-3,6.36q-3,2.52-8.55,2.52A22.32,22.32,0,0,1,392.64,700.54Z"/><path d="M423.24,702.16a2.61,2.61,0,0,1-.78-1.92V661.3a2.71,2.71,0,0,1,.78-1.95,2.56,2.56,0,0,1,1.92-.81,2.77,2.77,0,0,1,2.76,2.76V677a19.94,19.94,0,0,1,4.92-4,12.42,12.42,0,0,1,6.24-1.5,10.37,10.37,0,0,1,5.73,1.56,10.14,10.14,0,0,1,3.72,4.26,13.6,13.6,0,0,1,1.29,5.94v17a2.56,2.56,0,0,1-.81,1.92,2.71,2.71,0,0,1-1.95.78,2.66,2.66,0,0,1-2.7-2.7V683.8q0-7.32-6.6-7.32a9.55,9.55,0,0,0-5.37,1.56,19.44,19.44,0,0,0-4.47,4.2v18a2.56,2.56,0,0,1-.81,1.92,2.71,2.71,0,0,1-1.95.78A2.61,2.61,0,0,1,423.24,702.16Z"/><path d="M461.25,699.07q-4.11-4.17-4.11-11.73a19.56,19.56,0,0,1,1.56-7.86,13.36,13.36,0,0,1,4.8-5.82,13.79,13.79,0,0,1,8-2.22,14,14,0,0,1,7.68,2.07,13.39,13.39,0,0,1,4.92,5.52,17,17,0,0,1,1.68,7.53,2.62,2.62,0,0,1-2.76,2.7H462.66a9.87,9.87,0,0,0,3.12,6.54q2.64,2.34,7.38,2.34a18,18,0,0,0,4.41-.48,18.32,18.32,0,0,0,3.69-1.38,2.38,2.38,0,0,1,1.08-.24,2.41,2.41,0,0,1,1.68.66,2.18,2.18,0,0,1,.72,1.68,2.59,2.59,0,0,1-1.56,2.22,18.74,18.74,0,0,1-10.5,2.64Q465.36,703.24,461.25,699.07Zm19.11-14.25a9.61,9.61,0,0,0-1.53-4.92A8.26,8.26,0,0,0,475.5,677a9.15,9.15,0,0,0-8,0,8.06,8.06,0,0,0-3.3,2.91,9.79,9.79,0,0,0-1.5,4.92Z"/><path d="M495.21,699.07q-4.11-4.17-4.11-11.73a19.56,19.56,0,0,1,1.56-7.86,13.36,13.36,0,0,1,4.8-5.82,13.79,13.79,0,0,1,8-2.22,14,14,0,0,1,7.68,2.07A13.39,13.39,0,0,1,518,679a17,17,0,0,1,1.68,7.53,2.62,2.62,0,0,1-2.76,2.7H496.62a9.87,9.87,0,0,0,3.12,6.54q2.64,2.34,7.38,2.34a18,18,0,0,0,4.41-.48,18.32,18.32,0,0,0,3.69-1.38,2.38,2.38,0,0,1,1.08-.24,2.41,2.41,0,0,1,1.68.66,2.18,2.18,0,0,1,.72,1.68,2.59,2.59,0,0,1-1.56,2.22,18.74,18.74,0,0,1-10.5,2.64Q499.32,703.24,495.21,699.07Zm19.11-14.25a9.61,9.61,0,0,0-1.53-4.92,8.26,8.26,0,0,0-3.33-2.91,9.15,9.15,0,0,0-8,0,8.06,8.06,0,0,0-3.3,2.91,9.79,9.79,0,0,0-1.5,4.92Z"/><path d="M527.7,715.93a2.71,2.71,0,0,1-.78-1.95V674.44a2.66,2.66,0,0,1,2.7-2.7,2.71,2.71,0,0,1,2,.78,2.56,2.56,0,0,1,.81,1.92V676a13.79,13.79,0,0,1,10.26-4.56,14.07,14.07,0,0,1,7.05,1.89,14.34,14.34,0,0,1,5.4,5.52,18.45,18.45,0,0,1,0,17,14.34,14.34,0,0,1-5.4,5.52,14.07,14.07,0,0,1-7.05,1.89,13.79,13.79,0,0,1-10.26-4.56V714a2.67,2.67,0,0,1-2.76,2.76A2.56,2.56,0,0,1,527.7,715.93ZM549,695.32q2.7-2.82,2.7-8t-2.7-8a9.43,9.43,0,0,0-7.14-2.82,11.33,11.33,0,0,0-5.19,1.23,14.82,14.82,0,0,0-4.29,3.27v12.6a14.82,14.82,0,0,0,4.29,3.27,11.33,11.33,0,0,0,5.19,1.23A9.43,9.43,0,0,0,549,695.32Z"/><path d="M564.57,701.83a3.23,3.23,0,0,1-1-2.37v-.36a3.38,3.38,0,0,1,3.36-3.36h.6a3.38,3.38,0,0,1,3.36,3.36v.36a3.38,3.38,0,0,1-3.36,3.36h-.6A3.23,3.23,0,0,1,564.57,701.83Z"/><g class="cls-4"><g class="cls-4"><path class="cls-5" d="M1619.87,215.15c-11.77-10.28-5.48-2.78-2.33,1.91.43.09.9.23,1.39.37A17.6,17.6,0,0,1,1619.87,215.15Z"/><path class="cls-5" d="M1618.93,217.43c-.49-.14-1-.28-1.39-.37.4.59.73,1.12,1,1.56C1618.64,218.22,1618.78,217.82,1618.93,217.43Z"/><path class="cls-5" d="M1625.81,220.47c-2.37-2.16-4.32-3.89-5.94-5.32a17.6,17.6,0,0,0-.94,2.28A38.36,38.36,0,0,1,1625.81,220.47Z"/><path class="cls-5" d="M1618.51,218.62c-.12.43-.32.82-.41,1.28C1619.26,220.43,1619.16,219.78,1618.51,218.62Z"/><path class="cls-6" d="M1690.94,323.31c4.86-1.8,9.57-3.67,14.17-5.59s9.12-3.87,13.5-5.9c-7.86-3.76-15.79-7.62-21.43-9.74C1679.35,295,1686.77,310.8,1690.94,323.31Z"/><path class="cls-7" d="M1730.49,304.69q4.14-2.25,8.16-4.59C1733.74,299.47,1730.19,300.3,1730.49,304.69Z"/><path class="cls-6" d="M1688.08,320.23c-4.16-12.53-11.56-28.35,6.28-21.27,5.64,2.11,13.57,6,21.44,9.74,7-3.21,13.77-6.58,20.32-10.09-.29-4.41,3.25-5.22,8.18-4.55A336.32,336.32,0,0,0,1780,270.41a391.92,391.92,0,0,0,32.81-28.06c1.22-1.2,3-12.56-4.06-22.66l-4-8.77-3.83-4.11c-2.37,1.45-5.92,1.61-5.75,6.13-1.29,1.21,1.6,6.83.33,8-2.86,2.74-6.61,4.22-9.39,6.88s-4.55,6.54-3.44,13.95c2.38,6.14-17.8-8.1-15.43-1.9-1.63,5.87-8.25,6.08-14.85,6.25s-13.13.33-14.37,6c-.63,5,.37,10.56.28,15.05s-1.29,7.91-6.21,8.72c-1.22,1.29,1.41,7.39.2,8.66-6.14,2.07-12.23,4.24-19,5.88a103.15,103.15,0,0,1-22.35,3.14c-1.77,2-21.74-12.2-19-6.12a98.92,98.92,0,0,1,11.17,24.17c-.59.67-14.93-10.68-16.12-9.32-8.09,2.21.54,18.08-3.71,22.6,1.61.91,3.1,1.72,4.53,2.47C1674.82,325.05,1681.58,322.7,1688.08,320.23Z"/><path class="cls-6" d="M1650.12,337.83a59.45,59.45,0,0,1-3.84-6.94c-13.2-3.34-19.22.89-15.07,12.59C1637.73,341.65,1644,339.74,1650.12,337.83Z"/><path class="cls-6" d="M1657.84,331.37l-.91-.52c3.71-1.14,7.36-2.29,10.93-3.48-1.43-.75-2.92-1.56-4.53-2.47-1.27,1.36-3.64,1.75-8,.46-1.23-.4-2.4-.73-3.54-1a48.76,48.76,0,0,0,2.73,5.13l-1.79-1c-7.42-4.2-8.53-2.39-6.41,2.45,1.14.29,2.31.61,3.54,1C1654.22,333.15,1656.59,332.74,1657.84,331.37Z"/><path class="cls-8" d="M1534,223.75c9.21,3.25,8.62-.77,7.48-5.31s-2.84-9.58,4-8.22c9.18,1.24,11.51-3.11,12.58-8.6-13.13,3.11-25.67,6.49-32.17,15.12A78.5,78.5,0,0,1,1534,223.75Z"/><path class="cls-9" d="M1575.76,294.28c-5.88-7.25-7.73-11.94-3-12.44,8.32-.56,25.38,7.53,28.35,4,6.54-3,2.91-15.28,2.93-24.61,0-4.66.88-8.6,4.32-10.23s9.43-.94,19.58,3.64c17.7,7.52,24.24,4.8,27.6-1.21s3.54-15.23,8.3-20.33c1.88-2-4.5-13.08-2.56-15.12,6.39-6.82,12.22-12.9,18.06-19,4.6-4.7,27,15.91,27.79,6.4.65-.65,10.6,6.61,11.25,6,10.67-19.07,30.35-30.6,53.31-36.67-9-9.91-17.78-19.4-26.06-28-4.27,6.23-12.45,8.43-21.28,9.91s-18.34,2.19-25.21,5.17a35.64,35.64,0,0,0-13.8,6.18,86.77,86.77,0,0,0-10.53,9.54,89.91,89.91,0,0,1-10.44,9.62,36.65,36.65,0,0,1-13.68,6.59,80.66,80.66,0,0,0-14.39,5.33c-4.36,2.3-8.07,5.29-10.31,9.44,1.62,1.43,3.56,3.18,5.91,5.34a37.6,37.6,0,0,0-6.86-3.06c-.15.39-.29.78-.42,1.18.65,1.17.74,1.82-.41,1.28.09-.46.29-.84.41-1.28-.24-.44-.57-1-1-1.56-6.74-1.44-5.73,4.51-4.32,10.26s3.24,11.36-2.09,9.36c-18.39-6.87-22.68.34-25,8.76s-2.62,18.17-13.58,17c-17.86,1.43-23.34,11.32-8.19,35.47C1572.15,292.15,1573.91,293.16,1575.76,294.28Z"/><path class="cls-10" d="M1620.24,329.51l7.9,5.2c-10.16-13.56-13.09-22.46-12.22-28.62a13.32,13.32,0,0,1,3.65-7.48,28.71,28.71,0,0,1,6.72-4.93c.6-.7,11.06,5.79,16.87,8.35,7.56.52-13.7-21.4-6.68-20.23,28.94,3.77,41.58-5.82,49.55-20.11s11.21-33.16,20.28-46.79c1.28-1.31,21.77,21.27,28,23.59,4.67-.44,7.06-2.8,10.42-4s7.72-1.31,16.37,3c4.91,3.69-6.06-11.13-8.42-17.38-2.91-10,2.67-11.1,8.68-11.65s12.58-.47,11.93-8.3c-2.34-10.21,6.82-8.27,7-15.82l-8.65-9.65c-23,6.07-42.64,17.6-53.31,36.67-.65.65-10.6-6.61-11.25-6-.62,7.34-22-12.32-27.79-6.4-6,6.17-11.57,12-18.06,19-1.94,2,4.44,13.08,2.56,15.12-4.76,5.1-4.94,14.36-8.3,20.33s-9.9,8.73-27.6,1.21c-10.15-4.58-16.14-5.26-19.58-3.64s-4.31,5.57-4.32,10.23c0,9.33,3.61,21.57-2.93,24.61-3,3.58-20-4.51-28.35-4-4.71.5-2.86,5.19,3,12.44,12.94,7.85,29.64,20.4,45.8,33.61C1621.24,328.29,1620.72,328.91,1620.24,329.51Z"/><path class="cls-11" d="M1581.78,304.44c46.54,34.42,63.83,43.55,34.18,23.82l1.33-1.62c-16.18-13.2-32.9-25.73-45.84-33.55C1574.14,296.39,1577.65,300.22,1581.78,304.44Z"/><path class="cls-11" d="M1633.06,337.87l3.57-1c-4.13-11.76,2-15.9,15.12-12.53-2.09-4.84-1-6.64,6.44-2.4,1.84,1.1,3.5,2.05,5.14,3,4.25-4.52-4.38-20.39,3.71-22.6,1.19-1.36,15.53,10,16.12,9.32A98.92,98.92,0,0,0,1672,287.45c-2.73-6.08,17.24,8.1,19,6.12a103.15,103.15,0,0,0,22.35-3.14c6.72-1.64,12.81-3.81,19-5.88,1.21-1.27-1.42-7.37-.2-8.66,4.92-.81,6.11-4.22,6.21-8.72s-.91-10.07-.28-15.05c1.24-5.63,7.76-5.81,14.37-6s13.22-.38,14.85-6.25c-2.37-6.2,17.81,8,15.43,1.9-1.11-7.41.67-11.28,3.44-13.95s6.53-4.14,9.39-6.88c1.27-1.21-1.62-6.83-.33-8-.17-4.52,3.38-4.68,5.75-6.13l-14.15-15.19-6.46-7.31c-.23,7.55-9.39,5.61-7,15.82.65,7.83-5.91,7.73-11.93,8.3s-11.59,1.67-8.68,11.65c2.36,6.25,13.33,21.07,8.42,17.38-8.65-4.31-13-4.23-16.37-3s-5.75,3.59-10.42,4c-6.21-2.32-26.7-24.9-28-23.59-9.07,13.63-12.36,32.54-20.28,46.79s-20.61,23.88-49.55,20.11c-7-1.17,14.24,20.75,6.68,20.23-5.81-2.56-16.27-9-16.87-8.35a28.71,28.71,0,0,0-6.72,4.93,13.32,13.32,0,0,0-3.65,7.48c-.87,6.16,2.06,15.06,12.22,28.62Z"/><path class="cls-8" d="M1620.12,172a58.09,58.09,0,0,1-10.78,7.92,10.45,10.45,0,0,1-1.65,1.1C1613.12,179.19,1619.26,177.91,1620.12,172Z"/><path class="cls-8" d="M1600.84,184.7c-4.58,2.41-9.77,5.17-12.45,6.75,9.56,4.29,16.87,6.37,19.44,3.54C1607.83,195,1600.44,185.68,1600.84,184.7Z"/><path class="cls-12" d="M1522.45,223.72a32.27,32.27,0,0,0-.67,13.53,77.33,77.33,0,0,0,5.5,18.74c3.53-1.92,4.27-6,3.15-11.62S1526.37,231.67,1522.45,223.72Z"/><path class="cls-13" d="M1570.46,291.23c-15.15-24.15-9.67-34,8.19-35.47,11,1.15,11.28-8.54,13.58-17s6.61-15.63,25-8.76c5.33,2,3.49-3.6,2.09-9.36s-2.42-11.7,4.32-10.26c-3.14-4.71-9.39-12.26,2.33-1.9,2.24-4.15,6-7.14,10.31-9.44a80.66,80.66,0,0,1,14.39-5.33,36.65,36.65,0,0,0,13.68-6.59,89.91,89.91,0,0,0,10.44-9.62,86.77,86.77,0,0,1,10.53-9.54,35.64,35.64,0,0,1,13.8-6.18c6.87-3,16.35-3.72,25.21-5.17s17-3.68,21.28-9.91c-24.2-25.13-43.75-42.34-47.44-38.88a66.22,66.22,0,0,0-17.84,2.14,46.11,46.11,0,0,0-13.3,5.85c-7.63,4.89-13,11.59-17.86,18.77.87,9.9-.81,17-7.41,19.22,1.15-3.33,1.34-7.65.9-12.66-2.2,3.26-4.25,6.66-6.4,10s-4.33,6.73-6.71,10c.35,0,.62-.05,1-.05-1.28,1.43-2.59,2.85-4,4.18-.92,5.92-7,7.22-12.48,8.95-1.59.91-4.12,2.23-6.87,3.68-.39,1-3,11-12.49,6.68a10.78,10.78,0,0,0-1.71,1.16c-8.41,4.37-18.68,6.55-28.66,8.84-1.07,5.5-3.45,9.82-12.63,8.52-13.72-2.75-17.26,8.24-19.62,6.43a22,22,0,0,0-3.49,7c7.71,15.93,11.72,28.5,4.65,32.29,1.54,3.74,3.4,7.74,5.62,12,4,7.81,13.41,17.34,24.74,27A72.25,72.25,0,0,1,1570.46,291.23Z"/></g></g><path d="M1617.59,164.13l-.53.07c-.34.12-.67.25-1,.4a15.6,15.6,0,0,0-2.26,1.25c-.94.59-1.87,1.2-2.8,1.8a20.52,20.52,0,0,0-1.84,1.38l-2,1.55c-1.48,1-3,2-4.54,3l-5.65,3.72c-3,1.94-5.92,3.89-8.9,5.79-3.31,2.12-6.6,4.26-9.93,6.33L1567.48,196c-1.36.85-2.67,1.76-4,2.64l-6.55,4.32c-.87.57-1.71,1.17-2.56,1.78l-6.57,4.72-4,2.91c-1.3.93-2.55,1.92-3.82,2.88l-9.47,7.13L1519,231c-2.45,1.84-4.92,3.64-7.39,5.45-2.26,1.66-4.53,3.31-6.78,5-1,.72-2,1.43-3,2.17l-11.1,8.45c-.91.7-1.83,1.38-2.73,2.1l-5.16,4.18-5.79,4.68c-.81.66-1.58,1.36-2.36,2.05l-6.09,5.45c-1,.87-2,1.73-2.92,2.63-2.93,2.76-5.84,5.53-8.77,8.28s-5.83,5.43-8.71,8.18l-4.48,4.3c-1.33,1.27-2.7,2.52-4,3.83l-4.52,4.53-2.35,2.36c-.28.28-.55.57-.82.87l-4.91,5.67c-.46.54-.92,1.07-1.39,1.6-.68.79-1.29,1.63-1.92,2.45q-1.43,1.85-2.77,3.73c-1.45,2-2.81,4.05-4.13,6.14a44,44,0,0,0-3.59,6.91,33,33,0,0,0-1.25,3.71,22.46,22.46,0,0,0-.61,3.45,16.2,16.2,0,0,0,0,2,8.17,8.17,0,0,0,.16,1.48,5.52,5.52,0,0,0,.37,1.32c.27.58.55,1.14.84,1.71,0,0,0,0,0,0,0-.22,0-.44-.08-.66h0c-.06-.4-.1-.81-.15-1.22a6.54,6.54,0,0,1,0-1.17v0a21,21,0,0,1,1.26-4.39,59.44,59.44,0,0,1,2.79-5.52c1.1-1.94,2.22-3.87,3.38-5.78a118.07,118.07,0,0,1,7.38-10.65c1.38-1.76,2.86-3.43,4.31-5.13l2.36-2.76c.29-.34.56-.69.88-1q2.51-2.56,5-5.11c.94-1,1.88-1.92,2.84-2.85,2.81-2.71,5.61-5.45,8.45-8.14l8.53-8.08,8.3-7.89c.75-.72,1.55-1.4,2.32-2.1l5.45-4.9,1.92-1.73c.26-.23.51-.48.78-.7l3.33-2.71,8.6-7-.32.24c3.49-2.69,7-5.35,10.48-8,2.46-1.89,4.94-3.73,7.44-5.57l6.8-5c1-.77,2.11-1.54,3.15-2.32q5.43-4.12,10.86-8.22l7.49-5.67,6.6-5c.84-.64,1.68-1.3,2.55-1.92l11.36-8.18c.94-.67,1.91-1.29,2.88-1.93l6.91-4.55c3.15-2.07,6.37-4,9.57-6s6.54-4.09,9.8-6.16c6.29-4,12.51-8.08,18.8-12.07l3.4-2.15a27.62,27.62,0,0,1,2.46-1.32l1.6-.81a11.19,11.19,0,0,0,1.12-.72,38.36,38.36,0,0,1,4.24-2.58h0c.16.16.32.32.47.5.59.82,1.07,1.69,1.58,2.57.62,1.07,1.21,2.15,1.79,3.24s1.13,2.27,1.66,3.43c.9,2,1.81,4,2.71,6.05q1.1,2.76,2.2,5.51c.55,1.38,1.14,2.75,1.61,4.16q1.21,3.6,2.42,7.19c.42,1.25.86,2.5,1.23,3.76.76,2.49,1.51,5,2.26,7.46.39,1.28.79,2.55,1.15,3.82l3.45,12.32c.13.43.2.87.29,1.31l.78,3.52,1.77,7.95c.21,1,.44,1.95.62,2.93.43,2.3.85,4.61,1.28,6.91.62,3.37,1.29,6.73,1.84,10.12l2.31,14.36q1.66,10.31,3.45,20.58,1.14,6.57,2.27,13.12c.24,1.43.44,2.86.67,4.28l1.32,8.4c.23,1.42.45,2.83.67,4.25l1.41,12.66c.18,1.6.35,3.19.53,4.78,0,.33,0,.67.07,1,.08,1,.15,2.09.22,3.13q.5,7,1,14c.07,1.15.08,2.32.12,3.47l.3,8.37c.07,2,.13,3.95.21,5.92,0,1.1,0,2.21,0,3.31q0,7.14.1,14.29c0,1.1-.08,2.2-.12,3.29l-.33,8.32-.24,6.19c0,1.05-.21,2.09-.32,3.13-.51,4.67-1,9.34-1.53,14q-1.14,6.41-2.27,12.8c-.2,1.1-.36,2.21-.61,3.3l-1.41,6.31c-.77,3.44-1.5,6.89-2.33,10.32q-1.67,6.8-3.32,13.58c-.3,1.2-.63,2.39-.94,3.59q-1,3.63-1.91,7.26c-.9,3.4-1.88,6.77-2.83,10.15-.38,1.34-.78,2.68-1.12,4-.42,1.63-.77,3.29-1.11,4.94-.82,3.93-1.34,7.9-2.07,11.84,0,0,0,0,0,0a75.2,75.2,0,0,0,5.38-11.37,104,104,0,0,0,3.22-10.05c.63-2.22,1.25-4.45,1.88-6.67.45-1.59.84-3.19,1.26-4.78.92-3.49,1.85-7,2.71-10.49l2-8.09c.34-1.41.72-2.82,1-4.24q1.47-6.63,3-13.24c.23-1,.46-2,.64-3,.41-2.29.82-4.57,1.22-6.86l1.32-7.41c.18-1,.31-2,.42-3q.79-7.37,1.6-14.74c0-.34.1-.69.11-1,0-.53.05-1.06.07-1.59l.3-7.7c.1-2.47.19-4.93.29-7.4,0-.87,0-1.73,0-2.6q0-7.49-.11-15c0-3.38-.2-6.75-.32-10.13l-.27-7.53c0-.86-.07-1.7-.13-2.55q-.52-7.54-1.07-15.1c-.22-3.16-.62-6.29-1-9.43q-.43-4-.88-8c-.12-1.07-.22-2.15-.39-3.22l-2.28-14.49c-1.06-6.67-2.3-13.31-3.41-20q-2.09-12.56-4.13-25.12c-.52-3.22-1-6.43-1.63-9.63-.82-4.46-1.64-8.9-2.47-13.36-.26-1.42-.62-2.82-.94-4.23-.59-2.69-1.19-5.38-1.78-8.06-.24-1.1-.45-2.2-.76-3.27l-2-7.07q-.75-2.62-1.48-5.25c-.52-1.88-1.12-3.73-1.69-5.59s-1.19-3.94-1.78-5.91c-.14-.47-.31-.93-.47-1.4l-1.29-3.84-1.8-5.36c-.08-.24-.18-.47-.27-.7-.36-.92-.73-1.83-1.09-2.74l-2.31-5.8c-.55-1.37-1.19-2.72-1.8-4.06-.79-1.78-1.56-3.57-2.43-5.3s-1.91-3.57-2.91-5.32a13,13,0,0,0-1.53-2.28,8.09,8.09,0,0,0-1.16-1.11l-.45-.33-.95-.4a2.08,2.08,0,0,0-.55-.07A2.14,2.14,0,0,0,1617.59,164.13Z"/><path d="M1613.17,245.64a21.09,21.09,0,0,1,4,0,23.31,23.31,0,0,1,5.27,1.63,14,14,0,0,1,2.35,1.34,8.18,8.18,0,0,1,1,1,11.16,11.16,0,0,1,.77,1.45,24.1,24.1,0,0,1,1.32,5.07,10.43,10.43,0,0,1,0,2.09,9.92,9.92,0,0,1-.5,1.85,16.67,16.67,0,0,1-1.79,2.83,26.4,26.4,0,0,1-4.11,4.21,28,28,0,0,1-5.63,3.21,20.94,20.94,0,0,1-4.44,1.24,8.81,8.81,0,0,1-1.85,0,8.06,8.06,0,0,1-1.19-.33,7.12,7.12,0,0,1-1-.55,17.83,17.83,0,0,1-2.19-2.24,20.53,20.53,0,0,1-2.11-3.88c-.39-1-.75-2-1.07-3a17.31,17.31,0,0,1-.66-3,12.93,12.93,0,0,1,0-2.71,15.37,15.37,0,0,1,.9-3.2,20.61,20.61,0,0,1,2.52-4.2l0,0c.56-.7,1.17-1.37,1.78-2,.9-.15,1.79-.29,2.69-.41C1610.56,245.92,1611.86,245.75,1613.17,245.64Zm-3.88-2.52a40.69,40.69,0,0,0-5.15,1.78c-.86.36-1.73.7-2.56,1.13l-1.46.77a17.66,17.66,0,0,0-2.53,1.73,0,0,0,0,0,0,0,25.62,25.62,0,0,1,3.4-1c.62-.13,1.23-.3,1.86-.4l2.44-.41c-.26.17-.52.33-.78.51a15.45,15.45,0,0,0-2.85,2.51,12.81,12.81,0,0,0-3.35,6.86,14.19,14.19,0,0,0,.11,3.85,19.21,19.21,0,0,0,1.09,3.78,35.73,35.73,0,0,0,1.54,3.6c.27.53.55,1.05.85,1.55a15.43,15.43,0,0,0,1.3,1.79c.39.45.81.87,1.24,1.28a10,10,0,0,0,1.35,1.16,7.94,7.94,0,0,0,3.81,1.36,12.79,12.79,0,0,0,3.7-.32,20.76,20.76,0,0,0,3.69-1.15,28.67,28.67,0,0,0,6.8-3.89,27.35,27.35,0,0,0,5.26-5.64,13.73,13.73,0,0,0,1.8-3.3,9.69,9.69,0,0,0,.54-3.66,15.24,15.24,0,0,0-.22-1.92c-.09-.6-.2-1.19-.34-1.78a23.18,23.18,0,0,0-1.31-4,8.06,8.06,0,0,0-2.06-2.91,12.55,12.55,0,0,0-3-2c-1.15-.53-2.37-1-3.56-1.39a17.33,17.33,0,0,0-4-.84q-.67-.06-1.35-.06A24.73,24.73,0,0,0,1609.29,243.12Z"/><path d="M1484.81,277.51c0,2.91.08,5.83.2,8.74s.21,5.9.29,8.86c0,1.43.1,2.86.12,4.29s0,3.07-.1,4.61c-.08,1.73-.18,3.45-.33,5.18-.18,2.07-.32,4.15-.57,6.21-.15,1.3-.29,2.61-.39,3.92-.07.91-.2,1.82-.29,2.73-.14,1.35-.29,2.7-.43,4h0c-.09.64-.18,1.28-.25,1.92a31.4,31.4,0,0,1-.88,3.84c-.27.93-.48,1.86-.69,2.8,0,0,0,0,0,0,.84-1.31,1.65-2.65,2.41-4a26.29,26.29,0,0,0,1.68-4.2c.3-.89.55-1.82.78-2.73.28-1.13.55-2.25.8-3.38.2-.9.31-1.82.44-2.73s.28-1.89.37-2.84c.22-2.17.43-4.33.64-6.5.13-1.29.2-2.59.28-3.89s.13-2.59.15-3.89a58.85,58.85,0,0,0-.33-7.86,68.14,68.14,0,0,0-3.91-15.11h0Z"/><path d="M1346.87,324.64a68.21,68.21,0,0,0-8.79.92c-2,.3-4,.72-6,1.21l-3.2.78c-.42.1-.84.26-1.25.39l-1.69.53c-.83.26-1.65.6-2.46.92L1322,330a4.78,4.78,0,0,1-.48.19,6.14,6.14,0,0,1-.72.15,7.13,7.13,0,0,0-1.13.26c-.45.17-.89.35-1.34.51a18.31,18.31,0,0,1-3.09.92,7.74,7.74,0,0,1-1.18,0,12.71,12.71,0,0,1-1.57-.45c-.46-.15-.93-.25-1.39-.36a14.19,14.19,0,0,0-3.31-.32l-2,.06c-2,.05-4,.27-5.94.42-1.73.14-3.47.24-5.21.33-2.32.12-4.65.25-7,.3a11,11,0,0,0-2,.28,4.57,4.57,0,0,0-1.63.63,4,4,0,0,0-1.47,3.7,10.5,10.5,0,0,0,.93,3.73c.53,1.23,1.19,2.41,1.77,3.62,1.19,2.53,2.6,5,3.87,7.43.33.63.64,1.27,1,1.9l3.36,6.72c.62,1.24,1.14,2.53,1.7,3.78,1.35,3.07,2.68,6.14,4.07,9.2,1.59,4.05,3.2,8.09,4.8,12.14.44,1.11.93,2.22,1.31,3.36.65,1.92,1.29,3.85,1.93,5.77.87,2.6,1.73,5.19,2.6,7.78.32.95.65,1.9.91,2.87,1.23,4.58,2.45,9.16,3.69,13.74.34,1.26.61,2.55.91,3.81.61,2.6,1.21,5.2,1.82,7.79.29,1.24.51,2.48.73,3.74.46,2.56.91,5.12,1.37,7.67,0,.2.06.4.1.6.23,2,.45,3.95.68,5.92.18,1.57.37,3.14.5,4.71.11,1.39.2,2.77.34,4.16.08.76.18,1.53.27,2.29.3,2.57.71,5.13,1.13,7.69a20.17,20.17,0,0,0,.48,2.18,14.1,14.1,0,0,0,.59,1.84,5.93,5.93,0,0,0,1,1.6,3.88,3.88,0,0,0,.73.67,8.88,8.88,0,0,0,1.06.55s0,0,0,0c-.22-.21-.43-.42-.63-.64l0,0a6,6,0,0,1-.59-1,5.71,5.71,0,0,1-.35-1.27,47.8,47.8,0,0,1,.21-6.44c.05-1.25.07-2.5.07-3.75,0-1.88-.09-3.77-.23-5.65-.14-1.62-.26-3.23-.44-4.84-.3-2.56-.6-5.13-.89-7.69-.18-1.56-.49-3.1-.76-4.64-.43-2.43-.87-4.86-1.3-7.29-.06-.34-.14-.66-.22-1l-.75-3.22c-.6-2.53-1.19-5.07-1.79-7.6-.25-1.08-.55-2.15-.84-3.22l-2.16-8.05c-.29-1.09-.59-2.19-.88-3.29-.1-.38-.19-.77-.31-1.15q-.84-2.47-1.66-5l-2.67-8c-.36-1.06-.67-2.16-1.09-3.2q-2.65-6.74-5.32-13.46c-1.36-3.45-2.92-6.81-4.42-10.2-.74-1.67-1.49-3.34-2.22-5-.27-.6-.59-1.18-.89-1.77l-1.89-3.79c-.61-1.21-1.21-2.44-1.83-3.65-.92-1.79-1.9-3.54-2.82-5.33-.46-.88-.87-1.77-1.3-2.66s-.83-1.63-1.21-2.46a9.07,9.07,0,0,1-.48-1.67,7.5,7.5,0,0,1,0-.82l.68-.14c.65,0,1.29,0,1.94-.06l1.67-.08,2.15-.1,5.58-.32c1.44-.09,2.89-.22,4.34-.34.82-.06,1.63-.15,2.45-.17a32.86,32.86,0,0,1,4,0c.46.08.92.18,1.38.29s.81.25,1.21.37a9,9,0,0,0,3,.44,11.39,11.39,0,0,0,2.77-.52c.85-.25,1.67-.56,2.49-.88a7.88,7.88,0,0,0,1.45-.66c.39-.23.78-.53,1.19-.72l-.41.17q1.75-.74,3.51-1.44c1.17-.47,2.38-.85,3.58-1.25.34-.12.7-.2,1.06-.29l2.53-.65a74.57,74.57,0,0,1,8.61-1.62l-.41.06c1.16-.15,2.32-.28,3.49-.37s2.55-.11,3.83-.1a60.9,60.9,0,0,1,7.26.48,82.77,82.77,0,0,1,13.94,3.36c4.53,1.45,8.89,3.37,13.28,5.2,4.05,1.76,8.08,3.54,12.12,5.31,1.13.5,2.25,1,3.39,1.47l6.6,2.59,6.28,2.45c.32.13.65.24,1,.35l3.36,1.14c2.17.73,4.33,1.47,6.53,2.1.6.17,1.22.3,1.83.44,1.36.3,2.73.59,4.1.85s2.75.49,4.13.69c1.66.26,3.32.56,5,.82,0,0,0,0,0,0-1.14-.63-2.28-1.29-3.46-1.83s-2.35-1.05-3.53-1.55c-2.11-.89-4.23-1.73-6.38-2.5-1.47-.53-2.93-1.1-4.41-1.58l-6.76-2.24c-.32-.1-.64-.23-.95-.35l-3-1.16-9.73-3.72L1387.3,335c-2.35-1-4.7-2-7.07-2.94-2.63-1.07-5.27-2.12-8-3s-5.47-1.7-8.24-2.39a72.66,72.66,0,0,0-8.53-1.56,60.36,60.36,0,0,0-7.24-.41Z"/><circle cx="1412.6" cy="324.64" r="0.25"/><path d="M1402.69,207.91a7.42,7.42,0,0,0-1,.14,3.63,3.63,0,0,0-.78.28c-.29.11-.57.24-.84.37a11,11,0,0,0-2.9,2.38c-.82.84-1.56,1.73-2.32,2.63-.6.71-1.22,1.42-1.8,2.16l.28-.36c-2.33,3-4.7,6-6.92,9.11-1,1.48-2.15,2.94-3.15,4.46-1.22,1.86-2.46,3.72-3.68,5.58-.31.48-.59,1-.88,1.46-.7,1.14-1.39,2.29-2.08,3.43-.42.71-.87,1.41-1.27,2.13-1.28,2.31-2.5,4.66-3.56,7.09a76.24,76.24,0,0,0-2.92,7.76c-.83,2.62-1.46,5.31-2.07,8-.16.71-.28,1.44-.41,2.16-.24,1.31-.49,2.63-.73,3.95s-.56,2.88-.78,4.33l-1.08,7c-.54,3.56-1,7.12-1.44,10.69s-.9,7.38-1.09,11.09a38.22,38.22,0,0,0,0,5.35,26.89,26.89,0,0,0,.37,2.84c.19,1,.41,1.9.57,2.86.32,1.84.58,3.7.94,5.54.12.66.22,1.32.34,2,.21,1.11.43,2.22.66,3.32.75,3.54,1.6,7,2.36,10.58,0,0,0,0,0,0a113.25,113.25,0,0,0,.2-11.51c-.07-1.85-.14-3.7-.37-5.54-.27-2.07-.55-4.14-1-6.18-.21-1-.41-2.09-.57-3.14-.07-.72-.14-1.44-.18-2.16,0-.91-.06-1.81-.06-2.72s.06-1.71.09-2.56.13-1.79.2-2.68c.11-1.53.27-3,.44-4.57.2-1.74.41-3.47.62-5.21.5-3.6,1-7.2,1.57-10.8.24-1.56.45-3.14.74-4.7l1.35-7.17a80.66,80.66,0,0,1,4.67-16,74.89,74.89,0,0,1,5-9.67l2.1-3.44c.35-.57.68-1.17,1-1.73,1.2-1.81,2.41-3.61,3.61-5.41,1-1.47,2-2.88,3.07-4.31.44-.59.87-1.19,1.3-1.79l-.28.36c1.55-2,3.09-4,4.65-6q1.1-1.4,2.25-2.73a34,34,0,0,1,4.11-4.37,7.08,7.08,0,0,1,.89-.51l.24-.08c.12.2.23.41.33.62.68,1.72,1.16,3.53,1.73,5.3.52,1.61,1.1,3.23,1.71,4.81,1.49,3.81,3.06,7.57,4.66,11.32.18.44.37.87.55,1.3,0-.13-.11-.26-.17-.39.32.74.68,1.46,1,2.19.58,1.2,1.16,2.41,1.73,3.62.27.56.52,1.15.82,1.69s.76,1.36,1.13,2q1.76,3.13,3.49,6.28c.67,1.21,1.46,2.36,2.19,3.54q1.9,3.09,3.83,6.17c.69,1.1,1.44,2.16,2.18,3.22,1.58,2.26,3.22,4.46,4.91,6.62a53.56,53.56,0,0,0,8.26,8.5c1.68,1.38,3.39,2.73,5.16,4q.77.56,1.56,1.08s0,0,0,0c-1.85-2.57-3.7-5.14-5.69-7.61q-1.92-2.54-3.88-5c-1.4-1.78-2.83-3.53-4.22-5.31l.29.36c-2.07-2.69-4.1-5.43-5.92-8.3l-4.12-6.49c-.65-1-1.32-2.06-1.92-3.13l-3.72-6.55c-1.27-2.23-2.32-4.59-3.45-6.9-1-2.13-1.93-4.34-2.86-6.52l0,.09,0-.12-.07-.15.06.13c-1.4-3.32-2.7-6.7-3.83-10.13-.57-1.75-1-3.53-1.55-5.29-.13-.45-.28-.88-.43-1.32a11.79,11.79,0,0,0-.68-1.54,5.16,5.16,0,0,0-.61-.84,2.91,2.91,0,0,0-.94-.73,2.77,2.77,0,0,0-1.1-.3Z"/><path d="M1648.15,515.81c-.84,1.08-1.64,2.16-2.39,3.3s-1.5,2.33-2.2,3.53a53.89,53.89,0,0,0-3.77,8.12,69.76,69.76,0,0,0-2.49,8.48c-.67,2.83-1.12,5.72-1.68,8.58l-2.52,12.94c-.08.42-.14.85-.2,1.28-.21,1.28-.41,2.57-.61,3.85-.47,3-.94,6-1.42,9-.18,1.16-.37,2.32-.52,3.48-.29,2.37-.57,4.74-.86,7.11q-.56,4.44-1.09,8.87c-.13,1.1-.28,2.2-.39,3.3q-.81,7.77-1.61,15.54-.27,2.75-.56,5.47c-.12,1.18-.19,2.35-.3,3.53l-1.44,17.34c-.2,2.39-.35,4.79-.49,7.18-.35,6.32-.61,12.63-.64,19s.18,12.54.54,18.81c.18,3.11.37,6.21.72,9.3l2,16.86c.13,1.13.23,2.27.41,3.39l1.11,6.95q1.92,12,3.78,24.05c.52,4.44,1,8.88,1.53,13.32,0,.38.07.75.09,1.13.1,1.37.19,2.74.29,4.11l.48,6.9c.05.68.06,1.36.08,2,.07,1.56.13,3.13.2,4.7.07,1.9.13,3.8.17,5.7.1,4.3.12,8.59.11,12.88q0,3.07,0,6.15c0,1,0,2.06,0,3.09s.07,1.8.1,2.7c.08,2,.14,4.07.26,6.11s.25,4.37.38,6.55c0,.72.09,1.44.13,2.16a9.08,9.08,0,0,1,.05.91c0,1.11-.05,2.22-.07,3.34a5.07,5.07,0,0,0,0,.55c0,.36.05.73.08,1.1s0,.8.07,1.2c.08,1.16.18,2.3.3,3.45.23,2.36.5,4.73.88,7.07a19.09,19.09,0,0,0,2.14,5.38c.48.93,1,1.82,1.55,2.7s1.19,1.67,1.81,2.48,1.21,1.56,1.81,2.35,1.18,1.6,1.76,2.41c.31.44.59.93.86,1.39s.68,1.14,1,1.71c1.2,2.1,2.4,4.21,3.55,6.35s2.2,4.06,3.46,6c.55.85,1.13,1.66,1.74,2.46s1.24,1.65,1.87,2.46,1.07,1.42,1.58,2.15c.61.89,1.17,1.82,1.73,2.74s1,1.7,1.52,2.55a23.92,23.92,0,0,0,4,4.9c1.5,1.48,3,3,4.57,4.37.75.66,1.48,1.34,2.25,2l1.48,1.21.46.39.33.28a4.78,4.78,0,0,1,.45.45,4.61,4.61,0,0,1-.51.22l.47-.2a28.86,28.86,0,0,1-4.86,1.15l-3.41.57c-3,.34-6,.69-9,1-3.28.35-6.57.68-9.85,1-3,.35-6,.73-9,1l-1.93.16c-.74,0-1.49.13-2.24.14-1.41,0-2.81-.07-4.21-.21a9.67,9.67,0,0,1-1.32-.28,17.87,17.87,0,0,1-1.74-.6c-1.61-.72-3.14-1.58-4.69-2.41-.73-.38-1.48-.71-2.22-1.09a18.29,18.29,0,0,1-2-1.2,38.64,38.64,0,0,1-3.56-3.9c-.58-.79-1.15-1.57-1.68-2.39s-1.09-1.72-1.59-2.61-1.05-1.85-1.53-2.79a34.48,34.48,0,0,0-2.11-3.64s0,0,0,0c.52,2.22.78,4.49,1.35,6.7.26,1,.58,2,.93,3a20.87,20.87,0,0,0,1.23,2.83,23.4,23.4,0,0,0,1.61,2.63,13.29,13.29,0,0,0,3.83,3.93c.7.41,1.39.81,2.11,1.17s1.71.83,2.55,1.29,1.71.9,2.57,1.34c.35.19.7.36,1.07.52.61.26,1.23.54,1.86.76a14,14,0,0,0,3.12.71c1,.11,2,.19,3,.23a44.24,44.24,0,0,0,5.63-.29c2-.19,4.07-.41,6.11-.66,3.88-.48,7.78-.88,11.68-1.29,1.89-.2,3.78-.39,5.67-.61,2.14-.25,4.28-.45,6.41-.81l3.44-.58c.92-.16,1.84-.37,2.74-.6a11.74,11.74,0,0,0,1.63-.59,3.9,3.9,0,0,0,1.38-.8c.17-.16.32-.32.48-.49a2.75,2.75,0,0,0,.53-.82l.21-.48.12-1c0-.18,0-.36-.07-.54a2.65,2.65,0,0,0-.3-.94l-.25-.47c-.23-.31-.47-.61-.7-.91a8.74,8.74,0,0,0-1.31-1.19l-1.26-1q-2-1.68-4-3.53c-.7-.67-1.41-1.34-2.1-2-1.08-1.07-2.17-2.13-3.14-3.3-.78-1.09-1.44-2.24-2.13-3.39-.49-.82-1-1.63-1.49-2.44a51.7,51.7,0,0,0-3.33-4.6l.31.4c-1.25-1.66-2.52-3.31-3.61-5.1-1.24-2.06-2.36-4.19-3.53-6.29s-2.44-4.38-3.72-6.54a33.81,33.81,0,0,0-1.89-2.87c-.71-1-1.46-1.95-2.21-2.9s-1.69-2.16-2.42-3.32a39.85,39.85,0,0,1-2.49-4.65,14.82,14.82,0,0,1-.77-2.85c-.15-1.2-.3-2.39-.44-3.58s-.31-2.43-.4-3.66c-.11-1.46-.21-2.92-.31-4.38,0-.64-.18-1.28-.28-1.9s-.17-1.13-.26-1.7c-.14-1.86-.27-3.73-.38-5.6s-.28-4-.37-6.07c-.06-1.41-.12-2.82-.19-4.23,0-.8-.09-1.61-.1-2.41,0-2.39-.09-4.79-.13-7.17-.07-3.88-.11-7.76-.26-11.64-.09-2.2-.15-4.41-.26-6.62-.14-2.44-.26-4.89-.39-7.34-.23-4.31-.62-8.62-1-12.93-.12-1.43-.32-2.84-.49-4.27-.34-2.88-.7-5.76-1-8.65-.15-1.24-.33-2.47-.53-3.7l-1.38-8.73q-.91-5.65-1.81-11.32c-.5-3.13-1-6.25-1.51-9.39-.52-4.51-1-9-1.54-13.54-.26-2.34-.53-4.68-.79-7-.12-1-.18-2-.25-2.93q-.34-4.87-.55-9.77-.4-9.4-.21-18.84c.14-6.32.51-12.64.9-19,.09-1.45.25-2.89.37-4.33l.78-9.11q.35-4,.7-8.07c.07-.86.14-1.74.23-2.6l1.71-16.16.48-4.56c.17-1.62.41-3.23.61-4.84l1.8-14.41c.59-3.8,1.22-7.6,1.83-11.4.26-1.64.53-3.29.79-4.93.19-1.15.45-2.29.67-3.43.93-4.67,1.86-9.33,2.76-14,.46-2.4,1-4.77,1.65-7.12.72-2.59,1.62-5.14,2.45-7.71,1.47-4.59,3.07-9.14,4.84-13.64a0,0,0,0,0,0,0Z"/><path d="M1561.92,623.57c-.46,4.72-.76,9.43-.84,14.18,0,2.32,0,4.64.06,7,0,1.07,0,2.15.07,3.22.19,3.61.34,7.22.51,10.82.12,2.37.22,4.73.39,7.09q.47,6.55.94,13.12c.15,2,.29,4,.39,6.07q.36,6.65.71,13.28l.27,5.07c0,.49,0,1,0,1.44q0,11.63,0,23.26c0,1.74-.13,3.48-.23,5.22l-.78,13.67c-.16,2.8-.33,5.59-.48,8.39,0,.79-.12,1.57-.18,2.36q-.21,3-.44,5.94-.67,9.24-1.38,18.48c-.52,6.63-1.06,13.27-1.54,19.91q-.45,6.15-.91,12.29c-.17,2.44-.34,4.88-.54,7.32q-.78,9.65-1.59,19.29-.53,6.24-1.06,12.48c-.25,3.05-.6,6.09-.91,9.13q-.68,6.47-1.49,12.93c-.15.55-.31,1.09-.46,1.64a12.41,12.41,0,0,0-.42,1.56l-.3,2c-.13.85-.26,1.69-.34,2.55a3.81,3.81,0,0,0,0,1,4.85,4.85,0,0,0,.33,1.35,11.39,11.39,0,0,0,3,4c.87.81,1.8,1.55,2.72,2.29s1.71,1.45,2.52,2.21,1.81,1.71,2.7,2.6,1.73,1.86,2.57,2.82c.7.8,1.4,1.62,2.08,2.44s1.08,1.53,1.56,2.34.9,1.65,1.31,2.5.66,1.63,1,2.44q.27.69.51,1.38c.25.72.54,1.44.73,2.19v.36l0,.1-.19.32a3.23,3.23,0,0,1-.37.37,4.09,4.09,0,0,1-.48.29,5.73,5.73,0,0,1-.9.25,23.24,23.24,0,0,1-5.2-.2c-3.43-.49-6.84-1.13-10.23-1.81-3-.6-6-1.18-9-1.8q-4.77-1-9.54-2l-2.34-.51c-.82-.17-1.64-.29-2.46-.44-1.72-.32-3.45-.5-5.18-.7-1-.12-2.12-.17-3.18-.25s-2.31-.14-3.46-.2l-3.64-.17c-1.08,0-2.17-.09-3.25-.21a10.76,10.76,0,0,1-1.51-.38,6.94,6.94,0,0,1-.92-.54,12.34,12.34,0,0,1-1.17-1.23,16.82,16.82,0,0,1-1.64-2.61,37.17,37.17,0,0,1-1.43-4.72c-.18-.73-.33-1.46-.5-2.19s-.34-1.41-.5-2.11c-.68-3-1.39-5.91-2.08-8.85s-1.26-5.8-1.87-8.7-1.38-5.7-2.1-8.54c-.5-2-1-3.92-1.36-5.91-.18-1-.36-1.94-.5-2.92l-.51-3.69.06.38-.63-5.3c-.17-1.49-.28-3-.41-4.48s-.23-2.81-.32-4.21-.2-3-.26-4.46l-.21-5.47c0-.55,0-1.1,0-1.65,0-1.2,0-2.4,0-3.61s0-2.37,0-3.56c.05-2.19.1-4.37.14-6.56.13-6.21.36-12.41.61-18.62q.2-4.65.36-9.31c0-1.72.14-3.45.16-5.17s0-3.44-.11-5.16-.23-3.65-.41-5.46c-.09-.84-.2-1.68-.32-2.51-.06-.47-.13-.93-.2-1.39a21.17,21.17,0,0,0-.89-3.59s0,0,0,0c0,.5,0,1-.07,1.49s-.12,1.12-.2,1.67v0c-.43,3.05-.93,6.1-1.28,9.16-.21,1.91-.38,3.82-.48,5.73-.07,1.46-.11,2.93-.16,4.39-.21,6.15-.5,12.29-.69,18.44-.1,3.23-.22,6.47-.28,9.7s-.19,6.65-.16,10l.06,5.93c0,1.63.12,3.27.18,4.91.11,2.86.29,5.72.54,8.56.15,1.61.24,3.24.43,4.85L1493,854c.2,1.7.46,3.4.7,5.11.08.59.2,1.17.31,1.76.14.77.27,1.55.45,2.32.7,2.94,1.44,5.86,2.19,8.79s1.34,5.83,1.93,8.76,1.33,5.78,2,8.67c.34,1.5.71,3,1,4.51.32,1.35.62,2.71,1,4.06a30.93,30.93,0,0,0,1.94,5.78,12,12,0,0,0,.81,1.32c.22.33.44.65.67,1s.58.74.88,1.1l.45.5a9.71,9.71,0,0,0,1.31,1.09,7.62,7.62,0,0,0,2.45,1.1,11.24,11.24,0,0,0,2.38.37c.87.07,1.73.12,2.61.16l4.41.21c1.38.07,2.76.16,4.14.26.65,0,1.3.08,2,.15l2,.23c1.51.24,3,.49,4.52.77.76.14,1.51.32,2.26.48l2.45.55c2.87.63,5.75,1.21,8.63,1.78l10.49,2.09c1.54.31,3.1.54,4.65.81l2.56.41a26.55,26.55,0,0,0,6.78.32,9.24,9.24,0,0,0,1.48-.3l.46-.18a4.82,4.82,0,0,0,.91-.45,6.68,6.68,0,0,0,1.18-.94,5.92,5.92,0,0,0,.83-1,5.49,5.49,0,0,0,.55-1.21c0-.15.06-.3.08-.45a4.1,4.1,0,0,0,.08-1,5.74,5.74,0,0,0-.2-1.37,9.28,9.28,0,0,0-.35-1c-.5-1.45-1-2.88-1.63-4.29-.34-.81-.69-1.61-1.07-2.4s-.74-1.33-1.13-2a29,29,0,0,0-3-3.94c-.94-1.09-1.91-2.18-2.9-3.22s-2.25-2.25-3.41-3.33-2.19-1.94-3.34-2.84a31.06,31.06,0,0,1-3.25-2.92c-.14-.16-.28-.31-.41-.48a8.09,8.09,0,0,1-.61-1l-.09-.35a15.73,15.73,0,0,1,.15-2.06v0c.12-.86.23-1.71.34-2.57a3.1,3.1,0,0,0,0-.61c0-.61,0-1.22,0-1.83,0-.3,0-.6,0-.91s0-.49.07-.72l.33-3.37c.27-2.71.51-5.43.75-8.14.29-3.18.62-6.35.87-9.53l1-12.09q.78-9.83,1.55-19.65c.51-6.52.94-13,1.41-19.57s1-13,1.51-19.54q.7-9.08,1.38-18.14l.72-9.63c.18-2.38.28-4.76.42-7.13l.81-13.86c.08-1.51.17-3,.26-4.52,0-.43,0-.86,0-1.3q0-11.61,0-23.22c0-1.94-.14-3.88-.24-5.82q-.35-6.78-.7-13.55c-.33-6.41-.83-12.82-1.28-19.22-.06-.91-.15-1.82-.19-2.73,0-1.34-.12-2.67-.18-4q-.25-6-.52-11.92c0-.85,0-1.71-.06-2.56,0-2.34-.07-4.67-.18-7-.24-5-.73-10.05-1.35-15,0,0,0,0,0,0A0,0,0,0,0,1561.92,623.57Z"/><path d="M1313.74,458.3a2,2,0,0,0-.88.41,5.86,5.86,0,0,0-1.14,1.14c-.45.49-.87,1-1.27,1.49-1.18,1.54-2.25,3.13-3.3,4.76-.66,1-1.32,2.07-1.93,3.14-.79,1.37-1.54,2.75-2.31,4.13-2.46,4.4-4.93,8.81-7.34,13.25l-5.08,9.38c-1,1.75-1.85,3.53-2.77,5.3q-2.38,4.65-4.79,9.29c-.85,1.66-1.66,3.34-2.49,5-2.38,4.79-4.77,9.58-7.11,14.39q-2.49,5.13-5,10.26c-.78,1.61-1.58,3.2-2.32,4.83q-2.2,4.9-4.43,9.8l-1.83,4c-.23.51-.46,1-.66,1.55q-1.81,4.72-3.64,9.44c-.56,1.43-1.11,2.87-1.67,4.3-.19.5-.38,1-.54,1.49q-1.53,4.81-3.07,9.65c-.63,2-1.3,3.94-1.88,5.92-1.51,5.2-3,10.4-4.52,15.59-1.6,5.45-3.24,10.89-4.8,16.34q-2.42,8.43-4.84,16.85c-1.41,4.89-2.88,9.76-4.28,14.66l-2.73,9.55c-.73,2.56-1.35,5.15-2,7.72a77.66,77.66,0,0,0-1.58,8,67.92,67.92,0,0,0-.74,7.4c-.11,2.8-.23,5.59-.27,8.39q-.11,8.19-.14,16.38c0,2.62,0,5.23,0,7.85,0,.76,0,1.52,0,2.28s-.11,1.28-.16,1.91,0,1.24,0,1.87,0,1.41,0,2.12c0,5,0,10,0,14.95,0,2.55,0,5.11,0,7.66,0,1.32,0,2.65,0,4-.05,1.62-.1,3.23-.16,4.85-.09,2.59-.22,5.17-.38,7.76s-.43,4.9-.58,7.36c-.32,5.23-.55,10.46-.63,15.7,0,1.29,0,2.58,0,3.87s.06,2.72.12,4.08c.1,2.6.37,5.19.64,7.78s.61,5,1,7.47.86,4.91,1.28,7.37c.85,5,1.67,10.09,2.4,15.16.22,1.68.43,3.36.65,5-.44-.48-.85-1-1.26-1.47-1.14-1.53-2.21-3.09-3.22-4.71-1.29-2.07-2.43-4.22-3.54-6.39-.75-1.45-1.42-2.93-2.1-4.43-1.47-3.23-2.95-6.46-4.41-9.7q-2.89-7.23-5.76-14.46l-1.2-3c-.13-.33-.27-.65-.39-1-.73-2.09-1.45-4.18-2.19-6.28q-2.69-7.74-5.39-15.48c-.32-.93-.58-1.9-.87-2.85q-.71-2.34-1.38-4.69-1.5-5.16-2.77-10.38a202.89,202.89,0,0,1-3.84-20.77q-.74-5.62-1.17-11.27c-.15-2-.27-3.92-.38-5.88-.1-1.64-.22-3.3-.27-4.95q-.12-4-.23-8.09c-.14-5-.34-9.95-.38-14.93q-.09-10.07-.19-20.13c0-5.44,0-10.88,0-16.33l0-13.91c0-5.33,0-10.66,0-16,0-3.72.09-7.44.14-11.16,0-1.18,0-2.36,0-3.54,0-.69.07-1.37.11-2.06l.66-10.33c0-.76.14-1.51.23-2.26.21-2,.43-3.93.64-5.89.32-2.84.67-5.69,1-8.52.2-1.39.43-2.75.76-4.11.21-.87.4-1.73.57-2.61s.29-1.75.44-2.62a2.17,2.17,0,0,0-.2-1.54,2,2,0,0,0-1.2-.92,4.82,4.82,0,0,0-2.2-.09,4.68,4.68,0,0,0-2.1,1.58,16.38,16.38,0,0,0-2.43,4.72c-.6,1.38-1.31,2.71-2,4.07-.84,1.7-1.63,3.42-2.41,5.15-1.32,2.91-2.59,5.84-3.93,8.74l-3.15,6.78q-3.83,8.26-7.66,16.51c-.83,1.8-1.57,3.63-2.36,5.45q-2.38,5.46-4.76,10.93-1.83,4.17-3.64,8.35c-.45,1-.86,2-1.28,3.06q-2.34,5.75-4.58,11.53c-2.87,7.43-5.41,15-7.69,22.62s-4.26,15.44-5.88,23.28c-.78,3.78-1.47,7.59-2.12,11.39-.33,1.91-.63,3.82-.94,5.73-.34,2.07-.7,4.16-1,6.25-.23,1.75-.44,3.51-.66,5.26l-2.73,22.2c-.17,1.34-.36,2.67-.5,4-.22,2.32-.45,4.63-.67,7l-2.1,21.43c-.44,4.5-.74,9-1.09,13.53-.29,3.62-.57,7.24-.86,10.86-.1,1.29-.2,2.57-.26,3.86q-.46,10-1,20c0,.34,0,.68,0,1l0,4q.06,5.82.1,11.64c0,1.7,0,3.4.07,5.1q.33,5,.65,10.09.25,3.86.5,7.73c0,.23.06.48.09.72.08.62.15,1.24.22,1.86.25,2,.49,4,.74,6l.6,4.91c.09.74.17,1.48.29,2.21.53,3.2,1,6.39,1.58,9.59.16,1,.36,1.93.54,2.9.26,1.38.5,2.77.79,4.14s.61,2.9.91,4.35c.1.45.21.9.32,1.34.18.72.33,1.46.53,2.17l.6,2.05a13.9,13.9,0,0,0,.75,2c.08.18.17.36.25.53a8.59,8.59,0,0,0,.77,1.27,6.9,6.9,0,0,0,1.34,1.41,7.87,7.87,0,0,0,1.41.87q.81.42,1.59.87c2.22,1.33,4.43,2.68,6.61,4.08s4,2.67,6,4c1,.68,2.14,1.25,3.24,1.83l2.24,1.16c1.9,1,3.82,1.84,5.78,2.67,1.55.66,3.1,1.27,4.68,1.82a43.45,43.45,0,0,0,5.24,1.38c1.78.38,3.58.65,5.39.9,2,.27,4,.45,6,.57,4.39.26,8.8.16,13.19.07,2.79-.06,5.58-.12,8.37-.16,3.21-.05,6.4-.12,9.61,0,3.46.15,6.91.53,10.35,1,3.66.51,7.29,1.16,10.91,1.9,2,.4,3.89.81,5.82,1.28l10.49,2.56c4.61,1.13,9.15,2.49,13.74,3.69l9.11,2.37c1.1.29,2.21.56,3.32.84,1.56.39,3.12.8,4.7,1.14,2.64.57,5.3,1,8,1.4,1.26.19,2.51.36,3.77.52a23.47,23.47,0,0,0,4.73.31l.57-.06s0,0,0,0q-.54-.14-1.08-.3c-.48-.16-1-.35-1.42-.54l.12,0c-2.4-1.09-4.83-2.12-7.3-3.06-2.24-.85-4.53-1.57-6.83-2.22-2.61-.73-5.27-1.32-7.89-2l-9.38-2.45c-4.71-1.22-9.37-2.6-14.09-3.76l-10.23-2.5c-2.27-.55-4.57-1-6.86-1.46-3.88-.77-7.78-1.37-11.7-1.86-2.61-.33-5.22-.55-7.84-.72-2.88-.18-5.78-.17-8.67-.12l-7.86.15-7.17.14c-1.9,0-3.81,0-5.71-.06-2.68-.06-5.34-.26-8-.58-2.28-.32-4.55-.72-6.8-1.24a49.23,49.23,0,0,1-7.38-2.48,97.91,97.91,0,0,1-10.12-5c-1.71-1-3.31-2.17-5-3.25s-3.46-2.29-5.23-3.36l-2.73-1.64c-1.05-.62-2.14-1.18-3.2-1.79a5.1,5.1,0,0,1-.46-.47l-.41-.61c-.14-.25-.28-.51-.4-.78a27.59,27.59,0,0,1-1.12-3.55c-.27-1.1-.57-2.2-.8-3.3-.49-2.35-1-4.7-1.43-7.06-.41-2.16-.81-4.3-1.17-6.47-.42-2.59-.85-5.17-1.27-7.76s-.67-5.46-1-8.2l-.6-4.91c-.07-.55-.14-1.1-.18-1.65q-.57-9-1.16-18c0-.55,0-1.12,0-1.68,0-1.68,0-3.36,0-5l-.09-11.34c0-.85,0-1.7,0-2.54,0-.56,0-1.13.07-1.68.18-3.6.35-7.19.52-10.79.14-3,.28-6,.43-9.08.07-1.53.23-3.06.35-4.58q.8-10.23,1.6-20.45c.1-1.2.23-2.4.35-3.6.34-3.53.68-7.07,1-10.6q.57-5.75,1.12-11.47l.36-3.68c.05-.48.08-.95.14-1.42,1.31-10.34,2.52-20.68,3.83-31,1.07-6.91,2.19-13.82,3.54-20.68s3-13.77,4.92-20.57,4-13.46,6.37-20.08,5.1-13.44,7.81-20.09l6.3-14.47,3.83-8.79c.44-1,.88-2,1.34-3l8.35-18c.83-1.79,1.67-3.59,2.5-5.39,1.58-3.44,3.08-6.93,4.67-10.37.75-1.62,1.54-3.22,2.35-4.81-.06.45-.13.91-.19,1.36-.23,1.82-.45,3.64-.68,5.46-.34,2.82-.64,5.64-1,8.46-.1,1-.24,1.9-.31,2.85-.09,1.4-.17,2.8-.26,4.21l-.36,5.65c0,.87-.15,1.74-.16,2.61-.07,5.62-.15,11.24-.2,16.86,0,2.41,0,4.82,0,7.22,0,3.76,0,7.52,0,11.28,0,9.57,0,19.14.1,28.71l.18,19.46c0,2,.11,4,.17,5.93l.33,11.56c0,1,.06,2.06.08,3.09,0,.73.08,1.47.12,2.2.12,2.28.25,4.57.4,6.85a219.21,219.21,0,0,0,2.92,23.69,223.33,223.33,0,0,0,5.68,23.64c.6,2,1.16,4.07,1.86,6.06.41,1.17.82,2.34,1.22,3.51q3.12,9,6.25,18c.19.54.43,1.07.64,1.6q.94,2.4,1.9,4.78,2.06,5.17,4.12,10.35c.47,1.18.94,2.35,1.47,3.51l4,8.79c.4.88.79,1.75,1.19,2.62.28.61.6,1.21.9,1.81.83,1.64,1.71,3.25,2.62,4.84a59.1,59.1,0,0,0,5.14,7.52,20.36,20.36,0,0,0,2.53,2.64,3.87,3.87,0,0,0,1.44.87l.61.15,1.19.16a2,2,0,0,0,1-.28,1.88,1.88,0,0,0,.91-1.19c.12-.6.21-1.2.29-1.82,0-.31,0-.62-.07-.94s-.1-.76-.16-1.14q-1-8.31-2.4-16.57c-.87-5.26-1.87-10.5-2.61-15.78-.32-2.49-.6-5-.79-7.48q-.15-2.07-.24-4.14c-.06-1.42-.07-2.84-.1-4.25,0-1.23,0-2.46.06-3.69s.06-2.58.09-3.86c.06-2.56.16-5.12.32-7.67.17-2.77.36-5.54.59-8.3s.38-5.51.5-8.27c.09-2.39.21-4.8.24-7.2q0-4.51,0-9,0-7.08,0-14.17c0-1.14,0-2.28,0-3.42v-3c0-.3-.07-.61-.09-.9a16.39,16.39,0,0,1-.14-1.72c0-.76,0-1.52,0-2.28,0-1.26,0-2.52-.05-3.78-.09-5.19-.17-10.37-.16-15.55,0-2.47,0-4.93,0-7.4,0-1.76.09-3.52.14-5.28.07-2.46.3-4.9.6-7.34a73.06,73.06,0,0,1,1.42-7.65l1.38-5.55c.61-2.46,1.33-4.89,2-7.34,1.59-5.65,3.24-11.28,4.89-16.92,1.55-5.31,3.06-10.63,4.59-16,1.48-5.17,3-10.33,4.52-15.5q1.7-5.75,3.35-11.5,1.17-4,2.32-8c.41-1.42.88-2.81,1.33-4.22q1.47-4.59,2.93-9.19c.39-1.23.77-2.45,1.24-3.65q2.7-7,5.41-14,3.45-7.62,6.93-15.23c.27-.56.56-1.12.83-1.68l2.37-4.84,4.56-9.31c2.45-5,5-10,7.46-15,2.39-4.8,4.91-9.55,7.37-14.32,1.55-3,3.17-5.92,4.77-8.87q2.65-4.86,5.34-9.71,2.85-5.14,5.73-10.29c.78-1.41,1.55-2.81,2.28-4.24a81.75,81.75,0,0,1,4.18-7.77l.31-.3h.07a4.29,4.29,0,0,1,.22.94h0c.11.8.21,1.59.31,2.39,0,0,0,0,0,0,.07-.48.14-1,.2-1.44,0-.16.05-.32.07-.48s0-.37.07-.56a4.45,4.45,0,0,0,0-1.41.5.5,0,0,0-.38-.49,4.24,4.24,0,0,0-.68-.07Z"/><path d="M1380.69,743.05a38.13,38.13,0,0,0,6.59,5.29c2.46,1.58,5.11,2.85,7.69,4.21s5.09,2.75,7.6,4.19a64.26,64.26,0,0,1,18.81,16,67,67,0,0,1,8.16,14.08,64,64,0,0,1,2.85,8.52,77.2,77.2,0,0,1,1.75,9l-.06-.35a90.13,90.13,0,0,1,.76,11.49,87,87,0,0,1-.78,11.52,123,123,0,0,1-8.22,29.91v0c-1.56,3.66-3.29,7.25-5.12,10.78s-3.81,7.15-5.9,10.61c-4.13,6.86-9,13.21-13.79,19.65-3.64,4.61-7.26,9.25-10.89,13.87-1.5,1.9-3,3.77-4.56,5.66s-3.14,3.89-4.72,5.83q-2.14,2.64-4.31,5.27c-1.62,2-3.27,4-4.85,6-.4.51-.77,1-1.15,1.57a3.2,3.2,0,0,0-.69,1.64,4.27,4.27,0,0,0,1.73,3.63,18.15,18.15,0,0,0,3.63,2.21c1,.51,2,1,3.09,1.42,2.25.94,4.51,1.86,6.76,2.81l-.39-.17,1.37.58-.4-.17,3.25,1.38,1.77.74c.33.14.67.32,1,.43l.3.12.64.27.1,0c1.12.48,2.21,1,3.31,1.53l4.39,2c1,.46,2,1,3,1.51,1.32.67,2.64,1.34,4,2,.34.18.66.39,1,.59l2.6,1.51,2.17,1.27c.26.15.52.3.76.47l4.37,2.94c.83.56,1.65,1.13,2.45,1.74l3.82,2.86c1,.76,2,1.54,2.92,2.31a9.08,9.08,0,0,1,.77.62l1.58,1.51c.32.31.63.64,1,.92l1.63,1.36c.32.27.63.54.93.82.61.53,1.22,1.06,1.79,1.63a2.75,2.75,0,0,1,.17.29l.06.22v.29a.3.3,0,0,0,0,.1l-.26.43a9.58,9.58,0,0,1-1.08,1,31.15,31.15,0,0,1-2.86,1.79,41.62,41.62,0,0,1-3.8,1.85,73.15,73.15,0,0,1-9.56,3.24,87.2,87.2,0,0,1-10.36,2,100.29,100.29,0,0,1-15.39.79c-2.55-.06-5.09-.26-7.63-.5-1.39-.14-2.79-.27-4.18-.44-3.78-.47-7.55-.95-11.33-1.41-5.47-.8-11-1.57-16.41-2.42s-10.75-1.64-16.11-2.57c-1.05-.18-2.08-.38-3.13-.59a23.83,23.83,0,0,1-4.06-1.08,51.31,51.31,0,0,1-5.84-3.47c-.77-.5-1.57-.95-2.36-1.41l-2.8-1.63-5.56-3.2c-1-.55-1.87-1.13-2.8-1.73s-1.67-1.17-2.48-1.78l-1.56-1.2c-.66-.49-1.31-1-2-1.39a26.11,26.11,0,0,0-7.5-3.16,64,64,0,0,0-9.71-1.86s0,0,0,0c2.53,1.27,5,2.61,7.55,3.94q1.06.57,2.16,1.11a40.94,40.94,0,0,1,4.39,2.57c1.22.81,2.39,1.7,3.56,2.57l-.4-.31c1.15.89,2.31,1.78,3.5,2.62s2.17,1.39,3.28,2.05c2.19,1.29,4.42,2.52,6.61,3.81l3.8,2.24c1.13.66,2.22,1.4,3.33,2.1a21,21,0,0,0,5,2.39c1.47.44,3,.69,4.52,1,1.15.23,2.3.41,3.45.6,1.35.22,2.69.45,4,.66l7.79,1.21c2.68.41,5.35.85,8,1.24l10.23,1.47c2.59.37,5.2.66,7.8,1l4.89.61c2.69.33,5.39.57,8.09.77a100.57,100.57,0,0,0,24.25-1.37,76,76,0,0,0,11.28-2.83,56.19,56.19,0,0,0,10.52-4.67,16,16,0,0,0,3.57-2.71,6.26,6.26,0,0,0,1.1-1.65,4.27,4.27,0,0,0,.34-1.14,5.54,5.54,0,0,0,0-1.22,5.84,5.84,0,0,0-.58-2,4.92,4.92,0,0,0-.7-1,8,8,0,0,0-.85-.8l-1.44-1.28c-.4-.35-.82-.69-1.24-1s-.91-.8-1.41-1.15l-1.81-1.23c-.37-.24-.75-.48-1.1-.74l-3.39-2.65c-1.15-.9-2.33-1.75-3.49-2.62-.86-.63-1.7-1.27-2.58-1.87l-4.58-3.08c-.81-.54-1.64-1-2.49-1.52l-4.46-2.6c-.22-.13-.45-.24-.67-.36l-2.36-1.19c-1.32-.67-2.63-1.35-4-2-.7-.36-1.42-.66-2.13-1l-4.06-1.89c-.6-.28-1.2-.58-1.8-.84l-1.18-.5-.25-.11-1.5-.63q-6-2.55-12-5a35.75,35.75,0,0,1-5.59-2.92c-.21-.19-.41-.37-.61-.58a2,2,0,0,1-.14-.25s0-.09,0-.14h0a20,20,0,0,1,1.86-2.94c.5-.69,1-1.39,1.51-2.07l-.2.26c6.75-8.71,13.68-17.27,20.5-25.92l6-7.63c.32-.41.63-.82.94-1.24,1.19-1.61,2.4-3.22,3.6-4.83,2.3-3.09,4.58-6.22,6.74-9.42s4.14-6.5,6-9.87,3.75-6.88,5.46-10.41,3.23-7,4.61-10.62,2.54-7.35,3.57-11.1a107.26,107.26,0,0,0,3.84-23,85.77,85.77,0,0,0-2-22.76,66.45,66.45,0,0,0-8.62-20.71,58.12,58.12,0,0,0-6.7-8.75,75.11,75.11,0,0,0-8.22-7.53,85,85,0,0,0-11.8-7.51c-.93-.51-1.86-1-2.8-1.53a33.4,33.4,0,0,0-3.28-1.5c-2.2-.92-4.44-1.73-6.63-2.64a68.36,68.36,0,0,1-6.67-3.24h0S1380.68,743,1380.69,743.05Z"/><path d="M1491.36,866.66c-.42.09-.84.17-1.26.3a7.63,7.63,0,0,0-1.34.6,13.81,13.81,0,0,0-2.71,2.11c-.74.67-1.44,1.41-2.14,2.12s-1.27,1.37-1.89,2.06a29.72,29.72,0,0,1-3.33,3.49c-3.07,2.22-6.31,4.2-9.53,6.19s-6.26,3.84-9.42,5.72c-6.44,3.85-12.9,7.67-19.41,11.4-3.41,2-6.81,3.93-10.23,5.85L1418.42,913c-3.27,1.84-6.65,3.48-9.9,5.36-1.75,1-3.46,2.12-5.14,3.25-1.46,1-2.87,2-4.27,3.1s-2.91,2.32-4.32,3.53c0,0,0,0,0,0,2.79-1.06,5.54-2.2,8.27-3.4l-.3.13a108.61,108.61,0,0,0,10-4.77c3.29-1.8,6.6-3.58,9.87-5.45s6.77-3.83,10.14-5.79l12-7c3.39-2,6.73-4,10.1-6,3-1.82,6.09-3.67,9.12-5.52s6.28-3.85,9.41-5.77l5.24-3.2a20.59,20.59,0,0,0,2.66-1.88,12.29,12.29,0,0,0,2.19-2.68c.33-.51.66-1,1-1.53.52-.82,1-1.66,1.55-2.48.83-1.3,1.61-2.64,2.53-3.89a10.51,10.51,0,0,1,1.71-1.69c.35-.24.72-.44,1.08-.66,0,0,0,0,0,0Z"/><path d="M1597.58,610.51c-.64,2.16-1.35,4.29-2,6.45-.53,1.78-1,3.57-1.48,5.37-.92,3.68-1.53,7.4-2.15,11.14-.23,1.37-.49,2.75-.67,4.13,0-.15,0-.29,0-.44q-1.26,9.29-2.46,18.57c-.49,3.44-.95,6.89-1.52,10.32l-1.2,7.3c-.28,1.66-.61,3.31-.92,5-.75,4-1.47,8.08-2.19,12.12-.58,3.26-1.06,6.54-1.67,9.79q-.64,3.51-1.31,7c-.09.48-.21,1-.32,1.45-.3,1.3-.59,2.61-.89,3.93-.34,1.5-.69,3-1.09,4.49l-1.8,6.63c-.5,1.85-1.09,3.68-1.63,5.51-.43,1.46-.86,2.92-1.28,4.39q-1.82,6.2-3.57,12.4a91.07,91.07,0,0,0-2.16,9.35,121.13,121.13,0,0,0-1.43,12.6s0,0,0,0c1.73-4.09,3.26-8.25,4.62-12.48.71-2.21,1.32-4.45,1.88-6.7.47-1.89,1-3.76,1.55-5.64.93-3.37,1.87-6.73,2.85-10.09,1-3.65,2.13-7.3,3.11-11,.35-1.32.7-2.65,1.06-4,.15-.58.33-1.17.46-1.76l1.5-6.68c.35-1.57.63-3.15.93-4.74s.64-3.38.93-5.07c.68-4.06,1.35-8.11,2.08-12.17s1.47-8.1,2.22-12.15c.27-1.49.51-3,.75-4.48.32-1.91.68-3.83,1-5.75.53-3.74,1.09-7.47,1.57-11.21l.9-7q.63-4.57,1.25-9.15c.66-4,1.39-8,1.92-12,.48-3.6.84-7.24,1.07-10.87.09-1.55.12-3.11.1-4.66h0Z"/></svg>