<svg id="Layer_1" data-name="Layer 1" xmlns="http://www.w3.org/2000/svg" xmlns:xlink="http://www.w3.org/1999/xlink" viewBox="0 0 1920 1080"><defs><style>.cls-1{fill:none;}.cls-2{clip-path:url(#clip-path);}.cls-3{fill:url(#linear-gradient);}.cls-4{opacity:0.8;}.cls-5{fill:#ff8f8f;}.cls-6{fill:#ffe7e7;}.cls-7{fill:#ffd6d6;}.cls-8{fill:#ffb6b6;}.cls-9{fill:#ffc4c4;}.cls-10{fill:#fcc;}.cls-11{fill:#ffdbdb;}.cls-12{fill:#ffabab;}.cls-13{fill:#ffb5b5;}</style><clipPath id="clip-path"><circle class="cls-1" cx="1519.89" cy="410.48" r="354.52"/></clipPath><linearGradient id="linear-gradient" x1="1519.98" y1="55.87" x2="1519.98" y2="620.69" gradientUnits="userSpaceOnUse"><stop offset="0" stop-color="red" stop-opacity="0.6"/><stop offset="0.11" stop-color="#f0f" stop-opacity="0.29"/><stop offset="1" stop-color="#f0f" stop-opacity="0"/></linearGradient></defs><g class="cls-2"><rect class="cls-3" x="1162.61" y="55.87" width="714.73" height="564.81"/></g><path d="M100.39,417.41a2.61,2.61,0,0,1-.78-1.92v-37a2.71,2.71,0,0,1,.78-2,2.55,2.55,0,0,1,1.92-.81,2.77,2.77,0,0,1,2.76,2.76v37a2.56,2.56,0,0,1-.81,1.92,2.73,2.73,0,0,1-2,.78A2.59,2.59,0,0,1,100.39,417.41Z"/><path d="M116.77,410.57V392h-4.26a1.13,1.13,0,0,1-1.14-1.14,1.25,1.25,0,0,1,.54-1l8.16-8a1.51,1.51,0,0,1,1-.54,1.06,1.06,0,0,1,.81.36,1.25,1.25,0,0,1,.33.84v4.8H129a2.26,2.26,0,0,1,2.34,2.34,2.3,2.3,0,0,1-.66,1.65A2.22,2.22,0,0,1,129,392h-6.78v18.12c0,1.56.36,2.55,1.11,3a5.59,5.59,0,0,0,2.79.63,8.32,8.32,0,0,0,2.4-.36l.51-.12a3.27,3.27,0,0,1,.69-.06,2.11,2.11,0,0,1,1.5.63,2,2,0,0,1,.66,1.53,2.27,2.27,0,0,1-1.38,2.1,11.74,11.74,0,0,1-5,1.08Q116.77,418.49,116.77,410.57Z"/><path d="M154.26,417.41a2.61,2.61,0,0,1-.78-1.92V376.55a2.71,2.71,0,0,1,.78-1.95,2.56,2.56,0,0,1,1.92-.81,2.77,2.77,0,0,1,2.76,2.76v15.66a19.94,19.94,0,0,1,4.92-4,12.42,12.42,0,0,1,6.24-1.5,10.37,10.37,0,0,1,5.73,1.56,10.14,10.14,0,0,1,3.72,4.26,13.6,13.6,0,0,1,1.29,5.94v17a2.56,2.56,0,0,1-.81,1.92,2.71,2.71,0,0,1-1.95.78,2.66,2.66,0,0,1-2.7-2.7V399.05q0-7.32-6.6-7.32a9.55,9.55,0,0,0-5.37,1.56,19.44,19.44,0,0,0-4.47,4.2v18a2.56,2.56,0,0,1-.81,1.92,2.71,2.71,0,0,1-1.95.78A2.61,2.61,0,0,1,154.26,417.41Z"/><path d="M192.93,417.41a8.52,8.52,0,0,1-3.57-3.15,8.68,8.68,0,0,1-1.32-4.77,8.41,8.41,0,0,1,3.51-7.08q3.51-2.64,10.29-2.64h7.26v-.48q0-4-1.95-5.7t-6.09-1.74a20.45,20.45,0,0,0-4.05.36,34,34,0,0,0-3.93,1.08,3.37,3.37,0,0,1-.78.12,2.13,2.13,0,0,1-1.56-.66,2.2,2.2,0,0,1-.66-1.62,2.31,2.31,0,0,1,1.56-2.28A26.39,26.39,0,0,1,202,386.69a13.55,13.55,0,0,1,7,1.68,10.56,10.56,0,0,1,4.2,4.35,12.65,12.65,0,0,1,1.35,5.79v17a2.56,2.56,0,0,1-.81,1.92,2.71,2.71,0,0,1-1.95.78,2.66,2.66,0,0,1-2.7-2.7v-1.56a15.07,15.07,0,0,1-11.28,4.56A11.15,11.15,0,0,1,192.93,417.41Zm12-5a14.18,14.18,0,0,0,4.14-3.21v-5h-6.54q-9.06,0-9.06,4.74a4.45,4.45,0,0,0,1.47,3.48q1.47,1.32,4.89,1.32A10.85,10.85,0,0,0,205,412.4Z"/><path d="M222.72,415.79a2.29,2.29,0,0,1-1-2,2.41,2.41,0,0,1,.66-1.68,2.18,2.18,0,0,1,1.68-.72,2.64,2.64,0,0,1,1.08.24A24.25,24.25,0,0,0,229,413a17.85,17.85,0,0,0,4.32.48q6.66,0,6.66-4.26a2.27,2.27,0,0,0-1.53-2.1,31.33,31.33,0,0,0-5-1.62,45.27,45.27,0,0,1-5.85-1.74,10.29,10.29,0,0,1-4-2.73,6.94,6.94,0,0,1-1.65-4.83,8.65,8.65,0,0,1,3-6.84q3-2.64,8.67-2.64a25,25,0,0,1,8.7,1.5,2.25,2.25,0,0,1,1.29.9,2.41,2.41,0,0,1,.45,1.38,2.35,2.35,0,0,1-.69,1.68,2.27,2.27,0,0,1-1.71.72,3.37,3.37,0,0,1-.78-.12,23,23,0,0,0-6.84-1.08,9.37,9.37,0,0,0-5.07,1.17,3.49,3.49,0,0,0-1.83,3,2.77,2.77,0,0,0,1.68,2.64,24,24,0,0,0,5.22,1.62,50,50,0,0,1,5.76,1.77,9.52,9.52,0,0,1,3.81,2.73,7.41,7.41,0,0,1,1.59,5,7.93,7.93,0,0,1-3,6.36q-3,2.52-8.55,2.52A22.32,22.32,0,0,1,222.72,415.79Z"/><path d="M273.75,416.6a14.34,14.34,0,0,1-5.4-5.52,18.45,18.45,0,0,1,0-17,14.34,14.34,0,0,1,5.4-5.52,14.07,14.07,0,0,1,7.05-1.89,13.79,13.79,0,0,1,10.26,4.56v-14.7a2.63,2.63,0,0,1,.81-2,2.71,2.71,0,0,1,1.95-.78,2.56,2.56,0,0,1,1.92.81,2.71,2.71,0,0,1,.78,1.95v38.94a2.66,2.66,0,0,1-2.7,2.7,2.71,2.71,0,0,1-1.95-.78,2.56,2.56,0,0,1-.81-1.92v-1.56a13.79,13.79,0,0,1-10.26,4.56A14.07,14.07,0,0,1,273.75,416.6Zm13-4.44a14.82,14.82,0,0,0,4.29-3.27v-12.6a14.82,14.82,0,0,0-4.29-3.27,11.33,11.33,0,0,0-5.19-1.23,9.43,9.43,0,0,0-7.14,2.82q-2.7,2.82-2.7,8t2.7,8a9.43,9.43,0,0,0,7.14,2.82A11.33,11.33,0,0,0,286.77,412.16Z"/><path d="M308.91,417.41a8.52,8.52,0,0,1-3.57-3.15,8.68,8.68,0,0,1-1.32-4.77,8.41,8.41,0,0,1,3.51-7.08q3.51-2.64,10.29-2.64h7.26v-.48q0-4-1.95-5.7T317,391.85a20.45,20.45,0,0,0-4.05.36,34,34,0,0,0-3.93,1.08,3.37,3.37,0,0,1-.78.12,2.13,2.13,0,0,1-1.56-.66,2.2,2.2,0,0,1-.66-1.62,2.31,2.31,0,0,1,1.56-2.28A26.39,26.39,0,0,1,318,386.69a13.55,13.55,0,0,1,7,1.68,10.56,10.56,0,0,1,4.2,4.35,12.65,12.65,0,0,1,1.35,5.79v17a2.56,2.56,0,0,1-.81,1.92,2.71,2.71,0,0,1-2,.78,2.66,2.66,0,0,1-2.7-2.7v-1.56a15.07,15.07,0,0,1-11.28,4.56A11.15,11.15,0,0,1,308.91,417.41Zm12-5a14.18,14.18,0,0,0,4.14-3.21v-5h-6.54q-9.06,0-9.06,4.74a4.45,4.45,0,0,0,1.47,3.48q1.47,1.32,4.89,1.32A10.85,10.85,0,0,0,320.94,412.4Z"/><path d="M347,431.39a23,23,0,0,1-5.82-2.22,2.28,2.28,0,0,1-1.08-2.1,2.46,2.46,0,0,1,.69-1.71,2.23,2.23,0,0,1,1.71-.75,3,3,0,0,1,1.08.24,21.83,21.83,0,0,0,9.9,2.28q9.18,0,9.18-9.78v-4a13.54,13.54,0,0,1-10.26,4.56,14.46,14.46,0,0,1-6.87-1.77,14.3,14.3,0,0,1-5.49-5.28,18,18,0,0,1,0-17.1,14.3,14.3,0,0,1,5.49-5.28,14.46,14.46,0,0,1,6.87-1.77,13.54,13.54,0,0,1,10.26,4.56v-1.5a2.71,2.71,0,0,1,.78-1.95,2.56,2.56,0,0,1,1.92-.81,2.77,2.77,0,0,1,2.76,2.76v26.82q0,7.56-3.66,11.64T354,432.29A28.4,28.4,0,0,1,347,431.39Zm11.52-19.68a18,18,0,0,0,4.14-3.24V396.11a18,18,0,0,0-4.14-3.24,10.08,10.08,0,0,0-5-1.2,10.19,10.19,0,0,0-7.35,2.73q-2.85,2.73-2.85,7.89t2.85,7.89a10.19,10.19,0,0,0,7.35,2.73A10.08,10.08,0,0,0,358.5,411.71Z"/><path d="M384.84,431.39a23,23,0,0,1-5.82-2.22,2.28,2.28,0,0,1-1.08-2.1,2.46,2.46,0,0,1,.69-1.71,2.23,2.23,0,0,1,1.71-.75,3,3,0,0,1,1.08.24,21.83,21.83,0,0,0,9.9,2.28q9.18,0,9.18-9.78v-4a13.54,13.54,0,0,1-10.26,4.56,14.46,14.46,0,0,1-6.87-1.77,14.3,14.3,0,0,1-5.49-5.28,18,18,0,0,1,0-17.1,14.3,14.3,0,0,1,5.49-5.28,14.46,14.46,0,0,1,6.87-1.77,13.54,13.54,0,0,1,10.26,4.56v-1.5a2.71,2.71,0,0,1,.78-1.95,2.56,2.56,0,0,1,1.92-.81,2.77,2.77,0,0,1,2.76,2.76v26.82q0,7.56-3.66,11.64t-10.44,4.08A28.4,28.4,0,0,1,384.84,431.39Zm11.52-19.68a18,18,0,0,0,4.14-3.24V396.11a18,18,0,0,0-4.14-3.24,10.08,10.08,0,0,0-5-1.2A10.19,10.19,0,0,0,384,394.4q-2.85,2.73-2.85,7.89t2.85,7.89a10.19,10.19,0,0,0,7.35,2.73A10.08,10.08,0,0,0,396.36,411.71Z"/><path d="M417.69,414.32q-4.11-4.17-4.11-11.73a19.56,19.56,0,0,1,1.56-7.86,13.36,13.36,0,0,1,4.8-5.82,13.79,13.79,0,0,1,8-2.22,14,14,0,0,1,7.68,2.07,13.39,13.39,0,0,1,4.92,5.52,17,17,0,0,1,1.68,7.53,2.62,2.62,0,0,1-2.76,2.7H419.1a9.87,9.87,0,0,0,3.12,6.54q2.64,2.34,7.38,2.34a18,18,0,0,0,4.41-.48,18.32,18.32,0,0,0,3.69-1.38,2.38,2.38,0,0,1,1.08-.24,2.41,2.41,0,0,1,1.68.66,2.18,2.18,0,0,1,.72,1.68,2.59,2.59,0,0,1-1.56,2.22,18.74,18.74,0,0,1-10.5,2.64Q421.8,418.49,417.69,414.32Zm19.11-14.25a9.61,9.61,0,0,0-1.53-4.92,8.26,8.26,0,0,0-3.33-2.91,9.15,9.15,0,0,0-8,0,8.06,8.06,0,0,0-3.3,2.91,9.79,9.79,0,0,0-1.5,4.92Z"/><path d="M450.18,417.41a2.61,2.61,0,0,1-.78-1.92V389.75a2.71,2.71,0,0,1,.78-1.95,2.56,2.56,0,0,1,1.92-.81,2.77,2.77,0,0,1,2.76,2.76v2.58q4.2-5.64,9.42-5.64h.3a2.51,2.51,0,0,1,1.89.78,2.66,2.66,0,0,1,.75,1.92,2.42,2.42,0,0,1-.78,1.86,2.81,2.81,0,0,1-2,.72h-.3a10.23,10.23,0,0,0-5.28,1.41,12.16,12.16,0,0,0-4,3.87v18.24a2.56,2.56,0,0,1-.81,1.92,2.71,2.71,0,0,1-1.95.78A2.61,2.61,0,0,1,450.18,417.41Z"/><path d="M472.47,402.8a2.32,2.32,0,0,1-.69-1.71,2.42,2.42,0,0,1,.69-1.74,2.27,2.27,0,0,1,1.71-.72h11.34a2.46,2.46,0,0,1,2.46,2.46,2.27,2.27,0,0,1-.72,1.71,2.42,2.42,0,0,1-1.74.69H474.18A2.32,2.32,0,0,1,472.47,402.8Z"/><path d="M497.64,417.41a2.61,2.61,0,0,1-.78-1.92V376.55a2.71,2.71,0,0,1,.78-1.95,2.56,2.56,0,0,1,1.92-.81,2.67,2.67,0,0,1,2.76,2.76v38.94a2.56,2.56,0,0,1-.81,1.92,2.71,2.71,0,0,1-1.95.78A2.61,2.61,0,0,1,497.64,417.41Z"/><path d="M512.22,380.15a3,3,0,0,1-.9-2.16v-.24a3.07,3.07,0,0,1,3.06-3.06h.36a3.07,3.07,0,0,1,3.06,3.06V378a3.07,3.07,0,0,1-3.06,3.06h-.36A3,3,0,0,1,512.22,380.15Zm.36,37.26a2.61,2.61,0,0,1-.78-1.92V389.75a2.71,2.71,0,0,1,.78-1.95,2.56,2.56,0,0,1,1.92-.81,2.67,2.67,0,0,1,2.76,2.76v25.74a2.56,2.56,0,0,1-.81,1.92,2.71,2.71,0,0,1-2,.78A2.61,2.61,0,0,1,512.58,417.41Z"/><path d="M527.52,417.41a2.61,2.61,0,0,1-.78-1.92V376.55a2.71,2.71,0,0,1,.78-1.95,2.56,2.56,0,0,1,1.92-.81,2.77,2.77,0,0,1,2.76,2.76v24.54l14.28-13.2a2.76,2.76,0,0,1,1.8-.78,2.43,2.43,0,0,1,2,.78,2.87,2.87,0,0,1,.63,1.86,2.94,2.94,0,0,1-1,2l-8.64,7.74,10.86,14.4a2.63,2.63,0,0,1,.6,1.62,2.49,2.49,0,0,1-.78,1.92,2.81,2.81,0,0,1-2,.72,2.66,2.66,0,0,1-1.2-.3,3,3,0,0,1-1-.84l-10.32-14-5.22,4.74v7.74a2.56,2.56,0,0,1-.81,1.92,2.71,2.71,0,0,1-1.95.78A2.61,2.61,0,0,1,527.52,417.41Z"/><path d="M561.15,414.32Q557,410.15,557,402.59a19.56,19.56,0,0,1,1.56-7.86,13.36,13.36,0,0,1,4.8-5.82,13.79,13.79,0,0,1,8-2.22,14,14,0,0,1,7.68,2.07,13.39,13.39,0,0,1,4.92,5.52,17,17,0,0,1,1.68,7.53,2.62,2.62,0,0,1-2.76,2.7H562.56a9.87,9.87,0,0,0,3.12,6.54q2.64,2.34,7.38,2.34a18,18,0,0,0,4.41-.48,18.32,18.32,0,0,0,3.69-1.38,2.38,2.38,0,0,1,1.08-.24,2.41,2.41,0,0,1,1.68.66,2.18,2.18,0,0,1,.72,1.68,2.59,2.59,0,0,1-1.56,2.22,18.74,18.74,0,0,1-10.5,2.64Q565.26,418.49,561.15,414.32Zm19.11-14.25a9.61,9.61,0,0,0-1.53-4.92,8.26,8.26,0,0,0-3.33-2.91,9.15,9.15,0,0,0-8,0,8.06,8.06,0,0,0-3.3,2.91,9.79,9.79,0,0,0-1.5,4.92Z"/><path d="M614.64,416.57a14.78,14.78,0,0,1-5.85-5.52,17.44,17.44,0,0,1,0-16.92,14.78,14.78,0,0,1,5.85-5.52,16.92,16.92,0,0,1,8-1.92,16.63,16.63,0,0,1,5.49.81,20.74,20.74,0,0,1,4.29,2.07,2.39,2.39,0,0,1,.51,3.75,2.11,2.11,0,0,1-1.59.75,2.74,2.74,0,0,1-1.32-.36,22.85,22.85,0,0,0-3.39-1.47,11.7,11.7,0,0,0-3.51-.45,10.88,10.88,0,0,0-8.1,3,11.9,11.9,0,0,0,0,15.66,10.88,10.88,0,0,0,8.1,3,11.7,11.7,0,0,0,3.51-.45,22.85,22.85,0,0,0,3.39-1.47,2.74,2.74,0,0,1,1.32-.36,2.11,2.11,0,0,1,1.59.75,2.39,2.39,0,0,1-.51,3.75,20.74,20.74,0,0,1-4.29,2.07,16.63,16.63,0,0,1-5.49.81A16.92,16.92,0,0,1,614.64,416.57Z"/><path d="M641.22,417.41a2.61,2.61,0,0,1-.78-1.92V376.55a2.71,2.71,0,0,1,.78-1.95,2.56,2.56,0,0,1,1.92-.81,2.67,2.67,0,0,1,2.76,2.76v38.94a2.56,2.56,0,0,1-.81,1.92,2.71,2.71,0,0,1-2,.78A2.61,2.61,0,0,1,641.22,417.41Z"/><path d="M658.29,417.41a8.52,8.52,0,0,1-3.57-3.15,8.68,8.68,0,0,1-1.32-4.77,8.41,8.41,0,0,1,3.51-7.08q3.51-2.64,10.29-2.64h7.26v-.48q0-4-2-5.7t-6.09-1.74a20.45,20.45,0,0,0-4,.36,34,34,0,0,0-3.93,1.08,3.37,3.37,0,0,1-.78.12,2.13,2.13,0,0,1-1.56-.66,2.2,2.2,0,0,1-.66-1.62,2.31,2.31,0,0,1,1.56-2.28,26.39,26.39,0,0,1,10.38-2.16,13.55,13.55,0,0,1,7,1.68,10.56,10.56,0,0,1,4.2,4.35,12.65,12.65,0,0,1,1.35,5.79v17a2.56,2.56,0,0,1-.81,1.92,2.71,2.71,0,0,1-2,.78,2.66,2.66,0,0,1-2.7-2.7v-1.56a15.07,15.07,0,0,1-11.28,4.56A11.15,11.15,0,0,1,658.29,417.41Zm12-5a14.18,14.18,0,0,0,4.14-3.21v-5h-6.54q-9.06,0-9.06,4.74a4.45,4.45,0,0,0,1.47,3.48q1.47,1.32,4.89,1.32A10.85,10.85,0,0,0,670.32,412.4Z"/><path d="M695.52,417.47a3.66,3.66,0,0,1-1.32-1.8l-8.52-25a3.23,3.23,0,0,1-.18-1,2.66,2.66,0,0,1,2.7-2.7,2.74,2.74,0,0,1,1.53.45,2.21,2.21,0,0,1,.93,1.17l7,23.1,7-22.56a3.08,3.08,0,0,1,5.88,0l7,22.56,7-23.1a2.21,2.21,0,0,1,.93-1.17A2.74,2.74,0,0,1,727,387a2.66,2.66,0,0,1,2.7,2.7,3.23,3.23,0,0,1-.18,1l-8.52,25a3.66,3.66,0,0,1-1.32,1.8,3.6,3.6,0,0,1-4.32,0,4,4,0,0,1-1.38-1.86l-6.36-19.86-6.36,19.86a4,4,0,0,1-1.38,1.86,3.6,3.6,0,0,1-4.32,0Z"/><path d="M735.06,415.79a2.29,2.29,0,0,1-1-2,2.41,2.41,0,0,1,.66-1.68,2.18,2.18,0,0,1,1.68-.72,2.64,2.64,0,0,1,1.08.24A24.25,24.25,0,0,0,741.3,413a17.85,17.85,0,0,0,4.32.48q6.66,0,6.66-4.26a2.27,2.27,0,0,0-1.53-2.1,31.33,31.33,0,0,0-5-1.62,45.27,45.27,0,0,1-5.85-1.74,10.29,10.29,0,0,1-4-2.73,6.94,6.94,0,0,1-1.65-4.83,8.65,8.65,0,0,1,3-6.84q3-2.64,8.67-2.64a25,25,0,0,1,8.7,1.5,2.25,2.25,0,0,1,1.29.9,2.41,2.41,0,0,1,.45,1.38,2.35,2.35,0,0,1-.69,1.68,2.27,2.27,0,0,1-1.71.72,3.37,3.37,0,0,1-.78-.12,23,23,0,0,0-6.84-1.08,9.37,9.37,0,0,0-5.07,1.17,3.49,3.49,0,0,0-1.83,3,2.77,2.77,0,0,0,1.68,2.64,24,24,0,0,0,5.22,1.62,50,50,0,0,1,5.76,1.77,9.52,9.52,0,0,1,3.81,2.73,7.41,7.41,0,0,1,1.59,5,7.93,7.93,0,0,1-3,6.36q-3,2.52-8.55,2.52A22.32,22.32,0,0,1,735.06,415.79Z"/><path d="M764.43,426.41a1.78,1.78,0,0,1-.51-1.26,1.67,1.67,0,0,1,.9-1.5,6.85,6.85,0,0,0,2.28-2.1,6.41,6.41,0,0,0,.78-3.48h-.24a3.38,3.38,0,0,1-3.36-3.36v-.36a3.38,3.38,0,0,1,3.36-3.36h.6a3.38,3.38,0,0,1,3.36,3.36v3.54a9.65,9.65,0,0,1-4.92,8.76,1.89,1.89,0,0,1-1,.3A1.63,1.63,0,0,1,764.43,426.41Z"/><path d="M101.44,489.41a8.52,8.52,0,0,1-3.57-3.15,8.68,8.68,0,0,1-1.32-4.77,8.41,8.41,0,0,1,3.51-7.08q3.51-2.64,10.29-2.64h7.26v-.48q0-4-2-5.7t-6.09-1.74a20.31,20.31,0,0,0-4,.36,34,34,0,0,0-3.93,1.08,3.37,3.37,0,0,1-.78.12,2.13,2.13,0,0,1-1.56-.66,2.2,2.2,0,0,1-.66-1.62,2.3,2.3,0,0,1,1.56-2.28,26.35,26.35,0,0,1,10.38-2.16,13.55,13.55,0,0,1,7,1.68,10.56,10.56,0,0,1,4.2,4.35,12.65,12.65,0,0,1,1.35,5.79v17a2.56,2.56,0,0,1-.81,1.92,2.73,2.73,0,0,1-2,.78,2.66,2.66,0,0,1-2.7-2.7v-1.56a15.07,15.07,0,0,1-11.28,4.56A11.12,11.12,0,0,1,101.44,489.41Zm12-5a14.18,14.18,0,0,0,4.14-3.21v-5h-6.54q-9.06,0-9.06,4.74a4.45,4.45,0,0,0,1.47,3.48q1.47,1.32,4.89,1.32A10.85,10.85,0,0,0,113.47,484.4Z"/><path d="M132.88,489.41a2.63,2.63,0,0,1-.76-1.92V461.75a2.73,2.73,0,0,1,.76-1.95,2.47,2.47,0,0,1,1.87-.81,2.56,2.56,0,0,1,1.9.81,2.72,2.72,0,0,1,.79,1.95v2.46a19.42,19.42,0,0,1,4.79-4,11.83,11.83,0,0,1,6.07-1.5,9.73,9.73,0,0,1,9.2,5.82,13.87,13.87,0,0,1,1.26,5.94v17a2.68,2.68,0,0,1-2.69,2.7,2.51,2.51,0,0,1-1.87-.78,2.67,2.67,0,0,1-.76-1.92V471.05q0-7.32-6.42-7.32a9.12,9.12,0,0,0-5.23,1.56,19,19,0,0,0-4.35,4.2v18a2.68,2.68,0,0,1-2.69,2.7A2.51,2.51,0,0,1,132.88,489.41Z"/><path d="M173.16,488.6a14.23,14.23,0,0,1-5.26-5.52,18.94,18.94,0,0,1,0-17,14.23,14.23,0,0,1,5.26-5.52A13.3,13.3,0,0,1,190,463.25v-14.7a2.68,2.68,0,0,1,.78-2,2.61,2.61,0,0,1,1.9-.78,2.45,2.45,0,0,1,1.87.81,2.73,2.73,0,0,1,.76,1.95v38.94a2.63,2.63,0,0,1-.76,1.92,2.5,2.5,0,0,1-1.87.78,2.66,2.66,0,0,1-2.68-2.7v-1.56a13.3,13.3,0,0,1-16.86,2.67Zm12.68-4.44a14.49,14.49,0,0,0,4.18-3.27v-12.6a14.49,14.49,0,0,0-4.18-3.27,10.8,10.8,0,0,0-5.05-1.23,9.07,9.07,0,0,0-7,2.82q-2.62,2.82-2.63,8t2.63,8a9.07,9.07,0,0,0,7,2.82A10.8,10.8,0,0,0,185.84,484.16Z"/><path d="M220.51,503.18a2.73,2.73,0,0,1-.76-1.95V461.69a2.63,2.63,0,0,1,.76-1.92,2.51,2.51,0,0,1,1.87-.78,2.61,2.61,0,0,1,1.9.78,2.58,2.58,0,0,1,.79,1.92v1.56a13.26,13.26,0,0,1,10-4.56,13.41,13.41,0,0,1,6.86,1.89,14.15,14.15,0,0,1,5.26,5.52,18.85,18.85,0,0,1,0,17,14.15,14.15,0,0,1-5.26,5.52,13.41,13.41,0,0,1-6.86,1.89,13.26,13.26,0,0,1-10-4.56v15.3a2.75,2.75,0,0,1-.76,2,2.58,2.58,0,0,1-1.93.78A2.47,2.47,0,0,1,220.51,503.18Zm20.74-20.61q2.63-2.82,2.63-8t-2.63-8a9.05,9.05,0,0,0-6.95-2.82,10.77,10.77,0,0,0-5.05,1.23,14.36,14.36,0,0,0-4.18,3.27v12.6a14.36,14.36,0,0,0,4.18,3.27,10.77,10.77,0,0,0,5.05,1.23A9.05,9.05,0,0,0,241.25,482.57Z"/><path d="M261.87,488.51a13.24,13.24,0,0,1-5.22-5.61,19.59,19.59,0,0,1,0-16.62,13.24,13.24,0,0,1,5.22-5.61,16.59,16.59,0,0,1,15.72,0,13.52,13.52,0,0,1,5.26,5.61,19.4,19.4,0,0,1,0,16.62,13.52,13.52,0,0,1-5.26,5.61,16.59,16.59,0,0,1-15.72,0Zm12.48-4.14a9.07,9.07,0,0,0,3.62-3.6,12.31,12.31,0,0,0,1.43-6.24,12.18,12.18,0,0,0-1.43-6.18,8.86,8.86,0,0,0-3.62-3.57,10.15,10.15,0,0,0-9.23,0,8.7,8.7,0,0,0-3.6,3.57,12.39,12.39,0,0,0-1.4,6.18,12.53,12.53,0,0,0,1.4,6.24,8.9,8.9,0,0,0,3.6,3.6,9.91,9.91,0,0,0,9.23,0Z"/><path d="M298.5,489.47a3.64,3.64,0,0,1-1.28-1.8l-8.3-25a3.51,3.51,0,0,1-.17-1,2.63,2.63,0,0,1,.76-1.92,2.5,2.5,0,0,1,1.87-.78,2.64,2.64,0,0,1,1.49.45,2.2,2.2,0,0,1,.9,1.17l6.84,23.1,6.77-22.56a3.08,3.08,0,0,1,1.08-1.56,3,3,0,0,1,3.57,0,3.08,3.08,0,0,1,1.08,1.56l6.78,22.56,6.83-23.1a2.22,2.22,0,0,1,.91-1.17,2.59,2.59,0,0,1,1.49-.45,2.51,2.51,0,0,1,1.87.78,2.67,2.67,0,0,1,.76,1.92,3.23,3.23,0,0,1-.18,1l-8.3,25a3.64,3.64,0,0,1-1.28,1.8,3.44,3.44,0,0,1-4.21,0,4,4,0,0,1-1.34-1.86l-6.19-19.86-6.2,19.86a4,4,0,0,1-1.34,1.86,3.34,3.34,0,0,1-2.1.72A3.39,3.39,0,0,1,298.5,489.47Z"/><path d="M339.78,486.32q-4-4.17-4-11.73a19.88,19.88,0,0,1,1.52-7.86,13.28,13.28,0,0,1,4.67-5.82,13.15,13.15,0,0,1,7.77-2.22A13,13,0,0,1,362,466.28a17.35,17.35,0,0,1,1.63,7.53,2.69,2.69,0,0,1-.73,1.92,2.54,2.54,0,0,1-2,.78H341.15a10,10,0,0,0,3,6.54q2.56,2.34,7.19,2.34a17.14,17.14,0,0,0,4.29-.48,17.48,17.48,0,0,0,3.59-1.38,2.26,2.26,0,0,1,1.05-.24A2.31,2.31,0,0,1,362,484a2.2,2.2,0,0,1,.7,1.68,2.6,2.6,0,0,1-1.52,2.22,20.89,20.89,0,0,1-4.5,2,20.51,20.51,0,0,1-5.72.66Q343.79,490.49,339.78,486.32Zm18.61-14.25a9.89,9.89,0,0,0-1.49-4.92,8.12,8.12,0,0,0-3.25-2.91,8.68,8.68,0,0,0-7.82,0,7.92,7.92,0,0,0-3.22,2.91,10,10,0,0,0-1.46,4.92Z"/><path d="M371.41,489.41a2.67,2.67,0,0,1-.76-1.92V461.75a2.78,2.78,0,0,1,.76-1.95,2.47,2.47,0,0,1,1.87-.81,2.55,2.55,0,0,1,1.9.81,2.68,2.68,0,0,1,.79,1.95v2.58q4.09-5.64,9.17-5.64h.29a2.4,2.4,0,0,1,1.84.78,2.69,2.69,0,0,1,.73,1.92,2.46,2.46,0,0,1-.75,1.86,2.7,2.7,0,0,1-1.93.72H385a9.8,9.8,0,0,0-5.15,1.41,12,12,0,0,0-3.91,3.87v18.24a2.68,2.68,0,0,1-2.69,2.7A2.51,2.51,0,0,1,371.41,489.41Z"/><path d="M396,489.41a2.63,2.63,0,0,1-.76-1.92V464H391.8a2.14,2.14,0,0,1-1.6-.69,2.28,2.28,0,0,1-.68-1.65,2.25,2.25,0,0,1,.68-1.68,2.19,2.19,0,0,1,1.6-.66h3.45v-3.48a12.39,12.39,0,0,1,1.25-5.91,7.89,7.89,0,0,1,3.28-3.36,9,9,0,0,1,4.23-1.05,10.93,10.93,0,0,1,5.08,1.2,2.53,2.53,0,0,1,1,.87,2.2,2.2,0,0,1,.38,1.23,2.3,2.3,0,0,1-.64,1.59,2,2,0,0,1-1.52.69,5.46,5.46,0,0,1-1.35-.18c-.93-.12-1.46-.18-1.57-.18a5.05,5.05,0,0,0-3.6,1.14c-.8.76-1.19,2.14-1.19,4.14v3.3h7.3a2.18,2.18,0,0,1,1.63.66,2.31,2.31,0,0,1,.65,1.68,2.34,2.34,0,0,1-.65,1.65,2.13,2.13,0,0,1-1.63.69h-7.3v23.52a2.68,2.68,0,0,1-2.69,2.7A2.5,2.5,0,0,1,396,489.41Z"/><path d="M419.93,488.93a10.06,10.06,0,0,1-3.62-4.26,13.87,13.87,0,0,1-1.26-5.94v-17a2.68,2.68,0,0,1,2.69-2.7,2.51,2.51,0,0,1,1.87.78,2.63,2.63,0,0,1,.76,1.92v16.44q0,7.32,6.43,7.32a9.09,9.09,0,0,0,5.22-1.56,19.27,19.27,0,0,0,4.36-4.2v-18a2.68,2.68,0,0,1,2.68-2.7,2.5,2.5,0,0,1,1.87.78,2.63,2.63,0,0,1,.76,1.92v25.74a2.73,2.73,0,0,1-.76,1.95,2.45,2.45,0,0,1-1.87.81,2.53,2.53,0,0,1-1.89-.81,2.68,2.68,0,0,1-.79-1.95V485a19.6,19.6,0,0,1-4.79,4,11.87,11.87,0,0,1-6.08,1.5A9.92,9.92,0,0,1,419.93,488.93Z"/><path d="M451.68,489.41a2.67,2.67,0,0,1-.76-1.92V448.55a2.78,2.78,0,0,1,.76-1.95,2.47,2.47,0,0,1,1.87-.81,2.58,2.58,0,0,1,1.93.78,2.71,2.71,0,0,1,.76,2v38.94a2.68,2.68,0,0,1-2.69,2.7A2.51,2.51,0,0,1,451.68,489.41Z"/><path d="M474.93,503.75a2.3,2.3,0,0,1-.87-3.75,2.06,2.06,0,0,1,1.57-.69,5.34,5.34,0,0,1,.88.09,5.34,5.34,0,0,0,.88.09,4.5,4.5,0,0,0,2.69-.66q.87-.66.87-2.88V461.81a2.73,2.73,0,0,1,.76-1.95,2.47,2.47,0,0,1,1.87-.81,2.58,2.58,0,0,1,1.93.78,2.75,2.75,0,0,1,.76,2v34.26a9.18,9.18,0,0,1-1.84,6q-1.85,2.25-5.82,2.25A11.41,11.41,0,0,1,474.93,503.75Zm6.43-51.6a3,3,0,0,1-.88-2.16v-.24a3,3,0,0,1,.88-2.16,2.83,2.83,0,0,1,2.1-.9h.35a2.85,2.85,0,0,1,2.11.9,3,3,0,0,1,.87,2.16V450a3,3,0,0,1-.87,2.16,2.85,2.85,0,0,1-2.11.9h-.35A2.83,2.83,0,0,1,481.36,452.15Z"/><path d="M498.33,489.41a8.31,8.31,0,0,1-3.47-3.15,8.83,8.83,0,0,1-1.29-4.77,8.49,8.49,0,0,1,3.42-7.08q3.42-2.64,10-2.64h7.07v-.48c0-2.64-.64-4.54-1.9-5.7s-3.24-1.74-5.93-1.74a19.48,19.48,0,0,0-3.95.36,32.16,32.16,0,0,0-3.82,1.08,3.23,3.23,0,0,1-.76.12,2,2,0,0,1-1.52-.66,2.22,2.22,0,0,1-.64-1.62,2.3,2.3,0,0,1,1.52-2.28,25.07,25.07,0,0,1,10.1-2.16,12.93,12.93,0,0,1,6.81,1.68,10.47,10.47,0,0,1,4.09,4.35,13,13,0,0,1,1.31,5.79v17a2.68,2.68,0,0,1-2.68,2.7,2.48,2.48,0,0,1-1.87-.78,2.63,2.63,0,0,1-.76-1.92v-1.56a14.51,14.51,0,0,1-11,4.56A10.62,10.62,0,0,1,498.33,489.41Zm11.71-5a13.85,13.85,0,0,0,4-3.21v-5h-6.37q-8.82,0-8.82,4.74a4.49,4.49,0,0,0,1.43,3.48q1.43,1.32,4.76,1.32A10.31,10.31,0,0,0,510,484.4Z"/><path d="M534.58,489.47a3.64,3.64,0,0,1-1.28-1.8l-8.3-25a3.2,3.2,0,0,1-.17-1,2.63,2.63,0,0,1,.76-1.92,2.48,2.48,0,0,1,1.87-.78,2.58,2.58,0,0,1,1.48.45,2.22,2.22,0,0,1,.91,1.17l6.84,23.1,6.77-22.56a3.08,3.08,0,0,1,1.08-1.56,3,3,0,0,1,3.57,0,3.08,3.08,0,0,1,1.08,1.56L556,483.71l6.84-23.1a2.22,2.22,0,0,1,.91-1.17,2.59,2.59,0,0,1,1.49-.45,2.49,2.49,0,0,1,1.86.78,2.63,2.63,0,0,1,.76,1.92,3.2,3.2,0,0,1-.17,1l-8.3,25a3.64,3.64,0,0,1-1.28,1.8,3.44,3.44,0,0,1-4.21,0,4,4,0,0,1-1.34-1.86l-6.19-19.86-6.2,19.86a4,4,0,0,1-1.34,1.86,3.44,3.44,0,0,1-4.21,0Z"/><path d="M573.08,487.79a2.31,2.31,0,0,1-1-2,2.43,2.43,0,0,1,.64-1.68,2.1,2.1,0,0,1,1.64-.72,2.51,2.51,0,0,1,1,.24,23.21,23.21,0,0,0,3.74,1.32,16.9,16.9,0,0,0,4.2.48q6.5,0,6.49-4.26a2.27,2.27,0,0,0-1.49-2.1,29.83,29.83,0,0,0-4.88-1.62,42.55,42.55,0,0,1-5.69-1.74,10,10,0,0,1-3.86-2.73,7.06,7.06,0,0,1-1.61-4.83,8.78,8.78,0,0,1,2.95-6.84q3-2.64,8.44-2.64a23.83,23.83,0,0,1,8.48,1.5,2.19,2.19,0,0,1,1.25.9,2.48,2.48,0,0,1,.44,1.38,2.37,2.37,0,0,1-.67,1.68,2.19,2.19,0,0,1-1.67.72,3.31,3.31,0,0,1-.76-.12,21.86,21.86,0,0,0-6.66-1.08,8.9,8.9,0,0,0-4.93,1.17,3.5,3.5,0,0,0-1.78,3,2.78,2.78,0,0,0,1.63,2.64,23,23,0,0,0,5.08,1.62,47.64,47.64,0,0,1,5.61,1.77,9.27,9.27,0,0,1,3.71,2.73,7.55,7.55,0,0,1,1.55,5,8,8,0,0,1-3,6.36c-2,1.68-4.74,2.52-8.33,2.52A21.3,21.3,0,0,1,573.08,487.79Z"/><path d="M602.5,489.08a3.25,3.25,0,0,1-1-2.37v-.36a3.25,3.25,0,0,1,1-2.37,3.1,3.1,0,0,1,2.3-1h.59a3.13,3.13,0,0,1,2.31,1,3.28,3.28,0,0,1,1,2.37v.36a3.28,3.28,0,0,1-1,2.37,3.13,3.13,0,0,1-2.31,1h-.59A3.1,3.1,0,0,1,602.5,489.08Z"/><g class="cls-4"><g class="cls-4"><path class="cls-5" d="M1187.56,559.4c1.23,15.59,2.26,5.81,3.59.24-.28-.36-.57-.79-.86-1.23A25.52,25.52,0,0,1,1187.56,559.4Z"/><path class="cls-5" d="M1190.29,558.41c.29.44.58.87.86,1.23a17.57,17.57,0,0,1,.5-1.8C1191.21,558,1190.75,558.23,1190.29,558.41Z"/><path class="cls-5" d="M1187,551.45c.18,3.19.35,5.8.52,7.95a25.52,25.52,0,0,0,2.73-1A34.92,34.92,0,0,1,1187,551.45Z"/><path class="cls-5" d="M1191.65,557.84c.48-.23,1-.37,1.44-.63C1192.57,556,1192.1,556.55,1191.65,557.84Z"/><path class="cls-6" d="M1223.93,432.43q-9.33-3.27-18.58-6.11t-18.48-5.19c3.81,8.16,7.5,16.49,10.69,21.94C1207.19,460.59,1215.36,444.23,1223.93,432.43Z"/><path class="cls-7" d="M1168.57,418.17q-6.16-1.12-12.34-2.12C1160.43,419.84,1164.62,421.62,1168.57,418.17Z"/><path class="cls-6" d="M1223.52,436.64c-8.56,11.79-16.71,28.15-26.33,10.64-3.19-5.45-6.88-13.78-10.69-21.94-9.76-2.5-19.49-4.69-29.23-6.47-3.94,3.44-8.13,1.67-12.34-2.09-38.48-5.95-77.12-6.52-117.71-2.52-2.39.21-14.18,8.57-15.28,20.91l-3.19,9.5.58,5.58c3.7.19,7.53,2.13,11.15-1.67,2.36-.24,4.1-6.54,6.47-6.78,10.65-1,20.64,4.11,31.37-9.09,3-6.39,11.08,17.36,14.08,11,6.83-3.67,13.72.36,20.43,4.39s13.23,8.12,19.48,4.58c10.13-6.87,16.39-19.52,27.46-14.16,2.36-.16,5.51-6.47,7.88-6.63,15.79,5.07,31.55,10.23,47.5,21.61,3.54-.18,8.28,23.95,11.49,17.69,4.09-12.37,8.52-18.67,13-25,1.18-.05,3.17,18.14,5.51,18,9.24,4.32,16.92-13,25.18-12.92-.53-1.79-1-3.44-1.57-5C1240.27,442.77,1231.87,439.6,1223.52,436.64Z"/><path class="cls-6" d="M1274.61,452.32a54.18,54.18,0,0,1-3.57,7.51c8.07,12,17.12,13.78,25.31,2.94C1289.05,459.09,1281.81,455.57,1274.61,452.32Z"/><path class="cls-6" d="M1261.5,450.91l.28,1q-6.55-2.94-13-5.64c.52,1.56,1,3.21,1.57,5,2.45,0,4.93,1.47,7.5,5.58.68,1.17,1.38,2.25,2.08,3.29a48,48,0,0,0,2.66-5.48c.19.67.37,1.33.55,2,2.31,8.32,5,7.93,8,3.12-.69-1-1.39-2.13-2.07-3.3C1266.42,452.41,1263.94,450.93,1261.5,450.91Z"/><path class="cls-8" d="M1263.78,615c-8.53-18-11.92,12.6-20.23.76-6-7.52-11.57-6.24-16.94-3.15,12.9,7.25,25.22,14.11,37.35,13.08A67.6,67.6,0,0,1,1263.78,615Z"/><path class="cls-9" d="M1294.08,536.93c-2.1,9.2-4.93,13.67-9.09,10.44-7-5.89-13.35-23.94-19.13-23.77-8.19-2.76-16.48,8.17-24.84,14.61s-16.86,8.32-25.93-12.58c-8.37-17.9-16.68-20.5-25-18.54s-16.66,8.54-25.33,9.09c-3.47.22-7.32,12.65-10.77,12.89-11.52.74-21.89,1.48-32.26,2.24-8,.63-11.55-29.65-20.36-22.84-1.15.09-4.45-11.85-5.62-11.76-26.3,8-54.45,5.17-82.52-3.16,1.14,13.3,2.49,26.19,4,38,18-5.14,38.67,12.13,56.09,15.9A50.54,50.54,0,0,0,1091,551.3a133.89,133.89,0,0,0,17.24-.64,128.74,128.74,0,0,1,17.24-.56,49.66,49.66,0,0,1,17.55,4.09,110.25,110.25,0,0,0,17,5.7c5.7,1.28,11.35,1.63,16.76.13-.18-2.16-.36-4.76-.55-8a35.32,35.32,0,0,0,3.28,7c.46-.18.91-.37,1.36-.57.44-1.29.91-1.82,1.44-.63-.47.26-1,.4-1.44.63a17.57,17.57,0,0,0-.5,1.8c4.52,5.71,8.65.72,12.38-4.41s7-10.38,9.82-5.22c9.51,17.79,19.07,15.84,28.33,11.61s18.19-10.65,25.94-1.78c15.55,12.14,28.19,9.75,38.65-17.52C1295,541.05,1294.5,539.06,1294.08,536.93Z"/><path class="cls-10" d="M1291.7,480.24c-.56-3.72-1.07-6.92-1.49-9.38-4.85,16.58-10.94,24.62-17.52,28.13s-13.65,2.42-20.41.72c-1.16,0-3.93-12-6.5-18-6.09-5.86-8.37,24.7-13.25,18.81C1211.15,477,1190.36,475,1170.15,480s-39.91,17-60,21.64c-2.33.18-2.34-30.34-6.34-36.13-9.88-5.33-17.57,1.41-27.37-16.09-1.7-6-3.67,12.54-6.64,18.92-5.65,9.64-12,7.2-18.55,4s-13.11-7.15-19-.46c-6,9.63-13.75,2.74-20.14,8.75q.5,6.5,1.05,12.92c28.07,8.33,56.22,11.16,82.52,3.16,1.17-.09,4.47,11.85,5.62,11.76,6.8-5.27,10.23,23.63,20.36,22.84,10.56-.77,20.57-1.49,32.26-2.24,3.45-.24,7.3-12.67,10.77-12.89,8.67-.55,17-7.1,25.33-9.09s16.64.64,25,18.54c9.07,20.9,17.54,19,25.93,12.58s16.65-17.37,24.84-14.61c5.78-.17,12.1,17.88,19.13,23.77,4.16,3.23,7-1.24,9.09-10.44-2.9-14.92-4.53-35.76-5.07-56.62Z"/><path class="cls-11" d="M1298.83,525.71c-4.51-57.72-10.14-76.74-4.81-41.43l-2.68.07c.52,20.87,2.14,41.71,5,56.61A149.69,149.69,0,0,0,1298.83,525.71Z"/><path class="cls-11" d="M1289.21,465.07l-4-2c-8.15,10.83-17.2,9.13-25.31-2.87-2.93,4.83-5.63,5.23-8-3.08-.54-2.1-1.07-4-1.61-5.79-8.26-.07-15.94,17.24-25.18,12.92-2.34.11-4.33-18.08-5.51-18-4.45,6.31-8.88,12.61-13,25-3.21,6.26-8-17.87-11.49-17.69-16-11.38-31.71-16.54-47.5-21.61-2.37.16-5.52,6.47-7.88,6.63-11.07-5.36-17.33,7.29-27.46,14.16-6.25,3.54-12.77-.56-19.48-4.58s-13.6-8.06-20.43-4.39c-3,6.37-11.06-17.38-14.08-11-10.73,13.2-20.72,8.05-31.37,9.09-2.37.24-4.11,6.54-6.47,6.78-3.62,3.8-7.45,1.86-11.15,1.67l2.16,20.66c.23,3.29.46,6.51.68,9.72,6.39-6,14.09.88,20.14-8.75,5.85-6.69,12.46-2.78,19,.46s12.9,5.67,18.55-4c3-6.38,4.94-24.88,6.64-18.92,9.8,17.5,17.49,10.76,27.37,16.09,4,5.79,4,36.31,6.34,36.13,20.07-4.6,39.73-16.64,60-21.64s41-3,62.38,20.45c4.88,5.89,7.16-24.67,13.25-18.81,2.57,6,5.34,18.08,6.5,18,6.76,1.7,13.83,2.76,20.41-.72s12.67-11.55,17.52-28.13C1289.6,467.31,1289.21,465.07,1289.21,465.07Z"/><path class="cls-8" d="M1151.7,590.81a72.29,72.29,0,0,1,15.48,1.46,13.81,13.81,0,0,1,2.26.32C1163.46,590.16,1157.2,587,1151.7,590.81Z"/><path class="cls-8" d="M1178.17,594.58c5.76,1.39,12.28,3,15.77,3.76-4.29-9.73-8.65-16.31-13.15-16.05C1180.79,582.29,1179.29,594.12,1178.17,594.58Z"/><path class="cls-12" d="M1272.43,623.59c8-3.38,16-11,24.23-24.94C1288,595.82,1280,607.15,1272.43,623.59Z"/><path class="cls-13" d="M1295.42,542.93c-10.46,27.27-23.1,29.66-38.65,17.52-7.75-8.87-16.7-2.41-25.94,1.78s-18.82,6.18-28.33-11.61c-2.77-5.16-6.09.08-9.82,5.22s-7.86,10.12-12.38,4.41c-1.31,5.57-2.31,15.34-3.59-.23-5.41,1.5-11.06,1.15-16.76-.13a110.25,110.25,0,0,1-17-5.7,49.66,49.66,0,0,0-17.55-4.09,128.74,128.74,0,0,0-17.24.56,133.89,133.89,0,0,1-17.24.64,50.54,50.54,0,0,1-17.64-3.82c-17.42-3.77-38.11-21-56.09-15.9,4.41,34.61,10.11,60.09,16,59.49,25.19,16.33,44.61,14,64.12,9,6.78-8.17,13.87-12.62,21.33-9.94-3.61,1.79-7.15,4.9-10.61,9.07,8.84-2.2,17.69-4.9,27-6.64-.29-.24-.58-.37-.87-.6,2.23-.22,4.48-.42,6.79-.46,5.48-3.86,11.76-.65,17.75,1.73,2.07.39,5.25,1.13,8.73,2,1.11-.44,11.46-6,15.78,3.72a15.34,15.34,0,0,0,2.35.35c10.48,2.65,20.59,8.36,30.37,13.81,5.36-3.08,10.88-4.4,17,3.09,8.38,11.86,20.13,6.87,20.44,9.88a27.43,27.43,0,0,0,8.47-2.14c7.54-16.47,15.49-27.8,24.15-25,2.11-3.61,4.22-7.64,6.36-12.14,3.87-8.17,5.32-21.5,5.4-36.39A65.14,65.14,0,0,1,1295.42,542.93Z"/></g></g><path d="M1285.8,423c-1.5,0-3,0-4.51.11-.69,0-1.38.1-2.07.17a14.55,14.55,0,0,0-1.47.25l-1.39.28c-2,.42-3.94.81-5.91,1.21-1,.2-2.08.42-3.11.65-.87.18-1.73.4-2.59.6a113.86,113.86,0,0,0-11.43,3.45c-.84.29-1.67.61-2.51.91l-2.42.87c-1.71.61-3.38,1.3-5.06,2-1.36.54-2.68,1.15-4,1.72h0c-1,.42-2,.87-3,1.33s-2.18,1-3.28,1.5c-.8.33-1.59.66-2.4,1a14.85,14.85,0,0,1-2.26.72l-1.4.24c-.86.1-1.73.17-2.6.19s-1.85,0-2.77.09a18.25,18.25,0,0,0-2.74.47c-.83.18-1.65.39-2.48.59s-1.87.47-2.81.68-1.91.44-2.86.69c-1.87.51-3.73,1.05-5.6,1.56-.9.25-1.81.51-2.72.74l-1.84.47c-.35.09-.7.16-1.06.23l-3.17.62c-.86.17-1.73.32-2.58.53s-1.94.47-2.91.73c-.64.18-1.28.36-1.92.56a35,35,0,0,0-4,1.49,25.62,25.62,0,0,0-3.26,1.76c-.52.32-1,.67-1.52,1-.25.16-.48.35-.71.53a4.15,4.15,0,0,0-.83.79l-.16.23a1.74,1.74,0,0,0-.14.38,1.31,1.31,0,0,0,0,.68,4.17,4.17,0,0,0,.29.72c.07.12.16.24.24.36l.38.57a6.33,6.33,0,0,0,.47.56c.31.54.61,1.08.89,1.64s.5,1,.74,1.59c.34.84.68,1.69,1.06,2.51s.78,1.65,1.21,2.46c1,1.84,2,3.65,3,5.47.51.89,1,1.78,1.56,2.67.17.29.32.59.5.87l.67,1,2.1,3.28c.39.61.84,1.19,1.27,1.77l2.22,3.07c.44.61.94,1.17,1.42,1.75l2.4,2.9c.5.6,1,1.18,1.56,1.76,1.36,1.53,2.72,3.05,4.1,4.56l2.18,2.39c.64.7,1.31,1.38,2,2.07l2.08,2.19c.19.2.39.38.58.57l1.45,1.44,2.46,2.45c.53.52,1.1,1,1.65,1.51,1.42,1.3,2.83,2.63,4.3,3.88s3,2.57,4.53,3.88l3.06,2.66c.48.42,1,.84,1.44,1.27l2.91,2.7c.49.46,1,.9,1.46,1.37l2.74,2.64c.57.56,1.15,1.1,1.72,1.67,1.8,1.79,3.59,3.61,5.45,5.35a30.33,30.33,0,0,0,5,3.6,29.39,29.39,0,0,0,3.37,1.79,35.61,35.61,0,0,0,4.86,1.83,11.89,11.89,0,0,0,3,.35c.73,0,1.46,0,2.2,0h0c-.6-.2-1.19-.39-1.8-.57-.79-.24-1.6-.45-2.37-.76-1.23-.55-2.42-1.2-3.65-1.76-.46-.21-.93-.4-1.39-.6l-1.28-.59a4.59,4.59,0,0,1-.49-.26l-.84-.44c-.39-.22-.77-.46-1.15-.69a30.4,30.4,0,0,1-3-2,44.56,44.56,0,0,1-3.57-3.3l-2.84-2.8c-1.44-1.42-2.91-2.8-4.36-4.2s-2.88-2.67-4.32-4-3-2.61-4.46-3.9-3-2.54-4.45-3.8c-.54-.46-1.09-.9-1.61-1.38l-2.64-2.41-2.22-2c-.17-.15-.33-.33-.49-.49l-1.42-1.4-2.55-2.53c-.54-.54-1-1.1-1.58-1.66-1.13-1.19-2.27-2.37-3.37-3.58s-2.32-2.5-3.45-3.78l-2.27-2.56c-.43-.48-.88-1-1.29-1.46l-3.54-4.28-3.42-4.73c-.19-.25-.34-.53-.51-.79-.39-.62-.79-1.24-1.19-1.86s-.91-1.38-1.33-2.1c-2-3.53-4.09-7-5.8-10.74-.17-.36-.32-.73-.48-1.09-.36-.92-.68-1.85-1.11-2.74-.22-.47-.45-.93-.68-1.4s-.41-.77-.63-1.15a3.38,3.38,0,0,0-.34-.75c-.17-.27-.36-.52-.52-.79a7.34,7.34,0,0,1,.6-.51,28.36,28.36,0,0,1,5.45-3.14,36.26,36.26,0,0,1,3.67-1.29c.59-.18,1.2-.34,1.79-.5.36-.1.7-.19,1.06-.27s1-.27,1.53-.37c2-.42,4.09-.81,6.13-1.22.3-.06.59-.14.89-.21.66-.17,1.32-.35,2-.51l2.8-.77c.85-.24,1.7-.47,2.54-.72s1.85-.53,2.78-.76c1.73-.42,3.47-.82,5.2-1.25l2.29-.57c.68-.17,1.36-.35,2.05-.46,1.43-.14,2.86-.06,4.29-.15l1.17-.09c.45,0,.91-.12,1.36-.19l1.09-.2a14.82,14.82,0,0,0,2.14-.69c1.48-.58,3-1.18,4.4-1.85s2.67-1.25,4-1.84,2.61-1.13,3.91-1.68l-.23.1c1.71-.68,3.42-1.38,5.14-2,.82-.31,1.65-.6,2.47-.89s1.68-.61,2.52-.92,2-.68,2.95-1,1.81-.6,2.72-.88c1.82-.57,3.65-1.12,5.51-1.56,1.09-.26,2.18-.53,3.27-.76,1.36-.3,2.73-.58,4.09-.85l3.5-.71,1.53-.32c.33-.08.66-.13,1-.2s.88-.18,1.33-.25c2.86-.28,5.73-.26,8.6-.28l2.11,0,8.26.14,1.89,0,.86.05,2.12.13,3.16.17c.35,0,.7.08,1,.12l2.16.25,2.9.36c.51.07,1,.16,1.54.26a12.68,12.68,0,0,1,1.34.37l1.19.39c.77.27,1.55.55,2.32.85s1.7.62,2.56.92,1.6.52,2.41.78c1.67.53,3.36,1,5,1.47l1.22.38c.35.1.69.21,1,.33.79.29,1.57.6,2.35.91a35.62,35.62,0,0,1,4.15,1.95c.93.55,1.8,1.22,2.68,1.85l1.45,1.07c.67.51,1.34,1,2,1.57s1.42,1.27,2.14,1.88,1.35,1.2,2,1.81,1.47,1.31,2.22,1.95l2.22,1.86c.75.65,1.48,1.32,2.24,2s1.55,1.24,2.35,1.83,1.5,1.05,2.29,1.52a15.13,15.13,0,0,0,1.55.8s0,0,0,0c-.77-.76-1.47-1.61-2.19-2.43s-1.25-1.43-1.89-2.13-1.32-1.43-2-2.1-1.4-1.23-2.11-1.82c-1.47-1.23-2.9-2.48-4.31-3.77-.72-.64-1.45-1.26-2.16-1.9s-1.43-1.23-2.17-1.82-1.52-1.18-2.3-1.74l-1.28-.92c-.56-.4-1.13-.8-1.72-1.16a16.85,16.85,0,0,0-1.79-.93c-.92-.4-1.83-.83-2.77-1.2s-1.78-.72-2.69-1c-1.89-.62-3.8-1.15-5.71-1.7-.92-.27-1.84-.56-2.75-.86s-1.82-.58-2.71-.92-1.8-.69-2.71-1l-1.35-.46-1-.29a16.73,16.73,0,0,0-2.22-.43c-.5-.08-1-.13-1.52-.2l-1.31-.16-3.48-.4c-.78-.09-1.57-.1-2.35-.15l-3.81-.21c-.46,0-.92,0-1.39,0l-3.82-.06-6.86-.12h-2.52Z"/><path d="M1276.83,544.38a9.19,9.19,0,0,0-.37-1.46,1.21,1.21,0,0,0,0-.14l.35.05-.27,0,.86.13c.29,0,.59.07.88.13l1,.19c.28.06.55.14.82.21,1.15.29,2.28.62,3.42.93s2.36.65,3.52,1,2.13.75,3.18,1.18a9.53,9.53,0,0,1,1.51.81l.14.13a8.82,8.82,0,0,1-.63,1c-.18.26-.34.52-.5.79-.35.58-.68,1.17-1,1.77s-.65,1.2-1,1.8-.52.95-.81,1.4c-.28-.44-.52-.9-.76-1.36s-.57-1-.87-1.56-.58-1.05-.89-1.57a4.6,4.6,0,0,0-.62-.83,2.2,2.2,0,0,0-1-.58,1.76,1.76,0,0,0-.61,0l-.26,0-.42.19-.2.16a.75.75,0,0,0-.27.26,3.36,3.36,0,0,0-.35.49c-.65,1-1.22,2.13-1.78,3.21-.31.59-.62,1.18-.94,1.77s-.57,1.11-.89,1.65a5.4,5.4,0,0,1-.09-.58C1277.6,551.78,1277.48,548.05,1276.83,544.38Zm-13.48,9.21c0-.74,0-1.48,0-2.22,0-1.35-.06-2.7-.11-4,0-.77,0-1.53-.09-2.29s-.09-1.6-.13-2.4c0-.31-.06-.62-.09-.93s-.07-.86-.12-1.29l0-.17.66.15,2.65.63c1.42.33,2.85.61,4.28.9.49.1,1,.16,1.48.23l.28.05-.52.4a13.1,13.1,0,0,0-2.79,3.28c-.87,1.34-1.68,2.71-2.53,4.06l-1.44,2.29c-.47.75-.94,1.52-1.45,2.25C1263.35,554.19,1263.35,553.89,1263.35,553.59Zm-85.63-95.07c-1.16,1.87-2.26,3.78-3.25,5.74-.61,1.21-1.17,2.44-1.7,3.68l-2.17,5.14c-.49,1.15-.94,2.32-1.4,3.49l-1.11,2.85c-.13.33-.27.67-.39,1-.6,1.76-1.21,3.53-1.81,5.3-.42,1.21-.78,2.44-1.15,3.67s-.78,2.54-1.15,3.81c-.43,1.49-.86,3-1.3,4.48s-.83,2.89-1.28,4.32c-.9,2.88-1.8,5.76-2.76,8.61-.24.7-.46,1.4-.7,2.09-.09.29-.18.59-.26.88a1.7,1.7,0,0,0-.06.31,1.22,1.22,0,0,0,0,.63,1.17,1.17,0,0,0,.24.47,1,1,0,0,0,.65.3,3.22,3.22,0,0,0,2-.95c.31-.25.62-.52.92-.78.55-.49,1.07-1,1.6-1.54l1.33-1.28,1.56-1.52,3.48-3.31c1-1,2.1-1.93,3.15-2.89l1.61-1.5c.48-.44,1-.88,1.45-1.34l3.08-3c1-1,2-2.09,3-3.15.67-.71,1.32-1.45,2-2.17s1.45-1.62,2.16-2.45,1.49-1.75,2.22-2.64,1.35-1.57,2-2.34a3.49,3.49,0,0,0,.52-.43l.57-.59a14,14,0,0,1,1.13-1.05c.6-.44,1.21-.88,1.8-1.33l0,.18a14,14,0,0,1,0,1.94c0,.5,0,1-.08,1.5s-.06,1.25-.1,1.87c-.09,1.64-.19,3.28-.29,4.91-.18,2.77-.34,5.54-.57,8.3-.13,1.47-.27,2.94-.37,4.41-.07,1-.13,1.92-.2,2.89,0,.56,0,1.11-.08,1.67-.06,1.52-.12,3-.17,4.55s-.08,3.18-.11,4.77c-.06,2.84-.21,5.68-.37,8.52,0,.8-.1,1.59-.12,2.39v.26l.06.47c.06.2.14.39.22.59a1.47,1.47,0,0,1,.1.13,1,1,0,0,0,.34.34l.17.09a1,1,0,0,0,.42.13,2.58,2.58,0,0,0,1.26-.14c.19-.06.37-.14.55-.21s.51-.22.76-.34a7.48,7.48,0,0,0,1-.73,11.32,11.32,0,0,0,1.08-1c.29-.29.57-.6.86-.9.5-.52,1-1.07,1.41-1.63.6-.74,1.16-1.53,1.72-2.3q1-1.38,2-2.76,1.77-2.36,3.58-4.71l-.16.2c.72-.93,1.45-1.85,2.23-2.72.37-.42.76-.83,1.15-1.22s.82-.85,1.24-1.27c.83-.82,1.7-1.61,2.57-2.39.4-.36.78-.73,1.18-1.1l.42-.39.06.42c0-.08,0-.17,0-.25a30.69,30.69,0,0,1,.14,4.7c0,.48,0,1-.05,1.44,0,.29,0,.58,0,.87s-.06.71-.08,1.06,0,.64-.07.95c-.08.66-.16,1.33-.25,2s-.29,1.59-.43,2.38-.29,1.36-.44,2c-.29,1.37-.6,2.75-.93,4.11s-.7,2.86-1.07,4.29l-.51,1.95c-.19.73-.34,1.47-.47,2.21-.19,1-.37,2-.53,3.06-.07.47-.14.94-.23,1.41,0,.24-.09.48-.13.72s-.06.35-.1.52,0,.17,0,.26l0,.25a1,1,0,0,0,0,.45l0,.25a1,1,0,0,0,.25.42.93.93,0,0,0,.67.28,1.15,1.15,0,0,0,.6-.13,2,2,0,0,0,.64-.66c.16-.22.31-.45.45-.68l.57-.87c.46-.72.91-1.45,1.36-2.17.84-1.33,1.8-2.59,2.76-3.84l2.62-3.36c.87-1.08,1.72-2.17,2.65-3.21.41-.47.85-.92,1.27-1.38s1-1.05,1.44-1.57c.91-1,1.77-2,2.73-2.93.48-.48,1-.94,1.52-1.38l.63-.5a7.82,7.82,0,0,1,.86-.55c.28-.14.55-.28.84-.4s.68-.25,1-.35c.07.27.12.54.17.82.11.94.18,1.87.23,2.8,0,.4,0,.8,0,1.21,0,.72,0,1.44,0,2.17s0,1.55-.09,2.32c0,.38,0,.76-.07,1.14s-.08.84-.12,1.26l-.24,2.29c-.07.7-.13,1.41-.19,2.12-.12,1.51-.25,3-.37,4.52-.1,1.16-.17,2.32-.27,3.48l-.36,4c-.1,1.18-.2,2.36-.27,3.54,0,.64-.07,1.28-.07,1.92,0,.27,0,.55,0,.82s0,.29,0,.44,0,.15,0,.23l.06.49c.08.2.16.39.25.58a.91.91,0,0,0,.35.35,1,1,0,0,0,.75.1l.32-.09a1.7,1.7,0,0,0,.57-.32,4.33,4.33,0,0,0,.82-.94c.5-.7,1-1.41,1.48-2.12s1-1.49,1.41-2.23c.69-1.09,1.35-2.2,2-3.3,1.38-2.24,2.74-4.51,4.28-6.64.22-.28.44-.56.67-.83a11.24,11.24,0,0,1,.82-.87c.55-.56,1.15-1.07,1.73-1.59l0,.09a13.32,13.32,0,0,1,.6,2.66c.07.58.14,1.16.17,1.75l.08,1.52c0,.31,0,.63.05.94s0,.66,0,1c0,1.6,0,3.2-.05,4.8,0,1.38,0,2.75-.07,4.12,0,.82,0,1.64,0,2.47a3.54,3.54,0,0,0,.18,1.29l.09.23c.09.12.17.23.26.33l.2.16a1.3,1.3,0,0,0,.37.19,2.38,2.38,0,0,0,.53,0,1.54,1.54,0,0,0,.65-.2,3.66,3.66,0,0,0,.5-.38c.1-.11.2-.22.29-.34s.19-.22.28-.34c.35-.43.69-.88,1-1.33s.5-.67.72-1q.68-1.12,1.26-2.31c.39-.82.76-1.65,1.12-2.49s.66-1.65,1-2.48c.67-1.52,1.36-3,2-4.55.38-.83.76-1.66,1.15-2.48.15-.3.29-.6.43-.9l.65.18c0,.19.06.38.08.57.19,1.55.26,3.11.34,4.66s.11,2.91.15,4.37.07,2.73.08,4.1c0,.72,0,1.44,0,2.16a1.94,1.94,0,0,0,.27,1,1.13,1.13,0,0,0,.53.44l.24.1a1,1,0,0,0,.45,0l.27,0,.45-.19.14-.1.32-.26a6.34,6.34,0,0,0,1.05-1.26c.36-.51.69-1,1-1.57l.75-1.19,1.5-2.39c.93-1.5,1.8-3.05,2.86-4.47.29-.35.58-.7.9-1a10.88,10.88,0,0,1,.95-.85l.54-.39c.23-.17.46-.34.7-.49a1.24,1.24,0,0,1,.1.2,8.24,8.24,0,0,1,.42,1.47c.12.55.2,1.12.29,1.68.24,1.88.38,3.78.53,5.67,0,.64.09,1.28.14,1.92l.09,1.06c0,.46.1.92.17,1.38,0,.16.06.32.09.47a4.15,4.15,0,0,0,.31.92,1.5,1.5,0,0,0,.41.52,1.67,1.67,0,0,0,.59.31l.26,0,.43,0,.42-.18.39-.3a8.49,8.49,0,0,0,1-1.6c.19-.36.39-.72.58-1.09.68-1.26,1.32-2.54,2-3.79.25-.42.49-.85.75-1.26a.52.52,0,0,1,.1.11c.42.62.76,1.28,1.12,1.93s.67,1.2,1,1.81c.15.28.31.57.48.84s.23.39.37.58a3.47,3.47,0,0,0,.34.42c.12.1.24.2.38.3l.4.17a1.46,1.46,0,0,0,1.31-.35,3,3,0,0,0,.61-.77c.2-.32.39-.65.58-1,.35-.59.66-1.2,1-1.8s.69-1.25,1-1.87.66-1.08,1-1.61c.13-.2.27-.39.39-.6a2.24,2.24,0,0,0,.3-1s0-.09,0-.13a1.78,1.78,0,0,0-.07-.39,1.8,1.8,0,0,0-.24-.48,3.1,3.1,0,0,0-1-.93,7.74,7.74,0,0,0-1-.53c-.38-.18-.77-.33-1.17-.5-.65-.26-1.32-.51-2-.75-1.31-.47-2.65-.83-4-1.2s-2.79-.78-4.18-1.13a40.4,40.4,0,0,0-4.49-.74l-2.52-.32-2.23-.35c-.23,0-.45-.09-.67-.13l-1.62-.33c-1.51-.31-3-.67-4.5-1l-1.8-.41c0-.17-.1-.33-.15-.49s-.18-.42-.28-.62l-.12-.18-.24-.32a1.69,1.69,0,0,0-.41-.29.92.92,0,0,0-.49-.13.88.88,0,0,0-.36,0,1.72,1.72,0,0,0-.73.49,3.67,3.67,0,0,0-.49.68,2,2,0,0,0-.11.2c-1.1-.16-2.2-.29-3.31-.37q-1.41-.12-2.82-.18h0c1.46.63,2.93,1.19,4.43,1.71l.94.32-.27.57c-.52,1.08-1,2.18-1.51,3.28s-.91,2-1.36,3-.94,2.27-1.4,3.41v0c-.22.53-.45,1.06-.7,1.58s-.53,1.09-.8,1.62l-.45.84c-.07.12-.14.24-.22.35a3,3,0,0,1-.23.38c-.38.56-.79,1.1-1.2,1.64,0-.06.1-.13.16-.19l-.29.36c0-.21,0-.42,0-.64s0-.74,0-1.12c0-.72,0-1.44,0-2.16,0-1.57,0-3.13.07-4.69,0-.67,0-1.34,0-2s0-1.31,0-2c0-1-.1-2-.2-3.05a20.81,20.81,0,0,0-.48-2.93,7.78,7.78,0,0,0-.47-1.33,3.22,3.22,0,0,0-.38-.53,2.22,2.22,0,0,0-.33-.28,1.44,1.44,0,0,0-.39-.2,2.67,2.67,0,0,0-.64-.08,1.7,1.7,0,0,0-.69.19,2.24,2.24,0,0,0-.58.38l-.27.23c-.29.25-.57.5-.84.76-.53.48-1,1-1.5,1.5a10,10,0,0,0-.65.81c-.26.33-.5.66-.74,1-.4.56-.78,1.13-1.15,1.7q-1.21,1.92-2.41,3.86c-.7,1.14-1.38,2.3-2.09,3.43-.4.64-.81,1.28-1.21,1.93-.28.44-.58.88-.87,1.32l-.6.85c0-.2,0-.41,0-.62,0-.73.08-1.47.13-2.21.09-1.42.22-2.84.35-4.26.27-3,.49-6.08.74-9.12.11-1.41.23-2.82.38-4.23.08-.78.16-1.56.23-2.33s.11-1.48.15-2.22,0-1.45.06-2.18c0-.28,0-.56,0-.84,0-.51,0-1,0-1.54s-.06-1.28-.11-1.92-.1-1-.16-1.46a7.74,7.74,0,0,0-.35-1.64,1.66,1.66,0,0,0-.75-1,1.44,1.44,0,0,0-.61-.15,3.13,3.13,0,0,0-.68.12c-.31.08-.62.17-.93.28a11.13,11.13,0,0,0-1.89.87,7.5,7.5,0,0,0-.86.62c-.3.23-.6.46-.89.7a31.7,31.7,0,0,0-3,2.93c-.91,1-1.82,2-2.75,3-.43.47-.87.94-1.29,1.42s-.85,1-1.26,1.5c-.81,1-1.6,2-2.4,3.05l-2.59,3.33c-.37.49-.71,1-1.06,1.5s-.76,1.11-1.11,1.69a2.13,2.13,0,0,0-.16.25l.09-.54c.13-.76.26-1.51.4-2.27s.28-1.33.45-2c.77-2.86,1.47-5.74,2.13-8.62.29-1.31.59-2.61.83-3.92.15-.79.32-1.58.42-2.38.06-.44.11-.89.17-1.33,0-.29.08-.57.1-.86,0-.71.12-1.42.15-2.13,0-.94.08-1.88.1-2.81s0-2-.06-3a12.2,12.2,0,0,0-.15-1.47,4.52,4.52,0,0,0-.32-1.4,1.4,1.4,0,0,0-.87-.81,1.19,1.19,0,0,0-1,.26,9,9,0,0,0-.92.82l-.73.66c-.24.21-.46.44-.7.65-.49.45-1,.9-1.47,1.34s-1,1-1.55,1.48c-.24.24-.46.49-.69.72l-.74.75c-.47.5-.93,1-1.37,1.52s-.86,1-1.27,1.57q-1.41,1.83-2.81,3.68c-1.59,2.09-3.13,4.21-4.69,6.31l-.6.75c-.24.29-.5.56-.75.84s-.49.52-.74.77a12.17,12.17,0,0,1-1.33,1.26,5.84,5.84,0,0,1-1,.59l-.6.21c0-.76,0-1.54.08-2.3s.06-1.39.1-2.08c.07-1.53.13-3.06.17-4.59s.06-2.87.09-4.3c0-.77,0-1.54.05-2.31s0-1.31,0-2c0-.87.07-1.74.1-2.6,0-.58,0-1.16.07-1.74.1-1.47.18-2.94.3-4.41s.26-3.11.38-4.67.22-3.19.32-4.8c.14-2.34.28-4.69.4-7,.06-1.08.11-2.15.16-3.22a9.41,9.41,0,0,0-.13-2.54,3.24,3.24,0,0,0-.35-.89,1.06,1.06,0,0,0-1.55-.46,3.93,3.93,0,0,0-.42.29c-.2.15-.4.3-.59.46l-1,.69c-.39.28-.77.57-1.13.88s-.64.58-1,.88l-.53.54a3.58,3.58,0,0,0-.38.55l-1.32,1.51c-.47.53-.91,1.08-1.36,1.62-.94,1.12-1.88,2.24-2.85,3.34l-1.44,1.59-1.28,1.42c-1,1.08-2,2.17-3,3.2l-3,2.95c-.47.45-1,.9-1.44,1.34l-1.67,1.57c-1,1-2.1,1.92-3.13,2.89l-3.43,3.26-2.77,2.68-1.26,1.22c-.44.41-.9.81-1.37,1.19.09-.31.18-.62.26-.92.19-.69.41-1.37.61-2.05.41-1.37.83-2.75,1.25-4.12q1.27-4.11,2.47-8.24c.49-1.67,1-3.34,1.46-5,.42-1.44.88-2.87,1.32-4.3.17-.56.33-1.13.52-1.68s.41-1.17.61-1.76c.36-1,.71-2,1.06-3,.17-.48.32-1,.51-1.45.83-2.1,1.65-4.2,2.5-6.29s1.73-4.07,2.62-6.09c.64-1.45,1.24-2.91,1.78-4.4.63-1.74,1.18-3.5,1.68-5.28h0Z"/><path d="M1161.69,511.05l-.25,0a1,1,0,0,0-.37.19,1.7,1.7,0,0,0-.54.62,2.54,2.54,0,0,0-.24,1.25c0,.2,0,.41,0,.62s0,.46.05.69c0,.5.12,1,.19,1.48s.14.84.23,1.25l.54,2.55a31.82,31.82,0,0,0,1.29,4.48c.34.89.72,1.77,1.13,2.62s1,1.88,1.51,2.8c.41.71.84,1.4,1.27,2.09.79,1.3,1.59,2.57,2.4,3.85s1.59,2.43,2.39,3.63c.28.42.55.84.83,1.25l1.56,2.19.76,1.08c.1.14.19.28.3.42l1.46,1.89c.28.37.56.74.85,1.1s.34.47.52.69l1.4,1.58,1.62,1.85c.37.42.78.82,1.17,1.22.94,1,1.87,2,2.85,2.94l2.16,2.11,1,1,3.71,3.47q3,2.79,5.89,5.63l2.8,2.74c1.06,1,2.11,2.09,3.18,3.12s2.41,2.35,3.62,3.52c.33.32.68.62,1,.93l2.25,2c1,.92,2.1,1.8,3.16,2.69s2.17,1.81,3.26,2.71c2.28,1.88,4.62,3.7,6.94,5.54,1.11.88,2.22,1.78,3.32,2.68s2,1.65,3,2.47c2.27,1.87,4.53,3.76,6.8,5.62,1,.86,2.08,1.73,3.11,2.61s2.19,1.9,3.31,2.83c2.26,1.87,4.57,3.68,6.88,5.49s4.34,3.42,6.43,5.23c1.17,1,2.32,2,3.47,3,.53.47,1.08.92,1.62,1.39s.84.72,1.27,1.07c1.18.95,2.35,1.91,3.55,2.84s2.43,1.91,3.69,2.79c1,.71,2.09,1.39,3.18,2a30.77,30.77,0,0,0,4,2h0c-.92-.83-1.79-1.71-2.68-2.56s-1.55-1.43-2.34-2.11q-.8-.69-1.62-1.32l-1.11-.85-2.94-2.27.2.16-1.78-1.44c-.45-.37-.91-.73-1.35-1.11-1.21-1-2.41-2.07-3.6-3.13-2.06-1.83-4.16-3.6-6.32-5.31s-4.49-3.51-6.71-5.29c-1.12-.9-2.24-1.8-3.33-2.74s-2.15-1.85-3.23-2.77-2.4-2-3.61-3c-1-.81-2-1.63-2.94-2.44-2.29-1.89-4.56-3.81-6.87-5.67s-4.7-3.75-7.06-5.62-4.48-3.68-6.7-5.55c-.37-.31-.75-.62-1.11-.94l-1.92-1.73-1.72-1.54c-.4-.36-.77-.74-1.16-1.12q-3.24-3.15-6.47-6.33c-2.09-2-4.2-4.06-6.32-6.07l-2.76-2.61c-1-1-2-1.88-3-2.84l-2.07-2c-.44-.43-.89-.84-1.31-1.27l-3.3-3.45c-.35-.36-.67-.75-1-1.13l-1.92-2.18c-.33-.37-.63-.78-.93-1.17l-1.78-2.3-.1-.12c-.4-.55-.78-1.11-1.18-1.67l-1.46-2.05c-.31-.45-.61-.92-.92-1.37l-1.58-2.37c-.27-.41-.54-.84-.8-1.26-.5-.77-1-1.54-1.47-2.32-.33-.51-.64-1-1-1.54-.47-.77-.94-1.53-1.39-2.3a35.56,35.56,0,0,1-1.89-3.75,27.71,27.71,0,0,1-1.15-3.32c-.19-.71-.35-1.42-.5-2.14s-.27-1.26-.4-1.89-.28-1.43-.39-2.16c0-.34-.07-.69-.09-1s0-.61,0-.92l.49.13a2.83,2.83,0,0,0,.42.06l.15,0,2.13.6c.72.21,1.45.4,2.16.64s1.43.48,2.14.74,1.35.54,2,.82l1.79.8c.65.29,1.31.56,2,.84s1.22.54,1.83.82,1.18.54,1.77.83a33.84,33.84,0,0,1,3.48,2.06l3.58,2.38c.72.48,1.46.92,2.19,1.38s1.45.91,2.18,1.36,1.44.9,2.13,1.4,1.35,1,2,1.49c1,.86,2,1.77,3.07,2.66s2.08,1.78,3.16,2.63c.62.49,1.25,1,1.9,1.44l1.81,1.3c1.13.8,2.26,1.59,3.38,2.41l.87.63,0,0,2.36,1.85c.84.66,1.69,1.3,2.54,1.94,1.66,1.25,3.38,2.39,5,3.64,1.09.86,2.15,1.77,3.29,2.58s2.22,1.58,3.38,2.28c.61.37,1.22.74,1.84,1.09l1.79,1a33.19,33.19,0,0,0,3.76,2,25.11,25.11,0,0,0,4,1.38,38,38,0,0,0,4.11.72c2.83.36,5.66.59,8.5.87,1.35.14,2.71.23,4.06.38l2.21.26c.71.08,1.42.13,2.13.19,1.34.11,2.68.14,4,.2s2.77.09,4.16.07c2.9-.06,5.8-.13,8.7-.34,1.47-.1,3-.24,4.42-.43.33,0,.66-.07,1-.12l1.31-.22,1.93-.36c1.37-.26,2.73-.6,4.11-.86.67-.13,1.35-.23,2-.33s1.61-.26,2.41-.41h0a35.43,35.43,0,0,0-6.18-.1c-1.07.11-2.13.26-3.18.44s-1.83.32-2.74.46c-1.33.15-2.66.31-4,.39s-2.88.17-4.32.2-2.89.07-4.33.08-2.89,0-4.33-.06-2.79-.12-4.19-.23q-1.05-.07-2.1-.18c-.69-.06-1.38-.15-2.07-.23-1.48-.17-3-.31-4.45-.44-1.34-.11-2.69-.27-4-.39s-2.82-.29-4.22-.45-2.72-.38-4.07-.68a24.32,24.32,0,0,1-3.88-1.24c-.52-.22-1-.47-1.54-.73s-1-.57-1.49-.86l-1.53-.89c-.52-.3-1.06-.58-1.57-.88-1-.61-2.06-1.23-3-1.9s-1.82-1.26-2.7-1.93c-.7-.57-1.39-1.14-2.1-1.69s-1.61-1.22-2.43-1.81-1.52-1.07-2.26-1.61l-2.21-1.64-2.33-1.81c-.88-.68-1.79-1.33-2.69-2s-1.53-1.07-2.29-1.61l-2.63-1.88c-1.07-.84-2.13-1.69-3.18-2.56-.54-.45-1-.93-1.58-1.39s-1-.91-1.53-1.35c-1.08-.93-2.23-1.78-3.38-2.62-.54-.39-1.11-.74-1.68-1.1l-1.66-1c-1.21-.76-2.42-1.51-3.61-2.31s-2.26-1.53-3.4-2.27c-.56-.36-1.12-.71-1.7-1.05s-1.22-.67-1.84-1l-1.71-.78-2.17-.94-1-.42c-.9-.4-1.81-.8-2.73-1.19s-1.78-.74-2.69-1.05-1.78-.61-2.7-.86-1.77-.5-2.66-.77l-.31-.15a3.28,3.28,0,0,0-.67-.22,3.85,3.85,0,0,0-.47-.08l-.26,0-.18,0Z"/><path d="M1342.49,459.56c0,.16.09.31.12.47v0a3.17,3.17,0,0,1,0,.69,5.24,5.24,0,0,1-.34,1.17,11.63,11.63,0,0,1-1.43,2.3c-.38.49-.78.95-1.18,1.42l-1.32,1.53a19.4,19.4,0,0,1-2.69,2.52,18.6,18.6,0,0,1-3.94,2.21,31.24,31.24,0,0,1-7.66,2.07,44.27,44.27,0,0,1-6.3.34,62.65,62.65,0,0,1-6.42-.52l-6-.9c-.63-.1-1.24-.26-1.86-.4-1.24-.26-2.47-.54-3.71-.81-1.06-.23-2.1-.53-3.14-.83a54.44,54.44,0,0,1-5.36-1.94,18.47,18.47,0,0,1-3.68-2c-.35-.29-.68-.61-1-.93l-1.12-1.12h0a12.88,12.88,0,0,0,1.8,3.09,10,10,0,0,0,1.31,1.21,12.65,12.65,0,0,0,1.68,1.13,21.84,21.84,0,0,0,3.72,1.6c1.29.45,2.6.81,3.92,1.15,1,.27,2.12.49,3.18.71l3.4.71.45.08,1.5.22,3.85.55c1.7.25,3.41.41,5.11.53a43.33,43.33,0,0,0,8.21-.22,32.28,32.28,0,0,0,7-1.63,27.25,27.25,0,0,0,3.25-1.37,17.52,17.52,0,0,0,3-1.94,21,21,0,0,0,4.66-5.2,10.14,10.14,0,0,0,1.33-3,5,5,0,0,0,.13-1.54,2.9,2.9,0,0,0-.18-.76,2.77,2.77,0,0,0-.34-.57h0Z"/><path d="M1288,476.2a8.28,8.28,0,0,0-3,.82l-.11.05h0c.45-.05.9-.1,1.37-.11a10.62,10.62,0,0,1,1.38.06,6.6,6.6,0,0,1,1.58.43l1,.4a11.5,11.5,0,0,1,2.17,1.14,6,6,0,0,1,.77.74,3.58,3.58,0,0,1,.37.66,5.14,5.14,0,0,1,.28,1,8.7,8.7,0,0,1,0,1.91,3.2,3.2,0,0,1-.15.61l-.07.11-.24.22a4.3,4.3,0,0,1-.59.34,4.38,4.38,0,0,1-.81.21c-.38,0-.76,0-1.14,0-.23,0-.47,0-.71,0-.65-.06-1.31-.12-2-.2-.44-.06-.87-.14-1.3-.23a8.12,8.12,0,0,1-1.38-.41,4.93,4.93,0,0,1-.9-.5,3.51,3.51,0,0,1-.34-.33,2.54,2.54,0,0,1-.16-.28s0,0,0-.06a5.23,5.23,0,0,1,0-.56,4.28,4.28,0,0,1,.29-.92,7,7,0,0,1,.73-1.27,5.9,5.9,0,0,1,.79-.79,4.88,4.88,0,0,1,.73-.44,4.22,4.22,0,0,1,.77-.22,5.06,5.06,0,0,1,1.1,0,6.81,6.81,0,0,1,1.4.34,5.07,5.07,0,0,1,.64.37,1.6,1.6,0,0,1,.26.26,1.72,1.72,0,0,1,.2.38,2.57,2.57,0,0,1,.16.54c0,.22.08.43.13.65h0c0-.22,0-.45,0-.67a3.08,3.08,0,0,0-.06-.61,1.92,1.92,0,0,0-.21-.58,2,2,0,0,0-.47-.53,4.08,4.08,0,0,0-1.16-.67,5.84,5.84,0,0,0-1.64-.43,4,4,0,0,0-3,.93,6.29,6.29,0,0,0-1.81,2.62,3.53,3.53,0,0,0-.21.65,3.36,3.36,0,0,0-.08.77,2,2,0,0,0,.13.76,2.88,2.88,0,0,0,.52.81,2.64,2.64,0,0,0,.57.49,3.44,3.44,0,0,0,.58.35,8.08,8.08,0,0,0,1.51.57,26.11,26.11,0,0,0,4.13.65,4,4,0,0,0,.49,0c.23,0,.45,0,.68,0a6.74,6.74,0,0,0,1.55-.15,3.25,3.25,0,0,0,.74-.26,3.81,3.81,0,0,0,.71-.4,2.33,2.33,0,0,0,.55-.49,2.25,2.25,0,0,0,.24-.36c.06-.13.11-.27.16-.41a3.38,3.38,0,0,0,.16-.7c0-.31.08-.62.1-.93a6.76,6.76,0,0,0,0-1.62,6,6,0,0,0-.51-1.61,4,4,0,0,0-.92-1.24,5.16,5.16,0,0,0-1.42-.94,11.73,11.73,0,0,0-2.33-.75l-.58-.13a5.94,5.94,0,0,0-1.32-.15Z"/><path d="M1463,439.82a1.73,1.73,0,0,0-.32,0l-.45.07-.74.05-1.27.07-1.43.09-3.44.22-7.94.5c-2.29.15-4.59.27-6.89.39l-3.85.21c-.73,0-1.46,0-2.19.06l-8.54.26-2.37.09-5.17.22-2.89.11-1.27.1-1.28.1c-.92.07-1.84.16-2.76.25-1.74.17-3.47.39-5.2.66a101,101,0,0,0-10.32,2.26c-3.37.9-6.7,2-10,3.14-3,1.09-6.07,2.27-9.06,3.49a85.35,85.35,0,0,0-8.78,4.09,40.79,40.79,0,0,0-7.54,5.07,15.38,15.38,0,0,0-2.83,3.19,7.59,7.59,0,0,0-.51.93,3.67,3.67,0,0,0-.27.87c-.06.3-.09.61-.12.91s0,.34,0,.51,0,.38,0,.57h0a10.92,10.92,0,0,1,.57-2q.13-.29.3-.57a5.86,5.86,0,0,1,.37-.5h0a17.71,17.71,0,0,1,2.14-2.19c.41-.36.84-.71,1.26-1.06s.88-.73,1.33-1.08l-.11.09a47.53,47.53,0,0,1,6.3-4c2.26-1.24,4.61-2.31,7-3.32l-.12.05c2.52-1.06,5.07-2.07,7.63-3.05s5.36-2,8.09-2.83,5.52-1.62,8.32-2.29,5.59-1.21,8.43-1.6c1.75-.23,3.51-.41,5.26-.56.85-.08,1.7-.14,2.56-.2l.78-.06,3.75-.15,5-.2,1.81-.07,9-.24c2.1-.06,4.2-.18,6.3-.29l6.84-.36c2.61-.14,5.21-.28,7.82-.4,1.06-.06,2.13-.09,3.19-.13l1.33,0h1.42a4,4,0,0,0,.49,0h.37l.11.18a.14.14,0,0,0,0,.07c0,.12,0,.23,0,.34a4.89,4.89,0,0,1-.28.92c-.16.37-.34.74-.51,1.11s-.36.88-.54,1.32c-.9,2.1-1.95,4.13-2.85,6.22-.56,1.3-1.11,2.6-1.67,3.89q-1,2.28-2,4.56l-.73,1.74c-1.76,4.31-3.54,8.61-5.28,12.93l-3.62,9c-.66,1.63-1.34,3.25-2,4.87l-3,7.17.06-.16c-1,2.37-2.12,4.72-3.18,7.08-.42.94-.87,1.86-1.31,2.78s-.93,1.94-1.37,2.93-1,2.27-1.44,3.42-1,2.61-1.55,3.91h0c.26-.35.52-.69.76-1s.41-.61.61-.91c.35-.53.67-1.08,1-1.62.63-1.07,1.22-2.16,1.78-3.27s1-2,1.42-3,.84-1.77,1.25-2.66l1.89-4.19c.31-.68.63-1.37.94-2.06.13-.3.27-.6.4-.91l-.06.16c1.46-3.46,2.93-6.92,4.38-10.38l-.07.16c.32-.75.62-1.5.93-2.26l1.92-4.68c.76-1.86,1.52-3.73,2.29-5.59l2.67-6.45c.68-1.64,1.35-3.29,2-4.93.33-.76.66-1.54,1-2.31l2-4.59,1.35-3.13c.4-.93.84-1.84,1.27-2.76q.54-1.12,1-2.25c.17-.38.33-.75.49-1.13s.3-.75.45-1.13c.25-.55.51-1.1.72-1.67a3.8,3.8,0,0,0,.21-.82,2.31,2.31,0,0,0,0-.87,2.37,2.37,0,0,0-.3-.69,1.85,1.85,0,0,0-.56-.52,1.48,1.48,0,0,0-.29-.12l-.14,0a1.53,1.53,0,0,0-.3,0Z"/><path d="M1421.84,405a3.68,3.68,0,0,0-1.22.33,1.87,1.87,0,0,0-.32.15l-.32.22a4.18,4.18,0,0,1-.56.28l-1.06.49c-.76.36-1.51.74-2.25,1.12l-2.25,1.13-4.52,2.27-1.73.91-2.94,1.53-1.06.57-2.86,1.59-3.65,2-5.44,3c-1.11.62-2.21,1.25-3.33,1.85l-9.6,5.15c-1.31.7-2.63,1.37-3.94,2.06l-5.39,2.81c-.94.5-1.9,1-2.85,1.44-1.77.89-3.56,1.75-5.38,2.52l0,0c-1.37.58-2.76,1.14-4.17,1.63-.62.21-1.26.38-1.88.61a8.69,8.69,0,0,1-1.67.5h0a2.2,2.2,0,0,1-.36,0h0l-.21-.05-.06,0,0,0c0-.07,0-.13-.07-.2l.93-.41h0l.58-.23s0,0,0,0c-.54.16-1.07.36-1.6.56a.06.06,0,0,0,0,.07,2.29,2.29,0,0,0,.07.28l.07.08s.07,0,.1.06l.23.07a2.7,2.7,0,0,0,1.13-.12c.43-.11.86-.26,1.29-.38.25-.08.5-.13.75-.2l1-.29c1.15-.36,2.27-.8,3.38-1.26s2.17-.91,3.24-1.41,2.18-1,3.26-1.58c.75-.38,1.51-.74,2.25-1.12l1.66-.87,6.19-3.2,2.61-1.36,6-3.17c1.06-.56,2.12-1.11,3.16-1.69,3-1.62,5.9-3.26,8.86-4.87l5.47-3c.45-.24.89-.5,1.34-.73l2.44-1.23,2.49-1.25c.67-.34,1.35-.65,2-1,1.42-.68,2.85-1.37,4.29-2l1.68-.75c.41-.19.83-.36,1.25-.53.26-.11.53-.2.79-.3l.3-.11.26-.09.15-.05a5.73,5.73,0,0,0,.58-.07l.3-.08.34-.08h.3a1.41,1.41,0,0,1,.22.06l.2.12a3.06,3.06,0,0,1,.36.36,4.8,4.8,0,0,1,.37.67,18.7,18.7,0,0,1,.89,3.3c.24,1.23.44,2.47.61,3.71l0-.24c.17,1.25.32,2.5.43,3.75s.21,2.3.32,3.44c.06.71.13,1.42.19,2.12,0,.23,0,.45,0,.67l.09,1.57c.1,1.61.2,3.21.29,4.82.06,1.12.13,2.24.19,3.36,0,.65.06,1.3.11,2,.11,1.47.29,2.93.52,4.38.1.61.21,1.21.34,1.81,0,.3.13.59.19.88l.12.48c.06.23.13.45.2.67s.15.37.23.54h0a7.86,7.86,0,0,1,0-.84,5.83,5.83,0,0,1,0-.59c0-.25,0-.51,0-.76s0-.74.07-1.11c.06-.87.1-1.75.12-2.63s0-1.49,0-2.23-.06-1.5-.1-2.25l-.66-10.64c0-.55-.1-1.11-.15-1.66l-.33-3.52c0-.38-.07-.76-.11-1.15-.06-.63-.14-1.27-.22-1.91-.16-1.23-.33-2.46-.54-3.68a35,35,0,0,0-.77-3.52,11.91,11.91,0,0,0-.62-1.67,3.38,3.38,0,0,0-1-1.29,4.85,4.85,0,0,0-.4-.28,3.12,3.12,0,0,0-.42-.18,2,2,0,0,0-.35-.08l-.39,0Z"/><path d="M1119.17,547.88s0,0-.06.08h0l0,0h0a4.57,4.57,0,0,1-.19.63c-.06.2-.11.4-.17.59s-.16.6-.23.91-.16.62-.22.94-.13.75-.19,1.12a42.87,42.87,0,0,0-.49,4.51c0,.5-.06,1-.08,1.49-.07,1.06-.13,2.13-.14,3.19s0,1.93.06,2.89a30,30,0,0,0,.24,3,24.9,24.9,0,0,0,1.54,5.62,29,29,0,0,0,2.62,5.08,52.05,52.05,0,0,0,3.43,4.65c1.22,1.53,2.52,3,3.87,4.42a88.16,88.16,0,0,0,8.7,7.91,101.34,101.34,0,0,0,9.56,6.78,105.46,105.46,0,0,0,10.41,5.76,92.5,92.5,0,0,0,11.15,4.45,114.67,114.67,0,0,0,11.79,3.2c2,.43,4,.79,6,1.13s4.09.67,6.14.95q6.21.84,12.49,1.19a97.24,97.24,0,0,0,12.31-.05,86.12,86.12,0,0,0,12.27-1.75,58.73,58.73,0,0,0,5.85-1.59,25.76,25.76,0,0,0,2.69-1c.44-.2.86-.42,1.29-.65a14.07,14.07,0,0,0,1.26-.71c.65-.43,1.3-.86,1.93-1.3l1-.71c.4-.29.79-.6,1.17-.92,0,0,0,0,0,0-.52.2-1,.4-1.57.58s-1.13.41-1.7.63l-1.28.52c-.38.16-.78.29-1.17.44l-1.79.69c-1.21.45-2.42.88-3.65,1.27s-2.49.72-3.74,1a77.53,77.53,0,0,1-7.69,1.41c-2.44.32-4.89.55-7.35.67s-5,.13-7.55,0a145.84,145.84,0,0,1-15.06-1.26l.19,0q-3.93-.54-7.83-1.22c-2.67-.47-5.32-1-8-1.66s-5.18-1.4-7.73-2.22-5.07-1.73-7.54-2.77l.16.06a98.29,98.29,0,0,1-11.67-5.92,101.35,101.35,0,0,1-10.76-7.26,94,94,0,0,1-7.56-6.52,70.82,70.82,0,0,1-6.89-7.69h0c-.88-1.14-1.72-2.31-2.49-3.53a27.88,27.88,0,0,1-2-3.83,24.89,24.89,0,0,1-1.69-5.92,36.7,36.7,0,0,1-.24-4.2c0-.73,0-1.45,0-2.18s.08-1.64.14-2.46c.1-1.45.18-2.9.21-4.35,0-1,0-1.92,0-2.88,0-.52,0-1,.05-1.54,0-.2,0-.41,0-.61s0-.29,0-.44a3.42,3.42,0,0,0,0-.64s0,0,0,0Z"/><path d="M1140.13,512.54a3.71,3.71,0,0,0-.68.3,7.62,7.62,0,0,0-.77.48c-.3.19-.59.4-.88.6-.64.45-1.25.92-1.88,1.37l-1.8,1.32c-.68.5-1.34,1-2,1.56l.13-.1c-1.57,1.2-3.13,2.39-4.73,3.53s-3.2,2.21-4.76,3.36c-.75.55-1.5,1.11-2.19,1.72a23.89,23.89,0,0,0-1.89,1.74c-.29.31-.58.62-.84,1s-.64.83-.95,1.27c-.49.67-.92,1.38-1.38,2.08-.3.39-.56.79-.82,1.2s-.53.91-.82,1.36h0c.41-.29.78-.64,1.18-1a9.39,9.39,0,0,0,1-.94c.31-.32.64-.62,1-.94l1-1c.35-.35.7-.71,1.06-1l1.11-1c.72-.65,1.43-1.31,2.17-1.93l.48-.38c1.25-.94,2.54-1.82,3.82-2.71s2.71-1.88,4-2.9,2.65-2,4-3l2.72-1.95c.46-.33.9-.67,1.36-1l.44-.31-.66,1c-.55.81-1.1,1.61-1.64,2.43-1.15,1.77-2.31,3.53-3.43,5.31s-2.1,3.46-3.13,5.19-2.12,3.44-3.2,5.15S1125,537.35,1124,539c-.55.94-1.11,1.88-1.63,2.83a22,22,0,0,0-1.47,3.38,10.43,10.43,0,0,0-.49,2,11.75,11.75,0,0,0-.08,2.22c0,.38.06.77.1,1.15h0a23.1,23.1,0,0,1,1-3.35c.27-.61.58-1.19.9-1.77s.76-1.35,1.14-2,.68-1.18,1-1.77c.21-.38.41-.76.63-1.13s.47-.88.74-1.3c.59-.91,1.17-1.82,1.77-2.72s1.13-1.77,1.69-2.65c1.07-1.72,2.12-3.44,3.16-5.18.51-.87,1-1.73,1.55-2.6s1.06-1.7,1.6-2.56,1.07-1.64,1.61-2.46,1-1.49,1.47-2.22c.59-.89,1.2-1.77,1.81-2.65.27-.37.54-.74.8-1.12a4.35,4.35,0,0,0,.64-1.18,1.26,1.26,0,0,0,0-.43,1.05,1.05,0,0,0-.19-.57,1.15,1.15,0,0,0-1-.51h-.06A2.28,2.28,0,0,0,1140.13,512.54Z"/><path d="M1082.82,478.31l-.24.14a1.42,1.42,0,0,0-.41.4,2.47,2.47,0,0,0-.31.46c-.07.18-.15.35-.22.53-.23.69-.45,1.39-.65,2.1-.15.55-.3,1.1-.43,1.65l-.51,2.18-.24,1.06-.09.37c-.12.67-.25,1.35-.37,2l-.3,1.63c0,.21-.06.44-.09.66-.06.46-.12.92-.19,1.38l-.15,1.16-.06.42c-.06.72-.12,1.44-.19,2.15,0,.41-.07.82-.1,1.23,0,.8-.09,1.6-.13,2.39,0,.49-.05,1-.07,1.46s0,.66,0,1,0,.42,0,.63c0,.41,0,.83,0,1.24,0,.19,0,.38,0,.57,0,.76.07,1.51.1,2.27,0,1.11.13,2.21.2,3.31.06.89.13,1.77.23,2.65.07.52.13,1,.21,1.55s.15.89.23,1.34.15.92.24,1.37c.13.61.25,1.22.38,1.83l.57,2.75c.37,1.79.72,3.58,1.12,5.36.1.48.21.95.32,1.43s.21.84.33,1.25l.15.52-.47-.4c-.35-.31-.68-.64-1-1-.61-.6-1.18-1.24-1.73-1.89s-1.23-1.44-1.82-2.18l-1-1.27c-.31-.37-.6-.76-.9-1.14-1-1.32-2-2.64-3.05-4s-2.17-2.75-3.24-4.14c-1.24-1.6-2.45-3.22-3.66-4.85l-.72-1c-.29-.42-.6-.85-.89-1.28-.64-.93-1.27-1.86-1.9-2.8-1.17-1.74-2.33-3.49-3.52-5.22-.59-.84-1.17-1.68-1.75-2.53-.27-.39-.54-.78-.83-1.17l-.49-.66a4.83,4.83,0,0,0-.34-.45l-.12-.15-.48-.36a1,1,0,0,0-.49-.13,1,1,0,0,0-.7.29l-.18.17c-.11.13-.22.26-.31.39a2.44,2.44,0,0,0-.1.24,2.23,2.23,0,0,0-.21.63c0,.11,0,.22,0,.33l-.12.72c0,.35-.09.7-.12,1-.09.85-.13,1.7-.18,2.55-.07,1.08-.11,2.16-.13,3.24,0,.58,0,1.16,0,1.74a20.16,20.16,0,0,0,.09,2.8,16.25,16.25,0,0,0,.46,2.18c.21.74.48,1.47.75,2.2.06.17.14.35.21.52.19.44.36.87.54,1.31s.37.91.57,1.36c.32.71.65,1.42,1,2.14.48,1.06,1,2.11,1.48,3.17s1,2.17,1.54,3.25,1,2,1.54,3c.42.78.84,1.58,1.32,2.33.23.37.47.73.72,1.09s.57.78.86,1.17c.5.66,1,1.3,1.55,1.94s1.14,1.36,1.72,2,1.08,1.21,1.62,1.82l.81.92-.35-.23c-.47-.31-.92-.65-1.37-1l-1.34-1-2.69-2.06-1.46-1.09c-.21-.16-.42-.33-.64-.48l-1-.69-.55-.35-.93-.6-1.58-1c-.91-.59-1.82-1.19-2.71-1.79l-1.76-1.18-1.45-.95c-.93-.59-1.86-1.17-2.81-1.73l-1.56-.9-.69-.35-.72-.36c-.55-.25-1.11-.49-1.67-.71l-.49-.2-.2-.07a3.81,3.81,0,0,0-.47-.07h-.19a1.34,1.34,0,0,0-.44.1,1,1,0,0,0-.43.25,1.9,1.9,0,0,0-.41.44,2.69,2.69,0,0,1-.16.29,1.75,1.75,0,0,0-.17.58,2.78,2.78,0,0,0,0,.91c0,.35.12.71.18,1.06A17.2,17.2,0,0,0,1041,528c.19.56.39,1.11.6,1.66s.41,1,.62,1.58c.43,1.07.93,2.13,1.45,3.16.24.48.49,1,.74,1.43s.54,1,.84,1.48c.57.93,1.16,1.84,1.78,2.74s1.36,1.84,2,2.75,1.45,1.81,2.21,2.68,1.61,1.76,2.43,2.62,1.64,1.67,2.46,2.5c1.57,1.6,3.11,3.23,4.71,4.79.82.8,1.61,1.61,2.4,2.44l2.3,2.44c.6.65,1.22,1.29,1.83,1.94s1.35,1.38,2,2.08,1.14,1.29,1.71,1.94c.31.34.6.7.9,1.05s.61.76.93,1.13c.6.7,1.22,1.4,1.82,2.11l2,2.36c.59.71,1.15,1.44,1.72,2.16s1.12,1.29,1.65,2c.27.36.55.71.83,1.05l-.15-.2.51.64c.18.25.38.5.57.74l.68.93c.25.38.52.74.77,1.12s.57.89.86,1.33.5.78.74,1.18c.46.74.89,1.49,1.3,2.25l.31.59c.12.23.24.45.34.68l.56,1.32c.22.59.44,1.18.67,1.77.1.25.19.5.29.76s.11.34.16.51c.35,1.13.71,2.26,1,3.4s.69,2.32,1,3.48c.23.74.45,1.47.67,2.22.13.42.25.84.39,1.27.4,1.25.8,2.5,1.21,3.75.16.5.34,1,.52,1.49l.81,2.3c.1.3.22.6.34.89l.94,2.46c.39,1,.77,2,1.15,3s.79,2,1.18,3.08.83,2.22,1.28,3.32c.28.71.57,1.42.86,2.13.2.51.39,1,.61,1.53.53,1.16,1.05,2.33,1.58,3.49,0,.11.11.22.17.33l.49.95c.37.69.73,1.4,1.1,2.09.16.32.35.61.53.92l1.37,2.31.53.88,1.15,1.8c.57.9,1.14,1.81,1.73,2.69l4.5,6.67c.56.82,1.12,1.65,1.69,2.47l1.41,2c.23.33.46.68.72,1l2.75,3.42c.64.78,1.33,1.51,2,2.26l1.6,1.78c.21.23.41.46.63.68l3.2,3.3c.2.19.39.39.58.59s.12.13.19.19l1.16,1,3.41,3.07c.16.14.34.28.51.41l1.82,1.43,3.36,2.63c.82.64,1.67,1.25,2.5,1.87l3.53,2.63c.81.6,1.6,1.22,2.4,1.83l3.16,2.41,2.9,2.23c.79.61,1.57,1.24,2.38,1.83l3.7,2.74,1.19.88c.3.23.62.43.93.64l3.65,2.51c.29.19.6.36.89.54l2.29,1.37c.29.18.59.36.89.52.72.4,1.45.78,2.2,1.14l1.19.53c.58.25,1.17.5,1.77.73s1.28.46,1.93.66c.29.09.57.18.86.25l.55.12c.3.07.6.12.9.17,0,0,0,0,0,0-.57-.33-1.13-.67-1.67-1l-1.63-1.09c-.9-.61-1.81-1.19-2.72-1.77q-1-.61-2-1.17l-1-.58-2-1.23-.93-.56a2.65,2.65,0,0,1-.4-.24l-3.43-2.34-1.19-.82c-.32-.22-.63-.47-.94-.7l-3.82-2.83c-.75-.55-1.48-1.12-2.21-1.69-2.59-2-5.2-4-7.8-6-2.21-1.69-4.46-3.34-6.69-5l-2.78-2.18-1.88-1.48-.62-.48a2.23,2.23,0,0,1-.24-.19l-3.07-2.76-1.44-1.29c-.21-.19-.4-.4-.6-.6l-3.32-3.41c-.69-.71-1.35-1.46-2-2.2l-1.6-1.77c-.22-.24-.43-.47-.63-.71l-2.79-3.46-.14-.16c-.75-1.1-1.51-2.19-2.27-3.28-.59-.85-1.17-1.72-1.75-2.57-1.43-2.11-2.84-4.22-4.26-6.32-.18-.27-.35-.54-.52-.81l-1.43-2.24-.76-1.18-.22-.38-.66-1.11-1.2-2c-.19-.32-.36-.64-.53-1l-1.13-2.17c-.18-.34-.37-.69-.53-1-.46-1-.93-2.06-1.39-3.08s-.93-2.33-1.4-3.49l-.39-1-.93-2.43q-1.17-3.06-2.35-6.12c-.41-1.06-.84-2.13-1.22-3.21l-.8-2.27c-.16-.44-.33-.89-.47-1.34l-1.23-3.81c-.14-.45-.27-.9-.41-1.35-.22-.75-.45-1.49-.67-2.24-.56-1.85-1.11-3.71-1.69-5.56-.16-.51-.31-1-.47-1.53l-.09-.24-.38-1-.52-1.38c-.08-.2-.18-.4-.26-.61l-.45-1a10.8,10.8,0,0,0-.53-1.08c-.23-.42-.46-.84-.7-1.26-.4-.72-.83-1.42-1.27-2.11s-1-1.62-1.58-2.4-.92-1.3-1.41-1.92c-.22-.3-.44-.58-.67-.86l.15.2c-.22-.29-.45-.56-.67-.84s-.53-.69-.81-1-.76-.88-1.13-1.33c-.68-.81-1.31-1.65-2-2.46l-2.16-2.55c-.35-.41-.7-.82-1.06-1.22s-.82-1-1.22-1.46c-.65-.79-1.33-1.56-2-2.32s-1.46-1.58-2.21-2.35c-1.48-1.54-2.94-3.1-4.41-4.65-.59-.63-1.18-1.25-1.78-1.86s-1.14-1.13-1.7-1.69c-1.27-1.27-2.52-2.56-3.77-3.85l-2-2c-.63-.64-1.24-1.29-1.86-1.93-.3-.31-.58-.64-.87-1s-.6-.67-.89-1c-.51-.58-1-1.18-1.46-1.79-.61-.79-1.23-1.58-1.8-2.4s-1.18-1.71-1.72-2.59-1.08-1.87-1.59-2.83-1-2-1.42-3-.72-1.74-1-2.62l-.54-1.6c-.07-.2-.14-.39-.2-.59s-.19-.66-.27-1-.09-.51-.14-.77c0-.1,0-.2,0-.3l0-.07c.26.09.53.2.79.31.46.2.91.41,1.36.63s1.07.55,1.6.85.83.48,1.24.73c.58.35,1.17.71,1.75,1.08.93.58,1.85,1.17,2.76,1.79l3.28,2.18c.92.61,1.85,1.21,2.78,1.81l.83.53c.22.14.43.3.65.45.51.35,1,.71,1.49,1.08,1,.71,1.88,1.43,2.82,2.15l1.5,1.15,1.38,1c1,.76,2.15,1.45,3.26,2.11l.83.5,1,.57.74.44a4,4,0,0,0,1,.51,1,1,0,0,0,1.21-.69,1.06,1.06,0,0,0,0-.56,1,1,0,0,0-.19-.36,2.5,2.5,0,0,0-.34-.39c-.21-.23-.44-.46-.65-.71-.42-.47-.85-.94-1.27-1.42l-2.59-2.91c-.84-1-1.69-1.89-2.52-2.86s-1.64-2-2.44-3c-.4-.53-.81-1.06-1.17-1.62-.21-.33-.42-.66-.61-1s-.42-.72-.62-1.09c-.7-1.26-1.37-2.53-2-3.83l-2-4.19c-.68-1.46-1.34-2.92-2-4.38-.32-.78-.64-1.56-1-2.34a20,20,0,0,1-1.33-4.55,16.47,16.47,0,0,1,0-1.72c0-.36,0-.71,0-1.07,0-.73,0-1.47.06-2.21s.05-1.52.1-2.28c.07-1.12.13-2.24.26-3.36l0-.32c.07.08.13.17.2.26.31.46.62.91.94,1.36.69,1,1.38,2,2.06,3,1.29,1.9,2.55,3.8,3.84,5.69.67,1,1.35,2,2,2.95s1.35,1.85,2,2.77q2.17,2.89,4.42,5.73c.6.74,1.18,1.5,1.77,2.26l2,2.67,1.08,1.4c.36.46.74.91,1.11,1.36.66.83,1.33,1.64,2,2.44.3.36.61.72.93,1s.72.74,1.08,1.1a20.87,20.87,0,0,0,2.4,2,4.85,4.85,0,0,0,.64.4,3.22,3.22,0,0,0,.5.23,1.45,1.45,0,0,0,.53.12,1.16,1.16,0,0,0,.58-.14,1.24,1.24,0,0,0,.41-.41c0-.08.07-.16.1-.23s0-.25,0-.37a3,3,0,0,0,0-.42,1.61,1.61,0,0,0-.1-.36c-.15-.5-.36-1-.53-1.48s-.31-1-.44-1.56c-.3-1.16-.53-2.33-.78-3.5-.2-.92-.38-1.84-.57-2.76l-.63-3-.54-2.62c-.1-.53-.19-1.07-.28-1.6l-.21-1.26c-.1-.82-.2-1.65-.26-2.47l-.21-3.2c-.06-1-.1-2-.14-3,0-.36,0-.72,0-1.07v-1.05a5.28,5.28,0,0,1,0-.56c0-.88.07-1.76.12-2.64s.08-1.89.17-2.84c0-.63.11-1.26.16-1.9,0-.33,0-.67.1-1,.13-1,.27-2,.4-3l.42-2.23c.1-.59.2-1.19.34-1.77.22-.93.43-1.87.65-2.8.29-1.25.63-2.49,1-3.71.09.15.17.31.26.47.24.43.44.88.64,1.32s.39,1,.57,1.48.34,1,.51,1.56c.34,1.07.68,2.14,1,3.21s.7,2.3,1.07,3.44.71,2.08,1,3.12.62,2.14.93,3.21.59,2.16.85,3.25.53,2.32.8,3.48.53,2.33.81,3.5.51,2.17.77,3.25.52,2.16.76,3.24c.49,2.14,1,4.27,1.54,6.4q.43,1.76.93,3.48c.15.48.29,1,.43,1.45l.39,1.45c.07.25.14.5.22.75s.12.35.19.54a1.83,1.83,0,0,0,.37.59,1.09,1.09,0,0,0,1.27.16,1.33,1.33,0,0,0,.42-.43,2.86,2.86,0,0,0,.15-.41c0-.18,0-.35.08-.53,0-.6.07-1.2.11-1.8l.15-1.76c.1-1.09.23-2.17.36-3.25s.22-2,.34-3c.13-1.19.26-2.39.41-3.58s.28-2.17.42-3.26l0,.27c.14-.95.29-1.89.44-2.83s.32-1.79.52-2.69l.33-1.4c.11-.47.25-.93.38-1.39.06-.21.14-.41.21-.6s.13-.37.2-.55c.13-.34.28-.69.42-1,.36-.84.73-1.67,1.1-2.51s.76-1.65,1.11-2.48c.7-1.67,1.35-3.35,2-5a1.34,1.34,0,0,0,.07-.18l.2-.47.08-.2c.19-.44.4-.88.61-1.32.37-.79.72-1.6,1.12-2.38.21-.4.41-.82.65-1.21s.58-.88.89-1.3v.05c0,.26,0,.51,0,.76l-.15,1.86c-.08,1.15-.15,2.32-.21,3.48s-.11,2.32-.19,3.48-.19,2.53-.28,3.79c0,.64-.08,1.27-.11,1.91s-.08,1.14-.13,1.71-.07,1-.13,1.52c-.07.65-.13,1.29-.21,1.93s-.15,1.15-.21,1.73-.12,1.26-.17,1.9-.09,1.12-.12,1.68,0,1.26-.07,1.88c0,.45,0,.89,0,1.33s0,1.14,0,1.71l0,2.47c0,1,0,2,.08,3s.07,2.24.12,3.37c0,.4,0,.81.07,1.21s0,.88.07,1.32l.15,1.79c0,.46.11.92.16,1.38,0,.21,0,.42.08.63s.09.48.14.73.05.38.1.57l.21.8a11.73,11.73,0,0,0,.41,1.27l.15.39.15.26.23.31.29.2a.26.26,0,0,0,.23,0,.83.83,0,0,0,.34-.13,1.3,1.3,0,0,0,.26-.33c.25-.31.51-.62.77-.91s.48-.56.71-.85c.57-.7,1.13-1.41,1.67-2.13,0,0,0,0,0,0-.59.68-1.18,1.35-1.78,2s-1.06,1.11-1.62,1.64l-.2.14h0l-.07-.09a4,4,0,0,1-.15-.49c0-.1,0-.2,0-.3s-.06-.37-.08-.55c-.07-.52-.13-1-.2-1.54s-.12-1-.16-1.49-.1-1.23-.12-1.85-.07-1.15-.09-1.72l-.06-2.09c0-1.26,0-2.53,0-3.8,0-1.08,0-2.17,0-3.25,0-1.27,0-2.54,0-3.81,0-.21,0-.42,0-.63l0-1.1c0-.61.07-1.21.1-1.81,0-.22,0-.44.06-.67l.09-1c0-.25,0-.49.08-.73s.05-.63.09-.95c.08-.57.16-1.14.23-1.7.08-.72.16-1.42.24-2.13,0-.18,0-.37,0-.55,0-.42.07-.84.1-1.26s.09-1.09.12-1.64c.08-1.16.17-2.32.26-3.48,0-.59.1-1.19.13-1.78s.09-1.42.14-2.13c.07-1.16.12-2.33.2-3.49s.17-2.22.26-3.32c0-.41.07-.81.1-1.21a5.48,5.48,0,0,0,0-.81,1.76,1.76,0,0,0-.2-.7,1.47,1.47,0,0,0-.47-.46l-.23-.1a1,1,0,0,0-.41-.09l-.26,0-.51.21-.46.36a4.68,4.68,0,0,0-.56.53,10.19,10.19,0,0,0-.64.8,3.62,3.62,0,0,0-.22.32q-.26.36-.48.72a14.4,14.4,0,0,0-.82,1.49c-.49,1-1,2.06-1.45,3.1-.1.21-.19.42-.28.63a.67.67,0,0,0-.09.21c-.06.13-.11.27-.17.4l-.15.35h0c0,.12-.1.25-.16.37-.34.84-.68,1.68-1,2.53s-.6,1.51-.91,2.25c-1,2.08-1.9,4.15-2.73,6.27a25,25,0,0,0-1,3.48c-.26,1.1-.47,2.21-.65,3.32-.09.6-.18,1.21-.28,1.81s-.18,1.21-.26,1.82c-.16,1.25-.32,2.49-.47,3.74s-.25,2.29-.38,3.44-.25,2.11-.36,3.16c-.05.42-.09.84-.13,1.26,0-.12-.07-.23-.1-.35-.18-.6-.34-1.2-.5-1.8-.3-1.09-.55-2.19-.82-3.29l-.36-1.49c-.14-.56-.26-1.13-.39-1.69-1-4.46-2.12-8.92-3.13-13.39-.25-1.08-.5-2.16-.79-3.23s-.61-2.19-.93-3.29-.66-2.16-1-3.22-.73-2.2-1.06-3.3c-.66-2.16-1.29-4.33-2.05-6.45-.19-.55-.42-1.09-.65-1.61a15.71,15.71,0,0,0-.74-1.48,6.32,6.32,0,0,0-.33-.56l-.27-.44-.11-.15a1.73,1.73,0,0,0-.31-.35l-.2-.15-.4-.18a1.15,1.15,0,0,0-.26,0A1.09,1.09,0,0,0,1082.82,478.31Z"/><path d="M1339.62,672.5a60.77,60.77,0,0,0-1.35,8.58c-.06.71-.09,1.42-.13,2.14s-.07,1.43-.11,2.14c-.08,1.55-.16,3.1-.23,4.64-.07,1.2-.12,2.39-.18,3.58q-.39,7.77-.76,15.54l-.72,14.65c-.13,2.57-.22,5.14-.32,7.72l-.6,14.94c0,1.13-.07,2.27-.11,3.41q-.12,4.23-.25,8.48l-.06,2.37c0,.46,0,.92,0,1.38l.09,8c0,.47,0,.94,0,1.4l.18,2.89.45,7.26c0,.49.09,1,.13,1.45.13,1.36.25,2.72.38,4.07s.23,2.6.35,3.89c0,.44.08.88.13,1.31.3,2.51.61,5,.91,7.53.22,1.85.47,3.7.71,5.56.35,2.67.7,5.34,1,8,.16,1.32.32,2.65.49,4,.09.73.19,1.46.28,2.19a1.53,1.53,0,0,1,0,.37,2.64,2.64,0,0,0,0,.29,1.64,1.64,0,0,0,0,.38l.09.48c-.3.19-.6.38-.9.55-.53.3-1.08.55-1.64.8a31.82,31.82,0,0,1-4.89,1.23c-.94.19-1.87.37-2.8.53l-2.77.49c-.91.17-1.83.3-2.73.53l-3.61.88-.59.17-1.9.59-1.86.57c-.24.08-.49.14-.73.23l-3.4,1.15-2.1.73-3.68,1.34c-.81.29-1.6.63-2.4.95s-1.72.68-2.55,1.08l-1.81.87c-.33.15-.65.3-1,.47-.89.48-1.79,1-2.67,1.45-.53.31-1.07.61-1.59.93a6.31,6.31,0,0,0-1.37,1.1,8.51,8.51,0,0,0-1.25,1.78,16.28,16.28,0,0,0-.79,1.69,3,3,0,0,0-.15.85,4,4,0,0,0,0,1,10.86,10.86,0,0,0,.42,2,18.18,18.18,0,0,0,.69,2c.11.27.23.52.35.78a6.1,6.1,0,0,0,.47.77A9.71,9.71,0,0,0,1294,850a11.12,11.12,0,0,0,1.36,1.2,13.45,13.45,0,0,0,1.87,1.19c.56.3,1.15.54,1.73.78s1.24.44,1.87.64a27.82,27.82,0,0,0,4.23.86,66.92,66.92,0,0,0,14.15.14c2-.14,4-.27,6-.43l5.95-.47c2-.15,4-.32,6-.43s4-.24,5.94-.33l4.07-.19,1.11,0c.26,0,.53,0,.8,0l4.12,0h.9c.37,0,.73.05,1.1.07l4,.26c.79,0,1.58.13,2.38.19,1,.08,2,.18,3,.25l3.53.23c.8.06,1.59.09,2.38.12l2,.07.84,0c2.19,0,4.37,0,6.56,0,3.8-.06,7.61-.13,11.41-.17h4a3.27,3.27,0,0,0,1.28-.19,2.7,2.7,0,0,0,.58-.31,2.28,2.28,0,0,0,.34-.29c.1-.12.19-.25.28-.38a2,2,0,0,1,.1-.21c.07-.16.13-.32.19-.49a5.6,5.6,0,0,0,.19-.81c0-.12,0-.24.06-.36s0-.31.06-.46a13.39,13.39,0,0,0,0-1.42,13.06,13.06,0,0,0-.34-2.72c-.22-1-.49-1.93-.79-2.89s-.66-1.81-1-2.71-.66-1.78-.93-2.7c-.13-.43-.25-.88-.37-1.32a16.42,16.42,0,0,1-.47-1.66,1.21,1.21,0,0,1,0-.19.83.83,0,0,0,0-.15,3.53,3.53,0,0,1,.35-.59l.06-.09c.26-.31.55-.6.83-.89s.65-.67,1-1c.16-.17.3-.35.45-.53s.31-.36.45-.55l1.1-1.5c.17-.24.33-.48.49-.73l1.17-1.81c.45-.7.9-1.41,1.34-2.12l1.09-1.77c.17-.27.35-.54.51-.81l1.74-3c1-1.77,2-3.56,3.06-5.35.32-.56.63-1.11.93-1.68.62-1.22,1.24-2.44,1.87-3.65.28-.55.56-1.08.81-1.64l1.54-3.48,1.31-3c.26-.6.48-1.21.72-1.82l2.58-6.61c.22-.57.42-1.15.63-1.72.5-1.33,1-2.67,1.49-4s1.06-2.88,1.62-4.31c1-2.48,1.93-4.95,2.89-7.43.53-1.35,1.08-2.68,1.63-4,.9-2.19,1.8-4.39,2.71-6.58q1.26-2.85,2.53-5.7c.65-1.46,1.31-2.93,1.94-4.4,1-2.37,2-4.74,3.08-7.12.57-1.33,1.15-2.65,1.69-4l3-7.49c.18-.46.38-.92.55-1.4.33-.94.67-1.87,1-2.81L1444,727c.22-.62.46-1.25.67-1.88.72-2.19,1.45-4.39,2.18-6.58.45-1.38.85-2.77,1.27-4.15.19-.63.4-1.26.57-1.89.25-.86.48-1.73.72-2.59.17-.61.32-1.23.45-1.85.17-.8.33-1.61.45-2.41a38.21,38.21,0,0,0,.47-5.12h0c-.73,1.88-1.51,3.74-2.2,5.63-.32.87-.61,1.74-.88,2.61-.32,1.07-.6,2.14-.9,3.21s-.58,1.94-.88,2.9-.5,1.72-.78,2.57c-.72,2.2-1.45,4.39-2.18,6.59-.44,1.34-.93,2.66-1.41,4q-1,2.73-1.94,5.44c-.17.48-.37.95-.56,1.42l-1.32,3.34-2,5c-.81,1.86-1.61,3.73-2.41,5.59-.67,1.55-1.33,3.11-2,4.66-1,2.29-2,4.56-3,6.84-.59,1.35-1.19,2.69-1.75,4.06l-3,7.37c-.56,1.35-1.09,2.71-1.62,4.07l-2.55,6.55c-.2.53-.39,1.07-.59,1.6-.49,1.33-1,2.65-1.48,4-.6,1.63-1.2,3.26-1.83,4.87l-2.62,6.72-2.64,6c-.12.25-.23.5-.34.75s-.26.51-.39.76l-1.88,3.67c-.29.57-.58,1.14-.9,1.69-.67,1.18-1.34,2.36-2,3.54-1,1.7-2,3.38-3,5.06-.37.63-.76,1.25-1.15,1.87s-.94,1.54-1.42,2.29l-1.77,2.75c-.18.27-.37.52-.56.78l-.83,1.15c-.22.26-.44.54-.67.79l-.75.77-.73.75a6.79,6.79,0,0,0-1,1.38c-.08.17-.15.33-.22.5a5.32,5.32,0,0,0-.12.8,4.87,4.87,0,0,0,.06.55c0,.24.1.46.16.69l.33,1.06c.22.74.41,1.49.65,2.23s.45,1.26.69,1.89.55,1.46.81,2.19a24.72,24.72,0,0,1,1.12,4.3,14.71,14.71,0,0,1,0,2.57,8.44,8.44,0,0,1-.31,1.32l0,.1,0,0-.15.09-.11,0a8.47,8.47,0,0,1-1,0h-2l-2.82,0-5.7.08-6.08.1-2.68,0c-.9,0-1.81,0-2.71,0L1369,852c-.91,0-1.83-.12-2.74-.18-2.11-.14-4.22-.32-6.33-.5-2-.16-3.9-.26-5.84-.39h-.6l-2,0-3.25,0c-.25,0-.49,0-.74,0l-2.06.09-3.13.14c-1,0-1.9.11-2.84.16l-3,.17c-1,.06-2,.15-3,.22l-3,.22-6.14.49c-1.87.15-3.74.27-5.61.41s-3.6.22-5.4.26a52.26,52.26,0,0,1-7.81-.37c-1.08-.16-2.16-.35-3.23-.6a23.77,23.77,0,0,1-3.06-1c-.45-.2-.89-.41-1.32-.64a12.18,12.18,0,0,1-1.44-.93,11.52,11.52,0,0,1-1.62-1.58l-.44-.64a6.89,6.89,0,0,1-.49-.93,15.52,15.52,0,0,1-1-3.39c0-.2,0-.39,0-.59a3.57,3.57,0,0,1,.06-.65l0,.26a2.63,2.63,0,0,1,.18-.54l-.1.24a13.81,13.81,0,0,1,1.21-2.2,6.66,6.66,0,0,1,.87-.89c.76-.52,1.58-.95,2.37-1.41.62-.35,1.25-.67,1.88-1,1.17-.63,2.39-1.18,3.59-1.76l2.95-1.19c.73-.3,1.47-.57,2.21-.84l3.09-1.12c1-.36,2-.68,3-1,.77-.26,1.53-.54,2.31-.78l3.62-1.11,1.07-.33c.35-.11.72-.18,1.08-.27l2-.49c.36-.09.72-.2,1.09-.27l3.93-.71,2.53-.44c.65-.12,1.29-.26,1.94-.39l1.19-.25c.53-.1,1.06-.24,1.58-.38a15,15,0,0,0,3.7-1.5c.29-.16.57-.33.85-.51l.7-.52a3.76,3.76,0,0,0,.25-.31,1.39,1.39,0,0,0,.14-.6,2.57,2.57,0,0,0-.06-.4,1.55,1.55,0,0,0,0-.21l-.09-.54,0-.23-.12-.28-.15-.36c-.46-2.53-.8-5.08-1.15-7.63l0,.19q-.36-2.68-.7-5.38c-.25-2-.52-4-.75-6q-.43-3.72-.86-7.42c-.18-1.54-.3-3.07-.43-4.61-.2-2.26-.39-4.52-.59-6.78-.05-.6-.07-1.21-.1-1.82l-.24-4.22c-.07-1.23-.14-2.46-.2-3.69,0-.39,0-.78,0-1.17,0-2.58,0-5.15,0-7.73,0-.78,0-1.56,0-2.35,0-.49,0-1,0-1.46.1-2.75.19-5.5.29-8.24.11-3.18.24-6.35.37-9.53l.66-15.41c.1-2.43.23-4.87.35-7.3l1.38-27.77c.13-2.75.28-5.5.42-8.25,0-.83.08-1.66.09-2.5s0-1.67,0-2.5c-.07-1.79-.23-3.58-.44-5.35Z"/><path d="M1460,492.88c.39.2.78.41,1.17.6s.92.42,1.39.62c.86.38,1.74.72,2.62,1a53.16,53.16,0,0,0,6.8,1.91c2.34.53,4.68,1,7,1.52l5.79,1.23c1,.2,1.89.48,2.84.73l6.36,1.68,2.07.55.63.19,10.8,3.59,1.61.53c.16.06.33.11.49.18l3.87,1.54,8.75,3.48,9.36,4.2,3.68,1.65.61.29,2.14,1,10.32,5c.72.35,1.43.74,2.15,1.12l5.74,3,4.27,2.24.71.37.93.52,1.4.79c.94.53,1.87,1.06,2.79,1.6q5.12,3,10,6.25c3.29,2.2,6.49,4.52,9.65,6.89l7.88,6.29,3.68,2.94.36.3,1.36,1.23,9,8.13.75.68c.23.2.43.43.65.64l4.06,4c2,2,4.07,4.06,6.13,6.07l8.32,8.13c1.75,1.72,3.52,3.42,5.29,5.12l4.67,4.49c.6.57,1.19,1.16,1.79,1.72l8.36,7.67,1.07,1c.2.19.41.36.62.53l4.52,3.81q3.12,2.61,6.21,5.23l5,4.22,2.11,1.79,7.7,6.64c.34.3.69.57,1,.86l2.56,2.1,3.61,3c.4.33.81.64,1.22,1l2.72,2.13c.94.73,1.87,1.48,2.83,2.19q2.34,1.76,4.7,3.49c1.12.84,2.23,1.7,3.34,2.55l1.89,1.43q2,1.66,4,3.31c.34.29.7.56,1,.86l1.76,1.58c1.1,1,2.22,2,3.31,3l4.24,3.85c2,1.81,4,3.63,6,5.42,1.15,1,2.29,2.08,3.48,3.08l2.25,1.88c.48.4,1,.78,1.44,1.17l3.36,2.67c.53.42,1.08.82,1.62,1.23s1,.78,1.55,1.14c1.08.76,2.18,1.46,3.31,2.14l.77.46c.15.09.29.21.43.3a3.11,3.11,0,0,0,.4.22c.28.15.55.29.82.45a9.63,9.63,0,0,1,.94.63h0c-.19-.28-.39-.54-.6-.8a9.59,9.59,0,0,0-.75-.81l-.32-.33a3.22,3.22,0,0,0-.41-.32c-.12-.1-.23-.23-.35-.34l-.48-.42q-1.61-1.44-3.32-2.74c-.71-.55-1.45-1.08-2.17-1.62s-1.54-1.16-2.31-1.75c-1.08-.85-2.17-1.69-3.23-2.56L1724,666.3c-.42-.34-.82-.71-1.23-1.07-1.1-1-2.2-1.92-3.29-2.9l-4-3.63c-2.09-1.88-4.18-3.77-6.29-5.63l-3.8-3.34c-.13-.11-.26-.22-.4-.32l-1-.8-2.68-2.18-1-.81c-.31-.26-.64-.49-1-.73l-4-3-2.49-1.82-3.31-2.42h0l-6.18-4.78.11.09-7.24-5.9c-.32-.25-.62-.52-.92-.79l-2.37-2-4.43-3.79-2.13-1.79-5-4.21-6.22-5.22-4.54-3.79c-.2-.16-.41-.33-.6-.5l-1.09-1-8.37-7.67c-.61-.56-1.2-1.14-1.8-1.71l-4.68-4.49q-2.65-2.54-5.3-5.1l-8.33-8.13c-2-2-4.09-4-6.13-6.06l-4.06-4-.65-.64c-.24-.24-.5-.46-.76-.69l-9-8.11-1.3-1.18-.42-.35-3.68-2.94-7.93-6.33c-.31-.25-.63-.48-1-.71l-1.31-1c-.87-.64-1.75-1.27-2.63-1.9q-2.85-2.06-5.78-4c-3.72-2.48-7.57-4.77-11.46-7-.93-.53-1.86-1.06-2.8-1.58l-.22-.11-1.71-.9-5.74-3-4.6-2.41c-.64-.33-1.3-.64-1.95-1l-10.85-5.24c-.6-.29-1.2-.57-1.82-.84l-5.43-2.45-5.53-2.5-1.12-.5-.75-.31L1511,506.85c-.42-.18-.85-.35-1.27-.51-.23-.1-.48-.17-.71-.25l-5.31-1.78-5.8-1.94-1.19-.4c-.3-.1-.62-.17-.93-.25L1485.48,499c-.22-.06-.45-.1-.68-.15l-2.11-.45-5-1.09c-2.33-.5-4.66-1-7-1.56-.88-.21-1.75-.45-2.62-.68l-2.65-.7-2.65-.69-1.48-.39-1.27-.37h0Z"/><path d="M1647.36,679.85c-.43,1.21-.85,2.44-1.35,3.63-.6,1.36-1.28,2.69-1.89,4-.22.48-.41,1-.61,1.45l-1.7,4c-.25.62-.51,1.23-.76,1.84-.11.26-.23.52-.33.78l-1,2.7c-.54,1.48-1.09,2.95-1.63,4.42-.21.57-.44,1.14-.63,1.72q-1.28,3.72-2.54,7.43-.78,2.3-1.57,4.58l-2.91,8.2c-.22.62-.43,1.25-.66,1.86-.31.83-.63,1.65-.94,2.48q-1.5,3.91-3,7.83c-.77,2-1.59,4-2.39,6.06-.56,1.43-1.1,2.87-1.6,4.33s-1,3.1-1.49,4.66a76.59,76.59,0,0,0-2.19,9.24,74.33,74.33,0,0,0-1,9.41,52.48,52.48,0,0,0,.42,9.29,58,58,0,0,0,2,9.11,59.22,59.22,0,0,0,3.38,8.5q1,2,2.13,3.94c.38.63.78,1.26,1.18,1.89s.66,1.06,1,1.57c1.22,1.72,2.46,3.43,3.67,5.16l2.43,3.45c.44.63.9,1.24,1.29,1.89l2.3,3.75.67,1.1c.17.28.31.59.46.88l2,3.76c.48.9.92,1.82,1.38,2.73.93,1.86,1.89,3.71,2.86,5.55.44.85.91,1.69,1.38,2.53l.79,1.4c.32.56.66,1.12,1,1.7a13.36,13.36,0,0,1,.47,1.52c.13.56.21,1.14.3,1.71s.18,1.4.26,2.1a1.62,1.62,0,0,1,0,.22c0,.21,0,.43,0,.64s0,.71,0,1.06c.07.78.14,1.57.19,2.36a17.74,17.74,0,0,1,.07,2.63,1.17,1.17,0,0,1-.07.25,8.49,8.49,0,0,1-.61,1.1c-.29.42-.59.84-.9,1.25a20.38,20.38,0,0,1-3.13,2.88c-1.21.9-2.55,1.65-3.84,2.43-1,.6-2,1.2-3,1.81s-1.67,1-2.47,1.59c-.49.34-1,.66-1.47,1l-1.41,1.11c-.33.27-.68.52-1,.8l-1.56,1.34c-.81.71-1.61,1.43-2.42,2.16-1.56,1.43-3.12,2.88-4.67,4.33l-2.33,2.16c-.28.26-.55.52-.81.79a1.39,1.39,0,0,0-.36.59,2.34,2.34,0,0,0,0,.26,1.06,1.06,0,0,0,0,.56,2.29,2.29,0,0,0,.1.23,3,3,0,0,0,.32.47l.2.15a1.62,1.62,0,0,0,.41.27,4.18,4.18,0,0,0,.92.32c.42.11.86.18,1.29.25.69.11,1.38.17,2.08.23l1.38.11,3.35.21c1.06.07,2.11.14,3.18.18s2.06.11,3.09.11c2.46,0,4.91,0,7.37,0l6.38-.06,6.06,0,2.12,0c.44,0,.88,0,1.33,0l1.85-.08c.51,0,1,0,1.53-.06l6.56-.43,3.18-.18c1.28-.08,2.56-.17,3.83-.27s2.26-.21,3.39-.35,2.22-.33,3.33-.5c.91-.11,1.82-.22,2.74-.28,1.1-.08,2.2-.14,3.31-.18s2-.05,3.06-.12a10.2,10.2,0,0,0,1.45-.24,8.13,8.13,0,0,0,1.38-.51,4.2,4.2,0,0,0,1.21-.87,3.48,3.48,0,0,0,.45-.74c.18-.35.32-.73.47-1.1a14.59,14.59,0,0,0,.51-1.86c.14-.65.24-1.3.35-1.95s.27-1.44.41-2.16c.21-1.16.43-2.32.64-3.47.28-1.53.57-3.06.85-4.58.12-.65.26-1.3.35-2,.24-1.66.49-3.33.73-5,.07-.52.11-1.05.15-1.58,0-.75.13-1.49.16-2.24.07-1.44.11-2.88.22-4.31s.23-2.75.38-4.12c.06-.46.13-.91.21-1.36s.18-.87.28-1.3c.19-.89.41-1.77.58-2.66s.42-2,.62-3c.09-.51.2-1,.3-1.5s.16-1.05.24-1.57c.31-2.06.62-4.12.88-6.18.12-1,.21-2,.31-2.94s.24-2,.36-3,.35-2.32.53-3.48.38-2.15.57-3.22c.36-2,.74-4,1.13-6.08s.78-4.1,1.2-6.15c.06-.27.11-.54.17-.81s.13-.49.19-.74c.13-.5.27-1,.42-1.48s.29-1,.45-1.5l.63-1.91c.49-1.51,1-3,1.61-4.47.46-1.09.9-2.19,1.35-3.28.39-.88.78-1.74,1.19-2.61.32-.71.68-1.4,1-2.11s.72-1.59,1.06-2.4c.44-1,.88-2,1.3-3s.79-1.9,1.14-2.86c.3-.8.56-1.62.8-2.44a31.29,31.29,0,0,0,1.2-5.51h0c-.45.88-.93,1.74-1.41,2.61s-.83,1.52-1.22,2.29-.76,1.53-1.11,2.31c-.46,1-.87,2-1.29,3.08-.91,2.13-1.81,4.26-2.81,6.34-.52,1.08-1,2.16-1.5,3.26s-.87,2.07-1.29,3.12l0-.09c-.39.91-.76,1.83-1.09,2.76s-.68,2-1,2.94c-.16.51-.34,1-.5,1.53l-.57,1.92c-.27.91-.49,1.83-.68,2.75q-1.24,6.27-2.38,12.55c-.2,1.13-.41,2.25-.59,3.39s-.39,2.42-.53,3.64-.29,2.47-.42,3.7-.24,2.2-.38,3.3-.31,2.07-.46,3.1-.29,2.11-.49,3.16l-.6,2.94c-.1.48-.19,1-.29,1.43s-.24,1-.35,1.55c-.21,1-.42,1.92-.59,2.89-.09.52-.15,1-.2,1.58s-.12,1.15-.17,1.72c-.19,2.11-.3,4.22-.39,6.34,0,.55-.08,1.1-.12,1.66l-.12,1.62-.69,4.72c-.16,1.13-.4,2.25-.61,3.38l-1.11,6c-.09.48-.17,1-.27,1.42-.21,1-.35,1.95-.52,2.92a15.29,15.29,0,0,1-.74,2.75,7.18,7.18,0,0,1-.42.83l-.05,0a5.25,5.25,0,0,1-.8.47,7.5,7.5,0,0,1-1.48.39c-1,.11-2.07.11-3.1.14s-2.19.1-3.29.17-2.11.19-3.17.33-2.14.33-3.21.49c-2.14.25-4.29.41-6.43.56l-6.62.4-3.21.21c-1.08.08-2.17.11-3.25.15s-2.14,0-3.21.06l-3,0q-6.83,0-13.66.11c-1,0-2.06,0-3.1,0h-1.55c-.48,0-1,0-1.44-.06-1.06,0-2.11-.08-3.17-.15l-3.4-.22c-.56,0-1.11-.06-1.67-.11-.72-.06-1.44-.12-2.16-.2l-.83-.14a7.86,7.86,0,0,1-.84-.19c.42-.42.87-.82,1.3-1.22l1.68-1.55c1.13-1,2.26-2.11,3.4-3.15l2.1-1.93c.51-.46,1-.9,1.56-1.35s1-.93,1.58-1.36l1.92-1.51,1.08-.75c.29-.21.58-.42.88-.61L1639,862c1.75-1.09,3.55-2.1,5.28-3.22a15.86,15.86,0,0,0,1.4-1c.47-.36.92-.74,1.37-1.13a14,14,0,0,0,1.17-1.14,13.5,13.5,0,0,0,1.19-1.52c.14-.19.28-.39.41-.59a8.24,8.24,0,0,0,.54-.9,3.74,3.74,0,0,0,.42-1.39,14,14,0,0,0,0-1.83c0-.94-.13-1.88-.21-2.82s-.24-1.61-.36-2.42a34.38,34.38,0,0,0-.79-4.84,7.52,7.52,0,0,0-.78-1.82l-.33-.56c-.29-.47-.58-.94-.86-1.41-1.09-1.8-2.1-3.64-3.08-5.5-.48-.9-1-1.81-1.42-2.72s-1-1.95-1.49-2.91c-.63-1.19-1.26-2.39-1.9-3.58-.19-.38-.39-.76-.59-1.13s-.36-.58-.54-.87c-.64-1-1.29-2.1-1.94-3.14-.29-.48-.57-1-.89-1.43l-3.5-4.92q-1.62-2.26-3.26-4.51c-.91-1.27-1.75-2.6-2.56-3.93a54.15,54.15,0,0,1-3.56-7h0a59,59,0,0,1-2.38-6.89,56.8,56.8,0,0,1-1.45-7.21c-.16-1.22-.28-2.44-.35-3.67s-.09-2.56-.08-3.84a66.81,66.81,0,0,1,.6-8,73.62,73.62,0,0,1,1.89-9.32c.39-1.46.83-2.89,1.29-4.32s1-3.13,1.6-4.67c1-2.78,2.2-5.5,3.26-8.26l1-2.47,3-7.82c.17-.42.32-.85.47-1.28l1.42-3.93,1.55-4.29c.21-.58.42-1.15.62-1.73l2.43-7c.58-1.65,1.12-3.31,1.74-4.94q1.45-3.86,2.9-7.69l.11-.3,2.43-5.72c.41-1,.82-1.93,1.19-2.91a22.93,22.93,0,0,0,1.15-4c.1-.51.14-1,.19-1.55.06-.69.09-1.39.11-2.09h0Z"/><path d="M1740.22,681.85c.16.18.32.37.49.55.27.4.53.81.79,1.22.13.2.24.36.37.53l.68.9c.81,1.05,1.66,2.07,2.52,3.09,1,1.18,2,2.34,3,3.51l4,4.61c.37.43.77.85,1.15,1.27l2.77,3.05,2.48,2.73c.34.37.67.75,1,1.12,1.43,1.49,2.85,3,4.27,4.48l3.84,4c.36.38.74.75,1.11,1.13.92.94,1.84,1.89,2.77,2.83,1.69,1.73,3.41,3.44,5.07,5.2l7.54,7.95c.43.46.87.9,1.27,1.38l2.81,3.36,5.85,7,7.54,10c.19.25.39.5.56.76.43.64.87,1.28,1.3,1.93l4.53,6.72c.51.77,1,1.53,1.54,2.29.17.26.33.51.49.78l3.47,6.06,2.82,4.9c.06.1.1.21.15.31l.5,1c.59,1.21,1.18,2.42,1.76,3.63l2.4,4.92,2.3,5.58,1.1,2.69c.18.43.32.88.47,1.33q1.18,3.56,2.39,7.11c.11.34.22.68.32,1l.84,3.13c.59,2.21,1.19,4.42,1.78,6.64.1.35.17.72.26,1.08.27,1.21.55,2.42.82,3.62l1.41,6.18.27,1.28c.27,1.29.55,2.58.82,3.87.53,2.51,1.07,5,1.58,7.53q.59,2.87,1.18,5.75c.17.86.36,1.73.52,2.59q.82,4.53,1.67,9c.07.4.13.81.19,1.22.17,1,.33,2.05.49,3.07.23,1.41.45,2.82.68,4.23l.69,6.17c.06.46.11.92.14,1.39.08,1.31.17,2.61.26,3.91,0,.71.11,1.42.14,2.13,0,1,.07,2,.1,3,.06,1.67.12,3.34.16,5,0,2.19.11,4.38.16,6.56.05,2,.14,4,.2,6,.13,3.8.22,7.61.32,11.41,0,.85,0,1.71,0,2.56l0,5.05v1c0,.3,0,.6,0,.9-.08,1.62-.15,3.25-.23,4.88-.06,1.3-.13,2.61-.19,3.92,0,.16,0,.32,0,.48l-.21,1.7c-.33,2.77-.67,5.53-1,8.3q-.56,3-1.13,6c-.28,1.49-.54,3-.87,4.47q-.8,3.48-1.58,7c-.11.46-.23.92-.35,1.38-.36,1.35-.71,2.69-1.06,4l-1.23,4.65c-.33,1.24-.67,2.48-1,3.72-.14.52-.27,1-.42,1.54q-1,3.41-2,6.81c-.48,1.66-1,3.29-1.59,4.93-.28.83-.53,1.67-.83,2.49-.48,1.32-1,2.64-1.43,4-.7,1.94-1.46,3.87-2.24,5.79l-.41.75c-.16.28-.33.56-.47.85-.31.64-.62,1.27-.95,1.9a23.14,23.14,0,0,1-2,3.11l.15-.19c-.44.57-.87,1.16-1.3,1.76s-.91,1.31-1.38,2-1,1.42-1.45,2.14-.88,1.23-1.34,1.83l-.33.42c-.18.22-.38.43-.57.64l-1.2,1.34c-.71.79-1.4,1.6-2.1,2.4s-1.32,1.53-2,2.31a29.26,29.26,0,0,0-1.79,2.36c-.55.84-1.08,1.71-1.6,2.58s-1,1.63-1.55,2.42-1.15,1.69-1.74,2.53l-.38.54c.17-1,.36-1.95.54-2.93.24-1.28.49-2.56.73-3.85l1.05-5.65c.09-.48.18-.95.24-1.43l.54-3.81c.14-1,.29-2,.43-3.07.07-.52.11-1,.16-1.56l.63-7.52c.12-1.4.19-2.81.28-4.23.14-2.2.27-4.4.41-6.61,0-.48,0-1,.05-1.47l.12-4.1c0-1,.07-2.08.1-3.12,0-.45,0-.91,0-1.36,0-2.4-.07-4.8-.11-7.2,0-.39,0-.79,0-1.18-.07-1.31-.13-2.61-.19-3.91-.08-1.56-.14-3.12-.25-4.67l-.48-7.09c-.12-1.74-.27-3.47-.4-5.21-.12-1.56-.23-3.13-.37-4.7l-.63-7.21c0-.43-.09-.86-.14-1.28-.16-1.34-.33-2.68-.49-4-.1-.84-.2-1.69-.31-2.53s-.24-1.52-.37-2.28l-.63-3.77c-.09-.55-.18-1.1-.3-1.64l-1.41-6.22c-.13-.6-.31-1.2-.47-1.8l-.51-1.79c-.34-1.19-.72-2.37-1.12-3.54s-.86-2.35-1.32-3.51c-.35-.89-.7-1.77-1.07-2.64-.84-1.95-1.69-3.9-2.52-5.85l-.2-.41c-.23-.47-.46-.94-.68-1.41l-1.72-3.52c-.25-.52-.54-1-.82-1.51l-2-3.54c-.1-.18-.19-.36-.29-.53s-.38-.58-.56-.87c-.74-1.15-1.48-2.29-2.21-3.44-.28-.43-.56-.86-.86-1.28l-2.28-3.28c-.33-.47-.65-1-1-1.42l-2.21-3c-.45-.6-.89-1.21-1.35-1.8l-2-2.64c-2.36-3.05-4.69-6.13-7-9.18-1.1-1.42-2.27-2.79-3.41-4.17-.18-.22-.37-.43-.56-.64l-1.29-1.47-.74-.83c-.33-.38-.7-.74-1-1.1l-1-1.07c-.22-.23-.45-.43-.68-.65l-2-1.9-4.48-4.18c-.24-.22-.49-.42-.73-.63l-1.41-1.23-2.13-1.82-2-1.69c-.61-.52-1.24-1-1.88-1.52-1.56-1.19-3.14-2.36-4.72-3.54-1.42-1.05-2.88-2.06-4.34-3.06l-2-1.38c-.75-.5-1.52-1-2.3-1.43a17.3,17.3,0,0,0-2.31-1.07c-.78-.3-1.56-.56-2.36-.8-.62-.18-1.26-.31-1.88-.45-.88-.19-1.77-.33-2.65-.46a0,0,0,0,0,0,0c1,.57,2,1.12,3.08,1.67.84.44,1.67.9,2.5,1.35s1.77.95,2.64,1.45l1.47.88c.48.3,1,.64,1.42,1,1.81,1.23,3.61,2.48,5.38,3.76l2.42,1.79c.91.68,1.82,1.36,2.72,2.05q2.82,2.31,5.56,4.71l1.83,1.58c.39.34.77.7,1.15,1.06,1.08,1,2.14,2,3.21,3l2.81,2.68c.38.36.73.74,1.09,1.12s.89.89,1.3,1.36,1.07,1.21,1.6,1.81c.34.39.7.77,1,1.17l2.79,3.37-.15-.2c1,1.35,2.09,2.7,3.12,4.06s2.27,3,3.41,4.46,2.32,3,3.44,4.47l2.26,3c.38.52.78,1,1.15,1.56l2,2.83,1,1.41c.15.21.3.41.44.63l3.2,5c.14.22.26.47.39.7l.9,1.61c.55,1,1.08,1.92,1.63,2.89.09.17.17.35.25.52.25.51.5,1,.74,1.53l1.64,3.37c.11.22.2.44.3.67l.89,2.06c.49,1.12,1,2.24,1.45,3.36.77,1.89,1.53,3.78,2.21,5.71s1.25,3.94,1.79,5.93.92,3.91,1.36,5.87c.16.68.31,1.35.46,2,0,.11,0,.22.06.33.08.46.15.92.23,1.38l.87,5.16q.36,3.06.74,6.13c0,.46.12.91.16,1.37l.3,3.43c.14,1.7.31,3.41.44,5.12.18,2.42.37,4.83.56,7.25.11,1.51.21,3,.32,4.54.08,1.26.17,2.52.25,3.78,0,.5.08,1,.1,1.51.12,2.36.23,4.73.34,7.09.08,1.53.08,3.07.11,4.61s0,3.21.07,4.82c0,.23,0,.46,0,.7,0,.76,0,1.53-.07,2.3,0,1.81-.11,3.62-.17,5.43,0,.85-.08,1.7-.13,2.56l-.36,5.78c-.06.92-.1,1.84-.18,2.76q-.37,4.57-.77,9.13c-.26,1.88-.53,3.76-.79,5.64-.08.58-.14,1.17-.25,1.75-.19,1-.37,2-.56,3-.32,1.71-.63,3.42-1,5.12l-.6,3.23c-.17.87-.33,1.75-.48,2.62-.09.5-.15,1-.22,1.52s-.07,1-.1,1.52a1,1,0,0,0,.49.85,1,1,0,0,0,1,0,2.28,2.28,0,0,0,.53-.34,3.83,3.83,0,0,0,.36-.44c.2-.29.41-.57.63-.85l1-1.45c.77-1.09,1.52-2.19,2.27-3.3s1.26-2,1.85-3c.32-.53.64-1,1-1.57s.71-1,1.08-1.5,1-1.24,1.52-1.85l1.65-1.9c.54-.61,1.07-1.24,1.62-1.85l.83-.93c.2-.22.41-.44.61-.67s.31-.38.46-.57q.71-.88,1.35-1.8c.49-.7.94-1.42,1.44-2.12l1.32-1.89c.41-.6.85-1.17,1.27-1.76l0,0c.47-.62.93-1.24,1.36-1.88a21.07,21.07,0,0,0,1.25-2.15c.2-.38.38-.77.57-1.15.07-.17.18-.36.24-.53s.11-.36.17-.54c.13-.39.24-.81.39-1.2l.72-1.83c.58-1.5,1.13-3,1.67-4.52l1.2-3.37c.21-.59.4-1.19.6-1.78.39-1.22.79-2.43,1.19-3.65.18-.54.37-1.09.54-1.65q1-3.4,2-6.81c.46-1.59.87-3.2,1.29-4.8s.86-3.2,1.28-4.8c.32-1.24.64-2.49,1-3.73.14-.53.28-1.06.41-1.59.06-.22.13-.44.18-.67.49-2.16,1-4.33,1.48-6.49.12-.52.25-1,.35-1.57l.51-2.66c.43-2.28.87-4.57,1.3-6.85.08-.39.11-.79.16-1.18.15-1.25.3-2.49.46-3.74q.36-3,.73-5.94a4.52,4.52,0,0,0,0-.52c0-.45,0-.9.07-1.35.07-1.41.13-2.83.2-4.24.06-1.07.11-2.14.16-3.21,0-.43,0-.87,0-1.31,0-2.42,0-4.83,0-7.25,0-1.7-.08-3.39-.13-5.09s-.07-3.16-.12-4.73c-.09-2.45-.18-4.91-.26-7.36-.12-3.26-.17-6.53-.29-9.8l-.15-3.81c0-.65,0-1.3-.08-1.95l-.45-6.31c0-.16,0-.33,0-.49l-.17-1.49-.48-4.1c0-.48-.1-1-.18-1.46l-.51-3.13c-.2-1.28-.41-2.56-.61-3.83-.09-.54-.17-1.07-.26-1.6l-1.26-6.74c-.25-1.32-.49-2.65-.77-4-.51-2.52-1-5-1.55-7.55-.76-3.72-1.57-7.42-2.36-11.13-.3-1.37-.62-2.73-.94-4.09-.52-2.29-1-4.59-1.57-6.88-.08-.32-.16-.64-.25-1-.32-1.16-.63-2.32-1-3.48l-1.65-6.09c0-.13-.09-.26-.13-.38-.14-.41-.27-.81-.41-1.21-.45-1.34-.91-2.67-1.36-4-.33-1-.67-2-1-3-.14-.41-.31-.81-.48-1.22-1-2.3-1.91-4.6-2.87-6.91-.15-.37-.3-.75-.47-1.12l-1.2-2.45-3.3-6.75c-.13-.28-.26-.55-.41-.81l-1.4-2.43-4-6.94-1-1.67a.94.94,0,0,0-.12-.18l-.58-.87-4.32-6.41c-.63-1-1.27-1.89-1.91-2.84l-.58-.87c-.08-.11-.15-.23-.23-.33-2.58-3.42-5.14-6.84-7.71-10.26-.19-.25-.37-.51-.57-.75l-1.46-1.73-5.15-6.15c-.6-.73-1.21-1.46-1.82-2.18-.2-.24-.4-.48-.62-.71l-4.68-4.95-4.14-4.37-.82-.84-2.61-2.67-4.85-5c-1-1-1.93-2-2.89-3l-4.18-4.4c-.57-.6-1.14-1.19-1.7-1.81l-6.92-7.63c-.78-.86-1.53-1.76-2.3-2.64l-3.65-4.2c-.88-1-1.71-2.06-2.57-3.08-.56-.66-1.13-1.29-1.71-1.92-.3-.32-.58-.65-.86-1a9.84,9.84,0,0,0-.76-.82,2.82,2.82,0,0,0-.58-.43.38.38,0,0,0-.17,0A.35.35,0,0,0,1740.22,681.85Z"/><path d="M1459.16,750.91c.26.25.52.51.8.74l.61.5c.33.27.7.52,1,.77.65.45,1.32.88,2,1.29s1.44.85,2.17,1.24c.91.48,1.85.92,2.77,1.37s1.6.74,2.39,1.11,1.41.63,2.12.93l2.47,1c.82.35,1.65.69,2.48,1s1.62.58,2.44.83c.36.11.73.2,1.09.29.2.06.41.09.62.14l.55.11a25.87,25.87,0,0,0,4.88.48c.81,0,1.62,0,2.43-.08q5.45-.24,10.88-.56c3.2-.18,6.4-.39,9.59-.61l6.55-.45,3.49-.25,7.13-.6c1.14-.1,2.28-.2,3.42-.28l12.12-.84.87,0,2.87-.08,7.37-.19,2-.05c.32,0,.64,0,1,0l7,.13,3.29.07c.41,0,.84,0,1.26,0l5.56.36,3.54.23,1.06.07.37,0,5.91.76,3,.39-.19,0,5.71,1.13,2.12.41c.19,0,.37.1.55.15l1.62.42,3.35.9c.49.13,1,.28,1.46.43l3.47,1.1,1.38.45c.67.23,1.34.47,2,.69.93.3,1.86.56,2.8.81,1.81.48,3.64.89,5.48,1.25h0c-1.22-.65-2.44-1.28-3.69-1.84-1-.48-2.1-.92-3.17-1.34-1.45-.57-2.92-1.06-4.41-1.52l-3.48-1.08c-.48-.15-1-.3-1.46-.43l-3.36-.87-1.52-.4c-.21,0-.43-.12-.65-.16l-5.85-1.13-2-.38c-.2,0-.41,0-.61-.08l-1.32-.16-6.78-.86c-.32,0-.64-.07-1-.09l-3-.19-6.62-.41c-.28,0-.56,0-.85,0l-2.71,0-7.37-.13-1.75,0c-.37,0-.75,0-1.11,0l-11.94.33c-.4,0-.81,0-1.21.08l-3.21.23-7.1.5-3,.23-7.27.61c-3.46.3-6.92.51-10.37.74l-4.28.28c-1.6.1-3.2.21-4.8.29l-5.33.27-5.67.21c-.64,0-1.28,0-1.92,0l-1.49,0a18.61,18.61,0,0,1-2.47-.15c-.48-.07-1-.15-1.45-.24-.3-.05-.61-.1-.91-.17-.66-.16-1.32-.31-2-.51s-1.31-.43-2-.68-1.28-.5-1.92-.76l-4.23-1.79c-.38-.16-.75-.35-1.12-.52l-2-.91c-1-.45-1.94-1-2.93-1.39s-1.77-.77-2.67-1.13c-.55-.23-1.1-.45-1.66-.66l-1.38-.55-.62-.27c-.42-.18-.83-.38-1.24-.58h0Z"/><path d="M1272.89,623.75c1.2,1.41,2.45,2.78,3.76,4.08.67.67,1.36,1.32,2.06,1.95s1.3,1.12,2,1.67c1.4,1.19,2.76,2.4,4.13,3.61s2.57,2.34,3.85,3.51,2.51,2.37,3.76,3.55c.45.43.88.89,1.31,1.34l2.06,2.15c.2.21.38.43.57.65l1.22,1.38c.5.56,1,1.14,1.48,1.71s1,1.18,1.51,1.76l1.94,2.19c.23.25.47.48.7.73l1.29,1.36c.47.5,1,1,1.43,1.49q2,2.07,4,4.12c1.2,1.21,2.42,2.39,3.63,3.57s2.33,2.31,3.49,3.47c.22.22.42.45.62.67l1.27,1.36c.46.5.94,1,1.38,1.51l2.1,2.46c.56.66,1.14,1.31,1.72,2s1.12,1.26,1.68,1.89,1.18,1.25,1.78,1.87a35.57,35.57,0,0,0,4,3.4c1.19.92,2.41,1.81,3.64,2.67,0,0,0,0,0,0-1.23-1.55-2.54-3.05-3.92-4.48-.58-.61-1.16-1.22-1.76-1.8s-1.22-1.23-1.82-1.86c-1.18-1.21-2.29-2.5-3.41-3.77l-1.47-1.7-1.21-1.42c-.17-.2-.34-.41-.52-.6L1319,668c-.42-.46-.84-.91-1.27-1.35-1.25-1.24-2.49-2.49-3.74-3.72l-2.37-2.34c-.54-.53-1.06-1.07-1.59-1.61q-1.87-1.92-3.73-3.86l-1.73-1.84c-.48-.52-1-1-1.43-1.56-.64-.74-1.28-1.47-1.93-2.2-.26-.3-.51-.61-.76-.91l-1.09-1.29c-.53-.63-1.08-1.23-1.62-1.85s-.89-1-1.35-1.48l-2.34-2.45c-.45-.47-.94-.92-1.42-1.37l-2.2-2.09c-.54-.52-1.1-1-1.65-1.52l-2.12-1.95c-.59-.54-1.19-1.06-1.79-1.58s-1.28-1.16-1.94-1.72l-2.24-1.9c-1.26-1.07-2.57-2.07-3.91-3s-2.59-1.77-3.91-2.61h0Z"/><path d="M1182.31,700q2.39,1.35,4.84,2.52c.91.44,1.84.85,2.77,1.23.64.27,1.29.51,1.94.76l2.23.84c.74.28,1.5.53,2.25.79,1.55.52,3.11,1,4.67,1.5.58.18,1.19.31,1.78.47l2.94.76,1.38.33,3.28.76c1.28.3,2.56.58,3.85.86,1.54.33,3.08.68,4.63,1,3.07.62,6.14,1.25,9.22,1.85l10.47,2.07c2.77.56,5.53,1.19,8.31,1.73l3.3.64c.54.11,1.08.23,1.62.31l5.65.89c.44.07.89.13,1.34.18l3.24.35c.66.08,1.31.17,2,.22l2.39.17,2.85.21c.58,0,1.15,0,1.73.06l3.2.11h1.2c1.2,0,2.39,0,3.58-.11s2.21-.21,3.31-.35l1.7-.26c.56-.09,1.13-.17,1.7-.28l2.12-.43,3.25-.65c.4-.08.8-.16,1.2-.26l5.61-1.36c1.58-.39,3.15-.82,4.72-1.22s3-.83,4.46-1.26c.52-.14,1-.28,1.54-.45l2.9-1c.59-.21,1.19-.39,1.76-.64l2.75-1.2c.53-.24,1.06-.47,1.58-.72.87-.43,1.75-.85,2.62-1.31.56-.3,1.14-.57,1.7-.88.22-.12.45-.24.66-.37s.59-.39.87-.59c1.18-.8,2.31-1.65,3.42-2.54,0,0,0,0,0,0-1.3.48-2.61.93-3.9,1.4-.55.2-1.09.41-1.62.65l-1.21.58-.68.35c-.65.29-1.28.59-1.91.9-.46.23-.92.47-1.39.68l-3.7,1.63-4.51,1.58-.55.16-1.56.44-2.71.78c-.55.16-1.1.29-1.66.43l-3.19.83c-1.43.38-2.87.71-4.3,1.06l-2.5.61-.47.09-1.54.31-3.48.71c-1.42.28-2.85.51-4.28.71-1.09.14-2.17.24-3.26.31s-2.2.08-3.3.09c-.86,0-1.71,0-2.57-.06l-3-.1c-.54,0-1.08-.07-1.61-.1l-3.21-.23c-.43,0-.87-.06-1.3-.11l-5.22-.56-5.22-.81c-1.44-.23-2.87-.53-4.3-.8s-2.78-.54-4.16-.83-3-.63-4.45-.93q-5-1-10.09-2c-3.33-.65-6.67-1.32-10-2-1.27-.25-2.54-.53-3.81-.81-1.42-.3-2.84-.59-4.25-.92l-5.47-1.28c-.59-.13-1.17-.3-1.75-.45l-2.94-.77c-.58-.15-1.15-.35-1.72-.53-.77-.25-1.54-.47-2.3-.74l-2.46-.84c-.65-.23-1.29-.49-1.93-.74-1.59-.62-3.17-1.24-4.8-1.77s-3.08-.9-4.64-1.28l-1.59-.35S1182.3,700,1182.31,700Z"/><path d="M1565.61,763.35c-1,2.3-1.85,4.64-2.59,7-.27.89-.5,1.79-.73,2.7-.27,1.09-.55,2.18-.82,3.28-.48,1.93-.85,3.88-1.21,5.84q-.33,1.74-.63,3.48c-.16.93-.33,1.85-.49,2.78-.18,1.11-.35,2.23-.52,3.34s-.32,2.08-.46,3.13-.29,2.29-.42,3.44c0,.48-.08,1-.11,1.46,0,.22,0,.45,0,.67s0,.45,0,.67c0,.54,0,1.08,0,1.61s.05,1.29.08,1.93c0,1,.1,2,.19,3,0,.55.1,1.09.16,1.64s.17,1.16.27,1.74c.19,1,.4,2.09.61,3.13.43,2,.88,4,1.45,6,.28,1,.62,1.92,1,2.85s.82,2.09,1.26,3.13c.28.65.57,1.29.86,1.94.43,1.06.9,2.12,1.23,3.22.09.29.17.58.26.86s0,.3.08.45a3.54,3.54,0,0,0,.08.45c.16.67.34,1.34.45,2a6.93,6.93,0,0,1,0,1.51,5.52,5.52,0,0,1-1.1,2.47,9.25,9.25,0,0,1-.72.81,8.8,8.8,0,0,1-.74.63c-.82.59-1.65,1.15-2.5,1.69l-1.23.75-1.35.81a52.11,52.11,0,0,0-5.19,3.41c-.85.64-1.68,1.3-2.5,2s-1.58,1.29-2.34,2a29.86,29.86,0,0,0-2.38,2.26,6.61,6.61,0,0,0-1,1.35,3.44,3.44,0,0,0-.33.93,2.23,2.23,0,0,0,.94,2.27,5,5,0,0,0,1,.48c.43.18.88.31,1.33.45,1,.3,2,.55,3,.78.57.13,1.13.26,1.7.37s1.07.19,1.6.28c1.11.18,2.21.32,3.32.45a30.43,30.43,0,0,0,3.17.12c1,0,2,0,3,0l3-.06c2.18,0,4.35-.06,6.52-.07l6.14,0h3.5c1,0,2-.06,3.06-.1,2.06-.09,4.11-.37,6.16-.62,1-.13,2-.25,3-.33s2.1-.15,3.15-.2,2,0,3-.16a26.74,26.74,0,0,0,3.35-.47,12.83,12.83,0,0,0,1.75-.45,6.36,6.36,0,0,0,1.9-1.11,5.47,5.47,0,0,0,1.24-1.62,10.52,10.52,0,0,0,.83-2.62c.1-.48.19-1,.28-1.44.42-2.13.84-4.26,1.07-6.42.11-1,.16-2,.21-3s.11-2,.21-3,.21-2.11.34-3.17.28-2,.41-3.06l.45-3.1c.14-1,.28-2,.44-3s.32-2.09.51-3.13.36-2.13.52-3.2c.14-.92.31-1.85.44-2.78.17-1.14.33-2.28.5-3.42s.28-2.26.35-3.41.12-2.07.15-3.11,0-2.29,0-3.44h0a47,47,0,0,0-1.89,6.37c-.48,2.19-.75,4.43-1.07,6.65-.14.92-.3,1.84-.44,2.76-.17,1.08-.34,2.15-.53,3.23s-.34,2.09-.51,3.14-.3,2-.44,3-.26,1.81-.39,2.71-.24,1.84-.36,2.76c-.27,1.92-.49,3.86-.64,5.8-.07.92-.08,1.86-.14,2.78s-.15,1.86-.27,2.78c-.2,1.28-.43,2.55-.68,3.81-.12.63-.25,1.25-.37,1.88a14.42,14.42,0,0,1-.61,2.41,6.35,6.35,0,0,1-.53.91,4.54,4.54,0,0,1-.63.61,5.93,5.93,0,0,1-.84.49,12.58,12.58,0,0,1-1.6.43c-.39.1-.79.17-1.18.24-.92.12-1.85.24-2.78.28l-3.25.14c-2.07.12-4.12.35-6.17.61-1,.13-2,.25-3,.34s-2.22.15-3.33.2c-1.5.07-3,.06-4.51.06h-1.46c-4.27,0-8.54,0-12.81.13l-4.87.08c-.69,0-1.38,0-2.06,0-.37,0-.74,0-1.11-.07l-1.25-.14c-1.45-.2-2.9-.4-4.32-.73-.76-.17-1.52-.34-2.28-.53a24.39,24.39,0,0,1-2.87-.89,3,3,0,0,1-.4-.21l0-.05,0,0,0-.12a1.71,1.71,0,0,1,.09-.3,5,5,0,0,1,.35-.58A27.47,27.47,0,0,1,1550,852c1.07-.92,2.17-1.81,3.28-2.69a54.5,54.5,0,0,1,5-3.37c1.78-1,3.56-2.1,5.24-3.29a16.7,16.7,0,0,0,1.42-1.09,8.2,8.2,0,0,0,.86-.91,9.48,9.48,0,0,0,1-1.39,6.94,6.94,0,0,0,.71-2,7.2,7.2,0,0,0,0-2.45c-.09-.64-.25-1.26-.4-1.89-.06-.23-.13-.43-.21-.65s-.18-.49-.26-.74c-.15-.5-.32-1-.5-1.5s-.41-1-.62-1.56-.42-1-.65-1.53c-.43-.95-.85-1.89-1.26-2.85s-.76-1.91-1.11-2.87-.65-2-.92-3-.46-1.86-.66-2.8-.45-2.06-.65-3.1-.35-1.79-.51-2.69-.22-1.87-.28-2.8c-.07-1.19-.13-2.39-.19-3.58,0-.43,0-.86,0-1.29s0-.7,0-1.06c0-.14,0-.29,0-.44,0-.61.07-1.21.11-1.81,0-.17,0-.35,0-.52l.12-1.16c.1-.95.23-1.89.35-2.83.29-2,.55-4,.89-5.93s.71-4.15,1.1-6.23c.1-.58.21-1.16.32-1.74s.25-1.15.37-1.72c.22-1,.47-2,.72-3.05s.49-1.88.73-2.83.52-2.17.74-3.26c.39-2,.69-4,.93-6h0Z"/><path d="M1274.68,523.23c.55.4,1.1.8,1.67,1.17s1.07.69,1.61,1,.87.53,1.31.78c.18.11.39.2.58.3,1.76.86,3.56,1.6,5.39,2.29l3.27,1.23c.75.29,1.53.53,2.29.79l1.81.62.67.23,3.23.93,1.11.32c.26.07.54.12.81.18l3.65.82c.62.14,1.25.25,1.87.36l3.67.69c3.48.64,7,1.2,10.47,1.81,1.23.22,2.47.44,3.7.68l2,.41a13.61,13.61,0,0,1,1.9.5l.31.19a2.23,2.23,0,0,1,.26.27,6.53,6.53,0,0,1,.48.86c.14.3.28.6.41.91A14.86,14.86,0,0,1,1328,544a17.45,17.45,0,0,1,.07,4.21,13.7,13.7,0,0,1-.88,3.14,19.66,19.66,0,0,1-2.49,4.12,1.09,1.09,0,0,0,.13-.17,26,26,0,0,1-2.17,2.52l-1.27,1.27c-.58.58-1.19,1.13-1.78,1.69l-2.16,2c-.33.32-.65.66-1,1l-.84.86c-1,1-1.94,2.14-2.85,3.26l-.69.86c-.22.27-.41.56-.64.81s-.53.56-.81.84a12.11,12.11,0,0,1-.93.82,18.48,18.48,0,0,1-1.7,1,20.24,20.24,0,0,1-2.12,1.1,22,22,0,0,1-3.2,1c-1.07.25-2.17.44-3.26.59-2.87.37-5.76.53-8.65.72-1.75.11-3.5.24-5.25.36l-5.76.4c-.78,0-1.57.13-2.36.21l-1.88.22c-.34.05-.68.06-1,.08s-.79.07-1.18.12a7.85,7.85,0,0,0-.82.15c-.74.14-1.47.3-2.2.49v0l1.66.17c.44.05.9.12,1.35.13s1.16,0,1.74,0c.33,0,.65,0,1,0,.87,0,1.73,0,2.6,0,1.22,0,2.44-.12,3.66-.2,3.73-.21,7.45-.44,11.18-.66,1-.06,2.1-.12,3.14-.21a40,40,0,0,0,8.06-1.32,16.82,16.82,0,0,0,1.8-.65,13.8,13.8,0,0,0,1.82-.87l1.35-.77a10.43,10.43,0,0,0,1.2-.8c.29-.23.56-.47.84-.71a10.54,10.54,0,0,0,.93-1c.27-.3.51-.64.75-1,.54-.69,1.08-1.37,1.64-2s1.19-1.39,1.83-2.06l.87-.89c.32-.33.64-.67,1-1,.71-.69,1.42-1.36,2.13-2s1.24-1.17,1.85-1.77l1.21-1.21a31,31,0,0,0,2.36-2.76,17.09,17.09,0,0,0,3.37-7,15.75,15.75,0,0,0,.22-4.11c0-.69-.14-1.37-.24-2a13.51,13.51,0,0,0-.41-2,17.08,17.08,0,0,0-1-2.39,6.28,6.28,0,0,0-.31-.57,3.41,3.41,0,0,0-.49-.59,3.23,3.23,0,0,0-1.61-.77c-.86-.2-1.74-.33-2.61-.48l-5.83-1c-3.48-.6-7-1.18-10.43-1.84l-3.63-.69c-.66-.12-1.32-.29-2-.44l-3.21-.74c-.24-.05-.47-.13-.7-.2l-1.86-.55c-.72-.21-1.45-.41-2.15-.65l-3.47-1.23c-1.74-.61-3.45-1.31-5.17-2-.59-.23-1.16-.48-1.74-.71-1-.39-2-.74-3-1.07l-.44-.16c-.5-.2-1-.38-1.52-.56-1.11-.4-2.24-.77-3.36-1.14h0Z"/></svg>