<svg id="Layer_1" data-name="Layer 1" xmlns="http://www.w3.org/2000/svg" xmlns:xlink="http://www.w3.org/1999/xlink" viewBox="0 0 1920 1080"><defs><style>.cls-1{fill:#effaff;}.cls-2{fill:url(#linear-gradient);}.cls-3{fill:#e6e6e6;}.cls-4{fill:url(#linear-gradient-2);}.cls-5{fill:url(#linear-gradient-3);}.cls-6{fill:url(#linear-gradient-4);}.cls-7{fill:url(#linear-gradient-5);}.cls-8{fill:url(#linear-gradient-6);}.cls-9{fill:url(#linear-gradient-7);}.cls-10{fill:url(#linear-gradient-8);}.cls-11{fill:url(#linear-gradient-9);}.cls-12{fill:url(#linear-gradient-10);}.cls-13{fill:#ffe2ce;}.cls-14{fill:#d5a93d;}.cls-15{fill:#ffe794;}.cls-16{fill:#fff;}</style><linearGradient id="linear-gradient" x1="973.26" y1="512.91" x2="973.26" y2="1091.91" gradientUnits="userSpaceOnUse"><stop offset="0" stop-color="#bdccd4" stop-opacity="0.6"/><stop offset="1" stop-color="#4d4d4d" stop-opacity="0"/></linearGradient><linearGradient id="linear-gradient-2" x1="1187.97" y1="458.86" x2="1313.26" y2="458.86" xlink:href="#linear-gradient"/><linearGradient id="linear-gradient-3" x1="974.26" y1="441.9" x2="1108.26" y2="441.9" xlink:href="#linear-gradient"/><linearGradient id="linear-gradient-4" x1="1061.26" y1="496.9" x2="1195.26" y2="496.9" xlink:href="#linear-gradient"/><linearGradient id="linear-gradient-5" x1="1843.74" y1="475.7" x2="2007" y2="475.7" xlink:href="#linear-gradient"/><linearGradient id="linear-gradient-6" x1="1565.26" y1="453.6" x2="1739.87" y2="453.6" xlink:href="#linear-gradient"/><linearGradient id="linear-gradient-7" x1="1678.63" y1="525.27" x2="1853.24" y2="525.27" xlink:href="#linear-gradient"/><linearGradient id="linear-gradient-8" x1="228.61" y1="553.33" x2="415.26" y2="553.33" xlink:href="#linear-gradient"/><linearGradient id="linear-gradient-9" x1="723.24" y1="521.01" x2="994" y2="521.01" xlink:href="#linear-gradient"/><linearGradient id="linear-gradient-10" x1="-132.01" y1="545.25" x2="192.13" y2="545.25" xlink:href="#linear-gradient"/></defs><polygon class="cls-1" points="-9.73 1106.91 -9.74 -20.08 1956.25 -20.09 1956.26 1106.9 1956.25 1106.91 -9.73 1106.91"/><rect class="cls-2" x="-9.74" y="512.91" width="1966" height="579"/><polygon class="cls-3" points="1250.62 404.26 1243.58 544.58 1257.65 544.58 1250.62 404.26"/><polygon class="cls-4" points="1250.62 404.61 1187.97 513.11 1313.26 513.11 1250.62 404.61"/><polygon class="cls-3" points="1041.26 383.51 1033.73 533.58 1048.79 533.58 1041.26 383.51"/><polygon class="cls-5" points="1041.26 383.88 974.26 499.93 1108.26 499.93 1041.26 383.88"/><polygon class="cls-3" points="1128.26 438.51 1120.73 588.58 1135.79 588.58 1128.26 438.51"/><polygon class="cls-6" points="1128.26 438.88 1061.26 554.93 1195.26 554.93 1128.26 438.88"/><polygon class="cls-3" points="1925.37 404.55 1916.2 587.39 1934.54 587.39 1925.37 404.55"/><polygon class="cls-7" points="1925.37 405 1843.74 546.39 2007 546.39 1925.37 405"/><polygon class="cls-3" points="1652.57 377.51 1642.76 573.05 1662.38 573.05 1652.57 377.51"/><polygon class="cls-8" points="1652.57 377.99 1565.26 529.21 1739.87 529.21 1652.57 377.99"/><polygon class="cls-3" points="1765.93 449.18 1756.13 644.72 1775.74 644.72 1765.93 449.18"/><polygon class="cls-9" points="1765.93 449.66 1678.63 600.88 1853.24 600.88 1765.93 449.66"/><polygon class="cls-3" points="321.94 472 311.45 681.02 332.42 681.02 321.94 472"/><polygon class="cls-10" points="321.94 472.51 228.61 634.16 415.26 634.16 321.94 472.51"/><polygon class="cls-3" points="858.62 403.02 843.41 706.25 873.83 706.25 858.62 403.02"/><polygon class="cls-11" points="858.62 403.77 723.24 638.26 994 638.26 858.62 403.77"/><polygon class="cls-3" points="30.06 404 11.85 767 48.27 767 30.06 404"/><polygon class="cls-12" points="30.06 404.89 -132.01 685.61 192.13 685.61 30.06 404.89"/><path d="M195.31,216a3.11,3.11,0,0,1-1-2.31V195.36l-17.21-24.12a3.67,3.67,0,0,1-.57-1.94,3.33,3.33,0,0,1,.9-2.34,2.94,2.94,0,0,1,2.26-1,3.33,3.33,0,0,1,2.89,1.65l15,21.89,15-21.89a3.3,3.3,0,0,1,2.88-1.65,3.05,3.05,0,0,1,2.3,1,3,3,0,0,1,.87,2.34,3.59,3.59,0,0,1-.58,1.94l-17.28,24.12v18.36a3.18,3.18,0,0,1-3.24,3.24A3.27,3.27,0,0,1,195.31,216Z"/><path d="M223.61,212.32q-4.94-5-4.93-14.08a23.45,23.45,0,0,1,1.87-9.43,16,16,0,0,1,5.76-7,16.5,16.5,0,0,1,9.57-2.67,16.71,16.71,0,0,1,9.22,2.49,16,16,0,0,1,5.9,6.62,20.28,20.28,0,0,1,2,9,3.15,3.15,0,0,1-3.31,3.24H225.3A11.85,11.85,0,0,0,229,208.4q3.18,2.81,8.86,2.8a21.81,21.81,0,0,0,5.29-.57,22.19,22.19,0,0,0,4.43-1.66,3,3,0,0,1,3.31.51,2.59,2.59,0,0,1,.87,2,3.12,3.12,0,0,1-1.88,2.67,26.46,26.46,0,0,1-5.54,2.37,25.88,25.88,0,0,1-7.06.79Q228.55,217.32,223.61,212.32Zm22.93-17.1a11.47,11.47,0,0,0-1.83-5.9,10,10,0,0,0-4-3.5,11,11,0,0,0-9.65,0,9.74,9.74,0,0,0-4,3.5,11.75,11.75,0,0,0-1.8,5.9Z"/><path d="M260.44,214.08a2.73,2.73,0,0,1-1.23-2.37,2.94,2.94,0,0,1,.79-2,2.64,2.64,0,0,1,2-.86,3.1,3.1,0,0,1,1.3.29,28.8,28.8,0,0,0,4.6,1.58,21.68,21.68,0,0,0,5.19.58q8,0,8-5.12a2.73,2.73,0,0,0-1.84-2.52,37.91,37.91,0,0,0-6-1.94,54.17,54.17,0,0,1-7-2.09,12.35,12.35,0,0,1-4.75-3.27,8.35,8.35,0,0,1-2-5.8,10.36,10.36,0,0,1,3.64-8.21q3.63-3.17,10.4-3.17A30,30,0,0,1,284,181a2.79,2.79,0,0,1,1.55,1.08,2.9,2.9,0,0,1,.54,1.66,2.85,2.85,0,0,1-.83,2,2.75,2.75,0,0,1-2.05.86,4.44,4.44,0,0,1-.94-.14,27.4,27.4,0,0,0-8.21-1.3,11.28,11.28,0,0,0-6.08,1.4,4.21,4.21,0,0,0-2.2,3.64,3.34,3.34,0,0,0,2,3.17,28.62,28.62,0,0,0,6.26,1.94,59.09,59.09,0,0,1,6.92,2.13,11.36,11.36,0,0,1,4.57,3.27,8.9,8.9,0,0,1,1.91,6,9.53,9.53,0,0,1-3.64,7.63q-3.63,3-10.26,3A26.75,26.75,0,0,1,260.44,214.08Z"/><path d="M297.7,215.63a4.17,4.17,0,0,1-1.26-3.06,4.3,4.3,0,0,1,4.24-4.25,4.17,4.17,0,0,1,3.06,1.26,4.09,4.09,0,0,1,1.26,3,4.3,4.3,0,0,1-4.32,4.32A4.07,4.07,0,0,1,297.7,215.63Zm1.26-13.5a2.1,2.1,0,0,1-.72-1.51l-1.3-23.76v-7.13a3.69,3.69,0,0,1,3.74-3.74,3.49,3.49,0,0,1,2.63,1.08,3.67,3.67,0,0,1,1.05,2.66v7.13l-1.3,23.76a2.26,2.26,0,0,1-.68,1.51,2.37,2.37,0,0,1-1.7.58A2.45,2.45,0,0,1,299,202.13Z"/><path d="M194.2,388.83a3.12,3.12,0,0,1-.94-2.31V345.27H178.57a3,3,0,0,1-3-3,3.07,3.07,0,0,1,.86-2.19,2.88,2.88,0,0,1,2.16-.9h35.86a3.09,3.09,0,0,1,3.1,3.09,2.86,2.86,0,0,1-.91,2.16,3,3,0,0,1-2.19.87H199.81v41.25a3.07,3.07,0,0,1-1,2.31,3.27,3.27,0,0,1-2.34.93A3.13,3.13,0,0,1,194.2,388.83Z"/><path d="M224.65,388.83a3.15,3.15,0,0,1-.93-2.31V339.8a3.24,3.24,0,0,1,.93-2.34,3.08,3.08,0,0,1,2.31-1,3.2,3.2,0,0,1,2.34,1,3.16,3.16,0,0,1,1,2.34v18.79a23.82,23.82,0,0,1,5.9-4.83,14.94,14.94,0,0,1,7.49-1.8,12.46,12.46,0,0,1,6.88,1.88A12.12,12.12,0,0,1,255,359a16.33,16.33,0,0,1,1.55,7.13v20.44a3.11,3.11,0,0,1-1,2.31,3.27,3.27,0,0,1-2.34.93,3.18,3.18,0,0,1-3.24-3.24V366.8q0-8.79-7.92-8.79a11.55,11.55,0,0,0-6.45,1.87,23.52,23.52,0,0,0-5.36,5v21.6a3.07,3.07,0,0,1-1,2.31,3.27,3.27,0,0,1-2.34.93A3.15,3.15,0,0,1,224.65,388.83Z"/><path d="M268.07,344.12a3.55,3.55,0,0,1-1.08-2.6v-.28a3.69,3.69,0,0,1,3.67-3.68h.43a3.69,3.69,0,0,1,3.67,3.68v.28a3.69,3.69,0,0,1-3.67,3.68h-.43A3.53,3.53,0,0,1,268.07,344.12Zm.43,44.71a3.16,3.16,0,0,1-.94-2.31V355.64a3.25,3.25,0,0,1,.94-2.34,3.06,3.06,0,0,1,2.3-1,3.22,3.22,0,0,1,3.32,3.32v30.88a3.08,3.08,0,0,1-1,2.31,3.24,3.24,0,0,1-2.34.93A3.13,3.13,0,0,1,268.5,388.83Z"/><path d="M284.27,386.88a2.73,2.73,0,0,1-1.23-2.37,2.9,2.9,0,0,1,.8-2,2.62,2.62,0,0,1,2-.86,3.06,3.06,0,0,1,1.3.29,28.57,28.57,0,0,0,4.61,1.58,21.54,21.54,0,0,0,5.18.58q8,0,8-5.12a2.73,2.73,0,0,0-1.83-2.52,38.48,38.48,0,0,0-6-1.94,54.17,54.17,0,0,1-7-2.09,12.43,12.43,0,0,1-4.75-3.27,8.35,8.35,0,0,1-2-5.8,10.36,10.36,0,0,1,3.64-8.21q3.63-3.17,10.4-3.17a30,30,0,0,1,10.44,1.8,2.79,2.79,0,0,1,1.55,1.08,2.9,2.9,0,0,1,.54,1.66,2.85,2.85,0,0,1-.83,2,2.73,2.73,0,0,1-2.05.86,4.44,4.44,0,0,1-.94-.14,27.38,27.38,0,0,0-8.2-1.3,11.32,11.32,0,0,0-6.09,1.4A4.2,4.2,0,0,0,289.6,363a3.33,3.33,0,0,0,2,3.17,28.75,28.75,0,0,0,6.27,1.94,59.46,59.46,0,0,1,6.91,2.13,11.36,11.36,0,0,1,4.57,3.27,8.9,8.9,0,0,1,1.91,6,9.5,9.5,0,0,1-3.64,7.63q-3.63,3-10.26,3A26.75,26.75,0,0,1,284.27,386.88Z"/><path d="M337.55,386.88a2.73,2.73,0,0,1-1.23-2.37,2.9,2.9,0,0,1,.8-2,2.6,2.6,0,0,1,2-.86,3.06,3.06,0,0,1,1.3.29A28.57,28.57,0,0,0,345,383.5a21.54,21.54,0,0,0,5.18.58q8,0,8-5.12a2.73,2.73,0,0,0-1.83-2.52,38.48,38.48,0,0,0-6-1.94,54.17,54.17,0,0,1-7-2.09,12.43,12.43,0,0,1-4.75-3.27,8.35,8.35,0,0,1-2-5.8,10.36,10.36,0,0,1,3.64-8.21q3.63-3.17,10.4-3.17a30,30,0,0,1,10.44,1.8,2.79,2.79,0,0,1,1.55,1.08,2.9,2.9,0,0,1,.54,1.66,2.85,2.85,0,0,1-.83,2,2.73,2.73,0,0,1-2.05.86,4.44,4.44,0,0,1-.94-.14,27.38,27.38,0,0,0-8.2-1.3,11.32,11.32,0,0,0-6.09,1.4,4.2,4.2,0,0,0-2.19,3.64,3.33,3.33,0,0,0,2,3.17,28.56,28.56,0,0,0,6.27,1.94,59.46,59.46,0,0,1,6.91,2.13,11.36,11.36,0,0,1,4.57,3.27,8.9,8.9,0,0,1,1.91,6,9.53,9.53,0,0,1-3.64,7.63q-3.63,3-10.26,3A26.75,26.75,0,0,1,337.55,386.88Z"/><path d="M375.2,380.62V358.3h-5.11a1.3,1.3,0,0,1-1-.4,1.32,1.32,0,0,1-.4-1,1.5,1.5,0,0,1,.65-1.22l9.79-9.58a1.85,1.85,0,0,1,1.23-.65,1.26,1.26,0,0,1,1,.44,1.44,1.44,0,0,1,.4,1v5.76h8.13a2.74,2.74,0,0,1,2,.8,2.7,2.7,0,0,1,.79,2,2.75,2.75,0,0,1-.79,2,2.68,2.68,0,0,1-2,.83h-8.13V380c0,1.88.44,3.06,1.33,3.57a6.72,6.72,0,0,0,3.35.75,10,10,0,0,0,2.88-.43l.61-.14a3.77,3.77,0,0,1,.83-.07,2.55,2.55,0,0,1,1.8.75,2.49,2.49,0,0,1,.79,1.84,2.74,2.74,0,0,1-1.66,2.52,14.13,14.13,0,0,1-6,1.29Q375.21,390.12,375.2,380.62Z"/><path d="M406.52,387.75a16.2,16.2,0,0,1-6.44-6.73,23.05,23.05,0,0,1,0-19.95,16.15,16.15,0,0,1,6.44-6.73,20.9,20.9,0,0,1,19.37,0,16.42,16.42,0,0,1,6.48,6.73,22.69,22.69,0,0,1,0,19.95,16.48,16.48,0,0,1-6.48,6.73,21,21,0,0,1-19.37,0Zm15.38-5a11,11,0,0,0,4.46-4.32,14.37,14.37,0,0,0,1.76-7.49,14.19,14.19,0,0,0-1.76-7.41,10.78,10.78,0,0,0-4.46-4.29,12.84,12.84,0,0,0-11.38,0,10.54,10.54,0,0,0-4.43,4.29,14.48,14.48,0,0,0-1.73,7.41,14.67,14.67,0,0,0,1.73,7.49,10.74,10.74,0,0,0,4.43,4.32,12.5,12.5,0,0,0,11.38,0Z"/><path d="M444.75,388.83a3.15,3.15,0,0,1-.93-2.31V355.64a3.24,3.24,0,0,1,.93-2.34,3.1,3.1,0,0,1,2.31-1,3.2,3.2,0,0,1,2.34,1,3.16,3.16,0,0,1,1,2.34v3.09q5-6.76,11.3-6.77H462a3,3,0,0,1,2.27.94,3.18,3.18,0,0,1,.9,2.3,2.92,2.92,0,0,1-.93,2.24,3.41,3.41,0,0,1-2.38.86h-.36a12.28,12.28,0,0,0-6.34,1.69,14.64,14.64,0,0,0-4.82,4.65v21.88a3.07,3.07,0,0,1-1,2.31,3.27,3.27,0,0,1-2.34.93A3.17,3.17,0,0,1,444.75,388.83Z"/><path d="M477.41,405.39a3.08,3.08,0,0,1-.9-2.23,3.39,3.39,0,0,1,.21-1.16l4.68-12-13.53-33a3.51,3.51,0,0,1-.29-1.36,3.24,3.24,0,0,1,.93-2.34,3.1,3.1,0,0,1,2.31-1,3.35,3.35,0,0,1,3,2l11.09,27.5,11.3-27.36a3.16,3.16,0,0,1,3-2.16,3.06,3.06,0,0,1,2.3,1,3.21,3.21,0,0,1,.94,2.34,3.3,3.3,0,0,1-.22,1.22l-19.65,47.23a3.24,3.24,0,0,1-3,2.23A2.93,2.93,0,0,1,477.41,405.39Z"/><path d="M529.28,344.12a3.55,3.55,0,0,1-1.08-2.6v-.28a3.69,3.69,0,0,1,3.67-3.68h.43a3.69,3.69,0,0,1,3.68,3.68v.28a3.69,3.69,0,0,1-3.68,3.68h-.43A3.54,3.54,0,0,1,529.28,344.12Zm.43,44.71a3.15,3.15,0,0,1-.93-2.31V355.64a3.24,3.24,0,0,1,.93-2.34,3.08,3.08,0,0,1,2.31-1,3.21,3.21,0,0,1,3.31,3.32v30.88a3.11,3.11,0,0,1-1,2.31,3.27,3.27,0,0,1-2.34.93A3.15,3.15,0,0,1,529.71,388.83Z"/><path d="M545.48,386.88a2.72,2.72,0,0,1-1.22-2.37,2.89,2.89,0,0,1,.79-2,2.63,2.63,0,0,1,2-.86,3,3,0,0,1,1.3.29A28.9,28.9,0,0,0,553,383.5a21.54,21.54,0,0,0,5.18.58q8,0,8-5.12a2.73,2.73,0,0,0-1.83-2.52,38.64,38.64,0,0,0-6-1.94,53.22,53.22,0,0,1-7-2.09,12.39,12.39,0,0,1-4.76-3.27,8.35,8.35,0,0,1-2-5.8,10.4,10.4,0,0,1,3.64-8.21q3.63-3.17,10.4-3.17a30,30,0,0,1,10.44,1.8,2.75,2.75,0,0,1,1.55,1.08,2.9,2.9,0,0,1,.54,1.66,2.8,2.8,0,0,1-.83,2,2.73,2.73,0,0,1-2,.86,4.28,4.28,0,0,1-.93-.14,27.45,27.45,0,0,0-8.21-1.3,11.34,11.34,0,0,0-6.09,1.4,4.2,4.2,0,0,0-2.19,3.64,3.33,3.33,0,0,0,2,3.17,28.93,28.93,0,0,0,6.27,1.94,59.46,59.46,0,0,1,6.91,2.13,11.29,11.29,0,0,1,4.57,3.27,8.9,8.9,0,0,1,1.91,6,9.5,9.5,0,0,1-3.64,7.63q-3.63,3-10.26,3A26.78,26.78,0,0,1,545.48,386.88Z"/><path d="M602.14,380.62V358.3H597a1.3,1.3,0,0,1-1-.4,1.28,1.28,0,0,1-.4-1,1.5,1.5,0,0,1,.65-1.22l9.79-9.58a1.85,1.85,0,0,1,1.23-.65,1.26,1.26,0,0,1,1,.44,1.44,1.44,0,0,1,.4,1v5.76h8.13a2.74,2.74,0,0,1,2,.8,2.7,2.7,0,0,1,.79,2,2.75,2.75,0,0,1-.79,2,2.68,2.68,0,0,1-2,.83H608.7V380c0,1.88.44,3.06,1.33,3.57a6.75,6.75,0,0,0,3.35.75,10,10,0,0,0,2.88-.43l.61-.14a3.77,3.77,0,0,1,.83-.07,2.55,2.55,0,0,1,1.8.75,2.49,2.49,0,0,1,.79,1.84,2.74,2.74,0,0,1-1.66,2.52,14.12,14.12,0,0,1-6,1.29Q602.15,390.12,602.14,380.62Z"/><path d="M628.42,388.83a3.15,3.15,0,0,1-.93-2.31V355.64a3.24,3.24,0,0,1,.93-2.34,3.08,3.08,0,0,1,2.31-1,3.33,3.33,0,0,1,3.31,3.32v3.09q5-6.76,11.3-6.77h.36a3,3,0,0,1,2.27.94,3.18,3.18,0,0,1,.9,2.3,2.92,2.92,0,0,1-.93,2.24,3.41,3.41,0,0,1-2.38.86h-.36a12.26,12.26,0,0,0-6.34,1.69,14.54,14.54,0,0,0-4.82,4.65v21.88a3.11,3.11,0,0,1-1,2.31,3.27,3.27,0,0,1-2.34.93A3.15,3.15,0,0,1,628.42,388.83Z"/><path d="M660.71,388.25a12.18,12.18,0,0,1-4.46-5.11A16.36,16.36,0,0,1,654.7,376V355.56a3.09,3.09,0,0,1,1-2.3,3.28,3.28,0,0,1,2.34-.94,3.19,3.19,0,0,1,3.24,3.24v19.73q0,8.79,7.92,8.79a11.48,11.48,0,0,0,6.45-1.88,23.09,23.09,0,0,0,5.36-5v-21.6a3.09,3.09,0,0,1,1-2.3,3.28,3.28,0,0,1,2.34-.94,3.19,3.19,0,0,1,3.24,3.24v30.89a3.27,3.27,0,0,1-.93,2.34,3.07,3.07,0,0,1-2.31,1,3.19,3.19,0,0,1-2.34-1,3.23,3.23,0,0,1-1-2.34V383.5a23.77,23.77,0,0,1-5.9,4.82,14.94,14.94,0,0,1-7.49,1.8A12.46,12.46,0,0,1,660.71,388.25Z"/><path d="M701.61,385.12q-4.93-5-4.93-14.08a23.45,23.45,0,0,1,1.87-9.43,16,16,0,0,1,5.76-7,16.51,16.51,0,0,1,9.58-2.67,16.7,16.7,0,0,1,9.21,2.49,16.09,16.09,0,0,1,5.91,6.62,20.41,20.41,0,0,1,2,9,3.15,3.15,0,0,1-3.31,3.24H703.3a11.86,11.86,0,0,0,3.75,7.85q3.16,2.81,8.85,2.8a21.81,21.81,0,0,0,5.29-.57,22.19,22.19,0,0,0,4.43-1.66,2.92,2.92,0,0,1,1.3-.29,2.86,2.86,0,0,1,2,.8,2.59,2.59,0,0,1,.87,2,3.13,3.13,0,0,1-1.87,2.67,26.53,26.53,0,0,1-5.55,2.37,25.85,25.85,0,0,1-7,.79Q706.54,390.12,701.61,385.12ZM724.54,368a11.47,11.47,0,0,0-1.83-5.9,10,10,0,0,0-4-3.5,11,11,0,0,0-9.65,0,9.74,9.74,0,0,0-4,3.5,11.75,11.75,0,0,0-1.8,5.9Z"/><path d="M741.14,388.43a4.17,4.17,0,0,1-1.26-3.06,4.3,4.3,0,0,1,4.24-4.25,4.19,4.19,0,0,1,3.07,1.26,4.09,4.09,0,0,1,1.26,3,4.3,4.3,0,0,1-4.33,4.32A4.07,4.07,0,0,1,741.14,388.43Zm1.26-13.5a2.13,2.13,0,0,1-.72-1.51l-1.3-23.76v-7.13a3.69,3.69,0,0,1,3.74-3.74,3.49,3.49,0,0,1,2.63,1.08,3.67,3.67,0,0,1,1,2.66v7.13l-1.3,23.76a2.26,2.26,0,0,1-.68,1.51,2.35,2.35,0,0,1-1.7.58A2.47,2.47,0,0,1,742.4,374.93Z"/><path class="cls-13" d="M1181.63,329.15c0-2.37,0-4.75,0-7.12a14.28,14.28,0,0,1-3.13-.41c.39,1,.78,2,1.18,3l-1.26-3h0C1179.45,324.12,1180.5,326.65,1181.63,329.15Zm-1.26,59.57c-5.16-1.53-9.35-4.63-13.49-7.93-8.27-6.57-13.49-16.15-18.38-25.33a170.85,170.85,0,0,1-7.36-16.41,134.92,134.92,0,0,1-5.25-16.05,131.86,131.86,0,0,1-3.33-18.29,90.63,90.63,0,0,1-.49-17.27,75.71,75.71,0,0,1,3.49-18.8,59,59,0,0,1,4.24-9.64,31.38,31.38,0,0,1,2.08-3.29c.85-2.34,1.87-4.63,2.94-6.86a30.78,30.78,0,0,1,3.91-5.55,15.4,15.4,0,0,1,2.52-2.52,35.53,35.53,0,0,1,5.48-3.85,46.73,46.73,0,0,1,6.37-2.65,30.94,30.94,0,0,1,6.9-1.14,22.87,22.87,0,0,1,6.74.59c5.23,1.18,9.44,4,13.53,7.27a48.21,48.21,0,0,1,12.51,15.93,114,114,0,0,1,4.63,11.13c1.3,3.48,2.41,7,3.36,10.63a178,178,0,0,1,3.9,22.72,202.69,202.69,0,0,1,1.56,22.7,195.34,195.34,0,0,1-.8,20.95c-.29,3.25-.73,6.49-1,9.74a60.09,60.09,0,0,1-2.36,13.46,37.87,37.87,0,0,1-5.1,10,36,36,0,0,1-4.5,5.38,22.51,22.51,0,0,1-8.64,5.11,18.11,18.11,0,0,1-6.21,1A25.48,25.48,0,0,1,1180.37,388.72Z"/><path class="cls-13" d="M1152.67,426.88a33.86,33.86,0,0,1-5.93-1.62q-1.85-.43-3.69-1.05a48.22,48.22,0,0,1-10.89-5.2,53.08,53.08,0,0,1-9.32-7.75,67.87,67.87,0,0,1-4.64-5.89,19,19,0,0,1-1.92-3.29,80.45,80.45,0,0,1-7.78-12.51,74.57,74.57,0,0,1-7.58-23.19,97.13,97.13,0,0,1-1.19-13.5,73.39,73.39,0,0,1,1.52-13.12c-.39-1.54-.75-3.09-1.09-4.64-2.1-9.48-3.8-19.1-6.53-28.42-1.45-4.93-3.11-9.73-5-14.52-1.24-3.14-2.54-6.2-3.56-9.42-1.93-6.08-2.49-12.58-3.12-18.9-2-20.16-1.38-40.78,3.64-60.48a104.87,104.87,0,0,1,6.82-18.27,67.09,67.09,0,0,1,7.5-11.61,73.57,73.57,0,0,1,7.62-9.08,62.36,62.36,0,0,1,7.79-6c1.91-1.33,3.86-2.6,5.79-3.9,2.09-1.41,4.12-2.91,6.19-4.34,3.58-2.5,7.84-4,11.85-5.62,1.11-.45,2.28-.83,3.41-1.2,2.41-.77,4.81-1.51,7.23-2.23a62.34,62.34,0,0,1,10.88-1.86c2.75-.3,5.49.49,8.2.88q3.19,1.14,6.27,2.57a12.51,12.51,0,0,1,2.65,1.65l.39.27c.81-.06,1.63-.1,2.49-.09a53.59,53.59,0,0,1,8.16,1.05,23.62,23.62,0,0,1,4.65,1.44,58.43,58.43,0,0,1,8.15,3.76c6.9,4,12.1,10,16.44,16.51,4.19,6.28,6.84,13.65,9.11,20.83a94.83,94.83,0,0,1,3.93,22.1,41.25,41.25,0,0,1,0,6c.46,1.38.9,2.76,1.35,4.13,2.2,6.7,3.23,13.77,4.26,20.73a451.94,451.94,0,0,1,4.37,46,190,190,0,0,1-3.17,45.1,57.5,57.5,0,0,1-4.18,12.29,36.83,36.83,0,0,1-4.26,7.31l-.06.08q-.81,5.24-1.81,10.43c-.6,3.21-1.24,6.43-1.95,9.64a106.82,106.82,0,0,1-3.11,20.83,60.09,60.09,0,0,1-4,10.94A37.94,37.94,0,0,1,1211,414a28.65,28.65,0,0,1-23.21,8.07l-1-.1a57.58,57.58,0,0,1-7.77,3.55,47,47,0,0,1-13.7,2.6c-.55,0-1.11.06-1.67.06A67.54,67.54,0,0,1,1152.67,426.88Z"/><path class="cls-14" d="M930.27,1086.36c-7.22-4.55-9.88-13.24-12.9-20.78a60.07,60.07,0,0,1-3-10,158.06,158.06,0,0,1-3.83-29.44c-.07-4.32-.1-8.53.15-12.84s.58-8.37,1.06-12.58c1.13-9.8,2.67-19.54,4.19-29.29,1-7.7,1.78-15.42,2.25-23.17.61-10,.74-20,1.38-30.08.6-9.49,1.31-19,2.06-28.47.82-10.39,1.82-20.77,1.66-31.2-.15-10.22-1.47-20.43-2.34-30.61-.83-9.64-.83-19.41-.89-29.08A550.13,550.13,0,0,1,922.68,740c1.21-11.9,2.38-23.95,5-35.65,2-9.09,4.82-18,7.71-26.89l3.69-8.74a36.58,36.58,0,0,1,63.17,0q1.83,4.37,3.68,8.74a36.65,36.65,0,0,1,0,19.44c-1.74,9-3.45,18-4.92,27.06-1.94,17.81-3.76,35.64-4.38,53.56-.37,10.6-.44,21.18-.47,31.79,0,10,.72,20,1.39,29.9a186.9,186.9,0,0,1,.1,29.74c-.91,9.9-2.39,19.76-3.59,29.63-1.55,12.83-2.8,25.79-5.39,38.45-1,4.72-2.69,9.33-4,13.95-1.45,5-2.71,10-4,15.05-4.58,17.1-12.32,33.09-19.52,49.21-1.56,4.2-3.15,8.39-4.48,12.68-1.84,5.91-3.56,11.82-5.23,17.79-1.33,4.76-2.54,9.56-3.84,14.34-.62,2.3-1.24,4.59-1.88,6.89,1.26-1.31,2.67-2.45,3.85-3.86.33-.48.67-1,1-1.45,1.39-2.06,4.74-.13,3.34,1.95-.45.68-.9,1.37-1.41,2-1.52,1.92-3.45,3.43-5.08,5.26-1.43,1.6-2.72,3.39-4,5.08l-.35.45c-.34,1.28-.75,2.52-1.1,3.79a7.1,7.1,0,0,1-1.21,3.67l.15-.36a8,8,0,0,1-2.71,2.84,7.12,7.12,0,0,1-3.86,1.07A7.41,7.41,0,0,1,930.27,1086.36Z"/><path class="cls-14" d="M959.53,1064.93c-1.26-.11-2.71-.2-3.45-1.39a1.94,1.94,0,0,1,.69-2.65,1.91,1.91,0,0,1,2,.07l.23,0,.51,0a2,2,0,0,1,1.37.57,1.95,1.95,0,0,1-1.25,3.31Z"/><path class="cls-14" d="M1007.08,1110.33q-19.2-2.26-38.3-5.18c-3.8-.44-7.6-.83-11.42-1.14-1.53-.13-3.06-.18-4.59-.26-1.34-.08-2.65-.06-4-.2a31.71,31.71,0,0,1-11.41-1.76,38.41,38.41,0,0,1-17-9.89c-5.11-4-9-11.46-10.72-17.62-2.1-7.61-1.7-14.78.16-22.37,2.39-9.77,8.47-16.78,14.45-24.46-.6.76-1.19,1.53-1.79,2.3l4-5.15A79.9,79.9,0,0,0,932,1016a69.9,69.9,0,0,0,1.74-6.84c.93-11.68.23-23.55-.37-35.22q-.82-16.17-1.66-32.34Q931,926,930.47,910.36c-.18-5.64-.44-11.27-.41-16.92A352.56,352.56,0,0,1,933,849c2-15.32,4.55-30.53,7.43-45.72q1.59-8.37,3.15-16.76c1.13-6,2.05-12,4.12-17.78q1.88-4.46,3.76-8.9a37.24,37.24,0,0,1,42.05-17.11,36.61,36.61,0,0,1,7.66,3.07c-.11-4.54-.22-9.08-.38-13.61a244.12,244.12,0,0,1,.46-30.24c1.12-12.86,3.15-25.73,5.3-38.47,1.76-10.45,3.6-20.89,5.2-31.36,1.22-11.67,2.19-23.4,4.41-34.94q2.71-14,6.26-27.93,1-3.85,2-7.69a92.35,92.35,0,0,1,7.2-18.36c2.16-4.22,4.86-8.2,7.41-12.2s5.13-7.95,7.59-12c5.49-9,10.86-18.14,20.36-23.69a40.55,40.55,0,0,1,40.36.14c6.74,3.95,10,8.24,14.36,14.57s4.57,13.07,5.57,20.47a57.56,57.56,0,0,1-.48,15c-.66,5.07-1.34,10.15-2,15.23-1.29,10.25-2.63,20.49-3.51,30.78-.41,4.83-.7,9.69-1.2,14.51-.86,8.34-2.07,16.61-3.42,24.89-1.56,9.48-3.83,18.87-5.53,28.34-1.84,18.6-2.07,37.34-2.5,56-.21,9.49-1.08,18.91-1.71,28.37q-1.07,15.92-1.9,31.85a184.8,184.8,0,0,0,.26,27.64c.49,5.1,1,10.19,1.39,15.3.23,3.19.49,6.37.58,9.57a144,144,0,0,1-2.59,29.15c-1.71,9.48-3.86,18.76-6.15,28.1-.07.3-.15.6-.22.9.26,1.34.53,2.68.82,4,1,4.9,2.68,9.76,4.09,14.56s2.59,9.57,3.77,14.39c1.11,4.55,2.28,9.05,3.56,13.55,1.22,4.35,3.11,8.49,4.36,12.83,2.81,9.8,4.21,19.88,5.68,30q2.12,14.5,4.66,28.95c1.64,9.26,4.18,18.35,6,27.57.94,4.69,1.79,9.4,3.15,14,1.48,5,3.27,9.8,5.12,14.68,2.59,6.86,6.29,13.62,3.51,21.25a17.16,17.16,0,0,1-20.31,12.15c-1.93,1.57-3.93,3-6,4.45-3.15,2.17-7.16,3.13-10.71,4.59a34.82,34.82,0,0,1-3.74,1.1c-1.28.35-2.62.57-3.92.86-7.63,1.67-15.6,2.28-23.4,2.85-9.86.72-19.74.72-29.59,1.56-5.16.44-10.26,1.39-15.42,1.83-2,.17-4.06.24-6.09.24A145,145,0,0,1,1007.08,1110.33Z"/><path class="cls-14" d="M934.38,914c-3.24-2.55-5.79-6.52-8.2-9.78-1.82-2.46-3.63-5-5.46-7.42l-4.4-5.1a75.19,75.19,0,0,0-5.54-5.32c-3.51-3.33-7.24-6.44-10.76-9.76-6.69-6.31-12.84-13.18-19.06-19.95-3.86-4.19-8.14-7.93-11.9-12.22a99.66,99.66,0,0,1-8.91-12.09c-2.87-4.52-5-10.36-6.91-15.17-1.67-4.17-3-8.45-4.25-12.75-2.7-9.08-6.13-17.93-8.64-27.07A264.79,264.79,0,0,1,833.07,740c-1.28-10.19-1.28-20.47-1.39-30.73-.12-9.44.3-18.81.75-28.24q.39-8.29.92-16.57c.14-2.23.52-4.47.8-6.68.66-5.38,1.32-10.76,2.18-16.11,1.58-9.92,2.91-19.95,5.08-29.75,1.23-5.5,2.62-10.82,4.22-16.22A189.26,189.26,0,0,1,854,573.92c3.88-8.94,7.91-17.81,13.43-25.89,5.68-8.32,11.44-16.58,17-25q1.33-2,2.65-4c.11-.57.22-1.15.34-1.72,1.87-9.4,5.92-18.26,9.67-27,3.6-8.41,8.22-16.16,13-23.9,9.47-15.27,19.82-30.74,34-42,6.48-5.16,13.07-10.28,20.37-14.27l7-3.86c2.19-1.18,4.46-2.22,6.68-3.33a127.06,127.06,0,0,1,14-5.83,24.1,24.1,0,0,1,4.43-.94c4.77-.71,8.47-1.56,13-1.1a78.29,78.29,0,0,1,11.5,1.76c3.57.92,6.91,2.7,10.24,4.29,2.47,1.18,8.79,6.67,8.61,6.46a61.07,61.07,0,0,1,6.64,8.73,34.47,34.47,0,0,1,4.2,11.5,26,26,0,0,1,2.92,2.53,27.46,27.46,0,0,1,8,18.64,37.22,37.22,0,0,1,14.44,13.75c4.75,7.66,5,17.43,3.09,26-.55,2.41-1.48,4.67-2.26,7-.88,2.62-1.78,5.22-2.78,7.79-2,5.15-4.12,10.24-6.2,15.34-4,9.89-8.22,19.71-12.49,29.5q-2,4.45-4.19,8.77c-3,7.81-5.78,15.7-8.7,23.53-1,2.67-1.8,5.42-2.68,8.14q-3.27,10.23-6.58,20.46c-2.48,7.73-4.91,15.39-7,23.23l-5.79,21.93a47.11,47.11,0,0,1,1.5,9.48c.16,1.64-.14,3.28,0,4.91.38,3.6.62,7.22.92,10.82s.29,7.26.43,10.87c.19,5.07.33,10.1.32,15.18,0,10-.18,19.93-1.06,29.86-.81,9.19-1.91,18.39-3.34,27.52.63,1.65,1.24,3.32,1.85,5h-.14a24.18,24.18,0,0,1,.14,13.32,25.28,25.28,0,0,1-8.35,12.77c-.24.89-.47,1.78-.7,2.67-.41,1.61-.84,3.2-1.36,4.77a34.36,34.36,0,0,1-6.77,12.08c-5.86,7.18-15.59,8.8-24,6a19,19,0,0,1-8.38-4.89c-1-1.29-2-2.57-3-3.85a19,19,0,0,1-2.6-9.6c-.95-8.91-1.77-17.76-2.32-26.71q-.32-5.37-.64-10.74c-1.32-2.58-2.64-5.15-3.87-7.76-.82-.39-1.63-.81-2.43-1.27l-6.1-4.73-.24-.24-1.14,3.69c-1.74,5.6-3.45,11.19-5.11,16.81Q942,777.67,939.83,785l-.51,1.66q-2.13,8.79-4.43,17.53a27.44,27.44,0,0,1-12.49,16.37c.8,2.14,1.57,4.29,2.21,6.49,1.62,5.51,2.8,11.12,4.11,16.72,1.4,6,3,11.84,5,17.67,1.6,4.66,3.57,9.21,5.5,13.76-.19-.44-.37-.87-.55-1.31l.56,1.34c.3.7.6,1.4.89,2.1l-.88-2.08c2.92,7,5.8,14.17,10.14,20.36l.71.78c4.14,1.66,6.9,6.54,6.9,10.79a11.71,11.71,0,0,1-3.42,8.25c-2.35,2.34-5.05,3.12-8.25,3.42a7.32,7.32,0,0,1-.81,0C940.6,918.92,937.27,916.32,934.38,914Z"/><path class="cls-14" d="M1327,1100.54a10.79,10.79,0,0,1-3.92-.71,43.33,43.33,0,0,1-5.9-2.64,37.46,37.46,0,0,1-5.39-4.1,99.8,99.8,0,0,1-7.32-9.33c-2.8-3.9-5.14-8.14-7.59-12.27q-4-6.77-7.94-13.54c-4.74-8.09-9.15-16.36-13.63-24.59-5-9.29-10.1-18.56-15-27.95a196.35,196.35,0,0,1-13.42-34.68c-2.74-9.24-5.3-18.54-8.29-27.7-3.2-9.8-6.36-19.5-8.65-29.56-2.16-9.51-3.55-19.2-4.91-28.86-1.78-12.54-3.61-25.18-4.6-37.82-1.58-20.31-2.33-40.68-3.43-61-1-19.45-3.29-38.81-3.8-58.29-.26-9.92-.31-19.85-.44-29.77-.16-10.34-.82-20.59-1.59-30.89-.73-9.89-1.39-19.8-2.14-29.69a278.46,278.46,0,0,1-1.14-28.44c.14-5.54.34-11.08.51-16.61a88.81,88.81,0,0,0-.34-9.93c-1.51-7.54-3.53-15.26-3-22.83a138.7,138.7,0,0,1,2.65-18,50.83,50.83,0,0,1,5.66-14.24c5-8.93,15.2-17.16,25.35-19.07,9.11-1.72,13.4-1.65,22.51,0,2.77.49,5.51,1.14,8.22,1.9l7.44,2.1c3,.84,5.92,1.78,8.9,2.62a38.35,38.35,0,0,1,7.25-10.3c6.43-7,16.15-10,25.35-10.33a66.85,66.85,0,0,1,7.48.33c.57,0,1.14.08,1.7.1,0-6.66-.83-13.37-1-20-.23-7.56.88-15.06,2-22.52.78-5.8,1.68-11.55,2.72-17.33a66.55,66.55,0,0,1,1.72-7.49c2.83-9.24,8-17.43,16.54-22.41,6-3.49,9.8-3.72,16.59-4.4a31.07,31.07,0,0,1,15.64,4.2,37.6,37.6,0,0,1,8.62-3.62,37.08,37.08,0,0,1,28.19,3.69c11.66,6.6,19.17,18.24,28.14,27.76,3.72,3.94,7.88,7.46,11.6,11.41,1.59,1.69,3,3.6,4.44,5.42a80.61,80.61,0,0,0,7.78,8.69l2.25,1.49c4.78,3.15,9.28,6.81,13.71,10.4a42.35,42.35,0,0,1,6.38,6.73,129.54,129.54,0,0,1,9.26,12.54,147.28,147.28,0,0,1,7.32,13.18c1.07,2.23,2.11,4.47,3.1,6.76,2.15,5,4.69,10,6.19,15.21,1.33,4.61,2.36,9.27,3.34,14l1.23,5.92c1.31.22,2.62.5,3.93.85,15.45,4.26,27.94,19.41,27.28,35.84,0,1.34-.06,2.56-.17,3.69-.94,18.67-3.29,37.16-5.82,55.67-.73,6.07-1.51,12.12-1.79,18.22.07,1,.14,2,.19,2.94.17,2.89.4,5.76.33,8.66,0,2-.13,4.08-.22,6.11q1.2,4.51,2.33,9.06a150.23,150.23,0,0,1,4.24,48c-.75,9.68-2,19.28-2.5,29s.54,19.29,1.5,28.94c.22,2.33.36,4.66.51,7a70,70,0,0,1-2.21,20.41c-1.1,4.58-2,9.19-2.89,13.83-.19,1-.37,2-.55,3.07-.09.49-.18,1-.26,1.46-1.36,7.65-5.56,12-10.11,17.81-3.7,4.73-11.74,8.79-17.38,10.35-8,2.19-13.63,1.49-21.58,0a46.71,46.71,0,0,1-4.91-1.3l-.47-.14c2.41,12.36,4,24.91,5.4,37.4q2,18.15,4.31,36.26c2.29,13.47,5,27,10,39.79,1.83,4.72,3.72,9.42,5.47,14.16a78.65,78.65,0,0,1,2.74,7.52c.34,1.3.63,2.6.88,3.92,1.42,7.44,1.33,9.38.08,16.81a29.49,29.49,0,0,1-5.62,12.44c0,.79.07,1.59.11,2.38.27,1.09.6,2.15,1,3.2a33.36,33.36,0,0,1,3.73,5.13,31.86,31.86,0,0,1,4.51,16.34,21.93,21.93,0,0,1-1.16,8.68,31.2,31.2,0,0,1-8,13.8c-2.12,1.75-4.26,3.41-6.42,5a32.18,32.18,0,0,1-12.2,4.13c-4.35,4.15-10.95,7.17-16.34,8.77a29.25,29.25,0,0,1-4.6.91,38.39,38.39,0,0,1-7.32,2.66,64.2,64.2,0,0,1-16.18,1.59c-4.4-.15-8.78-.23-13.18-.27-4.76,0-9.51-.28-14.25-.59a68.84,68.84,0,0,0-8.11-.09c-2.08.42-4.14.83-6.22,1.2a116.09,116.09,0,0,1-12.11,1.51c-4.36.27-9.3-.65-13.36-1.32-2.44-.4-4.81-1-7.2-1.65l-1.48,0c-9.43,1.75-19.5,4.23-28.92,4.23C1340.51,1107.43,1333.16,1105.73,1327,1100.54Z"/><path class="cls-15" d="M1151.18,518.38a26.56,26.56,0,0,1-10.35-8.47,6.59,6.59,0,0,1-1.09-1.52l-.48-.68a25.51,25.51,0,0,1-13.91-7.82,25.77,25.77,0,0,1-9.81-2.25,24.21,24.21,0,0,1-7.33-5.19,25.28,25.28,0,0,1-8.37,0,24.9,24.9,0,0,1-19-15.53c0-.22-.1-.44-.16-.66a21.23,21.23,0,0,1-2.35-1.26c-1.06.6-2.14,1.13-3.17,1.6a23.28,23.28,0,0,1-18.55-.3,24.36,24.36,0,0,1-12.31-13.25q-.35-.9-.6-1.77a26.47,26.47,0,0,1-2.84-9.57c-.64-4.18-.18-8.54.28-12.82.08-4.2.22-8.4.52-12.57l.87-2.84a30.69,30.69,0,0,1-4.28-12.74c-.41-4-.37-8-.46-12q-.09-3.33-.24-6.66c-6.55-5.36-10-14.55-7.54-22.76.91-5.29,1.84-10.56,2.61-15.88.25-1.79.41-3.6.53-5.42,0-.9,0-1.8-.08-2.7a25.93,25.93,0,0,1,8.62-22.05c.47-2.72.7-5.51,1.07-8.23q.75-5.62,1.51-11.24c.72-5.39.84-10.91,1.17-16.35.13-6.55.28-13.1.54-19.66a13.93,13.93,0,0,1,3-6.55,14.11,14.11,0,0,1,19.84-2c3,2.44,4.19,5.39,5,9,.11.43.21.85.31,1.27l2,6.49c1.12,3.65,1.31,7.18-.33,10.74-.1.22-.21.44-.32.66q.16,3.55.22,7.13c.09,4.82.22,9.61,0,14.43q-.29,6.66-.56,13.31a24.11,24.11,0,0,1,8.19,11.1c2.63,7.44,3.93,15.46,5.36,23.23.88,4.76,1.74,9.57,2.27,14.38,1.07,9.63,2,19.27,2.22,28.94a30.59,30.59,0,0,1,1.11,2.94,20.32,20.32,0,0,1,9.45-.59,22,22,0,0,1,16.52,13.52c.29.7.56,1.39.81,2.09l.19,0a22.94,22.94,0,0,1,14.58,9.06,61.58,61.58,0,0,1,3.36,5.2,22.86,22.86,0,0,1,7,2.6,24.7,24.7,0,0,1,22.47,5.19c4.58-9,15.41-14,25.25-13a25.88,25.88,0,0,1,6.54-3.69,28,28,0,0,1,11.19-1.77,24.42,24.42,0,0,1,5.56-5.65c4.88-3.55,12.36-5.9,18.39-4.3,1.73.46,3.5.85,5.22,1.37-.81-3.3-1.45-6.65-1.93-10a63.22,63.22,0,0,1-.22-12.53c.06-6.46-.07-12.88-.52-19.35-.54-7.54-2.31-15.05-3.66-22.47-1.38-7.63-2.83-15.24-3.71-22.93q-.65-5.64-1-11.3a119.8,119.8,0,0,1,.12-13.53c0-3.17-.07-6.33-.16-9.51-.12-4.6-.47-9.55.84-14,2-6.8,3-10.82,7.71-16.39a23.36,23.36,0,0,1,6.2-5.72c4.29-2.66,9.52-5.64,14.82-5.6l7.87.26c3.76.23,7.29,2,10.51,4l.06,0,.28.17.11.07c1.25.8,2.45,1.64,3.6,2.43,4.85,3.37,8,9.5,10.35,14.59a33.17,33.17,0,0,1,2.58,13.7c0,.19,0,.38,0,.58,1.15,3.72,2.28,7.44,3.36,11.18,2,7.09,3.88,14.24,5.88,21.35v0a23,23,0,0,1,9.4,2.1c7.34,3.37,12.55,9.36,15.66,16.74.75,1.75,1.39,3.5,2,5.3,1.16,3.34,2.1,6.76,3.1,10.14.91,3.06,1.5,6.29,2.16,9.43a3.19,3.19,0,0,1,0,1.34c0,2.27-.08,4.54-.27,6.81-.1,1.19-.51,2.42-.69,3.63-.35,2.34-.59,4.71-.76,7.07l0,1.61c.26,1,.51,2.07.74,3.1.82,3.55,1.21,7.25,1.72,10.85q.4,2.82.75,5.64A43.57,43.57,0,0,1,1338,407c.06.54.12,1.08.16,1.62a17,17,0,0,1-3.72,12.35c-.22.27-.45.54-.7.8a28.8,28.8,0,0,1,.45,3.94,31.84,31.84,0,0,1-2.43,15.8c0,2.17,0,4.33.07,6.5a173.77,173.77,0,0,1-.72,17.67c-.69,7.6-3.37,15.7-8.72,21.29a29.85,29.85,0,0,1-12.4,9,30.2,30.2,0,0,1-15.88,1.6c-.87-.15-1.72-.34-2.57-.57a27.43,27.43,0,0,1-12.2,5.2,26.26,26.26,0,0,1-6.33,6.6c-8.63,6.28-19.64,6.27-28.53,1.17a37.1,37.1,0,0,1-9.71,2.59,25,25,0,0,1-16.47-3.57c-.35.16-.7.3-1.07.44-8.3,3.21-18.71,2.29-26-3.05a27.55,27.55,0,0,1-5.81.44,26.26,26.26,0,0,1-20.63,13.83c-.9.09-1.79.13-2.68.13A26.34,26.34,0,0,1,1151.18,518.38Z"/><path class="cls-15" d="M1231.27,428a7.62,7.62,0,0,1-4.08-4.35,17.86,17.86,0,0,1-.92-5c.06-2.15.27-4.23.51-6.36.17-1.5.34-3,.5-4.51.24-2.08.39-4.15.52-6.23a15.93,15.93,0,0,0-.08-1.69A10.81,10.81,0,0,1,1238.39,388c.35-.51.69-1,1-1.55q6.38-10.34,12.22-21c.91-1.68,1.76-3.38,2.63-5.07a104,104,0,0,1,6.1-10.53,50,50,0,0,1,5.24-6.53c1-1,2-2.08,2.94-3.14a52.51,52.51,0,0,0,4.71-6.13,63.73,63.73,0,0,0,4.56-9.81c.35-1.57.66-3.14.9-4.74.3-2,.45-4.1.76-6.14a93.31,93.31,0,0,1,2.24-10.83l.84-2.71a10.93,10.93,0,0,1,20.71,6.4c-.79,4.18-1.47,8.39-2.12,12.59-.18,1.2-.34,2.39-.61,3.55a37.27,37.27,0,0,1-2.35,6.6c-.81,1.83-1.84,3.56-2.81,5.3-2.08,3.72-4.2,7.39-6.47,11a63,63,0,0,1-8.38,10.26c-1.67,1.73-3.31,3.5-4.88,5.33a63.59,63.59,0,0,0-5.16,7.18c-3.38,5.79-6.73,11.6-9.91,17.51a1.59,1.59,0,0,1,1.66.23,1.67,1.67,0,0,1,.24,2.33,24.29,24.29,0,0,0-2.62,3.81c-.59.93-1.16,1.88-1.78,2.78-1.21,1.77-2.41,3.54-3.68,5.27-2.63,3.6-5.35,7.11-8.15,10.58l.15-.24a25.37,25.37,0,0,0-1.88,3.06c0,.1-.08.2-.13.3s-.07.26-.1.39c-.54,2-1.09,3.92-1.52,5.9l0,.28a13.6,13.6,0,0,1-1,3.84,7.9,7.9,0,0,1-6.4,4.57,7.26,7.26,0,0,1-.8,0A8,8,0,0,1,1231.27,428Z"/><path class="cls-15" d="M1055.15,235.45c-1.25,2.41-2.39,4.89-3.47,7.4a1.83,1.83,0,0,0,.13-.16,8.84,8.84,0,0,1,4.16-2.94c.53-3.09,1.31-6.18,1.91-9.24.47-2.33.87-4.7,1.33-7-1.17,2.25-2.36,4.48-3.54,6.72A7.28,7.28,0,0,1,1055.15,235.45Zm47.9,195c-4.28-1.7-5.75-5.94-7.24-9.85l-2.7-7.12c-1.66-4.35-3.47-8.64-5.13-13s-3.32-8.82-4.87-13.28c-4.87-8.32-10.18-16.35-14.94-24.73a149.08,149.08,0,0,1-7.24-14.05,123.11,123.11,0,0,1-5.44-15.45,207.63,207.63,0,0,1-6.34-33.26c-.63,2.44-1.25,4.87-1.87,7.31-1,3.84-2.21,7.6-3.38,11.39-.81,2.62-1.69,5.19-2.69,7.75-.82,2.08-1.61,4.57-3,6.32a11.1,11.1,0,0,1-5.75,3.83,7.65,7.65,0,0,1-10.17-6.25c-.32-1.8-.68-3.56-.82-5.37h0a10.33,10.33,0,0,1-4.49-2.14,10.62,10.62,0,0,1-2.79-4.16,8.92,8.92,0,0,1-.74-3.67c-4.34-.11-8.5-4.3-7.59-9,2.08-10.65,5.92-20.77,9.55-30.95,2.11-5.93,4.32-11.81,6.51-17.71s4.53-11.88,6.78-17.83l-.23.1a7.63,7.63,0,0,1-3.94.29c-1,1.38-2,2.73-3,4A6.9,6.9,0,1,1,1010.8,235l1.38-2a7.43,7.43,0,0,1-.31-9.6c6.32-8.34,12.48-16.8,18.74-25.19,3.39-4.54,6.77-9.1,10.21-13.62q2.31-3,4.65-6.06l2.25-2.89c.74-1,1.42-1.91,2.17-2.82a33.23,33.23,0,0,1-2.4-4.9c-.64-2.74-1.3-5.48-2-8.23a31.48,31.48,0,0,1,2.7-16.27c2-5.28,5.45-10,9-14.36,1.49-1.82,3.11-3.57,4.76-5.24,3-3,5.93-6,9-8.92q4.71-5.62,9.54-11.15a112.86,112.86,0,0,1,11.36-11.47,62.47,62.47,0,0,1,6.79-5.19,61.2,61.2,0,0,1,16-7.56c2.12-.61,4.35-1.19,6.62-1.65a59,59,0,0,1,11.1-5.94,43.1,43.1,0,0,1,23.17-2.23A52.82,52.82,0,0,1,1165.9,73c1.09.43,2.18.9,3.25,1.38.56-.07,1.11-.12,1.63-.16,4.33-.29,8.36.65,12.47,1.85,9.61,2.81,19,6.67,27.07,12.41a32,32,0,0,1,5.7,4.08,27.85,27.85,0,0,1,4.15,4.66c6.9,7.73,11.16,17.25,14.71,26.89.14.37.27.73.41,1.09.92.55,1.83,1.13,2.72,1.67a93.84,93.84,0,0,1,9.34,6.32,71,71,0,0,1,8.22,8c4.14,4.54,6.93,10.17,9.2,15.82a23.84,23.84,0,0,1,1.87,10.45,11.17,11.17,0,0,1-.17,1.16l0,.09a11.83,11.83,0,0,1-.26,8.68c1.93,6.69,3.35,13.56,4.86,20.34,1.58,4.44,3.06,8.92,4.46,13.4,2.27,7.24,4.12,14.55,5.88,21.91,1.66,3,3.24,6.07,4.81,9.13,1,1.88,1.72,3.81,2.49,5.77a26.07,26.07,0,0,1,1.57,12,17.48,17.48,0,0,1-3.8,9.3,10.15,10.15,0,0,1-3.68,3.16c-1.16.63-2.32,1.27-3.49,1.89q-2.56.65-5.14,1.21a40,40,0,0,1-5.36-.11,17.52,17.52,0,0,1-4.94-1.35,27.39,27.39,0,0,1-7.57-4.74,71.49,71.49,0,0,1-5.54-5.74,67,67,0,0,1-5.09-6.17,125.58,125.58,0,0,1-9-15.14,65.65,65.65,0,0,1-5.61-14.41,66.5,66.5,0,0,1-1.82-8.83,50.65,50.65,0,0,1,.09-9.85,20.74,20.74,0,0,1,5-12.06q-3.54-7.91-7.56-15.55a120.11,120.11,0,0,0-10.76-16.35c-4.52-5.66-4-13.81-.06-19.52-1-1.67-2-3.37-2.91-5.1a31.6,31.6,0,0,1-8,4.5,33.83,33.83,0,0,1-21.59.79,43.26,43.26,0,0,1-20.93-14.16,59.83,59.83,0,0,1-10,6.78l-.5.77c-2.56,4-5.57,7.66-8.35,11.51a16.83,16.83,0,0,1-2.35,3.25,15.58,15.58,0,0,1-7.36,4.44c-3.4.92-6.45,1.23-9.76-.29a12.85,12.85,0,0,1-6.24-6.37c-.59.88-1.2,1.75-1.82,2.61-1.16,1.65-2.37,3.26-3.59,4.87q-1.62,2.73-3.27,5.44l-1.62,2.68c-1.7,2.79-2.57,5.13-5,8.07a37,37,0,0,1-8.68,7.87c-.14.62-.28,1.23-.41,1.85-.36,1.7-.78,3.38-1.17,5.07-.64,2.76-1.3,5.52-2,8.27-1.1,4.58-2.15,9.17-3.2,13.76-.73,6.37-1.27,12.75-1.72,19.13-.33,6.12-.67,12.24-.92,18.36-.08,3.09-.08,6.18-.29,9.26a7.31,7.31,0,0,1-1.83,4.26c.11.51.22,1,.34,1.55.86,3.54,1.75,7.08,2.63,10.62,1.52,6.07,3.82,12,5.75,17.92a156.56,156.56,0,0,1,4.51,17.14,99.07,99.07,0,0,1,2,14.32c.52,8.77.83,17.51,1.92,26.23,1.12,8.9,2.31,17.74,4.09,26.54q1.13,4.05,2.36,8.06a163,163,0,0,1,6.89,17.27c1.88,5.61,3.3,11.38,4.61,17.14.78,3.44-1.55,7.48-4.22,9.43a10,10,0,0,1-6,1.92A11.87,11.87,0,0,1,1103.05,430.47Z"/><path class="cls-15" d="M1272,1160.55a77.06,77.06,0,0,1-9.77-.43c-1.44-.29-2.86-.61-4.27-1-4.85-1.19-9.7-2.26-14.58-3.24s-9.87-1.53-14.81-2.26c-5.2-.75-10.14-2.49-15.14-4.09s-9.85-4.94-14.19-7.76a58.61,58.61,0,0,1-9.6-7.5c-2.77-2.77-6.32-6-8.35-9.67-1.8-3.26-3.65-6.49-5.28-9.84a53.35,53.35,0,0,1-2.67-6.4q-4.58-13.47-9.36-26.85c-3.31-9.33-6.3-18.77-9.43-28.16s-6.74-18.66-10.34-27.88c-3.49-9-7.89-17.5-11.41-26.43-1.71-4.36-3-8.92-4.24-13.42q-2.19-7.71-4.52-15.38c-2.93-9.72-6.86-19.19-10.64-28.61-2.41-6-4.87-11.92-6.44-18.22a216,216,0,0,1-4.8-25.27c-1.22-9.82-2.19-19.7-3.77-29.47-3.11-19.23-7.11-38.34-9.53-57.66-1.23-9.79-2.42-19.59-3.31-29.41s-2.14-19.58-1.94-29.35c.15-7.38.22-14.93,1.34-22.26.77-5.08,1.67-10.14,2.41-15.23,1.42-9.88,2.09-19.86,3.48-29.75s3.53-19.68,5.5-29.48c1.88-9.37,3.74-18.75,5.95-28.06,1.94-8.12,4.47-16.07,6.87-24.06q4.26-14.13,8.73-28.21c2.14-7,4.25-14,6.28-21,2.39-8.29,5.25-16.42,8.16-24.53a54.17,54.17,0,0,0,2.24-10.37c.45-4.92,5.27-8.8,9.94-9.27a11.19,11.19,0,0,1,4.42.45c.62-4.23,1.14-8.49,2-12.68,1.75-8.5,6-15.95,13.12-21.12a33,33,0,0,1,46.07,7.29c1.36,2.51,2.72,5,4.09,7.51A33.28,33.28,0,0,1,1216,509c-.27,7.48-2,15-3,22.37-1.11,8.31-1.62,16.65-2.66,25-1.77,14-3.37,28-4.16,42,0,10.51-.28,21-.67,31.5-.28,7.18-.78,14.36-1.21,21.53-.08,5.35-.06,10.69.14,16.06.3,8,.54,15.95.47,23.94-.14,17.4-1.31,34.72-2.4,52.08-.08,7.93,0,15.83.62,23.77.84,10.84,1.83,21.65,2.86,32.48,1.86,19.48,3.79,39,7.54,58.24,2.46,12.61,5.39,25.13,7.46,37.82.9,5.47,1.68,11,2.63,16.46.84,4.8,1.78,9.56,2.77,14.33,4.82,17.55,10.67,34.75,16.92,51.85,3.46,9.47,7,18.9,10.35,28.43s6.31,19.16,9.79,28.63c1.23,3.38,2.35,6.8,3.86,10.07l5.44,11.85c5,8.79,10.1,17.53,14.73,26.49a117.07,117.07,0,0,1,7.94,18.63c1.58,5,2.74,10.18,3.91,15.31a66.88,66.88,0,0,1,1.5,9.93,30.59,30.59,0,0,1-12.09,26.92c-5,3.6-10.29,5-16.26,5.87Z"/><path d="M1154.74,337.52a83.41,83.41,0,0,1-7.75-5.16,57.06,57.06,0,0,1-4.82-4,27.36,27.36,0,0,1-4.19-5.16,17.9,17.9,0,0,1-1.58-3.65,14.77,14.77,0,0,1-.67-3.89,34,34,0,0,1,.59-6.9c.53-3.29,1.3-6.56,2.08-9.8s1.62-6.48,2.47-9.71c1.53-5.73,3.16-11.43,4.73-17.15.78-2.83,1.56-5.66,2.31-8.49.6-2.24,1.23-4.47,1.83-6.7a4.29,4.29,0,0,1,.13-1.28c.61-2.24,1.28-4.48,1.75-6.75a4.49,4.49,0,0,1,4.32-3.29,4.44,4.44,0,0,1,4.3,3.29,18,18,0,0,1,.43,4.14c-.06,1.32-.27,2.64-.44,4s-.33,2.51-.54,3.76l-1.29,7.76c-.63,3.85-1.43,7.68-2.18,11.5-1.68,8.51-3.3,17-4.68,25.56.07-.5.14-1,.2-1.48a59.44,59.44,0,0,0-1,10.56c.07.26.13.52.21.79s.43.72.66,1.07a60.39,60.39,0,0,0,6.58,5.89c1.14.94,2.3,1.88,3.46,2.8l.17.13,1.43,1.11a7,7,0,0,1,1.81,3.1,7,7,0,0,1-6.84,8.9A6.93,6.93,0,0,1,1154.74,337.52Z"/><path d="M1205.88,261.57a9,9,0,0,1-2.86-1.16,2.81,2.81,0,0,1-.65.07,3,3,0,0,1-2.48-1.42,6.76,6.76,0,0,1-.88-4.14,9.3,9.3,0,0,1,2-5.36,7.73,7.73,0,0,1,4.92-2.93,8.15,8.15,0,0,1,5.66,1.26,7.24,7.24,0,0,1,1.86,1.8,8.72,8.72,0,0,1,1.12,2.19,6.15,6.15,0,0,1,.26,2.41,9.29,9.29,0,0,1-1,3.37,8.3,8.3,0,0,1-.67,1,6.28,6.28,0,0,1-1,1.14,8,8,0,0,1-3.1,1.71c-.53.09-1.07.17-1.61.23A7.83,7.83,0,0,1,1205.88,261.57Z"/><path d="M1121.06,243.16a2.38,2.38,0,0,1-.26,1.1l.45-.5a7,7,0,0,0,.39-.65,2.22,2.22,0,0,0,.09-.37,2.77,2.77,0,0,0,0-.41l-.14-.13-.19-.12-.33-.08h-.33A2.38,2.38,0,0,1,1121.06,243.16Zm-3,2.57a4,4,0,0,1,.47.33c.35-.2.68-.41,1-.63a2.93,2.93,0,0,1-.89.17h-.86Zm-3.61,6.18a3.58,3.58,0,0,1,1.57-6.66s0,0-.08,0c-1.79-.78-2.17-3.14-1.32-4.75a6.41,6.41,0,0,1,4.41-3.13,7.8,7.8,0,0,1,2.81,0,5.68,5.68,0,0,1,2.82,1.22,5.5,5.5,0,0,1,1.47,1.75,5.37,5.37,0,0,1,.49,2.46,7.27,7.27,0,0,1-.48,2.39,11,11,0,0,1-1.75,2.77,18.63,18.63,0,0,1-1.72,1.94,15.46,15.46,0,0,1-2.49,2.07,6.06,6.06,0,0,1-2.71.87h-.25A5.7,5.7,0,0,1,1114.41,251.91Z"/><path d="M1094.3,241.33c-.19,2.29-.46,4.58-.55,6.87s-.25,4.75-.28,7.13l-.09,7.18c-.06,4.56.13,9.13.3,13.69s.28,9.39.52,14.07c.11,2.14.12,4.31.33,6.44s.42,4.34.65,6.51c.82,5.73,1.7,11.45,2.47,17.19s1.46,11.64,2.18,17.46c1.19,8.12,2.49,16.22,4.37,24.21q1.53,6.5,3.23,12.93a113.84,113.84,0,0,0,3.86,11.39c1.79,4.18,3.63,8.35,5.69,12.41,1.2,2.38,2.41,4.75,3.7,7.1a74.36,74.36,0,0,0,4.75,7.77,46.8,46.8,0,0,0,6.81,6.54,90.84,90.84,0,0,0,17.13,10.13,45.87,45.87,0,0,0,9.41,2.72,56.9,56.9,0,0,0,12.58-.08,88.48,88.48,0,0,0,9.36-2,75.92,75.92,0,0,0,7.79-2.5,84.85,84.85,0,0,0,10.42-6.09c2.23-1.44,4.36-3,6.47-4.62.58-.47,1.12-1,1.69-1.49s1.17-1,1.73-1.52l4.43-4.05c1.28-1.16,2.57-2.32,3.9-3.44l2.3-1.93a39.08,39.08,0,0,0,4.8-4.74,44.14,44.14,0,0,0,4.33-7.59,113.47,113.47,0,0,0,4.06-13.75c.85-3.42,1.38-6.89,1.93-10.35.43-4.76.8-9.51,1.13-14.28s.74-9.24,1.16-13.86c.4-4.35.79-8.69,1-13.05.25-4.74.47-9.49.81-14.22s.69-9.32,1-14,.35-9.32.38-14c0-4.48-.14-8.95-.33-13.43-.18-4.27-.58-8.51-1-12.77-1.25-8.64-2.66-17.25-4.39-25.81-.91-4.5-2-9-2.88-13.47s-1.72-9.14-2.6-13.7a75.07,75.07,0,0,0-1.72-7.7c-.38-1.29-.71-2.63-1.2-3.89-.42-1.07-.83-2.14-1.26-3.21-2.87-6.21-5.89-12.33-10-17.85a61.22,61.22,0,0,0-4.29-4.94c-1.15-1.18-2.29-2.36-3.45-3.53a107.59,107.59,0,0,0-9.33-8.66c-1.75-1.3-3.53-2.55-5.32-3.77a58.46,58.46,0,0,0-5.42-3.39,7,7,0,0,1-3.48-5,.52.52,0,0,1-.25,0,11.31,11.31,0,0,1-2-.59,26.15,26.15,0,0,0-4.18-1,25.33,25.33,0,0,0-5.64,0,50.24,50.24,0,0,0-11.49,3.4c-3.82,1.8-7.49,3.91-11.26,5.83q-3.18,1.59-6.33,3.24a63.27,63.27,0,0,0-8.33,5.18,109.05,109.05,0,0,0-9.31,8.68c-1.27,1.27-2.42,2.69-3.63,4s-2.2,2.66-3.29,4l-2.76,3.65c-1.05,1.37-2,2.83-3,4.24s-1.77,2.82-2.65,4.22a68.68,68.68,0,0,0-4.76,9.17,138.6,138.6,0,0,0-6.64,22.32c-1.12,5-2,10-2.89,15.1a.45.45,0,0,0,0-.12C1094.72,237.69,1094.44,239.51,1094.3,241.33Zm59.86,205.47a50.76,50.76,0,0,1-9.67-3.35,69.29,69.29,0,0,1-7.12-3.53c-2-1.18-4.12-2.27-6.07-3.59a118.17,118.17,0,0,1-10.36-7.65,44.33,44.33,0,0,1-6.69-7.2,46.64,46.64,0,0,1-3.32-5.23c-1.15-2-2.22-4.09-3.29-6.16s-1.93-4-2.84-6c-1.06-2.35-2.09-4.69-3.08-7.05s-2.07-4.78-2.9-7.24c-.75-2.21-1.45-4.43-2.13-6.68-1.36-4.54-2.29-9.24-3.34-13.87s-1.91-9-2.67-13.54c-.89-5.3-1.59-10.61-2.27-15.93-.58-4.67-1-9.37-1.45-14.05s-1.09-9.35-1.69-14c-.31-2.31-.57-4.63-.85-6.94s-.4-4.57-.57-6.85c-.35-4.69-.3-9.43-.37-14.13s-.16-9.39-.22-14.08.16-9.42.33-14.13.66-9.33,1.14-14c.26-2.61.74-5.21,1.12-7.8.32-2.16.8-4.3,1.21-6.44s.86-4.14,1.36-6.18c.55-2.26,1-4.52,1.67-6.76.84-3,1.65-6,2.59-9a89.94,89.94,0,0,1,7.79-18c.7-1.22,1.47-2.37,2.24-3.54.59-.91,1.15-1.85,1.79-2.72,1.53-2.06,3-4.14,4.65-6.11l2.59-3.17c.79-1,1.68-1.86,2.52-2.78,1.57-1.73,3.24-3.37,4.9-5,.78-.79,1.66-1.49,2.48-2.23s1.5-1.35,2.3-2c1-.77,2-1.53,2.93-2.29a34.34,34.34,0,0,1,8.57-4.88c2.45-1,5-1.86,7.42-2.79l6.25-2.39c1.9-.74,3.79-1.52,5.7-2.24,2.12-.8,4.27-1.47,6.44-2.1a49.87,49.87,0,0,1,9.12-1.79,30.49,30.49,0,0,1,7.39.3,25.63,25.63,0,0,1,3.56.86c.64.2,1.28.45,1.94.61a7.27,7.27,0,0,1,5.37-7.05l1.95-.26a7.3,7.3,0,0,1,3.71,1,63.82,63.82,0,0,1,6.42,3.45,74.65,74.65,0,0,1,10.32,7.32c2.81,2.35,5.35,4.91,7.91,7.52l2.68,2.75a73.16,73.16,0,0,1,6.08,7.29c4.45,5.85,7.51,12.49,10.47,19.18.6,1.35,1.13,2.71,1.65,4.08.4,1,.84,2,1.16,3.1l1.15,3.76c.36,1.19.59,2.42.88,3.63,1,4.19,1.69,8.46,2.53,12.68,1,4.9,2,9.77,3.12,14.64q1.42,6.29,2.4,12.67c.8,5.25,1.57,10.5,2.14,15.78.25,2.33.49,4.64.62,7s.24,4.93.3,7.41c.1,4.8.07,9.61,0,14.41-.08,9-.81,17.92-1.55,26.85-.8,9.78-1.28,19.58-2.12,29.36-.41,4.7-.74,9.41-1,14.12-.16,2.43-.29,4.85-.43,7.28-.06,1.16-.16,2.32-.25,3.47l-.33.86a85.86,85.86,0,0,0-3.77,11.57,114.28,114.28,0,0,0-1.89,13,55.47,55.47,0,0,1-2.11,6.92c-.92,2.6-2.11,5.27-2.78,8a43.27,43.27,0,0,1-8.93,10.9c-1.68,1.55-3.36,3.09-5,4.69-3.29,3.25-6.51,6.55-10,9.52a139.65,139.65,0,0,1-12.52,9.23,38.52,38.52,0,0,1-5,2.87,46,46,0,0,1-8.87,3.25l-4.1,1c-2.81.65-5.68,1-8.54,1.42a61,61,0,0,1-8,.53A63.25,63.25,0,0,1,1154.16,446.8Z"/><path d="M1166.38,527.51a9.73,9.73,0,0,1-1.52-.12,26.47,26.47,0,0,1-3.32-.57,16.37,16.37,0,0,1-3-1.21c-.72-.35-1.43-.72-2.14-1.08-2.29-1.18-4.47-2.53-6.79-3.64a23.18,23.18,0,0,0-3.25-.94,18,18,0,0,0-2.2,0,15.75,15.75,0,0,0-1.77.55c-1.43.69-2.76,1.53-4.13,2.34-.61.37-1.21.76-1.82,1.14a26.39,26.39,0,0,1-2.76,1.39,29.36,29.36,0,0,1-3,1.2,13.63,13.63,0,0,1-3.77.47,16.62,16.62,0,0,1-3-.36,7.91,7.91,0,0,1-3.22-1.49c-6-4.32-7.6-11.9-11.57-17.75-.39-.44-.78-.87-1.2-1.27a28.89,28.89,0,0,1-5.52,2.65,7,7,0,0,1-5.31-.5,8,8,0,0,1-2.06-1.7l-.84-1.08c-.28-.64-.55-1.29-.79-1.95a18.65,18.65,0,0,1-.48-1.89c-.12-.45-.24-.91-.38-1.37-.42-1.43-.85-2.86-1.37-4.25-.12-.26-.25-.5-.38-.74-1.81,1.76-3.5,3.66-5.22,5.5a20.77,20.77,0,0,1-4.13,3.59c-.62.31-1.26.58-1.91.83a6.89,6.89,0,0,1-2.72.55l-2-.26a7.13,7.13,0,0,1-2.81-1.7,8.18,8.18,0,0,1-1.71-2.72,11.92,11.92,0,0,1-.74-1.87,11.22,11.22,0,0,1-.33-1.91c-.15-1.12-.4-2.22-.6-3.34a57.16,57.16,0,0,0-2.53-9.91,16.69,16.69,0,0,0-1.47-2.48,3.26,3.26,0,0,0-.31-.33c-.14-.09-.28-.16-.42-.24l-.26-.07-.16,0c-.47.25-.92.51-1.37.79-2.09,1.74-4,3.74-6,5.52a27.59,27.59,0,0,1-4,3,22.68,22.68,0,0,1-2.5,1.16,10.83,10.83,0,0,1-3.41.86,9,9,0,0,1-4.89-1.06,8.17,8.17,0,0,1-3.36-3.38c-1.76-3.31-1.48-7.27-1.38-10.88.11-3.76.49-7.53.77-11.28.21-2.77.41-5.53.62-8.3.34-4.61.7-9.22.95-13.84s.6-9.55.75-14.33c.28-9.17.8-18.37-.27-27.5a24.48,24.48,0,0,0-1.17-4.41,14,14,0,0,0-.68-1.27l-.2-.05c-.89.28-1.76.57-2.64.89a10,10,0,0,1-3,.68,6.23,6.23,0,0,1-3.12-.66,5.08,5.08,0,0,1-2.23-2c-.21-.46-.42-.92-.6-1.39s-.18-1-.24-1.57c-.06-.87-.09-1.73-.07-2.61,0-1.14.13-2.29.16-3.44q.16-5.12.24-10.25c.06-3.1.06-6.17,0-9.27a152,152,0,0,0-.85-15.54c-.22-1.56-.48-3.1-.79-4.65a28.11,28.11,0,0,0-1.46-4.84,16,16,0,0,0-1.35-2.43,7.6,7.6,0,0,0-.7-.69c-.29-.19-.6-.35-.9-.51l-.12,0a10.06,10.06,0,0,0-1.45.07,11.31,11.31,0,0,1-4.52.31,7.72,7.72,0,0,1-2-.73,4.8,4.8,0,0,1-1.64-1.71,15,15,0,0,1-.79-2,7.57,7.57,0,0,1-.18-2.18,17.81,17.81,0,0,1,.24-2c.14-1.08.34-2.13.56-3.19.29-1.35.64-2.68,1-4,.25-1,.46-2,.75-3,.85-2.85,1.69-5.7,2.54-8.54.57-1.91,1.24-3.79,1.88-5.67,3.13-9.35,6.38-18.66,9.46-28,.83-2.55,1.67-5.09,2.5-7.64.58-1.77,1.13-3.56,1.68-5.34s1-3.3,1.39-5c.31-1.21.64-2.41.9-3.64-.53.36-1.06.72-1.6,1.06l-3.18,2c-2,1.23-4,2.41-6.09,3.49a32.29,32.29,0,0,1-8.86,3.42,6,6,0,0,1-4-.39,7,7,0,0,1-2.58-2.59,5.88,5.88,0,0,1-.58-3.89,39,39,0,0,1,1.1-4.9c.91-3.31,2.16-6.54,3.3-9.78.68-1.93,1.35-3.85,2.16-5.73q2-4.62,4-9.24c2-4.58,4.42-8.94,6.7-13.37.64-1.23,1.25-2.47,2-3.66l4.36-7.25c2.19-3.65,4.4-7.27,6.69-10.86,2.46-3.84,4.89-7.7,7.4-11.51q2.54-3.81,5-7.64,1.23-1.86,2.5-3.7c.4-.58.8-1.17,1.18-1.75l-.41.22c-1.56.85-3.13,1.65-4.69,2.48s-3,1.47-4.44,2.19l-2.86,1.4c-.89.44-1.81.83-2.75,1.19a10.78,10.78,0,0,1-3.2.47,2.57,2.57,0,0,1-2.47-3.25,10.75,10.75,0,0,1,.74-2.13,23,23,0,0,1,1.22-2l1-1.56c.64-1,1.28-2.08,1.94-3.1,1.29-1.94,2.52-3.93,3.86-5.83l5.15-7.27c1.3-1.85,2.74-3.63,4.12-5.44s2.57-3.49,4-5.15l6.2-7.44c3.06-3.69,6.37-7.17,9.58-10.72,1.15-1.28,2.4-2.47,3.59-3.7l4.69-4.8c2-2,4.07-4,6.13-6l-.34.12-2.53.9a20.37,20.37,0,0,1-4.91.85,3.25,3.25,0,0,1-3.25-3.26,5.41,5.41,0,0,1,.89-3.08,12.18,12.18,0,0,1,1.94-1.86l2.52-2.26c1.54-1.37,3.16-2.69,4.78-4a137.64,137.64,0,0,1,28.13-16.77c9.93-4.49,20.4-8.13,31.31-9.14A36.89,36.89,0,0,1,1156.86,72a16,16,0,0,1,5.9,3.52,7.05,7.05,0,0,1,1.51,2.68,4.9,4.9,0,0,1,.11,1.83c0,.5-.12,1-.19,1.51,0,.23,0,.45-.08.67a2.18,2.18,0,0,1-2.12,2.12,2.11,2.11,0,0,1-2.11-2.12c.07-.59.15-1.19.23-1.78a10.53,10.53,0,0,0,.05-1.25,1.43,1.43,0,0,1-.08-.22,5.48,5.48,0,0,0-.61-.9c.1.14.22.28.32.43a6.06,6.06,0,0,0-.67-.67,20.07,20.07,0,0,0-2.9-1.62,30.2,30.2,0,0,0-6.38-1.64,43.81,43.81,0,0,0-10.17.13,88,88,0,0,0-20.69,6,139.41,139.41,0,0,0-30.3,17.39c-1.25,1-2.5,2-3.67,3h0l.44-.13q1.71-.54,3.42-1a8,8,0,0,1,2.64-.54,3.64,3.64,0,0,1,3.32,2.86,4.26,4.26,0,0,1-1.25,3.9c-1,1-2,2.07-3,3.08-1.3,1.29-2.66,2.52-4,3.78q-3,2.83-6,5.68c-1.92,1.83-3.73,3.79-5.6,5.68-1.29,1.3-2.57,2.59-3.8,3.94l-6.56,7.2c-1.31,1.44-2.53,3-3.78,4.46l-4.83,5.78-5.44,7.11c-1.62,2.12-3.15,4.3-4.7,6.46-1.65,2.33-3.26,4.68-4.86,7-.6.89-1.2,1.79-1.79,2.69l-.71,1.08c2.3-1.07,4.57-2.23,6.81-3.39,1.37-.72,2.75-1.43,4.12-2.16l2.46-1.32c.61-.33,1.19-.7,1.79-1a8.74,8.74,0,0,1,3.22-.81,2.36,2.36,0,0,1,2.06,1.19,2.46,2.46,0,0,1,0,2.42c-.63,1.36-1.23,2.72-2,4-.84,1.45-1.8,2.82-2.75,4.19s-1.78,2.61-2.64,3.93l-5.47,8.32c-2.74,4.17-5.35,8.42-8,12.64-2.55,4-4.93,8.18-7.35,12.3-.93,1.56-2,3.11-2.78,4.74L1024,223l-3,6-5.13,12.37c-.26.63-.45,1.31-.66,2l-1.63,4.83c-.34,1-.69,2-1,3a60.62,60.62,0,0,0-2,8c0,.12,0,.25,0,.38l.05.08,0,0h.11a26.36,26.36,0,0,0,3.68-1.1,91.55,91.55,0,0,0,11.38-6.32c.79-.48,1.58-1,2.36-1.47l1.51-1c.64-.4,1.23-.83,1.9-1.19a8.17,8.17,0,0,1,2.1-.67,3,3,0,0,1,3.64,2.06c.16.64.35,1.27.5,1.92a8.76,8.76,0,0,1,.15,2.23,22.1,22.1,0,0,1-.9,4.84c-.93,3.61-2,7.15-3,10.7-.8,2.55-1.63,5.09-2.44,7.63q-2.28,7.06-4.62,14.09t-4.58,14c-.69,2.14-1.47,4.27-2.07,6.44l-2.34,8.48c-.29,1.06-.5,2.14-.73,3.22-.4,1.88-.79,3.75-1.09,5.65-.07.62-.13,1.24-.14,1.85a11.57,11.57,0,0,1,5.73.14,10.74,10.74,0,0,1,5.11,3.9,24.55,24.55,0,0,1,2.9,6.15,45,45,0,0,1,1.69,8.05,152.22,152.22,0,0,1,1.27,18.36c.13,3.63.14,7.26.16,10.9,0,1.48,0,3,0,4.43,0,1.92-.06,3.89,0,5.83.54-.2,1.08-.41,1.63-.6a8.72,8.72,0,0,1,4.83-.25,7.93,7.93,0,0,1,2.14.77,11.44,11.44,0,0,1,1.77,1.34,9.47,9.47,0,0,1,1.44,1.88,14.43,14.43,0,0,1,1.33,2.84,24.57,24.57,0,0,1,1.23,4.3c.31,1.67.46,3.39.61,5.08.33,3.77.45,7.51.46,11.3,0,2.92-.09,5.84-.15,8.77,0,2.13-.06,4.27-.15,6.41q-.58,14.76-1.39,29.49c-.17,2.92-.33,5.85-.5,8.77l-.18,3.74a65.83,65.83,0,0,0-.06,9.21l.15.6.21-.06a19.62,19.62,0,0,0,2.51-1.47c1.56-1.26,3-2.61,4.54-3.94a23.71,23.71,0,0,1,5.76-4.1,11.22,11.22,0,0,1,3.63-1.05,10,10,0,0,1,4,.46,10.3,10.3,0,0,1,3.76,2.15,18.31,18.31,0,0,1,2.43,2.85,26,26,0,0,1,3.08,6.23,62.39,62.39,0,0,1,1.88,6c.23.82.44,1.65.66,2.48.56-.59,1.11-1.18,1.67-1.76s1.21-1.21,1.83-1.81a23.57,23.57,0,0,1,3.25-2.74,13.29,13.29,0,0,1,3-1.5,5.36,5.36,0,0,1,2-.4,7.1,7.1,0,0,1,2.68.2,11.71,11.71,0,0,1,3.16,1.43,11.22,11.22,0,0,1,3.09,3.31,26.46,26.46,0,0,1,2.79,6.57l.39,1.19a12.28,12.28,0,0,1,4.8-1.56,10.39,10.39,0,0,1,5.59,1,15.11,15.11,0,0,1,4,3,35.14,35.14,0,0,1,5.19,7.64,80.08,80.08,0,0,0,4.21,7.17,10.48,10.48,0,0,0,.86.9l.73-.2a78.87,78.87,0,0,0,7-4.17,29.74,29.74,0,0,1,5.12-2.37,11.15,11.15,0,0,1,2.35-.55,25.76,25.76,0,0,1,3.39-.33,22.54,22.54,0,0,1,5.89.8,31.15,31.15,0,0,1,5.33,2.08c2.62,1.23,5.1,2.73,7.7,4,.45.15.91.28,1.39.39h.52a5,5,0,0,0,.55-.16,21.85,21.85,0,0,0,2.33-1.37c2-1.63,3.88-3.38,6-4.85a16.46,16.46,0,0,1,10.16-3c3.66.16,7.11,1.93,10.19,3.8,2.37,1.44,4.66,3,7.15,4.18a19.27,19.27,0,0,0,2.39.69l.74,0c.35-.08.7-.18,1.05-.29s.82-.45,1.22-.71c2.9-2.4,5.52-5.19,8.84-7a19.49,19.49,0,0,1,7.49-1.93,24,24,0,0,1,8.21.95,64.78,64.78,0,0,1,10.44,3.87c1.69.74,3.37,1.49,5.07,2.22a34.83,34.83,0,0,0,4.79,1.57,15.44,15.44,0,0,0,1.8,0,14.46,14.46,0,0,0,1.63-.44,25.7,25.7,0,0,0,4.09-2.52c1-.73,1.89-1.45,2.86-2.15,1.33-1,2.61-2,4-2.84a32.53,32.53,0,0,1,4.67-2.19,17.1,17.1,0,0,1,5.12-.89,20.58,20.58,0,0,1,5.3.54,28.39,28.39,0,0,1,5.24,2c1.53.66,3,1.38,4.48,2.14,1.21.62,2.47,1.18,3.72,1.72a34.13,34.13,0,0,0,5.4,1.69,16.89,16.89,0,0,0,0-1.74c-.76-4.12-2.14-8.08-3.13-12.14a26.93,26.93,0,0,1-.45-3c0-.22,0-.45,0-.67.09-.72.18-1.44.28-2.15a16.09,16.09,0,0,1,1.17-2.57,7.35,7.35,0,0,1,2.51-2.48,13.74,13.74,0,0,1,2.5-1,12.7,12.7,0,0,1,2.82-.25,16.75,16.75,0,0,1,6.53,1.79,72.92,72.92,0,0,1,9.46,5.55c2.16,1.36,4.38,2.61,6.54,4a6.37,6.37,0,0,1-1.53,11.64,6.13,6.13,0,0,1-4.91-.65c-1.76-1.27-3.47-2.64-5.17-4a75.64,75.64,0,0,0-7.92-5.33c.25.93.53,1.85.79,2.76a47.72,47.72,0,0,1,1.6,7.67,14.93,14.93,0,0,1,.07,3,15.1,15.1,0,0,1-.87,4.25,9.94,9.94,0,0,1-.88,1.9c-.41.56-.83,1.09-1.27,1.61a20.8,20.8,0,0,1-1.64,1.3,8.4,8.4,0,0,1-2.46,1.17c-.72.15-1.44.26-2.16.34a10.83,10.83,0,0,1-1.51-.08,21.31,21.31,0,0,1-4-.83,65.34,65.34,0,0,1-7-2.64c-2.08-.89-4.12-1.88-6.18-2.8a29.25,29.25,0,0,0-4.78-1.54,16.45,16.45,0,0,0-2.22,0,12.92,12.92,0,0,0-1.62.44,28.72,28.72,0,0,0-4,2.47c-1.26,1-2.52,2-3.76,3a34.45,34.45,0,0,1-5.1,3.55,18.51,18.51,0,0,1-5.66,2.06,24,24,0,0,1-3.78.38,18.93,18.93,0,0,1-4-.51,29,29,0,0,1-5.38-1.85c-1.24-.52-2.5-1-3.74-1.59l-4.07-1.81c-1.43-.59-2.87-1.17-4.34-1.66a33.57,33.57,0,0,0-4.74-1.2,18.94,18.94,0,0,0-2.61,0c-.55.11-1.09.24-1.62.4a16.46,16.46,0,0,0-1.58,1c-2.29,1.88-4.32,4.08-6.75,5.81a19.41,19.41,0,0,1-4.6,2.24,9.66,9.66,0,0,1-2,.45,14.23,14.23,0,0,1-4,.12,20.86,20.86,0,0,1-5.46-1.33,42.37,42.37,0,0,1-4.91-2.33c-1.27-.73-2.53-1.48-3.8-2.23a34.78,34.78,0,0,0-3.58-1.87c-.37-.14-.73-.24-1.1-.34h-.75c-.22,0-.43.1-.65.17a20.59,20.59,0,0,0-2,1.21c-1.86,1.57-3.64,3.24-5.62,4.67a21.56,21.56,0,0,1-3.36,1.94,25.24,25.24,0,0,1-3,1.19,15,15,0,0,1-3.27.46Z"/><path d="M1328.39,479.69a6,6,0,0,1-1.81-4.38c.17-2.08.46-4.15.83-6.21a14.76,14.76,0,0,1,2.11-5.6,8.56,8.56,0,0,1,2.71-2.68l.36-.19c-.69-2.18-1.44-4.34-2.19-6.5-.43-1.24-1-2.44-1.46-3.65l-1.5-3.71-2.65-5.79-1-2.25a46.47,46.47,0,0,1-3.42-8.68,23.24,23.24,0,0,1-.62-4.47c.1-.79.2-1.58.31-2.36a8.07,8.07,0,0,1,1.93-3.43c.59-.47,1.19-.93,1.78-1.38a8.59,8.59,0,0,1,2.87-1,7,7,0,0,1,2.54-.21,17.77,17.77,0,0,1,3.31.57c2.58.59,5.13,1.24,7.72,1.76a71.92,71.92,0,0,0-3.31-12.58l-2.82-7.58c-.74-2-1.59-4-2.38-6-.54-1.37-1-2.77-1.5-4.15a30.1,30.1,0,0,1-1.42-5.18,31.68,31.68,0,0,1-.52-4.85c.11-.88.24-1.76.36-2.64.08-.19.15-.39.22-.59a7.35,7.35,0,0,1,1.91-3.26,5.86,5.86,0,0,1,1.91-1.65c.3-.2.69-.43,1.09-.65-.26-1-.49-1.93-.82-2.86-.86-2.44-1.71-4.86-2.56-7.3l-1.92-4.48c-.67-1.56-1.29-3.14-2-4.66-1.93-4-3.84-7.93-5.8-11.87s-3.95-7.86-5.84-11.84l-3.51-7.38c-.93-2-1.85-3.92-2.71-5.91-1.24-2.88-2.61-5.82-2.76-9-.89-1.8-1.94-3.53-2.93-5.28-1.09-1.93-2.24-3.83-3.36-5.73-2.12-3.59-4.09-7.25-6-10.95s-3.74-7.58-5.58-11.38c-1.32-2.74-2.55-5.53-3.65-8.36-.5-1.3-.91-2.63-1.31-4a28.8,28.8,0,0,1-.86-4.79,13.1,13.1,0,0,1,1.85-8.8,10.13,10.13,0,0,1,3.75-3.4,6.21,6.21,0,0,1,.59-.26c-.41-.74-.82-1.46-1.26-2.18-1.24-2.1-2.49-4.18-3.75-6.27-2.55-4.24-5-8.52-7.77-12.64-3.08-4.67-6.23-9.3-9.4-13.9-1.45-2.09-2.82-4.22-4.23-6.34-.49-.73-1-1.44-1.55-2.16-.14-.2-.27-.42-.41-.63-.28-.63-.55-1.25-.81-1.89a6.8,6.8,0,0,1-.1-3.44,6.54,6.54,0,0,1,1.51-2.74,6,6,0,0,1,2.62-1.65,6.7,6.7,0,0,1,3.24,0c.56.2,1.11.43,1.66.67.82.29,1.67.51,2.5.76,1.16.35,2.33.64,3.5.88a108.52,108.52,0,0,0-4.2-12.62c-3.79-8.66-8.77-16.65-13.77-24.65-2.49-4-5-7.94-7.46-11.94s-5.14-8.24-7.6-12.42l-4.44-7.57a105.21,105.21,0,0,0-5.67-9,22.27,22.27,0,0,0-2.67-2.82c-.83-.5-1.67-.93-2.46-1.5l-2.13-1.51c-2.2-1.58-4.4-3.14-6.49-4.86-3.69-3-6.93-6.52-10.29-9.91-1.6-1.6-3.19-3.2-4.82-4.77-1.81-1.74-3.77-3.34-5.73-4.9a36.88,36.88,0,0,0-7.51-4.45,23.11,23.11,0,0,0-4.39-1.24,20.43,20.43,0,0,0-3.75,0,18.46,18.46,0,0,0-3.5.94,17.84,17.84,0,0,0-2.57,1.51,10.15,10.15,0,0,0-1.41,1.37l-.24.38a1.92,1.92,0,0,1-2.16,2.78,3.49,3.49,0,0,1-1.15-.7,2.66,2.66,0,0,1-.81-2.39,5.17,5.17,0,0,1,1.27-2.82A13.16,13.16,0,0,1,1173,75a17.27,17.27,0,0,1,8.23-2.72,18.67,18.67,0,0,1,8.81,1.5,33.86,33.86,0,0,1,7.94,4.5,83.28,83.28,0,0,1,7,5.87c4.66,4.33,8.89,9.1,13.87,13.09a53.37,53.37,0,0,0,10,5.8c.7.27,1.41.52,2.08.84a13.07,13.07,0,0,1,3.79,3,47.71,47.71,0,0,1,5.87,8.09l4.82,7.73c2.91,4.66,6,9.24,9,13.84,2.89,4.41,5.84,8.77,8.78,13.15,2.33,3.49,4.67,7,6.93,10.52a114,114,0,0,1,10.24,20.23c.8,2.05,1.48,4.15,2.19,6.23.4,1.19.81,2.36,1.18,3.56.7,2.27,1.5,4.67.22,6.93a8.09,8.09,0,0,1-5.35,3.85,11.12,11.12,0,0,1-3.86,0h-.12c1.37,2,2.78,4.06,4.17,6.08,2.72,4,5.41,7.93,7.92,12l8.3,13.54c1.28,2.06,2.55,4.13,3.79,6.21s2.87,4.29,2.59,6.94a5.53,5.53,0,0,1-1.61,3.9l-.39.32a5.68,5.68,0,0,1-2.44,1.42,29.35,29.35,0,0,1-3.42.83c0,.44,0,.88.06,1.32a35.25,35.25,0,0,0,2,6.09c2.05,4.63,4.55,9.09,6.89,13.59.69,1.32,1.44,2.59,2.17,3.89s1.58,2.93,2.46,4.34c2.08,3.33,4.18,6.62,6.35,9.89.93,1.4,1.87,2.79,2.81,4.19.5.75,1,1.5,1.49,2.25a14.37,14.37,0,0,1,1.11,2,11.62,11.62,0,0,1,.86,2.18,6.72,6.72,0,0,1,.24,2.24,27.44,27.44,0,0,0,1,2.92c1.5,3.4,3.21,6.71,4.85,10,1,2,2,4.05,3,6,2.56,4.94,5.12,9.87,7.64,14.83,1.1,2.15,2.29,4.28,3.28,6.49q2,4.41,3.94,8.83a125.16,125.16,0,0,1,5.57,15.74,24.23,24.23,0,0,1,1,5,12.68,12.68,0,0,1-.34,3.35,9.26,9.26,0,0,1-2.29,3.84c-.65.56-1.32,1.08-2,1.59a13.41,13.41,0,0,1-2.12,1,81.53,81.53,0,0,0,2.74,8.12c.72,1.9,1.4,3.8,2.07,5.72.6,1.73,1.21,3.47,1.81,5.21a76.92,76.92,0,0,1,2.44,8.83c.4,1.79.66,3.59.93,5.4a32.63,32.63,0,0,1,.48,6.15,14.31,14.31,0,0,1-.45,3,9.49,9.49,0,0,1-2.41,4,10.8,10.8,0,0,1-2.55,1.82,11.52,11.52,0,0,1-3.76,1.26,14.27,14.27,0,0,1-3.56.19c-1.19-.1-2.41-.32-3.59-.51-.88-.14-1.75-.31-2.61-.5.06.13.11.26.16.39l3.28,7.57c1.3,3,2.43,6.08,3.62,9.13.86,2.24,1.6,4.56,2.31,6.86.26.83.51,1.66.77,2.49a16,16,0,0,1,1,4.57,11.16,11.16,0,0,1-.43,3.1,6.35,6.35,0,0,1-1.63,2.8,12.29,12.29,0,0,1-1.72,1.41,13.74,13.74,0,0,1-2.67,1.09l-.19.05c-.27,1.2-.46,2.43-.65,3.65-.05.41-.11.82-.17,1.23a6.2,6.2,0,0,1-10.35,2.74Z"/><path d="M1176.9,1161.22l-1.55-.65a6.5,6.5,0,0,1-2.31-2.32,23.38,23.38,0,0,1-2.58-4.64c-.85-1.87-1.58-3.8-2.26-5.74-1.11-3.21-2.18-6.43-3.25-9.65q-3.36-10.21-6.7-20.41c-4.31-13.21-8.44-26.47-12.5-39.75-3.76-12.3-7.53-24.61-10.94-37-1.79-6.53-3.65-13-5.37-19.58l-6.39-24.32c-3.14-11.93-6.31-23.85-9.36-35.81L1110,947c-.57-2.23-1.2-4.46-1.71-6.7q-2.71-11.89-5.45-23.8c-.39-1.72-.83-3.43-1.12-5.18l-2.07-11.86c-.78-4.55-1.57-9.11-2.35-13.65-.32-1.8-.61-3.6-.8-5.42q-1.38-13.15-2.77-26.32c-.17-1.58-.36-3.16-.43-4.75l-.51-11.63c-.21-4.84-.42-9.69-.64-14.52-.08-1.95-.25-3.91-.24-5.86q.11-12.37.2-24.75c0-2.89,0-5.79.07-8.68,0-2.2.26-4.42.39-6.61q.75-12.94,1.51-25.91c.09-1.57.3-3.14.47-4.7q.76-6.9,1.54-13.8.72-6.55,1.46-13.09c.17-1.55.35-3.08.58-4.62,2-13.74,4-27.49,6.14-41.22,1.33-8.61,2.76-17.2,4-25.83q2-14.29,4.06-28.61l0-.11a.07.07,0,0,0,0,0,.13.13,0,0,1,0-.06q2.45-20.16,4.8-40.31c.79-6.83,1.61-13.63,2.52-20.44.5-3.76,1-7.53,1.53-11.29.35-2.34.69-4.69,1.09-7,.37-2.12.91-4.19,1.39-6.28.51-2.29,1.42-5.42,4.24-5.55a1.59,1.59,0,0,1,.19,3.17h.06l-.12.05-.07.06a5.47,5.47,0,0,0-.41.71,26.09,26.09,0,0,0-.87,3.29c-.31,1.43-.67,2.85-1,4.28-.61,3.08-1,6.21-1.44,9.31-.8,6.14-1.69,12.29-2.39,18.44q-1.29,11.6-2.59,23.18c-1.44,12.78-2.91,25.54-4.63,38.28-1,7.25-1.88,14.51-2.93,21.74q-1.72,11.74-3.43,23.49c-2,13.86-3.86,27.75-5.74,41.63-.07.54-.15,1.09-.22,1.64,0-.21,0-.42.08-.62q-1.07,11.21-2.16,22.42c-.34,3.46-.67,6.92-1,10.38-.16,1.72-.16,3.45-.24,5.17q-.54,13.38-1.09,26.75c0,1.44-.06,2.86,0,4.3,0,4.33.1,8.66.15,13,0,4.58.1,9.16.15,13.73,0,1.74,0,3.49.09,5.23q.81,12.64,1.63,25.29c.11,1.7.22,3.4.32,5.11,0,.67,0,1.35.14,2,.36,2.83.71,5.67,1.07,8.5l2.79,22,4.41,22.63c.44,2.21.77,4.48,1.32,6.67l2.43,9.69,3.51,14c.44,1.72.85,3.44,1.32,5.15q3.42,12.31,6.83,24.63c3.23,11.65,6.6,23.27,9.91,34.9,2,7.14,4,14.3,6.11,21.42l6.84,22.94c1.93,6.5,4.11,12.93,6.19,19.38s4.12,12.66,6.19,19q6.47,19.7,13.36,39.25c3.19,9.1,6.33,18.23,10,27.16.79,1.82,1.59,3.64,2.23,5.51a6.47,6.47,0,0,1-6.25,8.19A6.64,6.64,0,0,1,1176.9,1161.22Z"/><path d="M1305.72,1174.48c-1.69,0-3.4-.15-5.08-.28l-6.66-.53c-3.47-.28-6.94-.45-10.41-.65-3.14-.17-6.27-.25-9.4-.34-5.43-.16-10.86-.31-16.29-.52a162.18,162.18,0,0,1-22.08-2.49,131.39,131.39,0,0,1-21.49-6c-3.36-1.21-6.64-2.64-9.91-4.09a63.74,63.74,0,0,1-8.41-4.45,52,52,0,0,1-8.47-6.28,5.8,5.8,0,0,1,4.1-9.9,5.94,5.94,0,0,1,4.1,1.7c.29.29.6.57.91.84,1.39,1,2.84,1.92,4.29,2.85a79.94,79.94,0,0,0,11.4,5.82,160.29,160.29,0,0,0,16.21,5.66,123.93,123.93,0,0,0,17.38,3.54c2,.25,3.93.48,5.9.65,2.83.26,5.67.37,8.5.48s5.7.22,8.55.32l8.3.29c1.3,0,2.6.06,3.9.14,3.74.24,7.49.41,11.22.74l7.38.65c1.23.11,2.45.19,3.68.28a40.27,40.27,0,0,0,6.77,0c.45-.09.88-.21,1.31-.34l.14-.08c0-.38,0-.75,0-1.13s-.09-.82-.14-1.22c-.19-1.35-.34-2.7-.58-4l-1-5.73c-.33-1.81-.85-3.6-1.27-5.39-.33-1.43-.72-2.83-1.12-4.25-1.78-6.41-3.65-12.79-5.66-19.13q-1.76-5.57-3.53-11.13c-.32-1-.71-2-1.07-3l-2.54-7.11-2.13-6c-.26-.71-.49-1.43-.78-2.12-1.55-3.78-3.09-7.55-4.65-11.33q-1.66-4.08-3.35-8.16-4.42-10.21-8.86-20.41c-.94-2.17-1.77-4.39-2.62-6.59q-2.7-6.93-5.39-13.87c-.65-1.65-1.28-3.31-1.93-5-.2-.53-.42-1-.6-1.59q-1.53-4.83-3.08-9.65-2.25-7.06-4.51-14.15c-.63-2-1.34-3.92-1.87-5.91q-3.22-12-6.42-23.94c-.76-2.8-1.51-5.61-2.26-8.41-.58-2.16-1-4.38-1.55-6.57q-3-12.9-6.07-25.79c-.37-1.57-.66-3.16-1-4.73-.91-4.63-1.82-9.24-2.74-13.87-.85-4.3-1.71-8.6-2.55-12.9-.3-1.45-.55-2.88-.77-4.34l-4-27c-.28-1.86-.61-3.72-.81-5.59-.35-3.39-.71-6.77-1.06-10.16L1223,827.74c-.2-1.84-.32-3.69-.47-5.53q-.58-7.19-1.18-14.36-.73-8.83-1.47-17.67c-1.17-13.92-2.25-27.85-3.63-41.74q-2.31-23.07-4.69-46.13l-1-9.31c-.26-2.45-.36-4.92-.54-7.37q-.52-7.49-1.06-15c-.14-1.8-.26-3.6-.39-5.4-.05-.65-.13-1.32-.14-2q-.27-12.25-.53-24.5c-.13-5.85-.1-11.7-.09-17.56,0-6.42,0-12.84.08-19.26.07-7.63.07-15.26.21-22.88q.16-10.05.37-20.1c0-3,.23-6,.35-9.08l.18-4.54c.07-1.59.18-3.17.33-4.75a24.9,24.9,0,0,1,.46-2.72,13,13,0,0,1,1-2.29,1.78,1.78,0,0,1,2.44-.64,2.33,2.33,0,0,1,1.23,1.88,1.78,1.78,0,0,1-1,1.59,16.28,16.28,0,0,0-.5,2.28c-.44,4.68-.53,9.38-.72,14.06q-.18,3.87-.26,7.76c-.14,6.81-.32,13.62-.39,20.43-.08,7.28-.22,14.56-.23,21.84q0,12.61,0,25.21c0,6,.22,12.07.38,18.11s.15,12.16.64,18.22q1,12.89,2.06,25.77c.14,1.81.39,3.61.6,5.42q.83,7.28,1.66,14.55c1.65,14.32,3.23,28.65,4.83,43,.67,6,1.18,12,1.76,18.08.6,6.27,1.22,12.54,1.81,18.82q.95,10.11,1.91,20.24l1,10.88c.14,1.49.25,3,.43,4.48q2.05,17.41,4.1,34.82,1.83,11.19,3.67,22.37c.56,3.38,1.11,6.76,1.67,10.15.3,1.84.76,3.66,1.16,5.49q2.81,13.11,5.62,26.24c.32,1.47.69,2.93,1.06,4.39q1.66,6.63,3.35,13.25t3.4,13.48c.38,1.49.75,3,1.17,4.47l7.29,25.49c.58,2,1.07,4,1.74,6l3.09,9.15c1.59,4.71,3.2,9.43,4.79,14.15l1.59,4.7c.18.53.34,1.08.55,1.6q4.88,11.91,9.73,23.84,4.65,10.27,9.31,20.54c1,2.19,1.9,4.43,2.84,6.65q2.73,6.39,5.45,12.79c1,2.37,1.91,4.76,2.8,7.18l4.65,12.59c1,2.82,1.93,5.7,2.89,8.55s2,5.86,2.91,8.8c1.08,3.38,2.18,6.75,3.23,10.14q.94,3,1.86,6c.52,1.66.92,3.37,1.36,5,.85,3.16,1.51,6.37,2,9.6.15.83.28,1.67.43,2.5,0,.37.11.73.17,1.09.11.86.23,1.72.35,2.59a17.44,17.44,0,0,1-.24,3.6c0,.33-.11.67-.16,1-.29.76-.6,1.5-.92,2.25a19.51,19.51,0,0,1-2.09,2.53,13.92,13.92,0,0,1-2.7,1.92c-.73.31-1.46.62-2.19.91a12.4,12.4,0,0,1-1.8.43,38.58,38.58,0,0,1-6.79.57Z"/><path d="M1526.84,870.23a4.66,4.66,0,0,1-2.07-1.2,4.55,4.55,0,0,1-1.38-3.33,19.82,19.82,0,0,1,.51-3.16,16,16,0,0,1,.52-1.52c.36-1,.77-2,1.17-3.07.89-2.28,1.74-4.58,2.58-6.88s1.59-4.49,2.35-6.74c.68-2,1.38-4,1.94-6.09l2.58-9.42c.43-1.55.71-3.1,1-4.68q1-5.1,2-10.21c.3-1.6.65-3.19.88-4.8.92-6.94,1.87-13.89,2.8-20.83.54-5.37,1-10.75,1.58-16.12.39-4,.84-8,1.14-12q.75-9.88,1.48-19.75c.25-3.49.53-7,.76-10.47q.61-10,1.25-20.09l.54-8.6c0-.86.1-1.7.13-2.55.28-11,.6-21.94.84-32.91,0-1.8,0-3.61-.07-5.41,0-2.11-.1-4.21-.16-6.32q-.2-6.32-.61-12.63c-.51-8.14-1.34-16.26-2.41-24.34a.59.59,0,0,0,0,.13c0-.12,0-.25,0-.38V617c0-.17,0-.34-.06-.51v0a365.45,365.45,0,0,0-7.64-39.49c-1.66-6.55-3.5-13.05-5.57-19.49s-4.54-13-7.2-19.35l.12.25A180.74,180.74,0,0,0,1503,498.87c.09.13.2.25.29.37a290.8,290.8,0,0,0-21.21-24.12c-2.59-2.66-5.16-5.35-7.87-7.89l-4-3.78-11.45-10.77c-5-4.74-10.42-9.11-15.88-13.35l.3.22a250.26,250.26,0,0,0-22-15.12,185.59,185.59,0,0,0-24-12.48l.15.07c-3.5-1.47-7-2.85-10.61-4.11l-3.9-1.38c-1.3-.46-2.55-1-3.82-1.54a1.26,1.26,0,0,1-.58-1.42c0-.08,0-.16.07-.24a1.24,1.24,0,0,1,.88-.88h.06a1.33,1.33,0,0,1,1.45.63l.4.17c2.74,1.15,5.62,2,8.44,3,2.31.81,4.59,1.76,6.86,2.67,3.32,1.34,6.57,2.81,9.79,4.37A227.32,227.32,0,0,1,1443.21,436c2.68,2,5.31,4.08,7.92,6.19,1.38,1.1,2.73,2.22,4.09,3.35,1.13.95,2.3,1.88,3.39,2.88l4.71,4.35,13.44,12.41c1.78,1.64,3.47,3.37,5.19,5.06q4.08,4.05,8.06,8.21c5,5.2,9.75,10.59,14.31,16.15A176,176,0,0,1,1527,530.75a259.32,259.32,0,0,1,15,40.76,355.47,355.47,0,0,1,9.36,43.39,381.38,381.38,0,0,1,4.09,44.61c.11,2.92.2,5.82.16,8.74s-.07,6-.11,9l-.24,20.11c0,3.21-.22,6.42-.38,9.64-.48,10.22-.92,20.44-1.5,30.66q-.6,10.4-1.19,20.79c-.21,3.57-.5,7.12-.78,10.68L1550,787.87c-.11,1.27-.28,2.53-.42,3.79l-1.2,10.54c-.32,2.78-.64,5.55-.95,8.33-.21,1.8-.54,3.58-.84,5.36q-.9,5.33-1.81,10.65c-.27,1.59-.52,3.15-.91,4.71-.9,3.64-1.81,7.27-2.7,10.91-.25,1-.6,2-.91,3-.57,1.86-1.14,3.7-1.71,5.55-.83,2.7-1.77,5.37-2.7,8a97,97,0,0,1-3.69,9.32,4.72,4.72,0,0,1-1.69,1.69,4.77,4.77,0,0,1-2.38.64A4.32,4.32,0,0,1,1526.84,870.23Z"/><path d="M907.39,1034.9a3.5,3.5,0,0,1-2.09-5.12l1.2-2.67.52-1.27a26.66,26.66,0,0,0,1.46-5.26c.41-2.08.69-4.17,1-6.26.5-3.11,1-6.24,1.41-9.36q.66-5.38,1.31-10.78c.3-2.44.47-4.89.66-7.34.49-6.51,1.11-13,1.36-19.52q.88-23,1.66-46.05c0-.46,0-.93.05-1.39-1-2.34-2-4.67-3-7q-1.14-2.5-2.27-5c-.67-1.47-1.44-2.9-2.16-4.35-3.09-6.22-6.35-12.34-9.57-18.49-1.51-2.9-3-5.83-4.42-8.76-1.25-2.52-2.52-5-3.7-7.59-2.83-6.13-5.72-12.23-8.38-18.42q-2.89-6.71-5.78-13.42c-.91-2.12-1.87-4.23-2.72-6.38q-4.57-11.49-9.16-23c-.61-1.53-1.17-3.08-1.75-4.63-1.78-4.81-3.53-9.63-5.17-14.49a300.36,300.36,0,0,1-8.22-29,277.4,277.4,0,0,1-4.91-29.1c-1.22-9.92-2-19.89-2.4-29.87a378,378,0,0,1,2.27-60.64,244.79,244.79,0,0,1,5.16-29.1,240.27,240.27,0,0,1,8.88-28.49c1.66-4.34,3.46-8.64,5.31-12.91,1.05-2.46,2.09-4.94,3.28-7.35,1.7-3.45,3.42-6.91,5.13-10.36l6.3-12.73c.73-1.47,1.44-2.94,2.21-4.37q6.28-11.57,12.53-23.11c.89-1.64,1.72-3.34,2.69-4.92l5.44-8.9L909.17,485l2.43-4c.26-.42.51-.85.79-1.26l14.25-20.35c3.19-4.56,6.64-8.92,10.15-13.24,3.21-3.94,6.59-7.74,10.06-11.46a156.4,156.4,0,0,1,11.38-11.07A119.47,119.47,0,0,1,969,415.27a68,68,0,0,1,13-6.87,38.18,38.18,0,0,1,6.34-1.9,26.06,26.06,0,0,1,6.77-.44,24.78,24.78,0,0,1,6.57,1.23c.8.27,1.6.65,2.36,1,1.29.57,2.56,1.15,3.82,1.76a2,2,0,0,1,.7,2.69,2,2,0,0,1-2.69.7c-1.55-.74-3.12-1.44-4.7-2.14-.49-.19-1-.37-1.49-.53a16.83,16.83,0,0,0-2.72-.56,28.87,28.87,0,0,0-6.57-.06,41,41,0,0,0-8.11,2.38,74.4,74.4,0,0,0-7.62,3.84,78.85,78.85,0,0,0-7.83,5.34c-2.88,2.23-5.67,4.54-8.35,7s-5.45,5.26-8,8c-5.4,5.7-10.42,11.72-15.23,17.92l.2-.28c-1.34,1.74-2.71,3.46-4,5.27l-2.88,4.15q-4.23,6.08-8.45,12.17L917,480.46c-.39.56-.82,1.1-1.16,1.68q-2.34,3.86-4.66,7.71c-2.58,4.26-5.14,8.51-7.72,12.76q-1.37,2.28-2.75,4.55c-.36.6-.75,1.19-1.09,1.81q-5.49,10.26-11,20.52-2.22,4.14-4.43,8.28c-.35.65-.65,1.32-1,2l-2.9,5.94-7,14.32-2.1,4.31c-1.3,2.67-2.42,5.44-3.56,8.17a2.72,2.72,0,0,1,.11-.25c-2,4.84-4,9.71-5.73,14.65-1.89,5.25-3.52,10.58-5,15.93a226.63,226.63,0,0,0-6.45,31.26,369.56,369.56,0,0,0-3,49.43,386.44,386.44,0,0,0,3.29,48.79c.85,6.14,1.86,12.25,3.07,18.34,1.27,6.35,2.87,12.62,4.62,18.86s3.63,12.26,5.71,18.31c1,3,2.12,6,3.22,8.92,1,2.59,1.88,5.2,2.92,7.77q4.93,12.21,9.88,24.41,4.5,10.3,9,20.61c.94,2.14,2,4.24,3,6.35q2.67,5.64,5.33,11.29c.41.86.86,1.69,1.29,2.53l3.42,6.69c1.52,3,3.11,5.86,4.69,8.78l4.9,9c1.61,3,3.12,6,4.66,8.93l0,0c.27-5.72.51-11.46.83-17.19l1-18.7q0-4.32-.06-8.64,0-4.87-.08-9.77c0-1.55,0-3.1,0-4.65,0-1.75,0-3.51.15-5.25a3.47,3.47,0,0,1,1-2.32,3.27,3.27,0,0,1,4.63,0,3.44,3.44,0,0,1,1,2.32l.09,1.42c.32,5.56.55,11.12.73,16.69.1,3.13.24,6.27.29,9.4l.21,12.5c.09,5.88,0,11.75.1,17.63.14,9.63.05,19.27,1.17,28.85.08.48.16,1,.25,1.43a12.43,12.43,0,0,0,.33,1.37,5.66,5.66,0,0,1,.7,2.73,4.13,4.13,0,0,1-6.21,3.57,3.76,3.76,0,0,1-1-.86q-.6,18.35-1.27,36.67c-.09,2.5-.35,5-.53,7.51q-.5,6.66-1,13.33c-.2,2.87-.61,5.74-1,8.6-.37,3.26-.76,6.52-1.21,9.77q-.72,5.21-1.45,10.39c-.12.81-.24,1.62-.38,2.43a30.8,30.8,0,0,1-1.33,5.29c-.55,1.63-1.23,3.23-1.88,4.82-.12.28-.24.56-.35.84a3.53,3.53,0,0,1-3,1.73A3.58,3.58,0,0,1,907.39,1034.9Z"/><path d="M1515.54,1008.26a5.4,5.4,0,0,1-1-.82,4.32,4.32,0,0,1-1.09-1.87,4.47,4.47,0,0,1,0-2.24,4.09,4.09,0,0,1,.46-1.05c-.05-1.08-.14-2.17-.24-3.25-.18-2.07-.37-4.14-.59-6.21q-.6-5.82-1.34-11.63l.09.64c-.43-3-.84-6.05-1.26-9.08-.25-1.83-.49-3.66-.79-5.49q-1.63-9.88-3.28-19.78c-.2-1.25-.5-2.47-.76-3.7q-1.14-5.26-2.27-10.52-1.2-5.53-2.39-11.06c-.24-1.13-.49-2.25-.73-3.37-.07-.31-.12-.64-.21-.94q-2.61-9-5.2-17.94-1.35-4.65-2.71-9.32c-.3-1-.62-2-1-3.06l-5.38-14.52-.58-1.53-6.6-13.36c-1.08-2.17-2.14-4.36-3.21-6.54-.43-.87-.85-1.75-1.28-2.63-.76-1.52-1.59-3-2.33-4.54-.3-.61-.55-1.24-.8-1.87a21.63,21.63,0,0,1-.7-2.47.73.73,0,0,1,1.32-.56c1,1.51,2.12,3,3.15,4.51,1.11,1.67,2.06,3.43,3,5.2,1.83,3.44,3.46,7,5,10.53.64,1.44,1.3,2.87,1.88,4.34.42,1.1.85,2.19,1.28,3.29l7.71,19.7c.4,1,.73,2,1,3.07q1.47,4.75,2.93,9.49,2.7,8.73,5.39,17.46c.11.34.18.7.26,1.05.28,1.17.56,2.35.83,3.53q1.3,5.56,2.62,11.12,1.23,5.14,2.43,10.3c.28,1.18.58,2.37.81,3.56q1.92,9.84,3.81,19.67c.92,4.73,1.74,9.47,2.62,14.2q1.11,5.86,2.28,11.73c.39,2,.8,3.91,1.21,5.87.25,1.2.49,2.4.78,3.58a4.12,4.12,0,0,1,.83,3.82s0,0,0,0a4,4,0,0,1-.46,1.2,4.08,4.08,0,0,1-2.43,1.87,4.21,4.21,0,0,1-1.15.15A3.29,3.29,0,0,1,1515.54,1008.26Z"/><path d="M1188.68,1160.16c-4.67,0-9.32-.09-14-.19-3.73-.07-7.46-.14-11.19-.35-4-.22-7.9-.39-11.83-.74l-14.24-1.31-13.18-1.21c-3.09-.29-6.17-.63-9.27-.77l-16.67-.76-4.88-.22c-1,0-2.12.05-3.16.08l-17.07.45c-1.56,0-3.13.09-4.7.12-1,0-2.11.16-3.15.25l-17.06,1.32c-6.93.55-13.86,1.16-20.79,1.6-6,.39-12.08.45-18.13.32a170.21,170.21,0,0,1-18-1.32,177.24,177.24,0,0,1-35.42-8.31,158.33,158.33,0,0,1-16.35-6.75,83.6,83.6,0,0,1-14.4-8.83,44,44,0,0,1-5.86-5.3,35.39,35.39,0,0,1-4.85-7.08,29.17,29.17,0,0,1-2.73-7.35,49.14,49.14,0,0,1-1-8.64,53.3,53.3,0,0,1,.29-7.14q.31-3.57.7-7.12c.25-2.34.56-4.66.87-7s.64-4.72,1.05-7.07c.64-3.56,1.26-7.13,1.9-10.69.7-4,1.38-8,2.25-12,1.07-4.87,2.37-9.66,3.75-14.45a51.42,51.42,0,0,1,2.08-6.17,20.23,20.23,0,0,1,1.47-2.9,25.38,25.38,0,0,1,2.38-2.89,1.92,1.92,0,0,1,1.42-.58,2.18,2.18,0,0,1,1.41.58,6.35,6.35,0,0,1,1.61,1.66,2.08,2.08,0,0,1-.74,2.82,2.13,2.13,0,0,1-2.25-.1c-.16.18-.31.37-.48.57a18.63,18.63,0,0,0-1.24,2.39,93.21,93.21,0,0,0-2.81,9c-.92,3.23-1.69,6.49-2.4,9.77-.63,2.88-1.17,5.75-1.64,8.66-.57,3.4-1.13,6.79-1.69,10.19-.36,2.15-.73,4.3-1,6.45-.65,4.86-1.24,9.73-1.6,14.62-.19,2.62-.38,5.24-.45,7.86a50.28,50.28,0,0,0,.43,7.15,31,31,0,0,0,1.77,7,34.59,34.59,0,0,0,3.9,6.61,38.2,38.2,0,0,0,5.7,5.6A87.23,87.23,0,0,0,946,1138.44,173.8,173.8,0,0,0,988.77,1150a188.16,188.16,0,0,0,35.83,1c7.53-.49,15-1.32,22.55-2l17.12-1.64,4.17-.4c1.2-.12,2.42-.12,3.63-.17l17.12-.79,4.17-.19c1.25-.07,2.53,0,3.77.08l16.91.39c2.94.07,5.87.27,8.81.46l27.69,1.83c7.94.52,15.9.61,23.86.63q7.14,0,14.28-.06a5.55,5.55,0,0,1,0,11.09Z"/><path d="M1324.65,1180.5a1.86,1.86,0,0,1-1.72-1.31,1.82,1.82,0,0,1,1.25-2.2c2.8-1,5.66-1.78,8.52-2.62,1.52-.44,3-.89,4.57-1.32l15-4.21c1.55-.43,3.16-.74,4.74-1.1l9.59-2.24,6-1.42c1.3-.3,2.66-.44,4-.65l17.39-2.85c3.77-.61,7.61-.89,11.41-1.3,4.52-.49,9-1,13.55-1.46l15.74-1.44c9.23-.84,18.44-1.86,27.66-2.84,4.34-.47,8.68-1.1,13-1.66q6.19-.8,12.39-1.54c8.74-1,17.5-2,26.24-3l5.05-.75c1-.14,2-.33,2.95-.51,1.26-.21,2.52-.42,3.75-.74.07-.27.14-.55.2-.83.08-.84.13-1.7.2-2.55.12-1.62.29-3.22.4-4.84s.18-3,.22-4.55l.27-7.69c.12-3.46.22-6.92.22-10.38q0-7.59,0-15.18c0-1.7-.12-3.4-.2-5.09-.14-3.21-.34-6.42-.57-9.63-.43-5.85-1.07-11.7-1.83-17.53-1.08-7.76-2.33-15.5-3.82-23.2q-1.8-9.26-3.59-18.52c-1.73-8.88-3.69-17.71-5.57-26.57q-1.95-9.13-3.9-18.27a6.84,6.84,0,0,1,.66-5,6.52,6.52,0,0,1,8.93-2.34,6.42,6.42,0,0,1,3,3.9q4.13,19.88,8.22,39.74c.71,3.49,1.31,7,2,10.51,1,5.56,2.06,11.11,3.08,16.66.78,4.2,1.34,8.45,2,12.67,1,6.9,1.87,13.83,2.43,20.78.54,6.66.81,13.35.93,20,0,2.16,0,4.31-.11,6.48l-.27,9.89c-.05,1.54,0,3.1-.14,4.64-.37,4.87-.72,9.74-1.08,14.61-.15,2.08-.48,4.17-.76,6.23s-.62,4.06-1,6.08a14.83,14.83,0,0,1-.76,2.7,11.34,11.34,0,0,1-1.79,3.11,6,6,0,0,1-2.15,1.75,5.58,5.58,0,0,1-1.57.57,18,18,0,0,1-2.07.27l.35,0c-2.74.36-5.52.53-8.28.74-2.18.17-4.36.34-6.54.48l-15.24.94c-4.63.28-9.26.73-13.88,1.12-4.25.35-8.49.78-12.73,1.2-9.52.93-19,1.68-28.57,2.45-4,.33-8,.57-12.06.86s-8,.49-12,.85c-7.49.68-15,1.33-22.47,2.05l-14.27,2.17-7.22,1.1c-1.07.16-2.11.43-3.15.66l-17,3.86c-1.14.25-2.26.57-3.37.88l-9.29,2.56c-2,.55-4,1.08-5.94,1.65-2.84.82-5.69,1.59-8.51,2.47a1.72,1.72,0,0,1-1.47.81h-.1A4.91,4.91,0,0,1,1324.65,1180.5Z"/><path d="M1122.78,226.6c-1.46-1.19-1.85-3.11-2.51-4.78-.3-.76-.59-1.52-.9-2.28l-.15-.34a3.34,3.34,0,0,1-.94.81,3.25,3.25,0,0,1-2.58.34l-.27-.11a3.43,3.43,0,0,1-1,.89,3.88,3.88,0,0,1-1.76.53,4.36,4.36,0,0,1-1.79-.27,9.88,9.88,0,0,1-1.86-.87,3,3,0,0,1-.4,1.24,3.15,3.15,0,0,1-5.76-.76c-.24-.85-.51-1.69-.77-2.55-.17-.54-.32-1.1-.46-1.65a10.32,10.32,0,0,1-.33-1.91,6.81,6.81,0,0,1,.27-2.1,3.52,3.52,0,0,1,.91-1.56,3.42,3.42,0,0,1,2.5-1,13.11,13.11,0,0,1,1.63.25,5.25,5.25,0,0,1,2.06,1.29c.34.3.65.62,1,.94l.6.54a13.91,13.91,0,0,1,.37-2,3.43,3.43,0,0,1,4.18-2.37,8.47,8.47,0,0,1,1.26.5l.26.14,0-.07a3.72,3.72,0,0,1,1.56-.91l.94-.12a3.57,3.57,0,0,1,1.78.48,4.51,4.51,0,0,1,1.44.93,6.33,6.33,0,0,1,1.32,2.36,0,0,0,0,0,0,0,3,3,0,0,1,2.63-1.57,3.23,3.23,0,0,1,2.88,1.51,3.82,3.82,0,0,1,.46,1.2,7.13,7.13,0,0,1,.1,1.45c0,.72.09,1.47.14,2.2.07.94.12,1.9.18,2.85l.35-.36,2.23-2.31c.5-.52,1-1,1.52-1.53s1-.94,1.48-1.39,1-1,1.58-1.44a3.75,3.75,0,0,1,1.79-.92,2.18,2.18,0,0,1,1.24,0,3.07,3.07,0,0,1,1.22.71,2.67,2.67,0,0,1,.78,2,4.94,4.94,0,0,1-.78,2l-.49,1.21c-.23.59-.45,1.18-.65,1.77l.64-.71,1.74-2c.54-.6,1.08-1.21,1.63-1.81a19,19,0,0,1,2.32-2.07,1.18,1.18,0,0,1,1.39-.18,1.17,1.17,0,0,1,.52,1.29,7.65,7.65,0,0,1-.44,1.27c-.16.37-.43.72-.62,1.09l-.81,1.52-1.25,2.36c-.86,1.63-1.71,3.26-2.53,4.9a1,1,0,0,1-1.39.37,1.06,1.06,0,0,1-.37-1.4q.83-1.62,1.68-3.24c-.12.15-.24.29-.35.44l.23-.28-1.41,1.87c-.28.38-.52.8-.8,1.19a3.25,3.25,0,0,1-1,1,6.64,6.64,0,0,1-1.29.54,1.84,1.84,0,0,1-2.25-1.28,15.23,15.23,0,0,1-.32-1.79,6.72,6.72,0,0,1,.11-1.73s0-.05,0-.08l-.77.85c-1,1.05-2,2.1-2.87,3.2-.22.28-.44.57-.67.84a3.86,3.86,0,0,1-1.6,1,4.08,4.08,0,0,1-1.43.23,2.93,2.93,0,0,1-1.43-.4,2.88,2.88,0,0,1-1.93.74A3.09,3.09,0,0,1,1122.78,226.6Z"/><path d="M1180.78,236.31a1.25,1.25,0,0,1-.87-1.53,5.83,5.83,0,0,0,.15-.7,24.22,24.22,0,0,0,0-5.58c-.08-.6-.2-1.19-.33-1.77a1,1,0,0,1-.08-.14c-.6-1.06-1.16-2.14-1.71-3.23s-1-2-1.43-3c-.3-.71-.61-1.41-.92-2.11-.46-1.05-.79-2.14-1.15-3.23a2.14,2.14,0,0,1,3.91-1.64,11.38,11.38,0,0,1,.86,2c.45,1,.93,1.91,1.4,2.87.38.79.77,1.56,1.21,2.32.29.51.56,1,.86,1.54-.09-1-.19-2-.28-3-.15-1.74-.37-3.47-.53-5.2a3.24,3.24,0,0,1,3.24-3.25,6.8,6.8,0,0,1,1.29.19,4.1,4.1,0,0,1,2.18,1.72,10.91,10.91,0,0,1,1.2,2.7c.78,1.73,1.62,3.45,2.54,5.11.09-.56.16-1.14.24-1.7.15-1,.3-2,.46-3a3.71,3.71,0,0,1,.92-1.58,3.57,3.57,0,0,1,6,1.58c.21.82.4,1.63.54,2.46l.12-.52c.09-.38.17-.75.26-1.13.14-.58.26-1.16.43-1.72a18,18,0,0,1,.83-2,3.62,3.62,0,0,1,1.29-1.29,3.66,3.66,0,0,1,1.81-.49,3.55,3.55,0,0,1,3.09,1.78,15.42,15.42,0,0,1,1.24,3.07,22.26,22.26,0,0,1,.46,2.59c.68-1.63,1.39-3.25,2.19-4.82a3.63,3.63,0,0,1,2.22-1.71,3.75,3.75,0,0,1,3.62.95,9.13,9.13,0,0,1,1.14,1.41,6.43,6.43,0,0,1,.69,3,10.73,10.73,0,0,1-.09,1.78,3.7,3.7,0,0,1,2.07-1.45,3.9,3.9,0,0,1,2.88.37A4.46,4.46,0,0,1,1227,221a15.65,15.65,0,0,1,.11,3.06c0,.93,0,1.87,0,2.81,0,1.86,0,3.73,0,5.6a3.65,3.65,0,0,1-7.19.93c-.32.27-.64.52-.94.79a3.75,3.75,0,0,1-5.29,0,7.51,7.51,0,0,1-1.22-1.42,3.64,3.64,0,0,1-.52-1.47l-.77,1a3.46,3.46,0,0,1-2.58,1.07,3.69,3.69,0,0,1-3.14-1.81,8.39,8.39,0,0,1-.81-1.54l-.21.47a11.61,11.61,0,0,1-1.24,1.81,3.76,3.76,0,0,1-2.13,1.64,3.49,3.49,0,0,1-2.75-.36,8.85,8.85,0,0,1-1.3-1,5.41,5.41,0,0,1-1.31-2.12,8.24,8.24,0,0,1-.24-1,4.24,4.24,0,0,1-2.11.7,5.12,5.12,0,0,1-3.57-1.38,10.29,10.29,0,0,1-1.61-2.2,7.47,7.47,0,0,1-.27,1.11c-.17.53-.4,1-.59,1.56a2.92,2.92,0,0,1-1.23,1.61,2.78,2.78,0,0,1-2.07.27,7.28,7.28,0,0,1-1.23-.37q0,.9-.09,1.8c0,.55-.11,1.11-.2,1.67a3.75,3.75,0,0,1-.4,1.47,1.32,1.32,0,0,1-1.07.62A1,1,0,0,1,1180.78,236.31Z"/><path class="cls-16" d="M1157.41,375.1c-2.58-1.17-5.48-2.84-5.57-6.05a5.64,5.64,0,0,1,3.57-5.89,5.86,5.86,0,0,1,1.4-.35h0c1.84-.33,3.27.44,4.75,1.24,1.31.29,2.61.52,4,.73a26,26,0,0,0,3.75.22h0a3.43,3.43,0,0,1,2.33-1.34l.41,0a21.56,21.56,0,0,1,2.42-.25,47.66,47.66,0,0,0,5-.88c1.72-.46,3.44-1,5.13-1.54l2.74-.89a15.6,15.6,0,0,1,3.89-1,3.26,3.26,0,0,1,1.36.2l.21-.16a22.57,22.57,0,0,1,3.59-2c.61-.34,1.23-.69,1.87-1,.47-1,.92-1.95,1.44-2.9a28.15,28.15,0,0,1,2.46-3.75c.34-.42.7-.83,1.05-1.26a27.72,27.72,0,0,0,1.58-3.62,16.8,16.8,0,0,0,.38-2c0-.5-.12-1-.17-1.51s-.09-.81-.16-1.21a11.32,11.32,0,0,1-.09-2.92,7.21,7.21,0,0,1,3-4.88,7.36,7.36,0,0,1,11.16,3.3,7.55,7.55,0,0,1,.44,1.71,15.72,15.72,0,0,1,.16,2c0,1.11,0,2.23-.06,3.34a5.6,5.6,0,0,1-.25,1.27c0,.39-.06.78-.11,1.16s-.1.8-.14,1.19l.12,1.51c.16,1.85.3,3.68.33,5.53.13,6.65-1.7,13.67-6.64,18.35a41.61,41.61,0,0,1-3.17,2.77,31.56,31.56,0,0,1-4.2,2.61c-1.35.75-2.71,1.43-4.09,2.11a38.61,38.61,0,0,1-5,2.1,46.34,46.34,0,0,1-7.35,1.79c-1,.13-1.92.25-2.88.3s-2.09,0-3.12,0a10,10,0,0,1-2.27-.6,8,8,0,0,1-1,.36c-.65.19-1.3.34-2,.48a3.57,3.57,0,0,1-4-3.15c0-.05,0-.11,0-.16a13.3,13.3,0,0,1-4.42-1.92,3.85,3.85,0,0,1-.92-.84,27.09,27.09,0,0,1-6.17-.52,21.71,21.71,0,0,1-4.48-1.45Z"/><path d="M1209.27,337.4a44.2,44.2,0,0,1-1.42,4.59,39.89,39.89,0,0,1-2.15,4.7,50.28,50.28,0,0,1-5.47,8.28,40.33,40.33,0,0,1-15.08,11.72,38.82,38.82,0,0,1-8.93,2.42,59.37,59.37,0,0,1-9.51.73c-2.38,0-4.76,0-7.14-.19a52.16,52.16,0,0,1-7.46-1.07l-.47-.1q1.33,1.66,2.7,3.3L1157,375c1.62,2,3.34,3.84,5.14,5.65a34.56,34.56,0,0,0,3.69,3.14,43.21,43.21,0,0,0,3.9,2.52,30.71,30.71,0,0,0,6.46,2.62,34,34,0,0,0,7.45.83,33.32,33.32,0,0,0,7.42-1.21,45.88,45.88,0,0,0,9.64-4.14,46.88,46.88,0,0,0,8.82-6.79,36.73,36.73,0,0,0,5.27-6.88,28.5,28.5,0,0,0,2.33-5.83,25.4,25.4,0,0,0,.65-5.77,35.77,35.77,0,0,0-.31-3.58,30.17,30.17,0,0,0-.79-3.66c-.5-1.73-1-3.44-1.64-5.13s-1.36-3.51-2.06-5.25c-.52-1.32-1.06-2.64-1.61-4l-1.39-3.36C1209.79,335.31,1209.53,336.35,1209.27,337.4Zm-44.22,53.35a42.78,42.78,0,0,1-4.27-2.78,41.63,41.63,0,0,1-3.53-3.1c-1.35-1.28-2.68-2.57-3.94-3.93s-2.74-3.09-4.11-4.63c-1.66-1.89-3.32-3.79-4.91-5.74a3.56,3.56,0,0,1,.26-4.63,6.32,6.32,0,0,1-.92-.64,3.41,3.41,0,0,1-.7-.9c-.18-.32,0-.8.08-1.11a.76.76,0,0,1,1-.43,2.77,2.77,0,0,1,.49.15.75.75,0,0,1,.42,1,.78.78,0,0,1-.11.18,2.7,2.7,0,0,0,.39.27,12.22,12.22,0,0,0,1.16.54,3.58,3.58,0,0,1,3.51,1.28h0l1.12.31-.22-.06a62,62,0,0,0,15.78,1.43h-.25a68,68,0,0,0,7-.46,50.71,50.71,0,0,0,6.79-1.37h0a33.37,33.37,0,0,0,3.53-1.21,30.49,30.49,0,0,0,3.61-1.82,39.79,39.79,0,0,0,7.4-5.77,48.88,48.88,0,0,0,7.35-9.82l-.1.16a42.24,42.24,0,0,0,4-9.89c0,.13-.07.27-.1.42a47.64,47.64,0,0,0,1.21-6.69c.15-1.57.22-3.15.24-4.73-.22-.66-.42-1.32-.61-2a24.36,24.36,0,0,1-.71-2.89,11.47,11.47,0,0,1-.06-1.66c.06-.3.14-.61.22-.91s.24-.58.37-.87a2.26,2.26,0,0,1,4.18-.05,8.79,8.79,0,0,1,.56,1.94,10.58,10.58,0,0,1,0,2.25c0,.16,0,.32,0,.48,1.11,3.5,2.52,6.89,3.93,10.28,1.33,3.19,2.67,6.4,3.94,9.63a73.66,73.66,0,0,1,3.06,9.62,30.57,30.57,0,0,1,.68,9.91,29.07,29.07,0,0,1-1,4.79,26.74,26.74,0,0,1-1.79,4.65,36.41,36.41,0,0,1-5.65,8.22,49.18,49.18,0,0,1-15.86,11.58,46,46,0,0,1-9.22,3.08,33,33,0,0,1-9.77.64,31.67,31.67,0,0,1-9.77-2.35l-.47-.2A45.05,45.05,0,0,1,1165.05,390.75Z"/><path d="M1167.09,385.9a1.26,1.26,0,0,1-.35-1.47,2.6,2.6,0,0,1,1.13-1,16.15,16.15,0,0,1,2.61-1.09c.69-.23,1.38-.48,2.07-.69l4.29-1.2c1.4-.39,2.82-.77,4.18-1.3.68-.26,1.39-.49,2-.8l2.17-1,2.07-1.14,0,0c1.31-.8,2.65-1.56,3.91-2.43,1.43-1,2.79-2,4.18-3.09a62.35,62.35,0,0,1,8.53-4.93,20.81,20.81,0,0,0,3.43-2.7l2.36-2.16c1.65-1.48,3.34-2.91,5-4.35a2.57,2.57,0,0,1,3.11.1,2.52,2.52,0,0,1,.92,1.68,2.46,2.46,0,0,1-.55,1.91q-2.18,2.07-4.42,4c-1.15,1-2.28,2.08-3.45,3.09a23.76,23.76,0,0,1-3,2.35,27.93,27.93,0,0,1-3,1.57c-1.41.7-2.8,1.4-4.18,2.14-.86.48-1.68,1-2.49,1.56-1.09.72-2.17,1.42-3.31,2l.51-.27-1.5.81.35-.19c-2.3,1.25-4.66,2.4-7,3.51-.53.25-1.12.44-1.68.65a15,15,0,0,1-1.47.5c-1.25.39-2.51.71-3.78,1h0l-.11,0-.3.07.08,0c-1,.23-2,.4-3,.56s-2.22.42-3.34.64a23.93,23.93,0,0,0-4.29,1.33,1.19,1.19,0,0,1-.57.44,1.25,1.25,0,0,1-.95,0A1.69,1.69,0,0,1,1167.09,385.9Z"/><path d="M1209.48,376.75c-.64-1.75-1.16-3.52-1.77-5.27-.13-.37-.25-.74-.4-1.1s-.42-1-.62-1.51c-.29-.68-.65-1.34-1-2s-.78-1.47-1.21-2.18-1-1.71-1.59-2.55c-1.18-1.83-2.33-3.68-3.36-5.6v0a.67.67,0,0,1-.88.33.66.66,0,0,1-.33-.87c.11-.23.24-.45.33-.69a2.24,2.24,0,0,1,.1-.37.92.92,0,0,1,.53-.44.84.84,0,0,1,.79.14,3.35,3.35,0,0,1,.84.88c.45.61.85,1.25,1.29,1.86.89,1.22,1.79,2.42,2.71,3.62.72.95,1.45,1.9,2.13,2.87.37.54.77,1.07,1.12,1.63s.88,1.33,1.26,2,.66,1.19,1,1.79c.16.29.28.62.41.92s.26.55.37.83c.54,1.46,1,2.92,1.49,4.4a1.75,1.75,0,0,1,0,1.31,1.72,1.72,0,0,1-1,.92,1.75,1.75,0,0,1-1.33-.05A1.65,1.65,0,0,1,1209.48,376.75Z"/><path d="M1194.11,389c-.31-1.19-.63-2.38-1-3.55-.2-.6-.41-1.19-.61-1.79a27,27,0,0,0-1.79-4l.06.12c-.86-1.58-1.85-3.1-2.83-4.62-.71-1.09-1.43-2.17-2.1-3.28a16.88,16.88,0,0,1-2.57-6.14,1.09,1.09,0,0,1,1-1.2,1.11,1.11,0,0,1,1.21,1c0,.22.07.43.12.64a13.89,13.89,0,0,0,1.13,2.77,57,57,0,0,0,3.72,5.54c.73,1,1.44,2,2.17,3a37.57,37.57,0,0,1,5,10.12,1.87,1.87,0,0,1-2.51,2.39A1.85,1.85,0,0,1,1194.11,389Z"/><path d="M1172.33,390.28c-.91-2.75-1.68-5.56-2.47-8.35-.42-1.47-.87-2.93-1.32-4.39a26.16,26.16,0,0,0-1.42-3.52c-.4-.85-.86-1.67-1.3-2.5a6.3,6.3,0,0,1-.41-1,1.36,1.36,0,0,1,0-1,.87.87,0,0,1,1.14-.44,1.4,1.4,0,0,1,.65.73,4.14,4.14,0,0,1,.19.49.83.83,0,0,1,0,.49c.59,1,1.24,2,1.79,3.07a29.66,29.66,0,0,1,1.32,2.72c.45,1.05.89,2.08,1.32,3.13s.83,2.08,1.31,3.09c.25.53.47,1.08.75,1.59s.45.86.68,1.29c.47.85.95,1.69,1.44,2.53a2.32,2.32,0,0,1,.39,1.58,2.15,2.15,0,0,1-.86,1.42,2.23,2.23,0,0,1-2.19.2A1.91,1.91,0,0,1,1172.33,390.28Z"/></svg>