<svg id="Layer_1" data-name="Layer 1" xmlns="http://www.w3.org/2000/svg" xmlns:xlink="http://www.w3.org/1999/xlink" viewBox="0 0 1920 1080"><defs><style>.cls-1{fill:none;}.cls-2{clip-path:url(#clip-path);}.cls-3{fill:url(#linear-gradient);}.cls-4{opacity:0.8;}.cls-5{fill:#ff8f8f;}.cls-6{fill:#ffe7e7;}.cls-7{fill:#ffd6d6;}.cls-8{fill:#ffb6b6;}.cls-9{fill:#ffc4c4;}.cls-10{fill:#fcc;}.cls-11{fill:#ffdbdb;}.cls-12{fill:#ffabab;}.cls-13{fill:#ffb5b5;}</style><clipPath id="clip-path"><circle class="cls-1" cx="1438.89" cy="447.48" r="354.52"/></clipPath><linearGradient id="linear-gradient" x1="1438.98" y1="92.87" x2="1438.98" y2="657.69" gradientUnits="userSpaceOnUse"><stop offset="0" stop-color="red" stop-opacity="0.6"/><stop offset="0.11" stop-color="#f0f" stop-opacity="0.29"/><stop offset="1" stop-color="#f0f" stop-opacity="0"/></linearGradient></defs><g class="cls-2"><rect class="cls-3" x="1081.61" y="92.87" width="714.73" height="564.81"/></g><path d="M127.69,337.16a2.58,2.58,0,0,1-.79-1.92v-37a2.68,2.68,0,0,1,.79-2,2.52,2.52,0,0,1,1.91-.81,2.75,2.75,0,0,1,2.76,2.76v37a2.59,2.59,0,0,1-.8,1.92,2.73,2.73,0,0,1-2,.78A2.57,2.57,0,0,1,127.69,337.16Z"/><path d="M144.06,330.32v-18.6H139.8a1.13,1.13,0,0,1-1.13-1.14,1.23,1.23,0,0,1,.54-1l8.15-8a1.53,1.53,0,0,1,1-.54,1.06,1.06,0,0,1,.81.36,1.2,1.2,0,0,1,.33.84V307h6.78a2.27,2.27,0,0,1,2.35,2.34A2.31,2.31,0,0,1,158,311a2.22,2.22,0,0,1-1.68.69h-6.78v18.12q0,2.34,1.11,3a5.59,5.59,0,0,0,2.79.63,8.32,8.32,0,0,0,2.4-.36l.51-.12a3.34,3.34,0,0,1,.69-.06,2.11,2.11,0,0,1,1.5.63,2,2,0,0,1,.67,1.53,2.28,2.28,0,0,1-1.39,2.1,11.71,11.71,0,0,1-5,1.08Q144.06,338.24,144.06,330.32Z"/><path d="M164.16,335.54a2.29,2.29,0,0,1-1-2,2.41,2.41,0,0,1,.66-1.68,2.18,2.18,0,0,1,1.68-.72,2.64,2.64,0,0,1,1.08.24,24.25,24.25,0,0,0,3.84,1.32,17.85,17.85,0,0,0,4.32.48q6.66,0,6.66-4.26a2.27,2.27,0,0,0-1.53-2.1,31.33,31.33,0,0,0-5-1.62,45.27,45.27,0,0,1-5.85-1.74,10.29,10.29,0,0,1-4-2.73,6.94,6.94,0,0,1-1.65-4.83,8.65,8.65,0,0,1,3-6.84q3-2.64,8.67-2.64a25,25,0,0,1,8.7,1.5,2.25,2.25,0,0,1,1.29.9,2.41,2.41,0,0,1,.45,1.38,2.35,2.35,0,0,1-.69,1.68,2.27,2.27,0,0,1-1.71.72,3.37,3.37,0,0,1-.78-.12,23,23,0,0,0-6.84-1.08,9.37,9.37,0,0,0-5.07,1.17,3.49,3.49,0,0,0-1.83,3,2.77,2.77,0,0,0,1.68,2.64,24,24,0,0,0,5.22,1.62,50,50,0,0,1,5.76,1.77,9.52,9.52,0,0,1,3.81,2.73,7.41,7.41,0,0,1,1.59,5,7.93,7.93,0,0,1-3,6.36q-3,2.52-8.55,2.52A22.32,22.32,0,0,1,164.16,335.54Z"/><path d="M211.83,334.07q-4.11-4.17-4.11-11.73a19.56,19.56,0,0,1,1.56-7.86,13.36,13.36,0,0,1,4.8-5.82,13.79,13.79,0,0,1,8-2.22,14,14,0,0,1,7.68,2.07,13.39,13.39,0,0,1,4.92,5.52,17,17,0,0,1,1.68,7.53,2.62,2.62,0,0,1-2.76,2.7H213.24a9.87,9.87,0,0,0,3.12,6.54q2.64,2.34,7.38,2.34a18,18,0,0,0,4.41-.48,18.32,18.32,0,0,0,3.69-1.38,2.38,2.38,0,0,1,1.08-.24,2.41,2.41,0,0,1,1.68.66,2.18,2.18,0,0,1,.72,1.68,2.59,2.59,0,0,1-1.56,2.22,18.74,18.74,0,0,1-10.5,2.64Q215.94,338.24,211.83,334.07Zm19.11-14.25a9.61,9.61,0,0,0-1.53-4.92,8.26,8.26,0,0,0-3.33-2.91,9.15,9.15,0,0,0-8,0,8.06,8.06,0,0,0-3.3,2.91,9.79,9.79,0,0,0-1.5,4.92Z"/><path d="M248.25,351a2.59,2.59,0,0,1-.75-1.86,2.72,2.72,0,0,1,.18-1l3.9-10L240.3,310.64a3.07,3.07,0,0,1-.24-1.14,2.71,2.71,0,0,1,.78-1.95,2.56,2.56,0,0,1,1.92-.81,2.62,2.62,0,0,1,1.53.48,2.72,2.72,0,0,1,1,1.2l9.24,22.92,9.42-22.8a2.62,2.62,0,0,1,2.52-1.8,2.56,2.56,0,0,1,1.92.81,2.71,2.71,0,0,1,.78,1.95,2.88,2.88,0,0,1-.18,1L252.6,349.88a2.7,2.7,0,0,1-2.52,1.86A2.44,2.44,0,0,1,248.25,351Z"/><path d="M277.29,334.07q-4.11-4.17-4.11-11.73a19.56,19.56,0,0,1,1.56-7.86,13.36,13.36,0,0,1,4.8-5.82,13.79,13.79,0,0,1,8-2.22,14,14,0,0,1,7.68,2.07,13.39,13.39,0,0,1,4.92,5.52,17,17,0,0,1,1.68,7.53,2.62,2.62,0,0,1-2.76,2.7H278.7a9.87,9.87,0,0,0,3.12,6.54q2.64,2.34,7.38,2.34a18,18,0,0,0,4.41-.48,18.32,18.32,0,0,0,3.69-1.38,2.38,2.38,0,0,1,1.08-.24,2.41,2.41,0,0,1,1.68.66,2.18,2.18,0,0,1,.72,1.68,2.59,2.59,0,0,1-1.56,2.22,18.74,18.74,0,0,1-10.5,2.64Q281.4,338.24,277.29,334.07Zm19.11-14.25a9.61,9.61,0,0,0-1.53-4.92,8.26,8.26,0,0,0-3.33-2.91,9.15,9.15,0,0,0-8,0,8.06,8.06,0,0,0-3.3,2.91,9.79,9.79,0,0,0-1.5,4.92Z"/><path d="M308,335.54a2.29,2.29,0,0,1-1-2,2.41,2.41,0,0,1,.66-1.68,2.18,2.18,0,0,1,1.68-.72,2.64,2.64,0,0,1,1.08.24,24.25,24.25,0,0,0,3.84,1.32,17.85,17.85,0,0,0,4.32.48q6.66,0,6.66-4.26a2.27,2.27,0,0,0-1.53-2.1,31.33,31.33,0,0,0-5-1.62,45.27,45.27,0,0,1-5.85-1.74,10.29,10.29,0,0,1-4-2.73,6.94,6.94,0,0,1-1.65-4.83,8.65,8.65,0,0,1,3-6.84q3-2.64,8.67-2.64a25,25,0,0,1,8.7,1.5,2.25,2.25,0,0,1,1.29.9,2.41,2.41,0,0,1,.45,1.38,2.35,2.35,0,0,1-.69,1.68,2.27,2.27,0,0,1-1.71.72,3.37,3.37,0,0,1-.78-.12,23,23,0,0,0-6.84-1.08,9.37,9.37,0,0,0-5.07,1.17,3.49,3.49,0,0,0-1.83,3,2.77,2.77,0,0,0,1.68,2.64,24,24,0,0,0,5.22,1.62,50,50,0,0,1,5.76,1.77,9.52,9.52,0,0,1,3.81,2.73,7.41,7.41,0,0,1,1.59,5,7.93,7.93,0,0,1-3,6.36q-3,2.52-8.55,2.52A22.32,22.32,0,0,1,308,335.54Z"/><path d="M356.31,337.16a8.52,8.52,0,0,1-3.57-3.15,8.68,8.68,0,0,1-1.32-4.77,8.41,8.41,0,0,1,3.51-7.08q3.51-2.64,10.29-2.64h7.26V319q0-4-2-5.7t-6.09-1.74a20.45,20.45,0,0,0-4.05.36,34,34,0,0,0-3.93,1.08,3.37,3.37,0,0,1-.78.12,2.13,2.13,0,0,1-1.56-.66,2.2,2.2,0,0,1-.66-1.62A2.31,2.31,0,0,1,355,308.6a26.39,26.39,0,0,1,10.38-2.16,13.55,13.55,0,0,1,7,1.68,10.56,10.56,0,0,1,4.2,4.35,12.65,12.65,0,0,1,1.35,5.79v17a2.56,2.56,0,0,1-.81,1.92,2.71,2.71,0,0,1-1.95.78,2.66,2.66,0,0,1-2.7-2.7v-1.56a15.07,15.07,0,0,1-11.28,4.56A11.15,11.15,0,0,1,356.31,337.16Zm12-5a14.18,14.18,0,0,0,4.14-3.21v-5h-6.54q-9.06,0-9.06,4.74a4.45,4.45,0,0,0,1.47,3.48q1.47,1.32,4.89,1.32A10.85,10.85,0,0,0,368.34,332.15Z"/><path d="M387.9,337.16a2.61,2.61,0,0,1-.78-1.92V309.5a2.71,2.71,0,0,1,.78-1.95,2.56,2.56,0,0,1,1.92-.81,2.77,2.77,0,0,1,2.76,2.76v2.58q4.2-5.64,9.42-5.64h.3a2.51,2.51,0,0,1,1.89.78,2.66,2.66,0,0,1,.75,1.92,2.42,2.42,0,0,1-.78,1.86,2.81,2.81,0,0,1-2,.72h-.3a10.23,10.23,0,0,0-5.28,1.41,12.16,12.16,0,0,0-4,3.87v18.24a2.56,2.56,0,0,1-.81,1.92,2.71,2.71,0,0,1-1.95.78A2.61,2.61,0,0,1,387.9,337.16Z"/><path d="M411.45,334.07q-4.11-4.17-4.11-11.73a19.56,19.56,0,0,1,1.56-7.86,13.36,13.36,0,0,1,4.8-5.82,13.79,13.79,0,0,1,8-2.22,14,14,0,0,1,7.68,2.07,13.39,13.39,0,0,1,4.92,5.52,17,17,0,0,1,1.68,7.53,2.62,2.62,0,0,1-2.76,2.7H412.86A9.87,9.87,0,0,0,416,330.8q2.64,2.34,7.38,2.34a18,18,0,0,0,4.41-.48,18.32,18.32,0,0,0,3.69-1.38,2.38,2.38,0,0,1,1.08-.24,2.41,2.41,0,0,1,1.68.66,2.18,2.18,0,0,1,.72,1.68,2.59,2.59,0,0,1-1.56,2.22,18.74,18.74,0,0,1-10.5,2.64Q415.56,338.24,411.45,334.07Zm19.11-14.25A9.61,9.61,0,0,0,429,314.9,8.26,8.26,0,0,0,425.7,312a9.15,9.15,0,0,0-8,0,8.06,8.06,0,0,0-3.3,2.91,9.79,9.79,0,0,0-1.5,4.92Z"/><path d="M457.74,335.54a2.29,2.29,0,0,1-1-2,2.41,2.41,0,0,1,.66-1.68,2.18,2.18,0,0,1,1.68-.72,2.64,2.64,0,0,1,1.08.24,24.25,24.25,0,0,0,3.84,1.32,17.85,17.85,0,0,0,4.32.48q6.66,0,6.66-4.26a2.27,2.27,0,0,0-1.53-2.1,31.33,31.33,0,0,0-5-1.62,45.27,45.27,0,0,1-5.85-1.74,10.29,10.29,0,0,1-4-2.73,6.94,6.94,0,0,1-1.65-4.83,8.65,8.65,0,0,1,3-6.84q3-2.64,8.67-2.64a25,25,0,0,1,8.7,1.5,2.25,2.25,0,0,1,1.29.9,2.41,2.41,0,0,1,.45,1.38,2.35,2.35,0,0,1-.69,1.68,2.27,2.27,0,0,1-1.71.72,3.37,3.37,0,0,1-.78-.12,23,23,0,0,0-6.84-1.08,9.37,9.37,0,0,0-5.07,1.17,3.49,3.49,0,0,0-1.83,3,2.77,2.77,0,0,0,1.68,2.64,24,24,0,0,0,5.22,1.62,50,50,0,0,1,5.76,1.77,9.52,9.52,0,0,1,3.81,2.73,7.41,7.41,0,0,1,1.59,5,7.93,7.93,0,0,1-3,6.36q-3,2.52-8.55,2.52A22.32,22.32,0,0,1,457.74,335.54Z"/><path d="M493,336.26a13.46,13.46,0,0,1-5.37-5.61,19.21,19.21,0,0,1,0-16.62,13.46,13.46,0,0,1,5.37-5.61,17.44,17.44,0,0,1,16.14,0,13.65,13.65,0,0,1,5.4,5.61,18.94,18.94,0,0,1,0,16.62,13.65,13.65,0,0,1-5.4,5.61,17.44,17.44,0,0,1-16.14,0Zm12.81-4.14a9.16,9.16,0,0,0,3.72-3.6,12,12,0,0,0,1.47-6.24,11.88,11.88,0,0,0-1.47-6.18,9,9,0,0,0-3.72-3.57,10.52,10.52,0,0,0-4.71-1.11,10.64,10.64,0,0,0-4.77,1.11,8.78,8.78,0,0,0-3.69,3.57,12.08,12.08,0,0,0-1.44,6.18,12.21,12.21,0,0,0,1.44,6.24,9,9,0,0,0,3.69,3.6,10.41,10.41,0,0,0,4.77,1.14A10.29,10.29,0,0,0,505.77,332.12Z"/><path d="M540.42,350.93a2.71,2.71,0,0,1-.78-1.95V309.44a2.66,2.66,0,0,1,2.7-2.7,2.71,2.71,0,0,1,1.95.78,2.56,2.56,0,0,1,.81,1.92V311a13.79,13.79,0,0,1,10.26-4.56,14.07,14.07,0,0,1,7,1.89,14.34,14.34,0,0,1,5.4,5.52,18.45,18.45,0,0,1,0,17,14.34,14.34,0,0,1-5.4,5.52,14.07,14.07,0,0,1-7,1.89,13.79,13.79,0,0,1-10.26-4.56V349a2.67,2.67,0,0,1-2.76,2.76A2.56,2.56,0,0,1,540.42,350.93Zm21.3-20.61q2.7-2.82,2.7-8t-2.7-8a9.43,9.43,0,0,0-7.14-2.82,11.33,11.33,0,0,0-5.19,1.23A14.82,14.82,0,0,0,545.1,316v12.6a14.82,14.82,0,0,0,4.29,3.27,11.33,11.33,0,0,0,5.19,1.23A9.43,9.43,0,0,0,561.72,330.32Z"/><path d="M582.9,336.26a13.46,13.46,0,0,1-5.37-5.61,19.21,19.21,0,0,1,0-16.62,13.46,13.46,0,0,1,5.37-5.61,17.44,17.44,0,0,1,16.14,0,13.65,13.65,0,0,1,5.4,5.61,18.94,18.94,0,0,1,0,16.62,13.65,13.65,0,0,1-5.4,5.61,17.44,17.44,0,0,1-16.14,0Zm12.81-4.14a9.16,9.16,0,0,0,3.72-3.6,12,12,0,0,0,1.47-6.24,11.88,11.88,0,0,0-1.47-6.18,9,9,0,0,0-3.72-3.57,10.52,10.52,0,0,0-4.71-1.11,10.64,10.64,0,0,0-4.77,1.11,8.78,8.78,0,0,0-3.69,3.57,12.08,12.08,0,0,0-1.44,6.18,12.21,12.21,0,0,0,1.44,6.24,9,9,0,0,0,3.69,3.6,10.41,10.41,0,0,0,4.77,1.14A10.29,10.29,0,0,0,595.71,332.12Z"/><path d="M620.52,337.22a3.66,3.66,0,0,1-1.32-1.8l-8.52-25a3.23,3.23,0,0,1-.18-1,2.66,2.66,0,0,1,2.7-2.7,2.74,2.74,0,0,1,1.53.45,2.21,2.21,0,0,1,.93,1.17l7,23.1,7-22.56a3.08,3.08,0,0,1,5.88,0l7,22.56,7-23.1a2.21,2.21,0,0,1,.93-1.17,2.74,2.74,0,0,1,1.53-.45,2.66,2.66,0,0,1,2.7,2.7,3.23,3.23,0,0,1-.18,1l-8.52,25a3.66,3.66,0,0,1-1.32,1.8,3.6,3.6,0,0,1-4.32,0,4,4,0,0,1-1.38-1.86l-6.36-19.86-6.36,19.86a4,4,0,0,1-1.38,1.86,3.6,3.6,0,0,1-4.32,0Z"/><path d="M662.91,334.07q-4.11-4.17-4.11-11.73a19.56,19.56,0,0,1,1.56-7.86,13.36,13.36,0,0,1,4.8-5.82,13.79,13.79,0,0,1,8-2.22,14,14,0,0,1,7.68,2.07,13.39,13.39,0,0,1,4.92,5.52,17,17,0,0,1,1.68,7.53,2.62,2.62,0,0,1-2.76,2.7H664.32a9.87,9.87,0,0,0,3.12,6.54q2.64,2.34,7.38,2.34a18,18,0,0,0,4.41-.48,18.32,18.32,0,0,0,3.69-1.38A2.38,2.38,0,0,1,684,331a2.41,2.41,0,0,1,1.68.66,2.18,2.18,0,0,1,.72,1.68,2.59,2.59,0,0,1-1.56,2.22,18.74,18.74,0,0,1-10.5,2.64Q667,338.24,662.91,334.07ZM682,319.82a9.61,9.61,0,0,0-1.53-4.92,8.26,8.26,0,0,0-3.33-2.91,9.15,9.15,0,0,0-8,0,8.06,8.06,0,0,0-3.3,2.91,9.79,9.79,0,0,0-1.5,4.92Z"/><path d="M695.4,337.16a2.61,2.61,0,0,1-.78-1.92V309.5a2.71,2.71,0,0,1,.78-1.95,2.56,2.56,0,0,1,1.92-.81,2.77,2.77,0,0,1,2.76,2.76v2.58q4.2-5.64,9.42-5.64h.3a2.51,2.51,0,0,1,1.89.78,2.66,2.66,0,0,1,.75,1.92,2.42,2.42,0,0,1-.78,1.86,2.81,2.81,0,0,1-2,.72h-.3a10.23,10.23,0,0,0-5.28,1.41,12.16,12.16,0,0,0-4,3.87v18.24a2.56,2.56,0,0,1-.81,1.92,2.71,2.71,0,0,1-1.95.78A2.61,2.61,0,0,1,695.4,337.16Z"/><path d="M720.66,337.16a2.61,2.61,0,0,1-.78-1.92V311.72h-3.54a2.36,2.36,0,0,1-2.34-2.34,2.22,2.22,0,0,1,.69-1.68,2.3,2.3,0,0,1,1.65-.66h3.54v-3.48a12,12,0,0,1,1.29-5.91,8,8,0,0,1,3.36-3.36,9.49,9.49,0,0,1,4.35-1.05,11.51,11.51,0,0,1,5.22,1.2,2.59,2.59,0,0,1,1,.87,2.14,2.14,0,0,1,.39,1.23,2.23,2.23,0,0,1-.66,1.59,2.09,2.09,0,0,1-1.56.69,5.69,5.69,0,0,1-1.38-.18q-1.44-.18-1.62-.18a5.26,5.26,0,0,0-3.69,1.14q-1.23,1.14-1.23,4.14V307h7.5a2.26,2.26,0,0,1,2.34,2.34,2.3,2.3,0,0,1-.66,1.65,2.22,2.22,0,0,1-1.68.69h-7.5v23.52a2.56,2.56,0,0,1-.81,1.92,2.71,2.71,0,0,1-1.95.78A2.61,2.61,0,0,1,720.66,337.16Z"/><path d="M745.23,336.68a10.14,10.14,0,0,1-3.72-4.26,13.6,13.6,0,0,1-1.29-5.94v-17a2.56,2.56,0,0,1,.81-1.92,2.71,2.71,0,0,1,2-.78,2.66,2.66,0,0,1,2.7,2.7v16.44q0,7.32,6.6,7.32a9.55,9.55,0,0,0,5.37-1.56,19.44,19.44,0,0,0,4.47-4.2v-18a2.56,2.56,0,0,1,.81-1.92,2.71,2.71,0,0,1,2-.78,2.66,2.66,0,0,1,2.7,2.7v25.74a2.71,2.71,0,0,1-.78,1.95,2.56,2.56,0,0,1-1.92.81,2.77,2.77,0,0,1-2.76-2.76v-2.46a19.94,19.94,0,0,1-4.92,4,12.42,12.42,0,0,1-6.24,1.5A10.37,10.37,0,0,1,745.23,336.68Z"/><path d="M777.84,337.16a2.61,2.61,0,0,1-.78-1.92V296.3a2.71,2.71,0,0,1,.78-1.95,2.56,2.56,0,0,1,1.92-.81,2.67,2.67,0,0,1,2.76,2.76v38.94a2.56,2.56,0,0,1-.81,1.92,2.71,2.71,0,0,1-2,.78A2.61,2.61,0,0,1,777.84,337.16Z"/><path d="M126.25,371.9a3,3,0,0,1-.91-2.16v-.24a3,3,0,0,1,.91-2.16,2.91,2.91,0,0,1,2.15-.9h.37a2.92,2.92,0,0,1,2.15.9,3,3,0,0,1,.91,2.16v.24a3,3,0,0,1-.91,2.16,2.92,2.92,0,0,1-2.15.9h-.37A2.91,2.91,0,0,1,126.25,371.9Zm.35,37.26a2.6,2.6,0,0,1-.77-1.92V381.5a2.7,2.7,0,0,1,.77-1.95,2.56,2.56,0,0,1,1.92-.81,2.68,2.68,0,0,1,2.77,2.76v25.74a2.56,2.56,0,0,1-.81,1.92,2.73,2.73,0,0,1-2,.78A2.61,2.61,0,0,1,126.6,409.16Z"/><path d="M142.56,402.32v-18.6H138.3a1.13,1.13,0,0,1-1.14-1.14,1.25,1.25,0,0,1,.54-1l8.16-8a1.51,1.51,0,0,1,1-.54,1.06,1.06,0,0,1,.81.36,1.2,1.2,0,0,1,.33.84V379h6.78a2.26,2.26,0,0,1,2.34,2.34,2.3,2.3,0,0,1-.66,1.65,2.22,2.22,0,0,1-1.68.69H148v18.12q0,2.34,1.11,3a5.59,5.59,0,0,0,2.79.63,8.32,8.32,0,0,0,2.4-.36l.51-.12a3.27,3.27,0,0,1,.69-.06,2.11,2.11,0,0,1,1.5.63,2,2,0,0,1,.66,1.53,2.27,2.27,0,0,1-1.38,2.1,11.74,11.74,0,0,1-5,1.08Q142.56,410.24,142.56,402.32Z"/><path d="M185.46,408.32a14.78,14.78,0,0,1-5.85-5.52,17.44,17.44,0,0,1,0-16.92,14.78,14.78,0,0,1,5.85-5.52,16.92,16.92,0,0,1,8-1.92,16.63,16.63,0,0,1,5.49.81,20.74,20.74,0,0,1,4.29,2.07,2.39,2.39,0,0,1,.51,3.75,2.11,2.11,0,0,1-1.59.75,2.74,2.74,0,0,1-1.32-.36,22.85,22.85,0,0,0-3.39-1.47,11.7,11.7,0,0,0-3.51-.45,10.88,10.88,0,0,0-8.1,3,11.9,11.9,0,0,0,0,15.66,10.88,10.88,0,0,0,8.1,3,11.7,11.7,0,0,0,3.51-.45,22.85,22.85,0,0,0,3.39-1.47,2.74,2.74,0,0,1,1.32-.36,2.11,2.11,0,0,1,1.59.75,2.39,2.39,0,0,1-.51,3.75,20.74,20.74,0,0,1-4.29,2.07,16.63,16.63,0,0,1-5.49.81A16.92,16.92,0,0,1,185.46,408.32Z"/><path d="M214.17,409.16A8.52,8.52,0,0,1,210.6,406a8.68,8.68,0,0,1-1.32-4.77,8.41,8.41,0,0,1,3.51-7.08q3.51-2.64,10.29-2.64h7.26V391q0-4-2-5.7t-6.09-1.74a20.45,20.45,0,0,0-4.05.36,34,34,0,0,0-3.93,1.08,3.37,3.37,0,0,1-.78.12,2.13,2.13,0,0,1-1.56-.66,2.2,2.2,0,0,1-.66-1.62,2.31,2.31,0,0,1,1.56-2.28,26.39,26.39,0,0,1,10.38-2.16,13.55,13.55,0,0,1,7,1.68,10.56,10.56,0,0,1,4.2,4.35,12.65,12.65,0,0,1,1.35,5.79v17a2.56,2.56,0,0,1-.81,1.92,2.71,2.71,0,0,1-2,.78,2.66,2.66,0,0,1-2.7-2.7v-1.56a15.07,15.07,0,0,1-11.28,4.56A11.15,11.15,0,0,1,214.17,409.16Zm12-5a14.18,14.18,0,0,0,4.14-3.21v-5H223.8q-9.06,0-9.06,4.74a4.45,4.45,0,0,0,1.47,3.48q1.47,1.32,4.89,1.32A10.85,10.85,0,0,0,226.2,404.15Z"/><path d="M245.76,409.16a2.61,2.61,0,0,1-.78-1.92V381.5a2.71,2.71,0,0,1,.78-1.95,2.56,2.56,0,0,1,1.92-.81,2.77,2.77,0,0,1,2.76,2.76V384a19.94,19.94,0,0,1,4.92-4,12.42,12.42,0,0,1,6.24-1.5,10.37,10.37,0,0,1,5.73,1.56,10.14,10.14,0,0,1,3.72,4.26,13.6,13.6,0,0,1,1.29,5.94v17a2.56,2.56,0,0,1-.81,1.92,2.71,2.71,0,0,1-1.95.78,2.66,2.66,0,0,1-2.7-2.7V390.8q0-7.32-6.6-7.32a9.55,9.55,0,0,0-5.37,1.56,19.44,19.44,0,0,0-4.47,4.2v18a2.56,2.56,0,0,1-.81,1.92,2.71,2.71,0,0,1-1.95.78A2.61,2.61,0,0,1,245.76,409.16Z"/><path d="M296.1,407.54a2.29,2.29,0,0,1-1-2,2.41,2.41,0,0,1,.66-1.68,2.18,2.18,0,0,1,1.68-.72,2.64,2.64,0,0,1,1.08.24,24.25,24.25,0,0,0,3.84,1.32,17.85,17.85,0,0,0,4.32.48q6.66,0,6.66-4.26a2.27,2.27,0,0,0-1.53-2.1,31.33,31.33,0,0,0-5-1.62,45.27,45.27,0,0,1-5.85-1.74,10.29,10.29,0,0,1-4-2.73,6.94,6.94,0,0,1-1.65-4.83,8.65,8.65,0,0,1,3-6.84q3-2.64,8.67-2.64a25,25,0,0,1,8.7,1.5,2.25,2.25,0,0,1,1.29.9,2.41,2.41,0,0,1,.45,1.38,2.35,2.35,0,0,1-.69,1.68,2.27,2.27,0,0,1-1.71.72,3.37,3.37,0,0,1-.78-.12,23,23,0,0,0-6.84-1.08,9.37,9.37,0,0,0-5.07,1.17,3.49,3.49,0,0,0-1.83,3,2.77,2.77,0,0,0,1.68,2.64,24,24,0,0,0,5.22,1.62,50,50,0,0,1,5.76,1.77,9.52,9.52,0,0,1,3.81,2.73,7.41,7.41,0,0,1,1.59,5,7.93,7.93,0,0,1-3,6.36q-3,2.52-8.55,2.52A22.32,22.32,0,0,1,296.1,407.54Z"/><path d="M328.17,406.07q-4.11-4.17-4.11-11.73a19.56,19.56,0,0,1,1.56-7.86,13.36,13.36,0,0,1,4.8-5.82,13.79,13.79,0,0,1,8-2.22,14,14,0,0,1,7.68,2.07A13.39,13.39,0,0,1,351,386a17,17,0,0,1,1.68,7.53,2.62,2.62,0,0,1-2.76,2.7H329.58a9.87,9.87,0,0,0,3.12,6.54q2.64,2.34,7.38,2.34a18,18,0,0,0,4.41-.48,18.32,18.32,0,0,0,3.69-1.38,2.38,2.38,0,0,1,1.08-.24,2.41,2.41,0,0,1,1.68.66,2.18,2.18,0,0,1,.72,1.68,2.59,2.59,0,0,1-1.56,2.22,18.74,18.74,0,0,1-10.5,2.64Q332.28,410.24,328.17,406.07Zm19.11-14.25a9.61,9.61,0,0,0-1.53-4.92,8.26,8.26,0,0,0-3.33-2.91,9.15,9.15,0,0,0-8,0,8.06,8.06,0,0,0-3.3,2.91,9.79,9.79,0,0,0-1.5,4.92Z"/><path d="M362.13,406.07Q358,401.9,358,394.34a19.56,19.56,0,0,1,1.56-7.86,13.36,13.36,0,0,1,4.8-5.82,13.79,13.79,0,0,1,8-2.22,14,14,0,0,1,7.68,2.07A13.39,13.39,0,0,1,385,386a17,17,0,0,1,1.68,7.53,2.62,2.62,0,0,1-2.76,2.7H363.54a9.87,9.87,0,0,0,3.12,6.54q2.64,2.34,7.38,2.34a18,18,0,0,0,4.41-.48,18.32,18.32,0,0,0,3.69-1.38,2.38,2.38,0,0,1,1.08-.24,2.41,2.41,0,0,1,1.68.66,2.18,2.18,0,0,1,.72,1.68,2.59,2.59,0,0,1-1.56,2.22,18.74,18.74,0,0,1-10.5,2.64Q366.24,410.24,362.13,406.07Zm19.11-14.25a9.61,9.61,0,0,0-1.53-4.92,8.26,8.26,0,0,0-3.33-2.91,9.15,9.15,0,0,0-8,0,8.06,8.06,0,0,0-3.3,2.91,9.79,9.79,0,0,0-1.5,4.92Z"/><path d="M409.86,371.9a3,3,0,0,1-.9-2.16v-.24a3.07,3.07,0,0,1,3.06-3.06h.36a3.07,3.07,0,0,1,3.06,3.06v.24a3.07,3.07,0,0,1-3.06,3.06H412A3,3,0,0,1,409.86,371.9Zm.36,37.26a2.61,2.61,0,0,1-.78-1.92V381.5a2.71,2.71,0,0,1,.78-1.95,2.56,2.56,0,0,1,1.92-.81,2.67,2.67,0,0,1,2.76,2.76v25.74a2.56,2.56,0,0,1-.81,1.92,2.71,2.71,0,0,1-1.95.78A2.61,2.61,0,0,1,410.22,409.16Z"/><path d="M425.16,409.16a2.61,2.61,0,0,1-.78-1.92V381.5a2.71,2.71,0,0,1,.78-1.95,2.56,2.56,0,0,1,1.92-.81,2.77,2.77,0,0,1,2.76,2.76V384a19.94,19.94,0,0,1,4.92-4,12.42,12.42,0,0,1,6.24-1.5,10.37,10.37,0,0,1,5.73,1.56,10.14,10.14,0,0,1,3.72,4.26,13.6,13.6,0,0,1,1.29,5.94v17a2.56,2.56,0,0,1-.81,1.92,2.71,2.71,0,0,1-1.95.78,2.66,2.66,0,0,1-2.7-2.7V390.8q0-7.32-6.6-7.32a9.55,9.55,0,0,0-5.37,1.56,19.44,19.44,0,0,0-4.47,4.2v18a2.56,2.56,0,0,1-.81,1.92,2.71,2.71,0,0,1-1.95.78A2.61,2.61,0,0,1,425.16,409.16Z"/><path d="M478.32,402.32v-18.6h-4.26a1.13,1.13,0,0,1-1.14-1.14,1.25,1.25,0,0,1,.54-1l8.16-8a1.51,1.51,0,0,1,1-.54,1.06,1.06,0,0,1,.81.36,1.2,1.2,0,0,1,.33.84V379h6.78a2.26,2.26,0,0,1,2.34,2.34,2.3,2.3,0,0,1-.66,1.65,2.22,2.22,0,0,1-1.68.69h-6.78v18.12q0,2.34,1.11,3a5.59,5.59,0,0,0,2.79.63,8.32,8.32,0,0,0,2.4-.36l.51-.12a3.27,3.27,0,0,1,.69-.06,2.11,2.11,0,0,1,1.5.63,2,2,0,0,1,.66,1.53,2.27,2.27,0,0,1-1.38,2.1,11.74,11.74,0,0,1-5,1.08Q478.32,410.24,478.32,402.32Z"/><path d="M500.22,409.16a2.61,2.61,0,0,1-.78-1.92V368.3a2.71,2.71,0,0,1,.78-1.95,2.56,2.56,0,0,1,1.92-.81,2.77,2.77,0,0,1,2.76,2.76V384a19.94,19.94,0,0,1,4.92-4,12.42,12.42,0,0,1,6.24-1.5,10.37,10.37,0,0,1,5.73,1.56,10.14,10.14,0,0,1,3.72,4.26,13.6,13.6,0,0,1,1.29,5.94v17a2.56,2.56,0,0,1-.81,1.92,2.71,2.71,0,0,1-2,.78,2.66,2.66,0,0,1-2.7-2.7V390.8q0-7.32-6.6-7.32a9.55,9.55,0,0,0-5.37,1.56,19.44,19.44,0,0,0-4.47,4.2v18a2.56,2.56,0,0,1-.81,1.92,2.71,2.71,0,0,1-1.95.78A2.61,2.61,0,0,1,500.22,409.16Z"/><path d="M538.23,406.07q-4.11-4.17-4.11-11.73a19.56,19.56,0,0,1,1.56-7.86,13.36,13.36,0,0,1,4.8-5.82,13.79,13.79,0,0,1,8-2.22,14,14,0,0,1,7.68,2.07,13.39,13.39,0,0,1,4.92,5.52,17,17,0,0,1,1.68,7.53,2.62,2.62,0,0,1-2.76,2.7H539.64a9.87,9.87,0,0,0,3.12,6.54q2.64,2.34,7.38,2.34a18,18,0,0,0,4.41-.48,18.32,18.32,0,0,0,3.69-1.38,2.38,2.38,0,0,1,1.08-.24,2.41,2.41,0,0,1,1.68.66,2.18,2.18,0,0,1,.72,1.68,2.59,2.59,0,0,1-1.56,2.22,18.74,18.74,0,0,1-10.5,2.64Q542.34,410.24,538.23,406.07Zm19.11-14.25a9.61,9.61,0,0,0-1.53-4.92,8.26,8.26,0,0,0-3.33-2.91,9.15,9.15,0,0,0-8,0,8.06,8.06,0,0,0-3.3,2.91,9.79,9.79,0,0,0-1.5,4.92Z"/><path d="M591.15,408.35a14.34,14.34,0,0,1-5.4-5.52,18.45,18.45,0,0,1,0-17,14.34,14.34,0,0,1,5.4-5.52,14.07,14.07,0,0,1,7.05-1.89A13.79,13.79,0,0,1,608.46,383V368.3a2.63,2.63,0,0,1,.81-2,2.71,2.71,0,0,1,2-.78,2.56,2.56,0,0,1,1.92.81,2.71,2.71,0,0,1,.78,1.95v38.94a2.66,2.66,0,0,1-2.7,2.7,2.71,2.71,0,0,1-2-.78,2.56,2.56,0,0,1-.81-1.92v-1.56a13.79,13.79,0,0,1-10.26,4.56A14.07,14.07,0,0,1,591.15,408.35Zm13-4.44a14.82,14.82,0,0,0,4.29-3.27V388a14.82,14.82,0,0,0-4.29-3.27,11.33,11.33,0,0,0-5.19-1.23,9.43,9.43,0,0,0-7.14,2.82q-2.7,2.82-2.7,8t2.7,8a9.43,9.43,0,0,0,7.14,2.82A11.33,11.33,0,0,0,604.17,403.91Z"/><path d="M626.31,409.16a8.52,8.52,0,0,1-3.57-3.15,8.68,8.68,0,0,1-1.32-4.77,8.41,8.41,0,0,1,3.51-7.08q3.51-2.64,10.29-2.64h7.26V391q0-4-2-5.7t-6.09-1.74a20.45,20.45,0,0,0-4.05.36,34,34,0,0,0-3.93,1.08,3.37,3.37,0,0,1-.78.12,2.13,2.13,0,0,1-1.56-.66,2.2,2.2,0,0,1-.66-1.62A2.31,2.31,0,0,1,625,380.6a26.39,26.39,0,0,1,10.38-2.16,13.55,13.55,0,0,1,7,1.68,10.56,10.56,0,0,1,4.2,4.35,12.65,12.65,0,0,1,1.35,5.79v17a2.56,2.56,0,0,1-.81,1.92,2.71,2.71,0,0,1-2,.78,2.66,2.66,0,0,1-2.7-2.7v-1.56a15.07,15.07,0,0,1-11.28,4.56A11.15,11.15,0,0,1,626.31,409.16Zm12-5a14.18,14.18,0,0,0,4.14-3.21v-5h-6.54q-9.06,0-9.06,4.74a4.45,4.45,0,0,0,1.47,3.48q1.47,1.32,4.89,1.32A10.85,10.85,0,0,0,638.34,404.15Z"/><path d="M657.9,409.16a2.61,2.61,0,0,1-.78-1.92V381.5a2.71,2.71,0,0,1,.78-1.95,2.56,2.56,0,0,1,1.92-.81,2.77,2.77,0,0,1,2.76,2.76v2.58q4.2-5.64,9.42-5.64h.3a2.51,2.51,0,0,1,1.89.78,2.66,2.66,0,0,1,.75,1.92,2.42,2.42,0,0,1-.78,1.86,2.81,2.81,0,0,1-2,.72h-.3a10.23,10.23,0,0,0-5.28,1.41,12.16,12.16,0,0,0-4,3.87v18.24a2.56,2.56,0,0,1-.81,1.92,2.71,2.71,0,0,1-1.95.78A2.61,2.61,0,0,1,657.9,409.16Z"/><path d="M680.88,409.16a2.61,2.61,0,0,1-.78-1.92V368.3a2.71,2.71,0,0,1,.78-1.95,2.56,2.56,0,0,1,1.92-.81,2.77,2.77,0,0,1,2.76,2.76v24.54l14.28-13.2a2.76,2.76,0,0,1,1.8-.78,2.43,2.43,0,0,1,2,.78,2.87,2.87,0,0,1,.63,1.86,2.94,2.94,0,0,1-1,2l-8.64,7.74,10.86,14.4a2.63,2.63,0,0,1,.6,1.62,2.49,2.49,0,0,1-.78,1.92,2.81,2.81,0,0,1-2,.72,2.66,2.66,0,0,1-1.2-.3,3,3,0,0,1-1-.84l-10.32-14-5.22,4.74v7.74a2.56,2.56,0,0,1-.81,1.92,2.71,2.71,0,0,1-2,.78A2.61,2.61,0,0,1,680.88,409.16Z"/><path d="M713.19,408.83a3.23,3.23,0,0,1-1-2.37v-.36a3.38,3.38,0,0,1,3.36-3.36h.6a3.38,3.38,0,0,1,3.36,3.36v.36a3.38,3.38,0,0,1-3.36,3.36h-.6A3.23,3.23,0,0,1,713.19,408.83Z"/><path d="M124.83,548.16a2.66,2.66,0,0,1-.75-1.92,3.27,3.27,0,0,1,.3-1.2l15.31-36.12a4.41,4.41,0,0,1,1.35-1.77,3.3,3.3,0,0,1,2.13-.69h.6a3.36,3.36,0,0,1,2.13.69,4.8,4.8,0,0,1,1.35,1.77L162.54,545a3.27,3.27,0,0,1,.3,1.2,2.66,2.66,0,0,1-.75,1.92,2.58,2.58,0,0,1-1.94.78,2.75,2.75,0,0,1-1.54-.45,2.94,2.94,0,0,1-1.05-1.23l-3.89-9.36h-20.4l-3.91,9.36a2.87,2.87,0,0,1-1.05,1.23,2.73,2.73,0,0,1-1.52.45A2.59,2.59,0,0,1,124.83,548.16Zm10.53-15.24h16.2l-8.1-19.5Z"/><path d="M171,541.32v-18.6h-4.26a1.13,1.13,0,0,1-1.14-1.14,1.25,1.25,0,0,1,.54-1l8.16-8a1.51,1.51,0,0,1,1-.54,1.06,1.06,0,0,1,.81.36,1.2,1.2,0,0,1,.33.84V518h6.78a2.26,2.26,0,0,1,2.34,2.34,2.3,2.3,0,0,1-.66,1.65,2.22,2.22,0,0,1-1.68.69h-6.78v18.12q0,2.34,1.11,3a5.59,5.59,0,0,0,2.79.63,8.32,8.32,0,0,0,2.4-.36l.51-.12a3.27,3.27,0,0,1,.69-.06,2.11,2.11,0,0,1,1.5.63,2,2,0,0,1,.66,1.53,2.27,2.27,0,0,1-1.38,2.1,11.74,11.74,0,0,1-5,1.08Q171,549.24,171,541.32Z"/><path d="M208.5,548.16a2.61,2.61,0,0,1-.78-1.92V520.5a2.71,2.71,0,0,1,.78-2,2.56,2.56,0,0,1,1.92-.81,2.77,2.77,0,0,1,2.76,2.76V523a19.94,19.94,0,0,1,4.92-4,12.42,12.42,0,0,1,6.24-1.5,10.37,10.37,0,0,1,5.73,1.56,10.14,10.14,0,0,1,3.72,4.26,13.6,13.6,0,0,1,1.29,5.94v17a2.56,2.56,0,0,1-.81,1.92,2.71,2.71,0,0,1-2,.78,2.66,2.66,0,0,1-2.7-2.7V529.8q0-7.32-6.6-7.32a9.55,9.55,0,0,0-5.37,1.56,19.44,19.44,0,0,0-4.47,4.2v18a2.56,2.56,0,0,1-.81,1.92,2.71,2.71,0,0,1-2,.78A2.61,2.61,0,0,1,208.5,548.16Z"/><path d="M244.68,510.9a3,3,0,0,1-.9-2.16v-.24a3.07,3.07,0,0,1,3.06-3.06h.36a3.07,3.07,0,0,1,3.06,3.06v.24a3.07,3.07,0,0,1-3.06,3.06h-.36A3,3,0,0,1,244.68,510.9Zm.36,37.26a2.61,2.61,0,0,1-.78-1.92V520.5a2.71,2.71,0,0,1,.78-2,2.56,2.56,0,0,1,1.92-.81,2.67,2.67,0,0,1,2.76,2.76v25.74a2.56,2.56,0,0,1-.81,1.92,2.71,2.71,0,0,1-1.95.78A2.61,2.61,0,0,1,245,548.16Z"/><path d="M266.46,562.14a23,23,0,0,1-5.82-2.22,2.28,2.28,0,0,1-1.08-2.1,2.46,2.46,0,0,1,.69-1.71,2.23,2.23,0,0,1,1.71-.75,3,3,0,0,1,1.08.24,21.83,21.83,0,0,0,9.9,2.28q9.18,0,9.18-9.78v-4a13.54,13.54,0,0,1-10.26,4.56,14.46,14.46,0,0,1-6.87-1.77,14.3,14.3,0,0,1-5.49-5.28,18,18,0,0,1,0-17.1,14.3,14.3,0,0,1,5.49-5.28,14.46,14.46,0,0,1,6.87-1.77A13.54,13.54,0,0,1,282.12,522v-1.5a2.71,2.71,0,0,1,.78-2,2.56,2.56,0,0,1,1.92-.81,2.77,2.77,0,0,1,2.76,2.76v26.82q0,7.56-3.66,11.64T273.48,563A28.4,28.4,0,0,1,266.46,562.14ZM278,542.46a18,18,0,0,0,4.14-3.24V526.86a18,18,0,0,0-4.14-3.24,10.08,10.08,0,0,0-5-1.2,10.19,10.19,0,0,0-7.35,2.73q-2.85,2.73-2.85,7.89t2.85,7.89a10.19,10.19,0,0,0,7.35,2.73A10.08,10.08,0,0,0,278,542.46Z"/><path d="M297.84,548.16a2.61,2.61,0,0,1-.78-1.92V507.3a2.71,2.71,0,0,1,.78-1.95,2.56,2.56,0,0,1,1.92-.81,2.77,2.77,0,0,1,2.76,2.76V523a19.94,19.94,0,0,1,4.92-4,12.42,12.42,0,0,1,6.24-1.5,10.37,10.37,0,0,1,5.73,1.56,10.14,10.14,0,0,1,3.72,4.26,13.6,13.6,0,0,1,1.29,5.94v17a2.56,2.56,0,0,1-.81,1.92,2.71,2.71,0,0,1-1.95.78,2.66,2.66,0,0,1-2.7-2.7V529.8q0-7.32-6.6-7.32A9.55,9.55,0,0,0,307,524a19.44,19.44,0,0,0-4.47,4.2v18a2.56,2.56,0,0,1-.81,1.92,2.71,2.71,0,0,1-1.95.78A2.61,2.61,0,0,1,297.84,548.16Z"/><path d="M334.68,541.32v-18.6h-4.26a1.13,1.13,0,0,1-1.14-1.14,1.25,1.25,0,0,1,.54-1l8.16-8a1.51,1.51,0,0,1,1-.54,1.06,1.06,0,0,1,.81.36,1.2,1.2,0,0,1,.33.84V518h6.78a2.26,2.26,0,0,1,2.34,2.34,2.3,2.3,0,0,1-.66,1.65,2.22,2.22,0,0,1-1.68.69h-6.78v18.12q0,2.34,1.11,3a5.59,5.59,0,0,0,2.79.63,8.32,8.32,0,0,0,2.4-.36L347,544a3.27,3.27,0,0,1,.69-.06,2.11,2.11,0,0,1,1.5.63,2,2,0,0,1,.66,1.53,2.27,2.27,0,0,1-1.38,2.1,11.74,11.74,0,0,1-5,1.08Q334.68,549.24,334.68,541.32Z"/><path d="M371.82,510.9a3,3,0,0,1-.9-2.16v-.24a3.07,3.07,0,0,1,3.06-3.06h.36a3.07,3.07,0,0,1,3.06,3.06v.24a3.07,3.07,0,0,1-3.06,3.06H374A3,3,0,0,1,371.82,510.9Zm.36,37.26a2.61,2.61,0,0,1-.78-1.92V520.5a2.71,2.71,0,0,1,.78-2,2.56,2.56,0,0,1,1.92-.81,2.67,2.67,0,0,1,2.76,2.76v25.74a2.56,2.56,0,0,1-.81,1.92,2.71,2.71,0,0,1-1.95.78A2.61,2.61,0,0,1,372.18,548.16Z"/><path d="M388.14,541.32v-18.6h-4.26a1.13,1.13,0,0,1-1.14-1.14,1.25,1.25,0,0,1,.54-1l8.16-8a1.51,1.51,0,0,1,1-.54,1.06,1.06,0,0,1,.81.36,1.2,1.2,0,0,1,.33.84V518h6.78a2.26,2.26,0,0,1,2.34,2.34,2.3,2.3,0,0,1-.66,1.65,2.22,2.22,0,0,1-1.68.69H393.6v18.12q0,2.34,1.11,3a5.59,5.59,0,0,0,2.79.63,8.32,8.32,0,0,0,2.4-.36l.51-.12a3.27,3.27,0,0,1,.69-.06,2.11,2.11,0,0,1,1.5.63,2,2,0,0,1,.66,1.53,2.27,2.27,0,0,1-1.38,2.1,11.74,11.74,0,0,1-5,1.08Q388.14,549.24,388.14,541.32Z"/><path d="M425.64,561.93a2.71,2.71,0,0,1-.78-1.95V520.44a2.66,2.66,0,0,1,2.7-2.7,2.71,2.71,0,0,1,1.95.78,2.56,2.56,0,0,1,.81,1.92V522a13.79,13.79,0,0,1,10.26-4.56,14.07,14.07,0,0,1,7.05,1.89,14.34,14.34,0,0,1,5.4,5.52,18.45,18.45,0,0,1,0,17,14.34,14.34,0,0,1-5.4,5.52,14.07,14.07,0,0,1-7.05,1.89,13.79,13.79,0,0,1-10.26-4.56V560a2.67,2.67,0,0,1-2.76,2.76A2.56,2.56,0,0,1,425.64,561.93Zm21.3-20.61q2.7-2.82,2.7-8t-2.7-8a9.43,9.43,0,0,0-7.14-2.82,11.33,11.33,0,0,0-5.19,1.23,14.82,14.82,0,0,0-4.29,3.27v12.6a14.82,14.82,0,0,0,4.29,3.27,11.33,11.33,0,0,0,5.19,1.23A9.43,9.43,0,0,0,446.94,541.32Z"/><path d="M465.63,548.16a8.52,8.52,0,0,1-3.57-3.15,8.68,8.68,0,0,1-1.32-4.77,8.41,8.41,0,0,1,3.51-7.08q3.51-2.64,10.29-2.64h7.26V530q0-4-1.95-5.7t-6.09-1.74a20.45,20.45,0,0,0-4.05.36,34,34,0,0,0-3.93,1.08,3.37,3.37,0,0,1-.78.12,2.13,2.13,0,0,1-1.56-.66,2.2,2.2,0,0,1-.66-1.62,2.31,2.31,0,0,1,1.56-2.28,26.39,26.39,0,0,1,10.38-2.16,13.55,13.55,0,0,1,7,1.68,10.56,10.56,0,0,1,4.2,4.35,12.65,12.65,0,0,1,1.35,5.79v17a2.56,2.56,0,0,1-.81,1.92,2.71,2.71,0,0,1-1.95.78,2.66,2.66,0,0,1-2.7-2.7v-1.56a15.07,15.07,0,0,1-11.28,4.56A11.15,11.15,0,0,1,465.63,548.16Zm12-5a14.18,14.18,0,0,0,4.14-3.21v-5h-6.54q-9.06,0-9.06,4.74a4.45,4.45,0,0,0,1.47,3.48q1.47,1.32,4.89,1.32A10.85,10.85,0,0,0,477.66,543.15Z"/><path d="M497.52,541.32v-18.6h-4.26a1.13,1.13,0,0,1-1.14-1.14,1.25,1.25,0,0,1,.54-1l8.16-8a1.51,1.51,0,0,1,1-.54,1.06,1.06,0,0,1,.81.36,1.2,1.2,0,0,1,.33.84V518h6.78a2.26,2.26,0,0,1,2.34,2.34,2.3,2.3,0,0,1-.66,1.65,2.22,2.22,0,0,1-1.68.69H503v18.12q0,2.34,1.11,3a5.59,5.59,0,0,0,2.79.63,8.32,8.32,0,0,0,2.4-.36l.51-.12a3.27,3.27,0,0,1,.69-.06,2.11,2.11,0,0,1,1.5.63,2,2,0,0,1,.66,1.53,2.27,2.27,0,0,1-1.38,2.1,11.74,11.74,0,0,1-5,1.08Q497.52,549.24,497.52,541.32Z"/><path d="M519.42,548.16a2.61,2.61,0,0,1-.78-1.92V520.5a2.71,2.71,0,0,1,.78-2,2.56,2.56,0,0,1,1.92-.81,2.77,2.77,0,0,1,2.76,2.76v2.58q4.2-5.64,9.42-5.64h.3a2.51,2.51,0,0,1,1.89.78,2.66,2.66,0,0,1,.75,1.92,2.42,2.42,0,0,1-.78,1.86,2.81,2.81,0,0,1-2,.72h-.3a10.23,10.23,0,0,0-5.28,1.41,12.16,12.16,0,0,0-4,3.87v18.24a2.56,2.56,0,0,1-.81,1.92,2.71,2.71,0,0,1-1.95.78A2.61,2.61,0,0,1,519.42,548.16Z"/><path d="M546.12,547.26a13.46,13.46,0,0,1-5.37-5.61,19.21,19.21,0,0,1,0-16.62,13.46,13.46,0,0,1,5.37-5.61,17.44,17.44,0,0,1,16.14,0,13.65,13.65,0,0,1,5.4,5.61,18.94,18.94,0,0,1,0,16.62,13.65,13.65,0,0,1-5.4,5.61,17.44,17.44,0,0,1-16.14,0Zm12.81-4.14a9.16,9.16,0,0,0,3.72-3.6,12,12,0,0,0,1.47-6.24,11.88,11.88,0,0,0-1.47-6.18,9,9,0,0,0-3.72-3.57,10.52,10.52,0,0,0-4.71-1.11,10.64,10.64,0,0,0-4.77,1.11,8.78,8.78,0,0,0-3.69,3.57,12.08,12.08,0,0,0-1.44,6.18,12.21,12.21,0,0,0,1.44,6.24,9,9,0,0,0,3.69,3.6,10.41,10.41,0,0,0,4.77,1.14A10.29,10.29,0,0,0,558.93,543.12Z"/><path d="M578,548.16a2.61,2.61,0,0,1-.78-1.92V507.3a2.71,2.71,0,0,1,.78-1.95,2.56,2.56,0,0,1,1.92-.81,2.67,2.67,0,0,1,2.76,2.76v38.94a2.56,2.56,0,0,1-.81,1.92,2.71,2.71,0,0,1-2,.78A2.61,2.61,0,0,1,578,548.16Z"/><path d="M591.12,546.54a2.29,2.29,0,0,1-1-2,2.41,2.41,0,0,1,.66-1.68,2.18,2.18,0,0,1,1.68-.72,2.64,2.64,0,0,1,1.08.24,24.25,24.25,0,0,0,3.84,1.32,17.85,17.85,0,0,0,4.32.48q6.66,0,6.66-4.26a2.27,2.27,0,0,0-1.53-2.1,31.33,31.33,0,0,0-5-1.62,45.27,45.27,0,0,1-5.85-1.74,10.29,10.29,0,0,1-4-2.73,6.94,6.94,0,0,1-1.65-4.83,8.65,8.65,0,0,1,3-6.84q3-2.64,8.67-2.64a25,25,0,0,1,8.7,1.5,2.25,2.25,0,0,1,1.29.9,2.41,2.41,0,0,1,.45,1.38,2.35,2.35,0,0,1-.69,1.68,2.27,2.27,0,0,1-1.71.72,3.37,3.37,0,0,1-.78-.12,23,23,0,0,0-6.84-1.08,9.37,9.37,0,0,0-5.07,1.17,3.49,3.49,0,0,0-1.83,3,2.77,2.77,0,0,0,1.68,2.64,24,24,0,0,0,5.22,1.62,50,50,0,0,1,5.76,1.77,9.52,9.52,0,0,1,3.81,2.73,7.41,7.41,0,0,1,1.59,5,7.93,7.93,0,0,1-3,6.36q-3,2.52-8.55,2.52A22.32,22.32,0,0,1,591.12,546.54Z"/><path d="M639.45,548.16a8.52,8.52,0,0,1-3.57-3.15,8.68,8.68,0,0,1-1.32-4.77,8.41,8.41,0,0,1,3.51-7.08q3.51-2.64,10.29-2.64h7.26V530q0-4-2-5.7t-6.09-1.74a20.45,20.45,0,0,0-4.05.36A34,34,0,0,0,639.6,524a3.37,3.37,0,0,1-.78.12,2.13,2.13,0,0,1-1.56-.66,2.2,2.2,0,0,1-.66-1.62,2.31,2.31,0,0,1,1.56-2.28,26.39,26.39,0,0,1,10.38-2.16,13.55,13.55,0,0,1,7,1.68,10.56,10.56,0,0,1,4.2,4.35,12.65,12.65,0,0,1,1.35,5.79v17a2.56,2.56,0,0,1-.81,1.92,2.71,2.71,0,0,1-1.95.78,2.66,2.66,0,0,1-2.7-2.7v-1.56a15.07,15.07,0,0,1-11.28,4.56A11.15,11.15,0,0,1,639.45,548.16Zm12-5a14.18,14.18,0,0,0,4.14-3.21v-5h-6.54q-9.06,0-9.06,4.74a4.45,4.45,0,0,0,1.47,3.48q1.47,1.32,4.89,1.32A10.85,10.85,0,0,0,651.48,543.15Z"/><path d="M671,548.16a2.61,2.61,0,0,1-.78-1.92V520.5a2.71,2.71,0,0,1,.78-2,2.56,2.56,0,0,1,1.92-.81,2.77,2.77,0,0,1,2.76,2.76V523a19.94,19.94,0,0,1,4.92-4,12.42,12.42,0,0,1,6.24-1.5,10.37,10.37,0,0,1,5.73,1.56,10.14,10.14,0,0,1,3.72,4.26,13.6,13.6,0,0,1,1.29,5.94v17a2.56,2.56,0,0,1-.81,1.92,2.71,2.71,0,0,1-1.95.78,2.66,2.66,0,0,1-2.7-2.7V529.8q0-7.32-6.6-7.32a9.55,9.55,0,0,0-5.37,1.56,19.44,19.44,0,0,0-4.47,4.2v18a2.56,2.56,0,0,1-.81,1.92,2.71,2.71,0,0,1-1.95.78A2.61,2.61,0,0,1,671,548.16Z"/><path d="M712.41,547.35a14.34,14.34,0,0,1-5.4-5.52,18.45,18.45,0,0,1,0-17,14.34,14.34,0,0,1,5.4-5.52,14.07,14.07,0,0,1,7.05-1.89A13.79,13.79,0,0,1,729.72,522V507.3a2.63,2.63,0,0,1,.81-2,2.71,2.71,0,0,1,2-.78,2.56,2.56,0,0,1,1.92.81,2.71,2.71,0,0,1,.78,1.95v38.94a2.66,2.66,0,0,1-2.7,2.7,2.71,2.71,0,0,1-2-.78,2.56,2.56,0,0,1-.81-1.92v-1.56a13.79,13.79,0,0,1-10.26,4.56A14.07,14.07,0,0,1,712.41,547.35Zm13-4.44a14.82,14.82,0,0,0,4.29-3.27V527a14.82,14.82,0,0,0-4.29-3.27,11.33,11.33,0,0,0-5.19-1.23,9.43,9.43,0,0,0-7.14,2.82q-2.7,2.82-2.7,8t2.7,8a9.43,9.43,0,0,0,7.14,2.82A11.33,11.33,0,0,0,725.43,542.91Z"/><path d="M126.6,620.16a2.6,2.6,0,0,1-.77-1.92V579.3a2.7,2.7,0,0,1,.77-1.95,2.56,2.56,0,0,1,1.92-.81,2.77,2.77,0,0,1,2.77,2.76V595a19.59,19.59,0,0,1,4.92-4,12.36,12.36,0,0,1,6.23-1.5,10.35,10.35,0,0,1,5.73,1.56,10.23,10.23,0,0,1,3.73,4.26,13.74,13.74,0,0,1,1.29,5.94v17a2.56,2.56,0,0,1-.81,1.92,2.75,2.75,0,0,1-2,.78,2.65,2.65,0,0,1-2.69-2.7V601.8q0-7.32-6.61-7.32a9.55,9.55,0,0,0-5.37,1.56,19.2,19.2,0,0,0-4.46,4.2v18a2.56,2.56,0,0,1-.81,1.92,2.73,2.73,0,0,1-2,.78A2.61,2.61,0,0,1,126.6,620.16Z"/><path d="M166.83,619.68a10.14,10.14,0,0,1-3.72-4.26,13.6,13.6,0,0,1-1.29-5.94v-17a2.56,2.56,0,0,1,.81-1.92,2.71,2.71,0,0,1,2-.78,2.66,2.66,0,0,1,2.7,2.7v16.44q0,7.32,6.6,7.32a9.55,9.55,0,0,0,5.37-1.56,19.44,19.44,0,0,0,4.47-4.2v-18a2.56,2.56,0,0,1,.81-1.92,2.71,2.71,0,0,1,1.95-.78,2.66,2.66,0,0,1,2.7,2.7v25.74a2.71,2.71,0,0,1-.78,2,2.56,2.56,0,0,1-1.92.81,2.77,2.77,0,0,1-2.76-2.76v-2.46a19.94,19.94,0,0,1-4.92,4,12.42,12.42,0,0,1-6.24,1.5A10.37,10.37,0,0,1,166.83,619.68Z"/><path d="M199.44,620.16a2.61,2.61,0,0,1-.78-1.92V592.5a2.71,2.71,0,0,1,.78-2,2.56,2.56,0,0,1,1.92-.81,2.77,2.77,0,0,1,2.76,2.76V595a19.94,19.94,0,0,1,4.92-4,12.42,12.42,0,0,1,6.24-1.5A10.37,10.37,0,0,1,221,591a10.14,10.14,0,0,1,3.72,4.26A13.6,13.6,0,0,1,226,601.2v17a2.56,2.56,0,0,1-.81,1.92,2.71,2.71,0,0,1-2,.78,2.66,2.66,0,0,1-2.7-2.7V601.8q0-7.32-6.6-7.32a9.55,9.55,0,0,0-5.37,1.56,19.44,19.44,0,0,0-4.47,4.2v18a2.56,2.56,0,0,1-.81,1.92,2.71,2.71,0,0,1-1.95.78A2.61,2.61,0,0,1,199.44,620.16Z"/><path d="M236.28,613.32v-18.6H232a1.13,1.13,0,0,1-1.14-1.14,1.25,1.25,0,0,1,.54-1l8.16-8a1.51,1.51,0,0,1,1-.54,1.06,1.06,0,0,1,.81.36,1.2,1.2,0,0,1,.33.84V590h6.78a2.26,2.26,0,0,1,2.34,2.34,2.3,2.3,0,0,1-.66,1.65,2.22,2.22,0,0,1-1.68.69h-6.78v18.12q0,2.34,1.11,3a5.59,5.59,0,0,0,2.79.63,8.32,8.32,0,0,0,2.4-.36l.51-.12a3.27,3.27,0,0,1,.69-.06,2.11,2.11,0,0,1,1.5.63,2,2,0,0,1,.66,1.53,2.27,2.27,0,0,1-1.38,2.1,11.74,11.74,0,0,1-5,1.08Q236.28,621.24,236.28,613.32Z"/><path d="M256.38,618.54a2.29,2.29,0,0,1-1-2,2.41,2.41,0,0,1,.66-1.68,2.18,2.18,0,0,1,1.68-.72,2.64,2.64,0,0,1,1.08.24,24.25,24.25,0,0,0,3.84,1.32,17.85,17.85,0,0,0,4.32.48q6.66,0,6.66-4.26a2.27,2.27,0,0,0-1.53-2.1,31.33,31.33,0,0,0-5-1.62,45.27,45.27,0,0,1-5.85-1.74,10.29,10.29,0,0,1-4-2.73,6.94,6.94,0,0,1-1.65-4.83,8.65,8.65,0,0,1,3-6.84q3-2.64,8.67-2.64a25,25,0,0,1,8.7,1.5,2.25,2.25,0,0,1,1.29.9,2.41,2.41,0,0,1,.45,1.38,2.35,2.35,0,0,1-.69,1.68,2.27,2.27,0,0,1-1.71.72,3.37,3.37,0,0,1-.78-.12,23,23,0,0,0-6.84-1.08,9.37,9.37,0,0,0-5.07,1.17,3.49,3.49,0,0,0-1.83,3,2.77,2.77,0,0,0,1.68,2.64,24,24,0,0,0,5.22,1.62,50,50,0,0,1,5.76,1.77,9.52,9.52,0,0,1,3.81,2.73,7.41,7.41,0,0,1,1.59,5,7.93,7.93,0,0,1-3,6.36q-3,2.52-8.55,2.52A22.32,22.32,0,0,1,256.38,618.54Z"/><path d="M302.58,620.16a2.61,2.61,0,0,1-.78-1.92V579.3a2.71,2.71,0,0,1,.78-1.95,2.56,2.56,0,0,1,1.92-.81,2.67,2.67,0,0,1,2.76,2.76v38.94a2.56,2.56,0,0,1-.81,1.92,2.71,2.71,0,0,1-1.95.78A2.61,2.61,0,0,1,302.58,620.16Z"/><path d="M317.16,582.9a3,3,0,0,1-.9-2.16v-.24a3.07,3.07,0,0,1,3.06-3.06h.36a3.07,3.07,0,0,1,3.06,3.06v.24a3.07,3.07,0,0,1-3.06,3.06h-.36A3,3,0,0,1,317.16,582.9Zm.36,37.26a2.61,2.61,0,0,1-.78-1.92V592.5a2.71,2.71,0,0,1,.78-2,2.56,2.56,0,0,1,1.92-.81,2.67,2.67,0,0,1,2.76,2.76v25.74a2.56,2.56,0,0,1-.81,1.92,2.71,2.71,0,0,1-1.95.78A2.61,2.61,0,0,1,317.52,620.16Z"/><path d="M332.46,620.16a2.61,2.61,0,0,1-.78-1.92V579.3a2.71,2.71,0,0,1,.78-1.95,2.56,2.56,0,0,1,1.92-.81,2.77,2.77,0,0,1,2.76,2.76v24.54l14.28-13.2a2.76,2.76,0,0,1,1.8-.78,2.43,2.43,0,0,1,2,.78,2.87,2.87,0,0,1,.63,1.86,2.94,2.94,0,0,1-1,2l-8.64,7.74,10.86,14.4a2.63,2.63,0,0,1,.6,1.62,2.49,2.49,0,0,1-.78,1.92,2.81,2.81,0,0,1-2,.72,2.66,2.66,0,0,1-1.2-.3,3,3,0,0,1-1-.84l-10.32-14-5.22,4.74v7.74a2.56,2.56,0,0,1-.81,1.92,2.71,2.71,0,0,1-1.95.78A2.61,2.61,0,0,1,332.46,620.16Z"/><path d="M366.09,617.07Q362,612.9,362,605.34a19.56,19.56,0,0,1,1.56-7.86,13.36,13.36,0,0,1,4.8-5.82,13.79,13.79,0,0,1,8-2.22,14,14,0,0,1,7.68,2.07,13.39,13.39,0,0,1,4.92,5.52,17,17,0,0,1,1.68,7.53,2.62,2.62,0,0,1-2.76,2.7H367.5a9.87,9.87,0,0,0,3.12,6.54q2.64,2.34,7.38,2.34a18,18,0,0,0,4.41-.48,18.32,18.32,0,0,0,3.69-1.38,2.38,2.38,0,0,1,1.08-.24,2.41,2.41,0,0,1,1.68.66,2.18,2.18,0,0,1,.72,1.68A2.59,2.59,0,0,1,388,618.6a18.74,18.74,0,0,1-10.5,2.64Q370.2,621.24,366.09,617.07Zm19.11-14.25a9.61,9.61,0,0,0-1.53-4.92,8.26,8.26,0,0,0-3.33-2.91,9.15,9.15,0,0,0-8,0,8.06,8.06,0,0,0-3.3,2.91,9.79,9.79,0,0,0-1.5,4.92Z"/><path d="M416.31,620.16a8.52,8.52,0,0,1-3.57-3.15,8.68,8.68,0,0,1-1.32-4.77,8.41,8.41,0,0,1,3.51-7.08q3.51-2.64,10.29-2.64h7.26V602q0-4-2-5.7t-6.09-1.74a20.45,20.45,0,0,0-4.05.36,34,34,0,0,0-3.93,1.08,3.37,3.37,0,0,1-.78.12,2.13,2.13,0,0,1-1.56-.66,2.2,2.2,0,0,1-.66-1.62A2.31,2.31,0,0,1,415,591.6a26.39,26.39,0,0,1,10.38-2.16,13.55,13.55,0,0,1,7,1.68,10.56,10.56,0,0,1,4.2,4.35,12.65,12.65,0,0,1,1.35,5.79v17a2.56,2.56,0,0,1-.81,1.92,2.71,2.71,0,0,1-1.95.78,2.66,2.66,0,0,1-2.7-2.7v-1.56a15.07,15.07,0,0,1-11.28,4.56A11.15,11.15,0,0,1,416.31,620.16Zm12-5a14.18,14.18,0,0,0,4.14-3.21v-5h-6.54q-9.06,0-9.06,4.74a4.45,4.45,0,0,0,1.47,3.48q1.47,1.32,4.89,1.32A10.85,10.85,0,0,0,428.34,615.15Z"/><path d="M465.78,620.16a2.61,2.61,0,0,1-.78-1.92V594.72h-3.54a2.36,2.36,0,0,1-2.34-2.34,2.22,2.22,0,0,1,.69-1.68,2.3,2.3,0,0,1,1.65-.66H465v-3.48a12,12,0,0,1,1.29-5.91,8,8,0,0,1,3.36-3.36,9.49,9.49,0,0,1,4.35-1,11.51,11.51,0,0,1,5.22,1.2,2.59,2.59,0,0,1,1,.87,2.14,2.14,0,0,1,.39,1.23,2.23,2.23,0,0,1-.66,1.59,2.09,2.09,0,0,1-1.56.69,5.69,5.69,0,0,1-1.38-.18q-1.44-.18-1.62-.18a5.26,5.26,0,0,0-3.69,1.14q-1.23,1.14-1.23,4.14V590H478a2.26,2.26,0,0,1,2.34,2.34,2.3,2.3,0,0,1-.66,1.65,2.22,2.22,0,0,1-1.68.69h-7.5v23.52a2.56,2.56,0,0,1-.81,1.92,2.71,2.71,0,0,1-1.95.78A2.61,2.61,0,0,1,465.78,620.16Z"/><path d="M490.35,619.68a10.14,10.14,0,0,1-3.72-4.26,13.6,13.6,0,0,1-1.29-5.94v-17a2.56,2.56,0,0,1,.81-1.92,2.71,2.71,0,0,1,2-.78,2.66,2.66,0,0,1,2.7,2.7v16.44q0,7.32,6.6,7.32a9.55,9.55,0,0,0,5.37-1.56,19.44,19.44,0,0,0,4.47-4.2v-18a2.56,2.56,0,0,1,.81-1.92,2.71,2.71,0,0,1,1.95-.78,2.66,2.66,0,0,1,2.7,2.7v25.74a2.71,2.71,0,0,1-.78,2,2.56,2.56,0,0,1-1.92.81,2.77,2.77,0,0,1-2.76-2.76v-2.46a19.94,19.94,0,0,1-4.92,4,12.42,12.42,0,0,1-6.24,1.5A10.37,10.37,0,0,1,490.35,619.68Z"/><path d="M523,620.16a2.61,2.61,0,0,1-.78-1.92V592.5a2.71,2.71,0,0,1,.78-2,2.56,2.56,0,0,1,1.92-.81,2.77,2.77,0,0,1,2.76,2.76v2.58q4.2-5.64,9.42-5.64h.3a2.51,2.51,0,0,1,1.89.78,2.66,2.66,0,0,1,.75,1.92,2.42,2.42,0,0,1-.78,1.86,2.81,2.81,0,0,1-2,.72h-.3a10.23,10.23,0,0,0-5.28,1.41,12.16,12.16,0,0,0-4,3.87v18.24a2.56,2.56,0,0,1-.81,1.92,2.71,2.71,0,0,1-2,.78A2.61,2.61,0,0,1,523,620.16Z"/><path d="M545.94,620.16a2.61,2.61,0,0,1-.78-1.92V592.5a2.71,2.71,0,0,1,.78-2,2.56,2.56,0,0,1,1.92-.81,2.77,2.77,0,0,1,2.76,2.76v2.58q4.2-5.64,9.42-5.64h.3a2.51,2.51,0,0,1,1.89.78,2.66,2.66,0,0,1,.75,1.92,2.42,2.42,0,0,1-.78,1.86,2.81,2.81,0,0,1-2,.72h-.3a10.23,10.23,0,0,0-5.28,1.41,12.16,12.16,0,0,0-4,3.87v18.24a2.56,2.56,0,0,1-.81,1.92,2.71,2.71,0,0,1-1.95.78A2.61,2.61,0,0,1,545.94,620.16Z"/><path d="M573.15,634a2.59,2.59,0,0,1-.75-1.86,2.72,2.72,0,0,1,.18-1l3.9-10L565.2,593.64a3.07,3.07,0,0,1-.24-1.14,2.71,2.71,0,0,1,.78-2,2.56,2.56,0,0,1,1.92-.81,2.62,2.62,0,0,1,1.53.48,2.72,2.72,0,0,1,1,1.2l9.24,22.92,9.42-22.8a2.62,2.62,0,0,1,2.52-1.8,2.56,2.56,0,0,1,1.92.81,2.71,2.71,0,0,1,.78,2,2.88,2.88,0,0,1-.18,1L577.5,632.88a2.7,2.7,0,0,1-2.52,1.86A2.44,2.44,0,0,1,573.15,634Z"/><path d="M614.94,618.54a2.29,2.29,0,0,1-1-2,2.41,2.41,0,0,1,.66-1.68,2.18,2.18,0,0,1,1.68-.72,2.64,2.64,0,0,1,1.08.24,24.25,24.25,0,0,0,3.84,1.32,17.85,17.85,0,0,0,4.32.48q6.66,0,6.66-4.26a2.27,2.27,0,0,0-1.53-2.1,31.33,31.33,0,0,0-5-1.62,45.27,45.27,0,0,1-5.85-1.74,10.29,10.29,0,0,1-4-2.73,6.94,6.94,0,0,1-1.65-4.83,8.65,8.65,0,0,1,3-6.84q3-2.64,8.67-2.64a25,25,0,0,1,8.7,1.5,2.25,2.25,0,0,1,1.29.9,2.41,2.41,0,0,1,.45,1.38,2.35,2.35,0,0,1-.69,1.68,2.27,2.27,0,0,1-1.71.72,3.37,3.37,0,0,1-.78-.12,23,23,0,0,0-6.84-1.08,9.37,9.37,0,0,0-5.07,1.17,3.49,3.49,0,0,0-1.83,3,2.77,2.77,0,0,0,1.68,2.64,24,24,0,0,0,5.22,1.62,50,50,0,0,1,5.76,1.77,9.52,9.52,0,0,1,3.81,2.73,7.41,7.41,0,0,1,1.59,5,7.93,7.93,0,0,1-3,6.36q-3,2.52-8.55,2.52A22.32,22.32,0,0,1,614.94,618.54Z"/><path d="M645.54,620.16a2.61,2.61,0,0,1-.78-1.92V579.3a2.71,2.71,0,0,1,.78-1.95,2.56,2.56,0,0,1,1.92-.81,2.77,2.77,0,0,1,2.76,2.76V595a19.94,19.94,0,0,1,4.92-4,12.42,12.42,0,0,1,6.24-1.5,10.37,10.37,0,0,1,5.73,1.56,10.14,10.14,0,0,1,3.72,4.26,13.6,13.6,0,0,1,1.29,5.94v17a2.56,2.56,0,0,1-.81,1.92,2.71,2.71,0,0,1-1.95.78,2.66,2.66,0,0,1-2.7-2.7V601.8q0-7.32-6.6-7.32a9.55,9.55,0,0,0-5.37,1.56,19.44,19.44,0,0,0-4.47,4.2v18a2.56,2.56,0,0,1-.81,1.92,2.71,2.71,0,0,1-1.95.78A2.61,2.61,0,0,1,645.54,620.16Z"/><path d="M684.21,620.16a8.52,8.52,0,0,1-3.57-3.15,8.68,8.68,0,0,1-1.32-4.77,8.41,8.41,0,0,1,3.51-7.08q3.51-2.64,10.29-2.64h7.26V602q0-4-2-5.7t-6.09-1.74a20.45,20.45,0,0,0-4.05.36,34,34,0,0,0-3.93,1.08,3.37,3.37,0,0,1-.78.12,2.13,2.13,0,0,1-1.56-.66,2.2,2.2,0,0,1-.66-1.62,2.31,2.31,0,0,1,1.56-2.28,26.39,26.39,0,0,1,10.38-2.16,13.55,13.55,0,0,1,7,1.68,10.56,10.56,0,0,1,4.2,4.35,12.65,12.65,0,0,1,1.35,5.79v17a2.56,2.56,0,0,1-.81,1.92,2.71,2.71,0,0,1-1.95.78,2.66,2.66,0,0,1-2.7-2.7v-1.56a15.07,15.07,0,0,1-11.28,4.56A11.15,11.15,0,0,1,684.21,620.16Zm12-5a14.18,14.18,0,0,0,4.14-3.21v-5h-6.54q-9.06,0-9.06,4.74a4.45,4.45,0,0,0,1.47,3.48q1.47,1.32,4.89,1.32A10.85,10.85,0,0,0,696.24,615.15Z"/><path d="M715.8,620.16a2.61,2.61,0,0,1-.78-1.92V592.5a2.71,2.71,0,0,1,.78-2,2.56,2.56,0,0,1,1.92-.81,2.77,2.77,0,0,1,2.76,2.76v2.58q4.2-5.64,9.42-5.64h.3a2.51,2.51,0,0,1,1.89.78,2.66,2.66,0,0,1,.75,1.92,2.42,2.42,0,0,1-.78,1.86,2.81,2.81,0,0,1-2,.72h-.3a10.23,10.23,0,0,0-5.28,1.41,12.16,12.16,0,0,0-4,3.87v18.24a2.56,2.56,0,0,1-.81,1.92,2.71,2.71,0,0,1-1.95.78A2.61,2.61,0,0,1,715.8,620.16Z"/><path d="M738.78,620.16a2.61,2.61,0,0,1-.78-1.92V579.3a2.71,2.71,0,0,1,.78-1.95,2.56,2.56,0,0,1,1.92-.81,2.77,2.77,0,0,1,2.76,2.76v24.54l14.28-13.2a2.76,2.76,0,0,1,1.8-.78,2.43,2.43,0,0,1,2,.78,2.87,2.87,0,0,1,.63,1.86,2.94,2.94,0,0,1-1,2l-8.64,7.74,10.86,14.4a2.63,2.63,0,0,1,.6,1.62,2.49,2.49,0,0,1-.78,1.92,2.81,2.81,0,0,1-2,.72,2.66,2.66,0,0,1-1.2-.3,3,3,0,0,1-1-.84l-10.32-14-5.22,4.74v7.74a2.56,2.56,0,0,1-.81,1.92,2.71,2.71,0,0,1-1.95.78A2.61,2.61,0,0,1,738.78,620.16Z"/><path d="M771.09,619.83a3.23,3.23,0,0,1-1-2.37v-.36a3.38,3.38,0,0,1,3.36-3.36h.6a3.38,3.38,0,0,1,3.36,3.36v.36a3.38,3.38,0,0,1-3.36,3.36h-.6A3.23,3.23,0,0,1,771.09,619.83Z"/><g class="cls-4"><g class="cls-4"><path class="cls-5" d="M1389.55,740.05c0,15.65,3.62,6.1,7.14.77-.51-.4-1-.86-1.52-1.35C1393.31,739.7,1391.43,739.94,1389.55,740.05Z"/><path class="cls-5" d="M1395.17,739.47c.51.49,1,.95,1.52,1.35a13.81,13.81,0,0,1,1.29-1.71C1397.05,739.24,1396.11,739.36,1395.17,739.47Z"/><path class="cls-5" d="M1389.76,732.08c-.15,3.2-.21,5.81-.21,8,1.88-.11,3.76-.35,5.62-.58A29.28,29.28,0,0,1,1389.76,732.08Z"/><path class="cls-5" d="M1398,739.11c1-.16,2-.22,3-.42C1400.09,737.43,1399.06,737.9,1398,739.11Z"/><path class="cls-6" d="M1478.09,618.59q-17.38-4.37-34.6-8.3t-34.33-7.58c6,8.63,11.87,17.37,17.21,23.22C1442.38,644.64,1460.39,629.31,1478.09,618.59Z"/><path class="cls-7" d="M1375,597.16q-11.48-2.08-23-4C1359.29,597.55,1367,600,1375,597.16Z"/><path class="cls-6" d="M1476.8,622.73c-17.7,10.71-35.72,26-51.73,7.33-5.35-5.85-11.21-14.58-17.23-23.22q-27.22-5.79-54.34-10.74c-8,2.82-15.67.39-22.94-4.05-35.78-6.08-71.67-11.23-108.22-15.55s-73.75-7.82-112.14-10.76c-4.5-.31-28.69,4.88-34.18,16.66l-8.63,8.47-.45,5.6c6.93,1.11,13.64,4,21.51,1.17,4.52.35,9.5-5.36,14-5,10.17.76,19.66,3,29.54,3.74A63,63,0,0,0,1163.9,591c7.19-5.56,16.81,19.45,24,13.86,13.77-2.1,25.9,3.24,37.78,8.57s23.5,10.6,36.14,8.32c10.38-2.41,19.14-6.51,27.8-9.06s17.22-3.58,27.24,0c4.53.24,11.64-5.48,16.16-5.25,14.55,3.83,29.11,7.55,43.65,12.08A344.78,344.78,0,0,1,1420.27,636c6.79.28,12.61,24.89,19.68,19.09,9.59-11.77,18.9-17.53,28.21-23.27,2.26.08,3.85,18.42,8.4,18.59,17.37,5.29,34.12-11,49.94-10.23-.84-1.84-1.67-3.53-2.52-5.14C1508.12,630.7,1492.4,626.57,1476.8,622.73Z"/><path class="cls-6" d="M1573.17,643.3a53.65,53.65,0,0,1-7.51,7.19c14.54,12.67,32.11,15.07,48.68,4.84C1600.47,651.11,1586.77,647.17,1573.17,643.3Z"/><path class="cls-6" d="M1548.07,640.81l.45,1.05q-12.35-3.52-24.54-6.86c.85,1.61,1.68,3.3,2.52,5.14a21,21,0,0,1,13.88,6.27c1.2,1.23,2.44,2.38,3.69,3.48a47.93,47.93,0,0,0,5.66-5.22c.29.69.58,1.31.87,2.05,3.68,8.49,9,8.33,15.06,3.77-1.25-1.1-2.5-2.24-3.7-3.46A20.9,20.9,0,0,0,1548.07,640.81Z"/><path class="cls-8" d="M1536.81,804.62c-15.59-18.77-25.79,11.43-41.57-1.33-11.52-8.17-22.92-7.48-34.34-5.11,25.46,8.8,50.11,17,75.22,17.11A33.61,33.61,0,0,1,1536.81,804.62Z"/><path class="cls-9" d="M1604.74,729.2c-4.83,9-10.85,13.29-18.92,9.77-13.62-6.41-24.57-25-36-25.31-15.92-3.52-33.4,6.63-50.79,12.11-8.7,2.74-17.36,4.36-25.76,2.53s-16.51-7.1-24.1-18c-14.15-18.82-30-22.55-46.57-21.75s-34,6.08-51.15,5.21c-6.84-.34-16.59,11.38-23.46,11-22.85-1.19-43.42-2.35-64-3.54-16-1-16.44-31.47-35-26.52-2.27-.15-6.06-12.59-8.33-12.74-52.76,2.5-106.91-6.83-158.43-22.21-1.57,13.26-2.61,26.17-3.06,38.1,36.42-.33,72.25,21.56,105.8,29.22a178.1,178.1,0,0,0,34,7.63c11.39,1.48,22.83,2.23,34.28,2.94s22.89,1.39,34.29,2.83a180.44,180.44,0,0,1,34.06,7.25c10.6,3.17,21.62,6.34,32.77,8.56a134.58,134.58,0,0,0,33.46,2.81c0-2.16.07-4.77.23-8a28.66,28.66,0,0,0,5.39,7.39c.94-.1,1.88-.22,2.81-.36,1.08-1.21,2.12-1.67,3-.41-1,.19-2,.26-3,.41a13.8,13.8,0,0,0-1.3,1.71c16.26,12.67,36.31-17.36,45.82-6.38,16.43,19,36.06,18.21,55.13,15.13s37.63-8.59,52.27,1c30,13.64,56.07,12.23,78.88-14.25C1606.18,733.38,1605.43,731.36,1604.74,729.2Z"/><path class="cls-10" d="M1604.11,672.44c-.83-3.75-1.59-7-2.22-9.47-10.61,16.21-23.21,23.81-36.41,26.73a74.78,74.78,0,0,1-20.08,1.43,165.31,165.31,0,0,1-20-2.56c-2.28-.07-6.46-12.38-10.82-18.61-11.17-6.46-19,23.71-28,17.32-39.05-25.75-78.61-30.45-118.62-28.55s-80.38,10.34-120.43,11c-4.56-.27,1.84-30.38-4.6-36.85-17.75-7.21-34-2.13-48.68-21.44-1.85-6.22-9.86,11.55-17.09,17.17-13.1,8.28-24.81,4.34-36.43-.29s-23.18-10.11-36.1-4.95c-14.13,8-27-.77-40.83,3.51q-.9,6.45-1.64,12.87c51.52,15.38,105.67,24.71,158.43,22.21,2.27.15,6.06,12.59,8.33,12.74,14.37-3.82,14.87,25.29,35,26.52,20.94,1.21,40.79,2.33,64,3.54,6.87.37,16.62-11.35,23.46-11,17.13.87,34.54-4.44,51.15-5.21s32.42,2.93,46.57,21.75c7.59,11,15.71,16.21,24.1,18s17.06.21,25.76-2.53c17.39-5.48,34.87-15.63,50.79-12.11,11.43.31,22.38,18.9,36,25.31,8.07,3.52,14.09-.74,18.92-9.77-4.7-15.1-6.36-36-5.86-56.89Z"/><path class="cls-11" d="M1615,718.35c-5-58-14.46-77.35-6.62-41.71l-5.23-.12c-.49,20.87,1.17,41.79,5.9,56.87A86.12,86.12,0,0,0,1615,718.35Z"/><path class="cls-11" d="M1600.37,657.12l-7.63-2.3c-16.59,10.25-34.15,7.72-48.67-4.93-6.11,4.54-11.39,4.68-15-3.83-.83-2.14-1.68-4-2.52-5.92-15.82-.81-32.57,15.52-49.94,10.23-4.55-.17-6.14-18.51-8.4-18.59-9.31,5.74-18.62,11.5-28.21,23.27-7.07,5.8-12.89-18.81-19.68-19.09a344.78,344.78,0,0,0-43.57-16.43c-14.54-4.53-29.1-8.25-43.65-12.08-4.52-.23-11.63,5.49-16.16,5.25-10-3.57-18.58-2.55-27.24,0s-17.42,6.65-27.8,9.06c-12.64,2.28-24.26-3-36.14-8.32s-24-10.67-37.78-8.57c-7.22,5.59-16.84-19.42-24-13.86a63,63,0,0,1-31.89,5.35c-9.88-.74-19.37-3-29.54-3.74-4.52-.35-9.5,5.36-14,5-7.87,2.8-14.58-.06-21.51-1.17l-1.66,20.7c-.51,3.22-1,6.43-1.43,9.67,13.86-4.28,26.7,4.45,40.83-3.51,12.92-5.16,24.46.32,36.1,4.95s23.33,8.57,36.43.29c7.23-5.62,15.24-23.39,17.09-17.17,14.64,19.31,30.93,14.23,48.68,21.44,6.44,6.47,0,36.58,4.6,36.85,40.05-.62,80.46-9.06,120.43-11s79.57,2.8,118.62,28.55c8.92,6.39,16.8-23.78,28-17.32,4.36,6.23,8.54,18.54,10.82,18.61a165.31,165.31,0,0,0,20,2.56,74.78,74.78,0,0,0,20.08-1.43c13.2-2.92,25.8-10.52,36.41-26.73C1601,659.27,1600.37,657.12,1600.37,657.12Z"/><path class="cls-8" d="M1312,765.41c10.07.82,20.38,2.13,31,4.07.67,0,2.27.3,4.52.69C1335.9,766.83,1323.87,762.59,1312,765.41Z"/><path class="cls-8" d="M1364.93,773.54c11.44,2.28,24.42,4.86,31.39,6.1-7.2-10.3-14.92-17.47-24-17.88C1372.28,761.76,1367.29,773.27,1364.93,773.54Z"/><path class="cls-12" d="M1553.79,814a105.49,105.49,0,0,0,25.52-7.45A129.43,129.43,0,0,0,1605.52,791c-8.72-1.72-17.35.09-26,4.31S1562.39,806.09,1553.79,814Z"/><path class="cls-13" d="M1607,735.29c-22.81,26.48-48.91,27.89-78.88,14.25-14.64-9.56-33.18-4.12-52.27-1s-38.7,3.87-55.13-15.13c-9.51-11-29.56,19-45.82,6.38-3.52,5.34-7.16,14.88-7.13-.77a134.58,134.58,0,0,1-33.46-2.81c-11.15-2.22-22.17-5.39-32.77-8.56a180.44,180.44,0,0,0-34.06-7.25c-11.4-1.44-22.85-2.14-34.29-2.83s-22.89-1.46-34.28-2.94a178.1,178.1,0,0,1-34-7.63c-33.55-7.66-69.38-29.55-105.8-29.22-1.29,34.9,2.73,61.22,14.71,62.17,45.8,22.44,86,24.69,126.45,24,15.61-6.61,30.79-9.48,45.24-5.4a92.51,92.51,0,0,0-23.39,6.8c9.18-.16,18.37-.51,27.66-.76s18.67-.48,28.21-.49c-.54-.29-1.09-.47-1.64-.75,4.56.19,9.13.41,13.8.81,11.83-2.77,23.86,1.42,35.55,4.83,4.12.75,10.43,2,17.32,3.4,2.36-.28,24.2-4.1,31.37,6.18,2.36.4,4,.67,4.72.7,20.84,4.23,40.57,11.27,59.83,18,11.42-2.4,22.81-3,34.32,5.18,15.74,12.74,40.57,9.1,40.86,12.08a112.26,112.26,0,0,0,17.66-1.29c17.24-15.65,34.37-26.32,51.8-22.83a174,174,0,0,0,13.89-11.66c8.47-7.87,12.32-21.07,13.52-35.93A43.48,43.48,0,0,1,1607,735.29Z"/></g></g><circle cx="1308.61" cy="507.1" r="0.42"/><path d="M1105.53,605.51h0c-1.91.56-3.94,1.15-5.93,1.85-.95.33-1.91.68-2.86,1-.64.24-1.28.53-1.89.81l-.1,0-.54.25-.45.2c-.58.26-1.15.51-1.69.8-.83.44-1.65.91-2.48,1.37l-.61.35-.8.43-.23.13c-.4.22-.81.44-1.2.68l-1.08.65-1.1.66q-5.08,3-10.13,6.13l-1.22.74c-2.78,1.68-5.55,3.37-8.34,5l-1.57.94-.45.27q-4.15,2.5-8.33,5c-1.47.87-2.94,1.72-4.42,2.57l-.23.13q-2.31,1.32-4.61,2.68l-1.4.82c-1.08.63-2.16,1.27-3.23,1.93l-3.19,2-3.14,1.94-4.9,3-4.92,3c-2.72,1.68-5.61,3.43-8.59,5.21l-1.83,1.09-.22.13c-2.58,1.55-5.24,3.14-7.88,4.67-2.35,1.36-4.77,2.76-7.32,4.06a30.33,30.33,0,0,0-3.26,1.82c-.72.47-1.43,1-2.14,1.47l-.31.21-.75.53a3.6,3.6,0,0,0-.84.39c-.32.21-.63.44-1,.67a12.35,12.35,0,0,0-1.14,1,4,4,0,0,0-.68,1,3.74,3.74,0,0,0-.32,1.21,3,3,0,0,0,.13,1.08,4.53,4.53,0,0,0,.42,1,7.85,7.85,0,0,0,.62,1c.41.56.89,1.16,1.43,1.79a43,43,0,0,0,6.7,5.83c1.57,1.23,2.77,2.23,3.82,3.2,1.2,1.1,2.52,2.22,4,3.41l2.72,2.16.49.4,1.21,1,1.85,1.46.23.19c.73.57,1.46,1.14,2.17,1.73l.58.47.58.47c1.14.92,2.16,1.75,3.13,2.63,1.48,1.33,2.82,2.59,4.09,3.83l1.87,1.85.51.51,1.53,1.51c.35.34.7.68,1,1l.52.51c.8.8,1.6,1.59,2.41,2.37,2.87,2.76,5.69,5.45,8.39,8l1.6,1.48c.83.77,1.66,1.53,2.47,2.32l1,.95c1,1,2,2,3.08,2.91,1.67,1.53,3,2.7,4.29,3.8s2.77,2.27,4.56,3.56l.58.42.12.09c.46.34.92.68,1.4,1l2.56,1.71c1.44,1,3,1.87,4.41,2.76l.2.12.12.07.26.16.25.15q2.06,1.26,4.12,2.48c1.43.84,3,1.75,5.06,2.86,1.54.86,3.09,1.63,4.76,2.38.85.39,1.71.77,2.57,1.14l2.66,1.18,1.75.8,1,.44.87.39a1.89,1.89,0,0,0,.38.16l.58.25.58.24c2,.83,3.71,1.53,5.37,2.17s3.45,1.26,5.62,2c1.88.62,3.79,1.12,5.44,1.55l1.07.28.31.07c3,.77,6,1.56,9,2.44l2.78.84.36.1,2,.59c1.82.54,3.63,1,5.37,1.5,2.67.71,5.52,1.32,8.7,1.87l.45.08,4.2.72c1.13.17,2.29.32,3.41.46l.14,0,.63.08.3,0,.17,0h.11l.34.05a2.23,2.23,0,0,0,.36,0,1.85,1.85,0,0,0,.44.06h.11l.27,0,1.46.17c1.88.17,3.82.18,5.53.18h.55c1.85,0,3.55-.05,5.21-.15,1.24-.08,2.44-.19,3.41-.29-.78-.26-1.6-.48-2.43-.68-1.23-.32-2.39-.61-3.51-.87s-2-.45-3-.65c-.6-.12-1.2-.22-1.8-.32l-.61-.1c-1-.17-2-.32-3-.47l-.53-.08-.77-.11-.37,0a1.09,1.09,0,0,0-.26-.05,1.66,1.66,0,0,0-.32,0l-.33-.05-.25,0-.18,0a2,2,0,0,0-.35,0h-.12l-.61-.08-2.57-.34c-4.48-.71-7.89-1.34-11.06-2s-6.42-1.64-10.41-2.86l-.78-.24-.12,0c-1.5-.46-3-.91-4.5-1.34-1.66-.46-3.33-.91-5.13-1.36l-.34-.09-.3-.07c-1.62-.41-3.29-.84-4.91-1.3s-3.35-1-5.23-1.66c-2.07-.72-4.15-1.55-6.15-2.35l-.2-.07-.15-.06-3-1.25c-.49-.22-1-.45-1.48-.69l-.83-.38q-1.12-.53-2.25-1l-1.77-.78-.22-.1c-1.07-.47-2.14-.94-3.21-1.43-1.55-.72-3.07-1.56-4.61-2.43s-3.15-1.78-4.85-2.78l-3.64-2.2-.53-.32-.9-.55c-1.62-1-3.22-2-4.6-2.93s-2.5-1.74-3.71-2.61l-.83-.61-.14-.1-.14-.11c-1.56-1.23-2.8-2.26-3.91-3.25l-.47-.42c-1.13-1-2.42-2.14-3.61-3.28l-.76-.72-.24-.23c-1.06-1-2.11-2-3.19-3l-2.06-1.9c-.68-.64-1.36-1.28-2-1.91-1.08-1-2.14-2-3.2-3l-.27-.26-.82-.78-.26-.25c-1.18-1.13-2.36-2.25-3.52-3.39l-1.91-1.87-2.17-2.13-.39-.38-1.54-1.52-.65-.64c-.47-.47-1-.94-1.44-1.4q-1.68-1.54-3.39-3.08c-1-.87-2-1.67-3.13-2.56s-2.06-1.64-3.11-2.44l-.15-.11-.53-.42-.93-.71-.11-.07-.14-.11-.12-.1-.37-.31-3-2.34c-1.22-.94-2.51-2-3.74-3-.38-.32-.75-.65-1.12-1l-.62-.56c-.47-.41-.95-.8-1.44-1.19l-.4-.33c-.94-.77-1.92-1.5-2.92-2.25l-1-.75c-.87-.68-1.78-1.43-2.78-2.3a23.56,23.56,0,0,1-2.47-2.64,8.17,8.17,0,0,1-.83-1.29,3.18,3.18,0,0,1-.1-.33v-.09l.06-.1a4.91,4.91,0,0,1,.46-.45l.78-.56.23-.15a3.78,3.78,0,0,0,.62-.44l.45-.47.79-.55c1.06-.74,2.26-1.57,3.45-2.33s2.36-1.42,3.35-2l1.36-.79c2.88-1.69,5.85-3.44,9.32-5.53q5.46-3.29,10.91-6.58,3.86-2.34,7.67-4.72l.42-.26,2-1.22,6.58-4.09,1-.6,1.62-1c1.2-.75,2.42-1.48,3.64-2.2l1.55-.92c1.1-.66,2.21-1.3,3.32-1.94l.23-.14,1.22-.71c5.15-3,10.26-6.07,15.92-9.5l3.9-2.36,3.39-2.05,5.85-3.54,3.39-2,.62-.38,1.52-.9c1.24-.74,2.5-1.44,3.89-2.21l.69-.38,1-.54c.66-.38,1.32-.75,2-1.1l1.23-.68.33-.18c.7-.39,1.41-.78,2.12-1.15,2.94-1.52,5.38-2.85,7.67-4.17Z"/><path d="M1173.68,706.33c-.56,2.16-1.11,4.33-1.56,6.52-.4,1.93-.7,3.88-1,5.84v0c-.22,1.62-.37,3.25-.53,4.88s-.3,3.46-.51,5.18a9.65,9.65,0,0,1-.45,1.91l-.09.17a6.14,6.14,0,0,1-.73-.22c-.42-.2-.81-.44-1.21-.68s-.48-.32-.72-.49c-.4-.35-.8-.69-1.19-1.06s-.84-.85-1.25-1.28c-.76-.79-1.43-1.65-2.11-2.51-.87-1.16-1.71-2.33-2.54-3.52l-1.06-1.53c-.61-.88-1.2-1.78-1.85-2.63a12.54,12.54,0,0,0-1.79-1.92,3.58,3.58,0,0,0-1.16-.65,2.39,2.39,0,0,0-.71-.1,2.15,2.15,0,0,0-.93.28,2.67,2.67,0,0,0-1,1,3.07,3.07,0,0,0-.29.64,3.89,3.89,0,0,0-.22.6c-.12.36-.22.73-.31,1.1-.34,1.38-.68,2.76-1.07,4.14a56.31,56.31,0,0,1-1.93,6,15.41,15.41,0,0,1-1.6,2.93,4.59,4.59,0,0,1-.54.54,6.06,6.06,0,0,1-1,.57,6.47,6.47,0,0,1-1.31.34,13,13,0,0,1-2.5,0,5.75,5.75,0,0,1-1.06-.29,3.4,3.4,0,0,1-.54-.33,16.21,16.21,0,0,1-2.28-2.18l-1-1.22c-.39-.52-.78-1-1.18-1.55s-.88-1.27-1.32-1.9c-.81-1.15-1.57-2.33-2.35-3.49s-1.52-2.37-2.28-3.55c-.47-.71-.91-1.45-1.39-2.16-.24-.36-.5-.71-.74-1.07a11.77,11.77,0,0,0-.89-1.21,2.87,2.87,0,0,0-.54-.45,5,5,0,0,0-.62-.29,2.22,2.22,0,0,0-.73-.1,1.92,1.92,0,0,0-.84.23,2.4,2.4,0,0,0-.86,1c-.15.3-.31.6-.44.91-.78,1.79-1.49,3.61-2.2,5.42-.8,2-1.6,4.07-2.44,6.09a28.81,28.81,0,0,1-1.28,2.62,17.75,17.75,0,0,1-1.42,2.15,1.29,1.29,0,0,1-.19.21,17.79,17.79,0,0,1-1.76-1.22c-1.11-.91-2.16-1.86-3.21-2.85s-1.88-1.8-2.79-2.74-2-2.06-2.94-3.1-2.14-2.26-3.23-3.37l-.79-.81-1-1c-.37-.38-.77-.73-1.15-1.09a13.71,13.71,0,0,0-1.08-.94,5.91,5.91,0,0,0-.52-.35,4.34,4.34,0,0,0-.7-.3,3.27,3.27,0,0,0-.77-.14l-.18,0a1.32,1.32,0,0,0-.7.19,3.19,3.19,0,0,0-1.08,1.05,11.15,11.15,0,0,0-1.33,3c-.23.66-.42,1.33-.62,2-.4,1.35-.79,2.71-1.23,4-.21.67-.44,1.34-.66,2-.11.34-.23.67-.34,1-.34,1-.7,1.88-1.07,2.81l-.18.45a7.67,7.67,0,0,1-.36.7,7.8,7.8,0,0,1-1-1,24.43,24.43,0,0,1-2.07-3.71c-.63-1.28-1.27-2.56-1.92-3.83-.45-.89-.92-1.78-1.41-2.66-.21-.37-.43-.75-.67-1.1a4.79,4.79,0,0,0-.46-.55,3.64,3.64,0,0,0-.54-.43,2.66,2.66,0,0,0-.56-.33,2.75,2.75,0,0,0-.89-.25,2.49,2.49,0,0,0-1.59.38,3.75,3.75,0,0,0-1,.87,8.72,8.72,0,0,0-.65.94c-.17.31-.34.61-.5.93-.33.66-.65,1.32-1,2-.68,1.4-1.29,2.83-1.93,4.25-.3.68-.64,1.34-1,2a19.3,19.3,0,0,1-1.8,3,7.24,7.24,0,0,1-.82.84,4.48,4.48,0,0,1-.56.32,4.36,4.36,0,0,1-.59.17,4.83,4.83,0,0,1-.85,0,8.33,8.33,0,0,1-1.89-.54,24.6,24.6,0,0,1-2.39-1.24c-.34-.19-.66-.44-1-.66s-.56-.4-.84-.6c-1.07-.88-2.11-1.79-3.14-2.71a38.16,38.16,0,0,0-3.49-2.86,17.64,17.64,0,0,0-1.67-1,19.13,19.13,0,0,0-1.94-.92c-.53-.22-1.07-.44-1.63-.61a4.85,4.85,0,0,0-2.45-.07,2.33,2.33,0,0,0-.84.36,1.11,1.11,0,0,0-.38.69,1.9,1.9,0,0,0,.11.85c.09.36.19.71.31,1.06.3.93.59,1.85.9,2.77,0,0,0,0,0,0-.24-1.24-.5-2.48-.69-3.73,0,0,0,0,0,.06,0-.25-.07-.51-.08-.76v.07a.78.78,0,0,1,.09-.33l0,.08.07-.12.07-.07.06,0a4.88,4.88,0,0,1,.55-.12,4.94,4.94,0,0,1,.86,0,5.77,5.77,0,0,1,1.23.35,27,27,0,0,1,4.46,2.69c2.22,1.76,4.21,3.78,6.34,5.64.57.5,1.19.93,1.8,1.37a18.63,18.63,0,0,0,1.64,1,14,14,0,0,0,4,1.62,4.78,4.78,0,0,0,2.79-.34,6,6,0,0,0,2.21-1.85c.21-.27.42-.55.62-.83a9.38,9.38,0,0,0,.64-1c.14-.25.28-.5.41-.75.25-.44.47-.88.7-1.33.47-.91.88-1.85,1.31-2.78s.89-2,1.37-2.94c.25-.53.52-1.06.78-1.59a12.31,12.31,0,0,1,.91-1.57c.07-.07.13-.14.2-.2l.15.09.22.22a30.89,30.89,0,0,1,1.65,3l.84,1.65c.52,1,1,2,1.51,3.08a28.83,28.83,0,0,0,1.73,3.19,10.43,10.43,0,0,0,1.25,1.56,8.9,8.9,0,0,0,.93.8,4.39,4.39,0,0,0,.51.32,2.18,2.18,0,0,0,.9.26,2.62,2.62,0,0,0,2.2-1.33,10.21,10.21,0,0,0,1.12-2.3l-.09.21c1-2.46,1.88-5,2.66-7.54.59-1.91,1.07-3.88,1.81-5.75a5.76,5.76,0,0,1,.3-.61.57.57,0,0,1,.13.08c.3.25.57.51.85.77s.68.62,1,.94c.49.47,1,1,1.44,1.45s1.17,1.19,1.75,1.78c1,1,2,2.08,2.94,3.12,1.89,2,3.85,4,5.91,5.86a38.55,38.55,0,0,0,3.52,2.86,5.52,5.52,0,0,0,1.25.71,2.54,2.54,0,0,0,1.44.13,4.11,4.11,0,0,0,2.17-1.88c.25-.36.51-.7.75-1.07s.47-.8.69-1.2a31.4,31.4,0,0,0,1.37-2.94c1.18-2.81,2.27-5.66,3.38-8.5.23-.58.46-1.15.7-1.73l.24-.56.12-.28.3.44c.27.38.54.76.8,1.15.39.61.77,1.23,1.17,1.84l1.44,2.22q1.2,1.83,2.43,3.66c.3.46.61.91.92,1.35s.8,1.16,1.22,1.73a39.75,39.75,0,0,0,3.64,4.35,15.06,15.06,0,0,0,2,1.61,5.1,5.1,0,0,0,1.34.57,7.27,7.27,0,0,0,1.48.25,11.51,11.51,0,0,0,3-.1,8,8,0,0,0,1.36-.34,7.09,7.09,0,0,0,1.28-.6,9.42,9.42,0,0,0,1-.7,5,5,0,0,0,.91-1,13.48,13.48,0,0,0,1.3-2.24,32.07,32.07,0,0,0,1.78-4.89c.4-1.34.78-2.68,1.14-4,.16-.6.3-1.2.44-1.8a18.27,18.27,0,0,1,.62-2.42.16.16,0,0,1,0-.07h0a12.6,12.6,0,0,1,1.42,1.5c.59.79,1.14,1.63,1.71,2.45l1.06,1.53c.44.62.86,1.26,1.31,1.87l1.3,1.77c.25.33.52.65.78,1s.4.52.61.77c.48.55,1,1.11,1.46,1.64a17.32,17.32,0,0,0,3.36,2.92c.51.31,1,.61,1.56.87a12.07,12.07,0,0,0,1.24.52,2.3,2.3,0,0,0,1.76-.15,2.88,2.88,0,0,0,1-1,5,5,0,0,0,.63-1.26,11.73,11.73,0,0,0,.63-3c.16-1.44.32-2.89.47-4.34s.26-3,.31-4.49c0-1.24,0-2.47,0-3.71,0-3.13-.19-6.26-.48-9.38h0Z"/><path d="M1164.62,568.15c-.64.31-1.29.59-1.94.87l.07,0c-.81.33-1.65.57-2.48.85s-1.68.61-2.5.94-1.78.68-2.63,1.1-1.71.86-2.55,1.31q-2.41,1.32-4.81,2.67c-.79.44-1.58.88-2.36,1.33s-1.54.88-2.32,1.31-1.57.91-2.36,1.36-1.69,1-2.54,1.46c-1.55.9-3.09,1.82-4.58,2.8s-3.26,2.17-4.87,3.27l-2.12,1.46c-.76.53-1.52,1.06-2.29,1.58L1122,592c-.76.52-1.54,1-2.3,1.52-1.65,1.12-3.31,2.2-5,3.28-3,1.95-6.13,3.73-9.17,5.62-.81.5-1.61,1-2.39,1.54-.36.26-.71.52-1.05.8l-.57.46c-.2.17-.39.36-.59.54a12.48,12.48,0,0,0-.86.92l-.58.68a5,5,0,0,0-.47.64,1.35,1.35,0,0,0-.23.69.49.49,0,0,0,.25.34,2.73,2.73,0,0,0,.62.3c.25.09.51.15.77.22l.46.1,1.51.29,1.77.34s0,0,0,0l-2-.49a16.08,16.08,0,0,1-2.29-.61h0a2.38,2.38,0,0,1-.44-.25h0a1.29,1.29,0,0,1-.17-.16l0-.06v-.05l0-.07a4.73,4.73,0,0,1,.28-.39,14.33,14.33,0,0,1,1.19-1.15c.24-.22.49-.41.74-.62a25.08,25.08,0,0,1,2.18-1.46l2.47-1.39,2.31-1.32,2.45-1.38c1.53-.88,3.07-1.73,4.57-2.67.8-.5,1.62-1,2.42-1.52l2.64-1.7,2.34-1.47c.8-.51,1.6-1,2.4-1.56,1.48-1,3-2,4.43-2.91s3.28-2.11,4.94-3.13,3.1-1.84,4.68-2.7l2.55-1.38,2.38-1.32,2.39-1.31c.77-.44,1.55-.84,2.33-1.26,1.63-.89,3.27-1.76,4.84-2.75.79-.5,1.58-1,2.36-1.5s1.54-.91,2.3-1.38l1.55-1c.5-.31,1-.62,1.51-.92a15.57,15.57,0,0,0,1.48-1c.57-.42,1.12-.87,1.66-1.34,0,0,0,0,0,0Z"/><path d="M1273.21,511.07a6.34,6.34,0,0,0-1.66.89l-.82.55-1.87,1.28a16,16,0,0,0-1.58,1.27c-2.74,1.78-5.52,3.5-8.31,5.19s-5.3,3.2-8,4.75c-2.87,1.66-5.76,3.27-8.64,4.89-1.44.8-2.89,1.58-4.33,2.37s-2.81,1.48-4.2,2.25c-5.84,3.19-11.7,6.34-17.48,9.64l-4.21,2.39c-1.27.72-2.55,1.41-3.8,2.16l-8.74,5.18c-2.86,1.68-5.69,3.42-8.55,5.11s-5.58,3.33-8.37,5c-1,.63-2.07,1.29-3.08,2a26.74,26.74,0,0,0-2.68,2,18.41,18.41,0,0,0-2.4,2.74c-1.72,2.24-3.27,4.62-4.77,7,0,0,0,0,0,0,1.35-1.14,2.68-2.32,4-3.51.58-.53,1.14-1.08,1.72-1.61.9-.83,1.75-1.71,2.71-2.47s2.21-1.51,3.33-2.24c.61-.4,1.21-.82,1.82-1.2l4.08-2.51c2.76-1.67,5.55-3.31,8.3-5q4.66-2.84,9.35-5.64l4.11-2.45c1.33-.8,2.69-1.55,4-2.32l3.9-2.21c1.35-.77,2.7-1.56,4.07-2.31l9.14-5c2.7-1.47,5.44-2.88,8.14-4.35,2.86-1.55,5.7-3.13,8.55-4.72,5.8-3.23,11.51-6.65,17.17-10.12l2.49-1.55.95-.59a13.74,13.74,0,0,1,1.22-.75l1.47-.71a3.29,3.29,0,0,0,.46-.3l.68-.44,1.19-.8c.39-.25.77-.52,1.17-.75l.12.23a28,28,0,0,1,1.42,6.14c.43,3.34.55,6.7.66,10.06.11,3.19,0,6.38,0,9.57,0,1.44-.07,2.88-.09,4.31,0,1.15-.05,2.3-.07,3.45,0,.46,0,.91,0,1.37,0,1.9.07,3.81.1,5.71,0,.64.06,1.28.09,1.92,0,1,.09,2,.13,3,0,.68.1,1.36.15,2s.1,1.44.18,2.16c.17,1.58.33,3.17.5,4.75.4,3.5.76,7,1.14,10.5.35,3.2.6,6.4.91,9.59a79,79,0,0,0,1.68,9.92,64.75,64.75,0,0,0,1.87,6.71h0c.09-3.4.28-6.78.19-10.18,0-1.8-.14-3.61-.3-5.41-.13-1.45-.28-2.9-.41-4.36-.59-6.58-1.39-13.14-2.1-19.71-.18-1.72-.32-3.45-.47-5.17s-.18-3.33-.26-5-.08-3.16-.11-4.74c0-.67,0-1.35,0-2l0-2.25q.08-5,.2-10.08c0-.78,0-1.56,0-2.34l0-2.84c0-.72,0-1.43-.08-2.15s0-1.46-.08-2.18c-.09-1.41-.16-2.83-.31-4.23a43.22,43.22,0,0,0-1.44-8.38,8.61,8.61,0,0,0-1.18-2.62,3.26,3.26,0,0,0-1-1,2,2,0,0,0-1-.22A4.06,4.06,0,0,0,1273.21,511.07Z"/><path d="M1247.14,501.62a3.49,3.49,0,0,0-1.31.5,7.43,7.43,0,0,0-1,.81c-.13.12-.27.23-.39.35-.29.27-.58.54-.86.82a5.52,5.52,0,0,0-.74.92c-1,1-1.92,2-2.93,2.9-1.18,1.09-2.36,2.16-3.56,3.22-2.18,2-4.48,3.77-6.78,5.59-2.45,1.83-4.89,3.71-7.43,5.44-2.72,1.85-5.38,3.8-8.1,5.66-1.29.87-2.56,1.76-3.81,2.69s-2.73,2.11-4.07,3.2c-2.44,2-4.84,4.09-7.19,6.21-1.72,1.55-3.52,3-5.31,4.47l-1.4,1.14-.12.09-.93.74a1.28,1.28,0,0,0-.29.23l-2.89,2.26,0,0-.13.1-.14.11,0,0q-3.68,2.81-7.34,5.66c-2.57,2-5.11,4.06-7.65,6.12l-2.91,2.36c-2.16,1.59-4.33,3.17-6.45,4.81-2.33,1.81-4.6,3.69-6.84,5.6,0,0,0,0,0,0a87.64,87.64,0,0,0,9.39-4.84c1.41-.84,2.81-1.73,4.15-2.68s2.56-1.95,3.82-2.95c2.11-1.67,4.23-3.33,6.33-5l2.63-2-.06.05c3.15-2.43,6.35-4.79,9.48-7.23l.08,0,.19-.15h0l.27-.21.16-.12.52-.4-.28.22.39-.3.28-.22h0l.21-.16-.27.22c1.27-1,2.51-2,3.74-3s2.58-2.14,3.83-3.25c2.3-2,4.64-4,7-6l1.17-.95c1.23-1,2.47-1.87,3.74-2.77s2.62-1.79,3.93-2.69l3.81-2.65c1.36-.94,2.74-1.86,4.09-2.82q4.08-2.91,8-6c2.46-1.94,4.84-4,7.18-6.07,1.55-1.37,3-2.8,4.51-4.24l.43-.29a6.62,6.62,0,0,0,.89-.79c.41-.39.81-.8,1.24-1.18l.12-.08.1.12a16.22,16.22,0,0,1,1.06,1.86l1,2.05c.69,1.4,1.39,2.79,2.16,4.15s1.49,2.74,2.27,4.1c.4.68.76,1.39,1.15,2.08s.71,1.26,1,1.9c.59,1.24,1.2,2.45,1.82,3.67,0,0,0,0,0,0-.2-1.69-.42-3.4-.77-5.07a35.08,35.08,0,0,0-1.28-4.36,51,51,0,0,0-1.93-4.73c-.65-1.41-1.38-2.8-2.1-4.19-.34-.66-.68-1.32-1-2a10.54,10.54,0,0,0-.54-.92,4.32,4.32,0,0,0-1.77-1.7,2.76,2.76,0,0,0-1-.27l-.23,0A3.87,3.87,0,0,0,1247.14,501.62Z"/><path d="M1275.93,549.51q5.74,1.88,11.63,3.28c1.54.36,3.1.66,4.65,1l5.07,1c1.68.35,3.38.57,5.08.81l5.69.84c1.62.25,3.24.47,4.86.73l2.38.35c.93.12,1.87.28,2.81.38,1.2.11,2.41.26,3.61.35l3.71.27c2.25.16,4.52.24,6.77.35,2.5.11,5,.28,7.48.48,2.14.17,4.25.41,6.38.67,2.31.32,4.62.65,6.94.91s4.82.57,7.24.89c1.37.19,2.75.39,4.13.53,1.64.16,3.27.31,4.91.42s3.1.2,4.65.33l4.81.37c1.45.1,2.9.21,4.35.34s3.09.3,4.64.43c3.12.27,6.23.61,9.33,1,1,.14,2.1.27,3.16.39s2.22.2,3.33.29,2.11.13,3.16.17l3.61.14,2.18.06c.47,0,.93.08,1.4.13s1,.12,1.47.13l2,0c1.08,0,2.16.06,3.24.13s2.11.17,3.16.27c.87.13,1.74.28,2.61.44,1.17.2,2.35.36,3.52.49s2.37.16,3.55.21,2.14.18,3.2.29c2.19.23,4.39.35,6.59.45l3.09.12c.93,0,1.87,0,2.8.09s1.62.23,2.43.32l2.19.22c1,.15,2,.29,2.92.42l6.92,1.07c2.42.38,4.83.75,7.26,1.06,1.65.23,3.31.46,5,.73s3.11.57,4.67.88,3.28.71,4.93,1.09c.72.16,1.44.32,2.16.46s1.67.27,2.5.43a80.29,80.29,0,0,1,9.33,2.27c3,.94,6,2.07,8.92,3.23l1.84.76a73.37,73.37,0,0,1,7.1,4q2.25,1.34,4.48,2.69l4.6,2.71c.58.35,1.16.71,1.76,1l3.09,1.66c.6.33,1.21.63,1.82.93.81.41,1.6.82,2.42,1.2,1.78.84,3.57,1.68,5.36,2.5,3,1.39,6.14,2.64,9.26,3.87,2.85,1.25,5.54,2.85,8.27,4.36,1.4.77,2.78,1.59,4.16,2.4s3,1.72,4.43,2.62c3,1.87,6.05,3.79,9.08,5.68l4.23,2.67c1.39.88,2.73,1.85,4.08,2.8.61.42,1.2.86,1.79,1.3.76.59,1.52,1.18,2.25,1.8s1.67,1.48,2.5,2.22c1.56,1.41,3.12,2.82,4.76,4.13s3.3,2.68,5,4c1.84,1.39,3.71,2.73,5.56,4.09l0,0c-1-1.54-2.1-3-3.22-4.47q-1.48-1.91-3.07-3.7c-1.09-1.23-2.25-2.38-3.44-3.51s-2.54-2.29-3.82-3.44-2.49-2.2-3.81-3.22-2.81-2.1-4.25-3.09c-.68-.47-1.36-1-2-1.41s-1.29-.82-1.92-1.22l-4.52-2.85c-2.52-1.59-5-3.18-7.6-4.74-1.15-.71-2.34-1.38-3.5-2.07-1.33-.78-2.66-1.58-4-2.34s-2.46-1.36-3.68-2.05-2.42-1.36-3.67-2-2.36-1.09-3.58-1.56-2.67-1.07-4-1.62q-2.31-1-4.59-2c-1.52-.69-3.05-1.38-4.55-2.13-1.67-.83-3.33-1.65-5-2.53-.75-.4-1.51-.79-2.25-1.22l-2.72-1.59c-3-1.77-6-3.6-9.06-5.4l-2.31-1.36a36.67,36.67,0,0,0-5-2.48c-1.43-.59-2.86-1.14-4.3-1.7a76.1,76.1,0,0,0-8.87-2.93c-1.47-.37-2.94-.75-4.44-1-.67-.13-1.35-.28-2-.4s-1.49-.24-2.23-.38c-1.59-.29-3.16-.68-4.73-1s-3.07-.64-4.61-.95c-3.16-.63-6.35-1.06-9.53-1.46-2.2-.31-4.41-.64-6.6-1-1.1-.19-2.2-.35-3.31-.51s-2.22-.35-3.34-.5h.07c-1.1-.14-2.19-.32-3.28-.46-.45-.06-.91-.09-1.37-.13l-1.56-.18a18.84,18.84,0,0,0-2.37-.24l-2.48-.06c-1.84-.06-3.69-.16-5.53-.27s-3.69-.31-5.53-.49c-.89-.08-1.78-.11-2.67-.15s-1.9-.12-2.85-.24c-1.45-.21-2.88-.49-4.33-.7-1.63-.22-3.29-.37-4.93-.44-.87,0-1.73-.06-2.6-.08s-1.62-.07-2.43,0-1.61.12-2.42.1-1.82,0-2.73-.09c-2-.07-3.92-.17-5.88-.28-1.67-.09-3.34-.28-5-.46-.72-.08-1.43-.2-2.15-.28l-2.45-.26c-1.71-.18-3.41-.39-5.12-.54s-3.63-.32-5.45-.5c-1.6-.16-3.2-.28-4.8-.39l-5.33-.41c-1.64-.12-3.27-.18-4.9-.3-1.85-.14-3.69-.29-5.52-.51-1.61-.18-3.21-.43-4.81-.62-1.83-.21-3.65-.43-5.48-.61s-3.41-.38-5.11-.6c-2.57-.35-5.15-.59-7.73-.75-1.35-.09-2.7-.19-4.06-.24s-2.79-.09-4.19-.13c-2.89-.09-5.78-.21-8.67-.39-1.4-.09-2.8-.22-4.19-.34s-2.53-.3-3.8-.46q-4.49-.66-9-1.27l-5.34-.74c-1.49-.2-3-.51-4.43-.8l-4.77-.94c-1.6-.31-3.22-.56-4.83-.8-3.54-.51-7.1-.81-10.67-1C1275.92,549.49,1275.92,549.51,1275.93,549.51Z"/><path d="M1282.87,764.62c-1.18,0-2.35.16-3.53.27-1,.1-1.91.19-2.87.31-2,.24-4,.46-6,.72s-4.12.62-6.18.91-4.34.63-6.52.92l.36,0c-1.73.24-3.47.46-5.21.69q-4.89.61-9.78,1.17c-1.36.15-2.71.31-4.07.41l-6.15.49c-1.52.12-3,.17-4.57.26-1.34.07-2.68.16-4,.2l-6.11.17c-.49,0-1,0-1.45,0l-3.49,0c-.93,0-1.85,0-2.77-.08-1.25-.05-2.5-.07-3.74-.16l-4.16-.29c-.54,0-1.08-.12-1.61-.18l-1.75-.2a75.62,75.62,0,0,0-9.38-.93q-2.37,0-4.74.06c-.84,0-1.68,0-2.52.12l-2.87.29-.55.07h.07l-.2,0h.07l-.17,0-.22,0-.26,0a1.43,1.43,0,0,0-.29,0l-.27,0a.9.9,0,0,0-.28,0,1,1,0,0,0-.29,0l-.56.07-.24,0h-.1l.12,0h.09l.13,0c-3,.37-6.1.73-9.13,1.26-1.09.19-2.17.4-3.24.62-.46.1-.91.2-1.37.26-1,.15-2,.3-3,.47-.78.13-1.55.28-2.33.39h0l-1.31.17s0,0,0,0c.59.1,1.18.21,1.77.26l1.2.1c1.14.09,2.28.16,3.42.22a39.79,39.79,0,0,0,4.63-.15c3.14-.21,6.24-.65,9.36-1h.07l.27,0-.27,0,.27,0,.14,0-.13,0h0l-.21,0,.59-.07h-.1l.6-.08h.16l.47-.07.54-.07.39,0c1.35-.13,2.69-.28,4-.33,1.55-.06,3.09-.1,4.63-.12.73,0,1.47.05,2.2.08s1.36.08,2,.13,1.38.15,2.07.22l1.73.22,2.46.37c.93.13,1.87.22,2.81.33,1.66.19,3.34.29,5,.41s3.3.14,5,.21,3.23.05,4.84.07c.57,0,1.14,0,1.71,0l2.46-.07c1.58,0,3.17-.06,4.75-.15,3.3-.19,6.61-.36,9.91-.64l3.52-.28c.49,0,1-.07,1.48-.13l5.89-.67c2.95-.34,5.89-.72,8.84-1.1,3.36-.43,6.71-.87,10.07-1.32a62.94,62.94,0,0,0,9.45-1.87c1.31-.38,2.59-.84,3.88-1.29,1.51-.52,3-1.09,4.48-1.71,0,0,0,0,0,0Z"/><path d="M1132.57,641.76h-.2a7.66,7.66,0,0,1-1.64-.45,6.64,6.64,0,0,1-1.18-.68,5.75,5.75,0,0,1-.74-.74,7.45,7.45,0,0,1-.5-.84c0-.15-.1-.29-.14-.44a2.65,2.65,0,0,0,.42.4,10,10,0,0,0,1.94,1.26,10.89,10.89,0,0,0,3.18,1c.57.07,1.14.14,1.72.19-.42.12-.74.21-1.07.27a8.44,8.44,0,0,1-.87,0l-.41,0-.51,0Zm9.51-3.84.18-.53a11.56,11.56,0,0,0,.45-2.92,17.93,17.93,0,0,0-.43-4.51,9.54,9.54,0,0,0-.81-2.23,14.43,14.43,0,0,0-.72-1.37,10.74,10.74,0,0,0-2.63-2.85,10.07,10.07,0,0,0-1.82-1.17c-.33-.17-.67-.34-1-.49s-.65-.28-1-.41a5.14,5.14,0,0,0-1.69-.45l.64-.57c1.11-1,2-1.93,2.83-2.77h.6a7.72,7.72,0,0,1,1,.05,10.4,10.4,0,0,1,2.08.55,12.72,12.72,0,0,1,2.39,1.45,17.35,17.35,0,0,1,2.62,2.58,16.36,16.36,0,0,1,1.9,3,14.54,14.54,0,0,1,.74,3l0,.35v.08a6.85,6.85,0,0,1,.08.88,16.84,16.84,0,0,1,0,2.74,10.2,10.2,0,0,1-.57,2.21,7.51,7.51,0,0,1-.66,1.12,7.23,7.23,0,0,1-1,.93,8.34,8.34,0,0,1-1.32.76A14.27,14.27,0,0,1,1142.08,637.92Zm9.76-40.33a1.5,1.5,0,0,0-.37,0,1.23,1.23,0,0,0-.6.37l-.08.07c-.2.22-.4.43-.61.64l-.1.11-.72.74-.45.49-.45.5a1.41,1.41,0,0,0-1-.39,1.21,1.21,0,0,0-.7.22,4.71,4.71,0,0,0-.72.62l-.2.18-.29.26-.1.1-.32.28c-.28.25-.54.51-.81.76a3.64,3.64,0,0,0-.55.75l-.06.1c-.77.77-1.54,1.56-2.31,2.35l-.56.58c-.78.81-1.58,1.59-2.39,2.37l-.86.84-.73.73c-.8.78-1.6,1.57-2.41,2.34l-.84.8c-.72.68-1.43,1.36-2.13,2.06-1.66,1.66-3.26,3.37-4.77,5.1s-3.16,3.81-4.85,6.1a15.05,15.05,0,0,0,1.43-1c.78-.58,1.58-1.19,2.42-1.84l-.54.54-.39.42c-.66.73-1.32,1.45-2,2.15l-.1.1c-1,.93-2.22,2.15-3.49,3.29-.36.33-.72.65-1.09,1l-.54.48-1,.87-.36.35-.09.08-.12.12-.12.12a1.91,1.91,0,0,0-.5.83,1.25,1.25,0,0,0,1.19,1.6,1.41,1.41,0,0,0,.66-.17,7.91,7.91,0,0,0,.93-.62l.15-.11q.57-.42,1.14-.87c.58-.46,1.13-1,1.5-1.29l.27-.25c.41-.36.81-.73,1.19-1.13l1-1,.48-.51.8-.85,0,.16c0,.29,0,.59,0,.88a17.53,17.53,0,0,0,.16,2.2,8.1,8.1,0,0,0,.3,1.2c.1.33.16.56.21.79l.18.67q.13.42.3.81v.5a11.27,11.27,0,0,0,.22,2.55,6.25,6.25,0,0,0,1,2.33,7,7,0,0,0,1.87,1.81,7.51,7.51,0,0,0,2.18,1,7.16,7.16,0,0,0,.8.19l.13,0,.4.09a5.12,5.12,0,0,0,1.11.15h.18a7.86,7.86,0,0,0,2-.23,6.22,6.22,0,0,0,1-.36l.26-.12a6.79,6.79,0,0,0,1.18-.65,10.35,10.35,0,0,0,1.64-1.38c.13-.13.26-.27.38-.41a12.64,12.64,0,0,0,1.38-.25,20.31,20.31,0,0,0,3.42-1,9.41,9.41,0,0,0,2.07-1.28,7.71,7.71,0,0,0,1.75-2,10.27,10.27,0,0,0,1.27-4.74,13.1,13.1,0,0,0-.08-2.4l-.11-.81-.1-.8c-.07-.38-.15-.81-.24-1.23a11.8,11.8,0,0,0-1.37-3.52,12.57,12.57,0,0,0-.76-1.1l-.13-.18c-.53-.71-.92-1.21-1.31-1.67a16.63,16.63,0,0,0-2-1.88,15.57,15.57,0,0,0-2.38-1.64,10.12,10.12,0,0,0-3.39-1.13l.51-.5.73-.77c.92-1,1.84-2,2.78-3l.75-.76.64-.65.56-.58.71-.72,1-1,1.83-1.84.17-.17c.84-.83,1.71-1.69,2.53-2.59l.14-.15a37.15,37.15,0,0,0,2.58-3,1.4,1.4,0,0,0-.5-1.91A1.41,1.41,0,0,0,1151.84,597.59Z"/><path d="M1430.11,727c.09.23.2.45.3.68l0,0a6,6,0,0,1,.18.73,6.19,6.19,0,0,1,0,1.55c-.25,1.56-.69,3.07-1.06,4.6q-.32,1.32-.6,2.67-.63,2.94-1,5.93c-.43,3.31-.87,6.62-1.25,9.94-.24,2.16-.49,4.32-.73,6.48-.06.49-.09,1-.13,1.48-.12,1.27-.22,2.53-.33,3.8-.32,3.64-.57,7.27-.82,10.91-.24,3.45-.42,6.89-.56,10.34s-.27,7-.29,10.45q0,11,.18,22c0,1.44,0,2.89.1,4.34.07,1.63.1,3.28.23,4.92s.24,3.32.43,5,.38,3.14.6,4.72h0c.22,1.69.45,3.38.63,5.07q.3,2.84.56,5.68c.15,1.64.36,3.28.51,4.92.18,1.92.37,3.85.71,5.75.13.72.26,1.45.42,2.17a5.55,5.55,0,0,0,.3,1,10.24,10.24,0,0,0,.5,1.13,5.52,5.52,0,0,0,.46.62,12.29,12.29,0,0,0,2.53,2.46l-.34-.27c.92.78,1.8,1.63,2.68,2.46l1.34,1.26c.49.45,1,.86,1.5,1.29,1,.83,1.93,1.62,2.86,2.47.46.42.94.84,1.38,1.29s.83.92,1.22,1.4a12.84,12.84,0,0,1,1.2,1.89,6.5,6.5,0,0,1,.25.86V879a1,1,0,0,1,0,.14h-1.07c-.42,0-.83,0-1.24,0a20.14,20.14,0,0,0-2.9.35,22.2,22.2,0,0,0-2.4.61,7,7,0,0,0-2.18.9,4.91,4.91,0,0,0-1.11,1.07l-.2.28a7.15,7.15,0,0,1-.61.62,4.4,4.4,0,0,1-.56.31,7.33,7.33,0,0,1-1,.24,16.9,16.9,0,0,1-2.36,0c-.87,0-1.75-.09-2.62-.15-1.67-.11-3.33-.27-5-.44s-3.4-.44-5.1-.58-3.47-.25-5.2-.32c-1.89-.09-3.78-.18-5.66-.29s-3.5-.17-5.26-.18-3.48,0-5.21-.1-3.48-.16-5.21-.27l-3.39-.27c-.87-.07-1.73-.19-2.6-.3a23.51,23.51,0,0,1-5-1.22,8.46,8.46,0,0,1-1.34-.77,13.85,13.85,0,0,1-1.74-1.77c-.08-.12-.16-.24-.23-.36s.09-.33.14-.49a6.38,6.38,0,0,1,.43-.71,11.14,11.14,0,0,1,1.58-1.41l1-.76c1.39-1,2.8-2,4.27-2.93.69-.43,1.38-.89,2.09-1.28s1.45-.79,2.18-1.18c1.55-.84,3.11-1.66,4.66-2.48a21.09,21.09,0,0,0,2.15-1.29,26.53,26.53,0,0,0,2.25-1.7c.34-.29.67-.6,1-.91a8.31,8.31,0,0,0,.82-1l.14,0a1.75,1.75,0,0,0,1-.78,1.72,1.72,0,0,0,.16-1.45,2.08,2.08,0,0,0-.28-.58,2.65,2.65,0,0,0-.77-.76,1.37,1.37,0,0,0-.53-.21l-.26-.26-.52-.53a2.56,2.56,0,0,0-.76-.48c-1.32-1.12-2.73-2.14-4.12-3.17-2.76-2.14-5.45-4.36-8.15-6.58-2.87-2.35-5.62-4.85-8.39-7.31-2.51-2.23-5-4.51-7.48-6.71-1.41-1.24-2.8-2.5-4.24-3.71l-4.83-4.13c-2.57-2.19-5.13-4.39-7.71-6.56-.54-.44-1-.93-1.57-1.39l-2.92-2.62-1.67-1.49c-.49-.44-1-.92-1.41-1.38q-2.22-2.16-4.43-4.33c-.48-.46-.91-1-1.36-1.45l-2.66-2.85c-2.47-2.63-4.84-5.35-7.23-8-1.09-1.22-2.17-2.45-3.25-3.67s-2.14-2.47-3.24-3.67c-2.37-2.6-4.72-5.21-7.12-7.77-2.58-2.77-5.17-5.53-7.72-8.33-1.27-1.4-2.56-2.8-3.83-4.21s-2.61-3-3.91-4.44c-.91-1-1.85-2-2.72-3.12-1.5-1.85-3-3.72-4.51-5.53-.42-.49-.86-1-1.29-1.46s-.77-1-1.16-1.43c-1.44-1.74-2.94-3.42-4.49-5.07-.78-.83-1.54-1.69-2.32-2.53,0,0,0,0,0,0,.55,1.21,1.1,2.4,1.72,3.57.53,1,1.09,2,1.65,3s1.24,2.12,1.88,3.16c.22.36.44.72.68,1.06,1.35,1.84,2.79,3.59,4.23,5.34.84,1,1.66,2.05,2.54,3,2.47,2.75,4.93,5.51,7.44,8.23s5.28,5.69,7.95,8.5,5.24,5.61,7.84,8.43c2.47,2.67,4.87,5.42,7.29,8.14,1,1.08,1.92,2.15,2.88,3.23,1.16,1.3,2.3,2.64,3.5,3.92l4.5,4.81c1,1.06,2,2.06,3.06,3.08l2.74,2.68c.34.34.68.69,1,1l5,4.47c2.4,2.16,4.9,4.21,7.35,6.31,2.7,2.31,5.41,4.6,8.08,7,1.44,1.27,2.91,2.51,4.33,3.8l4.65,4.22c2.54,2.31,5.09,4.59,7.69,6.83s5.32,4.54,8,6.77l3.06,2.5c.87.7,1.74,1.4,2.58,2.14a3.29,3.29,0,0,0,.52.72l.46.45a15.45,15.45,0,0,1-1.7,1.53c-.61.46-1.24.9-1.88,1.31s-1.47.82-2.21,1.21q-2.3,1.2-4.59,2.43c-.73.4-1.47.79-2.18,1.22s-1.4.85-2.08,1.3-1.51,1-2.25,1.51-1.59,1.18-2.37,1.78l-.86.67c-.24.18-.47.37-.69.56a7.8,7.8,0,0,0-1.14,1.29,6.59,6.59,0,0,0-.82,1.58,3.45,3.45,0,0,0-.24,1.65,3.74,3.74,0,0,0,.63,1.72,11.65,11.65,0,0,0,1.31,1.59,10.49,10.49,0,0,0,2.75,2.12,16.14,16.14,0,0,0,3.56,1.23,40.94,40.94,0,0,0,4.8.75c1.78.22,3.58.33,5.36.45s3.47.2,5.2.25,3.44.06,5.17.08,3.52.12,5.28.22c3.5.2,7,.29,10.51.6,1.58.14,3.15.38,4.73.55s3.14.32,4.71.43l2.46.14c.8,0,1.6.08,2.4.06a10,10,0,0,0,1.34-.17,6.38,6.38,0,0,0,.89-.19,7.72,7.72,0,0,0,1.14-.5,5.41,5.41,0,0,0,1.45-1.16,7,7,0,0,0,.76-1,4.26,4.26,0,0,1,.43-.42l.11-.06c.77-.3,1.55-.6,2.34-.82a19.08,19.08,0,0,1,2.36-.51c.71-.08,1.43-.14,2.15-.17a11.51,11.51,0,0,0,1.76-.15,2.27,2.27,0,0,0,1.17-.74,3.36,3.36,0,0,0,.78-1.62,5.47,5.47,0,0,0-.71-3.39,11.35,11.35,0,0,0-1.37-2.06,17.06,17.06,0,0,0-1.63-1.87c-1.21-1.18-2.45-2.3-3.71-3.43-.63-.55-1.26-1.11-1.87-1.69s-1.12-1.08-1.69-1.62-1.21-1.19-1.85-1.74c-.3-.27-.62-.51-.92-.78s-.68-.7-1-1.06l-.14-.19.06.08a3.67,3.67,0,0,1-.4-.65,14.27,14.27,0,0,1-.57-2.34c-.17-.87-.3-1.73-.43-2.61-.19-1.73-.35-3.47-.55-5.21s-.3-3.33-.47-5c-.2-1.88-.39-3.76-.63-5.64s-.48-3.78-.75-5.66c-.1-1-.21-1.95-.32-2.92-.09-.75-.14-1.5-.19-2.25s-.14-1.58-.18-2.37c0-1.12-.09-2.24-.14-3.36-.14-3.27-.19-6.56-.23-9.84q-.06-6.11-.1-12.21c0-1.7,0-3.39,0-5.09s0-3.51.1-5.26c.1-3.34.22-6.67.41-10,.24-4.06.51-8.1.79-12.15.48-6.74,1.18-13.45,2-20.15.41-3.23.91-6.47,1.15-9.72.11-1.41.16-2.83.2-4.25,0-1.09,0-2.18,0-3.27a11.36,11.36,0,0,0-.43-2.9,5.29,5.29,0,0,0-.48-1,5,5,0,0,0-.82-1h0S1430.1,727,1430.11,727Z"/><path d="M1270.23,776.27l-2.54,1.37c-.83.45-1.63.93-2.42,1.42a46,46,0,0,0-4.14,3.05c-.24.19-.46.4-.69.6l-1.38,1.26c-.52.48-1,1-1.49,1.51-1.29,1.35-2.52,2.75-3.77,4.15-2.76,3.09-5.27,6.41-7.78,9.71-1,1.28-2.06,2.56-3.09,3.84s-2.28,2.79-3.42,4.18c-1,1.16-2,2.29-2.93,3.46q-1.74,2.11-3.47,4.24c-2.2,2.71-4.45,5.36-6.63,8.08-1.13,1.41-2.21,2.87-3.31,4.31s-2,2.65-3,4-2.09,2.81-3.15,4.21c-1.63,2.09-3.22,4.22-4.79,6.35a7.72,7.72,0,0,1-.53.61,5.93,5.93,0,0,1-.84.74,38.54,38.54,0,0,1-4.41,2.43c-1.46.74-2.91,1.47-4.34,2.27s-2.91,1.63-4.36,2.48a31.06,31.06,0,0,0-4.13,2.91c-.57.46-1.11,1-1.65,1.47a3.06,3.06,0,0,0-.73.45l-.43.38-.81.65a12.35,12.35,0,0,1-1.91,1.14l-.86.31a6.24,6.24,0,0,0-1,.46,3.37,3.37,0,0,0-1.17,1.26,6.26,6.26,0,0,0-.56,1.37,3.52,3.52,0,0,0-.11,1.48,4.92,4.92,0,0,0,.17.85,5.58,5.58,0,0,0,.35.79,4.18,4.18,0,0,0,.53.72,4.59,4.59,0,0,0,.74.72c2,1.64,4.63,2.24,7.14,2.66,1.79.29,3.62.38,5.43.49,1.62.1,3.25.14,4.87.18,3.38.08,6.77.1,10.13.41,1.63.16,3.26.38,4.88.55s3.16.34,4.74.53,3.19.34,4.79.45c.81.06,1.62.1,2.43.15s1.64.16,2.46.26a86.64,86.64,0,0,0,9.92.53,32.46,32.46,0,0,0,5.31-.36A21.64,21.64,0,0,0,1253,870c.87-.34,1.76-.66,2.6-1.08a4.49,4.49,0,0,0,2-1.93,5.64,5.64,0,0,0,.43-2.81,21.67,21.67,0,0,0-.38-2.8c-.15-.75-.33-1.48-.5-2.22-.07-.33-.14-.67-.2-1a4.51,4.51,0,0,1,0-.52,6.94,6.94,0,0,1,.31-1,26.47,26.47,0,0,1,1.78-3c.69-1,1.38-2.07,2.12-3.07.9-1.16,1.8-2.31,2.75-3.42,1.16-1.36,2.34-2.71,3.52-4.07s2.14-2.43,3.29-3.59a42.34,42.34,0,0,1,3.59-3.37c1.59-1.27,3.14-2.59,4.73-3.86l5.27-4.16c2.56-1.95,5.13-3.89,7.72-5.79,2.87-2.1,5.75-4.19,8.57-6.36l.57-.44-.07.06.2-.16h0l0,0,.1-.08-.07,0,.21-.16-.08.07c.27-.22.55-.43.83-.64l.42-.33-.35.27c1.43-1.11,2.78-2.31,4.16-3.49s2.54-2.15,3.75-3.3,2.34-2.3,3.49-3.49,2.36-2.46,3.47-3.75c.75-.88,1.48-1.77,2.22-2.65,0,0,0,0,0,0-1.53.85-3,1.78-4.51,2.7s-2.78,1.8-4.13,2.76c-2.82,2-5.45,4.26-8.07,6.53-.8.69-1.59,1.36-2.41,2l-.06,0,.06,0h0l.07-.06,0,0h0l.06,0,.2-.15-.24.19,0,0-1.1.85-.19.15.14-.11-.26.2,0,0-.08.06,0,0,0,0c-2.58,2-5.19,3.89-7.8,5.81q-4.32,3.17-8.58,6.42-4.08,3.1-8.05,6.4c-1.24,1-2.53,2-3.73,3.07-.61.55-1.19,1.13-1.77,1.7s-1.1,1.08-1.62,1.64c-1.12,1.21-2.19,2.44-3.27,3.67s-2.31,2.65-3.42,4-2.24,2.72-3.24,4.16-1.94,2.78-2.77,4.25a15.28,15.28,0,0,0-.92,2,5.43,5.43,0,0,0-.3,2.11,11.14,11.14,0,0,0,.24,1.5c.25,1.17.54,2.34.75,3.52a11.59,11.59,0,0,1,.1,2,2.09,2.09,0,0,1-.08.34l-.18.18a6.92,6.92,0,0,1-1,.54l-1.45.57c-.51.2-1,.42-1.55.6s-1.22.38-1.85.53c-.46.11-.92.19-1.39.26a37,37,0,0,1-4.59.19c-1.68,0-3.36-.06-5-.16s-3.43-.24-5.14-.46c-1.54-.19-3.09-.23-4.63-.35s-3.19-.27-4.77-.47-3.16-.34-4.73-.52-3.25-.41-4.88-.52-3.38-.24-5.07-.27c-4.74-.09-9.49-.14-14.21-.64a20.69,20.69,0,0,1-4.19-1,10.91,10.91,0,0,1-1.53-.86c-.17-.15-.32-.3-.47-.46a3.37,3.37,0,0,1-.19-.32l0-.1V862c0-.14.07-.27.12-.4l.2-.37.12-.06c.57-.22,1.16-.41,1.72-.67a10.83,10.83,0,0,0,1.45-.82c.54-.39,1.06-.8,1.59-1.22.21-.16.4-.34.6-.51a3.35,3.35,0,0,0,.61-.75c.73-.67,1.46-1.31,2.24-1.93a68.37,68.37,0,0,1,8.34-5c1.43-.76,2.91-1.47,4.36-2.2.75-.38,1.5-.76,2.23-1.17a11.82,11.82,0,0,0,2.54-1.89,10.46,10.46,0,0,0,1.07-1.32c.26-.36.51-.71.78-1.07.46-.63.92-1.26,1.4-1.89,1-1.35,2-2.71,3-4.08s2-2.67,2.92-4,1.89-2.6,2.87-3.88,1.75-2.3,2.63-3.44l0,0c2.1-2.63,4.27-5.21,6.39-7.83s4.37-5.38,6.62-8c1.52-1.79,3-3.63,4.44-5.46.69-.86,1.39-1.72,2.08-2.59s1.31-1.69,2-2.54c1-1.32,2-2.64,3.1-3.93s2-2.43,3.08-3.61c.62-.69,1.23-1.39,1.86-2.07s1.35-1.43,2-2.16c.46-.51.92-1,1.39-1.54s1.11-1.27,1.71-1.88c1.12-1.15,2.19-2.36,3.33-3.5s2.58-2.55,3.81-3.88c0,0,0,0,0,0Z"/><path d="M1836.85,624.2c-2.48.48-5,1-7.41,1.56s-5,1.3-7.51,2-4.76,1.47-7.17,2.05c-2.72.66-5.45,1.28-8.18,1.88-2.34.52-4.69,1-7,1.52-2.9.65-5.78,1.32-8.67,2-1,.25-2,.51-3.05.78l-2.61.7c-.39.1-.78.19-1.16.31l-4.38,1.44c-1.25.41-2.49.87-3.73,1.3-4.65,1.62-9.39,2.94-14.07,4.46-2.51.82-5,1.66-7.46,2.61s-5.14,2-7.7,3.08c-4.5,1.84-9,3.63-13.5,5.52l-.16.07.16-.07-.27.11.06,0-2.78,1.17c-2.83,1.18-5.68,2.32-8.52,3.47-1.38.56-2.79,1.09-4.22,1.53a32,32,0,0,1-4.64,1c-1.14.15-2.3.27-3.45.36-1.3.11-2.6.15-3.9.18s-2.48,0-3.71,0l-4.06,0c-5.06,0-10.14-.15-15.17-.69l-.83-.09c-2.37-.35-4.71-.87-7-1.4-2.48-.57-4.94-1.24-7.44-1.7s-5-.93-7.56-1.38-5.19-1-7.79-1.48c-1.12-.21-2.25-.39-3.38-.59s-2.41-.45-3.62-.71-2.44-.55-3.64-.91-2.29-.72-3.43-1.11c-4.56-1.53-9.13-3-13.6-4.8l.36.15q-2.86-1.21-5.61-2.65c-.91-.48-1.82-.93-2.72-1.41s-1.89-1-2.86-1.41-1.77-.8-2.62-1.26-1.82-1-2.74-1.47c-1.94-1-4-1.89-6-2.75,0,0,0,0,0,0,1.85,1.7,3.78,3.31,5.71,4.93a31.59,31.59,0,0,0,2.77,2.11c1,.69,2.08,1.27,3.14,1.87s2,1.09,3.08,1.62,2.22,1.16,3.35,1.7a63.9,63.9,0,0,0,7.07,2.89c2.34.81,4.69,1.62,7,2.4,1.18.4,2.37.81,3.55,1.23s2.48.82,3.74,1.18,2.43.59,3.65.85,2.37.45,3.56.65q4,.68,8,1.43c2.47.47,5,.94,7.42,1.38,1.21.21,2.41.45,3.61.72s2.56.61,3.85.91,2.51.6,3.78.87,2.32.54,3.49.75a64.57,64.57,0,0,0,7.6.9c5.15.32,10.32.39,15.48.41,1.36,0,2.73,0,4.09,0s2.63-.12,3.94-.24a42.51,42.51,0,0,0,7.6-1.29c1.05-.29,2.08-.66,3.1-1s2-.75,3-1.16c2.07-.87,4.15-1.67,6.22-2.54l.13-.05.18-.08,0,0,1.09-.46-.08,0,.19-.07-.11,0,.23-.09-.12,0,.17-.08,0,0,4.19-1.79-.36.15c2.28-.95,4.58-1.84,6.86-2.77,2.56-1,5.11-2.07,7.66-3.13,2.37-1,4.73-1.95,7.12-2.87s4.79-1.68,7.21-2.46,4.9-1.52,7.35-2.28,5.08-1.64,7.6-2.52c1.14-.4,2.28-.77,3.43-1.15s2.17-.74,3.28-1l4.58-1.24c1.3-.34,2.62-.63,3.93-.94,5.16-1.25,10.34-2.33,15.52-3.48,2.44-.54,4.89-1.06,7.3-1.71s5-1.42,7.5-2.13c2.33-.67,4.7-1.29,7.07-1.8.87-.19,1.75-.38,2.62-.55a7.66,7.66,0,0,1,.61-.83,31.74,31.74,0,0,1,2.58-2.85Z"/><path d="M1733.22,655.45l.09,0Z"/><path d="M1729.9,660.11l-.06,0,.11,0Z"/><path d="M1718.12,775.18c-1.42,0-2.84,0-4.26.07-2.44.07-4.89.21-7.32.48-2.65.3-5.32.54-7.93,1a29.5,29.5,0,0,0-3.36.85,26,26,0,0,0-3.73,1.46,34.37,34.37,0,0,0-3.54,2,28.56,28.56,0,0,0-3.14,2.46s0,0,0,0c1.44-.54,2.88-1.08,4.36-1.48s3-.82,4.45-1.11c3-.56,6-1,9-1.42,2.35-.31,4.72-.55,7.08-.73,1.32-.1,2.66-.14,4-.2s2.47-.07,3.7-.07c5.3,0,10.6,0,15.9,0h12.93c1.44,0,2.88,0,4.32.12.44.07.89.14,1.34.24l2,.45,4.11,1c1.21.29,2.42.62,3.62.93l4,1.05c4.83,1.25,9.64,2.61,14.48,3.82l9.22,2.3c2.21.56,4.38,1.25,6.56,1.91,2.34.7,4.69,1.35,7,2l1.42.41c.61.2,1.22.42,1.83.64,1.12.38,2.21.84,3.32,1.24s2.45.82,3.7,1.16,2.48.71,3.74,1a13.94,13.94,0,0,0,4.81.4l.25-.05c-.48-1-.94-1.95-1.37-2.95a10,10,0,0,1-1.09,0,52,52,0,0,1-7.14-1.74c-2.35-.7-4.56-1.77-6.88-2.54-1.07-.35-2.16-.66-3.24-1s-2.36-.72-3.54-1.07c-2.37-.72-4.73-1.46-7.12-2.13-.89-.26-1.79-.48-2.68-.7l-5.4-1.36q-3-.75-6-1.54-8.68-2.31-17.38-4.59-3.51-.91-7-1.72a22.35,22.35,0,0,0-3.9-.56c-.94,0-1.89,0-2.84,0h-.71q-7.9,0-15.83,0h-11.77Z"/><path d="M1552.72,709.33c-.83.91-1.64,1.85-2.39,2.82a25.52,25.52,0,0,0-2.3,3.63,41.45,41.45,0,0,0-3,7.64c-.28,1-.51,1.9-.76,2.85l-.9,3.39c-.18.66-.33,1.33-.49,2-.3,1.29-.61,2.57-.92,3.86-.44,1.84-.82,3.69-1.23,5.53-.15.7-.33,1.4-.46,2.1-.19,1-.39,2-.58,3.06-.24,1.21-.47,2.42-.7,3.64-.1.56-.17,1.12-.25,1.69-.18,1.37-.37,2.73-.55,4.1-.1.7-.21,1.39-.28,2.09-.14,1.25-.27,2.49-.4,3.73-.09.82-.2,1.64-.27,2.47-.33,4.07-.68,8.15-1,12.22-.17,2-.41,4.05-.62,6.07s-.48,3.88-.73,5.81c0,.29-.07.57-.11.86-.28,1.91-.55,3.81-.83,5.72s-.65,3.79-1,5.68c-.16,1-.34,1.93-.51,2.89s-.29,1.83-.47,2.73-.4,2.08-.6,3.11c-.16.79-.29,1.59-.47,2.38l-.81,3.5c-.16.7-.31,1.41-.5,2.1-.52,1.93-1,3.86-1.59,5.78-.3,1-.56,2-.89,3l-1,2.93c-.62,1.89-1.34,3.73-2.05,5.58-.32.84-.67,1.66-1,2.48,0-.06.05-.13.08-.2a1.6,1.6,0,0,1-.1.23l0,.11,0-.1c-.22.51-.43,1-.65,1.54s-.47,1.08-.74,1.6c-.6,1.14-1.19,2.31-1.88,3.41-1.42,2.28-2.85,4.55-4.44,6.72a25.26,25.26,0,0,1-3.12,3.49c-1.29,1.12-2.62,2.19-3.94,3.29-2.54,2.1-5,4.23-7.63,6.3l-.4.18a3.42,3.42,0,0,0-.62.43l-.61.49c-1.44,1.09-2.88,2.17-4.4,3.15-.74.48-1.49,1-2.23,1.47s-1.64,1.12-2.41,1.75-1.39,1.19-2.11,1.76-1.38,1.09-2.05,1.66-1.29,1.11-1.88,1.71a4.62,4.62,0,0,0-1.32,2.34,2.9,2.9,0,0,0,.29,1.94,5.52,5.52,0,0,0,1.22,1.46,11.82,11.82,0,0,0,3.46,1.82,33.5,33.5,0,0,0,3.39,1.1l3.09.82c1,.26,2,.46,3,.69.84.19,1.69.35,2.54.52s1.65.33,2.49.45c.66.1,1.32.21,2,.3.45.07.9.15,1.35.2,2,.2,3.92.4,5.9.53.88.06,1.76.13,2.65.18s1.9.14,2.85.13h1c.67,0,1.34,0,2,0l3.37-.09c3.85-.11,7.69-.2,11.54-.24,7.37-.09,14.75-.09,22.12-.09h6a33.87,33.87,0,0,0,5.69-.57,24.16,24.16,0,0,0,2.64-.64,12.24,12.24,0,0,0,1.52-.59,7.26,7.26,0,0,0,1.57-1.07,12.15,12.15,0,0,0,1.31-1.17c.63-.64,1.26-1.29,1.83-2a16.93,16.93,0,0,0,1.48-2,12,12,0,0,0,.79-1.66,12.43,12.43,0,0,0,.6-2,12,12,0,0,0,.13-4.62,19.71,19.71,0,0,0-.5-2.15,39.71,39.71,0,0,1-1.37-4.07,9.58,9.58,0,0,1,0-1.93c0-.19,0-.38.07-.57a16.79,16.79,0,0,1,.92-3.16,1.43,1.43,0,0,0,.14-.34c0-.1.09-.2.13-.31l-.06.15c0-.09.07-.17.11-.26l0-.11a45.44,45.44,0,0,1,2.51-4.79c1-1.6,2-3.16,2.93-4.78.47-.83,1-1.64,1.45-2.46.22-.38.48-.74.72-1.1l.91-1.38c.21-.33.45-.63.68-.94l1.12-1.55c.54-.73,1.09-1.44,1.64-2.17,1.14-1.47,2.28-3,3.48-4.37s2.39-2.89,3.53-4.37v0c.67-.87,1.34-1.75,2-2.62h0l.26-.34-.1.14v0l0,0,0,0-.07.1c.9-1.16,1.77-2.35,2.65-3.53.75-1,1.53-2,2.29-3s1.58-2,2.35-3l0,.05.07-.09,0,0v0c.74-1,1.48-1.89,2.21-2.84,2.2-2.77,4.4-5.53,6.55-8.33l-.07.09,2-2.64a1.33,1.33,0,0,0,.14-.19c.14-.18.29-.36.43-.55l.13-.17,0,.07.14-.19.13-.16-.08.1.18-.24,0,.08.19-.26.07-.09,0,0,.09-.13c.1-.13.21-.26.31-.4s.15-.19.23-.3c1.17-1.48,2.34-3,3.49-4.44.6-.78,1.19-1.55,1.75-2.34s1-1.52,1.55-2.3c1-1.65,2.08-3.3,3.08-5s1.93-3.19,2.91-4.77,2-3.23,2.94-4.89,1.92-3.25,2.9-4.87,2-3.28,3-4.88,2-3,2.86-4.59a44.17,44.17,0,0,0,2.54-5.39c.68-1.69,1.32-3.4,2-5.1,1.4-3.61,2.8-7.23,4.1-10.88.64-1.81,1.21-3.64,1.8-5.47s1.16-3.6,1.7-5.41c.27-.92.54-1.83.8-2.74s.5-1.68.7-2.53a46.28,46.28,0,0,0,.94-6.08c.07-.7.07-1.42.1-2.12s0-1.42,0-2.13-.07-1.62-.13-2.43a20.81,20.81,0,0,0-.39-2.71h0a56.79,56.79,0,0,1-1.36,5.94c-.24,1-.49,2-.74,2.92s-.49,1.75-.75,2.63c-1.08,3.68-2.09,7.39-3.23,11.06-.55,1.75-1.12,3.49-1.68,5.24s-1.22,3.57-1.87,5.35c-1.29,3.57-2.69,7.11-4,10.66-.36.93-.72,1.85-1.09,2.77a44.05,44.05,0,0,1-2.3,4.8c-.9,1.56-1.88,3.07-2.86,4.58s-2.07,3.28-3.07,4.94-2,3.22-2.88,4.87-1.89,3.17-2.87,4.75-2,3.17-2.9,4.76-2,3.34-3.08,5c-.5.78-1,1.55-1.55,2.3s-1.06,1.44-1.6,2.15c-1.12,1.41-2.24,2.82-3.34,4.25h0l-.06.07,0,0,0,0h0l-.08.11h0l.07-.1h0l.06-.08-.06.08a1.39,1.39,0,0,0-.21.27.44.44,0,0,0-.08.11l-.12.14-.33.43,0-.05-.15.2-.1.12.06-.07-.37.48.26-.34c-.19.25-.39.5-.58.76h0l-.16.21h0a.18.18,0,0,0,0-.07l-.09.12-.14.19-.06.07,0-.05v0h0l-1.93,2.49c-2.12,2.7-4.28,5.38-6.38,8.1l.12-.16-2.31,3,.08-.1-.14.18-.12.16.08-.1c-1.21,1.54-2.43,3.08-3.62,4.64s-2.41,3.2-3.62,4.79l-2.13,2.77.27-.35-.11.15,0-.08c-1.14,1.46-2.29,2.91-3.49,4.32s-2.42,3-3.6,4.53-2.51,3.34-3.74,5c-.56.77-1.06,1.6-1.59,2.4s-.89,1.49-1.34,2.23-1,1.71-1.5,2.54-1.07,1.7-1.6,2.56a40.91,40.91,0,0,0-2.69,5.12.2.2,0,0,0,0-.08l0,.1a1.4,1.4,0,0,0-.16.38v0h0l0,0-.11.26a1.67,1.67,0,0,0,.08-.2l-.12.29a9,9,0,0,0-.41,1,20,20,0,0,0-.62,2,13.82,13.82,0,0,0-.36,2.2,10.72,10.72,0,0,0,0,2,9,9,0,0,0,.33,1.79,14.67,14.67,0,0,0,.62,1.72c.22.59.45,1.18.63,1.78a16.7,16.7,0,0,1,.4,1.73c0,.19,0,.38,0,.56a8.23,8.23,0,0,1,0,1.72,13.21,13.21,0,0,1-.72,2.62,10.32,10.32,0,0,1-1.06,1.78,24.13,24.13,0,0,1-3.46,3.54,6.69,6.69,0,0,1-1,.6,21,21,0,0,1-2.5.69c-.7.16-1.4.28-2.11.38a45.24,45.24,0,0,1-5.34.23h-5.71l-11.11,0q-5.84,0-11.67.1c-3.82,0-7.63.17-11.45.27-1.35,0-2.7,0-4.06,0-.5,0-1,0-1.51-.05-.66,0-1.32-.06-2-.11-1.3-.09-2.62-.14-3.92-.27l-4-.4-1.68-.26c-.57-.09-1.15-.15-1.71-.26-1.24-.25-2.5-.47-3.73-.75a69.63,69.63,0,0,1-10.44-2.91,9.19,9.19,0,0,1-1.57-.86,4.54,4.54,0,0,1-.38-.38,2.39,2.39,0,0,1,.13-.21,14.4,14.4,0,0,1,1.38-1.33c.53-.47,1.06-.91,1.6-1.35s1.1-.86,1.64-1.31l1.61-1.36c.74-.55,1.5-1.07,2.27-1.58s1.71-1.09,2.54-1.67,1.83-1.29,2.73-2c.53-.41,1.06-.81,1.59-1.23l.6-.48a2.44,2.44,0,0,0,.4-.5l.06-.09c1.38-1.18,2.82-2.3,4.21-3.48s2.85-2.31,4.25-3.5a48.33,48.33,0,0,0,4.07-3.61,35.51,35.51,0,0,0,3.6-4.52c1.13-1.68,2.21-3.4,3.28-5.11a41.94,41.94,0,0,0,2.58-4.81c.41-.93.79-1.87,1.19-2.81s.67-1.61,1-2.43.72-1.86,1-2.8l1-3c.64-1.85,1.17-3.75,1.72-5.64s1.08-3.93,1.61-5.9c.17-.65.31-1.31.46-2l.84-3.7c.16-.72.28-1.45.41-2.17.22-1.14.43-2.27.65-3.4.35-1.88.63-3.78.94-5.66s.61-3.8.92-5.7c.15-.9.25-1.8.38-2.69.14-1.06.29-2.12.44-3.17.29-2.15.53-4.31.79-6.46.08-.65.13-1.3.2-2,.13-1.33.25-2.67.38-4,.18-1.92.31-3.85.46-5.77s.28-3.81.43-5.71.34-3.77.53-5.66l.24-2.4q.45-3.35.88-6.71c0-.2.08-.4.12-.6.11-.61.22-1.21.34-1.82.24-1.31.49-2.63.73-3.94.35-1.82.77-3.63,1.17-5.44.77-3.56,1.6-7.1,2.54-10.62l1.08-4c.23-.85.5-1.69.74-2.54s.49-1.7.75-2.55c.55-1.77,1.15-3.52,1.85-5.24s1.5-3.13,2.3-4.67Z"/><path d="M1681.4,782.45c-.73,0-1.46.08-2.19.14-1.51.13-3,.3-4.5.51s-2.94.52-4.4.83c-3,.63-6,1.14-9,1.73-.69.13-1.37.31-2,.45l-2.39.5c-1.41.31-2.83.6-4.24.88-1.6.31-3.19.66-4.8.94s-3,.52-4.45.74a67.21,67.21,0,0,0-7.35,1,29.09,29.09,0,0,0-3.54,1c-1.14.41-2.26.9-3.36,1.4a16.65,16.65,0,0,0-3.55,2s0,0,0,0a12.64,12.64,0,0,1,2.11-.48l1-.15c.28,0,.54-.14.82-.18,1.27-.22,2.54-.43,3.82-.62l.71-.09,2.17-.24c.76-.08,1.52-.13,2.27-.2,1.55-.14,3.1-.28,4.64-.51s3-.53,4.49-.83,2.87-.58,4.29-.91c2.94-.67,5.89-1.29,8.81-2s5.9-1.3,8.86-1.9c1.16-.22,2.3-.5,3.46-.73l3.53-.68c1.2-.22,2.4-.47,3.6-.7s2.51-.43,3.76-.64l-.16,0,1.79-.25h0c1.16-.15,2.31-.31,3.47-.49,0,0,0,0,0,0-1.74-.2-3.5-.41-5.25-.46l-1.8,0Z"/><path d="M1634.39,797.52c-.39,2.28-.68,4.57-.9,6.87a34.4,34.4,0,0,0,.76,10.37c.79,3.27,1.56,6.55,2.45,9.8.47,1.71,1,3.42,1.47,5.13.19.65.37,1.32.59,2,.35,1,.69,2,1,3,.55,1.57,1.14,3.12,1.73,4.68s1.08,2.86,1.7,4.26c.35.77.67,1.56,1,2.33s.83,1.73,1.24,2.6l1,2.12c.32.65.64,1.3,1,1.93s.85,1.45,1.33,2.16.92,1.4,1.41,2.08q1.46,2.07,3,4.11c.51.68,1,1.35,1.53,2l0,0,.14.19,0,0,.05.06c.06.08.12.15.17.23l-.09-.12.12.16v0l0,0a1.09,1.09,0,0,0,.13.17.39.39,0,0,1-.08-.1c.06.09.13.17.19.25l.13.17,0-.05.13.17,0,0,.47.61.15.19-.16-.21q2.13,2.87,4.23,5.75c.63.88,1.26,1.75,1.85,2.66a14,14,0,0,1,.92,1.52c.23.46.45.91.66,1.38,0,.16.11.32.17.48a2.37,2.37,0,0,1,.13.54,5.86,5.86,0,0,0,.1.58c.07.22.13.43.18.64.22.89.39,1.78.58,2.67a7.39,7.39,0,0,0,3.21,4.29c.67.47,1.34.91,2,1.38a13.46,13.46,0,0,1,1.78,1.68,6.68,6.68,0,0,1,.65,1l0,.06v0l0,.05c-.12.12-.24.24-.37.35a8,8,0,0,1-1.35.72,26.1,26.1,0,0,1-3.4,1.14,30,30,0,0,1-3,.58c-1.58.17-3.16.3-4.75.4s-3.12.11-4.67.16a89,89,0,0,1-9.66-.23c-1.17-.1-2.33-.21-3.5-.36-1.57-.22-3.14-.45-4.71-.73s-3-.46-4.53-.73c-3.22-.58-6.42-1.19-9.62-1.84a70,70,0,0,0-8.52-1.16c-1.33-.11-2.66-.15-4-.24s-2.56-.2-3.84-.35a26.24,26.24,0,0,1-4.88-1.15,9.16,9.16,0,0,1-1.38-.74,20.88,20.88,0,0,1-2-2c-.46-.51-.89-1-1.31-1.59s-.9-1.29-1.33-1.95c-.21-.33-.4-.68-.6-1s-.4-.67-.57-1l.1-.09a5.87,5.87,0,0,1,.88-.5,22.58,22.58,0,0,1,4.44-1.05,24.74,24.74,0,0,1,3.44-.22c1.28,0,2.55.09,3.83.24l1.84.26,1.45.2c.32,0,.64.09,1,.1a3,3,0,0,0,1.71-.45,3.81,3.81,0,0,0,1.36-3.26,7.62,7.62,0,0,0-.23-1.78,6.87,6.87,0,0,0-.47-1.34c-.35-.86-.72-1.68-1.15-2.5a37.64,37.64,0,0,0-2.66-4c-1-1.37-2-2.68-3.09-4-.75-.93-1.56-1.82-2.38-2.69-1-1.07-2-2.1-3.08-3.13-2-1.91-4-3.78-6-5.58,0,0,0,0,0,0,1.21,2.25,2.46,4.48,3.86,6.63q1.18,1.81,2.46,3.56c.71,1,1.46,1.93,2.2,2.88l2.47,3.14c.73,1,1.43,2,2.14,3a20.52,20.52,0,0,1,1.86,3.25,10.23,10.23,0,0,1,.66,2,5.9,5.9,0,0,1,0,.84l-.42-.05c-1.65-.22-3.29-.49-5-.64-.75-.07-1.51-.07-2.27-.08a19,19,0,0,0-2.26.07,37.3,37.3,0,0,0-5,.83,10.47,10.47,0,0,0-3.06,1.19,8.5,8.5,0,0,0-1.13.87l-.13.14-.41.52a3.11,3.11,0,0,0-.39,1.23c-.12,1.28.7,2.46,1.34,3.5a32.58,32.58,0,0,0,2.84,4.07c.5.58,1,1.17,1.52,1.72a11.13,11.13,0,0,0,1.68,1.54,8.44,8.44,0,0,0,1.61.89c3.16,1.34,6.65,1.62,10,1.89,1.28.1,2.55.15,3.82.22s2.48.22,3.72.36c1.46.2,2.92.42,4.36.71,1.62.33,3.24.66,4.86,1l4.75.88c1.51.27,3,.46,4.54.73s3.25.52,4.89.75,3.42.41,5.14.52c1.55.1,3.11.18,4.67.2s3.38,0,5.07-.06a82,82,0,0,0,10.15-.77c.77-.12,1.52-.3,2.27-.49s1.49-.47,2.23-.72a23.4,23.4,0,0,0,2.54-1.05,7.84,7.84,0,0,0,1.33-.91,4,4,0,0,0,1.2-1.67,3,3,0,0,0,.2-1.47,4.27,4.27,0,0,0-.19-.86,5,5,0,0,0-.37-.82,9.65,9.65,0,0,0-1.17-1.6,20.78,20.78,0,0,0-4.35-3.45,9.43,9.43,0,0,1-1.16-1.12,5.32,5.32,0,0,1-.39-.65c-.27-.83-.37-1.71-.58-2.56-.1-.39-.2-.77-.31-1.16a7.74,7.74,0,0,0-.58-1.28,15.71,15.71,0,0,0-.77-1.73,19.32,19.32,0,0,0-1.1-1.86c-.85-1.24-1.75-2.45-2.65-3.67-1.7-2.3-3.42-4.6-5.17-6.87-2-2.61-4-5.24-5.82-8a33.65,33.65,0,0,1-2.36-4.07l-2.3-4.7c-.47-1-.88-1.92-1.31-2.88-.55-1.46-1.14-2.9-1.7-4.36q-.94-2.49-1.83-5c-1.13-3.18-2-6.43-2.9-9.69-.47-1.69-.89-3.4-1.29-5.11-.28-1.21-.57-2.42-.85-3.63-.09-.4-.15-.8-.23-1.2-.15-.77-.3-1.54-.44-2.3-.26-1.43-.48-2.87-.68-4.31-.17-1.29-.29-2.58-.43-3.88-.17-1.54-.37-3.08-.56-4.62h0Z"/><path d="M1436.91,779.62s0,0,0,0c1.84.42,3.62,1,5.41,1.56,1.6.52,3.22,1,4.85,1.47a48.62,48.62,0,0,0,9.83,1.46c2.8.2,5.6.37,8.4.62,1.3.12,2.59.31,3.89.47l3.78.46c3,.46,5.91.83,8.89,1.14s6.06.56,9.09.91c3.25.48,6.5,1,9.71,1.68,2.51.52,5,1,7.57,1.39a1.72,1.72,0,0,0,.44.06c.68.09,1.35.16,2,.23,1.61.15,3.22.27,4.83.38s3.5.26,5.25.28c3.29,0,6.57-.16,9.86-.25,1.22,0,2.44-.1,3.66-.16,0,0,0,0,0,0-1.83-.56-3.68-1.06-5.56-1.45-1.65-.34-3.31-.6-5-.8-3.46-.41-6.95-.59-10.43-.8-1.31-.08-2.64-.18-3.94-.34l-.44-.06c-.15,0-.31,0-.47-.06l.22,0-.45-.06.24,0c-1.6-.27-3.2-.54-4.79-.86-1.77-.35-3.53-.71-5.3-1-1.57-.3-3.16-.53-4.74-.79s-3.44-.5-5.17-.67c-2.17-.21-4.35-.41-6.52-.64q-2.91-.31-5.8-.69c-1.67-.25-3.34-.5-5-.71s-3.41-.4-5.11-.6c-3.31-.38-6.64-.51-10-.78-2.51-.21-5-.54-7.51-.81-1.83-.25-3.65-.45-5.48-.6-.92-.08-1.85-.12-2.78-.16h-.69A26.14,26.14,0,0,0,1436.91,779.62Z"/><path d="M1834.11,625.46c-.56.24-1.1.49-1.64.75,0,0,0,0,0,0l.6-.08h0l2.84-.37c.56-.65,1.16-1.27,1.78-1.86C1836.49,624.42,1835.3,624.94,1834.11,625.46Z"/><path d="M1828.92,631.77a78.82,78.82,0,0,0-7.83,6,30.7,30.7,0,0,0-3.16,3.29c-.93,1.12-1.82,2.27-2.74,3.4-2,2.4-4.07,4.69-6.13,7-.25.28-.5.56-.74.85-.11.12-.22.24-.32.37a3.23,3.23,0,0,1-.41.49l-.49.42a3.56,3.56,0,0,0-.47.6c-.22.3-.43.59-.63.9l-.38.62a4.71,4.71,0,0,0-.35.76,2.34,2.34,0,0,0-.13.73,2,2,0,0,0,.53,1.42,2.57,2.57,0,0,0,1.34.68,7,7,0,0,0,1.89,0c.43,0,.87-.1,1.29-.18a35.44,35.44,0,0,0,4-.94c1.39-.4,2.79-.76,4.19-1.13a57.25,57.25,0,0,0,8.12-3c1-.37,1.91-.74,2.88-1,1.2-.37,2.39-.76,3.58-1.16,0,0,0,0,0,0-.93,0-1.86,0-2.79.07-.69,0-1.4,0-2.09.11s-1.63.19-2.43.36-1.42.31-2.13.47c-3,.67-5.9,1.36-8.83,2.14-1,.27-2,.56-3,.81a25.06,25.06,0,0,1-2.82.55l-.13,0,.24-.33.22-.29a2.26,2.26,0,0,0,.33-.5c.07-.13.14-.26.2-.39.79-1,1.63-1.88,2.46-2.82l2.93-3.31c.89-1,1.75-2,2.6-3.1s1.92-2.36,2.84-3.58l-.21.27.72-.94c.59-.74,1.19-1.47,1.81-2.2s1.31-1.51,2-2.28c1.4-1.69,2.78-3.4,4.12-5.14l0,0Z"/><path d="M1829.74,629.09c-1,.49-2,1.06-2.91,1.63a28.74,28.74,0,0,0-2.72,1.9,27.26,27.26,0,0,0-2.53,2.28,18.44,18.44,0,0,0-2,2.47c-.73,1-1.41,2.1-2.06,3.17,0,0,0,0,0,0,1-.85,1.89-1.72,2.8-2.61.75-.73,1.51-1.45,2.3-2.14,1.66-1.44,3.19-3,4.82-4.51.78-.72,1.55-1.46,2.32-2.19,0,0,0,0,0,0Z"/><path d="M1830.93,630.54a1.65,1.65,0,0,0,.31-.2l0,0-.5.43c-.73.61-1.44,1.24-2.14,1.87l-1,.88c-.33.29-.64.6-1,.9-1.42,1.34-2.85,2.68-4.3,4-1.28,1.15-2.56,2.3-3.8,3.48l-3.61,1.45-1.65.64-1.09.43-.06,0,.81-.61,1.35-1.08,2.5-2c.58-.44,1.16-.88,1.73-1.33l0,0c.83-.64,1.66-1.25,2.52-1.85s1.72-1.12,2.57-1.69,1.8-1.24,2.66-1.92,1.63-1.34,2.47-2l.77-.59c.29-.22.59-.45.89-.66l-.26.11Zm4.42-5.35a6.49,6.49,0,0,0-1.36.49c-.3.14-.61.28-.89.44a17.06,17.06,0,0,0-1.65,1c-.48.32-.94.69-1.4,1.06l-.35.26a1.63,1.63,0,0,0-.38.35l-.24.28-.16.13-.29.23-.47.39c-.68.57-1.36,1.14-2,1.73-1.2,1.1-2.47,2.13-3.75,3.14l0,0,0,0-.08.06,0,0-1.23.95,0,0h0l-.07.05,0,0c-.82.63-1.63,1.26-2.41,1.92l-2.69,2.26c-.82.68-1.63,1.39-2.42,2.11l-1.39,1.27-.7.65a3.54,3.54,0,0,0-.57.65.7.7,0,0,0-.15.39.32.32,0,0,0,.33.32.45.45,0,0,0,.29-.09l.48-.29h0l1.61-.68h0c1.68-.7,3.35-1.45,5-2.21l-.22.2c-.53.51-1,1-1.55,1.54s-1,1.19-1.48,1.81l0,0-.06.08-.14.18.12-.16-1.07,1.38h0v0l-.18.23.07-.09c-1.46,1.89-2.85,3.84-4.3,5.74-1.15,1.43-2.32,2.84-3.53,4.22-.57.67-1.19,1.29-1.79,1.94-.19.2-.37.4-.55.61a2,2,0,0,0-.66,1.29,1.44,1.44,0,0,0,.72,1.2,2.75,2.75,0,0,0,1.77.06c.36-.07.71-.2,1-.3l.81-.25,1.28-.38c.92-.27,1.83-.56,2.75-.84s1.77-.51,2.66-.77,1.87-.54,2.82-.79,1.84-.45,2.76-.67l2.87-.68c1.85-.44,3.68-1,5.52-1.41s3.79-.84,5.69-1.22l2.71-.52,2.88-.54.53-.09c-.57.49-1.15.95-1.72,1.42l-2.78,2.31c-1.85,1.55-3.74,3.06-5.6,4.58-1.49,1.13-3,2.26-4.5,3.36a55.21,55.21,0,0,1-4.81,3.08c-.79.46-1.59.9-2.39,1.33s-1.61.93-2.41,1.39-1.6,1-2.4,1.46-1.47.93-2.16,1.45l-.91.69c-.21.16-.44.32-.64.5a4.78,4.78,0,0,0-1,1.11,2.26,2.26,0,0,0-.17.35,2.44,2.44,0,0,0-.23.84,2.79,2.79,0,0,0,.3,1.53,6.78,6.78,0,0,0,.74,1,6.48,6.48,0,0,0,1.14,1.08c.37.29.73.59,1.11.87a14.67,14.67,0,0,0,1.33.89c.27.16.55.3.82.44.86.42,1.72.84,2.6,1.24,1.47.69,3,1.32,4.46,2s3,1.32,4.58,2l-.11,0,.13.06.18.07-.13-.06q2.79,1.22,5.51,2.56l3,1.53c.42.21.82.43,1.23.66l1,.54-.53.18c-.34.1-.68.18-1,.26-.52.12-1,.22-1.57.32-.92.17-1.84.31-2.77.46l.39,0c-2.05.27-4.1.56-6.14.85-1.85.26-3.69.52-5.53.82s-3.93.66-5.88,1c-.92.18-1.83.36-2.73.59a10.63,10.63,0,0,0-1.66.61l-.2.13a1.61,1.61,0,0,0-.55.55c0,.07-.1.14-.15.22a6.44,6.44,0,0,0-.24.61,2.24,2.24,0,0,0,0,1,5.2,5.2,0,0,0,.17.68,5.52,5.52,0,0,0,1,1.73c1.51,1.88,3.66,3.07,5.67,4.32l3.14,1.93,1.52.92c.26.15.5.33.75.49l1,.69c.56.36,1.09.77,1.64,1.16s.83.6,1.23.91c.81.65,1.6,1.31,2.35,2s1.64,1.61,2.43,2.44,1.44,1.53,2.13,2.33c.36.4.7.81,1.05,1.22l.52.57a22.57,22.57,0,0,1-2.58.63c-.69.15-1.39.28-2.09.41-1.2.24-2.41.4-3.62.57-1.94.24-3.88.46-5.81.75-.42.06-.84.14-1.26.23a10,10,0,0,0-1.07.29,4.71,4.71,0,0,0-1.78,1.08,3.57,3.57,0,0,0-.51.65,4.86,4.86,0,0,0-.32.74l0,.2a1.44,1.44,0,0,0,0,.77l.06.3.27.63a7,7,0,0,0,1,1.49c.46.57,1,1.12,1.47,1.65.93,1,1.9,1.94,2.86,2.9.6.61,1.21,1.24,1.84,1.83,1.45,1.36,2.92,2.7,4.37,4.06.55.52,1.11,1,1.65,1.55l.92.88.69.66c-.71,0-1.42,0-2.13,0l-1.47,0a31.56,31.56,0,0,0-3.89,0,5.65,5.65,0,0,0-1,.17l-.25.1a3.06,3.06,0,0,0-.58.27l-.21.17a1.67,1.67,0,0,0-.45.39,2.15,2.15,0,0,0-.45.7c0,.11-.1.22-.14.33s-.06.45-.09.67l0,.31a4.68,4.68,0,0,0,.44,1.56c.16.36.34.7.53,1a39.33,39.33,0,0,0,2.52,3.86c.49.7,1,1.38,1.52,2.07.64.87,1.29,1.74,1.94,2.6,1.18,1.56,2.46,3,3.69,4.56.88,1.1,1.74,2.22,2.6,3.33.38.49.75,1,1.12,1.48l.58.78.37.5c.07.09.13.18.2.26a9.23,9.23,0,0,1-1.18-.07,37.41,37.41,0,0,1-5.47-1.46l-1.3-.41-.91-.28-.88-.22a4.1,4.1,0,0,0-.7-.12,1.79,1.79,0,0,0-.69,0,1.86,1.86,0,0,0-.8.24,2.36,2.36,0,0,0-.67.63,1.85,1.85,0,0,0-.24.86,5,5,0,0,0,.08.76c0,.06,0,.12.05.18l.24.58a7.57,7.57,0,0,0,.52.74l.56.7a11.88,11.88,0,0,0,.92,1c.7.71,1.44,1.4,2.17,2.09,1.43,1.33,2.87,2.65,4.36,3.91s2.81,2.44,4.16,3.73a47,47,0,0,0,3.77,3.13l-.08-.06.7.54c.12.1.25.2.36.31l-.18.09a19.3,19.3,0,0,1-2.9.75,6.77,6.77,0,0,0-1.16.36,7.6,7.6,0,0,0-.76.35,5,5,0,0,0-.63.48l-.13.13-.36.46a4.87,4.87,0,0,0-.41,1l-.06.42a2,2,0,0,0,0,.64,3.74,3.74,0,0,0,.25,1.1,18.81,18.81,0,0,0,1.34,2.65c.46.79,1,1.56,1.44,2.34a25,25,0,0,0,1.68,2.39c.53.66,1,1.33,1.63,1.94s1.29,1.3,1.92,2l.57.59a35.59,35.59,0,0,1-4.21-1.08c-.87-.26-1.7-.62-2.54-1s-1.51-.59-2.26-.9-1.49-.68-2.24-1-1.33-.67-2-1-1.42-.65-2.14-1-1.7-.76-2.56-1.1c-1.41-.55-2.84-1-4.26-1.55-.78-.28-1.57-.55-2.35-.81-.94-.32-1.9-.59-2.85-.86,0,0,0,0,0,0l2.71,2c.73.53,1.47,1.06,2.21,1.56,1.47,1,3,1.91,4.5,2.84s3,1.8,4.61,2.57c1.82.9,3.69,1.68,5.58,2.42.7.27,1.39.57,2.11.81s1.62.53,2.45.75,1.59.38,2.4.54a16,16,0,0,0,2,.25,7,7,0,0,0,1.59-.09,2.69,2.69,0,0,0,1.52-.69,1.26,1.26,0,0,0,.36-.55l.17-.4a2.06,2.06,0,0,0,.05-.74,2.86,2.86,0,0,0-.77-1.71c-.35-.38-.75-.73-1.12-1.09-.57-.55-1.11-1.12-1.67-1.68s-1.13-1.11-1.66-1.69-.91-1-1.34-1.58-.65-.89-1-1.34-.68-1.07-1-1.6a27,27,0,0,1-1.84-3.22c0-.13-.09-.27-.13-.41h0l.21-.11c.78-.26,1.6-.37,2.4-.56q.63-.16,1.26-.36a5.45,5.45,0,0,0,2.36-1.42,2.48,2.48,0,0,0,.52-2.57,3.57,3.57,0,0,0-.26-.56,4.61,4.61,0,0,0-.58-.74,5,5,0,0,0-.5-.43c-.27-.22-.56-.43-.85-.64-.58-.41-1.14-.84-1.71-1.27s-1-.82-1.55-1.26-1.07-1-1.61-1.45c-1.14-1-2.31-2-3.48-2.94s-2.16-1.84-3.2-2.79c-.56-.51-1.12-1-1.67-1.54l-1.09-1c-.21-.2-.41-.4-.6-.61l1.13.38c1.13.36,2.26.74,3.4,1.07a17.79,17.79,0,0,0,3,.61,10.81,10.81,0,0,0,1.6.09,6.2,6.2,0,0,0,1.42-.17c.19-.07.38-.16.57-.25l.3-.23a1.22,1.22,0,0,0,.32-.32,2.49,2.49,0,0,0,.35-.5,2,2,0,0,0,.26-1,6,6,0,0,0-.08-.61,5.46,5.46,0,0,0-.35-.78,7.48,7.48,0,0,0-.73-1c-.78-1.06-1.59-2.1-2.4-3.14s-1.52-1.94-2.29-2.9c-.39-.48-.77-1-1.18-1.43s-.85-1-1.27-1.5c-.79-.94-1.55-1.9-2.3-2.87l-2.33-3.12c-.42-.55-.8-1.13-1.2-1.7a21,21,0,0,1-1.92-3.18,4.44,4.44,0,0,1-.15-.52l0,0,.18-.05a30.92,30.92,0,0,1,3.85,0l1.27,0c.82,0,1.64.07,2.45,0a7.12,7.12,0,0,0,1.89-.37,2.12,2.12,0,0,0,.86-.5l.17-.19a1.48,1.48,0,0,0,.33-.53l.15-.35c0-.23.06-.45.08-.67s0-.26,0-.39a1.32,1.32,0,0,0-.19-.63,5.27,5.27,0,0,0-1.2-1.46l-2-1.94c-1.36-1.27-2.75-2.52-4.11-3.79-.76-.71-1.52-1.41-2.26-2.14s-1.46-1.45-2.19-2.19a45.64,45.64,0,0,1-3.22-3.45,5.16,5.16,0,0,1-.4-.63l.37-.21a15.82,15.82,0,0,1,3-.61c1.89-.24,3.79-.45,5.68-.71l3-.47c.93-.15,1.86-.36,2.78-.55.7-.15,1.4-.3,2.09-.51a7,7,0,0,0,1.65-.73,2.59,2.59,0,0,0,.64-.55,1.67,1.67,0,0,0,.39-.67,2.51,2.51,0,0,0,.1-.6v-.22a1.08,1.08,0,0,0-.13-.58l-.15-.37c-.08-.13-.16-.25-.25-.37-.21-.3-.46-.59-.7-.88l-.83-1c-1.2-1.47-2.48-2.86-3.8-4.22a43.36,43.36,0,0,0-3.68-3.36c-.67-.55-1.37-1.06-2.07-1.58s-1.27-.91-1.92-1.34-1.48-1-2.24-1.44l-2.22-1.32-2-1.21c-1.09-.66-2.21-1.3-3.23-2.06a13.59,13.59,0,0,1-1.51-1.43c-.1-.16-.2-.32-.28-.48a24.53,24.53,0,0,1,2.78-.69q1.45-.3,2.91-.57c2-.36,4-.66,5.93-1,1.82-.29,3.65-.51,5.47-.79L1831,698c.93-.13,1.85-.31,2.78-.5a19.69,19.69,0,0,0,3.19-.83c.45-.17.89-.36,1.33-.55a2.67,2.67,0,0,0,1.22-1,2,2,0,0,0,.24-.86v-.16a1.34,1.34,0,0,0-.19-.7l-.12-.29-.33-.43a5.07,5.07,0,0,0-.61-.52,23.71,23.71,0,0,0-2.63-1.53c-.83-.43-1.67-.84-2.5-1.25-1.55-.77-3.13-1.49-4.71-2.21s-3.37-1.43-5.07-2.14l.32.13c-1.66-.71-3.34-1.41-5-2.14l-2.6-1.18-1.27-.62a14.48,14.48,0,0,1-2.1-1.27l-.58-.45a8.68,8.68,0,0,1-1.24-1.18c-.08-.13-.16-.25-.23-.38v0a1.4,1.4,0,0,1,.1-.16,4.37,4.37,0,0,1,.44-.42c.72-.53,1.45-1.06,2.18-1.57s1.49-1,2.24-1.41c1.59-1,3.22-1.9,4.84-2.82s3.28-1.88,4.84-2.94,3.12-2.28,4.67-3.44,3.09-2.46,4.62-3.71,2.85-2.38,4.27-3.58c.67-.56,1.34-1.1,2-1.66l1-.88q.43-.39.84-.81c.19-.21.36-.44.53-.67a1.71,1.71,0,0,0,.23-.47,1.2,1.2,0,0,0,.12-.52,1.74,1.74,0,0,0-.18-.9,1.8,1.8,0,0,0-.54-.56,2.59,2.59,0,0,0-1.39-.35,8.23,8.23,0,0,0-1.21.1l-.94.13c-.94.16-1.87.32-2.79.51-1.94.38-3.88.74-5.82,1.14l-2.69.58c-.94.21-1.87.48-2.8.72-1.92.49-3.83,1-5.76,1.43s-3.64.89-5.44,1.42c-1.48.44-3,.85-4.45,1.31l-2,.6h0l.44-.5c.83-1,1.62-1.93,2.44-2.9s1.67-2.08,2.46-3.14l2.39-3.18-.19.26c.58-.74,1.16-1.49,1.75-2.22.28-.35.54-.7.82-1s.65-.74,1-1.09c.61-.63,1.26-1.22,1.9-1.81l2.11-1.93c1.41-1.27,2.82-2.55,4.21-3.85l2.14-2c.31-.29.64-.56,1-.83s.76-.7,1.15-1c.93-.83,1.91-1.6,2.83-2.44q.66-.62,1.29-1.26a12.45,12.45,0,0,0,1.54-1.78,4.06,4.06,0,0,0,.44-1c0-.17.06-.35.08-.54s0-.32-.07-.49a1.44,1.44,0,0,0-.69-.86,1.71,1.71,0,0,0-.84-.2A2.44,2.44,0,0,0,1835.35,625.19Z"/></svg>