<svg id="Layer_1" data-name="Layer 1" xmlns="http://www.w3.org/2000/svg" viewBox="0 0 1920 1080"><defs><style>.cls-1{fill:#3785e2;opacity:0.5;}</style></defs><ellipse class="cls-1" cx="896.14" cy="754.1" rx="377.62" ry="234.06"/><path d="M633.08,154.39l269.21,13.1,267.22,13,151.56,7.37c3,.15,6.2-2.85,6-6-2.53-31.13-6-67.45,11.92-95,13.16-20.26,41.65-36,65-23.43l-3-5.14-12,281.22-12,280.26c-4,93.13-7.45,186.29-12,279.39-.79,16.41-2.16,33.65-8.84,48.87a50.77,50.77,0,0,1-14.27,19.38c-7.68,6.2-17.38,9.08-26.86,11.18-43.34,9.59-87.92,15.44-132,20.64a1859.88,1859.88,0,0,1-267.14,12.15,1851.23,1851.23,0,0,1-266.43-26.35c-43.53-7.54-87.29-16-130-27.44-18.49-5-35.13-12.8-44.2-30.56-8.75-17.16-9.95-37.65-10.92-56.53-2.38-46.24,2-92.62,5.13-138.73L479,591.12q9.45-140.17,18.91-280.34c3.07-45.52,5.29-91.19,9.28-136.63,2.5-28.45,8-61.29,26.72-84a53.89,53.89,0,0,1,32.59-19.36l-7.53-5.74a122,122,0,0,0,27.65,83.88c4.85,5.94,13.23-2.53,8.42-8.42a109.82,109.82,0,0,1-24.17-75.46c.24-4.17-4-6.38-7.53-5.74-30.57,5.51-48.39,32.13-57.58,59.78C494,154.27,494,192.36,491.49,229L472.11,516.3,462.42,660c-3.22,47.75-7,95.5-9.44,143.3-1.21,23.71-1.74,47.5-.31,71.21,1.16,19.18,3,39,11.34,56.57,8.4,17.82,23.72,28.74,42,35,20.55,7,42.42,11,63.6,15.57a1863.92,1863.92,0,0,0,271.08,38.22,1865.51,1865.51,0,0,0,274.07-1.86q68.2-5.51,135.88-16c22.25-3.44,44.64-6.89,66.65-11.66,18.63-4,35.16-12.23,45.31-28.95,8.93-14.71,11.89-32.3,13.39-49.18,1.94-21.81,2.19-43.84,3.12-65.71l6.16-143.77,12.3-287.34,12.3-287.2,3-69.81a5.89,5.89,0,0,0-3-5.14c-21.16-11.39-45.85-5.28-64,8.93-21.54,16.82-30.16,43-32.16,69.42-1.26,16.79,0,33.64,1.37,50.39l6-6-269.22-13.09-267.22-13-151.55-7.38c-7.66-.37-7.64,11.54,0,11.91Z"/><path d="M734.75,406.06c-6.37.92-12-6.79-11.78-12.56.27-6.69,7.26-8.71,12.83-7.18s9.88,6.6,6.72,12.3-11,8.39-16.43,4.5c-6.25-4.45-12.2,5.87-6,10.28,18.38,13.1,46-11.89,31.19-30.66-13.33-16.86-44.55-7.62-39.7,15.74,2.56,12.29,13.93,20.85,26.33,19.06,7.55-1.1,4.34-12.57-3.16-11.48Z"/><path d="M1084.71,401.7c-4.41,2.63-8-4.39-7-8,1.55-5.76,7.7-9.55,12.81-11.79,11.5-5,27.45-5.48,36.94,3.9,6.93,6.86,10.87,20.85,2.52,28.28-6.27,5.57-18,5.59-22.37-2.26-3.72-6.7-14-.7-10.28,6,6.39,11.5,21.2,14.62,32.86,9.83,13.53-5.56,18.85-20.52,15.08-34.17-4.27-15.47-17.85-25.08-33.42-26.72-15.08-1.59-34.09,4.16-42.72,17.4-4.57,7-4.89,15.8.23,22.55s13.84,9.75,21.34,5.28c6.58-3.92.6-14.22-6-10.28Z"/><path d="M602.45,487.17q107.87,12.45,216.32,18.47t217,5.47q54.29-.25,108.54-2.14,27.14-.95,54.24-2.29,13.8-.69,27.6-1.48c7.71-.44,15.52-1.27,23.25-.87,6.77.36,13.93,2.18,18,8.06,3.61,5.24,4.5,12,4.91,18.24,1.17,17.17,1.1,34.53,1.13,51.73q.09,53.48-4,106.85t-12.39,106.54q-4.14,26.41-9.32,52.65c-2.9,14.69-5,31.35-14.66,43.44-16.31,20.52-46.8,21.31-70.73,20.88-35.76-.65-71.53-2.19-107.28-3.3l-219.17-6.8-109.59-3.39-54.8-1.7c-15.59-.49-31.37-.45-46.85-2.55-13.87-1.89-28.07-5.78-39.31-14.46-11-8.5-17.91-20.94-22.19-34-4.54-13.8-6.58-28.26-8.25-42.64q-3-25.8-4.25-51.76a782.13,782.13,0,0,1,17.39-206.74q5.5-24.9,12.62-49.41c2.14-7.37-9.35-10.52-11.48-3.16A796.31,796.31,0,0,0,537.9,705a775.48,775.48,0,0,0,6,106.29c3.54,27.94,9.79,59.11,33,77.7,24.27,19.41,57.09,19.33,86.62,20.25l112.58,3.49,227.15,7,113.57,3.53c17.07.52,34.17,1.42,51.24,1.43,13.62,0,27.54-.84,40.71-4.52,12.45-3.47,24.39-9.8,32.71-19.9,10.09-12.26,13.51-27.77,16.58-43q10.92-54.16,17.48-109.07,6.56-54.54,8.73-109.48,1.1-27.69,1.07-55.4c0-17.76.14-35.72-1.18-53.44-1-13.95-5.33-28.19-19.22-34.2-14.5-6.27-32.44-2.74-47.66-1.91q-56.17,3.09-112.43,4.43-112,2.67-224-1.59T657.4,481.2q-27.49-2.76-54.95-5.93c-7.6-.88-7.54,11,0,11.9Z"/><path d="M797.82,530.57c71.48,6.33,143,12.4,214.45,19,.8.07,3.54.08,3.9.64.24.38-.47,3-.56,3.6-.49,3.24-1.06,6.47-1.81,9.66-1.37,5.87-3.23,11.87-6.79,16.81-9.2,12.75-27.77,8.7-41.27,8.1l-107.37-4.72-29.82-1.31c-8-.36-16.18-.6-23.94-2.91-6.75-2-13-5.83-15.66-12.66-1.81-4.73-2.26-11.59,2.31-15,6.1-4.5.17-14.84-6-10.28C773.82,550,773.38,565.65,781,577c9.21,13.81,27.19,16.2,42.44,17,40.8,2.13,81.64,3.6,122.45,5.39l31.81,1.4c8.81.39,17.79.76,26-2.88,13.72-6.06,19.6-21,22.33-34.74,1.35-6.77,4.25-16.26-1.42-21.7-2.49-2.38-5.83-3.13-9.14-3.53-5-.6-10.07-.91-15.1-1.35l-62.55-5.54-140-12.39c-7.63-.68-7.59,11.23,0,11.9Z"/><path d="M613.16,705.2a210.32,210.32,0,0,1,57.14,84.3c2.1,5.71,9.32,5.54,11.48,0a464.8,464.8,0,0,1,35.9-72.39H707.4A783.8,783.8,0,0,1,743,788.62c1.76,4.06,8.4,3.73,10.28,0A762,762,0,0,1,791.72,721l-10.88-1.42a346.37,346.37,0,0,0,36.85,70.27c2.51,3.68,7.83,4,10.28,0q18.35-30,36.25-60.27l-10.88-1.42a622.31,622.31,0,0,0,30.19,69.3c2.55,5,9.18,3,10.88-1.42a251,251,0,0,1,29.27-54.4c1.35-1.9,2.72-3.79,4.13-5.65.72-.95,1.53-2.61,2.56-3.17,1.33-.75-.71-.71.44.09,1.79,1.25,3.47,5.35,4.64,7.17l4.27,6.6,19.22,29.74c2.38,3.67,8,4,10.28,0l32.18-56.34-9.35,1.2a676.6,676.6,0,0,1,49,55.53c2.34,3,7.72,1.92,9.35-1.21l22.35-43.09h-10.28q15.29,28.07,29.06,56.91c1.94,4.07,8.24,3.7,10.28,0l31.73-57.31h-10.28a403.78,403.78,0,0,1,30.18,54.31c1.79,3.91,8.48,3.88,10.28,0a311.54,311.54,0,0,1,38.44-62.71c4.72-5.94-3.65-14.42-8.42-8.42a324.12,324.12,0,0,0-40.3,65.12h10.28a403.78,403.78,0,0,0-30.18-54.31c-2.38-3.6-8-4.1-10.28,0l-31.73,57.31h10.28q-13.77-28.83-29.06-56.91c-2.08-3.81-8.24-3.94-10.28,0l-22.36,43.1,9.35-1.21a678.14,678.14,0,0,0-49-55.53,6,6,0,0,0-9.35,1.21l-32.18,56.34h10.28l-23.49-36.34c-3-4.69-6-11.33-11.6-13.38-5.42-2-10.23,1.25-13.55,5.31-16.18,19.82-28.42,43.11-37.65,66.87l10.88-1.42a597.81,597.81,0,0,1-29-66.45c-1.71-4.67-8.13-6.08-10.88-1.42q-17.9,30.27-36.25,60.26H828a333.29,333.29,0,0,1-35.65-67.43c-1.84-4.73-8-6-10.88-1.42A762,762,0,0,0,743,782.61h10.28a783.8,783.8,0,0,0-35.57-71.51c-2.23-4-8-3.75-10.28,0a481.6,481.6,0,0,0-37.1,75.23h11.48c-12.58-34.22-33-65.23-60.2-89.55-5.7-5.09-14.15,3.3-8.42,8.42Z"/><path d="M593.31,749.62a136,136,0,0,0,9.21,14.72,130.4,130.4,0,0,0,12.08,15,181.52,181.52,0,0,0,28.57,25.05,208.32,208.32,0,0,0,34,19.74c5.45,2.45,11,3.63,16.46,5.85q10.29,4.15,20.93,7.38c26.93,8.2,54.93,12.14,82.86,14.95q42.61,4.29,85.38,7.36c60.75,4.4,121.8,5.13,182.59,1.09,14.72-1,29.88-1.5,44.46-3.83,11.68-1.86,23.51-6.28,34.45-10.67a246.61,246.61,0,0,0,63.54-37.51c21-17,40.88-37.08,49.43-63.26,8.36-25.59,6.58-53.36,1.81-79.46-.62-3.36-4.43-4.76-7.38-4.19-4.15.79-10.35,1.45-13.43,4.82-3.73,4.08-1.15,9.68,3.79,10.89,6.65,1.62,17.54-1.63,17.23-9.93-.15-4.17-3.69-6.46-7.59-5.78-98.12,17.12-196.32,39.2-296.31,40.47-50.47.64-101-3-151.33-5.95q-38.1-2.24-76.21-4.52c-24.06-1.4-47.78-1.57-70.48-10.67-11.93-4.79-22.6-13-33.86-19.14a196.45,196.45,0,0,0-18-8.78c-5.14-2.17-10-3.39-15.45-1.25a12.07,12.07,0,0,0-8,10.45c-.64,6.71-.68,13.55-.92,20.28a404.82,404.82,0,0,0,.48,43.51c.56,7.66,12.57,7.72,12,0-.91-12.51-1-25.05-.66-37.59.16-5.92.4-11.83.67-17.73.07-1.54-.62-6.92.37-7.88.43-.41,3.31-.12,4.27.13,5.16,1.32,10.46,4.62,15.15,7.08,5.08,2.67,10.05,5.53,15,8.46,10.1,6,19.7,12,30.85,16,22.11,7.79,45.4,7.83,68.54,9.17,24.42,1.42,48.83,2.91,73.25,4.34,49.38,2.91,98.9,6.52,148.39,6.18,48.58-.32,96.42-5.46,144.39-12.89,53.84-8.35,107.34-18.7,161-28.06l-7.6-5.79a4.05,4.05,0,0,1,1.17-2.31s0,.11-.76.26c-1.68.3-1.09,0-2.88.3-1.08.22.4-.44-.12,0q5.79,6.35,1.66,9.6l-.28.1c2.67,0,6.18-1.64,8.81-2.14l-7.38-4.19c4,22.05,5.63,45.3-.09,67.21-6,23.16-21.37,40.26-38.8,55.92A234.19,234.19,0,0,1,1150,830.8a217.41,217.41,0,0,1-33.21,12.06c-13.42,3.7-27.63,4.13-41.48,5.16a1292,1292,0,0,1-172.66.92c-27.74-1.64-55.41-4.27-83.09-6.64-27-2.31-54-5-80.51-10.94a273.28,273.28,0,0,1-42.23-13c-6.45-2.6-12.76-4.11-19.07-7.22a191.74,191.74,0,0,1-18.47-10.46,187.42,187.42,0,0,1-31.66-25.25,128,128,0,0,1-12.82-14.52,96.16,96.16,0,0,1-5.39-8.13c-1.82-3.06-4.11-6.13-5.69-9.23-3.51-6.88-13.87-.82-10.36,6.06Z"/></svg>