<svg id="Layer_1" data-name="Layer 1" xmlns="http://www.w3.org/2000/svg" viewBox="0 0 1920 1080"><defs><style>.cls-1{fill:#ffff1a;}.cls-1,.cls-2{opacity:0.5;}.cls-2{fill:#e03838;}.cls-3{fill:#4d4d4d;}</style></defs><path class="cls-1" d="M537,941c-81-30-371-166-332-341s51-298,194-335,282-51,389,72S943,530,933,613,889,935,782,941,537,941,537,941Z"/><path class="cls-2" d="M1353,906.76c-16.35,1.62-94.16,6.46-104.31-6.45s-14.09-52.42-14.09-64.52,11.27-45.16,9-58.87-16.35-60.49-17.48-80.66,7.33-38.71,20.86-49.19,16.35-8.87,20.3-18.55,76.12-143.56,73.86-156.47,129.12-4,139.26,61.3,56.39,213.73.57,262.12-27.63,97.58-59.77,100S1353,906.76,1353,906.76Z"/><path d="M169.9,175.73a2.61,2.61,0,0,1-.78-1.92V137.39a2.71,2.71,0,0,1,.78-1.95,2.56,2.56,0,0,1,1.92-.81h12.06a21.22,21.22,0,0,1,11.61,3,19.51,19.51,0,0,1,7.17,7.83,22.37,22.37,0,0,1,0,20.16,19.51,19.51,0,0,1-7.17,7.83,21.22,21.22,0,0,1-11.61,3H171.82A2.61,2.61,0,0,1,169.9,175.73Zm13.32-4.32a17.9,17.9,0,0,0,8.64-2,14.33,14.33,0,0,0,5.76-5.58,17.7,17.7,0,0,0,0-16.5,14.33,14.33,0,0,0-5.76-5.58,17.9,17.9,0,0,0-8.64-2h-8.64v31.68Z"/><path d="M212.92,138.77a3,3,0,0,1-.9-2.16v-.24a3.07,3.07,0,0,1,3.06-3.06h.36a3.07,3.07,0,0,1,3.06,3.06v.24a3.07,3.07,0,0,1-3.06,3.06h-.36A3,3,0,0,1,212.92,138.77Zm.36,37.26a2.61,2.61,0,0,1-.78-1.92V148.37a2.71,2.71,0,0,1,.78-2,2.56,2.56,0,0,1,1.92-.81,2.67,2.67,0,0,1,2.76,2.76v25.74a2.56,2.56,0,0,1-.81,1.92,2.71,2.71,0,0,1-2,.78A2.61,2.61,0,0,1,213.28,176Z"/><path d="M233.05,175.22a14.34,14.34,0,0,1-5.4-5.52,18.45,18.45,0,0,1,0-17,14.34,14.34,0,0,1,5.4-5.52,14.07,14.07,0,0,1,7-1.89,13.79,13.79,0,0,1,10.26,4.56v-14.7a2.63,2.63,0,0,1,.81-2,2.71,2.71,0,0,1,2-.78,2.56,2.56,0,0,1,1.92.81,2.71,2.71,0,0,1,.78,1.95v38.94a2.66,2.66,0,0,1-2.7,2.7,2.71,2.71,0,0,1-2-.78,2.56,2.56,0,0,1-.81-1.92v-1.56a13.79,13.79,0,0,1-10.26,4.56A14.07,14.07,0,0,1,233.05,175.22Zm13-4.44a14.82,14.82,0,0,0,4.29-3.27v-12.6a14.82,14.82,0,0,0-4.29-3.27,11.33,11.33,0,0,0-5.19-1.23,9.43,9.43,0,0,0-7.14,2.82q-2.7,2.82-2.7,8t2.7,8a9.43,9.43,0,0,0,7.14,2.82A11.33,11.33,0,0,0,246.07,170.78Z"/><path d="M285.91,189.83a2.59,2.59,0,0,1-.75-1.86,2.72,2.72,0,0,1,.18-1l3.9-10L278,149.51a3.07,3.07,0,0,1-.24-1.14,2.71,2.71,0,0,1,.78-2,2.56,2.56,0,0,1,1.92-.81,2.62,2.62,0,0,1,1.53.48,2.72,2.72,0,0,1,1,1.2l9.24,22.92,9.42-22.8a2.62,2.62,0,0,1,2.52-1.8,2.56,2.56,0,0,1,1.92.81,2.71,2.71,0,0,1,.78,2,2.88,2.88,0,0,1-.18,1l-16.38,39.36a2.71,2.71,0,0,1-2.52,1.86A2.44,2.44,0,0,1,285.91,189.83Z"/><path d="M318.1,175.13a13.46,13.46,0,0,1-5.37-5.61,19.21,19.21,0,0,1,0-16.62,13.46,13.46,0,0,1,5.37-5.61,17.44,17.44,0,0,1,16.14,0,13.71,13.71,0,0,1,5.4,5.61,18.94,18.94,0,0,1,0,16.62,13.71,13.71,0,0,1-5.4,5.61,17.44,17.44,0,0,1-16.14,0ZM330.91,171a9.16,9.16,0,0,0,3.72-3.6,12,12,0,0,0,1.47-6.24,11.88,11.88,0,0,0-1.47-6.18,9,9,0,0,0-3.72-3.57,10.52,10.52,0,0,0-4.71-1.11,10.64,10.64,0,0,0-4.77,1.11,8.78,8.78,0,0,0-3.69,3.57,12.08,12.08,0,0,0-1.44,6.18,12.21,12.21,0,0,0,1.44,6.24,9,9,0,0,0,3.69,3.6,10.41,10.41,0,0,0,4.77,1.14A10.29,10.29,0,0,0,330.91,171Z"/><path d="M353.89,175.55a10.08,10.08,0,0,1-3.72-4.26,13.46,13.46,0,0,1-1.29-5.94v-17a2.56,2.56,0,0,1,.81-1.92,2.69,2.69,0,0,1,1.95-.78,2.65,2.65,0,0,1,2.69,2.7v16.44q0,7.32,6.61,7.32a9.59,9.59,0,0,0,5.37-1.56,19.61,19.61,0,0,0,4.46-4.2v-18a2.56,2.56,0,0,1,.81-1.92,2.72,2.72,0,0,1,2-.78,2.65,2.65,0,0,1,2.69,2.7v25.74a2.74,2.74,0,0,1-.77,1.95,2.59,2.59,0,0,1-1.92.81,2.77,2.77,0,0,1-2.77-2.76v-2.46a19.94,19.94,0,0,1-4.92,4,12.39,12.39,0,0,1-6.23,1.5A10.33,10.33,0,0,1,353.89,175.55Z"/><path d="M402.09,176a2.61,2.61,0,0,1-.78-1.92V135.17a2.71,2.71,0,0,1,.78-1.95,2.56,2.56,0,0,1,1.92-.81,2.77,2.77,0,0,1,2.76,2.76v24.54l14.28-13.2a2.76,2.76,0,0,1,1.8-.78,2.43,2.43,0,0,1,2,.78,2.87,2.87,0,0,1,.63,1.86,2.94,2.94,0,0,1-1,2l-8.64,7.74,10.86,14.4a2.63,2.63,0,0,1,.6,1.62,2.49,2.49,0,0,1-.78,1.92,2.81,2.81,0,0,1-2,.72,2.66,2.66,0,0,1-1.2-.3,3,3,0,0,1-1-.84l-10.32-14-5.22,4.74v7.74A2.56,2.56,0,0,1,406,176a2.71,2.71,0,0,1-1.95.78A2.61,2.61,0,0,1,402.09,176Z"/><path d="M434.79,176a2.61,2.61,0,0,1-.78-1.92V148.37a2.71,2.71,0,0,1,.78-2,2.56,2.56,0,0,1,1.92-.81,2.77,2.77,0,0,1,2.76,2.76v2.46a19.94,19.94,0,0,1,4.92-4,12.42,12.42,0,0,1,6.24-1.5,10.37,10.37,0,0,1,5.73,1.56,10.14,10.14,0,0,1,3.72,4.26,13.6,13.6,0,0,1,1.29,5.94v17a2.56,2.56,0,0,1-.81,1.92,2.71,2.71,0,0,1-1.95.78,2.66,2.66,0,0,1-2.7-2.7V157.67q0-7.32-6.6-7.32a9.55,9.55,0,0,0-5.37,1.56,19.44,19.44,0,0,0-4.47,4.2v18a2.56,2.56,0,0,1-.81,1.92,2.71,2.71,0,0,1-2,.78A2.61,2.61,0,0,1,434.79,176Z"/><path d="M476,175.13a13.46,13.46,0,0,1-5.37-5.61,19.21,19.21,0,0,1,0-16.62,13.46,13.46,0,0,1,5.37-5.61,17.44,17.44,0,0,1,16.14,0,13.65,13.65,0,0,1,5.4,5.61,18.94,18.94,0,0,1,0,16.62,13.65,13.65,0,0,1-5.4,5.61,17.44,17.44,0,0,1-16.14,0ZM488.76,171a9.16,9.16,0,0,0,3.72-3.6,12,12,0,0,0,1.47-6.24,11.88,11.88,0,0,0-1.47-6.18,9,9,0,0,0-3.72-3.57,10.52,10.52,0,0,0-4.71-1.11,10.64,10.64,0,0,0-4.77,1.11,8.78,8.78,0,0,0-3.69,3.57,12.08,12.08,0,0,0-1.44,6.18,12.21,12.21,0,0,0,1.44,6.24,9,9,0,0,0,3.69,3.6,10.41,10.41,0,0,0,4.77,1.14A10.29,10.29,0,0,0,488.76,171Z"/><path d="M513.57,176.09a3.66,3.66,0,0,1-1.32-1.8l-8.52-25a3.23,3.23,0,0,1-.18-1,2.66,2.66,0,0,1,2.7-2.7,2.74,2.74,0,0,1,1.53.45,2.21,2.21,0,0,1,.93,1.17l7,23.1,7-22.56a3.08,3.08,0,0,1,5.88,0l7,22.56,7-23.1a2.21,2.21,0,0,1,.93-1.17,2.74,2.74,0,0,1,1.53-.45,2.66,2.66,0,0,1,2.7,2.7,3.23,3.23,0,0,1-.18,1l-8.52,25a3.66,3.66,0,0,1-1.32,1.8,3.6,3.6,0,0,1-4.32,0,4,4,0,0,1-1.38-1.86l-6.36-19.86-6.36,19.86a4,4,0,0,1-1.38,1.86,3.6,3.6,0,0,1-4.32,0Z"/><path d="M572.64,176a8.52,8.52,0,0,1-3.57-3.15,8.68,8.68,0,0,1-1.32-4.77,8.41,8.41,0,0,1,3.51-7.08q3.51-2.64,10.29-2.64h7.26v-.48q0-4-1.95-5.7t-6.09-1.74a20.45,20.45,0,0,0-4,.36,34,34,0,0,0-3.93,1.08,3.37,3.37,0,0,1-.78.12,2.13,2.13,0,0,1-1.56-.66,2.2,2.2,0,0,1-.66-1.62,2.31,2.31,0,0,1,1.56-2.28,26.39,26.39,0,0,1,10.38-2.16,13.55,13.55,0,0,1,7,1.68,10.56,10.56,0,0,1,4.2,4.35,12.65,12.65,0,0,1,1.35,5.79v17a2.56,2.56,0,0,1-.81,1.92,2.71,2.71,0,0,1-2,.78,2.66,2.66,0,0,1-2.7-2.7v-1.56a15.07,15.07,0,0,1-11.28,4.56A11.15,11.15,0,0,1,572.64,176Zm12-5a14.18,14.18,0,0,0,4.14-3.21v-5h-6.54q-9.06,0-9.06,4.74a4.45,4.45,0,0,0,1.47,3.48q1.47,1.32,4.89,1.32A10.85,10.85,0,0,0,584.67,171Z"/><path d="M624.51,172.55v1.56a2.56,2.56,0,0,1-.81,1.92,2.71,2.71,0,0,1-2,.78,2.66,2.66,0,0,1-2.7-2.7V135.17a2.71,2.71,0,0,1,.78-1.95,2.56,2.56,0,0,1,1.92-.81,2.67,2.67,0,0,1,2.76,2.76v14.7a13.79,13.79,0,0,1,10.26-4.56,14.07,14.07,0,0,1,7.05,1.89,14.34,14.34,0,0,1,5.4,5.52,18.45,18.45,0,0,1,0,17,14.34,14.34,0,0,1-5.4,5.52,14.07,14.07,0,0,1-7.05,1.89A13.79,13.79,0,0,1,624.51,172.55Zm16.62-3.36q2.7-2.82,2.7-8t-2.7-8a9.43,9.43,0,0,0-7.14-2.82,11.33,11.33,0,0,0-5.19,1.23,14.82,14.82,0,0,0-4.29,3.27v12.6a14.82,14.82,0,0,0,4.29,3.27A11.33,11.33,0,0,0,634,172,9.43,9.43,0,0,0,641.13,169.19Z"/><path d="M659.16,172.94q-4.11-4.17-4.11-11.73a19.56,19.56,0,0,1,1.56-7.86,13.36,13.36,0,0,1,4.8-5.82,13.79,13.79,0,0,1,8-2.22,14,14,0,0,1,7.68,2.07A13.39,13.39,0,0,1,682,152.9a17,17,0,0,1,1.68,7.53,2.62,2.62,0,0,1-2.76,2.7H660.57a9.87,9.87,0,0,0,3.12,6.54q2.64,2.34,7.38,2.34a18,18,0,0,0,4.41-.48,18.32,18.32,0,0,0,3.69-1.38,2.38,2.38,0,0,1,1.08-.24,2.41,2.41,0,0,1,1.68.66,2.18,2.18,0,0,1,.72,1.68,2.59,2.59,0,0,1-1.56,2.22,18.74,18.74,0,0,1-10.5,2.64Q663.27,177.11,659.16,172.94Zm19.11-14.25a9.61,9.61,0,0,0-1.53-4.92,8.26,8.26,0,0,0-3.33-2.91,9.15,9.15,0,0,0-8,0,8.06,8.06,0,0,0-3.3,2.91,9.79,9.79,0,0,0-1.5,4.92Z"/><path d="M693.78,176a8.52,8.52,0,0,1-3.57-3.15,8.68,8.68,0,0,1-1.32-4.77A8.41,8.41,0,0,1,692.4,161q3.51-2.64,10.29-2.64H710v-.48q0-4-2-5.7t-6.09-1.74a20.45,20.45,0,0,0-4,.36,34,34,0,0,0-3.93,1.08,3.37,3.37,0,0,1-.78.12,2.13,2.13,0,0,1-1.56-.66,2.2,2.2,0,0,1-.66-1.62,2.31,2.31,0,0,1,1.56-2.28,26.39,26.39,0,0,1,10.38-2.16,13.55,13.55,0,0,1,7,1.68,10.56,10.56,0,0,1,4.2,4.35,12.65,12.65,0,0,1,1.35,5.79v17a2.56,2.56,0,0,1-.81,1.92,2.71,2.71,0,0,1-2,.78,2.66,2.66,0,0,1-2.7-2.7v-1.56a15.07,15.07,0,0,1-11.28,4.56A11.15,11.15,0,0,1,693.78,176Zm12-5a14.18,14.18,0,0,0,4.14-3.21v-5h-6.54q-9.06,0-9.06,4.74a4.45,4.45,0,0,0,1.47,3.48q1.47,1.32,4.89,1.32A10.85,10.85,0,0,0,705.81,171Z"/><path d="M725.37,176a2.61,2.61,0,0,1-.78-1.92V148.37a2.71,2.71,0,0,1,.78-2,2.56,2.56,0,0,1,1.92-.81,2.77,2.77,0,0,1,2.76,2.76V151q4.2-5.64,9.42-5.64h.3a2.51,2.51,0,0,1,1.89.78,2.66,2.66,0,0,1,.75,1.92,2.42,2.42,0,0,1-.78,1.86,2.81,2.81,0,0,1-2,.72h-.3a10.23,10.23,0,0,0-5.28,1.41,12.16,12.16,0,0,0-4,3.87v18.24a2.56,2.56,0,0,1-.81,1.92,2.71,2.71,0,0,1-2,.78A2.61,2.61,0,0,1,725.37,176Z"/><path d="M764,176a2.61,2.61,0,0,1-.78-1.92V135.17a2.71,2.71,0,0,1,.78-1.95,2.56,2.56,0,0,1,1.92-.81,2.77,2.77,0,0,1,2.76,2.76v15.66a19.94,19.94,0,0,1,4.92-4,12.42,12.42,0,0,1,6.24-1.5,10.37,10.37,0,0,1,5.73,1.56,10.14,10.14,0,0,1,3.72,4.26,13.6,13.6,0,0,1,1.29,5.94v17a2.56,2.56,0,0,1-.81,1.92,2.71,2.71,0,0,1-2,.78,2.66,2.66,0,0,1-2.7-2.7V157.67q0-7.32-6.6-7.32a9.55,9.55,0,0,0-5.37,1.56,19.44,19.44,0,0,0-4.47,4.2v18a2.56,2.56,0,0,1-.81,1.92,2.71,2.71,0,0,1-2,.78A2.61,2.61,0,0,1,764,176Z"/><path d="M802.62,176a8.52,8.52,0,0,1-3.57-3.15,8.68,8.68,0,0,1-1.32-4.77,8.41,8.41,0,0,1,3.51-7.08q3.51-2.64,10.29-2.64h7.26v-.48q0-4-1.95-5.7t-6.09-1.74a20.45,20.45,0,0,0-4,.36,34,34,0,0,0-3.93,1.08,3.37,3.37,0,0,1-.78.12,2.13,2.13,0,0,1-1.56-.66,2.2,2.2,0,0,1-.66-1.62,2.31,2.31,0,0,1,1.56-2.28,26.39,26.39,0,0,1,10.38-2.16,13.55,13.55,0,0,1,7,1.68,10.56,10.56,0,0,1,4.2,4.35,12.65,12.65,0,0,1,1.35,5.79v17a2.56,2.56,0,0,1-.81,1.92,2.71,2.71,0,0,1-2,.78,2.66,2.66,0,0,1-2.7-2.7v-1.56a15.07,15.07,0,0,1-11.28,4.56A11.15,11.15,0,0,1,802.62,176Zm12-5a14.18,14.18,0,0,0,4.14-3.21v-5h-6.54q-9.06,0-9.06,4.74a4.45,4.45,0,0,0,1.47,3.48q1.47,1.32,4.89,1.32A10.85,10.85,0,0,0,814.65,171Z"/><path d="M832.41,174.41a2.29,2.29,0,0,1-1-2,2.41,2.41,0,0,1,.66-1.68,2.18,2.18,0,0,1,1.68-.72,2.64,2.64,0,0,1,1.08.24,24.25,24.25,0,0,0,3.84,1.32,17.85,17.85,0,0,0,4.32.48q6.66,0,6.66-4.26a2.27,2.27,0,0,0-1.53-2.1,31.33,31.33,0,0,0-5-1.62,45.27,45.27,0,0,1-5.85-1.74,10.29,10.29,0,0,1-4-2.73,6.94,6.94,0,0,1-1.65-4.83,8.65,8.65,0,0,1,3-6.84q3-2.64,8.67-2.64a25,25,0,0,1,8.7,1.5,2.25,2.25,0,0,1,1.29.9,2.41,2.41,0,0,1,.45,1.38,2.35,2.35,0,0,1-.69,1.68,2.27,2.27,0,0,1-1.71.72,3.37,3.37,0,0,1-.78-.12,23,23,0,0,0-6.84-1.08,9.37,9.37,0,0,0-5.07,1.17,3.49,3.49,0,0,0-1.83,3,2.77,2.77,0,0,0,1.68,2.64,24,24,0,0,0,5.22,1.62,50,50,0,0,1,5.76,1.77,9.52,9.52,0,0,1,3.81,2.73,7.41,7.41,0,0,1,1.59,5,7.93,7.93,0,0,1-3,6.36q-3,2.52-8.55,2.52A22.32,22.32,0,0,1,832.41,174.41Z"/><path d="M897.15,176a2.61,2.61,0,0,1-.78-1.92V166h-18.3a3.4,3.4,0,0,1-2.46-1,3.25,3.25,0,0,1-1-2.43V162a3.35,3.35,0,0,1,.72-2.16l18.84-24.06a3.36,3.36,0,0,1,1.29-1.05,3.89,3.89,0,0,1,1.71-.39h1.2a3.35,3.35,0,0,1,2.52,1,3.43,3.43,0,0,1,1,2.49v23.28h4.56a2.46,2.46,0,0,1,2.46,2.46,2.27,2.27,0,0,1-.72,1.71,2.42,2.42,0,0,1-1.74.69h-4.56v8.16A2.56,2.56,0,0,1,901,176a2.71,2.71,0,0,1-1.95.78A2.61,2.61,0,0,1,897.15,176Zm-16.74-14.94h16V140.51Z"/><path d="M915.57,175.64a3,3,0,0,1-.9-2.25,9.9,9.9,0,0,1,1.83-5.76,20.81,20.81,0,0,1,4.44-4.65q2.61-2,6.87-4.77,3.66-2.34,5.82-4a17.81,17.81,0,0,0,3.6-3.54,6.68,6.68,0,0,0,1.44-4.08,6.92,6.92,0,0,0-2.25-5.43q-2.25-2-7.23-2a25,25,0,0,0-10.26,2.16,2.55,2.55,0,0,1-1.14.3,2.2,2.2,0,0,1-1.62-.66,2.28,2.28,0,0,1-.66-1.68,2.37,2.37,0,0,1,1.32-2.22A29.36,29.36,0,0,1,930.15,134a15.79,15.79,0,0,1,7,1.53,12.27,12.27,0,0,1,5,4.29,11.24,11.24,0,0,1,1.83,6.36,11.42,11.42,0,0,1-2.07,6.57,24,24,0,0,1-5,5.31q-2.88,2.28-7.5,5.28-4.2,2.82-6.33,4.53a10.2,10.2,0,0,0-3,3.51H941a2.56,2.56,0,0,1,2.58,2.58,2.39,2.39,0,0,1-.75,1.8,2.54,2.54,0,0,1-1.83.72H917.85A3.15,3.15,0,0,1,915.57,175.64Z"/><path d="M970.59,169.19v-18.6h-4.26a1.13,1.13,0,0,1-1.14-1.14,1.25,1.25,0,0,1,.54-1l8.16-8a1.51,1.51,0,0,1,1-.54,1.06,1.06,0,0,1,.81.36,1.2,1.2,0,0,1,.33.84v4.8h6.78a2.26,2.26,0,0,1,2.34,2.34,2.3,2.3,0,0,1-.66,1.65,2.22,2.22,0,0,1-1.68.69h-6.78v18.12q0,2.34,1.11,3a5.59,5.59,0,0,0,2.79.63,8.32,8.32,0,0,0,2.4-.36l.51-.12a3.27,3.27,0,0,1,.69-.06,2.11,2.11,0,0,1,1.5.63,2,2,0,0,1,.66,1.53,2.27,2.27,0,0,1-1.38,2.1,11.74,11.74,0,0,1-5,1.08Q970.59,177.11,970.59,169.19Z"/><path d="M993.54,172.94q-4.11-4.17-4.11-11.73a19.56,19.56,0,0,1,1.56-7.86,13.36,13.36,0,0,1,4.8-5.82,13.79,13.79,0,0,1,8-2.22,14,14,0,0,1,7.68,2.07,13.39,13.39,0,0,1,4.92,5.52,17,17,0,0,1,1.68,7.53,2.62,2.62,0,0,1-2.76,2.7H995a9.87,9.87,0,0,0,3.12,6.54q2.64,2.34,7.38,2.34a18,18,0,0,0,4.41-.48,18.32,18.32,0,0,0,3.69-1.38,2.38,2.38,0,0,1,1.08-.24,2.41,2.41,0,0,1,1.68.66,2.18,2.18,0,0,1,.72,1.68,2.59,2.59,0,0,1-1.56,2.22,18.74,18.74,0,0,1-10.5,2.64Q997.65,177.11,993.54,172.94Zm19.11-14.25a9.61,9.61,0,0,0-1.53-4.92,8.26,8.26,0,0,0-3.33-2.91,9.15,9.15,0,0,0-8,0,8.06,8.06,0,0,0-3.3,2.91,9.79,9.79,0,0,0-1.5,4.92Z"/><path d="M1027.5,172.94q-4.11-4.17-4.11-11.73a19.56,19.56,0,0,1,1.56-7.86,13.36,13.36,0,0,1,4.8-5.82,13.79,13.79,0,0,1,8-2.22,14,14,0,0,1,7.68,2.07,13.39,13.39,0,0,1,4.92,5.52,17,17,0,0,1,1.68,7.53,2.62,2.62,0,0,1-2.76,2.7h-20.34a9.87,9.87,0,0,0,3.12,6.54q2.64,2.34,7.38,2.34a18,18,0,0,0,4.41-.48,18.32,18.32,0,0,0,3.69-1.38,2.38,2.38,0,0,1,1.08-.24,2.41,2.41,0,0,1,1.68.66,2.18,2.18,0,0,1,.72,1.68,2.59,2.59,0,0,1-1.56,2.22,18.74,18.74,0,0,1-10.5,2.64Q1031.61,177.11,1027.5,172.94Zm19.11-14.25a9.61,9.61,0,0,0-1.53-4.92,8.26,8.26,0,0,0-3.33-2.91,9.15,9.15,0,0,0-8,0,8.06,8.06,0,0,0-3.3,2.91,9.79,9.79,0,0,0-1.5,4.92Z"/><path d="M1061,169.19v-18.6h-4.26a1.13,1.13,0,0,1-1.14-1.14,1.25,1.25,0,0,1,.54-1l8.16-8a1.51,1.51,0,0,1,1-.54,1.06,1.06,0,0,1,.81.36,1.2,1.2,0,0,1,.33.84v4.8h6.78a2.26,2.26,0,0,1,2.34,2.34,2.3,2.3,0,0,1-.66,1.65,2.22,2.22,0,0,1-1.68.69h-6.78v18.12q0,2.34,1.11,3a5.59,5.59,0,0,0,2.79.63,8.32,8.32,0,0,0,2.4-.36l.51-.12a3.27,3.27,0,0,1,.69-.06,2.11,2.11,0,0,1,1.5.63,2,2,0,0,1,.66,1.53,2.27,2.27,0,0,1-1.38,2.1,11.74,11.74,0,0,1-5,1.08Q1061,177.11,1061,169.19Z"/><path d="M1082.91,176a2.61,2.61,0,0,1-.78-1.92V135.17a2.71,2.71,0,0,1,.78-1.95,2.56,2.56,0,0,1,1.92-.81,2.77,2.77,0,0,1,2.76,2.76v15.66a19.94,19.94,0,0,1,4.92-4,12.42,12.42,0,0,1,6.24-1.5,10.37,10.37,0,0,1,5.73,1.56,10.14,10.14,0,0,1,3.72,4.26,13.6,13.6,0,0,1,1.29,5.94v17a2.56,2.56,0,0,1-.81,1.92,2.71,2.71,0,0,1-2,.78,2.66,2.66,0,0,1-2.7-2.7V157.67q0-7.32-6.6-7.32a9.55,9.55,0,0,0-5.37,1.56,19.44,19.44,0,0,0-4.47,4.2v18a2.56,2.56,0,0,1-.81,1.92,2.71,2.71,0,0,1-2,.78A2.61,2.61,0,0,1,1082.91,176Z"/><path d="M1124.22,164.66a2.17,2.17,0,0,1-.75-1.65,11,11,0,0,1,1-4.74,12.66,12.66,0,0,1,2.25-3.39,36.67,36.67,0,0,1,3.45-3.09,22.29,22.29,0,0,0,3.36-3.12,4.61,4.61,0,0,0,1.08-3q0-6.54-8.58-6.54a16.65,16.65,0,0,0-4.11.51,12.75,12.75,0,0,0-3.57,1.47,2.67,2.67,0,0,1-1.5.48,2.46,2.46,0,0,1-2.4-2.4,2.63,2.63,0,0,1,1.5-2.28,17.65,17.65,0,0,1,5-2.22,22,22,0,0,1,5.58-.66q6.12,0,9.81,3.06a10.19,10.19,0,0,1,3.69,8.28,9.49,9.49,0,0,1-.84,4.11,11,11,0,0,1-2,3,33.33,33.33,0,0,1-3.18,2.79A23.3,23.3,0,0,0,1130,159a6.37,6.37,0,0,0-1.29,4,2.13,2.13,0,0,1-.78,1.65,2.71,2.71,0,0,1-1.86.69A2.68,2.68,0,0,1,1124.22,164.66Zm-.72,11a3.47,3.47,0,0,1-1-2.55,3.59,3.59,0,0,1,3.54-3.54,3.47,3.47,0,0,1,2.55,1,3.4,3.4,0,0,1,1,2.49,3.59,3.59,0,0,1-3.6,3.6A3.4,3.4,0,0,1,1123.5,175.7Z"/><path d="M1332.33,303.12a4.21,4.21,0,0,1-1.41-2L1319.16,265a4.2,4.2,0,0,1-.18-1,2.37,2.37,0,0,1,.69-1.89,2.64,2.64,0,0,1,1.95-.75,2.54,2.54,0,0,1,1.68.6,3.23,3.23,0,0,1,1,1.56l10.08,33.12,10.14-33a3,3,0,0,1,1.17-1.65,3.33,3.33,0,0,1,3.9,0,3,3,0,0,1,1.17,1.65l10.14,33L1371,263.49a3.23,3.23,0,0,1,1-1.56,2.54,2.54,0,0,1,1.68-.6,2.64,2.64,0,0,1,2,.75,2.37,2.37,0,0,1,.69,1.89,4.2,4.2,0,0,1-.18,1l-11.76,36.12a4.21,4.21,0,0,1-1.41,2,3.48,3.48,0,0,1-2.13.69,3.54,3.54,0,0,1-2.19-.75,3.73,3.73,0,0,1-1.35-1.95l-9.66-30.6-9.66,30.6a3.73,3.73,0,0,1-1.35,1.95,3.54,3.54,0,0,1-2.19.75A3.48,3.48,0,0,1,1332.33,303.12Z"/><path d="M1383.48,303a2.61,2.61,0,0,1-.78-1.92V262.17a2.71,2.71,0,0,1,.78-1.95,2.56,2.56,0,0,1,1.92-.81,2.77,2.77,0,0,1,2.76,2.76v15.66a19.94,19.94,0,0,1,4.92-4,12.42,12.42,0,0,1,6.24-1.5,10.37,10.37,0,0,1,5.73,1.56,10.14,10.14,0,0,1,3.72,4.26,13.6,13.6,0,0,1,1.29,5.94v17a2.56,2.56,0,0,1-.81,1.92,2.71,2.71,0,0,1-2,.78,2.66,2.66,0,0,1-2.7-2.7V284.67q0-7.32-6.6-7.32a9.55,9.55,0,0,0-5.37,1.56,19.44,19.44,0,0,0-4.47,4.2v18a2.56,2.56,0,0,1-.81,1.92,2.71,2.71,0,0,1-1.95.78A2.61,2.61,0,0,1,1383.48,303Z"/><path d="M1424.64,302.13a13.46,13.46,0,0,1-5.37-5.61,19.21,19.21,0,0,1,0-16.62,13.46,13.46,0,0,1,5.37-5.61,17.44,17.44,0,0,1,16.14,0,13.65,13.65,0,0,1,5.4,5.61,18.94,18.94,0,0,1,0,16.62,13.65,13.65,0,0,1-5.4,5.61,17.44,17.44,0,0,1-16.14,0Zm12.81-4.14a9.16,9.16,0,0,0,3.72-3.6,12,12,0,0,0,1.47-6.24,11.88,11.88,0,0,0-1.47-6.18,9,9,0,0,0-3.72-3.57,10.52,10.52,0,0,0-4.71-1.11,10.64,10.64,0,0,0-4.77,1.11,8.78,8.78,0,0,0-3.69,3.57,12.08,12.08,0,0,0-1.44,6.18,12.21,12.21,0,0,0,1.44,6.24A9,9,0,0,0,1428,298a10.41,10.41,0,0,0,4.77,1.14A10.29,10.29,0,0,0,1437.45,298Z"/><path d="M1472.09,303a2.61,2.61,0,0,1-.78-1.92V262.17a2.71,2.71,0,0,1,.78-1.95,2.56,2.56,0,0,1,1.92-.81,2.77,2.77,0,0,1,2.76,2.76v24.54l14.28-13.2a2.76,2.76,0,0,1,1.8-.78,2.43,2.43,0,0,1,2,.78,2.87,2.87,0,0,1,.63,1.86,2.94,2.94,0,0,1-1,2l-8.64,7.74,10.86,14.4a2.63,2.63,0,0,1,.6,1.62,2.49,2.49,0,0,1-.78,1.92,2.81,2.81,0,0,1-2,.72,2.66,2.66,0,0,1-1.2-.3,3,3,0,0,1-1-.84l-10.32-14-5.22,4.74v7.74A2.56,2.56,0,0,1,1476,303a2.71,2.71,0,0,1-2,.78A2.61,2.61,0,0,1,1472.09,303Z"/><path d="M1504.79,303a2.61,2.61,0,0,1-.78-1.92V275.37a2.71,2.71,0,0,1,.78-1.95,2.56,2.56,0,0,1,1.92-.81,2.77,2.77,0,0,1,2.76,2.76v2.46a19.94,19.94,0,0,1,4.92-4,12.42,12.42,0,0,1,6.24-1.5,10.37,10.37,0,0,1,5.73,1.56,10.14,10.14,0,0,1,3.72,4.26,13.6,13.6,0,0,1,1.29,5.94v17a2.56,2.56,0,0,1-.81,1.92,2.71,2.71,0,0,1-2,.78,2.66,2.66,0,0,1-2.7-2.7V284.67q0-7.32-6.6-7.32a9.55,9.55,0,0,0-5.37,1.56,19.44,19.44,0,0,0-4.47,4.2v18a2.56,2.56,0,0,1-.81,1.92,2.71,2.71,0,0,1-2,.78A2.61,2.61,0,0,1,1504.79,303Z"/><path d="M1542.8,299.94q-4.11-4.17-4.11-11.73a19.56,19.56,0,0,1,1.56-7.86,13.36,13.36,0,0,1,4.8-5.82,13.79,13.79,0,0,1,8-2.22,14,14,0,0,1,7.68,2.07,13.39,13.39,0,0,1,4.92,5.52,17,17,0,0,1,1.68,7.53,2.62,2.62,0,0,1-2.76,2.7h-20.34a9.87,9.87,0,0,0,3.12,6.54q2.64,2.34,7.38,2.34a18,18,0,0,0,4.41-.48,18.32,18.32,0,0,0,3.69-1.38,2.38,2.38,0,0,1,1.08-.24,2.41,2.41,0,0,1,1.68.66,2.18,2.18,0,0,1,.72,1.68,2.59,2.59,0,0,1-1.56,2.22,18.74,18.74,0,0,1-10.5,2.64Q1546.91,304.11,1542.8,299.94Zm19.11-14.25a9.61,9.61,0,0,0-1.53-4.92,8.26,8.26,0,0,0-3.33-2.91,9.15,9.15,0,0,0-8,0,8.06,8.06,0,0,0-3.3,2.91,9.79,9.79,0,0,0-1.5,4.92Z"/><path d="M1581.17,303.09a3.66,3.66,0,0,1-1.32-1.8l-8.52-25a3.23,3.23,0,0,1-.18-1,2.66,2.66,0,0,1,2.7-2.7,2.74,2.74,0,0,1,1.53.45,2.21,2.21,0,0,1,.93,1.17l7,23.1,7-22.56a3.08,3.08,0,0,1,5.88,0l7,22.56,7-23.1a2.21,2.21,0,0,1,.93-1.17,2.74,2.74,0,0,1,1.53-.45,2.66,2.66,0,0,1,2.7,2.7,3.23,3.23,0,0,1-.18,1l-8.52,25a3.66,3.66,0,0,1-1.32,1.8,3.6,3.6,0,0,1-4.32,0,4,4,0,0,1-1.38-1.86l-6.36-19.86-6.36,19.86a4,4,0,0,1-1.38,1.86,3.6,3.6,0,0,1-4.32,0Z"/><path d="M1628.36,291.66a2.17,2.17,0,0,1-.75-1.65,11,11,0,0,1,1-4.74,12.66,12.66,0,0,1,2.25-3.39,36.67,36.67,0,0,1,3.45-3.09,22.29,22.29,0,0,0,3.36-3.12,4.61,4.61,0,0,0,1.08-3q0-6.54-8.58-6.54a16.65,16.65,0,0,0-4.11.51,12.75,12.75,0,0,0-3.57,1.47,2.67,2.67,0,0,1-1.5.48,2.46,2.46,0,0,1-2.4-2.4,2.63,2.63,0,0,1,1.5-2.28,17.65,17.65,0,0,1,5-2.22,22,22,0,0,1,5.58-.66q6.12,0,9.81,3.06a10.19,10.19,0,0,1,3.69,8.28,9.49,9.49,0,0,1-.84,4.11,11,11,0,0,1-2,3,33.33,33.33,0,0,1-3.18,2.79,23.3,23.3,0,0,0-3.87,3.69,6.37,6.37,0,0,0-1.29,4.05,2.13,2.13,0,0,1-.78,1.65,2.71,2.71,0,0,1-1.86.69A2.68,2.68,0,0,1,1628.36,291.66Zm-.72,11a3.47,3.47,0,0,1-1.05-2.55,3.59,3.59,0,0,1,3.54-3.54,3.47,3.47,0,0,1,2.55,1.05,3.4,3.4,0,0,1,1,2.49,3.59,3.59,0,0,1-3.6,3.6A3.4,3.4,0,0,1,1627.64,302.7Z"/><path class="cls-3" d="M443,364.5c1.38-.17,2.77-.3,4.15-.43q5.61-.51,11.23-.79,8.13-.42,16.27-.43c6.47,0,13,.21,19.41.67A195,195,0,0,1,514.49,366a128.39,128.39,0,0,1,20,5.11,73,73,0,0,1,17,8.33,43.22,43.22,0,0,1,12.2,12.2,37.34,37.34,0,0,1,5.7,16.94c.76,8.77-1.34,17-3.44,25.47-3.62,14.51-7.07,29.07-10.67,43.59-3.3,13.29-6.7,26.56-10.66,39.68-3.27,10.82-6.86,21.64-11.7,31.87-3.42,7.22-7.52,14.73-13.74,19.93-4.76,4-10.46,5.37-16.34,3.53-4-1.25-7.37-3.67-10.67-6.14-6.72-5-13.46-10-20.14-15.11-12.12-9.2-24.22-18.6-35-29.34-8-7.92-16.16-17.14-19.38-28.15a28.64,28.64,0,0,1-1.17-6.94c-.11-2.79.24-5.59.28-8.38a171.39,171.39,0,0,0-1-19.74c-.62-6.27-1.42-12.53-2-18.8a89.92,89.92,0,0,1-.65-15.12,19.24,19.24,0,0,1,.91-4.93,5.78,5.78,0,0,1,1.84-2.7c1.58-1.09.08-3.69-1.52-2.6-2.91,2-3.74,5.62-4.11,8.93-.56,5-.08,10.1.4,15.07,1.24,13,3.33,26,3.21,39.13,0,2.91-.37,5.83-.3,8.74a31.11,31.11,0,0,0,1,7.18,47.84,47.84,0,0,0,6.88,14.5c7.6,11.28,17.95,20.61,28.32,29.28,12.78,10.69,26.24,20.54,39.57,30.52,6.38,4.77,13.31,9.5,21.68,8.22,7-1.06,12.35-6.19,16.42-11.59,5.81-7.72,9.74-16.84,13.17-25.81,4.54-11.88,8.12-24.12,11.45-36.39,3.83-14.11,7.28-28.33,10.73-42.54q2.73-11.25,5.5-22.51c1.34-5.43,2.93-10.83,3.72-16.37a49,49,0,0,0-1.19-21.28,40.31,40.31,0,0,0-9.29-15.85,55.7,55.7,0,0,0-15.23-11.08,96.31,96.31,0,0,0-19.1-7.14,159.79,159.79,0,0,0-21.14-4c-6.88-.88-13.8-1.4-20.73-1.65-6.22-.24-12.45-.25-18.67-.09q-7.19.18-14.36.7c-2.72.2-5.44.43-8.14.72l-1.06.12c-1.89.23-1.92,3.23,0,3Z"/><path class="cls-3" d="M465.9,336a10.92,10.92,0,0,0,2.6-1.41c1.73-1.06,3.44-2.15,5.15-3.23,5.88-3.7,11.79-7.35,17.76-10.89,8.4-5,16.91-9.75,25.55-14.27,10.19-5.34,20.56-10.33,31.14-14.85A302.34,302.34,0,0,1,582.25,279,186,186,0,0,1,617,272a107.19,107.19,0,0,1,32.66,1.51,74.42,74.42,0,0,1,14.89,4.83c6.63,3,12.67,7.16,18.67,11.25A257.52,257.52,0,0,1,722.35,322a171.69,171.69,0,0,1,22.28,27.64A115.56,115.56,0,0,1,754.71,369c.71,1.83,1.37,3.68,1.95,5.56l.27.9c0,.12.06.25.1.36.13.38,0,0,0,0a1.7,1.7,0,0,1,1.09-1.14c-.1,0,.36.12,0,0l-.46-.16c-.3-.1.25.12,0,0l-.26-.12-.66-.33c-.53-.28-1-.58-1.55-.88-1.39-.81-2.75-1.68-4.11-2.55-4-2.53-7.86-5.11-11.82-7.64a357.59,357.59,0,0,0-34.66-19.82c-13.61-6.68-27.91-12.34-42.82-15.31-12.36-2.47-25-2.59-37.59-2.27-13.47.34-26.92,1.36-40.33,2.68s-27,3-40.49,4.83q-16.87,2.32-33.7,5.07c-6.64,1.08-13.28,2.2-19.91,3.4l-2.71.49c-1.89.36-1.09,3.25.8,2.9,3.68-.69,7.37-1.33,11.05-2q14.18-2.43,28.4-4.57c12.83-1.93,25.68-3.69,38.57-5.2,13.83-1.64,27.7-3,41.61-3.88a324.79,324.79,0,0,1,37.57-.55c14.88.81,29.26,4.72,43,10.26A271.34,271.34,0,0,1,727,358.88c8.57,5.16,16.82,10.82,25.34,16.06,1.59,1,3.8,2.72,5.78,2.72,2.39,0,1.87-2.41,1.41-3.9a92.09,92.09,0,0,0-6-14.51,144.31,144.31,0,0,0-15.81-24.31,211.47,211.47,0,0,0-30.25-30.69c-7-5.88-14.35-11.4-21.91-16.59-6.19-4.25-12.45-8.61-19.31-11.75a86.32,86.32,0,0,0-31.41-7.29,142.15,142.15,0,0,0-34.49,2.82,239.21,239.21,0,0,0-35.15,9.91c-11.38,4.09-22.53,8.85-33.45,14-9.89,4.7-19.61,9.77-29.17,15.11q-11.34,6.35-22.41,13.19c-4.4,2.71-8.75,5.51-13.15,8.22-.5.31-1,.62-1.52.9l-.48.26c-.39.23.34-.1,0,0a1.51,1.51,0,0,0,.8,2.9Z"/><path class="cls-3" d="M394.64,371.21a11.33,11.33,0,0,0,1.34-2.86c.69-1.79,1.35-3.59,2-5.39,2.3-6.19,4.65-12.36,7.1-18.5q5.2-13,11-25.72c4.63-10.08,9.59-20,15-29.72a320.67,320.67,0,0,1,18.66-30A200.75,200.75,0,0,1,472,232.38a118.16,118.16,0,0,1,25.63-19.81,74.16,74.16,0,0,1,28.79-9.34,277.33,277.33,0,0,1,54.51-.14,187.13,187.13,0,0,1,37.86,7.6,123.79,123.79,0,0,1,22.71,9.58c2.14,1.19,4.25,2.47,6.29,3.84.65.44,1.3.89,1.94,1.35l.68.5c.27.21-.25-.29,0,0a1.11,1.11,0,0,1-.3-.78,1.28,1.28,0,0,1,.32-.83c-.1.14.34-.36,0-.05,0,0,.32-.08,0,0-.18.05-.36.11-.55.15a13.19,13.19,0,0,1-1.42.27l-.36,0c-.38.06.24,0-.16,0l-1,.13c-3.78.42-7.58.66-11.38,1-12.11.93-24.22,2.1-36.23,4-14.61,2.33-29.15,5.68-43,11a123.36,123.36,0,0,0-20,9.75,181.23,181.23,0,0,0-15,10.49c-11,8.4-21.48,17.49-31.7,26.82-10.64,9.72-21,19.75-31.2,29.94q-13,13-25.71,26.44-7.63,8.07-15.14,16.26c-.68.75-1.36,1.49-2,2.24-1.29,1.43.82,3.55,2.12,2.12,2.76-3.07,5.57-6.11,8.38-9.13q10.65-11.46,21.55-22.67,14.58-15,29.65-29.5c10.49-10,21.19-19.88,32.31-29.23,9.82-8.27,20-16.55,31.2-22.92,13.09-7.46,27.63-12.15,42.27-15.48a317.43,317.43,0,0,1,40.69-6.18c5.12-.48,10.24-.87,15.37-1.27,3.39-.26,6.8-.47,10.17-1,1.49-.23,4.49-.75,3.79-3-.4-1.32-2.55-2.37-3.63-3.09a98.26,98.26,0,0,0-16-8.62,157.15,157.15,0,0,0-30.47-9.51,231.31,231.31,0,0,0-46.44-4.59c-9.86,0-19.74.43-29.56,1.33a72.89,72.89,0,0,0-15.4,3.09,92.58,92.58,0,0,0-28,15A154.67,154.67,0,0,0,459,242.05a257.42,257.42,0,0,0-20.87,29C432,281,426.28,291.23,421,301.69q-7.08,14.07-13.25,28.58-5,11.53-9.41,23.28c-1.76,4.6-3.43,9.25-5.2,13.85-.11.29-.23.58-.34.86l-.15.38c-.16.4.08-.17,0,0s-.61,1.07-.15.47c-1.16,1.51.94,3.65,2.13,2.12Z"/><path class="cls-3" d="M345.61,451.91c-23.79,13-43,32.76-58.72,54.62-16.39,22.78-29.66,47.94-40.56,73.76a434.22,434.22,0,0,0-25.38,82,440.67,440.67,0,0,0-8.9,85.47,426.92,426.92,0,0,0,8.1,85.52q1,5.24,2.21,10.44c.42,1.88,3.32,1.08,2.89-.8a423,423,0,0,1-10.13-84.49A435.77,435.77,0,0,1,244.83,591.9a397.58,397.58,0,0,1,38.35-74.72c14.73-22.26,32.69-43,55.31-57.55q4.23-2.72,8.64-5.13c1.69-.92.18-3.51-1.52-2.59Z"/><path class="cls-3" d="M332.87,700c10.59-4.48,22.12-6.15,33.53-6.79a335.55,335.55,0,0,1,35.46.08q18.18.93,36.2,3.59a280.43,280.43,0,0,1,34.48,6.88A54.4,54.4,0,0,1,487,709.83a37.4,37.4,0,0,1,10.7,10.53c5.9,8.59,9.23,18.83,12,28.77,6.1,21.68,8.2,45.06,2.47,67.06-4.78,18.36-15,35.8-30.29,47.36-1.83,1.39-3.74,2.68-5.69,3.89a1.52,1.52,0,0,0,0,2.6c17.34,8.71,36.7,12.26,54.16,20.69,7.87,3.8,15.37,8.57,21.4,15,1.43,1.53,3.37,3.33,4,5.4.64,2.25-1.57,3.8-3.15,5a51.66,51.66,0,0,1-12.55,6.58c-9.46,3.53-19.49,5.25-29.49,6.32-10.4,1.12-20.86,1.79-31.29,2.41q-31.92,1.88-63.9,1.71t-63.87-2.4c-2.63-.18-5.27-.38-7.91-.58-1.92-.15-1.91,2.85,0,3q32.87,2.55,65.84,2.93t65.88-1.44c10.82-.59,21.65-1.29,32.44-2.34,10.33-1,20.7-2.51,30.57-5.82a61.1,61.1,0,0,0,13.23-6c3.43-2.15,8.48-5.29,7.1-10.08-.64-2.2-2.28-4-3.77-5.67a56.93,56.93,0,0,0-4.75-4.7,72.07,72.07,0,0,0-11-7.94c-16.91-10-36.46-13.75-54.42-21.33-2.36-1-4.68-2.07-7-3.22V870c16.9-10.46,28.88-27.39,35.26-46,7.39-21.64,6.8-45.25,1.76-67.33-2.44-10.72-5.66-21.64-10.69-31.46a50.82,50.82,0,0,0-8.76-12.5,40.79,40.79,0,0,0-13.16-8.79,89.73,89.73,0,0,0-15.47-4.73q-9.18-2.1-18.45-3.71c-12.21-2.13-24.53-3.67-36.89-4.61s-24.77-1.27-37.16-1c-11.69.28-23.52,1.18-34.77,4.56a82.69,82.69,0,0,0-8.07,2.93,1.51,1.51,0,0,0-.53,2.06,1.55,1.55,0,0,0,2.05.54Z"/><path class="cls-3" d="M390.33,575.63c21.93,5.09,45.23,10.52,62.61,25.77,14.61,12.81,23.9,31,27,50.07a83.73,83.73,0,0,1-1.12,32.62l1.45-1.11c-9.08-1.09-17.25-5.86-25.09-10.26s-15.36-8.86-23-13.33c-15.22-8.89-30.61-17.62-47-24.27a158.11,158.11,0,0,0-28.37-8.69c-1.88-.38-2.69,2.51-.8,2.89,17.41,3.5,33.84,10.43,49.53,18.61,15.86,8.26,31,17.74,46.61,26.53,8.82,5,17.87,10.29,28.11,11.52a1.49,1.49,0,0,0,1.45-1.1,89.75,89.75,0,0,0-6.52-58.68,84.31,84.31,0,0,0-17.34-24.36c-8-7.76-17.63-13.47-27.88-17.75-12.48-5.21-25.7-8.3-38.84-11.35-1.87-.44-2.68,2.45-.79,2.89Z"/><path class="cls-3" d="M557,592.41c7.34,3,13.21,8.61,18,14.79,5.25,6.74,9.52,14.27,13.77,21.66a501.2,501.2,0,0,1,25.49,50.88c3.78,8.74,7.35,17.59,10.56,26.56,1.24,3.46,2.62,7.66,1.28,11.29-1.24,3.37-4.6,4.57-7.94,4.25a22.59,22.59,0,0,1-9.81-3.87,91.59,91.59,0,0,1-10.15-7.85,112.46,112.46,0,0,1-17.7-19.48c-4.31-6-8.15-12.42-12.72-18.28-4.32-5.53-9.48-10.73-16-13.57a29.19,29.19,0,0,0-4.93-1.67c-1.87-.46-2.67,2.43-.79,2.89,15,3.64,22.8,19.12,30.9,30.79a116,116,0,0,0,28.34,28.7,29.59,29.59,0,0,0,10.31,4.93c3.35.77,7.12.71,10-1.41,3.21-2.36,4.33-6.29,3.94-10.13-.45-4.44-2.25-8.62-3.81-12.76q-2.62-7-5.46-13.83A503.08,503.08,0,0,0,594.6,633c-4.44-8-9-16-14.18-23.53-4.64-6.66-10.09-13-17.11-17.24a38.81,38.81,0,0,0-5.48-2.72c-1.79-.73-2.57,2.17-.8,2.89Z"/><path class="cls-3" d="M602.33,744.51c8.9.3,16.61,5.14,23,11a112,112,0,0,1,9.29,9.82c3,3.54,6.21,7.1,8.47,11.19a19.2,19.2,0,0,1,1.54,14.54,56.28,56.28,0,0,1-5.7,13.42A92.23,92.23,0,0,1,621.49,826c-3.41,3.21-7,6.23-10.69,9.11-1.87,1.46-3.77,2.88-5.69,4.28-1.67,1.22-3.76,2.49-4.12,4.71-.78,4.72,6.25,6,9.42,7,4.87,1.56,9.8,2.95,14.72,4.38,9.85,2.86,19.75,5.9,28.77,10.9,3.88,2.15,8,4.88,9.27,9.39,1.26,4.34-.07,9.1-2.56,12.75-2.66,3.9-6.64,6.73-10.67,9.07a106.84,106.84,0,0,1-14,6.75A117.43,117.43,0,0,1,606,912c-2.53.3-5.07.51-7.62.65-1.92.1-1.93,3.1,0,3a120.29,120.29,0,0,0,46.4-11.95A67.29,67.29,0,0,0,657.54,896a24.17,24.17,0,0,0,8.28-11.51c1.37-4.44,1.11-9.51-1.54-13.43s-7-6.44-11.21-8.58a110.71,110.71,0,0,0-14.42-6c-10.1-3.47-20.5-5.94-30.61-9.38-1.16-.4-5.13-1.3-3.8-3.22a9.81,9.81,0,0,1,2.38-2c1-.75,2.07-1.52,3.1-2.29,3.84-2.89,7.6-5.9,11.19-9.1a101.77,101.77,0,0,0,19-21.82A69.73,69.73,0,0,0,646.2,796c1.83-4.9,2.95-10.28,1.68-15.47-1.19-4.85-4.27-8.93-7.36-12.73s-6-7.26-9.3-10.66c-6.16-6.39-13.45-12.38-22.22-14.65a31.27,31.27,0,0,0-6.67-.94c-1.93-.06-1.93,2.94,0,3Z"/><path class="cls-3" d="M474.53,466.88c-4.47-11.13-8.86-22.68-9.38-34.79-.47-10.69,2.15-22,9.89-29.8,6.88-6.93,17-10.34,26.36-6.82,8.62,3.23,15.07,11.4,17.49,20.13,3.42,12.36-.32,25.6-6.23,36.58l2.74,1.15,9.52-25.11c2.79-7.36,5.17-15.72,10.84-21.48a16.69,16.69,0,0,1,10.53-5.31l-1.5-1.5a129.92,129.92,0,0,1-5.17,46.47c-.55,1.85-1.15,3.7-1.8,5.53a23.17,23.17,0,0,1-1.94,4.66c-1.92,3.09-6.35,2.61-9.52,2.92a190.12,190.12,0,0,0-49.13,11.43c-1.79.68-1,3.58.79,2.9a189.16,189.16,0,0,1,48.11-11.31c3.39-.33,7.56,0,10.4-2.22s3.73-6.17,4.79-9.35a131.27,131.27,0,0,0,5.54-23.73,133.29,133.29,0,0,0,.93-27.3,1.52,1.52,0,0,0-1.5-1.5c-8.06.57-14.13,6.54-17.79,13.34a98.56,98.56,0,0,0-5.06,11.93l-5.11,13.49-5.82,15.35c-.6,1.59,2,2.63,2.74,1.15,5.74-10.67,9.32-22.95,7.35-35.12-1.63-10-7.82-19.53-16.86-24.39-9.32-5-20.34-3.68-28.77,2.52-9.41,6.91-14,18-14.76,29.4-.95,14.47,4.13,28.37,9.43,41.57.71,1.77,3.61,1,2.89-.79Z"/><path class="cls-3" d="M504.88,458.7A12.36,12.36,0,0,1,503.35,445l-2.05.54c4.07,2.4,5.16,8.7,2,12.25-1.27,1.45.85,3.57,2.12,2.12,4.4-5,3.14-13.56-2.65-17a1.52,1.52,0,0,0-2.05.54,15.48,15.48,0,0,0,2,17.32c1.28,1.46,3.39-.67,2.13-2.12Z"/><path class="cls-3" d="M528.64,455.68c-.06-.05-.19-.14-.06,0l-.29-.24-.5-.45c-.31-.3-.6-.61-.88-.94l-.09-.11c-.06-.07-.12-.16-.18-.24s-.25-.37-.38-.56a12.31,12.31,0,0,1-.66-1.18l-.12-.27s-.12-.28-.08-.17-.08-.21-.09-.24l-.1-.28a10.18,10.18,0,0,1-.36-1.31c-.05-.22-.09-.44-.13-.66s0,.2,0-.05l0-.3a11.34,11.34,0,0,1,0-1.43l-1.1,1.45c.22-.08.47-.11.68-.2s-.23,0,0,0l.39,0,.39,0c-.22,0-.1,0,.05,0s.46.11.69.18-.1,0,.06,0l.29.15.33.2c.23.14-.07-.07.06,0a5.9,5.9,0,0,1,.5.5c.19.2,0-.09,0,.06a3.62,3.62,0,0,1,.2.33c.06.11.12.25,0,.05,0,.12.09.25.13.37s0,.21.07.32,0,.26,0,0q0,.36,0,.72c0,.14,0,.26,0,.05a2.33,2.33,0,0,1-.08.38,1.58,1.58,0,0,1-.09.31c0,.12-.09.27,0,.07a5.57,5.57,0,0,1-.37.68c-.13.24.07-.06,0,.06a2.62,2.62,0,0,1-.22.25l-.28.26c.19-.17,0,0-.11.08a1.5,1.5,0,0,0,1.51,2.59,5.84,5.84,0,0,0-5.11-10.42,1.55,1.55,0,0,0-1.1,1.44,13.26,13.26,0,0,0,5.47,11.06,1.51,1.51,0,0,0,2-.54,1.53,1.53,0,0,0-.53-2.05Z"/><path class="cls-3" d="M530.23,519.8a16.19,16.19,0,0,0-14.6-3.79,16,16,0,0,0-10.73,9.34c-.95,2.27-1.53,5-.6,7.37,1.05,2.66,3.71,3.56,6.26,4.24a41.24,41.24,0,0,0,9.76,1.42c2.68.07,5.12-.61,5.89-3.47a30.55,30.55,0,0,0,.92-8.78,13.93,13.93,0,0,0-2.82-8.37c-1.18-1.52-3.29.62-2.12,2.13,2.54,3.26,2.12,7.93,1.56,11.76a13.1,13.1,0,0,1-.53,2.79c-.38.95-1.38.95-2.27.95a36.83,36.83,0,0,1-7.62-.84c-1.16-.26-2.32-.55-3.45-.91a4.5,4.5,0,0,1-2.53-1.49c-1-1.53-.41-3.81.19-5.38a12.74,12.74,0,0,1,20.57-4.85c1.42,1.29,3.55-.82,2.12-2.12Z"/><path class="cls-3" d="M511.23,542.52a57.88,57.88,0,0,1,.46,21.83c-.32,1.89,2.57,2.7,2.9.79a62.13,62.13,0,0,0-.47-23.42c-.4-1.89-3.29-1.09-2.89.8Z"/><path class="cls-3" d="M498.41,542.15v27.26a1.5,1.5,0,0,0,3,0V542.15a1.5,1.5,0,0,0-3,0Z"/><path class="cls-3" d="M525.64,540.82A96.54,96.54,0,0,1,524,559.09c-.36,1.89,2.53,2.7,2.89.8a100.91,100.91,0,0,0,1.74-19.07,1.5,1.5,0,0,0-3,0Z"/><path class="cls-3" d="M501.26,569.09l18-1.25c1.91-.13,1.93-3.13,0-3l-18,1.25c-1.92.13-1.93,3.13,0,3Z"/><path class="cls-3" d="M501.89,542.13l22.63-1.8c1.91-.15,1.93-3.15,0-3l-22.63,1.8c-1.91.16-1.92,3.16,0,3Z"/><path class="cls-3" d="M211.88,850.05c-.46-7.49-2-15.51-7.45-21.08a18.43,18.43,0,0,0-8.82-5.16,15.52,15.52,0,0,0-10.47,1.36,38.86,38.86,0,0,0-9,6.44,47.22,47.22,0,0,0-7.17,8.23c-3.86,5.7-6.34,12.64-5.59,19.59.21,2,.84,4,.88,6.05a9.28,9.28,0,0,1-1.82,5.17,21,21,0,0,0-3.63,9.26c-.67,6.64,2.34,13.43,6.82,18.2,5.06,5.39,12.12,8.5,19.05,10.69a166.82,166.82,0,0,0,24.15,5.71c15.48,2.45,32.21,1.82,46-6.5a47.91,47.91,0,0,0,4.57-3.19c1.53-1.18-.61-3.29-2.12-2.12-11.57,9-26.89,11-41.11,9.73a147.81,147.81,0,0,1-23.67-4.54c-6.62-1.73-13.33-3.68-19.15-7.38-5.39-3.42-9.62-8.47-11.1-14.77a16.31,16.31,0,0,1,.29-8.9c1-3.07,3.52-5.43,4.42-8.57,1-3.55-.59-7.18-.67-10.76a25,25,0,0,1,1.67-9.29c2.31-6.15,6.71-11.45,11.68-15.67a27.88,27.88,0,0,1,8.84-5.52,12.21,12.21,0,0,1,9.54.84c6.35,3.3,9.23,10.06,10.33,16.79.29,1.79.45,3.59.56,5.39s3.12,1.93,3,0Z"/><path class="cls-3" d="M1223,670.94c9.23,9.08,22,12.56,33,18.74a49.3,49.3,0,0,1,8.82,6.13c1.44,1.28,3.57-.84,2.12-2.12-9.67-8.59-22.4-11.91-33.34-18.42a44.66,44.66,0,0,1-8.51-6.45c-1.38-1.36-3.5.76-2.12,2.12Z"/><path class="cls-3" d="M1225.56,669.37l62.57-3.67a1.53,1.53,0,0,0,1.44-1.1,37.11,37.11,0,0,1,11.48-20.83l-2.5-.66,3,13.24q.75,3.38,1.51,6.74a22.27,22.27,0,0,0,1.57,5,7.78,7.78,0,0,0,8,4.45c3.5-.42,6.53-2.48,9-4.87,2.74-2.63,5.39-5.83,9.33-6.54l-1.84-1.85a183.18,183.18,0,0,0-2.67,27.45,153.17,153.17,0,0,0,1.46,26.65c.49,3.1,1.45,6.51,3.86,8.69a8.29,8.29,0,0,0,9,1.38,14.26,14.26,0,0,0,7.13-7.24c1.67-3.74,2-7.87,3-11.8s2.72-7.41,6.5-9.13a6,6,0,0,1,4.4-.39,2.78,2.78,0,0,1,1.41,4.25,1.52,1.52,0,0,0,1.29,2.26l24.33,2.4c3.09.3,6.29.39,9.21,1.59,1.81.74,4.22,2.16,3.68,4.47l1-1.05-23.64,3.71c-3.19.51-6.3,1.19-8.85,3.3a15.74,15.74,0,0,0-4.49,6.81c-2.12,5.76-1.49,11.94-2.61,17.89a15.73,15.73,0,0,1-3.94,8.41c-2.32,2.39-5.39,4.09-8.27,5.72-5.89,3.34-13.84,7-20.23,2.87-1.63-1-3.13,1.55-1.52,2.59,5.78,3.75,12.74,2.15,18.61-.48a69.56,69.56,0,0,0,8.93-5,20.19,20.19,0,0,0,7.21-7.13c3.08-5.73,2.47-12.32,3.36-18.55a22,22,0,0,1,2.51-8,10.53,10.53,0,0,1,7.17-5c4.19-.94,8.52-1.41,12.77-2.07l13.78-2.17a1.45,1.45,0,0,0,1.05-1.05c1.61-6.9-7.35-9-12.34-9.52l-27.77-2.73,1.3,2.26a5.78,5.78,0,0,0-2.6-8.43c-2.9-1.22-6.21-.41-8.76,1.28-7,4.66-6.34,13.32-8.89,20.44-1.11,3.1-3.64,6.21-6.93,7.08s-5.8-1.48-6.85-4.41c-1.31-3.61-1.46-7.65-1.77-11.44-.38-4.6-.58-9.22-.61-13.83a179,179,0,0,1,2.6-31.27,1.52,1.52,0,0,0-1.85-1.84c-6.59,1.18-9.5,8-15.3,10.59-2.93,1.3-6.06,1-7.62-2.09a19.06,19.06,0,0,1-1.35-4.43l-1.35-6-3.13-14a1.52,1.52,0,0,0-2.51-.66,39.79,39.79,0,0,0-12.25,22.15l1.45-1.1-62.57,3.67c-1.92.12-1.93,3.12,0,3Z"/><path class="cls-3" d="M1263.37,700.34l9.68,52.24c1.61,8.67,3.4,17.35,4.09,26.16a86.27,86.27,0,0,1-1.68,24.88,105.24,105.24,0,0,1-3.81,13.27c-.79,2.2-1.63,4.37-2.55,6.51-.19.44-1.9,4.17-2.76,3.39-1.43-1.3-3.56.82-2.13,2.12,3.06,2.77,6.23-1.1,7.39-3.78a122.51,122.51,0,0,0,4.54-12.25,93.41,93.41,0,0,0,4.27-26c.15-9.29-1.4-18.51-3.07-27.62q-2.58-14-5.2-28l-5.88-31.73c-.35-1.9-3.24-1.1-2.89.79Z"/><path class="cls-3" d="M1260,712.83a16.65,16.65,0,0,1-12.56-4.43,15.94,15.94,0,0,1-3.92-5.55,14,14,0,0,0-1.28-3.07,4.77,4.77,0,0,0-3.08-1.79,62.46,62.46,0,0,0-8.83-1.09c-2.87-.18-6-.43-8.77.61-2.35.88-4.11,2.64-6.62,3.17a30.09,30.09,0,0,1-6.57.34c-4.07,0-8.76,0-11.67,3.32-1.49,1.7-2.3,4.52-.68,6.42a5.11,5.11,0,0,0,2.83,1.54c1.54.36,3.11.64,4.66,1q9.33,1.83,18.74,3.27c2.72.41,5.69.54,7.94,2.29,2.08,1.62,3.72,3.86,5.59,5.73,8.1,8.14,18.42,15,30.26,15.27,1.93,0,1.93-3,0-3-9.83-.23-18.6-5.53-25.67-12-1.78-1.63-3.47-3.35-5.1-5.13s-3.49-3.79-5.94-4.76-5.5-1.16-8.21-1.58q-4.34-.69-8.66-1.45t-8.63-1.62c-1.39-.28-2.8-.53-4.18-.86-1.14-.27-1.82-.71-1.38-2,1.35-3.82,7.1-3.46,10.27-3.42a39.2,39.2,0,0,0,6.22-.27,15.69,15.69,0,0,0,6.2-2.58c2.39-1.49,5-1.46,7.69-1.35a68,68,0,0,1,8.89.91,6.11,6.11,0,0,1,1.84.44,2.1,2.1,0,0,1,.84,1.33,21,21,0,0,0,1.4,3.28,19.17,19.17,0,0,0,4.78,5.67,19.47,19.47,0,0,0,13.6,4.38c1.91-.15,1.92-3.15,0-3Z"/><path class="cls-3" d="M1232.28,669.66a2.4,2.4,0,0,1-.11-.23l.15.36a2,2,0,0,1-.14-.53l0,.4a2.41,2.41,0,0,1,0-.6l-.06.4a2.94,2.94,0,0,1,.16-.58l-.15.36a2.78,2.78,0,0,1,.3-.53l-.24.31a2.06,2.06,0,0,1,.39-.39l-.31.23a2.22,2.22,0,0,1,.39-.23l-2.2-.9c0,.18,0,.36.08.54l-.06-.4a7,7,0,0,1,0,1.88l.05-.4a3.47,3.47,0,0,1-.22.84l.15-.36a2.73,2.73,0,0,1-.32.55l.24-.3a2,2,0,0,1-.32.33l.3-.23a2,2,0,0,1-.35.2l.36-.15a1.91,1.91,0,0,1-.47.12l.4-.05a2.08,2.08,0,0,1-.61,0l.4.05a2,2,0,0,1-.5-.13l.36.15a2.24,2.24,0,0,1-.4-.22l.31.23a1.26,1.26,0,0,1-.2-.2l.23.3a1.09,1.09,0,0,1-.14-.23l.15.36a2.17,2.17,0,0,1-.07-.24l0,.4a1.5,1.5,0,0,1,0-.3l0,.39v0a1.69,1.69,0,0,0-.15-1.15,1.55,1.55,0,0,0-.9-.69,1.52,1.52,0,0,0-1.16.15,1.49,1.49,0,0,0-.69.9,2.55,2.55,0,0,0,.07,1.37,2.48,2.48,0,0,0,.73,1.1,3.43,3.43,0,0,0,2.27.82,3.35,3.35,0,0,0,2.28-.88,4.31,4.31,0,0,0,1.19-2.72,9.7,9.7,0,0,0-.18-2.79,1.43,1.43,0,0,0-.87-1,1.52,1.52,0,0,0-1.33.08,3.64,3.64,0,0,0-1.83,2.23,3.72,3.72,0,0,0,.31,2.9,1.5,1.5,0,1,0,2.59-1.51Z"/><path class="cls-3" d="M1288.67,675.72c.23,0,.26,0,.1,0s-.12,0,0,0,.11,0,0,0l-.13-.08.12.09-.14-.13c-.2-.19.13.25,0,0l-.15-.26c.18.3,0,.09,0,0s-.1-.27-.07-.31c0,.23,0,.26,0,.09V675c0-.12,0-.25,0-.37s0-.07,0,.14a.75.75,0,0,1,0-.16c0-.1.19-.43,0-.09l.15-.27c.14-.26-.18.16.07-.09l.29-.27c-.23.21,0,0,.11-.07a3.18,3.18,0,0,1,.4-.23l.18-.08c-.14.06-.16.07-.05,0l.44-.14a7.1,7.1,0,0,1,.8-.17c-.34,0,.11,0,.14,0l.41,0c.34,0,.68,0,1,0a21.1,21.1,0,0,0,4.7,0,1.51,1.51,0,0,0,1.05-1.85,1.53,1.53,0,0,0-1.84-1c-1.48.25-3.41-.18-5.07-.11a7,7,0,0,0-4.46,1.6,4.25,4.25,0,0,0-1.27,4.11,3.53,3.53,0,0,0,3.14,2.83,1.49,1.49,0,0,0,1.5-1.5,1.55,1.55,0,0,0-1.5-1.5Z"/><path class="cls-3" d="M1274.51,671.51c-.21-.23.13.25,0,0a1.4,1.4,0,0,1-.1-.16c-.06-.11-.06-.11,0,0s0-.05,0-.12a1,1,0,0,0-.07-.31c.08.13,0,.32,0,0,0-.1,0-.19,0-.28,0-.32-.08.34,0,0a2.86,2.86,0,0,1,.07-.28c0-.09.06-.19.09-.28.09-.3-.14.25,0,0a6.48,6.48,0,0,1,.33-.57c.17-.27-.08.06,0,0s.16-.18.24-.26.15-.14.22-.21-.25.16,0,0l.52-.31c.21-.11-.17,0,.11,0l.38-.12.46-.1.2,0h-.06c.29,0,.58,0,.88,0a7.5,7.5,0,0,1,.82,0l.41,0c-.32,0,.13,0,.16,0,.59.09,1.18.22,1.77.34a1.5,1.5,0,1,0,.8-2.89c-2.83-.61-6.1-1.13-8.5.89a5.47,5.47,0,0,0-1.8,3,4.18,4.18,0,0,0,1,3.73,1.51,1.51,0,0,0,2.12,0,1.54,1.54,0,0,0,0-2.12Z"/><path class="cls-3" d="M1286.94,709.39c7.26,2.28,15,4.67,20.86,9.7,6.4,5.45,9,13.4,10.52,21.39a137.06,137.06,0,0,1-1.27,56.57c-2.33,10.23-5.19,20.61-4.14,31.19.19,1.91,3.19,1.93,3,0-1-9.77,1.47-19.32,3.66-28.77a151,151,0,0,0,4.06-28.85,138.34,138.34,0,0,0-2.13-29.37c-1.49-8.26-3.89-16.78-10-22.86-6.41-6.36-15.32-9.25-23.74-11.9-1.84-.58-2.63,2.32-.79,2.9Z"/><path class="cls-3" d="M1341.18,819.59c-11.15,7.16-22.85,14.8-29.3,26.79a33.4,33.4,0,0,0-4.27,18.32c0,1.47,0,2.66-1.44,3.43a34.09,34.09,0,0,0-3.89,2.24,21.72,21.72,0,0,0-5.81,6.34c-1.48,2.47-3.1,6-2.5,8.93.55,2.73,3,4.11,5.56,4.49,3.21.48,6.58,0,9.81-.1l11.37-.5q11.61-.53,23.22-1.13c1.75-.09,3.51-.13,5.26-.29a6.79,6.79,0,0,0,4.37-1.64,9,9,0,0,0,2-3.71c.59-1.8,1.13-3.62,1.65-5.44a158.34,158.34,0,0,0,5.86-49.18c-.07-1.92-3.07-1.93-3,0a155.5,155.5,0,0,1-3.86,41c-.79,3.39-1.68,6.75-2.7,10.08a26.08,26.08,0,0,1-1.4,4.16c-.8,1.61-2.32,1.68-3.95,1.77q-10.74.59-21.49,1.07t-21.25.94c-2.27.09-5.7.7-7.67-.82s0-5.71,1-7.5a18.63,18.63,0,0,1,5.12-5.91c2.12-1.58,5.29-2.24,6.35-4.91a9.44,9.44,0,0,0,.45-3.74,33.87,33.87,0,0,1,.1-4.83,30.87,30.87,0,0,1,2.17-8.23c5.49-13.38,18.15-21.57,29.82-29.07,1.62-1,.12-3.64-1.51-2.59Z"/><path class="cls-3" d="M1268,831.33a32.38,32.38,0,0,0,9.18,16.16,31.65,31.65,0,0,0,7.47,5.37c3.27,1.67,6.9,2.49,10.15,4.18,1.72.89,3.23-1.7,1.52-2.59-3-1.58-6.41-2.37-9.49-3.85a29.14,29.14,0,0,1-7.26-5,29.72,29.72,0,0,1-8.68-15.09c-.42-1.89-3.31-1.09-2.89.79Z"/><path class="cls-3" d="M1268.17,809.79l-16.52,11.46c-4.79,3.33-10.3,6.5-13.34,11.66-2.74,4.65-3.19,10.23-2.73,15.5a82.57,82.57,0,0,0,3,15.58c1.51,5.22,4,10.4,8.86,13.25l-.69-1.69c-.22.8-2,.9-2.7,1.1a4.9,4.9,0,0,0-3.28,2.34,4.24,4.24,0,0,0,1,4.74c1.42,1.4,3.46,1.67,5.36,1.82a90.22,90.22,0,0,0,26.37-1.87,91.24,91.24,0,0,0,14.44-4.44c1.77-.71,1-3.61-.8-2.89a88.29,88.29,0,0,1-34.75,6.44c-2,0-3.93-.08-5.88-.29-.84-.09-4-.84-3-2.34.58-.82,2.37-.85,3.25-1.15a3.93,3.93,0,0,0,2.84-2.67,1.53,1.53,0,0,0-.69-1.69c-3.89-2.29-5.92-6.42-7.22-10.59a79.56,79.56,0,0,1-3-14.24c-.57-4.84-.59-10.1,1.7-14.55,2.53-4.91,7.54-7.82,11.93-10.87l17.32-12c1.58-1.1.08-3.7-1.51-2.59Z"/><path class="cls-3" d="M1360.81,804.85a145.47,145.47,0,0,0-4.06-27.69c-.47-1.87-3.36-1.08-2.9.8a140.3,140.3,0,0,1,4,26.89c.09,1.92,3.09,1.93,3,0Z"/><path class="cls-3" d="M1316.13,649.76a352.51,352.51,0,0,1,35.29-60.09c3.39-4.64,7-9.09,10.45-13.69,3.12-4.16,6.15-8.77,7.3-13.92a15.83,15.83,0,0,0-3-13.55c-3.48-4.43-8.37-7.89-12.61-11.56l-7.23-6.23c-1.59-1.37-5.91-3.93-4.74-6.5,1-2.2,4.2-3.94,6.07-5.36,2.13-1.62,4.3-3.2,6.49-4.74a233.84,233.84,0,0,1,27.48-16.61A239.7,239.7,0,0,1,1442,476.13a234.26,234.26,0,0,1,63.83-4.55c2.68.18,5.34.41,8,.68l-.76-2.8a122,122,0,0,0-57.58,67.32c-2.7,7.87-4,16.18-.33,24,3.1,6.53,8.8,11.44,14.3,15.94a157.27,157.27,0,0,1,17.4,15.94,134.5,134.5,0,0,1,14.43,19.32,179.06,179.06,0,0,1,19.55,45.28c5.13,18,7.76,36.88,6.11,55.62s-7.34,36.71-14,54.14c-5.75,15.1-12.41,30.07-21.9,43.23-9.32,12.92-21.53,23.5-36.36,29.59a82.92,82.92,0,0,1-46,5,79.19,79.19,0,0,1-11-2.86c-1.84-.62-2.63,2.28-.8,2.89,29.83,10,64,1.82,86.14-20.39,11.39-11.39,19.57-25.56,26.12-40.15A275,275,0,0,0,1526.5,734a145.78,145.78,0,0,0,2.09-55.37,191.53,191.53,0,0,0-15.15-50.17,146.2,146.2,0,0,0-26.54-40.13c-5.36-5.64-11.39-10.37-17.32-15.36-5.56-4.68-11.29-10.09-13.18-17.37-2.21-8.51,1.52-17.71,4.84-25.46a119.49,119.49,0,0,1,43.47-52.18q4.79-3.17,9.85-5.86c1.43-.76.61-2.66-.76-2.79a236.29,236.29,0,0,0-64.44,2.4,243.43,243.43,0,0,0-61.79,19.57,236,236,0,0,0-28.31,15.8q-6.73,4.38-13.15,9.24c-3.21,2.43-9.43,5.93-7.42,10.84.94,2.32,3.39,3.91,5.21,5.49l7.51,6.48,7.22,6.23a32.88,32.88,0,0,1,5.69,5.74c7,10.06-3.58,21.5-9.49,29.14a351.4,351.4,0,0,0-37.52,60.14c-1.29,2.62-2.54,5.26-3.77,7.92-.8,1.74,1.78,3.26,2.59,1.51Z"/></svg>