<svg id="Layer_1" data-name="Layer 1" xmlns="http://www.w3.org/2000/svg" viewBox="0 0 1920 1080"><defs><style>.cls-1{font-size:60px;font-family:VarelaRound-Regular, Varela Round;}.cls-2{letter-spacing:-0.01em;}.cls-3{letter-spacing:0em;}.cls-4{letter-spacing:-0.01em;}.cls-5{letter-spacing:-0.02em;}.cls-6{letter-spacing:-0.02em;}.cls-7{fill:#4d4d4d;}</style></defs><title>42-teeth</title><text class="cls-1" transform="translate(163.3 176.51)">I ca<tspan class="cls-2" x="98.4" y="0">n</tspan><tspan class="cls-3" x="134.1" y="0">’t igno</tspan><tspan class="cls-4" x="312.71" y="0">r</tspan><tspan class="cls-3" x="334.79" y="0">e it.</tspan><tspan x="0" y="72">Let</tspan><tspan class="cls-5" x="91.44" y="72">’</tspan><tspan x="104.76" y="72">s look a</tspan><tspan class="cls-6" x="319.08" y="72">r</tspan><tspan x="341.15" y="72">ound a bit.</tspan></text><path class="cls-7" d="M816.29,588.76c12.54,6.37,26.34,9.34,40.17,11.29,14,2,28.21,3,42.1,5.87a110.08,110.08,0,0,1,22.64,7c1.74.78,3.27-1.8,1.51-2.59C909.8,604.57,895.9,602,882,600.22s-28.18-3-42-6.19a98.08,98.08,0,0,1-22.22-7.86c-1.72-.88-3.24,1.71-1.51,2.59Z"/><path class="cls-7" d="M819.25,583.68q25.63-9.37,51.17-19,25.07-9.54,49.93-19.63,14.13-5.76,28.15-11.77a1.51,1.51,0,0,0,.69-1.69c-2.54-13.79.1-28.34,5.42-41.17a83.31,83.31,0,0,1,5.32-10.6h-2.59c.84,1.46,1.78,3.23,1.62,5a1.15,1.15,0,0,1-.12.52s-.14.27,0,.11a1.8,1.8,0,0,1-.19.2s0-.09,0,0,.2,0,.07,0c.12,0,0,0,.1,0-.16-.15,0,.15-.19-.17.17.24-.15-.4-.08-.16,0-.14-.14-.6-.14-.53-.2-1.73.72-3.5,1.54-4.95h-2.59c6.48,11,13.1,22,19.43,33.14,3.87,6.8,7.52,15.44,15.08,18.91,6.41,2.94,13.85,1,18.95-3.53s8.05-10.69,11.2-16.45c3.31-6.06,6.88-13.12,13.28-16.44l-2.21-.89a398.57,398.57,0,0,0,10.58,51.18q2,7.17,4.22,14.26c.58,1.83,3.48,1,2.9-.8a398.5,398.5,0,0,1-12.48-50.75q-1.3-7.32-2.32-14.69c-.14-1-1.45-1.29-2.21-.9-5.6,2.9-9.23,8.49-12.28,13.8-3.25,5.65-6,11.78-10.17,16.81-3.88,4.64-9.5,7.9-15.73,6.52-7.78-1.72-11.75-10.45-15.22-16.75-3.05-5.55-6.37-11-9.57-16.42l-10.86-18.52a1.52,1.52,0,0,0-2.59,0c-1.22,2.16-2.4,4.83-1.82,7.36a3.48,3.48,0,0,0,3.18,2.93,3.4,3.4,0,0,0,3.15-2.89c.54-2.56-.68-5.24-1.92-7.4a1.52,1.52,0,0,0-2.59,0,85,85,0,0,0-12.1,41.92,65.31,65.31,0,0,0,1,12.17l.69-1.7q-24.75,10.61-49.82,20.44-24.81,9.78-49.83,19-14.43,5.37-28.88,10.64c-1.8.66-1,3.56.8,2.9Z"/><path class="cls-7" d="M891.94,635.77l10.89,58.72,10.94,59c3.57,19.29,7.49,38.6,8.84,58.21a192.11,192.11,0,0,1-4.47,55.85,232.93,232.93,0,0,1-7.8,26.65c-1.55,4.37-3.23,8.69-5,13-1.49,3.58-2.88,7.75-6.33,9.94-1.18.75-2.44,1.11-3.53,0-1.38-1.35-3.51.77-2.12,2.12,2.62,2.57,6,1.54,8.52-.59,3.18-2.66,4.59-6.51,6.15-10.22a254.24,254.24,0,0,0,9.66-27.17,201.94,201.94,0,0,0,8.41-56.63c0-20.24-3.57-40.27-7.24-60.11q-5.62-30.43-11.28-60.87l-11.35-61.21L894.83,635c-.35-1.9-3.24-1.09-2.89.8Z"/><path class="cls-7" d="M825.05,582.86l-.32-.32-.15-.18q.18.24,0,0c-.08-.13-.16-.25-.23-.38s-.23-.53-.09-.16A5.13,5.13,0,0,1,824,581c0-.08,0-.15,0-.23,0,.21,0,.23,0,.06s0-.31,0-.46,0-.3,0-.46,0-.15,0,.06l0-.23a5.42,5.42,0,0,1,.26-.87c-.14.37,0-.08.08-.16l.24-.39c.09-.13.08-.12,0,0l.15-.17c.1-.12.21-.22.32-.33l-2.35-.3a16.6,16.6,0,0,1,1.59,3.94,5,5,0,0,1,.12.53c0,.1,0,.2.05.3s0-.2,0,0a7,7,0,0,1,0,1.12c0,.07,0,.15,0,.22s0,.34,0,.17l0,.1-.06.29c0,.14-.08.29-.13.43s-.07.19-.1.29c0-.08.09-.19,0,0l-.15.27-.1.14c-.08.13.09-.12.1-.12a2.32,2.32,0,0,0-.47.47c-.13.14.25-.17.09-.07l-.11.08-.27.16a1.91,1.91,0,0,1-.28.15l-.12.06c-.17.08.31-.11.06,0s-.4.13-.61.18l-.26.05c-.25.06.1,0,.13,0a.55.55,0,0,0-.18,0h-.75c.26,0-.09,0-.17,0l-.31-.1c-.31-.09.26.16,0,0l-.27-.16c-.12,0,.15.11.15.12s-.11-.1-.14-.12-.29-.31-.11-.11,0-.08-.07-.15c-.16-.26.06.29,0,0,0-.13-.07-.25-.09-.38a1.5,1.5,0,0,0-1.84-1.05,1.55,1.55,0,0,0-1,1.85c.43,2.74,3.56,3.59,5.9,3a5.76,5.76,0,0,0,3.19-2.12,6.75,6.75,0,0,0,1-4.83,18.72,18.72,0,0,0-2.14-6,1.52,1.52,0,0,0-2.36-.3,6.53,6.53,0,0,0,0,9.27,1.5,1.5,0,1,0,2.12-2.12Z"/><path class="cls-7" d="M942.79,654.49c16.24,5.1,33.32,10.49,46.58,21.62a60.19,60.19,0,0,1,15.92,21.07c3.93,8.46,6.24,17.61,8,26.74a296.67,296.67,0,0,1,5.43,62.8,311.64,311.64,0,0,1-7.86,62.78c-4.6,20.3-10.35,40.77-9.84,61.77q.09,3.91.5,7.8c.19,1.91,3.19,1.93,3,0-2.19-21.37,3.1-42.4,7.91-63.06,2.44-10.43,4.65-20.9,6.19-31.5a302.09,302.09,0,0,0-1.42-95.9c-3.21-18.29-8.18-37.33-21.68-50.89-12.4-12.46-29.4-18.85-45.8-24.16-2.06-.67-4.12-1.31-6.18-2-1.84-.58-2.63,2.31-.79,2.89Z"/><path class="cls-7" d="M1063.17,901.51c-12.48,8-25,16.08-36.36,25.66-10.93,9.21-20.71,19.92-27.57,32.53A80.94,80.94,0,0,0,991.63,979a74.15,74.15,0,0,0-1.81,20.2c.09,3,.09,6.58-2.51,8.63a29.24,29.24,0,0,1-4.61,2.49,41,41,0,0,0-4.05,2.39,45.89,45.89,0,0,0-13.08,13.4,44.42,44.42,0,0,0-4.24,8.61c-1.15,3.1-2.2,6.57-1.83,9.92.7,6.26,6.32,8.91,12,9.59a60.16,60.16,0,0,0,9.68,0l12.44-.52q12.45-.52,24.89-1.1,25.13-1.14,50.26-2.45c3.92-.2,7.89-.27,11.8-.66,3.23-.33,6.42-1.23,8.54-3.85s3-6.12,4-9.32q1.82-5.78,3.43-11.62a348.89,348.89,0,0,0,12.53-94.31q0-5.82-.27-11.64c-.07-1.92-3.07-1.93-3,0a344.61,344.61,0,0,1-8.8,92q-2.65,11.33-6.08,22.47c-1,3.18-1.74,6.78-3.54,9.63s-5.16,3.52-8.41,3.72c-16,1-32,1.66-48,2.42s-32.19,1.47-48.28,2.12c-5.45.23-12.37,1.25-17.22-2-5.52-3.69-2.16-12,0-16.67a43.06,43.06,0,0,1,10.84-14.3,40.62,40.62,0,0,1,7.77-5.28c2.79-1.46,5.84-2.57,7.42-5.52,1.44-2.7,1.44-5.87,1.33-8.85a73.2,73.2,0,0,1,.2-10.15,69.7,69.7,0,0,1,4.9-19c10.8-26.6,34.56-44.39,57.83-59.59q4.47-2.91,9-5.78c1.62-1,.12-3.64-1.51-2.59Z"/><path class="cls-7" d="M902.16,925.42a70,70,0,0,0,38.57,47.76c6.5,3,13.53,4.66,19.87,8,1.7.89,3.22-1.69,1.51-2.59-5.59-3-11.69-4.63-17.53-7A64.46,64.46,0,0,1,930.92,964,67.71,67.71,0,0,1,911,940.89a64.58,64.58,0,0,1-6-16.27c-.42-1.88-3.31-1.08-2.9.8Z"/><path class="cls-7" d="M901.72,879.83l-36.16,25.1c-5.51,3.83-11.14,7.54-16.45,11.65a50.26,50.26,0,0,0-12.63,13.5c-6,10-6.93,22.09-5.93,33.49a163.88,163.88,0,0,0,2.7,17.75c1.08,5.36,2.22,10.73,3.72,16,3.19,11.14,8.4,22.51,18.84,28.54l-.69-1.69c-.55,2.39-3.66,2.78-5.67,3.28-2.64.67-5.52,1.46-7.18,3.79-2.15,3-.85,7.29,1.79,9.58,3.27,2.85,7.94,3,12.06,3.3a200.84,200.84,0,0,0,87.91-14c1.77-.71,1-3.62-.79-2.9A198.09,198.09,0,0,1,863,1041.45c-4.28-.14-8.88,0-13.06-1.06a7.88,7.88,0,0,1-4.79-2.79,4.32,4.32,0,0,1-.69-4.26c1.2-2.45,5-2.78,7.32-3.4,2.72-.74,5.52-2,6.21-5a1.53,1.53,0,0,0-.68-1.69c-8.86-5.12-13.62-14.51-16.62-23.94a156.68,156.68,0,0,1-3.83-15.25c-1.18-5.58-2.27-11.19-3-16.85-1.32-11-1.34-22.76,3.65-32.88,5.51-11.2,16.53-17.82,26.43-24.69l39.22-27.23c1.58-1.09.08-3.7-1.51-2.59Z"/><path class="cls-7" d="M1103.84,867.34a314.52,314.52,0,0,0-8.91-60.74c-.47-1.87-3.36-1.08-2.9.8a309.49,309.49,0,0,1,8.81,59.94c.09,1.92,3.1,1.93,3,0Z"/><path class="cls-7" d="M1142.69,251.38c-7.4-2.24-15.37-5.06-20.86-10.76-6.2-6.43-6.16-15.55-1.08-22.67,5.73-8,16-10.87,25.4-11.47a72.6,72.6,0,0,1,67.23,36.71,73.38,73.38,0,0,1,6.84,53,53.25,53.25,0,0,1-5.49,13.84,45.58,45.58,0,0,1-9.85,11.2,274.61,274.61,0,0,0-22,20.6c-13.82,14.92-25.81,31.54-37.14,48.39-11.15,16.58-21.16,33.95-27.81,52.86a191.06,191.06,0,0,0-10.41,52.69c-2,36,5.83,72.59,23.16,104.22q3.27,6,7,11.69c1,1.61,3.64.11,2.59-1.52-20.64-31.78-30.83-69.76-30-107.58a190,190,0,0,1,9.52-55.64c6.58-19.82,17-37.94,28.56-55.21,11.8-17.53,24.29-34.83,38.9-50.15q5.37-5.64,11.17-10.86c3.84-3.45,8-6.59,11.69-10.18,7.18-6.89,11.28-15.81,13.48-25.42a76.76,76.76,0,0,0-7.6-53.46,75.69,75.69,0,0,0-67.25-38.3c-9.39.23-19.41,2.27-26.64,8.67-6.2,5.48-9.9,14.36-7.33,22.52,2.39,7.61,9.22,12.51,16.17,15.68a87.31,87.31,0,0,0,11,4c1.85.56,2.64-2.34.8-2.89Z"/><path class="cls-7" d="M1138.43,255.76a185.53,185.53,0,0,1-90-27.39c-13-8-26-17.67-33.62-31.18-8-14.19-9-31.36-6.4-47.15,9.43-57.46,61.2-96.48,114.33-111.34,31.43-8.79,64.33-10.9,96.83-10.46a669.1,669.1,0,0,1,99.61,8.9c63.45,10.44,126.62,29.2,184.68,57,48.16,23.07,95.94,55.54,121.24,104.07,14.73,28.25,18.91,59.72,19.37,91.22.24,16.61-.38,33.2-.62,49.8s.25,33.38.64,50.07c.79,33.91.39,68-9.92,100.64-9.51,30.08-25.55,57.59-43,83.64-16.85,25.09-34.62,49.77-53.32,73.51-17.9,22.72-37.3,44.5-59.78,62.81a227.31,227.31,0,0,1-82.58,42.74,388.42,388.42,0,0,1-48.25,9.94c-15.88,2.36-31.9,3.75-47.71,6.48-14.68,2.54-29.25,6.42-42.42,13.54a109.68,109.68,0,0,0-28.79,22.81c-17.08,18.78-28.32,42.1-37.24,65.64-4.51,11.9-8.43,24-12.19,36.15-.58,1.85,2.32,2.64,2.89.8,15.76-50.91,37.09-110.41,92.25-129.54,15.58-5.41,32-7.61,48.33-9.62s32.65-4.12,48.8-7.34c31.48-6.27,61.83-16.8,88.75-34.54,50-33,85.65-83.42,119.82-131.61,18.45-26,36.32-52.81,49-82.21,13.11-30.46,18.25-62.24,18.69-95.26.23-17.67-.51-35.33-.84-53-.31-17,.13-34,.44-51,.6-32.86.23-66.59-11.13-97.86-18.74-51.58-63.09-88.17-109.93-113.81-26.24-14.35-54-25.83-82.17-35.86a724.09,724.09,0,0,0-99.22-27.6,687.43,687.43,0,0,0-100.05-12.73c-32.76-1.72-65.95-1.49-98.34,4.19-55.34,9.7-110.9,39.47-133.61,93.57-10.86,25.85-13.9,58.7,4.17,82.11,8.88,11.48,21.34,20.11,33.76,27.37a188.32,188.32,0,0,0,43,18.33,189.07,189.07,0,0,0,44.64,7.11c1.93.08,1.93-2.92,0-3Z"/><path class="cls-7" d="M880.21,640.7c-12.27,23.73-21.38,48.95-29,74.52C847.41,728.07,844,741,840.62,754q-2.48,9.63-4.88,19.27c-1.68,6.67-3.32,13.4-3.75,20.29-.76,12.2,3.41,26.34,15.3,31.93a1.54,1.54,0,0,0,2.05-.53A143.19,143.19,0,0,1,907,775.51c1.74-.83.22-3.41-1.52-2.59a146.48,146.48,0,0,0-48.3,36.81,149.55,149.55,0,0,0-10.46,13.72l2-.54c-10.11-4.76-14.09-16.44-13.9-26.95.12-6.79,1.63-13.45,3.26-20q2.36-9.47,4.78-18.9c6.44-25.19,13.29-50.33,22.32-74.74a355.83,355.83,0,0,1,17.54-40.1c.89-1.71-1.7-3.23-2.59-1.51Z"/><path class="cls-7" d="M1058.82,644.68c20.21,7.42,37.53,21.61,50.11,39,14,19.26,22,42.25,25,65.78a194.92,194.92,0,0,1,.5,42.58l2.8-.75c-8.08-18.63-16.52-37.86-31.08-52.45s-34.68-22.8-47.78-39c-6.8-8.44-11.49-19-10.09-30,.25-1.91-2.76-1.89-3,0-1.25,9.82,2.16,19.5,7.59,27.58,5.7,8.46,13.38,15.08,21.57,21,8.65,6.28,17.82,11.92,25.84,19a97.86,97.86,0,0,1,19.09,23.86c5.94,10.07,10.62,20.8,15.27,31.51.65,1.51,2.67.54,2.79-.76,2.4-25.65.3-52.07-8.41-76.44-7.6-21.24-20.35-40.71-37.7-55.25a106.47,106.47,0,0,0-31.69-18.51c-1.82-.67-2.6,2.23-.8,2.89Z"/><path class="cls-7" d="M985.11,448.05a149.69,149.69,0,0,1-22.3-.89c-3.73-.43-7.45-1-11.13-1.74-1.83-.35-3.65-.75-5.46-1.17-.77-.18-3.82-.49-3.85-1.56s2-1.75,2.68-2a50.61,50.61,0,0,1,5-1.25,102,102,0,0,1,10.56-1.77,107.79,107.79,0,0,1,21.25-.29,105.47,105.47,0,0,1,23.71,4.85l-.36-2.74c-13.08,7.72-28.38,10.17-43.3,11.38-16.66,1.35-33.39,1.14-50.08.64-16.88-.5-33.78-1-50.64-2.09-4.17-.28-8.34-.59-12.5-1-1.91-.16-3.81-.34-5.72-.54a29.37,29.37,0,0,1-5.6-.85c-3.16-.95-4.35-3.58-3.52-6.69s3-5.77,5.18-8.14c10-10.83,22.85-18.57,35.66-25.67a392.45,392.45,0,0,1,41.57-19.94,396.52,396.52,0,0,1,88-24.6c26.47-4.17,56.68-6.25,80.18,9.08,2.66,1.74,5.66,3.74,6.69,6.91l.69-1.69c-6.33,4.2-14.13,4.7-21.48,5.24-8.5.63-17,1-25.54,1.15-17.24.32-34.47-.16-51.69-.77s-34.53-1.26-51.78-2.21c-17-.95-34.11-2.06-51-4.14a225.84,225.84,0,0,1-24.4-4.24c-7.23-1.72-14.57-3.73-21.21-7.13a38.49,38.49,0,0,1-8.13-5.41,29.06,29.06,0,0,1-3.35-3.49c-1.13-1.4-2.55-3.18-2.68-5s1.27-2.75,2.67-3.47a40.22,40.22,0,0,1,5.62-2.26,81.29,81.29,0,0,1,11.2-2.84,228.19,228.19,0,0,1,25.14-2.93c8.48-.62,17-1,25.47-1.15,17.23-.39,34.47-.3,51.7,0q51.76.94,103.38,5.49,6.26.56,12.5,1.16c1.92.18,1.9-2.82,0-3q-26.43-2.55-52.92-4.16t-53-2.28q-26.64-.66-53.3-.36c-17.48.21-35,.85-52.37,3.17-8.08,1.08-16.13,2.68-23.64,6-3.07,1.34-5.89,3.56-5.35,7.28.49,3.43,3.27,6.56,5.66,8.91,5,4.9,11.39,8.05,17.9,10.39a150.25,150.25,0,0,0,23.54,6c17.06,3.12,34.46,4.4,51.74,5.57,17.68,1.19,35.38,1.95,53.09,2.62s35.33,1.34,53,1.37c8.87,0,17.75-.15,26.61-.57,4.34-.21,8.68-.47,13-.81a81.43,81.43,0,0,0,11.22-1.46,29.36,29.36,0,0,0,10-4.06,1.52,1.52,0,0,0,.69-1.69c-1.06-3.29-3.57-5.58-6.32-7.53a65,65,0,0,0-9.09-5.32A79.52,79.52,0,0,0,1058.8,358c-14.22-2.68-28.84-2.2-43.14-.51A369.14,369.14,0,0,0,969.82,366a399.2,399.2,0,0,0-88.46,33.61c-13.62,7.13-27.41,14.77-38.89,25.1a66.22,66.22,0,0,0-7.79,8,17.6,17.6,0,0,0-4,8.72,7.66,7.66,0,0,0,3.81,7.66c3.12,1.74,7.15,1.71,10.62,2,17.34,1.67,34.76,2.32,52.16,2.91s35,1.25,52.46.56c15.76-.63,32.18-1.85,47-7.66a68.92,68.92,0,0,0,10-4.86,1.52,1.52,0,0,0-.35-2.74,108.89,108.89,0,0,0-58.53-2.47c-2.88.68-7,1.39-8.24,4.56a3.45,3.45,0,0,0,.59,3.5c1.16,1.36,3.06,1.68,4.71,2.07,4.11,1,8.27,1.79,12.45,2.42a151.34,151.34,0,0,0,27.73,1.61c1.92-.07,1.93-3.07,0-3Z"/><path class="cls-7" d="M963.81,568.53c5.64-.83,11.44-1,17.13-1.42l17.45-1.34c1.91-.15,1.93-3.15,0-3l-17.94,1.38c-5.8.45-11.68.64-17.44,1.49-1.9.27-1.09,3.17.8,2.89Z"/><path class="cls-7" d="M974.5,575l-.07,0,.31-.23-.1,0,.36-.15-.11,0,.4,0h-.14l.4,0-.15,0,.36.15-.21-.12.31.24a1,1,0,0,1-.18-.18l.24.3a1.2,1.2,0,0,1-.13-.21l.15.35a1,1,0,0,1-.07-.24l.06.4a.43.43,0,0,1,0-.16l-.06.4a1.09,1.09,0,0,1,0-.17l-.16.36a1.28,1.28,0,0,1,.15-.25l-.23.3a1.26,1.26,0,0,1,.2-.2l-.3.24a1.27,1.27,0,0,1,.34-.2l-.36.15a2.44,2.44,0,0,1,.59-.15l-.4,0a3.18,3.18,0,0,1,.69,0l-.4,0a1.24,1.24,0,0,1,.33.09l-.36-.15a.71.71,0,0,1,.15.08l-.3-.24.15.15-.24-.3a.57.57,0,0,1,.08.13l-.15-.36a.94.94,0,0,1,.06.24l0-.4a1.61,1.61,0,0,1,0,.31l.06-.4a3.28,3.28,0,0,1-.19.63l.15-.35a6.92,6.92,0,0,1-.76,1.42l.24-.3a3,3,0,0,1-.47.47l.31-.23a2.76,2.76,0,0,1-.44.25l.35-.15a3,3,0,0,1-.43.12l.4-.06a1.61,1.61,0,0,1-.38,0l.4.06-.32-.08.36.15a1.28,1.28,0,0,1-.25-.15l.3.24-.15-.15.23.3a1.35,1.35,0,0,1-.15-.26l.15.36a1.11,1.11,0,0,1-.08-.3l.05.4a1.5,1.5,0,0,1,0-.3l-.06.4a2.17,2.17,0,0,1,.07-.24l-.15.36a1,1,0,0,1,.1-.17l-.23.3a.43.43,0,0,1,.12-.11l-.31.23.07-.05a1.5,1.5,0,1,0-1.51-2.59,2.41,2.41,0,0,0-1,1.24,1.83,1.83,0,0,0-.12.93,2.59,2.59,0,0,0,1.31,2.12,2.94,2.94,0,0,0,1.4.32,3.61,3.61,0,0,0,1.4-.38,4,4,0,0,0,1.61-1.59,7.24,7.24,0,0,0,.39-.79,7.42,7.42,0,0,0,.42-1.05,2.42,2.42,0,0,0-1-2.76,3.55,3.55,0,0,0-2.46-.27,3,3,0,0,0-1.92,1.31,2.35,2.35,0,0,0,.38,2.84,2.26,2.26,0,0,0,1.12.64,2.05,2.05,0,0,0,1.87-.52,1.51,1.51,0,0,0,0-2.12,1.53,1.53,0,0,0-2.12,0Z"/><path class="cls-7" d="M919.38,548l11,6.46c3.31,1.94,6.86,3.73,9.61,6.46l.66-2.51a60.11,60.11,0,0,1-29.39-1.54c-1.85-.57-2.64,2.33-.8,2.9a63.41,63.41,0,0,0,31,1.53,1.51,1.51,0,0,0,.67-2.5c-2.83-2.8-6.39-4.68-9.79-6.69l-11.38-6.7a1.5,1.5,0,0,0-1.51,2.59Z"/></svg>