<svg id="Layer_1" data-name="Layer 1" xmlns="http://www.w3.org/2000/svg" viewBox="0 0 1920 1080"><defs><style>.cls-1{fill:#ffff1a;}.cls-1,.cls-2,.cls-4{opacity:0.5;}.cls-3,.cls-4{fill:#e03838;}.cls-5{fill:#4d4d4d;}</style></defs><path class="cls-1" d="M693,741c-69.35,51.5-341.58,220.27-466.93,92.08S4.24,627.72,51.28,487.7,162.45,223.57,323.92,201s246.31-24.54,310.4,29.13,245.8,212.61,192.43,305.54S693,741,693,741Z"/><g class="cls-2"><path class="cls-3" d="M1346.19,771.25c.18,1.54-2.49,1.35-3.47-.08a5.22,5.22,0,0,1-.33-4.45c1.25.92,1.71,2.75.92,3.67"/></g><polygon class="cls-4" points="1090 988 930 747 994 784 946 443 1107 600 981 128 1182 479 1322 99 1360 483 1524 391 1316 698 1494 682 1392.5 766.5 1560.5 835.5 1326.5 852.5 1395.5 992.5 1094.5 1026.5 1090 988"/><path class="cls-5" d="M398.86,404.69c-30.88,19.25-54.47,48-73.45,78.66-20,32.32-36,67.33-49,103a665.8,665.8,0,0,0-30.21,113.44,691.73,691.73,0,0,0-10.32,117,670.83,670.83,0,0,0,9.92,117.43c.83,4.79,1.73,9.58,2.67,14.35.37,1.89,3.26,1.09,2.89-.8A664.25,664.25,0,0,1,239,831.41a687.46,687.46,0,0,1,7.82-116.87,670.44,670.44,0,0,1,27.11-112c12.12-36.08,27.33-71.33,46.18-104.43,18-31.56,40.1-62,69.68-83.7q5.13-3.75,10.54-7.11c1.64-1,.13-3.61-1.51-2.59Z"/><path class="cls-5" d="M310.92,715.84c13.31-6.27,28-8.59,42.56-9.4a374.74,374.74,0,0,1,45.46.42,411.53,411.53,0,0,1,46.43,5.68q11.25,2,22.38,4.68A147.88,147.88,0,0,1,487.67,723a50.28,50.28,0,0,1,17,10.57,59,59,0,0,1,11,15.54c6.28,12.33,10,26.13,13.08,39.56,6.53,28.53,8.33,58.78,1.38,87.42-5.82,24-17.79,47.33-36.77,63.52a85.37,85.37,0,0,1-7,5.39,1.52,1.52,0,0,0,0,2.59c20.77,11.64,44.41,16.67,65.4,27.81,9.59,5.08,18.56,11.41,25.78,19.56a39.66,39.66,0,0,1,5.18,6.8,5.84,5.84,0,0,1-1,7.61c-4.09,4.14-9.45,7.22-14.68,9.66-11.25,5.27-23.66,7.88-35.92,9.51-12.74,1.69-25.61,2.59-38.43,3.47q-39.62,2.7-79.37,2.52t-79.35-3.27q-4.85-.37-9.69-.8c-1.93-.16-1.92,2.84,0,3q40.86,3.54,81.91,4,40.84.46,81.65-2.14c13.42-.86,26.88-1.81,40.24-3.41,12.62-1.51,25.24-3.88,37-8.78a65.65,65.65,0,0,0,15.27-8.67c2.05-1.59,4.31-3.33,5.53-5.68a8.4,8.4,0,0,0-.06-7.58,32.17,32.17,0,0,0-4.9-6.94,75.91,75.91,0,0,0-5.71-6,89.83,89.83,0,0,0-13-10.2c-20.31-13.21-44.28-18.43-66-28.73q-4.23-2-8.3-4.29v2.59c20.87-14.43,34.82-37,42.42-60.91,9-28.17,8.9-58.53,3.69-87.42a222,222,0,0,0-11.81-43c-4.86-12.16-11.8-23.74-23.08-30.93a72.65,72.65,0,0,0-18.84-8c-7.3-2.13-14.76-3.81-22.2-5.38a421.66,421.66,0,0,0-46.77-7.12,411.74,411.74,0,0,0-48-1.76c-14.64.31-29.51,1.46-43.51,6.06a90.41,90.41,0,0,0-10.29,4.11c-1.75.83-.23,3.41,1.51,2.59Z"/><path class="cls-5" d="M583.94,751.86c11.28.4,20.68,7.52,28.2,15.36A147.41,147.41,0,0,1,623.63,781c3.68,4.93,7.55,9.89,10.27,15.43A30.08,30.08,0,0,1,636.17,816a79.49,79.49,0,0,1-6.38,18.26,124.09,124.09,0,0,1-20.53,30c-4,4.44-8.32,8.67-12.77,12.71q-3.22,2.94-6.56,5.76c-2.16,1.83-4.94,3.54-6.47,6a5.38,5.38,0,0,0,1,7c2.13,1.89,5.21,2.7,7.82,3.68,6.12,2.29,12.35,4.3,18.56,6.35,12.58,4.14,25.2,8.54,36.45,15.69,5,3.16,9.62,7.14,11.19,13.06,1.52,5.72.29,12.09-2.48,17.24-2.87,5.33-7.41,9.53-12.33,12.94a120.2,120.2,0,0,1-16.8,9.59,130.63,130.63,0,0,1-38.15,11.49c-3.2.44-6.43.75-9.66.94-1.92.12-1.93,3.12,0,3a131.75,131.75,0,0,0,39.52-8.62,139.1,139.1,0,0,0,18.59-8.81c5.44-3.11,10.85-6.52,15.31-11a32.17,32.17,0,0,0,9-15.83c1.27-5.92.73-12.36-2.64-17.51s-8.93-8.64-14.25-11.64a134.91,134.91,0,0,0-18.39-8.4c-6.32-2.4-12.75-4.47-19.16-6.58-3.21-1.06-6.42-2.13-9.6-3.25a92.58,92.58,0,0,1-9.2-3.49c-1-.48-2.25-1.16-2.6-2.3-.43-1.4.69-2.6,1.64-3.47,2.19-2,4.61-3.83,6.86-5.79,4.63-4,9.12-8.18,13.38-12.57a135.93,135.93,0,0,0,22.25-29.57,102.08,102.08,0,0,0,7.55-17.53c2.15-6.71,3.42-13.92,1.87-20.9-1.4-6.34-5-11.89-8.71-17.09-3.58-5-7.25-9.93-11.2-14.64-7.29-8.67-16.11-17.27-27.26-20.56a32.62,32.62,0,0,0-8.09-1.3c-1.93-.07-1.93,2.93,0,3Z"/><path class="cls-5" d="M388.2,511.15c-18.74,4.87-34.71,17.6-45.38,33.55-11.9,17.78-16.87,39.58-15.29,60.81a99.76,99.76,0,0,0,7.6,31.77c4.18,9.78,10.08,19.46,18.95,25.64,7.69,5.35,16.93,7.61,25.67,10.61a59.32,59.32,0,0,1,12.47,5.64,34.92,34.92,0,0,1,10.19,10.21c3.11,4.53,6.18,8.8,11,11.59,4.64,2.65,9.89,3.93,15.06,5.09a228.11,228.11,0,0,0,37.8,5.2q4.72.25,9.48.3a1.49,1.49,0,0,0,1.44-1.1c2.36-11.81,4.32-25.73-3.31-36.15a18,18,0,0,0-13.48-7.6c-6.06-.49-12.23,1.29-18.2-.39-5.24-1.47-9.59-5-13.3-8.9a139.78,139.78,0,0,1-10.81-13.35c-7.05-9.47-13.91-19.56-16.67-31.22-3.54-15,1.31-30,6.08-44.12.62-1.84-2.28-2.62-2.9-.8-4.3,12.77-8.71,26.23-7.09,39.89,1.42,11.91,7.18,22.53,14,32.22,3.36,4.79,6.87,9.5,10.54,14.05A56.32,56.32,0,0,0,434,665.69a25.81,25.81,0,0,0,15.62,4.36c5.9-.19,12.39-1.55,17.68,1.88,5,3.25,7.61,9.44,8.58,15.11,1.29,7.51-.06,15.25-1.53,22.62l1.45-1.1A223.08,223.08,0,0,1,438.41,705a142.37,142.37,0,0,1-16.72-3.79c-5-1.55-9.51-4-12.88-8s-5.69-8.69-9.51-12.31a40,40,0,0,0-11.06-7.22c-8.22-3.74-17.17-5.53-25.39-9.26a40.53,40.53,0,0,1-11.76-7.82A54.68,54.68,0,0,1,341.72,644a92,92,0,0,1-10.22-30.1c-3.34-20.68-.21-42.68,9.94-61.11,9-16.36,23.49-30.19,41.16-36.7,2.1-.77,4.24-1.44,6.4-2,1.86-.48,1.07-3.38-.8-2.89Z"/><path class="cls-5" d="M555,822.64a238.13,238.13,0,0,0,26.39-80.33,250.19,250.19,0,0,0,2.45-42.55,202.1,202.1,0,0,0-5.11-41.58c-3.45-14.28-9.23-28.36-19.18-39.38-1.29-1.44-3.41.69-2.12,2.12,8.66,9.59,14,21.68,17.37,34,3.61,13.15,5.23,26.82,5.88,40.41a245.77,245.77,0,0,1-10.32,82.85,227.58,227.58,0,0,1-18,42.91c-.92,1.7,1.67,3.21,2.6,1.52Z"/><path class="cls-5" d="M596.53,601.34,659,609.11l15.57,1.94c2.18.27,4.63.32,6.68,1.19a6.69,6.69,0,0,1,3.51,4.18c.65,1.82,1,3.72,1.49,5.59a32.73,32.73,0,0,0,2.08,5.76,29.5,29.5,0,0,0,6.93,9.38,27,27,0,0,0,10.05,5.61c3.87,1.21,8.2,2.3,9.89,6.44a5.32,5.32,0,0,1-.34,5.21,6.94,6.94,0,0,1-4.38,2.25,60.4,60.4,0,0,1-6.44.72l-8,.76c-10.29,1-20.6,2.22-30.92,2.9a44.47,44.47,0,0,1-14.55-.95c-4.46-1.2-8.44-3.6-12.23-6.19s-7.37-5.36-11.27-7.72a74.08,74.08,0,0,0-12.22-5.93,70.86,70.86,0,0,0-26.45-4.59,65.32,65.32,0,0,0-6.55.46c-1.9.22-1.92,3.22,0,3a68,68,0,0,1,27.74,2.5A69.54,69.54,0,0,1,622.61,647a115.14,115.14,0,0,1,11.81,7.72,60.15,60.15,0,0,0,12.08,7.11,37.76,37.76,0,0,0,14.75,2.35c5.17-.08,10.32-.72,15.47-1.21l16.42-1.57c5.27-.51,10.56-.92,15.82-1.52,3.65-.42,7.6-1.51,9.18-5.2s-.12-8.16-3-10.75c-3.35-3-8-3.39-11.93-5.17-7.54-3.39-12.34-10.64-14.24-18.48-.92-3.8-1.82-8.18-5.48-10.32a15.27,15.27,0,0,0-5.91-1.58l-8.15-1-65-8.08-7.91-1c-1.91-.24-1.89,2.76,0,3Z"/><path d="M140.05,134a2.66,2.66,0,0,1-.75-1.92,3.27,3.27,0,0,1,.3-1.2l15.3-36.12A4.6,4.6,0,0,1,156.25,93a3.32,3.32,0,0,1,2.13-.69h.6a3.32,3.32,0,0,1,2.13.69,4.6,4.6,0,0,1,1.35,1.77l15.3,36.12a3.27,3.27,0,0,1,.3,1.2,2.66,2.66,0,0,1-.75,1.92,2.58,2.58,0,0,1-1.95.78,2.74,2.74,0,0,1-1.53-.45,2.87,2.87,0,0,1-1.05-1.23l-3.9-9.36h-20.4l-3.9,9.36a2.87,2.87,0,0,1-1.05,1.23,2.74,2.74,0,0,1-1.53.45A2.58,2.58,0,0,1,140.05,134Zm10.53-15.24h16.2l-8.1-19.5Z"/><path d="M184.78,132.41a2.29,2.29,0,0,1-1-2,2.41,2.41,0,0,1,.66-1.68,2.18,2.18,0,0,1,1.68-.72,2.64,2.64,0,0,1,1.08.24,24.25,24.25,0,0,0,3.84,1.32,17.85,17.85,0,0,0,4.32.48q6.66,0,6.66-4.26a2.27,2.27,0,0,0-1.53-2.1,31.33,31.33,0,0,0-5-1.62,45.27,45.27,0,0,1-5.85-1.74,10.29,10.29,0,0,1-4-2.73,6.94,6.94,0,0,1-1.65-4.83,8.65,8.65,0,0,1,3-6.84q3-2.64,8.67-2.64a25,25,0,0,1,8.7,1.5,2.25,2.25,0,0,1,1.29.9,2.41,2.41,0,0,1,.45,1.38,2.35,2.35,0,0,1-.69,1.68,2.27,2.27,0,0,1-1.71.72,3.37,3.37,0,0,1-.78-.12,23,23,0,0,0-6.84-1.08,9.37,9.37,0,0,0-5.07,1.17,3.49,3.49,0,0,0-1.83,3,2.77,2.77,0,0,0,1.68,2.64,24,24,0,0,0,5.22,1.62,50,50,0,0,1,5.76,1.77,9.52,9.52,0,0,1,3.81,2.73,7.41,7.41,0,0,1,1.59,5,7.93,7.93,0,0,1-3,6.36q-3,2.52-8.55,2.52A22.32,22.32,0,0,1,184.78,132.41Z"/><path d="M215.38,134a2.61,2.61,0,0,1-.78-1.92V93.17a2.71,2.71,0,0,1,.78-2,2.56,2.56,0,0,1,1.92-.81,2.77,2.77,0,0,1,2.76,2.76v24.54l14.28-13.2a2.76,2.76,0,0,1,1.8-.78,2.43,2.43,0,0,1,2,.78,2.87,2.87,0,0,1,.63,1.86,2.94,2.94,0,0,1-1,2l-8.64,7.74L240,130.55a2.63,2.63,0,0,1,.6,1.62,2.49,2.49,0,0,1-.78,1.92,2.81,2.81,0,0,1-2,.72,2.66,2.66,0,0,1-1.2-.3,3,3,0,0,1-1-.84l-10.32-14-5.22,4.74v7.74a2.56,2.56,0,0,1-.81,1.92,2.71,2.71,0,0,1-1.95.78A2.61,2.61,0,0,1,215.38,134Z"/><path d="M264.7,127.19v-18.6h-4.26a1.13,1.13,0,0,1-1.14-1.14,1.25,1.25,0,0,1,.54-1l8.16-8a1.5,1.5,0,0,1,1-.54,1.09,1.09,0,0,1,.81.36,1.25,1.25,0,0,1,.33.84v4.8h6.78a2.31,2.31,0,0,1,1.68.66,2.28,2.28,0,0,1,.66,1.68,2.3,2.3,0,0,1-.66,1.65,2.25,2.25,0,0,1-1.68.69h-6.78v18.12c0,1.56.36,2.55,1.11,3a5.57,5.57,0,0,0,2.79.63,8.42,8.42,0,0,0,2.4-.36l.51-.12a3.27,3.27,0,0,1,.69-.06,2.15,2.15,0,0,1,1.5.63,2.07,2.07,0,0,1,.66,1.53,2.29,2.29,0,0,1-1.38,2.1,11.77,11.77,0,0,1-5,1.08C267.61,135.11,264.7,132.47,264.7,127.19Z"/><path d="M286.59,134a2.61,2.61,0,0,1-.78-1.92V93.17a2.71,2.71,0,0,1,.78-2,2.56,2.56,0,0,1,1.92-.81,2.77,2.77,0,0,1,2.76,2.76v15.66a19.94,19.94,0,0,1,4.92-4,12.42,12.42,0,0,1,6.24-1.5,10.37,10.37,0,0,1,5.73,1.56,10.14,10.14,0,0,1,3.72,4.26,13.6,13.6,0,0,1,1.29,5.94v17a2.56,2.56,0,0,1-.81,1.92,2.71,2.71,0,0,1-1.95.78,2.66,2.66,0,0,1-2.7-2.7V115.67q0-7.32-6.6-7.32a9.55,9.55,0,0,0-5.37,1.56,19.44,19.44,0,0,0-4.47,4.2v18a2.56,2.56,0,0,1-.81,1.92,2.71,2.71,0,0,1-1.95.78A2.61,2.61,0,0,1,286.59,134Z"/><path d="M325.26,134a8.52,8.52,0,0,1-3.57-3.15,8.68,8.68,0,0,1-1.32-4.77,8.41,8.41,0,0,1,3.51-7.08q3.51-2.64,10.29-2.64h7.26v-.48q0-4-1.95-5.7t-6.09-1.74a20.45,20.45,0,0,0-4.05.36,34,34,0,0,0-3.93,1.08,3.37,3.37,0,0,1-.78.12,2.13,2.13,0,0,1-1.56-.66,2.2,2.2,0,0,1-.66-1.62,2.31,2.31,0,0,1,1.56-2.28,26.39,26.39,0,0,1,10.38-2.16,13.55,13.55,0,0,1,7,1.68,10.56,10.56,0,0,1,4.2,4.35,12.65,12.65,0,0,1,1.35,5.79v17a2.56,2.56,0,0,1-.81,1.92,2.71,2.71,0,0,1-1.95.78,2.66,2.66,0,0,1-2.7-2.7v-1.56a15.07,15.07,0,0,1-11.28,4.56A11.15,11.15,0,0,1,325.26,134Zm12-5a14.18,14.18,0,0,0,4.14-3.21v-5h-6.54q-9.06,0-9.06,4.74A4.45,4.45,0,0,0,327.3,129q1.47,1.32,4.89,1.32A10.85,10.85,0,0,0,337.29,129Z"/><path d="M357.15,127.19v-18.6h-4.26a1.13,1.13,0,0,1-1.14-1.14,1.25,1.25,0,0,1,.54-1l8.16-8a1.51,1.51,0,0,1,1-.54,1.06,1.06,0,0,1,.81.36,1.2,1.2,0,0,1,.33.84v4.8h6.78a2.26,2.26,0,0,1,2.34,2.34,2.3,2.3,0,0,1-.66,1.65,2.22,2.22,0,0,1-1.68.69h-6.78v18.12q0,2.34,1.11,3a5.59,5.59,0,0,0,2.79.63,8.32,8.32,0,0,0,2.4-.36l.51-.12a3.27,3.27,0,0,1,.69-.06,2.11,2.11,0,0,1,1.5.63,2,2,0,0,1,.66,1.53,2.27,2.27,0,0,1-1.38,2.1,11.74,11.74,0,0,1-5,1.08Q357.15,135.11,357.15,127.19Z"/><path d="M395.67,127.19v-18.6h-4.26a1.13,1.13,0,0,1-1.14-1.14,1.25,1.25,0,0,1,.54-1l8.16-8a1.51,1.51,0,0,1,1-.54,1.06,1.06,0,0,1,.81.36,1.2,1.2,0,0,1,.33.84v4.8h6.78a2.26,2.26,0,0,1,2.34,2.34,2.3,2.3,0,0,1-.66,1.65,2.22,2.22,0,0,1-1.68.69h-6.78v18.12q0,2.34,1.11,3a5.59,5.59,0,0,0,2.79.63,8.32,8.32,0,0,0,2.4-.36l.51-.12a3.27,3.27,0,0,1,.69-.06,2.11,2.11,0,0,1,1.5.63,2,2,0,0,1,.66,1.53,2.27,2.27,0,0,1-1.38,2.1,11.74,11.74,0,0,1-5,1.08Q395.67,135.11,395.67,127.19Z"/><path d="M421.77,133.13a13.46,13.46,0,0,1-5.37-5.61,19.21,19.21,0,0,1,0-16.62,13.46,13.46,0,0,1,5.37-5.61,17.44,17.44,0,0,1,16.14,0,13.65,13.65,0,0,1,5.4,5.61,18.94,18.94,0,0,1,0,16.62,13.65,13.65,0,0,1-5.4,5.61,17.44,17.44,0,0,1-16.14,0ZM434.58,129a9.16,9.16,0,0,0,3.72-3.6,12,12,0,0,0,1.47-6.24A11.88,11.88,0,0,0,438.3,113a9,9,0,0,0-3.72-3.57,10.52,10.52,0,0,0-4.71-1.11,10.64,10.64,0,0,0-4.77,1.11,8.78,8.78,0,0,0-3.69,3.57,12.08,12.08,0,0,0-1.44,6.18,12.21,12.21,0,0,0,1.44,6.24,9,9,0,0,0,3.69,3.6,10.41,10.41,0,0,0,4.77,1.14A10.29,10.29,0,0,0,434.58,129Z"/><path d="M459.39,134.09a3.66,3.66,0,0,1-1.32-1.8l-8.52-25a3.23,3.23,0,0,1-.18-1,2.66,2.66,0,0,1,2.7-2.7,2.74,2.74,0,0,1,1.53.45,2.21,2.21,0,0,1,.93,1.17l7,23.1,7-22.56a3.08,3.08,0,0,1,5.88,0l7,22.56,7-23.1a2.21,2.21,0,0,1,.93-1.17,2.74,2.74,0,0,1,1.53-.45,2.66,2.66,0,0,1,2.7,2.7,3.23,3.23,0,0,1-.18,1l-8.52,25a3.66,3.66,0,0,1-1.32,1.8,3.6,3.6,0,0,1-4.32,0,4,4,0,0,1-1.38-1.86l-6.36-19.86-6.36,19.86a4,4,0,0,1-1.38,1.86,3.6,3.6,0,0,1-4.32,0Z"/><path d="M501.78,130.94q-4.11-4.17-4.11-11.73a19.56,19.56,0,0,1,1.56-7.86,13.36,13.36,0,0,1,4.8-5.82,13.79,13.79,0,0,1,8-2.22,14,14,0,0,1,7.68,2.07,13.39,13.39,0,0,1,4.92,5.52,17,17,0,0,1,1.68,7.53,2.62,2.62,0,0,1-2.76,2.7H503.19a9.87,9.87,0,0,0,3.12,6.54Q509,130,513.69,130a18,18,0,0,0,4.41-.48,18.32,18.32,0,0,0,3.69-1.38,2.38,2.38,0,0,1,1.08-.24,2.41,2.41,0,0,1,1.68.66,2.18,2.18,0,0,1,.72,1.68,2.59,2.59,0,0,1-1.56,2.22,18.74,18.74,0,0,1-10.5,2.64Q505.89,135.11,501.78,130.94Zm19.11-14.25a9.61,9.61,0,0,0-1.53-4.92,8.26,8.26,0,0,0-3.33-2.91,9.15,9.15,0,0,0-8,0,8.06,8.06,0,0,0-3.3,2.91,9.79,9.79,0,0,0-1.5,4.92Z"/><path d="M534.27,134a2.61,2.61,0,0,1-.78-1.92V93.17a2.71,2.71,0,0,1,.78-2,2.56,2.56,0,0,1,1.92-.81A2.67,2.67,0,0,1,539,93.17v38.94a2.56,2.56,0,0,1-.81,1.92,2.71,2.71,0,0,1-1.95.78A2.61,2.61,0,0,1,534.27,134Z"/><path d="M548.82,133.7a3.23,3.23,0,0,1-1-2.37V131a3.38,3.38,0,0,1,3.36-3.36h.6a3.38,3.38,0,0,1,3.36,3.36v.36a3.38,3.38,0,0,1-3.36,3.36h-.6A3.23,3.23,0,0,1,548.82,133.7Z"/><path d="M1164.4,327.71a2.61,2.61,0,0,1-.78-1.92V291.41h-12.24a2.46,2.46,0,0,1-2.52-2.52,2.54,2.54,0,0,1,.72-1.83,2.39,2.39,0,0,1,1.8-.75h29.88a2.56,2.56,0,0,1,2.58,2.58,2.39,2.39,0,0,1-.75,1.8,2.54,2.54,0,0,1-1.83.72h-12.18v34.38a2.56,2.56,0,0,1-.81,1.92,2.71,2.71,0,0,1-2,.78A2.61,2.61,0,0,1,1164.4,327.71Z"/><path d="M1189.78,327.71a2.61,2.61,0,0,1-.78-1.92V286.85a2.71,2.71,0,0,1,.78-2,2.56,2.56,0,0,1,1.92-.81,2.77,2.77,0,0,1,2.76,2.76v15.66a19.94,19.94,0,0,1,4.92-4,12.42,12.42,0,0,1,6.24-1.5,10.37,10.37,0,0,1,5.73,1.56,10.14,10.14,0,0,1,3.72,4.26,13.6,13.6,0,0,1,1.29,5.94v17a2.56,2.56,0,0,1-.81,1.92,2.71,2.71,0,0,1-2,.78,2.66,2.66,0,0,1-2.7-2.7V309.35q0-7.32-6.6-7.32a9.55,9.55,0,0,0-5.37,1.56,19.44,19.44,0,0,0-4.47,4.2v18a2.56,2.56,0,0,1-.81,1.92,2.71,2.71,0,0,1-2,.78A2.61,2.61,0,0,1,1189.78,327.71Z"/><path d="M1228.45,327.71a8.52,8.52,0,0,1-3.57-3.15,8.68,8.68,0,0,1-1.32-4.77,8.41,8.41,0,0,1,3.51-7.08q3.51-2.64,10.29-2.64h7.26v-.48q0-4-1.95-5.7t-6.09-1.74a20.45,20.45,0,0,0-4,.36,34,34,0,0,0-3.93,1.08,3.37,3.37,0,0,1-.78.12,2.13,2.13,0,0,1-1.56-.66,2.2,2.2,0,0,1-.66-1.62,2.31,2.31,0,0,1,1.56-2.28,26.39,26.39,0,0,1,10.38-2.16,13.55,13.55,0,0,1,7,1.68,10.56,10.56,0,0,1,4.2,4.35,12.65,12.65,0,0,1,1.35,5.79v17a2.56,2.56,0,0,1-.81,1.92,2.71,2.71,0,0,1-2,.78,2.66,2.66,0,0,1-2.7-2.7v-1.56a15.07,15.07,0,0,1-11.28,4.56A11.15,11.15,0,0,1,1228.45,327.71Zm12-5a14.18,14.18,0,0,0,4.14-3.21v-5h-6.54q-9.06,0-9.06,4.74a4.45,4.45,0,0,0,1.47,3.48q1.47,1.32,4.89,1.32A10.85,10.85,0,0,0,1240.48,322.7Z"/><path d="M1260.34,320.87v-18.6h-4.26a1.13,1.13,0,0,1-1.14-1.14,1.25,1.25,0,0,1,.54-1l8.16-8a1.51,1.51,0,0,1,1-.54,1.06,1.06,0,0,1,.81.36,1.2,1.2,0,0,1,.33.84v4.8h6.78a2.26,2.26,0,0,1,2.34,2.34,2.3,2.3,0,0,1-.66,1.65,2.22,2.22,0,0,1-1.68.69h-6.78v18.12q0,2.34,1.11,3a5.59,5.59,0,0,0,2.79.63,8.32,8.32,0,0,0,2.4-.36l.51-.12a3.27,3.27,0,0,1,.69-.06,2.11,2.11,0,0,1,1.5.63,2,2,0,0,1,.66,1.53,2.27,2.27,0,0,1-1.38,2.1,11.74,11.74,0,0,1-5,1.08Q1260.34,328.79,1260.34,320.87Z"/><path d="M1281,299a1.78,1.78,0,0,1-.51-1.26,1.67,1.67,0,0,1,.9-1.5,6.85,6.85,0,0,0,2.28-2.1,6.41,6.41,0,0,0,.78-3.48h-.24a3.38,3.38,0,0,1-3.36-3.36V287a3.38,3.38,0,0,1,3.36-3.36h.6a3.38,3.38,0,0,1,3.36,3.36v3.54a9.65,9.65,0,0,1-4.92,8.76,1.89,1.89,0,0,1-1,.3A1.63,1.63,0,0,1,1281,299Z"/><path d="M1293.76,326.09a2.29,2.29,0,0,1-1-2,2.41,2.41,0,0,1,.66-1.68,2.18,2.18,0,0,1,1.68-.72,2.64,2.64,0,0,1,1.08.24,24.25,24.25,0,0,0,3.84,1.32,17.85,17.85,0,0,0,4.32.48q6.66,0,6.66-4.26a2.27,2.27,0,0,0-1.53-2.1,31.33,31.33,0,0,0-5-1.62,45.27,45.27,0,0,1-5.85-1.74,10.29,10.29,0,0,1-4-2.73,6.94,6.94,0,0,1-1.65-4.83,8.65,8.65,0,0,1,3-6.84q3-2.64,8.67-2.64a25,25,0,0,1,8.7,1.5,2.25,2.25,0,0,1,1.29.9,2.41,2.41,0,0,1,.45,1.38,2.35,2.35,0,0,1-.69,1.68,2.27,2.27,0,0,1-1.71.72,3.37,3.37,0,0,1-.78-.12,23,23,0,0,0-6.84-1.08,9.37,9.37,0,0,0-5.07,1.17,3.49,3.49,0,0,0-1.83,3,2.77,2.77,0,0,0,1.68,2.64,24,24,0,0,0,5.22,1.62,50,50,0,0,1,5.76,1.77,9.52,9.52,0,0,1,3.81,2.73,7.41,7.41,0,0,1,1.59,5,7.93,7.93,0,0,1-3,6.36q-3,2.52-8.55,2.52A22.32,22.32,0,0,1,1293.76,326.09Z"/><path d="M1342.09,327.71a8.52,8.52,0,0,1-3.57-3.15,8.68,8.68,0,0,1-1.32-4.77,8.41,8.41,0,0,1,3.51-7.08q3.51-2.64,10.29-2.64h7.26v-.48c0-2.64-.66-4.54-2-5.7s-3.33-1.74-6.09-1.74a20.31,20.31,0,0,0-4,.36,34,34,0,0,0-3.93,1.08,3.37,3.37,0,0,1-.78.12,2.13,2.13,0,0,1-1.56-.66,2.2,2.2,0,0,1-.66-1.62,2.3,2.3,0,0,1,1.56-2.28,26.35,26.35,0,0,1,10.38-2.16,13.55,13.55,0,0,1,7,1.68,10.62,10.62,0,0,1,4.2,4.35,12.65,12.65,0,0,1,1.35,5.79v17a2.56,2.56,0,0,1-.81,1.92,2.73,2.73,0,0,1-2,.78,2.66,2.66,0,0,1-2.7-2.7v-1.56a15.09,15.09,0,0,1-11.28,4.56A11.12,11.12,0,0,1,1342.09,327.71Zm12-5a14.18,14.18,0,0,0,4.14-3.21v-5h-6.54q-9.06,0-9.06,4.74a4.45,4.45,0,0,0,1.47,3.48Q1345.6,324,1349,324A10.85,10.85,0,0,0,1354.12,322.7Z"/><path d="M1373.68,327.71a2.57,2.57,0,0,1-.78-1.92V300.05a2.67,2.67,0,0,1,.78-1.95,2.53,2.53,0,0,1,1.92-.81,2.77,2.77,0,0,1,2.76,2.76v2.46a19.76,19.76,0,0,1,4.92-4,12.42,12.42,0,0,1,6.24-1.5,10.4,10.4,0,0,1,5.73,1.56,10.21,10.21,0,0,1,3.72,4.26,13.6,13.6,0,0,1,1.29,5.94v17a2.56,2.56,0,0,1-.81,1.92,2.73,2.73,0,0,1-2,.78,2.58,2.58,0,0,1-1.92-.78,2.61,2.61,0,0,1-.78-1.92V309.35c0-4.88-2.21-7.32-6.6-7.32a9.5,9.5,0,0,0-5.37,1.56,19,19,0,0,0-4.47,4.2v18a2.56,2.56,0,0,1-.81,1.92,2.73,2.73,0,0,1-2,.78A2.58,2.58,0,0,1,1373.68,327.71Z"/><path d="M1430.43,326.81a13.46,13.46,0,0,1-5.37-5.61,19.21,19.21,0,0,1,0-16.62,13.46,13.46,0,0,1,5.37-5.61,17.44,17.44,0,0,1,16.14,0,13.65,13.65,0,0,1,5.4,5.61,18.94,18.94,0,0,1,0,16.62,13.65,13.65,0,0,1-5.4,5.61,17.44,17.44,0,0,1-16.14,0Zm12.81-4.14a9.16,9.16,0,0,0,3.72-3.6,12,12,0,0,0,1.47-6.24,11.88,11.88,0,0,0-1.47-6.18,9,9,0,0,0-3.72-3.57,10.52,10.52,0,0,0-4.71-1.11,10.64,10.64,0,0,0-4.77,1.11,8.78,8.78,0,0,0-3.69,3.57,12.08,12.08,0,0,0-1.44,6.18,12.21,12.21,0,0,0,1.44,6.24,9,9,0,0,0,3.69,3.6,10.41,10.41,0,0,0,4.77,1.14A10.29,10.29,0,0,0,1443.24,322.67Z"/><path d="M1468.05,327.77a3.66,3.66,0,0,1-1.32-1.8l-8.52-25a3.23,3.23,0,0,1-.18-1,2.66,2.66,0,0,1,2.7-2.7,2.74,2.74,0,0,1,1.53.45,2.21,2.21,0,0,1,.93,1.17l7,23.1,7-22.56a3.08,3.08,0,0,1,5.88,0l7,22.56,7-23.1a2.21,2.21,0,0,1,.93-1.17,2.74,2.74,0,0,1,1.53-.45,2.66,2.66,0,0,1,2.7,2.7,3.23,3.23,0,0,1-.18,1l-8.52,25a3.66,3.66,0,0,1-1.32,1.8,3.6,3.6,0,0,1-4.32,0,4,4,0,0,1-1.38-1.86l-6.36-19.86-6.36,19.86a4,4,0,0,1-1.38,1.86,3.6,3.6,0,0,1-4.32,0Z"/><path d="M1509.39,327.71a2.61,2.61,0,0,1-.78-1.92V286.85a2.71,2.71,0,0,1,.78-2,2.56,2.56,0,0,1,1.92-.81,2.67,2.67,0,0,1,2.76,2.76v38.94a2.56,2.56,0,0,1-.81,1.92,2.71,2.71,0,0,1-2,.78A2.61,2.61,0,0,1,1509.39,327.71Z"/><path d="M1524.78,327.38a3.47,3.47,0,0,1-1-2.55,3.59,3.59,0,0,1,3.54-3.54,3.47,3.47,0,0,1,2.55,1,3.4,3.4,0,0,1,1,2.49,3.59,3.59,0,0,1-3.6,3.6A3.4,3.4,0,0,1,1524.78,327.38Zm1-11.25a1.8,1.8,0,0,1-.6-1.26l-1.08-19.8v-5.94a3.07,3.07,0,0,1,3.12-3.12,2.92,2.92,0,0,1,2.19.9,3.07,3.07,0,0,1,.87,2.22v5.94l-1.08,19.8a1.86,1.86,0,0,1-.57,1.26,2,2,0,0,1-1.41.48A2.09,2.09,0,0,1,1525.83,316.13Z"/><path class="cls-5" d="M1350.64,770.87c-5.83,3.43-12.58,4.79-19.19,5.77-6.87,1-13.82,1.57-20.59,3.14a46.74,46.74,0,0,0-10.66,3.75c-1.72.88-.21,3.46,1.51,2.59,12.35-6.25,27-5,40.1-8.47a41,41,0,0,0,10.34-4.19,1.5,1.5,0,0,0-1.51-2.59Z"/><path class="cls-5" d="M1350.19,768c-18.83-6.25-37.63-12.6-56.26-19.44q-8-2.94-16-6L1279,744c-.75-10.43-6.22-20.31-12.84-28.18a1.51,1.51,0,0,0-2.5.66c-.63,2-.51,6.38,2.69,6a2.25,2.25,0,0,0,1.91-2.32c0-1.65-1.12-3.11-2.1-4.33-.75-.94-2.18-.3-2.5.66-1.9,5.74-3.91,11.45-5.7,17.23-.86,2.77-1.52,7.34-4.63,8.53-2.92,1.12-6.23-.75-8.36-2.62-2.78-2.45-5-5.49-7.29-8.35s-5.06-6.1-8.61-7.74c-.91-.42-2.4,0-2.26,1.29a192.55,192.55,0,0,1,.89,33.61c-.12,1.93,2.89,1.92,3,0a192.55,192.55,0,0,0-.89-33.61l-2.25,1.3c3.32,1.54,5.74,4.48,8,7.27,2.46,3,4.77,6.29,7.81,8.79,2.79,2.29,6.38,3.95,10.07,3.15,4.15-.91,5.75-5.22,6.83-8.84,1.91-6.46,4.16-12.82,6.28-19.21l-2.51.66a7.36,7.36,0,0,1,1.19,2c0,.12.08.14,0,.17.38-.25.34-.6.91-.62.07,0,.3.13.32.12s0,0,0,0a1.13,1.13,0,0,1-.16-.36,3.72,3.72,0,0,1,.24-2l-2.51.66c6.07,7.22,11.27,16.48,12,26.06a1.58,1.58,0,0,0,1.1,1.45c18.49,7.09,37.18,13.66,56,20q8.16,2.74,16.33,5.45c1.83.61,2.62-2.28.79-2.89Z"/><path class="cls-5" d="M1307.4,819.49q-6.8,28.56-13.58,57.12c-2.18,9.16-4.38,18.45-4.55,27.92a72.72,72.72,0,0,0,4.56,25.89,99.69,99.69,0,0,0,6.15,13.67,11.74,11.74,0,0,0,3.81,4.73,4.59,4.59,0,0,0,5.22.26c1.55-1.12.06-3.72-1.51-2.59-1.18.86-2.67-.47-3.43-1.37a27.19,27.19,0,0,1-2.89-5.2,91.87,91.87,0,0,1-4.91-11.57,69.62,69.62,0,0,1-4-24.3c.23-9,2.35-17.89,4.44-26.65q3.18-13.42,6.38-26.86l7.19-30.25c.45-1.88-2.44-2.68-2.89-.8Z"/><path class="cls-5" d="M1279.58,826.44c-8.66,2.12-17.56,4.28-25.4,8.67a33,33,0,0,0-9.85,8.15,37.38,37.38,0,0,0-5.94,11.38,98.29,98.29,0,0,0-4.61,29.24,109.16,109.16,0,0,0,3.87,30.62c3,11,7.6,22.08,6.12,33.69-.25,1.91,2.75,1.89,3,0,1.26-9.94-1.86-19.66-4.67-29.06a117.6,117.6,0,0,1-5.26-29.35,105.07,105.07,0,0,1,3.14-29.86c2.1-8.25,5.83-15.77,13.09-20.61,8.11-5.42,18-7.69,27.3-10,1.88-.46,1.08-3.35-.79-2.89Z"/><path class="cls-5" d="M1209.22,942.12a214.44,214.44,0,0,1,19.82,10.8c6,3.83,11.76,8.34,16,14.14a31.15,31.15,0,0,1,4.44,8.32,25.1,25.1,0,0,1,1.13,9.11,7.14,7.14,0,0,0,.79,4c.89,1.47,2.47,2.1,4,2.69a23.87,23.87,0,0,1,8.22,5.1,15.47,15.47,0,0,1,4.47,7.19c.77,3.39-3.56,3.7-5.93,3.78-3.85.12-7.75-.19-11.6-.31l-12.45-.43q-12.21-.43-24.41-.91c-4.11-.16-8.23-.3-12.35-.5-1.49-.08-3.28-.13-4.37-1.3s-1.71-3.38-2.33-5a124.32,124.32,0,0,1-8.28-50.73c.1-1.93-2.9-1.93-3,0a126,126,0,0,0,7.16,48.19c.68,1.94,1.42,3.86,2.19,5.76a10.53,10.53,0,0,0,2.56,4.27,8.49,8.49,0,0,0,4.87,1.7c2,.19,4.06.2,6.08.28q13.2.54,26.4,1t26.15.88c3.14.1,6.57.25,9.46-1.2,3.27-1.64,3.39-5,2.12-8.12-2.64-6.38-8.33-10.27-14.54-12.74a3,3,0,0,1-2.23-3.3,41.12,41.12,0,0,0,0-4.71,28.19,28.19,0,0,0-2.91-9.64c-6.86-13.67-21.54-21.62-34.6-28.28-1.76-.9-3.52-1.78-5.29-2.67s-3.24,1.73-1.51,2.59Z"/><path class="cls-5" d="M1301.47,950.48c-1.78,6.17-6.06,11.38-11.24,15.08a39.49,39.49,0,0,1-9.23,4.9c-3.93,1.45-8.07,2.2-12,3.78-1.76.72-1,3.62.8,2.89,4.13-1.68,8.55-2.43,12.7-4.06a41.55,41.55,0,0,0,9.81-5.36c5.55-4.14,10.08-9.71,12-16.44a1.5,1.5,0,0,0-2.89-.79Z"/><path class="cls-5" d="M1302.82,932.32l18.81,10.19c3,1.61,6,3.2,8.93,4.84a37.15,37.15,0,0,1,7.45,5c4.21,3.9,5.44,9.27,5,14.83a62,62,0,0,1-3.45,14.95c-1.84,5.35-4.84,10-10.13,12.44a1.52,1.52,0,0,0-.69,1.7c1,3.07,4.7,2.57,7.15,3.55,2.12.85-.66,2.12-1.73,2.36a41,41,0,0,1-7.59.5,145.55,145.55,0,0,1-30-2.34,142.47,142.47,0,0,1-16.41-4.07c-1.84-.58-2.63,2.32-.79,2.89a146,146,0,0,0,32.16,6.13,148.43,148.43,0,0,0,16.74.34c2.53-.09,5.34,0,7.76-.84,2-.69,3.91-2.28,3.75-4.56s-2.23-3.16-4.07-3.6c-.73-.18-3.76-.34-4-1.16l-.69,1.69c5.07-2.32,8.43-6.66,10.54-11.71a64.85,64.85,0,0,0,4.24-15.78c.79-5.64.42-11.63-3-16.43-3.83-5.4-10.24-8.26-15.89-11.33l-22.54-12.2c-1.7-.92-3.21,1.67-1.51,2.59Z"/><path class="cls-5" d="M1189.21,924.79a112,112,0,0,1,5.08-26.89c.59-1.84-2.31-2.63-2.89-.79a115.35,115.35,0,0,0-5.19,27.68c-.12,1.93,2.88,1.92,3,0Z"/><path class="cls-5" d="M1310.59,773.59c-7.11.32-14.63.84-20.4,5.48a1.52,1.52,0,0,0,0,2.12,1.55,1.55,0,0,0,2.13,0c5-4.06,12.09-4.32,18.27-4.6,1.93-.09,1.94-3.09,0-3Z"/><path class="cls-5" d="M1167.36,930.08a944.36,944.36,0,0,0-74-90q-11.41-12.23-23.25-24l-1.46,2.51,19.09,2.66a1.52,1.52,0,0,0,1.69-2.2l-59.2-114.69-16.91-32.76-1.7,2.2,72.61,12.84a1.52,1.52,0,0,0,1.84-1.84q-16.1-74.47-38.13-147.49-6.21-20.61-12.91-41.07l-1.85,1.85c41.36,12.38,79.3,33.28,116.87,54.1a1.51,1.51,0,0,0,2.26-1.29l-.5-66.44-.25-33.48c-.07-9.71-.39-19.48.39-29.17.86-10.69,3.39-21.24,9.65-30.11H1159l19.21,26.07c2.41,3.27,4.76,7.53,8.39,9.62s7.68.91,11.28-.58c19.59-8.13,39-16.64,58.55-25l33.87-14.44-2.06-2a887.94,887.94,0,0,0-49.92,95.16q-6.16,13.68-11.84,27.58a1.51,1.51,0,0,0,1.45,1.9l45.52-1.41-1.29-2.25q-25.41,48.46-53.83,95.27-8,13.21-16.3,26.3a1.52,1.52,0,0,0,1.7,2.2l19.41-4.61-1.85-1a205.37,205.37,0,0,1-14.13,116.34c-.77,1.76,1.82,3.29,2.59,1.52a209.13,209.13,0,0,0,14.44-118.66,1.52,1.52,0,0,0-1.85-1l-19.41,4.61,1.69,2.2q29.25-46.29,55.56-94.35,7.41-13.54,14.57-27.22a1.52,1.52,0,0,0-1.3-2.26L1227.92,507l1.44,1.9A883.34,883.34,0,0,1,1275.61,413q7.4-13.2,15.22-26.15c.85-1.41-.78-2.59-2.06-2.05L1234,408.17l-27.39,11.67c-4.37,1.86-8.92,4.45-13.57,5.46-5.8,1.27-8.69-4.22-11.61-8.19l-19.85-26.94a1.53,1.53,0,0,0-2.59,0c-11,15.62-10.63,35.49-10.5,53.78L1149,512l.29,38.89,2.26-1.3c-29.34-16.26-58.81-32.54-90.07-44.86q-13.56-5.34-27.52-9.54a1.51,1.51,0,0,0-1.84,1.84q23.67,72.45,41.49,146.65,5,20.9,9.55,41.9l1.84-1.84-72.6-12.84a1.52,1.52,0,0,0-1.7,2.2l59.21,114.69,16.91,32.76,1.7-2.2-19.09-2.67c-1.38-.19-2.62,1.35-1.46,2.51a943.65,943.65,0,0,1,76.73,86.7q10.29,13.17,20.07,26.71c1.12,1.54,3.73,0,2.59-1.52Z"/><path class="cls-5" d="M1317.33,790q17.48,6.07,35.43,10.57,9.06,2.27,18.21,4.12,4.59.95,9.2,1.77c2.83.51,5.91.71,8.64,1.61,2.2.73,2.55,2.52,2.86,4.59s.81,4.16,2.55,5.54a10.12,10.12,0,0,0,3,1.51c1,.34,2.37.64,3,1.54,1,1.52-.94,3.34-2.13,4-2.34,1.3-5.43.9-7.93.35-2.94-.65-5.8-1.68-8.68-2.54q-8.81-2.64-17.75-4.78a342.3,342.3,0,0,0-41-7.16c-1.91-.21-1.89,2.79,0,3a333.23,333.23,0,0,1,38.57,6.67q9.53,2.24,18.91,5c5.48,1.63,12.2,4.74,18,2.65,3.7-1.34,7.59-6.39,3.72-9.78a9.55,9.55,0,0,0-3.13-1.63c-1.17-.42-2.54-.74-3.29-1.82-1.15-1.66-.83-4.06-1.48-5.92a6.77,6.77,0,0,0-5.16-4.36c-3-.75-6.23-1.09-9.31-1.66q-9.67-1.78-19.25-4a414.46,414.46,0,0,1-42.17-12.19c-1.83-.64-2.61,2.26-.8,2.89Z"/><path class="cls-5" d="M1268.44,752.88a5.9,5.9,0,0,0-2.92-4,7.06,7.06,0,0,0-5-.75c-3,.65-8.32,4.52-5.64,8a1.51,1.51,0,0,0,2.12,0,1.55,1.55,0,0,0,0-2.12s.1.19.13.22v-.15c0,.11,0,.12,0,0s0-.11,0,0l.08-.16a3.91,3.91,0,0,1,.26-.44,9,9,0,0,1,1.16-1.13,6.11,6.11,0,0,1,3-1.35c-.17,0,.16,0,.21,0s.29,0,.44,0a3.55,3.55,0,0,1,.46,0c-.21,0,.06,0,.14,0l.37.1s.44.15.23.06a4.58,4.58,0,0,1,.69.37,4.21,4.21,0,0,1,.9.82c.07.11.14.21.2.32s.16.31.08.12a3.8,3.8,0,0,1,.23.88,1.51,1.51,0,0,0,1.84,1.05,1.53,1.53,0,0,0,1-1.85Z"/><path class="cls-5" d="M1277.61,753.77c.08.22.11.28.08.17l0-.11s0,.41,0,.19c0,.38,0,.29,0,.13s-.15.26,0,.13a.54.54,0,0,0,.1-.16c0,.08-.25.27-.06.09a.93.93,0,0,1,.14-.14c.1-.09.28-.17,0,0,.25-.15.49-.31.75-.44s-.25.09-.07,0l.2-.07a5.6,5.6,0,0,1,.54-.17l.57-.15.29-.06c.35-.07-.21,0,0,0h.63s-.35-.07,0,0l.21.07c-.11,0-.28-.14-.07,0,0,0,.15.12.19.12-.17-.14-.21-.17-.13-.09l.07.06c.17.17,0,0,0-.07a1.59,1.59,0,0,0,.13.22c-.06,0-.11-.34,0-.08l0,.08,0-.19v.09c0,.16,0,.11,0-.14a1.5,1.5,0,0,0,2.9.8,3.16,3.16,0,0,0-1.56-3.37,4.88,4.88,0,0,0-3.84-.22,6.83,6.83,0,0,0-2.79,1.41,3.15,3.15,0,0,0-.92,1.4,2.72,2.72,0,0,0,.2,2,1.52,1.52,0,0,0,.9.69,1.5,1.5,0,0,0,1.85-1.05,1.76,1.76,0,0,0-.15-1.15Z"/><path class="cls-5" d="M1285.15,758.28a1.5,1.5,0,0,0,0-3,1.5,1.5,0,0,0,0,3Z"/><path class="cls-5" d="M1267.86,760.05a1.5,1.5,0,0,0,0-3,1.5,1.5,0,0,0,0,3Z"/><path class="cls-5" d="M1219,774.88c-6.59-13.28-13.18-26.57-19.23-40.11q-4.47-10-8.47-20.15c-2.37-6-4.7-12-7.41-17.91a87.3,87.3,0,0,0-11.54-18.91,1.51,1.51,0,0,0-2.35.3c-4.27,6.25-8.59,12.78-10.54,20.17a27.72,27.72,0,0,0-.71,11.1,43.24,43.24,0,0,0,3.57,11.12c6.48,14.8,14.33,29,21.07,43.62a205.23,205.23,0,0,1,9.86,25.31c.56,1.84,3.46,1.05,2.89-.8-4.61-15-11.51-29.25-18.52-43.3-3.51-7-7.05-14-10.36-21.15-3.22-6.94-6.72-14.15-5.55-22,1.24-8.36,6.21-15.68,10.88-22.52l-2.36.3c8.35,10.16,13.1,22.6,17.86,34.7,5.29,13.44,11.19,26.61,17.45,39.63,3.56,7.41,7.21,14.78,10.86,22.15.86,1.73,3.45.21,2.6-1.52Z"/><path class="cls-5" d="M544.85,447.66c-5-12.36-9.9-25.18-10.42-38.64-.47-11.81,2.51-24.22,11.08-32.78,7.63-7.62,18.82-11.36,29.21-7.55,9.58,3.52,16.82,12.47,19.57,22.14,3.92,13.73-.26,28.47-6.85,40.66l2.74,1.15,10.67-28c3.12-8.18,5.8-17.43,12.23-23.72a18.55,18.55,0,0,1,11.5-5.62l-1.5-1.5a142.64,142.64,0,0,1-5.76,51.38q-.95,3.12-2,6.19a22,22,0,0,1-2.3,5.29,6.3,6.3,0,0,1-4.75,2.47c-2.08.28-4.19.36-6.28.57A212.09,212.09,0,0,0,548,452.25c-1.79.67-1,3.57.8,2.89a210.38,210.38,0,0,1,52.65-12.39c2.17-.23,4.36-.35,6.53-.59a11,11,0,0,0,5.47-1.78c3.14-2.3,4.19-6.7,5.37-10.19a143.43,143.43,0,0,0,6.19-26.26,145.94,145.94,0,0,0,1-30.13,1.51,1.51,0,0,0-1.5-1.5C615.7,372.91,609,379.53,605,387a109.18,109.18,0,0,0-5.59,13.13L593.72,415l-6.44,16.9c-.6,1.59,2,2.63,2.75,1.15,6.38-11.79,10.37-25.42,8.08-38.87-1.85-10.89-8.63-21.14-18.42-26.45a28.33,28.33,0,0,0-15.84-3.47,32,32,0,0,0-16.28,6.33c-10.21,7.6-15.23,19.64-16.06,32.1-1.07,15.95,4.58,31.27,10.44,45.81.72,1.77,3.62,1,2.9-.79Z"/><path class="cls-5" d="M606.66,506.07a17.84,17.84,0,0,0-16.06-4.13,17.61,17.61,0,0,0-11.92,10.57c-1,2.5-1.51,5.49-.35,8,1.33,2.88,4.65,3.71,7.46,4.41a46,46,0,0,0,10,1.36c2.88.07,5.5-.62,6.34-3.71a33.8,33.8,0,0,0,1-9.66,15.17,15.17,0,0,0-3.08-9.1c-1.19-1.52-3.3.62-2.12,2.12,2.83,3.61,2.41,8.75,1.78,13a14.27,14.27,0,0,1-.6,3.19c-.43,1.08-1.49,1.15-2.52,1.16a38.61,38.61,0,0,1-8.24-.85c-1.29-.26-2.56-.58-3.82-1a6.34,6.34,0,0,1-3.11-1.56c-1.41-1.64-.74-4.3-.09-6.12a14.53,14.53,0,0,1,8.93-8.67,14.69,14.69,0,0,1,14.23,3c1.43,1.3,3.55-.82,2.12-2.12Z"/><path class="cls-5" d="M547.65,349.58c22.63-7.9,49.24-16.4,71.34-2.42a57.52,57.52,0,0,1,20.06,22.53,68.65,68.65,0,0,1,7.13,32.76c-.27,14.19-4.17,28.15-10,41a1.52,1.52,0,0,0,.9,2.2c4.77.9,9.62,1,14.43,1.53,4.5.5,9.28,1.5,12.8,4.53,7.25,6.21,6.58,17.28,4.93,25.76-3.5,17.94-13.7,34.22-27.74,45.82a77.11,77.11,0,0,1-27,14.47c-1.84.54-1.06,3.44.8,2.89a83,83,0,0,0,45.29-34.2,80.16,80.16,0,0,0,11.18-26.24c2-9,3.11-20.14-2.83-28-7.33-9.65-20.5-7.48-31-9.47l.9,2.21c10.29-22.73,14.9-49.6,4.6-73.17A62.34,62.34,0,0,0,624.06,347c-9.59-7.25-21.31-10.58-33.27-10.42-15.15.2-29.79,5.13-43.94,10.07-1.81.63-1,3.53.8,2.89Z"/><path class="cls-5" d="M554.57,547.33c-24.72-4.48-49.28-14-66.79-32.66-8.09-8.61-14.79-19.23-17.53-30.83-1.46-6.23-1.64-12.85.52-18.94a28.57,28.57,0,0,1,8.58-12c8.8-7.53,20.68-10.8,31.73-13.38,1.88-.44,1.09-3.33-.79-2.89-10.44,2.43-21.28,5.52-30.11,11.84a34.31,34.31,0,0,0-10.36,11.31,32.29,32.29,0,0,0-3.52,18.42c1.16,12.61,7.54,24.47,15.44,34.15a95.86,95.86,0,0,0,28.71,23.37c13.47,7.31,28.29,11.81,43.32,14.53,1.89.34,2.7-2.55.8-2.89Z"/><path class="cls-5" d="M499,356.73c-11,1.35-21,6.9-28.73,14.74-8.46,8.56-13.92,19.56-17.24,31a134.38,134.38,0,0,0-4.11,21.13c-.24,1.91,2.76,1.9,3,0,2.7-22.2,10.42-46,30.7-58.13A42,42,0,0,1,499,359.73c1.89-.23,1.91-3.24,0-3Z"/><path class="cls-5" d="M580.78,421c-.81-2.06-1.14-4.45,0-6.25a4.35,4.35,0,0,1,1.76-1.53,4.29,4.29,0,0,1,.7-.2s.29,0,.08,0l.32,0,.4,0c.23,0-.23-.06,0,0a6,6,0,0,1,.69.2c-.28-.11.13.08.22.14a2.11,2.11,0,0,1,.27.18c.19.12-.16-.15,0,0a4.07,4.07,0,0,1,.42.41l.18.2c-.2-.24,0,.07.08.12a5.39,5.39,0,0,1,.3.52,3,3,0,0,1,.15.31c0-.06-.08-.25,0,0a5.58,5.58,0,0,1,.18.58,2.68,2.68,0,0,1,.07.27c0,.05.06.45,0,.27s0,.22,0,.21v.55s0,.43,0,.2,0,.09,0,.14,0,.22-.08.33,0,.17-.07.26-.18.43,0,.15a5.36,5.36,0,0,1-.28.53c-.06.11-.13.21-.2.32l-.09.12a5.93,5.93,0,0,1-1,1c.17-.14-.09.05-.13.08l-.39.25c-.22.13-.45.26-.68.37-.05,0-.35.15-.14.07l-.44.16a6.61,6.61,0,0,1-.76.22,8.06,8.06,0,0,1-3.05.17,1.5,1.5,0,0,0-1.5,1.5,1.53,1.53,0,0,0,1.5,1.5c4.74.52,10.76-2.57,10.35-8a7,7,0,0,0-3.41-5.67A6.07,6.07,0,0,0,579,412.1c-2.4,2.65-2.4,6.47-1.14,9.65a1.53,1.53,0,0,0,1.84,1,1.5,1.5,0,0,0,1-1.84Z"/><path class="cls-5" d="M612,422.43a1.09,1.09,0,0,0-.24-.07c-.18,0,.3.17,0,0l-.17-.1-.08,0c-.1-.07-.1-.07,0,0l.08.05a2.58,2.58,0,0,1-.27-.27c-.2-.2.07.07.05.08a3.06,3.06,0,0,1-.18-.29,1.5,1.5,0,0,1-.11-.22s.13.37.05.08-.09-.32-.14-.48.06.1,0,.1a1.91,1.91,0,0,0,0-.2c0-.18,0-.37,0-.55s-.08.37,0,0c0-.06,0-.13.05-.19a2.17,2.17,0,0,0,.07-.24c0-.19-.17.31,0,0a1.62,1.62,0,0,0,.1-.18c0-.07.09-.27,0-.09l-.06.07.13-.15a2.73,2.73,0,0,1,.25-.23c-.23.2.07,0,.18-.11s.41-.19.06-.05l.22-.08c.17-.05.35-.07.51-.12s-.35,0,0,0h.6c.37,0-.2-.06,0,0s.36.07.53.12l.29.09c.08,0,.32.16,0,0,.18.1.36.19.53.3,0,0,.32.23.14.09s.12.11.13.11l.34.36c-.18-.2,0,0,0,.08l.18.28.13.23c0,.09.15.37.06.13a5.1,5.1,0,0,1,.2.63l.06.27s.06.42,0,.19,0,.22,0,.21,0,.18,0,.27c0,.25,0,.5,0,.74s.07-.34,0,.08a2.56,2.56,0,0,0,0,.27c-.05.2-.1.39-.16.59s-.07.21-.11.32c-.09.27,0,.08,0,0a5.17,5.17,0,0,1-.34.66l-.18.28c-.23.35.18-.17-.1.12l-.18.2c-.06.06-.31.27-.1.11l-.27.18c-.08.05-.48.19-.18.1l-.24.07c-.31.1.27,0,0,0h-.23c.37,0,0,0-.11,0s-.33-.14,0,0l-.3-.16c-.11-.06-.1-.15,0,0-.07-.09-.2-.3-.05,0,0,0-.2-.32-.08-.1s0-.18,0-.24a1.51,1.51,0,0,0-1.85-1.05,1.53,1.53,0,0,0-1,1.84,3.47,3.47,0,0,0,2.59,2.6,4.19,4.19,0,0,0,3.85-1,7.61,7.61,0,0,0,2.07-7.05,6,6,0,0,0-4.81-4.8,4.93,4.93,0,0,0-5.73,3.16c-.7,2.32.52,5.21,3,5.81a1.53,1.53,0,0,0,1.85-1.05,1.52,1.52,0,0,0-1.05-1.84Z"/><path class="cls-5" d="M551.6,521.53a17.15,17.15,0,0,1-14.06-15.45c-.09-1.57-2.68-2.17-2.94-.4-.37,2.46-2.39,4.16-3.73,6.12a8,8,0,0,0-1.1,7.47c2.3,6.12,8.84,7.41,14.59,8.13a1.5,1.5,0,0,0,1.5-1.5,1.54,1.54,0,0,0-1.5-1.5c-4.49-.57-10.68-1.53-12-6.77-.52-2.12.65-3.86,1.92-5.45s2.84-3.46,3.17-5.7l-3-.4c.55,8.85,7.44,16.87,16.26,18.35,1.89.31,2.7-2.58.8-2.9Z"/><path class="cls-5" d="M499,349.41a381,381,0,0,1,27.21-57.73,361.81,361.81,0,0,1,38.36-54.25,336,336,0,0,1,46.54-44.82,298.55,298.55,0,0,1,53.57-34A247.74,247.74,0,0,1,693,146.8c10.24-3.51,20.78-6.29,30.45-11.27a70.23,70.23,0,0,0,6.9-4.08,1.52,1.52,0,0,0,.69-1.69,45.58,45.58,0,0,0-19.26-22.19,53.56,53.56,0,0,0-31-6.88c-12.77,1-24.68,6.12-35.49,12.76-11.59,7.13-22.26,15.82-32.52,24.73a453.84,453.84,0,0,0-54.67,57.08,695.8,695.8,0,0,0-45.47,63.6c-7.47,11.69-15.18,23.47-20.62,36.28A76.49,76.49,0,0,0,486.39,315a93.35,93.35,0,0,0-.09,21.2c.32,3.25.74,6.5,1.19,9.75a1.51,1.51,0,0,0,1.85,1,1.53,1.53,0,0,0,1.05-1.84c-1.89-13.64-2.76-27.4,1.38-40.74,4.08-13.14,11.53-25,18.78-36.62a733.51,733.51,0,0,1,43.3-62.37,478.54,478.54,0,0,1,51.87-56.87,339.66,339.66,0,0,1,30.1-25c10.57-7.73,22.12-14.85,34.93-18.1a54.31,54.31,0,0,1,31.9,1.23,43.87,43.87,0,0,1,22.2,17.63,39.86,39.86,0,0,1,3.26,6.33l.69-1.69c-9.18,6.18-19.69,9.54-30.14,12.91A266.38,266.38,0,0,0,669.55,153,292.91,292.91,0,0,0,615,185.78a334.5,334.5,0,0,0-47.7,43.89,362.64,362.64,0,0,0-39.85,53.89,381.86,381.86,0,0,0-28.65,57.81q-1.43,3.61-2.78,7.24c-.68,1.82,2.22,2.6,2.89.8Z"/><path class="cls-5" d="M484.78,353.09c-12.91-5.41-26.32-11-36.18-21.29-8.58-9-14-20.47-16.8-32.45-3.25-13.67-3.23-27.92-1.63-41.82,1.79-15.58,5.64-30.9,10.24-45.88a112.11,112.11,0,0,1,8.12-20.54,98.53,98.53,0,0,1,13.3-18.23c4.95-5.6,10-11.14,15.26-16.49,2.55-2.6,5.17-5.14,7.9-7.55,1.37-1.2,2.76-2.38,4.19-3.51,1.12-.89,2.9-2.61,4.45-2.57,1.21,0,.72,2.16.6,2.94-.27,1.85-.65,3.69-1.08,5.51-.91,3.91-2.07,7.76-3.3,11.58-2.46,7.65-5.06,15.24-7.2,23a285.4,285.4,0,0,0-8.81,46,244,244,0,0,0-.74,44.57c.55,7.13,1.45,14.24,2.7,21.29s3,14.33,3.38,21.65a49.37,49.37,0,0,1-.63,11.26c-.33,1.89,2.56,2.7,2.9.8,1.36-7.75.72-15.48-.63-23.18-1.28-7.31-2.82-14.56-3.73-21.94a235.29,235.29,0,0,1-1-45.65,273.8,273.8,0,0,1,7.86-47.84c2-8,4.47-15.94,7.08-23.8,2.53-7.64,5.25-15.42,6.28-23.44a6.33,6.33,0,0,0-.54-4.13,3.64,3.64,0,0,0-3.83-1.52,10.31,10.31,0,0,0-4.3,2.17c-1.55,1.17-3.05,2.4-4.53,3.67a197.38,197.38,0,0,0-16.28,16.19c-5.3,5.75-10.66,11.49-15.38,17.73a83.51,83.51,0,0,0-11.08,20.1,222.55,222.55,0,0,0-7.12,22.55c-2.15,7.91-4,15.89-5.41,24-2.57,14.83-3.66,30-1.57,45,1.8,12.78,6.06,25.47,13.68,36a62.11,62.11,0,0,0,13.61,13.71,104.11,104.11,0,0,0,19.26,10.69c3.38,1.51,6.79,2.94,10.2,4.37a1.51,1.51,0,0,0,1.84-1.05,1.53,1.53,0,0,0-1-1.84Z"/></svg>