<svg id="Layer_1" data-name="Layer 1" xmlns="http://www.w3.org/2000/svg" viewBox="0 0 1920 1080"><defs><style>.cls-1{fill:#4d4d4d;}.cls-2{font-size:60px;font-family:VarelaRound-Regular, Varela Round;}.cls-3{letter-spacing:-0.01em;}.cls-4{letter-spacing:-0.01em;}.cls-5{letter-spacing:0em;}.cls-6{letter-spacing:-0.01em;}.cls-7{letter-spacing:-0.01em;}.cls-8{letter-spacing:0em;}.cls-9{letter-spacing:-0.02em;}.cls-10{letter-spacing:-0.01em;}</style></defs><title>42-teeth</title><path class="cls-1" d="M453.14,436.28c-36.62,22.82-64.59,57-87.09,93.28C342.3,567.91,323.39,609.45,308,651.78A789.31,789.31,0,0,0,272.1,786.45a821.39,821.39,0,0,0-12.25,138.78,798.32,798.32,0,0,0,11.76,139.33q1.5,8.54,3.18,17c.37,1.89,3.26,1.09,2.89-.8A788.62,788.62,0,0,1,263,942.63a816.41,816.41,0,0,1,9.28-138.82,797.25,797.25,0,0,1,32.19-133c14.4-42.86,32.47-84.73,54.86-124.05C380.68,509.27,407,473,442.14,447.32q6.09-4.47,12.51-8.45c1.63-1,.13-3.61-1.51-2.59Z"/><path class="cls-1" d="M348.46,805.19c15.84-7.48,33.31-10.24,50.67-11.2a445.64,445.64,0,0,1,54,.49,489.88,489.88,0,0,1,55.2,6.76q13.35,2.41,26.57,5.55a176.3,176.3,0,0,1,23.65,6.88,60,60,0,0,1,20.25,12.62,70.16,70.16,0,0,1,13.11,18.5c7.48,14.67,11.9,31.06,15.56,47,7.77,33.92,9.91,69.88,1.65,103.93-6.92,28.51-21.16,56.28-43.73,75.53a102.51,102.51,0,0,1-8.39,6.44,1.52,1.52,0,0,0,0,2.59c24.66,13.82,52.72,19.8,77.65,33,11.39,6.05,22.06,13.58,30.65,23.27a47.8,47.8,0,0,1,6.2,8.12,7.24,7.24,0,0,1-1.28,9.38c-4.87,4.93-11.26,8.6-17.48,11.52-13.42,6.27-28.19,9.38-42.79,11.32-15.13,2-30.41,3.07-45.62,4.11q-47,3.23-94.23,3t-94.2-3.88q-5.76-.45-11.51-1c-1.93-.16-1.91,2.84,0,3q48.51,4.2,97.24,4.76,48.5.55,96.93-2.54c15.94-1,31.92-2.15,47.78-4,15-1.79,29.91-4.6,43.88-10.41a77.67,77.67,0,0,0,18-10.25c2.4-1.86,5.06-3.9,6.49-6.66a9.68,9.68,0,0,0-.07-8.71,37.86,37.86,0,0,0-5.78-8.18,88.55,88.55,0,0,0-6.77-7.2,107.4,107.4,0,0,0-15.41-12c-24.12-15.69-52.58-21.89-78.34-34.12q-5-2.37-9.86-5.09v2.59c24.73-17.08,41.25-43.85,50.24-72.14,10.63-33.4,10.56-69.39,4.38-103.63-3.11-17.28-7.49-34.69-14-51-5.74-14.37-13.94-28.07-27.27-36.55-6.85-4.36-14.54-7.25-22.3-9.51C540.83,805,532,803,523.14,801.09a498.51,498.51,0,0,0-55.44-8.44,491.07,491.07,0,0,0-57-2.1c-17.36.38-35,1.74-51.58,7.19A107.2,107.2,0,0,0,347,802.6c-1.75.82-.23,3.41,1.51,2.59Z"/><path class="cls-1" d="M672.72,847.91c13.48.48,24.73,9,33.71,18.35A173.66,173.66,0,0,1,720,882.58c4.33,5.78,8.86,11.61,12.1,18.09A36,36,0,0,1,735,924.25a93.75,93.75,0,0,1-7.53,21.67,146.77,146.77,0,0,1-24,35.34c-4.73,5.24-9.75,10.22-15,15q-4,3.62-8,7.09c-2.54,2.17-5.7,4.17-7.69,6.87a6.16,6.16,0,0,0,.39,8.16c2.3,2.38,6.05,3.35,9.06,4.49,7.27,2.73,14.67,5.12,22,7.56,14.88,4.9,29.82,10.06,43.18,18.4,6,3.75,11.81,8.41,13.89,15.47,2,6.78.71,14.37-2.44,20.59-3.31,6.56-8.77,11.73-14.72,15.91a139.93,139.93,0,0,1-20.1,11.53,155.25,155.25,0,0,1-45.64,13.79c-3.81.53-7.65.89-11.49,1.12-1.92.12-1.93,3.12,0,3a156,156,0,0,0,47.13-10.33,164.22,164.22,0,0,0,22.35-10.69c6.44-3.71,12.84-7.81,18.05-13.18a37.42,37.42,0,0,0,10.2-18.91c1.35-7.16.41-14.77-4-20.75s-10.86-9.84-17.17-13.31a163.43,163.43,0,0,0-22.08-9.88c-7.44-2.77-15-5.18-22.52-7.67-3.77-1.25-7.53-2.51-11.27-3.84-3.51-1.25-7.32-2.35-10.6-4.13-1.24-.67-2.6-1.64-2.72-3.17-.15-1.86,1.53-3.31,2.81-4.39,2.71-2.29,5.45-4.52,8.12-6.84,5.42-4.73,10.67-9.64,15.67-14.82a160.59,160.59,0,0,0,26.23-35.14,120.54,120.54,0,0,0,8.77-20.6c2.5-7.92,3.94-16.44,2-24.65-1.74-7.39-5.93-13.86-10.3-20-4.25-5.91-8.6-11.77-13.29-17.34-8.61-10.23-19-20.37-32.19-24.23a38.51,38.51,0,0,0-9.47-1.51c-1.93-.07-1.93,2.93,0,3Z"/><path class="cls-1" d="M617.23,588.43c16.41,16,41.53,18.49,62.23,10.07a71.09,71.09,0,0,0,17.66-10.41c1.51-1.21-.62-3.32-2.12-2.12-16.87,13.48-41,18.89-61.29,10a48.34,48.34,0,0,1-14.35-9.66c-1.39-1.34-3.51.78-2.13,2.13Z"/><path class="cls-1" d="M669.88,580.59a3.32,3.32,0,0,1-2.64-.05,1.39,1.39,0,0,1-.7-.62c.05.12,0-.22,0-.1a1.71,1.71,0,0,1,.1-.39,4.14,4.14,0,0,1,2.35-1.85,7.61,7.61,0,0,1,3.75-.39,8.12,8.12,0,0,1,5.71,3.7,15.66,15.66,0,0,1,1.74,3.47c.1.28.19.56.27.85s0,0,.06-.07a4,4,0,0,1-1.77.36,11.32,11.32,0,0,1-7.53-2.59,1.55,1.55,0,0,0-2.12,0,1.51,1.51,0,0,0,0,2.12,14.34,14.34,0,0,0,9.94,3.45c1.9-.17,4.4-.78,4.42-3.15,0-1.71-1.05-3.64-1.88-5.08a11.44,11.44,0,0,0-8.32-6c-3.43-.49-8.06.62-9.45,4.2a3.67,3.67,0,0,0,1.56,4.46,6.1,6.1,0,0,0,5.31.56,1.53,1.53,0,0,0,1-1.84,1.5,1.5,0,0,0-1.84-1Z"/><path class="cls-1" d="M668.07,475.93c1.1-5.92-2.5-13.24-9-14a6.08,6.08,0,0,0-4.51,1.24,5.66,5.66,0,0,0-1.89,4.7,15.25,15.25,0,0,0,1.5,5.23c.69,1.56,1.55,3.22,3.21,3.92,1.89.79,4.36-.11,4.67-2.31.25-1.81-1.3-4.28-3.4-3.49a1.55,1.55,0,0,0-1,1.85,1.51,1.51,0,0,0,1.84,1c.3-.11-.14,0-.23,0A.94.94,0,0,1,659,474c.33.21,0,0,0,0l.07.11c-.05-.15-.05-.14,0,0s.06.31,0,0a1.31,1.31,0,0,1,0,.28c0-.38-.13.24,0-.1.07-.17-.19.16,0,0-.19.16-.13.08,0,0-.29.19.07,0-.11,0s-.38,0-.13,0l-.3-.08c.2.08-.09-.05-.14-.09-.23-.17.26.26-.16-.13a2.64,2.64,0,0,1-.47-.55,14.81,14.81,0,0,1-1.54-3.36,6.92,6.92,0,0,1-.48-3.24,2.6,2.6,0,0,1,.5-1.15l.23-.24c.36-.33-.09.05.14-.11a3.79,3.79,0,0,1,.34-.2c.39-.21-.19,0,.23-.1a3.87,3.87,0,0,1,2.58,0,6.83,6.83,0,0,1,2.22,1.21,8.54,8.54,0,0,1,1.93,2.3,9.65,9.65,0,0,1,1.27,6.51,1.54,1.54,0,0,0,1.05,1.84,1.51,1.51,0,0,0,1.84-1.05Z"/><path class="cls-1" d="M626.64,476.2a5.8,5.8,0,0,0-4.87-5.83,6.4,6.4,0,0,0-4.08.56,6.31,6.31,0,0,0-2.87,3.58,10.79,10.79,0,0,0,1.59,9.5c1,1.41,2.52,3.07,4.42,3a3.86,3.86,0,0,0,3.31-3,7.43,7.43,0,0,0-.47-5.44c-.76-1.7-2-3.34-2.15-5.16a1.54,1.54,0,0,0-1.5-1.5,1.51,1.51,0,0,0-1.5,1.5,11.14,11.14,0,0,0,1.51,4.64c.33.62.68,1.23,1,1.86a5.75,5.75,0,0,1,.31.78c0,.14.07.28.1.42s0,.19,0,0a2.64,2.64,0,0,1,0,.29,6.12,6.12,0,0,1,0,.74s-.06.51,0,.19a3,3,0,0,1-.09.43c0,.14-.07.28-.11.41s-.19.45,0,.15a2.21,2.21,0,0,1-.18.34c0,.08-.28.33,0,.1l-.25.24c.31-.26,0,0-.07,0l.16-.07-.21.05.17,0c-.17,0-.15,0,0,0a2.92,2.92,0,0,1-1.33-1,8.28,8.28,0,0,1-2.09-6.52c0,.27,0-.25,0-.24,0-.15.07-.31.11-.46a7.17,7.17,0,0,1,.23-.68,6,6,0,0,1,.39-.7s.32-.44.1-.17a4,4,0,0,1,.35-.37s.36-.28.08-.08a3.13,3.13,0,0,1,.3-.2c.1-.06.63-.28.29-.16.23-.08.47-.13.69-.2s-.29,0,.08,0l.48,0h.24l.24,0c-.19,0-.21,0,0,0a5.8,5.8,0,0,1,.82.21c.07,0,.41.19.09,0l.32.16.31.19.2.13c-.15-.11-.16-.12,0,0l.26.24c.06,0,.37.45.16.15a6.18,6.18,0,0,1,.37.61c.18.32-.06-.27,0,.09,0,.16.09.32.13.48.09.38,0-.29,0,.11,0,.18,0,.36,0,.54a1.5,1.5,0,0,0,3,0Z"/><path class="cls-1" d="M649.77,607.9c1.71,7.23,3.4,14.47,5.13,21.7a6.56,6.56,0,0,0,1.67,3.49c1.17,1.07,2.67,1,4.13.81a56.92,56.92,0,0,0,10.39-2.47,1.52,1.52,0,0,0,.89-2.2,52.69,52.69,0,0,1-5.49-22.38c0-1.93-3-1.94-3,0a56.1,56.1,0,0,0,5.9,23.9l.9-2.21a58.23,58.23,0,0,1-9,2.26c-1.13.18-2.56.7-3.1-.59a26.92,26.92,0,0,1-1.06-4.27l-4.46-18.84c-.44-1.88-3.33-1.08-2.89.8Z"/><path class="cls-1" d="M675.53,628.7a10.67,10.67,0,0,0,7.83-1.75,6.1,6.1,0,0,0,2.67-7.14c-2.06-7.46-4.55-14.82-6.83-22.22-.56-1.84-3.46-1.05-2.89.8L682,617c.68,2.2,2.38,5.19.27,7a7.59,7.59,0,0,1-6,1.79c-1.89-.34-2.7,2.55-.8,2.9Z"/><path class="cls-1" d="M440.42,562.69c-22.22,5.78-41.17,20.91-53.8,39.84-14.1,21.13-19.94,47-18,72.24a118,118,0,0,0,9.07,37.49c4.93,11.51,11.91,22.89,22.36,30.15,9.08,6.29,20,9,30.28,12.5a70.9,70.9,0,0,1,14.81,6.66,41.75,41.75,0,0,1,12.29,12.26,78.14,78.14,0,0,0,5.73,7.8,28.81,28.81,0,0,0,7.21,5.84c5.53,3.2,11.84,4.72,18,6.1a271.22,271.22,0,0,0,44.76,6.15q5.58.28,11.18.35a1.51,1.51,0,0,0,1.44-1.1c2.8-14,5.12-30.53-4-42.84a22.27,22.27,0,0,0-6.65-6.14,21.83,21.83,0,0,0-9.91-2.66c-7.17-.36-14.42,1.57-21.44-.61-6.1-1.9-11.17-6.15-15.51-10.71a171.6,171.6,0,0,1-12.81-15.9c-8.4-11.28-16.52-23.33-19.72-37.24-3.61-15.72.52-31.59,5.42-46.54q.93-2.82,1.88-5.62c.62-1.84-2.28-2.62-2.89-.8-5.06,15-10.23,30.76-8.47,46.81,1.57,14.23,8.45,26.94,16.54,38.5,4,5.63,8.09,11.18,12.41,16.54,4.13,5.13,8.64,10.1,14.12,13.82a31.36,31.36,0,0,0,8.41,4.09,31.84,31.84,0,0,0,10.42,1.1c7-.26,14.68-1.76,20.92,2.36,5.22,3.44,8.24,9.61,9.69,15.52,1.87,7.7,1.13,15.84-.18,23.57-.34,2-.73,4-1.12,5.95l1.45-1.1A266.22,266.22,0,0,1,500,792.86a164.66,164.66,0,0,1-20-4.56c-6-1.88-11.42-4.83-15.45-9.75-3.87-4.74-6.68-10.21-11.17-14.46A47.63,47.63,0,0,0,440,755.44c-9.77-4.37-20.37-6.51-30.09-11A48.39,48.39,0,0,1,396,735.19,65.74,65.74,0,0,1,384.82,720a109.45,109.45,0,0,1-12-35.51c-4-24.56-.33-50.7,11.67-72.63,10.75-19.64,28.13-36.24,49.34-44,2.44-.9,4.92-1.66,7.43-2.31a1.51,1.51,0,0,0-.8-2.9Z"/><path class="cls-1" d="M638.16,932.07a273.24,273.24,0,0,0,19.76-45.76A290,290,0,0,0,669.44,837a295.65,295.65,0,0,0,2.92-50.89c-.49-16.42-2.17-33-6-49-3.65-15.11-9.45-30-19.07-42.34q-1.74-2.24-3.64-4.34c-1.3-1.43-3.41.69-2.12,2.12,10.27,11.37,16.59,25.7,20.63,40.33,4.31,15.59,6.25,31.8,7,47.93a293.44,293.44,0,0,1-1.91,50.11,289.52,289.52,0,0,1-10.38,48.8,271.21,271.21,0,0,1-18.49,45.57q-1.36,2.65-2.81,5.28c-.92,1.69,1.67,3.21,2.59,1.51Z"/><path class="cls-1" d="M701.87,483.76c15.18-8.24,33.2-1.69,46.45,7.32,13,8.84,23.33,21.38,30.65,35.24,8.23,15.59,13.13,33.61,11.45,51.32-1.64,17.3-10.54,33-22.3,45.42a106.34,106.34,0,0,1-40.73,26.69c-17.36,6.38-35.95,8.26-54.34,7.67A248.53,248.53,0,0,1,645.94,655a143.5,143.5,0,0,1-22.46-4.92c-15.05-4.71-28.77-13-38.66-25.45-10.38-13.08-16.25-29.78-17.83-46.31a96,96,0,0,1,8.83-50.69,82.06,82.06,0,0,1,6-10.36c1.09-1.6-1.51-3.1-2.59-1.52-10,14.62-15,32.44-15.63,50a96.93,96.93,0,0,0,12.26,50.86,77.06,77.06,0,0,0,36,32.26c15,6.63,31.38,9.18,47.61,10.63,19.74,1.75,39.92,1.35,59.16-3.88a112.26,112.26,0,0,0,43.8-23c13.18-11.35,24.17-26.24,28.84-43.15,5-17.93,2-37.32-4.87-54.33-6.28-15.42-15.91-29.71-28.59-40.59-12.15-10.42-28.61-19.37-45.12-17.34a34.63,34.63,0,0,0-12.33,3.92c-1.7.93-.18,3.52,1.52,2.59Z"/><path class="cls-1" d="M675.27,467.68a118.77,118.77,0,0,0-4.78-20.4c-2.15-6-5.23-12.06-10.18-16.28-5.94-5.05-13.56-6.39-21.16-5.95-3.71.21-7.74.41-10,3.79-2.15,3.2-2.5,7.72-2.55,11.46-.14,10,3.51,19.51,7.14,28.62l2.74-1.16c-6.62-12.08-18.55-21.61-32.41-23.57-3.66-.52-7.59-.82-10.5,1.9-2.66,2.49-4.13,6.42-5.08,9.85a39.57,39.57,0,0,0,.83,22.88,49.52,49.52,0,0,0,13.81,20.65,1.53,1.53,0,0,0,2.12,0c7.57-8,18.86-8,29-8A78,78,0,0,0,652,489.5c2.73-.63,5.45-1.33,8.21-1.82a36.9,36.9,0,0,1,4.19-.53,41.78,41.78,0,0,0,4.34-.11c2.3-.4,4.19-3.75,1.76-5.35-2.13-1.41-4.5,1.82-2.75,3.57a1.5,1.5,0,0,0,2.12-2.12c.19.18-1.49.95-1.91,1s-1,0-1.48,0a35,35,0,0,0-3.69.2,65.34,65.34,0,0,0-6.8,1.19c-4.7,1.06-9.35,2.35-14.17,2.72-9,.7-18.29-.54-27.08,2.17a26.87,26.87,0,0,0-11.61,7h2.12c-10.21-9.28-16.89-22.93-14.66-36.95a28.71,28.71,0,0,1,3.25-9.71,7.3,7.3,0,0,1,3.48-3.5,11.44,11.44,0,0,1,5.11-.19,38.25,38.25,0,0,1,17,6.31,45.1,45.1,0,0,1,14.49,16c.8,1.45,3.38.45,2.74-1.16-3-7.46-6-15.17-6.83-23.24a31.94,31.94,0,0,1,.7-11.69,6.48,6.48,0,0,1,2.59-4.09c1.41-.81,3.23-.84,4.81-1,7-.54,14.3.12,19.92,4.68,4.59,3.73,7.52,9.11,9.54,14.59,2.5,6.79,3.85,14,5,21.08.32,1.9,3.21,1.09,2.9-.8Z"/><path class="cls-1" d="M611.59,411.39a79.28,79.28,0,0,0-30.09-1.88c-4.41.59-8.89,1.29-11.32,5.45a29.57,29.57,0,0,0-2.37,6.17q-1.14,3.69-2.2,7.41-2.4,8.49-4.37,17.11c-.43,1.88,2.46,2.68,2.89.8a249.53,249.53,0,0,1,7.5-27.41c.65-1.85,1.54-3.78,3.28-4.84s4-1.31,6.05-1.61a75.37,75.37,0,0,1,13.92-.69,76.36,76.36,0,0,1,15.91,2.38c1.87.48,2.67-2.41.8-2.89Z"/><path class="cls-1" d="M656.52,396.54a79.06,79.06,0,0,0-30.09-1.87c-4.4.58-8.88,1.28-11.31,5.45a28.74,28.74,0,0,0-2.37,6.16c-.76,2.46-1.5,4.93-2.2,7.41q-2.41,8.49-4.38,17.11c-.43,1.88,2.47,2.68,2.9.8a249.53,249.53,0,0,1,7.5-27.41c.65-1.85,1.53-3.78,3.28-4.83s4-1.32,6-1.62a75.37,75.37,0,0,1,13.92-.69,76.46,76.46,0,0,1,15.91,2.38,1.5,1.5,0,0,0,.79-2.89Z"/><path class="cls-1" d="M530,353a309.38,309.38,0,0,0,13.67-46.18,314.69,314.69,0,0,0,6.38-47.74,269.83,269.83,0,0,0-1.15-47.64,139.14,139.14,0,0,0-4.52-22.6,102.22,102.22,0,0,0-3.86-10.77,42.93,42.93,0,0,0-5.18-9.77c-4.86-6.21-12.87-5-19.77-3.92a122.32,122.32,0,0,0-23,6,194.5,194.5,0,0,0-38.55,19,171.19,171.19,0,0,0-31.83,25.9,139.42,139.42,0,0,0-24,33.65,126.8,126.8,0,0,0-12.44,40.76,108.88,108.88,0,0,0,2.69,42.18,94.4,94.4,0,0,0,3.25,9.84,1.53,1.53,0,0,0,2.21.9q31.94-19.25,61.88-41.58,8.37-6.26,16.56-12.73l-2.56-1.06L473.13,349l1.65,30.86c.42,7.93.77,15.92,2.58,23.67,1.87,8,5.49,15.64,12.18,20.71,1.54,1.16,3-1.44,1.52-2.59-5.67-4.29-8.77-10.91-10.5-17.64-1.89-7.39-2.29-15-2.7-22.6l-3.22-60.19-1.82-33.95a1.52,1.52,0,0,0-2.56-1.06q-29,22.86-60.05,42.79-8.82,5.64-17.79,11l2.21.9c-10.19-26.09-8.26-55.58,2.06-81.32,10.06-25.06,28.49-46.09,50.25-61.77A194.46,194.46,0,0,1,481.83,178a154.49,154.49,0,0,1,22-8A112,112,0,0,1,515,167.53a48.78,48.78,0,0,1,10.84-1,10,10,0,0,1,8.34,5.31,62.64,62.64,0,0,1,4.6,9.77,115.27,115.27,0,0,1,6,21.74c2.68,15.16,3.13,30.77,2.75,46.13A309.1,309.1,0,0,1,531,341.42q-1.85,5.44-3.91,10.81c-.69,1.81,2.2,2.59,2.89.8Z"/><path class="cls-1" d="M573.83,331.51A320.08,320.08,0,0,1,568.27,286a333.68,333.68,0,0,1,8-91,319.23,319.23,0,0,1,13.2-43.43q4-10.47,8.82-20.62c1.57-3.31,3.12-6.68,5-9.87,1.72-3,4-5.66,7.83-5.25,3.63.39,7,2.57,10.19,4.2q4.54,2.31,9.06,4.65c6,3.12,12,6.29,17.92,9.57A356.14,356.14,0,0,1,683,155.84a206,206,0,0,1,30.82,26.74,159.78,159.78,0,0,1,24.9,35.14c7.4,14.18,12.83,29.28,17.63,44.51,1.2,3.8,2.35,7.62,3.49,11.44l.69-1.7c-12.92,8.48-29,7.33-43.39,3.79a142.39,142.39,0,0,1-42-18.07,153.22,153.22,0,0,1-21-16.06c-1-.93-3,0-2.5,1.46a219,219,0,0,1,13.22,72.5q.13,10.46-.73,20.91c-.16,1.92,2.84,1.91,3,0a223.9,223.9,0,0,0-6.32-74.05q-2.64-10.23-6.28-20.16l-2.51,1.46a153.37,153.37,0,0,0,40,26.45,143,143,0,0,0,22.14,7.89,89.52,89.52,0,0,0,23,3.37c8.76,0,17.48-2.06,24.86-6.9a1.53,1.53,0,0,0,.69-1.69c-4.67-15.7-9.7-31.34-16.41-46.31a167.7,167.7,0,0,0-23.89-38.73,190.92,190.92,0,0,0-30.29-28.9,311,311,0,0,0-34.8-23.05c-12-7-24.41-13.34-36.8-19.65-3.25-1.66-6.76-3.59-10.52-3.53s-6.48,2.33-8.47,5.29a77.89,77.89,0,0,0-5.14,9.84q-2.49,5.17-4.77,10.44a316.69,316.69,0,0,0-15.2,43.48,338.14,338.14,0,0,0-11.52,92.66,328.9,328.9,0,0,0,4,46.57c.6,3.78,1.28,7.56,2,11.33.37,1.89,3.27,1.09,2.9-.8Z"/><path class="cls-1" d="M687.67,669.21l74.64,9.28,18.6,2.32c2.56.31,5.46.38,7.83,1.52a8.43,8.43,0,0,1,4,5.08c.8,2.28,1.24,4.67,1.86,7a37.31,37.31,0,0,0,2.47,6.64,34.46,34.46,0,0,0,8.47,11.13,32.33,32.33,0,0,0,11.92,6.38c4.65,1.44,9.71,3,11.52,8a6.44,6.44,0,0,1-.63,6.16c-1.25,1.62-3.32,2.3-5.24,2.69a73.35,73.35,0,0,1-7.68.87l-9.35.89c-12.17,1.17-24.35,2.59-36.54,3.44-5.87.4-11.86.44-17.59-1.08-5.2-1.38-9.84-4.11-14.26-7.11s-8.92-6.48-13.64-9.36a87.79,87.79,0,0,0-14.38-7,83.76,83.76,0,0,0-31.52-5.53c-2.62.05-5.23.24-7.84.54-1.89.22-1.91,3.23,0,3A81,81,0,0,1,703.2,717a83,83,0,0,1,15.38,6.39,133.75,133.75,0,0,1,14,9.16c4.54,3.22,9.16,6.37,14.33,8.48a44.43,44.43,0,0,0,17.47,2.83c6.11-.1,12.21-.85,18.28-1.43l19-1.81c6.34-.61,12.69-1.17,19-1.83,4.26-.44,9.07-1.56,11-5.86s0-9.47-3.33-12.54c-3.94-3.63-9.46-4-14.17-6.16-8.85-4-14.71-12.48-17-21.71-1.1-4.49-2-9.78-6.3-12.4-2.26-1.4-5-1.68-7.54-2L774,676.94l-76.87-9.56-9.42-1.17c-1.91-.24-1.9,2.76,0,3Z"/><path class="cls-1" d="M548.7,489.89C534.22,478.17,525.41,460.6,522,442.5a89.3,89.3,0,0,1-.81-28.58A80,80,0,0,1,524.35,400c1.61-4.93,3.72-10,7.26-13.88,3.77-4.14,8.88-5.74,14.3-6.41,6.24-.77,12.53-1.24,18.79-1.8,12.68-1.13,25.46-2.27,38.2-2.1,12,.17,23.9,1.86,34.94,6.64a106.29,106.29,0,0,1,26.9,17.45,229.21,229.21,0,0,1,23.37,23.89c6.9,8,14,16.58,16.79,27a33.18,33.18,0,0,1,1.1,7.93c0,1.93,3,1.94,3,0-.19-11.43-6.11-21.4-13-30.13a241.54,241.54,0,0,0-23.24-25.46c-8.13-7.72-17-14.81-26.93-20.13a86.19,86.19,0,0,0-34-9.78c-13-1.06-26.05,0-39,1-6.74.55-13.48,1.18-20.22,1.82-5.75.55-11.76.82-17,3.38-9.64,4.65-13.64,16.54-15.91,26.23a89.29,89.29,0,0,0-1.75,29.69c2,19.2,9.81,38.41,23.63,52.16a67.43,67.43,0,0,0,5,4.52c1.49,1.21,3.63-.9,2.12-2.12Z"/><text class="cls-2" transform="translate(136.3 134.51)">Ask th<tspan class="cls-3" x="181.32" y="0">a</tspan><tspan x="214.32" y="0">t </tspan><tspan class="cls-4" x="252.84" y="0">tow</tspan><tspan class="cls-5" x="358.5" y="0">el.</tspan></text><text class="cls-2" transform="translate(1148.08 328.19)"><tspan class="cls-6">T</tspan><tspan x="36.18" y="0">h</tspan><tspan class="cls-7" x="72.72" y="0">a</tspan><tspan class="cls-8" x="105.72" y="0">t</tspan><tspan class="cls-9" x="128.64" y="0">’</tspan><tspan x="141.96" y="0">s an </tspan><tspan class="cls-10" x="272.22" y="0">o</tspan><tspan x="308.28" y="0">wl!</tspan></text><path class="cls-1" d="M1350.64,770.87c-5.83,3.43-12.58,4.79-19.19,5.77-6.87,1-13.82,1.57-20.59,3.14a46.74,46.74,0,0,0-10.66,3.75c-1.72.88-.21,3.46,1.51,2.59,12.35-6.25,27-5,40.1-8.47a41,41,0,0,0,10.34-4.19,1.5,1.5,0,0,0-1.51-2.59Z"/><path class="cls-1" d="M1350.19,768c-18.83-6.25-37.63-12.6-56.26-19.44q-8-2.94-16-6L1279,744c-.75-10.43-6.22-20.31-12.84-28.18a1.51,1.51,0,0,0-2.5.66c-.63,2-.51,6.38,2.69,6a2.25,2.25,0,0,0,1.91-2.32c0-1.65-1.12-3.11-2.1-4.33-.75-.94-2.18-.3-2.5.66-1.9,5.74-3.91,11.45-5.7,17.23-.86,2.77-1.52,7.34-4.63,8.53-2.92,1.12-6.23-.75-8.36-2.62-2.78-2.45-5-5.49-7.29-8.35s-5.06-6.1-8.61-7.74c-.91-.42-2.4,0-2.26,1.29a192.55,192.55,0,0,1,.89,33.61c-.12,1.93,2.89,1.92,3,0a192.55,192.55,0,0,0-.89-33.61l-2.25,1.3c3.32,1.54,5.74,4.48,8,7.27,2.46,3,4.77,6.29,7.81,8.79,2.79,2.29,6.38,3.95,10.07,3.15,4.15-.91,5.75-5.22,6.83-8.84,1.91-6.46,4.16-12.82,6.28-19.21l-2.51.66a7.36,7.36,0,0,1,1.19,2c0,.12.08.14,0,.17.38-.25.34-.6.91-.62.07,0,.3.13.32.12s0,0,0,0a1.13,1.13,0,0,1-.16-.36,3.72,3.72,0,0,1,.24-2l-2.51.66c6.07,7.22,11.27,16.48,12,26.06a1.58,1.58,0,0,0,1.1,1.45c18.49,7.09,37.18,13.66,56,20q8.16,2.74,16.33,5.45c1.83.61,2.62-2.28.79-2.89Z"/><path class="cls-1" d="M1307.4,819.49q-6.8,28.56-13.58,57.12c-2.18,9.16-4.38,18.45-4.55,27.92a72.72,72.72,0,0,0,4.56,25.89,99.69,99.69,0,0,0,6.15,13.67,11.74,11.74,0,0,0,3.81,4.73,4.59,4.59,0,0,0,5.22.26c1.55-1.12.06-3.72-1.51-2.59-1.18.86-2.67-.47-3.43-1.37a27.19,27.19,0,0,1-2.89-5.2,91.87,91.87,0,0,1-4.91-11.57,69.62,69.62,0,0,1-4-24.3c.23-9,2.35-17.89,4.44-26.65q3.18-13.42,6.38-26.86l7.19-30.25c.45-1.88-2.44-2.68-2.89-.8Z"/><path class="cls-1" d="M1344.37,771.45a3.18,3.18,0,0,0,.75-1.47,4.37,4.37,0,0,0,0-1.8,4.59,4.59,0,0,0-.6-1.38,5.22,5.22,0,0,0-1.32-1.37,1.4,1.4,0,0,0-1.33-.08,1.45,1.45,0,0,0-.87,1,9.9,9.9,0,0,0-.39,2.76,5.42,5.42,0,0,0,1.16,3.23,4.2,4.2,0,0,0,2,1.32,3.77,3.77,0,0,0,2.23.06,2.4,2.4,0,0,0,1.73-2.44,1.59,1.59,0,0,0-.44-1.06,1.5,1.5,0,0,0-2.56,1.06,1.4,1.4,0,0,1,0,.29l0-.4a1.6,1.6,0,0,1,0,.21l.15-.36a1.08,1.08,0,0,1-.11.18l.24-.3-.15.14.3-.23-.24.14.35-.15a1.51,1.51,0,0,1-.38.09l.4-.05a2.49,2.49,0,0,1-.61,0l.4.05a2.77,2.77,0,0,1-.75-.2l.36.15a3.25,3.25,0,0,1-.65-.38l.3.23a2.23,2.23,0,0,1-.46-.46l.23.31a3.84,3.84,0,0,1-.42-.77l.15.36a4.25,4.25,0,0,1-.26-1l0,.4a6.14,6.14,0,0,1,0-1.42l0,.4a10.58,10.58,0,0,1,.28-1.36l-2.2.9,0,0-.31-.23a3.08,3.08,0,0,1,.57.57l-.23-.3a3.37,3.37,0,0,1,.45.78l-.15-.36a3,3,0,0,1,.21.78l0-.4a2.74,2.74,0,0,1,0,.64l0-.4a1.69,1.69,0,0,1-.12.44l.16-.36a1.9,1.9,0,0,1-.23.39l.24-.31,0,0a1.61,1.61,0,0,0-.44,1.06,1.5,1.5,0,0,0,2.56,1.06Z"/><path class="cls-1" d="M1279.58,826.44c-8.66,2.12-17.56,4.28-25.4,8.67a33,33,0,0,0-9.85,8.15,37.38,37.38,0,0,0-5.94,11.38,98.29,98.29,0,0,0-4.61,29.24,109.16,109.16,0,0,0,3.87,30.62c3,11,7.6,22.08,6.12,33.69-.25,1.91,2.75,1.89,3,0,1.26-9.94-1.86-19.66-4.67-29.06a117.6,117.6,0,0,1-5.26-29.35,105.07,105.07,0,0,1,3.14-29.86c2.1-8.25,5.83-15.77,13.09-20.61,8.11-5.42,18-7.69,27.3-10,1.88-.46,1.08-3.35-.79-2.89Z"/><path class="cls-1" d="M1209.22,942.12a214.44,214.44,0,0,1,19.82,10.8c6,3.83,11.76,8.34,16,14.14a31.15,31.15,0,0,1,4.44,8.32,25.1,25.1,0,0,1,1.13,9.11,7.14,7.14,0,0,0,.79,4c.89,1.47,2.47,2.1,4,2.69a23.87,23.87,0,0,1,8.22,5.1,15.47,15.47,0,0,1,4.47,7.19c.77,3.39-3.56,3.7-5.93,3.78-3.85.12-7.75-.19-11.6-.31l-12.45-.43q-12.21-.43-24.41-.91c-4.11-.16-8.23-.3-12.35-.5-1.49-.08-3.28-.13-4.37-1.3s-1.71-3.38-2.33-5a124.32,124.32,0,0,1-8.28-50.73c.1-1.93-2.9-1.93-3,0a126,126,0,0,0,7.16,48.19c.68,1.94,1.42,3.86,2.19,5.76a10.53,10.53,0,0,0,2.56,4.27,8.49,8.49,0,0,0,4.87,1.7c2,.19,4.06.2,6.08.28q13.2.54,26.4,1t26.15.88c3.14.1,6.57.25,9.46-1.2,3.27-1.64,3.39-5,2.12-8.12-2.64-6.38-8.33-10.27-14.54-12.74a3,3,0,0,1-2.23-3.3,41.12,41.12,0,0,0,0-4.71,28.19,28.19,0,0,0-2.91-9.64c-6.86-13.67-21.54-21.62-34.6-28.28-1.76-.9-3.52-1.78-5.29-2.67s-3.24,1.73-1.51,2.59Z"/><path class="cls-1" d="M1301.47,950.48c-1.78,6.17-6.06,11.38-11.24,15.08a39.49,39.49,0,0,1-9.23,4.9c-3.93,1.45-8.07,2.2-12,3.78-1.76.72-1,3.62.8,2.89,4.13-1.68,8.55-2.43,12.7-4.06a41.55,41.55,0,0,0,9.81-5.36c5.55-4.14,10.08-9.71,12-16.44a1.5,1.5,0,0,0-2.89-.79Z"/><path class="cls-1" d="M1302.82,932.32l18.81,10.19c3,1.61,6,3.2,8.93,4.84a37.15,37.15,0,0,1,7.45,5c4.21,3.9,5.44,9.27,5,14.83a62,62,0,0,1-3.45,14.95c-1.84,5.35-4.84,10-10.13,12.44a1.52,1.52,0,0,0-.69,1.7c1,3.07,4.7,2.57,7.15,3.55,2.12.85-.66,2.12-1.73,2.36a41,41,0,0,1-7.59.5,145.55,145.55,0,0,1-30-2.34,142.47,142.47,0,0,1-16.41-4.07c-1.84-.58-2.63,2.32-.79,2.89a146,146,0,0,0,32.16,6.13,148.43,148.43,0,0,0,16.74.34c2.53-.09,5.34,0,7.76-.84,2-.69,3.91-2.28,3.75-4.56s-2.23-3.16-4.07-3.6c-.73-.18-3.76-.34-4-1.16l-.69,1.69c5.07-2.32,8.43-6.66,10.54-11.71a64.85,64.85,0,0,0,4.24-15.78c.79-5.64.42-11.63-3-16.43-3.83-5.4-10.24-8.26-15.89-11.33l-22.54-12.2c-1.7-.92-3.21,1.67-1.51,2.59Z"/><path class="cls-1" d="M1189.21,924.79a112,112,0,0,1,5.08-26.89c.59-1.84-2.31-2.63-2.89-.79a115.35,115.35,0,0,0-5.19,27.68c-.12,1.93,2.88,1.92,3,0Z"/><path class="cls-1" d="M1310.59,773.59c-7.11.32-14.63.84-20.4,5.48a1.52,1.52,0,0,0,0,2.12,1.55,1.55,0,0,0,2.13,0c5-4.06,12.09-4.32,18.27-4.6,1.93-.09,1.94-3.09,0-3Z"/><path class="cls-1" d="M1167.36,930.08a944.36,944.36,0,0,0-74-90q-11.41-12.23-23.25-24l-1.46,2.51,19.09,2.66a1.52,1.52,0,0,0,1.69-2.2l-59.2-114.69-16.91-32.76-1.7,2.2,72.61,12.84a1.52,1.52,0,0,0,1.84-1.84q-16.1-74.47-38.13-147.49-6.21-20.61-12.91-41.07l-1.85,1.85c41.36,12.38,79.3,33.28,116.87,54.1a1.51,1.51,0,0,0,2.26-1.29l-.5-66.44-.25-33.48c-.07-9.71-.39-19.48.39-29.17.86-10.69,3.39-21.24,9.65-30.11H1159l19.21,26.07c2.41,3.27,4.76,7.53,8.39,9.62s7.68.91,11.28-.58c19.59-8.13,39-16.64,58.55-25l33.87-14.44-2.06-2a887.94,887.94,0,0,0-49.92,95.16q-6.16,13.68-11.84,27.58a1.51,1.51,0,0,0,1.45,1.9l45.52-1.41-1.29-2.25q-25.41,48.46-53.83,95.27-8,13.21-16.3,26.3a1.52,1.52,0,0,0,1.7,2.2l19.41-4.61-1.85-1a205.37,205.37,0,0,1-14.13,116.34c-.77,1.76,1.82,3.29,2.59,1.52a209.13,209.13,0,0,0,14.44-118.66,1.52,1.52,0,0,0-1.85-1l-19.41,4.61,1.69,2.2q29.25-46.29,55.56-94.35,7.41-13.54,14.57-27.22a1.52,1.52,0,0,0-1.3-2.26L1227.92,507l1.44,1.9A883.34,883.34,0,0,1,1275.61,413q7.4-13.2,15.22-26.15c.85-1.41-.78-2.59-2.06-2.05L1234,408.17l-27.39,11.67c-4.37,1.86-8.92,4.45-13.57,5.46-5.8,1.27-8.69-4.22-11.61-8.19l-19.85-26.94a1.53,1.53,0,0,0-2.59,0c-11,15.62-10.63,35.49-10.5,53.78L1149,512l.29,38.89,2.26-1.3c-29.34-16.26-58.81-32.54-90.07-44.86q-13.56-5.34-27.52-9.54a1.51,1.51,0,0,0-1.84,1.84q23.67,72.45,41.49,146.65,5,20.9,9.55,41.9l1.84-1.84-72.6-12.84a1.52,1.52,0,0,0-1.7,2.2l59.21,114.69,16.91,32.76,1.7-2.2-19.09-2.67c-1.38-.19-2.62,1.35-1.46,2.51a943.65,943.65,0,0,1,76.73,86.7q10.29,13.17,20.07,26.71c1.12,1.54,3.73,0,2.59-1.52Z"/><path class="cls-1" d="M1317.33,790q17.48,6.07,35.43,10.57,9.06,2.27,18.21,4.12,4.59.95,9.2,1.77c2.83.51,5.91.71,8.64,1.61,2.2.73,2.55,2.52,2.86,4.59s.81,4.16,2.55,5.54a10.12,10.12,0,0,0,3,1.51c1,.34,2.37.64,3,1.54,1,1.52-.94,3.34-2.13,4-2.34,1.3-5.43.9-7.93.35-2.94-.65-5.8-1.68-8.68-2.54q-8.81-2.64-17.75-4.78a342.3,342.3,0,0,0-41-7.16c-1.91-.21-1.89,2.79,0,3a333.23,333.23,0,0,1,38.57,6.67q9.53,2.24,18.91,5c5.48,1.63,12.2,4.74,18,2.65,3.7-1.34,7.59-6.39,3.72-9.78a9.55,9.55,0,0,0-3.13-1.63c-1.17-.42-2.54-.74-3.29-1.82-1.15-1.66-.83-4.06-1.48-5.92a6.77,6.77,0,0,0-5.16-4.36c-3-.75-6.23-1.09-9.31-1.66q-9.67-1.78-19.25-4a414.46,414.46,0,0,1-42.17-12.19c-1.83-.64-2.61,2.26-.8,2.89Z"/><path class="cls-1" d="M1268.44,752.88a5.9,5.9,0,0,0-2.92-4,7.06,7.06,0,0,0-5-.75c-3,.65-8.32,4.52-5.64,8a1.51,1.51,0,0,0,2.12,0,1.55,1.55,0,0,0,0-2.12s.1.19.13.22v-.15c0,.11,0,.12,0,0s0-.11,0,0l.08-.16a3.91,3.91,0,0,1,.26-.44,9,9,0,0,1,1.16-1.13,6.11,6.11,0,0,1,3-1.35c-.17,0,.16,0,.21,0s.29,0,.44,0a3.55,3.55,0,0,1,.46,0c-.21,0,.06,0,.14,0l.37.1s.44.15.23.06a4.58,4.58,0,0,1,.69.37,4.21,4.21,0,0,1,.9.82c.07.11.14.21.2.32s.16.31.08.12a3.8,3.8,0,0,1,.23.88,1.51,1.51,0,0,0,1.84,1.05,1.53,1.53,0,0,0,1-1.85Z"/><path class="cls-1" d="M1277.61,753.77c.08.22.11.28.08.17l0-.11s0,.41,0,.19c0,.38,0,.29,0,.13s-.15.26,0,.13a.54.54,0,0,0,.1-.16c0,.08-.25.27-.06.09a.93.93,0,0,1,.14-.14c.1-.09.28-.17,0,0,.25-.15.49-.31.75-.44s-.25.09-.07,0l.2-.07a5.6,5.6,0,0,1,.54-.17l.57-.15.29-.06c.35-.07-.21,0,0,0h.63s-.35-.07,0,0l.21.07c-.11,0-.28-.14-.07,0,0,0,.15.12.19.12-.17-.14-.21-.17-.13-.09l.07.06c.17.17,0,0,0-.07a1.59,1.59,0,0,0,.13.22c-.06,0-.11-.34,0-.08l0,.08,0-.19v.09c0,.16,0,.11,0-.14a1.5,1.5,0,0,0,2.9.8,3.16,3.16,0,0,0-1.56-3.37,4.88,4.88,0,0,0-3.84-.22,6.83,6.83,0,0,0-2.79,1.41,3.15,3.15,0,0,0-.92,1.4,2.72,2.72,0,0,0,.2,2,1.52,1.52,0,0,0,.9.69,1.5,1.5,0,0,0,1.85-1.05,1.76,1.76,0,0,0-.15-1.15Z"/><path class="cls-1" d="M1285.15,758.28a1.5,1.5,0,0,0,0-3,1.5,1.5,0,0,0,0,3Z"/><path class="cls-1" d="M1267.86,760.05a1.5,1.5,0,0,0,0-3,1.5,1.5,0,0,0,0,3Z"/><path class="cls-1" d="M1219,774.88c-6.59-13.28-13.18-26.57-19.23-40.11q-4.47-10-8.47-20.15c-2.37-6-4.7-12-7.41-17.91a87.3,87.3,0,0,0-11.54-18.91,1.51,1.51,0,0,0-2.35.3c-4.27,6.25-8.59,12.78-10.54,20.17a27.72,27.72,0,0,0-.71,11.1,43.24,43.24,0,0,0,3.57,11.12c6.48,14.8,14.33,29,21.07,43.62a205.23,205.23,0,0,1,9.86,25.31c.56,1.84,3.46,1.05,2.89-.8-4.61-15-11.51-29.25-18.52-43.3-3.51-7-7.05-14-10.36-21.15-3.22-6.94-6.72-14.15-5.55-22,1.24-8.36,6.21-15.68,10.88-22.52l-2.36.3c8.35,10.16,13.1,22.6,17.86,34.7,5.29,13.44,11.19,26.61,17.45,39.63,3.56,7.41,7.21,14.78,10.86,22.15.86,1.73,3.45.21,2.6-1.52Z"/></svg>