<svg id="Layer_1" data-name="Layer 1" xmlns="http://www.w3.org/2000/svg" viewBox="0 0 1920 1080"><defs><style>.cls-1{font-size:60px;font-family:VarelaRound-Regular, Varela Round;}.cls-2{letter-spacing:-0.01em;}.cls-3{fill:#4d4d4d;}.cls-4{letter-spacing:-0.02em;}.cls-5{letter-spacing:0em;}.cls-6{letter-spacing:-0.01em;}.cls-7{letter-spacing:0em;}</style></defs><title>42-teeth</title><text class="cls-1" transform="translate(99.3 134.51)">Owl, did <tspan class="cls-2" x="248.64" y="0">y</tspan><tspan x="280.44" y="0">ou hear something?</tspan></text><path class="cls-3" d="M643.22,663.17c-8.75,10.49-22.65,14.63-33.77,21.93a48.78,48.78,0,0,0-8.77,7.18c-1.32,1.4.8,3.53,2.12,2.12,9.38-10,23.19-13.91,34.19-21.64a42.7,42.7,0,0,0,8.35-7.47c1.23-1.48-.89-3.61-2.12-2.12Z"/><path class="cls-3" d="M642,660.79c-19.2.7-38.41,1.29-57.63,1.38q-8.21,0-16.4,0l1.44,1.1c-3.78-9.32-11.7-16.7-20.21-21.76a1.52,1.52,0,0,0-2.26,1.3c0,2.08,1.49,6.29,4.42,4.76a2.28,2.28,0,0,0,1-2.67c-.42-1.53-1.93-2.6-3.2-3.39a1.51,1.51,0,0,0-2.26,1.3q0,8.38-.07,16.79c0,3.08.76,7-.88,9.74s-5.72,2.65-8.43,1.76c-3.46-1.14-6.52-3.36-9.59-5.28-3.36-2.09-6.92-4.15-10.94-4.48-1.25-.1-1.72,1.32-1.3,2.26A183.53,183.53,0,0,1,526.48,694c.48,1.86,3.38,1.07,2.9-.8A189.69,189.69,0,0,0,518.32,662L517,664.29c3.65.3,7,2.53,10,4.43,3.27,2,6.56,4.32,10.31,5.39,3.38,1,7.7.72,10.25-2s2.43-6.88,2.32-10.41c-.19-6.3,0-12.64,0-19l-2.26,1.29a8,8,0,0,1,1.73,1.44c.26.28,0,.14.09.08s.28-.59.61-.76.38,0,.4,0-.14-.14-.13-.11a4.67,4.67,0,0,1-.44-2l-2.26,1.29c7.78,4.62,15.37,11.42,18.84,20a1.57,1.57,0,0,0,1.45,1.1c19.17.2,38.34-.16,57.51-.76,5.51-.17,11-.37,16.52-.57,1.93-.07,1.94-3.07,0-3Z"/><path class="cls-3" d="M606.32,708.55q-6.42,28.31-12.85,56.63c-2.1,9.26-4.26,18.61-4.46,28.14a75.83,75.83,0,0,0,4.22,25.77,102.08,102.08,0,0,0,5.9,13.83,12.33,12.33,0,0,0,3.61,4.85c1.53,1.08,3.62,1.58,5.22.37s0-3.75-1.51-2.59c-1.17.88-2.66-.62-3.33-1.56a35,35,0,0,1-2.73-5.27A93.76,93.76,0,0,1,595.7,817,72.36,72.36,0,0,1,592,792.59c.29-9,2.34-17.85,4.33-26.61s4-17.75,6-26.62l6.82-30c.42-1.88-2.47-2.68-2.9-.79Z"/><path class="cls-3" d="M637.76,665.77a3.51,3.51,0,0,0-.42-3,4.6,4.6,0,0,0-2.57-2,1.52,1.52,0,0,0-1.9,1.45c.12,1.79.47,3.74,1.93,5a4.14,4.14,0,0,0,2.62,1,3.79,3.79,0,0,0,2.25-.62,2.69,2.69,0,0,0,1.06-1.38,2.63,2.63,0,0,0-.21-1.83,1.5,1.5,0,0,0-2-.54,1.49,1.49,0,0,0-.69.9,1.7,1.7,0,0,0,.15,1.15l0,.05-.15-.36a2.13,2.13,0,0,1,.07.27l-.06-.4a.67.67,0,0,1,0,.2l.06-.4a.86.86,0,0,1-.06.23l.15-.36a1.48,1.48,0,0,1-.13.21l.24-.3-.21.2.3-.23a2.06,2.06,0,0,1-.41.23l.36-.15a3.45,3.45,0,0,1-.65.17l.4-.06a3.31,3.31,0,0,1-.77,0l.4,0a2.52,2.52,0,0,1-.65-.18l.36.16a2.22,2.22,0,0,1-.49-.3l.3.24a4,4,0,0,1-.61-.62l.23.31a4.35,4.35,0,0,1-.48-.84l.16.36a6.2,6.2,0,0,1-.4-1.52l.06.4c-.05-.33-.08-.66-.1-1l-1.9,1.45.33.11-.36-.15a3.4,3.4,0,0,1,.63.38l-.3-.24a4.08,4.08,0,0,1,.55.55l-.23-.3a2.61,2.61,0,0,1,.37.65l-.15-.36a2.19,2.19,0,0,1,.16.57l-.06-.4a1.7,1.7,0,0,1,0,.45l.06-.4a2.66,2.66,0,0,1-.1.38,1.49,1.49,0,0,0,.15,1.15,1.52,1.52,0,0,0,.9.69,1.49,1.49,0,0,0,1.15-.15,1.65,1.65,0,0,0,.69-.89Z"/><path class="cls-3" d="M579.8,715.49c-8.43,2.17-17.15,4.39-24.67,8.92a32.26,32.26,0,0,0-9.4,8.43,37.82,37.82,0,0,0-5.5,11.51A104.86,104.86,0,0,0,536,773.87,114.82,114.82,0,0,0,539.84,804c2.86,10.86,7.11,21.81,5.72,33.23-.23,1.92,2.77,1.9,3,0,1.19-9.75-1.67-19.32-4.32-28.6a124.69,124.69,0,0,1-5.13-29,110.31,110.31,0,0,1,2.79-29.87c1.91-8.15,5.19-16,12.18-21,7.75-5.61,17.4-8,26.52-10.31,1.87-.48,1.08-3.38-.8-2.9Z"/><path class="cls-3" d="M512.61,831.18c12.24,6.42,25.83,13.1,34,24.72a32.52,32.52,0,0,1,4.35,8.42,25.61,25.61,0,0,1,1.11,9.12,7.49,7.49,0,0,0,.73,4c.86,1.49,2.37,2.13,3.9,2.74a22.9,22.9,0,0,1,7.69,5,15.64,15.64,0,0,1,4.38,7.32c.71,3.28-3.15,3.69-5.53,3.77-3.67.14-7.38-.18-11-.3-4.15-.15-8.29-.29-12.43-.45q-11.93-.43-23.84-.93c-3.89-.16-7.81-.18-11.68-.52-1.69-.15-3-.59-3.85-2.16a38.06,38.06,0,0,1-1.94-4.94,129.34,129.34,0,0,1-7.58-49.85c.09-1.93-2.91-1.92-3,0a131.31,131.31,0,0,0,6.46,47.09q1,2.91,2,5.77a16.5,16.5,0,0,0,2.25,4.69c2.37,2.9,6.73,2.47,10.09,2.61q12.8.56,25.59,1t25.59.91c3,.1,6.42.26,9.17-1.23,3.14-1.71,3.2-5.1,2-8.11-2.47-6.14-7.75-10.22-13.74-12.65a3.61,3.61,0,0,1-1.93-1.3,4.19,4.19,0,0,1-.33-2.16A37.36,37.36,0,0,0,555,869a29.1,29.1,0,0,0-2.75-9.39c-6.42-13.43-20.33-21.49-32.93-28.23q-2.58-1.38-5.19-2.74c-1.7-.89-3.22,1.69-1.51,2.59Z"/><path class="cls-3" d="M600.66,839.54a28.86,28.86,0,0,1-10.78,15.15,36.91,36.91,0,0,1-9,5c-3.77,1.42-7.73,2.22-11.44,3.8a1.51,1.51,0,0,0-.54,2,1.54,1.54,0,0,0,2,.54c4-1.68,8.22-2.42,12.18-4.08a39.69,39.69,0,0,0,9.21-5.37,31.7,31.7,0,0,0,11.27-16.26,1.5,1.5,0,0,0-2.9-.79Z"/><path class="cls-3" d="M602,821.38l18.16,10.3c2.86,1.62,5.74,3.22,8.58,4.87a33.63,33.63,0,0,1,7.1,5.13c3.95,4,4.93,9.4,4.48,14.81A65.36,65.36,0,0,1,637,871.28c-1.72,5.21-4.51,9.93-9.62,12.37a1.52,1.52,0,0,0-.69,1.69c1,3,4.5,2.53,6.88,3.56,2,.84-.67,2.13-1.66,2.36a36.16,36.16,0,0,1-7,.49,130.42,130.42,0,0,1-44.59-6.4c-1.84-.6-2.63,2.29-.8,2.89a133.37,133.37,0,0,0,31,6.15,135.9,135.9,0,0,0,16,.31c3.48-.14,10.87-.06,10.74-5.25-.05-2.08-1.92-3.19-3.71-3.68-.86-.24-1.74-.37-2.59-.58-.36-.09-1.3-.22-1.43-.64l-.69,1.69c4.9-2.35,8.05-6.67,10.05-11.6A66.07,66.07,0,0,0,643,859c.78-5.56.54-11.46-2.57-16.33-3.53-5.52-9.81-8.49-15.32-11.62l-21.63-12.26a1.5,1.5,0,0,0-1.51,2.59Z"/><path class="cls-3" d="M493.6,813.85A117,117,0,0,1,498.45,787c.57-1.85-2.33-2.64-2.89-.8a120.68,120.68,0,0,0-5,27.69c-.11,1.93,2.89,1.92,3,0Z"/><path class="cls-3" d="M470.39,537.4c6.56-1.62,18.51-5.56,15.58-14.71-1.41-4.4-5.55-7.12-9.74-8.48a38,38,0,0,0-14.52-1.31c-17.93,1.41-36.65,13-38.3,32.36A28.12,28.12,0,0,0,425.28,558a22.23,22.23,0,0,0,3.65,6.24,28.71,28.71,0,0,0,5.8,4.91,134.61,134.61,0,0,1,23,20.41c7.05,7.78,14,15.9,19.35,25a71.9,71.9,0,0,1,9.16,25.53,73.38,73.38,0,0,1-11.46,51.17q-1.9,2.88-4,5.58c-1.19,1.5.92,3.64,2.12,2.13a77.79,77.79,0,0,0,17.19-48.27,73.8,73.8,0,0,0-4.39-25c-3.26-9-8.31-17-14.15-24.47a205.81,205.81,0,0,0-19.72-22.11,114.54,114.54,0,0,0-11.51-9.71c-3.93-2.88-8.33-5.24-10.85-9.57-4.32-7.43-4-17-.2-24.51,3.95-7.85,11.27-13.41,19.39-16.49a47.26,47.26,0,0,1,13.06-3,35.07,35.07,0,0,1,14.12,1.34c3.55,1.23,8.27,4.44,7.47,8.83-.66,3.6-4.79,5.55-7.85,6.69a51.86,51.86,0,0,1-5.86,1.74c-1.87.47-1.08,3.36.8,2.9Z"/><path class="cls-3" d="M472.13,539.46a123,123,0,0,0,47.3-10.91c7-3.2,14.14-7,19.62-12.48a27.55,27.55,0,0,0,8.06-20.34c-.23-13.26-7.6-25.35-16.93-34.31-10.55-10.13-23.83-17-37.7-21.41-16-5.08-32.91-7.05-49.66-7.64a412.31,412.31,0,0,0-52.71,1.8,471,471,0,0,0-102,21.22c-27.21,8.89-55.71,20.5-76.28,41.11-9.78,9.8-17,21.72-20,35.33-3.56,16.4-1.64,33.26-1.76,49.87-.12,17.53-2.07,35.37,2.18,52.6,3.81,15.46,12.5,29.18,22.13,41.65,9.53,12.32,20,24,30.62,35.42,10.1,10.84,20.85,21.13,32.9,29.82a136.73,136.73,0,0,0,42.16,20.59c16.63,4.78,33.83,6.71,51,8.45,15.9,1.61,32,3.94,45.19,13.66,10.73,7.89,18.14,19.31,23.8,31.17,2.7,5.68,5,11.53,7.26,17.41.67,1.78,3.57,1,2.89-.8-4.45-11.75-9.33-23.51-16.58-33.85-7.48-10.68-17.4-19.25-29.6-24.07-15.28-6-32.24-6.2-48.34-8.17-16.59-2-33.27-5.14-48.78-11.52-27.68-11.37-49.11-32.61-68.67-54.61-10.52-11.83-21.18-23.73-29.84-37a104.11,104.11,0,0,1-10.64-20.53,85.34,85.34,0,0,1-4.95-24.49c-.54-8.6-.19-17.22.07-25.82.25-8.37.18-16.71,0-25.08-.42-16.14-.55-32.9,6.57-47.8C211.21,494,237.27,479,261.46,468.49a361.06,361.06,0,0,1,44.42-15.41,468.66,468.66,0,0,1,49.92-11.36,459.44,459.44,0,0,1,51.26-5.83c16.88-.95,33.9-1.16,50.75.43,16.05,1.52,32.33,4.79,47,11.64,12.31,5.75,24.05,14.12,31.69,25.53s11.69,28.09,1.53,39.3c-5.16,5.69-12.32,9.5-19.18,12.73a114.79,114.79,0,0,1-23.08,7.9,123.22,123.22,0,0,1-23.65,3c-1.93.06-1.94,3.06,0,3Z"/><path class="cls-3" d="M614.26,703.19a209,209,0,0,1,17.83,30.91c2.64,5.49,5.13,11,7.57,16.62s5.07,10.89,6.88,16.56c1.66,5.23,2.31,12.28-2.53,16.1h2.12a66.24,66.24,0,0,0-29.42-19c-1.85-.57-2.64,2.33-.8,2.9A63.08,63.08,0,0,1,644,785.51a1.54,1.54,0,0,0,2.12,0c4.15-3.28,5.13-9.16,4.44-14.12-.86-6.16-3.88-11.92-6.32-17.58-5-11.57-10.13-23.1-16.19-34.15a180,180,0,0,0-11.21-18c-1.11-1.56-3.72-.06-2.59,1.51Z"/><path class="cls-3" d="M510.26,746c-13.79.14-27.85-1.92-40.61-7.35C458.26,733.76,448,726,442.2,714.85a48.2,48.2,0,0,1-5.28-20l-2.56,1.06a138.86,138.86,0,0,0,13.91,10.62,65.39,65.39,0,0,0,17.31,7.87c13,3.71,27.08,3.43,39.72,8.49,4.5,1.8,10.77,5.08,10.75,10.7a1.5,1.5,0,0,0,3,0c0-5.21-4-9-8.21-11.36-5.55-3.16-11.89-4.66-18.11-5.81-7.1-1.31-14.28-2.14-21.34-3.67a64.57,64.57,0,0,1-18.6-7,112.88,112.88,0,0,1-16.3-12,1.52,1.52,0,0,0-2.57,1.06A50.31,50.31,0,0,0,450.24,730c9.56,8.66,22,13.76,34.45,16.47A115,115,0,0,0,510.26,749a1.5,1.5,0,0,0,0-3Z"/><path class="cls-3" d="M549.19,680a5,5,0,0,1,3.58-2.19,4.89,4.89,0,0,1,4.08,1.57c-.07-.11-.05-.09,0,.06a.32.32,0,0,1,0-.14c0-.12-.16.29-.15.28a4.14,4.14,0,0,1-.67.9c-.62.69-1.29,1.32-1.84,2.07a4.57,4.57,0,0,0-.18,5.69,1.5,1.5,0,1,0,2.13-2.12c.06.07,0-.08,0-.06l-.06-.21s0,.2,0,0,0-.52,0-.29a3.58,3.58,0,0,1,.14-.54c.08-.25-.08.15,0-.09l.11-.22a3.45,3.45,0,0,1,.25-.41,8.38,8.38,0,0,1,.67-.79c1.16-1.23,2.79-2.75,2.54-4.62s-2.31-3-3.85-3.62a7.72,7.72,0,0,0-4.89-.19,8.2,8.2,0,0,0-4.48,3.38,1.5,1.5,0,1,0,2.59,1.52Z"/><path class="cls-3" d="M558.48,671.84a5.07,5.07,0,0,1,1-3.26,4.77,4.77,0,0,1,3.06-1.8,3,3,0,0,1,.74-.06h.49l.25,0c-.17,0,0,0,.08,0l.41.11s-.2-.14-.17-.14a1.31,1.31,0,0,0,0,.27,3.45,3.45,0,0,1,0,.56c0,1.52-.52,3-.27,4.6a4.21,4.21,0,0,0,2.88,3.51,1.5,1.5,0,0,0,.79-2.89c-.06,0-.27-.09,0,0l-.17-.08-.16-.11c.12.09.18,0,0,0s-.17-.18,0,0l0-.05c0-.09-.25-.48-.14-.23a4.18,4.18,0,0,1-.25-.92c0,.27,0,0,0-.14s0-.4,0-.6c.12-1.72.87-3.86-.18-5.51s-3.53-1.55-5.19-1.22a7.7,7.7,0,0,0-4.26,2.5,8.08,8.08,0,0,0-1.94,5.44,1.53,1.53,0,0,0,1.5,1.5,1.51,1.51,0,0,0,1.5-1.5Z"/><path class="cls-3" d="M559.09,693.49a1.5,1.5,0,0,0,0-3,1.5,1.5,0,0,0,0,3Z"/><path class="cls-3" d="M571.73,677.64a1.5,1.5,0,0,0,0-3,1.5,1.5,0,0,0,0,3Z"/><text class="cls-1" transform="translate(1111.08 328.19)"><tspan class="cls-4">D</tspan><tspan x="43.92" y="0">o </tspan><tspan class="cls-2" x="96" y="0">y</tspan><tspan class="cls-5" x="127.8" y="0">ou mean th</tspan><tspan class="cls-6" x="450.77" y="0">a</tspan><tspan class="cls-7" x="483.77" y="0">t ping?</tspan></text><path class="cls-3" d="M1254.8,506.09q44.27-.3,88.51,1.56,12.42.54,24.84,1.23c1.92.11,1.92-2.89,0-3q-44.2-2.47-88.48-2.79-12.43-.09-24.87,0a1.5,1.5,0,0,0,0,3Z"/><path class="cls-3" d="M1372.26,500.59c-5.2-20-25-30.45-43.85-34.45-21.29-4.52-45.27-1.87-62.29,12.72-8.87,7.61-15.58,18.35-17.32,30a28.79,28.79,0,0,0,1.36,15,27.91,27.91,0,0,0,9.62,11.86c9.52,7,21,11,32.57,13.19a158.91,158.91,0,0,0,33.87,2.59c18.37-.52,39.24-6.16,48.61-23.51a41.68,41.68,0,0,0,2.89-6.81c.59-1.84-2.3-2.63-2.9-.8a36.27,36.27,0,0,1-16.69,20.29c-7.7,4.44-16.62,6.59-25.41,7.43a146.47,146.47,0,0,1-30.69-.73c-11.22-1.3-22.51-3.93-32.57-9.18-4.64-2.42-9.3-5.3-12.75-9.28a21.73,21.73,0,0,1-5.25-12.53c-.88-11,4.33-22,11.41-30.13,14.48-16.5,37.63-21.41,58.67-18.35,17.45,2.53,37.29,10.05,45.47,26.92a36,36,0,0,1,2.36,6.52c.48,1.87,3.38,1.07,2.89-.8Z"/><path class="cls-3" d="M1550.28,488a31.63,31.63,0,0,0-15.42-15.23c-6.75-3.09-14.25-4.15-21.62-4.15a93.22,93.22,0,0,0-12.6.92,1.51,1.51,0,0,0-1.05,1.85,1.54,1.54,0,0,0,1.85,1c13-1.74,28.62-1.61,39.07,7.47a29.15,29.15,0,0,1,7.17,9.62c.83,1.74,3.42.22,2.6-1.52Z"/><path class="cls-3" d="M1550.3,525.47a57.64,57.64,0,0,0,3.71-20.62,1.5,1.5,0,0,0-3,0,55.37,55.37,0,0,1-3.6,19.83c-.67,1.81,2.23,2.59,2.89.79Z"/><path class="cls-3" d="M1447.58,544.77a37.12,37.12,0,0,0,15.11,14.1,52.92,52.92,0,0,0,20,5.27,80.22,80.22,0,0,0,21.2-1.39,81.77,81.77,0,0,0,21.16-6.81,46.71,46.71,0,0,0,19.74-18.59,1.51,1.51,0,0,0-2.6-1.52,43.21,43.21,0,0,1-16.42,16.33c-6.14,3.47-13,5.56-19.89,7.12-12.76,2.89-27.1,3.34-39.34-1.88a34.73,34.73,0,0,1-16.42-14.14,1.5,1.5,0,0,0-2.59,1.51Z"/><path class="cls-3" d="M1453.07,509.52a79.38,79.38,0,0,0-5.49,18.15,1.55,1.55,0,0,0,1.05,1.84,1.51,1.51,0,0,0,1.85-1,76.32,76.32,0,0,1,5.18-17.43,1.55,1.55,0,0,0-.54-2,1.51,1.51,0,0,0-2,.54Z"/><path class="cls-3" d="M1484.33,470.22a111.74,111.74,0,0,0-23.15,24.65c-1.09,1.6,1.51,3.1,2.59,1.51a109.25,109.25,0,0,1,22.69-24c1.51-1.2-.63-3.31-2.13-2.12Z"/><path class="cls-3" d="M1459.6,509.63c-5.65,4.52-3.42,15.29,4,16.48a10.32,10.32,0,0,0,9.78-4.22,8.49,8.49,0,0,0-.42-10.38,9.78,9.78,0,0,0-11.34-3.12,1.52,1.52,0,0,0-.54,2.06,1.53,1.53,0,0,0,2,.53,5.81,5.81,0,0,1,3.69-.11,7.51,7.51,0,0,1,3.32,2,6.21,6.21,0,0,1,1.79,3.3,5.3,5.3,0,0,1-.62,3.44,7.41,7.41,0,0,1-6.45,3.67,5.59,5.59,0,0,1-5-4.08,6.7,6.7,0,0,1,1.94-7.41,1.52,1.52,0,0,0,0-2.12,1.54,1.54,0,0,0-2.12,0Z"/><path class="cls-3" d="M1465.87,502.39c19.51-5.2,39.82-4.13,59.8-3.76,5.67.1,11.33.14,17,0,1.93-.06,1.94-3.06,0-3-20.22.58-40.53-1.56-60.7.76a117,117,0,0,0-16.89,3.13,1.5,1.5,0,0,0,.8,2.89Z"/><path class="cls-3" d="M1456.39,538a478.9,478.9,0,0,0,68.28-1.71q9.49-.93,19-2.23a1.51,1.51,0,0,0,1-1.85,1.53,1.53,0,0,0-1.84-1,474.4,474.4,0,0,1-67.27,4.34q-9.58-.06-19.17-.51c-1.93-.09-1.92,2.91,0,3Z"/><path class="cls-3" d="M1347.09,595.46a102.08,102.08,0,0,1,61-26.35c20.67-1.57,42.38,3.3,58.72,16.56,8.65,7,15.33,16.25,18.16,27.1l1.44-1.9c-9.86-.83-20.07-1.63-29.66,1.41-8.37,2.65-15.72,7.76-24.13,10.27a30.27,30.27,0,0,1-13.51.92,65.87,65.87,0,0,1-13.77-4.17c-4.55-1.81-9-3.74-13.67-5.38s-9.44-3.13-14.25-4.39a175.63,175.63,0,0,0-33-5.29c-1.93-.13-1.92,2.87,0,3a171.08,171.08,0,0,1,29.51,4.5,198.58,198.58,0,0,1,28.1,9.43c8.74,3.57,17.91,6.88,27.49,5.21,8.67-1.52,16.15-6.54,24.19-9.81a47.21,47.21,0,0,1,15.73-3.39,130.27,130.27,0,0,1,17,.69,1.51,1.51,0,0,0,1.45-1.9c-5.36-20.61-23.43-34.84-42.89-41.5-21.5-7.35-45.81-5.73-66.86,2.38A104.12,104.12,0,0,0,1345,593.34c-1.42,1.31.7,3.42,2.12,2.12Z"/><path class="cls-3" d="M1342.61,611.46c4.43,6.38,11.18,10.26,18.32,12.95a156.46,156.46,0,0,0,25.23,6.66,224.53,224.53,0,0,0,86.94-.16c1.89-.37,1.09-3.26-.8-2.89a221.71,221.71,0,0,1-54,4,207.86,207.86,0,0,1-52.49-9.06c-7.76-2.47-15.77-6.07-20.56-13-1.09-1.57-3.69-.08-2.59,1.51Z"/><path class="cls-3" d="M1586,425.09a208.63,208.63,0,0,0-88.91-50,205,205,0,0,0-50.89-7.22c-19.85-.27-39.67,2.41-59,6.69a502.83,502.83,0,0,0-56.7,16.35c-17.9,6.22-35.52,13.6-51.7,23.55-28.65,17.61-52.7,44.19-59.85,77.8a197.09,197.09,0,0,0-3.5,28.86c-.59,9.39-1.19,18.88-.11,28.25,1,8.61,3.46,17,8.32,24.22a62.13,62.13,0,0,0,15.79,15.73c13.87,9.91,30.38,16,46.09,22.27,18.26,7.31,36.78,14,55.66,19.51,37.37,10.89,76.61,17.18,115.56,13.41a197.54,197.54,0,0,0,86.1-29.15c25.22-15.93,46.73-38.42,58.57-66.05,13.32-31.08,13.6-67,1.33-98.53a128.53,128.53,0,0,0-11.21-22.18c-1-1.62-3.63-.12-2.59,1.51A129,129,0,0,1,1605.29,528c-6.91,29-24.56,54.23-47.54,72.94s-51.23,31.32-80.32,37.38c-35.48,7.38-72.57,4.62-107.75-3.05a464.81,464.81,0,0,1-55.46-16c-17.47-6.16-34.87-12.88-51.74-20.54-13.79-6.26-28.1-14.11-36.6-27.11-10-15.32-8.54-34.51-7.4-51.93,1.2-18.22,4-36.17,12.61-52.49,7.6-14.39,18.48-26.83,31-37.19,28.32-23.48,64.45-35.67,99.3-45.72,36.11-10.42,73.76-16.87,111.29-11.25A207.27,207.27,0,0,1,1565,411.28a199.14,199.14,0,0,1,18.87,15.93c1.39,1.33,3.52-.79,2.12-2.12Z"/><path class="cls-3" d="M1593.71,864.27a351.56,351.56,0,0,0,23.09-66.69c5.75-24,11-48.07,15.4-72.34,4.31-23.86,7.84-47.86,10.75-71.94,2.88-23.74,6.12-47.53,7-71.46.82-23.14-.72-46.62-7.3-68.93-.83-2.84-1.75-5.66-2.75-8.44-.64-1.81-3.54-1-2.89.79,7.79,21.91,10.35,45.15,10.13,68.3-.23,23.62-3.38,47-6.06,70.42-2.75,24-6.09,47.9-10.2,71.7q-6.24,36.18-14.82,71.91c-2.73,11.37-5.43,22.7-8.93,33.87a328,328,0,0,1-12.38,33.32c-1.16,2.68-2.37,5.33-3.6,8-.81,1.73,1.77,3.26,2.59,1.51Z"/><path class="cls-3" d="M1639.9,488.77c-2.15-6.5-4.35-12.91-7.1-19.19a188.76,188.76,0,0,0-65.17-79c-21.23-14.72-45.39-24.89-70.46-31-35.31-8.56-72.75-9.76-108.73-5.24-40.43,5.08-80.43,18.31-113.67,42.33a196.25,196.25,0,0,0-68.48,89.81,218.76,218.76,0,0,0-13.13,59.38c-1.77,21.87-.08,43.87,2.52,65.6,1.3,10.89,3.26,21.73,2.2,32.73s-3.39,21.8-4.79,32.72a589.2,589.2,0,0,0-5.11,67.28c-.51,39.5,3.44,81.07,24.27,115.62,5,8.2,10.42,16.56,17.27,23.3,1.38,1.36,3.5-.76,2.12-2.12-7.08-7-12.72-15.71-17.72-24.26a144.55,144.55,0,0,1-12.1-26.81c-6.2-18.37-9.16-37.69-10.26-57a468.6,468.6,0,0,1,1.26-65.54q1.4-16.57,3.6-33c1.39-10.54,3.76-21.05,4.59-31.65s-1.14-21.2-2.4-31.73c-1.3-11-2.35-22-2.85-33a235.37,235.37,0,0,1,4.93-62.09c8.49-38.12,27.54-73.23,55.88-100.22,28.87-27.49,65.88-44.78,104.51-53.52A307.54,307.54,0,0,1,1477,358.57c26.7,4.31,52.81,12.74,76.25,26.35a185.31,185.31,0,0,1,73.49,78.63,166.11,166.11,0,0,1,9.67,23.95c.22.69.42,1.38.65,2.07.6,1.82,3.5,1,2.89-.8Z"/><path class="cls-3" d="M1252.89,903.66l44.25-9.38,11.15-2.36c3.57-.76,7.22-1.79,10.88-2,5.69-.27,10.14,2.61,13.1,7.32,3.1,4.92,4.59,10.71,5.74,16.35a1.53,1.53,0,0,0,2.21.9l38.19-23.73c5.33-3.31,12.21-8.87,18.91-6.75,4.75,1.5,7.88,6.07,11.86,8.83,5.42,3.75,11.24,2.66,17.14.71,7.06-2.33,14.1-4.69,21.15-7,14-4.67,28-9.73,42.18-14,3.31-1,6.63-1.49,9.76.26,2.37,1.32,4.3,3.28,6.42,5a16.93,16.93,0,0,0,12.72,3.82c9.08-1,16.8-7.18,25.89-8a13,13,0,0,1,6,.78c2.6,1.05,4.47,3.16,6.56,4.94a14,14,0,0,0,6.59,3.42,22.69,22.69,0,0,0,7.92-.34c4.85-.87,11.21-2.82,14.93,1.64,3.38,4.06,2.64,10.12.09,14.36-3.17,5.28-8.53,9-13.31,12.75a118.09,118.09,0,0,1-16.46,11.15c-10,5.37-27.06,10.67-34.64-1.32a11.74,11.74,0,0,1-1.79-8c.19-1.43-1.7-1.79-2.56-1.06a114.92,114.92,0,0,1-24.5,15.79l1.82.24a24.57,24.57,0,0,1-6.29-11,1.51,1.51,0,0,0-2.2-.89,325.15,325.15,0,0,1-48.53,25.41l1.46.38a20,20,0,0,1-5.71-11.65,1.5,1.5,0,0,0-1.85-1q-17.94,7.23-35.89,14.47c-5.3,2.13-11.83,4.94-17.56,2.8-4.14-1.55-7.69-6.1-5.88-10.57a1.52,1.52,0,0,0-1.85-1.85c-8.37,3.38-19,7.88-28,3.93-6.16-2.72-11.89-10.41-8.36-17.19a1.51,1.51,0,0,0-2.36-1.82,27.28,27.28,0,0,1-25.93,5.19,24.68,24.68,0,0,1-6.15-2.94c-2.07-1.37-4-3-6.27-4-4-1.61-7.86-.25-11.35,1.83s-7,5.14-11.17,5.16c-3.88,0-7.32-2.38-10.42-4.44s-6.23-4.34-9.89-5.21c-4.54-1.08-8,1-12,2.79s-7.58.51-9.76-3.21c-1.86-3.17-2.17-7.39.81-10,1.46-1.27-.67-3.38-2.12-2.12-5.71,4.92-2.92,14.66,3.11,18,4.1,2.3,8,.62,11.8-1.33a10.57,10.57,0,0,1,6.73-1.44,16.78,16.78,0,0,1,5.63,2.34c3.6,2.15,6.88,4.87,10.81,6.45a13.76,13.76,0,0,0,12-.8c3.76-2,7.54-5.81,12-5.85,2.77,0,5,1.76,7.16,3.3a29.46,29.46,0,0,0,6.57,3.63,30.3,30.3,0,0,0,30.55-5.35l-2.35-1.82c-4.05,7.78,1.06,16.67,8.1,20.62,9.92,5.55,22,.92,31.63-2.95l-1.85-1.85c-1.89,4.7.74,9.66,4.58,12.46,5.13,3.74,11.8,2.82,17.46.93,6.91-2.3,13.63-5.36,20.39-8.09l20.6-8.31-1.84-1.05a22.6,22.6,0,0,0,6.48,13,1.45,1.45,0,0,0,1.45.38,329.66,329.66,0,0,0,49.25-25.71l-2.2-.9a27.56,27.56,0,0,0,7.06,12.31,1.56,1.56,0,0,0,1.82.23,117.94,117.94,0,0,0,25.1-16.26l-2.56-1.06c-.76,5.73,2.38,11.18,6.92,14.49,5.25,3.81,12.11,4.25,18.31,3.18,13.53-2.36,25-11.22,35.48-19.53,4.9-3.87,10-8,12.46-14,1.87-4.57,1.67-10.34-1.29-14.41-3.42-4.71-9-4.94-14.33-4a54.24,54.24,0,0,1-8.4,1.26c-3.31,0-5.75-1.32-8.16-3.49-2-1.77-3.89-3.61-6.35-4.7a15.22,15.22,0,0,0-6.56-1.25c-4.75.13-9.28,2-13.63,3.73s-9,3.94-13.88,4.34a13.58,13.58,0,0,1-6.61-.94c-2.66-1.15-4.75-3.25-7-5.06a16.44,16.44,0,0,0-7.14-3.82c-3.52-.66-7,.36-10.28,1.46q-11.27,3.72-22.51,7.49l-22.52,7.48-11.6,3.86c-3.58,1.19-7.23,2.71-11,3.26-6.59,1-10.35-3.66-14.92-7.48a18.27,18.27,0,0,0-6.51-3.8,15,15,0,0,0-9.51.72,55.54,55.54,0,0,0-9.34,5.08L1369,893.15l-20.16,12.53-10.09,6.26,2.21.89c-1.94-9.49-5.49-22-16-25.21a21.62,21.62,0,0,0-10.24-.09c-3.94.71-7.84,1.63-11.75,2.46l-24,5.09-26.83,5.69c-1.88.4-1.08,3.29.8,2.89Z"/><path class="cls-3" d="M1620,582c-27.76,15.08-55.62,30-83.21,45.38-13.57,7.57-27,15.31-40.32,23.38-13.06,8-25.81,16.37-38.55,24.82-12.4,8.23-24.89,16.37-38,23.38a273.23,273.23,0,0,1-41.34,17.33c-14.12,4.76-28.42,9-42.43,14.05a370.29,370.29,0,0,0-40.36,17.59c-26.3,13.23-51.52,28.54-78.12,41.19q-4.92,2.34-9.89,4.54c-1.77.79-.24,3.37,1.51,2.6,27-11.94,52.26-27.09,78.33-40.76a420.48,420.48,0,0,1,40.06-18.77c14-5.53,28.35-9.92,42.63-14.56s28.23-9.45,41.68-15.85,25.94-14.06,38.3-22.1c12.55-8.17,24.89-16.63,37.57-24.58,13.27-8.33,26.78-16.28,40.41-24,27.41-15.53,55.22-30.36,82.9-45.4l10.38-5.64c1.7-.92.19-3.51-1.51-2.59Z"/><path class="cls-3" d="M1230.3,608.18c19,13.28,39.27,24.49,59.81,35.1,21.37,11,42.91,21.74,64.38,32.58l37.09,18.72c1.72.87,3.24-1.71,1.52-2.59l-66-33.3c-20.88-10.54-41.91-20.86-62.26-32.41-11.31-6.41-22.39-13.23-33-20.69-1.58-1.1-3.08,1.49-1.51,2.59Z"/><path class="cls-3" d="M1564.21,834.27c-6.72.47-13.19-1.63-19.25-4.36-5.74-2.59-11.32-5.56-16.81-8.65a293.7,293.7,0,0,1-30.79-20,371.58,371.58,0,0,1-54.55-50.1q-3.4-3.78-6.72-7.63a78.4,78.4,0,0,1-6.66-8.24c-1.63-2.49-3-5.53-2.34-8.57.53-2.38,2.15-5,4.81-5.24,1.9-.19,1.92-3.19,0-3-5.34.53-8.5,6.06-7.9,11.1.77,6.4,6,11.43,10,16.07,8.5,9.85,17.4,19.34,26.76,28.37,18.65,18,39.14,34.19,61.52,47.3,6.37,3.73,12.88,7.26,19.56,10.41,7,3.3,14.53,6.08,22.41,5.53,1.91-.13,1.93-3.13,0-3Z"/></svg>