<svg id="Layer_1" data-name="Layer 1" xmlns="http://www.w3.org/2000/svg" viewBox="0 0 1920 1080"><defs><style>.cls-1{fill:#4d4d4d;}.cls-2{font-size:60px;font-family:VarelaRound-Regular, Varela Round;}.cls-3{letter-spacing:-0.01em;}.cls-4{letter-spacing:-0.02em;}.cls-5{letter-spacing:-0.01em;}.cls-6{letter-spacing:-0.02em;}</style></defs><title>42-teeth</title><path class="cls-1" d="M301.07,469.68c3.5,12.47,12.85,21.82,19.37,32.68a48.91,48.91,0,0,1,4.61,9.69c.62,1.82,3.52,1,2.9-.8-4.13-12.26-13.55-21.46-19.81-32.55a44.31,44.31,0,0,1-4.18-9.82,1.5,1.5,0,0,0-2.89.8Z"/><path class="cls-1" d="M304.05,469.58c14.38,7.46,28.81,14.83,43.44,21.76q6.33,3,12.69,5.88a1.56,1.56,0,0,0,2.05-.54c4.8-6.29,12.47-10.22,20.09-11.84L380.47,483a4.65,4.65,0,0,1-.45,1.08c0,.07-.43.51-.43.55s-.11-.09,0,0c.38.2.58-.17.89.43.07.15.22.62.1.45.11.16-.38.21,0,0a12.18,12.18,0,0,1,1.69-.69L380.47,483l-4.69,15.23c-1.12,3.64-2.95,7.46-2.39,11.37a8.49,8.49,0,0,0,6.53,6.84c3.17.72,6.47-.07,9.55-.82,3.25-.8,6.9-2,10.19-.85l-.66-2.51a184.49,184.49,0,0,0-17.54,25.23,1.5,1.5,0,0,0,2.59,1.51,179.77,179.77,0,0,1,17.07-24.62,1.53,1.53,0,0,0-.66-2.51c-5.76-2-11.64,1.62-17.38,1.84-2.66.11-5.63-.91-6.54-3.7-1.08-3.31.95-7.15,1.91-10.27q2.48-8,4.91-15.94a1.51,1.51,0,0,0-1.84-1.84,5.41,5.41,0,0,0-3.55,2.13,2.36,2.36,0,0,0,.23,2.84c2.24,2.32,4.57-1.32,5.16-3.13a1.51,1.51,0,0,0-1.84-1.84c-8.45,1.79-16.59,6.29-21.88,13.22l2.06-.54c-14.7-6.65-29.17-13.79-43.53-21.14q-6.32-3.23-12.6-6.5c-1.71-.89-3.23,1.7-1.52,2.59Z"/><path class="cls-1" d="M326.37,538.34l9.68,52.24c1.61,8.67,3.4,17.35,4.09,26.16a86.27,86.27,0,0,1-1.68,24.88,105.24,105.24,0,0,1-3.81,13.27c-.79,2.2-1.63,4.37-2.55,6.51-.19.44-1.9,4.17-2.76,3.39-1.43-1.3-3.56.82-2.13,2.12,3.06,2.77,6.23-1.1,7.39-3.78a122.51,122.51,0,0,0,4.54-12.25,93.41,93.41,0,0,0,4.27-26c.15-9.29-1.4-18.51-3.07-27.62q-2.58-14-5.2-28l-5.88-31.73c-.35-1.9-3.24-1.1-2.89.79Z"/><path class="cls-1" d="M309.76,473.19c0-.09,0-.17,0-.26l0,.4a2.39,2.39,0,0,1,.15-.54l-.15.35a2.74,2.74,0,0,1,.29-.49l-.24.31a2.4,2.4,0,0,1,.45-.45l-.3.23a2.15,2.15,0,0,1,.49-.28l-.36.15a2.16,2.16,0,0,1,.55-.16l-.4.06a2.16,2.16,0,0,1,.44,0l-1.45-1.9c-.08.22-.17.45-.26.67l.15-.36a7.22,7.22,0,0,1-.82,1.49l.23-.31a3.64,3.64,0,0,1-.61.63l.3-.24a3,3,0,0,1-.54.32l.36-.15a2.13,2.13,0,0,1-.43.13l.39-.06a2,2,0,0,1-.42,0l.4,0a1.84,1.84,0,0,1-.51-.14l.36.15a2.62,2.62,0,0,1-.51-.3l.3.23a2.53,2.53,0,0,1-.36-.37l.23.31a2.33,2.33,0,0,1-.2-.34l.16.36a1,1,0,0,1-.09-.32l.05.4a1.22,1.22,0,0,1,0-.27l-.06.4a1.2,1.2,0,0,1,.08-.27l-.16.36a1.59,1.59,0,0,1,.13-.22l-.23.31,0-.05a1.61,1.61,0,0,0,.44-1.06,1.53,1.53,0,0,0-.44-1.06,1.56,1.56,0,0,0-1.06-.44,1.48,1.48,0,0,0-1.06.44,3.08,3.08,0,0,0-.47.74,2.64,2.64,0,0,0-.2.85,2.6,2.6,0,0,0,.29,1.34,3.35,3.35,0,0,0,1.59,1.54,3.52,3.52,0,0,0,1.43.37,3,3,0,0,0,1.3-.28,4.66,4.66,0,0,0,2-1.76,10.77,10.77,0,0,0,1.09-2.3,1.44,1.44,0,0,0-.27-1.31,1.5,1.5,0,0,0-1.18-.59,3.78,3.78,0,0,0-3.88,3.69,1.5,1.5,0,1,0,3,0Z"/><path class="cls-1" d="M355.72,506.44c.29.22,0,0,0-.05.23.2.09.07,0,0,.16.22.06.13,0,0s0,.29,0,0c0-.11,0-.22,0-.33,0,.25,0,.16,0,0s.06-.18.09-.27,0-.07,0,.1l.07-.15s.23-.36.1-.18.11-.12.14-.15.16-.13,0,0l.29-.18c.12-.06.13-.06,0,0l.15-.05s.48-.1.21-.06a3.54,3.54,0,0,1,.46,0s.49,0,.23,0a6.11,6.11,0,0,1,.94.22,4.4,4.4,0,0,1,.61.25,14.76,14.76,0,0,1,1.62,1,16.68,16.68,0,0,0,3.62,2,1.51,1.51,0,0,0,1.85-1.05,1.54,1.54,0,0,0-1.05-1.84,30.3,30.3,0,0,1-3.88-2.34,7.34,7.34,0,0,0-5.11-1.11,4.25,4.25,0,0,0-3.19,3,3.54,3.54,0,0,0,1.31,4,1.49,1.49,0,0,0,2.05-.54,1.54,1.54,0,0,0-.53-2.05Z"/><path class="cls-1" d="M345.5,495.74c-.07-.33,0,.15,0,0a2.8,2.8,0,0,0,0-.29c0,.32,0,.08,0-.05s.05-.15.07-.22c-.11.33,0,0,0-.06s.21-.31.09-.14.1-.12.11-.13l.22-.21c.1-.09.2-.15,0,0l.26-.18.28-.15s.35-.15.16-.08.14,0,.18-.05l.37-.1c.16,0,.1,0,0,0l.38,0,.31,0c.22,0-.34-.08.11,0,.25.06.49.12.73.2a5.89,5.89,0,0,1,1.15.56,15.64,15.64,0,0,1,2.38,1.89,1.53,1.53,0,0,0,2.12,0,1.51,1.51,0,0,0,0-2.12c-2-1.78-4.44-3.86-7.3-3.52s-5.17,2.6-4.6,5.5a1.53,1.53,0,0,0,1.85,1,1.55,1.55,0,0,0,1.05-1.85Z"/><path class="cls-1" d="M349.94,547.39c7.26,2.28,15,4.67,20.86,9.7,6.4,5.45,9,13.4,10.52,21.39a137.06,137.06,0,0,1-1.27,56.57c-2.33,10.23-5.19,20.61-4.14,31.19.19,1.91,3.19,1.93,3,0-1-9.77,1.47-19.32,3.66-28.77a151,151,0,0,0,4.06-28.85,138.34,138.34,0,0,0-2.13-29.37c-1.49-8.26-3.89-16.78-10-22.86-6.41-6.36-15.32-9.25-23.74-11.9-1.84-.58-2.63,2.32-.79,2.9Z"/><path class="cls-1" d="M404.18,657.59c-11.15,7.16-22.85,14.8-29.3,26.79a33.4,33.4,0,0,0-4.27,18.32c0,1.47-.05,2.66-1.44,3.43a34.09,34.09,0,0,0-3.89,2.24,21.72,21.72,0,0,0-5.81,6.34c-1.48,2.47-3.1,6-2.5,8.93.55,2.73,3,4.11,5.56,4.49,3.21.48,6.58,0,9.81-.1l11.37-.5q11.61-.53,23.22-1.13c1.75-.09,3.51-.13,5.26-.29a6.79,6.79,0,0,0,4.37-1.64,9,9,0,0,0,2-3.71c.59-1.8,1.13-3.62,1.65-5.44A158.34,158.34,0,0,0,426,666.14c-.07-1.92-3.07-1.93-3,0a155.5,155.5,0,0,1-3.86,41c-.79,3.39-1.68,6.75-2.7,10.08a26.08,26.08,0,0,1-1.4,4.16c-.8,1.61-2.32,1.68-3.95,1.77q-10.74.59-21.49,1.07t-21.25.94c-2.27.09-5.7.7-7.67-.82s0-5.71,1-7.5A18.63,18.63,0,0,1,366.8,711c2.12-1.58,5.29-2.24,6.35-4.91a9.44,9.44,0,0,0,.45-3.74,33.87,33.87,0,0,1,.1-4.83,30.87,30.87,0,0,1,2.17-8.23c5.49-13.38,18.15-21.57,29.82-29.07,1.62-1,.12-3.64-1.51-2.59Z"/><path class="cls-1" d="M331,669.33a32.38,32.38,0,0,0,9.18,16.16,31.65,31.65,0,0,0,7.47,5.37c3.27,1.67,6.9,2.49,10.15,4.18,1.72.89,3.23-1.7,1.52-2.59-3.05-1.58-6.41-2.37-9.49-3.85a29.14,29.14,0,0,1-7.26-5,29.72,29.72,0,0,1-8.68-15.09c-.42-1.89-3.31-1.09-2.89.79Z"/><path class="cls-1" d="M331.17,647.79l-16.52,11.46c-4.79,3.33-10.3,6.5-13.34,11.66-2.74,4.65-3.19,10.23-2.73,15.5a82.57,82.57,0,0,0,3,15.58c1.51,5.22,4,10.4,8.86,13.25l-.69-1.69c-.22.8-2,.9-2.7,1.1a4.9,4.9,0,0,0-3.28,2.34,4.24,4.24,0,0,0,1,4.74c1.42,1.4,3.46,1.67,5.36,1.82a90.22,90.22,0,0,0,26.37-1.87,91.24,91.24,0,0,0,14.44-4.44c1.77-.71,1-3.61-.8-2.89a88.29,88.29,0,0,1-34.75,6.44c-1.95,0-3.93-.08-5.88-.29-.84-.09-4-.84-3-2.34.58-.82,2.37-.85,3.25-1.15a3.93,3.93,0,0,0,2.84-2.67,1.53,1.53,0,0,0-.69-1.69c-3.89-2.29-5.92-6.42-7.22-10.59a79.56,79.56,0,0,1-3-14.24c-.57-4.84-.59-10.1,1.7-14.55,2.53-4.91,7.54-7.82,11.93-10.87l17.32-12c1.58-1.1.08-3.7-1.51-2.59Z"/><path class="cls-1" d="M423.81,642.85a145.47,145.47,0,0,0-4.06-27.69c-.47-1.87-3.36-1.08-2.9.8a140.3,140.3,0,0,1,4,26.89c.09,1.92,3.09,1.93,3,0Z"/><path class="cls-1" d="M440.77,363.5c-3.28-1-6.84-2.23-9.22-4.81-2.63-2.85-2.18-6.94.31-9.73,2.82-3.16,7.28-4.08,11.34-4.19a31.69,31.69,0,0,1,31.31,40.7,20.91,20.91,0,0,1-2.72,5.94,25.21,25.21,0,0,1-4.76,4.81,98.53,98.53,0,0,0-9.73,9.33,185.47,185.47,0,0,0-16.61,21.93,104.65,104.65,0,0,0-12.32,23.84,87.41,87.41,0,0,0-4.56,23.86,89,89,0,0,0,10.68,47.33q1.45,2.63,3.09,5.14c1.05,1.62,3.64.11,2.59-1.51a86.17,86.17,0,0,1-8.9-74c3.1-9,8-17.22,13.31-25.06s11-15.64,17.73-22.45c1.66-1.69,3.37-3.31,5.16-4.85a57.94,57.94,0,0,0,5.21-4.68,24.22,24.22,0,0,0,5.47-11.89,35.58,35.58,0,0,0-4.28-24.63,34.87,34.87,0,0,0-19.24-15.13c-7.49-2.42-18-3.07-24.22,2.72-2.92,2.73-4.57,7.11-3.2,11,1.22,3.48,4.26,5.79,7.51,7.29A42.38,42.38,0,0,0,440,366.4c1.86.56,2.65-2.34.8-2.9Z"/><path class="cls-1" d="M438.63,365.46a83,83,0,0,1-40.28-12.28c-5.74-3.55-11.54-7.82-14.91-13.8-3.5-6.22-3.95-13.78-2.81-20.69,4.22-25.72,27.35-43.13,51.13-49.78,14.14-4,28.94-4.9,43.57-4.7a301.86,301.86,0,0,1,44.82,4c28.62,4.72,57.13,13.16,83.33,25.71,21.65,10.38,43.15,24.94,54.53,46.77,6.59,12.64,8.44,26.74,8.65,40.84.11,7.5-.18,15-.28,22.52s.11,15.09.28,22.64c.36,15.26.19,30.6-4.45,45.29-4.28,13.53-11.51,25.91-19.39,37.63-7.58,11.29-15.57,22.4-24,33.08-8.1,10.27-16.87,20.12-27,28.4a101.85,101.85,0,0,1-37,19.11,174.12,174.12,0,0,1-21.82,4.5c-7.18,1.07-14.42,1.7-21.58,2.93a62.81,62.81,0,0,0-19.37,6.21,50.14,50.14,0,0,0-13.19,10.44c-7.82,8.6-13,19.26-17.05,30.05-2,5.38-3.81,10.85-5.52,16.35-.57,1.85,2.33,2.64,2.9.8,7-22.71,16.51-49.47,41.14-58,7-2.42,14.34-3.43,21.64-4.32,7.46-.92,14.91-1.88,22.29-3.35,14.29-2.85,28.1-7.65,40.33-15.7,22.76-15,38.94-37.9,54.48-59.82,8.34-11.76,16.42-23.88,22.15-37.17,6-13.92,8.36-28.41,8.56-43.5.11-8-.23-16-.38-24-.14-7.69.06-15.37.2-23.05.27-14.93.1-30.27-5.06-44.47-8.55-23.54-28.71-40.26-50.09-52a257.57,257.57,0,0,0-37.36-16.3,327.54,327.54,0,0,0-44.87-12.48,311.72,311.72,0,0,0-45.46-5.79c-14.89-.78-30-.66-44.69,1.92-25.32,4.44-50.65,18.15-61,42.89-5,11.91-6.3,27,2,37.77,4.09,5.32,9.82,9.32,15.56,12.67a85.81,85.81,0,0,0,40,11.62c1.93.08,1.93-2.92,0-3Z"/><path class="cls-1" d="M321.15,539.94a195.13,195.13,0,0,0-13.26,34.13c-1.75,5.89-3.33,11.83-4.85,17.78q-1.14,4.47-2.27,9a45.9,45.9,0,0,0-1.57,9.3c-.2,5.66,2,11.92,7.35,14.53a1.55,1.55,0,0,0,2.06-.54A64.63,64.63,0,0,1,334.4,602c1.74-.83.22-3.41-1.52-2.59A67.62,67.62,0,0,0,306,622.59l2.06-.54c-4.65-2.25-6.12-7.6-5.85-12.41a47.27,47.27,0,0,1,1.62-8.73c.69-2.75,1.39-5.51,2.09-8.26a337.55,337.55,0,0,1,10-33.28,160.07,160.07,0,0,1,7.85-17.91c.88-1.72-1.71-3.24-2.59-1.52Z"/><path class="cls-1" d="M402.41,543c19.49,7.21,30.94,26.93,33.39,46.8a89.67,89.67,0,0,1,.2,19l2.79-.76c-3.62-8.35-7.41-16.92-13.85-23.54s-15.63-10.41-21.66-17.66c-3.11-3.74-5.19-8.39-4.6-13.33.23-1.92-2.77-1.9-3,0-1.12,9.33,5.88,17,12.81,22.11,3.91,2.92,8.12,5.45,11.82,8.64a43.23,43.23,0,0,1,8.9,10.89,128.28,128.28,0,0,1,7,14.4c.66,1.51,2.68.54,2.8-.75,2-21.91-3.67-45.54-21.12-60.16a49.59,49.59,0,0,0-14.67-8.56c-1.82-.67-2.6,2.23-.8,2.89Z"/><text class="cls-2" transform="translate(1109.47 260.19)"><tspan class="cls-3">I</tspan><tspan x="16.44" y="0">s it a bear?</tspan></text><text class="cls-2" transform="translate(348.47 151.19)">Wh<tspan class="cls-4" x="97.2" y="0">o’</tspan><tspan x="146.04" y="0">s the</tspan><tspan class="cls-5" x="283.86" y="0">r</tspan><tspan class="cls-6" x="305.94" y="0">e</tspan><tspan x="338.88" y="0">?</tspan></text><path class="cls-1" d="M1456.93,501.54c-.38-.2.16.15,0,0l-.44-.38c-.47-.43-.92-.87-1.38-1.31-1.53-1.49-3-3-4.55-4.5-5.16-5.1-10.36-10.15-15.66-15.1q-11.14-10.39-22.82-20.18c-9.09-7.6-18.46-14.88-28.15-21.69a291.59,291.59,0,0,0-31.56-19.53,180.22,180.22,0,0,0-33.1-13.8,104.29,104.29,0,0,0-33.1-4.63,76.31,76.31,0,0,0-16.05,2.28c-7.73,2-15.24,5.19-22.59,8.27a255,255,0,0,0-42.47,22.38,175.14,175.14,0,0,0-26.67,21.49,118.8,118.8,0,0,0-14.14,16.72c-1.16,1.69-2.27,3.42-3.3,5.19-.72,1.24-2.17,3.15-.62,4.34s4.24-.09,5.76-.59c3.74-1.24,7.41-2.67,11.1-4,11.9-4.44,23.89-8.64,36.14-12,14.86-4.1,30.16-7.14,45.61-7.65,13.34-.45,26.3,1.72,39.24,4.78,13.24,3.12,26.31,7,39.25,11.16,13.28,4.27,26.44,8.89,39.53,13.71q16.57,6.12,33,12.67,9.87,3.93,19.67,8l1.14.47.3.13.23.1.69.29c1.76.75,3.29-1.83,1.52-2.59-3.52-1.5-7.06-3-10.6-4.41q-13.23-5.43-26.58-10.57-18.18-7-36.57-13.49c-13.13-4.59-26.35-8.94-39.7-12.81a329.27,329.27,0,0,0-36.61-8.78c-14.6-2.48-29.26-2.05-43.86.18a265.34,265.34,0,0,0-42.81,10.67c-9.84,3.25-19.47,7-29.22,10.51-1.34.47-2.67.94-4,1.32-.44.13-.9.24-1.35.33s.21-.05-.17,0c0,0-.4,0-.4,0,.12-.33,1,.74,1,1.13a.59.59,0,0,1-.09.41,2.58,2.58,0,0,0,.18-.32c.33-.56.63-1.13,1-1.69a91.57,91.57,0,0,1,9-12.61,145.7,145.7,0,0,1,20-19.38,209.64,209.64,0,0,1,34.4-22.23c7.68-4,15.56-7.66,23.58-11,7-2.87,14.12-5.85,21.5-7.6a81.4,81.4,0,0,1,31.83-.67,138.68,138.68,0,0,1,32.82,10.07,239.9,239.9,0,0,1,32.2,17.34c10.14,6.43,19.92,13.44,29.38,20.84Q1411.34,463,1423.55,474q9.59,8.58,18.81,17.57c3.66,3.55,7.23,7.18,10.9,10.72a10.67,10.67,0,0,0,2.15,1.88c1.71.89,3.23-1.7,1.52-2.59Z"/><path class="cls-1" d="M1504.54,548c.31.66,0-.18-.06-.48-.11-.56-.19-1.13-.27-1.7-.29-1.92-.55-3.85-.81-5.77-.91-6.55-1.87-13.1-2.94-19.64q-2.26-13.79-5.18-27.45c-2.31-10.74-5-21.4-8-31.94a320.89,320.89,0,0,0-11.59-33.18,209.66,209.66,0,0,0-15.75-31,124.73,124.73,0,0,0-20.45-25.27,79.69,79.69,0,0,0-25.93-16.41,219.67,219.67,0,0,0-27.11-7.8,265.12,265.12,0,0,0-26.82-4.93,190.88,190.88,0,0,0-41.65-1.16,127.69,127.69,0,0,0-25.8,4.79c-2.36.72-4.7,1.54-7,2.47-1.27.51-3.81,1.1-3.78,2.86,0,2,3,2.75,4.47,3.27,3.27,1.18,6.63,2.15,10,3.16,11,3.35,22,6.82,32.7,10.93a223.36,223.36,0,0,1,38.8,18.82,128.88,128.88,0,0,1,17.63,13.1,149.76,149.76,0,0,1,13.1,13.68c9.09,10.51,17.4,21.68,25.42,33,8.46,12,16.56,24.18,24.44,36.53Q1458,499.82,1467.73,516q5.91,9.84,11.63,19.77c.52.9,1,1.8,1.54,2.7a1.5,1.5,0,0,0,2.59-1.51c-2-3.57-4.08-7.1-6.15-10.64q-7.92-13.51-16.14-26.84-10.92-17.72-22.42-35.05c-8-12.08-16.36-24-25.17-35.54-7.77-10.18-15.86-20.44-25.27-29.17-10.72-9.94-23.35-17.68-36.43-24.1a300.13,300.13,0,0,0-37.69-15.15c-8.67-2.89-17.49-5.31-26.15-8.22-.62-.21-1.23-.42-1.84-.65l-.73-.28-.32-.13c.3.12.12.06,0,0-.32-.15-.63-.33-.94-.48s0,0,0,0c-.24-.33.12.27,0,.06.24.57.09,1.49-.34,1.57a4.26,4.26,0,0,0,.69-.32l.42-.18c.17-.08.68-.29.22-.1l1.22-.5a99.23,99.23,0,0,1,18.24-5.13,156.06,156.06,0,0,1,33.71-2.39,237.78,237.78,0,0,1,50.05,7.22c13.4,3.31,27,6.79,38.6,14.55a97.1,97.1,0,0,1,22.32,21.4,165.41,165.41,0,0,1,17.39,28.44,267.71,267.71,0,0,1,13.14,32.25c3.62,10.72,6.72,21.61,9.41,32.6,2.41,9.81,4.49,19.7,6.32,29.63,1.43,7.76,2.69,15.55,3.83,23.36.67,4.59,1.25,9.19,1.95,13.78a9.26,9.26,0,0,0,.59,2.6c.82,1.74,3.41.22,2.59-1.52Z"/><path class="cls-1" d="M1514.83,565.18c23.71,13,42.82,32.72,58.39,54.57,16.14,22.66,29.29,47.62,40,73.25a435.91,435.91,0,0,1,33.66,165.79,423,423,0,0,1-8,84.38q-1.05,5.24-2.21,10.44c-.43,1.88,2.47,2.68,2.89.79a426.36,426.36,0,0,0,10.24-85.28,438.41,438.41,0,0,0-6.83-85.66,433.88,433.88,0,0,0-23.35-82.61,399.36,399.36,0,0,0-38.81-75.3c-14.93-22.4-33.07-43.18-55.87-57.84q-4.21-2.72-8.63-5.12c-1.7-.93-3.21,1.66-1.52,2.59Z"/><path class="cls-1" d="M1589.61,780.07c-10.83-4.58-22.46-6.43-34.13-7.14a328.62,328.62,0,0,0-36.87.06q-18.57,1-37,3.74-9.27,1.39-18.48,3.24c-5.68,1.15-11.39,2.33-17,4a52.84,52.84,0,0,0-14.81,6.66,41.35,41.35,0,0,0-10.61,10.74c-6.11,8.81-9.57,19.42-12.44,29.65-6.27,22.25-8.35,46.28-2.43,68.84,5,19,15.62,36.75,31.32,48.74q2.89,2.2,6,4.12v-2.59c-17.83,9-37.8,12.47-55.63,21.42-8,4-15.65,9.17-21.63,15.92-1.44,1.62-3,3.38-3.64,5.52a6.19,6.19,0,0,0,1.72,6,27.34,27.34,0,0,0,5.38,4.06,51.9,51.9,0,0,0,6.64,3.5c9.39,4.15,19.54,6.22,29.67,7.53,10.62,1.37,21.34,2,32,2.72q32.88,2.07,65.87,2,32.82-.12,65.6-2.39,4.08-.28,8.16-.6c1.91-.15,1.92-3.15,0-3q-31.87,2.47-63.85,2.9t-63.91-1.2c-10.58-.54-21.15-1.23-31.7-2.13-10.09-.85-20.21-2-30-4.76a70.17,70.17,0,0,1-13.55-5.15,46.23,46.23,0,0,1-6.19-3.83c-1.61-1.2-3.69-2.76-2.92-5,.7-2.06,2.57-3.82,4-5.35a58.19,58.19,0,0,1,4.72-4.44,71.53,71.53,0,0,1,10.73-7.36c16.67-9.46,35.73-13.14,53.25-20.61q3.4-1.46,6.72-3.12a1.51,1.51,0,0,0,0-2.59c-16.32-10.1-27.92-26.56-34-44.59-7.12-21.13-6.53-44.07-1.59-65.6,2.4-10.45,5.5-21.14,10.43-30.7a47.29,47.29,0,0,1,8.62-12.13,38.75,38.75,0,0,1,13-8.24,98.74,98.74,0,0,1,15.19-4.37q8.79-2,17.68-3.51,18-3.12,36.34-4.47,18-1.34,36-.94c11.43.25,23,1.09,34,4.33a73.48,73.48,0,0,1,7.79,2.76,1.55,1.55,0,0,0,2.05-.53,1.52,1.52,0,0,0-.53-2.06Z"/><path class="cls-1" d="M1351.63,816.19c-9.25.31-17.32,5-24.1,11a102.5,102.5,0,0,0-9.67,10,91.54,91.54,0,0,0-8.84,11.29,21.58,21.58,0,0,0-3.26,14.55,46.88,46.88,0,0,0,5,14.51,88.8,88.8,0,0,0,17,22.72,142,142,0,0,0,10.92,9.75c1.89,1.53,3.82,3,5.76,4.48l2.77,2c.87.63,2.29,1.36,2.74,2.39.78,1.82-3.34,2.7-4.41,3.06-2.46.83-4.94,1.6-7.42,2.35-5,1.52-10.12,2.92-15.16,4.45s-10.14,3.2-15.05,5.24a63.9,63.9,0,0,0-13.53,7.09c-3.82,2.83-6.5,6.56-7,11.38a19.29,19.29,0,0,0,4,13,36.46,36.46,0,0,0,11.15,9.32,112.68,112.68,0,0,0,14.26,6.88,120.47,120.47,0,0,0,30.79,7.91q4,.48,8.06.69c1.93.11,1.92-2.89,0-3a117.71,117.71,0,0,1-45.08-11.63,61.21,61.21,0,0,1-12.46-7.48c-3.57-3-6.45-6.7-7.44-11.32a12.38,12.38,0,0,1,4-12.2c3.51-3.13,8.12-5.2,12.38-7.08a137.41,137.41,0,0,1,14.59-5.31c4.89-1.52,9.82-2.89,14.73-4.34,2.49-.73,5-1.48,7.44-2.27a38.68,38.68,0,0,0,6.49-2.36c1.7-.92,3.06-2.55,2.72-4.59-.38-2.28-2.56-3.57-4.28-4.82-3.79-2.76-7.49-5.63-11.06-8.66a107,107,0,0,1-19.09-20.51,73,73,0,0,1-6.73-12c-2-4.6-3.74-9.72-3.19-14.8.53-4.85,3.45-9,6.42-12.73s5.86-7.1,9-10.44c5.91-6.28,12.85-12.33,21.35-14.64a26.81,26.81,0,0,1,6.23-.93c1.93-.06,1.93-3.06,0-3Z"/><path class="cls-1" d="M1653.08,960.73c.42-6.88,1.82-14.39,7-19.37a14.87,14.87,0,0,1,8.36-4.22c3.6-.42,6.91,1.07,9.85,3A43.54,43.54,0,0,1,1692,954.53a29,29,0,0,1,3.37,9,27.07,27.07,0,0,1-.31,9.95,12.25,12.25,0,0,0,0,5.52,17.27,17.27,0,0,0,2.22,4.39,16.37,16.37,0,0,1,3,8.49c.18,6.18-3,12.2-7.5,16.28-5.11,4.61-11.71,7.16-18.23,9.08a173.77,173.77,0,0,1-22.64,5.18c-14.4,2.22-30,1.54-42.82-6.06a42,42,0,0,1-4.32-2.93c-1.51-1.17-3.65.94-2.12,2.12,12.51,9.71,28.78,12.09,44.18,10.52a159.83,159.83,0,0,0,25.34-5c7.07-1.91,14.29-4.27,20.22-8.7,5.41-4,9.57-9.89,10.62-16.66a18.67,18.67,0,0,0-.92-9.74c-1.3-3.24-4.42-6-4.34-9.72,0-2,.67-4,.89-6a23.34,23.34,0,0,0,0-5.15,30.27,30.27,0,0,0-3-10.05,45.25,45.25,0,0,0-13.84-16c-3-2.27-6.43-4.26-10.26-4.74a15.68,15.68,0,0,0-9.83,2.25c-6.61,3.91-9.81,11.21-10.93,18.54-.29,1.91-.48,3.83-.6,5.76s2.88,1.92,3,0Z"/><path class="cls-1" d="M1392,661.75a20,20,0,0,1-23.69,1.43c-1.61-1.07-3.11,1.53-1.51,2.59a23.06,23.06,0,0,0,27.33-1.9c1.46-1.27-.67-3.38-2.13-2.12Z"/><path class="cls-1" d="M1362.24,647.13c2.17-4-.91-9-5.3-9.41-5.07-.47-8.9,4.46-8.69,9.19.23,5.39,4.08,9.44,8.42,12.15a43.67,43.67,0,0,0,7.46,3.65c2.26.86,5,1.27,6.25-1.34,2.65-5.51-1.29-11.85-5-15.74-1.34-1.41-3.45.72-2.12,2.12,2.5,2.62,4.93,6,4.89,9.84a5.66,5.66,0,0,1-.45,2.44c-.39.71-1.24.33-1.87.12a36.43,36.43,0,0,1-5.67-2.53c-3.29-1.78-6.7-4.1-8.22-7.67-1.33-3.16-.82-7.22,2.56-8.82a3.72,3.72,0,0,1,4.26.53,3.4,3.4,0,0,1,.88,4c-.92,1.7,1.67,3.21,2.59,1.51Z"/><path class="cls-1" d="M1458,523.94a84.14,84.14,0,0,0-61.16-15.34c-10.89,1.52-22.11,5.11-30.54,12.41-7.18,6.21-11.79,14.86-14.27,23.93-2.91,10.6-3.2,21.84-2,32.71l1.9-1.45c-5.36-1.66-10.43,1.39-14.15,5-3.93,3.89-7.11,8.72-10.06,13.37a95.74,95.74,0,0,0-13.31,31.73c-4.25,20.67.42,44.07,16.31,58.84,8.1,7.51,18.3,12.18,28.69,15.6,5.35,1.75,10.79,3.2,16.24,4.58,6.41,1.63,12.86,3.1,19.39,4.18,12.12,2,24.64,2.68,36.74.13a62.8,62.8,0,0,0,27.45-12.93c8.11-6.81,15.14-17.11,15-28.07-.08-6.08-2.55-11.82-5.27-17.16a90.57,90.57,0,0,0-9.51-14.81c-1.8-2.29-3.72-4.48-5.73-6.59-1.34-1.39-3.46.73-2.12,2.12a86.93,86.93,0,0,1,10.54,13.41,70.93,70.93,0,0,1,7.57,15,24.73,24.73,0,0,1-.09,16.86,38.67,38.67,0,0,1-8.17,13c-6.56,7.05-15.22,11.88-24.37,14.69-10.76,3.31-22.12,3.67-33.26,2.52-12-1.24-23.74-4.15-35.3-7.36-10.09-2.79-20.18-6.23-29-12.06a51.41,51.41,0,0,1-18.91-22.93,63.42,63.42,0,0,1-4.6-29.14,82.17,82.17,0,0,1,9-30.86,114.19,114.19,0,0,1,8.61-14.22c3-4.18,6.15-8.73,10.74-11.22a8.54,8.54,0,0,1,6.76-.85,1.52,1.52,0,0,0,1.9-1.45c-2-17.72-.24-38.6,12.78-52.09,7.43-7.71,17.85-11.56,28.19-13.49a81.12,81.12,0,0,1,62.44,14.46c1.55,1.15,3-1.45,1.51-2.59Z"/><path class="cls-1" d="M1370.28,586.5c0-.09,0-.19,0-.27s0,.28,0,.07,0-.33,0-.49,0-.33,0-.49a1.8,1.8,0,0,0,0-.22c0-.12,0-.07,0,.13a.76.76,0,0,1,0-.16,4.59,4.59,0,0,1,.24-.9l.09-.26c.08-.21-.16.33,0,0l.26-.49c.07-.13.15-.25.23-.37s.11-.15.15-.23-.16.2,0,0a8.62,8.62,0,0,1,.72-.76,1.07,1.07,0,0,1,.16-.14s.3-.22.11-.09.09-.07.11-.08l.18-.12c.13-.07.25-.15.38-.21l.24-.12c.31-.15-.07,0,.05,0,.3-.09.59-.18.89-.25s0,0-.06,0a1.33,1.33,0,0,1,.28,0c.14,0,.52-.06.64,0s-.36-.07-.06,0l.22.05a.79.79,0,0,1,.22.06s.33.16.13,0l.3.2s-.26-.26,0,0,.18.3,0,0l.13.22c.15.24,0,0,0,0a2.63,2.63,0,0,0,.08.3c0,.21,0-.33,0,0,0,.16,0,.33,0,.5,0-.31,0-.07,0,0s-.06.26-.1.39-.14.42-.22.64c0,0-.11.26,0,0a2.56,2.56,0,0,0-.11.24c-.18.38-.36.75-.56,1.11l-.17.27c0,.06-.27.35-.06.11l-.17.18c-.06.07-.34.24-.08.09,0,0-.16.11-.18.1.18-.07.22-.08.12-.05l-.16.05c-.24.08.11-.06.09,0h-.16c-.11,0-.07,0,.15,0,0,0-.2,0-.2,0,.2.09.24.1.09,0l.15.11c-.19-.15,0,0,0,.07s.1.56.12.31c0,.49.07,0,0,.22s-.06.12,0,0q-.21.24-.09.12c.12-.12-.19.12-.24.14a.61.61,0,0,1-.33.06c-.26,0-.3-.06-.14,0a1.5,1.5,0,0,0,1.84-1,1.52,1.52,0,0,0-1-1.84,2.39,2.39,0,0,0-3,2.35,2.59,2.59,0,0,0,2.75,2.51,3.84,3.84,0,0,0,3.15-2.06,10.78,10.78,0,0,0,1.39-3.28,4.29,4.29,0,0,0-.84-3.83,4.55,4.55,0,0,0-3.26-1.37,7.12,7.12,0,0,0-5.49,2.57,7.79,7.79,0,0,0-1.79,6.67,1.5,1.5,0,0,0,1.84,1.05,1.54,1.54,0,0,0,1-1.84Z"/><path class="cls-1" d="M1399,587.3v-.23c0-.26,0,0,0,.11a1.6,1.6,0,0,0,0-.21c0-.07.12-.34,0-.08s0,0,0,0a1.74,1.74,0,0,0,.11-.18c.05-.11-.13.16-.13.17s0-.06.07-.08l.17-.18a2,2,0,0,0,.16-.14c-.07.11-.29.2-.08.06l.42-.23c.25-.13-.18.06-.09,0l.22-.07a3.37,3.37,0,0,1,.48-.12c.24-.05.05,0-.1,0l.23,0a4.17,4.17,0,0,1,.5,0h.11s-.36-.07-.21,0l.22,0,.47.14c-.15,0-.3-.13-.09,0a1.18,1.18,0,0,1,.19.11c.2.13,0,.06-.06-.06.06.07.14.12.2.18l.16.17c.1.09-.11-.12-.1-.12s.08.11.09.11.22.52.3.54-.1-.29-.07-.14a.78.78,0,0,0,0,.14c0,.08,0,.17.08.27a2.56,2.56,0,0,1,0,.27c.06.24,0-.32,0,0a5.42,5.42,0,0,1,0,.57,2.83,2.83,0,0,0,0,.29c0,.16,0-.16,0-.16s0,.16,0,.19a4.34,4.34,0,0,1-.16.62c0,.09-.06.19-.1.28-.12.32.09-.17,0,.05s-.18.36-.28.53-.1.17-.16.25-.25.35-.11.17-.07.08-.11.12l-.2.22c-.1.1-.43.31-.47.43s.23-.16.08-.06l-.16.1-.16.1c-.13.09,0,0,.07,0-.32,0,.24,0,0,0h-.11c-.16,0,.33,0,.18,0l-.11,0s.29.16.2.08-.28-.19-.06,0,0,0,0-.06.11.15.11.16a1.48,1.48,0,0,1-.08-.13,1.32,1.32,0,0,1-.12-.2c-.12-.22.09.3,0,.05,0-.08,0-.16-.07-.24s-.07-.4,0-.14,0-.08,0-.15,0-.2,0-.3c0-.33-.06.24,0,0s0-.2.07-.29c.09-.3-.11.21,0-.05l.18-.36.41-.7a7.68,7.68,0,0,0,1.35-3.5,1.5,1.5,0,1,0-3,0c0,.22,0,0,0-.06s0,.14,0,.16a2.38,2.38,0,0,1-.11.38.86.86,0,0,1-.07.21s.14-.31,0,0l-.21.4c-.28.51-.6,1-.89,1.5a5.06,5.06,0,0,0-.67,3.52,3.39,3.39,0,0,0,2.1,2.63c1.38.51,2.77-.37,3.7-1.34a6.89,6.89,0,0,0,1.81-6.44,4.52,4.52,0,0,0-4.77-3.42c-2.23.15-4.57,1.71-4.44,4.2a1.5,1.5,0,0,0,3,0Z"/><path class="cls-1" d="M1369.33,582.66a135.92,135.92,0,0,1,8.59-15.49c2.67-4.07,6.44-8.23,11.74-7.94s7.07,6.28,6.73,10.82c-.37,4.83-3,9.37-6.34,12.77-3.53,3.56-9.63,7.44-14.65,4.58a1.5,1.5,0,0,0-1.52,2.59c5.38,3.06,11.72.45,16.14-3.11a25.13,25.13,0,0,0,9.08-14.57c1-5.26-.09-12.36-5.38-15-5.44-2.75-11.6.12-15.33,4.31a52.36,52.36,0,0,0-5.94,8.79q-3.08,5.26-5.71,10.76c-.83,1.73,1.75,3.26,2.59,1.52Z"/><path class="cls-1" d="M1394.05,593.75c-.39-6.64,3.47-12.72,9-16.11a26.08,26.08,0,0,1,9.57-3.37c3.34-.53,7.45-.91,10.31,1.26a31.09,31.09,0,0,1,3.44,3.35l4.5,4.67c2.36,2.44,5.12,5.11,3.55,8.77-1.23,2.85-3.81,5.46-6.07,7.53a11.12,11.12,0,0,1-3.86,2.48,10.3,10.3,0,0,1-5.77-.05c-4.18-1-8.24-2.75-12.29-4.19q-6.45-2.31-12.88-4.68c-1.81-.67-2.59,2.23-.79,2.9q6.54,2.41,13.1,4.75c4.17,1.49,8.4,3.33,12.73,4.27a12.43,12.43,0,0,0,11-2.58,33.23,33.23,0,0,0,3.86-3.92,23,23,0,0,0,3.38-4.64c1.89-3.75,1-7.29-1.63-10.4-1.39-1.64-3-3.15-4.46-4.7s-3-3.21-4.59-4.72a11.76,11.76,0,0,0-5.07-3,18.93,18.93,0,0,0-6-.36,31.79,31.79,0,0,0-11.21,2.8c-7.63,3.55-13.41,11.31-12.9,20,.11,1.92,3.11,1.93,3,0Z"/><path class="cls-1" d="M1375.64,548.22c6-2.83,12.93-5,19.6-5.19a7.27,7.27,0,0,1,7.13,4c1.51,2.81,1.7,6.1,2.1,9.21.32,2.47.54,6.59,3.37,7.6,1.54.55,3.16-.22,4.61-.73l5-1.76c6-2.07,12.18-3.62,18.51-2.25a26.31,26.31,0,0,1,15.6,10c1.13,1.54,3.73,0,2.59-1.52A29.4,29.4,0,0,0,1440,557.14c-6.17-2.16-12.59-1.87-18.82-.13-3.38,1-6.65,2.21-10,3.36-.55.19-1.9.92-2.45.61s-.56-1-.67-1.41a40.91,40.91,0,0,1-.95-5.93c-.76-6.09-3-12.86-10.13-13.55-3.76-.37-7.87.55-11.51,1.45a59.65,59.65,0,0,0-11.38,4.09c-1.74.83-.22,3.41,1.51,2.59Z"/><path class="cls-1" d="M1365.76,666.87c-.81,4.46-1.64,8.91-2.44,13.37a5.18,5.18,0,0,0,0,2.79,3.4,3.4,0,0,0,2.24,1.92,30.88,30.88,0,0,0,6.36,1.53,1.52,1.52,0,0,0,1.9-1.45,32.85,32.85,0,0,1,2.42-13.95,1.5,1.5,0,0,0-1-1.84,1.53,1.53,0,0,0-1.84,1,35,35,0,0,0-2.53,14.75l1.9-1.45a32.62,32.62,0,0,1-5.27-1.17,7.68,7.68,0,0,1-1.23-.4c-.08,0-.19-.16-.1,0a.83.83,0,0,1,0-.38,18.52,18.52,0,0,1,.47-2.66l2.05-11.29a1.55,1.55,0,0,0-1-1.85,1.52,1.52,0,0,0-1.85,1Z"/><path class="cls-1" d="M1375.1,686.25a6.89,6.89,0,0,0,5.09,1.1,4,4,0,0,0,3.52-3.64c.68-4.79,1.12-9.62,1.68-14.43a1.5,1.5,0,0,0-3,0l-1.38,11.9a15.62,15.62,0,0,1-.32,2.46c-.16.54-.36.62-.82.73a4,4,0,0,1-3.25-.71,1.51,1.51,0,0,0-2.06.54,1.54,1.54,0,0,0,.54,2Z"/><path class="cls-1" d="M1383.47,715.82c-11.53-3.16-25-6.16-35.33,1.72-8.84,6.73-12.41,17.74-18.58,26.57-3.15,4.53-7.12,8.74-12.15,11.15a17.21,17.21,0,0,1-14.72.18A20,20,0,0,1,1292.52,745a17.66,17.66,0,0,1-1.15-7.45c.13-2.78.52-5.69-.31-8.4-1.83-5.94-8.13-6.65-13.43-7-7-.42-14-1-21.05-1.19-6.31-.17-13,.31-18.65,3.46-4.57,2.56-8.57,7-9.69,12.19a12.53,12.53,0,0,0,.7,8c1.3,2.71,3.87,3.87,6.74,4.1,3.36.26,6.81,0,10.18-.05l10.83-.12a34.09,34.09,0,0,1,4.52,0,2.51,2.51,0,0,1,2.36,2.53c.34,2.58-.24,5.27-.08,7.88a38.18,38.18,0,0,0,4.44,15.36,49.7,49.7,0,0,0,24,21.84c11.79,5.17,24.81,6.47,37.56,6,3.24-.13,6.48-.38,9.7-.71,1.91-.19,1.93-3.19,0-3-12.53,1.27-25.44,1.4-37.67-2-10.78-3-20.69-8.91-27.43-18a39.09,39.09,0,0,1-6.76-14.12,30.93,30.93,0,0,1-.88-7.55c0-2.48.59-5.11-.21-7.53-.93-2.81-3.44-3.71-6.19-3.72-3.41,0-6.82.08-10.23.12l-10.58.12c-2.61,0-6.09.43-7.52-2.3-2.45-4.68.6-10.45,4-13.68,4.4-4.13,10.42-5.48,16.28-5.73,6.74-.29,13.54.45,20.25.85,3.07.19,6.2.21,9.24.65,2.49.36,5.17,1.19,6.35,3.61s.68,5.45.54,8a21,21,0,0,0,.79,7.36,22.52,22.52,0,0,0,8.74,11.62,20.73,20.73,0,0,0,13.93,3.77,25,25,0,0,0,13.81-6.74c8.18-7.43,11.77-18,18.13-26.8,3-4.18,6.94-7.85,11.9-9.57,5.83-2,12.16-1.49,18.11-.3,3,.61,5.93,1.38,8.87,2.19a1.5,1.5,0,0,0,.8-2.89Z"/><path class="cls-1" d="M1512.89,638.66a158,158,0,0,1,8,41.85c.69,13.39.07,27.32-3.52,40.3-3.25,11.72-9.57,22.81-20.36,29a32.06,32.06,0,0,1-15.88,4.51,25.94,25.94,0,0,1-8.37-1.41c-3.07-1.06-6.18-2.31-9.43-1.18-2.72.94-4.87,2.93-6.88,4.91l-8.11,8c-5.25,5.19-10.41,10.48-15.76,15.56-4.11,3.91-9.06,7.94-15,7.93-5.09,0-10.13-3.12-10-8.7.11-6.17,5.37-11.41,9.37-15.54,4.61-4.76,9.26-9.5,14.27-13.85a87.18,87.18,0,0,1,16.4-11.41c5.47-2.87,11.18-5.23,16.66-8.08A53.69,53.69,0,0,0,1478.87,720a47.48,47.48,0,0,0,8.93-13.87c4.55-10.58,6-22.19,6.8-33.59.19-2.77.33-5.54.46-8.32.08-1.93-2.92-1.92-3,0-.54,11.84-1.31,23.88-5,35.23a51.21,51.21,0,0,1-7.54,15.09,44.25,44.25,0,0,1-13.67,11.68c-5.59,3.22-11.55,5.68-17.32,8.54a89,89,0,0,0-16.71,10.76,182.39,182.39,0,0,0-15,14.05c-4.47,4.58-9.4,9.28-11.57,15.47-1.92,5.46-.22,11.56,5,14.38,4.89,2.62,10.71,2,15.52-.43,6-3.07,10.65-8.47,15.36-13.13l16.58-16.4c2.05-2,4.34-4.63,7.35-5.13s6.32,1.51,9.31,2.22a31.17,31.17,0,0,0,17.14-1c11.73-4,20.37-13.38,25.27-24.57,5.42-12.38,6.92-26.28,7.14-39.68a160.59,160.59,0,0,0-5.18-43.1q-1.35-5.22-3.07-10.34c-.61-1.82-3.51-1-2.9.8Z"/></svg>