<svg id="Layer_1" data-name="Layer 1" xmlns="http://www.w3.org/2000/svg" viewBox="0 0 1920 1080"><defs><style>.cls-1{fill:#3785e2;opacity:0.5;}</style></defs><ellipse class="cls-1" cx="998.72" cy="523.13" rx="440.75" ry="273.19"/><path d="M878.24,524q0,46.26-23.41,70.23t-69.4,24H733V430.31h52.4q46,0,69.4,23.69T878.24,524Zm-21.18,0q0-19.79-4.74-33.86t-13.79-23A54.69,54.69,0,0,0,816.09,454a103.06,103.06,0,0,0-30.66-4.18H754.22V598.65h31.21q17.28,0,30.66-4.18a53.75,53.75,0,0,0,22.44-13.24q9-9,13.79-23.27T857.06,524Z"/><path d="M909.46,441.74a14.76,14.76,0,0,1,3.62-10q3.61-4.18,10.59-4.19,7.25,0,10.73,4.19a15.16,15.16,0,0,1,3.48,10,14.62,14.62,0,0,1-3.48,9.89q-3.49,4-10.73,4-7,0-10.59-4A14.25,14.25,0,0,1,909.46,441.74ZM934,618.16H913.36V483.55H934Z"/><path d="M998.08,618.16H977.46V483.55h16.72l3.9,21.74a76.74,76.74,0,0,1,7.67-8.23,55.56,55.56,0,0,1,10.73-7.8,71.3,71.3,0,0,1,13.52-5.85,52.13,52.13,0,0,1,16-2.37q21.46,0,33.59,13.93t12.12,38.74v84.45h-20.34V533.71q0-15.88-7.67-25.08t-21-9.2a48.24,48.24,0,0,0-25.78,7.11A62.8,62.8,0,0,0,998.08,524Z"/><path d="M1225,592.52a49.29,49.29,0,0,1-17.15,18.54,47.05,47.05,0,0,1-26.61,7.66,56.14,56.14,0,0,1-22.58-4.46,48.14,48.14,0,0,1-17.7-13.1,62,62,0,0,1-11.56-21.6,96.53,96.53,0,0,1-4.18-29.68,90.36,90.36,0,0,1,3.9-27A65.28,65.28,0,0,1,1140.51,501,52.72,52.72,0,0,1,1182.87,481a43.1,43.1,0,0,1,14.49,2.37,52.36,52.36,0,0,1,11.85,5.85,54.09,54.09,0,0,1,9.2,7.8,60.38,60.38,0,0,1,6.55,8.23l3.62-21.74h17V608.13q0,17.57-4.46,30a53.24,53.24,0,0,1-12.54,20.35,49.56,49.56,0,0,1-19.37,11.7,78.5,78.5,0,0,1-25,3.77,99.39,99.39,0,0,1-27.59-3.77q-13.11-3.75-20.9-8.5l5-16.72a78,78,0,0,0,18.68,7.67,84.43,84.43,0,0,0,22.57,2.92,68.47,68.47,0,0,0,17.42-2.09A29.87,29.87,0,0,0,1213,645.9a37.08,37.08,0,0,0,8.78-14.64q3.2-9.19,3.21-23.41Zm0-68a56.84,56.84,0,0,0-16.87-17.7,38.32,38.32,0,0,0-21.88-7.11q-17.55,0-29.26,12.4t-11.71,37.77q0,13.67,3.21,23.27a43.18,43.18,0,0,0,8.64,15.61,33.29,33.29,0,0,0,12.4,8.78,38.63,38.63,0,0,0,14.49,2.79,37.5,37.5,0,0,0,29.69-13.8A47,47,0,0,0,1222,571.2a60,60,0,0,0,2.93-19.09Z"/><path d="M1285.71,605.34a15.64,15.64,0,0,1,4-10.87q4-4.46,11.57-4.46t11.57,4.46a16.64,16.64,0,0,1,0,21.74q-4,4.45-11.57,4.46t-11.57-4.46A15.61,15.61,0,0,1,1285.71,605.34ZM1312.19,473l-3.07,92.82h-15.33L1290.73,473V430.31h21.46Z"/><path d="M1446.15,556.19a178.32,178.32,0,0,1-3.61,35.32A187.16,187.16,0,0,1,1432,625.42a214.26,214.26,0,0,1-16.53,31.46,260,260,0,0,1-21.25,28.5c-15.45,18-33.29,33.91-52.37,48a420,420,0,0,1-60.77,37,514.24,514.24,0,0,1-65.7,27.31,616,616,0,0,1-68.67,18.7,647.66,647.66,0,0,1-70.35,10.81c-11.81,1.15-23.64,2.07-35.5,2.62s-23.71.84-35.58.86a693.15,693.15,0,0,1-141.33-14.74c-46.37-9.93-91.79-24.82-134.29-45.94a423.23,423.23,0,0,1-60.83-36.73,314.35,314.35,0,0,1-52.59-47.74A252.12,252.12,0,0,1,594.84,657a213.88,213.88,0,0,1-16.68-31.44,188.46,188.46,0,0,1-10.73-34,173,173,0,0,1-.16-70.9,187.91,187.91,0,0,1,10.58-34.06,214.29,214.29,0,0,1,16.56-31.58,251.76,251.76,0,0,1,21.33-28.58c15.51-18.06,33.41-33.95,52.55-48a417.19,417.19,0,0,1,61-36.83,524.9,524.9,0,0,1,65.81-27.2,618.19,618.19,0,0,1,68.72-18.66,691.12,691.12,0,0,1,141.48-14.33q17.81,0,35.59.9c11.86.58,23.7,1.51,35.51,2.68a652.43,652.43,0,0,1,70.35,10.89,615,615,0,0,1,68.67,18.75,515.91,515.91,0,0,1,65.7,27.35,420.06,420.06,0,0,1,60.77,37,314.58,314.58,0,0,1,52.37,48,260,260,0,0,1,21.25,28.5A214.37,214.37,0,0,1,1432,487a187.93,187.93,0,0,1,10.56,33.91A179.16,179.16,0,0,1,1446.15,556.19Zm-.3,0a178.2,178.2,0,0,0-3.7-35.24,188.42,188.42,0,0,0-10.64-33.8,213.72,213.72,0,0,0-16.59-31.33,246.65,246.65,0,0,0-21.34-28.3A313.47,313.47,0,0,0,1341,380.1a417,417,0,0,0-60.82-36.32A532.94,532.94,0,0,0,1214.58,317a612.94,612.94,0,0,0-68.46-18.33,704.48,704.48,0,0,0-281.71.13A616.27,616.27,0,0,0,796,317.26a523.65,523.65,0,0,0-65.51,26.9,421.33,421.33,0,0,0-60.64,36.44A312.67,312.67,0,0,0,617.48,428a250.58,250.58,0,0,0-21.27,28.23,212.56,212.56,0,0,0-16.55,31.2A186.14,186.14,0,0,0,569,521.09a171.43,171.43,0,0,0-.17,70.23,186.66,186.66,0,0,0,10.48,33.76,212.93,212.93,0,0,0,16.43,31.34A250.51,250.51,0,0,0,617,684.78c15.44,17.92,33.27,33.7,52.33,47.68A413.08,413.08,0,0,0,730.1,769a520.81,520.81,0,0,0,65.62,26.93,614.72,614.72,0,0,0,68.54,18.3,694.76,694.76,0,0,0,141,13.89q17.73-.06,35.46-.91c11.81-.58,23.6-1.52,35.36-2.69s23.49-2.67,35.17-4.49,23.33-3.85,34.91-6.25a613.58,613.58,0,0,0,68.45-18.38,533.17,533.17,0,0,0,65.62-26.78A417.1,417.1,0,0,0,1341,732.3a313.53,313.53,0,0,0,52.56-47.43,245.89,245.89,0,0,0,21.34-28.31,212.65,212.65,0,0,0,16.58-31.33,186.79,186.79,0,0,0,10.63-33.8A178.28,178.28,0,0,0,1445.85,556.19Z"/><path d="M1489.32,557.32a211.06,211.06,0,0,1-4.26,41.65,221.21,221.21,0,0,1-12.48,40,250.52,250.52,0,0,1-19.5,37.08,303.89,303.89,0,0,1-25.07,33.6,333.11,333.11,0,0,1-29.28,30,406.8,406.8,0,0,1-32.49,26.54,496.28,496.28,0,0,1-71.67,43.51,609.23,609.23,0,0,1-77.48,32.17,726.4,726.4,0,0,1-81,22,768.9,768.9,0,0,1-82.94,12.74c-13.92,1.36-27.87,2.44-41.85,3.1s-28,1-42,1a817.67,817.67,0,0,1-166.65-17.3c-54.67-11.68-108.24-29.22-158.35-54.12A499.69,499.69,0,0,1,572.64,766a406.05,406.05,0,0,1-32.59-26.39,335.92,335.92,0,0,1-29.4-29.9,295.68,295.68,0,0,1-25.19-33.54,252.76,252.76,0,0,1-19.65-37.08,221.33,221.33,0,0,1-12.63-40,203.91,203.91,0,0,1-.17-83.55,222.37,222.37,0,0,1,12.48-40.13A253.08,253.08,0,0,1,485,438.19a296.84,296.84,0,0,1,25.14-33.68,336,336,0,0,1,29.39-30,404.22,404.22,0,0,1,32.58-26.54A493,493,0,0,1,644,304.52a621.35,621.35,0,0,1,77.59-32,725.31,725.31,0,0,1,81-22,814.87,814.87,0,0,1,166.8-16.9q21,0,42,1.06c14,.67,27.94,1.77,41.86,3.15a773.92,773.92,0,0,1,83,12.82,726.51,726.51,0,0,1,81,22.08,610.8,610.8,0,0,1,77.48,32.19,496.37,496.37,0,0,1,71.66,43.54,406.83,406.83,0,0,1,32.5,26.53A335.92,335.92,0,0,1,1428,405a303.89,303.89,0,0,1,25.07,33.6,253,253,0,0,1,19.5,37.09,221.14,221.14,0,0,1,12.46,40A211.22,211.22,0,0,1,1489.32,557.32Zm-.3,0a211.2,211.2,0,0,0-4.36-41.57,221,221,0,0,0-12.54-39.87,252.79,252.79,0,0,0-19.55-36.95,291,291,0,0,0-25.17-33.4,335.44,335.44,0,0,0-29.4-29.74,406,406,0,0,0-32.56-26.24,493.42,493.42,0,0,0-71.73-42.88,624.06,624.06,0,0,0-77.39-31.59,724,724,0,0,0-80.76-21.66,830.2,830.2,0,0,0-332.34.14,723.38,723.38,0,0,0-80.7,21.74,616.38,616.38,0,0,0-77.28,31.75,495.79,495.79,0,0,0-71.55,43,403,403,0,0,0-32.48,26.24A334,334,0,0,0,511.92,406a293.55,293.55,0,0,0-25.09,33.32,249.88,249.88,0,0,0-19.52,36.83,220.09,220.09,0,0,0-12.53,39.73,202.34,202.34,0,0,0-.16,82.89A219.68,219.68,0,0,0,467,638.61a249.8,249.8,0,0,0,19.4,37,295.6,295.6,0,0,0,25,33.46,336.81,336.81,0,0,0,29.28,29.86,405,405,0,0,0,32.47,26.38,489.58,489.58,0,0,0,71.65,43.11,615.8,615.8,0,0,0,77.4,31.78,723.64,723.64,0,0,0,80.84,21.63,819.76,819.76,0,0,0,166.3,16.46q20.93-.07,41.83-1.08c13.93-.68,27.84-1.78,41.71-3.16,3.47-.37,6.94-.68,10.4-1.11l10.39-1.24c6.91-.93,13.82-1.84,20.71-2.94,13.78-2.13,27.51-4.55,41.17-7.38a724.08,724.08,0,0,0,80.75-21.71A627.39,627.39,0,0,0,1293.73,808a492.84,492.84,0,0,0,71.72-42.89A402.3,402.3,0,0,0,1398,738.87a334.09,334.09,0,0,0,29.4-29.74,290.65,290.65,0,0,0,25.16-33.4,252.44,252.44,0,0,0,19.55-37,221.63,221.63,0,0,0,12.54-39.88A210.28,210.28,0,0,0,1489,557.32Z"/><path d="M1589.65,508.47a227.49,227.49,0,0,1-4.6,44.92,238.83,238.83,0,0,1-13.45,43.11,272.31,272.31,0,0,1-21,40,326.86,326.86,0,0,1-27,36.22,361.41,361.41,0,0,1-31.59,32.36,436.59,436.59,0,0,1-35,28.61,533.61,533.61,0,0,1-77.3,46.9A655.12,655.12,0,0,1,1296,815.26,782.41,782.41,0,0,1,1208.72,839a828.57,828.57,0,0,1-89.44,13.74c-15,1.47-30.07,2.64-45.14,3.35s-30.15,1.07-45.24,1.09a881.34,881.34,0,0,1-179.71-18.63c-59-12.58-116.74-31.48-170.78-58.33A538,538,0,0,1,601,733.52a435.86,435.86,0,0,1-35.14-28.46,360.16,360.16,0,0,1-31.71-32.25A319.68,319.68,0,0,1,507,636.64a272.88,272.88,0,0,1-21.19-40,239.59,239.59,0,0,1-13.61-43.16,220,220,0,0,1-.16-90.09,239.13,239.13,0,0,1,13.46-43.27A272.29,272.29,0,0,1,506.6,380a322,322,0,0,1,27.11-36.31,364.13,364.13,0,0,1,31.69-32.38,435.93,435.93,0,0,1,35.14-28.61A531.17,531.17,0,0,1,678,235.92a668.73,668.73,0,0,1,83.67-34.55A785.23,785.23,0,0,1,849,177.67a879.24,879.24,0,0,1,179.86-18.22q22.63.06,45.26,1.14c15.07.73,30.12,1.91,45.14,3.4a836.28,836.28,0,0,1,89.44,13.81,786.6,786.6,0,0,1,87.32,23.8,660.14,660.14,0,0,1,83.55,34.7,533.69,533.69,0,0,1,77.29,46.93,436.62,436.62,0,0,1,35,28.6,362.86,362.86,0,0,1,31.59,32.37,326,326,0,0,1,27,36.23,272.71,272.71,0,0,1,21,40,239.18,239.18,0,0,1,13.45,43.12A227.4,227.4,0,0,1,1589.65,508.47Zm-.3,0a226.64,226.64,0,0,0-4.7-44.84,238,238,0,0,0-13.52-43,272,272,0,0,0-21.08-39.86,315,315,0,0,0-27.14-36,362.29,362.29,0,0,0-31.7-32.09,437.67,437.67,0,0,0-35.12-28.31,531.64,531.64,0,0,0-77.36-46.27,675.13,675.13,0,0,0-83.47-34.1,780,780,0,0,0-87.1-23.37,895.32,895.32,0,0,0-358.48.13,783.48,783.48,0,0,0-87.06,23.46,664.24,664.24,0,0,0-83.35,34.26,533.11,533.11,0,0,0-77.18,46.4,432.81,432.81,0,0,0-35,28.31,359.46,359.46,0,0,0-31.6,32.06,318.14,318.14,0,0,0-27.06,35.95,270.56,270.56,0,0,0-21,39.74,236.76,236.76,0,0,0-13.51,42.86,218.47,218.47,0,0,0-.17,89.43,237.54,237.54,0,0,0,13.36,43A271,271,0,0,0,508,636a320.39,320.39,0,0,0,27,36.08,362.29,362.29,0,0,0,31.58,32.21,436.67,436.67,0,0,0,35,28.45,527.86,527.86,0,0,0,77.28,46.51,664.62,664.62,0,0,0,83.48,34.28,784,784,0,0,0,87.18,23.35A884.3,884.3,0,0,0,1028.9,854.7q22.57-.08,45.12-1.16c15-.73,30-1.92,45-3.41,3.74-.4,7.49-.74,11.22-1.19l11.21-1.34c7.45-1,14.91-2,22.33-3.17,14.87-2.3,29.68-4.91,44.41-8a781.79,781.79,0,0,0,87.1-23.42,676.85,676.85,0,0,0,83.47-34.13,532,532,0,0,0,77.35-46.29,434.28,434.28,0,0,0,35.12-28.32,361,361,0,0,0,31.71-32.09,312.88,312.88,0,0,0,27.13-36,270.65,270.65,0,0,0,21.08-39.87,238,238,0,0,0,13.52-43A227.46,227.46,0,0,0,1589.35,508.47Z"/><path d="M1468.93,478.27a239.41,239.41,0,0,1-4.66,46.33,252.07,252.07,0,0,1-13.67,44.53,284.85,284.85,0,0,1-21.42,41.38,335.66,335.66,0,0,1-27.6,37.56c-20.07,23.79-43.33,44.76-68.24,63.38A546.73,546.73,0,0,1,1254,760.32a668.72,668.72,0,0,1-86,36.17,800.29,800.29,0,0,1-90,24.8,846.49,846.49,0,0,1-92.2,14.35c-15.48,1.54-31,2.76-46.53,3.5s-31.1,1.12-46.65,1.14a896.31,896.31,0,0,1-185.29-19.45C646.59,807.69,587.08,788,531.52,759.94a551.54,551.54,0,0,1-79.47-48.65c-25-18.52-48.29-39.41-68.45-63.13a328.6,328.6,0,0,1-27.73-37.51,286.54,286.54,0,0,1-21.57-41.37,251.33,251.33,0,0,1-13.81-44.57,230.73,230.73,0,0,1-.17-92.91A251.6,251.6,0,0,1,334,387.13a286.43,286.43,0,0,1,21.45-41.51A330.86,330.86,0,0,1,383.12,308c20.14-23.82,43.46-44.8,68.42-63.41a545.07,545.07,0,0,1,79.58-48.77,678.5,678.5,0,0,1,86.09-36.05,798.61,798.61,0,0,1,90-24.75,895,895,0,0,1,185.44-19q23.34.06,46.66,1.2c15.54.75,31.06,2,46.54,3.55a851.61,851.61,0,0,1,92.2,14.43A797.24,797.24,0,0,1,1168,160a670.3,670.3,0,0,1,86,36.2,547.39,547.39,0,0,1,79.39,48.89c24.91,18.62,48.16,39.6,68.23,63.39A334.5,334.5,0,0,1,1429.2,346a286,286,0,0,1,21.42,41.39,252,252,0,0,1,13.65,44.53A239.49,239.49,0,0,1,1468.93,478.27Zm-.3,0a239.48,239.48,0,0,0-4.76-46.25,251.7,251.7,0,0,0-13.73-44.42,286.23,286.23,0,0,0-21.47-41.25A321.7,321.7,0,0,0,1401,309c-20.16-23.62-43.48-44.4-68.42-62.82A543.58,543.58,0,0,0,1253.08,198a685.28,685.28,0,0,0-85.89-35.61,796.26,796.26,0,0,0-89.74-24.42,911,911,0,0,0-369.6.14,794.53,794.53,0,0,0-89.68,24.51,675.59,675.59,0,0,0-85.78,35.75,546,546,0,0,0-79.28,48.37c-24.89,18.42-48.14,39.2-68.24,62.78a328.47,328.47,0,0,0-27.62,37.29,284.65,284.65,0,0,0-21.44,41.12,250.49,250.49,0,0,0-13.72,44.28,229.4,229.4,0,0,0-.17,92.25,250.49,250.49,0,0,0,13.58,44.38,285.06,285.06,0,0,0,21.31,41.27,328.37,328.37,0,0,0,27.59,37.41c20.07,23.68,43.31,44.56,68.2,63.07A540.4,540.4,0,0,0,532,759a673.8,673.8,0,0,0,85.91,35.79,796.75,796.75,0,0,0,89.81,24.4,899.11,899.11,0,0,0,184.94,18.6q23.26-.07,46.52-1.21c15.5-.76,31-2,46.4-3.56,7.72-.76,15.41-1.71,23.11-2.65l11.53-1.58c3.84-.51,7.67-1.15,11.5-1.72,15.33-2.41,30.6-5.15,45.78-8.34a793.64,793.64,0,0,0,89.73-24.47,686.9,686.9,0,0,0,85.89-35.63,544,544,0,0,0,79.45-48.26c25-18.42,48.27-39.2,68.43-62.82a322.67,322.67,0,0,0,27.71-37.36,285.76,285.76,0,0,0,21.46-41.26,251.7,251.7,0,0,0,13.73-44.42A240.18,240.18,0,0,0,1468.63,478.27Z"/><path d="M1721.65,568.3a276.74,276.74,0,0,1-5.37,53.4A290.53,290.53,0,0,1,1700.55,673a330.25,330.25,0,0,1-24.66,47.71,385.76,385.76,0,0,1-31.81,43.31c-23.12,27.43-49.91,51.62-78.61,73.08A629.68,629.68,0,0,1,1474,893.5a770.67,770.67,0,0,1-99.09,41.71,918.77,918.77,0,0,1-103.67,28.59A975.33,975.33,0,0,1,1165,980.37c-17.85,1.78-35.73,3.19-53.64,4s-35.84,1.29-53.77,1.32A1032.77,1032.77,0,0,1,844,963.35c-70-15.14-138.64-37.9-202.67-70.23A633.82,633.82,0,0,1,549.73,837c-28.76-21.36-55.62-45.47-78.84-72.83A379.19,379.19,0,0,1,439,720.89a330,330,0,0,1-24.81-47.7,290.91,290.91,0,0,1-15.88-51.38,266.33,266.33,0,0,1-.17-107.06,292.24,292.24,0,0,1,15.73-51.48,331.41,331.41,0,0,1,24.7-47.84A380.9,380.9,0,0,1,470.42,372c23.19-27.45,50.05-51.65,78.8-73.11a627.32,627.32,0,0,1,91.68-56.25,782.5,782.5,0,0,1,99.2-41.59,919.46,919.46,0,0,1,103.72-28.56q26.32-5.57,52.92-9.72c4.44-.66,8.86-1.4,13.31-2L923.38,159l13.35-1.6c4.45-.56,8.92-1,13.38-1.44,17.84-1.78,35.73-3.2,53.65-4.06s35.84-1.32,53.78-1.35,35.87.5,53.78,1.38,35.8,2.3,53.65,4.09a982.53,982.53,0,0,1,106.26,16.65,920,920,0,0,1,103.67,28.64A773.73,773.73,0,0,1,1474,243.06a630.51,630.51,0,0,1,91.49,56.37c28.71,21.47,55.5,45.66,78.62,73.09a385.67,385.67,0,0,1,31.8,43.31,328.88,328.88,0,0,1,24.66,47.72,291.37,291.37,0,0,1,15.73,51.34A276.91,276.91,0,0,1,1721.65,568.3Zm-.3,0a275.26,275.26,0,0,0-5.47-53.33,290.35,290.35,0,0,0-15.8-51.22,329.12,329.12,0,0,0-24.71-47.58,372.93,372.93,0,0,0-31.9-43.11c-23.22-27.25-50.07-51.25-78.81-72.52a627.63,627.63,0,0,0-91.56-55.72,788.11,788.11,0,0,0-99-41.14,915.59,915.59,0,0,0-103.45-28.22,1048.3,1048.3,0,0,0-426.17.13A918,918,0,0,0,741.06,203.9a779.64,779.64,0,0,0-98.89,41.3A630.08,630.08,0,0,0,550.79,301c-28.68,21.27-55.47,45.27-78.62,72.5a378.71,378.71,0,0,0-31.82,43A328.64,328.64,0,0,0,415.67,464a289.71,289.71,0,0,0-15.79,51.08,265,265,0,0,0-.17,106.41,290.78,290.78,0,0,0,15.64,51.18,328.06,328.06,0,0,0,24.57,47.6,378.45,378.45,0,0,0,31.78,43.17c23.12,27.31,49.9,51.41,78.59,72.77a623,623,0,0,0,91.48,56,777.05,777.05,0,0,0,99,41.33,917.56,917.56,0,0,0,103.54,28.2,1035.42,1035.42,0,0,0,213.22,21.54,1041,1041,0,0,0,213.13-22A916.39,916.39,0,0,0,1374.12,933a790.26,790.26,0,0,0,99-41.17,627.76,627.76,0,0,0,91.56-55.74c28.74-21.27,55.59-45.27,78.81-72.53a373.23,373.23,0,0,0,31.9-43.11,330.23,330.23,0,0,0,24.71-47.59,290.16,290.16,0,0,0,15.79-51.23A275.93,275.93,0,0,0,1721.35,568.3Z"/><path d="M1589.54,603.26a274.17,274.17,0,0,1-5.75,55.17c-1.06,4.51-2,9.06-3.24,13.51l-1.81,6.7-2.06,6.64-1,3.31-1.15,3.28-2.31,6.55c-.8,2.18-1.69,4.31-2.53,6.47s-1.67,4.32-2.64,6.43a327.22,327.22,0,0,1-26.16,49,401.43,401.43,0,0,1-33.53,44.27c-24.4,27.91-52.44,52.51-82.42,74.26a660.34,660.34,0,0,1-95.33,57,817.69,817.69,0,0,1-102.86,42.06,965.82,965.82,0,0,1-107.35,28.79q-27.22,5.66-54.73,9.8c-9.15,1.43-18.35,2.61-27.53,3.82l-13.81,1.61c-4.6.54-9.22,1-13.83,1.44-18.44,1.79-36.93,3.2-55.44,4.07s-37,1.3-55.57,1.33a1096.13,1096.13,0,0,1-220.82-22.52C605.14,991,534.08,968.06,467.51,935.44a664,664,0,0,1-95.39-56.79c-30.05-21.65-58.15-46.17-82.65-74a392.6,392.6,0,0,1-33.65-44.21,328.2,328.2,0,0,1-26.31-48.94c-1-2.11-1.77-4.29-2.65-6.43s-1.74-4.3-2.55-6.48L222,692l-1.15-3.28-1-3.32-2.08-6.64-1.83-6.71c-1.3-4.46-2.2-9-3.28-13.53a265.63,265.63,0,0,1-.16-110.6c1.06-4.52,2-9.08,3.23-13.55l1.82-6.72,2.06-6.65,1-3.33,1.15-3.29,2.32-6.56c.8-2.18,1.69-4.33,2.54-6.49s1.66-4.34,2.63-6.45a327.65,327.65,0,0,1,26.19-49.08A392.73,392.73,0,0,1,289,401.47c24.47-27.94,52.56-52.55,82.61-74.3a657.26,657.26,0,0,1,95.5-56.9,828.4,828.4,0,0,1,103-41.93,969.3,969.3,0,0,1,107.4-28.76c72.64-15,146.83-22.09,221-22.11q27.79.06,55.58,1.38c18.52.88,37,2.32,55.45,4.12,4.61.49,9.23.9,13.83,1.45l13.81,1.62c9.19,1.22,18.38,2.41,27.54,3.84q27.48,4.19,54.73,9.84a968.23,968.23,0,0,1,107.35,28.84,818.39,818.39,0,0,1,102.85,42.1,659.76,659.76,0,0,1,95.32,57c30,21.75,58,46.36,82.43,74.27a400.61,400.61,0,0,1,33.53,44.28,328.07,328.07,0,0,1,26.16,49c1,2.1,1.76,4.28,2.63,6.43s1.73,4.29,2.53,6.47l2.31,6.55,1.15,3.28,1,3.31,2.07,6.64,1.81,6.7c1.28,4.46,2.17,9,3.23,13.51A273.62,273.62,0,0,1,1589.54,603.26Zm-.3,0a273.41,273.41,0,0,0-5.85-55.09c-1.07-4.5-2-9-3.25-13.48l-1.83-6.7-2.07-6.61-1-3.31-1.16-3.28-2.32-6.53c-.8-2.17-1.7-4.3-2.54-6.45s-1.67-4.32-2.64-6.42a327.38,327.38,0,0,0-26.21-48.82,386.46,386.46,0,0,0-33.63-44.07c-24.49-27.74-52.58-52.15-82.61-73.7a656.78,656.78,0,0,0-95.38-56.37A833.58,833.58,0,0,0,1226,230.94a966.22,966.22,0,0,0-107.14-28.43,1113.51,1113.51,0,0,0-440.7.14A965.16,965.16,0,0,0,571,231.16a824.24,824.24,0,0,0-102.66,41.65,660.27,660.27,0,0,0-95.2,56.5c-30,21.56-58,46-82.42,73.68a391.08,391.08,0,0,0-33.55,44A325,325,0,0,0,231,495.68c-1,2.09-1.77,4.26-2.64,6.4s-1.74,4.27-2.54,6.43L223.52,515l-1.15,3.26-1,3.3-2.07,6.6-1.82,6.68c-1.29,4.43-2.19,9-3.25,13.44A264,264,0,0,0,214,658.24c1,4.49,1.94,9,3.21,13.46l1.81,6.69,2.05,6.61,1,3.31,1.15,3.27,2.3,6.53c.8,2.16,1.68,4.3,2.52,6.45s1.66,4.31,2.62,6.41a326.33,326.33,0,0,0,26.06,48.84,391.12,391.12,0,0,0,33.51,44.13c24.4,27.81,52.42,52.31,82.39,74A654,654,0,0,0,468,934.51a825.09,825.09,0,0,0,102.78,41.67A967.61,967.61,0,0,0,678,1004.58a1098.5,1098.5,0,0,0,220.48,21.68q27.74-.09,55.45-1.4c18.47-.89,36.91-2.32,55.31-4.13,4.59-.48,9.2-.9,13.79-1.45l13.77-1.63c9.16-1.21,18.33-2.4,27.46-3.83,18.27-2.8,36.5-6,54.6-9.69A966,966,0,0,0,1226,975.65a836.76,836.76,0,0,0,102.76-41.52,657.81,657.81,0,0,0,95.38-56.39c30-21.56,58.12-46,82.61-73.71A385.23,385.23,0,0,0,1540.35,760a326.57,326.57,0,0,0,26.21-48.83c1-2.1,1.77-4.28,2.64-6.42s1.74-4.28,2.54-6.45l2.32-6.54,1.16-3.27,1-3.31,2.07-6.62,1.82-6.69c1.3-4.44,2.19-9,3.26-13.48A273.48,273.48,0,0,0,1589.24,603.26Z"/><path d="M1745.65,490.19a306.06,306.06,0,0,1-5.84,58.54A322.68,322.68,0,0,1,1722.7,605a362.83,362.83,0,0,1-26.88,52.37A418.63,418.63,0,0,1,1661.14,705c-25.24,30.14-54.48,56.78-85.87,80.39a687.46,687.46,0,0,1-100.09,62.06,839.86,839.86,0,0,1-108.49,45.95,999,999,0,0,1-113.56,31.53,1064.7,1064.7,0,0,1-116.43,18.27c-19.56,2-39.15,3.53-58.78,4.47s-39.28,1.43-58.93,1.46a1123.68,1123.68,0,0,1-234-24.66c-76.74-16.69-151.88-41.77-222-77.4a691.47,691.47,0,0,1-100.15-61.84c-31.45-23.51-60.77-50.07-86.11-80.14a415.21,415.21,0,0,1-34.8-47.54,364.49,364.49,0,0,1-27-52.36,322.9,322.9,0,0,1-17.26-56.35,294.31,294.31,0,0,1-.17-117.32,323.58,323.58,0,0,1,17.12-56.44,364.36,364.36,0,0,1,26.9-52.5,415.15,415.15,0,0,1,34.76-47.67c25.31-30.16,54.62-56.81,86.06-80.42a684.27,684.27,0,0,1,100.27-61.95,851.6,851.6,0,0,1,108.6-45.84A1000.14,1000.14,0,0,1,784.8,55.21q28.85-6.15,58-10.73c4.86-.73,9.71-1.54,14.58-2.2l14.61-2c9.75-1.19,19.51-2.4,29.29-3.35,19.56-2,39.16-3.54,58.79-4.49S999.34,31,1019,31s39.31.55,58.94,1.52S1117.16,35,1136.72,37a1067.91,1067.91,0,0,1,116.44,18.35,998.46,998.46,0,0,1,113.55,31.58,840.89,840.89,0,0,1,108.49,46A687.42,687.42,0,0,1,1575.28,195c31.4,23.61,60.64,50.26,85.88,80.4A418.63,418.63,0,0,1,1695.84,323a362.88,362.88,0,0,1,26.87,52.38,321.83,321.83,0,0,1,17.11,56.3A306.05,306.05,0,0,1,1745.65,490.19Zm-.3,0a306.05,306.05,0,0,0-5.93-58.46,321.79,321.79,0,0,0-17.19-56.19,361.58,361.58,0,0,0-26.93-52.23,405.16,405.16,0,0,0-34.77-47.39c-25.34-30-54.64-56.42-86.07-79.83a684.22,684.22,0,0,0-100.15-61.42A855.61,855.61,0,0,0,1365.9,89.28a998.39,998.39,0,0,0-113.34-31.15,1141.43,1141.43,0,0,0-467.11.14A993.83,993.83,0,0,0,672.16,89.51,846.58,846.58,0,0,0,563.87,135a688.77,688.77,0,0,0-100,61.55C432.53,220,403.28,246.45,378,276.39a410.59,410.59,0,0,0-34.7,47.31,362.22,362.22,0,0,0-26.9,52.12,321.71,321.71,0,0,0-17.17,56.05,293,293,0,0,0-.17,116.67,321.71,321.71,0,0,0,17,56.15A361.58,361.58,0,0,0,342.89,657a412.3,412.3,0,0,0,34.65,47.45c25.24,30,54.48,56.57,85.85,80.08a680.48,680.48,0,0,0,100.07,61.65A845.67,845.67,0,0,0,671.88,891.7,996,996,0,0,0,785.3,922.83,1126.4,1126.4,0,0,0,1019,946.64a1131.63,1131.63,0,0,0,233.59-24.27,996,996,0,0,0,113.34-31.2,857.19,857.19,0,0,0,108.41-45.41,684.91,684.91,0,0,0,100.14-61.44c31.43-23.42,60.74-49.87,86.07-79.84a404.1,404.1,0,0,0,34.78-47.39,362.75,362.75,0,0,0,26.92-52.25,320.64,320.64,0,0,0,17.18-56.19A305.25,305.25,0,0,0,1745.35,490.19Z"/><path d="M1674.67,560a316.58,316.58,0,0,1-6.41,62.46,332,332,0,0,1-18.7,60A378.75,378.75,0,0,1,1620.32,738a452.18,452.18,0,0,1-37.6,50.37,501.37,501.37,0,0,1-43.93,45,606.34,606.34,0,0,1-48.73,39.75,742,742,0,0,1-107.49,65.18,917.77,917.77,0,0,1-116.18,48.16,1091,1091,0,0,1-121.4,33q-30.79,6.44-61.91,11.23c-5.19.75-10.36,1.62-15.56,2.28l-15.6,2.09-15.62,1.85c-5.21.64-10.43,1.1-15.65,1.65-20.87,2.06-41.79,3.69-62.74,4.68s-41.93,1.5-62.9,1.53A1225.25,1225.25,0,0,1,645.12,1019a1089.78,1089.78,0,0,1-121.31-33.06,929.7,929.7,0,0,1-116.17-48,746.18,746.18,0,0,1-107.56-65,606.13,606.13,0,0,1-48.83-39.61,502.85,502.85,0,0,1-44.05-44.87,445.33,445.33,0,0,1-37.72-50.32,378.48,378.48,0,0,1-29.39-55.6,333,333,0,0,1-18.86-60,305.93,305.93,0,0,1-.16-125.17,332.41,332.41,0,0,1,18.71-60.1,378.5,378.5,0,0,1,29.27-55.75,447.16,447.16,0,0,1,37.67-50.44,501.64,501.64,0,0,1,44-45,606,606,0,0,1,48.82-39.76,738.53,738.53,0,0,1,107.66-65.06,927.61,927.61,0,0,1,116.29-48A1089.87,1089.87,0,0,1,645,100.26c82.17-17.2,166.14-25.33,250-25.36q31.47.07,62.91,1.58c21,1,41.88,2.65,62.75,4.72,5.22.56,10.44,1,15.65,1.67L1052,84.73l15.59,2.1c5.2.67,10.38,1.54,15.56,2.3q31.11,4.78,61.92,11.26a1088.31,1088.31,0,0,1,121.39,33.05,917.94,917.94,0,0,1,116.18,48.19,741.93,741.93,0,0,1,107.48,65.19,604.73,604.73,0,0,1,48.74,39.75,502.85,502.85,0,0,1,43.93,45,452.18,452.18,0,0,1,37.6,50.37,378.35,378.35,0,0,1,29.23,55.62,332,332,0,0,1,18.7,60A316.57,316.57,0,0,1,1674.67,560Zm-.3,0a316.55,316.55,0,0,0-6.5-62.38,331.86,331.86,0,0,0-18.78-59.84,378.55,378.55,0,0,0-29.28-55.48,439.32,439.32,0,0,0-37.7-50.17,503.62,503.62,0,0,0-44-44.71,607.94,607.94,0,0,0-48.81-39.46,739.94,739.94,0,0,0-107.55-64.54,936.37,936.37,0,0,0-116.09-47.59,1086.74,1086.74,0,0,0-121.18-32.61,1243.74,1243.74,0,0,0-498.83.13A1085.77,1085.77,0,0,0,524.48,136a925.59,925.59,0,0,0-116,47.74,742.84,742.84,0,0,0-107.37,64.67,606.58,606.58,0,0,0-48.72,39.46,500.79,500.79,0,0,0-43.94,44.68,444.09,444.09,0,0,0-37.62,50.1A377.51,377.51,0,0,0,141.6,438a330.24,330.24,0,0,0-18.76,59.71,304.31,304.31,0,0,0-.17,124.5A331.16,331.16,0,0,0,141.28,682a377.53,377.53,0,0,0,29.14,55.5A444.83,444.83,0,0,0,208,787.77a502.28,502.28,0,0,0,43.93,44.82,606.5,606.5,0,0,0,48.71,39.61c33.79,24.74,70,46.14,107.47,64.77a923.51,923.51,0,0,0,116.1,47.77,1088.61,1088.61,0,0,0,121.26,32.6A1228.28,1228.28,0,0,0,895,1042.26q31.4-.09,62.77-1.6c20.91-1,41.78-2.66,62.61-4.73,5.2-.56,10.42-1,15.61-1.67l15.59-1.86,15.56-2.1c5.19-.67,10.35-1.54,15.52-2.3,20.68-3.2,41.3-6.86,61.79-11.12a1086.42,1086.42,0,0,0,121.18-32.67,935,935,0,0,0,116.09-47.62A739.42,739.42,0,0,0,1489.27,872a601.86,601.86,0,0,0,48.81-39.46,501,501,0,0,0,44.05-44.71,437.31,437.31,0,0,0,37.69-50.18,377.65,377.65,0,0,0,29.29-55.48,332.47,332.47,0,0,0,18.77-59.85A316.46,316.46,0,0,0,1674.37,560Z"/><path d="M1840.39,526.82a338.78,338.78,0,0,1-6.84,66.69,355.07,355.07,0,0,1-20,64,404.3,404.3,0,0,1-31.22,59.38,483.67,483.67,0,0,1-40.15,53.78,537,537,0,0,1-46.92,48,649.38,649.38,0,0,1-52,42.44,792.68,792.68,0,0,1-114.78,69.57,980.36,980.36,0,0,1-124,51.4,1161.59,1161.59,0,0,1-129.62,35.22q-32.89,6.87-66.11,12l-8.3,1.25q-4.16.64-8.32,1.19l-16.65,2.23-16.68,2c-5.56.67-11.14,1.17-16.7,1.76-22.29,2.19-44.63,3.93-67,5s-44.76,1.61-67.16,1.65a1309,1309,0,0,1-266.82-27.5A1162.1,1162.1,0,0,1,611.51,981.6a993.24,993.24,0,0,1-124-51.26A796.06,796.06,0,0,1,372.62,861a644.45,644.45,0,0,1-52.14-42.3,535.84,535.84,0,0,1-47-47.91,476.67,476.67,0,0,1-40.27-53.72,405,405,0,0,1-31.37-59.37,356.24,356.24,0,0,1-20.13-64.06A326.53,326.53,0,0,1,181.51,460a355.43,355.43,0,0,1,20-64.16,405.34,405.34,0,0,1,31.25-59.51A476.72,476.72,0,0,1,273,282.45a538.42,538.42,0,0,1,47-48A648.31,648.31,0,0,1,372.12,192c36.16-26.52,74.84-49.48,115-69.46A989.15,989.15,0,0,1,611.24,71.21,1162,1162,0,0,1,740.9,36C828.63,17.68,918.29,9,1007.87,9q33.6.09,67.17,1.69c22.38,1.08,44.72,2.84,67,5,5.56.59,11.14,1.09,16.7,1.77l16.68,2,16.65,2.24c2.78.36,5.55.77,8.32,1.2l8.3,1.26q33.21,5.12,66.12,12a1161.65,1161.65,0,0,1,129.61,35.27,980,980,0,0,1,124,51.44,793.28,793.28,0,0,1,114.78,69.58,649.38,649.38,0,0,1,52,42.44,538.52,538.52,0,0,1,46.92,48,483.67,483.67,0,0,1,40.15,53.78,405.87,405.87,0,0,1,31.22,59.39,355,355,0,0,1,20,64A338.05,338.05,0,0,1,1840.39,526.82Zm-.3,0a337.28,337.28,0,0,0-6.94-66.62,354.84,354.84,0,0,0-20-63.9,404.21,404.21,0,0,0-31.28-59.25,468.29,468.29,0,0,0-40.25-53.57,533.77,533.77,0,0,0-47-47.75,646.65,646.65,0,0,0-52.12-42.15,788.93,788.93,0,0,0-114.84-68.94,996.3,996.3,0,0,0-124-50.83A1159,1159,0,0,0,1274.23,39a1328.16,1328.16,0,0,0-532.69.14A1160.85,1160.85,0,0,0,612.18,74a987.62,987.62,0,0,0-123.85,51,793.2,793.2,0,0,0-114.66,69.06,647.47,647.47,0,0,0-52,42.15A533.87,533.87,0,0,0,274.71,284a474.23,474.23,0,0,0-40.17,53.5,403,403,0,0,0-31.23,59.12,353.25,353.25,0,0,0-20,63.77,324.91,324.91,0,0,0-.17,133A354.18,354.18,0,0,0,203,657.18a403.07,403.07,0,0,0,31.12,59.27,475.06,475.06,0,0,0,40.13,53.63A533.88,533.88,0,0,0,321.15,818a647.25,647.25,0,0,0,52,42.29c36.09,26.42,74.72,49.28,114.76,69.17a986.56,986.56,0,0,0,124,51,1160.78,1160.78,0,0,0,129.48,34.82c87.6,18.12,177.07,26.71,266.48,26.64q33.54-.09,67-1.71c22.33-1.08,44.62-2.84,66.86-5,5.56-.59,11.13-1.09,16.67-1.77l16.65-2,16.61-2.24c2.77-.36,5.54-.77,8.3-1.2l8.28-1.26c22.09-3.42,44.1-7.32,66-11.87a1162,1162,0,0,0,129.4-34.9,998.55,998.55,0,0,0,124-50.87,790.77,790.77,0,0,0,114.84-68.95,648.4,648.4,0,0,0,52.12-42.15,535.22,535.22,0,0,0,47-47.76,467.52,467.52,0,0,0,40.25-53.58,403.19,403.19,0,0,0,31.27-59.25,354.94,354.94,0,0,0,20-63.91A338,338,0,0,0,1840.09,526.82Z"/></svg>