<svg id="Layer_1" data-name="Layer 1" xmlns="http://www.w3.org/2000/svg" viewBox="0 0 1920 1080"><defs><style>.cls-1{fill:#e03838;}.cls-1,.cls-2{opacity:0.5;}.cls-2{fill:#ffff1a;}.cls-3{fill:#4d4d4d;}</style></defs><path class="cls-1" d="M487,996S289,547,311,557s219,71,219,71L348,447l214,35L508,124,725,507,865,235,811,694l47-66L748,996Z"/><path class="cls-2" d="M996.36,401.49c59.13,11.37,278,77.12,297.29,237.31s42.61,270-39.12,328.56-166.7,96.32-265.82,8.38S841.4,835.39,826.86,761,773.75,471.3,840.37,446.42,996.36,401.49,996.36,401.49Z"/><path d="M1092.9,290a2.61,2.61,0,0,1-.78-1.92v-37a2.71,2.71,0,0,1,.78-2,2.56,2.56,0,0,1,1.92-.81,2.77,2.77,0,0,1,2.76,2.76v37a2.56,2.56,0,0,1-.81,1.92,2.71,2.71,0,0,1-2,.78A2.61,2.61,0,0,1,1092.9,290Z"/><path d="M1107.69,261.35a1.78,1.78,0,0,1-.51-1.26,1.67,1.67,0,0,1,.9-1.5,6.85,6.85,0,0,0,2.28-2.1,6.41,6.41,0,0,0,.78-3.48h-.24a3.38,3.38,0,0,1-3.36-3.36v-.36a3.38,3.38,0,0,1,3.36-3.36h.6a3.38,3.38,0,0,1,3.36,3.36v3.54a9.67,9.67,0,0,1-4.92,8.76,1.89,1.89,0,0,1-1,.3A1.63,1.63,0,0,1,1107.69,261.35Z"/><path d="M1123.2,290a2.61,2.61,0,0,1-.78-1.92V262.37a2.71,2.71,0,0,1,.78-1.95,2.55,2.55,0,0,1,1.92-.81,2.77,2.77,0,0,1,2.76,2.76v2.46a15,15,0,0,1,4-4,11,11,0,0,1,6.15-1.56,9.33,9.33,0,0,1,5.76,1.8,10,10,0,0,1,3.42,4.38,12.09,12.09,0,0,1,11-6.18,9.11,9.11,0,0,1,5.61,1.68,10,10,0,0,1,3.33,4.32,14.44,14.44,0,0,1,1.08,5.52v17.28a2.56,2.56,0,0,1-.81,1.92,2.73,2.73,0,0,1-2,.78,2.66,2.66,0,0,1-2.7-2.7v-16.2q0-3.9-1.38-5.73c-.93-1.22-2.5-1.83-4.74-1.83a7.92,7.92,0,0,0-5.07,1.59,15.21,15.21,0,0,0-3.57,4.17v18a2.56,2.56,0,0,1-.81,1.92,2.71,2.71,0,0,1-2,.78,2.66,2.66,0,0,1-2.7-2.7v-16.2q0-3.9-1.38-5.73c-.93-1.22-2.5-1.83-4.74-1.83a7.92,7.92,0,0,0-5.07,1.59,15.38,15.38,0,0,0-3.57,4.17v18a2.56,2.56,0,0,1-.81,1.92,2.71,2.71,0,0,1-2,.78A2.59,2.59,0,0,1,1123.2,290Z"/><path d="M1193.88,290a2.61,2.61,0,0,1-.78-1.92V249.17a2.71,2.71,0,0,1,.78-1.95,2.54,2.54,0,0,1,1.91-.81,2.77,2.77,0,0,1,2.77,2.76v15.66a19.76,19.76,0,0,1,4.92-4,12.41,12.41,0,0,1,6.23-1.5,10.39,10.39,0,0,1,5.74,1.56,10.21,10.21,0,0,1,3.72,4.26,13.6,13.6,0,0,1,1.29,5.94v17a2.56,2.56,0,0,1-.81,1.92,2.71,2.71,0,0,1-2,.78,2.66,2.66,0,0,1-2.7-2.7V271.67c0-4.88-2.21-7.32-6.6-7.32a9.53,9.53,0,0,0-5.37,1.56,19.44,19.44,0,0,0-4.47,4.2v18a2.56,2.56,0,0,1-.81,1.92,2.73,2.73,0,0,1-2,.78A2.59,2.59,0,0,1,1193.88,290Z"/><path d="M1231.88,286.94q-4.11-4.17-4.1-11.73a19.55,19.55,0,0,1,1.55-7.86,13.43,13.43,0,0,1,4.8-5.82,15.37,15.37,0,0,1,15.66-.15,13.32,13.32,0,0,1,4.92,5.52,17,17,0,0,1,1.68,7.53,2.62,2.62,0,0,1-2.76,2.7h-20.34a9.87,9.87,0,0,0,3.13,6.54q2.63,2.34,7.37,2.34a16.76,16.76,0,0,0,8.1-1.86,2.38,2.38,0,0,1,1.08-.24,2.41,2.41,0,0,1,1.68.66,2.19,2.19,0,0,1,.73,1.68,2.61,2.61,0,0,1-1.57,2.22,18.68,18.68,0,0,1-10.5,2.64Q1236,291.11,1231.88,286.94ZM1251,272.69a9.52,9.52,0,0,0-1.54-4.92,8.2,8.2,0,0,0-3.33-2.91,9.13,9.13,0,0,0-8,0,8.08,8.08,0,0,0-3.31,2.91,9.89,9.89,0,0,0-1.5,4.92Z"/><path d="M1264.38,290a2.58,2.58,0,0,1-.79-1.92V262.37a2.68,2.68,0,0,1,.79-1.95,2.52,2.52,0,0,1,1.91-.81,2.77,2.77,0,0,1,2.76,2.76V265q4.2-5.64,9.42-5.64h.3a2.51,2.51,0,0,1,1.89.78,2.66,2.66,0,0,1,.75,1.92,2.42,2.42,0,0,1-.78,1.86,2.81,2.81,0,0,1-2,.72h-.3a10.23,10.23,0,0,0-5.28,1.41,12.16,12.16,0,0,0-4,3.87v18.24a2.52,2.52,0,0,1-.81,1.92,2.69,2.69,0,0,1-2,.78A2.57,2.57,0,0,1,1264.38,290Z"/><path d="M1287.92,286.94q-4.11-4.17-4.11-11.73a19.39,19.39,0,0,1,1.57-7.86,13.27,13.27,0,0,1,4.79-5.82,13.79,13.79,0,0,1,8-2.22,14,14,0,0,1,7.68,2.07,13.39,13.39,0,0,1,4.92,5.52,17,17,0,0,1,1.68,7.53,2.62,2.62,0,0,1-2.76,2.7h-20.34a9.83,9.83,0,0,0,3.13,6.54q2.63,2.34,7.37,2.34a18,18,0,0,0,4.41-.48,18.32,18.32,0,0,0,3.69-1.38,2.38,2.38,0,0,1,1.08-.24,2.41,2.41,0,0,1,1.68.66,2.18,2.18,0,0,1,.72,1.68,2.59,2.59,0,0,1-1.56,2.22,18.74,18.74,0,0,1-10.5,2.64Q1292,291.11,1287.92,286.94ZM1307,272.69a9.71,9.71,0,0,0-1.54-4.92,8.26,8.26,0,0,0-3.33-2.91,9.15,9.15,0,0,0-8,0,8.06,8.06,0,0,0-3.3,2.91,9.89,9.89,0,0,0-1.5,4.92Z"/><path d="M1338.29,290a2.61,2.61,0,0,1-.78-1.92V264.59H1334a2.36,2.36,0,0,1-2.34-2.34,2.22,2.22,0,0,1,.69-1.68,2.3,2.3,0,0,1,1.65-.66h3.54v-3.48a12,12,0,0,1,1.29-5.91,8,8,0,0,1,3.36-3.36,9.49,9.49,0,0,1,4.35-1,11.51,11.51,0,0,1,5.22,1.2,2.59,2.59,0,0,1,1,.87,2.14,2.14,0,0,1,.39,1.23,2.23,2.23,0,0,1-.66,1.59,2.09,2.09,0,0,1-1.56.69,5.69,5.69,0,0,1-1.38-.18q-1.44-.18-1.62-.18a5.26,5.26,0,0,0-3.69,1.14q-1.23,1.14-1.23,4.14v3.3h7.5a2.26,2.26,0,0,1,2.34,2.34,2.3,2.3,0,0,1-.66,1.65,2.22,2.22,0,0,1-1.68.69H1343v23.52a2.56,2.56,0,0,1-.81,1.92,2.71,2.71,0,0,1-2,.78A2.61,2.61,0,0,1,1338.29,290Z"/><path d="M1361.81,289.13a13.46,13.46,0,0,1-5.37-5.61,19.21,19.21,0,0,1,0-16.62,13.46,13.46,0,0,1,5.37-5.61,17.44,17.44,0,0,1,16.14,0,13.65,13.65,0,0,1,5.4,5.61,18.94,18.94,0,0,1,0,16.62,13.65,13.65,0,0,1-5.4,5.61,17.44,17.44,0,0,1-16.14,0Zm12.81-4.14a9.16,9.16,0,0,0,3.72-3.6,12,12,0,0,0,1.47-6.24,11.88,11.88,0,0,0-1.47-6.18,9,9,0,0,0-3.72-3.57,10.52,10.52,0,0,0-4.71-1.11,10.64,10.64,0,0,0-4.77,1.11,8.78,8.78,0,0,0-3.69,3.57,12.08,12.08,0,0,0-1.44,6.18,12.21,12.21,0,0,0,1.44,6.24,9,9,0,0,0,3.69,3.6,10.41,10.41,0,0,0,4.77,1.14A10.29,10.29,0,0,0,1374.62,285Z"/><path d="M1393.67,290a2.61,2.61,0,0,1-.78-1.92V262.37a2.71,2.71,0,0,1,.78-1.95,2.56,2.56,0,0,1,1.92-.81,2.77,2.77,0,0,1,2.76,2.76V265q4.2-5.64,9.42-5.64h.3a2.51,2.51,0,0,1,1.89.78,2.66,2.66,0,0,1,.75,1.92,2.42,2.42,0,0,1-.78,1.86,2.81,2.81,0,0,1-2,.72h-.3a10.23,10.23,0,0,0-5.28,1.41,12.16,12.16,0,0,0-4,3.87v18.24a2.56,2.56,0,0,1-.81,1.92,2.71,2.71,0,0,1-2,.78A2.61,2.61,0,0,1,1393.67,290Z"/><path d="M1436.48,303.83a2.59,2.59,0,0,1-.75-1.86,2.72,2.72,0,0,1,.18-1l3.9-10-11.28-27.48a3.07,3.07,0,0,1-.24-1.14,2.71,2.71,0,0,1,.78-1.95,2.56,2.56,0,0,1,1.92-.81,2.62,2.62,0,0,1,1.53.48,2.72,2.72,0,0,1,1,1.2l9.24,22.92,9.42-22.8a2.62,2.62,0,0,1,2.52-1.8,2.56,2.56,0,0,1,1.92.81,2.71,2.71,0,0,1,.78,1.95,2.88,2.88,0,0,1-.18,1l-16.38,39.36a2.7,2.7,0,0,1-2.52,1.86A2.44,2.44,0,0,1,1436.48,303.83Z"/><path d="M1468.67,289.13a13.46,13.46,0,0,1-5.37-5.61,19.21,19.21,0,0,1,0-16.62,13.46,13.46,0,0,1,5.37-5.61,17.44,17.44,0,0,1,16.14,0,13.65,13.65,0,0,1,5.4,5.61,18.94,18.94,0,0,1,0,16.62,13.65,13.65,0,0,1-5.4,5.61,17.44,17.44,0,0,1-16.14,0Zm12.81-4.14a9.16,9.16,0,0,0,3.72-3.6,12,12,0,0,0,1.47-6.24,11.88,11.88,0,0,0-1.47-6.18,9,9,0,0,0-3.72-3.57,10.52,10.52,0,0,0-4.71-1.11,10.64,10.64,0,0,0-4.77,1.11,8.78,8.78,0,0,0-3.69,3.57,12.08,12.08,0,0,0-1.44,6.18,12.21,12.21,0,0,0,1.44,6.24A9,9,0,0,0,1472,285a10.41,10.41,0,0,0,4.77,1.14A10.29,10.29,0,0,0,1481.48,285Z"/><path d="M1504.46,289.55a10.14,10.14,0,0,1-3.72-4.26,13.6,13.6,0,0,1-1.29-5.94v-17a2.56,2.56,0,0,1,.81-1.92,2.71,2.71,0,0,1,2-.78,2.66,2.66,0,0,1,2.7,2.7v16.44q0,7.32,6.6,7.32a9.55,9.55,0,0,0,5.37-1.56,19.44,19.44,0,0,0,4.47-4.2v-18a2.56,2.56,0,0,1,.81-1.92,2.71,2.71,0,0,1,1.95-.78,2.66,2.66,0,0,1,2.7,2.7v25.74A2.71,2.71,0,0,1,1526,290a2.56,2.56,0,0,1-1.92.81,2.77,2.77,0,0,1-2.76-2.76v-2.46a19.94,19.94,0,0,1-4.92,4,12.42,12.42,0,0,1-6.24,1.5A10.37,10.37,0,0,1,1504.46,289.55Z"/><path d="M1535.84,299a1.78,1.78,0,0,1-.51-1.26,1.67,1.67,0,0,1,.9-1.5,6.85,6.85,0,0,0,2.28-2.1,6.41,6.41,0,0,0,.78-3.48h-.24a3.38,3.38,0,0,1-3.36-3.36V287a3.38,3.38,0,0,1,3.36-3.36h.6A3.38,3.38,0,0,1,1543,287v3.54a9.65,9.65,0,0,1-4.92,8.76,1.89,1.89,0,0,1-1,.3A1.63,1.63,0,0,1,1535.84,299Z"/><path d="M1573,286.55v1.56a2.56,2.56,0,0,1-.81,1.92,2.71,2.71,0,0,1-2,.78,2.66,2.66,0,0,1-2.7-2.7V249.17a2.71,2.71,0,0,1,.78-1.95,2.56,2.56,0,0,1,1.92-.81,2.67,2.67,0,0,1,2.76,2.76v14.7a13.79,13.79,0,0,1,10.26-4.56,14.07,14.07,0,0,1,7,1.89,14.34,14.34,0,0,1,5.4,5.52,18.45,18.45,0,0,1,0,17,14.34,14.34,0,0,1-5.4,5.52,14.07,14.07,0,0,1-7,1.89A13.79,13.79,0,0,1,1573,286.55Zm16.62-3.36q2.7-2.82,2.7-8t-2.7-8a9.43,9.43,0,0,0-7.14-2.82,11.33,11.33,0,0,0-5.19,1.23,14.82,14.82,0,0,0-4.29,3.27v12.6a14.82,14.82,0,0,0,4.29,3.27,11.33,11.33,0,0,0,5.19,1.23A9.43,9.43,0,0,0,1589.57,283.19Z"/><path d="M1610.06,289.55a10.14,10.14,0,0,1-3.72-4.26,13.6,13.6,0,0,1-1.29-5.94v-17a2.56,2.56,0,0,1,.81-1.92,2.71,2.71,0,0,1,2-.78,2.66,2.66,0,0,1,2.7,2.7v16.44q0,7.32,6.6,7.32a9.55,9.55,0,0,0,5.37-1.56,19.44,19.44,0,0,0,4.47-4.2v-18a2.56,2.56,0,0,1,.81-1.92,2.71,2.71,0,0,1,2-.78,2.66,2.66,0,0,1,2.7,2.7v25.74a2.71,2.71,0,0,1-.78,1.95,2.56,2.56,0,0,1-1.92.81,2.77,2.77,0,0,1-2.76-2.76v-2.46a19.94,19.94,0,0,1-4.92,4,12.42,12.42,0,0,1-6.24,1.5A10.37,10.37,0,0,1,1610.06,289.55Z"/><path d="M1647.5,289.22a14.34,14.34,0,0,1-5.4-5.52,18.45,18.45,0,0,1,0-17,14.34,14.34,0,0,1,5.4-5.52,14.07,14.07,0,0,1,7-1.89,13.79,13.79,0,0,1,10.26,4.56v-14.7a2.63,2.63,0,0,1,.81-2,2.71,2.71,0,0,1,2-.78,2.56,2.56,0,0,1,1.92.81,2.71,2.71,0,0,1,.78,1.95v38.94a2.66,2.66,0,0,1-2.7,2.7,2.71,2.71,0,0,1-2-.78,2.56,2.56,0,0,1-.81-1.92v-1.56a13.79,13.79,0,0,1-10.26,4.56A14.07,14.07,0,0,1,1647.5,289.22Zm13-4.44a14.82,14.82,0,0,0,4.29-3.27v-12.6a14.82,14.82,0,0,0-4.29-3.27,11.33,11.33,0,0,0-5.19-1.23,9.43,9.43,0,0,0-7.14,2.82q-2.7,2.82-2.7,8t2.7,8a9.43,9.43,0,0,0,7.14,2.82A11.33,11.33,0,0,0,1660.52,284.78Z"/><path d="M1685.36,289.22a14.34,14.34,0,0,1-5.4-5.52,18.45,18.45,0,0,1,0-17,14.34,14.34,0,0,1,5.4-5.52,14.07,14.07,0,0,1,7.05-1.89,13.79,13.79,0,0,1,10.26,4.56v-14.7a2.63,2.63,0,0,1,.81-2,2.71,2.71,0,0,1,2-.78,2.56,2.56,0,0,1,1.92.81,2.71,2.71,0,0,1,.78,1.95v38.94a2.66,2.66,0,0,1-2.7,2.7,2.71,2.71,0,0,1-2-.78,2.56,2.56,0,0,1-.81-1.92v-1.56a13.79,13.79,0,0,1-10.26,4.56A14.07,14.07,0,0,1,1685.36,289.22Zm13-4.44a14.82,14.82,0,0,0,4.29-3.27v-12.6a14.82,14.82,0,0,0-4.29-3.27,11.33,11.33,0,0,0-5.19-1.23,9.43,9.43,0,0,0-7.14,2.82q-2.7,2.82-2.7,8t2.7,8a9.43,9.43,0,0,0,7.14,2.82A11.33,11.33,0,0,0,1698.38,284.78Z"/><path d="M1722.62,303.83a2.59,2.59,0,0,1-.75-1.86,2.72,2.72,0,0,1,.18-1l3.9-10-11.28-27.48a3.07,3.07,0,0,1-.24-1.14,2.71,2.71,0,0,1,.78-1.95,2.56,2.56,0,0,1,1.92-.81,2.62,2.62,0,0,1,1.53.48,2.72,2.72,0,0,1,1,1.2l9.24,22.92,9.42-22.8a2.62,2.62,0,0,1,2.52-1.8,2.56,2.56,0,0,1,1.92.81,2.71,2.71,0,0,1,.78,1.95,2.88,2.88,0,0,1-.18,1L1727,302.75a2.7,2.7,0,0,1-2.52,1.86A2.44,2.44,0,0,1,1722.62,303.83Z"/><path d="M1747.82,289.7a3.23,3.23,0,0,1-1-2.37V287a3.38,3.38,0,0,1,3.36-3.36h.6a3.38,3.38,0,0,1,3.36,3.36v.36a3.38,3.38,0,0,1-3.36,3.36h-.6A3.23,3.23,0,0,1,1747.82,289.7Z"/><path class="cls-3" d="M1064.75,449.86c-.37-.2.16.15,0,0l-.44-.38c-.48-.43-.93-.87-1.38-1.31-1.53-1.49-3-3-4.56-4.5q-7.73-7.65-15.66-15.1-11.13-10.39-22.81-20.18c-9.1-7.59-18.46-14.87-28.15-21.69a292.7,292.7,0,0,0-31.57-19.53A179.68,179.68,0,0,0,927.1,353.4a104.37,104.37,0,0,0-33.1-4.63,74.94,74.94,0,0,0-16,2.28c-7.74,2-15.24,5.18-22.6,8.26a253.81,253.81,0,0,0-42.46,22.39,175,175,0,0,0-26.68,21.48,118.06,118.06,0,0,0-14.13,16.72c-1.17,1.69-2.28,3.42-3.31,5.2-.71,1.23-2.16,3.14-.62,4.33s4.24-.09,5.76-.59c3.74-1.23,7.42-2.67,11.1-4,11.9-4.44,23.89-8.64,36.14-12,14.87-4.1,30.16-7.15,45.61-7.66,13.35-.45,26.3,1.73,39.24,4.78,13.25,3.12,26.31,7,39.26,11.16,13.27,4.27,26.44,8.89,39.52,13.72q16.58,6.11,33,12.66c6.57,2.63,13.14,5.29,19.67,8l1.13.47c.09,0,.57.25.31.13s.13.06.22.1l.7.29c1.75.75,3.28-1.83,1.51-2.59-3.52-1.5-7-3-10.59-4.41q-13.25-5.41-26.58-10.57-18.18-7-36.58-13.48c-13.13-4.6-26.34-9-39.7-12.82a330.81,330.81,0,0,0-36.6-8.78c-14.6-2.48-29.26-2.05-43.87.18a264.21,264.21,0,0,0-42.8,10.68c-9.84,3.24-19.47,7-29.23,10.5-1.33.47-2.67.94-4,1.33-.45.12-.9.23-1.36.33s.22-.06-.17,0h-.4c.12-.33,1,.74,1,1.13a.63.63,0,0,1-.09.41c.07-.09.11-.22.18-.32.32-.56.62-1.13,1-1.69a90.5,90.5,0,0,1,9-12.61,145.14,145.14,0,0,1,20-19.38,209.55,209.55,0,0,1,34.39-22.23q11.52-6,23.59-10.95c7-2.87,14.11-5.85,21.5-7.6a81.4,81.4,0,0,1,31.83-.67A138.82,138.82,0,0,1,944.68,363a238.72,238.72,0,0,1,32.19,17.35,358.8,358.8,0,0,1,29.39,20.84c8.61,6.73,17,13.78,25.11,21.07q9.6,8.58,18.82,17.57c3.65,3.55,7.23,7.18,10.89,10.72a10.46,10.46,0,0,0,2.16,1.88c1.71.89,3.23-1.7,1.51-2.59Z"/><path class="cls-3" d="M1112.37,496.35c.31.66,0-.18-.06-.48-.11-.56-.19-1.13-.28-1.7-.29-1.92-.54-3.84-.81-5.77-.91-6.55-1.86-13.1-2.93-19.64q-2.26-13.78-5.18-27.45c-2.31-10.74-5-21.4-8-31.94a323.92,323.92,0,0,0-11.59-33.17,208.74,208.74,0,0,0-15.76-31,124.47,124.47,0,0,0-20.44-25.28,79.69,79.69,0,0,0-25.93-16.41,219.82,219.82,0,0,0-27.12-7.8,265.12,265.12,0,0,0-26.82-4.93,192.1,192.1,0,0,0-41.65-1.16,127.14,127.14,0,0,0-25.8,4.8c-2.36.72-4.69,1.53-7,2.46-1.27.51-3.82,1.1-3.79,2.86,0,2,3,2.75,4.47,3.27,3.28,1.19,6.63,2.15,10,3.16,11,3.35,22,6.83,32.71,10.93a222.91,222.91,0,0,1,38.79,18.82A128.23,128.23,0,0,1,992.75,349a149.7,149.7,0,0,1,13.1,13.67c9.08,10.51,17.4,21.68,25.41,33,8.46,12,16.56,24.18,24.45,36.54q10.15,15.9,19.85,32.11,5.89,9.84,11.62,19.77c.52.9,1,1.8,1.55,2.7a1.5,1.5,0,0,0,2.59-1.51c-2-3.56-4.08-7.1-6.15-10.64q-7.92-13.51-16.15-26.84-10.9-17.71-22.42-35.05c-8-12.08-16.36-24-25.17-35.54-7.77-10.18-15.85-20.44-25.26-29.17-10.72-9.94-23.36-17.68-36.43-24.1A300.88,300.88,0,0,0,922,308.82c-8.66-2.89-17.49-5.31-26.14-8.22-.62-.21-1.24-.42-1.85-.65l-.72-.28-.33-.13,0,0L892,299c-.36-.18,0,0,0,0-.25-.33.11.27,0,.06.24.57.09,1.5-.35,1.57a3.55,3.55,0,0,0,.69-.31l.43-.19.21-.09,1.22-.5a98.8,98.8,0,0,1,18.25-5.14,156,156,0,0,1,33.7-2.39,238.43,238.43,0,0,1,50.05,7.22c13.41,3.31,27,6.79,38.6,14.55a96.9,96.9,0,0,1,22.32,21.4,164.87,164.87,0,0,1,17.39,28.45,265.29,265.29,0,0,1,13.14,32.24c3.63,10.72,6.72,21.61,9.42,32.6q3.6,14.72,6.32,29.63,2.13,11.64,3.83,23.36c.67,4.59,1.24,9.19,1.94,13.78a9.64,9.64,0,0,0,.6,2.6c.82,1.74,3.41.22,2.59-1.52Z"/><path class="cls-3" d="M1210.8,618.73a423.88,423.88,0,0,1,20.91,50.7,435.75,435.75,0,0,1,22.12,168,419.47,419.47,0,0,1-7.77,57.44q-.74,3.54-1.53,7.07c-.42,1.88,2.47,2.68,2.89.8a424.64,424.64,0,0,0,8.85-57.83,431.91,431.91,0,0,0,.88-58.45,440.65,440.65,0,0,0-6.85-57.61,435.73,435.73,0,0,0-13.63-54,430.57,430.57,0,0,0-20.31-51.5c-1-2.06-2-4.12-3-6.16-.85-1.74-3.43-.22-2.59,1.51Z"/><path class="cls-3" d="M1122.66,513.5a158.4,158.4,0,0,1,38.69,30.22c1.33,1.4,3.45-.72,2.12-2.12a160.7,160.7,0,0,0-39.3-30.69c-1.69-.92-3.21,1.67-1.51,2.59Z"/><path class="cls-3" d="M1197.43,728.39c-10.82-4.57-22.45-6.43-34.12-7.14a328.8,328.8,0,0,0-36.88.06q-18.57,1-37,3.74-9.27,1.4-18.47,3.25c-5.69,1.14-11.4,2.32-17,4a53,53,0,0,0-14.82,6.66,41.55,41.55,0,0,0-10.61,10.75c-6.1,8.81-9.56,19.41-12.44,29.64-6.26,22.25-8.34,46.28-2.42,68.84,5,19,15.61,36.75,31.31,48.74q2.91,2.21,6,4.13v-2.6c-17.82,9-37.8,12.47-55.63,21.42-8,4-15.64,9.17-21.63,15.92-1.44,1.63-3,3.38-3.63,5.52a6.16,6.16,0,0,0,1.72,6,26.61,26.61,0,0,0,5.37,4.06,51.42,51.42,0,0,0,6.65,3.5c9.39,4.15,19.53,6.22,29.67,7.53,10.61,1.38,21.33,2,32,2.72q32.89,2.07,65.87,2T1177,964.7l8.15-.6c1.91-.15,1.93-3.15,0-3q-31.87,2.48-63.85,2.91t-63.9-1.21q-15.87-.81-31.71-2.12c-10.09-.86-20.2-2-30-4.77a70.42,70.42,0,0,1-13.55-5.15,45.23,45.23,0,0,1-6.19-3.83c-1.61-1.2-3.69-2.76-2.92-5,.7-2,2.58-3.81,4-5.35a55.06,55.06,0,0,1,4.72-4.44,71,71,0,0,1,10.73-7.36c16.66-9.45,35.73-13.14,53.24-20.61q3.42-1.46,6.73-3.11a1.53,1.53,0,0,0,0-2.6c-16.33-10.1-27.92-26.56-34-44.59-7.12-21.12-6.53-44.07-1.59-65.6,2.39-10.45,5.49-21.14,10.43-30.69a47.55,47.55,0,0,1,8.61-12.14,38.76,38.76,0,0,1,13-8.23,97.55,97.55,0,0,1,15.18-4.38q8.8-2,17.68-3.51,18.06-3.12,36.35-4.47,17.94-1.33,36-.94c11.43.25,23,1.09,34,4.34a70,70,0,0,1,7.79,2.76,1.57,1.57,0,0,0,2-.54,1.52,1.52,0,0,0-.54-2.06Z"/><path class="cls-3" d="M959.45,764.51c-9.24.31-17.32,5-24.1,11a103.58,103.58,0,0,0-9.66,10,90.67,90.67,0,0,0-8.85,11.29,21.71,21.71,0,0,0-3.26,14.55,47.16,47.16,0,0,0,5,14.51,88.54,88.54,0,0,0,17,22.72,140.34,140.34,0,0,0,10.93,9.75q2.84,2.3,5.76,4.48c.92.69,1.84,1.38,2.77,2.05s2.28,1.36,2.73,2.39c.79,1.82-3.34,2.7-4.41,3.06q-3.69,1.25-7.41,2.35c-5,1.52-10.13,2.92-15.17,4.45s-10.14,3.21-15,5.24a63.55,63.55,0,0,0-13.54,7.1c-3.82,2.82-6.49,6.55-6.95,11.37a19.27,19.27,0,0,0,4,13.05,36.39,36.39,0,0,0,11.16,9.32,113.45,113.45,0,0,0,14.26,6.89,120.89,120.89,0,0,0,30.78,7.9q4,.48,8.06.7c1.93.1,1.93-2.9,0-3a117.86,117.86,0,0,1-30.66-5.79A115.43,115.43,0,0,1,918.35,924a61.14,61.14,0,0,1-12.45-7.48c-3.58-3-6.46-6.7-7.44-11.32a12.36,12.36,0,0,1,4-12.2c3.51-3.12,8.11-5.2,12.37-7.08a137.41,137.41,0,0,1,14.59-5.31c4.89-1.52,9.82-2.89,14.73-4.33,2.49-.74,5-1.49,7.45-2.28a38.13,38.13,0,0,0,6.49-2.36c1.7-.91,3.06-2.55,2.72-4.58-.39-2.29-2.57-3.58-4.29-4.83-3.78-2.76-7.49-5.63-11.06-8.66a107,107,0,0,1-19.08-20.51,72.29,72.29,0,0,1-6.73-12c-2-4.6-3.75-9.72-3.19-14.8.52-4.85,3.44-9,6.41-12.72s5.86-7.11,9-10.45c5.92-6.28,12.85-12.32,21.35-14.64a27.44,27.44,0,0,1,6.23-.93c1.93-.06,1.94-3.06,0-3Z"/><path class="cls-3" d="M1260.9,909.05c.43-6.87,1.82-14.39,7-19.37a14.83,14.83,0,0,1,8.35-4.21c3.6-.42,6.92,1.06,9.85,3a43.28,43.28,0,0,1,13.68,14.39,29,29,0,0,1,3.38,8.95,27.24,27.24,0,0,1-.32,9.94,12.25,12.25,0,0,0,0,5.52,17,17,0,0,0,2.21,4.4,16.22,16.22,0,0,1,3,8.48c.18,6.18-3,12.2-7.49,16.28-5.12,4.61-11.72,7.16-18.23,9.08a173.92,173.92,0,0,1-22.65,5.18c-14.4,2.22-30,1.54-42.81-6.06a42.16,42.16,0,0,1-4.33-2.93c-1.5-1.17-3.64.94-2.12,2.12,12.51,9.71,28.78,12.1,44.19,10.52a159.49,159.49,0,0,0,25.33-5c7.08-1.91,14.3-4.27,20.23-8.7,5.41-4,9.56-9.88,10.61-16.66a18.43,18.43,0,0,0-.92-9.73c-1.3-3.25-4.42-6.06-4.34-9.73,0-2,.67-4,.89-6.05a24,24,0,0,0,0-5.15,30.89,30.89,0,0,0-3-10,45.44,45.44,0,0,0-13.84-16c-3-2.27-6.43-4.26-10.26-4.73a15.66,15.66,0,0,0-9.83,2.24c-6.61,3.92-9.81,11.22-10.94,18.54-.29,1.91-.48,3.83-.6,5.76s2.88,1.92,3,0Z"/><path class="cls-3" d="M970.07,595.46c2.17-4-.92-9-5.3-9.42-5.07-.47-8.9,4.46-8.7,9.2.23,5.38,4.08,9.43,8.43,12.14A43.2,43.2,0,0,0,972,611c2.26.86,5,1.27,6.26-1.34,2.64-5.5-1.3-11.85-5-15.74-1.33-1.4-3.45.72-2.12,2.12,2.5,2.63,4.94,6,4.89,9.84a5.36,5.36,0,0,1-.45,2.44c-.39.72-1.24.33-1.87.12a36.86,36.86,0,0,1-5.67-2.53c-3.28-1.78-6.7-4.1-8.21-7.67-1.34-3.15-.83-7.22,2.55-8.82a3.7,3.7,0,0,1,4.26.54,3.39,3.39,0,0,1,.89,4c-.92,1.7,1.67,3.21,2.59,1.52Z"/><path class="cls-3" d="M1065.86,472.27a84.12,84.12,0,0,0-61.17-15.35c-10.89,1.52-22.1,5.11-30.53,12.41-7.18,6.21-11.79,14.86-14.28,23.93-2.9,10.6-3.19,21.84-2,32.71l1.9-1.45c-5.36-1.66-10.43,1.39-14.14,5.06-3.94,3.88-7.12,8.71-10.07,13.36a95.56,95.56,0,0,0-13.3,31.74c-4.26,20.66.42,44.07,16.31,58.83,8.09,7.52,18.3,12.18,28.69,15.6,5.34,1.75,10.79,3.2,16.24,4.58,6.41,1.63,12.86,3.11,19.38,4.18,12.13,2,24.65,2.68,36.74.13a62.58,62.58,0,0,0,27.45-12.93c8.11-6.8,15.14-17.11,15-28.06-.09-6.09-2.56-11.83-5.28-17.17a89.91,89.91,0,0,0-9.51-14.81q-2.7-3.43-5.73-6.59c-1.34-1.39-3.45.73-2.12,2.13A87.52,87.52,0,0,1,1070,594a70.93,70.93,0,0,1,7.57,15,24.85,24.85,0,0,1-.09,16.86,38.86,38.86,0,0,1-8.18,13c-6.55,7.06-15.21,11.89-24.36,14.69-10.77,3.31-22.13,3.67-33.27,2.52-12-1.24-23.74-4.15-35.3-7.36-10.09-2.79-20.18-6.22-29-12.06a51.27,51.27,0,0,1-18.9-22.93,63.56,63.56,0,0,1-4.61-29.14,82.08,82.08,0,0,1,9-30.85,113.11,113.11,0,0,1,8.61-14.23c3-4.17,6.14-8.72,10.74-11.22a8.52,8.52,0,0,1,6.75-.85,1.51,1.51,0,0,0,1.9-1.45c-2-17.72-.23-38.59,12.78-52.08,7.44-7.72,17.85-11.57,28.19-13.49a81,81,0,0,1,62.44,14.46c1.56,1.15,3.05-1.46,1.52-2.59Z"/><path class="cls-3" d="M983.47,496.54c6-2.83,12.92-5,19.6-5.19a7.25,7.25,0,0,1,7.12,4c1.52,2.82,1.7,6.1,2.1,9.21.33,2.47.54,6.59,3.37,7.61,1.54.55,3.17-.23,4.62-.74,1.65-.57,3.3-1.18,5-1.75,6-2.07,12.18-3.63,18.51-2.25a26.32,26.32,0,0,1,15.61,10c1.12,1.54,3.73.05,2.59-1.52a29.54,29.54,0,0,0-14.12-10.44c-6.16-2.15-12.59-1.87-18.81-.13-3.38.95-6.66,2.21-10,3.36-.55.19-1.9.92-2.45.62s-.56-1-.68-1.42A42.31,42.31,0,0,1,1015,502c-.77-6.09-3.05-12.85-10.13-13.55-3.76-.37-7.88.56-11.52,1.45A61.56,61.56,0,0,0,982,494c-1.74.83-.22,3.42,1.52,2.59Z"/><path class="cls-3" d="M974.75,613.4c1.57,3.9,5.19,5.89,9.09,6.92a56.78,56.78,0,0,0,14.34,1.76,29.17,29.17,0,0,0,14.38-3.32,25.29,25.29,0,0,0,9-8.79,24.74,24.74,0,0,0,3.69-13.86c-.07-1.92-3.07-1.93-3,0a22.36,22.36,0,0,1-9.68,19.11c-7.4,5-17,4.29-25.43,2.77-3.44-.63-8-1.75-9.5-5.39-.71-1.77-3.61-1-2.9.8Z"/><path class="cls-3" d="M1024.72,603.73c3.81,2.48,7.41,5.42,7.55,10.35a11.81,11.81,0,0,1-4.64,9.26c-6.75,5.46-16.23,2.58-21.9-3-1.38-1.36-3.5.76-2.12,2.12,5.38,5.29,13.76,8.61,21.18,5.86,6.74-2.5,11.77-9.48,10.15-16.8-1.07-4.86-4.74-7.8-8.7-10.39-1.62-1.06-3.13,1.53-1.52,2.59Z"/><path class="cls-3" d="M986.83,522a14.36,14.36,0,0,0,11.3,9.73,5.33,5.33,0,0,0,4.3-1.13,12.48,12.48,0,0,0,2.63-3.32,17.64,17.64,0,0,0,2.4-8.38c.06-1.93-2.94-1.92-3,0a14.46,14.46,0,0,1-1.77,6.49,12.75,12.75,0,0,1-1.87,2.62,2.7,2.7,0,0,1-2.82.67,11.44,11.44,0,0,1-8.28-7.48c-.6-1.83-3.5-1-2.89.8Z"/><path class="cls-3" d="M1020,522.43a12.78,12.78,0,0,0,11.94,12.62c6.6.25,12.31-5.29,13-11.68.21-1.91-2.79-1.9-3,0a10.07,10.07,0,0,1-10,8.68,9.75,9.75,0,0,1-8.94-9.62c0-1.93-3-1.93-3,0Z"/><path class="cls-3" d="M833.6,695.66c16.79,4.93,34.45,6.32,51.88,6.52,17.88.21,35.73-.91,53.6-1.56,11.06-.39,22.14-.67,33.22-.52,1.93,0,1.93-3,0-3-18.69-.25-37.36.71-56,1.47-17.79.72-35.69,1.19-53.44-.52a153.31,153.31,0,0,1-28.43-5.28c-1.86-.55-2.65,2.35-.8,2.89Z"/><path class="cls-3" d="M941.27,653.27c-19.92-1.21-39.71-3.81-59.52-6.13q-8.5-1-17-1.89c-1.92-.2-1.91,2.81,0,3,19.82,2,39.55,4.81,59.39,6.68,5.72.53,11.44,1,17.17,1.34,1.93.12,1.92-2.88,0-3Z"/><path class="cls-3" d="M1085.23,660.76c-14.56,11.59-29.19,23.12-44.65,33.51-15.16,10.19-31.17,19.35-48.3,25.81a155.51,155.51,0,0,1-26,7.37A167.13,167.13,0,0,1,936,730c-20.85.09-41.71-2.23-62.55-.62-15.38,1.19-34.3,4.35-43.34,18.48-2.35,3.66-4.17,8.23-2.31,12.48,1.64,3.77,5.4,6.13,8.91,8,8.27,4.31,17.43,6.46,26.66,7.42a189.33,189.33,0,0,0,28.28.28c10.31-.48,20.61-1.21,30.87-2.3a352.1,352.1,0,0,0,60.32-11.35A245.51,245.51,0,0,0,1034,741.44a194.29,194.29,0,0,0,42.79-31.77q4.65-4.62,8.93-9.59c1.25-1.45-.86-3.58-2.12-2.12a181.21,181.21,0,0,1-39.82,34.17,227.8,227.8,0,0,1-47.34,22.78,313.57,313.57,0,0,1-58.61,13.91c-10,1.44-20.05,2.48-30.12,3.23-9.7.73-19.44,1.31-29.16,1.35-9.19,0-18.45-.52-27.38-2.81a60.54,60.54,0,0,1-12.95-4.86c-3.29-1.71-7.52-4.1-8.15-8.14s2.36-8.31,4.86-11.14a31.86,31.86,0,0,1,8.68-6.75c6.9-3.77,14.74-5.56,22.48-6.54,20.42-2.59,41-.64,61.51-.21a209.37,209.37,0,0,0,30.56-1.21A149.71,149.71,0,0,0,984.37,726c17.09-5.39,33.19-13.58,48.36-23,15.4-9.62,29.91-20.57,44.17-31.78,3.5-2.75,7-5.51,10.45-8.28,1.51-1.2-.63-3.31-2.12-2.12Z"/><path d="M210.62,265a2.61,2.61,0,0,1-.78-1.92V228.73H197.6a2.46,2.46,0,0,1-2.52-2.52,2.54,2.54,0,0,1,.72-1.83,2.39,2.39,0,0,1,1.8-.75h29.88a2.56,2.56,0,0,1,2.58,2.58,2.39,2.39,0,0,1-.75,1.8,2.54,2.54,0,0,1-1.83.72H215.3v34.38a2.56,2.56,0,0,1-.81,1.92,2.71,2.71,0,0,1-2,.78A2.61,2.61,0,0,1,210.62,265Z"/><path d="M236,265a2.61,2.61,0,0,1-.78-1.92V224.17a2.71,2.71,0,0,1,.78-1.95,2.56,2.56,0,0,1,1.92-.81,2.77,2.77,0,0,1,2.76,2.76v15.66a19.94,19.94,0,0,1,4.92-4,12.42,12.42,0,0,1,6.24-1.5,10.37,10.37,0,0,1,5.73,1.56,10.14,10.14,0,0,1,3.72,4.26,13.6,13.6,0,0,1,1.29,5.94v17a2.56,2.56,0,0,1-.81,1.92,2.71,2.71,0,0,1-1.95.78,2.66,2.66,0,0,1-2.7-2.7V246.67q0-7.32-6.6-7.32a9.55,9.55,0,0,0-5.37,1.56,19.44,19.44,0,0,0-4.47,4.2v18a2.56,2.56,0,0,1-.81,1.92,2.71,2.71,0,0,1-2,.78A2.61,2.61,0,0,1,236,265Z"/><path d="M272.18,227.77a3,3,0,0,1-.9-2.16v-.24a3.07,3.07,0,0,1,3.06-3.06h.36a3.07,3.07,0,0,1,3.06,3.06v.24a3.07,3.07,0,0,1-3.06,3.06h-.36A3,3,0,0,1,272.18,227.77Zm.36,37.26a2.61,2.61,0,0,1-.78-1.92V237.37a2.71,2.71,0,0,1,.78-2,2.56,2.56,0,0,1,1.92-.81,2.67,2.67,0,0,1,2.76,2.76v25.74a2.56,2.56,0,0,1-.81,1.92,2.73,2.73,0,0,1-2,.78A2.61,2.61,0,0,1,272.54,265Z"/><path d="M285.68,263.41a2.29,2.29,0,0,1-1-2,2.41,2.41,0,0,1,.66-1.68A2.18,2.18,0,0,1,287,259a2.64,2.64,0,0,1,1.08.24,23.91,23.91,0,0,0,3.84,1.32,17.85,17.85,0,0,0,4.32.48q6.66,0,6.66-4.26a2.27,2.27,0,0,0-1.53-2.1,31.33,31.33,0,0,0-5-1.62,44.79,44.79,0,0,1-5.85-1.74,10.29,10.29,0,0,1-4-2.73,6.94,6.94,0,0,1-1.65-4.83,8.65,8.65,0,0,1,3-6.84q3-2.64,8.67-2.64a25,25,0,0,1,8.7,1.5,2.25,2.25,0,0,1,1.29.9,2.41,2.41,0,0,1,.45,1.38,2.35,2.35,0,0,1-.69,1.68,2.27,2.27,0,0,1-1.71.72,3.37,3.37,0,0,1-.78-.12,23,23,0,0,0-6.84-1.08,9.37,9.37,0,0,0-5.07,1.17,3.49,3.49,0,0,0-1.83,3,2.77,2.77,0,0,0,1.68,2.64,24,24,0,0,0,5.22,1.62,50,50,0,0,1,5.76,1.77,9.52,9.52,0,0,1,3.81,2.73,7.41,7.41,0,0,1,1.59,5,7.93,7.93,0,0,1-3,6.36q-3,2.52-8.55,2.52A22.32,22.32,0,0,1,285.68,263.41Z"/><path d="M331.52,227.77a3,3,0,0,1-.9-2.16v-.24a3.07,3.07,0,0,1,3.06-3.06H334a3,3,0,0,1,2.16.9,3,3,0,0,1,.9,2.16v.24a3,3,0,0,1-.9,2.16,3,3,0,0,1-2.16.9h-.36A3,3,0,0,1,331.52,227.77Zm.36,37.26a2.61,2.61,0,0,1-.78-1.92V237.37a2.71,2.71,0,0,1,.78-2,2.54,2.54,0,0,1,1.91-.81,2.69,2.69,0,0,1,2,.78,2.72,2.72,0,0,1,.78,2v25.74a2.56,2.56,0,0,1-.81,1.92,2.73,2.73,0,0,1-2,.78A2.59,2.59,0,0,1,331.88,265Z"/><path d="M345,263.41a2.27,2.27,0,0,1-1-2,2.4,2.4,0,0,1,.65-1.68,2.18,2.18,0,0,1,1.68-.72,2.69,2.69,0,0,1,1.09.24,24.15,24.15,0,0,0,3.83,1.32,17.9,17.9,0,0,0,4.32.48c4.45,0,6.66-1.42,6.66-4.26a2.28,2.28,0,0,0-1.52-2.1,31.68,31.68,0,0,0-5-1.62,45,45,0,0,1-5.86-1.74,10.29,10.29,0,0,1-4-2.73,6.94,6.94,0,0,1-1.65-4.83,8.63,8.63,0,0,1,3-6.84q3-2.64,8.67-2.64a25,25,0,0,1,8.69,1.5,2.22,2.22,0,0,1,1.29.9,2.43,2.43,0,0,1,.46,1.38,2.39,2.39,0,0,1-.69,1.68,2.31,2.31,0,0,1-1.72.72,3.23,3.23,0,0,1-.77-.12,23,23,0,0,0-6.84-1.08,9.35,9.35,0,0,0-5.07,1.17,3.47,3.47,0,0,0-1.83,3,2.77,2.77,0,0,0,1.67,2.64,23.93,23.93,0,0,0,5.23,1.62,51.33,51.33,0,0,1,5.76,1.77,9.49,9.49,0,0,1,3.8,2.73,7.41,7.41,0,0,1,1.6,5,7.93,7.93,0,0,1-3,6.36c-2,1.68-4.86,2.52-8.54,2.52A22.26,22.26,0,0,1,345,263.41Z"/><path d="M391.21,265a2.61,2.61,0,0,1-.78-1.92V237.37a2.71,2.71,0,0,1,.78-2,2.56,2.56,0,0,1,1.92-.81,2.77,2.77,0,0,1,2.76,2.76v2.46a15,15,0,0,1,4.05-4,11,11,0,0,1,6.15-1.56,9.33,9.33,0,0,1,5.76,1.8,10,10,0,0,1,3.42,4.38,12.09,12.09,0,0,1,11-6.18,9.11,9.11,0,0,1,5.61,1.68,10,10,0,0,1,3.33,4.32,14.44,14.44,0,0,1,1.08,5.52v17.28a2.56,2.56,0,0,1-.81,1.92,2.71,2.71,0,0,1-1.95.78,2.65,2.65,0,0,1-2.69-2.7v-16.2c0-2.6-.47-4.51-1.39-5.73s-2.5-1.83-4.74-1.83a7.92,7.92,0,0,0-5.07,1.59,15.38,15.38,0,0,0-3.57,4.17v18a2.56,2.56,0,0,1-.81,1.92,2.71,2.71,0,0,1-1.95.78,2.66,2.66,0,0,1-2.7-2.7v-16.2q0-3.9-1.38-5.73t-4.74-1.83a7.92,7.92,0,0,0-5.07,1.59,15.38,15.38,0,0,0-3.57,4.17v18a2.56,2.56,0,0,1-.81,1.92,2.71,2.71,0,0,1-1.95.78A2.61,2.61,0,0,1,391.21,265Z"/><path d="M448.42,265a8.52,8.52,0,0,1-3.57-3.15,8.68,8.68,0,0,1-1.32-4.77A8.43,8.43,0,0,1,447,250q3.51-2.64,10.29-2.64h7.26v-.48q0-4-1.95-5.7t-6.09-1.74a20.45,20.45,0,0,0-4.05.36,34,34,0,0,0-3.93,1.08,3.37,3.37,0,0,1-.78.12,2.13,2.13,0,0,1-1.56-.66,2.2,2.2,0,0,1-.66-1.62,2.31,2.31,0,0,1,1.56-2.28,26.39,26.39,0,0,1,10.38-2.16,13.55,13.55,0,0,1,7,1.68,10.65,10.65,0,0,1,4.21,4.35,12.77,12.77,0,0,1,1.34,5.79v17a2.56,2.56,0,0,1-.81,1.92,2.69,2.69,0,0,1-1.95.78,2.68,2.68,0,0,1-2.7-2.7v-1.56a15.06,15.06,0,0,1-11.28,4.56A11.15,11.15,0,0,1,448.42,265Zm12-5a14.26,14.26,0,0,0,4.13-3.21v-5h-6.54q-9.06,0-9.06,4.74a4.45,4.45,0,0,0,1.47,3.48q1.47,1.32,4.89,1.32A10.92,10.92,0,0,0,460.46,260Z"/><path d="M480,265a2.61,2.61,0,0,1-.78-1.92V224.17a2.71,2.71,0,0,1,.78-1.95,2.56,2.56,0,0,1,1.92-.81,2.77,2.77,0,0,1,2.76,2.76v24.54L499,235.51a2.76,2.76,0,0,1,1.8-.78,2.43,2.43,0,0,1,2,.78,2.87,2.87,0,0,1,.63,1.86,2.94,2.94,0,0,1-1,2l-8.64,7.74,10.86,14.4a2.63,2.63,0,0,1,.6,1.62,2.49,2.49,0,0,1-.78,1.92,2.81,2.81,0,0,1-2,.72,2.66,2.66,0,0,1-1.2-.3,3,3,0,0,1-1-.84l-10.32-14-5.22,4.74v7.74a2.56,2.56,0,0,1-.81,1.92,2.71,2.71,0,0,1-1.95.78A2.61,2.61,0,0,1,480,265Z"/><path d="M512.35,227.77a3,3,0,0,1-.9-2.16v-.24a3.07,3.07,0,0,1,3.06-3.06h.36a3.07,3.07,0,0,1,3.06,3.06v.24a3.07,3.07,0,0,1-3.06,3.06h-.36A3,3,0,0,1,512.35,227.77Zm.36,37.26a2.61,2.61,0,0,1-.78-1.92V237.37a2.71,2.71,0,0,1,.78-2,2.56,2.56,0,0,1,1.92-.81,2.67,2.67,0,0,1,2.76,2.76v25.74a2.56,2.56,0,0,1-.81,1.92,2.71,2.71,0,0,1-2,.78A2.61,2.61,0,0,1,512.71,265Z"/><path d="M527.65,265a2.61,2.61,0,0,1-.78-1.92V237.37a2.71,2.71,0,0,1,.78-2,2.56,2.56,0,0,1,1.92-.81,2.77,2.77,0,0,1,2.76,2.76v2.46a19.94,19.94,0,0,1,4.92-4,12.42,12.42,0,0,1,6.24-1.5,10.37,10.37,0,0,1,5.73,1.56,10.14,10.14,0,0,1,3.72,4.26,13.6,13.6,0,0,1,1.29,5.94v17a2.56,2.56,0,0,1-.81,1.92,2.71,2.71,0,0,1-1.95.78,2.66,2.66,0,0,1-2.7-2.7V246.67q0-7.32-6.6-7.32a9.55,9.55,0,0,0-5.37,1.56,19.44,19.44,0,0,0-4.47,4.2v18a2.56,2.56,0,0,1-.81,1.92,2.71,2.71,0,0,1-1.95.78A2.61,2.61,0,0,1,527.65,265Z"/><path d="M570.67,279a23,23,0,0,1-5.82-2.22,2.28,2.28,0,0,1-1.08-2.1,2.46,2.46,0,0,1,.69-1.71,2.23,2.23,0,0,1,1.71-.75,3,3,0,0,1,1.08.24,21.83,21.83,0,0,0,9.9,2.28q9.18,0,9.18-9.78v-4a13.54,13.54,0,0,1-10.26,4.56,14.46,14.46,0,0,1-6.87-1.77,14.3,14.3,0,0,1-5.49-5.28,18,18,0,0,1,0-17.1,14.3,14.3,0,0,1,5.49-5.28,14.46,14.46,0,0,1,6.87-1.77,13.54,13.54,0,0,1,10.26,4.56v-1.5a2.71,2.71,0,0,1,.78-2,2.56,2.56,0,0,1,1.92-.81,2.77,2.77,0,0,1,2.76,2.76v26.82q0,7.56-3.66,11.64t-10.44,4.08A28.4,28.4,0,0,1,570.67,279Zm11.52-19.68a18,18,0,0,0,4.14-3.24V243.73a18,18,0,0,0-4.14-3.24,10.08,10.08,0,0,0-5-1.2,10.19,10.19,0,0,0-7.35,2.73q-2.85,2.73-2.85,7.89t2.85,7.89a10.19,10.19,0,0,0,7.35,2.73A10.08,10.08,0,0,0,582.19,259.33Z"/><path d="M617.65,265a2.61,2.61,0,0,1-.78-1.92V237.37a2.71,2.71,0,0,1,.78-2,2.56,2.56,0,0,1,1.92-.81,2.77,2.77,0,0,1,2.76,2.76v2.46a15,15,0,0,1,4-4,11,11,0,0,1,6.15-1.56,9.33,9.33,0,0,1,5.76,1.8,10,10,0,0,1,3.42,4.38,12.09,12.09,0,0,1,11-6.18,9.11,9.11,0,0,1,5.61,1.68,10,10,0,0,1,3.33,4.32,14.44,14.44,0,0,1,1.08,5.52v17.28A2.56,2.56,0,0,1,662,265a2.71,2.71,0,0,1-2,.78,2.66,2.66,0,0,1-2.7-2.7v-16.2q0-3.9-1.38-5.73t-4.74-1.83a7.92,7.92,0,0,0-5.07,1.59,15.38,15.38,0,0,0-3.57,4.17v18a2.56,2.56,0,0,1-.81,1.92,2.71,2.71,0,0,1-2,.78,2.66,2.66,0,0,1-2.7-2.7v-16.2q0-3.9-1.38-5.73T631,239.35a7.92,7.92,0,0,0-5.07,1.59,15.38,15.38,0,0,0-3.57,4.17v18a2.56,2.56,0,0,1-.81,1.92,2.71,2.71,0,0,1-1.95.78A2.61,2.61,0,0,1,617.65,265Z"/><path d="M674.2,261.94q-4.11-4.17-4.11-11.73a19.56,19.56,0,0,1,1.56-7.86,13.36,13.36,0,0,1,4.8-5.82,13.79,13.79,0,0,1,8-2.22,14,14,0,0,1,7.68,2.07A13.39,13.39,0,0,1,697,241.9a17,17,0,0,1,1.68,7.53,2.62,2.62,0,0,1-2.76,2.7H675.61a9.87,9.87,0,0,0,3.12,6.54q2.64,2.34,7.38,2.34a18,18,0,0,0,4.41-.48,18.32,18.32,0,0,0,3.69-1.38,2.38,2.38,0,0,1,1.08-.24,2.41,2.41,0,0,1,1.68.66,2.18,2.18,0,0,1,.72,1.68,2.59,2.59,0,0,1-1.56,2.22,18.74,18.74,0,0,1-10.5,2.64Q678.31,266.11,674.2,261.94Zm19.11-14.25a9.61,9.61,0,0,0-1.53-4.92,8.26,8.26,0,0,0-3.33-2.91,9.15,9.15,0,0,0-8,0,8.06,8.06,0,0,0-3.3,2.91,9.79,9.79,0,0,0-1.5,4.92Z"/><path d="M722.29,265a2.61,2.61,0,0,1-.78-1.92V237.37a2.71,2.71,0,0,1,.78-2,2.56,2.56,0,0,1,1.92-.81,2.77,2.77,0,0,1,2.76,2.76v2.46a19.94,19.94,0,0,1,4.92-4,12.42,12.42,0,0,1,6.24-1.5,10.37,10.37,0,0,1,5.73,1.56,10.14,10.14,0,0,1,3.72,4.26,13.6,13.6,0,0,1,1.29,5.94v17a2.56,2.56,0,0,1-.81,1.92,2.71,2.71,0,0,1-1.95.78,2.66,2.66,0,0,1-2.7-2.7V246.67q0-7.32-6.6-7.32a9.55,9.55,0,0,0-5.37,1.56,19.44,19.44,0,0,0-4.47,4.2v18a2.56,2.56,0,0,1-.81,1.92,2.71,2.71,0,0,1-1.95.78A2.61,2.61,0,0,1,722.29,265Z"/><path d="M762.52,264.55a10.14,10.14,0,0,1-3.72-4.26,13.6,13.6,0,0,1-1.29-5.94v-17a2.56,2.56,0,0,1,.81-1.92,2.71,2.71,0,0,1,1.95-.78,2.66,2.66,0,0,1,2.7,2.7v16.44q0,7.32,6.6,7.32a9.55,9.55,0,0,0,5.37-1.56,19.44,19.44,0,0,0,4.47-4.2v-18a2.56,2.56,0,0,1,.81-1.92,2.71,2.71,0,0,1,1.95-.78,2.66,2.66,0,0,1,2.7,2.7v25.74a2.71,2.71,0,0,1-.78,1.95,2.56,2.56,0,0,1-1.92.81,2.77,2.77,0,0,1-2.76-2.76v-2.46a19.94,19.94,0,0,1-4.92,4,12.42,12.42,0,0,1-6.24,1.5A10.37,10.37,0,0,1,762.52,264.55Z"/><path d="M796.15,258.19v-18.6h-4.26a1.13,1.13,0,0,1-1.14-1.14,1.25,1.25,0,0,1,.54-1l8.16-8a1.51,1.51,0,0,1,1-.54,1.06,1.06,0,0,1,.81.36,1.2,1.2,0,0,1,.33.84v4.8h6.78a2.26,2.26,0,0,1,2.34,2.34,2.3,2.3,0,0,1-.66,1.65,2.22,2.22,0,0,1-1.68.69h-6.78v18.12q0,2.34,1.11,3a5.59,5.59,0,0,0,2.79.63,8.32,8.32,0,0,0,2.4-.36l.51-.12a3.27,3.27,0,0,1,.69-.06,2.11,2.11,0,0,1,1.5.63,2,2,0,0,1,.66,1.53,2.27,2.27,0,0,1-1.38,2.1,11.74,11.74,0,0,1-5,1.08Q796.15,266.11,796.15,258.19Z"/><path d="M819.07,258.19v-18.6h-4.26a1.13,1.13,0,0,1-1.14-1.14,1.25,1.25,0,0,1,.54-1l8.16-8a1.51,1.51,0,0,1,1-.54,1.06,1.06,0,0,1,.81.36,1.2,1.2,0,0,1,.33.84v4.8h6.78a2.26,2.26,0,0,1,2.34,2.34,2.3,2.3,0,0,1-.66,1.65,2.22,2.22,0,0,1-1.68.69h-6.78v18.12q0,2.34,1.11,3a5.59,5.59,0,0,0,2.79.63,8.32,8.32,0,0,0,2.4-.36l.51-.12a3.27,3.27,0,0,1,.69-.06,2.11,2.11,0,0,1,1.5.63,2,2,0,0,1,.66,1.53,2.27,2.27,0,0,1-1.38,2.1,11.74,11.74,0,0,1-5,1.08Q819.07,266.11,819.07,258.19Z"/><path d="M844.9,278.83a2.59,2.59,0,0,1-.75-1.86,2.72,2.72,0,0,1,.18-1l3.9-10L837,238.51a3.07,3.07,0,0,1-.24-1.14,2.71,2.71,0,0,1,.78-2,2.56,2.56,0,0,1,1.92-.81,2.62,2.62,0,0,1,1.53.48,2.72,2.72,0,0,1,1,1.2l9.24,22.92,9.42-22.8a2.62,2.62,0,0,1,2.52-1.8,2.56,2.56,0,0,1,1.92.81,2.71,2.71,0,0,1,.78,2,2.88,2.88,0,0,1-.18,1l-16.38,39.36a2.7,2.7,0,0,1-2.52,1.86A2.44,2.44,0,0,1,844.9,278.83Z"/><path d="M870.1,264.7a3.23,3.23,0,0,1-1-2.37V262a3.38,3.38,0,0,1,3.36-3.36h.6a3.38,3.38,0,0,1,3.36,3.36v.36a3.38,3.38,0,0,1-3.36,3.36h-.6A3.23,3.23,0,0,1,870.1,264.7Z"/><path class="cls-3" d="M564.18,677.7c2.31,13.51,12.11,24.15,18.2,36a45.74,45.74,0,0,1,4,10.56c.44,1.88,3.34,1.08,2.9-.8-3.13-13.39-12.94-23.79-18.74-36a40.44,40.44,0,0,1-3.48-10.6c-.33-1.9-3.22-1.1-2.9.79Z"/><path class="cls-3" d="M567.83,678.07c16.34,10.29,32.75,20.47,49.42,30.23q7.08,4.14,14.21,8.17a1.46,1.46,0,0,0,1.51,0c7.48-5.75,17.48-7.92,26.75-8l-1.29-2.25a3.62,3.62,0,0,1-1.28,1.41s-.38.24-.22.09c-.07.06.12,0,.18.09.37.31.32.59.28,1s-.18.13.07.05a7.88,7.88,0,0,1,2.26-.39l-1.29-2.25c-2.92,5-5.8,10.1-8.77,15.11-2,3.46-5.21,7.44-4,11.73,1,3.51,4.49,5.78,7.86,6.61,3.57.89,7.33.67,11,.54s8.07-.5,11.59,1.18V738.8a189.17,189.17,0,0,0-25.37,21.4,1.5,1.5,0,0,0,2.12,2.12,185.25,185.25,0,0,1,24.76-20.93,1.51,1.51,0,0,0,0-2.59c-6.21-3-13.44-1.12-20-1.55-3-.19-6.16-.92-8.12-3.37-2.7-3.38.64-7.51,2.44-10.47,3.15-5.15,6.08-10.45,9.11-15.68a1.52,1.52,0,0,0-1.3-2.26c-1.49,0-3.26.2-4.41,1.26a2.25,2.25,0,0,0-.42,3c1.9,2.52,5-.23,6.13-2a1.52,1.52,0,0,0-1.3-2.26c-9.74.09-20.4,2.36-28.26,8.41H633c-16.77-9.48-33.27-19.45-49.63-29.63q-7-4.37-14-8.77c-1.64-1-3.15,1.57-1.51,2.59Z"/><path class="cls-3" d="M572,776.08l12.14,53.25c2,8.78,4.23,17.6,4.94,26.6a70.62,70.62,0,0,1-2.58,24.79,90.72,90.72,0,0,1-4.85,13.07c-1,2.16-2,4.35-3.2,6.41-.63,1.07-2.33,3.1-3.68,2.09-1.55-1.16-3,1.45-1.52,2.59,3.11,2.33,6.72-1.16,8.12-3.78A106.58,106.58,0,0,0,586.88,889a78.78,78.78,0,0,0,5.39-25.53c.3-9.46-1.58-18.81-3.65-28-2.12-9.44-4.29-18.86-6.44-28.29l-7.29-31.94c-.43-1.89-3.32-1.09-2.89.79Z"/><path class="cls-3" d="M573.42,682.7a1.18,1.18,0,0,1,0-.2c.09-.32-.06.1-.06.11s.1-.17.1-.18.17-.11-.07.08a2.2,2.2,0,0,0,.31-.3c-.27.28-.19.15-.06.07l.19-.12c.13-.06.31-.06-.07,0l.22-.08.23-.06c.13,0,.35,0-.09,0,.15,0,.3,0,.45,0s.36,0,.08,0,.07,0,.13,0l-.9-2.2c-.1.15-.2.3-.31.44l-.18.26,0-.06a5.9,5.9,0,0,1-.78.8c-.3.26.21-.13,0,0l-.2.14-.27.15c-.13.07-.33.08.06,0-.19,0-.37.13-.56.17l-.17,0,.19,0h-.39l.26,0a.71.71,0,0,1-.28-.06l-.21-.06c-.24-.08.37.18,0,0-.15-.08-.28-.18-.42-.26.35.21.19.15.09.06l-.19-.19c-.1-.12-.1-.23.08.11l-.12-.21c-.12-.19.11.38.06.15a.17.17,0,0,1,0-.1c0-.15,0-.07,0,.24a.38.38,0,0,0,0-.15c0,.32-.06.4,0,.25s0-.06,0,.09c-.14.3,0,0,0,0-.19.23-.23.29-.13.18s.06-.06-.16.12a1.66,1.66,0,0,0,.69-.9,1.49,1.49,0,0,0-2.2-1.69,2.63,2.63,0,0,0-1,1.34,2.42,2.42,0,0,0,0,1.41,3.73,3.73,0,0,0,1.67,2,4.08,4.08,0,0,0,2.83.55,5.17,5.17,0,0,0,2.5-1.23,9.36,9.36,0,0,0,1.76-2.1,1.51,1.51,0,0,0-.9-2.2,4.75,4.75,0,0,0-3.25.41,3.54,3.54,0,0,0-1.84,2.33,1.58,1.58,0,0,0,.16,1.15,1.47,1.47,0,0,0,.89.69,1.52,1.52,0,0,0,1.85-1Z"/><path class="cls-3" d="M600.75,785.13c8.19,2.09,16.66,4.19,24,8.56a28.66,28.66,0,0,1,8.94,8.07,37.79,37.79,0,0,1,5.13,11.46c5.39,19,4.75,39.55-.49,58.54-2.89,10.48-6.72,21.18-5.37,32.22.24,1.9,3.24,1.92,3,0-1.24-10.15,2-20,4.76-29.61a120.72,120.72,0,0,0,4.81-30.19,111.36,111.36,0,0,0-3.35-30c-2.17-8.5-6.09-16.18-13.36-21.37-8-5.7-17.91-8.15-27.27-10.54-1.87-.47-2.66,2.42-.79,2.9Z"/><path class="cls-3" d="M667.56,895.33c-13,6.8-27.24,13.94-35.71,26.47a33.83,33.83,0,0,0-4.43,9.2,31,31,0,0,0-1,9.54,4.34,4.34,0,0,1-.27,2,3.35,3.35,0,0,1-2,1.44,31.47,31.47,0,0,0-4.61,2.21,23.65,23.65,0,0,0-7,6.41c-1.73,2.39-3.79,6.15-2.8,9.17s4.13,3.82,6.84,4.13c3.76.42,7.68,0,11.46-.15l12.73-.45q12.86-.48,25.71-1L673,964a51.21,51.21,0,0,0,5.94-.38,6.57,6.57,0,0,0,4.21-2.24,16.59,16.59,0,0,0,2.25-4.68,131.45,131.45,0,0,0,8.7-46.85c0-2-.06-4-.15-6s-3.1-1.93-3,0a128.25,128.25,0,0,1-5.81,44.5c-.57,1.79-1.17,3.58-1.81,5.35a39.6,39.6,0,0,1-2,4.94c-.83,1.58-2.18,2-3.88,2.16-2,.17-4,.19-6,.27q-12.11.52-24.22,1t-24,.85c-2.89.1-6.35.59-9.1-.6-3.18-1.36-1-5.25.33-7.31a20,20,0,0,1,6.36-6.12,25.09,25.09,0,0,1,3.88-1.94c1.52-.61,3-1.25,3.91-2.74a7.25,7.25,0,0,0,.74-3.86,31.53,31.53,0,0,1,.08-4.86,26,26,0,0,1,2.87-8.75c7.43-14.14,23.16-21.76,36.69-28.83,1.72-.89.2-3.48-1.51-2.59Z"/><path class="cls-3" d="M577.68,907.07A31.7,31.7,0,0,0,589,923.33a39.75,39.75,0,0,0,9.25,5.37c4,1.66,8.27,2.4,12.24,4.08a1.55,1.55,0,0,0,2-.54,1.5,1.5,0,0,0-.54-2c-3.73-1.58-7.7-2.39-11.49-3.8a36.93,36.93,0,0,1-9.1-5,28.76,28.76,0,0,1-10.84-15.15,1.51,1.51,0,0,0-2.9.8Z"/><path class="cls-3" d="M577.74,885.53l-19.56,11c-5.56,3.15-12.18,6-16.29,11.1-3.66,4.54-4.65,10.26-4.12,16a67.56,67.56,0,0,0,3.72,16.17c2,5.56,5.24,10.59,10.71,13.2l-.69-1.69c-.23.72-2.56.88-3.2,1-1.51.33-3.23.85-4.08,2.26-1.11,1.83-.16,4,1.44,5.17,2,1.43,4.62,1.49,7,1.62a137.93,137.93,0,0,0,31.69-2A132,132,0,0,0,601.8,955c1.82-.6,1-3.49-.8-2.89A130.94,130.94,0,0,1,572.56,958a135.73,135.73,0,0,1-14.54.57c-2.39,0-4.79-.1-7.17-.3-.78-.06-5-.71-4-2.23.32-.46,1.32-.6,1.81-.71.75-.18,1.51-.3,2.26-.49a4.33,4.33,0,0,0,3.44-2.72,1.52,1.52,0,0,0-.69-1.69c-4.54-2.16-7.36-6.15-9.1-10.76A68.44,68.44,0,0,1,541,925.14c-.73-5.23-.39-10.85,2.93-15.18a23.69,23.69,0,0,1,6.44-5.43c2.77-1.73,5.66-3.28,8.51-4.89l20.43-11.52a1.5,1.5,0,0,0-1.52-2.59Z"/><path class="cls-3" d="M691.19,880.59a119.47,119.47,0,0,0-5-27.69c-.56-1.84-3.45-1-2.89.8a116,116,0,0,1,4.88,26.89c.11,1.92,3.11,1.93,3,0Z"/><path class="cls-3" d="M565.17,774.6A150.66,150.66,0,0,1,547.09,746c-2.44-4.88-4.71-9.84-6.91-14.83-1.08-2.45-2.14-4.9-3.2-7.36a50.14,50.14,0,0,1-3.06-8.19c-1.32-5.54,1-10.61,6.25-13l-1.81-.23c4.61,4.38,8,10.08,11.63,15.26,4.21,6,8.54,12.24,14.13,17.07a23.54,23.54,0,0,0,9,5.18,1.51,1.51,0,0,0,.8-2.9c-6.11-1.66-10.78-7-14.61-11.78-4.49-5.56-8.33-11.6-12.53-17.38a53,53,0,0,0-6.28-7.57,1.58,1.58,0,0,0-1.82-.24,13.56,13.56,0,0,0-8.12,11.13c-.51,5.89,2.79,11.67,5.06,16.9,4.69,10.83,9.57,21.61,15.63,31.76a136.67,136.67,0,0,0,11.82,16.85c1.23,1.5,3.34-.64,2.12-2.12Z"/><path class="cls-3" d="M667.42,789.68c14.51.16,29.21-2.11,42.59-7.86,11.94-5.13,22.66-13.49,28.67-25.22a51.67,51.67,0,0,0,5.45-21,1.52,1.52,0,0,0-2.56-1.07,125.43,125.43,0,0,1-14.18,10.67,63.62,63.62,0,0,1-18.31,7.7c-6.92,1.71-14,2.57-21,3.74-6.57,1.11-13.2,2.43-19.25,5.32-4.95,2.37-10.22,6.36-10.19,12.38a1.5,1.5,0,0,0,3,0c0-5,5-8.08,9-10,6-2.77,12.63-3.94,19.09-5,6.79-1.12,13.66-2,20.35-3.64a65.9,65.9,0,0,0,17.83-7.36,125.3,125.3,0,0,0,15.78-11.73l-2.56-1.06a47.22,47.22,0,0,1-15.85,33.29c-9.22,8.17-21.18,12.87-33.11,15.43a112.4,112.4,0,0,1-24.75,2.36,1.5,1.5,0,0,0,0,3Z"/><path class="cls-3" d="M636.08,729.16a17.13,17.13,0,0,0-10.55-5.93,1.52,1.52,0,0,0-1.85,1.84l1.43,5.44.71,2.71.33,1.26c.06.2.1.42.17.62s0,.21,0,.08c.35-1,1-1.06,2-.32a1.51,1.51,0,0,0-2-.54,1.55,1.55,0,0,0-.54,2.06c.68,1.55,2.95,1,3.47-.32a3.26,3.26,0,0,0-.06-2.07l-.52-2-2-7.73-1.84,1.84a14.46,14.46,0,0,1,9.23,5.17,1.52,1.52,0,0,0,2.12,0,1.54,1.54,0,0,0,0-2.13Z"/><path class="cls-3" d="M623.12,714.15a15.46,15.46,0,0,1-.45,1.78c-.07.25-.16.5-.25.75l-.18.49c-.12.3.09-.2-.06.12a17.34,17.34,0,0,1-1.75,3.08l2.36-.31c-.43-.47-.86-.95-1.27-1.44l-.61-.75-.17-.22,0,0-.29-.39a36.21,36.21,0,0,1-2.14-3.19,1.5,1.5,0,1,0-2.59,1.51,39.85,39.85,0,0,0,4.92,6.56,1.45,1.45,0,0,0,1.26.42,1.57,1.57,0,0,0,1.1-.72,18,18,0,0,0,3-6.93,1.5,1.5,0,1,0-2.89-.8Z"/><path class="cls-3" d="M587.65,711c3.78,5.06,8,10.64,8.18,17.22.06,1.92,3.06,1.93,3,0-.21-7.18-4.44-13.19-8.59-18.73a1.55,1.55,0,0,0-2-.54,1.51,1.51,0,0,0-.54,2.05Z"/><path class="cls-3" d="M711.75,887.39a929.55,929.55,0,0,1,71-89.77q10.75-12,21.93-23.63a1.52,1.52,0,0,0-1.46-2.51l-18.32,2.67,1.7,2.2,56.94-115,16.1-32.5a1.51,1.51,0,0,0-1.69-2.2l-69.68,12.83,1.85,1.85Q805.51,567,826.66,493.89q6-20.59,12.39-41.06a1.51,1.51,0,0,0-1.84-1.85c-40.09,12.51-76.67,33.52-112.85,54.41l2.25,1.3.49-68.06.24-34c.07-9.89.38-19.84-.62-29.69-1-10.24-3.59-20.33-9.42-28.94a1.52,1.52,0,0,0-2.59,0l-16.6,23.46-4,5.65c-1.27,1.8-2.51,3.87-4.35,5.15-4.25,2.94-10-1-14-2.75L622.87,354l-30.14-13.39c-1.29-.58-2.86.65-2.05,2.05a903.18,903.18,0,0,1,47.22,93.55q6.12,14.13,11.76,28.47l1.44-1.9-43.69-1.4a1.52,1.52,0,0,0-1.29,2.26q24.24,48.21,51.42,94.87,7.82,13.43,15.87,26.7l1.7-2.21-18.63-4.61a1.52,1.52,0,0,0-1.85,1.05,216.38,216.38,0,0,0,13.71,118.3c.74,1.75,3.64,1,2.9-.8a213.43,213.43,0,0,1-13.71-116.7l-1.85,1,18.63,4.61a1.52,1.52,0,0,0,1.69-2.21q-28-46.14-53.1-93.94-7.21-13.75-14.19-27.63l-1.3,2.26,43.69,1.4a1.51,1.51,0,0,0,1.45-1.9A907,907,0,0,0,608,367.5q-7.14-13.31-14.71-26.35l-2,2.05L649,368.88l28.65,12.73c3.49,1.55,7.4,3.55,11.31,2.37,3.74-1.12,5.93-4.82,8-7.82l20.28-28.68h-2.59c10.86,16,9.78,36.45,9.65,55l-.48,66.44-.27,37.81a1.51,1.51,0,0,0,2.26,1.29c36-20.76,72.29-41.67,112.13-54.11L836.16,452q-22.74,72.53-39.82,146.65-4.82,20.9-9.16,41.9a1.52,1.52,0,0,0,1.84,1.85l69.67-12.84-1.69-2.2-56.94,115L784,774.83a1.52,1.52,0,0,0,1.69,2.21L804,774.37l-1.46-2.5a935.57,935.57,0,0,0-74.2,87.44q-9.81,13.11-19.15,26.57c-1.1,1.59,1.49,3.09,2.59,1.51Z"/></svg>