<svg id="Layer_1" data-name="Layer 1" xmlns="http://www.w3.org/2000/svg" viewBox="0 0 1920 1080"><defs><style>.cls-1{font-size:60px;font-family:VarelaRound-Regular, Varela Round;}.cls-2{letter-spacing:0em;}.cls-3{letter-spacing:-0.04em;}.cls-4{letter-spacing:0em;}.cls-5{letter-spacing:-0.01em;}.cls-6{fill:#4d4d4d;}</style></defs><title>42-teeth</title><text class="cls-1" transform="translate(163.3 176.51)">Lou kn<tspan class="cls-2" x="192.42" y="0">e</tspan><tspan class="cls-3" x="226.08" y="0">w</tspan><tspan class="cls-4" x="271.2" y="0">.</tspan></text><text class="cls-1" transform="translate(1317.3 303.51)">Lou wh<tspan class="cls-5" x="207.24" y="0">o</tspan><tspan x="243" y="0">?</tspan></text><path class="cls-6" d="M345.61,451.91c-23.79,13-43,32.76-58.72,54.62-16.39,22.78-29.66,47.94-40.56,73.76a434.22,434.22,0,0,0-25.38,82,440.67,440.67,0,0,0-8.9,85.47,426.92,426.92,0,0,0,8.1,85.52q1,5.24,2.21,10.44c.42,1.88,3.32,1.08,2.89-.8a423,423,0,0,1-10.13-84.49A435.77,435.77,0,0,1,244.83,591.9a397.58,397.58,0,0,1,38.35-74.72c14.73-22.26,32.69-43,55.31-57.55q4.23-2.72,8.64-5.13c1.69-.92.18-3.51-1.52-2.59Z"/><path class="cls-6" d="M332.87,700c10.59-4.48,22.12-6.15,33.53-6.79a335.55,335.55,0,0,1,35.46.08q18.18.93,36.2,3.59a280.43,280.43,0,0,1,34.48,6.88A54.4,54.4,0,0,1,487,709.83a37.4,37.4,0,0,1,10.7,10.53c5.9,8.59,9.23,18.83,12,28.77,6.1,21.68,8.2,45.06,2.47,67.06-4.78,18.36-15,35.8-30.29,47.36-1.83,1.39-3.74,2.68-5.69,3.89a1.52,1.52,0,0,0,0,2.6c17.34,8.71,36.7,12.26,54.16,20.69,7.87,3.8,15.37,8.57,21.4,15,1.43,1.53,3.37,3.33,4,5.4.64,2.25-1.57,3.8-3.15,5a51.66,51.66,0,0,1-12.55,6.58c-9.46,3.53-19.49,5.25-29.49,6.32-10.4,1.12-20.86,1.79-31.29,2.41q-31.92,1.88-63.9,1.71t-63.87-2.4c-2.63-.18-5.27-.38-7.91-.58-1.92-.15-1.91,2.85,0,3q32.87,2.55,65.84,2.93t65.88-1.44c10.82-.59,21.65-1.29,32.44-2.34,10.33-1,20.7-2.51,30.57-5.82a61.1,61.1,0,0,0,13.23-6c3.43-2.15,8.48-5.29,7.1-10.08-.64-2.2-2.28-4-3.77-5.67a56.93,56.93,0,0,0-4.75-4.7,72.07,72.07,0,0,0-11-7.94c-16.91-10-36.46-13.75-54.42-21.33-2.36-1-4.68-2.07-7-3.22V870c16.9-10.46,28.88-27.39,35.26-46,7.39-21.64,6.8-45.25,1.76-67.33-2.44-10.72-5.66-21.64-10.69-31.46a50.82,50.82,0,0,0-8.76-12.5,40.79,40.79,0,0,0-13.16-8.79,89.73,89.73,0,0,0-15.47-4.73q-9.18-2.1-18.45-3.71c-12.21-2.13-24.53-3.67-36.89-4.61s-24.77-1.27-37.16-1c-11.69.28-23.52,1.18-34.77,4.56a82.69,82.69,0,0,0-8.07,2.93,1.51,1.51,0,0,0-.53,2.06,1.55,1.55,0,0,0,2.05.54Z"/><path class="cls-6" d="M602.33,744.51c8.9.3,16.61,5.14,23,11a112,112,0,0,1,9.29,9.82c3,3.54,6.21,7.1,8.47,11.19a19.2,19.2,0,0,1,1.54,14.54,56.28,56.28,0,0,1-5.7,13.42A92.23,92.23,0,0,1,621.49,826c-3.41,3.21-7,6.23-10.69,9.11-1.87,1.46-3.77,2.88-5.69,4.28-1.67,1.22-3.76,2.49-4.12,4.71-.78,4.72,6.25,6,9.42,7,4.87,1.56,9.8,2.95,14.72,4.38,9.85,2.86,19.75,5.9,28.77,10.9,3.88,2.15,8,4.88,9.27,9.39,1.26,4.34-.07,9.1-2.56,12.75-2.66,3.9-6.64,6.73-10.67,9.07a106.84,106.84,0,0,1-14,6.75A117.43,117.43,0,0,1,606,912c-2.53.3-5.07.51-7.62.65-1.92.1-1.93,3.1,0,3a120.29,120.29,0,0,0,46.4-11.95A67.29,67.29,0,0,0,657.54,896a24.17,24.17,0,0,0,8.28-11.51c1.37-4.44,1.11-9.51-1.54-13.43s-7-6.44-11.21-8.58a110.71,110.71,0,0,0-14.42-6c-10.1-3.47-20.5-5.94-30.61-9.38-1.16-.4-5.13-1.3-3.8-3.22a9.81,9.81,0,0,1,2.38-2c1-.75,2.07-1.52,3.1-2.29,3.84-2.89,7.6-5.9,11.19-9.1a101.77,101.77,0,0,0,19-21.82A69.73,69.73,0,0,0,646.2,796c1.83-4.9,2.95-10.28,1.68-15.47-1.19-4.85-4.27-8.93-7.36-12.73s-6-7.26-9.3-10.66c-6.16-6.39-13.45-12.38-22.22-14.65a31.27,31.27,0,0,0-6.67-.94c-1.93-.06-1.93,2.94,0,3Z"/><path class="cls-6" d="M474.53,466.88c-4.47-11.13-8.86-22.68-9.38-34.79-.47-10.69,2.15-22,9.89-29.8,6.88-6.93,17-10.34,26.36-6.82,8.62,3.23,15.07,11.4,17.49,20.13,3.42,12.36-.32,25.6-6.23,36.58l2.74,1.15,9.52-25.11c2.79-7.36,5.17-15.72,10.84-21.48a16.69,16.69,0,0,1,10.53-5.31l-1.5-1.5a129.92,129.92,0,0,1-5.17,46.47c-.55,1.85-1.15,3.7-1.8,5.53a23.17,23.17,0,0,1-1.94,4.66c-1.92,3.09-6.35,2.61-9.52,2.92a190.12,190.12,0,0,0-49.13,11.43c-1.79.68-1,3.58.79,2.9a189.16,189.16,0,0,1,48.11-11.31c3.39-.33,7.56,0,10.4-2.22s3.73-6.17,4.79-9.35a131.27,131.27,0,0,0,5.54-23.73,133.29,133.29,0,0,0,.93-27.3,1.52,1.52,0,0,0-1.5-1.5c-8.06.57-14.13,6.54-17.79,13.34a98.56,98.56,0,0,0-5.06,11.93l-5.11,13.49-5.82,15.35c-.6,1.59,2,2.63,2.74,1.15,5.74-10.67,9.32-22.95,7.35-35.12-1.63-10-7.82-19.53-16.86-24.39-9.32-5-20.34-3.68-28.77,2.52-9.41,6.91-14,18-14.76,29.4-.95,14.47,4.13,28.37,9.43,41.57.71,1.77,3.61,1,2.89-.79Z"/><path class="cls-6" d="M530.23,519.8a16.19,16.19,0,0,0-14.6-3.79,16,16,0,0,0-10.73,9.34c-.95,2.27-1.53,5-.6,7.37,1.05,2.66,3.71,3.56,6.26,4.24a41.24,41.24,0,0,0,9.76,1.42c2.68.07,5.12-.61,5.89-3.47a30.55,30.55,0,0,0,.92-8.78,13.93,13.93,0,0,0-2.82-8.37c-1.18-1.52-3.29.62-2.12,2.13,2.54,3.26,2.12,7.93,1.56,11.76a13.1,13.1,0,0,1-.53,2.79c-.38.95-1.38.95-2.27.95a36.83,36.83,0,0,1-7.62-.84c-1.16-.26-2.32-.55-3.45-.91a4.5,4.5,0,0,1-2.53-1.49c-1-1.53-.41-3.81.19-5.38a12.74,12.74,0,0,1,20.57-4.85c1.42,1.29,3.55-.82,2.12-2.12Z"/><path class="cls-6" d="M511.23,542.52a57.88,57.88,0,0,1,.46,21.83c-.32,1.89,2.57,2.7,2.9.79a62.13,62.13,0,0,0-.47-23.42c-.4-1.89-3.29-1.09-2.89.8Z"/><path class="cls-6" d="M498.41,542.15v27.26a1.5,1.5,0,0,0,3,0V542.15a1.5,1.5,0,0,0-3,0Z"/><path class="cls-6" d="M525.64,540.82A96.54,96.54,0,0,1,524,559.09c-.36,1.89,2.53,2.7,2.89.8a100.91,100.91,0,0,0,1.74-19.07,1.5,1.5,0,0,0-3,0Z"/><path class="cls-6" d="M501.26,569.09l18-1.25c1.91-.13,1.93-3.13,0-3l-18,1.25c-1.92.13-1.93,3.13,0,3Z"/><path class="cls-6" d="M501.89,542.13l22.63-1.8c1.91-.15,1.93-3.15,0-3l-22.63,1.8c-1.91.16-1.92,3.16,0,3Z"/><path class="cls-6" d="M211.88,850.05c-.46-7.49-2-15.51-7.45-21.08a18.43,18.43,0,0,0-8.82-5.16,15.52,15.52,0,0,0-10.47,1.36,38.86,38.86,0,0,0-9,6.44,47.22,47.22,0,0,0-7.17,8.23c-3.86,5.7-6.34,12.64-5.59,19.59.21,2,.84,4,.88,6.05a9.28,9.28,0,0,1-1.82,5.17,21,21,0,0,0-3.63,9.26c-.67,6.64,2.34,13.43,6.82,18.2,5.06,5.39,12.12,8.5,19.05,10.69a166.82,166.82,0,0,0,24.15,5.71c15.48,2.45,32.21,1.82,46-6.5a47.91,47.91,0,0,0,4.57-3.19c1.53-1.18-.61-3.29-2.12-2.12-11.57,9-26.89,11-41.11,9.73a147.81,147.81,0,0,1-23.67-4.54c-6.62-1.73-13.33-3.68-19.15-7.38-5.39-3.42-9.62-8.47-11.1-14.77a16.31,16.31,0,0,1,.29-8.9c1-3.07,3.52-5.43,4.42-8.57,1-3.55-.59-7.18-.67-10.76a25,25,0,0,1,1.67-9.29c2.31-6.15,6.71-11.45,11.68-15.67a27.88,27.88,0,0,1,8.84-5.52,12.21,12.21,0,0,1,9.54.84c6.35,3.3,9.23,10.06,10.33,16.79.29,1.79.45,3.59.56,5.39s3.12,1.93,3,0Z"/><path class="cls-6" d="M1223,670.94c9.23,9.08,22,12.56,33,18.74a49.3,49.3,0,0,1,8.82,6.13c1.44,1.28,3.57-.84,2.12-2.12-9.67-8.59-22.4-11.91-33.34-18.42a44.66,44.66,0,0,1-8.51-6.45c-1.38-1.36-3.5.76-2.12,2.12Z"/><path class="cls-6" d="M1225.56,669.37c16.18-.66,32.36-1.42,48.51-2.67q7-.54,13.93-1.2a1.57,1.57,0,0,0,1.5-1.5c1-7.83,5.75-15,11.55-20.23l-2.5-.66a5.18,5.18,0,0,1,.13,1.11c0,.08-.1.64-.09.67s-.14-.11.16-.11.42-.12.7,0,.27.3.44.45-.08.16,0-.06a6.33,6.33,0,0,1,1.11-1.4l-2.5-.66c1.25,5.59,2.55,11.18,3.76,16.78.74,3.47,1.14,7.29,3.53,10.1a8.55,8.55,0,0,0,9.11,2.3c3-1,5.42-3.3,7.69-5.46s4.94-5.1,8.35-5.71l-1.84-1.85a184.5,184.5,0,0,0-2.69,34c0,1.93,3,1.94,3,0a180.15,180.15,0,0,1,2.58-33.2,1.52,1.52,0,0,0-1.85-1.84c-6,1.07-9.29,7.17-14.14,10.21-2.21,1.39-5.18,2-7.37.16-2.48-2.05-2.77-6-3.36-9-1.18-5.8-2.59-11.56-3.88-17.33a1.52,1.52,0,0,0-2.51-.66,5.43,5.43,0,0,0-2,3.59,2.38,2.38,0,0,0,1.6,2.38c3.12.9,3.31-3.43,2.93-5.31a1.52,1.52,0,0,0-2.51-.66c-6.46,5.77-11.28,13.7-12.43,22.35l1.5-1.5c-16.06,1.52-32.17,2.51-48.28,3.26q-7.08.33-14.16.61c-1.92.08-1.93,3.08,0,3Z"/><path class="cls-6" d="M1263.37,700.34l9.68,52.24c1.61,8.67,3.4,17.35,4.09,26.16a86.27,86.27,0,0,1-1.68,24.88,105.24,105.24,0,0,1-3.81,13.27c-.79,2.2-1.63,4.37-2.55,6.51-.19.44-1.9,4.17-2.76,3.39-1.43-1.3-3.56.82-2.13,2.12,3.06,2.77,6.23-1.1,7.39-3.78a122.51,122.51,0,0,0,4.54-12.25,93.41,93.41,0,0,0,4.27-26c.15-9.29-1.4-18.51-3.07-27.62q-2.58-14-5.2-28l-5.88-31.73c-.35-1.9-3.24-1.1-2.89.79Z"/><path class="cls-6" d="M1232.28,669.66a2.4,2.4,0,0,1-.11-.23l.15.36a2,2,0,0,1-.14-.53l0,.4a2.41,2.41,0,0,1,0-.6l-.06.4a2.94,2.94,0,0,1,.16-.58l-.15.36a2.78,2.78,0,0,1,.3-.53l-.24.31a2.06,2.06,0,0,1,.39-.39l-.31.23a2.22,2.22,0,0,1,.39-.23l-2.2-.9c0,.18,0,.36.08.54l-.06-.4a7,7,0,0,1,0,1.88l.05-.4a3.47,3.47,0,0,1-.22.84l.15-.36a2.73,2.73,0,0,1-.32.55l.24-.3a2,2,0,0,1-.32.33l.3-.23a2,2,0,0,1-.35.2l.36-.15a1.91,1.91,0,0,1-.47.12l.4-.05a2.08,2.08,0,0,1-.61,0l.4.05a2,2,0,0,1-.5-.13l.36.15a2.24,2.24,0,0,1-.4-.22l.31.23a1.26,1.26,0,0,1-.2-.2l.23.3a1.09,1.09,0,0,1-.14-.23l.15.36a2.17,2.17,0,0,1-.07-.24l0,.4a1.5,1.5,0,0,1,0-.3l0,.39v0a1.69,1.69,0,0,0-.15-1.15,1.55,1.55,0,0,0-.9-.69,1.52,1.52,0,0,0-1.16.15,1.49,1.49,0,0,0-.69.9,2.55,2.55,0,0,0,.07,1.37,2.48,2.48,0,0,0,.73,1.1,3.43,3.43,0,0,0,2.27.82,3.35,3.35,0,0,0,2.28-.88,4.31,4.31,0,0,0,1.19-2.72,9.7,9.7,0,0,0-.18-2.79,1.43,1.43,0,0,0-.87-1,1.52,1.52,0,0,0-1.33.08,3.64,3.64,0,0,0-1.83,2.23,3.72,3.72,0,0,0,.31,2.9,1.5,1.5,0,1,0,2.59-1.51Z"/><path class="cls-6" d="M1288.67,675.72c.23,0,.26,0,.1,0s-.12,0,0,0,.11,0,0,0l-.13-.08.12.09-.14-.13c-.2-.19.13.25,0,0l-.15-.26c.18.3,0,.09,0,0s-.1-.27-.07-.31c0,.23,0,.26,0,.09V675c0-.12,0-.25,0-.37s0-.07,0,.14a.75.75,0,0,1,0-.16c0-.1.19-.43,0-.09l.15-.27c.14-.26-.18.16.07-.09l.29-.27c-.23.21,0,0,.11-.07a3.18,3.18,0,0,1,.4-.23l.18-.08c-.14.06-.16.07-.05,0l.44-.14a7.1,7.1,0,0,1,.8-.17c-.34,0,.11,0,.14,0l.41,0c.34,0,.68,0,1,0a21.1,21.1,0,0,0,4.7,0,1.51,1.51,0,0,0,1.05-1.85,1.53,1.53,0,0,0-1.84-1c-1.48.25-3.41-.18-5.07-.11a7,7,0,0,0-4.46,1.6,4.25,4.25,0,0,0-1.27,4.11,3.53,3.53,0,0,0,3.14,2.83,1.49,1.49,0,0,0,1.5-1.5,1.55,1.55,0,0,0-1.5-1.5Z"/><path class="cls-6" d="M1274.51,671.51c-.21-.23.13.25,0,0a1.4,1.4,0,0,1-.1-.16c-.06-.11-.06-.11,0,0s0-.05,0-.12a1,1,0,0,0-.07-.31c.08.13,0,.32,0,0,0-.1,0-.19,0-.28,0-.32-.08.34,0,0a2.86,2.86,0,0,1,.07-.28c0-.09.06-.19.09-.28.09-.3-.14.25,0,0a6.48,6.48,0,0,1,.33-.57c.17-.27-.08.06,0,0s.16-.18.24-.26.15-.14.22-.21-.25.16,0,0l.52-.31c.21-.11-.17,0,.11,0l.38-.12.46-.1.2,0h-.06c.29,0,.58,0,.88,0a7.5,7.5,0,0,1,.82,0l.41,0c-.32,0,.13,0,.16,0,.59.09,1.18.22,1.77.34a1.5,1.5,0,1,0,.8-2.89c-2.83-.61-6.1-1.13-8.5.89a5.47,5.47,0,0,0-1.8,3,4.18,4.18,0,0,0,1,3.73,1.51,1.51,0,0,0,2.12,0,1.54,1.54,0,0,0,0-2.12Z"/><path class="cls-6" d="M1286.94,709.39c7.26,2.28,15,4.67,20.86,9.7,6.4,5.45,9,13.4,10.52,21.39a137.06,137.06,0,0,1-1.27,56.57c-2.33,10.23-5.19,20.61-4.14,31.19.19,1.91,3.19,1.93,3,0-1-9.77,1.47-19.32,3.66-28.77a151,151,0,0,0,4.06-28.85,138.34,138.34,0,0,0-2.13-29.37c-1.49-8.26-3.89-16.78-10-22.86-6.41-6.36-15.32-9.25-23.74-11.9-1.84-.58-2.63,2.32-.79,2.9Z"/><path class="cls-6" d="M1341.18,819.59c-11.15,7.16-22.85,14.8-29.3,26.79a33.4,33.4,0,0,0-4.27,18.32c0,1.47,0,2.66-1.44,3.43a34.09,34.09,0,0,0-3.89,2.24,21.72,21.72,0,0,0-5.81,6.34c-1.48,2.47-3.1,6-2.5,8.93.55,2.73,3,4.11,5.56,4.49,3.21.48,6.58,0,9.81-.1l11.37-.5q11.61-.53,23.22-1.13c1.75-.09,3.51-.13,5.26-.29a6.79,6.79,0,0,0,4.37-1.64,9,9,0,0,0,2-3.71c.59-1.8,1.13-3.62,1.65-5.44a158.34,158.34,0,0,0,5.86-49.18c-.07-1.92-3.07-1.93-3,0a155.5,155.5,0,0,1-3.86,41c-.79,3.39-1.68,6.75-2.7,10.08a26.08,26.08,0,0,1-1.4,4.16c-.8,1.61-2.32,1.68-3.95,1.77q-10.74.59-21.49,1.07t-21.25.94c-2.27.09-5.7.7-7.67-.82s0-5.71,1-7.5a18.63,18.63,0,0,1,5.12-5.91c2.12-1.58,5.29-2.24,6.35-4.91a9.44,9.44,0,0,0,.45-3.74,33.87,33.87,0,0,1,.1-4.83,30.87,30.87,0,0,1,2.17-8.23c5.49-13.38,18.15-21.57,29.82-29.07,1.62-1,.12-3.64-1.51-2.59Z"/><path class="cls-6" d="M1268,831.33a32.38,32.38,0,0,0,9.18,16.16,31.65,31.65,0,0,0,7.47,5.37c3.27,1.67,6.9,2.49,10.15,4.18,1.72.89,3.23-1.7,1.52-2.59-3-1.58-6.41-2.37-9.49-3.85a29.14,29.14,0,0,1-7.26-5,29.72,29.72,0,0,1-8.68-15.09c-.42-1.89-3.31-1.09-2.89.79Z"/><path class="cls-6" d="M1268.17,809.79l-16.52,11.46c-4.79,3.33-10.3,6.5-13.34,11.66-2.74,4.65-3.19,10.23-2.73,15.5a82.57,82.57,0,0,0,3,15.58c1.51,5.22,4,10.4,8.86,13.25l-.69-1.69c-.22.8-2,.9-2.7,1.1a4.9,4.9,0,0,0-3.28,2.34,4.24,4.24,0,0,0,1,4.74c1.42,1.4,3.46,1.67,5.36,1.82a90.22,90.22,0,0,0,26.37-1.87,91.24,91.24,0,0,0,14.44-4.44c1.77-.71,1-3.61-.8-2.89a88.29,88.29,0,0,1-34.75,6.44c-2,0-3.93-.08-5.88-.29-.84-.09-4-.84-3-2.34.58-.82,2.37-.85,3.25-1.15a3.93,3.93,0,0,0,2.84-2.67,1.53,1.53,0,0,0-.69-1.69c-3.89-2.29-5.92-6.42-7.22-10.59a79.56,79.56,0,0,1-3-14.24c-.57-4.84-.59-10.1,1.7-14.55,2.53-4.91,7.54-7.82,11.93-10.87l17.32-12c1.58-1.1.08-3.7-1.51-2.59Z"/><path class="cls-6" d="M1360.81,804.85a145.47,145.47,0,0,0-4.06-27.69c-.47-1.87-3.36-1.08-2.9.8a140.3,140.3,0,0,1,4,26.89c.09,1.92,3.09,1.93,3,0Z"/><path d="M1206.58,526l18.34-4.1c5.79-1.29,11.64-2.56,17.6-2.65,5.34-.08,10.76.8,15.35,3.66a20,20,0,0,1,8.48,10.16,13.74,13.74,0,0,1-1.75,12.22c-2.47,3.72-6.16,6.51-9.59,9.29a51.36,51.36,0,0,0-9.65,9.61,40.47,40.47,0,0,0-5.95,12.25,41.13,41.13,0,0,0,2.42,29.85c.87,1.73,3.46.21,2.59-1.51a38.68,38.68,0,0,1,4-39.65c2.81-3.7,6.45-6.55,10-9.46s7-5.81,9.33-9.73a16.54,16.54,0,0,0,1.68-13.17,22.5,22.5,0,0,0-8.2-11.19,27.61,27.61,0,0,0-14.33-5.17c-6.72-.62-13.48.59-20,2-7,1.51-14.06,3.13-21.08,4.7-1.88.43-1.09,3.32.8,2.9Z"/><path d="M1242.33,622.6c0-.11,0-.22,0-.32,0-.37-.07.28,0,0s.08-.34.13-.51-.17.32,0,0l.15-.26.14-.22c.17-.26-.23.25,0,0a5.18,5.18,0,0,1,.4-.41c.12-.11.34-.18,0,0a1,1,0,0,0,.21-.15l.51-.3a1.3,1.3,0,0,0,.29-.14c-.1.11-.28.11,0,0a3.13,3.13,0,0,1,.52-.16l.31-.07c.37-.08-.3,0,0,0a4.89,4.89,0,0,1,.54,0l.3,0c.38,0-.29-.07,0,0a4.07,4.07,0,0,1,.5.13l.25.09c-.39-.08-.12,0,0,0l.22.14c.26.15-.25-.23,0,0a3.75,3.75,0,0,1,.44.45l-.44-1.06a5.77,5.77,0,0,0,0,.72c0-.25,0-.3,0-.13s0,.11,0,.17a2,2,0,0,1-.09.33l-.06.17c0,.14,0,.11.06-.12a1.67,1.67,0,0,0-.12.23c-.1.2-.28.39-.37.59.15-.19.17-.22.07-.1a1.34,1.34,0,0,1-.11.14l-.25.25-.19.18-.14.12.09-.07a3.68,3.68,0,0,0-.6.4l-.33.17-.15.07-.16.06-.35.11c-.23.07-.46.11-.7.16s.38,0,0,0H1243c-.23,0-.47,0-.7,0,.42,0,.13,0,0,0l-.34-.08-.24-.08c-.25-.08.33.16,0,0a3.07,3.07,0,0,1-.31-.17.71.71,0,0,1-.14-.1c-.13-.09-.1-.06.09.08-.14-.18-.37-.33-.52-.5a1.5,1.5,0,0,0-2.12,0,1.53,1.53,0,0,0,0,2.12c2.54,2.91,7.5,2,9.77-.78a5.55,5.55,0,0,0,1.24-2.54,2.64,2.64,0,0,0-1.35-3.28,5.81,5.81,0,0,0-5.45-.29,5.45,5.45,0,0,0-3.57,5,1.5,1.5,0,0,0,3,0Z"/><path class="cls-6" d="M1341.26,497.78a47.52,47.52,0,0,1,14.52-18.92,35,35,0,0,1,23.52-7.12c17.3,1.32,28.1,17.92,31.71,33.43,3.78,16.26,1,33.58-4.69,49.06a136.18,136.18,0,0,1-12.43,25.19A210.32,210.32,0,0,1,1378.71,600c-10.45,12.87-21.63,25.59-28.57,40.81-.84,1.84-1.61,3.7-2.33,5.59s2.22,2.59,2.9.8c6.13-16.28,17.57-29.71,28.44-43a253.56,253.56,0,0,0,15.72-20.76,140.54,140.54,0,0,0,13.34-25.78c6.3-16,9.48-33.89,6.18-50.95-3.08-16-13.25-33.45-30.23-37.25a36.49,36.49,0,0,0-25.3,3.85,46.64,46.64,0,0,0-17.33,17.36,54.49,54.49,0,0,0-2.86,5.59c-.78,1.75,1.8,3.28,2.59,1.52Z"/><path class="cls-6" d="M1340.11,493.92c6.17-9.61,12.48-19.41,21.26-26.89,8.33-7.1,18.62-11.39,29.16-14,10.8-2.67,21.92-3.71,33-4.48q19.45-1.35,39-1.23c12.52.07,25.38.05,37.68,2.65a67.1,67.1,0,0,1,27.32,12.67c15.29,11.88,25.64,29.29,32.75,47,8.28,20.69,15.27,45.36,7.3,67.18-4,10.93-11.15,20.38-18,29.69-6.49,8.89-13.06,17.74-20.51,25.87s-15.65,15.37-25.17,20.82c-10.28,5.88-21.61,9.67-31.76,15.78-17,10.25-29.26,26.42-38.64,43.63-4.85,8.9-9,18.14-13,27.46-4.45,10.48-8.93,21-12.6,31.77-3.89,11.38-6.61,23.15-6.78,35.22-.16,11,1.21,23.75-7.17,32.34-3.31,3.39-7.85,5.68-12.67,4.84-1.89-.33-2.7,2.56-.8,2.9,9.69,1.68,17.87-5.86,21.18-14.39,2.15-5.55,2.41-11.72,2.45-17.6,0-6.35-.07-12.65.8-18.95,1.71-12.51,5.94-24.52,10.59-36.2,4.13-10.39,8.41-20.75,13.1-30.9,8.57-18.57,19-37,34.93-50.32,9-7.57,19.61-12.26,30.22-17.14a110.41,110.41,0,0,0,28.77-18.47c8.31-7.57,15.48-16.28,22.27-25.21,7-9.22,14.24-18.53,20-28.57a65.39,65.39,0,0,0,9.13-34.17c-.19-12.11-3.16-24.07-6.91-35.52-6.14-18.74-15.17-37.21-29-51.54a74.81,74.81,0,0,0-23.18-16.61c-11-4.89-22.9-6.33-34.8-6.86-13.28-.59-26.61-.56-39.9-.07a357.67,357.67,0,0,0-36.57,2.85c-10.88,1.52-21.73,4.08-31.61,9-10.1,5-18.1,12.64-24.82,21.6-3.46,4.61-6.58,9.46-9.69,14.31-1,1.63,1.55,3.13,2.59,1.51Z"/><path class="cls-6" d="M409.86,576.77a172.43,172.43,0,0,1,38.49,21.62,170.15,170.15,0,0,1,16.72,14.2c5.25,5.07,10.85,10.45,13.93,17.19A14.91,14.91,0,0,1,480.21,640a12.2,12.2,0,0,1-4.53,6.4c-4.56,3.34-10.63,4.23-16.14,4.59-7.94.51-16,.34-23.91.47-8.49.13-17,.35-25.48.37-14.61,0-31-1.5-41.72-12.67a28.73,28.73,0,0,1-3.14-3.89c-1.07-1.59-3.67-.09-2.59,1.51,8.84,13.16,25.09,17.28,40.05,17.92,9,.38,18,0,26.94-.15s17.91-.18,26.87-.43c6-.17,12.36-.81,17.87-3.49,5.72-2.79,9.64-8.38,9.21-14.91-.51-7.68-5.76-14.22-10.83-19.6a171.54,171.54,0,0,0-17.14-15.87,175.24,175.24,0,0,0-39.61-24.14q-2.69-1.18-5.4-2.28c-1.8-.72-2.57,2.19-.8,2.9Z"/><path class="cls-6" d="M477,378.1c20.46-7.19,44.53-14.9,64.45-2.07a52.22,52.22,0,0,1,17.89,20.4,62.56,62.56,0,0,1,6.32,29.69c-.28,12.77-3.77,25.33-9,36.93a1.52,1.52,0,0,0,.9,2.2c4.28.81,8.64.9,13,1.38,4.1.45,8.46,1.36,11.64,4.17,6.44,5.67,5.76,15.67,4.26,23.3a72.49,72.49,0,0,1-25,41.36,69.13,69.13,0,0,1-24.27,13.06c-1.85.55-1.06,3.44.79,2.89a75,75,0,0,0,40.83-30.94,72.7,72.7,0,0,0,10.15-23.81c1.86-8.27,2.9-18.5-2.56-25.7-6.64-8.74-18.49-6.8-28-8.6l.89,2.2c9.26-20.55,13.44-44.79,4.31-66.14a56.66,56.66,0,0,0-17.5-22.8,48.2,48.2,0,0,0-29.78-9.56c-13.82.09-27.18,4.61-40.08,9.15-1.81.63-1,3.53.8,2.89Z"/><path class="cls-6" d="M483.19,557.18c-22.31-4.07-44.47-12.74-60.21-29.64-13.32-14.29-25.64-40.31-7.51-55.84,7.91-6.77,18.58-9.73,28.51-12.06,1.88-.44,1.08-3.33-.8-2.89-9.46,2.22-19.3,5-27.27,10.82a31.32,31.32,0,0,0-9.33,10.27,29.55,29.55,0,0,0-3.17,16.73c1,11.39,6.72,22.08,13.79,30.87A86.46,86.46,0,0,0,443,546.73c12.22,6.72,25.69,10.85,39.36,13.34,1.89.35,2.7-2.54.8-2.89Z"/><path class="cls-6" d="M482.75,365.57a280.88,280.88,0,0,1,44.42-28.89,236.07,236.07,0,0,1,49-19.08,201.29,201.29,0,0,1,52.94-6.72,181.23,181.23,0,0,1,52.87,8.2,160.75,160.75,0,0,1,24.92,10.2c7.86,4,15.51,8.74,24.06,11.17a43.9,43.9,0,0,0,6.53,1.31,1.49,1.49,0,0,0,1.44-1.1c4.1-17.9.33-37.86-10.9-52.53a51.27,51.27,0,0,0-22.84-16.94C694.11,267,682,266.3,670.3,266.26c-24.34-.08-48.57,3.88-72,10.35-23.61,6.51-46.47,15.54-68.71,25.72-10.39,4.75-20.82,9.81-29.54,17.31S485.38,337,480.42,347.19c-1.23,2.54-2.4,5.1-3.56,7.67-.79,1.75,1.79,3.28,2.59,1.52,4.54-10.08,9.41-20.31,16.75-28.69s17.16-14.24,27.17-19.13a455.15,455.15,0,0,1,65.88-26.18c22.76-7,46.28-11.81,70.11-12.89,21-.95,45.38-.68,61.41,14.94,12.8,12.48,18.36,31.37,16.4,48.93a59.26,59.26,0,0,1-1.13,6.5l1.45-1.1c-9-1.17-17.15-5.74-25.07-10a176.91,176.91,0,0,0-24.71-11A181.62,181.62,0,0,0,634.56,308a202.58,202.58,0,0,0-53.59,5.3,235.7,235.7,0,0,0-50,18.07,276.77,276.77,0,0,0-45.15,28q-2.64,2-5.23,4.06c-1.52,1.19.62,3.3,2.12,2.12Z"/><path class="cls-6" d="M472.16,359.69c-5.45-13.93-10.91-28.1-11.8-43.18-.84-14.23,1.86-28.46,6.91-41.73,10-26.2,29.08-47.8,49.68-66.28,5.23-4.69,10.73-9.19,17-12.35,6.56-3.28,13.81-4.8,21-6.19,7.56-1.48,15.17-3,22.9-3.17a19.05,19.05,0,0,1,4.95.23c1.73.43,1.72,1.57.85,2.93-1.88,2.91-4.67,5.45-7.16,7.84-5.08,4.85-10.59,9.24-15.8,14-5,4.47-9.74,9.15-14.34,14a264.66,264.66,0,0,0-25.25,31,261.29,261.29,0,0,0-20.28,34.52c-2.94,6-5.62,12.12-8.1,18.32s-4.87,12.52-8.17,18.37A49.92,49.92,0,0,1,479,336.1c-1.25,1.46.86,3.59,2.12,2.12,9.11-10.62,12.87-24.53,18.46-37.09a260.68,260.68,0,0,1,45-69q7-7.74,14.62-14.89c5.16-4.84,10.61-9.33,15.89-14a103.71,103.71,0,0,0,7.94-7.75c2-2.22,5.58-5.58,4-8.91-1.35-2.79-5-2.77-7.6-2.78a80.73,80.73,0,0,0-12,.94,200,200,0,0,0-23.28,4.6,58.89,58.89,0,0,0-19.71,9.29,161.83,161.83,0,0,0-16.48,14.26c-5.12,4.89-10.06,10-14.74,15.27A160.89,160.89,0,0,0,469,263.4a112.63,112.63,0,0,0-11.58,42.07,89.84,89.84,0,0,0,1.26,21.72,137.69,137.69,0,0,0,6.55,22.68c1.31,3.56,2.69,7.09,4.07,10.62.69,1.78,3.59,1,2.89-.8Z"/><path class="cls-6" d="M433,384.3c-10,1.25-19.1,6.34-26.12,13.53-7.67,7.85-12.57,17.91-15.55,28.38a122.91,122.91,0,0,0-3.63,18.92c-.23,1.92,2.77,1.9,3,0,2.42-20,9.27-41.44,27.42-52.48A37.64,37.64,0,0,1,433,387.3c1.89-.23,1.92-3.23,0-3Z"/><path class="cls-6" d="M506.93,442.65a8.49,8.49,0,0,1-.67-3,4.45,4.45,0,0,1,.14-1.28,3.45,3.45,0,0,1,.12-.43c0-.06.15-.41.05-.17a4.48,4.48,0,0,1,.35-.65,2.2,2.2,0,0,1,.17-.25c-.12.17,0,0,0-.05.15-.17.3-.33.47-.49s.28-.24.1-.09a2.07,2.07,0,0,1,.24-.17l.25-.15s.42-.21.17-.1a3.45,3.45,0,0,1,.62-.2c.07,0,.38-.05.11,0h.58c.28,0,0,0,0,0,.21,0,.41.12.62.17s-.17-.14,0,0a1.23,1.23,0,0,0,.25.14c.11.07.41.32.17.11a4.49,4.49,0,0,1,.39.36l.2.23c-.17-.2,0,0,.05.08s.17.28.24.42a2.26,2.26,0,0,1,.11.22c.18.35-.06-.19,0,0a5.52,5.52,0,0,1,.29,1.13c-.05-.35,0,.12,0,.22a4.28,4.28,0,0,1,0,.62c0,.09-.07.25,0,0,0,.08,0,.17-.05.25a5.58,5.58,0,0,1-.18.58c.11-.3,0,0,0,.05l-.17.31a4.76,4.76,0,0,1-.31.47c.15-.2,0,0,0,0s-.15.18-.23.26a5.66,5.66,0,0,1-.52.47c-.2.17.28-.17-.09.07L510,442l-.63.34-.26.12c.27-.12-.16.05-.17.05-.23.08-.46.15-.7.21a6.9,6.9,0,0,1-2.76.16,1.51,1.51,0,0,0-1.5,1.5,1.53,1.53,0,0,0,1.5,1.5c4.37.49,9.86-2.42,9.48-7.42a6.42,6.42,0,0,0-3.15-5.26,5.58,5.58,0,0,0-6.68,1.4c-2.21,2.44-2.22,6-1.07,8.89a1.53,1.53,0,0,0,1.84,1.05,1.51,1.51,0,0,0,1.05-1.85Z"/><path class="cls-6" d="M535,443.9a1.87,1.87,0,0,0-.22-.07c-.18,0,.32.18.07,0l-.21-.12c.21.12-.09-.12-.16-.18s.08.07.08.09-.14-.21-.16-.26a1.24,1.24,0,0,0-.1-.2s.12.35.05.11l-.12-.44c0-.15.06-.11,0,.13a1.15,1.15,0,0,0,0-.18c0-.17,0-.33,0-.5s-.08.38,0,.08a1.36,1.36,0,0,1,0-.17,1.87,1.87,0,0,0,.07-.22c0-.18-.18.33,0,.07.06-.11.14-.23.2-.35s-.26.25,0,.06c.06-.05.15-.2.22-.21s-.3.19-.05,0l.18-.11c.09-.05.33-.25,0,0,0,0,.16-.06.2-.08s.32-.06.46-.11-.36,0,0,0H536c.35,0-.23-.07,0,0l.48.1.26.09,0,0c.15.06.14.05-.06,0,.13,0,.37.2.48.27s.29.23.11.07.09.08.1.1.21.21.31.32c-.21-.23,0,0,0,0l.16.25c0,.07.07.14.11.22s.13.32,0,.08q.1.29.18.57a2,2,0,0,1,0,.24s.06.4,0,.16,0,.16,0,.17a1.93,1.93,0,0,1,0,.24c0,.23,0,.46,0,.68s.08-.36,0,0c0,.08,0,.16,0,.24s-.09.36-.14.54-.22.58-.09.27a4.2,4.2,0,0,1-.3.6c-.06.09-.11.18-.17.26-.21.33.2-.19-.06.09a4.27,4.27,0,0,1-.44.41c.25-.2,0,0,0,0s-.46.16-.13.07l-.22.07c-.28.09.3,0,0,0a1.55,1.55,0,0,1-.21,0c.23,0,.26,0,.09,0l-.15,0,0,0c-.16-.05-.13,0,.07,0-.05,0-.23-.12-.27-.14-.21-.12.1,0,.07.05l-.11-.11c-.07-.08,0,0,.08.12l-.05-.09c-.06-.11-.06-.11,0,0s.05.12,0,0a1.29,1.29,0,0,1,0-.19,1.51,1.51,0,0,0-1.85-1.05,1.55,1.55,0,0,0-1,1.84,3.26,3.26,0,0,0,2.45,2.45,4,4,0,0,0,3.62-1,7.11,7.11,0,0,0,1.9-6.54,5.59,5.59,0,0,0-4.45-4.45,4.6,4.6,0,0,0-5.34,3c-.65,2.18.49,4.89,2.8,5.45a1.5,1.5,0,1,0,.8-2.89Z"/><path class="cls-6" d="M533,610.55c11.68.22,24.33.08,35-5.44a29.63,29.63,0,0,0,12.14-11.63c2.9-5.09,4.48-10.79,6.41-16.28s4.19-10.72,8.52-14.53c4.72-4.15,11.13-5.66,17.24-6.17,7.18-.6,14.47-.17,21.65.19q12.15.6,24.24,1.94c16.29,1.76,32.51,4.25,48.73,6.59l11.75,1.69c2.78.4,6.63.36,8.91,2.28s-1.85,4.81-3.27,6a49.38,49.38,0,0,1-8.36,5.67c-12.66,6.9-27.26,8.63-41.43,9.35-8,.4-16,.51-24,1.12a43.47,43.47,0,0,0-10.76,1.78,22.48,22.48,0,0,0-8.25,5.09,54.11,54.11,0,0,0-6.39,7.77c-2.26,3.15-4.53,6.3-6.85,9.41q-7,9.42-14.6,18.43c-4.57,5.46-9.16,11.57-15.35,15.29-6,3.59-13.07,4.35-19.92,4.26-3.42,0-6.83-.31-10.24-.59-1.93-.16-1.92,2.84,0,3,7.11.58,14.33,1.08,21.39-.27a33.58,33.58,0,0,0,18-10.17c5.43-5.61,10.31-11.81,15.16-17.91q7.46-9.37,14.39-19.12a55,55,0,0,1,6.36-7.84,19.54,19.54,0,0,1,8.94-5,60.88,60.88,0,0,1,11.26-1.35c4.17-.25,8.33-.4,12.5-.56,15-.55,30.38-1.24,44.48-6.92A55.82,55.82,0,0,0,728,576c2.08-1.94,4.53-4.57,2.85-7.57-1.27-2.28-4.2-3.3-6.62-3.71-8.15-1.37-16.37-2.36-24.54-3.54s-16.47-2.38-24.71-3.48a471.68,471.68,0,0,0-49.66-4.33c-12.63-.34-27.27-.25-35.65,10.83-7.21,9.53-7.12,22.82-15,32-8,9.3-21.13,11.09-32.69,11.41-3,.09-6,.06-8.92,0-1.93,0-1.93,3,0,3Z"/><path class="cls-6" d="M1263.11,737.62a41.51,41.51,0,0,1-20.92-36.08,42.24,42.24,0,0,1,2.35-13.55c.64-1.82-2.26-2.61-2.89-.79a44.25,44.25,0,0,0,19.95,53,1.5,1.5,0,0,0,1.51-2.59Z"/><path class="cls-6" d="M1255.1,656.52c.11-1.3,1.37-2.21,2.37-2.87,1.22-.8,2.52-1.52,3.8-2.21a54.27,54.27,0,0,1,8.61-3.74c5.84-1.9,12-2.55,18-.82l-.36-2.74c-3,1.45-6.19,3-8.36,5.64a9.84,9.84,0,0,0-2.18,9.1c.57,1.84,3.47,1,2.89-.8-1.82-5.85,4.93-9.31,9.16-11.35a1.51,1.51,0,0,0-.35-2.74c-6.88-2-14.15-1.14-20.81,1.24a59.8,59.8,0,0,0-9.8,4.57c-2.71,1.55-5.66,3.31-6,6.72-.17,1.92,2.84,1.91,3,0Z"/><path class="cls-6" d="M1335.24,694.72c5.92-1.51,12.29-2,18.21-.24,5.76,1.75,10,5.87,13,11a90.47,90.47,0,0,1,7.14,16.69,36.86,36.86,0,0,1,2.23,9.92,27,27,0,0,1-1.36,9.8A44.09,44.09,0,0,1,1350.92,768a28.71,28.71,0,0,1-16.52,2.2c-.14,0-.73-.06-.84-.19s0-1,0-1.21c0-.72,0-1.44.12-2.15a31.59,31.59,0,0,1,1-5.09c.82-3.1,1.94-6.12,2.89-9.18a43.15,43.15,0,0,0,1.24-21.69,65,65,0,0,0-8.34-20.5,1.51,1.51,0,0,0-2.6,1.52,62.39,62.39,0,0,1,8.05,19.78,40.92,40.92,0,0,1,.74,10.3,42.92,42.92,0,0,1-2.11,10.21c-1.1,3.47-2.38,6.89-3.18,10.44a32.94,32.94,0,0,0-.73,4.64c-.13,1.56-.43,3.78.76,5,.93,1,2.51,1,3.77,1.22a27.55,27.55,0,0,0,4.89.24,32.27,32.27,0,0,0,8.86-1.61c12.1-4,22.11-14.08,27.11-25.68a31.52,31.52,0,0,0,1.72-20.94,98.92,98.92,0,0,0-3.53-10.19c-1.11-2.88-2.28-5.75-3.67-8.51-3.13-6.2-7.64-11.65-14.22-14.31-6.91-2.79-14.76-2.29-21.85-.49-1.87.48-1.08,3.37.79,2.9Z"/></svg>