<svg id="Layer_1" data-name="Layer 1" xmlns="http://www.w3.org/2000/svg" viewBox="0 0 1920 1080"><defs><style>.cls-1{fill:#e03838;}.cls-1,.cls-2{opacity:0.5;}.cls-2{fill:#c335e5;}.cls-3{fill:#4d4d4d;}</style></defs><title>21</title><path class="cls-1" d="M280,962S156.33,513,170.07,523s136.75,71,136.75,71L193.17,413,326.8,448,293.08,90l135.5,383L516,201,482.28,660l29.35-66L442.94,962Z"/><path class="cls-2" d="M1029.74,698.33c1-22.14-11.67-97.7-7.48-132.25s-45.2-223.54,59.58-221.42,674,12.73,671.89,39.82-34.22,351.44-127.51,350.83-322.47-3.2-429.6-12.47S1029.34,707.37,1029.74,698.33Z"/><path d="M141.33,192.12a4.21,4.21,0,0,1-1.41-2L128.16,154a4.2,4.2,0,0,1-.18-1,2.37,2.37,0,0,1,.69-1.89,2.64,2.64,0,0,1,2-.75,2.54,2.54,0,0,1,1.68.6,3.23,3.23,0,0,1,1,1.56l10.08,33.12,10.14-33a3,3,0,0,1,1.17-1.65,3.33,3.33,0,0,1,3.9,0,3,3,0,0,1,1.17,1.65l10.14,33L180,152.49a3.23,3.23,0,0,1,1-1.56,2.54,2.54,0,0,1,1.68-.6,2.64,2.64,0,0,1,2,.75,2.37,2.37,0,0,1,.69,1.89,4.2,4.2,0,0,1-.18,1L173.4,190.11a4.21,4.21,0,0,1-1.41,2,3.48,3.48,0,0,1-2.13.69,3.54,3.54,0,0,1-2.19-.75,3.73,3.73,0,0,1-1.35-1.95l-9.66-30.6L147,190.11a3.73,3.73,0,0,1-1.35,1.95,3.54,3.54,0,0,1-2.19.75A3.48,3.48,0,0,1,141.33,192.12Z"/><path d="M192.21,192a8.52,8.52,0,0,1-3.57-3.15,8.68,8.68,0,0,1-1.32-4.77,8.41,8.41,0,0,1,3.51-7.08q3.51-2.64,10.29-2.64h7.26v-.48q0-4-1.95-5.7t-6.09-1.74a20.45,20.45,0,0,0-4.05.36,34,34,0,0,0-3.93,1.08,3.37,3.37,0,0,1-.78.12,2.13,2.13,0,0,1-1.56-.66,2.2,2.2,0,0,1-.66-1.62,2.31,2.31,0,0,1,1.56-2.28,26.39,26.39,0,0,1,10.38-2.16,13.55,13.55,0,0,1,7,1.68,10.56,10.56,0,0,1,4.2,4.35,12.65,12.65,0,0,1,1.35,5.79v17A2.56,2.56,0,0,1,213,192a2.71,2.71,0,0,1-1.95.78,2.66,2.66,0,0,1-2.7-2.7v-1.56a15.07,15.07,0,0,1-11.28,4.56A11.15,11.15,0,0,1,192.21,192Zm12-5a14.18,14.18,0,0,0,4.14-3.21v-5h-6.54q-9.06,0-9.06,4.74a4.45,4.45,0,0,0,1.47,3.48q1.47,1.32,4.89,1.32A10.85,10.85,0,0,0,204.24,187Z"/><path d="M223.44,154.77a3,3,0,0,1-.9-2.16v-.24a3.07,3.07,0,0,1,3.06-3.06H226a3.07,3.07,0,0,1,3.06,3.06v.24a3.07,3.07,0,0,1-3.06,3.06h-.36A3,3,0,0,1,223.44,154.77ZM223.8,192a2.61,2.61,0,0,1-.78-1.92V164.37a2.71,2.71,0,0,1,.78-2,2.56,2.56,0,0,1,1.92-.81,2.67,2.67,0,0,1,2.76,2.76v25.74a2.56,2.56,0,0,1-.81,1.92,2.71,2.71,0,0,1-1.95.78A2.61,2.61,0,0,1,223.8,192Z"/><path d="M239.76,185.19v-18.6H235.5a1.1,1.1,0,0,1-.81-.33,1.06,1.06,0,0,1-.33-.81,1.25,1.25,0,0,1,.54-1l8.16-8a1.51,1.51,0,0,1,1-.54,1.06,1.06,0,0,1,.81.36,1.2,1.2,0,0,1,.33.84v4.8H252a2.26,2.26,0,0,1,2.34,2.34,2.3,2.3,0,0,1-.66,1.65,2.22,2.22,0,0,1-1.68.69h-6.78v18.12c0,1.56.36,2.55,1.11,3a5.59,5.59,0,0,0,2.79.63,8.37,8.37,0,0,0,2.4-.36l.51-.12a3.27,3.27,0,0,1,.69-.06,2.11,2.11,0,0,1,1.5.63,2,2,0,0,1,.66,1.53,2.27,2.27,0,0,1-1.38,2.1,11.74,11.74,0,0,1-5,1.08Q239.76,193.11,239.76,185.19Z"/><path d="M260.43,201a1.74,1.74,0,0,1-.51-1.26,1.65,1.65,0,0,1,.9-1.5,7.05,7.05,0,0,0,2.28-2.1,6.41,6.41,0,0,0,.78-3.48h-.25a3.38,3.38,0,0,1-3.35-3.36V189a3.38,3.38,0,0,1,3.35-3.36h.61A3.38,3.38,0,0,1,267.6,189v3.54a9.65,9.65,0,0,1-4.92,8.76,1.92,1.92,0,0,1-1,.3A1.62,1.62,0,0,1,260.43,201Z"/><path d="M299,192.09a3.68,3.68,0,0,1-1.33-1.8l-8.52-25a3.23,3.23,0,0,1-.18-1,2.66,2.66,0,0,1,2.7-2.7,2.74,2.74,0,0,1,1.53.45,2.21,2.21,0,0,1,.93,1.17l7,23.1,7-22.56a3.08,3.08,0,0,1,4.77-1.56,3.09,3.09,0,0,1,1.12,1.56L321,186.33l7-23.1a2.21,2.21,0,0,1,.93-1.17,2.74,2.74,0,0,1,1.53-.45,2.66,2.66,0,0,1,2.7,2.7,3.23,3.23,0,0,1-.18,1l-8.52,25a3.66,3.66,0,0,1-1.32,1.8,3.6,3.6,0,0,1-4.32,0,3.92,3.92,0,0,1-1.37-1.86l-6.37-19.86-6.36,19.86a4,4,0,0,1-1.38,1.86,3.51,3.51,0,0,1-2.16.72A3.46,3.46,0,0,1,299,192.09Z"/><path d="M340.37,192a2.61,2.61,0,0,1-.78-1.92V151.17a2.71,2.71,0,0,1,.78-1.95,2.56,2.56,0,0,1,1.92-.81,2.77,2.77,0,0,1,2.76,2.76v15.66a19.94,19.94,0,0,1,4.92-4,12.42,12.42,0,0,1,6.24-1.5,10.37,10.37,0,0,1,5.73,1.56,10.14,10.14,0,0,1,3.72,4.26,13.6,13.6,0,0,1,1.29,5.94v17a2.56,2.56,0,0,1-.81,1.92,2.71,2.71,0,0,1-1.95.78,2.66,2.66,0,0,1-2.7-2.7V173.67q0-7.32-6.6-7.32a9.55,9.55,0,0,0-5.37,1.56,19.44,19.44,0,0,0-4.47,4.2v18a2.56,2.56,0,0,1-.81,1.92,2.71,2.71,0,0,1-1.95.78A2.61,2.61,0,0,1,340.37,192Z"/><path d="M379,192a8.52,8.52,0,0,1-3.57-3.15,8.68,8.68,0,0,1-1.32-4.77,8.41,8.41,0,0,1,3.51-7.08q3.51-2.64,10.29-2.64h7.26v-.48q0-4-1.95-5.7t-6.09-1.74a20.45,20.45,0,0,0-4.05.36,34,34,0,0,0-3.93,1.08,3.37,3.37,0,0,1-.78.12,2.13,2.13,0,0,1-1.56-.66,2.2,2.2,0,0,1-.66-1.62,2.31,2.31,0,0,1,1.56-2.28,26.39,26.39,0,0,1,10.38-2.16,13.55,13.55,0,0,1,7,1.68,10.56,10.56,0,0,1,4.2,4.35,12.65,12.65,0,0,1,1.35,5.79v17a2.56,2.56,0,0,1-.81,1.92,2.71,2.71,0,0,1-1.95.78,2.66,2.66,0,0,1-2.7-2.7v-1.56a15.07,15.07,0,0,1-11.28,4.56A11.15,11.15,0,0,1,379,192Zm12-5a14.18,14.18,0,0,0,4.14-3.21v-5h-6.54q-9.06,0-9.06,4.74a4.45,4.45,0,0,0,1.47,3.48q1.47,1.32,4.89,1.32A10.85,10.85,0,0,0,391.07,187Z"/><path d="M410.93,185.19v-18.6h-4.26a1.13,1.13,0,0,1-1.14-1.14,1.25,1.25,0,0,1,.54-1l8.16-8a1.51,1.51,0,0,1,1-.54,1.06,1.06,0,0,1,.81.36,1.2,1.2,0,0,1,.33.84v4.8h6.78a2.26,2.26,0,0,1,2.34,2.34,2.3,2.3,0,0,1-.66,1.65,2.22,2.22,0,0,1-1.68.69h-6.78v18.12q0,2.34,1.11,3a5.59,5.59,0,0,0,2.79.63,8.32,8.32,0,0,0,2.4-.36l.51-.12a3.27,3.27,0,0,1,.69-.06,2.11,2.11,0,0,1,1.5.63,2,2,0,0,1,.66,1.53,2.27,2.27,0,0,1-1.38,2.1,11.74,11.74,0,0,1-5,1.08Q410.93,193.11,410.93,185.19Z"/><path d="M431.6,163.35a1.78,1.78,0,0,1-.51-1.26,1.67,1.67,0,0,1,.9-1.5,6.85,6.85,0,0,0,2.28-2.1,6.41,6.41,0,0,0,.78-3.48h-.24a3.38,3.38,0,0,1-3.36-3.36v-.36a3.38,3.38,0,0,1,3.36-3.36h.6a3.38,3.38,0,0,1,3.36,3.36v3.54a9.65,9.65,0,0,1-4.92,8.76,1.89,1.89,0,0,1-1,.3A1.63,1.63,0,0,1,431.6,163.35Z"/><path d="M444.35,190.41a2.29,2.29,0,0,1-1-2,2.41,2.41,0,0,1,.66-1.68,2.18,2.18,0,0,1,1.68-.72,2.64,2.64,0,0,1,1.08.24,24.25,24.25,0,0,0,3.84,1.32,17.85,17.85,0,0,0,4.32.48q6.66,0,6.66-4.26a2.27,2.27,0,0,0-1.53-2.1,31.33,31.33,0,0,0-5-1.62,45.27,45.27,0,0,1-5.85-1.74,10.29,10.29,0,0,1-4-2.73,6.94,6.94,0,0,1-1.65-4.83,8.65,8.65,0,0,1,3-6.84q3-2.64,8.67-2.64a25,25,0,0,1,8.7,1.5,2.25,2.25,0,0,1,1.29.9,2.41,2.41,0,0,1,.45,1.38,2.35,2.35,0,0,1-.69,1.68,2.27,2.27,0,0,1-1.71.72,3.37,3.37,0,0,1-.78-.12,23,23,0,0,0-6.84-1.08,9.37,9.37,0,0,0-5.07,1.17,3.49,3.49,0,0,0-1.83,3,2.77,2.77,0,0,0,1.68,2.64,24,24,0,0,0,5.22,1.62,50,50,0,0,1,5.76,1.77,9.52,9.52,0,0,1,3.81,2.73,7.41,7.41,0,0,1,1.59,5,7.93,7.93,0,0,1-3,6.36q-3,2.52-8.55,2.52A22.32,22.32,0,0,1,444.35,190.41Z"/><path d="M497,206a23,23,0,0,1-5.82-2.22,2.28,2.28,0,0,1-1.08-2.1,2.46,2.46,0,0,1,.69-1.71,2.23,2.23,0,0,1,1.71-.75,3,3,0,0,1,1.08.24,21.83,21.83,0,0,0,9.9,2.28q9.18,0,9.18-9.78v-4a13.54,13.54,0,0,1-10.26,4.56,14.46,14.46,0,0,1-6.87-1.77,14.3,14.3,0,0,1-5.49-5.28,18,18,0,0,1,0-17.1,14.3,14.3,0,0,1,5.49-5.28,14.46,14.46,0,0,1,6.87-1.77,13.54,13.54,0,0,1,10.26,4.56v-1.5a2.71,2.71,0,0,1,.78-2,2.56,2.56,0,0,1,1.92-.81,2.77,2.77,0,0,1,2.76,2.76v26.82q0,7.56-3.66,11.64t-10.44,4.08A28.4,28.4,0,0,1,497,206Zm11.52-19.68a18,18,0,0,0,4.14-3.24V170.73a18,18,0,0,0-4.14-3.24,10.08,10.08,0,0,0-5-1.2,10.19,10.19,0,0,0-7.35,2.73q-2.85,2.73-2.85,7.89t2.85,7.89a10.19,10.19,0,0,0,7.35,2.73A10.08,10.08,0,0,0,508.55,186.33Z"/><path d="M533,191.13a13.46,13.46,0,0,1-5.37-5.61,19.21,19.21,0,0,1,0-16.62,13.46,13.46,0,0,1,5.37-5.61,17.44,17.44,0,0,1,16.14,0,13.65,13.65,0,0,1,5.4,5.61,18.94,18.94,0,0,1,0,16.62,13.65,13.65,0,0,1-5.4,5.61,17.44,17.44,0,0,1-16.14,0ZM545.84,187a9.16,9.16,0,0,0,3.72-3.6,12,12,0,0,0,1.47-6.24,11.88,11.88,0,0,0-1.47-6.18,9,9,0,0,0-3.72-3.57,10.52,10.52,0,0,0-4.71-1.11,10.64,10.64,0,0,0-4.77,1.11,8.78,8.78,0,0,0-3.69,3.57,12.08,12.08,0,0,0-1.44,6.18,12.21,12.21,0,0,0,1.44,6.24,9,9,0,0,0,3.69,3.6,10.41,10.41,0,0,0,4.77,1.14A10.29,10.29,0,0,0,545.84,187Z"/><path d="M564.53,154.77a3,3,0,0,1-.9-2.16v-.24a3.07,3.07,0,0,1,3.06-3.06h.36a3.07,3.07,0,0,1,3.06,3.06v.24a3.07,3.07,0,0,1-3.06,3.06h-.36A3,3,0,0,1,564.53,154.77Zm.36,37.26a2.61,2.61,0,0,1-.78-1.92V164.37a2.71,2.71,0,0,1,.78-2,2.56,2.56,0,0,1,1.92-.81,2.67,2.67,0,0,1,2.76,2.76v25.74a2.56,2.56,0,0,1-.81,1.92,2.71,2.71,0,0,1-2,.78A2.61,2.61,0,0,1,564.89,192Z"/><path d="M579.83,192a2.61,2.61,0,0,1-.78-1.92V164.37a2.71,2.71,0,0,1,.78-2,2.56,2.56,0,0,1,1.92-.81,2.77,2.77,0,0,1,2.76,2.76v2.46a19.94,19.94,0,0,1,4.92-4,12.42,12.42,0,0,1,6.24-1.5,10.37,10.37,0,0,1,5.73,1.56,10.14,10.14,0,0,1,3.72,4.26,13.6,13.6,0,0,1,1.29,5.94v17a2.56,2.56,0,0,1-.81,1.92,2.71,2.71,0,0,1-2,.78,2.66,2.66,0,0,1-2.7-2.7V173.67q0-7.32-6.6-7.32a9.55,9.55,0,0,0-5.37,1.56,19.44,19.44,0,0,0-4.47,4.2v18a2.56,2.56,0,0,1-.81,1.92,2.71,2.71,0,0,1-2,.78A2.61,2.61,0,0,1,579.83,192Z"/><path d="M622.85,206a23,23,0,0,1-5.82-2.22,2.28,2.28,0,0,1-1.08-2.1,2.46,2.46,0,0,1,.69-1.71,2.23,2.23,0,0,1,1.71-.75,3,3,0,0,1,1.08.24,21.83,21.83,0,0,0,9.9,2.28q9.18,0,9.18-9.78v-4a13.54,13.54,0,0,1-10.26,4.56,14.46,14.46,0,0,1-6.87-1.77,14.3,14.3,0,0,1-5.49-5.28,18,18,0,0,1,0-17.1,14.3,14.3,0,0,1,5.49-5.28,14.46,14.46,0,0,1,6.87-1.77,13.54,13.54,0,0,1,10.26,4.56v-1.5a2.71,2.71,0,0,1,.78-2,2.56,2.56,0,0,1,1.92-.81,2.77,2.77,0,0,1,2.76,2.76v26.82q0,7.56-3.66,11.64t-10.44,4.08A28.4,28.4,0,0,1,622.85,206Zm11.52-19.68a18,18,0,0,0,4.14-3.24V170.73a18,18,0,0,0-4.14-3.24,10.08,10.08,0,0,0-5-1.2A10.19,10.19,0,0,0,622,169q-2.85,2.73-2.85,7.89T622,184.8a10.19,10.19,0,0,0,7.35,2.73A10.08,10.08,0,0,0,634.37,186.33Z"/><path d="M674.45,191.13a13.46,13.46,0,0,1-5.37-5.61,19.21,19.21,0,0,1,0-16.62,13.46,13.46,0,0,1,5.37-5.61,17.44,17.44,0,0,1,16.14,0,13.65,13.65,0,0,1,5.4,5.61,18.94,18.94,0,0,1,0,16.62,13.65,13.65,0,0,1-5.4,5.61,17.44,17.44,0,0,1-16.14,0ZM687.26,187a9.16,9.16,0,0,0,3.72-3.6,12,12,0,0,0,1.47-6.24A11.88,11.88,0,0,0,691,171a9,9,0,0,0-3.72-3.57,10.52,10.52,0,0,0-4.71-1.11,10.64,10.64,0,0,0-4.77,1.11,8.78,8.78,0,0,0-3.69,3.57,12.08,12.08,0,0,0-1.44,6.18,12.21,12.21,0,0,0,1.44,6.24,9,9,0,0,0,3.69,3.6,10.41,10.41,0,0,0,4.77,1.14A10.29,10.29,0,0,0,687.26,187Z"/><path d="M706.31,192a2.61,2.61,0,0,1-.78-1.92V164.37a2.71,2.71,0,0,1,.78-2,2.56,2.56,0,0,1,1.92-.81,2.77,2.77,0,0,1,2.76,2.76v2.46a19.94,19.94,0,0,1,4.92-4,12.42,12.42,0,0,1,6.24-1.5,10.37,10.37,0,0,1,5.73,1.56,10.14,10.14,0,0,1,3.72,4.26,13.6,13.6,0,0,1,1.29,5.94v17a2.56,2.56,0,0,1-.81,1.92,2.71,2.71,0,0,1-2,.78,2.66,2.66,0,0,1-2.7-2.7V173.67q0-7.32-6.6-7.32a9.55,9.55,0,0,0-5.37,1.56,19.44,19.44,0,0,0-4.47,4.2v18a2.56,2.56,0,0,1-.81,1.92,2.71,2.71,0,0,1-1.95.78A2.61,2.61,0,0,1,706.31,192Z"/><path d="M747.62,180.66a2.17,2.17,0,0,1-.75-1.65,11,11,0,0,1,1-4.74,12.66,12.66,0,0,1,2.25-3.39,36.67,36.67,0,0,1,3.45-3.09,22.29,22.29,0,0,0,3.36-3.12,4.61,4.61,0,0,0,1.08-3q0-6.54-8.58-6.54a16.65,16.65,0,0,0-4.11.51,12.75,12.75,0,0,0-3.57,1.47,2.67,2.67,0,0,1-1.5.48,2.46,2.46,0,0,1-2.4-2.4,2.63,2.63,0,0,1,1.5-2.28,17.65,17.65,0,0,1,5-2.22,22,22,0,0,1,5.58-.66q6.12,0,9.81,3.06a10.19,10.19,0,0,1,3.69,8.28,9.49,9.49,0,0,1-.84,4.11,11,11,0,0,1-2,3,33.33,33.33,0,0,1-3.18,2.79,23.3,23.3,0,0,0-3.87,3.69,6.37,6.37,0,0,0-1.29,4,2.13,2.13,0,0,1-.78,1.65,2.71,2.71,0,0,1-1.86.69A2.68,2.68,0,0,1,747.62,180.66Zm-.72,11a3.47,3.47,0,0,1-1-2.55,3.59,3.59,0,0,1,3.54-3.54,3.47,3.47,0,0,1,2.55,1,3.4,3.4,0,0,1,1,2.49,3.59,3.59,0,0,1-3.6,3.6A3.4,3.4,0,0,1,746.9,191.7Z"/><path d="M1111.55,277a2.56,2.56,0,0,1-.81-1.92v-15.3l-14.34-20.1a3,3,0,0,1-.48-1.62,2.77,2.77,0,0,1,.75-2,2.47,2.47,0,0,1,1.89-.81,2.75,2.75,0,0,1,2.4,1.38L1113.5,255,1126,236.71a2.75,2.75,0,0,1,2.4-1.38,2.56,2.56,0,0,1,1.92.81,2.51,2.51,0,0,1,.72,2,3,3,0,0,1-.48,1.62l-14.4,20.1v15.3a2.66,2.66,0,0,1-2.7,2.7A2.71,2.71,0,0,1,1111.55,277Z"/><path d="M1138.28,276.13a13.46,13.46,0,0,1-5.37-5.61,19.21,19.21,0,0,1,0-16.62,13.46,13.46,0,0,1,5.37-5.61,17.44,17.44,0,0,1,16.14,0,13.65,13.65,0,0,1,5.4,5.61,18.94,18.94,0,0,1,0,16.62,13.65,13.65,0,0,1-5.4,5.61,17.44,17.44,0,0,1-16.14,0Zm12.81-4.14a9.16,9.16,0,0,0,3.72-3.6,12,12,0,0,0,1.47-6.24,11.88,11.88,0,0,0-1.47-6.18,9,9,0,0,0-3.72-3.57,10.52,10.52,0,0,0-4.71-1.11,10.64,10.64,0,0,0-4.77,1.11,8.78,8.78,0,0,0-3.69,3.57,12.08,12.08,0,0,0-1.44,6.18,12.21,12.21,0,0,0,1.44,6.24,9,9,0,0,0,3.69,3.6,10.41,10.41,0,0,0,4.77,1.14A10.29,10.29,0,0,0,1151.09,272Z"/><path d="M1174.07,276.55a10.14,10.14,0,0,1-3.72-4.26,13.46,13.46,0,0,1-1.29-5.94v-17a2.56,2.56,0,0,1,.81-1.92,2.69,2.69,0,0,1,2-.78,2.66,2.66,0,0,1,2.7,2.7v16.44c0,4.88,2.19,7.32,6.6,7.32a9.55,9.55,0,0,0,5.37-1.56,19.64,19.64,0,0,0,4.47-4.2v-18a2.56,2.56,0,0,1,.81-1.92,2.71,2.71,0,0,1,2-.78,2.66,2.66,0,0,1,2.7,2.7v25.74a2.71,2.71,0,0,1-.78,1.95,2.58,2.58,0,0,1-1.92.81,2.77,2.77,0,0,1-2.76-2.76v-2.46a20.13,20.13,0,0,1-4.92,4,12.42,12.42,0,0,1-6.24,1.5A10.37,10.37,0,0,1,1174.07,276.55Z"/><path d="M1204.13,248.35a1.78,1.78,0,0,1-.51-1.26,1.67,1.67,0,0,1,.9-1.5,6.85,6.85,0,0,0,2.28-2.1,6.41,6.41,0,0,0,.78-3.48h-.24a3.38,3.38,0,0,1-3.36-3.36v-.36a3.38,3.38,0,0,1,3.36-3.36h.6a3.38,3.38,0,0,1,3.36,3.36v3.54a9.65,9.65,0,0,1-4.92,8.76,1.92,1.92,0,0,1-1,.3A1.62,1.62,0,0,1,1204.13,248.35Z"/><path d="M1219.64,277a2.61,2.61,0,0,1-.78-1.92V249.37a2.71,2.71,0,0,1,.78-2,2.55,2.55,0,0,1,1.92-.81,2.77,2.77,0,0,1,2.76,2.76V252q4.2-5.64,9.42-5.64h.3a2.53,2.53,0,0,1,1.89.78,2.66,2.66,0,0,1,.75,1.92,2.42,2.42,0,0,1-.78,1.86,2.82,2.82,0,0,1-2,.72h-.3a10.23,10.23,0,0,0-5.28,1.41,12.16,12.16,0,0,0-4,3.87v18.24a2.56,2.56,0,0,1-.81,1.92,2.73,2.73,0,0,1-2,.78A2.59,2.59,0,0,1,1219.64,277Z"/><path d="M1243.19,273.94q-4.11-4.17-4.11-11.73a19.55,19.55,0,0,1,1.55-7.86,13.38,13.38,0,0,1,4.81-5.82,13.76,13.76,0,0,1,8-2.22,14,14,0,0,1,7.68,2.07,13.46,13.46,0,0,1,4.92,5.52,17.1,17.1,0,0,1,1.68,7.53,2.62,2.62,0,0,1-2.76,2.7H1244.6a9.9,9.9,0,0,0,3.11,6.54c1.76,1.56,4.23,2.34,7.39,2.34a18,18,0,0,0,4.41-.48,18.32,18.32,0,0,0,3.69-1.38,2.38,2.38,0,0,1,1.08-.24,2.44,2.44,0,0,1,1.68.66,2.18,2.18,0,0,1,.72,1.68,2.61,2.61,0,0,1-1.56,2.22,21.94,21.94,0,0,1-4.62,2,21.71,21.71,0,0,1-5.88.66Q1247.29,278.11,1243.19,273.94Zm19.1-14.25a9.52,9.52,0,0,0-1.52-4.92,8.26,8.26,0,0,0-3.33-2.91,9.15,9.15,0,0,0-8,0,8,8,0,0,0-3.3,2.91,9.6,9.6,0,0,0-1.5,4.92Z"/><path d="M1291.28,277a2.57,2.57,0,0,1-.78-1.92V249.37a2.67,2.67,0,0,1,.78-2,2.53,2.53,0,0,1,1.92-.81,2.78,2.78,0,0,1,2.76,2.76v2.46a14.77,14.77,0,0,1,4-4,11,11,0,0,1,6.15-1.56,9.38,9.38,0,0,1,5.77,1.8,10.09,10.09,0,0,1,3.41,4.38,12.09,12.09,0,0,1,11.05-6.18A9.08,9.08,0,0,1,1332,248a10,10,0,0,1,3.33,4.32,14.25,14.25,0,0,1,1.08,5.52v17.28a2.56,2.56,0,0,1-.81,1.92,2.71,2.71,0,0,1-1.95.78,2.65,2.65,0,0,1-2.69-2.7v-16.2c0-2.6-.47-4.51-1.39-5.73s-2.5-1.83-4.74-1.83a7.89,7.89,0,0,0-5.06,1.59,15.24,15.24,0,0,0-3.58,4.17v18a2.59,2.59,0,0,1-.8,1.92,2.74,2.74,0,0,1-1.95.78,2.68,2.68,0,0,1-2.71-2.7v-16.2q0-3.9-1.38-5.73t-4.74-1.83a7.89,7.89,0,0,0-5.06,1.59,15,15,0,0,0-3.57,4.17v18a2.53,2.53,0,0,1-.82,1.92,2.69,2.69,0,0,1-1.94.78A2.58,2.58,0,0,1,1291.28,277Z"/><path d="M1348.48,277a8.52,8.52,0,0,1-3.57-3.15,8.68,8.68,0,0,1-1.32-4.77,8.41,8.41,0,0,1,3.51-7.08q3.51-2.64,10.29-2.64h7.26v-.48q0-4-1.94-5.7c-1.31-1.16-3.33-1.74-6.1-1.74a20.45,20.45,0,0,0-4,.36,34,34,0,0,0-3.93,1.08,3.37,3.37,0,0,1-.78.12,2.13,2.13,0,0,1-1.56-.66,2.2,2.2,0,0,1-.66-1.62,2.31,2.31,0,0,1,1.56-2.28,26.39,26.39,0,0,1,10.38-2.16,13.55,13.55,0,0,1,7,1.68,10.56,10.56,0,0,1,4.2,4.35,12.65,12.65,0,0,1,1.35,5.79v17a2.56,2.56,0,0,1-.81,1.92,2.71,2.71,0,0,1-2,.78,2.66,2.66,0,0,1-2.7-2.7v-1.56a15.06,15.06,0,0,1-11.27,4.56A11.16,11.16,0,0,1,1348.48,277Zm12-5a14.18,14.18,0,0,0,4.14-3.21v-5h-6.54q-9.06,0-9.06,4.74a4.45,4.45,0,0,0,1.47,3.48q1.47,1.32,4.89,1.32A10.85,10.85,0,0,0,1360.51,272Z"/><path d="M1380.07,277a2.61,2.61,0,0,1-.78-1.92V236.17a2.71,2.71,0,0,1,.78-1.95,2.56,2.56,0,0,1,1.92-.81,2.75,2.75,0,0,1,2.76,2.76v24.54l14.29-13.2a2.72,2.72,0,0,1,1.79-.78,2.43,2.43,0,0,1,2,.78,2.87,2.87,0,0,1,.63,1.86,3,3,0,0,1-1,2l-8.65,7.74,10.86,14.4a2.64,2.64,0,0,1,.61,1.62,2.49,2.49,0,0,1-.79,1.92,2.81,2.81,0,0,1-2,.72,2.66,2.66,0,0,1-1.2-.3,3,3,0,0,1-1-.84l-10.32-14-5.22,4.74v7.74a2.59,2.59,0,0,1-.8,1.92,2.75,2.75,0,0,1-2,.78A2.61,2.61,0,0,1,1380.07,277Z"/><path d="M1412.41,239.77a3,3,0,0,1-.9-2.16v-.24a3.07,3.07,0,0,1,3.06-3.06h.36a3.07,3.07,0,0,1,3.06,3.06v.24a3.07,3.07,0,0,1-3.06,3.06h-.36A3,3,0,0,1,1412.41,239.77Zm.36,37.26a2.61,2.61,0,0,1-.78-1.92V249.37a2.71,2.71,0,0,1,.78-2,2.56,2.56,0,0,1,1.92-.81,2.68,2.68,0,0,1,2.77,2.76v25.74a2.57,2.57,0,0,1-.82,1.92,2.71,2.71,0,0,1-2,.78A2.61,2.61,0,0,1,1412.77,277Z"/><path d="M1427.71,277a2.61,2.61,0,0,1-.78-1.92V249.37a2.71,2.71,0,0,1,.78-2,2.56,2.56,0,0,1,1.92-.81,2.77,2.77,0,0,1,2.76,2.76v2.46a19.94,19.94,0,0,1,4.92-4,12.42,12.42,0,0,1,6.24-1.5,10.37,10.37,0,0,1,5.73,1.56,10.14,10.14,0,0,1,3.72,4.26,13.6,13.6,0,0,1,1.29,5.94v17a2.56,2.56,0,0,1-.81,1.92,2.71,2.71,0,0,1-2,.78,2.66,2.66,0,0,1-2.7-2.7V258.67q0-7.32-6.6-7.32a9.55,9.55,0,0,0-5.37,1.56,19.44,19.44,0,0,0-4.47,4.2v18a2.56,2.56,0,0,1-.81,1.92,2.71,2.71,0,0,1-1.95.78A2.61,2.61,0,0,1,1427.71,277Z"/><path d="M1470.73,291a23,23,0,0,1-5.82-2.22,2.28,2.28,0,0,1-1.08-2.1,2.46,2.46,0,0,1,.69-1.71,2.23,2.23,0,0,1,1.71-.75,3,3,0,0,1,1.08.24,21.83,21.83,0,0,0,9.9,2.28q9.18,0,9.18-9.78v-4a13.54,13.54,0,0,1-10.26,4.56,14.46,14.46,0,0,1-6.87-1.77,14.3,14.3,0,0,1-5.49-5.28,18,18,0,0,1,0-17.1,14.3,14.3,0,0,1,5.49-5.28,14.46,14.46,0,0,1,6.87-1.77,13.54,13.54,0,0,1,10.26,4.56v-1.5a2.71,2.71,0,0,1,.78-2,2.56,2.56,0,0,1,1.92-.81,2.77,2.77,0,0,1,2.76,2.76v26.82q0,7.56-3.66,11.64t-10.44,4.08A28.4,28.4,0,0,1,1470.73,291Zm11.52-19.68a18,18,0,0,0,4.14-3.24V255.73a18,18,0,0,0-4.14-3.24,10.08,10.08,0,0,0-5-1.2,10.19,10.19,0,0,0-7.35,2.73q-2.85,2.73-2.85,7.89t2.85,7.89a10.19,10.19,0,0,0,7.35,2.73A10.08,10.08,0,0,0,1482.25,271.33Z"/><path d="M1517.71,277a2.61,2.61,0,0,1-.78-1.92V249.37a2.71,2.71,0,0,1,.78-2,2.56,2.56,0,0,1,1.92-.81,2.77,2.77,0,0,1,2.76,2.76v2.46a15,15,0,0,1,4-4,11,11,0,0,1,6.15-1.56,9.33,9.33,0,0,1,5.76,1.8,10,10,0,0,1,3.42,4.38,12.09,12.09,0,0,1,11-6.18,9.11,9.11,0,0,1,5.61,1.68,10,10,0,0,1,3.33,4.32,14.44,14.44,0,0,1,1.08,5.52v17.28A2.56,2.56,0,0,1,1562,277a2.71,2.71,0,0,1-2,.78,2.66,2.66,0,0,1-2.7-2.7v-16.2q0-3.9-1.38-5.73t-4.74-1.83a7.92,7.92,0,0,0-5.07,1.59,15.38,15.38,0,0,0-3.57,4.17v18a2.56,2.56,0,0,1-.81,1.92,2.71,2.71,0,0,1-2,.78,2.66,2.66,0,0,1-2.7-2.7v-16.2q0-3.9-1.38-5.73t-4.74-1.83a7.92,7.92,0,0,0-5.07,1.59,15.38,15.38,0,0,0-3.57,4.17v18a2.56,2.56,0,0,1-.81,1.92,2.71,2.71,0,0,1-1.95.78A2.61,2.61,0,0,1,1517.71,277Z"/><path d="M1574.26,273.94q-4.11-4.17-4.11-11.73a19.56,19.56,0,0,1,1.56-7.86,13.36,13.36,0,0,1,4.8-5.82,13.79,13.79,0,0,1,8-2.22,14,14,0,0,1,7.68,2.07,13.39,13.39,0,0,1,4.92,5.52,17,17,0,0,1,1.68,7.53,2.62,2.62,0,0,1-2.76,2.7h-20.34a9.87,9.87,0,0,0,3.12,6.54q2.64,2.34,7.38,2.34a18,18,0,0,0,4.41-.48,18.32,18.32,0,0,0,3.69-1.38,2.38,2.38,0,0,1,1.08-.24,2.41,2.41,0,0,1,1.68.66,2.18,2.18,0,0,1,.72,1.68,2.59,2.59,0,0,1-1.56,2.22,18.74,18.74,0,0,1-10.5,2.64Q1578.37,278.11,1574.26,273.94Zm19.11-14.25a9.61,9.61,0,0,0-1.53-4.92,8.26,8.26,0,0,0-3.33-2.91,9.15,9.15,0,0,0-8,0,8.06,8.06,0,0,0-3.3,2.91,9.79,9.79,0,0,0-1.5,4.92Z"/><path d="M1626.58,290.83a2.59,2.59,0,0,1-.75-1.86,2.72,2.72,0,0,1,.18-1l3.9-10-11.28-27.48a3.07,3.07,0,0,1-.24-1.14,2.71,2.71,0,0,1,.78-2,2.56,2.56,0,0,1,1.92-.81,2.62,2.62,0,0,1,1.53.48,2.72,2.72,0,0,1,1,1.2l9.24,22.92,9.42-22.8a2.62,2.62,0,0,1,2.52-1.8,2.56,2.56,0,0,1,1.92.81,2.71,2.71,0,0,1,.78,2,2.88,2.88,0,0,1-.18,1l-16.38,39.36a2.7,2.7,0,0,1-2.52,1.86A2.44,2.44,0,0,1,1626.58,290.83Z"/><path d="M1656.34,277a8.52,8.52,0,0,1-3.57-3.15,8.68,8.68,0,0,1-1.32-4.77A8.41,8.41,0,0,1,1655,262q3.51-2.64,10.29-2.64h7.26v-.48q0-4-2-5.7t-6.09-1.74a20.45,20.45,0,0,0-4,.36,34,34,0,0,0-3.93,1.08,3.37,3.37,0,0,1-.78.12,2.13,2.13,0,0,1-1.56-.66,2.2,2.2,0,0,1-.66-1.62,2.31,2.31,0,0,1,1.56-2.28,26.39,26.39,0,0,1,10.38-2.16,13.55,13.55,0,0,1,7,1.68,10.56,10.56,0,0,1,4.2,4.35,12.65,12.65,0,0,1,1.35,5.79v17a2.56,2.56,0,0,1-.81,1.92,2.71,2.71,0,0,1-2,.78,2.66,2.66,0,0,1-2.7-2.7v-1.56a15.07,15.07,0,0,1-11.28,4.56A11.15,11.15,0,0,1,1656.34,277Zm12-5a14.18,14.18,0,0,0,4.14-3.21v-5H1666q-9.06,0-9.06,4.74a4.45,4.45,0,0,0,1.47,3.48q1.47,1.32,4.89,1.32A10.85,10.85,0,0,0,1668.37,272Z"/><path d="M1693.57,277.09a3.66,3.66,0,0,1-1.32-1.8l-8.52-25a3.23,3.23,0,0,1-.18-1,2.66,2.66,0,0,1,2.7-2.7,2.74,2.74,0,0,1,1.53.45,2.21,2.21,0,0,1,.93,1.17l7,23.1,7-22.56a3.08,3.08,0,0,1,5.88,0l7,22.56,7-23.1a2.21,2.21,0,0,1,.93-1.17,2.74,2.74,0,0,1,1.53-.45,2.66,2.66,0,0,1,2.7,2.7,3.23,3.23,0,0,1-.18,1l-8.52,25a3.66,3.66,0,0,1-1.32,1.8,3.6,3.6,0,0,1-4.32,0,4,4,0,0,1-1.38-1.86l-6.36-19.86-6.36,19.86a4,4,0,0,1-1.38,1.86,3.6,3.6,0,0,1-4.32,0Z"/><path d="M1734.91,277a2.61,2.61,0,0,1-.78-1.92V249.37a2.71,2.71,0,0,1,.78-2,2.56,2.56,0,0,1,1.92-.81,2.77,2.77,0,0,1,2.76,2.76v2.46a19.94,19.94,0,0,1,4.92-4,12.42,12.42,0,0,1,6.24-1.5,10.37,10.37,0,0,1,5.73,1.56,10.14,10.14,0,0,1,3.72,4.26,13.6,13.6,0,0,1,1.29,5.94v17a2.56,2.56,0,0,1-.81,1.92,2.71,2.71,0,0,1-2,.78,2.66,2.66,0,0,1-2.7-2.7V258.67q0-7.32-6.6-7.32a9.55,9.55,0,0,0-5.37,1.56,19.44,19.44,0,0,0-4.47,4.2v18a2.56,2.56,0,0,1-.81,1.92,2.71,2.71,0,0,1-2,.78A2.61,2.61,0,0,1,1734.91,277Z"/><path d="M1771.06,276.7a3.23,3.23,0,0,1-1-2.37V274a3.38,3.38,0,0,1,3.36-3.36h.6a3.38,3.38,0,0,1,3.36,3.36v.36a3.38,3.38,0,0,1-3.36,3.36h-.6A3.23,3.23,0,0,1,1771.06,276.7Z"/><path class="cls-3" d="M267.18,643.7c2.31,13.51,12.11,24.15,18.2,36a45.74,45.74,0,0,1,4,10.56c.44,1.88,3.34,1.08,2.9-.8-3.13-13.39-12.94-23.79-18.74-36a40.44,40.44,0,0,1-3.48-10.6c-.33-1.9-3.22-1.1-2.9.79Z"/><path class="cls-3" d="M270.83,644.07c16.34,10.29,32.75,20.47,49.42,30.23q7.08,4.14,14.21,8.17a1.46,1.46,0,0,0,1.51,0c7.48-5.75,17.48-7.92,26.75-8l-1.29-2.25a3.62,3.62,0,0,1-1.28,1.41s-.38.24-.22.09c-.07.06.12,0,.18.09.37.31.32.59.28,1s-.18.13.07.05a7.88,7.88,0,0,1,2.26-.39l-1.29-2.25c-2.92,5-5.8,10.1-8.77,15.11-2,3.46-5.21,7.44-4,11.73,1,3.51,4.49,5.78,7.86,6.61,3.57.89,7.33.67,11,.54s8.07-.5,11.59,1.18V704.8a189.17,189.17,0,0,0-25.37,21.4,1.5,1.5,0,0,0,2.12,2.12,185.25,185.25,0,0,1,24.76-20.93,1.51,1.51,0,0,0,0-2.59c-6.21-3-13.44-1.12-20-1.55-3-.19-6.16-.92-8.12-3.37-2.7-3.38.64-7.51,2.44-10.47,3.15-5.15,6.08-10.45,9.11-15.68a1.52,1.52,0,0,0-1.3-2.26c-1.49,0-3.26.2-4.41,1.26a2.25,2.25,0,0,0-.42,3c1.9,2.52,5-.23,6.13-2a1.52,1.52,0,0,0-1.3-2.26c-9.74.09-20.4,2.36-28.26,8.41H336c-16.77-9.48-33.27-19.45-49.63-29.63q-7-4.37-14-8.77c-1.64-1-3.15,1.57-1.51,2.59Z"/><path class="cls-3" d="M275,742.08l12.14,53.25c2,8.78,4.23,17.6,4.94,26.6a70.62,70.62,0,0,1-2.58,24.79,90.72,90.72,0,0,1-4.85,13.07c-1,2.16-2,4.35-3.2,6.41-.63,1.07-2.33,3.1-3.68,2.09-1.55-1.16-3,1.45-1.52,2.59,3.11,2.33,6.72-1.16,8.12-3.78A106.58,106.58,0,0,0,289.88,855a78.78,78.78,0,0,0,5.39-25.53c.3-9.46-1.58-18.81-3.65-28-2.12-9.44-4.29-18.86-6.44-28.29l-7.29-31.94c-.43-1.89-3.32-1.09-2.89.79Z"/><path class="cls-3" d="M276.42,648.7a1.18,1.18,0,0,1,0-.2c.09-.32-.06.1-.06.11s.1-.17.1-.18.17-.11-.07.08a2.2,2.2,0,0,0,.31-.3c-.27.28-.19.15-.06.07l.19-.12c.13-.06.31-.06-.07,0l.22-.08.23-.06c.13,0,.35,0-.09,0,.15,0,.3,0,.45,0s.36,0,.08,0,.07,0,.13,0l-.9-2.2c-.1.15-.2.3-.31.44l-.18.26,0-.06a5.9,5.9,0,0,1-.78.8c-.3.26.21-.13,0,0l-.2.14-.27.15c-.13.07-.33.08.06,0-.19,0-.37.13-.56.17l-.17,0,.19,0h-.39l.26,0a.71.71,0,0,1-.28-.06l-.21-.06c-.24-.08.37.18,0,0-.15-.08-.28-.18-.42-.26.35.21.19.15.09.06l-.19-.19c-.1-.12-.1-.23.08.11l-.12-.21c-.12-.19.11.38.06.15a.17.17,0,0,1,0-.1c0-.15,0-.07,0,.24a.38.38,0,0,0,0-.15c-.05.32-.06.4,0,.25s0-.06,0,.09c-.14.3,0,0,0,0-.19.23-.23.29-.13.18s.06-.06-.16.12a1.66,1.66,0,0,0,.69-.9,1.49,1.49,0,0,0-2.2-1.69,2.63,2.63,0,0,0-1.05,1.34,2.42,2.42,0,0,0,0,1.41,3.73,3.73,0,0,0,1.67,2,4.08,4.08,0,0,0,2.83.55,5.17,5.17,0,0,0,2.5-1.23,9.36,9.36,0,0,0,1.76-2.1,1.51,1.51,0,0,0-.9-2.2,4.75,4.75,0,0,0-3.25.41,3.54,3.54,0,0,0-1.84,2.33,1.58,1.58,0,0,0,.16,1.15,1.47,1.47,0,0,0,.89.69,1.52,1.52,0,0,0,1.85-1Z"/><path class="cls-3" d="M303.75,751.13c8.19,2.09,16.66,4.19,24,8.56a28.66,28.66,0,0,1,8.94,8.07,37.79,37.79,0,0,1,5.13,11.46c5.39,19,4.75,39.55-.49,58.54-2.89,10.48-6.72,21.18-5.37,32.22.24,1.9,3.24,1.92,3,0-1.24-10.15,2-20,4.76-29.61a120.72,120.72,0,0,0,4.81-30.19,111.36,111.36,0,0,0-3.35-30c-2.17-8.5-6.09-16.18-13.36-21.37-8-5.7-17.91-8.15-27.27-10.54-1.87-.47-2.66,2.42-.79,2.9Z"/><path class="cls-3" d="M370.56,861.33c-13,6.8-27.24,13.94-35.71,26.47a33.83,33.83,0,0,0-4.43,9.2,31,31,0,0,0-1,9.54,4.34,4.34,0,0,1-.27,2,3.35,3.35,0,0,1-2,1.44,31.47,31.47,0,0,0-4.61,2.21,23.65,23.65,0,0,0-7,6.41c-1.73,2.39-3.79,6.15-2.8,9.17s4.13,3.82,6.84,4.13c3.76.42,7.68,0,11.46-.15l12.73-.45q12.85-.48,25.71-1L376,930a51.21,51.21,0,0,0,5.94-.38,6.57,6.57,0,0,0,4.21-2.24,16.59,16.59,0,0,0,2.25-4.68,131.45,131.45,0,0,0,8.7-46.85c0-2-.06-4-.15-6s-3.1-1.93-3,0a128.25,128.25,0,0,1-5.81,44.5c-.57,1.79-1.17,3.58-1.81,5.35a39.6,39.6,0,0,1-1.95,4.94c-.83,1.58-2.18,2-3.88,2.16-2,.17-4,.19-6,.27q-12.11.52-24.22,1t-24,.85c-2.89.1-6.35.59-9.1-.6-3.18-1.36-1-5.25.33-7.31a20,20,0,0,1,6.36-6.12,25.09,25.09,0,0,1,3.88-1.94c1.52-.61,3-1.25,3.91-2.74a7.25,7.25,0,0,0,.74-3.86,31.53,31.53,0,0,1,.08-4.86,26,26,0,0,1,2.87-8.75c7.43-14.14,23.16-21.76,36.69-28.83,1.72-.89.2-3.48-1.51-2.59Z"/><path class="cls-3" d="M280.68,873.07A31.7,31.7,0,0,0,292,889.33a39.75,39.75,0,0,0,9.25,5.37c4,1.66,8.27,2.4,12.24,4.08a1.55,1.55,0,0,0,2.05-.54,1.5,1.5,0,0,0-.54-2c-3.73-1.58-7.7-2.39-11.49-3.8a36.93,36.93,0,0,1-9.1-5,28.76,28.76,0,0,1-10.84-15.15,1.51,1.51,0,0,0-2.9.8Z"/><path class="cls-3" d="M280.74,851.53l-19.56,11c-5.56,3.15-12.18,6-16.29,11.1-3.66,4.54-4.65,10.26-4.12,16a67.56,67.56,0,0,0,3.72,16.17c2,5.56,5.24,10.59,10.71,13.2l-.69-1.69c-.23.72-2.56.88-3.2,1-1.51.33-3.23.85-4.08,2.26-1.11,1.83-.16,4,1.44,5.17,2,1.43,4.62,1.49,7,1.62a137.93,137.93,0,0,0,31.69-2A132,132,0,0,0,304.8,921c1.82-.6,1-3.49-.8-2.89A130.94,130.94,0,0,1,275.56,924a135.73,135.73,0,0,1-14.54.57c-2.39,0-4.79-.1-7.17-.3-.78-.06-5-.71-3.95-2.23.32-.46,1.32-.6,1.81-.71.75-.18,1.51-.3,2.26-.49a4.33,4.33,0,0,0,3.44-2.72,1.52,1.52,0,0,0-.69-1.69c-4.54-2.16-7.36-6.15-9.1-10.76A68.44,68.44,0,0,1,244,891.14c-.73-5.23-.39-10.85,2.93-15.18a23.69,23.69,0,0,1,6.44-5.43c2.77-1.73,5.66-3.28,8.51-4.89l20.43-11.52a1.5,1.5,0,0,0-1.52-2.59Z"/><path class="cls-3" d="M394.19,846.59a119.47,119.47,0,0,0-5-27.69c-.56-1.84-3.45-1-2.89.8a116,116,0,0,1,4.88,26.89c.11,1.92,3.11,1.93,3,0Z"/><path class="cls-3" d="M268.17,740.6A150.66,150.66,0,0,1,250.09,712c-2.44-4.88-4.71-9.84-6.91-14.83-1.08-2.45-2.14-4.9-3.2-7.36a50.14,50.14,0,0,1-3.06-8.19c-1.32-5.54,1-10.61,6.25-13l-1.81-.23c4.61,4.38,8,10.08,11.63,15.26,4.21,6,8.54,12.24,14.13,17.07a23.54,23.54,0,0,0,9,5.18,1.51,1.51,0,0,0,.8-2.9c-6.11-1.66-10.78-7-14.61-11.78-4.49-5.56-8.33-11.6-12.53-17.38a53,53,0,0,0-6.28-7.57,1.58,1.58,0,0,0-1.82-.24,13.56,13.56,0,0,0-8.12,11.13c-.51,5.89,2.79,11.67,5.06,16.9,4.69,10.83,9.57,21.61,15.63,31.76a136.67,136.67,0,0,0,11.82,16.85c1.23,1.5,3.34-.64,2.12-2.12Z"/><path class="cls-3" d="M370.42,755.68c14.51.16,29.21-2.11,42.59-7.86,11.94-5.13,22.66-13.49,28.67-25.22a51.67,51.67,0,0,0,5.45-21,1.52,1.52,0,0,0-2.56-1.07,125.43,125.43,0,0,1-14.18,10.67,63.62,63.62,0,0,1-18.31,7.7c-6.92,1.71-14,2.57-21,3.74-6.57,1.11-13.2,2.43-19.25,5.32-5,2.37-10.22,6.36-10.19,12.38a1.5,1.5,0,0,0,3,0c0-5,5-8.08,9-10,6-2.77,12.63-3.94,19.09-5,6.79-1.12,13.66-2,20.35-3.64a65.9,65.9,0,0,0,17.83-7.36,125.3,125.3,0,0,0,15.78-11.73l-2.56-1.06a47.22,47.22,0,0,1-15.85,33.29c-9.22,8.17-21.18,12.87-33.11,15.43a112.4,112.4,0,0,1-24.75,2.36,1.5,1.5,0,0,0,0,3Z"/><path class="cls-3" d="M339.08,695.16a17.13,17.13,0,0,0-10.55-5.93,1.52,1.52,0,0,0-1.85,1.84l1.43,5.44.71,2.71.33,1.26c.06.2.1.42.17.62s.05.21,0,.08c.35-1,1-1.06,2-.32a1.51,1.51,0,0,0-2.05-.54,1.55,1.55,0,0,0-.54,2.06c.68,1.55,2.95,1,3.47-.32a3.26,3.26,0,0,0-.06-2.07l-.52-2-2-7.73-1.84,1.84a14.46,14.46,0,0,1,9.23,5.17,1.52,1.52,0,0,0,2.12,0,1.54,1.54,0,0,0,0-2.13Z"/><path class="cls-3" d="M326.12,680.15a15.46,15.46,0,0,1-.45,1.78c-.07.25-.16.5-.25.75l-.18.49c-.12.3.09-.2-.06.12a17.34,17.34,0,0,1-1.75,3.08l2.36-.31c-.43-.47-.86-.95-1.27-1.44l-.61-.75-.17-.22,0,0-.29-.39a36.21,36.21,0,0,1-2.14-3.19,1.5,1.5,0,1,0-2.59,1.51,39.85,39.85,0,0,0,4.92,6.56,1.45,1.45,0,0,0,1.26.42,1.57,1.57,0,0,0,1.1-.72,18,18,0,0,0,3-6.93,1.5,1.5,0,1,0-2.89-.8Z"/><path class="cls-3" d="M290.65,677c3.78,5.06,8,10.64,8.18,17.22.06,1.92,3.06,1.93,3,0-.21-7.18-4.44-13.19-8.59-18.73a1.55,1.55,0,0,0-2.05-.54,1.51,1.51,0,0,0-.54,2.05Z"/><path class="cls-3" d="M414.75,853.39a929.55,929.55,0,0,1,70.95-89.77q10.76-12,21.93-23.63a1.52,1.52,0,0,0-1.46-2.51l-18.32,2.67,1.7,2.2,56.94-115,16.1-32.5a1.51,1.51,0,0,0-1.69-2.2l-69.68,12.83,1.85,1.85Q508.51,533,529.66,459.89q6-20.59,12.39-41.06a1.51,1.51,0,0,0-1.84-1.85c-40.09,12.51-76.67,33.52-112.85,54.41l2.25,1.3.49-68.06.24-34c.07-9.89.38-19.84-.62-29.69-1-10.24-3.59-20.33-9.42-28.94a1.52,1.52,0,0,0-2.59,0l-16.6,23.46-4,5.65c-1.27,1.8-2.51,3.87-4.35,5.15-4.25,2.94-10-1-14-2.75L325.87,320l-30.14-13.39c-1.29-.58-2.86.65-2.05,2.05a903.18,903.18,0,0,1,47.22,93.55q6.12,14.13,11.76,28.47l1.44-1.9-43.69-1.4a1.52,1.52,0,0,0-1.29,2.26q24.24,48.21,51.42,94.87,7.81,13.43,15.87,26.7l1.7-2.21-18.63-4.61a1.52,1.52,0,0,0-1.85,1.05,216.38,216.38,0,0,0,13.71,118.3c.74,1.75,3.64,1,2.9-.8a213.43,213.43,0,0,1-13.71-116.7l-1.85,1,18.63,4.61a1.52,1.52,0,0,0,1.69-2.21q-28-46.14-53.1-93.94-7.22-13.75-14.19-27.63l-1.3,2.26,43.69,1.4a1.51,1.51,0,0,0,1.45-1.9A907,907,0,0,0,311,333.5q-7.14-13.31-14.71-26.35l-2,2.05L352,334.88l28.65,12.73c3.49,1.55,7.4,3.55,11.31,2.37,3.74-1.12,5.93-4.82,8-7.82l20.28-28.68h-2.59c10.86,16,9.78,36.45,9.65,55l-.48,66.44-.27,37.81a1.51,1.51,0,0,0,2.26,1.29c36-20.76,72.29-41.67,112.13-54.11L539.16,418q-22.74,72.53-39.82,146.65-4.81,20.9-9.16,41.9a1.52,1.52,0,0,0,1.84,1.85l69.67-12.84-1.69-2.2-56.94,115L487,740.83a1.52,1.52,0,0,0,1.69,2.21L507,740.37l-1.46-2.5a935.57,935.57,0,0,0-74.2,87.44q-9.81,13.11-19.15,26.57c-1.1,1.59,1.49,3.09,2.59,1.51Z"/><path class="cls-3" d="M1647.59,581.87c3.17-4,6.79-7.64,10.32-11.34a72.2,72.2,0,0,0,5-5.53c1.56-2,2.87-4.32,4.31-6.44,5.71-8.44,11.69-16.7,17.71-24.92,12.07-16.48,24.33-32.88,34.88-50.4,1.31-2.17,2.6-4.36,3.85-6.57.61-1.07,1.21-2.15,1.8-3.23a14.17,14.17,0,0,1,2.26-3.06c3.32-3.49,6.34-7.24,9.46-10.91,1.55-1.82,3.14-3.63,4.79-5.37.81-.85,1.64-1.69,2.49-2.51a12.14,12.14,0,0,1,2.72-2.41,19.63,19.63,0,0,1,3.69-.75c1.37-.26,2.73-.51,4.1-.75,2.76-.47,5.52-.89,8.3-1.23,21.49-2.69,43.28-1.73,64.71,1.05,21.82,2.83,43.35,7.55,64.79,12.4l7.9,1.8-.66-2.51c-.93.85-.94.24.62,2.19.3.38-.7.18,0,.32l-.66-2.51a8.09,8.09,0,0,1-6.88,1.42,4,4,0,0,1-1.45-.66,2.79,2.79,0,0,1-.46-.45c-.22-.27,0-.19-.11-.13q-.06-.27,0,.09a.72.72,0,0,1-.07.33c-.09.23-.21.38-.22.35s-.27.06.1,0-.07,0,.27,0c3.11-.23,6.51.75,9.48,1.58l-.66-2.51a55.34,55.34,0,0,1-21.16,11.53,70.2,70.2,0,0,1-9.19,2,30.55,30.55,0,0,0-8.36,2.21,13.49,13.49,0,0,0-6.71,7.34l1-1c-6,1-12.52-1.67-18.28,1.1a33.86,33.86,0,0,0-6.45,4.07c-2,1.6-3.89,3.36-6.06,4.76a15.74,15.74,0,0,1-3.3,1.67,15.06,15.06,0,0,1-4.68.61,69.31,69.31,0,0,0-11,1.52c-7,1.43-13.77,3.65-20.88,4.33a40.09,40.09,0,0,1-10.83-.29c-3.06-.55-5.91-1.83-9-2.16a12.69,12.69,0,0,0-7.74,1.27,21.52,21.52,0,0,0-3.61,3.14c-1.41,1.34-2.81,2.68-4.2,4-10.37,10.14-20.17,20.83-29.89,31.6-10.77,11.93-21.47,23.93-32.82,35.32a1.5,1.5,0,0,0,2.12,2.12c13.11-13.15,25.35-27.13,37.84-40.86,6.3-6.93,12.67-13.79,19.25-20.46,3.4-3.44,6.84-6.82,10.36-10.14,1.46-1.39,2.63-2.55,4.66-2.95a13.72,13.72,0,0,1,5.11.08c2.1.41,4.09,1.27,6.19,1.71a39,39,0,0,0,7,.79,60.77,60.77,0,0,0,13.57-1.45c4.52-.93,9-2.2,13.48-3.15,2.34-.5,4.73-.9,7.1-1.19s4.56-.05,6.76-.45c6.86-1.24,10.86-7.43,16.82-10.38a13.64,13.64,0,0,1,5.19-1.78,40.91,40.91,0,0,1,6.06.18,37,37,0,0,0,6.23.09c.86-.08,2-.05,2.6-.79s.76-1.61,1.22-2.33c3.42-5.41,10.92-5.3,16.51-6.39a59,59,0,0,0,22.17-9.5,52.18,52.18,0,0,0,5-4,1.52,1.52,0,0,0-.66-2.51c-3.18-.88-6.71-1.81-10-1.7-1.63.06-3.74.8-3.28,2.86.52,2.35,3.28,3.5,5.41,3.76a11,11,0,0,0,8.55-2.41,1.51,1.51,0,0,0-.66-2.51c-1.53-.28-4,.22-3.67,2.31a1.79,1.79,0,0,0,1.77,1.51,3.92,3.92,0,0,0,2.56-1.31,1.51,1.51,0,0,0-.66-2.51c-21.65-4.92-43.32-9.87-65.29-13.16-21.62-3.23-43.58-4.87-65.41-3q-8.09.71-16.12,2.05c-2.72.47-5.5.91-8.18,1.59a6.83,6.83,0,0,0-2.83,2c-1,.89-1.94,1.82-2.87,2.77-3.41,3.47-6.48,7.24-9.62,11-1.52,1.8-3.06,3.6-4.67,5.33-.76.83-1.67,1.59-2.38,2.47a25.75,25.75,0,0,0-2,3.55c-10.08,18.09-22.23,34.9-34.46,51.57-6.06,8.27-12.16,16.53-18,24.93-3,4.28-5.84,8.65-8.79,12.95a46.46,46.46,0,0,1-5,5.62c-1.76,1.84-3.55,3.66-5.29,5.52s-3.45,3.8-5,5.81c-1.18,1.5.93,3.64,2.13,2.13Z"/><path class="cls-3" d="M1183.26,579c-17.1-4.9-34.35-9.27-51.24-14.87l1.11,1.44c1.19-29.93,4.27-59.76,5.36-89.7.31-8.42.45-16.85.36-25.28a1.53,1.53,0,0,0-1.1-1.44q-25-7.23-50.21-13.73-12.6-3.22-25.27-6.24-6.29-1.49-12.59-2.93l-6.45-1.45c-1.83-.41-3.81-1.12-5.7-1a14.12,14.12,0,0,0-5.54,1.76c-1.62.82-3.65,1.6-4.74,3.11-2.22,3.1-.51,7.09,1,10.12l1.29-2.26c-.37,0-.84-.08-1.19,0-.2,0-.2.06-.11,0,.21,1.59,0,2.27-.76,2l.16,0c.24.18.59.28.84.47l1.06-2.56a7.38,7.38,0,0,0-6.54,5.86c-.93,3.51.52,6.92,3,9.42a13.38,13.38,0,0,0,4.57,3.17,48.45,48.45,0,0,0,5.11,1.68c2.91.84,6.32,1.55,8.6,3.69a9.31,9.31,0,0,1,1.4,1.84c.44.69.91,1.18.78,2.05-.33,2.07-2.63,3.82-4.17,5A1.51,1.51,0,0,0,1043,472c1.52.14,3.49.53,5,0a1.63,1.63,0,0,0,.3-3,6.36,6.36,0,0,0-6.37.43,1.51,1.51,0,0,0,.66,2.51,29.37,29.37,0,0,1,19.91,14.33,44.05,44.05,0,0,1,2.44,5.21,1.81,1.81,0,0,1,0,1.8c-.41.95-.93,1.84-1.33,2.8a5.57,5.57,0,0,0-.59,3,9.79,9.79,0,0,0,.76,2.7c.86,1.83,3,2.92,4.43,4.25a25.39,25.39,0,0,1,7,9.81,21.84,21.84,0,0,1,1.31,6.33c.11,2,2,3.79,3.25,5.31,5,6,11.39,11.75,12.7,19.84.76,4.63-.4,9.85-2,14.22a27.73,27.73,0,0,1-8.38,12,1.51,1.51,0,0,0,.3,2.36c2.3,1.22,6.2,1.12,6.92-2a2.18,2.18,0,0,0-1.89-2.71c-1.82-.24-3.66,1.11-5,2.14a1.52,1.52,0,0,0,0,2.59,25.78,25.78,0,0,1,9.49,9.57c1.13,1.93,2,4,3.54,5.62a14.49,14.49,0,0,0,4.92,3.28c4.13,1.76,8.74,2.52,13.06,3.66q8.58,2.28,17.21,4.32,9.83,2.34,19.72,4.38c1.89.39,2.69-2.5.8-2.9q-17.25-3.56-34.31-8c-2.57-.67-5.12-1.39-7.69-2-2-.49-4.08-.93-6.07-1.59a13.5,13.5,0,0,1-5-2.77c-1.6-1.5-2.37-3.46-3.45-5.32a28.85,28.85,0,0,0-10.65-10.81v2.59a12.72,12.72,0,0,1,3-1.75c.23-.09.1.09-.19-.16a1,1,0,0,1-.37-.69c.06.28,0-.35,0,0,0-.18.09-.09-.12.1a1.79,1.79,0,0,1-.43.26,2.52,2.52,0,0,1-1.91-.32l.3,2.35c7.26-6.08,10.54-14.9,11.37-24.14.81-9-5.09-16.19-10.64-22.54-1.43-1.64-2.87-3.28-4.2-5a4.66,4.66,0,0,1-1.29-2.2,27.11,27.11,0,0,0-.5-3.6,25.68,25.68,0,0,0-5.89-11.45,35.93,35.93,0,0,0-4.86-4.61c-.74-.6-1.53-1-1.89-1.95a7,7,0,0,1-.34-1.37,2.83,2.83,0,0,1-.08-.52c0,.59.25-.52.25-.52.6-1.82,2.06-3.5,2.08-5.49a6.79,6.79,0,0,0-.74-2.52c-.4-1-.84-2-1.33-3A32.46,32.46,0,0,0,1043.38,469l.67,2.51c-.17.14,0,0,.32-.07a2.32,2.32,0,0,1,.72-.07,7.06,7.06,0,0,1,1.57.17c.1,0,.22.1.32.09-.33,0,0-.09-.08,0l.3-2.51-.17.05c.19.09.07,0-.17,0a29.43,29.43,0,0,1-3.87-.2l.75,2.8c2.63-2,6.23-5,5.61-8.73a9.4,9.4,0,0,0-2.11-3.88,11.15,11.15,0,0,0-3.41-2.77c-2.89-1.58-6.17-2.27-9.29-3.22a14.23,14.23,0,0,1-4.82-2,12.7,12.7,0,0,1-3.3-3.63c-1.52-2.79-.65-7.65,3.07-8,1.11-.11,2.21-1.68,1.06-2.56s-4-2.45-4.89-.26,2.32,2.89,3.83,2.82a1.53,1.53,0,0,0,1.3-2.26c-1-2.06-3-6-.24-7.53a42.56,42.56,0,0,1,4.24-2.2,7.52,7.52,0,0,1,5-.4q11.92,2.63,23.81,5.47,23.64,5.65,47.09,12.08,13.15,3.58,26.25,7.38l-1.1-1.45c.33,29.92-2.41,59.74-4.35,89.56-.55,8.47-1,16.94-1.37,25.42a1.53,1.53,0,0,0,1.1,1.45c16.88,5.6,34.13,10,51.23,14.88a1.51,1.51,0,0,0,.8-2.9Z"/><path class="cls-3" d="M1352,323.82q-1.87,28.67-5.15,57.2-.94,8.12-2,16.22c-.24,1.91,2.76,1.89,3,0q3.67-28.49,6-57.12.66-8.14,1.18-16.3c.13-1.93-2.87-1.92-3,0Z"/><path class="cls-3" d="M1350.8,400.72c13.41-2.51,21.24-15.11,24.76-27.32,4-14,3.21-30.27-6.07-42.13-4.68-6-11.43-10.7-19-12.18a18.63,18.63,0,0,0-10,.48,19.33,19.33,0,0,0-8.37,6.27,53.73,53.73,0,0,0-9.78,20.33,104.37,104.37,0,0,0-3.24,21.88c-.52,12.14,2.31,26,13.24,33a27.16,27.16,0,0,0,4.47,2.26c1.79.74,2.57-2.16.8-2.89-11.3-4.64-15.28-16.81-15.55-28.14a92.89,92.89,0,0,1,1.86-19.46,62.54,62.54,0,0,1,6.89-19.83c3.24-5.59,7.77-11.12,14.73-11.36s13.73,3.48,18.57,8.19c10.21,9.93,12.42,25.1,9.55,38.57-2.35,11-8,23.72-19.24,28.16a24.17,24.17,0,0,1-4.47,1.26c-1.9.36-1.1,3.25.79,2.9Z"/><path class="cls-3" d="M1345.43,417.89q8.55,36.78,15.3,73.95,1.92,10.53,3.67,21.09c.32,1.9,3.21,1.09,2.9-.8Q1361.08,474.89,1353,438q-2.28-10.46-4.7-20.88c-.44-1.88-3.33-1.08-2.9.8Z"/><path class="cls-3" d="M1372.44,514.85c15.45-8,20.58-26.12,20.56-42.38,0-18.06-6.14-37.29-20.51-49.06-8.14-6.66-18.63-10.83-29.24-10.4a26.4,26.4,0,0,0-12,3.13,22.16,22.16,0,0,0-8.23,8.44c-5.07,8.95-6.45,20.07-6.36,30.19a133.05,133.05,0,0,0,4.21,30.93c3.88,15.42,12.62,31.95,29.06,36.53a36.45,36.45,0,0,0,6.23,1.1c1.92.18,1.91-2.82,0-3a30.83,30.83,0,0,1-19.87-10.08c-5.22-5.66-8.67-12.82-11-20.09a125.13,125.13,0,0,1-5.17-26.91c-.91-10.09-.58-20.45,2.57-30.16,1.31-4,3-8.08,6-11.18a19,19,0,0,1,9.32-5.2c9.51-2.29,19.93.63,28,5.73,15.15,9.51,22.62,27.36,23.78,44.67,1,14.76-1.64,32.4-14,42.09a30.85,30.85,0,0,1-4.84,3.06c-1.71.88-.2,3.47,1.52,2.59Z"/><path class="cls-3" d="M1191.49,441.47c2.78,26,8.68,52.41,22.75,74.83a96.57,96.57,0,0,0,25.53,27.59,105,105,0,0,0,33.75,15.57c27.52,7.4,57.33,5.4,84.76-1.34,27.62-6.79,54-18.85,77.7-34.41,22.54-14.78,43-33,59.08-54.76q3.39-4.57,6.43-9.39c1-1.64-1.57-3.15-2.59-1.52-14.37,22.75-34.42,42-56.25,57.49a255.91,255.91,0,0,1-73.9,36.61c-27.06,8.17-56.59,11.8-84.59,6.65a110.8,110.8,0,0,1-34.64-12.25,89.1,89.1,0,0,1-27.17-23.76c-15.83-20.88-23.21-46.66-26.76-72.28-.42-3-.78-6-1.1-9-.2-1.9-3.2-1.92-3,0Z"/><path class="cls-3" d="M1509.73,436c3.75-14,5.38-28.77,3.41-43.22a71,71,0,0,0-16.32-37.13c-8-9.27-18.57-16.09-29.74-21-11.43-5.07-23.54-8.35-35.77-10.82a330.72,330.72,0,0,0-49.85-6.44q-3.17-.15-6.35-.22c-1.93-.05-1.93,2.95,0,3a310.42,310.42,0,0,1,48.93,5.3c12.47,2.3,24.88,5.15,36.72,9.77,11.09,4.32,21.74,10.3,30.28,18.69a66.18,66.18,0,0,1,18.2,33.86c2.94,13.94,2,28.53-1.14,42.35-.38,1.71-.81,3.41-1.26,5.1a1.5,1.5,0,0,0,2.89.8Z"/><path class="cls-3" d="M1580.82,826.67A351.56,351.56,0,0,0,1603.91,760c5.75-24,11-48.07,15.4-72.34,4.31-23.86,7.84-47.86,10.75-71.94,2.88-23.74,6.12-47.53,7-71.46.82-23.14-.72-46.62-7.3-68.93q-1.24-4.26-2.75-8.44c-.64-1.81-3.54-1-2.89.79,7.79,21.91,10.35,45.15,10.13,68.3-.23,23.62-3.38,47-6.06,70.42-2.75,24-6.09,47.9-10.2,71.7q-6.24,36.18-14.83,71.91c-2.72,11.37-5.42,22.7-8.92,33.87a328,328,0,0,1-12.38,33.32c-1.16,2.68-2.37,5.33-3.6,8-.82,1.73,1.77,3.26,2.59,1.51Z"/><path class="cls-3" d="M1187.32,467.72c-6.78,25.13-8.53,51.28-7.16,77.2.7,13.13,2.57,26.05,4,39.1a123.21,123.21,0,0,1,.93,19.58c-.3,6.69-1.5,13.36-2.47,20-3.84,26-7,52.11-7.62,78.46-.65,25,.55,50.5,6.47,74.89,5.39,22.19,14.93,43.56,29,61.64a67.43,67.43,0,0,0,6.13,6.94c1.38,1.36,3.5-.76,2.12-2.12-8.25-8.08-14.62-18.48-20-28.66a165.74,165.74,0,0,1-12.59-31.81c-6.72-23.71-8.47-48.64-8.28-73.19.2-26.16,2.76-52.22,6.57-78.08,1.86-12.69,4.29-25.33,3.56-38.21s-3.18-25.78-4.23-38.73c-2.08-25.69-1.47-51.74,4.12-77,.68-3.09,1.45-6.16,2.27-9.21a1.5,1.5,0,0,0-2.89-.8Z"/><path class="cls-3" d="M1627,451.17c-8-26.08-19.75-51.16-36.46-72.82A191.28,191.28,0,0,0,1532,327.88c-24.43-13.5-51.84-21.48-79.43-25.12a284.5,284.5,0,0,0-88,2.35c-27.69,5.07-54.68,14.58-78.94,28.95q-4.56,2.69-9,5.6c-1.61,1.06-.11,3.66,1.51,2.59a231.79,231.79,0,0,1,76-31.94,282.92,282.92,0,0,1,87.19-5.79c27.8,2.42,55.52,9.36,80.68,21.55a187,187,0,0,1,60.1,46.55c17.56,20.44,30.31,44.64,39.06,70.05q1.59,4.62,3,9.3c.56,1.84,3.46,1,2.89-.8Z"/><path class="cls-3" d="M1240,866.06l44.25-9.38,11.15-2.36c3.57-.76,7.22-1.78,10.88-2,5.69-.27,10.14,2.61,13.1,7.32,3.1,4.92,4.59,10.71,5.74,16.35a1.52,1.52,0,0,0,2.21.9l38.19-23.72c5.33-3.31,12.21-8.88,18.91-6.76,4.75,1.51,7.88,6.07,11.86,8.83,5.41,3.75,11.24,2.66,17.14.71,7.06-2.33,14.1-4.69,21.15-7,14-4.67,28-9.73,42.18-14,3.31-1,6.63-1.49,9.76.26,2.37,1.32,4.3,3.28,6.42,4.95a16.93,16.93,0,0,0,12.72,3.82c9.08-1,16.8-7.18,25.89-8a13,13,0,0,1,6,.78c2.6,1.05,4.47,3.16,6.56,4.94a14,14,0,0,0,6.59,3.42,22.69,22.69,0,0,0,7.92-.34c4.85-.87,11.21-2.82,14.93,1.64,3.38,4.06,2.63,10.12.09,14.36-3.17,5.28-8.53,9-13.31,12.75a118.09,118.09,0,0,1-16.46,11.15c-10,5.37-27.06,10.68-34.64-1.32a11.74,11.74,0,0,1-1.79-8c.19-1.43-1.7-1.79-2.56-1.06a114.92,114.92,0,0,1-24.5,15.79l1.82.24a24.57,24.57,0,0,1-6.29-11,1.51,1.51,0,0,0-2.2-.89,325.15,325.15,0,0,1-48.53,25.41l1.46.38a20,20,0,0,1-5.71-11.65,1.5,1.5,0,0,0-1.85-1q-17.94,7.23-35.89,14.47c-5.3,2.13-11.83,4.94-17.56,2.8-4.14-1.55-7.69-6.1-5.88-10.57a1.52,1.52,0,0,0-1.85-1.85c-8.37,3.38-19,7.88-28,3.93-6.16-2.72-11.89-10.41-8.36-17.19a1.51,1.51,0,0,0-2.36-1.81,27.31,27.31,0,0,1-25.93,5.18,24.68,24.68,0,0,1-6.15-2.94c-2.07-1.37-4-3-6.27-3.95-4-1.61-7.87-.25-11.35,1.83s-7,5.14-11.17,5.16c-3.88,0-7.32-2.38-10.42-4.44s-6.23-4.34-9.89-5.21c-4.55-1.08-8,1-12,2.79s-7.58.51-9.76-3.2c-1.87-3.18-2.17-7.4.81-10,1.46-1.27-.67-3.38-2.12-2.12-5.71,4.92-2.92,14.66,3.11,18,4.1,2.3,7.95.62,11.8-1.33a10.57,10.57,0,0,1,6.73-1.44,16.87,16.87,0,0,1,5.63,2.34c3.6,2.15,6.88,4.87,10.81,6.45a13.76,13.76,0,0,0,12-.8c3.76-2,7.54-5.81,12-5.85,2.77,0,5,1.76,7.16,3.3a29.46,29.46,0,0,0,6.57,3.63,30.3,30.3,0,0,0,30.55-5.35L1319,881.7c-4,7.78,1.06,16.67,8.1,20.62,9.92,5.55,22,.92,31.63-3l-1.85-1.85c-1.89,4.7.74,9.66,4.58,12.46,5.13,3.74,11.8,2.82,17.46.93,6.91-2.3,13.63-5.36,20.39-8.09l20.6-8.31-1.85-1a22.66,22.66,0,0,0,6.48,13,1.48,1.48,0,0,0,1.46.38,329.66,329.66,0,0,0,49.25-25.71l-2.2-.9a27.56,27.56,0,0,0,7.06,12.31,1.56,1.56,0,0,0,1.82.23A117.94,117.94,0,0,0,1507,876.5l-2.56-1.06c-.77,5.73,2.38,11.18,6.92,14.49,5.25,3.81,12.11,4.25,18.31,3.18,13.53-2.36,25-11.22,35.48-19.53,4.9-3.87,10-8.05,12.46-14,1.87-4.57,1.67-10.34-1.29-14.41-3.42-4.71-9.06-4.94-14.33-4a54.24,54.24,0,0,1-8.4,1.26c-3.31,0-5.75-1.32-8.16-3.49-2-1.77-3.89-3.61-6.35-4.7a15.22,15.22,0,0,0-6.56-1.25c-4.75.13-9.28,2-13.63,3.73s-9.05,3.94-13.88,4.34a13.58,13.58,0,0,1-6.61-.94c-2.66-1.15-4.75-3.25-7-5.06a16.44,16.44,0,0,0-7.14-3.82c-3.52-.66-7,.36-10.28,1.46q-11.26,3.72-22.52,7.49L1429,847.65l-11.6,3.86c-3.58,1.19-7.23,2.71-11,3.26-6.59,1-10.35-3.66-14.92-7.48a18.27,18.27,0,0,0-6.51-3.8,15,15,0,0,0-9.51.72,55.54,55.54,0,0,0-9.34,5.08l-10.09,6.26-20.16,12.53-10.09,6.26,2.21.9c-2-9.5-5.5-22-16-25.22a21.62,21.62,0,0,0-10.24-.09c-3.94.71-7.84,1.63-11.75,2.46l-24,5.09-26.83,5.69c-1.88.4-1.08,3.29.8,2.89Z"/><path class="cls-3" d="M1247.57,426.5c-6.41,3.26-13.86,4.27-21,4a52.43,52.43,0,0,1-21.42-5.58,39.79,39.79,0,0,1-9.33-6.41,1.52,1.52,0,0,0-2.12,0c-2.5,3-2.3,6.93-.29,10.21,2.3,3.73,6.21,6.15,10.16,7.82,9.34,3.94,19.66,3.95,29.62,3.59,5.52-.21,11.34-.19,16.59-2.13,1.8-.67,1-3.57-.8-2.89-4.07,1.51-8.45,1.72-12.75,1.9-4.69.19-9.39.39-14.08.21a56.19,56.19,0,0,1-13-1.91c-3.78-1.07-7.68-2.63-10.65-5.26-2.48-2.18-5.21-6.28-2.65-9.42h-2.12c11.27,10.57,28.44,14.62,43.47,12.26a40,40,0,0,0,11.91-3.76c1.72-.88.2-3.47-1.52-2.59Z"/><path class="cls-3" d="M1250.67,417c3.36-4.72,3.56-10.76,3.11-16.33a113,113,0,0,0-3.19-19,106.82,106.82,0,0,0-6.37-18c-2.48-5.39-5.43-10.69-10.25-14.32-5.26-4-11.89-5.47-18.2-6.86l.36,2.75c1.8-1,4-.42,5.95,0,2.21.49,4.4,1.11,6.55,1.81,4.4,1.41,8.72,3.11,13,4.77s8.57,3.35,12.74,5.29a53.41,53.41,0,0,1,11,6.41c14,11.24,13,31.92,9.69,47.77-.82,3.84-2.09,7.84-5.1,10.53-3.4,3.05-8.36,3.41-12.7,3.74-1.91.14-1.93,3.14,0,3,4.25-.33,8.73-.7,12.49-2.9,3.5-2.05,5.68-5.48,7-9.23a63.51,63.51,0,0,0,2.59-13.12,75.49,75.49,0,0,0,.59-15.54c-.7-8.67-3.57-17.43-9.67-23.82a40.52,40.52,0,0,0-11-7.77c-4.4-2.25-9-4.16-13.57-6-5.25-2.07-10.53-4.16-15.89-5.91a68.07,68.07,0,0,0-8.15-2.19c-2.41-.48-4.89-.73-7.11.53a1.52,1.52,0,0,0,.35,2.75c5.31,1.16,10.78,2.35,15.48,5.2s7.79,7.6,10.21,12.56a105.15,105.15,0,0,1,9.84,34.59c.65,5.91,1.22,12.57-2.42,17.69-1.12,1.57,1.48,3.07,2.59,1.51Z"/><path class="cls-3" d="M1242.63,385a18.21,18.21,0,0,0-18.12,7.61c-4.28,6-5,14.2-2.86,21.13a22.44,22.44,0,0,0,6.47,10.34c1.44,1.28,3.57-.84,2.12-2.12-6.11-5.4-8.14-14.59-5.84-22.29,2.2-7.37,9.44-13.36,17.43-11.77,1.88.37,2.69-2.52.8-2.9Z"/></svg>