<svg id="Layer_1" data-name="Layer 1" xmlns="http://www.w3.org/2000/svg" viewBox="0 0 1920 1080"><defs><style>.cls-1{font-size:60px;font-family:VarelaRound-Regular, Varela Round;}.cls-2{letter-spacing:-0.04em;}.cls-3{letter-spacing:-0.01em;}.cls-4{letter-spacing:-0.02em;}.cls-5{letter-spacing:0em;}.cls-6{letter-spacing:-0.02em;}.cls-7{letter-spacing:-0.07em;}.cls-8{letter-spacing:-0.02em;}.cls-9{letter-spacing:0em;}.cls-10{letter-spacing:-0.02em;}.cls-11{letter-spacing:-0.01em;}.cls-12{letter-spacing:-0.01em;}.cls-13{fill:#4d4d4d;}</style></defs><title>42-teeth</title><text class="cls-1" transform="translate(126.3 192.51)"><tspan class="cls-2">W</tspan><tspan x="58.26" y="0">ait, wh</tspan><tspan class="cls-3" x="245.1" y="0">a</tspan><tspan x="278.1" y="0">t</tspan><tspan class="cls-4" x="301.02" y="0">’</tspan><tspan class="cls-5" x="314.34" y="0">s going o</tspan><tspan class="cls-6" x="574.49" y="0">n</tspan><tspan x="609.95" y="0">? </tspan></text><text class="cls-1" transform="translate(1094.3 277.51)"><tspan class="cls-7">Y</tspan><tspan x="33.84" y="0">o</tspan><tspan class="cls-8" x="70.32" y="0">u</tspan><tspan class="cls-9" x="105.54" y="0">’</tspan><tspan class="cls-10" x="119.82" y="0">r</tspan><tspan class="cls-9" x="141.9" y="0">e making me </tspan><tspan class="cls-11" x="522.54" y="0">y</tspan><tspan class="cls-12" x="554.4" y="0">a</tspan><tspan x="587.58" y="0">wn.</tspan></text><path class="cls-13" d="M267.18,643.7c2.31,13.51,12.11,24.15,18.2,36a45.74,45.74,0,0,1,4,10.56c.44,1.88,3.34,1.08,2.9-.8-3.13-13.39-12.94-23.79-18.74-36a40.44,40.44,0,0,1-3.48-10.6c-.33-1.9-3.22-1.1-2.9.79Z"/><path class="cls-13" d="M270.83,644.07c16.34,10.29,32.75,20.47,49.42,30.23q7.08,4.14,14.21,8.17a1.46,1.46,0,0,0,1.51,0c7.48-5.75,17.48-7.92,26.75-8l-1.29-2.25a3.62,3.62,0,0,1-1.28,1.41s-.38.24-.22.09c-.07.06.12,0,.18.09.37.31.32.59.28,1s-.18.13.07.05a7.88,7.88,0,0,1,2.26-.39l-1.29-2.25c-2.92,5-5.8,10.1-8.77,15.11-2,3.46-5.21,7.44-4,11.73,1,3.51,4.49,5.78,7.86,6.61,3.57.89,7.33.67,11,.54s8.07-.5,11.59,1.18V704.8a189.17,189.17,0,0,0-25.37,21.4,1.5,1.5,0,0,0,2.12,2.12,185.25,185.25,0,0,1,24.76-20.93,1.51,1.51,0,0,0,0-2.59c-6.21-3-13.44-1.12-20-1.55-3-.19-6.16-.92-8.12-3.37-2.7-3.38.64-7.51,2.44-10.47,3.15-5.15,6.08-10.45,9.11-15.68a1.52,1.52,0,0,0-1.3-2.26c-1.49,0-3.26.2-4.41,1.26a2.25,2.25,0,0,0-.42,3c1.9,2.52,5-.23,6.13-2a1.52,1.52,0,0,0-1.3-2.26c-9.74.09-20.4,2.36-28.26,8.41H336c-16.77-9.48-33.27-19.45-49.63-29.63q-7-4.37-14-8.77c-1.64-1-3.15,1.57-1.51,2.59Z"/><path class="cls-13" d="M275,742.08l12.14,53.25c2,8.78,4.23,17.6,4.94,26.6a70.62,70.62,0,0,1-2.58,24.79,90.72,90.72,0,0,1-4.85,13.07c-1,2.16-2,4.35-3.2,6.41-.63,1.07-2.33,3.1-3.68,2.09-1.55-1.16-3,1.45-1.52,2.59,3.11,2.33,6.72-1.16,8.12-3.78A106.58,106.58,0,0,0,289.88,855a78.78,78.78,0,0,0,5.39-25.53c.3-9.46-1.58-18.81-3.65-28-2.12-9.44-4.29-18.86-6.44-28.29l-7.29-31.94c-.43-1.89-3.32-1.09-2.89.79Z"/><path class="cls-13" d="M276.42,648.7a1.18,1.18,0,0,1,0-.2c.09-.32-.06.1-.06.11s.1-.17.1-.18.17-.11-.07.08a2.2,2.2,0,0,0,.31-.3c-.27.28-.19.15-.06.07l.19-.12c.13-.06.31-.06-.07,0l.22-.08.23-.06c.13,0,.35,0-.09,0,.15,0,.3,0,.45,0s.36,0,.08,0,.07,0,.13,0l-.9-2.2c-.1.15-.2.3-.31.44l-.18.26,0-.06a5.9,5.9,0,0,1-.78.8c-.3.26.21-.13,0,0l-.2.14-.27.15c-.13.07-.33.08.06,0-.19,0-.37.13-.56.17l-.17,0,.19,0h-.39l.26,0a.71.71,0,0,1-.28-.06l-.21-.06c-.24-.08.37.18,0,0-.15-.08-.28-.18-.42-.26.35.21.19.15.09.06l-.19-.19c-.1-.12-.1-.23.08.11l-.12-.21c-.12-.19.11.38.06.15a.17.17,0,0,1,0-.1c0-.15,0-.07,0,.24a.38.38,0,0,0,0-.15c-.05.32-.06.4,0,.25s0-.06,0,.09c-.14.3,0,0,0,0-.19.23-.23.29-.13.18s.06-.06-.16.12a1.66,1.66,0,0,0,.69-.9,1.49,1.49,0,0,0-2.2-1.69,2.63,2.63,0,0,0-1.05,1.34,2.42,2.42,0,0,0,0,1.41,3.73,3.73,0,0,0,1.67,2,4.08,4.08,0,0,0,2.83.55,5.17,5.17,0,0,0,2.5-1.23,9.36,9.36,0,0,0,1.76-2.1,1.51,1.51,0,0,0-.9-2.2,4.75,4.75,0,0,0-3.25.41,3.54,3.54,0,0,0-1.84,2.33,1.58,1.58,0,0,0,.16,1.15,1.47,1.47,0,0,0,.89.69,1.52,1.52,0,0,0,1.85-1Z"/><path class="cls-13" d="M303.75,751.13c8.19,2.09,16.66,4.19,24,8.56a28.66,28.66,0,0,1,8.94,8.07,37.79,37.79,0,0,1,5.13,11.46c5.39,19,4.75,39.55-.49,58.54-2.89,10.48-6.72,21.18-5.37,32.22.24,1.9,3.24,1.92,3,0-1.24-10.15,2-20,4.76-29.61a120.72,120.72,0,0,0,4.81-30.19,111.36,111.36,0,0,0-3.35-30c-2.17-8.5-6.09-16.18-13.36-21.37-8-5.7-17.91-8.15-27.27-10.54-1.87-.47-2.66,2.42-.79,2.9Z"/><path class="cls-13" d="M370.56,861.33c-13,6.8-27.24,13.94-35.71,26.47a33.83,33.83,0,0,0-4.43,9.2,31,31,0,0,0-1,9.54,4.34,4.34,0,0,1-.27,2,3.35,3.35,0,0,1-2,1.44,31.47,31.47,0,0,0-4.61,2.21,23.65,23.65,0,0,0-7,6.41c-1.73,2.39-3.79,6.15-2.8,9.17s4.13,3.82,6.84,4.13c3.76.42,7.68,0,11.46-.15l12.73-.45q12.85-.48,25.71-1L376,930a51.21,51.21,0,0,0,5.94-.38,6.57,6.57,0,0,0,4.21-2.24,16.59,16.59,0,0,0,2.25-4.68,131.45,131.45,0,0,0,8.7-46.85c0-2-.06-4-.15-6s-3.1-1.93-3,0a128.25,128.25,0,0,1-5.81,44.5c-.57,1.79-1.17,3.58-1.81,5.35a39.6,39.6,0,0,1-1.95,4.94c-.83,1.58-2.18,2-3.88,2.16-2,.17-4,.19-6,.27q-12.11.52-24.22,1t-24,.85c-2.89.1-6.35.59-9.1-.6-3.18-1.36-1-5.25.33-7.31a20,20,0,0,1,6.36-6.12,25.09,25.09,0,0,1,3.88-1.94c1.52-.61,3-1.25,3.91-2.74a7.25,7.25,0,0,0,.74-3.86,31.53,31.53,0,0,1,.08-4.86,26,26,0,0,1,2.87-8.75c7.43-14.14,23.16-21.76,36.69-28.83,1.72-.89.2-3.48-1.51-2.59Z"/><path class="cls-13" d="M280.68,873.07A31.7,31.7,0,0,0,292,889.33a39.75,39.75,0,0,0,9.25,5.37c4,1.66,8.27,2.4,12.24,4.08a1.55,1.55,0,0,0,2.05-.54,1.5,1.5,0,0,0-.54-2c-3.73-1.58-7.7-2.39-11.49-3.8a36.93,36.93,0,0,1-9.1-5,28.76,28.76,0,0,1-10.84-15.15,1.51,1.51,0,0,0-2.9.8Z"/><path class="cls-13" d="M280.74,851.53l-19.56,11c-5.56,3.15-12.18,6-16.29,11.1-3.66,4.54-4.65,10.26-4.12,16a67.56,67.56,0,0,0,3.72,16.17c2,5.56,5.24,10.59,10.71,13.2l-.69-1.69c-.23.72-2.56.88-3.2,1-1.51.33-3.23.85-4.08,2.26-1.11,1.83-.16,4,1.44,5.17,2,1.43,4.62,1.49,7,1.62a137.93,137.93,0,0,0,31.69-2A132,132,0,0,0,304.8,921c1.82-.6,1-3.49-.8-2.89A130.94,130.94,0,0,1,275.56,924a135.73,135.73,0,0,1-14.54.57c-2.39,0-4.79-.1-7.17-.3-.78-.06-5-.71-3.95-2.23.32-.46,1.32-.6,1.81-.71.75-.18,1.51-.3,2.26-.49a4.33,4.33,0,0,0,3.44-2.72,1.52,1.52,0,0,0-.69-1.69c-4.54-2.16-7.36-6.15-9.1-10.76A68.44,68.44,0,0,1,244,891.14c-.73-5.23-.39-10.85,2.93-15.18a23.69,23.69,0,0,1,6.44-5.43c2.77-1.73,5.66-3.28,8.51-4.89l20.43-11.52a1.5,1.5,0,0,0-1.52-2.59Z"/><path class="cls-13" d="M394.19,846.59a119.47,119.47,0,0,0-5-27.69c-.56-1.84-3.45-1-2.89.8a116,116,0,0,1,4.88,26.89c.11,1.92,3.11,1.93,3,0Z"/><path class="cls-13" d="M268.17,740.6A150.66,150.66,0,0,1,250.09,712c-2.44-4.88-4.71-9.84-6.91-14.83-1.08-2.45-2.14-4.9-3.2-7.36a50.14,50.14,0,0,1-3.06-8.19c-1.32-5.54,1-10.61,6.25-13l-1.81-.23c4.61,4.38,8,10.08,11.63,15.26,4.21,6,8.54,12.24,14.13,17.07a23.54,23.54,0,0,0,9,5.18,1.51,1.51,0,0,0,.8-2.9c-6.11-1.66-10.78-7-14.61-11.78-4.49-5.56-8.33-11.6-12.53-17.38a53,53,0,0,0-6.28-7.57,1.58,1.58,0,0,0-1.82-.24,13.56,13.56,0,0,0-8.12,11.13c-.51,5.89,2.79,11.67,5.06,16.9,4.69,10.83,9.57,21.61,15.63,31.76a136.67,136.67,0,0,0,11.82,16.85c1.23,1.5,3.34-.64,2.12-2.12Z"/><path class="cls-13" d="M370.42,755.68c14.51.16,29.21-2.11,42.59-7.86,11.94-5.13,22.66-13.49,28.67-25.22a51.67,51.67,0,0,0,5.45-21,1.52,1.52,0,0,0-2.56-1.07,125.43,125.43,0,0,1-14.18,10.67,63.62,63.62,0,0,1-18.31,7.7c-6.92,1.71-14,2.57-21,3.74-6.57,1.11-13.2,2.43-19.25,5.32-5,2.37-10.22,6.36-10.19,12.38a1.5,1.5,0,0,0,3,0c0-5,5-8.08,9-10,6-2.77,12.63-3.94,19.09-5,6.79-1.12,13.66-2,20.35-3.64a65.9,65.9,0,0,0,17.83-7.36,125.3,125.3,0,0,0,15.78-11.73l-2.56-1.06a47.22,47.22,0,0,1-15.85,33.29c-9.22,8.17-21.18,12.87-33.11,15.43a112.4,112.4,0,0,1-24.75,2.36,1.5,1.5,0,0,0,0,3Z"/><path class="cls-13" d="M339.08,695.16a17.13,17.13,0,0,0-10.55-5.93,1.52,1.52,0,0,0-1.85,1.84l1.43,5.44.71,2.71.33,1.26c.06.2.1.42.17.62s.05.21,0,.08c.35-1,1-1.06,2-.32a1.51,1.51,0,0,0-2.05-.54,1.55,1.55,0,0,0-.54,2.06c.68,1.55,2.95,1,3.47-.32a3.26,3.26,0,0,0-.06-2.07l-.52-2-2-7.73-1.84,1.84a14.46,14.46,0,0,1,9.23,5.17,1.52,1.52,0,0,0,2.12,0,1.54,1.54,0,0,0,0-2.13Z"/><path class="cls-13" d="M326.12,680.15a15.46,15.46,0,0,1-.45,1.78c-.07.25-.16.5-.25.75l-.18.49c-.12.3.09-.2-.06.12a17.34,17.34,0,0,1-1.75,3.08l2.36-.31c-.43-.47-.86-.95-1.27-1.44l-.61-.75-.17-.22,0,0-.29-.39a36.21,36.21,0,0,1-2.14-3.19,1.5,1.5,0,1,0-2.59,1.51,39.85,39.85,0,0,0,4.92,6.56,1.45,1.45,0,0,0,1.26.42,1.57,1.57,0,0,0,1.1-.72,18,18,0,0,0,3-6.93,1.5,1.5,0,1,0-2.89-.8Z"/><path class="cls-13" d="M290.65,677c3.78,5.06,8,10.64,8.18,17.22.06,1.92,3.06,1.93,3,0-.21-7.18-4.44-13.19-8.59-18.73a1.55,1.55,0,0,0-2.05-.54,1.51,1.51,0,0,0-.54,2.05Z"/><path class="cls-13" d="M414.75,853.39a929.55,929.55,0,0,1,70.95-89.77q10.76-12,21.93-23.63a1.52,1.52,0,0,0-1.46-2.51l-18.32,2.67,1.7,2.2,56.94-115,16.1-32.5a1.51,1.51,0,0,0-1.69-2.2l-69.68,12.83,1.85,1.85Q508.51,533,529.66,459.89q6-20.59,12.39-41.06a1.51,1.51,0,0,0-1.84-1.85c-40.09,12.51-76.67,33.52-112.85,54.41l2.25,1.3.49-68.06.24-34c.07-9.89.38-19.84-.62-29.69-1-10.24-3.59-20.33-9.42-28.94a1.52,1.52,0,0,0-2.59,0l-16.6,23.46-4,5.65c-1.27,1.8-2.51,3.87-4.35,5.15-4.25,2.94-10-1-14-2.75L325.87,320l-30.14-13.39c-1.29-.58-2.86.65-2.05,2.05a903.18,903.18,0,0,1,47.22,93.55q6.12,14.13,11.76,28.47l1.44-1.9-43.69-1.4a1.52,1.52,0,0,0-1.29,2.26q24.24,48.21,51.42,94.87,7.81,13.43,15.87,26.7l1.7-2.21-18.63-4.61a1.52,1.52,0,0,0-1.85,1.05,216.38,216.38,0,0,0,13.71,118.3c.74,1.75,3.64,1,2.9-.8a213.43,213.43,0,0,1-13.71-116.7l-1.85,1,18.63,4.61a1.52,1.52,0,0,0,1.69-2.21q-28-46.14-53.1-93.94-7.22-13.75-14.19-27.63l-1.3,2.26,43.69,1.4a1.51,1.51,0,0,0,1.45-1.9A907,907,0,0,0,311,333.5q-7.14-13.31-14.71-26.35l-2,2.05L352,334.88l28.65,12.73c3.49,1.55,7.4,3.55,11.31,2.37,3.74-1.12,5.93-4.82,8-7.82l20.28-28.68h-2.59c10.86,16,9.78,36.45,9.65,55l-.48,66.44-.27,37.81a1.51,1.51,0,0,0,2.26,1.29c36-20.76,72.29-41.67,112.13-54.11L539.16,418q-22.74,72.53-39.82,146.65-4.81,20.9-9.16,41.9a1.52,1.52,0,0,0,1.84,1.85l69.67-12.84-1.69-2.2-56.94,115L487,740.83a1.52,1.52,0,0,0,1.69,2.21L507,740.37l-1.46-2.5a935.57,935.57,0,0,0-74.2,87.44q-9.81,13.11-19.15,26.57c-1.1,1.59,1.49,3.09,2.59,1.51Z"/><path class="cls-13" d="M1392.83,314.09a232.61,232.61,0,0,1,16.88,21.7c2.37,3.45,5,7,6.56,10.91a20.6,20.6,0,0,1,.51,12.31c-1.87,8.1-6,15.81-10.33,22.87a93.28,93.28,0,0,1-14.71,18.74c-5.89,5.68-12.84,10.43-20.81,12.58a1.5,1.5,0,0,0,.8,2.89c15.55-4.19,27.36-17.18,35.79-30.27,4.67-7.24,9-15.17,11.47-23.45a28.26,28.26,0,0,0,1.18-12.9c-.76-4.33-3.13-8.1-5.51-11.7A240.6,240.6,0,0,0,1395,312c-1.27-1.46-3.39.67-2.12,2.12Z"/><path class="cls-13" d="M1493.64,386.09,1477,439c-.58,1.85,2.31,2.64,2.89.8l16.65-52.91c.58-1.85-2.31-2.64-2.89-.8Z"/><path class="cls-13" d="M1485.12,387.54l.39-.36c.22-.18-.27.19,0,0l.18-.13.43-.25.23-.12.13-.05c.1,0,0,0-.16.06a2.54,2.54,0,0,0,.46-.17l.48-.12.26-.05c.32-.05-.37,0,0,0l.53,0-1.29-.75.13.28.06.14s-.14-.37-.06-.15.14.39.2.59.1.38.13.57l0,.15c0,.16,0-.22,0-.2a2,2,0,0,0,0,.34,3.62,3.62,0,0,1,0,.57,1.45,1.45,0,0,1,0,.3s.07-.41,0-.17l0,.18a4.48,4.48,0,0,1-.16.52c0,.12-.12.17.07-.16l-.06.14-.14.25-.08.12c-.12.2.1-.13.1-.13a1,1,0,0,1-.19.22l-.19.18c-.14.12.3-.2.15-.12l-.13.08c-.14.09-.36.12.09,0l-.2.06-.21.05c-.2,0,.22,0,.22,0a.81.81,0,0,0-.15,0h-.37l.25,0a3.81,3.81,0,0,0-.51-.12l-.12,0,.22.09c0-.05-.17-.08-.22-.11l-.21-.12-.08-.05c-.2-.13.13.07.14.11s-.15-.13-.19-.18l-.08-.08c-.18-.19.12.15.11.15a1.1,1.1,0,0,1-.14-.21.47.47,0,0,0,0-.1c-.06-.09.13.39.08.19a1.6,1.6,0,0,0,0-.21c-.06-.18,0,.23,0,.24s0-.12,0-.14a.37.37,0,0,0,0-.11c0-.16-.09.42,0,.21s0-.19.09-.29a1.45,1.45,0,0,0-.15-1.15,1.53,1.53,0,0,0-.89-.69,1.51,1.51,0,0,0-1.16.15,1.77,1.77,0,0,0-.69.9A3.08,3.08,0,0,0,1483,391a4.4,4.4,0,0,0,2.89,1.34,3.67,3.67,0,0,0,3-1.14,5.24,5.24,0,0,0,1.33-3.41,7.6,7.6,0,0,0-.91-3.73,1.5,1.5,0,0,0-1.3-.74,7.12,7.12,0,0,0-5,2.06,1.5,1.5,0,0,0,2.12,2.12Z"/><path class="cls-13" d="M1508.76,387.82c9.56,10.5,21.53,24.59,16.74,39.9-4.26,13.62-18.86,21.57-32.59,20.86-15.13-.79-27.29-12.9-34.18-25.54a60.09,60.09,0,0,1-6.89-21.09c-.81-6.35-1-14.38,3.87-19.31,5.26-5.37,13.88-3.95,20.56-3,7.82,1.09,15.87,2.3,23.12,5.61a39.42,39.42,0,0,1,5.21,2.88c1.63,1.05,3.13-1.54,1.52-2.59-7.3-4.75-15.86-6.77-24.36-8.11-4.06-.63-8.16-1.3-12.26-1.56a24.46,24.46,0,0,0-11.34,1.54c-7.2,3.13-9.66,11-9.73,18.28a58.84,58.84,0,0,0,4.92,23.08,63.1,63.1,0,0,0,13.44,20.05c5.73,5.72,12.71,10.47,20.75,12.09,14.52,2.93,30.58-3.39,38.17-16.34a28.23,28.23,0,0,0,2.25-23.43c-2.61-7.82-7.66-14.59-13-20.79-1.35-1.57-2.72-3.11-4.11-4.64s-3.42.69-2.13,2.12Z"/><path class="cls-13" d="M1470.39,431.13a100.63,100.63,0,0,1,9.91-46.41c.84-1.73-1.75-3.25-2.59-1.51a103.94,103.94,0,0,0-10.32,47.92c0,1.93,3,1.94,3,0Z"/><path class="cls-13" d="M1480.29,476.05c-3.51-18.81-18.74-32.5-35.22-40.6a136,136,0,0,0-13.83-5.8,73,73,0,0,0-15-4.09,26.61,26.61,0,0,0-14.2,1.74,27.46,27.46,0,0,0-10,7.59c-6.23,7.42-8.5,17.13-8.6,26.65a71.3,71.3,0,0,0,5.79,29.43,49.18,49.18,0,0,0,17.06,20.83c8.26,5.61,18,7.52,27.87,6.78a55.53,55.53,0,0,0,27.25-9.16A45.52,45.52,0,0,0,1478,489a39.93,39.93,0,0,0,2-6.33c.41-1.88-2.48-2.68-2.9-.79a40.63,40.63,0,0,1-12.46,21.19,49.27,49.27,0,0,1-24,11.62c-9.14,1.77-19.09,1.55-27.6-2.53a43.36,43.36,0,0,1-18-16.7,62,62,0,0,1-8.22-26.61c-.82-9.24-.26-19.16,4.37-27.41,4-7.14,11-12.71,19.36-13.18,5-.28,9.9.93,14.62,2.43,4.49,1.43,8.94,3.07,13.28,4.94,15.93,6.87,31.51,18,37.38,35.06a43.05,43.05,0,0,1,1.61,6.12c.35,1.89,3.24,1.09,2.89-.8Z"/><path class="cls-13" d="M1454,502.47c-.66-2.58-3.27-3.86-5.77-3.87a9.1,9.1,0,0,0-7.06,3.82c-1.5,2-2.75,5.2-1.09,7.45,1.09,1.48,2.72,1.5,4.37,1.12a14.27,14.27,0,0,0,4.23-1.65c2.88-1.76,4.95-5.26,3.82-8.68a1.5,1.5,0,0,0-2.89.8,3.64,3.64,0,0,1-.1,2.65,6.45,6.45,0,0,1-.62,1.11,6.07,6.07,0,0,1-1,1.06,8.75,8.75,0,0,1-2.73,1.41,13.79,13.79,0,0,1-1.56.42,2.87,2.87,0,0,1-.71.13h-.23c-.15-.05-.17-.06-.07,0s.09,0,0,0l.11.08-.09-.09s.11.21,0,0c0,0-.17-.37-.09-.17s-.06-.22-.06-.21a2.16,2.16,0,0,1,0-.27c0,.08,0,.26,0,0a5.88,5.88,0,0,1,0-.73c0,.28.07-.29.09-.37a6.93,6.93,0,0,1,.26-.72,9.24,9.24,0,0,1,.7-1.24,7.12,7.12,0,0,1,1.92-1.87c.22-.14.44-.28.67-.4a4.17,4.17,0,0,0,.4-.19,5.25,5.25,0,0,1,.67-.22l.28-.06c.06,0,.47-.07.17,0a6.22,6.22,0,0,1,1.43,0c-.27,0,0,0,0,0s.28,0,.41.09l.27.08c.08,0,.39.15.15,0,.21.1.39.21.59.32.35.2-.12-.11.06,0l.24.22s.26.31.13.14.11.19.13.23.14.28.07.11.08.28.09.34c.48,1.87,3.37,1.07,2.9-.8Z"/><path class="cls-13" d="M1431.23,511.83a78,78,0,0,1,21.34-46.17,74.6,74.6,0,0,1,11.15-9.55c1.57-1.1.07-3.7-1.52-2.59a81.23,81.23,0,0,0-31,43.13,80,80,0,0,0-2.92,15.18c-.18,1.92,2.82,1.91,3,0Z"/><path class="cls-13" d="M1482.16,603.45c4.87,2,9.44,4.58,14.1,7a45.58,45.58,0,0,0,7.23,3.28q3.79,1.17,7.56,2.4c10.31,3.39,20.52,7.1,30.71,10.84,20.37,7.48,40.77,15,61.9,20.13,1.29.31,2.59.61,3.88.9a15,15,0,0,1,3.84,1.45c2.29,1.18,4.63,2.26,7,3.31,4.77,2.14,9.59,4.17,14.17,6.7,1.13.62,2.25,1.28,3.35,2a3.3,3.3,0,0,1,1.13.92,16.9,16.9,0,0,1,1,1.93q1.79,3.39,3.4,6.84,3.25,6.9,5.93,14c7.17,19,11.49,39,14.32,59.1,2.86,20.35,4.18,40.88,5.38,61.38.14,2.47.29,5,.43,7.43l2.26-1.3c-1.14-.7-.62-1.12-2,1.18-.27.44-.34-.69-.26.12l2.26-1.3a7.94,7.94,0,0,1-3.29-6.87,3.5,3.5,0,0,1,.47-1.44c.31-.53.32-.15-.22-.15-.14,0-.62-.21-.56-.23s0,0,.06.09a4.54,4.54,0,0,1,.27.67,32.5,32.5,0,0,1,1,9.23l2.26-1.3a55.17,55.17,0,0,1-17-17.17,68.11,68.11,0,0,1-4.37-8.17,31,31,0,0,0-4.45-7.47,13.5,13.5,0,0,0-8.94-4.45l1.3.74c-2.44-5-1.94-11.1-5-15.83a26.64,26.64,0,0,0-2.58-2.93A18.66,18.66,0,0,0,1626,754c-2.07-1.61-4.33-2.94-6.41-4.51s-4.17-3.5-5.11-5.93c-.67-1.74-1.1-3.57-1.83-5.3s-1.58-3.52-2.43-5.25c-2.86-5.79-6.47-11.19-9.26-17s-4.7-12.16-4.49-18.7a19.3,19.3,0,0,0-1.15-7.86,11.32,11.32,0,0,0-2-3.46,16.1,16.1,0,0,0-4-2.79c-13.36-7.87-27.19-14.85-41.11-21.64-15.43-7.54-30.95-14.9-46-23.18-1.69-.93-3.2,1.66-1.51,2.6,17.42,9.57,35.47,17.92,53.28,26.74,8.94,4.44,17.83,9,26.55,13.88,2.29,1.29,4.58,2.6,6.85,3.93,1.79,1,3.6,1.87,4.65,3.72,1.87,3.3,1.42,6.78,1.55,10.38.31,8.47,3.79,16.25,7.83,23.55,2,3.65,4.25,7.19,6.1,10.93a70.49,70.49,0,0,1,3.14,7c.74,2,1.15,4,2.35,5.81,2,3,4.83,5,7.73,7a38.73,38.73,0,0,1,7.43,6.2c2.3,2.59,2.76,6.44,3.46,9.7a34,34,0,0,0,1.5,5.33c.34.85.65,2,1.62,2.34s1.75.25,2.6.51c6,1.84,7.93,8.89,10.47,13.88a59,59,0,0,0,15.39,18.84,55.07,55.07,0,0,0,5.18,3.67,1.51,1.51,0,0,0,2.26-1.29,38.68,38.68,0,0,0-1-9.78c-.42-1.45-1.37-3.37-3.22-2.91-2.29.56-2.94,3.78-2.75,5.74.32,3.14,2,6.56,4.75,8.24a1.51,1.51,0,0,0,2.26-1.29c-.15-1.55-1.28-3.79-3.21-2.92a1.8,1.8,0,0,0-1,2.11,3.87,3.87,0,0,0,1.94,2.1,1.51,1.51,0,0,0,2.26-1.29c-1.2-20.78-2.38-41.58-4.94-62.24-2.53-20.38-6.38-40.68-13-60.14a197.86,197.86,0,0,0-12.1-28.31,7.1,7.1,0,0,0-2.06-2.92c-1.14-.77-2.33-1.47-3.53-2.15-2.35-1.33-4.78-2.54-7.23-3.68-4.7-2.18-9.5-4.13-14.12-6.47a19.58,19.58,0,0,0-3.55-1.7c-1.36-.36-2.75-.61-4.11-.93-2.66-.62-5.3-1.29-7.94-2q-8-2.13-15.87-4.63c-10.49-3.31-20.84-7-31.17-10.8s-20.65-7.62-31.06-11.21q-7.71-2.65-15.5-5.07a45.88,45.88,0,0,1-7.29-3.38c-2.28-1.19-4.54-2.42-6.83-3.59s-4.76-2.31-7.22-3.31c-1.78-.72-2.56,2.18-.79,2.9Z"/><path class="cls-13" d="M1285.75,895.61c5-7.13,13-11.07,21.06-13.82,4.14-1.42,8.37-2.63,12.61-3.71,4.69-1.2,10.46-2.37,14.92.18,3.54,2,6.43,6.75,4.12,10.66a1.52,1.52,0,0,0,1.29,2.26c6.47.41,12.63-1.74,18.74-3.55a48.05,48.05,0,0,1,9.48-2.08,29.75,29.75,0,0,1,9.61,1.11,16.38,16.38,0,0,0,9.82-.36c3-1.14,5.9-2.69,8.94-3.83a49.42,49.42,0,0,1,19.06-3.54,29.56,29.56,0,0,1,9.26,1.8c3.07,1.14,5.58,3.14,8.45,4.65,6.15,3.22,13.84,1,20.23-.44,7.19-1.56,14.39-3.45,21.79-3.52,7.08-.07,13.77,2.09,20.55,3.83,7.35,1.89,14.76,2.92,22.08.35,3.5-1.23,7-3.07,10.75-3.38,3-.24,6.47.41,8.28,3.08a1.53,1.53,0,0,0,1.69.69c8-3,18.09-6.92,26.58-3.25,5.3,2.29,10.09,8.8,8.62,14.78-1.78,7.24-10.65,7.41-16.61,7.93a32.82,32.82,0,0,0-10.41,2.24c-3.59,1.55-6.73,3.91-10.13,5.81s-7.19,3.22-11.16,1.71c-3-1.14-5.95-3.79-4.64-7.24a1.5,1.5,0,0,0-1.84-1.85,42.82,42.82,0,0,0-11.07,7c-3.36,2.69-6.84,5.87-11,7.34-5.13,1.83-14.91,1.35-15.8-5.65a1.53,1.53,0,0,0-2.26-1.3c-6.56,3.17-13.08,6.43-19.68,9.5-2.89,1.34-6.24,2.71-9.49,2.14-2.69-.48-5.15-2.19-5.66-5a1.51,1.51,0,0,0-2.51-.66c-5.12,5.52-11.59,12.25-19.64,12.67-6.1.32-13.6-3.75-13.38-10.59a1.52,1.52,0,0,0-1.9-1.45l-18.84,6.37c-6,2-12,4.24-18.18,5.59-10.11,2.21-22.86,1.36-29.08-8.19a1.54,1.54,0,0,0-2.06-.54c-4.67,2.85-10.13,6.3-15.86,5.65-4.22-.49-9.19-4.2-8.36-8.92.18-1-.67-2.26-1.85-1.84-6.71,2.38-13.73,4.93-21,4.55-5.78-.3-11.77-2.72-15-7.71a1.52,1.52,0,0,0-2.59,0c-6,9.11-19.73,11.13-28.29,4.54-1.53-1.17-3,1.43-1.52,2.6,9.92,7.62,25.57,4.72,32.4-5.63h-2.59c3.6,5.53,9.77,8.39,16.18,9.08,8,.87,15.83-1.92,23.21-4.54l-1.85-1.85c-1,5.91,3.61,10.88,9.08,12.34,7,1.85,13.86-2.2,19.56-5.68l-2.05-.54c4.58,7,12.88,10.44,21.06,10.76,10.52.4,20.71-3.78,30.5-7.09l17.93-6-1.9-1.45c-.26,8,7.77,13.35,15.11,13.6,9.42.32,17.1-7.17,23-13.56l-2.5-.66a8.88,8.88,0,0,0,5.6,6.42c3.33,1.39,7,.94,10.29-.24a111.42,111.42,0,0,0,11.1-5.13l12.24-5.91-2.25-1.29c1,8.1,10,10.52,17,9.24,9.78-1.8,15.62-11.48,24.64-15l-1.85-1.84c-2.85,7.5,6.81,12.51,13,11.66,4.35-.59,8.21-3.33,11.85-5.58a29,29,0,0,1,12.48-4.62c7.22-.79,16.89-.45,20.59-8.17,3.17-6.62-.75-14.45-6.2-18.52-9.32-7-22.22-2.47-31.9,1.16l1.69.69c-3.32-4.91-9.73-5.31-15-3.79-3.38,1-6.54,2.6-10,3.49a27.15,27.15,0,0,1-10.24.47c-7-.91-13.75-3.56-20.74-4.8-7.16-1.27-14.26-.59-21.35.81-3.61.72-7.18,1.57-10.78,2.34A59.52,59.52,0,0,1,1440,884c-4,0-6.66-2.08-9.92-4a29.43,29.43,0,0,0-8.61-3.33,42.49,42.49,0,0,0-18.93.71,64.16,64.16,0,0,0-9.27,3.08c-3.2,1.32-6.4,3.37-9.88,3.79-3.78.47-7.51-1.38-11.25-1.72a33.06,33.06,0,0,0-10.83,1.18c-7.12,1.8-14.08,4.93-21.57,4.46l1.3,2.26c2.27-3.85,1.14-8.39-1.57-11.69-3.35-4.09-8.59-5.3-13.68-4.87-5.59.47-11.12,2.28-16.45,3.93a77,77,0,0,0-13.7,5.49,35.7,35.7,0,0,0-12.49,10.79c-1.11,1.59,1.49,3.09,2.59,1.52Z"/><path class="cls-13" d="M1314.35,620.71c-16.22-7.28-32.68-14.06-48.59-22l.69,1.7c5.46-29.61,12.79-58.85,18.14-88.49,1.49-8.27,2.81-16.57,3.91-24.91a1.46,1.46,0,0,0-.74-1.3Q1264.08,475,1240.1,465q-12.06-5-24.23-9.82-6.09-2.41-12.22-4.76l-6.14-2.35a23.54,23.54,0,0,0-5.54-1.83,14,14,0,0,0-5.92,1c-1.7.59-3.77,1-5,2.42-2.46,2.75-1.47,6.74-.47,9.89l1.44-1.9c-.33,0-.68-.17-1-.18l-.17-.1c.59.5.32,1.18-.81,2.06-.14-.17,0,0,.07.05.22.26.62.48.86.73l1.06-2.56c-3.48-.15-6,2.12-7.22,5.22-1.44,3.61,0,7.32,2.35,10.17a13.3,13.3,0,0,0,4.26,3.49c1.53.81,3.11,1.51,4.69,2.22,2.69,1.21,6,2.48,7.67,5,.72,1.07,1.73,2.71,1.15,4-.87,1.93-3.16,3.18-4.91,4.15a1.52,1.52,0,0,0,.36,2.74,16.58,16.58,0,0,0,4.93.81,1.65,1.65,0,0,0,.81-3.07c-1.57-1-4.44-1.5-6.1-.48a1.52,1.52,0,0,0,.36,2.74,29.28,29.28,0,0,1,17.36,16.63,42.18,42.18,0,0,1,1.76,5.7c.18.72.28.87-.07,1.54a28.62,28.62,0,0,1-1.59,2.41,8.89,8.89,0,0,0-1.28,2.58,7.76,7.76,0,0,0,.13,2.8c.38,2.14,2,3.37,3.38,4.92a26.53,26.53,0,0,1,6,10.95,21.56,21.56,0,0,1,.53,6.7,4.62,4.62,0,0,0,.72,2.94c.52,1,1.09,2,1.67,2.91,4.22,6.94,10.07,13.86,9.79,22.45-.14,4.5-2,9.33-4.14,13.24a27.5,27.5,0,0,1-9.65,10.24,1.52,1.52,0,0,0,0,2.59c2.08,1.51,6.13,1.73,7-1.34a2.19,2.19,0,0,0-1.65-2.78c-1.82-.43-3.86.69-5.38,1.53a1.51,1.51,0,0,0-.31,2.35,26.18,26.18,0,0,1,8.3,11.26c.83,2.13,1.42,4.24,2.83,6.08a15.18,15.18,0,0,0,4.46,3.82,42.8,42.8,0,0,0,5.55,2.54c2.35.94,4.68,1.93,7,2.92q8.13,3.45,16.36,6.69,9.29,3.66,18.69,7.05c1.81.65,2.6-2.24.79-2.9q-16.38-5.91-32.44-12.63c-2.46-1-4.89-2.11-7.36-3.12-1.89-.77-3.81-1.47-5.65-2.37a14.88,14.88,0,0,1-4.65-3.32c-1.43-1.61-1.94-3.59-2.71-5.55a28.93,28.93,0,0,0-9.07-12.59l-.3,2.36a9.29,9.29,0,0,1,3-1.2c.32,0,.22,0,.24,0-.06-.12-.38-.22-.48-.38a1,1,0,0,1-.09-.69c0,.29-.05,0,0,0s-.17.16-.16.16a.93.93,0,0,1-.52.21,3.18,3.18,0,0,1-2-.73v2.59c7.7-4.77,12.3-12.5,14.52-21.13a22.47,22.47,0,0,0-.61-13.33,57.19,57.19,0,0,0-6.23-11.48c-1.22-1.88-2.44-3.75-3.55-5.7-.28-.48-.55-1-.81-1.46a1.47,1.47,0,0,1-.23-1.07,33.69,33.69,0,0,0,0-3.76,26.06,26.06,0,0,0-4.51-12.47,40.06,40.06,0,0,0-4.33-5.3,3.39,3.39,0,0,1-1.19-2.28,3.89,3.89,0,0,1,.87-2.83c.95-1.47,2.34-3,2.28-4.84a12.73,12.73,0,0,0-.55-2.41,34.1,34.1,0,0,0-1-3.27,32.6,32.6,0,0,0-20-20.17l.35,2.75c-.08.05.38-.13.27-.11a3.69,3.69,0,0,1,.94,0,8.2,8.2,0,0,1,1.61.42c.12.05-.25,0,.05,0s0,.13.08,0,.07-2.62.7-2.42c-.11,0-.27,0-.38,0-1.22-.17-2.42-.42-3.62-.71l.35,2.75c2.75-1.52,6.53-3.94,6.61-7.49a8.86,8.86,0,0,0-1.38-4.13,10.88,10.88,0,0,0-2.89-3.3c-5.13-4-13.4-4.56-16.13-11.2-1.32-3.23.32-7.93,4.29-7.76a1.51,1.51,0,0,0,1.06-2.56c-1.07-1.1-3.77-2.81-4.75-.6s2.2,3,3.69,3.16a1.51,1.51,0,0,0,1.45-1.9c-.61-1.92-2.13-6.12.27-7.48a14.25,14.25,0,0,1,2.16-.79c.82-.31,1.65-.6,2.5-.84a7.33,7.33,0,0,1,4.89,0q11.39,4.28,22.69,8.76,22.65,9,45,18.66,12.68,5.49,25.26,11.18l-.74-1.3c-3.9,29.52-10.84,58.51-17,87.61-1.75,8.31-3.43,16.64-5,25a1.57,1.57,0,0,0,.69,1.7c15.92,7.94,32.38,14.72,48.6,22,1.75.78,3.27-1.8,1.51-2.59Z"/><path class="cls-13" d="M1376.63,319.65a143.73,143.73,0,0,0-30.52-1.66c-4.69.25-9.3.71-13.5,3a61,61,0,0,0-11,8.19,95.05,95.05,0,0,0-10.87,11.38c-1.2,1.49.91,3.62,2.13,2.12a84.87,84.87,0,0,1,19.22-17.89A20.79,20.79,0,0,1,1338,322a34.64,34.64,0,0,1,6.87-.94,141,141,0,0,1,14.39-.17,139.27,139.27,0,0,1,16.55,1.65c1.89.31,2.71-2.59.8-2.89Z"/><path class="cls-13" d="M1385.54,318.26c8.21,26.87-.4,56.59-17.53,78.11a98.85,98.85,0,0,1-15.68,15.73c-1.51,1.2.62,3.31,2.12,2.12,21.89-17.49,36.56-44.63,37.18-72.84a76.43,76.43,0,0,0-3.2-23.91c-.56-1.85-3.46-1.06-2.89.79Z"/><path class="cls-13" d="M1465.22,461.85a155.61,155.61,0,0,1-11,44.75c-.74,1.78,2.16,2.56,2.89.8a157.74,157.74,0,0,0,11.11-45.55c.18-1.92-2.82-1.91-3,0Z"/><path class="cls-13" d="M1347.85,404a145.78,145.78,0,0,1-34.79-50.16,83.41,83.41,0,0,1-3-8.08c-.82-2.76-1.35-5.83.08-8.49.55-1-.4-2.74-1.7-2.2-6.78,2.84-11.55,8.65-14.42,15.29a65.36,65.36,0,0,0-3.66,11.86c-.92,4.13-1.78,8.41-1.46,12.67.58,7.66,5.26,14.26,10.42,19.67a59.47,59.47,0,0,0,40.24,18.2c1.93.08,1.92-2.92,0-3A56.4,56.4,0,0,1,1304.08,395c-4.91-4.51-9.82-10.2-11.6-16.76-1-3.87-.68-7.91,0-11.8a86.93,86.93,0,0,1,2.78-11.15c2.37-7.13,6.71-14.34,13.93-17.37l-1.69-2.2c-2.7,5-.58,10.66,1.31,15.57a148.14,148.14,0,0,0,24.25,41.36,145.71,145.71,0,0,0,12.63,13.43c1.41,1.32,3.53-.79,2.12-2.12Z"/><path class="cls-13" d="M1285.08,363.56a135.45,135.45,0,0,0,1.42,62.38,145.63,145.63,0,0,0,27.58,55.18,156.92,156.92,0,0,0,45.33,38.1A173.18,173.18,0,0,0,1419,539.33c23.18,3.43,46.82,2.6,69.88-1.41,11.27-2,22.86-4.27,33.14-9.48,9.74-4.93,18.38-12.56,25.67-20.62s12.79-17.18,15.2-27.7c2.49-10.82,1.93-22.09-.09-32.93a147.49,147.49,0,0,0-23.24-56.1,115.87,115.87,0,0,0-19.26-21.8c-8.18-7.1-17.42-12.47-27.16-17.14-11.18-5.38-22.48-10.51-33.73-15.75l-17-7.9c-5.26-2.46-10.52-4.95-16-7a65,65,0,0,0-16.3-4c-1.92-.2-1.91,2.81,0,3,11.53,1.17,22.1,6.56,32.46,11.39l32.94,15.34c10.64,5,21.6,9.58,31.53,15.92a100.43,100.43,0,0,1,21.25,18.42c12.79,14.53,21.83,32.21,27.56,50.63,6.28,20.15,9.25,43.3-2,62.31-5.31,8.95-12.92,16.54-21,23.08a68.87,68.87,0,0,1-14,9,83.61,83.61,0,0,1-15.8,5.3,225.06,225.06,0,0,1-68.36,6.11,176.25,176.25,0,0,1-61.85-15.31,158.36,158.36,0,0,1-47.17-33,142.63,142.63,0,0,1-31.88-50.29,138,138,0,0,1-8.19-60.24,119.58,119.58,0,0,1,2.33-14.82c.42-1.89-2.48-2.69-2.89-.8Z"/><path class="cls-13" d="M1331.1,507.58a164.71,164.71,0,0,1,20.24,35.18,162.52,162.52,0,0,1,6.73,19.41,84.7,84.7,0,0,1,3.36,18.68c.29,6.09-.35,12.41-3,18-2.83,5.9-7.69,10.15-13.05,13.72-5.17,3.45-10.57,6.54-15.68,10.09q-7.28,5.05-14.07,10.77a175.77,175.77,0,0,0-44.29,55.76,151.25,151.25,0,0,0-12,33.18c-3.37,14.59-4.47,29.56-6.34,44.37s-5,29.59-4.54,44.58a83.83,83.83,0,0,0,10.43,38.17,82.72,82.72,0,0,0,5.3,8.3c1.12,1.55,3.72,0,2.59-1.51a80.5,80.5,0,0,1-14.7-36.87c-1.91-15,.72-30,2.86-44.87s3.13-29.83,5.88-44.56a149.07,149.07,0,0,1,11.23-35.4,172.06,172.06,0,0,1,43.22-56.91c9.18-8,19.18-14.58,29.44-21.1,5.24-3.33,10.35-7,14-12.19a34.18,34.18,0,0,0,5.66-16.8c1.08-12.59-2.69-25.49-6.86-37.22a166.13,166.13,0,0,0-18-36q-2.77-4.2-5.81-8.22c-1.15-1.53-3.75,0-2.59,1.51Z"/><path class="cls-13" d="M1477.63,543.29c-4,9.85-4.69,20.57-4.5,31.08a286.48,286.48,0,0,0,2.28,31c2.58,20.12,7.5,40.06,16.43,58.35,4.66,9.53,10.63,18.17,16.69,26.84,6.26,9,11.94,18.1,16,28.29s7,20.89,9.84,31.51q4.31,16.26,7.55,32.77a520.94,520.94,0,0,1,8.78,67.46c.19,2.82.34,5.64.48,8.47.09,1.92,3.1,1.93,3,0a531,531,0,0,0-7.52-66.9c-3.9-21.94-8.92-43.93-16-65.09a129.21,129.21,0,0,0-13.43-28.93c-5.78-9-12.47-17.5-17.91-26.77C1489,653.76,1483,634,1479.68,614a273.42,273.42,0,0,1-3.22-30.88c-.54-10.48-.84-21.21,1.65-31.48a55.29,55.29,0,0,1,2.41-7.52c.72-1.8-2.18-2.57-2.89-.8Z"/></svg>