<svg id="Layer_1" data-name="Layer 1" xmlns="http://www.w3.org/2000/svg" viewBox="0 0 1920 1080"><defs><style>.cls-1{fill:#e03838;}.cls-1,.cls-2{opacity:0.5;}.cls-2{fill:#ffff1a;}.cls-3{fill:#4d4d4d;}</style></defs><title>22</title><path class="cls-1" d="M1230,981s-198-295-176-288.47,219,46.65,219,46.65L1091,620.25l214,23L1251,408l217,251.67,140-178.73-54,301.61,47-43.37L1491,981Z"/><path class="cls-2" d="M174.63,403.15c51.4-69.42,262.87-310,420.06-223.73S866.64,311.5,862.3,459.14s-29.67,285-177.63,353.49-228.57,95-305.48,62.28-297-132-272.88-236.48S174.63,403.15,174.63,403.15Z"/><path d="M266.62,90a2.61,2.61,0,0,1-.78-1.92V53.73H253.6a2.46,2.46,0,0,1-2.52-2.52,2.54,2.54,0,0,1,.72-1.83,2.39,2.39,0,0,1,1.8-.75h29.88a2.56,2.56,0,0,1,2.58,2.58,2.39,2.39,0,0,1-.75,1.8,2.54,2.54,0,0,1-1.83.72H271.3V88.11a2.56,2.56,0,0,1-.81,1.92,2.71,2.71,0,0,1-1.95.78A2.61,2.61,0,0,1,266.62,90Z"/><path d="M292,90a2.61,2.61,0,0,1-.78-1.92V49.17a2.71,2.71,0,0,1,.78-2,2.56,2.56,0,0,1,1.92-.81,2.77,2.77,0,0,1,2.76,2.76V64.83a19.94,19.94,0,0,1,4.92-4,12.42,12.42,0,0,1,6.24-1.5,10.37,10.37,0,0,1,5.73,1.56,10.14,10.14,0,0,1,3.72,4.26,13.6,13.6,0,0,1,1.29,5.94v17a2.56,2.56,0,0,1-.81,1.92,2.71,2.71,0,0,1-1.95.78,2.66,2.66,0,0,1-2.7-2.7V71.67q0-7.32-6.6-7.32a9.55,9.55,0,0,0-5.37,1.56,19.44,19.44,0,0,0-4.47,4.2v18a2.56,2.56,0,0,1-.81,1.92,2.71,2.71,0,0,1-1.95.78A2.61,2.61,0,0,1,292,90Z"/><path d="M330,86.94q-4.11-4.17-4.11-11.73a19.56,19.56,0,0,1,1.56-7.86,13.36,13.36,0,0,1,4.8-5.82,13.79,13.79,0,0,1,8-2.22,14,14,0,0,1,7.68,2.07,13.39,13.39,0,0,1,4.92,5.52,17,17,0,0,1,1.68,7.53,2.62,2.62,0,0,1-2.76,2.7H331.42a9.87,9.87,0,0,0,3.12,6.54Q337.18,86,341.92,86a18,18,0,0,0,4.41-.48A18.32,18.32,0,0,0,350,84.15a2.38,2.38,0,0,1,1.08-.24,2.41,2.41,0,0,1,1.68.66,2.18,2.18,0,0,1,.72,1.68,2.59,2.59,0,0,1-1.56,2.22,18.74,18.74,0,0,1-10.5,2.64Q334.12,91.11,330,86.94Zm19.11-14.25a9.61,9.61,0,0,0-1.53-4.92,8.26,8.26,0,0,0-3.33-2.91,9.15,9.15,0,0,0-8,0,8.06,8.06,0,0,0-3.3,2.91,9.79,9.79,0,0,0-1.5,4.92Z"/><path d="M362.5,90a2.61,2.61,0,0,1-.78-1.92V62.37a2.71,2.71,0,0,1,.78-1.95,2.56,2.56,0,0,1,1.92-.81,2.77,2.77,0,0,1,2.76,2.76V65q4.2-5.64,9.42-5.64h.3a2.51,2.51,0,0,1,1.89.78,2.66,2.66,0,0,1,.75,1.92,2.42,2.42,0,0,1-.78,1.86,2.81,2.81,0,0,1-2,.72h-.3A10.23,10.23,0,0,0,371.2,66a12.16,12.16,0,0,0-4,3.87V88.11a2.56,2.56,0,0,1-.81,1.92,2.71,2.71,0,0,1-1.95.78A2.61,2.61,0,0,1,362.5,90Z"/><path d="M386.05,86.94q-4.11-4.17-4.11-11.73a19.56,19.56,0,0,1,1.56-7.86,13.36,13.36,0,0,1,4.8-5.82,13.79,13.79,0,0,1,8-2.22A14,14,0,0,1,404,61.38a13.39,13.39,0,0,1,4.92,5.52,17,17,0,0,1,1.68,7.53,2.62,2.62,0,0,1-2.76,2.7H387.46a9.82,9.82,0,0,0,3.12,6.54Q393.22,86,398,86a18,18,0,0,0,4.41-.48,18.32,18.32,0,0,0,3.69-1.38,2.38,2.38,0,0,1,1.08-.24,2.43,2.43,0,0,1,1.68.66,2.18,2.18,0,0,1,.72,1.68A2.59,2.59,0,0,1,408,88.47a18.74,18.74,0,0,1-10.5,2.64Q390.16,91.11,386.05,86.94Zm19.11-14.25a9.61,9.61,0,0,0-1.53-4.92,8.26,8.26,0,0,0-3.33-2.91,9.15,9.15,0,0,0-8,0,8,8,0,0,0-3.3,2.91,9.79,9.79,0,0,0-1.5,4.92Z"/><path d="M416.59,61.35a1.78,1.78,0,0,1-.51-1.26,1.67,1.67,0,0,1,.9-1.5,6.85,6.85,0,0,0,2.28-2.1A6.41,6.41,0,0,0,420,53h-.24a3.38,3.38,0,0,1-3.36-3.36v-.36a3.38,3.38,0,0,1,3.36-3.36h.6a3.38,3.38,0,0,1,3.36,3.36v3.54a9.65,9.65,0,0,1-4.92,8.76,1.89,1.89,0,0,1-1,.3A1.63,1.63,0,0,1,416.59,61.35Z"/><path d="M429.34,88.41a2.29,2.29,0,0,1-1-2,2.41,2.41,0,0,1,.66-1.68,2.18,2.18,0,0,1,1.68-.72,2.64,2.64,0,0,1,1.08.24,23.91,23.91,0,0,0,3.84,1.32,17.85,17.85,0,0,0,4.32.48q6.66,0,6.66-4.26a2.27,2.27,0,0,0-1.53-2.1,31.68,31.68,0,0,0-5-1.62,45.27,45.27,0,0,1-5.85-1.74,10.29,10.29,0,0,1-4-2.73,6.89,6.89,0,0,1-1.65-4.83,8.65,8.65,0,0,1,3-6.84c2-1.76,4.91-2.64,8.67-2.64a25.05,25.05,0,0,1,8.7,1.5,2.25,2.25,0,0,1,1.29.9,2.41,2.41,0,0,1,.45,1.38,2.35,2.35,0,0,1-.69,1.68,2.27,2.27,0,0,1-1.71.72,3.37,3.37,0,0,1-.78-.12,23,23,0,0,0-6.84-1.08,9.37,9.37,0,0,0-5.07,1.17,3.49,3.49,0,0,0-1.83,3,2.77,2.77,0,0,0,1.68,2.64,23.8,23.8,0,0,0,5.22,1.62,50,50,0,0,1,5.76,1.77,9.52,9.52,0,0,1,3.81,2.73,7.41,7.41,0,0,1,1.59,5,7.93,7.93,0,0,1-3,6.36q-3,2.52-8.55,2.52A22.32,22.32,0,0,1,429.34,88.41Z"/><path d="M473.74,88.41a2.27,2.27,0,0,1-1-2,2.36,2.36,0,0,1,.66-1.68,2.15,2.15,0,0,1,1.68-.72,2.68,2.68,0,0,1,1.08.24A23.91,23.91,0,0,0,480,85.59a17.7,17.7,0,0,0,4.31.48q6.68,0,6.67-4.26a2.27,2.27,0,0,0-1.53-2.1,31.68,31.68,0,0,0-5-1.62,45,45,0,0,1-5.86-1.74,10.29,10.29,0,0,1-4-2.73A6.93,6.93,0,0,1,473,68.79,8.62,8.62,0,0,1,476,62c2-1.76,4.91-2.64,8.67-2.64a25,25,0,0,1,8.69,1.5,2.24,2.24,0,0,1,1.3.9,2.37,2.37,0,0,1-.24,3.06,2.29,2.29,0,0,1-1.71.72,3.23,3.23,0,0,1-.78-.12,23.1,23.1,0,0,0-6.84-1.08A9.35,9.35,0,0,0,480,65.46a3.47,3.47,0,0,0-1.83,3,2.77,2.77,0,0,0,1.67,2.64,23.93,23.93,0,0,0,5.23,1.62,49.8,49.8,0,0,1,5.75,1.77,9.62,9.62,0,0,1,3.82,2.73,7.46,7.46,0,0,1,1.59,5,8,8,0,0,1-3,6.36c-2,1.68-4.88,2.52-8.55,2.52A22.26,22.26,0,0,1,473.74,88.41Z"/><path d="M509,89.13a13.42,13.42,0,0,1-5.38-5.61,19.21,19.21,0,0,1,0-16.62A13.42,13.42,0,0,1,509,61.29a17.42,17.42,0,0,1,16.13,0,13.73,13.73,0,0,1,5.41,5.61,18.94,18.94,0,0,1,0,16.62,13.73,13.73,0,0,1-5.41,5.61,17.42,17.42,0,0,1-16.13,0ZM521.77,85a9.14,9.14,0,0,0,3.71-3.6A12,12,0,0,0,527,75.15,11.88,11.88,0,0,0,525.48,69a8.94,8.94,0,0,0-3.71-3.57,10.68,10.68,0,0,0-9.48,0,8.86,8.86,0,0,0-3.7,3.57,12.08,12.08,0,0,0-1.44,6.18,12.21,12.21,0,0,0,1.44,6.24,9.06,9.06,0,0,0,3.7,3.6,10.42,10.42,0,0,0,9.48,0Z"/><path d="M540.81,90a2.61,2.61,0,0,1-.78-1.92V62.37a2.71,2.71,0,0,1,.78-1.95,2.56,2.56,0,0,1,1.92-.81,2.77,2.77,0,0,1,2.76,2.76v2.46a15,15,0,0,1,4-4,11,11,0,0,1,6.15-1.56,9.33,9.33,0,0,1,5.76,1.8,10,10,0,0,1,3.42,4.38,12.09,12.09,0,0,1,11-6.18A9.11,9.11,0,0,1,581.52,61a10,10,0,0,1,3.33,4.32,14.44,14.44,0,0,1,1.08,5.52V88.11a2.56,2.56,0,0,1-.81,1.92,2.71,2.71,0,0,1-2,.78,2.66,2.66,0,0,1-2.7-2.7V71.91q0-3.9-1.38-5.73t-4.74-1.83a7.92,7.92,0,0,0-5.07,1.59,15.38,15.38,0,0,0-3.57,4.17v18A2.56,2.56,0,0,1,564.9,90a2.71,2.71,0,0,1-1.95.78,2.66,2.66,0,0,1-2.7-2.7V71.91q0-3.9-1.38-5.73t-4.74-1.83a7.92,7.92,0,0,0-5.07,1.59,15.38,15.38,0,0,0-3.57,4.17v18a2.56,2.56,0,0,1-.81,1.92,2.71,2.71,0,0,1-1.95.78A2.61,2.61,0,0,1,540.81,90Z"/><path d="M597.36,86.94q-4.11-4.17-4.11-11.73a19.56,19.56,0,0,1,1.56-7.86,13.36,13.36,0,0,1,4.8-5.82,13.79,13.79,0,0,1,8-2.22,14,14,0,0,1,7.68,2.07,13.39,13.39,0,0,1,4.92,5.52,17,17,0,0,1,1.68,7.53,2.62,2.62,0,0,1-2.76,2.7H598.77a9.87,9.87,0,0,0,3.12,6.54Q604.53,86,609.27,86a18,18,0,0,0,4.41-.48,18.32,18.32,0,0,0,3.69-1.38,2.38,2.38,0,0,1,1.08-.24,2.41,2.41,0,0,1,1.68.66,2.18,2.18,0,0,1,.72,1.68,2.59,2.59,0,0,1-1.56,2.22,18.74,18.74,0,0,1-10.5,2.64Q601.47,91.11,597.36,86.94Zm19.11-14.25a9.61,9.61,0,0,0-1.53-4.92,8.26,8.26,0,0,0-3.33-2.91,9.15,9.15,0,0,0-8,0,8.06,8.06,0,0,0-3.3,2.91,9.79,9.79,0,0,0-1.5,4.92Z"/><path d="M645.45,103.8a2.71,2.71,0,0,1-.78-2V62.31a2.66,2.66,0,0,1,2.7-2.7,2.71,2.71,0,0,1,2,.78,2.56,2.56,0,0,1,.81,1.92v1.56a13.79,13.79,0,0,1,10.26-4.56,14.07,14.07,0,0,1,7.05,1.89,14.34,14.34,0,0,1,5.4,5.52,16.85,16.85,0,0,1,2.07,8.49,16.85,16.85,0,0,1-2.07,8.49,14.34,14.34,0,0,1-5.4,5.52,14.07,14.07,0,0,1-7.05,1.89,13.79,13.79,0,0,1-10.26-4.56v15.3a2.67,2.67,0,0,1-2.76,2.76A2.56,2.56,0,0,1,645.45,103.8Zm21.3-20.61q2.7-2.82,2.7-8t-2.7-8a9.43,9.43,0,0,0-7.14-2.82,11.33,11.33,0,0,0-5.19,1.23,14.82,14.82,0,0,0-4.29,3.27v12.6a14.82,14.82,0,0,0,4.29,3.27A11.33,11.33,0,0,0,659.61,86,9.43,9.43,0,0,0,666.75,83.19Z"/><path d="M684.78,86.94q-4.11-4.17-4.11-11.73a19.56,19.56,0,0,1,1.56-7.86,13.36,13.36,0,0,1,4.8-5.82,13.79,13.79,0,0,1,8-2.22,14,14,0,0,1,7.68,2.07,13.39,13.39,0,0,1,4.92,5.52,17,17,0,0,1,1.68,7.53,2.62,2.62,0,0,1-2.76,2.7H686.19a9.87,9.87,0,0,0,3.12,6.54Q692,86,696.69,86a18,18,0,0,0,4.41-.48,18.32,18.32,0,0,0,3.69-1.38,2.38,2.38,0,0,1,1.08-.24,2.41,2.41,0,0,1,1.68.66,2.18,2.18,0,0,1,.72,1.68,2.59,2.59,0,0,1-1.56,2.22,18.74,18.74,0,0,1-10.5,2.64Q688.89,91.11,684.78,86.94Zm19.11-14.25a9.61,9.61,0,0,0-1.53-4.92A8.26,8.26,0,0,0,699,64.86a9.15,9.15,0,0,0-8,0,8.06,8.06,0,0,0-3.3,2.91,9.79,9.79,0,0,0-1.5,4.92Z"/><path d="M719.4,90a8.52,8.52,0,0,1-3.57-3.15,8.68,8.68,0,0,1-1.32-4.77A8.41,8.41,0,0,1,718,75q3.51-2.64,10.29-2.64h7.26v-.48q0-4-2-5.7t-6.09-1.74a20.45,20.45,0,0,0-4,.36,34,34,0,0,0-3.93,1.08,3.37,3.37,0,0,1-.78.12,2.13,2.13,0,0,1-1.56-.66,2.2,2.2,0,0,1-.66-1.62,2.31,2.31,0,0,1,1.56-2.28,26.39,26.39,0,0,1,10.38-2.16,13.55,13.55,0,0,1,7,1.68,10.56,10.56,0,0,1,4.2,4.35A12.65,12.65,0,0,1,741,71.13v17a2.56,2.56,0,0,1-.81,1.92,2.71,2.71,0,0,1-2,.78,2.66,2.66,0,0,1-2.7-2.7V86.55a15.07,15.07,0,0,1-11.28,4.56A11.15,11.15,0,0,1,719.4,90Zm12-5a14.18,14.18,0,0,0,4.14-3.21v-5H729q-9.06,0-9.06,4.74A4.45,4.45,0,0,0,721.44,85q1.47,1.32,4.89,1.32A10.85,10.85,0,0,0,731.43,85Z"/><path d="M751,90a2.61,2.61,0,0,1-.78-1.92V62.37a2.71,2.71,0,0,1,.78-1.95,2.56,2.56,0,0,1,1.92-.81,2.77,2.77,0,0,1,2.76,2.76V65q4.2-5.64,9.42-5.64h.3a2.51,2.51,0,0,1,1.89.78A2.66,2.66,0,0,1,768,62a2.42,2.42,0,0,1-.78,1.86,2.81,2.81,0,0,1-2,.72H765A10.23,10.23,0,0,0,759.69,66a12.16,12.16,0,0,0-4,3.87V88.11a2.56,2.56,0,0,1-.81,1.92,2.71,2.71,0,0,1-2,.78A2.61,2.61,0,0,1,751,90Z"/><path d="M772.17,88.41a2.29,2.29,0,0,1-1-2,2.41,2.41,0,0,1,.66-1.68,2.18,2.18,0,0,1,1.68-.72,2.64,2.64,0,0,1,1.08.24,24.25,24.25,0,0,0,3.84,1.32,17.85,17.85,0,0,0,4.32.48q6.66,0,6.66-4.26a2.27,2.27,0,0,0-1.53-2.1,31.33,31.33,0,0,0-5-1.62A45.27,45.27,0,0,1,777,76.35a10.29,10.29,0,0,1-4-2.73,6.94,6.94,0,0,1-1.65-4.83,8.65,8.65,0,0,1,3-6.84q3-2.64,8.67-2.64a25,25,0,0,1,8.7,1.5,2.25,2.25,0,0,1,1.29.9,2.41,2.41,0,0,1,.45,1.38,2.35,2.35,0,0,1-.69,1.68,2.27,2.27,0,0,1-1.71.72,3.37,3.37,0,0,1-.78-.12,23,23,0,0,0-6.84-1.08,9.37,9.37,0,0,0-5.07,1.17,3.49,3.49,0,0,0-1.83,3,2.77,2.77,0,0,0,1.68,2.64,24,24,0,0,0,5.22,1.62,50,50,0,0,1,5.76,1.77,9.52,9.52,0,0,1,3.81,2.73,7.41,7.41,0,0,1,1.59,5,7.93,7.93,0,0,1-3,6.36q-3,2.52-8.55,2.52A22.32,22.32,0,0,1,772.17,88.41Z"/><path d="M818,52.77a3,3,0,0,1-.9-2.16v-.24a3.07,3.07,0,0,1,3.06-3.06h.36a3.07,3.07,0,0,1,3.06,3.06v.24a3.07,3.07,0,0,1-3.06,3.06h-.36A3,3,0,0,1,818,52.77ZM818.37,90a2.61,2.61,0,0,1-.78-1.92V62.37a2.71,2.71,0,0,1,.78-1.95,2.56,2.56,0,0,1,1.92-.81,2.67,2.67,0,0,1,2.76,2.76V88.11a2.56,2.56,0,0,1-.81,1.92,2.71,2.71,0,0,1-2,.78A2.61,2.61,0,0,1,818.37,90Z"/><path d="M833.31,90a2.61,2.61,0,0,1-.78-1.92V62.37a2.71,2.71,0,0,1,.78-1.95,2.56,2.56,0,0,1,1.92-.81A2.77,2.77,0,0,1,838,62.37v2.46a19.94,19.94,0,0,1,4.92-4,12.42,12.42,0,0,1,6.24-1.5,10.37,10.37,0,0,1,5.73,1.56,10.14,10.14,0,0,1,3.72,4.26,13.6,13.6,0,0,1,1.29,5.94v17a2.56,2.56,0,0,1-.81,1.92,2.71,2.71,0,0,1-2,.78,2.66,2.66,0,0,1-2.7-2.7V71.67q0-7.32-6.6-7.32a9.55,9.55,0,0,0-5.37,1.56,19.44,19.44,0,0,0-4.47,4.2v18a2.56,2.56,0,0,1-.81,1.92,2.71,2.71,0,0,1-1.95.78A2.61,2.61,0,0,1,833.31,90Z"/><path d="M886.47,83.19V64.59h-4.26a1.13,1.13,0,0,1-1.14-1.14,1.25,1.25,0,0,1,.54-1l8.16-8a1.51,1.51,0,0,1,1-.54,1.06,1.06,0,0,1,.81.36,1.2,1.2,0,0,1,.33.84v4.8h6.78a2.26,2.26,0,0,1,2.34,2.34,2.3,2.3,0,0,1-.66,1.65,2.22,2.22,0,0,1-1.68.69h-6.78V82.71q0,2.34,1.11,3a5.59,5.59,0,0,0,2.79.63,8.32,8.32,0,0,0,2.4-.36l.51-.12a3.27,3.27,0,0,1,.69-.06,2.11,2.11,0,0,1,1.5.63,2,2,0,0,1,.66,1.53,2.27,2.27,0,0,1-1.38,2.1,11.74,11.74,0,0,1-5,1.08Q886.47,91.11,886.47,83.19Z"/><path d="M908.37,90a2.61,2.61,0,0,1-.78-1.92V49.17a2.71,2.71,0,0,1,.78-2,2.56,2.56,0,0,1,1.92-.81,2.77,2.77,0,0,1,2.76,2.76V64.83a19.94,19.94,0,0,1,4.92-4,12.42,12.42,0,0,1,6.24-1.5,10.37,10.37,0,0,1,5.73,1.56,10.14,10.14,0,0,1,3.72,4.26A13.6,13.6,0,0,1,935,71.07v17a2.56,2.56,0,0,1-.81,1.92,2.71,2.71,0,0,1-1.95.78,2.66,2.66,0,0,1-2.7-2.7V71.67q0-7.32-6.6-7.32a9.55,9.55,0,0,0-5.37,1.56,19.44,19.44,0,0,0-4.47,4.2v18a2.56,2.56,0,0,1-.81,1.92,2.71,2.71,0,0,1-2,.78A2.61,2.61,0,0,1,908.37,90Z"/><path d="M947,90a8.52,8.52,0,0,1-3.57-3.15,8.68,8.68,0,0,1-1.32-4.77A8.41,8.41,0,0,1,945.66,75q3.51-2.64,10.29-2.64h7.26v-.48q0-4-2-5.7t-6.09-1.74a20.45,20.45,0,0,0-4,.36,34,34,0,0,0-3.93,1.08,3.37,3.37,0,0,1-.78.12,2.13,2.13,0,0,1-1.56-.66,2.2,2.2,0,0,1-.66-1.62,2.31,2.31,0,0,1,1.56-2.28,26.39,26.39,0,0,1,10.38-2.16,13.55,13.55,0,0,1,7,1.68,10.56,10.56,0,0,1,4.2,4.35,12.65,12.65,0,0,1,1.35,5.79v17a2.56,2.56,0,0,1-.81,1.92,2.71,2.71,0,0,1-2,.78,2.66,2.66,0,0,1-2.7-2.7V86.55a15.07,15.07,0,0,1-11.28,4.56A11.15,11.15,0,0,1,947,90Zm12-5a14.18,14.18,0,0,0,4.14-3.21v-5h-6.54q-9.06,0-9.06,4.74A4.45,4.45,0,0,0,949.08,85q1.47,1.32,4.89,1.32A10.85,10.85,0,0,0,959.07,85Z"/><path d="M978.93,83.19V64.59h-4.26a1.13,1.13,0,0,1-1.14-1.14,1.25,1.25,0,0,1,.54-1l8.16-8a1.51,1.51,0,0,1,1-.54,1.06,1.06,0,0,1,.81.36,1.2,1.2,0,0,1,.33.84v4.8h6.78a2.26,2.26,0,0,1,2.34,2.34,2.3,2.3,0,0,1-.66,1.65,2.22,2.22,0,0,1-1.68.69h-6.78V82.71q0,2.34,1.11,3a5.59,5.59,0,0,0,2.79.63,8.32,8.32,0,0,0,2.4-.36l.51-.12a3.27,3.27,0,0,1,.69-.06,2.11,2.11,0,0,1,1.5.63,2,2,0,0,1,.66,1.53,2.27,2.27,0,0,1-1.38,2.1,11.74,11.74,0,0,1-5,1.08Q978.93,91.11,978.93,83.19Z"/><path d="M1016.43,103.8a2.71,2.71,0,0,1-.78-2V62.31a2.66,2.66,0,0,1,2.7-2.7,2.71,2.71,0,0,1,1.95.78,2.56,2.56,0,0,1,.81,1.92v1.56a13.79,13.79,0,0,1,10.26-4.56,14.07,14.07,0,0,1,7.05,1.89,14.34,14.34,0,0,1,5.4,5.52,16.85,16.85,0,0,1,2.07,8.49,16.85,16.85,0,0,1-2.07,8.49,14.34,14.34,0,0,1-5.4,5.52,14.07,14.07,0,0,1-7.05,1.89,13.79,13.79,0,0,1-10.26-4.56v15.3a2.67,2.67,0,0,1-2.76,2.76A2.56,2.56,0,0,1,1016.43,103.8Zm21.3-20.61q2.7-2.82,2.7-8t-2.7-8a9.43,9.43,0,0,0-7.14-2.82,11.33,11.33,0,0,0-5.19,1.23,14.82,14.82,0,0,0-4.29,3.27v12.6a14.82,14.82,0,0,0,4.29,3.27,11.33,11.33,0,0,0,5.19,1.23A9.43,9.43,0,0,0,1037.73,83.19Z"/><path d="M1056.42,90a8.52,8.52,0,0,1-3.57-3.15,8.68,8.68,0,0,1-1.32-4.77A8.41,8.41,0,0,1,1055,75q3.51-2.64,10.29-2.64h7.26v-.48q0-4-1.95-5.7t-6.09-1.74a20.45,20.45,0,0,0-4,.36,34,34,0,0,0-3.93,1.08,3.37,3.37,0,0,1-.78.12,2.13,2.13,0,0,1-1.56-.66,2.2,2.2,0,0,1-.66-1.62,2.31,2.31,0,0,1,1.56-2.28,26.39,26.39,0,0,1,10.38-2.16,13.55,13.55,0,0,1,7,1.68,10.56,10.56,0,0,1,4.2,4.35,12.65,12.65,0,0,1,1.35,5.79v17a2.56,2.56,0,0,1-.81,1.92,2.71,2.71,0,0,1-2,.78,2.66,2.66,0,0,1-2.7-2.7V86.55a15.07,15.07,0,0,1-11.28,4.56A11.15,11.15,0,0,1,1056.42,90Zm12-5a14.18,14.18,0,0,0,4.14-3.21v-5h-6.54q-9.06,0-9.06,4.74a4.45,4.45,0,0,0,1.47,3.48q1.47,1.32,4.89,1.32A10.85,10.85,0,0,0,1068.45,85Z"/><path d="M1093.41,89.19a14.78,14.78,0,0,1-5.85-5.52,16,16,0,0,1-2.19-8.46,16,16,0,0,1,2.19-8.46,14.78,14.78,0,0,1,5.85-5.52,16.92,16.92,0,0,1,8-1.92,16.63,16.63,0,0,1,5.49.81,20.74,20.74,0,0,1,4.29,2.07,2.39,2.39,0,0,1,.51,3.75,2.11,2.11,0,0,1-1.59.75,2.74,2.74,0,0,1-1.32-.36,22.85,22.85,0,0,0-3.39-1.47,11.7,11.7,0,0,0-3.51-.45,10.88,10.88,0,0,0-8.1,3,10.65,10.65,0,0,0-2.94,7.83,10.65,10.65,0,0,0,2.94,7.83,10.88,10.88,0,0,0,8.1,3,11.7,11.7,0,0,0,3.51-.45,22.85,22.85,0,0,0,3.39-1.47,2.74,2.74,0,0,1,1.32-.36,2.11,2.11,0,0,1,1.59.75,2.39,2.39,0,0,1-.51,3.75,20.74,20.74,0,0,1-4.29,2.07,16.63,16.63,0,0,1-5.49.81A16.92,16.92,0,0,1,1093.41,89.19Z"/><path d="M1120,90a2.61,2.61,0,0,1-.78-1.92V49.17a2.71,2.71,0,0,1,.78-2,2.56,2.56,0,0,1,1.92-.81,2.77,2.77,0,0,1,2.76,2.76V73.71L1139,60.51a2.76,2.76,0,0,1,1.8-.78,2.43,2.43,0,0,1,2,.78,2.87,2.87,0,0,1,.63,1.86,2.94,2.94,0,0,1-1,2l-8.64,7.74,10.86,14.4a2.63,2.63,0,0,1,.6,1.62,2.49,2.49,0,0,1-.78,1.92,2.81,2.81,0,0,1-2,.72,2.66,2.66,0,0,1-1.2-.3,3,3,0,0,1-1-.84l-10.32-14-5.22,4.74v7.74a2.56,2.56,0,0,1-.81,1.92,2.71,2.71,0,0,1-1.95.78A2.61,2.61,0,0,1,1120,90Z"/><path d="M1152.3,89.7a3.23,3.23,0,0,1-1-2.37V87a3.38,3.38,0,0,1,3.36-3.36h.6a3.38,3.38,0,0,1,3.36,3.36v.36a3.38,3.38,0,0,1-3.36,3.36h-.6A3.23,3.23,0,0,1,1152.3,89.7Z"/><path d="M1155.62,262a2.61,2.61,0,0,1-.78-1.92V225.73H1142.6a2.46,2.46,0,0,1-2.52-2.52,2.54,2.54,0,0,1,.72-1.83,2.39,2.39,0,0,1,1.8-.75h29.88a2.56,2.56,0,0,1,2.58,2.58,2.39,2.39,0,0,1-.75,1.8,2.54,2.54,0,0,1-1.83.72H1160.3v34.38a2.56,2.56,0,0,1-.81,1.92,2.71,2.71,0,0,1-2,.78A2.61,2.61,0,0,1,1155.62,262Z"/><path d="M1181,262a2.61,2.61,0,0,1-.78-1.92V221.17a2.71,2.71,0,0,1,.78-1.95,2.56,2.56,0,0,1,1.92-.81,2.77,2.77,0,0,1,2.76,2.76v15.66a19.94,19.94,0,0,1,4.92-4,12.42,12.42,0,0,1,6.24-1.5,10.37,10.37,0,0,1,5.73,1.56,10.14,10.14,0,0,1,3.72,4.26,13.6,13.6,0,0,1,1.29,5.94v17a2.56,2.56,0,0,1-.81,1.92,2.71,2.71,0,0,1-2,.78,2.66,2.66,0,0,1-2.7-2.7V243.67q0-7.32-6.6-7.32a9.55,9.55,0,0,0-5.37,1.56,19.44,19.44,0,0,0-4.47,4.2v18a2.56,2.56,0,0,1-.81,1.92,2.71,2.71,0,0,1-1.95.78A2.61,2.61,0,0,1,1181,262Z"/><path d="M1217.18,224.77a3,3,0,0,1-.9-2.16v-.24a3.07,3.07,0,0,1,3.06-3.06h.36a3.07,3.07,0,0,1,3.06,3.06v.24a3.07,3.07,0,0,1-3.06,3.06h-.36A3,3,0,0,1,1217.18,224.77Zm.36,37.26a2.61,2.61,0,0,1-.78-1.92V234.37a2.71,2.71,0,0,1,.78-2,2.56,2.56,0,0,1,1.92-.81,2.67,2.67,0,0,1,2.76,2.76v25.74a2.56,2.56,0,0,1-.81,1.92,2.71,2.71,0,0,1-2,.78A2.61,2.61,0,0,1,1217.54,262Z"/><path d="M1230.68,260.41a2.29,2.29,0,0,1-1-2,2.41,2.41,0,0,1,.66-1.68A2.18,2.18,0,0,1,1232,256a2.64,2.64,0,0,1,1.08.24,24.25,24.25,0,0,0,3.84,1.32,17.85,17.85,0,0,0,4.32.48q6.66,0,6.66-4.26a2.27,2.27,0,0,0-1.53-2.1,31.33,31.33,0,0,0-5-1.62,45.27,45.27,0,0,1-5.85-1.74,10.29,10.29,0,0,1-4-2.73,6.94,6.94,0,0,1-1.65-4.83,8.65,8.65,0,0,1,3-6.84q3-2.64,8.67-2.64a25,25,0,0,1,8.7,1.5,2.25,2.25,0,0,1,1.29.9,2.41,2.41,0,0,1,.45,1.38,2.35,2.35,0,0,1-.69,1.68,2.27,2.27,0,0,1-1.71.72,3.37,3.37,0,0,1-.78-.12,23,23,0,0,0-6.84-1.08,9.37,9.37,0,0,0-5.07,1.17,3.49,3.49,0,0,0-1.83,3,2.77,2.77,0,0,0,1.68,2.64,24,24,0,0,0,5.22,1.62,50,50,0,0,1,5.76,1.77,9.52,9.52,0,0,1,3.81,2.73,7.41,7.41,0,0,1,1.59,5,7.93,7.93,0,0,1-3,6.36q-3,2.52-8.55,2.52A22.32,22.32,0,0,1,1230.68,260.41Z"/><path d="M1276.52,224.77a3,3,0,0,1-.9-2.16v-.24a3.07,3.07,0,0,1,3.06-3.06h.36a3.07,3.07,0,0,1,3.06,3.06v.24a3.07,3.07,0,0,1-3.06,3.06h-.36A3,3,0,0,1,1276.52,224.77Zm.36,37.26a2.57,2.57,0,0,1-.78-1.92V234.37a2.67,2.67,0,0,1,.78-2,2.56,2.56,0,0,1,1.92-.81,2.68,2.68,0,0,1,2,.78,2.72,2.72,0,0,1,.78,2v25.74a2.56,2.56,0,0,1-.81,1.92,2.73,2.73,0,0,1-2,.78A2.61,2.61,0,0,1,1276.88,262Z"/><path d="M1290,260.41a2.27,2.27,0,0,1-1-2,2.4,2.4,0,0,1,.65-1.68,2.18,2.18,0,0,1,1.68-.72,2.72,2.72,0,0,1,1.09.24,23.81,23.81,0,0,0,3.83,1.32,17.85,17.85,0,0,0,4.32.48c4.45,0,6.66-1.42,6.66-4.26a2.26,2.26,0,0,0-1.52-2.1,31.53,31.53,0,0,0-5-1.62,45.27,45.27,0,0,1-5.85-1.74,10.29,10.29,0,0,1-4-2.73,6.94,6.94,0,0,1-1.65-4.83,8.63,8.63,0,0,1,3-6.84q3-2.64,8.67-2.64a25,25,0,0,1,8.69,1.5,2.25,2.25,0,0,1,1.29.9,2.35,2.35,0,0,1,.46,1.38,2.39,2.39,0,0,1-.69,1.68,2.3,2.3,0,0,1-1.71.72,3.37,3.37,0,0,1-.79-.12,23,23,0,0,0-6.84-1.08,9.31,9.31,0,0,0-5.06,1.17,3.47,3.47,0,0,0-1.83,3,2.77,2.77,0,0,0,1.67,2.64,24,24,0,0,0,5.22,1.62,50,50,0,0,1,5.76,1.77,9.52,9.52,0,0,1,3.81,2.73,7.41,7.41,0,0,1,1.6,5,7.93,7.93,0,0,1-3,6.36q-3,2.52-8.54,2.52A22.26,22.26,0,0,1,1290,260.41Z"/><path d="M1336.21,262a2.61,2.61,0,0,1-.78-1.92V234.37a2.71,2.71,0,0,1,.78-2,2.56,2.56,0,0,1,1.92-.81,2.77,2.77,0,0,1,2.76,2.76v2.46a19.94,19.94,0,0,1,4.92-4,12.42,12.42,0,0,1,6.24-1.5,10.37,10.37,0,0,1,5.73,1.56,10.14,10.14,0,0,1,3.72,4.26,13.6,13.6,0,0,1,1.29,5.94v17A2.56,2.56,0,0,1,1362,262a2.71,2.71,0,0,1-2,.78,2.66,2.66,0,0,1-2.7-2.7V243.67q0-7.32-6.6-7.32a9.55,9.55,0,0,0-5.37,1.56,19.44,19.44,0,0,0-4.47,4.2v18a2.56,2.56,0,0,1-.81,1.92,2.71,2.71,0,0,1-1.95.78A2.61,2.61,0,0,1,1336.21,262Z"/><path d="M1377.37,261.13a13.46,13.46,0,0,1-5.37-5.61,19.21,19.21,0,0,1,0-16.62,13.46,13.46,0,0,1,5.37-5.61,17.44,17.44,0,0,1,16.14,0,13.65,13.65,0,0,1,5.4,5.61,18.94,18.94,0,0,1,0,16.62,13.65,13.65,0,0,1-5.4,5.61,17.44,17.44,0,0,1-16.14,0Zm12.81-4.14a9.16,9.16,0,0,0,3.72-3.6,12,12,0,0,0,1.47-6.24,11.88,11.88,0,0,0-1.47-6.18,9,9,0,0,0-3.72-3.57,10.52,10.52,0,0,0-4.71-1.11,10.64,10.64,0,0,0-4.77,1.11A8.78,8.78,0,0,0,1377,241a12.08,12.08,0,0,0-1.44,6.18,12.21,12.21,0,0,0,1.44,6.24,9,9,0,0,0,3.69,3.6,10.41,10.41,0,0,0,4.77,1.14A10.29,10.29,0,0,0,1390.18,257Z"/><path d="M1425.85,255.19v-18.6h-4.26a1.13,1.13,0,0,1-1.14-1.14,1.25,1.25,0,0,1,.54-1l8.16-8a1.51,1.51,0,0,1,1-.54,1.06,1.06,0,0,1,.81.36,1.2,1.2,0,0,1,.33.84v4.8h6.78a2.26,2.26,0,0,1,2.34,2.34,2.3,2.3,0,0,1-.66,1.65,2.22,2.22,0,0,1-1.68.69h-6.78v18.12q0,2.34,1.11,3a5.59,5.59,0,0,0,2.79.63,8.32,8.32,0,0,0,2.4-.36l.51-.12a3.27,3.27,0,0,1,.69-.06,2.11,2.11,0,0,1,1.5.63,2,2,0,0,1,.66,1.53,2.27,2.27,0,0,1-1.38,2.1,11.74,11.74,0,0,1-5,1.08Q1425.85,263.11,1425.85,255.19Z"/><path d="M1447.39,224.77a3,3,0,0,1-.9-2.16v-.24a3.07,3.07,0,0,1,3.06-3.06h.36a3.07,3.07,0,0,1,3.06,3.06v.24a3.07,3.07,0,0,1-3.06,3.06h-.36A3,3,0,0,1,1447.39,224.77Zm.36,37.26a2.61,2.61,0,0,1-.78-1.92V234.37a2.71,2.71,0,0,1,.78-2,2.56,2.56,0,0,1,1.92-.81,2.67,2.67,0,0,1,2.76,2.76v25.74a2.56,2.56,0,0,1-.81,1.92,2.71,2.71,0,0,1-1.95.78A2.61,2.61,0,0,1,1447.75,262Z"/><path d="M1462.69,262a2.61,2.61,0,0,1-.78-1.92V234.37a2.71,2.71,0,0,1,.78-2,2.56,2.56,0,0,1,1.92-.81,2.77,2.77,0,0,1,2.76,2.76v2.46a15,15,0,0,1,4.05-4,11,11,0,0,1,6.15-1.56,9.33,9.33,0,0,1,5.76,1.8,10,10,0,0,1,3.42,4.38,12.09,12.09,0,0,1,11-6.18,9.11,9.11,0,0,1,5.61,1.68,10,10,0,0,1,3.33,4.32,14.44,14.44,0,0,1,1.08,5.52v17.28A2.56,2.56,0,0,1,1507,262a2.71,2.71,0,0,1-2,.78,2.66,2.66,0,0,1-2.7-2.7v-16.2q0-3.9-1.38-5.73t-4.74-1.83a7.92,7.92,0,0,0-5.07,1.59,15.38,15.38,0,0,0-3.57,4.17v18a2.56,2.56,0,0,1-.81,1.92,2.71,2.71,0,0,1-2,.78,2.66,2.66,0,0,1-2.7-2.7v-16.2q0-3.9-1.38-5.73t-4.74-1.83a7.92,7.92,0,0,0-5.07,1.59,15.38,15.38,0,0,0-3.57,4.17v18a2.56,2.56,0,0,1-.81,1.92,2.71,2.71,0,0,1-2,.78A2.61,2.61,0,0,1,1462.69,262Z"/><path d="M1519.24,258.94q-4.11-4.17-4.11-11.73a19.56,19.56,0,0,1,1.56-7.86,13.36,13.36,0,0,1,4.8-5.82,13.79,13.79,0,0,1,8-2.22,14,14,0,0,1,7.68,2.07,13.39,13.39,0,0,1,4.92,5.52,17,17,0,0,1,1.68,7.53,2.62,2.62,0,0,1-2.76,2.7h-20.34a9.87,9.87,0,0,0,3.12,6.54q2.64,2.34,7.38,2.34a18,18,0,0,0,4.41-.48,18.32,18.32,0,0,0,3.69-1.38,2.38,2.38,0,0,1,1.08-.24,2.41,2.41,0,0,1,1.68.66,2.18,2.18,0,0,1,.72,1.68,2.59,2.59,0,0,1-1.56,2.22,18.74,18.74,0,0,1-10.5,2.64Q1523.35,263.11,1519.24,258.94Zm19.11-14.25a9.61,9.61,0,0,0-1.53-4.92,8.26,8.26,0,0,0-3.33-2.91,9.15,9.15,0,0,0-8,0,8.06,8.06,0,0,0-3.3,2.91,9.79,9.79,0,0,0-1.5,4.92Z"/><path d="M1569.61,262a2.61,2.61,0,0,1-.78-1.92V236.59h-3.54a2.36,2.36,0,0,1-2.34-2.34,2.22,2.22,0,0,1,.69-1.68,2.3,2.3,0,0,1,1.65-.66h3.54v-3.48a12,12,0,0,1,1.29-5.91,8,8,0,0,1,3.36-3.36,9.49,9.49,0,0,1,4.35-1,11.51,11.51,0,0,1,5.22,1.2,2.59,2.59,0,0,1,1,.87,2.14,2.14,0,0,1,.39,1.23,2.23,2.23,0,0,1-.66,1.59,2.09,2.09,0,0,1-1.56.69,5.69,5.69,0,0,1-1.38-.18q-1.44-.18-1.62-.18a5.26,5.26,0,0,0-3.69,1.14q-1.23,1.14-1.23,4.14v3.3h7.5a2.26,2.26,0,0,1,2.34,2.34,2.3,2.3,0,0,1-.66,1.65,2.22,2.22,0,0,1-1.68.69h-7.5v23.52a2.56,2.56,0,0,1-.81,1.92,2.71,2.71,0,0,1-2,.78A2.61,2.61,0,0,1,1569.61,262Z"/><path d="M1593.13,261.13a13.46,13.46,0,0,1-5.37-5.61,19.21,19.21,0,0,1,0-16.62,13.46,13.46,0,0,1,5.37-5.61,17.44,17.44,0,0,1,16.14,0,13.65,13.65,0,0,1,5.4,5.61,18.94,18.94,0,0,1,0,16.62,13.65,13.65,0,0,1-5.4,5.61,17.44,17.44,0,0,1-16.14,0Zm12.81-4.14a9.16,9.16,0,0,0,3.72-3.6,12,12,0,0,0,1.47-6.24,11.88,11.88,0,0,0-1.47-6.18,9,9,0,0,0-3.72-3.57,10.52,10.52,0,0,0-4.71-1.11,10.64,10.64,0,0,0-4.77,1.11,8.78,8.78,0,0,0-3.69,3.57,12.08,12.08,0,0,0-1.44,6.18,12.21,12.21,0,0,0,1.44,6.24,9,9,0,0,0,3.69,3.6,10.41,10.41,0,0,0,4.77,1.14A10.29,10.29,0,0,0,1605.94,257Z"/><path d="M1625,262a2.61,2.61,0,0,1-.78-1.92V234.37a2.71,2.71,0,0,1,.78-2,2.56,2.56,0,0,1,1.92-.81,2.77,2.77,0,0,1,2.76,2.76V237q4.2-5.64,9.42-5.64h.3a2.51,2.51,0,0,1,1.89.78A2.66,2.66,0,0,1,1642,234a2.42,2.42,0,0,1-.78,1.86,2.81,2.81,0,0,1-2,.72h-.3a10.23,10.23,0,0,0-5.28,1.41,12.16,12.16,0,0,0-4,3.87v18.24a2.56,2.56,0,0,1-.81,1.92,2.71,2.71,0,0,1-1.95.78A2.61,2.61,0,0,1,1625,262Z"/><path d="M1665.7,262a8.52,8.52,0,0,1-3.57-3.15,8.68,8.68,0,0,1-1.32-4.77,8.41,8.41,0,0,1,3.51-7.08q3.51-2.64,10.29-2.64h7.26v-.48q0-4-1.95-5.7t-6.09-1.74a20.45,20.45,0,0,0-4,.36,34,34,0,0,0-3.93,1.08,3.37,3.37,0,0,1-.78.12,2.13,2.13,0,0,1-1.56-.66,2.2,2.2,0,0,1-.66-1.62,2.31,2.31,0,0,1,1.56-2.28,26.39,26.39,0,0,1,10.38-2.16,13.55,13.55,0,0,1,7,1.68,10.56,10.56,0,0,1,4.2,4.35,12.65,12.65,0,0,1,1.35,5.79v17a2.56,2.56,0,0,1-.81,1.92,2.71,2.71,0,0,1-2,.78,2.66,2.66,0,0,1-2.7-2.7v-1.56a15.07,15.07,0,0,1-11.28,4.56A11.15,11.15,0,0,1,1665.7,262Zm12-5a14.18,14.18,0,0,0,4.14-3.21v-5h-6.54q-9.06,0-9.06,4.74a4.45,4.45,0,0,0,1.47,3.48q1.47,1.32,4.89,1.32A10.85,10.85,0,0,0,1677.73,257Z"/><path d="M1711.09,260.41a2.29,2.29,0,0,1-1-2,2.41,2.41,0,0,1,.66-1.68,2.18,2.18,0,0,1,1.68-.72,2.64,2.64,0,0,1,1.08.24,24.25,24.25,0,0,0,3.84,1.32,17.85,17.85,0,0,0,4.32.48q6.66,0,6.66-4.26a2.27,2.27,0,0,0-1.53-2.1,31.33,31.33,0,0,0-5-1.62,45.27,45.27,0,0,1-5.85-1.74,10.29,10.29,0,0,1-4-2.73,6.94,6.94,0,0,1-1.65-4.83,8.65,8.65,0,0,1,3-6.84q3-2.64,8.67-2.64a25,25,0,0,1,8.7,1.5,2.25,2.25,0,0,1,1.29.9,2.41,2.41,0,0,1,.45,1.38,2.35,2.35,0,0,1-.69,1.68,2.27,2.27,0,0,1-1.71.72,3.37,3.37,0,0,1-.78-.12,23,23,0,0,0-6.84-1.08,9.37,9.37,0,0,0-5.07,1.17,3.49,3.49,0,0,0-1.83,3,2.77,2.77,0,0,0,1.68,2.64,24,24,0,0,0,5.22,1.62,50,50,0,0,1,5.76,1.77,9.52,9.52,0,0,1,3.81,2.73,7.41,7.41,0,0,1,1.59,5,7.93,7.93,0,0,1-3,6.36q-3,2.52-8.55,2.52A22.32,22.32,0,0,1,1711.09,260.41Z"/><path d="M1741.69,262a2.61,2.61,0,0,1-.78-1.92V234.37a2.71,2.71,0,0,1,.78-2,2.56,2.56,0,0,1,1.92-.81,2.77,2.77,0,0,1,2.76,2.76v2.46a19.94,19.94,0,0,1,4.92-4,12.42,12.42,0,0,1,6.24-1.5,10.37,10.37,0,0,1,5.73,1.56,10.14,10.14,0,0,1,3.72,4.26,13.6,13.6,0,0,1,1.29,5.94v17a2.56,2.56,0,0,1-.81,1.92,2.71,2.71,0,0,1-2,.78,2.66,2.66,0,0,1-2.7-2.7V243.67q0-7.32-6.6-7.32a9.55,9.55,0,0,0-5.37,1.56,19.44,19.44,0,0,0-4.47,4.2v18a2.56,2.56,0,0,1-.81,1.92,2.71,2.71,0,0,1-2,.78A2.61,2.61,0,0,1,1741.69,262Z"/><path d="M1780.36,262a8.52,8.52,0,0,1-3.57-3.15,8.68,8.68,0,0,1-1.32-4.77A8.41,8.41,0,0,1,1779,247q3.51-2.64,10.29-2.64h7.26v-.48q0-4-2-5.7t-6.09-1.74a20.45,20.45,0,0,0-4,.36,34,34,0,0,0-3.93,1.08,3.37,3.37,0,0,1-.78.12,2.13,2.13,0,0,1-1.56-.66,2.2,2.2,0,0,1-.66-1.62,2.31,2.31,0,0,1,1.56-2.28,26.39,26.39,0,0,1,10.38-2.16,13.55,13.55,0,0,1,7,1.68,10.56,10.56,0,0,1,4.2,4.35,12.65,12.65,0,0,1,1.35,5.79v17a2.56,2.56,0,0,1-.81,1.92,2.71,2.71,0,0,1-2,.78,2.66,2.66,0,0,1-2.7-2.7v-1.56a15.07,15.07,0,0,1-11.28,4.56A11.15,11.15,0,0,1,1780.36,262Zm12-5a14.18,14.18,0,0,0,4.14-3.21v-5H1790q-9.06,0-9.06,4.74a4.45,4.45,0,0,0,1.47,3.48q1.47,1.32,4.89,1.32A10.85,10.85,0,0,0,1792.39,257Z"/><path d="M1817.35,261.19a14.78,14.78,0,0,1-5.85-5.52,17.44,17.44,0,0,1,0-16.92,14.78,14.78,0,0,1,5.85-5.52,16.92,16.92,0,0,1,8-1.92,16.63,16.63,0,0,1,5.49.81,20.74,20.74,0,0,1,4.29,2.07,2.39,2.39,0,0,1,.51,3.75,2.11,2.11,0,0,1-1.59.75,2.74,2.74,0,0,1-1.32-.36,22.85,22.85,0,0,0-3.39-1.47,11.7,11.7,0,0,0-3.51-.45,10.88,10.88,0,0,0-8.1,3,11.9,11.9,0,0,0,0,15.66,10.88,10.88,0,0,0,8.1,3,11.7,11.7,0,0,0,3.51-.45,22.85,22.85,0,0,0,3.39-1.47,2.74,2.74,0,0,1,1.32-.36,2.11,2.11,0,0,1,1.59.75,2.39,2.39,0,0,1-.51,3.75,20.74,20.74,0,0,1-4.29,2.07,16.63,16.63,0,0,1-5.49.81A16.92,16.92,0,0,1,1817.35,261.19Z"/><path d="M1843.93,262a2.61,2.61,0,0,1-.78-1.92V221.17a2.71,2.71,0,0,1,.78-1.95,2.56,2.56,0,0,1,1.92-.81,2.77,2.77,0,0,1,2.76,2.76v24.54l14.28-13.2a2.76,2.76,0,0,1,1.8-.78,2.43,2.43,0,0,1,2,.78,2.87,2.87,0,0,1,.63,1.86,2.94,2.94,0,0,1-1,2l-8.64,7.74,10.86,14.4a2.63,2.63,0,0,1,.6,1.62,2.49,2.49,0,0,1-.78,1.92,2.81,2.81,0,0,1-2,.72,2.66,2.66,0,0,1-1.2-.3,3,3,0,0,1-1-.84l-10.32-14-5.22,4.74v7.74a2.56,2.56,0,0,1-.81,1.92,2.71,2.71,0,0,1-2,.78A2.61,2.61,0,0,1,1843.93,262Z"/><path d="M1877.08,261.7a3.47,3.47,0,0,1-1-2.55,3.59,3.59,0,0,1,3.54-3.54,3.47,3.47,0,0,1,2.55,1.05,3.4,3.4,0,0,1,1.05,2.49,3.59,3.59,0,0,1-3.6,3.6A3.4,3.4,0,0,1,1877.08,261.7Zm1.05-11.25a1.8,1.8,0,0,1-.6-1.26l-1.08-19.8v-5.94a3.07,3.07,0,0,1,3.12-3.12,2.92,2.92,0,0,1,2.19.9,3.07,3.07,0,0,1,.87,2.22v5.94l-1.08,19.8a1.86,1.86,0,0,1-.57,1.26,2,2,0,0,1-1.41.48A2.09,2.09,0,0,1,1878.13,250.45Z"/><path class="cls-3" d="M638.68,423.44c32.39,17.73,58.49,44.7,79.76,74.56,22,30.92,40,65,54.61,100a589.75,589.75,0,0,1,34,110.53A594.7,594.7,0,0,1,818.94,824,576.39,576.39,0,0,1,808,939.16q-1.41,7.14-3,14.22c-.42,1.88,2.47,2.69,2.89.8A579.87,579.87,0,0,0,821.84,838.1a598,598,0,0,0-9.28-116.59,592.36,592.36,0,0,0-31.83-112.58c-14.07-35.76-31.51-70.48-52.84-102.48C707.6,476,682.94,447.75,652,427.83q-5.76-3.7-11.77-7c-1.69-.93-3.21,1.66-1.51,2.59Z"/><path class="cls-3" d="M739.67,721.84c-12.5-5.18-26-7.19-39.44-8a390.52,390.52,0,0,0-42.46.06q-21.48,1.07-42.8,4.2c-13.63,2-27.43,4.29-40.7,8A65.58,65.58,0,0,0,557,733.36a46.81,46.81,0,0,0-12.69,12c-7.3,9.92-11.41,22.07-14.83,33.78-7.48,25.62-10,53.39-3.07,79.42,5.82,21.74,18.25,41.94,36.36,55.52,2.24,1.68,4.58,3.25,7,4.7V916.2c-20.82,10.26-44.07,14.24-64.89,24.51-9.36,4.62-18.26,10.52-25.25,18.34-1.71,1.9-3.63,4-4.1,6.62a7,7,0,0,0,2.49,6.42c3.94,3.67,9.08,6.3,14,8.39,11,4.67,22.73,7,34.49,8.44,12.38,1.55,24.87,2.31,37.32,3.08q38,2.32,76.15,2.2t76.41-2.72l9.5-.69c1.91-.15,1.92-3.15,0-3q-37.18,2.82-74.48,3.32-37.14.48-74.27-1.37c-12.25-.62-24.5-1.4-36.72-2.42-11.79-1-23.6-2.3-35-5.42a83.82,83.82,0,0,1-15.75-5.81,54.85,54.85,0,0,1-7-4.15c-1.81-1.28-4.67-3.09-4.2-5.69s2.84-4.65,4.5-6.4a68.46,68.46,0,0,1,5.71-5.33,82,82,0,0,1,12.7-8.58c19.5-10.88,41.74-15,62.19-23.64q3.92-1.63,7.72-3.51a1.51,1.51,0,0,0,0-2.59c-19-11.51-32.62-30.36-39.76-51.2-8.39-24.51-7.52-51.21-1.5-76.14,2.89-12,6.58-24.29,12.56-35.14a51.82,51.82,0,0,1,10.51-13.66,46.86,46.86,0,0,1,15.5-8.95,132.32,132.32,0,0,1,18.07-4.86Q597,724,607.35,722.33c13.7-2.27,27.52-3.89,41.38-4.87s28-1.32,41.95-1c13.21.32,26.54,1.34,39.27,5.1a89.16,89.16,0,0,1,8.92,3.16c1.78.74,2.56-2.17.8-2.9Z"/><path class="cls-3" d="M478.15,751.8c-10.68.34-20,5.76-27.86,12.68A120.6,120.6,0,0,0,439,776.2c-3.66,4.24-7.5,8.54-10.4,13.35A24.94,24.94,0,0,0,425,806.4c.86,5.91,3.29,11.62,6,16.91a104,104,0,0,0,20,26.44c4,3.9,8.14,7.56,12.47,11q3.32,2.67,6.72,5.22c1.08.81,2.17,1.61,3.26,2.4s2.39,1.5,2.93,2.65c1.07,2.26-3.62,3.32-4.95,3.78-2.95,1-5.93,1.93-8.91,2.83-5.84,1.76-11.72,3.38-17.55,5.14s-11.85,3.74-17.59,6.12c-5.33,2.21-10.79,4.66-15.49,8-4.51,3.24-7.75,7.58-8.3,13.22a22.35,22.35,0,0,0,4.75,15.33c3.39,4.46,8,7.79,12.79,10.58a129.71,129.71,0,0,0,16.67,8,140.22,140.22,0,0,0,36,9.18q4.47.52,9,.76c1.93.11,1.92-2.89,0-3A137.82,137.82,0,0,1,447,944.36a135.41,135.41,0,0,1-16.72-6.78c-5-2.45-10.15-5.09-14.5-8.65s-7.67-7.86-8.89-13.28a14.62,14.62,0,0,1,4.33-14.32c4-3.75,9.45-6.21,14.43-8.43a156.17,156.17,0,0,1,16.67-6.14c5.74-1.8,11.54-3.42,17.32-5.11,2.92-.86,5.84-1.73,8.74-2.66a52.39,52.39,0,0,0,7.83-2.78c2-1,3.77-3,3.19-5.45s-3.18-4-5.13-5.4c-4.38-3.2-8.67-6.54-12.8-10.06a124.23,124.23,0,0,1-22.18-23.91,84.13,84.13,0,0,1-7.78-13.94c-2.35-5.39-4.34-11.34-3.72-17.31.6-5.76,4.12-10.73,7.65-15.11,3.35-4.15,6.81-8.25,10.48-12.13,6.89-7.3,15-14.3,24.84-17a31.64,31.64,0,0,1,7.36-1.1c1.93-.06,1.94-3.06,0-3Z"/><path class="cls-3" d="M651.33,528.13a86.1,86.1,0,0,1,49.26,32.2,85.08,85.08,0,0,1,5.78,91.5c-5.32,9.49-12.54,17.6-22.52,22.26-8.84,4.13-18.56,5.87-27.75,9a55.85,55.85,0,0,0-12.73,6c-4.35,2.87-7.59,6.59-10.76,10.67a37.36,37.36,0,0,1-5.63,6.15,27,27,0,0,1-7,4c-5.35,2.12-11.12,3.15-16.76,4.19a281.92,281.92,0,0,1-39,4.43c-3.27.14-6.53.22-9.79.26l1.44,1.1c-2.64-11.63-4.74-26.31,5.38-35.15,4.81-4.21,11.13-4.26,17.18-3.93,6.2.34,12.24.59,18.11-1.81,10.73-4.38,18.39-14.07,25.64-22.69,7.74-9.2,15.35-19.21,18.39-31.05,3.9-15.19-1.5-30.28-6.91-44.36-.68-1.78-3.58-1-2.89.8,4.83,12.6,10.07,26.25,7.53,40-2.25,12.07-9.74,22.32-17.43,31.55-3.77,4.53-7.58,9.08-11.75,13.24-4,4-8.46,7.69-13.73,9.79-6,2.38-12,1.78-18.29,1.49s-12.19.3-17.14,4.19c-4.74,3.72-7.7,9.51-8.76,15.38-1.42,7.81,0,15.74,1.78,23.38a1.52,1.52,0,0,0,1.45,1.1,290.55,290.55,0,0,0,40.39-3.25c6.31-1,12.66-2,18.87-3.56,5.38-1.31,10.72-3.22,15.1-6.71S636,699.6,640,695.63a38.73,38.73,0,0,1,12-7.71c9.2-4,19.21-5.66,28.57-9.21a51.47,51.47,0,0,0,13.28-7.1,54.34,54.34,0,0,0,11.44-12.29,83.94,83.94,0,0,0,13-30.94c4.44-21.82.7-45.12-11.22-64a89.6,89.6,0,0,0-47.66-37.13c-2.36-.77-4.77-1.43-7.19-2-1.88-.43-2.69,2.46-.8,2.89Z"/><path class="cls-3" d="M505.71,810.22A213,213,0,0,1,474,691.11a172.53,172.53,0,0,1,5.49-39.49c3.8-14,10.19-27.47,20.69-37.69,1.38-1.35-.74-3.47-2.13-2.12-19.46,18.94-25.22,47.64-26.79,73.72a216.3,216.3,0,0,0,11.5,83.27,213,213,0,0,0,20.41,42.93c1,1.64,3.61.14,2.59-1.51Z"/><path class="cls-3" d="M445.57,610.74l-81.26,7.44L344.18,620c-3.28.3-6.6.48-9.86,1a12.74,12.74,0,0,0-7.23,3.2c-3.46,3.44-3.76,8.78-6.12,12.88a28.87,28.87,0,0,1-10.3,10.21,32.6,32.6,0,0,1-7.19,3.2c-2.77.86-5.63,1.34-8.43,2.08-4.76,1.25-10.54,3.83-11.52,9.28-.95,5.28,4.14,8,8.55,8.83a75.27,75.27,0,0,0,8.21.79l10.43.74c13.33.94,26.66,2,40,2.81a104.77,104.77,0,0,0,19.32-.14,58.9,58.9,0,0,0,17.5-5.12c5.35-2.44,10.45-5.41,15.74-8a109.29,109.29,0,0,1,16.54-6.43,120.56,120.56,0,0,1,36.21-5c3,0,6,.2,9,.45,1.92.17,1.91-2.83,0-3a124.29,124.29,0,0,0-35.43,2.05,122.67,122.67,0,0,0-32.66,11.84,135.51,135.51,0,0,1-15.37,7.38,56.06,56.06,0,0,1-18.05,3.31,186.45,186.45,0,0,1-18.75-.74l-19.62-1.39-19.86-1.4c-3.11-.21-6.23-.4-9.34-.66a19.36,19.36,0,0,1-6.68-1.44c-1.85-.89-3.29-2.53-2.68-4.7s2.72-4,4.79-5a37.72,37.72,0,0,1,8.34-2.46,48,48,0,0,0,7.88-2.37,34.73,34.73,0,0,0,12-8.19,31.67,31.67,0,0,0,6.81-12.17c.72-2.18,1.54-4.5,3.4-6,2.13-1.72,5.13-2,7.76-2.21q9.8-.92,19.6-1.8l78.77-7.22,9.69-.88c1.91-.18,1.92-3.18,0-3Z"/><path class="cls-3" d="M1285.18,650.7c2.31,13.51,12.11,24.15,18.2,36a45.74,45.74,0,0,1,4,10.56c.44,1.88,3.34,1.08,2.9-.8-3.13-13.39-12.94-23.79-18.74-36a40.44,40.44,0,0,1-3.48-10.6c-.33-1.9-3.22-1.1-2.9.79Z"/><path class="cls-3" d="M1288.83,651.07c16.34,10.29,32.75,20.47,49.42,30.23q7.08,4.14,14.21,8.17a1.46,1.46,0,0,0,1.51,0c7.48-5.75,17.48-7.92,26.75-8l-1.29-2.25a3.62,3.62,0,0,1-1.28,1.41s-.38.24-.22.09c-.07.06.12,0,.18.09.37.31.32.59.28,1s-.18.13.07.05a7.88,7.88,0,0,1,2.26-.39l-1.29-2.25c-2.92,5-5.8,10.1-8.77,15.11-2,3.46-5.21,7.44-4,11.73,1,3.51,4.49,5.78,7.86,6.61,3.57.89,7.33.67,11,.54s8.07-.5,11.59,1.18V711.8a189.17,189.17,0,0,0-25.37,21.4,1.5,1.5,0,0,0,2.12,2.12,185.25,185.25,0,0,1,24.76-20.93,1.51,1.51,0,0,0,0-2.59c-6.21-3-13.44-1.12-20-1.55-3-.19-6.16-.92-8.12-3.37-2.7-3.38.64-7.51,2.44-10.47,3.15-5.15,6.08-10.45,9.11-15.68a1.52,1.52,0,0,0-1.3-2.26c-1.49,0-3.26.2-4.41,1.26a2.25,2.25,0,0,0-.42,3c1.9,2.52,5-.23,6.13-2a1.52,1.52,0,0,0-1.3-2.26c-9.74.09-20.4,2.36-28.26,8.41H1354c-16.77-9.48-33.27-19.45-49.63-29.63q-7-4.37-14-8.77c-1.64-1-3.15,1.57-1.51,2.59Z"/><path class="cls-3" d="M1293,749.08l12.14,53.25c2,8.78,4.23,17.6,4.94,26.6a70.62,70.62,0,0,1-2.58,24.79,90.72,90.72,0,0,1-4.85,13.07c-1,2.16-2,4.35-3.2,6.41-.63,1.07-2.33,3.1-3.68,2.09-1.55-1.16-3,1.45-1.52,2.59,3.11,2.33,6.72-1.16,8.12-3.78a106.58,106.58,0,0,0,5.51-12.06,78.78,78.78,0,0,0,5.39-25.53c.3-9.46-1.58-18.81-3.65-28-2.12-9.44-4.29-18.86-6.44-28.29l-7.29-31.94c-.43-1.89-3.32-1.09-2.89.79Z"/><path class="cls-3" d="M1294.42,655.7a1.18,1.18,0,0,1,0-.2c.09-.32-.06.1-.06.11s.1-.17.1-.18.17-.11-.07.08a2.2,2.2,0,0,0,.31-.3c-.27.28-.19.15-.06.07l.19-.12c.13-.06.31-.06-.07,0l.22-.08.23-.06c.13,0,.35,0-.09,0,.15,0,.3,0,.45,0s.36,0,.08,0,.07,0,.13,0l-.9-2.2c-.1.15-.2.3-.31.44l-.18.26,0-.06a5.9,5.9,0,0,1-.78.8c-.3.26.21-.13,0,0l-.2.14-.27.15c-.13.07-.33.08.06,0-.19,0-.37.13-.56.17l-.17,0,.19,0h-.39l.26,0a.71.71,0,0,1-.28-.06l-.21-.06c-.24-.08.37.18,0,0-.15-.08-.28-.18-.42-.26.35.21.19.15.09.06l-.19-.19c-.1-.12-.1-.23.08.11l-.12-.21c-.12-.19.11.38.06.15a.17.17,0,0,1,0-.1c0-.15,0-.07,0,.24a.38.38,0,0,0,0-.15c-.05.32-.06.4,0,.25s0-.06,0,.09c-.14.3,0,0,0,0-.19.23-.23.29-.13.18s.06-.06-.16.12a1.66,1.66,0,0,0,.69-.9,1.49,1.49,0,0,0-2.2-1.69,2.63,2.63,0,0,0-1,1.34,2.42,2.42,0,0,0,0,1.41,3.73,3.73,0,0,0,1.67,2,4.08,4.08,0,0,0,2.83.55,5.17,5.17,0,0,0,2.5-1.23,9.36,9.36,0,0,0,1.76-2.1,1.51,1.51,0,0,0-.9-2.2,4.75,4.75,0,0,0-3.25.41,3.54,3.54,0,0,0-1.84,2.33,1.58,1.58,0,0,0,.16,1.15,1.47,1.47,0,0,0,.89.69,1.52,1.52,0,0,0,1.85-1Z"/><path class="cls-3" d="M1321.75,758.13c8.19,2.09,16.66,4.19,24,8.56a28.66,28.66,0,0,1,8.94,8.07,37.79,37.79,0,0,1,5.13,11.46c5.39,19,4.75,39.55-.49,58.54-2.89,10.48-6.72,21.18-5.37,32.22.24,1.9,3.24,1.92,3,0-1.24-10.15,2-20,4.76-29.61a120.72,120.72,0,0,0,4.81-30.19,111.36,111.36,0,0,0-3.35-30c-2.17-8.5-6.09-16.18-13.36-21.37-8-5.7-17.91-8.15-27.27-10.54-1.87-.47-2.66,2.42-.79,2.9Z"/><path class="cls-3" d="M1388.56,868.33c-13,6.8-27.24,13.94-35.71,26.47a33.83,33.83,0,0,0-4.43,9.2,31,31,0,0,0-1,9.54,4.34,4.34,0,0,1-.27,2,3.35,3.35,0,0,1-2,1.44,31.47,31.47,0,0,0-4.61,2.21,23.65,23.65,0,0,0-7,6.41c-1.73,2.39-3.79,6.15-2.8,9.17s4.13,3.82,6.84,4.13c3.76.42,7.68,0,11.46-.15l12.73-.45q12.86-.48,25.71-1L1394,937a51.21,51.21,0,0,0,5.94-.38,6.57,6.57,0,0,0,4.21-2.24,16.59,16.59,0,0,0,2.25-4.68,131.45,131.45,0,0,0,8.7-46.85c0-2-.06-4-.15-6s-3.1-1.93-3,0a128.25,128.25,0,0,1-5.81,44.5c-.57,1.79-1.17,3.58-1.81,5.35a39.6,39.6,0,0,1-2,4.94c-.83,1.58-2.18,2-3.88,2.16-2,.17-4,.19-6,.27q-12.11.52-24.22,1t-24,.85c-2.89.1-6.35.59-9.1-.6-3.18-1.36-1-5.25.33-7.31a20,20,0,0,1,6.36-6.12,25.09,25.09,0,0,1,3.88-1.94c1.52-.61,3-1.25,3.91-2.74a7.25,7.25,0,0,0,.74-3.86,31.53,31.53,0,0,1,.08-4.86,26,26,0,0,1,2.87-8.75c7.43-14.14,23.16-21.76,36.69-28.83,1.72-.89.2-3.48-1.51-2.59Z"/><path class="cls-3" d="M1298.68,880.07A31.7,31.7,0,0,0,1310,896.33a39.75,39.75,0,0,0,9.25,5.37c4,1.66,8.27,2.4,12.24,4.08a1.55,1.55,0,0,0,2-.54,1.5,1.5,0,0,0-.54-2c-3.73-1.58-7.7-2.39-11.49-3.8a36.93,36.93,0,0,1-9.1-5,28.76,28.76,0,0,1-10.84-15.15,1.51,1.51,0,0,0-2.9.8Z"/><path class="cls-3" d="M1298.74,858.53l-19.56,11c-5.56,3.15-12.18,6-16.29,11.1-3.66,4.54-4.65,10.26-4.12,16a67.56,67.56,0,0,0,3.72,16.17c2,5.56,5.24,10.59,10.71,13.2l-.69-1.69c-.23.72-2.56.88-3.2,1-1.51.33-3.23.85-4.08,2.26-1.11,1.83-.16,4,1.44,5.17,2,1.43,4.62,1.49,6.95,1.62a137.93,137.93,0,0,0,31.69-2A132,132,0,0,0,1322.8,928c1.82-.6,1-3.49-.8-2.89a130.94,130.94,0,0,1-28.44,5.87,135.73,135.73,0,0,1-14.54.57c-2.39,0-4.79-.1-7.17-.3-.78-.06-5-.71-3.95-2.23.32-.46,1.32-.6,1.81-.71.75-.18,1.51-.3,2.26-.49a4.33,4.33,0,0,0,3.44-2.72,1.52,1.52,0,0,0-.69-1.69c-4.54-2.16-7.36-6.15-9.1-10.76a68.44,68.44,0,0,1-3.67-14.49c-.73-5.23-.39-10.85,2.93-15.18a23.69,23.69,0,0,1,6.44-5.43c2.77-1.73,5.66-3.28,8.51-4.89l20.43-11.52a1.5,1.5,0,0,0-1.52-2.59Z"/><path class="cls-3" d="M1412.19,853.59a119.47,119.47,0,0,0-5-27.69c-.56-1.84-3.45-1-2.89.8a116,116,0,0,1,4.88,26.89c.11,1.92,3.11,1.93,3,0Z"/><path class="cls-3" d="M1286.17,747.6a150.66,150.66,0,0,1-18.08-28.6c-2.44-4.88-4.71-9.84-6.91-14.83-1.08-2.45-2.14-4.9-3.2-7.36a50.14,50.14,0,0,1-3.06-8.19c-1.32-5.54,1-10.61,6.25-13l-1.81-.23c4.61,4.38,8,10.08,11.63,15.26,4.21,6,8.54,12.24,14.13,17.07a23.54,23.54,0,0,0,9,5.18,1.51,1.51,0,0,0,.8-2.9c-6.11-1.66-10.78-7-14.61-11.78-4.49-5.56-8.33-11.6-12.53-17.38a53,53,0,0,0-6.28-7.57,1.58,1.58,0,0,0-1.82-.24,13.56,13.56,0,0,0-8.12,11.13c-.51,5.89,2.79,11.67,5.06,16.9,4.69,10.83,9.57,21.61,15.63,31.76a136.67,136.67,0,0,0,11.82,16.85c1.23,1.5,3.34-.64,2.12-2.12Z"/><path class="cls-3" d="M1388.42,762.68c14.51.16,29.21-2.11,42.59-7.86,11.94-5.13,22.66-13.49,28.67-25.22a51.67,51.67,0,0,0,5.45-21,1.52,1.52,0,0,0-2.56-1.07,125.43,125.43,0,0,1-14.18,10.67,63.62,63.62,0,0,1-18.31,7.7c-6.92,1.71-14,2.57-21,3.74-6.57,1.11-13.2,2.43-19.25,5.32-5,2.37-10.22,6.36-10.19,12.38a1.5,1.5,0,0,0,3,0c0-5,5-8.08,9-10,6-2.77,12.63-3.94,19.09-5,6.79-1.12,13.66-2,20.35-3.64a65.9,65.9,0,0,0,17.83-7.36,125.3,125.3,0,0,0,15.78-11.73l-2.56-1.06a47.22,47.22,0,0,1-15.85,33.29c-9.22,8.17-21.18,12.87-33.11,15.43a112.4,112.4,0,0,1-24.75,2.36,1.5,1.5,0,0,0,0,3Z"/><path class="cls-3" d="M1357.08,702.16a17.13,17.13,0,0,0-10.55-5.93,1.52,1.52,0,0,0-1.85,1.84l1.43,5.44.71,2.71.33,1.26c.06.2.1.42.17.62s0,.21,0,.08c.35-1,1-1.06,2-.32a1.51,1.51,0,0,0-2-.54,1.55,1.55,0,0,0-.54,2.06c.68,1.55,3,1,3.47-.32a3.26,3.26,0,0,0-.06-2.07l-.52-2-2-7.73-1.84,1.84a14.46,14.46,0,0,1,9.23,5.17,1.52,1.52,0,0,0,2.12,0,1.54,1.54,0,0,0,0-2.13Z"/><path class="cls-3" d="M1344.12,687.15a15.46,15.46,0,0,1-.45,1.78c-.07.25-.16.5-.25.75l-.18.49c-.12.3.09-.2-.06.12a17.34,17.34,0,0,1-1.75,3.08l2.36-.31c-.43-.47-.86-.95-1.27-1.44l-.61-.75-.17-.22,0,0-.29-.39a36.21,36.21,0,0,1-2.14-3.19,1.5,1.5,0,1,0-2.59,1.51,39.85,39.85,0,0,0,4.92,6.56,1.45,1.45,0,0,0,1.26.42,1.57,1.57,0,0,0,1.1-.72,18,18,0,0,0,3-6.93,1.5,1.5,0,1,0-2.89-.8Z"/><path class="cls-3" d="M1308.65,684c3.78,5.06,8,10.64,8.18,17.22.06,1.92,3.06,1.93,3,0-.21-7.18-4.44-13.19-8.59-18.73a1.55,1.55,0,0,0-2-.54,1.51,1.51,0,0,0-.54,2.05Z"/><path class="cls-3" d="M1432.75,860.39a929.55,929.55,0,0,1,71-89.77q10.75-12,21.93-23.63a1.52,1.52,0,0,0-1.46-2.51l-18.32,2.67,1.7,2.2,56.94-115,16.1-32.5a1.51,1.51,0,0,0-1.69-2.2l-69.68,12.83,1.85,1.85q15.43-74.42,36.59-147.49,6-20.59,12.39-41.06a1.51,1.51,0,0,0-1.84-1.85c-40.09,12.51-76.67,33.52-112.85,54.41l2.25,1.3.49-68.06.24-34c.07-9.89.38-19.84-.62-29.69-1-10.24-3.59-20.33-9.42-28.94a1.52,1.52,0,0,0-2.59,0l-16.6,23.46-4,5.65c-1.27,1.8-2.51,3.87-4.35,5.15-4.25,2.94-10-1-14-2.75L1343.87,327l-30.14-13.39c-1.29-.58-2.86.65-2,2.05a903.18,903.18,0,0,1,47.22,93.55q6.12,14.13,11.76,28.47l1.44-1.9-43.69-1.4a1.52,1.52,0,0,0-1.29,2.26q24.24,48.21,51.42,94.87,7.82,13.43,15.87,26.7l1.7-2.21-18.63-4.61a1.52,1.52,0,0,0-1.85,1.05,216.38,216.38,0,0,0,13.71,118.3c.74,1.75,3.64,1,2.9-.8a213.43,213.43,0,0,1-13.71-116.7l-1.85,1,18.63,4.61a1.52,1.52,0,0,0,1.69-2.21q-28-46.14-53.1-93.94-7.22-13.75-14.19-27.63l-1.3,2.26,43.69,1.4a1.51,1.51,0,0,0,1.45-1.9A907,907,0,0,0,1329,340.5q-7.14-13.31-14.71-26.35l-2,2.05L1370,341.88l28.65,12.73c3.49,1.55,7.4,3.55,11.31,2.37,3.74-1.12,5.93-4.82,8-7.82l20.28-28.68h-2.59c10.86,16,9.78,36.45,9.65,55l-.48,66.44-.27,37.81a1.51,1.51,0,0,0,2.26,1.29c36-20.76,72.29-41.67,112.13-54.11l-1.84-1.84q-22.74,72.53-39.82,146.65-4.81,20.9-9.16,41.9a1.52,1.52,0,0,0,1.84,1.85l69.67-12.84-1.69-2.2-56.94,115L1505,747.83a1.52,1.52,0,0,0,1.69,2.21l18.32-2.67-1.46-2.5a935.57,935.57,0,0,0-74.2,87.44q-9.81,13.11-19.15,26.57c-1.1,1.59,1.49,3.09,2.59,1.51Z"/><path class="cls-3" d="M500.54,453.28c5-12.42,9.88-25.31,10.1-38.89.2-12-3.4-24.46-12.46-32.77-8.09-7.42-19.69-10.89-30.21-6.86-9.86,3.77-17.35,12.66-20.31,22.69-4.1,13.87.07,28.84,6.78,41.16.8,1.46,3.36.46,2.74-1.16q-5.44-14.2-10.9-28.42c-3.1-8.1-6-17-12.73-22.94a20.64,20.64,0,0,0-12.1-5.3,1.52,1.52,0,0,0-1.5,1.5,137.07,137.07,0,0,0,5.84,50.35c.64,2.07,1.34,4.13,2.08,6.16a20,20,0,0,0,2.28,4.92c2.43,3.4,6.28,3.56,10.1,3.88a200.11,200.11,0,0,1,25.66,3.87,204.52,204.52,0,0,1,28,8.22c1.81.68,2.6-2.22.8-2.89a205.5,205.5,0,0,0-48.33-11.59q-3.15-.36-6.32-.63c-1.81-.15-3.78-.13-5.45-.89s-2.55-2.45-3.2-4.08c-.73-1.82-1.36-3.69-2-5.55a136.46,136.46,0,0,1-5.56-23.93,134.27,134.27,0,0,1-.88-27.84l-1.5,1.5c7.93.55,13.54,7.14,16.88,13.77a131.25,131.25,0,0,1,5.06,12.27l5.09,13.28,5.81,15.14,2.74-1.16c-5.7-10.46-9.49-22.78-7.42-34.77,1.7-9.79,7.72-18.89,16.63-23.52,9.25-4.81,20.08-2.91,28.09,3.46,8.91,7.09,12.94,18.23,13.29,29.37.46,14.25-4.7,27.86-10,40.85-.72,1.79,2.18,2.57,2.9.8Z"/><path class="cls-3" d="M440.67,510.11a14,14,0,0,1,11.91-3.31,13.86,13.86,0,0,1,9.44,7.1,9.26,9.26,0,0,1,1.27,5.8c-.46,2.4-3.22,2.87-5.23,3.38a40.38,40.38,0,0,1-7.87,1.21,10.49,10.49,0,0,1-3.31-.07c-1.1-.3-1.2-1.34-1.37-2.32-.77-4.46-1.59-10.09,1.43-13.93,1.18-1.5-.93-3.63-2.12-2.12-3.58,4.54-3.23,10.3-2.39,15.71.42,2.68,1.14,5.15,4.19,5.67s6.62-.11,9.67-.69c2.76-.52,6.43-1.1,8.46-3.26,1.89-2,1.87-5,1.21-7.52A16.67,16.67,0,0,0,438.55,508c-1.44,1.3.68,3.41,2.12,2.13Z"/><path class="cls-3" d="M495.81,356.45c-22.52-7.82-48.79-15.78-70.68-1.89A57.81,57.81,0,0,0,405,377.15a68.1,68.1,0,0,0-7.11,32.26c.26,14.08,4.17,27.85,10,40.59l.9-2.2c-9.11,1.7-19.76,0-27.33,6.49-7.32,6.24-7.26,17.07-5.77,25.75,3.1,18,13.32,34.67,27.38,46.29A77.46,77.46,0,0,0,430.36,541c1.85.54,2.64-2.35.79-2.9A76.1,76.1,0,0,1,390,507.53,73.78,73.78,0,0,1,379.51,484c-1.94-7.95-3.42-18.21,1.82-25.27,3-4,7.79-5.64,12.56-6.35,5.19-.78,10.47-.72,15.63-1.69a1.51,1.51,0,0,0,.9-2.2c-9.39-20.61-13.8-45.45-4.29-66.84A56.3,56.3,0,0,1,424,359c8.93-6.53,19.61-9.38,30.61-9.1,13.94.35,27.41,4.92,40.45,9.45,1.83.64,2.61-2.26.8-2.89Z"/><path class="cls-3" d="M489.19,550.08c24.56-4.43,49.09-14.12,66.21-32.92,7.88-8.66,14.45-19.36,16.79-30.95,1.23-6.09,1.26-12.57-.94-18.45a30.08,30.08,0,0,0-8.6-12.17c-8.85-7.67-20.69-11.08-31.87-13.67-1.88-.44-2.68,2.45-.8,2.89,9.59,2.22,19.45,5,27.65,10.65A29.83,29.83,0,0,1,567,465.64a28.23,28.23,0,0,1,2.75,16.94c-1.4,11.35-7.56,22.11-14.92,30.67a90.47,90.47,0,0,1-26.75,21c-12.4,6.51-26,10.5-39.71,13-1.9.35-1.09,3.24.8,2.9Z"/><path class="cls-3" d="M541.59,369c9.93,1.21,18.94,6.51,25.83,13.59,7.61,7.82,12.46,17.83,15.44,28.23a123.51,123.51,0,0,1,3.69,18.86c.24,1.9,3.24,1.92,3,0-1.46-11.91-4.1-23.81-9.61-34.57a56.94,56.94,0,0,0-21.5-23.39A43.91,43.91,0,0,0,541.59,366c-1.91-.24-1.89,2.77,0,3Z"/><path class="cls-3" d="M466.17,427.89c1.05-2.64,1.27-6-.43-8.39-1.49-2.12-4.25-3.59-6.85-2.66a6.34,6.34,0,0,0-4,4.89,6.72,6.72,0,0,0,2.2,6.31,10.11,10.11,0,0,0,7.65,2.31,1.54,1.54,0,0,0,1.5-1.5,1.5,1.5,0,0,0-1.5-1.5,10.16,10.16,0,0,1-1.35,0c-.23,0-.46,0-.68,0s.34.06-.13,0l-.37-.07a8.19,8.19,0,0,1-1.31-.37c-.05,0-.35-.14-.13,0l-.27-.13c-.22-.11-.44-.22-.65-.35a3.56,3.56,0,0,1-.85-.65l-.4-.42c-.31-.33.08.11-.08-.1a3.75,3.75,0,0,1-.24-.36,5.33,5.33,0,0,1-.31-.57c.13.27,0-.15-.07-.25a3.5,3.5,0,0,1-.13-.56c0-.24,0,.35,0-.05,0-.13,0-.26,0-.39a4.53,4.53,0,0,1,0-.52c0,.35,0-.22.06-.3s.1-.38.16-.57l.09-.24c-.12.3,0,0,.06-.11a5,5,0,0,1,.29-.5l.18-.26c0,.05-.19.2,0,0s.26-.27.4-.4.23-.2.08-.08.17-.11.2-.13.57-.28.25-.16a3.68,3.68,0,0,1,.54-.16c.05,0,.31-.06.11,0s.24,0,.22,0h.31c.4,0-.18-.07.21,0a3.41,3.41,0,0,1,2,1.17,4.7,4.7,0,0,1,.7,1.1,5.91,5.91,0,0,1,.34,1.57,8.5,8.5,0,0,1-.7,3.66,1.5,1.5,0,0,0,1,1.84,1.54,1.54,0,0,0,1.85-1.05Z"/><path class="cls-3" d="M434.23,431.34a4.37,4.37,0,0,0,3.07-4.76,4.3,4.3,0,0,0-1.47-2.87,5,5,0,0,0-3.23-1.14,5.79,5.79,0,0,0-5.46,4,7.46,7.46,0,0,0,1.26,7,4.24,4.24,0,0,0,4,1.61,3.38,3.38,0,0,0,2.86-2.57,1.56,1.56,0,0,0-1-1.85,1.53,1.53,0,0,0-1.85,1.05,2.44,2.44,0,0,0-.06.26c0,.22.05-.36,0,0l-.06.08.11-.14s-.25.3-.08.1-.06,0-.11.06l-.19.1c.31-.16.1,0,0,0s-.39,0-.18,0-.09,0-.13,0c-.21,0,0,.05.08,0s-.21-.06-.28-.07.27.17-.05,0l-.22-.13s-.31-.24-.15-.1l-.14-.13-.26-.28s.16.23,0,0-.12-.18-.17-.27-.19-.34-.27-.51,0-.05,0,0c0-.12-.09-.24-.12-.36a4.5,4.5,0,0,1-.17-.63c0-.08,0-.16-.05-.25-.08-.41,0,.3,0-.11,0-.18,0-.35,0-.52s0-.43,0-.64c0,.3,0,.09,0,0s0-.25.07-.38.13-.4.19-.6c-.08.27,0,.07,0,0l.15-.28a3,3,0,0,1,.31-.48c-.18.23,0,0,.05,0s.16-.15.24-.23.27-.21,0,0l.18-.13c.16-.1.33-.18.5-.27s.24-.07-.05,0l.27-.1a2.16,2.16,0,0,1,.61-.14s-.35,0-.06,0h.28a1.39,1.39,0,0,1,.5,0c-.29-.14-.14,0,0,0l.27.07a1.72,1.72,0,0,0,.21.07c-.31-.07-.07,0,0,0l.24.14c.09,0,.25.22,0,0l.3.29c.23.23-.15-.28,0,0a1.4,1.4,0,0,0,.09.17s.08.16.09.16c-.09-.21-.11-.24,0-.09l0,.09c0,.09,0,.18.07.28.07.28,0-.34,0,0s0,.32,0,.48,0,.35,0,.09,0,.05,0,.12l-.06.23c-.1.31-.07,0,0,0s-.19.35-.22.4c-.15.28.23-.23,0,0l-.19.2c-.13.14,0-.07.09-.06a2.22,2.22,0,0,0-.23.15c-.07,0-.22.19-.07,0s.12-.06,0,0l-.18.05a1.5,1.5,0,0,0-1.05,1.84,1.52,1.52,0,0,0,1.84,1Z"/><path class="cls-3" d="M492,525.55A19.25,19.25,0,0,0,507.62,508l-2.94.4c.31,2.1,1.68,3.74,3,5.35s2.4,3.17,1.89,5.21c-1.22,5-7.13,5.85-11.37,6.39a1.54,1.54,0,0,0-1.5,1.5,1.51,1.51,0,0,0,1.5,1.5c5.52-.7,11.8-1.92,14-7.79a7.72,7.72,0,0,0-1.06-7.16c-1.28-1.85-3.21-3.47-3.56-5.8-.26-1.75-2.85-1.19-2.95.4a16.28,16.28,0,0,1-13.39,14.62c-1.9.32-1.09,3.21.8,2.89Z"/><path class="cls-3" d="M530,356.67a307,307,0,0,0-34.33-41.89A268.56,268.56,0,0,0,453.89,280a234.18,234.18,0,0,0-50.52-25.68,211.27,211.27,0,0,0-55.95-12.14,182.58,182.58,0,0,0-28.45,0c-10.29.83-20.56,3.1-30.93,2.65a47.14,47.14,0,0,1-7.93-1l1.1,1.45c1.78-18.84,13.5-36.52,30.42-45.1,21.57-10.94,46.51-2.85,67.61,5.29,21.72,8.38,42.23,19.71,61.51,32.72a503.73,503.73,0,0,1,54.76,43.37c8.78,7.9,17.79,15.92,24.61,25.64a63.6,63.6,0,0,1,8.2,16.06,102.31,102.31,0,0,1,4.15,17.89c.46,3,.84,6.09,1.19,9.15.22,1.89,3.23,1.92,3,0-1.45-12.57-3.36-25.32-9.17-36.72-5.52-10.85-14.21-19.71-23-27.91a532.55,532.55,0,0,0-55.72-45.6,326.87,326.87,0,0,0-62.23-34.89c-11.58-4.83-23.61-9.2-35.94-11.66-11.56-2.3-23.67-2.58-34.85,1.61-18.48,6.93-32.32,23.92-36.44,43.1a62.15,62.15,0,0,0-1.07,7,1.52,1.52,0,0,0,1.11,1.44c10.34,2.26,20.8.65,31.16-.64A185.69,185.69,0,0,1,339,244.73a203.83,203.83,0,0,1,55.93,9.86,227.76,227.76,0,0,1,51.2,23.93A259.47,259.47,0,0,1,488.58,312a297,297,0,0,1,35,40.71q1.95,2.73,3.85,5.51c1.08,1.58,3.68.08,2.59-1.52Z"/><path class="cls-3" d="M542.24,358.19C552.05,347.26,562,336.08,568,322.5a95.49,95.49,0,0,0,7.61-41.69c-1-29.84-13.62-58-28.72-83.23-3.74-6.27-7.82-12.43-13-17.63s-11.25-9-17.48-12.64a215.69,215.69,0,0,0-20-10.67,52.38,52.38,0,0,0-9.95-3.67c-3-.64-6.49.27-6.53,3.91a11.22,11.22,0,0,0,1.23,4.44c.76,1.8,1.59,3.56,2.48,5.3,1.75,3.39,3.71,6.67,5.72,9.92,3.93,6.32,7.89,12.61,11.48,19.14a263.86,263.86,0,0,1,18.08,40.62,257.7,257.7,0,0,1,10.83,42.55q1.75,10.68,2.57,21.49c.56,7.51.85,15.09,2.41,22.48A54,54,0,0,0,538,333.15c.77,1.77,3.35.24,2.59-1.52-2.91-6.73-4-14.07-4.56-21.33s-1-14.26-1.84-21.37a257.32,257.32,0,0,0-8.58-41.55,267.18,267.18,0,0,0-15.2-39.59q-4.67-9.76-10.11-19.14c-3.67-6.33-7.77-12.41-11.44-18.74a85.94,85.94,0,0,1-5-9.8c-.4-.93-1.35-2.7-.87-3.76.61-1.35,3.19-.37,4.16-.06,6.93,2.16,13.39,5.55,19.71,9.07,6.16,3.43,12.43,6.81,18.15,11a62,62,0,0,1,14.58,15.35,211.52,211.52,0,0,1,11,18.49c3.49,6.42,6.74,13,9.63,19.68,5.61,13,9.91,26.81,11.6,40.93,1.65,13.8.92,28-3.15,41.31a80.47,80.47,0,0,1-8.63,19A139.16,139.16,0,0,1,547,348.29c-2.27,2.62-4.59,5.2-6.9,7.78-1.29,1.43.83,3.56,2.12,2.12Z"/></svg>