<svg id="Layer_1" data-name="Layer 1" xmlns="http://www.w3.org/2000/svg" viewBox="0 0 1920 1080"><defs><style>.cls-1{font-size:60px;font-family:VarelaRound-Regular, Varela Round;}.cls-2{letter-spacing:-0.01em;}.cls-3{letter-spacing:-0.02em;}.cls-4{letter-spacing:-0.01em;}.cls-5{letter-spacing:-0.02em;}.cls-6{letter-spacing:-0.01em;}.cls-7{letter-spacing:-0.03em;}.cls-8{fill:#4d4d4d;}</style></defs><title>42-teeth</title><text class="cls-1" transform="translate(250.3 90.51)"><tspan class="cls-2">T</tspan><tspan x="36.18" y="0">he</tspan><tspan class="cls-3" x="106.68" y="0">r</tspan><tspan class="cls-4" x="128.76" y="0">e</tspan><tspan class="cls-5" x="162" y="0">’</tspan><tspan x="175.32" y="0">s some pears in th</tspan><tspan class="cls-6" x="689.09" y="0">a</tspan><tspan x="722.09" y="0">t pack.</tspan></text><text class="cls-1" transform="translate(1139.3 262.51)"><tspan class="cls-2">T</tspan><tspan x="36.18" y="0">his is no time </tspan><tspan class="cls-7" x="422.51" y="0">f</tspan><tspan x="443.69" y="0">or a snack!</tspan></text><path class="cls-8" d="M547.45,475.87c39.26,21.5,70.9,54.19,96.67,90.38,26.68,37.46,48.4,78.72,66.15,121.08A715.07,715.07,0,0,1,751.4,821.14a720.71,720.71,0,0,1,14.44,140,699.16,699.16,0,0,1-13.23,139.48q-1.71,8.64-3.65,17.22c-.42,1.88,2.47,2.68,2.89.8a702.64,702.64,0,0,0,16.87-140.45,723.51,723.51,0,0,0-11.23-141.07A717.5,717.5,0,0,0,719,700.79c-17-43.26-38.13-85.27-63.94-124-24.53-36.8-54.35-71-91.81-95.07q-7-4.49-14.25-8.45c-1.69-.93-3.21,1.66-1.51,2.59Z"/><path class="cls-8" d="M669.46,839.45c-17.65-7.33-36.72-10.17-55.7-11.29a551.1,551.1,0,0,0-60.15.08q-30.36,1.51-60.47,5.93c-19.3,2.82-38.86,6.08-57.66,11.37-8.44,2.37-16.81,5.47-24.26,10.16a65.38,65.38,0,0,0-17.75,16.79c-10.31,14-16.12,31.17-20.94,47.71-10.57,36.18-14.21,75.41-4.36,112.18,8.2,30.62,25.7,59.13,51.22,78.27,3.18,2.39,6.49,4.61,9.89,6.67v-2.59c-29.49,14.53-62.43,20.18-91.92,34.72-13.22,6.52-25.77,14.84-35.65,25.88-2.34,2.62-5,5.53-5.65,9.11-.6,3.35,1,6.25,3.37,8.49,5.54,5.16,12.79,8.84,19.7,11.79,15.39,6.57,32,9.81,48.53,11.87,17.54,2.19,35.24,3.27,52.88,4.35q53.86,3.3,107.88,3.13,54.17-.18,108.24-3.87,6.74-.45,13.46-1c1.91-.14,1.93-3.14,0-3q-52.67,4-105.51,4.7-52.62.69-105.21-1.94-26-1.31-52-3.42c-16.75-1.39-33.55-3.27-49.81-7.7a120.36,120.36,0,0,1-22.46-8.3,76.12,76.12,0,0,1-9.86-5.88c-2.81-2-7-4.74-6.24-8.76.71-3.64,4.09-6.75,6.55-9.34a93.13,93.13,0,0,1,8.08-7.56,118.85,118.85,0,0,1,18.12-12.26c27.68-15.44,59.23-21.32,88.26-33.54q5.46-2.3,10.78-4.91a1.51,1.51,0,0,0,0-2.59c-27-16.4-46.44-43.23-56.61-72.92-11.92-34.81-10.68-72.76-2.13-108.19,4.11-17,9.36-34.51,17.86-49.93a74.07,74.07,0,0,1,15-19.48,67.88,67.88,0,0,1,22.23-12.85,191.55,191.55,0,0,1,25.61-6.88q14.56-3.12,29.28-5.55,29.21-4.84,58.79-6.92t59.43-1.39c18.76.45,37.71,1.9,55.79,7.24a128.31,128.31,0,0,1,12.65,4.48c1.78.74,2.55-2.16.79-2.89Z"/><path class="cls-8" d="M299.15,881.91c-15,.46-28.09,8.1-39,17.79a169.69,169.69,0,0,0-15.88,16.41c-5.16,6-10.55,12-14.67,18.76a37.6,37.6,0,0,0-4.71,11,34.44,34.44,0,0,0-.32,12.8c1.21,8.29,4.66,16.31,8.46,23.72,7.12,13.89,17,26.22,28.1,37.15,5.61,5.53,11.54,10.72,17.67,15.67,3.07,2.47,6.2,4.89,9.36,7.26q2.37,1.79,4.77,3.52c1.46,1.06,3.22,2.1,4.16,3.69,2.14,3.61-3.84,5.31-6.2,6.12-4.13,1.42-8.3,2.74-12.49,4-8.38,2.55-16.83,4.88-25.22,7.4s-16.49,5.16-24.49,8.4c-7.75,3.14-15.64,6.66-22.52,11.47-6.35,4.44-11.1,10.41-12,18.3-.83,7.49,1.81,15.25,6.27,21.23,4.84,6.49,11.45,11.3,18.4,15.31A184,184,0,0,0,242,1153.13a198.12,198.12,0,0,0,50.8,13q6.45.77,12.93,1.1c1.93.11,1.93-2.89,0-3a195.23,195.23,0,0,1-50.5-9.46,192.23,192.23,0,0,1-23.94-9.66c-7.26-3.52-14.63-7.34-20.9-12.47-6-5-11-11.23-12.71-19-1.72-7.54.13-15,5.72-20.49s13.48-9.13,20.65-12.35A218.36,218.36,0,0,1,247.9,1072c8.11-2.56,16.31-4.85,24.47-7.24,4.12-1.2,8.24-2.43,12.33-3.73a85,85,0,0,0,11.2-3.94c2.9-1.4,5.47-4.21,4.31-7.65s-4.81-5.26-7.47-7.21c-6.24-4.58-12.35-9.35-18.23-14.39-11.68-10-22.56-21.19-31.24-34a118.34,118.34,0,0,1-11-19.91c-3.35-7.85-6.29-16.69-4.94-25.32,1.25-8,6.1-14.82,11.09-21,4.72-5.83,9.57-11.57,14.73-17,9.84-10.41,21.4-20.37,35.52-24.18a45.57,45.57,0,0,1,10.45-1.54c1.92-.06,1.93-3.06,0-3Z"/><path class="cls-8" d="M360,623.3c-18.37,15.73-45.43,17.2-67.5,9.38a79.87,79.87,0,0,1-19.19-9.95c-1.59-1.11-3.09,1.49-1.52,2.59a82.75,82.75,0,0,0,36.42,14.23A74.24,74.24,0,0,0,345,635.64a59.56,59.56,0,0,0,17.2-10.21c1.47-1.26-.66-3.38-2.12-2.13Z"/><path class="cls-8" d="M301.53,620.48c2.73.87,8.12,0,7.85-3.87s-5.57-5.43-8.76-5.48a12.81,12.81,0,0,0-10.34,4.69,17.08,17.08,0,0,0-2.94,5.29c-.69,2.14.66,3.68,2.72,4.11a16.72,16.72,0,0,0,12.75-3c1.58-1.09.08-3.69-1.51-2.59a15,15,0,0,1-7.31,2.81,13.1,13.1,0,0,1-2.17,0,7.47,7.47,0,0,1-1.72-.29,8.24,8.24,0,0,1,.6-1.38,15.7,15.7,0,0,1,1.12-2,9.77,9.77,0,0,1,6-4.37c2.51-.6,5.79-.45,7.82,1.34.67.59,1,1.06.27,1.55a4.36,4.36,0,0,1-3.6.28c-1.84-.59-2.63,2.31-.79,2.89Z"/><path class="cls-8" d="M307.53,512.14a9,9,0,0,1,5.41-9.73c1.65-.63,4.21-.92,5.33.6a3.49,3.49,0,0,1,.21,3.09,16.07,16.07,0,0,1-1.57,3.55,4.23,4.23,0,0,1-1.13,1.42,1.13,1.13,0,0,1-.6.26s-.28,0-.11,0c0,0-.47,0-.28,0a1.68,1.68,0,0,1-.32-.09c.2.07-.19-.14,0,0-.42-.32-.06-.09-.07-.08a.22.22,0,0,1,.06.17v0q.07-.24,0-.12s0-.1.05-.09l.06-.05a.24.24,0,0,1-.13.07c-.09,0-.48-.06-.15,0,1.84.6,2.63-2.3.8-2.89s-3.61,1.12-3.65,2.94a3.3,3.3,0,0,0,3.56,3.17,5.38,5.38,0,0,0,4.36-2.93,17,17,0,0,0,2.19-5.17,6.06,6.06,0,0,0-1.13-5.36,6.45,6.45,0,0,0-4.69-2,10.81,10.81,0,0,0-8.36,3.95,11.84,11.84,0,0,0-2.72,10.06,1.5,1.5,0,0,0,2.9-.79Z"/><path class="cls-8" d="M354.8,513.2c0-.12,0-.25,0-.37s0-.35,0-.08c0-.12.05-.23.08-.35s.14-.42.07-.25.07-.13.1-.18l.18-.29c.08-.14,0,.06-.06.07l.11-.13a3.83,3.83,0,0,1,.28-.29l.26-.23c-.2.16,0,0,.08-.05a7.51,7.51,0,0,1,.68-.39l.17-.08s-.24.09-.08,0l.35-.13a7.16,7.16,0,0,1,.8-.19.93.93,0,1,0,.1,0l.37,0c.28,0,.55,0,.82,0l.19,0s-.26,0-.09,0l.37.08a5.28,5.28,0,0,1,.77.24c-.25-.1,0,0,.09.06a2.58,2.58,0,0,1,.32.18c.09.06.3.22.09.05a3.11,3.11,0,0,1,.33.29,4.12,4.12,0,0,1,.89,1.37c-.08-.18.05.16.07.22s.09.29.13.44l.09.45s0,.26,0,.11,0,.16,0,.19a7.37,7.37,0,0,1,0,.94,3.88,3.88,0,0,1,0,.48c0,.17,0,0,0,0l-.06.32a8,8,0,0,1-1.56,3.46,8.28,8.28,0,0,1-1.35,1.37,5.12,5.12,0,0,1-.71.43c-.19.1-.11.06-.26.07h-.19c-.22,0,.25,0,0,0l-.17,0s.23.12.09,0-.33-.21-.19-.1-.12-.13-.16-.17,0,0,0,.06a1.59,1.59,0,0,1-.15-.21,3.65,3.65,0,0,1-.18-.34c-.13-.24,0,.12-.06-.14s-.08-.27-.11-.4a3.22,3.22,0,0,0-.08-.36,2,2,0,0,0,0-.37c0-.17,0-.34,0-.5a1.64,1.64,0,0,1,0-.22c0,.16,0,.1,0,0l.12-.47a5.6,5.6,0,0,1,.42-.9c.21-.39.44-.78.68-1.16a11.55,11.55,0,0,0,2.09-5.28,1.5,1.5,0,1,0-3,0c-.1,1.63-1.38,3.19-2.22,4.68a7.29,7.29,0,0,0-1,5,4.68,4.68,0,0,0,2.78,3.67c1.95.7,3.86-.6,5.15-2a10.38,10.38,0,0,0,2.75-9.68,6.66,6.66,0,0,0-6.93-4.92c-3.19.21-6.54,2.4-6.35,5.94a1.5,1.5,0,0,0,3,0Z"/><path class="cls-8" d="M322.17,644.1l-5.26,19.56c-.31,1.17-.47,2.81-1.18,3.83s-2.89.42-4,.26a73,73,0,0,1-9.9-2.21l.89,2.21a50.84,50.84,0,0,0,6.69-23.9c.05-1.93-2.95-1.93-3,0a47.47,47.47,0,0,1-6.28,22.38,1.52,1.52,0,0,0,.9,2.2,74.84,74.84,0,0,0,11.06,2.37c1.59.22,3.33.52,4.78-.35a5.44,5.44,0,0,0,2.18-3.3c2.19-7.35,4-14.85,6-22.25a1.51,1.51,0,0,0-2.9-.8Z"/><path class="cls-8" d="M295.09,662.8a9.85,9.85,0,0,1-6.53-1.5,3.49,3.49,0,0,1-1.7-1.85c-.36-1.37.73-3.29,1.17-4.54l6.83-19.52c.64-1.83-2.26-2.61-2.89-.8l-4.12,11.76-2,5.64a45.72,45.72,0,0,0-1.9,5.61c-1.32,6.24,7.13,8.89,11.91,8.1,1.9-.32,1.1-3.21-.8-2.9Z"/><path class="cls-8" d="M562.69,602.59a104.43,104.43,0,0,1,59.57,38.8A103.35,103.35,0,0,1,629.43,753a75,75,0,0,1-12,16.26,53.09,53.09,0,0,1-15.06,10.55c-10.71,5-22.48,7.17-33.62,11a68.44,68.44,0,0,0-15.26,7.06,44.24,44.24,0,0,0-6.85,5.42,72,72,0,0,0-6.37,7.56,45.29,45.29,0,0,1-7.11,7.72,32.61,32.61,0,0,1-8.48,4.8c-6.58,2.61-13.66,3.85-20.59,5.13a341.71,341.71,0,0,1-47.1,5.32q-5.85.25-11.71.31l1.44,1.1c-3.19-14-5.71-31.58,6.16-42.48,5.7-5.24,13.2-5.66,20.56-5.28,7.65.39,15.15.91,22.42-2,13.07-5.23,22.36-17,31.17-27.46,9.35-11.11,18.56-23.19,22.23-37.5,4.16-16.23-.51-32.57-6.18-47.81q-1.08-2.86-2.18-5.73c-.69-1.79-3.59-1-2.89.8,5.82,15.17,12.11,31.59,9.18,48.13-2.6,14.68-11.61,27.16-20.93,38.38-4.57,5.5-9.2,11-14.24,16.1-4.82,4.85-10.24,9.39-16.61,12.06a31.3,31.3,0,0,1-10.27,2.36,112.91,112.91,0,0,1-11.92-.34c-7.41-.37-14.87.17-20.93,4.89a29.78,29.78,0,0,0-10.12,16.28c-2,8-1.17,16.35.37,24.32.39,2,.83,4.06,1.29,6.08a1.52,1.52,0,0,0,1.45,1.1,349.05,349.05,0,0,0,48.54-3.88c7.7-1.16,15.43-2.47,23-4.32,6.58-1.6,13.12-3.93,18.45-8.24S544,809.91,549,805.11A47.83,47.83,0,0,1,563.29,796c11.05-4.77,23-6.81,34.29-11a63,63,0,0,0,16.13-8.55,65.25,65.25,0,0,0,13.94-15,101.4,101.4,0,0,0,15.62-37.36c5.33-26.31.81-54.41-13.56-77.2a108,108,0,0,0-57.61-44.86c-2.84-.92-5.71-1.7-8.62-2.37-1.88-.43-2.68,2.47-.79,2.9Z"/><path class="cls-8" d="M341.25,967.56A252.46,252.46,0,0,1,319,922.26a260.91,260.91,0,0,1-13-48.76,256.53,256.53,0,0,1-3.26-50.36c.54-16.21,2.44-32.55,6.75-48.22,4.11-14.95,10.64-29.55,21-41.22,1.28-1.44,2.61-2.82,4-4.16s-.73-3.46-2.12-2.12c-11.39,11.08-19,25.34-23.89,40.35-5.07,15.57-7.42,32-8.43,48.29A262.28,262.28,0,0,0,314,917.19a257.23,257.23,0,0,0,21.32,46.36q1.63,2.79,3.35,5.52c1,1.64,3.61.13,2.59-1.51Z"/><path class="cls-8" d="M267.59,518.17c-17.43-8.33-37.68-3-53.75,6a104.89,104.89,0,0,0-37.22,35.77c-10.07,16-16.65,35.39-14.67,54.46s12.88,35.32,26.56,48c13.47,12.49,29.87,21.52,47.3,27.18,19.64,6.38,40.47,8.34,61,7.9,10.29-.21,20.58-1,30.81-2.18a196.91,196.91,0,0,0,25.84-4.59c17-4.35,33.41-12,45.85-24.67,12.7-12.92,20.62-30.3,23-48.18a89.35,89.35,0,0,0-9.88-54.13,83.11,83.11,0,0,0-7.37-11.22c-1.18-1.52-3.29.61-2.12,2.12C414.08,568.87,420,587,420.19,605a85,85,0,0,1-15.49,50c-10,14-24.56,23.65-40.62,29.36-16.55,5.89-34.19,8.09-51.63,9.36-20.67,1.51-41.65,1.18-62-3.28a133.15,133.15,0,0,1-48.4-20.89c-14.44-10.21-27.62-24.2-33.8-41-6.6-17.92-3.56-37.71,4.24-54.75A104.61,104.61,0,0,1,204.18,534c13.67-10.33,31.21-18.45,48.7-16.85a38.85,38.85,0,0,1,13.2,3.59c1.73.83,3.26-1.75,1.51-2.59Z"/><path class="cls-8" d="M299.34,505.48c2.25-12,5.08-25.88,14.78-34.22,5.65-4.85,13-6.34,20.27-6.3,2,0,4.05.12,6.07.3,1.76.16,3.72.38,5.06,1.64,2.62,2.44,2.89,7.23,2.93,10.55.11,9.61-4,18.74-7.87,27.31a1.5,1.5,0,0,0,2.59,1.52,48.6,48.6,0,0,1,32.89-21.9c3.17-.53,7.47-1.35,10.35.45s4.57,5.86,5.55,9a32.57,32.57,0,0,1-1.1,21.49c-3,7.58-8.46,14-14.77,19h2.12c-7-6.46-16.64-8.36-25.87-8.76-5.51-.23-11,0-16.53-.29a106,106,0,0,1-16-2.47c-2.88-.6-5.78-1.14-8.71-1.46a42.68,42.68,0,0,0-4.66-.27,16.06,16.06,0,0,1-2.08,0c-.21,0-.4-.12-.6-.15l-.07-.1c-1.15.74-1.52.5-1.12-.72-1.47,1.25.66,3.36,2.12,2.12,2-1.65-.56-4.69-2.68-3.67-2.42,1.17-1.19,4.48.85,5.23a11.72,11.72,0,0,0,4.05.27,43.93,43.93,0,0,1,5.12.38c3.12.4,6.21,1.08,9.29,1.72a100.22,100.22,0,0,0,19.38,2.24c6.29.08,12.65-.18,18.88.82,6,1,12,3,16.54,7.22a1.56,1.56,0,0,0,2.12,0c12.36-9.87,21.06-25.51,17.14-41.63a25.51,25.51,0,0,0-5-10.48c-2.79-3.28-6.66-3.75-10.73-3.42a51.32,51.32,0,0,0-39.05,23.82l2.59,1.52c3.77-8.3,7.57-16.9,8.2-26.11.28-4.12,0-8.68-1.73-12.49a8.5,8.5,0,0,0-3.71-4.14,15.5,15.5,0,0,0-5.9-1.31c-8.26-.69-17.07-.26-24.32,4.19-5.81,3.56-9.95,9.2-12.74,15.33-3.31,7.27-5.06,15.12-6.52,22.93-.36,1.89,2.53,2.7,2.89.8Z"/><path class="cls-8" d="M369.58,451.28a98.61,98.61,0,0,1,30.83-2,57.62,57.62,0,0,1,7.28,1,8.14,8.14,0,0,1,5.32,3.13,24.93,24.93,0,0,1,2.6,6c.84,2.42,1.66,4.84,2.44,7.28q2.68,8.33,4.89,16.81c.48,1.87,3.38,1.07,2.89-.8q-2.08-8-4.59-15.9c-.85-2.66-1.74-5.32-2.66-8a33.09,33.09,0,0,0-2.67-6.45c-2.69-4.4-7.43-5.14-12.16-5.73a99.13,99.13,0,0,0-16.52-.69,101.54,101.54,0,0,0-18.45,2.47c-1.88.42-1.09,3.31.8,2.89Z"/><path class="cls-8" d="M318.43,436.43a98.68,98.68,0,0,1,30.84-2,57.22,57.22,0,0,1,7.27,1,8.14,8.14,0,0,1,5.32,3.13,25,25,0,0,1,2.61,6c.84,2.42,1.65,4.84,2.44,7.28q2.68,8.32,4.88,16.81a1.51,1.51,0,0,0,2.9-.8q-2.08-8-4.6-15.9c-.84-2.66-1.73-5.32-2.65-8a33.12,33.12,0,0,0-2.68-6.45c-2.68-4.4-7.42-5.13-12.15-5.73a99.25,99.25,0,0,0-16.53-.69,103.22,103.22,0,0,0-18.44,2.47c-1.89.42-1.09,3.32.79,2.89Z"/><path class="cls-8" d="M464.5,388.87A279.14,279.14,0,0,1,449,342.6a273.53,273.53,0,0,1-7.13-47.89c-.92-15.68-.76-31.67,1.55-47.23A117.22,117.22,0,0,1,448.87,225a87.36,87.36,0,0,1,4.67-10.74c1.57-3,3.25-6.46,6.06-8.56,3-2.29,7.06-2.33,10.71-2.09a111.76,111.76,0,0,1,12.22,1.53,165,165,0,0,1,23.82,6.15,232.53,232.53,0,0,1,40.72,18.08,188.17,188.17,0,0,1,34.34,24.55,139.87,139.87,0,0,1,26.3,31.69,113.69,113.69,0,0,1,14.67,40.27,94.31,94.31,0,0,1-2.7,41.85,88.07,88.07,0,0,1-3.67,9.84l2-.54q-36-19-70.06-41.34-9.53-6.24-18.87-12.73a1.51,1.51,0,0,0-2.26,1.29l-3.73,61.22-1.87,30.6c-.46,7.67-.8,15.39-2.67,22.87-2,7.81-5.74,15.13-12.59,19.69-1.6,1.06-.1,3.66,1.51,2.59,13-8.64,15.45-24.78,16.39-39.19,1.35-20.76,2.53-41.52,3.8-62.28l2.16-35.5-2.26,1.3q33.35,23.13,68.77,43.06,10,5.64,20.17,11a1.51,1.51,0,0,0,2.05-.54,93.84,93.84,0,0,0,7.85-42.43,111.86,111.86,0,0,0-10.76-42.39A132.2,132.2,0,0,0,591,259a179.16,179.16,0,0,0-33.56-27,232.4,232.4,0,0,0-39.64-19.79,197,197,0,0,0-24-7.79A120.65,120.65,0,0,0,469,200.54c-3.75-.14-7.76.3-10.88,2.56-2.88,2.08-4.72,5.15-6.39,8.22a96.68,96.68,0,0,0-8.57,22.22c-4,15.57-4.88,31.91-4.72,47.92a278.45,278.45,0,0,0,18.87,97.7q2.19,5.65,4.63,11.23c.77,1.76,3.36.24,2.59-1.52Z"/><path class="cls-8" d="M414.8,369.31a291.05,291.05,0,0,0,6.5-47.48,295.11,295.11,0,0,0-1.37-47.93A298.55,298.55,0,0,0,411,227a293.59,293.59,0,0,0-16.46-45q-5-10.84-10.91-21.25c-1.8-3.16-3.59-6.58-6.53-8.84-3.29-2.53-7.41-2.63-11.27-1.54A80.48,80.48,0,0,0,355,154.89q-5.09,2.28-10.16,4.59c-6.79,3.1-13.55,6.26-20.26,9.54a409.51,409.51,0,0,0-39.3,21.61,231.61,231.61,0,0,0-35,26.71,165.24,165.24,0,0,0-28.33,34.8c-8.73,14.46-15.22,30.15-20.91,46-1.4,3.89-2.75,7.8-4.08,11.72a1.51,1.51,0,0,0,.69,1.69c15.26,8.8,33.78,7.86,50.44,4.39a177.21,177.21,0,0,0,74.6-35.2l-2.51-1.46A198.23,198.23,0,0,0,305,352.43a195.11,195.11,0,0,0,.83,21.07c.18,1.9,3.18,1.92,3,0A196.14,196.14,0,0,1,316,300,199.37,199.37,0,0,1,323,280.09c.65-1.56-1.5-2.27-2.5-1.46a174.52,174.52,0,0,1-69.08,33.51,112.06,112.06,0,0,1-25.18,3.32c-9.43,0-18.9-1.73-27.15-6.49l.69,1.7c5.31-15.67,11-31.27,18.58-46a162.94,162.94,0,0,1,26.26-37.48,204,204,0,0,1,32.72-27.75A343.66,343.66,0,0,1,315,177.18c13-6.73,26.33-12.88,39.7-18.89,3.44-1.55,6.87-3.28,10.44-4.52s7.76-1.75,10.86,1.15c2.66,2.49,4.33,6.09,6.08,9.23q2.86,5.13,5.51,10.37A286.91,286.91,0,0,1,405.19,218a297,297,0,0,1,10.44,45.72,294.56,294.56,0,0,1,3.05,46.82,286.58,286.58,0,0,1-4.49,46.68q-1,5.67-2.29,11.3c-.42,1.88,2.47,2.68,2.9.8Z"/><path d="M1135.81,622.44c0-.17,0-.35,0-.53,0-.34,0,0,0-.25a6.1,6.1,0,0,1,.22-.84c.09-.24,0,.07.1-.23l.24-.44.24-.36c.26-.37-.18.2.12-.15a8.31,8.31,0,0,1,.65-.68s.41-.34.21-.18l.36-.26a8.85,8.85,0,0,1,.84-.5l.47-.22c-.23.1.17-.06.2-.07a6.59,6.59,0,0,1,.86-.27l.51-.11a.8.8,0,0,1,.26,0,6.55,6.55,0,0,1,.88,0l.52,0c.35,0,0,0,.24,0a6.45,6.45,0,0,1,.84.21,3.25,3.25,0,0,1,.4.15c-.26-.12.24.13.28.15a3.81,3.81,0,0,1,1.26,1.09l-.44-1.06a7.88,7.88,0,0,1,0,1.19c0-.3,0,.26-.07.32a4.94,4.94,0,0,1-.15.55c0,.06-.21.57-.1.31-.06.13-.12.26-.19.39a6.57,6.57,0,0,1-.61,1c.16-.21-.19.22-.22.25s-.27.29-.41.43l-.32.29s-.47.38-.28.24a10.2,10.2,0,0,1-1.89,1.1,10.47,10.47,0,0,1-2.12.59c-.18,0-.2,0,0,0l-.3,0-.44,0a8.93,8.93,0,0,1-1.16,0c.31,0-.26,0-.31-.06a5.12,5.12,0,0,1-.56-.15l-.4-.13c-.17-.07-.18-.07,0,0l-.26-.12a4.4,4.4,0,0,1-1.65-1.3,1.5,1.5,0,0,0-2.12,2.13c3.86,4.41,11.34,3,14.74-1.28a8.24,8.24,0,0,0,1.79-3.77,4.93,4.93,0,0,0,0-2.53,4.76,4.76,0,0,0-1.74-1.77,8.66,8.66,0,0,0-8.14-.44c-3,1.26-5.37,4-5.29,7.37,0,1.93,3,1.94,3,0Z"/><path d="M1073.58,391.83c3,23.21,11.87,45,19.6,66.89a269.88,269.88,0,0,1,9.88,33.4c2.38,11.22,3.3,22.66,4.8,34,1.66,12.58,4.12,25.16,10.07,36.48.9,1.71,3.49.19,2.59-1.52-10.65-20.24-9.68-43.92-13.79-65.87-4.25-22.71-13.46-44-20.79-65.84-4.11-12.23-7.68-24.73-9.36-37.56a1.56,1.56,0,0,0-1.5-1.5,1.5,1.5,0,0,0-1.5,1.5Z"/><path d="M1217.24,370.34l.71,51.37.71,51.37.4,28.93c0,1.93,3,1.94,3,0l-.71-51.37-.71-51.37-.4-28.93c0-1.93-3-1.93-3,0Z"/><path d="M1240.44,547.64a7,7,0,0,1-.26-1.25,9.9,9.9,0,0,1,0-1.54l0-.3c0-.48,0,.14,0-.13s.09-.51.15-.76.13-.49.21-.74l.12-.36s.15-.38.1-.25a8.07,8.07,0,0,1,3.57-4l-2.26-1.3.27,6.17a1.5,1.5,0,1,0,3,0l-.27-6.17a1.51,1.51,0,0,0-2.26-1.29,11.37,11.37,0,0,0-5.3,12.75,1.5,1.5,0,1,0,2.89-.8Z"/><path class="cls-8" d="M282.13,703.21l-85.22,9.31-21.06,2.3c-5.61.62-11.77.81-15.1,6.1a27.23,27.23,0,0,0-2.8,7.43,37.43,37.43,0,0,1-2.6,7.19,32.75,32.75,0,0,1-10.15,11.87,31.87,31.87,0,0,1-6.72,3.7c-2.82,1.11-5.8,1.72-8.71,2.6-5.19,1.56-10.35,4.44-11.91,10-1.47,5.24,1.94,9.46,6.8,11a36.38,36.38,0,0,0,7.92,1.21l10.38.87c14.09,1.19,28.17,2.45,42.27,3.55a94.55,94.55,0,0,0,19.9-.08A52.16,52.16,0,0,0,223,774.2c5.43-2.94,10.51-6.46,15.83-9.58a102.77,102.77,0,0,1,16.86-7.91,104.73,104.73,0,0,1,37-6.2c3.07,0,6.13.24,9.18.55,1.92.2,1.91-2.8,0-3a106.69,106.69,0,0,0-36.48,2.59,114,114,0,0,0-33.08,14.44c-5.14,3.22-10.26,6.57-15.84,9a48.7,48.7,0,0,1-18.19,3.75,173.43,173.43,0,0,1-19.72-1l-20.76-1.74-20.27-1.7c-3-.26-6.14-.37-9.16-.86-2.25-.36-4.73-1-6.38-2.64-3.83-3.9.33-9.49,4.08-11.5a37.85,37.85,0,0,1,8.19-2.78,42.52,42.52,0,0,0,7.74-2.78,36,36,0,0,0,18.71-23.13,28.33,28.33,0,0,1,2.46-6.95,8.9,8.9,0,0,1,6.3-4.1c3.15-.65,6.42-.81,9.61-1.16l10.41-1.14,82.5-9,10.15-1.11c1.9-.21,1.92-3.21,0-3Z"/><path class="cls-8" d="M442.26,529.25c16.92-12,28.25-31,32-51.29a81.59,81.59,0,0,0-.05-30.64,70.92,70.92,0,0,0-4.66-14.87c-2.3-5.23-5.48-10.18-10.13-13.6-5-3.71-11.35-4.71-17.41-5.29-7.12-.67-14.25-1.21-21.37-1.76-14.23-1.1-28.53-2.2-42.81-2-13.31.21-26.65,1.87-39.2,6.49a125,125,0,0,0-31.52,17.57,243.37,243.37,0,0,0-27.37,24.38c-8.22,8.35-17,17.44-20.41,29a32.51,32.51,0,0,0-1.3,8.48c0,1.93,3,1.93,3,0,.22-11.84,8-21.72,15.68-30a269.07,269.07,0,0,1,25.52-24.22,140,140,0,0,1,29.23-19,103.47,103.47,0,0,1,36.41-9.28c13.43-1,27-.23,40.37.65,7,.46,14.05,1,21.07,1.58,6.45.53,13.14.67,19.48,2.06a22.6,22.6,0,0,1,13.95,8.87A48.82,48.82,0,0,1,469.55,441a75.85,75.85,0,0,1,2.82,29.28c-1.87,19.63-11.05,38.71-25.87,51.83a68.86,68.86,0,0,1-5.76,4.58c-1.56,1.11-.06,3.71,1.52,2.59Z"/><path class="cls-8" d="M1285.18,650.7c2.31,13.51,12.11,24.15,18.2,36a45.74,45.74,0,0,1,4,10.56c.44,1.88,3.34,1.08,2.9-.8-3.13-13.39-12.94-23.79-18.74-36a40.44,40.44,0,0,1-3.48-10.6c-.33-1.9-3.22-1.1-2.9.79Z"/><path class="cls-8" d="M1288.83,651.07c16.34,10.29,32.75,20.47,49.42,30.23q7.08,4.14,14.21,8.17a1.46,1.46,0,0,0,1.51,0c7.48-5.75,17.48-7.92,26.75-8l-1.29-2.25a3.62,3.62,0,0,1-1.28,1.41s-.38.24-.22.09c-.07.06.12,0,.18.09.37.31.32.59.28,1s-.18.13.07.05a7.88,7.88,0,0,1,2.26-.39l-1.29-2.25c-2.92,5-5.8,10.1-8.77,15.11-2,3.46-5.21,7.44-4,11.73,1,3.51,4.49,5.78,7.86,6.61,3.57.89,7.33.67,11,.54s8.07-.5,11.59,1.18V711.8a189.17,189.17,0,0,0-25.37,21.4,1.5,1.5,0,0,0,2.12,2.12,185.25,185.25,0,0,1,24.76-20.93,1.51,1.51,0,0,0,0-2.59c-6.21-3-13.44-1.12-20-1.55-3-.19-6.16-.92-8.12-3.37-2.7-3.38.64-7.51,2.44-10.47,3.15-5.15,6.08-10.45,9.11-15.68a1.52,1.52,0,0,0-1.3-2.26c-1.49,0-3.26.2-4.41,1.26a2.25,2.25,0,0,0-.42,3c1.9,2.52,5-.23,6.13-2a1.52,1.52,0,0,0-1.3-2.26c-9.74.09-20.4,2.36-28.26,8.41H1354c-16.77-9.48-33.27-19.45-49.63-29.63q-7-4.37-14-8.77c-1.64-1-3.15,1.57-1.51,2.59Z"/><path class="cls-8" d="M1293,749.08l12.14,53.25c2,8.78,4.23,17.6,4.94,26.6a70.62,70.62,0,0,1-2.58,24.79,90.72,90.72,0,0,1-4.85,13.07c-1,2.16-2,4.35-3.2,6.41-.63,1.07-2.33,3.1-3.68,2.09-1.55-1.16-3,1.45-1.52,2.59,3.11,2.33,6.72-1.16,8.12-3.78a106.58,106.58,0,0,0,5.51-12.06,78.78,78.78,0,0,0,5.39-25.53c.3-9.46-1.58-18.81-3.65-28-2.12-9.44-4.29-18.86-6.44-28.29l-7.29-31.94c-.43-1.89-3.32-1.09-2.89.79Z"/><path class="cls-8" d="M1294.42,655.7a1.18,1.18,0,0,1,0-.2c.09-.32-.06.1-.06.11s.1-.17.1-.18.17-.11-.07.08a2.2,2.2,0,0,0,.31-.3c-.27.28-.19.15-.06.07l.19-.12c.13-.06.31-.06-.07,0l.22-.08.23-.06c.13,0,.35,0-.09,0,.15,0,.3,0,.45,0s.36,0,.08,0,.07,0,.13,0l-.9-2.2c-.1.15-.2.3-.31.44l-.18.26,0-.06a5.9,5.9,0,0,1-.78.8c-.3.26.21-.13,0,0l-.2.14-.27.15c-.13.07-.33.08.06,0-.19,0-.37.13-.56.17l-.17,0,.19,0h-.39l.26,0a.71.71,0,0,1-.28-.06l-.21-.06c-.24-.08.37.18,0,0-.15-.08-.28-.18-.42-.26.35.21.19.15.09.06l-.19-.19c-.1-.12-.1-.23.08.11l-.12-.21c-.12-.19.11.38.06.15a.17.17,0,0,1,0-.1c0-.15,0-.07,0,.24a.38.38,0,0,0,0-.15c-.05.32-.06.4,0,.25s0-.06,0,.09c-.14.3,0,0,0,0-.19.23-.23.29-.13.18s.06-.06-.16.12a1.66,1.66,0,0,0,.69-.9,1.49,1.49,0,0,0-2.2-1.69,2.63,2.63,0,0,0-1,1.34,2.42,2.42,0,0,0,0,1.41,3.73,3.73,0,0,0,1.67,2,4.08,4.08,0,0,0,2.83.55,5.17,5.17,0,0,0,2.5-1.23,9.36,9.36,0,0,0,1.76-2.1,1.51,1.51,0,0,0-.9-2.2,4.75,4.75,0,0,0-3.25.41,3.54,3.54,0,0,0-1.84,2.33,1.58,1.58,0,0,0,.16,1.15,1.47,1.47,0,0,0,.89.69,1.52,1.52,0,0,0,1.85-1Z"/><path class="cls-8" d="M1321.75,758.13c8.19,2.09,16.66,4.19,24,8.56a28.66,28.66,0,0,1,8.94,8.07,37.79,37.79,0,0,1,5.13,11.46c5.39,19,4.75,39.55-.49,58.54-2.89,10.48-6.72,21.18-5.37,32.22.24,1.9,3.24,1.92,3,0-1.24-10.15,2-20,4.76-29.61a120.72,120.72,0,0,0,4.81-30.19,111.36,111.36,0,0,0-3.35-30c-2.17-8.5-6.09-16.18-13.36-21.37-8-5.7-17.91-8.15-27.27-10.54-1.87-.47-2.66,2.42-.79,2.9Z"/><path class="cls-8" d="M1388.56,868.33c-13,6.8-27.24,13.94-35.71,26.47a33.83,33.83,0,0,0-4.43,9.2,31,31,0,0,0-1,9.54,4.34,4.34,0,0,1-.27,2,3.35,3.35,0,0,1-2,1.44,31.47,31.47,0,0,0-4.61,2.21,23.65,23.65,0,0,0-7,6.41c-1.73,2.39-3.79,6.15-2.8,9.17s4.13,3.82,6.84,4.13c3.76.42,7.68,0,11.46-.15l12.73-.45q12.86-.48,25.71-1L1394,937a51.21,51.21,0,0,0,5.94-.38,6.57,6.57,0,0,0,4.21-2.24,16.59,16.59,0,0,0,2.25-4.68,131.45,131.45,0,0,0,8.7-46.85c0-2-.06-4-.15-6s-3.1-1.93-3,0a128.25,128.25,0,0,1-5.81,44.5c-.57,1.79-1.17,3.58-1.81,5.35a39.6,39.6,0,0,1-2,4.94c-.83,1.58-2.18,2-3.88,2.16-2,.17-4,.19-6,.27q-12.11.52-24.22,1t-24,.85c-2.89.1-6.35.59-9.1-.6-3.18-1.36-1-5.25.33-7.31a20,20,0,0,1,6.36-6.12,25.09,25.09,0,0,1,3.88-1.94c1.52-.61,3-1.25,3.91-2.74a7.25,7.25,0,0,0,.74-3.86,31.53,31.53,0,0,1,.08-4.86,26,26,0,0,1,2.87-8.75c7.43-14.14,23.16-21.76,36.69-28.83,1.72-.89.2-3.48-1.51-2.59Z"/><path class="cls-8" d="M1298.68,880.07A31.7,31.7,0,0,0,1310,896.33a39.75,39.75,0,0,0,9.25,5.37c4,1.66,8.27,2.4,12.24,4.08a1.55,1.55,0,0,0,2-.54,1.5,1.5,0,0,0-.54-2c-3.73-1.58-7.7-2.39-11.49-3.8a36.93,36.93,0,0,1-9.1-5,28.76,28.76,0,0,1-10.84-15.15,1.51,1.51,0,0,0-2.9.8Z"/><path class="cls-8" d="M1298.74,858.53l-19.56,11c-5.56,3.15-12.18,6-16.29,11.1-3.66,4.54-4.65,10.26-4.12,16a67.56,67.56,0,0,0,3.72,16.17c2,5.56,5.24,10.59,10.71,13.2l-.69-1.69c-.23.72-2.56.88-3.2,1-1.51.33-3.23.85-4.08,2.26-1.11,1.83-.16,4,1.44,5.17,2,1.43,4.62,1.49,6.95,1.62a137.93,137.93,0,0,0,31.69-2A132,132,0,0,0,1322.8,928c1.82-.6,1-3.49-.8-2.89a130.94,130.94,0,0,1-28.44,5.87,135.73,135.73,0,0,1-14.54.57c-2.39,0-4.79-.1-7.17-.3-.78-.06-5-.71-3.95-2.23.32-.46,1.32-.6,1.81-.71.75-.18,1.51-.3,2.26-.49a4.33,4.33,0,0,0,3.44-2.72,1.52,1.52,0,0,0-.69-1.69c-4.54-2.16-7.36-6.15-9.1-10.76a68.44,68.44,0,0,1-3.67-14.49c-.73-5.23-.39-10.85,2.93-15.18a23.69,23.69,0,0,1,6.44-5.43c2.77-1.73,5.66-3.28,8.51-4.89l20.43-11.52a1.5,1.5,0,0,0-1.52-2.59Z"/><path class="cls-8" d="M1412.19,853.59a119.47,119.47,0,0,0-5-27.69c-.56-1.84-3.45-1-2.89.8a116,116,0,0,1,4.88,26.89c.11,1.92,3.11,1.93,3,0Z"/><path class="cls-8" d="M1286.17,747.6a150.66,150.66,0,0,1-18.08-28.6c-2.44-4.88-4.71-9.84-6.91-14.83-1.08-2.45-2.14-4.9-3.2-7.36a50.14,50.14,0,0,1-3.06-8.19c-1.32-5.54,1-10.61,6.25-13l-1.81-.23c4.61,4.38,8,10.08,11.63,15.26,4.21,6,8.54,12.24,14.13,17.07a23.54,23.54,0,0,0,9,5.18,1.51,1.51,0,0,0,.8-2.9c-6.11-1.66-10.78-7-14.61-11.78-4.49-5.56-8.33-11.6-12.53-17.38a53,53,0,0,0-6.28-7.57,1.58,1.58,0,0,0-1.82-.24,13.56,13.56,0,0,0-8.12,11.13c-.51,5.89,2.79,11.67,5.06,16.9,4.69,10.83,9.57,21.61,15.63,31.76a136.67,136.67,0,0,0,11.82,16.85c1.23,1.5,3.34-.64,2.12-2.12Z"/><path class="cls-8" d="M1388.42,762.68c14.51.16,29.21-2.11,42.59-7.86,11.94-5.13,22.66-13.49,28.67-25.22a51.67,51.67,0,0,0,5.45-21,1.52,1.52,0,0,0-2.56-1.07,125.43,125.43,0,0,1-14.18,10.67,63.62,63.62,0,0,1-18.31,7.7c-6.92,1.71-14,2.57-21,3.74-6.57,1.11-13.2,2.43-19.25,5.32-5,2.37-10.22,6.36-10.19,12.38a1.5,1.5,0,0,0,3,0c0-5,5-8.08,9-10,6-2.77,12.63-3.94,19.09-5,6.79-1.12,13.66-2,20.35-3.64a65.9,65.9,0,0,0,17.83-7.36,125.3,125.3,0,0,0,15.78-11.73l-2.56-1.06a47.22,47.22,0,0,1-15.85,33.29c-9.22,8.17-21.18,12.87-33.11,15.43a112.4,112.4,0,0,1-24.75,2.36,1.5,1.5,0,0,0,0,3Z"/><path class="cls-8" d="M1357.08,702.16a17.13,17.13,0,0,0-10.55-5.93,1.52,1.52,0,0,0-1.85,1.84l1.43,5.44.71,2.71.33,1.26c.06.2.1.42.17.62s0,.21,0,.08c.35-1,1-1.06,2-.32a1.51,1.51,0,0,0-2-.54,1.55,1.55,0,0,0-.54,2.06c.68,1.55,3,1,3.47-.32a3.26,3.26,0,0,0-.06-2.07l-.52-2-2-7.73-1.84,1.84a14.46,14.46,0,0,1,9.23,5.17,1.52,1.52,0,0,0,2.12,0,1.54,1.54,0,0,0,0-2.13Z"/><path class="cls-8" d="M1344.12,687.15a15.46,15.46,0,0,1-.45,1.78c-.07.25-.16.5-.25.75l-.18.49c-.12.3.09-.2-.06.12a17.34,17.34,0,0,1-1.75,3.08l2.36-.31c-.43-.47-.86-.95-1.27-1.44l-.61-.75-.17-.22,0,0-.29-.39a36.21,36.21,0,0,1-2.14-3.19,1.5,1.5,0,1,0-2.59,1.51,39.85,39.85,0,0,0,4.92,6.56,1.45,1.45,0,0,0,1.26.42,1.57,1.57,0,0,0,1.1-.72,18,18,0,0,0,3-6.93,1.5,1.5,0,1,0-2.89-.8Z"/><path class="cls-8" d="M1308.65,684c3.78,5.06,8,10.64,8.18,17.22.06,1.92,3.06,1.93,3,0-.21-7.18-4.44-13.19-8.59-18.73a1.55,1.55,0,0,0-2-.54,1.51,1.51,0,0,0-.54,2.05Z"/><path class="cls-8" d="M1432.75,860.39a929.55,929.55,0,0,1,71-89.77q10.75-12,21.93-23.63a1.52,1.52,0,0,0-1.46-2.51l-18.32,2.67,1.7,2.2,56.94-115,16.1-32.5a1.51,1.51,0,0,0-1.69-2.2l-69.68,12.83,1.85,1.85q15.43-74.42,36.59-147.49,6-20.59,12.39-41.06a1.51,1.51,0,0,0-1.84-1.85c-40.09,12.51-76.67,33.52-112.85,54.41l2.25,1.3.49-68.06.24-34c.07-9.89.38-19.84-.62-29.69-1-10.24-3.59-20.33-9.42-28.94a1.52,1.52,0,0,0-2.59,0l-16.6,23.46-4,5.65c-1.27,1.8-2.51,3.87-4.35,5.15-4.25,2.94-10-1-14-2.75L1343.87,327l-30.14-13.39c-1.29-.58-2.86.65-2,2.05a903.18,903.18,0,0,1,47.22,93.55q6.12,14.13,11.76,28.47l1.44-1.9-43.69-1.4a1.52,1.52,0,0,0-1.29,2.26q24.24,48.21,51.42,94.87,7.82,13.43,15.87,26.7l1.7-2.21-18.63-4.61a1.52,1.52,0,0,0-1.85,1.05,216.38,216.38,0,0,0,13.71,118.3c.74,1.75,3.64,1,2.9-.8a213.43,213.43,0,0,1-13.71-116.7l-1.85,1,18.63,4.61a1.52,1.52,0,0,0,1.69-2.21q-28-46.14-53.1-93.94-7.22-13.75-14.19-27.63l-1.3,2.26,43.69,1.4a1.51,1.51,0,0,0,1.45-1.9A907,907,0,0,0,1329,340.5q-7.14-13.31-14.71-26.35l-2,2.05L1370,341.88l28.65,12.73c3.49,1.55,7.4,3.55,11.31,2.37,3.74-1.12,5.93-4.82,8-7.82l20.28-28.68h-2.59c10.86,16,9.78,36.45,9.65,55l-.48,66.44-.27,37.81a1.51,1.51,0,0,0,2.26,1.29c36-20.76,72.29-41.67,112.13-54.11l-1.84-1.84q-22.74,72.53-39.82,146.65-4.81,20.9-9.16,41.9a1.52,1.52,0,0,0,1.84,1.85l69.67-12.84-1.69-2.2-56.94,115L1505,747.83a1.52,1.52,0,0,0,1.69,2.21l18.32-2.67-1.46-2.5a935.57,935.57,0,0,0-74.2,87.44q-9.81,13.11-19.15,26.57c-1.1,1.59,1.49,3.09,2.59,1.51Z"/></svg>