<svg id="Layer_1" data-name="Layer 1" xmlns="http://www.w3.org/2000/svg" viewBox="0 0 1920 1080"><defs><style>.cls-1{fill:#39b54a;opacity:0.5;}</style></defs><rect class="cls-1" x="424" y="399" width="908" height="354" transform="translate(206.95 -231.68) rotate(17.01)"/><path d="M693.65,540c0,1.44,0,3.6-.07,6.48s-.15,6.11-.31,9.71-.41,7.31-.7,11.16-.7,7.47-1.21,10.85a72.46,72.46,0,0,1-1.84,8.89c-.72,2.53-1.58,4.23-2.6,5.07a16.17,16.17,0,0,1-3,2c-1.23.68-2.5,1.31-3.81,1.91s-2.6,1.12-3.87,1.58a31.88,31.88,0,0,1-3.43,1.08q2.42,5.72,4.7,11.23t4.57,11.23l-18.78,4.44q-3.69-5.33-6.92-10.66t-6.92-10.53a15.27,15.27,0,0,1-2,.13h-2c-1.44,0-3.57-.08-6.41-.26s-6-.42-9.51-.76-7.17-.76-11-1.27-7.34-1.05-10.6-1.65a65.71,65.71,0,0,1-8.44-2q-3.56-1.14-4.56-2.41c-1.19-1.43-2.18-3.82-3-7.17a103.54,103.54,0,0,1-2-10.78q-.76-5.77-1.15-11.17c-.25-3.6-.38-6.32-.38-8.19q-.12-3.16-.12-6.28v-6.41c0-1.6,0-3.68.06-6.22s.19-5.15.44-7.86a52.19,52.19,0,0,1,1.27-7.62,12.05,12.05,0,0,1,2.67-5.45c.67-.77,2.18-1.51,4.5-2.23s5.1-1.39,8.32-2,6.68-1.2,10.4-1.71,7.36-1,10.92-1.39,6.83-.74,9.83-1,5.35-.36,7-.44c2.46-.08,4.91-.15,7.36-.19s4.91-.06,7.36-.06c3.22,0,6.62.06,10.22.19A40.25,40.25,0,0,1,679,511.94a23.55,23.55,0,0,1,8.63,4.63,17,17,0,0,1,5.26,9,27.17,27.17,0,0,1,.45,3c.13,1.27.21,2.63.25,4.06s.07,2.84.07,4.19Zm-27.41,7.37v-1.65a17.15,17.15,0,0,0-.13-2,9.36,9.36,0,0,0-.45-1.91,3.58,3.58,0,0,0-.82-1.39,5.67,5.67,0,0,0-1.78-.89,10.5,10.5,0,0,0-2.47-.51c-.89-.08-1.78-.15-2.67-.19s-1.58-.06-2.09-.06c-1.19,0-3,.08-5.52.25s-5.29.42-8.38.76-6.32.74-9.7,1.21-6.52,1-9.4,1.58a70.33,70.33,0,0,0-7.42,1.91q-3.1,1-3.87,2.15a4,4,0,0,0-.57,2c0,.85-.06,1.61-.06,2.29,0,1.69.12,3.81.38,6.34s.59,5.16,1,7.87.87,5.33,1.33,7.87.91,4.61,1.34,6.22q3,1.14,5.45,1.84a44.37,44.37,0,0,0,4.7,1.08c1.52.25,3.11.44,4.76.57s3.57.23,5.77.31l-7.87-12.69q3.3-1.64,6.22-3.17c2-1,3.89-1.94,5.84-2.79s3.95-1.61,6-2.28,4.33-1.31,6.79-1.91l8.5,17.39A78.17,78.17,0,0,0,665,562.7,99,99,0,0,0,666.24,547.41Z"/><path d="M794.92,598.93l-21.45.89L772,587a23.39,23.39,0,0,1-5.78,5.58,32,32,0,0,1-7.23,3.68,39.48,39.48,0,0,1-8,2,58.78,58.78,0,0,1-8.06.57,69.24,69.24,0,0,1-7.55-.51c-3-.33-6.05-.82-9.13-1.46a53.58,53.58,0,0,1-8.57-2.47,14.48,14.48,0,0,1-5.71-3.55,10.34,10.34,0,0,1-2.09-4.89,50.32,50.32,0,0,1-1-7.17c-.18-2.54-.26-5-.26-7.36v-5.71q0-9.52.76-18.78t2.16-18.4a70.07,70.07,0,0,1,7.61-.38,48.78,48.78,0,0,1,6.6.44q3.3.45,6.6,1.08c0,.42,0,1.65.13,3.68s.19,4.44.32,7.23.27,5.78.44,9,.36,6.11.57,8.82.47,5,.76,6.91.62,2.95.95,3.11a8.86,8.86,0,0,0,4.19,1.27c1.53.09,3,.13,4.44.13,1,0,2.6-.06,4.76-.19s4.38-.34,6.67-.63a61.16,61.16,0,0,0,6.34-1.15,8.43,8.43,0,0,0,3.93-1.71,4.82,4.82,0,0,0,.57-2.41c.13-1.35.22-2.83.26-4.44s.08-3.11.13-4.51.06-2.22.06-2.47c0-3.81-.09-7.57-.25-11.3s-.34-7.48-.51-11.29l24.62-1.14q.75,8.88,1.39,17.7t1.65,17.7a55.5,55.5,0,0,1,.45,6q.06,3,.19,6.09c.17,3.81.27,7.61.31,11.42S794.83,595,794.92,598.93Z"/><path d="M898,548.17q0,10.65-.76,21.19t-1.52,21.07q-14.22,1.26-28.3,2.15t-28.3.89c-.85,0-2.41,0-4.7-.06s-4.69-.13-7.23-.26-4.95-.29-7.23-.5a11.44,11.44,0,0,1-10.41-6.73,18.35,18.35,0,0,1-1.65-7.93c0-1,0-2.37.13-4.06s.25-3.47.5-5.33a43.16,43.16,0,0,1,1-5.2,10.09,10.09,0,0,1,1.52-3.56c.76-1,2.5-1.88,5.2-2.6a67.56,67.56,0,0,1,9.71-1.71c3.77-.43,7.83-.76,12.19-1s8.52-.44,12.49-.57,7.53-.19,10.67-.19H868a41,41,0,0,0,.38-5.46V547a3.81,3.81,0,0,0-.13-1.33c-.25-.51-1-.93-2.41-1.27a32.2,32.2,0,0,0-5-.76c-2-.17-4.14-.32-6.47-.45s-4.59-.19-6.79-.19h-9.52q-8,0-16,.32t-16,.57q.51-4.82.83-9.77a83.92,83.92,0,0,0,.06-9.77A185.88,185.88,0,0,1,825.56,522q9.33-.69,18.85-.7c2.28,0,4.78,0,7.48.07s5.42.12,8.13.25,5.39.32,8.05.57,5.14.59,7.43,1a27.8,27.8,0,0,1,7,2.28,34,34,0,0,1,6.54,4.06,29,29,0,0,1,5.33,5.52,21.16,21.16,0,0,1,3.3,6.66,6.77,6.77,0,0,1,.19,1.27c0,.6.06,1.25.06,2v3.24ZM869.66,578V561.75c-2.45-.09-4.91-.15-7.36-.2s-4.91-.06-7.36-.06l-4.25.06c-2.33.05-4.82.15-7.49.32s-5.1.38-7.3.64-3.47.63-3.8,1.14a5.79,5.79,0,0,0-.83,2.09,13.48,13.48,0,0,0-.19,2.22c0,.6,0,1.4.13,2.41a29.17,29.17,0,0,0,.44,3.18c.21,1.1.45,2.11.7,3a4.52,4.52,0,0,0,1,2,3.1,3.1,0,0,0,1.71,1,20.69,20.69,0,0,0,2.6.5c.93.13,1.86.21,2.79.26s1.65.06,2.16.06q3,0,6.54-.25t7.1-.57c2.41-.22,4.76-.47,7.05-.77Z"/><path d="M993.39,538.52a42.09,42.09,0,0,1-1.52,11.3c-.59.08-2.35.19-5.27.31s-6.39.3-10.4.51-8.34.47-13,.76-8.88.62-12.81,1-7.28.7-10,1.08-4.29.74-4.63,1.08a11.2,11.2,0,0,0-3,4.32,13.48,13.48,0,0,0-1,5.07,6.86,6.86,0,0,0,.31,2.35,8.2,8.2,0,0,0,1.08,1.84,6.07,6.07,0,0,0,2.67.64c1.52.17,3.21.29,5.07.38s3.6.14,5.21.19l2.79.06q9.14,0,18.27-.38t18.28-1l1,21.83q-12.69,1-25.44,2t-25.57,1h-1.84c-.81,0-1.67,0-2.6-.06s-1.82-.11-2.67-.19a14,14,0,0,1-1.78-.26c-1.77-.51-3.53-1.08-5.26-1.71a25.26,25.26,0,0,1-4.89-2.41,17.84,17.84,0,0,1-4-3.49,12.41,12.41,0,0,1-2.47-5,34.11,34.11,0,0,1-.83-5c-.21-2.08-.36-4.21-.44-6.41s-.15-4.36-.19-6.47-.06-3.9-.06-5.33q0-4.95.12-9.27a26.22,26.22,0,0,1,1.4-7.93,17,17,0,0,1,4.12-6.47,24.33,24.33,0,0,1,8.19-5,28.16,28.16,0,0,1,7.23-1.59q4.83-.57,10.09-.89t10.09-.44q4.82-.14,7.49-.13,8.88,0,17.7.38t17.7,1q.39,3.17.64,6.28T993.39,538.52Z"/><path d="M1088.82,535.48l-32.61,23.6q.38,1.53,1.52,4.89c.76,2.24,1.61,4.56,2.54,7a70.18,70.18,0,0,0,3,6.72,10.32,10.32,0,0,0,3,4,7.25,7.25,0,0,0,2.29,1c.93.26,1.88.47,2.85.64a24.36,24.36,0,0,0,2.92.32c1,0,1.8.06,2.48.06,1.18,0,2.41,0,3.68-.13s2.49-.21,3.68-.38c-.17,1.1-.3,2.22-.38,3.36s-.13,2.31-.13,3.49q0,3.06.13,6.1t.12,6c-.59.09-1.63.19-3.11.32s-3.17.25-5.07.38-3.92.27-6,.44l-5.9.45c-1.82.12-3.38.19-4.7.19a7,7,0,0,1-2.47-.26q-2.16-1-4.19-2.15a10.26,10.26,0,0,1-3.42-3.18,26.69,26.69,0,0,1-2.1-4.82c-1-2.62-2-5.5-3-8.63s-2-6.05-2.92-8.75-1.46-4.45-1.72-5.21L1027,578.75v22.08L1001.89,603q.76-17.76,1.65-35.34t.89-35.47q0-5.46-.06-10.79c0-3.55-.11-7.19-.19-10.91a73.71,73.71,0,0,0,10.34,1.27c3.43.17,6.87.42,10.34.76V560q9.9-6.09,19.36-12.44a195.38,195.38,0,0,0,18.33-14q6.73.76,13.14,1.14Z"/><path d="M1121.56,507.81c-.08,2.2-.19,4.61-.31,7.23s-.28,5.29-.45,8-.4,5.35-.69,7.93-.66,5-1.08,7.17q-1.9,9.52-3.87,18.78t-3.87,18.78l-14,1.27-3.18-32q-.89-8.62-1.27-17.32t-.88-17.45Zm-2.28,87.44a7.83,7.83,0,0,1-1.33,4.25,15.46,15.46,0,0,1-3.37,3.74,16.53,16.53,0,0,1-4.44,2.6,12.07,12.07,0,0,1-4.44,1,12.82,12.82,0,0,1-4-.7,14.57,14.57,0,0,1-3.8-1.91,9.56,9.56,0,0,1-2.79-3,7.65,7.65,0,0,1-1.08-4.06,7.15,7.15,0,0,1,1.46-4.38,13.16,13.16,0,0,1,3.55-3.3,18,18,0,0,1,9.2-2.72,12.57,12.57,0,0,1,6.41,1.65,10.05,10.05,0,0,1,4.25,4.94,3.38,3.38,0,0,1,.32,1A7,7,0,0,1,1119.28,595.25Z"/></svg>