<svg id="Layer_1" data-name="Layer 1" xmlns="http://www.w3.org/2000/svg" viewBox="0 0 1920 1080"><defs><style>.cls-1{fill:#e03838;}.cls-1,.cls-2{opacity:0.5;}.cls-2{fill:#c335e5;}.cls-3{fill:#4d4d4d;}</style></defs><title>24</title><path class="cls-1" d="M345.33,981c73.69,4,75.21,121,145.09-48s90.4-205,90.4-356,21.27-325,7.6-302S539,549,479,470s-68.37-93-96.47-155-68.37-157-120-79,27.35,168-73.68,163S14.13,109,43,358,234.43,913,276.21,953,345.33,981,345.33,981Z"/><path class="cls-2" d="M971.53,734.22c10.11-25.37,29.46-117.08,47.78-155.84s49.89-273.81,148.36-237.9,633.79,229.95,620.57,260.72S1610,998.07,1521.76,967.58,1217.33,860.91,1119.6,815.94,967.39,744.59,971.53,734.22Z"/><path d="M1083.55,332a2.56,2.56,0,0,1-.81-1.92v-15.3l-14.34-20.1a3,3,0,0,1-.48-1.62,2.77,2.77,0,0,1,.75-1.95,2.47,2.47,0,0,1,1.89-.81,2.75,2.75,0,0,1,2.4,1.38L1085.5,310,1098,291.71a2.75,2.75,0,0,1,2.4-1.38,2.56,2.56,0,0,1,1.92.81,2.51,2.51,0,0,1,.72,1.95,3,3,0,0,1-.48,1.62l-14.4,20.1v15.3a2.66,2.66,0,0,1-2.7,2.7A2.71,2.71,0,0,1,1083.55,332Z"/><path d="M1110.28,331.13a13.46,13.46,0,0,1-5.37-5.61,19.21,19.21,0,0,1,0-16.62,13.46,13.46,0,0,1,5.37-5.61,17.44,17.44,0,0,1,16.14,0,13.65,13.65,0,0,1,5.4,5.61,18.94,18.94,0,0,1,0,16.62,13.65,13.65,0,0,1-5.4,5.61,17.44,17.44,0,0,1-16.14,0Zm12.81-4.14a9.16,9.16,0,0,0,3.72-3.6,12,12,0,0,0,1.47-6.24,11.88,11.88,0,0,0-1.47-6.18,9,9,0,0,0-3.72-3.57,10.52,10.52,0,0,0-4.71-1.11,10.64,10.64,0,0,0-4.77,1.11,8.78,8.78,0,0,0-3.69,3.57,12.08,12.08,0,0,0-1.44,6.18,12.21,12.21,0,0,0,1.44,6.24,9,9,0,0,0,3.69,3.6,10.41,10.41,0,0,0,4.77,1.14A10.29,10.29,0,0,0,1123.09,327Z"/><path d="M1146.07,331.55a10.14,10.14,0,0,1-3.72-4.26,13.46,13.46,0,0,1-1.29-5.94v-17a2.56,2.56,0,0,1,.81-1.92,2.69,2.69,0,0,1,2-.78,2.66,2.66,0,0,1,2.7,2.7v16.44c0,4.88,2.19,7.32,6.6,7.32a9.55,9.55,0,0,0,5.37-1.56,19.64,19.64,0,0,0,4.47-4.2v-18a2.56,2.56,0,0,1,.81-1.92,2.71,2.71,0,0,1,2-.78,2.66,2.66,0,0,1,2.7,2.7v25.74a2.71,2.71,0,0,1-.78,1.95,2.58,2.58,0,0,1-1.92.81,2.77,2.77,0,0,1-2.76-2.76v-2.46a20.13,20.13,0,0,1-4.92,4,12.42,12.42,0,0,1-6.24,1.5A10.37,10.37,0,0,1,1146.07,331.55Z"/><path d="M1195.29,325.19v-18.6H1191a1.13,1.13,0,0,1-1.15-1.14,1.24,1.24,0,0,1,.55-1l8.15-8a1.53,1.53,0,0,1,1-.54,1,1,0,0,1,.8.36,1.2,1.2,0,0,1,.33.84v4.8h6.79a2.27,2.27,0,0,1,2.34,2.34,2.31,2.31,0,0,1-.67,1.65,2.22,2.22,0,0,1-1.67.69h-6.79v18.12c0,1.56.37,2.55,1.12,3a5.55,5.55,0,0,0,2.78.63,8.26,8.26,0,0,0,2.4-.36l.51-.12a3.34,3.34,0,0,1,.69-.06,2.11,2.11,0,0,1,1.5.63,2,2,0,0,1,.67,1.53A2.27,2.27,0,0,1,1209,332a11.82,11.82,0,0,1-5,1.08Q1195.29,333.11,1195.29,325.19Z"/><path d="M1217.19,332a2.61,2.61,0,0,1-.78-1.92V291.17a2.71,2.71,0,0,1,.78-1.95,2.56,2.56,0,0,1,1.92-.81,2.78,2.78,0,0,1,2.77,2.76v15.66a19.72,19.72,0,0,1,4.91-4,12.42,12.42,0,0,1,6.24-1.5,10.37,10.37,0,0,1,5.73,1.56,10.14,10.14,0,0,1,3.72,4.26,13.6,13.6,0,0,1,1.29,5.94v17A2.56,2.56,0,0,1,1243,332a2.71,2.71,0,0,1-2,.78,2.66,2.66,0,0,1-2.7-2.7V313.67q0-7.32-6.6-7.32a9.55,9.55,0,0,0-5.37,1.56,19.2,19.2,0,0,0-4.46,4.2v18a2.57,2.57,0,0,1-.82,1.92,2.71,2.71,0,0,1-2,.78A2.61,2.61,0,0,1,1217.19,332Z"/><path d="M1258.35,331.13a13.46,13.46,0,0,1-5.37-5.61,19.21,19.21,0,0,1,0-16.62,13.46,13.46,0,0,1,5.37-5.61,17.44,17.44,0,0,1,16.14,0,13.65,13.65,0,0,1,5.4,5.61,18.94,18.94,0,0,1,0,16.62,13.65,13.65,0,0,1-5.4,5.61,17.44,17.44,0,0,1-16.14,0Zm12.81-4.14a9.16,9.16,0,0,0,3.72-3.6,12,12,0,0,0,1.47-6.24,11.88,11.88,0,0,0-1.47-6.18,9,9,0,0,0-3.72-3.57,10.52,10.52,0,0,0-4.71-1.11,10.64,10.64,0,0,0-4.77,1.11A8.78,8.78,0,0,0,1258,311a12.08,12.08,0,0,0-1.44,6.18,12.21,12.21,0,0,0,1.44,6.24,9,9,0,0,0,3.69,3.6,10.41,10.41,0,0,0,4.77,1.14A10.29,10.29,0,0,0,1271.16,327Z"/><path d="M1294.14,331.55a10.14,10.14,0,0,1-3.72-4.26,13.6,13.6,0,0,1-1.29-5.94v-17a2.56,2.56,0,0,1,.81-1.92,2.71,2.71,0,0,1,2-.78,2.66,2.66,0,0,1,2.7,2.7v16.44q0,7.32,6.6,7.32a9.55,9.55,0,0,0,5.37-1.56,19.44,19.44,0,0,0,4.47-4.2v-18a2.56,2.56,0,0,1,.81-1.92,2.71,2.71,0,0,1,2-.78,2.66,2.66,0,0,1,2.7,2.7v25.74a2.71,2.71,0,0,1-.78,1.95,2.56,2.56,0,0,1-1.92.81,2.77,2.77,0,0,1-2.76-2.76v-2.46a19.94,19.94,0,0,1-4.92,4,12.42,12.42,0,0,1-6.24,1.5A10.37,10.37,0,0,1,1294.14,331.55Z"/><path d="M1333.23,346a23,23,0,0,1-5.82-2.22,2.28,2.28,0,0,1-1.08-2.1A2.46,2.46,0,0,1,1327,340a2.23,2.23,0,0,1,1.71-.75,3,3,0,0,1,1.08.24,21.83,21.83,0,0,0,9.9,2.28q9.18,0,9.18-9.78v-4a13.54,13.54,0,0,1-10.26,4.56,14.46,14.46,0,0,1-6.87-1.77,14.3,14.3,0,0,1-5.49-5.28,18,18,0,0,1,0-17.1,14.3,14.3,0,0,1,5.49-5.28,14.46,14.46,0,0,1,6.87-1.77,13.54,13.54,0,0,1,10.26,4.56v-1.5a2.71,2.71,0,0,1,.78-1.95,2.56,2.56,0,0,1,1.92-.81,2.77,2.77,0,0,1,2.76,2.76v26.82q0,7.56-3.66,11.64t-10.44,4.08A28.4,28.4,0,0,1,1333.23,346Zm11.52-19.68a18,18,0,0,0,4.14-3.24V310.73a18,18,0,0,0-4.14-3.24,10.08,10.08,0,0,0-5-1.2,10.19,10.19,0,0,0-7.35,2.73q-2.85,2.73-2.85,7.89t2.85,7.89a10.19,10.19,0,0,0,7.35,2.73A10.08,10.08,0,0,0,1344.75,326.33Z"/><path d="M1364.61,332a2.61,2.61,0,0,1-.78-1.92V291.17a2.71,2.71,0,0,1,.78-1.95,2.56,2.56,0,0,1,1.92-.81,2.77,2.77,0,0,1,2.76,2.76v15.66a19.94,19.94,0,0,1,4.92-4,12.42,12.42,0,0,1,6.24-1.5,10.37,10.37,0,0,1,5.73,1.56,10.14,10.14,0,0,1,3.72,4.26,13.6,13.6,0,0,1,1.29,5.94v17a2.56,2.56,0,0,1-.81,1.92,2.71,2.71,0,0,1-2,.78,2.66,2.66,0,0,1-2.7-2.7V313.67q0-7.32-6.6-7.32a9.55,9.55,0,0,0-5.37,1.56,19.44,19.44,0,0,0-4.47,4.2v18a2.56,2.56,0,0,1-.81,1.92,2.71,2.71,0,0,1-2,.78A2.61,2.61,0,0,1,1364.61,332Z"/><path d="M1401.45,325.19v-18.6h-4.26a1.13,1.13,0,0,1-1.14-1.14,1.25,1.25,0,0,1,.54-1l8.16-8a1.51,1.51,0,0,1,1-.54,1.06,1.06,0,0,1,.81.36,1.2,1.2,0,0,1,.33.84v4.8h6.78a2.26,2.26,0,0,1,2.34,2.34,2.3,2.3,0,0,1-.66,1.65,2.22,2.22,0,0,1-1.68.69h-6.78v18.12q0,2.34,1.11,3a5.59,5.59,0,0,0,2.79.63,8.32,8.32,0,0,0,2.4-.36l.51-.12a3.27,3.27,0,0,1,.69-.06,2.11,2.11,0,0,1,1.5.63,2,2,0,0,1,.66,1.53,2.27,2.27,0,0,1-1.38,2.1,11.74,11.74,0,0,1-5,1.08Q1401.45,333.11,1401.45,325.19Z"/><path d="M1438.59,294.77a3,3,0,0,1-.9-2.16v-.24a3.07,3.07,0,0,1,3.06-3.06h.36a3.07,3.07,0,0,1,3.06,3.06v.24a3.07,3.07,0,0,1-3.06,3.06h-.36A3,3,0,0,1,1438.59,294.77ZM1439,332a2.61,2.61,0,0,1-.78-1.92V304.37a2.71,2.71,0,0,1,.78-1.95,2.56,2.56,0,0,1,1.92-.81,2.67,2.67,0,0,1,2.76,2.76v25.74a2.56,2.56,0,0,1-.81,1.92,2.71,2.71,0,0,1-2,.78A2.61,2.61,0,0,1,1439,332Z"/><path d="M1454.91,325.19v-18.6h-4.26a1.13,1.13,0,0,1-1.14-1.14,1.25,1.25,0,0,1,.54-1l8.16-8a1.51,1.51,0,0,1,1-.54,1.06,1.06,0,0,1,.81.36,1.2,1.2,0,0,1,.33.84v4.8h6.78a2.26,2.26,0,0,1,2.34,2.34,2.3,2.3,0,0,1-.66,1.65,2.22,2.22,0,0,1-1.68.69h-6.78v18.12q0,2.34,1.11,3a5.59,5.59,0,0,0,2.79.63,8.32,8.32,0,0,0,2.4-.36l.51-.12a3.27,3.27,0,0,1,.69-.06,2.11,2.11,0,0,1,1.5.63,2,2,0,0,1,.66,1.53,2.27,2.27,0,0,1-1.38,2.1,11.74,11.74,0,0,1-5,1.08Q1454.91,333.11,1454.91,325.19Z"/><path d="M1498.59,332.09a3.66,3.66,0,0,1-1.32-1.8l-8.52-25a3.23,3.23,0,0,1-.18-1,2.66,2.66,0,0,1,2.7-2.7,2.74,2.74,0,0,1,1.53.45,2.21,2.21,0,0,1,.93,1.17l7,23.1,7-22.56a3.08,3.08,0,0,1,5.88,0l7,22.56,7-23.1a2.21,2.21,0,0,1,.93-1.17,2.74,2.74,0,0,1,1.53-.45,2.66,2.66,0,0,1,2.7,2.7,3.23,3.23,0,0,1-.18,1l-8.52,25a3.66,3.66,0,0,1-1.32,1.8,3.6,3.6,0,0,1-4.32,0,4,4,0,0,1-1.38-1.86l-6.36-19.86-6.36,19.86a4,4,0,0,1-1.38,1.86,3.6,3.6,0,0,1-4.32,0Z"/><path d="M1541.7,332a8.52,8.52,0,0,1-3.57-3.15,8.68,8.68,0,0,1-1.32-4.77,8.41,8.41,0,0,1,3.51-7.08q3.51-2.64,10.29-2.64h7.26v-.48q0-4-1.95-5.7t-6.09-1.74a20.45,20.45,0,0,0-4,.36,34,34,0,0,0-3.93,1.08,3.37,3.37,0,0,1-.78.12,2.13,2.13,0,0,1-1.56-.66,2.2,2.2,0,0,1-.66-1.62,2.31,2.31,0,0,1,1.56-2.28,26.39,26.39,0,0,1,10.38-2.16,13.55,13.55,0,0,1,7,1.68,10.56,10.56,0,0,1,4.2,4.35,12.65,12.65,0,0,1,1.35,5.79v17a2.56,2.56,0,0,1-.81,1.92,2.71,2.71,0,0,1-2,.78,2.66,2.66,0,0,1-2.7-2.7v-1.56a15.07,15.07,0,0,1-11.28,4.56A11.15,11.15,0,0,1,1541.7,332Zm12-5a14.18,14.18,0,0,0,4.14-3.21v-5h-6.54q-9.06,0-9.06,4.74a4.45,4.45,0,0,0,1.47,3.48q1.47,1.32,4.89,1.32A10.85,10.85,0,0,0,1553.73,327Z"/><path d="M1571.49,330.41a2.29,2.29,0,0,1-1-2,2.41,2.41,0,0,1,.66-1.68,2.18,2.18,0,0,1,1.68-.72,2.64,2.64,0,0,1,1.08.24,24.25,24.25,0,0,0,3.84,1.32,17.85,17.85,0,0,0,4.32.48q6.66,0,6.66-4.26a2.27,2.27,0,0,0-1.53-2.1,31.33,31.33,0,0,0-5-1.62,45.27,45.27,0,0,1-5.85-1.74,10.29,10.29,0,0,1-4-2.73,6.94,6.94,0,0,1-1.65-4.83,8.65,8.65,0,0,1,3-6.84q3-2.64,8.67-2.64a25,25,0,0,1,8.7,1.5,2.25,2.25,0,0,1,1.29.9,2.41,2.41,0,0,1,.45,1.38,2.35,2.35,0,0,1-.69,1.68,2.27,2.27,0,0,1-1.71.72,3.37,3.37,0,0,1-.78-.12,23,23,0,0,0-6.84-1.08,9.37,9.37,0,0,0-5.07,1.17,3.49,3.49,0,0,0-1.83,3,2.77,2.77,0,0,0,1.68,2.64,24,24,0,0,0,5.22,1.62,50,50,0,0,1,5.76,1.77,9.52,9.52,0,0,1,3.81,2.73,7.41,7.41,0,0,1,1.59,5,7.93,7.93,0,0,1-3,6.36q-3,2.52-8.55,2.52A22.32,22.32,0,0,1,1571.49,330.41Z"/><path d="M1622.52,331.22a14.34,14.34,0,0,1-5.4-5.52,18.45,18.45,0,0,1,0-17,14.34,14.34,0,0,1,5.4-5.52,14.07,14.07,0,0,1,7-1.89,13.79,13.79,0,0,1,10.26,4.56v-14.7a2.63,2.63,0,0,1,.81-2,2.71,2.71,0,0,1,1.95-.78,2.56,2.56,0,0,1,1.92.81,2.71,2.71,0,0,1,.78,1.95v38.94a2.66,2.66,0,0,1-2.7,2.7,2.71,2.71,0,0,1-1.95-.78,2.56,2.56,0,0,1-.81-1.92v-1.56a13.79,13.79,0,0,1-10.26,4.56A14.07,14.07,0,0,1,1622.52,331.22Zm13-4.44a14.82,14.82,0,0,0,4.29-3.27v-12.6a14.82,14.82,0,0,0-4.29-3.27,11.33,11.33,0,0,0-5.19-1.23,9.43,9.43,0,0,0-7.14,2.82q-2.7,2.82-2.7,8t2.7,8a9.43,9.43,0,0,0,7.14,2.82A11.33,11.33,0,0,0,1635.54,326.78Z"/><path d="M1660.17,331.13a13.46,13.46,0,0,1-5.37-5.61,19.21,19.21,0,0,1,0-16.62,13.46,13.46,0,0,1,5.37-5.61,17.44,17.44,0,0,1,16.14,0,13.65,13.65,0,0,1,5.4,5.61,18.94,18.94,0,0,1,0,16.62,13.65,13.65,0,0,1-5.4,5.61,17.44,17.44,0,0,1-16.14,0ZM1673,327a9.16,9.16,0,0,0,3.72-3.6,12,12,0,0,0,1.47-6.24,11.88,11.88,0,0,0-1.47-6.18,9,9,0,0,0-3.72-3.57,10.52,10.52,0,0,0-4.71-1.11,10.64,10.64,0,0,0-4.77,1.11,8.78,8.78,0,0,0-3.69,3.57,12.08,12.08,0,0,0-1.44,6.18,12.21,12.21,0,0,0,1.44,6.24,9,9,0,0,0,3.69,3.6,10.41,10.41,0,0,0,4.77,1.14A10.29,10.29,0,0,0,1673,327Z"/><path d="M1692,332a2.61,2.61,0,0,1-.78-1.92V304.37a2.71,2.71,0,0,1,.78-1.95,2.56,2.56,0,0,1,1.92-.81,2.77,2.77,0,0,1,2.76,2.76v2.46a19.94,19.94,0,0,1,4.92-4,12.42,12.42,0,0,1,6.24-1.5,10.37,10.37,0,0,1,5.73,1.56,10.14,10.14,0,0,1,3.72,4.26,13.6,13.6,0,0,1,1.29,5.94v17a2.56,2.56,0,0,1-.81,1.92,2.71,2.71,0,0,1-2,.78,2.66,2.66,0,0,1-2.7-2.7V313.67q0-7.32-6.6-7.32a9.55,9.55,0,0,0-5.37,1.56,19.44,19.44,0,0,0-4.47,4.2v18a2.56,2.56,0,0,1-.81,1.92,2.71,2.71,0,0,1-2,.78A2.61,2.61,0,0,1,1692,332Z"/><path d="M1730,328.94q-4.11-4.17-4.11-11.73a19.56,19.56,0,0,1,1.56-7.86,13.36,13.36,0,0,1,4.8-5.82,13.79,13.79,0,0,1,8-2.22,14,14,0,0,1,7.68,2.07,13.39,13.39,0,0,1,4.92,5.52,17,17,0,0,1,1.68,7.53,2.62,2.62,0,0,1-2.76,2.7h-20.34a9.87,9.87,0,0,0,3.12,6.54q2.64,2.34,7.38,2.34a18,18,0,0,0,4.41-.48,18.32,18.32,0,0,0,3.69-1.38,2.38,2.38,0,0,1,1.08-.24,2.41,2.41,0,0,1,1.68.66,2.18,2.18,0,0,1,.72,1.68,2.59,2.59,0,0,1-1.56,2.22,18.74,18.74,0,0,1-10.5,2.64Q1734.15,333.11,1730,328.94Zm19.11-14.25a9.61,9.61,0,0,0-1.53-4.92,8.26,8.26,0,0,0-3.33-2.91,9.15,9.15,0,0,0-8,0,8.06,8.06,0,0,0-3.3,2.91,9.79,9.79,0,0,0-1.5,4.92Z"/><path d="M1767.36,320.66a2.17,2.17,0,0,1-.75-1.65,11,11,0,0,1,1-4.74,12.66,12.66,0,0,1,2.25-3.39,36.67,36.67,0,0,1,3.45-3.09,22.29,22.29,0,0,0,3.36-3.12,4.61,4.61,0,0,0,1.08-3q0-6.54-8.58-6.54a16.65,16.65,0,0,0-4.11.51,12.75,12.75,0,0,0-3.57,1.47,2.67,2.67,0,0,1-1.5.48,2.46,2.46,0,0,1-2.4-2.4,2.63,2.63,0,0,1,1.5-2.28,17.65,17.65,0,0,1,5-2.22,22,22,0,0,1,5.58-.66q6.12,0,9.81,3.06a10.19,10.19,0,0,1,3.69,8.28,9.49,9.49,0,0,1-.84,4.11,11,11,0,0,1-2,3,33.33,33.33,0,0,1-3.18,2.79,23.3,23.3,0,0,0-3.87,3.69,6.37,6.37,0,0,0-1.29,4.05,2.13,2.13,0,0,1-.78,1.65,2.71,2.71,0,0,1-1.86.69A2.68,2.68,0,0,1,1767.36,320.66Zm-.72,11a3.47,3.47,0,0,1-1.05-2.55,3.59,3.59,0,0,1,3.54-3.54,3.47,3.47,0,0,1,2.55,1.05,3.4,3.4,0,0,1,1,2.49,3.59,3.59,0,0,1-3.6,3.6A3.4,3.4,0,0,1,1766.64,331.7Z"/><path class="cls-3" d="M643.22,663.17c-8.75,10.49-22.65,14.63-33.77,21.93a48.78,48.78,0,0,0-8.77,7.18c-1.32,1.4.8,3.53,2.12,2.12,9.38-10,23.19-13.91,34.19-21.64a42.7,42.7,0,0,0,8.35-7.47c1.23-1.48-.89-3.61-2.12-2.12Z"/><path class="cls-3" d="M642,660.79c-19.2.7-38.41,1.29-57.63,1.38q-8.21,0-16.4,0l1.44,1.1c-3.78-9.32-11.7-16.7-20.21-21.76a1.52,1.52,0,0,0-2.26,1.3c0,2.08,1.49,6.29,4.42,4.76a2.28,2.28,0,0,0,1-2.67c-.42-1.53-1.93-2.6-3.2-3.39a1.51,1.51,0,0,0-2.26,1.3q0,8.38-.07,16.79c0,3.08.76,7-.88,9.74s-5.72,2.65-8.43,1.76c-3.46-1.14-6.52-3.36-9.59-5.28-3.36-2.09-6.92-4.15-10.94-4.48-1.25-.1-1.72,1.32-1.3,2.26A183.53,183.53,0,0,1,526.48,694c.48,1.86,3.38,1.07,2.9-.8A189.69,189.69,0,0,0,518.32,662L517,664.29c3.65.3,7,2.53,10,4.43,3.27,2,6.56,4.32,10.31,5.39,3.38,1,7.7.72,10.25-2s2.43-6.88,2.32-10.41c-.19-6.3,0-12.64,0-19l-2.26,1.29a8,8,0,0,1,1.73,1.44c.26.28,0,.14.09.08s.28-.59.61-.76.38,0,.4,0-.14-.14-.13-.11a4.67,4.67,0,0,1-.44-2l-2.26,1.29c7.78,4.62,15.37,11.42,18.84,20a1.57,1.57,0,0,0,1.45,1.1c19.17.2,38.34-.16,57.51-.76,5.51-.17,11-.37,16.52-.57,1.93-.07,1.94-3.07,0-3Z"/><path class="cls-3" d="M606.32,708.55q-6.42,28.31-12.85,56.63c-2.1,9.26-4.26,18.61-4.46,28.14a75.83,75.83,0,0,0,4.22,25.77,102.08,102.08,0,0,0,5.9,13.83,12.33,12.33,0,0,0,3.61,4.85c1.53,1.08,3.62,1.58,5.22.37s0-3.75-1.51-2.59c-1.17.88-2.66-.62-3.33-1.56a35,35,0,0,1-2.73-5.27A93.76,93.76,0,0,1,595.7,817,72.36,72.36,0,0,1,592,792.59c.29-9,2.34-17.85,4.33-26.61s4-17.75,6-26.62l6.82-30c.42-1.88-2.47-2.68-2.9-.79Z"/><path class="cls-3" d="M637.76,665.77a3.51,3.51,0,0,0-.42-3,4.6,4.6,0,0,0-2.57-2,1.52,1.52,0,0,0-1.9,1.45c.12,1.79.47,3.74,1.93,5a4.14,4.14,0,0,0,2.62,1,3.79,3.79,0,0,0,2.25-.62,2.69,2.69,0,0,0,1.06-1.38,2.63,2.63,0,0,0-.21-1.83,1.5,1.5,0,0,0-2-.54,1.49,1.49,0,0,0-.69.9,1.7,1.7,0,0,0,.15,1.15l0,.05-.15-.36a2.13,2.13,0,0,1,.07.27l-.06-.4a.67.67,0,0,1,0,.2l.06-.4a.86.86,0,0,1-.06.23l.15-.36a1.48,1.48,0,0,1-.13.21l.24-.3-.21.2.3-.23a2.06,2.06,0,0,1-.41.23l.36-.15a3.45,3.45,0,0,1-.65.17l.4-.06a3.31,3.31,0,0,1-.77,0l.4,0a2.52,2.52,0,0,1-.65-.18l.36.16a2.22,2.22,0,0,1-.49-.3l.3.24a4,4,0,0,1-.61-.62l.23.31a4.35,4.35,0,0,1-.48-.84l.16.36a6.2,6.2,0,0,1-.4-1.52l.06.4c-.05-.33-.08-.66-.1-1l-1.9,1.45.33.11-.36-.15a3.4,3.4,0,0,1,.63.38l-.3-.24a4.08,4.08,0,0,1,.55.55l-.23-.3a2.61,2.61,0,0,1,.37.65l-.15-.36a2.19,2.19,0,0,1,.16.57l-.06-.4a1.7,1.7,0,0,1,0,.45l.06-.4a2.66,2.66,0,0,1-.1.38,1.49,1.49,0,0,0,.15,1.15,1.52,1.52,0,0,0,.9.69,1.49,1.49,0,0,0,1.15-.15,1.65,1.65,0,0,0,.69-.89Z"/><path class="cls-3" d="M571,678.71a3.31,3.31,0,0,0,2.63-3.46,4.73,4.73,0,0,0-2.59-3.93,9.6,9.6,0,0,0-5.19-1c-2,.12-4,.66-6.08.51a1.5,1.5,0,0,0-1.5,1.5,1.54,1.54,0,0,0,1.5,1.5c2.94.22,6.07-1,8.83-.27a4.26,4.26,0,0,1,1.34.61c.12.09.22.2.33.3s-.06-.16.1.12l.19.35c-.11-.23,0,0,0,.12s.08.39,0,.17,0,.18,0,.22c0,.2,0,.2,0,0,0,.11,0,.22-.09.33.14-.38,0,0-.06,0,.11-.15.13-.18.06-.1s0,.06.09-.05c-.08.06-.38.17-.06.07a2.62,2.62,0,0,1-.38.09,1.51,1.51,0,0,0-1.05,1.84,1.54,1.54,0,0,0,1.85,1.05Z"/><path class="cls-3" d="M588.5,672c1.67-2.42-.46-5.37-2.57-6.63-3-1.76-6.56-1-9.68-.16a1.5,1.5,0,0,0,.8,2.89,19.29,19.29,0,0,1,3.65-.77,6.54,6.54,0,0,1,2.8.22l.41.14c-.19-.07,0,0,.12.06a5,5,0,0,1,.63.37s.3.21.12.07l.27.23a6,6,0,0,1,.5.51s.21.29.06.07a2.75,2.75,0,0,1,.19.28l.15.28c.14.25,0-.11,0,0l.09.29c.09.26,0-.15,0,0a1.31,1.31,0,0,0,0,.28c0,.29-.05-.18,0,0s-.1.22,0,0q-.09.17-.18.3a1.52,1.52,0,0,0,.53,2.06,1.54,1.54,0,0,0,2.06-.54Z"/><path class="cls-3" d="M579.8,715.49c-8.43,2.17-17.15,4.39-24.67,8.92a32.26,32.26,0,0,0-9.4,8.43,37.82,37.82,0,0,0-5.5,11.51A104.86,104.86,0,0,0,536,773.87,114.82,114.82,0,0,0,539.84,804c2.86,10.86,7.11,21.81,5.72,33.23-.23,1.92,2.77,1.9,3,0,1.19-9.75-1.67-19.32-4.32-28.6a124.69,124.69,0,0,1-5.13-29,110.31,110.31,0,0,1,2.79-29.87c1.91-8.15,5.19-16,12.18-21,7.75-5.61,17.4-8,26.52-10.31,1.87-.48,1.08-3.38-.8-2.9Z"/><path class="cls-3" d="M512.61,831.18c12.24,6.42,25.83,13.1,34,24.72a32.52,32.52,0,0,1,4.35,8.42,25.61,25.61,0,0,1,1.11,9.12,7.49,7.49,0,0,0,.73,4c.86,1.49,2.37,2.13,3.9,2.74a22.9,22.9,0,0,1,7.69,5,15.64,15.64,0,0,1,4.38,7.32c.71,3.28-3.15,3.69-5.53,3.77-3.67.14-7.38-.18-11-.3-4.15-.15-8.29-.29-12.43-.45q-11.93-.43-23.84-.93c-3.89-.16-7.81-.18-11.68-.52-1.69-.15-3-.59-3.85-2.16a38.06,38.06,0,0,1-1.94-4.94,129.34,129.34,0,0,1-7.58-49.85c.09-1.93-2.91-1.92-3,0a131.31,131.31,0,0,0,6.46,47.09q1,2.91,2,5.77a16.5,16.5,0,0,0,2.25,4.69c2.37,2.9,6.73,2.47,10.09,2.61q12.8.56,25.59,1t25.59.91c3,.1,6.42.26,9.17-1.23,3.14-1.71,3.2-5.1,2-8.11-2.47-6.14-7.75-10.22-13.74-12.65a3.61,3.61,0,0,1-1.93-1.3,4.19,4.19,0,0,1-.33-2.16A37.36,37.36,0,0,0,555,869a29.1,29.1,0,0,0-2.75-9.39c-6.42-13.43-20.33-21.49-32.93-28.23q-2.58-1.38-5.19-2.74c-1.7-.89-3.22,1.69-1.51,2.59Z"/><path class="cls-3" d="M600.66,839.54a28.86,28.86,0,0,1-10.78,15.15,36.91,36.91,0,0,1-9,5c-3.77,1.42-7.73,2.22-11.44,3.8a1.51,1.51,0,0,0-.54,2,1.54,1.54,0,0,0,2,.54c4-1.68,8.22-2.42,12.18-4.08a39.69,39.69,0,0,0,9.21-5.37,31.7,31.7,0,0,0,11.27-16.26,1.5,1.5,0,0,0-2.9-.79Z"/><path class="cls-3" d="M602,821.38l18.16,10.3c2.86,1.62,5.74,3.22,8.58,4.87a33.63,33.63,0,0,1,7.1,5.13c3.95,4,4.93,9.4,4.48,14.81A65.36,65.36,0,0,1,637,871.28c-1.72,5.21-4.51,9.93-9.62,12.37a1.52,1.52,0,0,0-.69,1.69c1,3,4.5,2.53,6.88,3.56,2,.84-.67,2.13-1.66,2.36a36.16,36.16,0,0,1-7,.49,130.42,130.42,0,0,1-44.59-6.4c-1.84-.6-2.63,2.29-.8,2.89a133.37,133.37,0,0,0,31,6.15,135.9,135.9,0,0,0,16,.31c3.48-.14,10.87-.06,10.74-5.25-.05-2.08-1.92-3.19-3.71-3.68-.86-.24-1.74-.37-2.59-.58-.36-.09-1.3-.22-1.43-.64l-.69,1.69c4.9-2.35,8.05-6.67,10.05-11.6A66.07,66.07,0,0,0,643,859c.78-5.56.54-11.46-2.57-16.33-3.53-5.52-9.81-8.49-15.32-11.62l-21.63-12.26a1.5,1.5,0,0,0-1.51,2.59Z"/><path class="cls-3" d="M493.6,813.85A117,117,0,0,1,498.45,787c.57-1.85-2.33-2.64-2.89-.8a120.68,120.68,0,0,0-5,27.69c-.11,1.93,2.89,1.92,3,0Z"/><path class="cls-3" d="M470.39,537.4c6.56-1.62,18.51-5.56,15.58-14.71-1.41-4.4-5.55-7.12-9.74-8.48a38,38,0,0,0-14.52-1.31c-17.93,1.41-36.65,13-38.3,32.36A28.12,28.12,0,0,0,425.28,558a22.23,22.23,0,0,0,3.65,6.24,28.71,28.71,0,0,0,5.8,4.91,134.61,134.61,0,0,1,23,20.41c7.05,7.78,14,15.9,19.35,25a71.9,71.9,0,0,1,9.16,25.53,73.38,73.38,0,0,1-11.46,51.17q-1.9,2.88-4,5.58c-1.19,1.5.92,3.64,2.12,2.13a77.79,77.79,0,0,0,17.19-48.27,73.8,73.8,0,0,0-4.39-25c-3.26-9-8.31-17-14.15-24.47a205.81,205.81,0,0,0-19.72-22.11,114.54,114.54,0,0,0-11.51-9.71c-3.93-2.88-8.33-5.24-10.85-9.57-4.32-7.43-4-17-.2-24.51,3.95-7.85,11.27-13.41,19.39-16.49a47.26,47.26,0,0,1,13.06-3,35.07,35.07,0,0,1,14.12,1.34c3.55,1.23,8.27,4.44,7.47,8.83-.66,3.6-4.79,5.55-7.85,6.69a51.86,51.86,0,0,1-5.86,1.74c-1.87.47-1.08,3.36.8,2.9Z"/><path class="cls-3" d="M472.13,539.46a123,123,0,0,0,47.3-10.91c7-3.2,14.14-7,19.62-12.48a27.55,27.55,0,0,0,8.06-20.34c-.23-13.26-7.6-25.35-16.93-34.31-10.55-10.13-23.83-17-37.7-21.41-16-5.08-32.91-7.05-49.66-7.64a412.31,412.31,0,0,0-52.71,1.8,471,471,0,0,0-102,21.22c-27.21,8.89-55.71,20.5-76.28,41.11-9.78,9.8-17,21.72-20,35.33-3.56,16.4-1.64,33.26-1.76,49.87-.12,17.53-2.07,35.37,2.18,52.6,3.81,15.46,12.5,29.18,22.13,41.65,9.53,12.32,20,24,30.62,35.42,10.1,10.84,20.85,21.13,32.9,29.82a136.73,136.73,0,0,0,42.16,20.59c16.63,4.78,33.83,6.71,51,8.45,15.9,1.61,32,3.94,45.19,13.66,10.73,7.89,18.14,19.31,23.8,31.17,2.7,5.68,5,11.53,7.26,17.41.67,1.78,3.57,1,2.89-.8-4.45-11.75-9.33-23.51-16.58-33.85-7.48-10.68-17.4-19.25-29.6-24.07-15.28-6-32.24-6.2-48.34-8.17-16.59-2-33.27-5.14-48.78-11.52-27.68-11.37-49.11-32.61-68.67-54.61-10.52-11.83-21.18-23.73-29.84-37a104.11,104.11,0,0,1-10.64-20.53,85.34,85.34,0,0,1-4.95-24.49c-.54-8.6-.19-17.22.07-25.82.25-8.37.18-16.71,0-25.08-.42-16.14-.55-32.9,6.57-47.8C211.21,494,237.27,479,261.46,468.49a361.06,361.06,0,0,1,44.42-15.41,468.66,468.66,0,0,1,49.92-11.36,459.44,459.44,0,0,1,51.26-5.83c16.88-.95,33.9-1.16,50.75.43,16.05,1.52,32.33,4.79,47,11.64,12.31,5.75,24.05,14.12,31.69,25.53s11.69,28.09,1.53,39.3c-5.16,5.69-12.32,9.5-19.18,12.73a114.79,114.79,0,0,1-23.08,7.9,123.22,123.22,0,0,1-23.65,3c-1.93.06-1.94,3.06,0,3Z"/><path class="cls-3" d="M617.07,702.91a284.44,284.44,0,0,1,32.48-23.83c8.53-5.3,17.4-10,26.33-14.53a33.78,33.78,0,0,1,4.52-2.11c.51-.17,1.07-.15,1.55-.29-.23.07-.11-.21-.12.11a13.17,13.17,0,0,1-1,3.87,56.73,56.73,0,0,1-3.37,7q-1.11,2-2.29,3.95a20.71,20.71,0,0,1-3.18,4.56c-8.77,8.29-17.12,17-25.27,25.93-11.43,12.47-22.45,25.31-33.22,38.35-1.22,1.47.89,3.61,2.12,2.12,10.1-12.23,20.43-24.28,31.09-36,8.65-9.51,17.5-18.86,26.82-27.71.46-.43,1-.85,1.39-1.3a15.4,15.4,0,0,0,1.65-2.47q1.5-2.4,2.9-4.87a70.15,70.15,0,0,0,3.83-7.66c1.06-2.53,3.38-9-1.73-8.85a12.32,12.32,0,0,0-4.65,1.53c-1.34.64-2.66,1.34-4,2-2.2,1.13-4.4,2.26-6.6,3.41-4.69,2.46-9.33,5-13.89,7.71a273.39,273.39,0,0,0-32.64,23q-2.46,2-4.87,4c-1.48,1.25.65,3.36,2.12,2.12Z"/><path class="cls-3" d="M510.26,746c-13.79.14-27.85-1.92-40.61-7.35C458.26,733.76,448,726,442.2,714.85a48.2,48.2,0,0,1-5.28-20l-2.56,1.06a138.86,138.86,0,0,0,13.91,10.62,65.39,65.39,0,0,0,17.31,7.87c13,3.71,27.08,3.43,39.72,8.49,4.5,1.8,10.77,5.08,10.75,10.7a1.5,1.5,0,0,0,3,0c0-5.21-4-9-8.21-11.36-5.55-3.16-11.89-4.66-18.11-5.81-7.1-1.31-14.28-2.14-21.34-3.67a64.57,64.57,0,0,1-18.6-7,112.88,112.88,0,0,1-16.3-12,1.52,1.52,0,0,0-2.57,1.06A50.31,50.31,0,0,0,450.24,730c9.56,8.66,22,13.76,34.45,16.47A115,115,0,0,0,510.26,749a1.5,1.5,0,0,0,0-3Z"/><path class="cls-3" d="M1210,510.41q44.26-.3,88.51,1.56,12.42.53,24.84,1.23c1.92.11,1.92-2.89,0-3q-44.2-2.47-88.48-2.79-12.44-.09-24.87,0a1.5,1.5,0,0,0,0,3Z"/><path class="cls-3" d="M1327.48,504.91c-5.2-20-25-30.45-43.85-34.45-21.29-4.52-45.27-1.87-62.29,12.72-8.87,7.61-15.58,18.35-17.32,30a28.79,28.79,0,0,0,1.36,15,27.91,27.91,0,0,0,9.62,11.86c9.52,7,21,11,32.57,13.19a158.91,158.91,0,0,0,33.87,2.59c18.37-.52,39.24-6.16,48.61-23.51a41.68,41.68,0,0,0,2.89-6.81c.59-1.84-2.3-2.63-2.9-.8A36.27,36.27,0,0,1,1313.35,545c-7.7,4.44-16.62,6.59-25.41,7.43a146.47,146.47,0,0,1-30.69-.73c-11.22-1.31-22.51-3.93-32.57-9.18-4.64-2.42-9.3-5.3-12.75-9.28a21.73,21.73,0,0,1-5.25-12.53c-.88-11,4.33-22.05,11.41-30.13,14.48-16.51,37.63-21.41,58.67-18.35,17.45,2.53,37.29,10.05,45.47,26.92a36,36,0,0,1,2.36,6.52c.48,1.87,3.38,1.07,2.89-.8Z"/><path class="cls-3" d="M1263.31,586.78a102.08,102.08,0,0,1,61-26.35c20.67-1.57,42.38,3.3,58.72,16.56,8.65,7,15.33,16.25,18.16,27.1l1.44-1.9c-9.86-.83-20.07-1.63-29.66,1.41-8.37,2.65-15.72,7.76-24.13,10.27a30.27,30.27,0,0,1-13.51.92,65.87,65.87,0,0,1-13.77-4.17c-4.55-1.81-9-3.74-13.67-5.38s-9.44-3.13-14.25-4.39a175.63,175.63,0,0,0-33-5.29c-1.93-.13-1.92,2.87,0,3a171.08,171.08,0,0,1,29.51,4.5,198.58,198.58,0,0,1,28.1,9.43c8.74,3.57,17.91,6.88,27.49,5.21,8.67-1.52,16.15-6.54,24.19-9.81a47.21,47.21,0,0,1,15.73-3.39,130.27,130.27,0,0,1,17,.69,1.51,1.51,0,0,0,1.45-1.9c-5.36-20.61-23.43-34.84-42.89-41.5-21.5-7.35-45.81-5.73-66.86,2.38a104.12,104.12,0,0,0-33.14,20.49c-1.42,1.31.7,3.42,2.12,2.12Z"/><path class="cls-3" d="M1541.18,429.41a208.63,208.63,0,0,0-88.91-50,205,205,0,0,0-50.89-7.22c-19.85-.27-39.67,2.41-59,6.68a505,505,0,0,0-56.7,16.36c-17.9,6.22-35.52,13.6-51.7,23.55-28.65,17.61-52.7,44.19-59.85,77.8a197.09,197.09,0,0,0-3.5,28.86c-.59,9.39-1.19,18.88-.11,28.25,1,8.61,3.46,17,8.32,24.22a62.13,62.13,0,0,0,15.79,15.73c13.87,9.9,30.38,16,46.09,22.27,18.26,7.31,36.78,14,55.66,19.51,37.37,10.89,76.61,17.18,115.56,13.41a197.54,197.54,0,0,0,86.1-29.15c25.22-15.93,46.73-38.42,58.57-66,13.32-31.08,13.6-67.05,1.33-98.53a128.53,128.53,0,0,0-11.21-22.18c-1-1.63-3.63-.12-2.59,1.51a129,129,0,0,1,16.39,97.92c-6.91,29-24.56,54.23-47.54,72.94s-51.23,31.32-80.32,37.37c-35.48,7.39-72.57,4.63-107.75-3a464.81,464.81,0,0,1-55.46-16c-17.47-6.16-34.87-12.88-51.74-20.54-13.79-6.26-28.1-14.12-36.6-27.11-10-15.32-8.54-34.51-7.4-51.93,1.19-18.23,4-36.17,12.61-52.49,7.6-14.39,18.48-26.83,31-37.19,28.32-23.48,64.45-35.67,99.3-45.72,36.11-10.42,73.76-16.87,111.29-11.25a207.27,207.27,0,0,1,92.32,38.26,199.14,199.14,0,0,1,18.87,15.93c1.39,1.33,3.52-.79,2.12-2.12Z"/><path class="cls-3" d="M1588,605.5c2-27.72,2.25-55.69-1-83.32-2.86-24.25-8.47-48.33-18.75-70.55a151.52,151.52,0,0,0-40.93-53.73c-19.66-16.14-43.2-26.72-67.72-33-33.59-8.64-69.46-10.45-103.92-7.49C1314,361,1272.4,372.86,1237.27,396a196.35,196.35,0,0,0-73.16,88.25,216.76,216.76,0,0,0-15.2,60.33c-2.35,22-1.06,44.17,1.39,66.09,1.23,11,3.5,22.19,3.11,33.33s-3.09,22.15-4.56,33.14a607.22,607.22,0,0,0-5.6,68.28c-.8,40.49,2.86,83.28,24.22,118.74,5,8.2,10.42,16.56,17.27,23.3,1.38,1.36,3.5-.76,2.12-2.12-7.18-7.07-12.91-16-17.95-24.65a145.72,145.72,0,0,1-12.16-27.28c-6.2-18.68-9.07-38.33-10.07-58a479.59,479.59,0,0,1,1.63-66.84c1-11.25,2.3-22.47,3.83-33.66,1.45-10.6,4.08-21.24,4.29-32,.23-11-2-22-3.19-32.83s-2.13-22-2.45-33a228.83,228.83,0,0,1,6.43-62.47c9.58-38.32,30.12-73.22,59.75-99.43,30.61-27.08,69.34-43.27,109.21-50.82a321.19,321.19,0,0,1,113.31-.76c25.84,4.47,51.27,12.83,73.31,27.29a145,145,0,0,1,45.77,48.57c11.73,20.23,18.8,42.83,22.91,65.77,4.68,26.15,5.6,52.89,4.65,79.39q-.37,10.43-1.13,20.83c-.14,1.93,2.86,1.92,3,0Z"/><path class="cls-3" d="M1395.47,608.05c-2.23,4.48-4.61,9.22-9.18,11.73a27.85,27.85,0,0,1-7.3,2.48c-2.89.66-5.81,1.22-8.74,1.7a151.32,151.32,0,0,1-17.78,1.85c-5.68.25-11.63.52-17.23-.63-5.26-1.07-10.37-3.72-12.88-8.68-.87-1.72-3.46-.2-2.59,1.52,5.48,10.83,19.27,11.16,29.78,10.89a156.68,156.68,0,0,0,18.85-1.64c3.22-.47,6.42-1,9.6-1.72a41.87,41.87,0,0,0,8.28-2.44c5.92-2.6,9-8,11.78-13.55.85-1.72-1.74-3.25-2.59-1.51Z"/><path class="cls-3" d="M1402.31,611.13a33.46,33.46,0,0,1,0,10.71c-.47,2.83-1.12,6.22-3.34,8.24a10.75,10.75,0,0,1-4,2c-1.73.56-3.49,1-5.26,1.5q-5,1.27-10,2.08a106.17,106.17,0,0,1-20.92,1.18,82.49,82.49,0,0,1-20.5-3c-6.46-2-12.9-6-15-12.79-.56-1.84-3.45-1.06-2.89.79,4.45,14.56,22.68,17,35.58,17.89a109.49,109.49,0,0,0,22.67-.87,108.25,108.25,0,0,0,11.4-2.23c3.35-.85,7.25-1.61,10.1-3.67,3.15-2.28,4.31-6.2,5-9.86a37.45,37.45,0,0,0,.07-12.76c-.3-1.9-3.19-1.09-2.89.8Z"/><path class="cls-3" d="M1221.12,514c1,2.45.46,5.05.53,7.61a9.58,9.58,0,0,0,2.26,6.29c3,3.44,8.17,4.38,12.44,5.27,10.3,2.15,21.94,2.54,30.2-5a17.87,17.87,0,0,0,6.11-13.21c0-1.93-3-1.94-3,0,.1,8.44-7.64,14.51-15.29,16.09-5.14,1.06-10.5.56-15.61-.41-3.85-.73-8.64-1.36-11.79-3.91-4.14-3.35-1.13-9.14-3-13.48a1.55,1.55,0,0,0-1.84-1,1.51,1.51,0,0,0-1.05,1.84Z"/><path class="cls-3" d="M1257.52,548.62a66.83,66.83,0,0,0,51.61-11.38,63.36,63.36,0,0,0,11.24-10.34c1.25-1.46-.87-3.6-2.12-2.12a63.85,63.85,0,0,1-45.29,22,60.41,60.41,0,0,1-14.64-1.08c-1.89-.38-2.69,2.51-.8,2.89Z"/><path class="cls-3" d="M1359,510.41q44.26-.3,88.51,1.56,12.42.53,24.84,1.23c1.92.11,1.92-2.89,0-3q-44.2-2.47-88.48-2.79-12.44-.09-24.87,0a1.5,1.5,0,0,0,0,3Z"/><path class="cls-3" d="M1476.48,504.91c-5.2-20-25-30.45-43.85-34.45-21.29-4.52-45.27-1.87-62.29,12.72-8.87,7.61-15.58,18.35-17.32,30a28.79,28.79,0,0,0,1.36,15,27.91,27.91,0,0,0,9.62,11.86c9.52,7,21,11,32.57,13.19a158.91,158.91,0,0,0,33.87,2.59c18.37-.52,39.24-6.16,48.61-23.51a41.68,41.68,0,0,0,2.89-6.81c.59-1.84-2.3-2.63-2.9-.8A36.27,36.27,0,0,1,1462.35,545c-7.7,4.44-16.62,6.59-25.41,7.43a146.47,146.47,0,0,1-30.69-.73c-11.22-1.31-22.51-3.93-32.57-9.18-4.64-2.42-9.3-5.3-12.75-9.28a21.73,21.73,0,0,1-5.25-12.53c-.88-11,4.33-22.05,11.41-30.13,14.48-16.51,37.63-21.41,58.67-18.35,17.45,2.53,37.29,10.05,45.47,26.92a36,36,0,0,1,2.36,6.52c.48,1.87,3.38,1.07,2.89-.8Z"/><path class="cls-3" d="M1370.12,514c1,2.45.46,5.05.53,7.61a9.58,9.58,0,0,0,2.26,6.29c3,3.44,8.17,4.38,12.44,5.27,10.3,2.15,21.94,2.54,30.2-5a17.87,17.87,0,0,0,6.11-13.21c0-1.93-3-1.94-3,0,.1,8.44-7.64,14.51-15.29,16.09-5.14,1.06-10.5.56-15.61-.41-3.85-.73-8.64-1.36-11.79-3.91-4.14-3.35-1.13-9.14-3-13.48a1.55,1.55,0,0,0-1.84-1,1.51,1.51,0,0,0-1.05,1.84Z"/><path class="cls-3" d="M1406.52,548.62a66.83,66.83,0,0,0,51.61-11.38,63.36,63.36,0,0,0,11.24-10.34c1.25-1.46-.87-3.6-2.12-2.12a63.85,63.85,0,0,1-45.29,22,60.41,60.41,0,0,1-14.64-1.08c-1.89-.38-2.69,2.51-.8,2.89Z"/><path class="cls-3" d="M1138.71,610.47c-7.38.75-12.91-4.94-16.35-10.83-3.77-6.46-5.2-13.95-8.13-20.79a33.3,33.3,0,0,0-5.66-9.25,22.46,22.46,0,0,0-9.71-6.21,49.57,49.57,0,0,0-12.52-2q-7.46-.46-14.93-.68-15.12-.43-30.23.07c-9.89.33-19.86.8-29.68,2a76.87,76.87,0,0,0-13.93,2.77c-3.15,1-6.89,3.1-7.8,6.54-1.06,4,2.73,6.58,5.63,8.42a44.9,44.9,0,0,0,9.94,4.61c14.45,4.79,30,3.54,44.72,7.23a43.28,43.28,0,0,1,19.73,10.37,49.86,49.86,0,0,1,12.21,19.5c6.33,17.94,3.57,37.43.35,55.71a551.55,551.55,0,0,1-13.26,57.18c-2.69,9.3-5.91,18.45-8.59,27.75a86.6,86.6,0,0,0-2.92,13.87c-.51,4.42-.65,9.1.76,13.39,2.65,8,10.43,12.46,17.58,16a120.24,120.24,0,0,0,25.75,9.3,123.91,123.91,0,0,0,13.26,2.36c1.91.24,1.89-2.76,0-3a118.17,118.17,0,0,1-26.28-6.42,115.59,115.59,0,0,1-12.45-5.45,45.39,45.39,0,0,1-10.15-6.49,17.11,17.11,0,0,1-5.58-10.33,42.07,42.07,0,0,1,.78-13.65c1.76-9.27,5.16-18.16,7.93-27.16a553.29,553.29,0,0,0,14-55.73c3.68-18.67,7.59-38.26,4.44-57.29-2.44-14.8-10.13-29.64-23.36-37.46-13-7.69-28.72-7.56-43.26-9.42-7.1-.9-14.34-2.32-20.78-5.56a37.66,37.66,0,0,1-4.73-2.83c-1.26-.88-3.15-2.08-2.92-3.86.2-1.56,1.79-2.73,3-3.47a20.92,20.92,0,0,1,5.48-2c9.26-2.37,19-2.81,28.48-3.36q14.84-.86,29.71-.8c9.64,0,19.33.26,28.94,1,4.12.32,8.39.89,12.16,2.67a19.89,19.89,0,0,1,8.09,7.18c4,6.15,5.59,13.46,8.19,20.26,2.46,6.45,6.44,13.06,12.54,16.66a15.6,15.6,0,0,0,9.48,2.16c1.9-.19,1.92-3.2,0-3Z"/><path class="cls-3" d="M1563.42,630.85a209.37,209.37,0,0,0,41-29.86,216,216,0,0,0,32.88-38.89A211,211,0,0,0,1660,516.74c1.49-4.17,2.94-8.39,4-12.68,1.2-4.72,1.42-9.52-.8-14-1.9-3.82-5.13-6.8-8.46-9.36-3.71-2.86-7.65-5.46-11.61-8a198.29,198.29,0,0,0-52.91-23.27c-2.33-.64-4.68-1.24-7-1.79-1.88-.44-2.68,2.45-.8,2.89A195.77,195.77,0,0,1,1635,471.4c4.06,2.33,8,4.82,11.93,7.44a61.43,61.43,0,0,1,10.22,8c3,3.17,5,7,4.77,11.46s-2,9.14-3.41,13.45a206.81,206.81,0,0,1-21.22,44.78,212.56,212.56,0,0,1-31,38.47,206.77,206.77,0,0,1-39.07,30.19q-2.65,1.57-5.35,3.07c-1.69.94-.17,3.53,1.52,2.59Z"/><path class="cls-3" d="M1567.78,431c18.22,0,36.45,0,54.66.62s36.34,1.73,54.38,4c9.06,1.15,18.07,2.59,27,4.38a164.67,164.67,0,0,1,24.83,6.54c14,5.16,27.93,14.64,33.13,29.32,5.61,15.85.56,33.58-4.13,49a283.38,283.38,0,0,1-18.23,45.07,365.31,365.31,0,0,1-24.94,41.89,433.67,433.67,0,0,1-30,39c-10.82,12.48-22.7,24.24-36.39,33.56-13.37,9.11-28.51,15.9-44.57,18.39a84.09,84.09,0,0,1-11.87,1,1.5,1.5,0,0,0,0,3c16.57-.22,32.71-5.28,47.18-13.18,14.69-8,27.58-19,39.09-31.07a382.25,382.25,0,0,0,31.94-39,391.29,391.29,0,0,0,26.9-42.13,303.18,303.18,0,0,0,20.35-45.31,247,247,0,0,0,7.09-23.84c2-8.26,3.43-16.85,2.81-25.37a43,43,0,0,0-7.71-22.06,54.83,54.83,0,0,0-16.55-14.92,91.82,91.82,0,0,0-23.53-9.45c-8.78-2.35-17.75-4.06-26.71-5.54a497,497,0,0,0-55.13-5.67c-18.64-1-37.32-1.17-56-1.22l-13.65,0a1.5,1.5,0,0,0,0,3Z"/><path class="cls-3" d="M1590.15,722.37c-2.72,21.38-2.45,43-3.09,64.48-.63,21.15-2.11,42.56-8.56,62.85A107.9,107.9,0,0,1,1572,866c-2.45,4.79-5.58,9.36-10.24,12.22-1.64,1-.14,3.6,1.52,2.59,8.62-5.29,12.78-15.49,16.14-24.57a155.26,155.26,0,0,0,7.74-31.43c3.16-21.67,2.95-43.61,3.53-65.45.33-12.37.91-24.74,2.47-37,.24-1.91-2.76-1.89-3,0Z"/><path class="cls-3" d="M1207.69,893.63a54.27,54.27,0,0,1,13.3-22c3.07-3.08,6.68-6.43,10.93-7.71a7.24,7.24,0,0,1,6.28.71,22.83,22.83,0,0,1,4.7,5,129.69,129.69,0,0,1,9.86,14.08,1.52,1.52,0,0,0,2.36.3c6.22-6.39,14.66-11.8,23.91-11.43,7.85.31,15.83,5.36,17.7,13.29a1.51,1.51,0,0,0,2.2.89,89.79,89.79,0,0,1,34.5-14.27,87.59,87.59,0,0,1,18.92-1.39c4.93.17,10.84.76,14.46,4.52,1.76,1.81,2.25,4.59,4.32,6.12,2.37,1.74,5.29.93,7.82,0a87.78,87.78,0,0,1,20-4.7c5.25-.56,12-1.47,16.78,1.43,2.43,1.47,2.8,4,4.54,6s4.55,2.19,7.08,1.59c3.56-.83,7-2.19,10.57-3.16q5.55-1.51,11.19-2.67a87.43,87.43,0,0,1,11.58-1.93c3-.21,7.64.6,7.77,4.48a1.5,1.5,0,0,0,1.89,1.44c6.84-2.68,14-5.55,21.44-5.54,6,0,12.42,2,16.2,7a1.52,1.52,0,0,0,2,.54,30.85,30.85,0,0,1,8.09-4.59c1.31-.49,2.77-.94,3.17.77a11.17,11.17,0,0,1-.18,4,118.16,118.16,0,0,1-4.29,18.66,115.62,115.62,0,0,1-7.36,17.89c-1.2,2.33-2.55,5-5.45,5.4-3.07.38-6.47-1-9.38-1.81q-11-3-21.88-6.75a1.51,1.51,0,0,0-1.46.39c-7.08,6.79-20.14,5-25.16-3.41a1.52,1.52,0,0,0-2.59,0c-2.79,3.83-5.77,8-10.14,10.11-3.6,1.78-8.58,1.82-11.42-1.35-1.26-1.4-2.16-3.17-3.83-4.15a4.53,4.53,0,0,0-5.19.47c-1.73,1.36-2.78,3.26-4.75,4.38a10.83,10.83,0,0,1-6.26,1.35c-5.15-.45-9-5.14-9.12-10.19a1.52,1.52,0,0,0-2.25-1.3c-3.92,2-6.53,5.54-9.35,8.79-3.21,3.71-6.84,6.49-12,6.52-11.06.09-18.29-9.55-24.12-17.65a1.55,1.55,0,0,0-2.06-.53c-4,2.12-7.37,5.31-10.7,8.4s-6.69,6.17-11,7.42c-11.83,3.4-20.46-8.35-26.16-16.75a1.52,1.52,0,0,0-2.35-.3,24.85,24.85,0,0,1-38.37-5.77,1.51,1.51,0,0,0-2.36-.3c-6.72,7.16-15.76,13.33-25.91,13.55-8.65.2-17.57-4.24-21.06-12.44-.75-1.77-3.34-.24-2.59,1.52,2.94,6.91,9.61,11.54,16.79,13.2,8.06,1.86,16.35-.18,23.37-4.31a52.63,52.63,0,0,0,11.52-9.4l-2.35-.31A27.87,27.87,0,0,0,1295,914l-2.36-.31c5.14,7.58,11,15.8,20.38,18.19a17.77,17.77,0,0,0,12.09-1.18c3.44-1.62,6.35-4.21,9.12-6.77,3.26-3,6.44-6.16,10.42-8.23l-2.05-.54c5,7,10.39,14.3,18.63,17.56a20.12,20.12,0,0,0,12.42,1c3.78-1,6.76-3.45,9.31-6.33,2.82-3.18,5.3-6.84,9.18-8.83l-2.26-1.29a13.67,13.67,0,0,0,7,11.72,13.5,13.5,0,0,0,13.65-.77,13.17,13.17,0,0,0,2.51-2.2c.73-.82,1.72-2.49,3-2.4,1.83.14,3.22,3.39,4.45,4.53,3.42,3.16,8.68,3.46,12.89,1.88,5.64-2.11,9.37-7.17,12.78-11.87h-2.59c6,10.1,21.4,12.15,29.87,4l-1.46.39q11.43,3.9,23.08,7.07c3.14.85,6.58,2.08,9.87,1.47s5.19-3.1,6.66-5.84a114.42,114.42,0,0,0,8.41-20.36c1.11-3.61,2.06-7.27,2.82-11a58.94,58.94,0,0,0,1.6-10.21c.08-3.17-1.64-6.2-5.22-5.63-3.79.6-7.68,3.12-10.65,5.42l2,.54c-4.17-5.41-10.65-8-17.37-8.4-8.22-.44-16.14,2.66-23.65,5.61l1.9,1.45a7.47,7.47,0,0,0-4.1-6.31c-2.78-1.49-6-1.32-9-.91a170.15,170.15,0,0,0-21.22,4.45c-3.32.9-6.56,2-9.86,3-1.26.36-2.92.79-4.13.06s-1.71-2.68-2.49-3.89c-2.89-4.5-8.6-5.56-13.57-5.6a81.77,81.77,0,0,0-20.47,2.66c-3.39.86-6.62,2.11-10,3.12-1.45.44-3.12.8-4.23-.48-1-1.09-1.37-2.58-2.19-3.76-3-4.39-8.38-6.06-13.44-6.7a75.52,75.52,0,0,0-18.94.35,92.6,92.6,0,0,0-40.48,15.39l2.21.9c-2.1-9-10.86-14.72-19.7-15.43-10.31-.84-20,5.13-26.92,12.25l2.35.31a135.9,135.9,0,0,0-9.59-13.76c-3-3.76-6.22-8.08-11.53-7.89-4.93.16-9.19,3.41-12.74,6.53a57.05,57.05,0,0,0-9.55,10.91,57.66,57.66,0,0,0-7.15,14.93c-.57,1.85,2.32,2.64,2.9.8Z"/><path d="M118.57,148a2.61,2.61,0,0,1-.78-1.92V110.23a3.86,3.86,0,0,1,1.14-2.79,3.71,3.71,0,0,1,2.76-1.17h.78a4.06,4.06,0,0,1,3.3,1.8l23.1,33.36V109a2.71,2.71,0,0,1,.78-2,2.56,2.56,0,0,1,1.92-.81,2.77,2.77,0,0,1,2.76,2.76v35.82a3.71,3.71,0,0,1-1.17,2.76,3.86,3.86,0,0,1-2.79,1.14h-.72a3.75,3.75,0,0,1-1.8-.45,4.14,4.14,0,0,1-1.38-1.17l-23.22-33.54v32.46a2.56,2.56,0,0,1-.81,1.92,2.71,2.71,0,0,1-2,.78A2.61,2.61,0,0,1,118.57,148Z"/><path d="M169.45,147.07a13.46,13.46,0,0,1-5.37-5.61,19.21,19.21,0,0,1,0-16.62,13.46,13.46,0,0,1,5.37-5.61,17.44,17.44,0,0,1,16.14,0,13.65,13.65,0,0,1,5.4,5.61,18.94,18.94,0,0,1,0,16.62,13.65,13.65,0,0,1-5.4,5.61,17.44,17.44,0,0,1-16.14,0Zm12.81-4.14a9.16,9.16,0,0,0,3.72-3.6,12,12,0,0,0,1.47-6.24,11.88,11.88,0,0,0-1.47-6.18,9,9,0,0,0-3.72-3.57,10.52,10.52,0,0,0-4.71-1.11,10.64,10.64,0,0,0-4.77,1.11,8.78,8.78,0,0,0-3.69,3.57,12.08,12.08,0,0,0-1.44,6.18,12.21,12.21,0,0,0,1.44,6.24,9,9,0,0,0,3.69,3.6,10.41,10.41,0,0,0,4.77,1.14A10.29,10.29,0,0,0,182.26,142.93Z"/><path d="M202.09,141.13v-18.6h-4.26a1.13,1.13,0,0,1-1.14-1.14,1.25,1.25,0,0,1,.54-1l8.16-8a1.51,1.51,0,0,1,1-.54,1.06,1.06,0,0,1,.81.36,1.2,1.2,0,0,1,.33.84v4.8h6.78a2.26,2.26,0,0,1,2.34,2.34,2.3,2.3,0,0,1-.66,1.65,2.22,2.22,0,0,1-1.68.69h-6.78v18.12q0,2.34,1.11,3a5.59,5.59,0,0,0,2.79.63,8.32,8.32,0,0,0,2.4-.36l.51-.12a3.27,3.27,0,0,1,.69-.06,2.11,2.11,0,0,1,1.5.63,2,2,0,0,1,.66,1.53,2.27,2.27,0,0,1-1.38,2.1,11.74,11.74,0,0,1-5,1.08Q202.09,149.05,202.09,141.13Z"/><path d="M241.72,148a8.52,8.52,0,0,1-3.57-3.15,8.68,8.68,0,0,1-1.32-4.77,8.41,8.41,0,0,1,3.51-7.08q3.51-2.64,10.29-2.64h7.26v-.48q0-4-1.95-5.7t-6.09-1.74a20.45,20.45,0,0,0-4,.36,34,34,0,0,0-3.93,1.08,3.37,3.37,0,0,1-.78.12,2.13,2.13,0,0,1-1.56-.66,2.2,2.2,0,0,1-.66-1.62,2.31,2.31,0,0,1,1.56-2.28,26.39,26.39,0,0,1,10.38-2.16,13.55,13.55,0,0,1,7,1.68,10.56,10.56,0,0,1,4.2,4.35,12.65,12.65,0,0,1,1.35,5.79v17a2.56,2.56,0,0,1-.81,1.92,2.71,2.71,0,0,1-2,.78,2.66,2.66,0,0,1-2.7-2.7v-1.56a15.07,15.07,0,0,1-11.28,4.56A11.15,11.15,0,0,1,241.72,148Zm12-5a14.18,14.18,0,0,0,4.14-3.21v-5h-6.54q-9.06,0-9.06,4.74a4.45,4.45,0,0,0,1.47,3.48q1.47,1.32,4.89,1.32A10.85,10.85,0,0,0,253.75,143Z"/><path d="M273.31,148a2.61,2.61,0,0,1-.78-1.92V120.31a2.71,2.71,0,0,1,.78-2,2.56,2.56,0,0,1,1.92-.81,2.77,2.77,0,0,1,2.76,2.76v2.46a19.94,19.94,0,0,1,4.92-4,12.42,12.42,0,0,1,6.24-1.5,10.37,10.37,0,0,1,5.73,1.56,10.14,10.14,0,0,1,3.72,4.26,13.6,13.6,0,0,1,1.29,5.94v17a2.56,2.56,0,0,1-.81,1.92,2.71,2.71,0,0,1-1.95.78,2.66,2.66,0,0,1-2.7-2.7V129.61q0-7.32-6.6-7.32a9.55,9.55,0,0,0-5.37,1.56,19.44,19.44,0,0,0-4.47,4.2v18a2.56,2.56,0,0,1-.81,1.92,2.71,2.71,0,0,1-1.95.78A2.61,2.61,0,0,1,273.31,148Z"/><path d="M314.47,147.07a13.46,13.46,0,0,1-5.37-5.61,19.21,19.21,0,0,1,0-16.62,13.46,13.46,0,0,1,5.37-5.61,17.44,17.44,0,0,1,16.14,0,13.65,13.65,0,0,1,5.4,5.61,18.94,18.94,0,0,1,0,16.62,13.65,13.65,0,0,1-5.4,5.61,17.44,17.44,0,0,1-16.14,0Zm12.81-4.14a9.16,9.16,0,0,0,3.72-3.6,12,12,0,0,0,1.47-6.24,11.88,11.88,0,0,0-1.47-6.18,9,9,0,0,0-3.72-3.57,10.52,10.52,0,0,0-4.71-1.11,10.64,10.64,0,0,0-4.77,1.11,8.78,8.78,0,0,0-3.69,3.57,12.08,12.08,0,0,0-1.44,6.18,12.21,12.21,0,0,0,1.44,6.24,9,9,0,0,0,3.69,3.6,10.41,10.41,0,0,0,4.77,1.14A10.29,10.29,0,0,0,327.28,142.93Z"/><path d="M347.11,141.13v-18.6h-4.26a1.13,1.13,0,0,1-1.14-1.14,1.25,1.25,0,0,1,.54-1l8.16-8a1.51,1.51,0,0,1,1-.54,1.06,1.06,0,0,1,.81.36,1.2,1.2,0,0,1,.33.84v4.8h6.78a2.26,2.26,0,0,1,2.34,2.34,2.3,2.3,0,0,1-.66,1.65,2.22,2.22,0,0,1-1.68.69h-6.78v18.12q0,2.34,1.11,3a5.59,5.59,0,0,0,2.79.63,8.32,8.32,0,0,0,2.4-.36l.51-.12a3.27,3.27,0,0,1,.69-.06,2.11,2.11,0,0,1,1.5.63,2,2,0,0,1,.66,1.53,2.27,2.27,0,0,1-1.38,2.1,11.74,11.74,0,0,1-5,1.08Q347.11,149.05,347.11,141.13Z"/><path d="M369,148a2.61,2.61,0,0,1-.78-1.92V107.11a2.71,2.71,0,0,1,.78-2,2.56,2.56,0,0,1,1.92-.81,2.77,2.77,0,0,1,2.76,2.76v15.66a19.94,19.94,0,0,1,4.92-4,12.42,12.42,0,0,1,6.24-1.5,10.37,10.37,0,0,1,5.73,1.56,10.14,10.14,0,0,1,3.72,4.26,13.6,13.6,0,0,1,1.29,5.94v17a2.56,2.56,0,0,1-.81,1.92,2.71,2.71,0,0,1-1.95.78,2.66,2.66,0,0,1-2.7-2.7V129.61q0-7.32-6.6-7.32a9.55,9.55,0,0,0-5.37,1.56,19.44,19.44,0,0,0-4.47,4.2v18a2.56,2.56,0,0,1-.81,1.92,2.71,2.71,0,0,1-1.95.78A2.61,2.61,0,0,1,369,148Z"/><path d="M407,144.88q-4.11-4.17-4.11-11.73a19.56,19.56,0,0,1,1.56-7.86,13.36,13.36,0,0,1,4.8-5.82,13.79,13.79,0,0,1,8-2.22,14,14,0,0,1,7.68,2.07,13.39,13.39,0,0,1,4.92,5.52,17,17,0,0,1,1.68,7.53,2.62,2.62,0,0,1-2.76,2.7H408.43a9.87,9.87,0,0,0,3.12,6.54q2.64,2.34,7.38,2.34a18,18,0,0,0,4.41-.48,18.32,18.32,0,0,0,3.69-1.38,2.38,2.38,0,0,1,1.08-.24,2.41,2.41,0,0,1,1.68.66,2.18,2.18,0,0,1,.72,1.68,2.59,2.59,0,0,1-1.56,2.22,18.74,18.74,0,0,1-10.5,2.64Q411.13,149.05,407,144.88Zm19.11-14.25a9.61,9.61,0,0,0-1.53-4.92,8.26,8.26,0,0,0-3.33-2.91,9.15,9.15,0,0,0-8,0,8.06,8.06,0,0,0-3.3,2.91,9.79,9.79,0,0,0-1.5,4.92Z"/><path d="M439.51,148a2.61,2.61,0,0,1-.78-1.92V120.31a2.71,2.71,0,0,1,.78-2,2.56,2.56,0,0,1,1.92-.81,2.77,2.77,0,0,1,2.76,2.76v2.58q4.2-5.64,9.42-5.64h.3a2.51,2.51,0,0,1,1.89.78,2.66,2.66,0,0,1,.75,1.92,2.42,2.42,0,0,1-.78,1.86,2.81,2.81,0,0,1-2,.72h-.3a10.23,10.23,0,0,0-5.28,1.41,12.16,12.16,0,0,0-4,3.87v18.24a2.56,2.56,0,0,1-.81,1.92,2.71,2.71,0,0,1-1.95.78A2.61,2.61,0,0,1,439.51,148Z"/><path d="M482.71,147.07a13.46,13.46,0,0,1-5.37-5.61,19.21,19.21,0,0,1,0-16.62,13.46,13.46,0,0,1,5.37-5.61,17.44,17.44,0,0,1,16.14,0,13.65,13.65,0,0,1,5.4,5.61,18.94,18.94,0,0,1,0,16.62,13.65,13.65,0,0,1-5.4,5.61,17.44,17.44,0,0,1-16.14,0Zm12.81-4.14a9.16,9.16,0,0,0,3.72-3.6,12,12,0,0,0,1.47-6.24,11.88,11.88,0,0,0-1.47-6.18,9,9,0,0,0-3.72-3.57,10.52,10.52,0,0,0-4.71-1.11,10.64,10.64,0,0,0-4.77,1.11,8.78,8.78,0,0,0-3.69,3.57,12.08,12.08,0,0,0-1.44,6.18,12.21,12.21,0,0,0,1.44,6.24,9,9,0,0,0,3.69,3.6,10.41,10.41,0,0,0,4.77,1.14A10.29,10.29,0,0,0,495.52,142.93Z"/><path d="M514.57,148a2.61,2.61,0,0,1-.78-1.92V120.31a2.71,2.71,0,0,1,.78-2,2.56,2.56,0,0,1,1.92-.81,2.77,2.77,0,0,1,2.76,2.76v2.46a19.94,19.94,0,0,1,4.92-4,12.42,12.42,0,0,1,6.24-1.5,10.37,10.37,0,0,1,5.73,1.56,10.14,10.14,0,0,1,3.72,4.26,13.6,13.6,0,0,1,1.29,5.94v17a2.56,2.56,0,0,1-.81,1.92,2.71,2.71,0,0,1-2,.78,2.66,2.66,0,0,1-2.7-2.7V129.61q0-7.32-6.6-7.32a9.55,9.55,0,0,0-5.37,1.56,19.44,19.44,0,0,0-4.47,4.2v18a2.56,2.56,0,0,1-.81,1.92,2.71,2.71,0,0,1-2,.78A2.61,2.61,0,0,1,514.57,148Z"/><path d="M552.58,144.88q-4.11-4.17-4.11-11.73a19.56,19.56,0,0,1,1.56-7.86,13.36,13.36,0,0,1,4.8-5.82,13.79,13.79,0,0,1,8-2.22,14,14,0,0,1,7.68,2.07,13.39,13.39,0,0,1,4.92,5.52,17,17,0,0,1,1.68,7.53,2.62,2.62,0,0,1-2.76,2.7H554a9.87,9.87,0,0,0,3.12,6.54q2.64,2.34,7.38,2.34a18,18,0,0,0,4.41-.48,18.32,18.32,0,0,0,3.69-1.38,2.38,2.38,0,0,1,1.08-.24,2.41,2.41,0,0,1,1.68.66,2.18,2.18,0,0,1,.72,1.68,2.59,2.59,0,0,1-1.56,2.22,18.74,18.74,0,0,1-10.5,2.64Q556.69,149.05,552.58,144.88Zm19.11-14.25a9.61,9.61,0,0,0-1.53-4.92,8.26,8.26,0,0,0-3.33-2.91,9.15,9.15,0,0,0-8,0,8.06,8.06,0,0,0-3.3,2.91,9.79,9.79,0,0,0-1.5,4.92Z"/><path d="M585.52,147.64a3.47,3.47,0,0,1-1-2.55,3.59,3.59,0,0,1,3.54-3.54,3.47,3.47,0,0,1,2.55,1,3.4,3.4,0,0,1,1.05,2.49,3.59,3.59,0,0,1-3.6,3.6A3.4,3.4,0,0,1,585.52,147.64Zm1.05-11.25a1.8,1.8,0,0,1-.6-1.26l-1.08-19.8v-5.94a3.07,3.07,0,0,1,3.12-3.12,2.92,2.92,0,0,1,2.19.9,3.07,3.07,0,0,1,.87,2.22v5.94L590,135.13a1.86,1.86,0,0,1-.57,1.26,2,2,0,0,1-1.41.48A2.09,2.09,0,0,1,586.57,136.39Z"/><path class="cls-3" d="M609.65,639.5l8.11-15.45c.9-1.71-1.69-3.22-2.59-1.51L607.06,638c-.89,1.71,1.69,3.23,2.59,1.51Z"/><path class="cls-3" d="M624.41,633.48q6.35-7.82,13.42-15a1.5,1.5,0,0,0-2.12-2.12q-7.08,7.18-13.42,15a1.54,1.54,0,0,0,0,2.12,1.51,1.51,0,0,0,2.12,0Z"/><path class="cls-3" d="M556.36,623.75,548.69,613,545,607.74a19.68,19.68,0,0,1-3.05-5.19c-.59-1.83-3.49-1-2.9.79a19.41,19.41,0,0,0,2.87,5.22l4,5.57,7.92,11.14c1.11,1.56,3.72.06,2.59-1.52Z"/><path class="cls-3" d="M543.77,622.27a57.88,57.88,0,0,1-23.61-23.39c-.92-1.7-3.51-.19-2.59,1.51a60.73,60.73,0,0,0,24.69,24.47c1.7.91,3.22-1.68,1.51-2.59Z"/></svg>