<svg id="Layer_1" data-name="Layer 1" xmlns="http://www.w3.org/2000/svg" viewBox="0 0 1920 1080"><defs><style>.cls-1{font-size:60px;font-family:VarelaRound-Regular, Varela Round;}.cls-2{letter-spacing:0em;}.cls-3{letter-spacing:-0.01em;}.cls-4{letter-spacing:-0.01em;}.cls-5{letter-spacing:-0.01em;}.cls-6{letter-spacing:0em;}.cls-7{letter-spacing:0em;}.cls-8{letter-spacing:-0.04em;}.cls-9{letter-spacing:-0.01em;}.cls-10{letter-spacing:-0.01em;}.cls-11{letter-spacing:0em;}.cls-12{fill:#4d4d4d;}</style></defs><title>42-teeth</title><text class="cls-1" transform="translate(157.3 151.51)">Who <tspan class="cls-2" x="149.28" y="0">c</tspan><tspan x="181.02" y="0">ould kn</tspan><tspan class="cls-3" x="391.67" y="0">o</tspan><tspan x="427.73" y="0">w mo</tspan><tspan class="cls-4" x="582.41" y="0">r</tspan><tspan x="604.49" y="0">e</tspan><tspan class="cls-5" x="0" y="72">w</tspan><tspan class="cls-6" x="47.1" y="72">ould </tspan><tspan class="cls-7" x="188.52" y="72">c</tspan><tspan x="220.26" y="72">ome back? </tspan></text><text class="cls-1" transform="translate(1162.3 261.51)"><tspan class="cls-8">F</tspan><tspan x="34.08" y="0">o</tspan><tspan class="cls-9" x="70.56" y="0">r</tspan><tspan x="92.64" y="0">esig</tspan><tspan class="cls-10" x="208.2" y="0">h</tspan><tspan class="cls-11" x="244.02" y="0">t, </tspan><tspan class="cls-3" x="298.14" y="0">y</tspan><tspan x="329.94" y="0">ou lack.</tspan></text><path class="cls-12" d="M1546.48,572.5c24.65,12.69,45,32.08,61.71,54,16.94,22.24,30.88,46.91,42.37,72.36A413.38,413.38,0,0,1,1687,865.65a399,399,0,0,1-8.54,85q-1.1,5.18-2.33,10.31c-.44,1.88,2.45,2.68,2.9.8a403,403,0,0,0,10.9-85.55,415.89,415.89,0,0,0-32.67-169.34A388.72,388.72,0,0,0,1616,632.09c-16-22.43-35.32-42.9-59.07-57.2-2.92-1.76-5.91-3.41-8.94-5-1.72-.88-3.24,1.71-1.52,2.59Z"/><path class="cls-12" d="M1562.8,815.24c-11.32-4.5-23.49-6.26-35.59-7a370.09,370.09,0,0,0-38.27,0q-19.28.88-38.42,3.5a338,338,0,0,0-37.1,6.8,67.24,67.24,0,0,0-16,5.93,41.28,41.28,0,0,0-12.26,10.32c-6.78,8.44-10.68,18.82-13.91,29-7.19,22.76-9.85,47.68-3.45,71,5.33,19.41,16.85,37.2,33.25,49q3.15,2.26,6.5,4.22v-2.6c-19.1,9-40.3,12.46-59.39,21.53-8.57,4.06-16.78,9.28-23.23,16.3-1.56,1.71-3.27,3.61-3.58,6s1.11,4.4,2.91,5.86a50.46,50.46,0,0,0,13.33,7.36c10.1,4,20.93,5.89,31.68,7.12,11.24,1.29,22.56,2,33.85,2.61q34.64,2,69.36,1.88t69.33-2.41c2.8-.18,5.6-.38,8.4-.58,1.92-.14,1.93-3.14,0-3q-33.62,2.45-67.33,2.9t-67.38-1.14q-16.77-.78-33.52-2.07c-10.67-.83-21.37-1.91-31.78-4.49a82.82,82.82,0,0,1-14.73-5,53,53,0,0,1-6.58-3.59c-1.6-1-4.69-2.67-4.59-4.91s2.45-4.17,3.86-5.63a61.44,61.44,0,0,1,5.07-4.61,75.11,75.11,0,0,1,11.63-7.62c17.94-9.69,38.28-13.25,57.06-20.83,2.41-1,4.8-2,7.15-3.12a1.52,1.52,0,0,0,0-2.6c-17.19-10-29.86-26.51-36.42-45.17-7.64-21.76-6.61-45.54-.83-67.61,2.75-10.48,6.2-21.26,11.87-30.57a43.46,43.46,0,0,1,10-11.58,46.58,46.58,0,0,1,14.72-7.41,151.87,151.87,0,0,1,16.59-4q9.16-1.83,18.41-3.27,18.8-2.92,37.79-4.12c12.41-.8,24.87-1.06,37.31-.76,11.89.29,23.89,1.19,35.38,4.45a81.43,81.43,0,0,1,8.15,2.77c1.79.71,2.57-2.19.79-2.9Z"/><path class="cls-12" d="M1275,859.51c-9.64.3-18.18,4.85-25.47,10.89a107.16,107.16,0,0,0-10.37,10.07c-3.39,3.69-6.93,7.42-9.63,11.66a20.69,20.69,0,0,0-3.1,15.08c.88,5.09,3.17,10,5.66,14.51a91.31,91.31,0,0,0,18.66,22.86c3.68,3.37,7.57,6.52,11.55,9.52,2,1.53,4.09,3,6.18,4.47l3,2.09c.63.44,2,1.26,1.85,2.18s-1.51,1.3-2.17,1.55c-1.27.48-2.58.86-3.88,1.26-2.63.82-5.29,1.58-8,2.33-5.25,1.46-10.53,2.84-15.77,4.35s-10.51,3.17-15.62,5.18c-4.83,1.92-9.83,4-14.08,7-4,2.83-6.86,6.69-7.2,11.69a19.14,19.14,0,0,0,4.73,13.2c3.26,3.93,7.69,6.78,12.15,9.15a127.26,127.26,0,0,0,15,6.7,134.94,134.94,0,0,0,32.49,7.71c2.71.3,5.43.51,8.15.65,1.93.09,1.93-2.91,0-3a132.94,132.94,0,0,1-32.14-5.63,127.85,127.85,0,0,1-15-5.64,74.7,74.7,0,0,1-13.36-7.32c-3.89-2.82-7.28-6.57-8.52-11.31a11.88,11.88,0,0,1,3.71-12.37c3.67-3.26,8.59-5.35,13.07-7.22A149.06,149.06,0,0,1,1241.8,976c5.16-1.53,10.36-2.9,15.54-4.32s10.28-2.6,15.13-4.56c1.83-.74,3.83-2.06,3.9-4.26s-1.84-3.73-3.53-4.87c-4-2.75-8-5.58-11.85-8.61a112.77,112.77,0,0,1-20.73-20.51,73,73,0,0,1-7.34-12c-2.22-4.61-4.22-9.75-3.86-15s3.65-9.56,6.92-13.38c3.07-3.6,6.24-7.12,9.59-10.46,6.36-6.35,13.74-12.29,22.6-14.59a31.24,31.24,0,0,1,6.8-1c1.93,0,1.93-3,0-3Z"/><path class="cls-12" d="M1413.75,586c5.1-11.94,10.09-24.38,10.29-37.55.18-11.67-3.64-23.61-12.68-31.39-8.27-7.12-19.8-10.23-30.25-6.37a34,34,0,0,0-20.17,21.46c-4.24,13.32,0,27.8,6.74,39.51.81,1.43,3.39.46,2.74-1.15l-11-27.26c-3.14-7.79-6.09-16.34-12.8-21.85a21.05,21.05,0,0,0-12.05-5,1.52,1.52,0,0,0-1.5,1.5,125.24,125.24,0,0,0,6.21,49.09q1,3,2.13,5.85a14.81,14.81,0,0,0,2.48,4.44c2.63,2.94,6.88,2.77,10.48,3.08a211,211,0,0,1,52.84,11.45c1.83.64,2.61-2.25.8-2.9a215.34,215.34,0,0,0-47.53-11q-3-.35-6.11-.6a33.7,33.7,0,0,1-5.67-.63c-3.68-1-4.64-5.19-5.77-8.34a124.66,124.66,0,0,1-5.87-23.3,121.86,121.86,0,0,1-1-27.19l-1.5,1.5c7.77.51,13.47,6.58,16.92,13.06a120.06,120.06,0,0,1,5,11.59l5.17,12.83,5.82,14.42,2.74-1.15c-5.68-9.92-9.57-21.75-7.42-33.26a31.48,31.48,0,0,1,16.16-22c9.17-4.75,19.87-3.24,28.14,2.66,8.95,6.39,13.36,17,13.85,27.75.62,13.73-4.55,26.81-9.84,39.21-.75,1.75,1.83,3.28,2.59,1.51Z"/><path class="cls-12" d="M1353.86,639.92c6.45-5.5,17-4,21.28,3.37a8.85,8.85,0,0,1,1.46,5.54c-.37,2.3-2.93,2.76-4.83,3.24a43.82,43.82,0,0,1-7.88,1.24,16.68,16.68,0,0,1-3.46,0c-1.16-.17-1.44-.82-1.66-1.9-.86-4.32-1.66-9.88,1.38-13.55,1.22-1.48-.89-3.62-2.12-2.13-3.64,4.41-3.23,10.08-2.34,15.38a7.38,7.38,0,0,0,1.18,3.51,4.74,4.74,0,0,0,3.36,1.67,33.24,33.24,0,0,0,9.53-.74c2.69-.51,6.24-1,8.25-3.09s1.89-4.82,1.21-7.25a16.52,16.52,0,0,0-10.42-10.76,17.67,17.67,0,0,0-17.06,3.32c-1.48,1.25.65,3.37,2.12,2.12Z"/><path class="cls-12" d="M1368.89,659.72a58.46,58.46,0,0,0-.49,23.42c.34,1.9,3.23,1.1,2.89-.79a54.59,54.59,0,0,1,.5-21.83c.42-1.88-2.47-2.68-2.9-.8Z"/><path class="cls-12" d="M1382.41,660.15v27.26a1.5,1.5,0,0,0,3,0V660.15a1.5,1.5,0,0,0-3,0Z"/><path class="cls-12" d="M1353.46,658.82a94.68,94.68,0,0,0,1.84,19.07c.38,1.89,3.27,1.09,2.89-.8a90.35,90.35,0,0,1-1.73-18.27,1.5,1.5,0,0,0-3,0Z"/><path class="cls-12" d="M1382.48,684.09l-19.1-1.25c-1.93-.12-1.92,2.88,0,3l19.1,1.25c1.93.12,1.92-2.88,0-3Z"/><path class="cls-12" d="M1381.81,657.13l-24.08-1.8c-1.92-.14-1.91,2.86,0,3l24.08,1.8c1.92.15,1.91-2.85,0-3Z"/><path class="cls-12" d="M1693.39,968.05c.46-7.06,2.09-14.6,7.61-19.51a16.17,16.17,0,0,1,8.94-4.09c3.72-.35,7.17,1,10.29,3a44.4,44.4,0,0,1,14.89,14.78,27.69,27.69,0,0,1,3.5,9.15,21.44,21.44,0,0,1,.28,4.8c-.11,1.88-.6,3.69-.88,5.55a10.11,10.11,0,0,0,.53,5.5,27.94,27.94,0,0,0,2.69,4.49,14.35,14.35,0,0,1,2.48,8.66c-.25,6.37-4.14,12.2-9.09,16-5.72,4.36-12.7,6.69-19.57,8.53a190.14,190.14,0,0,1-24.32,5c-15,2-31.15,1.16-44.57-6.49a47.65,47.65,0,0,1-4.51-2.93c-1.56-1.14-3.06,1.46-1.51,2.59,13.21,9.64,30.37,11.79,46.27,10.32a176.7,176.7,0,0,0,26.4-4.86c7.44-1.85,15-4.07,21.5-8.32,5.82-3.84,10.56-9.54,12-16.51a18,18,0,0,0-.54-9.71,21.17,21.17,0,0,0-2.51-4.66c-1-1.55-2.28-3.2-2.41-5.14-.14-2.13.62-4.25.89-6.35a22.32,22.32,0,0,0,.06-5.23,28.74,28.74,0,0,0-3.07-10.06c-3.36-6.61-8.81-12.08-14.84-16.3-3.27-2.29-6.86-4.25-10.87-4.73a17.23,17.23,0,0,0-10.38,2.23c-6.83,3.78-10.36,11-11.6,18.47-.32,1.93-.52,3.89-.65,5.84s2.88,1.92,3,0Z"/><path class="cls-12" d="M630.57,609.82c-9.88,9.15-23.53,12.36-35.15,18.61a55,55,0,0,0-9.37,6.26c-1.49,1.24.65,3.35,2.12,2.12,10.33-8.63,23.94-11.69,35.45-18.3a49.7,49.7,0,0,0,9.07-6.57c1.42-1.32-.71-3.43-2.12-2.12Z"/><path class="cls-12" d="M630,607.37c-17.26-.66-34.51-1.43-51.74-2.68q-7.34-.54-14.68-1.19l1.45,1.1c-1.22-8.6-6.59-16.45-13.14-22a1.52,1.52,0,0,0-2.51.66,5.61,5.61,0,0,0,.29,4.13,2.44,2.44,0,0,0,2.7,1.18A2.39,2.39,0,0,0,554,586.2a5.34,5.34,0,0,0-2.12-3.55,1.52,1.52,0,0,0-2.51.66q-1.92,8-3.83,16c-.73,3.07-1,6.81-3,9.36-1.89,2.37-5.34,2.5-7.9,1.26-2.76-1.34-5-3.58-7.22-5.58-2.53-2.23-5.34-4.58-8.77-5.15a1.52,1.52,0,0,0-1.84,1.84,169.52,169.52,0,0,1,2.74,33.2c0,1.93,3,1.93,3,0a173.1,173.1,0,0,0-2.85-34l-1.84,1.85c3.13.53,5.58,2.73,7.87,4.77,2.46,2.19,4.92,4.6,8,5.93a9.7,9.7,0,0,0,9.74-.86c3-2.29,3.79-6.22,4.51-9.7,1.25-6.08,2.85-12.11,4.29-18.15l-2.51.66a7.37,7.37,0,0,1,1.2,1.37c.15.21-.06.16.07.05s.22-.39.55-.46a2.24,2.24,0,0,1,.48,0c.25,0,.15.22.15.09a6,6,0,0,1,.06-1.74l-2.51.66C556,590,561,597.23,562.16,605.4a1.52,1.52,0,0,0,1.45,1.1c17.14,1.53,34.31,2.52,51.5,3.27q7.46.32,14.92.6c1.93.08,1.93-2.92,0-3Z"/><path class="cls-12" d="M586.83,640.55q-5.58,28.31-11.17,56.63c-1.82,9.2-3.68,18.49-3.88,27.9A86.21,86.21,0,0,0,575.41,751a111.86,111.86,0,0,0,5.17,13.92c.86,1.93,1.69,3.8,3.46,5.07a3.68,3.68,0,0,0,4.8,0c1.47-1.26-.66-3.38-2.12-2.12-.74.64-2.28-1.72-2.53-2.19-1-1.83-1.72-3.78-2.49-5.69a105,105,0,0,1-4-11.73,81.45,81.45,0,0,1-2.92-24.56c.35-8.82,2.11-17.5,3.82-26.13l5.2-26.37,5.87-29.78c.37-1.88-2.52-2.69-2.89-.79Z"/><path class="cls-12" d="M625.55,612.17a3.52,3.52,0,0,0,.32-2.9A3.65,3.65,0,0,0,624,607a1.48,1.48,0,0,0-.76-.21,1.15,1.15,0,0,0-.58.13,1.45,1.45,0,0,0-.87,1,10.47,10.47,0,0,0-.22,2.56,4.57,4.57,0,0,0,1.17,2.85,3.68,3.68,0,0,0,4.39.47,2.77,2.77,0,0,0,1-1,2.65,2.65,0,0,0,.24-1.77,1.5,1.5,0,0,0-1.85-1,1.5,1.5,0,0,0-.89.69,1.69,1.69,0,0,0-.15,1.15v0l-.05-.4a1.4,1.4,0,0,1,0,.29l.05-.39a1,1,0,0,1-.06.23l.15-.36a.82.82,0,0,1-.12.2l.24-.3a3,3,0,0,1-.25.25l.3-.24a2.12,2.12,0,0,1-.36.21l.36-.16a2.34,2.34,0,0,1-.59.16l.4-.05a2.5,2.5,0,0,1-.67,0l.4.05a2.33,2.33,0,0,1-.52-.13l.36.15a1.79,1.79,0,0,1-.38-.22l.3.23a2.12,2.12,0,0,1-.33-.34l.23.3a2.73,2.73,0,0,1-.32-.55l.15.36a3.39,3.39,0,0,1-.22-.83l.05.4a6.34,6.34,0,0,1,0-1.74l-.06.4c0-.22.07-.43.11-.65l-2.21.9a2.38,2.38,0,0,1,.44.25l-.3-.23a2.79,2.79,0,0,1,.39.38l-.23-.3a2.39,2.39,0,0,1,.32.56l-.15-.36a2.65,2.65,0,0,1,.15.57l-.05-.4a2.81,2.81,0,0,1,0,.58l.05-.4a2.32,2.32,0,0,1-.13.47l.15-.36a1.38,1.38,0,0,1-.14.27,1.5,1.5,0,0,0,2.59,1.51Z"/><path class="cls-12" d="M562.89,619.72a3.6,3.6,0,0,0,3.25-2.84,4.12,4.12,0,0,0-1.38-4.15,7.71,7.71,0,0,0-4.75-1.55c-1.74,0-3.65.37-5.28.11a1.5,1.5,0,1,0-.8,2.89,21.91,21.91,0,0,0,4.79,0,13.76,13.76,0,0,1,2,0c.32,0-.15-.05.19,0,.14,0,.29,0,.43.09a4.71,4.71,0,0,1,.83.26c-.26-.11.14.08.16.09s.24.14.35.22c.32.2-.13-.17.13.11a4.11,4.11,0,0,1,.29.3c-.21-.24,0,0,0,.08.17.25,0-.25,0,.05,0,.11.06.22.08.32-.09-.36,0-.07,0,0a1.9,1.9,0,0,1,0,.34c0-.39,0-.07,0,0s-.1.28,0,.06c0,.09-.1.18-.15.28s-.07.12,0,0l-.11.12c-.29.17.12,0,0,0s-.38.18-.16.1-.49,0,0,0a1.54,1.54,0,0,0-1.5,1.5c0,.74.67,1.59,1.5,1.5Z"/><path class="cls-12" d="M580.15,614.63c1.9-2,1.09-5.15-.95-6.76-2.54-2-6-1.46-8.9-.86a1.5,1.5,0,0,0-1,1.84,1.53,1.53,0,0,0,1.84,1l1.78-.33.2,0,.45,0c.3,0,.6,0,.9,0a8.81,8.81,0,0,1,.89,0s.47.07.18,0l.43.08a8.16,8.16,0,0,1,.84.26c-.3-.1,0,0,.07,0a2.61,2.61,0,0,1,.28.17c.08,0,.35.25.06,0l.24.21a2.5,2.5,0,0,1,.23.23c.06.07.27.33.05,0a4.93,4.93,0,0,1,.34.54c.06.1.25.31,0,0a1.11,1.11,0,0,1,.1.29c0,.1.05.2.08.3.08.28,0-.32,0,0a2.08,2.08,0,0,1,0,.25c0,.05,0,.41,0,.14s0,.07,0,.13l-.05.14c.09-.19.11-.24.06-.14a1.1,1.1,0,0,0-.14.26c-.07.09,0,.06.08-.09l-.14.15a1.53,1.53,0,0,0,0,2.12,1.51,1.51,0,0,0,2.12,0Z"/><path class="cls-12" d="M563.92,647.49c-7.73,2.28-15.8,4.68-22.36,9.55-7,5.22-10.68,12.86-12.65,21.23a128.8,128.8,0,0,0,.26,58.26c2.49,10.74,6,21.54,4.85,32.71-.2,1.92,2.8,1.91,3,0,1-9.55-1.37-19-3.66-28.17a145,145,0,0,1-4.5-28.29,126.36,126.36,0,0,1,1.93-28.8c1.49-8.13,3.74-16.55,10-22.4,6.53-6.12,15.59-8.72,24-11.19,1.85-.55,1.06-3.44-.8-2.9Z"/><path class="cls-12" d="M505.48,763.18c11,6.63,22.74,13.6,29.56,24.87a30.52,30.52,0,0,1,4.63,17.21c-.1,2.93.61,5.29,3.4,6.63a21.57,21.57,0,0,1,7.12,5,17.13,17.13,0,0,1,3.9,7.17c.32,1.33.3,2.61-1,3.38a7.63,7.63,0,0,1-3.7.82c-3.37.11-6.79-.21-10.16-.34l-11-.45q-11.22-.48-22.43-1l-5.49-.27c-1.45-.07-3.47.09-4.55-1.09a9.79,9.79,0,0,1-1.52-3.5c-.6-1.79-1.16-3.6-1.69-5.41a147.13,147.13,0,0,1-5.74-47.07c.08-1.93-2.92-1.92-3,0a149.63,149.63,0,0,0,5,44.68,109.22,109.22,0,0,0,3.27,10.61,7.16,7.16,0,0,0,2.44,3.52,8.63,8.63,0,0,0,4.45,1.19c7.92.51,15.88.78,23.81,1.13s16,.68,23.94,1c2.69.11,5.79.22,8.15-1.34,2.84-1.88,2.66-5.21,1.63-8.08a21.27,21.27,0,0,0-4.73-7.57,27.38,27.38,0,0,0-7.56-5.13c-1.49-.77-1.62-2-1.58-3.51a38.47,38.47,0,0,0,0-4.68,32.24,32.24,0,0,0-2.39-9.31c-6.13-14.6-20.26-23.21-33.23-31-1.65-1-3.16,1.59-1.51,2.59Z"/><path class="cls-12" d="M581.91,771.54a29.25,29.25,0,0,1-9.32,15.14,30.76,30.76,0,0,1-7.71,4.93c-3.28,1.47-6.82,2.26-10.06,3.84-1.73.85-.21,3.43,1.52,2.59,3.34-1.63,7-2.43,10.4-4a33.62,33.62,0,0,0,8.25-5.49,32.05,32.05,0,0,0,9.81-16.23c.45-1.87-2.44-2.67-2.89-.79Z"/><path class="cls-12" d="M583.14,753.38l16.07,10.48c2.61,1.71,5.25,3.37,7.82,5.14a25.74,25.74,0,0,1,6,5.27c3.13,4.08,3.7,9.32,3.34,14.3a74.16,74.16,0,0,1-2.84,14.67c-1.41,4.91-3.62,9.84-8.28,12.41a1.51,1.51,0,0,0-.69,1.69c.79,2.81,3.73,2.5,5.9,3.48,1.47.66.23,1.94-.82,2.31-1.84.65-4.06.54-6,.61a100.11,100.11,0,0,1-39.13-6.39c-1.81-.68-2.59,2.22-.8,2.89a103.26,103.26,0,0,0,27.47,6.19,100.4,100.4,0,0,0,14.3.22c3.34-.18,9-.68,8.68-5.35-.11-1.84-1.6-2.94-3.22-3.49-.76-.26-3.25-.38-3.5-1.26l-.69,1.69c4.46-2.46,7.11-6.8,8.79-11.47a74.87,74.87,0,0,0,3.52-15.43c.71-5.36.61-11-1.83-15.93-2.69-5.46-8.08-8.64-13-11.85l-19.57-12.77c-1.62-1.06-3.13,1.54-1.52,2.59Z"/><path class="cls-12" d="M489.26,745.85A132.22,132.22,0,0,1,493.47,719a1.5,1.5,0,0,0-2.89-.8,136.57,136.57,0,0,0-4.32,27.69c-.1,1.93,2.9,1.92,3,0Z"/><path d="M651.05,464.06,631.56,460a110,110,0,0,0-18.39-2.73c-5.75-.21-11.68.47-16.93,2.92a25.28,25.28,0,0,0-11,9.62,16.06,16.06,0,0,0-1.81,13.32c1.46,4.45,4.75,7.91,8.28,10.85,3.73,3.1,7.84,5.76,11.33,9.15a36.62,36.62,0,0,1,7,42.64c-.91,1.7,1.68,3.22,2.59,1.51a38.88,38.88,0,0,0,3.33-27c-2.19-9.37-7.65-17.11-15.16-23-6.45-5-16.69-11.16-14.9-20.86.84-4.55,4-8.46,7.63-11.13a28,28,0,0,1,15-4.94c6.87-.4,13.69.82,20.38,2.2,7.11,1.47,14.21,3,21.31,4.48,1.88.39,2.69-2.5.8-2.9Z"/><path d="M615.29,563.6c.1-4.09-5.08-6.59-8.56-5.15a5.39,5.39,0,0,0-1.53.91,3,3,0,0,0-.4.4,2.1,2.1,0,0,0-.46,1.39,5.3,5.3,0,0,0,.8,2.76,7.53,7.53,0,0,0,4.69,3.17,6.43,6.43,0,0,0,6.17-1.6,1.5,1.5,0,0,0-2.12-2.12l-.27.27c-.31.28.14-.08-.07.06s-.37.23-.56.33.32-.11-.08,0l-.35.11-.32.08-.14,0c-.17,0-.13,0,.11,0-.17-.07-.57,0-.76,0h-.3l-.19,0,.11,0c-.08-.1-.59-.12-.72-.16a5.73,5.73,0,0,1-.7-.23c-.25-.08.29.14-.1,0l-.26-.13a5.52,5.52,0,0,1-.66-.4c-.34-.24.12.11-.08-.06l-.21-.18c-.11-.1-.38-.51-.51-.54l.07.09-.06-.08-.19-.3c0-.08-.17-.24-.16-.32.09.22.1.26,0,.11l-.06-.17c0-.08-.05-.17-.07-.26s0-.11,0-.17,0-.12,0,.13c0-.23,0-.51,0-.74l-.44,1.06c.08-.08.15-.17.23-.24l.1-.1-.08.06c.11,0,.34-.23.46-.29s.12,0,0,0c.08,0,.22-.08.3-.1a3.63,3.63,0,0,0,.59-.14l-.17,0h.14l.29,0c.22,0,.45,0,.67,0s-.33-.07,0,0l.29.06a4.63,4.63,0,0,1,.61.17l.27.1-.14-.06.18.08c.17.09.34.18.5.28a1.88,1.88,0,0,1,.23.16c.25.15-.24-.23,0,0a5.62,5.62,0,0,1,.44.41,1.2,1.2,0,0,1,.17.21c-.17-.37-.08-.12,0,0l.15.27.06.12c.07.14.05.1,0-.12.1.1.1.38.15.51s0-.32,0,0c0,.12,0,.24,0,.37a1.5,1.5,0,0,0,3,0Z"/><path class="cls-12" d="M509.63,437.26c-7.54-15.94-23.07-28-41.21-27.61a35.94,35.94,0,0,0-23.84,9.71A51.82,51.82,0,0,0,431,441.19c-5.5,16.74-3.22,35.29,2.59,51.62a132.13,132.13,0,0,0,12.69,26,188.1,188.1,0,0,0,16.35,21.65c11.38,13.33,23.86,26.17,31.78,42q1.42,2.85,2.61,5.79c.71,1.77,3.61,1,2.89-.8-6.34-15.82-17.55-28.83-28.61-41.53-5.66-6.49-11.35-13-16.48-19.9a137.72,137.72,0,0,1-14.34-24.19c-7.13-15.48-11.5-33.14-8.86-50.22,2.48-16.1,12.25-33.5,29-37.87a37.19,37.19,0,0,1,25.49,2.92,45.19,45.19,0,0,1,18.06,16.87,54.89,54.89,0,0,1,2.85,5.29c.83,1.74,3.41.22,2.59-1.52Z"/><path class="cls-12" d="M510.85,433.41c-6.63-9.71-13.42-19.6-22.61-27.11-8.61-7-18.91-11.53-29.6-14.36-11.14-2.94-22.66-4.2-34.13-5.05q-20.7-1.54-41.49-1.59c-24.12-.07-50-.53-71.15,12.67-17.19,10.7-29.53,27.71-38.08,45.78a169.3,169.3,0,0,0-11.18,31c-3,12.05-4.4,24.81-1.48,37,2.88,12,10.08,22.34,17.49,32,7.07,9.23,14.18,18.48,22,27.1a128.77,128.77,0,0,0,25.81,22.44c10.58,6.74,22.5,10.7,33.73,16.14A93.09,93.09,0,0,1,387,629a135.84,135.84,0,0,1,18.77,25.48,303,303,0,0,1,14.45,28.69c5.1,11.31,10.28,22.68,14.24,34.45a115.84,115.84,0,0,1,4.71,18.52c1,6.43,1,12.86,1,19.35,0,11.18,1.71,22.78,11.58,29.61a18.2,18.2,0,0,0,13.43,3.12c1.9-.32,1.09-3.21-.8-2.9-5.26.87-10.29-1.53-13.95-5.22-4-4-5.93-9.11-6.72-14.61-.89-6.23-.4-12.55-.58-18.81a90.57,90.57,0,0,0-2.45-18.17c-2.82-12.07-7.66-23.55-12.6-34.87-4.2-9.61-8.43-19.21-13.18-28.57-9.18-18.1-20.59-35.61-36.87-48.13-9.18-7.06-19.62-11.61-30.19-16.14-11-4.72-21.36-10.14-30.58-17.87-8.6-7.2-16.12-15.57-23.19-24.23-7.35-9-14.84-18.14-21.13-27.92A68.42,68.42,0,0,1,265,514.51a57.78,57.78,0,0,1-2.48-18.62c.27-12.22,3.61-24.22,7.69-35.66,6.6-18.48,16.34-36.48,30.75-50.05a75.22,75.22,0,0,1,25.13-15.91c11.64-4.33,24.12-5.26,36.43-5.67q19.94-.64,39.88.07c12.45.45,25,1.11,37.31,2.71,11.07,1.43,22.24,3.8,32.43,8.47,10.45,4.79,18.9,12.1,26,21,3.59,4.51,6.84,9.27,10.09,14,1.09,1.59,3.69.09,2.59-1.51Z"/><path class="cls-12" d="M1478.88,691.87a190,190,0,0,0-43.2,23A183.46,183.46,0,0,0,1417,730.13c-5.74,5.35-11.87,11.17-14.61,18.71a15.17,15.17,0,0,0,5.41,17.95c5.22,3.74,12.1,4.75,18.34,5.19,4,.28,8,.25,12,.31l14.09.21c9.45.14,18.92.39,28.37.37,15.91,0,33.78-1.94,45.62-13.83a32.36,32.36,0,0,0,3.53-4.22c1.13-1.57-1.47-3.07-2.59-1.51-9.11,12.76-26.2,16-40.84,16.46-8.8.3-17.62,0-26.42-.16l-27.2-.4c-6.31-.1-12.79-.35-18.77-2.57-5.71-2.11-10.28-6.78-9.6-13.27.77-7.46,6.94-13.57,12-18.52a177.35,177.35,0,0,1,17.58-15,186.25,186.25,0,0,1,40.35-22.93c1.78-.74,3.57-1.44,5.37-2.12s1-3.58-.8-2.9Z"/><path class="cls-12" d="M1409.16,493.21c-22.46-7.42-48.47-15-70.45-2.06a56,56,0,0,0-20.17,21,62.09,62.09,0,0,0-7.63,31c.13,13.72,4.12,27.15,10,39.45l.89-2.2c-9.09,1.62-19.75,0-27.4,6.21-7.24,5.9-7.31,16.25-5.78,24.67,3.17,17.5,13.63,33.32,27.52,44.21a78.89,78.89,0,0,0,27.36,14,1.5,1.5,0,0,0,.79-2.89,76.11,76.11,0,0,1-41.19-29,68.72,68.72,0,0,1-10.61-22.59c-1.94-7.54-3.41-17.47,1.86-24.06,3.12-3.89,8-5.36,12.75-6,5.15-.7,10.37-.67,15.5-1.58a1.51,1.51,0,0,0,.9-2.2c-9.51-19.85-13.92-44-3.9-64.57a54.1,54.1,0,0,1,18.13-21.18c9.08-6.1,19.77-8.55,30.64-8.2,13.73.44,27,4.72,40,9,1.83.61,2.62-2.29.79-2.89Z"/><path class="cls-12" d="M1402.52,678.07c24.18-4.14,48.59-13.07,66-31,8-8.2,14.76-18.5,17.21-29.8,1.31-6,1.29-12.42-1.06-18.19a28.8,28.8,0,0,0-8.62-11.4c-9-7.31-20.71-10.48-31.82-12.93-1.88-.42-2.68,2.47-.79,2.89,9.49,2.09,19.27,4.66,27.51,10a29.11,29.11,0,0,1,9.53,9.65,25.61,25.61,0,0,1,2.86,16.36c-1.48,11-7.8,21.31-15.17,29.41a90.53,90.53,0,0,1-26.87,19.86c-12.43,6.18-25.94,9.91-39.57,12.25-1.9.33-1.1,3.22.79,2.89Z"/><path class="cls-12" d="M1404.06,481.21a303,303,0,0,0-47.66-29.16,265,265,0,0,0-52.73-19.34,230.6,230.6,0,0,0-56.53-6.83,207.76,207.76,0,0,0-56.36,7.91,182.72,182.72,0,0,0-26.66,10c-8.59,4-16.84,9-26,11.57a44.93,44.93,0,0,1-6.9,1.42l1.45,1.1c-4.32-17.75.2-37.64,12.33-51.41a52.37,52.37,0,0,1,25.44-15.65c11.69-3.31,24.06-3.67,36.14-3.52,25,.3,49.75,4.35,73.85,10.74s47.49,15.06,70.35,24.9c10.68,4.59,21.58,9.42,30.7,16.77s15.32,16.95,20.58,27.15c1.28,2.49,2.51,5,3.72,7.54.84,1.74,3.43.22,2.6-1.52-5.07-10.56-10.57-21.14-18.7-29.71-8.29-8.73-19-14.56-29.84-19.5a511.83,511.83,0,0,0-71.22-26.48c-24.55-7-49.85-11.75-75.4-12.72-22.72-.87-48.82-.36-66.53,16-13.89,12.82-20.53,32.77-18.16,51.41a60.75,60.75,0,0,0,1.25,6.83,1.49,1.49,0,0,0,1.44,1.1c9.46-1.15,18-5.25,26.44-9.48a189.69,189.69,0,0,1,81.48-21.21,224.38,224.38,0,0,1,56.74,4.92,256,256,0,0,1,53,17.79,298.1,298.1,0,0,1,48.15,28q2.79,2,5.53,4c1.55,1.15,3-1.45,1.52-2.59Z"/><path class="cls-12" d="M1416.42,478.49c6-14.46,11.92-29.14,12.72-45,.75-14.85-2.51-29.7-8.26-43.33s-13.9-25.74-23.35-36.86a246.9,246.9,0,0,0-31.7-30.74c-5.8-4.75-11.95-9.13-18.9-12-7.16-3-14.83-4.41-22.44-5.79-8.14-1.48-16.36-3-24.66-3-2.79,0-6.91-.18-8.39,2.78-1.69,3.41,2.17,6.8,4.28,9,5.21,5.4,11.19,10,17,14.7q8.37,6.81,16.18,14.27a264.91,264.91,0,0,1,28.26,31.71,260.12,260.12,0,0,1,22.45,35.31q4.92,9.32,9,19c2.78,6.53,5.43,13.16,9.12,19.24a54.4,54.4,0,0,0,6.27,8.43c1.31,1.43,3.42-.69,2.12-2.12-9.39-10.29-13.37-24.32-19.24-36.68a256.28,256.28,0,0,0-20.23-35.09,267.93,267.93,0,0,0-25.61-31.8,304.76,304.76,0,0,0-30.74-28.06c-2.89-2.34-5.76-4.7-8.51-7.2-1.31-1.19-2.59-2.42-3.82-3.69s-2.91-2.71-3.68-4.36c-1.53-3.24,6-2.46,7.47-2.42A100.74,100.74,0,0,1,1314,306c7.61,1.16,15.31,2.46,22.78,4.38a62.16,62.16,0,0,1,20,9.1,171.62,171.62,0,0,1,16.67,13.68c5.29,4.75,10.41,9.69,15.28,14.88a158.89,158.89,0,0,1,24.94,34c6.81,12.86,11.42,27.08,12.36,41.64a81.65,81.65,0,0,1-1.43,21.56,133.61,133.61,0,0,1-6.84,21.93c-1.37,3.52-2.82,7-4.27,10.49-.74,1.78,2.16,2.56,2.89.8Z"/><path class="cls-12" d="M1455.09,505.3c9.75,1.14,18.77,6,25.76,12.81,7.52,7.3,12.47,16.73,15.51,26.68a111.48,111.48,0,0,1,3.82,18.34c.25,1.89,3.25,1.92,3,0-1.49-11.54-4.2-23.06-9.82-33.35a55.28,55.28,0,0,0-21.78-22.23,45.51,45.51,0,0,0-16.49-5.25c-1.92-.22-1.9,2.78,0,3Z"/><path class="cls-12" d="M1379.43,561.45c1.1-2.64,1.23-5.87-.57-8.24a5.86,5.86,0,0,0-10.73,2.4,6.34,6.34,0,0,0,2.27,6.06,10.41,10.41,0,0,0,7.61,2.17,1.54,1.54,0,0,0,1.5-1.5,1.52,1.52,0,0,0-1.5-1.5,9.5,9.5,0,0,1-1.31.06l-.74,0s-.29,0,0,0l-.43-.07a9.14,9.14,0,0,1-1.27-.34l-.34-.12c-.26-.1.3.15-.11-.05l-.63-.32c-.18-.11-.36-.22-.53-.34s-.29-.23-.09-.06l-.21-.18a6.09,6.09,0,0,1-.44-.44c-.08-.08-.15-.17-.22-.25.16.19-.06-.08-.09-.14a5.64,5.64,0,0,1-.31-.53c0-.08-.12-.33,0,0a2.09,2.09,0,0,0-.08-.23c-.05-.17-.06-.36-.12-.52s0,.34,0,0c0-.12,0-.24,0-.36s0-.32,0-.48c0-.37-.08.19,0,0a2.65,2.65,0,0,0,.06-.3,4,4,0,0,1,.14-.46s.14-.38,0-.16.08-.17.1-.21.18-.31.27-.46.24-.32.1-.14.11-.12.11-.13a3.51,3.51,0,0,1,.34-.33s.3-.25.12-.11.15-.1.19-.12a4.23,4.23,0,0,1,.47-.25c-.32.14.18,0,.27-.06a1.55,1.55,0,0,1,.31-.06c-.07,0-.31,0,0,0h.31c.05,0,.46,0,.2,0a3.54,3.54,0,0,1,.73.18l.28.1c-.22-.09.07,0,.12.08a4.15,4.15,0,0,1,.57.35c-.17-.12,0,0,.06,0l.33.3a3.33,3.33,0,0,1,.25.28l.15.17c-.07-.09-.08-.09,0,0a5.35,5.35,0,0,1,.41.7c0-.07-.09-.27,0,.08.06.17.11.34.16.51a3.38,3.38,0,0,1,.12.65,7.51,7.51,0,0,1-.69,3.65,1.5,1.5,0,1,0,2.89.8Z"/><path class="cls-12" d="M1347.4,564.79a4.23,4.23,0,0,0,3-4.74,4.52,4.52,0,0,0-4.75-3.76,6,6,0,0,0-3.12.92,5.75,5.75,0,0,0-2.27,2.89,7,7,0,0,0,1.26,6.75,4.29,4.29,0,0,0,3.63,1.59,3.45,3.45,0,0,0,3.18-2.55,1.5,1.5,0,0,0-2.9-.79,2.29,2.29,0,0,1-.07.28s.1-.37,0-.1.13-.17,0,0,0,.06,0,0-.51.24-.27.17-.1,0-.12,0l-.16,0c-.11,0-.06,0,.14,0,0,0-.21,0-.27,0-.29,0,0,0,0,0s-.67-.25-.3-.07c-.16-.08-.31-.17-.47-.27s.23.24,0,0l-.25-.26-.16-.18c.23.28,0,0-.05-.09s-.18-.31-.27-.47l-.12-.27c.12.29,0,.09,0,0-.07-.23-.15-.46-.2-.69,0-.08,0-.16,0-.24-.09-.38,0,.22,0,0s0-.36,0-.54,0-.4,0-.61c0-.38,0,.22,0,0s0-.27.09-.41,0-.15.07-.23.13-.37.05-.15.07-.14.07-.15l.11-.21.16-.25c0-.07.23-.27,0,0a4.57,4.57,0,0,0,.44-.44c.11-.16-.29.18,0,0a1.77,1.77,0,0,1,.17-.12c.1-.06.36-.27.48-.26l-.16.06.15-.06.26-.08a5.29,5.29,0,0,1,.54-.13c.36-.08-.34,0,0,0h.22c.09,0,.47,0,.54,0s-.29-.06-.08,0l.31.07.2.06.2.07-.16-.07a1.59,1.59,0,0,1,.45.27c0-.08-.2-.19,0-.05l.21.21c.13.12,0,.07-.07-.1a.8.8,0,0,0,.13.19l.11.2c.14.26-.09-.32,0,0l.06.22,0,.13c0,.16,0,.12,0-.13a2.17,2.17,0,0,0,0,.44c0,.05,0,.35,0,.07s0,.1,0,.16a1.54,1.54,0,0,1,0,.17c-.09.28-.08.05,0,0a2.59,2.59,0,0,0-.26.46c0-.14.2-.23.07-.09l-.18.19c-.21.22.29-.18,0,0l-.23.14c-.22.13.07-.05.11,0a1.34,1.34,0,0,0-.36.11,1.5,1.5,0,0,0-1,1.84,1.53,1.53,0,0,0,1.84,1Z"/><path class="cls-12" d="M1348.67,725.55c-12.37.22-26.19.31-37.31-5.92a28.68,28.68,0,0,1-12-13.15c-2.66-5.6-4.2-11.65-6.78-17.28s-6.59-10.73-12.29-13.68c-6.12-3.17-13.15-4-20-4.23-8.16-.24-16.39.21-24.54.69-8.68.51-17.34,1.3-26,2.26-17.19,1.9-34.31,4.37-51.45,6.69-4.28.58-8.58,1.1-12.85,1.74-2.55.39-5.69,1.34-7.12,3.68-1.91,3.16,1,5.92,3.23,7.84a53.5,53.5,0,0,0,8.49,6c13.22,7.55,28.63,9.88,43.61,10.81,8.59.53,17.21.63,25.81,1.1,7.79.42,15.94.72,22.07,6.16a54.76,54.76,0,0,1,7,8.08q3.77,5,7.64,9.82,7.86,9.81,16.25,19.17c5,5.56,10.09,11.56,16.87,15s14.19,4.15,21.53,4.06c3.67,0,7.33-.31,11-.59,1.91-.15,1.93-3.15,0-3-7.31.56-14.81,1.14-22.07-.19a32.16,32.16,0,0,1-10.05-3.47,39.22,39.22,0,0,1-8.46-6.73c-5.63-5.64-10.83-11.77-16-17.87s-10.19-12.57-15.12-19c-4.32-5.63-9.08-10.72-16.13-12.68a57.93,57.93,0,0,0-11.65-1.59c-4.18-.27-8.36-.44-12.54-.59-15.72-.55-31.71-.88-46.76-6a58.76,58.76,0,0,1-18.21-9.62,19,19,0,0,1-3.78-3.48c-.77-1.11-.27-2,.76-2.63,2.7-1.75,6.56-1.71,9.64-2.13,16.77-2.27,33.53-4.66,50.33-6.7a509.55,509.55,0,0,1,51-3.85c6.78-.14,13.73-.14,20.31,1.7A24.17,24.17,0,0,1,1288,686.88c3.11,5.19,4.71,11.09,6.89,16.69s5,10.93,9.61,14.92c9.47,8.2,22.84,9.76,34.89,10.06,3.08.07,6.17.05,9.25,0,1.93,0,1.94-3,0-3Z"/><path class="cls-12" d="M591.65,681.21c14.14-7.58,23.79-22.24,23.79-38.45a42.3,42.3,0,0,0-2.62-14.56c-.66-1.8-3.56-1-2.89.79a39.6,39.6,0,0,1,1.12,24.14A40.69,40.69,0,0,1,600,671.52a44.24,44.24,0,0,1-9.81,7.1c-1.71.91-.19,3.5,1.51,2.59Z"/><path class="cls-12" d="M601.7,597.52c-.31-3.46-3.45-5.19-6.21-6.68A65.73,65.73,0,0,0,585,586.23c-7.1-2.38-14.78-3.24-22.07-1.24-1.15.31-1.58,2.19-.36,2.74,4.25,1.92,11.78,5.38,9.79,11.35-.61,1.84,2.29,2.63,2.89.8,1.06-3.18-.11-6.49-2.19-9-2.32-2.76-5.77-4.31-9-5.76l-.36,2.74c6.37-1.74,13-1.08,19.24.84a59,59,0,0,1,9.11,3.71c1.36.69,2.73,1.4,4,2.2,1,.63,2.48,1.55,2.6,2.89.17,1.9,3.17,1.92,3,0Z"/><path class="cls-12" d="M514.18,632.82c-6.62-1.58-13.69-2.14-20.34-.42a26.79,26.79,0,0,0-15.21,10.8c-3.81,5.37-6.23,11.72-8.57,17.83a43.79,43.79,0,0,0-2.85,10.65,27.11,27.11,0,0,0,1,10.74c3.7,12.49,14,23.45,25.85,28.71a36.68,36.68,0,0,0,18.28,3.3c1.4-.13,3.22-.16,4.46-.9,1.6-1,1.49-3,1.41-4.61a38.8,38.8,0,0,0-2.33-10.52,97.66,97.66,0,0,1-3.55-11.32,34.53,34.53,0,0,1-.28-11.91c1.17-8.09,4.68-15.65,9-22.48,1.05-1.64-1.55-3.14-2.59-1.52-7.12,11.14-12,24.71-8.78,38,1.59,6.48,5,12.61,5.45,19.34a7.06,7.06,0,0,1,0,2.15c-.16.48,0,.36-.59.47-.38.07-.77.14-1.16.19a29.39,29.39,0,0,1-4.59.27,32.76,32.76,0,0,1-8.63-1.33c-11.57-3.36-21.43-12.26-26.86-22.91a27.16,27.16,0,0,1-2.4-19.77,83.55,83.55,0,0,1,3.58-9.9c1.11-2.73,2.27-5.44,3.63-8,3.14-6,7.55-11.28,14.09-13.61,6.74-2.41,14.18-1.92,21-.28,1.88.45,2.68-2.45.8-2.9Z"/></svg>