<svg id="Layer_1" data-name="Layer 1" xmlns="http://www.w3.org/2000/svg" viewBox="0 0 1920 1080"><defs><style>.cls-1{fill:#39b54a;opacity:0.5;}</style></defs><title>27</title><rect class="cls-1" x="500" y="254" width="908" height="354" transform="translate(167.85 -260.27) rotate(17.01)"/><path d="M764.09,473.19q0,2.16-.06,6.48c0,2.87-.15,6.11-.32,9.7s-.4,7.32-.7,11.17-.7,7.47-1.2,10.85a73.77,73.77,0,0,1-1.84,8.88c-.72,2.54-1.59,4.24-2.6,5.08a16.79,16.79,0,0,1-3,2c-1.22.68-2.49,1.31-3.8,1.9s-2.61,1.13-3.87,1.59a32.6,32.6,0,0,1-3.43,1.08q2.4,5.71,4.69,11.23t4.57,11.23l-18.78,4.44q-3.68-5.33-6.92-10.66t-6.91-10.53a15.48,15.48,0,0,1-2,.13h-2q-2.16,0-6.41-.26t-9.52-.76q-5.27-.51-11-1.27c-3.8-.5-7.34-1-10.59-1.65a67,67,0,0,1-8.44-2q-3.55-1.14-4.57-2.41-1.79-2.16-3-7.17a103.19,103.19,0,0,1-2-10.79c-.51-3.84-.89-7.57-1.14-11.16s-.38-6.33-.38-8.19c-.09-2.11-.13-4.21-.13-6.28v-6.41c0-1.6,0-3.68.06-6.22s.19-5.16.45-7.86a49.63,49.63,0,0,1,1.27-7.62,12.24,12.24,0,0,1,2.66-5.46q1-1.14,4.51-2.22t8.31-2q4.82-.94,10.41-1.71t10.91-1.4q5.32-.63,9.83-.95c3-.21,5.35-.36,7.05-.44q3.67-.13,7.36-.19c2.45,0,4.9-.07,7.36-.07,3.21,0,6.62.07,10.21.19a41,41,0,0,1,10.28,1.65,23.64,23.64,0,0,1,8.63,4.64,17,17,0,0,1,5.27,9,25.31,25.31,0,0,1,.44,3c.13,1.27.21,2.63.26,4.06s.06,2.84.06,4.19Zm-27.41,7.36V478.9a15.48,15.48,0,0,0-.13-2,8.79,8.79,0,0,0-.44-1.9,3.72,3.72,0,0,0-.83-1.4,5.82,5.82,0,0,0-1.77-.88,10.58,10.58,0,0,0-2.48-.51c-.89-.09-1.77-.15-2.66-.19s-1.59-.07-2.1-.07c-1.18,0-3,.09-5.52.26s-5.29.42-8.37.76-6.33.74-9.71,1.21-6.52,1-9.39,1.58a70.77,70.77,0,0,0-7.43,1.9q-3.11,1-3.87,2.16a4.17,4.17,0,0,0-.57,2c0,.85-.06,1.61-.06,2.29q0,2.53.38,6.34t1,7.87q.63,4.06,1.33,7.87c.46,2.54.91,4.61,1.33,6.22q3,1.14,5.46,1.84a43.65,43.65,0,0,0,4.69,1.08c1.53.25,3.11.44,4.76.57s3.57.23,5.78.31l-7.87-12.69c2.2-1.1,4.27-2.15,6.22-3.17s3.89-1.94,5.83-2.79,4-1.61,6-2.29,4.34-1.31,6.79-1.9l8.5,17.39a77.63,77.63,0,0,0,3.87-14.91A97.77,97.77,0,0,0,736.68,480.55Z"/><path d="M865.36,532.08l-21.45.88-1.52-12.81a23.35,23.35,0,0,1-5.77,5.58,32.68,32.68,0,0,1-7.24,3.68,39.39,39.39,0,0,1-8,2,58.89,58.89,0,0,1-8.06.57,69.08,69.08,0,0,1-7.55-.51c-3-.34-6-.82-9.14-1.46a53.45,53.45,0,0,1-8.56-2.47,14.42,14.42,0,0,1-5.72-3.56,10.25,10.25,0,0,1-2.09-4.88,51.8,51.8,0,0,1-.95-7.17q-.26-3.81-.25-7.36v-5.71q0-9.52.76-18.78t2.15-18.4a70,70,0,0,1,7.62-.39,48.79,48.79,0,0,1,6.6.45c2.2.3,4.39.65,6.6,1.08,0,.42,0,1.65.12,3.68s.19,4.44.32,7.23.27,5.78.44,8.95.36,6.11.58,8.82.46,5,.76,6.91.61,2.94,1,3.11a8.93,8.93,0,0,0,4.19,1.27c1.52.09,3,.13,4.44.13,1,0,2.6-.06,4.76-.19s4.38-.34,6.66-.64a58.25,58.25,0,0,0,6.34-1.14,8.53,8.53,0,0,0,3.94-1.71,5.1,5.1,0,0,0,.57-2.41c.13-1.36.21-2.84.25-4.44s.09-3.11.13-4.51.06-2.22.06-2.47c0-3.81-.08-7.57-.25-11.3s-.34-7.49-.51-11.29l24.62-1.14q.76,8.88,1.4,17.7t1.65,17.7a55.32,55.32,0,0,1,.44,6c0,2,.11,4.06.19,6.09.17,3.8.27,7.61.32,11.42S865.27,528.19,865.36,532.08Z"/><path d="M968.4,481.31q0,10.67-.76,21.2t-1.52,21.06q-14.22,1.27-28.3,2.16t-28.3.89c-.85,0-2.41,0-4.69-.06s-4.7-.13-7.24-.26-5-.29-7.23-.51a13.2,13.2,0,0,1-4.57-.95,13,13,0,0,1-5.84-5.77,18.35,18.35,0,0,1-1.65-7.93c0-1,0-2.37.13-4.06s.25-3.47.51-5.33a43.77,43.77,0,0,1,1-5.21,10.1,10.1,0,0,1,1.53-3.55q1.14-1.51,5.2-2.6a67.31,67.31,0,0,1,9.71-1.71q5.64-.65,12.18-1t12.5-.57q6-.19,10.66-.19h6.73a41,41,0,0,0,.38-5.46v-1.33a4.09,4.09,0,0,0-.13-1.33c-.25-.51-1.06-.93-2.41-1.27a32.59,32.59,0,0,0-5-.76q-3-.25-6.48-.45c-2.32-.12-4.59-.19-6.79-.19h-9.51q-8,0-16,.32t-16,.57c.33-3.21.61-6.47.82-9.77a86.22,86.22,0,0,0,.07-9.77A185.51,185.51,0,0,1,896,455.11q9.32-.69,18.84-.7c2.29,0,4.78,0,7.49.07s5.41.12,8.12.25,5.39.32,8.06.57,5.14.59,7.42,1a28.31,28.31,0,0,1,7,2.29,33.73,33.73,0,0,1,6.53,4.06,28.72,28.72,0,0,1,5.33,5.52,21.06,21.06,0,0,1,3.3,6.66,6,6,0,0,1,.19,1.27c0,.6.06,1.25.06,2v3.23Zm-28.29,29.83V494.89q-3.69-.12-7.36-.19c-2.46,0-4.91-.06-7.37-.06l-4.25.06c-2.32.05-4.82.15-7.48.32s-5.1.38-7.3.64-3.47.63-3.81,1.14a5.77,5.77,0,0,0-.82,2.09,12.47,12.47,0,0,0-.19,2.22c0,.59,0,1.4.12,2.41a32,32,0,0,0,.45,3.18c.21,1.1.44,2.11.7,3a4.52,4.52,0,0,0,1,2,3.11,3.11,0,0,0,1.71,1,20.82,20.82,0,0,0,2.61.51c.93.13,1.86.21,2.79.25s1.65.07,2.16.07c2,0,4.2-.08,6.53-.26s4.7-.35,7.11-.57,4.76-.46,7-.76Z"/><path d="M1063.84,471.67a41.57,41.57,0,0,1-1.53,11.29c-.59.09-2.34.2-5.26.32s-6.39.3-10.41.51-8.33.47-12.94.76-8.89.62-12.82.95-7.28.7-10,1.08-4.29.74-4.63,1.08a11.11,11.11,0,0,0-3,4.32,13.49,13.49,0,0,0-1,5.07,6.83,6.83,0,0,0,.32,2.35,7.83,7.83,0,0,0,1.08,1.84,6.06,6.06,0,0,0,2.66.63c1.53.17,3.22.3,5.08.38s3.59.15,5.2.19l2.79.07q9.14,0,18.28-.38t18.27-1l1,21.83q-12.69,1-25.45,2t-25.57,1H1004c-.8,0-1.67,0-2.6-.07s-1.82-.1-2.66-.19a12.75,12.75,0,0,1-1.78-.25q-2.67-.76-5.27-1.71a25.46,25.46,0,0,1-4.88-2.41,17.65,17.65,0,0,1-4-3.49,12.56,12.56,0,0,1-2.48-5,34.22,34.22,0,0,1-.82-5q-.32-3.11-.44-6.4t-.19-6.48c0-2.11-.07-3.89-.07-5.33,0-3.3,0-6.38.13-9.26a26.17,26.17,0,0,1,1.39-7.93,17,17,0,0,1,4.13-6.47,24.34,24.34,0,0,1,8.18-5,28.65,28.65,0,0,1,7.24-1.58q4.82-.57,10.09-.89t10.08-.45q4.83-.12,7.49-.12,8.88,0,17.71.38t17.7,1c.25,2.12.46,4.21.63,6.29S1063.84,469.64,1063.84,471.67Z"/><path d="M1159.27,468.62l-32.62,23.61q.39,1.51,1.53,4.88c.76,2.25,1.6,4.57,2.53,7a69.29,69.29,0,0,0,3,6.73,10.31,10.31,0,0,0,3,4,7.09,7.09,0,0,0,2.28,1,29,29,0,0,0,2.86.64,22.08,22.08,0,0,0,2.92.31c1,.05,1.79.07,2.47.07,1.19,0,2.41,0,3.68-.13s2.5-.21,3.68-.38c-.17,1.1-.3,2.22-.38,3.36s-.13,2.31-.13,3.49c0,2,0,4.06.13,6.09s.13,4,.13,6c-.59.08-1.63.19-3.11.32s-3.17.25-5.08.38-3.91.27-6,.44-4.09.32-5.91.44-3.38.2-4.69.2a7.11,7.11,0,0,1-2.48-.26q-2.16-1-4.18-2.16a10.06,10.06,0,0,1-3.43-3.17,27.75,27.75,0,0,1-2.09-4.82c-1-2.62-2-5.5-3-8.63s-2-6.05-2.92-8.76l-1.71-5.2-12.18,7.87V534l-25.13,2.16q.77-17.77,1.65-35.35t.89-35.46q0-5.46-.07-10.79t-.19-10.92a71,71,0,0,0,10.35,1.27q5.13.25,10.34.77v47.46q9.9-6.09,19.35-12.44a195.5,195.5,0,0,0,18.34-14q6.72.76,13.13,1.14T1159.27,468.62Z"/><path d="M1192,441c-.09,2.2-.19,4.61-.32,7.23s-.27,5.29-.44,8-.41,5.35-.7,7.93-.66,5-1.08,7.17q-1.9,9.51-3.87,18.78t-3.87,18.78l-14,1.27-3.17-32q-.9-8.62-1.27-17.32t-.89-17.45Zm-2.29,87.44a7.83,7.83,0,0,1-1.33,4.25,15.82,15.82,0,0,1-3.36,3.74,16.85,16.85,0,0,1-4.44,2.6,12.08,12.08,0,0,1-4.44,1,12.75,12.75,0,0,1-4-.69,14.48,14.48,0,0,1-3.81-1.91,9.8,9.8,0,0,1-2.79-3,7.65,7.65,0,0,1-1.08-4.06,7.19,7.19,0,0,1,1.46-4.38,13.3,13.3,0,0,1,3.55-3.3,18.12,18.12,0,0,1,9.2-2.73,12.57,12.57,0,0,1,6.41,1.65,10,10,0,0,1,4.25,5,3.13,3.13,0,0,1,.32,1A7.27,7.27,0,0,1,1189.72,528.4Z"/></svg>