<svg id="Layer_1" data-name="Layer 1" xmlns="http://www.w3.org/2000/svg" viewBox="0 0 1920 1080"><defs><style>.cls-1{fill:#4d4d4d;}.cls-2{font-size:60px;font-family:VarelaRound-Regular, Varela Round;}.cls-3{letter-spacing:-0.02em;}.cls-4{letter-spacing:-0.01em;}.cls-5{letter-spacing:0em;}.cls-6{letter-spacing:-0.02em;}.cls-7{letter-spacing:-0.01em;}.cls-8{letter-spacing:-0.01em;}</style></defs><title>42-teeth</title><path class="cls-1" d="M1294,501.68q44.26-.42,88.51,2.18,12.42.74,24.84,1.7c1.92.15,1.91-2.85,0-3q-44.16-3.45-88.48-3.88-12.44-.12-24.87,0a1.5,1.5,0,0,0,0,3Z"/><path class="cls-1" d="M1411.48,494.78a59.59,59.59,0,0,0-16.24-31.51,64.9,64.9,0,0,0-26.47-15.6,63.56,63.56,0,0,0-32.83-1.76,56.44,56.44,0,0,0-31,19.46,78.36,78.36,0,0,0-16.68,39.22c-1.7,12.74,0,25.95,8.54,36.05s21.12,16.88,33.82,20.37a106.54,106.54,0,0,0,18.93,3.29,117.16,117.16,0,0,0,16.86.51c9.6-.5,19.23-2.87,27.51-7.86a49.43,49.43,0,0,0,20.24-24.66,66.1,66.1,0,0,0,2.81-9.14c.43-1.88-2.46-2.68-2.9-.79-2.53,10.84-7.66,21-16.32,28.22-7.14,5.95-16.09,9.28-25.21,10.64a77.87,77.87,0,0,1-13.74.63,131.89,131.89,0,0,1-17.86-1.64c-12.48-2.1-24.69-6.56-34.61-14.58-4.76-3.84-9-8.27-11.78-13.78a40.32,40.32,0,0,1-3.92-17.45,74.71,74.71,0,0,1,11.08-39.31c6.46-10.61,15.84-19.49,27.54-24a57,57,0,0,1,32.59-2.15,65.94,65.94,0,0,1,25.74,11.6,54.69,54.69,0,0,1,18.74,26.12,67.25,67.25,0,0,1,2.3,8.93c.35,1.9,3.24,1.09,2.89-.8Z"/><path class="cls-1" d="M1336.31,603.78a102.08,102.08,0,0,1,61-26.35c20.67-1.57,42.38,3.3,58.72,16.56,8.65,7,15.33,16.25,18.16,27.1l1.44-1.9c-9.86-.83-20.07-1.63-29.66,1.41-8.37,2.65-15.72,7.76-24.13,10.27a30.27,30.27,0,0,1-13.51.92,65.87,65.87,0,0,1-13.77-4.17c-4.55-1.81-9-3.74-13.67-5.38s-9.44-3.13-14.25-4.39a175.63,175.63,0,0,0-33-5.29c-1.93-.13-1.92,2.87,0,3a171.08,171.08,0,0,1,29.51,4.5,198.58,198.58,0,0,1,28.1,9.43c8.74,3.57,17.91,6.88,27.49,5.21,8.67-1.52,16.15-6.54,24.19-9.81a47.21,47.21,0,0,1,15.73-3.39,130.27,130.27,0,0,1,17,.69,1.51,1.51,0,0,0,1.45-1.9c-5.36-20.61-23.43-34.84-42.89-41.5-21.5-7.35-45.81-5.73-66.86,2.38a104.12,104.12,0,0,0-33.14,20.49c-1.42,1.31.7,3.42,2.12,2.12Z"/><path class="cls-1" d="M1614.18,446.41a208.63,208.63,0,0,0-88.91-50,205,205,0,0,0-50.89-7.22c-19.85-.27-39.67,2.41-59,6.68a505,505,0,0,0-56.7,16.36c-17.9,6.22-35.52,13.6-51.7,23.55-28.65,17.61-52.7,44.19-59.85,77.8a197.09,197.09,0,0,0-3.5,28.86c-.59,9.39-1.19,18.88-.11,28.25,1,8.61,3.46,17,8.32,24.22a62.13,62.13,0,0,0,15.79,15.73c13.87,9.9,30.38,16,46.09,22.27,18.26,7.31,36.78,14,55.66,19.51,37.37,10.89,76.61,17.18,115.56,13.41a197.54,197.54,0,0,0,86.1-29.15c25.22-15.93,46.73-38.42,58.57-66,13.32-31.08,13.6-67.05,1.33-98.53a128.53,128.53,0,0,0-11.21-22.18c-1-1.63-3.63-.12-2.59,1.51a129,129,0,0,1,16.39,97.92c-6.91,29-24.56,54.23-47.54,72.94s-51.23,31.32-80.32,37.37c-35.48,7.39-72.57,4.63-107.75-3a464.81,464.81,0,0,1-55.46-16c-17.47-6.16-34.87-12.88-51.74-20.54-13.79-6.26-28.1-14.12-36.6-27.11-10-15.32-8.54-34.51-7.4-51.93,1.19-18.23,4-36.17,12.61-52.49,7.6-14.39,18.48-26.83,31-37.19,28.32-23.48,64.45-35.67,99.3-45.72,36.11-10.42,73.76-16.87,111.29-11.25a207.27,207.27,0,0,1,92.32,38.26,199.14,199.14,0,0,1,18.87,15.93c1.39,1.33,3.52-.79,2.12-2.12Z"/><path class="cls-1" d="M1661,622.5c2-27.72,2.25-55.69-1-83.32-2.86-24.25-8.47-48.33-18.75-70.55a151.52,151.52,0,0,0-40.93-53.73c-19.66-16.14-43.2-26.72-67.72-33-33.59-8.64-69.46-10.45-103.92-7.49C1387,378,1345.4,389.86,1310.27,413a196.35,196.35,0,0,0-73.16,88.25,216.76,216.76,0,0,0-15.2,60.33c-2.35,22-1.06,44.17,1.39,66.09,1.23,11,3.5,22.19,3.11,33.33s-3.09,22.15-4.56,33.14a607.22,607.22,0,0,0-5.6,68.28c-.8,40.49,2.86,83.28,24.22,118.74,5,8.2,10.42,16.56,17.27,23.3,1.38,1.36,3.5-.76,2.12-2.12-7.18-7.07-12.91-16-17.95-24.65a145.72,145.72,0,0,1-12.16-27.28c-6.2-18.68-9.07-38.33-10.07-58a479.59,479.59,0,0,1,1.63-66.84c1-11.25,2.3-22.47,3.83-33.66,1.45-10.6,4.08-21.24,4.29-32,.23-11-2-22-3.19-32.83s-2.13-22-2.45-33a228.83,228.83,0,0,1,6.43-62.47c9.58-38.32,30.12-73.22,59.75-99.43,30.61-27.08,69.34-43.27,109.21-50.82a321.19,321.19,0,0,1,113.31-.76c25.84,4.47,51.27,12.83,73.31,27.29a145,145,0,0,1,45.77,48.57c11.73,20.23,18.8,42.83,22.91,65.77,4.68,26.15,5.6,52.89,4.65,79.39q-.37,10.43-1.13,20.83c-.14,1.93,2.86,1.92,3,0Z"/><text class="cls-2" transform="translate(69.3 83.51)"><tspan class="cls-3">D</tspan><tspan x="43.92" y="0">o </tspan><tspan class="cls-4" x="96" y="0">y</tspan><tspan class="cls-5" x="127.8" y="0">ou think it</tspan><tspan class="cls-6" x="413.51" y="0">’</tspan><tspan x="426.83" y="0">s a duck? </tspan></text><text class="cls-2" transform="translate(1051.3 264.51)">I’<tspan class="cls-4" x="31.38" y="0">v</tspan><tspan class="cls-5" x="62.76" y="0">e hea</tspan><tspan class="cls-7" x="216.54" y="0">r</tspan><tspan x="238.62" y="0">d th</tspan><tspan class="cls-8" x="351.54" y="0">a</tspan><tspan x="384.54" y="0">t</tspan><tspan class="cls-6" x="407.46" y="0">’</tspan><tspan x="420.78" y="0">s good luck.</tspan></text><path class="cls-1" d="M266.71,473,277.82,533c1.81,9.79,3.82,19.6,4.56,29.55a97.66,97.66,0,0,1-2.05,28.32,121,121,0,0,1-4.46,15.25q-1.35,3.72-2.92,7.35c-.3.69-2.14,4.31-3.21,3.32-1.42-1.31-3.54.8-2.12,2.12,3.37,3.13,6.86-1.47,8.1-4.35a134,134,0,0,0,5.16-14,105.63,105.63,0,0,0,4.78-29.36c.14-10.51-1.62-20.93-3.51-31.23q-2.92-15.93-5.9-31.85l-6.65-35.85c-.35-1.89-3.24-1.09-2.89.8Z"/><path class="cls-1" d="M293.31,483.16c8.25,2.59,17,5.31,23.69,11,7.31,6.18,10.27,15.22,12.05,24.33a155.44,155.44,0,0,1-1.38,64.28c-2.65,11.64-5.93,23.45-4.73,35.5.19,1.9,3.2,1.92,3,0-1.1-11.07,1.66-21.91,4.14-32.61a170.17,170.17,0,0,0,4.62-32.84,156.52,156.52,0,0,0-2.38-33.13c-1.69-9.39-4.39-19.07-11.37-26-7.25-7.18-17.33-10.45-26.84-13.43-1.84-.58-2.63,2.31-.8,2.89Z"/><path class="cls-1" d="M354.93,608.61c-12.62,8.11-25.88,16.75-33.18,30.33A42.15,42.15,0,0,0,317.83,649a41.25,41.25,0,0,0-.9,10.63c0,1.69-.11,3.16-1.72,4a37.84,37.84,0,0,0-4.36,2.51,24.51,24.51,0,0,0-6.58,7.14c-1.67,2.77-3.41,6.59-2.84,9.89.54,3.15,3.39,4.68,6.31,5.09,3.71.52,7.62,0,11.35-.16l12.9-.57q13.15-.58,26.29-1.28c2-.1,4.06-.13,6.06-.35a7,7,0,0,0,4.6-2,11.51,11.51,0,0,0,2.12-4.36q1-3,1.84-6.11a179.31,179.31,0,0,0,6.68-49.23q0-3.07-.14-6.15c-.07-1.92-3.07-1.93-3,0a176.61,176.61,0,0,1-4.49,47q-1.33,5.76-3.08,11.42a27.13,27.13,0,0,1-1.49,4.4c-.83,1.64-2.28,1.95-4,2.06-8.22.54-16.46.86-24.69,1.24s-16.54.76-24.81,1.1c-2.55.1-6,.65-8.25-.83-2.72-1.77-.63-6.19.5-8.39a21.35,21.35,0,0,1,5.93-7.15,24.2,24.2,0,0,1,3.84-2.32,6.43,6.43,0,0,0,3.44-3.13,10.29,10.29,0,0,0,.57-4.47,38.32,38.32,0,0,1,.11-5.25,35.17,35.17,0,0,1,2.45-9.46c6.22-15.27,20.66-24.63,34-33.18,1.62-1,.12-3.63-1.51-2.59Z"/><path class="cls-1" d="M272,621.71a36.71,36.71,0,0,0,10.31,18.2,36,36,0,0,0,8.42,6.07c3.73,1.93,7.88,2.85,11.6,4.79,1.71.88,3.23-1.7,1.52-2.6-3.51-1.82-7.39-2.72-10.94-4.45a33.15,33.15,0,0,1-8.21-5.67,33.74,33.74,0,0,1-9.8-17.14c-.43-1.88-3.32-1.08-2.9.8Z"/><path class="cls-1" d="M272.06,597.49l-19,13.17c-5.34,3.71-11.46,7.25-14.84,13-3.07,5.23-3.58,11.47-3.07,17.4a93.08,93.08,0,0,0,3.34,17.58c1.69,5.92,4.48,11.82,10,15l-.69-1.69c-.27,1-2.22,1.11-3.06,1.35A5.45,5.45,0,0,0,241,675.9a4.61,4.61,0,0,0,1.17,5.25c1.59,1.5,3.8,1.79,5.88,2a102.83,102.83,0,0,0,30-2.16,101.63,101.63,0,0,0,16.21-5c1.77-.71,1-3.61-.79-2.89a101,101,0,0,1-40.2,7.31,55,55,0,0,1-6.42-.37c-1.1-.15-4.22-1.12-3.16-2.86.61-1,2.73-1.09,3.73-1.41a4.3,4.3,0,0,0,3.2-2.92,1.53,1.53,0,0,0-.69-1.7c-4.48-2.62-6.81-7.39-8.3-12.19a90.71,90.71,0,0,1-3.38-16.23c-.63-5.5-.64-11.44,1.94-16.48,2.82-5.53,8.37-8.81,13.31-12.24l20-13.88c1.57-1.1.07-3.7-1.52-2.59Z"/><path class="cls-1" d="M376.9,591.7a162.79,162.79,0,0,0-4.6-31.36c-.46-1.88-3.36-1.08-2.89.79a159.52,159.52,0,0,1,4.49,30.57c.1,1.93,3.1,1.94,3,0Z"/><path class="cls-1" d="M260.76,475a221.08,221.08,0,0,0-15,38.52c-2,6.64-3.75,13.35-5.48,20.06q-1.32,5.17-2.62,10.35a53,53,0,0,0-1.8,10.45c-.27,6.38,2.13,13.53,8.24,16.47a1.56,1.56,0,0,0,2.06-.53,73.38,73.38,0,0,1,29.34-25.13c1.75-.82.23-3.41-1.51-2.59a76.29,76.29,0,0,0-30.42,26.2l2-.54c-5.21-2.5-7-8.48-6.76-13.88a50.68,50.68,0,0,1,1.82-10.13q1.2-4.83,2.44-9.65a380,380,0,0,1,11.32-37.8,182.82,182.82,0,0,1,8.89-20.29c.89-1.71-1.7-3.23-2.59-1.51Z"/><path class="cls-1" d="M352.87,478.13a55.57,55.57,0,0,1,25.36,19.75,72.18,72.18,0,0,1,12.69,33.6,100.81,100.81,0,0,1,.22,21.55l2.8-.75c-4.13-9.51-8.43-19.28-15.79-26.78s-17.72-11.77-24.53-20c-3.54-4.28-5.92-9.59-5.24-15.22.23-1.91-2.77-1.9-3,0-1.29,10.63,6.8,19.27,14.69,25.11,4.41,3.27,9.14,6.13,13.31,9.74a49.29,49.29,0,0,1,10.05,12.35,146.86,146.86,0,0,1,7.92,16.31c.65,1.51,2.67.54,2.79-.76,2.3-24.88-4.18-51.75-24.09-68.28a56,56,0,0,0-16.38-9.52c-1.81-.67-2.6,2.23-.8,2.9Z"/><path class="cls-1" d="M274.27,449.69a211.48,211.48,0,0,1-20.4-40.92q-2.28-6.16-4.16-12.47L247,397.46c4.11,8.57,14.46,11,23,12.62,3.07.59,6.15,1.12,9.25,1.57,2.45.36,5.06.7,7.47-.08,5.05-1.64,6.33-7.16,6.13-11.88-.27-6.52-3-12.56-5.64-18.4l-2.36,1.82c5.42,4.39,10.84,8.79,16.38,13,4.85,3.71,10,7.05,16.1,8.16a73.19,73.19,0,0,0,9.58.87,43.64,43.64,0,0,0,10.15-.42,30.77,30.77,0,0,0,8.62-3.33c3-1.59,5.91-3.27,8.86-4.92l20.92-11.64-2.06-2.05c-4.55,8.68-7.51,18.08-11.93,26.82a111,111,0,0,1-15,22.39,113.09,113.09,0,0,1-10.69,10.76c-1.45,1.28.68,3.4,2.12,2.12A114,114,0,0,0,356,424.52a127.5,127.5,0,0,0,13-24.62c2.17-5.26,4.26-10.54,6.9-15.58a1.51,1.51,0,0,0-2.05-2.05l-17.87,10-8.71,4.85a51.86,51.86,0,0,1-8.05,4,27,27,0,0,1-9.36,1.23c-3.16,0-6.35-.19-9.49-.53a27,27,0,0,1-8.69-2.34,45.9,45.9,0,0,1-7.3-4.55c-6-4.41-11.72-9.18-17.5-13.86a1.51,1.51,0,0,0-2.35,1.82c2.1,4.61,4.22,9.33,5,14.38.57,3.72.75,10-3.68,11.48-2.1.71-4.48.3-6.62,0q-4-.61-8-1.37a62.66,62.66,0,0,1-12.13-3.2c-4-1.63-7.61-4.16-9.52-8.13-.74-1.55-3.22-.46-2.74,1.15a214,214,0,0,0,18,42.64c2.16,3.9,4.46,7.72,6.86,11.47,1,1.62,3.64.11,2.59-1.52Z"/><path class="cls-1" d="M363.13,392.51l0,0,.3-.24-.12.07.36-.15a.59.59,0,0,1-.19.05l.4-.05h-.19l.4.06a.79.79,0,0,1-.22-.06l.36.15a1,1,0,0,1-.17-.1l.3.23-.13-.13.23.3a1.27,1.27,0,0,1-.07-.12l.15.36a.85.85,0,0,1,0-.17l0,.4V393l0,.4a1.21,1.21,0,0,1,0-.18l-.15.36a1,1,0,0,1,.1-.17l-.23.31a.58.58,0,0,1,.13-.14l-.3.23a1,1,0,0,1,.2-.11l-.36.15.15,0-.4.05h.16l-.4-.06.07,0-1.05-1c0,.21.09.42.12.64l-.06-.4a2.49,2.49,0,0,1,0,.77l.06-.4a2.45,2.45,0,0,1-.11.41l.15-.35a1.91,1.91,0,0,1-.16.27l.23-.31a1.25,1.25,0,0,1-.23.23l.31-.23-.27.16.35-.15a1.11,1.11,0,0,1-.26.07l.4-.05h-.24l.4.05a.73.73,0,0,1-.2-.05l.36.15-.13-.07.54,2c.09-.15.2-.3.3-.44l-.23.3a6.15,6.15,0,0,1,1.14-1.14l-.3.24.1-.08a1.12,1.12,0,0,0,.42-.39,1,1,0,0,0,.26-.51,1.5,1.5,0,0,0-2.2-1.69,8.34,8.34,0,0,0-1.15,1,9,9,0,0,0-.94,1.2,1.14,1.14,0,0,0-.17.56,1.11,1.11,0,0,0,0,.6l.15.36a1.74,1.74,0,0,0,.54.54,2.66,2.66,0,0,0,.52.23,2.36,2.36,0,0,0,.57.1,1.93,1.93,0,0,0,.79-.09,2.76,2.76,0,0,0,.72-.33,3.38,3.38,0,0,0,.8-.8,3,3,0,0,0,.48-1.68,6.36,6.36,0,0,0-.2-1.56,1.47,1.47,0,0,0-1-1.05,2.12,2.12,0,0,0-1.17,0,2.2,2.2,0,0,0-1,.61,2.16,2.16,0,0,0-.52,2.15,2.07,2.07,0,0,0,.57.91,2.47,2.47,0,0,0,1,.54,2.4,2.4,0,0,0,1.13,0,2.26,2.26,0,0,0,1-.52,1.08,1.08,0,0,0,.31-.48,1.15,1.15,0,0,0,.13-.58,1.54,1.54,0,0,0-.44-1.06,1.52,1.52,0,0,0-1.06-.44l-.4.05a1.53,1.53,0,0,0-.66.39Z"/><path class="cls-1" d="M286.26,419.76a1.47,1.47,0,0,1-.1-.13l.23.31a2.08,2.08,0,0,1-.22-.38l.15.36a2.15,2.15,0,0,1-.14-.54l.05.4a3,3,0,0,1,0-.6l-.05.39a2.48,2.48,0,0,1,.18-.66l-.15.36a2.5,2.5,0,0,1,.3-.53l-.23.3a2.06,2.06,0,0,1,.39-.39l-.3.23a1.52,1.52,0,0,1,.41-.24l-.36.15a1.69,1.69,0,0,1,.44-.12l-.4.05a1.77,1.77,0,0,1,.46,0l-.4-.06a1.78,1.78,0,0,1,.33.09l-.36-.15.21.12-.3-.23a1.45,1.45,0,0,1,.18.17l-.24-.3a1.16,1.16,0,0,1,.14.24l-.15-.35a2.35,2.35,0,0,1,.14.52l-.06-.4a2.57,2.57,0,0,1,0,.62l.05-.4a2.12,2.12,0,0,1-.14.55l.15-.36a1.9,1.9,0,0,1-.23.39l.23-.3a1.48,1.48,0,0,1-.28.28l.3-.24a.92.92,0,0,1-.27.16l.36-.15a1.82,1.82,0,0,1-.4.11l.4,0a1.78,1.78,0,0,1-.4,0l.4,0a1.06,1.06,0,0,1-.35-.09l.36.15a1.43,1.43,0,0,1-.27-.15l.31.24-.19-.19.23.31-.05-.08a1.58,1.58,0,0,0-.9-.68,1.5,1.5,0,0,0-1.84,1,1.47,1.47,0,0,0,.15,1.16,2.67,2.67,0,0,0,1.75,1.19,3.5,3.5,0,0,0,1.29,0,2.6,2.6,0,0,0,.86-.35,3.52,3.52,0,0,0,1.37-3.84,2.82,2.82,0,0,0-.64-1.22,2.5,2.5,0,0,0-1.11-.67,3.76,3.76,0,0,0-.67-.12h-.33a3.05,3.05,0,0,0-.9.17,3.46,3.46,0,0,0-1.43.95,4.18,4.18,0,0,0-.85,1.51,3.66,3.66,0,0,0,.76,3.54,1.5,1.5,0,0,0,2.12-2.12Z"/><path class="cls-1" d="M311.29,411.13c-.18-.07-.37-.13-.55-.21l.36.15a4,4,0,0,1-.83-.46l.31.24a2.11,2.11,0,0,1-.4-.39l.23.3a1.75,1.75,0,0,1-.2-.35l.15.36a1.82,1.82,0,0,1-.11-.4l.06.4a1.28,1.28,0,0,1,0-.39l-.06.39a1.31,1.31,0,0,1,.09-.28l-.16.36.11-.19-.23.3a.77.77,0,0,1,.18-.18l-.3.23a.88.88,0,0,1,.21-.12l-.35.15L310,411l-.4.06a1.28,1.28,0,0,1,.34,0l-.4,0a1.64,1.64,0,0,1,.38.1l-.36-.15a1.45,1.45,0,0,1,.34.2l-.3-.24a1.52,1.52,0,0,1,.25.26l-.23-.3a2.5,2.5,0,0,1,.23.39l-.15-.35a2.7,2.7,0,0,1,.18.69l-.06-.4a4,4,0,0,1,0,1l.05-.4a1.69,1.69,0,0,1-.13.49l.15-.36a1.1,1.1,0,0,1-.15.26l.24-.3a1.29,1.29,0,0,1-.16.17l.3-.24a.78.78,0,0,1-.18.11l.36-.15a.94.94,0,0,1-.24.06l.4,0h-.2l.4.06-.19-.05.36.15-.1-.06.3.23A.38.38,0,0,1,311,412l.23.31,0,0a1.55,1.55,0,0,0-.9-.69,1.49,1.49,0,0,0-1.15.15,1.5,1.5,0,0,0-.54,2.05,2.15,2.15,0,0,0,1.17.9,2.24,2.24,0,0,0,1.23,0,2.19,2.19,0,0,0,1-.57,2.67,2.67,0,0,0,.66-1.06,3.75,3.75,0,0,0,.2-.94,5,5,0,0,0,0-.67,4.4,4.4,0,0,0-.46-1.85,2.94,2.94,0,0,0-3.31-1.53,2.51,2.51,0,0,0-1,.58,2.48,2.48,0,0,0-.65,1,2.75,2.75,0,0,0,0,1.79,3.49,3.49,0,0,0,.61,1.1,4,4,0,0,0,.79.69,7.22,7.22,0,0,0,1.65.75,1.5,1.5,0,0,0,1.7-2.2,1.68,1.68,0,0,0-.9-.69Z"/><path class="cls-1" d="M351.63,417.55c-4.09-2-8.46.14-11.81,2.63a30.75,30.75,0,0,0-8.26,9.22,1.5,1.5,0,0,0,2.59,1.52,27.79,27.79,0,0,1,6.79-7.85c2.33-1.84,6.1-4.41,9.18-2.93,1.73.84,3.25-1.75,1.51-2.59Z"/><path class="cls-1" d="M301.15,401.9c-.23-.42,0,.07-.09-.18,0-.05-.09-.36-.06-.17a2.19,2.19,0,0,1,0-.51,1,1,0,1,0,0-.11,2.81,2.81,0,0,1,.61-1.36,11,11,0,0,1,2.67-2.2,33.93,33.93,0,0,1,7-3.63,1.54,1.54,0,0,0,1-1.84,1.5,1.5,0,0,0-1.84-1,36.53,36.53,0,0,0-8.52,4.49,10.14,10.14,0,0,0-3.31,3.3,5.06,5.06,0,0,0-.09,4.78,1.5,1.5,0,0,0,2.59-1.52Z"/><path class="cls-1" d="M271.88,417.75a25.62,25.62,0,0,1,14.74-9.67c1.87-.44,1.08-3.34-.8-2.89a28.75,28.75,0,0,0-16.53,11.05,1.51,1.51,0,0,0,.53,2.05,1.54,1.54,0,0,0,2.06-.54Z"/><path class="cls-1" d="M343,427.32l.21.06c-.19-.09-.21-.09-.06,0l.18.11-.05,0c.07.07.32.42.12.09l.22.38c-.2-.33,0,.05,0,.16s.05.55,0,.14c0,.15,0,.3,0,.45s0,.15,0-.07c0,.07,0,.15-.05.22a1.72,1.72,0,0,1-.07.21q.12-.27,0,0a4.5,4.5,0,0,1-.27.43c.21-.27-.14.13-.19.18l-.19.16h0c-.15.09-.29.19-.45.27l-.23.12c.16-.07.16-.07,0,0-.32.11-.63.18-1,.26h.08l-.35,0h-.69a8.84,8.84,0,0,1-1.16-.12c-.46-.08-.92-.18-1.37-.29a6.23,6.23,0,0,0-.62-.15c-.15-.05-.14-.05,0,0l-.2-.11a.86.86,0,0,1,.43.81c-.35.63-.41.81-.17.56s.34-.29.5-.42l1.06-.9L341,428h-2.12l.28.3c-.06-.07.15.22.18.28l.11.19c-.06-.14-.06-.12,0,.05s0-.19,0,.17c0-.18,0-.22,0-.11s0,.08,0-.08c-.09.14-.08.14,0,0l-.08.08c.15-.1.16-.11,0,0l.15-.07c.22,0,.25,0,.08,0,.21,0,.24,0,.07,0l1.1,1.45c0-.16,0-.31,0-.47s0-.15,0,.06c0-.08,0-.15,0-.23a3.66,3.66,0,0,1,.13-.44c.06-.15,0-.14,0,.05a2,2,0,0,1,.1-.21c.07-.14.16-.26.24-.39s-.18.17,0-.07.21-.23.32-.33.45-.36.14-.14a6.63,6.63,0,0,1,.81-.48c-.3.17,0,0,.07,0l.44-.13.23,0c-.21,0-.23,0-.06,0h.46c.17,0,.15,0-.06,0l.23,0,.44.14-1.1-1.45c0,.18,0,.19,0,0,0,.1,0,.19-.07.29s-.17.42-.05.18c-.07.13-.14.25-.22.37s-.11.16,0,0a2,2,0,0,1-.2.21l1.82-.23a7.93,7.93,0,0,1-1.22-.74c.12.1.05,0,0,0L343,426c-.11-.11.07.14-.07-.08s-.11-.2-.17-.29.06.29,0,0a1.89,1.89,0,0,1-.05-.23c.07.34,0,.09,0,0s0-.18,0,0c0,0,.06-.36,0-.14s.05-.07.07-.12-.17.18,0,.05-.26.15.05,0l-2.2-.9c0,.19,0,.21,0,.07a1.71,1.71,0,0,1,0,.32c0-.14,0-.12,0,.06a.58.58,0,0,1,.13-.23c.45-.49,1.28.07,1.42.59a1,1,0,0,1-1.3,1.21,1.51,1.51,0,0,0,1.84-1.05,1.54,1.54,0,0,0-1-1.85,1.92,1.92,0,0,0-2.36,1.34,2,2,0,0,0,1.27,2.47,2.37,2.37,0,0,0,2.62-1,3.6,3.6,0,0,0,.3-2.75,1.5,1.5,0,0,0-2.2-.89,3.38,3.38,0,0,0-1.44,3.91,5.67,5.67,0,0,0,3.08,3.15,1.54,1.54,0,0,0,1.82-.24,4.87,4.87,0,0,0,1.44-3.24,1.51,1.51,0,0,0-1.1-1.44,5.74,5.74,0,0,0-7.34,5.56,1.57,1.57,0,0,0,1.1,1.44,2.73,2.73,0,0,0,3.38-1.89,4,4,0,0,0-1.35-3.86,1.53,1.53,0,0,0-2.12,0l-2.19,1.86c-.69.58-1.67,1.17-2,2a2.12,2.12,0,0,0,1.19,2.74,11.59,11.59,0,0,0,2.74.69,8.38,8.38,0,0,0,5.49-.65,4.88,4.88,0,0,0,2.64-4,4.1,4.1,0,0,0-2.91-4.11,1.5,1.5,0,0,0-.8,2.89Z"/><path class="cls-1" d="M408.27,492.55c-.84-45.64,14.54-89.23,30.06-131.49,7.69-20.95,15.22-41.91,21.9-63.21,6.21-19.8,12.88-40.35,26.55-56.42,26.12-30.74,70.91-37.13,108.55-29.23,39.74,8.34,75.32,31.76,102.24,61.71,29,32.31,48.82,71.8,63.7,112.33q2.75,7.45,5.28,15l2.51-1.46c-23.31-25.47-56-39.25-89.33-46a329.42,329.42,0,0,0-51.55-6c-9.69-.42-19.55-.43-29.06,1.78a56.3,56.3,0,0,0-24,12.48c-6.79,5.83-12.45,12.84-17.85,19.94-5.87,7.74-11.57,15.63-17,23.71-10.63,15.88-20.12,32.6-27,50.47a163.54,163.54,0,0,0-10.75,58c-.13,21.73,2.75,43.36,2.64,65.09-.1,17.69-1.23,39.23-17.86,49.69-13.43,8.46-30.36,8.39-45.23,12.8a66.76,66.76,0,0,0-10.74,4.19c-1.72.87-.21,3.46,1.52,2.59,14.28-7.16,30.76-7.06,45.69-12.2,6.94-2.39,13.51-6,18.34-11.67,5.67-6.61,8.46-15.07,9.81-23.56,3.19-20.22.93-41.13-.3-61.43-1.25-20.89-1.62-41.81,3.36-62.28,4.52-18.62,12.51-36.2,22.13-52.72a372.44,372.44,0,0,1,32.32-46.79c5.71-7.05,12-13.83,19.72-18.74,8.26-5.29,17.72-7.66,27.44-8.32,9.25-.63,18.6-.06,27.84.61,8.76.62,17.5,1.55,26.18,2.88,33.34,5.09,67.18,16,92.71,38.93a123.26,123.26,0,0,1,8.82,8.74,1.51,1.51,0,0,0,2.51-1.46c-14.11-41.66-32.46-82.52-60-117.13-25.68-32.24-60-58.49-99.76-70.52-37.46-11.34-82.23-9.62-113.86,15.71-16.16,12.94-25.64,31.4-32.52,50.55-3.62,10.08-6.62,20.36-9.9,30.55-3.58,11.1-7.49,22.1-11.49,33.05-15.72,43.12-33.32,86.7-36.26,133q-.52,8.44-.37,16.91c0,1.92,3,1.93,3,0Z"/><path class="cls-1" d="M1468.47,625.05c-2.23,4.48-4.61,9.22-9.18,11.73a27.85,27.85,0,0,1-7.3,2.48c-2.89.66-5.81,1.22-8.74,1.7a151.32,151.32,0,0,1-17.78,1.85c-5.68.25-11.63.52-17.23-.63-5.26-1.07-10.37-3.72-12.88-8.68-.87-1.72-3.46-.2-2.59,1.52,5.48,10.83,19.27,11.16,29.78,10.89a156.68,156.68,0,0,0,18.85-1.64c3.22-.47,6.42-1,9.6-1.72a41.87,41.87,0,0,0,8.28-2.44c5.92-2.6,9-8,11.78-13.55.85-1.72-1.74-3.25-2.59-1.51Z"/><path class="cls-1" d="M1475.31,628.13a33.46,33.46,0,0,1,0,10.71c-.47,2.83-1.12,6.22-3.34,8.24a10.75,10.75,0,0,1-4,2c-1.73.56-3.49,1-5.26,1.5q-5,1.27-10,2.08a106.17,106.17,0,0,1-20.92,1.18,82.49,82.49,0,0,1-20.5-3c-6.46-2-12.9-6-15-12.79-.56-1.84-3.45-1.06-2.89.79,4.45,14.56,22.68,17,35.58,17.89a109.49,109.49,0,0,0,22.67-.87,108.25,108.25,0,0,0,11.4-2.23c3.35-.85,7.25-1.61,10.1-3.67,3.15-2.28,4.31-6.2,5-9.86a37.45,37.45,0,0,0,.07-12.76c-.3-1.9-3.19-1.09-2.89.8Z"/><path class="cls-1" d="M1443,501.68q44.26-.42,88.51,2.18,12.42.74,24.84,1.7c1.92.15,1.91-2.85,0-3q-44.16-3.45-88.48-3.88-12.44-.12-24.87,0a1.5,1.5,0,0,0,0,3Z"/><path class="cls-1" d="M1560.48,494.78a59.59,59.59,0,0,0-16.24-31.51,64.9,64.9,0,0,0-26.47-15.6,63.56,63.56,0,0,0-32.83-1.76,56.44,56.44,0,0,0-31,19.46,78.36,78.36,0,0,0-16.68,39.22c-1.7,12.74,0,25.95,8.54,36.05s21.12,16.88,33.82,20.37a106.54,106.54,0,0,0,18.93,3.29,117.16,117.16,0,0,0,16.86.51c9.6-.5,19.23-2.87,27.51-7.86a49.43,49.43,0,0,0,20.24-24.66,66.1,66.1,0,0,0,2.81-9.14c.43-1.88-2.46-2.68-2.9-.79-2.53,10.84-7.66,21-16.32,28.22-7.14,5.95-16.09,9.28-25.21,10.64a77.87,77.87,0,0,1-13.74.63,131.89,131.89,0,0,1-17.86-1.64c-12.48-2.1-24.69-6.56-34.61-14.58-4.76-3.84-9-8.27-11.78-13.78a40.32,40.32,0,0,1-3.92-17.45,74.71,74.71,0,0,1,11.08-39.31c6.46-10.61,15.84-19.49,27.54-24a57,57,0,0,1,32.59-2.15,65.94,65.94,0,0,1,25.74,11.6,54.69,54.69,0,0,1,18.74,26.12,67.25,67.25,0,0,1,2.3,8.93c.35,1.9,3.24,1.09,2.89-.8Z"/><path class="cls-1" d="M1280.69,910.63a54.27,54.27,0,0,1,13.3-22c3.07-3.08,6.68-6.43,10.93-7.71a7.24,7.24,0,0,1,6.28.71,22.83,22.83,0,0,1,4.7,5,129.69,129.69,0,0,1,9.86,14.08,1.52,1.52,0,0,0,2.36.3c6.22-6.39,14.66-11.8,23.91-11.43,7.85.31,15.83,5.36,17.7,13.29a1.51,1.51,0,0,0,2.2.89,89.79,89.79,0,0,1,34.5-14.27,87.59,87.59,0,0,1,18.92-1.39c4.93.17,10.84.76,14.46,4.52,1.76,1.81,2.25,4.59,4.32,6.12,2.37,1.74,5.29.93,7.82,0a87.78,87.78,0,0,1,20-4.7c5.25-.56,12-1.47,16.78,1.43,2.43,1.47,2.8,4,4.54,6s4.55,2.19,7.08,1.59c3.56-.83,7-2.19,10.57-3.16q5.55-1.51,11.19-2.67a87.43,87.43,0,0,1,11.58-1.93c3-.21,7.64.6,7.77,4.48a1.5,1.5,0,0,0,1.89,1.44c6.84-2.68,14-5.55,21.44-5.54,6,0,12.42,2,16.2,7a1.52,1.52,0,0,0,2,.54,30.85,30.85,0,0,1,8.09-4.59c1.31-.49,2.77-.94,3.17.77a11.17,11.17,0,0,1-.18,4,118.16,118.16,0,0,1-4.29,18.66,115.62,115.62,0,0,1-7.36,17.89c-1.2,2.33-2.55,5-5.45,5.4-3.07.38-6.47-1-9.38-1.81q-11-3-21.88-6.75a1.51,1.51,0,0,0-1.46.39c-7.08,6.79-20.14,5-25.16-3.41a1.52,1.52,0,0,0-2.59,0c-2.79,3.83-5.77,8-10.14,10.11-3.6,1.78-8.58,1.82-11.42-1.35-1.26-1.4-2.16-3.17-3.83-4.15a4.53,4.53,0,0,0-5.19.47c-1.73,1.36-2.78,3.26-4.75,4.38a10.83,10.83,0,0,1-6.26,1.35c-5.15-.45-9-5.14-9.12-10.19a1.52,1.52,0,0,0-2.25-1.3c-3.92,2-6.53,5.54-9.35,8.79-3.21,3.71-6.84,6.49-12,6.52-11.06.09-18.29-9.55-24.12-17.65a1.55,1.55,0,0,0-2.06-.53c-4,2.12-7.37,5.31-10.7,8.4s-6.69,6.17-11,7.42c-11.83,3.4-20.46-8.35-26.16-16.75a1.52,1.52,0,0,0-2.35-.3,24.85,24.85,0,0,1-38.37-5.77,1.51,1.51,0,0,0-2.36-.3c-6.72,7.16-15.76,13.33-25.91,13.55-8.65.2-17.57-4.24-21.06-12.44-.75-1.77-3.34-.24-2.59,1.52,2.94,6.91,9.61,11.54,16.79,13.2,8.06,1.86,16.35-.18,23.37-4.31a52.63,52.63,0,0,0,11.52-9.4l-2.35-.31A27.87,27.87,0,0,0,1368,931l-2.36-.31c5.14,7.58,11,15.8,20.38,18.19a17.77,17.77,0,0,0,12.09-1.18c3.44-1.62,6.35-4.21,9.12-6.77,3.26-3,6.44-6.16,10.42-8.23l-2.05-.54c5,7,10.39,14.3,18.63,17.56a20.12,20.12,0,0,0,12.42,1c3.78-1,6.76-3.45,9.31-6.33,2.82-3.18,5.3-6.84,9.18-8.83l-2.26-1.29a13.67,13.67,0,0,0,7,11.72,13.5,13.5,0,0,0,13.65-.77,13.17,13.17,0,0,0,2.51-2.2c.73-.82,1.72-2.49,3-2.4,1.83.14,3.22,3.39,4.45,4.53,3.42,3.16,8.68,3.46,12.89,1.88,5.64-2.11,9.37-7.17,12.78-11.87h-2.59c6,10.1,21.4,12.15,29.87,4l-1.46.39q11.43,3.9,23.08,7.07c3.14.85,6.58,2.08,9.87,1.47s5.19-3.1,6.66-5.84a114.42,114.42,0,0,0,8.41-20.36c1.11-3.61,2.06-7.27,2.82-11a58.94,58.94,0,0,0,1.6-10.21c.08-3.17-1.64-6.2-5.22-5.63-3.79.6-7.68,3.12-10.65,5.42l2,.54c-4.17-5.41-10.65-8-17.37-8.4-8.22-.44-16.14,2.66-23.65,5.61l1.9,1.45a7.47,7.47,0,0,0-4.1-6.31c-2.78-1.49-6-1.32-9-.91a170.15,170.15,0,0,0-21.22,4.45c-3.32.9-6.56,2-9.86,3-1.26.36-2.92.79-4.13.06s-1.71-2.68-2.49-3.89c-2.89-4.5-8.6-5.56-13.57-5.6a81.77,81.77,0,0,0-20.47,2.66c-3.39.86-6.62,2.11-10,3.12-1.45.44-3.12.8-4.23-.48-1-1.09-1.37-2.58-2.19-3.76-3-4.39-8.38-6.06-13.44-6.7a75.52,75.52,0,0,0-18.94.35,92.6,92.6,0,0,0-40.48,15.39l2.21.9c-2.1-9-10.86-14.72-19.7-15.43-10.31-.84-20,5.13-26.92,12.25l2.35.31a135.9,135.9,0,0,0-9.59-13.76c-3-3.76-6.22-8.08-11.53-7.89-4.93.16-9.19,3.41-12.74,6.53a57.05,57.05,0,0,0-9.55,10.91,57.66,57.66,0,0,0-7.15,14.93c-.57,1.85,2.32,2.64,2.9.8Z"/><path class="cls-1" d="M1215.13,656.68c-4.53.55-8.62-1.83-11.39-5.31-3.21-4-4.17-9.33-4.39-14.35-.26-5.62.12-11.3.29-16.92l.53-18.37c.17-5.91.36-11.82.52-17.73.13-5,.11-10.32-1.83-15.07a15.23,15.23,0,0,0-9.21-8.88,10.24,10.24,0,0,0-11.19,2.85,19.11,19.11,0,0,0-3.46,6.85,89.55,89.55,0,0,0-2.26,9.17,107.69,107.69,0,0,0-2.08,19.37l1.9-1.45c-10.17-1.63-21-1.15-30.38,3.47A28.94,28.94,0,0,0,1126,621.83a24.44,24.44,0,0,0,1.31,12.95,22.49,22.49,0,0,0,8.31,9.8c3.46,2.44,7.35,4.34,10.5,7.19a12.28,12.28,0,0,1,3.35,4.5,13.85,13.85,0,0,1,.53,6.49c-.47,4.68-2.07,10.66,2.2,14.12,4.93,4,11.38.09,15.53-3.14l-2.5-.66c5.61,26,11.57,52.79,25.71,75.67a104.72,104.72,0,0,0,13.52,17.51c1.34,1.39,3.46-.73,2.12-2.12-18.42-19.15-27.26-44.9-33.52-70.19-1.78-7.19-3.37-14.43-4.94-21.67a1.52,1.52,0,0,0-2.51-.66c-3,2.3-9,6.31-12.21,2.25-1.16-1.47-1.17-3.5-1.06-5.28.14-2.19.55-4.35.72-6.54a14.11,14.11,0,0,0-3.36-10.92c-2.52-2.89-6-4.88-9.16-6.9s-6.73-4.29-8.91-7.63a19.39,19.39,0,0,1-3-11.07,25.54,25.54,0,0,1,12-21c9.12-5.75,20.63-6.51,31-4.84a1.52,1.52,0,0,0,1.9-1.44,103.31,103.31,0,0,1,1.66-16.93q.75-4.12,1.82-8.16a28.61,28.61,0,0,1,2.32-6.5,7.84,7.84,0,0,1,4.44-4,8.44,8.44,0,0,1,5.58.45c4.16,1.7,6.52,5.51,7.51,9.74,1.18,5,.72,10.31.57,15.41l-.5,17.37-.52,17.62c-.16,5.43-.55,10.93,0,16.35s2.07,10.5,5.68,14.54c3.23,3.6,8,6.07,12.91,5.47,1.89-.24,1.92-3.24,0-3Z"/><path class="cls-1" d="M1646.63,641.84q-25.35,17.31-50,35.71t-48.3,37.78c-6.6,5.39-13.74,11-17.51,18.88-4.2,8.75-2.68,18.41.69,27.16,3.49,9.08,8.24,17.76,12.77,26.34q6.95,13.14,14.53,25.91t15.81,25.14q4.11,6.18,8.37,12.27c1.42,2,2.85,4,4.3,6.05a38.77,38.77,0,0,0,4,5.17,8.26,8.26,0,0,0,5.39,2.53,11.51,11.51,0,0,0,6.29-2c3.76-2.26,7.35-4.87,10.93-7.41q10.69-7.61,20.76-16.05a332.5,332.5,0,0,0,68.46-78.88q3.46-5.58,6.71-11.29c2.21-3.91,4.48-7.83,6.36-11.91,2-4.28,3.28-8.9,2.16-13.6s-4.12-8.73-6.62-12.73L1678,656.76l-8.19-13.11c-1-1.64-3.62-.13-2.59,1.51l32.9,52.64,8.2,13.11c2.46,4,5.55,8,7,12.45,1.45,4.69-.07,9.31-2.16,13.55-1.9,3.87-4,7.65-6.18,11.4a325.29,325.29,0,0,1-28.59,42.09,331.74,331.74,0,0,1-34.9,37.29,322.61,322.61,0,0,1-40.27,31.43c-1.77,1.17-3.77,2.6-6,2.66s-3.6-1.42-4.83-2.93c-2.93-3.62-5.51-7.6-8.17-11.43q-8.21-11.82-15.83-24Q1553,798.89,1540.14,773c-4.16-8.37-8.83-17.33-8.91-26.9a24,24,0,0,1,3.33-12.44,42.39,42.39,0,0,1,8-9.41c6.88-6.38,14.46-12.09,21.79-17.93Q1576,697,1587.85,688q23.75-18.12,48.25-35.21,6-4.18,12.05-8.31c1.58-1.09.08-3.69-1.52-2.59Z"/></svg>