<svg id="Layer_1" data-name="Layer 1" xmlns="http://www.w3.org/2000/svg" viewBox="0 0 1920 1080"><defs><style>.cls-1{font-size:60px;font-family:VarelaRound-Regular, Varela Round;}.cls-2{letter-spacing:-0.01em;}.cls-3{letter-spacing:0em;}.cls-4{letter-spacing:-0.04em;}.cls-5{letter-spacing:-0.02em;}.cls-6{letter-spacing:-0.01em;}.cls-7{letter-spacing:-0.01em;}.cls-8{letter-spacing:0em;}.cls-9{letter-spacing:-0.01em;}.cls-10{letter-spacing:0em;}.cls-11{fill:#4d4d4d;}</style></defs><title>42-teeth</title><text class="cls-1" transform="translate(350.3 107.51)"><tspan class="cls-2">H</tspan><tspan class="cls-3" x="44.46" y="0">e</tspan><tspan class="cls-4" x="78.12" y="0">y</tspan><tspan x="107.94" y="0">, look. </tspan></text><text class="cls-1" transform="translate(1239.3 279.51)"><tspan class="cls-5">D</tspan><tspan class="cls-6" x="43.92" y="0">o</tspan><tspan x="79.98" y="0">wn </tspan><tspan class="cls-7" x="179.64" y="0">b</tspan><tspan class="cls-8" x="217.08" y="0">y the b</tspan><tspan class="cls-9" x="411.78" y="0">r</tspan><tspan class="cls-10" x="433.86" y="0">ook!</tspan></text><path class="cls-11" d="M377.1,475.28c-38.39,21.84-68.93,54.83-93.76,91-26,37.81-46.94,79.3-64.11,121.79a735.15,735.15,0,0,0-40,135.18,751.26,751.26,0,0,0-13.84,140,730.43,730.43,0,0,0,12.82,140.06c1.1,5.79,2.29,11.57,3.53,17.33.41,1.88,3.3,1.08,2.89-.8a724,724,0,0,1-16.11-138.88A745,745,0,0,1,215,707.29c16.08-43.16,36.18-85.14,60.8-124.1,23.54-37.24,52.34-72.31,89.27-97q6.64-4.42,13.6-8.37a1.5,1.5,0,0,0-1.52-2.59Z"/><path class="cls-11" d="M262.28,844.19c16.86-7.27,35.21-10,53.42-11.09a518.58,518.58,0,0,1,57,.14c19.43,1,38.82,3,58.06,5.93,18.38,2.81,37,6.05,54.9,11.29,8.27,2.42,16.38,5.6,23.53,10.47a61.88,61.88,0,0,1,16.58,17.28c9.28,14.08,14.53,30.74,18.94,46.88,9.58,35.08,12.77,72.83,3.64,108.37-7.62,29.64-23.81,57.74-48.14,76.73-3,2.34-6.14,4.51-9.36,6.54a1.52,1.52,0,0,0,0,2.59c27.42,14,58.12,19.83,85.75,33.35,12.56,6.16,24.49,13.89,34.09,24.15,2.42,2.59,5.41,5.5,6.65,8.89,1.46,4-1.49,6.77-4.38,9a79,79,0,0,1-19.87,11c-14.94,5.86-30.89,8.73-46.77,10.53-16.52,1.88-33.15,3-49.73,4q-51.07,3.12-102.27,2.86-51-.27-101.85-3.87-6.36-.45-12.71-1c-1.92-.15-1.92,2.85,0,3q52.55,4.15,105.29,4.75,52.51.58,105-2.39c17.32-1,34.67-2.12,51.93-3.89,16.3-1.67,32.64-4.22,48.14-9.7a93,93,0,0,0,20.3-9.76c5.15-3.39,12.33-8.15,9.83-15.33-1.14-3.28-3.66-6-5.93-8.57a90.48,90.48,0,0,0-7.59-7.58,114.55,114.55,0,0,0-17.14-12.47c-26.76-16.09-57.78-22.09-86.2-34.38q-5.6-2.42-11-5.18v2.59c26.69-16.82,45.45-43.93,55.46-73.54,11.71-34.65,10.94-72.36,3.16-107.78-3.81-17.35-8.87-35-16.77-51a82.94,82.94,0,0,0-13.46-20,63.22,63.22,0,0,0-20.33-14.31,135.36,135.36,0,0,0-24.83-7.9q-14.31-3.35-28.79-5.93a595.17,595.17,0,0,0-59.06-7.59,584.39,584.39,0,0,0-59.33-1.62c-18.52.44-37.28,1.91-55.08,7.36a122,122,0,0,0-12.56,4.64c-1.77.76-.24,3.35,1.51,2.59Z"/><path class="cls-11" d="M617.6,886.91c14.31.46,26.64,8.51,36.74,18.07a180.48,180.48,0,0,1,15,16.46c4.8,5.84,9.86,11.72,13.48,18.4a32.1,32.1,0,0,1,3.86,11.44,37.41,37.41,0,0,1-1,13,92.31,92.31,0,0,1-8.68,21.87c-7.07,13.31-16.61,25.12-27.29,35.69-5.42,5.37-11.13,10.43-17,15.26q-4.26,3.5-8.63,6.83c-2.62,2-6.22,3.95-7.49,7.16s.72,6.17,3.52,7.75c3.31,1.86,7.27,2.85,10.85,4,7.8,2.59,15.69,4.89,23.55,7.27,15.82,4.79,31.72,9.93,46,18.33,6.38,3.73,12.6,8.55,14.54,16,1.88,7.23-.19,15.16-4.19,21.32-4.19,6.42-10.43,11.2-16.9,15.15a168.28,168.28,0,0,1-22.34,11.3,182.37,182.37,0,0,1-48.39,12.91q-6,.72-12.07,1c-1.92.11-1.94,3.11,0,3a185.25,185.25,0,0,0,73.61-19.77c7.11-3.6,14.18-7.54,20.27-12.73,5.88-5,10.62-11.37,12.64-18.9,1.91-7.17,1.3-15.12-3-21.3-4.5-6.4-11.7-10.4-18.51-13.9a179.89,179.89,0,0,0-23.42-9.81c-16-5.55-32.44-9.62-48.34-15.4-2.79-1-7.13-3.13-4.23-6.53a24.9,24.9,0,0,1,4.15-3.43c1.55-1.18,3.09-2.36,4.62-3.56,6.06-4.73,12-9.67,17.62-14.9,11.21-10.38,21.46-22,29.44-35a118.33,118.33,0,0,0,10.14-20.91c2.95-8.06,4.87-16.87,2.9-25.4-1.8-7.8-6.56-14.44-11.42-20.63-4.69-6-9.51-11.91-14.68-17.51-9.64-10.42-21.12-20.38-35.14-24.12a45.89,45.89,0,0,0-10.28-1.49c-1.93-.06-1.93,2.94,0,3Z"/><path class="cls-11" d="M556.91,627.43c18.33,16.29,45.53,18.38,67.92,10.11a78.24,78.24,0,0,0,19.1-10.22c1.54-1.12.05-3.73-1.52-2.59-19.1,13.95-45.2,19-67.56,10.24A52.73,52.73,0,0,1,559,625.3c-1.44-1.28-3.56.84-2.12,2.13Z"/><path class="cls-11" d="M614.52,619.59a4.15,4.15,0,0,1-3.08-.09,1.65,1.65,0,0,1-.73-.56c-.06-.13,0-.32.16-.6,1.24-2.07,4.61-2.39,6.72-2.15a9.08,9.08,0,0,1,6.38,3.67,14.55,14.55,0,0,1,2,3.6,2.41,2.41,0,0,1,.25.71c0,.09.07,0-.19,0a14.65,14.65,0,0,1-2.18.3,13.7,13.7,0,0,1-8.29-2.84c-1.57-1.13-3.07,1.48-1.51,2.59a16,16,0,0,0,10.77,3.19c1.91-.2,4.5-.82,4.41-3.25a7.46,7.46,0,0,0-.82-2.63,16.43,16.43,0,0,0-1.53-2.79,12.42,12.42,0,0,0-9.28-5.59c-3.33-.34-8,.72-9.55,4.11a3.53,3.53,0,0,0,1.46,4.54,6.93,6.93,0,0,0,5.82.64c1.83-.6,1-3.5-.8-2.89Z"/><path class="cls-11" d="M612.37,514.93c1.28-6.3-3.17-13.36-9.8-14a6.77,6.77,0,0,0-4.84,1.34,5.51,5.51,0,0,0-1.92,4.65,14.74,14.74,0,0,0,1.72,5.39c.8,1.64,1.85,3.29,3.68,3.86s4.42-.43,4.62-2.66c.16-1.88-1.58-3.95-3.57-3.27a1.54,1.54,0,0,0-1,1.85,1.5,1.5,0,0,0,1.84,1c.32-.1,0,0-.07,0l-.28-.13c.09,0,.12.21.08.06s.14.43.07.23.08.11,0,0v-.06c.07-.13.06-.12,0,0l0,0c.11-.06.08,0-.07,0,.27,0-.45.09-.17.06a.93.93,0,0,1-.59-.07,2.4,2.4,0,0,1-.92-.76,13.67,13.67,0,0,1-1.69-3.32,6.08,6.08,0,0,1-.53-3.37c.51-2.07,3-2.17,4.68-1.68a8.33,8.33,0,0,1,4.52,3.47,8.87,8.87,0,0,1,1.4,6.51,1.5,1.5,0,0,0,2.9.79Z"/><path class="cls-11" d="M567,515.2c.16-3-2.28-5.27-5.06-5.8a6.49,6.49,0,0,0-7.38,3.57,10,10,0,0,0,1.34,9.82c1.1,1.5,2.74,3.21,4.75,3.22a4,4,0,0,0,3.6-2.92,6.94,6.94,0,0,0-.43-5.41c-.83-1.72-2.32-3.42-2.43-5.26a1.54,1.54,0,0,0-1.5-1.5,1.51,1.51,0,0,0-1.5,1.5,10.53,10.53,0,0,0,1.68,4.71c.39.65.78,1.3,1.12,2a4.51,4.51,0,0,1,.29.72c0,.14.07.28.1.42s0,.19,0,0a2.64,2.64,0,0,1,0,.29,5.06,5.06,0,0,1,0,.87c0-.32,0,.15,0,.17s-.07.28-.11.42l-.09.26c.11-.3-.05.09-.07.13a3.62,3.62,0,0,1-.2.33c.18-.27-.11.11-.16.17-.26.27.24-.15-.07,0s.26,0-.07,0,.32,0-.07,0c0,0-.38-.07-.18,0a3.89,3.89,0,0,1-1.55-1.16,8.13,8.13,0,0,1-1.82-3.14,8.53,8.53,0,0,1-.33-1.51c0-.32,0-.63,0-1a3.19,3.19,0,0,1,.09-.85,6.66,6.66,0,0,1,.26-.9,3.81,3.81,0,0,1,.31-.64l.26-.4c.27-.4-.15.15.12-.14a3.38,3.38,0,0,1,.26-.27l.19-.17c-.14.11-.15.11,0,0l.63-.36c.35-.18-.28.07.1,0l.35-.11a4.29,4.29,0,0,1,.6-.13c-.38.06,0,0,.09,0h.5l.37,0c.17,0,.16,0,0,0l.25,0a4.84,4.84,0,0,1,.83.22s.43.17.1,0l.43.21.31.19c.07,0,.46.35.18.11a7.8,7.8,0,0,1,.58.57c-.24-.26,0,0,0,.07l.23.4c.18.29-.05-.27,0,.07,0,.14.08.31.12.45.11.35,0-.29,0,.08,0,.17,0,.34,0,.51a1.5,1.5,0,0,0,3,0Z"/><path class="cls-11" d="M363.14,601.69c-23.63,5.6-44.57,20.3-58.84,39.82-15.48,21.17-22.14,47.84-19.57,73.86a109.43,109.43,0,0,0,10.88,38.19c5.88,11.72,14.08,22.73,25.69,29.25,10.22,5.74,21.82,8.15,32.87,11.76a72.15,72.15,0,0,1,15.71,6.91,40.35,40.35,0,0,1,6.86,5.34,62.16,62.16,0,0,1,6.31,7.61,50,50,0,0,0,6.62,7.69,32.76,32.76,0,0,0,8.54,5.43c6.38,2.86,13.31,4.22,20.14,5.55a322.73,322.73,0,0,0,46.88,5.64q5.85.27,11.7.33a1.52,1.52,0,0,0,1.45-1.1c3.14-14.36,5.38-30.93-4.65-43.2-4.47-5.47-10.75-8.12-17.73-8.44-7.61-.36-15.32,1.51-22.82-.42-6.54-1.68-12.17-5.66-17-10.21a157.68,157.68,0,0,1-14-15.65c-9.08-11.07-18.2-22.93-22.07-37-4.44-16.09.1-32.36,5.56-47.59.69-1.94,1.4-3.87,2.11-5.79s-2.23-2.6-2.89-.8c-5.66,15.32-11.42,31.51-9.1,48.09,2,14.45,10,27,18.8,38.34,4.36,5.63,8.89,11.19,13.65,16.49,4.56,5.07,9.58,9.92,15.51,13.36a34.66,34.66,0,0,0,9.05,3.71,40.45,40.45,0,0,0,11.25.84c7.31-.31,15.32-1.64,22,2.24,5.57,3.24,9.11,9.19,10.82,15.26,2.17,7.76,1.38,16-.06,23.85-.38,2-.81,4.06-1.25,6.08l1.44-1.1a317.9,317.9,0,0,1-46.72-3.9c-7.34-1.17-14.73-2.46-21.92-4.33-6.19-1.61-12.4-3.94-17.12-8.41s-7.95-10.65-12.82-15.22a49.15,49.15,0,0,0-14.07-9c-10.45-4.59-21.75-6.75-32.41-10.8a56.7,56.7,0,0,1-15.3-8.33,61.18,61.18,0,0,1-13-14.7,101.74,101.74,0,0,1-14.36-36.17c-4.92-25.38-.71-52.49,12.73-74.68,12.2-20.15,31.52-36.15,53.93-43.62q4-1.33,8.11-2.3c1.87-.45,1.08-3.34-.8-2.9Z"/><path class="cls-11" d="M579.61,971.07a261.85,261.85,0,0,0,21.71-46,271.78,271.78,0,0,0,15.73-100.44c-.56-16.43-2.44-33-6.69-48.92-4.07-15.22-10.54-30-20.85-42.11q-1.87-2.17-3.9-4.22a1.5,1.5,0,0,0-2.12,2.12c11,11.09,18.07,25.3,22.58,40.11,4.69,15.42,6.86,31.56,7.74,47.61a265.92,265.92,0,0,1-2,50.37,269.27,269.27,0,0,1-11.32,48.77,259,259,0,0,1-20.31,45.79q-1.53,2.7-3.14,5.37a1.5,1.5,0,0,0,2.59,1.51Z"/><path class="cls-11" d="M620.25,506.68c-2.35-13-5.51-28.33-16.61-36.88-6.52-5-14.77-6.17-22.78-5.76-3.8.2-8.18.28-10.71,3.57s-2.88,7.77-2.95,11.61c-.18,10.2,4,19.89,8,29.06l2.59-1.52A49.52,49.52,0,0,0,543,483.27c-3.72-.53-8.07-1.09-11.29,1.28-3,2.21-4.72,6-5.89,9.4a36.15,36.15,0,0,0,.5,23.64,49.29,49.29,0,0,0,15.18,20.88,1.55,1.55,0,0,0,2.12,0c8.55-8.21,21.15-8,32.19-8a91.66,91.66,0,0,0,18.55-1.82c3.07-.65,6.13-1.38,9.23-1.89a46,46,0,0,1,4.7-.56c1.46-.09,2.92,0,4.37-.06a3.75,3.75,0,0,0,3.23-1.81,2.81,2.81,0,0,0-.45-3.37c-2.07-1.85-5.26,1.48-3.14,3.33,1.44,1.27,3.57-.85,2.12-2.12l0,1.07-1.22-.35s-.2.18-.27.19a8.44,8.44,0,0,1-1.42.06,39.2,39.2,0,0,0-4.2.13,64.66,64.66,0,0,0-7.34,1.11c-5.14,1-10.21,2.36-15.45,2.79-10,.82-20.29-.54-30.13,2.15a30,30,0,0,0-12.94,7.05h2.12c-11-9.12-18.91-23.11-15.94-37.77a24.71,24.71,0,0,1,4-9.79,6.72,6.72,0,0,1,4.06-2.79,18.06,18.06,0,0,1,5.54.06,44.91,44.91,0,0,1,18.34,6.46,46.9,46.9,0,0,1,15.58,15.77c1,1.7,3.35.21,2.59-1.52-3.29-7.54-6.68-15.4-7.42-23.69a26.93,26.93,0,0,1,1.13-11.7,5.57,5.57,0,0,1,3.29-3.54,19.59,19.59,0,0,1,5.23-.73c7.47-.48,15.22.24,21.45,4.78,4.88,3.55,8.17,9,10.4,14.49,2.73,6.76,4.22,14,5.52,21.11.34,1.9,3.23,1.09,2.89-.8Z"/><path class="cls-11" d="M550.58,450.39a94.2,94.2,0,0,0-32-2c-4.46.5-9.64.85-12.6,4.69a19.45,19.45,0,0,0-2.75,5.71c-.9,2.59-1.75,5.19-2.57,7.81q-2.82,8.94-5.09,18c-.47,1.87,2.42,2.67,2.89.8,1.25-5,2.6-9.89,4.09-14.79.75-2.48,1.53-5,2.34-7.42a52.49,52.49,0,0,1,2.29-6.37,7.55,7.55,0,0,1,4.24-4.15,28.85,28.85,0,0,1,6.45-1.24,91.37,91.37,0,0,1,31.89,1.8c1.87.44,2.68-2.45.79-2.89Z"/><path class="cls-11" d="M599.81,435.54a94.2,94.2,0,0,0-32-2c-4.46.5-9.64.85-12.6,4.69a19.73,19.73,0,0,0-2.76,5.71q-1.34,3.89-2.56,7.81-2.82,8.94-5.09,18c-.47,1.88,2.42,2.67,2.89.8q1.88-7.44,4.08-14.79c.76-2.48,1.54-5,2.35-7.42a53,53,0,0,1,2.29-6.36,7.57,7.57,0,0,1,4.24-4.16,28.28,28.28,0,0,1,6.45-1.23A91,91,0,0,1,599,438.43c1.87.44,2.68-2.45.79-2.89Z"/><path class="cls-11" d="M461.12,392a287.77,287.77,0,0,0,22.07-95.69,242.59,242.59,0,0,0-1.7-48.26A119.52,119.52,0,0,0,475.9,225a93.85,93.85,0,0,0-4.67-10.87c-1.62-3.18-3.38-6.52-6.24-8.77s-6.44-2.9-10-2.86a82.5,82.5,0,0,0-11.94,1.25,149.45,149.45,0,0,0-24.2,6.12,223,223,0,0,0-40.93,18.62A185,185,0,0,0,343.65,254a141.08,141.08,0,0,0-26.16,33.11,118.05,118.05,0,0,0-14,41.25A100.77,100.77,0,0,0,306.38,371a94.13,94.13,0,0,0,3.67,10,1.52,1.52,0,0,0,2.05.54q34.61-19,67.31-41.25,9.24-6.28,18.3-12.82l-2.26-1.3,3.67,62.5L401,419.87c.45,7.73.89,15.54,2.87,23.06C405.94,451,410,458.4,417,463.22c1.59,1.1,3.1-1.5,1.52-2.59C406,452,404.84,435.19,404,421.42l-3.58-61-2-34.21c-.06-1-1.26-2-2.25-1.29q-32,23-66.06,43-9.7,5.67-19.55,11.08l2.05.54a93.59,93.59,0,0,1-7.15-41.06,111.83,111.83,0,0,1,10.15-41.19A130.4,130.4,0,0,1,338.89,263a170.72,170.72,0,0,1,31.67-26.45A217.71,217.71,0,0,1,408,217.13a187.52,187.52,0,0,1,22.95-7.73c7.66-2,15.7-3.69,23.64-3.88,3.58-.08,7.08.51,9.66,3.19s4,6.06,5.53,9.23A100.52,100.52,0,0,1,477,239.87c3.26,15.2,3.89,31,3.58,46.5a283.4,283.4,0,0,1-5,47.56,288.34,288.34,0,0,1-13,46.39q-2.06,5.49-4.33,10.91c-.75,1.78,2.16,2.56,2.89.8Z"/><path class="cls-11" d="M509.12,370.51a293.33,293.33,0,0,1-6.13-46.2,305.25,305.25,0,0,1,9.28-92.48,297.77,297.77,0,0,1,15-44q4.63-10.66,10.11-20.94c1.68-3.14,3.25-6.66,5.62-9.34a8.23,8.23,0,0,1,4.33-2.74,11.47,11.47,0,0,1,6,.65A93.67,93.67,0,0,1,563.54,160q4.82,2.25,9.62,4.53,9.74,4.62,19.35,9.49a388.44,388.44,0,0,1,37.17,21.31,219.83,219.83,0,0,1,33.11,26.32,160.72,160.72,0,0,1,26.88,34.48c8.21,14.24,14.3,29.57,19.65,45.08q2,5.7,3.83,11.44l.69-1.7c-14.24,8.54-31.75,7.33-47.34,3.86a164.19,164.19,0,0,1-46.16-18,166.46,166.46,0,0,1-23.29-16.2c-1-.84-3.13-.08-2.51,1.46A202.58,202.58,0,0,1,609,354.33a205,205,0,0,1-.8,21.17c-.17,1.92,2.83,1.91,3,0a205.66,205.66,0,0,0-7-74.25,203.21,203.21,0,0,0-6.83-20l-2.51,1.46a171.15,171.15,0,0,0,44,26.53,164.55,164.55,0,0,0,24.49,7.92,105.07,105.07,0,0,0,25,3.26c9.4-.07,18.8-2,26.92-6.9a1.51,1.51,0,0,0,.69-1.69c-5.2-15.95-10.8-31.83-18.25-46.89a166.33,166.33,0,0,0-26-38.28,203.19,203.19,0,0,0-32.37-28.29,333.48,333.48,0,0,0-37.33-22.75c-12.91-6.86-26.11-13.14-39.36-19.3-6.55-3.06-14.91-7.7-21.18-1.56-2.59,2.53-4.23,6-5.93,9.12q-2.85,5.25-5.47,10.62a298.88,298.88,0,0,0-17.26,43.91,305.08,305.08,0,0,0-10.27,46.48,308.9,308.9,0,0,0-3.05,47.56A302.84,302.84,0,0,0,504,359.92q1,5.71,2.21,11.39c.41,1.88,3.3,1.08,2.9-.8Z"/><path class="cls-11" d="M1570.26,710.39c-14.45,14.84-35.08,20.47-52.51,30.79a80.93,80.93,0,0,0-14,10.24c-1.42,1.31.71,3.43,2.13,2.12,15.16-14,35.78-19.41,53-30.28a73.67,73.67,0,0,0,13.49-10.75c1.35-1.38-.77-3.51-2.12-2.12Z"/><path class="cls-11" d="M1568.94,706.64c-25.85-1.09-51.7-2.37-77.49-4.45q-10.85-.87-21.67-1.94l1.5,1.5c-1.74-13.84-9.32-26.8-19.49-36.19a1.51,1.51,0,0,0-2.5.66c-.4,1.93-.69,4.23.33,6a2.85,2.85,0,0,0,3.23,1.53,2.93,2.93,0,0,0,1.89-3.09c-.11-2-1.55-3.78-3-5.13a1.51,1.51,0,0,0-2.5.66l-5.68,26.28c-1.14,5.28-1.45,11.5-4.69,16-2.75,3.84-8,4.58-12.05,2.59-4.35-2.12-7.71-5.9-11.11-9.24-3.7-3.64-7.9-7.75-13.22-8.7a1.52,1.52,0,0,0-1.85,1.84,307.46,307.46,0,0,1,4.12,55c0,1.93,3,1.93,3,0a311.8,311.8,0,0,0-4.23-55.84l-1.84,1.85c4.78.86,8.47,4.57,11.8,7.83,3.6,3.54,7.2,7.57,11.81,9.81s10.22,2,14.2-1.42c4.44-3.87,5.31-10.48,6.33-15.92,1.85-9.82,4.19-19.57,6.3-29.34l-2.51.66a6.38,6.38,0,0,1,2,2.93.68.68,0,0,1,0,.38c0,.28-.1-.14,0,.11,0,.06,0-.1.18-.15a.72.72,0,0,1,.44,0c.1,0-.09-.06-.1,0s.1.08.11.1-.24-.45-.2-.33a6.88,6.88,0,0,1,0-3.63l-2.51.66c9.53,8.81,17,21.05,18.61,34.07a1.56,1.56,0,0,0,1.5,1.5c25.65,2.53,51.38,4.16,77.13,5.4q11,.54,22,1c1.93.08,1.92-2.92,0-3Z"/><path class="cls-11" d="M1505.15,760.66l-16.29,91.28c-2.66,14.88-5.46,29.82-6.06,45a152.49,152.49,0,0,0,4.71,43.06,188,188,0,0,0,7.41,23c1.23,3.16,2.29,6.65,4.69,9.15,2,2.06,5,3.32,7.32,1a1.5,1.5,0,0,0-2.13-2.12c-1.66,1.66-4.16-2.24-4.76-3.44a91.2,91.2,0,0,1-3.72-9.31,185.46,185.46,0,0,1-6-19.55,149.08,149.08,0,0,1-4.5-41.32c.52-14.54,3.15-28.89,5.7-43.18l7.8-43.68,8.75-49.08c.34-1.88-2.55-2.7-2.89-.79Z"/><path class="cls-11" d="M1561.62,713.09a5.32,5.32,0,0,0-2.1-7.14,1.52,1.52,0,0,0-1.33-.07,1.39,1.39,0,0,0-.87,1c-.42,2.67-.67,5.56,1.1,7.82a4.51,4.51,0,0,0,5.76.8,3.62,3.62,0,0,0,1.25-1.33,3.44,3.44,0,0,0,.28-2.19,1.47,1.47,0,0,0-.69-.89,1.49,1.49,0,0,0-2.2,1.69s0-.41,0-.2v.1a.57.57,0,0,0,0,.13c0,.15,0-.29,0-.25s0,.21-.06.24l0,.08c0,.11.19-.33.07-.17a1,1,0,0,0-.1.18c-.06.13.14-.24.14-.19l-.07.09-.15.15c-.2.2.3-.2.06,0s-.28.22-.41.23.37-.13.21-.09a.56.56,0,0,0-.12,0l-.25.07-.23,0c-.24.05.4,0,.1,0a4.13,4.13,0,0,1-.5,0c-.36,0,.26.05.07,0l-.23,0-.23-.06c-.32-.11.25.13.05,0s-.26-.16-.4-.24c.38.22.19.15.08,0s-.15-.17-.23-.25.17.25.09.11l-.11-.16c-.06-.09-.11-.19-.17-.29s-.18-.39-.08-.16,0,0,0,0a2.09,2.09,0,0,1-.08-.23,4.77,4.77,0,0,1-.17-.65,3.43,3.43,0,0,0-.06-.34c.1.44,0,0,0-.15a10.47,10.47,0,0,1,0-1.68c0-.27,0-.55.08-.82s0,.07,0,.1a.59.59,0,0,1,0-.26l.06-.44-2.2.89a2.69,2.69,0,0,1,.29.16l.13.09c.18.1-.08,0-.1-.09a5,5,0,0,0,.46.46c.14.15-.07-.06-.08-.11s.07.1.09.14a2.75,2.75,0,0,1,.17.29s0,.1.08.14a.87.87,0,1,0,0-.13c0,.12.09.24.12.36a2,2,0,0,1,.09.33l0,.16c0,.18,0-.33,0-.15a3.78,3.78,0,0,1,0,.67c0,.06,0,.11,0,.17s.07-.32,0-.15,0,.22-.07.32-.08.21-.11.32.15-.26,0-.13a1.11,1.11,0,0,0-.09.19,1.5,1.5,0,1,0,2.59,1.51Z"/><path class="cls-11" d="M1470.44,772.8c-12.27,4-25,8.31-34.84,17-10.47,9.26-14.94,22.67-17.51,36a236.32,236.32,0,0,0,1.26,94c3.72,17.39,8.74,34.93,7,52.9-.19,1.92,2.81,1.91,3,0,1.52-15.61-2-31.06-5.43-46.19s-6-30.48-6.72-46.1a231.5,231.5,0,0,1,2.53-46.53c2.11-13.43,5-28,14.41-38.42,9.64-10.69,23.81-15.45,37.1-19.79,1.83-.6,1-3.49-.79-2.89Z"/><path class="cls-11" d="M1383.37,961.88c17,11.37,34.76,23.39,44.68,41.92a54.74,54.74,0,0,1,6.74,28.12,14.34,14.34,0,0,0,.88,6.72c1,2.1,2.91,3.12,4.88,4.13a30.14,30.14,0,0,1,10.25,8.62,29.78,29.78,0,0,1,5.59,12.13c.42,2.14.26,4.51-1.6,5.93a9.77,9.77,0,0,1-5.12,1.61,53.53,53.53,0,0,1-6.82-.09l-9-.38q-8.84-.39-17.68-.81-17.67-.84-35.35-1.8c-2.85-.15-5.74-.19-8.58-.5a5.81,5.81,0,0,1-5.28-3.79,74.71,74.71,0,0,1-2.41-7.75c-.76-2.66-1.49-5.33-2.17-8a266.44,266.44,0,0,1-8.12-67.06q0-4.15.19-8.31c.07-1.93-2.93-1.93-3,0a269.79,269.79,0,0,0,6.6,70.18q2,8.54,4.47,17c.73,2.41,1.32,5.13,2.78,7.23a8.46,8.46,0,0,0,6.14,3.47c2.84.38,5.77.4,8.64.55l9.21.49q9.21.49,18.42.94,18.54.9,37.09,1.69c4,.17,8.65.28,12-2.4,4-3.28,2.86-8.84,1.29-13.1a34.86,34.86,0,0,0-7.36-11.88,33.93,33.93,0,0,0-5.29-4.5,30.9,30.9,0,0,0-2.7-1.65,20.51,20.51,0,0,1-3.28-1.82c-1.87-1.51-1.75-4.23-1.68-6.4a59.3,59.3,0,0,0-.11-7.54,55.74,55.74,0,0,0-3.49-14.79c-7.85-20.43-25.12-34.32-42.69-46.26-2.19-1.49-4.4-3-6.6-4.43-1.61-1.08-3.11,1.52-1.51,2.59Z"/><path class="cls-11" d="M1497.81,976.76c-3.15,14.67-13,27.75-26.69,34.15-4.62,2.17-9.6,3.44-14.09,5.89-1.7.92-.18,3.51,1.51,2.59,4.17-2.27,8.77-3.53,13.1-5.43a47.47,47.47,0,0,0,9.84-5.9,52.66,52.66,0,0,0,19.22-30.5c.4-1.88-2.49-2.69-2.89-.8Z"/><path class="cls-11" d="M1499.31,945.7l25.1,18.11c3.91,2.82,7.91,5.55,11.7,8.54a36.13,36.13,0,0,1,8.9,9.51c4.24,7.09,4.81,15.61,4.17,23.67a137.28,137.28,0,0,1-4.33,24c-2.07,7.82-5.32,16.18-12.57,20.56a1.53,1.53,0,0,0-.69,1.69c.46,2,2,3,3.82,3.69,1.66.59,3.72.69,5.17,1.76,1.91,1.42.54,4-1.14,4.94-2.54,1.41-6.06,1.21-8.87,1.35a137,137,0,0,1-38.71-3.67,140.21,140.21,0,0,1-20.95-6.87c-1.78-.74-2.56,2.16-.8,2.9a141.38,141.38,0,0,0,40.55,10.15,137.87,137.87,0,0,0,20.82.44c3.13-.17,6.66-.13,9.47-1.71a6.67,6.67,0,0,0,3.49-6.59c-.4-2.65-2.69-4-5-4.7-1.54-.45-4.46-.59-4.9-2.49l-.69,1.7c6.72-4.06,10.46-11.18,12.8-18.44a136,136,0,0,0,5.18-24.87c1-8.49,1.06-17.44-2.34-25.43-3.72-8.72-11.43-14.05-18.86-19.41l-29.75-21.46c-1.57-1.13-3.07,1.47-1.52,2.59Z"/><path class="cls-11" d="M1358,934.12a238.93,238.93,0,0,1,6.32-44.61c.44-1.88-2.45-2.68-2.9-.8a244.87,244.87,0,0,0-6.42,45.41c-.09,1.93,2.91,1.93,3,0Z"/><path d="M1546.19,633.44c.14-5.93-7-9.83-12.14-7.43a6.38,6.38,0,0,0-1.67,1.15,4.36,4.36,0,0,0-.7.79,2.49,2.49,0,0,0-.35,1.51,8,8,0,0,0,1.14,4.08,10.54,10.54,0,0,0,6.52,4.71,8.39,8.39,0,0,0,8.48-2.39,1.55,1.55,0,0,0,0-2.13,1.52,1.52,0,0,0-2.12,0,4.1,4.1,0,0,1-1.56,1.29c-.06,0-.56.24-.27.13a4.56,4.56,0,0,1-.52.18l-.4.1c-.06,0-.61.11-.28.06a6.82,6.82,0,0,1-1.11.06l-.56,0-.28,0c.17,0,.16,0,0,0s-.65-.13-1-.22l-.55-.18s-.56-.23-.31-.12a9,9,0,0,1-1.87-1.1c.22.16-.21-.19-.25-.22s-.28-.26-.41-.4-.26-.27-.39-.42l-.18-.22c.09.12.09.11,0,0a5.65,5.65,0,0,1-.85-1.65,4.57,4.57,0,0,1-.2-2l-.44,1.06a6.94,6.94,0,0,1,.69-.74c.32-.29-.22.14.14-.11l.4-.25a4.23,4.23,0,0,1,.42-.22c-.23.11.07,0,.15-.05a5.93,5.93,0,0,1,.92-.24c.33-.06-.22,0,.15,0l.41,0a7.87,7.87,0,0,1,1,0c-.27,0,.08,0,.16,0l.42.09a8.68,8.68,0,0,1,1,.3c.43.15-.25-.13.17.06l.44.23a5.73,5.73,0,0,1,.79.48c.05,0,.35.26.15.1.15.12.29.25.43.38a6.72,6.72,0,0,1,.58.61c.16.2,0-.09.14.2.09.13.18.27.26.41s.13.24.19.37c.16.31,0-.14.07.15a5.21,5.21,0,0,1,.25,1c.08.44,0-.28,0,.17a5.81,5.81,0,0,1,0,.59c0,1.93,3,1.93,3,0Z"/><path class="cls-11" d="M1388.55,425.51c-5.29-12.41-13.29-23.89-24-32.25-10.93-8.56-24.63-13.52-38.6-12.76-14.14.77-26.56,7.75-35.81,18.28-9,10.2-15,22.84-18.52,35.92-7.19,27.09-3.63,56.35,5,82.68a228.14,228.14,0,0,0,19,42.36c7.14,12.44,15.55,24,24.32,35.37,17,22,35.63,43.44,47.19,69q2.14,4.76,3.91,9.64c.65,1.81,3.55,1,2.89-.79-9.34-25.82-26.34-47.56-43.15-68.89-8.46-10.73-16.94-21.48-24.51-32.87a230.8,230.8,0,0,1-21.53-40.58c-10.39-25.48-16.39-53.54-12.93-81.1a97,97,0,0,1,12.87-38.19c6.85-11.33,16.79-21.51,29.63-25.69,13.3-4.33,28.15-2.19,40.28,4.52,11.56,6.39,20.66,16.57,27.06,28A92.75,92.75,0,0,1,1386,427c.76,1.77,3.34.24,2.59-1.51Z"/><path class="cls-11" d="M1390.38,419.15c-9.65-15.61-19.49-31.56-33.13-44.06-12.81-11.73-28.62-19.4-45.22-24.14-17.08-4.89-34.85-6.88-52.5-8.27q-32.4-2.55-64.92-2.42c-20.36.08-41.28.06-61.3,4.22a108,108,0,0,0-44.19,20.35c-25.47,19.65-42.39,48.6-54.15,78.06a281,281,0,0,0-15.66,53c-3.57,19.39-4.31,39.66,1.39,58.73,5.35,17.92,15.85,33.65,26.47,48.84,10.47,15,21,30,32.74,44,11.54,13.71,24.42,26.46,39.4,36.39,16.37,10.85,35.06,17.33,52,27.14,30,17.36,50.37,46.15,65.83,76.47,7.95,15.57,14.75,31.68,21.27,47.89,7.41,18.41,15,36.86,20.44,56a192.15,192.15,0,0,1,6.38,30.68c1.17,10.11.9,20.22,1,30.37.18,16.88,2.74,35.19,17.34,45.9a24.43,24.43,0,0,0,19.05,4.73c1.9-.34,1.1-3.23-.8-2.89-8.61,1.55-16.53-3-22-9.4-6.09-7.09-8.84-16-9.89-25.12-1.09-9.62-.55-19.32-.73-29a162.75,162.75,0,0,0-3.11-28.27c-3.8-19.29-10.6-37.83-17.76-56.09-6.14-15.66-12.36-31.31-19.24-46.67-13.2-29.46-29.34-58.81-53.6-80.65-13-11.69-28-19.81-43.72-27.23-16.85-8-32.88-16.36-47-28.75-13.69-12-25.39-26.14-36.25-40.71s-21.54-29.2-31-44.56c-10.29-16.76-17.18-34.69-18-54.5s3.41-39.78,9.05-58.82c9.15-30.84,22.68-61.57,44.09-85.94,10-11.43,21.9-21.31,35.53-28.18,16.93-8.54,35.7-11.22,54.44-12.18,21-1.08,42.08-1.05,63.08-.31,19.42.69,39,1.77,58.23,4.49,17,2.4,34.07,6.37,49.48,14.16,16.31,8.24,29,20.79,39.55,35.57,5.24,7.35,10,15,14.74,22.69,1,1.64,3.61.14,2.59-1.51Z"/><path class="cls-11" d="M1395.79,748.59c-10-2.65-20.91-3.55-30.9-.42-9.81,3.07-17.19,10.06-22.37,18.76-5.32,8.92-8.83,19-12.15,28.84a70.56,70.56,0,0,0-3.92,17.62,48.85,48.85,0,0,0,1.88,16.57,76,76,0,0,0,15.77,28.46,70.68,70.68,0,0,0,23.46,18.14,49.05,49.05,0,0,0,27.93,4.48c2.31-.35,5-.7,5.67-3.38s.16-5.61-.18-8.19a92.09,92.09,0,0,0-4.07-16.42,124.08,124.08,0,0,1-4.5-16.49,64,64,0,0,1-.52-17c1.09-11.27,4.84-22.23,9.88-32.32,1.25-2.48,2.57-4.93,4-7.33a1.5,1.5,0,0,0-2.59-1.51c-10.75,18.51-17.82,40.52-13,62,2.37,10.62,7.34,20.74,8.13,31.69a35,35,0,0,1,.09,4c0,.44,0,1-.33,1.34a3.6,3.6,0,0,1-1.65.48,40.15,40.15,0,0,1-6.84.69,44.51,44.51,0,0,1-13.46-1.93c-18.69-5.57-33.65-21.32-41.61-38.72a56.16,56.16,0,0,1-4.69-15.61,46.13,46.13,0,0,1,.91-16.76,136.11,136.11,0,0,1,5.24-16.37c1.67-4.55,3.38-9.09,5.42-13.48,4-8.54,9.27-16.85,17.61-21.67,8.66-5,19.2-5.63,28.9-4.06a72.78,72.78,0,0,1,7.15,1.54,1.51,1.51,0,0,0,.8-2.9Z"/><path d="M1600.21,402.83c-2.89,23-11.5,44.64-18.88,66.42a276.16,276.16,0,0,0-9.38,33c-2.27,11.07-3.19,22.33-4.57,33.53-1.53,12.43-3.76,25-9.46,36.29-.87,1.72,1.71,3.24,2.59,1.52,10.38-20.51,9.57-44,13.49-66.16,4.06-22.93,13.08-44.53,20.2-66.6,4-12.42,7.37-25.06,9-38,.24-1.91-2.76-1.89-3,0Z"/><path d="M1461.92,381.34l-.68,51.37-.68,51.37-.39,28.93a1.5,1.5,0,0,0,3,0l.68-51.37.69-51.37.38-28.93c0-1.93-3-1.93-3,0Z"/><path class="cls-11" d="M1536,764.51A579.64,579.64,0,0,0,1597.09,775q15.29,1.78,30.65,2.74c4.69.3,9.43.32,14.11.79,3.11.32,6.71,1,9.05,3.25,1.56,1.51,1.77,3.34,2.43,5.31.78,2.36,2.43,3.56,4.56,4.64a8.66,8.66,0,0,1,4.79,10.09l1.45-1.1q-27.09-1.41-54.19-2.31t-54.47-1.3q-15.3-.23-30.6-.29a1.5,1.5,0,0,0,0,3q27.12.12,54.23.72t54.46,1.75q15.29.63,30.57,1.43a1.5,1.5,0,0,0,1.44-1.1,11.84,11.84,0,0,0-2.52-10.81c-1.33-1.53-3-2.29-4.78-3.26a4.05,4.05,0,0,1-1.92-1.87c-.48-1.11-.58-2.35-1-3.48-2.87-7.5-12.35-7.67-19.07-8a566.46,566.46,0,0,1-63.94-6.67q-17.86-2.89-35.51-6.91c-1.88-.43-2.68,2.46-.8,2.89Z"/><path class="cls-11" d="M634,708.21l79.92,9.07,20.05,2.28a71.82,71.82,0,0,1,9,1.19,8.3,8.3,0,0,1,5.7,4.39,34.18,34.18,0,0,1,2.28,7,37.92,37.92,0,0,0,2.58,7A35.28,35.28,0,0,0,762.94,751a36.78,36.78,0,0,0,13.48,6.66c4.89,1.36,10.59,2.84,12.58,8.12a5.77,5.77,0,0,1-.94,6.17c-1.59,1.66-4,2.26-6.18,2.62-3,.48-6,.6-9,.86l-9.91.86c-13.14,1.15-26.29,2.56-39.46,3.38-6.3.4-12.73.44-18.91-1-5.73-1.35-10.93-4.08-15.9-7.16S679,765,674,762.18a100.35,100.35,0,0,0-50.33-12.67c-2.89,0-5.77.24-8.65.55-1.9.21-1.92,3.21,0,3a97,97,0,0,1,52.82,9.28,147,147,0,0,1,15.38,9.12c5.06,3.29,10.22,6.51,15.91,8.61a51.88,51.88,0,0,0,18.58,2.79c6.63-.06,13.24-.8,19.84-1.38l20.55-1.79,20.56-1.8c4.6-.4,10.23-1,12.79-5.49s.18-10.11-3.54-13.14c-4.48-3.65-10.47-4-15.64-6.16a31.5,31.5,0,0,1-11.9-8.91,35,35,0,0,1-6.79-13.91c-1.31-5-3-10-8.25-11.95-2.8-1.05-5.94-1.16-8.88-1.49L726,715.66l-82.15-9.33-9.9-1.12c-1.91-.22-1.9,2.78,0,3Z"/><path class="cls-11" d="M558,638.27c.19,6.93.53,14.76,5.58,20.1,4.39,4.65,11.2,6.13,16.47,2.06,2.78-2.16,4.77-5.14,7.55-7.3,1.53-1.18-.61-3.29-2.12-2.12-2.69,2.08-4.58,5-7.28,7.08a8.23,8.23,0,0,1-9.2.69c-7.4-3.94-7.8-13.13-8-20.51,0-1.93-3-1.94-3,0Z"/><path class="cls-11" d="M473.75,466.18c1.91-9,7-16.76,13.05-23.57a157,157,0,0,1,20.45-19.23,86.88,86.88,0,0,1,25.22-14.24c9.55-3.28,19.61-4.68,29.66-5.35,10.55-.71,21.16-.83,31.73-.93,10.82-.1,21.71-.24,32.53.31,9.28.48,18.05,2.51,25.69,8a52.09,52.09,0,0,1,15.51,18.59c9.07,17.63,8.38,38.25,5.91,57.39-.34,2.61-.72,5.22-1.11,7.83a1.53,1.53,0,0,0,1.44,1.9,162,162,0,0,1,42.83,8.27c12.61,4.26,25.71,9.83,35.66,18.9,19.53,17.79,18.73,47,7.68,69.21-6,12-14.51,22.58-23.7,32.32a320.81,320.81,0,0,1-28.52,26.91c-19.71,16.37-42.6,30.15-68.3,34-15.17,2.28-30.64.74-45.69-1.67-12.82-2.06-26-4.73-37.35-11.29a53.12,53.12,0,0,1-7.86-5.52c-1.47-1.24-3.6.87-2.13,2.12,10.32,8.76,23.32,13.08,36.39,15.76,14.92,3.05,30.44,5.21,45.7,4.61,27.43-1.1,52.4-13.47,73.87-29.92a302.73,302.73,0,0,0,30.12-26.82c9.76-9.79,19.11-20.21,26.26-32.1,6.81-11.31,11.36-23.91,12-37.17.61-12.52-2.35-25.5-10-35.61-8.21-10.84-20.44-17.5-32.76-22.64a164.18,164.18,0,0,0-42.94-11.36q-5.61-.7-11.26-1l1.45,1.89c3.06-20.27,5.37-42.11-2.44-61.65-6.38-16-19.12-29.63-36.54-32.85A95.65,95.65,0,0,0,620.63,400q-8.71-.17-17.43-.17c-11.19,0-22.4.13-33.58.58-10.43.41-20.93,1.26-31.08,3.82a83.93,83.93,0,0,0-27.24,12.47A153.31,153.31,0,0,0,489,435.88c-6.56,6.69-12.65,14.11-16.14,22.89a40.26,40.26,0,0,0-2,6.61c-.4,1.88,2.5,2.69,2.9.8Z"/><path class="cls-11" d="M1458.52,722.9l-.13,0,.36.15a.72.72,0,0,1-.19-.11l.3.23a.54.54,0,0,1-.15-.15l.23.3a1.23,1.23,0,0,1-.14-.25l.15.36a1.16,1.16,0,0,1-.08-.32l.05.4a1.15,1.15,0,0,1,0-.37l-.05.4a1.06,1.06,0,0,1,.09-.36l-.15.35a1.35,1.35,0,0,1,.15-.26l-.24.31a1.14,1.14,0,0,1,.19-.19l-.31.23a1.06,1.06,0,0,1,.2-.12l-.35.15a1.29,1.29,0,0,1,.28-.08l-.4.06a1,1,0,0,1,.34,0l-.4-.06a1.89,1.89,0,0,1,.34.09l-.36-.15a2.14,2.14,0,0,1,.38.23l-.31-.24a1.87,1.87,0,0,1,.31.32l-.23-.3a1.45,1.45,0,0,1,.2.34l-.15-.36a1.9,1.9,0,0,1,.11.39l-.06-.4a1.09,1.09,0,0,1,0,.36l.06-.39a1.71,1.71,0,0,1-.13.44l.16-.35a3.26,3.26,0,0,1-.24.4l.23-.3a2.16,2.16,0,0,1-.4.4l.3-.24a2.48,2.48,0,0,1-.49.3l.36-.15a2.67,2.67,0,0,1-.6.16l.39-.05h0l1.29,2.26a3.42,3.42,0,0,1,.26-.4l-.24.3a2.68,2.68,0,0,1,.45-.44l-.31.23a2.77,2.77,0,0,1,.55-.33,1.45,1.45,0,0,0,.68-.89,1.52,1.52,0,0,0-.15-1.16,1.5,1.5,0,0,0-.89-.69l-.4,0a1.57,1.57,0,0,0-.76.2,4.09,4.09,0,0,0-1,.72,3.73,3.73,0,0,0-.76,1,1.53,1.53,0,0,0,0,1.51,1.47,1.47,0,0,0,1.3.74,3.75,3.75,0,0,0,3-1.76,3,3,0,0,0,0-3.27,3.31,3.31,0,0,0-1.26-1.12,3.1,3.1,0,0,0-1.13-.3,2.52,2.52,0,0,0-.82.09,2.49,2.49,0,0,0-1.46,1.08,2.82,2.82,0,0,0-.44,1.41,2.57,2.57,0,0,0,1.82,2.64,1.59,1.59,0,0,0,1.15-.16,1.5,1.5,0,0,0,.54-2,1.56,1.56,0,0,0-.9-.69Z"/><path class="cls-11" d="M1486.72,714.76l-1.15-1.79-1.69,2.2.11,0-.36-.15a2.18,2.18,0,0,1,.42.24l-.31-.23a2.19,2.19,0,0,1,.34.34l-.23-.3a1.79,1.79,0,0,1,.22.38l-.15-.36a1.48,1.48,0,0,1,.12.41l-.06-.39a1.27,1.27,0,0,1,0,.39l.06-.4a1.58,1.58,0,0,1-.09.31l.15-.36a1.56,1.56,0,0,1-.16.28l.23-.31a1.72,1.72,0,0,1-.27.27l.3-.23a1.35,1.35,0,0,1-.33.19l.36-.15a1.31,1.31,0,0,1-.34.09l.4-.05a1.6,1.6,0,0,1-.31,0l.4.05a1.1,1.1,0,0,1-.26-.06l.36.15a1.71,1.71,0,0,1-.23-.13l.31.23a.69.69,0,0,1-.17-.17l.24.31a.88.88,0,0,1-.12-.21l.15.36a1.68,1.68,0,0,1-.09-.32l0,.4a1.82,1.82,0,0,1,0-.33l0,.4a1.09,1.09,0,0,1,.08-.31l-.15.35a1.59,1.59,0,0,1,.13-.22l-.23.3a.81.81,0,0,1,.16-.16l-.31.24.18-.1-.36.15.09,0a1.57,1.57,0,0,0,.89-.69,1.49,1.49,0,0,0,.15-1.15,1.46,1.46,0,0,0-.69-.9,1.49,1.49,0,0,0-1.15-.15,2.43,2.43,0,0,0-1.35,1,2.61,2.61,0,0,0-.39,1.33,2.52,2.52,0,0,0,1.28,2.34,3,3,0,0,0,.67.25,3.24,3.24,0,0,0,1.12,0,3,3,0,0,0,1.33-.67,2.78,2.78,0,0,0,.82-1.21,2.83,2.83,0,0,0,.08-1.58,3.29,3.29,0,0,0-.79-1.47,3.43,3.43,0,0,0-1.45-.92l-.4-.06-.4.06a1.46,1.46,0,0,0-.78.53,1.45,1.45,0,0,0-.3.71,1.46,1.46,0,0,0,.18,1l1.15,1.79a1.5,1.5,0,0,0,.89.69,1.5,1.5,0,0,0,1.85-1.05,1.54,1.54,0,0,0-.15-1.15Z"/><path class="cls-11" d="M1458.52,589a8.59,8.59,0,0,1-2.39-6.26,8.44,8.44,0,0,1,.72-3.24,6.47,6.47,0,0,1,.86-1.43.72.72,0,0,1,1.06-.23c2,1,3.15,3.8,3.4,5.88a8.87,8.87,0,0,1-.67,4.71c-.17.37-.51,1.26-.94,1.4s-1-.43-1.25-.61a7.15,7.15,0,0,1-1.53-1.48,7.93,7.93,0,0,1-1.6-3.89,1.51,1.51,0,0,0-1.85-1.05,1.55,1.55,0,0,0-1,1.84,10.64,10.64,0,0,0,2.23,5.05,8.26,8.26,0,0,0,4.32,3.08c4,.79,5.42-5.07,5.4-8a11.73,11.73,0,0,0-4-8.91c-1.72-1.37-4-1.71-5.6.07a9.94,9.94,0,0,0-2.19,4.5,11.81,11.81,0,0,0,3,10.68c1.36,1.37,3.48-.75,2.12-2.13Z"/><path class="cls-11" d="M1598.64,649.9a13.17,13.17,0,0,1,0-5.76c.36-1.56,1-3.74,2.38-4.65a1.78,1.78,0,0,1,.82-.31,1.16,1.16,0,0,1,.68.12c.47.27.72,1.24.92,1.93a16.45,16.45,0,0,1,.71,6.19,4.6,4.6,0,0,1-.19.94,2.1,2.1,0,0,1-.15.3s-.15.21-.06.11c-.15.17-.37.23-.07.14l-.26.07c.24-.05,0,0,0,0s-.24-.07,0,0l-.2-.06s0,0,0,0a1.86,1.86,0,0,1,.1.2c-.12-.24,0,.2,0-.09a1.5,1.5,0,0,0-1.5-1.5,1.54,1.54,0,0,0-1.5,1.5,2.8,2.8,0,0,0,2.15,2.8,3.32,3.32,0,0,0,3.39-.92,6,6,0,0,0,1.31-3.82,20.61,20.61,0,0,0-.31-4.36,16.56,16.56,0,0,0-1.24-4.19,3.93,3.93,0,0,0-3.3-2.32c-3-.27-4.88,2.44-5.88,4.9a16.4,16.4,0,0,0-.73,9.6,1.52,1.52,0,0,0,1.84,1,1.53,1.53,0,0,0,1.05-1.85Z"/><path class="cls-11" d="M1613.21,621.38c11-22.25,15.25-46.83,20-70.94a348.57,348.57,0,0,1,8.67-36.07,197.57,197.57,0,0,1,15-34.48c6.72-12.53,13.84-24.94,18.5-38.44.63-1.83-2.27-2.62-2.89-.8-4.14,12-10.28,23.09-16.3,34.19s-11.62,22.13-15.69,34c-8,23.34-11,47.94-16.64,71.87-3.17,13.44-7.19,26.73-13.31,39.14-.85,1.73,1.74,3.25,2.59,1.52Z"/><path class="cls-11" d="M1438.58,699.63a103.63,103.63,0,0,0,20-.47,1.54,1.54,0,0,0,1.5-1.5,1.52,1.52,0,0,0-1.5-1.5,103.63,103.63,0,0,1-20,.47c-1.92-.14-1.91,2.86,0,3Z"/><path class="cls-11" d="M1475.89,686.75l15-2.71a1.52,1.52,0,0,0,1-1.85,1.54,1.54,0,0,0-1.85-1.05l-15,2.71a1.5,1.5,0,0,0,.79,2.9Z"/></svg>