<svg id="Layer_1" data-name="Layer 1" xmlns="http://www.w3.org/2000/svg" viewBox="0 0 1920 1080"><defs><style>.cls-1{fill:#e03838;}.cls-1,.cls-2{opacity:0.5;}.cls-2{fill:#ffff1a;}.cls-3{fill:#4d4d4d;}</style></defs><title>30</title><path class="cls-1" d="M1084,264c62,16,528.94,267.14,553.47,298.07S1967,880,1852,870s-483-47-589-26-102,59-160-64S923,275,968,312s126,139,120,112-76-288-65-259S1084,264,1084,264Z"/><path class="cls-2" d="M711.71,360.65c75.35,42.23,340.67,221.67,274.93,388.48s-96.72,286.44-243.73,300.76-286.5,6.53-373.07-131.61S246.74,703.52,269.52,623.09s93.54-311.25,200.17-300.53S711.71,360.65,711.71,360.65Z"/><path d="M356.9,107a2.61,2.61,0,0,1-.78-1.92v-37a2.71,2.71,0,0,1,.78-2,2.56,2.56,0,0,1,1.92-.81,2.77,2.77,0,0,1,2.76,2.76v16h22.74v-16a2.71,2.71,0,0,1,.78-2,2.56,2.56,0,0,1,1.92-.81,2.77,2.77,0,0,1,2.76,2.76v37A2.56,2.56,0,0,1,389,107a2.71,2.71,0,0,1-2,.78,2.66,2.66,0,0,1-2.7-2.7v-16H361.58v16a2.56,2.56,0,0,1-.81,1.92,2.71,2.71,0,0,1-1.95.78A2.61,2.61,0,0,1,356.9,107Z"/><path d="M401.75,103.94q-4.11-4.17-4.11-11.73a19.56,19.56,0,0,1,1.56-7.86,13.36,13.36,0,0,1,4.8-5.82,13.79,13.79,0,0,1,8-2.22,14,14,0,0,1,7.68,2.07,13.39,13.39,0,0,1,4.92,5.52,17,17,0,0,1,1.68,7.53,2.62,2.62,0,0,1-2.76,2.7H403.16a9.87,9.87,0,0,0,3.12,6.54q2.64,2.34,7.38,2.34a18,18,0,0,0,4.41-.48,18.32,18.32,0,0,0,3.69-1.38,2.38,2.38,0,0,1,1.08-.24,2.41,2.41,0,0,1,1.68.66,2.18,2.18,0,0,1,.72,1.68,2.59,2.59,0,0,1-1.56,2.22,18.74,18.74,0,0,1-10.5,2.64Q405.86,108.11,401.75,103.94Zm19.11-14.25a9.61,9.61,0,0,0-1.53-4.92A8.26,8.26,0,0,0,416,81.86a9.15,9.15,0,0,0-8,0,8.06,8.06,0,0,0-3.3,2.91,9.79,9.79,0,0,0-1.5,4.92Z"/><path d="M438.17,120.83a2.59,2.59,0,0,1-.75-1.86,2.72,2.72,0,0,1,.18-1l3.9-10L430.22,80.51a3.07,3.07,0,0,1-.24-1.14,2.71,2.71,0,0,1,.78-2,2.56,2.56,0,0,1,1.92-.81,2.62,2.62,0,0,1,1.53.48,2.72,2.72,0,0,1,1,1.2l9.24,22.92,9.42-22.8a2.62,2.62,0,0,1,2.52-1.8,2.56,2.56,0,0,1,1.92.81,2.71,2.71,0,0,1,.78,2,2.88,2.88,0,0,1-.18,1l-16.38,39.36a2.7,2.7,0,0,1-2.52,1.86A2.44,2.44,0,0,1,438.17,120.83Z"/><path d="M462.53,116a1.78,1.78,0,0,1-.51-1.26,1.67,1.67,0,0,1,.9-1.5,6.85,6.85,0,0,0,2.28-2.1,6.41,6.41,0,0,0,.78-3.48h-.24a3.38,3.38,0,0,1-3.36-3.36V104a3.38,3.38,0,0,1,3.36-3.36h.6A3.38,3.38,0,0,1,469.7,104v3.54a9.65,9.65,0,0,1-4.92,8.76,1.89,1.89,0,0,1-1,.3A1.63,1.63,0,0,1,462.53,116Z"/><path d="M495,107a2.61,2.61,0,0,1-.78-1.92V66.17a2.71,2.71,0,0,1,.78-2,2.56,2.56,0,0,1,1.92-.81,2.67,2.67,0,0,1,2.76,2.76v38.94a2.56,2.56,0,0,1-.81,1.92,2.71,2.71,0,0,1-1.95.78A2.61,2.61,0,0,1,495,107Z"/><path d="M514.52,106.13a13.46,13.46,0,0,1-5.37-5.61,19.21,19.21,0,0,1,0-16.62,13.46,13.46,0,0,1,5.37-5.61,17.44,17.44,0,0,1,16.14,0,13.71,13.71,0,0,1,5.4,5.61,18.94,18.94,0,0,1,0,16.62,13.71,13.71,0,0,1-5.4,5.61,17.44,17.44,0,0,1-16.14,0ZM527.33,102a9.22,9.22,0,0,0,3.72-3.6,12,12,0,0,0,1.47-6.24A11.88,11.88,0,0,0,531.05,86a9,9,0,0,0-3.72-3.57,10.52,10.52,0,0,0-4.71-1.11,10.64,10.64,0,0,0-4.77,1.11A8.78,8.78,0,0,0,514.16,86a12.08,12.08,0,0,0-1.44,6.18,12.21,12.21,0,0,0,1.44,6.24,9,9,0,0,0,3.69,3.6,10.41,10.41,0,0,0,4.77,1.14A10.29,10.29,0,0,0,527.33,102Z"/><path d="M551,106.13a13.46,13.46,0,0,1-5.37-5.61,19.21,19.21,0,0,1,0-16.62A13.46,13.46,0,0,1,551,78.29a17.44,17.44,0,0,1,16.14,0,13.65,13.65,0,0,1,5.4,5.61,18.94,18.94,0,0,1,0,16.62,13.65,13.65,0,0,1-5.4,5.61,17.44,17.44,0,0,1-16.14,0ZM563.8,102a9.16,9.16,0,0,0,3.72-3.6A12,12,0,0,0,569,92.15,11.88,11.88,0,0,0,567.52,86a9,9,0,0,0-3.72-3.57,10.52,10.52,0,0,0-4.71-1.11,10.64,10.64,0,0,0-4.77,1.11A8.78,8.78,0,0,0,550.63,86a12.08,12.08,0,0,0-1.44,6.18,12.21,12.21,0,0,0,1.44,6.24,9,9,0,0,0,3.69,3.6,10.41,10.41,0,0,0,4.77,1.14A10.29,10.29,0,0,0,563.8,102Z"/><path d="M582.85,107a2.61,2.61,0,0,1-.78-1.92V66.17a2.71,2.71,0,0,1,.78-2,2.56,2.56,0,0,1,1.92-.81,2.77,2.77,0,0,1,2.76,2.76V90.71l14.28-13.2a2.76,2.76,0,0,1,1.8-.78,2.43,2.43,0,0,1,2,.78,2.87,2.87,0,0,1,.63,1.86,2.94,2.94,0,0,1-1,2l-8.64,7.74,10.86,14.4a2.63,2.63,0,0,1,.6,1.62,2.49,2.49,0,0,1-.78,1.92,2.81,2.81,0,0,1-2,.72,2.66,2.66,0,0,1-1.2-.3,3,3,0,0,1-1-.84l-10.32-14-5.22,4.74v7.74a2.56,2.56,0,0,1-.81,1.92,2.71,2.71,0,0,1-2,.78A2.61,2.61,0,0,1,582.85,107Z"/><path d="M615.16,106.7a3.23,3.23,0,0,1-1-2.37V104a3.38,3.38,0,0,1,3.36-3.36h.6a3.38,3.38,0,0,1,3.36,3.36v.36a3.38,3.38,0,0,1-3.36,3.36h-.6A3.23,3.23,0,0,1,615.16,106.7Z"/><path d="M1245.9,278.73a2.61,2.61,0,0,1-.78-1.92V240.39a2.71,2.71,0,0,1,.78-1.95,2.56,2.56,0,0,1,1.92-.81h12.06a21.22,21.22,0,0,1,11.61,3,19.51,19.51,0,0,1,7.17,7.83,22.37,22.37,0,0,1,0,20.16,19.51,19.51,0,0,1-7.17,7.83,21.22,21.22,0,0,1-11.61,3h-12.06A2.61,2.61,0,0,1,1245.9,278.73Zm13.32-4.32a17.9,17.9,0,0,0,8.64-2,14.33,14.33,0,0,0,5.76-5.58,17.7,17.7,0,0,0,0-16.5,14.33,14.33,0,0,0-5.76-5.58,17.9,17.9,0,0,0-8.64-2h-8.64v31.68Z"/><path d="M1293.36,278.13a13.46,13.46,0,0,1-5.37-5.61,19.21,19.21,0,0,1,0-16.62,13.46,13.46,0,0,1,5.37-5.61,17.44,17.44,0,0,1,16.14,0,13.65,13.65,0,0,1,5.4,5.61,18.94,18.94,0,0,1,0,16.62,13.65,13.65,0,0,1-5.4,5.61,17.44,17.44,0,0,1-16.14,0Zm12.81-4.14a9.16,9.16,0,0,0,3.72-3.6,12,12,0,0,0,1.47-6.24,11.88,11.88,0,0,0-1.47-6.18,9,9,0,0,0-3.72-3.57,10.52,10.52,0,0,0-4.71-1.11,10.64,10.64,0,0,0-4.77,1.11A8.78,8.78,0,0,0,1293,258a12.08,12.08,0,0,0-1.44,6.18,12.21,12.21,0,0,0,1.44,6.24,9,9,0,0,0,3.69,3.6,10.41,10.41,0,0,0,4.77,1.14A10.29,10.29,0,0,0,1306.17,274Z"/><path d="M1331,279.09a3.66,3.66,0,0,1-1.32-1.8l-8.52-25a3.23,3.23,0,0,1-.18-1,2.66,2.66,0,0,1,2.7-2.7,2.74,2.74,0,0,1,1.53.45,2.21,2.21,0,0,1,.93,1.17l7,23.1,7-22.56a3.08,3.08,0,0,1,5.88,0l7,22.56,7-23.1a2.21,2.21,0,0,1,.93-1.17,2.74,2.74,0,0,1,1.53-.45,2.66,2.66,0,0,1,2.7,2.7,3.23,3.23,0,0,1-.18,1l-8.52,25a3.66,3.66,0,0,1-1.32,1.8,3.6,3.6,0,0,1-4.32,0,4,4,0,0,1-1.38-1.86L1343,257.37l-6.36,19.86a4,4,0,0,1-1.38,1.86,3.6,3.6,0,0,1-4.32,0Z"/><path d="M1372.32,279a2.61,2.61,0,0,1-.78-1.92V251.37a2.71,2.71,0,0,1,.78-2,2.56,2.56,0,0,1,1.92-.81,2.77,2.77,0,0,1,2.76,2.76v2.46a19.94,19.94,0,0,1,4.92-4,12.42,12.42,0,0,1,6.24-1.5,10.37,10.37,0,0,1,5.73,1.56,10.14,10.14,0,0,1,3.72,4.26,13.6,13.6,0,0,1,1.29,5.94v17a2.56,2.56,0,0,1-.81,1.92,2.71,2.71,0,0,1-1.95.78,2.66,2.66,0,0,1-2.7-2.7V260.67q0-7.32-6.6-7.32a9.55,9.55,0,0,0-5.37,1.56,19.44,19.44,0,0,0-4.47,4.2v18a2.56,2.56,0,0,1-.81,1.92,2.71,2.71,0,0,1-2,.78A2.61,2.61,0,0,1,1372.32,279Z"/><path d="M1429.14,275.55v1.56a2.56,2.56,0,0,1-.81,1.92,2.73,2.73,0,0,1-1.95.78,2.66,2.66,0,0,1-2.7-2.7V238.17a2.67,2.67,0,0,1,.78-1.95,2.53,2.53,0,0,1,1.92-.81,2.68,2.68,0,0,1,2.76,2.76v14.7a13.76,13.76,0,0,1,10.26-4.56,14,14,0,0,1,7,1.89,14.36,14.36,0,0,1,5.41,5.52,18.45,18.45,0,0,1,0,17,14.36,14.36,0,0,1-5.41,5.52,14,14,0,0,1-7,1.89A13.76,13.76,0,0,1,1429.14,275.55Zm16.61-3.36q2.71-2.82,2.71-8t-2.71-8a9.41,9.41,0,0,0-7.13-2.82,11.27,11.27,0,0,0-5.19,1.23,14.69,14.69,0,0,0-4.29,3.27v12.6a14.69,14.69,0,0,0,4.29,3.27,11.27,11.27,0,0,0,5.19,1.23A9.41,9.41,0,0,0,1445.75,272.19Z"/><path d="M1466.13,292.83a2.59,2.59,0,0,1-.75-1.86,2.72,2.72,0,0,1,.18-1l3.9-10-11.28-27.48a3.07,3.07,0,0,1-.24-1.14,2.71,2.71,0,0,1,.78-2,2.56,2.56,0,0,1,1.92-.81,2.62,2.62,0,0,1,1.53.48,2.72,2.72,0,0,1,1,1.2l9.24,22.92,9.42-22.8a2.62,2.62,0,0,1,2.52-1.8,2.56,2.56,0,0,1,1.92.81,2.71,2.71,0,0,1,.78,2,2.88,2.88,0,0,1-.18,1l-16.38,39.36a2.7,2.7,0,0,1-2.52,1.86A2.44,2.44,0,0,1,1466.13,292.83Z"/><path d="M1510.73,272.19v-18.6h-4.26a1.14,1.14,0,0,1-1.14-1.14,1.24,1.24,0,0,1,.55-1l8.15-8a1.53,1.53,0,0,1,1-.54,1.06,1.06,0,0,1,.81.36,1.2,1.2,0,0,1,.33.84v4.8H1523a2.26,2.26,0,0,1,2.34,2.34,2.3,2.3,0,0,1-.66,1.65,2.22,2.22,0,0,1-1.68.69h-6.78v18.12q0,2.34,1.11,3a5.59,5.59,0,0,0,2.79.63,8.32,8.32,0,0,0,2.4-.36l.51-.12a3.34,3.34,0,0,1,.69-.06,2.11,2.11,0,0,1,1.5.63,2,2,0,0,1,.66,1.53,2.27,2.27,0,0,1-1.38,2.1,11.71,11.71,0,0,1-5,1.08Q1510.73,280.11,1510.73,272.19Z"/><path d="M1532.63,279a2.61,2.61,0,0,1-.78-1.92V238.17a2.71,2.71,0,0,1,.78-1.95,2.56,2.56,0,0,1,1.92-.81,2.77,2.77,0,0,1,2.76,2.76v15.66a19.94,19.94,0,0,1,4.92-4,12.42,12.42,0,0,1,6.24-1.5,10.37,10.37,0,0,1,5.73,1.56,10.14,10.14,0,0,1,3.72,4.26,13.6,13.6,0,0,1,1.29,5.94v17a2.56,2.56,0,0,1-.81,1.92,2.71,2.71,0,0,1-2,.78,2.66,2.66,0,0,1-2.7-2.7V260.67q0-7.32-6.6-7.32a9.55,9.55,0,0,0-5.37,1.56,19.44,19.44,0,0,0-4.47,4.2v18a2.56,2.56,0,0,1-.81,1.92,2.71,2.71,0,0,1-2,.78A2.61,2.61,0,0,1,1532.63,279Z"/><path d="M1570.64,275.94q-4.11-4.17-4.11-11.73a19.56,19.56,0,0,1,1.56-7.86,13.36,13.36,0,0,1,4.8-5.82,13.79,13.79,0,0,1,8-2.22,14,14,0,0,1,7.68,2.07,13.39,13.39,0,0,1,4.92,5.52,17,17,0,0,1,1.68,7.53,2.62,2.62,0,0,1-2.76,2.7h-20.34a9.87,9.87,0,0,0,3.12,6.54q2.64,2.34,7.38,2.34a18,18,0,0,0,4.41-.48,18.32,18.32,0,0,0,3.69-1.38,2.38,2.38,0,0,1,1.08-.24,2.41,2.41,0,0,1,1.68.66,2.18,2.18,0,0,1,.72,1.68,2.59,2.59,0,0,1-1.56,2.22,18.74,18.74,0,0,1-10.5,2.64Q1574.75,280.11,1570.64,275.94Zm19.11-14.25a9.61,9.61,0,0,0-1.53-4.92,8.26,8.26,0,0,0-3.33-2.91,9.15,9.15,0,0,0-8,0,8.06,8.06,0,0,0-3.3,2.91,9.79,9.79,0,0,0-1.5,4.92Z"/><path d="M1623.41,275.55v1.56a2.56,2.56,0,0,1-.81,1.92,2.71,2.71,0,0,1-1.95.78,2.66,2.66,0,0,1-2.7-2.7V238.17a2.71,2.71,0,0,1,.78-1.95,2.56,2.56,0,0,1,1.92-.81,2.67,2.67,0,0,1,2.76,2.76v14.7a13.79,13.79,0,0,1,10.26-4.56,14.07,14.07,0,0,1,7,1.89,14.34,14.34,0,0,1,5.4,5.52,18.45,18.45,0,0,1,0,17,14.34,14.34,0,0,1-5.4,5.52,14.07,14.07,0,0,1-7,1.89A13.79,13.79,0,0,1,1623.41,275.55Zm16.62-3.36q2.7-2.82,2.7-8t-2.7-8a9.43,9.43,0,0,0-7.14-2.82,11.33,11.33,0,0,0-5.19,1.23,14.82,14.82,0,0,0-4.29,3.27v12.6a14.82,14.82,0,0,0,4.29,3.27,11.33,11.33,0,0,0,5.19,1.23A9.43,9.43,0,0,0,1640,272.19Z"/><path d="M1656.59,279a2.61,2.61,0,0,1-.78-1.92V251.37a2.71,2.71,0,0,1,.78-2,2.56,2.56,0,0,1,1.92-.81,2.77,2.77,0,0,1,2.76,2.76V254q4.2-5.64,9.42-5.64h.3a2.51,2.51,0,0,1,1.89.78,2.66,2.66,0,0,1,.75,1.92,2.42,2.42,0,0,1-.78,1.86,2.81,2.81,0,0,1-2,.72h-.3a10.23,10.23,0,0,0-5.28,1.41,12.16,12.16,0,0,0-4,3.87v18.24a2.56,2.56,0,0,1-.81,1.92,2.71,2.71,0,0,1-2,.78A2.61,2.61,0,0,1,1656.59,279Z"/><path d="M1683.29,278.13a13.46,13.46,0,0,1-5.37-5.61,19.21,19.21,0,0,1,0-16.62,13.46,13.46,0,0,1,5.37-5.61,17.44,17.44,0,0,1,16.14,0,13.65,13.65,0,0,1,5.4,5.61,18.94,18.94,0,0,1,0,16.62,13.65,13.65,0,0,1-5.4,5.61,17.44,17.44,0,0,1-16.14,0ZM1696.1,274a9.16,9.16,0,0,0,3.72-3.6,12,12,0,0,0,1.47-6.24,11.88,11.88,0,0,0-1.47-6.18,9,9,0,0,0-3.72-3.57,10.52,10.52,0,0,0-4.71-1.11,10.64,10.64,0,0,0-4.77,1.11,8.78,8.78,0,0,0-3.69,3.57,12.08,12.08,0,0,0-1.44,6.18,12.21,12.21,0,0,0,1.44,6.24,9,9,0,0,0,3.69,3.6,10.41,10.41,0,0,0,4.77,1.14A10.29,10.29,0,0,0,1696.1,274Z"/><path d="M1719.77,278.13a13.46,13.46,0,0,1-5.37-5.61,19.21,19.21,0,0,1,0-16.62,13.46,13.46,0,0,1,5.37-5.61,17.44,17.44,0,0,1,16.14,0,13.65,13.65,0,0,1,5.4,5.61,18.94,18.94,0,0,1,0,16.62,13.65,13.65,0,0,1-5.4,5.61,17.44,17.44,0,0,1-16.14,0Zm12.81-4.14a9.16,9.16,0,0,0,3.72-3.6,12,12,0,0,0,1.47-6.24,11.88,11.88,0,0,0-1.47-6.18,9,9,0,0,0-3.72-3.57,10.52,10.52,0,0,0-4.71-1.11,10.64,10.64,0,0,0-4.77,1.11,8.78,8.78,0,0,0-3.69,3.57,12.08,12.08,0,0,0-1.44,6.18,12.21,12.21,0,0,0,1.44,6.24,9,9,0,0,0,3.69,3.6,10.41,10.41,0,0,0,4.77,1.14A10.29,10.29,0,0,0,1732.58,274Z"/><path d="M1751.63,279a2.61,2.61,0,0,1-.78-1.92V238.17a2.71,2.71,0,0,1,.78-1.95,2.56,2.56,0,0,1,1.92-.81,2.77,2.77,0,0,1,2.76,2.76v24.54l14.28-13.2a2.76,2.76,0,0,1,1.8-.78,2.43,2.43,0,0,1,2,.78,2.87,2.87,0,0,1,.63,1.86,2.94,2.94,0,0,1-1,2l-8.64,7.74,10.86,14.4a2.63,2.63,0,0,1,.6,1.62,2.49,2.49,0,0,1-.78,1.92,2.81,2.81,0,0,1-2,.72,2.66,2.66,0,0,1-1.2-.3,3,3,0,0,1-1-.84l-10.32-14-5.22,4.74v7.74a2.56,2.56,0,0,1-.81,1.92,2.71,2.71,0,0,1-2,.78A2.61,2.61,0,0,1,1751.63,279Z"/><path d="M1784.78,278.7a3.47,3.47,0,0,1-1-2.55,3.59,3.59,0,0,1,3.54-3.54,3.47,3.47,0,0,1,2.55,1.05,3.4,3.4,0,0,1,1,2.49,3.59,3.59,0,0,1-3.6,3.6A3.4,3.4,0,0,1,1784.78,278.7Zm1-11.25a1.8,1.8,0,0,1-.6-1.26l-1.08-19.8v-5.94a3.07,3.07,0,0,1,3.12-3.12,2.92,2.92,0,0,1,2.19.9,3.07,3.07,0,0,1,.87,2.22v5.94l-1.08,19.8a1.86,1.86,0,0,1-.57,1.26,2,2,0,0,1-1.41.48A2.09,2.09,0,0,1,1785.83,267.45Z"/><path class="cls-3" d="M483.24,437.28c-30.25,17.21-54.31,43.2-73.87,71.66-20.47,29.77-36.95,62.43-50.47,95.89a579.15,579.15,0,0,0-31.44,106.34,592.78,592.78,0,0,0-10.9,110.23,575.29,575.29,0,0,0,10.1,110.26q1.3,6.83,2.78,13.63c.41,1.88,3.3,1.09,2.89-.8a568.5,568.5,0,0,1-12.66-109.17,585.65,585.65,0,0,1,36.48-215.17A526.74,526.74,0,0,1,404,522.61c18.49-29.25,41.1-56.8,70.11-76.15q5.24-3.49,10.7-6.59a1.5,1.5,0,0,0-1.52-2.59Z"/><path class="cls-3" d="M393.24,728c13.2-5.69,27.59-7.85,41.86-8.68a409,409,0,0,1,44.84.11q22.89,1.2,45.58,4.65c14.47,2.22,29.14,4.76,43.2,8.88a65,65,0,0,1,18.43,8.21,48.26,48.26,0,0,1,12.93,13.48c7.28,11.06,11.4,24.13,14.86,36.8,7.52,27.54,10,57.18,2.87,85.08-6,23.26-18.69,45.33-37.79,60.22-2.34,1.82-4.79,3.51-7.3,5.1a1.52,1.52,0,0,0,0,2.59c21.57,11,45.73,15.59,67.46,26.23,9.86,4.83,19.22,10.89,26.75,18.95,1.87,2,4.18,4.24,5.15,6.85,1.11,3-1.18,5.1-3.37,6.8a62.1,62.1,0,0,1-15.49,8.54c-11.72,4.59-24.24,6.85-36.7,8.27-13,1.47-26.08,2.32-39.13,3.12q-40.17,2.44-80.45,2.24-40.1-.2-80.12-3l-10-.75c-1.93-.15-1.92,2.85,0,3q41.32,3.27,82.82,3.74,41.31.45,82.59-1.89c13.62-.77,27.27-1.66,40.85-3,12.85-1.32,25.74-3.32,38-7.64a73.39,73.39,0,0,0,16-7.72c4.18-2.75,9.9-6.6,7.88-12.42-.91-2.63-2.92-4.83-4.74-6.88a71.55,71.55,0,0,0-6-6A89.58,89.58,0,0,0,650.71,973c-21.06-12.66-45.46-17.38-67.82-27q-4.39-1.89-8.65-4.07v2.59c21.06-13.28,35.87-34.67,43.77-58,9.23-27.32,8.61-57.05,2.48-85-3-13.68-7-27.61-13.22-40.21a65.61,65.61,0,0,0-10.64-15.83,50,50,0,0,0-16-11.3A106.16,106.16,0,0,0,561,727.89q-11.25-2.64-22.65-4.66a467,467,0,0,0-46.54-6A460.12,460.12,0,0,0,445.09,716c-14.59.34-29.38,1.5-43.41,5.8a98.26,98.26,0,0,0-10,3.68c-1.76.76-.24,3.35,1.52,2.59Z"/><path class="cls-3" d="M672.59,761.69c11.23.37,20.89,6.72,28.8,14.24a140.86,140.86,0,0,1,11.66,12.76c3.83,4.66,7.87,9.35,10.72,14.69a24.26,24.26,0,0,1,2.9,8.82,29.48,29.48,0,0,1-.78,10A72.41,72.41,0,0,1,719,839.5a117.45,117.45,0,0,1-21.5,28c-4.22,4.17-8.67,8.11-13.26,11.87q-3.43,2.8-7,5.5c-2.07,1.58-4.86,3.13-5.77,5.72-2.15,6.11,7.2,8.07,11.1,9.37,6.18,2.07,12.43,3.9,18.67,5.78,12.42,3.75,24.9,7.76,36.18,14.3,4.95,2.88,9.91,6.53,11.52,12.31,1.55,5.55,0,11.67-3,16.46-3.23,5.16-8.19,9-13.31,12.11a131.7,131.7,0,0,1-17.28,8.79,142.83,142.83,0,0,1-38,10.24c-3.25.4-6.51.68-9.78.86-1.92.11-1.93,3.11,0,3A145.31,145.31,0,0,0,707.36,976a148.56,148.56,0,0,0,18.52-7.88,79.6,79.6,0,0,0,16-10.12,30.24,30.24,0,0,0,9.9-15.07c1.48-5.73.93-12.09-2.62-17s-9.15-8.08-14.49-10.84a142.42,142.42,0,0,0-18.26-7.67C703.7,903,690.59,899.79,678,895.15c-2-.72-5.05-2.17-3-4.58a19,19,0,0,1,3.21-2.64l3.8-2.93c4.78-3.74,9.43-7.64,13.87-11.76a130.62,130.62,0,0,0,23.29-27.86,92,92,0,0,0,7.95-16.63c2.28-6.36,3.68-13.3,2-20-1.5-6.12-5.26-11.32-9.09-16.19-3.65-4.65-7.39-9.25-11.4-13.59-7.66-8.3-16.82-16.23-28-19.15a36.26,36.26,0,0,0-8-1.15c-1.93-.06-1.93,2.94,0,3Z"/><path class="cls-3" d="M620.62,503.47c14.46,12.83,35.84,14.58,53.53,8.12a62,62,0,0,0,15.31-8.15c1.55-1.13,0-3.73-1.51-2.59-15,10.89-35.29,14.89-52.8,8.07a41.34,41.34,0,0,1-12.4-7.57c-1.44-1.28-3.57.84-2.13,2.12Z"/><path class="cls-3" d="M666.09,496.77a3,3,0,0,1-2.22,0s-.38-.24-.26-.15l-.16-.16c.17.16,0,0,0,0s0,.12,0,.15,0-.08,0-.1c-.12.15,0-.11.08-.16,1-1.43,3.38-1.73,5-1.54a6.87,6.87,0,0,1,4.74,2.73,11.84,11.84,0,0,1,1.53,2.76,3.5,3.5,0,0,0,.19.51s.11-.33.09-.19c.06-.36.12-.07,0-.12s-.6.14-.75.16a6.51,6.51,0,0,1-.88.06,10.49,10.49,0,0,1-6.36-2.19,1.51,1.51,0,0,0-2,.54,1.53,1.53,0,0,0,.54,2,12.85,12.85,0,0,0,8.64,2.55c1.68-.17,3.86-.76,3.78-2.87a6.33,6.33,0,0,0-.68-2.24,14.16,14.16,0,0,0-1.21-2.19,10.16,10.16,0,0,0-7.57-4.56c-2.74-.28-6.54.63-7.79,3.39a3.12,3.12,0,0,0,1.26,4,5.75,5.75,0,0,0,4.82.53c1.83-.6,1-3.5-.79-2.89Z"/><path class="cls-3" d="M472.33,536.69c-18.61,4.42-35.08,16-46.36,31.31-12.26,16.68-17.56,37.75-15.57,58.28a86.37,86.37,0,0,0,8.6,30.3c4.62,9.26,11.11,18,20.26,23.13,8.06,4.56,17.23,6.47,26,9.31a56.91,56.91,0,0,1,12.28,5.39c4.27,2.64,7.37,6.17,10.35,10.16a39,39,0,0,0,5.28,6.12,26.23,26.23,0,0,0,6.62,4.22c5,2.25,10.37,3.33,15.7,4.38a255.93,255.93,0,0,0,37.22,4.51c3.08.14,6.17.22,9.27.26a1.53,1.53,0,0,0,1.44-1.11c2.49-11.38,4.23-24.43-3.66-34.19a18.75,18.75,0,0,0-13.92-6.82c-6.07-.35-12.23,1.21-18.22-.33-10.38-2.68-17.6-12.15-24.07-20-7.2-8.76-14.46-18.14-17.5-29.25-3.88-14.23,1.15-28.45,6.06-41.74.67-1.81-2.23-2.6-2.89-.8-4.43,12-8.95,24.69-7.2,37.68,1.54,11.45,7.79,21.42,14.73,30.39,3.39,4.38,6.91,8.71,10.6,12.84a54.64,54.64,0,0,0,11.93,10.53,28.13,28.13,0,0,0,15.91,4c5.77-.16,12.2-1.45,17.55,1.43,5,2.72,8,8.17,9.2,13.61,1.58,7.22.14,14.75-1.41,21.84l1.45-1.1a250,250,0,0,1-36.55-3c-5.74-.91-11.51-1.93-17.15-3.37-4.92-1.26-9.87-3.08-13.61-6.65s-6.17-8.27-9.94-11.84A38.82,38.82,0,0,0,473.63,689c-8.15-3.61-17-5.32-25.29-8.43a46.09,46.09,0,0,1-11.91-6.3A46.87,46.87,0,0,1,426,662.79a79.63,79.63,0,0,1-11.42-28.33c-3.95-19.92-.72-41.24,9.79-58.7a79.61,79.61,0,0,1,42.2-34.31q3.22-1.08,6.53-1.86c1.88-.45,1.08-3.34-.8-2.9Z"/><path class="cls-3" d="M643,827.74a209.82,209.82,0,0,0,27.06-75.4,213,213,0,0,0,2.42-40.13,171.7,171.7,0,0,0-5.3-38.49c-3.6-13.44-9.63-26.47-19.51-36.47-1.36-1.37-3.48.75-2.12,2.13,17.65,17.85,22.45,44.83,23.76,68.94A210.93,210.93,0,0,1,658.84,786a203.48,203.48,0,0,1-18.44,40.26,1.5,1.5,0,0,0,2.59,1.51Z"/><path class="cls-3" d="M1570.26,710.39c-14.45,14.84-35.08,20.47-52.51,30.79a80.93,80.93,0,0,0-14,10.24c-1.42,1.31.71,3.43,2.13,2.12,15.16-14,35.78-19.41,53-30.28a73.67,73.67,0,0,0,13.49-10.75c1.35-1.38-.77-3.51-2.12-2.12Z"/><path class="cls-3" d="M1568.94,706.64c-25.85-1.09-51.7-2.37-77.49-4.45q-10.85-.87-21.67-1.94l1.5,1.5c-1.74-13.84-9.32-26.8-19.49-36.19a1.51,1.51,0,0,0-2.5.66c-.4,1.93-.69,4.23.33,6a2.85,2.85,0,0,0,3.23,1.53,2.93,2.93,0,0,0,1.89-3.09c-.11-2-1.55-3.78-3-5.13a1.51,1.51,0,0,0-2.5.66l-5.68,26.28c-1.14,5.28-1.45,11.5-4.69,16-2.75,3.84-8,4.58-12.05,2.59-4.35-2.12-7.71-5.9-11.11-9.24-3.7-3.64-7.9-7.75-13.22-8.7a1.52,1.52,0,0,0-1.85,1.84,307.46,307.46,0,0,1,4.12,55c0,1.93,3,1.93,3,0a311.8,311.8,0,0,0-4.23-55.84l-1.84,1.85c4.78.86,8.47,4.57,11.8,7.83,3.6,3.54,7.2,7.57,11.81,9.81s10.22,2,14.2-1.42c4.44-3.87,5.31-10.48,6.33-15.92,1.85-9.82,4.19-19.57,6.3-29.34l-2.51.66a6.38,6.38,0,0,1,2,2.93.68.68,0,0,1,0,.38c0,.28-.1-.14,0,.11,0,.06,0-.1.18-.15a.72.72,0,0,1,.44,0c.1,0-.09-.06-.1,0s.1.08.11.1-.24-.45-.2-.33a6.88,6.88,0,0,1,0-3.63l-2.51.66c9.53,8.81,17,21.05,18.61,34.07a1.56,1.56,0,0,0,1.5,1.5c25.65,2.53,51.38,4.16,77.13,5.4q11,.54,22,1c1.93.08,1.92-2.92,0-3Z"/><path class="cls-3" d="M1505.15,760.66l-16.29,91.28c-2.66,14.88-5.46,29.82-6.06,45a152.49,152.49,0,0,0,4.71,43.06,188,188,0,0,0,7.41,23c1.23,3.16,2.29,6.65,4.69,9.15,2,2.06,5,3.32,7.32,1a1.5,1.5,0,0,0-2.13-2.12c-1.66,1.66-4.16-2.24-4.76-3.44a91.2,91.2,0,0,1-3.72-9.31,185.46,185.46,0,0,1-6-19.55,149.08,149.08,0,0,1-4.5-41.32c.52-14.54,3.15-28.89,5.7-43.18l7.8-43.68,8.75-49.08c.34-1.88-2.55-2.7-2.89-.79Z"/><path class="cls-3" d="M1561.62,713.09a5.32,5.32,0,0,0-2.1-7.14,1.52,1.52,0,0,0-1.33-.07,1.39,1.39,0,0,0-.87,1c-.42,2.67-.67,5.56,1.1,7.82a4.51,4.51,0,0,0,5.76.8,3.62,3.62,0,0,0,1.25-1.33,3.44,3.44,0,0,0,.28-2.19,1.47,1.47,0,0,0-.69-.89,1.49,1.49,0,0,0-2.2,1.69s0-.41,0-.2v.1a.57.57,0,0,0,0,.13c0,.15,0-.29,0-.25s0,.21-.06.24l0,.08c0,.11.19-.33.07-.17a1,1,0,0,0-.1.18c-.06.13.14-.24.14-.19l-.07.09-.15.15c-.2.2.3-.2.06,0s-.28.22-.41.23.37-.13.21-.09a.56.56,0,0,0-.12,0l-.25.07-.23,0c-.24.05.4,0,.1,0a4.13,4.13,0,0,1-.5,0c-.36,0,.26.05.07,0l-.23,0-.23-.06c-.32-.11.25.13.05,0s-.26-.16-.4-.24c.38.22.19.15.08,0s-.15-.17-.23-.25.17.25.09.11l-.11-.16c-.06-.09-.11-.19-.17-.29s-.18-.39-.08-.16,0,0,0,0a2.09,2.09,0,0,1-.08-.23,4.77,4.77,0,0,1-.17-.65,3.43,3.43,0,0,0-.06-.34c.1.44,0,0,0-.15a10.47,10.47,0,0,1,0-1.68c0-.27,0-.55.08-.82s0,.07,0,.1a.59.59,0,0,1,0-.26l.06-.44-2.2.89a2.69,2.69,0,0,1,.29.16l.13.09c.18.1-.08,0-.1-.09a5,5,0,0,0,.46.46c.14.15-.07-.06-.08-.11s.07.1.09.14a2.75,2.75,0,0,1,.17.29s0,.1.08.14a.87.87,0,1,0,0-.13c0,.12.09.24.12.36a2,2,0,0,1,.09.33l0,.16c0,.18,0-.33,0-.15a3.78,3.78,0,0,1,0,.67c0,.06,0,.11,0,.17s.07-.32,0-.15,0,.22-.07.32-.08.21-.11.32.15-.26,0-.13a1.11,1.11,0,0,0-.09.19,1.5,1.5,0,1,0,2.59,1.51Z"/><path class="cls-3" d="M1470.44,772.8c-12.27,4-25,8.31-34.84,17-10.47,9.26-14.94,22.67-17.51,36a236.32,236.32,0,0,0,1.26,94c3.72,17.39,8.74,34.93,7,52.9-.19,1.92,2.81,1.91,3,0,1.52-15.61-2-31.06-5.43-46.19s-6-30.48-6.72-46.1a231.5,231.5,0,0,1,2.53-46.53c2.11-13.43,5-28,14.41-38.42,9.64-10.69,23.81-15.45,37.1-19.79,1.83-.6,1-3.49-.79-2.89Z"/><path class="cls-3" d="M1383.37,961.88c17,11.37,34.76,23.39,44.68,41.92a54.74,54.74,0,0,1,6.74,28.12,14.34,14.34,0,0,0,.88,6.72c1,2.1,2.91,3.12,4.88,4.13a30.14,30.14,0,0,1,10.25,8.62,29.78,29.78,0,0,1,5.59,12.13c.42,2.14.26,4.51-1.6,5.93a9.77,9.77,0,0,1-5.12,1.61,53.53,53.53,0,0,1-6.82-.09l-9-.38q-8.84-.39-17.68-.81-17.67-.84-35.35-1.8c-2.85-.15-5.74-.19-8.58-.5a5.81,5.81,0,0,1-5.28-3.79,74.71,74.71,0,0,1-2.41-7.75c-.76-2.66-1.49-5.33-2.17-8a266.44,266.44,0,0,1-8.12-67.06q0-4.15.19-8.31c.07-1.93-2.93-1.93-3,0a269.79,269.79,0,0,0,6.6,70.18q2,8.54,4.47,17c.73,2.41,1.32,5.13,2.78,7.23a8.46,8.46,0,0,0,6.14,3.47c2.84.38,5.77.4,8.64.55l9.21.49q9.21.49,18.42.94,18.54.9,37.09,1.69c4,.17,8.65.28,12-2.4,4-3.28,2.86-8.84,1.29-13.1a34.86,34.86,0,0,0-7.36-11.88,33.93,33.93,0,0,0-5.29-4.5,30.9,30.9,0,0,0-2.7-1.65,20.51,20.51,0,0,1-3.28-1.82c-1.87-1.51-1.75-4.23-1.68-6.4a59.3,59.3,0,0,0-.11-7.54,55.74,55.74,0,0,0-3.49-14.79c-7.85-20.43-25.12-34.32-42.69-46.26-2.19-1.49-4.4-3-6.6-4.43-1.61-1.08-3.11,1.52-1.51,2.59Z"/><path class="cls-3" d="M1497.81,976.76c-3.15,14.67-13,27.75-26.69,34.15-4.62,2.17-9.6,3.44-14.09,5.89-1.7.92-.18,3.51,1.51,2.59,4.17-2.27,8.77-3.53,13.1-5.43a47.47,47.47,0,0,0,9.84-5.9,52.66,52.66,0,0,0,19.22-30.5c.4-1.88-2.49-2.69-2.89-.8Z"/><path class="cls-3" d="M1499.31,945.7l25.1,18.11c3.91,2.82,7.91,5.55,11.7,8.54a36.13,36.13,0,0,1,8.9,9.51c4.24,7.09,4.81,15.61,4.17,23.67a137.28,137.28,0,0,1-4.33,24c-2.07,7.82-5.32,16.18-12.57,20.56a1.53,1.53,0,0,0-.69,1.69c.46,2,2,3,3.82,3.69,1.66.59,3.72.69,5.17,1.76,1.91,1.42.54,4-1.14,4.94-2.54,1.41-6.06,1.21-8.87,1.35a137,137,0,0,1-38.71-3.67,140.21,140.21,0,0,1-20.95-6.87c-1.78-.74-2.56,2.16-.8,2.9a141.38,141.38,0,0,0,40.55,10.15,137.87,137.87,0,0,0,20.82.44c3.13-.17,6.66-.13,9.47-1.71a6.67,6.67,0,0,0,3.49-6.59c-.4-2.65-2.69-4-5-4.7-1.54-.45-4.46-.59-4.9-2.49l-.69,1.7c6.72-4.06,10.46-11.18,12.8-18.44a136,136,0,0,0,5.18-24.87c1-8.49,1.06-17.44-2.34-25.43-3.72-8.72-11.43-14.05-18.86-19.41l-29.75-21.46c-1.57-1.13-3.07,1.47-1.52,2.59Z"/><path class="cls-3" d="M1358,934.12a238.93,238.93,0,0,1,6.32-44.61c.44-1.88-2.45-2.68-2.9-.8a244.87,244.87,0,0,0-6.42,45.41c-.09,1.93,2.91,1.93,3,0Z"/><path d="M1546.19,633.44c.14-5.93-7-9.83-12.14-7.43a6.38,6.38,0,0,0-1.67,1.15,4.36,4.36,0,0,0-.7.79,2.49,2.49,0,0,0-.35,1.51,8,8,0,0,0,1.14,4.08,10.54,10.54,0,0,0,6.52,4.71,8.39,8.39,0,0,0,8.48-2.39,1.55,1.55,0,0,0,0-2.13,1.52,1.52,0,0,0-2.12,0,4.1,4.1,0,0,1-1.56,1.29c-.06,0-.56.24-.27.13a4.56,4.56,0,0,1-.52.18l-.4.1c-.06,0-.61.11-.28.06a6.82,6.82,0,0,1-1.11.06l-.56,0-.28,0c.17,0,.16,0,0,0s-.65-.13-1-.22l-.55-.18s-.56-.23-.31-.12a9,9,0,0,1-1.87-1.1c.22.16-.21-.19-.25-.22s-.28-.26-.41-.4-.26-.27-.39-.42l-.18-.22c.09.12.09.11,0,0a5.65,5.65,0,0,1-.85-1.65,4.57,4.57,0,0,1-.2-2l-.44,1.06a6.94,6.94,0,0,1,.69-.74c.32-.29-.22.14.14-.11l.4-.25a4.23,4.23,0,0,1,.42-.22c-.23.11.07,0,.15-.05a5.93,5.93,0,0,1,.92-.24c.33-.06-.22,0,.15,0l.41,0a7.87,7.87,0,0,1,1,0c-.27,0,.08,0,.16,0l.42.09a8.68,8.68,0,0,1,1,.3c.43.15-.25-.13.17.06l.44.23a5.73,5.73,0,0,1,.79.48c.05,0,.35.26.15.1.15.12.29.25.43.38a6.72,6.72,0,0,1,.58.61c.16.2,0-.09.14.2.09.13.18.27.26.41s.13.24.19.37c.16.31,0-.14.07.15a5.21,5.21,0,0,1,.25,1c.08.44,0-.28,0,.17a5.81,5.81,0,0,1,0,.59c0,1.93,3,1.93,3,0Z"/><path class="cls-3" d="M1388.55,425.51c-5.29-12.41-13.29-23.89-24-32.25-10.93-8.56-24.63-13.52-38.6-12.76-14.14.77-26.56,7.75-35.81,18.28-9,10.2-15,22.84-18.52,35.92-7.19,27.09-3.63,56.35,5,82.68a228.14,228.14,0,0,0,19,42.36c7.14,12.44,15.55,24,24.32,35.37,17,22,35.63,43.44,47.19,69q2.14,4.76,3.91,9.64c.65,1.81,3.55,1,2.89-.79-9.34-25.82-26.34-47.56-43.15-68.89-8.46-10.73-16.94-21.48-24.51-32.87a230.8,230.8,0,0,1-21.53-40.58c-10.39-25.48-16.39-53.54-12.93-81.1a97,97,0,0,1,12.87-38.19c6.85-11.33,16.79-21.51,29.63-25.69,13.3-4.33,28.15-2.19,40.28,4.52,11.56,6.39,20.66,16.57,27.06,28A92.75,92.75,0,0,1,1386,427c.76,1.77,3.34.24,2.59-1.51Z"/><path class="cls-3" d="M1390.38,419.15c-9.65-15.61-19.49-31.56-33.13-44.06-12.81-11.73-28.62-19.4-45.22-24.14-17.08-4.89-34.85-6.88-52.5-8.27q-32.4-2.55-64.92-2.42c-20.36.08-41.28.06-61.3,4.22a108,108,0,0,0-44.19,20.35c-25.47,19.65-42.39,48.6-54.15,78.06a281,281,0,0,0-15.66,53c-3.57,19.39-4.31,39.66,1.39,58.73,5.35,17.92,15.85,33.65,26.47,48.84,10.47,15,21,30,32.74,44,11.54,13.71,24.42,26.46,39.4,36.39,16.37,10.85,35.06,17.33,52,27.14,30,17.36,50.37,46.15,65.83,76.47,7.95,15.57,14.75,31.68,21.27,47.89,7.41,18.41,15,36.86,20.44,56a192.15,192.15,0,0,1,6.38,30.68c1.17,10.11.9,20.22,1,30.37.18,16.88,2.74,35.19,17.34,45.9a24.43,24.43,0,0,0,19.05,4.73c1.9-.34,1.1-3.23-.8-2.89-8.61,1.55-16.53-3-22-9.4-6.09-7.09-8.84-16-9.89-25.12-1.09-9.62-.55-19.32-.73-29a162.75,162.75,0,0,0-3.11-28.27c-3.8-19.29-10.6-37.83-17.76-56.09-6.14-15.66-12.36-31.31-19.24-46.67-13.2-29.46-29.34-58.81-53.6-80.65-13-11.69-28-19.81-43.72-27.23-16.85-8-32.88-16.36-47-28.75-13.69-12-25.39-26.14-36.25-40.71s-21.54-29.2-31-44.56c-10.29-16.76-17.18-34.69-18-54.5s3.41-39.78,9.05-58.82c9.15-30.84,22.68-61.57,44.09-85.94,10-11.43,21.9-21.31,35.53-28.18,16.93-8.54,35.7-11.22,54.44-12.18,21-1.08,42.08-1.05,63.08-.31,19.42.69,39,1.77,58.23,4.49,17,2.4,34.07,6.37,49.48,14.16,16.31,8.24,29,20.79,39.55,35.57,5.24,7.35,10,15,14.74,22.69,1,1.64,3.61.14,2.59-1.51Z"/><path class="cls-3" d="M1395.79,748.59c-10-2.65-20.91-3.55-30.9-.42-9.81,3.07-17.19,10.06-22.37,18.76-5.32,8.92-8.83,19-12.15,28.84a70.56,70.56,0,0,0-3.92,17.62,48.85,48.85,0,0,0,1.88,16.57,76,76,0,0,0,15.77,28.46,70.68,70.68,0,0,0,23.46,18.14,49.05,49.05,0,0,0,27.93,4.48c2.31-.35,5-.7,5.67-3.38s.16-5.61-.18-8.19a92.09,92.09,0,0,0-4.07-16.42,124.08,124.08,0,0,1-4.5-16.49,64,64,0,0,1-.52-17c1.09-11.27,4.84-22.23,9.88-32.32,1.25-2.48,2.57-4.93,4-7.33a1.5,1.5,0,0,0-2.59-1.51c-10.75,18.51-17.82,40.52-13,62,2.37,10.62,7.34,20.74,8.13,31.69a35,35,0,0,1,.09,4c0,.44,0,1-.33,1.34a3.6,3.6,0,0,1-1.65.48,40.15,40.15,0,0,1-6.84.69,44.51,44.51,0,0,1-13.46-1.93c-18.69-5.57-33.65-21.32-41.61-38.72a56.16,56.16,0,0,1-4.69-15.61,46.13,46.13,0,0,1,.91-16.76,136.11,136.11,0,0,1,5.24-16.37c1.67-4.55,3.38-9.09,5.42-13.48,4-8.54,9.27-16.85,17.61-21.67,8.66-5,19.2-5.63,28.9-4.06a72.78,72.78,0,0,1,7.15,1.54,1.51,1.51,0,0,0,.8-2.9Z"/><path d="M1600.21,402.83c-2.89,23-11.5,44.64-18.88,66.42a276.16,276.16,0,0,0-9.38,33c-2.27,11.07-3.19,22.33-4.57,33.53-1.53,12.43-3.76,25-9.46,36.29-.87,1.72,1.71,3.24,2.59,1.52,10.38-20.51,9.57-44,13.49-66.16,4.06-22.93,13.08-44.53,20.2-66.6,4-12.42,7.37-25.06,9-38,.24-1.91-2.76-1.89-3,0Z"/><path d="M1461.92,381.34l-.68,51.37-.68,51.37-.39,28.93a1.5,1.5,0,0,0,3,0l.68-51.37.69-51.37.38-28.93c0-1.93-3-1.93-3,0Z"/><path class="cls-3" d="M1536,764.51A579.64,579.64,0,0,0,1597.09,775q15.29,1.78,30.65,2.74c4.69.3,9.43.32,14.11.79,3.11.32,6.71,1,9.05,3.25,1.56,1.51,1.77,3.34,2.43,5.31.78,2.36,2.43,3.56,4.56,4.64a8.66,8.66,0,0,1,4.79,10.09l1.45-1.1q-27.09-1.41-54.19-2.31t-54.47-1.3q-15.3-.23-30.6-.29a1.5,1.5,0,0,0,0,3q27.12.12,54.23.72t54.46,1.75q15.29.63,30.57,1.43a1.5,1.5,0,0,0,1.44-1.1,11.84,11.84,0,0,0-2.52-10.81c-1.33-1.53-3-2.29-4.78-3.26a4.05,4.05,0,0,1-1.92-1.87c-.48-1.11-.58-2.35-1-3.48-2.87-7.5-12.35-7.67-19.07-8a566.46,566.46,0,0,1-63.94-6.67q-17.86-2.89-35.51-6.91c-1.88-.43-2.68,2.46-.8,2.89Z"/><path class="cls-3" d="M685.47,621.11l63.06,7.16,15.64,1.78a55.52,55.52,0,0,1,6.92.91,6.27,6.27,0,0,1,4.42,3.5,32,32,0,0,1,1.78,5.68,28.89,28.89,0,0,0,2.16,5.58,27.86,27.86,0,0,0,7.33,9A29.43,29.43,0,0,0,797.43,660c3.84,1.07,8.54,2.26,9.83,6.59,1.22,4.06-2.66,5.7-6,6.16-4.91.69-9.92.9-14.86,1.33-10.34.9-20.7,2.05-31.07,2.64a48.86,48.86,0,0,1-14.58-.91,42.9,42.9,0,0,1-12.3-5.65c-3.91-2.43-7.68-5.09-11.71-7.32A79.17,79.17,0,0,0,677.45,653q-3.47.06-6.92.44c-1.9.2-1.92,3.2,0,3a75.93,75.93,0,0,1,41.65,7.38,124.33,124.33,0,0,1,12.26,7.32,62.82,62.82,0,0,0,12.17,6.53,41.34,41.34,0,0,0,14.81,2.21c5.24-.06,10.48-.65,15.69-1.1l16.37-1.43,16.12-1.41c3.59-.32,7.79-.92,9.88-4.26s.59-7.8-2.13-10.4c-3.35-3.19-8.15-3.62-12.3-5.16-7.87-2.93-13.08-9.92-15.16-17.83-1-3.9-2.3-8-6.35-9.64a24.45,24.45,0,0,0-6.64-1.25l-8.19-.93L693.42,619l-7.95-.91c-1.91-.21-1.9,2.79,0,3Z"/><path class="cls-3" d="M621.39,511.77c.18,6.83.89,15,7.74,18.52a9.15,9.15,0,0,0,9-.07c2.79-1.68,4.53-4.56,7.07-6.53a1.5,1.5,0,0,0,0-2.12,1.53,1.53,0,0,0-2.12,0c-2.11,1.64-3.59,3.94-5.71,5.56a6.18,6.18,0,0,1-7,.42c-5.59-3.09-5.84-10.14-6-15.78,0-1.92-3-1.93-3,0Z"/><path class="cls-3" d="M1458.52,722.9l-.13,0,.36.15a.72.72,0,0,1-.19-.11l.3.23a.54.54,0,0,1-.15-.15l.23.3a1.23,1.23,0,0,1-.14-.25l.15.36a1.16,1.16,0,0,1-.08-.32l.05.4a1.15,1.15,0,0,1,0-.37l-.05.4a1.06,1.06,0,0,1,.09-.36l-.15.35a1.35,1.35,0,0,1,.15-.26l-.24.31a1.14,1.14,0,0,1,.19-.19l-.31.23a1.06,1.06,0,0,1,.2-.12l-.35.15a1.29,1.29,0,0,1,.28-.08l-.4.06a1,1,0,0,1,.34,0l-.4-.06a1.89,1.89,0,0,1,.34.09l-.36-.15a2.14,2.14,0,0,1,.38.23l-.31-.24a1.87,1.87,0,0,1,.31.32l-.23-.3a1.45,1.45,0,0,1,.2.34l-.15-.36a1.9,1.9,0,0,1,.11.39l-.06-.4a1.09,1.09,0,0,1,0,.36l.06-.39a1.71,1.71,0,0,1-.13.44l.16-.35a3.26,3.26,0,0,1-.24.4l.23-.3a2.16,2.16,0,0,1-.4.4l.3-.24a2.48,2.48,0,0,1-.49.3l.36-.15a2.67,2.67,0,0,1-.6.16l.39-.05h0l1.29,2.26a3.42,3.42,0,0,1,.26-.4l-.24.3a2.68,2.68,0,0,1,.45-.44l-.31.23a2.77,2.77,0,0,1,.55-.33,1.45,1.45,0,0,0,.68-.89,1.52,1.52,0,0,0-.15-1.16,1.5,1.5,0,0,0-.89-.69l-.4,0a1.57,1.57,0,0,0-.76.2,4.09,4.09,0,0,0-1,.72,3.73,3.73,0,0,0-.76,1,1.53,1.53,0,0,0,0,1.51,1.47,1.47,0,0,0,1.3.74,3.75,3.75,0,0,0,3-1.76,3,3,0,0,0,0-3.27,3.31,3.31,0,0,0-1.26-1.12,3.1,3.1,0,0,0-1.13-.3,2.52,2.52,0,0,0-.82.09,2.49,2.49,0,0,0-1.46,1.08,2.82,2.82,0,0,0-.44,1.41,2.57,2.57,0,0,0,1.82,2.64,1.59,1.59,0,0,0,1.15-.16,1.5,1.5,0,0,0,.54-2,1.56,1.56,0,0,0-.9-.69Z"/><path class="cls-3" d="M1486.72,714.76l-1.15-1.79-1.69,2.2.11,0-.36-.15a2.18,2.18,0,0,1,.42.24l-.31-.23a2.19,2.19,0,0,1,.34.34l-.23-.3a1.79,1.79,0,0,1,.22.38l-.15-.36a1.48,1.48,0,0,1,.12.41l-.06-.39a1.27,1.27,0,0,1,0,.39l.06-.4a1.58,1.58,0,0,1-.09.31l.15-.36a1.56,1.56,0,0,1-.16.28l.23-.31a1.72,1.72,0,0,1-.27.27l.3-.23a1.35,1.35,0,0,1-.33.19l.36-.15a1.31,1.31,0,0,1-.34.09l.4-.05a1.6,1.6,0,0,1-.31,0l.4.05a1.1,1.1,0,0,1-.26-.06l.36.15a1.71,1.71,0,0,1-.23-.13l.31.23a.69.69,0,0,1-.17-.17l.24.31a.88.88,0,0,1-.12-.21l.15.36a1.68,1.68,0,0,1-.09-.32l0,.4a1.82,1.82,0,0,1,0-.33l0,.4a1.09,1.09,0,0,1,.08-.31l-.15.35a1.59,1.59,0,0,1,.13-.22l-.23.3a.81.81,0,0,1,.16-.16l-.31.24.18-.1-.36.15.09,0a1.57,1.57,0,0,0,.89-.69,1.49,1.49,0,0,0,.15-1.15,1.46,1.46,0,0,0-.69-.9,1.49,1.49,0,0,0-1.15-.15,2.43,2.43,0,0,0-1.35,1,2.61,2.61,0,0,0-.39,1.33,2.52,2.52,0,0,0,1.28,2.34,3,3,0,0,0,.67.25,3.24,3.24,0,0,0,1.12,0,3,3,0,0,0,1.33-.67,2.78,2.78,0,0,0,.82-1.21,2.83,2.83,0,0,0,.08-1.58,3.29,3.29,0,0,0-.79-1.47,3.43,3.43,0,0,0-1.45-.92l-.4-.06-.4.06a1.46,1.46,0,0,0-.78.53,1.45,1.45,0,0,0-.3.71,1.46,1.46,0,0,0,.18,1l1.15,1.79a1.5,1.5,0,0,0,.89.69,1.5,1.5,0,0,0,1.85-1.05,1.54,1.54,0,0,0-.15-1.15Z"/><path class="cls-3" d="M1458.52,589a8.59,8.59,0,0,1-2.39-6.26,8.44,8.44,0,0,1,.72-3.24,6.47,6.47,0,0,1,.86-1.43.72.72,0,0,1,1.06-.23c2,1,3.15,3.8,3.4,5.88a8.87,8.87,0,0,1-.67,4.71c-.17.37-.51,1.26-.94,1.4s-1-.43-1.25-.61a7.15,7.15,0,0,1-1.53-1.48,7.93,7.93,0,0,1-1.6-3.89,1.51,1.51,0,0,0-1.85-1.05,1.55,1.55,0,0,0-1,1.84,10.64,10.64,0,0,0,2.23,5.05,8.26,8.26,0,0,0,4.32,3.08c4,.79,5.42-5.07,5.4-8a11.73,11.73,0,0,0-4-8.91c-1.72-1.37-4-1.71-5.6.07a9.94,9.94,0,0,0-2.19,4.5,11.81,11.81,0,0,0,3,10.68c1.36,1.37,3.48-.75,2.12-2.13Z"/><path class="cls-3" d="M1598.64,649.9a13.17,13.17,0,0,1,0-5.76c.36-1.56,1-3.74,2.38-4.65a1.78,1.78,0,0,1,.82-.31,1.16,1.16,0,0,1,.68.12c.47.27.72,1.24.92,1.93a16.45,16.45,0,0,1,.71,6.19,4.6,4.6,0,0,1-.19.94,2.1,2.1,0,0,1-.15.3s-.15.21-.06.11c-.15.17-.37.23-.07.14l-.26.07c.24-.05,0,0,0,0s-.24-.07,0,0l-.2-.06s0,0,0,0a1.86,1.86,0,0,1,.1.2c-.12-.24,0,.2,0-.09a1.5,1.5,0,0,0-1.5-1.5,1.54,1.54,0,0,0-1.5,1.5,2.8,2.8,0,0,0,2.15,2.8,3.32,3.32,0,0,0,3.39-.92,6,6,0,0,0,1.31-3.82,20.61,20.61,0,0,0-.31-4.36,16.56,16.56,0,0,0-1.24-4.19,3.93,3.93,0,0,0-3.3-2.32c-3-.27-4.88,2.44-5.88,4.9a16.4,16.4,0,0,0-.73,9.6,1.52,1.52,0,0,0,1.84,1,1.53,1.53,0,0,0,1.05-1.85Z"/><path class="cls-3" d="M1613.21,621.38c11-22.25,15.25-46.83,20-70.94a348.57,348.57,0,0,1,8.67-36.07,197.57,197.57,0,0,1,15-34.48c6.72-12.53,13.84-24.94,18.5-38.44.63-1.83-2.27-2.62-2.89-.8-4.14,12-10.28,23.09-16.3,34.19s-11.62,22.13-15.69,34c-8,23.34-11,47.94-16.64,71.87-3.17,13.44-7.19,26.73-13.31,39.14-.85,1.73,1.74,3.25,2.59,1.52Z"/><path class="cls-3" d="M1438.58,699.63a103.63,103.63,0,0,0,20-.47,1.54,1.54,0,0,0,1.5-1.5,1.52,1.52,0,0,0-1.5-1.5,103.63,103.63,0,0,1-20,.47c-1.92-.14-1.91,2.86,0,3Z"/><path class="cls-3" d="M1475.89,686.75l15-2.71a1.52,1.52,0,0,0,1-1.85,1.54,1.54,0,0,0-1.85-1.05l-15,2.71a1.5,1.5,0,0,0,.79,2.9Z"/><path class="cls-3" d="M591.85,465.66c-5-12.36-9.9-25.18-10.42-38.64-.47-11.81,2.51-24.22,11.08-32.78,7.63-7.62,18.82-11.36,29.21-7.55,9.58,3.52,16.82,12.47,19.57,22.14,3.92,13.73-.26,28.47-6.85,40.66l2.74,1.15,10.67-28c3.12-8.18,5.8-17.43,12.23-23.72a18.55,18.55,0,0,1,11.5-5.62l-1.5-1.5a142.64,142.64,0,0,1-5.76,51.38q-.95,3.12-2,6.19a22,22,0,0,1-2.3,5.29,6.3,6.3,0,0,1-4.75,2.47c-2.08.28-4.19.36-6.28.57A212.09,212.09,0,0,0,595,470.25c-1.79.67-1,3.57.8,2.89a210.38,210.38,0,0,1,52.65-12.39c2.17-.23,4.36-.35,6.53-.59a11,11,0,0,0,5.47-1.78c3.14-2.3,4.19-6.7,5.37-10.19a143.43,143.43,0,0,0,6.19-26.26,145.94,145.94,0,0,0,1-30.13,1.51,1.51,0,0,0-1.5-1.5C662.7,390.91,656,397.53,652,405a109.18,109.18,0,0,0-5.59,13.13L640.72,433l-6.44,16.9c-.6,1.59,2,2.63,2.75,1.15,6.38-11.79,10.37-25.42,8.08-38.87-1.85-10.89-8.63-21.14-18.42-26.45a28.33,28.33,0,0,0-15.84-3.47,32,32,0,0,0-16.28,6.33c-10.21,7.6-15.23,19.64-16.06,32.1-1.07,15.95,4.58,31.27,10.44,45.81.72,1.77,3.62,1,2.9-.79Z"/><path class="cls-3" d="M594.65,367.58c22.63-7.9,49.24-16.4,71.34-2.42a57.52,57.52,0,0,1,20.06,22.53,68.65,68.65,0,0,1,7.13,32.76c-.27,14.19-4.17,28.15-10,41a1.52,1.52,0,0,0,.9,2.2c4.77.9,9.62,1,14.43,1.53,4.5.5,9.28,1.5,12.8,4.53,7.25,6.21,6.58,17.28,4.93,25.76-3.5,17.94-13.7,34.22-27.74,45.82a77.11,77.11,0,0,1-27,14.47c-1.84.54-1.06,3.44.8,2.89a83,83,0,0,0,45.29-34.2,80.16,80.16,0,0,0,11.18-26.24c2-9,3.11-20.14-2.83-28-7.33-9.65-20.5-7.48-31-9.47l.9,2.21c10.29-22.73,14.9-49.6,4.6-73.17A62.34,62.34,0,0,0,671.06,365c-9.59-7.25-21.31-10.58-33.27-10.42-15.15.2-29.79,5.13-43.94,10.07-1.81.63-1,3.53.8,2.89Z"/><path class="cls-3" d="M601.57,565.33c-24.72-4.48-49.28-14-66.79-32.66-8.09-8.61-14.79-19.23-17.53-30.83-1.46-6.23-1.64-12.85.52-18.94a28.57,28.57,0,0,1,8.58-12c8.8-7.53,20.68-10.8,31.73-13.38,1.88-.44,1.09-3.33-.79-2.89-10.44,2.43-21.28,5.52-30.11,11.84a34.31,34.31,0,0,0-10.36,11.31,32.29,32.29,0,0,0-3.52,18.42c1.16,12.61,7.54,24.47,15.44,34.15a95.86,95.86,0,0,0,28.71,23.37c13.47,7.31,28.29,11.81,43.32,14.53,1.89.34,2.7-2.55.8-2.89Z"/><path class="cls-3" d="M546,374.73c-11,1.35-21,6.9-28.73,14.74-8.46,8.56-13.92,19.56-17.24,31a134.38,134.38,0,0,0-4.11,21.13c-.24,1.91,2.76,1.9,3,0,2.7-22.2,10.42-46,30.7-58.13A42,42,0,0,1,546,377.73c1.89-.23,1.91-3.24,0-3Z"/><path class="cls-3" d="M627.78,439c-.81-2.06-1.14-4.45,0-6.25a4.35,4.35,0,0,1,1.76-1.53,4.29,4.29,0,0,1,.7-.2s.29,0,.08,0l.32,0,.4,0c.23,0-.23-.06,0,0a6,6,0,0,1,.69.2c-.28-.11.13.08.22.14a2.11,2.11,0,0,1,.27.18c.19.12-.16-.15,0,0a4.07,4.07,0,0,1,.42.41l.18.2c-.2-.24,0,.07.08.12a5.39,5.39,0,0,1,.3.52,3,3,0,0,1,.15.31c0-.06-.08-.25,0,0a5.58,5.58,0,0,1,.18.58,2.68,2.68,0,0,1,.07.27c0,.05.06.45,0,.27s0,.22,0,.21v.55s0,.43,0,.2,0,.09,0,.14,0,.22-.08.33,0,.17-.07.26-.18.43,0,.15a5.36,5.36,0,0,1-.28.53c-.06.11-.13.21-.2.32l-.09.12a5.93,5.93,0,0,1-1,1c.17-.14-.09.05-.13.08l-.39.25c-.22.13-.45.26-.68.37-.05,0-.35.15-.14.07l-.44.16a6.61,6.61,0,0,1-.76.22,8.06,8.06,0,0,1-3.05.17,1.5,1.5,0,0,0-1.5,1.5,1.53,1.53,0,0,0,1.5,1.5c4.74.52,10.76-2.57,10.35-8a7,7,0,0,0-3.41-5.67A6.07,6.07,0,0,0,626,430.1c-2.4,2.65-2.4,6.47-1.14,9.65a1.53,1.53,0,0,0,1.84,1,1.5,1.5,0,0,0,1-1.84Z"/><path class="cls-3" d="M659,440.43a1.09,1.09,0,0,0-.24-.07c-.18,0,.3.17,0,0l-.17-.1-.08,0c-.1-.07-.1-.07,0,0l.08.05a2.58,2.58,0,0,1-.27-.27c-.2-.2.07.07.05.08a3.06,3.06,0,0,1-.18-.29,1.5,1.5,0,0,1-.11-.22s.13.37.05.08-.09-.32-.14-.48.06.1,0,.1a1.91,1.91,0,0,0,0-.2c0-.18,0-.37,0-.55s-.08.37,0,0c0-.06,0-.13.05-.19a2.17,2.17,0,0,0,.07-.24c0-.19-.17.31,0,0a1.62,1.62,0,0,0,.1-.18c0-.07.09-.27,0-.09l-.06.07.13-.15a2.73,2.73,0,0,1,.25-.23c-.23.2.07,0,.18-.11s.41-.19.06-.05l.22-.08c.17-.05.35-.07.51-.12s-.35,0,0,0h.6c.37,0-.2-.06,0,0s.36.07.53.12l.29.09c.08,0,.32.16,0,0,.18.1.36.19.53.3,0,0,.32.23.14.09s.12.11.13.11l.34.36c-.18-.2,0,0,0,.08l.18.28.13.23c0,.09.15.37.06.13a5.1,5.1,0,0,1,.2.63l.06.27s.06.42,0,.19,0,.22,0,.21,0,.18,0,.27c0,.25,0,.5,0,.74s.07-.34,0,.08a2.56,2.56,0,0,0,0,.27c-.05.2-.1.39-.16.59s-.07.21-.11.32c-.09.27,0,.08,0,0a5.17,5.17,0,0,1-.34.66l-.18.28c-.23.35.18-.17-.1.12l-.18.2c-.06.06-.31.27-.1.11l-.27.18c-.08.05-.48.19-.18.1l-.24.07c-.31.1.27,0,0,0h-.23c.37,0,0,0-.11,0s-.33-.14,0,0l-.3-.16c-.11-.06-.1-.15,0,0-.07-.09-.2-.3-.05,0,0,0-.2-.32-.08-.1s0-.18,0-.24a1.51,1.51,0,0,0-1.85-1.05,1.53,1.53,0,0,0-1,1.84,3.47,3.47,0,0,0,2.59,2.6,4.19,4.19,0,0,0,3.85-1,7.61,7.61,0,0,0,2.07-7.05,6,6,0,0,0-4.81-4.8,4.93,4.93,0,0,0-5.73,3.16c-.7,2.32.52,5.21,3,5.81a1.53,1.53,0,0,0,1.85-1.05,1.52,1.52,0,0,0-1.05-1.84Z"/><path class="cls-3" d="M546,367.41a381,381,0,0,1,27.21-57.73,361.81,361.81,0,0,1,38.36-54.25,336,336,0,0,1,46.54-44.82,298.55,298.55,0,0,1,53.57-34A247.74,247.74,0,0,1,740,164.8c10.24-3.51,20.78-6.29,30.45-11.27a70.23,70.23,0,0,0,6.9-4.08,1.52,1.52,0,0,0,.69-1.69,45.58,45.58,0,0,0-19.26-22.19,53.56,53.56,0,0,0-31-6.88c-12.77,1-24.68,6.12-35.49,12.76-11.59,7.13-22.26,15.82-32.52,24.73a453.84,453.84,0,0,0-54.67,57.08,695.8,695.8,0,0,0-45.47,63.6c-7.47,11.69-15.18,23.47-20.62,36.28A76.49,76.49,0,0,0,533.39,333a93.35,93.35,0,0,0-.09,21.2c.32,3.25.74,6.5,1.19,9.75a1.51,1.51,0,0,0,1.85,1,1.53,1.53,0,0,0,1-1.84c-1.89-13.64-2.76-27.4,1.38-40.74,4.08-13.14,11.53-25,18.78-36.62a733.51,733.51,0,0,1,43.3-62.37,478.54,478.54,0,0,1,51.87-56.87,339.66,339.66,0,0,1,30.1-25c10.57-7.73,22.12-14.85,34.93-18.1a54.31,54.31,0,0,1,31.9,1.23,43.87,43.87,0,0,1,22.2,17.63,39.86,39.86,0,0,1,3.26,6.33l.69-1.69c-9.18,6.18-19.69,9.54-30.14,12.91A266.38,266.38,0,0,0,716.55,171,292.91,292.91,0,0,0,662,203.78a334.5,334.5,0,0,0-47.7,43.89,362.64,362.64,0,0,0-39.85,53.89,381.86,381.86,0,0,0-28.65,57.81q-1.43,3.61-2.78,7.24c-.68,1.82,2.22,2.6,2.89.8Z"/><path class="cls-3" d="M531.78,371.09c-12.91-5.41-26.32-11-36.18-21.29-8.58-9-14-20.47-16.8-32.45-3.25-13.67-3.23-27.92-1.63-41.82,1.79-15.58,5.64-30.9,10.24-45.88a112.11,112.11,0,0,1,8.12-20.54,98.53,98.53,0,0,1,13.3-18.23c4.95-5.6,10-11.14,15.26-16.49,2.55-2.6,5.17-5.14,7.9-7.55,1.37-1.2,2.76-2.38,4.19-3.51,1.12-.89,2.9-2.61,4.45-2.57,1.21,0,.72,2.16.6,2.94-.27,1.85-.65,3.69-1.08,5.51-.91,3.91-2.07,7.76-3.3,11.58-2.46,7.65-5.06,15.24-7.2,23a285.4,285.4,0,0,0-8.81,46,244,244,0,0,0-.74,44.57c.55,7.13,1.45,14.24,2.7,21.29s3,14.33,3.38,21.65a49.37,49.37,0,0,1-.63,11.26c-.33,1.89,2.56,2.7,2.9.8,1.36-7.75.72-15.48-.63-23.18-1.28-7.31-2.82-14.56-3.73-21.94a235.29,235.29,0,0,1-1-45.65,273.8,273.8,0,0,1,7.86-47.84c2-8,4.47-15.94,7.08-23.8,2.53-7.64,5.25-15.42,6.28-23.44a6.33,6.33,0,0,0-.54-4.13,3.64,3.64,0,0,0-3.83-1.52,10.31,10.31,0,0,0-4.3,2.17c-1.55,1.17-3.05,2.4-4.53,3.67a197.38,197.38,0,0,0-16.28,16.19c-5.3,5.75-10.66,11.49-15.38,17.73a83.51,83.51,0,0,0-11.08,20.1,222.55,222.55,0,0,0-7.12,22.55c-2.15,7.91-4,15.89-5.41,24-2.57,14.83-3.66,30-1.57,45,1.8,12.78,6.06,25.47,13.68,36a62.11,62.11,0,0,0,13.61,13.71,104.11,104.11,0,0,0,19.26,10.69c3.38,1.51,6.79,2.94,10.2,4.37a1.51,1.51,0,0,0,1.84-1.05,1.53,1.53,0,0,0-1-1.84Z"/></svg>