<svg id="Layer_1" data-name="Layer 1" xmlns="http://www.w3.org/2000/svg" viewBox="0 0 1920 1080"><defs><style>.cls-1{fill:#e03838;}.cls-1,.cls-2{opacity:0.5;}.cls-2{fill:#ffff1a;}.cls-3{fill:#4d4d4d;}</style></defs><path class="cls-1" d="M298,61c100-2,185-27,208,27s-26,50-27,250-17,563-15,595-70,52-82,28-30-287-40-351S210,115,254,88Z"/><path class="cls-2" d="M1571.52,314.29c60.64,39.9,273.32,211,214.69,379s-87.43,287.91-208.47,306.33-235.29,14.61-302.44-120.46-95-210.31-74-291S1286.79,275.57,1374,283.22,1571.52,314.29,1571.52,314.29Z"/><path d="M166.62,172a2.61,2.61,0,0,1-.78-1.92V135.73H153.6a2.46,2.46,0,0,1-2.52-2.52,2.54,2.54,0,0,1,.72-1.83,2.39,2.39,0,0,1,1.8-.75h29.88a2.56,2.56,0,0,1,2.58,2.58,2.39,2.39,0,0,1-.75,1.8,2.54,2.54,0,0,1-1.83.72H171.3v34.38a2.56,2.56,0,0,1-.81,1.92,2.71,2.71,0,0,1-2,.78A2.61,2.61,0,0,1,166.62,172Z"/><path d="M192,172a2.61,2.61,0,0,1-.78-1.92V131.17a2.71,2.71,0,0,1,.78-1.95,2.56,2.56,0,0,1,1.92-.81,2.77,2.77,0,0,1,2.76,2.76v15.66a19.94,19.94,0,0,1,4.92-4,12.42,12.42,0,0,1,6.24-1.5,10.37,10.37,0,0,1,5.73,1.56,10.14,10.14,0,0,1,3.72,4.26,13.6,13.6,0,0,1,1.29,5.94v17a2.56,2.56,0,0,1-.81,1.92,2.71,2.71,0,0,1-2,.78,2.66,2.66,0,0,1-2.7-2.7V153.67q0-7.32-6.6-7.32a9.55,9.55,0,0,0-5.37,1.56,19.44,19.44,0,0,0-4.47,4.2v18a2.56,2.56,0,0,1-.81,1.92,2.71,2.71,0,0,1-2,.78A2.61,2.61,0,0,1,192,172Z"/><path d="M230,168.94q-4.11-4.17-4.11-11.73a19.56,19.56,0,0,1,1.56-7.86,13.36,13.36,0,0,1,4.8-5.82,13.79,13.79,0,0,1,8-2.22,14,14,0,0,1,7.68,2.07,13.39,13.39,0,0,1,4.92,5.52,17,17,0,0,1,1.68,7.53,2.62,2.62,0,0,1-2.76,2.7H231.42a9.87,9.87,0,0,0,3.12,6.54q2.64,2.34,7.38,2.34a18,18,0,0,0,4.41-.48,18.32,18.32,0,0,0,3.69-1.38,2.38,2.38,0,0,1,1.08-.24,2.41,2.41,0,0,1,1.68.66,2.18,2.18,0,0,1,.72,1.68,2.59,2.59,0,0,1-1.56,2.22,18.74,18.74,0,0,1-10.5,2.64Q234.12,173.11,230,168.94Zm19.11-14.25a9.61,9.61,0,0,0-1.53-4.92,8.26,8.26,0,0,0-3.33-2.91,9.15,9.15,0,0,0-8,0,8.06,8.06,0,0,0-3.3,2.91,9.79,9.79,0,0,0-1.5,4.92Z"/><path d="M262.5,172a2.61,2.61,0,0,1-.78-1.92V144.37a2.71,2.71,0,0,1,.78-2,2.56,2.56,0,0,1,1.92-.81,2.77,2.77,0,0,1,2.76,2.76V147q4.2-5.64,9.42-5.64h.3a2.51,2.51,0,0,1,1.89.78,2.66,2.66,0,0,1,.75,1.92,2.42,2.42,0,0,1-.78,1.86,2.81,2.81,0,0,1-2,.72h-.3A10.23,10.23,0,0,0,271.2,148a12.16,12.16,0,0,0-4,3.87v18.24a2.56,2.56,0,0,1-.81,1.92,2.71,2.71,0,0,1-1.95.78A2.61,2.61,0,0,1,262.5,172Z"/><path d="M286.05,168.94q-4.11-4.17-4.11-11.73a19.56,19.56,0,0,1,1.56-7.86,13.36,13.36,0,0,1,4.8-5.82,13.79,13.79,0,0,1,8-2.22,14,14,0,0,1,7.68,2.07,13.39,13.39,0,0,1,4.92,5.52,17,17,0,0,1,1.68,7.53,2.62,2.62,0,0,1-2.76,2.7H287.46a9.82,9.82,0,0,0,3.12,6.54Q293.22,168,298,168a18,18,0,0,0,4.41-.48,18.32,18.32,0,0,0,3.69-1.38,2.38,2.38,0,0,1,1.08-.24,2.43,2.43,0,0,1,1.68.66,2.18,2.18,0,0,1,.72,1.68,2.59,2.59,0,0,1-1.56,2.22,18.74,18.74,0,0,1-10.5,2.64Q290.16,173.11,286.05,168.94Zm19.11-14.25a9.61,9.61,0,0,0-1.53-4.92,8.26,8.26,0,0,0-3.33-2.91,9.15,9.15,0,0,0-8,0,8,8,0,0,0-3.3,2.91,9.79,9.79,0,0,0-1.5,4.92Z"/><path d="M316.59,143.35a1.78,1.78,0,0,1-.51-1.26,1.67,1.67,0,0,1,.9-1.5,6.85,6.85,0,0,0,2.28-2.1A6.41,6.41,0,0,0,320,135h-.24a3.38,3.38,0,0,1-3.36-3.36v-.36a3.38,3.38,0,0,1,3.36-3.36h.6a3.38,3.38,0,0,1,3.36,3.36v3.54a9.65,9.65,0,0,1-4.92,8.76,1.89,1.89,0,0,1-1,.3A1.63,1.63,0,0,1,316.59,143.35Z"/><path d="M329.34,170.41a2.29,2.29,0,0,1-1-2,2.41,2.41,0,0,1,.66-1.68,2.18,2.18,0,0,1,1.68-.72,2.64,2.64,0,0,1,1.08.24,23.91,23.91,0,0,0,3.84,1.32,17.85,17.85,0,0,0,4.32.48q6.66,0,6.66-4.26a2.27,2.27,0,0,0-1.53-2.1,31.68,31.68,0,0,0-5-1.62,45.27,45.27,0,0,1-5.85-1.74,10.29,10.29,0,0,1-4-2.73,6.89,6.89,0,0,1-1.65-4.83,8.65,8.65,0,0,1,3-6.84c2-1.76,4.91-2.64,8.67-2.64a25.05,25.05,0,0,1,8.7,1.5,2.25,2.25,0,0,1,1.29.9,2.41,2.41,0,0,1,.45,1.38,2.35,2.35,0,0,1-.69,1.68,2.27,2.27,0,0,1-1.71.72,3.37,3.37,0,0,1-.78-.12,23,23,0,0,0-6.84-1.08,9.37,9.37,0,0,0-5.07,1.17,3.49,3.49,0,0,0-1.83,3,2.77,2.77,0,0,0,1.68,2.64,23.8,23.8,0,0,0,5.22,1.62,50,50,0,0,1,5.76,1.77,9.52,9.52,0,0,1,3.81,2.73,7.41,7.41,0,0,1,1.59,5,7.93,7.93,0,0,1-3,6.36q-3,2.52-8.55,2.52A22.32,22.32,0,0,1,329.34,170.41Z"/><path d="M377.67,172a8.46,8.46,0,0,1-3.57-3.15,8.6,8.6,0,0,1-1.33-4.77,8.42,8.42,0,0,1,3.52-7.08q3.49-2.64,10.29-2.64h7.25v-.48q0-4-1.94-5.7c-1.31-1.16-3.33-1.74-6.1-1.74a20.28,20.28,0,0,0-4,.36,34.1,34.1,0,0,0-3.94,1.08,3.38,3.38,0,0,1-.77.12,2.13,2.13,0,0,1-1.56-.66,2.17,2.17,0,0,1-.67-1.62,2.31,2.31,0,0,1,1.57-2.28,26.32,26.32,0,0,1,10.38-2.16,13.58,13.58,0,0,1,7,1.68,10.69,10.69,0,0,1,4.2,4.35,12.64,12.64,0,0,1,1.34,5.79v17a2.59,2.59,0,0,1-.8,1.92,2.73,2.73,0,0,1-1.95.78,2.68,2.68,0,0,1-2.71-2.7v-1.56a15,15,0,0,1-11.27,4.56A11.12,11.12,0,0,1,377.67,172Zm12-5a14.26,14.26,0,0,0,4.13-3.21v-5h-6.54q-9.06,0-9.05,4.74a4.42,4.42,0,0,0,1.47,3.48c1,.88,2.6,1.32,4.89,1.32A10.91,10.91,0,0,0,389.7,167Z"/><path d="M430.25,171.19a14.78,14.78,0,0,1-5.85-5.52,17.44,17.44,0,0,1,0-16.92,14.78,14.78,0,0,1,5.85-5.52,16.92,16.92,0,0,1,8-1.92,16.63,16.63,0,0,1,5.49.81,20.74,20.74,0,0,1,4.29,2.07,2.39,2.39,0,0,1,.51,3.75,2.11,2.11,0,0,1-1.59.75,2.74,2.74,0,0,1-1.32-.36,22.85,22.85,0,0,0-3.39-1.47,11.7,11.7,0,0,0-3.51-.45,10.88,10.88,0,0,0-8.1,3,11.9,11.9,0,0,0,0,15.66,10.88,10.88,0,0,0,8.1,3,11.7,11.7,0,0,0,3.51-.45,22.85,22.85,0,0,0,3.39-1.47,2.74,2.74,0,0,1,1.32-.36,2.11,2.11,0,0,1,1.59.75,2.39,2.39,0,0,1-.51,3.75,20.74,20.74,0,0,1-4.29,2.07,16.63,16.63,0,0,1-5.49.81A16.92,16.92,0,0,1,430.25,171.19Z"/><path d="M461.21,171.13a13.46,13.46,0,0,1-5.37-5.61,19.21,19.21,0,0,1,0-16.62,13.46,13.46,0,0,1,5.37-5.61,17.44,17.44,0,0,1,16.14,0,13.65,13.65,0,0,1,5.4,5.61,18.94,18.94,0,0,1,0,16.62,13.65,13.65,0,0,1-5.4,5.61,17.44,17.44,0,0,1-16.14,0ZM474,167a9.16,9.16,0,0,0,3.72-3.6,12,12,0,0,0,1.47-6.24,11.88,11.88,0,0,0-1.47-6.18A9,9,0,0,0,474,147.4a10.52,10.52,0,0,0-4.71-1.11,10.64,10.64,0,0,0-4.77,1.11,8.78,8.78,0,0,0-3.69,3.57,12.08,12.08,0,0,0-1.44,6.18,12.21,12.21,0,0,0,1.44,6.24,9,9,0,0,0,3.69,3.6,10.41,10.41,0,0,0,4.77,1.14A10.29,10.29,0,0,0,474,167Z"/><path d="M498.83,172.09a3.66,3.66,0,0,1-1.32-1.8l-8.52-25a3.23,3.23,0,0,1-.18-1,2.66,2.66,0,0,1,2.7-2.7,2.74,2.74,0,0,1,1.53.45,2.21,2.21,0,0,1,.93,1.17l7,23.1,7-22.56a3.08,3.08,0,0,1,5.88,0l7,22.56,7-23.1a2.21,2.21,0,0,1,.93-1.17,2.74,2.74,0,0,1,1.53-.45,2.66,2.66,0,0,1,2.7,2.7,3.23,3.23,0,0,1-.18,1l-8.52,25a3.66,3.66,0,0,1-1.32,1.8,3.6,3.6,0,0,1-4.32,0,4,4,0,0,1-1.38-1.86l-6.36-19.86-6.36,19.86a4,4,0,0,1-1.38,1.86,3.6,3.6,0,0,1-4.32,0Z"/><path d="M557.9,172a8.52,8.52,0,0,1-3.57-3.15,8.68,8.68,0,0,1-1.32-4.77,8.41,8.41,0,0,1,3.51-7.08q3.51-2.64,10.29-2.64h7.26v-.48q0-4-2-5.7T566,146.47a20.45,20.45,0,0,0-4,.36,34,34,0,0,0-3.93,1.08,3.37,3.37,0,0,1-.78.12,2.13,2.13,0,0,1-1.56-.66,2.2,2.2,0,0,1-.66-1.62,2.31,2.31,0,0,1,1.56-2.28A26.39,26.39,0,0,1,567,141.31a13.55,13.55,0,0,1,7,1.68,10.56,10.56,0,0,1,4.2,4.35,12.65,12.65,0,0,1,1.35,5.79v17a2.56,2.56,0,0,1-.81,1.92,2.71,2.71,0,0,1-2,.78,2.66,2.66,0,0,1-2.7-2.7v-1.56a15.07,15.07,0,0,1-11.28,4.56A11.15,11.15,0,0,1,557.9,172Zm12-5a14.18,14.18,0,0,0,4.14-3.21v-5h-6.54q-9.06,0-9.06,4.74a4.45,4.45,0,0,0,1.47,3.48q1.47,1.32,4.89,1.32A10.85,10.85,0,0,0,569.93,167Z"/><path d="M589.49,172a2.61,2.61,0,0,1-.78-1.92V144.37a2.71,2.71,0,0,1,.78-2,2.56,2.56,0,0,1,1.92-.81,2.77,2.77,0,0,1,2.76,2.76v2.46a19.94,19.94,0,0,1,4.92-4,12.42,12.42,0,0,1,6.24-1.5,10.37,10.37,0,0,1,5.73,1.56,10.14,10.14,0,0,1,3.72,4.26,13.6,13.6,0,0,1,1.29,5.94v17a2.56,2.56,0,0,1-.81,1.92,2.71,2.71,0,0,1-2,.78,2.66,2.66,0,0,1-2.7-2.7V153.67q0-7.32-6.6-7.32a9.55,9.55,0,0,0-5.37,1.56,19.44,19.44,0,0,0-4.47,4.2v18a2.56,2.56,0,0,1-.81,1.92,2.71,2.71,0,0,1-2,.78A2.61,2.61,0,0,1,589.49,172Z"/><path d="M630.86,171.22a14.34,14.34,0,0,1-5.4-5.52,18.45,18.45,0,0,1,0-17,14.34,14.34,0,0,1,5.4-5.52,14.07,14.07,0,0,1,7-1.89,13.79,13.79,0,0,1,10.26,4.56v-14.7a2.63,2.63,0,0,1,.81-2,2.71,2.71,0,0,1,1.95-.78,2.56,2.56,0,0,1,1.92.81,2.71,2.71,0,0,1,.78,1.95v38.94a2.66,2.66,0,0,1-2.7,2.7A2.71,2.71,0,0,1,649,172a2.56,2.56,0,0,1-.81-1.92v-1.56a13.79,13.79,0,0,1-10.26,4.56A14.07,14.07,0,0,1,630.86,171.22Zm13-4.44a14.82,14.82,0,0,0,4.29-3.27v-12.6a14.82,14.82,0,0,0-4.29-3.27,11.33,11.33,0,0,0-5.19-1.23,9.43,9.43,0,0,0-7.14,2.82q-2.7,2.82-2.7,8t2.7,8a9.43,9.43,0,0,0,7.14,2.82A11.33,11.33,0,0,0,643.88,166.78Z"/><path d="M681.62,172a8.52,8.52,0,0,1-3.57-3.15,8.68,8.68,0,0,1-1.32-4.77,8.41,8.41,0,0,1,3.51-7.08q3.51-2.64,10.29-2.64h7.26v-.48q0-4-1.95-5.7t-6.09-1.74a20.45,20.45,0,0,0-4,.36,34,34,0,0,0-3.93,1.08,3.37,3.37,0,0,1-.78.12,2.13,2.13,0,0,1-1.56-.66,2.2,2.2,0,0,1-.66-1.62,2.31,2.31,0,0,1,1.56-2.28,26.39,26.39,0,0,1,10.38-2.16,13.55,13.55,0,0,1,7,1.68,10.56,10.56,0,0,1,4.2,4.35,12.65,12.65,0,0,1,1.35,5.79v17a2.56,2.56,0,0,1-.81,1.92,2.71,2.71,0,0,1-2,.78,2.66,2.66,0,0,1-2.7-2.7v-1.56a15.07,15.07,0,0,1-11.28,4.56A11.15,11.15,0,0,1,681.62,172Zm12-5a14.18,14.18,0,0,0,4.14-3.21v-5h-6.54q-9.06,0-9.06,4.74a4.45,4.45,0,0,0,1.47,3.48q1.47,1.32,4.89,1.32A10.85,10.85,0,0,0,693.65,167Z"/><path d="M733.64,171.22a14.34,14.34,0,0,1-5.4-5.52,18.45,18.45,0,0,1,0-17,14.34,14.34,0,0,1,5.4-5.52,14.07,14.07,0,0,1,7.05-1.89A13.79,13.79,0,0,1,751,145.87v-14.7a2.63,2.63,0,0,1,.81-2,2.71,2.71,0,0,1,2-.78,2.56,2.56,0,0,1,1.92.81,2.71,2.71,0,0,1,.78,1.95v38.94a2.66,2.66,0,0,1-2.7,2.7,2.71,2.71,0,0,1-2-.78,2.56,2.56,0,0,1-.81-1.92v-1.56a13.79,13.79,0,0,1-10.26,4.56A14.07,14.07,0,0,1,733.64,171.22Zm13-4.44a14.82,14.82,0,0,0,4.29-3.27v-12.6a14.82,14.82,0,0,0-4.29-3.27,11.33,11.33,0,0,0-5.19-1.23,9.43,9.43,0,0,0-7.14,2.82q-2.7,2.82-2.7,8t2.7,8a9.43,9.43,0,0,0,7.14,2.82A11.33,11.33,0,0,0,746.66,166.78Z"/><path d="M770.6,171.55a10.14,10.14,0,0,1-3.72-4.26,13.6,13.6,0,0,1-1.29-5.94v-17a2.56,2.56,0,0,1,.81-1.92,2.71,2.71,0,0,1,2-.78,2.66,2.66,0,0,1,2.7,2.7v16.44q0,7.32,6.6,7.32a9.55,9.55,0,0,0,5.37-1.56,19.44,19.44,0,0,0,4.47-4.2v-18a2.56,2.56,0,0,1,.81-1.92,2.71,2.71,0,0,1,2-.78,2.66,2.66,0,0,1,2.7,2.7v25.74a2.71,2.71,0,0,1-.78,1.95,2.56,2.56,0,0,1-1.92.81,2.77,2.77,0,0,1-2.76-2.76v-2.46a19.94,19.94,0,0,1-4.92,4,12.42,12.42,0,0,1-6.24,1.5A10.37,10.37,0,0,1,770.6,171.55Z"/><path d="M808.61,171.19a14.78,14.78,0,0,1-5.85-5.52,17.44,17.44,0,0,1,0-16.92,14.78,14.78,0,0,1,5.85-5.52,16.92,16.92,0,0,1,8-1.92,16.63,16.63,0,0,1,5.49.81,20.74,20.74,0,0,1,4.29,2.07,2.39,2.39,0,0,1,.51,3.75,2.11,2.11,0,0,1-1.59.75,2.74,2.74,0,0,1-1.32-.36,22.85,22.85,0,0,0-3.39-1.47,11.7,11.7,0,0,0-3.51-.45,10.88,10.88,0,0,0-8.1,3A11.9,11.9,0,0,0,809,165a10.88,10.88,0,0,0,8.1,3,11.7,11.7,0,0,0,3.51-.45,22.85,22.85,0,0,0,3.39-1.47,2.74,2.74,0,0,1,1.32-.36,2.11,2.11,0,0,1,1.59.75,2.39,2.39,0,0,1-.51,3.75,20.74,20.74,0,0,1-4.29,2.07,16.63,16.63,0,0,1-5.49.81A16.92,16.92,0,0,1,808.61,171.19Z"/><path d="M835.19,172a2.61,2.61,0,0,1-.78-1.92V131.17a2.71,2.71,0,0,1,.78-1.95,2.56,2.56,0,0,1,1.92-.81,2.77,2.77,0,0,1,2.76,2.76v24.54l14.28-13.2a2.76,2.76,0,0,1,1.8-.78,2.43,2.43,0,0,1,2,.78,2.87,2.87,0,0,1,.63,1.86,2.94,2.94,0,0,1-1,2l-8.64,7.74,10.86,14.4a2.63,2.63,0,0,1,.6,1.62,2.49,2.49,0,0,1-.78,1.92,2.81,2.81,0,0,1-2,.72,2.66,2.66,0,0,1-1.2-.3,3,3,0,0,1-1-.84l-10.32-14-5.22,4.74v7.74a2.56,2.56,0,0,1-.81,1.92,2.71,2.71,0,0,1-1.95.78A2.61,2.61,0,0,1,835.19,172Z"/><path d="M866.66,181a1.78,1.78,0,0,1-.51-1.26,1.67,1.67,0,0,1,.9-1.5,6.85,6.85,0,0,0,2.28-2.1,6.41,6.41,0,0,0,.78-3.48h-.24a3.38,3.38,0,0,1-3.36-3.36V169a3.38,3.38,0,0,1,3.36-3.36h.6a3.38,3.38,0,0,1,3.36,3.36v3.54a9.65,9.65,0,0,1-4.92,8.76,1.89,1.89,0,0,1-1,.3A1.63,1.63,0,0,1,866.66,181Z"/><path d="M158,244a8.52,8.52,0,0,1-3.57-3.15,8.68,8.68,0,0,1-1.32-4.77,8.41,8.41,0,0,1,3.51-7.08q3.51-2.64,10.29-2.64h7.26v-.48q0-4-2-5.7t-6.09-1.74a20.45,20.45,0,0,0-4.05.36,34,34,0,0,0-3.93,1.08,3.37,3.37,0,0,1-.78.12,2.13,2.13,0,0,1-1.56-.66,2.2,2.2,0,0,1-.66-1.62,2.31,2.31,0,0,1,1.56-2.28A26.39,26.39,0,0,1,167,213.31a13.55,13.55,0,0,1,7,1.68,10.56,10.56,0,0,1,4.2,4.35,12.65,12.65,0,0,1,1.35,5.79v17a2.56,2.56,0,0,1-.81,1.92,2.71,2.71,0,0,1-2,.78,2.66,2.66,0,0,1-2.7-2.7v-1.56a15.07,15.07,0,0,1-11.28,4.56A11.15,11.15,0,0,1,158,244Zm12-5a14.18,14.18,0,0,0,4.14-3.21v-5h-6.54q-9.06,0-9.06,4.74A4.45,4.45,0,0,0,160,239q1.47,1.32,4.89,1.32A10.85,10.85,0,0,0,170,239Z"/><path d="M189.54,244a2.61,2.61,0,0,1-.78-1.92V216.37a2.71,2.71,0,0,1,.78-2,2.56,2.56,0,0,1,1.92-.81,2.77,2.77,0,0,1,2.76,2.76v2.46a19.94,19.94,0,0,1,4.92-4,12.42,12.42,0,0,1,6.24-1.5,10.37,10.37,0,0,1,5.73,1.56,10.14,10.14,0,0,1,3.72,4.26,13.6,13.6,0,0,1,1.29,5.94v17a2.56,2.56,0,0,1-.81,1.92,2.71,2.71,0,0,1-1.95.78,2.66,2.66,0,0,1-2.7-2.7V225.67q0-7.32-6.6-7.32a9.55,9.55,0,0,0-5.37,1.56,19.44,19.44,0,0,0-4.47,4.2v18a2.56,2.56,0,0,1-.81,1.92,2.71,2.71,0,0,1-1.95.78A2.61,2.61,0,0,1,189.54,244Z"/><path d="M230.91,243.22a14.34,14.34,0,0,1-5.4-5.52,18.45,18.45,0,0,1,0-17,14.34,14.34,0,0,1,5.4-5.52,14.07,14.07,0,0,1,7.05-1.89,13.79,13.79,0,0,1,10.26,4.56v-14.7a2.63,2.63,0,0,1,.81-2,2.71,2.71,0,0,1,1.95-.78,2.56,2.56,0,0,1,1.92.81,2.71,2.71,0,0,1,.78,1.95v38.94a2.66,2.66,0,0,1-2.7,2.7A2.71,2.71,0,0,1,249,244a2.56,2.56,0,0,1-.81-1.92v-1.56A13.79,13.79,0,0,1,238,245.11,14.07,14.07,0,0,1,230.91,243.22Zm13-4.44a14.82,14.82,0,0,0,4.29-3.27v-12.6a14.82,14.82,0,0,0-4.29-3.27,11.33,11.33,0,0,0-5.19-1.23,9.43,9.43,0,0,0-7.14,2.82q-2.7,2.82-2.7,8t2.7,8a9.43,9.43,0,0,0,7.14,2.82A11.33,11.33,0,0,0,243.93,238.78Z"/><path d="M281.67,244a8.52,8.52,0,0,1-3.57-3.15,8.68,8.68,0,0,1-1.32-4.77,8.41,8.41,0,0,1,3.51-7.08q3.51-2.64,10.29-2.64h7.26v-.48q0-4-1.95-5.7t-6.09-1.74a20.31,20.31,0,0,0-4.05.36,34,34,0,0,0-3.93,1.08,3.37,3.37,0,0,1-.78.12,2.13,2.13,0,0,1-1.56-.66,2.2,2.2,0,0,1-.66-1.62,2.3,2.3,0,0,1,1.56-2.28,26.35,26.35,0,0,1,10.38-2.16,13.55,13.55,0,0,1,7,1.68,10.56,10.56,0,0,1,4.2,4.35,12.65,12.65,0,0,1,1.35,5.79v17a2.56,2.56,0,0,1-.81,1.92,2.73,2.73,0,0,1-1.95.78,2.66,2.66,0,0,1-2.7-2.7v-1.56a15.07,15.07,0,0,1-11.28,4.56A11.12,11.12,0,0,1,281.67,244Zm12-5a14.18,14.18,0,0,0,4.14-3.21v-5H291.3q-9.06,0-9.06,4.74a4.45,4.45,0,0,0,1.47,3.48q1.47,1.32,4.89,1.32A10.85,10.85,0,0,0,293.7,239Z"/><path d="M333.54,240.55v1.56a2.56,2.56,0,0,1-.81,1.92,2.73,2.73,0,0,1-2,.78,2.65,2.65,0,0,1-2.69-2.7V203.17a2.7,2.7,0,0,1,.77-1.95,2.56,2.56,0,0,1,1.92-.81,2.68,2.68,0,0,1,2.77,2.76v14.7a13.75,13.75,0,0,1,10.25-4.56,14.07,14.07,0,0,1,7,1.89,14.43,14.43,0,0,1,5.41,5.52,18.53,18.53,0,0,1,0,17,14.43,14.43,0,0,1-5.41,5.52,14.07,14.07,0,0,1-7,1.89A13.75,13.75,0,0,1,333.54,240.55Zm16.61-3.36c1.81-1.88,2.7-4.54,2.7-8s-.89-6.1-2.7-8a9.42,9.42,0,0,0-7.13-2.82,11.27,11.27,0,0,0-5.19,1.23,14.69,14.69,0,0,0-4.29,3.27v12.6a14.69,14.69,0,0,0,4.29,3.27A11.27,11.27,0,0,0,343,240,9.42,9.42,0,0,0,350.15,237.19Z"/><path d="M368.19,240.94q-4.12-4.17-4.12-11.73a19.56,19.56,0,0,1,1.56-7.86,13.31,13.31,0,0,1,4.81-5.82,13.74,13.74,0,0,1,8-2.22,13.92,13.92,0,0,1,7.67,2.07A13.39,13.39,0,0,1,391,220.9a17,17,0,0,1,1.68,7.53,2.62,2.62,0,0,1-2.75,2.7H369.59a9.87,9.87,0,0,0,3.12,6.54q2.64,2.34,7.38,2.34a18,18,0,0,0,4.41-.48,18.32,18.32,0,0,0,3.69-1.38,2.38,2.38,0,0,1,1.08-.24,2.41,2.41,0,0,1,1.68.66,2.15,2.15,0,0,1,.72,1.68,2.59,2.59,0,0,1-1.56,2.22,18.74,18.74,0,0,1-10.5,2.64Q372.29,245.11,368.19,240.94Zm19.1-14.25a9.52,9.52,0,0,0-1.53-4.92,8.3,8.3,0,0,0-3.32-2.91,9.44,9.44,0,0,0-4-.93,9.3,9.3,0,0,0-4,.93,8,8,0,0,0-3.31,2.91,9.79,9.79,0,0,0-1.5,4.92Z"/><path d="M402.8,244a8.52,8.52,0,0,1-3.57-3.15,8.68,8.68,0,0,1-1.32-4.77,8.41,8.41,0,0,1,3.51-7.08q3.51-2.64,10.29-2.64H419v-.48q0-4-2-5.7t-6.09-1.74a20.45,20.45,0,0,0-4.05.36,34.54,34.54,0,0,0-3.93,1.08,3.37,3.37,0,0,1-.78.12,2.13,2.13,0,0,1-1.56-.66,2.2,2.2,0,0,1-.66-1.62,2.31,2.31,0,0,1,1.56-2.28,26.4,26.4,0,0,1,10.39-2.16,13.54,13.54,0,0,1,7,1.68,10.56,10.56,0,0,1,4.2,4.35,12.65,12.65,0,0,1,1.35,5.79v17a2.56,2.56,0,0,1-.81,1.92,2.71,2.71,0,0,1-1.95.78,2.66,2.66,0,0,1-2.7-2.7v-1.56a15.07,15.07,0,0,1-11.28,4.56A11.15,11.15,0,0,1,402.8,244Zm12-5a14.18,14.18,0,0,0,4.14-3.21v-5h-6.54q-9.06,0-9.05,4.74a4.44,4.44,0,0,0,1.46,3.48q1.47,1.32,4.89,1.32A10.85,10.85,0,0,0,414.83,239Z"/><path d="M434.39,244a2.61,2.61,0,0,1-.78-1.92V216.37a2.71,2.71,0,0,1,.78-2,2.56,2.56,0,0,1,1.92-.81,2.77,2.77,0,0,1,2.76,2.76V219q4.2-5.64,9.42-5.64h.3a2.51,2.51,0,0,1,1.89.78,2.66,2.66,0,0,1,.75,1.92,2.42,2.42,0,0,1-.78,1.86,2.81,2.81,0,0,1-2,.72h-.3a10.23,10.23,0,0,0-5.28,1.41,12.16,12.16,0,0,0-4,3.87v18.24a2.56,2.56,0,0,1-.81,1.92,2.71,2.71,0,0,1-1.95.78A2.61,2.61,0,0,1,434.39,244Z"/><path d="M479.15,244.09a3.66,3.66,0,0,1-1.32-1.8l-8.52-25a3.23,3.23,0,0,1-.18-1,2.66,2.66,0,0,1,2.7-2.7,2.74,2.74,0,0,1,1.53.45,2.21,2.21,0,0,1,.93,1.17l7,23.1,7-22.56a3.08,3.08,0,0,1,5.88,0l7,22.56,7-23.1a2.21,2.21,0,0,1,.93-1.17,2.74,2.74,0,0,1,1.53-.45,2.66,2.66,0,0,1,2.7,2.7,3.23,3.23,0,0,1-.18,1l-8.52,25a3.66,3.66,0,0,1-1.32,1.8,3.6,3.6,0,0,1-4.32,0,4,4,0,0,1-1.38-1.86l-6.36-19.86-6.36,19.86a4,4,0,0,1-1.38,1.86,3.6,3.6,0,0,1-4.32,0Z"/><path d="M520.13,206.77a3,3,0,0,1-.9-2.16v-.24a3.07,3.07,0,0,1,3.06-3.06h.36a3.07,3.07,0,0,1,3.06,3.06v.24a3.07,3.07,0,0,1-3.06,3.06h-.36A3,3,0,0,1,520.13,206.77Zm.36,37.26a2.61,2.61,0,0,1-.78-1.92V216.37a2.71,2.71,0,0,1,.78-2,2.56,2.56,0,0,1,1.92-.81,2.67,2.67,0,0,1,2.76,2.76v25.74a2.56,2.56,0,0,1-.81,1.92,2.71,2.71,0,0,1-2,.78A2.61,2.61,0,0,1,520.49,244Z"/><path d="M536.45,237.19v-18.6h-4.26a1.13,1.13,0,0,1-1.14-1.14,1.25,1.25,0,0,1,.54-1l8.16-8a1.51,1.51,0,0,1,1-.54,1.06,1.06,0,0,1,.81.36,1.2,1.2,0,0,1,.33.84v4.8h6.78a2.26,2.26,0,0,1,2.34,2.34,2.3,2.3,0,0,1-.66,1.65,2.22,2.22,0,0,1-1.68.69h-6.78v18.12q0,2.34,1.11,3a5.59,5.59,0,0,0,2.79.63,8.32,8.32,0,0,0,2.4-.36l.51-.12a3.27,3.27,0,0,1,.69-.06,2.11,2.11,0,0,1,1.5.63,2,2,0,0,1,.66,1.53,2.27,2.27,0,0,1-1.38,2.1,11.74,11.74,0,0,1-5,1.08Q536.45,245.11,536.45,237.19Z"/><path d="M558.35,244a2.61,2.61,0,0,1-.78-1.92V203.17a2.71,2.71,0,0,1,.78-1.95,2.56,2.56,0,0,1,1.92-.81,2.77,2.77,0,0,1,2.76,2.76v15.66a19.94,19.94,0,0,1,4.92-4,12.42,12.42,0,0,1,6.24-1.5,10.37,10.37,0,0,1,5.73,1.56,10.14,10.14,0,0,1,3.72,4.26,13.6,13.6,0,0,1,1.29,5.94v17a2.56,2.56,0,0,1-.81,1.92,2.71,2.71,0,0,1-2,.78,2.66,2.66,0,0,1-2.7-2.7V225.67q0-7.32-6.6-7.32a9.55,9.55,0,0,0-5.37,1.56,19.44,19.44,0,0,0-4.47,4.2v18a2.56,2.56,0,0,1-.81,1.92,2.71,2.71,0,0,1-2,.78A2.61,2.61,0,0,1,558.35,244Z"/><path d="M612.62,244a8.52,8.52,0,0,1-3.57-3.15,8.68,8.68,0,0,1-1.32-4.77,8.41,8.41,0,0,1,3.51-7.08q3.51-2.64,10.29-2.64h7.26v-.48q0-4-1.95-5.7t-6.09-1.74a20.45,20.45,0,0,0-4,.36,34,34,0,0,0-3.93,1.08,3.37,3.37,0,0,1-.78.12,2.13,2.13,0,0,1-1.56-.66,2.2,2.2,0,0,1-.66-1.62,2.31,2.31,0,0,1,1.56-2.28,26.39,26.39,0,0,1,10.38-2.16,13.55,13.55,0,0,1,7,1.68,10.56,10.56,0,0,1,4.2,4.35,12.65,12.65,0,0,1,1.35,5.79v17a2.56,2.56,0,0,1-.81,1.92,2.71,2.71,0,0,1-2,.78,2.66,2.66,0,0,1-2.7-2.7v-1.56a15.07,15.07,0,0,1-11.28,4.56A11.15,11.15,0,0,1,612.62,244Zm12-5a14.18,14.18,0,0,0,4.14-3.21v-5h-6.54q-9.06,0-9.06,4.74a4.45,4.45,0,0,0,1.47,3.48q1.47,1.32,4.89,1.32A10.85,10.85,0,0,0,624.65,239Z"/><path d="M664.49,240.55v1.56a2.56,2.56,0,0,1-.81,1.92,2.71,2.71,0,0,1-1.95.78,2.66,2.66,0,0,1-2.7-2.7V203.17a2.71,2.71,0,0,1,.78-1.95,2.56,2.56,0,0,1,1.92-.81,2.67,2.67,0,0,1,2.76,2.76v14.7a13.79,13.79,0,0,1,10.26-4.56,14.07,14.07,0,0,1,7,1.89,14.34,14.34,0,0,1,5.4,5.52,18.45,18.45,0,0,1,0,17,14.34,14.34,0,0,1-5.4,5.52,14.07,14.07,0,0,1-7,1.89A13.79,13.79,0,0,1,664.49,240.55Zm16.62-3.36q2.7-2.82,2.7-8t-2.7-8a9.43,9.43,0,0,0-7.14-2.82,11.33,11.33,0,0,0-5.19,1.23,14.82,14.82,0,0,0-4.29,3.27v12.6a14.82,14.82,0,0,0,4.29,3.27A11.33,11.33,0,0,0,674,240,9.43,9.43,0,0,0,681.11,237.19Z"/><path d="M699.14,240.94Q695,236.77,695,229.21a19.56,19.56,0,0,1,1.56-7.86,13.36,13.36,0,0,1,4.8-5.82,13.79,13.79,0,0,1,8-2.22,14,14,0,0,1,7.68,2.07A13.39,13.39,0,0,1,722,220.9a17,17,0,0,1,1.68,7.53,2.62,2.62,0,0,1-2.76,2.7H700.55a9.87,9.87,0,0,0,3.12,6.54q2.64,2.34,7.38,2.34a18,18,0,0,0,4.41-.48,18.32,18.32,0,0,0,3.69-1.38,2.38,2.38,0,0,1,1.08-.24,2.41,2.41,0,0,1,1.68.66,2.18,2.18,0,0,1,.72,1.68,2.59,2.59,0,0,1-1.56,2.22,18.74,18.74,0,0,1-10.5,2.64Q703.25,245.11,699.14,240.94Zm19.11-14.25a9.61,9.61,0,0,0-1.53-4.92,8.26,8.26,0,0,0-3.33-2.91,9.15,9.15,0,0,0-8,0,8.06,8.06,0,0,0-3.3,2.91,9.79,9.79,0,0,0-1.5,4.92Z"/><path d="M731.63,244a2.61,2.61,0,0,1-.78-1.92V203.17a2.71,2.71,0,0,1,.78-1.95,2.56,2.56,0,0,1,1.92-.81,2.67,2.67,0,0,1,2.76,2.76v38.94a2.56,2.56,0,0,1-.81,1.92,2.71,2.71,0,0,1-2,.78A2.61,2.61,0,0,1,731.63,244Z"/><path d="M746.57,244a2.61,2.61,0,0,1-.78-1.92V203.17a2.71,2.71,0,0,1,.78-1.95,2.56,2.56,0,0,1,1.92-.81,2.67,2.67,0,0,1,2.76,2.76v38.94a2.56,2.56,0,0,1-.81,1.92,2.71,2.71,0,0,1-2,.78A2.61,2.61,0,0,1,746.57,244Z"/><path d="M762,243.7a3.47,3.47,0,0,1-1.05-2.55,3.59,3.59,0,0,1,3.54-3.54,3.47,3.47,0,0,1,2.55,1,3.4,3.4,0,0,1,1,2.49,3.59,3.59,0,0,1-3.6,3.6A3.4,3.4,0,0,1,762,243.7Zm1-11.25a1.8,1.8,0,0,1-.6-1.26l-1.08-19.8v-5.94a3.07,3.07,0,0,1,3.12-3.12,2.92,2.92,0,0,1,2.19.9,3.07,3.07,0,0,1,.87,2.22v5.94l-1.08,19.8a1.86,1.86,0,0,1-.57,1.26,2,2,0,0,1-1.41.48A2.09,2.09,0,0,1,763,232.45Z"/><path d="M1212.23,200.4a3.64,3.64,0,0,1-1.11-2.67V162.09a2.71,2.71,0,0,1,.78-2,2.56,2.56,0,0,1,1.92-.81,2.77,2.77,0,0,1,2.76,2.76v34h19.62a2.77,2.77,0,0,1,2.76,2.76,2.56,2.56,0,0,1-.81,1.92,2.71,2.71,0,0,1-2,.78h-21.3A3.64,3.64,0,0,1,1212.23,200.4Z"/><path d="M1246.85,197.94q-4.11-4.17-4.11-11.73a19.56,19.56,0,0,1,1.56-7.86,13.36,13.36,0,0,1,4.8-5.82,13.79,13.79,0,0,1,8-2.22,14,14,0,0,1,7.68,2.07,13.39,13.39,0,0,1,4.92,5.52,17,17,0,0,1,1.68,7.53,2.62,2.62,0,0,1-2.76,2.7h-20.34a9.87,9.87,0,0,0,3.12,6.54q2.64,2.34,7.38,2.34a18,18,0,0,0,4.41-.48,18.32,18.32,0,0,0,3.69-1.38,2.38,2.38,0,0,1,1.08-.24,2.41,2.41,0,0,1,1.68.66,2.18,2.18,0,0,1,.72,1.68,2.59,2.59,0,0,1-1.56,2.22,18.74,18.74,0,0,1-10.5,2.64Q1251,202.11,1246.85,197.94ZM1266,183.69a9.61,9.61,0,0,0-1.53-4.92,8.26,8.26,0,0,0-3.33-2.91,9.15,9.15,0,0,0-8,0,8.06,8.06,0,0,0-3.3,2.91,9.79,9.79,0,0,0-1.5,4.92Z"/><path d="M1280.36,194.19v-18.6h-4.26a1.13,1.13,0,0,1-1.14-1.14,1.25,1.25,0,0,1,.54-1l8.16-8a1.51,1.51,0,0,1,1-.54,1.06,1.06,0,0,1,.81.36,1.2,1.2,0,0,1,.33.84v4.8h6.78a2.26,2.26,0,0,1,2.34,2.34,2.3,2.3,0,0,1-.66,1.65,2.22,2.22,0,0,1-1.68.69h-6.78v18.12q0,2.34,1.11,3a5.59,5.59,0,0,0,2.79.63,8.32,8.32,0,0,0,2.4-.36l.51-.12a3.27,3.27,0,0,1,.69-.06,2.11,2.11,0,0,1,1.5.63,2,2,0,0,1,.66,1.53,2.27,2.27,0,0,1-1.38,2.1,11.74,11.74,0,0,1-5,1.08Q1280.36,202.11,1280.36,194.19Z"/><path d="M1301,172.35a1.78,1.78,0,0,1-.51-1.26,1.67,1.67,0,0,1,.9-1.5,7.05,7.05,0,0,0,2.28-2.1,6.5,6.5,0,0,0,.78-3.48h-.24a3.38,3.38,0,0,1-3.36-3.36v-.36a3.38,3.38,0,0,1,3.36-3.36h.6a3.38,3.38,0,0,1,3.36,3.36v3.54a9.67,9.67,0,0,1-4.92,8.76,1.92,1.92,0,0,1-1,.3A1.62,1.62,0,0,1,1301,172.35Z"/><path d="M1313.78,199.41a2.27,2.27,0,0,1-1-2,2.36,2.36,0,0,1,.66-1.68,2.15,2.15,0,0,1,1.68-.72,2.68,2.68,0,0,1,1.08.24,23.91,23.91,0,0,0,3.84,1.32,17.7,17.7,0,0,0,4.31.48q6.68,0,6.67-4.26a2.27,2.27,0,0,0-1.53-2.1,31.68,31.68,0,0,0-5-1.62,45,45,0,0,1-5.86-1.74,10.18,10.18,0,0,1-3.95-2.73,6.89,6.89,0,0,1-1.65-4.83,8.62,8.62,0,0,1,3-6.84c2-1.76,4.91-2.64,8.67-2.64a25.09,25.09,0,0,1,8.7,1.5,2.25,2.25,0,0,1,1.29.9,2.37,2.37,0,0,1-.24,3.06,2.29,2.29,0,0,1-1.71.72,3.23,3.23,0,0,1-.78-.12,23.1,23.1,0,0,0-6.84-1.08,9.35,9.35,0,0,0-5.07,1.17,3.47,3.47,0,0,0-1.83,3,2.76,2.76,0,0,0,1.68,2.64,23.62,23.62,0,0,0,5.22,1.62,50,50,0,0,1,5.76,1.77,9.66,9.66,0,0,1,3.81,2.73,7.46,7.46,0,0,1,1.59,5,8,8,0,0,1-3,6.36q-3,2.52-8.55,2.52A22.26,22.26,0,0,1,1313.78,199.41Z"/><path d="M1366.45,215a23,23,0,0,1-5.82-2.22,2.28,2.28,0,0,1-1.08-2.1,2.46,2.46,0,0,1,.69-1.71,2.23,2.23,0,0,1,1.71-.75,3,3,0,0,1,1.08.24,21.83,21.83,0,0,0,9.9,2.28q9.18,0,9.18-9.78v-4a13.54,13.54,0,0,1-10.26,4.56,14.46,14.46,0,0,1-6.87-1.77,14.3,14.3,0,0,1-5.49-5.28,18,18,0,0,1,0-17.1,14.3,14.3,0,0,1,5.49-5.28,14.46,14.46,0,0,1,6.87-1.77,13.54,13.54,0,0,1,10.26,4.56v-1.5a2.71,2.71,0,0,1,.78-2,2.56,2.56,0,0,1,1.92-.81,2.77,2.77,0,0,1,2.76,2.76v26.82q0,7.56-3.66,11.64t-10.44,4.08A28.4,28.4,0,0,1,1366.45,215ZM1378,195.33a18,18,0,0,0,4.14-3.24V179.73a18,18,0,0,0-4.14-3.24,10.08,10.08,0,0,0-5-1.2,10.19,10.19,0,0,0-7.35,2.73q-2.85,2.73-2.85,7.89t2.85,7.89a10.19,10.19,0,0,0,7.35,2.73A10.08,10.08,0,0,0,1378,195.33Z"/><path d="M1399.3,197.94q-4.11-4.17-4.11-11.73a19.56,19.56,0,0,1,1.56-7.86,13.36,13.36,0,0,1,4.8-5.82,13.79,13.79,0,0,1,8-2.22,14,14,0,0,1,7.68,2.07,13.39,13.39,0,0,1,4.92,5.52,17,17,0,0,1,1.68,7.53,2.62,2.62,0,0,1-2.76,2.7h-20.34a9.87,9.87,0,0,0,3.12,6.54q2.64,2.34,7.38,2.34a18,18,0,0,0,4.41-.48,18.32,18.32,0,0,0,3.69-1.38,2.38,2.38,0,0,1,1.08-.24,2.41,2.41,0,0,1,1.68.66,2.18,2.18,0,0,1,.72,1.68,2.59,2.59,0,0,1-1.56,2.22,18.74,18.74,0,0,1-10.5,2.64Q1403.41,202.11,1399.3,197.94Zm19.11-14.25a9.61,9.61,0,0,0-1.53-4.92,8.26,8.26,0,0,0-3.33-2.91,9.15,9.15,0,0,0-8,0,8.06,8.06,0,0,0-3.3,2.91,9.79,9.79,0,0,0-1.5,4.92Z"/><path d="M1432.81,194.19v-18.6h-4.26a1.13,1.13,0,0,1-1.14-1.14,1.25,1.25,0,0,1,.54-1l8.16-8a1.51,1.51,0,0,1,1-.54,1.06,1.06,0,0,1,.81.36,1.2,1.2,0,0,1,.33.84v4.8h6.78a2.26,2.26,0,0,1,2.34,2.34,2.3,2.3,0,0,1-.66,1.65,2.22,2.22,0,0,1-1.68.69h-6.78v18.12q0,2.34,1.11,3a5.59,5.59,0,0,0,2.79.63,8.32,8.32,0,0,0,2.4-.36l.51-.12a3.27,3.27,0,0,1,.69-.06,2.11,2.11,0,0,1,1.5.63,2,2,0,0,1,.66,1.53,2.27,2.27,0,0,1-1.38,2.1,11.74,11.74,0,0,1-5,1.08Q1432.81,202.11,1432.81,194.19Z"/><path d="M1471.33,194.19v-18.6h-4.26a1.13,1.13,0,0,1-1.14-1.14,1.25,1.25,0,0,1,.54-1l8.16-8a1.51,1.51,0,0,1,1-.54,1.06,1.06,0,0,1,.81.36,1.2,1.2,0,0,1,.33.84v4.8h6.78a2.26,2.26,0,0,1,2.34,2.34,2.3,2.3,0,0,1-.66,1.65,2.22,2.22,0,0,1-1.68.69h-6.78v18.12q0,2.34,1.11,3a5.59,5.59,0,0,0,2.79.63,8.32,8.32,0,0,0,2.4-.36l.51-.12a3.27,3.27,0,0,1,.69-.06,2.11,2.11,0,0,1,1.5.63,2,2,0,0,1,.66,1.53,2.27,2.27,0,0,1-1.38,2.1,11.74,11.74,0,0,1-5,1.08Q1471.33,202.11,1471.33,194.19Z"/><path d="M1493.23,201a2.61,2.61,0,0,1-.78-1.92V160.17a2.71,2.71,0,0,1,.78-1.95,2.56,2.56,0,0,1,1.92-.81,2.77,2.77,0,0,1,2.76,2.76v15.66a19.94,19.94,0,0,1,4.92-4,12.42,12.42,0,0,1,6.24-1.5,10.37,10.37,0,0,1,5.73,1.56,10.14,10.14,0,0,1,3.72,4.26,13.6,13.6,0,0,1,1.29,5.94v17A2.56,2.56,0,0,1,1519,201a2.71,2.71,0,0,1-2,.78,2.66,2.66,0,0,1-2.7-2.7V182.67q0-7.32-6.6-7.32a9.55,9.55,0,0,0-5.37,1.56,19.44,19.44,0,0,0-4.47,4.2v18a2.56,2.56,0,0,1-.81,1.92,2.71,2.71,0,0,1-1.95.78A2.61,2.61,0,0,1,1493.23,201Z"/><path d="M1531.24,197.94q-4.11-4.17-4.11-11.73a19.56,19.56,0,0,1,1.56-7.86,13.36,13.36,0,0,1,4.8-5.82,13.79,13.79,0,0,1,8-2.22,14,14,0,0,1,7.68,2.07,13.39,13.39,0,0,1,4.92,5.52,17,17,0,0,1,1.68,7.53,2.62,2.62,0,0,1-2.76,2.7h-20.34a9.87,9.87,0,0,0,3.12,6.54q2.64,2.34,7.38,2.34a18,18,0,0,0,4.41-.48,18.32,18.32,0,0,0,3.69-1.38,2.38,2.38,0,0,1,1.08-.24,2.41,2.41,0,0,1,1.68.66,2.18,2.18,0,0,1,.72,1.68,2.59,2.59,0,0,1-1.56,2.22,18.74,18.74,0,0,1-10.5,2.64Q1535.35,202.11,1531.24,197.94Zm19.11-14.25a9.61,9.61,0,0,0-1.53-4.92,8.26,8.26,0,0,0-3.33-2.91,9.15,9.15,0,0,0-8,0,8.06,8.06,0,0,0-3.3,2.91,9.79,9.79,0,0,0-1.5,4.92Z"/><path d="M1563.37,163.77a3,3,0,0,1-.9-2.16v-.24a3.07,3.07,0,0,1,3.06-3.06h.36a3.07,3.07,0,0,1,3.06,3.06v.24a3.07,3.07,0,0,1-3.06,3.06h-.36A3,3,0,0,1,1563.37,163.77Zm.36,37.26a2.61,2.61,0,0,1-.78-1.92V173.37a2.71,2.71,0,0,1,.78-2,2.56,2.56,0,0,1,1.92-.81,2.67,2.67,0,0,1,2.76,2.76v25.74a2.56,2.56,0,0,1-.81,1.92,2.71,2.71,0,0,1-1.95.78A2.61,2.61,0,0,1,1563.73,201Z"/><path d="M1578.67,201a2.61,2.61,0,0,1-.78-1.92V173.37a2.71,2.71,0,0,1,.78-2,2.56,2.56,0,0,1,1.92-.81,2.77,2.77,0,0,1,2.76,2.76V176q4.2-5.64,9.42-5.64h.3a2.51,2.51,0,0,1,1.89.78,2.66,2.66,0,0,1,.75,1.92,2.42,2.42,0,0,1-.78,1.86,2.81,2.81,0,0,1-2,.72h-.3a10.23,10.23,0,0,0-5.28,1.41,12.16,12.16,0,0,0-4,3.87v18.24a2.56,2.56,0,0,1-.81,1.92,2.71,2.71,0,0,1-2,.78A2.61,2.61,0,0,1,1578.67,201Z"/><path d="M1619.38,201a8.52,8.52,0,0,1-3.57-3.15,8.68,8.68,0,0,1-1.32-4.77A8.41,8.41,0,0,1,1618,186q3.51-2.64,10.29-2.64h7.26v-.48q0-4-2-5.7t-6.09-1.74a20.45,20.45,0,0,0-4,.36,34,34,0,0,0-3.93,1.08,3.37,3.37,0,0,1-.78.12,2.13,2.13,0,0,1-1.56-.66,2.2,2.2,0,0,1-.66-1.62,2.31,2.31,0,0,1,1.56-2.28,26.39,26.39,0,0,1,10.38-2.16,13.55,13.55,0,0,1,7,1.68,10.56,10.56,0,0,1,4.2,4.35,12.65,12.65,0,0,1,1.35,5.79v17a2.56,2.56,0,0,1-.81,1.92,2.71,2.71,0,0,1-2,.78,2.66,2.66,0,0,1-2.7-2.7v-1.56a15.07,15.07,0,0,1-11.28,4.56A11.15,11.15,0,0,1,1619.38,201Zm12-5a14.18,14.18,0,0,0,4.14-3.21v-5H1629q-9.06,0-9.06,4.74a4.45,4.45,0,0,0,1.47,3.48q1.47,1.32,4.89,1.32A10.85,10.85,0,0,0,1631.41,196Z"/><path d="M1651.27,194.19v-18.6H1647a1.13,1.13,0,0,1-1.14-1.14,1.25,1.25,0,0,1,.54-1l8.16-8a1.51,1.51,0,0,1,1-.54,1.06,1.06,0,0,1,.81.36,1.2,1.2,0,0,1,.33.84v4.8h6.78a2.26,2.26,0,0,1,2.34,2.34,2.3,2.3,0,0,1-.66,1.65,2.22,2.22,0,0,1-1.68.69h-6.78v18.12q0,2.34,1.11,3a5.59,5.59,0,0,0,2.79.63,8.32,8.32,0,0,0,2.4-.36l.51-.12a3.27,3.27,0,0,1,.69-.06,2.11,2.11,0,0,1,1.5.63,2,2,0,0,1,.66,1.53A2.27,2.27,0,0,1,1665,201a11.74,11.74,0,0,1-5,1.08Q1651.27,202.11,1651.27,194.19Z"/><path d="M1674.19,194.19v-18.6h-4.26a1.13,1.13,0,0,1-1.14-1.14,1.25,1.25,0,0,1,.54-1l8.16-8a1.51,1.51,0,0,1,1-.54,1.06,1.06,0,0,1,.81.36,1.2,1.2,0,0,1,.33.84v4.8h6.78a2.26,2.26,0,0,1,2.34,2.34,2.3,2.3,0,0,1-.66,1.65,2.22,2.22,0,0,1-1.68.69h-6.78v18.12q0,2.34,1.11,3a5.59,5.59,0,0,0,2.79.63,8.32,8.32,0,0,0,2.4-.36l.51-.12a3.27,3.27,0,0,1,.69-.06,2.11,2.11,0,0,1,1.5.63,2,2,0,0,1,.66,1.53,2.27,2.27,0,0,1-1.38,2.1,11.74,11.74,0,0,1-5,1.08Q1674.19,202.11,1674.19,194.19Z"/><path d="M1697.14,197.94q-4.11-4.17-4.11-11.73a19.56,19.56,0,0,1,1.56-7.86,13.36,13.36,0,0,1,4.8-5.82,13.79,13.79,0,0,1,8-2.22,14,14,0,0,1,7.68,2.07,13.39,13.39,0,0,1,4.92,5.52,17,17,0,0,1,1.68,7.53,2.62,2.62,0,0,1-2.76,2.7h-20.34a9.87,9.87,0,0,0,3.12,6.54q2.64,2.34,7.38,2.34a18,18,0,0,0,4.41-.48,18.32,18.32,0,0,0,3.69-1.38,2.38,2.38,0,0,1,1.08-.24,2.41,2.41,0,0,1,1.68.66,2.18,2.18,0,0,1,.72,1.68,2.59,2.59,0,0,1-1.56,2.22,18.74,18.74,0,0,1-10.5,2.64Q1701.25,202.11,1697.14,197.94Zm19.11-14.25a9.61,9.61,0,0,0-1.53-4.92,8.26,8.26,0,0,0-3.33-2.91,9.15,9.15,0,0,0-8,0,8.06,8.06,0,0,0-3.3,2.91,9.79,9.79,0,0,0-1.5,4.92Z"/><path d="M1729.63,201a2.61,2.61,0,0,1-.78-1.92V173.37a2.71,2.71,0,0,1,.78-2,2.56,2.56,0,0,1,1.92-.81,2.77,2.77,0,0,1,2.76,2.76v2.46a19.94,19.94,0,0,1,4.92-4,12.42,12.42,0,0,1,6.24-1.5,10.37,10.37,0,0,1,5.73,1.56,10.14,10.14,0,0,1,3.72,4.26,13.6,13.6,0,0,1,1.29,5.94v17a2.56,2.56,0,0,1-.81,1.92,2.71,2.71,0,0,1-2,.78,2.66,2.66,0,0,1-2.7-2.7V182.67q0-7.32-6.6-7.32a9.55,9.55,0,0,0-5.37,1.56,19.44,19.44,0,0,0-4.47,4.2v18a2.56,2.56,0,0,1-.81,1.92,2.71,2.71,0,0,1-2,.78A2.61,2.61,0,0,1,1729.63,201Z"/><path d="M1766.47,194.19v-18.6h-4.26a1.13,1.13,0,0,1-1.14-1.14,1.25,1.25,0,0,1,.54-1l8.16-8a1.51,1.51,0,0,1,1-.54,1.06,1.06,0,0,1,.81.36,1.2,1.2,0,0,1,.33.84v4.8h6.78a2.26,2.26,0,0,1,2.34,2.34,2.3,2.3,0,0,1-.66,1.65,2.22,2.22,0,0,1-1.68.69h-6.78v18.12q0,2.34,1.11,3a5.59,5.59,0,0,0,2.79.63,8.32,8.32,0,0,0,2.4-.36l.51-.12a3.27,3.27,0,0,1,.69-.06,2.11,2.11,0,0,1,1.5.63,2,2,0,0,1,.66,1.53,2.27,2.27,0,0,1-1.38,2.1,11.74,11.74,0,0,1-5,1.08Q1766.47,202.11,1766.47,194.19Z"/><path d="M1788,163.77a3,3,0,0,1-.9-2.16v-.24a3.07,3.07,0,0,1,3.06-3.06h.36a3.07,3.07,0,0,1,3.06,3.06v.24a3.07,3.07,0,0,1-3.06,3.06h-.36A3,3,0,0,1,1788,163.77Zm.36,37.26a2.61,2.61,0,0,1-.78-1.92V173.37a2.71,2.71,0,0,1,.78-2,2.56,2.56,0,0,1,1.92-.81,2.67,2.67,0,0,1,2.76,2.76v25.74a2.56,2.56,0,0,1-.81,1.92,2.71,2.71,0,0,1-2,.78A2.61,2.61,0,0,1,1788.37,201Z"/><path d="M1807.93,200.13a13.46,13.46,0,0,1-5.37-5.61,19.21,19.21,0,0,1,0-16.62,13.46,13.46,0,0,1,5.37-5.61,17.44,17.44,0,0,1,16.14,0,13.65,13.65,0,0,1,5.4,5.61,18.94,18.94,0,0,1,0,16.62,13.65,13.65,0,0,1-5.4,5.61,17.44,17.44,0,0,1-16.14,0Zm12.81-4.14a9.16,9.16,0,0,0,3.72-3.6,12,12,0,0,0,1.47-6.24,11.88,11.88,0,0,0-1.47-6.18,9,9,0,0,0-3.72-3.57,10.52,10.52,0,0,0-4.71-1.11,10.64,10.64,0,0,0-4.77,1.11,8.78,8.78,0,0,0-3.69,3.57,12.08,12.08,0,0,0-1.44,6.18,12.21,12.21,0,0,0,1.44,6.24,9,9,0,0,0,3.69,3.6,10.41,10.41,0,0,0,4.77,1.14A10.29,10.29,0,0,0,1820.74,196Z"/><path d="M1839.79,201a2.61,2.61,0,0,1-.78-1.92V173.37a2.71,2.71,0,0,1,.78-2,2.56,2.56,0,0,1,1.92-.81,2.77,2.77,0,0,1,2.76,2.76v2.46a19.94,19.94,0,0,1,4.92-4,12.42,12.42,0,0,1,6.24-1.5,10.37,10.37,0,0,1,5.73,1.56,10.14,10.14,0,0,1,3.72,4.26,13.6,13.6,0,0,1,1.29,5.94v17a2.56,2.56,0,0,1-.81,1.92,2.71,2.71,0,0,1-2,.78,2.66,2.66,0,0,1-2.7-2.7V182.67q0-7.32-6.6-7.32a9.55,9.55,0,0,0-5.37,1.56,19.44,19.44,0,0,0-4.47,4.2v18a2.56,2.56,0,0,1-.81,1.92,2.71,2.71,0,0,1-2,.78A2.61,2.61,0,0,1,1839.79,201Z"/><path d="M1875.1,210a1.78,1.78,0,0,1-.51-1.26,1.67,1.67,0,0,1,.9-1.5,6.85,6.85,0,0,0,2.28-2.1,6.41,6.41,0,0,0,.78-3.48h-.24a3.38,3.38,0,0,1-3.36-3.36V198a3.38,3.38,0,0,1,3.36-3.36h.6a3.38,3.38,0,0,1,3.36,3.36v3.54a9.65,9.65,0,0,1-4.92,8.76,1.89,1.89,0,0,1-1,.3A1.63,1.63,0,0,1,1875.1,210Z"/><path d="M1210.82,273a2.61,2.61,0,0,1-.78-1.92V232.17a2.71,2.71,0,0,1,.78-1.95,2.56,2.56,0,0,1,1.92-.81,2.67,2.67,0,0,1,2.76,2.76v38.94a2.56,2.56,0,0,1-.81,1.92,2.71,2.71,0,0,1-2,.78A2.61,2.61,0,0,1,1210.82,273Z"/><path d="M1227.23,269.94q-4.11-4.17-4.11-11.73a19.56,19.56,0,0,1,1.56-7.86,13.36,13.36,0,0,1,4.8-5.82,13.79,13.79,0,0,1,8-2.22,14,14,0,0,1,7.68,2.07,13.39,13.39,0,0,1,4.92,5.52,17,17,0,0,1,1.68,7.53,2.62,2.62,0,0,1-2.76,2.7h-20.34a9.87,9.87,0,0,0,3.12,6.54q2.64,2.34,7.38,2.34a18,18,0,0,0,4.41-.48,18.32,18.32,0,0,0,3.69-1.38,2.38,2.38,0,0,1,1.08-.24,2.41,2.41,0,0,1,1.68.66,2.18,2.18,0,0,1,.72,1.68,2.59,2.59,0,0,1-1.56,2.22,18.74,18.74,0,0,1-10.5,2.64Q1231.34,274.11,1227.23,269.94Zm19.11-14.25a9.61,9.61,0,0,0-1.53-4.92,8.26,8.26,0,0,0-3.33-2.91,9.15,9.15,0,0,0-8,0,8.06,8.06,0,0,0-3.3,2.91,9.79,9.79,0,0,0-1.5,4.92Z"/><path d="M1260.74,266.19v-18.6h-4.26a1.13,1.13,0,0,1-1.14-1.14,1.25,1.25,0,0,1,.54-1l8.16-8a1.51,1.51,0,0,1,1-.54,1.06,1.06,0,0,1,.81.36,1.2,1.2,0,0,1,.33.84v4.8H1273a2.26,2.26,0,0,1,2.34,2.34,2.3,2.3,0,0,1-.66,1.65,2.22,2.22,0,0,1-1.68.69h-6.78v18.12q0,2.34,1.11,3a5.59,5.59,0,0,0,2.79.63,8.32,8.32,0,0,0,2.4-.36l.51-.12a3.27,3.27,0,0,1,.69-.06,2.11,2.11,0,0,1,1.5.63,2,2,0,0,1,.66,1.53,2.27,2.27,0,0,1-1.38,2.1,11.74,11.74,0,0,1-5,1.08Q1260.74,274.11,1260.74,266.19Z"/><path d="M1281.41,244.35a1.74,1.74,0,0,1-.51-1.26,1.67,1.67,0,0,1,.9-1.5,7.05,7.05,0,0,0,2.28-2.1,6.5,6.5,0,0,0,.78-3.48h-.24a3.38,3.38,0,0,1-3.36-3.36v-.36a3.38,3.38,0,0,1,3.36-3.36h.6a3.38,3.38,0,0,1,3.36,3.36v3.54a9.67,9.67,0,0,1-4.92,8.76,1.92,1.92,0,0,1-1,.3A1.62,1.62,0,0,1,1281.41,244.35Z"/><path d="M1294.16,271.41a2.29,2.29,0,0,1-1-2,2.36,2.36,0,0,1,.66-1.68,2.16,2.16,0,0,1,1.68-.72,2.64,2.64,0,0,1,1.08.24,23.91,23.91,0,0,0,3.84,1.32,17.85,17.85,0,0,0,4.32.48q6.66,0,6.66-4.26a2.27,2.27,0,0,0-1.53-2.1,31.68,31.68,0,0,0-5-1.62,44.79,44.79,0,0,1-5.85-1.74,10.21,10.21,0,0,1-4-2.73,6.89,6.89,0,0,1-1.65-4.83,8.65,8.65,0,0,1,3-6.84c2-1.76,4.91-2.64,8.67-2.64a25.05,25.05,0,0,1,8.7,1.5,2.25,2.25,0,0,1,1.29.9,2.41,2.41,0,0,1,.45,1.38,2.35,2.35,0,0,1-.69,1.68,2.27,2.27,0,0,1-1.71.72,3.37,3.37,0,0,1-.78-.12,23,23,0,0,0-6.84-1.08,9.37,9.37,0,0,0-5.07,1.17,3.49,3.49,0,0,0-1.83,3,2.77,2.77,0,0,0,1.68,2.64,23.8,23.8,0,0,0,5.22,1.62,50,50,0,0,1,5.76,1.77,9.59,9.59,0,0,1,3.81,2.73,7.46,7.46,0,0,1,1.59,5,7.93,7.93,0,0,1-3,6.36q-3,2.52-8.55,2.52A22.32,22.32,0,0,1,1294.16,271.41Z"/><path d="M1344.58,286.83a2.59,2.59,0,0,1-.75-1.86,2.73,2.73,0,0,1,.19-1l3.9-10-11.29-27.48a3,3,0,0,1-.23-1.14,2.7,2.7,0,0,1,.77-2,2.56,2.56,0,0,1,1.92-.81,2.62,2.62,0,0,1,1.53.48,2.72,2.72,0,0,1,1,1.2l9.24,22.92,9.42-22.8a2.62,2.62,0,0,1,2.52-1.8,2.56,2.56,0,0,1,1.92.81,2.72,2.72,0,0,1,.79,2,2.68,2.68,0,0,1-.19,1l-16.37,39.36a2.72,2.72,0,0,1-2.52,1.86A2.45,2.45,0,0,1,1344.58,286.83Z"/><path d="M1373.62,269.94q-4.11-4.17-4.11-11.73a19.56,19.56,0,0,1,1.56-7.86,13.31,13.31,0,0,1,4.81-5.82,13.73,13.73,0,0,1,8-2.22,13.93,13.93,0,0,1,7.68,2.07,13.39,13.39,0,0,1,4.92,5.52,17,17,0,0,1,1.68,7.53,2.62,2.62,0,0,1-2.75,2.7H1375a9.87,9.87,0,0,0,3.12,6.54q2.64,2.34,7.38,2.34a18,18,0,0,0,4.41-.48,18.32,18.32,0,0,0,3.69-1.38,2.38,2.38,0,0,1,1.08-.24,2.41,2.41,0,0,1,1.68.66,2.15,2.15,0,0,1,.72,1.68,2.59,2.59,0,0,1-1.56,2.22,18.74,18.74,0,0,1-10.5,2.64Q1377.73,274.11,1373.62,269.94Zm19.11-14.25a9.61,9.61,0,0,0-1.53-4.92,8.3,8.3,0,0,0-3.32-2.91,9.18,9.18,0,0,0-8.05,0,8.06,8.06,0,0,0-3.3,2.91,9.79,9.79,0,0,0-1.5,4.92Z"/><path d="M1406.11,273a2.61,2.61,0,0,1-.78-1.92V232.17a2.71,2.71,0,0,1,.78-1.95,2.56,2.56,0,0,1,1.92-.81,2.67,2.67,0,0,1,2.76,2.76v38.94A2.56,2.56,0,0,1,1410,273a2.71,2.71,0,0,1-2,.78A2.61,2.61,0,0,1,1406.11,273Z"/><path d="M1421.05,273a2.61,2.61,0,0,1-.78-1.92V232.17a2.71,2.71,0,0,1,.78-1.95,2.56,2.56,0,0,1,1.92-.81,2.67,2.67,0,0,1,2.76,2.76v38.94a2.56,2.56,0,0,1-.81,1.92,2.71,2.71,0,0,1-2,.78A2.61,2.61,0,0,1,1421.05,273Z"/><path d="M1435.6,272.7a3.23,3.23,0,0,1-1-2.37V270a3.38,3.38,0,0,1,3.36-3.36h.6a3.38,3.38,0,0,1,3.36,3.36v.36a3.38,3.38,0,0,1-3.36,3.36h-.6A3.23,3.23,0,0,1,1435.6,272.7Z"/><path class="cls-3" d="M1639.9,581.5c23.88,12.93,43.22,32.59,59,54.46,16.28,22.56,29.56,47.44,40.45,73a431.5,431.5,0,0,1,34.21,166,418.67,418.67,0,0,1-8.1,84.54q-1.05,5.24-2.23,10.42c-.43,1.88,2.46,2.68,2.89.8a422.33,422.33,0,0,0,10.37-85.45,434.35,434.35,0,0,0-30.72-168.54,396.76,396.76,0,0,0-39.21-75c-15.13-22.4-33.48-43.12-56.45-57.7-2.84-1.81-5.74-3.5-8.7-5.1-1.69-.91-3.21,1.67-1.51,2.59Z"/><path class="cls-3" d="M1655.48,824.24c-10.92-4.56-22.74-6.32-34.49-7a336.42,336.42,0,0,0-37.17.08q-18.72,1-37.27,3.74-9.4,1.4-18.74,3.25c-5.61,1.12-11.24,2.27-16.73,3.87a55.14,55.14,0,0,0-15,6.54,41.32,41.32,0,0,0-11,10.85c-6.13,8.69-9.63,19.18-12.54,29.32-6.43,22.35-8.61,46.55-2.59,69.25,5,19.07,15.87,36.83,31.72,48.79,1.94,1.47,4,2.83,6,4.11v-2.6c-18,9-38.24,12.46-56.3,21.42-8.16,4-15.93,9.23-22,16.07-1.48,1.67-3.15,3.51-3.64,5.75a6.31,6.31,0,0,0,2.11,5.92c3.33,3.21,7.82,5.52,12,7.34,9.46,4.1,19.65,6.16,29.83,7.46,10.71,1.38,21.52,2,32.29,2.72q33.33,2.07,66.76,2t66.5-2.39c2.73-.19,5.45-.39,8.18-.6,1.91-.15,1.92-3.15,0-3q-32.21,2.48-64.5,2.9t-64.79-1.2q-16-.81-32-2.12c-10.17-.85-20.36-2-30.22-4.72a72.93,72.93,0,0,1-13.67-5.09,46.52,46.52,0,0,1-6.14-3.7c-1.56-1.12-3.91-2.66-3.41-4.88s2.49-3.93,3.92-5.44a57.2,57.2,0,0,1,4.74-4.47,72.05,72.05,0,0,1,11.18-7.62c16.9-9.48,36.21-13.14,54-20.64,2.27-1,4.52-2,6.73-3.08a1.52,1.52,0,0,0,0-2.6c-16.53-10.11-28.34-26.64-34.5-44.84-7.21-21.34-6.48-44.55-1.31-66.26,2.48-10.4,5.64-21.06,10.73-30.52A46,46,0,0,1,1493,841a39.74,39.74,0,0,1,13.27-8,107.34,107.34,0,0,1,15.46-4.3q8.93-1.95,18-3.48,18.08-3.06,36.39-4.37c12.13-.87,24.31-1.18,36.47-.9,11.52.27,23.14,1.14,34.25,4.42a75.71,75.71,0,0,1,7.94,2.82,1.51,1.51,0,0,0,1.84-1,1.54,1.54,0,0,0-1-1.85Z"/><path class="cls-3" d="M1381.66,868.51c-9.25.3-17.36,4.89-24.2,10.83a103.74,103.74,0,0,0-9.86,10,91.78,91.78,0,0,0-9,11.4,21.43,21.43,0,0,0-3.3,14.55,46.41,46.41,0,0,0,5,14.47,89,89,0,0,0,17.3,22.89,146.12,146.12,0,0,0,11,9.67q2.87,2.28,5.79,4.45c1,.73,2,1.45,2.95,2.16a8.91,8.91,0,0,1,2.49,2.07c1.16,1.84-2.85,2.74-3.92,3.1-2.53.86-5.09,1.65-7.65,2.41-5.13,1.53-10.3,2.94-15.43,4.47s-10.17,3.17-15.1,5.18a67.25,67.25,0,0,0-13.7,7c-3.92,2.79-6.82,6.52-7.33,11.42a19.13,19.13,0,0,0,4,13.24,36.68,36.68,0,0,0,11.28,9.32,115.27,115.27,0,0,0,14.32,6.84,123.31,123.31,0,0,0,31.32,8c2.69.32,5.38.54,8.09.69,1.93.1,1.92-2.9,0-3a121.06,121.06,0,0,1-31-5.77A117,117,0,0,1,1340,1028a61.81,61.81,0,0,1-12.58-7.46c-3.6-3-6.52-6.69-7.53-11.32a12.27,12.27,0,0,1,4-12.2c3.65-3.21,8.44-5.32,12.86-7.23a143.54,143.54,0,0,1,14.66-5.23c5-1.53,10-2.9,15-4.36q3.64-1.05,7.26-2.19a36.7,36.7,0,0,0,6.67-2.43c1.73-1,3-2.72,2.54-4.8s-2.51-3.26-4.1-4.4c-3.87-2.78-7.65-5.67-11.29-8.72a107.73,107.73,0,0,1-19.34-20.51,72.09,72.09,0,0,1-6.79-11.93c-2.07-4.63-3.87-9.81-3.31-15,.54-4.86,3.5-9,6.5-12.72s5.89-7.06,9.05-10.38c6-6.34,13.1-12.42,21.74-14.72a27.52,27.52,0,0,1,6.25-.92c1.93-.06,1.93-3.06,0-3Z"/><path class="cls-3" d="M1513.89,594.67c4.83-11.9,9.48-24.27,9.65-37.29.15-11.44-3.32-23.3-12-31.19-7.74-7.07-18.8-10.36-28.84-6.52-9.41,3.6-16.55,12.07-19.4,21.63-4,13.26,0,27.6,6.46,39.39.79,1.46,3.36.46,2.74-1.15L1462,552.1c-2.94-7.66-5.69-16.07-12.07-21.62a19.7,19.7,0,0,0-11.57-5.05,1.52,1.52,0,0,0-1.5,1.5,130.78,130.78,0,0,0,5.68,48.38q.9,2.88,2,5.73a18.88,18.88,0,0,0,2.11,4.53c2.24,3.14,5.74,3.41,9.3,3.7a190.65,190.65,0,0,1,24.59,3.67,193,193,0,0,1,27,7.9c1.81.67,2.59-2.23.79-2.9a196.25,196.25,0,0,0-46.45-11.09q-2.94-.33-5.88-.58a14.82,14.82,0,0,1-5-.83,6.38,6.38,0,0,1-2.94-3.67c-.71-1.72-1.3-3.5-1.89-5.27a127.53,127.53,0,0,1-6.21-49.57l-1.5,1.5c7.61.53,13,6.9,16.12,13.26,1.85,3.69,3.24,7.59,4.71,11.44l4.91,12.79,5.53,14.41,2.74-1.15c-5.41-9.94-9-21.63-7.09-33,1.59-9.32,7.26-18,15.72-22.44,8.76-4.62,19-2.89,26.7,3.11,8.56,6.71,12.45,17.36,12.8,28,.46,13.63-4.47,26.64-9.51,39.07-.73,1.78,2.17,2.56,2.89.79Z"/><path class="cls-3" d="M1456.75,648.92a13.37,13.37,0,0,1,11.3-3.14,13.16,13.16,0,0,1,9,6.74,8.78,8.78,0,0,1,1.22,5.48c-.44,2.27-3.06,2.7-5,3.18a38.78,38.78,0,0,1-7.49,1.16,9.72,9.72,0,0,1-3.14-.07c-1-.29-1.1-1.24-1.26-2.17-.73-4.22-1.52-9.58,1.35-13.21,1.18-1.5-.93-3.64-2.12-2.13-3.43,4.36-3.1,9.86-2.3,15,.4,2.59,1.11,5,4,5.46s6.33-.1,9.25-.65c2.66-.51,6.16-1.06,8.11-3.13s1.81-4.82,1.17-7.24a16.16,16.16,0,0,0-9.82-10.71,16.34,16.34,0,0,0-16.45,3.26c-1.44,1.29.69,3.4,2.12,2.12Z"/><path class="cls-3" d="M1779.76,977.05c.43-6.93,1.88-14.47,7.15-19.44a15,15,0,0,1,8.45-4.15c3.54-.38,6.81,1,9.73,2.89a43.45,43.45,0,0,1,14,14.51,28.56,28.56,0,0,1,3.45,9.13c.64,3.43.17,6.6-.39,10a11.42,11.42,0,0,0,.18,5.66,20.74,20.74,0,0,0,2.34,4.35,15.57,15.57,0,0,1,2.8,8.5c.06,6.24-3.27,12.19-7.91,16.21-5.36,4.64-12.22,7.13-18.94,9a178.17,178.17,0,0,1-23.05,5.08c-14.43,2.08-30,1.23-42.81-6.45a42.82,42.82,0,0,1-4.27-2.91c-1.54-1.18-3,1.43-1.52,2.59,12.56,9.63,29.12,11.84,44.48,10.27a163.45,163.45,0,0,0,25.35-5c7.21-1.92,14.59-4.28,20.66-8.76,5.44-4,9.67-9.86,10.73-16.66a18.32,18.32,0,0,0-.93-9.73c-1.31-3.25-4.47-6.06-4.39-9.73,0-2.1.7-4.15.91-6.24a23.34,23.34,0,0,0-.06-5.15,30.33,30.33,0,0,0-3-9.86,45.67,45.67,0,0,0-14.17-16.12c-3.15-2.29-6.64-4.25-10.58-4.65a16.06,16.06,0,0,0-9.71,2.38c-6.56,3.93-9.77,11.15-10.9,18.45-.3,1.91-.49,3.83-.61,5.76s2.88,1.92,3,0Z"/><path class="cls-3" d="M501.5,631.82c-9.32,9.06-22.39,12.37-33.46,18.63a52.83,52.83,0,0,0-8.89,6.24c-1.46,1.27.67,3.39,2.12,2.12,9.76-8.57,22.81-11.71,33.76-18.33a47.42,47.42,0,0,0,8.59-6.54c1.39-1.35-.74-3.47-2.12-2.12Z"/><path class="cls-3" d="M501,629.37c-16.41-.66-32.82-1.43-49.19-2.68q-7-.54-14-1.19l1.44,1.1c-1.14-8.49-6.17-16.35-12.51-22a1.51,1.51,0,0,0-2.51.66c-.39,1.89-.19,6.21,2.94,5.31a2.36,2.36,0,0,0,1.61-2.38,5.43,5.43,0,0,0-2-3.59,1.51,1.51,0,0,0-2.51.66q-1.81,8-3.64,16c-.7,3.09-.88,6.87-2.91,9.45-1.75,2.24-4.91,2.41-7.3,1.19-2.67-1.35-4.76-3.61-6.92-5.62-2.38-2.21-5.05-4.55-8.35-5.13a1.53,1.53,0,0,0-1.85,1.84,176.76,176.76,0,0,1,2.61,33.2,1.5,1.5,0,0,0,3,0,182,182,0,0,0-2.71-34l-1.85,1.85c3,.53,5.3,2.74,7.44,4.75,2.31,2.16,4.64,4.59,7.57,5.92a9,9,0,0,0,9.36-.79c2.93-2.29,3.67-6.25,4.35-9.7,1.19-6.1,2.72-12.14,4.09-18.19l-2.51.66a6.43,6.43,0,0,1,1.13,1.4c.14.22-.07.17,0,.06s.19-.34.44-.45.44,0,.69,0,.08.25.15.11-.09-.59-.09-.67a4.63,4.63,0,0,1,.14-1.11l-2.51.66c6,5.31,10.67,12.58,11.75,20.63.09.68.85,1,1.45,1.1,16.29,1.53,32.62,2.51,49,3.27l14.22.6c1.93.08,1.93-2.92,0-3Z"/><path class="cls-3" d="M459.87,662.55l-10.53,56.14c-1.71,9.14-3.49,18.34-3.76,27.66a89.64,89.64,0,0,0,3.32,26.21,115.06,115.06,0,0,0,5,14.11c.81,1.92,1.56,3.83,3.24,5.16,1.52,1.18,3.34,1.41,4.82.08s-.68-3.41-2.12-2.12c-.72.65-2.26-2.12-2.45-2.54-.87-1.92-1.65-3.87-2.39-5.84a107.31,107.31,0,0,1-3.68-11.66,85.05,85.05,0,0,1-2.65-24.61c.38-8.82,2.08-17.49,3.7-26.14l4.91-26.12,5.54-29.54c.35-1.88-2.54-2.69-2.9-.79Z"/><path class="cls-3" d="M496.85,634.17a3.72,3.72,0,0,0,.31-2.9,3.66,3.66,0,0,0-1.84-2.23A1.54,1.54,0,0,0,494,629a1.45,1.45,0,0,0-.87,1,11.28,11.28,0,0,0-.21,2.53,5.42,5.42,0,0,0,.25,1.37,4.52,4.52,0,0,0,.84,1.46,3.22,3.22,0,0,0,2.25,1,3.64,3.64,0,0,0,1.09-.1,2.85,2.85,0,0,0,1-.4,2.79,2.79,0,0,0,1-1,2.4,2.4,0,0,0,.27-.86,2.66,2.66,0,0,0,0-.93,1.5,1.5,0,0,0-2.74-.36l-.15.36a1.51,1.51,0,0,0,0,.79v0l-.05-.4a1.5,1.5,0,0,1,0,.3l.05-.39a1,1,0,0,1-.06.23l.15-.36a1.88,1.88,0,0,1-.14.24l.23-.31a1.25,1.25,0,0,1-.23.23l.3-.24a1.75,1.75,0,0,1-.35.2l.35-.15a2.39,2.39,0,0,1-.54.15l.4-.06a1.82,1.82,0,0,1-.57,0l.4.06a2.13,2.13,0,0,1-.51-.14l.36.15a1.48,1.48,0,0,1-.35-.19l.3.23a2.5,2.5,0,0,1-.32-.33l.24.3a2.33,2.33,0,0,1-.32-.55l.15.36a3.52,3.52,0,0,1-.24-.9l.05.4a6.93,6.93,0,0,1,.05-1.76l-.05.4q0-.3.09-.6l-2.21.9a1.9,1.9,0,0,1,.39.23l-.31-.24a2.06,2.06,0,0,1,.39.39l-.24-.31a2.11,2.11,0,0,1,.31.52l-.16-.36a2.21,2.21,0,0,1,.18.62l-.06-.4a2,2,0,0,1,0,.59l.06-.4a2.21,2.21,0,0,1-.14.52l.15-.35c0,.07-.07.15-.11.22a1.51,1.51,0,0,0,.53,2.05,1.53,1.53,0,0,0,2.06-.54Z"/><path class="cls-3" d="M437.18,641.72a3.55,3.55,0,0,0,3.17-2.88,4.26,4.26,0,0,0-1.33-4.1,7.2,7.2,0,0,0-4.46-1.56c-1.68-.07-3.62.36-5.13.11a1.5,1.5,0,1,0-.8,2.89,20.26,20.26,0,0,0,4.67,0,13,13,0,0,1,1.87,0c.11,0,.1,0-.05,0l.2,0,.47.11.39.12c.06,0,.41.18.13,0a5.06,5.06,0,0,1,.68.4c-.25-.18.05.06.1.11s.26.3.11.09c.07.1.12.24.19.32s0,.07,0-.11c0,0,0,.1,0,.16s.12.4.05.17,0,.16,0,.23-.06.43,0,0a1.8,1.8,0,0,1-.06.32c0,.09-.17.37,0,0-.05.09-.11.18-.15.27-.13.28.19-.17,0,0s-.17.15,0,0l-.17.1c-.11.06-.11.06,0,0,.33,0-.52.06.08,0a1.54,1.54,0,0,0-1.5,1.5c0,.74.66,1.6,1.5,1.5Z"/><path class="cls-3" d="M453.64,636.63a4.17,4.17,0,0,0,.95-3.77,5.46,5.46,0,0,0-1.83-3c-2.43-2-5.73-1.47-8.56-.87a1.51,1.51,0,0,0-1.05,1.84,1.53,1.53,0,0,0,1.85,1c.57-.12,1.14-.24,1.72-.33.06,0,.55-.07.23,0l.42,0a9.86,9.86,0,0,1,1.66,0c.43,0-.29-.07.14,0l.4.08.39.11c.07,0,.39.15.16,0a6.38,6.38,0,0,1,.57.32l.13.09c-.16-.12-.19-.14-.11-.07l.23.21c.08.07.14.15.21.22.27.27-.1-.18.06.06a4.6,4.6,0,0,1,.31.53l0,.09q.1.23,0-.09a2.47,2.47,0,0,1,.1.29c0,.09,0,.19.07.28.09.32,0-.34,0,0a2.62,2.62,0,0,0,0,.56c0-.24,0-.28,0-.12l0,.09s-.1.22-.08.26c.09-.21.1-.24,0-.1l-.07.13c-.17.32.16-.18,0,0a1.53,1.53,0,0,0,0,2.12,1.51,1.51,0,0,0,2.12,0Z"/><path class="cls-3" d="M438.13,669.49c-7.65,2.38-15.5,4.92-21.85,10-6.72,5.37-9.91,13.36-11.67,21.56a136.11,136.11,0,0,0,.52,58c2.36,10.61,5.61,21.26,4.51,32.25-.2,1.92,2.8,1.91,3,0,.94-9.37-1.23-18.64-3.38-27.71a154.08,154.08,0,0,1-4.35-28,132.35,132.35,0,0,1,1.63-28.6c1.36-8.09,3.27-16.78,9.16-22.88,6.14-6.38,15-9.12,23.23-11.67,1.84-.57,1.05-3.47-.8-2.9Z"/><path class="cls-3" d="M382.53,785.18c10.59,6.72,21.78,13.81,28.16,25A31.32,31.32,0,0,1,415,826.93c-.11,3,.38,5.51,3.26,7a20.91,20.91,0,0,1,6.63,4.9,17.3,17.3,0,0,1,3.81,7.31c.27,1.16.35,2.47-.7,3.27a6.53,6.53,0,0,1-3.6.93c-3.26.12-6.57-.21-9.83-.34L404,849.49q-10.89-.48-21.77-1l-5.19-.27c-1.44-.08-3-.09-3.82-1.43a16.49,16.49,0,0,1-1.47-4c-.56-1.81-1.09-3.64-1.59-5.47a154.1,154.1,0,0,1-5.19-46.09c.08-1.93-2.92-1.92-3,0a156.9,156.9,0,0,0,4.58,44.13c.89,3.53,1.88,7,3,10.49a8.26,8.26,0,0,0,2.27,4,7.3,7.3,0,0,0,4.2,1.4c7.63.63,15.35.79,23,1.15s15.17.68,22.76,1c2.67.11,5.74.21,8-1.47,2.62-1.94,2.35-5.2,1.4-8a21.53,21.53,0,0,0-4.52-7.56,26.37,26.37,0,0,0-7.19-5.11c-1.41-.76-1.5-2-1.47-3.43a42.89,42.89,0,0,0-.05-4.81,33.11,33.11,0,0,0-2.35-9.44c-5.83-14.26-19.06-22.93-31.56-30.86-1.64-1-3.14,1.56-1.51,2.59Z"/><path class="cls-3" d="M455.19,793.54a29.57,29.57,0,0,1-16.13,20.06c-3.12,1.48-6.52,2.27-9.6,3.85-1.72.88-.2,3.47,1.52,2.59,3.24-1.66,6.83-2.47,10.1-4.1a32.08,32.08,0,0,0,7.73-5.45,32.43,32.43,0,0,0,9.28-16.16c.43-1.88-2.47-2.68-2.9-.79Z"/><path class="cls-3" d="M456.4,775.38,471.89,786c2.44,1.68,4.92,3.32,7.32,5.06a23.33,23.33,0,0,1,5.8,5.54c2.84,4.17,3.29,9.3,2.92,14.21a77.94,77.94,0,0,1-2.7,14.51c-1.31,4.77-3.34,9.73-7.82,12.33a1.53,1.53,0,0,0-.69,1.69c.74,2.74,3.5,2.48,5.6,3.45,1.45.67.22,2-.84,2.38a19.8,19.8,0,0,1-5.7.57,91,91,0,0,1-23.95-2.29,93.92,93.92,0,0,1-13.11-4.1c-1.79-.71-2.57,2.19-.79,2.89a94.24,94.24,0,0,0,26.17,6.19,92,92,0,0,0,13.28.24c2.05-.11,4.36-.1,6.19-1.15a4.63,4.63,0,0,0,2.42-4.34,4.16,4.16,0,0,0-3.17-3.39c-.74-.26-3-.36-3.21-1.24l-.69,1.69c4.29-2.49,6.78-6.79,8.35-11.35a77.88,77.88,0,0,0,3.39-15.46c.68-5.32.6-10.85-1.64-15.8-2.44-5.38-7.46-8.62-12.15-11.84l-18.95-13c-1.6-1.1-3.1,1.5-1.52,2.59Z"/><path class="cls-3" d="M367.2,767.85a138.82,138.82,0,0,1,4-26.89c.46-1.87-2.43-2.67-2.9-.8a143.85,143.85,0,0,0-4.11,27.69c-.09,1.93,2.91,1.92,3,0Z"/><path class="cls-3" d="M386.57,459.26c-7.05-15.67-21.94-28.27-39.85-27.59a33.66,33.66,0,0,0-22.87,10.42,53,53,0,0,0-12.5,22c-4.9,16.58-2.71,34.7,2.78,50.85a135.93,135.93,0,0,0,12,25.74,186.65,186.65,0,0,0,15.55,21.65c10.83,13.35,22.72,26.26,30.22,41.92.93,1.94,1.78,3.93,2.55,5.94.68,1.79,3.58,1,2.89-.8-6-15.7-16.68-28.79-27.29-41.59-5.35-6.46-10.74-12.92-15.57-19.78a139.22,139.22,0,0,1-13.65-24.17c-6.75-15.38-10.76-32.6-8.58-49.43,2-15.61,10.75-33.63,26.93-38.52a33.67,33.67,0,0,1,24.94,2.69,43.9,43.9,0,0,1,17.19,16.92,51.92,51.92,0,0,1,2.69,5.25c.79,1.75,3.38.23,2.59-1.52Z"/><path class="cls-3" d="M387.74,455.41c-6.21-9.56-12.57-19.32-21.23-26.86-8.33-7.24-18.47-11.89-29.05-14.76-10.79-2.93-22-4.15-33.1-5q-20.39-1.55-40.85-1.5c-12.77,0-25.8,0-38.41,2.25a71.16,71.16,0,0,0-29,11.95c-16.27,11.54-27.5,29-35.24,47.07a169.22,169.22,0,0,0-10.22,31.81c-2.48,11.9-3.24,24.41.13,36.22,3.24,11.35,10.05,21.19,16.95,30.6,6.71,9.15,13.45,18.33,20.94,26.87,7.33,8.35,15.48,16.07,24.84,22.11,10.3,6.65,22,10.57,32.77,16.32,18.84,10.07,32.09,27,42.16,45.42,5.08,9.3,9.44,19,13.59,28.73,4.75,11.17,9.59,22.38,13.21,34a118.34,118.34,0,0,1,4.27,18.19c.91,6.32.83,12.63.86,19,.05,10.88,1.6,22.41,11.07,29.25a16.79,16.79,0,0,0,12.81,3.11c1.9-.33,1.1-3.22-.79-2.9-5.09.88-9.84-1.64-13.25-5.27-3.9-4.15-5.71-9.5-6.39-15.08-.74-6.07-.32-12.2-.49-18.29a94.45,94.45,0,0,0-2.25-17.81c-2.59-11.79-7-23.07-11.64-34.19-4-9.63-8-19.27-12.52-28.68-8.56-17.89-19.15-35.52-34.62-48.31-8.47-7-18.14-11.72-28.11-16.2-10.66-4.79-20.74-10.05-29.65-17.72-8.2-7.06-15.33-15.27-22-23.77-7-9-14.08-18.12-20.18-27.74-6.4-10.12-10.54-21-10.83-33.05-.3-12.35,2.65-24.56,6.42-36.23,6-18.5,14.81-36.76,28.34-50.94A74.1,74.1,0,0,1,209,417.51c10.95-5,23-6.3,34.91-6.81,12.86-.54,25.76-.54,38.63-.1,12.25.42,24.58,1.07,36.74,2.69,10.69,1.42,21.49,3.77,31.27,8.44,10.35,4.94,18.56,12.55,25.37,21.69,3.26,4.36,6.24,8.93,9.21,13.5,1.05,1.61,3.64.11,2.59-1.51Z"/><path class="cls-3" d="M1575.61,700.87a177.47,177.47,0,0,0-58.74,38.1c-5.49,5.37-11.28,11.16-14,18.53-2.32,6.37-1,13.51,4.47,17.83,4.87,3.89,11.35,5.09,17.4,5.6,3.65.3,7.32.28,11,.34l13.84.22c9,.14,18.09.38,27.14.38,15.48,0,32.75-2,44-13.82a32.74,32.74,0,0,0,3.37-4.23c1.09-1.6-1.51-3.1-2.59-1.51-8.57,12.62-24.82,16-39.09,16.47-8.55.29-17.12,0-25.67-.18l-26-.41c-5.86-.09-12-.43-17.49-2.78s-9.31-7.3-8.45-13.51c1-7.29,6.65-13.25,11.58-18.28a173.85,173.85,0,0,1,54.85-37.73c1.69-.74,3.4-1.44,5.11-2.12s1-3.61-.8-2.9Z"/><path class="cls-3" d="M1509.33,502.21c-21.55-7.49-46.71-15.1-67.63-1.71a55.3,55.3,0,0,0-19,21.35,64.9,64.9,0,0,0-6.86,30.82c.22,13.49,4,26.68,9.52,38.89l.9-2.2c-8.7,1.63-18.86,0-26.09,6.2-7,6-7,16.4-5.52,24.73,3,17.21,12.75,33.06,26.17,44.14a73.8,73.8,0,0,0,26.08,14c1.85.55,2.65-2.35.79-2.89a72.62,72.62,0,0,1-39.28-29.22,70.48,70.48,0,0,1-9.95-22.41c-1.84-7.56-3.24-17.33,1.76-24,2.87-3.84,7.5-5.35,12.06-6,4.91-.72,9.89-.68,14.78-1.59a1.51,1.51,0,0,0,.89-2.2c-9-19.7-13.17-43.47-4-63.88a53.68,53.68,0,0,1,16.94-21.45c8.49-6.19,18.6-8.88,29.05-8.64,13.32.31,26.2,4.69,38.65,9,1.83.63,2.62-2.26.8-2.89Z"/><path class="cls-3" d="M1503,687.07c23.44-4.23,46.87-13.48,63.21-31.44,7.57-8.32,13.9-18.63,16.08-29.79,1.14-5.87,1.11-12.12-1.1-17.76a29,29,0,0,0-8.26-11.44c-8.46-7.2-19.64-10.43-30.26-12.89-1.88-.44-2.68,2.45-.79,2.89,9.11,2.11,18.48,4.74,26.28,10.1a28.3,28.3,0,0,1,9,9.64,26.73,26.73,0,0,1,2.7,16c-1.27,10.83-7.16,21.12-14.15,29.29a86.14,86.14,0,0,1-25.48,20c-11.86,6.24-24.84,10.06-38,12.43-1.9.34-1.1,3.23.8,2.89Z"/><path class="cls-3" d="M1504.79,490.45a288,288,0,0,0-45.13-29.14,245,245,0,0,0-50-19.42,209.78,209.78,0,0,0-53.93-7,189.3,189.3,0,0,0-53.92,7.85,169.73,169.73,0,0,0-25.21,9.85c-8.24,4-16.09,9-24.91,11.7a41.32,41.32,0,0,1-6.77,1.49l1.45,1.1c-4-17.37-.08-36.95,11.26-50.87A49.19,49.19,0,0,1,1281,400.18c11.11-3.55,23-4,34.57-3.91,24,.2,47.72,4.23,70.77,10.62,23.28,6.45,45.85,15.26,67.83,25.23,10.09,4.57,20.34,9.42,28.84,16.64,8.69,7.39,14.61,17.12,19.56,27.26,1.19,2.44,2.33,4.89,3.46,7.36.8,1.75,3.38.23,2.59-1.52-4.78-10.47-9.95-21-17.7-29.6s-17.63-14.36-27.83-19.29a467.73,467.73,0,0,0-68.5-26.82c-23.54-7.08-47.89-11.83-72.5-12.74-21.82-.79-46.56.12-63,16.49-13.11,13.06-19,32.71-16.82,50.93a65.44,65.44,0,0,0,1.19,6.83,1.52,1.52,0,0,0,1.45,1.1c9.07-1.16,17.2-5.26,25.18-9.48A188.37,188.37,0,0,1,1295,448.1a182.3,182.3,0,0,1,52.92-10.05,203.32,203.32,0,0,1,53.93,5,236.41,236.41,0,0,1,50.06,17.71,280.36,280.36,0,0,1,45.54,27.8q2.64,2,5.23,4c1.51,1.17,3.64-.94,2.12-2.12Z"/><path class="cls-3" d="M1516.29,487.49c5.71-14.46,11.3-29.11,12.09-44.81.73-14.53-2.19-29.14-7.51-42.63-10.66-27-30.67-49.34-52.35-68.13-5.43-4.71-11.22-9.16-17.81-12.12-7-3.13-14.46-4.61-21.92-6-7.87-1.51-15.83-3-23.88-3-2.72,0-6.69,0-7.79,3.14-1.18,3.3,2.16,6.38,4.15,8.55,5,5.51,10.9,10.18,16.55,15q8,6.84,15.36,14.3a260.41,260.41,0,0,1,48,66.94q4.68,9.36,8.58,19.06c2.64,6.53,5.17,13.15,8.73,19.24a53.5,53.5,0,0,0,5.83,8.18c1.27,1.46,3.38-.67,2.12-2.12-4.54-5.23-7.68-11.47-10.39-17.8s-5-12.51-7.8-18.66a260.78,260.78,0,0,0-19.21-35.1,266.08,266.08,0,0,0-24.33-31.81,292.18,292.18,0,0,0-29.26-28.12c-2.73-2.32-5.44-4.66-8-7.13-1.29-1.23-2.55-2.5-3.76-3.8a22.76,22.76,0,0,1-3.38-4.09c-.86-1.54-.18-2.34,1.41-2.64a24.24,24.24,0,0,1,5.11-.15,87.25,87.25,0,0,1,11.62,1.14,202.37,202.37,0,0,1,22.5,4.56,57.89,57.89,0,0,1,19.21,9.48,175.4,175.4,0,0,1,15.94,13.91c5.05,4.81,9.92,9.8,14.54,15a156.18,156.18,0,0,1,23.53,34.37A107.37,107.37,0,0,1,1525.34,433a85.41,85.41,0,0,1-1.38,21.29,139.61,139.61,0,0,1-6.45,21.75c-1.33,3.56-2.72,7.09-4.12,10.62-.71,1.8,2.19,2.58,2.9.8Z"/><path class="cls-3" d="M1553,514.3c9.4,1.15,18,6.16,24.51,12.87,7.26,7.43,11.89,16.94,14.74,26.84a116.59,116.59,0,0,1,3.57,18.12c.23,1.9,3.24,1.92,3,0-1.4-11.41-3.93-22.81-9.22-33.1A54.35,54.35,0,0,0,1569,516.68a41.91,41.91,0,0,0-16-5.38c-1.92-.23-1.9,2.77,0,3Z"/><path class="cls-3" d="M1481.1,570.45c1-2.53,1.22-5.72-.42-8.06-1.44-2-4.1-3.47-6.61-2.57a6.12,6.12,0,0,0-3.85,4.71,6.49,6.49,0,0,0,2.12,6.1,9.65,9.65,0,0,0,7.34,2.21,1.54,1.54,0,0,0,1.5-1.5,1.51,1.51,0,0,0-1.5-1.5,9.29,9.29,0,0,1-1.29.06l-.65,0c-.27,0,.35.07-.1,0l-.36-.06a8.81,8.81,0,0,1-1.24-.36c-.07,0-.35-.14-.11,0l-.26-.12c-.21-.11-.42-.22-.62-.34l-.23-.15s-.35-.25-.19-.13-.09-.08-.12-.1l-.26-.23-.38-.4c-.29-.32.09.13-.06-.08s-.16-.23-.24-.35-.2-.35-.29-.54c.14.28,0-.11-.06-.22s-.08-.36-.12-.54,0,.36,0,0c0-.12,0-.24,0-.37a4,4,0,0,1,0-.49c0,.38,0-.19.05-.27s.1-.36.16-.54a2.09,2.09,0,0,1,.08-.23c-.12.32,0,0,0-.09s.18-.32.28-.48l.17-.25s-.19.22,0,0l.38-.39s.23-.19.07-.07.15-.09.19-.12.55-.26.22-.14l.51-.16s.31-.05.1,0,.21,0,.2,0h.29c.41,0-.2-.07.19,0a3.21,3.21,0,0,1,1.85,1.1,4.63,4.63,0,0,1,.65,1,5.35,5.35,0,0,1,.33,1.47,8,8,0,0,1-.67,3.47,1.51,1.51,0,0,0,1,1.85,1.53,1.53,0,0,0,1.84-1Z"/><path class="cls-3" d="M1450.58,573.79a4.23,4.23,0,0,0,3-4.61,4.19,4.19,0,0,0-1.42-2.79,4.94,4.94,0,0,0-3.13-1.1,5.61,5.61,0,0,0-5.28,3.84,7.21,7.21,0,0,0,1.22,6.71,4.11,4.11,0,0,0,3.84,1.56,3.31,3.31,0,0,0,2.77-2.51,1.53,1.53,0,0,0-1-1.84,1.51,1.51,0,0,0-1.84,1.05.94.94,0,0,0-.06.24c0,.19.13-.33,0-.05s0-.1.06-.06-.21.32-.07.08l.08,0-.18.11s-.15.1-.18.09l.17-.07-.15.05-.15,0c-.14,0-.14,0,0,0l.09,0h-.21c-.25,0,.13,0,.09,0s-.22-.06-.26-.07c-.2,0,.28.17,0,0l-.21-.11s-.31-.24-.14-.1-.12-.12-.12-.12a3.2,3.2,0,0,1-.25-.27c0,.05.17.24,0,0l-.17-.26c-.09-.15-.17-.32-.26-.48s0,0,0,0c0-.12-.09-.23-.12-.35a4.44,4.44,0,0,1-.16-.6c0-.08,0-.16,0-.24-.08-.4,0,.31,0-.09,0-.16,0-.33,0-.49s0-.41,0-.61c0,.31,0,.11,0,0s0-.24.07-.36.12-.38.18-.57c-.09.28,0,.09,0,0s.09-.18.14-.26a2.74,2.74,0,0,1,.29-.46c-.18.25,0,0,0,0l.22-.23c.09-.08.18-.25,0,0a.81.81,0,0,1,.18-.12c.15-.1.31-.18.47-.27s.06-.09-.06,0a.73.73,0,0,1,.26-.09,1.44,1.44,0,0,1,.58-.13s-.38,0-.08,0h.27c.08,0,.4,0,.48,0l-.19,0,.15,0,.26.06a.93.93,0,0,1,.2.07l-.12-.05.14.07.22.13.05,0c.13.09.11.08-.05,0,.09,0,.21.21.28.28s-.16-.29,0,0l.1.15s0,.14.08.16c-.09-.22-.11-.25-.06-.1l0,.08c0,.09,0,.18.07.26.07.28,0-.34,0,0,0,.15,0,.3,0,.45s0,.35,0,.07,0,.05,0,.12l-.06.21c-.08.25-.12.09,0,0-.09.07-.16.3-.22.39-.15.27.24-.24,0,0l-.19.18c-.11.13-.09,0,.1-.07a1.43,1.43,0,0,0-.22.15s-.28.17-.06,0-.08,0-.16,0a1.5,1.5,0,0,0-1,1.84,1.52,1.52,0,0,0,1.84,1Z"/><path class="cls-3" d="M1451.77,734.55c-11.83.22-25.06.25-35.56-6a28.29,28.29,0,0,1-11.31-13.23c-2.46-5.5-3.91-11.4-6.3-16.93s-6-10.65-11.48-13.72c-5.73-3.22-12.44-4.15-18.91-4.38-7.81-.28-15.68.17-23.47.65-8.27.5-16.51,1.29-24.74,2.24-16.5,1.92-32.94,4.41-49.38,6.75-4.08.58-8.18,1.07-12.25,1.75-2.47.41-5.51,1.46-6.75,3.83-1.59,3.06,1,5.65,3.08,7.57a51.71,51.71,0,0,0,8.24,6.11c12.58,7.53,27.4,9.89,41.81,10.8,8.32.53,16.66.62,25,1.12a61.84,61.84,0,0,1,11.36,1.35,19.9,19.9,0,0,1,9.2,5.14,58.58,58.58,0,0,1,6.53,8q3.53,4.89,7.19,9.68,7.23,9.49,15,18.59c4.79,5.62,9.65,11.74,16.26,15.31,6.25,3.38,13.45,4.22,20.46,4.15,3.56,0,7.11-.3,10.66-.59,1.91-.16,1.93-3.16,0-3-7,.57-14.23,1.15-21.19-.23a29.24,29.24,0,0,1-9.72-3.67,40.13,40.13,0,0,1-8.2-7.08c-10.49-11.3-19.84-23.7-28.91-36.15-4-5.45-8.33-10.56-15-12.66a47.66,47.66,0,0,0-10.95-1.69c-4.07-.3-8.16-.47-12.24-.62-15-.57-30.33-.88-44.67-5.93a55,55,0,0,1-17.63-9.84c-1.48-1.27-5.39-3.94-2.81-5.85s6.36-1.8,9.28-2.22c16.1-2.29,32.19-4.71,48.33-6.76a458.43,458.43,0,0,1,48.54-3.8c6.53-.14,13.24-.08,19.52,1.91a23,23,0,0,1,13.44,11c5.76,10.32,6.43,23.14,15.66,31.44,8.92,8,21.64,9.66,33.16,9.95,2.93.07,5.85.05,8.77,0,1.93,0,1.94-3,0-3Z"/><path class="cls-3" d="M464.57,703.21a44.49,44.49,0,0,0,22.66-38.67,44,44,0,0,0-2.49-14.34c-.63-1.81-3.53-1-2.89.79a41.24,41.24,0,0,1-9.25,42.3,42.29,42.29,0,0,1-9.55,7.33c-1.68.94-.17,3.54,1.52,2.59Z"/><path class="cls-3" d="M474.16,619.52c-.3-3.42-3.28-5.17-6-6.71a62.26,62.26,0,0,0-10-4.6c-6.73-2.36-14.06-3.22-21-1.22-1.16.33-1.57,2.17-.36,2.74,4.24,2,11.14,5.48,9.28,11.35-.58,1.85,2.31,2.64,2.89.8a9.74,9.74,0,0,0-2.11-9c-2.2-2.71-5.45-4.29-8.55-5.76l-.35,2.74c6-1.73,12.27-1.08,18.17.81a54.77,54.77,0,0,1,8.6,3.67c1.36.72,2.72,1.46,4,2.29,1,.65,2.29,1.57,2.4,2.87.17,1.9,3.17,1.92,3,0Z"/><path class="cls-3" d="M390.86,654.82c-6.35-1.59-13.18-2.15-19.56-.37a25.75,25.75,0,0,0-14.63,11.19C353.2,671,351,677.1,348.8,683A44,44,0,0,0,346,694.14a28.38,28.38,0,0,0,1,10.28c3.45,12.27,13.17,23.38,24.69,28.74a33.42,33.42,0,0,0,18,3.2c1.35-.17,3.15-.22,4.16-1.27s.89-3.13.8-4.6A43.08,43.08,0,0,0,392.43,720a88,88,0,0,1-3.32-11.33,36.59,36.59,0,0,1-.17-11.63c1.12-8,4.42-15.5,8.59-22.33a1.5,1.5,0,0,0-2.59-1.52c-6.78,11.13-11.37,24.47-8.47,37.56,1.42,6.37,4.55,12.36,5.22,18.9a24.62,24.62,0,0,1,.12,2.58c0,.89,0,.81-.9,1a24.31,24.31,0,0,1-4.51.39,29.45,29.45,0,0,1-8.5-1.26c-11.33-3.37-20.66-12.48-25.75-23a28.41,28.41,0,0,1-2.28-19.77,85.49,85.49,0,0,1,3.27-9.56c1.07-2.76,2.17-5.51,3.48-8.17,2.89-5.86,7-11.29,13.23-13.75,6.43-2.51,13.64-2,20.21-.36,1.87.47,2.67-2.42.8-2.9Z"/><path class="cls-3" d="M1505.73,663.68a18.45,18.45,0,0,0,14.92-16.78l-2.94.4c.3,2,1.61,3.59,2.85,5.13s2.26,3,1.79,4.91c-1.15,4.69-6.77,5.54-10.79,6a1.55,1.55,0,0,0-1.5,1.5,1.51,1.51,0,0,0,1.5,1.5c5.3-.66,11.32-1.85,13.44-7.48a7.38,7.38,0,0,0-1-6.88c-1.22-1.76-3.06-3.3-3.39-5.52a1.49,1.49,0,0,0-1.65-1.07,1.51,1.51,0,0,0-1.3,1.47,15.45,15.45,0,0,1-12.72,13.88,1.52,1.52,0,0,0-1,1.85,1.54,1.54,0,0,0,1.85,1Z"/></svg>