<svg id="Layer_1" data-name="Layer 1" xmlns="http://www.w3.org/2000/svg" viewBox="0 0 1920 1080"><defs><style>.cls-1{fill:#e03838;opacity:0.5;}.cls-2{opacity:0.3;}.cls-3{fill:#4d4d4d;}</style></defs><title>32</title><path class="cls-1" d="M582.88,212.28c19.88,16.07,58.19,33.07,74.36,140.86s96,95.68-25.77,249.75S436.56,852.64,367.11,808.27,238,793.43,242.45,657.45,265,505.64,261.69,458.59s27.42-77.72-9.67-106.84S219.7,333,168.89,294.4,71.4,261.33,56.69,242.93s-15.39-55.4-8.78-65,130.73-32.38,139.46-12.22,133.7,68.65,151.51,125.72,27,61,23.71,136.57,217.79-36,205.69-70.25-58.34-19-46-83.57,9.8-78.1,35.19-70l25.39,8.09"/><path class="cls-2" d="M1691.71,456.27c-115.66-23.94-182.22-82.27-253.79,15.13s-87.82,212.76-87.82,212.76S1247.57,849.65,1409,931s203,129.55,274.61,85.11,167.5-257.21,167.5-257.21,18.78-156-39.08-192-78.17-14.19-98.48-42.56S1728.25,463.83,1691.71,456.27Z"/><path d="M174.55,105a2.56,2.56,0,0,1-.81-1.92V87.81L159.4,67.71a3,3,0,0,1-.48-1.62,2.77,2.77,0,0,1,.75-2,2.47,2.47,0,0,1,1.89-.81,2.75,2.75,0,0,1,2.4,1.38L176.5,83,189,64.71a2.75,2.75,0,0,1,2.4-1.38,2.56,2.56,0,0,1,1.92.81,2.51,2.51,0,0,1,.72,2,3,3,0,0,1-.48,1.62l-14.4,20.1v15.3a2.66,2.66,0,0,1-2.7,2.7A2.71,2.71,0,0,1,174.55,105Z"/><path d="M201.28,104.13a13.46,13.46,0,0,1-5.37-5.61,19.21,19.21,0,0,1,0-16.62,13.46,13.46,0,0,1,5.37-5.61,17.44,17.44,0,0,1,16.14,0,13.65,13.65,0,0,1,5.4,5.61,18.94,18.94,0,0,1,0,16.62,13.65,13.65,0,0,1-5.4,5.61,17.44,17.44,0,0,1-16.14,0ZM214.09,100a9.16,9.16,0,0,0,3.72-3.6,12,12,0,0,0,1.47-6.24A11.88,11.88,0,0,0,217.81,84a9,9,0,0,0-3.72-3.57,10.52,10.52,0,0,0-4.71-1.11,10.64,10.64,0,0,0-4.77,1.11A8.78,8.78,0,0,0,200.92,84a12.08,12.08,0,0,0-1.44,6.18,12.21,12.21,0,0,0,1.44,6.24,9,9,0,0,0,3.69,3.6,10.41,10.41,0,0,0,4.77,1.14A10.29,10.29,0,0,0,214.09,100Z"/><path d="M237.07,104.55a10.14,10.14,0,0,1-3.72-4.26,13.46,13.46,0,0,1-1.29-5.94v-17a2.56,2.56,0,0,1,.81-1.92,2.71,2.71,0,0,1,1.95-.78,2.61,2.61,0,0,1,1.92.78,2.65,2.65,0,0,1,.78,1.92V93.75q0,7.32,6.6,7.32a9.55,9.55,0,0,0,5.37-1.56,19.44,19.44,0,0,0,4.47-4.2v-18a2.56,2.56,0,0,1,.81-1.92,2.71,2.71,0,0,1,2-.78,2.66,2.66,0,0,1,2.7,2.7v25.74a2.71,2.71,0,0,1-.78,2,2.56,2.56,0,0,1-1.92.81,2.77,2.77,0,0,1-2.76-2.76v-2.46a19.94,19.94,0,0,1-4.92,4,12.45,12.45,0,0,1-6.24,1.5A10.37,10.37,0,0,1,237.07,104.55Z"/><path d="M290.1,104.22a14.25,14.25,0,0,1-5.39-5.52,18.37,18.37,0,0,1,0-17,14.25,14.25,0,0,1,5.39-5.52,14.07,14.07,0,0,1,7-1.89,13.83,13.83,0,0,1,10.27,4.56V64.17a2.63,2.63,0,0,1,.81-2,2.67,2.67,0,0,1,1.94-.78,2.56,2.56,0,0,1,1.92.81,2.72,2.72,0,0,1,.79,2v38.94a2.68,2.68,0,0,1-2.71,2.7,2.67,2.67,0,0,1-1.94-.78,2.56,2.56,0,0,1-.81-1.92v-1.56a13.83,13.83,0,0,1-10.27,4.56A14.07,14.07,0,0,1,290.1,104.22Zm13-4.44a14.87,14.87,0,0,0,4.3-3.27V83.91a14.87,14.87,0,0,0-4.3-3.27,11.32,11.32,0,0,0-5.18-1.23,9.44,9.44,0,0,0-7.15,2.82c-1.79,1.88-2.7,4.54-2.7,8s.91,6.1,2.7,8a9.44,9.44,0,0,0,7.15,2.82A11.32,11.32,0,0,0,303.12,99.78Z"/><path d="M327.75,104.13a13.46,13.46,0,0,1-5.37-5.61,19.21,19.21,0,0,1,0-16.62,13.46,13.46,0,0,1,5.37-5.61,17.44,17.44,0,0,1,16.14,0,13.65,13.65,0,0,1,5.4,5.61,18.94,18.94,0,0,1,0,16.62,13.65,13.65,0,0,1-5.4,5.61,17.44,17.44,0,0,1-16.14,0ZM340.56,100a9.16,9.16,0,0,0,3.72-3.6,12,12,0,0,0,1.47-6.24A11.88,11.88,0,0,0,344.28,84a9,9,0,0,0-3.72-3.57,10.52,10.52,0,0,0-4.71-1.11,10.64,10.64,0,0,0-4.77,1.11A8.78,8.78,0,0,0,327.39,84,12.08,12.08,0,0,0,326,90.15a12.21,12.21,0,0,0,1.44,6.24,9,9,0,0,0,3.69,3.6,10.41,10.41,0,0,0,4.77,1.14A10.29,10.29,0,0,0,340.56,100Z"/><path d="M365.38,105.09a3.62,3.62,0,0,1-1.33-1.8l-8.52-25a3.54,3.54,0,0,1-.18-1,2.66,2.66,0,0,1,2.7-2.7,2.74,2.74,0,0,1,1.53.45,2.21,2.21,0,0,1,.93,1.17l7,23.1,7-22.56a3.08,3.08,0,0,1,4.77-1.56,3.09,3.09,0,0,1,1.12,1.56l6.95,22.56,7-23.1a2.21,2.21,0,0,1,.93-1.17,2.74,2.74,0,0,1,1.53-.45,2.66,2.66,0,0,1,2.7,2.7,3.23,3.23,0,0,1-.18,1l-8.52,25a3.66,3.66,0,0,1-1.32,1.8,3.6,3.6,0,0,1-4.32,0,4,4,0,0,1-1.38-1.86l-6.36-19.86-6.36,19.86a4,4,0,0,1-1.38,1.86,3.51,3.51,0,0,1-2.16.72A3.46,3.46,0,0,1,365.38,105.09Z"/><path d="M406.71,105a2.61,2.61,0,0,1-.78-1.92V77.37a2.71,2.71,0,0,1,.78-2,2.56,2.56,0,0,1,1.92-.81,2.77,2.77,0,0,1,2.76,2.76v2.46a19.94,19.94,0,0,1,4.92-4,12.42,12.42,0,0,1,6.24-1.5,10.37,10.37,0,0,1,5.73,1.56A10.14,10.14,0,0,1,432,80.13a13.6,13.6,0,0,1,1.29,5.94v17a2.56,2.56,0,0,1-.81,1.92,2.71,2.71,0,0,1-2,.78,2.66,2.66,0,0,1-2.7-2.7V86.67q0-7.32-6.6-7.32a9.55,9.55,0,0,0-5.37,1.56,19.44,19.44,0,0,0-4.47,4.2v18a2.56,2.56,0,0,1-.81,1.92,2.71,2.71,0,0,1-1.95.78A2.61,2.61,0,0,1,406.71,105Z"/><path d="M459.87,98.19V79.59h-4.26a1.13,1.13,0,0,1-1.14-1.14,1.25,1.25,0,0,1,.54-1l8.16-8a1.51,1.51,0,0,1,1-.54,1.06,1.06,0,0,1,.81.36,1.2,1.2,0,0,1,.33.84v4.8h6.78a2.26,2.26,0,0,1,2.34,2.34,2.3,2.3,0,0,1-.66,1.65,2.22,2.22,0,0,1-1.68.69h-6.78V97.71q0,2.34,1.11,3a5.59,5.59,0,0,0,2.79.63,8.32,8.32,0,0,0,2.4-.36l.51-.12a3.27,3.27,0,0,1,.69-.06,2.11,2.11,0,0,1,1.5.63,2,2,0,0,1,.66,1.53,2.27,2.27,0,0,1-1.38,2.1,11.74,11.74,0,0,1-5,1.08Q459.87,106.11,459.87,98.19Z"/><path d="M481.77,105a2.61,2.61,0,0,1-.78-1.92V64.17a2.71,2.71,0,0,1,.78-2,2.56,2.56,0,0,1,1.92-.81,2.77,2.77,0,0,1,2.76,2.76V79.83a19.94,19.94,0,0,1,4.92-4,12.42,12.42,0,0,1,6.24-1.5,10.37,10.37,0,0,1,5.73,1.56,10.14,10.14,0,0,1,3.72,4.26,13.6,13.6,0,0,1,1.29,5.94v17a2.56,2.56,0,0,1-.81,1.92,2.71,2.71,0,0,1-2,.78,2.66,2.66,0,0,1-2.7-2.7V86.67q0-7.32-6.6-7.32a9.55,9.55,0,0,0-5.37,1.56,19.44,19.44,0,0,0-4.47,4.2v18a2.56,2.56,0,0,1-.81,1.92,2.71,2.71,0,0,1-1.95.78A2.61,2.61,0,0,1,481.77,105Z"/><path d="M519.78,101.94q-4.11-4.17-4.11-11.73a19.56,19.56,0,0,1,1.56-7.86,13.36,13.36,0,0,1,4.8-5.82,13.79,13.79,0,0,1,8-2.22,14,14,0,0,1,7.68,2.07,13.39,13.39,0,0,1,4.92,5.52,17,17,0,0,1,1.68,7.53,2.62,2.62,0,0,1-2.76,2.7H521.19a9.87,9.87,0,0,0,3.12,6.54Q527,101,531.69,101a18,18,0,0,0,4.41-.48,18.32,18.32,0,0,0,3.69-1.38,2.38,2.38,0,0,1,1.08-.24,2.41,2.41,0,0,1,1.68.66,2.18,2.18,0,0,1,.72,1.68,2.59,2.59,0,0,1-1.56,2.22,18.74,18.74,0,0,1-10.5,2.64Q523.89,106.11,519.78,101.94Zm19.11-14.25a9.61,9.61,0,0,0-1.53-4.92A8.26,8.26,0,0,0,534,79.86a9.15,9.15,0,0,0-8,0,8.06,8.06,0,0,0-3.3,2.91,9.79,9.79,0,0,0-1.5,4.92Z"/><path d="M552.27,105a2.61,2.61,0,0,1-.78-1.92V77.37a2.71,2.71,0,0,1,.78-2,2.56,2.56,0,0,1,1.92-.81A2.77,2.77,0,0,1,557,77.37V80q4.2-5.64,9.42-5.64h.3a2.51,2.51,0,0,1,1.89.78,2.66,2.66,0,0,1,.75,1.92,2.42,2.42,0,0,1-.78,1.86,2.81,2.81,0,0,1-2,.72h-.3A10.23,10.23,0,0,0,561,81a12.16,12.16,0,0,0-4,3.87v18.24a2.56,2.56,0,0,1-.81,1.92,2.71,2.71,0,0,1-1.95.78A2.61,2.61,0,0,1,552.27,105Z"/><path d="M575.82,101.94q-4.11-4.17-4.11-11.73a19.56,19.56,0,0,1,1.56-7.86,13.36,13.36,0,0,1,4.8-5.82,13.79,13.79,0,0,1,8-2.22,14,14,0,0,1,7.68,2.07,13.39,13.39,0,0,1,4.92,5.52,17,17,0,0,1,1.68,7.53,2.62,2.62,0,0,1-2.76,2.7H577.23a9.87,9.87,0,0,0,3.12,6.54Q583,101,587.73,101a18,18,0,0,0,4.41-.48,18.32,18.32,0,0,0,3.69-1.38,2.38,2.38,0,0,1,1.08-.24,2.41,2.41,0,0,1,1.68.66,2.18,2.18,0,0,1,.72,1.68,2.59,2.59,0,0,1-1.56,2.22,18.74,18.74,0,0,1-10.5,2.64Q579.93,106.11,575.82,101.94Zm19.11-14.25a9.61,9.61,0,0,0-1.53-4.92,8.26,8.26,0,0,0-3.33-2.91,9.15,9.15,0,0,0-8,0,8.06,8.06,0,0,0-3.3,2.91,9.79,9.79,0,0,0-1.5,4.92Z"/><path d="M607.08,114a1.78,1.78,0,0,1-.51-1.26,1.67,1.67,0,0,1,.9-1.5,6.85,6.85,0,0,0,2.28-2.1,6.41,6.41,0,0,0,.78-3.48h-.24a3.38,3.38,0,0,1-3.36-3.36V102a3.38,3.38,0,0,1,3.36-3.36h.6a3.38,3.38,0,0,1,3.36,3.36v3.54a9.65,9.65,0,0,1-4.92,8.76,1.89,1.89,0,0,1-1,.3A1.63,1.63,0,0,1,607.08,114Z"/><path d="M169,177.09a3.66,3.66,0,0,1-1.32-1.8l-8.52-25a3.23,3.23,0,0,1-.18-1,2.66,2.66,0,0,1,2.7-2.7,2.74,2.74,0,0,1,1.53.45,2.21,2.21,0,0,1,.93,1.17l7,23.1,7-22.56a3.08,3.08,0,0,1,5.88,0l7,22.56,7-23.1a2.21,2.21,0,0,1,.93-1.17,2.74,2.74,0,0,1,1.53-.45,2.66,2.66,0,0,1,2.7,2.7,3.23,3.23,0,0,1-.18,1l-8.52,25a3.66,3.66,0,0,1-1.32,1.8,3.6,3.6,0,0,1-4.32,0,4,4,0,0,1-1.38-1.86l-6.36-19.86-6.36,19.86a4,4,0,0,1-1.38,1.86,3.6,3.6,0,0,1-4.32,0Z"/><path d="M210.34,177a2.61,2.61,0,0,1-.78-1.92V136.17a2.71,2.71,0,0,1,.78-1.95,2.56,2.56,0,0,1,1.92-.81,2.77,2.77,0,0,1,2.76,2.76v15.66a19.94,19.94,0,0,1,4.92-4,12.42,12.42,0,0,1,6.24-1.5,10.37,10.37,0,0,1,5.73,1.56,10.14,10.14,0,0,1,3.72,4.26,13.6,13.6,0,0,1,1.29,5.94v17a2.56,2.56,0,0,1-.81,1.92,2.71,2.71,0,0,1-2,.78,2.66,2.66,0,0,1-2.7-2.7V158.67q0-7.32-6.6-7.32a9.55,9.55,0,0,0-5.37,1.56,19.44,19.44,0,0,0-4.47,4.2v18a2.56,2.56,0,0,1-.81,1.92,2.71,2.71,0,0,1-2,.78A2.61,2.61,0,0,1,210.34,177Z"/><path d="M249,177a8.52,8.52,0,0,1-3.57-3.15,8.68,8.68,0,0,1-1.32-4.77,8.41,8.41,0,0,1,3.51-7.08q3.51-2.64,10.29-2.64h7.26v-.48q0-4-1.95-5.7t-6.09-1.74a20.45,20.45,0,0,0-4,.36,34,34,0,0,0-3.93,1.08,3.37,3.37,0,0,1-.78.12,2.13,2.13,0,0,1-1.56-.66,2.2,2.2,0,0,1-.66-1.62,2.31,2.31,0,0,1,1.56-2.28,26.39,26.39,0,0,1,10.38-2.16,13.55,13.55,0,0,1,7,1.68,10.56,10.56,0,0,1,4.2,4.35,12.65,12.65,0,0,1,1.35,5.79v17a2.56,2.56,0,0,1-.81,1.92,2.71,2.71,0,0,1-1.95.78,2.66,2.66,0,0,1-2.7-2.7v-1.56a15.07,15.07,0,0,1-11.28,4.56A11.15,11.15,0,0,1,249,177Zm12-5a14.18,14.18,0,0,0,4.14-3.21v-5h-6.54q-9.06,0-9.06,4.74a4.45,4.45,0,0,0,1.47,3.48q1.47,1.32,4.89,1.32A10.85,10.85,0,0,0,261,172Z"/><path d="M280.9,170.19v-18.6h-4.26a1.13,1.13,0,0,1-1.14-1.14,1.25,1.25,0,0,1,.54-1l8.16-8a1.51,1.51,0,0,1,1-.54,1.06,1.06,0,0,1,.81.36,1.2,1.2,0,0,1,.33.84v4.8h6.78a2.26,2.26,0,0,1,2.34,2.34,2.3,2.3,0,0,1-.66,1.65,2.22,2.22,0,0,1-1.68.69h-6.78v18.12q0,2.34,1.11,3a5.59,5.59,0,0,0,2.79.63,8.32,8.32,0,0,0,2.4-.36l.51-.12a3.27,3.27,0,0,1,.69-.06,2.11,2.11,0,0,1,1.5.63,2,2,0,0,1,.66,1.53,2.27,2.27,0,0,1-1.38,2.1,11.74,11.74,0,0,1-5,1.08Q280.9,178.11,280.9,170.19Z"/><path d="M320.52,177a8.43,8.43,0,0,1-3.56-3.15,8.6,8.6,0,0,1-1.33-4.77,8.42,8.42,0,0,1,3.52-7.08q3.5-2.64,10.29-2.64h7.25v-.48q0-4-1.94-5.7c-1.31-1.16-3.33-1.74-6.1-1.74a20.45,20.45,0,0,0-4,.36,34.54,34.54,0,0,0-3.93,1.08,3.38,3.38,0,0,1-.77.12,2.14,2.14,0,0,1-1.57-.66,2.2,2.2,0,0,1-.66-1.62,2.31,2.31,0,0,1,1.56-2.28,26.4,26.4,0,0,1,10.39-2.16,13.51,13.51,0,0,1,7,1.68,10.65,10.65,0,0,1,4.21,4.35,12.64,12.64,0,0,1,1.34,5.79v17a2.59,2.59,0,0,1-.8,1.92,2.73,2.73,0,0,1-2,.78,2.68,2.68,0,0,1-2.71-2.7v-1.56a15,15,0,0,1-11.27,4.56A11.16,11.16,0,0,1,320.52,177Zm12-5a14.26,14.26,0,0,0,4.13-3.21v-5h-6.54q-9.06,0-9,4.74a4.44,4.44,0,0,0,1.46,3.48q1.47,1.32,4.9,1.32A10.91,10.91,0,0,0,332.56,172Z"/><path d="M352.11,177a2.61,2.61,0,0,1-.78-1.92V149.37a2.71,2.71,0,0,1,.78-2,2.56,2.56,0,0,1,1.92-.81,2.77,2.77,0,0,1,2.76,2.76V152q4.2-5.64,9.42-5.64h.3a2.51,2.51,0,0,1,1.89.78,2.66,2.66,0,0,1,.75,1.92,2.42,2.42,0,0,1-.78,1.86,2.81,2.81,0,0,1-2,.72h-.3a10.23,10.23,0,0,0-5.28,1.41,12.16,12.16,0,0,0-4,3.87v18.24A2.56,2.56,0,0,1,356,177a2.71,2.71,0,0,1-2,.78A2.61,2.61,0,0,1,352.11,177Z"/><path d="M375.67,173.94q-4.12-4.17-4.12-11.73a19.56,19.56,0,0,1,1.56-7.86,13.31,13.31,0,0,1,4.81-5.82,13.74,13.74,0,0,1,8-2.22,13.92,13.92,0,0,1,7.67,2.07,13.39,13.39,0,0,1,4.92,5.52,17,17,0,0,1,1.68,7.53,2.62,2.62,0,0,1-2.75,2.7H377.07a9.87,9.87,0,0,0,3.12,6.54q2.64,2.34,7.38,2.34a18,18,0,0,0,4.41-.48,18.32,18.32,0,0,0,3.69-1.38,2.38,2.38,0,0,1,1.08-.24,2.41,2.41,0,0,1,1.68.66,2.15,2.15,0,0,1,.72,1.68,2.59,2.59,0,0,1-1.56,2.22,18.74,18.74,0,0,1-10.5,2.64Q379.77,178.11,375.67,173.94Zm19.1-14.25a9.52,9.52,0,0,0-1.53-4.92,8.3,8.3,0,0,0-3.32-2.91,9.44,9.44,0,0,0-4-.93,9.3,9.3,0,0,0-4,.93,8,8,0,0,0-3.31,2.91,9.79,9.79,0,0,0-1.5,4.92Z"/><path d="M428,190.83a2.59,2.59,0,0,1-.75-1.86,2.72,2.72,0,0,1,.18-1l3.9-10L420,150.51a3.07,3.07,0,0,1-.24-1.14,2.71,2.71,0,0,1,.78-2,2.56,2.56,0,0,1,1.92-.81,2.62,2.62,0,0,1,1.53.48,2.72,2.72,0,0,1,1,1.2l9.24,22.92,9.42-22.8a2.62,2.62,0,0,1,2.52-1.8,2.56,2.56,0,0,1,1.92.81,2.71,2.71,0,0,1,.78,2,2.88,2.88,0,0,1-.18,1l-16.38,39.36a2.7,2.7,0,0,1-2.52,1.86A2.44,2.44,0,0,1,428,190.83Z"/><path d="M460.17,176.13a13.46,13.46,0,0,1-5.37-5.61,19.21,19.21,0,0,1,0-16.62,13.46,13.46,0,0,1,5.37-5.61,17.44,17.44,0,0,1,16.14,0,13.65,13.65,0,0,1,5.4,5.61,18.94,18.94,0,0,1,0,16.62,13.65,13.65,0,0,1-5.4,5.61,17.44,17.44,0,0,1-16.14,0ZM473,172a9.16,9.16,0,0,0,3.72-3.6,12,12,0,0,0,1.47-6.24A11.88,11.88,0,0,0,476.7,156,9,9,0,0,0,473,152.4a10.52,10.52,0,0,0-4.71-1.11,10.64,10.64,0,0,0-4.77,1.11,8.78,8.78,0,0,0-3.69,3.57,12.08,12.08,0,0,0-1.44,6.18,12.21,12.21,0,0,0,1.44,6.24,9,9,0,0,0,3.69,3.6,10.41,10.41,0,0,0,4.77,1.14A10.29,10.29,0,0,0,473,172Z"/><path d="M496,176.55a10.14,10.14,0,0,1-3.72-4.26,13.6,13.6,0,0,1-1.29-5.94v-17a2.56,2.56,0,0,1,.81-1.92,2.71,2.71,0,0,1,1.95-.78,2.66,2.66,0,0,1,2.7,2.7v16.44q0,7.32,6.6,7.32a9.55,9.55,0,0,0,5.37-1.56,19.44,19.44,0,0,0,4.47-4.2v-18a2.56,2.56,0,0,1,.81-1.92,2.71,2.71,0,0,1,2-.78,2.66,2.66,0,0,1,2.7,2.7v25.74a2.71,2.71,0,0,1-.78,1.95,2.56,2.56,0,0,1-1.92.81,2.77,2.77,0,0,1-2.76-2.76v-2.46a19.94,19.94,0,0,1-4.92,4,12.42,12.42,0,0,1-6.24,1.5A10.37,10.37,0,0,1,496,176.55Z"/><path d="M549,176.22a14.34,14.34,0,0,1-5.4-5.52,18.45,18.45,0,0,1,0-17,14.34,14.34,0,0,1,5.4-5.52,14.07,14.07,0,0,1,7-1.89,13.79,13.79,0,0,1,10.26,4.56v-14.7a2.63,2.63,0,0,1,.81-2,2.71,2.71,0,0,1,2-.78,2.56,2.56,0,0,1,1.92.81,2.71,2.71,0,0,1,.78,1.95v38.94a2.66,2.66,0,0,1-2.7,2.7,2.71,2.71,0,0,1-2-.78,2.56,2.56,0,0,1-.81-1.92v-1.56a13.79,13.79,0,0,1-10.26,4.56A14.07,14.07,0,0,1,549,176.22Zm13-4.44a14.82,14.82,0,0,0,4.29-3.27v-12.6a14.82,14.82,0,0,0-4.29-3.27,11.33,11.33,0,0,0-5.19-1.23,9.43,9.43,0,0,0-7.14,2.82q-2.7,2.82-2.7,8t2.7,8a9.43,9.43,0,0,0,7.14,2.82A11.33,11.33,0,0,0,562,171.78Z"/><path d="M586.65,176.13a13.46,13.46,0,0,1-5.37-5.61,19.21,19.21,0,0,1,0-16.62,13.46,13.46,0,0,1,5.37-5.61,17.44,17.44,0,0,1,16.14,0,13.65,13.65,0,0,1,5.4,5.61,18.94,18.94,0,0,1,0,16.62,13.65,13.65,0,0,1-5.4,5.61,17.44,17.44,0,0,1-16.14,0ZM599.46,172a9.16,9.16,0,0,0,3.72-3.6,12,12,0,0,0,1.47-6.24,11.88,11.88,0,0,0-1.47-6.18,9,9,0,0,0-3.72-3.57,10.52,10.52,0,0,0-4.71-1.11A10.64,10.64,0,0,0,590,152.4a8.78,8.78,0,0,0-3.69,3.57,12.08,12.08,0,0,0-1.44,6.18,12.21,12.21,0,0,0,1.44,6.24A9,9,0,0,0,590,172a10.41,10.41,0,0,0,4.77,1.14A10.29,10.29,0,0,0,599.46,172Z"/><path d="M618.15,139.77a3,3,0,0,1-.9-2.16v-.24a3.07,3.07,0,0,1,3.06-3.06h.36a3.07,3.07,0,0,1,3.06,3.06v.24a3.07,3.07,0,0,1-3.06,3.06h-.36A3,3,0,0,1,618.15,139.77Zm.36,37.26a2.61,2.61,0,0,1-.78-1.92V149.37a2.71,2.71,0,0,1,.78-2,2.56,2.56,0,0,1,1.92-.81,2.67,2.67,0,0,1,2.76,2.76v25.74a2.56,2.56,0,0,1-.81,1.92,2.71,2.71,0,0,1-2,.78A2.61,2.61,0,0,1,618.51,177Z"/><path d="M633.45,177a2.61,2.61,0,0,1-.78-1.92V149.37a2.71,2.71,0,0,1,.78-2,2.56,2.56,0,0,1,1.92-.81,2.77,2.77,0,0,1,2.76,2.76v2.46a19.94,19.94,0,0,1,4.92-4,12.42,12.42,0,0,1,6.24-1.5,10.37,10.37,0,0,1,5.73,1.56,10.14,10.14,0,0,1,3.72,4.26,13.6,13.6,0,0,1,1.29,5.94v17a2.56,2.56,0,0,1-.81,1.92,2.71,2.71,0,0,1-2,.78,2.66,2.66,0,0,1-2.7-2.7V158.67q0-7.32-6.6-7.32a9.55,9.55,0,0,0-5.37,1.56,19.44,19.44,0,0,0-4.47,4.2v18a2.56,2.56,0,0,1-.81,1.92,2.71,2.71,0,0,1-2,.78A2.61,2.61,0,0,1,633.45,177Z"/><path d="M676.47,191a23,23,0,0,1-5.82-2.22,2.28,2.28,0,0,1-1.08-2.1,2.46,2.46,0,0,1,.69-1.71,2.23,2.23,0,0,1,1.71-.75,3,3,0,0,1,1.08.24,21.83,21.83,0,0,0,9.9,2.28q9.18,0,9.18-9.78v-4a13.54,13.54,0,0,1-10.26,4.56,14.46,14.46,0,0,1-6.87-1.77,14.3,14.3,0,0,1-5.49-5.28,18,18,0,0,1,0-17.1,14.3,14.3,0,0,1,5.49-5.28,14.46,14.46,0,0,1,6.87-1.77,13.54,13.54,0,0,1,10.26,4.56v-1.5a2.71,2.71,0,0,1,.78-2,2.56,2.56,0,0,1,1.92-.81,2.77,2.77,0,0,1,2.76,2.76v26.82q0,7.56-3.66,11.64t-10.44,4.08A28.4,28.4,0,0,1,676.47,191ZM688,171.33a18,18,0,0,0,4.14-3.24V155.73a18,18,0,0,0-4.14-3.24,10.08,10.08,0,0,0-5-1.2,10.19,10.19,0,0,0-7.35,2.73q-2.85,2.73-2.85,7.89t2.85,7.89a10.19,10.19,0,0,0,7.35,2.73A10.08,10.08,0,0,0,688,171.33Z"/><path d="M713.7,165.66A2.17,2.17,0,0,1,713,164a11,11,0,0,1,1-4.74,12.66,12.66,0,0,1,2.25-3.39,36.67,36.67,0,0,1,3.45-3.09,22.29,22.29,0,0,0,3.36-3.12,4.61,4.61,0,0,0,1.08-3q0-6.54-8.58-6.54a16.65,16.65,0,0,0-4.11.51,12.75,12.75,0,0,0-3.57,1.47,2.67,2.67,0,0,1-1.5.48,2.46,2.46,0,0,1-2.4-2.4,2.63,2.63,0,0,1,1.5-2.28,17.65,17.65,0,0,1,5-2.22A22,22,0,0,1,716,135q6.12,0,9.81,3.06a10.19,10.19,0,0,1,3.69,8.28,9.49,9.49,0,0,1-.84,4.11,11,11,0,0,1-2,3,33.33,33.33,0,0,1-3.18,2.79,23.3,23.3,0,0,0-3.87,3.69,6.37,6.37,0,0,0-1.29,4,2.13,2.13,0,0,1-.78,1.65,2.71,2.71,0,0,1-1.86.69A2.68,2.68,0,0,1,713.7,165.66Zm-.72,11a3.47,3.47,0,0,1-1.05-2.55,3.59,3.59,0,0,1,3.54-3.54,3.47,3.47,0,0,1,2.55,1,3.4,3.4,0,0,1,1.05,2.49,3.59,3.59,0,0,1-3.6,3.6A3.4,3.4,0,0,1,713,176.7Z"/><path d="M1551.33,706.12a4.21,4.21,0,0,1-1.41-2L1538.16,668a4.2,4.2,0,0,1-.18-1,2.37,2.37,0,0,1,.69-1.89,2.64,2.64,0,0,1,1.95-.75,2.54,2.54,0,0,1,1.68.6,3.23,3.23,0,0,1,1,1.56l10.08,33.12,10.14-33a3,3,0,0,1,1.17-1.65,3.33,3.33,0,0,1,3.9,0,3,3,0,0,1,1.17,1.65l10.14,33L1590,666.49a3.23,3.23,0,0,1,1-1.56,2.54,2.54,0,0,1,1.68-.6,2.64,2.64,0,0,1,2,.75,2.37,2.37,0,0,1,.69,1.89,4.2,4.2,0,0,1-.18,1l-11.76,36.12a4.21,4.21,0,0,1-1.41,2,3.48,3.48,0,0,1-2.13.69,3.54,3.54,0,0,1-2.19-.75,3.73,3.73,0,0,1-1.35-1.95l-9.66-30.6-9.66,30.6a3.73,3.73,0,0,1-1.35,1.95,3.54,3.54,0,0,1-2.19.75A3.48,3.48,0,0,1,1551.33,706.12Z"/><path d="M1602.48,706a2.61,2.61,0,0,1-.78-1.92V665.17a2.71,2.71,0,0,1,.78-1.95,2.56,2.56,0,0,1,1.92-.81,2.77,2.77,0,0,1,2.76,2.76v15.66a19.94,19.94,0,0,1,4.92-4,12.42,12.42,0,0,1,6.24-1.5,10.37,10.37,0,0,1,5.73,1.56,10.14,10.14,0,0,1,3.72,4.26,13.6,13.6,0,0,1,1.29,5.94v17a2.56,2.56,0,0,1-.81,1.92,2.71,2.71,0,0,1-2,.78,2.66,2.66,0,0,1-2.7-2.7V687.67q0-7.32-6.6-7.32a9.55,9.55,0,0,0-5.37,1.56,19.44,19.44,0,0,0-4.47,4.2v18a2.56,2.56,0,0,1-.81,1.92,2.71,2.71,0,0,1-1.95.78A2.61,2.61,0,0,1,1602.48,706Z"/><path d="M1643.64,705.13a13.46,13.46,0,0,1-5.37-5.61,19.21,19.21,0,0,1,0-16.62,13.46,13.46,0,0,1,5.37-5.61,17.44,17.44,0,0,1,16.14,0,13.65,13.65,0,0,1,5.4,5.61,18.94,18.94,0,0,1,0,16.62,13.65,13.65,0,0,1-5.4,5.61,17.44,17.44,0,0,1-16.14,0Zm12.81-4.14a9.16,9.16,0,0,0,3.72-3.6,12,12,0,0,0,1.47-6.24,11.88,11.88,0,0,0-1.47-6.18,9,9,0,0,0-3.72-3.57,10.52,10.52,0,0,0-4.71-1.11,10.64,10.64,0,0,0-4.77,1.11,8.78,8.78,0,0,0-3.69,3.57,12.08,12.08,0,0,0-1.44,6.18,12.21,12.21,0,0,0,1.44,6.24A9,9,0,0,0,1647,701a10.41,10.41,0,0,0,4.77,1.14A10.29,10.29,0,0,0,1656.45,701Z"/><path d="M1691.09,706a2.61,2.61,0,0,1-.78-1.92V678.37a2.71,2.71,0,0,1,.78-2,2.56,2.56,0,0,1,1.92-.81,2.77,2.77,0,0,1,2.76,2.76v2.46a15,15,0,0,1,4-4,11,11,0,0,1,6.15-1.56,9.33,9.33,0,0,1,5.76,1.8,10,10,0,0,1,3.42,4.38,12.09,12.09,0,0,1,11-6.18,9.11,9.11,0,0,1,5.61,1.68,10,10,0,0,1,3.33,4.32,14.44,14.44,0,0,1,1.08,5.52v17.28a2.56,2.56,0,0,1-.81,1.92,2.71,2.71,0,0,1-2,.78,2.66,2.66,0,0,1-2.7-2.7v-16.2q0-3.9-1.38-5.73t-4.74-1.83a7.92,7.92,0,0,0-5.07,1.59,15.38,15.38,0,0,0-3.57,4.17v18a2.56,2.56,0,0,1-.81,1.92,2.71,2.71,0,0,1-2,.78,2.66,2.66,0,0,1-2.7-2.7v-16.2q0-3.9-1.38-5.73t-4.74-1.83a7.92,7.92,0,0,0-5.07,1.59,15.38,15.38,0,0,0-3.57,4.17v18A2.56,2.56,0,0,1,1695,706a2.71,2.71,0,0,1-2,.78A2.61,2.61,0,0,1,1691.09,706Z"/><path d="M1747.64,702.94q-4.11-4.17-4.11-11.73a19.56,19.56,0,0,1,1.56-7.86,13.36,13.36,0,0,1,4.8-5.82,13.79,13.79,0,0,1,8-2.22,14,14,0,0,1,7.68,2.07,13.39,13.39,0,0,1,4.92,5.52,17,17,0,0,1,1.68,7.53,2.62,2.62,0,0,1-2.76,2.7h-20.34a9.87,9.87,0,0,0,3.12,6.54q2.64,2.34,7.38,2.34a18,18,0,0,0,4.41-.48,18.32,18.32,0,0,0,3.69-1.38,2.38,2.38,0,0,1,1.08-.24,2.41,2.41,0,0,1,1.68.66,2.18,2.18,0,0,1,.72,1.68,2.59,2.59,0,0,1-1.56,2.22,18.74,18.74,0,0,1-10.5,2.64Q1751.75,707.11,1747.64,702.94Zm19.11-14.25a9.61,9.61,0,0,0-1.53-4.92,8.26,8.26,0,0,0-3.33-2.91,9.15,9.15,0,0,0-8,0,8.06,8.06,0,0,0-3.3,2.91,9.79,9.79,0,0,0-1.5,4.92Z"/><path d="M1785,694.66a2.17,2.17,0,0,1-.75-1.65,11,11,0,0,1,1-4.74,12.66,12.66,0,0,1,2.25-3.39,36.67,36.67,0,0,1,3.45-3.09,22.29,22.29,0,0,0,3.36-3.12,4.61,4.61,0,0,0,1.08-3q0-6.54-8.58-6.54a16.65,16.65,0,0,0-4.11.51,12.75,12.75,0,0,0-3.57,1.47,2.67,2.67,0,0,1-1.5.48,2.46,2.46,0,0,1-2.4-2.4,2.63,2.63,0,0,1,1.5-2.28,17.65,17.65,0,0,1,5-2.22,22,22,0,0,1,5.58-.66q6.12,0,9.81,3.06a10.19,10.19,0,0,1,3.69,8.28,9.49,9.49,0,0,1-.84,4.11,11,11,0,0,1-2,3,33.33,33.33,0,0,1-3.18,2.79,23.3,23.3,0,0,0-3.87,3.69,6.37,6.37,0,0,0-1.29,4,2.13,2.13,0,0,1-.78,1.65,2.71,2.71,0,0,1-1.86.69A2.68,2.68,0,0,1,1785,694.66Zm-.72,11a3.47,3.47,0,0,1-1-2.55,3.59,3.59,0,0,1,3.54-3.54,3.47,3.47,0,0,1,2.55,1,3.4,3.4,0,0,1,1,2.49,3.59,3.59,0,0,1-3.6,3.6A3.4,3.4,0,0,1,1784.24,705.7Z"/><path d="M1542.9,778a2.61,2.61,0,0,1-.78-1.92v-37a2.71,2.71,0,0,1,.78-2,2.56,2.56,0,0,1,1.92-.81,2.77,2.77,0,0,1,2.76,2.76v37a2.56,2.56,0,0,1-.81,1.92,2.71,2.71,0,0,1-2,.78A2.61,2.61,0,0,1,1542.9,778Z"/><path d="M1557.69,749.35a1.78,1.78,0,0,1-.51-1.26,1.67,1.67,0,0,1,.9-1.5,6.85,6.85,0,0,0,2.28-2.1,6.41,6.41,0,0,0,.78-3.48h-.24a3.38,3.38,0,0,1-3.36-3.36v-.36a3.38,3.38,0,0,1,3.36-3.36h.6a3.38,3.38,0,0,1,3.36,3.36v3.54a9.65,9.65,0,0,1-4.92,8.76,1.89,1.89,0,0,1-1,.3A1.63,1.63,0,0,1,1557.69,749.35Z"/><path d="M1573.2,778a2.61,2.61,0,0,1-.78-1.92V750.37a2.71,2.71,0,0,1,.78-2,2.56,2.56,0,0,1,1.92-.81,2.77,2.77,0,0,1,2.76,2.76v2.46a15,15,0,0,1,4-4,11,11,0,0,1,6.15-1.56,9.33,9.33,0,0,1,5.76,1.8,10,10,0,0,1,3.42,4.38,12.09,12.09,0,0,1,11-6.18,9.11,9.11,0,0,1,5.61,1.68,10,10,0,0,1,3.33,4.32,14.44,14.44,0,0,1,1.08,5.52v17.28a2.56,2.56,0,0,1-.81,1.92,2.73,2.73,0,0,1-2,.78,2.66,2.66,0,0,1-2.7-2.7v-16.2q0-3.9-1.38-5.73t-4.74-1.83a7.92,7.92,0,0,0-5.07,1.59,15.38,15.38,0,0,0-3.57,4.17v18a2.56,2.56,0,0,1-.81,1.92,2.71,2.71,0,0,1-2,.78,2.66,2.66,0,0,1-2.7-2.7v-16.2q0-3.9-1.38-5.73c-.93-1.22-2.5-1.83-4.74-1.83a7.92,7.92,0,0,0-5.07,1.59,15.21,15.21,0,0,0-3.57,4.17v18a2.56,2.56,0,0,1-.81,1.92,2.73,2.73,0,0,1-2,.78A2.61,2.61,0,0,1,1573.2,778Z"/><path d="M1643.88,778a2.57,2.57,0,0,1-.78-1.92V750.37a2.67,2.67,0,0,1,.78-2,2.56,2.56,0,0,1,1.92-.81,2.77,2.77,0,0,1,2.76,2.76v2.46a14.67,14.67,0,0,1,4-4,11,11,0,0,1,6.15-1.56,9.33,9.33,0,0,1,5.76,1.8,10.19,10.19,0,0,1,3.42,4.38,12.08,12.08,0,0,1,11-6.18,9.11,9.11,0,0,1,5.61,1.68,10,10,0,0,1,3.33,4.32,14.44,14.44,0,0,1,1.08,5.52v17.28a2.56,2.56,0,0,1-.81,1.92,2.73,2.73,0,0,1-2,.78,2.66,2.66,0,0,1-2.7-2.7v-16.2q0-3.9-1.38-5.73c-.93-1.22-2.5-1.83-4.74-1.83a7.92,7.92,0,0,0-5.07,1.59,15,15,0,0,0-3.57,4.17v18A2.56,2.56,0,0,1,1668,778a2.73,2.73,0,0,1-2,.78,2.66,2.66,0,0,1-2.7-2.7v-16.2c0-2.6-.47-4.51-1.38-5.73s-2.5-1.83-4.74-1.83a7.92,7.92,0,0,0-5.07,1.59,15.21,15.21,0,0,0-3.57,4.17v18a2.56,2.56,0,0,1-.81,1.92,2.73,2.73,0,0,1-2,.78A2.61,2.61,0,0,1,1643.88,778Z"/><path d="M1703.58,777.13a13.34,13.34,0,0,1-5.37-5.61,19.12,19.12,0,0,1,0-16.62,13.34,13.34,0,0,1,5.37-5.61,17.42,17.42,0,0,1,16.13,0,13.73,13.73,0,0,1,5.41,5.61,18.94,18.94,0,0,1,0,16.62,13.73,13.73,0,0,1-5.41,5.61,17.42,17.42,0,0,1-16.13,0Zm12.81-4.14a9.14,9.14,0,0,0,3.71-3.6,12,12,0,0,0,1.48-6.24,11.88,11.88,0,0,0-1.48-6.18,8.94,8.94,0,0,0-3.71-3.57,10.68,10.68,0,0,0-9.48,0,8.86,8.86,0,0,0-3.7,3.57,12.08,12.08,0,0,0-1.44,6.18,12.21,12.21,0,0,0,1.44,6.24,9.06,9.06,0,0,0,3.7,3.6,10.42,10.42,0,0,0,9.48,0Z"/><path d="M1740.05,777.13a13.46,13.46,0,0,1-5.37-5.61,19.21,19.21,0,0,1,0-16.62,13.46,13.46,0,0,1,5.37-5.61,17.44,17.44,0,0,1,16.14,0,13.65,13.65,0,0,1,5.4,5.61,18.94,18.94,0,0,1,0,16.62,13.65,13.65,0,0,1-5.4,5.61,17.44,17.44,0,0,1-16.14,0Zm12.81-4.14a9.16,9.16,0,0,0,3.72-3.6,12,12,0,0,0,1.47-6.24,11.88,11.88,0,0,0-1.47-6.18,9,9,0,0,0-3.72-3.57,10.52,10.52,0,0,0-4.71-1.11,10.64,10.64,0,0,0-4.77,1.11,8.78,8.78,0,0,0-3.69,3.57,12.08,12.08,0,0,0-1.44,6.18,12.21,12.21,0,0,0,1.44,6.24,9,9,0,0,0,3.69,3.6,10.41,10.41,0,0,0,4.77,1.14A10.29,10.29,0,0,0,1752.86,773Z"/><path d="M1771.55,740.77a3,3,0,0,1-.9-2.16v-.24a3.07,3.07,0,0,1,3.06-3.06h.36a3.07,3.07,0,0,1,3.06,3.06v.24a3.07,3.07,0,0,1-3.06,3.06h-.36A3,3,0,0,1,1771.55,740.77Zm.36,37.26a2.61,2.61,0,0,1-.78-1.92V750.37a2.71,2.71,0,0,1,.78-2,2.56,2.56,0,0,1,1.92-.81,2.67,2.67,0,0,1,2.76,2.76v25.74a2.56,2.56,0,0,1-.81,1.92,2.71,2.71,0,0,1-2,.78A2.61,2.61,0,0,1,1771.91,778Z"/><path d="M1786.85,778a2.61,2.61,0,0,1-.78-1.92V750.37a2.71,2.71,0,0,1,.78-2,2.56,2.56,0,0,1,1.92-.81,2.77,2.77,0,0,1,2.76,2.76v2.46a19.94,19.94,0,0,1,4.92-4,12.42,12.42,0,0,1,6.24-1.5,10.37,10.37,0,0,1,5.73,1.56,10.14,10.14,0,0,1,3.72,4.26,13.6,13.6,0,0,1,1.29,5.94v17a2.56,2.56,0,0,1-.81,1.92,2.71,2.71,0,0,1-1.95.78,2.66,2.66,0,0,1-2.7-2.7V759.67q0-7.32-6.6-7.32a9.55,9.55,0,0,0-5.37,1.56,19.44,19.44,0,0,0-4.47,4.2v18a2.56,2.56,0,0,1-.81,1.92,2.71,2.71,0,0,1-2,.78A2.61,2.61,0,0,1,1786.85,778Z"/><path d="M1829.87,792a23,23,0,0,1-5.82-2.22,2.28,2.28,0,0,1-1.08-2.1,2.46,2.46,0,0,1,.69-1.71,2.23,2.23,0,0,1,1.71-.75,3,3,0,0,1,1.08.24,21.83,21.83,0,0,0,9.9,2.28q9.18,0,9.18-9.78v-4a13.54,13.54,0,0,1-10.26,4.56,14.46,14.46,0,0,1-6.87-1.77,14.3,14.3,0,0,1-5.49-5.28,18,18,0,0,1,0-17.1,14.3,14.3,0,0,1,5.49-5.28,14.46,14.46,0,0,1,6.87-1.77,13.54,13.54,0,0,1,10.26,4.56v-1.5a2.71,2.71,0,0,1,.78-2,2.56,2.56,0,0,1,1.92-.81,2.77,2.77,0,0,1,2.76,2.76v26.82q0,7.56-3.66,11.64t-10.44,4.08A28.4,28.4,0,0,1,1829.87,792Zm11.52-19.68a18,18,0,0,0,4.14-3.24V756.73a18,18,0,0,0-4.14-3.24,10.08,10.08,0,0,0-5-1.2,10.19,10.19,0,0,0-7.35,2.73q-2.85,2.73-2.85,7.89t2.85,7.89a10.19,10.19,0,0,0,7.35,2.73A10.08,10.08,0,0,0,1841.39,772.33Z"/><path d="M1860.86,777.7a3.23,3.23,0,0,1-1-2.37V775a3.38,3.38,0,0,1,3.36-3.36h.6a3.38,3.38,0,0,1,3.36,3.36v.36a3.38,3.38,0,0,1-3.36,3.36h-.6A3.23,3.23,0,0,1,1860.86,777.7Z"/><path class="cls-3" d="M120.29,122.11a8.85,8.85,0,0,1-2.28,1.1c-.88.3-1.78.53-2.68.75a20.45,20.45,0,0,0-5.42,2,1.5,1.5,0,0,0,1.52,2.59,19.29,19.29,0,0,1,5-1.74,17.6,17.6,0,0,0,5.35-2.07,1.5,1.5,0,1,0-1.52-2.59Z"/><path class="cls-3" d="M121.24,121.46c-4.44-1-8.86-2.09-13.23-3.35l1.1,1.45a9.17,9.17,0,0,0-1.62-5.92,1.52,1.52,0,0,0-2.74.35c-.49,1.23.14,2.89,1.69,2.68s1.7-1.91,1-3a1.51,1.51,0,0,0-2.59,0c-.6,1.24-1.23,2.47-1.81,3.72-.19.39-.38.76-.58,1.14a.53.53,0,0,1-.25.24c-.1.06.22.08,0,0-.48-.26-.78-1-1.08-1.42a4.54,4.54,0,0,0-1.77-1.68,1.52,1.52,0,0,0-2.25,1.3,42.59,42.59,0,0,1-1,6.36c-.46,1.88,2.44,2.68,2.89.8a46.84,46.84,0,0,0,1.15-7.16l-2.26,1.29c.8.36,1.17,1.4,1.7,2.06a3.41,3.41,0,0,0,2.69,1.46,3.5,3.5,0,0,0,3-2.08c.77-1.47,1.45-3,2.17-4.49H104.9l.58-1.25,1.16-.15c.45,1.44.79,1.78,1,1l-2.75.36a6.56,6.56,0,0,1,1.21,4.41,1.52,1.52,0,0,0,1.1,1.45c4.37,1.26,8.8,2.32,13.23,3.34,1.88.43,2.68-2.46.8-2.89Z"/><path class="cls-3" d="M108.73,128.81l-1.6,9.28c-.52,3-1.15,6-1.4,9-.19,2.28.56,15.53,5.1,12.95a1.5,1.5,0,0,0-1.51-2.59l-.21.12,1.16-.15c.14,0-.33-1.23-.37-1.36-.2-.56-.37-1.13-.52-1.71a20.88,20.88,0,0,1-.62-3.13,25.84,25.84,0,0,1,.35-7c.79-4.87,1.67-9.72,2.51-14.59.33-1.88-2.56-2.7-2.89-.79Z"/><path class="cls-3" d="M92.84,158.42c2.13,1.47,4.32,3,5.56,5.35a7.07,7.07,0,0,1,.76,3.41,3,3,0,0,0,.42,1.71c.36.57,1,.74,1.45,1.13a3.05,3.05,0,0,1,.89,1.15,4.21,4.21,0,0,0,.19.57s.29-.39.29-.4c.1-.19,0,0,0,0-1.43-.15-2.91-.12-4.34-.19s-3.06-.15-4.58-.24a3.9,3.9,0,0,0-1.07-.06c-.2.07-.28-.16,0,.16s.11.06.1-.06a16.94,16.94,0,0,0-.61-2.27,37.48,37.48,0,0,1-.94-9.85c.06-1.93-2.94-1.93-3,0A40.79,40.79,0,0,0,89,169.59c.38,1.57.66,3.73,2.52,4.14a16.78,16.78,0,0,0,2.56.19l2.9.15c1.78.09,3.62.32,5.41.24a2.61,2.61,0,0,0,2.67-3.19,5.94,5.94,0,0,0-2.55-3.73,2.2,2.2,0,0,0-.38-.24c-.57-.19.21.16.05.24a3.54,3.54,0,0,0,0-.8,8.8,8.8,0,0,0-.43-2.55c-1.2-3.73-4.29-6.07-7.38-8.21a1.51,1.51,0,0,0-2,.54,1.53,1.53,0,0,0,.53,2Z"/><path class="cls-3" d="M107.74,159.05a8.78,8.78,0,0,1-.29,1,2.34,2.34,0,0,0-.09.24c0-.1.14-.3,0-.08a3.42,3.42,0,0,1-.21.43,7.86,7.86,0,0,1-.54.87c-.16.22.22-.26,0,0l-.14.17c-.11.13-.22.25-.34.37s-.22.22-.34.32l-.19.16c-.23.2.29-.21,0,0a6.75,6.75,0,0,1-.8.51c-.08,0-.39.13-.43.2.21-.08.23-.1.08,0l-.09,0-.28.11a11.14,11.14,0,0,0-1.37.6,1.5,1.5,0,0,0,1.52,2.59l.26-.14.19-.08-.13.05.56-.22a10.88,10.88,0,0,0,1.31-.58,8,8,0,0,0,1.85-1.43,8.75,8.75,0,0,0,2.26-4.22,1.54,1.54,0,0,0-1-1.85,1.52,1.52,0,0,0-1.84,1.05Z"/><path class="cls-3" d="M108.54,156.16l3.81,2.85c1.07.79,2.09,1.52,2.28,2.92a10.87,10.87,0,0,1-.36,3.76c-.19.94-.41,2.27-1.27,2.85a1.53,1.53,0,0,0-.69,1.7,2.12,2.12,0,0,0,1,1.22,2,2,0,0,0,.66.26c.21,0,.14.1,0,0l-.39-.66v0l.2-.76c.26-.11.32-.15.2-.12l-.61,0-.92,0a16.74,16.74,0,0,1-2.24-.15,17.25,17.25,0,0,1-4.16-1.15,1.55,1.55,0,0,0-2,.54,1.5,1.5,0,0,0,.54,2.05,20.2,20.2,0,0,0,8.67,1.7c1.44-.06,3-.3,3.34-2a2,2,0,0,0-.7-1.94,2.64,2.64,0,0,0-.79-.43,2,2,0,0,0-.33-.09c-.26-.09-.22-.06.14.09l.38.66,0-.14-.69,1.69a6.42,6.42,0,0,0,2.52-4,15.72,15.72,0,0,0,.6-5.23,6.42,6.42,0,0,0-2.66-4.61c-1.62-1.26-3.28-2.46-4.92-3.68a1.5,1.5,0,0,0-2,.54,1.53,1.53,0,0,0,.54,2Z"/><path class="cls-3" d="M91.37,153.42c0-.53.06-1.06.1-1.59,0-.24,0-.48.08-.73s0-.24,0-.36l0-.24c0,.17,0,.2,0,.09.15-1,.33-2.05.57-3.07a1.5,1.5,0,0,0-2.9-.79,37.65,37.65,0,0,0-.91,6.69,1.5,1.5,0,0,0,1.5,1.5,1.52,1.52,0,0,0,1.5-1.5Z"/><path class="cls-3" d="M86.38,90.71c1.72-.58,3.47-1.57,3.68-3.56a4.06,4.06,0,0,0-3.35-4.23c-4.2-.94-8.27,2-9.63,5.86A9.59,9.59,0,0,0,77,94.84c.72,2.18,2.61,3.39,4,5.07,2.91,3.43,5.49,7.64,6.37,12.09A20,20,0,0,1,85,125.9a1.5,1.5,0,0,0,2.59,1.51,23,23,0,0,0,1.55-20,36.64,36.64,0,0,0-6-9.59c-1.17-1.39-3-2.45-3.41-4.28a6.7,6.7,0,0,1,.62-4.79,5.69,5.69,0,0,1,4.43-3c.64,0,2,0,2.25.75s-.9,1.11-1.45,1.3c-1.82.61-1,3.51.79,2.89Z"/><path class="cls-3" d="M86.36,91.23c5.79-.3,13.62-3.48,14.34-10,.65-5.89-3.43-11.52-8.41-14.24-6-3.25-13.3-3.16-19.86-2.39a67.63,67.63,0,0,0-20.06,5.58C47.21,72.45,42.23,75.68,39,80.41c-3.93,5.75-3.39,12.45-3.39,19.07a91.81,91.81,0,0,0,.14,10.88,28,28,0,0,0,3,9.51A79.3,79.3,0,0,0,44,128.24a65.65,65.65,0,0,0,5.7,7.46,25.43,25.43,0,0,0,7.9,6.07c3.57,1.66,7.36,2.21,11.21,2.76,3.49.5,6.4,1.6,8.41,4.63A31.41,31.41,0,0,1,80.81,158a1.5,1.5,0,0,0,2.89-.8c-1.41-4.86-3.13-10.2-7.42-13.28-2.46-1.78-5.46-2.14-8.39-2.54A29.51,29.51,0,0,1,58.66,139c-5.15-2.54-8.72-7.28-11.88-11.91-3.38-5-7-10.12-8-16.17a56.61,56.61,0,0,1-.23-10c0-3.23-.19-6.46,0-9.69a17.82,17.82,0,0,1,2.48-8.51,20.85,20.85,0,0,1,5.25-5.63c4.63-3.5,10.26-5.75,15.79-7.37A58.41,58.41,0,0,1,81,67.19c6.32.25,13,2.51,15.83,8.66,1.34,2.91,1.5,6.44-1,8.7a15.5,15.5,0,0,1-9.39,3.68c-1.92.1-1.93,3.1,0,3Z"/><path class="cls-3" d="M110,130.6a50.07,50.07,0,0,1,3.06,8.93c.38,1.48.73,3,1.08,4.47.24,1,.82,2.95-.35,3.63l2,.53a16.4,16.4,0,0,0-6.2-5.75c-1.71-.89-3.23,1.7-1.51,2.59a13.25,13.25,0,0,1,5.12,4.68,1.53,1.53,0,0,0,2,.54c3.59-2.08,1.76-7,1-10.12a57.85,57.85,0,0,0-3.71-11c-.83-1.74-3.42-.22-2.59,1.52Z"/><path class="cls-3" d="M93.66,128.58c-6.7,2.73-9.11,10.26-8.56,17a1.51,1.51,0,0,0,3,.4,23.62,23.62,0,0,1,1.71-3.59,10.27,10.27,0,0,1,2.69-2.73c2.23-1.66,4.59-3.78,4.32-6.85a1.54,1.54,0,0,0-1.5-1.5,1.51,1.51,0,0,0-1.5,1.5c.23,2.63-2.67,4-4.37,5.46-2.14,1.81-3.22,4.37-4.24,6.91l2.94.4c-.42-5.17,1-11.89,6.36-14.09a1.55,1.55,0,0,0,1.05-1.84,1.52,1.52,0,0,0-1.85-1Z"/><path class="cls-3" d="M1540.9,903.09c4.08-5.17,6.54-11.23,8.93-17.32s4.84-12,8.77-17.18c7.75-10.3,19.31-17.28,31.51-21a95,95,0,0,1,21.63-3.81c3.63-.23,7.29-.32,10.93-.25,3.07.06,6.53.25,9,2.25s3.55,5.21,4.29,8.16a37.89,37.89,0,0,1,1.08,9.84,45.69,45.69,0,0,1-4.85,19.26c-6.61,13.34-18.81,22.86-31.92,29.35-1.73.86-.21,3.45,1.51,2.59,12.21-6,23.58-14.67,30.78-26.41a50.66,50.66,0,0,0,7.07-19.65c.9-6.7.45-14-2.29-20.29a12.47,12.47,0,0,0-6.71-6.84c-3.15-1.27-6.66-1.27-10-1.28a116.25,116.25,0,0,0-23,2.08c-13.68,2.72-26.89,8.75-36.78,18.76a54.29,54.29,0,0,0-11.06,16.42c-2.78,6.31-4.79,13-8.26,19a35.3,35.3,0,0,1-2.85,4.24c-1.18,1.5.93,3.64,2.13,2.12Z"/><path class="cls-3" d="M1604.31,934.85c-16.58-8.63-33.72-17.39-52.31-20.6-8.74-1.51-18.22-2-26.91.1-3.65.89-7.26,2.64-9.34,5.9-2.24,3.49-2.17,7.9-1.47,11.84,2.75,15.5,14.91,28.18,29,34.3a70.7,70.7,0,0,0,26.49,5.54c8.36.2,17.14-.54,25.11-3.23,7.08-2.39,14.08-6.76,17.37-13.74,2.8-5.94,3.29-13.54-.35-19.26a15.19,15.19,0,0,0-3.29-3.68c-1.5-1.18-3.64.93-2.13,2.13,5,3.92,5.9,10.6,4.24,16.41-1.92,6.73-7.35,11.33-13.59,14.08-7.05,3.11-15.07,4.05-22.71,4.28a72.88,72.88,0,0,1-24.85-3.32c-13.88-4.55-26.39-14.9-31.09-29.06-1.15-3.46-2.08-7.33-1.54-11a9.44,9.44,0,0,1,6.57-7.61,39.33,39.33,0,0,1,11.61-1.87,73.75,73.75,0,0,1,12.69.55c17.46,2.24,33.76,9.94,49.27,17.87,1.9,1,3.79,2,5.69,2.94,1.71.89,3.23-1.7,1.51-2.59Z"/><path class="cls-3" d="M1658.57,878.9c17-3.87,34-7.72,51.25-10.62a307.91,307.91,0,0,1,51.86-4.78,182.08,182.08,0,0,1,44.24,5.22,147.72,147.72,0,0,1,37.18,14.8,114.45,114.45,0,0,1,30.37,24.8c9.21,10.79,16.57,23.82,18.87,37.95a44.42,44.42,0,0,1-1.73,22.06c-2.29,6.37-6.19,12-10.33,17.34-4.25,5.45-8.83,10.66-12.77,16.36a63.61,63.61,0,0,0-5.15,8.76c-1.45,3.05-2.64,6.21-4,9.32-2.45,5.77-5.53,11.78-11.35,14.77-5.28,2.71-11.6,2.2-17,.11-13.42-5.21-18.62-19.56-20-32.83-.36-3.56-.5-7.14-.54-10.71a1.5,1.5,0,0,0-3,0c.15,14.1,2,30.76,13.27,40.7,9.29,8.21,24.51,11.07,33.91,1.46,4.83-4.95,7.09-11.67,9.71-17.91a77.55,77.55,0,0,1,10.94-17.91c8.81-11.19,19-22,21.11-36.72,2.21-15.39-3.38-30.9-11.6-43.72a108.83,108.83,0,0,0-28.16-29.28,139.81,139.81,0,0,0-36.67-18.59,168.62,168.62,0,0,0-41.54-8.36c-17.94-1.38-36-.32-53.8,2s-35.47,6-53,9.93c-4.31,1-8.62,1.94-12.93,2.91-1.88.43-1.08,3.33.8,2.9Z"/><path class="cls-3" d="M1641.9,949.69c10,3.55,17,12.23,21.14,21.69,5,11.42,5.63,24.11,5.83,36.4.11,6.84.08,13.7.56,20.53.42,5.93,1.43,12.12,5.43,16.77,3.33,3.86,8.58,6.09,13.61,4.52,4.46-1.39,7.57-5.25,9.67-9.25,3-5.65,4.38-12,6.12-18.1l6.48-22.82a1.5,1.5,0,0,0-2.89-.8l-5.68,20c-1.59,5.62-2.91,11.42-5.06,16.85-1.6,4-3.94,8.45-7.88,10.6-4.4,2.4-9.35.4-12.37-3.24-3.93-4.72-4.3-11.43-4.6-17.29-.33-6.63-.29-13.27-.43-19.9-.26-12-1.2-24.11-6-35.25-4.48-10.42-12.25-19.69-23.16-23.57-1.83-.65-2.61,2.24-.8,2.89Z"/><path class="cls-3" d="M1636.15,963.47a214.78,214.78,0,0,0,.19,41c.59,5.84,1,12.1,3.11,17.63,1.72,4.54,4.9,8.72,9.89,9.75,4.63,1,9.84-.65,11.57-5.39.66-1.82-2.24-2.6-2.9-.8-1.23,3.38-5.54,4-8.59,3.13-4.37-1.22-6.64-5.6-7.8-9.66-1.5-5.28-1.94-10.92-2.45-16.36-.56-6.09-.87-12.21-.91-18.32,0-7,.26-14,.89-21,.18-1.92-2.83-1.91-3,0Z"/><path class="cls-3" d="M1717.8,992.25a187.84,187.84,0,0,0,53.3,5.1q7.61-.37,15.17-1.37a1.54,1.54,0,0,0,1.5-1.5,1.51,1.51,0,0,0-1.5-1.5,184.79,184.79,0,0,1-53-.67c-4.93-.78-9.84-1.77-14.69-2.95-1.88-.46-2.68,2.43-.8,2.89Z"/><path class="cls-3" d="M1777.2,1003.2c.54,7.07,1.44,14.41,5,20.66a20.49,20.49,0,0,0,14.85,10.41,14.16,14.16,0,0,0,9.67-2.07c1.61-1.06.11-3.66-1.51-2.59-5.87,3.85-13.63,1-18-3.83-5.42-6-6.43-14.87-7-22.58-.15-1.91-3.15-1.92-3,0Z"/><path class="cls-3" d="M1640.3,884.28a35.81,35.81,0,0,1,10.49.57c2.77.71,5.47,2.15,6.7,4.81a8.18,8.18,0,0,1,.27,6.19,4.11,4.11,0,0,1-5.29,2.39c-3.25-1-5.44-4.65-7-7.44-.94-1.68-3.53-.17-2.59,1.52,1.82,3.24,4.21,6.8,7.71,8.39a7.29,7.29,0,0,0,9-2.1,10.2,10.2,0,0,0,1.19-8.51,11.11,11.11,0,0,0-6.7-7.27c-4.34-1.85-9.2-1.76-13.82-1.55-1.92.08-1.93,3.08,0,3Z"/><path class="cls-3" d="M1552.85,860.05c-8.51-3.26-19,.74-23.21,8.77a1.54,1.54,0,0,0,.54,2,15.13,15.13,0,0,0,12.93,2c1.85-.56,1.06-3.46-.79-2.89a12.29,12.29,0,0,1-10.63-1.71l.54,2.05a16.29,16.29,0,0,1,19.82-7.39c1.8.69,2.58-2.21.8-2.89Z"/><path class="cls-3" d="M1557.31,902a26.37,26.37,0,0,1-1-10.63,25.8,25.8,0,0,1,1.23-5.35,11,11,0,0,1,2.26-4.24c2.17-2.22,4.39-.12,5.25,2.14,1.06,2.83.63,6.12-.17,9a21.1,21.1,0,0,1-5.87,9.67c-1.4,1.34.72,3.45,2.13,2.13a24.3,24.3,0,0,0,6.47-10.45c1.1-3.59,1.62-7.83.21-11.42-1.21-3.1-4.08-5.94-7.67-4.75-3.86,1.28-5.43,6.24-6.25,9.79a29,29,0,0,0,.5,14.93c.56,1.85,3.46,1.06,2.89-.79Z"/><path class="cls-3" d="M1578.1,899.67c-.37-3.93-.69-7.87-.93-11.82-.16-2.65-.19-6.1,2.91-7a5.71,5.71,0,0,1,6.19,2.21,9.7,9.7,0,0,1,.77,8.31c-1.19,3.76-4,6.8-6.57,9.68-1.29,1.44.83,3.57,2.12,2.12,2.82-3.15,5.67-6.4,7.15-10.43a13,13,0,0,0-.57-10.69,8.71,8.71,0,0,0-8.16-4.38,7.17,7.17,0,0,0-6.79,6.51,37,37,0,0,0,.21,7.44c.19,2.68.42,5.36.67,8,.18,1.91,3.18,1.93,3,0Z"/><path class="cls-3" d="M1561.41,889.15a1.5,1.5,0,0,0,0-3,1.5,1.5,0,0,0,0,3Z"/><path class="cls-3" d="M1580,890.48a1.5,1.5,0,0,0,0-3,1.5,1.5,0,0,0,0,3Z"/><path class="cls-3" d="M1561.24,928.89l.21,9.27a1.52,1.52,0,0,0,1.9,1.45,7.15,7.15,0,0,0,4.72-8.44,1.52,1.52,0,0,0-1.84-1,1.54,1.54,0,0,0-1,1.85,3.86,3.86,0,0,1,.1.49c-.06-.39,0,.13,0,.21a4,4,0,0,1,0,.49c0,.15,0,.36,0,.09a5.19,5.19,0,0,1-.24,1,2.25,2.25,0,0,1-.08.24c.07-.17.07-.18,0,0s-.12.26-.19.39l-.23.37c0,.06-.36.46-.13.2-.21.23-.42.45-.65.66l-.14.12c.14-.11.15-.11,0,0l-.41.27-.44.22c.33-.15-.16,0-.23.06l1.9,1.45-.21-9.27a1.5,1.5,0,0,0-1.5-1.5,1.53,1.53,0,0,0-1.5,1.5Z"/><path class="cls-3" d="M1540,927.56l.16,10.36a1.53,1.53,0,0,0,1.5,1.5,6.43,6.43,0,0,0,1.43-12.73,1.55,1.55,0,0,0-1.85,1,1.53,1.53,0,0,0,1,1.85l.43.1s.44.15.18,0a3.55,3.55,0,0,1,.64.34s.38.27.17.11a3.11,3.11,0,0,1,.33.29l.25.26c.06.06.22.26.1.1a5.09,5.09,0,0,1,.46.74s.17.37.11.22.06.2.07.23.08.28.12.42.06.47,0,.18a5.34,5.34,0,0,1,0,.8c0,.16,0-.16,0,.11a3.25,3.25,0,0,1-.11.42s-.13.38-.07.23-.12.23-.15.28a3.14,3.14,0,0,1-.18.31s-.27.37-.11.17a5.12,5.12,0,0,1-.56.58c-.06.06-.25.22-.09.09a2.9,2.9,0,0,1-.36.25l-.38.22-.22.1-.23.08-.43.1c-.39.11.24,0-.17,0l-.44,0,1.5,1.5-.16-10.36a1.5,1.5,0,0,0-3,0Z"/><path class="cls-3" d="M1567.83,961.82c0-.08,0-.15,0-.22,0,.21,0,.23,0,.06s0-.22,0-.33a1.35,1.35,0,0,1,0-.45l0,.18c0-.07,0-.15,0-.22l.12-.43c0-.08.17-.4,0-.06a4.64,4.64,0,0,1,.38-.69c.08-.13.19-.26,0-.06a3.17,3.17,0,0,1,.3-.34,1.75,1.75,0,0,1,.24-.23l.17-.15c-.16.12-.17.13,0,0a2.68,2.68,0,0,1,.28-.18s.42-.23.22-.13.19-.06.24-.08a2.62,2.62,0,0,0,.38-.09c.11,0,.07,0-.12,0l.23,0h.58q-.31,0-.06,0l.34.08.44.14c-.24-.08-.08,0,.06,0a4.05,4.05,0,0,1,.35.21c.07,0,.41.3.12.07a3.91,3.91,0,0,1,.59.56c.1.11.2.26.06.05l.25.39c.06.1.1.21.16.31-.18-.33,0,.09.06.18s0,.22.08.33,0,.15,0,0a1.64,1.64,0,0,1,0,.23l.21-.76c.19-.26,0,0-.14.12s-.28.22-.11.1l-.08,0-.19.11s-.26.14-.08,0,0,0-.09,0l-.27.08-.22,0s.32,0,.06,0H1572c-.25,0,0,0,.06,0a1.7,1.7,0,0,0-.28-.06l-.21-.07c-.2,0,.31.15,0,0a1.5,1.5,0,0,0-1.52,2.59,4.86,4.86,0,0,0,5-.36,4.22,4.22,0,0,0,1.1-1.09,2.28,2.28,0,0,0,.14-1.83,5.82,5.82,0,0,0-1.15-2.32,6.07,6.07,0,0,0-4.31-2.25,5.49,5.49,0,0,0-4.35,1.87,6,6,0,0,0-1.44,5.31,1.5,1.5,0,1,0,2.89-.79Z"/><path class="cls-3" d="M1873.12,898.63a26.75,26.75,0,0,1,23.93,7.21c1.38,1.36,3.5-.76,2.13-2.12a29.91,29.91,0,0,0-26.86-8c-1.89.38-1.09,3.27.8,2.89Z"/><path d="M1745.05,876.53c9,6.57,18,13.09,26.9,19.72,1.64,1.22,3.54,2.69,4,4.79s-.56,4.63-1.6,6.56a38.53,38.53,0,0,1-8.53,10.08c-6.53,5.89-14.07,11.28-17.55,19.69s-.55,17.32,6,23.23c6.94,6.28,16.66,8.19,25.74,8.54,8.68.32,17.58-1,25.47-4.74A32.59,32.59,0,0,0,1822,947.21c2.85-7.07,3.06-15.48-.67-22.28-1.95-3.55-5-6.22-7.6-9.29s-4.17-6.64-2.32-10.37,5.5-6,8.93-7.84,7.19-3.78,9.94-6.73a14.31,14.31,0,0,0,3-4.9c.66-1.81-2.24-2.6-2.9-.79-1.34,3.7-4.79,6-8.06,7.9-3.48,2-7.09,3.72-10.07,6.48-2.83,2.61-5,6.21-4.61,10.19s2.92,7.11,5.53,9.95,5.17,5.44,6.56,9a22.52,22.52,0,0,1,1.21,11,28,28,0,0,1-11.65,19.14c-7,5-15.65,7.1-24.15,7.44-8.92.36-18.78-.67-26.36-5.77A21.34,21.34,0,0,1,1751,951a16.27,16.27,0,0,1-.07-12.08c3.13-8.25,10.92-13.53,17.21-19.22a42.08,42.08,0,0,0,8.47-9.87c2.16-3.73,3.78-8.46,1-12.31a20.85,20.85,0,0,0-4.82-4.36l-6.45-4.72L1753,878.67l-6.44-4.73c-1.56-1.14-3.06,1.46-1.52,2.59Z"/><path d="M1496.59,1057.45q-110.94-4.12-221.76-10.79c-64.41-3.88-128.93-7.78-193-15.8C960.64,1015.67,833.49,983.92,739,902.11c-47.43-41.05-81.69-94.54-86.21-158.23-4.86-68.45,17.93-134.89,25.17-202.33,3.21-29.83,2.78-61.42-12.11-88.34-14.41-26-39.15-45.58-62.17-63.7a674.6,674.6,0,0,0-150.2-89.15C345.51,253.85,225.62,234.57,108.62,247q-20.79,2.21-41.41,5.73c-1.9.32-1.1,3.21.79,2.89,118.26-20,241.17-7,353.35,35a678.76,678.76,0,0,1,158.43,84.62c24.15,17.41,49.07,36.16,68.68,58.73,23.3,26.8,29.82,59.18,27.64,93.93-4.21,67.45-27.67,132.51-27,200.48.32,30.77,6.24,61.16,19.36,89.08,11.89,25.34,28.88,48.07,48.4,68C801.4,971.88,924.73,1009.77,1041,1028.1c60.5,9.55,121.62,14.33,182.7,18.34q109.35,7.17,218.85,11.85,27,1.15,54,2.16c1.93.07,1.93-2.93,0-3Z"/></svg>