<svg id="Layer_1" data-name="Layer 1" xmlns="http://www.w3.org/2000/svg" viewBox="0 0 1920 1080"><defs><style>.cls-1{fill:#39b54a;}.cls-1,.cls-2{opacity:0.5;}.cls-2{fill:#3785e2;}</style></defs><rect class="cls-1" x="111.87" y="411.49" width="675.03" height="263.17" transform="translate(178.56 -107.72) rotate(17.01)"/><path d="M197.9,189a2.61,2.61,0,0,1-.78-1.92v-37a2.71,2.71,0,0,1,.78-2,2.56,2.56,0,0,1,1.92-.81,2.77,2.77,0,0,1,2.76,2.76v37a2.56,2.56,0,0,1-.81,1.92,2.71,2.71,0,0,1-2,.78A2.61,2.61,0,0,1,197.9,189Z"/><path d="M216.2,189a2.61,2.61,0,0,1-.78-1.92V163.59h-3.54a2.36,2.36,0,0,1-2.34-2.34,2.22,2.22,0,0,1,.69-1.68,2.3,2.3,0,0,1,1.65-.66h3.54v-3.48a12,12,0,0,1,1.29-5.91,8,8,0,0,1,3.36-3.36,9.49,9.49,0,0,1,4.35-1,11.51,11.51,0,0,1,5.22,1.2,2.59,2.59,0,0,1,1,.87,2.14,2.14,0,0,1,.39,1.23,2.23,2.23,0,0,1-.66,1.59,2.09,2.09,0,0,1-1.56.69,5.69,5.69,0,0,1-1.38-.18q-1.44-.18-1.62-.18a5.26,5.26,0,0,0-3.69,1.14q-1.23,1.14-1.23,4.14v3.3h7.5a2.26,2.26,0,0,1,2.34,2.34,2.3,2.3,0,0,1-.66,1.65,2.22,2.22,0,0,1-1.68.69h-7.5v23.52a2.56,2.56,0,0,1-.81,1.92,2.71,2.71,0,0,1-1.95.78A2.61,2.61,0,0,1,216.2,189Z"/><path d="M256.67,202.83a2.55,2.55,0,0,1-.75-1.86,2.72,2.72,0,0,1,.18-1l3.9-10-11.29-27.48a3,3,0,0,1-.23-1.14,2.7,2.7,0,0,1,.77-2,2.56,2.56,0,0,1,1.92-.81,2.67,2.67,0,0,1,1.54.48,2.77,2.77,0,0,1,1,1.2l9.25,22.92,9.41-22.8a2.62,2.62,0,0,1,2.53-1.8,2.55,2.55,0,0,1,1.91.81,2.72,2.72,0,0,1,.79,2,2.88,2.88,0,0,1-.18,1L261,201.75a2.72,2.72,0,0,1-2.52,1.86A2.41,2.41,0,0,1,256.67,202.83Z"/><path d="M288.85,188.13a13.46,13.46,0,0,1-5.37-5.61,19.21,19.21,0,0,1,0-16.62,13.46,13.46,0,0,1,5.37-5.61,17.44,17.44,0,0,1,16.14,0,13.73,13.73,0,0,1,5.41,5.61,19,19,0,0,1,0,16.62,13.73,13.73,0,0,1-5.41,5.61,17.44,17.44,0,0,1-16.14,0ZM301.67,184a9.14,9.14,0,0,0,3.71-3.6,12,12,0,0,0,1.47-6.24,11.88,11.88,0,0,0-1.47-6.18,8.94,8.94,0,0,0-3.71-3.57,10.68,10.68,0,0,0-9.48,0,8.86,8.86,0,0,0-3.7,3.57,12.08,12.08,0,0,0-1.44,6.18,12.21,12.21,0,0,0,1.44,6.24,9.06,9.06,0,0,0,3.7,3.6,10.42,10.42,0,0,0,9.48,0Z"/><path d="M324.64,188.55a10.14,10.14,0,0,1-3.72-4.26,13.6,13.6,0,0,1-1.29-5.94v-17a2.56,2.56,0,0,1,.81-1.92,2.71,2.71,0,0,1,1.95-.78,2.66,2.66,0,0,1,2.7,2.7v16.44q0,7.32,6.6,7.32a9.55,9.55,0,0,0,5.37-1.56,19.44,19.44,0,0,0,4.47-4.2v-18a2.56,2.56,0,0,1,.81-1.92,2.71,2.71,0,0,1,2-.78,2.66,2.66,0,0,1,2.7,2.7v25.74a2.71,2.71,0,0,1-.78,1.95,2.56,2.56,0,0,1-1.92.81,2.77,2.77,0,0,1-2.76-2.76v-2.46a19.94,19.94,0,0,1-4.92,4,12.42,12.42,0,0,1-6.24,1.5A10.37,10.37,0,0,1,324.64,188.55Z"/><path d="M354.7,160.35a1.78,1.78,0,0,1-.51-1.26,1.67,1.67,0,0,1,.9-1.5,6.85,6.85,0,0,0,2.28-2.1,6.41,6.41,0,0,0,.78-3.48h-.24a3.38,3.38,0,0,1-3.36-3.36v-.36a3.38,3.38,0,0,1,3.36-3.36h.6a3.38,3.38,0,0,1,3.36,3.36v3.54a9.65,9.65,0,0,1-4.92,8.76,1.89,1.89,0,0,1-1,.3A1.63,1.63,0,0,1,354.7,160.35Z"/><path d="M370.21,189a2.61,2.61,0,0,1-.78-1.92V161.37a2.71,2.71,0,0,1,.78-2,2.56,2.56,0,0,1,1.92-.81,2.77,2.77,0,0,1,2.76,2.76V164q4.2-5.64,9.42-5.64h.3a2.51,2.51,0,0,1,1.89.78,2.66,2.66,0,0,1,.75,1.92,2.42,2.42,0,0,1-.78,1.86,2.81,2.81,0,0,1-2,.72h-.3a10.23,10.23,0,0,0-5.28,1.41,12.16,12.16,0,0,0-4,3.87v18.24a2.56,2.56,0,0,1-.81,1.92,2.71,2.71,0,0,1-1.95.78A2.61,2.61,0,0,1,370.21,189Z"/><path d="M393.76,185.94q-4.11-4.17-4.11-11.73a19.56,19.56,0,0,1,1.56-7.86,13.36,13.36,0,0,1,4.8-5.82,13.79,13.79,0,0,1,8-2.22,14,14,0,0,1,7.68,2.07,13.39,13.39,0,0,1,4.92,5.52,17,17,0,0,1,1.68,7.53,2.62,2.62,0,0,1-2.76,2.7H395.17a9.87,9.87,0,0,0,3.12,6.54q2.64,2.34,7.38,2.34a18,18,0,0,0,4.41-.48,18.32,18.32,0,0,0,3.69-1.38,2.38,2.38,0,0,1,1.08-.24,2.41,2.41,0,0,1,1.68.66,2.18,2.18,0,0,1,.72,1.68,2.59,2.59,0,0,1-1.56,2.22,18.74,18.74,0,0,1-10.5,2.64Q397.87,190.11,393.76,185.94Zm19.11-14.25a9.61,9.61,0,0,0-1.53-4.92,8.26,8.26,0,0,0-3.33-2.91,9.15,9.15,0,0,0-8,0,8.06,8.06,0,0,0-3.3,2.91,9.79,9.79,0,0,0-1.5,4.92Z"/><path d="M444,189a8.52,8.52,0,0,1-3.57-3.15,8.68,8.68,0,0,1-1.32-4.77A8.41,8.41,0,0,1,442.6,174q3.51-2.64,10.29-2.64h7.26v-.48q0-4-1.95-5.7t-6.09-1.74a20.45,20.45,0,0,0-4.05.36,34,34,0,0,0-3.93,1.08,3.37,3.37,0,0,1-.78.12,2.13,2.13,0,0,1-1.56-.66,2.2,2.2,0,0,1-.66-1.62,2.31,2.31,0,0,1,1.56-2.28,26.39,26.39,0,0,1,10.38-2.16,13.55,13.55,0,0,1,7,1.68,10.56,10.56,0,0,1,4.2,4.35,12.65,12.65,0,0,1,1.35,5.79v17a2.56,2.56,0,0,1-.81,1.92,2.71,2.71,0,0,1-1.95.78,2.66,2.66,0,0,1-2.7-2.7v-1.56a15.07,15.07,0,0,1-11.28,4.56A11.15,11.15,0,0,1,444,189Zm12-5a14.18,14.18,0,0,0,4.14-3.21v-5h-6.54q-9.06,0-9.06,4.74A4.45,4.45,0,0,0,446,184q1.47,1.32,4.89,1.32A10.85,10.85,0,0,0,456,184Z"/><path d="M473.77,187.41a2.29,2.29,0,0,1-1-2,2.41,2.41,0,0,1,.66-1.68,2.18,2.18,0,0,1,1.68-.72,2.64,2.64,0,0,1,1.08.24,24.25,24.25,0,0,0,3.84,1.32,17.85,17.85,0,0,0,4.32.48q6.66,0,6.66-4.26a2.27,2.27,0,0,0-1.53-2.1,31.33,31.33,0,0,0-5-1.62,45.27,45.27,0,0,1-5.85-1.74,10.29,10.29,0,0,1-4-2.73,6.94,6.94,0,0,1-1.65-4.83,8.65,8.65,0,0,1,3-6.84q3-2.64,8.67-2.64a25,25,0,0,1,8.7,1.5,2.25,2.25,0,0,1,1.29.9,2.41,2.41,0,0,1,.45,1.38,2.35,2.35,0,0,1-.69,1.68,2.27,2.27,0,0,1-1.71.72,3.37,3.37,0,0,1-.78-.12,23,23,0,0,0-6.84-1.08,9.37,9.37,0,0,0-5.07,1.17,3.49,3.49,0,0,0-1.83,3,2.77,2.77,0,0,0,1.68,2.64,24,24,0,0,0,5.22,1.62,50,50,0,0,1,5.76,1.77,9.52,9.52,0,0,1,3.81,2.73,7.41,7.41,0,0,1,1.59,5,7.93,7.93,0,0,1-3,6.36q-3,2.52-8.55,2.52A22.32,22.32,0,0,1,473.77,187.41Z"/><path d="M504.37,189a2.61,2.61,0,0,1-.78-1.92V148.17a2.71,2.71,0,0,1,.78-1.95,2.56,2.56,0,0,1,1.92-.81,2.77,2.77,0,0,1,2.76,2.76v24.54l14.28-13.2a2.76,2.76,0,0,1,1.8-.78,2.43,2.43,0,0,1,2,.78,2.87,2.87,0,0,1,.63,1.86,2.94,2.94,0,0,1-1,2l-8.64,7.74L529,185.55a2.63,2.63,0,0,1,.6,1.62,2.49,2.49,0,0,1-.78,1.92,2.81,2.81,0,0,1-2,.72,2.66,2.66,0,0,1-1.2-.3,3,3,0,0,1-1-.84l-10.32-14-5.22,4.74v7.74a2.56,2.56,0,0,1-.81,1.92,2.71,2.71,0,0,1-1.95.78A2.61,2.61,0,0,1,504.37,189Z"/><path d="M536.71,151.77a3,3,0,0,1-.9-2.16v-.24a3.07,3.07,0,0,1,3.06-3.06h.36a3.07,3.07,0,0,1,3.06,3.06v.24a3.07,3.07,0,0,1-3.06,3.06h-.36A3,3,0,0,1,536.71,151.77Zm.36,37.26a2.61,2.61,0,0,1-.78-1.92V161.37a2.71,2.71,0,0,1,.78-2,2.56,2.56,0,0,1,1.92-.81,2.67,2.67,0,0,1,2.76,2.76v25.74a2.56,2.56,0,0,1-.81,1.92,2.71,2.71,0,0,1-2,.78A2.61,2.61,0,0,1,537.07,189Z"/><path d="M552,189a2.61,2.61,0,0,1-.78-1.92V161.37a2.71,2.71,0,0,1,.78-2,2.56,2.56,0,0,1,1.92-.81,2.77,2.77,0,0,1,2.76,2.76v2.46a19.94,19.94,0,0,1,4.92-4,12.42,12.42,0,0,1,6.24-1.5,10.37,10.37,0,0,1,5.73,1.56,10.14,10.14,0,0,1,3.72,4.26,13.6,13.6,0,0,1,1.29,5.94v17a2.56,2.56,0,0,1-.81,1.92,2.71,2.71,0,0,1-1.95.78,2.66,2.66,0,0,1-2.7-2.7V170.67q0-7.32-6.6-7.32a9.55,9.55,0,0,0-5.37,1.56,19.44,19.44,0,0,0-4.47,4.2v18a2.56,2.56,0,0,1-.81,1.92,2.71,2.71,0,0,1-2,.78A2.61,2.61,0,0,1,552,189Z"/><path d="M595,203a23,23,0,0,1-5.82-2.22,2.28,2.28,0,0,1-1.08-2.1,2.46,2.46,0,0,1,.69-1.71,2.23,2.23,0,0,1,1.71-.75,3,3,0,0,1,1.08.24,21.83,21.83,0,0,0,9.9,2.28q9.18,0,9.18-9.78v-4a13.54,13.54,0,0,1-10.26,4.56,14.46,14.46,0,0,1-6.87-1.77,14.3,14.3,0,0,1-5.49-5.28,18,18,0,0,1,0-17.1,14.3,14.3,0,0,1,5.49-5.28,14.46,14.46,0,0,1,6.87-1.77,13.54,13.54,0,0,1,10.26,4.56v-1.5a2.71,2.71,0,0,1,.78-2,2.56,2.56,0,0,1,1.92-.81,2.77,2.77,0,0,1,2.76,2.76v26.82q0,7.56-3.66,11.64t-10.44,4.08A28.4,28.4,0,0,1,595,203Zm11.52-19.68a18,18,0,0,0,4.14-3.24V167.73a18,18,0,0,0-4.14-3.24,10.08,10.08,0,0,0-5-1.2,10.19,10.19,0,0,0-7.35,2.73q-2.85,2.73-2.85,7.89t2.85,7.89a10.19,10.19,0,0,0,7.35,2.73A10.08,10.08,0,0,0,606.55,183.33Z"/><path d="M642,189a2.61,2.61,0,0,1-.78-1.92V161.37a2.71,2.71,0,0,1,.78-2,2.56,2.56,0,0,1,1.92-.81,2.77,2.77,0,0,1,2.76,2.76v2.46a15,15,0,0,1,4-4,11,11,0,0,1,6.15-1.56,9.33,9.33,0,0,1,5.76,1.8,10,10,0,0,1,3.42,4.38,12.09,12.09,0,0,1,11-6.18,9.11,9.11,0,0,1,5.61,1.68,10,10,0,0,1,3.33,4.32,14.44,14.44,0,0,1,1.08,5.52v17.28a2.56,2.56,0,0,1-.81,1.92,2.71,2.71,0,0,1-2,.78,2.66,2.66,0,0,1-2.7-2.7v-16.2q0-3.9-1.38-5.73t-4.74-1.83a7.92,7.92,0,0,0-5.07,1.59,15.38,15.38,0,0,0-3.57,4.17v18a2.56,2.56,0,0,1-.81,1.92,2.71,2.71,0,0,1-2,.78,2.66,2.66,0,0,1-2.7-2.7v-16.2q0-3.9-1.38-5.73t-4.74-1.83a7.92,7.92,0,0,0-5.07,1.59,15.38,15.38,0,0,0-3.57,4.17v18a2.56,2.56,0,0,1-.81,1.92,2.71,2.71,0,0,1-2,.78A2.61,2.61,0,0,1,642,189Z"/><path d="M698.56,185.94q-4.11-4.17-4.11-11.73a19.56,19.56,0,0,1,1.56-7.86,13.36,13.36,0,0,1,4.8-5.82,13.79,13.79,0,0,1,8-2.22,14,14,0,0,1,7.68,2.07,13.39,13.39,0,0,1,4.92,5.52,17,17,0,0,1,1.68,7.53,2.62,2.62,0,0,1-2.76,2.7H700a9.87,9.87,0,0,0,3.12,6.54q2.64,2.34,7.38,2.34a18,18,0,0,0,4.41-.48,18.32,18.32,0,0,0,3.69-1.38,2.38,2.38,0,0,1,1.08-.24,2.41,2.41,0,0,1,1.68.66,2.18,2.18,0,0,1,.72,1.68,2.59,2.59,0,0,1-1.56,2.22,18.74,18.74,0,0,1-10.5,2.64Q702.67,190.11,698.56,185.94Zm19.11-14.25a9.61,9.61,0,0,0-1.53-4.92,8.26,8.26,0,0,0-3.33-2.91,9.15,9.15,0,0,0-8,0,8.06,8.06,0,0,0-3.3,2.91,9.79,9.79,0,0,0-1.5,4.92Z"/><path d="M729.82,198a1.78,1.78,0,0,1-.51-1.26,1.67,1.67,0,0,1,.9-1.5,6.85,6.85,0,0,0,2.28-2.1,6.41,6.41,0,0,0,.78-3.48H733a3.38,3.38,0,0,1-3.36-3.36V186a3.38,3.38,0,0,1,3.36-3.36h.6A3.38,3.38,0,0,1,737,186v3.54a9.65,9.65,0,0,1-4.92,8.76,1.89,1.89,0,0,1-1,.3A1.63,1.63,0,0,1,729.82,198Z"/><path d="M197.9,261a2.61,2.61,0,0,1-.78-1.92v-37a2.71,2.71,0,0,1,.78-2,2.56,2.56,0,0,1,1.92-.81,2.77,2.77,0,0,1,2.76,2.76v37a2.56,2.56,0,0,1-.81,1.92,2.71,2.71,0,0,1-2,.78A2.61,2.61,0,0,1,197.9,261Z"/><path d="M252.47,274.83a2.63,2.63,0,0,1-.81-2v-15.3a13.79,13.79,0,0,1-10.26,4.56,14.07,14.07,0,0,1-7.05-1.89,14.34,14.34,0,0,1-5.4-5.52,18.45,18.45,0,0,1,0-17,14.34,14.34,0,0,1,5.4-5.52,14.07,14.07,0,0,1,7.05-1.89,13.79,13.79,0,0,1,10.26,4.56v-1.56a2.56,2.56,0,0,1,.81-1.92,2.71,2.71,0,0,1,1.95-.78,2.66,2.66,0,0,1,2.7,2.7v39.54a2.71,2.71,0,0,1-.78,1.95,2.56,2.56,0,0,1-1.92.81A2.71,2.71,0,0,1,252.47,274.83Zm-5.1-19a14.82,14.82,0,0,0,4.29-3.27v-12.6a14.82,14.82,0,0,0-4.29-3.27,11.33,11.33,0,0,0-5.19-1.23,9.43,9.43,0,0,0-7.14,2.82q-2.7,2.82-2.7,8t2.7,8a9.43,9.43,0,0,0,7.14,2.82A11.33,11.33,0,0,0,247.37,255.78Z"/><path d="M271.31,260.55a10.14,10.14,0,0,1-3.72-4.26,13.46,13.46,0,0,1-1.29-5.94v-17a2.56,2.56,0,0,1,.81-1.92,2.69,2.69,0,0,1,1.95-.78,2.66,2.66,0,0,1,2.7,2.7v16.44q0,7.32,6.6,7.32a9.57,9.57,0,0,0,5.37-1.56,19.64,19.64,0,0,0,4.47-4.2v-18a2.56,2.56,0,0,1,.81-1.92,2.71,2.71,0,0,1,1.95-.78,2.64,2.64,0,0,1,1.92.78,2.61,2.61,0,0,1,.78,1.92v25.74a2.71,2.71,0,0,1-.78,1.95,2.59,2.59,0,0,1-1.92.81,2.77,2.77,0,0,1-2.76-2.76v-2.46a20.13,20.13,0,0,1-4.92,4,12.45,12.45,0,0,1-6.24,1.5A10.35,10.35,0,0,1,271.31,260.55Z"/><path d="M306.05,261a8.46,8.46,0,0,1-3.57-3.15,8.68,8.68,0,0,1-1.32-4.77,8.41,8.41,0,0,1,3.51-7.08q3.51-2.64,10.29-2.64h7.26v-.48c0-2.64-.66-4.54-2-5.7s-3.33-1.74-6.09-1.74a20.31,20.31,0,0,0-4.05.36,34,34,0,0,0-3.93,1.08,3.37,3.37,0,0,1-.78.12,2.13,2.13,0,0,1-1.56-.66,2.2,2.2,0,0,1-.66-1.62,2.3,2.3,0,0,1,1.56-2.28,26.35,26.35,0,0,1,10.38-2.16,13.55,13.55,0,0,1,7,1.68,10.62,10.62,0,0,1,4.2,4.35,12.65,12.65,0,0,1,1.35,5.79v17a2.56,2.56,0,0,1-.81,1.92,2.73,2.73,0,0,1-1.95.78,2.66,2.66,0,0,1-2.7-2.7v-1.56a15.09,15.09,0,0,1-11.28,4.56A11.12,11.12,0,0,1,306.05,261Zm12-5a14.18,14.18,0,0,0,4.14-3.21v-5h-6.54q-9.06,0-9.06,4.74a4.42,4.42,0,0,0,1.47,3.48q1.47,1.32,4.89,1.32A10.85,10.85,0,0,0,318.08,256Z"/><path d="M343,260.19a14.71,14.71,0,0,1-5.85-5.52,17.44,17.44,0,0,1,0-16.92,14.71,14.71,0,0,1,5.85-5.52,16.89,16.89,0,0,1,8-1.92,16.71,16.71,0,0,1,5.49.81,21,21,0,0,1,4.29,2.07,2.39,2.39,0,0,1,.51,3.75,2.12,2.12,0,0,1-1.59.75,2.68,2.68,0,0,1-1.32-.36,23.31,23.31,0,0,0-3.39-1.47,11.74,11.74,0,0,0-3.51-.45q-5.17,0-8.1,3a11.9,11.9,0,0,0,0,15.66q2.93,3,8.1,3a11.74,11.74,0,0,0,3.51-.45,23.31,23.31,0,0,0,3.39-1.47,2.68,2.68,0,0,1,1.32-.36,2.12,2.12,0,0,1,1.59.75,2.39,2.39,0,0,1-.51,3.75,21,21,0,0,1-4.29,2.07,16.71,16.71,0,0,1-5.49.81A16.89,16.89,0,0,1,343,260.19Z"/><path d="M369.61,261a2.61,2.61,0,0,1-.78-1.92V220.17a2.71,2.71,0,0,1,.78-1.95,2.56,2.56,0,0,1,1.92-.81,2.77,2.77,0,0,1,2.76,2.76v24.54l14.28-13.2a2.76,2.76,0,0,1,1.8-.78,2.43,2.43,0,0,1,2,.78,2.87,2.87,0,0,1,.63,1.86,2.94,2.94,0,0,1-1,2l-8.64,7.74,10.86,14.4a2.63,2.63,0,0,1,.6,1.62,2.49,2.49,0,0,1-.78,1.92,2.81,2.81,0,0,1-2,.72,2.66,2.66,0,0,1-1.2-.3,3,3,0,0,1-1-.84l-10.32-14-5.22,4.74v7.74a2.56,2.56,0,0,1-.81,1.92,2.71,2.71,0,0,1-2,.78A2.61,2.61,0,0,1,369.61,261Z"/><path d="M401.92,260.7a3.23,3.23,0,0,1-1-2.37V258a3.38,3.38,0,0,1,3.36-3.36h.6a3.38,3.38,0,0,1,3.36,3.36v.36a3.38,3.38,0,0,1-3.36,3.36h-.6A3.23,3.23,0,0,1,401.92,260.7Z"/><path d="M1059.05,224a2.66,2.66,0,0,1-.75-1.92,3.27,3.27,0,0,1,.3-1.2l15.3-36.12a4.6,4.6,0,0,1,1.35-1.77,3.32,3.32,0,0,1,2.13-.69h.6a3.32,3.32,0,0,1,2.13.69,4.6,4.6,0,0,1,1.35,1.77l15.3,36.12a3.27,3.27,0,0,1,.3,1.2,2.66,2.66,0,0,1-.75,1.92,2.58,2.58,0,0,1-2,.78,2.74,2.74,0,0,1-1.53-.45,2.87,2.87,0,0,1-1-1.23l-3.9-9.36h-20.4l-3.9,9.36a2.87,2.87,0,0,1-1,1.23,2.74,2.74,0,0,1-1.53.45A2.58,2.58,0,0,1,1059.05,224Zm10.53-15.24h16.2l-8.1-19.5Z"/><path d="M1105.22,224a2.61,2.61,0,0,1-.78-1.92V196.37a2.71,2.71,0,0,1,.78-2,2.56,2.56,0,0,1,1.92-.81,2.77,2.77,0,0,1,2.76,2.76v2.46a19.94,19.94,0,0,1,4.92-4,12.42,12.42,0,0,1,6.24-1.5,10.37,10.37,0,0,1,5.73,1.56,10.14,10.14,0,0,1,3.72,4.26,13.6,13.6,0,0,1,1.29,5.94v17A2.56,2.56,0,0,1,1131,224a2.71,2.71,0,0,1-2,.78,2.66,2.66,0,0,1-2.7-2.7V205.67q0-7.32-6.6-7.32a9.55,9.55,0,0,0-5.37,1.56,19.44,19.44,0,0,0-4.47,4.2v18a2.56,2.56,0,0,1-.81,1.92,2.71,2.71,0,0,1-1.95.78A2.61,2.61,0,0,1,1105.22,224Z"/><path d="M1146.59,223.22a14.34,14.34,0,0,1-5.4-5.52,18.45,18.45,0,0,1,0-17,14.34,14.34,0,0,1,5.4-5.52,14.07,14.07,0,0,1,7.05-1.89,13.79,13.79,0,0,1,10.26,4.56v-14.7a2.63,2.63,0,0,1,.81-2,2.71,2.71,0,0,1,2-.78,2.56,2.56,0,0,1,1.92.81,2.71,2.71,0,0,1,.78,1.95v38.94a2.66,2.66,0,0,1-2.7,2.7,2.71,2.71,0,0,1-2-.78,2.56,2.56,0,0,1-.81-1.92v-1.56a13.79,13.79,0,0,1-10.26,4.56A14.07,14.07,0,0,1,1146.59,223.22Zm13-4.44a14.82,14.82,0,0,0,4.29-3.27v-12.6a14.82,14.82,0,0,0-4.29-3.27,11.33,11.33,0,0,0-5.19-1.23,9.43,9.43,0,0,0-7.14,2.82q-2.7,2.82-2.7,8t2.7,8a9.43,9.43,0,0,0,7.14,2.82A11.33,11.33,0,0,0,1159.61,218.78Z"/><path d="M1194.86,186.77a3,3,0,0,1-.9-2.16v-.24a3.07,3.07,0,0,1,3.06-3.06h.36a3.07,3.07,0,0,1,3.06,3.06v.24a3.07,3.07,0,0,1-3.06,3.06H1197A3,3,0,0,1,1194.86,186.77Zm.36,37.26a2.57,2.57,0,0,1-.78-1.92V196.37a2.67,2.67,0,0,1,.78-2,2.55,2.55,0,0,1,1.92-.81,2.68,2.68,0,0,1,2,.78,2.72,2.72,0,0,1,.78,2v25.74a2.56,2.56,0,0,1-.81,1.92,2.73,2.73,0,0,1-1.95.78A2.59,2.59,0,0,1,1195.22,224Z"/><path d="M1212.43,224a2.61,2.61,0,0,1-.78-1.92V198.59h-3.54a2.36,2.36,0,0,1-2.34-2.34,2.22,2.22,0,0,1,.69-1.68,2.3,2.3,0,0,1,1.65-.66h3.54v-3.48a12,12,0,0,1,1.29-5.91,8,8,0,0,1,3.36-3.36,9.49,9.49,0,0,1,4.35-1,11.58,11.58,0,0,1,5.23,1.2,2.63,2.63,0,0,1,1,.87,2.14,2.14,0,0,1,.39,1.23,2.23,2.23,0,0,1-.66,1.59,2.09,2.09,0,0,1-1.56.69,5.69,5.69,0,0,1-1.38-.18q-1.44-.18-1.62-.18a5.26,5.26,0,0,0-3.69,1.14q-1.23,1.14-1.23,4.14v3.3h7.5a2.26,2.26,0,0,1,2.34,2.34,2.3,2.3,0,0,1-.66,1.65,2.22,2.22,0,0,1-1.68.69h-7.5v23.52a2.56,2.56,0,0,1-.81,1.92,2.71,2.71,0,0,1-2,.78A2.61,2.61,0,0,1,1212.43,224Z"/><path d="M1252.9,237.83a2.59,2.59,0,0,1-.75-1.86,2.72,2.72,0,0,1,.18-1l3.9-10L1245,197.51a3.07,3.07,0,0,1-.24-1.14,2.71,2.71,0,0,1,.78-2,2.56,2.56,0,0,1,1.92-.81,2.62,2.62,0,0,1,1.53.48,2.72,2.72,0,0,1,1,1.2l9.24,22.92,9.42-22.8a2.62,2.62,0,0,1,2.52-1.8,2.56,2.56,0,0,1,1.92.81,2.71,2.71,0,0,1,.78,2,2.88,2.88,0,0,1-.18,1l-16.38,39.36a2.7,2.7,0,0,1-2.52,1.86A2.44,2.44,0,0,1,1252.9,237.83Z"/><path d="M1285.09,223.13a13.46,13.46,0,0,1-5.37-5.61,19.21,19.21,0,0,1,0-16.62,13.46,13.46,0,0,1,5.37-5.61,17.44,17.44,0,0,1,16.14,0,13.65,13.65,0,0,1,5.4,5.61,18.94,18.94,0,0,1,0,16.62,13.65,13.65,0,0,1-5.4,5.61,17.44,17.44,0,0,1-16.14,0ZM1297.9,219a9.16,9.16,0,0,0,3.72-3.6,12,12,0,0,0,1.47-6.24,11.88,11.88,0,0,0-1.47-6.18,9,9,0,0,0-3.72-3.57,10.52,10.52,0,0,0-4.71-1.11,10.64,10.64,0,0,0-4.77,1.11,8.78,8.78,0,0,0-3.69,3.57,12.08,12.08,0,0,0-1.44,6.18,12.21,12.21,0,0,0,1.44,6.24,9,9,0,0,0,3.69,3.6,10.41,10.41,0,0,0,4.77,1.14A10.29,10.29,0,0,0,1297.9,219Z"/><path d="M1320.88,223.55a10.14,10.14,0,0,1-3.72-4.26,13.6,13.6,0,0,1-1.29-5.94v-17a2.56,2.56,0,0,1,.81-1.92,2.71,2.71,0,0,1,2-.78,2.66,2.66,0,0,1,2.7,2.7v16.44q0,7.32,6.6,7.32a9.55,9.55,0,0,0,5.37-1.56,19.44,19.44,0,0,0,4.47-4.2v-18a2.56,2.56,0,0,1,.81-1.92,2.71,2.71,0,0,1,2-.78,2.66,2.66,0,0,1,2.7,2.7v25.74a2.71,2.71,0,0,1-.78,1.95,2.56,2.56,0,0,1-1.92.81,2.77,2.77,0,0,1-2.76-2.76v-2.46a19.94,19.94,0,0,1-4.92,4,12.42,12.42,0,0,1-6.24,1.5A10.37,10.37,0,0,1,1320.88,223.55Z"/><path d="M1350.94,195.35a1.78,1.78,0,0,1-.51-1.26,1.67,1.67,0,0,1,.9-1.5,6.85,6.85,0,0,0,2.28-2.1,6.41,6.41,0,0,0,.78-3.48h-.24a3.38,3.38,0,0,1-3.36-3.36v-.36a3.38,3.38,0,0,1,3.36-3.36h.6a3.38,3.38,0,0,1,3.36,3.36v3.54a9.65,9.65,0,0,1-4.92,8.76,1.89,1.89,0,0,1-1,.3A1.63,1.63,0,0,1,1350.94,195.35Z"/><path d="M1366.45,224a2.61,2.61,0,0,1-.78-1.92V196.37a2.71,2.71,0,0,1,.78-2,2.56,2.56,0,0,1,1.92-.81,2.77,2.77,0,0,1,2.76,2.76V199q4.2-5.64,9.42-5.64h.3a2.51,2.51,0,0,1,1.89.78,2.66,2.66,0,0,1,.75,1.92,2.42,2.42,0,0,1-.78,1.86,2.81,2.81,0,0,1-2,.72h-.3a10.23,10.23,0,0,0-5.28,1.41,12.16,12.16,0,0,0-4,3.87v18.24a2.56,2.56,0,0,1-.81,1.92,2.71,2.71,0,0,1-2,.78A2.61,2.61,0,0,1,1366.45,224Z"/><path d="M1390,220.94q-4.11-4.17-4.11-11.73a19.56,19.56,0,0,1,1.56-7.86,13.36,13.36,0,0,1,4.8-5.82,13.79,13.79,0,0,1,8-2.22,14,14,0,0,1,7.68,2.07,13.39,13.39,0,0,1,4.92,5.52,17,17,0,0,1,1.68,7.53,2.62,2.62,0,0,1-2.76,2.7h-20.34a9.87,9.87,0,0,0,3.12,6.54q2.64,2.34,7.38,2.34a18,18,0,0,0,4.41-.48,18.32,18.32,0,0,0,3.69-1.38,2.38,2.38,0,0,1,1.08-.24,2.41,2.41,0,0,1,1.68.66,2.18,2.18,0,0,1,.72,1.68,2.59,2.59,0,0,1-1.56,2.22,18.74,18.74,0,0,1-10.5,2.64Q1394.11,225.11,1390,220.94Zm19.11-14.25a9.61,9.61,0,0,0-1.53-4.92,8.26,8.26,0,0,0-3.33-2.91,9.15,9.15,0,0,0-8,0,8.06,8.06,0,0,0-3.3,2.91,9.79,9.79,0,0,0-1.5,4.92Z"/><path d="M1440.22,224a8.52,8.52,0,0,1-3.57-3.15,8.68,8.68,0,0,1-1.32-4.77,8.41,8.41,0,0,1,3.51-7.08q3.51-2.64,10.29-2.64h7.26v-.48q0-4-2-5.7t-6.09-1.74a20.45,20.45,0,0,0-4,.36,34,34,0,0,0-3.93,1.08,3.37,3.37,0,0,1-.78.12,2.13,2.13,0,0,1-1.56-.66,2.2,2.2,0,0,1-.66-1.62,2.31,2.31,0,0,1,1.56-2.28,26.39,26.39,0,0,1,10.38-2.16,13.55,13.55,0,0,1,7,1.68,10.56,10.56,0,0,1,4.2,4.35,12.65,12.65,0,0,1,1.35,5.79v17A2.56,2.56,0,0,1,1461,224a2.71,2.71,0,0,1-2,.78,2.66,2.66,0,0,1-2.7-2.7v-1.56a15.07,15.07,0,0,1-11.28,4.56A11.15,11.15,0,0,1,1440.22,224Zm12-5a14.18,14.18,0,0,0,4.14-3.21v-5h-6.54q-9.06,0-9.06,4.74a4.45,4.45,0,0,0,1.47,3.48q1.47,1.32,4.89,1.32A10.85,10.85,0,0,0,1452.25,219Z"/><path d="M1470,222.41a2.29,2.29,0,0,1-1-2,2.41,2.41,0,0,1,.66-1.68,2.18,2.18,0,0,1,1.68-.72,2.64,2.64,0,0,1,1.08.24,24.25,24.25,0,0,0,3.84,1.32,17.85,17.85,0,0,0,4.32.48q6.66,0,6.66-4.26a2.27,2.27,0,0,0-1.53-2.1,31.33,31.33,0,0,0-5-1.62,45.27,45.27,0,0,1-5.85-1.74,10.29,10.29,0,0,1-4-2.73,6.94,6.94,0,0,1-1.65-4.83,8.65,8.65,0,0,1,3-6.84q3-2.64,8.67-2.64a25,25,0,0,1,8.7,1.5,2.25,2.25,0,0,1,1.29.9,2.41,2.41,0,0,1,.45,1.38,2.35,2.35,0,0,1-.69,1.68,2.27,2.27,0,0,1-1.71.72,3.37,3.37,0,0,1-.78-.12,23,23,0,0,0-6.84-1.08,9.37,9.37,0,0,0-5.07,1.17,3.49,3.49,0,0,0-1.83,3,2.77,2.77,0,0,0,1.68,2.64,24,24,0,0,0,5.22,1.62,50,50,0,0,1,5.76,1.77,9.52,9.52,0,0,1,3.81,2.73,7.41,7.41,0,0,1,1.59,5,7.93,7.93,0,0,1-3,6.36q-3,2.52-8.55,2.52A22.32,22.32,0,0,1,1470,222.41Z"/><path d="M1500.61,224a2.61,2.61,0,0,1-.78-1.92V183.17a2.71,2.71,0,0,1,.78-1.95,2.56,2.56,0,0,1,1.92-.81,2.77,2.77,0,0,1,2.76,2.76v24.54l14.28-13.2a2.76,2.76,0,0,1,1.8-.78,2.43,2.43,0,0,1,2,.78,2.87,2.87,0,0,1,.63,1.86,2.94,2.94,0,0,1-1,2l-8.64,7.74,10.86,14.4a2.63,2.63,0,0,1,.6,1.62,2.49,2.49,0,0,1-.78,1.92,2.81,2.81,0,0,1-2,.72,2.66,2.66,0,0,1-1.2-.3,3,3,0,0,1-1-.84l-10.32-14-5.22,4.74v7.74a2.56,2.56,0,0,1-.81,1.92,2.71,2.71,0,0,1-2,.78A2.61,2.61,0,0,1,1500.61,224Z"/><path d="M1533,186.77a3,3,0,0,1-.9-2.16v-.24a3.07,3.07,0,0,1,3.06-3.06h.36a3.07,3.07,0,0,1,3.06,3.06v.24a3.07,3.07,0,0,1-3.06,3.06h-.36A3,3,0,0,1,1533,186.77Zm.36,37.26a2.61,2.61,0,0,1-.78-1.92V196.37a2.71,2.71,0,0,1,.78-2,2.56,2.56,0,0,1,1.92-.81,2.67,2.67,0,0,1,2.76,2.76v25.74a2.56,2.56,0,0,1-.81,1.92,2.71,2.71,0,0,1-2,.78A2.61,2.61,0,0,1,1533.31,224Z"/><path d="M1548.25,224a2.61,2.61,0,0,1-.78-1.92V196.37a2.71,2.71,0,0,1,.78-2,2.56,2.56,0,0,1,1.92-.81,2.77,2.77,0,0,1,2.76,2.76v2.46a19.94,19.94,0,0,1,4.92-4,12.42,12.42,0,0,1,6.24-1.5,10.37,10.37,0,0,1,5.73,1.56,10.14,10.14,0,0,1,3.72,4.26,13.6,13.6,0,0,1,1.29,5.94v17A2.56,2.56,0,0,1,1574,224a2.71,2.71,0,0,1-2,.78,2.66,2.66,0,0,1-2.7-2.7V205.67q0-7.32-6.6-7.32a9.55,9.55,0,0,0-5.37,1.56,19.44,19.44,0,0,0-4.47,4.2v18a2.56,2.56,0,0,1-.81,1.92,2.71,2.71,0,0,1-1.95.78A2.61,2.61,0,0,1,1548.25,224Z"/><path d="M1591.27,238a23,23,0,0,1-5.82-2.22,2.28,2.28,0,0,1-1.08-2.1,2.46,2.46,0,0,1,.69-1.71,2.23,2.23,0,0,1,1.71-.75,3,3,0,0,1,1.08.24,21.83,21.83,0,0,0,9.9,2.28q9.18,0,9.18-9.78v-4a13.54,13.54,0,0,1-10.26,4.56,14.46,14.46,0,0,1-6.87-1.77,14.3,14.3,0,0,1-5.49-5.28,18,18,0,0,1,0-17.1,14.3,14.3,0,0,1,5.49-5.28,14.46,14.46,0,0,1,6.87-1.77,13.54,13.54,0,0,1,10.26,4.56v-1.5a2.71,2.71,0,0,1,.78-2,2.56,2.56,0,0,1,1.92-.81,2.77,2.77,0,0,1,2.76,2.76v26.82q0,7.56-3.66,11.64t-10.44,4.08A28.4,28.4,0,0,1,1591.27,238Zm11.52-19.68a18,18,0,0,0,4.14-3.24V202.73a18,18,0,0,0-4.14-3.24,10.08,10.08,0,0,0-5-1.2,10.19,10.19,0,0,0-7.35,2.73q-2.85,2.73-2.85,7.89t2.85,7.89a10.19,10.19,0,0,0,7.35,2.73A10.08,10.08,0,0,0,1602.79,218.33Z"/><path d="M1638.25,224a2.61,2.61,0,0,1-.78-1.92V196.37a2.71,2.71,0,0,1,.78-2,2.56,2.56,0,0,1,1.92-.81,2.77,2.77,0,0,1,2.76,2.76v2.46a15,15,0,0,1,4-4,11,11,0,0,1,6.15-1.56,9.33,9.33,0,0,1,5.76,1.8,10,10,0,0,1,3.42,4.38,12.09,12.09,0,0,1,11-6.18A9.11,9.11,0,0,1,1679,195a10,10,0,0,1,3.33,4.32,14.44,14.44,0,0,1,1.08,5.52v17.28a2.56,2.56,0,0,1-.81,1.92,2.71,2.71,0,0,1-2,.78,2.66,2.66,0,0,1-2.7-2.7v-16.2q0-3.9-1.38-5.73t-4.74-1.83a7.92,7.92,0,0,0-5.07,1.59,15.38,15.38,0,0,0-3.57,4.17v18a2.56,2.56,0,0,1-.81,1.92,2.71,2.71,0,0,1-1.95.78,2.66,2.66,0,0,1-2.7-2.7v-16.2q0-3.9-1.38-5.73t-4.74-1.83a7.92,7.92,0,0,0-5.07,1.59,15.38,15.38,0,0,0-3.57,4.17v18a2.56,2.56,0,0,1-.81,1.92,2.71,2.71,0,0,1-1.95.78A2.61,2.61,0,0,1,1638.25,224Z"/><path d="M1694.8,220.94q-4.11-4.17-4.11-11.73a19.56,19.56,0,0,1,1.56-7.86,13.36,13.36,0,0,1,4.8-5.82,13.79,13.79,0,0,1,8-2.22,14,14,0,0,1,7.68,2.07,13.39,13.39,0,0,1,4.92,5.52,17,17,0,0,1,1.68,7.53,2.62,2.62,0,0,1-2.76,2.7h-20.34a9.87,9.87,0,0,0,3.12,6.54q2.64,2.34,7.38,2.34a18,18,0,0,0,4.41-.48,18.32,18.32,0,0,0,3.69-1.38,2.38,2.38,0,0,1,1.08-.24,2.41,2.41,0,0,1,1.68.66,2.18,2.18,0,0,1,.72,1.68,2.59,2.59,0,0,1-1.56,2.22,18.74,18.74,0,0,1-10.5,2.64Q1698.91,225.11,1694.8,220.94Zm19.11-14.25a9.61,9.61,0,0,0-1.53-4.92,8.26,8.26,0,0,0-3.33-2.91,9.15,9.15,0,0,0-8,0,8.06,8.06,0,0,0-3.3,2.91,9.79,9.79,0,0,0-1.5,4.92Z"/><path d="M1726.06,233a1.78,1.78,0,0,1-.51-1.26,1.67,1.67,0,0,1,.9-1.5,6.85,6.85,0,0,0,2.28-2.1,6.41,6.41,0,0,0,.78-3.48h-.24a3.38,3.38,0,0,1-3.36-3.36V221a3.38,3.38,0,0,1,3.36-3.36h.6a3.38,3.38,0,0,1,3.36,3.36v3.54a9.65,9.65,0,0,1-4.92,8.76,1.89,1.89,0,0,1-1,.3A1.63,1.63,0,0,1,1726.06,233Z"/><path d="M1061.9,296a2.61,2.61,0,0,1-.78-1.92v-37a2.71,2.71,0,0,1,.78-1.95,2.56,2.56,0,0,1,1.92-.81,2.77,2.77,0,0,1,2.76,2.76v37a2.56,2.56,0,0,1-.81,1.92,2.71,2.71,0,0,1-2,.78A2.61,2.61,0,0,1,1061.9,296Z"/><path d="M1076.69,267.35a1.78,1.78,0,0,1-.51-1.26,1.67,1.67,0,0,1,.9-1.5,6.85,6.85,0,0,0,2.28-2.1,6.41,6.41,0,0,0,.78-3.48h-.24a3.38,3.38,0,0,1-3.36-3.36v-.36a3.38,3.38,0,0,1,3.36-3.36h.6a3.38,3.38,0,0,1,3.36,3.36v3.54a9.65,9.65,0,0,1-4.92,8.76,1.89,1.89,0,0,1-1,.3A1.63,1.63,0,0,1,1076.69,267.35Z"/><path d="M1100.3,296.18a3.75,3.75,0,0,1-1.32-1.59l-10.44-25a3.17,3.17,0,0,1-.3-1.26,2.71,2.71,0,0,1,.78-1.95,2.56,2.56,0,0,1,1.92-.81,2.81,2.81,0,0,1,2.46,1.56l9.18,23.28,9.18-23.28a2.81,2.81,0,0,1,2.46-1.56,2.56,2.56,0,0,1,1.92.81,2.71,2.71,0,0,1,.78,1.95,3.36,3.36,0,0,1-.3,1.26l-10.44,25a3.75,3.75,0,0,1-1.32,1.59,3.38,3.38,0,0,1-2,.63h-.6A3.38,3.38,0,0,1,1100.3,296.18Z"/><path d="M1125.05,292.94q-4.11-4.17-4.11-11.73a19.56,19.56,0,0,1,1.56-7.86,13.36,13.36,0,0,1,4.8-5.82,13.79,13.79,0,0,1,8-2.22,14,14,0,0,1,7.68,2.07,13.39,13.39,0,0,1,4.92,5.52,17,17,0,0,1,1.68,7.53,2.62,2.62,0,0,1-2.76,2.7h-20.34a9.87,9.87,0,0,0,3.12,6.54q2.64,2.34,7.38,2.34a18,18,0,0,0,4.41-.48,18.32,18.32,0,0,0,3.69-1.38,2.38,2.38,0,0,1,1.08-.24,2.41,2.41,0,0,1,1.68.66,2.18,2.18,0,0,1,.72,1.68,2.59,2.59,0,0,1-1.56,2.22,18.74,18.74,0,0,1-10.5,2.64Q1129.16,297.11,1125.05,292.94Zm19.11-14.25a9.61,9.61,0,0,0-1.53-4.92,8.26,8.26,0,0,0-3.33-2.91,9.15,9.15,0,0,0-8,0,8.06,8.06,0,0,0-3.3,2.91,9.79,9.79,0,0,0-1.5,4.92Z"/><path d="M1179.62,310a22.86,22.86,0,0,1-5.82-2.22,2.28,2.28,0,0,1-1.08-2.1,2.46,2.46,0,0,1,.69-1.71,2.23,2.23,0,0,1,1.71-.75,3,3,0,0,1,1.08.24,21.8,21.8,0,0,0,9.9,2.28q9.18,0,9.18-9.78v-4a13.54,13.54,0,0,1-10.26,4.56,14.46,14.46,0,0,1-6.87-1.77,14.3,14.3,0,0,1-5.49-5.28,18,18,0,0,1,0-17.1,14.3,14.3,0,0,1,5.49-5.28,14.46,14.46,0,0,1,6.87-1.77,13.54,13.54,0,0,1,10.26,4.56v-1.5a2.71,2.71,0,0,1,.78-1.95,2.56,2.56,0,0,1,1.92-.81,2.77,2.77,0,0,1,2.76,2.76v26.82q0,7.56-3.66,11.64t-10.44,4.08A28.4,28.4,0,0,1,1179.62,310Zm11.52-19.68a18,18,0,0,0,4.14-3.24V274.73a18,18,0,0,0-4.14-3.24,10.08,10.08,0,0,0-5-1.2,10.19,10.19,0,0,0-7.35,2.73q-2.85,2.73-2.85,7.89t2.85,7.89a10.19,10.19,0,0,0,7.35,2.73A10.08,10.08,0,0,0,1191.14,290.33Z"/><path d="M1215.62,295.13a13.46,13.46,0,0,1-5.37-5.61,19.21,19.21,0,0,1,0-16.62,13.46,13.46,0,0,1,5.37-5.61,17.44,17.44,0,0,1,16.14,0,13.65,13.65,0,0,1,5.4,5.61,18.94,18.94,0,0,1,0,16.62,13.65,13.65,0,0,1-5.4,5.61,17.44,17.44,0,0,1-16.14,0Zm12.81-4.14a9.16,9.16,0,0,0,3.72-3.6,12,12,0,0,0,1.47-6.24,11.88,11.88,0,0,0-1.47-6.18,9,9,0,0,0-3.72-3.57,10.52,10.52,0,0,0-4.71-1.11,10.64,10.64,0,0,0-4.77,1.11,8.78,8.78,0,0,0-3.69,3.57,12.08,12.08,0,0,0-1.44,6.18,12.21,12.21,0,0,0,1.44,6.24A9,9,0,0,0,1219,291a10.41,10.41,0,0,0,4.77,1.14A10.29,10.29,0,0,0,1228.43,291Z"/><path d="M1248.25,289.19v-18.6H1244a1.14,1.14,0,0,1-1.14-1.14,1.24,1.24,0,0,1,.55-1l8.15-8a1.53,1.53,0,0,1,1-.54,1.06,1.06,0,0,1,.81.36,1.2,1.2,0,0,1,.33.84v4.8h6.78a2.26,2.26,0,0,1,2.34,2.34,2.3,2.3,0,0,1-.66,1.65,2.22,2.22,0,0,1-1.68.69h-6.78v18.12q0,2.34,1.11,3a5.59,5.59,0,0,0,2.79.63,8.32,8.32,0,0,0,2.4-.36l.51-.12a3.34,3.34,0,0,1,.69-.06,2.11,2.11,0,0,1,1.5.63,2,2,0,0,1,.67,1.53A2.28,2.28,0,0,1,1262,296a11.71,11.71,0,0,1-5,1.08Q1248.25,297.11,1248.25,289.19Z"/><path d="M1287.88,296a8.52,8.52,0,0,1-3.57-3.15,8.68,8.68,0,0,1-1.32-4.77,8.41,8.41,0,0,1,3.51-7.08q3.51-2.64,10.29-2.64h7.26v-.48q0-4-2-5.7t-6.09-1.74a20.45,20.45,0,0,0-4,.36,34,34,0,0,0-3.93,1.08,3.37,3.37,0,0,1-.78.12,2.13,2.13,0,0,1-1.56-.66,2.2,2.2,0,0,1-.66-1.62,2.31,2.31,0,0,1,1.56-2.28,26.39,26.39,0,0,1,10.38-2.16,13.55,13.55,0,0,1,7,1.68,10.56,10.56,0,0,1,4.2,4.35,12.65,12.65,0,0,1,1.35,5.79v17a2.56,2.56,0,0,1-.81,1.92,2.71,2.71,0,0,1-2,.78,2.66,2.66,0,0,1-2.7-2.7v-1.56a15.07,15.07,0,0,1-11.28,4.56A11.15,11.15,0,0,1,1287.88,296Zm12-5a14.18,14.18,0,0,0,4.14-3.21v-5h-6.54q-9.06,0-9.06,4.74a4.45,4.45,0,0,0,1.47,3.48q1.47,1.32,4.89,1.32A10.85,10.85,0,0,0,1299.91,291Z"/><path d="M1335.07,296a2.61,2.61,0,0,1-.78-1.92V255.17a2.71,2.71,0,0,1,.78-1.95,2.56,2.56,0,0,1,1.92-.81,2.77,2.77,0,0,1,2.76,2.76v15.66a19.94,19.94,0,0,1,4.92-4,12.42,12.42,0,0,1,6.24-1.5,10.37,10.37,0,0,1,5.73,1.56,10.14,10.14,0,0,1,3.72,4.26,13.6,13.6,0,0,1,1.29,5.94v17a2.56,2.56,0,0,1-.81,1.92,2.71,2.71,0,0,1-1.95.78,2.66,2.66,0,0,1-2.7-2.7V277.67q0-7.32-6.6-7.32a9.55,9.55,0,0,0-5.37,1.56,19.44,19.44,0,0,0-4.47,4.2v18a2.56,2.56,0,0,1-.81,1.92,2.71,2.71,0,0,1-2,.78A2.61,2.61,0,0,1,1335.07,296Z"/><path d="M1373.74,296a8.52,8.52,0,0,1-3.57-3.15,8.68,8.68,0,0,1-1.32-4.77,8.41,8.41,0,0,1,3.51-7.08q3.51-2.64,10.29-2.64h7.26v-.48q0-4-2-5.7t-6.09-1.74a20.45,20.45,0,0,0-4,.36,34,34,0,0,0-3.93,1.08,3.37,3.37,0,0,1-.78.12,2.13,2.13,0,0,1-1.56-.66,2.2,2.2,0,0,1-.66-1.62,2.31,2.31,0,0,1,1.56-2.28,26.39,26.39,0,0,1,10.38-2.16,13.55,13.55,0,0,1,7,1.68,10.56,10.56,0,0,1,4.2,4.35,12.65,12.65,0,0,1,1.35,5.79v17a2.56,2.56,0,0,1-.81,1.92,2.71,2.71,0,0,1-2,.78,2.66,2.66,0,0,1-2.7-2.7v-1.56a15.07,15.07,0,0,1-11.28,4.56A11.15,11.15,0,0,1,1373.74,296Zm12-5a14.18,14.18,0,0,0,4.14-3.21v-5h-6.54q-9.06,0-9.06,4.74a4.45,4.45,0,0,0,1.47,3.48q1.47,1.32,4.89,1.32A10.85,10.85,0,0,0,1385.77,291Z"/><path d="M1410.73,295.19a14.78,14.78,0,0,1-5.85-5.52,17.44,17.44,0,0,1,0-16.92,14.78,14.78,0,0,1,5.85-5.52,16.92,16.92,0,0,1,8-1.92,16.63,16.63,0,0,1,5.49.81,20.74,20.74,0,0,1,4.29,2.07,2.39,2.39,0,0,1,.51,3.75,2.11,2.11,0,0,1-1.59.75,2.74,2.74,0,0,1-1.32-.36,22.85,22.85,0,0,0-3.39-1.47,11.7,11.7,0,0,0-3.51-.45,10.88,10.88,0,0,0-8.1,3,11.9,11.9,0,0,0,0,15.66,10.88,10.88,0,0,0,8.1,3,11.7,11.7,0,0,0,3.51-.45,22.85,22.85,0,0,0,3.39-1.47,2.74,2.74,0,0,1,1.32-.36,2.11,2.11,0,0,1,1.59.75,2.39,2.39,0,0,1-.51,3.75,20.74,20.74,0,0,1-4.29,2.07,16.63,16.63,0,0,1-5.49.81A16.92,16.92,0,0,1,1410.73,295.19Z"/><path d="M1437.31,296a2.61,2.61,0,0,1-.78-1.92V255.17a2.71,2.71,0,0,1,.78-1.95,2.56,2.56,0,0,1,1.92-.81,2.77,2.77,0,0,1,2.76,2.76v24.54l14.28-13.2a2.76,2.76,0,0,1,1.8-.78,2.43,2.43,0,0,1,2,.78,2.87,2.87,0,0,1,.63,1.86,2.94,2.94,0,0,1-1,2l-8.64,7.74,10.86,14.4a2.63,2.63,0,0,1,.6,1.62,2.49,2.49,0,0,1-.78,1.92,2.81,2.81,0,0,1-2,.72,2.66,2.66,0,0,1-1.2-.3,3,3,0,0,1-1-.84l-10.32-14-5.22,4.74v7.74a2.56,2.56,0,0,1-.81,1.92,2.71,2.71,0,0,1-2,.78A2.61,2.61,0,0,1,1437.31,296Z"/><path d="M1469.62,295.7a3.23,3.23,0,0,1-1-2.37V293a3.38,3.38,0,0,1,3.36-3.36h.6A3.38,3.38,0,0,1,1476,293v.36a3.38,3.38,0,0,1-3.36,3.36h-.6A3.23,3.23,0,0,1,1469.62,295.7Z"/><path d="M1241.73,478.93l69.41,3.37,69.41,3.38,39,1.89a1.5,1.5,0,0,0,1.5-1.5c-.66-8-1.55-17.39,3-24.52,3.41-5.28,10.81-9.39,16.88-6.12l-.75-1.29-3.11,72.78L1434,599.17c-1,24.08-1.94,48.16-3.1,72.23-.2,4.22-.55,8.65-2.25,12.58a13.2,13.2,0,0,1-3.63,5,15.84,15.84,0,0,1-6.75,2.92c-5.53,1.27-11.19,2.1-16.79,3s-11.51,1.7-17.28,2.39a481.17,481.17,0,0,1-69.15,3.18,478.93,478.93,0,0,1-69-6.79c-11.21-1.94-22.45-4.13-33.45-7-4.84-1.28-9.26-3.25-11.66-7.88-2.3-4.43-2.63-9.72-2.88-14.61-.63-12.06.52-24.17,1.33-36.2l2.44-36.14,4.89-72.54c.79-11.75,1.36-23.55,2.4-35.29.65-7.31,2.07-15.73,6.86-21.58a14.06,14.06,0,0,1,8.49-5.07l-1.9-1.44a31.54,31.54,0,0,0,7.13,21.65c1.22,1.49,3.34-.64,2.12-2.12a28.43,28.43,0,0,1-6.25-19.53,1.52,1.52,0,0,0-1.9-1.45c-8,1.43-12.56,8.42-14.92,15.62-3,9.06-3,18.85-3.62,28.28l-5,74.27-2.5,37.14c-.83,12.35-1.82,24.71-2.44,37.07a164.65,164.65,0,0,0-.07,18.32c.31,5,.8,10.08,3,14.62s6.32,7.44,11.13,9a163.83,163.83,0,0,0,16.64,4,481.72,481.72,0,0,0,140.52,9.26q17.76-1.44,35.38-4.19c5.69-.89,11.43-1.75,17-3,4.74-1.06,8.91-3.25,11.45-7.53,2.29-3.86,3-8.46,3.4-12.86.47-5.71.55-11.46.8-17.18l1.57-36.75,3.18-74.17,3.18-74.28.76-17.94a1.46,1.46,0,0,0-.74-1.3c-5.47-2.95-11.85-1.34-16.54,2.34-5.54,4.34-7.75,11.1-8.26,17.91a84,84,0,0,0,.36,13l1.5-1.5-69.42-3.37-69.41-3.38-39-1.89c-1.93-.1-1.93,2.9,0,3Z"/><path d="M1268,544c-.26.05.1,0,.12,0a1.09,1.09,0,0,0-.18,0h-.31l-.18,0c-.16,0,.17,0,.18,0a2.7,2.7,0,0,0-.39-.08l-.3-.09c-.23-.08.09,0,.11,0a.8.8,0,0,0-.16-.08,4.31,4.31,0,0,1-.61-.37c-.22-.14.23.21,0,0l-.24-.22-.25-.26-.12-.14c-.18-.2.13.2,0,0s-.26-.38-.37-.58-.1-.19-.15-.29,0-.1-.06-.12l.06.14s0-.08,0-.12c-.07-.2-.13-.41-.18-.61l0-.18c0-.15,0-.12,0,.13a2.11,2.11,0,0,0,0-.35v-.36a.59.59,0,0,0,0-.13c0-.19-.07.32,0,.14s.11-.46.19-.69-.16.26,0,.11a.47.47,0,0,0,.07-.12,2,2,0,0,1,.19-.31c.13-.22-.22.24,0,0l.25-.27s.3-.24.09-.08,0,0,.11-.07a2.4,2.4,0,0,1,.27-.16l.14-.07c.22-.12-.28.09-.1,0s.37-.13.57-.17l.27-.06c.16,0-.21,0-.2,0l.24,0a3.62,3.62,0,0,1,.57,0l.33,0c.05,0,.21,0,0,0s0,0,0,0l.6.15.27.09c.37.14-.23-.12,0,0s.36.19.53.3l.24.16c.15.09-.25-.22-.12-.09l.15.13a4.93,4.93,0,0,1,.39.4c.15.17-.08-.1-.09-.12a.51.51,0,0,0,.09.13l.18.31,0,.1c.12.21,0-.12,0-.14s.07.21.1.31a2.68,2.68,0,0,1,.07.27.61.61,0,0,0,0,.13c-.12-.25,0-.25,0,0a1.5,1.5,0,0,1,0,.3v.13c0,.25,0-.11,0-.14-.08.2-.1.46-.17.67s0-.1.06-.12a.77.77,0,0,0-.07.16l-.15.26-.16.26c-.23.33.16-.17-.06.08s-.34.36-.53.53a.76.76,0,0,0-.14.11c0-.09.26-.18,0-.05l-.34.22-.31.18-.16.07c-.24.12.25-.08.07,0s-.47.16-.72.22c-.07,0-.5.09-.23,0s-.11,0-.19,0h-.39l-.17,0s.35.07.15,0l-.38-.09-.16-.05c-.17,0-.12-.13.08,0-.19-.16-.48-.26-.69-.41a1.5,1.5,0,0,0-2,.54,1.54,1.54,0,0,0,.54,2.05c2.19,1.66,5.31.9,7.22-.8a5.49,5.49,0,0,0,1.83-3.38,4.92,4.92,0,0,0-1.12-3.79,6.45,6.45,0,0,0-6.44-2,5.23,5.23,0,0,0-3,2.2,5.31,5.31,0,0,0-.6,4,6.54,6.54,0,0,0,2.18,3.57,5.51,5.51,0,0,0,4.56,1.24,1.49,1.49,0,0,0,1-1.84A1.54,1.54,0,0,0,1268,544Z"/><path d="M1358.45,542.9c-.66.42-1.47-.22-1.8-.94-.44-1,.23-2,.91-2.71a9.87,9.87,0,0,1,7.68-2.39,6.65,6.65,0,0,1,5.71,4c.76,1.94.55,4.49-1.39,5.61-1.74,1-4.26.8-5.24-1s-3.51-.19-2.59,1.51c1.66,3.07,5.64,3.75,8.65,2.44,3.36-1.46,4.6-5.31,3.67-8.7a9.62,9.62,0,0,0-8.42-6.85c-3.89-.47-8.7,1-11.05,4.26a5,5,0,0,0-.18,5.85c1.26,1.74,3.61,2.72,5.57,1.48,1.62-1,.12-3.62-1.52-2.59Z"/><path d="M1233.81,564.92q27.9,3.21,55.94,4.77t56.13,1.41q14-.06,27.95-.55,7-.24,14.08-.59l6.92-.37a53.81,53.81,0,0,1,6.22-.23,5.8,5.8,0,0,1,4.53,2,9,9,0,0,1,1.38,4.86c.3,4.49.28,9,.29,13.51q0,13.9-1.06,27.78T1403,644.92q-1.08,6.87-2.44,13.69c-.75,3.8-1.34,8.14-3.94,11.19-4.42,5.16-12.26,5.29-18.5,5.15-9.25-.21-18.51-.57-27.76-.86l-56.64-1.76-28.44-.88-14-.43a105.28,105.28,0,0,1-12.17-.71c-3.63-.56-7.36-1.63-10.2-4.06a18.65,18.65,0,0,1-5.39-8.76,58.86,58.86,0,0,1-2.07-11.1q-.75-6.67-1.07-13.38a202.41,202.41,0,0,1,4.51-53q1.42-6.45,3.27-12.79c.54-1.86-2.36-2.65-2.9-.8a206,206,0,0,0-8.08,54.32,201.08,201.08,0,0,0,1.52,27.75c.9,7.13,2.42,15.13,8.24,20,6.19,5.18,14.69,5.23,22.35,5.47l29.19.9,58.39,1.81,29.19.91c4.55.14,9.1.37,13.65.39a40.46,40.46,0,0,0,10.58-1.11,16.71,16.71,0,0,0,8.43-4.94c2.74-3.2,3.66-7.29,4.48-11.31q2.8-14,4.5-28.09t2.27-28.44q.29-7.19.28-14.39c0-4.55,0-9.15-.31-13.69-.27-3.65-1.4-7.32-5-8.85s-8.38-.66-12.29-.44q-14.46.79-28.92,1.14-28.93.69-57.87-.41t-58-4q-7-.7-14-1.51c-1.91-.22-1.9,2.78,0,3Z"/><path d="M1284.3,576.13l28,2.48,13.86,1.22,6.93.62c2.38.21,4.82.28,7.18.63.11,0,.67.19.51,0,.13.18-.09.87-.12,1.1-.13.84-.28,1.69-.47,2.53a12.46,12.46,0,0,1-1.7,4.27c-2.34,3.39-7.1,2.37-10.63,2.21l-27.94-1.23-7.66-.34a24.49,24.49,0,0,1-6.32-.79,5.74,5.74,0,0,1-3.93-3.27c-.48-1.23-.58-3,.61-3.9,1.54-1.13.05-3.74-1.51-2.59-3,2.17-3,6.26-1.07,9.17,2.41,3.52,7,4.12,10.94,4.33,10.64.55,21.29.93,31.94,1.4l7.91.35c2.39.11,4.81.19,7-.89,3.37-1.65,4.78-5.49,5.45-8.94.31-1.63,1-4-.28-5.34a3.85,3.85,0,0,0-2.44-1c-1.34-.17-2.69-.25-4-.37l-16.08-1.42-36.13-3.2c-1.93-.17-1.91,2.83,0,3Z"/><path d="M1317.49,634.33l18.06-1.47c5.12-.41,10.3-.64,15.37-1.47,4-.66,8.13-1.8,11.43-4.24a14.93,14.93,0,0,0,5.92-11.13c.48-5.51-1.15-11.19.68-16.56h-2.89c3,7,6.1,14.36,6.29,22.09.15,6.52-1.88,13.29-7.17,17.45-5.12,4-12,5.28-18.23,6.29a69.52,69.52,0,0,1-18.72.79c-6.69-.75-13.16-3.23-17.74-8.32-1.3-1.44-3.41.69-2.12,2.12,9.19,10.21,24.23,10.41,36.85,8.68,6.83-.94,14.19-2.16,20.08-6,6.08-3.94,9.26-10.45,9.93-17.53.87-9.23-2.78-18.06-6.28-26.38a1.51,1.51,0,0,0-2.89,0c-1.54,4.51-.84,9.27-.71,13.93.11,4.31-.57,8.51-4,11.49-2.85,2.51-6.76,3.59-10.41,4.26-4.67.85-9.47,1-14.19,1.41l-19.3,1.57c-1.91.16-1.93,3.16,0,3Z"/><path d="M1189.78,337.63q63.43-.13,126.87-.23t126.87-.16l63.83-.06c10.11,0,20.25-.18,30.36,0,8.39.18,17.07.83,24.88,4.16,15.88,6.79,21.23,23.8,23.11,39.65,2.36,20,1.93,40.29,1.63,60.37q-1,63.58-2,127.18l-.24,15.56c0,1.93,3,1.93,3,0q1-64.62,2-129.24c.32-21,.91-42.08-.48-63.07-1-15.62-2.89-33.38-14.26-45.26-12.36-12.91-31.58-12.4-48.09-12.39l-64.23.05q-64.43.06-128.86.16l-128.46.21-16,0a1.5,1.5,0,0,0,0,3Z"/><path d="M1557.88,636.3,1606.14,607c11.47-7,24.52-15.09,29.13-28.46a38.22,38.22,0,0,0,1.6-13c-.06-4.85-.32-9.74,1.23-14.41l-2.51.66a26.73,26.73,0,0,1,6.67,25,1.51,1.51,0,0,0,2.5,1.46A134.33,134.33,0,0,0,1664,555.05l-2.74-.36a25.84,25.84,0,0,1-8.33,26.58,1.51,1.51,0,0,0,.66,2.5c3.68.91,7.45.69,11.2.77,3.41.08,7.17.5,9.7,3.05,4.31,4.36,3.44,12-2.15,14.77a9.67,9.67,0,0,1-9.38-.4l.54,2a7.86,7.86,0,0,0-1-8.42c-2.18-2.84-5.63-4-9.12-4a26.87,26.87,0,0,0-5.51.6,9.78,9.78,0,0,0-4.82,2c-2.35,2.1-2,5.7-.3,8.08,2.43,3.36,6.87,3.71,10.67,3.77l-1.29-2.26c-3.75,6.46-14.61,7-18.84.75a1.52,1.52,0,0,0-2.59,0A439,439,0,0,0,1589.08,683q-4.69,11.6-8.73,23.43c-.62,1.84,2.28,2.62,2.9.8A435.42,435.42,0,0,1,1620,627.15q6.35-10.77,13.29-21.18h-2.59c5.46,8.08,19.09,7.76,24-.75a1.51,1.51,0,0,0-1.3-2.25c-2.79-.05-6.64,0-8.36-2.69a3.54,3.54,0,0,1-.48-3.32c.69-1.4,2.73-1.64,4.09-1.91,3.16-.62,6.91-1,9.78.8,2.08,1.32,3.73,4.24,2.51,6.65a1.53,1.53,0,0,0,.54,2c6.26,4,15.43,1.17,18.06-5.84a13,13,0,0,0-.86-10.46,12.61,12.61,0,0,0-9.26-6.3c-5-.86-10.09.14-15-1.07l.66,2.51a28.78,28.78,0,0,0,9.1-29.5,1.52,1.52,0,0,0-2.74-.36,131,131,0,0,1-18.79,22.56l2.51,1.46a29.81,29.81,0,0,0-7.44-27.9,1.51,1.51,0,0,0-2.5.66c-2.64,8-.21,16.43-2,24.51-1.45,6.55-5.46,12-10.28,16.58-5,4.71-10.81,8.46-16.65,12q-11.6,7.07-23.21,14.08l-26.7,16.2a1.5,1.5,0,0,0,1.52,2.59Z"/><path d="M1168.92,338.28c-7.27-1.95-14.69.28-20.54,4.8-6.47,5-10.23,12.48-12.33,20.25-2.41,8.92-3.08,18.36-3.69,27.54-.69,10.48-.86,21-.8,31.48.1,20.72,1,41.43.56,62.15-.45,19.72-1.94,39.41-4,59-4.18,39.5-10.72,78.69-16.13,118-5.31,38.6-9.61,77.48-9.23,116.49a411.72,411.72,0,0,0,4.39,57.42c1.38,9.17,2.75,18.61,5.42,27.5,2.29,7.66,6.76,13.39,14.18,16.59,8.22,3.55,17.58,4.89,26.28,6.74q14.68,3.11,29.47,5.66c19.65,3.42,39.41,6.14,59.23,8.29,40.18,4.35,80.59,6.28,121,6.72,40.59.43,81.18-.64,121.73-2.34,20.1-.83,40.19-1.83,60.28-2.86,9.64-.5,19.53-.44,29.11-1.72,7.44-1,13.61-4.48,17.06-11.31s4-14.61,4.68-22.08q1.35-15.48,2.17-31,1.66-31.3,1.16-62.68-.24-15.26-1-30.5c-.09-1.92-3.09-1.94-3,0a916.37,916.37,0,0,1-2.06,120.86c-.66,7.93-.88,16.63-4.55,23.88-4.25,8.41-12.37,9.9-21,10.37q-29.29,1.57-58.59,3c-39.13,1.83-78.28,3.26-117.45,3.47s-78.08-.77-117-3.77a934,934,0,0,1-116.23-16c-9-1.84-18.21-3.4-26.9-6.26a24.91,24.91,0,0,1-10.57-6.15c-3-3.15-4.49-7.3-5.58-11.41-4.82-18.19-6.93-37.43-8.22-56.16-2.58-37.6,0-75.33,4.38-112.7,4.44-38,10.75-75.7,15.81-113.59,5.08-38,8.69-76.24,8.28-114.67-.22-20.29-1.09-40.58-.42-60.87a253,253,0,0,1,2.35-29.49c1.29-8.6,3.62-17.77,9.64-24.35,5.36-5.86,13.39-9.57,21.33-7.44a1.5,1.5,0,0,0,.8-2.89Z"/><path d="M1451,895.47a61.4,61.4,0,0,1-2.72,21c-.58,1.84,2.31,2.63,2.89.79a63.7,63.7,0,0,0,2.83-21.82c-.09-1.92-3.09-1.93-3,0Z"/><path d="M1435.91,900.78l-1.64,15.93a1.5,1.5,0,0,0,3,0l1.64-15.93a1.5,1.5,0,0,0-1.5-1.5,1.54,1.54,0,0,0-1.5,1.5Z"/><path d="M1424.71,898.91l-6.24,22.73a1.5,1.5,0,0,0,2.89.79l6.24-22.72a1.5,1.5,0,0,0-2.89-.8Z"/><path d="M1265.36,892.31a49.63,49.63,0,0,0-3.84,20.42c0,1.93,3,1.94,3,0a47.52,47.52,0,0,1,3.74-19.62,1.51,1.51,0,0,0-1-1.85,1.54,1.54,0,0,0-1.85,1Z"/><path d="M1243.91,891l-3.16,20.08a1.55,1.55,0,0,0,1,1.85,1.51,1.51,0,0,0,1.84-1l3.16-20.08a1.55,1.55,0,0,0-1-1.85,1.52,1.52,0,0,0-1.85,1Z"/><path d="M1254.62,892.29l-5.53,17.23c-.59,1.84,2.3,2.63,2.89.8l5.53-17.23c.6-1.84-2.3-2.63-2.89-.8Z"/><path d="M1658.31,608.51a3.88,3.88,0,0,0,.06-2.16,2.2,2.2,0,0,0,0-.36l-.26.16c-.3.07-.36.14-.17.21,0,.12.52.85.61,1a4.54,4.54,0,0,0,3.62,3.06c1.78.28,3.64,0,5.44.18a22.17,22.17,0,0,1,6,1.3,14.58,14.58,0,0,1,7.78,6.48c1.51,2.79,1.81,6.09,2.21,9.18s.85,6.38,2.46,9.16a13,13,0,0,0,7.41,5.66c3.29,1.08,6.8,1.24,10.2,1.78a58.67,58.67,0,0,1,12.07,3.25c.89.34,1.77.71,2.63,1.1.22.1.54.36.76.36.52,0-.47-.46-.27-.5a6.71,6.71,0,0,0-.5,1.22,23.32,23.32,0,0,1-2.62,4.37,30.2,30.2,0,0,1-7.63,6.89c-6.68,4.34-14.46,6.42-22,8.74-8,2.47-16,5.48-24.44,6.09l-1.41.08c-.4,0-1.29-.16-1.64,0h-.23l.4.56a5,5,0,0,0,0-.65c0-.59,0-1.17,0-1.76a22.28,22.28,0,0,1,1.11-5.82c1.22-3.7,4-6.76,4.59-10.67a31.74,31.74,0,0,0,.19-5.93,16.4,16.4,0,0,0-.93-5.51c-1.34-3.36-4.54-4.95-7-7.42a18,18,0,0,1-.68-24.32c1.26-1.46-.86-3.59-2.12-2.12a21.16,21.16,0,0,0-3.77,21.69,22.22,22.22,0,0,0,6.93,9.05c1.45,1.16,3,2.34,3.78,4.11a16.37,16.37,0,0,1,.78,6,14.74,14.74,0,0,1-.93,6.42c-.86,2-2.09,3.71-2.93,5.67a24.55,24.55,0,0,0-1.77,6c-.29,1.85-.73,4.32-.12,6.13.7,2.07,3.57,1.53,5.24,1.43a55.11,55.11,0,0,0,6.66-.85,114,114,0,0,0,13.22-3.53c14.64-4.62,33.94-8.45,40.39-24.45a3.07,3.07,0,0,0,.2-2.61c-.42-.85-1.41-1.18-2.22-1.54a64.37,64.37,0,0,0-6.2-2.37,70,70,0,0,0-12.57-2.61c-3.41-.43-7.29-.89-10-3.16s-3.44-5.7-3.91-9c-.51-3.51-.73-7.1-2.13-10.41a16.54,16.54,0,0,0-7.27-7.85,24.86,24.86,0,0,0-12.27-2.83,10,10,0,0,1-2.67-.09c-1-.29-1.09-1.28-1.52-2.11-.74-1.42-2.44-2.54-4.06-1.81a2.52,2.52,0,0,0-1.39,1.79c-.17.79.2,1.61,0,2.37a1.5,1.5,0,0,0,2.89.8Z"/><path d="M1716.75,660a4.51,4.51,0,0,0,.18,1.5s.08.23,0,.26c0-.22,0-.25,0-.08v.11c0,.17-.08.28,0-.07l-.06.23c0,.25.14-.23,0-.09s-.07.14-.11.21a1.77,1.77,0,0,0-.12.17c.16-.19.18-.23.08-.11l0,.07-.38.35c-.19.18.21-.15.06,0l-.21.15a8.94,8.94,0,0,1-.84.51l-.49.25-.29.14c-.08,0-.35.22,0,0a2.55,2.55,0,0,1-.55.19c-.07,0-.5.18-.56.13l.14,0h-.15c-.07,0-.23,0-.3,0l.2,0-.19,0c-.1,0-.38-.16,0,0a1.62,1.62,0,0,0-1.16-.15,1.5,1.5,0,0,0-.36,2.74,4.47,4.47,0,0,0,3.55.1,12,12,0,0,0,2.57-1.31,5,5,0,0,0,2-2.35,3,3,0,0,0,.17-1.43c0-.36-.12-.69-.19-1l0-.16c0-.12,0-.07,0,.14-.06,0,0-.36,0-.42a1.59,1.59,0,0,0-.44-1.07,1.51,1.51,0,0,0-1.06-.43,1.53,1.53,0,0,0-1.5,1.5Z"/><path d="M414.87,425.09a78.43,78.43,0,0,1-33.79-35.94L379,391.2l18.73,13.33,9.36,6.66c2.6,1.85,5.29,4.13,8.52,4.72s6.08-.62,8.71-2.22a53.31,53.31,0,0,0,7.83-5.95c4.92-4.37,9.37-9.35,14.86-13,5-3.33,11.37-6.09,17.45-4.57,4.84,1.22,9.6,5.41,10.14,10.59.64,6.12-5.34,10-9.32,13.58A95.55,95.55,0,0,0,437,460.81c-1.69,6.47-2.79,13.36-1.3,20a26,26,0,0,0,7.88,13.31c7.69,7.05,18.19,10.26,28,13.09a299.76,299.76,0,0,1,35.71,12.41,265.12,265.12,0,0,1,66.07,40.78q3.58,3,7,6.16l1.06-2.56L511,559.45l-35-2.25c-11.39-.73-22.78-1.52-34.11-2.87a225.05,225.05,0,0,1-33.09-6.18c-8.93-2.44-18.19-6.07-24-13.67-9.94-13.06-7.61-32.37.83-45.55,4.65-7.26,10.89-13.37,16.37-20,5.14-6.21,10.07-13.16,11.49-21.26a30,30,0,0,0,.42-6.06,1.54,1.54,0,0,0-1.1-1.45l-48.32-14.06-.4,2.95a177.45,177.45,0,0,1,46,1.89c1.89.33,2.7-2.56.8-2.89a180.09,180.09,0,0,0-46.83-2,1.5,1.5,0,0,0-.4,2.94L412,443.07l-1.1-1.45c.3,8.45-3.77,15.87-8.79,22.4-5.35,7-11.66,13.12-16.87,20.2-9.7,13.17-13.55,32-5.95,47.09,4.18,8.28,11.72,13.63,20.19,17a106.59,106.59,0,0,0,15,4.4c5.62,1.31,11.3,2.37,17,3.24,23.09,3.54,46.55,4.41,69.83,5.91l71.25,4.57,9,.57a1.51,1.51,0,0,0,1.06-2.56A268,268,0,0,0,481.69,507c-10.3-3.17-21.2-5.39-30.53-11a28,28,0,0,1-10.4-10.19c-3.14-5.69-3.24-12.35-2.13-18.62A89.15,89.15,0,0,1,453,432.85a91.07,91.07,0,0,1,12-14.2c4.1-3.95,9.61-7.33,11.81-12.81,2.05-5.14-.15-10.77-4-14.39a17.94,17.94,0,0,0-16-4.27c-13.24,2.49-20.95,14.55-31.18,22-2.48,1.8-5.62,4.14-8.86,3.87s-6.09-3-8.61-4.75L389.5,395l-9-6.37c-1.35-1-2.61.84-2.05,2.05a81.21,81.21,0,0,0,25.12,30.82,78,78,0,0,0,9.75,6.2c1.7.92,3.21-1.67,1.51-2.59Z"/><path d="M446.59,415.86c-3.59-.74-5.75-4.33-5.72-7.85.05-4.12,3.35-7.39,6.91-9,3.26-1.45,8.18-2,11,.76,3,2.95,1.3,8-1.2,10.67a10.76,10.76,0,0,1-11.2,3.1c-1.83-.64-2.61,2.26-.8,2.89,4.7,1.64,10,0,13.51-3.27s5.81-9.53,2.94-14.09-9-4.92-13.57-3.48c-4.85,1.51-9.48,5.36-10.36,10.59s2.21,11.4,7.74,12.53c1.89.38,2.69-2.51.8-2.89Z"/><path d="M449.27,405.59l-.11,0,.4-.06h-.12l.4.05-.08,0,.36.15-.06,0,.3.24,0-.05.23.31s0,0,0-.08l.15.36a.28.28,0,0,1,0-.13l.05.4a.74.74,0,0,1,0-.21l-.05.4a1.35,1.35,0,0,1,.09-.33l-.15.36a1.05,1.05,0,0,1,.17-.29l-.24.3.17-.17-.3.24a.78.78,0,0,1,.15-.1l-.36.15.16,0-.4.05H450l-.4-.05.15,0-.36-.15a1.38,1.38,0,0,1,.24.14l-.3-.23a1,1,0,0,1,.21.21l-.23-.3a1.57,1.57,0,0,1,.18.31l-.15-.36a2,2,0,0,1,.14.54l0-.4a4.26,4.26,0,0,1,0,1l.05-.4c0,.22-.07.42-.11.63a1.49,1.49,0,0,0,2.2,1.69,1.5,1.5,0,0,0,.69-.89,10,10,0,0,0,.19-1.22,3.75,3.75,0,0,0,0-.82,3.63,3.63,0,0,0-.42-1.44,2.79,2.79,0,0,0-1-1,2.11,2.11,0,0,0-2.59.37,2.8,2.8,0,0,0-.78,1.88,2,2,0,0,0,.56,1.39,1.9,1.9,0,0,0,1.84.43,1.57,1.57,0,0,0,.89-.69,1.52,1.52,0,0,0,.15-1.16,1.47,1.47,0,0,0-.69-.89,1.58,1.58,0,0,0-1.15-.16Z"/><path d="M448.8,560.35l-29.65,29.53a1.5,1.5,0,0,0,2.12,2.12l29.65-29.53a1.5,1.5,0,0,0-2.12-2.12Z"/><path d="M451.39,568.23a143.68,143.68,0,0,0,23.52,28.07c1.41,1.3,3.54-.81,2.12-2.12a140,140,0,0,1-23-27.47c-1-1.62-3.64-.12-2.59,1.52Z"/><ellipse class="cls-2" cx="1402.93" cy="578.95" rx="440.75" ry="273.19"/></svg>