<svg id="Layer_1" data-name="Layer 1" xmlns="http://www.w3.org/2000/svg" viewBox="0 0 1920 1080"><defs><style>.cls-1{font-size:60px;font-family:VarelaRound-Regular, Varela Round;}.cls-2{letter-spacing:0em;}.cls-3{letter-spacing:0em;}.cls-4{letter-spacing:-0.01em;}.cls-5{letter-spacing:-0.01em;}.cls-6{fill:#4d4d4d;}</style></defs><title>42-teeth</title><text class="cls-1" transform="translate(150.3 151.51)">I ring a bell bec<tspan class="cls-2" x="431.03" y="0">a</tspan><tspan class="cls-3" x="464.51" y="0">use</tspan><tspan x="0" y="72">I do</tspan><tspan class="cls-4" x="107.04" y="72">n</tspan><tspan x="142.74" y="72">’t sing so </tspan><tspan class="cls-5" x="410.15" y="72">w</tspan><tspan x="457.25" y="72">ell.</tspan></text><path d="M1394.18,626.55l77.52-47c18.41-11.17,39.61-24.18,47-45.7,2.31-6.77,2.61-13.87,2.51-21-.1-7.78-.49-15.7,2-23.18l-2.51.66a44,44,0,0,1,11,41.2,1.51,1.51,0,0,0,2.51,1.46,214.73,214.73,0,0,0,30.92-37.19l-2.74-.36a42.73,42.73,0,0,1-6.36,35.95,40.18,40.18,0,0,1-7.31,7.82,1.51,1.51,0,0,0,.66,2.51c6.19,1.56,12.58,1,18.89,1.24,5.64.2,11.63,1.24,15.63,5.59a17.12,17.12,0,0,1,4.17,13.56,14.75,14.75,0,0,1-8.48,11.41,16.49,16.49,0,0,1-15.8-.78l.54,2c2.21-4.23,1.08-9.1-1.77-12.73-3.36-4.28-8.7-5.93-14-6a43.61,43.61,0,0,0-8.67,1c-2.51.51-5.11,1.11-7.11,2.81-3.6,3-3,8.48-.46,12,3.74,5.12,10.63,5.56,16.44,5.64l-1.3-2.26c-5,8.67-17.27,11-25.83,6.6a16.23,16.23,0,0,1-6.15-5.39,1.52,1.52,0,0,0-2.59,0,703,703,0,0,0-67,126.55q-7.59,18.69-14.09,37.8c-.62,1.83,2.27,2.62,2.89.8a701.92,701.92,0,0,1,59.46-129.66q10.17-17.28,21.32-34h-2.59c6.49,9.71,20.84,11.57,30.49,5.63a19.25,19.25,0,0,0,6.67-6.84,1.51,1.51,0,0,0-1.29-2.26c-4.2-.06-9.21-.09-12.63-2.91-2.36-1.94-4.14-6.13-2-8.85,1.3-1.64,3.56-2.15,5.5-2.57a45.5,45.5,0,0,1,7-1c4.28-.25,9,.34,12.32,3.38,2.85,2.66,4.75,7,2.8,10.76a1.54,1.54,0,0,0,.54,2.05c9.7,6.23,24.13,1.7,27.94-9.31a20,20,0,0,0-1.73-16.25c-3.18-5.51-8.81-8.46-15-9.36-7.73-1.12-15.69.34-23.32-1.58l.66,2.5A45.56,45.56,0,0,0,1566.9,506a42.88,42.88,0,0,0-1.66-11.37,1.52,1.52,0,0,0-2.74-.36,211.37,211.37,0,0,1-30.45,36.59l2.5,1.46a47,47,0,0,0-11.76-44.12,1.51,1.51,0,0,0-2.5.66c-4.36,13-.27,26.82-3.34,40-2.43,10.46-8.86,19.29-16.56,26.57-8.16,7.71-17.66,13.86-27.21,19.7q-18.69,11.4-37.45,22.72L1392.67,624c-1.65,1-.15,3.6,1.51,2.59Z"/><path d="M760.53,195.11c-11.47-3.09-23.21.48-32.42,7.65-10.23,8-16.15,19.81-19.48,32.12-3.86,14.31-4.94,29.45-5.91,44.18-1.12,16.9-1.39,33.85-1.3,50.79.17,33.43,1.67,66.84.91,100.27-.72,31.82-3.13,63.58-6.47,95.22-6.75,63.8-17.32,127.11-26.06,190.65-8.55,62.18-15.47,124.83-14.86,187.68a664.43,664.43,0,0,0,7,92.4c2.23,14.78,4.44,30,8.74,44.37,3.64,12.12,10.7,21.16,22.47,26.21,13.19,5.66,28.2,7.82,42.17,10.77q23.68,5,47.55,9.15,47.42,8.23,95.31,13.33c64.82,7,130,10.14,195.2,10.84,65.49.7,131-1,196.4-3.77,32.42-1.35,64.83-3,97.24-4.62,15.52-.8,31.44-.69,46.85-2.75,11.73-1.58,21.41-7,26.86-17.81s6.37-23.29,7.41-35.16q2.18-25,3.5-50,2.68-50.5,1.88-101.13-.39-24.62-1.6-49.21c-.1-1.92-3.1-1.93-3,0a1478.9,1478.9,0,0,1-3.32,195c-1.09,13-1.47,27.14-7.46,39-7,13.87-20.45,16.41-34.74,17.18q-47.25,2.55-94.52,4.78c-63.12,3-126.29,5.27-189.48,5.62-63,.34-126-1.24-188.75-6.1-63-4.87-125.82-13-187.75-25.81-14.44-3-29.38-5.48-43.41-10.1-6.44-2.12-12.74-5.15-17.45-10.16-4.89-5.19-7.44-12-9.24-18.8-7.8-29.43-11.21-60.55-13.29-90.86-4.16-60.65,0-121.53,7.06-181.81C673.79,702.94,684,642.08,692.13,581c8.2-61.39,14-123,13.35-185-.35-32.73-1.76-65.47-.68-98.2.53-15.95,1.45-32,3.83-47.82,2.11-14.05,6-29,15.79-39.69,8.87-9.7,22.2-15.76,35.31-12.24a1.5,1.5,0,0,0,.8-2.89Z"/><path d="M1555.79,582.27a5.2,5.2,0,0,0,.2-1.92,7.32,7.32,0,0,1-.18-1.91c.08-.4,0-.46.45-.32s1,.87,1.21,1.39a13.94,13.94,0,0,0,1.65,3.24,6.06,6.06,0,0,0,3.66,2c2.83.5,5.8.08,8.66.29a36.85,36.85,0,0,1,9.75,2,24.89,24.89,0,0,1,13,10.15c2.7,4.48,3.38,9.8,4,14.9s1.23,10.3,3.64,14.9,6.89,7.8,11.92,9.42c5.26,1.69,10.85,2,16.28,2.82a95,95,0,0,1,19,5.06q2.28.87,4.51,1.86l1.05.47s1,.63.73.14c.17.35-.69,1.83-.85,2.18a37.46,37.46,0,0,1-4,7,48.78,48.78,0,0,1-12.28,11.48c-10.78,7.21-23.45,10.68-35.72,14.44-12.9,4-25.81,8.82-39.36,10-1.64.14-3.27.23-4.91.26a9,9,0,0,1-1.67,0c-.29-.32-.06-2.24-.06-2.7a36.5,36.5,0,0,1,1.53-9.79,42.74,42.74,0,0,1,3.85-8.63,29.65,29.65,0,0,0,3.77-8.95,45,45,0,0,0,.4-9.7,26,26,0,0,0-1.46-8.93c-2.24-5.52-7.88-8.12-11.71-12.35a30.1,30.1,0,0,1-5-32.63,31,31,0,0,1,4.62-7.14c1.26-1.45-.86-3.58-2.13-2.12a33.22,33.22,0,0,0-5.6,34.67,35.79,35.79,0,0,0,11.18,14c2.36,1.88,4.76,3.86,5.89,6.75,1.21,3.06,1.18,6.48,1.25,9.72.07,3.53,0,7.06-1.34,10.37s-3.33,6-4.74,9.15a38.69,38.69,0,0,0-3,9.8,41.87,41.87,0,0,0-.51,4.87c-.06,1.55-.35,3.67.35,5.09s2.06,1.52,3.41,1.53c1.8,0,3.59-.09,5.38-.23a90.28,90.28,0,0,0,10.34-1.47,193.69,193.69,0,0,0,20.89-5.71c13.33-4.21,27.26-7.57,39.71-14.08,10.42-5.45,19.9-13.76,24.27-24.92.54-1.36.85-2.78-.39-3.87s-3.16-1.6-4.62-2.21a93.68,93.68,0,0,0-9.93-3.53,124.36,124.36,0,0,0-19.14-3.68c-5.45-.72-11.54-1.66-15.81-5.41s-5.49-9.06-6.27-14.32-1.08-10.87-3-16a25.76,25.76,0,0,0-11.16-13c-5.78-3.42-12.59-4.74-19.25-4.8-1.45,0-2.93.14-4.37,0a3.46,3.46,0,0,1-3.14-2.21,9.28,9.28,0,0,0-1.89-3.37,4.18,4.18,0,0,0-3.7-1.17,3.13,3.13,0,0,0-2.27,2.43c-.28,1.3.38,2.64,0,3.9-.57,1.85,2.33,2.64,2.89.8Z"/><path d="M1588.31,694.2a6.16,6.16,0,0,0,.26,2.17l.09.43c0-.18,0,.24,0,.28s-.06.47,0,.14c0,.13-.07.25-.1.38s.06-.08,0,.07-.12.23-.19.34l-.18.27c.18-.24-.07.07-.11.12-.19.2-.4.38-.6.57s0,0-.09.08l-.35.25a18.83,18.83,0,0,1-2.89,1.58,6.64,6.64,0,0,1-1.8.52c.22,0-.26,0-.25,0a3.77,3.77,0,0,1-.48,0c.24,0-.22-.06-.24-.06s-.42-.17-.25-.09a1.56,1.56,0,0,0-2.06.54,1.51,1.51,0,0,0,.54,2.05,6.39,6.39,0,0,0,5,.07,18.61,18.61,0,0,0,3.92-2,7.14,7.14,0,0,0,2.83-3.25,4.29,4.29,0,0,0,.23-2.07,10.55,10.55,0,0,1-.32-2.37,1.5,1.5,0,0,0-1.5-1.5,1.54,1.54,0,0,0-1.5,1.5Z"/><path d="M1623.24,578A41.81,41.81,0,0,0,1655,615.6a107.9,107.9,0,0,0,18,2.34c1.93.14,1.92-2.86,0-3-9.49-.69-19.32-1.48-27.71-6.4a39.66,39.66,0,0,1-15.79-17.62,37,37,0,0,1-3.28-12.94c-.13-1.91-3.13-1.93-3,0Z"/><path d="M1521,638.12c4.51,7.62,4.17,17,1.38,25.2-3.05,8.9-8.83,16.56-14.39,24-1.16,1.54,1.45,3,2.59,1.51,8.82-11.82,18.34-25.19,16.7-40.76a28.09,28.09,0,0,0-3.69-11.48,1.5,1.5,0,0,0-2.59,1.51Z"/><path d="M1641.43,575.26c3.34,12.87,13,25.09,27.29,25.33a21,21,0,0,0,10.84-2.75,1.5,1.5,0,0,0-1.52-2.59c-6.71,3.88-15.27,2.65-21.49-1.64-6.43-4.43-10.3-11.74-12.23-19.15-.48-1.87-3.37-1.07-2.89.8Z"/><path d="M1501.43,646.69a45,45,0,0,1-15.52,29.6c-1.47,1.26.66,3.37,2.12,2.13a48.08,48.08,0,0,0,16.4-31.73c.18-1.92-2.82-1.91-3,0Z"/><path d="M1044.05,341.64c-6.78-3.32-14.16-4.77-21.43-6.59-6.57-1.64-13.33-3.71-18.73-8-4.78-3.77-8.1-9.4-7.95-15.62.12-5.47,3.42-10.08,8.82-11.33,5.11-1.18,11.09.7,13.76,5.39a1.5,1.5,0,0,0,2.59-1.51c-2.76-4.86-8.37-7.39-13.85-7.2a14.36,14.36,0,0,0-13.33,9.26c-2.37,6.26-.4,13.68,3.58,18.84,4.53,5.87,11.54,9.21,18.45,11.4,8.81,2.78,18.21,3.81,26.58,7.91,1.73.84,3.25-1.74,1.51-2.59Z"/><path d="M1028.32,302.68A877.74,877.74,0,0,1,1131.85,253c17.43-7,35.09-13.7,53-19.29,7.87-2.45,16.46-4.62,24.74-3.28a24.37,24.37,0,0,1,11.16,4.8c2.92,2.27,5.46,5,8.49,7.12a15.41,15.41,0,0,0,9.88,3.1c4.62-.29,9.1-2.31,13.41-3.88q13.25-4.85,26.18-10.45,13.17-5.72,26-12.2c4.31-2.19,8.54-4.78,13-6.55a19.06,19.06,0,0,1,13.57-.21c8.73,2.84,17.28,6.54,25.7,10.18q12.3,5.31,24.3,11.3a490.74,490.74,0,0,1,46.57,26.52,482.51,482.51,0,0,1,44,32c12.21,10,28,22.78,25.34,40.56a19.64,19.64,0,0,1-4.65,10.19c-1.28,1.44.83,3.57,2.12,2.12,5-5.64,6.52-13.21,5.42-20.56-1.21-8.06-5.67-15.06-11.11-21-6-6.54-13.19-12.09-20.14-17.61q-10.8-8.58-22.07-16.56a490,490,0,0,0-96.64-53.11q-6.29-2.58-12.65-5c-4.17-1.58-8.49-3.4-13-3.36s-8.57,1.86-12.45,3.84c-4.41,2.26-8.77,4.59-13.21,6.78q-13.47,6.68-27.36,12.46c-9,3.78-18.25,7.61-27.63,10.49-4.8,1.47-8.94,1.23-13.08-1.69-3.15-2.22-5.77-5.12-8.87-7.42-6.5-4.81-14.67-5.87-22.53-5-8.67,1-17,3.91-25.17,6.72q-14.1,4.81-28,10.11a878.65,878.65,0,0,0-106.69,48.9q-6.36,3.45-12.66,7a1.5,1.5,0,0,0,1.51,2.59Z"/><path d="M1319,239.94a136.38,136.38,0,0,1-21.81,21.15c-2,1.57-4.1,3.07-6.21,4.52-1.83,1.25-4.08,2.33-5.52,4.05-1.71,2-1.19,4.36,0,6.54a37.38,37.38,0,0,0,3.65,5.49,23.33,23.33,0,0,0,10.25,7.68,19,19,0,0,0,13.54-.71c8.58-3.52,15.75-10.86,20.69-18.56,5.5-8.57,8.54-18.87,7.35-29.06-.22-1.9-3.23-1.92-3,0a41.09,41.09,0,0,1-4.93,24.13,49.45,49.45,0,0,1-17,18.51c-3.76,2.34-8.14,4.05-12.63,3.57a17.24,17.24,0,0,1-10.2-5.42,29.22,29.22,0,0,1-3.64-4.57c-.89-1.37-3.11-4.05-1.86-5.63a9,9,0,0,1,2.23-1.73q1.56-1,3.09-2.07,2.88-2,5.66-4.13a139.18,139.18,0,0,0,22.43-21.64c1.22-1.48-.89-3.61-2.12-2.12Z"/><path d="M1414.36,271.79c12.3,10.73,17.29,27.26,17.37,43.16a123.45,123.45,0,0,1-3.47,27.79c-.88,3.89-1.69,8-3.84,11.44s-5.73,5.15-9.36,6.58a121.89,121.89,0,0,1-29.52,7.55c-1.89.23-1.91,3.24,0,3a124.91,124.91,0,0,0,27.7-6.66c4-1.45,8.16-2.94,11.28-5.87s4.56-7,5.6-10.93c4.66-17.81,7.09-37.54,1.1-55.34a52.23,52.23,0,0,0-14.74-22.84c-1.45-1.26-3.58.85-2.12,2.12Z"/><path d="M1173.63,274.34c4.36,9.16,1.67,20.8-6,27.33-1.47,1.25.66,3.36,2.12,2.12,8.76-7.45,11.39-20.65,6.48-31-.83-1.74-3.42-.22-2.59,1.52Z"/><path d="M1190.36,268.2a31.8,31.8,0,0,0,25.83-15.91,1.5,1.5,0,0,0-2.59-1.51,28.75,28.75,0,0,1-23.24,14.42c-1.92.1-1.93,3.1,0,3Z"/><path d="M1107.52,255.39a25.71,25.71,0,0,1-6-9.51c-1-2.92-2.48-7.74.14-10.26,2.44-2.34,6.47-.75,9,.55a44.79,44.79,0,0,1,8.82,5.83c2.84,2.43,5.41,5.5,5.8,9.35.19,1.91,3.19,1.93,3,0a16.76,16.76,0,0,0-5.58-10.48,45.36,45.36,0,0,0-10.36-7.21c-3.4-1.75-8-3.37-11.59-1.13-4,2.49-3.91,7.58-2.91,11.63a28.91,28.91,0,0,0,7.58,13.35,1.5,1.5,0,0,0,2.12-2.12Z"/><path d="M1473.1,562.86a381.81,381.81,0,0,1-10.81-65.46,386.08,386.08,0,0,1,.63-66.28q1.78-18.67,5.43-37.1c.37-1.89-2.52-2.69-2.89-.8a385.93,385.93,0,0,0-2.83,133.3q2.86,18.74,7.58,37.14c.47,1.86,3.37,1.07,2.89-.8Z"/><path d="M1194.39,206.72q-80.78-10-162.09-14.84t-162.7-4.35q-45.63.25-91.24,2.16c-1.92.08-1.93,3.08,0,3q81.33-3.39,162.76-1.54t162.52,9q45.46,4,90.75,9.61c1.91.24,1.9-2.77,0-3Z"/><path class="cls-6" d="M1288.63,234.58a388.13,388.13,0,0,0-81.93,82.68q-2.15,2.94-4.25,5.93c-1.3,1.85-2.66,3.79-3,6.09-.7,4.75,3.45,7.71,6.81,10.18l27.19,20,53.94,39.6,53.94,39.6,6.74,4.95a1.49,1.49,0,0,0,1.51,0q23.94-12.07,46.72-26.3T1440.22,387q12-9.07,23.46-18.76c1.48-1.25-.65-3.36-2.12-2.12q-20.37,17.15-42.23,32.4t-44.92,28.37q-13,7.41-26.34,14.14h1.51l-52.67-38.67-52.68-38.68-26.55-19.49-6.53-4.79c-2-1.48-4.13-2.87-6-4.51-1.59-1.37-3.14-3.12-2.68-5.38s2.13-4.1,3.38-5.87a387,387,0,0,1,78.63-82.1q2.82-2.19,5.69-4.32c1.53-1.14,0-3.74-1.52-2.59Z"/></svg>