<svg id="Layer_1" data-name="Layer 1" xmlns="http://www.w3.org/2000/svg" viewBox="0 0 1920 1080"><defs><style>.cls-1{fill:#3785e2;opacity:0.5;}.cls-2{fill:#4d4d4d;}</style></defs><title>34</title><ellipse class="cls-1" cx="1452.17" cy="582.86" rx="440.75" ry="273.19" transform="translate(-109.59 680.01) rotate(-25.43)"/><path d="M1258.84,1005.15a99,99,0,0,1-4.42,34.16c-.58,1.85,2.31,2.64,2.89.8a101.7,101.7,0,0,0,4.53-35c-.09-1.92-3.09-1.93-3,0Z"/><path d="M1234.44,1013.71l-2.64,25.7c-.2,1.92,2.8,1.9,3,0l2.64-25.7c.2-1.92-2.8-1.91-3,0Z"/><path d="M1216.33,1010.94l-10.06,36.66a1.5,1.5,0,0,0,2.89.8l10.06-36.67a1.5,1.5,0,0,0-2.89-.79Z"/><path d="M959.26,1000.29a79.24,79.24,0,0,0-6.18,32.7c0,1.93,3,1.94,3,0a77.17,77.17,0,0,1,6.07-31.91,1.5,1.5,0,0,0-1-1.84,1.52,1.52,0,0,0-1.84,1Z"/><path d="M924.65,998.17l-5.11,32.4c-.29,1.89,2.6,2.7,2.9.8l5.1-32.4c.3-1.89-2.59-2.7-2.89-.8Z"/><path d="M941.93,1000.26,933,1028.05c-.59,1.84,2.31,2.63,2.9.8l8.92-27.79c.59-1.84-2.31-2.63-2.89-.8Z"/><path d="M156.9,151a2.61,2.61,0,0,1-.78-1.92v-37a2.71,2.71,0,0,1,.78-2,2.56,2.56,0,0,1,1.92-.81,2.77,2.77,0,0,1,2.76,2.76v37a2.56,2.56,0,0,1-.81,1.92,2.71,2.71,0,0,1-2,.78A2.61,2.61,0,0,1,156.9,151Z"/><path d="M188.52,151a2.61,2.61,0,0,1-.78-1.92V123.37a2.71,2.71,0,0,1,.78-2,2.56,2.56,0,0,1,1.92-.81,2.77,2.77,0,0,1,2.76,2.76V126q4.2-5.64,9.42-5.64h.3a2.51,2.51,0,0,1,1.89.78,2.66,2.66,0,0,1,.75,1.92,2.42,2.42,0,0,1-.78,1.86,2.81,2.81,0,0,1-2,.72h-.3a10.23,10.23,0,0,0-5.28,1.41,12.16,12.16,0,0,0-4,3.87v18.24a2.56,2.56,0,0,1-.81,1.92,2.71,2.71,0,0,1-1.95.78A2.61,2.61,0,0,1,188.52,151Z"/><path d="M211.14,113.77a3,3,0,0,1-.9-2.16v-.24a3.07,3.07,0,0,1,3.06-3.06h.36a3.07,3.07,0,0,1,3.06,3.06v.24a3.07,3.07,0,0,1-3.06,3.06h-.36A3,3,0,0,1,211.14,113.77ZM211.5,151a2.61,2.61,0,0,1-.78-1.92V123.37a2.71,2.71,0,0,1,.78-2,2.56,2.56,0,0,1,1.92-.81,2.67,2.67,0,0,1,2.76,2.76v25.74a2.56,2.56,0,0,1-.81,1.92,2.73,2.73,0,0,1-2,.78A2.61,2.61,0,0,1,211.5,151Z"/><path d="M226.44,151a2.57,2.57,0,0,1-.78-1.92V123.37a2.67,2.67,0,0,1,.78-2,2.52,2.52,0,0,1,1.91-.81,2.77,2.77,0,0,1,2.77,2.76v2.46a19.59,19.59,0,0,1,4.92-4,12.39,12.39,0,0,1,6.23-1.5,10.35,10.35,0,0,1,5.73,1.56,10.23,10.23,0,0,1,3.73,4.26,13.74,13.74,0,0,1,1.29,5.94v17a2.56,2.56,0,0,1-.81,1.92,2.73,2.73,0,0,1-2,.78,2.65,2.65,0,0,1-2.69-2.7V132.67c0-4.88-2.21-7.32-6.6-7.32a9.56,9.56,0,0,0-5.38,1.56,19.2,19.2,0,0,0-4.46,4.2v18a2.56,2.56,0,0,1-.81,1.92,2.73,2.73,0,0,1-2,.78A2.57,2.57,0,0,1,226.44,151Z"/><path d="M269.45,165a23,23,0,0,1-5.82-2.22,2.28,2.28,0,0,1-1.08-2.1,2.46,2.46,0,0,1,.69-1.71,2.23,2.23,0,0,1,1.71-.75,3,3,0,0,1,1.08.24,21.83,21.83,0,0,0,9.9,2.28q9.18,0,9.18-9.78v-4a13.54,13.54,0,0,1-10.26,4.56,14.46,14.46,0,0,1-6.87-1.77,14.3,14.3,0,0,1-5.49-5.28,18,18,0,0,1,0-17.1,14.3,14.3,0,0,1,5.49-5.28,14.46,14.46,0,0,1,6.87-1.77,13.54,13.54,0,0,1,10.26,4.56v-1.5a2.71,2.71,0,0,1,.78-2,2.56,2.56,0,0,1,1.92-.81,2.77,2.77,0,0,1,2.76,2.76v26.82q0,7.56-3.66,11.64t-10.44,4.08A28.4,28.4,0,0,1,269.45,165ZM281,145.33a18,18,0,0,0,4.14-3.24V129.73a18,18,0,0,0-4.14-3.24,10.08,10.08,0,0,0-5-1.2,10.19,10.19,0,0,0-7.35,2.73q-2.85,2.73-2.85,7.89t2.85,7.89a10.19,10.19,0,0,0,7.35,2.73A10.08,10.08,0,0,0,281,145.33Z"/><path d="M318.56,151a8.52,8.52,0,0,1-3.57-3.15,8.68,8.68,0,0,1-1.32-4.77,8.41,8.41,0,0,1,3.51-7.08q3.51-2.64,10.29-2.64h7.26v-.48q0-4-2-5.7t-6.09-1.74a20.45,20.45,0,0,0-4.05.36,34,34,0,0,0-3.93,1.08,3.37,3.37,0,0,1-.78.12,2.13,2.13,0,0,1-1.56-.66,2.2,2.2,0,0,1-.66-1.62,2.31,2.31,0,0,1,1.56-2.28,26.39,26.39,0,0,1,10.38-2.16,13.55,13.55,0,0,1,7,1.68,10.56,10.56,0,0,1,4.2,4.35,12.65,12.65,0,0,1,1.35,5.79v17a2.56,2.56,0,0,1-.81,1.92,2.71,2.71,0,0,1-1.95.78,2.66,2.66,0,0,1-2.7-2.7v-1.56a15.07,15.07,0,0,1-11.28,4.56A11.15,11.15,0,0,1,318.56,151Zm12-5a14.18,14.18,0,0,0,4.14-3.21v-5h-6.54q-9.06,0-9.06,4.74A4.45,4.45,0,0,0,320.6,146q1.47,1.32,4.89,1.32A10.85,10.85,0,0,0,330.59,146Z"/><path d="M370.43,147.55v1.56a2.56,2.56,0,0,1-.81,1.92,2.71,2.71,0,0,1-1.95.78,2.66,2.66,0,0,1-2.7-2.7V110.17a2.71,2.71,0,0,1,.78-2,2.56,2.56,0,0,1,1.92-.81,2.67,2.67,0,0,1,2.76,2.76v14.7a13.79,13.79,0,0,1,10.26-4.56,14.07,14.07,0,0,1,7.05,1.89,14.34,14.34,0,0,1,5.4,5.52,18.45,18.45,0,0,1,0,17,14.34,14.34,0,0,1-5.4,5.52,14.07,14.07,0,0,1-7.05,1.89A13.79,13.79,0,0,1,370.43,147.55Zm16.62-3.36q2.7-2.82,2.7-8t-2.7-8a9.43,9.43,0,0,0-7.14-2.82,11.33,11.33,0,0,0-5.19,1.23,14.82,14.82,0,0,0-4.29,3.27v12.6a14.82,14.82,0,0,0,4.29,3.27,11.33,11.33,0,0,0,5.19,1.23A9.43,9.43,0,0,0,387.05,144.19Z"/><path d="M405.08,147.94Q401,143.77,401,136.21a19.56,19.56,0,0,1,1.56-7.86,13.36,13.36,0,0,1,4.8-5.82,13.79,13.79,0,0,1,8-2.22,14,14,0,0,1,7.68,2.07,13.39,13.39,0,0,1,4.92,5.52,17,17,0,0,1,1.68,7.53,2.62,2.62,0,0,1-2.76,2.7H406.49a9.87,9.87,0,0,0,3.12,6.54Q412.25,147,417,147a18,18,0,0,0,4.41-.48,18.32,18.32,0,0,0,3.69-1.38,2.38,2.38,0,0,1,1.08-.24,2.41,2.41,0,0,1,1.68.66,2.18,2.18,0,0,1,.72,1.68,2.59,2.59,0,0,1-1.56,2.22,18.74,18.74,0,0,1-10.5,2.64Q409.19,152.11,405.08,147.94Zm19.11-14.25a9.61,9.61,0,0,0-1.53-4.92,8.26,8.26,0,0,0-3.33-2.91,9.15,9.15,0,0,0-8,0,8.06,8.06,0,0,0-3.3,2.91,9.79,9.79,0,0,0-1.5,4.92Z"/><path d="M437.57,151a2.61,2.61,0,0,1-.78-1.92V110.17a2.71,2.71,0,0,1,.78-2,2.56,2.56,0,0,1,1.92-.81,2.67,2.67,0,0,1,2.76,2.76v38.94a2.56,2.56,0,0,1-.81,1.92,2.71,2.71,0,0,1-1.95.78A2.61,2.61,0,0,1,437.57,151Z"/><path d="M452.51,151a2.61,2.61,0,0,1-.78-1.92V110.17a2.71,2.71,0,0,1,.78-2,2.56,2.56,0,0,1,1.92-.81,2.67,2.67,0,0,1,2.76,2.76v38.94a2.56,2.56,0,0,1-.81,1.92,2.71,2.71,0,0,1-1.95.78A2.61,2.61,0,0,1,452.51,151Z"/><path d="M487.73,147.55v1.56a2.56,2.56,0,0,1-.81,1.92,2.71,2.71,0,0,1-1.95.78,2.66,2.66,0,0,1-2.7-2.7V110.17a2.71,2.71,0,0,1,.78-2,2.56,2.56,0,0,1,1.92-.81,2.67,2.67,0,0,1,2.76,2.76v14.7A13.79,13.79,0,0,1,498,120.31,14.07,14.07,0,0,1,505,122.2a14.34,14.34,0,0,1,5.4,5.52,18.45,18.45,0,0,1,0,17,14.34,14.34,0,0,1-5.4,5.52,14.07,14.07,0,0,1-7.05,1.89A13.79,13.79,0,0,1,487.73,147.55Zm16.62-3.36q2.7-2.82,2.7-8t-2.7-8a9.43,9.43,0,0,0-7.14-2.82,11.33,11.33,0,0,0-5.19,1.23,14.82,14.82,0,0,0-4.29,3.27v12.6a14.82,14.82,0,0,0,4.29,3.27,11.33,11.33,0,0,0,5.19,1.23A9.43,9.43,0,0,0,504.35,144.19Z"/><path d="M522.38,147.94q-4.11-4.17-4.11-11.73a19.56,19.56,0,0,1,1.56-7.86,13.36,13.36,0,0,1,4.8-5.82,13.79,13.79,0,0,1,8-2.22,14,14,0,0,1,7.68,2.07,13.39,13.39,0,0,1,4.92,5.52,17,17,0,0,1,1.68,7.53,2.62,2.62,0,0,1-2.76,2.7H523.79a9.87,9.87,0,0,0,3.12,6.54q2.64,2.34,7.38,2.34a18,18,0,0,0,4.41-.48,18.32,18.32,0,0,0,3.69-1.38,2.38,2.38,0,0,1,1.08-.24,2.41,2.41,0,0,1,1.68.66,2.18,2.18,0,0,1,.72,1.68,2.59,2.59,0,0,1-1.56,2.22,18.74,18.74,0,0,1-10.5,2.64Q526.49,152.11,522.38,147.94Zm19.11-14.25a9.61,9.61,0,0,0-1.53-4.92,8.26,8.26,0,0,0-3.33-2.91,9.15,9.15,0,0,0-8,0,8.06,8.06,0,0,0-3.3,2.91,9.79,9.79,0,0,0-1.5,4.92Z"/><path d="M560.27,150.19a14.78,14.78,0,0,1-5.85-5.52,17.44,17.44,0,0,1,0-16.92,14.78,14.78,0,0,1,5.85-5.52,16.92,16.92,0,0,1,8-1.92,16.63,16.63,0,0,1,5.49.81,20.74,20.74,0,0,1,4.29,2.07,2.39,2.39,0,0,1,.51,3.75,2.11,2.11,0,0,1-1.59.75,2.74,2.74,0,0,1-1.32-.36,22.85,22.85,0,0,0-3.39-1.47,11.7,11.7,0,0,0-3.51-.45,10.88,10.88,0,0,0-8.1,3,11.9,11.9,0,0,0,0,15.66,10.88,10.88,0,0,0,8.1,3,11.7,11.7,0,0,0,3.51-.45,22.85,22.85,0,0,0,3.39-1.47,2.74,2.74,0,0,1,1.32-.36,2.11,2.11,0,0,1,1.59.75,2.39,2.39,0,0,1-.51,3.75,20.74,20.74,0,0,1-4.29,2.07,16.63,16.63,0,0,1-5.49.81A16.92,16.92,0,0,1,560.27,150.19Z"/><path d="M589,151a8.52,8.52,0,0,1-3.57-3.15,8.68,8.68,0,0,1-1.32-4.77A8.41,8.41,0,0,1,587.6,136q3.51-2.64,10.29-2.64h7.26v-.48q0-4-1.95-5.7t-6.09-1.74a20.45,20.45,0,0,0-4.05.36,34,34,0,0,0-3.93,1.08,3.37,3.37,0,0,1-.78.12,2.13,2.13,0,0,1-1.56-.66,2.2,2.2,0,0,1-.66-1.62,2.31,2.31,0,0,1,1.56-2.28,26.39,26.39,0,0,1,10.38-2.16,13.55,13.55,0,0,1,7,1.68,10.56,10.56,0,0,1,4.2,4.35,12.65,12.65,0,0,1,1.35,5.79v17a2.56,2.56,0,0,1-.81,1.92,2.71,2.71,0,0,1-1.95.78,2.66,2.66,0,0,1-2.7-2.7v-1.56a15.07,15.07,0,0,1-11.28,4.56A11.15,11.15,0,0,1,589,151Zm12-5a14.18,14.18,0,0,0,4.14-3.21v-5h-6.54q-9.06,0-9.06,4.74A4.45,4.45,0,0,0,591,146q1.47,1.32,4.89,1.32A10.85,10.85,0,0,0,601,146Z"/><path d="M624.26,150.55a10.14,10.14,0,0,1-3.72-4.26,13.6,13.6,0,0,1-1.29-5.94v-17a2.56,2.56,0,0,1,.81-1.92,2.71,2.71,0,0,1,2-.78,2.66,2.66,0,0,1,2.7,2.7v16.44q0,7.32,6.6,7.32a9.55,9.55,0,0,0,5.37-1.56,19.44,19.44,0,0,0,4.47-4.2v-18a2.56,2.56,0,0,1,.81-1.92,2.71,2.71,0,0,1,1.95-.78,2.66,2.66,0,0,1,2.7,2.7v25.74a2.71,2.71,0,0,1-.78,1.95,2.56,2.56,0,0,1-1.92.81,2.77,2.77,0,0,1-2.76-2.76v-2.46a19.94,19.94,0,0,1-4.92,4,12.42,12.42,0,0,1-6.24,1.5A10.37,10.37,0,0,1,624.26,150.55Z"/><path d="M655.07,149.41a2.29,2.29,0,0,1-1-2,2.41,2.41,0,0,1,.66-1.68,2.18,2.18,0,0,1,1.68-.72,2.64,2.64,0,0,1,1.08.24,24.25,24.25,0,0,0,3.84,1.32,17.85,17.85,0,0,0,4.32.48q6.66,0,6.66-4.26a2.27,2.27,0,0,0-1.53-2.1,31.33,31.33,0,0,0-5-1.62,45.27,45.27,0,0,1-5.85-1.74,10.29,10.29,0,0,1-4-2.73,6.94,6.94,0,0,1-1.65-4.83,8.65,8.65,0,0,1,3-6.84q3-2.64,8.67-2.64a25,25,0,0,1,8.7,1.5,2.25,2.25,0,0,1,1.29.9,2.41,2.41,0,0,1,.45,1.38,2.35,2.35,0,0,1-.69,1.68,2.27,2.27,0,0,1-1.71.72,3.37,3.37,0,0,1-.78-.12,23,23,0,0,0-6.84-1.08,9.37,9.37,0,0,0-5.07,1.17,3.49,3.49,0,0,0-1.83,3,2.77,2.77,0,0,0,1.68,2.64,24,24,0,0,0,5.22,1.62,50,50,0,0,1,5.76,1.77,9.52,9.52,0,0,1,3.81,2.73,7.41,7.41,0,0,1,1.59,5,7.93,7.93,0,0,1-3,6.36q-3,2.52-8.55,2.52A22.32,22.32,0,0,1,655.07,149.41Z"/><path d="M687.14,147.94Q683,143.77,683,136.21a19.56,19.56,0,0,1,1.56-7.86,13.36,13.36,0,0,1,4.8-5.82,13.79,13.79,0,0,1,8-2.22,14,14,0,0,1,7.68,2.07A13.39,13.39,0,0,1,710,127.9a17,17,0,0,1,1.68,7.53,2.62,2.62,0,0,1-2.76,2.7H688.55a9.87,9.87,0,0,0,3.12,6.54q2.64,2.34,7.38,2.34a18,18,0,0,0,4.41-.48,18.32,18.32,0,0,0,3.69-1.38,2.38,2.38,0,0,1,1.08-.24,2.41,2.41,0,0,1,1.68.66,2.18,2.18,0,0,1,.72,1.68,2.59,2.59,0,0,1-1.56,2.22,18.74,18.74,0,0,1-10.5,2.64Q691.25,152.11,687.14,147.94Zm19.11-14.25a9.61,9.61,0,0,0-1.53-4.92,8.26,8.26,0,0,0-3.33-2.91,9.15,9.15,0,0,0-8,0,8.06,8.06,0,0,0-3.3,2.91,9.79,9.79,0,0,0-1.5,4.92Z"/><path d="M156.9,223a2.61,2.61,0,0,1-.78-1.92v-37a2.71,2.71,0,0,1,.78-2,2.56,2.56,0,0,1,1.92-.81,2.77,2.77,0,0,1,2.76,2.76v37a2.56,2.56,0,0,1-.81,1.92,2.71,2.71,0,0,1-2,.78A2.61,2.61,0,0,1,156.9,223Z"/><path d="M193.35,222.22a14.34,14.34,0,0,1-5.4-5.52,18.45,18.45,0,0,1,0-17,14.34,14.34,0,0,1,5.4-5.52,14.07,14.07,0,0,1,7.05-1.89,13.79,13.79,0,0,1,10.26,4.56v-14.7a2.63,2.63,0,0,1,.81-2,2.71,2.71,0,0,1,1.95-.78,2.56,2.56,0,0,1,1.92.81,2.71,2.71,0,0,1,.78,1.95v38.94a2.66,2.66,0,0,1-2.7,2.7,2.71,2.71,0,0,1-1.95-.78,2.56,2.56,0,0,1-.81-1.92v-1.56a13.79,13.79,0,0,1-10.26,4.56A14.07,14.07,0,0,1,193.35,222.22Zm13-4.44a14.82,14.82,0,0,0,4.29-3.27v-12.6a14.82,14.82,0,0,0-4.29-3.27,11.33,11.33,0,0,0-5.19-1.23,9.43,9.43,0,0,0-7.14,2.82q-2.7,2.82-2.7,8t2.7,8a9.43,9.43,0,0,0,7.14,2.82A11.33,11.33,0,0,0,206.37,217.78Z"/><path d="M231,222.13a13.46,13.46,0,0,1-5.37-5.61,19.21,19.21,0,0,1,0-16.62,13.46,13.46,0,0,1,5.37-5.61,17.44,17.44,0,0,1,16.14,0,13.71,13.71,0,0,1,5.4,5.61,18.94,18.94,0,0,1,0,16.62,13.71,13.71,0,0,1-5.4,5.61,17.44,17.44,0,0,1-16.14,0ZM243.81,218a9.22,9.22,0,0,0,3.72-3.6,12,12,0,0,0,1.47-6.24,11.88,11.88,0,0,0-1.47-6.18,9,9,0,0,0-3.72-3.57,10.52,10.52,0,0,0-4.71-1.11,10.64,10.64,0,0,0-4.77,1.11,8.78,8.78,0,0,0-3.69,3.57,12.08,12.08,0,0,0-1.44,6.18,12.21,12.21,0,0,0,1.44,6.24,9,9,0,0,0,3.69,3.6,10.41,10.41,0,0,0,4.77,1.14A10.29,10.29,0,0,0,243.81,218Z"/><path d="M262.85,223a2.6,2.6,0,0,1-.77-1.92V195.37a2.7,2.7,0,0,1,.77-2,2.56,2.56,0,0,1,1.92-.81,2.77,2.77,0,0,1,2.77,2.76v2.46a19.59,19.59,0,0,1,4.92-4,12.36,12.36,0,0,1,6.23-1.5,10.35,10.35,0,0,1,5.73,1.56,10.23,10.23,0,0,1,3.73,4.26,13.74,13.74,0,0,1,1.29,5.94v17a2.53,2.53,0,0,1-.82,1.92,2.71,2.71,0,0,1-1.95.78,2.65,2.65,0,0,1-2.69-2.7V204.67c0-4.88-2.21-7.32-6.6-7.32a9.56,9.56,0,0,0-5.38,1.56,19.2,19.2,0,0,0-4.46,4.2v18a2.56,2.56,0,0,1-.81,1.92,2.73,2.73,0,0,1-2,.78A2.61,2.61,0,0,1,262.85,223Z"/><path d="M297.33,194.35a1.75,1.75,0,0,1-.52-1.26,1.68,1.68,0,0,1,.91-1.5,7.05,7.05,0,0,0,2.28-2.1,6.5,6.5,0,0,0,.78-3.48h-.24a3.38,3.38,0,0,1-3.36-3.36v-.36a3.38,3.38,0,0,1,3.36-3.36h.6a3.38,3.38,0,0,1,3.36,3.36v3.54a9.67,9.67,0,0,1-4.92,8.76,1.92,1.92,0,0,1-1,.3A1.62,1.62,0,0,1,297.33,194.35Z"/><path d="M313.85,216.19v-18.6h-4.26a1.13,1.13,0,0,1-1.14-1.14,1.25,1.25,0,0,1,.54-1l8.16-8a1.51,1.51,0,0,1,1-.54,1.06,1.06,0,0,1,.81.36,1.2,1.2,0,0,1,.33.84v4.8h6.78a2.26,2.26,0,0,1,2.34,2.34,2.3,2.3,0,0,1-.66,1.65,2.22,2.22,0,0,1-1.68.69h-6.78v18.12q0,2.34,1.11,3a5.59,5.59,0,0,0,2.79.63,8.32,8.32,0,0,0,2.4-.36l.51-.12a3.27,3.27,0,0,1,.69-.06,2.11,2.11,0,0,1,1.5.63,2,2,0,0,1,.66,1.53,2.27,2.27,0,0,1-1.38,2.1,11.74,11.74,0,0,1-5,1.08Q313.85,224.11,313.85,216.19Z"/><path d="M349.55,221.41a2.29,2.29,0,0,1-1-2,2.41,2.41,0,0,1,.66-1.68,2.18,2.18,0,0,1,1.68-.72,2.64,2.64,0,0,1,1.08.24,24.25,24.25,0,0,0,3.84,1.32,17.85,17.85,0,0,0,4.32.48q6.66,0,6.66-4.26a2.27,2.27,0,0,0-1.53-2.1,31.33,31.33,0,0,0-5-1.62,45.27,45.27,0,0,1-5.85-1.74,10.29,10.29,0,0,1-4-2.73,6.94,6.94,0,0,1-1.65-4.83,8.65,8.65,0,0,1,3-6.84q3-2.64,8.67-2.64a25,25,0,0,1,8.7,1.5,2.25,2.25,0,0,1,1.29.9,2.41,2.41,0,0,1,.45,1.38,2.35,2.35,0,0,1-.69,1.68,2.27,2.27,0,0,1-1.71.72,3.37,3.37,0,0,1-.78-.12,23,23,0,0,0-6.84-1.08,9.37,9.37,0,0,0-5.07,1.17,3.49,3.49,0,0,0-1.83,3,2.77,2.77,0,0,0,1.68,2.64,24,24,0,0,0,5.22,1.62,50,50,0,0,1,5.76,1.77,9.52,9.52,0,0,1,3.81,2.73,7.41,7.41,0,0,1,1.59,5,7.93,7.93,0,0,1-3,6.36q-3,2.52-8.55,2.52A22.32,22.32,0,0,1,349.55,221.41Z"/><path d="M379.79,185.77a3,3,0,0,1-.9-2.16v-.24a3.07,3.07,0,0,1,3.06-3.06h.36a3.07,3.07,0,0,1,3.06,3.06v.24a3.07,3.07,0,0,1-3.06,3.06H382A3,3,0,0,1,379.79,185.77Zm.36,37.26a2.61,2.61,0,0,1-.78-1.92V195.37a2.71,2.71,0,0,1,.78-2,2.56,2.56,0,0,1,1.92-.81,2.67,2.67,0,0,1,2.76,2.76v25.74A2.56,2.56,0,0,1,384,223a2.71,2.71,0,0,1-1.95.78A2.61,2.61,0,0,1,380.15,223Z"/><path d="M395.09,223a2.61,2.61,0,0,1-.78-1.92V195.37a2.71,2.71,0,0,1,.78-2,2.56,2.56,0,0,1,1.92-.81,2.77,2.77,0,0,1,2.76,2.76v2.46a19.94,19.94,0,0,1,4.92-4,12.42,12.42,0,0,1,6.24-1.5,10.37,10.37,0,0,1,5.73,1.56,10.14,10.14,0,0,1,3.72,4.26,13.6,13.6,0,0,1,1.29,5.94v17a2.56,2.56,0,0,1-.81,1.92,2.71,2.71,0,0,1-1.95.78,2.66,2.66,0,0,1-2.7-2.7V204.67q0-7.32-6.6-7.32a9.55,9.55,0,0,0-5.37,1.56,19.44,19.44,0,0,0-4.47,4.2v18A2.56,2.56,0,0,1,399,223a2.71,2.71,0,0,1-1.95.78A2.61,2.61,0,0,1,395.09,223Z"/><path d="M438.11,237a23,23,0,0,1-5.82-2.22,2.28,2.28,0,0,1-1.08-2.1,2.46,2.46,0,0,1,.69-1.71,2.23,2.23,0,0,1,1.71-.75,3,3,0,0,1,1.08.24,21.83,21.83,0,0,0,9.9,2.28q9.18,0,9.18-9.78v-4a13.54,13.54,0,0,1-10.26,4.56,14.46,14.46,0,0,1-6.87-1.77,14.3,14.3,0,0,1-5.49-5.28,18,18,0,0,1,0-17.1,14.3,14.3,0,0,1,5.49-5.28,14.46,14.46,0,0,1,6.87-1.77,13.54,13.54,0,0,1,10.26,4.56v-1.5a2.71,2.71,0,0,1,.78-2,2.56,2.56,0,0,1,1.92-.81,2.77,2.77,0,0,1,2.76,2.76v26.82q0,7.56-3.66,11.64t-10.44,4.08A28.4,28.4,0,0,1,438.11,237Zm11.52-19.68a18,18,0,0,0,4.14-3.24V201.73a18,18,0,0,0-4.14-3.24,10.08,10.08,0,0,0-5-1.2A10.19,10.19,0,0,0,437.3,200q-2.85,2.73-2.85,7.89t2.85,7.89a10.19,10.19,0,0,0,7.35,2.73A10.08,10.08,0,0,0,449.63,217.33Z"/><path d="M483.29,221.41a2.29,2.29,0,0,1-1-2,2.41,2.41,0,0,1,.66-1.68,2.18,2.18,0,0,1,1.68-.72,2.64,2.64,0,0,1,1.08.24,24.25,24.25,0,0,0,3.84,1.32,17.85,17.85,0,0,0,4.32.48q6.66,0,6.66-4.26a2.27,2.27,0,0,0-1.53-2.1,31.33,31.33,0,0,0-5-1.62,45.27,45.27,0,0,1-5.85-1.74,10.29,10.29,0,0,1-4-2.73,6.94,6.94,0,0,1-1.65-4.83,8.65,8.65,0,0,1,3-6.84q3-2.64,8.67-2.64a25,25,0,0,1,8.7,1.5,2.25,2.25,0,0,1,1.29.9,2.41,2.41,0,0,1,.45,1.38,2.35,2.35,0,0,1-.69,1.68,2.27,2.27,0,0,1-1.71.72,3.37,3.37,0,0,1-.78-.12,23,23,0,0,0-6.84-1.08,9.37,9.37,0,0,0-5.07,1.17,3.49,3.49,0,0,0-1.83,3,2.77,2.77,0,0,0,1.68,2.64,24,24,0,0,0,5.22,1.62,50,50,0,0,1,5.76,1.77,9.52,9.52,0,0,1,3.81,2.73,7.41,7.41,0,0,1,1.59,5,7.93,7.93,0,0,1-3,6.36q-3,2.52-8.55,2.52A22.32,22.32,0,0,1,483.29,221.41Z"/><path d="M518.51,222.13a13.46,13.46,0,0,1-5.37-5.61,19.21,19.21,0,0,1,0-16.62,13.46,13.46,0,0,1,5.37-5.61,17.44,17.44,0,0,1,16.14,0,13.65,13.65,0,0,1,5.4,5.61,18.94,18.94,0,0,1,0,16.62,13.65,13.65,0,0,1-5.4,5.61,17.44,17.44,0,0,1-16.14,0ZM531.32,218a9.16,9.16,0,0,0,3.72-3.6,12,12,0,0,0,1.47-6.24A11.88,11.88,0,0,0,535,202a9,9,0,0,0-3.72-3.57,10.52,10.52,0,0,0-4.71-1.11,10.64,10.64,0,0,0-4.77,1.11,8.78,8.78,0,0,0-3.69,3.57,12.08,12.08,0,0,0-1.44,6.18,12.21,12.21,0,0,0,1.44,6.24,9,9,0,0,0,3.69,3.6,10.41,10.41,0,0,0,4.77,1.14A10.29,10.29,0,0,0,531.32,218Z"/><path d="M572.15,223.09a3.66,3.66,0,0,1-1.32-1.8l-8.52-25a3.23,3.23,0,0,1-.18-1,2.66,2.66,0,0,1,2.7-2.7,2.74,2.74,0,0,1,1.53.45,2.21,2.21,0,0,1,.93,1.17l7,23.1,7-22.56a3.08,3.08,0,0,1,5.88,0l7,22.56,7-23.1a2.21,2.21,0,0,1,.93-1.17,2.74,2.74,0,0,1,1.53-.45,2.66,2.66,0,0,1,2.7,2.7,3.23,3.23,0,0,1-.18,1l-8.52,25a3.66,3.66,0,0,1-1.32,1.8,3.6,3.6,0,0,1-4.32,0,4,4,0,0,1-1.38-1.86l-6.36-19.86-6.36,19.86a4,4,0,0,1-1.38,1.86,3.6,3.6,0,0,1-4.32,0Z"/><path d="M614.54,219.94q-4.11-4.17-4.11-11.73a19.56,19.56,0,0,1,1.56-7.86,13.36,13.36,0,0,1,4.8-5.82,13.79,13.79,0,0,1,8-2.22,14,14,0,0,1,7.68,2.07,13.39,13.39,0,0,1,4.92,5.52,17,17,0,0,1,1.68,7.53,2.62,2.62,0,0,1-2.76,2.7H616a9.87,9.87,0,0,0,3.12,6.54q2.64,2.34,7.38,2.34a18,18,0,0,0,4.41-.48,18.32,18.32,0,0,0,3.69-1.38,2.38,2.38,0,0,1,1.08-.24,2.41,2.41,0,0,1,1.68.66,2.18,2.18,0,0,1,.72,1.68,2.59,2.59,0,0,1-1.56,2.22,18.74,18.74,0,0,1-10.5,2.64Q618.65,224.11,614.54,219.94Zm19.11-14.25a9.61,9.61,0,0,0-1.53-4.92,8.26,8.26,0,0,0-3.33-2.91,9.15,9.15,0,0,0-8,0,8.06,8.06,0,0,0-3.3,2.91,9.79,9.79,0,0,0-1.5,4.92Z"/><path d="M647,223a2.61,2.61,0,0,1-.78-1.92V182.17a2.71,2.71,0,0,1,.78-1.95,2.56,2.56,0,0,1,1.92-.81,2.67,2.67,0,0,1,2.76,2.76v38.94a2.56,2.56,0,0,1-.81,1.92,2.71,2.71,0,0,1-1.95.78A2.61,2.61,0,0,1,647,223Z"/><path d="M662,223a2.61,2.61,0,0,1-.78-1.92V182.17a2.71,2.71,0,0,1,.78-1.95,2.56,2.56,0,0,1,1.92-.81,2.67,2.67,0,0,1,2.76,2.76v38.94a2.56,2.56,0,0,1-.81,1.92,2.71,2.71,0,0,1-2,.78A2.61,2.61,0,0,1,662,223Z"/><path d="M676.52,222.7a3.23,3.23,0,0,1-1-2.37V220a3.38,3.38,0,0,1,3.36-3.36h.6a3.38,3.38,0,0,1,3.36,3.36v.36a3.38,3.38,0,0,1-3.36,3.36h-.6A3.23,3.23,0,0,1,676.52,222.7Z"/><path d="M1436.18,538.55l77.52-47c18.41-11.17,39.61-24.18,47-45.7,2.31-6.77,2.61-13.87,2.51-21-.1-7.78-.49-15.7,2-23.18l-2.51.66a44,44,0,0,1,11,41.2,1.51,1.51,0,0,0,2.51,1.46,214.73,214.73,0,0,0,30.92-37.19l-2.74-.36a42.73,42.73,0,0,1-6.36,35.95,40.18,40.18,0,0,1-7.31,7.82,1.51,1.51,0,0,0,.66,2.51c6.19,1.56,12.58,1,18.89,1.24,5.64.2,11.63,1.24,15.63,5.59a17.12,17.12,0,0,1,4.17,13.56,14.75,14.75,0,0,1-8.48,11.41,16.49,16.49,0,0,1-15.8-.78l.54,2.05c2.21-4.23,1.08-9.1-1.77-12.73-3.36-4.28-8.7-5.93-14-6a43.61,43.61,0,0,0-8.67,1c-2.51.51-5.11,1.11-7.11,2.81-3.6,3-3,8.48-.46,12,3.74,5.12,10.63,5.56,16.44,5.64l-1.3-2.26c-5,8.67-17.27,11-25.83,6.6a16.23,16.23,0,0,1-6.15-5.39,1.52,1.52,0,0,0-2.59,0,703,703,0,0,0-67,126.55q-7.59,18.69-14.09,37.8c-.62,1.83,2.27,2.62,2.89.8a701.92,701.92,0,0,1,59.46-129.66q10.17-17.28,21.32-34h-2.59c6.49,9.71,20.84,11.57,30.49,5.63a19.25,19.25,0,0,0,6.67-6.84,1.51,1.51,0,0,0-1.29-2.26c-4.2-.06-9.21-.09-12.63-2.91-2.36-1.94-4.14-6.13-2-8.85,1.3-1.64,3.56-2.15,5.5-2.57a45.5,45.5,0,0,1,7-1c4.28-.25,9,.34,12.32,3.38,2.85,2.66,4.75,7,2.8,10.76a1.54,1.54,0,0,0,.54,2.05c9.7,6.23,24.13,1.7,27.94-9.31a20,20,0,0,0-1.73-16.25c-3.18-5.51-8.81-8.46-15-9.36-7.73-1.12-15.69.34-23.32-1.58l.66,2.5A45.56,45.56,0,0,0,1608.9,418a42.88,42.88,0,0,0-1.66-11.37,1.52,1.52,0,0,0-2.74-.36,211.37,211.37,0,0,1-30.45,36.59l2.5,1.46a47,47,0,0,0-11.76-44.12,1.51,1.51,0,0,0-2.5.66c-4.36,13-.27,26.82-3.34,40-2.43,10.46-8.86,19.29-16.56,26.57-8.16,7.71-17.66,13.86-27.21,19.7q-18.69,11.4-37.45,22.72L1434.67,536c-1.65,1-.15,3.6,1.51,2.59Z"/><path d="M802.53,107.11c-11.47-3.09-23.21.48-32.42,7.65-10.23,8-16.15,19.81-19.48,32.12-3.86,14.31-4.94,29.45-5.91,44.18-1.12,16.9-1.39,33.85-1.3,50.79.17,33.43,1.67,66.84.91,100.27-.72,31.82-3.13,63.58-6.47,95.22-6.75,63.8-17.32,127.11-26.06,190.65-8.55,62.18-15.47,124.83-14.86,187.68a664.43,664.43,0,0,0,7,92.4c2.23,14.78,4.44,30,8.74,44.37,3.64,12.12,10.7,21.16,22.47,26.21,13.19,5.66,28.2,7.82,42.17,10.77q23.68,5,47.55,9.15,47.42,8.23,95.31,13.33c64.82,7,130,10.14,195.2,10.84,65.49.7,131-1,196.4-3.77,32.42-1.35,64.83-3,97.24-4.62,15.52-.8,31.44-.69,46.85-2.75,11.73-1.58,21.41-7.05,26.86-17.81s6.37-23.29,7.41-35.16q2.18-25,3.5-50,2.68-50.5,1.88-101.13-.39-24.62-1.6-49.21c-.1-1.92-3.1-1.93-3,0a1478.9,1478.9,0,0,1-3.32,195c-1.09,13-1.47,27.14-7.46,39-7,13.87-20.45,16.41-34.74,17.18q-47.25,2.55-94.52,4.78c-63.12,3-126.29,5.27-189.48,5.62-63,.34-126-1.24-188.75-6.1-63-4.87-125.82-13-187.75-25.81-14.44-3-29.38-5.48-43.41-10.1-6.44-2.12-12.74-5.15-17.45-10.16-4.89-5.19-7.44-12-9.24-18.8-7.8-29.43-11.21-60.55-13.29-90.86-4.16-60.65,0-121.53,7.06-181.81C715.79,614.94,726,554.08,734.13,493c8.2-61.39,14-123,13.35-185-.35-32.73-1.76-65.47-.68-98.2.53-15.95,1.45-32,3.83-47.82,2.11-14.05,6-29,15.79-39.69,8.87-9.7,22.2-15.76,35.31-12.24a1.5,1.5,0,0,0,.8-2.89Z"/><path d="M1597.79,494.27a5.2,5.2,0,0,0,.2-1.92,7.32,7.32,0,0,1-.18-1.91c.08-.4,0-.46.45-.32s1,.87,1.21,1.39a13.94,13.94,0,0,0,1.65,3.24,6.06,6.06,0,0,0,3.66,2c2.83.5,5.8.08,8.66.29a36.85,36.85,0,0,1,9.75,2,24.89,24.89,0,0,1,13,10.15c2.7,4.48,3.38,9.8,4,14.9s1.23,10.3,3.64,14.9,6.89,7.8,11.92,9.42c5.26,1.69,10.85,2,16.28,2.82a95,95,0,0,1,19,5.06q2.28.87,4.51,1.86l1.05.47s1,.63.73.14c.17.35-.69,1.83-.85,2.18a37.46,37.46,0,0,1-4,7,48.78,48.78,0,0,1-12.28,11.48c-10.78,7.21-23.45,10.68-35.72,14.44-12.9,4-25.81,8.82-39.36,10-1.64.14-3.27.23-4.91.26a9,9,0,0,1-1.67,0c-.29-.32-.06-2.24-.06-2.7a36.5,36.5,0,0,1,1.53-9.79,42.74,42.74,0,0,1,3.85-8.63,29.65,29.65,0,0,0,3.77-8.95,45,45,0,0,0,.4-9.7,26,26,0,0,0-1.46-8.93c-2.24-5.52-7.88-8.12-11.71-12.35a30.1,30.1,0,0,1-5-32.63,31,31,0,0,1,4.62-7.14c1.26-1.45-.86-3.58-2.13-2.12a33.22,33.22,0,0,0-5.6,34.67,35.79,35.79,0,0,0,11.18,14c2.36,1.88,4.76,3.86,5.89,6.75,1.21,3.06,1.18,6.48,1.25,9.72.07,3.53,0,7.06-1.34,10.37s-3.33,6-4.74,9.15a38.69,38.69,0,0,0-3,9.8,41.87,41.87,0,0,0-.51,4.87c-.06,1.55-.35,3.67.35,5.09s2.06,1.52,3.41,1.53c1.8,0,3.59-.09,5.38-.23a90.28,90.28,0,0,0,10.34-1.47,193.69,193.69,0,0,0,20.89-5.71c13.33-4.21,27.26-7.57,39.71-14.08,10.42-5.45,19.9-13.76,24.27-24.92.54-1.36.85-2.78-.39-3.87s-3.16-1.6-4.62-2.21a93.68,93.68,0,0,0-9.93-3.53,124.36,124.36,0,0,0-19.14-3.68c-5.45-.72-11.54-1.66-15.81-5.41s-5.49-9.06-6.27-14.32-1.08-10.87-3-16a25.76,25.76,0,0,0-11.16-13c-5.78-3.42-12.59-4.74-19.25-4.8-1.45,0-2.93.14-4.37,0a3.46,3.46,0,0,1-3.14-2.21,9.28,9.28,0,0,0-1.89-3.37,4.18,4.18,0,0,0-3.7-1.17,3.13,3.13,0,0,0-2.27,2.43c-.28,1.3.38,2.64,0,3.9-.57,1.85,2.33,2.64,2.89.8Z"/><path d="M1630.31,606.2a6.16,6.16,0,0,0,.26,2.17l.09.43c0-.18,0,.24,0,.28s-.06.47,0,.14c0,.13-.07.25-.1.38s.06-.08,0,.07-.12.23-.19.34l-.18.27c.18-.24-.07.07-.11.12-.19.2-.4.38-.6.57s0,0-.09.08l-.35.25a18.83,18.83,0,0,1-2.89,1.58,6.64,6.64,0,0,1-1.8.52c.22,0-.26,0-.25,0a3.77,3.77,0,0,1-.48,0c.24,0-.22-.06-.24-.06s-.42-.17-.25-.09a1.56,1.56,0,0,0-2.06.54,1.51,1.51,0,0,0,.54,2.05,6.39,6.39,0,0,0,5,.07,18.61,18.61,0,0,0,3.92-2,7.14,7.14,0,0,0,2.83-3.25,4.29,4.29,0,0,0,.23-2.07,10.55,10.55,0,0,1-.32-2.37,1.5,1.5,0,0,0-1.5-1.5,1.54,1.54,0,0,0-1.5,1.5Z"/><path d="M1665.24,490A41.81,41.81,0,0,0,1697,527.6a107.9,107.9,0,0,0,18,2.34c1.93.14,1.92-2.86,0-3-9.49-.69-19.32-1.48-27.71-6.4a39.66,39.66,0,0,1-15.79-17.62,37,37,0,0,1-3.28-12.94c-.13-1.91-3.13-1.93-3,0Z"/><path d="M1563,550.12c4.51,7.62,4.17,17,1.38,25.2-3.05,8.9-8.83,16.56-14.39,24-1.16,1.54,1.45,3,2.59,1.51,8.82-11.82,18.34-25.19,16.7-40.76a28.09,28.09,0,0,0-3.69-11.48,1.5,1.5,0,0,0-2.59,1.51Z"/><path d="M1683.43,487.26c3.34,12.87,13,25.09,27.29,25.33a21,21,0,0,0,10.84-2.75,1.5,1.5,0,0,0-1.52-2.59c-6.71,3.88-15.27,2.65-21.49-1.64-6.43-4.43-10.3-11.74-12.23-19.15-.48-1.87-3.37-1.07-2.89.8Z"/><path d="M1543.43,558.69a45,45,0,0,1-15.52,29.6c-1.47,1.26.66,3.37,2.12,2.13a48.08,48.08,0,0,0,16.4-31.73c.18-1.92-2.82-1.91-3,0Z"/><path d="M1086.05,253.64c-6.78-3.32-14.16-4.77-21.43-6.59-6.57-1.64-13.33-3.71-18.73-8-4.78-3.77-8.1-9.4-8-15.62.12-5.47,3.42-10.08,8.82-11.33,5.11-1.18,11.09.7,13.76,5.39a1.5,1.5,0,0,0,2.59-1.51c-2.76-4.86-8.37-7.39-13.85-7.2a14.36,14.36,0,0,0-13.33,9.26c-2.37,6.26-.4,13.68,3.58,18.84,4.53,5.87,11.54,9.21,18.45,11.4,8.81,2.78,18.21,3.81,26.58,7.91,1.73.84,3.25-1.74,1.51-2.59Z"/><path d="M1070.32,214.68A877.74,877.74,0,0,1,1173.85,165c17.43-7,35.09-13.7,53-19.29,7.87-2.45,16.46-4.62,24.74-3.28a24.37,24.37,0,0,1,11.16,4.8c2.92,2.27,5.46,5,8.49,7.12a15.41,15.41,0,0,0,9.88,3.1c4.62-.29,9.1-2.31,13.41-3.88q13.25-4.85,26.18-10.45,13.17-5.72,26-12.2c4.31-2.19,8.54-4.78,13-6.55a19.06,19.06,0,0,1,13.57-.21c8.73,2.84,17.28,6.54,25.7,10.18q12.3,5.31,24.3,11.3a490.74,490.74,0,0,1,46.57,26.52,482.51,482.51,0,0,1,44,32c12.21,10,28,22.78,25.34,40.56a19.64,19.64,0,0,1-4.65,10.19c-1.28,1.44.83,3.57,2.12,2.12,5-5.64,6.52-13.21,5.42-20.56-1.21-8.06-5.67-15.06-11.11-21-6-6.54-13.19-12.09-20.14-17.61q-10.8-8.58-22.07-16.56a490,490,0,0,0-96.64-53.11q-6.29-2.58-12.65-5c-4.17-1.58-8.49-3.4-13-3.36s-8.57,1.86-12.45,3.84c-4.41,2.26-8.77,4.59-13.21,6.78q-13.47,6.68-27.36,12.46c-9,3.78-18.25,7.61-27.63,10.49-4.8,1.47-8.94,1.23-13.08-1.69-3.15-2.22-5.77-5.12-8.87-7.42-6.5-4.81-14.67-5.87-22.53-5-8.67,1-17,3.91-25.17,6.72q-14.1,4.81-28,10.11a878.65,878.65,0,0,0-106.69,48.9q-6.36,3.45-12.66,7a1.5,1.5,0,0,0,1.51,2.59Z"/><path d="M1361,151.94a136.38,136.38,0,0,1-21.81,21.15c-2,1.57-4.1,3.07-6.21,4.52-1.83,1.25-4.08,2.33-5.52,4-1.71,2-1.19,4.36,0,6.54a37.38,37.38,0,0,0,3.65,5.49,23.33,23.33,0,0,0,10.25,7.68,19,19,0,0,0,13.54-.71c8.58-3.52,15.75-10.86,20.69-18.56,5.5-8.57,8.54-18.87,7.35-29.06-.22-1.9-3.23-1.92-3,0a41.09,41.09,0,0,1-4.93,24.13,49.45,49.45,0,0,1-17,18.51c-3.76,2.34-8.14,4-12.63,3.57a17.24,17.24,0,0,1-10.2-5.42,29.22,29.22,0,0,1-3.64-4.57c-.89-1.37-3.11-4-1.86-5.63a9,9,0,0,1,2.23-1.73q1.56-1,3.09-2.07,2.88-2,5.66-4.13a139.18,139.18,0,0,0,22.43-21.64c1.22-1.48-.89-3.61-2.12-2.12Z"/><path d="M1456.36,183.79c12.3,10.73,17.29,27.26,17.37,43.16a123.45,123.45,0,0,1-3.47,27.79c-.88,3.89-1.69,8-3.84,11.44s-5.73,5.15-9.36,6.58a121.89,121.89,0,0,1-29.52,7.55c-1.89.23-1.91,3.24,0,3a124.91,124.91,0,0,0,27.7-6.66c4-1.45,8.16-2.94,11.28-5.87s4.56-7,5.6-10.93c4.66-17.81,7.09-37.54,1.1-55.34a52.23,52.23,0,0,0-14.74-22.84c-1.45-1.26-3.58.85-2.12,2.12Z"/><path d="M1215.63,186.34c4.36,9.16,1.67,20.8-6,27.33-1.47,1.25.66,3.36,2.12,2.12,8.76-7.45,11.39-20.65,6.48-31-.83-1.74-3.42-.22-2.59,1.52Z"/><path d="M1232.36,180.2a31.8,31.8,0,0,0,25.83-15.91,1.5,1.5,0,0,0-2.59-1.51,28.75,28.75,0,0,1-23.24,14.42c-1.92.1-1.93,3.1,0,3Z"/><path d="M1149.52,167.39a25.71,25.71,0,0,1-6-9.51c-1-2.92-2.48-7.74.14-10.26,2.44-2.34,6.47-.75,9,.55a44.79,44.79,0,0,1,8.82,5.83c2.84,2.43,5.41,5.5,5.8,9.35.19,1.91,3.19,1.93,3,0a16.76,16.76,0,0,0-5.58-10.48,45.36,45.36,0,0,0-10.36-7.21c-3.4-1.75-8-3.37-11.59-1.13-4,2.49-3.91,7.58-2.91,11.63a28.91,28.91,0,0,0,7.58,13.35,1.5,1.5,0,0,0,2.12-2.12Z"/><path d="M1515.1,474.86a381.81,381.81,0,0,1-10.81-65.46,386.08,386.08,0,0,1,.63-66.28q1.78-18.67,5.43-37.1c.37-1.89-2.52-2.69-2.89-.8a385.93,385.93,0,0,0-2.83,133.3q2.86,18.74,7.58,37.14c.47,1.86,3.37,1.07,2.89-.8Z"/><path d="M1236.39,118.72q-80.78-10-162.09-14.84T911.6,99.53q-45.63.25-91.24,2.16c-1.92.08-1.93,3.08,0,3q81.33-3.39,162.76-1.54t162.52,9q45.46,4,90.75,9.61c1.91.24,1.9-2.77,0-3Z"/><path class="cls-2" d="M1330.63,146.58a388.13,388.13,0,0,0-81.93,82.68q-2.15,2.94-4.25,5.93c-1.3,1.85-2.66,3.79-3,6.09-.7,4.75,3.45,7.71,6.81,10.18l27.19,20,53.94,39.6,53.94,39.6,6.74,4.95a1.49,1.49,0,0,0,1.51,0q23.94-12.07,46.72-26.3T1482.22,299q12-9.07,23.46-18.76c1.48-1.25-.65-3.36-2.12-2.12q-20.37,17.15-42.23,32.4t-44.92,28.37q-13,7.41-26.34,14.14h1.51l-52.67-38.67-52.68-38.68-26.55-19.49-6.53-4.79c-2-1.48-4.13-2.87-6-4.51-1.59-1.37-3.14-3.12-2.68-5.38s2.13-4.1,3.38-5.87a387,387,0,0,1,78.63-82.1q2.82-2.19,5.69-4.32c1.53-1.14,0-3.74-1.52-2.59Z"/></svg>