<svg id="Layer_1" data-name="Layer 1" xmlns="http://www.w3.org/2000/svg" viewBox="0 0 1920 1080"><defs><style>.cls-1{fill:#e03838;}.cls-1,.cls-2{opacity:0.5;}.cls-2{fill:#39b54a;}.cls-3{fill:#4d4d4d;}</style></defs><path class="cls-1" d="M587.26,390.94c-16.83-5.35-82.63-46.56-174.67-41.34s-172.56,5.9-197.51,79-86.84,107.22-43.88,154.3,96,80.7,125.89,84.87,91.4,25.7,101,23.43,188-8.31,188.58-71.09S563.25,510.93,531.78,488s-49.7-79.28,0-69.25,98.48,9.77,91.07-4.09S587.26,390.94,587.26,390.94Z"/><rect class="cls-2" x="1263.8" y="374.18" width="437.92" height="263.17" transform="translate(212.87 -411.7) rotate(17.01)"/><path class="cls-3" d="M686.22,541.17c-8.75,10.49-22.65,14.63-33.77,21.93a48.78,48.78,0,0,0-8.77,7.18c-1.32,1.4.8,3.53,2.12,2.12,9.38-10,23.19-13.91,34.19-21.64a42.7,42.7,0,0,0,8.35-7.47c1.23-1.48-.89-3.61-2.12-2.12Z"/><path class="cls-3" d="M685,538.79c-19.2.7-38.41,1.29-57.63,1.38q-8.21,0-16.4,0l1.44,1.1c-3.78-9.32-11.7-16.7-20.21-21.76a1.52,1.52,0,0,0-2.26,1.3c0,2.08,1.49,6.29,4.42,4.76a2.28,2.28,0,0,0,1-2.67c-.42-1.53-1.93-2.6-3.2-3.39a1.51,1.51,0,0,0-2.26,1.3q0,8.38-.07,16.79c0,3.08.76,7-.88,9.74s-5.72,2.65-8.43,1.76c-3.46-1.14-6.52-3.36-9.59-5.28-3.36-2.09-6.92-4.15-10.94-4.48-1.25-.1-1.72,1.32-1.3,2.26A183.53,183.53,0,0,1,569.48,572c.48,1.86,3.38,1.07,2.9-.8A189.69,189.69,0,0,0,561.32,540L560,542.29c3.65.3,7,2.53,10,4.43,3.27,2,6.56,4.32,10.31,5.39,3.38,1,7.7.72,10.25-2s2.43-6.88,2.32-10.41c-.19-6.3,0-12.64,0-19l-2.26,1.29a8,8,0,0,1,1.73,1.44c.26.28,0,.14.09.08s.28-.59.61-.76.38,0,.4,0-.14-.14-.13-.11a4.67,4.67,0,0,1-.44-2l-2.26,1.29c7.78,4.62,15.37,11.42,18.84,20a1.57,1.57,0,0,0,1.45,1.1c19.17.2,38.34-.16,57.51-.76,5.51-.17,11-.37,16.52-.57,1.93-.07,1.94-3.07,0-3Z"/><path class="cls-3" d="M649.32,586.55q-6.42,28.31-12.85,56.63c-2.1,9.26-4.26,18.61-4.46,28.14a75.83,75.83,0,0,0,4.22,25.77,102.08,102.08,0,0,0,5.9,13.83,12.33,12.33,0,0,0,3.61,4.85c1.53,1.08,3.62,1.58,5.22.37s0-3.75-1.51-2.59c-1.17.88-2.66-.62-3.33-1.56a35,35,0,0,1-2.73-5.27A93.76,93.76,0,0,1,638.7,695,72.36,72.36,0,0,1,635,670.59c.29-9,2.34-17.85,4.33-26.61s4-17.75,6-26.62l6.82-30c.42-1.88-2.47-2.68-2.9-.79Z"/><path class="cls-3" d="M680.76,543.77a3.51,3.51,0,0,0-.42-3,4.6,4.6,0,0,0-2.57-2,1.52,1.52,0,0,0-1.9,1.45c.12,1.79.47,3.74,1.93,5a4.14,4.14,0,0,0,2.62,1,3.79,3.79,0,0,0,2.25-.62,2.69,2.69,0,0,0,1.06-1.38,2.63,2.63,0,0,0-.21-1.83,1.5,1.5,0,0,0-2-.54,1.49,1.49,0,0,0-.69.9,1.7,1.7,0,0,0,.15,1.15l0,.05-.15-.36a2.13,2.13,0,0,1,.07.27l-.06-.4a.67.67,0,0,1,0,.2l.06-.4a.86.86,0,0,1-.06.23l.15-.36a1.48,1.48,0,0,1-.13.21l.24-.3-.21.2.3-.23a2.06,2.06,0,0,1-.41.23l.36-.15a3.45,3.45,0,0,1-.65.17l.4-.06a3.31,3.31,0,0,1-.77,0l.4,0a2.52,2.52,0,0,1-.65-.18l.36.16a2.22,2.22,0,0,1-.49-.3l.3.24a4,4,0,0,1-.61-.62l.23.31a4.35,4.35,0,0,1-.48-.84l.16.36a6.2,6.2,0,0,1-.4-1.52l.06.4c-.05-.33-.08-.66-.1-1l-1.9,1.45.33.11-.36-.15a3.4,3.4,0,0,1,.63.38l-.3-.24a4.08,4.08,0,0,1,.55.55l-.23-.3a2.61,2.61,0,0,1,.37.65l-.15-.36a2.19,2.19,0,0,1,.16.57l-.06-.4a1.7,1.7,0,0,1,0,.45l.06-.4a2.66,2.66,0,0,1-.1.38,1.49,1.49,0,0,0,.15,1.15,1.52,1.52,0,0,0,.9.69,1.49,1.49,0,0,0,1.15-.15,1.65,1.65,0,0,0,.69-.89Z"/><path class="cls-3" d="M622.8,593.49c-8.43,2.17-17.15,4.39-24.67,8.92a32.26,32.26,0,0,0-9.4,8.43,37.82,37.82,0,0,0-5.5,11.51A104.86,104.86,0,0,0,579,651.87,114.82,114.82,0,0,0,582.84,682c2.86,10.86,7.11,21.81,5.72,33.23-.23,1.92,2.77,1.9,3,0,1.19-9.75-1.67-19.32-4.32-28.6a124.69,124.69,0,0,1-5.13-29,110.31,110.31,0,0,1,2.79-29.87c1.91-8.15,5.19-16,12.18-21,7.75-5.61,17.4-8,26.52-10.31,1.87-.48,1.08-3.38-.8-2.9Z"/><path class="cls-3" d="M555.61,709.18c12.24,6.42,25.83,13.1,34,24.72a32.52,32.52,0,0,1,4.35,8.42,25.61,25.61,0,0,1,1.11,9.12,7.49,7.49,0,0,0,.73,4c.86,1.49,2.37,2.13,3.9,2.74a22.9,22.9,0,0,1,7.69,5,15.64,15.64,0,0,1,4.38,7.32c.71,3.28-3.15,3.69-5.53,3.77-3.67.14-7.38-.18-11-.3-4.15-.15-8.29-.29-12.43-.45q-11.93-.43-23.84-.93c-3.89-.16-7.81-.18-11.68-.52-1.69-.15-3-.59-3.85-2.16a38.06,38.06,0,0,1-1.94-4.94,129.34,129.34,0,0,1-7.58-49.85c.09-1.93-2.91-1.92-3,0a131.31,131.31,0,0,0,6.46,47.09q1,2.91,2,5.77a16.5,16.5,0,0,0,2.25,4.69c2.37,2.9,6.73,2.47,10.09,2.61q12.79.56,25.59,1t25.59.91c3,.1,6.42.26,9.17-1.23,3.14-1.71,3.2-5.1,2-8.11-2.47-6.14-7.75-10.22-13.74-12.65a3.61,3.61,0,0,1-1.93-1.3,4.19,4.19,0,0,1-.33-2.16A37.36,37.36,0,0,0,598,747a29.1,29.1,0,0,0-2.75-9.39c-6.42-13.43-20.33-21.49-32.93-28.23q-2.58-1.38-5.19-2.74c-1.7-.89-3.22,1.69-1.51,2.59Z"/><path class="cls-3" d="M643.66,717.54a28.86,28.86,0,0,1-10.78,15.15,36.91,36.91,0,0,1-9,5c-3.77,1.42-7.73,2.22-11.44,3.8a1.51,1.51,0,0,0-.54,2,1.54,1.54,0,0,0,2,.54c4-1.68,8.22-2.42,12.18-4.08a39.69,39.69,0,0,0,9.21-5.37,31.7,31.7,0,0,0,11.27-16.26,1.5,1.5,0,0,0-2.9-.79Z"/><path class="cls-3" d="M645,699.38l18.16,10.3c2.86,1.62,5.74,3.22,8.58,4.87a33.63,33.63,0,0,1,7.1,5.13c3.95,4,4.93,9.4,4.48,14.81A65.36,65.36,0,0,1,680,749.28c-1.72,5.21-4.51,9.93-9.62,12.37a1.52,1.52,0,0,0-.69,1.69c1,3,4.5,2.53,6.88,3.56,2,.84-.67,2.13-1.66,2.36a36.16,36.16,0,0,1-7,.49,130.42,130.42,0,0,1-44.59-6.4c-1.84-.6-2.63,2.29-.8,2.89a133.37,133.37,0,0,0,31,6.15,135.9,135.9,0,0,0,16,.31c3.48-.14,10.87-.06,10.74-5.25-.05-2.08-1.92-3.19-3.71-3.68-.86-.24-1.74-.37-2.59-.58-.36-.09-1.3-.22-1.43-.64l-.69,1.69c4.9-2.35,8.05-6.67,10.05-11.6A66.07,66.07,0,0,0,686,737c.78-5.56.54-11.46-2.57-16.33-3.53-5.52-9.81-8.49-15.32-11.62l-21.63-12.26a1.5,1.5,0,0,0-1.51,2.59Z"/><path class="cls-3" d="M536.6,691.85A117,117,0,0,1,541.45,665c.57-1.85-2.33-2.64-2.89-.8a120.68,120.68,0,0,0-5,27.69c-.11,1.93,2.89,1.92,3,0Z"/><path class="cls-3" d="M513.39,415.4c6.56-1.62,18.51-5.56,15.58-14.71-1.41-4.4-5.55-7.12-9.74-8.48a38,38,0,0,0-14.52-1.31c-17.93,1.41-36.65,13-38.3,32.36A28.12,28.12,0,0,0,468.28,436a22.23,22.23,0,0,0,3.65,6.24,28.71,28.71,0,0,0,5.8,4.91,134.61,134.61,0,0,1,23,20.41c7.05,7.78,14,15.9,19.35,25a71.9,71.9,0,0,1,9.16,25.53,73.38,73.38,0,0,1-11.46,51.17q-1.9,2.88-4,5.58c-1.19,1.5.92,3.64,2.12,2.13a77.79,77.79,0,0,0,17.19-48.27,73.8,73.8,0,0,0-4.39-25c-3.26-9-8.31-17-14.15-24.47a205.81,205.81,0,0,0-19.72-22.11,114.54,114.54,0,0,0-11.51-9.71c-3.93-2.88-8.33-5.24-10.85-9.57-4.32-7.43-4-16.95-.2-24.51,3.95-7.85,11.27-13.41,19.39-16.49a47.26,47.26,0,0,1,13.06-3,35.07,35.07,0,0,1,14.12,1.34c3.55,1.23,8.27,4.44,7.47,8.83-.66,3.6-4.79,5.55-7.85,6.69a51.86,51.86,0,0,1-5.86,1.74c-1.87.47-1.08,3.36.8,2.9Z"/><path class="cls-3" d="M515.13,417.46a123,123,0,0,0,47.3-10.91c7-3.2,14.14-7,19.62-12.48a27.55,27.55,0,0,0,8.06-20.34c-.23-13.26-7.6-25.35-16.93-34.31-10.55-10.13-23.83-17-37.7-21.41-16-5.08-32.91-7.05-49.66-7.64a412.31,412.31,0,0,0-52.71,1.8,471,471,0,0,0-102,21.22c-27.21,8.89-55.71,20.5-76.28,41.11-9.78,9.8-17,21.72-20,35.33-3.56,16.4-1.64,33.26-1.76,49.87-.12,17.53-2.07,35.37,2.18,52.6,3.81,15.46,12.5,29.18,22.13,41.65,9.53,12.32,20,24,30.62,35.42,10.1,10.84,20.85,21.13,32.9,29.82a136.73,136.73,0,0,0,42.16,20.59c16.63,4.78,33.83,6.71,51,8.45,15.9,1.61,32,3.94,45.19,13.66,10.73,7.89,18.14,19.31,23.8,31.17,2.7,5.68,5,11.53,7.26,17.41.67,1.78,3.57,1,2.89-.8-4.45-11.75-9.33-23.51-16.58-33.85-7.48-10.68-17.4-19.25-29.6-24.07-15.28-6-32.24-6.2-48.34-8.17-16.59-2-33.27-5.14-48.78-11.52-27.68-11.37-49.11-32.61-68.67-54.61-10.52-11.83-21.18-23.73-29.84-37a104.11,104.11,0,0,1-10.64-20.53,85.34,85.34,0,0,1-4.95-24.49c-.54-8.6-.19-17.22.07-25.82.25-8.37.18-16.71,0-25.08-.42-16.14-.55-32.9,6.57-47.8C254.21,372,280.27,357,304.46,346.49a361.06,361.06,0,0,1,44.42-15.41,468.66,468.66,0,0,1,49.92-11.36,459.44,459.44,0,0,1,51.26-5.83c16.88-.95,33.9-1.16,50.75.43,16.05,1.52,32.33,4.79,47,11.64,12.31,5.75,24,14.12,31.69,25.53s11.69,28.09,1.53,39.3c-5.16,5.69-12.32,9.5-19.18,12.73a114.79,114.79,0,0,1-23.08,7.9,123.22,123.22,0,0,1-23.65,3c-1.93.06-1.94,3.06,0,3Z"/><path class="cls-3" d="M657.26,581.19a209,209,0,0,1,17.83,30.91c2.64,5.49,5.13,11,7.57,16.62s5.07,10.89,6.88,16.56c1.66,5.23,2.31,12.28-2.53,16.1h2.12a66.24,66.24,0,0,0-29.42-19c-1.85-.57-2.64,2.33-.8,2.9A63.08,63.08,0,0,1,687,663.51a1.54,1.54,0,0,0,2.12,0c4.15-3.28,5.13-9.16,4.44-14.12-.86-6.16-3.88-11.92-6.32-17.58-5-11.57-10.13-23.1-16.19-34.15a180,180,0,0,0-11.21-18c-1.11-1.56-3.72-.06-2.59,1.51Z"/><path class="cls-3" d="M553.26,624c-13.79.14-27.85-1.92-40.61-7.35C501.26,611.76,491,604,485.2,592.85a48.2,48.2,0,0,1-5.28-20l-2.56,1.06a138.86,138.86,0,0,0,13.91,10.62,65.39,65.39,0,0,0,17.31,7.87c13,3.71,27.08,3.43,39.72,8.49,4.5,1.8,10.77,5.08,10.75,10.7a1.5,1.5,0,0,0,3,0c0-5.21-4-9-8.21-11.36-5.55-3.16-11.89-4.66-18.11-5.81-7.1-1.31-14.28-2.14-21.34-3.67a64.57,64.57,0,0,1-18.6-7,112.88,112.88,0,0,1-16.3-12,1.52,1.52,0,0,0-2.57,1.06A50.31,50.31,0,0,0,493.24,608c9.56,8.66,22,13.76,34.45,16.47A115,115,0,0,0,553.26,627a1.5,1.5,0,0,0,0-3Z"/><path class="cls-3" d="M592.19,558a5,5,0,0,1,3.58-2.19,4.89,4.89,0,0,1,4.08,1.57c-.07-.11-.05-.09,0,.06a.32.32,0,0,1,0-.14c0-.12-.16.29-.15.28a4.14,4.14,0,0,1-.67.9c-.62.69-1.29,1.32-1.84,2.07a4.57,4.57,0,0,0-.18,5.69,1.5,1.5,0,1,0,2.13-2.12c.06.07,0-.08,0-.06l-.06-.21s0,.2,0,0,0-.52,0-.29a3.58,3.58,0,0,1,.14-.54c.08-.25-.08.15,0-.09l.11-.22a3.45,3.45,0,0,1,.25-.41,8.38,8.38,0,0,1,.67-.79c1.16-1.23,2.79-2.75,2.54-4.62s-2.31-3-3.85-3.62a7.72,7.72,0,0,0-4.89-.19,8.2,8.2,0,0,0-4.48,3.38,1.5,1.5,0,1,0,2.59,1.52Z"/><path class="cls-3" d="M601.48,549.84a5.07,5.07,0,0,1,1-3.26,4.77,4.77,0,0,1,3.06-1.8,3,3,0,0,1,.74-.06h.49l.25,0c-.17,0,0,0,.08,0l.41.11s-.2-.14-.17-.14a1.31,1.31,0,0,0,0,.27,3.45,3.45,0,0,1,0,.56c0,1.52-.52,3-.27,4.6a4.21,4.21,0,0,0,2.88,3.51,1.5,1.5,0,0,0,.79-2.89c-.06,0-.27-.09,0,0l-.17-.08-.16-.11c.12.09.18,0,0,0s-.17-.18,0,0l0-.05c0-.09-.25-.48-.14-.23a4.18,4.18,0,0,1-.25-.92c0,.27,0,0,0-.14s0-.4,0-.6c.12-1.72.87-3.86-.18-5.51s-3.53-1.55-5.19-1.22a7.7,7.7,0,0,0-4.26,2.5,8.08,8.08,0,0,0-1.94,5.44,1.53,1.53,0,0,0,1.5,1.5,1.51,1.51,0,0,0,1.5-1.5Z"/><path class="cls-3" d="M602.09,571.49a1.5,1.5,0,0,0,0-3,1.5,1.5,0,0,0,0,3Z"/><path class="cls-3" d="M614.73,555.64a1.5,1.5,0,0,0,0-3,1.5,1.5,0,0,0,0,3Z"/><path d="M1441.2,524.3a143.11,143.11,0,0,1-62.14-66.08l-2.06,2,33.59,23.9L1427.23,496c4.84,3.44,9.87,7.88,15.82,9.16,5.77,1.23,11.24-1.19,16-4.18A101.13,101.13,0,0,0,1473,490.26c8.8-7.88,16.82-16.75,26.67-23.39,9.37-6.33,21.41-11.48,32.91-8.68,9.31,2.28,18.3,10.26,19.54,20.12,1.43,11.46-9,18.77-16.57,25.44a172.89,172.89,0,0,0-52,84.42c-3.13,11.83-5.27,24.5-2.49,36.61a46.36,46.36,0,0,0,14.12,23.64c14,12.75,33.08,18.5,50.85,23.61,22.24,6.39,44.11,13.6,65.38,22.78a487.22,487.22,0,0,1,62.89,32.74A481.78,481.78,0,0,1,1732,769.28q6.58,5.55,13,11.34l1.06-2.56-128.89-8.27-64.23-4.12c-20.71-1.34-41.42-2.77-62-5.23-20.36-2.43-40.68-5.86-60.48-11.28-16.71-4.57-34-11.4-44.72-25.69-18.29-24.3-14-60.09,1.73-84.5,8.58-13.3,20-24.51,30-36.67,9.22-11.15,18-23.64,20.57-38.2a51.09,51.09,0,0,0,.72-10.69,1.54,1.54,0,0,0-1.1-1.45l-88.22-25.68-.4,3a325,325,0,0,1,84.38,3.5c1.89.33,2.7-2.56.79-2.89a328,328,0,0,0-85.17-3.61,1.51,1.51,0,0,0-.4,2.95l88.23,25.67-1.11-1.44c.57,15.54-6.83,29.26-16,41.28-9.6,12.55-20.94,23.66-30.4,36.33-17.77,23.79-25.31,57.83-11.54,85.36,7.53,15.07,21.23,24.77,36.64,30.76a200,200,0,0,0,27.25,8c10.27,2.38,20.64,4.3,31,5.89,42,6.41,84.67,8,127,10.69l130.47,8.38,15.82,1a1.51,1.51,0,0,0,1.06-2.56,487.67,487.67,0,0,0-183-104.33c-19-5.86-39-9.93-56.24-20.17-7.77-4.61-14.82-10.65-19.39-18.54-6.12-10.58-6.58-23-4.6-34.79,3.79-22.54,13.36-44.37,26.13-63.23a168.43,168.43,0,0,1,21.81-26.09c4-3.91,8.33-7.45,12.48-11.21,3.79-3.42,7.39-7.25,9.39-12,3.8-9,.13-18.85-6.71-25.31-7.66-7.26-17.88-9.56-28.11-7.62-24.19,4.57-38.27,26.86-57.06,40.38-4.77,3.43-10.65,7.56-16.82,6.87s-11.66-5.78-16.55-9.26l-33.59-23.9-16.31-11.61c-1.35-1-2.61.84-2,2.05a146.92,146.92,0,0,0,45.58,55.95,144.78,144.78,0,0,0,17.64,11.21c1.7.92,3.22-1.67,1.51-2.59Z"/><path d="M1504.65,771.09,1462.55,813l-12,12a1.5,1.5,0,0,0,2.12,2.12l42.1-41.93,12-12a1.5,1.5,0,0,0-2.12-2.12Z"/><path d="M1509.58,784a259.14,259.14,0,0,0,32.22,40.76q5.12,5.28,10.53,10.25c1.42,1.31,3.54-.81,2.12-2.12a255.44,255.44,0,0,1-34-38.25q-4.31-6-8.26-12.15c-1-1.62-3.64-.12-2.59,1.51Z"/><path d="M1488,491.32c2.25-4.91,5.84-12.25,12.39-11.44,7.67.94,10.32,9.67,12.1,15.92a1.5,1.5,0,0,0,2.89-.8c-2.15-7.55-5.57-16.95-14.61-18.08-8-1-12.52,6.7-15.36,12.89-.79,1.74,1.79,3.27,2.59,1.51Z"/><path d="M1414.44,601.77a85.75,85.75,0,0,1-56.37-21.07c-4-3.48-8.14-7.4-10.1-12.4-2.11-5.38-2-11.63-2.3-17.31q-1.1-18.54-1.1-37.1,0-20.91,1.39-41.79c.1-1.44-2.17-2.1-2.79-.76a41.79,41.79,0,0,1-14.57,17.12,61,61,0,0,1-10.71,5.31,33.1,33.1,0,0,0-10.12,5.88c-10.26,9.43-9.86,25.54-8.8,38.28.8,9.57,1.67,19.13,2.51,28.7.39,4.41.53,9,1.63,13.27a18.81,18.81,0,0,0,6.09,9.82,54.19,54.19,0,0,0,9.64,6,95.81,95.81,0,0,1,9.54,5.84,94.41,94.41,0,0,1,37.1,53.9c.45,1.78.83,3.57,1.17,5.37s3.25,1.09,2.9-.8a96.08,96.08,0,0,0-17.81-40,98,98,0,0,0-15.23-16A109.82,109.82,0,0,0,1318.13,592c-3.24-1.76-6.52-3.64-9-6.46-2.76-3.2-3.6-7.43-4-11.52-1-9.47-1.68-19-2.51-28.47-.66-7.55-1.48-15.14-1-22.73.43-6.41,1.83-13.17,5.83-18.37,4.85-6.31,12.69-7.74,19.34-11.36a44.59,44.59,0,0,0,16.28-15.27,44,44,0,0,0,2.67-4.91l-2.8-.76a630.48,630.48,0,0,0-.42,76.66q.27,4.79.61,9.57a45.68,45.68,0,0,0,1.23,8.63c1.46,5.41,5,9.71,9,13.5a88.71,88.71,0,0,0,61.06,24.31,1.5,1.5,0,0,0,0-3Z"/><path d="M1477.89,632.7a424.38,424.38,0,0,0-35.17,40.49c-2.43,3.18-5.39,6.5-5.69,10.67s2.16,8,4.25,11.3a64.43,64.43,0,0,0,14.81,16.13c12.8,10,28.34,15.44,44.24,18.1,17.91,3,36.36,3.24,54.48,2.77a417.37,417.37,0,0,0,55.8-5.24c2.25-.36,4.5-.75,6.75-1.15,1.89-.33,1.09-3.23-.8-2.89a412.06,412.06,0,0,1-53.7,6c-17.72.8-35.69.78-53.34-1.21-15.94-1.79-31.9-5.81-45.57-14.48a67.82,67.82,0,0,1-16-13.92,55.67,55.67,0,0,1-6-9,12.4,12.4,0,0,1-1.9-6,10,10,0,0,1,2.08-5.27c2.37-3.52,5.11-6.82,7.74-10.14s5.5-6.83,8.33-10.17q8.34-9.86,17.27-19.19,2.27-2.38,4.58-4.72c1.36-1.37-.76-3.5-2.12-2.12Z"/><path d="M1619.22,723.2c-16.67-4.22-34.7-8.87-47-21.75-3.84-4-7-8.65-10.77-12.73-1.32-1.42-3.43.71-2.12,2.12,3.42,3.7,6.33,7.83,9.7,11.57a54.1,54.1,0,0,0,10.2,8.78c7.41,5,15.85,8.26,24.35,10.86,4.89,1.5,9.85,2.78,14.81,4,1.87.48,2.67-2.42.8-2.89Z"/><path d="M1082.45,252.38a18.87,18.87,0,0,1-7.32-7.63,24.39,24.39,0,0,1,0-22.31,18.91,18.91,0,0,1,7.32-7.62,23.33,23.33,0,0,1,22,0,19.16,19.16,0,0,1,7.32,7.64,24.07,24.07,0,0,1,0,22.27,19.12,19.12,0,0,1-7.32,7.65,23.48,23.48,0,0,1-22,0Zm19.38-4.5a14.19,14.19,0,0,0,5.4-5.88,19.9,19.9,0,0,0,0-16.8,14.13,14.13,0,0,0-5.4-5.88,17.24,17.24,0,0,0-16.71,0,14.19,14.19,0,0,0-5.37,5.88,19.9,19.9,0,0,0,0,16.8,14.25,14.25,0,0,0,5.37,5.88,17.24,17.24,0,0,0,16.71,0Z"/><path d="M1126.82,253.58a10.14,10.14,0,0,1-3.72-4.26,13.6,13.6,0,0,1-1.29-5.94v-17a2.55,2.55,0,0,1,.81-1.91,2.72,2.72,0,0,1,2-.79,2.68,2.68,0,0,1,2.7,2.7v16.45q0,7.32,6.6,7.31a9.54,9.54,0,0,0,5.37-1.55,19.28,19.28,0,0,0,4.47-4.21v-18a2.55,2.55,0,0,1,.81-1.91,2.72,2.72,0,0,1,2-.79,2.68,2.68,0,0,1,2.7,2.7v25.75a2.71,2.71,0,0,1-.78,1.95,2.55,2.55,0,0,1-1.92.8,2.75,2.75,0,0,1-2.76-2.75v-2.46a19.9,19.9,0,0,1-4.92,4,12.42,12.42,0,0,1-6.24,1.5A10.37,10.37,0,0,1,1126.82,253.58Z"/><path d="M1159.43,254.05a2.58,2.58,0,0,1-.78-1.92V226.4a2.71,2.71,0,0,1,.78-2,2.57,2.57,0,0,1,1.92-.82,2.78,2.78,0,0,1,2.76,2.77V229q4.2-5.64,9.42-5.65h.3a2.52,2.52,0,0,1,1.89.79,2.66,2.66,0,0,1,.75,1.92,2.42,2.42,0,0,1-.78,1.86,2.81,2.81,0,0,1-2,.72h-.3a10.23,10.23,0,0,0-5.28,1.41,12.16,12.16,0,0,0-4,3.87v18.23a2.53,2.53,0,0,1-.81,1.92,2.71,2.71,0,0,1-2,.78A2.61,2.61,0,0,1,1159.43,254.05Z"/><path d="M1202.69,250.58v1.55a2.53,2.53,0,0,1-.81,1.92,2.71,2.71,0,0,1-2,.78,2.61,2.61,0,0,1-1.92-.78,2.58,2.58,0,0,1-.78-1.92V213.2a2.71,2.71,0,0,1,.78-1.95,2.56,2.56,0,0,1,1.92-.81,2.65,2.65,0,0,1,2.76,2.76v14.7a13.8,13.8,0,0,1,10.26-4.57,14,14,0,0,1,7,1.9,14.34,14.34,0,0,1,5.4,5.52,18.45,18.45,0,0,1,0,17,14.34,14.34,0,0,1-5.4,5.52,14.16,14.16,0,0,1-7,1.88A13.78,13.78,0,0,1,1202.69,250.58Zm16.62-3.37q2.7-2.81,2.7-8t-2.7-8a9.46,9.46,0,0,0-7.14-2.81,11.33,11.33,0,0,0-5.19,1.23,14.82,14.82,0,0,0-4.29,3.27v12.6a14.62,14.62,0,0,0,4.29,3.26,11.34,11.34,0,0,0,5.19,1.24A9.4,9.4,0,0,0,1219.31,247.21Z"/><path d="M1238,254.05a8.49,8.49,0,0,1-3.57-3.14,8.69,8.69,0,0,1-1.32-4.78,8.43,8.43,0,0,1,3.51-7.08q3.51-2.62,10.29-2.63h7.26v-.48c0-2.65-.65-4.54-2-5.7s-3.33-1.74-6.09-1.74a20.38,20.38,0,0,0-4.05.36,32.08,32.08,0,0,0-3.93,1.08,3.27,3.27,0,0,1-.78.11,2.12,2.12,0,0,1-1.56-.65,2.16,2.16,0,0,1-.66-1.62,2.31,2.31,0,0,1,1.56-2.28,26.19,26.19,0,0,1,10.38-2.17,13.55,13.55,0,0,1,7,1.69,10.56,10.56,0,0,1,4.2,4.35,12.65,12.65,0,0,1,1.35,5.79v17a2.53,2.53,0,0,1-.81,1.92,2.73,2.73,0,0,1-2,.78,2.61,2.61,0,0,1-1.92-.78,2.58,2.58,0,0,1-.78-1.92v-1.55a15.06,15.06,0,0,1-11.28,4.55A11,11,0,0,1,1238,254.05Zm12-5a13.85,13.85,0,0,0,4.14-3.21v-5h-6.54q-9.06,0-9.06,4.75A4.45,4.45,0,0,0,1240,249c1,.88,2.61,1.31,4.89,1.31A10.73,10.73,0,0,0,1250,249Z"/><path d="M1269.59,254.05a2.58,2.58,0,0,1-.78-1.92V226.4a2.71,2.71,0,0,1,.78-2,2.55,2.55,0,0,1,1.92-.82,2.78,2.78,0,0,1,2.76,2.77v2.46a20,20,0,0,1,4.92-4,12.53,12.53,0,0,1,6.24-1.5,10.4,10.4,0,0,1,5.73,1.57,10.14,10.14,0,0,1,3.72,4.26,13.59,13.59,0,0,1,1.29,5.93v17a2.53,2.53,0,0,1-.81,1.92,2.71,2.71,0,0,1-1.95.78,2.61,2.61,0,0,1-1.92-.78,2.58,2.58,0,0,1-.78-1.92V235.7q0-7.32-6.6-7.32a9.53,9.53,0,0,0-5.37,1.56,19.6,19.6,0,0,0-4.47,4.19v18a2.53,2.53,0,0,1-.81,1.92,2.71,2.71,0,0,1-2,.78A2.59,2.59,0,0,1,1269.59,254.05Z"/><path d="M1311,253.25a14.34,14.34,0,0,1-5.4-5.52,18.45,18.45,0,0,1,0-17,14.34,14.34,0,0,1,5.4-5.52,13.89,13.89,0,0,1,17.31,2.67V213.2a2.67,2.67,0,0,1,.81-2,2.73,2.73,0,0,1,2-.77,2.59,2.59,0,0,1,1.92.81,2.75,2.75,0,0,1,.78,1.95v38.93a2.66,2.66,0,0,1-2.7,2.7,2.69,2.69,0,0,1-2-.78,2.53,2.53,0,0,1-.81-1.92v-1.55a13.81,13.81,0,0,1-10.26,4.55A14.13,14.13,0,0,1,1311,253.25Zm13-4.45a14.75,14.75,0,0,0,4.29-3.26v-12.6a15,15,0,0,0-4.29-3.27,11.36,11.36,0,0,0-5.19-1.23,9.44,9.44,0,0,0-7.14,2.81q-2.7,2.83-2.7,8t2.7,8a9.38,9.38,0,0,0,7.14,2.83A11.37,11.37,0,0,0,1324,248.8Z"/><path d="M1359.58,254.05a2.58,2.58,0,0,1-.78-1.92V226.4a2.71,2.71,0,0,1,.78-2,2.57,2.57,0,0,1,1.92-.82,2.78,2.78,0,0,1,2.76,2.77v2.46a15,15,0,0,1,4-4,11,11,0,0,1,6.15-1.57,9.39,9.39,0,0,1,5.76,1.8,10.07,10.07,0,0,1,3.42,4.39,12.09,12.09,0,0,1,11-6.19,9.12,9.12,0,0,1,5.61,1.69,10.05,10.05,0,0,1,3.33,4.31,14.53,14.53,0,0,1,1.08,5.53v17.27a2.53,2.53,0,0,1-.81,1.92,2.71,2.71,0,0,1-2,.78,2.61,2.61,0,0,1-1.92-.78,2.58,2.58,0,0,1-.78-1.92V235.94q0-3.9-1.38-5.73t-4.74-1.83a8,8,0,0,0-5.07,1.58,15.69,15.69,0,0,0-3.57,4.17v18a2.53,2.53,0,0,1-.81,1.92,2.71,2.71,0,0,1-2,.78,2.61,2.61,0,0,1-1.92-.78,2.58,2.58,0,0,1-.78-1.92V235.94q0-3.9-1.38-5.73t-4.74-1.83a8,8,0,0,0-5.07,1.58,15.69,15.69,0,0,0-3.57,4.17v18a2.53,2.53,0,0,1-.81,1.92,2.71,2.71,0,0,1-2,.78A2.61,2.61,0,0,1,1359.58,254.05Z"/><path d="M1416.79,254.05a8.49,8.49,0,0,1-3.57-3.14,8.69,8.69,0,0,1-1.32-4.78,8.43,8.43,0,0,1,3.51-7.08q3.51-2.62,10.29-2.63H1433v-.48c0-2.65-.65-4.54-2-5.7s-3.33-1.74-6.09-1.74a20.45,20.45,0,0,0-4.05.36,32.08,32.08,0,0,0-3.93,1.08,3.27,3.27,0,0,1-.78.11,2.12,2.12,0,0,1-1.56-.65,2.2,2.2,0,0,1-.66-1.62,2.31,2.31,0,0,1,1.56-2.28,26.23,26.23,0,0,1,10.38-2.17,13.55,13.55,0,0,1,7,1.69,10.56,10.56,0,0,1,4.2,4.35,12.65,12.65,0,0,1,1.35,5.79v17a2.53,2.53,0,0,1-.81,1.92,2.71,2.71,0,0,1-1.95.78,2.61,2.61,0,0,1-1.92-.78,2.58,2.58,0,0,1-.78-1.92v-1.55a15.06,15.06,0,0,1-11.28,4.55A11,11,0,0,1,1416.79,254.05Zm12-5a13.85,13.85,0,0,0,4.14-3.21v-5h-6.54q-9.06,0-9.06,4.75a4.45,4.45,0,0,0,1.47,3.48c1,.88,2.61,1.31,4.89,1.31A10.73,10.73,0,0,0,1428.82,249Z"/><path d="M1448.38,254.05a2.58,2.58,0,0,1-.78-1.92V213.2a2.71,2.71,0,0,1,.78-1.95,2.56,2.56,0,0,1,1.92-.81,2.77,2.77,0,0,1,2.76,2.76v24.54l14.28-13.2a2.78,2.78,0,0,1,1.8-.79,2.44,2.44,0,0,1,2,.79,2.85,2.85,0,0,1,.63,1.86,2.94,2.94,0,0,1-1,2l-8.64,7.73L1473,250.58a2.63,2.63,0,0,1,.6,1.62,2.5,2.5,0,0,1-.78,1.92,2.84,2.84,0,0,1-2,.71,2.78,2.78,0,0,1-1.2-.29,3.07,3.07,0,0,1-1-.84l-10.32-14-5.22,4.74v7.73a2.53,2.53,0,0,1-.81,1.92,2.71,2.71,0,0,1-2,.78A2.61,2.61,0,0,1,1448.38,254.05Z"/><path d="M1482,251c-2.75-2.77-4.11-6.68-4.11-11.72a19.39,19.39,0,0,1,1.56-7.86,13.38,13.38,0,0,1,4.8-5.83,13.84,13.84,0,0,1,8-2.22,14,14,0,0,1,7.68,2.08,13.43,13.43,0,0,1,4.92,5.51,17.18,17.18,0,0,1,1.68,7.54,2.71,2.71,0,0,1-.75,1.92,2.67,2.67,0,0,1-2,.78h-20.34a9.8,9.8,0,0,0,3.12,6.54c1.75,1.55,4.21,2.34,7.38,2.34a17.53,17.53,0,0,0,4.41-.49,17.19,17.19,0,0,0,3.69-1.38,2.55,2.55,0,0,1,2.76.42,2.21,2.21,0,0,1,.72,1.69,2.61,2.61,0,0,1-1.56,2.22,18.63,18.63,0,0,1-10.5,2.63C1488.56,255.13,1484.75,253.75,1482,251Zm19.11-14.25a9.68,9.68,0,0,0-1.53-4.92,8.41,8.41,0,0,0-3.33-2.91,9.24,9.24,0,0,0-8,0,8.14,8.14,0,0,0-3.3,2.91,9.76,9.76,0,0,0-1.5,4.92Z"/><path d="M1512.7,252.44a2.31,2.31,0,0,1-1-2,2.39,2.39,0,0,1,.66-1.68,2.15,2.15,0,0,1,1.68-.73,2.81,2.81,0,0,1,1.08.24,23.34,23.34,0,0,0,3.84,1.33,17.87,17.87,0,0,0,4.32.47c4.44,0,6.66-1.41,6.66-4.26a2.26,2.26,0,0,0-1.53-2.09,29.39,29.39,0,0,0-5-1.62,45.27,45.27,0,0,1-5.85-1.74,10.29,10.29,0,0,1-4-2.73,6.94,6.94,0,0,1-1.65-4.83,8.65,8.65,0,0,1,3-6.84c2-1.76,4.91-2.65,8.67-2.65a25.25,25.25,0,0,1,8.7,1.5,2.31,2.31,0,0,1,1.29.91,2.39,2.39,0,0,1,.45,1.38,2.31,2.31,0,0,1-.69,1.67,2.25,2.25,0,0,1-1.71.73,3.37,3.37,0,0,1-.78-.12,22.68,22.68,0,0,0-6.84-1.08,9.37,9.37,0,0,0-5.07,1.17,3.49,3.49,0,0,0-1.83,3,2.78,2.78,0,0,0,1.68,2.64,24,24,0,0,0,5.22,1.62,52.38,52.38,0,0,1,5.76,1.76,9.55,9.55,0,0,1,3.81,2.74,7.4,7.4,0,0,1,1.59,5,7.93,7.93,0,0,1-3,6.37q-3,2.5-8.55,2.51A22.31,22.31,0,0,1,1512.7,252.44Z"/><path d="M1558.9,254.05a2.58,2.58,0,0,1-.78-1.92V226.4a2.71,2.71,0,0,1,.78-2,2.57,2.57,0,0,1,1.92-.82,2.78,2.78,0,0,1,2.76,2.77v2.46a15,15,0,0,1,4.05-4,11,11,0,0,1,6.15-1.57,9.39,9.39,0,0,1,5.76,1.8,10.07,10.07,0,0,1,3.42,4.39,12.09,12.09,0,0,1,11-6.19,9.12,9.12,0,0,1,5.61,1.69,10.05,10.05,0,0,1,3.33,4.31,14.53,14.53,0,0,1,1.08,5.53v17.27a2.53,2.53,0,0,1-.81,1.92,2.71,2.71,0,0,1-2,.78,2.61,2.61,0,0,1-1.92-.78,2.58,2.58,0,0,1-.78-1.92V235.94q0-3.9-1.38-5.73t-4.74-1.83a8,8,0,0,0-5.07,1.58,15.69,15.69,0,0,0-3.57,4.17v18a2.53,2.53,0,0,1-.81,1.92,2.71,2.71,0,0,1-2,.78,2.61,2.61,0,0,1-1.92-.78,2.58,2.58,0,0,1-.78-1.92V235.94q0-3.9-1.38-5.73t-4.74-1.83a8,8,0,0,0-5.07,1.58,15.69,15.69,0,0,0-3.57,4.17v18a2.53,2.53,0,0,1-.81,1.92,2.71,2.71,0,0,1-2,.78A2.61,2.61,0,0,1,1558.9,254.05Z"/><path d="M1617.67,253.58a10.14,10.14,0,0,1-3.72-4.26,13.6,13.6,0,0,1-1.29-5.94v-17a2.55,2.55,0,0,1,.81-1.91,2.72,2.72,0,0,1,2-.79,2.68,2.68,0,0,1,2.7,2.7v16.45q0,7.32,6.6,7.31a9.54,9.54,0,0,0,5.37-1.55,19.28,19.28,0,0,0,4.47-4.21v-18a2.55,2.55,0,0,1,.81-1.91,2.72,2.72,0,0,1,2-.79,2.68,2.68,0,0,1,2.7,2.7v25.75a2.71,2.71,0,0,1-.78,1.95,2.55,2.55,0,0,1-1.92.8,2.75,2.75,0,0,1-2.76-2.75v-2.46a19.9,19.9,0,0,1-4.92,4,12.42,12.42,0,0,1-6.24,1.5A10.37,10.37,0,0,1,1617.67,253.58Z"/><path d="M1648.48,252.44a2.31,2.31,0,0,1-1-2,2.39,2.39,0,0,1,.66-1.68,2.15,2.15,0,0,1,1.68-.73,2.81,2.81,0,0,1,1.08.24,23.34,23.34,0,0,0,3.84,1.33,17.87,17.87,0,0,0,4.32.47c4.44,0,6.66-1.41,6.66-4.26a2.26,2.26,0,0,0-1.53-2.09,29.39,29.39,0,0,0-5-1.62,45.27,45.27,0,0,1-5.85-1.74,10.29,10.29,0,0,1-4-2.73,6.94,6.94,0,0,1-1.65-4.83,8.65,8.65,0,0,1,3-6.84c2-1.76,4.91-2.65,8.67-2.65a25.25,25.25,0,0,1,8.7,1.5,2.31,2.31,0,0,1,1.29.91,2.39,2.39,0,0,1,.45,1.38,2.31,2.31,0,0,1-.69,1.67,2.25,2.25,0,0,1-1.71.73,3.37,3.37,0,0,1-.78-.12,22.68,22.68,0,0,0-6.84-1.08,9.37,9.37,0,0,0-5.07,1.17,3.49,3.49,0,0,0-1.83,3,2.78,2.78,0,0,0,1.68,2.64,24,24,0,0,0,5.22,1.62,52.38,52.38,0,0,1,5.76,1.76,9.55,9.55,0,0,1,3.81,2.74,7.4,7.4,0,0,1,1.59,5,7.93,7.93,0,0,1-3,6.37q-3,2.5-8.55,2.51A22.31,22.31,0,0,1,1648.48,252.44Z"/><path d="M1678.72,216.79a2.91,2.91,0,0,1-.9-2.16v-.23a3.09,3.09,0,0,1,3.06-3.07h.36a3.09,3.09,0,0,1,3.06,3.07v.23a3.09,3.09,0,0,1-3.06,3.07h-.36A2.92,2.92,0,0,1,1678.72,216.79Zm.36,37.26a2.58,2.58,0,0,1-.78-1.92V226.4a2.71,2.71,0,0,1,.78-2,2.57,2.57,0,0,1,1.92-.82,2.68,2.68,0,0,1,2.76,2.77v25.73a2.53,2.53,0,0,1-.81,1.92,2.71,2.71,0,0,1-2,.78A2.61,2.61,0,0,1,1679.08,254.05Z"/><path d="M1699.42,253.21a14.75,14.75,0,0,1-5.85-5.51,17.44,17.44,0,0,1,0-16.92,14.87,14.87,0,0,1,5.85-5.53,17,17,0,0,1,8-1.92,16.62,16.62,0,0,1,5.49.82,21.23,21.23,0,0,1,4.29,2.06,2.42,2.42,0,0,1,1.2,2.11,2.35,2.35,0,0,1-.69,1.64,2.07,2.07,0,0,1-1.59.75,2.83,2.83,0,0,1-1.32-.35,24.17,24.17,0,0,0-3.39-1.48,11.73,11.73,0,0,0-3.51-.44c-3.44,0-6.14,1-8.1,3a11.9,11.9,0,0,0,0,15.66,10.92,10.92,0,0,0,8.1,3,11.67,11.67,0,0,0,3.51-.46,21.66,21.66,0,0,0,3.39-1.46,2.75,2.75,0,0,1,1.32-.37,2.14,2.14,0,0,1,1.59.75,2.41,2.41,0,0,1,.69,1.66,2.37,2.37,0,0,1-1.2,2.09,20.77,20.77,0,0,1-4.29,2.08,18.18,18.18,0,0,1-13.47-1.12Z"/><path d="M1724.77,263.05a1.74,1.74,0,0,1-.51-1.26,1.69,1.69,0,0,1,.9-1.5,6.73,6.73,0,0,0,2.28-2.09,6.47,6.47,0,0,0,.78-3.49H1728a3.36,3.36,0,0,1-3.36-3.35V251a3.27,3.27,0,0,1,1-2.38,3.23,3.23,0,0,1,2.37-1h.6a3.23,3.23,0,0,1,2.37,1,3.27,3.27,0,0,1,1,2.38v3.54a9.64,9.64,0,0,1-4.92,8.75,1.81,1.81,0,0,1-1,.3A1.6,1.6,0,0,1,1724.77,263.05Z"/><path d="M1080.83,326.12a3.71,3.71,0,0,1-1.32-1.8l-8.52-25a3.24,3.24,0,0,1-.18-1,2.68,2.68,0,0,1,2.7-2.7,2.82,2.82,0,0,1,1.53.45,2.25,2.25,0,0,1,.93,1.17l7,23.11,7-22.57a3.08,3.08,0,0,1,5.88,0l7,22.57,7-23.11a2.25,2.25,0,0,1,.93-1.17,2.82,2.82,0,0,1,1.53-.45,2.68,2.68,0,0,1,2.7,2.7,3.24,3.24,0,0,1-.18,1l-8.52,25a3.71,3.71,0,0,1-1.32,1.8,3.64,3.64,0,0,1-4.32,0,4,4,0,0,1-1.38-1.87l-6.36-19.85-6.36,19.85a4,4,0,0,1-1.38,1.87,3.64,3.64,0,0,1-4.32,0Z"/><path d="M1123.22,323q-4.11-4.15-4.11-11.72a19.56,19.56,0,0,1,1.56-7.86,13.44,13.44,0,0,1,4.8-5.83,15.34,15.34,0,0,1,15.66-.14,13.36,13.36,0,0,1,4.92,5.51,17,17,0,0,1,1.68,7.54,2.62,2.62,0,0,1-2.76,2.7h-20.34a9.89,9.89,0,0,0,3.12,6.54,10.8,10.8,0,0,0,7.38,2.34,17.53,17.53,0,0,0,4.41-.49,17.19,17.19,0,0,0,3.69-1.38,2.52,2.52,0,0,1,1.08-.23,2.44,2.44,0,0,1,1.68.65,2.21,2.21,0,0,1,.72,1.69,2.59,2.59,0,0,1-1.56,2.22,18.63,18.63,0,0,1-10.5,2.63C1129.77,327.13,1126,325.75,1123.22,323Zm19.11-14.25a9.68,9.68,0,0,0-1.53-4.92,8.41,8.41,0,0,0-3.33-2.91,9.24,9.24,0,0,0-8,0,8.2,8.2,0,0,0-3.3,2.91,9.86,9.86,0,0,0-1.5,4.92Z"/><path d="M1176.71,325.21a14.75,14.75,0,0,1-5.85-5.51,17.44,17.44,0,0,1,0-16.92,14.87,14.87,0,0,1,5.85-5.53,17,17,0,0,1,8-1.92,16.62,16.62,0,0,1,5.49.82,21.23,21.23,0,0,1,4.29,2.06,2.42,2.42,0,0,1,1.2,2.11A2.35,2.35,0,0,1,1195,302a2.07,2.07,0,0,1-1.59.75,2.83,2.83,0,0,1-1.32-.35,24.17,24.17,0,0,0-3.39-1.48,11.73,11.73,0,0,0-3.51-.44c-3.44,0-6.14,1-8.1,3a11.9,11.9,0,0,0,0,15.66,10.92,10.92,0,0,0,8.1,3,11.67,11.67,0,0,0,3.51-.46,21.66,21.66,0,0,0,3.39-1.46,2.75,2.75,0,0,1,1.32-.37,2.14,2.14,0,0,1,1.59.75,2.41,2.41,0,0,1,.69,1.66,2.37,2.37,0,0,1-1.2,2.09,20.77,20.77,0,0,1-4.29,2.08,18.18,18.18,0,0,1-13.47-1.12Z"/><path d="M1205.42,326.05a8.49,8.49,0,0,1-3.57-3.14,8.69,8.69,0,0,1-1.32-4.78,8.43,8.43,0,0,1,3.51-7.08q3.51-2.62,10.29-2.63h7.26v-.48c0-2.65-.65-4.54-1.95-5.7s-3.33-1.74-6.09-1.74a20.45,20.45,0,0,0-4,.36,32.08,32.08,0,0,0-3.93,1.08,3.27,3.27,0,0,1-.78.11,2.12,2.12,0,0,1-1.56-.65,2.2,2.2,0,0,1-.66-1.62,2.31,2.31,0,0,1,1.56-2.28,26.23,26.23,0,0,1,10.38-2.17,13.55,13.55,0,0,1,7,1.69,10.56,10.56,0,0,1,4.2,4.35,12.65,12.65,0,0,1,1.35,5.79v17a2.53,2.53,0,0,1-.81,1.92,2.71,2.71,0,0,1-2,.78,2.61,2.61,0,0,1-1.92-.78,2.58,2.58,0,0,1-.78-1.92v-1.55a15.06,15.06,0,0,1-11.28,4.55A11,11,0,0,1,1205.42,326.05Zm12-5a13.85,13.85,0,0,0,4.14-3.21v-5h-6.54q-9.06,0-9.06,4.75a4.45,4.45,0,0,0,1.47,3.48c1,.88,2.61,1.31,4.89,1.31A10.73,10.73,0,0,0,1217.45,321Z"/><path d="M1237,326.05a2.58,2.58,0,0,1-.78-1.92V298.4a2.71,2.71,0,0,1,.78-1.95,2.55,2.55,0,0,1,1.92-.82,2.78,2.78,0,0,1,2.76,2.77v2.46a19.81,19.81,0,0,1,4.92-4,12.53,12.53,0,0,1,6.24-1.5,10.4,10.4,0,0,1,5.73,1.57,10.14,10.14,0,0,1,3.72,4.26,13.59,13.59,0,0,1,1.29,5.93v17a2.53,2.53,0,0,1-.81,1.92,2.73,2.73,0,0,1-2,.78,2.61,2.61,0,0,1-1.92-.78,2.58,2.58,0,0,1-.78-1.92V307.7q0-7.32-6.6-7.32a9.53,9.53,0,0,0-5.37,1.56,19.4,19.4,0,0,0-4.47,4.19v18a2.53,2.53,0,0,1-.81,1.92,2.71,2.71,0,0,1-2,.78A2.59,2.59,0,0,1,1237,326.05Z"/><path d="M1289.15,326.05a2.55,2.55,0,0,1-.79-1.92V298.4a2.68,2.68,0,0,1,.79-1.95,2.53,2.53,0,0,1,1.91-.82,2.78,2.78,0,0,1,2.76,2.77V301q4.2-5.64,9.43-5.65h.29a2.56,2.56,0,0,1,1.9.79,2.71,2.71,0,0,1,.75,1.92,2.45,2.45,0,0,1-.78,1.86,2.84,2.84,0,0,1-2,.72h-.31a10.26,10.26,0,0,0-5.28,1.41,12.25,12.25,0,0,0-4,3.87v18.23a2.53,2.53,0,0,1-.81,1.92,2.69,2.69,0,0,1-2,.78A2.57,2.57,0,0,1,1289.15,326.05Z"/><path d="M1312.69,323q-4.11-4.15-4.11-11.72a19.56,19.56,0,0,1,1.56-7.86,13.44,13.44,0,0,1,4.8-5.83,15.34,15.34,0,0,1,15.66-.14,13.36,13.36,0,0,1,4.92,5.51,17,17,0,0,1,1.68,7.54,2.62,2.62,0,0,1-2.76,2.7H1314.1a9.89,9.89,0,0,0,3.12,6.54,10.8,10.8,0,0,0,7.38,2.34,17.53,17.53,0,0,0,4.41-.49,17.19,17.19,0,0,0,3.69-1.38,2.52,2.52,0,0,1,1.08-.23,2.44,2.44,0,0,1,1.68.65,2.21,2.21,0,0,1,.72,1.69,2.59,2.59,0,0,1-1.56,2.22,18.63,18.63,0,0,1-10.5,2.63C1319.24,327.13,1315.43,325.75,1312.69,323Zm19.11-14.25a9.68,9.68,0,0,0-1.53-4.92,8.41,8.41,0,0,0-3.33-2.91,9.24,9.24,0,0,0-8,0,8.2,8.2,0,0,0-3.3,2.91,9.86,9.86,0,0,0-1.5,4.92Z"/><path d="M1347.31,326.05a8.49,8.49,0,0,1-3.57-3.14,8.69,8.69,0,0,1-1.32-4.78,8.43,8.43,0,0,1,3.51-7.08q3.51-2.62,10.29-2.63h7.26v-.48c0-2.65-.65-4.54-2-5.7s-3.33-1.74-6.09-1.74a20.45,20.45,0,0,0-4,.36,32.08,32.08,0,0,0-3.93,1.08,3.27,3.27,0,0,1-.78.11,2.12,2.12,0,0,1-1.56-.65,2.2,2.2,0,0,1-.66-1.62,2.31,2.31,0,0,1,1.56-2.28,26.23,26.23,0,0,1,10.38-2.17,13.55,13.55,0,0,1,7,1.69,10.56,10.56,0,0,1,4.2,4.35,12.65,12.65,0,0,1,1.35,5.79v17a2.53,2.53,0,0,1-.81,1.92,2.71,2.71,0,0,1-2,.78,2.61,2.61,0,0,1-1.92-.78,2.58,2.58,0,0,1-.78-1.92v-1.55a15.06,15.06,0,0,1-11.28,4.55A11,11,0,0,1,1347.31,326.05Zm12-5a13.85,13.85,0,0,0,4.14-3.21v-5h-6.54q-9.06,0-9.06,4.75a4.45,4.45,0,0,0,1.47,3.48c1,.88,2.61,1.31,4.89,1.31A10.73,10.73,0,0,0,1359.34,321Z"/><path d="M1378.9,326.05a2.58,2.58,0,0,1-.78-1.92V285.2a2.71,2.71,0,0,1,.78-1.95,2.56,2.56,0,0,1,1.92-.81,2.65,2.65,0,0,1,2.76,2.76v38.93a2.53,2.53,0,0,1-.81,1.92,2.71,2.71,0,0,1-2,.78A2.61,2.61,0,0,1,1378.9,326.05Z"/><path d="M1393.84,326.05a2.58,2.58,0,0,1-.78-1.92V285.2a2.71,2.71,0,0,1,.78-1.95,2.56,2.56,0,0,1,1.92-.81,2.65,2.65,0,0,1,2.76,2.76v38.93a2.53,2.53,0,0,1-.81,1.92,2.71,2.71,0,0,1-2,.78A2.61,2.61,0,0,1,1393.84,326.05Z"/><path d="M1413,339.86a2.67,2.67,0,0,1-.57-2.82l3.9-10-11.28-27.48a3.11,3.11,0,0,1-.24-1.14,2.71,2.71,0,0,1,.78-1.95,2.57,2.57,0,0,1,1.92-.82,2.63,2.63,0,0,1,1.53.49,2.67,2.67,0,0,1,1,1.2l9.24,22.92,9.42-22.8a2.63,2.63,0,0,1,2.52-1.81,2.57,2.57,0,0,1,1.92.82,2.71,2.71,0,0,1,.78,1.95,2.92,2.92,0,0,1-.18,1l-16.38,39.36a2.7,2.7,0,0,1-2.52,1.85A2.43,2.43,0,0,1,1413,339.86Z"/><path d="M1461.43,325.25a14.34,14.34,0,0,1-5.4-5.52,18.45,18.45,0,0,1,0-17,14.34,14.34,0,0,1,5.4-5.52,14,14,0,0,1,7-1.9,13.8,13.8,0,0,1,10.26,4.57V285.2a2.67,2.67,0,0,1,.81-2,2.74,2.74,0,0,1,2-.77,2.56,2.56,0,0,1,1.92.81,2.71,2.71,0,0,1,.78,1.95v38.93a2.58,2.58,0,0,1-.78,1.92,2.61,2.61,0,0,1-1.92.78,2.71,2.71,0,0,1-2-.78,2.53,2.53,0,0,1-.81-1.92v-1.55a13.78,13.78,0,0,1-10.26,4.55A14.16,14.16,0,0,1,1461.43,325.25Zm13-4.45a14.62,14.62,0,0,0,4.29-3.26v-12.6a14.82,14.82,0,0,0-4.29-3.27,11.33,11.33,0,0,0-5.19-1.23,9.46,9.46,0,0,0-7.14,2.81q-2.7,2.83-2.7,8t2.7,8a9.4,9.4,0,0,0,7.14,2.83A11.34,11.34,0,0,0,1474.45,320.8Z"/><path d="M1494.46,326.05a2.58,2.58,0,0,1-.78-1.92V298.4a2.71,2.71,0,0,1,.78-1.95,2.57,2.57,0,0,1,1.92-.82,2.78,2.78,0,0,1,2.76,2.77V301q4.2-5.64,9.42-5.65h.3a2.52,2.52,0,0,1,1.89.79,2.66,2.66,0,0,1,.75,1.92,2.42,2.42,0,0,1-.78,1.86,2.81,2.81,0,0,1-2,.72h-.3a10.23,10.23,0,0,0-5.28,1.41,12.16,12.16,0,0,0-4,3.87v18.23a2.53,2.53,0,0,1-.81,1.92,2.71,2.71,0,0,1-1.95.78A2.61,2.61,0,0,1,1494.46,326.05Z"/><path d="M1519.57,326.05a8.49,8.49,0,0,1-3.57-3.14,8.69,8.69,0,0,1-1.32-4.78,8.43,8.43,0,0,1,3.51-7.08q3.51-2.62,10.29-2.63h7.26v-.48c0-2.65-.65-4.54-2-5.7s-3.33-1.74-6.09-1.74a20.45,20.45,0,0,0-4,.36,32.08,32.08,0,0,0-3.93,1.08,3.27,3.27,0,0,1-.78.11,2.12,2.12,0,0,1-1.56-.65,2.2,2.2,0,0,1-.66-1.62,2.31,2.31,0,0,1,1.56-2.28,26.23,26.23,0,0,1,10.38-2.17,13.55,13.55,0,0,1,7,1.69,10.56,10.56,0,0,1,4.2,4.35,12.65,12.65,0,0,1,1.35,5.79v17a2.53,2.53,0,0,1-.81,1.92,2.71,2.71,0,0,1-2,.78,2.61,2.61,0,0,1-1.92-.78,2.58,2.58,0,0,1-.78-1.92v-1.55a15.06,15.06,0,0,1-11.28,4.55A11,11,0,0,1,1519.57,326.05Zm12-5a13.85,13.85,0,0,0,4.14-3.21v-5h-6.54q-9.06,0-9.06,4.75a4.45,4.45,0,0,0,1.47,3.48c1,.88,2.61,1.31,4.89,1.31A10.73,10.73,0,0,0,1531.6,321Z"/><path d="M1556.8,326.12a3.71,3.71,0,0,1-1.32-1.8l-8.52-25a3.24,3.24,0,0,1-.18-1,2.68,2.68,0,0,1,2.7-2.7,2.82,2.82,0,0,1,1.53.45,2.25,2.25,0,0,1,.93,1.17l7,23.11,7-22.57a3.08,3.08,0,0,1,5.88,0l7,22.57,7-23.11a2.25,2.25,0,0,1,.93-1.17,2.82,2.82,0,0,1,1.53-.45,2.68,2.68,0,0,1,2.7,2.7,3.24,3.24,0,0,1-.18,1l-8.52,25a3.71,3.71,0,0,1-1.32,1.8,3.64,3.64,0,0,1-4.32,0,4,4,0,0,1-1.38-1.87l-6.36-19.85-6.36,19.85a4,4,0,0,1-1.38,1.87,3.64,3.64,0,0,1-4.32,0Z"/><path d="M1615.87,326.05a8.49,8.49,0,0,1-3.57-3.14,8.69,8.69,0,0,1-1.32-4.78,8.43,8.43,0,0,1,3.51-7.08q3.51-2.62,10.29-2.63H1632v-.48c0-2.65-.65-4.54-2-5.7s-3.33-1.74-6.09-1.74a20.45,20.45,0,0,0-4,.36,32.08,32.08,0,0,0-3.93,1.08,3.27,3.27,0,0,1-.78.11,2.12,2.12,0,0,1-1.56-.65,2.2,2.2,0,0,1-.66-1.62,2.31,2.31,0,0,1,1.56-2.28,26.23,26.23,0,0,1,10.38-2.17,13.55,13.55,0,0,1,7,1.69,10.56,10.56,0,0,1,4.2,4.35,12.65,12.65,0,0,1,1.35,5.79v17a2.53,2.53,0,0,1-.81,1.92,2.71,2.71,0,0,1-2,.78,2.61,2.61,0,0,1-1.92-.78,2.58,2.58,0,0,1-.78-1.92v-1.55a15.06,15.06,0,0,1-11.28,4.55A11,11,0,0,1,1615.87,326.05Zm12-5a13.85,13.85,0,0,0,4.14-3.21v-5h-6.54q-9.06,0-9.06,4.75a4.45,4.45,0,0,0,1.47,3.48c1,.88,2.61,1.31,4.89,1.31A10.73,10.73,0,0,0,1627.9,321Z"/><path d="M1668.46,325.21a14.75,14.75,0,0,1-5.85-5.51,17.44,17.44,0,0,1,0-16.92,14.87,14.87,0,0,1,5.85-5.53,17,17,0,0,1,8-1.92,16.62,16.62,0,0,1,5.49.82,21.23,21.23,0,0,1,4.29,2.06,2.42,2.42,0,0,1,1.2,2.11,2.35,2.35,0,0,1-.69,1.64,2.07,2.07,0,0,1-1.59.75,2.83,2.83,0,0,1-1.32-.35,24.17,24.17,0,0,0-3.39-1.48,11.73,11.73,0,0,0-3.51-.44c-3.44,0-6.14,1-8.1,3a11.9,11.9,0,0,0,0,15.66,10.92,10.92,0,0,0,8.1,3,11.67,11.67,0,0,0,3.51-.46,21.66,21.66,0,0,0,3.39-1.46,2.75,2.75,0,0,1,1.32-.37,2.14,2.14,0,0,1,1.59.75,2.41,2.41,0,0,1,.69,1.66,2.37,2.37,0,0,1-1.2,2.09,20.77,20.77,0,0,1-4.29,2.08,18.18,18.18,0,0,1-13.47-1.12Z"/><path d="M1695,326.05a2.58,2.58,0,0,1-.78-1.92V298.4a2.71,2.71,0,0,1,.78-1.95,2.57,2.57,0,0,1,1.92-.82,2.78,2.78,0,0,1,2.76,2.77V301q4.2-5.64,9.42-5.65h.3a2.52,2.52,0,0,1,1.89.79,2.66,2.66,0,0,1,.75,1.92,2.42,2.42,0,0,1-.78,1.86,2.81,2.81,0,0,1-2,.72h-.3a10.23,10.23,0,0,0-5.28,1.41,12.16,12.16,0,0,0-4,3.87v18.23a2.53,2.53,0,0,1-.81,1.92,2.71,2.71,0,0,1-2,.78A2.61,2.61,0,0,1,1695,326.05Z"/><path d="M1721.74,325.16a13.48,13.48,0,0,1-5.37-5.62,19.21,19.21,0,0,1,0-16.62,13.43,13.43,0,0,1,5.37-5.6,17.36,17.36,0,0,1,16.14,0,13.62,13.62,0,0,1,5.4,5.6,18.94,18.94,0,0,1,0,16.62,13.67,13.67,0,0,1-5.4,5.62,17.51,17.51,0,0,1-16.14,0Zm12.81-4.14a9.16,9.16,0,0,0,3.72-3.6,12,12,0,0,0,1.47-6.25,11.87,11.87,0,0,0-1.47-6.17,9,9,0,0,0-3.72-3.58,10.64,10.64,0,0,0-4.71-1.1,10.77,10.77,0,0,0-4.77,1.1,8.86,8.86,0,0,0-3.69,3.58,12.06,12.06,0,0,0-1.44,6.17,12.22,12.22,0,0,0,1.44,6.25,9,9,0,0,0,3.69,3.6,10.41,10.41,0,0,0,4.77,1.14A10.29,10.29,0,0,0,1734.55,321Z"/><path d="M1759.36,326.12a3.71,3.71,0,0,1-1.32-1.8l-8.52-25a3.24,3.24,0,0,1-.18-1,2.68,2.68,0,0,1,2.7-2.7,2.82,2.82,0,0,1,1.53.45,2.25,2.25,0,0,1,.93,1.17l7,23.11,7-22.57a3.08,3.08,0,0,1,5.88,0l7,22.57,7-23.11a2.25,2.25,0,0,1,.93-1.17,2.82,2.82,0,0,1,1.53-.45,2.68,2.68,0,0,1,2.7,2.7,3.24,3.24,0,0,1-.18,1l-8.52,25a3.71,3.71,0,0,1-1.32,1.8,3.64,3.64,0,0,1-4.32,0,4,4,0,0,1-1.38-1.87l-6.36-19.85-6.36,19.85a4,4,0,0,1-1.38,1.87,3.64,3.64,0,0,1-4.32,0Z"/><path d="M1805.11,325.25a14.34,14.34,0,0,1-5.4-5.52,18.45,18.45,0,0,1,0-17,14.34,14.34,0,0,1,5.4-5.52,14,14,0,0,1,7.05-1.9,13.8,13.8,0,0,1,10.26,4.57V285.2a2.67,2.67,0,0,1,.81-2,2.74,2.74,0,0,1,2-.77,2.56,2.56,0,0,1,1.92.81,2.71,2.71,0,0,1,.78,1.95v38.93a2.58,2.58,0,0,1-.78,1.92,2.61,2.61,0,0,1-1.92.78,2.71,2.71,0,0,1-2-.78,2.53,2.53,0,0,1-.81-1.92v-1.55a13.78,13.78,0,0,1-10.26,4.55A14.16,14.16,0,0,1,1805.11,325.25Zm13-4.45a14.62,14.62,0,0,0,4.29-3.26v-12.6a14.82,14.82,0,0,0-4.29-3.27,11.33,11.33,0,0,0-5.19-1.23,9.46,9.46,0,0,0-7.14,2.81q-2.7,2.83-2.7,8t2.7,8a9.4,9.4,0,0,0,7.14,2.83A11.34,11.34,0,0,0,1818.13,320.8Z"/><path d="M1837.75,325.73a3.23,3.23,0,0,1-1-2.37V323a3.27,3.27,0,0,1,1-2.38,3.23,3.23,0,0,1,2.37-1h.6a3.23,3.23,0,0,1,2.37,1,3.27,3.27,0,0,1,1,2.38v.36a3.36,3.36,0,0,1-3.36,3.35h-.6A3.26,3.26,0,0,1,1837.75,325.73Z"/><path d="M206.16,203.15a4.19,4.19,0,0,1-1.41-2L193,165a4.2,4.2,0,0,1-.18-1,2.37,2.37,0,0,1,.69-1.89,2.64,2.64,0,0,1,1.95-.75,2.54,2.54,0,0,1,1.68.6,3.23,3.23,0,0,1,1,1.56l10.08,33.11,10.14-33a3.06,3.06,0,0,1,1.17-1.64,3.33,3.33,0,0,1,3.9,0,3.06,3.06,0,0,1,1.17,1.64l10.14,33,10.08-33.11a3.23,3.23,0,0,1,1-1.56,2.54,2.54,0,0,1,1.68-.6,2.64,2.64,0,0,1,1.95.75,2.37,2.37,0,0,1,.69,1.89,4.2,4.2,0,0,1-.18,1l-11.76,36.11a4.19,4.19,0,0,1-1.41,2,3.62,3.62,0,0,1-4.32-.07,3.65,3.65,0,0,1-1.35-2l-9.66-30.59-9.66,30.59a3.65,3.65,0,0,1-1.35,2,3.62,3.62,0,0,1-4.32.07Z"/><path d="M257.31,203.05a2.58,2.58,0,0,1-.78-1.92V162.2a2.71,2.71,0,0,1,.78-1.95,2.56,2.56,0,0,1,1.92-.81A2.77,2.77,0,0,1,262,162.2v15.66a20,20,0,0,1,4.92-4,12.53,12.53,0,0,1,6.24-1.5,10.38,10.38,0,0,1,5.73,1.57,10.14,10.14,0,0,1,3.72,4.26,13.59,13.59,0,0,1,1.29,5.93v17a2.53,2.53,0,0,1-.81,1.92,2.71,2.71,0,0,1-1.95.78,2.61,2.61,0,0,1-1.92-.78,2.58,2.58,0,0,1-.78-1.92V184.7q0-7.32-6.6-7.32a9.55,9.55,0,0,0-5.37,1.56,19.6,19.6,0,0,0-4.47,4.19v18a2.53,2.53,0,0,1-.81,1.92,2.71,2.71,0,0,1-1.95.78A2.61,2.61,0,0,1,257.31,203.05Z"/><path d="M297.54,216.86A2.67,2.67,0,0,1,297,214l3.9-10-11.28-27.48a3.11,3.11,0,0,1-.24-1.14,2.71,2.71,0,0,1,.78-2,2.57,2.57,0,0,1,1.92-.82,2.63,2.63,0,0,1,1.53.49,2.67,2.67,0,0,1,1,1.2l9.24,22.92,9.42-22.8a2.63,2.63,0,0,1,2.52-1.81,2.57,2.57,0,0,1,1.92.82,2.71,2.71,0,0,1,.78,2,2.92,2.92,0,0,1-.18,1l-16.38,39.36a2.7,2.7,0,0,1-2.52,1.85A2.43,2.43,0,0,1,297.54,216.86Z"/><path d="M343.26,203.05a8.44,8.44,0,0,1-3.57-3.14,8.69,8.69,0,0,1-1.32-4.78,8.43,8.43,0,0,1,3.51-7.08c2.34-1.75,5.76-2.63,10.29-2.63h7.26v-.48c0-2.65-.66-4.54-1.95-5.7s-3.33-1.74-6.09-1.74a20.31,20.31,0,0,0-4.05.36,32.08,32.08,0,0,0-3.93,1.08,3.34,3.34,0,0,1-.78.11,2.12,2.12,0,0,1-1.56-.65,2.16,2.16,0,0,1-.66-1.62A2.3,2.3,0,0,1,342,174.5a26.19,26.19,0,0,1,10.38-2.17,13.55,13.55,0,0,1,7,1.69,10.62,10.62,0,0,1,4.2,4.35,12.65,12.65,0,0,1,1.35,5.79v17a2.53,2.53,0,0,1-.81,1.92,2.73,2.73,0,0,1-1.95.78,2.66,2.66,0,0,1-2.7-2.7v-1.55a15.08,15.08,0,0,1-11.28,4.55A11,11,0,0,1,343.26,203.05Zm12-5a13.85,13.85,0,0,0,4.14-3.21v-5h-6.54q-9.06,0-9.06,4.75A4.42,4.42,0,0,0,345.3,198c1,.88,2.61,1.31,4.89,1.31A10.76,10.76,0,0,0,355.29,198Z"/><path d="M374.85,203.05a2.54,2.54,0,0,1-.78-1.92V175.4a2.67,2.67,0,0,1,.78-2,2.54,2.54,0,0,1,1.92-.82,2.78,2.78,0,0,1,2.76,2.77V178c2.79-3.76,5.94-5.65,9.42-5.65h.3a2.55,2.55,0,0,1,1.89.79,2.71,2.71,0,0,1,.75,1.92,2.45,2.45,0,0,1-.78,1.86,2.84,2.84,0,0,1-2,.72h-.3a10.21,10.21,0,0,0-5.28,1.41,12.07,12.07,0,0,0-4,3.87v18.23a2.53,2.53,0,0,1-.81,1.92,2.73,2.73,0,0,1-2,.78A2.58,2.58,0,0,1,374.85,203.05Z"/><path d="M398.4,200q-4.12-4.16-4.12-11.72a19.56,19.56,0,0,1,1.56-7.86,13.47,13.47,0,0,1,4.81-5.83,15.32,15.32,0,0,1,15.65-.14,13.38,13.38,0,0,1,4.93,5.51,17.18,17.18,0,0,1,1.68,7.54,2.71,2.71,0,0,1-.75,1.92,2.67,2.67,0,0,1-2,.78H399.8a9.85,9.85,0,0,0,3.13,6.54c1.75,1.55,4.21,2.34,7.37,2.34a17.56,17.56,0,0,0,4.42-.49,17.19,17.19,0,0,0,3.69-1.38,2.55,2.55,0,0,1,2.76.42,2.21,2.21,0,0,1,.72,1.69,2.61,2.61,0,0,1-1.57,2.22,18.57,18.57,0,0,1-10.5,2.63C404.94,204.13,401.13,202.75,398.4,200Zm19.11-14.25a9.68,9.68,0,0,0-1.53-4.92,8.48,8.48,0,0,0-3.33-2.91,9.26,9.26,0,0,0-8,0,8.2,8.2,0,0,0-3.3,2.91,10,10,0,0,0-1.5,4.92Z"/><path d="M450.71,216.86a2.67,2.67,0,0,1-.57-2.82l3.9-10-11.28-27.48a3.11,3.11,0,0,1-.24-1.14,2.71,2.71,0,0,1,.78-2,2.57,2.57,0,0,1,1.92-.82,2.63,2.63,0,0,1,1.53.49,2.67,2.67,0,0,1,1,1.2L457,197.24l9.42-22.8a2.63,2.63,0,0,1,2.52-1.81,2.57,2.57,0,0,1,1.92.82,2.71,2.71,0,0,1,.78,2,2.92,2.92,0,0,1-.18,1l-16.38,39.36a2.7,2.7,0,0,1-2.52,1.85A2.43,2.43,0,0,1,450.71,216.86Z"/><path d="M482.9,202.16a13.48,13.48,0,0,1-5.37-5.62,19.21,19.21,0,0,1,0-16.62,13.43,13.43,0,0,1,5.37-5.6,17.36,17.36,0,0,1,16.14,0,13.62,13.62,0,0,1,5.4,5.6,18.94,18.94,0,0,1,0,16.62,13.67,13.67,0,0,1-5.4,5.62,17.51,17.51,0,0,1-16.14,0ZM495.71,198a9.16,9.16,0,0,0,3.72-3.6,12,12,0,0,0,1.47-6.25,11.87,11.87,0,0,0-1.47-6.17,9,9,0,0,0-3.72-3.58,10.64,10.64,0,0,0-4.71-1.1,10.77,10.77,0,0,0-4.77,1.1,8.86,8.86,0,0,0-3.69,3.58,12.06,12.06,0,0,0-1.44,6.17,12.22,12.22,0,0,0,1.44,6.25,9,9,0,0,0,3.69,3.6,10.41,10.41,0,0,0,4.77,1.14A10.29,10.29,0,0,0,495.71,198Z"/><path d="M518.69,202.58a10.14,10.14,0,0,1-3.72-4.26,13.6,13.6,0,0,1-1.29-5.94v-17a2.55,2.55,0,0,1,.81-1.91,2.72,2.72,0,0,1,2-.79,2.68,2.68,0,0,1,2.7,2.7v16.45q0,7.32,6.6,7.31a9.54,9.54,0,0,0,5.37-1.55,19.28,19.28,0,0,0,4.47-4.21v-18a2.55,2.55,0,0,1,.81-1.91,2.72,2.72,0,0,1,2-.79,2.68,2.68,0,0,1,2.7,2.7v25.75a2.71,2.71,0,0,1-.78,1.95,2.55,2.55,0,0,1-1.92.8,2.75,2.75,0,0,1-2.76-2.75v-2.46a19.9,19.9,0,0,1-4.92,4,12.42,12.42,0,0,1-6.24,1.5A10.37,10.37,0,0,1,518.69,202.58Z"/><path d="M571.58,199.58v1.55a2.53,2.53,0,0,1-.81,1.92,2.71,2.71,0,0,1-1.95.78,2.61,2.61,0,0,1-1.92-.78,2.58,2.58,0,0,1-.78-1.92V162.2a2.71,2.71,0,0,1,.78-1.95,2.56,2.56,0,0,1,1.92-.81,2.65,2.65,0,0,1,2.76,2.76v14.7a13.8,13.8,0,0,1,10.26-4.57,14,14,0,0,1,7,1.9,14.34,14.34,0,0,1,5.4,5.52,18.45,18.45,0,0,1,0,17,14.34,14.34,0,0,1-5.4,5.52,14.16,14.16,0,0,1-7,1.88A13.78,13.78,0,0,1,571.58,199.58Zm16.62-3.37q2.7-2.81,2.7-8t-2.7-8a9.46,9.46,0,0,0-7.14-2.81,11.33,11.33,0,0,0-5.19,1.23,14.82,14.82,0,0,0-4.29,3.27v12.6a14.62,14.62,0,0,0,4.29,3.26,11.34,11.34,0,0,0,5.19,1.24A9.4,9.4,0,0,0,588.2,196.21Z"/><path d="M606.23,200q-4.11-4.16-4.11-11.72a19.56,19.56,0,0,1,1.56-7.86,13.44,13.44,0,0,1,4.8-5.83,15.34,15.34,0,0,1,15.66-.14,13.36,13.36,0,0,1,4.92,5.51,17,17,0,0,1,1.68,7.54,2.62,2.62,0,0,1-2.76,2.7H607.64a9.89,9.89,0,0,0,3.12,6.54,10.8,10.8,0,0,0,7.38,2.34,17.53,17.53,0,0,0,4.41-.49,17.19,17.19,0,0,0,3.69-1.38,2.52,2.52,0,0,1,1.08-.23,2.44,2.44,0,0,1,1.68.65,2.21,2.21,0,0,1,.72,1.69,2.59,2.59,0,0,1-1.56,2.22,18.63,18.63,0,0,1-10.5,2.63C612.78,204.13,609,202.75,606.23,200Zm19.11-14.25a9.68,9.68,0,0,0-1.53-4.92,8.41,8.41,0,0,0-3.33-2.91,9.24,9.24,0,0,0-8,0,8.2,8.2,0,0,0-3.3,2.91,9.86,9.86,0,0,0-1.5,4.92Z"/><path d="M638.36,165.79a2.91,2.91,0,0,1-.9-2.16v-.23a3.09,3.09,0,0,1,3.06-3.07h.36a3.09,3.09,0,0,1,3.06,3.07v.23a3.09,3.09,0,0,1-3.06,3.07h-.36A2.92,2.92,0,0,1,638.36,165.79Zm.36,37.26a2.58,2.58,0,0,1-.78-1.92V175.4a2.71,2.71,0,0,1,.78-2,2.57,2.57,0,0,1,1.92-.82,2.68,2.68,0,0,1,2.76,2.77v25.73a2.53,2.53,0,0,1-.81,1.92,2.71,2.71,0,0,1-2,.78A2.61,2.61,0,0,1,638.72,203.05Z"/><path d="M653.66,203.05a2.58,2.58,0,0,1-.78-1.92V175.4a2.71,2.71,0,0,1,.78-2,2.57,2.57,0,0,1,1.92-.82,2.78,2.78,0,0,1,2.76,2.77v2.46a20,20,0,0,1,4.92-4,12.53,12.53,0,0,1,6.24-1.5,10.38,10.38,0,0,1,5.73,1.57,10.14,10.14,0,0,1,3.72,4.26,13.59,13.59,0,0,1,1.29,5.93v17a2.53,2.53,0,0,1-.81,1.92,2.71,2.71,0,0,1-1.95.78,2.61,2.61,0,0,1-1.92-.78,2.58,2.58,0,0,1-.78-1.92V184.7q0-7.32-6.6-7.32a9.55,9.55,0,0,0-5.37,1.56,19.6,19.6,0,0,0-4.47,4.19v18a2.53,2.53,0,0,1-.81,1.92,2.71,2.71,0,0,1-1.95.78A2.61,2.61,0,0,1,653.66,203.05Z"/><path d="M696.68,217a23.39,23.39,0,0,1-5.82-2.22,2.29,2.29,0,0,1-1.08-2.11,2.47,2.47,0,0,1,.69-1.71,2.23,2.23,0,0,1,1.71-.75,2.79,2.79,0,0,1,1.08.25,22,22,0,0,0,9.9,2.28q9.18,0,9.18-9.78v-4a13.54,13.54,0,0,1-10.26,4.56,14.46,14.46,0,0,1-6.87-1.77,14.3,14.3,0,0,1-5.49-5.28,18,18,0,0,1,0-17.11,14.27,14.27,0,0,1,5.49-5.27,14.48,14.48,0,0,1,6.87-1.78,13.55,13.55,0,0,1,10.26,4.57v-1.5a2.71,2.71,0,0,1,.78-2,2.57,2.57,0,0,1,1.92-.82,2.78,2.78,0,0,1,2.76,2.77v26.81q0,7.56-3.66,11.65t-10.44,4.08A28.89,28.89,0,0,1,696.68,217Zm11.52-19.68a18,18,0,0,0,4.14-3.24V181.75a18.19,18.19,0,0,0-4.14-3.23,10.08,10.08,0,0,0-5-1.2,10.22,10.22,0,0,0-7.35,2.72q-2.85,2.75-2.85,7.9t2.85,7.89a11.18,11.18,0,0,0,12.33,1.53Z"/><path d="M741.86,201.44a2.31,2.31,0,0,1-1-2,2.39,2.39,0,0,1,.66-1.68,2.15,2.15,0,0,1,1.68-.73,2.81,2.81,0,0,1,1.08.24,23.34,23.34,0,0,0,3.84,1.33,17.87,17.87,0,0,0,4.32.47c4.44,0,6.66-1.41,6.66-4.26a2.26,2.26,0,0,0-1.53-2.09,29.39,29.39,0,0,0-5-1.62,45.27,45.27,0,0,1-5.85-1.74,10.29,10.29,0,0,1-4-2.73,6.94,6.94,0,0,1-1.65-4.83,8.65,8.65,0,0,1,3-6.84c2-1.76,4.91-2.65,8.67-2.65a25.25,25.25,0,0,1,8.7,1.5,2.31,2.31,0,0,1,1.29.91,2.39,2.39,0,0,1,.45,1.38,2.31,2.31,0,0,1-.69,1.67,2.25,2.25,0,0,1-1.71.73,3.37,3.37,0,0,1-.78-.12,22.68,22.68,0,0,0-6.84-1.08,9.37,9.37,0,0,0-5.07,1.17,3.49,3.49,0,0,0-1.83,3,2.78,2.78,0,0,0,1.68,2.64,24,24,0,0,0,5.22,1.62,52.38,52.38,0,0,1,5.76,1.76,9.55,9.55,0,0,1,3.81,2.74,7.4,7.4,0,0,1,1.59,5,7.93,7.93,0,0,1-3,6.37q-3,2.5-8.55,2.51A22.31,22.31,0,0,1,741.86,201.44Z"/><path d="M777.08,202.16a13.48,13.48,0,0,1-5.37-5.62,19.21,19.21,0,0,1,0-16.62,13.43,13.43,0,0,1,5.37-5.6,17.36,17.36,0,0,1,16.14,0,13.62,13.62,0,0,1,5.4,5.6,18.94,18.94,0,0,1,0,16.62,13.67,13.67,0,0,1-5.4,5.62,17.51,17.51,0,0,1-16.14,0ZM789.89,198a9.16,9.16,0,0,0,3.72-3.6,12,12,0,0,0,1.47-6.25,11.87,11.87,0,0,0-1.47-6.17,9,9,0,0,0-3.72-3.58,10.64,10.64,0,0,0-4.71-1.1,10.77,10.77,0,0,0-4.77,1.1,8.86,8.86,0,0,0-3.69,3.58,12.06,12.06,0,0,0-1.44,6.17,12.22,12.22,0,0,0,1.44,6.25,9,9,0,0,0,3.69,3.6,10.41,10.41,0,0,0,4.77,1.14A10.29,10.29,0,0,0,789.89,198Z"/><path d="M824.54,203.05a2.58,2.58,0,0,1-.78-1.92V162.2a2.71,2.71,0,0,1,.78-1.95,2.56,2.56,0,0,1,1.92-.81,2.65,2.65,0,0,1,2.76,2.76v38.93a2.53,2.53,0,0,1-.81,1.92,2.71,2.71,0,0,1-1.95.78A2.61,2.61,0,0,1,824.54,203.05Z"/><path d="M844.1,202.16a13.48,13.48,0,0,1-5.37-5.62,19.21,19.21,0,0,1,0-16.62,13.43,13.43,0,0,1,5.37-5.6,17.36,17.36,0,0,1,16.14,0,13.62,13.62,0,0,1,5.4,5.6,18.94,18.94,0,0,1,0,16.62,13.67,13.67,0,0,1-5.4,5.62,17.51,17.51,0,0,1-16.14,0ZM856.91,198a9.16,9.16,0,0,0,3.72-3.6,12,12,0,0,0,1.47-6.25,11.87,11.87,0,0,0-1.47-6.17,9,9,0,0,0-3.72-3.58,10.64,10.64,0,0,0-4.71-1.1,10.77,10.77,0,0,0-4.77,1.1,8.86,8.86,0,0,0-3.69,3.58,12.06,12.06,0,0,0-1.44,6.17,12.22,12.22,0,0,0,1.44,6.25,9,9,0,0,0,3.69,3.6,10.41,10.41,0,0,0,4.77,1.14A10.29,10.29,0,0,0,856.91,198Z"/><path d="M879.89,202.58a10.14,10.14,0,0,1-3.72-4.26,13.6,13.6,0,0,1-1.29-5.94v-17a2.55,2.55,0,0,1,.81-1.91,2.72,2.72,0,0,1,1.95-.79,2.68,2.68,0,0,1,2.7,2.7v16.45q0,7.32,6.6,7.31a9.54,9.54,0,0,0,5.37-1.55,19.28,19.28,0,0,0,4.47-4.21v-18a2.55,2.55,0,0,1,.81-1.91,2.72,2.72,0,0,1,1.95-.79,2.68,2.68,0,0,1,2.7,2.7v25.75a2.71,2.71,0,0,1-.78,1.95,2.55,2.55,0,0,1-1.92.8,2.75,2.75,0,0,1-2.76-2.75v-2.46a19.9,19.9,0,0,1-4.92,4,12.42,12.42,0,0,1-6.24,1.5A10.37,10.37,0,0,1,879.89,202.58Z"/><path d="M917.33,202.25a14.34,14.34,0,0,1-5.4-5.52,18.45,18.45,0,0,1,0-17,14.34,14.34,0,0,1,5.4-5.52,14,14,0,0,1,7-1.9,13.8,13.8,0,0,1,10.26,4.57V162.2a2.67,2.67,0,0,1,.81-2,2.74,2.74,0,0,1,1.95-.77,2.56,2.56,0,0,1,1.92.81,2.71,2.71,0,0,1,.78,1.95v38.93a2.58,2.58,0,0,1-.78,1.92,2.61,2.61,0,0,1-1.92.78,2.71,2.71,0,0,1-1.95-.78,2.53,2.53,0,0,1-.81-1.92v-1.55a13.78,13.78,0,0,1-10.26,4.55A14.16,14.16,0,0,1,917.33,202.25Zm13-4.45a14.62,14.62,0,0,0,4.29-3.26v-12.6a14.82,14.82,0,0,0-4.29-3.27,11.33,11.33,0,0,0-5.19-1.23,9.46,9.46,0,0,0-7.14,2.81q-2.7,2.83-2.7,8t2.7,8a9.4,9.4,0,0,0,7.14,2.83A11.34,11.34,0,0,0,930.35,197.8Z"/><path d="M956.21,191.69a2.17,2.17,0,0,1-.75-1.65,11.1,11.1,0,0,1,1-4.75,12.6,12.6,0,0,1,2.25-3.38,35.32,35.32,0,0,1,3.45-3.09,22.29,22.29,0,0,0,3.36-3.12,4.61,4.61,0,0,0,1.08-3q0-6.54-8.58-6.54a16.65,16.65,0,0,0-4.11.51,13,13,0,0,0-3.57,1.46,2.6,2.6,0,0,1-1.5.49,2.46,2.46,0,0,1-2.4-2.41,2.63,2.63,0,0,1,1.5-2.27,18,18,0,0,1,5-2.23,22.48,22.48,0,0,1,5.58-.66q6.12,0,9.81,3.07A10.19,10.19,0,0,1,972,172.4a9.41,9.41,0,0,1-.84,4.1,10.71,10.71,0,0,1-2,3,30.74,30.74,0,0,1-3.18,2.79A23.71,23.71,0,0,0,962,186a6.37,6.37,0,0,0-1.29,4,2.13,2.13,0,0,1-.78,1.65,2.71,2.71,0,0,1-1.86.69A2.68,2.68,0,0,1,956.21,191.69Zm-.72,11a3.48,3.48,0,0,1-1-2.56,3.6,3.6,0,0,1,3.54-3.54,3.48,3.48,0,0,1,2.55,1.06,3.38,3.38,0,0,1,1.05,2.48,3.59,3.59,0,0,1-3.6,3.61A3.4,3.4,0,0,1,955.49,202.73Z"/></svg>