<svg id="Layer_1" data-name="Layer 1" xmlns="http://www.w3.org/2000/svg" viewBox="0 0 1920 1080"><defs><style>.cls-1{font-size:60px;font-family:VarelaRound-Regular, Varela Round;}.cls-2{letter-spacing:-0.01em;}.cls-3{letter-spacing:-0.01em;}.cls-4{letter-spacing:0em;}.cls-5{letter-spacing:-0.01em;}.cls-6{letter-spacing:-0.04em;}.cls-7{letter-spacing:-0.01em;}.cls-8{letter-spacing:-0.01em;}.cls-9{letter-spacing:-0.01em;}.cls-10{letter-spacing:0em;}.cls-11{fill:#4d4d4d;}</style></defs><title>42-teeth</title><text class="cls-1" transform="translate(99.3 134.51)">When <tspan class="cls-2" x="183.3" y="0">w</tspan><tspan x="230.4" y="0">e all pl</tspan><tspan class="cls-3" x="411.96" y="0">a</tspan><tspan x="445.14" y="0">y </tspan><tspan class="cls-2" x="492.95" y="0">t</tspan><tspan class="cls-4" x="515.45" y="0">ogether </tspan><tspan class="cls-2" x="755.75" y="0">w</tspan><tspan x="802.85" y="0">e ma</tspan><tspan class="cls-5" x="941.21" y="0">k</tspan><tspan x="973.37" y="0">e a fun song.</tspan></text><text class="cls-1" transform="translate(822.3 302.51)"><tspan class="cls-6">W</tspan><tspan x="58.26" y="0">a</tspan><tspan class="cls-7" x="91.98" y="0">n</tspan><tspan x="127.8" y="0">t </tspan><tspan class="cls-2" x="166.32" y="0">t</tspan><tspan x="188.82" y="0">o hear it? </tspan><tspan class="cls-8" x="466.97" y="0">I</tspan><tspan x="483.41" y="0">t does</tspan><tspan class="cls-9" x="659.03" y="0">n</tspan><tspan x="694.73" y="0">’t ta</tspan><tspan class="cls-3" x="804.17" y="0">k</tspan><tspan class="cls-10" x="836.33" y="0">e long.</tspan></text><path class="cls-11" d="M172,458.86c6.94-14.08,9.09-29.69,11.58-45a199.24,199.24,0,0,1,4.82-23.09,108.82,108.82,0,0,1,7.78-19.55,129.53,129.53,0,0,1,25.43-33.85,158.22,158.22,0,0,1,36-25.84,220.39,220.39,0,0,1,44.08-17.24c7.57-2.11,15.24-3.95,23-5.42,7.49-1.42,15.8-2.26,22.59,1.95,6.05,3.75,9.84,10.33,12.84,16.59A86.55,86.55,0,0,1,367,328.78a104.53,104.53,0,0,1-1.76,44.83,127.12,127.12,0,0,1-18.51,40,176.25,176.25,0,0,1-29.42,32.77q-4.1,3.6-8.35,7c-1.51,1.2.62,3.31,2.12,2.12a193.13,193.13,0,0,0,32-31.8,140.23,140.23,0,0,0,21.95-39,111.4,111.4,0,0,0,6.34-45.74,95.38,95.38,0,0,0-4.4-22.45,72.42,72.42,0,0,0-9.82-20.19,31.38,31.38,0,0,0-7.55-7.57A23.67,23.67,0,0,0,339,284.92c-7.92-1-16.07,1.12-23.75,2.85a252.4,252.4,0,0,0-46.08,14.84,174.87,174.87,0,0,0-40.23,24.22,140.47,140.47,0,0,0-29.05,32,119.16,119.16,0,0,0-16.74,40.63c-3.31,15.63-4.45,31.75-9.38,47a82.5,82.5,0,0,1-4.37,10.87c-.86,1.72,1.73,3.25,2.59,1.51Z"/><path class="cls-11" d="M326.52,500.94c-19.95-5.43-40-10.71-60.31-14.55-19.95-3.77-40.28-6.2-60.62-5.6-19.58.57-39.66,3.87-57.73,11.66-7.48,3.22-15.12,8-18.66,15.69-4.22,9.16-1.69,19.49,2.14,28.31,6.66,15.35,17.85,28.4,31.21,38.35a116.76,116.76,0,0,0,47.33,20.64c20.22,3.93,41.11,3,61.23-1.05a198.49,198.49,0,0,0,29-8.22A125.8,125.8,0,0,0,323.56,575c13.59-8.51,25.7-21.11,29.05-37.27,2.8-13.57.07-29.33-10.1-39.33a30.8,30.8,0,0,0-8.29-5.84c-1.74-.84-3.26,1.75-1.52,2.59,12.46,6,18.13,19.86,17.95,33.12a44.38,44.38,0,0,1-4.85,19.83A60.19,60.19,0,0,1,330,566.72C316.48,577.66,299.5,584,282.88,588.5c-19.23,5.25-39.34,7.71-59.24,5.89a119.15,119.15,0,0,1-49.91-15.75c-13.86-8.21-26-19.5-34.42-33.31-4.5-7.41-8.63-15.93-9.25-24.69a22,22,0,0,1,2.86-13.09,26.49,26.49,0,0,1,8.41-8.28c7.44-4.85,16.31-7.59,24.82-9.88a162.28,162.28,0,0,1,28.53-5c19.52-1.68,39.2-.26,58.52,2.76,19.72,3.08,39.14,7.77,58.42,12.87q7.06,1.88,14.1,3.8a1.51,1.51,0,0,0,.8-2.9Z"/><path class="cls-11" d="M435.82,386.74c38-8.64,76.07-17.25,114.52-23.74,38.26-6.46,77-10.8,115.8-10.75,33.46,0,66.86,3.4,99.35,11.53A332.83,332.83,0,0,1,849.42,397c25.63,14.6,49.09,33.11,68.34,55.53,21,24.4,37.82,53.94,43.08,86,2.77,16.83,1.94,34.29-3.81,50.43-5.22,14.65-14.17,27.63-23.68,39.81-9.34,11.95-19.37,23.38-28,35.86a142.67,142.67,0,0,0-11.64,19.73c-3.18,6.69-5.81,13.62-8.69,20.43-5.64,13.37-12.76,27.26-26.22,34.18-12.22,6.29-26.85,5.33-39.38.48a64.26,64.26,0,0,1-32.1-27.7c-8.44-14.32-12.29-30.87-14-47.27-.83-8-1.15-16.13-1.24-24.22a1.5,1.5,0,0,0-3,0c.33,31.08,4.34,67.82,29.15,89.73,20.25,17.88,53.5,24,73.69,2.74,10.49-11.06,15.34-26,21.18-39.72,6.23-14.69,14.92-27.72,24.78-40.22s20.25-24.32,29-37.52c8.88-13.44,15.41-28.17,17.6-44.22,4.64-34-8.16-68.26-26.41-96.41-16.41-25.3-38-46.93-62.45-64.46-25.05-17.93-53.07-31.55-82.24-41.35a377,377,0,0,0-92.08-18.24c-40-3-80.23-.57-119.94,4.74S502.5,368.71,463.5,377.42q-14.25,3.16-28.48,6.43c-1.88.43-1.09,3.32.8,2.89Z"/><path class="cls-11" d="M399.52,545.05c22,7.73,37.73,26.37,47.32,47,11.66,25.06,13.7,53,14.27,80.22.33,15.34.21,30.69,1.06,46,.74,13.29,2,27.77,10.39,38.74,6.89,9,18.17,14.88,29.57,11.63,9.78-2.78,16.52-11.35,21.06-20,5.67-10.79,8.57-22.7,11.88-34.36q6.48-22.83,13-45.67l3.14-11.06a1.5,1.5,0,0,0-2.9-.79L535.45,702l-6.28,22.11a153.79,153.79,0,0,1-5.27,16c-3.66,9-8.93,18.61-17.59,23.6a21.69,21.69,0,0,1-14.12,2.69,26.75,26.75,0,0,1-14.7-8.15c-9.44-9.8-11.31-24.07-12.15-37.05-1-15-.9-30-1.15-45-.47-27.32-2-55.31-12.65-80.82-8.65-20.65-23-40-43.51-49.94a74.3,74.3,0,0,0-7.72-3.21c-1.82-.64-2.61,2.25-.79,2.89Z"/><path class="cls-11" d="M388,577.66a479.77,479.77,0,0,0,.22,89.76q1.06,11,2.62,21.83a96.18,96.18,0,0,0,3.78,17.2c3.33,9.87,9.71,19.41,20.31,22.15,9.45,2.45,21.27-.44,24.79-10.49.64-1.82-2.26-2.61-2.89-.79-2.8,8-12.44,10.22-20,8.66a21.53,21.53,0,0,1-11.42-6.38,37.52,37.52,0,0,1-8-14A94.55,94.55,0,0,1,393.84,689c-1-6.86-1.82-13.74-2.5-20.63q-2.1-21.27-2.3-42.66a479.27,479.27,0,0,1,2-48.08c.18-1.92-2.82-1.91-3,0Z"/><path class="cls-11" d="M569.25,640.23a418.16,418.16,0,0,0,58.93,9.94,415.27,415.27,0,0,0,60.06,1.39q16.88-.84,33.63-3a1.55,1.55,0,0,0,1.5-1.5,1.5,1.5,0,0,0-1.5-1.5,414,414,0,0,1-119-1.57q-16.56-2.64-32.87-6.61c-1.88-.46-2.68,2.43-.8,2.89Z"/><path class="cls-11" d="M703.44,666.52c1.18,15.4,3.13,31.43,10.87,45.1,6.67,11.81,18.24,20.71,31.87,22.53a29.75,29.75,0,0,0,20.53-4.39c1.6-1.07.1-3.67-1.52-2.6-10.41,7-23.89,4.68-34-1.7-11.91-7.51-18.14-20.63-21.29-33.94a163.26,163.26,0,0,1-3.46-25c-.15-1.92-3.15-1.93-3,0Z"/><path class="cls-11" d="M373.27,386.68c7.94-2.76,16.19-5.55,24.68-5.6,6.77,0,13.62,1.81,18,7.23,3.2,3.93,5.17,9.42,4.46,14.51a11.07,11.07,0,0,1-11.08,9.61c-4.07,0-7.94-1.7-11.34-3.78a58.85,58.85,0,0,1-10.13-8.15c-1.39-1.34-3.52.78-2.13,2.13,5.76,5.57,12.84,11.49,21.05,12.62,6.72.92,13.46-2.42,15.84-8.93,2-5.58.55-12.12-2.4-17.09a22.57,22.57,0,0,0-6.21-6.84,24.32,24.32,0,0,0-10.71-3.94c-10.53-1.51-21,1.92-30.85,5.34-1.81.63-1,3.53.8,2.89Z"/><path class="cls-11" d="M192.39,353.09c-15.17-2.39-30.77,4.87-39.55,17.32a37.2,37.2,0,0,0-5.47,11.6,1.5,1.5,0,0,0,.68,1.69,32,32,0,0,0,28.15-1.53,1.5,1.5,0,0,0-1.51-2.59,28.88,28.88,0,0,1-25.12,1.53l.69,1.69c3.75-13.63,16-23.95,29.69-26.59a34,34,0,0,1,11.64-.23c1.89.3,2.7-2.59.8-2.89Z"/><path class="cls-11" d="M207.16,450.44a59,59,0,0,1-7.38-23.79,60.26,60.26,0,0,1,.19-12.38c.42-3.52,1.07-7.24,2.82-10.38,1.55-2.8,4.26-5,7.64-4.68,3.13.33,5.77,2.73,7.56,5.16,4.48,6.06,5.35,14.19,5,21.52a49,49,0,0,1-8.57,25.23c-1.1,1.6,1.5,3.1,2.59,1.52a51.86,51.86,0,0,0,8.81-24.51c.77-8.11,0-17.43-4.6-24.38-2-3.08-4.83-5.9-8.41-7.07a10.15,10.15,0,0,0-10,2.33c-2.73,2.52-4.13,6.28-4.92,9.82a58,58,0,0,0-1.3,13.34,62.63,62.63,0,0,0,8,29.79,1.5,1.5,0,0,0,2.59-1.52Z"/><path class="cls-11" d="M251.36,435.1c-2.83-8.86-5.63-17.76-8-26.74-1-3.91-2-8.36-.35-12.25a10.7,10.7,0,0,1,5.59-5.43,14.69,14.69,0,0,1,15.85,2.6c5,4.68,6.72,11.89,6.29,18.52-.62,9.41-5.6,18-10.16,26a1.5,1.5,0,0,0,2.59,1.51c4.57-8,9.24-16.38,10.4-25.7.91-7.34-.76-15.35-5.67-21a17.69,17.69,0,0,0-18.1-5.46A13.84,13.84,0,0,0,239.22,403c.58,5.49,2.54,10.87,4.1,16.14q2.48,8.38,5.14,16.73c.59,1.83,3.48,1.05,2.9-.8Z"/><path class="cls-11" d="M232.05,506.32l4.86,20.16a1.52,1.52,0,0,0,2.21.9,14.12,14.12,0,0,0,5.43-18.2c-.86-1.73-3.45-.21-2.59,1.52a11.05,11.05,0,0,1-4.36,14.09l2.2.89-4.86-20.16c-.45-1.88-3.34-1.08-2.89.8Z"/><path class="cls-11" d="M184.91,513.52l5.26,22.56a1.54,1.54,0,0,0,1.85,1,12.53,12.53,0,0,0-2.79-24.8,1.5,1.5,0,0,0,0,3,9.53,9.53,0,0,1,2,18.9l1.84,1-5.25-22.56c-.44-1.88-3.34-1.08-2.9.8Z"/><path class="cls-11" d="M982.6,488.87a61.77,61.77,0,0,1,45,8.3,59.62,59.62,0,0,1,10.37,8.29,1.5,1.5,0,0,0,2.12-2.12,64.92,64.92,0,0,0-44.44-18.69A62.73,62.73,0,0,0,981.81,486c-1.89.4-1.09,3.29.79,2.9Z"/><path d="M630.64,381.64q29.72,21.8,59.45,43.58c3.72,2.73,7.67,5.68,9.73,9.93,2.41,5,.76,10.71-1.4,15.44-4.07,8.89-10.57,16.31-17.61,23-14.31,13.53-31.65,24.91-40.62,43.08-4.23,8.58-6,18.17-4,27.6,1.93,9.12,7,17.42,13.6,23.94,15,14.86,36.95,19.39,57.32,20.26,19.31.83,39.21-1.88,56.77-10.28a76.77,76.77,0,0,0,23-16.43,67.28,67.28,0,0,0,13.67-22.1c6-15.7,6.14-34.3-2.79-48.95-4.67-7.68-11.72-13.43-17.18-20.49A28.14,28.14,0,0,1,774.89,459a18.87,18.87,0,0,1,1.6-12.23c4-8.08,12-13.58,19.7-17.81s16.1-8.33,22.39-14.81a29.38,29.38,0,0,0,6.7-10.64c.64-1.82-2.26-2.61-2.9-.8-3,8.36-10.41,13.81-17.76,18.14-7.79,4.6-16,8.33-22.84,14.45-6.55,5.89-11.33,13.9-10,23,1.23,8.68,7.57,15.43,13.3,21.58a93.72,93.72,0,0,1,8.61,10.05,43.62,43.62,0,0,1,5.59,11,52.52,52.52,0,0,1,1.93,24.55,64.79,64.79,0,0,1-27,43.24c-15.8,11.1-35.2,15.89-54.29,16.74a140.66,140.66,0,0,1-30.19-1.81c-10.36-1.8-20.57-5.09-29.44-10.86A50.65,50.65,0,0,1,642,552.15a37.74,37.74,0,0,1-2-27.12c5.79-19.08,22.91-31.63,37.21-44.2,7.26-6.38,14.31-13.18,19.64-21.31s10.4-19.1,4.28-28c-2.78-4-6.87-6.92-10.78-9.79L675.74,411l-29.33-21.5-14.26-10.45c-1.56-1.14-3,1.46-1.51,2.59Z"/><path d="M1202.78,390.63q63.43-.13,126.87-.23t126.87-.16l63.83-.06c10.11,0,20.25-.18,30.36,0,8.39.18,17.07.83,24.88,4.16,15.88,6.79,21.23,23.8,23.11,39.65,2.36,20,1.93,40.29,1.63,60.37q-1,63.58-2,127.18l-.24,15.56c0,1.93,3,1.93,3,0q1-64.62,2-129.24c.32-21,.91-42.08-.48-63.07-1-15.62-2.89-33.38-14.26-45.26-12.36-12.91-31.58-12.4-48.09-12.39l-64.23.05q-64.43.06-128.86.16l-128.46.21-16,0a1.5,1.5,0,0,0,0,3Z"/><path d="M1570.88,689.3,1619.14,660c11.47-7,24.52-15.09,29.13-28.46a38.22,38.22,0,0,0,1.6-13c-.06-4.85-.32-9.74,1.23-14.41l-2.51.66a26.73,26.73,0,0,1,6.67,25,1.51,1.51,0,0,0,2.5,1.46A134.33,134.33,0,0,0,1677,608.05l-2.74-.36a25.84,25.84,0,0,1-8.33,26.58,1.51,1.51,0,0,0,.66,2.5c3.68.91,7.45.69,11.2.77,3.41.08,7.17.5,9.7,3.05,4.31,4.36,3.44,12-2.15,14.77a9.67,9.67,0,0,1-9.38-.4l.54,2a7.86,7.86,0,0,0-1-8.42c-2.18-2.84-5.63-4-9.12-4a26.87,26.87,0,0,0-5.51.6,9.78,9.78,0,0,0-4.82,2c-2.35,2.1-2,5.7-.3,8.08,2.43,3.36,6.87,3.71,10.67,3.77l-1.29-2.26c-3.75,6.46-14.61,7-18.84.75a1.52,1.52,0,0,0-2.59,0A439,439,0,0,0,1602.08,736q-4.69,11.6-8.73,23.43c-.62,1.84,2.28,2.62,2.9.8A435.42,435.42,0,0,1,1633,680.15q6.35-10.77,13.29-21.18h-2.59c5.46,8.08,19.09,7.76,24-.75a1.51,1.51,0,0,0-1.3-2.25c-2.79-.05-6.64,0-8.36-2.69a3.54,3.54,0,0,1-.48-3.32c.69-1.4,2.73-1.64,4.09-1.91,3.16-.62,6.91-1,9.78.8,2.08,1.32,3.73,4.24,2.51,6.65a1.53,1.53,0,0,0,.54,2c6.26,4,15.43,1.17,18.06-5.84a13,13,0,0,0-.86-10.46,12.61,12.61,0,0,0-9.26-6.3c-5-.86-10.09.14-15-1.07l.66,2.51a28.78,28.78,0,0,0,9.1-29.5,1.52,1.52,0,0,0-2.74-.36,131,131,0,0,1-18.79,22.56l2.51,1.46a29.81,29.81,0,0,0-7.44-27.9,1.51,1.51,0,0,0-2.5.66c-2.64,8-.21,16.43-2,24.51-1.45,6.55-5.46,12-10.28,16.58-5,4.71-10.81,8.46-16.65,12q-11.6,7.07-23.21,14.08l-26.7,16.2a1.5,1.5,0,0,0,1.52,2.59Z"/><path d="M1181.92,391.28c-7.27-1.95-14.69.28-20.54,4.8-6.47,5-10.23,12.48-12.33,20.25-2.41,8.92-3.08,18.36-3.69,27.54-.69,10.48-.86,21-.8,31.48.1,20.72,1,41.43.56,62.15-.45,19.72-1.94,39.41-4,59-4.18,39.5-10.72,78.69-16.13,118-5.31,38.6-9.61,77.48-9.23,116.49a411.72,411.72,0,0,0,4.39,57.42c1.38,9.17,2.75,18.61,5.42,27.5,2.29,7.66,6.76,13.39,14.18,16.59,8.22,3.55,17.58,4.89,26.28,6.74q14.68,3.11,29.47,5.66c19.65,3.42,39.41,6.14,59.23,8.29,40.18,4.35,80.59,6.28,121,6.72,40.59.43,81.18-.64,121.73-2.34,20.1-.83,40.19-1.83,60.28-2.86,9.64-.5,19.53-.44,29.11-1.72,7.44-1,13.61-4.48,17.06-11.31s4-14.61,4.68-22.08q1.35-15.48,2.17-31,1.66-31.3,1.16-62.68-.24-15.26-1-30.5c-.09-1.92-3.09-1.94-3,0a916.37,916.37,0,0,1-2.06,120.86c-.66,7.93-.88,16.63-4.55,23.88-4.25,8.41-12.37,9.9-21,10.37q-29.29,1.57-58.59,3c-39.13,1.83-78.28,3.26-117.45,3.47s-78.08-.77-117-3.77a934,934,0,0,1-116.23-16c-9-1.84-18.21-3.4-26.9-6.26a24.91,24.91,0,0,1-10.57-6.15c-3-3.15-4.49-7.3-5.58-11.41-4.82-18.19-6.93-37.43-8.22-56.16-2.58-37.6,0-75.33,4.38-112.7,4.44-38,10.75-75.7,15.81-113.59,5.08-38,8.69-76.24,8.28-114.67-.22-20.29-1.09-40.58-.42-60.87a253,253,0,0,1,2.35-29.49c1.29-8.6,3.62-17.77,9.64-24.35,5.36-5.86,13.39-9.57,21.33-7.44a1.5,1.5,0,0,0,.8-2.89Z"/><path d="M1464,948.47a61.4,61.4,0,0,1-2.72,21c-.58,1.84,2.31,2.63,2.89.79a63.7,63.7,0,0,0,2.83-21.82c-.09-1.92-3.09-1.93-3,0Z"/><path d="M1448.91,953.78l-1.64,15.93a1.5,1.5,0,0,0,3,0l1.64-15.93a1.5,1.5,0,0,0-1.5-1.5,1.54,1.54,0,0,0-1.5,1.5Z"/><path d="M1437.71,951.91l-6.24,22.73a1.5,1.5,0,0,0,2.89.79l6.24-22.72a1.5,1.5,0,0,0-2.89-.8Z"/><path d="M1278.36,945.31a49.63,49.63,0,0,0-3.84,20.42c0,1.93,3,1.94,3,0a47.52,47.52,0,0,1,3.74-19.62,1.51,1.51,0,0,0-1-1.85,1.54,1.54,0,0,0-1.85,1Z"/><path d="M1256.91,944l-3.16,20.08a1.55,1.55,0,0,0,1,1.85,1.51,1.51,0,0,0,1.84-1l3.16-20.08a1.55,1.55,0,0,0-1-1.85,1.52,1.52,0,0,0-1.85,1Z"/><path d="M1267.62,945.29l-5.53,17.23c-.59,1.84,2.3,2.63,2.89.8l5.53-17.23c.6-1.84-2.3-2.63-2.89-.8Z"/><path d="M1671.31,661.51a3.88,3.88,0,0,0,.06-2.16,2.2,2.2,0,0,0,0-.36l-.26.16c-.3.07-.36.14-.17.21,0,.12.52.85.61,1a4.54,4.54,0,0,0,3.62,3.06c1.78.28,3.64,0,5.44.18a22.17,22.17,0,0,1,6,1.3,14.58,14.58,0,0,1,7.78,6.48c1.51,2.79,1.81,6.09,2.21,9.18s.85,6.38,2.46,9.16a13,13,0,0,0,7.41,5.66c3.29,1.08,6.8,1.24,10.2,1.78a58.67,58.67,0,0,1,12.07,3.25c.89.34,1.77.71,2.63,1.1.22.1.54.36.76.36.52,0-.47-.46-.27-.5a6.71,6.71,0,0,0-.5,1.22,23.32,23.32,0,0,1-2.62,4.37,30.2,30.2,0,0,1-7.63,6.89c-6.68,4.34-14.46,6.42-22,8.74-8,2.47-16,5.48-24.44,6.09l-1.41.08c-.4,0-1.29-.16-1.64,0h-.23l.4.56a5,5,0,0,0,0-.65c0-.59,0-1.17,0-1.76a22.28,22.28,0,0,1,1.11-5.82c1.22-3.7,4-6.76,4.59-10.67a31.74,31.74,0,0,0,.19-5.93,16.4,16.4,0,0,0-.93-5.51c-1.34-3.36-4.54-4.95-7-7.42a18,18,0,0,1-.68-24.32c1.26-1.46-.86-3.59-2.12-2.12a21.16,21.16,0,0,0-3.77,21.69,22.22,22.22,0,0,0,6.93,9.05c1.45,1.16,3,2.34,3.78,4.11a16.37,16.37,0,0,1,.78,6,14.74,14.74,0,0,1-.93,6.42c-.86,2-2.09,3.71-2.93,5.67a24.55,24.55,0,0,0-1.77,6c-.29,1.85-.73,4.32-.12,6.13.7,2.07,3.57,1.53,5.24,1.43a55.11,55.11,0,0,0,6.66-.85,114,114,0,0,0,13.22-3.53c14.64-4.62,33.94-8.45,40.39-24.45a3.07,3.07,0,0,0,.2-2.61c-.42-.85-1.41-1.18-2.22-1.54a64.37,64.37,0,0,0-6.2-2.37,70,70,0,0,0-12.57-2.61c-3.41-.43-7.29-.89-10-3.16s-3.44-5.7-3.91-9c-.51-3.51-.73-7.1-2.13-10.41a16.54,16.54,0,0,0-7.27-7.85,24.86,24.86,0,0,0-12.27-2.83,10,10,0,0,1-2.67-.09c-1-.29-1.09-1.28-1.52-2.11-.74-1.42-2.44-2.54-4.06-1.81a2.52,2.52,0,0,0-1.39,1.79c-.17.79.2,1.61,0,2.37a1.5,1.5,0,0,0,2.89.8Z"/><path d="M1729.75,713a4.51,4.51,0,0,0,.18,1.5s.08.23,0,.26c0-.22,0-.25,0-.08v.11c0,.17-.08.28,0-.07l-.06.23c0,.25.14-.23,0-.09s-.07.14-.11.21a1.77,1.77,0,0,0-.12.17c.16-.19.18-.23.08-.11l0,.07-.38.35c-.19.18.21-.15.06,0l-.21.15a8.94,8.94,0,0,1-.84.51l-.49.25-.29.14c-.08,0-.35.22,0,0a2.55,2.55,0,0,1-.55.19c-.07,0-.5.18-.56.13l.14,0h-.15c-.07,0-.23,0-.3,0l.2,0-.19,0c-.1,0-.38-.16,0,0a1.62,1.62,0,0,0-1.16-.15,1.5,1.5,0,0,0-.36,2.74,4.47,4.47,0,0,0,3.55.1,12,12,0,0,0,2.57-1.31,5,5,0,0,0,2-2.35,3,3,0,0,0,.17-1.43c0-.36-.12-.69-.19-1l0-.16c0-.12,0-.07,0,.14-.06,0,0-.36,0-.42a1.59,1.59,0,0,0-.44-1.07,1.51,1.51,0,0,0-1.06-.43,1.53,1.53,0,0,0-1.5,1.5Z"/><path d="M1206.13,538.15l59.74-29.24,59.75-29.24,33.67-16.48a1.51,1.51,0,0,0,.54-2.05c-4.27-6.45-9.33-13.88-8.75-22,.43-6,4.76-12.71,11.31-12.8l-1.3-.74,31.53,63.48,31.38,63.2,15.6,31.41,7.93,16c2.52,5.07,5.22,10.09,7.51,15.26,2,4.52,3.88,10.1,1.79,14.93-1.94,4.47-6.83,7.53-10.49,10.48q-11.89,9.57-24.41,18.3a461.43,461.43,0,0,1-52.4,31.64,457.21,457.21,0,0,1-56,24.35q-14.29,5.11-28.92,9.26c-5,1.41-10.72,3.73-15.94,2.57-4.55-1-7.91-4.64-10.51-8.3-6.32-8.84-10.86-18.88-15.43-28.69q-7.43-15.9-14.83-31.8L1198,593.53l-14.83-31.79c-3.5-7.51-7.35-15.94-6.39-24.46a13.65,13.65,0,0,1,4.93-9.3l-2.35-.3a30.27,30.27,0,0,0,16,14.87c1.79.72,2.57-2.18.8-2.9a27.17,27.17,0,0,1-14.24-13.48,1.52,1.52,0,0,0-2.36-.31c-6.54,5.35-6.7,14.19-4.92,21.81a64.85,64.85,0,0,0,4.28,12.09c2.45,5.39,5,10.74,7.51,16.1l30.68,65.78,15.34,32.9c4.93,10.58,9.63,21.33,15,31.68a106.19,106.19,0,0,0,8.46,14c2.69,3.65,5.94,7.07,10.31,8.65,5.1,1.84,10.58.25,15.59-1.13s10.07-2.86,15.07-4.43a462.77,462.77,0,0,0,113.27-53.19q13.18-8.55,25.76-18,6.22-4.67,12.29-9.54c3.77-3,8.33-6,10.72-10.36,2.49-4.5,2-9.79.39-14.5-1.78-5.31-4.6-10.28-7.08-15.28L1436.14,570l-32.31-65.06-32.34-65.11-7.81-15.74a1.47,1.47,0,0,0-1.29-.74c-7.64.1-13.06,7.09-14.12,14.18-1.39,9.24,4.11,17.79,9,25.14l.54-2.06L1298,489.84l-59.74,29.24-33.68,16.48c-1.73.85-.21,3.44,1.52,2.59Z"/><path d="M1262,578.41c-.21.17,0,0,0,0l-.19.13c-.12.08-.25.15-.38.22l-.2.1s.3-.11,0,0l-.42.12c-.14,0-.28.06-.43.09.4-.08,0,0-.15,0-.3,0-.59,0-.89,0,.39,0,0,0-.16,0l-.45-.1-.44-.14-.22-.08c-.27-.1.14.08,0,0s-.53-.26-.78-.41l-.4-.25-.19-.14c-.23-.16.1.1,0,0s-.44-.39-.64-.6l-.31-.35c-.18-.21,0,0,0,0l-.16-.23c-.17-.25-.3-.5-.44-.75l0,0-.09-.22a4,4,0,0,1-.15-.49c0-.07,0-.15,0-.22s-.06-.3,0-.09,0,0,0-.09,0-.15,0-.23a2.8,2.8,0,0,1,0-.41,1.94,1.94,0,0,1,0-.24c0-.36-.08.31,0,0s.16-.52.23-.78-.14.23,0,.07,0-.1.07-.15a4,4,0,0,1,.26-.45c0-.06.25-.35.13-.19l.18-.21.3-.3c.09-.08.46-.36.15-.14a7.65,7.65,0,0,1,.67-.43l.38-.2.06,0,.12-.05c.28-.1.55-.18.83-.25l.38-.07s.29-.05.06,0,.08,0,.13,0a6.17,6.17,0,0,1,.86,0c.13,0,.25,0,.38,0s-.28-.06-.08,0l.26,0a7.71,7.71,0,0,1,.82.24c.09,0,.22.13-.06,0l.19.1a2.82,2.82,0,0,1,.38.21l.36.24c-.32-.22,0,.06.11.12s.22.21.32.32l.15.17c-.09-.09-.11-.15,0,0a8.44,8.44,0,0,1,.47.83c-.14-.3,0,.09,0,.19a4.77,4.77,0,0,1,.13.51c0,.14,0,.43,0,.12,0,.15,0,.3,0,.46s0,.31,0,.46,0,.16,0,.24c0,.29,0-.18,0,0-.08.35-.14.69-.25,1a5,5,0,0,1-.18.5c.13-.32-.07.14-.12.23-.16.31-.37.59-.55.89s.16-.18,0,0-.12.15-.19.22a4.17,4.17,0,0,1-.36.37,3.9,3.9,0,0,1-.38.33c.27-.21-.11.07-.2.13a3.75,3.75,0,0,1-.44.24l-.2.1c.17-.08.18-.07,0,0l-.48.14-.22.05c-.27.06.2,0,0,0s-.35,0-.52,0h-.23c-.32,0,.29,0-.06,0a1.54,1.54,0,0,0-1.85,1,1.51,1.51,0,0,0,1,1.84,6.2,6.2,0,0,0,4.86-1.1,8.39,8.39,0,0,0,2.93-4.14,7.3,7.3,0,0,0-.08-4.86,6.6,6.6,0,0,0-3.69-3.71,7.89,7.89,0,0,0-8.47,1.93,6.26,6.26,0,0,0-1.71,4.48,7.25,7.25,0,0,0,2,4.64,8.67,8.67,0,0,0,4.68,2.64,6.6,6.6,0,0,0,5.55-1.34,1.51,1.51,0,0,0,0-2.12,1.53,1.53,0,0,0-2.12,0Z"/><path d="M1333.53,537.8c-.16.28-.16.32-.56.38a2.27,2.27,0,0,1-1-.17,1.93,1.93,0,0,1-.94-2.12c.27-2.51,2.6-4.72,4.7-5.86a6.61,6.61,0,0,1,6.86,0c1.66,1.09,3,3.35,2.09,5.31s-3.25,3-5,1.86-3.13,1.55-1.51,2.59c2.94,1.89,6.78.43,8.66-2.25,2.11-3,1-7-1.69-9.3a9.5,9.5,0,0,0-10.72-.94c-3.27,1.67-6.69,5.41-6.41,9.33a4.72,4.72,0,0,0,3.32,4.31,4,4,0,0,0,4.74-1.65c.92-1.7-1.67-3.21-2.59-1.51Z"/><path d="M1238.9,614.11q24-9.86,47.52-21.06t46.29-23.82q22.89-12.63,45-26.58c3.16-2,7-4.77,10.28-1.42a24.5,24.5,0,0,1,3.12,4.6c1.09,1.84,2.16,3.7,3.22,5.56q6.35,11.19,11.83,22.84t10,23.52c1.53,4,3,8,4.35,12.11s3,8.21,3.71,12.43c1.23,7.46-4.58,12.33-10.42,15.7-3.57,2.06-7.31,3.84-11,5.72l-12.45,6.36-49.58,25.36-24.9,12.73-12.23,6.26a95.44,95.44,0,0,1-12.11,5.7c-3.91,1.34-8,1.86-12,.33a22.45,22.45,0,0,1-8.37-6.43,92,92,0,0,1-6.76-9.07q-3.43-5.06-6.56-10.31a193.84,193.84,0,0,1-19.4-44.81q-1.63-5.66-2.93-11.41c-.42-1.89-3.32-1.09-2.89.79a197.2,197.2,0,0,0,17.13,47,193.47,193.47,0,0,0,12.93,21.5c4.18,6,8.77,12.76,15.87,15.56,8.51,3.35,17.14-1.45,24.58-5.25L1328.75,685l51.14-26.15,25.57-13.07c6.5-3.33,14.11-6.38,18.74-12.31a14.33,14.33,0,0,0,3.19-9.68c-.26-4.42-2-8.77-3.4-12.94q-4.15-12.52-9.28-24.72T1403.6,562.2q-3-5.93-6.32-11.72c-2-3.53-3.87-7.35-6.41-10.52a8.12,8.12,0,0,0-10.16-2.47,43.17,43.17,0,0,0-5.68,3.32c-1.84,1.15-3.69,2.31-5.54,3.45q-11.52,7.13-23.25,13.89Q1323,571.58,1299,583.59t-48.72,22.56q-6,2.58-12.13,5.07c-1.76.72-1,3.63.8,2.89Z"/><path d="M1286.8,600,1334,579.22c.54-.23,1.07-.48,1.6-.7.06,0,.9-.41.76-.45.31.09.74,1.92.84,2.23a14.39,14.39,0,0,1,.9,4.89c-.12,3.95-3.94,5.26-7,6.76l-23.26,11.52-6.49,3.21a43.4,43.4,0,0,1-6.22,2.81c-1.82.56-3.91.83-5.57-.29-1.15-.77-2.31-2.36-1.66-3.79.79-1.75-1.8-3.27-2.59-1.52-1.55,3.4.54,7,3.81,8.46,4.09,1.78,8.53-.5,12.18-2.31l27.06-13.4c2.21-1.09,4.42-2.16,6.62-3.27a12.12,12.12,0,0,0,4.6-3.5c2.37-3.26,1.47-7.6.22-11.11-.6-1.69-1.24-3.62-3.38-3.58a7.59,7.59,0,0,0-2.83,1l-3.42,1.51-13.9,6.13-31,13.67c-1.76.77-.23,3.36,1.52,2.59Z"/><path d="M1281.9,642.34a42.46,42.46,0,0,0,45.6.61l-2.21-1.69c-3.51,8.36-7.75,18.15-16.82,21.74-7.85,3.1-16.23-1-21.07-7.35a21.75,21.75,0,0,1-3.33-6.11c-.67-2-1.14-4.64.41-6.38,1.28-1.43-.84-3.56-2.12-2.12-3.41,3.84-1.59,9.38.63,13.33a26.17,26.17,0,0,0,10,10.09,19.77,19.77,0,0,0,13.44,2.26c4.93-1,9.28-4.14,12.52-7.9,4.2-4.9,6.72-10.88,9.2-16.77.51-1.23-1.18-2.34-2.21-1.69a39.49,39.49,0,0,1-42.57-.61c-1.6-1.08-3.11,1.52-1.51,2.59Z"/><path d="M1256.56,576a5.27,5.27,0,0,1-.56.19l-.19,0-.09,0c-.17,0-.13,0,.1,0-.15,0-.32,0-.48,0h-.1c-.16,0-.12,0,.11,0a1.15,1.15,0,0,0-.28-.06,1.12,1.12,0,0,1-.26-.08s.35.17.14,0l-.2-.12s-.26-.19,0,0,0,0,0,0-.14-.12-.16-.18.21.33.09.12-.1-.2-.15-.27c.18.22.1.28.06.14a1.55,1.55,0,0,0-.06-.23c.12.25,0,.32,0,.12,0,0,0-.19,0-.23l0,.22a1.16,1.16,0,0,1,0-.18,1.21,1.21,0,0,0,0-.18c.09-.31-.16.3,0,0l.16-.29.12-.17c.15-.24-.25.28-.06.07l.24-.26a3.08,3.08,0,0,0,.27-.24c-.31.31-.17.14-.07.07l.18-.12.32-.18c.12-.05.34-.1-.09,0l.16-.07.38-.11.14,0c.38-.07-.31,0-.06,0l.35,0,.2,0c.12,0,.2.07-.2,0l.36.08.16.06c-.43-.13-.22-.1-.09,0l.15.08c.14.1.14.2-.08-.07a1.24,1.24,0,0,0,.25.26c-.22-.17-.17-.24-.07-.1l.09.16c0,.07.06.14.1.2-.2-.34-.09-.22,0-.08s0,.24.09.36c-.12-.41,0-.25,0-.1v.22c0,.05,0,.1,0,.15,0-.44,0-.24,0-.1s0,.12,0,.17l0,.11q-.09.21.06-.15c-.07.11-.16.26-.22.38.17-.33.15-.19,0-.08s-.12.1-.16.15c.21-.26.21-.15.06-.06a1.18,1.18,0,0,1-.19.11c-.13.07-.31.08.09,0l-.21.07-.22.05c-.27.07.38,0,.1,0h-.44c.37,0,.28,0,.1,0l-.21,0c-.18-.06-.19-.16.08,0-.08-.06-.18-.09-.26-.14a1.51,1.51,0,0,0-2,.53,1.54,1.54,0,0,0,.54,2.06,4,4,0,0,0,2.86.48,3.85,3.85,0,0,0,2.41-1.55,4,4,0,0,0-.51-5.12,4.48,4.48,0,0,0-5-.49,4.59,4.59,0,0,0-2.7,4.77,3.66,3.66,0,0,0,2,2.46,4.86,4.86,0,0,0,3.78.05,1.59,1.59,0,0,0,.89-.68,1.52,1.52,0,0,0,.15-1.16,1.5,1.5,0,0,0-1.84-1Z"/><path d="M1334.35,538.25a5,5,0,0,0-2.28-.23l-1,0c-.2,0,.31.07.12,0L1331,538l-.18-.06c-.17-.05.29.16.06,0l-.16-.09c-.23-.13.08,0,.08.07l-.15-.16c-.16-.1.19.25.08.1s-.15-.21,0,0,0-.15,0,.14,0-.18,0,.16c0,.14,0,.15,0,0l-.07.18c.11-.24,0,.05-.06.06s.11-.12.14-.15l.19-.17s.21-.16.06,0,0,0,.09-.06l.2-.14a5.15,5.15,0,0,1,.45-.32,9.76,9.76,0,0,1,.89-.51l.22-.1c.2-.1-.24.07,0,0s.33-.12.5-.16l.29-.07s.29,0,.08,0h.54c.22,0-.25-.07,0,0l.22,0c.3.09,0,0,0,0s.2.1.23.12.23.07.05,0,0,0,0,0l0,0c.09.1.09.1,0,0l-.06-.08.08.12c.12.14-.08-.29,0-.1s.07.26,0,0,0-.14,0,0c0-.23,0-.29,0-.17-.09.33.17-.23,0,.06s.2-.2-.06.06l-.14.13c-.14.13.24-.17.08-.06s-.28.19-.43.27c-.69.39-1.44.7-2.16,1l-1.18.56s-.22.13-.25.12l.13-.05c-.12,0,0,0,.21,0h-.16l.26,0c.58.2.86.71.81,1.52a1.5,1.5,0,1,0-2.89-.8c-.46,1.6,1.25,2.56,2.6,2.14a11.38,11.38,0,0,0,1.55-.71l1.49-.72a6.93,6.93,0,0,0,2.3-1.46,2.85,2.85,0,0,0,.46-3.35,3.62,3.62,0,0,0-2.55-1.73,5.84,5.84,0,0,0-3.41.53,11.56,11.56,0,0,0-2.45,1.59,2.7,2.7,0,0,0-1.08,2.94,3.37,3.37,0,0,0,2.63,2.1,7.74,7.74,0,0,0,1.8,0h.72c.36,0-.28-.1.06,0a3.36,3.36,0,0,1,.45.14,1.52,1.52,0,0,0,1.16-.15,1.5,1.5,0,0,0-.36-2.74Z"/><path class="cls-11" d="M257.33,414.91l-.81-.58-.23-.17s.19.16,0,0l-.44-.36a9.28,9.28,0,0,1-.71-.69c0-.05-.36-.45-.21-.24a4.63,4.63,0,0,1-.31-.46c-.08-.13-.14-.27-.22-.41s.06.22,0,0l-.06-.19a4.1,4.1,0,0,1-.14-.5s0-.24,0-.06,0-.15,0-.19,0-.3,0-.45-.07.23,0,0a1.16,1.16,0,0,0,0-.18,2.25,2.25,0,0,1,.08-.24c0-.1.13-.2,0,0,0-.06.06-.12.09-.17s.17-.23,0-.07c.1-.12.22-.22.32-.33s-.18.1,0,0l.16-.11c.06,0,.52-.26.24-.14a2.78,2.78,0,0,1,.51-.17l.45-.1c.23-.05-.24,0,0,0l.19,0h.5l.19,0c.18,0-.24-.06,0,0a6.28,6.28,0,0,1,.85.23c.27.09.05,0,0,0l.23.11.43.25s.21.18,0,0l.14.12c.11.1.21.2.31.31s0,0,0,0l.13.2c.08.13.15.26.22.4-.14-.3,0,.06,0,.18s0,.15.05.23c.07.27,0-.19,0,0s0,.31,0,.46v.09c0-.22,0,.1,0,.13s-.09.29-.13.44c0-.05.15-.29,0-.05l-.1.19c0,.07-.09.13-.12.19.09-.15.12-.13,0,0a4,4,0,0,1-.38.34,1.5,1.5,0,0,0,0,2.12,1.54,1.54,0,0,0,2.12,0,4.8,4.8,0,0,0,1.47-4.87,5.47,5.47,0,0,0-3.82-3.78,6.21,6.21,0,0,0-5.35.78,4.8,4.8,0,0,0-1.58,5.57c.77,2.15,2.55,3.52,4.36,4.8a1.51,1.51,0,0,0,2.05-.54,1.54,1.54,0,0,0-.54-2.06Z"/><path class="cls-11" d="M215.09,422.67l.09,0-.18-.08-.36-.17c-.27-.13-.54-.27-.8-.42l-.34-.21-.16-.12c-.19-.13.06.07.07.06s-.52-.48-.59-.55c-.24-.26.14.24,0-.06a3.3,3.3,0,0,0-.18-.32c-.1-.16.11.36,0,.07a1.21,1.21,0,0,1,0-.18s0-.17,0-.18,0,.37,0,.07c0-.07,0-.14,0-.21s-.07.28,0,.09.07-.27.11-.4-.14.24,0,.07l.09-.19.12-.18c.17-.26,0,0,0,0s.27-.28.3-.31l.16-.15c.22-.2,0,0-.05,0a4.18,4.18,0,0,0,.36-.23l.19-.1c.35-.18-.27.09.09,0a7.9,7.9,0,0,1,.95-.27c.16,0,.32-.06.49-.09s.27-.07,0,0a1.55,1.55,0,0,1,.31,0l1-.07.46,0c.22,0-.26-.05-.06,0s-.19-.09-.25-.15c-.32-.32.09,0,.05.12s-.11-.27,0-.07.05.12.07.19c.11.29.22.58.31.88s.17.64.23,1c0,.08,0,.27,0,.06s0,0,0,.1a4.18,4.18,0,0,1,0,.5c0,.06,0,.13,0,.19,0,.27.07-.24,0-.07a4.1,4.1,0,0,0-.11.4c-.05-.06.15-.29,0-.1s-.09.16-.14.24,0-.11.07-.08l-.2.21a1.51,1.51,0,0,0,0,2.13,1.54,1.54,0,0,0,2.12,0,4.91,4.91,0,0,0,1-4.88,9.55,9.55,0,0,0-.82-2.26,2.5,2.5,0,0,0-1.38-1.2,3.69,3.69,0,0,0-1.55-.13,8.46,8.46,0,0,0-5.31,1.73,4.25,4.25,0,0,0-1.05,5.1c.82,1.64,2.66,2.5,4.27,3.17a1.5,1.5,0,0,0,1.84-1.05,1.55,1.55,0,0,0-1-1.85Z"/><path class="cls-11" d="M240,564.48c4.17-2.76,9.2-3.36,13.84-5a33.8,33.8,0,0,0,11.68-7c7.34-6.6,11.79-15.69,14.51-25A159.74,159.74,0,0,0,284,509.17h-2.89A199,199,0,0,1,287.27,534c1.25,7.09,1.87,15-1.1,21.72-2.79,6.37-8.74,11-15,13.8a38.67,38.67,0,0,1-18.76,3,36,36,0,0,1-19.82-7.84c-1.48-1.22-3.62.89-2.12,2.12,10.76,8.87,26.13,11.18,39.21,6.51,6.8-2.43,13.3-6.79,17.31-12.89,4.35-6.61,4.76-14.88,3.84-22.51-1.2-10-3.9-20-6.91-29.58-.4-1.3-2.63-1.55-2.89,0-1.73,10.33-3.63,20.94-8.59,30.29-4.09,7.7-10.44,14.73-18.8,17.77-5.06,1.84-10.58,2.43-15.15,5.46-1.6,1.06-.1,3.66,1.52,2.59Z"/></svg>