<svg id="Layer_1" data-name="Layer 1" xmlns="http://www.w3.org/2000/svg" viewBox="0 0 1920 1080"><defs><style>.cls-1{fill:#4d4d4d;}.cls-2{font-size:60px;font-family:VarelaRound-Regular, Varela Round;}.cls-3{letter-spacing:-0.01em;}.cls-4{letter-spacing:-0.01em;}.cls-5{letter-spacing:-0.01em;}.cls-6{letter-spacing:-0.03em;}.cls-7{letter-spacing:0em;}.cls-8{letter-spacing:-0.01em;}.cls-9{letter-spacing:-0.02em;}.cls-10{letter-spacing:-0.01em;}.cls-11{letter-spacing:-0.01em;}.cls-12{letter-spacing:0em;}.cls-13{letter-spacing:0em;}</style></defs><title>42-teeth</title><path class="cls-1" d="M287.07,454.68c3.5,12.47,12.85,21.82,19.37,32.68a48.91,48.91,0,0,1,4.61,9.69c.62,1.82,3.52,1,2.9-.8-4.13-12.26-13.55-21.46-19.81-32.55a44.31,44.31,0,0,1-4.18-9.82,1.5,1.5,0,0,0-2.89.8Z"/><path class="cls-1" d="M290.05,454.58c14.38,7.46,28.81,14.83,43.44,21.76q6.33,3,12.69,5.88a1.56,1.56,0,0,0,2.05-.54c4.8-6.29,12.47-10.22,20.09-11.84L366.47,468a4.65,4.65,0,0,1-.45,1.08c0,.07-.43.51-.43.55s-.11-.09,0,0c.38.2.58-.17.89.43.07.15.22.62.1.45.11.16-.38.21,0,0a12.18,12.18,0,0,1,1.69-.69L366.47,468l-4.69,15.23c-1.12,3.64-2.95,7.46-2.39,11.37a8.49,8.49,0,0,0,6.53,6.84c3.17.72,6.47-.07,9.55-.82,3.25-.8,6.9-2,10.19-.85l-.66-2.51a184.49,184.49,0,0,0-17.54,25.23,1.5,1.5,0,0,0,2.59,1.51,179.77,179.77,0,0,1,17.07-24.62,1.53,1.53,0,0,0-.66-2.51c-5.76-2-11.64,1.62-17.38,1.84-2.66.11-5.63-.91-6.54-3.7-1.08-3.31.95-7.15,1.91-10.27q2.48-8,4.91-15.94a1.51,1.51,0,0,0-1.84-1.84,5.41,5.41,0,0,0-3.55,2.13,2.36,2.36,0,0,0,.23,2.84c2.24,2.32,4.57-1.32,5.16-3.13a1.51,1.51,0,0,0-1.84-1.84c-8.45,1.79-16.59,6.29-21.88,13.22l2.06-.54c-14.7-6.65-29.17-13.79-43.53-21.14q-6.32-3.23-12.6-6.5c-1.71-.89-3.23,1.7-1.52,2.59Z"/><path class="cls-1" d="M312.37,523.34l9.68,52.24c1.61,8.67,3.4,17.35,4.09,26.16a86.27,86.27,0,0,1-1.68,24.88,105.24,105.24,0,0,1-3.81,13.27c-.79,2.2-1.63,4.37-2.55,6.51-.19.44-1.9,4.17-2.76,3.39-1.43-1.3-3.56.82-2.13,2.12,3.06,2.77,6.23-1.1,7.39-3.78a122.51,122.51,0,0,0,4.54-12.25,93.41,93.41,0,0,0,4.27-26c.15-9.29-1.4-18.51-3.07-27.62q-2.58-14-5.2-28l-5.88-31.73c-.35-1.9-3.24-1.1-2.89.79Z"/><path class="cls-1" d="M295.76,458.19c0-.09,0-.17,0-.26l0,.4a2.39,2.39,0,0,1,.15-.54l-.15.35a2.74,2.74,0,0,1,.29-.49l-.24.31a2.4,2.4,0,0,1,.45-.45l-.3.23a2.15,2.15,0,0,1,.49-.28l-.36.15a2.16,2.16,0,0,1,.55-.16l-.4.06a2.16,2.16,0,0,1,.44,0l-1.45-1.9c-.08.22-.17.45-.26.67l.15-.36a7.22,7.22,0,0,1-.82,1.49l.23-.31a3.64,3.64,0,0,1-.61.63l.3-.24a3,3,0,0,1-.54.32l.36-.15a2.13,2.13,0,0,1-.43.13l.39-.06a2,2,0,0,1-.42,0l.4,0a1.84,1.84,0,0,1-.51-.14l.36.15a2.62,2.62,0,0,1-.51-.3l.3.23a2.53,2.53,0,0,1-.36-.37l.23.31a2.33,2.33,0,0,1-.2-.34l.16.36a1,1,0,0,1-.09-.32l.05.4a1.22,1.22,0,0,1,0-.27l-.06.4a1.2,1.2,0,0,1,.08-.27l-.16.36a1.59,1.59,0,0,1,.13-.22l-.23.31,0-.05a1.61,1.61,0,0,0,.44-1.06,1.53,1.53,0,0,0-.44-1.06,1.56,1.56,0,0,0-1.06-.44,1.48,1.48,0,0,0-1.06.44,3.08,3.08,0,0,0-.47.74,2.64,2.64,0,0,0-.2.85,2.6,2.6,0,0,0,.29,1.34,3.35,3.35,0,0,0,1.59,1.54,3.52,3.52,0,0,0,1.43.37,3,3,0,0,0,1.3-.28,4.66,4.66,0,0,0,2-1.76,10.77,10.77,0,0,0,1.09-2.3,1.44,1.44,0,0,0-.27-1.31,1.5,1.5,0,0,0-1.18-.59,3.78,3.78,0,0,0-3.88,3.69,1.5,1.5,0,1,0,3,0Z"/><path class="cls-1" d="M341.72,491.44c.29.22,0,0,0-.05.23.2.09.07,0,0,.16.22.06.13,0,0s0,.29,0,0c0-.11,0-.22,0-.33,0,.25,0,.16,0,0s.06-.18.09-.27,0-.07,0,.1l.07-.15s.23-.36.1-.18.11-.12.14-.15.16-.13,0,0l.29-.18c.12-.06.13-.06,0,0l.15-.05s.48-.1.21-.06a3.54,3.54,0,0,1,.46,0s.49,0,.23,0a6.11,6.11,0,0,1,.94.22,4.4,4.4,0,0,1,.61.25,14.76,14.76,0,0,1,1.62,1,16.68,16.68,0,0,0,3.62,2,1.51,1.51,0,0,0,1.85-1.05,1.54,1.54,0,0,0-1.05-1.84,30.3,30.3,0,0,1-3.88-2.34,7.34,7.34,0,0,0-5.11-1.11,4.25,4.25,0,0,0-3.19,3,3.54,3.54,0,0,0,1.31,4,1.49,1.49,0,0,0,2.05-.54,1.54,1.54,0,0,0-.53-2.05Z"/><path class="cls-1" d="M331.5,480.74c-.07-.33,0,.15,0,0a2.8,2.8,0,0,0,0-.29c0,.32,0,.08,0-.05s.05-.15.07-.22c-.11.33,0,0,0-.06s.21-.31.09-.14.1-.12.11-.13l.22-.21c.1-.09.2-.15,0,0l.26-.18.28-.15s.35-.15.16-.08.14,0,.18-.05l.37-.1c.16,0,.1,0,0,0l.38,0,.31,0c.22,0-.34-.08.11,0,.25.06.49.12.73.2a5.89,5.89,0,0,1,1.15.56,15.64,15.64,0,0,1,2.38,1.89,1.53,1.53,0,0,0,2.12,0,1.51,1.51,0,0,0,0-2.12c-2-1.78-4.44-3.86-7.3-3.52s-5.17,2.6-4.6,5.5a1.53,1.53,0,0,0,1.85,1,1.55,1.55,0,0,0,1.05-1.85Z"/><path class="cls-1" d="M335.94,532.39c7.26,2.28,15,4.67,20.86,9.7,6.4,5.45,9,13.4,10.52,21.39a137.06,137.06,0,0,1-1.27,56.57c-2.33,10.23-5.19,20.61-4.14,31.19.19,1.91,3.19,1.93,3,0-1-9.77,1.47-19.32,3.66-28.77a151,151,0,0,0,4.06-28.85,138.34,138.34,0,0,0-2.13-29.37c-1.49-8.26-3.89-16.78-10-22.86-6.41-6.36-15.32-9.25-23.74-11.9-1.84-.58-2.63,2.32-.79,2.9Z"/><path class="cls-1" d="M390.18,642.59c-11.15,7.16-22.85,14.8-29.3,26.79a33.4,33.4,0,0,0-4.27,18.32c0,1.47-.05,2.66-1.44,3.43a34.09,34.09,0,0,0-3.89,2.24,21.72,21.72,0,0,0-5.81,6.34c-1.48,2.47-3.1,6-2.5,8.93.55,2.73,3,4.11,5.56,4.49,3.21.48,6.58,0,9.81-.1l11.37-.5q11.61-.53,23.22-1.13c1.75-.09,3.51-.13,5.26-.29a6.79,6.79,0,0,0,4.37-1.64,9,9,0,0,0,2-3.71c.59-1.8,1.13-3.62,1.65-5.44A158.34,158.34,0,0,0,412,651.14c-.07-1.92-3.07-1.93-3,0a155.5,155.5,0,0,1-3.86,41c-.79,3.39-1.68,6.75-2.7,10.08a26.08,26.08,0,0,1-1.4,4.16c-.8,1.61-2.32,1.68-3.95,1.77q-10.74.59-21.49,1.07t-21.25.94c-2.27.09-5.7.7-7.67-.82s0-5.71,1-7.5A18.63,18.63,0,0,1,352.8,696c2.12-1.58,5.29-2.24,6.35-4.91a9.44,9.44,0,0,0,.45-3.74,33.87,33.87,0,0,1,.1-4.83,30.87,30.87,0,0,1,2.17-8.23c5.49-13.38,18.15-21.57,29.82-29.07,1.62-1,.12-3.64-1.51-2.59Z"/><path class="cls-1" d="M317,654.33a32.38,32.38,0,0,0,9.18,16.16,31.65,31.65,0,0,0,7.47,5.37c3.27,1.67,6.9,2.49,10.15,4.18,1.72.89,3.23-1.7,1.52-2.59-3.05-1.58-6.41-2.37-9.49-3.85a29.14,29.14,0,0,1-7.26-5,29.72,29.72,0,0,1-8.68-15.09c-.42-1.89-3.31-1.09-2.89.79Z"/><path class="cls-1" d="M317.17,632.79l-16.52,11.46c-4.79,3.33-10.3,6.5-13.34,11.66-2.74,4.65-3.19,10.23-2.73,15.5a82.57,82.57,0,0,0,3,15.58c1.51,5.22,4,10.4,8.86,13.25l-.69-1.69c-.22.8-2,.9-2.7,1.1a4.9,4.9,0,0,0-3.28,2.34,4.24,4.24,0,0,0,1,4.74c1.42,1.4,3.46,1.67,5.36,1.82a90.22,90.22,0,0,0,26.37-1.87,91.24,91.24,0,0,0,14.44-4.44c1.77-.71,1-3.61-.8-2.89a88.29,88.29,0,0,1-34.75,6.44c-1.95,0-3.93-.08-5.88-.29-.84-.09-4-.84-3-2.34.58-.82,2.37-.85,3.25-1.15a3.93,3.93,0,0,0,2.84-2.67,1.53,1.53,0,0,0-.69-1.69c-3.89-2.29-5.92-6.42-7.22-10.59a79.56,79.56,0,0,1-3-14.24c-.57-4.84-.59-10.1,1.7-14.55,2.53-4.91,7.54-7.82,11.93-10.87l17.32-12c1.58-1.1.08-3.7-1.51-2.59Z"/><path class="cls-1" d="M409.81,627.85a145.47,145.47,0,0,0-4.06-27.69c-.47-1.87-3.36-1.08-2.9.8a140.3,140.3,0,0,1,4,26.89c.09,1.92,3.09,1.93,3,0Z"/><path class="cls-1" d="M426.77,348.5c-3.28-1-6.84-2.23-9.22-4.81-2.63-2.85-2.18-6.94.31-9.73,2.82-3.16,7.28-4.08,11.34-4.19a31.69,31.69,0,0,1,31.31,40.7,20.91,20.91,0,0,1-2.72,5.94,25.21,25.21,0,0,1-4.76,4.81,98.53,98.53,0,0,0-9.73,9.33,185.47,185.47,0,0,0-16.61,21.93,104.65,104.65,0,0,0-12.32,23.84,87.41,87.41,0,0,0-4.56,23.86,89,89,0,0,0,10.68,47.33q1.45,2.63,3.09,5.14c1.05,1.62,3.64.11,2.59-1.51a86.17,86.17,0,0,1-8.9-74c3.1-9,8-17.22,13.31-25.06s11-15.64,17.73-22.45c1.66-1.69,3.37-3.31,5.16-4.85a57.94,57.94,0,0,0,5.21-4.68,24.22,24.22,0,0,0,5.47-11.89,35.58,35.58,0,0,0-4.28-24.63,34.87,34.87,0,0,0-19.24-15.13c-7.49-2.42-18-3.07-24.22,2.72-2.92,2.73-4.57,7.11-3.2,11,1.22,3.48,4.26,5.79,7.51,7.29A42.38,42.38,0,0,0,426,351.4c1.86.56,2.65-2.34.8-2.9Z"/><path class="cls-1" d="M424.63,350.46a83,83,0,0,1-40.28-12.28c-5.74-3.55-11.54-7.82-14.91-13.8-3.5-6.22-3.95-13.78-2.81-20.69,4.22-25.72,27.35-43.13,51.13-49.78,14.14-4,28.94-4.9,43.57-4.7a301.86,301.86,0,0,1,44.82,4c28.62,4.72,57.13,13.16,83.33,25.71,21.65,10.38,43.15,24.94,54.53,46.77,6.59,12.64,8.44,26.74,8.65,40.84.11,7.5-.18,15-.28,22.52s.11,15.09.28,22.64c.36,15.26.19,30.6-4.45,45.29-4.28,13.53-11.51,25.91-19.39,37.63-7.58,11.29-15.57,22.4-24,33.08-8.1,10.27-16.87,20.12-27,28.4a101.85,101.85,0,0,1-37,19.11,174.12,174.12,0,0,1-21.82,4.5c-7.18,1.07-14.42,1.7-21.58,2.93a62.81,62.81,0,0,0-19.37,6.21,50.14,50.14,0,0,0-13.19,10.44c-7.82,8.6-13,19.26-17.05,30.05-2,5.38-3.81,10.85-5.52,16.35-.57,1.85,2.33,2.64,2.9.8,7-22.71,16.51-49.47,41.14-58,7-2.42,14.34-3.43,21.64-4.32,7.46-.92,14.91-1.88,22.29-3.35,14.29-2.85,28.1-7.65,40.33-15.7,22.76-15,38.94-37.9,54.48-59.82,8.34-11.76,16.42-23.88,22.15-37.17,6-13.92,8.36-28.41,8.56-43.5.11-8-.23-16-.38-24-.14-7.69.06-15.37.2-23.05.27-14.93.1-30.27-5.06-44.47-8.55-23.54-28.71-40.26-50.09-52a257.57,257.57,0,0,0-37.36-16.3,327.54,327.54,0,0,0-44.87-12.48,311.72,311.72,0,0,0-45.46-5.79c-14.89-.78-30-.66-44.69,1.92-25.32,4.44-50.65,18.15-61,42.89-5,11.91-6.3,27,2,37.77,4.09,5.32,9.82,9.32,15.56,12.67a85.81,85.81,0,0,0,40,11.62c1.93.08,1.93-2.92,0-3Z"/><path class="cls-1" d="M307.15,524.94a195.13,195.13,0,0,0-13.26,34.13c-1.75,5.89-3.33,11.83-4.85,17.78q-1.14,4.47-2.27,9a45.9,45.9,0,0,0-1.57,9.3c-.2,5.66,2,11.92,7.35,14.53a1.55,1.55,0,0,0,2.06-.54A64.63,64.63,0,0,1,320.4,587c1.74-.83.22-3.41-1.52-2.59A67.62,67.62,0,0,0,292,607.59l2.06-.54c-4.65-2.25-6.12-7.6-5.85-12.41a47.27,47.27,0,0,1,1.62-8.73c.69-2.75,1.39-5.51,2.09-8.26a337.55,337.55,0,0,1,10-33.28,160.07,160.07,0,0,1,7.85-17.91c.88-1.72-1.71-3.24-2.59-1.52Z"/><path class="cls-1" d="M388.41,528c19.49,7.21,30.94,26.93,33.39,46.8a89.67,89.67,0,0,1,.2,19l2.79-.76c-3.62-8.35-7.41-16.92-13.85-23.54s-15.63-10.41-21.66-17.66c-3.11-3.74-5.19-8.39-4.6-13.33.23-1.92-2.77-1.9-3,0-1.12,9.33,5.88,17,12.81,22.11,3.91,2.92,8.12,5.45,11.82,8.64a43.23,43.23,0,0,1,8.9,10.89,128.28,128.28,0,0,1,7,14.4c.66,1.51,2.68.54,2.8-.75,2-21.91-3.67-45.54-21.12-60.16a49.59,49.59,0,0,0-14.67-8.56c-1.82-.67-2.6,2.23-.8,2.89Z"/><text class="cls-2" transform="translate(1146.47 208.19)">I <tspan class="cls-3" x="32.7" y="0">w</tspan><tspan x="79.86" y="0">a</tspan><tspan class="cls-4" x="113.58" y="0">n</tspan><tspan x="149.4" y="0">t </tspan><tspan class="cls-5" x="187.92" y="0">t</tspan><tspan x="210.42" y="0">o hea</tspan><tspan class="cls-6" x="366.72" y="0">r</tspan><tspan class="cls-7" x="387.9" y="0">,</tspan><tspan x="0" y="72">whe</tspan><tspan class="cls-8" x="118.02" y="72">n</tspan><tspan class="cls-9" x="153.72" y="72">’</tspan><tspan x="167.04" y="72">s the n</tspan><tspan class="cls-10" x="357" y="72">e</tspan><tspan x="390.6" y="72">xt sh</tspan><tspan class="cls-5" x="526.91" y="72">o</tspan><tspan x="562.97" y="72">wing?</tspan></text><text class="cls-2" transform="translate(163.47 107.19)">I do<tspan class="cls-8" x="107.04" y="0">n</tspan><tspan x="142.74" y="0">’t li</tspan><tspan class="cls-11" x="225.42" y="0">k</tspan><tspan class="cls-7" x="257.58" y="0">e loud pla</tspan><tspan class="cls-12" x="535.07" y="0">c</tspan><tspan class="cls-7" x="566.81" y="0">es,</tspan><tspan class="cls-5" x="0" y="72">w</tspan><tspan class="cls-7" x="47.1" y="72">e </tspan><tspan class="cls-12" x="96.66" y="72">m</tspan><tspan x="151.5" y="72">u</tspan><tspan class="cls-13" x="188.04" y="72">s</tspan><tspan x="216.6" y="72">t be going.</tspan></text><path class="cls-1" d="M1059.2,814.54a376.13,376.13,0,0,1,6.86-75.08c4.6-24.21,9.2-48.36,14.9-72.35,5.61-23.65,12-47.13,18.84-70.44,6.36-21.52,12.35-43.17,20.51-64.1,7.86-20.19,17.75-39.9,31.42-56.83q2.49-3.09,5.15-6.05c1.28-1.44-.83-3.57-2.12-2.12-14.5,16.2-25.23,35.26-33.69,55.2-8.72,20.58-15.17,42-21.3,63.48-6.75,23.61-13.66,47.13-19.52,71q-8.88,36.16-15.51,72.83c-2.24,12.38-4.52,24.73-6,37.23a359.53,359.53,0,0,0-2.54,37.82c0,3.14,0,6.28,0,9.42a1.5,1.5,0,0,0,3,0Z"/><path class="cls-1" d="M1162.86,455.37A202,202,0,0,1,1178.13,439a173,173,0,0,1,38.75-27.41,164.34,164.34,0,0,1,62.42-17.82c28.9-2.28,57.85,3,85,12.8C1398.63,419,1431,438,1458,462.7S1506,518.19,1517.38,553c11.88,36.41,12.89,75.47,4.44,112.74a253.46,253.46,0,0,1-19.4,54.19c-4.23,8.75-8.8,17.32-13.55,25.79-4.53,8.09-9.55,16-13,24.6-3.54,8.89-5.2,18.44-7.7,27.65s-5.16,18.43-8,27.58a544.49,544.49,0,0,1-20.26,55.36c-13.63,31.41-31.34,62.85-59.29,83.7-7.11,5.31-14.79,10.64-23.07,14-1.77.7-1,3.61.8,2.89,8.29-3.31,15.89-8.45,23.06-13.71A138.38,138.38,0,0,0,1400.25,951c11.62-12.38,21.16-26.6,29.24-41.5,18.56-34.21,30.94-71.78,41.17-109.2,2.57-9.38,4.28-19.12,7.74-28.22s9-17.63,13.84-26.24c9.53-17.11,18.41-34.7,24.94-53.2,12.69-36,16.72-75.16,10-112.81A208.46,208.46,0,0,0,1479.84,481c-24-28-54.66-50.07-87.85-66-28.82-13.82-60-23.42-92.12-24.63a169.9,169.9,0,0,0-69.55,11.79,174.63,174.63,0,0,0-46.09,27.48,166.54,166.54,0,0,0-21.88,21.67c-.54.65-1.06,1.3-1.61,1.94-1.25,1.47.87,3.6,2.12,2.13Z"/><path class="cls-1" d="M1395.65,585a107.3,107.3,0,0,1,29.07,49.28c2.55,9.38,4.33,20,.64,29.28-3.42,8.65-11.73,14.11-20.13,17.24-16.52,6.14-35.41,4.16-50.61-4.64a54.85,54.85,0,0,1-19.28-18.29c-4.76-7.66-7.72-17.05-5.92-26.09s8.2-16.17,15.49-21.49c7.86-5.72,17.36-11.1,27.32-11.25a24.33,24.33,0,0,1,7.3,1c1.86.54,2.65-2.35.8-2.9-10.58-3.1-21.49,1-30.57,6.37-8.25,4.92-16.43,11.3-20.72,20.12-8.89,18.29,2.45,39.12,17.16,50.48a63.83,63.83,0,0,0,53,11.63c8.93-2.11,18.2-6.29,24.24-13.42,7-8.22,7.78-19.07,6.2-29.33a104.37,104.37,0,0,0-9.69-29.63,109,109,0,0,0-17-25.13q-2.52-2.78-5.22-5.35c-1.4-1.34-3.52.78-2.12,2.12Z"/><path class="cls-1" d="M1379.46,467.06c8.79,15.21,7.79,34.74-.92,49.74a55.86,55.86,0,0,1-16.5,17.84,40.88,40.88,0,0,1-12,6,21.3,21.3,0,0,1-13.36-.67c-7.8-2.88-14.59-9-19.53-15.53a58.25,58.25,0,0,1-.32-69.74,52.32,52.32,0,0,1,8.39-9,17.23,17.23,0,0,1,5.71-3.61c2.33-.71,4.69,0,6.9.77a215.22,215.22,0,0,1,27.41,12.34c2.24,1.18,4.45,2.4,6.66,3.65a1.5,1.5,0,0,0,1.51-2.59,247.69,247.69,0,0,0-28.87-14c-4.51-1.83-9.86-4.7-14.81-2.94-4.18,1.49-7.8,5-10.8,8.18a61.38,61.38,0,0,0-16.09,49.2c2.18,17.2,11.77,34.05,26.83,43.1a29.92,29.92,0,0,0,13.66,4.57c5,.27,9.86-1.36,14.26-3.63a58.85,58.85,0,0,0,19.87-17c11-14.67,14.45-34.87,7.57-52.07a49.29,49.29,0,0,0-3-6.21,1.5,1.5,0,0,0-2.59,1.52Z"/><path class="cls-1" d="M1352.16,479.06c3.82-1.63,7.89-3.77,9.82-7.66,1.75-3.5,1.88-8.36-1.35-11.09s-7.62-2.34-10.94-.22a19.84,19.84,0,0,0-4.63,4.33,17.12,17.12,0,0,0-3.52,5.89,5.84,5.84,0,0,0,1.48,6.09,4.05,4.05,0,0,0,5.6.24c1.42-1.32-.71-3.43-2.12-2.12-.53.49-1.43-.18-1.84-.75-.83-1.15-.32-2.78.27-3.92a21.21,21.21,0,0,1,2.9-4.09,15.87,15.87,0,0,1,3.61-3.23c2.19-1.33,5.32-1.77,7.34.14s1.68,5.3.43,7.57c-1.76,3.21-5.34,4.85-8.57,6.22a1.51,1.51,0,0,0-.53,2.06,1.55,1.55,0,0,0,2.05.54Z"/><path class="cls-1" d="M1411.38,638.31a20.85,20.85,0,0,1,3,8.36,22,22,0,0,1,.1,4.59,17.08,17.08,0,0,1-.27,2q-.12.6-.27,1.2a1.31,1.31,0,0,0-.09.34c0,.47-.06-.1.1,0a10.22,10.22,0,0,0-1.57-.84,17.61,17.61,0,0,1-1.78-1.17,6.83,6.83,0,0,1-2.3-2.73c-1-2.4.59-4.57,2.34-6.09a17.74,17.74,0,0,1,3.58-2.42c.6-.31,2-1,2.49-.23.94,1.69,3.53.18,2.59-1.51-2-3.56-6.5-1.09-8.89.57-2.86,2-5.73,4.92-5.37,8.69s3.43,6.15,6.51,7.87a4.48,4.48,0,0,0,3,.83,2.86,2.86,0,0,0,2.17-2,18.57,18.57,0,0,0,.88-5.93A24,24,0,0,0,1414,636.8c-1-1.64-3.62-.14-2.59,1.51Z"/><path class="cls-1" d="M1295.17,405.27c16.36-1.61,32.53,2.09,47.81,7.73s30.23,12.91,44.73,20.43c13.76,7.14,27,15.3,38.45,25.89a149.15,149.15,0,0,1,26.69,33.49c16,27,24,58,26.13,89.08a268.13,268.13,0,0,1-.89,48.41c-1.55,13.9-4.64,28.13-11.82,40.3a55.37,55.37,0,0,1-13.52,15.52,75.2,75.2,0,0,1-18.6,10.36,196,196,0,0,1-20.21,6.56c-8.18,2.29-16.41,4.51-24.75,6.15a150.46,150.46,0,0,1-50.67,1c-16.85-2.43-33.31-7-49.53-12-15.64-4.88-31.18-10.16-46.29-16.52-7.6-3.21-15.09-6.69-22.4-10.53-6.79-3.56-13.71-7.26-19.79-12a40.85,40.85,0,0,1-13.18-17.05,67.54,67.54,0,0,1-4.31-21.27c-1-16.6,1-33.43,3.93-49.75s6.77-32.44,11.25-48.36a282.15,282.15,0,0,1,16.36-44.92c12.13-25.45,30.23-49.3,55.57-62.7a86.78,86.78,0,0,1,18.31-7.19,1.5,1.5,0,0,0-.79-2.89c-27.34,7.24-49.34,27.61-64.39,50.9-17.74,27.44-27,59.48-34.33,91-4,17-7.24,34.14-8.54,51.53-1.12,15.1-1.52,31.51,4.57,45.7a43.45,43.45,0,0,0,13.58,17.23c6.23,4.85,13.27,8.67,20.24,12.32a348.59,348.59,0,0,0,45.76,19.53c16.17,5.71,32.6,11,49.25,15.08s33.86,6.93,51.09,6.6,34.17-4.53,50.8-9.21c13.79-3.88,27.8-8.44,39.2-17.43,23.83-18.79,27-52.65,27.67-80.8.77-32.94-4-66.38-17.23-96.74a168.58,168.58,0,0,0-22.6-37.87,142.17,142.17,0,0,0-33-30.13c-13.61-9-28.43-16.05-43.19-22.94-15.15-7.07-30.83-13.67-47.41-16.49a90.53,90.53,0,0,0-23.93-1c-1.91.19-1.93,3.19,0,3Z"/><path class="cls-1" d="M1326.34,974.07q2.7-9.12,4.67-18.42c.68-3.19,1.29-6.4,1.83-9.61a41.27,41.27,0,0,0,1-8.56,11.18,11.18,0,0,0-7.14-10.24,14.47,14.47,0,0,0-12.22.93c-5.18,2.8-8.75,7.77-12.14,12.43l2.8.75c.66-11.47-2.33-23.9-10.26-32.53a25.69,25.69,0,0,0-27.59-7.07,21.57,21.57,0,0,0-12.1,10.61l2.74.35c-2.91-7.14-6-14.67-11.59-20.15-4.67-4.52-11.37-6.94-17.81-5.29a13.43,13.43,0,0,0-8.26,6.09h2.59c-4.45-6.26-6.26-14-11.2-20-4-4.88-10.42-7.93-16.43-4.66a9.78,9.78,0,0,0-5.23,8l2.79-.76a124.08,124.08,0,0,0-6.94-13.22c-1.24-2-2.54-4.07-3.9-6a27.72,27.72,0,0,0-4.12-5.21,7.24,7.24,0,0,0-8.43-1.18c-2.5,1.34-4.3,3.76-6,5.92-2,2.47-4.17,5.51-7.29,6.59l1.9,1.45a26.26,26.26,0,0,0-8.84-17.48,22.36,22.36,0,0,0-18.76-4.94,23,23,0,0,0-10.41,5l2.5.66c-2.12-5.18-4.42-10.4-8-14.74A18.35,18.35,0,0,0,1101,826c-4.31-.26-10.46.94-13.87-2.41-3.11-3.06-3-8.53-6.64-11.16-5.26-3.78-9.12,5.36-10.89,8.77-2.49,4.79-5.59,10.29-5,15.88.2,2,.87,4.27,2.71,5.43a4.94,4.94,0,0,0,2.86.73c1.64-.07,3.14-1,4.8-.69,2.64.54,4.46,3.21,5.58,5.45,1.38,2.75,2,5.85,3.14,8.7s2.66,5.37,5.23,7a11,11,0,0,0,6.85,1.51,12.31,12.31,0,0,0,10.91-8.95h-2.89c2.19,6.36,5,14.45,11.82,17.15,5.35,2.1,12.37,0,14-6l-2.74.36a111.57,111.57,0,0,0,12.75,22.08c2,2.59,4.55,5.2,8.09,4.57,2.43-.44,4.25-2.35,5.79-4.14s3.4-4.7,6-5l-1.45-1.9c-1.58,7.64,3.3,15.2,10.18,18.36,8.65,4,18.4.52,26.55-3l-2.26-1.3c.53,13.82,12.35,25.93,26.15,26.92a22.29,22.29,0,0,0,11-2.08l-2.21-1.69c-2.21,6.47,1.36,13.1,6.66,16.83,6.26,4.42,13.92,3.43,20.57.43a73.4,73.4,0,0,0,11.9-7.24l-2.25-1.3c.34,5.8,3,12.7,9.09,14.6,5.09,1.6,11.29-1.61,12.16-7l-2.94-.4a87.09,87.09,0,0,0,5.62,27.95,1.52,1.52,0,0,0,2.5.66,27.1,27.1,0,0,0,8.26-14H1296c2.28,8.2.41,16.89,2.65,25.11,1.7,6.21,6.2,12.15,13.24,11.88a9.14,9.14,0,0,0,7.93-4.7c.92-1.7-1.67-3.22-2.59-1.52-1.48,2.77-4.63,3.7-7.59,3-3.64-.83-6-3.8-7.33-7.14-3.46-8.73-.92-18.49-3.42-27.44a1.51,1.51,0,0,0-2.89,0,24.46,24.46,0,0,1-7.49,12.67l2.51.66a84.67,84.67,0,0,1-5.51-27.15c-.06-1.6-2.67-2.14-3-.4a6.57,6.57,0,0,1-8.77,4.83c-4.46-1.71-6.34-7.24-6.59-11.6A1.52,1.52,0,0,0,1265,928a73.83,73.83,0,0,1-11.9,7.24c-3.72,1.67-8.17,2.87-12.24,2-6.81-1.51-13-8.69-10.58-15.84.46-1.36-1.12-2.2-2.21-1.7-11.24,5.23-24.56-2-30-12.24a23.32,23.32,0,0,1-2.69-10,1.53,1.53,0,0,0-2.26-1.29c-7,3-15.67,6.29-23.18,3.16-5.76-2.4-10.47-8.68-9.14-15.11.18-.86-.41-2-1.44-1.9-3.22.34-5.34,2.61-7.33,5-1.55,1.82-3.85,5.18-6.68,4-2-.82-3.4-3.15-4.61-4.85q-2.23-3.15-4.24-6.44a116.49,116.49,0,0,1-7.15-13.76c-.54-1.22-2.44-.8-2.74.36-1.2,4.54-7,5.62-10.75,3.65-5.29-2.76-7.43-9.58-9.24-14.82a1.51,1.51,0,0,0-2.89,0,9.24,9.24,0,0,1-8,6.75,8.3,8.3,0,0,1-5.34-1.1c-2-1.24-3.16-3.46-4-5.57-1.95-4.9-2.79-10.5-7.13-14a7.94,7.94,0,0,0-6.68-1.86c-1.91.37-3.79,1.33-4.66-1-1.66-4.38,1.15-9.52,3-13.34q2-4.11,4.36-8c.83-1.35,2.33-3.78,3.93-2a17.34,17.34,0,0,1,2.56,4.92,17.41,17.41,0,0,0,3.15,5.4c3.2,3.27,8.08,3.29,12.34,3.32a28.15,28.15,0,0,1,7.5.68,14.71,14.71,0,0,1,6.46,4.11c3.9,4.07,6.25,9.5,8.36,14.65a1.53,1.53,0,0,0,2.51.66,19.68,19.68,0,0,1,21.29-2.5,22.62,22.62,0,0,1,11.6,17.79,1.52,1.52,0,0,0,1.9,1.45c5.54-1.92,8.11-7.59,12.14-11.4,1.73-1.63,3.86-2.63,6.06-1.19,1.71,1.12,2.87,3.05,4,4.69q1.92,2.76,3.68,5.61a126.54,126.54,0,0,1,7.44,14c.66,1.47,2.71.58,2.8-.76.2-3.14,2.78-5.44,5.71-6.19,3.38-.87,6.63.75,9.06,3.05,6.1,5.77,7.74,14.57,12.5,21.28a1.52,1.52,0,0,0,2.59,0c3.78-6.24,12.43-6.24,18.12-2.77,7.41,4.53,11,13.75,14.06,21.4.43,1.07,2.11,1.64,2.74.36,4-8.09,13.36-11.84,22-10.27,10,1.82,16.85,10.37,20,19.64a48,48,0,0,1,2.33,18.11c-.09,1.63,2,1.86,2.8.76,4.52-6.23,11-15,19.89-12.35,4,1.2,6.07,4.54,6,8.65a52.69,52.69,0,0,1-1.07,8.1c-.49,2.79-1,5.57-1.61,8.34q-2,9.3-4.67,18.43c-.55,1.85,2.35,2.64,2.89.79Z"/><path class="cls-1" d="M1281.83,646.42c-2.44-6.38-9.57-7.54-15.6-7.82a97.51,97.51,0,0,0-13.35.32c-3.87.36-8,.67-11.57,2.39s-6.35,5.51-5.89,9.61c.21,1.9,3.22,1.92,3,0-.49-4.42,3.38-7,7.2-8a66.42,66.42,0,0,1,13.56-1.42,53.68,53.68,0,0,1,12.28.61c3,.63,6.29,2,7.48,5.06.68,1.79,3.58,1,2.89-.79Z"/><path class="cls-1" d="M1271.35,525.81a34,34,0,0,1-8.87-6.35c-2.36-2.35-5.39-5.53-6-8.94-.34-2,.41-4.06,1.08-5.93a42.93,42.93,0,0,1,2.23-5.11,41.86,41.86,0,0,1,6.56-9.29c1.32-1.4-.8-3.53-2.12-2.12a44.63,44.63,0,0,0-7.22,10.28,45.61,45.61,0,0,0-2.48,5.85,13.87,13.87,0,0,0-1,6.7c.62,4,3.76,7.6,6.51,10.39a36.73,36.73,0,0,0,9.76,7.11c1.73.85,3.25-1.73,1.52-2.59Z"/><path class="cls-1" d="M1284,630.92a130.37,130.37,0,0,0-13.91-36.84q-2.43-4.3-5.19-8.41c-.88-1.3-1.79-2.59-2.71-3.86-.82-1.1-2-2.31-2.41-3.66s.89-2.91,1.53-4.14a37.85,37.85,0,0,0,2-4.77,68.76,68.76,0,0,0,2.51-9.88c1.57-8.16,3-16.36,4.49-24.53.35-1.89-2.54-2.7-2.89-.8q-2.06,11.28-4.12,22.56a90.9,90.9,0,0,1-2.33,10.18,35.14,35.14,0,0,1-1.72,4.55c-.71,1.52-1.75,2.92-2.31,4.51-1.13,3.24,1.36,5.76,3.11,8.19q2.88,4,5.45,8.23a125.51,125.51,0,0,1,8.94,17.8,131.13,131.13,0,0,1,6.62,21.66c.4,1.89,3.29,1.09,2.89-.79Z"/><path class="cls-1" d="M1270.7,629.58c-10.07.67-18.61-5.89-25.22-12.8a156.32,156.32,0,0,1-19.65-26.17,109.28,109.28,0,0,1-8-14.62,23.2,23.2,0,0,1-.63-16.11,46.61,46.61,0,0,1,15.17-22.55,42.46,42.46,0,0,1,27-9.93,1.5,1.5,0,0,0,0-3c-19.23-.11-36.64,13.23-43.66,30.77-2.12,5.3-3.4,11.13-2.25,16.81s4.32,10.75,7.15,15.64a176.88,176.88,0,0,0,20.58,28.85c7.49,8.43,17.58,16.9,29.58,16.11,1.92-.13,1.93-3.13,0-3Z"/><path class="cls-1" d="M1272.85,541.58c8.46,20.85,11.43,43.34,13.74,65.57.31,2.94.68,5.9.88,8.85.14,2,.32,5.06-1.56,6.38-1.57,1.1-.07,3.71,1.51,2.59,4.15-2.92,3.1-8.66,2.66-13-.59-5.92-1.21-11.83-1.93-17.72a267.1,267.1,0,0,0-6.21-34.62,152.34,152.34,0,0,0-6.2-18.86c-.72-1.76-3.62-1-2.89.8Z"/><path class="cls-1" d="M1247.38,519.88a113.78,113.78,0,0,0-28.38,16c-4.21,3.25-8.61,6.74-12,10.85-3.61,4.37-4.51,9.59-4.44,15.13.14,11.45,4,22.44,8.89,32.67,4.58,9.61,9.91,19.34,17.72,26.73,8.17,7.71,19.94,12.68,31.13,9.22,1.84-.57,1.06-3.46-.79-2.89-9.27,2.86-19.2-.73-26.37-6.8-7.65-6.48-12.84-15.29-17.31-24.13-4.82-9.54-9-19.76-10-30.5-.47-5.06-.72-10.95,2-15.45a26.89,26.89,0,0,1,4.76-5.4q2.85-2.68,5.9-5.18a109.77,109.77,0,0,1,29.73-17.35c1.78-.69,1-3.6-.79-2.9Z"/><path class="cls-1" d="M1125.07,493a163,163,0,0,1,36.57-122.18,139,139,0,0,1,26.3-24.17,1.53,1.53,0,0,0,.31-2.36l-99.76-120.62L1038.34,163c-16.53-20-32.87-40.16-49.61-60-3.15-3.74-7.48-7.91-12.6-8.42a8.32,8.32,0,0,0-8.91,7.51c-.61,4.7,1.53,9.55,4.41,13.15,3.61,4.49,8.43,8.36,9.28,14.4l1.84-1.84c-8.88-1.49-15.59,6.8-17,14.85C964,153,970.11,162.84,976,170.79l.89-2.2c-10,2.89-12.65,15.84-9.68,24.63,2,6,5.92,11,10.21,15.48,5.13,5.38,10.61,10.45,15.94,15.64,1.35,1.32,2.74,2.61,4.06,4,1.78,1.83,2.36,3.45,1.17,5.87a63.7,63.7,0,0,1-5.23,8c-3.32,4.77-7,9.87-8,15.72a18,18,0,0,0,3.9,14.46c3.16,4.08,7.46,7.32,10,11.87,3.2,5.71,1.18,11.74-1.22,17.33-2.48,5.8-5,11.49-4.23,18,.79,6.93,4.14,13.34,7.16,19.53q4.89,10,10.49,19.68t11.81,18.79c2,2.9,4.29,5.77,5.46,9.12s.73,7.07-.06,10.58a67.41,67.41,0,0,0-1.93,10.14,30.43,30.43,0,0,0,.87,9.26c1.54,6.34,4.87,12.17,8.78,17.34s10,9.72,10.48,16.67c.23,3.5.09,7,.33,10.52s.64,6.75,1.18,10.1a110,110,0,0,0,13.57,38c1.67,2.86,3.49,5.62,5.42,8.31,1.12,1.55,3.72.06,2.59-1.51a106.56,106.56,0,0,1-16.81-36.42,108.45,108.45,0,0,1-3-19.95c-.19-3.37,0-6.79-.34-10.15a16.24,16.24,0,0,0-3.34-8.22c-3.9-5.19-8.47-9.62-11.74-15.32s-5.4-12.06-5-18.65,3.84-13.06,2.37-19.84A24.73,24.73,0,0,0,1028,379c-2-3-4-5.9-6-8.9a310.59,310.59,0,0,1-21-37.94c-3-6.5-5.6-13.44-3.66-20.64,1.58-5.84,5-11.06,6.21-17a17.49,17.49,0,0,0-3.34-14.29c-3-4.05-7.16-7.2-9.86-11.49-7.08-11.22,4.1-22.26,9.73-31.3,1.56-2.49,2.93-5.31,1.65-8.23s-4.39-5.14-6.61-7.3c-5.23-5.09-10.61-10.07-15.64-15.35-7.61-8-14.88-20.26-7.56-30.88a10.42,10.42,0,0,1,5.71-4.22,1.51,1.51,0,0,0,.9-2.2c-5.07-6.89-10.32-14.88-10-23.79.2-6.77,5.56-16.07,13.45-14.75a1.53,1.53,0,0,0,1.84-1.85c-1.34-9.56-11.93-13.94-13.53-23.35-.79-4.69,2.16-9.31,7.35-7.51,5,1.73,8.43,6.46,11.66,10.37l47.48,57.41,95.49,115.46,53.88,65.15.3-2.35A148.77,148.77,0,0,0,1143.24,392a168.53,168.53,0,0,0-21,62.86,158.42,158.42,0,0,0-.18,38.19c.23,1.89,3.23,1.92,3,0Z"/><path class="cls-1" d="M1519.68,723.73c15.13-27.07,24.2-57.27,27.54-88.05a246.72,246.72,0,0,0-7.39-92.3,223.36,223.36,0,0,0-19.57-48.12l-.9,2.2,74.94-15.41,75-15.42,42.06-8.65-1.46-.39c5.85,4.82,5.43,14.05,1.88,20.12-4.45,7.59-13.43,10.93-21.51,13a1.52,1.52,0,0,0-1,1.84c1.8,8.53,11.56,10.35,17.26,15.41,2.92,2.6,4,6.18,2.45,9.87s-4.85,6.72-7.48,9.81c-2.45,2.87-5.06,6.33-4.74,10.32a9.21,9.21,0,0,0,.61,2.65c.57,1.42,1.61,2.63,2.09,4.07,1,3-2.08,6.24-4,8.19-4.45,4.45-10.22,7.29-14.7,11.72-4.19,4.14-7.66,9.9-7,16,.36,3.27,2.51,6.22,2.48,9.51,0,2.65-1.56,5-3,7.07a34.28,34.28,0,0,0-4,6.76c-1.12,2.92-.66,6-1.4,9-.84,3.39-4.15,4.76-7,6.22l-10.47,5.4-10.21,5.27c-2.74,1.42-6.16,2.64-8.1,5.16s-1.86,6-2.32,9.07a60.64,60.64,0,0,1-2.4,10,102.75,102.75,0,0,1-8.54,18.66c-6.81,12.08-14.24,24-22.08,35.41-14.65,21.36-34,42.56-60.22,48.66a59,59,0,0,1-9.16,1.37c-1.91.14-1.93,3.14,0,3,26.82-1.91,48.54-20.55,64.3-41,8.69-11.24,16.12-23.38,23.53-35.49,7.2-11.77,14.52-24,17.11-37.78.29-1.53.51-3.07.69-4.61s.26-3.55,1.14-5.05,2.38-2.19,3.8-2.93l5.37-2.77c6.94-3.58,13.91-7.12,20.83-10.75,2.63-1.38,5.11-3.07,6.23-6s.54-6.35,1.5-9.4c1.6-5.08,6.45-8.56,7.23-14,.49-3.4-1.15-6.19-2-9.36a12.85,12.85,0,0,1,1.19-9.27c3-6,8.62-9.46,13.83-13.31a40.5,40.5,0,0,0,6.77-6c2-2.29,4.12-5.21,3.76-8.42-.31-2.64-2.54-4.51-2.86-7.12a7.7,7.7,0,0,1,1.3-4.83c4-6.77,13.4-12.19,11.4-21.25-1.86-8.47-12.38-10.08-17.74-15.52a9.3,9.3,0,0,1-2.57-4.69l-1,1.85c6.64-1.68,13.29-4.09,18.51-8.65a22.44,22.44,0,0,0,7.77-16,18.59,18.59,0,0,0-1.58-8.55,14.35,14.35,0,0,0-2.12-3.31,10.14,10.14,0,0,0-1.47-1.46c-1-.73-1.64-.5-2.79-.26l-26.07,5.36-105.45,21.69-59.25,12.19a1.51,1.51,0,0,0-.89,2.2A228.44,228.44,0,0,1,1544.41,584a244.36,244.36,0,0,1-7.81,91,219.84,219.84,0,0,1-19.51,47.29,1.5,1.5,0,0,0,2.59,1.52Z"/></svg>