<svg id="Layer_1" data-name="Layer 1" xmlns="http://www.w3.org/2000/svg" viewBox="0 0 1920 1080"><defs><style>.cls-1{fill:#e03838;}.cls-1,.cls-2{opacity:0.5;}.cls-2{fill:#ffff1a;}.cls-3{fill:#4d4d4d;}</style></defs><path class="cls-1" d="M1298,968c39,1,76,33,135,19s45,26,96-22,115-138,115-173,11-121,11-121,93-13,109-11,63-47,0-86-246-80-273-76-72-42-111,39-140,8-82,145S1298,968,1298,968Z"/><path class="cls-2" d="M175.29,562.88c45.94-62.05,235-277.1,375.49-200S793.88,481,790,612.93s-26.52,254.8-158.78,316-204.32,85-273.08,55.67S92.69,866.55,114.21,773.2,175.29,562.88,175.29,562.88Z"/><path class="cls-3" d="M1498.94,612.82c-10,9.18-23.79,12.38-35.53,18.64a56,56,0,0,0-9.38,6.23c-1.49,1.23.64,3.34,2.12,2.12,10.46-8.67,24.2-11.7,35.84-18.34a49.83,49.83,0,0,0,9.07-6.53c1.43-1.31-.7-3.43-2.12-2.12Z"/><path class="cls-3" d="M1498.39,610.37c-17.36-.66-34.72-1.42-52.06-2.67q-7.47-.54-14.94-1.2l1.44,1.1c-1.23-8.62-6.66-16.47-13.25-22a1.52,1.52,0,0,0-2.51.66,5.61,5.61,0,0,0,.29,4.13,2.45,2.45,0,0,0,2.72,1.18,2.39,2.39,0,0,0,1.64-2.42,5.33,5.33,0,0,0-2.14-3.55,1.52,1.52,0,0,0-2.51.66c-1.3,5.42-2.62,10.85-3.91,16.28-.73,3-1,6.9-3.16,9.33-2,2.19-5.34,2.24-7.85,1-2.73-1.33-4.93-3.54-7.2-5.52-2.56-2.25-5.4-4.61-8.87-5.18a1.52,1.52,0,0,0-1.84,1.84,168,168,0,0,1,2.76,33.2c0,1.93,3,1.93,3,0a171.54,171.54,0,0,0-2.87-34l-1.84,1.85c3.16.53,5.65,2.73,8,4.79s4.92,4.55,8,5.88a9.87,9.87,0,0,0,9.72-.71c3.07-2.26,3.93-6.16,4.66-9.68,1.28-6.13,2.9-12.2,4.37-18.29l-2.51.66a7.82,7.82,0,0,1,1.21,1.37c.15.2-.06.16.07.05s.22-.39.54-.46c.11,0,.73,0,.48,0,.22,0,.15.27.14.09a6,6,0,0,1,.07-1.74l-2.51.66c6.25,5.2,11.31,12.44,12.48,20.63a1.52,1.52,0,0,0,1.45,1.1c17.24,1.53,34.52,2.51,51.81,3.26q7.59.33,15.19.61c1.93.08,1.93-2.92,0-3Z"/><path class="cls-3" d="M1386.05,683.9c2,10,3.83,20.1,5.77,30.15,1.64,8.51,3.47,17,4.17,25.69a82.57,82.57,0,0,1-1.75,24.88,102.25,102.25,0,0,1-4,13.27q-1.23,3.3-2.66,6.51a9.12,9.12,0,0,1-1.4,2.47c-.26.29-1.16,1.29-1.59.92-1.45-1.27-3.58.85-2.12,2.12,3.13,2.72,6.36-1,7.6-3.78a115.12,115.12,0,0,0,4.73-12.25,89.92,89.92,0,0,0,4.46-26c.15-9.3-1.46-18.52-3.21-27.62q-1.78-9.31-3.57-18.62T1389,683.1c-.37-1.89-3.26-1.09-2.9.8Z"/><path class="cls-3" d="M1493.86,615.17a3.51,3.51,0,0,0,.32-2.9,3.7,3.7,0,0,0-1.9-2.23,1.48,1.48,0,0,0-.76-.21,1.15,1.15,0,0,0-.58.13,1.43,1.43,0,0,0-.87,1,10,10,0,0,0-.22,2.56,4.57,4.57,0,0,0,1.17,2.85,3.72,3.72,0,0,0,4.43.47,2.74,2.74,0,0,0,1-1,2.66,2.66,0,0,0,.24-1.77,1.5,1.5,0,0,0-1.85-1,1.5,1.5,0,0,0-.89.69,1.69,1.69,0,0,0-.15,1.15v0l0-.4a1.41,1.41,0,0,1,0,.29l.06-.4a1.55,1.55,0,0,1-.07.23l.15-.36a.68.68,0,0,1-.14.23l.24-.3a1.61,1.61,0,0,1-.23.22l.31-.24a1.88,1.88,0,0,1-.36.21l.36-.15a2.27,2.27,0,0,1-.62.16l.39-.05a2.43,2.43,0,0,1-.66,0l.39.05a2.27,2.27,0,0,1-.51-.14l.35.15a1.63,1.63,0,0,1-.38-.22l.3.24a2.65,2.65,0,0,1-.33-.34l.23.3a3,3,0,0,1-.34-.6l.15.36a3.45,3.45,0,0,1-.21-.84l0,.4a6.75,6.75,0,0,1,0-1.68l-.05.4c0-.22.07-.43.1-.65l-2.2.9a2.68,2.68,0,0,1,.49.28l-.31-.23a2.87,2.87,0,0,1,.39.39l-.24-.3a2.43,2.43,0,0,1,.3.52l-.15-.36a2.65,2.65,0,0,1,.15.57l-.05-.4a2.81,2.81,0,0,1,0,.58l.05-.4a2.32,2.32,0,0,1-.13.47l.15-.36a2.29,2.29,0,0,1-.14.27,1.5,1.5,0,0,0,2.59,1.51Z"/><path class="cls-3" d="M1430.66,622.72a3.63,3.63,0,0,0,3.27-2.84,4.1,4.1,0,0,0-1.4-4.15,7.71,7.71,0,0,0-4.78-1.55c-1.75,0-3.67.37-5.33.11a1.5,1.5,0,1,0-.79,2.89,22.28,22.28,0,0,0,4.83,0,13.89,13.89,0,0,1,2,0c.32,0-.15-.05.2,0,.14,0,.29,0,.43.09a4.81,4.81,0,0,1,.84.26c-.26-.11.15.08.16.09l.36.22c.32.2-.13-.17.13.11a4.11,4.11,0,0,1,.29.3c-.2-.24,0,0,0,.08.18.25,0-.25,0,.05a3,3,0,0,0,.08.32c-.1-.36,0-.07,0,0s0,.23,0,.34c0-.39,0-.07,0,0s-.1.27,0,.06c0,.09-.11.18-.16.28s-.07.12.05,0l-.11.12c-.27.19.11,0,0,0s-.38.18-.15.1-.5,0,0,0a1.54,1.54,0,0,0-1.5,1.5,1.52,1.52,0,0,0,1.5,1.5Z"/><path class="cls-3" d="M1448.06,617.63c2-2.16,1-5.31-1.17-6.93-2.48-1.87-6-1.25-8.75-.69a1.49,1.49,0,0,0-1.05,1.84,1.53,1.53,0,0,0,1.84,1q.9-.18,1.8-.33l.2,0,.46,0c.3,0,.6,0,.9,0s.6,0,.9,0c0,0,.47.07.18,0l.44.08c.29.07.56.17.84.26-.29-.09,0,0,.08,0l.29.17.27.18c-.2-.14-.09-.06,0,0a5.11,5.11,0,0,1,.45.48c-.16-.19-.08-.1,0,0s.12.18.17.27a1.3,1.3,0,0,1,.14.29l-.08-.17a1.46,1.46,0,0,1,.07.19c0,.1.05.2.08.3.08.28,0-.32,0,0a2.18,2.18,0,0,1,0,.25v.14c0-.26,0,.07,0,.13a.74.74,0,0,1,0,.14c.09-.19.11-.24.06-.14a1,1,0,0,0-.15.26c-.06.09,0,.06.08-.09l-.14.15a1.5,1.5,0,0,0,2.12,2.12Z"/><path class="cls-3" d="M1431.47,683.51c4.13,4.92,6.06,11.19,7.35,17.38a126.73,126.73,0,0,1,2.54,21.35,130,130,0,0,1-1,21.6c-1,7.33-2.81,14.46-4.5,21.64-1.84,7.77-3.36,15.75-2.53,23.76.2,1.91,3.2,1.93,3,0-.77-7.44.52-14.8,2.2-22s3.54-14.25,4.58-21.54A133,133,0,0,0,1442,701.3c-1.41-7.15-3.6-14.24-8.37-19.92-1.24-1.48-3.35.66-2.12,2.13Z"/><path class="cls-3" d="M1462.76,780.59c-11.58,7.13-23.9,14.75-30.66,27a36.29,36.29,0,0,0-3.47,8.61,34.23,34.23,0,0,0-.86,9.41c0,1.54-.06,2.74-1.53,3.51a36,36,0,0,0-4,2.2,22,22,0,0,0-6.17,6.48c-1.49,2.42-3,5.72-2.56,8.63s3,4.25,5.57,4.66c3.33.53,6.86.07,10.22-.07q6-.24,12-.5,11.73-.51,23.46-1.09c2-.1,3.91-.17,5.87-.3A8.38,8.38,0,0,0,1475,848a7.4,7.4,0,0,0,2.5-3.82c.63-1.75,1.17-3.54,1.71-5.32a152.56,152.56,0,0,0,6.26-49.67c-.08-1.92-3.08-1.93-3,0a149.77,149.77,0,0,1-4.17,41.6q-1.27,5.14-2.9,10.21c-.42,1.31-.73,3-1.65,4.12s-3.06,1.07-4.51,1.14q-11,.57-22,1.06-11.23.5-22.47.94c-2.24.09-5.57.61-7.51-.89-2.1-1.63,0-5.58,1-7.36a18.48,18.48,0,0,1,5.46-6c2.23-1.56,5.48-2.19,6.56-4.93a9.23,9.23,0,0,0,.44-3.73,31,31,0,0,1,.11-4.72,29.54,29.54,0,0,1,2.36-8.5c5.94-13.44,19-21.46,31-28.86,1.65-1,.14-3.6-1.51-2.59Z"/><path class="cls-3" d="M1386.45,792.33a32.07,32.07,0,0,0,9.49,16.1,32.74,32.74,0,0,0,7.9,5.45c3.4,1.67,7.15,2.47,10.54,4.16,1.72.86,3.24-1.73,1.51-2.59-3.23-1.61-6.77-2.4-10-3.92a30,30,0,0,1-7.53-5,29.36,29.36,0,0,1-9-15c-.44-1.88-3.33-1.09-2.89.79Z"/><path class="cls-3" d="M1386.6,770.79l-17.3,11.51c-4.8,3.2-10.23,6.21-13.5,11.11-3.08,4.63-3.65,10.4-3.18,15.8a79.76,79.76,0,0,0,3.07,15.6c1.59,5.35,4.22,10.59,9.26,13.43l-.69-1.69c-.22.78-2.15.9-2.82,1.08A5,5,0,0,0,1358,840a4.21,4.21,0,0,0,1.19,4.86c1.47,1.32,3.53,1.56,5.41,1.7a99.07,99.07,0,0,0,42.55-6.31c1.79-.68,1-3.59-.79-2.89a96.73,96.73,0,0,1-24.2,5.89,98.23,98.23,0,0,1-12.24.55c-2,0-4.08-.08-6.09-.3-.77-.09-4.16-.85-3-2.32.62-.82,2.5-.86,3.4-1.15a4,4,0,0,0,3-2.68,1.51,1.51,0,0,0-.69-1.69c-4.07-2.29-6.24-6.46-7.61-10.77a76,76,0,0,1-3.1-14.46c-.56-4.88-.47-10.11,2-14.49,2.74-4.82,8-7.65,12.43-10.63l17.92-11.92c1.6-1.07.09-3.67-1.52-2.59Z"/><path class="cls-3" d="M1462.75,458.78a47.93,47.93,0,0,1,14.82-18.66,37.83,37.83,0,0,1,23.74-7.45c17.59.71,29.56,16,33.89,31.87,4.38,16,1.85,33.37-3.76,48.79-6.16,17-16,32-28,45.44-10.54,11.87-22,23.19-29,37.68-.89,1.85-1.7,3.74-2.45,5.65s2.2,2.58,2.9.8a86.31,86.31,0,0,1,12.73-21.66c5.06-6.43,10.72-12.37,16.19-18.44a173.29,173.29,0,0,0,16.2-20.44,137.92,137.92,0,0,0,13.34-25.76c6.19-15.87,9.14-33.77,5.27-50.56-3.74-16.19-15-32.8-32.41-35.83a39.69,39.69,0,0,0-25.76,4.47,48.08,48.08,0,0,0-17.45,17.13,55.71,55.71,0,0,0-2.9,5.45c-.8,1.74,1.78,3.27,2.59,1.52Z"/><path class="cls-3" d="M1461.55,454.92c6.42-9.57,13-19.29,22-26.69,8.63-7.13,19.21-11.4,30-14,11-2.7,22.38-3.77,33.68-4.55q19.6-1.36,39.28-1.34c12.89,0,26.07-.06,38.83,2.06A72.59,72.59,0,0,1,1654.72,422c16.35,11.17,27.68,28.44,35.53,46.32a161.55,161.55,0,0,1,10.22,31.27c2.56,12.07,3.11,24.8-1,36.62-3.89,11.28-11.38,20.91-18.52,30.29a320.71,320.71,0,0,1-21.29,26c-7.65,8.14-16.16,15.53-25.9,21.08-10.57,6-22.25,9.77-32.89,15.64C1583,639,1569.86,655,1559.77,672.43a294.48,294.48,0,0,0-13.8,27.73c-4.65,10.45-9.32,21-13.21,31.71-4.14,11.42-7.16,23.29-7.41,35.49-.24,11.34,1.34,24.41-7.55,33.1-3.51,3.43-8.27,5.64-13.24,4.81-1.89-.31-2.7,2.58-.8,2.9,10,1.66,18.7-5.79,22.13-14.69,2.2-5.7,2.42-12,2.44-18,0-6.37,0-12.68.94-19,2-12.68,6.49-24.79,11.42-36.57,4.33-10.34,8.77-20.66,13.67-30.74,9.14-18.82,20.44-37.42,37.27-50.35,9.52-7.32,20.52-11.79,31.4-16.64a112.89,112.89,0,0,0,29.53-18.57c8.65-7.66,16.16-16.5,23.28-25.56,7.28-9.26,14.89-18.57,20.82-28.77a63,63,0,0,0,8.79-34.46c-.45-12.3-3.74-24.4-7.82-35.94-6.67-18.82-16.43-37.24-31-51.11a77.38,77.38,0,0,0-24.77-16c-11.62-4.6-24.22-5.65-36.6-6.09q-20.17-.72-40.38.06c-12.5.47-25,1.17-37.45,2.88-11.18,1.53-22.33,4.08-32.55,9-10.46,5-18.88,12.67-25.94,21.79-3.52,4.54-6.74,9.3-9.94,14.08-1.07,1.61,1.52,3.11,2.59,1.51Z"/><path d="M1281.07,272.71a2.61,2.61,0,0,1-.78-1.92v-37a2.71,2.71,0,0,1,.78-2A2.56,2.56,0,0,1,1283,231a2.77,2.77,0,0,1,2.76,2.76v37a2.56,2.56,0,0,1-.81,1.92,2.71,2.71,0,0,1-2,.78A2.61,2.61,0,0,1,1281.07,272.71Z"/><path d="M1299.37,272.71a2.61,2.61,0,0,1-.78-1.92V247.27h-3.54a2.36,2.36,0,0,1-2.34-2.34,2.22,2.22,0,0,1,.69-1.68,2.3,2.3,0,0,1,1.65-.66h3.54v-3.48a12,12,0,0,1,1.29-5.91,8,8,0,0,1,3.36-3.36,9.49,9.49,0,0,1,4.35-1.05,11.51,11.51,0,0,1,5.22,1.2,2.59,2.59,0,0,1,1,.87,2.14,2.14,0,0,1,.39,1.23,2.23,2.23,0,0,1-.66,1.59,2.09,2.09,0,0,1-1.56.69,5.69,5.69,0,0,1-1.38-.18q-1.44-.18-1.62-.18a5.26,5.26,0,0,0-3.69,1.14q-1.23,1.14-1.23,4.14v3.3h7.5a2.26,2.26,0,0,1,2.34,2.34,2.3,2.3,0,0,1-.66,1.65,2.22,2.22,0,0,1-1.68.69h-7.5v23.52a2.56,2.56,0,0,1-.81,1.92,2.71,2.71,0,0,1-2,.78A2.61,2.61,0,0,1,1299.37,272.71Z"/><path d="M1339.84,286.51a2.59,2.59,0,0,1-.75-1.86,2.72,2.72,0,0,1,.18-1l3.9-10-11.28-27.48a3.07,3.07,0,0,1-.24-1.14,2.71,2.71,0,0,1,.78-2,2.56,2.56,0,0,1,1.92-.81,2.62,2.62,0,0,1,1.53.48,2.72,2.72,0,0,1,1,1.2l9.24,22.92,9.42-22.8a2.62,2.62,0,0,1,2.52-1.8,2.56,2.56,0,0,1,1.92.81,2.71,2.71,0,0,1,.78,2,2.88,2.88,0,0,1-.18,1l-16.38,39.36a2.7,2.7,0,0,1-2.52,1.86A2.44,2.44,0,0,1,1339.84,286.51Z"/><path d="M1372,271.81a13.46,13.46,0,0,1-5.37-5.61,19.21,19.21,0,0,1,0-16.62A13.46,13.46,0,0,1,1372,244a17.44,17.44,0,0,1,16.14,0,13.65,13.65,0,0,1,5.4,5.61,18.94,18.94,0,0,1,0,16.62,13.65,13.65,0,0,1-5.4,5.61,17.44,17.44,0,0,1-16.14,0Zm12.81-4.14a9.16,9.16,0,0,0,3.72-3.6,12,12,0,0,0,1.47-6.24,11.88,11.88,0,0,0-1.47-6.18,9,9,0,0,0-3.72-3.57,10.52,10.52,0,0,0-4.71-1.11,10.64,10.64,0,0,0-4.77,1.11,8.78,8.78,0,0,0-3.69,3.57,12.08,12.08,0,0,0-1.44,6.18,12.21,12.21,0,0,0,1.44,6.24,9,9,0,0,0,3.69,3.6,10.41,10.41,0,0,0,4.77,1.14A10.29,10.29,0,0,0,1384.84,267.67Z"/><path d="M1407.82,272.23a10.14,10.14,0,0,1-3.72-4.26,13.6,13.6,0,0,1-1.29-5.94V245a2.56,2.56,0,0,1,.81-1.92,2.71,2.71,0,0,1,2-.78,2.66,2.66,0,0,1,2.7,2.7v16.44q0,7.32,6.6,7.32a9.55,9.55,0,0,0,5.37-1.56,19.44,19.44,0,0,0,4.47-4.2V245a2.56,2.56,0,0,1,.81-1.92,2.71,2.71,0,0,1,2-.78,2.66,2.66,0,0,1,2.7,2.7v25.74a2.71,2.71,0,0,1-.78,1.95,2.56,2.56,0,0,1-1.92.81,2.77,2.77,0,0,1-2.76-2.76v-2.46a19.94,19.94,0,0,1-4.92,4,12.42,12.42,0,0,1-6.24,1.5A10.37,10.37,0,0,1,1407.82,272.23Z"/><path d="M1455.67,235.45a3,3,0,0,1-.9-2.16v-.24a3.07,3.07,0,0,1,3.06-3.06h.36a3.07,3.07,0,0,1,3.06,3.06v.24a3.07,3.07,0,0,1-3.06,3.06h-.36A3,3,0,0,1,1455.67,235.45Zm.36,37.26a2.61,2.61,0,0,1-.78-1.92V245.05a2.71,2.71,0,0,1,.78-2,2.56,2.56,0,0,1,1.92-.81,2.67,2.67,0,0,1,2.76,2.76v25.74a2.56,2.56,0,0,1-.81,1.92,2.71,2.71,0,0,1-2,.78A2.61,2.61,0,0,1,1456,272.71Z"/><path d="M1471,272.71a2.61,2.61,0,0,1-.78-1.92V245.05a2.71,2.71,0,0,1,.78-2,2.56,2.56,0,0,1,1.92-.81,2.77,2.77,0,0,1,2.76,2.76v2.46a19.94,19.94,0,0,1,4.92-4,12.42,12.42,0,0,1,6.24-1.5,10.37,10.37,0,0,1,5.73,1.56,10.14,10.14,0,0,1,3.72,4.26,13.6,13.6,0,0,1,1.29,5.94v17a2.56,2.56,0,0,1-.81,1.92,2.71,2.71,0,0,1-2,.78,2.66,2.66,0,0,1-2.7-2.7V254.35q0-7.32-6.6-7.32a9.55,9.55,0,0,0-5.37,1.56,19.44,19.44,0,0,0-4.47,4.2v18a2.56,2.56,0,0,1-.81,1.92,2.71,2.71,0,0,1-1.95.78A2.61,2.61,0,0,1,1471,272.71Z"/><path d="M1505.71,271.09a2.29,2.29,0,0,1-1-2,2.41,2.41,0,0,1,.66-1.68,2.18,2.18,0,0,1,1.68-.72,2.64,2.64,0,0,1,1.08.24,24.25,24.25,0,0,0,3.84,1.32,17.85,17.85,0,0,0,4.32.48q6.66,0,6.66-4.26a2.27,2.27,0,0,0-1.53-2.1,31.33,31.33,0,0,0-5-1.62,45.27,45.27,0,0,1-5.85-1.74,10.29,10.29,0,0,1-4-2.73,6.94,6.94,0,0,1-1.65-4.83,8.65,8.65,0,0,1,3-6.84q3-2.64,8.67-2.64a25,25,0,0,1,8.7,1.5,2.25,2.25,0,0,1,1.29.9,2.41,2.41,0,0,1,.45,1.38,2.35,2.35,0,0,1-.69,1.68,2.27,2.27,0,0,1-1.71.72,3.37,3.37,0,0,1-.78-.12,23,23,0,0,0-6.84-1.08,9.37,9.37,0,0,0-5.07,1.17,3.49,3.49,0,0,0-1.83,3,2.77,2.77,0,0,0,1.68,2.64,24,24,0,0,0,5.22,1.62,50,50,0,0,1,5.76,1.77,9.52,9.52,0,0,1,3.81,2.73,7.41,7.41,0,0,1,1.59,5,7.93,7.93,0,0,1-3,6.36q-3,2.52-8.55,2.52A22.32,22.32,0,0,1,1505.71,271.09Z"/><path d="M1536,235.45a3,3,0,0,1-.9-2.16v-.24a3.07,3.07,0,0,1,3.06-3.06h.36a3.07,3.07,0,0,1,3.06,3.06v.24a3.07,3.07,0,0,1-3.06,3.06h-.36A3,3,0,0,1,1536,235.45Zm.36,37.26a2.61,2.61,0,0,1-.78-1.92V245.05a2.71,2.71,0,0,1,.78-2,2.56,2.56,0,0,1,1.92-.81,2.67,2.67,0,0,1,2.76,2.76v25.74a2.56,2.56,0,0,1-.81,1.92,2.71,2.71,0,0,1-2,.78A2.61,2.61,0,0,1,1536.31,272.71Z"/><path d="M1549.45,271.09a2.29,2.29,0,0,1-1-2,2.41,2.41,0,0,1,.66-1.68,2.18,2.18,0,0,1,1.68-.72,2.64,2.64,0,0,1,1.08.24,24.25,24.25,0,0,0,3.84,1.32,17.85,17.85,0,0,0,4.32.48q6.66,0,6.66-4.26a2.27,2.27,0,0,0-1.53-2.1,31.33,31.33,0,0,0-5-1.62,45.27,45.27,0,0,1-5.85-1.74,10.29,10.29,0,0,1-4-2.73,6.94,6.94,0,0,1-1.65-4.83,8.65,8.65,0,0,1,3-6.84q3-2.64,8.67-2.64a25,25,0,0,1,8.7,1.5,2.25,2.25,0,0,1,1.29.9,2.41,2.41,0,0,1,.45,1.38,2.35,2.35,0,0,1-.69,1.68,2.27,2.27,0,0,1-1.71.72,3.37,3.37,0,0,1-.78-.12,23,23,0,0,0-6.84-1.08,9.37,9.37,0,0,0-5.07,1.17,3.49,3.49,0,0,0-1.83,3,2.77,2.77,0,0,0,1.68,2.64,24,24,0,0,0,5.22,1.62,50,50,0,0,1,5.76,1.77,9.52,9.52,0,0,1,3.81,2.73,7.41,7.41,0,0,1,1.59,5,7.93,7.93,0,0,1-3,6.36q-3,2.52-8.55,2.52A22.32,22.32,0,0,1,1549.45,271.09Z"/><path d="M1580.83,265.87v-18.6h-4.26a1.13,1.13,0,0,1-1.14-1.14,1.25,1.25,0,0,1,.54-1l8.16-8a1.51,1.51,0,0,1,1-.54,1.06,1.06,0,0,1,.81.36,1.2,1.2,0,0,1,.33.84v4.8h6.78a2.26,2.26,0,0,1,2.34,2.34,2.3,2.3,0,0,1-.66,1.65,2.22,2.22,0,0,1-1.68.69h-6.78v18.12q0,2.34,1.11,3a5.59,5.59,0,0,0,2.79.63,8.32,8.32,0,0,0,2.4-.36l.51-.12a3.27,3.27,0,0,1,.69-.06,2.11,2.11,0,0,1,1.5.63,2,2,0,0,1,.66,1.53,2.27,2.27,0,0,1-1.38,2.1,11.74,11.74,0,0,1-5,1.08Q1580.83,273.79,1580.83,265.87Z"/><path d="M1601.5,281.71a1.78,1.78,0,0,1-.51-1.26,1.67,1.67,0,0,1,.9-1.5,6.85,6.85,0,0,0,2.28-2.1,6.41,6.41,0,0,0,.78-3.48h-.24a3.38,3.38,0,0,1-3.36-3.36v-.36a3.38,3.38,0,0,1,3.36-3.36h.6a3.38,3.38,0,0,1,3.36,3.36v3.54a9.65,9.65,0,0,1-4.92,8.76,1.89,1.89,0,0,1-1,.3A1.63,1.63,0,0,1,1601.5,281.71Z"/><path d="M1281.07,344.71a2.61,2.61,0,0,1-.78-1.92v-37a2.71,2.71,0,0,1,.78-1.95A2.56,2.56,0,0,1,1283,303a2.77,2.77,0,0,1,2.76,2.76v37a2.56,2.56,0,0,1-.81,1.92,2.71,2.71,0,0,1-2,.78A2.61,2.61,0,0,1,1281.07,344.71Z"/><path d="M1318.09,343.87a14.78,14.78,0,0,1-5.85-5.52,17.44,17.44,0,0,1,0-16.92,14.78,14.78,0,0,1,5.85-5.52,16.92,16.92,0,0,1,8-1.92,16.63,16.63,0,0,1,5.49.81,20.74,20.74,0,0,1,4.29,2.07,2.39,2.39,0,0,1,.51,3.75,2.11,2.11,0,0,1-1.59.75,2.74,2.74,0,0,1-1.32-.36,22.85,22.85,0,0,0-3.39-1.47,11.7,11.7,0,0,0-3.51-.45,10.88,10.88,0,0,0-8.1,3,11.9,11.9,0,0,0,0,15.66,10.88,10.88,0,0,0,8.1,3,11.7,11.7,0,0,0,3.51-.45,22.85,22.85,0,0,0,3.39-1.47,2.74,2.74,0,0,1,1.32-.36,2.11,2.11,0,0,1,1.59.75,2.39,2.39,0,0,1-.51,3.75,20.74,20.74,0,0,1-4.29,2.07,16.63,16.63,0,0,1-5.49.81A16.92,16.92,0,0,1,1318.09,343.87Z"/><path d="M1346.8,344.71a8.52,8.52,0,0,1-3.57-3.15,8.68,8.68,0,0,1-1.32-4.77,8.41,8.41,0,0,1,3.51-7.08q3.51-2.64,10.29-2.64H1363v-.48q0-4-2-5.7t-6.09-1.74a20.45,20.45,0,0,0-4,.36,34,34,0,0,0-3.93,1.08,3.37,3.37,0,0,1-.78.12,2.13,2.13,0,0,1-1.56-.66,2.2,2.2,0,0,1-.66-1.62,2.31,2.31,0,0,1,1.56-2.28,26.39,26.39,0,0,1,10.38-2.16,13.55,13.55,0,0,1,7,1.68,10.56,10.56,0,0,1,4.2,4.35,12.65,12.65,0,0,1,1.35,5.79v17a2.56,2.56,0,0,1-.81,1.92,2.71,2.71,0,0,1-1.95.78,2.66,2.66,0,0,1-2.7-2.7v-1.56a15.07,15.07,0,0,1-11.28,4.56A11.15,11.15,0,0,1,1346.8,344.71Zm12-5a14.18,14.18,0,0,0,4.14-3.21v-5h-6.54q-9.06,0-9.06,4.74a4.45,4.45,0,0,0,1.47,3.48q1.47,1.32,4.89,1.32A10.85,10.85,0,0,0,1358.83,339.7Z"/><path d="M1378.39,344.71a2.61,2.61,0,0,1-.78-1.92V317.05a2.71,2.71,0,0,1,.78-1.95,2.56,2.56,0,0,1,1.92-.81,2.77,2.77,0,0,1,2.76,2.76v2.46a19.94,19.94,0,0,1,4.92-4,12.42,12.42,0,0,1,6.24-1.5,10.37,10.37,0,0,1,5.73,1.56,10.14,10.14,0,0,1,3.72,4.26,13.6,13.6,0,0,1,1.29,5.94v17a2.56,2.56,0,0,1-.81,1.92,2.71,2.71,0,0,1-2,.78,2.66,2.66,0,0,1-2.7-2.7V326.35q0-7.32-6.6-7.32a9.55,9.55,0,0,0-5.37,1.56,19.44,19.44,0,0,0-4.47,4.2v18a2.56,2.56,0,0,1-.81,1.92,2.71,2.71,0,0,1-2,.78A2.61,2.61,0,0,1,1378.39,344.71Z"/><path d="M1428.73,343.09a2.29,2.29,0,0,1-1-2,2.41,2.41,0,0,1,.66-1.68,2.18,2.18,0,0,1,1.68-.72,2.64,2.64,0,0,1,1.08.24,24.25,24.25,0,0,0,3.84,1.32,17.85,17.85,0,0,0,4.32.48q6.66,0,6.66-4.26a2.27,2.27,0,0,0-1.53-2.1,31.33,31.33,0,0,0-5-1.62,45.27,45.27,0,0,1-5.85-1.74,10.29,10.29,0,0,1-4-2.73,6.94,6.94,0,0,1-1.65-4.83,8.65,8.65,0,0,1,3-6.84q3-2.64,8.67-2.64a25,25,0,0,1,8.7,1.5,2.25,2.25,0,0,1,1.29.9,2.41,2.41,0,0,1,.45,1.38,2.35,2.35,0,0,1-.69,1.68,2.27,2.27,0,0,1-1.71.72,3.37,3.37,0,0,1-.78-.12,23,23,0,0,0-6.84-1.08,9.37,9.37,0,0,0-5.07,1.17,3.49,3.49,0,0,0-1.83,3,2.77,2.77,0,0,0,1.68,2.64,24,24,0,0,0,5.22,1.62,50,50,0,0,1,5.76,1.77,9.52,9.52,0,0,1,3.81,2.73,7.41,7.41,0,0,1,1.59,5,7.93,7.93,0,0,1-3,6.36q-3,2.52-8.55,2.52A22.32,22.32,0,0,1,1428.73,343.09Z"/><path d="M1460.11,337.87v-18.6h-4.26a1.13,1.13,0,0,1-1.14-1.14,1.25,1.25,0,0,1,.54-1l8.16-8a1.51,1.51,0,0,1,1-.54,1.06,1.06,0,0,1,.81.36,1.2,1.2,0,0,1,.33.84v4.8h6.78a2.26,2.26,0,0,1,2.34,2.34,2.3,2.3,0,0,1-.66,1.65,2.22,2.22,0,0,1-1.68.69h-6.78v18.12q0,2.34,1.11,3a5.59,5.59,0,0,0,2.79.63,8.32,8.32,0,0,0,2.4-.36l.51-.12a3.27,3.27,0,0,1,.69-.06,2.11,2.11,0,0,1,1.5.63,2,2,0,0,1,.66,1.53,2.27,2.27,0,0,1-1.38,2.1,11.74,11.74,0,0,1-5,1.08Q1460.11,345.79,1460.11,337.87Z"/><path d="M1484.14,344.71a8.52,8.52,0,0,1-3.57-3.15,8.68,8.68,0,0,1-1.32-4.77,8.41,8.41,0,0,1,3.51-7.08q3.51-2.64,10.29-2.64h7.26v-.48q0-4-2-5.7t-6.09-1.74a20.45,20.45,0,0,0-4,.36,34,34,0,0,0-3.93,1.08,3.37,3.37,0,0,1-.78.12,2.13,2.13,0,0,1-1.56-.66,2.2,2.2,0,0,1-.66-1.62,2.31,2.31,0,0,1,1.56-2.28,26.39,26.39,0,0,1,10.38-2.16,13.55,13.55,0,0,1,7,1.68,10.56,10.56,0,0,1,4.2,4.35,12.65,12.65,0,0,1,1.35,5.79v17a2.56,2.56,0,0,1-.81,1.92,2.71,2.71,0,0,1-2,.78,2.66,2.66,0,0,1-2.7-2.7v-1.56a15.07,15.07,0,0,1-11.28,4.56A11.15,11.15,0,0,1,1484.14,344.71Zm12-5a14.18,14.18,0,0,0,4.14-3.21v-5h-6.54q-9.06,0-9.06,4.74a4.45,4.45,0,0,0,1.47,3.48q1.47,1.32,4.89,1.32A10.85,10.85,0,0,0,1496.17,339.7Z"/><path d="M1519.42,358.51a2.59,2.59,0,0,1-.75-1.86,2.72,2.72,0,0,1,.18-1l3.9-10-11.28-27.48a3.07,3.07,0,0,1-.24-1.14,2.71,2.71,0,0,1,.78-1.95,2.56,2.56,0,0,1,1.92-.81,2.62,2.62,0,0,1,1.53.48,2.72,2.72,0,0,1,1,1.2l9.24,22.92,9.42-22.8a2.62,2.62,0,0,1,2.52-1.8,2.56,2.56,0,0,1,1.92.81,2.71,2.71,0,0,1,.78,1.95,2.88,2.88,0,0,1-.18,1l-16.38,39.36a2.7,2.7,0,0,1-2.52,1.86A2.44,2.44,0,0,1,1519.42,358.51Z"/><path d="M1565.14,344.71a8.52,8.52,0,0,1-3.57-3.15,8.68,8.68,0,0,1-1.32-4.77,8.41,8.41,0,0,1,3.51-7.08q3.51-2.64,10.29-2.64h7.26v-.48q0-4-2-5.7t-6.09-1.74a20.45,20.45,0,0,0-4,.36,34,34,0,0,0-3.93,1.08,3.37,3.37,0,0,1-.78.12,2.13,2.13,0,0,1-1.56-.66,2.2,2.2,0,0,1-.66-1.62,2.31,2.31,0,0,1,1.56-2.28,26.39,26.39,0,0,1,10.38-2.16,13.55,13.55,0,0,1,7,1.68,10.56,10.56,0,0,1,4.2,4.35,12.65,12.65,0,0,1,1.35,5.79v17a2.56,2.56,0,0,1-.81,1.92,2.71,2.71,0,0,1-2,.78,2.66,2.66,0,0,1-2.7-2.7v-1.56a15.07,15.07,0,0,1-11.28,4.56A11.15,11.15,0,0,1,1565.14,344.71Zm12-5a14.18,14.18,0,0,0,4.14-3.21v-5h-6.54q-9.06,0-9.06,4.74a4.45,4.45,0,0,0,1.47,3.48q1.47,1.32,4.89,1.32A10.85,10.85,0,0,0,1577.17,339.7Z"/><path d="M1617,341.23v1.56a2.56,2.56,0,0,1-.81,1.92,2.71,2.71,0,0,1-2,.78,2.66,2.66,0,0,1-2.7-2.7V303.85a2.71,2.71,0,0,1,.78-2,2.56,2.56,0,0,1,1.92-.81,2.67,2.67,0,0,1,2.76,2.76v14.7a13.79,13.79,0,0,1,10.26-4.56,14.07,14.07,0,0,1,7,1.89,14.34,14.34,0,0,1,5.4,5.52,18.45,18.45,0,0,1,0,17,14.34,14.34,0,0,1-5.4,5.52,14.07,14.07,0,0,1-7,1.89A13.79,13.79,0,0,1,1617,341.23Zm16.62-3.36q2.7-2.82,2.7-8t-2.7-8a9.43,9.43,0,0,0-7.14-2.82,11.33,11.33,0,0,0-5.19,1.23,14.82,14.82,0,0,0-4.29,3.27v12.6a14.82,14.82,0,0,0,4.29,3.27,11.33,11.33,0,0,0,5.19,1.23A9.43,9.43,0,0,0,1633.63,337.87Z"/><path d="M1649.83,307.45a3,3,0,0,1-.9-2.16v-.24A3.07,3.07,0,0,1,1652,302h.36a3.07,3.07,0,0,1,3.06,3.06v.24a3.07,3.07,0,0,1-3.06,3.06H1652A3,3,0,0,1,1649.83,307.45Zm.36,37.26a2.61,2.61,0,0,1-.78-1.92V317.05a2.71,2.71,0,0,1,.78-1.95,2.56,2.56,0,0,1,1.92-.81,2.67,2.67,0,0,1,2.76,2.76v25.74a2.56,2.56,0,0,1-.81,1.92,2.71,2.71,0,0,1-2,.78A2.61,2.61,0,0,1,1650.19,344.71Z"/><path d="M1666.15,337.87v-18.6h-4.26a1.13,1.13,0,0,1-1.14-1.14,1.25,1.25,0,0,1,.54-1l8.16-8a1.51,1.51,0,0,1,1-.54,1.06,1.06,0,0,1,.81.36,1.2,1.2,0,0,1,.33.84v4.8h6.78a2.26,2.26,0,0,1,2.34,2.34,2.3,2.3,0,0,1-.66,1.65,2.22,2.22,0,0,1-1.68.69h-6.78v18.12q0,2.34,1.11,3a5.59,5.59,0,0,0,2.79.63,8.32,8.32,0,0,0,2.4-.36l.51-.12a3.27,3.27,0,0,1,.69-.06,2.11,2.11,0,0,1,1.5.63,2,2,0,0,1,.66,1.53,2.27,2.27,0,0,1-1.38,2.1,11.74,11.74,0,0,1-5,1.08Q1666.15,345.79,1666.15,337.87Z"/><path d="M1687.66,344.38a3.23,3.23,0,0,1-1-2.37v-.36a3.38,3.38,0,0,1,3.36-3.36h.6a3.38,3.38,0,0,1,3.36,3.36V342a3.38,3.38,0,0,1-3.36,3.36h-.6A3.23,3.23,0,0,1,1687.66,344.38Z"/><path d="M73.5,106.8a4.21,4.21,0,0,1-1.41-2L60.33,68.67a4.2,4.2,0,0,1-.18-1,2.37,2.37,0,0,1,.69-1.89A2.64,2.64,0,0,1,62.79,65a2.54,2.54,0,0,1,1.68.6,3.23,3.23,0,0,1,1,1.56l10.08,33.12,10.14-33a3,3,0,0,1,1.17-1.65,3.33,3.33,0,0,1,3.9,0A3,3,0,0,1,92,67.29l10.14,33,10.08-33.12a3.23,3.23,0,0,1,1-1.56,2.54,2.54,0,0,1,1.68-.6,2.64,2.64,0,0,1,1.95.75,2.37,2.37,0,0,1,.69,1.89,4.2,4.2,0,0,1-.18,1l-11.76,36.12a4.21,4.21,0,0,1-1.41,2,3.48,3.48,0,0,1-2.13.69,3.54,3.54,0,0,1-2.19-.75,3.73,3.73,0,0,1-1.35-1.95l-9.66-30.6-9.66,30.6a3.73,3.73,0,0,1-1.35,1.95,3.54,3.54,0,0,1-2.19.75A3.48,3.48,0,0,1,73.5,106.8Z"/><path d="M123.42,103.62q-4.11-4.17-4.11-11.73A19.56,19.56,0,0,1,120.87,84a13.36,13.36,0,0,1,4.8-5.82,13.79,13.79,0,0,1,8-2.22,14,14,0,0,1,7.68,2.07,13.39,13.39,0,0,1,4.92,5.52,17,17,0,0,1,1.68,7.53,2.62,2.62,0,0,1-2.76,2.7H124.83a9.87,9.87,0,0,0,3.12,6.54q2.64,2.34,7.38,2.34a18,18,0,0,0,4.41-.48,18.32,18.32,0,0,0,3.69-1.38,2.38,2.38,0,0,1,1.08-.24,2.41,2.41,0,0,1,1.68.66,2.18,2.18,0,0,1,.72,1.68,2.59,2.59,0,0,1-1.56,2.22,18.74,18.74,0,0,1-10.5,2.64Q127.53,107.79,123.42,103.62Zm19.11-14.25A9.61,9.61,0,0,0,141,84.45a8.26,8.26,0,0,0-3.33-2.91,9.15,9.15,0,0,0-8,0,8.06,8.06,0,0,0-3.3,2.91,9.79,9.79,0,0,0-1.5,4.92Z"/><path d="M169.71,105.09a2.29,2.29,0,0,1-1-2,2.41,2.41,0,0,1,.66-1.68,2.18,2.18,0,0,1,1.68-.72,2.64,2.64,0,0,1,1.08.24,24.25,24.25,0,0,0,3.84,1.32,17.85,17.85,0,0,0,4.32.48q6.66,0,6.66-4.26a2.27,2.27,0,0,0-1.53-2.1,31.33,31.33,0,0,0-5-1.62A45.27,45.27,0,0,1,174.54,93a10.29,10.29,0,0,1-4-2.73,6.94,6.94,0,0,1-1.65-4.83,8.65,8.65,0,0,1,3-6.84Q175,76,180.63,76a25,25,0,0,1,8.7,1.5,2.25,2.25,0,0,1,1.29.9,2.41,2.41,0,0,1,.45,1.38,2.35,2.35,0,0,1-.69,1.68,2.27,2.27,0,0,1-1.71.72,3.37,3.37,0,0,1-.78-.12A23,23,0,0,0,181.05,81,9.37,9.37,0,0,0,176,82.14a3.49,3.49,0,0,0-1.83,3,2.77,2.77,0,0,0,1.68,2.64,24,24,0,0,0,5.22,1.62,50,50,0,0,1,5.76,1.77,9.52,9.52,0,0,1,3.81,2.73,7.41,7.41,0,0,1,1.59,5,7.93,7.93,0,0,1-3,6.36q-3,2.52-8.55,2.52A22.32,22.32,0,0,1,169.71,105.09Z"/><path d="M200.31,106.71a2.61,2.61,0,0,1-.78-1.92V65.85a2.71,2.71,0,0,1,.78-1.95,2.56,2.56,0,0,1,1.92-.81A2.77,2.77,0,0,1,205,65.85V81.51a19.94,19.94,0,0,1,4.92-4,12.42,12.42,0,0,1,6.24-1.5,10.37,10.37,0,0,1,5.73,1.56,10.14,10.14,0,0,1,3.72,4.26,13.6,13.6,0,0,1,1.29,5.94v17a2.56,2.56,0,0,1-.81,1.92,2.71,2.71,0,0,1-2,.78,2.66,2.66,0,0,1-2.7-2.7V88.35q0-7.32-6.6-7.32a9.55,9.55,0,0,0-5.37,1.56,19.44,19.44,0,0,0-4.47,4.2v18a2.56,2.56,0,0,1-.81,1.92,2.71,2.71,0,0,1-2,.78A2.61,2.61,0,0,1,200.31,106.71Z"/><path d="M241.47,105.81a13.46,13.46,0,0,1-5.37-5.61,19.21,19.21,0,0,1,0-16.62A13.46,13.46,0,0,1,241.47,78a17.44,17.44,0,0,1,16.14,0,13.65,13.65,0,0,1,5.4,5.61,18.94,18.94,0,0,1,0,16.62,13.65,13.65,0,0,1-5.4,5.61,17.44,17.44,0,0,1-16.14,0Zm12.81-4.14a9.16,9.16,0,0,0,3.72-3.6,12,12,0,0,0,1.47-6.24A11.88,11.88,0,0,0,258,85.65a9,9,0,0,0-3.72-3.57A10.52,10.52,0,0,0,249.57,81a10.64,10.64,0,0,0-4.77,1.11,8.78,8.78,0,0,0-3.69,3.57,12.08,12.08,0,0,0-1.44,6.18,12.21,12.21,0,0,0,1.44,6.24,9,9,0,0,0,3.69,3.6,10.41,10.41,0,0,0,4.77,1.14A10.29,10.29,0,0,0,254.28,101.67Z"/><path d="M277.26,106.23a10.14,10.14,0,0,1-3.72-4.26A13.6,13.6,0,0,1,272.25,96V79a2.56,2.56,0,0,1,.81-1.92,2.71,2.71,0,0,1,1.95-.78,2.66,2.66,0,0,1,2.7,2.7V95.43q0,7.32,6.6,7.32a9.55,9.55,0,0,0,5.37-1.56,19.44,19.44,0,0,0,4.47-4.2V79a2.56,2.56,0,0,1,.81-1.92,2.71,2.71,0,0,1,2-.78,2.66,2.66,0,0,1,2.7,2.7v25.74a2.71,2.71,0,0,1-.78,2,2.56,2.56,0,0,1-1.92.81,2.77,2.77,0,0,1-2.76-2.76v-2.46a19.94,19.94,0,0,1-4.92,4,12.42,12.42,0,0,1-6.24,1.5A10.37,10.37,0,0,1,277.26,106.23Z"/><path d="M309.87,106.71a2.61,2.61,0,0,1-.78-1.92V65.85a2.71,2.71,0,0,1,.78-1.95,2.56,2.56,0,0,1,1.92-.81,2.67,2.67,0,0,1,2.76,2.76v38.94a2.56,2.56,0,0,1-.81,1.92,2.71,2.71,0,0,1-1.95.78A2.61,2.61,0,0,1,309.87,106.71Z"/><path d="M329.64,105.9a14.34,14.34,0,0,1-5.4-5.52,18.45,18.45,0,0,1,0-17,14.34,14.34,0,0,1,5.4-5.52A14.07,14.07,0,0,1,336.69,76,13.79,13.79,0,0,1,347,80.55V65.85a2.63,2.63,0,0,1,.81-2,2.71,2.71,0,0,1,1.95-.78,2.56,2.56,0,0,1,1.92.81,2.71,2.71,0,0,1,.78,1.95v38.94a2.66,2.66,0,0,1-2.7,2.7,2.71,2.71,0,0,1-1.95-.78,2.56,2.56,0,0,1-.81-1.92v-1.56a13.79,13.79,0,0,1-10.26,4.56A14.07,14.07,0,0,1,329.64,105.9Zm13-4.44A14.82,14.82,0,0,0,347,98.19V85.59a14.82,14.82,0,0,0-4.29-3.27,11.33,11.33,0,0,0-5.19-1.23,9.43,9.43,0,0,0-7.14,2.82q-2.7,2.82-2.7,8t2.7,8a9.43,9.43,0,0,0,7.14,2.82A11.33,11.33,0,0,0,342.66,101.46Z"/><path d="M380.4,106.71a8.52,8.52,0,0,1-3.57-3.15,8.68,8.68,0,0,1-1.32-4.77A8.41,8.41,0,0,1,379,91.71q3.51-2.64,10.29-2.64h7.26v-.48q0-4-1.95-5.7t-6.09-1.74a20.45,20.45,0,0,0-4,.36,34,34,0,0,0-3.93,1.08,3.37,3.37,0,0,1-.78.12,2.13,2.13,0,0,1-1.56-.66,2.2,2.2,0,0,1-.66-1.62,2.31,2.31,0,0,1,1.56-2.28A26.39,26.39,0,0,1,389.49,76a13.55,13.55,0,0,1,7,1.68,10.56,10.56,0,0,1,4.2,4.35A12.65,12.65,0,0,1,402,87.81v17a2.56,2.56,0,0,1-.81,1.92,2.71,2.71,0,0,1-2,.78,2.66,2.66,0,0,1-2.7-2.7v-1.56a15.07,15.07,0,0,1-11.28,4.56A11.15,11.15,0,0,1,380.4,106.71Zm12-5a14.18,14.18,0,0,0,4.14-3.21v-5H390q-9.06,0-9.06,4.74a4.45,4.45,0,0,0,1.47,3.48q1.47,1.32,4.89,1.32A10.85,10.85,0,0,0,392.43,101.7Z"/><path d="M412.29,99.87V81.27H408a1.13,1.13,0,0,1-1.14-1.14,1.25,1.25,0,0,1,.54-1l8.16-8a1.51,1.51,0,0,1,1-.54,1.06,1.06,0,0,1,.81.36,1.2,1.2,0,0,1,.33.84v4.8h6.78a2.26,2.26,0,0,1,2.34,2.34,2.3,2.3,0,0,1-.66,1.65,2.22,2.22,0,0,1-1.68.69h-6.78V99.39q0,2.34,1.11,3a5.59,5.59,0,0,0,2.79.63,8.32,8.32,0,0,0,2.4-.36l.51-.12a3.27,3.27,0,0,1,.69-.06,2.11,2.11,0,0,1,1.5.63,2,2,0,0,1,.66,1.53,2.27,2.27,0,0,1-1.38,2.1,11.74,11.74,0,0,1-5,1.08Q412.29,107.79,412.29,99.87Z"/><path d="M449.79,106.71a2.61,2.61,0,0,1-.78-1.92V65.85a2.71,2.71,0,0,1,.78-1.95,2.56,2.56,0,0,1,1.92-.81,2.67,2.67,0,0,1,2.76,2.76v38.94a2.56,2.56,0,0,1-.81,1.92,2.71,2.71,0,0,1-2,.78A2.61,2.61,0,0,1,449.79,106.71Z"/><path d="M466.2,103.62q-4.11-4.17-4.11-11.73A19.56,19.56,0,0,1,463.65,84a13.36,13.36,0,0,1,4.8-5.82,13.79,13.79,0,0,1,8-2.22,14,14,0,0,1,7.68,2.07A13.39,13.39,0,0,1,489,83.58a17,17,0,0,1,1.68,7.53,2.62,2.62,0,0,1-2.76,2.7H467.61a9.87,9.87,0,0,0,3.12,6.54q2.64,2.34,7.38,2.34a18,18,0,0,0,4.41-.48,18.32,18.32,0,0,0,3.69-1.38,2.38,2.38,0,0,1,1.08-.24,2.41,2.41,0,0,1,1.68.66,2.18,2.18,0,0,1,.72,1.68,2.59,2.59,0,0,1-1.56,2.22,18.74,18.74,0,0,1-10.5,2.64Q470.31,107.79,466.2,103.62Zm19.11-14.25a9.61,9.61,0,0,0-1.53-4.92,8.26,8.26,0,0,0-3.33-2.91,9.15,9.15,0,0,0-8,0,8.06,8.06,0,0,0-3.3,2.91,9.79,9.79,0,0,0-1.5,4.92Z"/><path d="M500.82,106.71a8.52,8.52,0,0,1-3.57-3.15,8.68,8.68,0,0,1-1.32-4.77,8.41,8.41,0,0,1,3.51-7.08q3.51-2.64,10.29-2.64H517v-.48q0-4-2-5.7T509,81.15a20.45,20.45,0,0,0-4.05.36A34,34,0,0,0,501,82.59a3.37,3.37,0,0,1-.78.12,2.13,2.13,0,0,1-1.56-.66,2.2,2.2,0,0,1-.66-1.62,2.31,2.31,0,0,1,1.56-2.28A26.39,26.39,0,0,1,509.91,76a13.55,13.55,0,0,1,7,1.68A10.56,10.56,0,0,1,521.1,82a12.65,12.65,0,0,1,1.35,5.79v17a2.56,2.56,0,0,1-.81,1.92,2.71,2.71,0,0,1-1.95.78,2.66,2.66,0,0,1-2.7-2.7v-1.56a15.07,15.07,0,0,1-11.28,4.56A11.15,11.15,0,0,1,500.82,106.71Zm12-5A14.18,14.18,0,0,0,517,98.49v-5h-6.54q-9.06,0-9.06,4.74a4.45,4.45,0,0,0,1.47,3.48q1.47,1.32,4.89,1.32A10.85,10.85,0,0,0,512.85,101.7Z"/><path d="M530.61,105.09a2.29,2.29,0,0,1-1-2,2.41,2.41,0,0,1,.66-1.68,2.18,2.18,0,0,1,1.68-.72A2.64,2.64,0,0,1,533,101a24.25,24.25,0,0,0,3.84,1.32,17.85,17.85,0,0,0,4.32.48q6.66,0,6.66-4.26a2.27,2.27,0,0,0-1.53-2.1,31.33,31.33,0,0,0-5-1.62A45.27,45.27,0,0,1,535.44,93a10.29,10.29,0,0,1-4-2.73,6.94,6.94,0,0,1-1.65-4.83,8.65,8.65,0,0,1,3-6.84q3-2.64,8.67-2.64a25,25,0,0,1,8.7,1.5,2.25,2.25,0,0,1,1.29.9,2.41,2.41,0,0,1,.45,1.38,2.35,2.35,0,0,1-.69,1.68,2.27,2.27,0,0,1-1.71.72,3.37,3.37,0,0,1-.78-.12A23,23,0,0,0,542,81a9.37,9.37,0,0,0-5.07,1.17,3.49,3.49,0,0,0-1.83,3,2.77,2.77,0,0,0,1.68,2.64A24,24,0,0,0,542,89.43a50,50,0,0,1,5.76,1.77,9.52,9.52,0,0,1,3.81,2.73,7.41,7.41,0,0,1,1.59,5,7.93,7.93,0,0,1-3,6.36q-3,2.52-8.55,2.52A22.32,22.32,0,0,1,530.61,105.09Z"/><path d="M562,99.87V81.27h-4.26a1.09,1.09,0,0,1-.81-.33,1.1,1.1,0,0,1-.33-.81,1.25,1.25,0,0,1,.54-1l8.16-8a1.51,1.51,0,0,1,1-.54,1.07,1.07,0,0,1,.81.36,1.25,1.25,0,0,1,.33.84v4.8h6.78a2.36,2.36,0,0,1,1.68,4,2.24,2.24,0,0,1-1.68.69h-6.78V99.39c0,1.56.36,2.55,1.11,3a5.57,5.57,0,0,0,2.79.63,8.32,8.32,0,0,0,2.4-.36l.51-.12a3.27,3.27,0,0,1,.69-.06,2.11,2.11,0,0,1,1.5.63,2.07,2.07,0,0,1,.66,1.53,2.27,2.27,0,0,1-1.38,2.1,11.74,11.74,0,0,1-5,1.08Q562,107.79,562,99.87Z"/><path d="M599.48,106.71a2.6,2.6,0,0,1-.77-1.92V65.85a2.7,2.7,0,0,1,.77-1.95,2.56,2.56,0,0,1,1.92-.81,2.77,2.77,0,0,1,2.77,2.76V81.51a19.72,19.72,0,0,1,4.91-4,12.42,12.42,0,0,1,6.24-1.5,10.35,10.35,0,0,1,5.73,1.56,10.23,10.23,0,0,1,3.73,4.26,13.74,13.74,0,0,1,1.28,5.94v17a2.56,2.56,0,0,1-.81,1.92,2.71,2.71,0,0,1-2,.78,2.61,2.61,0,0,1-1.92-.78,2.64,2.64,0,0,1-.77-1.92V88.35Q620.61,81,614,81a9.55,9.55,0,0,0-5.37,1.56,19.2,19.2,0,0,0-4.46,4.2v18a2.6,2.6,0,0,1-.81,1.92,2.75,2.75,0,0,1-2,.78A2.61,2.61,0,0,1,599.48,106.71Z"/><path d="M637.49,103.62q-4.11-4.17-4.11-11.73A19.56,19.56,0,0,1,634.94,84a13.36,13.36,0,0,1,4.8-5.82,13.79,13.79,0,0,1,8-2.22,14,14,0,0,1,7.68,2.07,13.39,13.39,0,0,1,4.92,5.52A17,17,0,0,1,662,91.11a2.62,2.62,0,0,1-2.76,2.7H638.9a9.87,9.87,0,0,0,3.12,6.54q2.64,2.34,7.38,2.34a18,18,0,0,0,4.41-.48,18.32,18.32,0,0,0,3.69-1.38,2.38,2.38,0,0,1,1.08-.24,2.41,2.41,0,0,1,1.68.66,2.18,2.18,0,0,1,.72,1.68,2.59,2.59,0,0,1-1.56,2.22,18.74,18.74,0,0,1-10.5,2.64Q641.6,107.79,637.49,103.62ZM656.6,89.37a9.61,9.61,0,0,0-1.53-4.92,8.26,8.26,0,0,0-3.33-2.91,9.13,9.13,0,0,0-8,0,8,8,0,0,0-3.31,2.91,9.79,9.79,0,0,0-1.5,4.92Z"/><path d="M672.11,106.71a8.52,8.52,0,0,1-3.57-3.15,8.68,8.68,0,0,1-1.32-4.77,8.41,8.41,0,0,1,3.51-7.08q3.51-2.64,10.29-2.64h7.26v-.48q0-4-1.95-5.7t-6.09-1.74a20.45,20.45,0,0,0-4,.36,34.54,34.54,0,0,0-3.93,1.08,3.37,3.37,0,0,1-.78.12,2.13,2.13,0,0,1-1.56-.66,2.2,2.2,0,0,1-.66-1.62,2.31,2.31,0,0,1,1.56-2.28A26.4,26.4,0,0,1,681.21,76a13.54,13.54,0,0,1,7,1.68,10.56,10.56,0,0,1,4.2,4.35,12.65,12.65,0,0,1,1.35,5.79v17a2.56,2.56,0,0,1-.81,1.92,2.71,2.71,0,0,1-1.95.78,2.66,2.66,0,0,1-2.7-2.7v-1.56A15.07,15.07,0,0,1,677,107.79,11.15,11.15,0,0,1,672.11,106.71Zm12-5a14.18,14.18,0,0,0,4.14-3.21v-5h-6.54q-9.06,0-9.06,4.74a4.45,4.45,0,0,0,1.47,3.48Q675.62,103,679,103A10.85,10.85,0,0,0,684.14,101.7Z"/><path d="M703.7,106.71a2.61,2.61,0,0,1-.78-1.92V79.05a2.71,2.71,0,0,1,.78-2,2.56,2.56,0,0,1,1.92-.81,2.77,2.77,0,0,1,2.76,2.76v2.58Q712.58,76,717.8,76h.3a2.51,2.51,0,0,1,1.89.78,2.66,2.66,0,0,1,.75,1.92,2.42,2.42,0,0,1-.78,1.86,2.81,2.81,0,0,1-2,.72h-.3a10.23,10.23,0,0,0-5.28,1.41,12.16,12.16,0,0,0-4,3.87v18.24a2.56,2.56,0,0,1-.81,1.92,2.71,2.71,0,0,1-2,.78A2.61,2.61,0,0,1,703.7,106.71Z"/><path d="M746.9,105.81a13.46,13.46,0,0,1-5.37-5.61,19.21,19.21,0,0,1,0-16.62A13.46,13.46,0,0,1,746.9,78,17.44,17.44,0,0,1,763,78a13.65,13.65,0,0,1,5.4,5.61,18.94,18.94,0,0,1,0,16.62,13.65,13.65,0,0,1-5.4,5.61,17.44,17.44,0,0,1-16.14,0Zm12.81-4.14a9.16,9.16,0,0,0,3.72-3.6,12,12,0,0,0,1.47-6.24,11.88,11.88,0,0,0-1.47-6.18,9,9,0,0,0-3.72-3.57A10.52,10.52,0,0,0,755,81a10.64,10.64,0,0,0-4.77,1.11,8.78,8.78,0,0,0-3.69,3.57,12.08,12.08,0,0,0-1.44,6.18,12.21,12.21,0,0,0,1.44,6.24,9,9,0,0,0,3.69,3.6,10.41,10.41,0,0,0,4.77,1.14A10.29,10.29,0,0,0,759.71,101.67Z"/><path d="M778.76,106.71a2.61,2.61,0,0,1-.78-1.92V79.05a2.71,2.71,0,0,1,.78-2,2.56,2.56,0,0,1,1.92-.81,2.77,2.77,0,0,1,2.76,2.76v2.46a19.94,19.94,0,0,1,4.92-4A12.42,12.42,0,0,1,794.6,76a10.37,10.37,0,0,1,5.73,1.56,10.14,10.14,0,0,1,3.72,4.26,13.6,13.6,0,0,1,1.29,5.94v17a2.56,2.56,0,0,1-.81,1.92,2.71,2.71,0,0,1-1.95.78,2.66,2.66,0,0,1-2.7-2.7V88.35q0-7.32-6.6-7.32a9.55,9.55,0,0,0-5.37,1.56,19.44,19.44,0,0,0-4.47,4.2v18a2.56,2.56,0,0,1-.81,1.92,2.71,2.71,0,0,1-2,.78A2.61,2.61,0,0,1,778.76,106.71Z"/><path d="M816.77,103.62q-4.11-4.17-4.11-11.73A19.56,19.56,0,0,1,814.22,84a13.36,13.36,0,0,1,4.8-5.82A13.79,13.79,0,0,1,827,76a14,14,0,0,1,7.68,2.07,13.39,13.39,0,0,1,4.92,5.52,17,17,0,0,1,1.68,7.53,2.62,2.62,0,0,1-2.76,2.7H818.18a9.87,9.87,0,0,0,3.12,6.54q2.64,2.34,7.38,2.34a18,18,0,0,0,4.41-.48,18.32,18.32,0,0,0,3.69-1.38,2.38,2.38,0,0,1,1.08-.24,2.41,2.41,0,0,1,1.68.66,2.18,2.18,0,0,1,.72,1.68,2.59,2.59,0,0,1-1.56,2.22,18.74,18.74,0,0,1-10.5,2.64Q820.88,107.79,816.77,103.62Zm19.11-14.25a9.61,9.61,0,0,0-1.53-4.92A8.26,8.26,0,0,0,831,81.54a9.15,9.15,0,0,0-8,0,8.06,8.06,0,0,0-3.3,2.91,9.79,9.79,0,0,0-1.5,4.92Z"/><path d="M863.06,105.09a2.29,2.29,0,0,1-1-2,2.41,2.41,0,0,1,.66-1.68,2.18,2.18,0,0,1,1.68-.72,2.64,2.64,0,0,1,1.08.24,24.25,24.25,0,0,0,3.84,1.32,17.85,17.85,0,0,0,4.32.48q6.66,0,6.66-4.26a2.27,2.27,0,0,0-1.53-2.1,31.33,31.33,0,0,0-5-1.62A45.27,45.27,0,0,1,867.89,93a10.29,10.29,0,0,1-4-2.73,6.94,6.94,0,0,1-1.65-4.83,8.65,8.65,0,0,1,3-6.84Q868.34,76,874,76a25,25,0,0,1,8.7,1.5,2.25,2.25,0,0,1,1.29.9,2.41,2.41,0,0,1,.45,1.38,2.35,2.35,0,0,1-.69,1.68,2.27,2.27,0,0,1-1.71.72,3.37,3.37,0,0,1-.78-.12A23,23,0,0,0,874.4,81a9.37,9.37,0,0,0-5.07,1.17,3.49,3.49,0,0,0-1.83,3,2.77,2.77,0,0,0,1.68,2.64,24,24,0,0,0,5.22,1.62,50,50,0,0,1,5.76,1.77A9.52,9.52,0,0,1,884,93.93a7.41,7.41,0,0,1,1.59,5,7.93,7.93,0,0,1-3,6.36q-3,2.52-8.55,2.52A22.32,22.32,0,0,1,863.06,105.09Z"/><path d="M898.28,105.81a13.46,13.46,0,0,1-5.37-5.61,19.21,19.21,0,0,1,0-16.62A13.46,13.46,0,0,1,898.28,78a17.44,17.44,0,0,1,16.14,0,13.65,13.65,0,0,1,5.4,5.61,18.94,18.94,0,0,1,0,16.62,13.65,13.65,0,0,1-5.4,5.61,17.44,17.44,0,0,1-16.14,0Zm12.81-4.14a9.16,9.16,0,0,0,3.72-3.6,12,12,0,0,0,1.47-6.24,11.88,11.88,0,0,0-1.47-6.18,9,9,0,0,0-3.72-3.57A10.52,10.52,0,0,0,906.38,81a10.64,10.64,0,0,0-4.77,1.11,8.78,8.78,0,0,0-3.69,3.57,12.08,12.08,0,0,0-1.44,6.18,12.21,12.21,0,0,0,1.44,6.24,9,9,0,0,0,3.69,3.6,10.41,10.41,0,0,0,4.77,1.14A10.29,10.29,0,0,0,911.09,101.67Z"/><path d="M930.14,106.71a2.61,2.61,0,0,1-.78-1.92V79.05a2.71,2.71,0,0,1,.78-2,2.56,2.56,0,0,1,1.92-.81,2.77,2.77,0,0,1,2.76,2.76v2.46a19.94,19.94,0,0,1,4.92-4A12.42,12.42,0,0,1,946,76a10.37,10.37,0,0,1,5.73,1.56,10.14,10.14,0,0,1,3.72,4.26,13.6,13.6,0,0,1,1.29,5.94v17a2.56,2.56,0,0,1-.81,1.92,2.71,2.71,0,0,1-1.95.78,2.66,2.66,0,0,1-2.7-2.7V88.35q0-7.32-6.6-7.32a9.55,9.55,0,0,0-5.37,1.56,19.44,19.44,0,0,0-4.47,4.2v18a2.56,2.56,0,0,1-.81,1.92,2.71,2.71,0,0,1-2,.78A2.61,2.61,0,0,1,930.14,106.71Z"/><path d="M973.16,120.69a23,23,0,0,1-5.82-2.22,2.28,2.28,0,0,1-1.08-2.1,2.46,2.46,0,0,1,.69-1.71,2.23,2.23,0,0,1,1.71-.75,3,3,0,0,1,1.08.24,21.83,21.83,0,0,0,9.9,2.28q9.18,0,9.18-9.78v-4a13.54,13.54,0,0,1-10.26,4.56,14.46,14.46,0,0,1-6.87-1.77,14.3,14.3,0,0,1-5.49-5.28A16,16,0,0,1,964,91.59,16,16,0,0,1,966.2,83a14.3,14.3,0,0,1,5.49-5.28A14.46,14.46,0,0,1,978.56,76a13.54,13.54,0,0,1,10.26,4.56v-1.5a2.71,2.71,0,0,1,.78-2,2.56,2.56,0,0,1,1.92-.81,2.77,2.77,0,0,1,2.76,2.76v26.82q0,7.56-3.66,11.64t-10.44,4.08A28.4,28.4,0,0,1,973.16,120.69ZM984.68,101a18,18,0,0,0,4.14-3.24V85.41a18,18,0,0,0-4.14-3.24,10.08,10.08,0,0,0-5-1.2,10.19,10.19,0,0,0-7.35,2.73q-2.85,2.73-2.85,7.89t2.85,7.89a10.19,10.19,0,0,0,7.35,2.73A10.08,10.08,0,0,0,984.68,101Z"/><path d="M1003.31,115.71a1.78,1.78,0,0,1-.51-1.26,1.67,1.67,0,0,1,.9-1.5,6.85,6.85,0,0,0,2.28-2.1,6.41,6.41,0,0,0,.78-3.48h-.24a3.38,3.38,0,0,1-3.36-3.36v-.36a3.38,3.38,0,0,1,3.36-3.36h.6a3.38,3.38,0,0,1,3.36,3.36v3.54a9.65,9.65,0,0,1-4.92,8.76,1.89,1.89,0,0,1-1,.3A1.63,1.63,0,0,1,1003.31,115.71Z"/><path d="M68.22,192.51a2.59,2.59,0,0,1-.75-1.86,2.72,2.72,0,0,1,.18-1l3.9-10L60.27,152.19a3.07,3.07,0,0,1-.24-1.14,2.71,2.71,0,0,1,.78-2,2.56,2.56,0,0,1,1.92-.81,2.62,2.62,0,0,1,1.53.48,2.72,2.72,0,0,1,1,1.2l9.24,22.92,9.42-22.8a2.62,2.62,0,0,1,2.52-1.8,2.56,2.56,0,0,1,1.92.81,2.71,2.71,0,0,1,.78,2,2.88,2.88,0,0,1-.18,1L72.57,191.43a2.7,2.7,0,0,1-2.52,1.86A2.44,2.44,0,0,1,68.22,192.51Z"/><path d="M100.41,177.81A13.46,13.46,0,0,1,95,172.2a19.21,19.21,0,0,1,0-16.62,13.46,13.46,0,0,1,5.37-5.61,17.44,17.44,0,0,1,16.14,0,13.65,13.65,0,0,1,5.4,5.61,18.94,18.94,0,0,1,0,16.62,13.65,13.65,0,0,1-5.4,5.61,17.44,17.44,0,0,1-16.14,0Zm12.81-4.14a9.16,9.16,0,0,0,3.72-3.6,12,12,0,0,0,1.47-6.24,11.88,11.88,0,0,0-1.47-6.18,9,9,0,0,0-3.72-3.57,10.52,10.52,0,0,0-4.71-1.11,10.64,10.64,0,0,0-4.77,1.11,8.78,8.78,0,0,0-3.69,3.57,12.08,12.08,0,0,0-1.44,6.18,12.21,12.21,0,0,0,1.44,6.24,9,9,0,0,0,3.69,3.6,10.41,10.41,0,0,0,4.77,1.14A10.29,10.29,0,0,0,113.22,173.67Z"/><path d="M136.2,178.23a10.14,10.14,0,0,1-3.72-4.26,13.6,13.6,0,0,1-1.29-5.94V151a2.56,2.56,0,0,1,.81-1.92,2.71,2.71,0,0,1,1.95-.78,2.66,2.66,0,0,1,2.7,2.7v16.44q0,7.32,6.6,7.32a9.55,9.55,0,0,0,5.37-1.56,19.44,19.44,0,0,0,4.47-4.2V151a2.56,2.56,0,0,1,.81-1.92,2.71,2.71,0,0,1,1.95-.78,2.66,2.66,0,0,1,2.7,2.7v25.74a2.71,2.71,0,0,1-.78,2,2.56,2.56,0,0,1-1.92.81,2.77,2.77,0,0,1-2.76-2.76v-2.46a19.94,19.94,0,0,1-4.92,4,12.42,12.42,0,0,1-6.24,1.5A10.37,10.37,0,0,1,136.2,178.23Z"/><path d="M184.41,178.71a2.61,2.61,0,0,1-.78-1.92V151.05a2.71,2.71,0,0,1,.78-2,2.56,2.56,0,0,1,1.92-.81,2.77,2.77,0,0,1,2.76,2.76v2.46a15,15,0,0,1,4-4,11,11,0,0,1,6.15-1.56,9.33,9.33,0,0,1,5.76,1.8,10,10,0,0,1,3.42,4.38,12.09,12.09,0,0,1,11-6.18,9.11,9.11,0,0,1,5.61,1.68,10,10,0,0,1,3.33,4.32,14.44,14.44,0,0,1,1.08,5.52v17.28a2.56,2.56,0,0,1-.81,1.92,2.71,2.71,0,0,1-1.95.78,2.66,2.66,0,0,1-2.7-2.7v-16.2q0-3.9-1.38-5.73T218,153a7.92,7.92,0,0,0-5.07,1.59,15.38,15.38,0,0,0-3.57,4.17v18a2.56,2.56,0,0,1-.81,1.92,2.71,2.71,0,0,1-1.95.78,2.66,2.66,0,0,1-2.7-2.7v-16.2q0-3.9-1.38-5.73T197.73,153a7.92,7.92,0,0,0-5.07,1.59,15.38,15.38,0,0,0-3.57,4.17v18a2.56,2.56,0,0,1-.81,1.92,2.71,2.71,0,0,1-1.95.78A2.61,2.61,0,0,1,184.41,178.71Z"/><path d="M239.13,141.45a3,3,0,0,1-.9-2.16v-.24a3.07,3.07,0,0,1,3.06-3.06h.36a3.07,3.07,0,0,1,3.06,3.06v.24a3.07,3.07,0,0,1-3.06,3.06h-.36A3,3,0,0,1,239.13,141.45Zm.36,37.26a2.61,2.61,0,0,1-.78-1.92V151.05a2.71,2.71,0,0,1,.78-2,2.56,2.56,0,0,1,1.92-.81,2.67,2.67,0,0,1,2.76,2.76v25.74a2.56,2.56,0,0,1-.81,1.92,2.71,2.71,0,0,1-2,.78A2.61,2.61,0,0,1,239.49,178.71Z"/><path d="M260.91,192.69a23,23,0,0,1-5.82-2.22,2.28,2.28,0,0,1-1.08-2.1,2.46,2.46,0,0,1,.69-1.71,2.23,2.23,0,0,1,1.71-.75,3,3,0,0,1,1.08.24,21.83,21.83,0,0,0,9.9,2.28q9.18,0,9.18-9.78v-4a13.54,13.54,0,0,1-10.26,4.56,14.46,14.46,0,0,1-6.87-1.77,14.3,14.3,0,0,1-5.49-5.28,18,18,0,0,1,0-17.1,14.3,14.3,0,0,1,5.49-5.28,14.46,14.46,0,0,1,6.87-1.77,13.54,13.54,0,0,1,10.26,4.56v-1.5a2.71,2.71,0,0,1,.78-2,2.56,2.56,0,0,1,1.92-.81,2.77,2.77,0,0,1,2.76,2.76v26.82q0,7.56-3.66,11.64t-10.44,4.08A28.4,28.4,0,0,1,260.91,192.69ZM272.43,173a18,18,0,0,0,4.14-3.24V157.41a18,18,0,0,0-4.14-3.24,10.08,10.08,0,0,0-5-1.2,10.19,10.19,0,0,0-7.35,2.73q-2.85,2.73-2.85,7.89t2.85,7.89a10.19,10.19,0,0,0,7.35,2.73A10.08,10.08,0,0,0,272.43,173Z"/><path d="M292.29,178.71a2.61,2.61,0,0,1-.78-1.92V137.85a2.71,2.71,0,0,1,.78-1.95,2.56,2.56,0,0,1,1.92-.81,2.77,2.77,0,0,1,2.76,2.76v15.66a19.94,19.94,0,0,1,4.92-4,12.42,12.42,0,0,1,6.24-1.5,10.37,10.37,0,0,1,5.73,1.56,10.14,10.14,0,0,1,3.72,4.26,13.6,13.6,0,0,1,1.29,5.94v17a2.56,2.56,0,0,1-.81,1.92,2.71,2.71,0,0,1-1.95.78,2.66,2.66,0,0,1-2.7-2.7V160.35q0-7.32-6.6-7.32a9.55,9.55,0,0,0-5.37,1.56,19.44,19.44,0,0,0-4.47,4.2v18a2.56,2.56,0,0,1-.81,1.92,2.71,2.71,0,0,1-2,.78A2.61,2.61,0,0,1,292.29,178.71Z"/><path d="M329.13,171.87v-18.6h-4.26a1.13,1.13,0,0,1-1.14-1.14,1.25,1.25,0,0,1,.54-1l8.16-8a1.51,1.51,0,0,1,1-.54,1.06,1.06,0,0,1,.81.36,1.2,1.2,0,0,1,.33.84v4.8h6.78a2.26,2.26,0,0,1,2.34,2.34,2.3,2.3,0,0,1-.66,1.65,2.22,2.22,0,0,1-1.68.69h-6.78v18.12q0,2.34,1.11,3a5.59,5.59,0,0,0,2.79.63,8.32,8.32,0,0,0,2.4-.36l.51-.12a3.27,3.27,0,0,1,.69-.06,2.11,2.11,0,0,1,1.5.63,2,2,0,0,1,.66,1.53,2.27,2.27,0,0,1-1.38,2.1,11.74,11.74,0,0,1-5,1.08Q329.13,179.79,329.13,171.87Z"/><path d="M366.63,178.71a2.61,2.61,0,0,1-.78-1.92V137.85a2.71,2.71,0,0,1,.78-1.95,2.56,2.56,0,0,1,1.92-.81,2.67,2.67,0,0,1,2.76,2.76v38.94a2.56,2.56,0,0,1-.81,1.92,2.71,2.71,0,0,1-1.95.78A2.61,2.61,0,0,1,366.63,178.71Z"/><path d="M381.21,141.45a3,3,0,0,1-.9-2.16v-.24a3.07,3.07,0,0,1,3.06-3.06h.36a3.07,3.07,0,0,1,3.06,3.06v.24a3.07,3.07,0,0,1-3.06,3.06h-.36A3,3,0,0,1,381.21,141.45Zm.36,37.26a2.61,2.61,0,0,1-.78-1.92V151.05a2.71,2.71,0,0,1,.78-2,2.56,2.56,0,0,1,1.92-.81,2.67,2.67,0,0,1,2.76,2.76v25.74a2.56,2.56,0,0,1-.81,1.92,2.71,2.71,0,0,1-1.95.78A2.61,2.61,0,0,1,381.57,178.71Z"/><path d="M396.51,178.71a2.61,2.61,0,0,1-.78-1.92V137.85a2.71,2.71,0,0,1,.78-1.95,2.56,2.56,0,0,1,1.92-.81,2.77,2.77,0,0,1,2.76,2.76v24.54l14.28-13.2a2.76,2.76,0,0,1,1.8-.78,2.43,2.43,0,0,1,2,.78,2.87,2.87,0,0,1,.63,1.86,2.94,2.94,0,0,1-1,2l-8.64,7.74,10.86,14.4a2.63,2.63,0,0,1,.6,1.62,2.49,2.49,0,0,1-.78,1.92,2.81,2.81,0,0,1-2,.72,2.66,2.66,0,0,1-1.2-.3,3,3,0,0,1-1-.84l-10.32-14-5.22,4.74v7.74a2.56,2.56,0,0,1-.81,1.92,2.71,2.71,0,0,1-1.95.78A2.61,2.61,0,0,1,396.51,178.71Z"/><path d="M430.14,175.62Q426,171.45,426,163.89a19.56,19.56,0,0,1,1.56-7.86,13.36,13.36,0,0,1,4.8-5.82,13.79,13.79,0,0,1,8-2.22,14,14,0,0,1,7.68,2.07,13.39,13.39,0,0,1,4.92,5.52,17,17,0,0,1,1.68,7.53,2.62,2.62,0,0,1-2.76,2.7H431.55a9.87,9.87,0,0,0,3.12,6.54q2.64,2.34,7.38,2.34a18,18,0,0,0,4.41-.48,18.32,18.32,0,0,0,3.69-1.38,2.38,2.38,0,0,1,1.08-.24,2.41,2.41,0,0,1,1.68.66,2.18,2.18,0,0,1,.72,1.68,2.59,2.59,0,0,1-1.56,2.22,18.74,18.74,0,0,1-10.5,2.64Q434.25,179.79,430.14,175.62Zm19.11-14.25a9.61,9.61,0,0,0-1.53-4.92,8.26,8.26,0,0,0-3.33-2.91,9.15,9.15,0,0,0-8,0,8.06,8.06,0,0,0-3.3,2.91,9.79,9.79,0,0,0-1.5,4.92Z"/><path d="M477.87,141.45a3,3,0,0,1-.9-2.16v-.24A3.07,3.07,0,0,1,480,136h.36a3.07,3.07,0,0,1,3.06,3.06v.24a3.07,3.07,0,0,1-3.06,3.06H480A3,3,0,0,1,477.87,141.45Zm.36,37.26a2.61,2.61,0,0,1-.78-1.92V151.05a2.71,2.71,0,0,1,.78-2,2.56,2.56,0,0,1,1.92-.81,2.67,2.67,0,0,1,2.76,2.76v25.74a2.56,2.56,0,0,1-.81,1.92,2.71,2.71,0,0,1-2,.78A2.61,2.61,0,0,1,478.23,178.71Z"/><path d="M494.19,171.87v-18.6h-4.26a1.13,1.13,0,0,1-1.14-1.14,1.25,1.25,0,0,1,.54-1l8.16-8a1.51,1.51,0,0,1,1-.54,1.06,1.06,0,0,1,.81.36,1.2,1.2,0,0,1,.33.84v4.8h6.78a2.26,2.26,0,0,1,2.34,2.34,2.3,2.3,0,0,1-.66,1.65,2.22,2.22,0,0,1-1.68.69h-6.78v18.12q0,2.34,1.11,3a5.59,5.59,0,0,0,2.79.63,8.32,8.32,0,0,0,2.4-.36l.51-.12a3.27,3.27,0,0,1,.69-.06,2.11,2.11,0,0,1,1.5.63,2,2,0,0,1,.66,1.53,2.27,2.27,0,0,1-1.38,2.1,11.74,11.74,0,0,1-5,1.08Q494.19,179.79,494.19,171.87Z"/><path d="M515.7,178.38a3.23,3.23,0,0,1-1-2.37v-.36a3.38,3.38,0,0,1,3.36-3.36h.6a3.38,3.38,0,0,1,3.36,3.36V176a3.38,3.38,0,0,1-3.36,3.36h-.6A3.23,3.23,0,0,1,515.7,178.38Z"/><path class="cls-3" d="M562.73,302.13a11.64,11.64,0,0,0,2.33-2c1.55-1.45,3.07-2.92,4.6-4.38q7.85-7.53,15.89-14.85,11.38-10.29,23.28-20c9.3-7.54,18.87-14.76,28.76-21.51a306.37,306.37,0,0,1,32.58-19.6A186.71,186.71,0,0,1,704.27,206a108.28,108.28,0,0,1,33.88-4.53c14.05.55,27,5.58,39.88,10.87a260.57,260.57,0,0,1,42.9,22.14,174.06,174.06,0,0,1,26.68,21,114.58,114.58,0,0,1,13.89,16c1.15,1.63,2.25,3.31,3.27,5,.3.51.56,1.08.9,1.56.19.28,0-.23,0,0,0-.5-.08-.72.46-1.24.24-.24.66-.06.22-.2s-.18,0-.16,0l-.65-.13c-.53-.12-1.06-.27-1.59-.42-1.46-.44-2.91-.93-4.35-1.44-4.44-1.55-8.86-3.19-13.29-4.76a392.06,392.06,0,0,0-39.08-11.93c-15.31-3.7-31.07-6.25-46.85-6.13-13.23.11-26.27,2.68-39.1,5.73-13.54,3.22-26.9,7.11-40.17,11.29s-26.73,8.77-40,13.52q-16.62,6-33.11,12.33-9.81,3.8-19.58,7.73l-2.64,1.08c-1.76.73-1,3.63.8,2.89,3.61-1.49,7.25-2.94,10.89-4.38q13.88-5.49,27.87-10.7,19-7.08,38.19-13.58c13.71-4.63,27.52-9,41.46-12.87a339.3,339.3,0,0,1,37.64-8.58c15.46-2.43,31.19-1.56,46.57,1A301,301,0,0,1,833,268.4c9.56,3.14,18.93,6.85,28.5,10,1.6.53,4.51,1.86,6.17.9,1.83-1.05.44-3-.3-4.25a92.13,92.13,0,0,0-9.08-12.51,144.08,144.08,0,0,0-20-19.19,215.22,215.22,0,0,0-34.65-22.37c-7.7-4-15.59-7.68-23.62-11s-16-6.62-24.29-8.85a86.86,86.86,0,0,0-33.64-1.86,142.73,142.73,0,0,0-34.84,9.47,241.64,241.64,0,0,0-33.94,17.08A367.5,367.5,0,0,0,621.91,247c-9.21,6.88-18.16,14.11-26.88,21.6q-10.31,8.85-20.21,18.16c-4,3.72-7.85,7.52-11.82,11.24-.44.41-.89.83-1.35,1.23-.14.13-.29.25-.44.37.31-.24.24-.14,0,0-1.72.87-.2,3.46,1.52,2.59Z"/><path class="cls-3" d="M514.57,347.55a9.73,9.73,0,0,0,.64-2.76c.29-1.88.55-3.77.82-5.66.93-6.51,1.91-13,3-19.49q2.33-13.75,5.32-27.39c2.38-10.73,5.11-21.4,8.29-31.93a315.71,315.71,0,0,1,11.89-33.09,205.68,205.68,0,0,1,16.2-30.82,122.41,122.41,0,0,1,21-25,78.43,78.43,0,0,1,26.46-15.8,265.72,265.72,0,0,1,28.59-7.75,271.15,271.15,0,0,1,26.84-4.62,203.1,203.1,0,0,1,41.61-.91A130.62,130.62,0,0,1,730.85,147c2.39.7,4.74,1.49,7.06,2.4l1.17.46.49.21-.09,0,.24.1.34.15c.31.1.15.18,0,0a1.34,1.34,0,0,1,0-1.64c-.15.18-.29.21.06,0-.13.08-.25.17-.38.24l-.45.22-.25.12c-.4.19.21-.08-.08,0-1.13.46-2.29.85-3.45,1.22-3.73,1.2-7.5,2.27-11.26,3.37-11.57,3.42-23.07,7.05-34.35,11.36-13.7,5.23-27.15,11.35-39.6,19.15a132.91,132.91,0,0,0-17.63,13,157.83,157.83,0,0,0-13.29,13.59c-9.36,10.54-18,21.74-26.29,33.12-8.74,12-17.11,24.17-25.26,36.53q-10.48,15.88-20.5,32.07-6.07,9.78-12,19.67l-1.6,2.7a1.5,1.5,0,0,0,2.59,1.51c2.16-3.69,4.37-7.35,6.59-11q8.42-13.87,17.15-27.54,11.55-18.07,23.71-35.73c8.45-12.19,17.15-24.21,26.42-35.79,8.26-10.31,16.9-20.7,27.09-29.18,11.42-9.52,24.63-16.81,38.13-22.92a334.19,334.19,0,0,1,38-14.17c8.26-2.59,16.73-4.67,24.89-7.57,1.42-.5,4.4-1.26,4.4-3.22,0-1.79-2.59-2.34-3.9-2.85a102.09,102.09,0,0,0-18.09-5.08,167.46,167.46,0,0,0-34-2.8,250.09,250.09,0,0,0-50.1,6.16,274,274,0,0,0-29,7.81,75.94,75.94,0,0,0-14.5,6.7,97.39,97.39,0,0,0-24.26,21A159.15,159.15,0,0,0,550,208.9a257.16,257.16,0,0,0-14.31,32.79c-3.95,10.93-7.31,22.08-10.23,33.33q-3.92,15.09-6.84,30.4-2.33,12-4.14,24.13c-.73,4.8-1.36,9.62-2.11,14.42-.09.53-.17,1.07-.28,1.61-.06.31-.36,1.07-.06.45-.84,1.73,1.75,3.25,2.59,1.52Z"/><path class="cls-3" d="M499.75,360.59c-24.29,12.86-44.14,32.41-60.47,54.29-16.86,22.59-30.61,47.65-41.91,73.44a426.1,426.1,0,0,0-35.73,167.74A413.65,413.65,0,0,0,370,742q1.07,5.21,2.27,10.37c.44,1.88,3.33,1.09,2.9-.79a409.21,409.21,0,0,1-10.5-85,422.93,422.93,0,0,1,31-166.76,391.35,391.35,0,0,1,39.73-74.53c15.31-22.27,33.91-42.83,57-57.16q4.31-2.65,8.79-5c1.71-.9.19-3.49-1.52-2.59Z"/><path class="cls-3" d="M425.14,580.81c10.8-4.41,22.39-6.18,34-6.87a348.57,348.57,0,0,1,36.43,0c12.38.56,24.74,1.68,37,3.39a331.86,331.86,0,0,1,35.54,6.64,64.17,64.17,0,0,1,15.16,5.58,37.75,37.75,0,0,1,11.66,10C601.39,607.75,605,618.08,608,628c6.66,22,9.14,45.91,3.21,68.38-4.92,18.64-15.62,36.15-31.26,47.67q-3,2.17-6.11,4a1.52,1.52,0,0,0,0,2.59c18,8.76,38,12.27,56.16,20.76,8.13,3.81,15.92,8.6,22.19,15.1,1.45,1.51,3.63,3.42,4,5.58s-2.34,3.87-3.91,5a55.8,55.8,0,0,1-13.15,6.46c-9.81,3.44-20.15,5.09-30.46,6.15-10.67,1.08-21.39,1.75-32.09,2.36q-33,1.86-66,1.69t-65.77-2.4c-2.72-.18-5.45-.38-8.17-.58-1.93-.15-1.92,2.85,0,3q33.93,2.54,68,2.93,33.9.38,67.78-1.41c11.09-.59,22.19-1.28,33.25-2.3,10.63-1,21.29-2.42,31.5-5.61A67.77,67.77,0,0,0,651,801.46c3.51-2.06,9.18-5.2,8.08-10.1-.51-2.25-2.18-4.07-3.68-5.72a57.77,57.77,0,0,0-5.09-4.93A74.1,74.1,0,0,0,639,772.78c-17.58-10.14-37.78-13.85-56.43-21.43-2.44-1-4.86-2.07-7.23-3.23v2.59c17.28-10.34,29.79-27.2,36.45-46.05,7.75-22,7-46,1.54-68.44-2.63-10.78-6-21.85-11.46-31.58a48.65,48.65,0,0,0-9.43-12.24,44.14,44.14,0,0,0-13.78-8.3,103.5,103.5,0,0,0-16-4.51q-9.3-2-18.68-3.57-18.84-3.13-37.93-4.51-18.93-1.35-37.95-.93c-11.94.28-24,1.19-35.56,4.5a81.18,81.18,0,0,0-8.16,2.84c-1.77.72-1,3.63.79,2.89Z"/><path class="cls-3" d="M670.09,617.19c9.11.29,17.09,5,23.75,10.95a115.31,115.31,0,0,1,9.72,9.93c3.15,3.57,6.49,7.16,8.82,11.32,2.63,4.68,2.82,9.69,1.38,14.79a56.35,56.35,0,0,1-5.92,13.21A93.56,93.56,0,0,1,689.57,699c-3.61,3.25-7.4,6.31-11.29,9.22-1.86,1.39-3.74,2.74-5.64,4.07-1.7,1.2-3.83,2.58-3.94,4.89-.11,2.1,1.53,3.58,3.3,4.38a57.14,57.14,0,0,0,7,2.36c5,1.54,10,2.91,15.07,4.32,10.05,2.84,20.16,5.85,29.41,10.81,4.1,2.19,8.45,5,9.72,9.75,1.19,4.46-.4,9.3-3.11,12.88-2.89,3.81-7,6.52-11.12,8.81A114,114,0,0,1,704.8,777a125.32,125.32,0,0,1-30.92,7.64q-3.95.45-7.91.64c-1.92.1-1.93,3.1,0,3a128.81,128.81,0,0,0,32.39-5.84,127,127,0,0,0,15.07-5.87,70.22,70.22,0,0,0,13.4-7.65,24.73,24.73,0,0,0,8.75-11.37c1.51-4.41,1.35-9.51-1.24-13.49-2.75-4.19-7.36-6.7-11.74-8.87a117.2,117.2,0,0,0-14.94-6c-10.33-3.43-20.95-5.88-31.3-9.26-1-.32-5.25-1.21-4.59-2.94.34-.87,1.5-1.51,2.22-2,1.06-.74,2.11-1.49,3.16-2.25,4-2.88,7.88-5.88,11.62-9.07a104.4,104.4,0,0,0,19.76-21.73,71.35,71.35,0,0,0,6.64-12.66c2-5.07,3.36-10.69,2-16.11-1.24-4.88-4.42-9-7.6-12.74s-6.23-7.25-9.61-10.64c-6.44-6.47-14-12.46-23.07-14.68a33,33,0,0,0-6.78-.92c-1.93-.06-1.93,2.94,0,3Z"/><path class="cls-3" d="M361.37,758.73c-.48-7.45-2.09-15.37-7.51-20.89a19.33,19.33,0,0,0-9.2-5.34,16.41,16.41,0,0,0-10.7,1.27,39.68,39.68,0,0,0-9.28,6.35,47.68,47.68,0,0,0-7.38,8.1c-4.05,5.67-6.73,12.66-6,19.71.22,2.09.89,4.14.94,6.23a9,9,0,0,1-1.9,5.16c-1.92,3-3.39,5.79-3.75,9.36-.67,6.72,2.55,13.56,7.19,18.26,5.3,5.36,12.55,8.41,19.64,10.57a176.43,176.43,0,0,0,24.86,5.67c15.82,2.42,32.85,1.88,47.08-6.25a48.25,48.25,0,0,0,4.85-3.19c1.52-1.15,0-3.75-1.52-2.59-12,9-27.47,11.22-42.1,10a152,152,0,0,1-24.32-4.38c-7-1.74-14.08-3.64-20.31-7.34-5.59-3.33-10.18-8.27-11.86-14.68a16,16,0,0,1,.06-8.79c1-3.24,3.62-5.63,4.66-8.85,1.17-3.6-.54-7.29-.63-10.92a24.1,24.1,0,0,1,1.75-9.37c2.47-6.31,7.18-11.68,12.41-15.89a27.62,27.62,0,0,1,9.12-5.34,13.09,13.09,0,0,1,9.63.93c6.45,3.25,9.51,9.9,10.68,16.72a52.68,52.68,0,0,1,.6,5.46c.12,1.92,3.12,1.93,3,0Z"/><path class="cls-3" d="M626.21,461.87a24.36,24.36,0,0,0,28.2,1.9c1.62-1,.11-3.64-1.52-2.59a21.3,21.3,0,0,1-24.56-1.43c-1.47-1.23-3.61.88-2.12,2.12Z"/><path class="cls-3" d="M661.75,443.62c-1.48-2.61,1.62-5.29,4.14-4.87,3.63.59,5.24,4.41,4.41,7.7-.95,3.77-4.11,6.35-7.33,8.24a42.47,42.47,0,0,1-5.84,2.83,10.75,10.75,0,0,1-2.83.91c-.91.08-1-.71-1.21-1.47-.92-4.24,2.13-8.37,4.93-11.21,1.35-1.38-.77-3.5-2.12-2.12-3.54,3.59-6.74,8.51-5.77,13.79a5.37,5.37,0,0,0,1.56,3.2,4.21,4.21,0,0,0,3.69.66,31.26,31.26,0,0,0,7.78-3.27c4.51-2.41,9.12-6,10.15-11.29,1-4.86-1.75-10.09-6.93-10.92a6.77,6.77,0,0,0-6.51,2.51,6.1,6.1,0,0,0-.71,6.82c.94,1.69,3.54.18,2.59-1.51Z"/><path class="cls-3" d="M561.58,324.53A86.35,86.35,0,0,1,622,309.42c10.67,1.32,22,4.54,30.48,11.46,7.24,5.95,11.89,14.26,14.38,23.21,2.83,10.23,3.05,21.07,1.8,31.56a1.52,1.52,0,0,0,1.9,1.45c5.16-1.56,9.87,2.24,13.16,5.8a100.77,100.77,0,0,1,22.19,43.76c3.83,19.95-1.72,42-17.61,55.46-8.15,6.89-18.24,11-28.34,14.16a263.74,263.74,0,0,1-34.74,8.24c-21.5,3.54-45.29,2.63-63.29-11.1-8-6.13-15.53-15.77-15.61-26.3,0-5.91,2.59-11.51,5.33-16.62A86.1,86.1,0,0,1,561,436.39q2.64-3.19,5.57-6.15a1.5,1.5,0,0,0-2.12-2.12,91.26,91.26,0,0,0-11.24,13.79,72.93,72.93,0,0,0-8.36,16.2,26.53,26.53,0,0,0,0,17.82A41.48,41.48,0,0,0,553.69,490c15.59,16.85,40.17,20.9,62,18.76,12.85-1.26,25.53-4.23,38-7.58,10.85-2.92,21.77-6.56,31.19-12.82A54.73,54.73,0,0,0,705.1,464a64.52,64.52,0,0,0,4.65-31.28,86,86,0,0,0-10.68-32.85,117.28,117.28,0,0,0-9.64-14.63c-3.31-4.31-7-8.74-12.29-10.72a11.54,11.54,0,0,0-7.43-.3l1.9,1.45c2.23-18.79-.25-40.6-14.4-54.5-8.15-8-19.38-12-30.44-14a89.86,89.86,0,0,0-32.74.32,86.87,86.87,0,0,0-34,14.48c-1.56,1.12-.06,3.72,1.51,2.59Z"/><path class="cls-3" d="M653.74,385.29a7.81,7.81,0,0,0-6.88-9.22,5,5,0,0,0-3.31.81,3.9,3.9,0,0,0-1.61,3.51,9.33,9.33,0,0,0,1.24,3.57,4.64,4.64,0,0,0,2.66,2.5,2.82,2.82,0,0,0,3.61-1.8,2.44,2.44,0,0,0-2.93-2.93,1.5,1.5,0,1,0,.79,2.89c.27-.08-.16,0-.24,0a1.23,1.23,0,0,1-.39-.16l-.08-.06q.15.17-.06-.09c.06.09.08.22,0-.11,0,.12,0,.22,0-.12,0,.25,0-.09,0-.12a.83.83,0,0,1,.2-.34c-.21.23.24-.11,0,0,.33-.16.13-.06,0,0s.3,0,.09,0h-.06c-.17,0-.14,0,.08,0a1.19,1.19,0,0,1-.22-.05c-.2,0,0,0,.06,0s-.15-.08-.19-.1c-.24-.15,0,0,0,0l-.27-.27c.2.21,0,0,0-.06l-.14-.21c-.1-.17-.2-.34-.29-.51-.19-.36-.38-.73-.54-1.1.11.24,0,0,0-.1l-.09-.27a5.87,5.87,0,0,1-.16-.6c0-.07,0-.28,0,0,0-.09,0-.18,0-.26a2.25,2.25,0,0,1,0-.26c0,.34,0,0,0-.11,0-.34-.09.11,0-.06l.13-.23c.1-.19-.23.2,0,0l.16-.15s-.26.16,0,0l.19-.11c.23-.13,0,0,0,0l.33-.11a2.8,2.8,0,0,0,.28-.06c.21-.06-.26,0,0,0l.53,0,.48,0c-.39,0,.16,0,.29.07a4.58,4.58,0,0,1,.49.15l.27.1,0,0a7.14,7.14,0,0,1,.89.52l.19.13c-.28-.2-.06,0,0,0l.38.35c.11.1.22.22.32.33s.09.12.14.17c.22.26-.13-.19.05.06a8.05,8.05,0,0,1,.57,1s.15.36.06.13,0,.09,0,.14a4.64,4.64,0,0,1,.16.53,2.86,2.86,0,0,1,.07.28s.06.42,0,.18,0,0,0,.08,0,.22,0,.33,0,.38,0,.56,0,.3,0,.08,0,.2,0,.25a1.5,1.5,0,1,0,2.89.79Z"/><path class="cls-3" d="M624.2,385.3c.12-2.09-1.69-3.71-3.62-4.08a4.86,4.86,0,0,0-5.43,2.36,6.41,6.41,0,0,0,.92,6.72,4.81,4.81,0,0,0,3.42,2.14,3.07,3.07,0,0,0,2.88-2.17,4.59,4.59,0,0,0-.31-3.76c-.3-.57-.67-1.1-1-1.65-.08-.15-.17-.3-.24-.44l-.08-.15c-.09-.19-.11-.13,0,0a1.11,1.11,0,0,1-.14-.41c0-.07,0-.14-.05-.21-.08-.3,0,.3,0,0a1.5,1.5,0,0,0-3,0,6.86,6.86,0,0,0,1.19,3.2c.26.4.52.8.74,1.22,0,.05.17.38.08.16s0,.08.05.14,0,.17,0,.25c.06.23,0-.35,0,0a2.09,2.09,0,0,1,0,.25c0,.07,0,.37,0,.1s0,0,0,.09a1.68,1.68,0,0,1-.09.32l0,.12s.15-.29.07-.18a1.43,1.43,0,0,0-.12.21s-.05.06-.06.09.22-.23.12-.15a.79.79,0,0,0-.19.17s.32-.22.13-.11-.17.08,0,0,0,0-.06,0,.18,0,.21,0-.08,0-.11,0h-.12c.12-.05.27.09.09,0s.18.12-.06,0l-.29-.19c-.25-.17.21.18-.06-.05a2.73,2.73,0,0,1-.25-.23,5.62,5.62,0,0,1-.41-.44c-.18-.21.15.22,0,0l-.22-.33a5.29,5.29,0,0,1-.29-.52l-.06-.13c-.08-.15,0,.13,0,.13s-.08-.21-.12-.32a4.24,4.24,0,0,1-.17-.61c0-.06,0-.24-.05-.28s0,.32,0,.16a1.23,1.23,0,0,0,0-.19,5.23,5.23,0,0,1,0-.56.71.71,0,0,0,0-.14c0-.27,0,.1,0,.12s0-.25.06-.32a2.76,2.76,0,0,1,.08-.27s.13-.35,0-.12,0-.06.07-.12.14-.21.2-.32-.08.11-.09.11.06-.08.08-.1l.16-.17c.05,0,.26-.21,0-.05s0,0,.1-.06l.19-.11.13-.06s-.33.12-.18.08.3-.11.46-.15l.23,0c.25-.05-.36,0-.1,0a4.87,4.87,0,0,1,.54,0l.26,0c.16,0-.22,0-.2,0a.66.66,0,0,0,.15,0,3.7,3.7,0,0,1,.55.14l.11,0c.19.06-.12-.05-.15-.07l.23.11c.15.08.28.18.43.27s-.17-.14-.17-.13a1.74,1.74,0,0,0,.14.12l.16.17c.16.14-.19-.31,0-.06l.12.2.05.09c.07.1-.09-.3-.08-.17s.06.18.08.26c.08.28,0-.3,0-.08a2.8,2.8,0,0,0,0,.29,1.51,1.51,0,0,0,1.5,1.5,1.54,1.54,0,0,0,1.5-1.5Z"/><path class="cls-3" d="M654.42,379.14c-3.08-6.17-6.42-12.54-10.71-18-3.63-4.6-9.39-8.3-15.47-6.54s-8.06,8.48-7.43,14.08a24.25,24.25,0,0,0,8,14.8c4.72,4.34,12.05,7.89,18.25,4.48,1.69-.94.18-3.53-1.51-2.59-4.55,2.5-10.16-.24-13.75-3.25a22.39,22.39,0,0,1-7.8-12.38c-.87-4.29,0-10.68,4.87-12.2,5.09-1.59,9.78,1.92,12.73,5.72a74.85,74.85,0,0,1,5.3,8.23q2.63,4.49,4.94,9.14c.86,1.72,3.45.21,2.59-1.52Z"/><path class="cls-3" d="M629.27,391.75c.47-7.74-4.3-14.82-10.8-18.66a30.3,30.3,0,0,0-11.2-3.79c-3.92-.56-8.48-.89-12,1.29a27.5,27.5,0,0,0-4.65,4.11l-4.91,4.93c-2.62,2.63-5.41,5.57-4.78,9.59.58,3.78,3.71,6.89,6.28,9.51,2.82,2.86,6.2,5.09,10.36,5a24.77,24.77,0,0,0,7.3-1.58c2.49-.83,5-1.68,7.47-2.53q7.59-2.61,15.14-5.3c1.8-.65,1-3.55-.8-2.9-7.73,2.76-15.47,5.52-23.28,8.06-3.67,1.2-7.4,2-10.86-.17a19,19,0,0,1-3.62-3.13,34.12,34.12,0,0,1-3.52-4.08,7,7,0,0,1-1.57-4.45,7.66,7.66,0,0,1,2.4-4.25c2.61-2.81,5.39-5.5,8.13-8.18a10.44,10.44,0,0,1,4.23-2.85,16.29,16.29,0,0,1,5.74-.37,29.7,29.7,0,0,1,10.21,2.44c6.78,3.08,12.18,9.57,11.71,17.32-.11,1.93,2.89,1.92,3,0Z"/><path class="cls-3" d="M646.79,343.63A61.08,61.08,0,0,0,626,338.08c-3.27-.23-6.5.34-8.93,2.68a14.8,14.8,0,0,0-3.9,7.9c-.33,1.69-.5,3.4-.72,5.11-.13,1-.28,1.93-.49,2.88-.13.61-.3,2-.93,2.33s-1.65-.3-2.12-.45l-2.62-.89c-1.74-.6-3.49-1.21-5.25-1.77-6.53-2.07-13.23-3.09-20-1.42a30.41,30.41,0,0,0-16.93,11.13c-1.16,1.54,1.44,3,2.59,1.52a27.08,27.08,0,0,1,14.39-9.56c6.31-1.74,12.55-.83,18.69,1.08,1.62.51,3.22,1.06,4.82,1.61A38.72,38.72,0,0,0,609.9,362c3.46.65,4.64-2.69,5.14-5.44,1-5.34.72-14.41,7.9-15.4,3.6-.5,7.64.46,11.13,1.28a60.77,60.77,0,0,1,11.21,3.83c1.74.8,3.27-1.78,1.51-2.59Z"/><path class="cls-3" d="M652.53,465.67l2.2,11.63c.15.81.25,1.65.41,2.45,0,.08-.07.33,0,.18s-.13.05-.2.07c-.41.14-.81.28-1.22.4a35.67,35.67,0,0,1-5.5,1.18l1.9,1.45a34,34,0,0,0-2.61-14.75,1.56,1.56,0,0,0-1.85-1,1.51,1.51,0,0,0-1.05,1.84A32,32,0,0,1,647.15,483a1.53,1.53,0,0,0,1.9,1.45,34.59,34.59,0,0,0,6.44-1.49,3.81,3.81,0,0,0,2.2-1.49,4.17,4.17,0,0,0,.31-2.95c-.77-4.57-1.72-9.12-2.57-13.68-.36-1.9-3.25-1.09-2.9.8Z"/><path class="cls-3" d="M644.27,481.66a4.33,4.33,0,0,1-3.27.74c-.48-.09-.76-.14-1-.58a8.21,8.21,0,0,1-.34-2.33l-1.47-12.21a1.54,1.54,0,0,0-1.5-1.5,1.52,1.52,0,0,0-1.5,1.5l.88,7.36c.29,2.42.49,4.86.89,7.26.65,4.05,6,4.4,8.8,2.35a1.54,1.54,0,0,0,.53-2.05,1.5,1.5,0,0,0-2.05-.54Z"/><path class="cls-3" d="M638,516.71c11.43-3,25.12-6.23,35.11,2.17,8.4,7,11.93,18.06,18.55,26.54s16.77,15.08,27.79,11.69a24.08,24.08,0,0,0,12-8.4,20.75,20.75,0,0,0,4-14.31c-.16-2.62-.59-5.8,1.1-8,1.49-2,4.21-2.6,6.55-2.88,3.28-.39,6.62-.44,9.91-.63,3.56-.21,7.11-.43,10.66-.62,6.49-.37,13.2-.62,19.44,1.5,4.91,1.67,9.68,5.41,11.35,10.47.77,2.35,1,5.42-.43,7.57-1.73,2.61-5.66,2-8.34,2-7.06-.08-14.16-.38-21.22-.23-2.84.06-5.33,1.26-6.08,4.18-.65,2.52,0,5.2-.08,7.76a33.17,33.17,0,0,1-3.93,14.77c-5.15,9.83-14.19,17.32-24.38,21.51-11.91,4.88-25,5.91-37.73,5.35-3.09-.14-6.17-.38-9.25-.68-1.92-.19-1.91,2.82,0,3,24.28,2.38,52.6.15,69.06-20.3a42.77,42.77,0,0,0,7.73-14.23,34.94,34.94,0,0,0,1.44-8c.17-2.59-.44-5.27-.09-7.82a2.55,2.55,0,0,1,2.1-2.47,27.31,27.31,0,0,1,5.5-.06l10.95.13a96.38,96.38,0,0,0,10.75,0c2.94-.3,5.45-1.61,6.69-4.4,2.27-5.13.08-11-3.4-15-4-4.58-9.77-6.94-15.69-7.78-6.76-1-13.62-.3-20.39.09l-11,.65a27,27,0,0,0-8.2,1.27,9,9,0,0,0-5.61,5.69c-.87,2.71-.46,5.62-.33,8.4A17.58,17.58,0,0,1,727,549.18,20,20,0,0,1,713.28,555c-5.63,0-10.85-2.86-14.89-6.61-8.3-7.72-11.91-18.78-19-27.42a27.89,27.89,0,0,0-13.79-9.43c-6.2-1.76-12.8-1.19-19,0-3.15.6-6.27,1.39-9.37,2.22a1.5,1.5,0,0,0,.8,2.89Z"/><path class="cls-3" d="M500.36,435.86A156.28,156.28,0,0,0,492,479.14c-.68,13.78.08,28.21,4.08,41.48,3.65,12.09,10.64,23.24,21.81,29.61a37.93,37.93,0,0,0,16.71,5.08,30.59,30.59,0,0,0,8.84-.83c3.2-.79,6.62-2.9,10-2,3.05.87,5.37,3.52,7.58,5.64l8.61,8.23c5.44,5.2,10.72,10.65,16.42,15.57,4.55,3.91,10,7.32,16.17,7.21,5.36-.1,10.77-2.71,12.61-8,2.11-6.11-1.91-12.33-5.71-16.79-2.2-2.59-4.68-4.93-7.09-7.31s-4.83-4.72-7.32-7a110.48,110.48,0,0,0-16.63-12.83c-5.58-3.43-11.62-6-17.55-8.7s-11.8-5.57-16.77-9.74a43.11,43.11,0,0,1-10.67-13.64c-5.34-10.55-6.94-22.64-7.78-34.3-.2-2.86-.35-5.73-.49-8.6-.09-1.92-3.09-1.93-3,0,.55,11.6,1.33,23.41,4.76,34.57s9.68,20.84,19.43,27.36c5.24,3.51,11,6.06,16.78,8.65a112.69,112.69,0,0,1,17.1,9.14,124.31,124.31,0,0,1,15.59,12.92c2.5,2.37,4.95,4.8,7.39,7.23a51.64,51.64,0,0,1,6.42,7.35c1.61,2.38,3.07,5.15,3.1,8.09a7.88,7.88,0,0,1-3.36,6.58c-4.55,3.17-10.61,2.3-15.19-.24-5.84-3.24-10.5-8.53-15.27-13.1L562,555c-2.2-2.1-4.5-4.28-7.45-5.25-3.36-1.12-6.54.12-9.73,1.18a29.22,29.22,0,0,1-17,.25C516,547.92,507.11,538.93,502,528c-5.53-11.92-7-25.59-7.2-38.59a152.88,152.88,0,0,1,5.27-42.46q1.4-5.19,3.16-10.26c.63-1.83-2.26-2.61-2.89-.8Z"/><path class="cls-3" d="M1402.41,678.22a391.61,391.61,0,0,0,40,3.38c6.66.21,13.35.35,20,.1,5.65-.21,11.65-1.25,15.83-5.4,7.89-7.86,2.71-21.13-5.24-26.72-4.86-3.41-10.87-4.06-16.64-3.64a52.57,52.57,0,0,0-18.05,4.11c-6,2.74-11,7.28-16.1,11.38s-10.66,7.91-17.17,8.68c-1.9.22-1.92,3.22,0,3,11.33-1.34,19-10,27.77-16.3a39.24,39.24,0,0,1,15.32-6.75c5.65-1.15,12-2,17.67-.52a17.94,17.94,0,0,1,11,8.49c2.35,4.1,3.44,9.83.94,14.11-2.74,4.71-8.6,6.14-13.65,6.48-6.2.41-12.49.21-18.7.06a381.71,381.71,0,0,1-42.19-3.35,1.54,1.54,0,0,0-1.84,1,1.5,1.5,0,0,0,1,1.84Z"/><path class="cls-3" d="M1391.81,676.67c-5.39.81-10.08-3.74-12.86-7.81-3.21-4.7-5.31-10.71-3.12-16.28,2.09-5.32,7.87-7.53,13-8.73a13.15,13.15,0,0,1,9,.58,54.93,54.93,0,0,1,8,5.06c2.8,2,5.4,4.24,8,6.49,2.24,1.94,4.79,3.78,7.9,3.6,1.91-.12,1.93-3.12,0-3-3.15.18-5.51-2.52-7.68-4.4a96,96,0,0,0-8.18-6.33c-2.77-1.9-5.7-4-8.93-5s-6.9-.46-10.21.43c-5.85,1.59-11.53,4.52-13.8,10.5-2.33,6.16-.32,12.94,3.18,18.22,3.66,5.52,9.44,10.61,16.5,9.55,1.9-.29,1.09-3.18-.8-2.89Z"/><path class="cls-3" d="M1472.3,688.21l6.56,66.29,1.86,18.8c.19,1.9,3.19,1.92,3,0L1477.16,707l-1.86-18.8c-.19-1.9-3.2-1.92-3,0Z"/></svg>