<svg id="Layer_1" data-name="Layer 1" xmlns="http://www.w3.org/2000/svg" viewBox="0 0 1920 1080"><defs><style>.cls-1{fill:#3785e2;}.cls-1,.cls-2{opacity:0.5;}.cls-2{fill:#e03838;}.cls-3{fill:#4d4d4d;}</style></defs><ellipse class="cls-1" cx="543.2" cy="529.91" rx="273.19" ry="440.75" transform="translate(-178.52 764.41) rotate(-62.29)"/><path class="cls-2" d="M1496,996c4-65-16-199,3-236s59-121,83-68,4,4,26,55-9,87,33,57,37-20,45-53,13-77,32-76,29-101,33,23-30,160-3,189,83,74,57,107-182-56-182-56l-59,7s7,96-14,106-60-1-51-14S1496,996,1496,996Z"/><path d="M1325.07,515.71a2.61,2.61,0,0,1-.78-1.92v-37a2.71,2.71,0,0,1,.78-1.95A2.56,2.56,0,0,1,1327,474a2.77,2.77,0,0,1,2.76,2.76v16h22.74v-16a2.71,2.71,0,0,1,.78-1.95,2.56,2.56,0,0,1,1.92-.81,2.77,2.77,0,0,1,2.76,2.76v37a2.56,2.56,0,0,1-.81,1.92,2.71,2.71,0,0,1-2,.78,2.66,2.66,0,0,1-2.7-2.7v-16h-22.74v16a2.56,2.56,0,0,1-.81,1.92,2.71,2.71,0,0,1-2,.78A2.61,2.61,0,0,1,1325.07,515.71Z"/><path d="M1372.44,515.23a10.14,10.14,0,0,1-3.72-4.26,13.6,13.6,0,0,1-1.29-5.94V488a2.56,2.56,0,0,1,.81-1.92,2.71,2.71,0,0,1,2-.78,2.66,2.66,0,0,1,2.7,2.7v16.44q0,7.32,6.6,7.32a9.55,9.55,0,0,0,5.37-1.56,19.44,19.44,0,0,0,4.47-4.2V488a2.56,2.56,0,0,1,.81-1.92,2.71,2.71,0,0,1,1.95-.78,2.66,2.66,0,0,1,2.7,2.7v25.74a2.71,2.71,0,0,1-.78,1.95,2.56,2.56,0,0,1-1.92.81,2.77,2.77,0,0,1-2.76-2.76v-2.46a19.94,19.94,0,0,1-4.92,4,12.42,12.42,0,0,1-6.24,1.5A10.37,10.37,0,0,1,1372.44,515.23Z"/><path d="M1405.05,515.71a2.61,2.61,0,0,1-.78-1.92V488.05a2.71,2.71,0,0,1,.78-1.95,2.56,2.56,0,0,1,1.92-.81,2.77,2.77,0,0,1,2.76,2.76v2.58q4.2-5.64,9.42-5.64h.3a2.51,2.51,0,0,1,1.89.78,2.66,2.66,0,0,1,.75,1.92,2.42,2.42,0,0,1-.78,1.86,2.81,2.81,0,0,1-2,.72h-.3a10.23,10.23,0,0,0-5.28,1.41,12.16,12.16,0,0,0-4,3.87v18.24a2.56,2.56,0,0,1-.81,1.92,2.71,2.71,0,0,1-2,.78A2.61,2.61,0,0,1,1405.05,515.71Z"/><path d="M1428,515.71a2.61,2.61,0,0,1-.78-1.92V488.05a2.71,2.71,0,0,1,.78-1.95,2.56,2.56,0,0,1,1.92-.81,2.77,2.77,0,0,1,2.76,2.76v2.58q4.2-5.64,9.42-5.64h.3a2.51,2.51,0,0,1,1.89.78,2.66,2.66,0,0,1,.75,1.92,2.42,2.42,0,0,1-.78,1.86,2.81,2.81,0,0,1-2,.72h-.3a10.23,10.23,0,0,0-5.28,1.41,12.16,12.16,0,0,0-4,3.87v18.24a2.56,2.56,0,0,1-.81,1.92,2.71,2.71,0,0,1-2,.78A2.61,2.61,0,0,1,1428,515.71Z"/><path d="M1455.24,529.51a2.59,2.59,0,0,1-.75-1.86,2.72,2.72,0,0,1,.18-1l3.9-10-11.28-27.48a3.07,3.07,0,0,1-.24-1.14,2.71,2.71,0,0,1,.78-1.95,2.56,2.56,0,0,1,1.92-.81,2.62,2.62,0,0,1,1.53.48,2.72,2.72,0,0,1,1,1.2l9.24,22.92,9.42-22.8a2.62,2.62,0,0,1,2.52-1.8,2.56,2.56,0,0,1,1.92.81,2.71,2.71,0,0,1,.78,1.95,2.88,2.88,0,0,1-.18,1l-16.38,39.36a2.7,2.7,0,0,1-2.52,1.86A2.44,2.44,0,0,1,1455.24,529.51Z"/><path d="M1498.83,529.48a2.71,2.71,0,0,1-.78-2V488a2.66,2.66,0,0,1,2.7-2.7,2.71,2.71,0,0,1,2,.78,2.56,2.56,0,0,1,.81,1.92v1.56a13.79,13.79,0,0,1,10.26-4.56,14.07,14.07,0,0,1,7,1.89,14.34,14.34,0,0,1,5.4,5.52,18.45,18.45,0,0,1,0,17,14.34,14.34,0,0,1-5.4,5.52,14.07,14.07,0,0,1-7,1.89,13.79,13.79,0,0,1-10.26-4.56v15.3a2.67,2.67,0,0,1-2.76,2.76A2.56,2.56,0,0,1,1498.83,529.48Zm21.3-20.61q2.7-2.82,2.7-8t-2.7-8a9.43,9.43,0,0,0-7.14-2.82,11.33,11.33,0,0,0-5.19,1.23,14.82,14.82,0,0,0-4.29,3.27v12.6a14.82,14.82,0,0,0,4.29,3.27,11.33,11.33,0,0,0,5.19,1.23A9.43,9.43,0,0,0,1520.13,508.87Z"/><path d="M1536.69,515.71a2.61,2.61,0,0,1-.78-1.92V474.85a2.71,2.71,0,0,1,.78-2,2.56,2.56,0,0,1,1.92-.81,2.67,2.67,0,0,1,2.76,2.76v38.94a2.56,2.56,0,0,1-.81,1.92,2.71,2.71,0,0,1-2,.78A2.61,2.61,0,0,1,1536.69,515.71Z"/><path d="M1553.1,512.62q-4.11-4.17-4.11-11.73a19.56,19.56,0,0,1,1.56-7.86,13.36,13.36,0,0,1,4.8-5.82,13.79,13.79,0,0,1,8-2.22,14,14,0,0,1,7.68,2.07,13.39,13.39,0,0,1,4.92,5.52,17,17,0,0,1,1.68,7.53,2.62,2.62,0,0,1-2.76,2.7h-20.34a9.87,9.87,0,0,0,3.12,6.54q2.64,2.34,7.38,2.34a18,18,0,0,0,4.41-.48,18.32,18.32,0,0,0,3.69-1.38,2.38,2.38,0,0,1,1.08-.24,2.41,2.41,0,0,1,1.68.66,2.18,2.18,0,0,1,.72,1.68,2.59,2.59,0,0,1-1.56,2.22,18.74,18.74,0,0,1-10.5,2.64Q1557.21,516.79,1553.1,512.62Zm19.11-14.25a9.61,9.61,0,0,0-1.53-4.92,8.26,8.26,0,0,0-3.33-2.91,9.15,9.15,0,0,0-8,0,8.06,8.06,0,0,0-3.3,2.91,9.79,9.79,0,0,0-1.5,4.92Z"/><path d="M1587.72,515.71a8.52,8.52,0,0,1-3.57-3.15,8.68,8.68,0,0,1-1.32-4.77,8.41,8.41,0,0,1,3.51-7.08q3.51-2.64,10.29-2.64h7.26v-.48q0-4-2-5.7t-6.09-1.74a20.45,20.45,0,0,0-4,.36,34,34,0,0,0-3.93,1.08,3.37,3.37,0,0,1-.78.12,2.13,2.13,0,0,1-1.56-.66,2.2,2.2,0,0,1-.66-1.62,2.31,2.31,0,0,1,1.56-2.28,26.39,26.39,0,0,1,10.38-2.16,13.55,13.55,0,0,1,7,1.68A10.56,10.56,0,0,1,1608,491a12.65,12.65,0,0,1,1.35,5.79v17a2.56,2.56,0,0,1-.81,1.92,2.71,2.71,0,0,1-2,.78,2.66,2.66,0,0,1-2.7-2.7v-1.56a15.07,15.07,0,0,1-11.28,4.56A11.15,11.15,0,0,1,1587.72,515.71Zm12-5a14.18,14.18,0,0,0,4.14-3.21v-5h-6.54q-9.06,0-9.06,4.74a4.45,4.45,0,0,0,1.47,3.48q1.47,1.32,4.89,1.32A10.85,10.85,0,0,0,1599.75,510.7Z"/><path d="M1617.51,514.09a2.29,2.29,0,0,1-1-2,2.41,2.41,0,0,1,.66-1.68,2.18,2.18,0,0,1,1.68-.72,2.64,2.64,0,0,1,1.08.24,24.25,24.25,0,0,0,3.84,1.32,17.85,17.85,0,0,0,4.32.48q6.66,0,6.66-4.26a2.27,2.27,0,0,0-1.53-2.1,31.33,31.33,0,0,0-5-1.62,45.27,45.27,0,0,1-5.85-1.74,10.29,10.29,0,0,1-4-2.73,6.94,6.94,0,0,1-1.65-4.83,8.65,8.65,0,0,1,3-6.84q3-2.64,8.67-2.64a25,25,0,0,1,8.7,1.5,2.25,2.25,0,0,1,1.29.9,2.41,2.41,0,0,1,.45,1.38,2.35,2.35,0,0,1-.69,1.68,2.27,2.27,0,0,1-1.71.72,3.37,3.37,0,0,1-.78-.12,23,23,0,0,0-6.84-1.08,9.37,9.37,0,0,0-5.07,1.17,3.49,3.49,0,0,0-1.83,3,2.77,2.77,0,0,0,1.68,2.64,24,24,0,0,0,5.22,1.62,50,50,0,0,1,5.76,1.77,9.52,9.52,0,0,1,3.81,2.73,7.41,7.41,0,0,1,1.59,5,7.93,7.93,0,0,1-3,6.36q-3,2.52-8.55,2.52A22.32,22.32,0,0,1,1617.51,514.09Z"/><path d="M1649.58,512.62q-4.11-4.17-4.11-11.73A19.56,19.56,0,0,1,1647,493a13.36,13.36,0,0,1,4.8-5.82,13.79,13.79,0,0,1,8-2.22,14,14,0,0,1,7.68,2.07,13.39,13.39,0,0,1,4.92,5.52,17,17,0,0,1,1.68,7.53,2.62,2.62,0,0,1-2.76,2.7H1651a9.87,9.87,0,0,0,3.12,6.54q2.64,2.34,7.38,2.34a18,18,0,0,0,4.41-.48,18.32,18.32,0,0,0,3.69-1.38,2.38,2.38,0,0,1,1.08-.24,2.41,2.41,0,0,1,1.68.66,2.18,2.18,0,0,1,.72,1.68,2.59,2.59,0,0,1-1.56,2.22,18.74,18.74,0,0,1-10.5,2.64Q1653.69,516.79,1649.58,512.62Zm19.11-14.25a9.61,9.61,0,0,0-1.53-4.92,8.26,8.26,0,0,0-3.33-2.91,9.15,9.15,0,0,0-8,0,8.06,8.06,0,0,0-3.3,2.91,9.79,9.79,0,0,0-1.5,4.92Z"/><path d="M1680.84,524.71a1.78,1.78,0,0,1-.51-1.26,1.67,1.67,0,0,1,.9-1.5,6.85,6.85,0,0,0,2.28-2.1,6.41,6.41,0,0,0,.78-3.48h-.24a3.38,3.38,0,0,1-3.36-3.36v-.36a3.38,3.38,0,0,1,3.36-3.36h.6a3.38,3.38,0,0,1,3.36,3.36v3.54a9.65,9.65,0,0,1-4.92,8.76,1.89,1.89,0,0,1-1,.3A1.63,1.63,0,0,1,1680.84,524.71Z"/><path d="M1325.07,587.71a2.61,2.61,0,0,1-.78-1.92v-37a2.71,2.71,0,0,1,.78-1.95A2.56,2.56,0,0,1,1327,546a2.77,2.77,0,0,1,2.76,2.76v37a2.56,2.56,0,0,1-.81,1.92,2.71,2.71,0,0,1-2,.78A2.61,2.61,0,0,1,1325.07,587.71Z"/><path d="M1362.87,587.77a3.66,3.66,0,0,1-1.32-1.8L1353,561a3.23,3.23,0,0,1-.18-1,2.66,2.66,0,0,1,2.7-2.7,2.74,2.74,0,0,1,1.53.45,2.21,2.21,0,0,1,.93,1.17l7,23.1,7-22.56a3.08,3.08,0,0,1,5.88,0l7,22.56,7-23.1a2.21,2.21,0,0,1,.93-1.17,2.74,2.74,0,0,1,1.53-.45,2.66,2.66,0,0,1,2.7,2.7,3.23,3.23,0,0,1-.18,1l-8.52,25a3.66,3.66,0,0,1-1.32,1.8,3.6,3.6,0,0,1-4.32,0,4,4,0,0,1-1.38-1.86l-6.36-19.86-6.36,19.86a4,4,0,0,1-1.38,1.86,3.6,3.6,0,0,1-4.32,0Z"/><path d="M1406,587.71a8.52,8.52,0,0,1-3.57-3.15,8.68,8.68,0,0,1-1.32-4.77,8.41,8.41,0,0,1,3.51-7.08q3.51-2.64,10.29-2.64h7.26v-.48q0-4-2-5.7t-6.09-1.74a20.45,20.45,0,0,0-4,.36,34,34,0,0,0-3.93,1.08,3.37,3.37,0,0,1-.78.12,2.13,2.13,0,0,1-1.56-.66,2.2,2.2,0,0,1-.66-1.62,2.31,2.31,0,0,1,1.56-2.28,26.39,26.39,0,0,1,10.38-2.16,13.55,13.55,0,0,1,7,1.68,10.56,10.56,0,0,1,4.2,4.35,12.65,12.65,0,0,1,1.35,5.79v17a2.56,2.56,0,0,1-.81,1.92,2.71,2.71,0,0,1-2,.78,2.66,2.66,0,0,1-2.7-2.7v-1.56a15.07,15.07,0,0,1-11.28,4.56A11.15,11.15,0,0,1,1406,587.71Zm12-5a14.18,14.18,0,0,0,4.14-3.21v-5h-6.54q-9.06,0-9.06,4.74a4.45,4.45,0,0,0,1.47,3.48q1.47,1.32,4.89,1.32A10.85,10.85,0,0,0,1418,582.7Z"/><path d="M1437.57,587.71a2.61,2.61,0,0,1-.78-1.92V560.05a2.71,2.71,0,0,1,.78-1.95,2.56,2.56,0,0,1,1.92-.81,2.77,2.77,0,0,1,2.76,2.76v2.46a19.94,19.94,0,0,1,4.92-4,12.42,12.42,0,0,1,6.24-1.5,10.37,10.37,0,0,1,5.73,1.56,10.14,10.14,0,0,1,3.72,4.26,13.6,13.6,0,0,1,1.29,5.94v17a2.56,2.56,0,0,1-.81,1.92,2.71,2.71,0,0,1-1.95.78,2.66,2.66,0,0,1-2.7-2.7V569.35q0-7.32-6.6-7.32a9.55,9.55,0,0,0-5.37,1.56,19.44,19.44,0,0,0-4.47,4.2v18a2.56,2.56,0,0,1-.81,1.92,2.71,2.71,0,0,1-2,.78A2.61,2.61,0,0,1,1437.57,587.71Z"/><path d="M1474.41,580.87v-18.6h-4.26a1.13,1.13,0,0,1-1.14-1.14,1.25,1.25,0,0,1,.54-1l8.16-8a1.51,1.51,0,0,1,1-.54,1.06,1.06,0,0,1,.81.36,1.2,1.2,0,0,1,.33.84v4.8h6.78a2.26,2.26,0,0,1,2.34,2.34,2.3,2.3,0,0,1-.66,1.65,2.22,2.22,0,0,1-1.68.69h-6.78v18.12q0,2.34,1.11,3a5.59,5.59,0,0,0,2.79.63,8.32,8.32,0,0,0,2.4-.36l.51-.12a3.27,3.27,0,0,1,.69-.06,2.11,2.11,0,0,1,1.5.63,2,2,0,0,1,.66,1.53,2.27,2.27,0,0,1-1.38,2.1,11.74,11.74,0,0,1-5,1.08Q1474.41,588.79,1474.41,580.87Z"/><path d="M1512.93,580.87v-18.6h-4.26a1.13,1.13,0,0,1-1.14-1.14,1.25,1.25,0,0,1,.54-1l8.16-8a1.51,1.51,0,0,1,1-.54,1.06,1.06,0,0,1,.81.36,1.2,1.2,0,0,1,.33.84v4.8h6.78a2.26,2.26,0,0,1,2.34,2.34,2.3,2.3,0,0,1-.66,1.65,2.22,2.22,0,0,1-1.68.69h-6.78v18.12q0,2.34,1.11,3a5.59,5.59,0,0,0,2.79.63,8.32,8.32,0,0,0,2.4-.36l.51-.12a3.27,3.27,0,0,1,.69-.06,2.11,2.11,0,0,1,1.5.63,2,2,0,0,1,.66,1.53,2.27,2.27,0,0,1-1.38,2.1,11.74,11.74,0,0,1-5,1.08Q1512.93,588.79,1512.93,580.87Z"/><path d="M1539,586.81a13.46,13.46,0,0,1-5.37-5.61,19.21,19.21,0,0,1,0-16.62A13.46,13.46,0,0,1,1539,559a17.44,17.44,0,0,1,16.14,0,13.65,13.65,0,0,1,5.4,5.61,18.94,18.94,0,0,1,0,16.62,13.65,13.65,0,0,1-5.4,5.61,17.44,17.44,0,0,1-16.14,0Zm12.81-4.14a9.16,9.16,0,0,0,3.72-3.6,12,12,0,0,0,1.47-6.24,11.88,11.88,0,0,0-1.47-6.18,9,9,0,0,0-3.72-3.57,10.52,10.52,0,0,0-4.71-1.11,10.64,10.64,0,0,0-4.77,1.11,8.78,8.78,0,0,0-3.69,3.57,12.08,12.08,0,0,0-1.44,6.18,12.21,12.21,0,0,0,1.44,6.24,9,9,0,0,0,3.69,3.6,10.41,10.41,0,0,0,4.77,1.14A10.29,10.29,0,0,0,1551.84,582.67Z"/><path d="M1586.49,587.71a2.61,2.61,0,0,1-.78-1.92V546.85a2.71,2.71,0,0,1,.78-2,2.56,2.56,0,0,1,1.92-.81,2.67,2.67,0,0,1,2.76,2.76v38.94a2.56,2.56,0,0,1-.81,1.92,2.71,2.71,0,0,1-1.95.78A2.61,2.61,0,0,1,1586.49,587.71Z"/><path d="M1602.9,584.62q-4.11-4.17-4.11-11.73a19.56,19.56,0,0,1,1.56-7.86,13.36,13.36,0,0,1,4.8-5.82,13.79,13.79,0,0,1,8-2.22,14,14,0,0,1,7.68,2.07,13.39,13.39,0,0,1,4.92,5.52,17,17,0,0,1,1.68,7.53,2.62,2.62,0,0,1-2.76,2.7h-20.34a9.87,9.87,0,0,0,3.12,6.54q2.64,2.34,7.38,2.34a18,18,0,0,0,4.41-.48,18.32,18.32,0,0,0,3.69-1.38,2.38,2.38,0,0,1,1.08-.24,2.41,2.41,0,0,1,1.68.66,2.18,2.18,0,0,1,.72,1.68,2.59,2.59,0,0,1-1.56,2.22,18.74,18.74,0,0,1-10.5,2.64Q1607,588.79,1602.9,584.62ZM1622,570.37a9.61,9.61,0,0,0-1.53-4.92,8.26,8.26,0,0,0-3.33-2.91,9.15,9.15,0,0,0-8,0,8.06,8.06,0,0,0-3.3,2.91,9.79,9.79,0,0,0-1.5,4.92Z"/><path d="M1637.52,587.71a8.52,8.52,0,0,1-3.57-3.15,8.68,8.68,0,0,1-1.32-4.77,8.41,8.41,0,0,1,3.51-7.08q3.51-2.64,10.29-2.64h7.26v-.48q0-4-2-5.7t-6.09-1.74a20.45,20.45,0,0,0-4.05.36,34,34,0,0,0-3.93,1.08,3.37,3.37,0,0,1-.78.12,2.13,2.13,0,0,1-1.56-.66,2.2,2.2,0,0,1-.66-1.62,2.31,2.31,0,0,1,1.56-2.28,26.39,26.39,0,0,1,10.38-2.16,13.55,13.55,0,0,1,7,1.68,10.56,10.56,0,0,1,4.2,4.35,12.65,12.65,0,0,1,1.35,5.79v17a2.56,2.56,0,0,1-.81,1.92,2.71,2.71,0,0,1-1.95.78,2.66,2.66,0,0,1-2.7-2.7v-1.56a15.07,15.07,0,0,1-11.28,4.56A11.15,11.15,0,0,1,1637.52,587.71Zm12-5a14.18,14.18,0,0,0,4.14-3.21v-5h-6.54q-9.06,0-9.06,4.74a4.45,4.45,0,0,0,1.47,3.48q1.47,1.32,4.89,1.32A10.85,10.85,0,0,0,1649.55,582.7Z"/><path d="M1676.67,587.86a3.75,3.75,0,0,1-1.32-1.59l-10.44-25a3.36,3.36,0,0,1-.3-1.26,2.71,2.71,0,0,1,.78-1.95,2.56,2.56,0,0,1,1.92-.81,2.81,2.81,0,0,1,2.46,1.56l9.18,23.28,9.18-23.28a2.81,2.81,0,0,1,2.46-1.56,2.56,2.56,0,0,1,1.92.81,2.71,2.71,0,0,1,.78,1.95,3.36,3.36,0,0,1-.3,1.26l-10.44,25a3.75,3.75,0,0,1-1.32,1.59,3.38,3.38,0,0,1-2,.63h-.6A3.38,3.38,0,0,1,1676.67,587.86Z"/><path d="M1701.42,584.62q-4.11-4.17-4.11-11.73a19.56,19.56,0,0,1,1.56-7.86,13.36,13.36,0,0,1,4.8-5.82,13.79,13.79,0,0,1,8-2.22,14,14,0,0,1,7.68,2.07,13.39,13.39,0,0,1,4.92,5.52,17,17,0,0,1,1.68,7.53,2.62,2.62,0,0,1-2.76,2.7h-20.34a9.87,9.87,0,0,0,3.12,6.54q2.64,2.34,7.38,2.34a18,18,0,0,0,4.41-.48,18.32,18.32,0,0,0,3.69-1.38,2.38,2.38,0,0,1,1.08-.24,2.41,2.41,0,0,1,1.68.66,2.18,2.18,0,0,1,.72,1.68,2.59,2.59,0,0,1-1.56,2.22,18.74,18.74,0,0,1-10.5,2.64Q1705.53,588.79,1701.42,584.62Zm19.11-14.25a9.61,9.61,0,0,0-1.53-4.92,8.26,8.26,0,0,0-3.33-2.91,9.15,9.15,0,0,0-8,0,8.06,8.06,0,0,0-3.3,2.91,9.79,9.79,0,0,0-1.5,4.92Z"/><path d="M1747.71,586.09a2.29,2.29,0,0,1-1-2,2.41,2.41,0,0,1,.66-1.68,2.18,2.18,0,0,1,1.68-.72,2.64,2.64,0,0,1,1.08.24,24.25,24.25,0,0,0,3.84,1.32,17.85,17.85,0,0,0,4.32.48q6.66,0,6.66-4.26a2.27,2.27,0,0,0-1.53-2.1,31.33,31.33,0,0,0-5-1.62,45.27,45.27,0,0,1-5.85-1.74,10.29,10.29,0,0,1-4-2.73,6.94,6.94,0,0,1-1.65-4.83,8.65,8.65,0,0,1,3-6.84q3-2.64,8.67-2.64a25,25,0,0,1,8.7,1.5,2.25,2.25,0,0,1,1.29.9,2.41,2.41,0,0,1,.45,1.38,2.35,2.35,0,0,1-.69,1.68,2.27,2.27,0,0,1-1.71.72,3.37,3.37,0,0,1-.78-.12,23,23,0,0,0-6.84-1.08,9.37,9.37,0,0,0-5.07,1.17,3.49,3.49,0,0,0-1.83,3,2.77,2.77,0,0,0,1.68,2.64,24,24,0,0,0,5.22,1.62,50,50,0,0,1,5.76,1.77,9.52,9.52,0,0,1,3.81,2.73,7.41,7.41,0,0,1,1.59,5,7.93,7.93,0,0,1-3,6.36q-3,2.52-8.55,2.52A22.32,22.32,0,0,1,1747.71,586.09Z"/><path d="M1782.93,586.81a13.46,13.46,0,0,1-5.37-5.61,19.21,19.21,0,0,1,0-16.62,13.46,13.46,0,0,1,5.37-5.61,17.44,17.44,0,0,1,16.14,0,13.65,13.65,0,0,1,5.4,5.61,18.94,18.94,0,0,1,0,16.62,13.65,13.65,0,0,1-5.4,5.61,17.44,17.44,0,0,1-16.14,0Zm12.81-4.14a9.16,9.16,0,0,0,3.72-3.6,12,12,0,0,0,1.47-6.24,11.88,11.88,0,0,0-1.47-6.18,9,9,0,0,0-3.72-3.57A10.52,10.52,0,0,0,1791,562a10.64,10.64,0,0,0-4.77,1.11,8.78,8.78,0,0,0-3.69,3.57,12.08,12.08,0,0,0-1.44,6.18,12.21,12.21,0,0,0,1.44,6.24,9,9,0,0,0,3.69,3.6,10.41,10.41,0,0,0,4.77,1.14A10.29,10.29,0,0,0,1795.74,582.67Z"/><path d="M1819.41,586.81a13.46,13.46,0,0,1-5.37-5.61,19.21,19.21,0,0,1,0-16.62,13.46,13.46,0,0,1,5.37-5.61,17.44,17.44,0,0,1,16.14,0,13.65,13.65,0,0,1,5.4,5.61,18.94,18.94,0,0,1,0,16.62,13.65,13.65,0,0,1-5.4,5.61,17.44,17.44,0,0,1-16.14,0Zm12.81-4.14a9.16,9.16,0,0,0,3.72-3.6,12,12,0,0,0,1.47-6.24,11.88,11.88,0,0,0-1.47-6.18,9,9,0,0,0-3.72-3.57,10.52,10.52,0,0,0-4.71-1.11,10.64,10.64,0,0,0-4.77,1.11,8.78,8.78,0,0,0-3.69,3.57,12.08,12.08,0,0,0-1.44,6.18,12.21,12.21,0,0,0,1.44,6.24,9,9,0,0,0,3.69,3.6,10.41,10.41,0,0,0,4.77,1.14A10.29,10.29,0,0,0,1832.22,582.67Z"/><path d="M1851.27,587.71a2.61,2.61,0,0,1-.78-1.92V560.05a2.71,2.71,0,0,1,.78-1.95,2.56,2.56,0,0,1,1.92-.81,2.77,2.77,0,0,1,2.76,2.76v2.46a19.94,19.94,0,0,1,4.92-4,12.42,12.42,0,0,1,6.24-1.5,10.37,10.37,0,0,1,5.73,1.56,10.14,10.14,0,0,1,3.72,4.26,13.6,13.6,0,0,1,1.29,5.94v17a2.56,2.56,0,0,1-.81,1.92,2.71,2.71,0,0,1-2,.78,2.66,2.66,0,0,1-2.7-2.7V569.35q0-7.32-6.6-7.32a9.55,9.55,0,0,0-5.37,1.56,19.44,19.44,0,0,0-4.47,4.2v18a2.56,2.56,0,0,1-.81,1.92,2.71,2.71,0,0,1-2,.78A2.61,2.61,0,0,1,1851.27,587.71Z"/><path d="M1887.42,587.38a3.23,3.23,0,0,1-1-2.37v-.36a3.38,3.38,0,0,1,3.36-3.36h.6a3.38,3.38,0,0,1,3.36,3.36V585a3.38,3.38,0,0,1-3.36,3.36h-.6A3.23,3.23,0,0,1,1887.42,587.38Z"/><path d="M142.91,122.73,128.09,86.79a2.88,2.88,0,0,1-.18-1,2.78,2.78,0,0,1,.72-2,2.62,2.62,0,0,1,2-.75,2.51,2.51,0,0,1,1.53.51,3.22,3.22,0,0,1,1.05,1.35L147.29,120l14.1-35.16a3.22,3.22,0,0,1,1.05-1.35A2.51,2.51,0,0,1,164,83a2.62,2.62,0,0,1,2,.75,2.78,2.78,0,0,1,.72,2,2.88,2.88,0,0,1-.18,1l-14.82,35.94q-1.26,2.76-3.72,2.76h-1.32Q144.17,125.49,142.91,122.73Z"/><path d="M171.8,121.62q-4.11-4.17-4.11-11.73a19.56,19.56,0,0,1,1.56-7.86,13.36,13.36,0,0,1,4.8-5.82A13.79,13.79,0,0,1,182,94a14,14,0,0,1,7.68,2.07,13.39,13.39,0,0,1,4.92,5.52,17,17,0,0,1,1.68,7.53,2.62,2.62,0,0,1-2.76,2.7H173.21a9.87,9.87,0,0,0,3.12,6.54q2.64,2.34,7.38,2.34a18,18,0,0,0,4.41-.48,18.32,18.32,0,0,0,3.69-1.38,2.38,2.38,0,0,1,1.08-.24,2.41,2.41,0,0,1,1.68.66,2.18,2.18,0,0,1,.72,1.68,2.59,2.59,0,0,1-1.56,2.22,18.74,18.74,0,0,1-10.5,2.64Q175.91,125.79,171.8,121.62Zm19.11-14.25a9.61,9.61,0,0,0-1.53-4.92,8.26,8.26,0,0,0-3.33-2.91,9.15,9.15,0,0,0-8,0,8.06,8.06,0,0,0-3.3,2.91,9.79,9.79,0,0,0-1.5,4.92Z"/><path d="M204.29,124.71a2.61,2.61,0,0,1-.78-1.92V97.05a2.71,2.71,0,0,1,.78-2,2.56,2.56,0,0,1,1.92-.81A2.77,2.77,0,0,1,209,97.05v2.58q4.2-5.64,9.42-5.64h.3a2.51,2.51,0,0,1,1.89.78,2.66,2.66,0,0,1,.75,1.92,2.42,2.42,0,0,1-.78,1.86,2.81,2.81,0,0,1-2,.72h-.3a10.23,10.23,0,0,0-5.28,1.41,12.16,12.16,0,0,0-4,3.87v18.24a2.56,2.56,0,0,1-.81,1.92,2.71,2.71,0,0,1-1.95.78A2.61,2.61,0,0,1,204.29,124.71Z"/><path d="M231.5,138.51a2.59,2.59,0,0,1-.75-1.86,2.72,2.72,0,0,1,.18-1l3.9-10L223.55,98.19a3.07,3.07,0,0,1-.24-1.14,2.71,2.71,0,0,1,.78-2,2.56,2.56,0,0,1,1.92-.81,2.62,2.62,0,0,1,1.53.48,2.72,2.72,0,0,1,1,1.2l9.24,22.92,9.42-22.8a2.62,2.62,0,0,1,2.52-1.8,2.56,2.56,0,0,1,1.92.81,2.71,2.71,0,0,1,.78,2,2.88,2.88,0,0,1-.18,1l-16.38,39.36a2.7,2.7,0,0,1-2.52,1.86A2.44,2.44,0,0,1,231.5,138.51Z"/><path d="M281.27,124.77A3.66,3.66,0,0,1,280,123l-8.52-25a3.23,3.23,0,0,1-.18-1,2.66,2.66,0,0,1,2.7-2.7,2.74,2.74,0,0,1,1.53.45,2.21,2.21,0,0,1,.93,1.17l7,23.1,7-22.56a3.08,3.08,0,0,1,5.88,0l7,22.56,7-23.1a2.21,2.21,0,0,1,.93-1.17,2.74,2.74,0,0,1,1.53-.45,2.66,2.66,0,0,1,2.7,2.7,3.23,3.23,0,0,1-.18,1l-8.52,25a3.66,3.66,0,0,1-1.32,1.8,3.6,3.6,0,0,1-4.32,0,4,4,0,0,1-1.38-1.86l-6.36-19.86L287,122.91a4,4,0,0,1-1.38,1.86,3.6,3.6,0,0,1-4.32,0Z"/><path d="M323.66,121.62q-4.11-4.17-4.11-11.73a19.56,19.56,0,0,1,1.56-7.86,13.36,13.36,0,0,1,4.8-5.82,13.79,13.79,0,0,1,8-2.22,14,14,0,0,1,7.68,2.07,13.39,13.39,0,0,1,4.92,5.52,17,17,0,0,1,1.68,7.53,2.62,2.62,0,0,1-2.76,2.7H325.07a9.87,9.87,0,0,0,3.12,6.54q2.64,2.34,7.38,2.34a18,18,0,0,0,4.41-.48,18.32,18.32,0,0,0,3.69-1.38,2.38,2.38,0,0,1,1.08-.24,2.41,2.41,0,0,1,1.68.66,2.18,2.18,0,0,1,.72,1.68,2.59,2.59,0,0,1-1.56,2.22,18.74,18.74,0,0,1-10.5,2.64Q327.77,125.79,323.66,121.62Zm19.11-14.25a9.61,9.61,0,0,0-1.53-4.92,8.26,8.26,0,0,0-3.33-2.91,9.15,9.15,0,0,0-8,0,8.06,8.06,0,0,0-3.3,2.91,9.79,9.79,0,0,0-1.5,4.92Z"/><path d="M356.15,124.71a2.61,2.61,0,0,1-.78-1.92V83.85a2.71,2.71,0,0,1,.78-1.95,2.56,2.56,0,0,1,1.92-.81,2.67,2.67,0,0,1,2.76,2.76v38.94a2.56,2.56,0,0,1-.81,1.92,2.71,2.71,0,0,1-1.95.78A2.61,2.61,0,0,1,356.15,124.71Z"/><path d="M371.09,124.71a2.61,2.61,0,0,1-.78-1.92V83.85a2.71,2.71,0,0,1,.78-1.95,2.56,2.56,0,0,1,1.92-.81,2.67,2.67,0,0,1,2.76,2.76v38.94a2.56,2.56,0,0,1-.81,1.92,2.71,2.71,0,0,1-1.95.78A2.61,2.61,0,0,1,371.09,124.71Z"/><path d="M402.65,117.87V99.27h-4.26a1.13,1.13,0,0,1-1.14-1.14,1.25,1.25,0,0,1,.54-1l8.16-8a1.51,1.51,0,0,1,1-.54,1.06,1.06,0,0,1,.81.36,1.2,1.2,0,0,1,.33.84v4.8h6.78a2.26,2.26,0,0,1,2.34,2.34,2.3,2.3,0,0,1-.66,1.65,2.22,2.22,0,0,1-1.68.69h-6.78v18.12q0,2.34,1.11,3A5.59,5.59,0,0,0,412,121a8.32,8.32,0,0,0,2.4-.36l.51-.12a3.27,3.27,0,0,1,.69-.06,2.11,2.11,0,0,1,1.5.63,2,2,0,0,1,.66,1.53,2.27,2.27,0,0,1-1.38,2.1,11.74,11.74,0,0,1-5,1.08Q402.65,125.79,402.65,117.87Z"/><path d="M424.55,124.71a2.61,2.61,0,0,1-.78-1.92V83.85a2.71,2.71,0,0,1,.78-1.95,2.56,2.56,0,0,1,1.92-.81,2.77,2.77,0,0,1,2.76,2.76V99.51a19.94,19.94,0,0,1,4.92-4,12.42,12.42,0,0,1,6.24-1.5,10.37,10.37,0,0,1,5.73,1.56,10.14,10.14,0,0,1,3.72,4.26,13.6,13.6,0,0,1,1.29,5.94v17a2.56,2.56,0,0,1-.81,1.92,2.71,2.71,0,0,1-1.95.78,2.66,2.66,0,0,1-2.7-2.7V106.35q0-7.32-6.6-7.32a9.55,9.55,0,0,0-5.37,1.56,19.44,19.44,0,0,0-4.47,4.2v18a2.56,2.56,0,0,1-.81,1.92,2.71,2.71,0,0,1-1.95.78A2.61,2.61,0,0,1,424.55,124.71Z"/><path d="M462.56,121.62q-4.11-4.17-4.11-11.73A19.56,19.56,0,0,1,460,102a13.36,13.36,0,0,1,4.8-5.82,13.79,13.79,0,0,1,8-2.22,14,14,0,0,1,7.68,2.07,13.39,13.39,0,0,1,4.92,5.52,17,17,0,0,1,1.68,7.53,2.62,2.62,0,0,1-2.76,2.7H464a9.87,9.87,0,0,0,3.12,6.54q2.64,2.34,7.38,2.34a18,18,0,0,0,4.41-.48,18.32,18.32,0,0,0,3.69-1.38,2.38,2.38,0,0,1,1.08-.24,2.41,2.41,0,0,1,1.68.66,2.18,2.18,0,0,1,.72,1.68,2.59,2.59,0,0,1-1.56,2.22,18.74,18.74,0,0,1-10.5,2.64Q466.67,125.79,462.56,121.62Zm19.11-14.25a9.61,9.61,0,0,0-1.53-4.92,8.26,8.26,0,0,0-3.33-2.91,9.15,9.15,0,0,0-8,0,8.06,8.06,0,0,0-3.3,2.91,9.79,9.79,0,0,0-1.5,4.92Z"/><path d="M495.05,124.71a2.61,2.61,0,0,1-.78-1.92V97.05a2.71,2.71,0,0,1,.78-2,2.56,2.56,0,0,1,1.92-.81,2.77,2.77,0,0,1,2.76,2.76v2.46a19.94,19.94,0,0,1,4.92-4,12.42,12.42,0,0,1,6.24-1.5,10.37,10.37,0,0,1,5.73,1.56,10.14,10.14,0,0,1,3.72,4.26,13.6,13.6,0,0,1,1.29,5.94v17a2.56,2.56,0,0,1-.81,1.92,2.71,2.71,0,0,1-2,.78,2.66,2.66,0,0,1-2.7-2.7V106.35q0-7.32-6.6-7.32a9.55,9.55,0,0,0-5.37,1.56,19.44,19.44,0,0,0-4.47,4.2v18a2.56,2.56,0,0,1-.81,1.92,2.71,2.71,0,0,1-1.95.78A2.61,2.61,0,0,1,495.05,124.71Z"/><path d="M530.36,133.71a1.78,1.78,0,0,1-.51-1.26,1.67,1.67,0,0,1,.9-1.5,6.85,6.85,0,0,0,2.28-2.1,6.41,6.41,0,0,0,.78-3.48h-.24a3.38,3.38,0,0,1-3.36-3.36v-.36a3.38,3.38,0,0,1,3.36-3.36h.6a3.38,3.38,0,0,1,3.36,3.36v3.54a9.65,9.65,0,0,1-4.92,8.76,1.89,1.89,0,0,1-1,.3A1.63,1.63,0,0,1,530.36,133.71Z"/><path d="M569,124.77a3.66,3.66,0,0,1-1.32-1.8l-8.52-25a3.23,3.23,0,0,1-.18-1,2.66,2.66,0,0,1,2.7-2.7,2.74,2.74,0,0,1,1.53.45,2.26,2.26,0,0,1,.93,1.17l7,23.1,7-22.56a3.08,3.08,0,0,1,5.88,0l7,22.56,7-23.1a2.21,2.21,0,0,1,.93-1.17,2.74,2.74,0,0,1,1.53-.45,2.66,2.66,0,0,1,2.7,2.7,3.23,3.23,0,0,1-.18,1l-8.52,25a3.66,3.66,0,0,1-1.32,1.8,3.6,3.6,0,0,1-4.32,0,4,4,0,0,1-1.38-1.86L581,103.05l-6.36,19.86a4,4,0,0,1-1.38,1.86,3.6,3.6,0,0,1-4.32,0Z"/><path d="M611.36,121.62q-4.11-4.17-4.11-11.73a19.56,19.56,0,0,1,1.56-7.86,13.36,13.36,0,0,1,4.8-5.82,13.79,13.79,0,0,1,8-2.22,14,14,0,0,1,7.68,2.07,13.39,13.39,0,0,1,4.92,5.52,17,17,0,0,1,1.68,7.53,2.62,2.62,0,0,1-2.76,2.7H612.77a9.87,9.87,0,0,0,3.12,6.54q2.64,2.34,7.38,2.34a18,18,0,0,0,4.41-.48,18.32,18.32,0,0,0,3.69-1.38,2.38,2.38,0,0,1,1.08-.24,2.41,2.41,0,0,1,1.68.66,2.18,2.18,0,0,1,.72,1.68,2.59,2.59,0,0,1-1.56,2.22,18.74,18.74,0,0,1-10.5,2.64Q615.47,125.79,611.36,121.62Zm19.11-14.25a9.61,9.61,0,0,0-1.53-4.92,8.26,8.26,0,0,0-3.33-2.91,9.15,9.15,0,0,0-8,0,8.06,8.06,0,0,0-3.3,2.91,9.79,9.79,0,0,0-1.5,4.92Z"/><path d="M641.9,96a1.78,1.78,0,0,1-.51-1.26,1.67,1.67,0,0,1,.9-1.5,6.85,6.85,0,0,0,2.28-2.1,6.41,6.41,0,0,0,.78-3.48h-.24a3.38,3.38,0,0,1-3.36-3.36V84a3.38,3.38,0,0,1,3.36-3.36h.6A3.38,3.38,0,0,1,649.07,84v3.54a9.65,9.65,0,0,1-4.92,8.76,1.89,1.89,0,0,1-1,.3A1.63,1.63,0,0,1,641.9,96Z"/><path d="M657.41,124.71a2.61,2.61,0,0,1-.78-1.92V83.85a2.71,2.71,0,0,1,.78-1.95,2.56,2.56,0,0,1,1.92-.81,2.67,2.67,0,0,1,2.76,2.76v38.94a2.56,2.56,0,0,1-.81,1.92,2.71,2.71,0,0,1-1.95.78A2.61,2.61,0,0,1,657.41,124.71Z"/><path d="M672.35,124.71a2.61,2.61,0,0,1-.78-1.92V83.85a2.71,2.71,0,0,1,.78-1.95,2.56,2.56,0,0,1,1.92-.81A2.67,2.67,0,0,1,677,83.85v38.94a2.56,2.56,0,0,1-.81,1.92,2.71,2.71,0,0,1-2,.78A2.61,2.61,0,0,1,672.35,124.71Z"/><path d="M702.88,138.48a2.7,2.7,0,0,1-.77-1.95V97a2.65,2.65,0,0,1,2.69-2.7,2.71,2.71,0,0,1,2,.78,2.56,2.56,0,0,1,.81,1.92v1.56A13.79,13.79,0,0,1,717.82,94a14.13,14.13,0,0,1,7.06,1.89,14.48,14.48,0,0,1,5.4,5.52,18.53,18.53,0,0,1,0,17,14.48,14.48,0,0,1-5.4,5.52,14.13,14.13,0,0,1-7.06,1.89,13.79,13.79,0,0,1-10.26-4.56v15.3a2.65,2.65,0,0,1-2.76,2.76A2.56,2.56,0,0,1,702.88,138.48Zm21.3-20.61q2.7-2.82,2.7-8t-2.7-8A9.43,9.43,0,0,0,717,99.09a11.29,11.29,0,0,0-5.18,1.23,14.73,14.73,0,0,0-4.3,3.27v12.6a14.73,14.73,0,0,0,4.3,3.27,11.29,11.29,0,0,0,5.18,1.23A9.43,9.43,0,0,0,724.18,117.87Z"/><path d="M740.74,124.71a2.61,2.61,0,0,1-.78-1.92V83.85a2.71,2.71,0,0,1,.78-1.95,2.56,2.56,0,0,1,1.92-.81,2.67,2.67,0,0,1,2.76,2.76v38.94a2.59,2.59,0,0,1-.8,1.92,2.75,2.75,0,0,1-2,.78A2.61,2.61,0,0,1,740.74,124.71Z"/><path d="M757.81,124.71a8.52,8.52,0,0,1-3.57-3.15,8.68,8.68,0,0,1-1.32-4.77,8.41,8.41,0,0,1,3.51-7.08q3.51-2.64,10.29-2.64H774v-.48q0-4-2-5.7t-6.09-1.74a20.45,20.45,0,0,0-4.05.36,34,34,0,0,0-3.93,1.08,3.37,3.37,0,0,1-.78.12,2.13,2.13,0,0,1-1.56-.66,2.2,2.2,0,0,1-.66-1.62,2.31,2.31,0,0,1,1.56-2.28A26.39,26.39,0,0,1,766.9,94a13.55,13.55,0,0,1,7,1.68,10.56,10.56,0,0,1,4.2,4.35,12.65,12.65,0,0,1,1.35,5.79v17a2.56,2.56,0,0,1-.81,1.92,2.71,2.71,0,0,1-2,.78,2.66,2.66,0,0,1-2.7-2.7v-1.56a15.07,15.07,0,0,1-11.28,4.56A11.15,11.15,0,0,1,757.81,124.71Zm12-5a14.18,14.18,0,0,0,4.14-3.21v-5h-6.54q-9.06,0-9.06,4.74a4.45,4.45,0,0,0,1.47,3.48q1.47,1.32,4.89,1.32A10.85,10.85,0,0,0,769.84,119.7Z"/><path d="M793.09,138.51a2.59,2.59,0,0,1-.75-1.86,2.53,2.53,0,0,1,.19-1l3.89-10L785.14,98.19a3.07,3.07,0,0,1-.24-1.14,2.71,2.71,0,0,1,.78-2,2.56,2.56,0,0,1,1.92-.81,2.62,2.62,0,0,1,1.53.48,2.72,2.72,0,0,1,1,1.2l9.25,22.92,9.42-22.8a2.6,2.6,0,0,1,2.51-1.8,2.55,2.55,0,0,1,1.92.81,2.71,2.71,0,0,1,.78,2,2.67,2.67,0,0,1-.18,1l-16.37,39.36a2.72,2.72,0,0,1-2.53,1.86A2.46,2.46,0,0,1,793.09,138.51Z"/><path d="M840.91,138.51a2.59,2.59,0,0,1-.75-1.86,2.72,2.72,0,0,1,.18-1l3.9-10L833,98.19a3.07,3.07,0,0,1-.24-1.14,2.71,2.71,0,0,1,.78-2,2.56,2.56,0,0,1,1.92-.81,2.62,2.62,0,0,1,1.53.48,2.72,2.72,0,0,1,1,1.2l9.24,22.92,9.42-22.8a2.62,2.62,0,0,1,2.52-1.8,2.56,2.56,0,0,1,1.92.81,2.71,2.71,0,0,1,.78,2,2.88,2.88,0,0,1-.18,1l-16.38,39.36a2.7,2.7,0,0,1-2.52,1.86A2.44,2.44,0,0,1,840.91,138.51Z"/><path d="M873.1,123.81a13.46,13.46,0,0,1-5.37-5.61,19.21,19.21,0,0,1,0-16.62A13.46,13.46,0,0,1,873.1,96a17.44,17.44,0,0,1,16.14,0,13.65,13.65,0,0,1,5.4,5.61,18.94,18.94,0,0,1,0,16.62,13.65,13.65,0,0,1-5.4,5.61,17.44,17.44,0,0,1-16.14,0Zm12.81-4.14a9.16,9.16,0,0,0,3.72-3.6,12,12,0,0,0,1.47-6.24,11.88,11.88,0,0,0-1.47-6.18,9,9,0,0,0-3.72-3.57A10.52,10.52,0,0,0,881.2,99a10.64,10.64,0,0,0-4.77,1.11,8.78,8.78,0,0,0-3.69,3.57,12.08,12.08,0,0,0-1.44,6.18,12.21,12.21,0,0,0,1.44,6.24,9,9,0,0,0,3.69,3.6,10.41,10.41,0,0,0,4.77,1.14A10.29,10.29,0,0,0,885.91,119.67Z"/><path d="M908.89,124.23a10.14,10.14,0,0,1-3.72-4.26,13.6,13.6,0,0,1-1.29-5.94V97a2.56,2.56,0,0,1,.81-1.92,2.71,2.71,0,0,1,1.95-.78,2.66,2.66,0,0,1,2.7,2.7v16.44q0,7.32,6.6,7.32a9.55,9.55,0,0,0,5.37-1.56,19.44,19.44,0,0,0,4.47-4.2V97a2.56,2.56,0,0,1,.81-1.92,2.71,2.71,0,0,1,1.95-.78,2.66,2.66,0,0,1,2.7,2.7v25.74a2.71,2.71,0,0,1-.78,2,2.56,2.56,0,0,1-1.92.81,2.77,2.77,0,0,1-2.76-2.76v-2.46a19.94,19.94,0,0,1-4.92,4,12.42,12.42,0,0,1-6.24,1.5A10.37,10.37,0,0,1,908.89,124.23Z"/><path d="M961.72,123.81a13.46,13.46,0,0,1-5.37-5.61,19.21,19.21,0,0,1,0-16.62A13.46,13.46,0,0,1,961.72,96a17.44,17.44,0,0,1,16.14,0,13.65,13.65,0,0,1,5.4,5.61,18.94,18.94,0,0,1,0,16.62,13.65,13.65,0,0,1-5.4,5.61,17.44,17.44,0,0,1-16.14,0Zm12.81-4.14a9.16,9.16,0,0,0,3.72-3.6,12,12,0,0,0,1.47-6.24,11.88,11.88,0,0,0-1.47-6.18,9,9,0,0,0-3.72-3.57A10.52,10.52,0,0,0,969.82,99a10.64,10.64,0,0,0-4.77,1.11,8.78,8.78,0,0,0-3.69,3.57,12.08,12.08,0,0,0-1.44,6.18,12.21,12.21,0,0,0,1.44,6.24,9,9,0,0,0,3.69,3.6,10.41,10.41,0,0,0,4.77,1.14A10.29,10.29,0,0,0,974.53,119.67Z"/><path d="M997.51,124.23a10.14,10.14,0,0,1-3.72-4.26A13.6,13.6,0,0,1,992.5,114V97a2.56,2.56,0,0,1,.81-1.92,2.71,2.71,0,0,1,2-.78A2.66,2.66,0,0,1,998,97v16.44q0,7.32,6.6,7.32a9.55,9.55,0,0,0,5.37-1.56,19.44,19.44,0,0,0,4.47-4.2V97a2.56,2.56,0,0,1,.81-1.92,2.71,2.71,0,0,1,1.95-.78,2.66,2.66,0,0,1,2.7,2.7v25.74a2.71,2.71,0,0,1-.78,2,2.56,2.56,0,0,1-1.92.81,2.77,2.77,0,0,1-2.76-2.76v-2.46a19.94,19.94,0,0,1-4.92,4,12.42,12.42,0,0,1-6.24,1.5A10.37,10.37,0,0,1,997.51,124.23Z"/><path d="M1030.12,124.71a2.61,2.61,0,0,1-.78-1.92V97.05a2.71,2.71,0,0,1,.78-2,2.56,2.56,0,0,1,1.92-.81,2.77,2.77,0,0,1,2.76,2.76v2.58Q1039,94,1044.22,94h.3a2.51,2.51,0,0,1,1.89.78,2.66,2.66,0,0,1,.75,1.92,2.42,2.42,0,0,1-.78,1.86,2.81,2.81,0,0,1-2,.72h-.3a10.23,10.23,0,0,0-5.28,1.41,12.16,12.16,0,0,0-4,3.87v18.24a2.56,2.56,0,0,1-.81,1.92,2.71,2.71,0,0,1-2,.78A2.61,2.61,0,0,1,1030.12,124.71Z"/><path d="M1069.72,117.87V99.27h-4.26a1.13,1.13,0,0,1-1.14-1.14,1.25,1.25,0,0,1,.54-1l8.16-8a1.51,1.51,0,0,1,1-.54,1.06,1.06,0,0,1,.81.36,1.2,1.2,0,0,1,.33.84v4.8H1082a2.26,2.26,0,0,1,2.34,2.34,2.3,2.3,0,0,1-.66,1.65,2.22,2.22,0,0,1-1.68.69h-6.78v18.12q0,2.34,1.11,3a5.59,5.59,0,0,0,2.79.63,8.32,8.32,0,0,0,2.4-.36l.51-.12a3.27,3.27,0,0,1,.69-.06,2.11,2.11,0,0,1,1.5.63,2,2,0,0,1,.66,1.53,2.27,2.27,0,0,1-1.38,2.1,11.74,11.74,0,0,1-5,1.08Q1069.72,125.79,1069.72,117.87Z"/><path d="M1095.55,124.23a10.14,10.14,0,0,1-3.72-4.26,13.6,13.6,0,0,1-1.29-5.94V97a2.56,2.56,0,0,1,.81-1.92,2.71,2.71,0,0,1,2-.78A2.66,2.66,0,0,1,1096,97v16.44q0,7.32,6.6,7.32a9.55,9.55,0,0,0,5.37-1.56,19.44,19.44,0,0,0,4.47-4.2V97a2.56,2.56,0,0,1,.81-1.92,2.71,2.71,0,0,1,2-.78,2.66,2.66,0,0,1,2.7,2.7v25.74a2.71,2.71,0,0,1-.78,2,2.56,2.56,0,0,1-1.92.81,2.77,2.77,0,0,1-2.76-2.76v-2.46a19.94,19.94,0,0,1-4.92,4,12.42,12.42,0,0,1-6.24,1.5A10.37,10.37,0,0,1,1095.55,124.23Z"/><path d="M1128.16,124.71a2.61,2.61,0,0,1-.78-1.92V97.05a2.71,2.71,0,0,1,.78-2,2.56,2.56,0,0,1,1.92-.81,2.77,2.77,0,0,1,2.76,2.76v2.46a19.94,19.94,0,0,1,4.92-4A12.42,12.42,0,0,1,1144,94a10.37,10.37,0,0,1,5.73,1.56,10.14,10.14,0,0,1,3.72,4.26,13.6,13.6,0,0,1,1.29,5.94v17a2.56,2.56,0,0,1-.81,1.92,2.71,2.71,0,0,1-2,.78,2.66,2.66,0,0,1-2.7-2.7V106.35q0-7.32-6.6-7.32a9.55,9.55,0,0,0-5.37,1.56,19.44,19.44,0,0,0-4.47,4.2v18a2.56,2.56,0,0,1-.81,1.92,2.71,2.71,0,0,1-2,.78A2.61,2.61,0,0,1,1128.16,124.71Z"/><path d="M1166.17,121.62q-4.11-4.17-4.11-11.73a19.56,19.56,0,0,1,1.56-7.86,13.36,13.36,0,0,1,4.8-5.82,13.79,13.79,0,0,1,8-2.22,14,14,0,0,1,7.68,2.07,13.39,13.39,0,0,1,4.92,5.52,17,17,0,0,1,1.68,7.53,2.62,2.62,0,0,1-2.76,2.7h-20.34a9.87,9.87,0,0,0,3.12,6.54q2.64,2.34,7.38,2.34a18,18,0,0,0,4.41-.48,18.32,18.32,0,0,0,3.69-1.38,2.38,2.38,0,0,1,1.08-.24,2.41,2.41,0,0,1,1.68.66,2.18,2.18,0,0,1,.72,1.68,2.59,2.59,0,0,1-1.56,2.22,18.74,18.74,0,0,1-10.5,2.64Q1170.28,125.79,1166.17,121.62Zm19.11-14.25a9.61,9.61,0,0,0-1.53-4.92,8.26,8.26,0,0,0-3.33-2.91,9.15,9.15,0,0,0-8,0,8.06,8.06,0,0,0-3.3,2.91,9.79,9.79,0,0,0-1.5,4.92Z"/><path d="M1198.27,124.38a3.23,3.23,0,0,1-1-2.37v-.36a3.38,3.38,0,0,1,3.36-3.36h.6a3.38,3.38,0,0,1,3.36,3.36V122a3.38,3.38,0,0,1-3.36,3.36h-.6A3.23,3.23,0,0,1,1198.27,124.38Z"/><path class="cls-3" d="M1442.39,912.8l7.86,42.37c1.3,7,2.76,14.06,3.36,21.19a70.43,70.43,0,0,1-1.2,20.28,86.74,86.74,0,0,1-3,10.63c-.61,1.74-1.26,3.46-2,5.16a15.61,15.61,0,0,1-1.06,2.36,4.2,4.2,0,0,1-.65.81,1.76,1.76,0,0,1-.49.37c-.25.06-.26.09,0,.07-1.44-1.27-3.58.85-2.12,2.12,2.56,2.23,5.3-.49,6.36-2.88a91.24,91.24,0,0,0,3.83-10.28,76.73,76.73,0,0,0,3.53-21.15c.15-7.63-1.1-15.2-2.47-22.68-1.43-7.79-2.89-15.57-4.33-23.35L1445.28,912c-.35-1.89-3.24-1.09-2.89.8Z"/><path class="cls-3" d="M1461.87,920.39c6,1.9,12.46,3.89,17.29,8.16,5.12,4.53,7.08,11.11,8.31,17.61a112,112,0,0,1-1.12,45.58c-1.92,8.43-4.27,17-3.42,25.68.19,1.91,3.19,1.93,3,0-.79-8.06,1.24-15.92,3-23.72a122.47,122.47,0,0,0,3.27-23.5,113.33,113.33,0,0,0-1.72-23.9c-1.21-6.78-3.15-13.76-8.12-18.81-5.29-5.37-12.73-7.79-19.74-10-1.85-.58-2.64,2.31-.8,2.89Z"/><path class="cls-3" d="M1506.21,1010.11c-9.28,6-19,12.35-24.29,22.42a30.4,30.4,0,0,0-2.73,7.29,32.33,32.33,0,0,0-.59,7.6,2.38,2.38,0,0,1-1.55,2.67,19.55,19.55,0,0,0-3.18,2,17.85,17.85,0,0,0-4.63,5.38c-1.13,2-2.31,4.78-1.77,7.16.49,2.2,2.49,3.39,4.59,3.74,2.59.42,5.32.06,7.93,0l9.68-.42q9.54-.43,19.1-.93c2.47-.13,5.83.25,7.8-1.56s2.36-5,3-7.33a130.16,130.16,0,0,0,4.92-40.7c-.08-1.92-3.08-1.93-3,0a127.79,127.79,0,0,1-3.2,33.71c-.63,2.69-1.35,5.37-2.15,8a17.4,17.4,0,0,1-1.21,3.54c-.59,1-1.65,1.08-2.72,1.14-5.87.35-11.74.61-17.61.89s-11.75.53-17.62.78c-1.72.07-4.6.59-6.08-.63s.15-4.49.9-5.84a14.6,14.6,0,0,1,4.32-4.86c1.7-1.2,4-1.74,5-3.78s.32-4.64.52-6.85a24.44,24.44,0,0,1,1.81-7.13c4.47-10.87,14.8-17.53,24.28-23.62,1.62-1,.12-3.64-1.51-2.59Z"/><path class="cls-3" d="M1446.18,1020a26.87,26.87,0,0,0,13.69,17.76c2.69,1.39,5.68,2.06,8.37,3.45,1.71.89,3.23-1.7,1.51-2.59-2.5-1.3-5.27-2-7.81-3.17a23.66,23.66,0,0,1-5.87-4,24,24,0,0,1-7-12.21c-.43-1.89-3.32-1.09-2.89.79Z"/><path class="cls-3" d="M1446.44,1002.08l-13.67,9.49c-3.93,2.73-8.4,5.34-10.89,9.58-2.26,3.85-2.63,8.47-2.24,12.83a68.38,68.38,0,0,0,2.43,12.74c1.26,4.36,3.33,8.65,7.38,11l-.69-1.7c-.09.33-.87.41-1.15.49a10,10,0,0,0-2.13.7,3.39,3.39,0,0,0-1.75,4c.59,2,2.49,2.89,4.39,3.16a47,47,0,0,0,7,.34,75.56,75.56,0,0,0,27.7-5.38c1.77-.71,1-3.61-.8-2.89a73.25,73.25,0,0,1-24.13,5.21q-3.12.13-6.24,0c-1.06,0-4.69.22-5.05-1.24-.22-.91,1.7-1,2.3-1.2a3.61,3.61,0,0,0,2.73-2.44,1.52,1.52,0,0,0-.69-1.69c-3.19-1.89-4.8-5.31-5.85-8.74a65.88,65.88,0,0,1-2.37-11.46c-.45-3.94-.46-8.21,1.45-11.81,2.08-3.93,6.16-6.27,9.7-8.73l14.07-9.77c1.57-1.09.08-3.69-1.52-2.59Z"/><path class="cls-3" d="M1522.69,998.27a118.76,118.76,0,0,0-3.34-22.73c-.46-1.87-3.35-1.08-2.89.8a115.16,115.16,0,0,1,3.23,21.93c.09,1.92,3.09,1.94,3,0Z"/><path class="cls-3" d="M1438.14,913.9a160.66,160.66,0,0,0-10.93,28.18c-1.44,4.87-2.74,9.78-4,14.69s-3,10-3.08,15.13c-.06,4.6,1.82,9.58,6.17,11.7a1.54,1.54,0,0,0,2-.54,52.66,52.66,0,0,1,21-18c1.75-.83.22-3.42-1.51-2.59a55.6,55.6,0,0,0-22.09,19l2-.54c-3.68-1.8-4.85-6-4.66-9.82.25-4.74,1.9-9.49,3.07-14.06a276.78,276.78,0,0,1,8-26.93,132.9,132.9,0,0,1,6.46-14.79c.89-1.71-1.7-3.23-2.59-1.51Z"/><path class="cls-3" d="M1504.83,916.76c15.84,5.88,25.12,21.9,27.13,38.06a72.92,72.92,0,0,1,.16,15.56l2.79-.76c-3-6.8-6-13.77-11.24-19.19s-12.65-8.49-17.63-14.3c-2.63-3.08-4.4-6.89-3.92-11,.22-1.91-2.78-1.9-3,0-.9,7.69,4.78,14,10.49,18.25,3.22,2.41,6.7,4.49,9.75,7.12a35.43,35.43,0,0,1,7.28,8.93,103.73,103.73,0,0,1,5.68,11.72c.66,1.51,2.68.54,2.8-.76,1.65-18-3-37.52-17.47-49.52a41,41,0,0,0-12-7c-1.81-.67-2.59,2.22-.79,2.89Z"/><path class="cls-3" d="M1503.31,900.15A153,153,0,0,0,1521.94,861c.5-1.6-2-2.69-2.74-1.15-1.64,3.25-4.86,5-8.2,6.14a74.55,74.55,0,0,1-12.37,2.61c-2,.31-4.46.94-6.38.15-1.73-.7-2.3-2.67-2.41-4.37-.31-4.8,1.86-9.36,3.85-13.59a1.51,1.51,0,0,0-2.36-1.82c-3.86,3-7.71,6-11.64,9-3.53,2.61-7.17,4.93-11.56,5.69a56.77,56.77,0,0,1-6.89.54,26.55,26.55,0,0,1-7.18-.4c-4.42-1-8.49-3.82-12.45-5.94l-14.85-8a1.52,1.52,0,0,0-2.06,2c2.29,4.22,4,8.69,6,13.09a88.19,88.19,0,0,0,6,11.45,83.42,83.42,0,0,0,16.65,19.24c1.46,1.25,3.59-.86,2.12-2.12a80.48,80.48,0,0,1-16.4-19c-4.75-7.67-7.41-16.29-11.69-24.18l-2.06,2.05,14,7.51c4.24,2.27,8.53,5.12,13.16,6.49s9.89.89,14.58.35a27.07,27.07,0,0,0,12.82-5.23c4.68-3.32,9.16-6.92,13.67-10.44l-2.35-1.82c-1.84,3.89-3.66,7.85-4.16,12.17-.41,3.44.07,7.84,3.44,9.72a9.31,9.31,0,0,0,5.48.83c2.17-.22,4.33-.61,6.48-1a54.53,54.53,0,0,0,11-2.69c3.49-1.4,6.74-3.52,8.47-7l-2.74-1.16a149.92,149.92,0,0,1-18.33,38.41c-1.07,1.61,1.53,3.12,2.59,1.51Z"/><path class="cls-3" d="M1433.05,859.67a1.45,1.45,0,0,0,.6.25,2.15,2.15,0,0,0,1,0,2.27,2.27,0,0,0,.88-.5,1.59,1.59,0,0,0,.2-.24,1.67,1.67,0,0,0,.25-.43,1.57,1.57,0,0,0,.09-.23,2.32,2.32,0,0,0,.06-.45.14.14,0,0,0,0-.09,2.12,2.12,0,0,0-.06-.44.24.24,0,0,0,0-.09,3.7,3.7,0,0,0-.17-.4,1.87,1.87,0,0,0-.32-.42,2,2,0,0,0-.89-.55,2,2,0,0,0-1.08,0,1.39,1.39,0,0,0-.66.39,1.49,1.49,0,0,0-.39.66c0,.14-.06.29-.08.43a4.36,4.36,0,0,0-.08.81,2.87,2.87,0,0,0,.07.58,1.55,1.55,0,0,0,0,.21,3.16,3.16,0,0,0,.22.5,2.29,2.29,0,0,0,.31.42,2.17,2.17,0,0,0,.52.44l.14.08a4,4,0,0,0,.48.2,2,2,0,0,0,.69.08,2.24,2.24,0,0,0,1-.3,1.59,1.59,0,0,0,.69-.9,1.53,1.53,0,0,0-.15-1.15,5.88,5.88,0,0,0-1.7-1.74,1.82,1.82,0,0,0-1.16-.15,1.26,1.26,0,0,0-.51.27,1.18,1.18,0,0,0-.38.42,1.47,1.47,0,0,0-.15,1.16l.15.36a1.45,1.45,0,0,0,.54.53l.14.11-.3-.23a4.89,4.89,0,0,1,.82.82l-.24-.31.2.27.53-2-.09,0,.35-.15-.14,0,.4,0h-.18l.4,0-.21-.06.35.15a1.06,1.06,0,0,1-.2-.12l.31.24a.77.77,0,0,1-.18-.18l.23.3a1,1,0,0,1-.1-.17l.15.36a2,2,0,0,1-.09-.33l.06.4a2.35,2.35,0,0,1,0-.53l0,.4c0-.15,0-.31.08-.46l-1,1h0l-.39.05h.11l-.39-.05.13,0-.36-.15.13.07-.31-.23a.43.43,0,0,1,.12.11l-.23-.3.07.12-.16-.36a.56.56,0,0,1,0,.12l-.06-.4a.21.21,0,0,1,0,.11l.06-.4,0,.11.15-.36a.27.27,0,0,1-.06.1l.24-.3-.1.09.3-.23-.12.07.36-.15-.18,0,.4-.06h-.14l.4.06-.14,0,.36.15-.1-.06a1.16,1.16,0,0,0-.56-.18,1.22,1.22,0,0,0-.6,0,1,1,0,0,0-.51.27,1.13,1.13,0,0,0-.39.42,1.54,1.54,0,0,0-.15,1.15l.15.36a1.55,1.55,0,0,0,.54.54Z"/><path class="cls-3" d="M1493.93,879.09a2.75,2.75,0,0,0,.44-.59,2.78,2.78,0,0,0,.28-.69,3.26,3.26,0,0,0,0-1.49,3.7,3.7,0,0,0-.26-.7,1.74,1.74,0,0,0-.18-.33,3.65,3.65,0,0,0-.47-.57,3.31,3.31,0,0,0-.6-.44,2.91,2.91,0,0,0-.69-.27,2.38,2.38,0,0,0-.84-.08,3,3,0,0,0-.6.09,2.11,2.11,0,0,0-.55.25,1.89,1.89,0,0,0-.44.35,1.91,1.91,0,0,0-.37.51,3.29,3.29,0,0,0-.21.55,3.21,3.21,0,0,0-.1.62,3.48,3.48,0,0,0,.06.85,2.8,2.8,0,0,0,.3.79,2.37,2.37,0,0,0,.22.33,2.21,2.21,0,0,0,.29.32,2.64,2.64,0,0,0,1,.59,1.87,1.87,0,0,0,.4.07,2.15,2.15,0,0,0,.43,0,2.9,2.9,0,0,0,1.16-.31,3,3,0,0,0,.46-.34,2.39,2.39,0,0,0,.38-.46,1.12,1.12,0,0,0,.18-.56,1.22,1.22,0,0,0,0-.6,1.49,1.49,0,0,0-.69-.89,1.46,1.46,0,0,0-1.15-.15l-.36.15a1.4,1.4,0,0,0-.54.54l0,0,.24-.3a.75.75,0,0,1-.16.15l.3-.23-.18.11.35-.16a1.38,1.38,0,0,1-.27.08l.4-.06h-.3l.4.06a1.58,1.58,0,0,1-.31-.09l.36.15a1,1,0,0,1-.23-.13l.31.24a2.08,2.08,0,0,1-.21-.21l.24.3a1.69,1.69,0,0,1-.17-.29l.15.36a2.37,2.37,0,0,1-.09-.36l0,.4a1.7,1.7,0,0,1,0-.45l-.06.4a1.64,1.64,0,0,1,.1-.38l-.15.36a1.74,1.74,0,0,1,.11-.18l-.24.31.11-.11-.31.24a.72.72,0,0,1,.19-.11l-.36.15a1,1,0,0,1,.25-.06l-.4,0h.34l-.4,0a.9.9,0,0,1,.33.09l-.36-.16a1.77,1.77,0,0,1,.33.19l-.3-.23a1.28,1.28,0,0,1,.28.29l-.23-.31a2.08,2.08,0,0,1,.22.38l-.15-.36a2.14,2.14,0,0,1,.13.48l0-.4a3.08,3.08,0,0,1,0,.43l0-.4a1.36,1.36,0,0,1-.1.36l.15-.36a1.12,1.12,0,0,1-.16.28l.24-.31-.1.12a1.54,1.54,0,0,0-.44,1.06,1.58,1.58,0,0,0,.44,1.06,1.56,1.56,0,0,0,1.06.44,1.54,1.54,0,0,0,1.06-.44Z"/><path class="cls-3" d="M1474.06,873.53a4,4,0,0,0,2.33-1.61,2.54,2.54,0,0,0,.27-.69,2.74,2.74,0,0,0,0-1.14,2.16,2.16,0,0,0-1.07-1.43,2.48,2.48,0,0,0-1.83-.19,2.12,2.12,0,0,0-.67.3,2.74,2.74,0,0,0-.8.79,3,3,0,0,0-.49,1.54,3.68,3.68,0,0,0,.09,1.28,2.57,2.57,0,0,0,.56,1,2.16,2.16,0,0,0,1,.59,2.1,2.1,0,0,0,1.14,0,1.55,1.55,0,0,0,.51-.22,1.93,1.93,0,0,0,.64-.63,1.16,1.16,0,0,0,.18-.56,1.22,1.22,0,0,0,0-.6,1.49,1.49,0,0,0-.69-.9A1.54,1.54,0,0,0,1474,871l-.36.15a1.55,1.55,0,0,0-.54.54l0,0,.24-.3-.06.06.3-.23-.09,0,.36-.15-.14,0,.4,0h-.18l.4,0-.17,0,.36.15-.13-.07.3.23a.43.43,0,0,1-.11-.12l.23.31a1.13,1.13,0,0,1-.12-.21l.15.36a1.5,1.5,0,0,1-.09-.35l0,.4a3,3,0,0,1,0-.73l0,.39a1.83,1.83,0,0,1,.12-.46l-.15.36a1.65,1.65,0,0,1,.18-.32l-.23.3a1,1,0,0,1,.18-.18l-.3.23a2,2,0,0,1,.25-.14l-.36.15a1.28,1.28,0,0,1,.28-.07l-.4,0h.25l-.4,0a.8.8,0,0,1,.21,0l-.36-.15a.51.51,0,0,1,.16.09l-.31-.24a.86.86,0,0,1,.14.13l-.24-.3a.86.86,0,0,1,.1.16l-.16-.36a.76.76,0,0,1,.06.2l0-.4a2,2,0,0,1,0,.25l.06-.4a1.58,1.58,0,0,1-.09.31l.15-.36a1.48,1.48,0,0,1-.14.25l.23-.3a2,2,0,0,1-.26.25l.3-.23a2.62,2.62,0,0,1-.59.33l.35-.15-.47.18a1.57,1.57,0,0,0-.89.69,1.5,1.5,0,0,0,1.69,2.2Z"/><path class="cls-3" d="M1444.52,877.9c2.14-1,4.85.89,6.48,2.11a19.41,19.41,0,0,1,4.94,5.51,1.5,1.5,0,0,0,2.59-1.51,22.89,22.89,0,0,0-6.37-6.85c-2.65-1.89-6-3.32-9.15-1.85a1.51,1.51,0,0,0-.54,2.05,1.53,1.53,0,0,0,2,.54Z"/><path class="cls-3" d="M1483.21,865.69a4,4,0,0,0-.07-3.86,8,8,0,0,0-2.67-2.59,28.7,28.7,0,0,0-6.4-3.23,1.5,1.5,0,0,0-1.84,1,1.53,1.53,0,0,0,1,1.84l.71.27.34.13.13.06c.46.19.91.4,1.36.63a27.36,27.36,0,0,1,2.53,1.43q.59.38,1.14.78c.36.26-.1-.1.09.07l.26.22c.17.16.33.32.49.49s0-.06.06.08l.17.28c.07.12.07.14,0,0,0,.12.08.25.11.37s0,.13,0,0c0,.1,0,.22,0,.32s0-.25,0,0l0,.12c.08-.16.07-.16,0,0a1.5,1.5,0,0,0,2.59,1.52Z"/><path class="cls-3" d="M1505.1,874.51a22,22,0,0,0-12.59-8.16,1.52,1.52,0,0,0-1.84,1,1.51,1.51,0,0,0,1,1.84,18.9,18.9,0,0,1,10.79,6.79,1.54,1.54,0,0,0,2,.53,1.5,1.5,0,0,0,.54-2Z"/><path class="cls-3" d="M1449,880.23a3.36,3.36,0,0,0-2.43,3,3.77,3.77,0,0,0,1.8,3.42,5.91,5.91,0,0,0,4,.82,16.62,16.62,0,0,0,2.32-.43,2.17,2.17,0,0,0,1.8-1.91c0-1.06-.76-1.59-1.48-2.18l-1.91-1.56a1.54,1.54,0,0,0-2.12,0,3.28,3.28,0,0,0-1.11,3.16,2.43,2.43,0,0,0,3,1.69,1.58,1.58,0,0,0,1.1-1.45c.22-3-3.22-5.37-6-4.41a1.52,1.52,0,0,0-1.1,1.44,3.93,3.93,0,0,0,1.18,2.64,1.56,1.56,0,0,0,1.82.23,4.45,4.45,0,0,0,2.48-2.52,2.82,2.82,0,0,0-1.25-3.29,1.51,1.51,0,0,0-2.2.89,3,3,0,0,0,.26,2.31,2.18,2.18,0,0,0,2.39.9,1.83,1.83,0,0,0,1.21-2.3,1.81,1.81,0,0,0-2.23-1.25,1.5,1.5,0,1,0,.8,2.89,1.16,1.16,0,0,1-1.44-1.39c.19-.72,1.16-1.18,1.69-.61a.8.8,0,0,1,.19.35c0-.17,0-.14,0,.07a1.77,1.77,0,0,1,0-.23q0,.32,0,.06l-2.2.9s.27.16,0,0-.12-.09,0,0l-.14-.18s.16.3,0,0,0,.06,0,.06,0-.37,0-.15c0,0,0,.31,0,0s0,0,0,.05c0,.24.13-.23,0-.09s-.13.19-.12.21.2-.22,0-.06l-.18.18c-.18.16,0,.1,0,0,0,.1-.35.23-.45.28l-.46.25,1.81.24-.15-.15,0,0a1,1,0,0,1-.16-.27c.07.18.09.22.05.12a.88.88,0,0,1-.05-.15,1.94,1.94,0,0,1,0-.2c0,.22,0,.25,0,.08l-1.11,1.45.34-.1c.16,0,.12,0-.14,0h.18c.11,0,.23,0,.34,0,.3,0-.33-.07,0,0l.34.08.16.06-.11-.05c.06.07.22.11.31.16l.26.17c.09.06,0,0-.13-.11l.13.12a2.83,2.83,0,0,1,.25.24l.11.13c-.15-.19-.17-.22-.08-.09a2.07,2.07,0,0,1,.15.25.6.6,0,0,1,.06.11c.07.14.05.1,0-.13a3,3,0,0,0,.1.32c.1.4,0-.24,0,0s0,.23,0,.34l1.1-1.44c-.15,0-.11,0,.15,0l.22,0c-.28-.07.28.15,0,0,.18.14.21.16.1.05l.13.15c-.08-.14-.06-.11,0,.11s0,.29,0,.17,0,.34,0,0c0-.11,0-.07,0,.11a1,1,0,0,0,.08-.14l.09-.14q-.16.22-.06.09l.26-.28h-2.12l1.65,1.35.82.67a3.11,3.11,0,0,0,.28.23c.25.26.17,0-.24-.7a1.09,1.09,0,0,1,.51-1l-.15.08q.35-.13.12-.06c-.15,0-.31.08-.46.11-.34.08-.68.15-1,.21-.12,0-.38.08-.11,0a3.12,3.12,0,0,1-.52,0h-.52l-.26,0h.07s-.71-.18-.77-.2c-.29-.09.28.15-.06,0a2.28,2.28,0,0,1-.3-.17l-.16-.11c.17.14.2.16.08.05l-.27-.27c.13.18.15.2.06.07l-.1-.16c-.07-.15-.06-.11,0,.11a.75.75,0,0,1,0-.16c-.11-.38,0,.25,0,0v-.25c0-.25-.09.39,0,0l0-.15c.06-.15,0-.11-.06.13a1,1,0,0,0,.17-.28l-.09.11.12-.11-.12.09.14-.08c-.23.09-.28.11-.13.06l.16,0a1.52,1.52,0,0,0,1-1.84,1.53,1.53,0,0,0-1.85-1Z"/><path class="cls-3" d="M1545.31,926.76c-.61-32.88,10.48-64.28,21.66-94.72,5.55-15.11,11-30.23,15.8-45.59,4.46-14.2,9.23-29,19-40.51,18.74-22.05,50.88-26.64,77.88-21,28.6,6,54.18,22.85,73.55,44.4,20.9,23.25,35.13,51.67,45.84,80.83,1.32,3.58,2.58,7.19,3.81,10.81l2.51-1.46c-16.86-18.42-40.54-28.4-64.61-33.31a238.61,238.61,0,0,0-37.29-4.37c-7-.3-14.18-.3-21.07,1.3a41.13,41.13,0,0,0-17.52,9.11A92.25,92.25,0,0,0,1652,846.75c-4.24,5.58-8.34,11.27-12.24,17.1-7.68,11.48-14.54,23.58-19.49,36.5a118.31,118.31,0,0,0-7.77,41.94c-.1,15.67,2,31.27,1.9,46.94-.06,12.59-.82,28-12.67,35.48-9.65,6.07-21.84,6-32.52,9.19a46.71,46.71,0,0,0-7.84,3.07c-1.73.86-.21,3.45,1.51,2.59,10.26-5.16,22.12-5.07,32.85-8.77a30.33,30.33,0,0,0,13.42-8.52c4.14-4.82,6.2-11,7.18-17.17,2.31-14.63.68-29.74-.2-44.42-.91-15-1.18-30.08,2.4-44.81,3.26-13.39,9-26,15.92-37.92a268.9,268.9,0,0,1,23.25-33.66c4.09-5,8.62-9.93,14.13-13.45,5.9-3.78,12.65-5.47,19.58-5.94a143.37,143.37,0,0,1,20.09.43c6.27.45,12.54,1.11,18.76,2.07,24,3.66,48.33,11.52,66.69,28,2.22,2,4.34,4.1,6.36,6.3a1.51,1.51,0,0,0,2.5-1.46c-10.2-30.12-23.47-59.64-43.39-84.66-18.57-23.31-43.38-42.27-72.13-51-27.18-8.23-59.59-6.93-82.53,11.44-11.71,9.38-18.58,22.77-23.56,36.64-2.61,7.27-4.77,14.69-7.14,22-2.58,8-5.4,15.93-8.28,23.83-11.36,31.14-24,62.6-26.17,96-.26,4.06-.34,8.13-.27,12.2,0,1.93,3,1.93,3,0Z"/><path d="M874,554.73l72.31,40.54c20.36,11.41,44.91,26.16,69.1,18.46,12-3.83,21.55-13.42,34.09-15.83l-1.84-1.85a42.19,42.19,0,0,1-29.25,28.63,1.51,1.51,0,0,0,0,2.89,206.69,206.69,0,0,0,45.75,8.28l-1.06-2.56a40.82,40.82,0,0,1-43,9.24c-1.1-.42-2.12.83-1.84,1.85,1.45,5.26,4.37,9.89,7,14.63,2.48,4.52,4.88,9.59,4.2,14.9a16,16,0,0,1-8.43,11.65,14,14,0,0,1-14.15-.46A15.86,15.86,0,0,1,999.25,671l-1.5,1.5c4.42-.15,8-3.2,9.69-7.15,2-4.55,1.26-9.42-.86-13.79a35.52,35.52,0,0,0-4.36-6.57,23.07,23.07,0,0,0-5.2-5.19c-4.28-2.74-9.3-.46-11.61,3.7-3.17,5.7-.15,12.11,2.67,17.27l1.3-2.26c-12.2-.08-21.56-15.12-16.06-26.08a1.52,1.52,0,0,0-1.29-2.26A675.49,675.49,0,0,0,834.48,634q-19.2,2.5-38.22,6.08c-1.9.36-1.1,3.25.79,2.9a672.93,672.93,0,0,1,136.46-11.55q19.28.33,38.52,1.76l-1.3-2.25c-6.51,13,4.08,30.49,18.65,30.59a1.51,1.51,0,0,0,1.29-2.26c-2-3.68-4.57-8.27-3.34-12.62.95-3.39,4.54-6.44,8-4.35a18.38,18.38,0,0,1,4.2,4.15,35.67,35.67,0,0,1,3.62,5.1c1.9,3.28,3.14,7.18,2.13,11-.94,3.5-3.68,6.89-7.54,7a1.53,1.53,0,0,0-1.5,1.5c-.64,11.63,11,21.82,22.45,18.68A19.35,19.35,0,0,0,1031.07,679c2.44-5.54,1.46-11.42-.9-16.8-2.77-6.32-7.16-11.88-9-18.59l-1.84,1.84a43.75,43.75,0,0,0,45.92-10,1.52,1.52,0,0,0-1.06-2.56,203.21,203.21,0,0,1-45-8.17v2.89a45.26,45.26,0,0,0,31.34-30.72,1.51,1.51,0,0,0-1.84-1.84c-11,2.12-19.72,9.67-29.74,14.16-10.92,4.89-23,4.26-34.22,1-11.92-3.51-22.89-9.57-33.67-15.62l-35.58-19.94-40-22.42c-1.69-.94-3.2,1.65-1.51,2.59Z"/><path d="M177,162.26c-11-3-22.32.46-31.18,7.36-9.84,7.66-15.54,19-18.73,30.88-3.72,13.75-4.76,28.3-5.69,42.45-1.07,16.24-1.33,32.52-1.25,48.79.17,32.1,1.6,64.19.88,96.3-.7,30.56-3,61.07-6.22,91.46-6.48,61.28-16.63,122.08-25,183.11C81.59,722.34,75,782.51,75.53,842.89a638.32,638.32,0,0,0,6.78,88.76c2.13,14.2,4.26,28.84,8.39,42.62,3.5,11.66,10.29,20.34,21.6,25.2,12.68,5.44,27.11,7.52,40.53,10.36q22.75,4.81,45.67,8.78,45.56,7.92,91.56,12.81c62.26,6.74,124.88,9.74,187.49,10.41,62.9.67,125.8-1,188.64-3.61,31.14-1.3,62.27-2.84,93.39-4.44,14.92-.77,30.21-.67,45-2.65,11.29-1.51,20.6-6.78,25.84-17.14s6.13-22.38,7.13-33.8q2.09-24,3.37-48,2.57-48.51,1.8-97.13-.37-23.64-1.54-47.26c-.1-1.93-3.1-1.94-3,0A1420.6,1420.6,0,0,1,835,975.05c-1,12.46-1.4,26-7.16,37.43-6.72,13.3-19.61,15.73-33.31,16.47q-45.39,2.44-90.79,4.6c-60.63,2.84-121.3,5-182,5.39-60.48.33-121-1.2-181.3-5.86-60.52-4.67-120.84-12.54-180.31-24.78-13.87-2.86-28.22-5.27-41.69-9.71-6.18-2-12.23-4.94-16.74-9.74-4.69-5-7.14-11.52-8.86-18-7.49-28.27-10.77-58.15-12.76-87.25-4-58.26,0-116.74,6.77-174.64,6.89-58.84,16.67-117.3,24.51-176,7.88-59,13.46-118.15,12.82-177.69-.34-31.44-1.68-62.89-.65-94.33.51-15.31,1.39-30.75,3.67-45.91,2-13.48,5.72-27.79,15.16-38.1,8.5-9.29,21.28-15.12,33.85-11.74a1.5,1.5,0,0,0,.8-2.89Z"/><path d="M615.23,1024.88a94.86,94.86,0,0,1-4.25,32.79c-.57,1.85,2.32,2.64,2.9.8a97.72,97.72,0,0,0,4.35-33.59c-.09-1.93-3.09-1.94-3,0Z"/><path d="M591.8,1033.1l-2.54,24.68c-.2,1.92,2.8,1.91,3,0l2.54-24.68c.19-1.92-2.81-1.91-3,0Z"/><path d="M574.4,1030.42l-9.66,35.22a1.5,1.5,0,0,0,2.89.79l9.66-35.21a1.5,1.5,0,0,0-2.89-.8Z"/><path d="M327.49,1020.19a76.15,76.15,0,0,0-5.93,31.43c0,1.93,3,1.94,3,0a74,74,0,0,1,5.82-30.63,1.52,1.52,0,0,0-1.05-1.85,1.54,1.54,0,0,0-1.84,1.05Z"/><path d="M294.25,1018.16l-4.91,31.12c-.29,1.89,2.6,2.7,2.9.8l4.9-31.12c.3-1.89-2.59-2.7-2.89-.8Z"/><path d="M310.84,1020.17l-8.57,26.69c-.59,1.84,2.3,2.63,2.89.8l8.57-26.69c.59-1.85-2.3-2.64-2.89-.8Z"/><path d="M987.51,668.93a8.06,8.06,0,0,0,2.78-1.53c.14-.1.54-.44.72-.36s0,1,0,1.16c-.44,1.11-1.5,1.91-2.07,3a5.67,5.67,0,0,0-.44,4.2,15.39,15.39,0,0,0,1.79,3.75c.83,1.41,1.62,2.85,2.31,4.33a35.81,35.81,0,0,1,2.79,8.49,23.71,23.71,0,0,1-2.78,17c-2.42,3.83-6.15,6.63-9.74,9.3s-7.41,5.43-10.18,9.1a18.73,18.73,0,0,0-3.31,14.56c1,6.27,4.13,12,6.21,17.92a89.88,89.88,0,0,1,4.4,18.72c.09.69.16,1.38.23,2.07.05.46.41,1.78.18,2.18.18-.32-.44,0-.62,0l-.9.11c-.86.1-1.72.16-2.59.19a37.13,37.13,0,0,1-9-.81,52.83,52.83,0,0,1-16.74-7c-10.5-6.52-19.08-15.64-28.07-24-8.59-8-17.48-16-23.93-25.86-.77-1.18-1.53-2.38-2.2-3.63l-.1-.18c-.19-.43-.22-.48-.11-.14.15-.23.68-.43.92-.57.68-.41,1.37-.79,2.08-1.15a34.23,34.23,0,0,1,8.56-3,44.21,44.21,0,0,1,9.33-.77,25.43,25.43,0,0,0,9.17-1.31,47.85,47.85,0,0,0,7.82-4.12,24.87,24.87,0,0,0,6.43-5.1c3.79-4.58,3.25-10.71,5.07-16.09A28.86,28.86,0,0,1,969.88,670a29.22,29.22,0,0,1,8.5.45c1.89.38,2.69-2.51.8-2.89a32,32,0,0,0-31.7,11.72,34,34,0,0,0-6.4,15.74c-.48,3-1,6.17-3.08,8.58-1.91,2.21-4.49,3.69-7,5.17-2.8,1.67-5.66,3.32-8.92,3.88s-6.81.16-10.19.43a37.39,37.39,0,0,0-9.25,1.9,31.31,31.31,0,0,0-8.42,4.1c-2.81,2.1.15,5.56,1.51,7.67a83.55,83.55,0,0,0,5.49,7.45,151.56,151.56,0,0,0,12.94,13.52c4.63,4.38,9.31,8.7,13.93,13.09a176,176,0,0,0,14.79,12.9c10.06,7.61,22.58,13.48,35.5,12.21,1.28-.13,3-.11,4.05-1s.89-2.53.77-3.88a96.41,96.41,0,0,0-1.48-10,107.71,107.71,0,0,0-6.13-19.27c-2.36-5.82-5-12.39-2.77-18.66,1.54-4.38,5.27-7.57,8.84-10.31,3.84-2.95,8-5.66,11.19-9.34a24.77,24.77,0,0,0,5.93-15.95c.13-6.44-2-12.75-5.08-18.34a26.77,26.77,0,0,1-2.26-4.18c-.54-1.62.16-2.58,1.13-3.83,1.38-1.79,2.36-4.6.34-6.38a3.13,3.13,0,0,0-3.39-.38c-1,.45-1.75,1.43-2.84,1.67-1.88.41-1.09,3.3.8,2.89Z"/><path d="M909.19,748.93a5.47,5.47,0,0,0-1.45,1,3.21,3.21,0,0,1-.93.72,2,2,0,0,1-1.31,0,6.3,6.3,0,0,1-1.5-.61,16.06,16.06,0,0,1-2.63-1.76,5.82,5.82,0,0,1-.93-1l-.21-.35s-.13-.32-.07-.15c0-.1-.06-.2-.09-.3-.12-.37,0,.15-.05-.24a1.53,1.53,0,0,0-1.5-1.5,1.51,1.51,0,0,0-1.5,1.5c.24,3.07,3,5,5.47,6.37a7,7,0,0,0,4.7,1,4.8,4.8,0,0,0,2.12-1.1,5.41,5.41,0,0,1,1.39-1.06,1.5,1.5,0,0,0,.54-2,1.54,1.54,0,0,0-2-.54Z"/><path d="M610.48,196.59c-1.88-6.58-5.33-12.5-8.55-18.48s-6.39-12.38-6.87-19.27c-.39-5.65,1.25-11.34,5.42-15.32,3.69-3.51,9-4.68,13.48-2s7.45,8.52,5.74,13.77c-.61,1.84,2.29,2.62,2.89.79,1.76-5.36-.36-11.29-4.37-15.07a13.78,13.78,0,0,0-15.76-2.52c-5.35,2.61-9,8.33-10.07,14.08-1.36,7.37,1,14.8,4.07,21.42,3.67,7.82,8.73,15,11.13,23.39a1.5,1.5,0,0,0,2.89-.8Z"/><path d="M628.15,160.49a840.36,840.36,0,0,1,100.79,41.25c16.14,7.87,32.12,16.17,47.67,25.16,6.29,3.64,12.58,7.7,17.34,13.28A25.59,25.59,0,0,1,799,249.1c1.13,3.66,1,7.41,1.08,11.19s.31,7.54,2.19,10.81,5.12,5.31,8.34,7.09c7.86,4.34,15.9,8.38,24,12.22q12.41,5.85,25.17,11c4.18,1.67,8.4,3.28,12.63,4.84,3.65,1.34,7.49,2.67,10.48,5.25,3.29,2.85,4.8,7.07,6.34,11,1.69,4.29,3.3,8.6,4.86,12.94q4.54,12.69,8.35,25.64a469.41,469.41,0,0,1,12.34,53.17,461.78,461.78,0,0,1,6.06,54.51c.81,15.51,2.21,36-12.86,45.57a18.59,18.59,0,0,1-10,3,1.5,1.5,0,0,0,0,3c7.32,0,13.89-4,18.36-9.68,5.1-6.45,7.1-14.49,7.68-22.56.66-9.09-.08-18.34-.71-27.41q-1-14-2.76-27.84A470.13,470.13,0,0,0,893.28,324.5c-1.52-4-2.88-8.24-5.28-11.78a20.41,20.41,0,0,0-8.5-6.91c-3.86-1.81-8-3.11-11.94-4.63q-6.63-2.52-13.19-5.27-13.08-5.48-25.8-11.77-6.23-3.08-12.34-6.34c-3.56-1.9-7.86-3.69-10.45-6.92s-2.65-7.74-2.67-11.75c0-3.83-.1-7.64-1.33-11.31-2.24-6.67-7.15-12-12.6-16.21-6.37-5-13.57-8.77-20.62-12.67q-12-6.65-24.3-12.9a842.86,842.86,0,0,0-102.31-44q-6.48-2.3-13-4.48c-1.83-.61-2.62,2.28-.79,2.9Z"/><path d="M859.77,327.24a129.87,129.87,0,0,1-32.08-2.54c-2.64-.54-5.24-1.22-7.85-1.87-2-.51-4.33-.7-5.92.94-1.44,1.48-2,3.93-2.49,5.87a31.75,31.75,0,0,0-1,6.78,19,19,0,0,0,3.48,12.17,21.61,21.61,0,0,0,10.24,7c7.82,2.76,16.78,2.87,24.86,1.34,9.23-1.75,18-6.19,24.27-13.3,1.27-1.45-.84-3.58-2.12-2.12C861,353,844,357,829.3,353.91a24.78,24.78,0,0,1-10.37-4.42,14.55,14.55,0,0,1-5.41-9.9,27.23,27.23,0,0,1,1.69-12c.3-.84.62-1.85,1.6-2.08a6.92,6.92,0,0,1,3.07.47q3.48.93,7,1.66a133.94,133.94,0,0,0,32.88,2.64c1.93-.08,1.94-3.09,0-3Z"/><path d="M898.45,415.91c.26,16.15-8.87,30.6-20.63,41a118.68,118.68,0,0,1-19.88,13.82c-3.53,2-7.16,4.26-11.18,5.14-4.33.94-8.27-.84-12.06-2.76a116.86,116.86,0,0,1-23.56-15.81c-1.46-1.26-3.59.85-2.13,2.12a120.51,120.51,0,0,0,22,15.14c3.82,2,7.86,4.27,12.26,4.57s8.61-1.66,12.4-3.7c14.82-8,29.39-18.13,38.19-32.84a50.67,50.67,0,0,0,7.6-26.67c0-1.93-3-1.94-3,0Z"/><path d="M712.85,186.39a24.73,24.73,0,0,1,3.28-11c1.49-2.55,4.26-6.65,7.78-5.6,2.63.78,3.81,4,4.49,6.41a43.33,43.33,0,0,1,1.54,9.8c.16,3.75-.34,7.68-3,10.58-1.3,1.43.82,3.55,2.12,2.12,2.79-3.1,3.83-7.1,3.86-11.2a44.11,44.11,0,0,0-1.68-12.09c-.94-3.3-2.63-7-6-8.33-4.14-1.6-7.88,1.33-10.21,4.51a27.68,27.68,0,0,0-5.19,14.85c-.11,1.93,2.89,1.92,3,0Z"/><path d="M728.82,645a368.36,368.36,0,0,1,87.55-92.1Q830.79,542.21,846.2,533a1.5,1.5,0,0,0-1.51-2.59,371.26,371.26,0,0,0-97,83.89q-11.46,14.06-21.5,29.18c-1.07,1.61,1.53,3.11,2.59,1.51Z"/><path d="M593.73,173.41q-77.58-9.63-155.68-14.25T281.77,155q-43.83.24-87.63,2.07c-1.93.08-1.94,3.08,0,3q78.11-3.26,156.33-1.48t156.09,8.61q43.66,3.82,87.17,9.23c1.91.24,1.89-2.77,0-3Z"/><path class="cls-3" d="M844.12,302.16a375.55,375.55,0,0,0-59.51-7,362.28,362.28,0,0,0-59.81,2.63c-3.87.51-7.58,1.87-8.53,6.09a18,18,0,0,0-.09,5.77c.25,2.57.52,5.13.78,7.7l3.11,30.79,6.22,61.59,6.2,61.33.78,7.7a1.61,1.61,0,0,0,1.1,1.45q23.88,9.24,48.5,16.3t49.79,11.83q14.19,2.7,28.52,4.67a1.57,1.57,0,0,0,1.85-1,1.51,1.51,0,0,0-1-1.84q-25.35-3.5-50.32-9.27T762.38,487.1q-13.73-4.53-27.21-9.75l1.1,1.44L730.2,418.7l-6.1-60.35-3-30.05-1.53-15.14a61.47,61.47,0,0,1-.54-6.5c0-1.73.32-3.61,1.86-4.64s3.86-1.19,5.75-1.42c2.41-.29,4.81-.56,7.22-.8q7.23-.72,14.49-1.17,14.75-.9,29.53-.63a369.4,369.4,0,0,1,58.34,5.7q3.59.65,7.14,1.35c1.89.38,2.7-2.51.8-2.89Z"/><path d="M774.63,252.18a6.76,6.76,0,0,1-.46-.72l-.16-.33-.12-.35a7.51,7.51,0,0,1-.19-.82c-.06-.28,0,.13,0-.15s0-.38,0-.57a8.24,8.24,0,0,1,.05-.85c0,.26,0-.08,0-.16s.08-.37.13-.56a7.81,7.81,0,0,1,.26-.82c.08-.25-.05.07.07-.17s.14-.3.22-.45a6.4,6.4,0,0,1,.48-.79c0-.06.25-.33.11-.16l.32-.37a7.82,7.82,0,0,1,.66-.63c.21-.18-.08,0,.15-.11l.41-.26c.12-.07.24-.14.37-.2l.19-.1s-.2.08,0,0a6.23,6.23,0,0,1,1-.28l.21,0s-.17,0,0,0a3.87,3.87,0,0,1,.48,0,3.24,3.24,0,0,1,.86.08,5,5,0,0,1,1.62.61,5.42,5.42,0,0,1,1.46,1.15,6.08,6.08,0,0,1,1.08,1.52,4.25,4.25,0,0,1,.21.43c-.06-.15.09.25.11.31a8.64,8.64,0,0,1,.26,1c.05.25,0,0,0,.22s0,.32,0,.48a2.76,2.76,0,0,1-.07.86,5.27,5.27,0,0,1-.27.88c.09-.22,0,.09-.07.16s-.18.32-.28.48l-.23.34c.14-.2,0,.06-.11.12a6.24,6.24,0,0,1-.63.63l-.12.1-.06.05-.35.23a6.11,6.11,0,0,1-.79.44l-.19.09-.09,0-.47.16a9.61,9.61,0,0,1-1,.23l-.2,0c-.24,0,.22,0,0,0s-.37,0-.56,0a8,8,0,0,1-1,0l-.2,0c.15,0,.11,0,0,0l-.54-.12a4.75,4.75,0,0,1-.46-.14c-.08,0-.45-.18-.21-.07a7.2,7.2,0,0,1-.9-.51.88.88,0,0,1-.17-.12c.13.1.06.05,0,0l-.41-.38c-1.36-1.38-3.48.74-2.12,2.12,4.77,4.83,14.45,1.55,14.5-5.5a9.25,9.25,0,0,0-5.87-8.35,7.68,7.68,0,0,0-9,2.81c-2.12,2.82-2.6,7.12-.46,10.07a1.55,1.55,0,0,0,2.06.53,1.51,1.51,0,0,0,.53-2Z"/><path d="M732.55,247c-2.21-1.85-4.72-3.83-5.85-6.58-.84-2.06-.86-5,1.06-6.42a4.89,4.89,0,0,1,5,0,5.87,5.87,0,0,1,3.24,5.06,11.77,11.77,0,0,1-3.34,8.31c-1.29,1.42.83,3.55,2.13,2.12a15.29,15.29,0,0,0,4.22-9.64,9.12,9.12,0,0,0-4-8A8.39,8.39,0,0,0,727,231c-3.18,1.51-4.19,5.26-3.63,8.49.73,4.14,4,7.07,7.1,9.62a1.54,1.54,0,0,0,2.12,0,1.52,1.52,0,0,0,0-2.12Z"/><path d="M791.37,237.94a19,19,0,0,0-33.46,2.28c-.78,1.74,1.8,3.27,2.59,1.51a16,16,0,0,1,28.28-2.28c1,1.62,3.63.12,2.59-1.51Z"/><path d="M749.15,227.58c-1-6.39-6.23-11.16-12.14-13.19-6.62-2.28-13.8-.63-19.64,3a39.26,39.26,0,0,0-9.36,8.21c-1.24,1.47.87,3.6,2.12,2.12,5.16-6.12,12.56-11.58,20.94-11.35,6.95.19,14,4.89,15.18,12.05.3,1.91,3.2,1.1,2.9-.79Z"/></svg>