<svg id="Layer_1" data-name="Layer 1" xmlns="http://www.w3.org/2000/svg" viewBox="0 0 1920 1080"><defs><style>.cls-1{font-size:192.83px;font-family:SukhumvitSet-Text, Sukhumvit Set;}</style></defs><title>42-teeth</title><text class="cls-1" transform="translate(382 911.42)">Ding Ding Ding…</text><path d="M42.76,482.37l260-157.76c32.37-19.65,64.73-39.77,93.33-64.75,27-23.57,50.8-52.08,62.5-86.41,7.65-22.44,8.61-45.87,8.29-69.38-.35-26.4-1.63-53.28,6.9-78.67l-2.51.66c35.95,36.71,50.66,91.87,37.76,141.61a1.51,1.51,0,0,0,2.51,1.46,716.57,716.57,0,0,0,103.15-124l-2.74-.36c12,41.7,3.23,88-21.69,123.3A137.77,137.77,0,0,1,565.19,195a1.51,1.51,0,0,0,.66,2.51c20.44,5.14,41.56,3.27,62.41,4,19.85.72,40.88,4.51,54.93,19.81,11.69,12.71,17.11,30.9,15,48C696,287.55,684.51,302.7,668,310.59c-17.84,8.54-39.77,8.18-56.56-2.61L612,310c6.73-12.85,3-27.83-5.65-38.8-10.65-13.45-27.47-18.49-44.12-18.62a138.78,138.78,0,0,0-28.14,3.12c-7.73,1.54-16.1,3.24-22.29,8.48-10.88,9.22-8.75,25.44-1,35.94,11.78,15.94,34.05,16.93,52.1,17.18l-1.3-2.26c-17.61,30.79-61.06,39-91.48,23.38a58,58,0,0,1-21.88-19.32,1.52,1.52,0,0,0-2.59,0A2359.2,2359.2,0,0,0,221.32,742.7q-25.44,62.7-47.24,126.78c-.62,1.83,2.27,2.62,2.89.8A2356.93,2356.93,0,0,1,376.74,434.6q34.11-58,71.5-114h-2.59c20.72,31,66.76,36.49,97.43,17.62a61,61,0,0,0,21.11-21.67,1.51,1.51,0,0,0-1.29-2.26c-15.06-.21-32.71-.57-44.87-10.79-9.34-7.86-15.39-24.18-6.67-34.67,4.92-5.91,12.83-8,20-9.53a158.8,158.8,0,0,1,24.25-3.56c15.32-.88,32.14,1.53,43.79,12.37,10.8,10,17.25,26.47,10,40.36a1.54,1.54,0,0,0,.53,2.05c30.49,19.59,76.44,5.75,88.53-29.12,5.86-16.9,3.43-36.36-5.46-51.76-10.25-17.73-28.31-26.91-48.12-29.77-26-3.75-52.58,1.14-78.23-5.32l.66,2.51c34.06-28.05,53.5-72,53-116A141.3,141.3,0,0,0,614.84,44a1.52,1.52,0,0,0-2.75-.35A713.06,713.06,0,0,1,509.41,167l2.5,1.46c13.17-50.76-1.83-107-38.52-144.52a1.52,1.52,0,0,0-2.51.66c-14.59,43.43-.9,89.94-11.18,134-8.31,35.65-30.22,65.88-56.47,90.69-27.58,26.07-59.67,46.89-92,66.6q-62.7,38.26-125.59,76.21L41.24,479.78c-1.65,1-.14,3.6,1.52,2.59Z"/><path d="M583.14,336c1.44-4.13-.32-8.2-.06-12.39.12-1.91,1-3.79,3-4.25s4.29.68,5.83,2c3.69,3.07,4.46,8.39,6.71,12.41a15.72,15.72,0,0,0,9.53,7.49c4.2,1.24,8.68,1.2,13,1.11,5.62-.13,11.23-.1,16.83.28a129.94,129.94,0,0,1,32.4,6.13c18.54,6.17,35.74,17.73,46.55,34.24,10,15.27,12.77,33.57,15,51.33,2.17,17,3.83,34.71,11.75,50.18a57.44,57.44,0,0,0,16.32,19.62,73.86,73.86,0,0,0,23.65,11.52c18.41,5.55,37.84,6.33,56.7,9.55a319.22,319.22,0,0,1,64.88,18.29c5.35,2.14,10.69,4.38,15.88,6.88,1.13.54,2.38,1,2.73,2.32s-.44,2.74-.88,3.92q-1.32,3.5-2.87,6.88a128.81,128.81,0,0,1-14.5,24.11c-11.52,15.2-26.12,28-42,38.46C827,650.27,783.88,661.88,742.27,674.7c-43.7,13.46-87.39,29.67-133.34,33.26-5.59.43-11.2.68-16.81.7-2.1,0-5.82.6-6.47-2.12s-.36-5.74-.36-8.45a125.2,125.2,0,0,1,4.39-32.73A134.5,134.5,0,0,1,602.4,635c5.24-9.37,10.83-18.7,13.22-29.28,2.45-10.83,2-22.07,1.72-33.09-.3-10.22-.92-20.75-4.94-30.28-3.84-9.1-10.88-15.85-18.42-22s-15.28-12.2-21.72-19.72a105.75,105.75,0,0,1-24-52.46,104.69,104.69,0,0,1,24.71-83.72c1.27-1.45-.84-3.58-2.12-2.12a108.29,108.29,0,0,0-25.5,55.06,106.35,106.35,0,0,0,8,58.77,108.5,108.5,0,0,0,15.58,25.16c6.45,7.8,14.09,14.05,22,20.36s15.65,13.41,19.36,23.24c3.8,10.12,4,21.13,4.2,31.79.28,11.78.33,23.75-3.69,35-3.76,10.5-10.24,19.73-15.16,29.67a127.3,127.3,0,0,0-10.73,31.33c-2.16,10.69-3.33,22.08-2.33,33,.17,1.93.71,3.83,2.45,4.91,2.08,1.3,4.79,1.07,7.14,1.06,5.85,0,11.71-.29,17.54-.76A296.92,296.92,0,0,0,644,706c23.13-4.65,45.73-11.54,68.21-18.64,22.16-7,44.44-13.68,66.59-20.73,21.76-6.91,43.38-14.59,63.78-24.93,34.33-17.39,66.32-43.84,81.6-80,1.58-3.74,4.86-9.3.81-12.56-2-1.57-4.64-2.44-6.91-3.45q-3.81-1.71-7.65-3.31a320.65,320.65,0,0,0-66.39-19.57c-10.08-1.81-20.25-3-30.4-4.32-18.37-2.45-38.31-5.71-53.12-17.76C746.27,489,740.67,471.53,737.73,454c-3-18-3.69-36.54-9.39-54-5.92-18.16-18.16-33.05-34.16-43.34-18.34-11.8-40.26-16.7-61.85-17.38-5.27-.17-10.53.16-15.8,0-4.55-.12-9.63-.74-13-4.09-3.59-3.52-4.25-8.85-6.83-13-2-3.21-5.67-5.94-9.58-6a7,7,0,0,0-6.92,6.38c-.54,4.18,1.51,8.46.07,12.55-.64,1.83,2.26,2.61,2.9.8Z"/><path d="M699.12,712.28c-.49,4.16,2.11,8.13.88,12.25-1,3.37-3.9,5.91-6.7,7.83a57.1,57.1,0,0,1-10.81,5.8c-4,1.61-8.61,2.73-12.69.79-1.73-.82-3.26,1.76-1.51,2.59,7.31,3.48,15.21-.19,21.75-3.72,5.29-2.85,11.57-6.83,13-13.12a13.59,13.59,0,0,0,0-5.68c-.44-2.26-1.17-4.41-.9-6.74.23-1.92-2.77-1.9-3,0Z"/><path d="M816.27,322.52a130.27,130.27,0,0,0,9.36,40.75,141,141,0,0,0,21.52,36.16,132.84,132.84,0,0,0,73.35,45.9c17.2,4.22,34.91,5.86,52.54,7.18l6.68.49c1.93.14,1.92-2.86,0-3-17.38-1.26-34.83-2.54-51.92-6.1-15.23-3.16-30-8.23-43.4-16.19a133.31,133.31,0,0,1-31.58-26.23,137.75,137.75,0,0,1-22.28-34.34,127.62,127.62,0,0,1-10.84-39.52c-.18-1.7-.32-3.4-.43-5.1-.12-1.92-3.12-1.93-3,0Z"/><path d="M473,522.43c12,20,14.22,44.38,10.2,67.06-4.31,24.32-15.76,46.56-29.18,67-7.75,11.83-16.2,23.19-24.66,34.52-1.15,1.55,1.45,3.05,2.59,1.52,15.33-20.56,30.81-41.33,41.78-64.63C484,606.24,490,582.18,487.54,558.1a89.29,89.29,0,0,0-11.93-37.18,1.5,1.5,0,0,0-2.59,1.51Z"/><path d="M877.17,312.45c5.38,21,15.27,41.28,30.57,56.83s35.9,25.25,57.81,25.54a65.91,65.91,0,0,0,34.3-8.76,1.5,1.5,0,0,0-1.51-2.59c-18.15,10.68-40.75,10.46-60,2.89-19.68-7.74-35-23.56-45.26-41.76a135.88,135.88,0,0,1-13-33c-.48-1.87-3.38-1.08-2.9.8Z"/><path d="M407.75,552.94a151.64,151.64,0,0,1-11.17,44.33,154.18,154.18,0,0,1-23.75,39.13,151.17,151.17,0,0,1-18.16,18.33c-1.47,1.25.66,3.37,2.12,2.12a154.24,154.24,0,0,0,30.54-35.34,158.09,158.09,0,0,0,18.73-42.59,153.88,153.88,0,0,0,4.69-26c.18-1.93-2.82-1.91-3,0Z"/></svg>