<svg id="Layer_1" data-name="Layer 1" xmlns="http://www.w3.org/2000/svg" viewBox="0 0 1920 1080"><defs><style>.cls-1{fill:#3785e2;}.cls-1,.cls-2{opacity:0.5;}.cls-2{fill:#39b54a;}.cls-3{opacity:0.3;}.cls-4{fill:#4d4d4d;}</style></defs><title>41</title><ellipse class="cls-1" cx="1590.84" cy="795.23" rx="247.36" ry="117.49" transform="translate(-187.34 760.12) rotate(-25.43)"/><ellipse class="cls-1" cx="1181.81" cy="493.82" rx="151.49" ry="99.81"/><rect class="cls-2" x="713.1" y="680.19" width="437.92" height="263.17" transform="translate(278.3 -237.18) rotate(17.01)"/><rect class="cls-2" x="762.22" y="442.09" width="181.83" height="109.27" transform="translate(182.67 -227.88) rotate(17.01)"/><rect class="cls-2" x="852.22" y="270.09" width="181.83" height="109.27" transform="translate(136.28 -261.73) rotate(17.01)"/><rect class="cls-2" x="715.22" y="110.09" width="181.83" height="109.27" transform="translate(83.47 -228.65) rotate(17.01)"/><path class="cls-3" d="M470.7,644.13c-85.24-13.49-134.29-46.36-187,8.53S219,772.55,219,772.55s-75.56,93.26,43.39,139.08,149.62,73,202.36,48S588.15,814.65,588.15,814.65s13.84-87.92-28.8-108.17-57.6-8-72.57-24S497.63,648.39,470.7,644.13Z"/><path class="cls-3" d="M576,53.63c-48.65-7.7-76.65-26.46-106.75,4.87s-36.94,68.43-36.94,68.43-43.12,53.22,24.77,79.38,85.4,41.67,115.5,27.37S643.07,151,643.07,151s7.9-50.19-16.44-61.74-32.87-4.56-41.41-13.69S591.41,56.07,576,53.63Z"/><path class="cls-3" d="M477,243.63c-48.65-7.7-76.65-26.46-106.75,4.87s-36.94,68.43-36.94,68.43-43.12,53.22,24.77,79.38,85.4,41.67,115.5,27.37S544.07,341,544.07,341s7.9-50.19-16.44-61.74-32.87-4.56-41.41-13.69S492.41,246.07,477,243.63Z"/><path class="cls-3" d="M616,432.63c-48.65-7.7-76.65-26.46-106.75,4.87s-36.94,68.43-36.94,68.43-43.12,53.22,24.77,79.38,85.4,41.67,115.5,27.37S683.07,530,683.07,530s7.9-50.19-16.44-61.74-32.87-4.56-41.41-13.69S631.41,435.07,616,432.63Z"/><path d="M834.31,306.46q0,1.1,0,3.27c0,1.46-.08,3.09-.16,4.91s-.21,3.7-.35,5.64-.36,3.77-.61,5.48a37.73,37.73,0,0,1-.93,4.49,5.22,5.22,0,0,1-1.32,2.57,8.45,8.45,0,0,1-1.5,1c-.62.35-1.27.67-1.93,1s-1.31.56-2,.8-1.22.41-1.74.54q1.23,2.89,2.38,5.68t2.31,5.67L819,349.75c-1.24-1.8-2.41-3.59-3.5-5.39s-2.25-3.57-3.49-5.32a9,9,0,0,1-1,.06h-1c-.72,0-1.8,0-3.23-.13s-3-.21-4.81-.38-3.63-.38-5.55-.64-3.71-.54-5.35-.83a34.94,34.94,0,0,1-4.27-1,5.06,5.06,0,0,1-2.31-1.22,9.29,9.29,0,0,1-1.51-3.62q-.6-2.53-1-5.45t-.58-5.65c-.12-1.81-.19-3.19-.19-4.13s-.06-2.13-.06-3.18v-3.23c0-.82,0-1.86,0-3.15s.1-2.6.22-4a26,26,0,0,1,.65-3.85,6,6,0,0,1,1.34-2.76,5.35,5.35,0,0,1,2.28-1.12,41.79,41.79,0,0,1,4.2-1c1.62-.32,3.38-.6,5.26-.86s3.72-.49,5.51-.71,3.45-.37,5-.48,2.7-.18,3.56-.22c1.24,0,2.48-.08,3.72-.1s2.48,0,3.72,0c1.62,0,3.34,0,5.16.1a20.41,20.41,0,0,1,5.19.83,11.86,11.86,0,0,1,4.36,2.34,8.64,8.64,0,0,1,2.67,4.55,14.43,14.43,0,0,1,.22,1.54c.06.64.11,1.33.13,2.05s0,1.44,0,2.12Zm-13.85,3.72v-.83a9,9,0,0,0-.06-1,4.81,4.81,0,0,0-.23-1,1.89,1.89,0,0,0-.42-.7,2.94,2.94,0,0,0-.89-.45,5.43,5.43,0,0,0-1.25-.26l-1.35-.1-1.06,0c-.6,0-1.53.05-2.79.13s-2.67.21-4.23.39-3.2.37-4.91.6-3.29.51-4.74.81a36,36,0,0,0-3.75,1,3.81,3.81,0,0,0-2,1.09,2,2,0,0,0-.29,1c0,.43,0,.82,0,1.16,0,.85.07,1.92.19,3.2s.3,2.61.52,4,.44,2.69.67,4,.46,2.33.67,3.14q1.55.57,2.76.93a20,20,0,0,0,2.37.54c.77.13,1.57.23,2.41.29s1.8.12,2.92.16l-4-6.41c1.11-.56,2.16-1.09,3.14-1.6s2-1,3-1.41,2-.82,3-1.16,2.19-.66,3.43-1l4.3,8.78a40,40,0,0,0,2-7.53A49.3,49.3,0,0,0,820.46,310.18Z"/><path d="M885.48,336.22l-10.83.45-.77-6.48A12,12,0,0,1,871,333a16.38,16.38,0,0,1-3.66,1.86,19.71,19.71,0,0,1-4,1,28.46,28.46,0,0,1-4.07.29,34.86,34.86,0,0,1-3.81-.25c-1.52-.17-3.06-.42-4.62-.74a27.2,27.2,0,0,1-4.33-1.25,7.18,7.18,0,0,1-2.89-1.8,5.13,5.13,0,0,1-1-2.47A24.94,24.94,0,0,1,842,326c-.09-1.28-.13-2.52-.13-3.72v-2.88q0-4.82.38-9.49t1.09-9.3a35.82,35.82,0,0,1,3.85-.19,24.83,24.83,0,0,1,3.33.22c1.12.15,2.23.33,3.34.55,0,.21,0,.83.06,1.85s.1,2.25.16,3.66.14,2.92.23,4.52.18,3.09.29,4.46.23,2.53.38,3.49.31,1.49.48,1.57a4.46,4.46,0,0,0,2.12.64c.77.05,1.51.07,2.24.07.52,0,1.32,0,2.41-.1s2.21-.17,3.36-.32a29.4,29.4,0,0,0,3.21-.58,4.33,4.33,0,0,0,2-.86,2.59,2.59,0,0,0,.29-1.22c.06-.68.1-1.43.12-2.24s0-1.57.07-2.28,0-1.12,0-1.25c0-1.92,0-3.83-.13-5.71s-.17-3.78-.25-5.7l12.44-.58c.25,3,.49,6,.7,8.94s.49,6,.84,8.95a29.6,29.6,0,0,1,.22,3c0,1,0,2.05.1,3.08.08,1.92.13,3.85.16,5.77S885.44,334.25,885.48,336.22Z"/><path d="M937.55,310.57q0,5.39-.38,10.71t-.77,10.64q-7.18.65-14.3,1.09t-14.3.45l-2.37,0c-1.16,0-2.38-.07-3.66-.13s-2.5-.15-3.65-.26a6.41,6.41,0,0,1-2.31-.48,6.55,6.55,0,0,1-2.95-2.92,9.18,9.18,0,0,1-.84-4c0-.52,0-1.2.07-2.06s.13-1.75.25-2.69a21.11,21.11,0,0,1,.52-2.63,5,5,0,0,1,.77-1.79,4.89,4.89,0,0,1,2.63-1.32,34.07,34.07,0,0,1,4.9-.86q2.85-.33,6.16-.52c2.2-.13,4.3-.22,6.31-.29s3.81-.09,5.39-.09h3.4a20.12,20.12,0,0,0,.19-2.76V310a2.12,2.12,0,0,0-.06-.67c-.13-.26-.54-.48-1.22-.65a16,16,0,0,0-2.54-.38c-1-.09-2.09-.16-3.27-.23s-2.31-.09-3.43-.09h-4.8q-4,0-8.08.16c-2.7.11-5.39.2-8.08.29.17-1.63.31-3.27.41-4.94a40.76,40.76,0,0,0,0-4.94,93.55,93.55,0,0,1,9.4-1.18c3.14-.24,6.32-.36,9.52-.36,1.16,0,2.42,0,3.78,0s2.74.06,4.11.12,2.72.16,4.07.29,2.6.3,3.75.51a14.24,14.24,0,0,1,3.56,1.16,16.54,16.54,0,0,1,3.3,2.05,14.27,14.27,0,0,1,2.7,2.79,10.49,10.49,0,0,1,1.66,3.37,2.42,2.42,0,0,1,.1.64q0,.45,0,1v1.64Zm-14.3,15.07v-8.21c-1.24,0-2.48-.08-3.72-.1l-3.72,0-2.15,0c-1.17,0-2.43.08-3.78.16s-2.57.2-3.69.32-1.75.32-1.92.58a3.18,3.18,0,0,0-.42,1.06,6.86,6.86,0,0,0-.09,1.12c0,.3,0,.71.06,1.22a13.7,13.7,0,0,0,.23,1.6c.1.56.22,1.07.35,1.54a2.41,2.41,0,0,0,.51,1,1.63,1.63,0,0,0,.87.48,9.53,9.53,0,0,0,1.31.25,13.43,13.43,0,0,0,1.41.13l1.09,0c1,0,2.13-.05,3.31-.13s2.37-.18,3.59-.29,2.4-.24,3.56-.39Z"/><path d="M985.77,305.69a20.87,20.87,0,0,1-.77,5.71c-.3,0-1.18.1-2.66.16l-5.26.26c-2,.11-4.21.23-6.54.38s-4.49.31-6.47.48-3.68.36-5.07.55a6.56,6.56,0,0,0-2.34.54,5.71,5.71,0,0,0-1.54,2.18,6.92,6.92,0,0,0-.51,2.57,3.41,3.41,0,0,0,.16,1.19,4,4,0,0,0,.54.92,3,3,0,0,0,1.35.33c.77.08,1.63.15,2.57.19l2.62.09,1.42,0q4.61,0,9.23-.2t9.23-.51l.52,11q-6.42.51-12.86,1t-12.92.48h-.93l-1.32,0c-.47,0-.92-.05-1.34-.09s-.73-.09-.9-.13c-.9-.26-1.79-.55-2.66-.87a12.08,12.08,0,0,1-2.47-1.22,8.73,8.73,0,0,1-2-1.76,6.27,6.27,0,0,1-1.25-2.5,17.15,17.15,0,0,1-.42-2.53c-.1-1.05-.18-2.13-.22-3.24s-.08-2.2-.1-3.27,0-2,0-2.69c0-1.67,0-3.23.06-4.69a13.29,13.29,0,0,1,.71-4,8.64,8.64,0,0,1,2.08-3.27,12.23,12.23,0,0,1,4.14-2.54,14.27,14.27,0,0,1,3.65-.8q2.44-.29,5.1-.45c1.78-.1,3.48-.18,5.1-.22s2.89-.07,3.78-.07q4.5,0,9,.2t8.94.51c.13,1.07.24,2.13.32,3.17S985.77,304.67,985.77,305.69Z"/><path d="M1034,304.15l-16.49,11.93c.13.51.39,1.34.77,2.47s.82,2.31,1.29,3.53,1,2.35,1.5,3.4a5.36,5.36,0,0,0,1.51,2,3.72,3.72,0,0,0,1.15.51c.48.13,1,.23,1.45.32a10.49,10.49,0,0,0,1.47.16l1.25,0q.9,0,1.86-.06c.64,0,1.26-.11,1.86-.19-.08.55-.15,1.12-.19,1.7s-.06,1.16-.06,1.76c0,1,0,2,.06,3.08s.06,2,.06,3c-.3,0-.82.1-1.57.16s-1.6.13-2.56.19l-3,.23-3,.22c-.92.07-1.71.1-2.37.1a3.44,3.44,0,0,1-1.25-.13c-.73-.34-1.44-.71-2.12-1.09a5.17,5.17,0,0,1-1.73-1.6,14,14,0,0,1-1.06-2.44c-.49-1.33-1-2.78-1.54-4.36s-1-3.06-1.47-4.42-.74-2.25-.87-2.63l-6.15,4v11.16l-12.7,1.09q.39-9,.83-17.86t.45-17.92c0-1.84,0-3.66,0-5.45s-.05-3.64-.1-5.52a35.05,35.05,0,0,0,5.23.64c1.73.09,3.47.22,5.23.39v24q5-3.07,9.78-6.28a99,99,0,0,0,9.26-7.06q3.4.39,6.64.58Z"/><path d="M1050.54,290.18c0,1.11-.1,2.33-.16,3.65s-.14,2.67-.23,4-.2,2.7-.35,4-.33,2.51-.54,3.62q-1,4.81-2,9.49c-.66,3.12-1.31,6.29-2,9.49l-7,.64-1.6-16.16c-.3-2.9-.52-5.82-.64-8.75s-.28-5.87-.45-8.82Zm-1.16,44.18a4,4,0,0,1-.67,2.15,8.19,8.19,0,0,1-1.7,1.89,8.55,8.55,0,0,1-2.24,1.31,6.2,6.2,0,0,1-2.25.48,6.56,6.56,0,0,1-2-.35,7.5,7.5,0,0,1-1.92-1,5,5,0,0,1-1.41-1.51,3.81,3.81,0,0,1-.55-2.05,3.63,3.63,0,0,1,.74-2.21,6.68,6.68,0,0,1,1.8-1.67,8.69,8.69,0,0,1,2.3-1,8.92,8.92,0,0,1,2.34-.35,6.4,6.4,0,0,1,3.24.83,5.08,5.08,0,0,1,2.15,2.51,1.43,1.43,0,0,1,.16.48A3.64,3.64,0,0,1,1049.38,334.36Z"/><path d="M744.31,473.46q0,1.1,0,3.27c0,1.46-.08,3.09-.16,4.91s-.21,3.7-.35,5.64-.36,3.77-.61,5.48a37.73,37.73,0,0,1-.93,4.49,5.22,5.22,0,0,1-1.32,2.57,8.45,8.45,0,0,1-1.5,1c-.62.35-1.27.67-1.93,1s-1.31.56-2,.8-1.22.41-1.74.54q1.23,2.89,2.38,5.68t2.31,5.67L729,516.75c-1.24-1.8-2.41-3.59-3.5-5.39s-2.25-3.57-3.49-5.32a9,9,0,0,1-1,.06h-1c-.72,0-1.8,0-3.23-.13s-3-.21-4.81-.38-3.63-.38-5.55-.64-3.71-.54-5.35-.83a34.94,34.94,0,0,1-4.27-1,5.06,5.06,0,0,1-2.31-1.22,9.29,9.29,0,0,1-1.51-3.62q-.6-2.53-1-5.45t-.58-5.65c-.12-1.81-.19-3.19-.19-4.13s-.06-2.13-.06-3.18v-3.23c0-.82,0-1.86,0-3.15s.1-2.6.22-4a26,26,0,0,1,.65-3.85,6,6,0,0,1,1.34-2.76,5.35,5.35,0,0,1,2.28-1.12,41.79,41.79,0,0,1,4.2-1c1.62-.32,3.38-.6,5.26-.86s3.72-.49,5.51-.71,3.45-.37,5-.48,2.7-.18,3.56-.22c1.24,0,2.48-.08,3.72-.1s2.48,0,3.72,0c1.62,0,3.34,0,5.16.1a20.41,20.41,0,0,1,5.19.83,11.86,11.86,0,0,1,4.36,2.34,8.64,8.64,0,0,1,2.67,4.55,14.43,14.43,0,0,1,.22,1.54c.06.64.11,1.33.13,2.05s0,1.44,0,2.12Zm-13.85,3.72v-.83a9,9,0,0,0-.06-1,4.81,4.81,0,0,0-.23-1,1.89,1.89,0,0,0-.42-.7,2.94,2.94,0,0,0-.89-.45,5.43,5.43,0,0,0-1.25-.26l-1.35-.1-1.06,0c-.6,0-1.53.05-2.79.13s-2.67.21-4.23.39-3.2.37-4.91.6-3.29.51-4.74.81a36,36,0,0,0-3.75,1,3.81,3.81,0,0,0-2,1.09,2,2,0,0,0-.29,1c0,.43,0,.82,0,1.16,0,.85.07,1.92.19,3.2s.3,2.61.52,4,.44,2.69.67,4,.46,2.33.67,3.14q1.55.57,2.76.93a20,20,0,0,0,2.37.54c.77.13,1.57.23,2.41.29s1.8.12,2.92.16l-4-6.41c1.11-.56,2.16-1.09,3.14-1.6s2-1,3-1.41,2-.82,3-1.16,2.19-.66,3.43-1l4.3,8.78a40,40,0,0,0,2-7.53A49.3,49.3,0,0,0,730.46,477.18Z"/><path d="M795.48,503.22l-10.83.45-.77-6.48A12,12,0,0,1,781,500a16.38,16.38,0,0,1-3.66,1.86,19.71,19.71,0,0,1-4,1,28.46,28.46,0,0,1-4.07.29,34.86,34.86,0,0,1-3.81-.25c-1.52-.17-3.06-.42-4.62-.74a27.2,27.2,0,0,1-4.33-1.25,7.18,7.18,0,0,1-2.89-1.8,5.13,5.13,0,0,1-1-2.47A24.94,24.94,0,0,1,752,493c-.09-1.28-.13-2.52-.13-3.72v-2.88q0-4.82.38-9.49t1.09-9.3a35.82,35.82,0,0,1,3.85-.19,24.83,24.83,0,0,1,3.33.22c1.12.15,2.23.33,3.34.55,0,.21,0,.83.06,1.85s.1,2.25.16,3.66.14,2.92.23,4.52.18,3.09.29,4.46.23,2.53.38,3.49.31,1.49.48,1.57a4.46,4.46,0,0,0,2.12.64c.77.05,1.51.07,2.24.07.52,0,1.32,0,2.41-.1s2.21-.17,3.36-.32a29.4,29.4,0,0,0,3.21-.58,4.33,4.33,0,0,0,2-.86,2.59,2.59,0,0,0,.29-1.22c.06-.68.1-1.43.12-2.24s0-1.57.07-2.28,0-1.12,0-1.25c0-1.92,0-3.83-.13-5.71s-.17-3.78-.25-5.7l12.44-.58c.25,3,.49,6,.7,8.94s.49,6,.84,8.95a29.6,29.6,0,0,1,.22,3c0,1,0,2.05.1,3.08.08,1.92.13,3.85.16,5.77S795.44,501.25,795.48,503.22Z"/><path d="M847.55,477.57q0,5.39-.38,10.71t-.77,10.64q-7.18.65-14.3,1.09t-14.3.45l-2.37,0c-1.16,0-2.38-.07-3.66-.13s-2.5-.15-3.65-.26a6.41,6.41,0,0,1-2.31-.48,6.55,6.55,0,0,1-2.95-2.92,9.18,9.18,0,0,1-.84-4c0-.52,0-1.2.07-2.06s.13-1.75.25-2.69a21.11,21.11,0,0,1,.52-2.63,5,5,0,0,1,.77-1.79,4.89,4.89,0,0,1,2.63-1.32,34.07,34.07,0,0,1,4.9-.86q2.85-.33,6.16-.52c2.2-.13,4.3-.22,6.31-.29s3.81-.09,5.39-.09h3.4a20.12,20.12,0,0,0,.19-2.76V477a2.12,2.12,0,0,0-.06-.67c-.13-.26-.54-.48-1.22-.65a16,16,0,0,0-2.54-.38c-1-.09-2.09-.16-3.27-.23s-2.31-.09-3.43-.09h-4.8q-4,0-8.08.16c-2.7.11-5.39.2-8.08.29.17-1.63.31-3.27.41-4.94a40.76,40.76,0,0,0,0-4.94,93.55,93.55,0,0,1,9.4-1.18c3.14-.24,6.32-.36,9.52-.36,1.16,0,2.42,0,3.78,0s2.74.06,4.11.12,2.72.16,4.07.29,2.6.3,3.75.51a14.24,14.24,0,0,1,3.56,1.16,16.54,16.54,0,0,1,3.3,2.05,14.27,14.27,0,0,1,2.7,2.79,10.49,10.49,0,0,1,1.66,3.37,2.42,2.42,0,0,1,.1.64q0,.45,0,1v1.64Zm-14.3,15.07v-8.21c-1.24,0-2.48-.08-3.72-.1l-3.72,0-2.15,0c-1.17,0-2.43.08-3.78.16s-2.57.2-3.69.32-1.75.32-1.92.58a3.18,3.18,0,0,0-.42,1.06,6.86,6.86,0,0,0-.09,1.12c0,.3,0,.71.06,1.22a13.7,13.7,0,0,0,.23,1.6c.1.56.22,1.07.35,1.54a2.41,2.41,0,0,0,.51,1,1.63,1.63,0,0,0,.87.48,9.53,9.53,0,0,0,1.31.25,13.43,13.43,0,0,0,1.41.13l1.09,0c1,0,2.13-.05,3.31-.13s2.37-.18,3.59-.29,2.4-.24,3.56-.39Z"/><path d="M895.77,472.69a20.87,20.87,0,0,1-.77,5.71c-.3,0-1.18.1-2.66.16l-5.26.26c-2,.11-4.21.23-6.54.38s-4.49.31-6.47.48-3.68.36-5.07.55a6.56,6.56,0,0,0-2.34.54,5.71,5.71,0,0,0-1.54,2.18,6.92,6.92,0,0,0-.51,2.57,3.41,3.41,0,0,0,.16,1.19,4,4,0,0,0,.54.92,3,3,0,0,0,1.35.33c.77.08,1.63.15,2.57.19l2.62.09,1.42,0q4.61,0,9.23-.2t9.23-.51l.52,11q-6.42.51-12.86,1t-12.92.48h-.93l-1.32,0c-.47,0-.92-.05-1.34-.09s-.73-.09-.9-.13c-.9-.26-1.79-.55-2.66-.87a12.08,12.08,0,0,1-2.47-1.22,8.73,8.73,0,0,1-2-1.76,6.27,6.27,0,0,1-1.25-2.5,17.15,17.15,0,0,1-.42-2.53c-.1-1.05-.18-2.13-.22-3.24s-.08-2.2-.1-3.27,0-2,0-2.69c0-1.67,0-3.23.06-4.69a13.29,13.29,0,0,1,.71-4,8.64,8.64,0,0,1,2.08-3.27,12.23,12.23,0,0,1,4.14-2.54,14.27,14.27,0,0,1,3.65-.8q2.44-.29,5.1-.45c1.78-.1,3.48-.18,5.1-.22s2.89-.07,3.78-.07q4.5,0,9,.2t8.94.51c.13,1.07.24,2.13.32,3.17S895.77,471.67,895.77,472.69Z"/><path d="M944,471.15l-16.49,11.93c.13.51.39,1.34.77,2.47s.82,2.31,1.29,3.53,1,2.35,1.5,3.4a5.36,5.36,0,0,0,1.51,2,3.72,3.72,0,0,0,1.15.51c.48.13,1,.23,1.45.32a10.49,10.49,0,0,0,1.47.16l1.25,0q.9,0,1.86-.06c.64,0,1.26-.11,1.86-.19-.08.55-.15,1.12-.19,1.7s-.06,1.16-.06,1.76c0,1,0,2,.06,3.08s.06,2,.06,3c-.3,0-.82.1-1.57.16s-1.6.13-2.56.19l-3.05.23-3,.22c-.92.07-1.71.1-2.37.1a3.44,3.44,0,0,1-1.25-.13c-.73-.34-1.44-.71-2.12-1.09a5.17,5.17,0,0,1-1.73-1.6,14,14,0,0,1-1.06-2.44c-.49-1.33-1-2.78-1.54-4.36s-1-3.06-1.47-4.42-.74-2.25-.87-2.63l-6.15,4v11.16l-12.7,1.09q.39-9,.83-17.86t.45-17.92c0-1.84,0-3.66,0-5.45s-.05-3.64-.1-5.52a35.05,35.05,0,0,0,5.23.64c1.73.09,3.47.22,5.23.39v24q5-3.07,9.78-6.28a99,99,0,0,0,9.26-7.06q3.4.39,6.64.58Z"/><path d="M960.54,457.18c0,1.11-.1,2.33-.16,3.65s-.14,2.67-.23,4-.2,2.7-.35,4-.33,2.51-.54,3.62q-1,4.81-2,9.49c-.66,3.12-1.31,6.29-2,9.49l-7.05.64L946.69,476c-.3-2.9-.52-5.82-.64-8.75s-.28-5.87-.45-8.82Zm-1.16,44.18a4,4,0,0,1-.67,2.15,8.19,8.19,0,0,1-1.7,1.89,8.55,8.55,0,0,1-2.24,1.31,6.2,6.2,0,0,1-2.25.48,6.56,6.56,0,0,1-2-.35,7.5,7.5,0,0,1-1.92-1,5,5,0,0,1-1.41-1.51,3.81,3.81,0,0,1-.55-2.05,3.63,3.63,0,0,1,.74-2.21,6.68,6.68,0,0,1,1.8-1.67,8.69,8.69,0,0,1,2.3-1,8.92,8.92,0,0,1,2.34-.35,6.4,6.4,0,0,1,3.24.83,5.08,5.08,0,0,1,2.15,2.51,1.43,1.43,0,0,1,.16.48A3.64,3.64,0,0,1,959.38,501.36Z"/><path d="M483.09,108.9l-6.47,103.27-32.08,1.41.28-54.45L430.33,203H418l-11.12-39.25-.14,45.58-32.5,1,1.41-97.23,36.15-1.4,14.36,46.57,19.13-49.39Z"/><path d="M574.26,161.81a50.73,50.73,0,0,1-1.48,12.34,48.07,48.07,0,0,1-4.25,11.15,46.35,46.35,0,0,1-6.76,9.53,43.29,43.29,0,0,1-32.11,14,44.25,44.25,0,0,1-12.07-1.62,45.54,45.54,0,0,1-10.72-4.54,42.61,42.61,0,0,1-9-7,43.7,43.7,0,0,1-6.9-9.15,46.71,46.71,0,0,1-4.43-10.8,45,45,0,0,1-1.58-12,49,49,0,0,1,5.73-23.07,47.65,47.65,0,0,1,6.72-9.57,44.31,44.31,0,0,1,8.83-7.52,42.41,42.41,0,0,1,10.58-4.93,40.66,40.66,0,0,1,12-1.76A52.44,52.44,0,0,1,547.42,120,39.45,39.45,0,0,1,571,143.2,50.59,50.59,0,0,1,574.26,161.81ZM543,163.63a20,20,0,0,0-.87-5.87,16.21,16.21,0,0,0-2.57-5.06,13.09,13.09,0,0,0-4.19-3.59,11.65,11.65,0,0,0-5.73-1.37,13.93,13.93,0,0,0-5.91,1.19,13.54,13.54,0,0,0-4.47,3.27,14.47,14.47,0,0,0-2.85,4.86,17.6,17.6,0,0,0-1,5.87,21.53,21.53,0,0,0,.84,5.91,17.69,17.69,0,0,0,2.53,5.35,13.7,13.7,0,0,0,4.19,3.87,11.21,11.21,0,0,0,5.8,1.47,13.23,13.23,0,0,0,6-1.3,13.42,13.42,0,0,0,4.47-3.52,16.19,16.19,0,0,0,2.81-5.1A18.24,18.24,0,0,0,543,163.63Z"/><path d="M666.13,161.81a51.22,51.22,0,0,1-1.47,12.34,48.55,48.55,0,0,1-4.26,11.15,45.93,45.93,0,0,1-6.75,9.53,42.86,42.86,0,0,1-19.74,12.24,43.47,43.47,0,0,1-12.38,1.73,44.13,44.13,0,0,1-12.06-1.62,45.79,45.79,0,0,1-10.73-4.54,43.12,43.12,0,0,1-9-7,43.66,43.66,0,0,1-6.89-9.15,47.18,47.18,0,0,1-4.44-10.8,45.41,45.41,0,0,1-1.58-12A48.46,48.46,0,0,1,589.24,131a44.59,44.59,0,0,1,8.83-7.52,42.31,42.31,0,0,1,10.59-4.93,40.66,40.66,0,0,1,12-1.76A52.48,52.48,0,0,1,639.3,120a39.39,39.39,0,0,1,23.56,23.25A50.59,50.59,0,0,1,666.13,161.81Zm-31.23,1.82a19.69,19.69,0,0,0-.88-5.87,16,16,0,0,0-2.57-5.06,13.05,13.05,0,0,0-4.18-3.59,11.69,11.69,0,0,0-5.74-1.37,14,14,0,0,0-5.91,1.19,13.6,13.6,0,0,0-4.46,3.27,14.15,14.15,0,0,0-2.85,4.86,17.35,17.35,0,0,0-1,5.87,21.17,21.17,0,0,0,.85,5.91,17.46,17.46,0,0,0,2.53,5.35,13.48,13.48,0,0,0,4.19,3.87,11.19,11.19,0,0,0,5.8,1.47,13.22,13.22,0,0,0,5.94-1.3,13.42,13.42,0,0,0,4.47-3.52,15.8,15.8,0,0,0,2.81-5.1A18.25,18.25,0,0,0,634.9,163.63Z"/><path d="M519.09,254.9l-6.47,103.27-32.08,1.41.28-54.45L466.33,349H454l-11.12-39.25-.14,45.58-32.5,1,1.41-97.23,36.15-1.4,14.36,46.57,19.13-49.39Z"/><path d="M610.26,307.81a50.73,50.73,0,0,1-1.48,12.34,48.07,48.07,0,0,1-4.25,11.15,46.35,46.35,0,0,1-6.76,9.53,43.29,43.29,0,0,1-32.11,14,44.25,44.25,0,0,1-12.07-1.62,45.54,45.54,0,0,1-10.72-4.54,42.61,42.61,0,0,1-9-7,43.7,43.7,0,0,1-6.9-9.15,46.71,46.71,0,0,1-4.43-10.8,45,45,0,0,1-1.58-12,49,49,0,0,1,5.73-23.07,47.65,47.65,0,0,1,6.72-9.57,44.31,44.31,0,0,1,8.83-7.52,42.41,42.41,0,0,1,10.58-4.93,40.66,40.66,0,0,1,12-1.76A52.44,52.44,0,0,1,583.42,266,39.45,39.45,0,0,1,607,289.2,50.59,50.59,0,0,1,610.26,307.81ZM579,309.63a20,20,0,0,0-.87-5.87,16.21,16.21,0,0,0-2.57-5.06,13.09,13.09,0,0,0-4.19-3.59,11.65,11.65,0,0,0-5.73-1.37,13.93,13.93,0,0,0-5.91,1.19,13.54,13.54,0,0,0-4.47,3.27,14.47,14.47,0,0,0-2.85,4.86,17.6,17.6,0,0,0-1,5.87,21.53,21.53,0,0,0,.84,5.91,17.69,17.69,0,0,0,2.53,5.35,13.7,13.7,0,0,0,4.19,3.87,11.21,11.21,0,0,0,5.8,1.47,13.23,13.23,0,0,0,6-1.3,13.42,13.42,0,0,0,4.47-3.52,16.19,16.19,0,0,0,2.81-5.1A18.24,18.24,0,0,0,579,309.63Z"/><path d="M702.13,307.81a51.22,51.22,0,0,1-1.47,12.34,48.55,48.55,0,0,1-4.26,11.15,45.93,45.93,0,0,1-6.75,9.53,42.86,42.86,0,0,1-19.74,12.24,43.47,43.47,0,0,1-12.38,1.73,44.13,44.13,0,0,1-12.06-1.62,45.79,45.79,0,0,1-10.73-4.54,43.12,43.12,0,0,1-9-7,43.66,43.66,0,0,1-6.89-9.15,47.18,47.18,0,0,1-4.44-10.8,45.41,45.41,0,0,1-1.58-12A48.46,48.46,0,0,1,625.24,277a44.59,44.59,0,0,1,8.83-7.52,42.31,42.31,0,0,1,10.59-4.93,40.66,40.66,0,0,1,12-1.76A52.48,52.48,0,0,1,675.3,266a39.39,39.39,0,0,1,23.56,23.25A50.59,50.59,0,0,1,702.13,307.81Zm-31.23,1.82a19.69,19.69,0,0,0-.88-5.87,16,16,0,0,0-2.57-5.06,13.05,13.05,0,0,0-4.18-3.59,11.69,11.69,0,0,0-5.74-1.37,14,14,0,0,0-5.91,1.19,13.6,13.6,0,0,0-4.46,3.27,14.15,14.15,0,0,0-2.85,4.86,17.35,17.35,0,0,0-1,5.87,21.17,21.17,0,0,0,.85,5.91,17.46,17.46,0,0,0,2.53,5.35,13.48,13.48,0,0,0,4.19,3.87,11.19,11.19,0,0,0,5.8,1.47,13.22,13.22,0,0,0,5.94-1.3,13.42,13.42,0,0,0,4.47-3.52,15.8,15.8,0,0,0,2.81-5.1A18.25,18.25,0,0,0,670.9,309.63Z"/><path d="M467.09,426.9l-6.47,103.27-32.08,1.41.28-54.45L414.33,521H402l-11.12-39.25-.14,45.58-32.5,1,1.41-97.23,36.15-1.4,14.36,46.57,19.13-49.39Z"/><path d="M558.26,479.81a50.73,50.73,0,0,1-1.48,12.34,48.07,48.07,0,0,1-4.25,11.15,46.35,46.35,0,0,1-6.76,9.53,43.29,43.29,0,0,1-32.11,14,44.25,44.25,0,0,1-12.07-1.62,45.54,45.54,0,0,1-10.72-4.54,42.61,42.61,0,0,1-9-7,43.7,43.7,0,0,1-6.9-9.15,46.71,46.71,0,0,1-4.43-10.8,45,45,0,0,1-1.58-12,49,49,0,0,1,5.73-23.07,47.65,47.65,0,0,1,6.72-9.57,44.31,44.31,0,0,1,8.83-7.52,42.41,42.41,0,0,1,10.58-4.93,40.66,40.66,0,0,1,12-1.76A52.44,52.44,0,0,1,531.42,438,39.45,39.45,0,0,1,555,461.2,50.59,50.59,0,0,1,558.26,479.81ZM527,481.63a20,20,0,0,0-.87-5.87,16.21,16.21,0,0,0-2.57-5.06,13.09,13.09,0,0,0-4.19-3.59,11.65,11.65,0,0,0-5.73-1.37,13.93,13.93,0,0,0-5.91,1.19,13.54,13.54,0,0,0-4.47,3.27,14.47,14.47,0,0,0-2.85,4.86,17.6,17.6,0,0,0-1,5.87,21.53,21.53,0,0,0,.84,5.91,17.69,17.69,0,0,0,2.53,5.35,13.7,13.7,0,0,0,4.19,3.87,11.21,11.21,0,0,0,5.8,1.47,13.23,13.23,0,0,0,6-1.3,13.42,13.42,0,0,0,4.47-3.52,16.19,16.19,0,0,0,2.81-5.1A18.24,18.24,0,0,0,527,481.63Z"/><path d="M650.13,479.81a51.22,51.22,0,0,1-1.47,12.34,48.55,48.55,0,0,1-4.26,11.15,45.93,45.93,0,0,1-6.75,9.53,42.86,42.86,0,0,1-19.74,12.24,43.47,43.47,0,0,1-12.38,1.73,44.13,44.13,0,0,1-12.06-1.62,45.79,45.79,0,0,1-10.73-4.54,43.12,43.12,0,0,1-9-7,43.66,43.66,0,0,1-6.89-9.15,47.18,47.18,0,0,1-4.44-10.8,45.41,45.41,0,0,1-1.58-12A48.46,48.46,0,0,1,573.24,449a44.59,44.59,0,0,1,8.83-7.52,42.31,42.31,0,0,1,10.59-4.93,40.66,40.66,0,0,1,12-1.76A52.48,52.48,0,0,1,623.3,438a39.39,39.39,0,0,1,23.56,23.25A50.59,50.59,0,0,1,650.13,479.81Zm-31.23,1.82a19.69,19.69,0,0,0-.88-5.87,16,16,0,0,0-2.57-5.06,13.05,13.05,0,0,0-4.18-3.59,11.69,11.69,0,0,0-5.74-1.37,14,14,0,0,0-5.91,1.19,13.6,13.6,0,0,0-4.46,3.27,14.15,14.15,0,0,0-2.85,4.86,17.35,17.35,0,0,0-1,5.87,21.17,21.17,0,0,0,.85,5.91,17.46,17.46,0,0,0,2.53,5.35,13.48,13.48,0,0,0,4.19,3.87,11.19,11.19,0,0,0,5.8,1.47,13.22,13.22,0,0,0,5.94-1.3,13.42,13.42,0,0,0,4.47-3.52,15.8,15.8,0,0,0,2.81-5.1A18.25,18.25,0,0,0,618.9,481.63Z"/><path d="M758.31,146.46q0,1.09,0,3.27c0,1.46-.08,3.09-.16,4.91s-.21,3.7-.35,5.64-.36,3.77-.61,5.48a37.73,37.73,0,0,1-.93,4.49,5.22,5.22,0,0,1-1.32,2.57,8.45,8.45,0,0,1-1.5,1c-.62.35-1.27.67-1.93,1s-1.31.56-2,.8-1.22.41-1.74.54q1.23,2.9,2.38,5.68t2.31,5.67L743,189.75c-1.24-1.8-2.41-3.59-3.5-5.39s-2.25-3.57-3.49-5.32a9,9,0,0,1-1,.06h-1c-.72,0-1.8,0-3.23-.13s-3-.21-4.81-.38-3.63-.38-5.55-.64-3.71-.54-5.35-.83a34.94,34.94,0,0,1-4.27-1,5.06,5.06,0,0,1-2.31-1.22,9.29,9.29,0,0,1-1.51-3.62q-.6-2.53-1-5.45t-.58-5.65c-.12-1.81-.19-3.19-.19-4.13s-.06-2.13-.06-3.18v-3.23c0-.82,0-1.86,0-3.15s.1-2.6.22-4a26,26,0,0,1,.65-3.85,6,6,0,0,1,1.34-2.76,5.35,5.35,0,0,1,2.28-1.12,41.79,41.79,0,0,1,4.2-1c1.62-.32,3.38-.6,5.26-.86s3.72-.49,5.51-.71,3.45-.37,5-.48,2.7-.18,3.56-.22c1.24,0,2.48-.08,3.72-.1s2.48,0,3.72,0c1.62,0,3.34,0,5.16.1a20.41,20.41,0,0,1,5.19.83,11.86,11.86,0,0,1,4.36,2.34,8.64,8.64,0,0,1,2.67,4.55,14.43,14.43,0,0,1,.22,1.54c.06.64.11,1.33.13,2.05s0,1.44,0,2.12Zm-13.85,3.72v-.83a9,9,0,0,0-.06-1,4.81,4.81,0,0,0-.23-1,1.89,1.89,0,0,0-.42-.7,2.94,2.94,0,0,0-.89-.45,5.43,5.43,0,0,0-1.25-.26l-1.35-.1-1.06,0c-.6,0-1.53.05-2.79.13s-2.67.21-4.23.39-3.2.37-4.91.6-3.29.51-4.74.81a36,36,0,0,0-3.75,1,3.81,3.81,0,0,0-2,1.09,2,2,0,0,0-.29,1c0,.43,0,.82,0,1.16,0,.85.07,1.92.19,3.2s.3,2.61.52,4,.44,2.69.67,4,.46,2.33.67,3.14q1.55.57,2.76.93a20,20,0,0,0,2.37.54c.77.13,1.57.23,2.41.29s1.8.12,2.92.16l-4-6.41c1.11-.56,2.16-1.09,3.14-1.6s2-1,3-1.41,2-.82,3-1.16,2.19-.66,3.43-1l4.3,8.78a40,40,0,0,0,2-7.53A49.3,49.3,0,0,0,744.46,150.18Z"/><path d="M809.48,176.22l-10.83.45-.77-6.48A12,12,0,0,1,795,173a16.38,16.38,0,0,1-3.66,1.86,19.71,19.71,0,0,1-4,1,28.46,28.46,0,0,1-4.07.29,34.86,34.86,0,0,1-3.81-.25c-1.52-.17-3.06-.42-4.62-.74a27.2,27.2,0,0,1-4.33-1.25,7.18,7.18,0,0,1-2.89-1.8,5.13,5.13,0,0,1-1-2.47A24.94,24.94,0,0,1,766,166c-.09-1.28-.13-2.52-.13-3.72v-2.88q0-4.81.38-9.49t1.09-9.3a35.82,35.82,0,0,1,3.85-.19,24.83,24.83,0,0,1,3.33.22c1.12.15,2.23.33,3.34.55,0,.21,0,.83.06,1.85s.1,2.25.16,3.66.14,2.92.23,4.52.18,3.09.29,4.46.23,2.53.38,3.49.31,1.49.48,1.57a4.46,4.46,0,0,0,2.12.64c.77,0,1.51.07,2.24.07.52,0,1.32,0,2.41-.1s2.21-.17,3.36-.32a29.4,29.4,0,0,0,3.21-.58,4.33,4.33,0,0,0,2-.86,2.59,2.59,0,0,0,.29-1.22c.06-.68.1-1.43.12-2.24s0-1.57.07-2.28,0-1.12,0-1.25c0-1.92,0-3.83-.13-5.71s-.17-3.78-.25-5.7l12.44-.58c.25,3,.49,6,.7,8.94s.49,6,.84,9a29.6,29.6,0,0,1,.22,3c0,1,0,2.05.1,3.08.08,1.92.13,3.85.16,5.77S809.44,174.25,809.48,176.22Z"/><path d="M861.55,150.57q0,5.38-.38,10.71t-.77,10.64q-7.18.65-14.3,1.09t-14.3.45l-2.37,0c-1.16,0-2.38-.07-3.66-.13s-2.5-.15-3.65-.26a6.41,6.41,0,0,1-2.31-.48,6.55,6.55,0,0,1-2.95-2.92,9.18,9.18,0,0,1-.84-4c0-.52,0-1.2.07-2.06s.13-1.75.25-2.69a21.11,21.11,0,0,1,.52-2.63,5,5,0,0,1,.77-1.79,4.89,4.89,0,0,1,2.63-1.32,34.07,34.07,0,0,1,4.9-.86q2.85-.33,6.16-.52c2.2-.13,4.3-.22,6.31-.29s3.81-.09,5.39-.09h3.4a20.12,20.12,0,0,0,.19-2.76V150a2.12,2.12,0,0,0-.06-.67c-.13-.26-.54-.48-1.22-.65a16,16,0,0,0-2.54-.38c-1-.09-2.09-.16-3.27-.23s-2.31-.09-3.43-.09h-4.8q-4,0-8.08.16c-2.7.11-5.39.2-8.08.29.17-1.63.31-3.27.41-4.94a40.76,40.76,0,0,0,0-4.94,93.55,93.55,0,0,1,9.4-1.18c3.14-.24,6.32-.36,9.52-.36,1.16,0,2.42,0,3.78,0s2.74.06,4.11.12,2.72.16,4.07.29,2.6.3,3.75.51a14.24,14.24,0,0,1,3.56,1.16,16.54,16.54,0,0,1,3.3,2,14.27,14.27,0,0,1,2.7,2.79,10.49,10.49,0,0,1,1.66,3.37,2.42,2.42,0,0,1,.1.64q0,.45,0,1v1.64Zm-14.3,15.07v-8.21c-1.24,0-2.48-.08-3.72-.1s-2.48,0-3.72,0l-2.15,0c-1.17,0-2.43.08-3.78.16s-2.57.2-3.69.32-1.75.32-1.92.58a3.18,3.18,0,0,0-.42,1.06,6.86,6.86,0,0,0-.09,1.12c0,.3,0,.71.06,1.22a13.7,13.7,0,0,0,.23,1.6c.1.56.22,1.07.35,1.54a2.41,2.41,0,0,0,.51,1,1.63,1.63,0,0,0,.87.48,9.53,9.53,0,0,0,1.31.25,13.43,13.43,0,0,0,1.41.13l1.09,0c1,0,2.13-.05,3.31-.13s2.37-.18,3.59-.29,2.4-.24,3.56-.39Z"/><path d="M909.77,145.69a20.87,20.87,0,0,1-.77,5.71c-.3,0-1.18.1-2.66.16l-5.26.26c-2,.11-4.21.23-6.54.38s-4.49.31-6.47.48-3.68.36-5.07.55a6.56,6.56,0,0,0-2.34.54,5.71,5.71,0,0,0-1.54,2.18,6.92,6.92,0,0,0-.51,2.57,3.41,3.41,0,0,0,.16,1.19,4,4,0,0,0,.54.92,3,3,0,0,0,1.35.33c.77.08,1.63.15,2.57.19l2.62.09,1.42,0q4.61,0,9.23-.2t9.23-.51l.52,11q-6.42.51-12.86,1t-12.92.48h-.93l-1.32,0c-.47,0-.92,0-1.34-.09s-.73-.09-.9-.13c-.9-.26-1.79-.55-2.66-.87a12.08,12.08,0,0,1-2.47-1.22,8.73,8.73,0,0,1-2-1.76,6.27,6.27,0,0,1-1.25-2.5,17.15,17.15,0,0,1-.42-2.53c-.1-1.05-.18-2.13-.22-3.24s-.08-2.2-.1-3.27,0-2,0-2.69c0-1.67,0-3.23.06-4.69a13.29,13.29,0,0,1,.71-4,8.64,8.64,0,0,1,2.08-3.27,12.23,12.23,0,0,1,4.14-2.54,14.27,14.27,0,0,1,3.65-.8q2.44-.28,5.1-.45c1.78-.1,3.48-.18,5.1-.22s2.89-.07,3.78-.07q4.5,0,9,.2t8.94.51c.13,1.07.24,2.13.32,3.17S909.77,144.67,909.77,145.69Z"/><path d="M958,144.15l-16.49,11.93c.13.51.39,1.34.77,2.47s.82,2.31,1.29,3.53,1,2.35,1.5,3.4a5.36,5.36,0,0,0,1.51,2,3.72,3.72,0,0,0,1.15.51c.48.13,1,.23,1.45.32a10.49,10.49,0,0,0,1.47.16l1.25,0q.9,0,1.86-.06c.64,0,1.26-.11,1.86-.19-.08.55-.15,1.12-.19,1.7s-.06,1.16-.06,1.76c0,1,0,2.05.06,3.08s.06,2,.06,3c-.3,0-.82.1-1.57.16s-1.6.13-2.56.19l-3.05.23-3,.22c-.92.07-1.71.1-2.37.1a3.44,3.44,0,0,1-1.25-.13c-.73-.34-1.44-.71-2.12-1.09a5.17,5.17,0,0,1-1.73-1.6,14,14,0,0,1-1.06-2.44c-.49-1.33-1-2.78-1.54-4.36s-1-3.06-1.47-4.42-.74-2.25-.87-2.63l-6.15,4v11.16l-12.7,1.09q.39-9,.83-17.86t.45-17.92c0-1.84,0-3.66,0-5.45s-.05-3.64-.1-5.52a35.05,35.05,0,0,0,5.23.64c1.73.09,3.47.22,5.23.39v24q5-3.08,9.78-6.28a99,99,0,0,0,9.26-7.06q3.4.39,6.64.58Z"/><path d="M974.54,130.18c0,1.11-.1,2.33-.16,3.65s-.14,2.67-.23,4-.2,2.7-.35,4-.33,2.51-.54,3.62q-1,4.81-2,9.49c-.66,3.12-1.31,6.29-2,9.49l-7.05.64L960.69,149c-.3-2.9-.52-5.82-.64-8.75s-.28-5.87-.45-8.82Zm-1.16,44.18a4,4,0,0,1-.67,2.15,8.19,8.19,0,0,1-1.7,1.89,8.55,8.55,0,0,1-2.24,1.31,6.2,6.2,0,0,1-2.25.48,6.56,6.56,0,0,1-2-.35,7.5,7.5,0,0,1-1.92-1,5,5,0,0,1-1.41-1.51,3.81,3.81,0,0,1-.55-2.05,3.63,3.63,0,0,1,.74-2.21,6.68,6.68,0,0,1,1.8-1.67,8.69,8.69,0,0,1,2.3-1,8.92,8.92,0,0,1,2.34-.35,6.4,6.4,0,0,1,3.24.83,5.08,5.08,0,0,1,2.15,2.51,1.43,1.43,0,0,1,.16.48A3.64,3.64,0,0,1,973.38,174.36Z"/><path d="M1094.1,485.17q0,20.79-10.52,31.56T1052.4,527.5h-23.55V443.09h23.55q20.67,0,31.18,10.65T1094.1,485.17Zm-9.51,0a47.86,47.86,0,0,0-2.13-15.21,25.84,25.84,0,0,0-6.2-10.34,24.59,24.59,0,0,0-10.08-5.88,46,46,0,0,0-13.78-1.88h-14v66.88h14a46.29,46.29,0,0,0,13.78-1.88,24.28,24.28,0,0,0,10.08-5.95,26.25,26.25,0,0,0,6.2-10.46A48.53,48.53,0,0,0,1084.59,485.17Z"/><path d="M1108.13,448.22a6.61,6.61,0,0,1,1.63-4.5,7,7,0,0,1,9.58,0,6.82,6.82,0,0,1,1.57,4.5,6.59,6.59,0,0,1-1.57,4.45,7.21,7.21,0,0,1-9.58,0A6.4,6.4,0,0,1,1108.13,448.22Zm11,79.28h-9.27V467h9.27Z"/><path d="M1148,527.5h-9.27V467h7.51l1.76,9.77a32.31,32.31,0,0,1,3.44-3.69,24.71,24.71,0,0,1,4.82-3.51,32.3,32.3,0,0,1,6.08-2.63,23.42,23.42,0,0,1,7.2-1.07q9.64,0,15.09,6.27t5.45,17.4V527.5h-9.15V489.55q0-7.12-3.44-11.27a11.67,11.67,0,0,0-9.45-4.13,21.77,21.77,0,0,0-11.59,3.19,28.15,28.15,0,0,0-8.45,7.83Z"/><path d="M1249.9,516a22.16,22.16,0,0,1-7.7,8.33,21.13,21.13,0,0,1-12,3.44,25.22,25.22,0,0,1-10.15-2,21.53,21.53,0,0,1-7.95-5.89,28,28,0,0,1-5.2-9.7,43.55,43.55,0,0,1-1.87-13.34,40.69,40.69,0,0,1,1.75-12.15,29.49,29.49,0,0,1,5.13-9.83,23.73,23.73,0,0,1,19-9,19.33,19.33,0,0,1,6.51,1.07,23.15,23.15,0,0,1,9.46,6.14,26,26,0,0,1,2.94,3.69l1.63-9.77h7.64v56a40.17,40.17,0,0,1-2,13.47,24,24,0,0,1-5.64,9.14,22.29,22.29,0,0,1-8.7,5.26,35.25,35.25,0,0,1-11.21,1.69,44.54,44.54,0,0,1-12.4-1.69,39.06,39.06,0,0,1-9.39-3.82l2.25-7.51a35,35,0,0,0,8.39,3.44,37.78,37.78,0,0,0,10.15,1.32,31,31,0,0,0,7.82-.94,13.55,13.55,0,0,0,6.08-3.38,16.72,16.72,0,0,0,3.94-6.58,32.47,32.47,0,0,0,1.44-10.52Zm0-30.56a25.51,25.51,0,0,0-7.57-7.95,17.64,17.64,0,0,0-23,2.38q-5.25,5.56-5.26,17a33.32,33.32,0,0,0,1.44,10.46,19.36,19.36,0,0,0,3.89,7,14.79,14.79,0,0,0,5.57,3.94,17.3,17.3,0,0,0,6.51,1.26,16.83,16.83,0,0,0,13.34-6.2,21.14,21.14,0,0,0,3.76-6.89,27.17,27.17,0,0,0,1.31-8.58Z"/><path d="M1464.34,770.61l88.58-53.75c21-12.74,45.19-27.57,53.55-52.1,2.64-7.72,3-15.81,2.86-23.9-.12-8.91-.56-18,2.32-26.54l-2.51.66a50.47,50.47,0,0,1,12.61,47.29,1.51,1.51,0,0,0,2.51,1.46,245.47,245.47,0,0,0,35.3-42.46l-2.74-.36a49,49,0,0,1-7.29,41.25,45.81,45.81,0,0,1-8.39,9,1.51,1.51,0,0,0,.67,2.51c7,1.77,14.33,1.14,21.52,1.4,6.51.24,13.41,1.45,18,6.46a19.77,19.77,0,0,1,4.82,15.65,17,17,0,0,1-9.79,13.21,19,19,0,0,1-18.28-.89l.54,2.06c2.49-4.75,1.2-10.24-2-14.32-3.8-4.84-9.83-6.69-15.81-6.73a48.72,48.72,0,0,0-9.85,1.09c-2.83.57-5.77,1.24-8,3.15-4,3.42-3.37,9.51-.49,13.44,4.23,5.78,12,6.25,18.6,6.34l-1.29-2.25c-5.73,10-19.93,12.69-29.82,7.61a18.88,18.88,0,0,1-7.1-6.23,1.52,1.52,0,0,0-2.59,0,802.6,802.6,0,0,0-76.53,144.55q-8.67,21.36-16.1,43.2c-.62,1.83,2.28,2.61,2.9.79a800.92,800.92,0,0,1,68-148.2q11.63-19.76,24.36-38.83h-2.59c7.36,11,23.62,13.09,34.55,6.36a21.87,21.87,0,0,0,7.55-7.74,1.52,1.52,0,0,0-1.3-2.26c-4.85-.06-10.64-.12-14.58-3.38-2.78-2.3-4.83-7.23-2.28-10.42,1.52-1.9,4.13-2.5,6.39-3a51.44,51.44,0,0,1,8-1.17c4.94-.29,10.44.41,14.22,3.92,3.34,3.1,5.51,8.22,3.24,12.55a1.53,1.53,0,0,0,.54,2.05c11,7,27.29,1.95,31.61-10.51a22.65,22.65,0,0,0-2-18.4c-3.61-6.25-10-9.58-17-10.59-8.84-1.29-17.93.38-26.66-1.82l.67,2.51c11.79-9.71,18.51-25,18.33-40.21a49.12,49.12,0,0,0-1.89-12.93,1.52,1.52,0,0,0-2.74-.36,241.89,241.89,0,0,1-34.83,41.84l2.5,1.46a53.53,53.53,0,0,0-13.38-50.2,1.51,1.51,0,0,0-2.5.66c-5,14.82-.31,30.64-3.81,45.67-2.8,12-10.16,22.12-19,30.46-9.34,8.83-20.2,15.87-31.13,22.54q-21.36,13-42.79,26L1462.83,768a1.5,1.5,0,0,0,1.51,2.59Z"/><path d="M1648.91,720.13c.43-1.36.09-2.63,0-4-.08-1.62,1.3-.81,1.9.06.87,1.27,1.11,2.86,2,4.11a6.46,6.46,0,0,0,3.94,2.44,19.56,19.56,0,0,0,4.52.26c1.94,0,3.88,0,5.82.14a42.39,42.39,0,0,1,11,2.25,28.71,28.71,0,0,1,15,11.62c3.2,5.23,4,11.46,4.72,17.43.72,5.73,1.41,11.66,4.16,16.83,2.93,5.49,8.06,8.92,13.9,10.71,6.11,1.87,12.55,2.15,18.82,3.19a108,108,0,0,1,22.32,6.17c1.75.69,3.48,1.42,5.19,2.22.13.06.9.32,1,.49-.11-.23-.38.7-.38.69-.31.84-.66,1.66-1,2.47a43.84,43.84,0,0,1-5,8.15,57.38,57.38,0,0,1-14,12.66c-12.41,8.12-26.92,12-40.94,16.34-14.74,4.54-29.51,10-45,11.26-1.86.15-3.73.23-5.6.24a3.69,3.69,0,0,1-1.24,0c-.51-.23,0,.3-.21-.23a4.53,4.53,0,0,1-.06-1.33q0-.88,0-1.77a41.51,41.51,0,0,1,1.67-11,48,48,0,0,1,4.46-10.11,35.37,35.37,0,0,0,4.19-9.55,46.38,46.38,0,0,0,.59-11.35c-.1-3.49-.3-7.09-1.6-10.36-2.55-6.43-9.17-9.44-13.58-14.38a34.63,34.63,0,0,1-5.57-37.29,35,35,0,0,1,5.33-8.25c1.26-1.45-.85-3.58-2.12-2.12a37.76,37.76,0,0,0-6.26,39.62,38.38,38.38,0,0,0,5.34,8.8,47,47,0,0,0,7.54,7.1c2.72,2.18,5.43,4.52,6.64,7.9s1.25,7.3,1.33,11c.08,4,0,8-1.52,11.73-1.42,3.53-3.65,6.67-5.25,10.11a44.39,44.39,0,0,0-3.47,10.9,45.35,45.35,0,0,0-.67,5.68,20.45,20.45,0,0,0,.13,5.69c.42,1.63,1.87,2.15,3.4,2.2,2,0,4.06-.07,6.07-.21a102.45,102.45,0,0,0,12-1.64,216.74,216.74,0,0,0,23.59-6.38c7.67-2.42,15.37-4.74,23-7.17a144.76,144.76,0,0,0,22.07-8.65c12-6.09,23-15.38,28.25-28,.59-1.43,1.43-3.13.36-4.54s-3.14-1.88-4.61-2.51a112,112,0,0,0-11.24-4.13,136.4,136.4,0,0,0-22.64-4.49c-6.21-.81-13.12-1.82-18.11-5.94s-6.57-10.08-7.51-16.08c-1-6.21-1.24-12.62-3.4-18.59a29.09,29.09,0,0,0-12.53-14.91c-6.51-3.94-14.22-5.49-21.76-5.61-3,0-7.42,1-9-2.33-.7-1.44-1.08-3-2.3-4.14a4.55,4.55,0,0,0-4-1.27,3.37,3.37,0,0,0-2.5,2.86c-.21,1.4.46,2.86,0,4.22-.59,1.85,2.31,2.64,2.89.8Z"/><path d="M1726.4,715.29a47.59,47.59,0,0,0,36.27,42.8c6.68,1.64,13.57,2.15,20.41,2.65,1.93.14,1.92-2.86,0-3-11-.8-22.32-1.73-32-7.47a45.42,45.42,0,0,1-17.87-20,42.64,42.64,0,0,1-3.83-15c-.12-1.92-3.13-1.93-3,0Z"/><path d="M1609.59,783.9c4,6.75,4.72,14.88,3.3,22.49-1.51,8.07-5.32,15.42-9.79,22.23-2.64,4-5.51,7.88-8.38,11.74-1.16,1.54,1.44,3,2.59,1.51,10.06-13.49,20.94-28.75,19-46.52a31.94,31.94,0,0,0-4.18-13,1.5,1.5,0,0,0-2.59,1.51Z"/><path d="M1747.19,712.12c1.91,7.38,5.39,14.51,10.81,20a29.31,29.31,0,0,0,20.33,8.84,23.56,23.56,0,0,0,12.11-3.12,1.5,1.5,0,0,0-1.52-2.59c-6,3.48-13.32,3.4-19.66.9s-11.5-7.83-14.86-13.81a45.32,45.32,0,0,1-4.32-11c-.48-1.86-3.38-1.07-2.89.8Z"/><path d="M1587.21,793.8a51.64,51.64,0,0,1-17.79,34c-1.47,1.26.66,3.37,2.12,2.12a54.64,54.64,0,0,0,18.67-36.1c.19-1.92-2.81-1.91-3,0Z"/><path d="M912.05,684.9a143.08,143.08,0,0,1-62.15-66.08l-2,2,33.59,23.9,16.63,11.84c4.84,3.44,9.87,7.88,15.83,9.16,5.76,1.23,11.23-1.19,16-4.18a101.13,101.13,0,0,0,13.92-10.73c8.8-7.88,16.83-16.75,26.67-23.39,9.37-6.33,21.42-11.48,32.91-8.68,9.32,2.27,18.31,10.26,19.54,20.12,1.44,11.46-9,18.77-16.56,25.44a172.69,172.69,0,0,0-52,84.42c-3.14,11.83-5.28,24.5-2.5,36.61A46.36,46.36,0,0,0,966,809c14,12.75,33.08,18.5,50.85,23.61,22.25,6.39,44.11,13.6,65.38,22.78a486.57,486.57,0,0,1,62.89,32.74,480.9,480.9,0,0,1,57.67,41.72q6.59,5.57,13,11.35l1.06-2.56L1088,930.39l-64.23-4.12c-20.71-1.34-41.42-2.77-62-5.23-20.37-2.43-40.69-5.86-60.49-11.28-16.71-4.57-34-11.4-44.71-25.69-18.3-24.3-14-60.09,1.72-84.5,8.58-13.31,20-24.51,30.06-36.67,9.21-11.16,18-23.64,20.57-38.2a51.78,51.78,0,0,0,.72-10.69,1.56,1.56,0,0,0-1.1-1.45l-88.23-25.68-.4,3a325,325,0,0,1,84.38,3.5c1.89.33,2.7-2.56.8-2.89a328.08,328.08,0,0,0-85.18-3.61,1.51,1.51,0,0,0-.4,2.95l88.23,25.67-1.1-1.44c.57,15.54-6.84,29.26-16,41.28-9.6,12.55-20.94,23.66-30.4,36.33-17.77,23.79-25.31,57.83-11.54,85.36,7.54,15.07,21.23,24.77,36.64,30.76a200.11,200.11,0,0,0,27.26,8c10.26,2.38,20.63,4.3,31,5.89,42,6.41,84.67,8,127,10.69L1201,940.65l15.81,1a1.51,1.51,0,0,0,1.06-2.56,487.47,487.47,0,0,0-183-104.33c-19-5.86-39-9.94-56.23-20.17-7.78-4.61-14.83-10.65-19.4-18.54-6.12-10.58-6.57-23-4.59-34.79,3.78-22.54,13.35-44.37,26.12-63.23A168.52,168.52,0,0,1,1002.64,672c4-3.91,8.33-7.46,12.49-11.21,3.78-3.42,7.38-7.25,9.39-12,3.79-9,.12-18.85-6.71-25.32-7.67-7.25-17.89-9.55-28.12-7.61-24.19,4.57-38.27,26.86-57.06,40.38-4.77,3.43-10.64,7.56-16.82,6.87s-11.65-5.78-16.54-9.26l-33.59-23.9-16.32-11.61c-1.35-1-2.61.84-2.05,2.05a147,147,0,0,0,45.58,55.95,144.78,144.78,0,0,0,17.64,11.21c1.7.92,3.22-1.67,1.52-2.59Z"/><path d="M975.49,931.69l-42.1,41.93-12,12c-1.37,1.36.76,3.48,2.13,2.12l42.1-41.93,12-12a1.5,1.5,0,0,0-2.12-2.12Z"/><path d="M958.8,651.92c2.25-4.91,5.83-12.26,12.38-11.45,7.67.95,10.32,9.68,12.1,15.93a1.5,1.5,0,0,0,2.89-.8c-2.14-7.55-5.57-17-14.61-18.08-8-1-12.52,6.7-15.35,12.89-.8,1.74,1.78,3.27,2.59,1.51Z"/><path class="cls-4" d="M358.39,660.36c4.88-19.32-11.16-36.07-25.15-46.82-8.26-6.35-17.2-12-27.14-15.29-10.35-3.46-21.36-4.38-32.2-4.78-16.89-.62-39.29-2.3-48.71,15.15-3.85,7.15-4.47,15.52-4.66,23.49-.21,8.53.23,17.23-1.49,25.65A60.86,60.86,0,0,1,213.79,672c-2.34,4.83-4.71,9.64-6.78,14.6A181.3,181.3,0,0,0,197.09,718c-2.25,10.29-3.89,21-2.54,31.55a45.57,45.57,0,0,0,11.54,25.3c13.51,14.77,34.16,19.54,53.51,17.64A109.07,109.07,0,0,0,309,774.58a123.66,123.66,0,0,0,35.24-35.76,116.26,116.26,0,0,0,17.71-46.59A110.29,110.29,0,0,0,363,679.92c0-1.93-3-1.93-3,0a109.57,109.57,0,0,1-12.13,46.58,121.51,121.51,0,0,1-30.14,37.83,110.86,110.86,0,0,1-42.48,22.3c-18.62,4.94-39.77,5.16-56.61-5.3a45.93,45.93,0,0,1-17.22-18.58c-4.42-9.06-4.9-19.44-3.88-29.31a155.21,155.21,0,0,1,6.71-30.55,217.72,217.72,0,0,1,12.15-29.35,66,66,0,0,0,5.33-13.95,70.72,70.72,0,0,0,1.52-12.13c.41-8.17-.09-16.41.88-24.55.89-7.57,3.51-15,9.55-19.95,6.72-5.53,16-6.59,24.34-6.76,4.75-.1,9.51.06,14.26.22,5.36.17,10.72.45,16,1.07a78.07,78.07,0,0,1,29.33,9.19,110.59,110.59,0,0,1,23.53,17.6c6.39,6.31,12.24,13.93,14.37,22.81a25.91,25.91,0,0,1,0,12.47c-.47,1.88,2.42,2.67,2.9.8Z"/><path class="cls-4" d="M243.72,627.59a12.52,12.52,0,0,1-.53-12.34c1.95-3.84,6.83-7.62,11.14-5,3.53,2.13,5,7,5,10.93,0,5.39-2,11.33-7.13,13.87a8,8,0,0,1-7.87-.12,6.46,6.46,0,0,1-3.07-6.44c.39-1.89-2.5-2.69-2.89-.8-1.29,6.38,4.61,11.94,10.86,11.28,7.05-.75,11.59-7,12.71-13.56,1-5.64.06-12.35-4.34-16.45-4.76-4.43-11.61-2.45-15.35,2.3-4,5-4.61,12.44-1.08,17.84,1.05,1.61,3.65.11,2.59-1.51Z"/><path class="cls-4" d="M334.13,704.58a35,35,0,0,1-12.79-15.32c-.45-1.06-1.48-3.2-.25-4.08,1.07-.76,2.78-.24,3.87.17a13.85,13.85,0,0,1,6.29,5.29A45.09,45.09,0,0,1,336,699.9,1.54,1.54,0,0,0,337.8,701a1.5,1.5,0,0,0,1.05-1.84c-2.62-6.54-6-14.05-13.09-16.66a7.83,7.83,0,0,0-5.33-.26,4.42,4.42,0,0,0-2.89,4.34,14.9,14.9,0,0,0,1.94,5.83,36.42,36.42,0,0,0,3.19,5.29,38.79,38.79,0,0,0,9.94,9.52c1.62,1.07,3.12-1.53,1.52-2.59Z"/><path class="cls-4" d="M335.32,665.83a44.3,44.3,0,0,1-5.84-8.93c-1.28-2.58-3-5.85-.71-8.38a6.72,6.72,0,0,1,7.06-1.78,12.45,12.45,0,0,1,6.45,5.77c2.08,3.52,3.05,7.56,4.48,11.35.67,1.79,3.57,1,2.89-.79C347,655.93,345,646.85,336.93,644a9.74,9.74,0,0,0-9.67,1.85,7.64,7.64,0,0,0-2.48,4,9.57,9.57,0,0,0,.83,5.74A47.5,47.5,0,0,0,333.2,668c1.25,1.47,3.36-.66,2.12-2.12Z"/><path class="cls-4" d="M379.29,666.62a114,114,0,0,0,41.83,42.62c19.1,11.16,41.11,16,63,17a253.57,253.57,0,0,0,34-.85c5.81-.51,11.67-1.22,17.5-.65a30.7,30.7,0,0,1,15.3,6.09,84.3,84.3,0,0,1,11.61,10.82,129.61,129.61,0,0,1,9.58,11.6,137.71,137.71,0,0,1,15,26.17,136.23,136.23,0,0,1,11.38,59c-.35,10.37-1.35,21.74-6.72,30.86-4.89,8.31-13.36,13.5-22.29,16.56-10,3.42-20.65,4.67-31.12,5.23a195.38,195.38,0,0,1-34.95-1.41c-23.64-3-46.7-9.77-69-18.07-10.6-3.95-21.16-8.14-31.4-13-9.83-4.62-19.44-9.93-28-16.72S359.79,827,353.63,818.28c-6.05-8.6-11.53-17.61-17.88-26a116.25,116.25,0,0,0-10-11.7c-1.36-1.37-3.48.75-2.12,2.13C338.79,798,347.76,818.17,362.27,834c15,16.38,35.38,26,55.59,34.23,22.34,9.13,45.33,17,69.05,21.68,23,4.51,46.92,6,70.1,2,9.41-1.62,19-4.46,26.88-10a37.11,37.11,0,0,0,9.74-10,44.84,44.84,0,0,0,5.91-15.45,119.6,119.6,0,0,0,1.76-31.15A140.58,140.58,0,0,0,567,742.12c-6.82-7.75-14.84-16.25-25-19.21-5.76-1.68-11.85-1.52-17.77-1-5.76.46-11.5,1-17.27,1.31-22.8,1.13-46.15-.52-67.68-8.62a110.61,110.61,0,0,1-49.31-37,112.13,112.13,0,0,1-8.05-12.42c-.94-1.68-3.53-.17-2.59,1.52Z"/><path class="cls-4" d="M426.84,782.09c6.84,2.09,14,4.38,19.69,8.93a21.52,21.52,0,0,1,6.37,8.15c1.54,3.56,2.09,7.47,2.91,11.23.91,4.16,2.21,8.19,5,11.5,1.24,1.48,3.35-.65,2.12-2.12-2.5-3-3.49-6.82-4.29-10.55s-1.47-7.76-3.05-11.4c-3-6.87-9.27-11.35-15.92-14.31a104.12,104.12,0,0,0-12-4.32c-1.85-.57-2.64,2.33-.8,2.89Z"/><path class="cls-4" d="M429.93,761.93a52.25,52.25,0,0,0,35.74-16.17c1.33-1.4-.79-3.53-2.12-2.12a49.21,49.21,0,0,1-33.62,15.29c-1.93.07-1.94,3.07,0,3Z"/><path class="cls-4" d="M495.37,726.88A70,70,0,0,1,501.22,697a68.35,68.35,0,0,1,3.53-6.93c.57-1,1.18-2,1.8-2.95s1.23-2,2.51-1.15c3.4,2.28,4.65,7.26,4.86,11.08.26,5-.78,9.89-2,14.66a1.5,1.5,0,0,0,2.9.79c2.36-8.89,4.47-20.72-2.82-28-1.9-1.9-4.76-2.79-6.79-.54a35.31,35.31,0,0,0-4.47,7.23,73.14,73.14,0,0,0-8.32,35.73c.05,1.93,3.05,1.94,3,0Z"/><path class="cls-4" d="M467.12,893.09q-10.19,8.53-20,17.53c-1.56,1.45-3.22,2.85-4.68,4.4a5.65,5.65,0,0,0-1.8,4.51,8.52,8.52,0,0,0,2.51,4.5,36.71,36.71,0,0,0,4.08,3.9A39.16,39.16,0,0,0,467,936.68c6,.74,13.43-.76,16-7,1.68-4,.78-8.61-.14-12.72a80.69,80.69,0,0,0-4.56-14.06,1.49,1.49,0,0,0-2.05-.54,1.54,1.54,0,0,0-.54,2.05,77,77,0,0,1,3.77,11.28c.84,3.33,1.8,7,1.38,10.43-.76,6.26-7.08,8-12.51,7.65-6.21-.41-12.4-3.15-17.41-6.76a35.72,35.72,0,0,1-3.72-3.12,17,17,0,0,1-3.18-3.59c-.9-1.56-.13-2.59,1-3.72,1.35-1.32,2.76-2.59,4.15-3.87q9.78-9,20-17.54c1.48-1.24-.65-3.35-2.13-2.12Z"/><path d="M228.88,572.61a211.86,211.86,0,0,0-13.45-46.68c-2.87-6.87-5.85-14-10-20.18-3.62-5.41-8.62-10.18-15.32-11.09-7.62-1-15.06,2.8-21.27,6.8-2.81,1.8-5.57,4-6.91,7.12a8.46,8.46,0,0,0,.77,8,6.22,6.22,0,0,0,8.07,2,15.82,15.82,0,0,0,6.8-7c3.29-6.26,3.12-13.59,1.17-20.23-2.3-7.87-6.48-15.21-10.06-22.54l-11.52-23.6-2.83-5.79c-.85-1.74-3.43-.22-2.59,1.51,6.9,14.13,14,28.18,20.68,42.43,2.88,6.2,5.42,13,4.6,19.93a19.23,19.23,0,0,1-2.86,8.17c-1.37,2.1-4.29,5.42-7.12,4.82-2.25-.49-3.07-3.47-2.69-5.44.58-2.92,3.34-5,5.68-6.53,5.57-3.65,12.35-7.43,19.25-6.7,6,.63,10.48,5.06,13.66,9.87,3.73,5.62,6.48,12,9.12,18.17A210.56,210.56,0,0,1,226,573.41c.32,1.9,3.21,1.09,2.89-.8Z"/><path d="M828.22,625.24q-19.71-20.21-37.68-42-5.13-6.21-10.11-12.56a1.51,1.51,0,0,0-2.56,1.06,183.55,183.55,0,0,0,7.75,34l1.85-1.84a152.33,152.33,0,0,1-20-4.5,1.52,1.52,0,0,0-1.85,1.84,27,27,0,0,0,10.6,17.49l.75-2.8q-18.25,1.56-36.54,3a1.51,1.51,0,0,0-.4,2.94l13.36,5.58a46.3,46.3,0,0,1,6.27,2.67c1.67,1-.55,2.23-1.57,2.7-1.83.84-3.8,1.42-5.66,2.2s-3.84,1.65-5.72,2.56a103.18,103.18,0,0,0-11,6.18,108.43,108.43,0,0,0-11.48,8.54c-1.07.91-.12,2.47,1.06,2.56l62.57,4.38c1.92.14,1.91-2.86,0-3l-62.57-4.38,1.06,2.56A103.38,103.38,0,0,1,750,639.38c2.12-1,4.28-1.88,6.46-2.7,1.89-.71,3.83-1.29,5.36-2.67a3.86,3.86,0,0,0,1.08-4.75c-1-1.85-3.44-2.46-5.25-3.21l-16.82-7-.4,3q18.29-1.46,36.54-3a1.51,1.51,0,0,0,.76-2.79,24,24,0,0,1-9.22-15.7l-1.84,1.85a152.33,152.33,0,0,0,20,4.5c1,.16,2.24-.65,1.85-1.84a178.82,178.82,0,0,1-7.65-33.24l-2.56,1.06Q795.74,595,815,615.69q5.49,5.89,11.12,11.67c1.35,1.39,3.47-.74,2.12-2.12Z"/><path d="M1538.7,193.85c-.82-4.58-6.22-6.69-10.31-5.25-4.67,1.64-7.85,6.49-8.77,11.19s.19,10,4.2,12.92c3.28,2.43,8.18,3.1,11.69.75,4.25-2.84,4.62-8.35,4.81-13l.78-19.34c.5-12.42,1.42-25-.16-37.37-.22-1.71-.48-3.42-.79-5.11-.18-.94-1.12-3.13-.15-3.75a7.26,7.26,0,0,1,2.27-.49l2.43-.43,5.34-.94,21.36-3.76c1.9-.33,1.09-3.23-.8-2.89l-17.23,3-8.5,1.5-4.13.73a5.85,5.85,0,0,0-3,1.21c-1.9,1.73-.84,4.46-.45,6.58a81.4,81.4,0,0,1,1.11,8.36,151.37,151.37,0,0,1,.36,16.77c-.29,11.64-.89,23.27-1.36,34.9-.16,3.9.05,9.69-4,11.79-3.2,1.65-7.63.09-9.53-2.84-2.76-4.28-1.53-10.3,1.59-14.06,1.49-1.78,3.67-3.42,6.12-3.25a4.5,4.5,0,0,1,4.3,3.53c.34,1.9,3.23,1.09,2.89-.8Z"/><path d="M1316.7,636.85c-.82-4.58-6.22-6.69-10.31-5.25-4.67,1.64-7.85,6.49-8.77,11.19s.19,10,4.2,12.92c3.28,2.43,8.18,3.1,11.69.75,4.25-2.84,4.62-8.35,4.81-13l.78-19.34c.5-12.42,1.42-25-.16-37.37-.22-1.71-.48-3.42-.79-5.11-.18-.94-1.12-3.13-.15-3.75a7.26,7.26,0,0,1,2.27-.49l2.43-.43,5.34-.94,21.36-3.76c1.9-.33,1.09-3.23-.8-2.89l-17.23,3-8.5,1.5-4.13.73a5.85,5.85,0,0,0-3,1.21c-1.9,1.73-.84,4.46-.45,6.58a81.4,81.4,0,0,1,1.11,8.36,151.37,151.37,0,0,1,.36,16.77c-.29,11.64-.89,23.27-1.36,34.9-.16,3.9.05,9.69-4,11.79-3.2,1.65-7.63.09-9.53-2.84-2.76-4.28-1.53-10.3,1.59-14.06,1.49-1.78,3.67-3.42,6.12-3.25a4.5,4.5,0,0,1,4.3,3.53c.34,1.9,3.23,1.09,2.89-.8Z"/><path d="M170.7,161.85c-.82-4.58-6.22-6.69-10.31-5.25-4.67,1.64-7.85,6.49-8.77,11.19s.19,10,4.2,12.92c3.28,2.43,8.18,3.1,11.69.75,4.25-2.84,4.62-8.35,4.81-13l.78-19.34c.5-12.42,1.42-25-.16-37.37-.22-1.71-.48-3.42-.79-5.11-.18-.94-1.12-3.13-.15-3.75a7.26,7.26,0,0,1,2.27-.49l2.43-.43,5.34-.94,21.36-3.76c1.9-.33,1.09-3.23-.8-2.89l-17.23,3-8.5,1.5-4.13.73a5.85,5.85,0,0,0-3,1.21c-1.9,1.73-.84,4.46-.45,6.58a81.4,81.4,0,0,1,1.11,8.36,151.37,151.37,0,0,1,.36,16.77c-.29,11.64-.89,23.27-1.36,34.9-.16,3.9,0,9.69-4,11.79-3.2,1.65-7.63.09-9.53-2.84-2.76-4.28-1.53-10.3,1.59-14.06,1.49-1.78,3.67-3.42,6.12-3.25a4.5,4.5,0,0,1,4.3,3.53c.34,1.9,3.23,1.09,2.89-.8Z"/><path d="M1786.46,668c-3.38,3.41-7,7.1-8.17,11.89-1.08,4.26-.18,9.06,3.49,11.79a11.89,11.89,0,0,0,11.09,1.21c4.08-1.56,6.88-5.08,8.45-9.05,1.89-4.75,1.86-9.95,1.36-15-.58-5.74-1.32-11.41-1.39-17.2s.23-11.43.63-17.14c.1-1.46.21-2.93.31-4.4a11.4,11.4,0,0,1,.5-3.58c.42-1,1.38-1.08,2.31-1.21,1.56-.23,3.14-.39,4.7-.58l39.34-4.83-1.5-1.5q2,21.78,3.69,43.6l.81,10.9a21.94,21.94,0,0,1-.32,7.32c-.52,1.93-1.66,3.86-3.92,3.73-2.74-.17-5.72-2.52-7.53-4.43a9.81,9.81,0,0,1-2.93-8,7,7,0,0,1,4.57-5.89c1.84-.56,1-3.46-.8-2.9-5.76,1.75-8.16,8.67-6.07,14a16.45,16.45,0,0,0,6,7.32c2.61,1.86,6.14,3.7,9.35,2.4,5.47-2.21,4.94-9.84,4.59-14.59q-.9-12.52-1.93-25-1.17-14.25-2.49-28.48c-.07-.73-.64-1.6-1.5-1.5L1815.93,621l-8.42,1c-2.17.26-4.92.18-6.57,1.86s-1.54,4-1.69,6q-.3,4-.56,8.07c-.33,5.54-.52,11.09-.33,16.64s1.09,10.78,1.48,16.19c.34,4.61.14,9.42-2,13.59-1.83,3.49-5,6.17-9,6.31-4.57.17-8-2.91-7.92-7.57.1-5.37,4.21-9.45,7.74-13,1.36-1.37-.76-3.5-2.12-2.12Z"/><path d="M1585.46,455c-3.38,3.41-7,7.1-8.17,11.89-1.08,4.26-.18,9.06,3.49,11.79a11.89,11.89,0,0,0,11.09,1.21c4.08-1.56,6.88-5.08,8.45-9,1.89-4.75,1.86-10,1.36-15-.58-5.74-1.32-11.41-1.39-17.2s.23-11.43.63-17.14c.1-1.46.21-2.93.31-4.4a11.4,11.4,0,0,1,.5-3.58c.42-.95,1.38-1.08,2.31-1.21,1.56-.23,3.14-.39,4.7-.58l39.34-4.83-1.5-1.5q2,21.78,3.69,43.6l.81,10.9a21.94,21.94,0,0,1-.32,7.32c-.52,1.93-1.66,3.86-3.92,3.73-2.74-.17-5.72-2.52-7.53-4.43a9.81,9.81,0,0,1-2.93-8,7,7,0,0,1,4.57-5.89c1.84-.56,1-3.46-.8-2.9-5.76,1.75-8.16,8.67-6.07,14a16.45,16.45,0,0,0,6,7.32c2.61,1.86,6.14,3.7,9.35,2.4,5.47-2.21,4.94-9.84,4.59-14.59q-.9-12.52-1.93-25-1.17-14.25-2.49-28.48c-.07-.73-.64-1.6-1.5-1.5L1614.93,408l-8.42,1c-2.17.26-4.92.18-6.57,1.86s-1.54,4-1.69,6q-.3,4-.56,8.07c-.33,5.54-.52,11.09-.33,16.64s1.09,10.78,1.48,16.19c.34,4.61.14,9.42-2,13.59-1.83,3.49-5,6.17-9,6.31-4.57.17-8-2.91-7.92-7.57.1-5.37,4.21-9.45,7.74-13,1.36-1.37-.76-3.5-2.12-2.12Z"/><path d="M1159.46,141c-3.38,3.41-7,7.1-8.17,11.89-1.08,4.26-.18,9.06,3.49,11.79a11.89,11.89,0,0,0,11.09,1.21c4.08-1.56,6.88-5.08,8.45-9.05,1.89-4.75,1.86-9.95,1.36-15-.58-5.74-1.32-11.41-1.39-17.2s.23-11.43.63-17.14c.1-1.46.21-2.93.31-4.4a11.4,11.4,0,0,1,.5-3.58c.42-1,1.38-1.08,2.31-1.21,1.56-.23,3.14-.39,4.7-.58l39.34-4.83-1.5-1.5q2,21.78,3.69,43.6l.81,10.9a21.94,21.94,0,0,1-.32,7.32c-.52,1.93-1.66,3.86-3.92,3.73-2.74-.17-5.72-2.52-7.53-4.43a9.81,9.81,0,0,1-2.93-8,7,7,0,0,1,4.57-5.89c1.84-.56,1-3.46-.8-2.9-5.76,1.75-8.16,8.67-6.07,14a16.45,16.45,0,0,0,6,7.32c2.61,1.86,6.14,3.7,9.35,2.4,5.47-2.21,4.94-9.84,4.59-14.59q-.9-12.53-1.93-25-1.17-14.25-2.49-28.48c-.07-.73-.64-1.6-1.5-1.5L1188.93,94l-8.42,1c-2.17.26-4.92.18-6.57,1.86s-1.54,4-1.69,6q-.3,4-.56,8.07c-.33,5.54-.52,11.09-.33,16.64s1.09,10.78,1.48,16.19c.34,4.61.14,9.42-2,13.59-1.83,3.49-5,6.17-9,6.31-4.57.17-8-2.91-7.92-7.57.1-5.37,4.21-9.45,7.74-13,1.36-1.37-.76-3.5-2.12-2.12Z"/><path d="M87.46,892c-3.38,3.41-7,7.1-8.17,11.89-1.08,4.26-.18,9.06,3.49,11.79a11.89,11.89,0,0,0,11.09,1.21c4.08-1.56,6.88-5.08,8.45-9.05,1.89-4.75,1.86-9.95,1.36-15-.58-5.74-1.32-11.41-1.39-17.2s.23-11.43.63-17.14c.1-1.46.21-2.93.31-4.4a11.4,11.4,0,0,1,.5-3.58c.42-1,1.38-1.08,2.31-1.21,1.56-.23,3.14-.39,4.7-.58l39.34-4.83-1.5-1.5q2,21.78,3.69,43.6l.81,10.9a21.94,21.94,0,0,1-.32,7.32c-.52,1.93-1.66,3.86-3.92,3.73-2.74-.17-5.72-2.52-7.53-4.43a9.81,9.81,0,0,1-2.93-8,7,7,0,0,1,4.57-5.89c1.84-.56,1.05-3.46-.8-2.9-5.76,1.75-8.16,8.67-6.07,14a16.45,16.45,0,0,0,6,7.32c2.61,1.86,6.14,3.7,9.35,2.4,5.47-2.21,4.94-9.84,4.59-14.59q-.9-12.52-1.93-25-1.17-14.25-2.49-28.48c-.07-.73-.64-1.6-1.5-1.5L116.93,845l-8.42,1c-2.17.26-4.92.18-6.57,1.86s-1.54,4-1.69,6q-.3,4-.56,8.07c-.33,5.54-.52,11.09-.33,16.64s1.09,10.78,1.48,16.19c.34,4.61.14,9.42-2,13.59-1.83,3.49-5,6.17-9,6.31-4.57.17-8-2.91-7.92-7.57.1-5.37,4.21-9.45,7.74-13,1.36-1.37-.76-3.5-2.12-2.12Z"/><path d="M976.49,929.37a409.22,409.22,0,0,0,17.64,50q2.76,6.4,5.8,12.68c.84,1.74,3.43.22,2.59-1.51a364.41,364.41,0,0,1-18.65-47.13q-2.37-7.36-4.49-14.81a1.5,1.5,0,0,0-2.89.8Z"/></svg>