<svg id="Layer_1" data-name="Layer 1" xmlns="http://www.w3.org/2000/svg" viewBox="0 0 1920 1080"><defs><style>.cls-1{fill:#3785e2;}.cls-1,.cls-2{opacity:0.5;}.cls-2{fill:#39b54a;}.cls-3{fill:#4d4d4d;}.cls-4{opacity:0.3;}</style></defs><title>42</title><ellipse class="cls-1" cx="1551.65" cy="611.74" rx="329.69" ry="194.68" transform="translate(-112.35 725.52) rotate(-25.43)"/><rect class="cls-2" x="351.95" y="725.12" width="181.83" height="109.27" transform="translate(247.52 -95.45) rotate(17.01)"/><path d="M168.62,159a2.61,2.61,0,0,1-.78-1.92V122.73H155.6a2.46,2.46,0,0,1-2.52-2.52,2.54,2.54,0,0,1,.72-1.83,2.39,2.39,0,0,1,1.8-.75h29.88a2.56,2.56,0,0,1,2.58,2.58,2.39,2.39,0,0,1-.75,1.8,2.54,2.54,0,0,1-1.83.72H173.3v34.38a2.56,2.56,0,0,1-.81,1.92,2.71,2.71,0,0,1-2,.78A2.61,2.61,0,0,1,168.62,159Z"/><path d="M194,159a2.61,2.61,0,0,1-.78-1.92V118.17a2.71,2.71,0,0,1,.78-2,2.56,2.56,0,0,1,1.92-.81,2.77,2.77,0,0,1,2.76,2.76v15.66a19.94,19.94,0,0,1,4.92-4,12.42,12.42,0,0,1,6.24-1.5,10.37,10.37,0,0,1,5.73,1.56,10.14,10.14,0,0,1,3.72,4.26,13.6,13.6,0,0,1,1.29,5.94v17a2.56,2.56,0,0,1-.81,1.92,2.71,2.71,0,0,1-2,.78,2.66,2.66,0,0,1-2.7-2.7V140.67q0-7.32-6.6-7.32a9.55,9.55,0,0,0-5.37,1.56,19.44,19.44,0,0,0-4.47,4.2v18a2.56,2.56,0,0,1-.81,1.92,2.71,2.71,0,0,1-2,.78A2.61,2.61,0,0,1,194,159Z"/><path d="M230.18,121.77a3,3,0,0,1-.9-2.16v-.24a3.07,3.07,0,0,1,3.06-3.06h.36a3.07,3.07,0,0,1,3.06,3.06v.24a3.07,3.07,0,0,1-3.06,3.06h-.36A3,3,0,0,1,230.18,121.77Zm.36,37.26a2.61,2.61,0,0,1-.78-1.92V131.37a2.71,2.71,0,0,1,.78-2,2.56,2.56,0,0,1,1.92-.81,2.67,2.67,0,0,1,2.76,2.76v25.74a2.56,2.56,0,0,1-.81,1.92,2.73,2.73,0,0,1-1.95.78A2.61,2.61,0,0,1,230.54,159Z"/><path d="M243.68,157.41a2.29,2.29,0,0,1-1-2,2.41,2.41,0,0,1,.66-1.68A2.18,2.18,0,0,1,245,153a2.64,2.64,0,0,1,1.08.24,23.91,23.91,0,0,0,3.84,1.32,17.85,17.85,0,0,0,4.32.48q6.66,0,6.66-4.26a2.27,2.27,0,0,0-1.53-2.1,31.33,31.33,0,0,0-5-1.62,44.79,44.79,0,0,1-5.85-1.74,10.29,10.29,0,0,1-4-2.73,6.94,6.94,0,0,1-1.65-4.83,8.65,8.65,0,0,1,3-6.84q3-2.64,8.67-2.64a25,25,0,0,1,8.7,1.5,2.25,2.25,0,0,1,1.29.9,2.41,2.41,0,0,1,.45,1.38,2.35,2.35,0,0,1-.69,1.68,2.27,2.27,0,0,1-1.71.72,3.37,3.37,0,0,1-.78-.12,23,23,0,0,0-6.84-1.08,9.37,9.37,0,0,0-5.07,1.17,3.49,3.49,0,0,0-1.83,3,2.77,2.77,0,0,0,1.68,2.64,24,24,0,0,0,5.22,1.62,50,50,0,0,1,5.76,1.77,9.52,9.52,0,0,1,3.81,2.73,7.41,7.41,0,0,1,1.59,5,7.93,7.93,0,0,1-3,6.36q-3,2.52-8.55,2.52A22.32,22.32,0,0,1,243.68,157.41Z"/><path d="M289.52,121.77a3,3,0,0,1-.9-2.16v-.24a3.07,3.07,0,0,1,3.06-3.06H292a3,3,0,0,1,2.16.9,3,3,0,0,1,.9,2.16v.24a3,3,0,0,1-.9,2.16,3,3,0,0,1-2.16.9h-.36A3,3,0,0,1,289.52,121.77Zm.36,37.26a2.61,2.61,0,0,1-.78-1.92V131.37a2.71,2.71,0,0,1,.78-2,2.54,2.54,0,0,1,1.91-.81,2.69,2.69,0,0,1,2,.78,2.72,2.72,0,0,1,.78,2v25.74a2.56,2.56,0,0,1-.81,1.92,2.73,2.73,0,0,1-2,.78A2.59,2.59,0,0,1,289.88,159Z"/><path d="M303,157.41a2.27,2.27,0,0,1-1-2,2.4,2.4,0,0,1,.65-1.68,2.18,2.18,0,0,1,1.68-.72,2.69,2.69,0,0,1,1.09.24,24.15,24.15,0,0,0,3.83,1.32,17.9,17.9,0,0,0,4.32.48c4.45,0,6.66-1.42,6.66-4.26a2.28,2.28,0,0,0-1.52-2.1,31.68,31.68,0,0,0-5-1.62,45,45,0,0,1-5.86-1.74,10.29,10.29,0,0,1-4-2.73,6.94,6.94,0,0,1-1.65-4.83,8.63,8.63,0,0,1,3-6.84q3-2.64,8.67-2.64a25,25,0,0,1,8.69,1.5,2.22,2.22,0,0,1,1.29.9,2.43,2.43,0,0,1,.46,1.38,2.39,2.39,0,0,1-.69,1.68,2.31,2.31,0,0,1-1.72.72,3.23,3.23,0,0,1-.77-.12,23,23,0,0,0-6.84-1.08,9.35,9.35,0,0,0-5.07,1.17,3.47,3.47,0,0,0-1.83,3,2.77,2.77,0,0,0,1.67,2.64,23.93,23.93,0,0,0,5.23,1.62,51.33,51.33,0,0,1,5.76,1.77,9.49,9.49,0,0,1,3.8,2.73,7.41,7.41,0,0,1,1.6,5,7.93,7.93,0,0,1-3,6.36c-2,1.68-4.86,2.52-8.54,2.52A22.26,22.26,0,0,1,303,157.41Z"/><path d="M353.83,158.13a13.46,13.46,0,0,1-5.37-5.61,19.21,19.21,0,0,1,0-16.62,13.46,13.46,0,0,1,5.37-5.61,17.44,17.44,0,0,1,16.14,0,13.73,13.73,0,0,1,5.41,5.61,19,19,0,0,1,0,16.62,13.73,13.73,0,0,1-5.41,5.61,17.44,17.44,0,0,1-16.14,0ZM366.64,154a9.16,9.16,0,0,0,3.72-3.6,12,12,0,0,0,1.47-6.24,11.88,11.88,0,0,0-1.47-6.18,9,9,0,0,0-3.72-3.57,10.52,10.52,0,0,0-4.71-1.11,10.64,10.64,0,0,0-4.77,1.11,8.78,8.78,0,0,0-3.69,3.57,12.08,12.08,0,0,0-1.44,6.18,12.21,12.21,0,0,0,1.44,6.24,9,9,0,0,0,3.69,3.6,10.41,10.41,0,0,0,4.77,1.14A10.29,10.29,0,0,0,366.64,154Z"/><path d="M389.62,158.55a10.14,10.14,0,0,1-3.72-4.26,13.6,13.6,0,0,1-1.29-5.94v-17a2.56,2.56,0,0,1,.81-1.92,2.71,2.71,0,0,1,1.95-.78,2.66,2.66,0,0,1,2.7,2.7v16.44q0,7.32,6.6,7.32a9.55,9.55,0,0,0,5.37-1.56,19.44,19.44,0,0,0,4.47-4.2v-18a2.56,2.56,0,0,1,.81-1.92,2.71,2.71,0,0,1,1.95-.78,2.66,2.66,0,0,1,2.7,2.7v25.74a2.71,2.71,0,0,1-.78,1.95,2.56,2.56,0,0,1-1.92.81,2.77,2.77,0,0,1-2.76-2.76v-2.46a19.94,19.94,0,0,1-4.92,4,12.42,12.42,0,0,1-6.24,1.5A10.37,10.37,0,0,1,389.62,158.55Z"/><path d="M422.23,159a2.61,2.61,0,0,1-.78-1.92V131.37a2.71,2.71,0,0,1,.78-2,2.56,2.56,0,0,1,1.92-.81,2.77,2.77,0,0,1,2.76,2.76V134q4.2-5.64,9.42-5.64h.3a2.51,2.51,0,0,1,1.89.78,2.66,2.66,0,0,1,.75,1.92,2.42,2.42,0,0,1-.78,1.86,2.81,2.81,0,0,1-2,.72h-.3a10.23,10.23,0,0,0-5.28,1.41,12.16,12.16,0,0,0-4,3.87v18.24a2.56,2.56,0,0,1-.81,1.92,2.71,2.71,0,0,1-2,.78A2.61,2.61,0,0,1,422.23,159Z"/><path d="M459,157.41a2.29,2.29,0,0,1-1-2,2.41,2.41,0,0,1,.66-1.68,2.18,2.18,0,0,1,1.68-.72,2.64,2.64,0,0,1,1.08.24,24.25,24.25,0,0,0,3.84,1.32,17.85,17.85,0,0,0,4.32.48q6.66,0,6.66-4.26a2.27,2.27,0,0,0-1.53-2.1,31.33,31.33,0,0,0-5-1.62,45.27,45.27,0,0,1-5.85-1.74,10.29,10.29,0,0,1-4-2.73,6.94,6.94,0,0,1-1.65-4.83,8.65,8.65,0,0,1,3-6.84q3-2.64,8.67-2.64a25,25,0,0,1,8.7,1.5,2.25,2.25,0,0,1,1.29.9,2.41,2.41,0,0,1,.45,1.38,2.35,2.35,0,0,1-.69,1.68,2.27,2.27,0,0,1-1.71.72,3.37,3.37,0,0,1-.78-.12,23,23,0,0,0-6.84-1.08,9.37,9.37,0,0,0-5.07,1.17,3.49,3.49,0,0,0-1.83,3,2.77,2.77,0,0,0,1.68,2.64,24,24,0,0,0,5.22,1.62,50,50,0,0,1,5.76,1.77,9.52,9.52,0,0,1,3.81,2.73,7.41,7.41,0,0,1,1.59,5,7.93,7.93,0,0,1-3,6.36q-3,2.52-8.55,2.52A22.32,22.32,0,0,1,459,157.41Z"/><path d="M494.23,158.13a13.46,13.46,0,0,1-5.37-5.61,19.21,19.21,0,0,1,0-16.62,13.46,13.46,0,0,1,5.37-5.61,17.44,17.44,0,0,1,16.14,0,13.65,13.65,0,0,1,5.4,5.61,18.94,18.94,0,0,1,0,16.62,13.65,13.65,0,0,1-5.4,5.61,17.44,17.44,0,0,1-16.14,0ZM507,154a9.16,9.16,0,0,0,3.72-3.6,12,12,0,0,0,1.47-6.24,11.88,11.88,0,0,0-1.47-6.18A9,9,0,0,0,507,134.4a10.52,10.52,0,0,0-4.71-1.11,10.64,10.64,0,0,0-4.77,1.11,8.78,8.78,0,0,0-3.69,3.57,12.08,12.08,0,0,0-1.44,6.18,12.21,12.21,0,0,0,1.44,6.24,9,9,0,0,0,3.69,3.6,10.41,10.41,0,0,0,4.77,1.14A10.29,10.29,0,0,0,507,154Z"/><path d="M526.09,159a2.61,2.61,0,0,1-.78-1.92V131.37a2.71,2.71,0,0,1,.78-2,2.56,2.56,0,0,1,1.92-.81,2.77,2.77,0,0,1,2.76,2.76v2.46a19.94,19.94,0,0,1,4.92-4,12.42,12.42,0,0,1,6.24-1.5,10.37,10.37,0,0,1,5.73,1.56,10.14,10.14,0,0,1,3.72,4.26,13.6,13.6,0,0,1,1.29,5.94v17a2.56,2.56,0,0,1-.81,1.92,2.71,2.71,0,0,1-2,.78,2.66,2.66,0,0,1-2.7-2.7V140.67q0-7.32-6.6-7.32a9.55,9.55,0,0,0-5.37,1.56,19.44,19.44,0,0,0-4.47,4.2v18A2.56,2.56,0,0,1,530,159a2.71,2.71,0,0,1-2,.78A2.61,2.61,0,0,1,526.09,159Z"/><path d="M569.11,173a23,23,0,0,1-5.82-2.22,2.28,2.28,0,0,1-1.08-2.1,2.46,2.46,0,0,1,.69-1.71,2.23,2.23,0,0,1,1.71-.75,3,3,0,0,1,1.08.24,21.83,21.83,0,0,0,9.9,2.28q9.18,0,9.18-9.78v-4a13.54,13.54,0,0,1-10.26,4.56,14.46,14.46,0,0,1-6.87-1.77,14.3,14.3,0,0,1-5.49-5.28,18,18,0,0,1,0-17.1,14.3,14.3,0,0,1,5.49-5.28,14.46,14.46,0,0,1,6.87-1.77,13.54,13.54,0,0,1,10.26,4.56v-1.5a2.71,2.71,0,0,1,.78-2,2.56,2.56,0,0,1,1.92-.81,2.77,2.77,0,0,1,2.76,2.76v26.82q0,7.56-3.66,11.64t-10.44,4.08A28.4,28.4,0,0,1,569.11,173Zm11.52-19.68a18,18,0,0,0,4.14-3.24V137.73a18,18,0,0,0-4.14-3.24,10.08,10.08,0,0,0-5-1.2A10.19,10.19,0,0,0,568.3,136q-2.85,2.73-2.85,7.89t2.85,7.89a10.19,10.19,0,0,0,7.35,2.73A10.08,10.08,0,0,0,580.63,153.33Z"/><path d="M599.26,168a1.78,1.78,0,0,1-.51-1.26,1.67,1.67,0,0,1,.9-1.5,6.85,6.85,0,0,0,2.28-2.1,6.41,6.41,0,0,0,.78-3.48h-.24a3.38,3.38,0,0,1-3.36-3.36V156a3.38,3.38,0,0,1,3.36-3.36h.6a3.38,3.38,0,0,1,3.36,3.36v3.54a9.65,9.65,0,0,1-4.92,8.76,1.89,1.89,0,0,1-1,.3A1.63,1.63,0,0,1,599.26,168Z"/><path d="M631.69,159a2.61,2.61,0,0,1-.78-1.92V118.17a2.71,2.71,0,0,1,.78-2,2.56,2.56,0,0,1,1.92-.81,2.67,2.67,0,0,1,2.76,2.76v38.94a2.56,2.56,0,0,1-.81,1.92,2.71,2.71,0,0,1-1.95.78A2.61,2.61,0,0,1,631.69,159Z"/><path d="M646.27,121.77a3,3,0,0,1-.9-2.16v-.24a3.07,3.07,0,0,1,3.06-3.06h.36a3.07,3.07,0,0,1,3.06,3.06v.24a3.07,3.07,0,0,1-3.06,3.06h-.36A3,3,0,0,1,646.27,121.77Zm.36,37.26a2.61,2.61,0,0,1-.78-1.92V131.37a2.71,2.71,0,0,1,.78-2,2.56,2.56,0,0,1,1.92-.81,2.67,2.67,0,0,1,2.76,2.76v25.74a2.56,2.56,0,0,1-.81,1.92,2.71,2.71,0,0,1-2,.78A2.61,2.61,0,0,1,646.63,159Z"/><path d="M659.77,157.41a2.29,2.29,0,0,1-1-2,2.41,2.41,0,0,1,.66-1.68,2.18,2.18,0,0,1,1.68-.72,2.64,2.64,0,0,1,1.08.24,24.25,24.25,0,0,0,3.84,1.32,17.85,17.85,0,0,0,4.32.48q6.66,0,6.66-4.26a2.27,2.27,0,0,0-1.53-2.1,31.33,31.33,0,0,0-5-1.62,45.27,45.27,0,0,1-5.85-1.74,10.29,10.29,0,0,1-4-2.73,6.94,6.94,0,0,1-1.65-4.83,8.65,8.65,0,0,1,3-6.84q3-2.64,8.67-2.64a25,25,0,0,1,8.7,1.5,2.25,2.25,0,0,1,1.29.9,2.41,2.41,0,0,1,.45,1.38,2.35,2.35,0,0,1-.69,1.68,2.27,2.27,0,0,1-1.71.72,3.37,3.37,0,0,1-.78-.12,23,23,0,0,0-6.84-1.08,9.37,9.37,0,0,0-5.07,1.17,3.49,3.49,0,0,0-1.83,3,2.77,2.77,0,0,0,1.68,2.64,24,24,0,0,0,5.22,1.62,50,50,0,0,1,5.76,1.77,9.52,9.52,0,0,1,3.81,2.73,7.41,7.41,0,0,1,1.59,5,7.93,7.93,0,0,1-3,6.36q-3,2.52-8.55,2.52A22.32,22.32,0,0,1,659.77,157.41Z"/><path d="M691.15,152.19v-18.6h-4.26a1.13,1.13,0,0,1-1.14-1.14,1.25,1.25,0,0,1,.54-1l8.16-8a1.51,1.51,0,0,1,1-.54,1.06,1.06,0,0,1,.81.36,1.2,1.2,0,0,1,.33.84v4.8h6.78a2.26,2.26,0,0,1,2.34,2.34,2.3,2.3,0,0,1-.66,1.65,2.22,2.22,0,0,1-1.68.69h-6.78v18.12q0,2.34,1.11,3a5.59,5.59,0,0,0,2.79.63,8.32,8.32,0,0,0,2.4-.36l.51-.12a3.27,3.27,0,0,1,.69-.06,2.11,2.11,0,0,1,1.5.63,2,2,0,0,1,.66,1.53,2.27,2.27,0,0,1-1.38,2.1,11.74,11.74,0,0,1-5,1.08Q691.15,160.11,691.15,152.19Z"/><path d="M714.1,155.94Q710,151.77,710,144.21a19.56,19.56,0,0,1,1.56-7.86,13.36,13.36,0,0,1,4.8-5.82,13.79,13.79,0,0,1,8-2.22,14,14,0,0,1,7.68,2.07,13.39,13.39,0,0,1,4.92,5.52,17,17,0,0,1,1.68,7.53,2.62,2.62,0,0,1-2.76,2.7H715.51a9.87,9.87,0,0,0,3.12,6.54Q721.27,155,726,155a18,18,0,0,0,4.41-.48,18.32,18.32,0,0,0,3.69-1.38,2.38,2.38,0,0,1,1.08-.24,2.41,2.41,0,0,1,1.68.66,2.18,2.18,0,0,1,.72,1.68,2.59,2.59,0,0,1-1.56,2.22,18.74,18.74,0,0,1-10.5,2.64Q718.21,160.11,714.1,155.94Zm19.11-14.25a9.61,9.61,0,0,0-1.53-4.92,8.26,8.26,0,0,0-3.33-2.91,9.15,9.15,0,0,0-8,0,8.06,8.06,0,0,0-3.3,2.91,9.79,9.79,0,0,0-1.5,4.92Z"/><path d="M746.59,159a2.61,2.61,0,0,1-.78-1.92V131.37a2.71,2.71,0,0,1,.78-2,2.56,2.56,0,0,1,1.92-.81,2.77,2.77,0,0,1,2.76,2.76v2.46a19.94,19.94,0,0,1,4.92-4,12.42,12.42,0,0,1,6.24-1.5,10.37,10.37,0,0,1,5.73,1.56,10.14,10.14,0,0,1,3.72,4.26,13.6,13.6,0,0,1,1.29,5.94v17a2.56,2.56,0,0,1-.81,1.92,2.71,2.71,0,0,1-2,.78,2.66,2.66,0,0,1-2.7-2.7V140.67q0-7.32-6.6-7.32a9.55,9.55,0,0,0-5.37,1.56,19.44,19.44,0,0,0-4.47,4.2v18a2.56,2.56,0,0,1-.81,1.92,2.71,2.71,0,0,1-2,.78A2.61,2.61,0,0,1,746.59,159Z"/><path d="M799.75,152.19v-18.6h-4.26a1.13,1.13,0,0,1-1.14-1.14,1.25,1.25,0,0,1,.54-1l8.16-8a1.51,1.51,0,0,1,1-.54,1.06,1.06,0,0,1,.81.36,1.2,1.2,0,0,1,.33.84v4.8H812a2.26,2.26,0,0,1,2.34,2.34,2.3,2.3,0,0,1-.66,1.65,2.22,2.22,0,0,1-1.68.69h-6.78v18.12q0,2.34,1.11,3a5.59,5.59,0,0,0,2.79.63,8.32,8.32,0,0,0,2.4-.36l.51-.12a3.27,3.27,0,0,1,.69-.06,2.11,2.11,0,0,1,1.5.63,2,2,0,0,1,.66,1.53,2.27,2.27,0,0,1-1.38,2.1,11.74,11.74,0,0,1-5,1.08Q799.75,160.11,799.75,152.19Z"/><path d="M825.85,158.13a13.46,13.46,0,0,1-5.37-5.61,19.21,19.21,0,0,1,0-16.62,13.46,13.46,0,0,1,5.37-5.61,17.44,17.44,0,0,1,16.14,0,13.65,13.65,0,0,1,5.4,5.61,18.94,18.94,0,0,1,0,16.62,13.65,13.65,0,0,1-5.4,5.61,17.44,17.44,0,0,1-16.14,0ZM838.66,154a9.16,9.16,0,0,0,3.72-3.6,12,12,0,0,0,1.47-6.24,11.88,11.88,0,0,0-1.47-6.18,9,9,0,0,0-3.72-3.57,10.52,10.52,0,0,0-4.71-1.11,10.64,10.64,0,0,0-4.77,1.11,8.78,8.78,0,0,0-3.69,3.57,12.08,12.08,0,0,0-1.44,6.18,12.21,12.21,0,0,0,1.44,6.24,9,9,0,0,0,3.69,3.6,10.41,10.41,0,0,0,4.77,1.14A10.29,10.29,0,0,0,838.66,154Z"/><path d="M877.24,158.55a10.14,10.14,0,0,1-3.72-4.26,13.6,13.6,0,0,1-1.29-5.94v-17a2.56,2.56,0,0,1,.81-1.92,2.71,2.71,0,0,1,2-.78,2.66,2.66,0,0,1,2.7,2.7v16.44q0,7.32,6.6,7.32a9.55,9.55,0,0,0,5.37-1.56,19.44,19.44,0,0,0,4.47-4.2v-18a2.56,2.56,0,0,1,.81-1.92,2.71,2.71,0,0,1,1.95-.78,2.66,2.66,0,0,1,2.7,2.7v25.74a2.71,2.71,0,0,1-.78,1.95,2.56,2.56,0,0,1-1.92.81,2.77,2.77,0,0,1-2.76-2.76v-2.46a19.94,19.94,0,0,1-4.92,4,12.42,12.42,0,0,1-6.24,1.5A10.37,10.37,0,0,1,877.24,158.55Z"/><path d="M908.05,157.41a2.29,2.29,0,0,1-1-2,2.41,2.41,0,0,1,.66-1.68,2.18,2.18,0,0,1,1.68-.72,2.64,2.64,0,0,1,1.08.24,24.25,24.25,0,0,0,3.84,1.32,17.85,17.85,0,0,0,4.32.48q6.66,0,6.66-4.26a2.27,2.27,0,0,0-1.53-2.1,31.33,31.33,0,0,0-5-1.62,45.27,45.27,0,0,1-5.85-1.74,10.29,10.29,0,0,1-4-2.73,6.94,6.94,0,0,1-1.65-4.83,8.65,8.65,0,0,1,3-6.84q3-2.64,8.67-2.64a25,25,0,0,1,8.7,1.5,2.25,2.25,0,0,1,1.29.9,2.41,2.41,0,0,1,.45,1.38,2.35,2.35,0,0,1-.69,1.68,2.27,2.27,0,0,1-1.71.72,3.37,3.37,0,0,1-.78-.12,23,23,0,0,0-6.84-1.08,9.37,9.37,0,0,0-5.07,1.17,3.49,3.49,0,0,0-1.83,3,2.77,2.77,0,0,0,1.68,2.64,24,24,0,0,0,5.22,1.62,50,50,0,0,1,5.76,1.77,9.52,9.52,0,0,1,3.81,2.73,7.41,7.41,0,0,1,1.59,5,7.93,7.93,0,0,1-3,6.36q-3,2.52-8.55,2.52A22.32,22.32,0,0,1,908.05,157.41Z"/><path d="M952.45,157.41a2.27,2.27,0,0,1-1-2,2.36,2.36,0,0,1,.66-1.68,2.16,2.16,0,0,1,1.68-.72,2.64,2.64,0,0,1,1.08.24,23.91,23.91,0,0,0,3.84,1.32,17.79,17.79,0,0,0,4.32.48q6.66,0,6.66-4.26a2.27,2.27,0,0,0-1.53-2.1,31.33,31.33,0,0,0-5-1.62,44.79,44.79,0,0,1-5.85-1.74,10.29,10.29,0,0,1-4-2.73,6.89,6.89,0,0,1-1.65-4.83,8.62,8.62,0,0,1,3-6.84c2-1.76,4.91-2.64,8.67-2.64a25.05,25.05,0,0,1,8.7,1.5,2.28,2.28,0,0,1,1.29.9,2.41,2.41,0,0,1,.45,1.38,2.35,2.35,0,0,1-.69,1.68,2.29,2.29,0,0,1-1.71.72,3.37,3.37,0,0,1-.78-.12,23,23,0,0,0-6.84-1.08,9.37,9.37,0,0,0-5.07,1.17,3.49,3.49,0,0,0-1.83,3,2.77,2.77,0,0,0,1.68,2.64,23.62,23.62,0,0,0,5.22,1.62,50,50,0,0,1,5.76,1.77,9.59,9.59,0,0,1,3.81,2.73,7.41,7.41,0,0,1,1.59,5,8,8,0,0,1-3,6.36c-2,1.68-4.88,2.52-8.55,2.52A22.29,22.29,0,0,1,952.45,157.41Z"/><path d="M982.69,121.77a2.91,2.91,0,0,1-.9-2.16v-.24a2.91,2.91,0,0,1,.9-2.16,3,3,0,0,1,2.16-.9h.36a3.07,3.07,0,0,1,3.06,3.06v.24a3.07,3.07,0,0,1-3.06,3.06h-.36A3,3,0,0,1,982.69,121.77ZM983,159a2.64,2.64,0,0,1-.77-1.92V131.37a2.74,2.74,0,0,1,.77-2,2.58,2.58,0,0,1,1.93-.81,2.67,2.67,0,0,1,2.76,2.76v25.74a2.56,2.56,0,0,1-.81,1.92,2.73,2.73,0,0,1-1.95.78A2.63,2.63,0,0,1,983,159Z"/><path d="M998,159a2.6,2.6,0,0,1-.77-1.92V131.37a2.7,2.7,0,0,1,.77-2,2.57,2.57,0,0,1,1.93-.81,2.78,2.78,0,0,1,2.76,2.76v2.46a19.72,19.72,0,0,1,4.91-4,12.44,12.44,0,0,1,6.25-1.5,10.36,10.36,0,0,1,5.72,1.56,10.14,10.14,0,0,1,3.72,4.26,13.6,13.6,0,0,1,1.29,5.94v17a2.56,2.56,0,0,1-.81,1.92,2.71,2.71,0,0,1-2,.78,2.66,2.66,0,0,1-2.7-2.7V140.67q0-7.32-6.6-7.32a9.55,9.55,0,0,0-5.37,1.56,19.2,19.2,0,0,0-4.46,4.2v18a2.57,2.57,0,0,1-.82,1.92,2.7,2.7,0,0,1-1.94.78A2.62,2.62,0,0,1,998,159Z"/><path d="M1041,173a23,23,0,0,1-5.82-2.22,2.28,2.28,0,0,1-1.08-2.1,2.46,2.46,0,0,1,.69-1.71,2.23,2.23,0,0,1,1.71-.75,3,3,0,0,1,1.08.24,21.84,21.84,0,0,0,9.91,2.28q9.16,0,9.18-9.78v-4a13.57,13.57,0,0,1-10.26,4.56,14.51,14.51,0,0,1-12.37-7,18,18,0,0,1,0-17.1,14.51,14.51,0,0,1,12.37-7.05,13.57,13.57,0,0,1,10.26,4.56v-1.5a2.67,2.67,0,0,1,.78-2,2.53,2.53,0,0,1,1.92-.81,2.77,2.77,0,0,1,2.75,2.76v26.82q0,7.56-3.66,11.64T1048,173.91A28.4,28.4,0,0,1,1041,173Zm11.52-19.68a18.22,18.22,0,0,0,4.15-3.24V137.73a18.22,18.22,0,0,0-4.15-3.24A11.11,11.11,0,0,0,1040.2,136q-2.87,2.73-2.86,7.89t2.86,7.89a11.11,11.11,0,0,0,12.32,1.53Z"/><path d="M1072.83,158.7a3.46,3.46,0,0,1-1-2.55,3.57,3.57,0,0,1,3.54-3.54,3.5,3.5,0,0,1,2.55,1,3.43,3.43,0,0,1,1,2.49,3.57,3.57,0,0,1-3.59,3.6A3.42,3.42,0,0,1,1072.83,158.7Zm1.05-11.25a1.79,1.79,0,0,1-.59-1.26l-1.08-19.8v-5.94a3,3,0,0,1,.9-2.22,3,3,0,0,1,2.22-.9,2.93,2.93,0,0,1,2.19.9,3.1,3.1,0,0,1,.86,2.22v5.94l-1.07,19.8a2,2,0,0,1-.57,1.26,2,2,0,0,1-1.41.48A2.13,2.13,0,0,1,1073.88,147.45Z"/><path d="M418.87,784.09a78.43,78.43,0,0,1-33.79-35.94L383,750.2l18.73,13.33,9.36,6.66c2.6,1.85,5.29,4.13,8.52,4.72s6.08-.62,8.71-2.22a53.31,53.31,0,0,0,7.83-6c4.92-4.37,9.37-9.35,14.86-13,5-3.33,11.37-6.09,17.45-4.57,4.84,1.22,9.6,5.41,10.14,10.59.64,6.12-5.34,10-9.32,13.58A95.55,95.55,0,0,0,441,819.81c-1.69,6.47-2.79,13.36-1.3,20a26,26,0,0,0,7.88,13.31c7.69,7,18.19,10.26,28,13.09a299.76,299.76,0,0,1,35.71,12.41,265.12,265.12,0,0,1,66.07,40.78q3.58,3,7,6.16l1.06-2.56L515,918.45l-35-2.25c-11.39-.73-22.78-1.52-34.11-2.87a225.05,225.05,0,0,1-33.09-6.18c-8.93-2.44-18.19-6.07-24-13.67-9.94-13.06-7.61-32.37.83-45.55,4.65-7.26,10.89-13.37,16.37-20,5.14-6.21,10.07-13.16,11.49-21.26a30,30,0,0,0,.42-6.06,1.54,1.54,0,0,0-1.1-1.45l-48.32-14.06-.4,2.95a177.45,177.45,0,0,1,46,1.89c1.89.33,2.7-2.56.8-2.89a180.09,180.09,0,0,0-46.83-2,1.5,1.5,0,0,0-.4,2.94L416,802.07l-1.1-1.45c.3,8.45-3.77,15.87-8.79,22.4-5.35,7-11.66,13.12-16.87,20.2-9.7,13.17-13.55,32-5.95,47.09,4.18,8.28,11.72,13.63,20.19,17a106.59,106.59,0,0,0,15,4.4c5.62,1.31,11.3,2.37,17,3.24,23.09,3.54,46.55,4.41,69.83,5.91l71.25,4.57,9,.57a1.51,1.51,0,0,0,1.06-2.56A268,268,0,0,0,485.69,866c-10.3-3.17-21.2-5.39-30.53-11a28,28,0,0,1-10.4-10.19c-3.14-5.69-3.24-12.35-2.13-18.62A89.15,89.15,0,0,1,457,791.85a91.07,91.07,0,0,1,12-14.2c4.1-3.95,9.61-7.33,11.81-12.81,2.05-5.14-.15-10.77-4-14.39a17.94,17.94,0,0,0-16-4.27c-13.24,2.49-20.95,14.55-31.18,22-2.48,1.8-5.62,4.14-8.86,3.87s-6.09-3-8.61-4.75L393.5,754l-9-6.37c-1.35-1-2.61.84-2.05,2a81.21,81.21,0,0,0,25.12,30.82,78,78,0,0,0,9.75,6.2c1.7.92,3.21-1.67,1.51-2.59Z"/><path d="M450.59,774.86c-3.59-.74-5.75-4.33-5.72-7.85.05-4.12,3.35-7.39,6.91-9,3.26-1.45,8.18-2,11,.76,3,3,1.3,8-1.2,10.67a10.76,10.76,0,0,1-11.2,3.1c-1.83-.64-2.61,2.26-.8,2.89,4.7,1.64,10,0,13.51-3.27s5.81-9.53,2.94-14.09-9-4.92-13.57-3.48c-4.85,1.51-9.48,5.36-10.36,10.59s2.21,11.4,7.74,12.53c1.89.38,2.69-2.51.8-2.89Z"/><path d="M453.27,764.59l-.11,0,.4-.06h-.12l.4,0-.08,0,.36.15-.06,0,.3.24,0-.05.23.31s0-.05,0-.08l.15.36a.28.28,0,0,1,0-.13l.05.4a.74.74,0,0,1,0-.21l-.05.4a1.35,1.35,0,0,1,.09-.33l-.15.36a1.05,1.05,0,0,1,.17-.29l-.24.3a1.37,1.37,0,0,1,.17-.17l-.3.24a.78.78,0,0,1,.15-.1l-.36.15.16,0-.4,0H454l-.4,0,.15,0-.36-.15a1.38,1.38,0,0,1,.24.14l-.3-.23a1,1,0,0,1,.21.21l-.23-.3a1.57,1.57,0,0,1,.18.31l-.15-.36a2,2,0,0,1,.14.54l0-.4a4.26,4.26,0,0,1,0,1l.05-.4c0,.22-.07.42-.11.63a1.49,1.49,0,0,0,2.2,1.69,1.5,1.5,0,0,0,.69-.89,10,10,0,0,0,.19-1.22,3.75,3.75,0,0,0,0-.82,3.63,3.63,0,0,0-.42-1.44,2.79,2.79,0,0,0-1-1,2.11,2.11,0,0,0-2.59.37,2.8,2.8,0,0,0-.78,1.88,2,2,0,0,0,.56,1.39,1.9,1.9,0,0,0,1.84.43,1.57,1.57,0,0,0,.89-.69,1.52,1.52,0,0,0,.15-1.16,1.47,1.47,0,0,0-.69-.89,1.58,1.58,0,0,0-1.15-.16Z"/><path d="M452.8,919.35l-29.65,29.53a1.5,1.5,0,0,0,2.12,2.12l29.65-29.53a1.5,1.5,0,0,0-2.12-2.12Z"/><path d="M455.39,927.23a143.68,143.68,0,0,0,23.52,28.07c1.41,1.3,3.54-.81,2.12-2.12a140,140,0,0,1-23-27.47c-1-1.62-3.64-.12-2.59,1.52Z"/><path class="cls-3" d="M305,473.86c6.94-14.08,9.09-29.69,11.58-45a199.24,199.24,0,0,1,4.82-23.09,108.82,108.82,0,0,1,7.78-19.55,129.53,129.53,0,0,1,25.43-33.85,158.22,158.22,0,0,1,36-25.84,220.39,220.39,0,0,1,44.08-17.24c7.57-2.11,15.24-3.95,23-5.42,7.49-1.42,15.8-2.26,22.59,1.95,6.05,3.75,9.84,10.33,12.84,16.59A86.55,86.55,0,0,1,500,343.78a104.53,104.53,0,0,1-1.76,44.83,127.12,127.12,0,0,1-18.51,40,176.25,176.25,0,0,1-29.42,32.77q-4.1,3.6-8.35,7c-1.51,1.2.62,3.31,2.12,2.12a193.13,193.13,0,0,0,32-31.8,140.23,140.23,0,0,0,21.95-39,111.4,111.4,0,0,0,6.34-45.74,95.38,95.38,0,0,0-4.4-22.45,72.42,72.42,0,0,0-9.82-20.19,31.38,31.38,0,0,0-7.55-7.57A23.67,23.67,0,0,0,472,299.92c-7.92-1-16.07,1.12-23.75,2.85a252.4,252.4,0,0,0-46.08,14.84,174.87,174.87,0,0,0-40.23,24.22,140.47,140.47,0,0,0-29.05,32,119.16,119.16,0,0,0-16.74,40.63c-3.31,15.63-4.45,31.75-9.38,47a82.5,82.5,0,0,1-4.37,10.87c-.86,1.72,1.73,3.25,2.59,1.51Z"/><path class="cls-3" d="M459.52,515.94c-19.95-5.43-40-10.71-60.31-14.55-19.95-3.77-40.28-6.2-60.62-5.6-19.58.57-39.66,3.87-57.73,11.66-7.48,3.22-15.12,8-18.66,15.69-4.22,9.16-1.69,19.49,2.14,28.31,6.66,15.35,17.85,28.4,31.21,38.35a116.76,116.76,0,0,0,47.33,20.64c20.22,3.93,41.11,3,61.23-1.05a198.49,198.49,0,0,0,29-8.22A125.8,125.8,0,0,0,456.56,590c13.59-8.51,25.7-21.11,29.05-37.27,2.8-13.57.07-29.33-10.1-39.33a30.8,30.8,0,0,0-8.29-5.84c-1.74-.84-3.26,1.75-1.52,2.59,12.46,6,18.13,19.86,17.95,33.12a44.38,44.38,0,0,1-4.85,19.83A60.19,60.19,0,0,1,463,581.72C449.48,592.66,432.5,599,415.88,603.5c-19.23,5.25-39.34,7.71-59.24,5.89a119.15,119.15,0,0,1-49.91-15.75c-13.86-8.21-26-19.5-34.42-33.31-4.5-7.41-8.63-15.93-9.25-24.69a22,22,0,0,1,2.86-13.09,26.49,26.49,0,0,1,8.41-8.28c7.44-4.85,16.31-7.59,24.82-9.88a162.28,162.28,0,0,1,28.53-5c19.52-1.68,39.2-.26,58.52,2.76,19.72,3.08,39.14,7.77,58.42,12.87q7.06,1.88,14.1,3.8a1.51,1.51,0,0,0,.8-2.9Z"/><path class="cls-3" d="M568.82,401.74c38-8.64,76.07-17.25,114.52-23.74,38.26-6.46,77-10.8,115.8-10.75,33.46,0,66.86,3.4,99.35,11.53A332.83,332.83,0,0,1,982.42,412c25.63,14.6,49.09,33.11,68.34,55.53,21,24.4,37.82,53.94,43.08,86,2.77,16.83,1.94,34.29-3.81,50.43-5.22,14.65-14.17,27.63-23.68,39.81-9.34,11.95-19.37,23.38-28,35.86a142.67,142.67,0,0,0-11.64,19.73c-3.18,6.69-5.81,13.62-8.69,20.43-5.64,13.37-12.76,27.26-26.22,34.18-12.22,6.29-26.85,5.33-39.38.48a64.26,64.26,0,0,1-32.1-27.7c-8.44-14.32-12.29-30.87-14-47.27-.83-8-1.15-16.13-1.24-24.22a1.5,1.5,0,0,0-3,0c.33,31.08,4.34,67.82,29.15,89.73,20.25,17.88,53.5,24,73.69,2.74,10.49-11.06,15.34-26,21.18-39.72,6.23-14.69,14.92-27.72,24.78-40.22s20.25-24.32,29-37.52c8.88-13.44,15.41-28.17,17.6-44.22,4.64-34-8.16-68.26-26.41-96.41-16.41-25.3-38-46.93-62.45-64.46-25.05-17.93-53.07-31.55-82.24-41.35a377,377,0,0,0-92.08-18.24c-40-3-80.23-.57-119.94,4.74S635.5,383.71,596.5,392.42q-14.25,3.16-28.48,6.43c-1.88.43-1.09,3.32.8,2.89Z"/><path class="cls-3" d="M532.52,560.05c22,7.73,37.73,26.37,47.32,47,11.66,25.06,13.7,53,14.27,80.22.33,15.34.21,30.69,1.06,46,.74,13.29,2,27.77,10.39,38.74,6.89,9,18.17,14.88,29.57,11.63,9.78-2.78,16.52-11.35,21.06-20,5.67-10.79,8.57-22.7,11.88-34.36q6.48-22.83,13-45.67l3.14-11.06a1.5,1.5,0,0,0-2.9-.79L668.45,717l-6.28,22.11a153.79,153.79,0,0,1-5.27,16c-3.66,9-8.93,18.61-17.59,23.6a21.69,21.69,0,0,1-14.12,2.69,26.75,26.75,0,0,1-14.7-8.15c-9.44-9.8-11.31-24.07-12.15-37.05-1-15-.9-30-1.15-45-.47-27.32-2-55.31-12.65-80.82-8.65-20.65-23-40-43.51-49.94a74.3,74.3,0,0,0-7.72-3.21c-1.82-.64-2.61,2.25-.79,2.89Z"/><path class="cls-3" d="M521,592.66a479.77,479.77,0,0,0,.22,89.76q1.07,11,2.62,21.83a96.18,96.18,0,0,0,3.78,17.2c3.33,9.87,9.71,19.41,20.31,22.15,9.45,2.45,21.27-.44,24.79-10.49.64-1.82-2.26-2.61-2.89-.79-2.8,8-12.44,10.22-20,8.66a21.53,21.53,0,0,1-11.42-6.38,37.52,37.52,0,0,1-8-14A94.55,94.55,0,0,1,526.84,704c-1-6.86-1.82-13.74-2.5-20.63q-2.1-21.27-2.3-42.66a479.27,479.27,0,0,1,2-48.08c.18-1.92-2.82-1.91-3,0Z"/><path class="cls-3" d="M702.25,655.23a418.16,418.16,0,0,0,58.93,9.94,415.27,415.27,0,0,0,60.06,1.39q16.88-.84,33.63-3a1.55,1.55,0,0,0,1.5-1.5,1.5,1.5,0,0,0-1.5-1.5,414,414,0,0,1-119-1.57q-16.56-2.64-32.87-6.61c-1.88-.46-2.68,2.43-.8,2.89Z"/><path class="cls-3" d="M836.44,681.52c1.18,15.4,3.13,31.43,10.87,45.1,6.67,11.81,18.24,20.71,31.87,22.53a29.75,29.75,0,0,0,20.53-4.39c1.6-1.07.1-3.67-1.52-2.6-10.41,7-23.89,4.68-34-1.7-11.91-7.51-18.14-20.63-21.29-33.94a163.26,163.26,0,0,1-3.46-25c-.15-1.92-3.15-1.93-3,0Z"/><path class="cls-3" d="M506.27,401.68c7.94-2.76,16.19-5.55,24.68-5.6,6.77,0,13.62,1.81,18,7.23,3.2,3.93,5.17,9.42,4.46,14.51a11.07,11.07,0,0,1-11.08,9.61c-4.07,0-7.94-1.7-11.34-3.78a58.85,58.85,0,0,1-10.13-8.15c-1.39-1.34-3.52.78-2.13,2.13,5.76,5.57,12.84,11.49,21,12.62,6.72.92,13.46-2.42,15.84-8.93,2-5.58.55-12.12-2.4-17.09a22.57,22.57,0,0,0-6.21-6.84,24.32,24.32,0,0,0-10.71-3.94c-10.53-1.51-21,1.92-30.85,5.34-1.81.63-1,3.53.8,2.89Z"/><path class="cls-3" d="M325.39,368.09c-15.17-2.39-30.77,4.87-39.55,17.32a37.2,37.2,0,0,0-5.47,11.6,1.5,1.5,0,0,0,.68,1.69,32,32,0,0,0,28.15-1.53,1.5,1.5,0,0,0-1.51-2.59,28.88,28.88,0,0,1-25.12,1.53l.69,1.69c3.75-13.63,16-23.95,29.69-26.59a34,34,0,0,1,11.64-.23c1.89.3,2.7-2.59.8-2.89Z"/><path class="cls-3" d="M340.16,465.44a59,59,0,0,1-7.38-23.79,60.26,60.26,0,0,1,.19-12.38c.42-3.52,1.07-7.24,2.82-10.38,1.55-2.8,4.26-5,7.64-4.68,3.13.33,5.77,2.73,7.56,5.16,4.48,6.06,5.35,14.19,5,21.52a49,49,0,0,1-8.57,25.23c-1.1,1.6,1.5,3.1,2.59,1.52a51.86,51.86,0,0,0,8.81-24.51c.77-8.11,0-17.43-4.6-24.38-2-3.08-4.83-5.9-8.41-7.07a10.15,10.15,0,0,0-10,2.33c-2.73,2.52-4.13,6.28-4.92,9.82a58,58,0,0,0-1.3,13.34,62.63,62.63,0,0,0,8,29.79,1.5,1.5,0,0,0,2.59-1.52Z"/><path class="cls-3" d="M384.36,450.1c-2.83-8.86-5.63-17.76-8-26.74-1.05-3.91-2-8.36-.35-12.25a10.7,10.7,0,0,1,5.59-5.43,14.69,14.69,0,0,1,15.85,2.6c5,4.68,6.72,11.89,6.29,18.52-.62,9.41-5.6,18-10.16,26a1.5,1.5,0,0,0,2.59,1.51c4.57-8,9.24-16.38,10.4-25.7.91-7.34-.76-15.35-5.67-21a17.69,17.69,0,0,0-18.1-5.46A13.84,13.84,0,0,0,372.22,418c.58,5.49,2.54,10.87,4.1,16.14q2.48,8.38,5.14,16.73c.59,1.83,3.48,1.05,2.9-.8Z"/><path class="cls-3" d="M365.05,521.32l4.86,20.16a1.52,1.52,0,0,0,2.21.9,14.12,14.12,0,0,0,5.43-18.2c-.86-1.73-3.45-.21-2.59,1.52a11.05,11.05,0,0,1-4.36,14.09l2.2.89-4.86-20.16c-.45-1.88-3.34-1.08-2.89.8Z"/><path class="cls-3" d="M317.91,528.52l5.26,22.56a1.54,1.54,0,0,0,1.85,1,12.53,12.53,0,0,0-2.79-24.8,1.5,1.5,0,0,0,0,3,9.53,9.53,0,0,1,2,18.9l1.84,1-5.25-22.56c-.44-1.88-3.34-1.08-2.9.8Z"/><path class="cls-3" d="M1115.6,503.87a61.77,61.77,0,0,1,45,8.3,59.62,59.62,0,0,1,10.37,8.29,1.5,1.5,0,0,0,2.12-2.12,64.92,64.92,0,0,0-44.44-18.69,62.73,62.73,0,0,0-13.81,1.32c-1.89.4-1.09,3.29.79,2.9Z"/><path d="M763.64,396.64q29.72,21.8,59.45,43.58c3.72,2.73,7.67,5.68,9.73,9.93,2.41,5,.76,10.71-1.4,15.44-4.07,8.89-10.57,16.31-17.61,23-14.31,13.53-31.65,24.91-40.62,43.08-4.23,8.58-6,18.17-4,27.6,1.93,9.12,7,17.42,13.6,23.94,15,14.86,36.95,19.39,57.32,20.26,19.31.83,39.21-1.88,56.77-10.28a76.77,76.77,0,0,0,23-16.43,67.28,67.28,0,0,0,13.67-22.1c6-15.7,6.14-34.3-2.79-48.95-4.67-7.68-11.72-13.43-17.18-20.49A28.14,28.14,0,0,1,907.89,474a18.87,18.87,0,0,1,1.6-12.23c4-8.08,12-13.58,19.7-17.81s16.1-8.33,22.39-14.81a29.38,29.38,0,0,0,6.7-10.64c.64-1.82-2.26-2.61-2.9-.8-3,8.36-10.41,13.81-17.76,18.14-7.79,4.6-16,8.33-22.84,14.45-6.55,5.89-11.33,13.9-10,23,1.23,8.68,7.57,15.43,13.3,21.58a93.72,93.72,0,0,1,8.61,10.05,43.62,43.62,0,0,1,5.59,11,52.52,52.52,0,0,1,1.93,24.55,64.79,64.79,0,0,1-27,43.24c-15.8,11.1-35.2,15.89-54.29,16.74a140.66,140.66,0,0,1-30.19-1.81c-10.36-1.8-20.57-5.09-29.44-10.86A50.65,50.65,0,0,1,775,567.15a37.74,37.74,0,0,1-2-27.12c5.79-19.08,22.91-31.63,37.21-44.2,7.26-6.38,14.31-13.18,19.64-21.31s10.4-19.1,4.28-28c-2.78-4-6.87-6.92-10.78-9.79L808.74,426l-29.33-21.5-14.26-10.45c-1.56-1.14-3,1.46-1.51,2.59Z"/><path d="M1335.78,405.63q63.43-.13,126.87-.23t126.87-.16l63.83-.06c10.11,0,20.25-.18,30.36,0,8.39.18,17.07.83,24.88,4.16,15.88,6.79,21.23,23.8,23.11,39.65,2.36,20,1.93,40.29,1.63,60.37q-1,63.58-2,127.18l-.24,15.56c0,1.93,3,1.93,3,0q1-64.62,2-129.24c.32-21,.91-42.08-.48-63.07-1-15.62-2.89-33.38-14.26-45.26-12.36-12.91-31.58-12.4-48.09-12.39l-64.23.05q-64.43.06-128.86.16l-128.46.21-16,0a1.5,1.5,0,0,0,0,3Z"/><path d="M1703.88,704.3,1752.14,675c11.47-7,24.52-15.09,29.13-28.46a38.22,38.22,0,0,0,1.6-13c-.06-4.85-.32-9.74,1.23-14.41l-2.51.66a26.73,26.73,0,0,1,6.67,25,1.51,1.51,0,0,0,2.5,1.46A134.33,134.33,0,0,0,1810,623.05l-2.74-.36a25.84,25.84,0,0,1-8.33,26.58,1.51,1.51,0,0,0,.66,2.5c3.68.91,7.45.69,11.2.77,3.41.08,7.17.5,9.7,3.05,4.31,4.36,3.44,12-2.15,14.77a9.67,9.67,0,0,1-9.38-.4l.54,2a7.86,7.86,0,0,0-1-8.42c-2.18-2.84-5.63-4-9.12-4a26.87,26.87,0,0,0-5.51.6,9.78,9.78,0,0,0-4.82,2c-2.35,2.1-2,5.7-.3,8.08,2.43,3.36,6.87,3.71,10.67,3.77l-1.29-2.26c-3.75,6.46-14.61,7-18.84.75a1.52,1.52,0,0,0-2.59,0A439,439,0,0,0,1735.08,751q-4.69,11.6-8.73,23.43c-.62,1.84,2.28,2.62,2.9.8A435.42,435.42,0,0,1,1766,695.15q6.35-10.77,13.29-21.18h-2.59c5.46,8.08,19.09,7.76,24-.75a1.51,1.51,0,0,0-1.3-2.25c-2.79-.05-6.64,0-8.36-2.69a3.54,3.54,0,0,1-.48-3.32c.69-1.4,2.73-1.64,4.09-1.91,3.16-.62,6.91-1,9.78.8,2.08,1.32,3.73,4.24,2.51,6.65a1.53,1.53,0,0,0,.54,2c6.26,4,15.43,1.17,18.06-5.84a13,13,0,0,0-.86-10.46,12.61,12.61,0,0,0-9.26-6.3c-5-.86-10.09.14-15-1.07l.66,2.51a28.78,28.78,0,0,0,9.1-29.5,1.52,1.52,0,0,0-2.74-.36,131,131,0,0,1-18.79,22.56l2.51,1.46a29.81,29.81,0,0,0-7.44-27.9,1.51,1.51,0,0,0-2.5.66c-2.64,8-.21,16.43-2,24.51-1.45,6.55-5.46,12-10.28,16.58-5,4.71-10.81,8.46-16.65,12q-11.6,7.07-23.21,14.08l-26.7,16.2a1.5,1.5,0,0,0,1.52,2.59Z"/><path d="M1314.92,406.28c-7.27-1.95-14.69.28-20.54,4.8-6.47,5-10.23,12.48-12.33,20.25-2.41,8.92-3.08,18.36-3.69,27.54-.69,10.48-.86,21-.8,31.48.1,20.72,1,41.43.56,62.15-.45,19.72-1.94,39.41-4,59-4.18,39.5-10.72,78.69-16.13,118-5.31,38.6-9.61,77.48-9.23,116.49a411.72,411.72,0,0,0,4.39,57.42c1.38,9.17,2.75,18.61,5.42,27.5,2.29,7.66,6.76,13.39,14.18,16.59,8.22,3.55,17.58,4.89,26.28,6.74q14.68,3.11,29.47,5.66c19.65,3.42,39.41,6.14,59.23,8.29,40.18,4.35,80.59,6.28,121,6.72,40.59.43,81.18-.64,121.73-2.34,20.1-.83,40.19-1.83,60.28-2.86,9.64-.5,19.53-.44,29.11-1.72,7.44-1,13.61-4.48,17.06-11.31s4-14.61,4.68-22.08q1.35-15.48,2.17-31,1.66-31.3,1.16-62.68-.24-15.26-1-30.5c-.09-1.92-3.09-1.94-3,0a916.37,916.37,0,0,1-2.06,120.86c-.66,7.93-.88,16.63-4.55,23.88-4.25,8.41-12.37,9.9-21,10.37q-29.29,1.57-58.59,3c-39.13,1.83-78.28,3.26-117.45,3.47s-78.08-.77-117-3.77a934,934,0,0,1-116.23-16c-9-1.84-18.21-3.4-26.9-6.26a24.91,24.91,0,0,1-10.57-6.15c-3-3.15-4.49-7.3-5.58-11.41-4.82-18.19-6.93-37.43-8.22-56.16-2.58-37.6,0-75.33,4.38-112.7,4.44-38,10.75-75.7,15.81-113.59,5.08-38,8.69-76.24,8.28-114.67-.22-20.29-1.09-40.58-.42-60.87a253,253,0,0,1,2.35-29.49c1.29-8.6,3.62-17.77,9.64-24.35,5.36-5.86,13.39-9.57,21.33-7.44a1.5,1.5,0,0,0,.8-2.89Z"/><path d="M1597,963.47a61.4,61.4,0,0,1-2.72,21c-.58,1.84,2.31,2.63,2.89.79a63.7,63.7,0,0,0,2.83-21.82c-.09-1.92-3.09-1.93-3,0Z"/><path d="M1581.91,968.78l-1.64,15.93a1.5,1.5,0,0,0,3,0l1.64-15.93a1.5,1.5,0,0,0-1.5-1.5,1.54,1.54,0,0,0-1.5,1.5Z"/><path d="M1570.71,966.91l-6.24,22.73a1.5,1.5,0,0,0,2.89.79l6.24-22.72a1.5,1.5,0,0,0-2.89-.8Z"/><path d="M1411.36,960.31a49.63,49.63,0,0,0-3.84,20.42c0,1.93,3,1.94,3,0a47.52,47.52,0,0,1,3.74-19.62,1.51,1.51,0,0,0-1-1.85,1.54,1.54,0,0,0-1.85,1Z"/><path d="M1389.91,959l-3.16,20.08a1.55,1.55,0,0,0,1,1.85,1.51,1.51,0,0,0,1.84-1l3.16-20.08a1.55,1.55,0,0,0-1-1.85,1.52,1.52,0,0,0-1.85,1Z"/><path d="M1400.62,960.29l-5.53,17.23c-.59,1.84,2.3,2.63,2.89.8l5.53-17.23c.6-1.84-2.3-2.63-2.89-.8Z"/><path d="M1804.31,676.51a3.88,3.88,0,0,0,.06-2.16,2.2,2.2,0,0,0,0-.36l-.26.16c-.3.07-.36.14-.17.21,0,.12.52.85.61,1a4.54,4.54,0,0,0,3.62,3.06c1.78.28,3.64,0,5.44.18a22.17,22.17,0,0,1,6,1.3,14.58,14.58,0,0,1,7.78,6.48c1.51,2.79,1.81,6.09,2.21,9.18s.85,6.38,2.46,9.16a13,13,0,0,0,7.41,5.66c3.29,1.08,6.8,1.24,10.2,1.78a58.67,58.67,0,0,1,12.07,3.25c.89.34,1.77.71,2.63,1.1.22.1.54.36.76.36.52,0-.47-.46-.27-.5a6.71,6.71,0,0,0-.5,1.22,23.32,23.32,0,0,1-2.62,4.37,30.2,30.2,0,0,1-7.63,6.89c-6.68,4.34-14.46,6.42-22,8.74-8,2.47-16,5.48-24.44,6.09l-1.41.08c-.4,0-1.29-.16-1.64,0h-.23l.4.56a5,5,0,0,0,0-.65c0-.59,0-1.17,0-1.76a22.28,22.28,0,0,1,1.11-5.82c1.22-3.7,4-6.76,4.59-10.67a31.74,31.74,0,0,0,.19-5.93,16.4,16.4,0,0,0-.93-5.51c-1.34-3.36-4.54-4.95-7-7.42a18,18,0,0,1-.68-24.32c1.26-1.46-.86-3.59-2.12-2.12a21.16,21.16,0,0,0-3.77,21.69,22.22,22.22,0,0,0,6.93,9.05c1.45,1.16,3,2.34,3.78,4.11a16.37,16.37,0,0,1,.78,6,14.74,14.74,0,0,1-.93,6.42c-.86,2-2.09,3.71-2.93,5.67a24.55,24.55,0,0,0-1.77,6c-.29,1.85-.73,4.32-.12,6.13.7,2.07,3.57,1.53,5.24,1.43a55.11,55.11,0,0,0,6.66-.85,114,114,0,0,0,13.22-3.53c14.64-4.62,33.94-8.45,40.39-24.45a3.07,3.07,0,0,0,.2-2.61c-.42-.85-1.41-1.18-2.22-1.54a64.37,64.37,0,0,0-6.2-2.37,70,70,0,0,0-12.57-2.61c-3.41-.43-7.29-.89-10-3.16s-3.44-5.7-3.91-9c-.51-3.51-.73-7.1-2.13-10.41a16.54,16.54,0,0,0-7.27-7.85,24.86,24.86,0,0,0-12.27-2.83,10,10,0,0,1-2.67-.09c-1-.29-1.09-1.28-1.52-2.11-.74-1.42-2.44-2.54-4.06-1.81a2.52,2.52,0,0,0-1.39,1.79c-.17.79.2,1.61,0,2.37a1.5,1.5,0,0,0,2.89.8Z"/><path d="M1862.75,728a4.51,4.51,0,0,0,.18,1.5s.08.23,0,.26c0-.22,0-.25,0-.08v.11c0,.17-.08.28,0-.07l-.06.23c0,.25.14-.23,0-.09s-.07.14-.11.21a1.77,1.77,0,0,0-.12.17c.16-.19.18-.23.08-.11l0,.07-.38.35c-.19.18.21-.15.06,0l-.21.15a8.94,8.94,0,0,1-.84.51l-.49.25-.29.14c-.08,0-.35.22,0,0a2.55,2.55,0,0,1-.55.19c-.07,0-.5.18-.56.13l.14,0h-.15c-.07,0-.23,0-.3,0l.2,0-.19,0c-.1,0-.38-.16,0,0a1.62,1.62,0,0,0-1.16-.15,1.5,1.5,0,0,0-.36,2.74,4.47,4.47,0,0,0,3.55.1,12,12,0,0,0,2.57-1.31,5,5,0,0,0,2-2.35,3,3,0,0,0,.17-1.43c0-.36-.12-.69-.19-1l0-.16c0-.12,0-.07,0,.14-.06,0,0-.36,0-.42a1.59,1.59,0,0,0-.44-1.07,1.51,1.51,0,0,0-1.06-.43,1.53,1.53,0,0,0-1.5,1.5Z"/><path d="M1479.06,441,1542,462.27l63.18,21.34,35.46,12a1.53,1.53,0,0,0,1.85-1c1.47-7.4,3-15.9,8.76-21.34,4.49-4.27,12.64-6.35,17.55-1.61l-.39-1.46-22.17,66.93-22.08,66.64-11,33.24c-3.59,10.84-7,21.78-10.81,32.54-1.34,3.76-3,7.67-5.85,10.54-3.71,3.72-8.54,3.64-13.46,3.19q-15.79-1.46-31.46-4a460,460,0,0,1-120.79-37.39q-14.31-6.72-28.13-14.41c-4.12-2.29-9.09-4.53-11.71-8.64s-2.27-9.64-1.4-14.37c2-11,5.94-21.46,9.69-31.91l11.87-33.09,23.74-66.18,12-33.36c2.62-7.31,6-15.49,12.36-20.36a13.56,13.56,0,0,1,9.72-2.88l-1.44-1.9a30.3,30.3,0,0,0,.92,21.89c.76,1.77,3.35.24,2.59-1.52a27.19,27.19,0,0,1-.62-19.57,1.53,1.53,0,0,0-1.45-1.9c-8.21-.79-14.48,5.1-18.57,11.58a63.13,63.13,0,0,0-5.44,11.22c-2.07,5.43-3.94,10.94-5.9,16.41l-24.32,67.77-12.25,34.15c-4,11.12-8.23,22.19-11.8,33.45a121.11,121.11,0,0,0-4.13,16.32c-.79,4.78-1,9.88,1.09,14.36s6.39,7.06,10.48,9.38q7.14,4.07,14.44,7.85a462.61,462.61,0,0,0,122.11,43q15.95,3.2,32.09,5.27c5.35.68,10.72,1.28,16.09,1.77,5,.46,10,.57,14.14-2.58,3.32-2.51,5.42-6.21,7-10,2-4.74,3.44-9.73,5.06-14.61l11.36-34.31L1643,556.25l22.7-68.52,5.56-16.8a1.48,1.48,0,0,0-.38-1.46c-5.73-5.55-14.85-4-20.64.61-7,5.61-9,15.32-10.69,23.66l1.85-1-62.92-21.25-63.18-21.34-35.46-12c-1.83-.62-2.62,2.28-.8,2.89Z"/><path d="M1490.45,509c-.28,0,0,0,.07,0l-.22,0a3,3,0,0,1-.43-.11s-.42-.17-.22-.08-.23-.12-.3-.16-.25-.16-.37-.24.2.19-.08-.06a8.25,8.25,0,0,1-.65-.67c-.17-.19.12.19-.07-.09l-.24-.38c-.07-.12-.14-.23-.2-.35s-.24-.5-.17-.34-.09-.25-.11-.3l-.12-.39c-.09-.32-.15-.64-.21-1s0,.27,0,.05a.88.88,0,0,0,0-.17c0-.16,0-.31,0-.47s0-.31,0-.46a1.77,1.77,0,0,1,0-.23s0-.37,0-.14,0-.18,0-.25.07-.3.11-.44.1-.29.14-.43.09-.21,0,0,0-.09.07-.13a4.66,4.66,0,0,1,.47-.77c-.17.23,0,0,.1-.1s.25-.24.37-.36.22-.18,0,0l.2-.14.36-.22.21-.11c.19-.1-.24.08,0,0a4.16,4.16,0,0,1,.5-.16c.12,0,.27,0,.39-.09s-.26,0,0,0l.23,0c.31,0,.62,0,.93,0s-.25-.06,0,0l.24,0,.4.1.45.14.22.09c-.18-.07-.11,0,0,0a8.67,8.67,0,0,1,.79.43l.39.28c-.27-.2.13.12.2.19a6.25,6.25,0,0,1,.61.65c-.2-.25.07.09.12.17l.25.41c.07.14.14.28.2.43-.13-.31,0,.09.06.19s.07.27.1.41,0,.16,0,.23,0-.27,0,0,0,.62,0,.94.07-.25,0,0,0,.16,0,.23-.09.33-.14.5a1.8,1.8,0,0,0-.08.21s.12-.24,0-.1-.13.27-.21.4-.13.22-.2.33l-.13.18c.2-.31,0,0,0,0a7.27,7.27,0,0,1-.55.56c-.09.07-.4.3-.13.12l-.42.28-.44.25-.2.1s-.34.16-.13.07-.26.1-.35.12a3.06,3.06,0,0,1-.43.13l-.54.13-.17,0c-.18.05.3,0,0,0a8,8,0,0,1-1,0l-.22,0c-.29,0,.21.05,0,0l-.47-.1-.45-.14-.15-.06c.36.13,0,0,0,0l-.37-.21-.18-.12c-.27-.18.14.14,0,0s-.24-.22-.36-.33-.09-.12-.14-.17c-.21-.22.15.22,0,0a1.53,1.53,0,0,0-2-.54,1.51,1.51,0,0,0-.54,2.05c2.05,2.88,5.74,3.31,8.83,1.93a6.91,6.91,0,0,0,4-8.15,7.86,7.86,0,0,0-7.79-5.36,6.31,6.31,0,0,0-4.5,2.27,7.44,7.44,0,0,0-1.59,4.68c0,3.73,2.43,7.5,6.35,7.86a1.51,1.51,0,0,0,1.5-1.5,1.53,1.53,0,0,0-1.5-1.5Z"/><path d="M1569.82,530.45a.62.62,0,0,1-.69-.15,1.88,1.88,0,0,1-.63-1.18,1.56,1.56,0,0,1,.22-1,3.09,3.09,0,0,1,1.15-1.09,9.29,9.29,0,0,1,7.62-.36,6.42,6.42,0,0,1,4.33,5,5.2,5.2,0,0,1-.52,3.19,3.34,3.34,0,0,1-2.12,1.75,4,4,0,0,1-1.54.11,3.18,3.18,0,0,1-.57-.11l-.39-.12a1.07,1.07,0,0,1-.24-.09,2.72,2.72,0,0,1-1.8-2.07c-.41-1.89-3.3-1.09-2.89.8.69,3.17,4.14,4.93,7.2,4.56a7,7,0,0,0,5.91-7.35,9.34,9.34,0,0,0-6.17-8.45c-3.35-1.35-8-1.31-11,1a4.9,4.9,0,0,0-1.94,5.52c.71,2,2.67,3.57,4.86,2.91,1.84-.56,1.06-3.46-.8-2.9Z"/><path d="M1449.23,518.19q24.39,10.08,49.33,18.73t50.34,15.79c16.88,4.75,33.9,8.77,51,12.76a11.16,11.16,0,0,1,4.63,1.85c1.5,1.23,1.75,3.09,1.55,4.92a39.83,39.83,0,0,1-1.3,5.8q-.8,3.15-1.67,6.29-3.43,12.43-7.8,24.57t-9.69,24c-1.74,3.88-3.57,7.74-5.46,11.55-1.76,3.56-3.39,7.54-5.92,10.64-4.94,6-13.21,4.46-19.78,2.53-8.66-2.56-17.23-5.47-25.83-8.2l-52.83-16.82-26.42-8.4L1436.27,620a76,76,0,0,1-10.62-3.85,18,18,0,0,1-7.77-6.51c-2-3.27-2.43-7.14-2.32-10.89a78.14,78.14,0,0,1,1.48-11.6c.74-4.07,1.6-8.13,2.6-12.15a193.81,193.81,0,0,1,17.8-45.88q2.86-5.26,6-10.34c1-1.65-1.57-3.15-2.59-1.52a197.32,197.32,0,0,0-21.18,46.25,193.87,193.87,0,0,0-5.88,24.6c-1.28,7.49-2.73,16.15,1.45,23,3.9,6.46,11.47,9,18.27,11.14l27.13,8.63,54.74,17.42,27.12,8.63c4.25,1.36,8.48,2.84,12.79,4a31.1,31.1,0,0,0,11,1.3,14.63,14.63,0,0,0,9.5-4.47c2.78-3,4.48-7,6.3-10.61q5.91-11.81,10.91-24t9.12-25.11c1.34-4.2,2.6-8.44,3.78-12.69s2.58-8.42,3.1-12.7c.46-3.85-1-7.25-4.65-8.88a26.71,26.71,0,0,0-5.33-1.56c-2.17-.48-4.33-1-6.49-1.46q-13.32-3-26.55-6.51-26.34-6.88-52.22-15.36t-51.4-18.58q-6.19-2.46-12.34-5c-1.78-.74-2.56,2.16-.8,2.89Z"/><path d="M1492.81,541.76c16.59,6.34,33.26,12.51,49.78,19,.16.07.77.19.82.41s-.35.81-.43,1c-.35.76-.72,1.51-1.14,2.24a10.32,10.32,0,0,1-2.9,3.49,5.77,5.77,0,0,1-5,.54c-2.11-.57-4.18-1.35-6.25-2l-25.11-8.35-6.93-2.31a17.48,17.48,0,0,1-5.06-2.37,5.13,5.13,0,0,1-2.29-3.82c-.06-1.22.32-2.75,1.58-3.22,1.79-.67,1-3.57-.8-2.9-3.18,1.2-4.35,4.69-3.52,7.84,1,3.74,4.69,5.69,8,6.93,4.64,1.7,9.4,3.15,14.1,4.71l14.68,4.88,7.34,2.45c2.22.73,4.57,1.71,7,1.54,3.85-.27,6.44-3.29,8.14-6.49.78-1.48,2.27-3.73,1.43-5.42-.93-1.87-3.83-2.38-5.61-3.06l-14.43-5.52-32.56-12.46c-1.8-.69-2.58,2.21-.8,2.9Z"/><path d="M1459.57,568.38a42.56,42.56,0,0,0,22,28.91,40.39,40.39,0,0,0,9.94,3.61V598c-8.94,3.69-20,8.19-29.27,2.92-6.78-3.86-9.21-12.34-8.06-19.7a21.56,21.56,0,0,1,1.84-6.14c.94-1.92,2.46-4.16,4.8-4.31,1.92-.11,1.93-3.11,0-3-5,.31-7.57,5.25-8.82,9.5a26.54,26.54,0,0,0-.41,13.39,20.21,20.21,0,0,0,6.45,11,22,22,0,0,0,14.73,4.63c6.86-.18,13.29-2.78,19.54-5.36,1.23-.51,1.6-2.55,0-2.9a39.5,39.5,0,0,1-29.84-30.41c-.38-1.9-3.27-1.1-2.9.79Z"/><path d="M1488.32,503.4a4.41,4.41,0,0,1-.77-.42c-.12-.07-.24-.25,0,0l-.13-.11a1.7,1.7,0,0,1-.19-.19l-.06-.06c-.1-.12-.07-.09.07.1a2,2,0,0,0-.23-.36c-.15-.26.09.27,0,.08l-.06-.2c0-.07,0-.14,0-.21s0,.41,0,.11c0-.07,0-.14,0-.21,0-.37-.07.3,0,0a1.24,1.24,0,0,0,0-.16l0-.08q.07-.23-.06.12s.06-.12.08-.14l0-.07c.09-.13.06-.09-.08.1l.13-.13c.22-.22-.29.15,0,0l.16-.09c.25-.15-.33.11,0,0l.45-.13.19,0c-.42.1-.28,0-.14,0h.56c.14,0,.31.09-.1,0,.24.06.48.1.72.18s.29.17-.08,0l.14.06c.13.07.26.14.38.22l.15.11c.16.09-.3-.26-.1-.08l.26.24.09.11c.18.2-.21-.31-.07-.08,0,.08.23.28.21.36s-.14-.39-.07-.16l.06.2,0,.14c.06.27,0-.4,0-.11,0,.08,0,.48,0,.19s0,0,0,0,0,.16-.07.24c-.08.28.17-.33,0-.06,0,0,0,.09-.08.14a1.13,1.13,0,0,0-.13.2c.07-.22.19-.22.08-.11s-.19.19-.29.29.3-.2,0,0l-.21.12c-.25.14.29-.1.1,0l-.27.09a.9.9,0,0,0-.16,0c.27,0,.32,0,.16,0h-.32c.43,0,.19,0,0,0l-.2-.06c-.27-.08.3.16.06,0l-.21-.12-.1-.06.14.11a1.88,1.88,0,0,0-.35-.34c.19.11.17.24.09.11a2.54,2.54,0,0,1-.16-.28c-.08-.13,0-.12,0,.14,0-.1-.07-.21-.09-.31a1.52,1.52,0,0,0-1.85-1,1.54,1.54,0,0,0-1,1.85,3.9,3.9,0,0,0,7.08,1.22,3.88,3.88,0,0,0,.58-2.89,4.54,4.54,0,0,0-3.39-3.33c-1.79-.5-4.23,0-5.13,1.77a3.89,3.89,0,0,0,.09,3.59,4.92,4.92,0,0,0,2.34,2.05,1.62,1.62,0,0,0,1.16.15,1.5,1.5,0,0,0,.36-2.74Z"/><path d="M1570.24,531.7a5,5,0,0,0-1.44-2c-.22-.2-.45-.39-.67-.6-.06,0-.11-.11-.16-.16s-.09-.21,0,.09a2.77,2.77,0,0,0-.22-.37c-.1-.16.12.37,0,.1,0-.07,0-.13-.06-.19s0-.13,0-.19c.11.36,0,.3,0,.17s0-.19,0-.22-.08.42,0,.19-.15.29-.07.14-.24.23,0,0c0,0-.33.23-.13.11s-.24.1,0,0-.35,0,0,0h.23l.49.06c-.51,0,.12,0,.24,0,.29,0,.57.11.86.19l.39.12.26.09.08,0c.15.06.12.05-.1,0a1.66,1.66,0,0,0,.4.2c.12.07.24.16.37.23s.08.14-.1-.08a1,1,0,0,0,.17.14c.12.11.21.25.33.35-.24-.21-.13-.18,0-.06a.76.76,0,0,1,.12.19l.09.16-.08-.19a.49.49,0,0,1,.06.17c0,.06,0,.12,0,.18.08.31,0-.35,0,0a1.08,1.08,0,0,0,0,.18c0,.31.07-.32,0,0s.18-.3,0,0c-.06.1-.15.16.08-.09-.2.22.23-.12.06,0s-.18,0,.09,0a.64.64,0,0,0-.17,0c-.28.1.36,0,.05,0H1571l.21,0s-.23,0-.28-.06l-.28-.07-.57-.19-1.28-.45-1.29-.44-.35-.13c-.08,0-.31-.06-.35-.12l.22.08.16.14c-.11-.11-.08-.07.07.13-.32-.57-.49,0-.49,1.62a1.5,1.5,0,0,0-1.51-2.59,1.76,1.76,0,0,0-.63,2.42,2.86,2.86,0,0,0,1.62,1.18l3,1a4.69,4.69,0,0,0,3,.28,2.86,2.86,0,0,0,2-2.9c-.15-2.18-1.93-3.59-3.88-4.2a12.26,12.26,0,0,0-2.69-.49,2.61,2.61,0,0,0-2.82,1.89,3.66,3.66,0,0,0,.92,3.24,12.42,12.42,0,0,0,1,.91,4.53,4.53,0,0,1,.49.49c.22.25-.1-.19,0,0s.22.45.06,0a1.61,1.61,0,0,0,.69.89,1.5,1.5,0,0,0,2.2-1.69Z"/><path class="cls-3" d="M390.33,429.91l-.81-.58-.23-.17s.19.16,0,0l-.44-.36a9.28,9.28,0,0,1-.71-.69c0-.05-.36-.45-.21-.24a4.63,4.63,0,0,1-.31-.46c-.08-.13-.14-.27-.22-.41s.06.22,0,0l-.06-.19a4.1,4.1,0,0,1-.14-.5s0-.24,0-.06,0-.15,0-.19,0-.3,0-.45-.07.23,0,0a1.16,1.16,0,0,0,0-.18,2.25,2.25,0,0,1,.08-.24c0-.1.13-.2,0,0,0-.06.06-.12.09-.17s.17-.23,0-.07c.1-.12.22-.22.32-.33s-.18.1,0,0l.16-.11c.06,0,.52-.26.24-.14a2.78,2.78,0,0,1,.51-.17l.45-.1c.23-.05-.24,0,0,0l.19,0h.5l.19,0c.18,0-.24-.06,0,0a6.28,6.28,0,0,1,.85.23c.27.09.05,0,0,0l.23.11.43.25s.21.18,0,0l.14.12c.11.1.21.2.31.31s0,0,0,0l.13.2c.08.13.15.26.22.4-.14-.3,0,.06,0,.18s0,.15.05.23c.07.27,0-.19,0,0s0,.31,0,.46v.09c0-.22,0,.1,0,.13s-.09.29-.13.44c0-.05.15-.29,0-.05l-.1.19c0,.07-.09.13-.12.19.09-.15.12-.13,0,0a4,4,0,0,1-.38.34,1.5,1.5,0,0,0,0,2.12,1.54,1.54,0,0,0,2.12,0,4.8,4.8,0,0,0,1.47-4.87,5.47,5.47,0,0,0-3.82-3.78,6.21,6.21,0,0,0-5.35.78,4.8,4.8,0,0,0-1.58,5.57c.77,2.15,2.55,3.52,4.36,4.8a1.51,1.51,0,0,0,2.05-.54,1.54,1.54,0,0,0-.54-2.06Z"/><path class="cls-3" d="M348.09,437.67l.09,0-.18-.08-.36-.17c-.27-.13-.54-.27-.8-.42l-.34-.21-.16-.12c-.19-.13.06.07.07.06s-.52-.48-.59-.55c-.24-.26.14.24,0-.06a3.3,3.3,0,0,0-.18-.32c-.1-.16.11.36,0,.07a1.21,1.21,0,0,1-.05-.18s0-.17,0-.18,0,.37,0,.07c0-.07,0-.14,0-.21s-.07.28,0,.09.07-.27.11-.4-.14.24,0,.07l.09-.19.12-.18c.17-.26,0,0,0,0s.27-.28.3-.31l.16-.15c.22-.2,0,0,0,0a4.18,4.18,0,0,0,.36-.23l.19-.1c.35-.18-.27.09.09,0a7.9,7.9,0,0,1,.95-.27c.16,0,.32-.06.49-.09s.27-.07,0,0a1.55,1.55,0,0,1,.31,0l1-.07.46,0c.22,0-.26-.05-.06,0s-.19-.09-.25-.15c-.32-.32.09,0,0,.12s-.11-.27,0-.07.05.12.07.19c.11.29.22.58.31.88s.17.64.23,1c0,.08,0,.27,0,.06s0,0,0,.1a4.18,4.18,0,0,1,0,.5c0,.06,0,.13,0,.19,0,.27.07-.24,0-.07a4.1,4.1,0,0,0-.11.4c0-.06.15-.29,0-.1s-.09.16-.14.24,0-.11.07-.08l-.2.21a1.51,1.51,0,0,0,0,2.13,1.54,1.54,0,0,0,2.12,0,4.91,4.91,0,0,0,1-4.88,9.55,9.55,0,0,0-.82-2.26,2.5,2.5,0,0,0-1.38-1.2,3.69,3.69,0,0,0-1.55-.13,8.46,8.46,0,0,0-5.31,1.73,4.25,4.25,0,0,0-1.05,5.1c.82,1.64,2.66,2.5,4.27,3.17a1.5,1.5,0,0,0,1.84-1.05,1.55,1.55,0,0,0-1.05-1.85Z"/><path class="cls-3" d="M373,579.48c4.17-2.76,9.2-3.36,13.84-5a33.8,33.8,0,0,0,11.68-7c7.34-6.6,11.79-15.69,14.51-25A159.74,159.74,0,0,0,417,524.17h-2.89A199,199,0,0,1,420.27,549c1.25,7.09,1.87,15-1.1,21.72-2.79,6.37-8.74,11-15,13.8a38.67,38.67,0,0,1-18.76,3,36,36,0,0,1-19.82-7.84c-1.48-1.22-3.62.89-2.12,2.12,10.76,8.87,26.13,11.18,39.21,6.51,6.8-2.43,13.3-6.79,17.31-12.89,4.35-6.61,4.76-14.88,3.84-22.51-1.2-10-3.9-20-6.91-29.58-.4-1.3-2.63-1.55-2.89,0-1.73,10.33-3.63,20.94-8.59,30.29-4.09,7.7-10.44,14.73-18.8,17.77-5.06,1.84-10.58,2.43-15.15,5.46-1.6,1.06-.1,3.66,1.52,2.59Z"/><path d="M222.12,352c-.82-4.58-6.23-6.69-10.32-5.25-4.66,1.64-7.84,6.49-8.77,11.19s.19,9.94,4.21,12.92c3.28,2.42,8.18,3.09,11.68.75,4.25-2.84,4.63-8.35,4.82-13l.78-19.34c.5-12.42,1.41-25-.17-37.36-.21-1.71-.47-3.42-.79-5.12-.17-.93-1.11-3.12-.15-3.74a7.32,7.32,0,0,1,2.28-.49l2.42-.43,5.34-.94,21.36-3.76c1.9-.34,1.1-3.23-.79-2.9l-17.24,3-8.49,1.5-4.13.72a6,6,0,0,0-3,1.22c-1.89,1.72-.84,4.46-.44,6.58a84.27,84.27,0,0,1,1.11,8.36,156.35,156.35,0,0,1,.36,16.77c-.29,11.63-.89,23.27-1.36,34.9-.16,3.9,0,9.69-4,11.79-3.21,1.65-7.64.09-9.53-2.85-2.76-4.28-1.53-10.29,1.59-14,1.48-1.79,3.67-3.42,6.11-3.25a4.49,4.49,0,0,1,4.3,3.53c.34,1.89,3.24,1.09,2.9-.8Z"/><path d="M1411.88,323c-3.38,3.41-7,7.1-8.18,11.9-1.07,4.26-.17,9.06,3.5,11.79a12,12,0,0,0,11.09,1.21c4.07-1.56,6.87-5.08,8.45-9.05,1.89-4.75,1.85-9.95,1.35-15-.57-5.75-1.31-11.42-1.38-17.2s.23-11.44.62-17.14c.1-1.47.21-2.93.32-4.4a11.07,11.07,0,0,1,.5-3.58c.42-.95,1.38-1.08,2.31-1.21,1.56-.23,3.13-.39,4.7-.58l39.33-4.83-1.5-1.5q2,21.78,3.69,43.59c.28,3.64.55,7.27.81,10.91a21.94,21.94,0,0,1-.31,7.32c-.52,1.92-1.67,3.86-3.92,3.72-2.74-.16-5.73-2.51-7.54-4.43a9.82,9.82,0,0,1-2.93-8,7,7,0,0,1,4.57-5.9c1.84-.56,1.06-3.45-.8-2.89-5.75,1.74-8.15,8.67-6.06,14a16.51,16.51,0,0,0,6,7.32c2.6,1.86,6.13,3.69,9.34,2.4,5.48-2.21,4.94-9.85,4.6-14.59q-.9-12.53-1.93-25-1.17-14.25-2.5-28.48c-.06-.73-.63-1.61-1.5-1.5l-33.15,4.07-8.41,1c-2.17.27-4.92.19-6.57,1.87s-1.54,4-1.69,6c-.2,2.69-.4,5.38-.56,8.08-.33,5.54-.53,11.09-.33,16.64s1.08,10.78,1.48,16.19c.34,4.6.14,9.42-2,13.59-1.82,3.48-5,6.16-9,6.31-4.57.17-8-2.91-7.91-7.57.1-5.37,4.21-9.45,7.74-13a1.5,1.5,0,0,0-2.12-2.12Z"/><path class="cls-4" d="M669.44,284.16c-85.24-13.49-134.29-46.36-187,8.52s-64.72,119.9-64.72,119.9-75.56,93.25,43.4,139.08,149.62,73,202.36,48S786.89,454.67,786.89,454.67s13.84-87.92-28.8-108.17-57.61-8-72.57-24S696.37,288.42,669.44,284.16Z"/></svg>