<svg id="Layer_1" data-name="Layer 1" xmlns="http://www.w3.org/2000/svg" viewBox="0 0 1920 1080"><defs><style>.cls-1{stroke:#fff;stroke-miterlimit:10;stroke-width:10px;}.cls-2{font-size:65.66px;font-family:Slackey-Regular, Slackey;}.cls-3{font-size:125.24px;font-family:SukhumvitSet-Text, Sukhumvit Set;}.cls-4{fill:#4d4d4d;}</style></defs><title>42-teeth</title><path class="cls-1" d="M577.5,282,571,385.27,539,386.68l.28-54.45-14.49,43.9H512.36l-11.11-39.26-.14,45.59-32.51,1L470,286.22l36.16-1.41,14.35,46.57L539.66,282Z"/><path class="cls-1" d="M668.67,334.9a51.24,51.24,0,0,1-1.47,12.35,48.73,48.73,0,0,1-4.26,11.15,45.93,45.93,0,0,1-6.75,9.53,43.11,43.11,0,0,1-19.73,12.24,43.54,43.54,0,0,1-12.39,1.72A44.12,44.12,0,0,1,612,380.28a45.79,45.79,0,0,1-10.73-4.54,43.64,43.64,0,0,1-15.93-16.18,46.71,46.71,0,0,1-4.43-10.8,45,45,0,0,1-1.59-12,49.16,49.16,0,0,1,1.48-12,48.31,48.31,0,0,1,11-20.65,44.31,44.31,0,0,1,8.83-7.53,42.29,42.29,0,0,1,10.59-4.92,40.66,40.66,0,0,1,12-1.76A52.48,52.48,0,0,1,641.84,293a39.39,39.39,0,0,1,23.56,23.25A50.59,50.59,0,0,1,668.67,334.9Zm-31.23,1.83a19.64,19.64,0,0,0-.88-5.87,16.16,16.16,0,0,0-2.57-5.07,13.18,13.18,0,0,0-4.18-3.59,11.8,11.8,0,0,0-5.74-1.37,14,14,0,0,0-5.91,1.2,13.6,13.6,0,0,0-4.46,3.27,14.1,14.1,0,0,0-2.85,4.85,17.41,17.41,0,0,0-1,5.88,21.54,21.54,0,0,0,.85,5.91,17.53,17.53,0,0,0,2.53,5.34,13.35,13.35,0,0,0,4.19,3.87,11.1,11.1,0,0,0,5.8,1.48,13.19,13.19,0,0,0,5.94-1.3,13.42,13.42,0,0,0,4.47-3.52,16.23,16.23,0,0,0,2.82-5.1A18.51,18.51,0,0,0,637.44,336.73Z"/><path class="cls-1" d="M760.55,334.9a50.75,50.75,0,0,1-1.48,12.35,48.24,48.24,0,0,1-4.25,11.15,46.35,46.35,0,0,1-6.76,9.53,43.2,43.2,0,0,1-32.11,14,44.25,44.25,0,0,1-12.07-1.61,45.72,45.72,0,0,1-10.72-4.54,42.91,42.91,0,0,1-9-7,43.64,43.64,0,0,1-6.9-9.14,47.15,47.15,0,0,1-4.43-10.8,45,45,0,0,1-1.58-12,49,49,0,0,1,5.73-23.07,47.65,47.65,0,0,1,6.72-9.57,44,44,0,0,1,8.83-7.53,42.29,42.29,0,0,1,10.59-4.92,40.54,40.54,0,0,1,12-1.76A52.44,52.44,0,0,1,733.71,293a39.45,39.45,0,0,1,23.57,23.25A50.59,50.59,0,0,1,760.55,334.9Zm-31.24,1.83a20,20,0,0,0-.87-5.87,16.37,16.37,0,0,0-2.57-5.07,13.21,13.21,0,0,0-4.19-3.59,11.73,11.73,0,0,0-5.73-1.37A13.93,13.93,0,0,0,710,322a13.54,13.54,0,0,0-4.47,3.27,14.43,14.43,0,0,0-2.85,4.85,17.65,17.65,0,0,0-1,5.88,21.53,21.53,0,0,0,.84,5.91,17.55,17.55,0,0,0,2.54,5.34,13.32,13.32,0,0,0,4.18,3.87,11.15,11.15,0,0,0,5.8,1.48,13.23,13.23,0,0,0,5.95-1.3,13.42,13.42,0,0,0,4.47-3.52,16.21,16.21,0,0,0,2.81-5.1A18.24,18.24,0,0,0,729.31,336.73Z"/><text class="cls-2" transform="translate(791.89 360.58)">Quack!</text><path class="cls-1" d="M472.5,449,466,552.27,434,553.68l.28-54.45-14.49,43.9H407.36l-11.11-39.26-.14,45.59-32.51,1L365,453.22l36.16-1.41,14.35,46.57L434.66,449Z"/><path class="cls-1" d="M563.67,501.9a51.24,51.24,0,0,1-1.47,12.35,48.73,48.73,0,0,1-4.26,11.15,45.93,45.93,0,0,1-6.75,9.53,43.11,43.11,0,0,1-19.73,12.24,43.54,43.54,0,0,1-12.39,1.72A44.12,44.12,0,0,1,507,547.28a45.79,45.79,0,0,1-10.73-4.54,43.64,43.64,0,0,1-15.93-16.18,46.71,46.71,0,0,1-4.43-10.8,45,45,0,0,1-1.59-12,49.16,49.16,0,0,1,1.48-12,48.31,48.31,0,0,1,11-20.65,44.31,44.31,0,0,1,8.83-7.53,42.29,42.29,0,0,1,10.59-4.92,40.66,40.66,0,0,1,12-1.76A52.48,52.48,0,0,1,536.84,460a39.39,39.39,0,0,1,23.56,23.25A50.59,50.59,0,0,1,563.67,501.9Zm-31.23,1.83a19.64,19.64,0,0,0-.88-5.87,16.16,16.16,0,0,0-2.57-5.07,13.18,13.18,0,0,0-4.18-3.59,11.8,11.8,0,0,0-5.74-1.37,14,14,0,0,0-5.91,1.2,13.6,13.6,0,0,0-4.46,3.27,14.1,14.1,0,0,0-2.85,4.85,17.41,17.41,0,0,0-1,5.88,21.54,21.54,0,0,0,.85,5.91,17.53,17.53,0,0,0,2.53,5.34,13.35,13.35,0,0,0,4.19,3.87,11.1,11.1,0,0,0,5.8,1.48,13.19,13.19,0,0,0,5.94-1.3,13.42,13.42,0,0,0,4.47-3.52,16.23,16.23,0,0,0,2.82-5.1A18.51,18.51,0,0,0,532.44,503.73Z"/><path class="cls-1" d="M655.55,501.9a50.75,50.75,0,0,1-1.48,12.35,48.24,48.24,0,0,1-4.25,11.15,46.35,46.35,0,0,1-6.76,9.53,43.2,43.2,0,0,1-32.11,14,44.25,44.25,0,0,1-12.07-1.61,45.72,45.72,0,0,1-10.72-4.54,42.91,42.91,0,0,1-9-7,43.64,43.64,0,0,1-6.9-9.14,47.15,47.15,0,0,1-4.43-10.8,45,45,0,0,1-1.58-12,49,49,0,0,1,5.73-23.07,47.65,47.65,0,0,1,6.72-9.57,44,44,0,0,1,8.83-7.53,42.29,42.29,0,0,1,10.59-4.92,40.54,40.54,0,0,1,12-1.76A52.44,52.44,0,0,1,628.71,460a39.45,39.45,0,0,1,23.57,23.25A50.59,50.59,0,0,1,655.55,501.9Zm-31.24,1.83a20,20,0,0,0-.87-5.87,16.37,16.37,0,0,0-2.57-5.07,13.21,13.21,0,0,0-4.19-3.59,11.73,11.73,0,0,0-5.73-1.37A13.93,13.93,0,0,0,605,489a13.54,13.54,0,0,0-4.47,3.27,14.43,14.43,0,0,0-2.85,4.85,17.65,17.65,0,0,0-1,5.88,21.53,21.53,0,0,0,.84,5.91,17.55,17.55,0,0,0,2.54,5.34,13.32,13.32,0,0,0,4.18,3.87,11.15,11.15,0,0,0,5.8,1.48,13.23,13.23,0,0,0,5.95-1.3,13.42,13.42,0,0,0,4.47-3.52,16.21,16.21,0,0,0,2.81-5.1A18.24,18.24,0,0,0,624.31,503.73Z"/><text class="cls-2" transform="translate(701.89 527.58)">Quack!</text><path class="cls-1" d="M498.5,130,492,233.27,460,234.68l.28-54.45-14.49,43.9H433.36l-11.11-39.26-.14,45.59-32.51,1L391,134.22l36.16-1.41,14.35,46.57L460.66,130Z"/><path class="cls-1" d="M589.67,182.9a51.24,51.24,0,0,1-1.47,12.35,48.73,48.73,0,0,1-4.26,11.15,45.93,45.93,0,0,1-6.75,9.53,43.11,43.11,0,0,1-19.73,12.24,43.54,43.54,0,0,1-12.39,1.72A44.12,44.12,0,0,1,533,228.28a45.79,45.79,0,0,1-10.73-4.54,43.64,43.64,0,0,1-15.93-16.18,46.71,46.71,0,0,1-4.43-10.8,45,45,0,0,1-1.59-12,49.16,49.16,0,0,1,1.48-12,48.31,48.31,0,0,1,11-20.65,44.31,44.31,0,0,1,8.83-7.53,42.29,42.29,0,0,1,10.59-4.92,40.66,40.66,0,0,1,12-1.76A52.48,52.48,0,0,1,562.84,141a39.39,39.39,0,0,1,23.56,23.25A50.59,50.59,0,0,1,589.67,182.9Zm-31.23,1.83a19.64,19.64,0,0,0-.88-5.87,16.16,16.16,0,0,0-2.57-5.07,13.18,13.18,0,0,0-4.18-3.59,11.8,11.8,0,0,0-5.74-1.37,14,14,0,0,0-5.91,1.2,13.6,13.6,0,0,0-4.46,3.27,14.1,14.1,0,0,0-2.85,4.85,17.41,17.41,0,0,0-1,5.88,21.54,21.54,0,0,0,.85,5.91,17.53,17.53,0,0,0,2.53,5.34,13.35,13.35,0,0,0,4.19,3.87,11.1,11.1,0,0,0,5.8,1.48,13.19,13.19,0,0,0,5.94-1.3,13.42,13.42,0,0,0,4.47-3.52,16.23,16.23,0,0,0,2.82-5.1A18.51,18.51,0,0,0,558.44,184.73Z"/><path class="cls-1" d="M681.55,182.9a50.75,50.75,0,0,1-1.48,12.35,48.24,48.24,0,0,1-4.25,11.15,46.35,46.35,0,0,1-6.76,9.53,43.2,43.2,0,0,1-32.11,14,44.25,44.25,0,0,1-12.07-1.61,45.72,45.72,0,0,1-10.72-4.54,42.91,42.91,0,0,1-9-7,43.64,43.64,0,0,1-6.9-9.14,47.15,47.15,0,0,1-4.43-10.8,45,45,0,0,1-1.58-12,49,49,0,0,1,5.73-23.07,47.65,47.65,0,0,1,6.72-9.57,44,44,0,0,1,8.83-7.53,42.29,42.29,0,0,1,10.59-4.92,40.54,40.54,0,0,1,12-1.76A52.44,52.44,0,0,1,654.71,141a39.45,39.45,0,0,1,23.57,23.25A50.59,50.59,0,0,1,681.55,182.9Zm-31.24,1.83a20,20,0,0,0-.87-5.87,16.37,16.37,0,0,0-2.57-5.07,13.21,13.21,0,0,0-4.19-3.59,11.73,11.73,0,0,0-5.73-1.37A13.93,13.93,0,0,0,631,170a13.54,13.54,0,0,0-4.47,3.27,14.43,14.43,0,0,0-2.85,4.85,17.65,17.65,0,0,0-1,5.88,21.53,21.53,0,0,0,.84,5.91,17.55,17.55,0,0,0,2.54,5.34,13.32,13.32,0,0,0,4.18,3.87,11.15,11.15,0,0,0,5.8,1.48,13.23,13.23,0,0,0,5.95-1.3,13.42,13.42,0,0,0,4.47-3.52,16.21,16.21,0,0,0,2.81-5.1A18.24,18.24,0,0,0,650.31,184.73Z"/><text class="cls-2" transform="translate(715.89 200.58)">Quack!</text><text class="cls-3" transform="translate(1034 548.6)">Ding</text><path d="M1479.76,791.71,1568.34,738c21-12.73,45.19-27.56,53.55-52.09,2.63-7.72,3-15.81,2.86-23.9-.12-8.91-.56-18,2.31-26.54l-2.5.66a50.47,50.47,0,0,1,12.61,47.28,1.51,1.51,0,0,0,2.5,1.46A245,245,0,0,0,1675,642.37l-2.75-.36a49,49,0,0,1-7.29,41.25,46.35,46.35,0,0,1-8.38,9,1.51,1.51,0,0,0,.66,2.5c7.06,1.78,14.33,1.15,21.53,1.41,6.5.24,13.4,1.44,18,6.46a19.76,19.76,0,0,1,4.83,15.64,17,17,0,0,1-9.8,13.22,19,19,0,0,1-18.27-.89l.54,2c2.49-4.75,1.2-10.24-2-14.31-3.8-4.84-9.83-6.69-15.8-6.74a48.66,48.66,0,0,0-9.85,1.1c-2.83.56-5.78,1.23-8,3.15-4,3.42-3.37,9.51-.5,13.44,4.23,5.77,12.06,6.25,18.61,6.34l-1.3-2.26c-5.72,10-19.92,12.69-29.81,7.61a18.72,18.72,0,0,1-7.11-6.22,1.52,1.52,0,0,0-2.59,0,804.29,804.29,0,0,0-76.53,144.55q-8.66,21.36-16.09,43.19c-.63,1.83,2.27,2.62,2.89.8a800.62,800.62,0,0,1,68-148.21q11.63-19.76,24.36-38.82h-2.59c7.36,11,23.62,13.08,34.55,6.36a21.87,21.87,0,0,0,7.55-7.74,1.51,1.51,0,0,0-1.29-2.26c-4.85-.07-10.64-.12-14.59-3.39-2.78-2.3-4.82-7.22-2.27-10.41,1.52-1.9,4.12-2.5,6.39-3a52.55,52.55,0,0,1,8-1.18c5-.28,10.45.41,14.22,3.93,3.34,3.1,5.52,8.22,3.25,12.55a1.54,1.54,0,0,0,.53,2c11,7,27.3,2,31.62-10.51a22.69,22.69,0,0,0-2-18.4c-3.61-6.25-10-9.58-17-10.6-8.83-1.28-17.93.39-26.65-1.81l.66,2.51c11.79-9.72,18.52-25,18.34-40.22a49.18,49.18,0,0,0-1.89-12.93,1.52,1.52,0,0,0-2.74-.36,241.64,241.64,0,0,1-34.84,41.85l2.51,1.46a53.55,53.55,0,0,0-13.38-50.2,1.52,1.52,0,0,0-2.51.66c-5,14.81-.3,30.64-3.81,45.67-2.79,12-10.16,22.12-19,30.46-9.34,8.82-20.21,15.86-31.14,22.53q-21.36,13.05-42.78,26l-49.22,29.86c-1.65,1-.14,3.6,1.52,2.6Z"/><path d="M1664.33,741.23c.43-1.36.08-2.63,0-4-.08-1.62,1.3-.81,1.9.06.86,1.27,1.1,2.86,2,4.11a6.49,6.49,0,0,0,4,2.44,20,20,0,0,0,4.51.26c2,0,3.89,0,5.83.14a42.32,42.32,0,0,1,11,2.25,28.64,28.64,0,0,1,15,11.62c3.2,5.23,4,11.46,4.72,17.43.72,5.72,1.4,11.65,4.16,16.83,2.92,5.48,8.06,8.92,13.9,10.71,6.1,1.86,12.54,2.15,18.81,3.18a109.56,109.56,0,0,1,22.33,6.17c1.74.69,3.48,1.43,5.18,2.22.13.06.9.33,1,.49-.1-.22-.38.71-.37.7-.32.83-.67,1.66-1,2.47a42.92,42.92,0,0,1-5,8.14,57.44,57.44,0,0,1-14,12.67c-12.4,8.12-26.91,12-40.93,16.33-14.75,4.55-29.51,10-45,11.27-1.86.14-3.73.23-5.6.24a3.74,3.74,0,0,1-1.25,0c-.5-.22,0,.31-.21-.22a4.53,4.53,0,0,1-.05-1.33c0-.59,0-1.18,0-1.77a41.87,41.87,0,0,1,1.68-11,48.07,48.07,0,0,1,4.46-10.12c1.7-3,3.43-6.11,4.18-9.54a46.46,46.46,0,0,0,.6-11.36c-.1-3.48-.31-7.08-1.61-10.36-2.55-6.42-9.16-9.43-13.57-14.37a34.44,34.44,0,0,1-.24-45.54c1.26-1.45-.86-3.58-2.13-2.12a37.46,37.46,0,0,0-.91,48.42,47.25,47.25,0,0,0,7.53,7.09c2.73,2.18,5.44,4.52,6.65,7.91s1.25,7.3,1.33,11c.08,4,0,8-1.52,11.74-1.42,3.53-3.66,6.67-5.25,10.11a44.84,44.84,0,0,0-3.48,10.9,46.81,46.81,0,0,0-.66,5.68,20,20,0,0,0,.13,5.68c.41,1.63,1.87,2.16,3.39,2.2a58.82,58.82,0,0,0,6.08-.21,102.26,102.26,0,0,0,11.94-1.63,216.34,216.34,0,0,0,23.6-6.39c7.66-2.42,15.36-4.73,23-7.16a147.7,147.7,0,0,0,22.07-8.65c12-6.09,23-15.38,28.24-28,.6-1.43,1.43-3.13.37-4.55s-3.15-1.88-4.61-2.5a112.21,112.21,0,0,0-11.25-4.14,137.21,137.21,0,0,0-22.64-4.48c-6.2-.81-13.11-1.83-18.1-5.94s-6.57-10.09-7.52-16.08c-1-6.21-1.24-12.63-3.39-18.59A29.1,29.1,0,0,0,1701,746.7c-6.52-4-14.22-5.5-21.76-5.61-3-.05-7.42.95-9-2.34-.69-1.43-1.08-3-2.3-4.13a4.49,4.49,0,0,0-4-1.27,3.37,3.37,0,0,0-2.5,2.85c-.21,1.41.46,2.87,0,4.23-.58,1.84,2.31,2.63,2.9.8Z"/><path d="M1741.82,736.39a47.56,47.56,0,0,0,36.27,42.8c6.68,1.64,13.57,2.15,20.41,2.64,1.92.14,1.91-2.86,0-3-11-.79-22.32-1.72-32-7.46a45.48,45.48,0,0,1-17.86-20,42.37,42.37,0,0,1-3.83-15c-.13-1.92-3.13-1.93-3,0Z"/><path d="M1625,805c4,6.74,4.73,14.88,3.3,22.49-1.5,8.07-5.32,15.42-9.78,22.23-2.64,4-5.51,7.88-8.39,11.73-1.15,1.55,1.45,3,2.59,1.52,10.06-13.49,20.94-28.75,19-46.52a31.89,31.89,0,0,0-4.18-13A1.5,1.5,0,0,0,1625,805Z"/><path d="M1762.6,733.22c1.91,7.38,5.39,14.5,10.81,19.94a29.38,29.38,0,0,0,20.34,8.85,23.64,23.64,0,0,0,12.1-3.12,1.5,1.5,0,0,0-1.51-2.59c-6,3.47-13.32,3.39-19.66.89s-11.5-7.82-14.86-13.8a45.67,45.67,0,0,1-4.33-11c-.48-1.87-3.37-1.08-2.89.8Z"/><path d="M1602.63,814.89a51.65,51.65,0,0,1-17.8,34c-1.47,1.25.66,3.37,2.12,2.12a54.63,54.63,0,0,0,18.68-36.11c.18-1.92-2.82-1.9-3,0Z"/><path d="M927.46,706a143.16,143.16,0,0,1-62.14-66.09L863.26,642l33.59,23.9,16.64,11.83c4.83,3.44,9.86,7.89,15.82,9.16,5.77,1.24,11.24-1.19,16.05-4.17A101.74,101.74,0,0,0,959.28,672c8.79-7.89,16.82-16.75,26.66-23.39,9.38-6.33,21.42-11.49,32.92-8.68,9.31,2.27,18.3,10.26,19.54,20.12,1.43,11.46-9,18.77-16.57,25.44a172.89,172.89,0,0,0-52,84.42c-3.13,11.83-5.27,24.49-2.49,36.61a46.23,46.23,0,0,0,14.12,23.63c13.95,12.76,33.08,18.5,50.85,23.61,22.24,6.39,44.1,13.61,65.38,22.78a487.7,487.7,0,0,1,62.88,32.74A482.2,482.2,0,0,1,1218.23,951q6.58,5.56,13,11.35l1.06-2.56-128.9-8.27q-32.11-2.07-64.22-4.13c-20.71-1.33-41.42-2.76-62-5.22-20.36-2.44-40.68-5.87-60.48-11.29-16.71-4.57-34-11.4-44.72-25.69-18.29-24.3-14-60.08,1.73-84.49,8.58-13.31,20-24.51,30.05-36.67,9.22-11.16,18-23.64,20.57-38.21A51.68,51.68,0,0,0,925,735.1a1.53,1.53,0,0,0-1.1-1.44L835.66,708l-.4,2.95a324.57,324.57,0,0,1,84.38,3.5c1.88.33,2.69-2.56.79-2.89a327.11,327.11,0,0,0-85.17-3.61,1.5,1.5,0,0,0-.4,2.94l88.22,25.68L922,735.1c.57,15.55-6.84,29.26-16,41.29-9.59,12.55-20.93,23.66-30.39,36.33-17.77,23.79-25.31,57.82-11.55,85.35,7.54,15.08,21.23,24.78,36.65,30.77a198.11,198.11,0,0,0,27.25,7.94c10.27,2.38,20.63,4.31,31.05,5.9,42,6.41,84.66,8,127,10.69l130.47,8.37,15.82,1a1.51,1.51,0,0,0,1.06-2.56,487.67,487.67,0,0,0-183-104.33c-19-5.87-39-9.94-56.24-20.17-7.77-4.62-14.82-10.65-19.39-18.55-6.12-10.58-6.58-23-4.6-34.79,3.79-22.53,13.36-44.37,26.12-63.22a168.12,168.12,0,0,1,21.82-26.09c4-3.91,8.33-7.46,12.48-11.21,3.79-3.42,7.39-7.25,9.39-12,3.8-9,.13-18.84-6.71-25.31-7.66-7.25-17.88-9.55-28.11-7.61-24.19,4.57-38.27,26.85-57.07,40.37-4.76,3.43-10.64,7.56-16.81,6.87s-11.66-5.78-16.55-9.26L881.09,651l-16.31-11.6c-1.35-1-2.62.84-2,2a146.89,146.89,0,0,0,45.58,55.94A143.66,143.66,0,0,0,926,708.59c1.7.91,3.22-1.67,1.51-2.59Z"/><path d="M990.91,952.78l-42.1,41.93-12,12a1.5,1.5,0,0,0,2.12,2.12L981,966.88l12-12a1.5,1.5,0,0,0-2.12-2.12Z"/><path d="M974.21,673c2.25-4.92,5.84-12.26,12.39-11.45,7.67.95,10.32,9.67,12.09,15.93a1.51,1.51,0,0,0,2.9-.8c-2.15-7.55-5.58-17-14.61-18.08-8-1-12.52,6.69-15.36,12.88-.8,1.75,1.79,3.27,2.59,1.52Z"/><path class="cls-4" d="M373.8,681.46c4.88-19.33-11.15-36.07-25.14-46.82-8.27-6.35-17.21-12-27.14-15.29-10.35-3.47-21.37-4.38-32.21-4.78-16.89-.62-39.29-2.3-48.7,15.15-3.86,7.15-4.47,15.52-4.67,23.48-.2,8.54.24,17.23-1.49,25.65a60.67,60.67,0,0,1-5.24,14.27c-2.35,4.84-4.71,9.64-6.79,14.6a181.54,181.54,0,0,0-9.91,31.38c-2.25,10.29-3.9,21-2.55,31.55A45.59,45.59,0,0,0,221.51,796C235,810.72,255.67,815.5,275,813.59a108.94,108.94,0,0,0,49.37-17.91,123.75,123.75,0,0,0,35.23-35.76,116.32,116.32,0,0,0,17.72-46.6,107.78,107.78,0,0,0,1.05-12.3c.06-1.93-2.94-1.93-3,0a109.62,109.62,0,0,1-12.12,46.57,121.58,121.58,0,0,1-30.15,37.84,110.82,110.82,0,0,1-42.47,22.3c-18.62,4.94-39.78,5.16-56.61-5.3a46,46,0,0,1-17.23-18.58c-4.42-9.06-4.89-19.45-3.87-29.31a154.42,154.42,0,0,1,6.7-30.56,219.49,219.49,0,0,1,12.16-29.34,66.08,66.08,0,0,0,5.32-14,69.63,69.63,0,0,0,1.52-12.12c.41-8.18-.08-16.41.88-24.56.9-7.56,3.51-15,9.56-19.94,6.71-5.53,15.95-6.6,24.34-6.77,4.75-.09,9.51.07,14.26.23,5.35.17,10.71.44,16,1.07a78,78,0,0,1,29.33,9.19,111.05,111.05,0,0,1,23.53,17.59c6.39,6.31,12.23,13.93,14.37,22.82a25.91,25.91,0,0,1,0,12.47c-.47,1.87,2.42,2.67,2.89.8Z"/><path class="cls-4" d="M259.14,648.68a12.45,12.45,0,0,1-.53-12.33c1.94-3.84,6.83-7.62,11.14-5,3.53,2.14,5,7,4.95,10.94,0,5.39-2,11.33-7.12,13.87a8,8,0,0,1-7.87-.12,6.46,6.46,0,0,1-3.07-6.45c.38-1.88-2.51-2.69-2.89-.79-1.3,6.38,4.6,11.94,10.85,11.28,7-.75,11.6-7,12.71-13.57,1-5.64.06-12.34-4.34-16.44-4.75-4.43-11.61-2.45-15.35,2.3a15.63,15.63,0,0,0-1.07,17.84c1.05,1.61,3.65.11,2.59-1.52Z"/><path class="cls-4" d="M349.54,725.68a34.92,34.92,0,0,1-12.78-15.33c-.45-1.05-1.48-3.19-.25-4.07,1.06-.77,2.77-.25,3.87.16a14.08,14.08,0,0,1,6.29,5.29,45.38,45.38,0,0,1,4.7,9.27,1.55,1.55,0,0,0,1.85,1,1.51,1.51,0,0,0,1-1.85c-2.62-6.53-6-14-13.09-16.65a7.86,7.86,0,0,0-5.32-.27,4.43,4.43,0,0,0-2.89,4.35,14.8,14.8,0,0,0,1.94,5.82,35.9,35.9,0,0,0,3.19,5.29,38.66,38.66,0,0,0,9.94,9.53c1.61,1.07,3.12-1.53,1.51-2.59Z"/><path class="cls-4" d="M350.74,686.92A44,44,0,0,1,344.9,678c-1.28-2.59-3-5.86-.72-8.38a6.68,6.68,0,0,1,7.06-1.78c2.82.91,5,3.28,6.46,5.76,2.08,3.53,3,7.56,4.47,11.36.68,1.79,3.58,1,2.9-.8-2.69-7.13-4.62-16.21-12.73-19.11a9.74,9.74,0,0,0-9.67,1.86,7.7,7.7,0,0,0-2.48,4,9.59,9.59,0,0,0,.84,5.74A47,47,0,0,0,348.62,689c1.24,1.48,3.36-.65,2.12-2.12Z"/><path class="cls-4" d="M394.71,687.71a114.06,114.06,0,0,0,41.82,42.63c19.11,11.15,41.11,15.94,63,17a251.91,251.91,0,0,0,34-.84c5.81-.51,11.67-1.22,17.5-.66a30.59,30.59,0,0,1,15.29,6.1A83.73,83.73,0,0,1,578,762.75a129.63,129.63,0,0,1,9.57,11.61,137.41,137.41,0,0,1,26.39,85.12c-.36,10.36-1.36,21.73-6.73,30.85-4.88,8.31-13.36,13.51-22.29,16.57-10,3.42-20.64,4.67-31.11,5.22a195.38,195.38,0,0,1-34.95-1.41c-23.65-3-46.71-9.77-69-18.06-10.61-3.95-21.16-8.15-31.4-13-9.83-4.62-19.45-9.94-28-16.72s-15.27-14.83-21.43-23.59-11.53-17.61-17.89-26a115.05,115.05,0,0,0-10-11.7A1.5,1.5,0,0,0,339,803.8c15.18,15.32,24.14,35.47,38.66,51.34,15,16.38,35.37,26,55.58,34.23,22.35,9.13,45.33,17,69.06,21.68,23,4.51,46.92,6,70.1,2.05,9.41-1.62,19-4.46,26.87-10.05a36.78,36.78,0,0,0,9.74-10A44.71,44.71,0,0,0,615,877.59a119.57,119.57,0,0,0,1.76-31.15,140.54,140.54,0,0,0-34.31-83.22c-6.81-7.75-14.83-16.25-25-19.21-5.76-1.68-11.85-1.52-17.77-1-5.76.46-11.5,1-17.27,1.31-22.81,1.13-46.15-.52-67.69-8.62A110.11,110.11,0,0,1,397.3,686.2c-.94-1.69-3.54-.18-2.59,1.51Z"/><path class="cls-4" d="M442.26,803.19c6.83,2.09,14,4.38,19.69,8.93a21.52,21.52,0,0,1,6.37,8.15c1.53,3.56,2.08,7.47,2.91,11.23.9,4.16,2.2,8.19,5,11.5,1.24,1.48,3.35-.65,2.12-2.12-2.5-3-3.49-6.83-4.29-10.55s-1.47-7.76-3.05-11.4c-3-6.87-9.27-11.35-15.93-14.32a103.91,103.91,0,0,0-12-4.31c-1.85-.57-2.65,2.33-.8,2.89Z"/><path class="cls-4" d="M445.34,783a52.3,52.3,0,0,0,35.75-16.18c1.32-1.4-.79-3.52-2.12-2.12A49.18,49.18,0,0,1,445.34,780c-1.92.07-1.93,3.07,0,3Z"/><path class="cls-4" d="M510.79,748A70,70,0,0,1,516.64,718a72.69,72.69,0,0,1,3.52-6.93c.58-1,1.18-2,1.81-2.94s1.23-2,2.5-1.16c3.4,2.29,4.66,7.26,4.86,11.09.27,5-.77,9.89-2,14.65a1.5,1.5,0,0,0,2.89.8c2.36-8.89,4.48-20.72-2.81-28-1.91-1.9-4.76-2.79-6.79-.54a34.53,34.53,0,0,0-4.47,7.24A73.73,73.73,0,0,0,510,728.32,72.75,72.75,0,0,0,507.79,748c0,1.93,3,1.93,3,0Z"/><path class="cls-4" d="M482.54,914.19q-10.19,8.52-20,17.53c-1.57,1.44-3.23,2.84-4.68,4.4a5.59,5.59,0,0,0-1.8,4.51,8.51,8.51,0,0,0,2.5,4.49,37.56,37.56,0,0,0,4.08,3.9,39.09,39.09,0,0,0,19.78,8.76c6,.74,13.42-.76,16-7,1.69-4,.79-8.61-.13-12.73A81.83,81.83,0,0,0,493.78,924a1.51,1.51,0,0,0-2-.54,1.55,1.55,0,0,0-.54,2.06A78.46,78.46,0,0,1,495,936.82c.84,3.34,1.8,7,1.38,10.44-.76,6.25-7.09,8-12.51,7.65-6.22-.42-12.41-3.15-17.41-6.76a35.83,35.83,0,0,1-3.73-3.12,17.5,17.5,0,0,1-3.18-3.59c-.89-1.56-.13-2.6,1-3.72,1.36-1.32,2.77-2.59,4.16-3.88q9.76-9,20-17.53c1.48-1.24-.65-3.35-2.12-2.12Z"/><path d="M244.3,593.71A211.89,211.89,0,0,0,230.84,547c-2.87-6.87-5.85-14-10-20.18-3.61-5.42-8.61-10.18-15.32-11.09-7.62-1-15.05,2.8-21.27,6.79-2.8,1.8-5.57,4-6.9,7.13a8.46,8.46,0,0,0,.77,8,6.2,6.2,0,0,0,8.06,1.94,15.82,15.82,0,0,0,6.8-7c3.3-6.26,3.12-13.59,1.18-20.23-2.3-7.86-6.49-15.2-10.07-22.53l-11.52-23.61-2.82-5.79c-.85-1.73-3.44-.21-2.59,1.52,6.89,14.13,14,28.17,20.67,42.43,2.89,6.19,5.43,13,4.6,19.92a19.09,19.09,0,0,1-2.86,8.18c-1.36,2.1-4.29,5.42-7.12,4.81-2.24-.48-3.06-3.46-2.68-5.43.57-2.93,3.34-5,5.67-6.54,5.57-3.65,12.36-7.42,19.26-6.69,6,.63,10.48,5.06,13.66,9.86,3.72,5.63,6.47,12,9.11,18.17A210.86,210.86,0,0,1,241.4,594.5c.32,1.9,3.21,1.1,2.9-.79Z"/><path d="M843.64,646.34q-19.71-20.21-37.69-42-5.13-6.23-10.1-12.56a1.51,1.51,0,0,0-2.56,1.06,182,182,0,0,0,7.75,34l1.84-1.84a153.09,153.09,0,0,1-20-4.51c-1.2-.36-2,.78-1.84,1.85a26.89,26.89,0,0,0,10.59,17.48l.76-2.79q-18.27,1.54-36.54,3a1.51,1.51,0,0,0-.4,2.95l13.36,5.58a44.44,44.44,0,0,1,6.26,2.67c1.68,1-.54,2.23-1.56,2.7-1.83.84-3.8,1.42-5.67,2.19s-3.83,1.66-5.71,2.57a105,105,0,0,0-11,6.17,108.66,108.66,0,0,0-11.47,8.54c-1.07.91-.13,2.48,1.06,2.56l62.56,4.39c1.93.13,1.92-2.87,0-3L740.67,673l1.06,2.56a103.62,103.62,0,0,1,23.64-15.08q3.18-1.47,6.47-2.71c1.88-.71,3.83-1.28,5.35-2.66a3.88,3.88,0,0,0,1.09-4.76c-1-1.85-3.44-2.45-5.26-3.2l-16.81-7-.4,2.94q18.27-1.46,36.54-3a1.52,1.52,0,0,0,.76-2.8,24,24,0,0,1-9.22-15.69L782,623.42a151.27,151.27,0,0,0,20.05,4.51c1,.16,2.24-.65,1.84-1.85a179.31,179.31,0,0,1-7.64-33.23l-2.56,1.06q17.43,22.19,36.66,42.88,5.49,5.9,11.13,11.67c1.35,1.38,3.47-.74,2.12-2.12Z"/><path d="M1554.12,215c-.82-4.58-6.23-6.69-10.32-5.25-4.66,1.64-7.84,6.49-8.77,11.19s.19,9.94,4.21,12.92c3.28,2.42,8.18,3.09,11.68.75,4.25-2.84,4.63-8.35,4.82-13l.78-19.34c.5-12.42,1.41-25-.17-37.36-.21-1.71-.47-3.42-.79-5.12-.17-.93-1.11-3.12-.15-3.74a7.32,7.32,0,0,1,2.28-.49l2.42-.43,5.34-.94,21.36-3.76c1.9-.34,1.1-3.23-.79-2.9l-17.24,3-8.49,1.5-4.13.72a6,6,0,0,0-3.05,1.22c-1.89,1.72-.84,4.46-.44,6.58a84.27,84.27,0,0,1,1.11,8.36,156.35,156.35,0,0,1,.36,16.77c-.29,11.63-.89,23.27-1.36,34.9-.16,3.9,0,9.69-4,11.79-3.21,1.65-7.64.09-9.53-2.85-2.76-4.28-1.53-10.29,1.59-14.05,1.48-1.79,3.67-3.42,6.11-3.25a4.49,4.49,0,0,1,4.3,3.53c.34,1.89,3.24,1.09,2.9-.8Z"/><path d="M1332.12,658c-.82-4.58-6.23-6.69-10.32-5.25-4.66,1.64-7.84,6.49-8.77,11.19s.19,9.94,4.21,12.92c3.28,2.42,8.18,3.09,11.68.75,4.25-2.84,4.63-8.35,4.82-13l.78-19.34c.5-12.42,1.41-25-.17-37.36-.21-1.71-.47-3.42-.79-5.12-.17-.93-1.11-3.12-.15-3.74a7.32,7.32,0,0,1,2.28-.49l2.42-.43,5.34-.94,21.36-3.76c1.9-.34,1.1-3.23-.79-2.9l-17.24,3-8.49,1.5-4.13.72a6,6,0,0,0-3.05,1.22c-1.89,1.72-.84,4.46-.44,6.58a84.27,84.27,0,0,1,1.11,8.36,156.35,156.35,0,0,1,.36,16.77c-.29,11.63-.89,23.27-1.36,34.9-.16,3.9,0,9.69-4,11.79-3.21,1.65-7.64.09-9.53-2.85-2.76-4.28-1.53-10.29,1.59-14,1.48-1.79,3.67-3.42,6.11-3.25a4.49,4.49,0,0,1,4.3,3.53c.34,1.89,3.24,1.09,2.9-.8Z"/><path d="M186.12,183c-.82-4.58-6.23-6.69-10.32-5.25-4.66,1.64-7.84,6.49-8.77,11.19s.19,9.94,4.21,12.92c3.28,2.42,8.18,3.09,11.68.75,4.25-2.84,4.63-8.35,4.82-13l.78-19.34c.5-12.42,1.41-25-.17-37.36-.21-1.71-.47-3.42-.79-5.12-.17-.93-1.11-3.12-.15-3.74a7.32,7.32,0,0,1,2.28-.49l2.42-.43,5.34-.94,21.36-3.76c1.9-.34,1.1-3.23-.79-2.9l-17.24,3-8.49,1.5-4.13.72a6,6,0,0,0-3,1.22c-1.89,1.72-.84,4.46-.44,6.58a84.27,84.27,0,0,1,1.11,8.36,156.35,156.35,0,0,1,.36,16.77c-.29,11.63-.89,23.27-1.36,34.9-.16,3.9,0,9.69-4,11.79-3.21,1.65-7.64.09-9.53-2.85-2.76-4.28-1.53-10.29,1.59-14.05,1.48-1.79,3.67-3.42,6.11-3.25a4.49,4.49,0,0,1,4.3,3.53c.34,1.89,3.24,1.09,2.9-.8Z"/><path d="M1801.88,689c-3.38,3.41-7,7.1-8.18,11.9-1.07,4.26-.17,9.06,3.5,11.79a12,12,0,0,0,11.09,1.21c4.07-1.56,6.87-5.08,8.45-9.05,1.89-4.75,1.85-9.95,1.35-15-.57-5.75-1.31-11.42-1.38-17.2s.23-11.44.62-17.14c.1-1.47.21-2.93.32-4.4a11.07,11.07,0,0,1,.5-3.58c.42-1,1.38-1.08,2.31-1.21,1.56-.23,3.13-.39,4.7-.58l39.33-4.83-1.5-1.5q2,21.78,3.69,43.59c.28,3.64.55,7.27.81,10.91a21.94,21.94,0,0,1-.31,7.32c-.52,1.92-1.67,3.86-3.92,3.72-2.74-.16-5.73-2.51-7.54-4.43a9.82,9.82,0,0,1-2.93-8,7,7,0,0,1,4.57-5.9c1.84-.56,1.06-3.45-.8-2.89-5.75,1.74-8.15,8.67-6.06,14a16.51,16.51,0,0,0,6,7.32c2.6,1.86,6.13,3.69,9.34,2.4,5.48-2.21,4.94-9.85,4.6-14.59q-.9-12.53-1.93-25-1.17-14.25-2.5-28.48c-.06-.73-.63-1.61-1.5-1.5l-33.15,4.07-8.41,1c-2.17.27-4.92.19-6.57,1.87s-1.54,3.95-1.69,6c-.2,2.69-.4,5.38-.56,8.08-.33,5.54-.53,11.09-.33,16.64s1.08,10.78,1.48,16.19c.34,4.6.14,9.42-2,13.59-1.82,3.48-5,6.16-9,6.31-4.57.17-8-2.91-7.91-7.57.1-5.37,4.21-9.45,7.74-13a1.5,1.5,0,0,0-2.12-2.12Z"/><path d="M1600.88,476c-3.38,3.41-7,7.1-8.18,11.9-1.07,4.26-.17,9.06,3.5,11.79a12,12,0,0,0,11.09,1.21c4.07-1.56,6.87-5.08,8.45-9.05,1.89-4.75,1.85-9.95,1.35-15-.57-5.75-1.31-11.42-1.38-17.2s.23-11.44.62-17.14c.1-1.47.21-2.93.32-4.4a11.07,11.07,0,0,1,.5-3.58c.42-.95,1.38-1.08,2.31-1.21,1.56-.23,3.13-.39,4.7-.58l39.33-4.83-1.5-1.5q2,21.78,3.69,43.59c.28,3.64.55,7.27.81,10.91a21.94,21.94,0,0,1-.31,7.32c-.52,1.92-1.67,3.86-3.92,3.72-2.74-.16-5.73-2.51-7.54-4.43a9.82,9.82,0,0,1-2.93-8,7,7,0,0,1,4.57-5.9c1.84-.56,1.06-3.45-.8-2.89-5.75,1.74-8.15,8.67-6.06,14a16.51,16.51,0,0,0,6,7.32c2.6,1.86,6.13,3.69,9.34,2.4,5.48-2.21,4.94-9.85,4.6-14.59q-.9-12.53-1.93-25-1.17-14.25-2.5-28.48c-.06-.73-.63-1.61-1.5-1.5l-33.15,4.07-8.41,1c-2.17.27-4.92.19-6.57,1.87s-1.54,4-1.69,6c-.2,2.69-.4,5.38-.56,8.08-.33,5.54-.53,11.09-.33,16.64s1.08,10.78,1.48,16.19c.34,4.6.14,9.42-2,13.59-1.82,3.48-5,6.16-9,6.31-4.57.17-8-2.91-7.91-7.57.1-5.37,4.21-9.45,7.74-13a1.5,1.5,0,0,0-2.12-2.12Z"/><path d="M1174.88,162c-3.38,3.41-7,7.1-8.18,11.9-1.07,4.26-.17,9.06,3.5,11.79a12,12,0,0,0,11.09,1.21c4.07-1.56,6.87-5.08,8.45-9.05,1.89-4.75,1.85-9.95,1.35-15-.57-5.75-1.31-11.42-1.38-17.2s.23-11.44.62-17.14c.1-1.47.21-2.93.32-4.4a11.07,11.07,0,0,1,.5-3.58c.42-1,1.38-1.08,2.31-1.21,1.56-.23,3.13-.39,4.7-.58l39.33-4.83-1.5-1.5q2,21.78,3.69,43.59c.28,3.64.55,7.27.81,10.91a21.94,21.94,0,0,1-.31,7.32c-.52,1.92-1.67,3.86-3.92,3.72-2.74-.16-5.73-2.51-7.54-4.43a9.82,9.82,0,0,1-2.93-7.95,7,7,0,0,1,4.57-5.9c1.84-.56,1.06-3.45-.8-2.89-5.75,1.74-8.15,8.67-6.06,14a16.51,16.51,0,0,0,6,7.32c2.6,1.86,6.13,3.69,9.34,2.4,5.48-2.21,4.94-9.85,4.6-14.59q-.9-12.52-1.93-25-1.17-14.25-2.5-28.48c-.06-.73-.63-1.61-1.5-1.5l-33.15,4.07-8.41,1c-2.17.27-4.92.19-6.57,1.87s-1.54,4-1.69,6c-.2,2.69-.4,5.38-.56,8.08-.33,5.54-.53,11.09-.33,16.64s1.08,10.78,1.48,16.19c.34,4.6.14,9.42-2,13.59-1.82,3.48-5,6.16-9,6.31-4.57.17-8-2.91-7.91-7.57.1-5.37,4.21-9.45,7.74-13a1.5,1.5,0,0,0-2.12-2.12Z"/><path d="M102.88,913c-3.38,3.41-7,7.1-8.18,11.9-1.07,4.26-.17,9.06,3.5,11.79a12,12,0,0,0,11.09,1.21c4.07-1.56,6.87-5.08,8.45-9.05,1.89-4.75,1.85-9.95,1.35-15-.57-5.75-1.31-11.42-1.38-17.2s.23-11.44.62-17.14c.1-1.47.21-2.93.32-4.4a11.07,11.07,0,0,1,.5-3.58c.42-1,1.38-1.08,2.31-1.21,1.56-.23,3.13-.39,4.7-.58L165.49,865l-1.5-1.5q2,21.78,3.69,43.59c.28,3.64.55,7.27.81,10.91a21.94,21.94,0,0,1-.31,7.32c-.52,1.92-1.67,3.86-3.92,3.72-2.74-.16-5.73-2.51-7.54-4.43a9.82,9.82,0,0,1-2.93-8,7,7,0,0,1,4.57-5.9c1.84-.56,1.06-3.45-.8-2.89-5.75,1.74-8.15,8.67-6.06,14a16.51,16.51,0,0,0,6,7.32c2.6,1.86,6.13,3.69,9.34,2.4,5.48-2.21,4.94-9.85,4.6-14.59q-.9-12.53-1.93-25-1.17-14.25-2.5-28.48c-.06-.73-.63-1.61-1.5-1.5l-33.15,4.07-8.41,1c-2.17.27-4.92.19-6.57,1.87s-1.54,3.95-1.69,6c-.2,2.69-.4,5.38-.56,8.08-.33,5.54-.53,11.09-.33,16.64s1.08,10.78,1.48,16.19c.34,4.6.14,9.42-2.05,13.59-1.82,3.48-5,6.16-9,6.31-4.57.17-8-2.91-7.91-7.57.1-5.37,4.21-9.45,7.74-13a1.5,1.5,0,0,0-2.12-2.12Z"/></svg>