<svg id="Layer_1" data-name="Layer 1" xmlns="http://www.w3.org/2000/svg" viewBox="0 0 1920 1080"><defs><style>.cls-1{fill:#3785e2;}.cls-1,.cls-2{opacity:0.5;}.cls-2{fill:#39b54a;}.cls-3{opacity:0.3;}.cls-4{fill:#4d4d4d;}</style></defs><ellipse class="cls-1" cx="1652.25" cy="848.38" rx="247.36" ry="117.49" transform="translate(-204.21 791.65) rotate(-25.43)"/><ellipse class="cls-1" cx="1220.2" cy="487.84" rx="151.49" ry="99.81"/><rect class="cls-2" x="858.48" y="751.21" width="437.92" height="263.17" transform="translate(305.44 -276.61) rotate(17.01)"/><rect class="cls-2" x="796.6" y="438.12" width="181.83" height="109.27" transform="translate(183.01 -238.11) rotate(17.01)"/><rect class="cls-2" x="908.6" y="238.12" width="181.83" height="109.27" transform="translate(129.39 -279.63) rotate(17.01)"/><rect class="cls-2" x="733.6" y="150.12" width="181.83" height="109.27" transform="translate(95.99 -232.28) rotate(17.01)"/><path class="cls-3" d="M645.08,705.16c-85.23-13.49-134.28-46.36-187,8.52s-64.71,119.9-64.71,119.9-75.56,93.25,43.39,139.08,149.63,73,202.37,48,123.44-145,123.44-145,13.84-87.92-28.8-108.17-57.61-8-72.57-24S672,709.42,645.08,705.16Z"/><path class="cls-3" d="M517.42,80.66C468.77,73,440.77,54.2,410.67,85.52S373.74,154,373.74,154s-43.13,53.22,24.76,79.38S483.9,275,514,260.71,584.46,178,584.46,178s7.9-50.18-16.44-61.74-32.88-4.56-41.42-13.68S532.79,83.09,517.42,80.66Z"/><path class="cls-3" d="M699.42,267.66c-48.65-7.7-76.65-26.46-106.75,4.86S555.74,341,555.74,341s-43.13,53.22,24.76,79.38S665.9,462,696,447.71,766.46,365,766.46,365s7.9-50.18-16.44-61.74-32.88-4.56-41.42-13.68S714.79,270.09,699.42,267.66Z"/><path class="cls-3" d="M479.42,469.66c-48.65-7.7-76.65-26.46-106.75,4.86S335.74,543,335.74,543s-43.13,53.22,24.76,79.38S445.9,664,476,649.71,546.46,567,546.46,567s7.9-50.18-16.44-61.74-32.88-4.56-41.42-13.68S494.79,472.09,479.42,469.66Z"/><path d="M866.69,336.49q0,1.1,0,3.27c0,1.45-.07,3.09-.16,4.9s-.2,3.7-.35,5.65-.35,3.77-.61,5.48a37.73,37.73,0,0,1-.93,4.49,5.18,5.18,0,0,1-1.31,2.56,8.06,8.06,0,0,1-1.51,1q-.93.51-1.92,1c-.67.3-1.32.57-2,.8a16.73,16.73,0,0,1-1.73.55q1.22,2.88,2.37,5.67t2.31,5.68l-9.49,2.24c-1.24-1.79-2.41-3.59-3.5-5.38s-2.25-3.57-3.49-5.33a7,7,0,0,1-1,.07h-1c-.73,0-1.81,0-3.24-.13s-3-.21-4.81-.38-3.62-.39-5.55-.65-3.71-.53-5.35-.83a33.19,33.19,0,0,1-4.27-1,5.08,5.08,0,0,1-2.3-1.21,9.35,9.35,0,0,1-1.51-3.63,50.15,50.15,0,0,1-1-5.45q-.39-2.91-.58-5.64c-.13-1.82-.19-3.2-.19-4.14s-.07-2.12-.07-3.17v-3.24c0-.81,0-1.86,0-3.14s.1-2.61.23-4a25.62,25.62,0,0,1,.64-3.84,6.15,6.15,0,0,1,1.35-2.76,5.25,5.25,0,0,1,2.27-1.12,40.47,40.47,0,0,1,4.2-1q2.44-.48,5.26-.87c1.88-.25,3.72-.49,5.52-.7s3.45-.38,5-.48,2.71-.18,3.56-.23l3.72-.09,3.72,0c1.63,0,3.35,0,5.17.09a20.55,20.55,0,0,1,5.19.84,12.07,12.07,0,0,1,4.36,2.33,8.65,8.65,0,0,1,2.66,4.56,12,12,0,0,1,.22,1.54c.07.64.11,1.32.13,2s0,1.43,0,2.12Zm-13.85,3.72v-.84a8.72,8.72,0,0,0-.06-1,4.81,4.81,0,0,0-.22-1,1.94,1.94,0,0,0-.42-.71,3,3,0,0,0-.9-.45A5.33,5.33,0,0,0,850,336c-.45-.05-.9-.08-1.35-.1l-1,0c-.6,0-1.53,0-2.79.13s-2.68.21-4.24.38-3.19.37-4.9.61-3.29.5-4.75.8a36,36,0,0,0-3.75,1,3.87,3.87,0,0,0-1.95,1.09,2,2,0,0,0-.29,1c0,.43,0,.81,0,1.15,0,.86.06,1.93.19,3.21s.3,2.61.51,4,.44,2.69.68,4,.45,2.33.67,3.14q1.53.58,2.76.93a20.12,20.12,0,0,0,2.37.55c.77.13,1.57.22,2.4.29s1.81.11,2.92.16l-4-6.42c1.12-.55,2.16-1.09,3.15-1.6s2-1,3-1.41a32.34,32.34,0,0,1,3-1.15c1.05-.35,2.19-.67,3.43-1l4.3,8.79a39,39,0,0,0,2-7.53A49.39,49.39,0,0,0,852.84,340.21Z"/><path d="M917.87,366.24l-10.84.45-.77-6.48a11.72,11.72,0,0,1-2.92,2.83,16.3,16.3,0,0,1-3.65,1.86,19.87,19.87,0,0,1-4,1,30.1,30.1,0,0,1-4.07.29,35.53,35.53,0,0,1-3.82-.26c-1.52-.17-3.06-.42-4.62-.74a26.48,26.48,0,0,1-4.33-1.25,7.31,7.31,0,0,1-2.88-1.79,5.22,5.22,0,0,1-1.06-2.47,28.05,28.05,0,0,1-.48-3.62c-.09-1.29-.13-2.52-.13-3.72v-2.89c0-3.2.13-6.37.39-9.49s.62-6.22,1.09-9.3a38.4,38.4,0,0,1,3.84-.19,25,25,0,0,1,3.34.23q1.67.22,3.33.54c0,.22,0,.83.07,1.86s.09,2.24.16,3.65.14,2.92.22,4.53.18,3.09.29,4.45.24,2.54.39,3.5.3,1.48.48,1.57a4.53,4.53,0,0,0,2.11.64q1.15.06,2.25.06.76,0,2.4-.09c1.09-.07,2.21-.17,3.37-.32a29.64,29.64,0,0,0,3.2-.58,4.17,4.17,0,0,0,2-.87,2.38,2.38,0,0,0,.29-1.21c.06-.69.11-1.44.13-2.25s0-1.57.06-2.28,0-1.12,0-1.25q0-2.88-.12-5.7c-.09-1.88-.18-3.79-.26-5.71l12.44-.58c.26,3,.49,6,.71,9s.49,5.95.83,8.94a27.16,27.16,0,0,1,.22,3c0,1,.06,2.05.1,3.08.08,1.92.14,3.84.16,5.77S917.82,364.28,917.87,366.24Z"/><path d="M969.94,340.59q0,5.39-.39,10.71c-.26,3.55-.51,7.1-.77,10.65q-7.18.63-14.3,1.09t-14.3.44l-2.37,0c-1.15,0-2.37-.06-3.66-.13s-2.5-.14-3.65-.25a7,7,0,0,1-2.31-.48,6.6,6.6,0,0,1-3-2.92,9.22,9.22,0,0,1-.83-4c0-.51,0-1.2.06-2.05s.13-1.75.26-2.69a23.16,23.16,0,0,1,.51-2.63,5.11,5.11,0,0,1,.77-1.8,4.9,4.9,0,0,1,2.63-1.31,34.11,34.11,0,0,1,4.91-.87q2.85-.31,6.15-.51t6.32-.29c2-.06,3.8-.1,5.38-.1h3.4a20.08,20.08,0,0,0,.19-2.75V340a2.17,2.17,0,0,0-.06-.67c-.13-.26-.53-.47-1.22-.64a17,17,0,0,0-2.53-.39c-1-.08-2.1-.16-3.27-.22s-2.32-.1-3.43-.1h-4.81c-2.69,0-5.39.06-8.08.16s-5.39.21-8.08.29c.17-1.62.31-3.27.42-4.94a45.1,45.1,0,0,0,0-4.93,93.39,93.39,0,0,1,9.39-1.19q4.71-.35,9.53-.35l3.78,0c1.37,0,2.73.06,4.1.13s2.73.16,4.07.29,2.6.3,3.76.51a14.14,14.14,0,0,1,3.55,1.15,16.94,16.94,0,0,1,3.31,2.06,14.75,14.75,0,0,1,2.69,2.78,10.62,10.62,0,0,1,1.67,3.37,3.09,3.09,0,0,1,.09.64c0,.3,0,.63,0,1v1.63Zm-14.3,15.07v-8.21l-3.72-.09q-1.86,0-3.72,0l-2.15,0c-1.18,0-2.44.07-3.78.16s-2.58.19-3.69.32-1.75.32-1.92.58a2.76,2.76,0,0,0-.42,1.05,6,6,0,0,0-.1,1.13c0,.3,0,.7.07,1.21a13.77,13.77,0,0,0,.22,1.61c.11.55.23,1.07.35,1.54a2.21,2.21,0,0,0,.52,1,1.51,1.51,0,0,0,.86.48,10,10,0,0,0,1.32.26c.47.06.94.11,1.41.13l1.09,0c1,0,2.12,0,3.3-.13s2.37-.18,3.59-.29,2.41-.23,3.56-.38Z"/><path d="M1018.16,335.72a21.26,21.26,0,0,1-.77,5.71c-.3,0-1.19.09-2.66.16s-3.23.15-5.26.25-4.21.24-6.54.39-4.49.31-6.48.48-3.68.35-5.06.54a6.7,6.7,0,0,0-2.34.55,5.53,5.53,0,0,0-1.54,2.18,6.69,6.69,0,0,0-.52,2.56,3.62,3.62,0,0,0,.16,1.19,3.94,3.94,0,0,0,.55.93,3,3,0,0,0,1.35.32c.76.09,1.62.15,2.56.19s1.82.08,2.63.1l1.41,0q4.62,0,9.23-.19t9.24-.51l.51,11q-6.42.53-12.86,1t-12.92.48h-.93l-1.31,0c-.47,0-.92-.05-1.35-.1a5.6,5.6,0,0,1-.9-.13c-.89-.25-1.78-.54-2.66-.86a12.9,12.9,0,0,1-2.47-1.22,9,9,0,0,1-2-1.76,6.47,6.47,0,0,1-1.25-2.5,16.43,16.43,0,0,1-.41-2.54c-.11-1-.19-2.12-.23-3.24s-.07-2.2-.09-3.27,0-2,0-2.69c0-1.67,0-3.23.07-4.68a13.41,13.41,0,0,1,.7-4,8.67,8.67,0,0,1,2.09-3.27,12.43,12.43,0,0,1,4.13-2.53,14.37,14.37,0,0,1,3.66-.8q2.43-.3,5.1-.45c1.77-.11,3.47-.18,5.09-.23s2.89-.06,3.79-.06q4.48,0,8.94.19c3,.13,6,.3,9,.52.13,1.06.23,2.12.32,3.17S1018.16,334.69,1018.16,335.72Z"/><path d="M1066.38,334.18l-16.48,11.93c.13.51.38,1.33.77,2.47s.81,2.3,1.28,3.52a34.7,34.7,0,0,0,1.51,3.4,5.08,5.08,0,0,0,1.51,2,3.41,3.41,0,0,0,1.15.52c.47.12,1,.23,1.44.32a14.55,14.55,0,0,0,1.48.16l1.25,0c.6,0,1.22,0,1.86-.07s1.26-.1,1.86-.19c-.09.56-.15,1.12-.2,1.7s-.06,1.17-.06,1.76c0,1,0,2.06.06,3.08s.07,2,.07,3l-1.57.16-2.57.19-3,.22-3,.23q-1.38.09-2.37.09a3.84,3.84,0,0,1-1.25-.12c-.73-.35-1.43-.71-2.11-1.09a5.14,5.14,0,0,1-1.74-1.61,14.32,14.32,0,0,1-1-2.44c-.5-1.32-1-2.77-1.54-4.36s-1-3.05-1.48-4.42-.74-2.25-.86-2.63l-6.16,4V367.2l-12.7,1.09q.39-9,.84-17.85t.45-17.93c0-1.83,0-3.65,0-5.45s-.05-3.63-.09-5.51a37.57,37.57,0,0,0,5.22.64c1.74.09,3.48.21,5.23.38v24q5-3.09,9.78-6.29a100.58,100.58,0,0,0,9.26-7c2.27.25,4.48.45,6.64.57Z"/><path d="M1082.92,320.2c0,1.11-.09,2.33-.16,3.66s-.14,2.67-.22,4-.21,2.7-.36,4-.33,2.52-.54,3.63c-.64,3.2-1.29,6.37-2,9.49s-1.31,6.28-2,9.49l-7.06.64-1.6-16.16q-.45-4.37-.64-8.75t-.45-8.82Zm-1.15,44.18a4,4,0,0,1-.67,2.15,7.8,7.8,0,0,1-1.7,1.89,8.52,8.52,0,0,1-2.25,1.32,6.15,6.15,0,0,1-2.24.48,6.51,6.51,0,0,1-2-.35,7.43,7.43,0,0,1-1.93-1,5,5,0,0,1-1.41-1.5,3.93,3.93,0,0,1-.54-2.06,3.62,3.62,0,0,1,.73-2.21,6.83,6.83,0,0,1,1.8-1.67,8.88,8.88,0,0,1,2.31-1,8.41,8.41,0,0,1,2.34-.35,6.4,6.4,0,0,1,3.24.83,5.15,5.15,0,0,1,2.15,2.5,2.08,2.08,0,0,1,.16.48A3.64,3.64,0,0,1,1081.77,364.38Z"/><path d="M776.69,503.49q0,1.1,0,3.27c0,1.45-.07,3.09-.16,4.9s-.2,3.7-.35,5.65-.35,3.77-.61,5.48a37.73,37.73,0,0,1-.93,4.49,5.18,5.18,0,0,1-1.31,2.56,8.06,8.06,0,0,1-1.51,1q-.93.51-1.92,1c-.67.3-1.32.57-2,.8a16.73,16.73,0,0,1-1.73.55q1.22,2.88,2.37,5.67t2.31,5.68l-9.49,2.24c-1.24-1.79-2.41-3.59-3.5-5.38s-2.25-3.57-3.49-5.33a7,7,0,0,1-1,.07h-1c-.73,0-1.81,0-3.24-.13s-3-.21-4.81-.38-3.62-.39-5.55-.65-3.71-.53-5.35-.83a33.19,33.19,0,0,1-4.27-1,5.08,5.08,0,0,1-2.3-1.21,9.35,9.35,0,0,1-1.51-3.63,50.15,50.15,0,0,1-1-5.45q-.39-2.91-.58-5.64c-.13-1.82-.19-3.2-.19-4.14s-.07-2.12-.07-3.17v-3.24c0-.81,0-1.86,0-3.14s.1-2.61.23-4a25.62,25.62,0,0,1,.64-3.84,6.15,6.15,0,0,1,1.35-2.76,5.25,5.25,0,0,1,2.27-1.12,40.47,40.47,0,0,1,4.2-1q2.44-.48,5.26-.87c1.88-.25,3.72-.49,5.52-.7s3.45-.38,5-.48,2.71-.18,3.56-.23l3.72-.09,3.72,0c1.63,0,3.35,0,5.17.09a20.55,20.55,0,0,1,5.19.84,12.07,12.07,0,0,1,4.36,2.33,8.65,8.65,0,0,1,2.66,4.56,12,12,0,0,1,.22,1.54c.07.64.11,1.32.13,2s0,1.43,0,2.12Zm-13.85,3.72v-.84a8.72,8.72,0,0,0-.06-1,4.81,4.81,0,0,0-.22-1,1.94,1.94,0,0,0-.42-.71,3,3,0,0,0-.9-.45A5.33,5.33,0,0,0,760,503c-.45-.05-.9-.08-1.35-.1l-1,0c-.6,0-1.53,0-2.79.13s-2.68.21-4.24.38-3.19.37-4.9.61-3.29.5-4.75.8a36,36,0,0,0-3.75,1,3.87,3.87,0,0,0-1.95,1.09,2,2,0,0,0-.29,1c0,.43,0,.81,0,1.15,0,.86.06,1.93.19,3.21s.3,2.61.51,4,.44,2.69.68,4,.45,2.33.67,3.14q1.53.59,2.76.93a20.12,20.12,0,0,0,2.37.55c.77.13,1.57.22,2.4.29s1.81.11,2.92.16l-4-6.42c1.12-.55,2.16-1.09,3.15-1.6s2-1,3-1.41a32.34,32.34,0,0,1,3-1.15c1.05-.35,2.19-.67,3.43-1l4.3,8.79a39,39,0,0,0,2-7.53A49.39,49.39,0,0,0,762.84,507.21Z"/><path d="M827.87,533.24l-10.84.45-.77-6.48a11.72,11.72,0,0,1-2.92,2.83,16.3,16.3,0,0,1-3.65,1.86,19.87,19.87,0,0,1-4,1,30.1,30.1,0,0,1-4.07.29,35.53,35.53,0,0,1-3.82-.26c-1.52-.17-3.06-.42-4.62-.74a26.48,26.48,0,0,1-4.33-1.25,7.31,7.31,0,0,1-2.88-1.79,5.22,5.22,0,0,1-1.06-2.47,28.05,28.05,0,0,1-.48-3.62c-.09-1.29-.13-2.52-.13-3.72v-2.89c0-3.2.13-6.37.39-9.49s.62-6.22,1.09-9.3a38.4,38.4,0,0,1,3.84-.19,25,25,0,0,1,3.34.23q1.67.22,3.33.54c0,.22,0,.83.07,1.86s.09,2.24.16,3.65.14,2.92.22,4.53.18,3.09.29,4.45.24,2.54.39,3.5.3,1.48.48,1.57a4.53,4.53,0,0,0,2.11.64q1.15.06,2.25.06.76,0,2.4-.09c1.09-.07,2.21-.17,3.37-.32a29.64,29.64,0,0,0,3.2-.58,4.17,4.17,0,0,0,2-.87,2.38,2.38,0,0,0,.29-1.21c.06-.69.11-1.44.13-2.25s0-1.57.06-2.28,0-1.12,0-1.25q0-2.88-.12-5.7c-.09-1.88-.18-3.79-.26-5.71l12.44-.58c.26,3,.49,6,.71,9s.49,5.95.83,8.94a27.16,27.16,0,0,1,.22,3c0,1,.06,2.05.1,3.08.08,1.92.14,3.84.16,5.77S827.82,531.28,827.87,533.24Z"/><path d="M879.94,507.59q0,5.39-.39,10.71c-.26,3.55-.51,7.1-.77,10.65q-7.18.63-14.3,1.09t-14.3.44l-2.37,0c-1.15,0-2.37-.06-3.66-.13s-2.5-.14-3.65-.25a7,7,0,0,1-2.31-.48,6.6,6.6,0,0,1-3-2.92,9.22,9.22,0,0,1-.83-4c0-.51,0-1.2.06-2s.13-1.75.26-2.69a23.16,23.16,0,0,1,.51-2.63,5.11,5.11,0,0,1,.77-1.8,4.9,4.9,0,0,1,2.63-1.31,34.11,34.11,0,0,1,4.91-.87q2.85-.31,6.15-.51t6.32-.29c2-.06,3.8-.1,5.38-.1h3.4a20.08,20.08,0,0,0,.19-2.75V507a2.17,2.17,0,0,0-.06-.67c-.13-.26-.53-.47-1.22-.64a17,17,0,0,0-2.53-.39c-1-.08-2.1-.16-3.27-.22s-2.32-.1-3.43-.1h-4.81c-2.69,0-5.39.06-8.08.16s-5.39.21-8.08.29c.17-1.62.31-3.27.42-4.94a45.1,45.1,0,0,0,0-4.93,93.39,93.39,0,0,1,9.39-1.19q4.71-.35,9.53-.35l3.78,0c1.37,0,2.73.06,4.1.13s2.73.16,4.07.29,2.6.3,3.76.51a14.14,14.14,0,0,1,3.55,1.15,16.94,16.94,0,0,1,3.31,2.06,14.75,14.75,0,0,1,2.69,2.78,10.62,10.62,0,0,1,1.67,3.37,3.09,3.09,0,0,1,.09.64c0,.3,0,.63,0,1v1.63Zm-14.3,15.07v-8.21q-1.86-.06-3.72-.09l-3.72,0-2.15,0c-1.18,0-2.44.07-3.78.16s-2.58.19-3.69.32-1.75.32-1.92.58a2.76,2.76,0,0,0-.42,1.05,6,6,0,0,0-.1,1.13c0,.3,0,.7.07,1.21a13.77,13.77,0,0,0,.22,1.61c.11.55.23,1.07.35,1.54a2.21,2.21,0,0,0,.52,1,1.51,1.51,0,0,0,.86.48,10,10,0,0,0,1.32.26c.47.06.94.11,1.41.13l1.09,0c1,0,2.12,0,3.3-.13s2.37-.18,3.59-.29,2.41-.23,3.56-.38Z"/><path d="M928.16,502.72a21.26,21.26,0,0,1-.77,5.71c-.3,0-1.19.09-2.66.16s-3.23.15-5.26.25-4.21.24-6.54.39-4.49.31-6.48.48-3.68.35-5.06.54a6.7,6.7,0,0,0-2.34.55,5.53,5.53,0,0,0-1.54,2.18,6.69,6.69,0,0,0-.52,2.56,3.62,3.62,0,0,0,.16,1.19,3.94,3.94,0,0,0,.55.93,3,3,0,0,0,1.35.32c.76.09,1.62.15,2.56.19s1.82.08,2.63.1l1.41,0q4.62,0,9.23-.19t9.24-.51l.51,11q-6.42.52-12.86,1t-12.92.48h-.93l-1.31,0c-.47,0-.92-.05-1.35-.1a5.6,5.6,0,0,1-.9-.13c-.89-.25-1.78-.54-2.66-.86a12.9,12.9,0,0,1-2.47-1.22,9,9,0,0,1-2-1.76,6.47,6.47,0,0,1-1.25-2.5,16.43,16.43,0,0,1-.41-2.54c-.11-1-.19-2.12-.23-3.24s-.07-2.2-.09-3.27,0-2,0-2.69c0-1.67,0-3.23.07-4.68a13.41,13.41,0,0,1,.7-4,8.67,8.67,0,0,1,2.09-3.27,12.43,12.43,0,0,1,4.13-2.53,14.37,14.37,0,0,1,3.66-.8q2.43-.3,5.1-.45c1.77-.11,3.47-.18,5.09-.23s2.89-.06,3.79-.06q4.48,0,8.94.19c3,.13,6,.3,9,.52.13,1.06.23,2.12.32,3.17S928.16,501.69,928.16,502.72Z"/><path d="M976.38,501.18,959.9,513.11c.13.51.38,1.33.77,2.47s.81,2.3,1.28,3.52a34.7,34.7,0,0,0,1.51,3.4,5.08,5.08,0,0,0,1.51,2,3.41,3.41,0,0,0,1.15.52c.47.12,1,.23,1.44.32a14.55,14.55,0,0,0,1.48.16l1.25,0c.6,0,1.22,0,1.86-.07s1.26-.1,1.86-.19c-.09.56-.15,1.12-.2,1.7s-.06,1.17-.06,1.76c0,1,0,2.06.06,3.08s.07,2,.07,3l-1.57.16-2.57.19-3,.22-3,.23q-1.38.09-2.37.09a3.84,3.84,0,0,1-1.25-.12c-.73-.35-1.43-.71-2.11-1.09a5.14,5.14,0,0,1-1.74-1.61,14.32,14.32,0,0,1-1-2.44c-.5-1.32-1-2.77-1.54-4.36s-1-3-1.48-4.42-.74-2.25-.86-2.63l-6.16,4V534.2l-12.7,1.09q.39-9,.84-17.85t.45-17.93c0-1.83,0-3.65,0-5.45s-.05-3.63-.09-5.51a37.57,37.57,0,0,0,5.22.64c1.74.09,3.48.21,5.23.38v24q5-3.09,9.78-6.29a100.58,100.58,0,0,0,9.26-7c2.27.25,4.48.45,6.64.57Z"/><path d="M992.92,487.2c0,1.11-.09,2.33-.16,3.66s-.14,2.67-.22,4-.21,2.7-.36,4-.33,2.52-.54,3.63c-.64,3.2-1.29,6.37-2,9.49s-1.31,6.28-1.95,9.49l-7.06.64L979.07,506q-.45-4.37-.64-8.75t-.45-8.82Zm-1.15,44.18a4,4,0,0,1-.67,2.15,7.8,7.8,0,0,1-1.7,1.89,8.52,8.52,0,0,1-2.25,1.32,6.15,6.15,0,0,1-2.24.48,6.51,6.51,0,0,1-2-.35,7.43,7.43,0,0,1-1.93-1,5,5,0,0,1-1.41-1.5,3.93,3.93,0,0,1-.54-2.06,3.62,3.62,0,0,1,.73-2.21,6.83,6.83,0,0,1,1.8-1.67,8.88,8.88,0,0,1,2.31-1,8.41,8.41,0,0,1,2.34-.35,6.4,6.4,0,0,1,3.24.83,5.15,5.15,0,0,1,2.15,2.5,2.08,2.08,0,0,1,.16.48A3.64,3.64,0,0,1,991.77,531.38Z"/><path d="M790.69,176.49q0,1.09,0,3.27c0,1.45-.07,3.09-.16,4.9s-.2,3.7-.35,5.65-.35,3.77-.61,5.48a37.73,37.73,0,0,1-.93,4.49,5.18,5.18,0,0,1-1.31,2.56,8.06,8.06,0,0,1-1.51,1q-.93.51-1.92,1c-.67.3-1.32.57-2,.8a16.73,16.73,0,0,1-1.73.55q1.22,2.88,2.37,5.67t2.31,5.68l-9.49,2.24c-1.24-1.79-2.41-3.59-3.5-5.38s-2.25-3.57-3.49-5.33a7,7,0,0,1-1,.07h-1c-.73,0-1.81,0-3.24-.13s-3-.21-4.81-.38-3.62-.39-5.55-.65-3.71-.53-5.35-.83a33.19,33.19,0,0,1-4.27-1,5.08,5.08,0,0,1-2.3-1.21,9.35,9.35,0,0,1-1.51-3.63,50.15,50.15,0,0,1-1-5.45q-.39-2.91-.58-5.64c-.13-1.82-.19-3.2-.19-4.14s-.07-2.12-.07-3.17v-3.24c0-.81,0-1.86,0-3.14s.1-2.61.23-4a25.62,25.62,0,0,1,.64-3.84,6.15,6.15,0,0,1,1.35-2.76,5.25,5.25,0,0,1,2.27-1.12,40.47,40.47,0,0,1,4.2-1q2.44-.48,5.26-.87c1.88-.25,3.72-.49,5.52-.7s3.45-.38,5-.48,2.71-.18,3.56-.23l3.72-.09,3.72,0c1.63,0,3.35,0,5.17.09a20.55,20.55,0,0,1,5.19.84,12.07,12.07,0,0,1,4.36,2.33,8.65,8.65,0,0,1,2.66,4.56,12,12,0,0,1,.22,1.54c.07.64.11,1.32.13,2.05s0,1.43,0,2.12Zm-13.85,3.72v-.84a8.72,8.72,0,0,0-.06-1,4.81,4.81,0,0,0-.22-1,1.94,1.94,0,0,0-.42-.71,3,3,0,0,0-.9-.45A5.33,5.33,0,0,0,774,176c-.45,0-.9-.08-1.35-.1l-1,0c-.6,0-1.53,0-2.79.13s-2.68.21-4.24.38-3.19.37-4.9.61-3.29.5-4.75.8a36,36,0,0,0-3.75,1,3.87,3.87,0,0,0-1.95,1.09,2,2,0,0,0-.29,1c0,.43,0,.81,0,1.15,0,.86.06,1.93.19,3.21s.3,2.61.51,4,.44,2.69.68,4,.45,2.33.67,3.14q1.53.58,2.76.93a20.12,20.12,0,0,0,2.37.55c.77.13,1.57.22,2.4.29s1.81.11,2.92.16l-4-6.42c1.12-.55,2.16-1.09,3.15-1.6s2-1,3-1.41a32.34,32.34,0,0,1,3-1.15c1.05-.35,2.19-.67,3.43-1l4.3,8.79a39,39,0,0,0,2-7.53A49.39,49.39,0,0,0,776.84,180.21Z"/><path d="M841.87,206.24l-10.84.45-.77-6.48a11.72,11.72,0,0,1-2.92,2.83,16.3,16.3,0,0,1-3.65,1.86,19.87,19.87,0,0,1-4,1,30.1,30.1,0,0,1-4.07.29,35.53,35.53,0,0,1-3.82-.26c-1.52-.17-3.06-.42-4.62-.74a26.48,26.48,0,0,1-4.33-1.25,7.31,7.31,0,0,1-2.88-1.79,5.22,5.22,0,0,1-1.06-2.47,28.05,28.05,0,0,1-.48-3.62c-.09-1.29-.13-2.52-.13-3.72v-2.89c0-3.2.13-6.37.39-9.49s.62-6.22,1.09-9.3a38.4,38.4,0,0,1,3.84-.19,25,25,0,0,1,3.34.23q1.67.23,3.33.54c0,.22,0,.83.07,1.86s.09,2.24.16,3.65.14,2.92.22,4.53.18,3.09.29,4.45.24,2.54.39,3.5.3,1.48.48,1.57a4.53,4.53,0,0,0,2.11.64q1.15.06,2.25.06.76,0,2.4-.09c1.09-.07,2.21-.17,3.37-.32a29.64,29.64,0,0,0,3.2-.58,4.17,4.17,0,0,0,2-.87,2.38,2.38,0,0,0,.29-1.21c.06-.69.11-1.44.13-2.25s0-1.57.06-2.28,0-1.12,0-1.25q0-2.88-.12-5.7c-.09-1.88-.18-3.79-.26-5.71l12.44-.58c.26,3,.49,6,.71,8.95s.49,6,.83,8.94a27.16,27.16,0,0,1,.22,3c0,1,.06,2.05.1,3.08.08,1.92.14,3.84.16,5.77S841.82,204.28,841.87,206.24Z"/><path d="M893.94,180.59q0,5.39-.39,10.71c-.26,3.55-.51,7.1-.77,10.65q-7.18.63-14.3,1.09t-14.3.44l-2.37,0c-1.15,0-2.37-.06-3.66-.13s-2.5-.14-3.65-.25a7,7,0,0,1-2.31-.48,6.6,6.6,0,0,1-3-2.92,9.22,9.22,0,0,1-.83-4c0-.51,0-1.2.06-2s.13-1.75.26-2.69a23.16,23.16,0,0,1,.51-2.63,5.11,5.11,0,0,1,.77-1.8,4.9,4.9,0,0,1,2.63-1.31,34.11,34.11,0,0,1,4.91-.87q2.85-.31,6.15-.51t6.32-.29c2-.06,3.8-.1,5.38-.1h3.4a20.08,20.08,0,0,0,.19-2.75V180a2.17,2.17,0,0,0-.06-.67c-.13-.26-.53-.47-1.22-.64a17,17,0,0,0-2.53-.39c-1-.08-2.1-.16-3.27-.22s-2.32-.1-3.43-.1h-4.81c-2.69,0-5.39.06-8.08.16s-5.39.21-8.08.29c.17-1.62.31-3.27.42-4.94a45.1,45.1,0,0,0,0-4.93,93.39,93.39,0,0,1,9.39-1.19q4.71-.34,9.53-.35l3.78,0c1.37,0,2.73.06,4.1.13s2.73.16,4.07.29,2.6.3,3.76.51a14.14,14.14,0,0,1,3.55,1.15,16.94,16.94,0,0,1,3.31,2.06,14.75,14.75,0,0,1,2.69,2.78,10.62,10.62,0,0,1,1.67,3.37,3.09,3.09,0,0,1,.09.64c0,.3,0,.63,0,1v1.63Zm-14.3,15.07v-8.21q-1.86-.06-3.72-.09t-3.72,0l-2.15,0c-1.18,0-2.44.07-3.78.16s-2.58.19-3.69.32-1.75.32-1.92.58a2.76,2.76,0,0,0-.42,1.05,6,6,0,0,0-.1,1.13c0,.3,0,.7.07,1.21a13.77,13.77,0,0,0,.22,1.61c.11.55.23,1.07.35,1.54a2.21,2.21,0,0,0,.52,1,1.51,1.51,0,0,0,.86.48,10,10,0,0,0,1.32.26c.47.06.94.11,1.41.13l1.09,0c1,0,2.12,0,3.3-.13s2.37-.18,3.59-.29,2.41-.23,3.56-.38Z"/><path d="M942.16,175.72a21.26,21.26,0,0,1-.77,5.71c-.3,0-1.19.09-2.66.16s-3.23.15-5.26.25-4.21.24-6.54.39-4.49.31-6.48.48-3.68.35-5.06.54a6.7,6.7,0,0,0-2.34.55,5.53,5.53,0,0,0-1.54,2.18,6.69,6.69,0,0,0-.52,2.56,3.62,3.62,0,0,0,.16,1.19,3.94,3.94,0,0,0,.55.93,3,3,0,0,0,1.35.32c.76.09,1.62.15,2.56.19s1.82.08,2.63.1l1.41,0q4.62,0,9.23-.19t9.24-.51l.51,11q-6.42.52-12.86,1t-12.92.48h-.93l-1.31,0c-.47,0-.92,0-1.35-.1a5.6,5.6,0,0,1-.9-.13c-.89-.25-1.78-.54-2.66-.86a12.9,12.9,0,0,1-2.47-1.22,9,9,0,0,1-2-1.76,6.47,6.47,0,0,1-1.25-2.5,16.43,16.43,0,0,1-.41-2.54c-.11-1-.19-2.12-.23-3.24s-.07-2.2-.09-3.27,0-2,0-2.69c0-1.67,0-3.23.07-4.68a13.41,13.41,0,0,1,.7-4,8.67,8.67,0,0,1,2.09-3.27,12.43,12.43,0,0,1,4.13-2.53,14.37,14.37,0,0,1,3.66-.8q2.43-.3,5.1-.45c1.77-.11,3.47-.18,5.09-.23s2.89-.06,3.79-.06q4.48,0,8.94.19c3,.13,6,.3,9,.52.13,1.06.23,2.12.32,3.17S942.16,174.69,942.16,175.72Z"/><path d="M990.38,174.18,973.9,186.11c.13.51.38,1.33.77,2.47s.81,2.3,1.28,3.52a34.7,34.7,0,0,0,1.51,3.4,5.08,5.08,0,0,0,1.51,2,3.41,3.41,0,0,0,1.15.52c.47.12,1,.23,1.44.32a14.55,14.55,0,0,0,1.48.16l1.25,0c.6,0,1.22,0,1.86-.07s1.26-.1,1.86-.19c-.09.56-.15,1.12-.2,1.7s-.06,1.17-.06,1.76c0,1,0,2.06.06,3.08s.07,2,.07,3l-1.57.16-2.57.19-3,.22-3,.23q-1.38.09-2.37.09a3.84,3.84,0,0,1-1.25-.12c-.73-.35-1.43-.71-2.11-1.09a5.14,5.14,0,0,1-1.74-1.61,14.32,14.32,0,0,1-1-2.44c-.5-1.32-1-2.77-1.54-4.36s-1-3.05-1.48-4.42-.74-2.25-.86-2.63l-6.16,4V207.2l-12.7,1.09q.39-9,.84-17.85t.45-17.93c0-1.83,0-3.65,0-5.45s-.05-3.63-.09-5.51a37.57,37.57,0,0,0,5.22.64c1.74.09,3.48.21,5.23.38v24q5-3.09,9.78-6.29a100.58,100.58,0,0,0,9.26-7.05c2.27.25,4.48.45,6.64.57Z"/><path d="M1006.92,160.2c0,1.11-.09,2.33-.16,3.66s-.14,2.67-.22,4-.21,2.7-.36,4-.33,2.52-.54,3.63c-.64,3.2-1.29,6.37-2,9.49s-1.31,6.28-1.95,9.49l-7.06.64L993.07,179q-.45-4.37-.64-8.75t-.45-8.82Zm-1.15,44.18a4,4,0,0,1-.67,2.15,7.8,7.8,0,0,1-1.7,1.89,8.52,8.52,0,0,1-2.25,1.32,6.15,6.15,0,0,1-2.24.48,6.51,6.51,0,0,1-2-.35,7.43,7.43,0,0,1-1.93-1,5,5,0,0,1-1.41-1.5,3.93,3.93,0,0,1-.54-2.06,3.62,3.62,0,0,1,.73-2.21,6.83,6.83,0,0,1,1.8-1.67,8.88,8.88,0,0,1,2.31-1,8.41,8.41,0,0,1,2.34-.35,6.4,6.4,0,0,1,3.24.83,5.15,5.15,0,0,1,2.15,2.5,2.08,2.08,0,0,1,.16.48A3.64,3.64,0,0,1,1005.77,204.38Z"/><path d="M1126.49,515.2q0,20.79-10.52,31.56t-31.19,10.77h-23.54V473.12h23.54q20.67,0,31.19,10.64T1126.49,515.2Zm-9.52,0a48,48,0,0,0-2.13-15.22,25.73,25.73,0,0,0-6.2-10.33,24.48,24.48,0,0,0-10.08-5.89,46.29,46.29,0,0,0-13.78-1.88h-14v66.88h14a46.29,46.29,0,0,0,13.78-1.88,24.05,24.05,0,0,0,10.08-6,26.28,26.28,0,0,0,6.2-10.45A48.53,48.53,0,0,0,1117,515.2Z"/><path d="M1140.51,478.25a6.69,6.69,0,0,1,1.63-4.51,7,7,0,0,1,9.58,0,6.79,6.79,0,0,1,1.57,4.51,6.56,6.56,0,0,1-1.57,4.45,7.24,7.24,0,0,1-9.58,0A6.46,6.46,0,0,1,1140.51,478.25Zm11,79.28h-9.27V497h9.27Z"/><path d="M1180.34,557.53h-9.27V497h7.52l1.75,9.77a35.22,35.22,0,0,1,3.44-3.7,25.64,25.64,0,0,1,4.83-3.51,32.21,32.21,0,0,1,6.07-2.63,23.73,23.73,0,0,1,7.2-1.06q9.64,0,15.09,6.26t5.45,17.41v37.95h-9.14V519.58q0-7.14-3.45-11.27a11.61,11.61,0,0,0-9.45-4.13,21.7,21.7,0,0,0-11.59,3.19,28.27,28.27,0,0,0-8.45,7.83Z"/><path d="M1282.29,546a22.09,22.09,0,0,1-7.71,8.32,21.11,21.11,0,0,1-12,3.45,25.38,25.38,0,0,1-10.14-2,21.64,21.64,0,0,1-8-5.89,27.84,27.84,0,0,1-5.2-9.71,43.5,43.5,0,0,1-1.88-13.34,40.58,40.58,0,0,1,1.75-12.14,29.37,29.37,0,0,1,5.14-9.84,23.73,23.73,0,0,1,19-8.95,19.66,19.66,0,0,1,6.51,1.06,23.77,23.77,0,0,1,5.32,2.63,24.76,24.76,0,0,1,4.13,3.51,27.51,27.51,0,0,1,3,3.7l1.62-9.77h7.64v56a39.82,39.82,0,0,1-2,13.46,23.76,23.76,0,0,1-5.64,9.14,22.19,22.19,0,0,1-8.7,5.27,35.49,35.49,0,0,1-11.21,1.69,45,45,0,0,1-12.4-1.69,39.84,39.84,0,0,1-9.39-3.82l2.25-7.52a35.05,35.05,0,0,0,8.39,3.45,38.3,38.3,0,0,0,10.15,1.31,30.56,30.56,0,0,0,7.83-.94,13.42,13.42,0,0,0,6.07-3.38,16.66,16.66,0,0,0,3.95-6.58,32.43,32.43,0,0,0,1.44-10.52Zm0-30.56a25.69,25.69,0,0,0-7.58-8,17.63,17.63,0,0,0-23,2.38q-5.26,5.58-5.26,17a33.27,33.27,0,0,0,1.44,10.46,19.48,19.48,0,0,0,3.88,7,15.06,15.06,0,0,0,5.57,3.94,17.3,17.3,0,0,0,6.52,1.25,16.83,16.83,0,0,0,13.33-6.2,21,21,0,0,0,3.76-6.88,26.93,26.93,0,0,0,1.32-8.58Z"/><path d="M1496.73,800.63l88.58-53.75c21-12.73,45.18-27.56,53.55-52.09,2.63-7.73,3-15.81,2.86-23.9-.12-8.91-.57-18,2.31-26.54l-2.5.66a50.5,50.5,0,0,1,12.61,47.28,1.51,1.51,0,0,0,2.5,1.46,245.32,245.32,0,0,0,35.3-42.45l-2.74-.36a49,49,0,0,1-7.29,41.25,46.35,46.35,0,0,1-8.38,9,1.51,1.51,0,0,0,.66,2.5c7,1.78,14.33,1.15,21.52,1.41,6.51.23,13.41,1.44,18,6.46a19.75,19.75,0,0,1,4.83,15.64,17.06,17.06,0,0,1-9.8,13.22,19,19,0,0,1-18.27-.89l.54,2c2.49-4.75,1.2-10.24-2-14.31-3.8-4.84-9.83-6.69-15.81-6.74a48.81,48.81,0,0,0-9.85,1.1c-2.82.56-5.77,1.23-8,3.14-4,3.42-3.36,9.52-.49,13.45,4.23,5.77,12.06,6.25,18.61,6.34l-1.3-2.26c-5.72,10-19.93,12.69-29.81,7.61a18.66,18.66,0,0,1-7.11-6.23,1.52,1.52,0,0,0-2.59,0,804.83,804.83,0,0,0-76.53,144.56q-8.67,21.36-16.09,43.19c-.63,1.83,2.27,2.62,2.89.8a800.62,800.62,0,0,1,68-148.21q11.63-19.75,24.36-38.82h-2.59c7.36,11,23.62,13.08,34.55,6.35a21.76,21.76,0,0,0,7.55-7.73,1.51,1.51,0,0,0-1.29-2.26c-4.86-.07-10.64-.12-14.59-3.39-2.78-2.3-4.83-7.23-2.27-10.41,1.52-1.9,4.12-2.5,6.38-3a52.87,52.87,0,0,1,8-1.18c5-.28,10.45.41,14.22,3.92,3.34,3.11,5.52,8.22,3.24,12.56a1.54,1.54,0,0,0,.54,2.05c11,7,27.3,1.94,31.62-10.51a22.69,22.69,0,0,0-2-18.4c-3.61-6.25-10-9.59-17-10.6-8.84-1.28-17.93.38-26.65-1.81l.66,2.51c11.79-9.72,18.52-25,18.34-40.22a49.18,49.18,0,0,0-1.89-12.93,1.53,1.53,0,0,0-2.75-.36,241.13,241.13,0,0,1-34.83,41.85l2.51,1.46a53.57,53.57,0,0,0-13.38-50.2,1.51,1.51,0,0,0-2.51.66c-5,14.81-.31,30.64-3.81,45.66-2.79,12-10.16,22.12-19,30.47-9.34,8.82-20.21,15.86-31.14,22.53q-21.36,13-42.79,26L1495.21,798c-1.65,1-.14,3.6,1.52,2.59Z"/><path d="M1681.29,750.15c.44-1.35.09-2.62,0-4-.08-1.62,1.31-.81,1.91.06.86,1.26,1.1,2.86,2,4.11a6.53,6.53,0,0,0,4,2.44,20,20,0,0,0,4.51.26c1.94,0,3.89,0,5.83.14a42.32,42.32,0,0,1,11,2.25,28.65,28.65,0,0,1,15,11.61c3.21,5.23,4,11.47,4.72,17.44.73,5.72,1.41,11.65,4.17,16.83,2.92,5.48,8.06,8.92,13.9,10.7,6.1,1.87,12.54,2.16,18.81,3.19a109.29,109.29,0,0,1,22.32,6.17c1.75.69,3.49,1.43,5.19,2.22.13.06.9.32,1,.49-.11-.22-.38.71-.37.69-.32.84-.67,1.67-1,2.48a43.56,43.56,0,0,1-5,8.14,57.63,57.63,0,0,1-14,12.67c-12.4,8.12-26.91,12-40.93,16.33-14.75,4.55-29.52,10-45,11.27-1.86.14-3.73.23-5.6.24a4,4,0,0,1-1.25,0c-.51-.23,0,.31-.21-.22a4.54,4.54,0,0,1-.05-1.33c0-.59,0-1.19,0-1.78a42,42,0,0,1,1.68-11,48.48,48.48,0,0,1,4.45-10.11c1.71-3,3.44-6.11,4.19-9.54a46.46,46.46,0,0,0,.59-11.36c-.1-3.48-.3-7.08-1.6-10.36-2.55-6.42-9.17-9.43-13.57-14.37a34.47,34.47,0,0,1-.25-45.54c1.27-1.45-.85-3.58-2.12-2.12a37.48,37.48,0,0,0-.91,48.42,47.25,47.25,0,0,0,7.53,7.09c2.73,2.18,5.44,4.52,6.65,7.9s1.25,7.31,1.32,11c.09,4,0,8-1.51,11.74-1.42,3.53-3.66,6.66-5.26,10.11a44.82,44.82,0,0,0-3.47,10.9,46.88,46.88,0,0,0-.66,5.67,20.07,20.07,0,0,0,.13,5.69c.41,1.63,1.87,2.16,3.39,2.2a58.53,58.53,0,0,0,6.07-.21,100.35,100.35,0,0,0,12-1.64,216.3,216.3,0,0,0,23.6-6.38c7.66-2.42,15.36-4.73,23-7.17a146.59,146.59,0,0,0,22.07-8.64c12-6.09,23-15.38,28.24-28,.59-1.43,1.43-3.12.37-4.54s-3.15-1.88-4.61-2.5a110.67,110.67,0,0,0-11.25-4.14,137.21,137.21,0,0,0-22.64-4.48c-6.21-.81-13.11-1.83-18.1-5.94s-6.57-10.09-7.52-16.08c-1-6.21-1.24-12.63-3.39-18.59a29.15,29.15,0,0,0-12.53-14.91c-6.52-4-14.22-5.5-21.77-5.61-3,0-7.42,1-9-2.34-.69-1.43-1.08-3-2.3-4.13a4.49,4.49,0,0,0-4-1.27,3.39,3.39,0,0,0-2.51,2.85c-.21,1.4.46,2.87,0,4.23-.59,1.84,2.31,2.63,2.89.79Z"/><path d="M1758.79,745.32a47.56,47.56,0,0,0,36.27,42.8c6.67,1.63,13.57,2.15,20.4,2.64,1.93.14,1.92-2.86,0-3-11-.79-22.31-1.72-32-7.46a45.48,45.48,0,0,1-17.86-20,42.37,42.37,0,0,1-3.83-15c-.13-1.92-3.13-1.94-3,0Z"/><path d="M1642,813.93c4,6.74,4.73,14.88,3.3,22.49-1.51,8.06-5.32,15.42-9.78,22.23-2.64,4-5.51,7.88-8.39,11.73-1.15,1.55,1.45,3,2.59,1.51,10.06-13.48,20.94-28.74,19-46.51a31.84,31.84,0,0,0-4.18-13,1.5,1.5,0,0,0-2.59,1.52Z"/><path d="M1779.57,742.15c1.91,7.37,5.39,14.5,10.81,19.94a29.38,29.38,0,0,0,20.33,8.85,23.66,23.66,0,0,0,12.11-3.12,1.5,1.5,0,0,0-1.51-2.59c-6,3.47-13.32,3.39-19.66.89s-11.5-7.82-14.86-13.8a45.67,45.67,0,0,1-4.33-11c-.48-1.87-3.37-1.08-2.89.8Z"/><path d="M1619.6,823.82a51.65,51.65,0,0,1-17.8,34c-1.47,1.25.66,3.37,2.12,2.12a54.65,54.65,0,0,0,18.68-36.11c.18-1.92-2.82-1.91-3,0Z"/><path d="M944.43,714.93a143.36,143.36,0,0,1-62.15-66.09l-2,2.06,33.59,23.89,16.64,11.84c4.83,3.44,9.86,7.88,15.82,9.16,5.77,1.23,11.24-1.19,16-4.18a99.7,99.7,0,0,0,13.92-10.72c8.8-7.89,16.83-16.75,26.67-23.4,9.37-6.32,21.42-11.48,32.91-8.67,9.32,2.27,18.31,10.25,19.55,20.12,1.43,11.46-9,18.77-16.57,25.44A169.71,169.71,0,0,0,1016.07,719a172.11,172.11,0,0,0-29.29,59.83c-3.14,11.83-5.27,24.49-2.49,36.61A46.23,46.23,0,0,0,998.41,839c14,12.76,33.07,18.5,50.85,23.61,22.24,6.39,44.1,13.61,65.37,22.78a487.17,487.17,0,0,1,62.89,32.74,481.09,481.09,0,0,1,57.68,41.73q6.58,5.55,13,11.35l1.06-2.56-128.9-8.28q-32.11-2.05-64.23-4.12c-20.7-1.34-41.41-2.77-62-5.23-20.36-2.43-40.69-5.86-60.48-11.28-16.71-4.57-34-11.4-44.72-25.69-18.29-24.3-14-60.08,1.73-84.49,8.57-13.31,20-24.51,30-36.67,9.22-11.16,18.05-23.64,20.57-38.21A51.68,51.68,0,0,0,942,744a1.54,1.54,0,0,0-1.1-1.45l-88.22-25.67-.4,2.94a324.91,324.91,0,0,1,84.37,3.51c1.89.33,2.7-2.56.8-2.89a327.57,327.57,0,0,0-85.17-3.62,1.51,1.51,0,0,0-.4,2.95l88.22,25.68L939,744c.57,15.55-6.84,29.26-16,41.28-9.59,12.56-20.94,23.67-30.4,36.34C874.76,845.44,867.22,879.47,881,907c7.54,15.08,21.23,24.78,36.65,30.77a198.11,198.11,0,0,0,27.25,7.94c10.26,2.38,20.63,4.31,31,5.9,42,6.41,84.66,8,127,10.69l130.47,8.37,15.82,1a1.51,1.51,0,0,0,1.06-2.56,487.46,487.46,0,0,0-183-104.34c-19-5.86-39-9.93-56.23-20.17-7.77-4.61-14.82-10.64-19.39-18.54-6.13-10.58-6.58-23-4.6-34.79,3.78-22.54,13.35-44.37,26.12-63.22A168.12,168.12,0,0,1,1035,702c4-3.92,8.33-7.46,12.48-11.21,3.78-3.42,7.39-7.26,9.39-12,3.8-9,.13-18.84-6.71-25.31-7.67-7.25-17.88-9.55-28.12-7.62-24.18,4.58-38.26,26.86-57.06,40.38-4.76,3.43-10.64,7.56-16.82,6.87s-11.65-5.78-16.54-9.26l-33.59-23.9L881.75,648.3c-1.35-.95-2.62.85-2.06,2.06a147,147,0,0,0,45.59,55.94,142.16,142.16,0,0,0,17.64,11.22c1.7.91,3.21-1.68,1.51-2.59Z"/><path d="M1007.88,961.71l-42.1,41.93-12,12a1.5,1.5,0,0,0,2.12,2.12L998,975.81l12-12a1.5,1.5,0,0,0-2.12-2.12Z"/><path d="M991.18,682c2.25-4.92,5.84-12.26,12.39-11.45,7.67,1,10.32,9.67,12.09,15.92a1.5,1.5,0,0,0,2.9-.79c-2.15-7.56-5.58-17-14.62-18.08-8-1-12.51,6.69-15.35,12.88-.8,1.75,1.79,3.27,2.59,1.52Z"/><path class="cls-4" d="M390.77,690.39c4.88-19.33-11.15-36.07-25.14-46.82-8.27-6.36-17.21-12-27.15-15.29-10.35-3.47-21.36-4.38-32.2-4.78-16.89-.62-39.29-2.3-48.7,15.15-3.86,7.14-4.47,15.52-4.67,23.48-.2,8.54.24,17.23-1.49,25.65a61.12,61.12,0,0,1-5.24,14.27c-2.35,4.84-4.71,9.64-6.79,14.6A181.57,181.57,0,0,0,229.47,748c-2.24,10.29-3.89,21-2.54,31.55a45.62,45.62,0,0,0,11.55,25.3c13.51,14.77,34.15,19.55,53.5,17.64a109.09,109.09,0,0,0,49.38-17.91,123.87,123.87,0,0,0,35.23-35.76,116.38,116.38,0,0,0,17.72-46.6,107.78,107.78,0,0,0,1.05-12.3c.06-1.93-2.94-1.93-3,0a109.66,109.66,0,0,1-12.12,46.57,121.58,121.58,0,0,1-30.15,37.84,110.78,110.78,0,0,1-42.48,22.3c-18.61,4.93-39.77,5.16-56.61-5.3a46,46,0,0,1-17.22-18.59c-4.42-9.06-4.89-19.44-3.87-29.31a154.48,154.48,0,0,1,6.7-30.55,216.36,216.36,0,0,1,12.16-29.34,66.63,66.63,0,0,0,5.32-14,69.63,69.63,0,0,0,1.52-12.12c.41-8.18-.08-16.41.88-24.56.9-7.56,3.51-15,9.55-19.94,6.72-5.53,16-6.6,24.35-6.77,4.75-.09,9.51.07,14.26.22,5.35.18,10.71.45,16,1.08A78,78,0,0,1,350,636.71a110.74,110.74,0,0,1,23.52,17.59c6.4,6.31,12.24,13.93,14.38,22.82a26,26,0,0,1,0,12.47c-.48,1.87,2.42,2.67,2.89.8Z"/><path class="cls-4" d="M276.11,657.61a12.45,12.45,0,0,1-.53-12.33c1.94-3.84,6.82-7.62,11.13-5,3.53,2.14,5,7.05,5,10.94,0,5.38-2,11.33-7.12,13.86a8,8,0,0,1-7.88-.11,6.48,6.48,0,0,1-3.06-6.45c.38-1.88-2.51-2.69-2.89-.8-1.3,6.39,4.6,11.95,10.85,11.29,7.05-.75,11.59-7,12.71-13.57,1-5.64.06-12.34-4.34-16.44-4.75-4.43-11.61-2.45-15.35,2.3a15.63,15.63,0,0,0-1.07,17.84c1.05,1.61,3.65.1,2.59-1.52Z"/><path class="cls-4" d="M366.51,734.6a34.89,34.89,0,0,1-12.78-15.32c-.45-1-1.48-3.19-.25-4.07,1.06-.77,2.77-.25,3.86.16a14.05,14.05,0,0,1,6.3,5.29,45.63,45.63,0,0,1,4.7,9.27,1.55,1.55,0,0,0,1.84,1.05,1.51,1.51,0,0,0,1.05-1.85c-2.62-6.53-6-14-13.09-16.65a7.8,7.8,0,0,0-5.32-.27,4.42,4.42,0,0,0-2.89,4.35,14.64,14.64,0,0,0,1.94,5.82,36.42,36.42,0,0,0,3.19,5.29,38.3,38.3,0,0,0,9.94,9.52c1.61,1.07,3.12-1.52,1.51-2.59Z"/><path class="cls-4" d="M367.71,695.85a44.51,44.51,0,0,1-5.84-8.92c-1.28-2.59-3-5.86-.72-8.38a6.68,6.68,0,0,1,7.06-1.78c2.82.91,5,3.28,6.46,5.76,2.07,3.52,3,7.56,4.47,11.36.68,1.79,3.58,1,2.9-.8-2.69-7.13-4.62-16.21-12.73-19.11a9.72,9.72,0,0,0-9.67,1.86,7.72,7.72,0,0,0-2.48,4,9.57,9.57,0,0,0,.84,5.74A46.64,46.64,0,0,0,365.59,698c1.24,1.48,3.35-.65,2.12-2.12Z"/><path class="cls-4" d="M411.68,696.64a113.91,113.91,0,0,0,41.82,42.63c19.1,11.15,41.11,15.94,63,17a252,252,0,0,0,34-.85c5.81-.5,11.66-1.21,17.5-.65a30.59,30.59,0,0,1,15.29,6.1,83.73,83.73,0,0,1,11.62,10.81,129.5,129.5,0,0,1,9.57,11.6,137.83,137.83,0,0,1,15,26.17,136.41,136.41,0,0,1,11.37,59c-.35,10.36-1.35,21.73-6.72,30.85-4.89,8.31-13.36,13.5-22.29,16.57-10,3.42-20.64,4.67-31.11,5.22a195.38,195.38,0,0,1-35-1.41c-23.65-3-46.71-9.77-69-18.07-10.61-3.94-21.16-8.14-31.4-13-9.83-4.62-19.45-9.94-28-16.72S392.18,857.07,386,848.31c-6-8.61-11.53-17.61-17.89-26a115.05,115.05,0,0,0-10-11.7,1.5,1.5,0,0,0-2.12,2.12c15.18,15.32,24.14,35.46,38.65,51.34,15,16.38,35.38,26,55.59,34.23,22.35,9.13,45.33,17,69.06,21.68,23,4.51,46.92,6,70.1,2,9.41-1.62,19-4.46,26.87-10A36.92,36.92,0,0,0,626,902a44.69,44.69,0,0,0,5.91-15.46,119.14,119.14,0,0,0,1.77-31.15,140.53,140.53,0,0,0-34.31-83.23c-6.81-7.74-14.84-16.24-25-19.21-5.76-1.67-11.86-1.51-17.77-1s-11.5,1-17.27,1.31c-22.81,1.13-46.16-.52-67.69-8.63a109.87,109.87,0,0,1-57.35-49.44,1.5,1.5,0,0,0-2.59,1.51Z"/><path class="cls-4" d="M459.23,812.12c6.83,2.09,14,4.38,19.69,8.93a21.49,21.49,0,0,1,6.37,8.14c1.53,3.57,2.08,7.48,2.9,11.24.91,4.16,2.21,8.19,5,11.5,1.25,1.48,3.36-.65,2.13-2.13-2.5-3-3.5-6.82-4.29-10.54s-1.48-7.76-3.06-11.4c-3-6.88-9.26-11.35-15.92-14.32a102.23,102.23,0,0,0-12-4.31c-1.85-.57-2.64,2.32-.79,2.89Z"/><path class="cls-4" d="M462.31,792a52.3,52.3,0,0,0,35.75-16.18c1.32-1.4-.79-3.52-2.12-2.12A49.2,49.2,0,0,1,462.31,789c-1.92.07-1.93,3.07,0,3Z"/><path class="cls-4" d="M527.76,756.91A70,70,0,0,1,533.61,727a69.33,69.33,0,0,1,3.52-6.93c.58-1,1.18-2,1.81-2.94s1.23-2,2.5-1.16c3.4,2.29,4.66,7.26,4.86,11.09.26,5-.78,9.88-2,14.65a1.5,1.5,0,0,0,2.89.8c2.36-8.89,4.48-20.72-2.82-28-1.9-1.9-4.75-2.79-6.79-.54a34.64,34.64,0,0,0-4.46,7.24,72.78,72.78,0,0,0-8.32,35.73c0,1.92,3,1.93,3,0Z"/><path class="cls-4" d="M499.51,923.12q-10.18,8.52-20,17.53c-1.57,1.44-3.23,2.84-4.69,4.4a5.63,5.63,0,0,0-1.8,4.5,8.62,8.62,0,0,0,2.51,4.5,37.56,37.56,0,0,0,4.08,3.9,39.16,39.16,0,0,0,19.78,8.75c6,.75,13.42-.76,16-7,1.69-4,.79-8.61-.13-12.73A82.7,82.7,0,0,0,510.75,933a1.5,1.5,0,0,0-2.59,1.51,77.73,77.73,0,0,1,3.76,11.28c.85,3.34,1.8,7,1.38,10.44-.75,6.25-7.08,8-12.5,7.65-6.22-.42-12.41-3.15-17.41-6.76a34.82,34.82,0,0,1-3.73-3.12,17.5,17.5,0,0,1-3.18-3.59c-.9-1.57-.13-2.6,1-3.73,1.36-1.32,2.77-2.59,4.16-3.87q9.76-9,20-17.53c1.48-1.24-.65-3.36-2.12-2.12Z"/><path d="M261.27,602.63A212.19,212.19,0,0,0,247.81,556c-2.87-6.87-5.85-14-10-20.18-3.62-5.42-8.62-10.18-15.32-11.1-7.62-1-15.06,2.81-21.27,6.8-2.8,1.8-5.57,4-6.9,7.13a8.46,8.46,0,0,0,.76,8,6.21,6.21,0,0,0,8.07,1.94,15.82,15.82,0,0,0,6.8-7c3.3-6.26,3.12-13.59,1.18-20.23-2.31-7.86-6.49-15.2-10.07-22.53l-11.52-23.61-2.82-5.79c-.85-1.73-3.44-.21-2.6,1.52,6.9,14.13,14,28.17,20.68,42.43,2.89,6.19,5.42,13,4.6,19.92a19.09,19.09,0,0,1-2.86,8.18c-1.36,2.09-4.29,5.42-7.12,4.81-2.25-.48-3.07-3.47-2.68-5.43.57-2.93,3.34-5,5.67-6.54,5.57-3.65,12.36-7.42,19.26-6.7,6,.64,10.48,5.07,13.66,9.87,3.72,5.63,6.47,12,9.11,18.17a210.86,210.86,0,0,1,13.93,47.81c.32,1.9,3.21,1.1,2.9-.8Z"/><path d="M860.61,655.26q-19.71-20.19-37.69-42-5.13-6.22-10.1-12.57a1.52,1.52,0,0,0-2.57,1.06,183.06,183.06,0,0,0,7.76,34l1.84-1.85a151.1,151.1,0,0,1-20-4.5,1.53,1.53,0,0,0-1.85,1.85,27,27,0,0,0,10.6,17.48l.76-2.79q-18.27,1.54-36.54,3a1.51,1.51,0,0,0-.4,3l13.36,5.57A44.49,44.49,0,0,1,792,660.2c1.67,1-.54,2.23-1.56,2.7-1.83.84-3.8,1.42-5.67,2.19s-3.84,1.65-5.72,2.56a106,106,0,0,0-11,6.18,107.3,107.3,0,0,0-11.47,8.54c-1.07.91-.13,2.48,1.06,2.56l62.56,4.39c1.93.13,1.92-2.87,0-3l-62.56-4.39,1.06,2.56a103.62,103.62,0,0,1,23.64-15.08q3.18-1.47,6.47-2.71c1.88-.71,3.83-1.28,5.35-2.66a3.88,3.88,0,0,0,1.08-4.76c-1-1.85-3.44-2.45-5.25-3.21l-16.81-7-.4,2.94q18.27-1.46,36.54-3a1.52,1.52,0,0,0,.76-2.8,24,24,0,0,1-9.22-15.69L799,632.35a151.49,151.49,0,0,0,20,4.51c1.05.16,2.25-.65,1.85-1.85a179.44,179.44,0,0,1-7.65-33.24l-2.56,1.07q17.43,22.18,36.67,42.88,5.49,5.89,11.12,11.67c1.36,1.38,3.48-.74,2.13-2.13Z"/><path d="M1571.09,223.88c-.82-4.58-6.23-6.69-10.32-5.25-4.66,1.63-7.84,6.49-8.77,11.18s.19,9.95,4.21,12.93c3.28,2.42,8.17,3.09,11.68.75,4.25-2.85,4.63-8.35,4.81-13,.27-6.45.52-12.89.79-19.34.5-12.42,1.41-25-.17-37.36-.22-1.71-.47-3.42-.79-5.12-.17-.93-1.11-3.12-.15-3.74a7.26,7.26,0,0,1,2.27-.49l2.43-.43,5.34-.94,21.36-3.76c1.9-.34,1.1-3.23-.8-2.9l-17.23,3-8.5,1.5-4.12.72a5.93,5.93,0,0,0-3.05,1.22c-1.9,1.72-.84,4.45-.44,6.58a83.49,83.49,0,0,1,1.11,8.36,153.66,153.66,0,0,1,.35,16.76c-.28,11.64-.89,23.28-1.36,34.91-.15,3.9,0,9.68-4,11.78-3.2,1.65-7.63.1-9.52-2.84-2.76-4.28-1.53-10.29,1.59-14,1.48-1.79,3.67-3.42,6.11-3.25a4.49,4.49,0,0,1,4.3,3.53c.34,1.89,3.23,1.09,2.9-.8Z"/><path d="M1349.09,666.88c-.82-4.58-6.23-6.69-10.32-5.25-4.66,1.63-7.84,6.49-8.77,11.18s.19,10,4.21,12.93c3.28,2.42,8.17,3.09,11.68.75,4.25-2.85,4.63-8.35,4.81-13,.27-6.45.52-12.89.79-19.34.5-12.42,1.41-25-.17-37.36-.22-1.71-.47-3.42-.79-5.12-.17-.93-1.11-3.12-.15-3.74a7.26,7.26,0,0,1,2.27-.49l2.43-.43,5.34-.94,21.36-3.76c1.9-.34,1.1-3.23-.8-2.9l-17.23,3-8.5,1.5-4.12.72a5.93,5.93,0,0,0-3.05,1.22c-1.9,1.72-.84,4.45-.44,6.58a83.49,83.49,0,0,1,1.11,8.36,153.66,153.66,0,0,1,.35,16.76c-.28,11.64-.89,23.28-1.36,34.91-.15,3.9,0,9.68-4,11.78-3.2,1.65-7.63.1-9.52-2.84-2.76-4.28-1.53-10.29,1.59-14.05,1.48-1.79,3.67-3.42,6.11-3.25a4.49,4.49,0,0,1,4.3,3.53c.34,1.89,3.23,1.09,2.9-.8Z"/><path d="M203.09,191.88c-.82-4.58-6.23-6.69-10.32-5.25-4.66,1.63-7.84,6.49-8.77,11.18s.19,9.95,4.21,12.93c3.28,2.42,8.17,3.09,11.68.75,4.25-2.85,4.63-8.35,4.81-13,.27-6.45.52-12.89.79-19.34.5-12.42,1.41-25-.17-37.36-.22-1.71-.47-3.42-.79-5.12-.17-.93-1.11-3.12-.15-3.74a7.26,7.26,0,0,1,2.27-.49l2.43-.43,5.34-.94,21.36-3.76c1.9-.34,1.1-3.23-.8-2.9l-17.23,3-8.5,1.5-4.12.72a5.93,5.93,0,0,0-3,1.22c-1.9,1.72-.84,4.45-.44,6.58a83.49,83.49,0,0,1,1.11,8.36,153.66,153.66,0,0,1,.35,16.76c-.28,11.64-.89,23.28-1.36,34.91-.15,3.9,0,9.68-4,11.78-3.2,1.65-7.63.1-9.52-2.84-2.76-4.28-1.53-10.29,1.59-14,1.48-1.79,3.67-3.42,6.11-3.25a4.49,4.49,0,0,1,4.3,3.53c.34,1.89,3.23,1.09,2.9-.8Z"/><path d="M1818.84,698c-3.37,3.41-7,7.1-8.17,11.9-1.07,4.26-.18,9.06,3.5,11.79a11.94,11.94,0,0,0,11.09,1.21c4.07-1.57,6.87-5.08,8.45-9,1.88-4.75,1.85-10,1.35-15-.58-5.75-1.31-11.42-1.38-17.21s.23-11.43.62-17.13c.1-1.47.21-2.94.32-4.4a10.77,10.77,0,0,1,.5-3.58c.42-1,1.38-1.08,2.3-1.22,1.56-.22,3.14-.38,4.7-.57l39.34-4.83-1.5-1.5q2,21.78,3.69,43.59c.28,3.64.55,7.27.81,10.91a21.68,21.68,0,0,1-.32,7.32c-.52,1.92-1.66,3.86-3.91,3.72-2.75-.16-5.73-2.51-7.54-4.43a9.79,9.79,0,0,1-2.93-7.95,7,7,0,0,1,4.57-5.9c1.84-.56,1.06-3.45-.8-2.89-5.75,1.74-8.16,8.66-6.07,14a16.6,16.6,0,0,0,6,7.32c2.6,1.86,6.13,3.69,9.34,2.4,5.48-2.21,4.94-9.85,4.6-14.59q-.92-12.52-1.93-25-1.17-14.25-2.5-28.48c-.07-.73-.63-1.61-1.5-1.5L1848.31,651l-8.41,1c-2.17.27-4.92.19-6.58,1.87s-1.53,4-1.68,6c-.2,2.69-.4,5.38-.56,8.08-.33,5.54-.53,11.09-.33,16.64s1.08,10.78,1.48,16.19c.34,4.6.14,9.42-2,13.59-1.82,3.48-5,6.16-9,6.31-4.57.16-8-2.91-7.91-7.58.1-5.36,4.2-9.44,7.74-13a1.5,1.5,0,0,0-2.13-2.12Z"/><path d="M1617.84,485c-3.37,3.41-7,7.1-8.17,11.9-1.07,4.26-.18,9.06,3.5,11.79a11.94,11.94,0,0,0,11.09,1.21c4.07-1.57,6.87-5.08,8.45-9.05,1.88-4.75,1.85-9.95,1.35-15-.58-5.75-1.31-11.42-1.38-17.21s.23-11.43.62-17.13c.1-1.47.21-2.94.32-4.4a10.77,10.77,0,0,1,.5-3.58c.42-1,1.38-1.08,2.3-1.22,1.56-.22,3.14-.38,4.7-.57l39.34-4.83-1.5-1.5q2,21.78,3.69,43.59c.28,3.64.55,7.27.81,10.91a21.68,21.68,0,0,1-.32,7.32c-.52,1.92-1.66,3.86-3.91,3.72-2.75-.16-5.73-2.51-7.54-4.43a9.79,9.79,0,0,1-2.93-7.95,7,7,0,0,1,4.57-5.9c1.84-.56,1.06-3.45-.8-2.89-5.75,1.74-8.16,8.66-6.07,14a16.6,16.6,0,0,0,6,7.32c2.6,1.86,6.13,3.69,9.34,2.4,5.48-2.21,4.94-9.85,4.6-14.59q-.92-12.53-1.93-25-1.17-14.25-2.5-28.48c-.07-.73-.63-1.61-1.5-1.5L1647.31,438l-8.41,1c-2.17.27-4.92.19-6.58,1.87s-1.53,3.95-1.68,6c-.2,2.69-.4,5.38-.56,8.08-.33,5.54-.53,11.09-.33,16.64s1.08,10.78,1.48,16.19c.34,4.6.14,9.42-2,13.59-1.82,3.48-5,6.16-9,6.31-4.57.16-8-2.91-7.91-7.58.1-5.36,4.2-9.44,7.74-13a1.5,1.5,0,0,0-2.13-2.12Z"/><path d="M1191.84,171c-3.37,3.41-7,7.1-8.17,11.9-1.07,4.26-.18,9.06,3.5,11.79a11.94,11.94,0,0,0,11.09,1.21c4.07-1.57,6.87-5.08,8.45-9.05,1.88-4.75,1.85-9.95,1.35-15-.58-5.75-1.31-11.42-1.38-17.21s.23-11.43.62-17.13c.1-1.47.21-2.94.32-4.4a10.77,10.77,0,0,1,.5-3.58c.42-1,1.38-1.08,2.3-1.22,1.56-.22,3.14-.38,4.7-.57l39.34-4.83-1.5-1.5q2,21.78,3.69,43.59c.28,3.64.55,7.27.81,10.91a21.68,21.68,0,0,1-.32,7.32c-.52,1.92-1.66,3.86-3.91,3.72-2.75-.16-5.73-2.51-7.54-4.43a9.79,9.79,0,0,1-2.93-7.95,7,7,0,0,1,4.57-5.9c1.84-.56,1.06-3.45-.8-2.89-5.75,1.74-8.16,8.66-6.07,14a16.6,16.6,0,0,0,6,7.32c2.6,1.86,6.13,3.69,9.34,2.4,5.48-2.21,4.94-9.85,4.6-14.59q-.92-12.52-1.93-25-1.17-14.25-2.5-28.48c-.07-.73-.63-1.61-1.5-1.5L1221.31,124l-8.41,1c-2.17.27-4.92.19-6.58,1.87s-1.53,4-1.68,6c-.2,2.69-.4,5.38-.56,8.08-.33,5.54-.53,11.09-.33,16.64s1.08,10.78,1.48,16.19c.34,4.6.14,9.42-2,13.59-1.82,3.48-5,6.16-9,6.31-4.57.16-8-2.91-7.91-7.58.1-5.36,4.2-9.44,7.74-13a1.5,1.5,0,0,0-2.13-2.12Z"/><path d="M119.84,922c-3.37,3.41-7,7.1-8.17,11.9-1.07,4.26-.18,9.06,3.5,11.79a11.94,11.94,0,0,0,11.09,1.21c4.07-1.57,6.87-5.08,8.45-9,1.88-4.75,1.85-10,1.35-15-.58-5.75-1.31-11.42-1.38-17.21s.23-11.43.62-17.13c.1-1.47.21-2.94.32-4.4a10.77,10.77,0,0,1,.5-3.58c.42-1,1.38-1.08,2.3-1.22,1.56-.22,3.14-.38,4.7-.57l39.34-4.83-1.5-1.5q2,21.78,3.69,43.59c.28,3.64.55,7.27.81,10.91a21.68,21.68,0,0,1-.32,7.32c-.52,1.92-1.66,3.86-3.91,3.72-2.75-.16-5.73-2.51-7.54-4.43a9.79,9.79,0,0,1-2.93-7.95,7,7,0,0,1,4.57-5.9c1.84-.56,1.06-3.45-.8-2.89-5.75,1.74-8.16,8.66-6.07,14a16.6,16.6,0,0,0,6,7.32c2.6,1.86,6.13,3.69,9.34,2.4,5.48-2.21,4.94-9.85,4.6-14.59q-.91-12.52-1.93-25-1.17-14.25-2.5-28.48c-.07-.73-.63-1.61-1.5-1.5L149.31,875l-8.41,1c-2.17.27-4.92.19-6.58,1.87s-1.53,4-1.68,6c-.2,2.69-.4,5.38-.56,8.08-.33,5.54-.53,11.09-.33,16.64s1.08,10.78,1.48,16.19c.34,4.6.14,9.42-2,13.59-1.82,3.48-5,6.16-9,6.31-4.57.16-8-2.91-7.91-7.58.1-5.36,4.2-9.44,7.74-13a1.5,1.5,0,0,0-2.13-2.12Z"/><path d="M1017,970.86a408.63,408.63,0,0,0,17.64,50q2.76,6.4,5.8,12.68c.84,1.74,3.43.22,2.59-1.51a364.41,364.41,0,0,1-18.65-47.13q-2.37-7.36-4.48-14.81a1.51,1.51,0,0,0-2.9.8Z"/><path d="M516,128.34l-6.47,103.27L477.41,233l.28-54.45-14.49,43.9H450.81L439.7,183.21l-.14,45.59-32.5,1,1.41-97.22,36.15-1.41L459,177.73l19.13-49.39Z"/><path d="M607.13,181.24a50.75,50.75,0,0,1-1.48,12.35,47.82,47.82,0,0,1-4.26,11.15,45.93,45.93,0,0,1-6.75,9.53,42.84,42.84,0,0,1-8.93,7.42,43.44,43.44,0,0,1-23.18,6.55,44.2,44.2,0,0,1-12.07-1.62,45.79,45.79,0,0,1-10.73-4.54,42.85,42.85,0,0,1-9-7,43.64,43.64,0,0,1-6.9-9.14,46.71,46.71,0,0,1-4.43-10.8,45,45,0,0,1-1.58-12A49,49,0,0,1,523.52,160a47.65,47.65,0,0,1,6.72-9.57,44,44,0,0,1,8.83-7.53A42.38,42.38,0,0,1,549.65,138a40.66,40.66,0,0,1,12-1.76,52.44,52.44,0,0,1,18.61,3.17,39.45,39.45,0,0,1,23.57,23.25A50.54,50.54,0,0,1,607.13,181.24Zm-31.24,1.83a19.69,19.69,0,0,0-.88-5.87,16.14,16.14,0,0,0-2.56-5.07,13.34,13.34,0,0,0-4.19-3.59,11.76,11.76,0,0,0-5.73-1.37,13.93,13.93,0,0,0-5.91,1.2,13.54,13.54,0,0,0-4.47,3.27,14.43,14.43,0,0,0-2.85,4.85,17.45,17.45,0,0,0-1,5.88,21.53,21.53,0,0,0,.84,5.91,17.53,17.53,0,0,0,2.53,5.34,13.35,13.35,0,0,0,4.19,3.87,11.12,11.12,0,0,0,5.8,1.48,13.23,13.23,0,0,0,6-1.3,13.52,13.52,0,0,0,4.47-3.52,16.41,16.41,0,0,0,2.81-5.1A18.24,18.24,0,0,0,575.89,183.07Z"/><path d="M699,181.24a51.24,51.24,0,0,1-1.47,12.35,48.73,48.73,0,0,1-4.26,11.15,45.93,45.93,0,0,1-6.75,9.53,42.64,42.64,0,0,1-8.94,7.42,43.44,43.44,0,0,1-23.18,6.55,44.13,44.13,0,0,1-12.06-1.62,45.61,45.61,0,0,1-10.73-4.54,43.64,43.64,0,0,1-15.93-16.18,47.18,47.18,0,0,1-4.44-10.8,45.41,45.41,0,0,1-1.58-12,48.46,48.46,0,0,1,12.45-32.64,44.31,44.31,0,0,1,8.83-7.53A42.29,42.29,0,0,1,641.53,138a40.66,40.66,0,0,1,12-1.76,52.48,52.48,0,0,1,18.61,3.17,39.39,39.39,0,0,1,23.56,23.25A50.54,50.54,0,0,1,699,181.24Zm-31.23,1.83a20,20,0,0,0-.88-5.87,16.16,16.16,0,0,0-2.57-5.07,13.3,13.3,0,0,0-4.18-3.59,11.8,11.8,0,0,0-5.74-1.37,14,14,0,0,0-5.91,1.2,13.6,13.6,0,0,0-4.46,3.27,14.1,14.1,0,0,0-2.85,4.85,17.45,17.45,0,0,0-1,5.88,21.17,21.17,0,0,0,.85,5.91,17.3,17.3,0,0,0,2.53,5.34,13.32,13.32,0,0,0,4.18,3.87,11.16,11.16,0,0,0,5.81,1.48,13.22,13.22,0,0,0,5.94-1.3,13.42,13.42,0,0,0,4.47-3.52,16,16,0,0,0,2.81-5.1A18.25,18.25,0,0,0,667.77,183.07Z"/><path d="M552,274.34l-6.47,103.27L513.41,379l.28-54.45-14.49,43.9H486.81L475.7,329.21l-.14,45.59-32.5,1,1.41-97.22,36.15-1.41L495,323.73l19.13-49.39Z"/><path d="M643.13,327.24a50.75,50.75,0,0,1-1.48,12.35,47.82,47.82,0,0,1-4.26,11.15,45.93,45.93,0,0,1-6.75,9.53,42.84,42.84,0,0,1-8.93,7.42,43.44,43.44,0,0,1-23.18,6.55,44.2,44.2,0,0,1-12.07-1.62,45.79,45.79,0,0,1-10.73-4.54,42.85,42.85,0,0,1-9-7,43.64,43.64,0,0,1-6.9-9.14,46.71,46.71,0,0,1-4.43-10.8,45,45,0,0,1-1.58-12A49,49,0,0,1,559.52,306a47.65,47.65,0,0,1,6.72-9.57,44,44,0,0,1,8.83-7.53A42.38,42.38,0,0,1,585.65,284a40.66,40.66,0,0,1,12-1.76,52.44,52.44,0,0,1,18.61,3.17,39.45,39.45,0,0,1,23.57,23.25A50.54,50.54,0,0,1,643.13,327.24Zm-31.24,1.83a19.69,19.69,0,0,0-.88-5.87,16.14,16.14,0,0,0-2.56-5.07,13.34,13.34,0,0,0-4.19-3.59,11.76,11.76,0,0,0-5.73-1.37,13.93,13.93,0,0,0-5.91,1.2,13.54,13.54,0,0,0-4.47,3.27,14.43,14.43,0,0,0-2.85,4.85,17.45,17.45,0,0,0-1,5.88,21.53,21.53,0,0,0,.84,5.91,17.53,17.53,0,0,0,2.53,5.34,13.35,13.35,0,0,0,4.19,3.87,11.12,11.12,0,0,0,5.8,1.48,13.23,13.23,0,0,0,6-1.3,13.52,13.52,0,0,0,4.47-3.52,16.41,16.41,0,0,0,2.81-5.1A18.24,18.24,0,0,0,611.89,329.07Z"/><path d="M735,327.24a51.24,51.24,0,0,1-1.47,12.35,48.73,48.73,0,0,1-4.26,11.15,45.93,45.93,0,0,1-6.75,9.53,42.64,42.64,0,0,1-8.94,7.42,43.44,43.44,0,0,1-23.18,6.55,44.13,44.13,0,0,1-12.06-1.62,45.61,45.61,0,0,1-10.73-4.54,43.64,43.64,0,0,1-15.93-16.18,47.18,47.18,0,0,1-4.44-10.8,45.41,45.41,0,0,1-1.58-12,48.46,48.46,0,0,1,12.45-32.64,44.31,44.31,0,0,1,8.83-7.53A42.29,42.29,0,0,1,677.53,284a40.66,40.66,0,0,1,12-1.76,52.48,52.48,0,0,1,18.61,3.17,39.39,39.39,0,0,1,23.56,23.25A50.54,50.54,0,0,1,735,327.24Zm-31.23,1.83a20,20,0,0,0-.88-5.87,16.16,16.16,0,0,0-2.57-5.07,13.3,13.3,0,0,0-4.18-3.59,11.8,11.8,0,0,0-5.74-1.37,14,14,0,0,0-5.91,1.2,13.6,13.6,0,0,0-4.46,3.27,14.1,14.1,0,0,0-2.85,4.85,17.45,17.45,0,0,0-1,5.88,21.17,21.17,0,0,0,.85,5.91,17.3,17.3,0,0,0,2.53,5.34,13.32,13.32,0,0,0,4.18,3.87,11.16,11.16,0,0,0,5.81,1.48,13.22,13.22,0,0,0,5.94-1.3,13.42,13.42,0,0,0,4.47-3.52,16,16,0,0,0,2.81-5.1A18.25,18.25,0,0,0,703.77,329.07Z"/><path d="M500,446.34l-6.47,103.27L461.41,551l.28-54.45-14.49,43.9H434.81L423.7,501.21l-.14,45.59-32.5,1,1.41-97.22,36.15-1.41L443,495.73l19.13-49.39Z"/><path d="M591.13,499.24a50.75,50.75,0,0,1-1.48,12.35,47.82,47.82,0,0,1-4.26,11.15,45.93,45.93,0,0,1-6.75,9.53,42.84,42.84,0,0,1-8.93,7.42,43.44,43.44,0,0,1-23.18,6.55,44.2,44.2,0,0,1-12.07-1.62,45.79,45.79,0,0,1-10.73-4.54,42.85,42.85,0,0,1-9-7,43.64,43.64,0,0,1-6.9-9.14,46.71,46.71,0,0,1-4.43-10.8,45,45,0,0,1-1.58-12A49,49,0,0,1,507.52,478a47.65,47.65,0,0,1,6.72-9.57,44,44,0,0,1,8.83-7.53A42.38,42.38,0,0,1,533.65,456a40.66,40.66,0,0,1,12-1.76,52.44,52.44,0,0,1,18.61,3.17,39.45,39.45,0,0,1,23.57,23.25A50.54,50.54,0,0,1,591.13,499.24Zm-31.24,1.83a19.69,19.69,0,0,0-.88-5.87,16.14,16.14,0,0,0-2.56-5.07,13.34,13.34,0,0,0-4.19-3.59,11.76,11.76,0,0,0-5.73-1.37,13.93,13.93,0,0,0-5.91,1.2,13.54,13.54,0,0,0-4.47,3.27,14.43,14.43,0,0,0-2.85,4.85,17.45,17.45,0,0,0-1,5.88,21.53,21.53,0,0,0,.84,5.91,17.53,17.53,0,0,0,2.53,5.34,13.35,13.35,0,0,0,4.19,3.87,11.12,11.12,0,0,0,5.8,1.48,13.23,13.23,0,0,0,6-1.3,13.52,13.52,0,0,0,4.47-3.52,16.41,16.41,0,0,0,2.81-5.1A18.24,18.24,0,0,0,559.89,501.07Z"/><path d="M683,499.24a51.24,51.24,0,0,1-1.47,12.35,48.73,48.73,0,0,1-4.26,11.15,45.93,45.93,0,0,1-6.75,9.53,42.64,42.64,0,0,1-8.94,7.42,43.44,43.44,0,0,1-23.18,6.55,44.13,44.13,0,0,1-12.06-1.62,45.61,45.61,0,0,1-10.73-4.54,43.64,43.64,0,0,1-15.93-16.18,47.18,47.18,0,0,1-4.44-10.8,45.41,45.41,0,0,1-1.58-12,48.46,48.46,0,0,1,12.45-32.64,44.31,44.31,0,0,1,8.83-7.53A42.29,42.29,0,0,1,625.53,456a40.66,40.66,0,0,1,12-1.76,52.48,52.48,0,0,1,18.61,3.17,39.39,39.39,0,0,1,23.56,23.25A50.54,50.54,0,0,1,683,499.24Zm-31.23,1.83a20,20,0,0,0-.88-5.87,16.16,16.16,0,0,0-2.57-5.07,13.3,13.3,0,0,0-4.18-3.59,11.8,11.8,0,0,0-5.74-1.37,14,14,0,0,0-5.91,1.2,13.6,13.6,0,0,0-4.46,3.27,14.1,14.1,0,0,0-2.85,4.85,17.45,17.45,0,0,0-1,5.88,21.17,21.17,0,0,0,.85,5.91,17.3,17.3,0,0,0,2.53,5.34,13.32,13.32,0,0,0,4.18,3.87,11.16,11.16,0,0,0,5.81,1.48,13.22,13.22,0,0,0,5.94-1.3,13.42,13.42,0,0,0,4.47-3.52,16,16,0,0,0,2.81-5.1A18.25,18.25,0,0,0,651.77,501.07Z"/></svg>