<svg id="Layer_1" data-name="Layer 1" xmlns="http://www.w3.org/2000/svg" viewBox="0 0 1920 1080"><defs><style>.cls-1{fill:#3785e2;}.cls-1,.cls-2{opacity:0.5;}.cls-2{fill:#39b54a;}.cls-3{opacity:0.3;}.cls-4{fill:#4d4d4d;}</style></defs><title>45</title><ellipse class="cls-1" cx="1537.1" cy="728.35" rx="247.36" ry="117.49" transform="translate(-131.74 399.49) rotate(-14.21)"/><ellipse class="cls-1" cx="1115.55" cy="509.84" rx="151.49" ry="99.81"/><rect class="cls-2" x="768.84" y="701.21" width="437.92" height="263.17" transform="translate(286.89 -252.57) rotate(17.01)"/><rect class="cls-2" x="699.95" y="446.12" width="181.83" height="109.27" transform="translate(181.12 -209.48) rotate(17.01)"/><rect class="cls-2" x="826.95" y="236.12" width="181.83" height="109.27" transform="translate(125.24 -255.83) rotate(17.01)"/><rect class="cls-2" x="673.95" y="114.12" width="181.83" height="109.27" transform="translate(82.85 -216.4) rotate(17.01)"/><path class="cls-3" d="M424.44,732.16c-85.24-13.49-134.29-46.36-187,8.52s-64.72,119.9-64.72,119.9-75.56,93.25,43.4,139.08,149.62,73,202.36,48S541.89,902.67,541.89,902.67s13.84-87.92-28.8-108.17-57.61-8-72.57-24S451.37,736.42,424.44,732.16Z"/><path class="cls-3" d="M534.77,57.66C486.13,50,458.13,31.2,428,62.52S391.09,131,391.09,131,348,184.18,415.86,210.34s85.4,41.66,115.5,27.37S601.81,155,601.81,155s7.9-50.18-16.44-61.74S552.49,88.68,544,79.56,550.15,60.09,534.77,57.66Z"/><path class="cls-3" d="M419.77,225.66C371.13,218,343.13,199.2,313,230.52S276.09,299,276.09,299,233,352.18,300.86,378.34s85.4,41.66,115.5,27.37S486.81,323,486.81,323s7.9-50.18-16.44-61.74-32.88-4.56-41.42-13.68S435.15,228.09,419.77,225.66Z"/><path class="cls-3" d="M532.77,447.66C484.13,440,456.13,421.2,426,452.52S389.09,521,389.09,521,346,574.18,413.86,600.34s85.4,41.66,115.5,27.37S599.81,545,599.81,545s7.9-50.18-16.44-61.74-32.88-4.56-41.42-13.68S548.15,450.09,532.77,447.66Z"/><path d="M793.05,310.49q0,1.1,0,3.27c0,1.45-.08,3.09-.16,4.9s-.21,3.7-.36,5.65-.35,3.77-.61,5.48a34.13,34.13,0,0,1-.93,4.49,5.18,5.18,0,0,1-1.31,2.56,7.74,7.74,0,0,1-1.51,1q-.93.51-1.92,1c-.66.3-1.31.57-2,.8a16,16,0,0,1-1.73.55c.81,1.92,1.61,3.81,2.38,5.67s1.53,3.75,2.3,5.68l-9.49,2.24c-1.24-1.79-2.4-3.59-3.49-5.38s-2.26-3.57-3.5-5.33a7,7,0,0,1-1,.07h-1c-.73,0-1.8,0-3.24-.13s-3-.21-4.81-.38-3.62-.39-5.54-.65-3.71-.53-5.36-.83a33.42,33.42,0,0,1-4.26-1,5.07,5.07,0,0,1-2.31-1.21,9.35,9.35,0,0,1-1.51-3.63c-.4-1.69-.73-3.5-1-5.45s-.45-3.82-.58-5.64-.19-3.2-.19-4.14-.06-2.12-.06-3.17v-3.24c0-.81,0-1.86,0-3.14s.09-2.61.22-4a25.62,25.62,0,0,1,.64-3.84,6.15,6.15,0,0,1,1.35-2.76,5.24,5.24,0,0,1,2.28-1.12,39.23,39.23,0,0,1,4.2-1q2.43-.48,5.25-.87c1.89-.25,3.72-.49,5.52-.7s3.45-.38,5-.48,2.7-.18,3.56-.23l3.72-.09,3.72,0q2.43,0,5.16.09a20.41,20.41,0,0,1,5.19.84,12,12,0,0,1,4.36,2.33,8.65,8.65,0,0,1,2.66,4.56,11.71,11.71,0,0,1,.23,1.54c.06.64.11,1.32.13,2s0,1.43,0,2.12Zm-13.85,3.72v-.84a7,7,0,0,0-.07-1,4.2,4.2,0,0,0-.22-1,1.94,1.94,0,0,0-.42-.71,2.94,2.94,0,0,0-.89-.45,5.52,5.52,0,0,0-1.26-.25c-.44-.05-.89-.08-1.34-.1l-1.06,0c-.6,0-1.53,0-2.79.13s-2.67.21-4.23.38-3.2.37-4.91.61-3.29.5-4.74.8a34.77,34.77,0,0,0-3.75,1,4,4,0,0,0-2,1.09,2,2,0,0,0-.29,1c0,.43,0,.81,0,1.15,0,.86.06,1.93.19,3.21s.3,2.61.52,4,.43,2.69.67,4,.46,2.33.67,3.14q1.55.58,2.76.93a20.12,20.12,0,0,0,2.37.55c.77.13,1.57.22,2.41.29s1.8.11,2.91.16l-4-6.42c1.11-.55,2.16-1.09,3.14-1.6s2-1,3-1.41a32.54,32.54,0,0,1,3-1.15c1-.35,2.19-.67,3.43-1l4.29,8.79a39.71,39.71,0,0,0,2-7.53A49.39,49.39,0,0,0,779.2,314.21Z"/><path d="M844.22,340.24l-10.84.45-.77-6.48A11.68,11.68,0,0,1,829.7,337,16.59,16.59,0,0,1,826,338.9a19.71,19.71,0,0,1-4,1,30.1,30.1,0,0,1-4.07.29,35.53,35.53,0,0,1-3.82-.26c-1.51-.17-3.05-.42-4.61-.74a26.2,26.2,0,0,1-4.33-1.25,7.28,7.28,0,0,1-2.89-1.79,5.32,5.32,0,0,1-1.06-2.47,28.05,28.05,0,0,1-.48-3.62c-.08-1.29-.12-2.52-.12-3.72v-2.89c0-3.2.12-6.37.38-9.49s.62-6.22,1.09-9.3c1.2-.12,2.48-.19,3.85-.19a24.85,24.85,0,0,1,3.33.23c1.11.15,2.23.33,3.34.54,0,.22,0,.83.06,1.86s.1,2.24.16,3.65.14,2.92.23,4.53.18,3.09.28,4.45.24,2.54.39,3.5.31,1.48.48,1.57a4.57,4.57,0,0,0,2.12.64c.77,0,1.51.06,2.24.06.51,0,1.31,0,2.41-.09s2.21-.17,3.36-.32a29.84,29.84,0,0,0,3.21-.58,4.27,4.27,0,0,0,2-.87,2.54,2.54,0,0,0,.28-1.21c.07-.69.11-1.44.13-2.25s0-1.57.07-2.28,0-1.12,0-1.25c0-1.92,0-3.82-.13-5.7s-.17-3.79-.26-5.71l12.44-.58c.26,3,.49,6,.71,9s.49,5.95.83,8.94a27.15,27.15,0,0,1,.23,3c0,1,0,2.05.09,3.08.09,1.92.14,3.84.16,5.77S844.18,338.28,844.22,340.24Z"/><path d="M896.29,314.59q0,5.39-.38,10.71T895.14,336q-7.18.63-14.3,1.09t-14.3.44l-2.38,0c-1.15,0-2.37-.06-3.65-.13s-2.5-.14-3.66-.25a6.87,6.87,0,0,1-2.3-.48,6.58,6.58,0,0,1-3-2.92,9.36,9.36,0,0,1-.83-4c0-.51,0-1.2.07-2.05s.12-1.75.25-2.69a23.16,23.16,0,0,1,.51-2.63,5.51,5.51,0,0,1,.77-1.8,5,5,0,0,1,2.63-1.31,34.36,34.36,0,0,1,4.91-.87q2.85-.31,6.16-.51t6.31-.29c2-.06,3.81-.1,5.39-.1h3.4a20.08,20.08,0,0,0,.19-2.75V314a2.17,2.17,0,0,0-.06-.67c-.13-.26-.54-.47-1.22-.64a17.13,17.13,0,0,0-2.54-.39c-1-.08-2.09-.16-3.27-.22s-2.32-.1-3.43-.1H866c-2.69,0-5.38.06-8.08.16s-5.38.21-8.08.29c.17-1.62.31-3.27.42-4.94a40.6,40.6,0,0,0,0-4.93,93.22,93.22,0,0,1,9.4-1.19q4.71-.35,9.52-.35l3.78,0c1.37,0,2.74.06,4.11.13s2.72.16,4.07.29,2.6.3,3.75.51a14.21,14.21,0,0,1,3.56,1.15,16.87,16.87,0,0,1,3.3,2.06,14.45,14.45,0,0,1,2.69,2.78,10.62,10.62,0,0,1,1.67,3.37,2.94,2.94,0,0,1,.1.64c0,.3,0,.63,0,1v1.63ZM882,329.66v-8.21l-3.72-.09q-1.86,0-3.72,0l-2.15,0c-1.17,0-2.43.07-3.78.16s-2.58.19-3.69.32-1.75.32-1.92.58a3.13,3.13,0,0,0-.42,1.05,7,7,0,0,0-.09,1.13c0,.3,0,.7.06,1.21a13.86,13.86,0,0,0,.23,1.61c.1.55.22,1.07.35,1.54a2.31,2.31,0,0,0,.51,1,1.51,1.51,0,0,0,.87.48,9.49,9.49,0,0,0,1.31.26c.47.06.94.11,1.41.13l1.09,0c1,0,2.13,0,3.3-.13s2.38-.18,3.59-.29,2.41-.23,3.56-.38Z"/><path d="M944.51,309.72a20.87,20.87,0,0,1-.77,5.71c-.3,0-1.18.09-2.66.16l-5.26.25q-3,.17-6.54.39t-6.47.48q-3,.26-5.07.54a6.7,6.7,0,0,0-2.34.55,5.53,5.53,0,0,0-1.54,2.18,6.87,6.87,0,0,0-.51,2.56,3.37,3.37,0,0,0,.16,1.19,3.86,3.86,0,0,0,.54.93,3,3,0,0,0,1.35.32c.77.09,1.62.15,2.56.19s1.82.08,2.63.1l1.41,0q4.62,0,9.24-.19c3.08-.13,6.15-.3,9.23-.51l.51,11q-6.4.53-12.85,1t-12.92.48h-.93l-1.32,0c-.47,0-.92-.05-1.34-.1a5.6,5.6,0,0,1-.9-.13c-.9-.25-1.79-.54-2.66-.86a12.61,12.61,0,0,1-2.47-1.22,9,9,0,0,1-2-1.76,6.2,6.2,0,0,1-1.25-2.5,17.55,17.55,0,0,1-.42-2.54c-.11-1-.18-2.12-.22-3.24s-.08-2.2-.1-3.27,0-2,0-2.69q0-2.5.06-4.68a13.1,13.1,0,0,1,.71-4,8.52,8.52,0,0,1,2.08-3.27,12.39,12.39,0,0,1,4.14-2.53,14.27,14.27,0,0,1,3.65-.8q2.44-.3,5.1-.45c1.77-.11,3.47-.18,5.1-.23s2.88-.06,3.78-.06c3,0,6,.06,9,.19s6,.3,8.94.52c.13,1.06.24,2.12.32,3.17S944.51,308.69,944.51,309.72Z"/><path d="M992.73,308.18l-16.48,11.93c.13.51.39,1.33.77,2.47s.81,2.3,1.28,3.52,1,2.35,1.51,3.4a5.28,5.28,0,0,0,1.51,2,3.5,3.5,0,0,0,1.15.52c.47.12.95.23,1.45.32a14.67,14.67,0,0,0,1.47.16l1.25,0c.6,0,1.22,0,1.86-.07s1.26-.1,1.86-.19c-.09.56-.15,1.12-.19,1.7s-.07,1.17-.07,1.76c0,1,0,2.06.07,3.08s.06,2,.06,3l-1.57.16-2.56.19-3.05.22-3,.23q-1.38.09-2.37.09a3.8,3.8,0,0,1-1.25-.12c-.73-.35-1.44-.71-2.12-1.09a5.11,5.11,0,0,1-1.73-1.61,13.25,13.25,0,0,1-1.06-2.44c-.49-1.32-1-2.77-1.54-4.36s-1-3.05-1.47-4.42-.74-2.25-.87-2.63l-6.15,4V341.2l-12.7,1.09q.38-9,.83-17.85t.45-17.93c0-1.83,0-3.65,0-5.45s-.06-3.63-.1-5.51a37.71,37.71,0,0,0,5.23.64c1.73.09,3.47.21,5.22.38v24q5-3.09,9.78-6.29a99.37,99.37,0,0,0,9.27-7c2.26.25,4.48.45,6.64.57Z"/><path d="M1009.28,294.2c0,1.11-.1,2.33-.16,3.66s-.14,2.67-.23,4-.2,2.7-.35,4-.33,2.52-.55,3.63c-.64,3.2-1.29,6.37-2,9.49s-1.32,6.28-2,9.49l-7.05.64L995.43,313q-.45-4.37-.65-8.75t-.44-8.82Zm-1.16,44.18a3.93,3.93,0,0,1-.67,2.15,7.8,7.8,0,0,1-1.7,1.89,8.31,8.31,0,0,1-2.24,1.32,6.24,6.24,0,0,1-2.25.48,6.56,6.56,0,0,1-2-.35,7.37,7.37,0,0,1-1.92-1,4.81,4.81,0,0,1-1.41-1.5,3.85,3.85,0,0,1-.55-2.06,3.63,3.63,0,0,1,.74-2.21,6.79,6.79,0,0,1,1.79-1.67,8.88,8.88,0,0,1,2.31-1,8.52,8.52,0,0,1,2.34-.35,6.4,6.4,0,0,1,3.24.83,5.1,5.1,0,0,1,2.15,2.5,1.69,1.69,0,0,1,.16.48A3.64,3.64,0,0,1,1008.12,338.38Z"/><path d="M703.05,477.49q0,1.1,0,3.27c0,1.45-.08,3.09-.16,4.9s-.21,3.7-.36,5.65-.35,3.77-.61,5.48a34.13,34.13,0,0,1-.93,4.49,5.18,5.18,0,0,1-1.31,2.56,7.74,7.74,0,0,1-1.51,1q-.93.51-1.92,1c-.66.3-1.31.57-2,.8a16,16,0,0,1-1.73.55c.81,1.92,1.61,3.81,2.38,5.67s1.53,3.75,2.3,5.68l-9.49,2.24c-1.24-1.79-2.4-3.59-3.49-5.38s-2.26-3.57-3.5-5.33a7,7,0,0,1-1,.07h-1c-.73,0-1.8,0-3.24-.13s-3-.21-4.81-.38-3.62-.39-5.54-.65-3.71-.53-5.36-.83a33.42,33.42,0,0,1-4.26-1,5.07,5.07,0,0,1-2.31-1.21,9.35,9.35,0,0,1-1.51-3.63c-.4-1.69-.73-3.5-1-5.45s-.45-3.82-.58-5.64-.19-3.2-.19-4.14-.06-2.12-.06-3.17v-3.24c0-.81,0-1.86,0-3.14s.09-2.61.22-4a25.62,25.62,0,0,1,.64-3.84,6.15,6.15,0,0,1,1.35-2.76,5.24,5.24,0,0,1,2.28-1.12,39.23,39.23,0,0,1,4.2-1q2.43-.48,5.25-.87c1.89-.25,3.72-.49,5.52-.7s3.45-.38,5-.48,2.7-.18,3.56-.23l3.72-.09,3.72,0q2.43,0,5.16.09a20.41,20.41,0,0,1,5.19.84,12,12,0,0,1,4.36,2.33,8.65,8.65,0,0,1,2.66,4.56,11.71,11.71,0,0,1,.23,1.54c.06.64.11,1.32.13,2s0,1.43,0,2.12Zm-13.85,3.72v-.84a7,7,0,0,0-.07-1,4.2,4.2,0,0,0-.22-1,1.94,1.94,0,0,0-.42-.71,2.94,2.94,0,0,0-.89-.45,5.52,5.52,0,0,0-1.26-.25c-.44-.05-.89-.08-1.34-.1l-1.06,0c-.6,0-1.53,0-2.79.13s-2.67.21-4.23.38-3.2.37-4.91.61-3.29.5-4.74.8a34.77,34.77,0,0,0-3.75,1,4,4,0,0,0-2,1.09,2,2,0,0,0-.29,1c0,.43,0,.81,0,1.15,0,.86.06,1.93.19,3.21s.3,2.61.52,4,.43,2.69.67,4,.46,2.33.67,3.14q1.55.58,2.76.93a20.12,20.12,0,0,0,2.37.55c.77.13,1.57.22,2.41.29s1.8.11,2.91.16l-4-6.42c1.11-.55,2.16-1.09,3.14-1.6s2-1,3-1.41a32.54,32.54,0,0,1,3-1.15c1-.35,2.19-.67,3.43-1l4.29,8.79a39.71,39.71,0,0,0,2-7.53A49.39,49.39,0,0,0,689.2,481.21Z"/><path d="M754.22,507.24l-10.84.45-.77-6.48A11.68,11.68,0,0,1,739.7,504,16.59,16.59,0,0,1,736,505.9a19.71,19.71,0,0,1-4,1,30.1,30.1,0,0,1-4.07.29,35.53,35.53,0,0,1-3.82-.26c-1.51-.17-3.05-.42-4.61-.74a26.2,26.2,0,0,1-4.33-1.25,7.28,7.28,0,0,1-2.89-1.79,5.32,5.32,0,0,1-1.06-2.47,28.05,28.05,0,0,1-.48-3.62c-.08-1.29-.12-2.52-.12-3.72v-2.89c0-3.2.12-6.37.38-9.49s.62-6.22,1.09-9.3c1.2-.12,2.48-.19,3.85-.19a24.85,24.85,0,0,1,3.33.23c1.11.15,2.23.33,3.34.54,0,.22,0,.83.06,1.86s.1,2.24.16,3.65.14,2.92.23,4.53.18,3.09.28,4.45.24,2.54.39,3.5.31,1.48.48,1.57a4.57,4.57,0,0,0,2.12.64c.77,0,1.51.06,2.24.06.51,0,1.31,0,2.41-.09s2.21-.17,3.36-.32a29.84,29.84,0,0,0,3.21-.58,4.27,4.27,0,0,0,2-.87,2.54,2.54,0,0,0,.28-1.21c.07-.69.11-1.44.13-2.25s0-1.57.07-2.28,0-1.12,0-1.25c0-1.92,0-3.82-.13-5.7s-.17-3.79-.26-5.71l12.44-.58c.26,3,.49,6,.71,9s.49,5.95.83,8.94a27.15,27.15,0,0,1,.23,3c0,1,0,2.05.09,3.08.09,1.92.14,3.84.16,5.77S754.18,505.28,754.22,507.24Z"/><path d="M806.29,481.59q0,5.39-.38,10.71T805.14,503q-7.18.63-14.3,1.09t-14.3.44l-2.38,0c-1.15,0-2.37-.06-3.65-.13s-2.5-.14-3.66-.25a6.87,6.87,0,0,1-2.3-.48,6.58,6.58,0,0,1-3-2.92,9.36,9.36,0,0,1-.83-4c0-.51,0-1.2.07-2.05s.12-1.75.25-2.69a23.16,23.16,0,0,1,.51-2.63,5.51,5.51,0,0,1,.77-1.8,5,5,0,0,1,2.63-1.31,34.36,34.36,0,0,1,4.91-.87q2.85-.31,6.16-.51t6.31-.29c2-.06,3.81-.1,5.39-.1h3.4a20.08,20.08,0,0,0,.19-2.75V481a2.17,2.17,0,0,0-.06-.67c-.13-.26-.54-.47-1.22-.64a17.13,17.13,0,0,0-2.54-.39c-1-.08-2.09-.16-3.27-.22s-2.32-.1-3.43-.1H776c-2.69,0-5.38.06-8.08.16s-5.38.21-8.08.29c.17-1.62.31-3.27.42-4.94a40.6,40.6,0,0,0,0-4.93,93.22,93.22,0,0,1,9.4-1.19q4.71-.35,9.52-.35l3.78,0c1.37,0,2.74.06,4.11.13s2.72.16,4.07.29,2.6.3,3.75.51a14.21,14.21,0,0,1,3.56,1.15,16.87,16.87,0,0,1,3.3,2.06,14.45,14.45,0,0,1,2.69,2.78,10.62,10.62,0,0,1,1.67,3.37,2.94,2.94,0,0,1,.1.64c0,.3,0,.63,0,1v1.63ZM792,496.66v-8.21l-3.72-.09q-1.86,0-3.72,0l-2.15,0c-1.17,0-2.43.07-3.78.16s-2.58.19-3.69.32-1.75.32-1.92.58a3.13,3.13,0,0,0-.42,1.05,7,7,0,0,0-.09,1.13c0,.3,0,.7.06,1.21a13.86,13.86,0,0,0,.23,1.61c.1.55.22,1.07.35,1.54a2.31,2.31,0,0,0,.51,1,1.51,1.51,0,0,0,.87.48,9.49,9.49,0,0,0,1.31.26c.47.06.94.11,1.41.13l1.09,0c1,0,2.13,0,3.3-.13s2.38-.18,3.59-.29,2.41-.23,3.56-.38Z"/><path d="M854.51,476.72a20.87,20.87,0,0,1-.77,5.71c-.3,0-1.18.09-2.66.16l-5.26.25q-3,.17-6.54.39t-6.47.48q-3,.26-5.07.54a6.7,6.7,0,0,0-2.34.55,5.53,5.53,0,0,0-1.54,2.18,6.87,6.87,0,0,0-.51,2.56,3.37,3.37,0,0,0,.16,1.19,3.86,3.86,0,0,0,.54.93,3,3,0,0,0,1.35.32c.77.09,1.62.15,2.56.19s1.82.08,2.63.1l1.41,0q4.62,0,9.24-.19c3.08-.13,6.15-.3,9.23-.51l.51,11q-6.4.53-12.85,1t-12.92.48h-.93l-1.32,0c-.47,0-.92-.05-1.34-.1a5.6,5.6,0,0,1-.9-.13c-.9-.25-1.79-.54-2.66-.86a12.61,12.61,0,0,1-2.47-1.22,9,9,0,0,1-2-1.76,6.2,6.2,0,0,1-1.25-2.5,17.55,17.55,0,0,1-.42-2.54c-.11-1-.18-2.12-.22-3.24s-.08-2.2-.1-3.27,0-2,0-2.69q0-2.5.06-4.68a13.1,13.1,0,0,1,.71-4,8.52,8.52,0,0,1,2.08-3.27,12.39,12.39,0,0,1,4.14-2.53,14.27,14.27,0,0,1,3.65-.8q2.44-.3,5.1-.45c1.77-.11,3.47-.18,5.1-.23s2.88-.06,3.78-.06c3,0,6,.06,9,.19s6,.3,8.94.52c.13,1.06.24,2.12.32,3.17S854.51,475.69,854.51,476.72Z"/><path d="M902.73,475.18l-16.48,11.93c.13.51.39,1.33.77,2.47s.81,2.3,1.28,3.52,1,2.35,1.51,3.4a5.28,5.28,0,0,0,1.51,2,3.5,3.5,0,0,0,1.15.52c.47.12.95.23,1.45.32a14.67,14.67,0,0,0,1.47.16l1.25,0c.6,0,1.22,0,1.86-.07s1.26-.1,1.86-.19c-.09.56-.15,1.12-.19,1.7s-.07,1.17-.07,1.76c0,1,0,2.06.07,3.08s.06,2,.06,3l-1.57.16-2.56.19-3.05.22-3,.23q-1.38.09-2.37.09a3.8,3.8,0,0,1-1.25-.12c-.73-.35-1.44-.71-2.12-1.09a5.11,5.11,0,0,1-1.73-1.61,13.25,13.25,0,0,1-1.06-2.44c-.49-1.32-1-2.77-1.54-4.36s-1-3.05-1.47-4.42-.74-2.25-.87-2.63l-6.15,4V508.2l-12.7,1.09q.38-9,.83-17.85t.45-17.93c0-1.83,0-3.65,0-5.45s-.06-3.63-.1-5.51a37.71,37.71,0,0,0,5.23.64c1.73.09,3.47.21,5.22.38v24q5-3.09,9.78-6.29a99.37,99.37,0,0,0,9.27-7c2.26.25,4.48.45,6.64.57Z"/><path d="M919.28,461.2c0,1.11-.1,2.33-.16,3.66s-.14,2.67-.23,4-.2,2.7-.35,4-.33,2.52-.55,3.63c-.64,3.2-1.29,6.37-2,9.49s-1.32,6.28-2,9.49l-7.05.64L905.43,480q-.45-4.37-.65-8.75t-.44-8.82Zm-1.16,44.18a3.93,3.93,0,0,1-.67,2.15,7.8,7.8,0,0,1-1.7,1.89,8.31,8.31,0,0,1-2.24,1.32,6.24,6.24,0,0,1-2.25.48,6.56,6.56,0,0,1-2-.35,7.37,7.37,0,0,1-1.92-1,4.81,4.81,0,0,1-1.41-1.5,3.85,3.85,0,0,1-.55-2.06,3.63,3.63,0,0,1,.74-2.21,6.79,6.79,0,0,1,1.79-1.67,8.88,8.88,0,0,1,2.31-1,8.52,8.52,0,0,1,2.34-.35,6.4,6.4,0,0,1,3.24.83,5.1,5.1,0,0,1,2.15,2.5,1.69,1.69,0,0,1,.16.48A3.64,3.64,0,0,1,918.12,505.38Z"/><path d="M717.05,150.49q0,1.09,0,3.27c0,1.45-.08,3.09-.16,4.9s-.21,3.7-.36,5.65-.35,3.77-.61,5.48a34.13,34.13,0,0,1-.93,4.49,5.18,5.18,0,0,1-1.31,2.56,7.74,7.74,0,0,1-1.51,1q-.93.51-1.92,1c-.66.3-1.31.57-2,.8a16,16,0,0,1-1.73.55c.81,1.92,1.61,3.81,2.38,5.67s1.53,3.75,2.3,5.68l-9.49,2.24c-1.24-1.79-2.4-3.59-3.49-5.38s-2.26-3.57-3.5-5.33a7,7,0,0,1-1,.07h-1c-.73,0-1.8,0-3.24-.13s-3-.21-4.81-.38-3.62-.39-5.54-.65-3.71-.53-5.36-.83a33.42,33.42,0,0,1-4.26-1,5.07,5.07,0,0,1-2.31-1.21,9.35,9.35,0,0,1-1.51-3.63c-.4-1.69-.73-3.5-1-5.45s-.45-3.82-.58-5.64-.19-3.2-.19-4.14-.06-2.12-.06-3.17v-3.24c0-.81,0-1.86,0-3.14s.09-2.61.22-4a25.62,25.62,0,0,1,.64-3.84,6.15,6.15,0,0,1,1.35-2.76,5.24,5.24,0,0,1,2.28-1.12,39.23,39.23,0,0,1,4.2-1q2.43-.48,5.25-.87c1.89-.25,3.72-.49,5.52-.7s3.45-.38,5-.48,2.7-.18,3.56-.23l3.72-.09,3.72,0q2.43,0,5.16.09a20.41,20.41,0,0,1,5.19.84,12,12,0,0,1,4.36,2.33,8.65,8.65,0,0,1,2.66,4.56,11.71,11.71,0,0,1,.23,1.54c.06.64.11,1.32.13,2.05s0,1.43,0,2.12Zm-13.85,3.72v-.84a7,7,0,0,0-.07-1,4.2,4.2,0,0,0-.22-1,1.94,1.94,0,0,0-.42-.71,2.94,2.94,0,0,0-.89-.45,5.52,5.52,0,0,0-1.26-.25c-.44,0-.89-.08-1.34-.1l-1.06,0c-.6,0-1.53,0-2.79.13s-2.67.21-4.23.38-3.2.37-4.91.61-3.29.5-4.74.8a34.77,34.77,0,0,0-3.75,1,4,4,0,0,0-2,1.09,2,2,0,0,0-.29,1c0,.43,0,.81,0,1.15,0,.86.06,1.93.19,3.21s.3,2.61.52,4,.43,2.69.67,4,.46,2.33.67,3.14q1.55.58,2.76.93a20.12,20.12,0,0,0,2.37.55c.77.13,1.57.22,2.41.29s1.8.11,2.91.16l-4-6.42c1.11-.55,2.16-1.09,3.14-1.6s2-1,3-1.41a32.54,32.54,0,0,1,3-1.15c1-.35,2.19-.67,3.43-1l4.29,8.79a39.71,39.71,0,0,0,2-7.53A49.39,49.39,0,0,0,703.2,154.21Z"/><path d="M768.22,180.24l-10.84.45-.77-6.48A11.68,11.68,0,0,1,753.7,177,16.59,16.59,0,0,1,750,178.9a19.71,19.71,0,0,1-4,1,30.1,30.1,0,0,1-4.07.29,35.53,35.53,0,0,1-3.82-.26c-1.51-.17-3.05-.42-4.61-.74a26.2,26.2,0,0,1-4.33-1.25,7.28,7.28,0,0,1-2.89-1.79,5.32,5.32,0,0,1-1.06-2.47,28.05,28.05,0,0,1-.48-3.62c-.08-1.29-.12-2.52-.12-3.72v-2.89c0-3.2.12-6.37.38-9.49s.62-6.22,1.09-9.3c1.2-.12,2.48-.19,3.85-.19a24.85,24.85,0,0,1,3.33.23c1.11.15,2.23.33,3.34.54,0,.22,0,.83.06,1.86s.1,2.24.16,3.65.14,2.92.23,4.53.18,3.09.28,4.45.24,2.54.39,3.5.31,1.48.48,1.57a4.57,4.57,0,0,0,2.12.64c.77,0,1.51.06,2.24.06.51,0,1.31,0,2.41-.09s2.21-.17,3.36-.32a29.84,29.84,0,0,0,3.21-.58,4.27,4.27,0,0,0,2-.87,2.54,2.54,0,0,0,.28-1.21c.07-.69.11-1.44.13-2.25s0-1.57.07-2.28,0-1.12,0-1.25c0-1.92,0-3.82-.13-5.7s-.17-3.79-.26-5.71l12.44-.58c.26,3,.49,6,.71,8.95s.49,6,.83,8.94a27.15,27.15,0,0,1,.23,3c0,1,0,2.05.09,3.08.09,1.92.14,3.84.16,5.77S768.18,178.28,768.22,180.24Z"/><path d="M820.29,154.59q0,5.39-.38,10.71T819.14,176q-7.18.63-14.3,1.09t-14.3.44l-2.38,0c-1.15,0-2.37-.06-3.65-.13s-2.5-.14-3.66-.25a6.87,6.87,0,0,1-2.3-.48,6.58,6.58,0,0,1-3-2.92,9.36,9.36,0,0,1-.83-4c0-.51,0-1.2.07-2s.12-1.75.25-2.69a23.16,23.16,0,0,1,.51-2.63,5.51,5.51,0,0,1,.77-1.8,5,5,0,0,1,2.63-1.31,34.36,34.36,0,0,1,4.91-.87q2.85-.31,6.16-.51t6.31-.29c2-.06,3.81-.1,5.39-.1h3.4a20.08,20.08,0,0,0,.19-2.75V154a2.17,2.17,0,0,0-.06-.67c-.13-.26-.54-.47-1.22-.64a17.13,17.13,0,0,0-2.54-.39c-1-.08-2.09-.16-3.27-.22s-2.32-.1-3.43-.1H790c-2.69,0-5.38.06-8.08.16s-5.38.21-8.08.29c.17-1.62.31-3.27.42-4.94a40.6,40.6,0,0,0,0-4.93,93.22,93.22,0,0,1,9.4-1.19q4.71-.34,9.52-.35l3.78,0c1.37,0,2.74.06,4.11.13s2.72.16,4.07.29,2.6.3,3.75.51a14.21,14.21,0,0,1,3.56,1.15,16.87,16.87,0,0,1,3.3,2.06,14.45,14.45,0,0,1,2.69,2.78,10.62,10.62,0,0,1,1.67,3.37,2.94,2.94,0,0,1,.1.64c0,.3,0,.63,0,1v1.63ZM806,169.66v-8.21q-1.86-.06-3.72-.09t-3.72,0l-2.15,0c-1.17,0-2.43.07-3.78.16s-2.58.19-3.69.32-1.75.32-1.92.58a3.13,3.13,0,0,0-.42,1.05,7,7,0,0,0-.09,1.13c0,.3,0,.7.06,1.21a13.86,13.86,0,0,0,.23,1.61c.1.55.22,1.07.35,1.54a2.31,2.31,0,0,0,.51,1,1.51,1.51,0,0,0,.87.48,9.49,9.49,0,0,0,1.31.26c.47.06.94.11,1.41.13l1.09,0c1,0,2.13,0,3.3-.13s2.38-.18,3.59-.29,2.41-.23,3.56-.38Z"/><path d="M868.51,149.72a20.87,20.87,0,0,1-.77,5.71c-.3,0-1.18.09-2.66.16l-5.26.25q-3,.16-6.54.39t-6.47.48q-3,.25-5.07.54a6.7,6.7,0,0,0-2.34.55,5.53,5.53,0,0,0-1.54,2.18,6.87,6.87,0,0,0-.51,2.56,3.37,3.37,0,0,0,.16,1.19,3.86,3.86,0,0,0,.54.93,3,3,0,0,0,1.35.32c.77.09,1.62.15,2.56.19s1.82.08,2.63.1l1.41,0q4.62,0,9.24-.19c3.08-.13,6.15-.3,9.23-.51l.51,11q-6.4.52-12.85,1t-12.92.48h-.93l-1.32,0c-.47,0-.92,0-1.34-.1a5.6,5.6,0,0,1-.9-.13c-.9-.25-1.79-.54-2.66-.86a12.61,12.61,0,0,1-2.47-1.22,9,9,0,0,1-2-1.76,6.2,6.2,0,0,1-1.25-2.5,17.55,17.55,0,0,1-.42-2.54c-.11-1-.18-2.12-.22-3.24s-.08-2.2-.1-3.27,0-2,0-2.69q0-2.5.06-4.68a13.1,13.1,0,0,1,.71-4,8.52,8.52,0,0,1,2.08-3.27,12.39,12.39,0,0,1,4.14-2.53,14.27,14.27,0,0,1,3.65-.8q2.44-.3,5.1-.45c1.77-.11,3.47-.18,5.1-.23s2.88-.06,3.78-.06c3,0,6,.06,9,.19s6,.3,8.94.52c.13,1.06.24,2.12.32,3.17S868.51,148.69,868.51,149.72Z"/><path d="M916.73,148.18l-16.48,11.93c.13.51.39,1.33.77,2.47s.81,2.3,1.28,3.52,1,2.35,1.51,3.4a5.28,5.28,0,0,0,1.51,2,3.5,3.5,0,0,0,1.15.52c.47.12.95.23,1.45.32a14.67,14.67,0,0,0,1.47.16l1.25,0c.6,0,1.22,0,1.86-.07s1.26-.1,1.86-.19c-.09.56-.15,1.12-.19,1.7s-.07,1.17-.07,1.76c0,1,0,2.06.07,3.08s.06,2,.06,3l-1.57.16-2.56.19-3.05.22-3,.23q-1.38.09-2.37.09a3.8,3.8,0,0,1-1.25-.12c-.73-.35-1.44-.71-2.12-1.09a5.11,5.11,0,0,1-1.73-1.61,13.25,13.25,0,0,1-1.06-2.44c-.49-1.32-1-2.77-1.54-4.36s-1-3.05-1.47-4.42-.74-2.25-.87-2.63l-6.15,4V181.2l-12.7,1.09q.38-9,.83-17.85t.45-17.93c0-1.83,0-3.65,0-5.45s-.06-3.63-.1-5.51a37.71,37.71,0,0,0,5.23.64c1.73.09,3.47.21,5.22.38v24q5-3.09,9.78-6.29a99.37,99.37,0,0,0,9.27-7.05c2.26.25,4.48.45,6.64.57Z"/><path d="M933.28,134.2c0,1.11-.1,2.33-.16,3.66s-.14,2.67-.23,4-.2,2.7-.35,4-.33,2.52-.55,3.63c-.64,3.2-1.29,6.37-2,9.49s-1.32,6.28-2,9.49l-7.05.64L919.43,153q-.45-4.37-.65-8.75t-.44-8.82Zm-1.16,44.18a3.93,3.93,0,0,1-.67,2.15,7.8,7.8,0,0,1-1.7,1.89,8.31,8.31,0,0,1-2.24,1.32,6.24,6.24,0,0,1-2.25.48,6.56,6.56,0,0,1-2-.35,7.37,7.37,0,0,1-1.92-1,4.81,4.81,0,0,1-1.41-1.5,3.85,3.85,0,0,1-.55-2.06,3.63,3.63,0,0,1,.74-2.21,6.79,6.79,0,0,1,1.79-1.67,8.88,8.88,0,0,1,2.31-1,8.52,8.52,0,0,1,2.34-.35,6.4,6.4,0,0,1,3.24.83,5.1,5.1,0,0,1,2.15,2.5,1.69,1.69,0,0,1,.16.48A3.64,3.64,0,0,1,932.12,178.38Z"/><path d="M1052.84,489.2q0,20.79-10.52,31.56t-31.18,10.77H987.59V447.12h23.55q20.66,0,31.18,10.64T1052.84,489.2Zm-9.52,0A48.27,48.27,0,0,0,1041.2,474a25.84,25.84,0,0,0-6.2-10.33,24.58,24.58,0,0,0-10.09-5.89,46.23,46.23,0,0,0-13.77-1.88h-14v66.88h14a46.23,46.23,0,0,0,13.77-1.88,24.15,24.15,0,0,0,10.09-6,26.4,26.4,0,0,0,6.2-10.45A48.84,48.84,0,0,0,1043.32,489.2Z"/><path d="M1066.87,452.25a6.64,6.64,0,0,1,1.63-4.51,7,7,0,0,1,9.58,0,6.83,6.83,0,0,1,1.56,4.51,6.6,6.6,0,0,1-1.56,4.45,7.24,7.24,0,0,1-9.58,0A6.42,6.42,0,0,1,1066.87,452.25Zm11,79.28h-9.27V471h9.27Z"/><path d="M1106.69,531.53h-9.26V471h7.51l1.75,9.77a34.35,34.35,0,0,1,3.45-3.7,25.56,25.56,0,0,1,4.82-3.51A32.49,32.49,0,0,1,1121,471a23.84,23.84,0,0,1,7.21-1.06q9.63,0,15.09,6.26t5.45,17.41v37.95h-9.15V493.58q0-7.14-3.44-11.27a11.64,11.64,0,0,0-9.46-4.13,21.64,21.64,0,0,0-11.58,3.19,28.19,28.19,0,0,0-8.46,7.83Z"/><path d="M1208.64,520a22.14,22.14,0,0,1-7.7,8.32,21.13,21.13,0,0,1-12,3.45,25.39,25.39,0,0,1-10.15-2,21.64,21.64,0,0,1-7.95-5.89,28.17,28.17,0,0,1-5.2-9.71,43.5,43.5,0,0,1-1.88-13.34,40.58,40.58,0,0,1,1.76-12.14,29.54,29.54,0,0,1,5.13-9.84,23.76,23.76,0,0,1,19-8.95,19.58,19.58,0,0,1,6.51,1.06,23.35,23.35,0,0,1,5.32,2.63,24.44,24.44,0,0,1,4.14,3.51,26.61,26.61,0,0,1,2.94,3.7l1.63-9.77h7.64v56a39.8,39.8,0,0,1-2,13.46,23.75,23.75,0,0,1-5.63,9.14,22.15,22.15,0,0,1-8.71,5.27,35.43,35.43,0,0,1-11.2,1.69,44.91,44.91,0,0,1-12.4-1.69,39.75,39.75,0,0,1-9.4-3.82l2.26-7.52a34.88,34.88,0,0,0,8.39,3.45,38.17,38.17,0,0,0,10.14,1.31,30.56,30.56,0,0,0,7.83-.94,13.51,13.51,0,0,0,6.08-3.38,16.76,16.76,0,0,0,3.94-6.58,32.43,32.43,0,0,0,1.44-10.52Zm0-30.56a25.57,25.57,0,0,0-7.58-8,17.63,17.63,0,0,0-23,2.38q-5.25,5.58-5.26,17a33.27,33.27,0,0,0,1.44,10.46,19.63,19.63,0,0,0,3.88,7,15,15,0,0,0,5.58,3.94,17.25,17.25,0,0,0,6.51,1.25,16.87,16.87,0,0,0,13.34-6.2,21.2,21.2,0,0,0,3.76-6.88,27.21,27.21,0,0,0,1.31-8.58Z"/><path d="M1423.08,774.63l88.58-53.75c21-12.73,45.19-27.56,53.55-52.09,2.63-7.73,3-15.81,2.86-23.9-.12-8.91-.56-18,2.32-26.54l-2.51.66a50.45,50.45,0,0,1,12.61,47.28,1.51,1.51,0,0,0,2.51,1.46,245.77,245.77,0,0,0,35.3-42.45l-2.74-.36a49,49,0,0,1-7.3,41.25,46.35,46.35,0,0,1-8.38,9,1.51,1.51,0,0,0,.66,2.5c7.06,1.78,14.34,1.15,21.53,1.41,6.51.23,13.41,1.44,18,6.46a19.78,19.78,0,0,1,4.82,15.64,17,17,0,0,1-9.8,13.22,19,19,0,0,1-18.27-.89l.54,2c2.49-4.75,1.2-10.24-2-14.31-3.8-4.84-9.84-6.69-15.81-6.74a48.73,48.73,0,0,0-9.85,1.1c-2.83.56-5.78,1.23-8,3.14-4,3.42-3.37,9.52-.49,13.45,4.22,5.77,12,6.25,18.6,6.34l-1.3-2.26c-5.72,10-19.92,12.69-29.81,7.61a18.71,18.71,0,0,1-7.1-6.23,1.52,1.52,0,0,0-2.59,0,803.13,803.13,0,0,0-76.53,144.56q-8.67,21.36-16.1,43.19c-.62,1.83,2.27,2.62,2.89.8a801.52,801.52,0,0,1,68-148.21q11.61-19.75,24.36-38.82H1559c7.35,11,23.62,13.08,34.55,6.35a21.65,21.65,0,0,0,7.54-7.73,1.51,1.51,0,0,0-1.29-2.26c-4.85-.07-10.64-.12-14.59-3.39-2.78-2.3-4.82-7.23-2.27-10.41,1.52-1.9,4.13-2.5,6.39-3a52.5,52.5,0,0,1,8-1.18c4.94-.28,10.44.41,14.22,3.92,3.33,3.11,5.51,8.22,3.24,12.56a1.53,1.53,0,0,0,.54,2.05c11,7,27.29,1.94,31.61-10.51a22.65,22.65,0,0,0-2-18.4c-3.61-6.25-10-9.59-17-10.6-8.83-1.28-17.93.38-26.65-1.81l.66,2.51c11.8-9.72,18.52-25,18.34-40.22a49.18,49.18,0,0,0-1.89-12.93,1.52,1.52,0,0,0-2.74-.36,242,242,0,0,1-34.83,41.85l2.5,1.46a53.52,53.52,0,0,0-13.38-50.2,1.51,1.51,0,0,0-2.51.66c-5,14.81-.3,30.64-3.8,45.66-2.8,12-10.16,22.12-19,30.47-9.34,8.82-20.2,15.86-31.13,22.53q-21.36,13-42.79,26L1421.57,772c-1.65,1-.15,3.6,1.51,2.59Z"/><path d="M1607.65,724.15c.43-1.35.09-2.62,0-4-.08-1.62,1.3-.81,1.9.06.87,1.26,1.1,2.86,2,4.11a6.48,6.48,0,0,0,3.94,2.44,20.07,20.07,0,0,0,4.51.26c2,0,3.89,0,5.83.14a42.48,42.48,0,0,1,11,2.25,28.69,28.69,0,0,1,15,11.61c3.2,5.23,4,11.47,4.72,17.44.72,5.72,1.4,11.65,4.16,16.83,2.92,5.48,8.06,8.92,13.9,10.7,6.11,1.87,12.55,2.16,18.81,3.19a109.38,109.38,0,0,1,22.33,6.17q2.63,1,5.19,2.22c.13.06.9.32,1,.49-.1-.22-.37.71-.37.69-.31.84-.67,1.67-1,2.48a43,43,0,0,1-5,8.14,57.4,57.4,0,0,1-14,12.67c-12.41,8.12-26.92,12-40.94,16.33-14.75,4.55-29.51,10-45,11.27-1.86.14-3.73.23-5.6.24a4,4,0,0,1-1.25,0c-.5-.23,0,.31-.21-.22a4.92,4.92,0,0,1,0-1.33c0-.59,0-1.19,0-1.78a41.57,41.57,0,0,1,1.67-11,48,48,0,0,1,4.46-10.11,35.31,35.31,0,0,0,4.19-9.54,47,47,0,0,0,.59-11.36c-.1-3.48-.3-7.08-1.61-10.36-2.55-6.42-9.16-9.43-13.57-14.37a34.65,34.65,0,0,1-5.57-37.3,35.14,35.14,0,0,1,5.33-8.24c1.26-1.45-.85-3.58-2.12-2.12a37.51,37.51,0,0,0-.92,48.42,47.25,47.25,0,0,0,7.53,7.09c2.73,2.18,5.44,4.52,6.65,7.9s1.25,7.31,1.33,11c.08,4,0,8-1.52,11.74-1.42,3.53-3.65,6.66-5.25,10.11a44.39,44.39,0,0,0-3.47,10.9,45,45,0,0,0-.67,5.67,20.07,20.07,0,0,0,.13,5.69c.41,1.63,1.87,2.16,3.39,2.2a58.72,58.72,0,0,0,6.08-.21A99.91,99.91,0,0,0,1627,851a216.3,216.3,0,0,0,23.6-6.38c7.66-2.42,15.36-4.73,23-7.17a146.17,146.17,0,0,0,22.07-8.64c12-6.09,23-15.38,28.24-28,.6-1.43,1.43-3.12.37-4.54s-3.14-1.88-4.61-2.5a108.94,108.94,0,0,0-11.25-4.14,137.29,137.29,0,0,0-22.63-4.48c-6.21-.81-13.12-1.83-18.11-5.94s-6.57-10.09-7.51-16.08c-1-6.21-1.25-12.63-3.4-18.59a29.05,29.05,0,0,0-12.53-14.91c-6.51-4-14.22-5.5-21.76-5.61-3,0-7.42,1-9-2.34-.69-1.43-1.07-3-2.29-4.13a4.52,4.52,0,0,0-4-1.27,3.37,3.37,0,0,0-2.5,2.85c-.21,1.4.46,2.87,0,4.23-.59,1.84,2.3,2.63,2.89.79Z"/><path d="M1685.14,719.32a47.59,47.59,0,0,0,36.27,42.8c6.68,1.63,13.57,2.15,20.41,2.64,1.92.14,1.92-2.86,0-3-11-.79-22.32-1.72-32-7.46a45.45,45.45,0,0,1-17.87-20,42.59,42.59,0,0,1-3.83-15c-.13-1.92-3.13-1.94-3,0Z"/><path d="M1568.32,787.93c4,6.74,4.73,14.88,3.31,22.49-1.51,8.06-5.33,15.42-9.79,22.23-2.64,4-5.51,7.88-8.38,11.73-1.16,1.55,1.44,3,2.59,1.51,10-13.48,20.94-28.74,19-46.51a31.69,31.69,0,0,0-4.18-13,1.5,1.5,0,0,0-2.59,1.52Z"/><path d="M1705.92,716.15c1.91,7.37,5.4,14.5,10.82,19.94a29.36,29.36,0,0,0,20.33,8.85,23.68,23.68,0,0,0,12.11-3.12,1.5,1.5,0,0,0-1.52-2.59c-6,3.47-13.32,3.39-19.66.89s-11.5-7.82-14.86-13.8a45.64,45.64,0,0,1-4.32-11,1.51,1.51,0,0,0-2.9.8Z"/><path d="M1546,797.82a51.6,51.6,0,0,1-17.8,34c-1.47,1.25.67,3.37,2.13,2.12A54.68,54.68,0,0,0,1549,797.82c.19-1.92-2.81-1.91-3,0Z"/><path d="M870.79,688.93a143.13,143.13,0,0,1-62.15-66.09l-2,2.06,33.59,23.89,16.63,11.84c4.84,3.44,9.87,7.88,15.83,9.16,5.76,1.23,11.23-1.19,16-4.18a100.29,100.29,0,0,0,13.92-10.72c8.8-7.89,16.83-16.75,26.67-23.4,9.37-6.32,21.42-11.48,32.91-8.67,9.31,2.27,18.31,10.25,19.54,20.12,1.43,11.46-9,18.77-16.57,25.44a172.89,172.89,0,0,0-52,84.42c-3.13,11.83-5.27,24.49-2.49,36.61A46.29,46.29,0,0,0,924.76,813c14,12.76,33.08,18.5,50.85,23.61,22.24,6.39,44.11,13.61,65.38,22.78a487.82,487.82,0,0,1,62.89,32.74,481,481,0,0,1,57.67,41.73q6.59,5.55,13,11.35l1.06-2.56-128.89-8.28q-32.12-2.05-64.23-4.12c-20.71-1.34-41.42-2.77-62-5.23-20.36-2.43-40.68-5.86-60.48-11.28-16.71-4.57-34-11.4-44.71-25.69-18.3-24.3-14-60.08,1.72-84.49,8.58-13.31,20-24.51,30.06-36.67,9.21-11.16,18-23.64,20.56-38.21a51,51,0,0,0,.73-10.69,1.55,1.55,0,0,0-1.11-1.45L779,690.91l-.4,2.94A325,325,0,0,1,863,697.36c1.89.33,2.7-2.56.8-2.89a327.65,327.65,0,0,0-85.18-3.62,1.51,1.51,0,0,0-.4,2.95l88.23,25.68-1.1-1.45c.56,15.55-6.84,29.26-16,41.28-9.6,12.56-20.94,23.67-30.4,36.34-17.77,23.79-25.31,57.82-11.54,85.35,7.53,15.08,21.23,24.78,36.64,30.77a198.52,198.52,0,0,0,27.25,7.94c10.27,2.38,20.64,4.31,31,5.9,42,6.41,84.67,8,127,10.69l130.48,8.37,15.81,1a1.51,1.51,0,0,0,1.06-2.56,487.55,487.55,0,0,0-183-104.34c-19-5.86-39-9.93-56.24-20.17C929.66,814,922.61,808,918,800.08c-6.12-10.58-6.58-23-4.59-34.79,3.78-22.54,13.35-44.37,26.12-63.22A167.5,167.5,0,0,1,961.38,676c4-3.92,8.33-7.46,12.48-11.21,3.79-3.42,7.39-7.26,9.39-12,3.8-9,.13-18.84-6.71-25.31-7.66-7.25-17.88-9.55-28.11-7.62-24.19,4.58-38.27,26.86-57.06,40.38-4.77,3.43-10.64,7.56-16.82,6.87s-11.66-5.78-16.55-9.26l-33.59-23.9L808.1,622.3c-1.35-.95-2.61.85-2.05,2.06a146.89,146.89,0,0,0,45.58,55.94,143.66,143.66,0,0,0,17.64,11.22c1.7.91,3.22-1.68,1.52-2.59Z"/><path d="M934.23,935.71l-42.1,41.93-12,12a1.5,1.5,0,0,0,2.12,2.12l42.1-41.93,12-12a1.5,1.5,0,0,0-2.12-2.12Z"/><path d="M917.54,656c2.25-4.92,5.83-12.26,12.38-11.45,7.67,1,10.32,9.67,12.1,15.92a1.5,1.5,0,0,0,2.89-.79c-2.14-7.56-5.57-17-14.61-18.08-8-1-12.52,6.69-15.36,12.88-.79,1.75,1.79,3.27,2.6,1.52Z"/><path class="cls-4" d="M317.12,664.39C322,645.06,306,628.32,292,617.57c-8.26-6.36-17.21-12-27.14-15.29-10.35-3.47-21.36-4.38-32.21-4.78-16.89-.62-39.29-2.3-48.7,15.15-3.85,7.14-4.47,15.52-4.66,23.48-.21,8.54.23,17.23-1.49,25.65a61.14,61.14,0,0,1-5.25,14.27c-2.34,4.84-4.71,9.64-6.79,14.6A181.54,181.54,0,0,0,155.83,722c-2.25,10.29-3.89,21-2.55,31.55a45.62,45.62,0,0,0,11.55,25.3c13.51,14.77,34.16,19.55,53.51,17.64a109.05,109.05,0,0,0,49.37-17.91A124,124,0,0,0,303,742.85a116.36,116.36,0,0,0,17.71-46.6,110.12,110.12,0,0,0,1.06-12.3c0-1.93-3-1.93-3,0a109.81,109.81,0,0,1-12.13,46.57,121.44,121.44,0,0,1-30.15,37.84A110.74,110.74,0,0,1,234,790.66c-18.62,4.93-39.78,5.16-56.61-5.3a46,46,0,0,1-17.23-18.59c-4.41-9.06-4.89-19.44-3.87-29.31A154.5,154.5,0,0,1,163,706.91a217.59,217.59,0,0,1,12.15-29.34,65.54,65.54,0,0,0,5.32-14A69.63,69.63,0,0,0,182,651.49c.41-8.18-.08-16.41.89-24.56.89-7.56,3.51-15,9.55-19.94,6.72-5.53,15.95-6.6,24.34-6.77,4.75-.09,9.51.07,14.26.22,5.36.18,10.72.45,16,1.08a78,78,0,0,1,29.33,9.19A110.55,110.55,0,0,1,299.9,628.3c6.39,6.31,12.24,13.93,14.37,22.82a25.91,25.91,0,0,1,0,12.47c-.47,1.87,2.42,2.67,2.89.8Z"/><path class="cls-4" d="M202.46,631.61a12.47,12.47,0,0,1-.53-12.33c1.95-3.84,6.83-7.62,11.14-5,3.53,2.14,5,7.05,5,10.94,0,5.38-2,11.33-7.12,13.86A8,8,0,0,1,203,639a6.48,6.48,0,0,1-3.07-6.45c.39-1.88-2.51-2.69-2.89-.8-1.29,6.39,4.61,11.95,10.86,11.29,7-.75,11.59-7,12.71-13.57,1-5.64.06-12.34-4.34-16.44-4.76-4.43-11.61-2.45-15.36,2.3a15.63,15.63,0,0,0-1.07,17.84c1,1.61,3.65.1,2.59-1.52Z"/><path class="cls-4" d="M292.87,708.6a34.92,34.92,0,0,1-12.79-15.32c-.45-1-1.48-3.19-.25-4.07,1.07-.77,2.78-.25,3.87.16a14,14,0,0,1,6.29,5.29,44.63,44.63,0,0,1,4.7,9.27,1.56,1.56,0,0,0,1.85,1.05,1.51,1.51,0,0,0,1-1.85c-2.62-6.53-6-14-13.09-16.65a7.83,7.83,0,0,0-5.33-.27,4.43,4.43,0,0,0-2.89,4.35,14.8,14.8,0,0,0,1.94,5.82,36.42,36.42,0,0,0,3.19,5.29,38.62,38.62,0,0,0,9.94,9.52c1.62,1.07,3.12-1.52,1.52-2.59Z"/><path class="cls-4" d="M294.06,669.85a44.51,44.51,0,0,1-5.84-8.92c-1.28-2.59-3-5.86-.71-8.38a6.67,6.67,0,0,1,7.06-1.78c2.81.91,5,3.28,6.45,5.76,2.08,3.52,3.05,7.56,4.48,11.36.67,1.79,3.57,1,2.89-.8-2.69-7.13-4.62-16.21-12.72-19.11a9.73,9.73,0,0,0-9.68,1.86,7.64,7.64,0,0,0-2.47,4,9.56,9.56,0,0,0,.83,5.74A47.17,47.17,0,0,0,291.94,672c1.25,1.48,3.36-.65,2.12-2.12Z"/><path class="cls-4" d="M338,670.64a114,114,0,0,0,41.83,42.63c19.1,11.15,41.11,15.94,63,17a251.91,251.91,0,0,0,34-.85c5.81-.5,11.67-1.21,17.5-.65a30.56,30.56,0,0,1,15.29,6.1,83.73,83.73,0,0,1,11.62,10.81,129.61,129.61,0,0,1,9.58,11.6,138.33,138.33,0,0,1,15,26.17,136.42,136.42,0,0,1,11.38,59c-.35,10.36-1.36,21.73-6.72,30.85-4.89,8.31-13.36,13.5-22.3,16.57-10,3.42-20.64,4.67-31.11,5.22a195.38,195.38,0,0,1-34.95-1.41c-23.64-3-46.7-9.77-69-18.07-10.6-3.94-21.16-8.14-31.4-13-9.83-4.62-19.45-9.94-28-16.72s-15.28-14.83-21.44-23.59c-6.05-8.61-11.53-17.61-17.88-26a116.43,116.43,0,0,0-10-11.7,1.5,1.5,0,0,0-2.12,2.12c15.18,15.32,24.15,35.46,38.66,51.34,15,16.38,35.38,26,55.59,34.23,22.34,9.13,45.33,17,69,21.68,23,4.51,46.92,6,70.1,2,9.41-1.62,19-4.46,26.87-10a37.11,37.11,0,0,0,9.75-10,44.89,44.89,0,0,0,5.91-15.46A119.57,119.57,0,0,0,560,829.37a140.53,140.53,0,0,0-34.31-83.23c-6.81-7.74-14.83-16.24-25-19.21-5.76-1.67-11.85-1.51-17.77-1-5.76.46-11.5,1-17.27,1.31-22.81,1.13-46.15-.52-67.68-8.63a110,110,0,0,1-57.36-49.44c-.94-1.69-3.53-.18-2.59,1.51Z"/><path class="cls-4" d="M385.58,786.12c6.83,2.09,14,4.38,19.69,8.93a21.49,21.49,0,0,1,6.37,8.14c1.53,3.57,2.09,7.48,2.91,11.24.91,4.16,2.21,8.19,5,11.5,1.24,1.48,3.35-.65,2.12-2.13-2.5-3-3.49-6.82-4.29-10.54s-1.47-7.76-3.05-11.4c-3-6.88-9.27-11.35-15.92-14.32a102.88,102.88,0,0,0-12-4.31c-1.85-.57-2.64,2.32-.8,2.89Z"/><path class="cls-4" d="M388.67,766a52.28,52.28,0,0,0,35.74-16.18c1.33-1.4-.79-3.52-2.12-2.12A49.18,49.18,0,0,1,388.67,763c-1.93.07-1.94,3.07,0,3Z"/><path class="cls-4" d="M454.11,730.91A70,70,0,0,1,460,701a71.52,71.52,0,0,1,3.52-6.93c.58-1,1.18-2,1.81-2.94s1.23-2,2.5-1.16c3.41,2.29,4.66,7.26,4.87,11.09.26,5-.78,9.88-2.05,14.65a1.51,1.51,0,0,0,2.9.8c2.36-8.89,4.47-20.72-2.82-28-1.91-1.9-4.76-2.79-6.79-.54a35.11,35.11,0,0,0-4.47,7.24,72.78,72.78,0,0,0-8.32,35.73c.05,1.92,3.05,1.93,3,0Z"/><path class="cls-4" d="M425.86,897.12q-10.19,8.52-20,17.53c-1.57,1.44-3.23,2.84-4.68,4.4a5.6,5.6,0,0,0-1.8,4.5,8.48,8.48,0,0,0,2.51,4.5A35.82,35.82,0,0,0,406,932a39.09,39.09,0,0,0,19.77,8.75c6,.75,13.43-.76,16-7,1.69-4,.79-8.61-.13-12.73A81,81,0,0,0,437.1,907a1.51,1.51,0,0,0-2.05-.54,1.54,1.54,0,0,0-.54,2.05,77.77,77.77,0,0,1,3.77,11.28c.84,3.34,1.8,7,1.38,10.44-.76,6.25-7.09,8-12.51,7.65-6.21-.42-12.4-3.15-17.41-6.76A36.91,36.91,0,0,1,406,928a17.45,17.45,0,0,1-3.17-3.59c-.9-1.57-.13-2.6,1-3.73,1.36-1.32,2.77-2.59,4.16-3.87q9.76-9,20-17.53c1.49-1.24-.65-3.36-2.12-2.12Z"/><path d="M187.62,576.63A211.62,211.62,0,0,0,174.17,530c-2.87-6.87-5.86-14-10-20.18-3.62-5.42-8.62-10.18-15.33-11.1-7.62-1-15.05,2.81-21.26,6.8-2.81,1.8-5.57,4-6.91,7.13a8.46,8.46,0,0,0,.77,8,6.2,6.2,0,0,0,8.06,1.94,15.79,15.79,0,0,0,6.81-7c3.29-6.26,3.11-13.59,1.17-20.23-2.3-7.86-6.49-15.2-10.06-22.53L115.9,449.18l-2.83-5.79c-.85-1.73-3.44-.21-2.59,1.52,6.9,14.13,14,28.17,20.68,42.43,2.88,6.19,5.42,13,4.59,19.92a19.21,19.21,0,0,1-2.85,8.18c-1.37,2.09-4.29,5.42-7.12,4.81-2.25-.48-3.07-3.47-2.69-5.43.57-2.93,3.34-5,5.68-6.54,5.56-3.65,12.35-7.42,19.25-6.7,6,.64,10.48,5.07,13.66,9.87,3.73,5.63,6.48,12,9.12,18.17a210.86,210.86,0,0,1,13.93,47.81c.32,1.9,3.21,1.1,2.89-.8Z"/><path d="M787,629.26q-19.71-20.19-37.68-42-5.13-6.22-10.11-12.57a1.51,1.51,0,0,0-2.56,1.06,183.84,183.84,0,0,0,7.75,34l1.85-1.85a151.24,151.24,0,0,1-20.05-4.5c-1.2-.36-2,.78-1.84,1.85a27,27,0,0,0,10.6,17.48l.75-2.79q-18.27,1.54-36.54,3a1.51,1.51,0,0,0-.4,3l13.36,5.57a44.49,44.49,0,0,1,6.26,2.68c1.68,1-.54,2.23-1.56,2.7-1.83.84-3.8,1.42-5.66,2.19s-3.84,1.65-5.72,2.56a104,104,0,0,0-11,6.18,107.42,107.42,0,0,0-11.48,8.54c-1.07.91-.12,2.48,1.06,2.56l62.56,4.39c1.93.13,1.92-2.87,0-3L684,655.93l1.06,2.56a103.62,103.62,0,0,1,23.64-15.08c2.13-1,4.28-1.88,6.47-2.71,1.88-.71,3.83-1.28,5.36-2.66a3.89,3.89,0,0,0,1.08-4.76c-1-1.85-3.44-2.45-5.25-3.21l-16.82-7-.4,2.94q18.27-1.46,36.54-3a1.52,1.52,0,0,0,.76-2.8,24,24,0,0,1-9.22-15.69l-1.84,1.84a150.78,150.78,0,0,0,20,4.51c1,.16,2.24-.65,1.84-1.85a179.41,179.41,0,0,1-7.64-33.24l-2.56,1.07q17.43,22.18,36.66,42.88,5.5,5.89,11.13,11.67c1.35,1.38,3.47-.74,2.12-2.13Z"/><path d="M1497.44,197.88c-.82-4.58-6.22-6.69-10.31-5.25-4.67,1.63-7.85,6.49-8.77,11.18s.19,9.95,4.2,12.93c3.28,2.42,8.18,3.09,11.68.75,4.26-2.85,4.63-8.35,4.82-13l.78-19.34c.5-12.42,1.42-25-.16-37.36-.22-1.71-.48-3.42-.79-5.12-.18-.93-1.12-3.12-.15-3.74a7.26,7.26,0,0,1,2.27-.49l2.43-.43,5.34-.94,21.36-3.76c1.89-.34,1.09-3.23-.8-2.9l-17.24,3-8.49,1.5-4.13.72a5.93,5.93,0,0,0-3,1.22c-1.89,1.72-.83,4.45-.44,6.58a80.68,80.68,0,0,1,1.11,8.36,153.66,153.66,0,0,1,.36,16.76c-.29,11.64-.89,23.28-1.36,34.91-.16,3.9.05,9.68-4,11.78-3.2,1.65-7.64.1-9.53-2.84-2.76-4.28-1.53-10.29,1.59-14,1.49-1.79,3.67-3.42,6.12-3.25a4.51,4.51,0,0,1,4.3,3.53c.34,1.89,3.23,1.09,2.89-.8Z"/><path d="M1275.44,640.88c-.82-4.58-6.22-6.69-10.31-5.25-4.67,1.63-7.85,6.49-8.77,11.18s.19,10,4.2,12.93c3.28,2.42,8.18,3.09,11.68.75,4.26-2.85,4.63-8.35,4.82-13l.78-19.34c.5-12.42,1.42-25-.16-37.36-.22-1.71-.48-3.42-.79-5.12-.18-.93-1.12-3.12-.15-3.74a7.26,7.26,0,0,1,2.27-.49l2.43-.43,5.34-.94,21.36-3.76c1.89-.34,1.09-3.23-.8-2.9l-17.24,3-8.49,1.5-4.13.72a5.93,5.93,0,0,0-3,1.22c-1.89,1.72-.83,4.45-.44,6.58a80.68,80.68,0,0,1,1.11,8.36,153.66,153.66,0,0,1,.36,16.76c-.29,11.64-.89,23.28-1.36,34.91-.16,3.9.05,9.68-4,11.78-3.2,1.65-7.64.1-9.53-2.84-2.76-4.28-1.53-10.29,1.59-14.05,1.49-1.79,3.67-3.42,6.12-3.25a4.51,4.51,0,0,1,4.3,3.53c.34,1.89,3.23,1.09,2.89-.8Z"/><path d="M129.44,165.88c-.82-4.58-6.22-6.69-10.31-5.25-4.67,1.63-7.85,6.49-8.77,11.18s.19,9.95,4.2,12.93c3.28,2.42,8.18,3.09,11.68.75,4.26-2.85,4.63-8.35,4.82-13l.78-19.34c.5-12.42,1.42-25-.16-37.36-.22-1.71-.48-3.42-.79-5.12-.18-.93-1.12-3.12-.15-3.74a7.26,7.26,0,0,1,2.27-.49l2.43-.43,5.34-.94,21.36-3.76c1.89-.34,1.09-3.23-.8-2.9l-17.24,3-8.49,1.5-4.13.72a5.93,5.93,0,0,0-3,1.22c-1.89,1.72-.83,4.45-.44,6.58a80.68,80.68,0,0,1,1.11,8.36,153.66,153.66,0,0,1,.36,16.76c-.29,11.64-.89,23.28-1.36,34.91-.16,3.9.05,9.68-4,11.78-3.2,1.65-7.64.1-9.53-2.84-2.76-4.28-1.53-10.29,1.59-14,1.49-1.79,3.67-3.42,6.12-3.25a4.51,4.51,0,0,1,4.3,3.53c.34,1.89,3.23,1.09,2.89-.8Z"/><path d="M1745.2,672c-3.38,3.41-7,7.1-8.17,11.9-1.08,4.26-.18,9.06,3.49,11.79a12,12,0,0,0,11.09,1.21c4.08-1.57,6.87-5.08,8.45-9,1.89-4.75,1.86-10,1.35-15-.57-5.75-1.31-11.42-1.38-17.21s.23-11.43.63-17.13c.1-1.47.2-2.94.31-4.4a11.31,11.31,0,0,1,.5-3.58c.42-1,1.38-1.08,2.31-1.22,1.56-.22,3.13-.38,4.7-.57l39.34-4.83-1.5-1.5q2,21.78,3.69,43.59c.27,3.64.54,7.27.8,10.91a21.94,21.94,0,0,1-.31,7.32c-.52,1.92-1.66,3.86-3.92,3.72-2.74-.16-5.72-2.51-7.53-4.43a9.83,9.83,0,0,1-2.94-7.95,7,7,0,0,1,4.57-5.9c1.85-.56,1.06-3.45-.79-2.89-5.76,1.74-8.16,8.66-6.07,14a16.51,16.51,0,0,0,6,7.32c2.61,1.86,6.13,3.69,9.35,2.4,5.47-2.21,4.94-9.85,4.59-14.59q-.9-12.52-1.93-25-1.17-14.25-2.49-28.48c-.07-.73-.64-1.61-1.5-1.5L1774.66,625l-8.41,1c-2.17.27-4.92.19-6.57,1.87s-1.54,4-1.69,6q-.3,4-.56,8.08c-.33,5.54-.53,11.09-.33,16.64s1.08,10.78,1.48,16.19c.34,4.6.14,9.42-2,13.59-1.82,3.48-5,6.16-9,6.31-4.57.16-8-2.91-7.91-7.58.1-5.36,4.21-9.44,7.74-13a1.5,1.5,0,0,0-2.12-2.12Z"/><path d="M1544.2,459c-3.38,3.41-7,7.1-8.17,11.9-1.08,4.26-.18,9.06,3.49,11.79a12,12,0,0,0,11.09,1.21c4.08-1.57,6.87-5.08,8.45-9.05,1.89-4.75,1.86-9.95,1.35-15-.57-5.75-1.31-11.42-1.38-17.21s.23-11.43.63-17.13c.1-1.47.2-2.94.31-4.4a11.31,11.31,0,0,1,.5-3.58c.42-1,1.38-1.08,2.31-1.22,1.56-.22,3.13-.38,4.7-.57l39.34-4.83-1.5-1.5q2,21.78,3.69,43.59c.27,3.64.54,7.27.8,10.91a21.94,21.94,0,0,1-.31,7.32c-.52,1.92-1.66,3.86-3.92,3.72-2.74-.16-5.72-2.51-7.53-4.43a9.83,9.83,0,0,1-2.94-7.95,7,7,0,0,1,4.57-5.9c1.85-.56,1.06-3.45-.79-2.89-5.76,1.74-8.16,8.66-6.07,14a16.51,16.51,0,0,0,6,7.32c2.61,1.86,6.13,3.69,9.35,2.4,5.47-2.21,4.94-9.85,4.59-14.59q-.9-12.53-1.93-25-1.17-14.25-2.49-28.48c-.07-.73-.64-1.61-1.5-1.5L1573.66,412l-8.41,1c-2.17.27-4.92.19-6.57,1.87s-1.54,3.95-1.69,6q-.3,4-.56,8.08c-.33,5.54-.53,11.09-.33,16.64s1.08,10.78,1.48,16.19c.34,4.6.14,9.42-2,13.59-1.82,3.48-5,6.16-9,6.31-4.57.16-8-2.91-7.91-7.58.1-5.36,4.21-9.44,7.74-13a1.5,1.5,0,0,0-2.12-2.12Z"/><path d="M1118.2,145c-3.38,3.41-7,7.1-8.17,11.9-1.08,4.26-.18,9.06,3.49,11.79a12,12,0,0,0,11.09,1.21c4.08-1.57,6.87-5.08,8.45-9.05,1.89-4.75,1.86-9.95,1.35-15-.57-5.75-1.31-11.42-1.38-17.21s.23-11.43.63-17.13c.1-1.47.2-2.94.31-4.4a11.31,11.31,0,0,1,.5-3.58c.42-1,1.38-1.08,2.31-1.22,1.56-.22,3.13-.38,4.7-.57l39.34-4.83-1.5-1.5q2,21.78,3.69,43.59c.27,3.64.54,7.27.8,10.91a21.94,21.94,0,0,1-.31,7.32c-.52,1.92-1.66,3.86-3.92,3.72-2.74-.16-5.72-2.51-7.53-4.43a9.83,9.83,0,0,1-2.94-7.95,7,7,0,0,1,4.57-5.9c1.85-.56,1.06-3.45-.79-2.89-5.76,1.74-8.16,8.66-6.07,14a16.51,16.51,0,0,0,6,7.32c2.61,1.86,6.13,3.69,9.35,2.4,5.47-2.21,4.94-9.85,4.59-14.59q-.9-12.52-1.93-25-1.17-14.25-2.49-28.48c-.07-.73-.64-1.61-1.5-1.5L1147.66,98l-8.41,1c-2.17.27-4.92.19-6.57,1.87s-1.54,4-1.69,6q-.3,4-.56,8.08c-.33,5.54-.53,11.09-.33,16.64s1.08,10.78,1.48,16.19c.34,4.6.14,9.42-2,13.59-1.82,3.48-5,6.16-9,6.31-4.57.16-8-2.91-7.91-7.58.1-5.36,4.21-9.44,7.74-13a1.5,1.5,0,0,0-2.12-2.12Z"/><path d="M46.2,896c-3.38,3.41-7,7.1-8.17,11.9-1.08,4.26-.18,9.06,3.49,11.79a12,12,0,0,0,11.09,1.21c4.08-1.57,6.87-5.08,8.45-9,1.89-4.75,1.86-10,1.35-15-.57-5.75-1.31-11.42-1.38-17.21s.23-11.43.63-17.13c.1-1.47.2-2.94.31-4.4a11.31,11.31,0,0,1,.5-3.58c.42-1,1.38-1.08,2.31-1.22,1.56-.22,3.13-.38,4.7-.57l39.34-4.83-1.5-1.5q2,21.78,3.69,43.59c.27,3.64.54,7.27.8,10.91a21.94,21.94,0,0,1-.31,7.32c-.52,1.92-1.66,3.86-3.92,3.72-2.74-.16-5.72-2.51-7.53-4.43a9.83,9.83,0,0,1-2.94-7.95,7,7,0,0,1,4.57-5.9c1.85-.56,1.06-3.45-.79-2.89-5.76,1.74-8.16,8.66-6.07,14a16.51,16.51,0,0,0,6,7.32c2.61,1.86,6.13,3.69,9.35,2.4,5.47-2.21,4.94-9.85,4.59-14.59q-.9-12.52-1.93-25-1.17-14.25-2.49-28.48c-.07-.73-.64-1.61-1.5-1.5L75.66,849l-8.41,1c-2.17.27-4.92.19-6.57,1.87s-1.54,4-1.69,6q-.3,4-.56,8.08c-.33,5.54-.53,11.09-.33,16.64s1.08,10.78,1.48,16.19c.34,4.6.14,9.42-2,13.59-1.82,3.48-5,6.16-9,6.31-4.57.16-8-2.91-7.91-7.58.1-5.36,4.21-9.44,7.74-13A1.5,1.5,0,0,0,46.2,896Z"/><path d="M947.34,943.78a409.08,409.08,0,0,0,17.64,50q2.76,6.4,5.8,12.69c.84,1.73,3.43.22,2.59-1.52a363.28,363.28,0,0,1-18.65-47.13q-2.37-7.35-4.48-14.8a1.51,1.51,0,0,0-2.9.8Z"/><path d="M463,133.34l-6.47,103.27L424.41,238l.28-54.45-14.49,43.9H397.81L386.7,188.21l-.14,45.59-32.5,1,1.41-97.22,36.15-1.41L406,182.73l19.13-49.39Z"/><path d="M554.13,186.24a50.75,50.75,0,0,1-1.48,12.35,47.82,47.82,0,0,1-4.26,11.15,45.93,45.93,0,0,1-6.75,9.53,42.84,42.84,0,0,1-8.93,7.42,43.44,43.44,0,0,1-23.18,6.55,44.2,44.2,0,0,1-12.07-1.62,45.79,45.79,0,0,1-10.73-4.54,42.85,42.85,0,0,1-9-7,43.64,43.64,0,0,1-6.9-9.14,46.71,46.71,0,0,1-4.43-10.8,45,45,0,0,1-1.58-12A49,49,0,0,1,470.52,165a47.65,47.65,0,0,1,6.72-9.57,44,44,0,0,1,8.83-7.53A42.38,42.38,0,0,1,496.65,143a40.66,40.66,0,0,1,12-1.76,52.44,52.44,0,0,1,18.61,3.17,39.45,39.45,0,0,1,23.57,23.25A50.54,50.54,0,0,1,554.13,186.24Zm-31.24,1.83a19.69,19.69,0,0,0-.88-5.87,16.14,16.14,0,0,0-2.56-5.07,13.34,13.34,0,0,0-4.19-3.59,11.76,11.76,0,0,0-5.73-1.37,13.93,13.93,0,0,0-5.91,1.2,13.54,13.54,0,0,0-4.47,3.27,14.43,14.43,0,0,0-2.85,4.85,17.45,17.45,0,0,0-1,5.88,21.53,21.53,0,0,0,.84,5.91,17.53,17.53,0,0,0,2.53,5.34,13.35,13.35,0,0,0,4.19,3.87,11.12,11.12,0,0,0,5.8,1.48,13.23,13.23,0,0,0,5.95-1.3,13.52,13.52,0,0,0,4.47-3.52,16.41,16.41,0,0,0,2.81-5.1A18.24,18.24,0,0,0,522.89,188.07Z"/><path d="M646,186.24a51.24,51.24,0,0,1-1.47,12.35,48.73,48.73,0,0,1-4.26,11.15,45.93,45.93,0,0,1-6.75,9.53,42.64,42.64,0,0,1-8.94,7.42,43.44,43.44,0,0,1-23.18,6.55,44.13,44.13,0,0,1-12.06-1.62,45.61,45.61,0,0,1-10.73-4.54,43.64,43.64,0,0,1-15.93-16.18,47.18,47.18,0,0,1-4.44-10.8,45.41,45.41,0,0,1-1.58-12,48.46,48.46,0,0,1,12.45-32.64,44.31,44.31,0,0,1,8.83-7.53A42.29,42.29,0,0,1,588.53,143a40.66,40.66,0,0,1,12-1.76,52.48,52.48,0,0,1,18.61,3.17,39.39,39.39,0,0,1,23.56,23.25A50.54,50.54,0,0,1,646,186.24Zm-31.23,1.83a20,20,0,0,0-.88-5.87,16.16,16.16,0,0,0-2.57-5.07,13.3,13.3,0,0,0-4.18-3.59,11.8,11.8,0,0,0-5.74-1.37,14,14,0,0,0-5.91,1.2,13.6,13.6,0,0,0-4.46,3.27,14.1,14.1,0,0,0-2.85,4.85,17.45,17.45,0,0,0-1,5.88,21.17,21.17,0,0,0,.85,5.91,17.3,17.3,0,0,0,2.53,5.34,13.32,13.32,0,0,0,4.18,3.87,11.16,11.16,0,0,0,5.81,1.48,13.22,13.22,0,0,0,5.94-1.3,13.42,13.42,0,0,0,4.47-3.52,16,16,0,0,0,2.81-5.1A18.25,18.25,0,0,0,614.77,188.07Z"/><path d="M499,279.34l-6.47,103.27L460.41,384l.28-54.45-14.49,43.9H433.81L422.7,334.21l-.14,45.59-32.5,1,1.41-97.22,36.15-1.41L442,328.73l19.13-49.39Z"/><path d="M590.13,332.24a50.75,50.75,0,0,1-1.48,12.35,47.82,47.82,0,0,1-4.26,11.15,45.93,45.93,0,0,1-6.75,9.53,42.84,42.84,0,0,1-8.93,7.42,43.44,43.44,0,0,1-23.18,6.55,44.2,44.2,0,0,1-12.07-1.62,45.79,45.79,0,0,1-10.73-4.54,42.85,42.85,0,0,1-9-7,43.64,43.64,0,0,1-6.9-9.14,46.71,46.71,0,0,1-4.43-10.8,45,45,0,0,1-1.58-12A49,49,0,0,1,506.52,311a47.65,47.65,0,0,1,6.72-9.57,44,44,0,0,1,8.83-7.53A42.38,42.38,0,0,1,532.65,289a40.66,40.66,0,0,1,12-1.76,52.44,52.44,0,0,1,18.61,3.17,39.45,39.45,0,0,1,23.57,23.25A50.54,50.54,0,0,1,590.13,332.24Zm-31.24,1.83a19.69,19.69,0,0,0-.88-5.87,16.14,16.14,0,0,0-2.56-5.07,13.34,13.34,0,0,0-4.19-3.59,11.76,11.76,0,0,0-5.73-1.37,13.93,13.93,0,0,0-5.91,1.2,13.54,13.54,0,0,0-4.47,3.27,14.43,14.43,0,0,0-2.85,4.85,17.45,17.45,0,0,0-1,5.88,21.53,21.53,0,0,0,.84,5.91,17.53,17.53,0,0,0,2.53,5.34,13.35,13.35,0,0,0,4.19,3.87,11.12,11.12,0,0,0,5.8,1.48,13.23,13.23,0,0,0,6-1.3,13.52,13.52,0,0,0,4.47-3.52,16.41,16.41,0,0,0,2.81-5.1A18.24,18.24,0,0,0,558.89,334.07Z"/><path d="M682,332.24a51.24,51.24,0,0,1-1.47,12.35,48.73,48.73,0,0,1-4.26,11.15,45.93,45.93,0,0,1-6.75,9.53,42.64,42.64,0,0,1-8.94,7.42,43.44,43.44,0,0,1-23.18,6.55,44.13,44.13,0,0,1-12.06-1.62,45.61,45.61,0,0,1-10.73-4.54,43.64,43.64,0,0,1-15.93-16.18,47.18,47.18,0,0,1-4.44-10.8,45.41,45.41,0,0,1-1.58-12,48.46,48.46,0,0,1,12.45-32.64,44.31,44.31,0,0,1,8.83-7.53A42.29,42.29,0,0,1,624.53,289a40.66,40.66,0,0,1,12-1.76,52.48,52.48,0,0,1,18.61,3.17,39.39,39.39,0,0,1,23.56,23.25A50.54,50.54,0,0,1,682,332.24Zm-31.23,1.83a20,20,0,0,0-.88-5.87,16.16,16.16,0,0,0-2.57-5.07,13.3,13.3,0,0,0-4.18-3.59,11.8,11.8,0,0,0-5.74-1.37,14,14,0,0,0-5.91,1.2,13.6,13.6,0,0,0-4.46,3.27,14.1,14.1,0,0,0-2.85,4.85,17.45,17.45,0,0,0-1,5.88,21.17,21.17,0,0,0,.85,5.91,17.3,17.3,0,0,0,2.53,5.34,13.32,13.32,0,0,0,4.18,3.87,11.16,11.16,0,0,0,5.81,1.48,13.22,13.22,0,0,0,5.94-1.3,13.42,13.42,0,0,0,4.47-3.52,16,16,0,0,0,2.81-5.1A18.25,18.25,0,0,0,650.77,334.07Z"/><path d="M447,451.34l-6.47,103.27L408.41,556l.28-54.45-14.49,43.9H381.81L370.7,506.21l-.14,45.59-32.5,1,1.41-97.22,36.15-1.41L390,500.73l19.13-49.39Z"/><path d="M538.13,504.24a50.75,50.75,0,0,1-1.48,12.35,47.82,47.82,0,0,1-4.26,11.15,45.93,45.93,0,0,1-6.75,9.53,42.84,42.84,0,0,1-8.93,7.42,43.44,43.44,0,0,1-23.18,6.55,44.2,44.2,0,0,1-12.07-1.62,45.79,45.79,0,0,1-10.73-4.54,42.85,42.85,0,0,1-9-7,43.64,43.64,0,0,1-6.9-9.14,46.71,46.71,0,0,1-4.43-10.8,45,45,0,0,1-1.58-12A49,49,0,0,1,454.52,483a47.65,47.65,0,0,1,6.72-9.57,44,44,0,0,1,8.83-7.53A42.38,42.38,0,0,1,480.65,461a40.66,40.66,0,0,1,12-1.76,52.44,52.44,0,0,1,18.61,3.17,39.45,39.45,0,0,1,23.57,23.25A50.54,50.54,0,0,1,538.13,504.24Zm-31.24,1.83a19.69,19.69,0,0,0-.88-5.87,16.14,16.14,0,0,0-2.56-5.07,13.34,13.34,0,0,0-4.19-3.59,11.76,11.76,0,0,0-5.73-1.37,13.93,13.93,0,0,0-5.91,1.2,13.54,13.54,0,0,0-4.47,3.27,14.43,14.43,0,0,0-2.85,4.85,17.45,17.45,0,0,0-1,5.88,21.53,21.53,0,0,0,.84,5.91,17.53,17.53,0,0,0,2.53,5.34,13.35,13.35,0,0,0,4.19,3.87,11.12,11.12,0,0,0,5.8,1.48,13.23,13.23,0,0,0,5.95-1.3,13.52,13.52,0,0,0,4.47-3.52,16.41,16.41,0,0,0,2.81-5.1A18.24,18.24,0,0,0,506.89,506.07Z"/><path d="M630,504.24a51.24,51.24,0,0,1-1.47,12.35,48.73,48.73,0,0,1-4.26,11.15,45.93,45.93,0,0,1-6.75,9.53,42.64,42.64,0,0,1-8.94,7.42,43.44,43.44,0,0,1-23.18,6.55,44.13,44.13,0,0,1-12.06-1.62,45.61,45.61,0,0,1-10.73-4.54,43.64,43.64,0,0,1-15.93-16.18,47.18,47.18,0,0,1-4.44-10.8,45.41,45.41,0,0,1-1.58-12,48.46,48.46,0,0,1,12.45-32.64,44.31,44.31,0,0,1,8.83-7.53A42.29,42.29,0,0,1,572.53,461a40.66,40.66,0,0,1,12-1.76,52.48,52.48,0,0,1,18.61,3.17,39.39,39.39,0,0,1,23.56,23.25A50.54,50.54,0,0,1,630,504.24Zm-31.23,1.83a20,20,0,0,0-.88-5.87,16.16,16.16,0,0,0-2.57-5.07,13.3,13.3,0,0,0-4.18-3.59,11.8,11.8,0,0,0-5.74-1.37,14,14,0,0,0-5.91,1.2,13.6,13.6,0,0,0-4.46,3.27,14.1,14.1,0,0,0-2.85,4.85,17.45,17.45,0,0,0-1,5.88,21.17,21.17,0,0,0,.85,5.91,17.3,17.3,0,0,0,2.53,5.34,13.32,13.32,0,0,0,4.18,3.87,11.16,11.16,0,0,0,5.81,1.48,13.22,13.22,0,0,0,5.94-1.3,13.42,13.42,0,0,0,4.47-3.52,16,16,0,0,0,2.81-5.1A18.25,18.25,0,0,0,598.77,506.07Z"/></svg>