<svg id="Layer_1" data-name="Layer 1" xmlns="http://www.w3.org/2000/svg" viewBox="0 0 1920 1080"><defs><style>.cls-1{fill:#39b54a;}.cls-1,.cls-4{opacity:0.5;}.cls-2{opacity:0.3;}.cls-3{fill:#4d4d4d;}.cls-4{fill:#3785e2;}</style></defs><rect class="cls-1" x="1104.16" y="728.69" width="284.18" height="263.17" transform="translate(306.24 -326.99) rotate(17.01)"/><path class="cls-2" d="M1705.29,283.61c-117.39-16.83-185-57.85-257.58,10.64s-89.13,149.6-89.13,149.6-104.06,116.35,59.76,173.53,206.07,91.09,278.7,59.84,170-180.85,170-180.85,19.06-109.7-39.67-135-79.34-10-99.94-29.92S1742.38,288.93,1705.29,283.61Z"/><path d="M96,147.23a2.72,2.72,0,0,1-1.2-1,2.56,2.56,0,0,1,.21-3.24,2.3,2.3,0,0,1,1.77-.75,2.78,2.78,0,0,1,1.14.24A28.71,28.71,0,0,0,109.78,145q10.5,0,10.5-6.9a3.85,3.85,0,0,0-1.35-3,9.8,9.8,0,0,0-3.33-1.89q-2-.69-5.64-1.65a72.21,72.21,0,0,1-7.86-2.43,13.7,13.7,0,0,1-5.16-3.51,8.84,8.84,0,0,1-2.16-6.24,11.21,11.21,0,0,1,1.8-6.21,12.38,12.38,0,0,1,5.31-4.44,19.68,19.68,0,0,1,8.43-1.65,34.14,34.14,0,0,1,11.94,2,2.34,2.34,0,0,1,1.68,2.4,2.63,2.63,0,0,1-.66,1.74,2.17,2.17,0,0,1-1.74.78,2.77,2.77,0,0,1-1-.24,29.33,29.33,0,0,0-9.66-1.62,14.71,14.71,0,0,0-7.71,1.8,5.61,5.61,0,0,0-3,5,4.64,4.64,0,0,0,1.41,3.51,9.69,9.69,0,0,0,3.54,2.1,55.78,55.78,0,0,0,5.79,1.59,60.29,60.29,0,0,1,7.65,2.28,12.52,12.52,0,0,1,5,3.54,9.58,9.58,0,0,1,2.07,6.48,10.08,10.08,0,0,1-1.92,6,12.6,12.6,0,0,1-5.4,4.17,20.16,20.16,0,0,1-8,1.5A35.59,35.59,0,0,1,96,147.23Z"/><path d="M133.3,162.8a2.71,2.71,0,0,1-.78-2V121.31a2.66,2.66,0,0,1,2.7-2.7,2.71,2.71,0,0,1,1.95.78,2.56,2.56,0,0,1,.81,1.92v1.56a13.79,13.79,0,0,1,10.26-4.56,14.07,14.07,0,0,1,7,1.89,14.34,14.34,0,0,1,5.4,5.52,18.45,18.45,0,0,1,0,17,14.34,14.34,0,0,1-5.4,5.52,14.07,14.07,0,0,1-7,1.89A13.79,13.79,0,0,1,138,145.55v15.3a2.67,2.67,0,0,1-2.76,2.76A2.56,2.56,0,0,1,133.3,162.8Zm21.3-20.61q2.7-2.82,2.7-8t-2.7-8a9.43,9.43,0,0,0-7.14-2.82,11.33,11.33,0,0,0-5.19,1.23,14.82,14.82,0,0,0-4.29,3.27v12.6a14.82,14.82,0,0,0,4.29,3.27,11.33,11.33,0,0,0,5.19,1.23A9.43,9.43,0,0,0,154.6,142.19Z"/><path d="M170.8,111.77a3,3,0,0,1-.9-2.16v-.24a3.07,3.07,0,0,1,3.06-3.06h.36a3.07,3.07,0,0,1,3.06,3.06v.24a3.07,3.07,0,0,1-3.06,3.06H173A3,3,0,0,1,170.8,111.77Zm.36,37.26a2.61,2.61,0,0,1-.78-1.92V121.37a2.71,2.71,0,0,1,.78-2,2.56,2.56,0,0,1,1.92-.81,2.67,2.67,0,0,1,2.76,2.76v25.74A2.56,2.56,0,0,1,175,149a2.71,2.71,0,0,1-1.95.78A2.61,2.61,0,0,1,171.16,149Z"/><path d="M186.1,149a2.61,2.61,0,0,1-.78-1.92V121.37a2.71,2.71,0,0,1,.78-2,2.56,2.56,0,0,1,1.92-.81,2.77,2.77,0,0,1,2.76,2.76v2.46a19.94,19.94,0,0,1,4.92-4,12.42,12.42,0,0,1,6.24-1.5,10.37,10.37,0,0,1,5.73,1.56,10.14,10.14,0,0,1,3.72,4.26,13.6,13.6,0,0,1,1.29,5.94v17a2.56,2.56,0,0,1-.81,1.92,2.71,2.71,0,0,1-2,.78,2.66,2.66,0,0,1-2.7-2.7V130.67q0-7.32-6.6-7.32a9.55,9.55,0,0,0-5.37,1.56,19.44,19.44,0,0,0-4.47,4.2v18A2.56,2.56,0,0,1,190,149a2.71,2.71,0,0,1-1.95.78A2.61,2.61,0,0,1,186.1,149Z"/><path d="M237.88,111.77a3,3,0,0,1-.9-2.16v-.24a3.07,3.07,0,0,1,3.06-3.06h.36a3.07,3.07,0,0,1,3.06,3.06v.24a3.07,3.07,0,0,1-3.06,3.06H240A3,3,0,0,1,237.88,111.77Zm.36,37.26a2.61,2.61,0,0,1-.78-1.92V121.37a2.71,2.71,0,0,1,.78-2,2.56,2.56,0,0,1,1.92-.81,2.67,2.67,0,0,1,2.76,2.76v25.74a2.56,2.56,0,0,1-.81,1.92,2.71,2.71,0,0,1-2,.78A2.61,2.61,0,0,1,238.24,149Z"/><path d="M253.18,149a2.57,2.57,0,0,1-.78-1.92V121.37a2.67,2.67,0,0,1,.78-2,2.53,2.53,0,0,1,1.92-.81,2.77,2.77,0,0,1,2.76,2.76v2.46a19.76,19.76,0,0,1,4.92-4,12.42,12.42,0,0,1,6.24-1.5,10.4,10.4,0,0,1,5.73,1.56,10.21,10.21,0,0,1,3.72,4.26,13.6,13.6,0,0,1,1.29,5.94v17A2.56,2.56,0,0,1,279,149a2.73,2.73,0,0,1-1.95.78,2.58,2.58,0,0,1-1.92-.78,2.61,2.61,0,0,1-.78-1.92V130.67c0-4.88-2.21-7.32-6.6-7.32a9.5,9.5,0,0,0-5.37,1.56,19,19,0,0,0-4.47,4.2v18a2.56,2.56,0,0,1-.81,1.92,2.73,2.73,0,0,1-2,.78A2.58,2.58,0,0,1,253.18,149Z"/><path d="M307.44,149a8.52,8.52,0,0,1-3.57-3.15,8.68,8.68,0,0,1-1.32-4.77,8.41,8.41,0,0,1,3.51-7.08q3.51-2.64,10.29-2.64h7.26v-.48q0-4-1.95-5.7t-6.09-1.74a20.45,20.45,0,0,0-4.05.36,34,34,0,0,0-3.93,1.08,3.37,3.37,0,0,1-.78.12,2.13,2.13,0,0,1-1.56-.66,2.2,2.2,0,0,1-.66-1.62,2.31,2.31,0,0,1,1.56-2.28,26.39,26.39,0,0,1,10.38-2.16,13.55,13.55,0,0,1,7,1.68,10.56,10.56,0,0,1,4.2,4.35,12.65,12.65,0,0,1,1.35,5.79v17a2.56,2.56,0,0,1-.81,1.92,2.71,2.71,0,0,1-1.95.78,2.66,2.66,0,0,1-2.7-2.7v-1.56a15.07,15.07,0,0,1-11.28,4.56A11.15,11.15,0,0,1,307.44,149Zm12-5a14.18,14.18,0,0,0,4.14-3.21v-5h-6.54q-9.06,0-9.06,4.74a4.45,4.45,0,0,0,1.47,3.48q1.47,1.32,4.89,1.32A10.85,10.85,0,0,0,319.47,144Z"/><path d="M360,148.19a14.78,14.78,0,0,1-5.85-5.52,17.44,17.44,0,0,1,0-16.92,14.78,14.78,0,0,1,5.85-5.52,16.92,16.92,0,0,1,8-1.92,16.63,16.63,0,0,1,5.49.81,20.74,20.74,0,0,1,4.29,2.07,2.39,2.39,0,0,1,.51,3.75,2.11,2.11,0,0,1-1.59.75,2.74,2.74,0,0,1-1.32-.36,22.85,22.85,0,0,0-3.39-1.47,11.7,11.7,0,0,0-3.51-.45,10.88,10.88,0,0,0-8.1,3,11.9,11.9,0,0,0,0,15.66,10.88,10.88,0,0,0,8.1,3,11.7,11.7,0,0,0,3.51-.45,22.85,22.85,0,0,0,3.39-1.47,2.74,2.74,0,0,1,1.32-.36,2.11,2.11,0,0,1,1.59.75,2.39,2.39,0,0,1-.51,3.75,20.74,20.74,0,0,1-4.29,2.07,16.63,16.63,0,0,1-5.49.81A16.92,16.92,0,0,1,360,148.19Z"/><path d="M386.25,111.77a3,3,0,0,1-.9-2.16v-.24a3.07,3.07,0,0,1,3.06-3.06h.36a3.07,3.07,0,0,1,3.06,3.06v.24a3.07,3.07,0,0,1-3.06,3.06h-.36A3,3,0,0,1,386.25,111.77Zm.36,37.26a2.61,2.61,0,0,1-.78-1.92V121.37a2.71,2.71,0,0,1,.78-2,2.56,2.56,0,0,1,1.92-.81,2.67,2.67,0,0,1,2.76,2.76v25.74a2.56,2.56,0,0,1-.81,1.92,2.71,2.71,0,0,1-2,.78A2.61,2.61,0,0,1,386.61,149Z"/><path d="M401.55,149a2.61,2.61,0,0,1-.78-1.92V121.37a2.71,2.71,0,0,1,.78-2,2.56,2.56,0,0,1,1.92-.81,2.77,2.77,0,0,1,2.76,2.76V124q4.2-5.64,9.42-5.64h.3a2.51,2.51,0,0,1,1.89.78,2.66,2.66,0,0,1,.75,1.92,2.42,2.42,0,0,1-.78,1.86,2.81,2.81,0,0,1-2,.72h-.3a10.23,10.23,0,0,0-5.28,1.41,12.16,12.16,0,0,0-4,3.87v18.24a2.56,2.56,0,0,1-.81,1.92,2.71,2.71,0,0,1-1.95.78A2.61,2.61,0,0,1,401.55,149Z"/><path d="M429,148.19a14.78,14.78,0,0,1-5.85-5.52,17.44,17.44,0,0,1,0-16.92,14.78,14.78,0,0,1,5.85-5.52,16.92,16.92,0,0,1,8-1.92,16.63,16.63,0,0,1,5.49.81,20.74,20.74,0,0,1,4.29,2.07,2.39,2.39,0,0,1,.51,3.75,2.11,2.11,0,0,1-1.59.75,2.74,2.74,0,0,1-1.32-.36,22.85,22.85,0,0,0-3.39-1.47,11.7,11.7,0,0,0-3.51-.45,10.88,10.88,0,0,0-8.1,3,11.9,11.9,0,0,0,0,15.66,10.88,10.88,0,0,0,8.1,3,11.7,11.7,0,0,0,3.51-.45,22.85,22.85,0,0,0,3.39-1.47,2.74,2.74,0,0,1,1.32-.36,2.11,2.11,0,0,1,1.59.75,2.39,2.39,0,0,1-.51,3.75,20.74,20.74,0,0,1-4.29,2.07,16.63,16.63,0,0,1-5.49.81A16.92,16.92,0,0,1,429,148.19Z"/><path d="M455.61,149a2.61,2.61,0,0,1-.78-1.92V108.17a2.71,2.71,0,0,1,.78-2,2.56,2.56,0,0,1,1.92-.81,2.67,2.67,0,0,1,2.76,2.76v38.94a2.56,2.56,0,0,1-.81,1.92,2.71,2.71,0,0,1-2,.78A2.61,2.61,0,0,1,455.61,149Z"/><path d="M472,145.94q-4.11-4.17-4.11-11.73a19.56,19.56,0,0,1,1.56-7.86,13.36,13.36,0,0,1,4.8-5.82,13.79,13.79,0,0,1,8-2.22,14,14,0,0,1,7.68,2.07,13.39,13.39,0,0,1,4.92,5.52,17,17,0,0,1,1.68,7.53,2.62,2.62,0,0,1-2.76,2.7H473.43a9.87,9.87,0,0,0,3.12,6.54q2.64,2.34,7.38,2.34a18,18,0,0,0,4.41-.48,18.32,18.32,0,0,0,3.69-1.38,2.38,2.38,0,0,1,1.08-.24,2.41,2.41,0,0,1,1.68.66,2.18,2.18,0,0,1,.72,1.68,2.59,2.59,0,0,1-1.56,2.22,18.74,18.74,0,0,1-10.5,2.64Q476.13,150.11,472,145.94Zm19.11-14.25a9.61,9.61,0,0,0-1.53-4.92,8.26,8.26,0,0,0-3.33-2.91,9.15,9.15,0,0,0-8,0,8.06,8.06,0,0,0-3.3,2.91,9.79,9.79,0,0,0-1.5,4.92Z"/><path d="M503.28,158a1.78,1.78,0,0,1-.51-1.26,1.67,1.67,0,0,1,.9-1.5,6.85,6.85,0,0,0,2.28-2.1,6.41,6.41,0,0,0,.78-3.48h-.24a3.38,3.38,0,0,1-3.36-3.36V146a3.38,3.38,0,0,1,3.36-3.36h.6a3.38,3.38,0,0,1,3.36,3.36v3.54a9.65,9.65,0,0,1-4.92,8.76,1.89,1.89,0,0,1-1,.3A1.63,1.63,0,0,1,503.28,158Z"/><path d="M540.54,148.22a14.34,14.34,0,0,1-5.4-5.52,18.45,18.45,0,0,1,0-17,14.34,14.34,0,0,1,5.4-5.52,14.07,14.07,0,0,1,7.05-1.89,13.79,13.79,0,0,1,10.26,4.56v-14.7a2.63,2.63,0,0,1,.81-2,2.71,2.71,0,0,1,2-.78,2.56,2.56,0,0,1,1.92.81,2.71,2.71,0,0,1,.78,2v38.94a2.66,2.66,0,0,1-2.7,2.7,2.71,2.71,0,0,1-2-.78,2.56,2.56,0,0,1-.81-1.92v-1.56a13.79,13.79,0,0,1-10.26,4.56A14.07,14.07,0,0,1,540.54,148.22Zm13-4.44a14.82,14.82,0,0,0,4.29-3.27v-12.6a14.82,14.82,0,0,0-4.29-3.27,11.33,11.33,0,0,0-5.19-1.23,9.43,9.43,0,0,0-7.14,2.82q-2.7,2.82-2.7,8t2.7,8a9.43,9.43,0,0,0,7.14,2.82A11.33,11.33,0,0,0,553.56,143.78Z"/><path d="M575.7,149a8.52,8.52,0,0,1-3.57-3.15,8.68,8.68,0,0,1-1.32-4.77,8.41,8.41,0,0,1,3.51-7.08q3.51-2.64,10.29-2.64h7.26v-.48q0-4-2-5.7t-6.09-1.74a20.45,20.45,0,0,0-4.05.36,34,34,0,0,0-3.93,1.08,3.37,3.37,0,0,1-.78.12,2.13,2.13,0,0,1-1.56-.66,2.2,2.2,0,0,1-.66-1.62,2.31,2.31,0,0,1,1.56-2.28,26.39,26.39,0,0,1,10.38-2.16,13.55,13.55,0,0,1,7,1.68,10.56,10.56,0,0,1,4.2,4.35,12.65,12.65,0,0,1,1.35,5.79v17a2.56,2.56,0,0,1-.81,1.92,2.71,2.71,0,0,1-1.95.78,2.66,2.66,0,0,1-2.7-2.7v-1.56a15.07,15.07,0,0,1-11.28,4.56A11.15,11.15,0,0,1,575.7,149Zm12-5a14.18,14.18,0,0,0,4.14-3.21v-5h-6.54q-9.06,0-9.06,4.74a4.45,4.45,0,0,0,1.47,3.48q1.47,1.32,4.89,1.32A10.85,10.85,0,0,0,587.73,144Z"/><path d="M607.29,149a2.61,2.61,0,0,1-.78-1.92V121.37a2.71,2.71,0,0,1,.78-2,2.56,2.56,0,0,1,1.92-.81,2.77,2.77,0,0,1,2.76,2.76v2.46a19.94,19.94,0,0,1,4.92-4,12.42,12.42,0,0,1,6.24-1.5,10.37,10.37,0,0,1,5.73,1.56,10.14,10.14,0,0,1,3.72,4.26,13.6,13.6,0,0,1,1.29,5.94v17a2.56,2.56,0,0,1-.81,1.92,2.71,2.71,0,0,1-1.95.78,2.66,2.66,0,0,1-2.7-2.7V130.67q0-7.32-6.6-7.32a9.55,9.55,0,0,0-5.37,1.56,19.44,19.44,0,0,0-4.47,4.2v18a2.56,2.56,0,0,1-.81,1.92,2.71,2.71,0,0,1-1.95.78A2.61,2.61,0,0,1,607.29,149Z"/><path d="M649.23,148.19a14.78,14.78,0,0,1-5.85-5.52,17.44,17.44,0,0,1,0-16.92,14.78,14.78,0,0,1,5.85-5.52,16.92,16.92,0,0,1,8-1.92,16.63,16.63,0,0,1,5.49.81,20.74,20.74,0,0,1,4.29,2.07,2.39,2.39,0,0,1,.51,3.75,2.11,2.11,0,0,1-1.59.75,2.74,2.74,0,0,1-1.32-.36,22.85,22.85,0,0,0-3.39-1.47,11.7,11.7,0,0,0-3.51-.45,10.88,10.88,0,0,0-8.1,3,11.9,11.9,0,0,0,0,15.66,10.88,10.88,0,0,0,8.1,3,11.7,11.7,0,0,0,3.51-.45,22.85,22.85,0,0,0,3.39-1.47,2.74,2.74,0,0,1,1.32-.36,2.11,2.11,0,0,1,1.59.75,2.39,2.39,0,0,1-.51,3.75,20.74,20.74,0,0,1-4.29,2.07,16.63,16.63,0,0,1-5.49.81A16.92,16.92,0,0,1,649.23,148.19Z"/><path d="M677,145.94q-4.11-4.17-4.11-11.73a19.56,19.56,0,0,1,1.56-7.86,13.36,13.36,0,0,1,4.8-5.82,13.79,13.79,0,0,1,8-2.22,14,14,0,0,1,7.68,2.07,13.39,13.39,0,0,1,4.92,5.52,17,17,0,0,1,1.68,7.53,2.62,2.62,0,0,1-2.76,2.7H678.45a9.87,9.87,0,0,0,3.12,6.54Q684.21,145,689,145a18,18,0,0,0,4.41-.48,18.32,18.32,0,0,0,3.69-1.38,2.38,2.38,0,0,1,1.08-.24,2.41,2.41,0,0,1,1.68.66,2.18,2.18,0,0,1,.72,1.68,2.59,2.59,0,0,1-1.56,2.22,18.74,18.74,0,0,1-10.5,2.64Q681.15,150.11,677,145.94Zm19.11-14.25a9.61,9.61,0,0,0-1.53-4.92,8.26,8.26,0,0,0-3.33-2.91,9.15,9.15,0,0,0-8,0,8.06,8.06,0,0,0-3.3,2.91,9.79,9.79,0,0,0-1.5,4.92Z"/><path d="M727.26,149a8.52,8.52,0,0,1-3.57-3.15,8.68,8.68,0,0,1-1.32-4.77,8.41,8.41,0,0,1,3.51-7.08q3.51-2.64,10.29-2.64h7.26v-.48q0-4-1.95-5.7t-6.09-1.74a20.45,20.45,0,0,0-4,.36,34,34,0,0,0-3.93,1.08,3.37,3.37,0,0,1-.78.12,2.13,2.13,0,0,1-1.56-.66,2.2,2.2,0,0,1-.66-1.62,2.31,2.31,0,0,1,1.56-2.28,26.39,26.39,0,0,1,10.38-2.16,13.55,13.55,0,0,1,7,1.68,10.56,10.56,0,0,1,4.2,4.35,12.65,12.65,0,0,1,1.35,5.79v17a2.56,2.56,0,0,1-.81,1.92,2.71,2.71,0,0,1-2,.78,2.66,2.66,0,0,1-2.7-2.7v-1.56a15.07,15.07,0,0,1-11.28,4.56A11.15,11.15,0,0,1,727.26,149Zm12-5a14.18,14.18,0,0,0,4.14-3.21v-5h-6.54q-9.06,0-9.06,4.74A4.45,4.45,0,0,0,729.3,144q1.47,1.32,4.89,1.32A10.85,10.85,0,0,0,739.29,144Z"/><path d="M758.85,149a2.61,2.61,0,0,1-.78-1.92V121.37a2.71,2.71,0,0,1,.78-2,2.56,2.56,0,0,1,1.92-.81,2.77,2.77,0,0,1,2.76,2.76v2.46a19.94,19.94,0,0,1,4.92-4,12.42,12.42,0,0,1,6.24-1.5,10.37,10.37,0,0,1,5.73,1.56,10.14,10.14,0,0,1,3.72,4.26,13.6,13.6,0,0,1,1.29,5.94v17a2.56,2.56,0,0,1-.81,1.92,2.71,2.71,0,0,1-2,.78,2.66,2.66,0,0,1-2.7-2.7V130.67q0-7.32-6.6-7.32a9.55,9.55,0,0,0-5.37,1.56,19.44,19.44,0,0,0-4.47,4.2v18a2.56,2.56,0,0,1-.81,1.92,2.71,2.71,0,0,1-2,.78A2.61,2.61,0,0,1,758.85,149Z"/><path d="M800.22,148.22a14.34,14.34,0,0,1-5.4-5.52,18.45,18.45,0,0,1,0-17,14.34,14.34,0,0,1,5.4-5.52,14.07,14.07,0,0,1,7-1.89,13.79,13.79,0,0,1,10.26,4.56v-14.7a2.63,2.63,0,0,1,.81-2,2.71,2.71,0,0,1,1.95-.78,2.56,2.56,0,0,1,1.92.81,2.71,2.71,0,0,1,.78,2v38.94a2.66,2.66,0,0,1-2.7,2.7,2.71,2.71,0,0,1-1.95-.78,2.56,2.56,0,0,1-.81-1.92v-1.56a13.79,13.79,0,0,1-10.26,4.56A14.07,14.07,0,0,1,800.22,148.22Zm13-4.44a14.82,14.82,0,0,0,4.29-3.27v-12.6a14.82,14.82,0,0,0-4.29-3.27,11.33,11.33,0,0,0-5.19-1.23,9.43,9.43,0,0,0-7.14,2.82q-2.7,2.82-2.7,8t2.7,8a9.43,9.43,0,0,0,7.14,2.82A11.33,11.33,0,0,0,813.24,143.78Z"/><path d="M847.05,147.41a2.29,2.29,0,0,1-1-2,2.41,2.41,0,0,1,.66-1.68,2.18,2.18,0,0,1,1.68-.72,2.64,2.64,0,0,1,1.08.24,24.25,24.25,0,0,0,3.84,1.32,17.85,17.85,0,0,0,4.32.48q6.66,0,6.66-4.26a2.27,2.27,0,0,0-1.53-2.1,31.33,31.33,0,0,0-5-1.62,45.27,45.27,0,0,1-5.85-1.74,10.29,10.29,0,0,1-4-2.73,6.94,6.94,0,0,1-1.65-4.83,8.65,8.65,0,0,1,3-6.84q3-2.64,8.67-2.64a25,25,0,0,1,8.7,1.5,2.25,2.25,0,0,1,1.29.9,2.41,2.41,0,0,1,.45,1.38,2.35,2.35,0,0,1-.69,1.68,2.27,2.27,0,0,1-1.71.72,3.37,3.37,0,0,1-.78-.12,23,23,0,0,0-6.84-1.08,9.37,9.37,0,0,0-5.07,1.17,3.49,3.49,0,0,0-1.83,3,2.77,2.77,0,0,0,1.68,2.64,24,24,0,0,0,5.22,1.62,50,50,0,0,1,5.76,1.77,9.52,9.52,0,0,1,3.81,2.73,7.41,7.41,0,0,1,1.59,5,7.93,7.93,0,0,1-3,6.36q-3,2.52-8.55,2.52A22.32,22.32,0,0,1,847.05,147.41Z"/><path d="M883.59,149.09a3.66,3.66,0,0,1-1.32-1.8l-8.52-25a3.23,3.23,0,0,1-.18-1,2.66,2.66,0,0,1,2.7-2.7,2.74,2.74,0,0,1,1.53.45,2.21,2.21,0,0,1,.93,1.17l7,23.1,7-22.56a3.08,3.08,0,0,1,5.88,0l7,22.56,7-23.1a2.21,2.21,0,0,1,.93-1.17,2.74,2.74,0,0,1,1.53-.45,2.66,2.66,0,0,1,2.7,2.7,3.23,3.23,0,0,1-.18,1l-8.52,25a3.66,3.66,0,0,1-1.32,1.8,3.6,3.6,0,0,1-4.32,0,4,4,0,0,1-1.38-1.86l-6.36-19.86-6.36,19.86a4,4,0,0,1-1.38,1.86,3.6,3.6,0,0,1-4.32,0Z"/><path d="M924.57,111.77a3,3,0,0,1-.9-2.16v-.24a3.07,3.07,0,0,1,3.06-3.06h.36a3.07,3.07,0,0,1,3.06,3.06v.24a3.07,3.07,0,0,1-3.06,3.06h-.36A3,3,0,0,1,924.57,111.77Zm.36,37.26a2.61,2.61,0,0,1-.78-1.92V121.37a2.71,2.71,0,0,1,.78-2,2.56,2.56,0,0,1,1.92-.81,2.67,2.67,0,0,1,2.76,2.76v25.74a2.56,2.56,0,0,1-.81,1.92,2.71,2.71,0,0,1-1.95.78A2.61,2.61,0,0,1,924.93,149Z"/><path d="M939.87,149a2.61,2.61,0,0,1-.78-1.92V121.37a2.71,2.71,0,0,1,.78-2,2.56,2.56,0,0,1,1.92-.81,2.77,2.77,0,0,1,2.76,2.76v2.46a19.94,19.94,0,0,1,4.92-4,12.42,12.42,0,0,1,6.24-1.5,10.37,10.37,0,0,1,5.73,1.56,10.14,10.14,0,0,1,3.72,4.26,13.6,13.6,0,0,1,1.29,5.94v17a2.56,2.56,0,0,1-.81,1.92,2.71,2.71,0,0,1-1.95.78,2.66,2.66,0,0,1-2.7-2.7V130.67q0-7.32-6.6-7.32a9.55,9.55,0,0,0-5.37,1.56,19.44,19.44,0,0,0-4.47,4.2v18a2.56,2.56,0,0,1-.81,1.92,2.71,2.71,0,0,1-2,.78A2.61,2.61,0,0,1,939.87,149Z"/><path d="M982.89,163a22.86,22.86,0,0,1-5.82-2.22,2.28,2.28,0,0,1-1.08-2.1,2.46,2.46,0,0,1,.69-1.71,2.22,2.22,0,0,1,1.71-.75,3,3,0,0,1,1.08.24,21.77,21.77,0,0,0,9.9,2.28q9.18,0,9.18-9.78v-4a13.54,13.54,0,0,1-10.26,4.56,14.48,14.48,0,0,1-12.36-7,18,18,0,0,1,0-17.1,14.48,14.48,0,0,1,12.36-7,13.54,13.54,0,0,1,10.26,4.56v-1.5a2.71,2.71,0,0,1,.78-2,2.55,2.55,0,0,1,1.92-.81,2.77,2.77,0,0,1,2.76,2.76v26.82q0,7.56-3.66,11.64t-10.44,4.08A28.34,28.34,0,0,1,982.89,163Zm11.52-19.68a18,18,0,0,0,4.14-3.24V127.73a18,18,0,0,0-4.14-3.24,10.08,10.08,0,0,0-5-1.2,10.19,10.19,0,0,0-7.35,2.73q-2.85,2.73-2.85,7.89t2.85,7.89a10.19,10.19,0,0,0,7.35,2.73A10.08,10.08,0,0,0,994.41,143.33Z"/><path d="M1014.72,148.7a3.47,3.47,0,0,1-1.05-2.55,3.59,3.59,0,0,1,3.54-3.54,3.47,3.47,0,0,1,2.55,1,3.4,3.4,0,0,1,1,2.49,3.59,3.59,0,0,1-3.6,3.6A3.4,3.4,0,0,1,1014.72,148.7Zm1-11.25a1.8,1.8,0,0,1-.6-1.26l-1.08-19.8v-5.94a3.07,3.07,0,0,1,3.12-3.12,2.92,2.92,0,0,1,2.19.9,3.07,3.07,0,0,1,.87,2.22v5.94l-1.08,19.8a1.86,1.86,0,0,1-.57,1.26,2,2,0,0,1-1.41.48A2.09,2.09,0,0,1,1015.77,137.45Z"/><path d="M1330.87,808.09a78.43,78.43,0,0,1-33.79-35.94l-2,2.05,18.73,13.33,9.36,6.66c2.6,1.85,5.29,4.13,8.52,4.72s6.08-.62,8.71-2.22a53.31,53.31,0,0,0,7.83-6c4.92-4.37,9.37-9.35,14.86-13,5-3.33,11.37-6.09,17.45-4.57,4.84,1.22,9.6,5.41,10.14,10.59.64,6.12-5.34,10-9.32,13.58A95.55,95.55,0,0,0,1353,843.81c-1.69,6.47-2.79,13.36-1.3,20a26,26,0,0,0,7.88,13.31c7.69,7,18.19,10.26,28,13.09a299.76,299.76,0,0,1,35.71,12.41,265.12,265.12,0,0,1,66.07,40.78q3.59,3,7.05,6.16l1.06-2.56-70.5-4.52-35-2.25c-11.39-.73-22.78-1.52-34.11-2.87a225.05,225.05,0,0,1-33.09-6.18c-8.93-2.44-18.19-6.07-24-13.67-9.94-13.06-7.61-32.37.83-45.55,4.65-7.26,10.89-13.37,16.37-20,5.14-6.21,10.07-13.16,11.49-21.26a30,30,0,0,0,.42-6.06,1.54,1.54,0,0,0-1.1-1.45l-48.32-14.06-.4,2.95a177.45,177.45,0,0,1,46,1.89c1.89.33,2.7-2.56.8-2.89a180.09,180.09,0,0,0-46.83-2,1.5,1.5,0,0,0-.4,2.94L1328,826.07l-1.1-1.45c.3,8.45-3.77,15.87-8.79,22.4-5.35,7-11.66,13.12-16.87,20.2-9.7,13.17-13.55,32-6,47.09,4.18,8.28,11.72,13.63,20.19,17a106.59,106.59,0,0,0,15,4.4c5.62,1.31,11.3,2.37,17,3.24,23.09,3.54,46.55,4.41,69.83,5.91l71.25,4.57,9,.57a1.51,1.51,0,0,0,1.06-2.56A268,268,0,0,0,1397.69,890c-10.3-3.17-21.2-5.39-30.53-11a28,28,0,0,1-10.4-10.19c-3.14-5.69-3.24-12.35-2.13-18.62A89.15,89.15,0,0,1,1369,815.85a91.07,91.07,0,0,1,12-14.2c4.1-3.95,9.61-7.33,11.81-12.81,2.05-5.14-.15-10.77-4-14.39a17.94,17.94,0,0,0-16-4.27c-13.24,2.49-21,14.55-31.18,22-2.48,1.8-5.62,4.14-8.86,3.87s-6.09-3-8.61-4.75L1305.5,778l-9-6.37c-1.35-1-2.61.84-2,2a81.21,81.21,0,0,0,25.12,30.82,78,78,0,0,0,9.75,6.2c1.7.92,3.21-1.67,1.51-2.59Z"/><path d="M1362.59,798.86c-3.59-.74-5.75-4.33-5.72-7.85.05-4.12,3.35-7.39,6.91-9,3.26-1.45,8.18-2,11,.76,3,3,1.3,8-1.2,10.67a10.76,10.76,0,0,1-11.2,3.1c-1.83-.64-2.61,2.26-.8,2.89,4.7,1.64,10,0,13.51-3.27s5.81-9.53,2.94-14.09-9-4.92-13.57-3.48c-4.85,1.51-9.48,5.36-10.36,10.59s2.21,11.4,7.74,12.53c1.89.38,2.69-2.51.8-2.89Z"/><path d="M1365.27,788.59l-.11,0,.4-.06h-.12l.4,0-.08,0,.36.15-.06,0,.3.24,0-.05.23.31s0-.05,0-.08l.15.36a.28.28,0,0,1,0-.13l0,.4a.74.74,0,0,1,0-.21l0,.4a1.35,1.35,0,0,1,.09-.33l-.15.36a1.05,1.05,0,0,1,.17-.29l-.24.3a1.37,1.37,0,0,1,.17-.17l-.3.24a.78.78,0,0,1,.15-.1l-.36.15.16,0-.4,0h.12l-.4,0,.15,0-.36-.15a1.38,1.38,0,0,1,.24.14l-.3-.23a1,1,0,0,1,.21.21l-.23-.3a1.57,1.57,0,0,1,.18.31l-.15-.36a2,2,0,0,1,.14.54l0-.4a4.26,4.26,0,0,1,0,1l0-.4c0,.22-.07.42-.11.63a1.49,1.49,0,0,0,2.2,1.69,1.5,1.5,0,0,0,.69-.89,10,10,0,0,0,.19-1.22,3.75,3.75,0,0,0,0-.82,3.63,3.63,0,0,0-.42-1.44,2.79,2.79,0,0,0-1-1,2.11,2.11,0,0,0-2.59.37,2.8,2.8,0,0,0-.78,1.88,2,2,0,0,0,.56,1.39,1.9,1.9,0,0,0,1.84.43,1.57,1.57,0,0,0,.89-.69,1.52,1.52,0,0,0,.15-1.16,1.47,1.47,0,0,0-.69-.89,1.58,1.58,0,0,0-1.15-.16Z"/><path d="M1364.8,943.35l-29.65,29.53a1.5,1.5,0,0,0,2.12,2.12l29.65-29.53a1.5,1.5,0,0,0-2.12-2.12Z"/><path d="M1367.39,951.23a143.68,143.68,0,0,0,23.52,28.07c1.41,1.3,3.54-.81,2.12-2.12a140,140,0,0,1-23-27.47c-1-1.62-3.64-.12-2.59,1.52Z"/><path class="cls-3" d="M1048,420.86c6.94-14.08,9.09-29.69,11.58-45a199.24,199.24,0,0,1,4.82-23.09,108.82,108.82,0,0,1,7.78-19.55,129.53,129.53,0,0,1,25.43-33.85,158.22,158.22,0,0,1,36-25.84,220.39,220.39,0,0,1,44.08-17.24c7.57-2.11,15.24-3.95,23-5.42,7.49-1.42,15.8-2.26,22.59,2,6,3.75,9.84,10.33,12.84,16.59a86.55,86.55,0,0,1,6.91,21.39,104.53,104.53,0,0,1-1.76,44.83,127.12,127.12,0,0,1-18.51,40,176.25,176.25,0,0,1-29.42,32.77q-4.1,3.6-8.35,7c-1.51,1.2.62,3.31,2.12,2.12a193.13,193.13,0,0,0,32-31.8,140.23,140.23,0,0,0,22-39,111.4,111.4,0,0,0,6.34-45.74,95.38,95.38,0,0,0-4.4-22.45,72.42,72.42,0,0,0-9.82-20.19,31.38,31.38,0,0,0-7.55-7.57,23.67,23.67,0,0,0-10.57-3.81c-7.92-1-16.07,1.12-23.75,2.85a252.4,252.4,0,0,0-46.08,14.84,174.87,174.87,0,0,0-40.23,24.22,140.47,140.47,0,0,0-29,32,119.16,119.16,0,0,0-16.74,40.63c-3.31,15.63-4.45,31.75-9.38,47a82.5,82.5,0,0,1-4.37,10.87c-.86,1.72,1.73,3.25,2.59,1.51Z"/><path class="cls-3" d="M1202.52,462.94c-20-5.43-40-10.71-60.31-14.55-20-3.77-40.28-6.2-60.62-5.6-19.58.57-39.66,3.87-57.73,11.66-7.48,3.22-15.12,8-18.66,15.69-4.22,9.16-1.69,19.49,2.14,28.31,6.66,15.35,17.85,28.4,31.21,38.35a116.76,116.76,0,0,0,47.33,20.64c20.22,3.93,41.11,3,61.23-1.05a198.49,198.49,0,0,0,29-8.22A125.8,125.8,0,0,0,1199.56,537c13.59-8.51,25.7-21.11,29-37.27,2.8-13.57.07-29.33-10.1-39.33a30.8,30.8,0,0,0-8.29-5.84c-1.74-.84-3.26,1.75-1.52,2.59,12.46,6,18.13,19.86,18,33.12a44.38,44.38,0,0,1-4.85,19.83A60.19,60.19,0,0,1,1206,528.72c-13.54,10.94-30.52,17.24-47.14,21.78-19.23,5.25-39.34,7.71-59.24,5.89a119.15,119.15,0,0,1-49.91-15.75c-13.86-8.21-26-19.5-34.42-33.31-4.5-7.41-8.63-15.93-9.25-24.69a22,22,0,0,1,2.86-13.09,26.49,26.49,0,0,1,8.41-8.28c7.44-4.85,16.31-7.59,24.82-9.88a162.28,162.28,0,0,1,28.53-5c19.52-1.68,39.2-.26,58.52,2.76,19.72,3.08,39.14,7.77,58.42,12.87q7.07,1.88,14.1,3.8a1.51,1.51,0,0,0,.8-2.9Z"/><path class="cls-3" d="M1311.82,348.74c38-8.64,76.07-17.25,114.52-23.74,38.26-6.46,77-10.8,115.8-10.75,33.46,0,66.86,3.4,99.35,11.53a332.83,332.83,0,0,1,83.93,33.2c25.63,14.6,49.09,33.11,68.34,55.53,21,24.4,37.82,53.94,43.08,86,2.77,16.83,1.94,34.29-3.81,50.43-5.22,14.65-14.17,27.63-23.68,39.81-9.34,11.95-19.37,23.38-28,35.86a142.67,142.67,0,0,0-11.64,19.73c-3.18,6.69-5.81,13.62-8.69,20.43-5.64,13.37-12.76,27.26-26.22,34.18-12.22,6.29-26.85,5.33-39.38.48a64.26,64.26,0,0,1-32.1-27.7c-8.44-14.32-12.29-30.87-14-47.27-.83-8-1.15-16.13-1.24-24.22a1.5,1.5,0,0,0-3,0c.33,31.08,4.34,67.82,29.15,89.73,20.25,17.88,53.5,24,73.69,2.74,10.49-11.06,15.34-26,21.18-39.72,6.23-14.69,14.92-27.72,24.78-40.22s20.25-24.32,29-37.52c8.88-13.44,15.41-28.17,17.6-44.22,4.64-34-8.16-68.26-26.41-96.41-16.41-25.3-38-46.93-62.45-64.46-25-17.93-53.07-31.55-82.24-41.35a377,377,0,0,0-92.08-18.24c-40-3-80.23-.57-119.94,4.74s-78.82,13.42-117.82,22.13q-14.25,3.16-28.48,6.43c-1.88.43-1.09,3.32.8,2.89Z"/><path class="cls-3" d="M1275.52,507.05c22,7.73,37.73,26.37,47.32,47,11.66,25.06,13.7,53,14.27,80.22.33,15.34.21,30.69,1.06,46,.74,13.29,2,27.77,10.39,38.74,6.89,9,18.17,14.88,29.57,11.63,9.78-2.78,16.52-11.35,21.06-20,5.67-10.79,8.57-22.7,11.88-34.36q6.48-22.83,13-45.67l3.14-11.06a1.5,1.5,0,0,0-2.9-.79L1411.45,664l-6.28,22.11a153.79,153.79,0,0,1-5.27,16c-3.66,9-8.93,18.61-17.59,23.6a21.69,21.69,0,0,1-14.12,2.69,26.75,26.75,0,0,1-14.7-8.15c-9.44-9.8-11.31-24.07-12.15-37.05-1-15-.9-30-1.15-45-.47-27.32-2-55.31-12.65-80.82-8.65-20.65-23-40-43.51-49.94a74.3,74.3,0,0,0-7.72-3.21c-1.82-.64-2.61,2.25-.79,2.89Z"/><path class="cls-3" d="M1264,539.66a479.77,479.77,0,0,0,.22,89.76q1.07,11,2.62,21.83a96.18,96.18,0,0,0,3.78,17.2c3.33,9.87,9.71,19.41,20.31,22.15,9.45,2.45,21.27-.44,24.79-10.49.64-1.82-2.26-2.61-2.89-.79-2.8,8-12.44,10.22-19.95,8.66a21.53,21.53,0,0,1-11.42-6.38,37.52,37.52,0,0,1-8-14,94.55,94.55,0,0,1-3.69-16.62c-1-6.86-1.82-13.74-2.5-20.63q-2.1-21.27-2.3-42.66a479.27,479.27,0,0,1,2-48.08c.18-1.92-2.82-1.91-3,0Z"/><path class="cls-3" d="M1445.25,602.23a418.16,418.16,0,0,0,58.93,9.94,415.27,415.27,0,0,0,60.06,1.39q16.88-.84,33.63-3a1.55,1.55,0,0,0,1.5-1.5,1.5,1.5,0,0,0-1.5-1.5A414,414,0,0,1,1478.92,606q-16.56-2.64-32.87-6.61c-1.88-.46-2.68,2.43-.8,2.89Z"/><path class="cls-3" d="M1579.44,628.52c1.18,15.4,3.13,31.43,10.87,45.1,6.67,11.81,18.24,20.71,31.87,22.53a29.75,29.75,0,0,0,20.53-4.39c1.6-1.07.1-3.67-1.52-2.6-10.41,7-23.89,4.68-34-1.7-11.91-7.51-18.14-20.63-21.29-33.94a163.26,163.26,0,0,1-3.46-25c-.15-1.92-3.15-1.93-3,0Z"/><path class="cls-3" d="M1249.27,348.68c7.94-2.76,16.19-5.55,24.68-5.6,6.77,0,13.62,1.81,18,7.23,3.2,3.93,5.17,9.42,4.46,14.51a11.07,11.07,0,0,1-11.08,9.61c-4.07,0-7.94-1.7-11.34-3.78a58.85,58.85,0,0,1-10.13-8.15c-1.39-1.34-3.52.78-2.13,2.13,5.76,5.57,12.84,11.49,21,12.62,6.72.92,13.46-2.42,15.84-8.93,2-5.58.55-12.12-2.4-17.09a22.57,22.57,0,0,0-6.21-6.84,24.32,24.32,0,0,0-10.71-3.94c-10.53-1.51-21,1.92-30.85,5.34-1.81.63-1,3.53.8,2.89Z"/><path class="cls-3" d="M1068.39,315.09c-15.17-2.39-30.77,4.87-39.55,17.32a37.2,37.2,0,0,0-5.47,11.6,1.5,1.5,0,0,0,.68,1.69,32,32,0,0,0,28.15-1.53,1.5,1.5,0,0,0-1.51-2.59,28.88,28.88,0,0,1-25.12,1.53l.69,1.69c3.75-13.63,16-23.95,29.69-26.59a34,34,0,0,1,11.64-.23c1.89.3,2.7-2.59.8-2.89Z"/><path class="cls-3" d="M1083.16,412.44a59,59,0,0,1-7.38-23.79,60.26,60.26,0,0,1,.19-12.38c.42-3.52,1.07-7.24,2.82-10.38,1.55-2.8,4.26-5,7.64-4.68,3.13.33,5.77,2.73,7.56,5.16,4.48,6.06,5.35,14.19,5,21.52a49,49,0,0,1-8.57,25.23c-1.1,1.6,1.5,3.1,2.59,1.52a51.86,51.86,0,0,0,8.81-24.51c.77-8.11,0-17.43-4.6-24.38-2-3.08-4.83-5.9-8.41-7.07a10.15,10.15,0,0,0-10,2.33c-2.73,2.52-4.13,6.28-4.92,9.82a58,58,0,0,0-1.3,13.34,62.63,62.63,0,0,0,8,29.79,1.5,1.5,0,0,0,2.59-1.52Z"/><path class="cls-3" d="M1127.36,397.1c-2.83-8.86-5.63-17.76-8-26.74-1-3.91-2-8.36-.35-12.25a10.7,10.7,0,0,1,5.59-5.43,14.69,14.69,0,0,1,15.85,2.6c5,4.68,6.72,11.89,6.29,18.52-.62,9.41-5.6,18-10.16,26a1.5,1.5,0,0,0,2.59,1.51c4.57-8,9.24-16.38,10.4-25.7.91-7.34-.76-15.35-5.67-21a17.69,17.69,0,0,0-18.1-5.46A13.84,13.84,0,0,0,1115.22,365c.58,5.49,2.54,10.87,4.1,16.14q2.48,8.38,5.14,16.73c.59,1.83,3.48,1.05,2.9-.8Z"/><path class="cls-3" d="M1108.05,468.32l4.86,20.16a1.52,1.52,0,0,0,2.21.9,14.12,14.12,0,0,0,5.43-18.2c-.86-1.73-3.45-.21-2.59,1.52a11.05,11.05,0,0,1-4.36,14.09l2.2.89-4.86-20.16c-.45-1.88-3.34-1.08-2.89.8Z"/><path class="cls-3" d="M1060.91,475.52l5.26,22.56a1.54,1.54,0,0,0,1.85,1.05,12.53,12.53,0,0,0-2.79-24.8,1.5,1.5,0,0,0,0,3,9.53,9.53,0,0,1,2,18.9l1.84,1-5.25-22.56c-.44-1.88-3.34-1.08-2.9.8Z"/><path class="cls-3" d="M1858.6,450.87a61.77,61.77,0,0,1,45,8.3,59.62,59.62,0,0,1,10.37,8.29,1.5,1.5,0,0,0,2.12-2.12,64.92,64.92,0,0,0-44.44-18.69,62.73,62.73,0,0,0-13.81,1.32c-1.89.4-1.09,3.29.79,2.9Z"/><path d="M1506.64,343.64q29.71,21.8,59.45,43.58c3.72,2.73,7.67,5.68,9.73,9.93,2.41,5,.76,10.71-1.4,15.44-4.07,8.89-10.57,16.31-17.61,23-14.31,13.53-31.65,24.91-40.62,43.08-4.23,8.58-6,18.17-4,27.6,1.93,9.12,7,17.42,13.6,23.94,15,14.86,37,19.39,57.32,20.26,19.31.83,39.21-1.88,56.77-10.28a76.77,76.77,0,0,0,22.95-16.43,67.28,67.28,0,0,0,13.67-22.1c6-15.7,6.14-34.3-2.79-48.95-4.67-7.68-11.72-13.43-17.18-20.49a28.14,28.14,0,0,1-5.67-11.22,18.87,18.87,0,0,1,1.6-12.23c4-8.08,12-13.58,19.7-17.81s16.1-8.33,22.39-14.81a29.38,29.38,0,0,0,6.7-10.64c.64-1.82-2.26-2.61-2.9-.8-3,8.36-10.41,13.81-17.76,18.14-7.79,4.6-16,8.33-22.84,14.45-6.55,5.89-11.33,13.9-10,23,1.23,8.68,7.57,15.43,13.3,21.58a93.72,93.72,0,0,1,8.61,10.05,43.62,43.62,0,0,1,5.59,11,52.52,52.52,0,0,1,1.93,24.55,64.79,64.79,0,0,1-27,43.24c-15.8,11.1-35.2,15.89-54.29,16.74a140.66,140.66,0,0,1-30.19-1.81c-10.36-1.8-20.57-5.09-29.44-10.86A50.65,50.65,0,0,1,1518,514.15a37.74,37.74,0,0,1-2-27.12c5.79-19.08,22.91-31.63,37.21-44.2,7.26-6.38,14.31-13.18,19.64-21.31s10.4-19.1,4.28-28c-2.78-4-6.87-6.92-10.78-9.79L1551.74,373l-29.33-21.5-14.26-10.45c-1.56-1.14-3.05,1.46-1.51,2.59Z"/><path d="M304.05,338.56q63.42-.13,126.86-.23t126.87-.16l63.83-.06c10.12,0,20.25-.18,30.36,0,8.39.18,17.08.83,24.88,4.16,15.88,6.79,21.23,23.8,23.11,39.64,2.36,20,1.93,40.3,1.63,60.38q-1,63.58-2,127.18l-.24,15.55a1.5,1.5,0,0,0,3,0q1-64.6,2-129.23c.32-21,.91-42.08-.48-63.07-1-15.62-2.89-33.38-14.26-45.26-12.36-12.91-31.58-12.41-48.08-12.39l-64.23,0q-64.44.06-128.86.15L320,335.52l-15.95,0a1.5,1.5,0,0,0,0,3Z"/><path d="M672.14,637.23l48.27-29.29c11.47-7,24.52-15.09,29.12-28.46a38.22,38.22,0,0,0,1.6-13c-.06-4.85-.31-9.74,1.23-14.41l-2.51.66a26.73,26.73,0,0,1,6.67,25,1.51,1.51,0,0,0,2.51,1.46A134.42,134.42,0,0,0,778.28,556l-2.74-.35a25.81,25.81,0,0,1-8.33,26.57,1.52,1.52,0,0,0,.67,2.51c3.67.91,7.44.68,11.19.77,3.42.08,7.17.5,9.7,3,4.31,4.36,3.44,12-2.15,14.77a9.65,9.65,0,0,1-9.37-.4l.53,2.05a7.83,7.83,0,0,0-1-8.42c-2.18-2.84-5.63-4-9.12-4a26.87,26.87,0,0,0-5.51.6,9.8,9.8,0,0,0-4.82,1.95c-2.34,2.11-2,5.71-.29,8.09,2.42,3.36,6.86,3.71,10.66,3.76l-1.29-2.25c-3.74,6.46-14.61,7-18.84.75a1.52,1.52,0,0,0-2.59,0A438.29,438.29,0,0,0,703.35,684q-4.71,11.6-8.74,23.43c-.62,1.83,2.28,2.62,2.9.8a435.42,435.42,0,0,1,36.72-80.11q6.35-10.77,13.29-21.18h-2.59c5.46,8.08,19.09,7.76,24-.75a1.52,1.52,0,0,0-1.3-2.26c-2.79,0-6.64,0-8.36-2.68a3.57,3.57,0,0,1-.48-3.32c.69-1.4,2.73-1.64,4.09-1.91,3.16-.62,6.92-1,9.78.8,2.09,1.32,3.73,4.24,2.51,6.64a1.55,1.55,0,0,0,.54,2.06c6.26,4,15.43,1.17,18.06-5.84a13,13,0,0,0-.85-10.46,12.67,12.67,0,0,0-9.27-6.31c-5-.85-10.09.15-15-1.06l.67,2.51a28.8,28.8,0,0,0,9.09-29.5,1.52,1.52,0,0,0-2.74-.36A131,131,0,0,1,756.9,577l2.51,1.46a29.83,29.83,0,0,0-7.43-27.9,1.52,1.52,0,0,0-2.51.66c-2.64,8-.21,16.43-2,24.51-1.45,6.55-5.46,12-10.28,16.58-5,4.7-10.81,8.46-16.65,12-7.72,4.72-15.47,9.39-23.21,14.09l-26.69,16.2a1.5,1.5,0,0,0,1.51,2.59Z"/><path d="M283.18,339.21c-7.27-1.95-14.69.28-20.54,4.8-6.47,5-10.23,12.48-12.33,20.25-2.4,8.92-3.08,18.36-3.69,27.54-.69,10.47-.85,21-.8,31.48.1,20.72,1,41.43.56,62.15-.44,19.72-1.93,39.41-4,59-4.17,39.5-10.72,78.69-16.13,118-5.3,38.6-9.61,77.47-9.23,116.49a411.72,411.72,0,0,0,4.39,57.42c1.38,9.16,2.75,18.61,5.42,27.5,2.29,7.66,6.77,13.38,14.18,16.59,8.22,3.54,17.58,4.89,26.28,6.73q14.69,3.1,29.48,5.67c19.64,3.42,39.4,6.14,59.22,8.29,40.18,4.35,80.6,6.28,121,6.71,40.59.44,81.18-.64,121.74-2.33,20.09-.84,40.18-1.83,60.27-2.86,9.65-.5,19.53-.44,29.11-1.72,7.44-1,13.62-4.49,17.07-11.31s4-14.62,4.67-22.08q1.35-15.48,2.17-31,1.66-31.3,1.17-62.68-.25-15.25-1-30.5c-.09-1.93-3.09-1.94-3,0a914.65,914.65,0,0,1-2.06,120.86c-.66,7.93-.88,16.63-4.54,23.88-4.25,8.41-12.38,9.9-21,10.37q-29.29,1.57-58.59,3c-39.13,1.84-78.28,3.27-117.45,3.48s-78.08-.77-117-3.77a934,934,0,0,1-116.23-16c-8.95-1.84-18.21-3.4-26.9-6.26a24.91,24.91,0,0,1-10.57-6.15c-3-3.15-4.49-7.3-5.58-11.41-4.82-18.19-6.93-37.43-8.22-56.16-2.58-37.6,0-75.34,4.38-112.7,4.44-38,10.75-75.7,15.81-113.59,5.09-38,8.69-76.24,8.28-114.67-.22-20.29-1.09-40.58-.42-60.87a253,253,0,0,1,2.35-29.49c1.29-8.6,3.62-17.77,9.64-24.35,5.36-5.86,13.4-9.57,21.33-7.44a1.5,1.5,0,0,0,.8-2.89Z"/><path d="M565.3,896.4a61.4,61.4,0,0,1-2.72,21c-.58,1.84,2.32,2.63,2.89.79a63.73,63.73,0,0,0,2.83-21.82c-.09-1.92-3.09-1.93-3,0Z"/><path d="M550.18,901.71l-1.64,15.93a1.51,1.51,0,0,0,1.5,1.5,1.54,1.54,0,0,0,1.5-1.5l1.64-15.93a1.51,1.51,0,0,0-1.5-1.5,1.53,1.53,0,0,0-1.5,1.5Z"/><path d="M539,899.84l-6.24,22.72a1.51,1.51,0,0,0,2.9.8l6.23-22.72a1.5,1.5,0,0,0-2.89-.8Z"/><path d="M379.63,893.24a49.48,49.48,0,0,0-3.85,20.42c.05,1.93,3.05,1.94,3,0A47.59,47.59,0,0,1,382.52,894a1.51,1.51,0,0,0-1-1.84,1.52,1.52,0,0,0-1.84,1Z"/><path d="M358.17,891.93,355,912a1.55,1.55,0,0,0,1.05,1.84,1.49,1.49,0,0,0,1.84-1l3.17-20.09a1.55,1.55,0,0,0-1.05-1.84,1.52,1.52,0,0,0-1.85,1Z"/><path d="M368.88,893.22l-5.53,17.23c-.59,1.84,2.31,2.63,2.9.79L371.78,894c.59-1.84-2.31-2.63-2.9-.8Z"/><path d="M772.57,609.44a3.79,3.79,0,0,0,.06-2.16,2.2,2.2,0,0,0,0-.36l-.26.16c-.3.07-.35.14-.17.21,0,.12.53.85.61,1.05a4.57,4.57,0,0,0,3.62,3.06c1.79.28,3.64,0,5.44.18a22,22,0,0,1,6,1.3,14.55,14.55,0,0,1,7.77,6.48c1.51,2.79,1.81,6.09,2.21,9.18s.85,6.37,2.46,9.16a12.9,12.9,0,0,0,7.41,5.65c3.29,1.09,6.8,1.25,10.2,1.79A58.5,58.5,0,0,1,830,648.39c.89.34,1.77.71,2.64,1.1.21.1.53.36.75.36.52,0-.46-.46-.27-.5a6.71,6.71,0,0,0-.5,1.22,22.8,22.8,0,0,1-2.62,4.37,30.16,30.16,0,0,1-7.62,6.89c-6.68,4.34-14.47,6.42-22,8.74-8,2.47-16,5.48-24.44,6.09l-1.4.08c-.41,0-1.3-.16-1.65,0h-.23l.4.56s0-.61,0-.66c0-.58,0-1.16,0-1.75a22.2,22.2,0,0,1,1.11-5.82c1.22-3.7,4-6.77,4.59-10.67a30.91,30.91,0,0,0,.19-5.93A16.6,16.6,0,0,0,778,647c-1.35-3.36-4.55-5-7-7.42a18,18,0,0,1-.68-24.32c1.26-1.46-.85-3.59-2.12-2.13a21.19,21.19,0,0,0-3.77,21.7,22.22,22.22,0,0,0,6.94,9c1.44,1.16,3,2.34,3.77,4.11a16.35,16.35,0,0,1,.78,6,14.89,14.89,0,0,1-.92,6.42c-.86,2-2.09,3.71-2.94,5.67a24.55,24.55,0,0,0-1.77,6c-.29,1.84-.72,4.32-.12,6.12.7,2.08,3.57,1.54,5.24,1.44a55.28,55.28,0,0,0,6.67-.85,112.39,112.39,0,0,0,13.21-3.54c14.64-4.61,33.94-8.45,40.39-24.45a3.09,3.09,0,0,0,.21-2.6,4.08,4.08,0,0,0-2.22-1.54,63,63,0,0,0-6.21-2.37,70,70,0,0,0-12.57-2.61c-3.4-.43-7.29-.89-10-3.16s-3.45-5.71-3.92-9c-.51-3.51-.73-7.11-2.13-10.41a16.57,16.57,0,0,0-7.26-7.85,24.9,24.9,0,0,0-12.28-2.83,10,10,0,0,1-2.67-.09c-1-.29-1.08-1.29-1.52-2.11-.74-1.42-2.44-2.54-4-1.81a2.51,2.51,0,0,0-1.4,1.79c-.17.79.2,1.61,0,2.37a1.5,1.5,0,0,0,2.89.8Z"/><path d="M307.39,486.08l59.74-29.24,59.75-29.24,33.68-16.48a1.5,1.5,0,0,0,.53-2.05c-4.27-6.45-9.32-13.88-8.75-22,.43-6,4.76-12.71,11.31-12.8l-1.3-.74L493.88,437l31.38,63.2,15.6,31.41,7.94,16c2.51,5.07,5.21,10.09,7.5,15.26,2,4.52,3.88,10.1,1.79,14.93-1.93,4.46-6.83,7.53-10.49,10.48q-11.88,9.57-24.4,18.3a461.56,461.56,0,0,1-52.41,31.64,457.21,457.21,0,0,1-56,24.35q-14.29,5.12-28.92,9.26c-5,1.41-10.72,3.72-15.94,2.57-4.55-1-7.9-4.65-10.51-8.3-6.32-8.85-10.86-18.88-15.43-28.69q-7.43-15.9-14.83-31.8l-29.91-64.14L284.4,509.67c-3.5-7.51-7.34-15.95-6.39-24.46a13.65,13.65,0,0,1,4.93-9.3l-2.35-.3a30.27,30.27,0,0,0,16,14.87c1.79.72,2.57-2.18.8-2.9a27.23,27.23,0,0,1-14.24-13.49,1.53,1.53,0,0,0-2.36-.3c-6.54,5.35-6.69,14.19-4.92,21.81a64.17,64.17,0,0,0,4.29,12.09c2.45,5.39,5,10.74,7.5,16.1l30.68,65.78,15.34,32.89c4.93,10.59,9.64,21.34,15.05,31.69a107.28,107.28,0,0,0,8.46,14c2.69,3.65,5.94,7.07,10.31,8.65,5.1,1.84,10.58.25,15.59-1.13s10.07-2.87,15.07-4.43a462.77,462.77,0,0,0,113.27-53.19q13.19-8.55,25.76-18,6.22-4.67,12.3-9.54c3.76-3,8.32-6,10.71-10.36,2.5-4.5,2-9.79.39-14.5-1.78-5.31-4.6-10.28-7.08-15.28l-16.14-32.5-32.31-65.06-32.33-65.11L464.94,372a1.46,1.46,0,0,0-1.29-.74c-7.64.1-13,7.09-14.12,14.18-1.39,9.24,4.11,17.79,9,25.13l.54-2.05L399.3,437.77,339.55,467l-33.67,16.48c-1.74.85-.22,3.43,1.51,2.59Z"/><path d="M363.27,526.34c-.21.17,0,0,0,0l-.18.13-.39.22-.2.1c.05,0,.3-.11.05,0s-.27.09-.42.12-.28.06-.43.09c.4-.09,0,0-.15,0a8.81,8.81,0,0,1-.89,0c.39,0-.05,0-.16,0l-.45-.11-.44-.13-.22-.08c-.27-.1.14.08,0,0s-.53-.26-.78-.41-.27-.17-.4-.26l-.19-.13c-.23-.17.1.1,0,0s-.44-.39-.64-.61-.21-.23-.31-.35,0,0,0,0a2.07,2.07,0,0,1-.17-.24c-.16-.24-.29-.49-.43-.75s0,0,0,.05l-.09-.22-.15-.49a1.89,1.89,0,0,0-.05-.23s-.06-.29,0-.08,0,0,0-.09,0-.15,0-.23a2.94,2.94,0,0,1,0-.42,2,2,0,0,1,0-.23c0-.36-.08.31,0,0s.15-.52.22-.78-.14.23,0,.06a.61.61,0,0,0,.07-.14c.08-.16.17-.31.26-.46l.13-.18.18-.21.3-.3c.09-.08.47-.36.15-.14a7.65,7.65,0,0,1,.67-.43l.38-.2c.05,0,.26-.12.07,0s.1,0,.12,0a5.69,5.69,0,0,1,.83-.25l.37-.08h.19a6.19,6.19,0,0,1,.86,0c.13,0,.25,0,.38,0s-.28-.06-.08,0l.26,0a7.71,7.71,0,0,1,.82.24c.09,0,.23.13-.06,0l.19.1a2.82,2.82,0,0,1,.38.21c.12.07.24.16.36.24-.32-.22.05.06.12.12s.21.21.31.32l.15.17c-.09-.1-.11-.15,0,0a6.8,6.8,0,0,1,.47.83c-.14-.3,0,.09,0,.19a3.18,3.18,0,0,1,.13.51c0,.13,0,.42,0,.11,0,.16,0,.31,0,.47s0,.31,0,.46,0,.16,0,.24c0,.29,0-.18,0,0-.07.35-.14.69-.24,1-.06.17-.12.33-.19.5.13-.33-.07.13-.12.22a10.3,10.3,0,0,1-.55.9c-.11.18.17-.18,0,0s-.12.15-.19.22a4.17,4.17,0,0,1-.36.37c-.12.11-.25.23-.38.33.27-.22-.11.07-.2.13a3.75,3.75,0,0,1-.44.24l-.2.1c.17-.08.18-.07,0,0l-.48.14-.21,0c-.28.06.19,0,0,0s-.34,0-.51,0h-.23c-.33,0,.28.05-.07,0a1.54,1.54,0,0,0-1.85,1.05,1.51,1.51,0,0,0,1.05,1.84,6.2,6.2,0,0,0,4.86-1.1,8.39,8.39,0,0,0,2.93-4.14,7.3,7.3,0,0,0-.08-4.86,6.6,6.6,0,0,0-3.69-3.71,7.9,7.9,0,0,0-8.47,1.92,6.33,6.33,0,0,0-1.71,4.49,7.25,7.25,0,0,0,2,4.64,8.74,8.74,0,0,0,4.68,2.64,6.6,6.6,0,0,0,5.55-1.34,1.5,1.5,0,0,0,0-2.12,1.53,1.53,0,0,0-2.12,0Z"/><path d="M434.79,485.72c-.15.28-.16.33-.56.39a2.16,2.16,0,0,1-1-.18,1.92,1.92,0,0,1-.94-2.11c.27-2.51,2.6-4.72,4.7-5.86a6.59,6.59,0,0,1,6.86,0c1.66,1.09,3,3.34,2.09,5.31-.86,1.82-3.25,3-5,1.86s-3.13,1.55-1.51,2.59c2.94,1.88,6.78.43,8.66-2.25,2.11-3,1-7-1.68-9.3a9.52,9.52,0,0,0-10.73-.94c-3.26,1.67-6.69,5.41-6.41,9.33a4.74,4.74,0,0,0,3.32,4.31,4,4,0,0,0,4.74-1.65c.92-1.7-1.67-3.21-2.59-1.52Z"/><path d="M340.16,562q24-9.85,47.52-21.06T434,517.16q22.89-12.63,45-26.58c3.16-2,7-4.77,10.27-1.42a24,24,0,0,1,3.12,4.6q1.64,2.76,3.22,5.56,6.34,11.19,11.83,22.84t10,23.52q2.3,6,4.35,12.11c1.36,4,3,8.2,3.71,12.43,1.23,7.46-4.58,12.33-10.41,15.7-3.58,2.06-7.32,3.84-11,5.71L491.64,598l-49.58,25.36-24.9,12.73-12.23,6.26a95.44,95.44,0,0,1-12.11,5.7c-3.9,1.33-8.05,1.86-12,.33a22.6,22.6,0,0,1-8.37-6.43,92,92,0,0,1-6.76-9.07q-3.43-5.05-6.56-10.32a193.55,193.55,0,0,1-19.39-44.8c-1.1-3.77-2.07-7.58-2.94-11.42-.42-1.88-3.31-1.08-2.89.8a197.2,197.2,0,0,0,17.13,47A194.39,194.39,0,0,0,364,635.65c4.18,6,8.77,12.76,15.88,15.56,8.5,3.35,17.13-1.45,24.57-5.25L430,632.88l51.14-26.15,25.57-13.07c6.5-3.33,14.11-6.38,18.74-12.31a14.35,14.35,0,0,0,3.19-9.68c-.26-4.42-2-8.77-3.4-12.94Q521.1,546.19,516,534t-11.11-23.88q-3-5.92-6.32-11.72c-2-3.53-3.87-7.36-6.41-10.52A8.12,8.12,0,0,0,482,485.42a43.46,43.46,0,0,0-5.67,3.31c-1.85,1.16-3.7,2.32-5.55,3.46q-11.52,7.13-23.25,13.89-23.25,13.43-47.28,25.44t-48.73,22.56q-6,2.58-12.13,5.07c-1.76.72-1,3.62.8,2.89Z"/><path d="M388.06,548l47.17-20.8c.53-.24,1.06-.48,1.59-.7.06,0,.9-.41.77-.45.3.08.73,1.91.83,2.23a14.39,14.39,0,0,1,.9,4.89c-.12,3.94-3.94,5.26-7,6.76L409.1,551.4l-6.49,3.21a44.53,44.53,0,0,1-6.22,2.81c-1.82.56-3.9.83-5.57-.29-1.14-.78-2.31-2.36-1.66-3.79.79-1.75-1.79-3.28-2.59-1.52-1.55,3.4.54,7,3.81,8.46,4.1,1.78,8.53-.5,12.18-2.31l27.06-13.4c2.21-1.09,4.42-2.17,6.62-3.27a12.23,12.23,0,0,0,4.61-3.5c2.36-3.26,1.46-7.6.21-11.11-.6-1.69-1.23-3.63-3.38-3.58a7.65,7.65,0,0,0-2.83.95l-3.42,1.5-13.9,6.13-31,13.67c-1.77.78-.24,3.37,1.51,2.59Z"/><path d="M383.16,590.27a42.48,42.48,0,0,0,45.6.61l-2.21-1.69c-3.51,8.35-7.75,18.15-16.82,21.74-7.85,3.09-16.23-1-21.07-7.35a21.75,21.75,0,0,1-3.33-6.11c-.67-2-1.14-4.64.41-6.38,1.28-1.44-.83-3.56-2.12-2.12-3.41,3.83-1.59,9.37.63,13.33a26.21,26.21,0,0,0,10,10.08,19.72,19.72,0,0,0,13.44,2.27c4.93-1,9.28-4.14,12.52-7.91,4.2-4.89,6.72-10.87,9.2-16.76.52-1.23-1.18-2.34-2.21-1.69a39.49,39.49,0,0,1-42.57-.61c-1.6-1.08-3.11,1.51-1.51,2.59Z"/><path d="M357.82,523.89a5.27,5.27,0,0,1-.56.19l-.19,0-.09,0c-.17,0-.13,0,.11,0-.16,0-.33,0-.49,0h-.09c-.17,0-.13,0,.11,0a1.36,1.36,0,0,0-.29-.06,1.12,1.12,0,0,1-.26-.08s.35.17.15.05L356,524s-.26-.19,0,0,0,0,0,0-.14-.12-.16-.18.21.33.09.12a2.49,2.49,0,0,0-.15-.28c.18.23.1.28.06.15a.86.86,0,0,0-.06-.23c.12.25,0,.32,0,.12a.92.92,0,0,0,0-.23l0,.22a.8.8,0,0,1,0-.18l.06-.18c.09-.31-.17.29,0,0,.06-.09.11-.19.16-.28l.12-.18c.15-.23-.25.29-.06.08a3.07,3.07,0,0,1,.25-.26l.27-.24c-.32.3-.18.14-.08.07a.76.76,0,0,1,.19-.12c.1-.07.21-.12.31-.18s.34-.1-.09,0l.17-.07.37-.11.14,0c.38-.07-.31,0-.06,0l.35,0h.2c.13,0,.2.08-.2,0,.12,0,.24,0,.36.08l.16.06c-.43-.13-.22-.1-.08,0l.14.08c.15.1.14.2-.08-.07a1.6,1.6,0,0,0,.26.26c-.23-.17-.18-.24-.08-.1l.09.16a1.86,1.86,0,0,1,.1.2c-.2-.34-.09-.22-.05-.08s.05.24.09.36c-.12-.41,0-.25,0-.1a.81.81,0,0,1,0,.22s0,.1,0,.15c0-.45,0-.25,0-.11a1.21,1.21,0,0,1-.05.18l0,.11c-.06.14,0,.09.07-.15a3,3,0,0,0-.23.38c.18-.33.15-.19,0-.08s-.12.1-.16.15c.21-.26.21-.15.06-.06a1.18,1.18,0,0,1-.19.11c-.13.07-.31.08.09,0l-.21.07-.22,0c-.27.07.38,0,.1,0h-.44c.37,0,.28,0,.1,0l-.21,0c-.17-.06-.19-.16.08,0a3,3,0,0,0-.26-.15,1.5,1.5,0,0,0-1.51,2.59,4,4,0,0,0,2.86.49,3.9,3.9,0,0,0,2.42-1.55,4,4,0,0,0-.52-5.12,4.48,4.48,0,0,0-5-.49,4.59,4.59,0,0,0-2.7,4.77,3.65,3.65,0,0,0,2,2.46,4.84,4.84,0,0,0,3.77,0,1.56,1.56,0,0,0,.89-.69,1.54,1.54,0,0,0,.16-1.15,1.52,1.52,0,0,0-1.85-1.05Z"/><path d="M435.61,486.18a5,5,0,0,0-2.27-.23c-.34,0-.68,0-1,0-.19,0,.32.07.13,0l-.19-.05-.18-.06c-.17-.05.29.16.06,0l-.16-.1c-.23-.12.09,0,.08.08s-.13-.15-.15-.16.19.25.08.1-.15-.22,0,0,0-.15,0,.14,0-.18,0,.16c0,.14,0,.15,0,0l-.07.17c.11-.23,0,.06-.06.06s.12-.12.14-.14l.19-.17.07-.05.08-.06.2-.15.45-.31a8.85,8.85,0,0,1,.89-.51l.22-.1c.2-.1-.23.07,0,0s.33-.12.51-.16l.28-.07c.06,0,.29,0,.08,0h.55c.21,0-.26-.07-.06,0l.22.05c.3.09,0-.05,0,0s.19.1.22.11.23.08.05,0,0,0,0,0l0,0c.09.1.09.1,0,0l-.05-.08.07.12c.12.14-.07-.29,0-.1s.06.26,0,0,0-.15,0,0c0-.23.05-.29,0-.17-.09.33.17-.23,0,.06s.2-.2-.06.05a.86.86,0,0,1-.14.13c-.13.14.24-.16.08-.05l-.43.27c-.69.39-1.44.7-2.16,1l-1.18.56c-.05,0-.22.13-.25.12l.13-.05c-.12,0-.05,0,.21,0h-.16l.26,0c.59.2.86.71.81,1.52a1.5,1.5,0,1,0-2.89-.8c-.46,1.6,1.25,2.55,2.6,2.14a12.8,12.8,0,0,0,1.55-.72l1.49-.71a6.93,6.93,0,0,0,2.3-1.46,2.88,2.88,0,0,0,.47-3.36,3.68,3.68,0,0,0-2.55-1.72,5.86,5.86,0,0,0-3.42.53,11.82,11.82,0,0,0-2.45,1.59,2.67,2.67,0,0,0-1.07,2.93,3.33,3.33,0,0,0,2.63,2.11,7.65,7.65,0,0,0,1.79,0h.72c.36,0-.28-.1.07,0l.44.15a1.5,1.5,0,1,0,.8-2.89Z"/><path class="cls-3" d="M1133.33,376.91l-.81-.58-.23-.17s.19.16,0,0l-.44-.36a9.28,9.28,0,0,1-.71-.69c0-.05-.36-.45-.21-.24a4.63,4.63,0,0,1-.31-.46c-.08-.13-.14-.27-.22-.41s.06.22,0,0l-.06-.19a4.1,4.1,0,0,1-.14-.5s0-.24,0-.06,0-.15,0-.19,0-.3,0-.45-.07.23,0,0a1.16,1.16,0,0,0,0-.18,2.25,2.25,0,0,1,.08-.24c0-.1.13-.2,0,0,0-.06.06-.12.09-.17s.17-.23,0-.07c.1-.12.22-.22.32-.33s-.18.1,0,0l.16-.11c.06,0,.52-.26.24-.14a2.78,2.78,0,0,1,.51-.17l.45-.1c.23-.05-.24,0,0,0l.19,0h.5l.19,0c.18,0-.24-.06,0,0a6.28,6.28,0,0,1,.85.23c.27.09.05,0,0,0l.23.11.43.25s.21.18,0,0l.14.12c.11.1.21.2.31.31s0,0,0,0l.13.2c.08.13.15.26.22.4-.14-.3,0,.06,0,.18s0,.15,0,.23c.07.27,0-.19,0,0s0,.31,0,.46v.09c0-.22,0,.1,0,.13s-.09.29-.13.44c0-.05.15-.29,0-.05l-.1.19c0,.07-.09.13-.12.19.09-.15.12-.13,0,0a4,4,0,0,1-.38.34,1.5,1.5,0,0,0,0,2.12,1.54,1.54,0,0,0,2.12,0,4.8,4.8,0,0,0,1.47-4.87,5.47,5.47,0,0,0-3.82-3.78,6.21,6.21,0,0,0-5.35.78,4.8,4.8,0,0,0-1.58,5.57c.77,2.15,2.55,3.52,4.36,4.8a1.51,1.51,0,0,0,2-.54,1.54,1.54,0,0,0-.54-2.06Z"/><path class="cls-3" d="M1091.09,384.67l.09,0-.18-.08-.36-.17c-.27-.13-.54-.27-.8-.42l-.34-.21-.16-.12c-.19-.13.06.07.07.06s-.52-.48-.59-.55c-.24-.26.14.24,0-.06a3.3,3.3,0,0,0-.18-.32c-.1-.16.11.36,0,.07a1.21,1.21,0,0,1-.05-.18s0-.17,0-.18,0,.37,0,.07c0-.07,0-.14,0-.21s-.07.28,0,.09.07-.27.11-.4-.14.24,0,.07l.09-.19.12-.18c.17-.26,0,0,0,0s.27-.28.3-.31l.16-.15c.22-.2,0,0,0,0a4.18,4.18,0,0,0,.36-.23l.19-.1c.35-.18-.27.09.09,0a7.9,7.9,0,0,1,1-.27c.16,0,.32-.06.49-.09s.27-.07,0,0a1.55,1.55,0,0,1,.31,0l1-.07.46,0c.22,0-.26-.05-.06,0s-.19-.09-.25-.15c-.32-.32.09,0,0,.12s-.11-.27,0-.07,0,.12.07.19c.11.29.22.58.31.88s.17.64.23,1c0,.08,0,.27,0,.06s0,0,0,.1a4.18,4.18,0,0,1,0,.5c0,.06,0,.13,0,.19,0,.27.07-.24,0-.07a4.1,4.1,0,0,0-.11.4c0-.06.15-.29,0-.1s-.09.16-.14.24,0-.11.07-.08l-.2.21a1.51,1.51,0,0,0,0,2.13,1.54,1.54,0,0,0,2.12,0,4.91,4.91,0,0,0,1-4.88,9.55,9.55,0,0,0-.82-2.26,2.5,2.5,0,0,0-1.38-1.2,3.69,3.69,0,0,0-1.55-.13,8.46,8.46,0,0,0-5.31,1.73,4.25,4.25,0,0,0-1,5.1c.82,1.64,2.66,2.5,4.27,3.17a1.5,1.5,0,0,0,1.84-1.05,1.55,1.55,0,0,0-1.05-1.85Z"/><path class="cls-3" d="M1116,526.48c4.17-2.76,9.2-3.36,13.84-5a33.8,33.8,0,0,0,11.68-7c7.34-6.6,11.79-15.69,14.51-25a159.74,159.74,0,0,0,3.88-18.36h-2.89a199,199,0,0,1,6.21,24.86c1.25,7.09,1.87,15-1.1,21.72-2.79,6.37-8.74,11-15,13.8a38.67,38.67,0,0,1-18.76,3,36,36,0,0,1-19.82-7.84c-1.48-1.22-3.62.89-2.12,2.12,10.76,8.87,26.13,11.18,39.21,6.51,6.8-2.43,13.3-6.79,17.31-12.89,4.35-6.61,4.76-14.88,3.84-22.51-1.2-10-3.9-20-6.91-29.58-.4-1.3-2.63-1.55-2.89,0-1.73,10.33-3.63,20.94-8.59,30.29-4.09,7.7-10.44,14.73-18.8,17.77-5.06,1.84-10.58,2.43-15.15,5.46-1.6,1.06-.1,3.66,1.52,2.59Z"/><path d="M121.12,276c-.82-4.58-6.23-6.69-10.32-5.25-4.66,1.64-7.84,6.49-8.77,11.19s.19,9.94,4.21,12.92c3.28,2.42,8.18,3.09,11.68.75,4.25-2.84,4.63-8.35,4.82-13l.78-19.34c.5-12.42,1.41-25-.17-37.36-.21-1.71-.47-3.42-.79-5.12-.17-.93-1.11-3.12-.15-3.74a7.32,7.32,0,0,1,2.28-.49l2.42-.43,5.34-.94,21.36-3.76c1.9-.34,1.1-3.23-.79-2.9l-17.24,3-8.49,1.5-4.13.72a6,6,0,0,0-3,1.22c-1.89,1.72-.84,4.46-.44,6.58a84.27,84.27,0,0,1,1.11,8.36,156.35,156.35,0,0,1,.36,16.77c-.29,11.63-.89,23.27-1.36,34.9-.16,3.9,0,9.69-4,11.79-3.21,1.65-7.64.09-9.53-2.85-2.76-4.28-1.53-10.29,1.59-14,1.48-1.79,3.67-3.42,6.11-3.25a4.49,4.49,0,0,1,4.3,3.53c.34,1.89,3.24,1.09,2.9-.8Z"/><path d="M1310.88,247c-3.38,3.41-7,7.1-8.18,11.9-1.07,4.26-.17,9.06,3.5,11.79a12,12,0,0,0,11.09,1.21c4.07-1.56,6.87-5.08,8.45-9.05,1.89-4.75,1.85-9.95,1.35-15-.57-5.75-1.31-11.42-1.38-17.2s.23-11.44.62-17.14c.1-1.47.21-2.93.32-4.4a11.07,11.07,0,0,1,.5-3.58c.42-1,1.38-1.08,2.31-1.21,1.56-.23,3.13-.39,4.7-.58l39.33-4.83-1.5-1.5q2,21.78,3.69,43.59c.28,3.64.55,7.27.81,10.91a21.94,21.94,0,0,1-.31,7.32c-.52,1.92-1.67,3.86-3.92,3.72-2.74-.16-5.73-2.51-7.54-4.43a9.82,9.82,0,0,1-2.93-8,7,7,0,0,1,4.57-5.9c1.84-.56,1.06-3.45-.8-2.89-5.75,1.74-8.15,8.67-6.06,14a16.51,16.51,0,0,0,6,7.32c2.6,1.86,6.13,3.69,9.34,2.4,5.48-2.21,4.94-9.85,4.6-14.59q-.9-12.52-1.93-25-1.17-14.25-2.5-28.48c-.06-.73-.63-1.61-1.5-1.5l-33.15,4.07-8.41,1c-2.17.27-4.92.19-6.57,1.87s-1.54,3.95-1.69,6c-.2,2.69-.4,5.38-.56,8.08-.33,5.54-.53,11.09-.33,16.64s1.08,10.78,1.48,16.19c.34,4.6.14,9.42-2,13.59-1.82,3.48-5,6.16-9,6.31-4.57.17-8-2.91-7.91-7.57.1-5.37,4.21-9.45,7.74-13a1.5,1.5,0,0,0-2.12-2.12Z"/><ellipse class="cls-4" cx="504.66" cy="714.11" rx="399.03" ry="225.82" transform="translate(-257.74 285.88) rotate(-25.43)"/></svg>