<svg id="Layer_1" data-name="Layer 1" xmlns="http://www.w3.org/2000/svg" viewBox="0 0 1920 1080"><defs><style>.cls-1{fill:#ffff1a;}.cls-1,.cls-2{opacity:0.5;}.cls-2{fill:#c335e5;}.cls-3{fill:#4d4d4d;}</style></defs><path class="cls-1" d="M1556.71,327.65c75.35,42.23,340.67,221.67,274.93,388.48s-96.72,286.44-243.73,300.76-286.5,6.53-373.07-131.61-123.1-214.76-100.32-295.19,93.54-311.25,200.17-300.53S1556.71,327.65,1556.71,327.65Z"/><path class="cls-2" d="M415.58,341.18c12.19-8.13,45.11-48.07,65.59-58.73s93.18-124.1,149-43.34S989.81,758.19,974.4,767.46,770.69,882.27,720.3,810.88,546.72,563.68,493.38,478.27,410.6,344.5,415.58,341.18Z"/><path d="M332,151.23a2.72,2.72,0,0,1-1.2-1,2.56,2.56,0,0,1,.21-3.24,2.3,2.3,0,0,1,1.77-.75,2.78,2.78,0,0,1,1.14.24A28.71,28.71,0,0,0,345.78,149q10.5,0,10.5-6.9a3.85,3.85,0,0,0-1.35-3,9.8,9.8,0,0,0-3.33-1.89q-2-.69-5.64-1.65a72.21,72.21,0,0,1-7.86-2.43,13.7,13.7,0,0,1-5.16-3.51,8.84,8.84,0,0,1-2.16-6.24,11.21,11.21,0,0,1,1.8-6.21,12.38,12.38,0,0,1,5.31-4.44,19.68,19.68,0,0,1,8.43-1.65,34.14,34.14,0,0,1,11.94,2,2.34,2.34,0,0,1,1.68,2.4,2.63,2.63,0,0,1-.66,1.74,2.17,2.17,0,0,1-1.74.78,2.77,2.77,0,0,1-1-.24,29.33,29.33,0,0,0-9.66-1.62,14.71,14.71,0,0,0-7.71,1.8,5.61,5.61,0,0,0-3,5,4.64,4.64,0,0,0,1.41,3.51,9.69,9.69,0,0,0,3.54,2.1,55.78,55.78,0,0,0,5.79,1.59,60.29,60.29,0,0,1,7.65,2.28,12.52,12.52,0,0,1,5,3.54,9.58,9.58,0,0,1,2.07,6.48,10.08,10.08,0,0,1-1.92,6,12.6,12.6,0,0,1-5.4,4.17,20.16,20.16,0,0,1-8,1.5A35.59,35.59,0,0,1,332,151.23Z"/><path d="M374.4,152.13a13.46,13.46,0,0,1-5.37-5.61,19.21,19.21,0,0,1,0-16.62,13.46,13.46,0,0,1,5.37-5.61,17.44,17.44,0,0,1,16.14,0,13.65,13.65,0,0,1,5.4,5.61,18.94,18.94,0,0,1,0,16.62,13.65,13.65,0,0,1-5.4,5.61,17.44,17.44,0,0,1-16.14,0ZM387.21,148a9.16,9.16,0,0,0,3.72-3.6,12,12,0,0,0,1.47-6.24,11.88,11.88,0,0,0-1.47-6.18,9,9,0,0,0-3.72-3.57,10.52,10.52,0,0,0-4.71-1.11,10.64,10.64,0,0,0-4.77,1.11A8.78,8.78,0,0,0,374,132a12.08,12.08,0,0,0-1.44,6.18,12.21,12.21,0,0,0,1.44,6.24,9,9,0,0,0,3.69,3.6,10.41,10.41,0,0,0,4.77,1.14A10.29,10.29,0,0,0,387.21,148Z"/><path d="M421.86,153a2.57,2.57,0,0,1-.78-1.92V125.37a2.67,2.67,0,0,1,.78-2,2.56,2.56,0,0,1,1.92-.81,2.77,2.77,0,0,1,2.76,2.76v2.46a14.67,14.67,0,0,1,4-4,11,11,0,0,1,6.15-1.56,9.37,9.37,0,0,1,5.76,1.8,10.19,10.19,0,0,1,3.42,4.38,12.06,12.06,0,0,1,11-6.18,9.11,9.11,0,0,1,5.61,1.68,10,10,0,0,1,3.33,4.32,14.44,14.44,0,0,1,1.08,5.52v17.28a2.56,2.56,0,0,1-.81,1.92,2.75,2.75,0,0,1-2,.78,2.65,2.65,0,0,1-2.69-2.7v-16.2c0-2.6-.47-4.51-1.39-5.73s-2.5-1.83-4.73-1.83a7.92,7.92,0,0,0-5.07,1.59,15,15,0,0,0-3.57,4.17v18A2.56,2.56,0,0,1,446,153a2.73,2.73,0,0,1-1.95.78,2.68,2.68,0,0,1-2.71-2.7v-16.2q0-3.9-1.37-5.73c-.93-1.22-2.5-1.83-4.74-1.83a7.9,7.9,0,0,0-5.07,1.59,15.21,15.21,0,0,0-3.57,4.17v18a2.56,2.56,0,0,1-.81,1.92,2.71,2.71,0,0,1-2,.78A2.61,2.61,0,0,1,421.86,153Z"/><path d="M480.63,152.55a10.14,10.14,0,0,1-3.72-4.26,13.46,13.46,0,0,1-1.29-5.94v-17a2.56,2.56,0,0,1,.81-1.92,2.71,2.71,0,0,1,1.95-.78,2.66,2.66,0,0,1,2.7,2.7v16.44q0,7.32,6.6,7.32a9.57,9.57,0,0,0,5.37-1.56,19.64,19.64,0,0,0,4.47-4.2v-18a2.56,2.56,0,0,1,.81-1.92,2.71,2.71,0,0,1,1.95-.78,2.61,2.61,0,0,1,1.92.78,2.65,2.65,0,0,1,.78,1.92v25.74a2.75,2.75,0,0,1-.78,1.95,2.56,2.56,0,0,1-1.92.81,2.77,2.77,0,0,1-2.76-2.76v-2.46a19.94,19.94,0,0,1-4.92,4,12.45,12.45,0,0,1-6.24,1.5A10.37,10.37,0,0,1,480.63,152.55Z"/><path d="M518.63,152.19a14.82,14.82,0,0,1-5.84-5.52,17.44,17.44,0,0,1,0-16.92,14.82,14.82,0,0,1,5.84-5.52,17,17,0,0,1,8-1.92,16.71,16.71,0,0,1,5.49.81,21,21,0,0,1,4.29,2.07,2.39,2.39,0,0,1,.51,3.75,2.11,2.11,0,0,1-1.59.75,2.74,2.74,0,0,1-1.32-.36,23.31,23.31,0,0,0-3.39-1.47,11.7,11.7,0,0,0-3.51-.45c-3.45,0-6.14,1-8.1,3A11.87,11.87,0,0,0,519,146c2,2,4.65,3,8.1,3a11.7,11.7,0,0,0,3.51-.45,23.31,23.31,0,0,0,3.39-1.47,2.74,2.74,0,0,1,1.32-.36,2.11,2.11,0,0,1,1.59.75,2.39,2.39,0,0,1-.51,3.75,21,21,0,0,1-4.29,2.07,16.71,16.71,0,0,1-5.49.81A17,17,0,0,1,518.63,152.19Z"/><path d="M545.21,153a2.6,2.6,0,0,1-.77-1.92V112.17a2.7,2.7,0,0,1,.77-2,2.58,2.58,0,0,1,1.92-.81,2.77,2.77,0,0,1,2.76,2.76v15.66a19.94,19.94,0,0,1,4.92-4,12.42,12.42,0,0,1,6.24-1.5,10.41,10.41,0,0,1,5.74,1.56,10.19,10.19,0,0,1,3.71,4.26,13.46,13.46,0,0,1,1.29,5.94v17A2.52,2.52,0,0,1,571,153a2.69,2.69,0,0,1-1.94.78,2.68,2.68,0,0,1-2.71-2.7V134.67q0-7.32-6.6-7.32a9.49,9.49,0,0,0-5.36,1.56,19.27,19.27,0,0,0-4.48,4.2v18a2.56,2.56,0,0,1-.81,1.92,2.71,2.71,0,0,1-2,.78A2.63,2.63,0,0,1,545.21,153Z"/><path d="M599.63,153a2.61,2.61,0,0,1-.78-1.92V127.59h-3.54a2.36,2.36,0,0,1-2.34-2.34,2.22,2.22,0,0,1,.69-1.68,2.3,2.3,0,0,1,1.65-.66h3.54v-3.48a12,12,0,0,1,1.29-5.91,8,8,0,0,1,3.36-3.36,9.49,9.49,0,0,1,4.35-1,11.51,11.51,0,0,1,5.22,1.2,2.59,2.59,0,0,1,1,.87,2.14,2.14,0,0,1,.39,1.23,2.23,2.23,0,0,1-.66,1.59,2.09,2.09,0,0,1-1.56.69,5.69,5.69,0,0,1-1.38-.18q-1.44-.18-1.62-.18a5.26,5.26,0,0,0-3.69,1.14q-1.23,1.14-1.23,4.14v3.3h7.5a2.26,2.26,0,0,1,2.34,2.34,2.3,2.3,0,0,1-.66,1.65,2.22,2.22,0,0,1-1.68.69h-7.5v23.52a2.56,2.56,0,0,1-.81,1.92,2.71,2.71,0,0,1-2,.78A2.61,2.61,0,0,1,599.63,153Z"/><path d="M624.2,152.55a10.14,10.14,0,0,1-3.72-4.26,13.6,13.6,0,0,1-1.29-5.94v-17a2.56,2.56,0,0,1,.81-1.92,2.71,2.71,0,0,1,2-.78,2.66,2.66,0,0,1,2.7,2.7v16.44q0,7.32,6.6,7.32a9.55,9.55,0,0,0,5.37-1.56,19.44,19.44,0,0,0,4.47-4.2v-18a2.56,2.56,0,0,1,.81-1.92,2.71,2.71,0,0,1,2-.78,2.66,2.66,0,0,1,2.7,2.7v25.74a2.71,2.71,0,0,1-.78,1.95,2.56,2.56,0,0,1-1.92.81,2.77,2.77,0,0,1-2.76-2.76v-2.46a19.94,19.94,0,0,1-4.92,4,12.42,12.42,0,0,1-6.24,1.5A10.37,10.37,0,0,1,624.2,152.55Z"/><path d="M656.81,153a2.61,2.61,0,0,1-.78-1.92V125.37a2.71,2.71,0,0,1,.78-2,2.56,2.56,0,0,1,1.92-.81,2.77,2.77,0,0,1,2.76,2.76v2.46a19.94,19.94,0,0,1,4.92-4,12.42,12.42,0,0,1,6.24-1.5,10.37,10.37,0,0,1,5.73,1.56,10.14,10.14,0,0,1,3.72,4.26,13.6,13.6,0,0,1,1.29,5.94v17a2.56,2.56,0,0,1-.81,1.92,2.71,2.71,0,0,1-2,.78,2.66,2.66,0,0,1-2.7-2.7V134.67q0-7.32-6.6-7.32a9.55,9.55,0,0,0-5.37,1.56,19.44,19.44,0,0,0-4.47,4.2v18a2.56,2.56,0,0,1-.81,1.92,2.71,2.71,0,0,1-1.95.78A2.61,2.61,0,0,1,656.81,153Z"/><path d="M693.8,152.7a3.47,3.47,0,0,1-1-2.55,3.59,3.59,0,0,1,3.54-3.54,3.47,3.47,0,0,1,2.55,1,3.4,3.4,0,0,1,1,2.49,3.59,3.59,0,0,1-3.6,3.6A3.4,3.4,0,0,1,693.8,152.7Zm1.05-11.25a1.8,1.8,0,0,1-.6-1.26l-1.08-19.8v-5.94a3.07,3.07,0,0,1,3.12-3.12,2.92,2.92,0,0,1,2.19.9,3.07,3.07,0,0,1,.87,2.22v5.94l-1.08,19.8a1.86,1.86,0,0,1-.57,1.26,2,2,0,0,1-1.41.48A2.09,2.09,0,0,1,694.85,141.45Z"/><path d="M1306.33,183.12a4.21,4.21,0,0,1-1.41-2L1293.16,145a4.2,4.2,0,0,1-.18-1,2.37,2.37,0,0,1,.69-1.89,2.64,2.64,0,0,1,1.95-.75,2.54,2.54,0,0,1,1.68.6,3.23,3.23,0,0,1,1,1.56l10.08,33.12,10.14-33a3,3,0,0,1,1.17-1.65,3.33,3.33,0,0,1,3.9,0,3,3,0,0,1,1.17,1.65l10.14,33L1345,143.49a3.23,3.23,0,0,1,1-1.56,2.54,2.54,0,0,1,1.68-.6,2.64,2.64,0,0,1,2,.75,2.37,2.37,0,0,1,.69,1.89,4.2,4.2,0,0,1-.18,1l-11.76,36.12a4.21,4.21,0,0,1-1.41,2,3.48,3.48,0,0,1-2.13.69,3.54,3.54,0,0,1-2.19-.75,3.73,3.73,0,0,1-1.35-1.95l-9.66-30.6-9.66,30.6a3.73,3.73,0,0,1-1.35,1.95,3.54,3.54,0,0,1-2.19.75A3.48,3.48,0,0,1,1306.33,183.12Z"/><path d="M1356.25,179.94q-4.11-4.17-4.11-11.73a19.56,19.56,0,0,1,1.56-7.86,13.36,13.36,0,0,1,4.8-5.82,13.79,13.79,0,0,1,8-2.22,14,14,0,0,1,7.68,2.07,13.39,13.39,0,0,1,4.92,5.52,17,17,0,0,1,1.68,7.53,2.62,2.62,0,0,1-2.76,2.7h-20.34a9.87,9.87,0,0,0,3.12,6.54q2.64,2.34,7.38,2.34a18,18,0,0,0,4.41-.48,18.32,18.32,0,0,0,3.69-1.38,2.38,2.38,0,0,1,1.08-.24,2.41,2.41,0,0,1,1.68.66,2.18,2.18,0,0,1,.72,1.68,2.59,2.59,0,0,1-1.56,2.22,18.74,18.74,0,0,1-10.5,2.64Q1360.36,184.11,1356.25,179.94Zm19.11-14.25a9.61,9.61,0,0,0-1.53-4.92,8.26,8.26,0,0,0-3.33-2.91,9.15,9.15,0,0,0-8,0,8.06,8.06,0,0,0-3.3,2.91,9.79,9.79,0,0,0-1.5,4.92Z"/><path d="M1409.74,182.19a14.8,14.8,0,0,1-5.86-5.52,17.51,17.51,0,0,1,0-16.92,14.8,14.8,0,0,1,5.86-5.52,16.88,16.88,0,0,1,8-1.92,16.69,16.69,0,0,1,5.5.81,21,21,0,0,1,4.29,2.07,2.39,2.39,0,0,1,.51,3.75,2.12,2.12,0,0,1-1.59.75,2.71,2.71,0,0,1-1.32-.36,23.31,23.31,0,0,0-3.39-1.47,11.7,11.7,0,0,0-3.51-.45q-5.17,0-8.1,3a11.9,11.9,0,0,0,0,15.66q2.93,3,8.1,3a11.7,11.7,0,0,0,3.51-.45,23.31,23.31,0,0,0,3.39-1.47,2.71,2.71,0,0,1,1.32-.36,2.12,2.12,0,0,1,1.59.75,2.39,2.39,0,0,1-.51,3.75,21,21,0,0,1-4.29,2.07,16.69,16.69,0,0,1-5.5.81A16.88,16.88,0,0,1,1409.74,182.19Z"/><path d="M1438.45,183a8.46,8.46,0,0,1-3.57-3.15,8.6,8.6,0,0,1-1.33-4.77,8.41,8.41,0,0,1,3.51-7.08q3.51-2.64,10.3-2.64h7.26v-.48c0-2.64-.66-4.54-1.95-5.7s-3.34-1.74-6.1-1.74a20.28,20.28,0,0,0-4,.36,34.1,34.1,0,0,0-3.94,1.08,3.37,3.37,0,0,1-.78.12,2.15,2.15,0,0,1-1.56-.66,2.2,2.2,0,0,1-.66-1.62,2.31,2.31,0,0,1,1.56-2.28,26.4,26.4,0,0,1,10.39-2.16,13.6,13.6,0,0,1,7,1.68,10.6,10.6,0,0,1,4.19,4.35,12.65,12.65,0,0,1,1.35,5.79v17a2.59,2.59,0,0,1-.8,1.92,2.75,2.75,0,0,1-2,.78,2.61,2.61,0,0,1-1.92-.78,2.64,2.64,0,0,1-.77-1.92v-1.56a15.11,15.11,0,0,1-11.29,4.56A11.11,11.11,0,0,1,1438.45,183Zm12-5a14.22,14.22,0,0,0,4.15-3.21v-5h-6.55q-9,0-9,4.74a4.44,4.44,0,0,0,1.46,3.48q1.47,1.32,4.9,1.32A10.84,10.84,0,0,0,1450.47,178Z"/><path d="M1470,183a2.58,2.58,0,0,1-.79-1.92V155.37a2.68,2.68,0,0,1,.79-2,2.53,2.53,0,0,1,1.92-.81,2.77,2.77,0,0,1,2.75,2.76v2.46a19.94,19.94,0,0,1,4.92-4,12.44,12.44,0,0,1,6.25-1.5,10.36,10.36,0,0,1,5.72,1.56,10.14,10.14,0,0,1,3.72,4.26,13.61,13.61,0,0,1,1.3,5.94v17a2.57,2.57,0,0,1-.82,1.92,2.71,2.71,0,0,1-2,.78,2.66,2.66,0,0,1-2.7-2.7V164.67q0-7.32-6.6-7.32a9.55,9.55,0,0,0-5.37,1.56,19.44,19.44,0,0,0-4.47,4.2v18a2.52,2.52,0,0,1-.81,1.92,2.69,2.69,0,0,1-1.94.78A2.58,2.58,0,0,1,1470,183Z"/><path d="M1506.57,183a2.61,2.61,0,0,1-.78-1.92V155.37a2.71,2.71,0,0,1,.78-2,2.56,2.56,0,0,1,1.92-.81,2.77,2.77,0,0,1,2.76,2.76v2.46a19.94,19.94,0,0,1,4.92-4,12.42,12.42,0,0,1,6.24-1.5,10.37,10.37,0,0,1,5.73,1.56,10.14,10.14,0,0,1,3.72,4.26,13.6,13.6,0,0,1,1.29,5.94v17a2.56,2.56,0,0,1-.81,1.92,2.71,2.71,0,0,1-1.95.78,2.66,2.66,0,0,1-2.7-2.7V164.67q0-7.32-6.6-7.32a9.55,9.55,0,0,0-5.37,1.56,19.44,19.44,0,0,0-4.47,4.2v18a2.56,2.56,0,0,1-.81,1.92,2.71,2.71,0,0,1-2,.78A2.61,2.61,0,0,1,1506.57,183Z"/><path d="M1547.73,182.13a13.46,13.46,0,0,1-5.37-5.61,19.21,19.21,0,0,1,0-16.62,13.46,13.46,0,0,1,5.37-5.61,17.44,17.44,0,0,1,16.14,0,13.65,13.65,0,0,1,5.4,5.61,18.94,18.94,0,0,1,0,16.62,13.65,13.65,0,0,1-5.4,5.61,17.44,17.44,0,0,1-16.14,0Zm12.81-4.14a9.16,9.16,0,0,0,3.72-3.6,12,12,0,0,0,1.47-6.24,11.88,11.88,0,0,0-1.47-6.18,9,9,0,0,0-3.72-3.57,10.52,10.52,0,0,0-4.71-1.11,10.64,10.64,0,0,0-4.77,1.11,8.78,8.78,0,0,0-3.69,3.57,12.08,12.08,0,0,0-1.44,6.18,12.21,12.21,0,0,0,1.44,6.24,9,9,0,0,0,3.69,3.6,10.41,10.41,0,0,0,4.77,1.14A10.29,10.29,0,0,0,1560.54,178Z"/><path d="M1580.37,176.19v-18.6h-4.26a1.13,1.13,0,0,1-1.14-1.14,1.25,1.25,0,0,1,.54-1l8.16-8a1.51,1.51,0,0,1,1-.54,1.06,1.06,0,0,1,.81.36,1.2,1.2,0,0,1,.33.84v4.8h6.78a2.26,2.26,0,0,1,2.34,2.34,2.3,2.3,0,0,1-.66,1.65,2.22,2.22,0,0,1-1.68.69h-6.78v18.12q0,2.34,1.11,3a5.59,5.59,0,0,0,2.79.63,8.32,8.32,0,0,0,2.4-.36l.51-.12a3.27,3.27,0,0,1,.69-.06,2.11,2.11,0,0,1,1.5.63,2,2,0,0,1,.66,1.53,2.27,2.27,0,0,1-1.38,2.1,11.74,11.74,0,0,1-5,1.08Q1580.37,184.11,1580.37,176.19Z"/><path d="M1617.87,183a2.61,2.61,0,0,1-.78-1.92V155.37a2.71,2.71,0,0,1,.78-2,2.56,2.56,0,0,1,1.92-.81,2.77,2.77,0,0,1,2.76,2.76V158q4.2-5.64,9.42-5.64h.3a2.51,2.51,0,0,1,1.89.78,2.66,2.66,0,0,1,.75,1.92,2.42,2.42,0,0,1-.78,1.86,2.81,2.81,0,0,1-2,.72h-.3a10.23,10.23,0,0,0-5.28,1.41,12.16,12.16,0,0,0-4,3.87v18.24a2.56,2.56,0,0,1-.81,1.92,2.71,2.71,0,0,1-2,.78A2.61,2.61,0,0,1,1617.87,183Z"/><path d="M1644.78,182.55a10.14,10.14,0,0,1-3.72-4.26,13.6,13.6,0,0,1-1.29-5.94v-17a2.56,2.56,0,0,1,.81-1.92,2.71,2.71,0,0,1,2-.78,2.66,2.66,0,0,1,2.7,2.7v16.44q0,7.32,6.6,7.32a9.55,9.55,0,0,0,5.37-1.56,19.44,19.44,0,0,0,4.47-4.2v-18a2.56,2.56,0,0,1,.81-1.92,2.71,2.71,0,0,1,2-.78,2.66,2.66,0,0,1,2.7,2.7v25.74a2.71,2.71,0,0,1-.78,1.95,2.56,2.56,0,0,1-1.92.81,2.77,2.77,0,0,1-2.76-2.76v-2.46a19.94,19.94,0,0,1-4.92,4,12.42,12.42,0,0,1-6.24,1.5A10.37,10.37,0,0,1,1644.78,182.55Z"/><path d="M1677.39,183a2.61,2.61,0,0,1-.78-1.92V155.37a2.71,2.71,0,0,1,.78-2,2.56,2.56,0,0,1,1.92-.81,2.77,2.77,0,0,1,2.76,2.76v2.46a19.94,19.94,0,0,1,4.92-4,12.42,12.42,0,0,1,6.24-1.5,10.37,10.37,0,0,1,5.73,1.56,10.14,10.14,0,0,1,3.72,4.26,13.6,13.6,0,0,1,1.29,5.94v17a2.56,2.56,0,0,1-.81,1.92,2.71,2.71,0,0,1-2,.78,2.66,2.66,0,0,1-2.7-2.7V164.67q0-7.32-6.6-7.32a9.55,9.55,0,0,0-5.37,1.56,19.44,19.44,0,0,0-4.47,4.2v18a2.56,2.56,0,0,1-.81,1.92,2.71,2.71,0,0,1-2,.78A2.61,2.61,0,0,1,1677.39,183Z"/><path d="M1714.38,182.7a3.47,3.47,0,0,1-1.05-2.55,3.59,3.59,0,0,1,3.54-3.54,3.47,3.47,0,0,1,2.55,1,3.4,3.4,0,0,1,1,2.49,3.59,3.59,0,0,1-3.6,3.6A3.4,3.4,0,0,1,1714.38,182.7Zm1-11.25a1.8,1.8,0,0,1-.6-1.26l-1.08-19.8v-5.94a3.07,3.07,0,0,1,3.12-3.12,2.92,2.92,0,0,1,2.19.9,3.07,3.07,0,0,1,.87,2.22v5.94l-1.08,19.8a1.86,1.86,0,0,1-.57,1.26,2,2,0,0,1-1.41.48A2.09,2.09,0,0,1,1715.43,171.45Z"/><path class="cls-3" d="M804.06,594.88a311.16,311.16,0,0,0-4.42-54.76c-3-17.84-6-35.64-9.78-53.33-3.64-17.24-7.76-34.38-12.25-51.42-4.27-16.22-8.29-32.54-13.84-48.39-5.2-14.86-11.71-29.47-21-42.28q-1.68-2.31-3.48-4.55c-1.2-1.51-3.31.63-2.12,2.12,9.75,12.2,16.65,26.44,22.07,41,5.71,15.39,9.67,31.27,13.92,47.1q6.81,25.35,12.45,51,5.67,26,9.92,52.25c1.46,9,2.94,18,3.9,27.07s1.5,18.14,1.61,27.24q0,3.48,0,7a1.5,1.5,0,0,0,3,0Z"/><path class="cls-3" d="M735.63,330a142.85,142.85,0,0,0-11-13.08,115.89,115.89,0,0,0-27.47-21,102,102,0,0,0-43.86-12.41c-20.52-1-40.8,4.3-59.36,12.76a182.75,182.75,0,0,0-61.64,45.51,160.91,160.91,0,0,0-35.24,67.5c-6.46,26.32-6.25,53.91-.44,80.33a206.69,206.69,0,0,0,12.75,38.3c2.79,6.4,5.81,12.69,9,18.92,3,6,6.35,11.85,8.38,18.27,2.14,6.77,3.29,13.87,5,20.77s3.5,13.77,5.43,20.61c3.8,13.43,8.12,26.74,13.24,39.73,8.85,22.49,20.32,45.47,39.32,61.13,4.7,3.87,9.72,7.78,15.31,10.28,1.74.78,3.27-1.8,1.51-2.59-5.72-2.56-10.94-6.6-15.69-10.64a95.23,95.23,0,0,1-12.1-12.49,149.32,149.32,0,0,1-18.66-30.6c-11.54-24.48-19.23-50.78-25.65-77-1.63-6.64-2.74-13.47-4.81-20-2-6.19-5.07-11.89-8-17.65a290.33,290.33,0,0,1-16.3-37.23,180.73,180.73,0,0,1-9-78.59A158.75,158.75,0,0,1,523,358.5c14.31-20.81,33.57-38,55.31-50.79,19-11.16,40.28-19.56,62.44-21.13a99.44,99.44,0,0,1,46.49,7.73,109.55,109.55,0,0,1,30.43,20A118.27,118.27,0,0,1,732,330c.35.48.69,1,1,1.42,1.15,1.52,3.76,0,2.59-1.51Z"/><path class="cls-3" d="M579.32,424.7a83.78,83.78,0,0,0-19.91,38.19c-1.66,7.16-2.7,15.14-.11,22.22,2.42,6.59,7.89,11.21,14.22,13.93,11.92,5.11,25.82,3.34,36.47-3.92,11.12-7.57,19.48-21.53,16.82-35.3-1.32-6.82-5.68-12.47-11-16.78-5.5-4.47-12.33-8.79-19.66-8.81a16.75,16.75,0,0,0-5.21.83c-1.83.59-1.05,3.49.79,2.89,6.85-2.21,13.73,1.29,19.23,5.17,5,3.5,9.71,8,11.88,13.82,4.6,12.28-2.43,26-12,33.79-9.17,7.46-21.8,10.31-33.15,6.71-5.71-1.81-11.29-5.19-14.33-10.5-3.44-6-3-13.52-1.79-20.1a80.87,80.87,0,0,1,19.8-40c1.32-1.41-.8-3.54-2.12-2.12Z"/><path class="cls-3" d="M589.54,338.75c-6.09,11.84-5.62,26.56.25,38.4a42.17,42.17,0,0,0,11.49,14.28c5.15,4.06,11.43,7.24,18.05,5,6.06-2,11-6.92,14.67-12a47.53,47.53,0,0,0,7.52-17.19A49.7,49.7,0,0,0,635,330a39.31,39.31,0,0,0-6.56-7.82,11.63,11.63,0,0,0-4.76-3,9.13,9.13,0,0,0-5.69.8,145.31,145.31,0,0,0-22.65,11.87c-1.62,1-.12,3.63,1.52,2.59a154.41,154.41,0,0,1,18-9.85c2.81-1.29,6.45-3.7,9.46-1.86a24.73,24.73,0,0,1,6.05,5.94c7.29,9.26,10.31,21.75,8.94,33.37-1.31,11.09-6.83,22.78-16.29,29.16a15.34,15.34,0,0,1-8.58,3.05c-3.17,0-6.12-1.55-8.72-3.24a38.09,38.09,0,0,1-11.49-11.91c-7.07-11.42-8.39-26.74-2.17-38.83.88-1.71-1.7-3.23-2.59-1.51Z"/><path class="cls-3" d="M610.83,346.61c-1.87-.89-3.87-1.91-5-3.71-1-1.51-1.41-3.71-.57-5.23a2.82,2.82,0,0,1,3.93-1,12.11,12.11,0,0,1,4.27,4.76,4.11,4.11,0,0,1,.72,3.12,1.85,1.85,0,0,1-.49.62c-.34.31,0,0,0,0s-.17,0-.06,0h-.05s.37,0,0,0c.11,0,.33.23.1,0-1.34-1.39-3.46.73-2.12,2.12a2.93,2.93,0,0,0,3.88.25,4.52,4.52,0,0,0,1.82-4.06,9.54,9.54,0,0,0-1.82-4.58,18.22,18.22,0,0,0-2.93-3.56c-2.16-1.93-5.39-3-8-1.23s-3.16,5.32-2.2,8.2c1.12,3.36,4,5.35,7.05,6.81a1.54,1.54,0,0,0,2-.54,1.51,1.51,0,0,0-.54-2.05Z"/><path class="cls-3" d="M568.62,464.33a19.58,19.58,0,0,0-2.39,8.63,20.13,20.13,0,0,0,.31,4.45,5.19,5.19,0,0,0,.63,2,2.25,2.25,0,0,0,2.48,1,9.67,9.67,0,0,0,3.44-2.21,7.18,7.18,0,0,0,2.16-3.33c.75-2.74-.61-5.36-2.63-7.15-1.79-1.59-5.82-4.34-7.49-1.05a1.55,1.55,0,0,0,.54,2.06,1.52,1.52,0,0,0,2.05-.54c.22-.42,0,0,0-.06l-.1,0c.18,0,.19-.05,0,0a1.81,1.81,0,0,1,.57.13,8.48,8.48,0,0,1,1.48.91,7.26,7.26,0,0,1,2.53,2.81,3.27,3.27,0,0,1-.45,3.26,6.75,6.75,0,0,1-1.31,1.25c-.36.27-1.22,1-1.61,1l.76.21c.12.07.15.14.1.19,0-.12-.08-.25-.11-.38s-.11-.53-.16-.8a13.29,13.29,0,0,1-.18-1.56,18.58,18.58,0,0,1,.07-3.25,15.78,15.78,0,0,1,1.89-5.95c.94-1.69-1.65-3.2-2.59-1.52Z"/><path class="cls-3" d="M646.93,292.15c-11.42-1.25-22.69,1.82-33.13,6.23A254.43,254.43,0,0,0,583,314.32c-9.4,5.6-18.25,12.13-25.62,20.27a113.16,113.16,0,0,0-17.12,25.27c-10.16,20.15-15,42.59-16.36,65a219.55,219.55,0,0,0,.63,35c1,10.22,3,20.59,7.59,29.85a44.51,44.51,0,0,0,21,20.2,105.37,105.37,0,0,0,13.72,5.25c5.68,1.81,11.39,3.56,17.21,4.87a92.13,92.13,0,0,0,35.41.76c11.92-2,23.47-5.68,34.83-9.72a288.64,288.64,0,0,0,31.88-13.2,173.12,173.12,0,0,0,15.3-8.54c4.42-2.78,8.85-5.75,12.33-9.68,7.09-8,8.87-19,9.14-29.38a192,192,0,0,0-3-36.13c-1.93-11.74-4.44-23.43-7.38-35a223.11,223.11,0,0,0-10.8-32.76C693.94,328,682,309.87,664.34,299.53A56,56,0,0,0,652,294.15c-1.85-.55-2.64,2.34-.79,2.89,18.32,5.44,32.07,20.86,41.22,37,11,19.41,16.66,41.37,21.27,63a290.3,290.3,0,0,1,5.66,35.27c.95,10.82,1.59,22.37-1.31,33a30.18,30.18,0,0,1-7,13c-3.57,3.77-8,6.6-12.4,9.31a201.82,201.82,0,0,1-30.23,15A332.46,332.46,0,0,1,636,513.92c-11.2,3.21-22.76,5.5-34.46,5.28s-23-3.5-34.17-7.06c-9.06-2.9-18.2-6.51-25.06-13.34S531.7,482.44,529.61,473c-2.3-10.41-2.89-21.2-3-31.84-.29-22.63,2.61-45.54,10.62-66.8,7.08-18.81,18.3-36.4,34.36-48.76,8.69-6.68,18.37-11.93,28-17,10-5.27,20.27-10.33,31.38-12.61a51.6,51.6,0,0,1,16-.83c1.92.21,1.9-2.8,0-3Z"/><path class="cls-3" d="M628.89,711.19q-1.87-7.14-3.23-14.4-.69-3.76-1.23-7.55c-.3-2.09-.68-4.42.09-6.46a5.63,5.63,0,0,1,7.38-2.92c3.75,1.5,6.13,5.57,8.21,8.78.77,1.18,2.88.81,2.8-.75-.37-7.33,1-15.19,5.39-21.23,3.61-5,9.58-7.67,15.59-5.57a12.37,12.37,0,0,1,7.13,6.84c.57,1.29,2.35.72,2.74-.36,1.92-5.29,4-11.6,8.62-15.19,3.63-2.82,9.17-2.67,11.52,1.62a1.51,1.51,0,0,0,2.59,0c3-4.77,4-10.8,7.74-15.11,1.38-1.58,3.33-3.1,5.55-2.61a4.65,4.65,0,0,1,3.62,4.22,1.51,1.51,0,0,0,3,.4,94.36,94.36,0,0,1,5.49-11.31,39.9,39.9,0,0,1,3.24-5.16c.65-.8,1.57-1.64,2.63-1.27,1.85.65,3.13,3.16,4.22,4.64,1.51,2.06,3.1,4.06,5.53,5,1,.38,1.83-.58,1.9-1.45.42-4.82,2.81-9.88,7-12.5A11.31,11.31,0,0,1,760,620.44a1.52,1.52,0,0,0,2.51-.66c2.1-5.72,4.88-13.52,12-13.91,2.91-.17,6,.24,8.72-1.15s3.59-4.55,4.71-7.25c.19-.45.83-2.13,1.28-2.14s.93.94,1.13,1.3c.55,1,1.06,2,1.56,3,1,1.94,1.82,3.91,2.58,5.93a14,14,0,0,1,1.12,4.53c0,.77.13,2.8-.77,3.22-.46.22-1.19-.21-1.65-.33a5.13,5.13,0,0,0-2.61,0c-3.55.94-5.23,5-6.18,8.17-.89,3-1.69,7.88-5.49,8.34-2.94.37-5.4-1.95-6-4.67a1.51,1.51,0,0,0-2.89,0c-1.09,3.55-2.29,8.3-5.59,10.49a4.19,4.19,0,0,1-6.51-2.3c-.38-1.56-2.39-1.27-2.89,0a88.78,88.78,0,0,1-4.62,9.88q-1.23,2.25-2.6,4.41c-.72,1.15-1.66,3.17-3,3.61-1.55.5-3-2.07-3.73-3.06-1.35-1.76-2.77-3.32-5.07-3.62-1.06-.13-1.6,1.06-1.45,1.9a10.24,10.24,0,0,1-5.66,10.59c-4.74,2.29-10.43-.18-14.76-2.28a1.52,1.52,0,0,0-2.26,1.3,18.71,18.71,0,0,1-7.22,14.07c-3.83,2.93-9,4.19-13.42,1.9a1.51,1.51,0,0,0-2.2,1.69c1.38,4.64-1.88,9.94-6.54,11.12-5.52,1.39-11.16-3.34-15.16-6.47a1.52,1.52,0,0,0-2.56,1.06c-.15,2.8-1.1,6.82-4,8.11-2.42,1.1-4.74-.9-5.1-3.26-.26-1.72-2.89-1.22-2.95.4a68.51,68.51,0,0,1-3.59,19.81l2.5-.66a18.27,18.27,0,0,1-4.77-9.12,1.51,1.51,0,0,0-2.89,0c-1.55,6.3-.15,12.94-2,19.18-.64,2.23-1.82,4.82-4.14,5.72a3.76,3.76,0,0,1-5-1.85c-.85-1.73-3.43-.21-2.59,1.52a6.52,6.52,0,0,0,6.55,3.61,8.72,8.72,0,0,0,6.8-5c3.64-7,1.4-15,3.21-22.38H644a21,21,0,0,0,5.54,10.44,1.52,1.52,0,0,0,2.51-.66,71.22,71.22,0,0,0,3.7-20.61l-2.94.4a6.77,6.77,0,0,0,8.62,5.43c4.42-1.53,6.09-6.87,6.32-11.08l-2.56,1.06c5,3.94,11.85,9.35,18.7,7.06,5.85-2,9.81-8.6,8-14.63l-2.2,1.7c5.41,2.79,11.7,1.66,16.47-1.92a21.81,21.81,0,0,0,8.68-16.64L712.56,657c5.49,2.66,12.24,5.26,18.1,2.12a13.26,13.26,0,0,0,6.73-13.82l-1.44,1.9c.83.11,1.55,1,2,1.6.75.89,1.4,1.86,2.15,2.75,1.62,1.92,4,3.2,6.41,1.78a11,11,0,0,0,3.36-3.8q1.56-2.43,3-5a92.75,92.75,0,0,0,5-10.79H755a7.13,7.13,0,0,0,9.91,4.61c4.81-2.09,6.57-8.25,8-12.8H770c1.57,6.8,10.65,9.57,14.69,3.26,2.32-3.62,2.06-8.61,5-11.84a3.14,3.14,0,0,1,2.07-1.23c1,0,2,.63,3.07.56a3.88,3.88,0,0,0,3.31-2.72c1.35-3.56-.16-7.5-1.52-10.78a72.5,72.5,0,0,0-3.16-6.74c-.86-1.61-1.9-3.55-3.94-3.72-3.33-.27-4.36,4.12-5.31,6.48-.57,1.41-1.27,2.81-2.75,3.43a13.16,13.16,0,0,1-4.84.56,18,18,0,0,0-5.77.67,11.91,11.91,0,0,0-5,3.43c-3,3.42-4.71,7.83-6.26,12.06l2.5-.66a14.38,14.38,0,0,0-17-2.22c-5.34,3.15-8.27,9.26-8.79,15.27l1.9-1.45c-2.29-.9-3.76-3.7-5.15-5.57s-3.29-4.32-6-4.28c-3.83,0-5.89,4.6-7.53,7.42a97.88,97.88,0,0,0-6.14,12.61l2.94.4a7.59,7.59,0,0,0-12.08-5.73c-5.83,4.19-6.79,12-10.42,17.72h2.59c-3-5.41-9.88-6.33-14.89-3.21-5.93,3.71-8.47,11.27-10.73,17.5l2.74-.36a15.44,15.44,0,0,0-17.17-8.74c-7.67,1.5-12.51,8.69-14.75,15.68a41,41,0,0,0-1.78,14.53l2.79-.76c-3.41-5.27-8.68-12.86-16.05-10.19a8.34,8.34,0,0,0-5.45,7,23.46,23.46,0,0,0,.37,6.31c.32,2.21.68,4.42,1.07,6.61Q624,704.5,626,712a1.5,1.5,0,0,0,2.89-.8Z"/><path class="cls-3" d="M658.06,472.28c1.6-4.54,8.61-4,12.35-3.87a38.93,38.93,0,0,1,8.81,1c2.61.69,4.63,2.59,4.38,5.45-.17,1.93,2.83,1.92,3,0a7.86,7.86,0,0,0-4.91-7.76c-3.26-1.42-7.28-1.57-10.79-1.7-5.6-.21-13.48-.33-15.73,6.05-.64,1.83,2.26,2.61,2.89.8Z"/><path class="cls-3" d="M663.79,385.39a24.94,24.94,0,0,0,6.71-5.51c1.89-2.21,3.89-4.88,4.23-7.85s-1.09-6.35-2.31-9.08a33.15,33.15,0,0,0-4.88-7.76c-1.23-1.49-3.34.64-2.12,2.12a30.18,30.18,0,0,1,4.14,6.57c1.05,2.22,2.45,5.21,2.22,7.73s-2.14,4.73-3.67,6.45a22.6,22.6,0,0,1-5.83,4.74c-1.69.94-.18,3.53,1.51,2.59Z"/><path class="cls-3" d="M656.66,460.92a100.28,100.28,0,0,1,9.51-27.66c1.12-2.13,2.32-4.23,3.6-6.27,1.1-1.75,2.87-3.63,2.91-5.8a6.4,6.4,0,0,0-.9-3,24.19,24.19,0,0,1-1.43-3.4,51.38,51.38,0,0,1-1.74-7.33c-1.07-6.12-2-12.26-3-18.39-.31-1.9-3.2-1.1-2.89.79q1.32,8.1,2.64,16.19c.77,4.7,1.66,9.37,3.84,13.66a2.4,2.4,0,0,1-.1,2.83c-.62,1-1.29,1.95-1.91,2.94-1.21,1.92-2.34,3.89-3.4,5.89a100.63,100.63,0,0,0-5.73,13,104.18,104.18,0,0,0-4.28,15.73c-.36,1.88,2.53,2.69,2.89.8Z"/><path class="cls-3" d="M663,461.84c7.41.52,13.61-4.71,18.15-10a117.31,117.31,0,0,0,13.72-20.45,74.74,74.74,0,0,0,5.4-11.36,21.27,21.27,0,0,0,.25-12.44,37.13,37.13,0,0,0-10.67-17.91c-5.29-4.84-12.13-8-19.38-8a1.5,1.5,0,0,0,0,3c12.39,0,22.61,10,26.41,21.2,1.22,3.59,2,7.46,1.12,11.21s-2.78,7.19-4.54,10.55a132.53,132.53,0,0,1-12.3,19.45c-4.31,5.61-10.41,12.26-18.16,11.72-1.92-.13-1.92,2.87,0,3Z"/><path class="cls-3" d="M659.16,394c-5.87,16.2-7.7,33.5-9.26,50.56-.31,3.42-1.6,8.84,1.54,11.39,1.48,1.21,3.62-.9,2.12-2.12-1.14-.92-1.14-2.53-1.1-3.88,0-2,.31-3.92.48-5.86.37-4,.76-8.07,1.22-12.09a201.71,201.71,0,0,1,4-24.07,119.2,119.2,0,0,1,3.89-13.13c.66-1.82-2.23-2.6-2.89-.8Z"/><path class="cls-3" d="M677.23,381.15a70.54,70.54,0,0,1,17.57,11,61.17,61.17,0,0,1,7.45,7.3c2.51,3,3,6.57,2.9,10.37-.13,7.52-2.34,14.84-5.2,21.74-2.68,6.47-5.79,13.15-10.38,18.51s-11.8,9.84-19.12,7.35c-1.83-.63-2.62,2.27-.8,2.89,6.9,2.35,14.19-.61,19.34-5.32,5.6-5.12,9.21-12.12,12.27-19,3.31-7.39,6-15.1,6.73-23.22.33-3.87.4-8.14-1.19-11.76-1.47-3.32-4.39-6-7-8.43a73.72,73.72,0,0,0-21.07-14c-1.75-.76-3.28,1.83-1.51,2.59Z"/><path class="cls-3" d="M760.89,359.09a133.25,133.25,0,0,0-4.09-48.88,124.85,124.85,0,0,0-20.46-42.36,97.84,97.84,0,0,0-17.58-18.1l.23,1.82,62.64-84.75,62.64-84.76c2.64-3.57,5.07-7.75,8.47-10.66,1.13-1,2.89-2.28,4.49-1.81s2.18,2.3,2.21,3.78c.09,3.59-1.92,6.56-4.06,9.24-2.37,3-4.46,5.88-4.94,9.75-.14,1,1.06,1.6,1.9,1.44,5.29-1,8.11,6.59,8.16,10.64.08,6.28-3.18,12-6.52,17a1.51,1.51,0,0,0,.9,2.2c3.3,1.07,4.75,4.95,5.17,8.09a18.37,18.37,0,0,1-2.87,11.88c-2.38,4-5.66,7.28-8.76,10.66l-5.54,6c-1.46,1.6-3.44,3.24-4.21,5.33s.13,4.33,1.2,6.25,2.29,3.79,3.45,5.68c2.22,3.61,4.58,7.63,4.36,12-.21,4-2.79,6.93-5.25,9.82s-4.57,5.77-5.06,9.52c-.57,4.3,1.12,8.34,2.62,12.27a33.22,33.22,0,0,1,1.89,6.26,18.36,18.36,0,0,1-.59,7.69c-1.34,5-3.67,9.74-5.82,14.41s-4.43,9.2-6.87,13.69c-2.33,4.3-4.88,8.46-7.38,12.66a17.54,17.54,0,0,0-2.47,6.2,20.48,20.48,0,0,0,.39,7.11,49.45,49.45,0,0,1,1.26,7.54,23.26,23.26,0,0,1-.85,6.94A38.38,38.38,0,0,1,813.29,316c-2.74,3.76-5.76,6.82-6.09,11.71s-.22,9.79-.92,14.69a84.72,84.72,0,0,1-8.7,27.36q-1.61,3.08-3.5,6c-1,1.63,1.55,3.13,2.59,1.51a84.71,84.71,0,0,0,11.12-26.66,92.55,92.55,0,0,0,2.15-14.54c.17-2.52.13-5,.22-7.56a11.39,11.39,0,0,1,2.38-6.67c2.79-3.83,5.74-7.38,7.79-11.71a29.21,29.21,0,0,0,3.07-13.35c-.18-5-2.81-10.17-1.49-15.14a24.6,24.6,0,0,1,3.24-6.38c1.37-2.24,2.7-4.49,4-6.77a221.27,221.27,0,0,0,13.49-28c1.87-4.74,3.07-9.72,2-14.79-1-4.32-3.25-8.22-4.1-12.56s.79-7.66,3.42-10.85c2.36-2.85,5-5.56,6.15-9.15,1.36-4.2.34-8.54-1.51-12.4-1.95-4.08-5-7.63-6.8-11.79-1.17-2.78,1.56-4.69,3.26-6.54l5.54-6c3.16-3.45,6.49-6.85,9-10.85,4-6.46,5.58-15.83.22-22.1a9,9,0,0,0-4.07-2.69l.9,2.2c4-6.07,7.84-13.25,6.73-20.78-.83-5.69-5.19-12.52-11.76-11.3l1.9,1.45c.46-3.65,3.15-6.42,5.3-9.2a16.73,16.73,0,0,0,3.65-8.55c.28-2.93-.69-6.15-3.48-7.56s-6.07.3-8.29,2.23c-3,2.59-5.15,6.14-7.48,9.29l-8.4,11.37-16.07,21.74-65.38,88.46L716.4,250.06a1.5,1.5,0,0,0,.23,1.81c24.28,19.06,38,49.83,41.24,80.06a129.77,129.77,0,0,1,0,27.16c-.21,1.92,2.8,1.9,3,0Z"/><path class="cls-3" d="M501.93,527a181.05,181.05,0,0,1-17.74-63.59,199,199,0,0,1,4.75-66.51,172.42,172.42,0,0,1,12.61-34.83,1.51,1.51,0,0,0-.89-2.2l-70.92-16.32-35-8-18-4.14c-1.2-.28-2.48-.89-3.51,0a9.38,9.38,0,0,0-1.83,2.33,14,14,0,0,0-1.65,5.65,17.65,17.65,0,0,0,4.36,13.2c3.43,3.86,8.32,5.95,13.19,7.33L386.31,358c-.55,2.88-2.75,4.59-5.08,6.12s-5,3-6.74,5.39a9.08,9.08,0,0,0-1,8.69c1.15,3,3.32,5.29,5.22,7.78,1.57,2.05,3.32,4.58,2.28,7.27-.38,1-1,1.84-1.33,2.85a6,6,0,0,0,0,3.51,15,15,0,0,0,3.58,5.55c3,3.14,6.8,5.31,9.61,8.59a15,15,0,0,1,3.2,5.78,10.85,10.85,0,0,1-.49,6.68,10.62,10.62,0,0,0-.49,6.35,21.28,21.28,0,0,0,2.63,5.24,13,13,0,0,1,2.15,5.22c.27,2.27.07,4.63,1.24,6.69,1,1.85,2.92,2.91,4.69,3.94l7,4,7,4c2,1.14,4.43,2,5,4.47s.56,4.81,1,7.18a54.8,54.8,0,0,0,1.89,7,94.58,94.58,0,0,0,5.75,13.14c4.55,8.83,9.39,17.6,14.65,26,9.45,15.15,22.32,31.09,40.51,35.59a39.56,39.56,0,0,0,6.24,1c1.92.16,1.91-2.84,0-3-18.22-1.47-32-16.67-41.48-30.93-5.43-8.17-10.11-16.8-14.79-25.41-4.52-8.3-8.86-16.93-10.25-26.39-.32-2.15-.24-4.46-1.14-6.47s-3.09-3.18-5-4.3l-13.73-7.93c-1.67-1-4-1.91-4.85-3.81s-.43-4.48-.93-6.62c-.86-3.69-4.14-6.42-4.76-10.13-.37-2.25.89-4.27,1.34-6.41a12.64,12.64,0,0,0-.38-6.54c-1.34-4.16-4.27-7.38-7.59-10.09-3.07-2.5-7.36-5.27-8.62-9.26-.66-2.08,1.2-3.8,1.59-5.78a8,8,0,0,0-.32-4.16c-1-2.85-3.14-5.11-5-7.47-1.68-2.18-3.5-4.81-3-7.71.44-2.67,2.75-4.32,4.87-5.7,2.4-1.56,5-3,6.74-5.35a9.27,9.27,0,0,0,1.72-3.84,1.55,1.55,0,0,0-1-1.85c-5.5-1.55-11.19-4.16-13.89-9.52-2.12-4.2-2.46-10.63,1.25-14.07l-1.46.39,49.06,11.29,49.05,11.29,27.69,6.37-.9-2.2a185.12,185.12,0,0,0-17.82,64.81,201.33,201.33,0,0,0,5.23,68.07,175.45,175.45,0,0,0,13,35.07c.87,1.73,3.45.21,2.59-1.51Z"/><path class="cls-3" d="M1618.68,495.55c23.89,12.92,43.23,32.59,59,54.46,16.27,22.55,29.55,47.44,40.44,73a431.5,431.5,0,0,1,34.21,166,418,418,0,0,1-8.1,84.54q-1,5.22-2.23,10.42c-.43,1.88,2.46,2.68,2.89.79a421.52,421.52,0,0,0,10.37-85.44,434.44,434.44,0,0,0-30.72-168.55,397.22,397.22,0,0,0-39.2-75c-15.13-22.4-33.49-43.12-56.46-57.71q-4.26-2.7-8.69-5.09c-1.7-.92-3.22,1.67-1.52,2.59Z"/><path class="cls-3" d="M1634.27,738.29c-10.93-4.57-22.75-6.32-34.5-7a341.39,341.39,0,0,0-37.17.08q-18.72,1-37.27,3.74-9.4,1.39-18.74,3.26c-5.6,1.12-11.23,2.27-16.73,3.86a55.17,55.17,0,0,0-15,6.55,41.32,41.32,0,0,0-11,10.85c-6.13,8.69-9.63,19.18-12.54,29.31-6.43,22.36-8.61,46.55-2.59,69.25,5.06,19.07,15.87,36.84,31.72,48.8a72.82,72.82,0,0,0,6,4.1v-2.59c-18,9-38.24,12.46-56.29,21.42-8.16,4.05-15.93,9.23-22,16.07-1.48,1.66-3.15,3.5-3.63,5.75a6.26,6.26,0,0,0,2.1,5.91c3.33,3.22,7.82,5.52,12,7.35,9.45,4.1,19.64,6.16,29.82,7.46,10.71,1.37,21.52,2,32.29,2.71q33.33,2.08,66.76,2t66.5-2.39c2.73-.19,5.45-.38,8.18-.59,1.91-.15,1.93-3.15,0-3q-32.19,2.46-64.5,2.9t-64.79-1.2q-16-.81-32-2.12c-10.16-.86-20.35-2-30.22-4.73a72.21,72.21,0,0,1-13.67-5.08,47.25,47.25,0,0,1-6.14-3.71c-1.56-1.11-3.91-2.65-3.4-4.88s2.48-3.92,3.91-5.43a57.32,57.32,0,0,1,4.75-4.47,72,72,0,0,1,11.17-7.62c16.91-9.49,36.21-13.14,54-20.64,2.28-1,4.52-2,6.73-3.09a1.51,1.51,0,0,0,0-2.59c-16.53-10.11-28.33-26.64-34.49-44.85-7.22-21.34-6.48-44.54-1.31-66.25,2.47-10.4,5.64-21.07,10.72-30.52a46.5,46.5,0,0,1,8.8-11.84,40,40,0,0,1,13.27-8,107.66,107.66,0,0,1,15.46-4.29q8.94-2,18-3.48,18.07-3.06,36.39-4.37c12.13-.88,24.31-1.18,36.47-.9,11.52.27,23.15,1.14,34.25,4.41a79.65,79.65,0,0,1,7.94,2.82,1.5,1.5,0,0,0,1.84-1,1.53,1.53,0,0,0-1-1.85Z"/><path class="cls-3" d="M1360.44,782.56c-9.24.3-17.36,4.88-24.2,10.83a102.39,102.39,0,0,0-9.85,10,91,91,0,0,0-9.05,11.41,21.47,21.47,0,0,0-3.3,14.55c.69,5.07,2.74,9.93,5,14.47a88.83,88.83,0,0,0,17.3,22.88,144.45,144.45,0,0,0,11,9.68q2.85,2.28,5.79,4.45c1,.73,2,1.44,2.95,2.15a9,9,0,0,1,2.48,2.08c1.16,1.84-2.84,2.74-3.92,3.1q-3.79,1.27-7.65,2.41c-5.13,1.53-10.29,2.94-15.43,4.47s-10.17,3.17-15.1,5.18a66.75,66.75,0,0,0-13.7,7c-3.92,2.79-6.81,6.52-7.33,11.42a19.1,19.1,0,0,0,4,13.23,36.71,36.71,0,0,0,11.28,9.33,114.72,114.72,0,0,0,14.33,6.84,123.13,123.13,0,0,0,31.31,8c2.69.32,5.39.54,8.09.68,1.93.11,1.92-2.89,0-3a120.7,120.7,0,0,1-31-5.76,119.12,119.12,0,0,1-14.67-5.89,62.2,62.2,0,0,1-12.57-7.46c-3.61-3-6.53-6.69-7.53-11.32a12.27,12.27,0,0,1,4-12.2c3.65-3.21,8.44-5.32,12.87-7.23a142.51,142.51,0,0,1,14.65-5.23c5-1.53,10-2.91,15-4.36,2.43-.71,4.85-1.43,7.26-2.2a35.42,35.42,0,0,0,6.67-2.42c1.73-1,3-2.72,2.55-4.8s-2.51-3.26-4.11-4.41c-3.86-2.77-7.64-5.66-11.29-8.72a107.68,107.68,0,0,1-19.34-20.5,72.81,72.81,0,0,1-6.79-11.93c-2.06-4.64-3.87-9.82-3.3-15,.53-4.86,3.5-9,6.5-12.72s5.88-7.05,9-10.38c6-6.34,13.09-12.41,21.73-14.72a28.07,28.07,0,0,1,6.25-.91c1.93-.06,1.94-3.06,0-3Z"/><path class="cls-3" d="M1492.67,508.72c4.84-11.91,9.48-24.28,9.65-37.3.15-11.44-3.32-23.29-12-31.19-7.74-7.06-18.8-10.35-28.84-6.51-9.4,3.6-16.55,12.06-19.4,21.62-3.95,13.27,0,27.61,6.46,39.4.79,1.46,3.36.46,2.74-1.16l-10.52-27.44c-2.94-7.65-5.69-16.06-12.07-21.61a19.75,19.75,0,0,0-11.57-5.06,1.53,1.53,0,0,0-1.5,1.5,131,131,0,0,0,5.68,48.39q.9,2.88,2,5.72a18.7,18.7,0,0,0,2.11,4.53c2.25,3.15,5.74,3.42,9.3,3.71a190.78,190.78,0,0,1,24.6,3.66,196,196,0,0,1,26.94,7.9c1.81.68,2.59-2.22.8-2.89a196,196,0,0,0-46.46-11.09q-2.94-.34-5.88-.58a14.86,14.86,0,0,1-5-.83,6.37,6.37,0,0,1-2.94-3.68c-.71-1.72-1.3-3.49-1.88-5.26a127.29,127.29,0,0,1-6.22-49.58l-1.5,1.5c7.61.53,12.95,6.9,16.13,13.26,1.84,3.69,3.23,7.6,4.7,11.44l4.91,12.79,5.53,14.42,2.74-1.16c-5.41-9.93-9-21.63-7.09-33,1.59-9.32,7.27-18,15.72-22.43,8.77-4.62,19-2.89,26.71,3.11,8.55,6.71,12.44,17.36,12.8,28,.45,13.63-4.48,26.63-9.52,39.06-.73,1.79,2.17,2.57,2.89.8Z"/><path class="cls-3" d="M1435.54,563a13.32,13.32,0,0,1,11.29-3.14,13.15,13.15,0,0,1,9,6.74,8.82,8.82,0,0,1,1.21,5.48c-.44,2.26-3.06,2.7-5,3.18a39.55,39.55,0,0,1-7.49,1.15,9.72,9.72,0,0,1-3.14-.06c-1-.3-1.1-1.25-1.26-2.17-.73-4.23-1.52-9.58,1.35-13.22,1.18-1.5-.93-3.63-2.12-2.12-3.43,4.36-3.1,9.86-2.3,15.05.41,2.59,1.12,5,4.05,5.46s6.34-.1,9.26-.65c2.65-.51,6.15-1.06,8.1-3.13s1.81-4.83,1.17-7.24a16.2,16.2,0,0,0-9.82-10.72,16.36,16.36,0,0,0-16.45,3.26c-1.44,1.3.69,3.41,2.13,2.13Z"/><path class="cls-3" d="M1758.54,891.1c.43-6.94,1.88-14.47,7.15-19.44a15,15,0,0,1,8.46-4.15c3.54-.39,6.8,1,9.72,2.89a43.42,43.42,0,0,1,14,14.5,28.87,28.87,0,0,1,3.46,9.14c.63,3.43.16,6.6-.4,10a11.3,11.3,0,0,0,.19,5.66,20.13,20.13,0,0,0,2.34,4.36,15.64,15.64,0,0,1,2.79,8.5c.06,6.24-3.27,12.19-7.9,16.2-5.36,4.64-12.23,7.13-19,9a178.2,178.2,0,0,1-23,5.09c-14.43,2.07-30,1.22-42.81-6.45a44.1,44.1,0,0,1-4.27-2.92c-1.53-1.17-3,1.43-1.52,2.6,12.56,9.63,29.12,11.83,44.49,10.27a163.12,163.12,0,0,0,25.34-5c7.21-1.91,14.59-4.27,20.66-8.75,5.45-4,9.67-9.86,10.73-16.67a18.34,18.34,0,0,0-.93-9.73c-1.31-3.24-4.47-6-4.39-9.72,0-2.1.71-4.15.92-6.24a23.33,23.33,0,0,0-.07-5.15,30.26,30.26,0,0,0-3-9.86,45.48,45.48,0,0,0-14.17-16.12c-3.15-2.3-6.64-4.25-10.58-4.65a16,16,0,0,0-9.71,2.38c-6.55,3.93-9.77,11.15-10.9,18.45-.3,1.91-.49,3.83-.61,5.76s2.88,1.92,3,0Z"/><path class="cls-3" d="M1554.4,614.92A178,178,0,0,0,1495.65,653c-5.49,5.37-11.28,11.17-14,18.53-2.32,6.38-1,13.51,4.46,17.84,4.87,3.89,11.35,5.09,17.41,5.59,3.64.31,7.31.29,11,.35l13.84.21c9.05.14,18.1.39,27.14.39,15.48,0,32.75-1.95,44-13.83a34.34,34.34,0,0,0,3.38-4.22c1.09-1.6-1.51-3.1-2.59-1.51-8.58,12.62-24.83,16-39.1,16.47-8.54.28-17.12-.05-25.67-.19l-26-.4c-5.85-.09-12-.44-17.49-2.78s-9.31-7.3-8.45-13.51c1-7.29,6.66-13.25,11.59-18.28a173,173,0,0,1,16.63-14.92,175.11,175.11,0,0,1,38.21-22.81c1.69-.74,3.4-1.44,5.11-2.13s1-3.6-.79-2.89Z"/><path class="cls-3" d="M1488.11,416.25c-21.55-7.48-46.71-15.09-67.62-1.7a55.22,55.22,0,0,0-19.06,21.34,65,65,0,0,0-6.86,30.83c.22,13.49,4,26.68,9.53,38.89l.89-2.21c-8.7,1.63-18.85.06-26.09,6.21-7,6-7,16.39-5.52,24.72,3,17.22,12.75,33.07,26.17,44.15a74,74,0,0,0,26.08,14c1.86.54,2.65-2.35.8-2.9a72.56,72.56,0,0,1-39.29-29.22,70.43,70.43,0,0,1-10-22.4c-1.84-7.56-3.24-17.33,1.76-24,2.87-3.85,7.5-5.35,12.06-6,4.91-.73,9.9-.68,14.78-1.59a1.53,1.53,0,0,0,.9-2.21c-9-19.69-13.18-43.46-4-63.88a53.66,53.66,0,0,1,16.95-21.44,46.79,46.79,0,0,1,29-8.65c13.32.31,26.2,4.7,38.66,9,1.82.63,2.61-2.27.79-2.9Z"/><path class="cls-3" d="M1481.8,601.12c23.45-4.23,46.87-13.48,63.21-31.44,7.57-8.32,13.91-18.64,16.08-29.79,1.15-5.88,1.12-12.12-1.09-17.76a29,29,0,0,0-8.27-11.44c-8.46-7.2-19.64-10.43-30.25-12.9-1.88-.43-2.69,2.46-.8,2.9,9.11,2.11,18.49,4.73,26.28,10.1a28.49,28.49,0,0,1,9,9.63,26.77,26.77,0,0,1,2.69,16.06c-1.26,10.83-7.16,21.12-14.14,29.29a86.15,86.15,0,0,1-25.49,20c-11.85,6.25-24.83,10.07-38,12.44-1.9.34-1.09,3.23.8,2.89Z"/><path class="cls-3" d="M1483.58,404.49a288.83,288.83,0,0,0-45.13-29.13,244.88,244.88,0,0,0-50-19.43,210.27,210.27,0,0,0-53.93-7,189,189,0,0,0-53.93,7.85,170.16,170.16,0,0,0-25.21,9.85c-8.23,4-16.09,9-24.91,11.7a41.1,41.1,0,0,1-6.77,1.49l1.45,1.1c-4-17.37-.08-37,11.26-50.87a49.19,49.19,0,0,1,23.39-15.81c11.11-3.55,23-4,34.57-3.92,24,.21,47.71,4.23,70.76,10.62,23.28,6.46,45.85,15.27,67.84,25.23,10.08,4.58,20.33,9.42,28.83,16.65,8.69,7.38,14.61,17.12,19.56,27.26,1.19,2.43,2.33,4.89,3.46,7.35.8,1.76,3.39.23,2.59-1.51-4.78-10.47-9.94-21-17.7-29.6s-17.63-14.37-27.83-19.29a467.33,467.33,0,0,0-68.5-26.83c-23.54-7.07-47.89-11.83-72.5-12.73-21.81-.8-46.56.11-63,16.48-13.12,13.07-19,32.72-16.82,50.94a63.34,63.34,0,0,0,1.19,6.83,1.5,1.5,0,0,0,1.44,1.1c9.07-1.16,17.2-5.26,25.19-9.48a184.69,184.69,0,0,1,24.91-11.18,181.91,181.91,0,0,1,52.91-10,203.43,203.43,0,0,1,53.94,5,236,236,0,0,1,50,17.71,279.88,279.88,0,0,1,45.54,27.79c1.76,1.32,3.5,2.65,5.24,4,1.5,1.18,3.64-.93,2.12-2.12Z"/><path class="cls-3" d="M1495.07,401.53c5.72-14.45,11.3-29.11,12.09-44.8.73-14.53-2.18-29.14-7.51-42.63-10.66-27-30.67-49.35-52.34-68.13-5.43-4.71-11.23-9.16-17.82-12.12-7-3.13-14.46-4.62-21.92-6-7.87-1.51-15.83-3-23.88-3-2.71,0-6.68,0-7.79,3.13-1.18,3.31,2.17,6.38,4.16,8.56,5,5.5,10.89,10.18,16.54,15q8,6.84,15.37,14.3a261,261,0,0,1,48,66.94c3.12,6.23,6,12.6,8.58,19.06s5.17,13.14,8.72,19.24a54,54,0,0,0,5.83,8.18c1.27,1.46,3.39-.67,2.13-2.12-4.55-5.23-7.69-11.48-10.4-17.81s-5-12.5-7.8-18.65a259.07,259.07,0,0,0-19.21-35.1,265,265,0,0,0-24.33-31.81,293.26,293.26,0,0,0-29.25-28.13c-2.73-2.32-5.45-4.65-8-7.12-1.29-1.24-2.56-2.5-3.77-3.81a22.36,22.36,0,0,1-3.38-4.08c-.86-1.54-.18-2.35,1.41-2.65a24.92,24.92,0,0,1,5.11-.15,90.53,90.53,0,0,1,11.62,1.14,203,203,0,0,1,22.51,4.57A57.65,57.65,0,0,1,1439,243a172.54,172.54,0,0,1,15.94,13.91c5,4.81,9.93,9.8,14.54,15A156.31,156.31,0,0,1,1493,306.33a107.29,107.29,0,0,1,11.16,40.74,85.46,85.46,0,0,1-1.38,21.3,138.86,138.86,0,0,1-6.45,21.75c-1.32,3.56-2.72,7.09-4.12,10.62-.71,1.79,2.19,2.57,2.9.79Z"/><path class="cls-3" d="M1531.78,428.35c9.4,1.15,18,6.16,24.51,12.86,7.26,7.43,11.9,16.94,14.75,26.85a117.51,117.51,0,0,1,3.56,18.12c.24,1.89,3.24,1.92,3,0-1.4-11.41-3.92-22.81-9.22-33.1a54.33,54.33,0,0,0-20.64-22.35,42,42,0,0,0-16-5.38c-1.91-.23-1.9,2.77,0,3Z"/><path class="cls-3" d="M1459.88,484.5c1-2.54,1.22-5.73-.42-8.06-1.43-2.05-4.09-3.47-6.6-2.58a6.13,6.13,0,0,0-3.86,4.72,6.49,6.49,0,0,0,2.12,6.09,9.67,9.67,0,0,0,7.34,2.22,1.54,1.54,0,0,0,1.5-1.5,1.51,1.51,0,0,0-1.5-1.5,8,8,0,0,1-1.29.05c-.22,0-.43,0-.65,0s.35.07-.1,0l-.36-.07a7.61,7.61,0,0,1-1.24-.35c-.06,0-.35-.14-.11,0a1.42,1.42,0,0,1-.25-.12,6.08,6.08,0,0,1-.62-.33l-.24-.16s-.35-.25-.19-.12-.09-.08-.12-.1l-.25-.24a3.59,3.59,0,0,1-.38-.4c-.3-.31.08.13-.07-.07s-.16-.23-.23-.35a4.74,4.74,0,0,1-.29-.54c.13.28,0-.11-.07-.22s-.08-.36-.12-.54,0,.36,0,0c0-.12,0-.25,0-.37s0-.33,0-.49c0,.37,0-.19.06-.28a4.61,4.61,0,0,1,.15-.53l.09-.23c-.13.32,0,0,0-.1a4.39,4.39,0,0,1,.27-.47,2.2,2.2,0,0,1,.17-.25c0,.05-.19.21,0,0l.38-.38s.23-.19.08-.07.14-.1.18-.12.56-.27.22-.14l.51-.16s.31-.06.1,0,.21,0,.2,0h.3c.4,0-.21-.07.18,0a3.18,3.18,0,0,1,1.86,1.1,5,5,0,0,1,.65,1,5.26,5.26,0,0,1,.32,1.47,8,8,0,0,1-.67,3.47,1.52,1.52,0,0,0,1,1.85,1.54,1.54,0,0,0,1.84-1.05Z"/><path class="cls-3" d="M1429.37,487.84a4.24,4.24,0,0,0,3-4.61,4.12,4.12,0,0,0-1.42-2.79,4.89,4.89,0,0,0-3.13-1.11,5.62,5.62,0,0,0-5.28,3.85,7.18,7.18,0,0,0,1.23,6.71,4.12,4.12,0,0,0,3.83,1.56,3.3,3.3,0,0,0,2.77-2.51,1.54,1.54,0,0,0-1-1.85,1.52,1.52,0,0,0-1.84,1.05,2.27,2.27,0,0,0-.06.25c0,.19.13-.33,0-.05s0-.1.06-.07-.2.33-.06.09l.07-.06-.17.11a1.18,1.18,0,0,1-.19.1l.17-.07-.15,0-.15,0c-.14,0-.14,0,0,0h-.11c-.26,0,.12,0,.09,0s-.23-.06-.26-.07c-.21,0,.27.17,0,0a2.25,2.25,0,0,1-.21-.12s-.3-.24-.14-.09-.12-.12-.12-.12l-.25-.27s.17.24,0,0-.12-.17-.17-.26a4.59,4.59,0,0,1-.26-.49c-.13-.25,0,0,0,0l-.12-.34c-.06-.2-.12-.4-.16-.6s0-.16,0-.24c-.08-.4,0,.31,0-.09,0-.17,0-.33,0-.5s0-.4,0-.61c0,.31,0,.12,0,0s0-.24.08-.36.12-.38.18-.58c-.09.28,0,.1,0,0l.14-.27c.09-.15.19-.31.29-.45-.18.24,0,0,0,0s.15-.15.23-.23.17-.25,0,0a1.4,1.4,0,0,1,.18-.13l.47-.26c.15-.07.06-.1-.06,0a.8.8,0,0,1,.26-.09,1.54,1.54,0,0,1,.58-.14s-.38,0-.08,0l.27,0c.09,0,.4,0,.48,0l-.19,0,.16,0,.25.07.2.06-.12-.05.14.07.23.13,0,0c.13.1.12.08,0,0,.1,0,.22.21.28.28.22.22-.16-.29,0,0l.09.16s.06.14.08.16c-.09-.22-.11-.26,0-.11l0,.09.06.26c.08.28,0-.35,0,0,0,.15,0,.3,0,.46s0,.35,0,.07,0,.05,0,.11l-.06.22c-.08.25-.12.09,0,0a1.62,1.62,0,0,0-.21.39c-.16.27.23-.25,0,0l-.18.19c-.12.12-.09,0,.1-.07a1.35,1.35,0,0,0-.22.14l-.06,0c.2-.13-.09,0-.17,0a1.53,1.53,0,0,0-1,1.85,1.55,1.55,0,0,0,1.85,1Z"/><path class="cls-3" d="M1430.55,648.59c-11.82.23-25.06.26-35.56-6a28.22,28.22,0,0,1-11.31-13.22c-2.46-5.51-3.9-11.4-6.29-16.94s-6.06-10.65-11.49-13.71c-5.72-3.23-12.43-4.16-18.91-4.39-7.8-.27-15.68.18-23.47.65-8.27.51-16.51,1.29-24.74,2.25-16.5,1.92-32.93,4.41-49.38,6.75-4.08.58-8.18,1.07-12.24,1.74-2.47.41-5.52,1.46-6.76,3.84-1.59,3.06,1,5.65,3.08,7.57a51,51,0,0,0,8.24,6.1c12.58,7.54,27.4,9.89,41.82,10.81,8.32.52,16.65.62,25,1.12a62.71,62.71,0,0,1,11.36,1.34,19.92,19.92,0,0,1,9.2,5.15,59.1,59.1,0,0,1,6.53,8q3.54,4.89,7.19,9.69,7.24,9.48,15,18.58c4.78,5.62,9.64,11.75,16.25,15.32,6.25,3.38,13.46,4.22,20.46,4.15,3.56,0,7.11-.31,10.66-.6,1.91-.15,1.93-3.15,0-3-7,.57-14.23,1.16-21.19-.22a29.4,29.4,0,0,1-9.71-3.67,40.18,40.18,0,0,1-8.21-7.08c-10.49-11.3-19.84-23.71-28.9-36.16-4-5.44-8.34-10.56-15-12.65a47,47,0,0,0-11-1.69c-4.07-.3-8.15-.47-12.24-.63-15-.56-30.33-.87-44.67-5.92a55.43,55.43,0,0,1-17.63-9.84c-1.48-1.28-5.39-3.94-2.81-5.86s6.36-1.8,9.28-2.21c16.1-2.29,32.2-4.71,48.33-6.76a458.45,458.45,0,0,1,48.54-3.81c6.53-.13,13.24-.07,19.53,1.92a22.94,22.94,0,0,1,13.43,11c5.77,10.32,6.43,23.13,15.67,31.43,8.92,8,21.63,9.66,33.16,10,2.92.07,5.84,0,8.76,0,1.93,0,1.94-3,0-3Z"/><path class="cls-3" d="M1484.51,577.72A18.45,18.45,0,0,0,1499.44,561l-3,.4c.3,2,1.62,3.59,2.85,5.13s2.27,3,1.79,4.91c-1.15,4.69-6.77,5.53-10.78,6a1.54,1.54,0,0,0-1.5,1.5,1.51,1.51,0,0,0,1.5,1.5c5.29-.67,11.32-1.85,13.44-7.48a7.38,7.38,0,0,0-1-6.88c-1.21-1.77-3-3.3-3.39-5.52a1.47,1.47,0,0,0-1.64-1.07,1.51,1.51,0,0,0-1.3,1.47,15.46,15.46,0,0,1-12.73,13.88,1.51,1.51,0,0,0-1,1.85,1.54,1.54,0,0,0,1.85,1Z"/></svg>