<svg id="Layer_1" data-name="Layer 1" xmlns="http://www.w3.org/2000/svg" viewBox="0 0 1920 1080"><defs><style>.cls-1{fill:#fff;}.cls-2{stroke:#fff;stroke-miterlimit:10;stroke-width:10px;}</style></defs><title>42-teeth</title><path d="M641.8,854.33c90.37,15.19,171.46,42.19,230.48,65.67,45.09,17.93,37.37,93.24-10.11,98.94-52.18,6.27-129.29,7.62-243.19-1.45-374.21-29.8-517,100.58-517-.74S251.94,902,356.25,891.58,502.29,753,580.52,775.36,597.47,846.88,641.8,854.33Z"/><path d="M1572,1059.91c77.68-2.24,78.74,15.71,128.75-6.73s129.82-76.28,129.82-76.28,55.34-65.06,42.57-115.54S1821,721.14,1821,721.14s-17-68.42-180.9-60.57-214.94-20.19-283,60.57S1186.75,785.08,1254.85,867s93.64,124.52,150,152.56,118.11,49.36,142.59,44.87Z"/><path d="M849.7,68.1C595.78,38.76,449.64-32.73,292.52,86.65S99.73,347.43,99.73,347.43-125.37,550.27,229,650,674.75,808.74,831.87,754.26,1199.61,439,1199.61,439s41.23-191.24-85.8-235.29-171.62-17.38-216.19-52.15S929.94,77.38,849.7,68.1Z"/><path class="cls-1" d="M807.89,254,779.55,736.86l-140.48,6.58,1.23-254.59L576.84,694.1H522.62L473.94,510.56l-.61,213.14L331,728.31l6.16-454.58,158.35-6.58L558.35,484.9,642.15,254Z"/><path class="cls-1" d="M1207.15,501.35a254,254,0,0,1-6.47,57.73A235.84,235.84,0,0,1,1182,611.21a216.88,216.88,0,0,1-29.58,44.57,191.13,191.13,0,0,1-39.12,34.7A185.14,185.14,0,0,1,1066.05,713a179.13,179.13,0,0,1-54.22,8.06A182.23,182.23,0,0,1,959,713.51a193.7,193.7,0,0,1-47-21.22,191,191,0,0,1-39.59-32.89,204,204,0,0,1-30.19-42.76,228.71,228.71,0,0,1-19.41-50.49,225.15,225.15,0,0,1-6.93-56.25,243.91,243.91,0,0,1,6.47-56.08A236.39,236.39,0,0,1,841,402a224,224,0,0,1,29.42-44.73,198,198,0,0,1,38.66-35.2,180.53,180.53,0,0,1,46.36-23,167.33,167.33,0,0,1,52.68-8.22q44.67,0,81.49,14.8t62.84,42.27q26,27.46,40.36,66.44T1207.15,501.35Zm-136.79,8.55a98.31,98.31,0,0,0-3.85-27.46,77.52,77.52,0,0,0-11.24-23.69A58.89,58.89,0,0,0,1036.94,442a48.69,48.69,0,0,0-25.11-6.42,58,58,0,0,0-25.88,5.6,59.67,59.67,0,0,0-19.56,15.29,68.41,68.41,0,0,0-12.48,22.7,86.48,86.48,0,0,0-4.31,27.46,106.26,106.26,0,0,0,3.7,27.63,84.44,84.44,0,0,0,11.09,25,60.55,60.55,0,0,0,18.33,18.09q10.93,6.92,25.41,6.91a55,55,0,0,0,26-6.09,59.61,59.61,0,0,0,19.56-16.44,77.05,77.05,0,0,0,12.32-23.85A91.38,91.38,0,0,0,1070.36,509.9Z"/><path class="cls-1" d="M1609.48,501.35a253.44,253.44,0,0,1-6.47,57.73,235.33,235.33,0,0,1-18.64,52.13,216.43,216.43,0,0,1-29.57,44.57,191.44,191.44,0,0,1-39.13,34.7A184.92,184.92,0,0,1,1468.39,713a179.13,179.13,0,0,1-54.22,8.06,182.3,182.3,0,0,1-52.84-7.56,193.88,193.88,0,0,1-47-21.22,190.9,190.9,0,0,1-39.58-32.89,203.29,203.29,0,0,1-30.19-42.76,228.71,228.71,0,0,1-19.41-50.49,225.15,225.15,0,0,1-6.93-56.25,243.9,243.9,0,0,1,6.46-56.08A237.43,237.43,0,0,1,1243.34,402a224.45,224.45,0,0,1,29.42-44.73,198,198,0,0,1,38.67-35.2,180.37,180.37,0,0,1,46.36-23,167.33,167.33,0,0,1,52.68-8.22q44.67,0,81.48,14.8t62.85,42.27q26,27.46,40.36,66.44T1609.48,501.35ZM1472.7,509.9a98.68,98.68,0,0,0-3.85-27.46,77.53,77.53,0,0,0-11.25-23.69A58.78,58.78,0,0,0,1439.27,442a48.65,48.65,0,0,0-25.1-6.42,57.93,57.93,0,0,0-25.88,5.6,59.67,59.67,0,0,0-19.56,15.29,68.05,68.05,0,0,0-12.48,22.7,86.48,86.48,0,0,0-4.31,27.46,106.67,106.67,0,0,0,3.69,27.63,84.7,84.7,0,0,0,11.09,25,60.55,60.55,0,0,0,18.33,18.09q10.93,6.92,25.42,6.91a55,55,0,0,0,26-6.09,59.51,59.51,0,0,0,19.56-16.44,77.07,77.07,0,0,0,12.33-23.85A91.38,91.38,0,0,0,1472.7,509.9Z"/><path class="cls-1" d="M1782,244.79l-25.26,346h-114l-11.7-346Zm-20.33,447.34a69.09,69.09,0,0,1-5.24,27,72.6,72.6,0,0,1-14,21.87,65.46,65.46,0,0,1-20.48,14.8,58.64,58.64,0,0,1-25,5.43,59.26,59.26,0,0,1-25.26-5.43,65.5,65.5,0,0,1-20.49-14.8,70.85,70.85,0,0,1-18.94-48.84,72.5,72.5,0,0,1,5.08-27A69.62,69.62,0,0,1,1651.22,643a68,68,0,0,1,20.49-15,57.8,57.8,0,0,1,25.26-5.6,57.19,57.19,0,0,1,25,5.6,67.91,67.91,0,0,1,20.48,15,71.61,71.61,0,0,1,14,22.21A70.69,70.69,0,0,1,1761.67,692.13Z"/><path class="cls-2" d="M808.26,266.29,779.92,718.52l-140.47,6.16,1.23-238.44L577.22,678.47H523L474.33,506.58l-.62,199.62-142.32,4.31,6.16-425.73,158.34-6.16,62.85,203.93,83.79-216.26Z"/><path class="cls-2" d="M1207.5,498A223.42,223.42,0,0,1,1201,552a211.38,211.38,0,0,1-18.64,48.83,202.09,202.09,0,0,1-29.57,41.74,187.92,187.92,0,0,1-39.12,32.5,190,190,0,0,1-101.51,28.65,193.78,193.78,0,0,1-52.83-7.08,201,201,0,0,1-47-19.87A188.72,188.72,0,0,1,872.8,646a191.38,191.38,0,0,1-30.19-40.05,206,206,0,0,1-19.41-47.28A198.22,198.22,0,0,1,816.27,506a214.62,214.62,0,0,1,6.47-52.52,212.39,212.39,0,0,1,18.64-48.52A209,209,0,0,1,870.8,363a193.48,193.48,0,0,1,38.66-33,185.25,185.25,0,0,1,46.36-21.56,177.73,177.73,0,0,1,52.68-7.71q44.65,0,81.48,13.87t62.84,39.58q26,25.72,40.36,62.23T1207.5,498Zm-136.78,8a86.58,86.58,0,0,0-3.85-25.72,70.6,70.6,0,0,0-11.24-22.18,57.59,57.59,0,0,0-18.33-15.71,51.24,51.24,0,0,0-25.11-6,61.28,61.28,0,0,0-25.87,5.24,59.28,59.28,0,0,0-19.57,14.32,62.83,62.83,0,0,0-12.47,21.26A76.26,76.26,0,0,0,950,502.88a94,94,0,0,0,3.69,25.88,77,77,0,0,0,11.09,23.41,59,59,0,0,0,18.33,16.94q10.93,6.46,25.42,6.47a58,58,0,0,0,26-5.7,58.73,58.73,0,0,0,19.56-15.4,70.53,70.53,0,0,0,12.32-22.34A80.52,80.52,0,0,0,1070.72,506Z"/><path class="cls-2" d="M1609.82,498a223.42,223.42,0,0,1-6.47,54.06,211.38,211.38,0,0,1-18.64,48.83,202.09,202.09,0,0,1-29.57,41.74,187.92,187.92,0,0,1-39.12,32.5,190,190,0,0,1-101.51,28.65,193.78,193.78,0,0,1-52.83-7.08,201,201,0,0,1-47-19.87A188.72,188.72,0,0,1,1275.12,646a191.38,191.38,0,0,1-30.19-40.05,206,206,0,0,1-19.41-47.28,198.22,198.22,0,0,1-6.93-52.68,214.62,214.62,0,0,1,6.47-52.52,212.39,212.39,0,0,1,18.64-48.52,209,209,0,0,1,29.42-41.9,193.76,193.76,0,0,1,38.66-33,185.25,185.25,0,0,1,46.36-21.56,177.73,177.73,0,0,1,52.68-7.71q44.65,0,81.48,13.87t62.84,39.58q26,25.72,40.36,62.23T1609.82,498ZM1473,506a86.58,86.58,0,0,0-3.85-25.72A70.6,70.6,0,0,0,1458,458.06a57.59,57.59,0,0,0-18.33-15.71,51.24,51.24,0,0,0-25.11-6,61.28,61.28,0,0,0-25.87,5.24,59.14,59.14,0,0,0-19.56,14.32,62.69,62.69,0,0,0-12.48,21.26,76.26,76.26,0,0,0-4.31,25.72,94,94,0,0,0,3.69,25.88,77,77,0,0,0,11.09,23.41,59,59,0,0,0,18.33,16.94q10.93,6.46,25.42,6.47a58,58,0,0,0,26-5.7,58.73,58.73,0,0,0,19.56-15.4,70.53,70.53,0,0,0,12.32-22.34A80.52,80.52,0,0,0,1473,506Z"/><path class="cls-2" d="M1782.33,257.67l-25.26,324.07h-114l-11.71-324.07Zm-20.33,419a61.14,61.14,0,0,1-5.24,25.26,67.81,67.81,0,0,1-14,20.49,65.87,65.87,0,0,1-20.49,13.86,62,62,0,0,1-25,5.08,62.68,62.68,0,0,1-25.26-5.08,65.26,65.26,0,0,1-34.35-34.35,62.68,62.68,0,0,1-5.08-25.26,65.56,65.56,0,0,1,18.94-46,68,68,0,0,1,20.49-14,61.14,61.14,0,0,1,25.26-5.24,60.44,60.44,0,0,1,25,5.24,68.08,68.08,0,0,1,20.49,14,66.79,66.79,0,0,1,14,20.79A62.57,62.57,0,0,1,1762,676.62Z"/></svg>