<svg id="Layer_1" data-name="Layer 1" xmlns="http://www.w3.org/2000/svg" viewBox="0 0 1920 1080"><defs><style>.cls-1{font-size:60px;font-family:VarelaRound-Regular, Varela Round;}.cls-2{letter-spacing:-0.01em;}.cls-3{letter-spacing:0em;}.cls-4{letter-spacing:-0.01em;}.cls-5{letter-spacing:-0.01em;}.cls-6{letter-spacing:0em;}.cls-7{letter-spacing:0em;}.cls-8{letter-spacing:-0.01em;}.cls-9{letter-spacing:-0.07em;}.cls-10{letter-spacing:-0.01em;}.cls-11{letter-spacing:0em;}.cls-12{letter-spacing:0em;}.cls-13{fill:#4d4d4d;}</style></defs><title>42-teeth</title><text class="cls-1" transform="translate(157.3 151.51)"><tspan class="cls-2">B</tspan><tspan x="41.16" y="0">ut I cann</tspan><tspan class="cls-3" x="287.7" y="0">o</tspan><tspan x="323.94" y="0">t sing,</tspan><tspan x="0" y="72">I h</tspan><tspan class="cls-4" x="69.24" y="72">a</tspan><tspan class="cls-5" x="102.42" y="72">v</tspan><tspan x="133.8" y="72">e n</tspan><tspan class="cls-6" x="219.9" y="72">o</tspan><tspan class="cls-7" x="256.14" y="72">thing </tspan><tspan class="cls-2" x="420.54" y="72">t</tspan><tspan x="443.04" y="72">o sha</tspan><tspan class="cls-8" x="594.17" y="72">r</tspan><tspan x="616.25" y="72">e</tspan></text><text class="cls-1" transform="translate(1187.3 184.51)"><tspan class="cls-9">Y</tspan><tspan x="33.84" y="0">ou can ma</tspan><tspan class="cls-10" x="329.1" y="0">k</tspan><tspan class="cls-11" x="361.26" y="0">e </tspan><tspan class="cls-12" x="410.82" y="0">m</tspan><tspan class="cls-11" x="465.66" y="0">usic,</tspan><tspan x="0" y="72">chomp this pear!</tspan></text><path class="cls-13" d="M630.57,609.82c-9.88,9.15-23.53,12.36-35.15,18.61a55,55,0,0,0-9.37,6.26c-1.49,1.24.65,3.35,2.12,2.12,10.33-8.63,23.94-11.69,35.45-18.3a49.7,49.7,0,0,0,9.07-6.57c1.42-1.32-.71-3.43-2.12-2.12Z"/><path class="cls-13" d="M630,607.37c-17.26-.66-34.51-1.43-51.74-2.68q-7.34-.54-14.68-1.19l1.45,1.1c-1.22-8.6-6.59-16.45-13.14-22a1.52,1.52,0,0,0-2.51.66,5.61,5.61,0,0,0,.29,4.13,2.44,2.44,0,0,0,2.7,1.18A2.39,2.39,0,0,0,554,586.2a5.34,5.34,0,0,0-2.12-3.55,1.52,1.52,0,0,0-2.51.66q-1.92,8-3.83,16c-.73,3.07-1,6.81-3,9.36-1.89,2.37-5.34,2.5-7.9,1.26-2.76-1.34-5-3.58-7.22-5.58-2.53-2.23-5.34-4.58-8.77-5.15a1.52,1.52,0,0,0-1.84,1.84,169.52,169.52,0,0,1,2.74,33.2c0,1.93,3,1.93,3,0a173.1,173.1,0,0,0-2.85-34l-1.84,1.85c3.13.53,5.58,2.73,7.87,4.77,2.46,2.19,4.92,4.6,8,5.93a9.7,9.7,0,0,0,9.74-.86c3-2.29,3.79-6.22,4.51-9.7,1.25-6.08,2.85-12.11,4.29-18.15l-2.51.66a7.37,7.37,0,0,1,1.2,1.37c.15.21-.06.16.07.05s.22-.39.55-.46a2.24,2.24,0,0,1,.48,0c.25,0,.15.22.15.09a6,6,0,0,1,.06-1.74l-2.51.66C556,590,561,597.23,562.16,605.4a1.52,1.52,0,0,0,1.45,1.1c17.14,1.53,34.31,2.52,51.5,3.27q7.46.32,14.92.6c1.93.08,1.93-2.92,0-3Z"/><path class="cls-13" d="M586.83,640.55q-5.58,28.31-11.17,56.63c-1.82,9.2-3.68,18.49-3.88,27.9A86.21,86.21,0,0,0,575.41,751a111.86,111.86,0,0,0,5.17,13.92c.86,1.93,1.69,3.8,3.46,5.07a3.68,3.68,0,0,0,4.8,0c1.47-1.26-.66-3.38-2.12-2.12-.74.64-2.28-1.72-2.53-2.19-1-1.83-1.72-3.78-2.49-5.69a105,105,0,0,1-4-11.73,81.45,81.45,0,0,1-2.92-24.56c.35-8.82,2.11-17.5,3.82-26.13l5.2-26.37,5.87-29.78c.37-1.88-2.52-2.69-2.89-.79Z"/><path class="cls-13" d="M625.55,612.17a3.52,3.52,0,0,0,.32-2.9A3.65,3.65,0,0,0,624,607a1.48,1.48,0,0,0-.76-.21,1.15,1.15,0,0,0-.58.13,1.45,1.45,0,0,0-.87,1,10.47,10.47,0,0,0-.22,2.56,4.57,4.57,0,0,0,1.17,2.85,3.68,3.68,0,0,0,4.39.47,2.77,2.77,0,0,0,1-1,2.65,2.65,0,0,0,.24-1.77,1.5,1.5,0,0,0-1.85-1,1.5,1.5,0,0,0-.89.69,1.69,1.69,0,0,0-.15,1.15v0l-.05-.4a1.4,1.4,0,0,1,0,.29l.05-.39a1,1,0,0,1-.06.23l.15-.36a.82.82,0,0,1-.12.2l.24-.3a3,3,0,0,1-.25.25l.3-.24a2.12,2.12,0,0,1-.36.21l.36-.16a2.34,2.34,0,0,1-.59.16l.4-.05a2.5,2.5,0,0,1-.67,0l.4.05a2.33,2.33,0,0,1-.52-.13l.36.15a1.79,1.79,0,0,1-.38-.22l.3.23a2.12,2.12,0,0,1-.33-.34l.23.3a2.73,2.73,0,0,1-.32-.55l.15.36a3.39,3.39,0,0,1-.22-.83l.05.4a6.34,6.34,0,0,1,0-1.74l-.06.4c0-.22.07-.43.11-.65l-2.21.9a2.38,2.38,0,0,1,.44.25l-.3-.23a2.79,2.79,0,0,1,.39.38l-.23-.3a2.39,2.39,0,0,1,.32.56l-.15-.36a2.65,2.65,0,0,1,.15.57l-.05-.4a2.81,2.81,0,0,1,0,.58l.05-.4a2.32,2.32,0,0,1-.13.47l.15-.36a1.38,1.38,0,0,1-.14.27,1.5,1.5,0,0,0,2.59,1.51Z"/><path class="cls-13" d="M562.89,619.72a3.6,3.6,0,0,0,3.25-2.84,4.12,4.12,0,0,0-1.38-4.15,7.71,7.71,0,0,0-4.75-1.55c-1.74,0-3.65.37-5.28.11a1.5,1.5,0,1,0-.8,2.89,21.91,21.91,0,0,0,4.79,0,13.76,13.76,0,0,1,2,0c.32,0-.15-.05.19,0,.14,0,.29,0,.43.09a4.71,4.71,0,0,1,.83.26c-.26-.11.14.08.16.09s.24.14.35.22c.32.2-.13-.17.13.11a4.11,4.11,0,0,1,.29.3c-.21-.24,0,0,0,.08.17.25,0-.25,0,.05,0,.11.06.22.08.32-.09-.36,0-.07,0,0a1.9,1.9,0,0,1,0,.34c0-.39,0-.07,0,0s-.1.28,0,.06c0,.09-.1.18-.15.28s-.07.12,0,0l-.11.12c-.29.17.12,0,0,0s-.38.18-.16.1-.49,0,0,0a1.54,1.54,0,0,0-1.5,1.5c0,.74.67,1.59,1.5,1.5Z"/><path class="cls-13" d="M580.15,614.63c1.9-2,1.09-5.15-.95-6.76-2.54-2-6-1.46-8.9-.86a1.5,1.5,0,0,0-1,1.84,1.53,1.53,0,0,0,1.84,1l1.78-.33.2,0,.45,0c.3,0,.6,0,.9,0a8.81,8.81,0,0,1,.89,0s.47.07.18,0l.43.08a8.16,8.16,0,0,1,.84.26c-.3-.1,0,0,.07,0a2.61,2.61,0,0,1,.28.17c.08,0,.35.25.06,0l.24.21a2.5,2.5,0,0,1,.23.23c.06.07.27.33.05,0a4.93,4.93,0,0,1,.34.54c.06.1.25.31,0,0a1.11,1.11,0,0,1,.1.29c0,.1.05.2.08.3.08.28,0-.32,0,0a2.08,2.08,0,0,1,0,.25c0,.05,0,.41,0,.14s0,.07,0,.13l-.05.14c.09-.19.11-.24.06-.14a1.1,1.1,0,0,0-.14.26c-.07.09,0,.06.08-.09l-.14.15a1.53,1.53,0,0,0,0,2.12,1.51,1.51,0,0,0,2.12,0Z"/><path class="cls-13" d="M563.92,647.49c-7.73,2.28-15.8,4.68-22.36,9.55-7,5.22-10.68,12.86-12.65,21.23a128.8,128.8,0,0,0,.26,58.26c2.49,10.74,6,21.54,4.85,32.71-.2,1.92,2.8,1.91,3,0,1-9.55-1.37-19-3.66-28.17a145,145,0,0,1-4.5-28.29,126.36,126.36,0,0,1,1.93-28.8c1.49-8.13,3.74-16.55,10-22.4,6.53-6.12,15.59-8.72,24-11.19,1.85-.55,1.06-3.44-.8-2.9Z"/><path class="cls-13" d="M505.48,763.18c11,6.63,22.74,13.6,29.56,24.87a30.52,30.52,0,0,1,4.63,17.21c-.1,2.93.61,5.29,3.4,6.63a21.57,21.57,0,0,1,7.12,5,17.13,17.13,0,0,1,3.9,7.17c.32,1.33.3,2.61-1,3.38a7.63,7.63,0,0,1-3.7.82c-3.37.11-6.79-.21-10.16-.34l-11-.45q-11.22-.48-22.43-1l-5.49-.27c-1.45-.07-3.47.09-4.55-1.09a9.79,9.79,0,0,1-1.52-3.5c-.6-1.79-1.16-3.6-1.69-5.41a147.13,147.13,0,0,1-5.74-47.07c.08-1.93-2.92-1.92-3,0a149.63,149.63,0,0,0,5,44.68,109.22,109.22,0,0,0,3.27,10.61,7.16,7.16,0,0,0,2.44,3.52,8.63,8.63,0,0,0,4.45,1.19c7.92.51,15.88.78,23.81,1.13s16,.68,23.94,1c2.69.11,5.79.22,8.15-1.34,2.84-1.88,2.66-5.21,1.63-8.08a21.27,21.27,0,0,0-4.73-7.57,27.38,27.38,0,0,0-7.56-5.13c-1.49-.77-1.62-2-1.58-3.51a38.47,38.47,0,0,0,0-4.68,32.24,32.24,0,0,0-2.39-9.31c-6.13-14.6-20.26-23.21-33.23-31-1.65-1-3.16,1.59-1.51,2.59Z"/><path class="cls-13" d="M581.91,771.54a29.25,29.25,0,0,1-9.32,15.14,30.76,30.76,0,0,1-7.71,4.93c-3.28,1.47-6.82,2.26-10.06,3.84-1.73.85-.21,3.43,1.52,2.59,3.34-1.63,7-2.43,10.4-4a33.62,33.62,0,0,0,8.25-5.49,32.05,32.05,0,0,0,9.81-16.23c.45-1.87-2.44-2.67-2.89-.79Z"/><path class="cls-13" d="M583.14,753.38l16.07,10.48c2.61,1.71,5.25,3.37,7.82,5.14a25.74,25.74,0,0,1,6,5.27c3.13,4.08,3.7,9.32,3.34,14.3a74.16,74.16,0,0,1-2.84,14.67c-1.41,4.91-3.62,9.84-8.28,12.41a1.51,1.51,0,0,0-.69,1.69c.79,2.81,3.73,2.5,5.9,3.48,1.47.66.23,1.94-.82,2.31-1.84.65-4.06.54-6,.61a100.11,100.11,0,0,1-39.13-6.39c-1.81-.68-2.59,2.22-.8,2.89a103.26,103.26,0,0,0,27.47,6.19,100.4,100.4,0,0,0,14.3.22c3.34-.18,9-.68,8.68-5.35-.11-1.84-1.6-2.94-3.22-3.49-.76-.26-3.25-.38-3.5-1.26l-.69,1.69c4.46-2.46,7.11-6.8,8.79-11.47a74.87,74.87,0,0,0,3.52-15.43c.71-5.36.61-11-1.83-15.93-2.69-5.46-8.08-8.64-13-11.85l-19.57-12.77c-1.62-1.06-3.13,1.54-1.52,2.59Z"/><path class="cls-13" d="M489.26,745.85A132.22,132.22,0,0,1,493.47,719a1.5,1.5,0,0,0-2.89-.8,136.57,136.57,0,0,0-4.32,27.69c-.1,1.93,2.9,1.92,3,0Z"/><path class="cls-13" d="M509.63,437.26c-7.54-15.94-23.07-28-41.21-27.61a35.94,35.94,0,0,0-23.84,9.71A51.82,51.82,0,0,0,431,441.19c-5.5,16.74-3.22,35.29,2.59,51.62a132.13,132.13,0,0,0,12.69,26,188.1,188.1,0,0,0,16.35,21.65c11.38,13.33,23.86,26.17,31.78,42q1.42,2.85,2.61,5.79c.71,1.77,3.61,1,2.89-.8-6.34-15.82-17.55-28.83-28.61-41.53-5.66-6.49-11.35-13-16.48-19.9a137.72,137.72,0,0,1-14.34-24.19c-7.13-15.48-11.5-33.14-8.86-50.22,2.48-16.1,12.25-33.5,29-37.87a37.19,37.19,0,0,1,25.49,2.92,45.19,45.19,0,0,1,18.06,16.87,54.89,54.89,0,0,1,2.85,5.29c.83,1.74,3.41.22,2.59-1.52Z"/><path class="cls-13" d="M510.85,433.41c-6.63-9.71-13.42-19.6-22.61-27.11-8.61-7-18.91-11.53-29.6-14.36-11.14-2.94-22.66-4.2-34.13-5.05q-20.7-1.54-41.49-1.59c-24.12-.07-50-.53-71.15,12.67-17.19,10.7-29.53,27.71-38.08,45.78a169.3,169.3,0,0,0-11.18,31c-3,12.05-4.4,24.81-1.48,37,2.88,12,10.08,22.34,17.49,32,7.07,9.23,14.18,18.48,22,27.1a128.77,128.77,0,0,0,25.81,22.44c10.58,6.74,22.5,10.7,33.73,16.14A93.09,93.09,0,0,1,387,629a135.84,135.84,0,0,1,18.77,25.48,303,303,0,0,1,14.45,28.69c5.1,11.31,10.28,22.68,14.24,34.45a115.84,115.84,0,0,1,4.71,18.52c1,6.43,1,12.86,1,19.35,0,11.18,1.71,22.78,11.58,29.61a18.2,18.2,0,0,0,13.43,3.12c1.9-.32,1.09-3.21-.8-2.9-5.26.87-10.29-1.53-13.95-5.22-4-4-5.93-9.11-6.72-14.61-.89-6.23-.4-12.55-.58-18.81a90.57,90.57,0,0,0-2.45-18.17c-2.82-12.07-7.66-23.55-12.6-34.87-4.2-9.61-8.43-19.21-13.18-28.57-9.18-18.1-20.59-35.61-36.87-48.13-9.18-7.06-19.62-11.61-30.19-16.14-11-4.72-21.36-10.14-30.58-17.87-8.6-7.2-16.12-15.57-23.19-24.23-7.35-9-14.84-18.14-21.13-27.92A68.42,68.42,0,0,1,265,514.51a57.78,57.78,0,0,1-2.48-18.62c.27-12.22,3.61-24.22,7.69-35.66,6.6-18.48,16.34-36.48,30.75-50.05a75.22,75.22,0,0,1,25.13-15.91c11.64-4.33,24.12-5.26,36.43-5.67q19.94-.64,39.88.07c12.45.45,25,1.11,37.31,2.71,11.07,1.43,22.24,3.8,32.43,8.47,10.45,4.79,18.9,12.1,26,21,3.59,4.51,6.84,9.27,10.09,14,1.09,1.59,3.69.09,2.59-1.51Z"/><path class="cls-13" d="M520.22,644.21a40.68,40.68,0,0,1-12.52-5.14c-3.31-2.06-7.3-4.83-7.42-9.13-.06-2.18.29-4.33-.29-6.47a11.61,11.61,0,0,0-2.64-4.67,15.75,15.75,0,0,0-9.62-4.84c-5.46-.7-10.84.92-16,2.53a1.52,1.52,0,0,0-.36,2.74l7,4.93c.6.42,1.22.82,1.79,1.27s.5.4.36,1c-.32,1.33-.81,2.63-1.14,4a62.36,62.36,0,0,0-1.93,16.15c.06,4.23.56,8.8,2.9,12.44s6.34,5.5,10.68,5.71c5.2.26,10.34-1.3,15.55-.72,1.91.21,1.9-2.79,0-3-4.51-.5-9,.57-13.45.73-4.25.15-8.33-.9-10.55-4.84-2.13-3.77-2.22-8.44-2.11-12.66a59.52,59.52,0,0,1,2.62-15.94c.37-1.2.82-2.44.24-3.66a7.27,7.27,0,0,0-2.65-2.42l-7.75-5.5-.36,2.75c7.29-2.29,17.71-5.25,23.22,2.17a8.31,8.31,0,0,1,1.61,5c0,2.16-.31,4.32.42,6.41,1.33,3.78,4.78,6.36,8,8.44a43.24,43.24,0,0,0,13.6,5.67c1.88.44,2.69-2.46.8-2.89Z"/><path class="cls-13" d="M591.31,663.35c9.4,2.85,19.5.87,28-3.71a47.07,47.07,0,0,0,6.11-3.93,27.33,27.33,0,0,0,5.45-5c1.64-2.15,1.85-4.66,2.79-7.11a9.91,9.91,0,0,1,4-4.78,11.68,11.68,0,0,1,6.81-1.51c2.5.05,5.11,0,7.24-1.49,4.27-3,2.34-8.62-2-10.36-2.44-1-5.16-.83-7.74-.84l-9.08,0c-4.92,0-11.08-1-14.63,3.28-1.6,1.92-2.47,4.27-3.81,6.36a16.64,16.64,0,0,1-5.13,5c-3.87,2.43-8.86,3.46-13.18,1.61-1.76-.75-3.29,1.83-1.52,2.59,7.59,3.25,16.44.09,21.39-6.27,2.46-3.17,3.48-8.42,7.93-9.36,2.48-.53,5.2-.24,7.72-.24l8.59,0c2.5,0,5.23-.27,7.66.4,1.72.47,4.18,2.33,3,4.39s-4,2-6,1.91a16.67,16.67,0,0,0-6.87.93,13.36,13.36,0,0,0-7.79,9.18,15.88,15.88,0,0,1-1.11,3.44,10.89,10.89,0,0,1-2.31,2.79,41.58,41.58,0,0,1-5.41,4.22c-8.56,5.66-19.28,8.63-29.34,5.58-1.85-.56-2.64,2.34-.8,2.9Z"/><path class="cls-13" d="M1103.92,833.69a376.13,376.13,0,0,1,6.86-75.08c4.6-24.21,9.2-48.36,14.89-72.35,5.62-23.65,12-47.13,18.85-70.44,6.36-21.52,12.35-43.17,20.5-64.1,7.87-20.19,17.76-39.9,31.42-56.83q2.5-3.09,5.16-6.05c1.28-1.44-.83-3.57-2.12-2.12-14.5,16.2-25.23,35.26-33.69,55.2-8.72,20.58-15.17,42-21.3,63.48-6.75,23.61-13.66,47.13-19.52,71q-8.88,36.17-15.51,72.82c-2.25,12.38-4.53,24.73-6,37.23a359.53,359.53,0,0,0-2.54,37.82c0,3.14,0,6.28,0,9.42a1.5,1.5,0,0,0,3,0Z"/><path class="cls-13" d="M1207.58,474.52a203.7,203.7,0,0,1,15.26-16.38,173.28,173.28,0,0,1,38.76-27.41A164.15,164.15,0,0,1,1324,412.92c28.9-2.29,57.85,3,85,12.79,34.33,12.41,66.72,31.46,93.66,56.14s48.06,55.49,59.42,90.32c11.88,36.41,12.89,75.48,4.44,112.74a253.27,253.27,0,0,1-19.4,54.19c-4.23,8.75-8.8,17.32-13.55,25.79-4.53,8.09-9.55,16-13,24.6-3.53,8.89-5.19,18.44-7.69,27.65s-5.16,18.44-8,27.58a542,542,0,0,1-20.25,55.36c-13.63,31.41-31.34,62.85-59.29,83.7-7.12,5.31-14.79,10.65-23.07,14-1.77.7-1,3.61.8,2.89,8.29-3.31,15.89-8.45,23.06-13.71A138.38,138.38,0,0,0,1445,970.18c11.62-12.38,21.16-26.6,29.24-41.5,18.56-34.21,30.93-71.78,41.17-109.2,2.57-9.38,4.28-19.11,7.74-28.22s9-17.63,13.84-26.24c9.53-17.1,18.41-34.7,24.93-53.19,12.7-36,16.73-75.17,10-112.82a208.39,208.39,0,0,0-47.37-98.88c-24-28-54.66-50.07-87.84-66-28.82-13.82-60-23.41-92.12-24.63a169.91,169.91,0,0,0-69.55,11.8A174.6,174.6,0,0,0,1229,448.78a166.54,166.54,0,0,0-21.88,21.67c-.54.65-1.06,1.31-1.61,1.95-1.25,1.46.86,3.59,2.12,2.12Z"/><path class="cls-13" d="M1440.37,604.13a107.3,107.3,0,0,1,29.07,49.28c2.55,9.38,4.33,20,.64,29.29-3.42,8.64-11.73,14.1-20.13,17.23-16.53,6.14-35.41,4.16-50.61-4.64A54.77,54.77,0,0,1,1380.06,677c-4.76-7.66-7.72-17-5.92-26.09s8.19-16.17,15.49-21.49c7.85-5.72,17.36-11.1,27.32-11.25a24.37,24.37,0,0,1,7.3,1c1.86.54,2.65-2.35.8-2.9-10.58-3.1-21.49,1-30.57,6.37-8.25,4.92-16.43,11.3-20.72,20.12-8.89,18.29,2.45,39.12,17.16,50.48a63.83,63.83,0,0,0,53,11.63c8.93-2.11,18.2-6.29,24.24-13.42,7-8.22,7.78-19.07,6.2-29.33a104.37,104.37,0,0,0-9.69-29.63,109,109,0,0,0-17-25.13q-2.52-2.77-5.22-5.35c-1.4-1.34-3.52.78-2.12,2.12Z"/><path class="cls-13" d="M1424.17,486.21c8.8,15.21,7.8,34.74-.91,49.74a55.86,55.86,0,0,1-16.5,17.84,41.15,41.15,0,0,1-12,6,21.37,21.37,0,0,1-13.36-.68c-7.8-2.88-14.59-9-19.53-15.53a58.25,58.25,0,0,1-.32-69.74,52.32,52.32,0,0,1,8.39-8.95,17.23,17.23,0,0,1,5.71-3.61c2.33-.71,4.68,0,6.9.77A215.22,215.22,0,0,1,1410,474.42q3.35,1.77,6.66,3.65a1.5,1.5,0,0,0,1.51-2.59,247.69,247.69,0,0,0-28.87-14c-4.51-1.83-9.86-4.7-14.81-2.94-4.18,1.49-7.8,5-10.8,8.18a61.38,61.38,0,0,0-16.09,49.2c2.18,17.2,11.77,34.05,26.83,43.1a29.92,29.92,0,0,0,13.66,4.57c5,.27,9.86-1.36,14.26-3.63a58.84,58.84,0,0,0,19.87-17c11-14.67,14.45-34.87,7.57-52.07a49.29,49.29,0,0,0-3-6.21,1.51,1.51,0,0,0-2.6,1.52Z"/><path class="cls-13" d="M1396.88,498.21c3.82-1.63,7.88-3.77,9.82-7.65,1.75-3.51,1.88-8.37-1.35-11.1s-7.62-2.34-10.94-.22a19.65,19.65,0,0,0-4.63,4.33,17.3,17.3,0,0,0-3.53,5.89,5.87,5.87,0,0,0,1.49,6.09,4.05,4.05,0,0,0,5.6.24c1.42-1.32-.71-3.43-2.12-2.12-.54.49-1.43-.18-1.84-.75-.83-1.15-.32-2.78.27-3.92a21.21,21.21,0,0,1,2.9-4.09,15.87,15.87,0,0,1,3.61-3.23c2.19-1.33,5.32-1.77,7.34.14s1.68,5.3.43,7.57c-1.76,3.21-5.34,4.86-8.57,6.23a1.51,1.51,0,0,0-.54,2.05,1.56,1.56,0,0,0,2.06.54Z"/><path class="cls-13" d="M1456.1,657.46a20.85,20.85,0,0,1,3,8.36,22,22,0,0,1,.1,4.59,17.08,17.08,0,0,1-.27,2q-.12.6-.27,1.2a1,1,0,0,0-.09.34c0,.47-.06-.1.1,0a11.17,11.17,0,0,0-1.57-.84,17.61,17.61,0,0,1-1.78-1.17,6.83,6.83,0,0,1-2.3-2.73c-1-2.4.59-4.57,2.34-6.09a17.74,17.74,0,0,1,3.58-2.42c.6-.31,2-1,2.49-.23.94,1.69,3.53.18,2.59-1.51-2-3.56-6.51-1.09-8.89.57-2.86,2-5.73,4.92-5.37,8.7s3.43,6.15,6.5,7.86a4.53,4.53,0,0,0,3,.84,2.88,2.88,0,0,0,2.17-2,18.82,18.82,0,0,0,.88-5.93,24.11,24.11,0,0,0-3.57-13.08c-1-1.64-3.62-.13-2.59,1.51Z"/><path class="cls-13" d="M1339.88,424.42c16.37-1.61,32.54,2.09,47.82,7.73s30.22,12.91,44.73,20.43c13.76,7.14,27,15.3,38.45,25.89A149.43,149.43,0,0,1,1497.57,512c16,27,24,58,26.13,89.08a269,269,0,0,1-.89,48.41c-1.55,13.9-4.64,28.13-11.82,40.3a55.37,55.37,0,0,1-13.52,15.52,75.27,75.27,0,0,1-18.61,10.36,195,195,0,0,1-20.2,6.56c-8.19,2.29-16.41,4.51-24.76,6.15a150.45,150.45,0,0,1-50.67,1c-16.84-2.43-33.3-7-49.53-12-15.63-4.88-31.17-10.16-46.28-16.52-7.6-3.21-15.09-6.69-22.4-10.53-6.79-3.56-13.72-7.26-19.79-12a40.77,40.77,0,0,1-13.18-17,67.26,67.26,0,0,1-4.31-21.27c-1-16.6,1-33.43,3.93-49.75s6.77-32.44,11.25-48.36a282.15,282.15,0,0,1,16.36-44.92c12.13-25.45,30.23-49.3,55.57-62.7a86.78,86.78,0,0,1,18.31-7.19,1.5,1.5,0,0,0-.8-2.89C1305,431.37,1283,451.74,1268,475c-17.74,27.44-27,59.48-34.33,91-4,17-7.23,34.13-8.53,51.52-1.12,15.1-1.52,31.51,4.57,45.7a43.51,43.51,0,0,0,13.57,17.23c6.24,4.85,13.28,8.67,20.25,12.32a348,348,0,0,0,45.76,19.53c16.17,5.71,32.6,11,49.25,15.08s33.86,6.93,51.09,6.6,34.17-4.53,50.8-9.21c13.79-3.88,27.8-8.44,39.19-17.43,23.84-18.79,27-52.65,27.68-80.8.77-32.93-4-66.38-17.23-96.74a168.58,168.58,0,0,0-22.6-37.87,142.17,142.17,0,0,0-33-30.13c-13.61-9-28.43-16.05-43.19-22.94-15.15-7.07-30.83-13.67-47.41-16.49a90.59,90.59,0,0,0-23.94-1c-1.9.19-1.92,3.19,0,3Z"/><path class="cls-13" d="M1371.06,993.22q2.7-9.12,4.67-18.42c.68-3.19,1.29-6.4,1.83-9.61a40.52,40.52,0,0,0,.94-8.56,11.15,11.15,0,0,0-7.13-10.24,14.5,14.5,0,0,0-12.23.93c-5.17,2.81-8.75,7.77-12.13,12.43l2.8.75c.66-11.47-2.33-23.9-10.27-32.53A25.67,25.67,0,0,0,1312,920.9a21.57,21.57,0,0,0-12.1,10.61l2.74.36c-2.91-7.15-5.95-14.68-11.59-20.16-4.67-4.52-11.37-6.94-17.81-5.29a13.47,13.47,0,0,0-8.26,6.09h2.59c-4.45-6.26-6.27-14-11.2-20-4-4.88-10.42-7.93-16.44-4.66a9.82,9.82,0,0,0-5.23,8l2.8-.75a125.11,125.11,0,0,0-6.94-13.23c-1.24-2-2.54-4.07-3.9-6a28.46,28.46,0,0,0-4.12-5.21,7.25,7.25,0,0,0-8.44-1.18c-2.49,1.34-4.29,3.76-6,5.92-2,2.47-4.17,5.51-7.29,6.59l1.9,1.45A26.28,26.28,0,0,0,1193.8,866,22.36,22.36,0,0,0,1175,861a23,23,0,0,0-10.41,5l2.5.66c-2.12-5.18-4.42-10.4-8-14.74a18.31,18.31,0,0,0-13.41-6.8c-4.31-.27-10.46.93-13.87-2.42-3.11-3.06-3-8.53-6.64-11.15-5.26-3.79-9.12,5.35-10.89,8.76-2.49,4.79-5.59,10.29-5,15.88.2,2,.87,4.27,2.71,5.43a4.93,4.93,0,0,0,2.85.73c1.65-.07,3.14-1,4.81-.69,2.63.54,4.46,3.21,5.58,5.45,1.38,2.76,2,5.85,3.14,8.7s2.66,5.37,5.23,7a11,11,0,0,0,6.85,1.51,12.31,12.31,0,0,0,10.91-9h-2.89c2.19,6.36,5,14.45,11.82,17.15,5.35,2.11,12.37,0,14-6l-2.74.36A111.29,111.29,0,0,0,1184.21,909c2,2.59,4.55,5.2,8.09,4.57,2.43-.44,4.25-2.35,5.79-4.14s3.4-4.7,6-5l-1.45-1.9c-1.59,7.64,3.3,15.2,10.18,18.36,8.65,4,18.4.52,26.55-3l-2.26-1.3c.53,13.82,12.35,25.93,26.15,26.92a22.31,22.31,0,0,0,11-2.08l-2.21-1.69c-2.21,6.47,1.36,13.1,6.66,16.83,6.26,4.42,13.92,3.43,20.57.43a73.4,73.4,0,0,0,11.9-7.24l-2.26-1.3c.35,5.8,3,12.7,9.1,14.6,5.09,1.6,11.28-1.6,12.16-7l-3-.4a87.37,87.37,0,0,0,5.63,28,1.51,1.51,0,0,0,2.5.66,27.11,27.11,0,0,0,8.26-14h-2.89c2.28,8.19.41,16.88,2.65,25.1,1.7,6.21,6.2,12.15,13.24,11.88a9.14,9.14,0,0,0,7.93-4.7c.91-1.7-1.67-3.22-2.59-1.52-1.48,2.77-4.64,3.7-7.59,3-3.64-.83-6-3.8-7.33-7.14-3.46-8.73-.92-18.49-3.42-27.44a1.51,1.51,0,0,0-2.89,0,24.42,24.42,0,0,1-7.49,12.67l2.51.66a85,85,0,0,1-5.52-27.15c0-1.6-2.66-2.14-2.94-.4a6.58,6.58,0,0,1-8.77,4.84c-4.46-1.72-6.34-7.25-6.6-11.61a1.51,1.51,0,0,0-2.25-1.29,73.83,73.83,0,0,1-11.9,7.24c-3.72,1.67-8.17,2.87-12.25,2-6.8-1.51-13-8.69-10.58-15.84.47-1.36-1.11-2.2-2.2-1.7-11.24,5.23-24.56-2-30-12.24a23.32,23.32,0,0,1-2.69-10,1.53,1.53,0,0,0-2.26-1.29c-7,3-15.67,6.29-23.18,3.16-5.76-2.4-10.47-8.68-9.14-15.11.18-.86-.41-2-1.44-1.9-3.22.34-5.35,2.61-7.33,4.95-1.55,1.82-3.85,5.18-6.68,4-2-.82-3.4-3.15-4.61-4.85q-2.24-3.15-4.24-6.44a116.49,116.49,0,0,1-7.15-13.76c-.54-1.22-2.44-.8-2.74.36-1.21,4.54-7,5.62-10.75,3.65-5.29-2.76-7.44-9.58-9.24-14.82a1.51,1.51,0,0,0-2.89,0,9.25,9.25,0,0,1-8,6.75,8.3,8.3,0,0,1-5.34-1.1c-2-1.24-3.17-3.46-4-5.57-2-4.89-2.79-10.5-7.13-14a8,8,0,0,0-6.68-1.86c-1.91.37-3.79,1.33-4.66-1-1.66-4.38,1.14-9.52,3-13.33q2-4.12,4.36-8c.83-1.35,2.33-3.78,3.93-2a17.6,17.6,0,0,1,2.56,4.92,17.41,17.41,0,0,0,3.15,5.4c3.2,3.27,8.08,3.29,12.34,3.32a28.15,28.15,0,0,1,7.5.68,14.71,14.71,0,0,1,6.46,4.11c3.9,4.07,6.25,9.5,8.36,14.65a1.53,1.53,0,0,0,2.51.66,19.68,19.68,0,0,1,21.29-2.5,22.62,22.62,0,0,1,11.6,17.79,1.52,1.52,0,0,0,1.9,1.45c5.54-1.92,8.11-7.59,12.14-11.4,1.73-1.63,3.86-2.62,6.06-1.19,1.71,1.12,2.87,3.05,4,4.69,1.28,1.84,2.5,3.71,3.68,5.61a126.54,126.54,0,0,1,7.44,14c.66,1.47,2.71.58,2.79-.76.2-3.14,2.79-5.44,5.71-6.19,3.39-.87,6.64.75,9.07,3,6.1,5.77,7.74,14.57,12.5,21.28a1.52,1.52,0,0,0,2.59,0c3.78-6.24,12.43-6.24,18.11-2.77,7.42,4.53,10.95,13.75,14.07,21.4.43,1.07,2.11,1.64,2.74.36,4-8.09,13.36-11.84,22-10.27,10,1.82,16.85,10.37,20,19.64a48,48,0,0,1,2.33,18.11c-.09,1.63,2,1.86,2.79.76,4.53-6.23,11-15,19.9-12.35,4,1.2,6.07,4.54,6,8.65a52.69,52.69,0,0,1-1.07,8.1q-.73,4.19-1.61,8.34c-1.31,6.2-2.88,12.35-4.67,18.43-.55,1.85,2.35,2.64,2.89.79Z"/><path class="cls-13" d="M1326.55,665.57c-2.45-6.37-9.57-7.54-15.6-7.82a97.66,97.66,0,0,0-13.36.32c-3.87.36-8,.68-11.57,2.39s-6.34,5.51-5.88,9.61c.21,1.9,3.21,1.92,3,0-.49-4.42,3.38-7,7.2-8a67.13,67.13,0,0,1,13.56-1.42,53.56,53.56,0,0,1,12.27.61c3,.63,6.29,2,7.48,5.06.69,1.79,3.59,1,2.9-.79Z"/><path class="cls-13" d="M1316.07,545a34,34,0,0,1-8.87-6.35c-2.36-2.35-5.39-5.53-6-8.94-.34-2,.41-4.06,1.08-5.93a42,42,0,0,1,2.23-5.11,41.57,41.57,0,0,1,6.56-9.28c1.31-1.41-.8-3.54-2.12-2.13a44.63,44.63,0,0,0-7.22,10.28,47.78,47.78,0,0,0-2.49,5.85,14,14,0,0,0-1,6.7c.62,4,3.76,7.6,6.51,10.39a36.57,36.57,0,0,0,9.76,7.11c1.72.86,3.25-1.73,1.52-2.59Z"/><path class="cls-13" d="M1328.69,650.07a130.49,130.49,0,0,0-13.91-36.84q-2.43-4.31-5.19-8.41c-.88-1.3-1.79-2.59-2.72-3.85s-2-2.32-2.4-3.67.89-2.9,1.53-4.14a37.85,37.85,0,0,0,2-4.77,70.1,70.1,0,0,0,2.51-9.88c1.57-8.16,3-16.36,4.49-24.53.35-1.89-2.54-2.7-2.89-.8-1.38,7.52-2.74,15-4.13,22.56a90.86,90.86,0,0,1-2.32,10.18,35.14,35.14,0,0,1-1.72,4.55,49.13,49.13,0,0,0-2.31,4.51c-1.13,3.24,1.35,5.76,3.11,8.19q2.88,4,5.45,8.23a124.4,124.4,0,0,1,8.93,17.8,129.24,129.24,0,0,1,6.62,21.66c.41,1.89,3.3,1.09,2.9-.79Z"/><path class="cls-13" d="M1315.42,648.73c-10.08.67-18.61-5.89-25.22-12.79a156.81,156.81,0,0,1-19.65-26.18,109.28,109.28,0,0,1-8-14.62,23.2,23.2,0,0,1-.63-16.11,46.7,46.7,0,0,1,15.16-22.55,42.5,42.5,0,0,1,27-9.93,1.5,1.5,0,0,0,0-3c-19.23-.11-36.64,13.23-43.66,30.77-2.12,5.3-3.4,11.13-2.25,16.81s4.32,10.75,7.15,15.64a176.88,176.88,0,0,0,20.58,28.85c7.49,8.44,17.58,16.91,29.58,16.11,1.92-.13,1.93-3.13,0-3Z"/><path class="cls-13" d="M1317.56,560.73c8.47,20.85,11.44,43.34,13.75,65.57.3,2.94.68,5.9.88,8.85.14,2,.32,5.06-1.56,6.38-1.57,1.1-.07,3.71,1.51,2.59,4.15-2.92,3.1-8.66,2.66-13-.6-5.92-1.21-11.83-1.94-17.72a267.07,267.07,0,0,0-6.2-34.62,152.34,152.34,0,0,0-6.2-18.86c-.72-1.76-3.62-1-2.9.8Z"/><path class="cls-13" d="M1292.09,539a113.9,113.9,0,0,0-28.37,16c-4.21,3.25-8.62,6.74-12,10.85-3.61,4.37-4.51,9.59-4.44,15.13.14,11.45,4,22.44,8.89,32.67,4.57,9.61,9.9,19.35,17.72,26.73,8.17,7.71,19.94,12.68,31.13,9.22,1.84-.57,1.06-3.46-.79-2.89-9.27,2.86-19.2-.73-26.37-6.8-7.65-6.48-12.84-15.29-17.31-24.13-4.82-9.54-9-19.76-10-30.5-.48-5-.72-10.95,2-15.45a26.58,26.58,0,0,1,4.76-5.4q2.85-2.69,5.9-5.18a110,110,0,0,1,29.73-17.35c1.78-.69,1-3.6-.8-2.9Z"/><path class="cls-13" d="M1169.79,512.16A163,163,0,0,1,1206.36,390a139,139,0,0,1,26.3-24.17,1.53,1.53,0,0,0,.31-2.36l-99.76-120.62-50.15-60.64c-16.53-20-32.88-40.16-49.61-60-3.15-3.74-7.48-7.91-12.6-8.42a8.33,8.33,0,0,0-8.91,7.52c-.61,4.69,1.53,9.54,4.41,13.14,3.61,4.49,8.43,8.36,9.28,14.4l1.84-1.84c-8.88-1.49-15.6,6.8-17,14.85-1.75,10.34,4.32,20.14,10.18,28.09l.89-2.2c-10,2.89-12.65,15.85-9.69,24.63,2,6,5.93,11,10.22,15.48,5.13,5.38,10.61,10.46,15.94,15.64,1.35,1.32,2.74,2.61,4.06,4,1.78,1.83,2.36,3.45,1.17,5.87a63.7,63.7,0,0,1-5.23,8c-3.33,4.77-7,9.87-8,15.72a18,18,0,0,0,3.9,14.46c3.16,4.08,7.46,7.32,10,11.87,3.2,5.71,1.17,11.74-1.22,17.33-2.48,5.8-5,11.49-4.23,17.95.79,6.93,4.14,13.35,7.16,19.53q4.89,10,10.49,19.68t11.8,18.79c2,2.9,4.3,5.78,5.47,9.12s.73,7.07-.06,10.58a67.41,67.41,0,0,0-1.93,10.14,30.74,30.74,0,0,0,.86,9.26c1.55,6.34,4.88,12.17,8.78,17.34s10,9.72,10.49,16.67c.23,3.5.09,7,.33,10.52s.64,6.75,1.18,10.1a110,110,0,0,0,13.57,38c1.67,2.86,3.49,5.62,5.42,8.31,1.12,1.55,3.72.06,2.59-1.51a107.67,107.67,0,0,1-19.85-56.37c-.19-3.37,0-6.79-.34-10.15a16.24,16.24,0,0,0-3.34-8.22c-3.9-5.19-8.47-9.62-11.74-15.32s-5.4-12.06-5-18.65,3.84-13.06,2.37-19.84a24.73,24.73,0,0,0-4.15-8.44c-2-3-4-5.9-6-8.9a310.59,310.59,0,0,1-21-37.94c-3-6.5-5.6-13.44-3.66-20.64,1.58-5.84,5-11.06,6.21-17A17.49,17.49,0,0,0,1045,299.4c-3-4-7.16-7.2-9.86-11.49-7.08-11.22,4.1-22.26,9.73-31.3,1.56-2.49,2.93-5.31,1.65-8.23s-4.39-5.14-6.61-7.3c-5.23-5.09-10.61-10.07-15.64-15.35-7.61-8-14.88-20.26-7.56-30.88a10.39,10.39,0,0,1,5.71-4.22,1.51,1.51,0,0,0,.9-2.2c-5.08-6.89-10.32-14.88-10-23.79.2-6.76,5.55-16.07,13.44-14.75a1.53,1.53,0,0,0,1.85-1.84c-1.34-9.57-11.94-14-13.53-23.36-.8-4.69,2.16-9.31,7.35-7.51,5,1.73,8.43,6.46,11.66,10.37L1081.48,185,1177,300.42l53.88,65.15.31-2.35a148.92,148.92,0,0,0-43.2,47.89A168.71,168.71,0,0,0,1167,474a158.42,158.42,0,0,0-.17,38.19c.22,1.89,3.23,1.92,3,0Z"/><path class="cls-13" d="M1564.4,742.88c15.13-27.07,24.2-57.27,27.54-88a246.51,246.51,0,0,0-7.4-92.3A222.82,222.82,0,0,0,1565,514.41l-.9,2.2L1639,501.2,1714,485.78l42.07-8.65-1.46-.39c5.85,4.82,5.43,14.05,1.88,20.12-4.45,7.59-13.44,10.93-21.51,13a1.52,1.52,0,0,0-1,1.84c1.8,8.53,11.56,10.35,17.26,15.41,2.92,2.6,4,6.18,2.45,9.87s-4.85,6.72-7.48,9.81c-2.45,2.87-5.06,6.33-4.74,10.33a8.83,8.83,0,0,0,.61,2.64c.57,1.42,1.61,2.63,2.09,4.07,1,3-2.08,6.24-4,8.19-4.45,4.45-10.22,7.29-14.7,11.72-4.19,4.14-7.66,9.9-7,16,.36,3.27,2.5,6.22,2.47,9.51,0,2.65-1.55,5-3,7.07a33.8,33.8,0,0,0-4,6.76c-1.12,2.92-.66,6-1.4,9-.84,3.39-4.15,4.76-7,6.22l-10.48,5.4-10.2,5.27c-2.75,1.42-6.16,2.64-8.1,5.16s-1.86,6-2.32,9.07a61.66,61.66,0,0,1-2.4,10,103.43,103.43,0,0,1-8.54,18.66c-6.81,12.08-14.24,24-22.08,35.41-14.65,21.36-34,42.56-60.22,48.66a59,59,0,0,1-9.16,1.37c-1.91.14-1.93,3.14,0,3,26.82-1.9,48.54-20.55,64.3-41,8.69-11.24,16.12-23.38,23.53-35.49,7.2-11.77,14.52-24,17.11-37.78.29-1.53.51-3.07.69-4.61s.26-3.55,1.14-5.05,2.38-2.19,3.8-2.93l5.37-2.77c6.94-3.58,13.91-7.12,20.82-10.75,2.64-1.38,5.12-3.07,6.24-6s.54-6.34,1.5-9.4c1.6-5.08,6.45-8.56,7.23-14,.49-3.4-1.15-6.19-2-9.36a12.85,12.85,0,0,1,1.19-9.27c3-6,8.61-9.46,13.83-13.31a40.5,40.5,0,0,0,6.77-6c2-2.29,4.12-5.21,3.76-8.42-.31-2.64-2.54-4.51-2.86-7.12a7.72,7.72,0,0,1,1.3-4.83c4-6.76,13.4-12.19,11.4-21.25-1.86-8.47-12.38-10.08-17.74-15.52a9.3,9.3,0,0,1-2.57-4.69l-1,1.85c6.63-1.68,13.29-4.09,18.51-8.65a22.44,22.44,0,0,0,7.77-16,18.59,18.59,0,0,0-1.58-8.55,14.35,14.35,0,0,0-2.12-3.31,10.14,10.14,0,0,0-1.47-1.46c-1-.73-1.64-.5-2.8-.26L1728,479.84l-105.45,21.69-59.25,12.19a1.51,1.51,0,0,0-.89,2.2,228.25,228.25,0,0,1,26.73,87.18,244.15,244.15,0,0,1-7.8,91,219.84,219.84,0,0,1-19.51,47.29c-1,1.69,1.64,3.21,2.59,1.52Z"/><path class="cls-13" d="M1001.36,293.77a31.85,31.85,0,0,0-25.91,4.47,32.2,32.2,0,0,0-9.34,9.44c-2.76,4.35-4,9.32-4.77,14.37-.84,5.62-1.16,11.4-3.09,16.79a27.26,27.26,0,0,1-8.2,11.4c-7.3,6.24-16.51,9.7-24.69,14.58-17.37,10.36-29.88,27.29-37,46a108.59,108.59,0,0,0-6.81,30.07c-.93,11.66.76,23.34,7.36,33.22,6,9,14.68,15.94,23.82,21.51a100.61,100.61,0,0,0,31.19,12.53c21,4.48,43.22,1.33,61.51-10.14a71.18,71.18,0,0,0,21.88-21.24,73.4,73.4,0,0,0,10.92-29.42,87.75,87.75,0,0,0-1.16-31.53c-2.45-11.19-7.63-21.37-11.58-32a65.43,65.43,0,0,1-4.17-16.37,45,45,0,0,1,1.75-16.71c3-10.51,8.68-20.56,9.59-31.6.67-8.15-1.59-17.19-7.11-23.38a17.27,17.27,0,0,0-9.82-5.67,17,17,0,0,0-2.76-.27,20.39,20.39,0,0,1-4.06,0c-2.65-.56-2.84-4.36-3.33-6.5q-2.14-9.3-4.28-18.61c-.43-1.88-3.33-1.08-2.89.8q2.13,9.3,4.28,18.61c.54,2.37.87,5.23,2.65,7.06,2,2,4.74,1.7,7.32,1.68,7.94-.05,13.23,6.7,15.51,13.66a32.49,32.49,0,0,1,1.53,12.19c-.35,5.14-2.08,10.19-3.8,15-3.69,10.35-8.3,20.62-7.72,31.87s5.36,21.62,9.6,31.86c4.1,9.93,7.27,20,8.11,30.79,1.61,20.51-4.29,41.65-18.81,56.64-14.13,14.59-34.38,22.43-54.57,22.39-21.79-.05-43.88-8.67-60.37-22.86-8-6.92-14.49-15.55-16.76-26.07-2.32-10.76-.85-22.34,1.66-32.95,4.5-19,14.19-37.13,29-50.05a75.83,75.83,0,0,1,11.75-8.39c4.11-2.39,8.39-4.47,12.56-6.74,8-4.34,16.14-9.72,19.93-18.36,4.32-9.85,2.29-21.46,7.48-31a29.91,29.91,0,0,1,20.29-14.57,26.87,26.87,0,0,1,12.51.45,1.5,1.5,0,0,0,.79-2.89Z"/></svg>