<svg id="Layer_1" data-name="Layer 1" xmlns="http://www.w3.org/2000/svg" viewBox="0 0 1920 1080"><defs><style>.cls-1{font-size:192.83px;font-family:SukhumvitSet-Text, Sukhumvit Set;}</style></defs><title>42-teeth</title><text class="cls-1" transform="translate(361.59 920.5)">Ding Ding Ding…</text><path d="M22.35,491.46l260-157.77c32.37-19.64,64.73-39.76,93.33-64.74,27-23.57,50.8-52.08,62.5-86.41,7.65-22.45,8.61-45.87,8.29-69.39-.35-26.39-1.63-53.27,6.9-78.66l-2.51.66c35.95,36.71,50.66,91.87,37.76,141.6a1.51,1.51,0,0,0,2.51,1.46,716.63,716.63,0,0,0,103.16-124l-2.75-.36c12,41.7,3.23,88-21.69,123.3a137.77,137.77,0,0,1-25.06,26.94,1.51,1.51,0,0,0,.67,2.51c20.43,5.14,41.56,3.27,62.4,4,19.85.72,40.88,4.51,54.93,19.8,11.69,12.72,17.11,30.91,15,48-2.25,18.25-13.7,33.4-30.2,41.29-17.84,8.53-39.77,8.18-56.56-2.61l.54,2.05c6.73-12.84,3-27.82-5.65-38.79-10.65-13.46-27.47-18.5-44.12-18.62a138.78,138.78,0,0,0-28.14,3.12c-7.73,1.54-16.1,3.24-22.29,8.48-10.88,9.22-8.75,25.44-1,35.94,11.78,15.93,34.05,16.93,52.1,17.18l-1.3-2.26c-17.61,30.79-61.06,39-91.48,23.38a58,58,0,0,1-21.88-19.33,1.52,1.52,0,0,0-2.59,0A2358.83,2358.83,0,0,0,200.91,751.79q-25.44,62.7-47.24,126.78c-.62,1.83,2.27,2.62,2.89.8A2356.93,2356.93,0,0,1,356.33,443.69q34.11-58,71.5-113.95h-2.59c20.72,31,66.76,36.49,97.43,17.61a61,61,0,0,0,21.11-21.67,1.51,1.51,0,0,0-1.29-2.25c-15-.21-32.71-.57-44.86-10.79-9.35-7.86-15.4-24.18-6.68-34.67,4.92-5.92,12.83-8,20-9.53a158.8,158.8,0,0,1,24.25-3.56c15.32-.88,32.14,1.52,43.79,12.37,10.8,10.05,17.25,26.47,10,40.36a1.53,1.53,0,0,0,.54,2.05c30.48,19.59,76.43,5.75,88.52-29.12,5.86-16.9,3.43-36.36-5.46-51.76-10.25-17.73-28.31-26.91-48.12-29.77-26-3.76-52.58,1.13-78.23-5.32l.67,2.51c34.05-28,53.49-72,53-116A141.3,141.3,0,0,0,594.43,53a1.53,1.53,0,0,0-2.75-.36A712.75,712.75,0,0,1,489,176.09l2.5,1.46C504.67,126.79,489.67,70.5,453,33a1.52,1.52,0,0,0-2.51.66c-14.59,43.42-.9,89.94-11.18,134-8.31,35.65-30.22,65.88-56.47,90.69-27.58,26.07-59.67,46.89-92,66.6q-62.7,38.26-125.59,76.21L20.83,488.87c-1.64,1-.14,3.6,1.52,2.59Z"/><path d="M562.73,345c1.44-4.14-.32-8.2-.06-12.39.12-1.91,1-3.8,3-4.26s4.29.69,5.83,2c3.7,3.07,4.46,8.38,6.71,12.41a15.72,15.72,0,0,0,9.53,7.49c4.2,1.24,8.68,1.2,13,1.11,5.62-.13,11.23-.1,16.84.28A130,130,0,0,1,650,357.78c18.54,6.16,35.74,17.73,46.55,34.23,10,15.28,12.77,33.58,15,51.34,2.16,17,3.82,34.71,11.74,50.17a57.39,57.39,0,0,0,16.32,19.63,73.86,73.86,0,0,0,23.65,11.52c18.41,5.55,37.84,6.32,56.7,9.54a319.88,319.88,0,0,1,64.88,18.3c5.35,2.14,10.69,4.37,15.88,6.87,1.13.55,2.39,1,2.74,2.32s-.45,2.75-.89,3.93c-.88,2.32-1.84,4.62-2.87,6.88a128.81,128.81,0,0,1-14.5,24.11c-11.52,15.2-26.12,28-42,38.46-36.71,24.28-79.81,35.89-121.42,48.71-43.7,13.46-87.39,29.67-133.34,33.25q-8.38.66-16.81.71c-2.1,0-5.82.6-6.47-2.12s-.36-5.74-.36-8.45a125.62,125.62,0,0,1,4.39-32.73A134.5,134.5,0,0,1,582,644.07c5.24-9.37,10.83-18.7,13.22-29.28,2.45-10.83,2-22.07,1.72-33.1-.29-10.21-.92-20.74-4.94-30.27-3.84-9.1-10.88-15.85-18.42-22s-15.28-12.2-21.72-19.73a105.71,105.71,0,0,1-24-52.46,104.69,104.69,0,0,1,24.71-83.72c1.27-1.44-.84-3.57-2.12-2.12a108.36,108.36,0,0,0-25.5,55.06,106.46,106.46,0,0,0,8,58.78,108.71,108.71,0,0,0,15.58,25.16c6.45,7.8,14.09,14.05,22,20.36S586.12,544.2,589.83,554c3.8,10.11,3.95,21.13,4.2,31.79.28,11.78.33,23.75-3.69,35-3.76,10.49-10.24,19.72-15.16,29.66a127.37,127.37,0,0,0-10.73,31.34c-2.16,10.68-3.33,22.08-2.33,33,.17,1.92.71,3.83,2.45,4.91,2.08,1.3,4.79,1.07,7.14,1.06,5.85,0,11.71-.29,17.54-.76a296.92,296.92,0,0,0,34.37-5c23.13-4.65,45.73-11.54,68.21-18.64,22.16-7,44.44-13.69,66.59-20.73,21.76-6.91,43.38-14.6,63.78-24.93,34.33-17.4,66.32-43.84,81.6-80,1.58-3.75,4.86-9.3.81-12.56-2-1.57-4.63-2.44-6.91-3.46q-3.81-1.7-7.65-3.3a319,319,0,0,0-66.39-19.57c-10.08-1.82-20.25-3-30.4-4.32-18.37-2.45-38.31-5.71-53.12-17.77-14.28-11.62-19.88-29.11-22.81-46.65-3-18-3.7-36.54-9.4-54-5.92-18.15-18.15-33-34.16-43.33-18.34-11.81-40.26-16.7-61.85-17.38-5.27-.17-10.53.15-15.79,0-4.56-.12-9.64-.75-13-4.09-3.59-3.52-4.25-8.85-6.83-13-2-3.22-5.67-5.95-9.58-6a7,7,0,0,0-6.92,6.38c-.54,4.19,1.51,8.47.07,12.56-.63,1.83,2.26,2.61,2.9.8Z"/><path d="M678.72,721.36c-.5,4.16,2.1,8.14.87,12.26-1,3.37-3.9,5.91-6.7,7.83a57.36,57.36,0,0,1-10.81,5.8c-4,1.61-8.6,2.73-12.69.79-1.73-.83-3.26,1.76-1.51,2.59,7.31,3.48,15.21-.19,21.75-3.72,5.29-2.85,11.57-6.83,13-13.12a13.59,13.59,0,0,0,0-5.68c-.44-2.26-1.17-4.42-.89-6.75.22-1.91-2.78-1.89-3,0Z"/><path d="M795.87,331.61a129.85,129.85,0,0,0,9.35,40.74,141,141,0,0,0,21.52,36.17,132.75,132.75,0,0,0,73.35,45.89c17.2,4.22,34.91,5.87,52.54,7.19l6.68.49c1.93.14,1.92-2.86,0-3-17.38-1.26-34.83-2.55-51.92-6.1-15.23-3.17-30-8.23-43.4-16.19a133.31,133.31,0,0,1-31.58-26.23,138.22,138.22,0,0,1-22.28-34.34,127.62,127.62,0,0,1-10.84-39.52q-.27-2.55-.42-5.1c-.12-1.92-3.13-1.93-3,0Z"/><path d="M452.61,531.52c12,20,14.22,44.38,10.2,67.06-4.3,24.32-15.76,46.56-29.18,67-7.75,11.83-16.2,23.18-24.66,34.52-1.15,1.55,1.45,3,2.59,1.51,15.34-20.55,30.81-41.32,41.78-64.62,10.22-21.7,16.22-45.76,13.79-69.85A89.24,89.24,0,0,0,455.2,530a1.5,1.5,0,0,0-2.59,1.51Z"/><path d="M856.76,321.54c5.38,21,15.27,41.28,30.57,56.83s35.91,25.25,57.82,25.54a66,66,0,0,0,34.29-8.76,1.5,1.5,0,0,0-1.51-2.59c-18.14,10.68-40.75,10.46-60,2.89-19.68-7.74-35-23.56-45.26-41.76a136,136,0,0,1-13-32.95c-.48-1.87-3.38-1.08-2.9.8Z"/><path d="M387.34,562a151.31,151.31,0,0,1-11.17,44.34,154.18,154.18,0,0,1-23.75,39.13,151.89,151.89,0,0,1-18.16,18.33c-1.47,1.25.66,3.37,2.12,2.12a154.45,154.45,0,0,0,30.54-35.34A158,158,0,0,0,385.65,588a153.52,153.52,0,0,0,4.69-26c.18-1.92-2.82-1.91-3,0Z"/></svg>