<svg id="Layer_1" data-name="Layer 1" xmlns="http://www.w3.org/2000/svg" viewBox="0 0 1920 1080"><defs><style>.cls-1{stroke:#fff;stroke-miterlimit:10;stroke-width:10px;}.cls-2{font-size:65.66px;font-family:Slackey-Regular, Slackey;}.cls-3{font-size:125.24px;font-family:SukhumvitSet-Text, Sukhumvit Set;}.cls-4{fill:#4d4d4d;}</style></defs><title>42-teeth</title><path class="cls-1" d="M581.79,342.9l-6.47,103.27-32.08,1.41.28-54.45L529,437H516.65l-11.12-39.26-.14,45.59-32.5,1,1.41-97.22,36.16-1.41,14.35,46.57,19.13-49.38Z"/><path class="cls-1" d="M673,395.8a50.81,50.81,0,0,1-1.48,12.35,48.24,48.24,0,0,1-4.25,11.15,46.35,46.35,0,0,1-6.76,9.53,42.89,42.89,0,0,1-8.93,7.42,43.32,43.32,0,0,1-23.18,6.54,44.12,44.12,0,0,1-12.06-1.61,46,46,0,0,1-10.73-4.54,42.91,42.91,0,0,1-9-7,43.64,43.64,0,0,1-6.9-9.14,47.15,47.15,0,0,1-4.43-10.8,45.47,45.47,0,0,1-1.58-12,49.31,49.31,0,0,1,5.73-23.07,47.65,47.65,0,0,1,6.72-9.57,44.31,44.31,0,0,1,8.83-7.53,42.29,42.29,0,0,1,10.59-4.92,40.66,40.66,0,0,1,12-1.76,52.38,52.38,0,0,1,18.6,3.16,39.45,39.45,0,0,1,23.57,23.25A50.59,50.59,0,0,1,673,395.8Zm-31.23,1.83a20,20,0,0,0-.88-5.87,16.16,16.16,0,0,0-2.57-5.07,13.21,13.21,0,0,0-4.19-3.59,11.73,11.73,0,0,0-5.73-1.37,14,14,0,0,0-5.91,1.2A13.75,13.75,0,0,0,618,386.2a14.24,14.24,0,0,0-2.84,4.85,17.41,17.41,0,0,0-1,5.88,21.53,21.53,0,0,0,.84,5.91,17.55,17.55,0,0,0,2.54,5.34,13.32,13.32,0,0,0,4.18,3.87,11.16,11.16,0,0,0,5.81,1.48,13.22,13.22,0,0,0,5.94-1.3,13.42,13.42,0,0,0,4.47-3.52,16.21,16.21,0,0,0,2.81-5.1A18.3,18.3,0,0,0,641.73,397.63Z"/><path class="cls-1" d="M764.84,395.8a51.31,51.31,0,0,1-1.48,12.35,48.73,48.73,0,0,1-4.26,11.15,45.93,45.93,0,0,1-6.75,9.53,43.11,43.11,0,0,1-19.73,12.24,43.52,43.52,0,0,1-12.38,1.72,44.14,44.14,0,0,1-12.07-1.61,46.21,46.21,0,0,1-10.73-4.54,43.17,43.17,0,0,1-9-7,43.94,43.94,0,0,1-6.89-9.14,46.71,46.71,0,0,1-4.43-10.8,45.06,45.06,0,0,1-1.59-12,49.16,49.16,0,0,1,1.48-12,48.43,48.43,0,0,1,4.26-11.08A47.65,47.65,0,0,1,688,365a44,44,0,0,1,8.82-7.53,42.29,42.29,0,0,1,10.59-4.92,40.66,40.66,0,0,1,12-1.76A52.48,52.48,0,0,1,738,353.94a39.39,39.39,0,0,1,23.56,23.25A50.38,50.38,0,0,1,764.84,395.8Zm-31.24,1.83a19.64,19.64,0,0,0-.88-5.87,16.16,16.16,0,0,0-2.57-5.07A13.18,13.18,0,0,0,726,383.1a11.78,11.78,0,0,0-5.73-1.37,13.93,13.93,0,0,0-5.91,1.2,13.54,13.54,0,0,0-4.47,3.27,14.43,14.43,0,0,0-2.85,4.85,17.41,17.41,0,0,0-1,5.88,21.54,21.54,0,0,0,.85,5.91,17.53,17.53,0,0,0,2.53,5.34,13.35,13.35,0,0,0,4.19,3.87,11.12,11.12,0,0,0,5.8,1.48,13.26,13.26,0,0,0,6-1.3,13.48,13.48,0,0,0,4.46-3.52,16.23,16.23,0,0,0,2.82-5.1A18.56,18.56,0,0,0,733.6,397.63Z"/><text class="cls-2" transform="translate(796.17 421.48)">Quack!</text><path class="cls-1" d="M476.79,509.9l-6.47,103.27-32.08,1.41.28-54.45L424,604H411.65l-11.12-39.26-.14,45.59-32.5,1,1.41-97.22,36.16-1.41,14.35,46.57,19.13-49.38Z"/><path class="cls-1" d="M568,562.8a50.81,50.81,0,0,1-1.48,12.35,48.24,48.24,0,0,1-4.25,11.15,46.35,46.35,0,0,1-6.76,9.53,42.89,42.89,0,0,1-8.93,7.42,43.32,43.32,0,0,1-23.18,6.54,44.12,44.12,0,0,1-12.06-1.61,46,46,0,0,1-10.73-4.54,42.91,42.91,0,0,1-9-7,43.64,43.64,0,0,1-6.9-9.14,47.15,47.15,0,0,1-4.43-10.8,45.47,45.47,0,0,1-1.58-12,49.31,49.31,0,0,1,5.73-23.07,47.65,47.65,0,0,1,6.72-9.57,44.31,44.31,0,0,1,8.83-7.53,42.29,42.29,0,0,1,10.59-4.92,40.66,40.66,0,0,1,12-1.76,52.38,52.38,0,0,1,18.6,3.16,39.45,39.45,0,0,1,23.57,23.25A50.59,50.59,0,0,1,568,562.8Zm-31.23,1.83a20,20,0,0,0-.88-5.87,16.16,16.16,0,0,0-2.57-5.07,13.21,13.21,0,0,0-4.19-3.59,11.73,11.73,0,0,0-5.73-1.37,14,14,0,0,0-5.91,1.2A13.75,13.75,0,0,0,513,553.2a14.24,14.24,0,0,0-2.84,4.85,17.41,17.41,0,0,0-1,5.88,21.53,21.53,0,0,0,.84,5.91,17.55,17.55,0,0,0,2.54,5.34,13.32,13.32,0,0,0,4.18,3.87,11.16,11.16,0,0,0,5.81,1.48,13.22,13.22,0,0,0,5.94-1.3,13.42,13.42,0,0,0,4.47-3.52,16.21,16.21,0,0,0,2.81-5.1A18.3,18.3,0,0,0,536.73,564.63Z"/><path class="cls-1" d="M659.84,562.8a51.31,51.31,0,0,1-1.48,12.35,48.73,48.73,0,0,1-4.26,11.15,45.93,45.93,0,0,1-6.75,9.53,43.11,43.11,0,0,1-19.73,12.24,43.52,43.52,0,0,1-12.38,1.72,44.14,44.14,0,0,1-12.07-1.61,46.21,46.21,0,0,1-10.73-4.54,43.17,43.17,0,0,1-9-7,43.94,43.94,0,0,1-6.89-9.14,46.71,46.71,0,0,1-4.43-10.8,45.06,45.06,0,0,1-1.59-12,49.16,49.16,0,0,1,1.48-12,48.43,48.43,0,0,1,4.26-11.08A47.65,47.65,0,0,1,583,532a44,44,0,0,1,8.82-7.53,42.29,42.29,0,0,1,10.59-4.92,40.66,40.66,0,0,1,12-1.76A52.48,52.48,0,0,1,633,520.94a39.39,39.39,0,0,1,23.56,23.25A50.38,50.38,0,0,1,659.84,562.8Zm-31.24,1.83a19.64,19.64,0,0,0-.88-5.87,16.16,16.16,0,0,0-2.57-5.07A13.18,13.18,0,0,0,621,550.1a11.78,11.78,0,0,0-5.73-1.37,13.93,13.93,0,0,0-5.91,1.2,13.54,13.54,0,0,0-4.47,3.27,14.43,14.43,0,0,0-2.85,4.85,17.41,17.41,0,0,0-1,5.88,21.54,21.54,0,0,0,.85,5.91,17.53,17.53,0,0,0,2.53,5.34,13.35,13.35,0,0,0,4.19,3.87,11.12,11.12,0,0,0,5.8,1.48,13.26,13.26,0,0,0,6-1.3,13.48,13.48,0,0,0,4.46-3.52,16.23,16.23,0,0,0,2.82-5.1A18.56,18.56,0,0,0,628.6,564.63Z"/><text class="cls-2" transform="translate(706.17 588.48)">Quack!</text><path class="cls-1" d="M502.79,190.9l-6.47,103.27-32.08,1.41.28-54.45L450,285H437.65l-11.12-39.26-.14,45.59-32.5,1,1.41-97.22,36.16-1.41,14.35,46.57,19.13-49.38Z"/><path class="cls-1" d="M594,243.8a50.81,50.81,0,0,1-1.48,12.35,48.24,48.24,0,0,1-4.25,11.15,46.35,46.35,0,0,1-6.76,9.53,42.89,42.89,0,0,1-8.93,7.42,43.32,43.32,0,0,1-23.18,6.54,44.12,44.12,0,0,1-12.06-1.61,46,46,0,0,1-10.73-4.54,42.91,42.91,0,0,1-9-7,43.64,43.64,0,0,1-6.9-9.14,47.15,47.15,0,0,1-4.43-10.8,45.47,45.47,0,0,1-1.58-12,49.31,49.31,0,0,1,5.73-23.07,47.65,47.65,0,0,1,6.72-9.57,44.31,44.31,0,0,1,8.83-7.53,42.29,42.29,0,0,1,10.59-4.92,40.66,40.66,0,0,1,12-1.76,52.38,52.38,0,0,1,18.6,3.16,39.45,39.45,0,0,1,23.57,23.25A50.59,50.59,0,0,1,594,243.8Zm-31.23,1.83a20,20,0,0,0-.88-5.87,16.16,16.16,0,0,0-2.57-5.07,13.21,13.21,0,0,0-4.19-3.59,11.73,11.73,0,0,0-5.73-1.37,14,14,0,0,0-5.91,1.2A13.75,13.75,0,0,0,539,234.2a14.24,14.24,0,0,0-2.84,4.85,17.41,17.41,0,0,0-1,5.88,21.53,21.53,0,0,0,.84,5.91,17.55,17.55,0,0,0,2.54,5.34,13.32,13.32,0,0,0,4.18,3.87,11.16,11.16,0,0,0,5.81,1.48,13.22,13.22,0,0,0,5.94-1.3,13.42,13.42,0,0,0,4.47-3.52,16.21,16.21,0,0,0,2.81-5.1A18.3,18.3,0,0,0,562.73,245.63Z"/><path class="cls-1" d="M685.84,243.8a51.31,51.31,0,0,1-1.48,12.35,48.73,48.73,0,0,1-4.26,11.15,45.93,45.93,0,0,1-6.75,9.53,43.11,43.11,0,0,1-19.73,12.24,43.52,43.52,0,0,1-12.38,1.72,44.14,44.14,0,0,1-12.07-1.61,46.21,46.21,0,0,1-10.73-4.54,43.17,43.17,0,0,1-9-7,43.94,43.94,0,0,1-6.89-9.14,46.71,46.71,0,0,1-4.43-10.8,45.06,45.06,0,0,1-1.59-12,49.16,49.16,0,0,1,1.48-12,48.43,48.43,0,0,1,4.26-11.08A47.65,47.65,0,0,1,609,213a44,44,0,0,1,8.82-7.53,42.29,42.29,0,0,1,10.59-4.92,40.66,40.66,0,0,1,12-1.76A52.48,52.48,0,0,1,659,201.94a39.39,39.39,0,0,1,23.56,23.25A50.38,50.38,0,0,1,685.84,243.8Zm-31.24,1.83a19.64,19.64,0,0,0-.88-5.87,16.16,16.16,0,0,0-2.57-5.07A13.18,13.18,0,0,0,647,231.1a11.78,11.78,0,0,0-5.73-1.37,13.93,13.93,0,0,0-5.91,1.2,13.54,13.54,0,0,0-4.47,3.27,14.43,14.43,0,0,0-2.85,4.85,17.41,17.41,0,0,0-1,5.88,21.54,21.54,0,0,0,.85,5.91,17.53,17.53,0,0,0,2.53,5.34,13.35,13.35,0,0,0,4.19,3.87,11.12,11.12,0,0,0,5.8,1.48,13.26,13.26,0,0,0,6-1.3,13.48,13.48,0,0,0,4.46-3.52,16.23,16.23,0,0,0,2.82-5.1A18.56,18.56,0,0,0,654.6,245.63Z"/><text class="cls-2" transform="translate(720.17 261.48)">Quack!</text><text class="cls-3" transform="translate(1038.29 609.5)">Ding</text><path d="M1484,852.6l88.59-53.75c21-12.73,45.18-27.56,53.54-52.09,2.64-7.72,3-15.81,2.87-23.9-.12-8.91-.57-18,2.31-26.54l-2.51.66a50.45,50.45,0,0,1,12.61,47.28,1.51,1.51,0,0,0,2.51,1.46,245.4,245.4,0,0,0,35.3-42.45l-2.74-.36a49,49,0,0,1-7.29,41.25,46.35,46.35,0,0,1-8.38,9,1.5,1.5,0,0,0,.66,2.5c7,1.78,14.33,1.15,21.52,1.41,6.51.24,13.41,1.44,18,6.46a19.79,19.79,0,0,1,4.83,15.64,17.06,17.06,0,0,1-9.8,13.22,19,19,0,0,1-18.28-.89l.54,2c2.49-4.75,1.2-10.24-2-14.31-3.8-4.84-9.83-6.69-15.81-6.74a48.81,48.81,0,0,0-9.85,1.1c-2.83.56-5.77,1.23-8,3.14-4,3.43-3.37,9.52-.49,13.45,4.23,5.77,12,6.25,18.6,6.34l-1.29-2.26c-5.73,10-19.93,12.69-29.82,7.61a18.71,18.71,0,0,1-7.1-6.23,1.52,1.52,0,0,0-2.59,0,804.83,804.83,0,0,0-76.53,144.56q-8.67,21.36-16.1,43.19c-.62,1.83,2.28,2.62,2.9.8a800.62,800.62,0,0,1,68-148.21q11.63-19.76,24.36-38.82H1620c7.36,11,23.62,13.08,34.55,6.36a21.87,21.87,0,0,0,7.55-7.74,1.52,1.52,0,0,0-1.3-2.26c-4.85-.07-10.64-.12-14.58-3.39-2.78-2.3-4.83-7.22-2.28-10.41,1.53-1.9,4.13-2.5,6.39-3a52.68,52.68,0,0,1,8-1.18c5-.28,10.45.41,14.22,3.92,3.34,3.11,5.51,8.22,3.24,12.56a1.53,1.53,0,0,0,.54,2.05c11,7,27.3,1.95,31.62-10.51a22.7,22.7,0,0,0-2-18.4c-3.61-6.25-10-9.59-17-10.6-8.84-1.28-17.93.38-26.65-1.81l.66,2.51c11.79-9.72,18.52-25,18.34-40.22a49.19,49.19,0,0,0-1.9-12.93,1.52,1.52,0,0,0-2.74-.36,241.58,241.58,0,0,1-34.83,41.85l2.51,1.46a53.56,53.56,0,0,0-13.39-50.2,1.51,1.51,0,0,0-2.5.66c-5,14.81-.31,30.64-3.81,45.67-2.8,12-10.16,22.12-19,30.46-9.33,8.82-20.2,15.86-31.13,22.53q-21.36,13.05-42.79,26L1482.53,850c-1.65,1-.14,3.6,1.51,2.59Z"/><path d="M1668.61,802.13c.43-1.36.09-2.63,0-4-.08-1.62,1.3-.81,1.9.06.87,1.27,1.11,2.86,2,4.11a6.49,6.49,0,0,0,4,2.44,20,20,0,0,0,4.51.26c1.94,0,3.88,0,5.82.14a42.39,42.39,0,0,1,11,2.25,28.66,28.66,0,0,1,15,11.62c3.2,5.22,4,11.46,4.72,17.43.73,5.72,1.41,11.65,4.17,16.83,2.92,5.48,8,8.92,13.9,10.7,6.1,1.87,12.54,2.16,18.81,3.19a109.29,109.29,0,0,1,22.32,6.17q2.63,1,5.19,2.22c.13.06.9.33,1,.49-.11-.22-.38.71-.38.69-.31.84-.66,1.67-1,2.48a43.24,43.24,0,0,1-5,8.14,57.63,57.63,0,0,1-14,12.67c-12.41,8.12-26.91,12-40.93,16.33-14.75,4.55-29.52,10-45,11.27-1.87.14-3.74.23-5.6.24a3.74,3.74,0,0,1-1.25,0c-.51-.23,0,.31-.21-.22a4.21,4.21,0,0,1,0-1.33c0-.59,0-1.18,0-1.78a41,41,0,0,1,1.68-10.95,47.81,47.81,0,0,1,4.45-10.12c1.71-3,3.44-6.11,4.19-9.54a46.46,46.46,0,0,0,.59-11.36c-.1-3.48-.3-7.08-1.6-10.36-2.55-6.42-9.17-9.43-13.57-14.37a34.47,34.47,0,0,1-.25-45.54c1.26-1.45-.85-3.58-2.12-2.12a37.46,37.46,0,0,0-.91,48.42,46.83,46.83,0,0,0,7.53,7.09c2.72,2.18,5.44,4.52,6.65,7.91s1.25,7.3,1.32,11c.08,4,0,8-1.52,11.74-1.41,3.53-3.65,6.67-5.25,10.11a44.82,44.82,0,0,0-3.47,10.9,49,49,0,0,0-.67,5.67,20.07,20.07,0,0,0,.14,5.69c.41,1.63,1.86,2.16,3.39,2.2a58.53,58.53,0,0,0,6.07-.21,102.42,102.42,0,0,0,12-1.63,219.08,219.08,0,0,0,23.59-6.39c7.67-2.42,15.37-4.73,23-7.16a147.7,147.7,0,0,0,22.07-8.65c12-6.09,23-15.38,28.24-28,.59-1.42,1.43-3.12.37-4.54s-3.15-1.88-4.61-2.5a113.12,113.12,0,0,0-11.25-4.14,137.41,137.41,0,0,0-22.64-4.48c-6.21-.81-13.11-1.83-18.11-5.94s-6.57-10.09-7.51-16.08c-1-6.21-1.24-12.63-3.4-18.59a29.08,29.08,0,0,0-12.52-14.91c-6.52-4-14.22-5.5-21.77-5.61-3,0-7.42,1-9-2.34-.7-1.43-1.08-3-2.3-4.13a4.51,4.51,0,0,0-4-1.27,3.38,3.38,0,0,0-2.5,2.85c-.21,1.41.46,2.87,0,4.23-.59,1.84,2.31,2.63,2.89.8Z"/><path d="M1746.1,797.29a47.59,47.59,0,0,0,36.28,42.8c6.67,1.63,13.57,2.15,20.4,2.64,1.93.14,1.92-2.86,0-3-11-.79-22.31-1.72-32-7.46a45.48,45.48,0,0,1-17.86-20,42.39,42.39,0,0,1-3.84-15c-.12-1.92-3.12-1.93-3,0Z"/><path d="M1629.29,865.9c4,6.74,4.72,14.88,3.3,22.49-1.51,8.06-5.32,15.42-9.79,22.23-2.63,4-5.51,7.88-8.38,11.73-1.16,1.55,1.45,3,2.59,1.52,10.06-13.49,20.94-28.75,19-46.52a32,32,0,0,0-4.18-13,1.5,1.5,0,0,0-2.59,1.52Z"/><path d="M1766.89,794.12c1.91,7.37,5.39,14.5,10.81,19.94a29.38,29.38,0,0,0,20.33,8.85,23.66,23.66,0,0,0,12.11-3.12,1.5,1.5,0,0,0-1.51-2.59c-6,3.47-13.33,3.39-19.66.89-6.48-2.55-11.51-7.82-14.87-13.8a46.06,46.06,0,0,1-4.32-11,1.5,1.5,0,0,0-2.89.8Z"/><path d="M1606.91,875.79a51.59,51.59,0,0,1-17.79,34c-1.47,1.25.66,3.37,2.12,2.12a54.64,54.64,0,0,0,18.67-36.11c.19-1.92-2.81-1.91-3,0Z"/><path d="M931.75,766.9a143.13,143.13,0,0,1-62.15-66.09l-2.05,2.06,33.59,23.9,16.63,11.83c4.84,3.44,9.87,7.89,15.83,9.16,5.76,1.24,11.23-1.19,16-4.17a101.13,101.13,0,0,0,13.92-10.73c8.8-7.89,16.83-16.75,26.67-23.4,9.37-6.32,21.42-11.48,32.91-8.67,9.32,2.27,18.31,10.25,19.54,20.12,1.44,11.46-9,18.77-16.56,25.44a170.34,170.34,0,0,0-22.74,24.59,172.09,172.09,0,0,0-29.28,59.83c-3.14,11.83-5.28,24.49-2.49,36.61A46.28,46.28,0,0,0,985.72,891c13.95,12.76,33.08,18.5,50.86,23.61,22.24,6.39,44.1,13.61,65.37,22.78a487.82,487.82,0,0,1,62.89,32.74,481.29,481.29,0,0,1,57.67,41.73q6.6,5.55,13,11.35l1.06-2.56-128.89-8.27q-32.12-2.07-64.23-4.13c-20.7-1.34-41.41-2.76-62-5.22-20.37-2.44-40.69-5.87-60.49-11.29-16.71-4.57-33.95-11.4-44.71-25.69-18.3-24.3-14-60.08,1.72-84.49,8.58-13.31,20-24.51,30.06-36.67,9.22-11.16,18-23.64,20.57-38.21a51.68,51.68,0,0,0,.72-10.69,1.53,1.53,0,0,0-1.1-1.44l-88.23-25.68-.4,2.94a325,325,0,0,1,84.38,3.51c1.89.33,2.7-2.56.8-2.89a327.63,327.63,0,0,0-85.18-3.62,1.51,1.51,0,0,0-.39,2.95l88.22,25.68-1.1-1.45c.57,15.55-6.84,29.26-16,41.28-9.6,12.56-20.94,23.67-30.4,36.34-17.77,23.79-25.31,57.82-11.54,85.35,7.54,15.08,21.23,24.78,36.65,30.77a198.11,198.11,0,0,0,27.25,7.94c10.26,2.38,20.63,4.31,31,5.9,42,6.41,84.66,8,127,10.69l130.48,8.37,15.81,1a1.52,1.52,0,0,0,1.07-2.56,487.88,487.88,0,0,0-183-104.34c-19-5.86-39-9.93-56.23-20.16C990.63,892,983.58,886,979,878.05c-6.13-10.58-6.58-23-4.6-34.79,3.78-22.53,13.35-44.37,26.12-63.22A168.61,168.61,0,0,1,1022.34,754c4-3.91,8.33-7.46,12.49-11.21,3.78-3.42,7.39-7.26,9.39-12,3.79-9,.12-18.84-6.71-25.31-7.67-7.25-17.88-9.55-28.12-7.61-24.19,4.57-38.26,26.85-57.06,40.37-4.77,3.43-10.64,7.56-16.82,6.87s-11.65-5.78-16.54-9.26l-33.59-23.9-16.32-11.6c-1.34-1-2.61.84-2,2.05a147.08,147.08,0,0,0,45.58,55.94,143,143,0,0,0,17.65,11.22c1.69.91,3.21-1.68,1.51-2.59Z"/><path d="M995.2,1013.68l-42.1,41.93-12,12a1.5,1.5,0,0,0,2.12,2.13l42.1-41.94,12-12a1.5,1.5,0,0,0-2.12-2.12Z"/><path d="M978.5,733.92c2.25-4.92,5.83-12.26,12.39-11.45,7.67.95,10.32,9.67,12.09,15.93a1.5,1.5,0,0,0,2.89-.8c-2.14-7.55-5.57-17-14.61-18.08-8-1-12.52,6.69-15.35,12.88-.8,1.75,1.79,3.27,2.59,1.52Z"/><path class="cls-4" d="M378.09,742.36c4.88-19.33-11.16-36.07-25.15-46.82-8.26-6.35-17.2-12-27.14-15.29-10.35-3.47-21.36-4.38-32.2-4.78-16.89-.62-39.29-2.3-48.71,15.15-3.85,7.15-4.47,15.52-4.66,23.48-.21,8.54.24,17.23-1.49,25.65A61.12,61.12,0,0,1,233.5,754c-2.35,4.84-4.72,9.64-6.79,14.6A181.57,181.57,0,0,0,216.79,800c-2.25,10.29-3.89,21-2.54,31.55a45.57,45.57,0,0,0,11.54,25.3c13.52,14.77,34.16,19.55,53.51,17.64a108.9,108.9,0,0,0,49.37-17.91,123.66,123.66,0,0,0,35.24-35.76,116.38,116.38,0,0,0,17.72-46.6,110.1,110.1,0,0,0,1.05-12.3c.05-1.93-2.95-1.93-3,0a109.62,109.62,0,0,1-12.12,46.57,121.58,121.58,0,0,1-30.15,37.84,110.86,110.86,0,0,1-42.48,22.3c-18.62,4.94-39.77,5.16-56.61-5.3a45.93,45.93,0,0,1-17.22-18.58c-4.42-9.07-4.89-19.45-3.88-29.31a155.15,155.15,0,0,1,6.71-30.56,216.89,216.89,0,0,1,12.16-29.34,66.63,66.63,0,0,0,5.32-14,70.6,70.6,0,0,0,1.52-12.12c.41-8.18-.08-16.41.88-24.56.89-7.56,3.51-15,9.55-19.94,6.72-5.53,16-6.6,24.34-6.77,4.76-.09,9.52.07,14.27.22,5.35.18,10.71.45,16,1.08a77.84,77.84,0,0,1,29.33,9.19,110.55,110.55,0,0,1,23.53,17.59c6.39,6.31,12.24,13.93,14.38,22.82a26.17,26.17,0,0,1,0,12.47c-.48,1.87,2.42,2.67,2.89.8Z"/><path class="cls-4" d="M263.42,709.58a12.5,12.5,0,0,1-.53-12.33c1.95-3.84,6.83-7.62,11.14-5,3.53,2.14,5,7,5,10.94,0,5.39-2,11.33-7.12,13.86a8,8,0,0,1-7.88-.11,6.45,6.45,0,0,1-3.06-6.45c.38-1.88-2.51-2.69-2.9-.79-1.29,6.38,4.61,11.94,10.86,11.28,7.05-.75,11.59-7,12.71-13.57.95-5.64.06-12.34-4.34-16.44-4.76-4.43-11.61-2.45-15.35,2.3a15.62,15.62,0,0,0-1.08,17.84c1.06,1.61,3.65.11,2.59-1.52Z"/><path class="cls-4" d="M353.83,786.57A34.86,34.86,0,0,1,341,771.25c-.44-1-1.48-3.19-.25-4.07,1.07-.77,2.78-.25,3.87.16a14.05,14.05,0,0,1,6.3,5.29,45.89,45.89,0,0,1,4.7,9.27A1.55,1.55,0,0,0,357.5,783a1.51,1.51,0,0,0,1.05-1.85c-2.62-6.53-6-14-13.09-16.65a7.8,7.8,0,0,0-5.32-.27,4.42,4.42,0,0,0-2.89,4.35,14.49,14.49,0,0,0,1.94,5.82,35.56,35.56,0,0,0,3.19,5.29,38.51,38.51,0,0,0,9.94,9.53c1.61,1.06,3.12-1.53,1.51-2.6Z"/><path class="cls-4" d="M355,747.82a44.66,44.66,0,0,1-5.84-8.92c-1.27-2.59-3-5.86-.71-8.38a6.68,6.68,0,0,1,7.06-1.78c2.81.91,5,3.28,6.46,5.76,2.07,3.53,3,7.56,4.47,11.36.68,1.79,3.58,1,2.89-.8-2.69-7.13-4.61-16.21-12.72-19.11a9.72,9.72,0,0,0-9.67,1.86,7.7,7.7,0,0,0-2.48,4,9.54,9.54,0,0,0,.83,5.73,47.17,47.17,0,0,0,7.59,12.36c1.25,1.48,3.36-.65,2.12-2.12Z"/><path class="cls-4" d="M399,748.61a114,114,0,0,0,41.83,42.63c19.1,11.15,41.11,15.94,63,17a250.36,250.36,0,0,0,34-.85c5.81-.5,11.66-1.21,17.5-.65a30.59,30.59,0,0,1,15.29,6.1,84.88,84.88,0,0,1,11.62,10.81,128.24,128.24,0,0,1,9.57,11.61,138.52,138.52,0,0,1,15,26.16,136.41,136.41,0,0,1,11.37,59c-.35,10.36-1.35,21.73-6.72,30.85-4.89,8.31-13.36,13.51-22.29,16.57-10,3.42-20.64,4.67-31.12,5.22a195.27,195.27,0,0,1-34.94-1.41c-23.65-3-46.71-9.77-69-18.06-10.6-3.95-21.15-8.15-31.4-13-9.82-4.62-19.44-9.94-28-16.72S379.5,909,373.34,900.28s-11.53-17.61-17.89-26a116.34,116.34,0,0,0-10-11.7,1.5,1.5,0,0,0-2.13,2.12C358.5,880,367.46,900.16,382,916c15,16.38,35.38,26,55.59,34.23,22.34,9.13,45.33,17,69.06,21.68,23,4.51,46.91,6,70.1,2,9.4-1.62,19-4.46,26.87-10a36.92,36.92,0,0,0,9.74-10,44.69,44.69,0,0,0,5.91-15.46A118.71,118.71,0,0,0,621,907.34a140.58,140.58,0,0,0-34.3-83.23c-6.81-7.74-14.84-16.24-25-19.21-5.76-1.67-11.85-1.51-17.77-1-5.75.46-11.49,1-17.27,1.31-22.8,1.13-46.15-.52-67.68-8.62a110.1,110.1,0,0,1-57.36-49.45c-.94-1.69-3.53-.18-2.59,1.51Z"/><path class="cls-4" d="M446.54,864.09c6.84,2.09,14,4.38,19.69,8.93a21.49,21.49,0,0,1,6.37,8.14c1.54,3.57,2.09,7.48,2.91,11.24.91,4.16,2.21,8.19,5,11.5,1.24,1.48,3.36-.65,2.12-2.13-2.49-3-3.49-6.82-4.29-10.54s-1.47-7.76-3.05-11.4c-3-6.87-9.27-11.35-15.92-14.32a104.07,104.07,0,0,0-12-4.31c-1.85-.57-2.64,2.32-.8,2.89Z"/><path class="cls-4" d="M449.63,843.93a52.26,52.26,0,0,0,35.74-16.18c1.33-1.4-.79-3.52-2.12-2.12a49.18,49.18,0,0,1-33.62,15.3c-1.92.07-1.93,3.07,0,3Z"/><path class="cls-4" d="M515.07,808.88A69.63,69.63,0,0,1,524.45,772c.58-1,1.18-2,1.81-2.94s1.22-2,2.5-1.16c3.4,2.29,4.66,7.26,4.86,11.09.26,5-.78,9.89-2,14.65a1.5,1.5,0,0,0,2.89.8c2.36-8.89,4.47-20.72-2.82-28-1.9-1.9-4.76-2.79-6.79-.54a34.9,34.9,0,0,0-4.46,7.24,72.92,72.92,0,0,0-8.33,35.73c0,1.92,3,1.93,3,0Z"/><path class="cls-4" d="M486.83,975.09q-10.2,8.52-20,17.53c-1.56,1.44-3.22,2.84-4.68,4.4a5.64,5.64,0,0,0-1.8,4.51,8.56,8.56,0,0,0,2.51,4.49,37.56,37.56,0,0,0,4.08,3.9,39.26,39.26,0,0,0,19.78,8.76c6,.74,13.42-.76,16-7,1.69-4,.78-8.61-.13-12.73a82.7,82.7,0,0,0-4.56-14.06,1.53,1.53,0,0,0-2.06-.54,1.55,1.55,0,0,0-.53,2.06,78.42,78.42,0,0,1,3.76,11.27c.84,3.34,1.8,7,1.38,10.44-.76,6.25-7.08,8-12.5,7.65-6.22-.42-12.41-3.15-17.41-6.76a34.82,34.82,0,0,1-3.73-3.12,17.5,17.5,0,0,1-3.18-3.59c-.9-1.57-.13-2.6,1-3.72,1.35-1.32,2.76-2.6,4.15-3.88q9.78-9,20-17.53c1.48-1.24-.65-3.35-2.12-2.12Z"/><path d="M248.58,654.61a211.71,211.71,0,0,0-13.45-46.68c-2.87-6.87-5.85-14-10-20.18-3.62-5.42-8.62-10.18-15.32-11.09-7.62-1-15.06,2.8-21.27,6.79-2.8,1.8-5.57,4-6.91,7.13a8.49,8.49,0,0,0,.77,8,6.21,6.21,0,0,0,8.07,1.94,15.82,15.82,0,0,0,6.8-7c3.29-6.26,3.12-13.59,1.17-20.23-2.3-7.86-6.48-15.2-10.06-22.53l-11.52-23.61L174,521.36c-.84-1.73-3.43-.21-2.59,1.52,6.9,14.13,14,28.17,20.68,42.43,2.88,6.19,5.42,13,4.6,19.92a19.09,19.09,0,0,1-2.86,8.18c-1.36,2.1-4.29,5.42-7.12,4.81-2.25-.48-3.07-3.46-2.68-5.43.57-2.93,3.34-5,5.67-6.54,5.57-3.65,12.36-7.42,19.26-6.7,6,.64,10.47,5.07,13.65,9.87,3.73,5.63,6.48,12,9.12,18.17a210.86,210.86,0,0,1,13.93,47.81c.32,1.9,3.21,1.1,2.89-.79Z"/><path d="M847.92,707.24q-19.7-20.21-37.68-42-5.13-6.22-10.11-12.57a1.52,1.52,0,0,0-2.56,1.07,183,183,0,0,0,7.76,34l1.84-1.84a152.36,152.36,0,0,1-20-4.51,1.53,1.53,0,0,0-1.85,1.85,27,27,0,0,0,10.6,17.48l.76-2.79q-18.27,1.54-36.54,3a1.51,1.51,0,0,0-.4,2.95l13.36,5.58a45.46,45.46,0,0,1,6.26,2.67c1.67,1-.54,2.23-1.57,2.7-1.83.84-3.8,1.42-5.66,2.19s-3.84,1.66-5.72,2.57a103.1,103.1,0,0,0-11,6.17,109.83,109.83,0,0,0-11.48,8.54c-1.07.91-.12,2.48,1.06,2.56l62.57,4.39c1.92.13,1.92-2.87,0-3L745,733.9l1.07,2.56a103.4,103.4,0,0,1,23.64-15.08q3.18-1.47,6.47-2.71c1.88-.71,3.83-1.28,5.35-2.66a3.88,3.88,0,0,0,1.08-4.76c-1-1.85-3.44-2.45-5.25-3.21l-16.82-7L760.1,704q18.27-1.46,36.54-3a1.52,1.52,0,0,0,.75-2.8,24,24,0,0,1-9.21-15.69l-1.85,1.84a151.13,151.13,0,0,0,20,4.51c1,.16,2.24-.65,1.85-1.85a179.33,179.33,0,0,1-7.65-33.23L798,654.81q17.43,22.19,36.67,42.88,5.49,5.89,11.12,11.67c1.35,1.38,3.47-.74,2.12-2.12Z"/><path d="M1558.4,275.85c-.82-4.58-6.22-6.69-10.31-5.25-4.67,1.64-7.84,6.49-8.77,11.19s.19,9.94,4.21,12.92c3.27,2.42,8.17,3.09,11.68.75,4.25-2.85,4.62-8.35,4.81-13q.4-9.66.78-19.34c.5-12.42,1.42-25-.16-37.36-.22-1.71-.47-3.42-.79-5.12-.17-.93-1.12-3.12-.15-3.74a7.26,7.26,0,0,1,2.27-.49l2.43-.43,5.34-.94,21.36-3.76c1.9-.34,1.09-3.23-.8-2.9l-17.23,3-8.5,1.5-4.12.72a6,6,0,0,0-3,1.22c-1.9,1.72-.84,4.45-.44,6.58.51,2.77.87,5.56,1.11,8.36a153.79,153.79,0,0,1,.35,16.77c-.28,11.63-.89,23.27-1.36,34.9-.15,3.9,0,9.68-4,11.79-3.2,1.65-7.63.09-9.52-2.85-2.76-4.28-1.54-10.29,1.58-14.05,1.49-1.79,3.68-3.42,6.12-3.25a4.5,4.5,0,0,1,4.3,3.53c.34,1.89,3.23,1.09,2.89-.8Z"/><path d="M1336.4,718.85c-.82-4.58-6.22-6.69-10.31-5.25-4.67,1.64-7.84,6.49-8.77,11.19s.19,9.94,4.21,12.92c3.27,2.42,8.17,3.09,11.68.75,4.25-2.85,4.62-8.35,4.81-13q.4-9.66.78-19.34c.5-12.42,1.42-25-.16-37.36-.22-1.71-.47-3.42-.79-5.12-.17-.93-1.12-3.12-.15-3.74a7.26,7.26,0,0,1,2.27-.49l2.43-.43,5.34-.94,21.36-3.76c1.9-.34,1.09-3.23-.8-2.9l-17.23,3-8.5,1.5-4.12.72a6,6,0,0,0-3,1.22c-1.9,1.72-.84,4.45-.44,6.58.51,2.77.87,5.56,1.11,8.36a153.79,153.79,0,0,1,.35,16.77c-.28,11.63-.89,23.27-1.36,34.9-.15,3.9,0,9.68-4,11.79-3.2,1.65-7.63.09-9.52-2.85-2.76-4.28-1.54-10.29,1.58-14,1.49-1.79,3.68-3.42,6.12-3.25a4.5,4.5,0,0,1,4.3,3.53c.34,1.89,3.23,1.09,2.89-.8Z"/><path d="M190.4,243.85c-.82-4.58-6.22-6.69-10.31-5.25-4.67,1.64-7.84,6.49-8.77,11.19s.19,9.94,4.21,12.92c3.27,2.42,8.17,3.09,11.68.75,4.25-2.85,4.62-8.35,4.81-13q.4-9.66.78-19.34c.5-12.42,1.42-25-.16-37.36-.22-1.71-.47-3.42-.79-5.12-.17-.93-1.12-3.12-.15-3.74a7.26,7.26,0,0,1,2.27-.49l2.43-.43,5.34-.94,21.36-3.76c1.9-.34,1.09-3.23-.8-2.9l-17.23,3-8.5,1.5-4.12.72a6,6,0,0,0-3,1.22c-1.9,1.72-.84,4.45-.44,6.58.51,2.77.87,5.56,1.11,8.36a153.79,153.79,0,0,1,.35,16.77c-.28,11.63-.89,23.27-1.36,34.9-.15,3.9.05,9.68-4,11.79-3.2,1.65-7.63.09-9.52-2.85-2.76-4.28-1.54-10.29,1.58-14.05,1.49-1.79,3.68-3.42,6.12-3.25a4.5,4.5,0,0,1,4.3,3.53c.34,1.89,3.23,1.09,2.89-.8Z"/><path d="M1806.16,749.94c-3.38,3.41-7,7.1-8.17,11.9-1.07,4.26-.18,9.06,3.49,11.79a12,12,0,0,0,11.09,1.21c4.08-1.56,6.88-5.08,8.46-9.05,1.88-4.75,1.85-9.95,1.35-15-.58-5.75-1.31-11.42-1.38-17.2s.23-11.44.62-17.14c.1-1.47.21-2.93.32-4.4a11,11,0,0,1,.49-3.58c.43-1,1.38-1.08,2.31-1.22,1.56-.22,3.14-.38,4.7-.57l39.34-4.83-1.5-1.5q2,21.78,3.69,43.59c.28,3.64.55,7.27.81,10.91a21.94,21.94,0,0,1-.32,7.32c-.52,1.92-1.66,3.86-3.92,3.72-2.74-.16-5.72-2.51-7.53-4.43a9.79,9.79,0,0,1-2.93-8,7,7,0,0,1,4.57-5.9c1.84-.56,1.06-3.45-.8-2.89-5.75,1.74-8.16,8.67-6.07,14a16.46,16.46,0,0,0,6,7.32c2.6,1.86,6.13,3.69,9.34,2.4,5.48-2.21,4.94-9.85,4.6-14.59q-.92-12.52-1.94-25-1.17-14.25-2.49-28.48c-.07-.73-.64-1.61-1.5-1.5L1835.63,703l-8.41,1c-2.17.27-4.93.19-6.58,1.87s-1.53,3.95-1.68,6c-.2,2.69-.4,5.38-.56,8.08-.34,5.54-.53,11.09-.34,16.64s1.09,10.78,1.49,16.19c.34,4.6.13,9.42-2,13.59-1.83,3.48-5,6.16-9,6.31-4.57.16-8-2.91-7.91-7.57.1-5.37,4.2-9.45,7.73-13a1.5,1.5,0,0,0-2.12-2.12Z"/><path d="M1605.16,536.94c-3.38,3.41-7,7.1-8.17,11.9-1.07,4.26-.18,9.06,3.49,11.79a12,12,0,0,0,11.09,1.21c4.08-1.56,6.88-5.08,8.46-9.05,1.88-4.75,1.85-9.95,1.35-15-.58-5.75-1.31-11.42-1.38-17.2s.23-11.44.62-17.14c.1-1.47.21-2.93.32-4.4a11,11,0,0,1,.49-3.58c.43-1,1.38-1.08,2.31-1.22,1.56-.22,3.14-.38,4.7-.57l39.34-4.83-1.5-1.5q2,21.78,3.69,43.59c.28,3.64.55,7.27.81,10.91a21.94,21.94,0,0,1-.32,7.32c-.52,1.92-1.66,3.86-3.92,3.72-2.74-.16-5.72-2.51-7.53-4.43a9.79,9.79,0,0,1-2.93-8,7,7,0,0,1,4.57-5.9c1.84-.56,1.06-3.45-.8-2.89-5.75,1.74-8.16,8.67-6.07,14a16.46,16.46,0,0,0,6,7.32c2.6,1.86,6.13,3.69,9.34,2.4,5.48-2.21,4.94-9.85,4.6-14.59q-.92-12.52-1.94-25-1.17-14.25-2.49-28.48c-.07-.73-.64-1.61-1.5-1.5L1634.63,490l-8.41,1c-2.17.27-4.93.19-6.58,1.87s-1.53,3.95-1.68,6c-.2,2.69-.4,5.38-.56,8.08-.34,5.54-.53,11.09-.34,16.64s1.09,10.78,1.49,16.19c.34,4.6.13,9.42-2,13.59-1.83,3.48-5,6.16-9,6.31-4.57.16-8-2.91-7.91-7.57.1-5.37,4.2-9.45,7.73-13a1.5,1.5,0,0,0-2.12-2.12Z"/><path d="M1179.16,222.94c-3.38,3.41-7,7.1-8.17,11.9-1.07,4.26-.18,9.06,3.49,11.79a12,12,0,0,0,11.09,1.21c4.08-1.56,6.88-5.08,8.46-9.05,1.88-4.75,1.85-9.95,1.35-15-.58-5.75-1.31-11.42-1.38-17.2s.23-11.44.62-17.14c.1-1.47.21-2.93.32-4.4a11,11,0,0,1,.49-3.58c.43-1,1.38-1.08,2.31-1.22,1.56-.22,3.14-.38,4.7-.57l39.34-4.83-1.5-1.5q2,21.78,3.69,43.59c.28,3.64.55,7.27.81,10.91a21.94,21.94,0,0,1-.32,7.32c-.52,1.92-1.66,3.86-3.92,3.72-2.74-.16-5.72-2.51-7.53-4.43a9.79,9.79,0,0,1-2.93-7.95,7,7,0,0,1,4.57-5.9c1.84-.56,1.06-3.45-.8-2.89-5.75,1.74-8.16,8.67-6.07,14a16.46,16.46,0,0,0,6,7.32c2.6,1.86,6.13,3.69,9.34,2.4,5.48-2.21,4.94-9.85,4.6-14.59q-.92-12.53-1.94-25-1.17-14.25-2.49-28.48c-.07-.73-.64-1.61-1.5-1.5L1208.63,176l-8.41,1c-2.17.27-4.93.19-6.58,1.87s-1.53,3.95-1.68,6c-.2,2.69-.4,5.38-.56,8.08-.34,5.54-.53,11.09-.34,16.64s1.09,10.78,1.49,16.19c.34,4.6.13,9.42-2,13.59-1.83,3.48-5,6.16-9,6.31-4.57.16-8-2.91-7.91-7.57.1-5.37,4.2-9.45,7.73-13a1.5,1.5,0,0,0-2.12-2.12Z"/><path d="M107.16,973.94c-3.38,3.41-7,7.1-8.17,11.9-1.07,4.26-.18,9.06,3.49,11.79a12,12,0,0,0,11.09,1.21c4.08-1.56,6.88-5.08,8.46-9.05,1.88-4.75,1.85-9.95,1.35-15-.58-5.75-1.31-11.42-1.38-17.2s.23-11.44.62-17.14c.1-1.47.21-2.93.32-4.4a11,11,0,0,1,.49-3.58c.43-1,1.38-1.08,2.31-1.22,1.56-.22,3.14-.38,4.7-.57l39.34-4.83-1.5-1.5q2,21.78,3.69,43.59c.28,3.64.55,7.27.81,10.91a21.94,21.94,0,0,1-.32,7.32c-.52,1.92-1.66,3.86-3.92,3.72-2.74-.16-5.72-2.51-7.53-4.43a9.79,9.79,0,0,1-2.93-8,7,7,0,0,1,4.57-5.9c1.84-.56,1.06-3.45-.8-2.89-5.75,1.74-8.16,8.67-6.07,14a16.46,16.46,0,0,0,6,7.32c2.6,1.86,6.13,3.69,9.34,2.4,5.48-2.21,4.94-9.85,4.6-14.59q-.92-12.52-1.94-25-1.17-14.25-2.49-28.48c-.07-.73-.64-1.61-1.5-1.5L136.63,927l-8.41,1c-2.17.27-4.93.19-6.58,1.87s-1.53,3.95-1.68,6c-.2,2.69-.4,5.38-.56,8.08-.34,5.54-.53,11.09-.34,16.64s1.09,10.78,1.49,16.19c.34,4.6.13,9.42-2,13.59-1.83,3.48-5,6.16-9,6.31-4.57.16-8-2.91-7.91-7.57.1-5.37,4.2-9.45,7.73-13a1.5,1.5,0,0,0-2.12-2.12Z"/></svg>