<svg id="Layer_1" data-name="Layer 1" xmlns="http://www.w3.org/2000/svg" viewBox="0 0 1920 1080"><defs><style>.cls-1{fill:#3785e2;}.cls-1,.cls-2{opacity:0.5;}.cls-2{fill:#39b54a;}.cls-3{opacity:0.3;}.cls-4{fill:#4d4d4d;}</style></defs><title>52</title><ellipse class="cls-1" cx="1598.06" cy="806.32" rx="247.36" ry="117.49" transform="translate(-191.41 764.3) rotate(-25.43)"/><ellipse class="cls-1" cx="1201.51" cy="575.81" rx="151.49" ry="99.81"/><rect class="cls-2" x="749.8" y="715.18" width="437.92" height="263.17" transform="translate(290.15 -246.39) rotate(17.01)"/><rect class="cls-2" x="760.92" y="524.09" width="181.83" height="109.27" transform="translate(206.6 -223.91) rotate(17.01)"/><rect class="cls-2" x="888.92" y="335.09" width="181.83" height="109.27" transform="translate(156.9 -269.63) rotate(17.01)"/><rect class="cls-2" x="734.92" y="192.09" width="181.83" height="109.27" transform="translate(108.33 -230.83) rotate(17.01)"/><path class="cls-3" d="M449.4,698.13c-85.23-13.49-134.29-46.36-187,8.52s-64.71,119.9-64.71,119.9S122.1,919.8,241.05,965.63s149.62,73,202.37,48S566.86,868.65,566.86,868.65s13.84-87.93-28.81-108.18-57.6-8-72.56-24S476.33,702.39,449.4,698.13Z"/><path class="cls-3" d="M595.74,135.63c-48.65-7.7-76.65-26.46-106.75,4.87s-36.94,68.43-36.94,68.43-43.12,53.22,24.77,79.38,85.4,41.66,115.5,27.37S662.78,233,662.78,233s7.9-50.18-16.44-61.74-32.88-4.56-41.42-13.68S611.11,138.06,595.74,135.63Z"/><path class="cls-3" d="M508.74,315.63c-48.65-7.7-76.65-26.46-106.75,4.87s-36.94,68.43-36.94,68.43-43.12,53.22,24.77,79.38,85.4,41.66,115.5,27.37S575.78,413,575.78,413s7.9-50.18-16.44-61.74-32.88-4.56-41.42-13.68S524.11,318.06,508.74,315.63Z"/><path class="cls-3" d="M593.74,525.63c-48.65-7.7-76.65-26.46-106.75,4.87s-36.94,68.43-36.94,68.43-43.12,53.22,24.77,79.38,85.4,41.66,115.5,27.37S660.78,623,660.78,623s7.9-50.18-16.44-61.74-32.88-4.56-41.42-13.68S609.11,528.06,593.74,525.63Z"/><path d="M854,388.46q0,1.1,0,3.27c0,1.45-.07,3.09-.16,4.9s-.2,3.7-.35,5.65-.35,3.77-.61,5.48a37.73,37.73,0,0,1-.93,4.49,5.1,5.1,0,0,1-1.32,2.56,7.64,7.64,0,0,1-1.5,1c-.62.34-1.26.66-1.93,1s-1.31.57-1.95.8a16.73,16.73,0,0,1-1.73.55q1.21,2.88,2.37,5.67c.77,1.86,1.54,3.76,2.31,5.68l-9.49,2.24c-1.24-1.79-2.41-3.59-3.5-5.38s-2.25-3.57-3.49-5.32a8.89,8.89,0,0,1-1,.06h-1c-.73,0-1.81,0-3.24-.13s-3-.21-4.81-.38-3.62-.39-5.55-.65-3.71-.53-5.35-.83a33.19,33.19,0,0,1-4.27-1,5.19,5.19,0,0,1-2.31-1.21,9.36,9.36,0,0,1-1.5-3.63,52.61,52.61,0,0,1-1-5.45c-.25-1.94-.45-3.82-.57-5.64s-.2-3.19-.2-4.14-.06-2.12-.06-3.17V391.6c0-.81,0-1.86,0-3.14s.1-2.61.23-4a24.6,24.6,0,0,1,.64-3.84,6.15,6.15,0,0,1,1.34-2.76,5.3,5.3,0,0,1,2.28-1.12,40.47,40.47,0,0,1,4.2-1c1.62-.32,3.38-.61,5.26-.86s3.72-.5,5.51-.71,3.46-.37,5-.48,2.71-.18,3.56-.23l3.72-.09q1.86,0,3.72,0c1.63,0,3.34,0,5.16.09a20.56,20.56,0,0,1,5.2.84A11.94,11.94,0,0,1,851,376.6a8.59,8.59,0,0,1,2.66,4.55,14.06,14.06,0,0,1,.22,1.54c.07.64.11,1.32.13,2.05s0,1.43,0,2.12Zm-13.85,3.72v-.84a8.72,8.72,0,0,0-.06-1,4.81,4.81,0,0,0-.23-1,1.8,1.8,0,0,0-.41-.71,3.14,3.14,0,0,0-.9-.45,5.43,5.43,0,0,0-1.25-.25c-.45-.05-.9-.08-1.35-.1l-1.06,0c-.6,0-1.52,0-2.79.13s-2.67.21-4.23.38-3.19.38-4.9.61-3.3.5-4.75.8a36,36,0,0,0-3.75,1,4,4,0,0,0-2,1.09,2,2,0,0,0-.28,1c0,.43,0,.81,0,1.15,0,.86.07,1.93.2,3.21s.3,2.61.51,4,.44,2.69.67,4,.46,2.33.68,3.14c1,.39,1.94.7,2.75.93a20.74,20.74,0,0,0,2.38.55c.77.13,1.57.22,2.4.29s1.81.12,2.92.16l-4-6.41c1.11-.56,2.16-1.09,3.15-1.61s2-1,2.94-1.41,2-.81,3-1.15,2.19-.66,3.43-1l4.3,8.78a39,39,0,0,0,1.95-7.53A49.39,49.39,0,0,0,840.16,392.18Z"/><path d="M905.18,418.21l-10.83.45-.77-6.47a12,12,0,0,1-2.92,2.82,16.16,16.16,0,0,1-3.66,1.86,19.71,19.71,0,0,1-4,1,29.87,29.87,0,0,1-4.07.29,35.36,35.36,0,0,1-3.81-.26c-1.52-.17-3.06-.41-4.62-.74a26.48,26.48,0,0,1-4.33-1.25,7.24,7.24,0,0,1-2.88-1.79,5.18,5.18,0,0,1-1.06-2.47,24.94,24.94,0,0,1-.48-3.62c-.09-1.29-.13-2.52-.13-3.72v-2.89c0-3.2.13-6.37.38-9.49s.62-6.22,1.09-9.3c1.2-.12,2.48-.19,3.85-.19a25.11,25.11,0,0,1,3.34.23q1.66.22,3.33.54,0,.33.06,1.86c0,1,.1,2.24.16,3.66s.14,2.91.23,4.52.18,3.09.29,4.45.23,2.54.38,3.5.31,1.48.48,1.57a4.61,4.61,0,0,0,2.12.64c.77,0,1.52.06,2.24.06.52,0,1.32,0,2.41-.09s2.21-.17,3.37-.32a29.64,29.64,0,0,0,3.2-.58,4.28,4.28,0,0,0,2-.86,2.59,2.59,0,0,0,.29-1.22c.06-.69.1-1.43.13-2.25s0-1.57.06-2.27,0-1.13,0-1.25c0-1.93,0-3.83-.13-5.71s-.17-3.79-.25-5.71l12.44-.58c.25,3,.49,6,.7,8.95s.49,5.95.84,8.94a27.16,27.16,0,0,1,.22,3c0,1,0,2.05.1,3.08.08,1.92.14,3.84.16,5.77S905.14,416.25,905.18,418.21Z"/><path d="M957.25,392.56c0,3.59-.12,7.16-.38,10.71s-.51,7.1-.77,10.65q-7.19.63-14.3,1.09t-14.3.45c-.43,0-1.22,0-2.37,0s-2.38-.06-3.66-.13-2.5-.14-3.65-.25a6.88,6.88,0,0,1-2.31-.48,6.55,6.55,0,0,1-3-2.92,9.22,9.22,0,0,1-.83-4c0-.51,0-1.19.06-2.05s.13-1.75.26-2.69a19.47,19.47,0,0,1,.51-2.63,5.11,5.11,0,0,1,.77-1.8,4.9,4.9,0,0,1,2.63-1.31,35.66,35.66,0,0,1,4.9-.87c1.9-.21,4-.38,6.16-.51s4.31-.23,6.31-.29,3.81-.1,5.39-.1h3.4a19.87,19.87,0,0,0,.19-2.75V392a2.17,2.17,0,0,0-.06-.67c-.13-.26-.54-.47-1.22-.64a17,17,0,0,0-2.53-.39c-1-.08-2.1-.16-3.27-.22s-2.32-.1-3.43-.1H927c-2.7,0-5.39.06-8.08.16s-5.39.21-8.08.29c.17-1.62.31-3.27.41-4.93a42.94,42.94,0,0,0,0-4.94,93.39,93.39,0,0,1,9.39-1.19c3.14-.23,6.32-.35,9.52-.35l3.79,0c1.36,0,2.73.06,4.1.13s2.73.16,4.07.29,2.6.3,3.75.51a14.08,14.08,0,0,1,3.56,1.15,17.05,17.05,0,0,1,3.3,2.06,14.27,14.27,0,0,1,2.7,2.79,10.68,10.68,0,0,1,1.67,3.36,3.21,3.21,0,0,1,.09.64c0,.3,0,.64,0,1v1.63ZM943,407.63v-8.21l-3.72-.09-3.71,0-2.15,0c-1.18,0-2.44.07-3.79.16s-2.57.19-3.68.32-1.76.32-1.93.58a2.91,2.91,0,0,0-.41,1.05,6,6,0,0,0-.1,1.13c0,.3,0,.7.06,1.22s.12,1,.23,1.6.22,1.07.35,1.54a2.31,2.31,0,0,0,.51,1,1.55,1.55,0,0,0,.87.48,9.8,9.8,0,0,0,1.31.26c.47.06.94.11,1.42.13l1.09,0c1,0,2.12,0,3.3-.13s2.37-.18,3.59-.29,2.4-.23,3.56-.38Z"/><path d="M1005.48,387.69a21.26,21.26,0,0,1-.77,5.71c-.3,0-1.19.09-2.67.16l-5.25.25q-3,.17-6.54.39t-6.48.48q-3,.26-5.07.54a6.7,6.7,0,0,0-2.34.55,5.82,5.82,0,0,0-1.54,2.18,6.87,6.87,0,0,0-.51,2.56,3.37,3.37,0,0,0,.16,1.19,3.94,3.94,0,0,0,.55.93,2.85,2.85,0,0,0,1.34.32c.77.09,1.63.15,2.57.19s1.81.08,2.63.1l1.41,0c3.08,0,6.15-.06,9.23-.19s6.16-.3,9.24-.51l.51,11q-6.42.51-12.86,1t-12.92.48h-.93l-1.31,0c-.47,0-.92-.05-1.35-.1a5.6,5.6,0,0,1-.9-.13c-.9-.25-1.78-.54-2.66-.86a12.61,12.61,0,0,1-2.47-1.22,9,9,0,0,1-2-1.76,6.47,6.47,0,0,1-1.25-2.5,17.55,17.55,0,0,1-.42-2.54c-.1-1-.18-2.12-.22-3.23s-.07-2.21-.1-3.28,0-2,0-2.69c0-1.67,0-3.23.07-4.68a13.1,13.1,0,0,1,.7-4,8.55,8.55,0,0,1,2.09-3.27,12.43,12.43,0,0,1,4.13-2.53,14.26,14.26,0,0,1,3.66-.8c1.62-.19,3.32-.34,5.09-.45s3.48-.18,5.1-.23,2.89-.06,3.79-.06q4.49,0,8.94.19t8.95.52c.12,1.06.23,2.12.32,3.17S1005.48,386.66,1005.48,387.69Z"/><path d="M1053.7,386.15l-16.48,11.93c.12.51.38,1.33.77,2.47s.81,2.31,1.28,3.52a33.67,33.67,0,0,0,1.51,3.4,5.18,5.18,0,0,0,1.5,2,3.56,3.56,0,0,0,1.16.52c.47.12,1,.23,1.44.32a14.67,14.67,0,0,0,1.47.16l1.26,0c.59,0,1.21,0,1.85-.07s1.27-.1,1.86-.19c-.08.56-.15,1.12-.19,1.7s-.06,1.17-.06,1.76c0,1,0,2.06.06,3.08s.07,2,.07,3l-1.58.16-2.56.19-3,.22-3,.23q-1.38.09-2.37.09a3.84,3.84,0,0,1-1.25-.12c-.73-.35-1.43-.71-2.12-1.09a5.2,5.2,0,0,1-1.73-1.61,15.07,15.07,0,0,1-1.06-2.43c-.49-1.33-1-2.78-1.54-4.36s-1-3.06-1.47-4.43l-.87-2.63-6.15,4v11.15l-12.7,1.1q.39-9,.84-17.86t.44-17.93c0-1.83,0-3.65,0-5.45s0-3.63-.09-5.51a37.57,37.57,0,0,0,5.22.64c1.73.09,3.47.21,5.23.38v24q5-3.09,9.78-6.29a98.83,98.83,0,0,0,9.26-7.05q3.4.39,6.64.58Z"/><path d="M1070.24,372.17c0,1.11-.1,2.33-.16,3.66s-.14,2.67-.22,4-.21,2.7-.36,4-.33,2.51-.54,3.62c-.64,3.2-1.3,6.37-2,9.49s-1.31,6.28-2,9.49l-7.06.64-1.6-16.16c-.3-2.91-.51-5.82-.64-8.75s-.28-5.87-.45-8.82Zm-1.15,44.18a4,4,0,0,1-.68,2.15,7.6,7.6,0,0,1-1.7,1.89,8.31,8.31,0,0,1-2.24,1.32,6.16,6.16,0,0,1-2.25.48,6.45,6.45,0,0,1-2-.35,7.43,7.43,0,0,1-1.93-1,4.81,4.81,0,0,1-1.41-1.5,3.92,3.92,0,0,1-.54-2.05,3.65,3.65,0,0,1,.73-2.22,6.49,6.49,0,0,1,1.8-1.66,8.31,8.31,0,0,1,2.31-1,8.8,8.8,0,0,1,2.34-.35,6.46,6.46,0,0,1,3.24.83,5.08,5.08,0,0,1,2.14,2.5,1.43,1.43,0,0,1,.16.48A2.45,2.45,0,0,1,1069.09,416.35Z"/><path d="M764,555.46q0,1.1,0,3.27c0,1.45-.07,3.09-.16,4.9s-.2,3.7-.35,5.65-.35,3.77-.61,5.48a37.73,37.73,0,0,1-.93,4.49,5.1,5.1,0,0,1-1.32,2.56,7.64,7.64,0,0,1-1.5,1c-.62.34-1.26.66-1.93,1s-1.31.57-1.95.8a16.73,16.73,0,0,1-1.73.55q1.21,2.88,2.37,5.67c.77,1.86,1.54,3.76,2.31,5.68l-9.49,2.24c-1.24-1.79-2.41-3.59-3.5-5.38s-2.25-3.57-3.49-5.32a8.89,8.89,0,0,1-1,.06h-1c-.73,0-1.81,0-3.24-.13s-3-.21-4.81-.38-3.62-.39-5.55-.65-3.71-.53-5.35-.83a33.19,33.19,0,0,1-4.27-1,5.19,5.19,0,0,1-2.31-1.21,9.36,9.36,0,0,1-1.5-3.63,52.61,52.61,0,0,1-1-5.45c-.25-1.94-.45-3.82-.57-5.64s-.2-3.19-.2-4.14-.06-2.12-.06-3.17V558.6c0-.81,0-1.86,0-3.14s.1-2.61.23-4a24.6,24.6,0,0,1,.64-3.84,6.15,6.15,0,0,1,1.34-2.76,5.3,5.3,0,0,1,2.28-1.12,40.47,40.47,0,0,1,4.2-1c1.62-.32,3.38-.61,5.26-.86s3.72-.5,5.51-.71,3.46-.37,5-.48,2.71-.18,3.56-.23q1.86-.06,3.72-.09l3.72,0c1.63,0,3.34,0,5.16.09a20.56,20.56,0,0,1,5.2.84A11.94,11.94,0,0,1,761,543.6a8.59,8.59,0,0,1,2.66,4.55,14.06,14.06,0,0,1,.22,1.54c.07.64.11,1.32.13,2s0,1.43,0,2.12Zm-13.85,3.72v-.84a8.72,8.72,0,0,0-.06-1,4.81,4.81,0,0,0-.23-1,1.8,1.8,0,0,0-.41-.71,3.14,3.14,0,0,0-.9-.45,5.43,5.43,0,0,0-1.25-.25c-.45-.05-.9-.08-1.35-.1l-1.06,0c-.6,0-1.52,0-2.79.13s-2.67.21-4.23.38-3.19.38-4.9.61-3.3.5-4.75.8a36,36,0,0,0-3.75,1,4,4,0,0,0-2,1.09,2,2,0,0,0-.28,1c0,.43,0,.81,0,1.15,0,.86.07,1.93.2,3.21s.3,2.61.51,4,.44,2.69.67,4,.46,2.33.68,3.14c1,.39,1.94.7,2.75.93a20.74,20.74,0,0,0,2.38.55c.77.13,1.57.22,2.4.29s1.81.12,2.92.16l-4-6.41c1.11-.56,2.16-1.09,3.15-1.61s2-1,2.94-1.41,2-.81,3-1.15,2.19-.66,3.43-1l4.3,8.78a39,39,0,0,0,1.95-7.53A49.39,49.39,0,0,0,750.16,559.18Z"/><path d="M815.18,585.21l-10.83.45-.77-6.47a12,12,0,0,1-2.92,2.82,16.16,16.16,0,0,1-3.66,1.86,19.71,19.71,0,0,1-4,1,29.87,29.87,0,0,1-4.07.29,35.36,35.36,0,0,1-3.81-.26c-1.52-.17-3.06-.41-4.62-.74a26.48,26.48,0,0,1-4.33-1.25,7.24,7.24,0,0,1-2.88-1.79,5.18,5.18,0,0,1-1.06-2.47,24.94,24.94,0,0,1-.48-3.62c-.09-1.29-.13-2.52-.13-3.72v-2.89c0-3.2.13-6.37.38-9.49s.62-6.22,1.09-9.3c1.2-.12,2.48-.19,3.85-.19a25.11,25.11,0,0,1,3.34.23q1.66.23,3.33.54,0,.33.06,1.86c0,1,.1,2.24.16,3.66s.14,2.91.23,4.52.18,3.09.29,4.45.23,2.54.38,3.5.31,1.48.48,1.57a4.61,4.61,0,0,0,2.12.64c.77,0,1.52.06,2.24.06.52,0,1.32,0,2.41-.09s2.21-.17,3.37-.32a29.64,29.64,0,0,0,3.2-.58,4.28,4.28,0,0,0,2-.86,2.59,2.59,0,0,0,.29-1.22c.06-.69.1-1.43.13-2.25s0-1.57.06-2.27,0-1.13,0-1.25c0-1.93,0-3.83-.13-5.71s-.17-3.79-.25-5.71l12.44-.58c.25,3,.49,6,.7,9s.49,5.95.84,8.94a27.16,27.16,0,0,1,.22,3c0,1,0,2.05.1,3.08.08,1.92.14,3.84.16,5.77S815.14,583.25,815.18,585.21Z"/><path d="M867.25,559.56c0,3.59-.12,7.16-.38,10.71s-.51,7.1-.77,10.65q-7.19.63-14.3,1.09t-14.3.45c-.43,0-1.22,0-2.37,0s-2.38-.06-3.66-.13-2.5-.14-3.65-.25a6.88,6.88,0,0,1-2.31-.48,6.55,6.55,0,0,1-3-2.92,9.22,9.22,0,0,1-.83-4c0-.51,0-1.19.06-2s.13-1.75.26-2.69a19.47,19.47,0,0,1,.51-2.63,5.11,5.11,0,0,1,.77-1.8,4.9,4.9,0,0,1,2.63-1.31,35.66,35.66,0,0,1,4.9-.87c1.9-.21,4-.38,6.16-.51s4.31-.23,6.31-.29,3.81-.1,5.39-.1h3.4a19.87,19.87,0,0,0,.19-2.75V559a2.17,2.17,0,0,0-.06-.67c-.13-.26-.54-.47-1.22-.64a17,17,0,0,0-2.53-.39c-1-.08-2.1-.16-3.27-.22s-2.32-.1-3.43-.1H837c-2.7,0-5.39.06-8.08.16s-5.39.21-8.08.29c.17-1.62.31-3.27.41-4.93a42.94,42.94,0,0,0,0-4.94,93.39,93.39,0,0,1,9.39-1.19c3.14-.23,6.32-.35,9.52-.35l3.79,0c1.36,0,2.73.06,4.1.13s2.73.16,4.07.29,2.6.3,3.75.51a14.08,14.08,0,0,1,3.56,1.15,17.05,17.05,0,0,1,3.3,2.06,14.27,14.27,0,0,1,2.7,2.79,10.68,10.68,0,0,1,1.67,3.36,3.21,3.21,0,0,1,.09.64c0,.3,0,.64,0,1v1.63ZM853,574.63v-8.21l-3.72-.09-3.71,0-2.15,0c-1.18,0-2.44.07-3.79.16s-2.57.19-3.68.32-1.76.32-1.93.58a2.91,2.91,0,0,0-.41,1.05,6,6,0,0,0-.1,1.13c0,.3,0,.7.06,1.22s.12,1,.23,1.6.22,1.07.35,1.54a2.31,2.31,0,0,0,.51,1,1.55,1.55,0,0,0,.87.48,9.8,9.8,0,0,0,1.31.26c.47.06.94.11,1.42.13l1.09,0c1,0,2.12,0,3.3-.13s2.37-.18,3.59-.29,2.4-.23,3.56-.38Z"/><path d="M915.48,554.69a21.26,21.26,0,0,1-.77,5.71c-.3,0-1.19.09-2.67.16l-5.25.25q-3,.16-6.54.39t-6.48.48q-3,.26-5.07.54a6.7,6.7,0,0,0-2.34.55,5.82,5.82,0,0,0-1.54,2.18,6.87,6.87,0,0,0-.51,2.56,3.37,3.37,0,0,0,.16,1.19,3.94,3.94,0,0,0,.55.93,2.85,2.85,0,0,0,1.34.32c.77.09,1.63.15,2.57.19s1.81.08,2.63.1l1.41,0c3.08,0,6.15-.06,9.23-.19s6.16-.3,9.24-.51l.51,11q-6.42.51-12.86,1t-12.92.48h-.93l-1.31,0c-.47,0-.92,0-1.35-.1a5.6,5.6,0,0,1-.9-.13c-.9-.25-1.78-.54-2.66-.86a12.61,12.61,0,0,1-2.47-1.22,9,9,0,0,1-2-1.76,6.47,6.47,0,0,1-1.25-2.5,17.55,17.55,0,0,1-.42-2.54c-.1-1-.18-2.12-.22-3.23s-.07-2.21-.1-3.28,0-2,0-2.69c0-1.67,0-3.23.07-4.68a13.1,13.1,0,0,1,.7-4,8.55,8.55,0,0,1,2.09-3.27,12.43,12.43,0,0,1,4.13-2.53,14.26,14.26,0,0,1,3.66-.8c1.62-.19,3.32-.34,5.09-.45s3.48-.18,5.1-.23,2.89-.06,3.79-.06q4.49,0,8.94.19t8.95.52c.12,1.06.23,2.12.32,3.17S915.48,553.66,915.48,554.69Z"/><path d="M963.7,553.15l-16.48,11.93c.12.51.38,1.33.77,2.47s.81,2.31,1.28,3.52a33.67,33.67,0,0,0,1.51,3.4,5.18,5.18,0,0,0,1.5,2,3.56,3.56,0,0,0,1.16.52c.47.12.95.23,1.44.32a14.67,14.67,0,0,0,1.47.16l1.26,0c.59,0,1.21,0,1.85-.07s1.27-.1,1.86-.19c-.08.56-.15,1.12-.19,1.7s-.06,1.17-.06,1.76c0,1,0,2.06.06,3.08s.07,2,.07,3l-1.58.16-2.56.19-3,.22-3,.23q-1.38.09-2.37.09a3.84,3.84,0,0,1-1.25-.12c-.73-.35-1.43-.71-2.12-1.09a5.2,5.2,0,0,1-1.73-1.61,15.07,15.07,0,0,1-1.06-2.43c-.49-1.33-1-2.78-1.54-4.36s-1-3.06-1.47-4.43l-.87-2.63-6.15,4v11.15l-12.7,1.1q.39-9,.84-17.86t.44-17.93c0-1.83,0-3.65,0-5.45s0-3.63-.09-5.51a37.57,37.57,0,0,0,5.22.64c1.73.09,3.47.21,5.23.38v24q5-3.09,9.78-6.29a98.83,98.83,0,0,0,9.26-7q3.41.39,6.64.58Z"/><path d="M980.24,539.17c0,1.11-.1,2.33-.16,3.66s-.14,2.67-.22,4-.21,2.7-.36,4-.33,2.51-.54,3.62c-.64,3.2-1.3,6.37-2,9.49s-1.31,6.28-2,9.49l-7.06.64L966.39,558c-.3-2.91-.51-5.82-.64-8.75s-.28-5.87-.45-8.82Zm-1.15,44.18a4,4,0,0,1-.68,2.15,7.6,7.6,0,0,1-1.7,1.89,8.31,8.31,0,0,1-2.24,1.32,6.16,6.16,0,0,1-2.25.48,6.45,6.45,0,0,1-2-.35,7.43,7.43,0,0,1-1.93-1,4.81,4.81,0,0,1-1.41-1.5,3.92,3.92,0,0,1-.54-2,3.65,3.65,0,0,1,.73-2.22,6.49,6.49,0,0,1,1.8-1.66,8.31,8.31,0,0,1,2.31-1,8.8,8.8,0,0,1,2.34-.35,6.46,6.46,0,0,1,3.24.83,5.08,5.08,0,0,1,2.14,2.5,1.43,1.43,0,0,1,.16.48A2.45,2.45,0,0,1,979.09,583.35Z"/><path d="M778,228.46q0,1.09,0,3.27c0,1.45-.07,3.09-.16,4.9s-.2,3.7-.35,5.65-.35,3.77-.61,5.48a37.73,37.73,0,0,1-.93,4.49,5.1,5.1,0,0,1-1.32,2.56,7.64,7.64,0,0,1-1.5,1c-.62.34-1.26.66-1.93,1s-1.31.57-1.95.8a16.73,16.73,0,0,1-1.73.55q1.21,2.88,2.37,5.67c.77,1.86,1.54,3.76,2.31,5.68l-9.49,2.24c-1.24-1.79-2.41-3.59-3.5-5.38s-2.25-3.57-3.49-5.32a8.89,8.89,0,0,1-1,.06h-1c-.73,0-1.81,0-3.24-.13s-3-.21-4.81-.38-3.62-.39-5.55-.65-3.71-.53-5.35-.83a33.19,33.19,0,0,1-4.27-1,5.19,5.19,0,0,1-2.31-1.21,9.36,9.36,0,0,1-1.5-3.63,52.61,52.61,0,0,1-1-5.45c-.25-1.94-.45-3.82-.57-5.64s-.2-3.19-.2-4.14-.06-2.12-.06-3.17V231.6c0-.81,0-1.86,0-3.14s.1-2.61.23-4a24.6,24.6,0,0,1,.64-3.84,6.15,6.15,0,0,1,1.34-2.76,5.3,5.3,0,0,1,2.28-1.12,40.47,40.47,0,0,1,4.2-1c1.62-.32,3.38-.61,5.26-.86s3.72-.5,5.51-.71,3.46-.37,5-.48,2.71-.18,3.56-.23q1.86-.06,3.72-.09t3.72,0c1.63,0,3.34,0,5.16.09a20.56,20.56,0,0,1,5.2.84A11.94,11.94,0,0,1,775,216.6a8.59,8.59,0,0,1,2.66,4.55,14.06,14.06,0,0,1,.22,1.54c.07.64.11,1.32.13,2.05s0,1.43,0,2.12Zm-13.85,3.72v-.84a8.72,8.72,0,0,0-.06-1,4.81,4.81,0,0,0-.23-1,1.8,1.8,0,0,0-.41-.71,3.14,3.14,0,0,0-.9-.45,5.43,5.43,0,0,0-1.25-.25c-.45,0-.9-.08-1.35-.1l-1.06,0c-.6,0-1.52,0-2.79.13s-2.67.21-4.23.38-3.19.38-4.9.61-3.3.5-4.75.8a36,36,0,0,0-3.75,1,4,4,0,0,0-2,1.09,2,2,0,0,0-.28,1c0,.43,0,.81,0,1.15,0,.86.07,1.93.2,3.21s.3,2.61.51,4,.44,2.69.67,4,.46,2.33.68,3.14c1,.39,1.94.7,2.75.93a20.74,20.74,0,0,0,2.38.55c.77.13,1.57.22,2.4.29s1.81.12,2.92.16l-4-6.41c1.11-.56,2.16-1.09,3.15-1.61s2-1,2.94-1.41,2-.81,3-1.15,2.19-.66,3.43-1l4.3,8.78a39,39,0,0,0,1.95-7.53A49.39,49.39,0,0,0,764.16,232.18Z"/><path d="M829.18,258.21l-10.83.45-.77-6.47a12,12,0,0,1-2.92,2.82,16.16,16.16,0,0,1-3.66,1.86,19.71,19.71,0,0,1-4,1,29.87,29.87,0,0,1-4.07.29,35.36,35.36,0,0,1-3.81-.26c-1.52-.17-3.06-.41-4.62-.74a26.48,26.48,0,0,1-4.33-1.25,7.24,7.24,0,0,1-2.88-1.79,5.18,5.18,0,0,1-1.06-2.47,24.94,24.94,0,0,1-.48-3.62c-.09-1.29-.13-2.52-.13-3.72v-2.89c0-3.2.13-6.37.38-9.49s.62-6.22,1.09-9.3c1.2-.12,2.48-.19,3.85-.19a25.11,25.11,0,0,1,3.34.23q1.66.22,3.33.54,0,.33.06,1.86c0,1,.1,2.24.16,3.66s.14,2.91.23,4.52.18,3.09.29,4.45.23,2.54.38,3.5.31,1.48.48,1.57a4.61,4.61,0,0,0,2.12.64c.77,0,1.52.06,2.24.06.52,0,1.32,0,2.41-.09s2.21-.17,3.37-.32a29.64,29.64,0,0,0,3.2-.58,4.28,4.28,0,0,0,2-.86,2.59,2.59,0,0,0,.29-1.22c.06-.69.1-1.43.13-2.25s0-1.57.06-2.27,0-1.13,0-1.25c0-1.93,0-3.83-.13-5.71s-.17-3.79-.25-5.71l12.44-.58c.25,3,.49,6,.7,8.95s.49,6,.84,8.94a27.16,27.16,0,0,1,.22,3c0,1,0,2.05.1,3.08.08,1.92.14,3.84.16,5.77S829.14,256.25,829.18,258.21Z"/><path d="M881.25,232.56c0,3.59-.12,7.16-.38,10.71s-.51,7.1-.77,10.65q-7.19.63-14.3,1.09t-14.3.45c-.43,0-1.22,0-2.37,0s-2.38-.06-3.66-.13-2.5-.14-3.65-.25a6.88,6.88,0,0,1-2.31-.48,6.55,6.55,0,0,1-3-2.92,9.22,9.22,0,0,1-.83-4c0-.51,0-1.19.06-2s.13-1.75.26-2.69a19.47,19.47,0,0,1,.51-2.63,5.11,5.11,0,0,1,.77-1.8,4.9,4.9,0,0,1,2.63-1.31,35.66,35.66,0,0,1,4.9-.87c1.9-.21,4-.38,6.16-.51s4.31-.23,6.31-.29,3.81-.1,5.39-.1h3.4a19.87,19.87,0,0,0,.19-2.75V232a2.17,2.17,0,0,0-.06-.67c-.13-.26-.54-.47-1.22-.64a17,17,0,0,0-2.53-.39c-1-.08-2.1-.16-3.27-.22s-2.32-.1-3.43-.1H851c-2.7,0-5.39.06-8.08.16s-5.39.21-8.08.29c.17-1.62.31-3.27.41-4.93a42.94,42.94,0,0,0,0-4.94,93.39,93.39,0,0,1,9.39-1.19c3.14-.23,6.32-.35,9.52-.35l3.79,0c1.36,0,2.73.06,4.1.13s2.73.16,4.07.29,2.6.3,3.75.51a14.08,14.08,0,0,1,3.56,1.15,17.05,17.05,0,0,1,3.3,2.06,14.27,14.27,0,0,1,2.7,2.79,10.68,10.68,0,0,1,1.67,3.36,3.21,3.21,0,0,1,.09.64c0,.3,0,.64,0,1v1.63ZM867,247.63v-8.21q-1.86-.06-3.72-.09l-3.71,0-2.15,0c-1.18,0-2.44.07-3.79.16s-2.57.19-3.68.32-1.76.32-1.93.58a2.91,2.91,0,0,0-.41,1.05,6,6,0,0,0-.1,1.13c0,.3,0,.7.06,1.22s.12,1,.23,1.6.22,1.07.35,1.54a2.31,2.31,0,0,0,.51,1,1.55,1.55,0,0,0,.87.48,9.8,9.8,0,0,0,1.31.26c.47.06.94.11,1.42.13l1.09,0c1,0,2.12,0,3.3-.13s2.37-.18,3.59-.29,2.4-.23,3.56-.38Z"/><path d="M929.48,227.69a21.26,21.26,0,0,1-.77,5.71c-.3,0-1.19.09-2.67.16l-5.25.25q-3,.16-6.54.39t-6.48.48q-3,.25-5.07.54a6.7,6.7,0,0,0-2.34.55,5.82,5.82,0,0,0-1.54,2.18,6.87,6.87,0,0,0-.51,2.56,3.37,3.37,0,0,0,.16,1.19,3.94,3.94,0,0,0,.55.93,2.85,2.85,0,0,0,1.34.32c.77.09,1.63.15,2.57.19s1.81.08,2.63.1l1.41,0c3.08,0,6.15-.06,9.23-.19s6.16-.3,9.24-.51l.51,11q-6.42.51-12.86,1t-12.92.48h-.93l-1.31,0c-.47,0-.92,0-1.35-.1a5.6,5.6,0,0,1-.9-.13c-.9-.25-1.78-.54-2.66-.86a12.61,12.61,0,0,1-2.47-1.22,9,9,0,0,1-2-1.76,6.47,6.47,0,0,1-1.25-2.5,17.55,17.55,0,0,1-.42-2.54c-.1-1-.18-2.12-.22-3.23s-.07-2.21-.1-3.28,0-2,0-2.69c0-1.67,0-3.23.07-4.68a13.1,13.1,0,0,1,.7-4,8.55,8.55,0,0,1,2.09-3.27,12.43,12.43,0,0,1,4.13-2.53,14.26,14.26,0,0,1,3.66-.8c1.62-.19,3.32-.34,5.09-.45s3.48-.18,5.1-.23,2.89-.06,3.79-.06q4.49,0,8.94.19t8.95.52c.12,1.06.23,2.12.32,3.17S929.48,226.66,929.48,227.69Z"/><path d="M977.7,226.15l-16.48,11.93c.12.51.38,1.33.77,2.47s.81,2.31,1.28,3.52a33.67,33.67,0,0,0,1.51,3.4,5.18,5.18,0,0,0,1.5,2,3.56,3.56,0,0,0,1.16.52c.47.12.95.23,1.44.32a14.67,14.67,0,0,0,1.47.16l1.26,0c.59,0,1.21,0,1.85-.07s1.27-.1,1.86-.19c-.08.56-.15,1.12-.19,1.7s-.06,1.17-.06,1.76c0,1,0,2.06.06,3.08s.07,2,.07,3l-1.58.16-2.56.19-3,.22-3,.23q-1.38.09-2.37.09a3.84,3.84,0,0,1-1.25-.12c-.73-.35-1.43-.71-2.12-1.09a5.2,5.2,0,0,1-1.73-1.61,15.07,15.07,0,0,1-1.06-2.43c-.49-1.33-1-2.78-1.54-4.36s-1-3.06-1.47-4.43l-.87-2.63-6.15,4v11.15l-12.7,1.1q.39-9,.84-17.86t.44-17.93c0-1.83,0-3.65,0-5.45s0-3.63-.09-5.51a37.57,37.57,0,0,0,5.22.64c1.73.09,3.47.21,5.23.38v24q5-3.09,9.78-6.29a98.83,98.83,0,0,0,9.26-7.05q3.41.39,6.64.58Z"/><path d="M994.24,212.17c0,1.11-.1,2.33-.16,3.66s-.14,2.67-.22,4-.21,2.7-.36,4-.33,2.51-.54,3.62c-.64,3.2-1.3,6.37-2,9.49s-1.31,6.28-2,9.49l-7.06.64L980.39,231c-.3-2.91-.51-5.82-.64-8.75s-.28-5.87-.45-8.82Zm-1.15,44.18a4,4,0,0,1-.68,2.15,7.6,7.6,0,0,1-1.7,1.89,8.31,8.31,0,0,1-2.24,1.32,6.16,6.16,0,0,1-2.25.48,6.45,6.45,0,0,1-2-.35,7.43,7.43,0,0,1-1.93-1,4.81,4.81,0,0,1-1.41-1.5,3.92,3.92,0,0,1-.54-2.05,3.65,3.65,0,0,1,.73-2.22,6.49,6.49,0,0,1,1.8-1.66,8.31,8.31,0,0,1,2.31-1,8.8,8.8,0,0,1,2.34-.35,6.46,6.46,0,0,1,3.24.83,5.08,5.08,0,0,1,2.14,2.5,1.43,1.43,0,0,1,.16.48A2.45,2.45,0,0,1,993.09,256.35Z"/><path d="M1113.81,567.17q0,20.79-10.52,31.56T1072.1,609.5h-23.54V525.09h23.54q20.67,0,31.19,10.64T1113.81,567.17Zm-9.52,0a48,48,0,0,0-2.13-15.22,25.8,25.8,0,0,0-6.2-10.33,24.48,24.48,0,0,0-10.08-5.89,46.29,46.29,0,0,0-13.78-1.88h-14v66.88h14a46,46,0,0,0,13.78-1.88,24.05,24.05,0,0,0,10.08-6,26.21,26.21,0,0,0,6.2-10.45A48.53,48.53,0,0,0,1104.29,567.17Z"/><path d="M1127.83,530.22a6.64,6.64,0,0,1,1.63-4.51,7,7,0,0,1,9.58,0,6.84,6.84,0,0,1,1.57,4.51,6.61,6.61,0,0,1-1.57,4.45,7.24,7.24,0,0,1-9.58,0A6.42,6.42,0,0,1,1127.83,530.22Zm11,79.28h-9.26V549h9.26Z"/><path d="M1167.66,609.5h-9.27V549h7.52l1.75,9.77a34.18,34.18,0,0,1,3.44-3.7,25.89,25.89,0,0,1,4.82-3.51A32.57,32.57,0,0,1,1182,549a23.42,23.42,0,0,1,7.2-1.07q9.65,0,15.09,6.26t5.45,17.41v38h-9.14v-38q0-7.14-3.45-11.27a11.61,11.61,0,0,0-9.45-4.13,21.7,21.7,0,0,0-11.59,3.19,28.27,28.27,0,0,0-8.45,7.83Z"/><path d="M1269.6,598a22.06,22.06,0,0,1-7.7,8.32,21.11,21.11,0,0,1-12,3.45,25.34,25.34,0,0,1-10.14-2,21.76,21.76,0,0,1-8-5.89,27.9,27.9,0,0,1-5.19-9.71,43.19,43.19,0,0,1-1.88-13.34,40.58,40.58,0,0,1,1.75-12.14,29.37,29.37,0,0,1,5.14-9.84,23.72,23.72,0,0,1,19-9,19.43,19.43,0,0,1,6.52,1.07,23.76,23.76,0,0,1,5.32,2.62,24.76,24.76,0,0,1,4.13,3.51,26.61,26.61,0,0,1,2.94,3.7l1.63-9.77h7.64v56a40.07,40.07,0,0,1-2,13.46,24,24,0,0,1-5.64,9.15,22.29,22.29,0,0,1-8.7,5.26,35.49,35.49,0,0,1-11.21,1.69,45,45,0,0,1-12.4-1.69,39.24,39.24,0,0,1-9.39-3.82l2.25-7.52a35.05,35.05,0,0,0,8.39,3.45,38.24,38.24,0,0,0,10.15,1.31,30.48,30.48,0,0,0,7.82-.94,13.37,13.37,0,0,0,6.08-3.38,16.65,16.65,0,0,0,3.94-6.58,32.41,32.41,0,0,0,1.44-10.51Zm0-30.56a25.54,25.54,0,0,0-7.57-8,17.63,17.63,0,0,0-23,2.38q-5.27,5.58-5.26,17a33,33,0,0,0,1.44,10.46,19.34,19.34,0,0,0,3.88,7,15,15,0,0,0,5.57,3.94,17.12,17.12,0,0,0,19.85-5,21.09,21.09,0,0,0,3.76-6.88,26.89,26.89,0,0,0,1.31-8.58Z"/><path d="M1484,852.6l88.59-53.75c21-12.73,45.18-27.56,53.54-52.09,2.64-7.72,3-15.81,2.87-23.9-.12-8.91-.57-18,2.31-26.54l-2.51.66a50.45,50.45,0,0,1,12.61,47.28,1.51,1.51,0,0,0,2.51,1.46,245.4,245.4,0,0,0,35.3-42.45l-2.74-.36a49,49,0,0,1-7.29,41.25,46.35,46.35,0,0,1-8.38,9,1.5,1.5,0,0,0,.66,2.5c7,1.78,14.33,1.15,21.52,1.41,6.51.24,13.41,1.44,18,6.46a19.79,19.79,0,0,1,4.83,15.64,17.06,17.06,0,0,1-9.8,13.22,19,19,0,0,1-18.28-.89l.54,2c2.49-4.75,1.2-10.24-2-14.31-3.8-4.84-9.83-6.69-15.81-6.74a48.81,48.81,0,0,0-9.85,1.1c-2.83.56-5.77,1.23-8,3.14-4,3.43-3.37,9.52-.49,13.45,4.23,5.77,12,6.25,18.6,6.34l-1.29-2.26c-5.73,10-19.93,12.69-29.82,7.61a18.71,18.71,0,0,1-7.1-6.23,1.52,1.52,0,0,0-2.59,0,804.83,804.83,0,0,0-76.53,144.56q-8.67,21.36-16.1,43.19c-.62,1.83,2.28,2.62,2.9.8a800.62,800.62,0,0,1,68-148.21q11.63-19.76,24.36-38.82H1620c7.36,11,23.62,13.08,34.55,6.36a21.87,21.87,0,0,0,7.55-7.74,1.52,1.52,0,0,0-1.3-2.26c-4.85-.07-10.64-.12-14.58-3.39-2.78-2.3-4.83-7.22-2.28-10.41,1.53-1.9,4.13-2.5,6.39-3a52.68,52.68,0,0,1,8-1.18c5-.28,10.45.41,14.22,3.92,3.34,3.11,5.51,8.22,3.24,12.56a1.53,1.53,0,0,0,.54,2.05c11,7,27.3,1.95,31.62-10.51a22.7,22.7,0,0,0-2-18.4c-3.61-6.25-10-9.59-17-10.6-8.84-1.28-17.93.38-26.65-1.81l.66,2.51c11.79-9.72,18.52-25,18.34-40.22a49.19,49.19,0,0,0-1.9-12.93,1.52,1.52,0,0,0-2.74-.36,241.58,241.58,0,0,1-34.83,41.85l2.51,1.46a53.56,53.56,0,0,0-13.39-50.2,1.51,1.51,0,0,0-2.5.66c-5,14.81-.31,30.64-3.81,45.67-2.8,12-10.16,22.12-19,30.46-9.33,8.82-20.2,15.86-31.13,22.53q-21.36,13.05-42.79,26L1482.53,850c-1.65,1-.14,3.6,1.51,2.59Z"/><path d="M1668.61,802.13c.43-1.36.09-2.63,0-4-.08-1.62,1.3-.81,1.9.06.87,1.27,1.11,2.86,2,4.11a6.49,6.49,0,0,0,4,2.44,20,20,0,0,0,4.51.26c1.94,0,3.88,0,5.82.14a42.39,42.39,0,0,1,11,2.25,28.66,28.66,0,0,1,15,11.62c3.2,5.22,4,11.46,4.72,17.43.73,5.72,1.41,11.65,4.17,16.83,2.92,5.48,8,8.92,13.9,10.7,6.1,1.87,12.54,2.16,18.81,3.19a109.29,109.29,0,0,1,22.32,6.17q2.63,1,5.19,2.22c.13.06.9.33,1,.49-.11-.22-.38.71-.38.69-.31.84-.66,1.67-1,2.48a43.24,43.24,0,0,1-5,8.14,57.63,57.63,0,0,1-14,12.67c-12.41,8.12-26.91,12-40.93,16.33-14.75,4.55-29.52,10-45,11.27-1.87.14-3.74.23-5.6.24a3.74,3.74,0,0,1-1.25,0c-.51-.23,0,.31-.21-.22a4.21,4.21,0,0,1,0-1.33c0-.59,0-1.18,0-1.78a41,41,0,0,1,1.68-10.95,47.81,47.81,0,0,1,4.45-10.12c1.71-3,3.44-6.11,4.19-9.54a46.46,46.46,0,0,0,.59-11.36c-.1-3.48-.3-7.08-1.6-10.36-2.55-6.42-9.17-9.43-13.57-14.37a34.47,34.47,0,0,1-.25-45.54c1.26-1.45-.85-3.58-2.12-2.12a37.46,37.46,0,0,0-.91,48.42,46.83,46.83,0,0,0,7.53,7.09c2.72,2.18,5.44,4.52,6.65,7.91s1.25,7.3,1.32,11c.08,4,0,8-1.52,11.74-1.41,3.53-3.65,6.67-5.25,10.11a44.82,44.82,0,0,0-3.47,10.9,49,49,0,0,0-.67,5.67,20.07,20.07,0,0,0,.14,5.69c.41,1.63,1.86,2.16,3.39,2.2a58.53,58.53,0,0,0,6.07-.21,102.42,102.42,0,0,0,12-1.63,219.08,219.08,0,0,0,23.59-6.39c7.67-2.42,15.37-4.73,23-7.16a147.7,147.7,0,0,0,22.07-8.65c12-6.09,23-15.38,28.24-28,.59-1.42,1.43-3.12.37-4.54s-3.15-1.88-4.61-2.5a113.12,113.12,0,0,0-11.25-4.14,137.41,137.41,0,0,0-22.64-4.48c-6.21-.81-13.11-1.83-18.11-5.94s-6.57-10.09-7.51-16.08c-1-6.21-1.24-12.63-3.4-18.59a29.08,29.08,0,0,0-12.52-14.91c-6.52-4-14.22-5.5-21.77-5.61-3,0-7.42,1-9-2.34-.7-1.43-1.08-3-2.3-4.13a4.51,4.51,0,0,0-4-1.27,3.38,3.38,0,0,0-2.5,2.85c-.21,1.41.46,2.87,0,4.23-.59,1.84,2.31,2.63,2.89.8Z"/><path d="M1746.1,797.29a47.59,47.59,0,0,0,36.28,42.8c6.67,1.63,13.57,2.15,20.4,2.64,1.93.14,1.92-2.86,0-3-11-.79-22.31-1.72-32-7.46a45.48,45.48,0,0,1-17.86-20,42.39,42.39,0,0,1-3.84-15c-.12-1.92-3.12-1.93-3,0Z"/><path d="M1629.29,865.9c4,6.74,4.72,14.88,3.3,22.49-1.51,8.06-5.32,15.42-9.79,22.23-2.63,4-5.51,7.88-8.38,11.73-1.16,1.55,1.45,3,2.59,1.52,10.06-13.49,20.94-28.75,19-46.52a32,32,0,0,0-4.18-13,1.5,1.5,0,0,0-2.59,1.52Z"/><path d="M1766.89,794.12c1.91,7.37,5.39,14.5,10.81,19.94a29.38,29.38,0,0,0,20.33,8.85,23.66,23.66,0,0,0,12.11-3.12,1.5,1.5,0,0,0-1.51-2.59c-6,3.47-13.33,3.39-19.66.89-6.48-2.55-11.51-7.82-14.87-13.8a46.06,46.06,0,0,1-4.32-11,1.5,1.5,0,0,0-2.89.8Z"/><path d="M1606.91,875.79a51.59,51.59,0,0,1-17.79,34c-1.47,1.25.66,3.37,2.12,2.12a54.64,54.64,0,0,0,18.67-36.11c.19-1.92-2.81-1.91-3,0Z"/><path d="M931.75,766.9a143.13,143.13,0,0,1-62.15-66.09l-2.05,2.06,33.59,23.9,16.63,11.83c4.84,3.44,9.87,7.89,15.83,9.16,5.76,1.24,11.23-1.19,16-4.17a101.13,101.13,0,0,0,13.92-10.73c8.8-7.89,16.83-16.75,26.67-23.4,9.37-6.32,21.42-11.48,32.91-8.67,9.32,2.27,18.31,10.25,19.54,20.12,1.44,11.46-9,18.77-16.56,25.44a170.34,170.34,0,0,0-22.74,24.59,172.09,172.09,0,0,0-29.28,59.83c-3.14,11.83-5.28,24.49-2.49,36.61A46.28,46.28,0,0,0,985.72,891c13.95,12.76,33.08,18.5,50.86,23.61,22.24,6.39,44.1,13.61,65.37,22.78a487.82,487.82,0,0,1,62.89,32.74,481.29,481.29,0,0,1,57.67,41.73q6.6,5.55,13,11.35l1.06-2.56-128.89-8.27q-32.12-2.07-64.23-4.13c-20.7-1.34-41.41-2.76-62-5.22-20.37-2.44-40.69-5.87-60.49-11.29-16.71-4.57-33.95-11.4-44.71-25.69-18.3-24.3-14-60.08,1.72-84.49,8.58-13.31,20-24.51,30.06-36.67,9.22-11.16,18-23.64,20.57-38.21a51.68,51.68,0,0,0,.72-10.69,1.53,1.53,0,0,0-1.1-1.44l-88.23-25.68-.4,2.94a325,325,0,0,1,84.38,3.51c1.89.33,2.7-2.56.8-2.89a327.63,327.63,0,0,0-85.18-3.62,1.51,1.51,0,0,0-.39,2.95l88.22,25.68-1.1-1.45c.57,15.55-6.84,29.26-16,41.28-9.6,12.56-20.94,23.67-30.4,36.34-17.77,23.79-25.31,57.82-11.54,85.35,7.54,15.08,21.23,24.78,36.65,30.77a198.11,198.11,0,0,0,27.25,7.94c10.26,2.38,20.63,4.31,31,5.9,42,6.41,84.66,8,127,10.69l130.48,8.37,15.81,1a1.52,1.52,0,0,0,1.07-2.56,487.88,487.88,0,0,0-183-104.34c-19-5.86-39-9.93-56.23-20.16C990.63,892,983.58,886,979,878.05c-6.13-10.58-6.58-23-4.6-34.79,3.78-22.53,13.35-44.37,26.12-63.22A168.61,168.61,0,0,1,1022.34,754c4-3.91,8.33-7.46,12.49-11.21,3.78-3.42,7.39-7.26,9.39-12,3.79-9,.12-18.84-6.71-25.31-7.67-7.25-17.88-9.55-28.12-7.61-24.19,4.57-38.26,26.85-57.06,40.37-4.77,3.43-10.64,7.56-16.82,6.87s-11.65-5.78-16.54-9.26l-33.59-23.9-16.32-11.6c-1.34-1-2.61.84-2,2.05a147.08,147.08,0,0,0,45.58,55.94,143,143,0,0,0,17.65,11.22c1.69.91,3.21-1.68,1.51-2.59Z"/><path d="M995.2,1013.68l-42.1,41.93-12,12a1.5,1.5,0,0,0,2.12,2.13l42.1-41.94,12-12a1.5,1.5,0,0,0-2.12-2.12Z"/><path d="M978.5,733.92c2.25-4.92,5.83-12.26,12.39-11.45,7.67.95,10.32,9.67,12.09,15.93a1.5,1.5,0,0,0,2.89-.8c-2.14-7.55-5.57-17-14.61-18.08-8-1-12.52,6.69-15.35,12.88-.8,1.75,1.79,3.27,2.59,1.52Z"/><path class="cls-4" d="M378.09,742.36c4.88-19.33-11.16-36.07-25.15-46.82-8.26-6.35-17.2-12-27.14-15.29-10.35-3.47-21.36-4.38-32.2-4.78-16.89-.62-39.29-2.3-48.71,15.15-3.85,7.15-4.47,15.52-4.66,23.48-.21,8.54.24,17.23-1.49,25.65A61.12,61.12,0,0,1,233.5,754c-2.35,4.84-4.72,9.64-6.79,14.6A181.57,181.57,0,0,0,216.79,800c-2.25,10.29-3.89,21-2.54,31.55a45.57,45.57,0,0,0,11.54,25.3c13.52,14.77,34.16,19.55,53.51,17.64a108.9,108.9,0,0,0,49.37-17.91,123.66,123.66,0,0,0,35.24-35.76,116.38,116.38,0,0,0,17.72-46.6,110.1,110.1,0,0,0,1.05-12.3c.05-1.93-2.95-1.93-3,0a109.62,109.62,0,0,1-12.12,46.57,121.58,121.58,0,0,1-30.15,37.84,110.86,110.86,0,0,1-42.48,22.3c-18.62,4.94-39.77,5.16-56.61-5.3a45.93,45.93,0,0,1-17.22-18.58c-4.42-9.07-4.89-19.45-3.88-29.31a155.15,155.15,0,0,1,6.71-30.56,216.89,216.89,0,0,1,12.16-29.34,66.63,66.63,0,0,0,5.32-14,70.6,70.6,0,0,0,1.52-12.12c.41-8.18-.08-16.41.88-24.56.89-7.56,3.51-15,9.55-19.94,6.72-5.53,16-6.6,24.34-6.77,4.76-.09,9.52.07,14.27.22,5.35.18,10.71.45,16,1.08a77.84,77.84,0,0,1,29.33,9.19,110.55,110.55,0,0,1,23.53,17.59c6.39,6.31,12.24,13.93,14.38,22.82a26.17,26.17,0,0,1,0,12.47c-.48,1.87,2.42,2.67,2.89.8Z"/><path class="cls-4" d="M263.42,709.58a12.5,12.5,0,0,1-.53-12.33c1.95-3.84,6.83-7.62,11.14-5,3.53,2.14,5,7,5,10.94,0,5.39-2,11.33-7.12,13.86a8,8,0,0,1-7.88-.11,6.45,6.45,0,0,1-3.06-6.45c.38-1.88-2.51-2.69-2.9-.79-1.29,6.38,4.61,11.94,10.86,11.28,7.05-.75,11.59-7,12.71-13.57.95-5.64.06-12.34-4.34-16.44-4.76-4.43-11.61-2.45-15.35,2.3a15.62,15.62,0,0,0-1.08,17.84c1.06,1.61,3.65.11,2.59-1.52Z"/><path class="cls-4" d="M353.83,786.57A34.86,34.86,0,0,1,341,771.25c-.44-1-1.48-3.19-.25-4.07,1.07-.77,2.78-.25,3.87.16a14.05,14.05,0,0,1,6.3,5.29,45.89,45.89,0,0,1,4.7,9.27A1.55,1.55,0,0,0,357.5,783a1.51,1.51,0,0,0,1.05-1.85c-2.62-6.53-6-14-13.09-16.65a7.8,7.8,0,0,0-5.32-.27,4.42,4.42,0,0,0-2.89,4.35,14.49,14.49,0,0,0,1.94,5.82,35.56,35.56,0,0,0,3.19,5.29,38.51,38.51,0,0,0,9.94,9.53c1.61,1.06,3.12-1.53,1.51-2.6Z"/><path class="cls-4" d="M355,747.82a44.66,44.66,0,0,1-5.84-8.92c-1.27-2.59-3-5.86-.71-8.38a6.68,6.68,0,0,1,7.06-1.78c2.81.91,5,3.28,6.46,5.76,2.07,3.53,3,7.56,4.47,11.36.68,1.79,3.58,1,2.89-.8-2.69-7.13-4.61-16.21-12.72-19.11a9.72,9.72,0,0,0-9.67,1.86,7.7,7.7,0,0,0-2.48,4,9.54,9.54,0,0,0,.83,5.73,47.17,47.17,0,0,0,7.59,12.36c1.25,1.48,3.36-.65,2.12-2.12Z"/><path class="cls-4" d="M399,748.61a114,114,0,0,0,41.83,42.63c19.1,11.15,41.11,15.94,63,17a250.36,250.36,0,0,0,34-.85c5.81-.5,11.66-1.21,17.5-.65a30.59,30.59,0,0,1,15.29,6.1,84.88,84.88,0,0,1,11.62,10.81,128.24,128.24,0,0,1,9.57,11.61,138.52,138.52,0,0,1,15,26.16,136.41,136.41,0,0,1,11.37,59c-.35,10.36-1.35,21.73-6.72,30.85-4.89,8.31-13.36,13.51-22.29,16.57-10,3.42-20.64,4.67-31.12,5.22a195.27,195.27,0,0,1-34.94-1.41c-23.65-3-46.71-9.77-69-18.06-10.6-3.95-21.15-8.15-31.4-13-9.82-4.62-19.44-9.94-28-16.72S379.5,909,373.34,900.28s-11.53-17.61-17.89-26a116.34,116.34,0,0,0-10-11.7,1.5,1.5,0,0,0-2.13,2.12C358.5,880,367.46,900.16,382,916c15,16.38,35.38,26,55.59,34.23,22.34,9.13,45.33,17,69.06,21.68,23,4.51,46.91,6,70.1,2,9.4-1.62,19-4.46,26.87-10a36.92,36.92,0,0,0,9.74-10,44.69,44.69,0,0,0,5.91-15.46A118.71,118.71,0,0,0,621,907.34a140.58,140.58,0,0,0-34.3-83.23c-6.81-7.74-14.84-16.24-25-19.21-5.76-1.67-11.85-1.51-17.77-1-5.75.46-11.49,1-17.27,1.31-22.8,1.13-46.15-.52-67.68-8.62a110.1,110.1,0,0,1-57.36-49.45c-.94-1.69-3.53-.18-2.59,1.51Z"/><path class="cls-4" d="M446.54,864.09c6.84,2.09,14,4.38,19.69,8.93a21.49,21.49,0,0,1,6.37,8.14c1.54,3.57,2.09,7.48,2.91,11.24.91,4.16,2.21,8.19,5,11.5,1.24,1.48,3.36-.65,2.12-2.13-2.49-3-3.49-6.82-4.29-10.54s-1.47-7.76-3.05-11.4c-3-6.87-9.27-11.35-15.92-14.32a104.07,104.07,0,0,0-12-4.31c-1.85-.57-2.64,2.32-.8,2.89Z"/><path class="cls-4" d="M449.63,843.93a52.26,52.26,0,0,0,35.74-16.18c1.33-1.4-.79-3.52-2.12-2.12a49.18,49.18,0,0,1-33.62,15.3c-1.92.07-1.93,3.07,0,3Z"/><path class="cls-4" d="M515.07,808.88A69.63,69.63,0,0,1,524.45,772c.58-1,1.18-2,1.81-2.94s1.22-2,2.5-1.16c3.4,2.29,4.66,7.26,4.86,11.09.26,5-.78,9.89-2,14.65a1.5,1.5,0,0,0,2.89.8c2.36-8.89,4.47-20.72-2.82-28-1.9-1.9-4.76-2.79-6.79-.54a34.9,34.9,0,0,0-4.46,7.24,72.92,72.92,0,0,0-8.33,35.73c0,1.92,3,1.93,3,0Z"/><path class="cls-4" d="M486.83,975.09q-10.2,8.52-20,17.53c-1.56,1.44-3.22,2.84-4.68,4.4a5.64,5.64,0,0,0-1.8,4.51,8.56,8.56,0,0,0,2.51,4.49,37.56,37.56,0,0,0,4.08,3.9,39.26,39.26,0,0,0,19.78,8.76c6,.74,13.42-.76,16-7,1.69-4,.78-8.61-.13-12.73a82.7,82.7,0,0,0-4.56-14.06,1.53,1.53,0,0,0-2.06-.54,1.55,1.55,0,0,0-.53,2.06,78.42,78.42,0,0,1,3.76,11.27c.84,3.34,1.8,7,1.38,10.44-.76,6.25-7.08,8-12.5,7.65-6.22-.42-12.41-3.15-17.41-6.76a34.82,34.82,0,0,1-3.73-3.12,17.5,17.5,0,0,1-3.18-3.59c-.9-1.57-.13-2.6,1-3.72,1.35-1.32,2.76-2.6,4.15-3.88q9.78-9,20-17.53c1.48-1.24-.65-3.35-2.12-2.12Z"/><path d="M248.58,654.61a211.71,211.71,0,0,0-13.45-46.68c-2.87-6.87-5.85-14-10-20.18-3.62-5.42-8.62-10.18-15.32-11.09-7.62-1-15.06,2.8-21.27,6.79-2.8,1.8-5.57,4-6.91,7.13a8.49,8.49,0,0,0,.77,8,6.21,6.21,0,0,0,8.07,1.94,15.82,15.82,0,0,0,6.8-7c3.29-6.26,3.12-13.59,1.17-20.23-2.3-7.86-6.48-15.2-10.06-22.53l-11.52-23.61L174,521.36c-.84-1.73-3.43-.21-2.59,1.52,6.9,14.13,14,28.17,20.68,42.43,2.88,6.19,5.42,13,4.6,19.92a19.09,19.09,0,0,1-2.86,8.18c-1.36,2.1-4.29,5.42-7.12,4.81-2.25-.48-3.07-3.46-2.68-5.43.57-2.93,3.34-5,5.67-6.54,5.57-3.65,12.36-7.42,19.26-6.7,6,.64,10.47,5.07,13.65,9.87,3.73,5.63,6.48,12,9.12,18.17a210.86,210.86,0,0,1,13.93,47.81c.32,1.9,3.21,1.1,2.89-.79Z"/><path d="M847.92,707.24q-19.7-20.21-37.68-42-5.13-6.22-10.11-12.57a1.52,1.52,0,0,0-2.56,1.07,183,183,0,0,0,7.76,34l1.84-1.84a152.36,152.36,0,0,1-20-4.51,1.53,1.53,0,0,0-1.85,1.85,27,27,0,0,0,10.6,17.48l.76-2.79q-18.27,1.54-36.54,3a1.51,1.51,0,0,0-.4,2.95l13.36,5.58a45.46,45.46,0,0,1,6.26,2.67c1.67,1-.54,2.23-1.57,2.7-1.83.84-3.8,1.42-5.66,2.19s-3.84,1.66-5.72,2.57a103.1,103.1,0,0,0-11,6.17,109.83,109.83,0,0,0-11.48,8.54c-1.07.91-.12,2.48,1.06,2.56l62.57,4.39c1.92.13,1.92-2.87,0-3L745,733.9l1.07,2.56a103.4,103.4,0,0,1,23.64-15.08q3.18-1.47,6.47-2.71c1.88-.71,3.83-1.28,5.35-2.66a3.88,3.88,0,0,0,1.08-4.76c-1-1.85-3.44-2.45-5.25-3.21l-16.82-7L760.1,704q18.27-1.46,36.54-3a1.52,1.52,0,0,0,.75-2.8,24,24,0,0,1-9.21-15.69l-1.85,1.84a151.13,151.13,0,0,0,20,4.51c1,.16,2.24-.65,1.85-1.85a179.33,179.33,0,0,1-7.65-33.23L798,654.81q17.43,22.19,36.67,42.88,5.49,5.89,11.12,11.67c1.35,1.38,3.47-.74,2.12-2.12Z"/><path d="M1558.4,275.85c-.82-4.58-6.22-6.69-10.31-5.25-4.67,1.64-7.84,6.49-8.77,11.19s.19,9.94,4.21,12.92c3.27,2.42,8.17,3.09,11.68.75,4.25-2.85,4.62-8.35,4.81-13q.4-9.66.78-19.34c.5-12.42,1.42-25-.16-37.36-.22-1.71-.47-3.42-.79-5.12-.17-.93-1.12-3.12-.15-3.74a7.26,7.26,0,0,1,2.27-.49l2.43-.43,5.34-.94,21.36-3.76c1.9-.34,1.09-3.23-.8-2.9l-17.23,3-8.5,1.5-4.12.72a6,6,0,0,0-3,1.22c-1.9,1.72-.84,4.45-.44,6.58.51,2.77.87,5.56,1.11,8.36a153.79,153.79,0,0,1,.35,16.77c-.28,11.63-.89,23.27-1.36,34.9-.15,3.9,0,9.68-4,11.79-3.2,1.65-7.63.09-9.52-2.85-2.76-4.28-1.54-10.29,1.58-14.05,1.49-1.79,3.68-3.42,6.12-3.25a4.5,4.5,0,0,1,4.3,3.53c.34,1.89,3.23,1.09,2.89-.8Z"/><path d="M1336.4,718.85c-.82-4.58-6.22-6.69-10.31-5.25-4.67,1.64-7.84,6.49-8.77,11.19s.19,9.94,4.21,12.92c3.27,2.42,8.17,3.09,11.68.75,4.25-2.85,4.62-8.35,4.81-13q.4-9.66.78-19.34c.5-12.42,1.42-25-.16-37.36-.22-1.71-.47-3.42-.79-5.12-.17-.93-1.12-3.12-.15-3.74a7.26,7.26,0,0,1,2.27-.49l2.43-.43,5.34-.94,21.36-3.76c1.9-.34,1.09-3.23-.8-2.9l-17.23,3-8.5,1.5-4.12.72a6,6,0,0,0-3,1.22c-1.9,1.72-.84,4.45-.44,6.58.51,2.77.87,5.56,1.11,8.36a153.79,153.79,0,0,1,.35,16.77c-.28,11.63-.89,23.27-1.36,34.9-.15,3.9,0,9.68-4,11.79-3.2,1.65-7.63.09-9.52-2.85-2.76-4.28-1.54-10.29,1.58-14,1.49-1.79,3.68-3.42,6.12-3.25a4.5,4.5,0,0,1,4.3,3.53c.34,1.89,3.23,1.09,2.89-.8Z"/><path d="M190.4,243.85c-.82-4.58-6.22-6.69-10.31-5.25-4.67,1.64-7.84,6.49-8.77,11.19s.19,9.94,4.21,12.92c3.27,2.42,8.17,3.09,11.68.75,4.25-2.85,4.62-8.35,4.81-13q.4-9.66.78-19.34c.5-12.42,1.42-25-.16-37.36-.22-1.71-.47-3.42-.79-5.12-.17-.93-1.12-3.12-.15-3.74a7.26,7.26,0,0,1,2.27-.49l2.43-.43,5.34-.94,21.36-3.76c1.9-.34,1.09-3.23-.8-2.9l-17.23,3-8.5,1.5-4.12.72a6,6,0,0,0-3,1.22c-1.9,1.72-.84,4.45-.44,6.58.51,2.77.87,5.56,1.11,8.36a153.79,153.79,0,0,1,.35,16.77c-.28,11.63-.89,23.27-1.36,34.9-.15,3.9.05,9.68-4,11.79-3.2,1.65-7.63.09-9.52-2.85-2.76-4.28-1.54-10.29,1.58-14.05,1.49-1.79,3.68-3.42,6.12-3.25a4.5,4.5,0,0,1,4.3,3.53c.34,1.89,3.23,1.09,2.89-.8Z"/><path d="M1806.16,749.94c-3.38,3.41-7,7.1-8.17,11.9-1.07,4.26-.18,9.06,3.49,11.79a12,12,0,0,0,11.09,1.21c4.08-1.56,6.88-5.08,8.46-9.05,1.88-4.75,1.85-9.95,1.35-15-.58-5.75-1.31-11.42-1.38-17.2s.23-11.44.62-17.14c.1-1.47.21-2.93.32-4.4a11,11,0,0,1,.49-3.58c.43-1,1.38-1.08,2.31-1.22,1.56-.22,3.14-.38,4.7-.57l39.34-4.83-1.5-1.5q2,21.78,3.69,43.59c.28,3.64.55,7.27.81,10.91a21.94,21.94,0,0,1-.32,7.32c-.52,1.92-1.66,3.86-3.92,3.72-2.74-.16-5.72-2.51-7.53-4.43a9.79,9.79,0,0,1-2.93-8,7,7,0,0,1,4.57-5.9c1.84-.56,1.06-3.45-.8-2.89-5.75,1.74-8.16,8.67-6.07,14a16.46,16.46,0,0,0,6,7.32c2.6,1.86,6.13,3.69,9.34,2.4,5.48-2.21,4.94-9.85,4.6-14.59q-.92-12.52-1.94-25-1.17-14.25-2.49-28.48c-.07-.73-.64-1.61-1.5-1.5L1835.63,703l-8.41,1c-2.17.27-4.93.19-6.58,1.87s-1.53,3.95-1.68,6c-.2,2.69-.4,5.38-.56,8.08-.34,5.54-.53,11.09-.34,16.64s1.09,10.78,1.49,16.19c.34,4.6.13,9.42-2,13.59-1.83,3.48-5,6.16-9,6.31-4.57.16-8-2.91-7.91-7.57.1-5.37,4.2-9.45,7.73-13a1.5,1.5,0,0,0-2.12-2.12Z"/><path d="M1605.16,536.94c-3.38,3.41-7,7.1-8.17,11.9-1.07,4.26-.18,9.06,3.49,11.79a12,12,0,0,0,11.09,1.21c4.08-1.56,6.88-5.08,8.46-9.05,1.88-4.75,1.85-9.95,1.35-15-.58-5.75-1.31-11.42-1.38-17.2s.23-11.44.62-17.14c.1-1.47.21-2.93.32-4.4a11,11,0,0,1,.49-3.58c.43-1,1.38-1.08,2.31-1.22,1.56-.22,3.14-.38,4.7-.57l39.34-4.83-1.5-1.5q2,21.78,3.69,43.59c.28,3.64.55,7.27.81,10.91a21.94,21.94,0,0,1-.32,7.32c-.52,1.92-1.66,3.86-3.92,3.72-2.74-.16-5.72-2.51-7.53-4.43a9.79,9.79,0,0,1-2.93-8,7,7,0,0,1,4.57-5.9c1.84-.56,1.06-3.45-.8-2.89-5.75,1.74-8.16,8.67-6.07,14a16.46,16.46,0,0,0,6,7.32c2.6,1.86,6.13,3.69,9.34,2.4,5.48-2.21,4.94-9.85,4.6-14.59q-.92-12.52-1.94-25-1.17-14.25-2.49-28.48c-.07-.73-.64-1.61-1.5-1.5L1634.63,490l-8.41,1c-2.17.27-4.93.19-6.58,1.87s-1.53,3.95-1.68,6c-.2,2.69-.4,5.38-.56,8.08-.34,5.54-.53,11.09-.34,16.64s1.09,10.78,1.49,16.19c.34,4.6.13,9.42-2,13.59-1.83,3.48-5,6.16-9,6.31-4.57.16-8-2.91-7.91-7.57.1-5.37,4.2-9.45,7.73-13a1.5,1.5,0,0,0-2.12-2.12Z"/><path d="M1179.16,222.94c-3.38,3.41-7,7.1-8.17,11.9-1.07,4.26-.18,9.06,3.49,11.79a12,12,0,0,0,11.09,1.21c4.08-1.56,6.88-5.08,8.46-9.05,1.88-4.75,1.85-9.95,1.35-15-.58-5.75-1.31-11.42-1.38-17.2s.23-11.44.62-17.14c.1-1.47.21-2.93.32-4.4a11,11,0,0,1,.49-3.58c.43-1,1.38-1.08,2.31-1.22,1.56-.22,3.14-.38,4.7-.57l39.34-4.83-1.5-1.5q2,21.78,3.69,43.59c.28,3.64.55,7.27.81,10.91a21.94,21.94,0,0,1-.32,7.32c-.52,1.92-1.66,3.86-3.92,3.72-2.74-.16-5.72-2.51-7.53-4.43a9.79,9.79,0,0,1-2.93-7.95,7,7,0,0,1,4.57-5.9c1.84-.56,1.06-3.45-.8-2.89-5.75,1.74-8.16,8.67-6.07,14a16.46,16.46,0,0,0,6,7.32c2.6,1.86,6.13,3.69,9.34,2.4,5.48-2.21,4.94-9.85,4.6-14.59q-.92-12.53-1.94-25-1.17-14.25-2.49-28.48c-.07-.73-.64-1.61-1.5-1.5L1208.63,176l-8.41,1c-2.17.27-4.93.19-6.58,1.87s-1.53,3.95-1.68,6c-.2,2.69-.4,5.38-.56,8.08-.34,5.54-.53,11.09-.34,16.64s1.09,10.78,1.49,16.19c.34,4.6.13,9.42-2,13.59-1.83,3.48-5,6.16-9,6.31-4.57.16-8-2.91-7.91-7.57.1-5.37,4.2-9.45,7.73-13a1.5,1.5,0,0,0-2.12-2.12Z"/><path d="M107.16,973.94c-3.38,3.41-7,7.1-8.17,11.9-1.07,4.26-.18,9.06,3.49,11.79a12,12,0,0,0,11.09,1.21c4.08-1.56,6.88-5.08,8.46-9.05,1.88-4.75,1.85-9.95,1.35-15-.58-5.75-1.31-11.42-1.38-17.2s.23-11.44.62-17.14c.1-1.47.21-2.93.32-4.4a11,11,0,0,1,.49-3.58c.43-1,1.38-1.08,2.31-1.22,1.56-.22,3.14-.38,4.7-.57l39.34-4.83-1.5-1.5q2,21.78,3.69,43.59c.28,3.64.55,7.27.81,10.91a21.94,21.94,0,0,1-.32,7.32c-.52,1.92-1.66,3.86-3.92,3.72-2.74-.16-5.72-2.51-7.53-4.43a9.79,9.79,0,0,1-2.93-8,7,7,0,0,1,4.57-5.9c1.84-.56,1.06-3.45-.8-2.89-5.75,1.74-8.16,8.67-6.07,14a16.46,16.46,0,0,0,6,7.32c2.6,1.86,6.13,3.69,9.34,2.4,5.48-2.21,4.94-9.85,4.6-14.59q-.92-12.52-1.94-25-1.17-14.25-2.49-28.48c-.07-.73-.64-1.61-1.5-1.5L136.63,927l-8.41,1c-2.17.27-4.93.19-6.58,1.87s-1.53,3.95-1.68,6c-.2,2.69-.4,5.38-.56,8.08-.34,5.54-.53,11.09-.34,16.64s1.09,10.78,1.49,16.19c.34,4.6.13,9.42-2,13.59-1.83,3.48-5,6.16-9,6.31-4.57.16-8-2.91-7.91-7.57.1-5.37,4.2-9.45,7.73-13a1.5,1.5,0,0,0-2.12-2.12Z"/><path d="M1004.83,1011.28a406.91,406.91,0,0,0,17.63,50q2.76,6.4,5.8,12.69c.84,1.73,3.43.21,2.59-1.52a363.28,363.28,0,0,1-18.65-47.13q-2.37-7.37-4.48-14.8a1.5,1.5,0,0,0-2.89.79Z"/><path d="M500.07,190.73,493.6,294l-32.08,1.41L461.8,241l-14.49,43.9H434.93L423.82,245.6l-.14,45.59-32.51,1L392.58,195l36.16-1.41,14.35,46.57,19.14-49.38Z"/><path d="M591.24,243.63A51.24,51.24,0,0,1,589.77,256a48.73,48.73,0,0,1-4.26,11.15,45.93,45.93,0,0,1-6.75,9.53A43.11,43.11,0,0,1,559,288.9a43.54,43.54,0,0,1-12.39,1.72A44.12,44.12,0,0,1,534.58,289a45.79,45.79,0,0,1-10.73-4.54,43.64,43.64,0,0,1-15.93-16.18,46.71,46.71,0,0,1-4.43-10.8,45,45,0,0,1-1.59-12,48.67,48.67,0,0,1,1.48-12,48.31,48.31,0,0,1,11-20.65,44.31,44.31,0,0,1,8.83-7.53,42.29,42.29,0,0,1,10.59-4.92,40.66,40.66,0,0,1,12-1.76,52.26,52.26,0,0,1,18.61,3.17A39.32,39.32,0,0,1,588,225,50.54,50.54,0,0,1,591.24,243.63ZM560,245.46a19.69,19.69,0,0,0-.88-5.87,16.16,16.16,0,0,0-2.57-5.07,13.18,13.18,0,0,0-4.18-3.59,11.8,11.8,0,0,0-5.74-1.37,14,14,0,0,0-5.91,1.2,13.6,13.6,0,0,0-4.46,3.27,14.1,14.1,0,0,0-2.85,4.85,17.41,17.41,0,0,0-1,5.88,21.17,21.17,0,0,0,.85,5.91,17.3,17.3,0,0,0,2.53,5.34,13.35,13.35,0,0,0,4.19,3.87,11.1,11.1,0,0,0,5.8,1.48,13.19,13.19,0,0,0,5.94-1.3,13.42,13.42,0,0,0,4.47-3.52,16.23,16.23,0,0,0,2.82-5.1A18.51,18.51,0,0,0,560,245.46Z"/><path d="M683.12,243.63A50.75,50.75,0,0,1,681.64,256a48.24,48.24,0,0,1-4.25,11.15,46.35,46.35,0,0,1-6.76,9.53,43.2,43.2,0,0,1-32.11,14A44.25,44.25,0,0,1,626.45,289a45.72,45.72,0,0,1-10.72-4.54,42.91,42.91,0,0,1-9-7,43.64,43.64,0,0,1-6.9-9.14,47.15,47.15,0,0,1-4.43-10.8,45,45,0,0,1-1.58-12,49,49,0,0,1,5.73-23.07,47.65,47.65,0,0,1,6.72-9.57,44,44,0,0,1,8.83-7.53,42.38,42.38,0,0,1,10.58-4.92,40.66,40.66,0,0,1,12-1.76,52.22,52.22,0,0,1,18.61,3.17A39.38,39.38,0,0,1,679.85,225,50.54,50.54,0,0,1,683.12,243.63Zm-31.24,1.83a20,20,0,0,0-.87-5.87,16.37,16.37,0,0,0-2.57-5.07,13.21,13.21,0,0,0-4.19-3.59,11.76,11.76,0,0,0-5.73-1.37,13.93,13.93,0,0,0-5.91,1.2,13.54,13.54,0,0,0-4.47,3.27,14.43,14.43,0,0,0-2.85,4.85,17.65,17.65,0,0,0-1,5.88,21.53,21.53,0,0,0,.84,5.91,17.53,17.53,0,0,0,2.53,5.34,13.46,13.46,0,0,0,4.19,3.87,11.12,11.12,0,0,0,5.8,1.48,13.23,13.23,0,0,0,6-1.3,13.42,13.42,0,0,0,4.47-3.52,16.41,16.41,0,0,0,2.81-5.1A18.24,18.24,0,0,0,651.88,245.46Z"/><path d="M536.07,336.73,529.6,440l-32.08,1.41L497.8,387l-14.49,43.9H470.93L459.82,391.6l-.14,45.59-32.51,1L428.58,341l36.16-1.41,14.35,46.57,19.14-49.38Z"/><path d="M627.24,389.63A51.24,51.24,0,0,1,625.77,402a48.73,48.73,0,0,1-4.26,11.15,45.93,45.93,0,0,1-6.75,9.53A43.11,43.11,0,0,1,595,434.9a43.54,43.54,0,0,1-12.39,1.72A44.12,44.12,0,0,1,570.58,435a45.79,45.79,0,0,1-10.73-4.54,43.64,43.64,0,0,1-15.93-16.18,46.71,46.71,0,0,1-4.43-10.8,45,45,0,0,1-1.59-12,48.67,48.67,0,0,1,1.48-12,48.31,48.31,0,0,1,11-20.65,44.31,44.31,0,0,1,8.83-7.53,42.29,42.29,0,0,1,10.59-4.92,40.66,40.66,0,0,1,12-1.76,52.26,52.26,0,0,1,18.61,3.17A39.32,39.32,0,0,1,624,371,50.54,50.54,0,0,1,627.24,389.63ZM596,391.46a19.69,19.69,0,0,0-.88-5.87,16.16,16.16,0,0,0-2.57-5.07,13.18,13.18,0,0,0-4.18-3.59,11.8,11.8,0,0,0-5.74-1.37,14,14,0,0,0-5.91,1.2,13.6,13.6,0,0,0-4.46,3.27,14.1,14.1,0,0,0-2.85,4.85,17.41,17.41,0,0,0-1,5.88,21.17,21.17,0,0,0,.85,5.91,17.3,17.3,0,0,0,2.53,5.34,13.35,13.35,0,0,0,4.19,3.87,11.1,11.1,0,0,0,5.8,1.48,13.19,13.19,0,0,0,5.94-1.3,13.42,13.42,0,0,0,4.47-3.52,16.23,16.23,0,0,0,2.82-5.1A18.51,18.51,0,0,0,596,391.46Z"/><path d="M719.12,389.63A50.75,50.75,0,0,1,717.64,402a48.24,48.24,0,0,1-4.25,11.15,46.35,46.35,0,0,1-6.76,9.53,43.2,43.2,0,0,1-32.11,14A44.25,44.25,0,0,1,662.45,435a45.72,45.72,0,0,1-10.72-4.54,42.91,42.91,0,0,1-9-7,43.64,43.64,0,0,1-6.9-9.14,47.15,47.15,0,0,1-4.43-10.8,45,45,0,0,1-1.58-12,49,49,0,0,1,5.73-23.07,47.65,47.65,0,0,1,6.72-9.57,44,44,0,0,1,8.83-7.53,42.38,42.38,0,0,1,10.58-4.92,40.66,40.66,0,0,1,12-1.76,52.22,52.22,0,0,1,18.61,3.17A39.38,39.38,0,0,1,715.85,371,50.54,50.54,0,0,1,719.12,389.63Zm-31.24,1.83a20,20,0,0,0-.87-5.87,16.37,16.37,0,0,0-2.57-5.07,13.21,13.21,0,0,0-4.19-3.59,11.76,11.76,0,0,0-5.73-1.37,13.93,13.93,0,0,0-5.91,1.2,13.54,13.54,0,0,0-4.47,3.27,14.43,14.43,0,0,0-2.85,4.85,17.65,17.65,0,0,0-1,5.88,21.53,21.53,0,0,0,.84,5.91,17.53,17.53,0,0,0,2.53,5.34,13.46,13.46,0,0,0,4.19,3.87,11.12,11.12,0,0,0,5.8,1.48,13.23,13.23,0,0,0,6-1.3,13.42,13.42,0,0,0,4.47-3.52,16.41,16.41,0,0,0,2.81-5.1A18.24,18.24,0,0,0,687.88,391.46Z"/><path d="M484.07,508.73,477.6,612l-32.08,1.41L445.8,559l-14.49,43.9H418.93L407.82,563.6l-.14,45.59-32.51,1L376.58,513l36.16-1.41,14.35,46.57,19.14-49.38Z"/><path d="M575.24,561.63A51.24,51.24,0,0,1,573.77,574a48.73,48.73,0,0,1-4.26,11.15,45.93,45.93,0,0,1-6.75,9.53A43.11,43.11,0,0,1,543,606.9a43.54,43.54,0,0,1-12.39,1.72A44.12,44.12,0,0,1,518.58,607a45.79,45.79,0,0,1-10.73-4.54,43.64,43.64,0,0,1-15.93-16.18,46.71,46.71,0,0,1-4.43-10.8,45,45,0,0,1-1.59-12,48.67,48.67,0,0,1,1.48-12,48.31,48.31,0,0,1,11-20.65,44.31,44.31,0,0,1,8.83-7.53,42.29,42.29,0,0,1,10.59-4.92,40.66,40.66,0,0,1,12-1.76,52.26,52.26,0,0,1,18.61,3.17A39.32,39.32,0,0,1,572,543,50.54,50.54,0,0,1,575.24,561.63ZM544,563.46a19.69,19.69,0,0,0-.88-5.87,16.16,16.16,0,0,0-2.57-5.07,13.18,13.18,0,0,0-4.18-3.59,11.8,11.8,0,0,0-5.74-1.37,14,14,0,0,0-5.91,1.2,13.6,13.6,0,0,0-4.46,3.27,14.1,14.1,0,0,0-2.85,4.85,17.41,17.41,0,0,0-1,5.88,21.17,21.17,0,0,0,.85,5.91,17.3,17.3,0,0,0,2.53,5.34,13.35,13.35,0,0,0,4.19,3.87,11.1,11.1,0,0,0,5.8,1.48,13.19,13.19,0,0,0,5.94-1.3,13.42,13.42,0,0,0,4.47-3.52,16.23,16.23,0,0,0,2.82-5.1A18.51,18.51,0,0,0,544,563.46Z"/><path d="M667.12,561.63A50.75,50.75,0,0,1,665.64,574a48.24,48.24,0,0,1-4.25,11.15,46.35,46.35,0,0,1-6.76,9.53,43.2,43.2,0,0,1-32.11,14A44.25,44.25,0,0,1,610.45,607a45.72,45.72,0,0,1-10.72-4.54,42.91,42.91,0,0,1-9-7,43.64,43.64,0,0,1-6.9-9.14,47.15,47.15,0,0,1-4.43-10.8,45,45,0,0,1-1.58-12,49,49,0,0,1,5.73-23.07,47.65,47.65,0,0,1,6.72-9.57,44,44,0,0,1,8.83-7.53,42.38,42.38,0,0,1,10.58-4.92,40.66,40.66,0,0,1,12-1.76,52.22,52.22,0,0,1,18.61,3.17A39.38,39.38,0,0,1,663.85,543,50.54,50.54,0,0,1,667.12,561.63Zm-31.24,1.83a20,20,0,0,0-.87-5.87,16.37,16.37,0,0,0-2.57-5.07,13.21,13.21,0,0,0-4.19-3.59,11.76,11.76,0,0,0-5.73-1.37,13.93,13.93,0,0,0-5.91,1.2,13.54,13.54,0,0,0-4.47,3.27,14.43,14.43,0,0,0-2.85,4.85,17.65,17.65,0,0,0-1,5.88,21.53,21.53,0,0,0,.84,5.91,17.53,17.53,0,0,0,2.53,5.34,13.46,13.46,0,0,0,4.19,3.87,11.12,11.12,0,0,0,5.8,1.48,13.23,13.23,0,0,0,6-1.3,13.42,13.42,0,0,0,4.47-3.52,16.41,16.41,0,0,0,2.81-5.1A18.24,18.24,0,0,0,635.88,563.46Z"/></svg>