<svg id="Layer_1" data-name="Layer 1" xmlns="http://www.w3.org/2000/svg" viewBox="0 0 1920 1080"><defs><style>.cls-1{fill:#3785e2;}.cls-1,.cls-2{opacity:0.5;}.cls-2{fill:#39b54a;}.cls-3{opacity:0.3;}.cls-4{fill:#4d4d4d;}</style></defs><ellipse class="cls-1" cx="1471.49" cy="604.88" rx="377.62" ry="234.06" transform="translate(-117.17 690.44) rotate(-25.43)"/><rect class="cls-2" x="178.79" y="665.3" width="228.48" height="137.31" transform="translate(227.57 -53.62) rotate(17.01)"/><path class="cls-3" d="M862.4,369.13c-85.23-13.49-134.29-46.36-187,8.52s-64.71,119.9-64.71,119.9S535.1,590.8,654.05,636.63s149.62,73,202.37,48S979.86,539.65,979.86,539.65s13.84-87.93-28.81-108.18-57.6-8-72.56-24S889.33,373.39,862.4,369.13Z"/><path d="M338.87,730.09a78.43,78.43,0,0,1-33.79-35.94L303,696.2l18.73,13.33,9.36,6.66c2.6,1.85,5.29,4.13,8.52,4.72s6.08-.62,8.71-2.22a53.31,53.31,0,0,0,7.83-6c4.92-4.37,9.37-9.35,14.86-13,5-3.33,11.37-6.09,17.45-4.57,4.84,1.22,9.6,5.41,10.14,10.59.64,6.12-5.34,10-9.32,13.58A95.55,95.55,0,0,0,361,765.81c-1.69,6.47-2.79,13.36-1.3,20a26,26,0,0,0,7.88,13.31c7.69,7,18.19,10.26,28,13.09a299.76,299.76,0,0,1,35.71,12.41,265.12,265.12,0,0,1,66.07,40.78q3.59,3,7.05,6.16l1.06-2.56L435,864.45l-35-2.25c-11.39-.73-22.78-1.52-34.11-2.87a225.05,225.05,0,0,1-33.09-6.18c-8.93-2.44-18.19-6.07-24-13.67-9.94-13.06-7.61-32.37.83-45.55,4.65-7.26,10.89-13.37,16.37-20,5.14-6.21,10.07-13.16,11.49-21.26a30,30,0,0,0,.42-6.06,1.54,1.54,0,0,0-1.1-1.45l-48.32-14.06-.4,2.95a177.45,177.45,0,0,1,46,1.89c1.89.33,2.7-2.56.8-2.89a180.09,180.09,0,0,0-46.83-2,1.5,1.5,0,0,0-.4,2.94L336,748.07l-1.1-1.45c.3,8.45-3.77,15.87-8.79,22.4-5.35,7-11.66,13.12-16.87,20.2-9.7,13.17-13.55,32-5.95,47.09,4.18,8.28,11.72,13.63,20.19,17a106.59,106.59,0,0,0,15,4.4c5.62,1.31,11.3,2.37,17,3.24,23.09,3.54,46.55,4.41,69.83,5.91l71.25,4.57,9,.57a1.51,1.51,0,0,0,1.06-2.56A268,268,0,0,0,405.69,812c-10.3-3.17-21.2-5.39-30.53-11a28,28,0,0,1-10.4-10.19c-3.14-5.69-3.24-12.35-2.13-18.62A89.15,89.15,0,0,1,377,737.85a91.07,91.07,0,0,1,12-14.2c4.1-3.95,9.61-7.33,11.81-12.81,2.05-5.14-.15-10.77-4-14.39a17.94,17.94,0,0,0-16-4.27c-13.24,2.49-20.95,14.55-31.18,22-2.48,1.8-5.62,4.14-8.86,3.87s-6.09-3-8.61-4.75L313.5,700l-9-6.37c-1.35-1-2.61.84-2.05,2a81.21,81.21,0,0,0,25.12,30.82,78,78,0,0,0,9.75,6.2c1.7.92,3.21-1.67,1.51-2.59Z"/><path d="M370.59,720.86c-3.59-.74-5.75-4.33-5.72-7.85.05-4.12,3.35-7.39,6.91-9,3.26-1.45,8.18-2,11,.76,3,3,1.3,8-1.2,10.67a10.76,10.76,0,0,1-11.2,3.1c-1.83-.64-2.61,2.26-.8,2.89,4.7,1.64,10,0,13.51-3.27s5.81-9.53,2.94-14.09-9-4.92-13.57-3.48c-4.85,1.51-9.48,5.36-10.36,10.59s2.21,11.4,7.74,12.53c1.89.38,2.69-2.51.8-2.89Z"/><path d="M373.27,710.59l-.11,0,.4-.06h-.12l.4,0-.08,0,.36.15-.06,0,.3.24,0-.05.23.31s0-.05,0-.08l.15.36a.28.28,0,0,1,0-.13l.05.4a.74.74,0,0,1,0-.21l-.05.4a1.35,1.35,0,0,1,.09-.33l-.15.36a1.05,1.05,0,0,1,.17-.29l-.24.3a1.37,1.37,0,0,1,.17-.17l-.3.24a.78.78,0,0,1,.15-.1l-.36.15.16,0-.4,0H374l-.4,0,.15,0-.36-.15a1.38,1.38,0,0,1,.24.14l-.3-.23a1,1,0,0,1,.21.21l-.23-.3a1.57,1.57,0,0,1,.18.31l-.15-.36a2,2,0,0,1,.14.54l0-.4a4.26,4.26,0,0,1,0,1l.05-.4c0,.22-.07.42-.11.63a1.49,1.49,0,0,0,2.2,1.69,1.5,1.5,0,0,0,.69-.89,10,10,0,0,0,.19-1.22,3.75,3.75,0,0,0,0-.82,3.63,3.63,0,0,0-.42-1.44,2.79,2.79,0,0,0-1-1,2.11,2.11,0,0,0-2.59.37,2.8,2.8,0,0,0-.78,1.88,2,2,0,0,0,.56,1.39,1.9,1.9,0,0,0,1.84.43,1.57,1.57,0,0,0,.89-.69,1.52,1.52,0,0,0,.15-1.16,1.47,1.47,0,0,0-.69-.89,1.58,1.58,0,0,0-1.15-.16Z"/><path d="M372.8,865.35l-29.65,29.53a1.5,1.5,0,0,0,2.12,2.12l29.65-29.53a1.5,1.5,0,0,0-2.12-2.12Z"/><path d="M375.39,873.23a143.68,143.68,0,0,0,23.52,28.07c1.41,1.3,3.54-.81,2.12-2.12a140,140,0,0,1-23-27.47c-1-1.62-3.64-.12-2.59,1.52Z"/><path class="cls-4" d="M225,419.86c6.94-14.08,9.09-29.69,11.58-45a199.24,199.24,0,0,1,4.82-23.09,108.82,108.82,0,0,1,7.78-19.55,129.53,129.53,0,0,1,25.43-33.85,158.22,158.22,0,0,1,36-25.84,220.39,220.39,0,0,1,44.08-17.24c7.57-2.11,15.24-4,23-5.42,7.49-1.42,15.8-2.26,22.59,2,6.05,3.75,9.84,10.33,12.84,16.59A86.55,86.55,0,0,1,420,289.78a104.53,104.53,0,0,1-1.76,44.83,127.12,127.12,0,0,1-18.51,40,176.25,176.25,0,0,1-29.42,32.77q-4.1,3.6-8.35,7c-1.51,1.2.62,3.31,2.12,2.12a193.13,193.13,0,0,0,32-31.8,140.23,140.23,0,0,0,21.95-39,111.4,111.4,0,0,0,6.34-45.74,95.38,95.38,0,0,0-4.4-22.45,72.42,72.42,0,0,0-9.82-20.19,31.38,31.38,0,0,0-7.55-7.57A23.67,23.67,0,0,0,392,245.92c-7.92-1-16.07,1.12-23.75,2.85a252.4,252.4,0,0,0-46.08,14.84,174.87,174.87,0,0,0-40.23,24.22,140.47,140.47,0,0,0-29.05,32,119.16,119.16,0,0,0-16.74,40.63c-3.31,15.63-4.45,31.75-9.38,47a82.5,82.5,0,0,1-4.37,10.87c-.86,1.72,1.73,3.25,2.59,1.51Z"/><path class="cls-4" d="M379.52,461.94c-19.95-5.43-40-10.71-60.31-14.55-19.95-3.77-40.28-6.2-60.62-5.6-19.58.57-39.66,3.87-57.73,11.66-7.48,3.22-15.12,8-18.66,15.69-4.22,9.16-1.69,19.49,2.14,28.31,6.66,15.35,17.85,28.4,31.21,38.35a116.76,116.76,0,0,0,47.33,20.64c20.22,3.93,41.11,3,61.23-1.05a198.49,198.49,0,0,0,29-8.22A125.8,125.8,0,0,0,376.56,536c13.59-8.51,25.7-21.11,29.05-37.27,2.8-13.57.07-29.33-10.1-39.33a30.8,30.8,0,0,0-8.29-5.84c-1.74-.84-3.26,1.75-1.52,2.59,12.46,6,18.13,19.86,17.95,33.12a44.38,44.38,0,0,1-4.85,19.83A60.19,60.19,0,0,1,383,527.72C369.48,538.66,352.5,545,335.88,549.5c-19.23,5.25-39.34,7.71-59.24,5.89a119.15,119.15,0,0,1-49.91-15.75c-13.86-8.21-26-19.5-34.42-33.31-4.5-7.41-8.63-15.93-9.25-24.69a22,22,0,0,1,2.86-13.09,26.49,26.49,0,0,1,8.41-8.28c7.44-4.85,16.31-7.59,24.82-9.88a162.28,162.28,0,0,1,28.53-5c19.52-1.68,39.2-.26,58.52,2.76,19.72,3.08,39.14,7.77,58.42,12.87q7.06,1.88,14.1,3.8a1.51,1.51,0,0,0,.8-2.9Z"/><path class="cls-4" d="M488.82,347.74c38-8.64,76.07-17.25,114.52-23.74,38.26-6.46,77-10.8,115.8-10.75,33.46,0,66.86,3.4,99.35,11.53A332.83,332.83,0,0,1,902.42,358c25.63,14.6,49.09,33.11,68.34,55.53,21,24.4,37.82,53.94,43.08,86,2.77,16.83,1.94,34.29-3.81,50.43-5.22,14.65-14.17,27.63-23.68,39.81-9.34,11.95-19.37,23.38-28,35.86a142.67,142.67,0,0,0-11.64,19.73c-3.18,6.69-5.81,13.62-8.69,20.43-5.64,13.37-12.76,27.26-26.22,34.18-12.22,6.29-26.85,5.33-39.38.48a64.26,64.26,0,0,1-32.1-27.7c-8.44-14.32-12.29-30.87-14-47.27-.83-8-1.15-16.13-1.24-24.22a1.5,1.5,0,0,0-3,0c.33,31.08,4.34,67.82,29.15,89.73,20.25,17.88,53.5,24,73.69,2.74,10.49-11.06,15.34-26,21.18-39.72,6.23-14.69,14.92-27.72,24.78-40.22s20.25-24.32,29-37.52c8.88-13.44,15.41-28.17,17.6-44.22,4.64-34-8.16-68.26-26.41-96.41-16.41-25.3-38-46.93-62.45-64.46-25.05-17.93-53.07-31.55-82.24-41.35a377,377,0,0,0-92.08-18.24c-40-3-80.23-.57-119.94,4.74S555.5,329.71,516.5,338.42q-14.25,3.16-28.48,6.43c-1.88.43-1.09,3.32.8,2.89Z"/><path class="cls-4" d="M452.52,506.05c22,7.73,37.73,26.37,47.32,47,11.66,25.06,13.7,53,14.27,80.22.33,15.34.21,30.69,1.06,46,.74,13.29,2,27.77,10.39,38.74,6.89,9,18.17,14.88,29.57,11.63,9.78-2.78,16.52-11.35,21.06-20,5.67-10.79,8.57-22.7,11.88-34.36q6.48-22.83,13-45.67l3.14-11.06a1.5,1.5,0,0,0-2.9-.79L588.45,663l-6.28,22.11a153.79,153.79,0,0,1-5.27,16c-3.66,9-8.93,18.61-17.59,23.6a21.69,21.69,0,0,1-14.12,2.69,26.75,26.75,0,0,1-14.7-8.15c-9.44-9.8-11.31-24.07-12.15-37.05-1-15-.9-30-1.15-45-.47-27.32-2-55.31-12.65-80.82-8.65-20.65-23-40-43.51-49.94a74.3,74.3,0,0,0-7.72-3.21c-1.82-.64-2.61,2.25-.79,2.89Z"/><path class="cls-4" d="M441,538.66a479.77,479.77,0,0,0,.22,89.76q1.06,11,2.62,21.83a96.18,96.18,0,0,0,3.78,17.2c3.33,9.87,9.71,19.41,20.31,22.15,9.45,2.45,21.27-.44,24.79-10.49.64-1.82-2.26-2.61-2.89-.79-2.8,8-12.44,10.22-20,8.66a21.53,21.53,0,0,1-11.42-6.38,37.52,37.52,0,0,1-8-14A94.55,94.55,0,0,1,446.84,650c-1-6.86-1.82-13.74-2.5-20.63q-2.1-21.27-2.3-42.66a479.27,479.27,0,0,1,2-48.08c.18-1.92-2.82-1.91-3,0Z"/><path class="cls-4" d="M622.25,601.23a418.16,418.16,0,0,0,58.93,9.94,415.27,415.27,0,0,0,60.06,1.39q16.88-.84,33.63-3a1.55,1.55,0,0,0,1.5-1.5,1.5,1.5,0,0,0-1.5-1.5,414,414,0,0,1-119-1.57q-16.56-2.64-32.87-6.61c-1.88-.46-2.68,2.43-.8,2.89Z"/><path class="cls-4" d="M756.44,627.52c1.18,15.4,3.13,31.43,10.87,45.1,6.67,11.81,18.24,20.71,31.87,22.53a29.75,29.75,0,0,0,20.53-4.39c1.6-1.07.1-3.67-1.52-2.6-10.41,7-23.89,4.68-34-1.7-11.91-7.51-18.14-20.63-21.29-33.94a163.26,163.26,0,0,1-3.46-25c-.15-1.92-3.15-1.93-3,0Z"/><path class="cls-4" d="M426.27,347.68c7.94-2.76,16.19-5.55,24.68-5.6,6.77,0,13.62,1.81,18,7.23,3.2,3.93,5.17,9.42,4.46,14.51a11.07,11.07,0,0,1-11.08,9.61c-4.07,0-7.94-1.7-11.34-3.78a58.85,58.85,0,0,1-10.13-8.15c-1.39-1.34-3.52.78-2.13,2.13,5.76,5.57,12.84,11.49,21.05,12.62,6.72.92,13.46-2.42,15.84-8.93,2-5.58.55-12.12-2.4-17.09a22.57,22.57,0,0,0-6.21-6.84,24.32,24.32,0,0,0-10.71-3.94c-10.53-1.51-21,1.92-30.85,5.34-1.81.63-1,3.53.8,2.89Z"/><path class="cls-4" d="M245.39,314.09c-15.17-2.39-30.77,4.87-39.55,17.32a37.2,37.2,0,0,0-5.47,11.6,1.5,1.5,0,0,0,.68,1.69,32,32,0,0,0,28.15-1.53,1.5,1.5,0,0,0-1.51-2.59,28.88,28.88,0,0,1-25.12,1.53l.69,1.69c3.75-13.63,16-23.95,29.69-26.59a34,34,0,0,1,11.64-.23c1.89.3,2.7-2.59.8-2.89Z"/><path class="cls-4" d="M260.16,411.44a59,59,0,0,1-7.38-23.79,60.26,60.26,0,0,1,.19-12.38c.42-3.52,1.07-7.24,2.82-10.38,1.55-2.8,4.26-5,7.64-4.68,3.13.33,5.77,2.73,7.56,5.16,4.48,6.06,5.35,14.19,5,21.52a49,49,0,0,1-8.57,25.23c-1.1,1.6,1.5,3.1,2.59,1.52a51.86,51.86,0,0,0,8.81-24.51c.77-8.11,0-17.43-4.6-24.38-2-3.08-4.83-5.9-8.41-7.07a10.15,10.15,0,0,0-10,2.33c-2.73,2.52-4.13,6.28-4.92,9.82a58,58,0,0,0-1.3,13.34,62.63,62.63,0,0,0,8,29.79,1.5,1.5,0,0,0,2.59-1.52Z"/><path class="cls-4" d="M304.36,396.1c-2.83-8.86-5.63-17.76-8-26.74-1.05-3.91-2-8.36-.35-12.25a10.7,10.7,0,0,1,5.59-5.43,14.69,14.69,0,0,1,15.85,2.6c5,4.68,6.72,11.89,6.29,18.52-.62,9.41-5.6,18-10.16,26a1.5,1.5,0,0,0,2.59,1.51c4.57-8,9.24-16.38,10.4-25.7.91-7.34-.76-15.35-5.67-21a17.69,17.69,0,0,0-18.1-5.46A13.84,13.84,0,0,0,292.22,364c.58,5.49,2.54,10.87,4.1,16.14q2.48,8.38,5.14,16.73c.59,1.83,3.48,1.05,2.9-.8Z"/><path class="cls-4" d="M285.05,467.32l4.86,20.16a1.52,1.52,0,0,0,2.21.9,14.12,14.12,0,0,0,5.43-18.2c-.86-1.73-3.45-.21-2.59,1.52a11.05,11.05,0,0,1-4.36,14.09l2.2.89-4.86-20.16c-.45-1.88-3.34-1.08-2.89.8Z"/><path class="cls-4" d="M237.91,474.52l5.26,22.56a1.54,1.54,0,0,0,1.85,1.05,12.53,12.53,0,0,0-2.79-24.8,1.5,1.5,0,0,0,0,3,9.53,9.53,0,0,1,2,18.9l1.84,1-5.25-22.56c-.44-1.88-3.34-1.08-2.9.8Z"/><path class="cls-4" d="M1035.6,449.87a61.77,61.77,0,0,1,45,8.3,59.62,59.62,0,0,1,10.37,8.29,1.5,1.5,0,0,0,2.12-2.12,64.92,64.92,0,0,0-44.44-18.69,62.73,62.73,0,0,0-13.81,1.32c-1.89.4-1.09,3.29.79,2.9Z"/><path d="M683.64,342.64q29.72,21.8,59.45,43.58c3.72,2.73,7.67,5.68,9.73,9.93,2.41,5,.76,10.71-1.4,15.44-4.07,8.89-10.57,16.31-17.61,23-14.31,13.53-31.65,24.91-40.62,43.08-4.23,8.58-6,18.17-4,27.6,1.93,9.12,7,17.42,13.6,23.94,15,14.86,36.95,19.39,57.32,20.26,19.31.83,39.21-1.88,56.77-10.28a76.77,76.77,0,0,0,23-16.43,67.28,67.28,0,0,0,13.67-22.1c6-15.7,6.14-34.3-2.79-48.95-4.67-7.68-11.72-13.43-17.18-20.49A28.14,28.14,0,0,1,827.89,420a18.87,18.87,0,0,1,1.6-12.23c4-8.08,12-13.58,19.7-17.81s16.1-8.33,22.39-14.81a29.38,29.38,0,0,0,6.7-10.64c.64-1.82-2.26-2.61-2.9-.8-3,8.36-10.41,13.81-17.76,18.14-7.79,4.6-16,8.33-22.84,14.45-6.55,5.89-11.33,13.9-10,23,1.23,8.68,7.57,15.43,13.3,21.58a93.72,93.72,0,0,1,8.61,10.05,43.62,43.62,0,0,1,5.59,11,52.52,52.52,0,0,1,1.93,24.55,64.79,64.79,0,0,1-27,43.24c-15.8,11.1-35.2,15.89-54.29,16.74a140.66,140.66,0,0,1-30.19-1.81c-10.36-1.8-20.57-5.09-29.44-10.86A50.65,50.65,0,0,1,695,513.15a37.74,37.74,0,0,1-2-27.12c5.79-19.08,22.91-31.63,37.21-44.2,7.26-6.38,14.31-13.18,19.64-21.31s10.4-19.1,4.28-28c-2.78-4-6.87-6.92-10.78-9.79L728.74,372l-29.33-21.5-14.26-10.45c-1.56-1.14-3,1.46-1.51,2.59Z"/><path d="M1255.78,351.63q63.43-.13,126.87-.23t126.87-.16l63.83-.06c10.11,0,20.25-.18,30.36,0,8.39.18,17.07.83,24.88,4.16,15.88,6.79,21.23,23.8,23.11,39.65,2.36,20,1.93,40.29,1.63,60.37q-1,63.58-2,127.18l-.24,15.56c0,1.93,3,1.93,3,0q1-64.62,2-129.24c.32-21,.91-42.08-.48-63.07-1-15.62-2.89-33.38-14.26-45.26-12.36-12.91-31.58-12.4-48.09-12.39l-64.23.05q-64.43.06-128.86.16l-128.46.21-16,0a1.5,1.5,0,0,0,0,3Z"/><path d="M1623.88,650.3,1672.14,621c11.47-7,24.52-15.09,29.13-28.46a38.22,38.22,0,0,0,1.6-13c-.06-4.85-.32-9.74,1.23-14.41l-2.51.66a26.73,26.73,0,0,1,6.67,25,1.51,1.51,0,0,0,2.5,1.46A134.33,134.33,0,0,0,1730,569.05l-2.74-.36a25.84,25.84,0,0,1-8.33,26.58,1.51,1.51,0,0,0,.66,2.5c3.68.91,7.45.69,11.2.77,3.41.08,7.17.5,9.7,3.05,4.31,4.36,3.44,12-2.15,14.77a9.67,9.67,0,0,1-9.38-.4l.54,2a7.86,7.86,0,0,0-1-8.42c-2.18-2.84-5.63-4-9.12-4a26.87,26.87,0,0,0-5.51.6,9.78,9.78,0,0,0-4.82,2c-2.35,2.1-2,5.7-.3,8.08,2.43,3.36,6.87,3.71,10.67,3.77l-1.29-2.26c-3.75,6.46-14.61,7-18.84.75a1.52,1.52,0,0,0-2.59,0A439,439,0,0,0,1655.08,697q-4.69,11.6-8.73,23.43c-.62,1.84,2.28,2.62,2.9.8A435.42,435.42,0,0,1,1686,641.15q6.35-10.77,13.29-21.18h-2.59c5.46,8.08,19.09,7.76,24-.75a1.51,1.51,0,0,0-1.3-2.25c-2.79-.05-6.64,0-8.36-2.69a3.54,3.54,0,0,1-.48-3.32c.69-1.4,2.73-1.64,4.09-1.91,3.16-.62,6.91-1,9.78.8,2.08,1.32,3.73,4.24,2.51,6.65a1.53,1.53,0,0,0,.54,2c6.26,4,15.43,1.17,18.06-5.84a13,13,0,0,0-.86-10.46,12.61,12.61,0,0,0-9.26-6.3c-5-.86-10.09.14-15-1.07l.66,2.51a28.78,28.78,0,0,0,9.1-29.5,1.52,1.52,0,0,0-2.74-.36,131,131,0,0,1-18.79,22.56l2.51,1.46a29.81,29.81,0,0,0-7.44-27.9,1.51,1.51,0,0,0-2.5.66c-2.64,8-.21,16.43-2,24.51-1.45,6.55-5.46,12-10.28,16.58-5,4.71-10.81,8.46-16.65,12q-11.6,7.07-23.21,14.08l-26.7,16.2a1.5,1.5,0,0,0,1.52,2.59Z"/><path d="M1234.92,352.28c-7.27-1.95-14.69.28-20.54,4.8-6.47,5-10.23,12.48-12.33,20.25-2.41,8.92-3.08,18.36-3.69,27.54-.69,10.48-.86,21-.8,31.48.1,20.72,1,41.43.56,62.15-.45,19.72-1.94,39.41-4,59-4.18,39.5-10.72,78.69-16.13,118-5.31,38.6-9.61,77.48-9.23,116.49a411.72,411.72,0,0,0,4.39,57.42c1.38,9.17,2.75,18.61,5.42,27.5,2.29,7.66,6.76,13.39,14.18,16.59,8.22,3.55,17.58,4.89,26.28,6.74q14.68,3.11,29.47,5.66c19.65,3.42,39.41,6.14,59.23,8.29,40.18,4.35,80.59,6.28,121,6.72,40.59.43,81.18-.64,121.73-2.34,20.1-.83,40.19-1.83,60.28-2.86,9.64-.5,19.53-.44,29.11-1.72,7.44-1,13.61-4.48,17.06-11.31s4-14.61,4.68-22.08q1.35-15.48,2.17-31,1.66-31.3,1.16-62.68-.24-15.26-1-30.5c-.09-1.92-3.09-1.94-3,0a916.37,916.37,0,0,1-2.06,120.86c-.66,7.93-.88,16.63-4.55,23.88-4.25,8.41-12.37,9.9-21,10.37q-29.29,1.57-58.59,3c-39.13,1.83-78.28,3.26-117.45,3.47s-78.08-.77-117-3.77a934,934,0,0,1-116.23-16c-9-1.84-18.21-3.4-26.9-6.26a24.91,24.91,0,0,1-10.57-6.15c-3-3.15-4.49-7.3-5.58-11.41-4.82-18.19-6.93-37.43-8.22-56.16-2.58-37.6,0-75.33,4.38-112.7,4.44-38,10.75-75.7,15.81-113.59,5.08-38,8.69-76.24,8.28-114.67-.22-20.29-1.09-40.58-.42-60.87a253,253,0,0,1,2.35-29.49c1.29-8.6,3.62-17.77,9.64-24.35,5.36-5.86,13.39-9.57,21.33-7.44a1.5,1.5,0,0,0,.8-2.89Z"/><path d="M1517,909.47a61.4,61.4,0,0,1-2.72,21c-.58,1.84,2.31,2.63,2.89.79a63.7,63.7,0,0,0,2.83-21.82c-.09-1.92-3.09-1.93-3,0Z"/><path d="M1501.91,914.78l-1.64,15.93a1.5,1.5,0,0,0,3,0l1.64-15.93a1.5,1.5,0,0,0-1.5-1.5,1.54,1.54,0,0,0-1.5,1.5Z"/><path d="M1490.71,912.91l-6.24,22.73a1.5,1.5,0,0,0,2.89.79l6.24-22.72a1.5,1.5,0,0,0-2.89-.8Z"/><path d="M1331.36,906.31a49.63,49.63,0,0,0-3.84,20.42c0,1.93,3,1.94,3,0a47.52,47.52,0,0,1,3.74-19.62,1.51,1.51,0,0,0-1-1.85,1.54,1.54,0,0,0-1.85,1Z"/><path d="M1309.91,905l-3.16,20.08a1.55,1.55,0,0,0,1,1.85,1.51,1.51,0,0,0,1.84-1l3.16-20.08a1.55,1.55,0,0,0-1-1.85,1.52,1.52,0,0,0-1.85,1Z"/><path d="M1320.62,906.29l-5.53,17.23c-.59,1.84,2.3,2.63,2.89.8l5.53-17.23c.6-1.84-2.3-2.63-2.89-.8Z"/><path d="M1724.31,622.51a3.88,3.88,0,0,0,.06-2.16,2.2,2.2,0,0,0,0-.36l-.26.16c-.3.07-.36.14-.17.21,0,.12.52.85.61,1a4.54,4.54,0,0,0,3.62,3.06c1.78.28,3.64,0,5.44.18a22.17,22.17,0,0,1,6,1.3,14.58,14.58,0,0,1,7.78,6.48c1.51,2.79,1.81,6.09,2.21,9.18s.85,6.38,2.46,9.16a13,13,0,0,0,7.41,5.66c3.29,1.08,6.8,1.24,10.2,1.78a58.67,58.67,0,0,1,12.07,3.25c.89.34,1.77.71,2.63,1.1.22.1.54.36.76.36.52,0-.47-.46-.27-.5a6.71,6.71,0,0,0-.5,1.22,23.32,23.32,0,0,1-2.62,4.37,30.2,30.2,0,0,1-7.63,6.89c-6.68,4.34-14.46,6.42-22,8.74-8,2.47-16,5.48-24.44,6.09l-1.41.08c-.4,0-1.29-.16-1.64,0h-.23l.4.56a5,5,0,0,0,0-.65c0-.59,0-1.17,0-1.76a22.28,22.28,0,0,1,1.11-5.82c1.22-3.7,4-6.76,4.59-10.67a31.74,31.74,0,0,0,.19-5.93,16.4,16.4,0,0,0-.93-5.51c-1.34-3.36-4.54-4.95-7-7.42a18,18,0,0,1-.68-24.32c1.26-1.46-.86-3.59-2.12-2.12a21.16,21.16,0,0,0-3.77,21.69,22.22,22.22,0,0,0,6.93,9.05c1.45,1.16,3,2.34,3.78,4.11a16.37,16.37,0,0,1,.78,6,14.74,14.74,0,0,1-.93,6.42c-.86,2-2.09,3.71-2.93,5.67a24.55,24.55,0,0,0-1.77,6c-.29,1.85-.73,4.32-.12,6.13.7,2.07,3.57,1.53,5.24,1.43a55.11,55.11,0,0,0,6.66-.85,114,114,0,0,0,13.22-3.53c14.64-4.62,33.94-8.45,40.39-24.45a3.07,3.07,0,0,0,.2-2.61c-.42-.85-1.41-1.18-2.22-1.54a64.37,64.37,0,0,0-6.2-2.37,70,70,0,0,0-12.57-2.61c-3.41-.43-7.29-.89-10-3.16s-3.44-5.7-3.91-9c-.51-3.51-.73-7.1-2.13-10.41a16.54,16.54,0,0,0-7.27-7.85,24.86,24.86,0,0,0-12.27-2.83,10,10,0,0,1-2.67-.09c-1-.29-1.09-1.28-1.52-2.11-.74-1.42-2.44-2.54-4.06-1.81a2.52,2.52,0,0,0-1.39,1.79c-.17.79.2,1.61,0,2.37a1.5,1.5,0,0,0,2.89.8Z"/><path d="M1782.75,674a4.51,4.51,0,0,0,.18,1.5s.08.23,0,.26c0-.22,0-.25,0-.08v.11c0,.17-.08.28,0-.07l-.06.23c0,.25.14-.23,0-.09s-.07.14-.11.21a1.77,1.77,0,0,0-.12.17c.16-.19.18-.23.08-.11l0,.07-.38.35c-.19.18.21-.15.06,0l-.21.15a8.94,8.94,0,0,1-.84.51l-.49.25-.29.14c-.08,0-.35.22,0,0a2.55,2.55,0,0,1-.55.19c-.07,0-.5.18-.56.13l.14,0h-.15c-.07,0-.23,0-.3,0l.2,0-.19,0c-.1,0-.38-.16,0,0a1.62,1.62,0,0,0-1.16-.15,1.5,1.5,0,0,0-.36,2.74,4.47,4.47,0,0,0,3.55.1,12,12,0,0,0,2.57-1.31,5,5,0,0,0,2-2.35,3,3,0,0,0,.17-1.43c0-.36-.12-.69-.19-1l0-.16c0-.12,0-.07,0,.14-.06,0,0-.36,0-.42a1.59,1.59,0,0,0-.44-1.07,1.51,1.51,0,0,0-1.06-.43,1.53,1.53,0,0,0-1.5,1.5Z"/><path d="M1361.45,414.85l60.45,27.6L1482.34,470l34.23,15.63a1.53,1.53,0,0,0,2.21-.9c2.21-7.18,4.67-15.57,11-20.3,5-3.76,13.19-4.81,17.59.42l-.23-1.81-28.87,64.23-29,64.49-14.42,32.08c-4.65,10.34-9.06,20.84-14,31-1.77,3.67-3.87,7.52-7.17,10-4.25,3.26-9.26,2.36-14.16,1.38q-15.3-3-30.35-7.13a458.61,458.61,0,0,1-113.67-48.05q-13.31-7.87-26-16.65c-4-2.74-8.46-5.37-11.72-9-3.61-4-3.72-9.3-2.59-14.34,2.38-10.71,7.5-20.81,12.21-30.64l15.35-32,30.48-63.59,15.24-31.79c3.66-7.63,7.65-16.25,14.9-21.14a13.7,13.7,0,0,1,10.47-2.41l-.89-2.2a30.35,30.35,0,0,0-1.51,21.85c.58,1.84,3.47,1,2.89-.8a27.21,27.21,0,0,1,1.21-19.54,1.52,1.52,0,0,0-.9-2.2c-8.55-1.72-15.49,3.77-20.39,10.21a65.78,65.78,0,0,0-6.72,11.27q-3.88,8.07-7.74,16.16l-31.38,65.45-15.75,32.85c-5,10.48-10.31,20.87-14.81,31.58a98.55,98.55,0,0,0-5.5,15.92c-1.11,4.84-1.38,10.14,1.17,14.61,2.43,4.24,6.76,7,10.66,9.74q6.53,4.59,13.22,8.95a460.28,460.28,0,0,0,55.56,30.94,463.85,463.85,0,0,0,59.14,23q15.26,4.74,30.81,8.43,7.65,1.82,15.35,3.35c5,1,10.2,2.09,15-.33,3.75-1.9,6.43-5.42,8.48-9,2.53-4.42,4.42-9.21,6.51-13.85l14.9-33.14,29.7-66.07,29.71-66.11,7.22-16.06a1.59,1.59,0,0,0-.23-1.82c-5.08-6-14.5-5.38-20.59-1.33-7.52,5-10.49,14.35-13,22.54l2.21-.9-60.45-27.6-60.44-27.59L1363,412.26c-1.75-.79-3.27,1.79-1.52,2.59Z"/><path d="M1366.28,483.74a3.93,3.93,0,0,1-.44-.1s-.44-.15-.23-.07-.17-.08-.22-.11l-.42-.25c-.31-.2.1.11-.09-.06l-.32-.3-.26-.28s-.18-.23-.06-.07-.07-.1-.08-.11c-.14-.22-.28-.45-.4-.68s-.13-.27-.19-.41c.14.32,0-.13-.08-.23a8.15,8.15,0,0,1-.22-.85l0-.26,0-.38a7.48,7.48,0,0,1,0-.82c0-.16,0-.31,0-.47a1.66,1.66,0,1,0,0-.18,6,6,0,0,1,.23-.83c0-.13.16-.39,0-.12l.23-.46.21-.34c0-.06.09-.12.13-.19s-.2.24,0,0a5,5,0,0,1,.65-.65c-.23.2,0,0,.14-.1s.26-.16.4-.23l.23-.11c-.26.12-.06,0,0,0s.35-.11.54-.15.46-.06.15,0l.5,0,.43,0,.18,0c-.37,0,0,0,.1,0a5.8,5.8,0,0,1,.84.24l.24.09c-.06,0-.25-.13,0,0l.45.24.44.27.15.11c.19.13-.17-.14,0,0a6.3,6.3,0,0,1,.75.71c.06.07.3.36.13.13l.29.42.22.39c0,.07.24.57.14.27.09.28.16.56.24.85s0,0,0,0a2.11,2.11,0,0,1,0,.25,3.77,3.77,0,0,1,0,.58c0,.11-.07.49,0,.2,0,.17-.07.33-.12.5s-.08.26-.12.39,0-.08,0-.09l-.15.31a6,6,0,0,1-.43.68c.22-.31-.07.07-.12.13s-.21.22-.32.32l-.35.29c.23-.18,0,0-.11.07a7.67,7.67,0,0,1-.79.45s-.27.12-.08,0-.13,0-.14,0l-.44.14a4.07,4.07,0,0,1-.5.13c-.11,0-.62.1-.22.06-.32,0-.64.05-1,.05l-.5,0s-.23,0,0,0-.08,0-.13,0c-.31-.06-.6-.19-.9-.25s.24.13.06,0l-.24-.12a2.82,2.82,0,0,1-.38-.21l-.18-.12c-.26-.17.12.13,0,0s-.25-.22-.36-.34-.3-.38-.12-.12c-.11-.16-.21-.32-.31-.48a1.5,1.5,0,1,0-2.59,1.51c1.63,2.87,5.24,3.73,8.25,2.78a7,7,0,0,0,5.12-7.76,7.85,7.85,0,0,0-7.46-6.17A6.29,6.29,0,0,0,1362,474a7.68,7.68,0,0,0-1.82,4.52c-.27,3.42,1.69,7.41,5.3,8.12a1.54,1.54,0,0,0,1.84-1.05,1.52,1.52,0,0,0-1-1.85Z"/><path d="M1442.64,513.24c.24,0-.28,0,0,0a1.57,1.57,0,0,1-.29-.08c.21.09-.08,0-.12-.09-.21-.18.2.25-.12-.12a1.58,1.58,0,0,1-.29-.44,2.55,2.55,0,0,1-.2-.68c0,.16.05-.57,0-.39a1.2,1.2,0,0,1,.22-.53,3,3,0,0,1,1.29-1.08,9.1,9.1,0,0,1,7.25.21,6.56,6.56,0,0,1,4.18,5.44c.11,2-.83,4.29-2.8,4.8a4.25,4.25,0,0,1-2.87-.36,3.34,3.34,0,0,1-1.19-.93,4.89,4.89,0,0,1-.38-.65c.07.15-.15-.65-.13-.49a1.54,1.54,0,0,0-1.5-1.5,1.51,1.51,0,0,0-1.5,1.5,6.51,6.51,0,0,0,6.91,5.53c3.79-.17,6.24-3.43,6.46-7a9.34,9.34,0,0,0-5.47-8.8c-3.25-1.56-7.94-2.09-11.07.05a4.88,4.88,0,0,0-2.21,5.45,4,4,0,0,0,4.62,3.07,1.52,1.52,0,0,0,1-1.84,1.53,1.53,0,0,0-1.85-1Z"/><path d="M1323.88,488.56q23,12.44,46.79,23.51t48,20.72q24.45,9.72,49.43,18c3.3,1.1,7.06,2.45,6.62,6.63a25.47,25.47,0,0,1-1.78,6q-1.1,3-2.25,6-4.62,12-10.16,23.54-5.46,11.43-11.76,22.44-3.18,5.55-6.57,11c-2.14,3.43-4.19,7.13-6.82,10.21a12,12,0,0,1-9.66,4.46c-3.77-.06-7.45-1.33-10.92-2.72-8.49-3.42-16.82-7.3-25.22-11l-51.06-22.24-25.64-11.16-12.6-5.49a73.27,73.27,0,0,1-9.83-4.81,17.83,17.83,0,0,1-7-7.34c-1.67-3.6-1.62-7.8-1-11.64a91.89,91.89,0,0,1,2.83-11.53q1.71-5.83,3.78-11.55a193.87,193.87,0,0,1,22.17-43.2q3.33-4.86,6.94-9.51c1.17-1.5-.93-3.64-2.12-2.12a197,197,0,0,0-33.91,66.42c-2.17,7.53-4.81,16.26-1.6,23.89,2.89,6.86,9.86,10.32,16.31,13.14q13.2,5.77,26.44,11.51l52.66,22.93,26.56,11.57c4.08,1.78,8.14,3.66,12.29,5.28a31,31,0,0,0,11.53,2.52,14.57,14.57,0,0,0,10.09-4.14c2.91-2.87,5-6.65,7.18-10.08q7.08-11.19,13.28-22.91t11.38-23.67q2.57-5.94,4.93-12c.8-2.06,1.59-4.12,2.35-6.19a39.19,39.19,0,0,0,2-6.16,8.13,8.13,0,0,0-4.4-9.32,34.76,34.76,0,0,0-5.12-1.94c-2.15-.72-4.3-1.44-6.45-2.18q-12.78-4.35-25.43-9.09-25.44-9.54-50.27-20.61T1337,492.13q-5.84-3-11.62-6.16c-1.7-.92-3.21,1.67-1.51,2.59Z"/><path d="M1364.82,516.46c15.85,8,31.73,16,47.56,24,.16.08,1,.39,1.06.58a8.21,8.21,0,0,1-.52.8c-.43.75-.88,1.48-1.38,2.18a10.29,10.29,0,0,1-3.37,3.29,5.89,5.89,0,0,1-5.15-.05c-2.07-.8-4.08-1.82-6.11-2.73l-24.12-10.88c-2.18-1-4.37-1.94-6.54-3a17.08,17.08,0,0,1-4.77-2.93,5.07,5.07,0,0,1-1.77-4.09,3,3,0,0,1,2-2.92,1.5,1.5,0,0,0-.79-2.89c-3.3.86-4.66,4.43-4.13,7.55.63,3.78,4.19,6.1,7.39,7.63,9.08,4.33,18.36,8.29,27.54,12.43l7,3.18c2.06.93,4.15,2,6.45,2.23,4,.32,7-2.58,9.08-5.66,1-1.44,2.66-3.52,1.9-5.33a3.87,3.87,0,0,0-1.9-1.8c-1.17-.63-2.37-1.2-3.55-1.8l-13.56-6.85-30.9-15.62c-1.72-.87-3.24,1.72-1.51,2.59Z"/><path d="M1329.22,539.4a42.73,42.73,0,0,0,19,31.3,40.17,40.17,0,0,0,9.59,4.61v-2.89c-9.13,2.71-20,5.86-28.75.21-6.74-4.36-8.4-13.25-6.54-20.61.91-3.6,3.26-10,7.86-9.86,1.93.08,1.93-2.92,0-3-5-.2-8.1,4.82-9.73,8.92a26.24,26.24,0,0,0-1.57,13.41,19.94,19.94,0,0,0,5.78,11.64c3.79,3.57,8.94,5.24,14.06,5.58,6.72.44,13.32-1.51,19.69-3.4a1.51,1.51,0,0,0,0-2.89,39.43,39.43,0,0,1-26.4-33c-.18-1.9-3.18-1.92-3,0Z"/><path d="M1364.36,477.87l-.38-.23-.07-.05c-.13-.09-.1-.07.09.07a1.5,1.5,0,0,0-.13-.11,3,3,0,0,1-.31-.31l-.11-.13c.14.19.17.22.08.1a1.3,1.3,0,0,1-.1-.15l-.08-.15c-.15-.26.09.27,0,.08s-.08-.24-.11-.37c-.08-.29,0,.38,0,.07,0-.06,0-.12,0-.17a1.14,1.14,0,0,1,0-.26l0,.24a1,1,0,0,1,0-.17c0-.06.12-.28,0-.06s0,0,0,0a1.1,1.1,0,0,0,.09-.14l-.14.17.12-.13a1.42,1.42,0,0,0,.13-.12c-.22.26-.14.11,0,0l.16-.08c-.32.2-.13.06,0,0l.28-.07c.13,0,.19,0-.12,0,.12,0,.26,0,.4,0l.38,0c-.36,0-.29-.05-.16,0l.3.06.34.11.18.07c-.37-.12-.24-.11-.14-.06l.34.19.19.12c.23.14-.26-.23-.06,0l.28.26a.52.52,0,0,1,.1.11c.12.13.1.24,0-.07,0,.1.14.2.19.31s0,.09.07.13c-.22-.34-.09-.23,0-.09s0,.24.09.35c-.12-.4,0-.26,0-.1v.15c0,.06,0,.32,0,0s0,0,0,0a.88.88,0,0,1,0,.15c-.05.15,0,.1.06-.13a.61.61,0,0,1-.07.14c0,.07-.27.4-.1.19s-.1.09-.16.15-.29.18.06,0l-.14.09-.21.12c-.23.14.34-.11.06,0l-.15.05-.16,0,.16,0a1.34,1.34,0,0,0-.4,0l.24,0-.16,0-.23-.07c-.28-.09.26.14.09,0l-.24-.14-.14-.09c.36.21.13.1,0,0l-.14-.15c-.21-.2.18.3,0,.05l-.11-.17c-.07-.13-.1-.37,0,0,0-.14-.15-.67-.08-.15a1.63,1.63,0,0,0-.44-1.06,1.56,1.56,0,0,0-1.06-.44,1.54,1.54,0,0,0-1.06.44,1.44,1.44,0,0,0-.44,1.06,4.29,4.29,0,0,0,.47,1.6,4,4,0,0,0,.86,1,3.89,3.89,0,0,0,2.74,1,4,4,0,0,0,3.76-4,4.63,4.63,0,0,0-3.2-4c-1.78-.68-4.23-.29-5.25,1.46a3.82,3.82,0,0,0-.15,3.41,5.07,5.07,0,0,0,2.23,2.37,1.5,1.5,0,0,0,1.52-2.59Z"/><path d="M1443.05,514.34a5.32,5.32,0,0,0-1.34-2.12,7.1,7.1,0,0,1-.62-.68s.19.28,0,0l-.08-.13c0-.05-.13-.29,0,0s0-.06,0-.12a.83.83,0,0,1,0-.15c-.08-.28,0,.39,0,.1,0-.08,0-.46,0-.17s0,.05,0,0c0-.21-.06.14-.08.16l0-.06c.07-.12,0-.08-.13.14l0-.05c.11-.1.06-.06-.15.11,0,0,.26-.09,0,0l-.1,0c-.22,0-.24,0-.07,0h.11l-.18,0a1.75,1.75,0,0,1,.33.06l.89.22c.3.09.59.19.88.3s-.08,0-.11,0,.18.08.25.12a3.68,3.68,0,0,1,.44.23,3.87,3.87,0,0,1,.34.21l.07,0-.09-.07a.45.45,0,0,0,.13.11c.11.1.21.2.31.31s.22.24,0,0,0,.09.08.14.25.45.13.21,0,0,0,.07,0,.15,0,.22,0-.4,0-.09v.17c0,.31.11-.34,0,0l0,.08c0,.15,0,.11.07-.12a.47.47,0,0,0-.08.14l.13-.17a.34.34,0,0,1-.12.12c0-.06.27-.19.09-.07s.32-.12,0,0,0-.1.13,0a.59.59,0,0,0-.23,0c-.21,0,.38.08.07,0l-.29-.07-.29-.09c-.09,0-.37-.18,0,0l-.54-.25-1.29-.6-1.24-.58-.33-.16-.11-.05c-.13-.08-.09,0,.11.11l-.11-.11c.15.2.19.24.11.11a1.27,1.27,0,0,1-.43,1.67,1.5,1.5,0,0,0,.69-.89,1.5,1.5,0,0,0-1-1.85,1.8,1.8,0,0,0-1.16.15,1.67,1.67,0,0,0-.82,1,1.85,1.85,0,0,0,.16,1.38,2.4,2.4,0,0,0,1.21,1.12l2.91,1.37a5,5,0,0,0,3.31.63,2.89,2.89,0,0,0,2.1-2.75c.12-2-1.55-3.65-3.27-4.39a11.8,11.8,0,0,0-2.61-.81,3.08,3.08,0,0,0-2.13.27,2.6,2.6,0,0,0-1.09,1.41,3.52,3.52,0,0,0,.49,3,11.24,11.24,0,0,0,1.1,1.28l.22.25c.22.26-.1-.17,0,0s.13.21.2.32.09.19,0,0,0,.05,0,.08a1.51,1.51,0,0,0,1.84,1,1.53,1.53,0,0,0,1-1.84Z"/><path class="cls-4" d="M310.33,375.91l-.81-.58-.23-.17s.19.16,0,0l-.44-.36a9.28,9.28,0,0,1-.71-.69c0-.05-.36-.45-.21-.24a4.63,4.63,0,0,1-.31-.46c-.08-.13-.14-.27-.22-.41s.06.22,0,0l-.06-.19a4.1,4.1,0,0,1-.14-.5s0-.24,0-.06,0-.15,0-.19,0-.3,0-.45-.07.23,0,0a1.16,1.16,0,0,0,0-.18,2.25,2.25,0,0,1,.08-.24c0-.1.13-.2,0,0,0-.06.06-.12.09-.17s.17-.23,0-.07c.1-.12.22-.22.32-.33s-.18.1,0,0l.16-.11c.06,0,.52-.26.24-.14a2.78,2.78,0,0,1,.51-.17l.45-.1c.23-.05-.24,0,0,0l.19,0h.5l.19,0c.18,0-.24-.06,0,0a6.28,6.28,0,0,1,.85.23c.27.09.05,0,0,0l.23.11.43.25s.21.18,0,0l.14.12c.11.1.21.2.31.31s0,0,0,0l.13.2c.08.13.15.26.22.4-.14-.3,0,.06,0,.18s0,.15.05.23c.07.27,0-.19,0,0s0,.31,0,.46v.09c0-.22,0,.1,0,.13s-.09.29-.13.44c0-.05.15-.29,0-.05l-.1.19c0,.07-.09.13-.12.19.09-.15.12-.13,0,0a4,4,0,0,1-.38.34,1.5,1.5,0,0,0,0,2.12,1.54,1.54,0,0,0,2.12,0,4.8,4.8,0,0,0,1.47-4.87,5.47,5.47,0,0,0-3.82-3.78,6.21,6.21,0,0,0-5.35.78,4.8,4.8,0,0,0-1.58,5.57c.77,2.15,2.55,3.52,4.36,4.8a1.51,1.51,0,0,0,2.05-.54,1.54,1.54,0,0,0-.54-2.06Z"/><path class="cls-4" d="M268.09,383.67l.09,0-.18-.08-.36-.17c-.27-.13-.54-.27-.8-.42l-.34-.21-.16-.12c-.19-.13.06.07.07.06s-.52-.48-.59-.55c-.24-.26.14.24,0-.06a3.3,3.3,0,0,0-.18-.32c-.1-.16.11.36,0,.07a1.21,1.21,0,0,1-.05-.18s0-.17,0-.18,0,.37,0,.07c0-.07,0-.14,0-.21s-.07.28,0,.09.07-.27.11-.4-.14.24,0,.07l.09-.19.12-.18c.17-.26,0,0,0,0s.27-.28.3-.31l.16-.15c.22-.2,0,0,0,0a4.18,4.18,0,0,0,.36-.23l.19-.1c.35-.18-.27.09.09,0a7.9,7.9,0,0,1,.95-.27c.16,0,.32-.06.49-.09s.27-.07,0,0a1.55,1.55,0,0,1,.31,0l1-.07.46,0c.22,0-.26-.05-.06,0s-.19-.09-.25-.15c-.32-.32.09,0,0,.12s-.11-.27,0-.07.05.12.07.19c.11.29.22.58.31.88s.17.64.23,1c0,.08,0,.27,0,.06s0,0,0,.1a4.18,4.18,0,0,1,0,.5c0,.06,0,.13,0,.19,0,.27.07-.24,0-.07a4.1,4.1,0,0,0-.11.4c0-.06.15-.29,0-.1s-.09.16-.14.24,0-.11.07-.08l-.2.21a1.51,1.51,0,0,0,0,2.13,1.54,1.54,0,0,0,2.12,0,4.91,4.91,0,0,0,1-4.88,9.55,9.55,0,0,0-.82-2.26,2.5,2.5,0,0,0-1.38-1.2,3.69,3.69,0,0,0-1.55-.13,8.46,8.46,0,0,0-5.31,1.73,4.25,4.25,0,0,0-1.05,5.1c.82,1.64,2.66,2.5,4.27,3.17a1.5,1.5,0,0,0,1.84-1.05,1.55,1.55,0,0,0-1.05-1.85Z"/><path class="cls-4" d="M293,525.48c4.17-2.76,9.2-3.36,13.84-5a33.8,33.8,0,0,0,11.68-7c7.34-6.6,11.79-15.69,14.51-25A159.74,159.74,0,0,0,337,470.17h-2.89A199,199,0,0,1,340.27,495c1.25,7.09,1.87,15-1.1,21.72-2.79,6.37-8.74,11-15,13.8a38.67,38.67,0,0,1-18.76,3,36,36,0,0,1-19.82-7.84c-1.48-1.22-3.62.89-2.12,2.12,10.76,8.87,26.13,11.18,39.21,6.51,6.8-2.43,13.3-6.79,17.31-12.89,4.35-6.61,4.76-14.88,3.84-22.51-1.2-10-3.9-20-6.91-29.58-.4-1.3-2.63-1.55-2.89,0-1.73,10.33-3.63,20.94-8.59,30.29-4.09,7.7-10.44,14.73-18.8,17.77-5.06,1.84-10.58,2.43-15.15,5.46-1.6,1.06-.1,3.66,1.52,2.59Z"/><path d="M520.4,232.85c-.82-4.58-6.22-6.69-10.31-5.25-4.67,1.64-7.84,6.49-8.77,11.19s.19,9.94,4.21,12.92c3.27,2.42,8.17,3.09,11.68.75,4.25-2.85,4.62-8.35,4.81-13q.4-9.66.78-19.34c.5-12.42,1.42-25-.16-37.36-.22-1.71-.47-3.42-.79-5.12-.17-.93-1.12-3.12-.15-3.74a7.26,7.26,0,0,1,2.27-.49l2.43-.43,5.34-.94,21.36-3.76c1.9-.34,1.09-3.23-.8-2.9l-17.23,3-8.5,1.5-4.12.72a6,6,0,0,0-3.05,1.22c-1.9,1.72-.84,4.45-.44,6.58.51,2.77.87,5.56,1.11,8.36a153.79,153.79,0,0,1,.35,16.77c-.28,11.63-.89,23.27-1.36,34.9-.15,3.9.05,9.68-4,11.79-3.2,1.65-7.63.09-9.52-2.85-2.76-4.28-1.54-10.29,1.58-14,1.49-1.79,3.68-3.42,6.12-3.25a4.5,4.5,0,0,1,4.3,3.53c.34,1.89,3.23,1.09,2.89-.8Z"/><path d="M1285.16,273.94c-3.38,3.41-7,7.1-8.17,11.9-1.07,4.26-.18,9.06,3.49,11.79a12,12,0,0,0,11.09,1.21c4.08-1.56,6.88-5.08,8.46-9,1.88-4.75,1.85-10,1.35-15-.58-5.75-1.31-11.42-1.38-17.2s.23-11.44.62-17.14c.1-1.47.21-2.93.32-4.4a11,11,0,0,1,.49-3.58c.43-1,1.38-1.08,2.31-1.22,1.56-.22,3.14-.38,4.7-.57l39.34-4.83-1.5-1.5q2,21.78,3.69,43.59c.28,3.64.55,7.27.81,10.91a21.94,21.94,0,0,1-.32,7.32c-.52,1.92-1.66,3.86-3.92,3.72-2.74-.16-5.72-2.51-7.53-4.43a9.79,9.79,0,0,1-2.93-7.95,7,7,0,0,1,4.57-5.9c1.84-.56,1.06-3.45-.8-2.89-5.75,1.74-8.16,8.67-6.07,14a16.46,16.46,0,0,0,6,7.32c2.6,1.86,6.13,3.69,9.34,2.4,5.48-2.21,4.94-9.85,4.6-14.59q-.92-12.52-1.94-25-1.17-14.25-2.49-28.48c-.07-.73-.64-1.61-1.5-1.5L1314.63,227l-8.41,1c-2.17.27-4.93.19-6.58,1.87s-1.53,3.95-1.68,6c-.2,2.69-.4,5.38-.56,8.08-.34,5.54-.53,11.09-.34,16.64s1.09,10.78,1.49,16.19c.34,4.6.13,9.42-2,13.59-1.83,3.48-5,6.16-9,6.31-4.57.16-8-2.91-7.91-7.57.1-5.37,4.2-9.45,7.73-13a1.5,1.5,0,0,0-2.12-2.12Z"/><path d="M670.55,129.35a2.72,2.72,0,0,1-1.2-1,2.56,2.56,0,0,1,.21-3.24,2.3,2.3,0,0,1,1.77-.75,2.78,2.78,0,0,1,1.14.24,28.71,28.71,0,0,0,11.82,2.46q10.5,0,10.5-6.9a3.85,3.85,0,0,0-1.35-3,9.8,9.8,0,0,0-3.33-1.89q-2-.69-5.64-1.65a72.21,72.21,0,0,1-7.86-2.43,13.7,13.7,0,0,1-5.16-3.51,8.84,8.84,0,0,1-2.16-6.24,11.21,11.21,0,0,1,1.8-6.21,12.38,12.38,0,0,1,5.31-4.44,19.68,19.68,0,0,1,8.43-1.65,34.14,34.14,0,0,1,11.94,2,2.34,2.34,0,0,1,1.68,2.4,2.63,2.63,0,0,1-.66,1.74,2.17,2.17,0,0,1-1.74.78,2.77,2.77,0,0,1-1-.24,29.33,29.33,0,0,0-9.66-1.62,14.71,14.71,0,0,0-7.71,1.8,5.61,5.61,0,0,0-3,5,4.64,4.64,0,0,0,1.41,3.51,9.69,9.69,0,0,0,3.54,2.1,55.78,55.78,0,0,0,5.79,1.59,60.29,60.29,0,0,1,7.65,2.28,12.52,12.52,0,0,1,5,3.54,9.58,9.58,0,0,1,2.07,6.48,10.08,10.08,0,0,1-1.92,6,12.6,12.6,0,0,1-5.4,4.17,20.16,20.16,0,0,1-8,1.5A35.59,35.59,0,0,1,670.55,129.35Z"/><path d="M707.81,131.15a2.61,2.61,0,0,1-.78-1.92V90.29a2.71,2.71,0,0,1,.78-2,2.56,2.56,0,0,1,1.92-.81,2.77,2.77,0,0,1,2.76,2.76V106a19.94,19.94,0,0,1,4.92-4,12.42,12.42,0,0,1,6.24-1.5,10.37,10.37,0,0,1,5.73,1.56,10.14,10.14,0,0,1,3.72,4.26,13.6,13.6,0,0,1,1.29,5.94v17a2.56,2.56,0,0,1-.81,1.92,2.71,2.71,0,0,1-2,.78,2.66,2.66,0,0,1-2.7-2.7V112.79q0-7.32-6.6-7.32A9.55,9.55,0,0,0,717,107a19.44,19.44,0,0,0-4.47,4.2v18a2.56,2.56,0,0,1-.81,1.92,2.71,2.71,0,0,1-1.95.78A2.61,2.61,0,0,1,707.81,131.15Z"/><path d="M749,130.25a13.46,13.46,0,0,1-5.37-5.61,19.21,19.21,0,0,1,0-16.62,13.46,13.46,0,0,1,5.37-5.61,17.44,17.44,0,0,1,16.14,0,13.65,13.65,0,0,1,5.4,5.61,18.94,18.94,0,0,1,0,16.62,13.65,13.65,0,0,1-5.4,5.61,17.44,17.44,0,0,1-16.14,0Zm12.81-4.14a9.16,9.16,0,0,0,3.72-3.6,12,12,0,0,0,1.47-6.24,11.88,11.88,0,0,0-1.47-6.18,9,9,0,0,0-3.72-3.57,10.52,10.52,0,0,0-4.71-1.11,10.64,10.64,0,0,0-4.77,1.11,8.78,8.78,0,0,0-3.69,3.57,12.08,12.08,0,0,0-1.44,6.18,12.21,12.21,0,0,0,1.44,6.24,9,9,0,0,0,3.69,3.6,10.41,10.41,0,0,0,4.77,1.14A10.29,10.29,0,0,0,761.78,126.11Z"/><path d="M786.59,131.21a3.66,3.66,0,0,1-1.32-1.8l-8.52-25a3.23,3.23,0,0,1-.18-1,2.66,2.66,0,0,1,2.7-2.7,2.74,2.74,0,0,1,1.53.45,2.21,2.21,0,0,1,.93,1.17l7,23.1,7-22.56a3.08,3.08,0,0,1,5.88,0l7,22.56,7-23.1a2.21,2.21,0,0,1,.93-1.17,2.74,2.74,0,0,1,1.53-.45,2.66,2.66,0,0,1,2.7,2.7,3.23,3.23,0,0,1-.18,1l-8.52,25a3.66,3.66,0,0,1-1.32,1.8,3.6,3.6,0,0,1-4.32,0,4,4,0,0,1-1.38-1.86l-6.36-19.86-6.36,19.86a4,4,0,0,1-1.38,1.86,3.6,3.6,0,0,1-4.32,0Z"/><path d="M847.46,130.67a10.14,10.14,0,0,1-3.72-4.26,13.6,13.6,0,0,1-1.29-5.94v-17a2.56,2.56,0,0,1,.81-1.92,2.71,2.71,0,0,1,2-.78,2.66,2.66,0,0,1,2.7,2.7v16.44q0,7.32,6.6,7.32a9.55,9.55,0,0,0,5.37-1.56,19.44,19.44,0,0,0,4.47-4.2v-18a2.56,2.56,0,0,1,.81-1.92,2.71,2.71,0,0,1,2-.78,2.66,2.66,0,0,1,2.7,2.7v25.74a2.71,2.71,0,0,1-.78,2,2.56,2.56,0,0,1-1.92.81,2.77,2.77,0,0,1-2.76-2.76v-2.46a19.94,19.94,0,0,1-4.92,4,12.42,12.42,0,0,1-6.24,1.5A10.37,10.37,0,0,1,847.46,130.67Z"/><path d="M878.27,129.53a2.29,2.29,0,0,1-1-2,2.41,2.41,0,0,1,.66-1.68,2.18,2.18,0,0,1,1.68-.72,2.64,2.64,0,0,1,1.08.24,24.25,24.25,0,0,0,3.84,1.32,17.85,17.85,0,0,0,4.32.48q6.66,0,6.66-4.26a2.27,2.27,0,0,0-1.53-2.1,31.33,31.33,0,0,0-5-1.62,45.27,45.27,0,0,1-5.85-1.74,10.29,10.29,0,0,1-4-2.73,6.94,6.94,0,0,1-1.65-4.83,8.65,8.65,0,0,1,3-6.84q3-2.64,8.67-2.64a25,25,0,0,1,8.7,1.5,2.25,2.25,0,0,1,1.29.9,2.41,2.41,0,0,1,.45,1.38,2.35,2.35,0,0,1-.69,1.68,2.27,2.27,0,0,1-1.71.72,3.37,3.37,0,0,1-.78-.12,23,23,0,0,0-6.84-1.08,9.37,9.37,0,0,0-5.07,1.17,3.49,3.49,0,0,0-1.83,3,2.77,2.77,0,0,0,1.68,2.64,24,24,0,0,0,5.22,1.62,50,50,0,0,1,5.76,1.77,9.52,9.52,0,0,1,3.81,2.73,7.41,7.41,0,0,1,1.59,5,7.93,7.93,0,0,1-3,6.36q-3,2.52-8.55,2.52A22.32,22.32,0,0,1,878.27,129.53Z"/><path d="M930.65,131.21a3.66,3.66,0,0,1-1.32-1.8l-8.52-25a3.23,3.23,0,0,1-.18-1,2.66,2.66,0,0,1,2.7-2.7,2.74,2.74,0,0,1,1.53.45,2.21,2.21,0,0,1,.93,1.17l7,23.1,7-22.56a3.08,3.08,0,0,1,5.88,0l7,22.56,7-23.1a2.21,2.21,0,0,1,.93-1.17,2.74,2.74,0,0,1,1.53-.45,2.66,2.66,0,0,1,2.7,2.7,3.23,3.23,0,0,1-.18,1l-8.52,25a3.66,3.66,0,0,1-1.32,1.8,3.6,3.6,0,0,1-4.32,0,4,4,0,0,1-1.38-1.86l-6.36-19.86-6.36,19.86a4,4,0,0,1-1.38,1.86,3.6,3.6,0,0,1-4.32,0Z"/><path d="M972,131.15a2.61,2.61,0,0,1-.78-1.92V90.29a2.71,2.71,0,0,1,.78-2,2.56,2.56,0,0,1,1.92-.81,2.77,2.77,0,0,1,2.76,2.76V106a19.94,19.94,0,0,1,4.92-4,12.42,12.42,0,0,1,6.24-1.5,10.37,10.37,0,0,1,5.73,1.56,10.14,10.14,0,0,1,3.72,4.26,13.6,13.6,0,0,1,1.29,5.94v17a2.56,2.56,0,0,1-.81,1.92,2.71,2.71,0,0,1-2,.78,2.66,2.66,0,0,1-2.7-2.7V112.79q0-7.32-6.6-7.32a9.55,9.55,0,0,0-5.37,1.56,19.44,19.44,0,0,0-4.47,4.2v18a2.56,2.56,0,0,1-.81,1.92,2.71,2.71,0,0,1-2,.78A2.61,2.61,0,0,1,972,131.15Z"/><path d="M1010.66,131.15a8.52,8.52,0,0,1-3.57-3.15,8.68,8.68,0,0,1-1.32-4.77,8.41,8.41,0,0,1,3.51-7.08q3.51-2.64,10.29-2.64h7.26V113q0-4-1.95-5.7t-6.09-1.74a20.45,20.45,0,0,0-4,.36,34,34,0,0,0-3.93,1.08,3.37,3.37,0,0,1-.78.12,2.13,2.13,0,0,1-1.56-.66,2.2,2.2,0,0,1-.66-1.62,2.31,2.31,0,0,1,1.56-2.28,26.39,26.39,0,0,1,10.38-2.16,13.55,13.55,0,0,1,7,1.68,10.56,10.56,0,0,1,4.2,4.35,12.65,12.65,0,0,1,1.35,5.79v17a2.56,2.56,0,0,1-.81,1.92,2.71,2.71,0,0,1-2,.78,2.66,2.66,0,0,1-2.7-2.7v-1.56a15.07,15.07,0,0,1-11.28,4.56A11.15,11.15,0,0,1,1010.66,131.15Zm12-5a14.18,14.18,0,0,0,4.14-3.21v-5h-6.54q-9.06,0-9.06,4.74a4.45,4.45,0,0,0,1.47,3.48q1.47,1.32,4.89,1.32A10.85,10.85,0,0,0,1022.69,126.14Z"/><path d="M1042.55,124.31v-18.6h-4.26a1.13,1.13,0,0,1-1.14-1.14,1.25,1.25,0,0,1,.54-1l8.16-8a1.51,1.51,0,0,1,1-.54,1.06,1.06,0,0,1,.81.36,1.2,1.2,0,0,1,.33.84V101h6.78a2.26,2.26,0,0,1,2.34,2.34,2.3,2.3,0,0,1-.66,1.65,2.22,2.22,0,0,1-1.68.69H1048v18.12q0,2.34,1.11,3a5.59,5.59,0,0,0,2.79.63,8.32,8.32,0,0,0,2.4-.36l.51-.12a3.27,3.27,0,0,1,.69-.06,2.11,2.11,0,0,1,1.5.63,2,2,0,0,1,.66,1.53,2.27,2.27,0,0,1-1.38,2.1,11.74,11.74,0,0,1-5,1.08Q1042.55,132.23,1042.55,124.31Z"/><path d="M1084.28,145a2.59,2.59,0,0,1-.75-1.86,2.72,2.72,0,0,1,.18-1l3.9-10-11.28-27.48a3.07,3.07,0,0,1-.24-1.14,2.71,2.71,0,0,1,.78-1.95,2.56,2.56,0,0,1,1.92-.81,2.62,2.62,0,0,1,1.53.48,2.72,2.72,0,0,1,1,1.2l9.24,22.92,9.42-22.8a2.62,2.62,0,0,1,2.52-1.8,2.56,2.56,0,0,1,1.92.81,2.71,2.71,0,0,1,.78,1.95,2.88,2.88,0,0,1-.18,1l-16.38,39.36a2.7,2.7,0,0,1-2.52,1.86A2.44,2.44,0,0,1,1084.28,145Z"/><path d="M1116.47,130.25a13.46,13.46,0,0,1-5.37-5.61,19.21,19.21,0,0,1,0-16.62,13.46,13.46,0,0,1,5.37-5.61,17.44,17.44,0,0,1,16.14,0A13.65,13.65,0,0,1,1138,108a18.94,18.94,0,0,1,0,16.62,13.65,13.65,0,0,1-5.4,5.61,17.44,17.44,0,0,1-16.14,0Zm12.81-4.14a9.16,9.16,0,0,0,3.72-3.6,12,12,0,0,0,1.47-6.24,11.88,11.88,0,0,0-1.47-6.18,9,9,0,0,0-3.72-3.57,10.52,10.52,0,0,0-4.71-1.11,10.64,10.64,0,0,0-4.77,1.11,8.78,8.78,0,0,0-3.69,3.57,12.08,12.08,0,0,0-1.44,6.18,12.21,12.21,0,0,0,1.44,6.24,9,9,0,0,0,3.69,3.6,10.41,10.41,0,0,0,4.77,1.14A10.29,10.29,0,0,0,1129.28,126.11Z"/><path d="M1152.26,130.67a10.14,10.14,0,0,1-3.72-4.26,13.6,13.6,0,0,1-1.29-5.94v-17a2.56,2.56,0,0,1,.81-1.92,2.71,2.71,0,0,1,2-.78,2.66,2.66,0,0,1,2.7,2.7v16.44q0,7.32,6.6,7.32a9.55,9.55,0,0,0,5.37-1.56,19.44,19.44,0,0,0,4.47-4.2v-18a2.56,2.56,0,0,1,.81-1.92,2.71,2.71,0,0,1,2-.78,2.66,2.66,0,0,1,2.7,2.7v25.74a2.71,2.71,0,0,1-.78,2,2.56,2.56,0,0,1-1.92.81,2.77,2.77,0,0,1-2.76-2.76v-2.46a19.94,19.94,0,0,1-4.92,4,12.42,12.42,0,0,1-6.24,1.5A10.37,10.37,0,0,1,1152.26,130.67Z"/><path d="M1207,145.13a23,23,0,0,1-5.82-2.22,2.28,2.28,0,0,1-1.08-2.1,2.46,2.46,0,0,1,.69-1.71,2.23,2.23,0,0,1,1.71-.75,3,3,0,0,1,1.08.24,21.83,21.83,0,0,0,9.9,2.28q9.18,0,9.18-9.78v-4a13.54,13.54,0,0,1-10.26,4.56,14.46,14.46,0,0,1-6.87-1.77,14.3,14.3,0,0,1-5.49-5.28,18,18,0,0,1,0-17.1,14.3,14.3,0,0,1,5.49-5.28,14.46,14.46,0,0,1,6.87-1.77,13.54,13.54,0,0,1,10.26,4.56v-1.5a2.71,2.71,0,0,1,.78-1.95,2.56,2.56,0,0,1,1.92-.81,2.77,2.77,0,0,1,2.76,2.76v26.82q0,7.56-3.66,11.64T1214,146A28.4,28.4,0,0,1,1207,145.13Zm11.52-19.68a18,18,0,0,0,4.14-3.24V109.85a18,18,0,0,0-4.14-3.24,10.08,10.08,0,0,0-5-1.2,10.19,10.19,0,0,0-7.35,2.73q-2.85,2.73-2.85,7.89t2.85,7.89a10.19,10.19,0,0,0,7.35,2.73A10.08,10.08,0,0,0,1218.47,125.45Z"/><path d="M1243,130.25a13.46,13.46,0,0,1-5.37-5.61,19.21,19.21,0,0,1,0-16.62,13.46,13.46,0,0,1,5.37-5.61,17.44,17.44,0,0,1,16.14,0,13.65,13.65,0,0,1,5.4,5.61,18.94,18.94,0,0,1,0,16.62,13.65,13.65,0,0,1-5.4,5.61,17.44,17.44,0,0,1-16.14,0Zm12.81-4.14a9.16,9.16,0,0,0,3.72-3.6,12,12,0,0,0,1.47-6.24,11.88,11.88,0,0,0-1.47-6.18,9,9,0,0,0-3.72-3.57,10.52,10.52,0,0,0-4.71-1.11,10.64,10.64,0,0,0-4.77,1.11,8.78,8.78,0,0,0-3.69,3.57,12.08,12.08,0,0,0-1.44,6.18,12.21,12.21,0,0,0,1.44,6.24,9,9,0,0,0,3.69,3.6,10.41,10.41,0,0,0,4.77,1.14A10.29,10.29,0,0,0,1255.76,126.11Z"/><path d="M1275.59,124.31v-18.6h-4.26a1.13,1.13,0,0,1-1.14-1.14,1.25,1.25,0,0,1,.54-1l8.16-8a1.51,1.51,0,0,1,1-.54,1.06,1.06,0,0,1,.81.36,1.2,1.2,0,0,1,.33.84V101h6.78a2.26,2.26,0,0,1,2.34,2.34,2.3,2.3,0,0,1-.66,1.65,2.22,2.22,0,0,1-1.68.69h-6.78v18.12q0,2.34,1.11,3a5.59,5.59,0,0,0,2.79.63,8.32,8.32,0,0,0,2.4-.36l.51-.12a3.27,3.27,0,0,1,.69-.06,2.11,2.11,0,0,1,1.5.63,2,2,0,0,1,.66,1.53,2.27,2.27,0,0,1-1.38,2.1,11.74,11.74,0,0,1-5,1.08Q1275.59,132.23,1275.59,124.31Z"/><path d="M1296.26,140.15a1.78,1.78,0,0,1-.51-1.26,1.67,1.67,0,0,1,.9-1.5,7,7,0,0,0,2.28-2.1,6.5,6.5,0,0,0,.78-3.48h-.24a3.38,3.38,0,0,1-3.36-3.36v-.36a3.38,3.38,0,0,1,3.36-3.36h.6a3.38,3.38,0,0,1,3.36,3.36v3.54a9.67,9.67,0,0,1-4.92,8.76,1.92,1.92,0,0,1-1,.3A1.62,1.62,0,0,1,1296.26,140.15Z"/><path d="M677.51,203.21a3.66,3.66,0,0,1-1.32-1.8l-8.52-25a3.23,3.23,0,0,1-.18-1,2.66,2.66,0,0,1,2.7-2.7,2.74,2.74,0,0,1,1.53.45,2.21,2.21,0,0,1,.93,1.17l7,23.1,7-22.56a3.08,3.08,0,0,1,5.88,0l7,22.56,7-23.1a2.21,2.21,0,0,1,.93-1.17,2.74,2.74,0,0,1,1.53-.45,2.66,2.66,0,0,1,2.7,2.7,3.23,3.23,0,0,1-.18,1l-8.52,25a3.66,3.66,0,0,1-1.32,1.8,3.6,3.6,0,0,1-4.32,0,4,4,0,0,1-1.38-1.86l-6.36-19.86-6.36,19.86a4,4,0,0,1-1.38,1.86,3.6,3.6,0,0,1-4.32,0Z"/><path d="M718.85,203.15a2.61,2.61,0,0,1-.78-1.92V162.29a2.71,2.71,0,0,1,.78-1.95,2.56,2.56,0,0,1,1.92-.81,2.77,2.77,0,0,1,2.76,2.76V178a19.94,19.94,0,0,1,4.92-4,12.42,12.42,0,0,1,6.24-1.5,10.37,10.37,0,0,1,5.73,1.56,10.14,10.14,0,0,1,3.72,4.26,13.6,13.6,0,0,1,1.29,5.94v17a2.56,2.56,0,0,1-.81,1.92,2.71,2.71,0,0,1-2,.78,2.66,2.66,0,0,1-2.7-2.7V184.79q0-7.32-6.6-7.32A9.55,9.55,0,0,0,728,179a19.44,19.44,0,0,0-4.47,4.2v18a2.56,2.56,0,0,1-.81,1.92,2.71,2.71,0,0,1-2,.78A2.61,2.61,0,0,1,718.85,203.15Z"/><path d="M757.52,203.15A8.52,8.52,0,0,1,754,200a8.68,8.68,0,0,1-1.32-4.77,8.41,8.41,0,0,1,3.51-7.08q3.51-2.64,10.29-2.64h7.26V185q0-4-2-5.7t-6.09-1.74a20.45,20.45,0,0,0-4,.36,34,34,0,0,0-3.93,1.08,3.37,3.37,0,0,1-.78.12,2.13,2.13,0,0,1-1.56-.66,2.2,2.2,0,0,1-.66-1.62,2.31,2.31,0,0,1,1.56-2.28,26.39,26.39,0,0,1,10.38-2.16,13.55,13.55,0,0,1,7,1.68,10.56,10.56,0,0,1,4.2,4.35,12.65,12.65,0,0,1,1.35,5.79v17a2.56,2.56,0,0,1-.81,1.92,2.71,2.71,0,0,1-2,.78,2.66,2.66,0,0,1-2.7-2.7v-1.56a15.07,15.07,0,0,1-11.28,4.56A11.15,11.15,0,0,1,757.52,203.15Zm12-5a14.18,14.18,0,0,0,4.14-3.21v-5h-6.54q-9.06,0-9.06,4.74a4.45,4.45,0,0,0,1.47,3.48q1.47,1.32,4.89,1.32A10.85,10.85,0,0,0,769.55,198.14Z"/><path d="M789.41,196.31v-18.6h-4.26a1.13,1.13,0,0,1-1.14-1.14,1.25,1.25,0,0,1,.54-1l8.16-8a1.51,1.51,0,0,1,1-.54,1.06,1.06,0,0,1,.81.36,1.2,1.2,0,0,1,.33.84V173h6.78a2.26,2.26,0,0,1,2.34,2.34,2.3,2.3,0,0,1-.66,1.65,2.22,2.22,0,0,1-1.68.69h-6.78v18.12q0,2.34,1.11,3a5.59,5.59,0,0,0,2.79.63,8.32,8.32,0,0,0,2.4-.36l.51-.12a3.27,3.27,0,0,1,.69-.06,2.11,2.11,0,0,1,1.5.63,2,2,0,0,1,.66,1.53,2.27,2.27,0,0,1-1.38,2.1,11.74,11.74,0,0,1-5,1.08Q789.41,204.23,789.41,196.31Z"/><path d="M832.31,202.31a14.78,14.78,0,0,1-5.85-5.52,17.44,17.44,0,0,1,0-16.92,14.78,14.78,0,0,1,5.85-5.52,16.92,16.92,0,0,1,8-1.92,16.63,16.63,0,0,1,5.49.81,20.74,20.74,0,0,1,4.29,2.07,2.39,2.39,0,0,1,.51,3.75,2.11,2.11,0,0,1-1.59.75,2.74,2.74,0,0,1-1.32-.36,22.85,22.85,0,0,0-3.39-1.47,11.7,11.7,0,0,0-3.51-.45,10.88,10.88,0,0,0-8.1,3,11.9,11.9,0,0,0,0,15.66,10.88,10.88,0,0,0,8.1,3,11.7,11.7,0,0,0,3.51-.45,22.85,22.85,0,0,0,3.39-1.47,2.74,2.74,0,0,1,1.32-.36,2.11,2.11,0,0,1,1.59.75,2.39,2.39,0,0,1-.51,3.75,20.74,20.74,0,0,1-4.29,2.07,16.63,16.63,0,0,1-5.49.81A16.92,16.92,0,0,1,832.31,202.31Z"/><path d="M861,203.15a8.52,8.52,0,0,1-3.57-3.15,8.68,8.68,0,0,1-1.32-4.77,8.41,8.41,0,0,1,3.51-7.08q3.51-2.64,10.29-2.64h7.26V185q0-4-2-5.7t-6.09-1.74a20.45,20.45,0,0,0-4,.36,34,34,0,0,0-3.93,1.08,3.37,3.37,0,0,1-.78.12,2.13,2.13,0,0,1-1.56-.66,2.2,2.2,0,0,1-.66-1.62,2.31,2.31,0,0,1,1.56-2.28,26.39,26.39,0,0,1,10.38-2.16,13.55,13.55,0,0,1,7,1.68,10.56,10.56,0,0,1,4.2,4.35,12.65,12.65,0,0,1,1.35,5.79v17a2.56,2.56,0,0,1-.81,1.92,2.71,2.71,0,0,1-2,.78,2.66,2.66,0,0,1-2.7-2.7v-1.56a15.07,15.07,0,0,1-11.28,4.56A11.15,11.15,0,0,1,861,203.15Zm12-5a14.18,14.18,0,0,0,4.14-3.21v-5h-6.54q-9.06,0-9.06,4.74a4.45,4.45,0,0,0,1.47,3.48q1.47,1.32,4.89,1.32A10.85,10.85,0,0,0,873.05,198.14Z"/><path d="M892.61,203.15a2.61,2.61,0,0,1-.78-1.92V175.49a2.71,2.71,0,0,1,.78-2,2.56,2.56,0,0,1,1.92-.81,2.77,2.77,0,0,1,2.76,2.76V178a19.94,19.94,0,0,1,4.92-4,12.42,12.42,0,0,1,6.24-1.5,10.37,10.37,0,0,1,5.73,1.56,10.14,10.14,0,0,1,3.72,4.26,13.6,13.6,0,0,1,1.29,5.94v17a2.56,2.56,0,0,1-.81,1.92,2.71,2.71,0,0,1-2,.78,2.66,2.66,0,0,1-2.7-2.7V184.79q0-7.32-6.6-7.32a9.55,9.55,0,0,0-5.37,1.56,19.44,19.44,0,0,0-4.47,4.2v18a2.56,2.56,0,0,1-.81,1.92,2.71,2.71,0,0,1-2,.78A2.61,2.61,0,0,1,892.61,203.15Z"/><path d="M949,217a2.59,2.59,0,0,1-.75-1.86,2.72,2.72,0,0,1,.18-1l3.9-10L941,176.63a3.07,3.07,0,0,1-.24-1.14,2.71,2.71,0,0,1,.78-2,2.56,2.56,0,0,1,1.92-.81,2.62,2.62,0,0,1,1.53.48,2.72,2.72,0,0,1,1,1.2l9.24,22.92,9.42-22.8a2.62,2.62,0,0,1,2.52-1.8,2.56,2.56,0,0,1,1.92.81,2.71,2.71,0,0,1,.78,2,2.88,2.88,0,0,1-.18,1l-16.38,39.36a2.7,2.7,0,0,1-2.52,1.86A2.44,2.44,0,0,1,949,217Z"/><path d="M981.17,202.25a13.46,13.46,0,0,1-5.37-5.61,19.21,19.21,0,0,1,0-16.62,13.46,13.46,0,0,1,5.37-5.61,17.44,17.44,0,0,1,16.14,0,13.65,13.65,0,0,1,5.4,5.61,18.94,18.94,0,0,1,0,16.62,13.65,13.65,0,0,1-5.4,5.61,17.44,17.44,0,0,1-16.14,0ZM994,198.11a9.16,9.16,0,0,0,3.72-3.6,12,12,0,0,0,1.47-6.24,11.88,11.88,0,0,0-1.47-6.18,9,9,0,0,0-3.72-3.57,10.52,10.52,0,0,0-4.71-1.11,10.64,10.64,0,0,0-4.77,1.11,8.78,8.78,0,0,0-3.69,3.57,12.08,12.08,0,0,0-1.44,6.18,12.21,12.21,0,0,0,1.44,6.24,9,9,0,0,0,3.69,3.6,10.41,10.41,0,0,0,4.77,1.14A10.29,10.29,0,0,0,994,198.11Z"/><path d="M1017,202.67a10.14,10.14,0,0,1-3.72-4.26,13.6,13.6,0,0,1-1.29-5.94v-17a2.56,2.56,0,0,1,.81-1.92,2.71,2.71,0,0,1,2-.78,2.66,2.66,0,0,1,2.7,2.7v16.44q0,7.32,6.6,7.32a9.55,9.55,0,0,0,5.37-1.56,19.44,19.44,0,0,0,4.47-4.2v-18a2.56,2.56,0,0,1,.81-1.92,2.71,2.71,0,0,1,1.95-.78,2.66,2.66,0,0,1,2.7,2.7v25.74a2.71,2.71,0,0,1-.78,2,2.56,2.56,0,0,1-1.92.81,2.77,2.77,0,0,1-2.76-2.76v-2.46a19.94,19.94,0,0,1-4.92,4,12.42,12.42,0,0,1-6.24,1.5A10.37,10.37,0,0,1,1017,202.67Z"/><path d="M1069.85,199.67v1.56a2.56,2.56,0,0,1-.81,1.92,2.71,2.71,0,0,1-2,.78,2.66,2.66,0,0,1-2.7-2.7V162.29a2.71,2.71,0,0,1,.78-1.95,2.56,2.56,0,0,1,1.92-.81,2.67,2.67,0,0,1,2.76,2.76V177a13.79,13.79,0,0,1,10.26-4.56,14.07,14.07,0,0,1,7.05,1.89,14.34,14.34,0,0,1,5.4,5.52,18.45,18.45,0,0,1,0,17,14.34,14.34,0,0,1-5.4,5.52,14.07,14.07,0,0,1-7.05,1.89A13.79,13.79,0,0,1,1069.85,199.67Zm16.62-3.36q2.7-2.82,2.7-8t-2.7-8a9.43,9.43,0,0,0-7.14-2.82,11.33,11.33,0,0,0-5.19,1.23,14.82,14.82,0,0,0-4.29,3.27v12.6a14.82,14.82,0,0,0,4.29,3.27,11.33,11.33,0,0,0,5.19,1.23A9.43,9.43,0,0,0,1086.47,196.31Z"/><path d="M1103,203.15a2.61,2.61,0,0,1-.78-1.92V175.49a2.71,2.71,0,0,1,.78-2,2.56,2.56,0,0,1,1.92-.81,2.77,2.77,0,0,1,2.76,2.76v2.58q4.2-5.64,9.42-5.64h.3a2.51,2.51,0,0,1,1.89.78,2.66,2.66,0,0,1,.75,1.92,2.42,2.42,0,0,1-.78,1.86,2.81,2.81,0,0,1-2,.72h-.3a10.23,10.23,0,0,0-5.28,1.41,12.16,12.16,0,0,0-4,3.87v18.24a2.56,2.56,0,0,1-.81,1.92,2.71,2.71,0,0,1-2,.78A2.61,2.61,0,0,1,1103,203.15Z"/><path d="M1125.65,165.89a3,3,0,0,1-.9-2.16v-.24a3.07,3.07,0,0,1,3.06-3.06h.36a3.07,3.07,0,0,1,3.06,3.06v.24a3.07,3.07,0,0,1-3.06,3.06h-.36A3,3,0,0,1,1125.65,165.89Zm.36,37.26a2.61,2.61,0,0,1-.78-1.92V175.49a2.71,2.71,0,0,1,.78-2,2.56,2.56,0,0,1,1.92-.81,2.67,2.67,0,0,1,2.76,2.76v25.74a2.56,2.56,0,0,1-.81,1.92,2.71,2.71,0,0,1-2,.78A2.61,2.61,0,0,1,1126,203.15Z"/><path d="M1141,203.15a2.61,2.61,0,0,1-.78-1.92V175.49a2.71,2.71,0,0,1,.78-2,2.56,2.56,0,0,1,1.92-.81,2.77,2.77,0,0,1,2.76,2.76V178a19.94,19.94,0,0,1,4.92-4,12.42,12.42,0,0,1,6.24-1.5,10.37,10.37,0,0,1,5.73,1.56,10.14,10.14,0,0,1,3.72,4.26,13.6,13.6,0,0,1,1.29,5.94v17a2.56,2.56,0,0,1-.81,1.92,2.71,2.71,0,0,1-2,.78,2.66,2.66,0,0,1-2.7-2.7V184.79q0-7.32-6.6-7.32a9.55,9.55,0,0,0-5.37,1.56,19.44,19.44,0,0,0-4.47,4.2v18a2.56,2.56,0,0,1-.81,1.92,2.71,2.71,0,0,1-2,.78A2.61,2.61,0,0,1,1141,203.15Z"/><path d="M1184,217.13a23,23,0,0,1-5.82-2.22,2.28,2.28,0,0,1-1.08-2.1,2.46,2.46,0,0,1,.69-1.71,2.23,2.23,0,0,1,1.71-.75,3,3,0,0,1,1.08.24,21.83,21.83,0,0,0,9.9,2.28q9.18,0,9.18-9.78v-4a13.54,13.54,0,0,1-10.26,4.56,14.46,14.46,0,0,1-6.87-1.77,14.3,14.3,0,0,1-5.49-5.28,18,18,0,0,1,0-17.1,14.3,14.3,0,0,1,5.49-5.28,14.46,14.46,0,0,1,6.87-1.77,13.54,13.54,0,0,1,10.26,4.56v-1.5a2.71,2.71,0,0,1,.78-2,2.56,2.56,0,0,1,1.92-.81,2.77,2.77,0,0,1,2.76,2.76v26.82q0,7.56-3.66,11.64T1191,218A28.4,28.4,0,0,1,1184,217.13Zm11.52-19.68a18,18,0,0,0,4.14-3.24V181.85a18,18,0,0,0-4.14-3.24,10.08,10.08,0,0,0-5-1.2,10.19,10.19,0,0,0-7.35,2.73q-2.85,2.73-2.85,7.89t2.85,7.89a10.19,10.19,0,0,0,7.35,2.73A10.08,10.08,0,0,0,1195.49,197.45Z"/><path d="M1221.2,191.78a2.17,2.17,0,0,1-.75-1.65,11,11,0,0,1,1-4.74,12.66,12.66,0,0,1,2.25-3.39,36.67,36.67,0,0,1,3.45-3.09,22.29,22.29,0,0,0,3.36-3.12,4.61,4.61,0,0,0,1.08-3q0-6.54-8.58-6.54a16.65,16.65,0,0,0-4.11.51,12.75,12.75,0,0,0-3.57,1.47,2.67,2.67,0,0,1-1.5.48,2.46,2.46,0,0,1-2.4-2.4,2.63,2.63,0,0,1,1.5-2.28,17.65,17.65,0,0,1,5-2.22,22,22,0,0,1,5.58-.66q6.12,0,9.81,3.06a10.19,10.19,0,0,1,3.69,8.28,9.49,9.49,0,0,1-.84,4.11,11,11,0,0,1-2,3,33.33,33.33,0,0,1-3.18,2.79,23.3,23.3,0,0,0-3.87,3.69,6.37,6.37,0,0,0-1.29,4,2.13,2.13,0,0,1-.78,1.65,2.71,2.71,0,0,1-1.86.69A2.68,2.68,0,0,1,1221.2,191.78Zm-.72,11a3.47,3.47,0,0,1-1-2.55,3.59,3.59,0,0,1,3.54-3.54,3.47,3.47,0,0,1,2.55,1.05,3.4,3.4,0,0,1,1,2.49,3.59,3.59,0,0,1-3.6,3.6A3.4,3.4,0,0,1,1220.48,202.82Z"/></svg>