<svg id="Layer_1" data-name="Layer 1" xmlns="http://www.w3.org/2000/svg" viewBox="0 0 1920 1080"><defs><style>.cls-1{fill:#e03838;}.cls-1,.cls-2,.cls-3{opacity:0.5;}.cls-2{fill:#ffff1a;}.cls-3{fill:#c335e5;}.cls-4{fill:#4d4d4d;}</style></defs><title>54</title><path class="cls-1" d="M1360.92,821.1s68.1-196.77,72.35-186.51,50.78,93.77,50.78,93.77l-6-113.44,59.8,81.63,88.36-122.22-42.32,183.91,126.5-32.43-153.7,115.56,35-3.52-145.1,70.38Z"/><path class="cls-1" d="M1407.41,492s89.79-87,79.82-85.08-99.32,13.76-99.32,13.76l82.54-35.08-97,6.78L1397.89,323l-98.4,74.23L1236,344.51l24.49,89-21.32-12.79L1289.06,492Z"/><path class="cls-2" d="M750.44,786.89C798.64,791.41,973.05,819,962,892.36s-10,123.52-89.36,151.41-157.84,46.24-226.86,7-100.93-62.72-100.54-96.73,4.49-132.44,65.24-144.66S750.44,786.89,750.44,786.89Z"/><path class="cls-2" d="M907.77,31.89c42.88.25,197.48,7.77,183.91,51.61s-15.18,73.39-87.53,93.83-143.5,35.22-203.26,15.54-87.12-31.94-85.06-52S726.5,62.47,781.45,52.2,907.77,31.89,907.77,31.89Z"/><path class="cls-2" d="M697.72,222.29c42.59,1.05,196.22,12.17,183.54,60.3s-13.73,80.7-85.19,101.93S654.24,420.76,594.54,398s-87.08-36.83-85.4-59,9.16-86.28,63.53-96.6S697.72,222.29,697.72,222.29Z"/><path class="cls-2" d="M849.13,419.11c39,1.51,179.69,14.15,168.62,61.31s-11.66,79.15-76.81,99.22-129.39,34-184.26,11-80.1-37.16-78.81-58.89,7.42-84.69,57.06-94.23S849.13,419.11,849.13,419.11Z"/><path class="cls-3" d="M252.81,225.06c-1.4-8.71-11.32-37.33-12.64-51.11s-31.85-84.13,2-90.58S459.93,41.5,461.35,52.23s16.21,139.57-13.84,145.82-104,21.15-139.13,25S253.38,228.62,252.81,225.06Z"/><path class="cls-3" d="M281.81,389.06c-1.4-8.71-11.32-37.33-12.64-51.11s-31.85-84.13,2-90.58,217.75-41.87,219.17-31.14,16.21,139.57-13.84,145.82-104,21.15-139.13,25S282.38,392.62,281.81,389.06Z"/><path class="cls-3" d="M161.81,577.06c-1.4-8.71-11.32-37.33-12.64-51.11s-31.85-84.13,2-90.58,217.75-41.87,219.17-31.14,16.21,139.57-13.84,145.82-104,21.15-139.13,25S162.38,580.62,161.81,577.06Z"/><path class="cls-3" d="M216.29,855c2-7.41,5-33.44,8.71-44.89s7.22-77.38,31.23-71.89,154.56,35,151.94,44.06S372.52,899.12,351,894.66s-74.18-15.79-98.17-23.8S215.48,858,216.29,855Z"/><path class="cls-4" d="M1396.07,770.68c3.5,12.47,12.85,21.82,19.37,32.68a48.91,48.91,0,0,1,4.61,9.69c.62,1.82,3.52,1,2.9-.8-4.13-12.26-13.55-21.46-19.81-32.55a44.31,44.31,0,0,1-4.18-9.82,1.5,1.5,0,0,0-2.89.8Z"/><path class="cls-4" d="M1399.05,770.58c14.38,7.46,28.81,14.83,43.44,21.76q6.33,3,12.69,5.88a1.56,1.56,0,0,0,2-.54c4.8-6.29,12.47-10.22,20.09-11.84l-1.85-1.85a4.65,4.65,0,0,1-.45,1.08c0,.07-.43.51-.43.55s-.11-.09,0,0c.38.2.58-.17.89.43.07.15.22.62.1.45.11.16-.38.21,0,0a12.18,12.18,0,0,1,1.69-.69l-1.85-1.85-4.69,15.23c-1.12,3.64-3,7.46-2.39,11.37a8.49,8.49,0,0,0,6.53,6.84c3.17.72,6.47-.07,9.55-.82,3.25-.8,6.9-2,10.19-.85l-.66-2.51a184.49,184.49,0,0,0-17.54,25.23,1.5,1.5,0,0,0,2.59,1.51,179.77,179.77,0,0,1,17.07-24.62,1.53,1.53,0,0,0-.66-2.51c-5.76-2-11.64,1.62-17.38,1.84-2.66.11-5.63-.91-6.54-3.7-1.08-3.31,1-7.15,1.91-10.27q2.47-8,4.91-15.94a1.51,1.51,0,0,0-1.84-1.84,5.41,5.41,0,0,0-3.55,2.13,2.36,2.36,0,0,0,.23,2.84c2.24,2.32,4.57-1.32,5.16-3.13a1.51,1.51,0,0,0-1.84-1.84c-8.45,1.79-16.59,6.29-21.88,13.22l2.06-.54c-14.7-6.65-29.17-13.79-43.53-21.14q-6.32-3.22-12.6-6.5c-1.71-.89-3.23,1.7-1.52,2.59Z"/><path class="cls-4" d="M1404.76,774.19c0-.09,0-.17,0-.26l0,.4a2.39,2.39,0,0,1,.15-.54l-.15.35a2.74,2.74,0,0,1,.29-.49l-.24.31a2.4,2.4,0,0,1,.45-.45l-.3.23a2.15,2.15,0,0,1,.49-.28l-.36.15a2.16,2.16,0,0,1,.55-.16l-.4.06a2.16,2.16,0,0,1,.44,0l-1.45-1.9c-.08.22-.17.45-.26.67l.15-.36a7.22,7.22,0,0,1-.82,1.49l.23-.31a3.64,3.64,0,0,1-.61.63l.3-.24a3,3,0,0,1-.54.32l.36-.15a2.13,2.13,0,0,1-.43.13l.39-.06a2,2,0,0,1-.42,0l.4,0a1.84,1.84,0,0,1-.51-.14l.36.15a2.62,2.62,0,0,1-.51-.3l.3.23a2.53,2.53,0,0,1-.36-.37l.23.31a2.33,2.33,0,0,1-.2-.34l.16.36a1,1,0,0,1-.09-.32l0,.4a1.22,1.22,0,0,1,0-.27l-.06.4a1.2,1.2,0,0,1,.08-.27l-.16.36a1.59,1.59,0,0,1,.13-.22l-.23.31,0-.05a1.61,1.61,0,0,0,.44-1.06,1.53,1.53,0,0,0-.44-1.06,1.56,1.56,0,0,0-1.06-.44,1.48,1.48,0,0,0-1.06.44,3.08,3.08,0,0,0-.47.74,2.64,2.64,0,0,0-.2.85,2.6,2.6,0,0,0,.29,1.34,3.35,3.35,0,0,0,1.59,1.54,3.52,3.52,0,0,0,1.43.37,3,3,0,0,0,1.3-.28,4.66,4.66,0,0,0,2-1.76,10.77,10.77,0,0,0,1.09-2.3,1.44,1.44,0,0,0-.27-1.31,1.5,1.5,0,0,0-1.18-.59,3.78,3.78,0,0,0-3.88,3.69,1.5,1.5,0,0,0,3,0Z"/><path class="cls-4" d="M1482.05,873.9a73.58,73.58,0,0,1,4.53,35.41c-1.27,12.19-4.6,24.08-7.37,36-.84,3.62-1.65,7.25-2.38,10.9s-.35,7.47.08,11c.23,1.9,3.23,1.92,3,0-.39-3.25-.84-7-.19-10.24s1.34-6.39,2.07-9.57c1.43-6.22,3-12.41,4.4-18.64,2.59-11.55,4.65-23.42,3.63-35.3A71.27,71.27,0,0,0,1485,873.1c-.72-1.77-3.62-1-2.9.8Z"/><path class="cls-4" d="M1450.94,848.39c3.16,1,6.43,1.47,9.61,2.37a18.26,18.26,0,0,1,7.89,4.8c1.38,1.35,3.5-.77,2.12-2.12a21.36,21.36,0,0,0-8.82-5.46c-3.3-1-6.72-1.47-10-2.49-1.85-.57-2.64,2.33-.79,2.9Z"/><path class="cls-4" d="M1499.18,958.59c-11.15,7.16-22.85,14.8-29.3,26.79a33.4,33.4,0,0,0-4.27,18.32c0,1.47,0,2.66-1.44,3.43a34.09,34.09,0,0,0-3.89,2.24,21.72,21.72,0,0,0-5.81,6.34c-1.48,2.47-3.1,6-2.5,8.93.55,2.73,3,4.11,5.56,4.49,3.21.48,6.58,0,9.81-.1l11.37-.5q11.61-.52,23.22-1.13c1.75-.09,3.51-.13,5.26-.29a6.79,6.79,0,0,0,4.37-1.64,9,9,0,0,0,2-3.71c.59-1.8,1.13-3.62,1.65-5.44a158.34,158.34,0,0,0,5.86-49.18c-.07-1.92-3.07-1.93-3,0a155.5,155.5,0,0,1-3.86,41c-.79,3.39-1.68,6.75-2.7,10.08a26.08,26.08,0,0,1-1.4,4.16c-.8,1.61-2.32,1.68-3.95,1.77q-10.74.58-21.49,1.07t-21.25.94c-2.27.09-5.7.7-7.67-.82s0-5.71,1-7.5a18.63,18.63,0,0,1,5.12-5.91c2.12-1.58,5.29-2.24,6.35-4.91a9.44,9.44,0,0,0,.45-3.74,33.87,33.87,0,0,1,.1-4.83,30.87,30.87,0,0,1,2.17-8.23c5.49-13.38,18.15-21.57,29.82-29.07,1.62-1,.12-3.64-1.51-2.59Z"/><path class="cls-4" d="M1426,970.33a32.38,32.38,0,0,0,9.18,16.16,31.65,31.65,0,0,0,7.47,5.37c3.27,1.67,6.9,2.49,10.15,4.18,1.72.89,3.23-1.7,1.52-2.59-3-1.58-6.41-2.37-9.49-3.85a29.14,29.14,0,0,1-7.26-5,29.72,29.72,0,0,1-8.68-15.09c-.42-1.89-3.31-1.09-2.89.79Z"/><path class="cls-4" d="M1426.17,948.79l-16.52,11.46c-4.79,3.33-10.3,6.5-13.34,11.66-2.74,4.65-3.19,10.23-2.73,15.5a82.57,82.57,0,0,0,3,15.58c1.51,5.22,4,10.4,8.86,13.25l-.69-1.69c-.22.8-2,.9-2.7,1.1a4.9,4.9,0,0,0-3.28,2.34,4.24,4.24,0,0,0,1,4.74c1.42,1.4,3.46,1.67,5.36,1.82a90.22,90.22,0,0,0,26.37-1.87,91.24,91.24,0,0,0,14.44-4.44c1.77-.71,1-3.61-.8-2.89a88.29,88.29,0,0,1-34.75,6.44c-2,0-3.93-.08-5.88-.29-.84-.09-4-.84-3-2.34.58-.82,2.37-.85,3.25-1.15a3.93,3.93,0,0,0,2.84-2.67,1.53,1.53,0,0,0-.69-1.69c-3.89-2.29-5.92-6.42-7.22-10.59a79.56,79.56,0,0,1-3-14.24c-.57-4.84-.59-10.1,1.7-14.55,2.53-4.91,7.54-7.82,11.93-10.87l17.32-12c1.58-1.1.08-3.7-1.51-2.59Z"/><path class="cls-4" d="M1518.81,943.85a145.47,145.47,0,0,0-4.06-27.69c-.47-1.87-3.36-1.08-2.9.8a140.3,140.3,0,0,1,4,26.89c.09,1.92,3.09,1.93,3,0Z"/><path class="cls-4" d="M1036.2,791.26c13.79,23.47,25.57,48.26,33,74.52a231.57,231.57,0,0,1,8.32,76.13,279.07,279.07,0,0,1-6.72,46c-.43,1.88,2.46,2.69,2.89.8,6-26.53,8.74-53.86,6.31-81-2.32-26-9.27-51.29-19.46-75.29a368.78,368.78,0,0,0-21.72-42.68,1.51,1.51,0,0,0-2.6,1.52Z"/><path class="cls-4" d="M963.14,711.07c13.64,7.38,25.18,18,34.94,29.95q4.18,5.15,7.95,10.6c1.1,1.57,3.7.07,2.59-1.52-9-13-19.62-25-32.43-34.33a103.14,103.14,0,0,0-11.53-7.29c-1.7-.91-3.22,1.67-1.52,2.59Z"/><path class="cls-4" d="M898.1,727c3.43-8.47,6.73-17.29,6.73-26.56,0-8.06-2.57-16.37-8.76-21.82-5.55-4.89-13.35-7.09-20.41-4.31A23.74,23.74,0,0,0,862,689.57c-2.8,9.36,0,19.45,4.53,27.78.8,1.45,3.37.45,2.75-1.16-3.09-8-6-16.16-9.28-24.12-2.72-6.58-7.17-13.29-14.94-13.88a1.52,1.52,0,0,0-1.5,1.5,91.92,91.92,0,0,0,4,33.85c.74,2.34,1.41,5.08,2.81,7.13,1.54,2.26,4,2.64,6.5,2.84A132.35,132.35,0,0,1,874,726a135.48,135.48,0,0,1,19,5.56c1.81.67,2.6-2.23.8-2.9a137.29,137.29,0,0,0-32-7.68c-1.25-.15-2.51-.28-3.76-.39a13.55,13.55,0,0,1-3.87-.53,3.93,3.93,0,0,1-2-2.42c-.54-1.31-1-2.68-1.43-4a87.81,87.81,0,0,1-4.16-33.94l-1.5,1.5c7.12.54,10.61,7.93,12.86,13.73,2.84,7.35,5.64,14.71,8.46,22.07l2.75-1.16c-3.69-6.79-6.21-14.78-4.9-22.57A21.37,21.37,0,0,1,874.76,678c6-3.26,13.06-2.13,18.33,2,5.84,4.59,8.48,11.88,8.72,19.14.32,9.44-3.12,18.44-6.61,27-.72,1.79,2.18,2.57,2.9.8Z"/><path class="cls-4" d="M858.21,764.93a8.58,8.58,0,0,1,13.39,2.41,5.68,5.68,0,0,1,.79,3.47c-.24,1.38-2,1.61-3.12,1.89a25.78,25.78,0,0,1-5.1.79,5.94,5.94,0,0,1-2.06,0c-.49-.17-.48-.72-.56-1.19-.47-2.75-1-6.38.82-8.76a1.53,1.53,0,0,0,0-2.12,1.51,1.51,0,0,0-2.12,0c-2.5,3.18-2.3,7.12-1.71,10.92.3,2,.94,3.75,3.13,4.12a19.6,19.6,0,0,0,6.69-.46c1.94-.36,4.41-.79,5.84-2.29s1.42-3.64.93-5.48a11.7,11.7,0,0,0-7.15-7.78,11.84,11.84,0,0,0-11.89,2.39c-1.44,1.29.68,3.41,2.12,2.12Z"/><path class="cls-4" d="M1083.18,993c.3-4.72,1.27-9.85,4.87-13.23A9.71,9.71,0,0,1,1094,977a10.78,10.78,0,0,1,6.63,2.28,29.72,29.72,0,0,1,9.3,9.92,19.07,19.07,0,0,1,2.25,6.24,22.32,22.32,0,0,1-.41,7c-.37,2.62.46,4.59,1.85,6.75a10.46,10.46,0,0,1,1.92,5.73A14.86,14.86,0,0,1,1110,1026c-3.65,3.09-8.3,4.74-12.84,6a125,125,0,0,1-15.63,3.47c-11.26,1.67-23.48.71-32.8-6.41-1.54-1.18-3,1.43-1.52,2.59,9.08,6.93,21,8.38,32.11,7.11a119.12,119.12,0,0,0,17.45-3.54c5.08-1.38,10.21-3.13,14.42-6.39a18.42,18.42,0,0,0,7.25-12.2,12.92,12.92,0,0,0-.92-6.68c-1.07-2.48-3.2-4.28-2.78-7.18a25.8,25.8,0,0,0,.4-7.79,21.54,21.54,0,0,0-2.33-6.82A32.72,32.72,0,0,0,1102.45,977a14,14,0,0,0-8.11-2.94,12.48,12.48,0,0,0-7.53,2.89c-4.86,3.88-6.26,10.21-6.63,16.11-.12,1.93,2.88,1.92,3,0Z"/><path class="cls-4" d="M894.61,662c-15.15-5.25-32.81-10.54-47.48-1.1-12.28,7.89-18.46,22.41-18.22,36.69.16,9.47,2.8,18.7,6.7,27.28l.9-2.2c-6.19,1.14-13.3.07-18.42,4.48-4.88,4.21-4.93,11.41-4,17.26a53,53,0,0,0,36.75,41.12c1.85.55,2.65-2.34.8-2.89a50,50,0,0,1-27-20,48.71,48.71,0,0,1-6.88-15.31c-1.29-5.18-2.38-12,1.1-16.63,2-2.58,5.09-3.57,8.17-4,3.4-.49,6.86-.47,10.25-1.1a1.52,1.52,0,0,0,.9-2.2c-6.15-13.53-9.1-29.9-2.83-43.94A37,37,0,0,1,847,664.65a32.23,32.23,0,0,1,20-6c9.22.22,18.13,3.27,26.76,6.27,1.83.63,2.61-2.27.8-2.9Z"/><path class="cls-4" d="M890.21,791.61c16.43-3,32.86-9.48,44.28-22.1,9.83-10.85,18.07-30,4.75-41.49-6-5.16-13.88-7.47-21.41-9.22-1.88-.43-2.68,2.46-.8,2.9,6.28,1.45,12.73,3.25,18.11,6.93a19.39,19.39,0,0,1,6.16,6.61,18.37,18.37,0,0,1,1.78,11.13c-1,7.46-5.06,14.52-9.92,20.13a59.77,59.77,0,0,1-17.63,13.71,90.9,90.9,0,0,1-26.12,8.5c-1.89.35-1.09,3.24.8,2.9Z"/><path class="cls-4" d="M891.65,654c-19.7-15.38-42.12-27.51-66.37-33.9-24.53-6.46-50.89-6.8-75.27.54a117.62,117.62,0,0,0-19.73,7.91c-6.34,3.24-12.66,7.2-19.86,8.14l1.45,1.1c-2.76-12-.06-25.45,7.76-35A33.92,33.92,0,0,1,736,591.81c7.71-2.41,15.94-2.69,24-2.61a190.92,190.92,0,0,1,49.22,7.48A325.92,325.92,0,0,1,856,614.13c7,3.19,14.16,6.56,20,11.62s9.94,11.71,13.33,18.63c.84,1.73,1.65,3.48,2.45,5.23s3.39.23,2.59-1.52c-3.29-7.22-6.85-14.43-12.14-20.42s-12.44-10.26-19.67-13.75a325,325,0,0,0-48-18.78,201.48,201.48,0,0,0-50.54-8.84c-15.32-.56-32.64.15-44.14,11.67-9.18,9.18-13.34,23-11.77,35.77a46.22,46.22,0,0,0,.83,4.82,1.52,1.52,0,0,0,1.45,1.1c6.37-.83,12.05-3.65,17.66-6.61a130.38,130.38,0,0,1,17.14-7.72,126.29,126.29,0,0,1,37-7.05c24.93-1,49.67,4.92,72.06,15.74a195.11,195.11,0,0,1,35.29,22.08c1.5,1.17,3.64-.94,2.12-2.13Z"/><path class="cls-4" d="M899.76,652.36c4-10.08,7.87-20.28,8.44-31.22A72,72,0,0,0,902.85,591c-7.47-18.71-21.31-34.22-36.36-47.28a52.32,52.32,0,0,0-12.71-8.65c-4.85-2.15-10-3.2-15.24-4.19-5.48-1-11-2.11-16.64-2.09-1.94,0-4.5,0-5.66,1.88-1.41,2.26.5,4.53,1.94,6.18a103.5,103.5,0,0,0,11.23,10.42c3.76,3.2,7.4,6.52,10.9,10a180.77,180.77,0,0,1,34.09,47.09q3.29,6.55,6,13.36a104.26,104.26,0,0,0,6.12,13.54,38.35,38.35,0,0,0,4.15,5.81c1.26,1.47,3.38-.66,2.12-2.12-6.21-7.18-8.77-16.81-12.61-25.32a180.72,180.72,0,0,0-13.32-24.35,192.9,192.9,0,0,0-37.24-41.72c-1.86-1.58-3.72-3.18-5.5-4.86a32.31,32.31,0,0,1-4.95-5.31c-.64-1-.5-1.36.64-1.53a21.94,21.94,0,0,1,4,0,65.05,65.05,0,0,1,8,.87,142.88,142.88,0,0,1,15.05,3.09,40,40,0,0,1,13.35,6.66A122.14,122.14,0,0,1,871.12,552c3.5,3.33,6.87,6.79,10.07,10.41a108.64,108.64,0,0,1,16.21,23.66,74.28,74.28,0,0,1,7.78,28.49c.57,10.34-1.91,20.13-5.49,29.75-.91,2.43-1.86,4.85-2.82,7.26-.71,1.8,2.19,2.58,2.89.8Z"/><path class="cls-4" d="M924.88,671.36C939,673.12,948.15,686,951.8,698.77a80.29,80.29,0,0,1,2.43,12.39c.24,1.89,3.24,1.91,3,0-1.85-15-7.15-31-21-39a29.77,29.77,0,0,0-11.32-3.8c-1.91-.24-1.89,2.76,0,3Z"/><path class="cls-4" d="M875.27,710.11a6.44,6.44,0,0,0-.33-6,4.61,4.61,0,0,0-5.12-2,4.7,4.7,0,0,0-3,3.6,5,5,0,0,0,1.59,4.68,7.21,7.21,0,0,0,5.44,1.68,1.55,1.55,0,0,0,1.5-1.5c0-.74-.67-1.59-1.5-1.5-.3,0-.6,0-.9,0l-.46,0c-.22,0,.39.08,0,0l-.24,0a5.11,5.11,0,0,1-.87-.25c-.27-.1,0,.06,0,0a.61.61,0,0,1-.18-.08,3.62,3.62,0,0,1-.43-.24l-.17-.1-.08-.06h0c.15,0,0,0,0,0l-.18-.16-.26-.28c-.23-.23.14.21,0,0l-.16-.24c0-.08-.13-.33-.2-.38s.12.35.05.12a1,1,0,0,1-.05-.16c0-.13-.06-.25-.09-.38s0,.41,0,.1c0-.08,0-.17,0-.25a2.06,2.06,0,0,0,0-.35c0,.28-.05.29,0,.1a1,1,0,0,1,0-.17c0-.12.06-.25.1-.37a.52.52,0,0,0,.06-.16c-.1.22-.11.26,0,.12l0-.08c.06-.11.12-.22.19-.33a.66.66,0,0,0,.12-.17s-.24.28-.07.11l.26-.27s.19-.16,0,0,0,0,.09,0l.18-.1c.11-.07.15,0-.14.05.11,0,.25-.08.36-.11s.26,0,0,0,0,0,.07,0h.21c.34,0-.32-.08,0,0l.39.11c.32.1-.21-.12,0,0a1.67,1.67,0,0,0,.23.12l.17.12c.24.15,0,0-.05,0s.3.28.38.36.22.29.08.09.07.11.09.15a2.53,2.53,0,0,1,.13.22c0,.05.14.33.06.11s0,.13,0,.15.07.24.1.36a1,1,0,0,1,0,.24c0-.17,0-.2,0-.09s0,.12,0,.19a4.3,4.3,0,0,1,0,.62,1.06,1.06,0,0,1,0,.25c.1-.34,0,0,0,.1a7.71,7.71,0,0,1-.4,1.32,1.51,1.51,0,0,0,1,1.85,1.55,1.55,0,0,0,1.84-1Z"/><path class="cls-4" d="M853.71,712.75a3.39,3.39,0,0,0,2.41-3.64,3.35,3.35,0,0,0-1.12-2.27,3.88,3.88,0,0,0-2.5-.9,4.32,4.32,0,0,0-2.39.71,4.57,4.57,0,0,0-1.73,2.3,5.48,5.48,0,0,0,1,5.11,3.3,3.3,0,0,0,3.11,1.2,2.72,2.72,0,0,0,2.25-2.06,1.62,1.62,0,0,0-.15-1.16,1.56,1.56,0,0,0-.9-.69,1.53,1.53,0,0,0-1.84,1,1.36,1.36,0,0,0,0,.17c0,.17.18-.36.05-.14s.11-.15.11-.14-.26.22,0,0-.09,0-.15.07c.3-.21.28-.1.12-.07s-.34.06,0,0,0,0,0,0-.15-.1.18,0l-.18-.05c-.19,0,.33.19.08,0-.06,0-.42-.25-.2-.11s0,0,0,0a1.62,1.62,0,0,0-.17-.19s.2.31.07.1-.08-.12-.11-.18a2.21,2.21,0,0,1-.18-.34c-.11-.22.05.1.05.13a1.7,1.7,0,0,0-.09-.24c0-.14-.08-.28-.11-.42l0-.17c-.07-.31,0,.38,0,.06,0-.11,0-.23,0-.34a3.17,3.17,0,0,0,0-.43c0,.29,0,.29,0,.15l.06-.25c0-.14.09-.27.12-.4-.08.33-.1.23,0,.12a1.62,1.62,0,0,1,.1-.18,2.8,2.8,0,0,0,.2-.32c-.12.27-.15.2,0,.08a1.21,1.21,0,0,1,.16-.16c.1-.1.22-.1-.1.07l.12-.09L852,709c.12-.06.16,0-.15.06l.18-.06a1.11,1.11,0,0,1,.4-.09s-.42,0-.18,0h.52c-.41,0-.28-.05-.14,0l.18,0a.65.65,0,0,0,.13,0c-.29,0-.26-.12-.09,0l.16.09c.15.08.09.17-.1-.08a1.8,1.8,0,0,0,.2.19c.18.18-.21-.32-.08-.1l.06.11s0,.07.06.11c-.23-.38-.11-.26-.07-.12s0,.12,0,.18c.06.24,0-.41,0-.15s0,.21,0,.32,0,.29,0,0,0,0,0,0l0,.15c0,.14-.14.23.07-.13-.06.09-.1.18-.15.27s.26-.29.08-.11l-.12.13c-.09.09-.2.09.16-.11l-.15.09c-.06,0-.26.12,0,0s0,0-.06,0a1.5,1.5,0,0,0-1,1.84,1.52,1.52,0,0,0,1.84,1Z"/><path class="cls-4" d="M892.1,775.32a13.29,13.29,0,0,0,10.72-12.12l-2.94.4a8.12,8.12,0,0,0,2.1,3.77c.72.91,1.4,1.88,1.13,3-.74,3-4.46,3.54-7.07,3.87a1.54,1.54,0,0,0-1.5,1.5,1.51,1.51,0,0,0,1.5,1.5,19,19,0,0,0,6-1.44,7.45,7.45,0,0,0,3.8-4.1,5.58,5.58,0,0,0-.75-5.15c-.42-.61-1-1.3-1.4-1.8a3.87,3.87,0,0,1-.91-1.93,1.49,1.49,0,0,0-1.65-1.07,1.51,1.51,0,0,0-1.3,1.47,10.34,10.34,0,0,1-8.52,9.23,1.51,1.51,0,0,0-1,1.84,1.54,1.54,0,0,0,1.85,1.05Z"/><path class="cls-4" d="M1332.94,745.9a31.89,31.89,0,0,0-18.73,18.28,31.52,31.52,0,0,0-2.38,13,35.29,35.29,0,0,0,3.84,13.93c2.29,4.8,5.16,9.37,6.88,14.43a27.16,27.16,0,0,1,.51,15.67c-2.69,10.62-9.4,19.69-13.45,29.78-8.18,20.41-7.19,43.67-.2,64.26,3.49,10.28,8.38,20.46,15.22,28.94a46.36,46.36,0,0,0,11.86,10.61,50.34,50.34,0,0,0,15.09,5.92c10.69,2.4,22,2.22,32.76.63a97.48,97.48,0,0,0,31-10c18.62-9.74,33.35-26.35,39.87-46.43a69.18,69.18,0,0,0,2.89-30.27,76.92,76.92,0,0,0-9.84-28.45A88,88,0,0,0,1428.63,823c-7.76-6.5-16.68-11.33-25-17.11a69.7,69.7,0,0,1-11.23-9.48,41.8,41.8,0,0,1-8.22-13.12c-4-10.16-5.22-21.23-9.67-31.26-3.58-8.06-10.8-15.2-19.32-17.84a18,18,0,0,0-12.3.36,15.74,15.74,0,0,0-2.74,1.48,28,28,0,0,1-3.22,2.23c-2.72,1.33-5.18-1.92-7-3.54l-13.78-12.51c-1.43-1.29-3.55.82-2.12,2.13l14,12.66c1.93,1.75,4,4.13,6.68,4.57s4.65-1.33,6.69-2.76c7.19-5.07,16.21-1.64,22.25,3.61a31.6,31.6,0,0,1,8,10.59,88.91,88.91,0,0,1,4.93,15.3c2.57,10,5.19,20.09,11.95,28.25,6.25,7.55,14.73,12.84,22.9,18,4.11,2.62,8.23,5.25,12.12,8.2a86.65,86.65,0,0,1,11,10.1c13.35,14.49,21.88,33.87,20.88,53.78-1,20.15-11.5,39.22-26.79,52.13-16.29,13.74-37.82,20.52-59,20.69-10.65.09-21.74-1.42-31.08-6.85s-15.45-14.35-20.25-23.65c-9.78-19-14.21-41.34-10.25-62.45a77.92,77.92,0,0,1,4.43-15.13c2-5,4.67-9.67,7.12-14.43,4.78-9.31,9.11-19.54,6.3-30.14-2.55-9.64-10-17.57-11.11-27.64a29.91,29.91,0,0,1,8.41-23.71,26.8,26.8,0,0,1,10.35-6.67c1.82-.63,1-3.53-.79-2.89Z"/><path d="M229.5,246.92a4.78,4.78,0,0,1,3.41-1.36,4.67,4.67,0,0,1,4.83,4.83v87.07a4.77,4.77,0,0,1-1.37,3.41,4.58,4.58,0,0,1-3.46,1.42,4.85,4.85,0,0,1-4.83-4.83V297.7H167.64v39.76a4.77,4.77,0,0,1-1.37,3.41,4.56,4.56,0,0,1-3.46,1.42,4.85,4.85,0,0,1-4.83-4.83V250.39a4.6,4.6,0,0,1,1.42-3.47,4.78,4.78,0,0,1,3.41-1.36,4.67,4.67,0,0,1,4.83,4.83V289h60.44V250.39A4.6,4.6,0,0,1,229.5,246.92Z"/><path d="M309.69,278.38A32.61,32.61,0,0,1,322,290.77a37.05,37.05,0,0,1,.06,35.36,32.12,32.12,0,0,1-12.32,12.32,37.15,37.15,0,0,1-35.3,0,32.05,32.05,0,0,1-12.32-12.32,37.27,37.27,0,0,1,0-35.36,32,32,0,0,1,12.32-12.39,37,37,0,0,1,35.23,0Zm-30.4,7.56a23.91,23.91,0,0,0-9,9.22A26.86,26.86,0,0,0,267,308.48a26.58,26.58,0,0,0,3.28,13.19,23.94,23.94,0,0,0,9,9.23,26.39,26.39,0,0,0,25.7,0,23.77,23.77,0,0,0,8.92-9.23,27.09,27.09,0,0,0,3.22-13.19,27.37,27.37,0,0,0-3.22-13.32,23.75,23.75,0,0,0-8.92-9.22,26.32,26.32,0,0,0-25.7,0Z"/><path d="M393.54,278.38a32.58,32.58,0,0,1,12.32,12.39,37.09,37.09,0,0,1,.07,35.36,32.22,32.22,0,0,1-12.33,12.32,37.15,37.15,0,0,1-35.3,0A32.12,32.12,0,0,1,346,326.13a37.27,37.27,0,0,1,0-35.36,32,32,0,0,1,12.32-12.39A35.21,35.21,0,0,1,376,273.92,34.85,34.85,0,0,1,393.54,278.38Zm-30.41,7.56a24,24,0,0,0-9,9.22,26.86,26.86,0,0,0-3.28,13.32,26.58,26.58,0,0,0,3.28,13.19,24,24,0,0,0,9,9.23,26.39,26.39,0,0,0,25.7,0,23.7,23.7,0,0,0,8.92-9.23A27,27,0,0,0,401,308.48a27.26,27.26,0,0,0-3.22-13.32,23.68,23.68,0,0,0-8.92-9.22,26.32,26.32,0,0,0-25.7,0Z"/><path d="M462,334.12a5,5,0,0,1,1.24,3.46,4.37,4.37,0,0,1-1.49,3.35,5.28,5.28,0,0,1-3.71,1.36h-2.61a22.1,22.1,0,0,1-19.87-11.7,25.28,25.28,0,0,1-2.91-12.2V285.32h-8.05a4.23,4.23,0,0,1-3.16-1.18,3.92,3.92,0,0,1-1.18-2.91,4.07,4.07,0,0,1,1.18-3,4.23,4.23,0,0,1,3.16-1.18h8.05v-19.2a4.78,4.78,0,0,1,1.3-3.46,4.47,4.47,0,0,1,3.4-1.37,4.67,4.67,0,0,1,4.83,4.83V277h14a4.26,4.26,0,0,1,3.16,1.18,4.1,4.1,0,0,1,1.17,3,4,4,0,0,1-1.17,2.91,4.26,4.26,0,0,1-3.16,1.18h-14v33.07a14.63,14.63,0,0,0,3.72,10.34,12.38,12.38,0,0,0,9.53,4h3.35A4.16,4.16,0,0,1,462,334.12Z"/><path d="M550.27,276.56,497.76,271h53.38Zm2-11.89-52.39-5.57h53.38Zm4.46,71.47-52.51-5.58h53.5Zm2.1-12-52.51-5.57h53.51Zm2.11-11.89-52.51-5.57h53.5ZM563,300.34l-52.52-5.57H564Zm2.1-11.89-52.51-5.57h53.5Zm46.07-9.53H594.11l-10,57.59H560.55l10-57.59h-17l3.59-19.82h57.6Z"/><path d="M631.27,336.14l-52.52-5.58h53.51Zm2.1-12-52.51-5.57h53.5Zm2.11-11.89L583,306.66h53.51Zm2.1-11.89-52.51-5.57h53.5Zm2.11-11.89-52.51-5.57h53.5Zm2.1-11.89L589.28,271h53.38Zm28.37,59.95L674,313.84H660.12l-4,22.67H635.35L646.75,271h20.93l-4.09,22.67h14l4-22.67h20.93L691,336.51Z"/><path d="M730.59,318.55V321a25.53,25.53,0,0,0,.13,3.09l-52.52-5.57Zm.5-6.32-52.51-5.57h53.5Zm2.1-11.89-52.51-5.57h53.51Zm2.11-11.89-52.51-5.57h53.5Zm.12,47.69-52.51-5.58h48.92A15.24,15.24,0,0,0,735.42,336.14Zm2-59.58L684.89,271h53.38Zm23.4,42.61a9.48,9.48,0,0,0,4.65-.81c.87-.53,1.46-1.83,1.79-3.9L775.06,271h20.8l-6.44,36.91q-3,17.34-9.59,23.72T757.22,338q-12.75,0-17.83-3.78T734.31,321a80,80,0,0,1,1.36-13.13L742.24,271H763l-8.42,48.18Z"/><path d="M816.92,336.14l-52.52-5.58h53.76Zm2.72-12-52.39-5.57H821Zm2.85-11.89-52.39-5.57h53.63ZM825,300.34l-52-5.57h53.38Zm2.85-11.89-52-5.57h53.25Zm2.72-11.89L778.65,271H831.9ZM867,336.51H850.6l-1.85-26.63h-.62l-6,26.63H821L836,271h26.88l1.85,30.72h.5L877.73,271H904.6l-7.92,65.52h-21.3l3.34-26.63h-.62Z"/><path d="M928.51,336.14,876,330.56H929.5Zm2.1-12-52.51-5.57h53.5Zm2.11-11.89-52.52-5.57h53.51Zm2.1-11.89-52.51-5.57h53.5Zm2.11-11.89-52.52-5.57h53.51Zm2.1-11.89L886.52,271H939.9Zm29.11,44.59h-12l-2.72,15.36H932.59L944,271h31.46q18,0,17.95,17a42.8,42.8,0,0,1-2.23,14.12,41.18,41.18,0,0,1-4.83,10.15,21.05,21.05,0,0,1-7.36,6.32A22.33,22.33,0,0,1,968.14,321.15Zm2.72-28.73a5.56,5.56,0,0,1,.13-.75q0-2.6-5.33-2.6h-4l-2.6,15.36h3.84a11.7,11.7,0,0,0,4.46-.68,3.49,3.49,0,0,0,2-2.91Z"/><path d="M289.5,89.92a4.78,4.78,0,0,1,3.41-1.36,4.67,4.67,0,0,1,4.83,4.83v87.07a4.77,4.77,0,0,1-1.37,3.41,4.58,4.58,0,0,1-3.46,1.42,4.85,4.85,0,0,1-4.83-4.83V140.7H227.64v39.76a4.77,4.77,0,0,1-1.37,3.41,4.56,4.56,0,0,1-3.46,1.42,4.85,4.85,0,0,1-4.83-4.83V93.39a4.6,4.6,0,0,1,1.42-3.47,4.78,4.78,0,0,1,3.41-1.36,4.67,4.67,0,0,1,4.83,4.83V132h60.44V93.39A4.6,4.6,0,0,1,289.5,89.92Z"/><path d="M369.69,121.38A32.61,32.61,0,0,1,382,133.77a37.05,37.05,0,0,1,.06,35.36,32.12,32.12,0,0,1-12.32,12.32,37.15,37.15,0,0,1-35.3,0,32.05,32.05,0,0,1-12.32-12.32,37.27,37.27,0,0,1,0-35.36,32,32,0,0,1,12.32-12.39,37,37,0,0,1,35.23,0Zm-30.4,7.56a23.91,23.91,0,0,0-9,9.22A26.86,26.86,0,0,0,327,151.48a26.58,26.58,0,0,0,3.28,13.19,23.94,23.94,0,0,0,9,9.23,26.39,26.39,0,0,0,25.7,0,23.77,23.77,0,0,0,8.92-9.23,27.09,27.09,0,0,0,3.22-13.19,27.37,27.37,0,0,0-3.22-13.32,23.75,23.75,0,0,0-8.92-9.22,26.32,26.32,0,0,0-25.7,0Z"/><path d="M453.54,121.38a32.58,32.58,0,0,1,12.32,12.39,37.09,37.09,0,0,1,.07,35.36,32.22,32.22,0,0,1-12.33,12.32,37.15,37.15,0,0,1-35.3,0A32.12,32.12,0,0,1,406,169.13a37.27,37.27,0,0,1,0-35.36,32,32,0,0,1,12.32-12.39A35.21,35.21,0,0,1,436,116.92,34.85,34.85,0,0,1,453.54,121.38Zm-30.41,7.56a24,24,0,0,0-9,9.22,26.86,26.86,0,0,0-3.28,13.32,26.58,26.58,0,0,0,3.28,13.19,24,24,0,0,0,9,9.23,26.39,26.39,0,0,0,25.7,0,23.7,23.7,0,0,0,8.92-9.23A27,27,0,0,0,461,151.48a27.26,27.26,0,0,0-3.22-13.32,23.68,23.68,0,0,0-8.92-9.22,26.32,26.32,0,0,0-25.7,0Z"/><path d="M522,177.12a5,5,0,0,1,1.24,3.46,4.37,4.37,0,0,1-1.49,3.35,5.28,5.28,0,0,1-3.71,1.36h-2.61a22.1,22.1,0,0,1-19.87-11.7,25.28,25.28,0,0,1-2.91-12.2V128.32h-8.05a4.23,4.23,0,0,1-3.16-1.18,3.92,3.92,0,0,1-1.18-2.91,4.07,4.07,0,0,1,1.18-3,4.23,4.23,0,0,1,3.16-1.18h8.05v-19.2a4.78,4.78,0,0,1,1.3-3.46,4.47,4.47,0,0,1,3.4-1.37,4.67,4.67,0,0,1,4.83,4.83V120h14a4.26,4.26,0,0,1,3.16,1.18,4.1,4.1,0,0,1,1.17,3,4,4,0,0,1-1.17,2.91,4.26,4.26,0,0,1-3.16,1.18h-14v33.07a14.63,14.63,0,0,0,3.72,10.34,12.38,12.38,0,0,0,9.53,4h3.35A4.16,4.16,0,0,1,522,177.12Z"/><path d="M610.27,119.56,557.76,114h53.38Zm2-11.89-52.39-5.57h53.38Zm4.46,71.47-52.51-5.58h53.5Zm2.1-12-52.51-5.57h53.51Zm2.11-11.89-52.51-5.57h53.5ZM623,143.34l-52.52-5.57H624Zm2.1-11.89-52.51-5.57h53.5Zm46.07-9.53H654.11l-10,57.59H620.55l10-57.59h-17l3.59-19.82h57.6Z"/><path d="M691.27,179.14l-52.52-5.58h53.51Zm2.1-12-52.51-5.57h53.5Zm2.11-11.89L643,149.66h53.51Zm2.1-11.89-52.51-5.57h53.5Zm2.11-11.89-52.51-5.57h53.5Zm2.1-11.89L649.28,114h53.38Zm28.37,59.95L734,156.84H720.12l-4,22.67H695.35L706.75,114h20.93l-4.09,22.67h14l4-22.67h20.93L751,179.51Z"/><path d="M790.59,161.55V164a25.53,25.53,0,0,0,.13,3.09l-52.52-5.57Zm.5-6.32-52.51-5.57h53.5Zm2.1-11.89-52.51-5.57h53.51Zm2.11-11.89-52.51-5.57h53.5Zm.12,47.69-52.51-5.58h48.92A15.24,15.24,0,0,0,795.42,179.14Zm2-59.58L744.89,114h53.38Zm23.4,42.61a9.48,9.48,0,0,0,4.65-.81c.87-.53,1.46-1.83,1.79-3.9L835.06,114h20.8l-6.44,36.91q-3,17.34-9.59,23.72T817.22,181q-12.75,0-17.83-3.78T794.31,164a80,80,0,0,1,1.36-13.13L802.24,114H823l-8.42,48.18Z"/><path d="M876.92,179.14l-52.52-5.58h53.76Zm2.72-12-52.39-5.57H881Zm2.85-11.89-52.39-5.57h53.63ZM885,143.34l-52-5.57h53.38Zm2.85-11.89-52-5.57h53.25Zm2.72-11.89L838.65,114H891.9ZM927,179.51H910.6l-1.85-26.63h-.62l-6,26.63H881L896,114h26.88l1.85,30.72h.5L937.73,114H964.6l-7.92,65.52h-21.3l3.34-26.63h-.62Z"/><path d="M988.51,179.14,936,173.56H989.5Zm2.1-12-52.51-5.57h53.5Zm2.11-11.89-52.52-5.57h53.51Zm2.1-11.89-52.51-5.57h53.5Zm2.11-11.89-52.52-5.57h53.51Zm2.1-11.89L946.52,114H999.9Zm29.11,44.59h-12l-2.72,15.36H992.59L1004,114h31.46q18,0,18,17a42.8,42.8,0,0,1-2.23,14.12,41.18,41.18,0,0,1-4.83,10.15,21.05,21.05,0,0,1-7.36,6.32A22.33,22.33,0,0,1,1028.14,164.15Zm2.72-28.73a5.56,5.56,0,0,1,.13-.75q0-2.59-5.33-2.6h-4l-2.6,15.36h3.84a11.7,11.7,0,0,0,4.46-.68,3.49,3.49,0,0,0,2-2.91Z"/><path d="M289.5,408.92a4.78,4.78,0,0,1,3.41-1.36,4.67,4.67,0,0,1,4.83,4.83v87.07a4.77,4.77,0,0,1-1.37,3.41,4.58,4.58,0,0,1-3.46,1.42,4.85,4.85,0,0,1-4.83-4.83V459.7H227.64v39.76a4.77,4.77,0,0,1-1.37,3.41,4.56,4.56,0,0,1-3.46,1.42,4.85,4.85,0,0,1-4.83-4.83V412.39a4.6,4.6,0,0,1,1.42-3.47,4.78,4.78,0,0,1,3.41-1.36,4.67,4.67,0,0,1,4.83,4.83V451h60.44V412.39A4.6,4.6,0,0,1,289.5,408.92Z"/><path d="M369.69,440.38A32.61,32.61,0,0,1,382,452.77a37.05,37.05,0,0,1,.06,35.36,32.12,32.12,0,0,1-12.32,12.32,37.15,37.15,0,0,1-35.3,0,32.05,32.05,0,0,1-12.32-12.32,37.27,37.27,0,0,1,0-35.36,32,32,0,0,1,12.32-12.39,37,37,0,0,1,35.23,0Zm-30.4,7.56a23.91,23.91,0,0,0-9,9.22A26.86,26.86,0,0,0,327,470.48a26.58,26.58,0,0,0,3.28,13.19,23.94,23.94,0,0,0,9,9.23,26.39,26.39,0,0,0,25.7,0,23.77,23.77,0,0,0,8.92-9.23,27.09,27.09,0,0,0,3.22-13.19,27.37,27.37,0,0,0-3.22-13.32,23.75,23.75,0,0,0-8.92-9.22,26.32,26.32,0,0,0-25.7,0Z"/><path d="M453.54,440.38a32.58,32.58,0,0,1,12.32,12.39,37.09,37.09,0,0,1,.07,35.36,32.22,32.22,0,0,1-12.33,12.32,37.15,37.15,0,0,1-35.3,0A32.12,32.12,0,0,1,406,488.13a37.27,37.27,0,0,1,0-35.36,32,32,0,0,1,12.32-12.39A35.21,35.21,0,0,1,436,435.92,34.85,34.85,0,0,1,453.54,440.38Zm-30.41,7.56a24,24,0,0,0-9,9.22,26.86,26.86,0,0,0-3.28,13.32,26.58,26.58,0,0,0,3.28,13.19,24,24,0,0,0,9,9.23,26.39,26.39,0,0,0,25.7,0,23.7,23.7,0,0,0,8.92-9.23A27,27,0,0,0,461,470.48a27.26,27.26,0,0,0-3.22-13.32,23.68,23.68,0,0,0-8.92-9.22,26.32,26.32,0,0,0-25.7,0Z"/><path d="M522,496.12a5,5,0,0,1,1.24,3.46,4.37,4.37,0,0,1-1.49,3.35,5.28,5.28,0,0,1-3.71,1.36h-2.61a22.1,22.1,0,0,1-19.87-11.7,25.28,25.28,0,0,1-2.91-12.2V447.32h-8.05a4.23,4.23,0,0,1-3.16-1.18,3.92,3.92,0,0,1-1.18-2.91,4.07,4.07,0,0,1,1.18-3,4.23,4.23,0,0,1,3.16-1.18h8.05v-19.2a4.78,4.78,0,0,1,1.3-3.46,4.47,4.47,0,0,1,3.4-1.37,4.67,4.67,0,0,1,4.83,4.83V439h14a4.26,4.26,0,0,1,3.16,1.18,4.1,4.1,0,0,1,1.17,3,4,4,0,0,1-1.17,2.91,4.26,4.26,0,0,1-3.16,1.18h-14v33.07a14.63,14.63,0,0,0,3.72,10.34,12.38,12.38,0,0,0,9.53,4h3.35A4.16,4.16,0,0,1,522,496.12Z"/><path d="M1178.11,485.26l-.12,18.87q-5.57,1.08-11,2.05t-11,1.7q-5.81.72-11.61,1.33a113,113,0,0,1-11.62.6q-1.7,0-5-.12t-6.78-.48c-2.34-.24-4.55-.55-6.65-.91a14.57,14.57,0,0,1-4.6-1.39,16.76,16.76,0,0,1-2.54-2,23.59,23.59,0,0,1-2.17-2.35,31.58,31.58,0,0,1-4.24-6.9,44.23,44.23,0,0,1-2.66-7.74,61.19,61.19,0,0,1-1.39-8.1,79.84,79.84,0,0,1-.42-8.11,97.4,97.4,0,0,1,.54-10,81.47,81.47,0,0,1,1.76-10.28,61.25,61.25,0,0,1,3.2-9.79,43.27,43.27,0,0,1,4.9-8.71c.56-.73,1.29-1.61,2.18-2.66a9.44,9.44,0,0,1,2.66-2.3,36,36,0,0,1,7.32-3,62.6,62.6,0,0,1,8.4-1.88c2.9-.44,5.79-.76,8.65-1s5.5-.3,7.92-.3a120.29,120.29,0,0,1,13.79.79,78.16,78.16,0,0,1,13.43,2.72c-.17,2.18-.29,4.37-.37,6.59s-.12,4.42-.12,6.59q0,7.88.36,15.85a56.37,56.37,0,0,0-11.37-3,78,78,0,0,0-11.73-.9c-.8,0-2,.06-3.5.18s-3.27.28-5.21.48-3.93.47-6,.79a51.37,51.37,0,0,0-5.75,1.21,27.11,27.11,0,0,0-4.65,1.69,5.72,5.72,0,0,0-2.6,2.06,9.71,9.71,0,0,0-.79,2.72q-.3,1.76-.48,3.69c-.13,1.29-.21,2.54-.25,3.75s-.06,2.17-.06,2.9.08,2.18.25,4.35.36,4.5.6,7,.54,4.7.91,6.71.74,3.19,1.15,3.51a4.44,4.44,0,0,0,2,.42c.93,0,1.55.06,1.88.06q5.92,0,12.7-.6t13.72-1.64q7-1,13.73-2.17T1178.11,485.26Z"/><path d="M1257.94,462.88v2.79l-23.35,1.08a16.2,16.2,0,0,0,.37-3.62c0-2-.29-3.33-.85-3.93s-1.82-.91-3.75-.91a32.4,32.4,0,0,0-9.07,1.45c-3.31,1-6.21,1.89-8.71,2.78-.4,3.55-.73,7.1-1,10.65s-.36,7.09-.36,10.64q0,5.93.06,11.79t.18,11.79l-20.8,1.33q-.62-7.74-1.21-15.42t-1.09-15.42q-.6-10.28-1.57-20.5t-1.94-20.62q6.9.48,13.73,1.39t13.73,2.24l-.61,10.16a78.39,78.39,0,0,1,7-5,45.36,45.36,0,0,1,6.77-3.57,33.63,33.63,0,0,1,7.32-2.12,51.27,51.27,0,0,1,8.59-.66,34.19,34.19,0,0,1,6.53.66,11.12,11.12,0,0,1,5.8,3.09,10.88,10.88,0,0,1,2.06,4,39.8,39.8,0,0,1,1.33,5.62q.48,3,.66,5.81C1257.88,460.24,1257.94,461.76,1257.94,462.88Z"/><path d="M1346.35,507.76l-20.44.84-1.45-12.21a22.24,22.24,0,0,1-5.5,5.32,31.13,31.13,0,0,1-6.9,3.51,37.88,37.88,0,0,1-7.62,1.87,56.43,56.43,0,0,1-7.68.55,67.34,67.34,0,0,1-7.2-.49q-4.29-.48-8.7-1.39a50.23,50.23,0,0,1-8.17-2.36,13.75,13.75,0,0,1-5.44-3.38,9.89,9.89,0,0,1-2-4.66,50.59,50.59,0,0,1-.9-6.83q-.25-3.63-.25-7v-5.44q0-9.07.73-17.9t2.06-17.54a68.56,68.56,0,0,1,7.25-.36,47.47,47.47,0,0,1,6.29.42c2.1.28,4.19.63,6.29,1q0,.6.12,3.51t.31,6.89q.18,4,.42,8.53t.54,8.4c.2,2.58.45,4.78.73,6.59s.58,2.81.91,3a8.62,8.62,0,0,0,4,1.21q2.17.12,4.23.12c1,0,2.48-.06,4.54-.18s4.17-.32,6.35-.61a56,56,0,0,0,6-1.09,8,8,0,0,0,3.75-1.63,4.73,4.73,0,0,0,.55-2.3q.18-1.94.24-4.23t.12-4.29c0-1.33.06-2.12.06-2.36q0-5.44-.24-10.77t-.49-10.76l23.47-1.09q.72,8.46,1.33,16.87t1.57,16.87a52.88,52.88,0,0,1,.42,5.69c0,1.93.1,3.87.19,5.8q.24,5.44.3,10.89T1346.35,507.76Z"/><path d="M1430.05,478v6.59q0,3.33-.25,6.6l-27,1.69q.48-6.28.79-12.46t.3-12.58v-2q0-1.46-.12-3.09c-.08-1.09-.16-2.11-.24-3.08s-.16-1.65-.24-2.06a21.37,21.37,0,0,0-1.27-2.9,6.45,6.45,0,0,0-1.58-1.94,5.46,5.46,0,0,0-2.23-1,15.11,15.11,0,0,0-3.27-.31,36.23,36.23,0,0,0-3.69.25q-2.23.24-4.53.72a34.21,34.21,0,0,0-4.36,1.21,6.85,6.85,0,0,0-2.9,1.69l-.24,35.68c-.16-.32-.63-.48-1.39-.48h-1.64q-3.62,0-7.49.3c-2.59.2-5.08.47-7.5.79q-1.57-14.26-2.79-28.42t-2.78-28.43c1.61-.08,3.23-.14,4.84-.18s3.23-.06,4.84-.06c2.1,0,4.21.06,6.35.18s4.25.23,6.35.31l.85,9.31a28.85,28.85,0,0,1,9.19-9.31,22.54,22.54,0,0,1,12.46-3.75q3.38,0,7,.36a32.25,32.25,0,0,1,7,1.45,27,27,0,0,1,6.29,3,17.82,17.82,0,0,1,5,5,13.49,13.49,0,0,1,1.64,4.3q.66,2.83,1.15,6.41c.32,2.38.58,4.89.78,7.56s.34,5.2.42,7.62.14,4.61.19,6.59S1430.05,477,1430.05,478Z"/><path d="M1521,450.18a39.81,39.81,0,0,1-1.45,10.77c-.57.08-2.24.18-5,.3s-6.09.29-9.92.49-7.94.44-12.34.72-8.46.59-12.21.91-6.94.66-9.56,1-4.09.7-4.41,1a10.55,10.55,0,0,0-2.9,4.12,12.81,12.81,0,0,0-1,4.83,6.52,6.52,0,0,0,.3,2.24,7.63,7.63,0,0,0,1,1.76,5.75,5.75,0,0,0,2.54.6c1.45.16,3.06.28,4.84.36s3.42.15,5,.18l2.66.07q8.7,0,17.41-.37t17.42-1l1,20.8q-12.11,1-24.25,1.87t-24.37.91H1464c-.76,0-1.59,0-2.48-.06s-1.73-.1-2.54-.18a13.78,13.78,0,0,1-1.69-.24c-1.69-.49-3.37-1-5-1.64a24.29,24.29,0,0,1-4.66-2.29,16.9,16.9,0,0,1-3.81-3.33,11.85,11.85,0,0,1-2.35-4.72,30.47,30.47,0,0,1-.79-4.78c-.2-2-.34-4-.42-6.1s-.15-4.16-.19-6.17-.06-3.71-.06-5.08q0-4.73.13-8.83a24.83,24.83,0,0,1,1.33-7.56,16.16,16.16,0,0,1,3.93-6.17,23.43,23.43,0,0,1,7.8-4.78,27.07,27.07,0,0,1,6.89-1.51c3.07-.36,6.27-.64,9.62-.84s6.55-.35,9.61-.43,5.45-.12,7.14-.12q8.46,0,16.87.36t16.87,1c.25,2,.45,4,.61,6S1521,448.25,1521,450.18Z"/><path d="M1611.59,466.75a76.31,76.31,0,0,1-.54,9q-.55,4.53-1.15,9-1,7.86-2.18,15.54t-2.42,15.54q-5.92.12-11.61.48t-11.49.85V499.71q0-8.64-.36-17.35c0-1.13,0-2.58-.06-4.36a17.78,17.78,0,0,0-.55-4.35,8.16,8.16,0,0,0-1.81-3.81c-.73-.68-2.14-1-4.23-1a31.51,31.51,0,0,0-5.08.48q-2.91.49-5.93,1.21c-2,.49-3.93,1-5.75,1.64a30,30,0,0,0-4.53,1.87q-1,9.8-2.36,19.47a184.36,184.36,0,0,0-1.75,19.6l-17.06-.85q-1.34-21.76-2.54-43.36t-2.3-43.36l26.61-1.69q-.24,8-.48,15.9t-.48,15.91a16.64,16.64,0,0,1,5.2-3,28.25,28.25,0,0,1,6-1.39,53.71,53.71,0,0,1,6.23-.36h6q4.35,0,9.86.3a49.82,49.82,0,0,1,10.52,1.7,25.22,25.22,0,0,1,8.89,4.41,14.83,14.83,0,0,1,5.2,8.47,1.07,1.07,0,0,1,.12.48Z"/><path d="M610.27,438.56,557.76,433h53.38Zm2-11.89-52.39-5.57h53.38Zm4.46,71.47-52.51-5.58h53.5Zm2.1-12-52.51-5.57h53.51Zm2.11-11.89-52.51-5.57h53.5ZM623,462.34l-52.52-5.57H624Zm2.1-11.89-52.51-5.57h53.5Zm46.07-9.53H654.11l-10,57.59H620.55l10-57.59h-17l3.59-19.82h57.6Z"/><path d="M691.27,498.14l-52.52-5.58h53.51Zm2.1-12-52.51-5.57h53.5Zm2.11-11.89L643,468.66h53.51Zm2.1-11.89-52.51-5.57h53.5Zm2.11-11.89-52.51-5.57h53.5Zm2.1-11.89L649.28,433h53.38Zm28.37,59.95L734,475.84H720.12l-4,22.67H695.35L706.75,433h20.93l-4.09,22.67h14l4-22.67h20.93L751,498.51Z"/><path d="M790.59,480.55V483a25.53,25.53,0,0,0,.13,3.09l-52.52-5.57Zm.5-6.32-52.51-5.57h53.5Zm2.1-11.89-52.51-5.57h53.51Zm2.11-11.89-52.51-5.57h53.5Zm.12,47.69-52.51-5.58h48.92A15.24,15.24,0,0,0,795.42,498.14Zm2-59.58L744.89,433h53.38Zm23.4,42.61a9.48,9.48,0,0,0,4.65-.81c.87-.53,1.46-1.83,1.79-3.9L835.06,433h20.8l-6.44,36.91q-3,17.34-9.59,23.72T817.22,500q-12.75,0-17.83-3.78T794.31,483a80,80,0,0,1,1.36-13.13L802.24,433H823l-8.42,48.18Z"/><path d="M876.92,498.14l-52.52-5.58h53.76Zm2.72-12-52.39-5.57H881Zm2.85-11.89-52.39-5.57h53.63ZM885,462.34l-52-5.57h53.38Zm2.85-11.89-52-5.57h53.25Zm2.72-11.89L838.65,433H891.9ZM927,498.51H910.6l-1.85-26.63h-.62l-6,26.63H881L896,433h26.88l1.85,30.72h.5L937.73,433H964.6l-7.92,65.52h-21.3l3.34-26.63h-.62Z"/><path d="M988.51,498.14,936,492.56H989.5Zm2.1-12-52.51-5.57h53.5Zm2.11-11.89-52.52-5.57h53.51Zm2.1-11.89-52.51-5.57h53.5Zm2.11-11.89-52.52-5.57h53.51Zm2.1-11.89L946.52,433H999.9Zm29.11,44.59h-12l-2.72,15.36H992.59L1004,433h31.46q18,0,18,17a42.8,42.8,0,0,1-2.23,14.12,41.18,41.18,0,0,1-4.83,10.15,21.05,21.05,0,0,1-7.36,6.32A22.33,22.33,0,0,1,1028.14,483.15Zm2.72-28.73a5.56,5.56,0,0,1,.13-.75q0-2.6-5.33-2.6h-4l-2.6,15.36h3.84a11.7,11.7,0,0,0,4.46-.68,3.49,3.49,0,0,0,2-2.91Z"/><path class="cls-4" d="M289.58,735.43c-2.29,2.77-6.16,5.19-9.91,4.55-2-.34-3.16-1.84-3.85-3.67a46.14,46.14,0,0,1-1.84-6.18c-.8-3.6-.74-8.27,2.64-10.62,3.57-2.46,8.15.67,11,2.85a31.7,31.7,0,0,1,8.76,10.26c.92,1.69,3.51.18,2.59-1.52a34.85,34.85,0,0,0-9.67-11.21c-3.82-2.88-9.27-6-13.95-3.15-4.22,2.55-5.31,7.79-4.64,12.34a38.55,38.55,0,0,0,2.18,8c.83,2.22,2.07,4.26,4.31,5.26,5,2.23,11.22-.9,14.46-4.81,1.23-1.48-.89-3.61-2.12-2.12Z"/><path class="cls-4" d="M312.55,814.85a7,7,0,0,1-7-3,9,9,0,0,1-.42-8.69,9.89,9.89,0,0,1,6.81-5.78,5.74,5.74,0,0,1,6.78,3.92c1,3.74-1.48,7.11-4.18,9.4-1.47,1.25.66,3.36,2.12,2.12,3.34-2.82,5.83-6.87,5.14-11.38a8.54,8.54,0,0,0-8.44-7.16c-8.7-.24-14.7,10.59-11,18.08a10.12,10.12,0,0,0,11,5.4c1.88-.41,1.09-3.3-.8-2.89Z"/><path class="cls-4" d="M387.89,692.41c-7.52-6.25-17.61-8.14-27.1-6.36s-17.87,7.54-23.93,15a61.55,61.55,0,0,0-11.08,55.47A50.12,50.12,0,0,0,342.28,781a78.41,78.41,0,0,0,13.12,8.48A100.24,100.24,0,0,0,370.3,796c5.64,1.86,11.25,2,16.53-1a63.4,63.4,0,0,0,12.8-10,117.15,117.15,0,0,0,19.61-25.5c5.37-9.22,9.35-20.27,5.9-30.9-1.65-5.08-5-9-9.12-12.24-4.74-3.7-9.73-7.11-14.61-10.63l-7.68-5.54c-1.57-1.13-3.07,1.47-1.51,2.59l14.54,10.5c4.26,3.07,9,6,12.31,10.12,6.38,8,4.88,19.37.95,28.1A92.68,92.68,0,0,1,412.27,765,116.85,116.85,0,0,1,403,777.14a88.11,88.11,0,0,1-10.88,10.54c-4,3.2-8.48,6.7-13.8,6.77s-10.52-2.42-15.27-4.58a100.82,100.82,0,0,1-13-6.91c-8.12-5.21-14.91-12.09-19-20.9-7.73-16.58-5.69-37.07,3.53-52.62,4.64-7.82,11.34-14.71,19.79-18.34,8-3.45,17.76-3.81,25.75-.1a26,26,0,0,1,5.62,3.53c1.48,1.23,3.61-.88,2.12-2.12Z"/><path class="cls-4" d="M303.61,759a76.9,76.9,0,0,0,21.17-52.77,73.67,73.67,0,0,0-1.37-14.28c-1-5.24-2.6-10.44-6.43-14.34a42.81,42.81,0,0,0-13.11-8.7,22.78,22.78,0,0,0-15.32-1.55c-5,1.35-9.42,4.28-13.33,7.59a83.1,83.1,0,0,0-11.09,11.49,146.66,146.66,0,0,0-17.06,27.31c-4.63,9.39-8,19.48-7.11,30.06a49.87,49.87,0,0,0,9.39,25.33c5.52,7.55,13.71,14.49,23,16.53A20.63,20.63,0,0,0,287.64,783a51.24,51.24,0,0,0,12.12-10,57,57,0,0,0,4.73-6.12c1.07-1.61-1.52-3.11-2.59-1.51a51.07,51.07,0,0,1-9.85,10.9c-3.75,3.1-8.31,6.32-13.28,6.89s-10.11-1.43-14.38-4a42.89,42.89,0,0,1-9.71-8.1,47.23,47.23,0,0,1-11.09-22.54c-1.79-9.35-.17-18.59,3.4-27.32A128.16,128.16,0,0,1,254,707a150,150,0,0,1,8-12.76,97,97,0,0,1,9.48-11.63,55.72,55.72,0,0,1,11.3-9.48c4.14-2.49,8.9-4.07,13.77-3.36,5,.74,9.59,3.43,13.72,6.23a26.9,26.9,0,0,1,5.45,4.64,18.84,18.84,0,0,1,3.53,6.86,60.42,60.42,0,0,1,2.37,13.68,74,74,0,0,1-15.76,50.74q-2.07,2.58-4.37,5c-1.34,1.39.78,3.52,2.13,2.12Z"/><path class="cls-4" d="M357.29,744.4a15.89,15.89,0,0,1-5.29-2.34,14.65,14.65,0,0,1-2.21-1.88c-.64-.66-1.1-1.1-.82-2a13.55,13.55,0,0,1,2.57-4.77c1.36-1.53,3.08-1.79,5-1.61a20.13,20.13,0,0,1,10.84,4.47,5,5,0,0,1,1.63,1.94c.36,1-.28,2.11-.77,3a24.94,24.94,0,0,1-3.87,5.2c-1.34,1.4.78,3.52,2.12,2.12a29.05,29.05,0,0,0,3.94-5.1c1.07-1.79,2.15-3.88,1.47-6-.59-1.88-2.22-3.19-3.75-4.31a23.84,23.84,0,0,0-5.6-3c-3.52-1.31-8.49-2.44-11.8-.07a11.27,11.27,0,0,0-3.37,4.21c-.82,1.64-2,3.69-1.46,5.57s2.76,3.62,4.37,4.75a18.07,18.07,0,0,0,6.16,2.74c1.87.45,2.67-2.44.79-2.89Z"/><path class="cls-4" d="M170.4,1009.36a270.93,270.93,0,0,1-1-47c.44-7.58-.16-15.3-.29-22.89a193.77,193.77,0,0,1,.51-22.86c1.54-15.41,1.81-30.91,2.4-46.38.29-7.55.89-15,1.61-22.57s1.08-15.41,2.38-23c5-29,19.3-55.34,30.67-82.13,2.84-6.67,5.52-13.41,7.88-20.26,2.19-6.35,4-12.79,6.68-19,4.85-11.2,11.47-21.74,20.34-30.19a69.78,69.78,0,0,1,7.18-6q1.77-1.29,3.62-2.46a15.89,15.89,0,0,1,5.07-2c7.59-1.85,15.26-3.37,23-4.61a378.08,378.08,0,0,1,46.67-4.29c15.45-.52,30.91-.31,46.36.25,13.85.5,27.88.31,40.78,6.12a51.59,51.59,0,0,1,26.16,26.9c4.89,11.21,6.47,23.57,7.93,35.61.85,7,1.83,14,2.3,21.09a199.16,199.16,0,0,1,.23,22.26,287.09,287.09,0,0,1-6.08,45.21c-3.08,14.95-7,29.66-11.37,44.28-4.26,14.16-8.78,28.26-12.39,42.6-1.79,7.11-3.36,14.27-4.57,21.5-1.28,7.68-2.06,15.45-3,23.19-1.85,15.91-3.52,31.86-4.49,47.85-.22,3.76-.27,7.55-.56,11.31s-2,7.16-3.22,10.62c-.62,1.83,2.27,2.62,2.89.79,1.17-3.45,2.77-6.82,3.23-10.47.5-3.91.41-7.95.64-11.89.49-8.11,1.15-16.2,1.93-24.29s1.71-16.43,2.66-24.64c.93-8,1.76-16,3.18-24,5.32-29.89,16.48-58.29,23.79-87.69,7.41-29.79,12.55-60.69,9.71-91.45-.62-6.72-1.55-13.44-2.4-20.14-.78-6.13-1.65-12.26-3-18.29-2.74-12-7.74-23.5-16.52-32.34-9.41-9.47-22.36-14.37-35.4-16-7.18-.9-14.52-.84-21.74-1.11-7.91-.29-15.82-.49-23.73-.55-31.58-.24-63.36,1.84-94.12,9.37a15,15,0,0,0-4.51,1.68q-2.1,1.29-4.11,2.72a75.47,75.47,0,0,0-7.05,5.68,83.37,83.37,0,0,0-11.93,13.71,101.43,101.43,0,0,0-9.16,16.17,174.34,174.34,0,0,0-6.82,18.54c-9.28,28.31-24.22,54.35-33.69,82.6a155.09,155.09,0,0,0-5.63,21.31c-1.41,7.6-1.83,15.37-2.56,23.06s-1.45,15.44-1.76,23.2-.53,15.73-.86,23.59-.76,15.68-1.51,23.49a209.92,209.92,0,0,0-.62,23.53c.13,7.71.75,15.54.3,23.24-.47,7.89-.68,15.8-.54,23.7s.63,15.54,1.52,23.27c.21,1.89,3.22,1.91,3,0Z"/><path class="cls-4" d="M178.41,1009.14l4.2-6.79c.5-.8,2.46-5,3.71-4a9.8,9.8,0,0,1,1.6,2.64l2,3.41,3.89,6.82a1.51,1.51,0,0,0,2.79-.76,12.49,12.49,0,0,1,8.71-10.83l-1.84-1,2.24,8a1.52,1.52,0,0,0,2.21.89c4.13-3.14,8.86-6.92,14.26-7.26,4-.25,8.72,1.48,10,5.59a1.5,1.5,0,0,0,2.5.66c3.35-3.4,7-7.26,11.88-8.31a10.5,10.5,0,0,1,5.72.35,7.26,7.26,0,0,1,4.07,3.8c.87,1.66,1.68,3.49,3.4,4.45,2.13,1.2,4.48.41,6.39-.82a25.37,25.37,0,0,1,5.52-3.2,16.16,16.16,0,0,1,5.73-.83,15.87,15.87,0,0,1,11.76,5.66,1.51,1.51,0,0,0,2.36-.3c2-3.58,5.55-7,9.88-7.17,3.79-.18,7.61,2.27,8.22,6.14a1.51,1.51,0,0,0,2.51.66c4-4.28,8.74-9.59,14.9-10.38,4.39-.56,10.44,1.79,10.9,6.8a1.52,1.52,0,0,0,2.56,1.06c2.86-2.42,6.4-4.9,10.33-4.72,3,.13,6.32,2.42,6.27,5.67a1.51,1.51,0,0,0,2.79.75,8.33,8.33,0,0,1,10.2-2.58c1.95,1,3.5,2.64,5.51,3.54a5.89,5.89,0,0,0,6-.47c1.57-1.1,2.92-3.16,5.08-2.77s3.48,2.4,3.95,4.42c.91,3.89.17,9.47-2.71,12.44a5.09,5.09,0,0,1-5.2,1.52c-1.66-.46-3.13-1.62-3.05-3.47.06-1.44-2.16-2.11-2.8-.76a10.37,10.37,0,0,1-19.19-.43,1.55,1.55,0,0,0-1.44-1.1c-4.51,0-6.6,4.31-10,6.41-2.17,1.32-3.22-.59-5-1.73a7.61,7.61,0,0,0-5.6-.92c-4.08.73-7.43,3.51-11.28,4.86-1.53.53-3.25.91-4.76.11-2.07-1.09-3.1-3.52-5-4.82a4.38,4.38,0,0,0-3.7-.61c-1.51.46-2.27,2-3.67,2.53a3.88,3.88,0,0,1-5.08-2.89,1.5,1.5,0,0,0-2.2-.89,23.61,23.61,0,0,1-18,3.46,22.88,22.88,0,0,1-8.66-3.8c-1.36-1-2.76-2-4.52-2a5.47,5.47,0,0,0-3.66,1.64c-1.85,1.73-2.95,4.52-5.68,5-2.54.47-5.2-.94-7-2.66a11.11,11.11,0,0,1-2.25-3.3,6.45,6.45,0,0,0-2.63-3.27c-2.68-1.38-4.76.82-6.11,2.89-.77,1.18-1.46,2.59-2.88,3.06a5.24,5.24,0,0,1-4.21-.75c-3.2-2-3.75-6.5-4.2-9.89a1.52,1.52,0,0,0-2.8-.75c-2,3.23-4.19,6.77-7.58,8.76-3.18,1.87-6.86,2-9.7-.52-2.19-1.91-4-4.53-6.72-5.73-3.1-1.36-5.9.21-7.75,2.76-.83,1.14-1.58,3-3,3.54-.24.09-2.41.42-2.33-.15.23-1.53-1.9-2.81-2.74-1.15a5.18,5.18,0,1,1-9.4-4.37c.83-1.73-1.76-3.26-2.59-1.51-1.85,3.89-.46,9.1,3.55,11.08a8.47,8.47,0,0,0,11-3.69l-2.74-1.16c-.51,3.49,3.23,4.81,6.08,3.81,1.73-.61,2.74-2,3.73-3.46.86-1.28,1.79-3,3.49-3.23,1.46-.17,2.75,1,3.72,1.94,1.28,1.2,2.42,2.52,3.76,3.65a10.67,10.67,0,0,0,11.33,1.64c4.81-2,7.75-6.46,10.42-10.7l-2.79-.76c.47,3.5,1,7.18,3.13,10.09a8.81,8.81,0,0,0,8.14,3.63c3.32-.48,4.38-3.15,6.21-5.51.64-.82,1.34-1.35,2.11-.34.88,1.17,1.27,2.65,2.14,3.85,3.36,4.56,10.49,7.52,15.13,3,1.05-1,1.83-2.3,2.85-3.37a2.5,2.5,0,0,1,3.7-.37,31.84,31.84,0,0,0,8.92,4.54,26.69,26.69,0,0,0,22-3.36l-2.21-.9a6.61,6.61,0,0,0,4.73,5,6.77,6.77,0,0,0,3.6.12,8.1,8.1,0,0,0,3.29-2.08,1.64,1.64,0,0,1,2.57,0c1,.85,1.71,1.92,2.6,2.84a7.58,7.58,0,0,0,5.69,2.54c4.36-.09,8.09-3.07,12-4.69,1.56-.65,3.47-1.29,5.15-.7a10.18,10.18,0,0,1,2.65,1.93,5.22,5.22,0,0,0,3.47,1.2c2.37-.11,4.24-1.92,5.85-3.47s3.23-3.44,5.46-3.46l-1.45-1.1a13.79,13.79,0,0,0,11.79,8.83,13.62,13.62,0,0,0,12.88-7.68l-2.79-.76c-.22,4.87,5.42,7.55,9.63,6.4,5.22-1.43,7.21-7.54,7.55-12.33.21-2.85,0-6-1.6-8.45a7.47,7.47,0,0,0-6.67-3.56,6.43,6.43,0,0,0-3.39,1.43c-1,.79-2,2-3.25,2.39-2.38.65-4.88-2.23-6.72-3.34a11.34,11.34,0,0,0-14.9,3.32l2.8.76c.07-4.54-3.95-8-8.21-8.57-5.12-.73-9.79,2.35-13.51,5.5l2.56,1.06c-.59-6.36-7-10.09-13-9.87-7.46.28-13.19,6.23-17.93,11.33l2.5.66c-.79-5-5.89-8.4-10.77-8.35-5.53.06-10.21,4.05-12.81,8.66l2.35-.3c-5.53-6.71-16-8.51-23.51-4.22-1.66.94-4.19,3.79-6.29,3-1.72-.62-2.33-3.37-3.25-4.76-2.49-3.75-7.16-5-11.45-4.42-5.83.84-10.27,5.25-14.21,9.26l2.51.66c-1.63-5.06-6.84-7.75-11.93-7.81-6.4-.08-11.92,4-16.78,7.69l2.21.9-2.25-8.05a1.51,1.51,0,0,0-1.84-1,15.6,15.6,0,0,0-10.92,13.73l2.8-.75-4.87-8.53c-1.14-2-2.3-5.38-4.81-6-2.67-.66-4.4,2-5.6,3.92l-5.25,8.5c-1,1.65,1.58,3.15,2.59,1.51Z"/><path class="cls-4" d="M950.72,784.48c9,3.35,18.8,1,27-3.29,8.6-4.46,15.64-11.27,23.2-17.2a70,70,0,0,1,12.35-8,46.77,46.77,0,0,1,13.23-4.06,47.85,47.85,0,0,1,27.14,3.77c8.7,4,16.84,11.19,18.57,21l1.44-1.9c-11.09-.63-22.67-1.26-33.25,2.78a35.54,35.54,0,0,0-12,7.34,33.14,33.14,0,0,0-7.56,11.82c-3.4,8.47-4.73,18.36-11.5,25-6.57,6.49-16.24,8.63-25.11,9.7a291.86,291.86,0,0,1-39.55,1.8,1.5,1.5,0,0,0,0,3,325.88,325.88,0,0,0,36.17-1.43c9-.87,18.64-2.36,26.35-7.51a28.09,28.09,0,0,0,9.08-9.9,74.3,74.3,0,0,0,5-13c1.44-4.48,2.93-9,5.51-13a27.81,27.81,0,0,1,10.43-9.21c11.13-5.9,24.17-5.15,36.35-4.45a1.52,1.52,0,0,0,1.45-1.9c-1.54-8.79-8-15.85-15.38-20.4a50.07,50.07,0,0,0-27.12-7.13,51.16,51.16,0,0,0-26.93,8.46c-8.32,5.43-15.32,12.59-23.53,18.17-8.8,6-20.13,10.48-30.67,6.55-1.81-.67-2.59,2.22-.8,2.89Z"/><path class="cls-4" d="M837.63,789.2A244.11,244.11,0,0,1,764,790.94c-2.63-.34-6.17-1-8.16,1.26-1.19,1.37-1,3.08-.67,4.73s.69,3.39,1.11,5.06a87.66,87.66,0,0,0,19.59,36.71,115,115,0,0,0,16.91,15.11c5.59,4.17,12,7.84,19.09,8.19,5.08.24,12.63-2.62,11.92-8.9a10.9,10.9,0,0,0-2.19-4.92c-1.16-1.69-2.34-3.37-3.51-5l-7.21-10.35-3.54-5.08-.9,2.2c11.58-1.65,26.22,4.11,35.36-6,1.29-1.43-.83-3.56-2.13-2.12-3.64,4-9.16,5.22-14.39,5.35-6.57.15-13.07-1.09-19.63-.15a1.5,1.5,0,0,0-.9,2.2L818,848.3c1.57,2.25,4.08,5.14,1.93,7.82a9,9,0,0,1-6.52,2.89c-6.61.29-12.76-3.19-18-6.91a111.12,111.12,0,0,1-16.1-14,84.36,84.36,0,0,1-19.29-33.52c-.43-1.46-.83-2.93-1.18-4.4a29.54,29.54,0,0,1-1-4.91c-.09-1.31.74-1.62,1.92-1.71a26.07,26.07,0,0,1,5.13.49q11.22,1.4,22.52,1.76a247.82,247.82,0,0,0,50.95-3.72c1.89-.34,1.09-3.23-.8-2.9Z"/><path class="cls-4" d="M849.91,804.09a303.93,303.93,0,0,0,1,37.69c.54,6.17,1.25,12.34,2.21,18.45a52.82,52.82,0,0,0,3.48,13c2,4.57,5.1,8.66,9.63,10.92,1.72.87,3.24-1.72,1.51-2.59-7.87-3.95-10.31-13.39-11.62-21.4a271.85,271.85,0,0,1-3.24-35.47q-.33-10.29,0-20.57c.07-1.93-2.93-1.93-3,0Z"/><path class="cls-4" d="M866.3,894.61a70.93,70.93,0,0,0-61.06,17.52,71.69,71.69,0,0,0-17.46,25.67,66.83,66.83,0,0,0-4.11,15.08c-.82,5.59-.77,11.31,2,16.38,4.9,9,15.46,13.16,20.37,22.17l1.29-2.25-74.53,5.37c-5.28.38-11.22.3-15.9,3.13a14.89,14.89,0,0,0-6.32,8.36c-2.18,6.83-.09,15.3,6.39,19,4.59,2.65,10.06,2.83,15.23,3.06l18.62.79,37.24,1.59c11.55.5,23.11,1.18,34.67,1.42,9.12.18,18.36-.12,27.32-2,8.39-1.78,16.58-5.17,23-11a41.69,41.69,0,0,0,4.38-4.82,5.5,5.5,0,0,1,2.55-2.18c1.43-.39,3.08.29,4.45.67l17.93,4.94,8.85,2.44a1.5,1.5,0,0,0,.8-2.89l-17.46-4.82-8.85-2.44c-2.46-.68-5.18-1.61-7.62-.36-2,1-3.17,3.13-4.6,4.74a35.51,35.51,0,0,1-4.64,4.37,40.94,40.94,0,0,1-10.79,6c-8.14,3.07-16.9,4.11-25.55,4.4-10,.34-20-.32-30-.75-24.09-1-48.19-1.92-72.27-3.09-4.5-.22-9.79-.58-13.36-3.7a12.69,12.69,0,0,1-4.06-8.78,14.58,14.58,0,0,1,2.48-9.34c2.57-3.65,6.94-4.76,11.17-5.18,5.91-.6,11.87-.89,17.8-1.32l17.88-1.29,36.28-2.61,8.94-.64a1.52,1.52,0,0,0,1.3-2.26c-4.25-7.81-12.44-12-18-18.7a19.28,19.28,0,0,1-4.42-13.42,54.8,54.8,0,0,1,3.08-15.38A67.27,67.27,0,0,1,865.5,897.5c1.89.36,2.7-2.53.8-2.89Z"/><path class="cls-4" d="M799.67,1039.06a417.93,417.93,0,0,1-49,14.11l1.84,1.85a18.52,18.52,0,0,1,3.7-8.34,1.52,1.52,0,0,0-1.06-2.56l-64.93,1.29-18.48.36.76,2.8,10.27-5.12a1.51,1.51,0,0,0-.36-2.74A391,391,0,0,1,616,1022q-9.27-3.53-18.33-7.51l-.36,2.74a397.78,397.78,0,0,1,52.58-5.35c.87,0,1.84-.95,1.45-1.89-4.57-11-11.77-20.6-19-30-7.1-9.24-14.55-18.55-19.22-29.32A48,48,0,0,1,609,932.31l-2.56,1.06a220.37,220.37,0,0,0,45.29,33.11q7,3.87,14.29,7.19a1.52,1.52,0,0,0,2.26-1.29L669.43,907l.32-18.46-2.56,1.06a423.44,423.44,0,0,0,43.66,47q6.69,6.2,13.64,12.09a1.52,1.52,0,0,0,2.56-1.06l5.2-52.94,1.49-15.17-2.79.76A203.8,203.8,0,0,0,766,921.12a1.51,1.51,0,0,0,2.5-.66,126.49,126.49,0,0,0,.86-49.72l-2.74,1.16,18.43,34.63c.91,1.71,3.5.19,2.59-1.51l-18.43-34.64c-.85-1.58-3-.43-2.74,1.16a122.76,122.76,0,0,1-.86,48.12l2.51-.66a201,201,0,0,1-34.61-40.15,1.52,1.52,0,0,0-2.8.75l-5.2,52.95-1.49,15.16,2.56-1.06A425.56,425.56,0,0,1,681,901.53q-6-6.88-11.65-14c-.85-1.07-2.54-.13-2.56,1.06l-1.15,65.35-.32,18.46,2.25-1.3a217.55,217.55,0,0,1-47.14-29.39q-6.1-5-11.83-10.44a1.52,1.52,0,0,0-2.56,1.06c.17,11.66,4.91,22.37,11.16,32,6.55,10.1,14.5,19.18,21.36,29.06a93.84,93.84,0,0,1,9.9,17.44l1.45-1.9a403.34,403.34,0,0,0-53.38,5.46,1.51,1.51,0,0,0-.36,2.74,392.51,392.51,0,0,0,66.15,22.36q9.59,2.31,19.29,4.13l-.36-2.74L670.93,1046a1.51,1.51,0,0,0,.76,2.79l64.93-1.28,18.48-.37-1.06-2.56a21.38,21.38,0,0,0-4.47,9.66,1.51,1.51,0,0,0,1.84,1.84,419.42,419.42,0,0,0,49.06-14.1c1.81-.65,1-3.54-.8-2.9Z"/><path class="cls-4" d="M1046.2,909.29c12.71,15.8,13.24,37.33,11.49,56.61-.45,5-1.07,10-1.78,15a80.77,80.77,0,0,1-2.8,13.15,28.89,28.89,0,0,1-5.94,11,17.62,17.62,0,0,1-4.84,3.69c-1.82.94-3.78,1.58-5.66,2.4-3.61,1.58-7.35,4.22-6.65,8.69.43,2.71,2.37,5,3.71,7.32a74.9,74.9,0,0,1,4,7.85,73.32,73.32,0,0,1,2.93,8.11,31.27,31.27,0,0,1,1.68,8.26c.07,4.62-3,7.4-7.27,8.26s-8.61,0-12.71-1.19a97.27,97.27,0,0,1-14.29-5.39c-9.23-4.25-17.95-9.49-26.89-14.3s-18.21-9.26-28.11-11.69c-4.64-1.14-9.37-1.67-14.07-2.46-4.43-.75-9-1.71-12.9-4a17.86,17.86,0,0,1-5-4.24c-1.22-1.5-3.33.64-2.12,2.12,6.21,7.64,16.72,8.61,25.78,10a97.93,97.93,0,0,1,29.2,9.87c9.43,4.76,18.45,10.28,27.88,15a126.91,126.91,0,0,0,14.21,6.19c4.51,1.61,9.23,3.09,14,3.34,4.09.21,8.56-.47,11.76-3.22,4.17-3.59,3.74-9.28,2.54-14.12a77.31,77.31,0,0,0-6.24-16.58c-1.33-2.59-3-5-4.37-7.54-1.09-2-1.21-3.9.5-5.48a17.28,17.28,0,0,1,5.36-2.85,32.19,32.19,0,0,0,5.9-2.8,24.2,24.2,0,0,0,8.16-9.71c4.17-8.52,5.12-18.32,6.23-27.62,2.36-19.83,3.28-41.94-7.33-59.74a54.3,54.3,0,0,0-4.29-6.13c-1.21-1.5-3.32.63-2.12,2.13Z"/><path class="cls-4" d="M1519.33,840.85c6.64-4.23,7.42-12.62,7-19.81-.61-10.56-2-21.12-3.09-31.64l-3.36-33.82c-1-10.1-2.3-20.26-2.13-30.43.18-10,2-19.86,7.24-28.47,4.67-7.72,11.37-14,18.47-19.48,7.45-5.72,15.41-10.81,23.37-15.78q12.39-7.73,25.24-14.65a432.58,432.58,0,0,1,109-41.32c37.59-8.56,76.47-11.65,114.89-8.12,5.12.47,10.52.71,15.43,2.37a22.23,22.23,0,0,1,9.67,6.77c5.21,6.08,7.79,14.11,9.71,21.74a262.6,262.6,0,0,1,7.85,64.37q0,8-.51,16l2.56-1.06c-7.94-10-21.77-12.66-33.82-10.59-7.57,1.3-14.73,4.29-21.58,7.67s-13.49,7-20.15,10.67c-25.93,14.19-51.44,29.94-72.71,50.68-10.26,10-19.75,21.2-26.33,34a85.36,85.36,0,0,0-7.36,20.36c-1.64,7.38-2.5,14.89-3.54,22.36a123.77,123.77,0,0,1-4.61,22,65.05,65.05,0,0,1-10.12,18.83c-8.58,11.28-19.94,20.11-31,28.86l-40,31.78c-6.38,5.06-12.7,10.21-19.16,15.17-5.8,4.44-11.9,8.73-18.68,11.53a41.87,41.87,0,0,1-10.52,2.87c-1.89.24-1.92,3.24,0,3,14.39-1.85,25.94-11,36.95-19.71l39.43-31.3c11.82-9.39,24.16-18.42,35-28.93,10-9.68,18.06-20.94,21.91-34.45,4.06-14.31,4.17-29.37,7.8-43.77s11.32-27,20.77-38.16c19.1-22.58,43.84-39.68,69.24-54.43,6.38-3.71,12.83-7.28,19.33-10.78,6.65-3.59,13.28-7.28,20.2-10.33,12.47-5.52,27.56-8.61,40-1.2a25,25,0,0,1,6.8,6c.88,1.1,2.49.1,2.56-1.06a270.1,270.1,0,0,0-4.07-65.72c-1.73-9.23-3.59-18.7-7.24-27.4-3-7.06-7.48-13.92-14.54-17.41-4.4-2.18-9.28-2.71-14.1-3.23s-9.75-.94-14.64-1.25q-14.8-.95-29.65-.63a376.75,376.75,0,0,0-58,5.82,426.22,426.22,0,0,0-112,37,460.11,460.11,0,0,0-51.52,29.42c-15,9.88-30.8,21.16-37.16,38.73-3.38,9.33-3.81,19.46-3.32,29.29.53,10.73,1.88,21.44,2.94,32.13q1.73,17.29,3.44,34.57l1.65,16.53c.41,4.16.81,8.41.15,12.57-.58,3.68-2,7.17-5.28,9.24-1.62,1-.12,3.63,1.52,2.59Z"/><path class="cls-4" d="M1449.89,793.34l-3.79,0a2.94,2.94,0,0,0-1.14.19,1.73,1.73,0,0,0-1.09,1.59,1.75,1.75,0,0,0,1.24,1.63,1.58,1.58,0,0,0,2-1.9,1.57,1.57,0,0,0-.69-.89,1.52,1.52,0,0,0-2,.54l0,0,.23-.3,0,0,.3-.23h0l.76-.21h0l.4.05-.07,0,.36.15,0,0,.31.23a.1.1,0,0,1-.06-.05l.23.3a.16.16,0,0,1,0-.07l.15.36v0l0,.4v0l0,.4v0l-.15.36,0,0-.23.31,0,0-.3.23.08-.05-.35.15.15-.05-.39.06a5.76,5.76,0,0,1,.93,0h1.1l2.16,0a1.5,1.5,0,0,0,0-3Z"/><path class="cls-4" d="M1456.18,802l-.23.12-.17.08-.12,0-.25.08a7.7,7.7,0,0,1-1.05.27c-.29.06.13,0,0,0l-.26,0-.51,0H1453l-.26,0-.19,0-.12,0-.25-.05-.57-.14-.49-.16-.24-.09c.29.1,0,0,0,0a7.51,7.51,0,0,1-1-.53l-.21-.15c-.11-.07-.11-.08,0,0l-.49-.43a1.5,1.5,0,0,0-2.12,2.12,9.34,9.34,0,0,0,10.68,1.44,1.5,1.5,0,0,0,.54-2.05,1.52,1.52,0,0,0-2-.54Z"/><path class="cls-4" d="M1393.34,807.37a45.3,45.3,0,0,0-14.72,4.45,1.51,1.51,0,0,0,0,2.59,111.41,111.41,0,0,0,11.9,5l-.36-2.75-5.24,4c-.92.72-1,2.43.36,2.74l13.37,3-.66-2.5-3,2.44a9.83,9.83,0,0,0-2.19,2c-1,1.74.37,3.35,2.05,3.79a15.18,15.18,0,0,0,2.94.28l3.86.25,7.23.39-1.5-1.5a12.23,12.23,0,0,1-.94,3.57,1.52,1.52,0,0,0,1,1.85c1.86.48,3.55,0,5.41-.14.8-.06,3.06.21,2.62,1.48s1.12,2.24,2.21,1.7a69.24,69.24,0,0,0,8.91-5.33c1.56-1.1.07-3.7-1.52-2.59a67.91,67.91,0,0,1-8.91,5.33l2.21,1.69c.72-2.12-.79-4-2.68-4.83-2.49-1.07-5,.44-7.45-.2l1.05,1.84a15.24,15.24,0,0,0,1-4.37,1.53,1.53,0,0,0-1.5-1.5c-3.46-.17-6.91-.37-10.37-.59-.79,0-1.61-.06-2.4-.16a6.37,6.37,0,0,0-.78-.16c-.15.73-.09.94.18.64l.5-.43,4-3.36a1.51,1.51,0,0,0-.67-2.51l-13.36-3,.36,2.74,5.24-4a1.53,1.53,0,0,0-.36-2.74,103,103,0,0,1-11.19-4.65v2.59a40.91,40.91,0,0,1,13.21-4c1.9-.23,1.92-3.24,0-3Z"/><path class="cls-4" d="M1409.54,756.28a116.34,116.34,0,0,1-3.07-45c.24-1.91-2.76-1.89-3,0a118.51,118.51,0,0,0,3.18,45.76,1.5,1.5,0,0,0,2.89-.8Z"/><path class="cls-4" d="M1435.75,751.46a254.13,254.13,0,0,1,17.72-34.36c1-1.65-1.58-3.16-2.59-1.52a259.71,259.71,0,0,0-18,35.08,1.51,1.51,0,0,0,1,1.85,1.54,1.54,0,0,0,1.85-1Z"/><path class="cls-4" d="M1455.69,760c.69-1,2-1.41,3.09-1.86l4.58-2,9.41-4,18.57-8c1.77-.76.24-3.34-1.51-2.59l-19.5,8.38L1460.7,754c-2.62,1.13-5.88,2-7.6,4.41-1.11,1.59,1.49,3.09,2.59,1.52Z"/><path class="cls-4" d="M1386.75,737.74a287,287,0,0,1-11.89-54.35c-.23-1.9-3.23-1.92-3,0a292.19,292.19,0,0,0,12,55.15c.59,1.83,3.49,1,2.9-.8Z"/><path class="cls-4" d="M1420.7,804.42l12.63-1.34-1.29-2.25c-1.06,1.64-3.74,4.64-1,6.11a15.53,15.53,0,0,0,3.63,1l4.29,1.09-.35-2.74c-1.16.55-2.29,1.15-3.39,1.79a1.51,1.51,0,0,0,0,2.59l5.33,2.49v-2.59l-3.8,2a1.51,1.51,0,0,0-.3,2.36c1.62,1.45,4.15,1.47,6.21,1.74,1.25.17,2.5.31,3.76.41.63.06,1.25.1,1.88.14a6.14,6.14,0,0,0,1.65.08c.7.1.55-.35-.46-1.33l-.75.54-1.5,1.07c-1,.71-2,1.4-3.07,2.06-2.07,1.34-4.19,2.6-6.34,3.8-1.69.94-.18,3.53,1.51,2.59,2.49-1.38,4.93-2.85,7.31-4.43,1.15-.76,2.29-1.55,3.42-2.36,1-.7,2.32-1.39,2.46-2.71.31-2.81-3.94-2.27-5.64-2.41-1.52-.12-3-.28-4.53-.49-1-.15-3-.11-3.79-.82l-.31,2.35,3.81-2a1.51,1.51,0,0,0,0-2.59l-5.34-2.49v2.59c1.11-.64,2.24-1.24,3.39-1.79a1.51,1.51,0,0,0-.36-2.74l-5.48-1.39a4.65,4.65,0,0,0-1.19-.31c-.51-.27-.63-.17-.35.3,0,.54.18.55.38,0a11.8,11.8,0,0,0,1.56-2.42,1.51,1.51,0,0,0-1.3-2.26l-12.63,1.34c-1.9.2-1.92,3.2,0,3Z"/><path class="cls-4" d="M1489.63,842.38a45.51,45.51,0,0,1-24.19,15,42.27,42.27,0,0,1-7.17,1.11c-2,.14-4.68-.32-6.43,1-2.06,1.54-1.42,4.26-.87,6.39.65,2.49,1.57,4.89,2.46,7.29,1.83,4.91,4.12,10.66,1.79,15.8a1.52,1.52,0,0,0,1.7,2.2,12.42,12.42,0,0,0,9.2-10.87c.23-2.71-1.21-6,1.64-7.75a20.17,20.17,0,0,1,8.7-2.41,25.37,25.37,0,0,1,9.24,1.18c3,.94,6,2.19,9.12,2.72a19.66,19.66,0,0,0,15.52-3.57c4.58-3.64,6.9-10.08,5.06-15.72-.6-1.83-3.5-1.05-2.9.8a11.81,11.81,0,0,1-4.29,12.8c-4.33,3.3-10.11,3.61-15.2,2.2-2.93-.81-5.74-2-8.71-2.73a26.06,26.06,0,0,0-8.71-.6c-4.86.5-12.27,2.11-12.62,8.08-.09,1.5.23,3,.18,4.47a8.58,8.58,0,0,1-1,3.64,9.38,9.38,0,0,1-6.06,4.87l1.69,2.2c2-4.49,1.47-9.22,0-13.81-.75-2.38-1.68-4.7-2.53-7-.4-1.11-.78-2.22-1.11-3.35a11.85,11.85,0,0,1-.8-3.69c.06-1.12,1.26-1,2.12-1,1.31,0,2.62-.07,3.93-.19a49.85,49.85,0,0,0,7-1.17,48.68,48.68,0,0,0,13.07-5.34,47.36,47.36,0,0,0,12.25-10.35c1.23-1.47-.88-3.61-2.12-2.13Z"/><path class="cls-4" d="M265,667.38a91.58,91.58,0,0,0-34.09,39.88,94.55,94.55,0,0,0-7.63,52,78.85,78.85,0,0,0,9.09,27.27,58.12,58.12,0,0,0,21.49,21.7,160.15,160.15,0,0,0,14.8,7.47c5.16,2.36,10.38,4.59,15.68,6.62a185.4,185.4,0,0,0,33.16,9.55c21.39,3.89,44.09,3.17,64.45-5a91.3,91.3,0,0,0,56.66-93,95.81,95.81,0,0,0-7.85-30.2c-4.07-9.15-9.6-18.6-17.77-24.67-4.35-3.24-9.51-5-14.62-6.68-5.7-1.83-11.42-3.62-17.17-5.28a218.09,218.09,0,0,0-35-7.39,274.44,274.44,0,0,0-35.92-1.5c-6.09.08-12.18.29-18.27.52a142.43,142.43,0,0,0-16.12,1.07,28.52,28.52,0,0,0-13.2,5.11c-1.51,1.15,0,3.76,1.52,2.59,8.09-6.16,19.39-5.46,29-5.82,11.76-.44,23.53-.75,35.3-.3a198.07,198.07,0,0,1,34.66,4.19c11.29,2.46,22.33,5.86,33.33,9.36,5,1.6,10.12,3.25,14.47,6.35a41.57,41.57,0,0,1,10.2,11.15,89,89,0,0,1-27.76,125.47c-17.88,10.8-39.24,14.4-59.88,13-22.13-1.47-43.53-8.68-63.56-17.86-9.54-4.38-19.3-9-26.67-16.68-6.75-7-11.34-15.86-14.22-25.09-5.18-16.6-4.79-34.55.2-51.14a92,92,0,0,1,27.25-42.72,81.33,81.33,0,0,1,10-7.44c1.63-1,.13-3.63-1.51-2.59Z"/></svg>