<svg id="Layer_1" data-name="Layer 1" xmlns="http://www.w3.org/2000/svg" viewBox="0 0 1920 1080"><defs><style>.cls-1{fill:#ffff1a;}.cls-1,.cls-2,.cls-3{opacity:0.5;}.cls-2{fill:#e03838;}.cls-3{fill:#c335e5;}.cls-4{fill:#4d4d4d;}</style></defs><path class="cls-1" d="M1656.84,418c60.69,58.58,267.53,288.17,169,391.49S1671.75,992.58,1531.7,951.62s-268.15-96-317.84-231.28-66.55-206.24-27.34-259.21,156.69-203.06,253.55-157.36S1656.84,418,1656.84,418Z"/><path class="cls-2" d="M581.76,434.62c18.23,36.21,73,185.72-5,299.81S449.37,931.65,384.28,930.18,264,912,270.35,806.31,285.05,642.87,319,587.14s133.63-215.21,174.41-199S581.76,434.62,581.76,434.62Z"/><path class="cls-3" d="M956.41,901.56c-14.42-2.93-64.73-5.23-87.07-11.09s-149.38-3-140.87-53.29,54.12-323.36,71.71-319.34,227.69,55.52,221,100.4-24,155-37.35,205.62S962.3,902.76,956.41,901.56Z"/><path class="cls-4" d="M681.5,655.82c-9.32,9.06-22.39,12.37-33.46,18.63a52.83,52.83,0,0,0-8.89,6.24c-1.46,1.27.67,3.39,2.12,2.12,9.76-8.57,22.81-11.71,33.76-18.33a47.42,47.42,0,0,0,8.59-6.54c1.39-1.35-.74-3.47-2.12-2.12Z"/><path class="cls-4" d="M681,653.37c-16.41-.66-32.82-1.43-49.19-2.68q-7-.54-14-1.19l1.44,1.1c-1.14-8.49-6.17-16.35-12.51-22a1.51,1.51,0,0,0-2.51.66c-.39,1.89-.19,6.21,2.94,5.31a2.36,2.36,0,0,0,1.61-2.38,5.43,5.43,0,0,0-2-3.59,1.51,1.51,0,0,0-2.51.66q-1.81,8-3.64,16c-.7,3.09-.88,6.87-2.91,9.45-1.75,2.24-4.91,2.41-7.3,1.19-2.67-1.35-4.76-3.61-6.92-5.62-2.38-2.21-5-4.55-8.35-5.13a1.53,1.53,0,0,0-1.85,1.84,176.76,176.76,0,0,1,2.61,33.2,1.5,1.5,0,0,0,3,0,182,182,0,0,0-2.71-34l-1.85,1.85c3,.53,5.3,2.74,7.44,4.75,2.31,2.16,4.64,4.59,7.57,5.92a9,9,0,0,0,9.36-.79c2.93-2.29,3.67-6.25,4.35-9.7,1.19-6.1,2.72-12.14,4.09-18.19l-2.51.66a6.43,6.43,0,0,1,1.13,1.4c.14.22-.07.17.05.06s.19-.34.44-.45.44,0,.69,0,.08.25.15.11-.09-.59-.09-.67a4.63,4.63,0,0,1,.14-1.11l-2.51.66c6,5.31,10.67,12.58,11.75,20.63.09.68.85,1,1.45,1.1,16.29,1.53,32.62,2.51,49,3.27l14.22.6c1.93.08,1.93-2.92,0-3Z"/><path class="cls-4" d="M639.87,686.55l-10.53,56.14c-1.71,9.14-3.49,18.34-3.76,27.66a89.64,89.64,0,0,0,3.32,26.21,115.06,115.06,0,0,0,5,14.11c.81,1.92,1.56,3.83,3.24,5.16,1.52,1.18,3.34,1.41,4.82.08s-.68-3.41-2.12-2.12c-.72.65-2.26-2.12-2.45-2.54-.87-1.92-1.65-3.87-2.39-5.84a107.31,107.31,0,0,1-3.68-11.66,85.05,85.05,0,0,1-2.65-24.61c.38-8.82,2.08-17.49,3.7-26.14l4.91-26.12,5.54-29.54c.35-1.88-2.54-2.69-2.9-.79Z"/><path class="cls-4" d="M676.85,658.17a3.72,3.72,0,0,0,.31-2.9,3.66,3.66,0,0,0-1.84-2.23A1.54,1.54,0,0,0,674,653a1.45,1.45,0,0,0-.87,1,11.28,11.28,0,0,0-.21,2.53,5.42,5.42,0,0,0,.25,1.37,4.52,4.52,0,0,0,.84,1.46,3.22,3.22,0,0,0,2.25,1,3.64,3.64,0,0,0,1.09-.1,2.85,2.85,0,0,0,1-.4,2.79,2.79,0,0,0,1-1,2.4,2.4,0,0,0,.27-.86,2.66,2.66,0,0,0,0-.93,1.5,1.5,0,0,0-2.74-.36l-.15.36a1.51,1.51,0,0,0,0,.79v0l0-.4a1.5,1.5,0,0,1,0,.3l0-.39a1,1,0,0,1-.06.23l.15-.36a1.88,1.88,0,0,1-.14.24l.23-.31a1.25,1.25,0,0,1-.23.23l.3-.24a1.75,1.75,0,0,1-.35.2l.35-.15a2.39,2.39,0,0,1-.54.15l.4-.06a1.82,1.82,0,0,1-.57,0l.4.06a2.13,2.13,0,0,1-.51-.14l.36.15a1.48,1.48,0,0,1-.35-.19l.3.23a2.5,2.5,0,0,1-.32-.33l.24.3a2.33,2.33,0,0,1-.32-.55l.15.36a3.52,3.52,0,0,1-.24-.9l0,.4a6.93,6.93,0,0,1,.05-1.76l-.05.4q0-.3.09-.6l-2.21.9a1.9,1.9,0,0,1,.39.23l-.31-.24a2.06,2.06,0,0,1,.39.39l-.24-.31a2.11,2.11,0,0,1,.31.52l-.16-.36a2.21,2.21,0,0,1,.18.62l-.06-.4a2,2,0,0,1,0,.59l.06-.4a2.21,2.21,0,0,1-.14.52l.15-.35-.11.22a1.51,1.51,0,0,0,.53,2.05,1.53,1.53,0,0,0,2.06-.54Z"/><path class="cls-4" d="M618.13,693.49c-7.65,2.38-15.5,4.92-21.85,10-6.72,5.37-9.91,13.36-11.67,21.56a136.11,136.11,0,0,0,.52,58c2.36,10.61,5.61,21.26,4.51,32.25-.2,1.92,2.8,1.91,3,0,.94-9.37-1.23-18.64-3.38-27.71a154.08,154.08,0,0,1-4.35-28,132.35,132.35,0,0,1,1.63-28.6c1.36-8.09,3.27-16.78,9.16-22.88,6.14-6.38,15-9.12,23.23-11.67,1.84-.57,1.05-3.47-.8-2.9Z"/><path class="cls-4" d="M562.53,809.18c10.59,6.72,21.78,13.81,28.16,25A31.32,31.32,0,0,1,595,850.93c-.11,3,.38,5.51,3.26,7a20.91,20.91,0,0,1,6.63,4.9,17.3,17.3,0,0,1,3.81,7.31c.27,1.16.35,2.47-.7,3.27a6.53,6.53,0,0,1-3.6.93c-3.26.12-6.57-.21-9.83-.34L584,873.49q-10.89-.48-21.77-1l-5.19-.27c-1.44-.08-3-.09-3.82-1.43a16.49,16.49,0,0,1-1.47-4c-.56-1.81-1.09-3.64-1.59-5.47a154.1,154.1,0,0,1-5.19-46.09c.08-1.93-2.92-1.92-3,0a156.9,156.9,0,0,0,4.58,44.13c.89,3.53,1.88,7,3,10.49a8.26,8.26,0,0,0,2.27,4,7.3,7.3,0,0,0,4.2,1.4c7.63.63,15.35.79,23,1.15s15.17.68,22.76,1c2.67.11,5.74.21,8-1.47,2.62-1.94,2.35-5.2,1.4-8a21.53,21.53,0,0,0-4.52-7.56,26.37,26.37,0,0,0-7.19-5.11c-1.41-.76-1.5-2-1.47-3.43a42.89,42.89,0,0,0,0-4.81,33.11,33.11,0,0,0-2.35-9.44c-5.83-14.26-19.06-22.93-31.56-30.86-1.64-1-3.14,1.56-1.51,2.59Z"/><path class="cls-4" d="M635.19,817.54a29.57,29.57,0,0,1-16.13,20.06c-3.12,1.48-6.52,2.27-9.6,3.85-1.72.88-.2,3.47,1.52,2.59,3.24-1.66,6.83-2.47,10.1-4.1a32.08,32.08,0,0,0,7.73-5.45,32.43,32.43,0,0,0,9.28-16.16c.43-1.88-2.47-2.68-2.9-.79Z"/><path class="cls-4" d="M636.4,799.38,651.89,810c2.44,1.68,4.92,3.32,7.32,5.06a23.33,23.33,0,0,1,5.8,5.54c2.84,4.17,3.29,9.3,2.92,14.21a77.94,77.94,0,0,1-2.7,14.51c-1.31,4.77-3.34,9.73-7.82,12.33a1.53,1.53,0,0,0-.69,1.69c.74,2.74,3.5,2.48,5.6,3.45,1.45.67.22,2-.84,2.38a19.8,19.8,0,0,1-5.7.57,91,91,0,0,1-23.95-2.29,93.92,93.92,0,0,1-13.11-4.1c-1.79-.71-2.57,2.19-.79,2.89a94.24,94.24,0,0,0,26.17,6.19,92,92,0,0,0,13.28.24c2-.11,4.36-.1,6.19-1.15a4.63,4.63,0,0,0,2.42-4.34,4.16,4.16,0,0,0-3.17-3.39c-.74-.26-3-.36-3.21-1.24l-.69,1.69c4.29-2.49,6.78-6.79,8.35-11.35a77.88,77.88,0,0,0,3.39-15.46c.68-5.32.6-10.85-1.64-15.8-2.44-5.38-7.46-8.62-12.15-11.84l-19-13c-1.6-1.1-3.1,1.5-1.52,2.59Z"/><path class="cls-4" d="M866.24,507.83c-3.62,4.4-10,8.27-16,6.89-3.12-.74-4.8-3.21-5.85-6.08a69.62,69.62,0,0,1-2.83-9.71c-1.13-5.53-.69-12.55,4.5-16,5.59-3.73,12.49.83,17,4.23a47.74,47.74,0,0,1,13.39,15.6c.92,1.7,3.51.19,2.59-1.51a50.86,50.86,0,0,0-13.67-16.08c-5.41-4.18-13.1-9-20-5.35-6.26,3.27-8,11-7.17,17.45a59.35,59.35,0,0,0,3,11.62c1.11,3.22,2.77,6.44,6,8,7.25,3.42,16.35-1.23,21-6.9,1.21-1.48-.9-3.62-2.12-2.12Z"/><path class="cls-4" d="M1011.68,443.74c-10.95-9.13-25.76-11.87-39.58-9.31-14.19,2.63-26.56,11.2-35.55,22.29a91.28,91.28,0,0,0-16.21,81.72,73.8,73.8,0,0,0,24.12,36,113.37,113.37,0,0,0,19.47,12.65,151.59,151.59,0,0,0,22.1,9.76A35.77,35.77,0,0,0,998.61,599a26.1,26.1,0,0,0,11.83-3.57c6.85-3.85,13.07-9.21,18.71-14.64a173.9,173.9,0,0,0,29.17-38c7.84-13.48,13.66-29.58,8.74-45.14-2.44-7.71-7.51-13.53-13.81-18.42-7.06-5.46-14.45-10.52-21.69-15.75l-11-8c-1.57-1.13-3.07,1.47-1.51,2.59l21.67,15.65c6.44,4.65,13.65,9,18.61,15.35,9.53,12.11,7.42,29.08,1.56,42.27a137.87,137.87,0,0,1-11.73,20.42,178.64,178.64,0,0,1-13.92,18.25A131.74,131.74,0,0,1,1019,585.77c-6,4.83-12.79,10.05-20.81,10.21s-15.89-3.57-23.1-6.82a151.12,151.12,0,0,1-19.89-10.62c-12.15-7.86-22.3-18.25-28.39-31.49-5.74-12.47-7.75-26.5-6.72-40.14a89.14,89.14,0,0,1,12.43-39.2c7-11.64,17.12-21.89,29.79-27.23,12.21-5.15,26.93-5.6,39,.13a38.84,38.84,0,0,1,8.27,5.25c1.47,1.23,3.6-.88,2.12-2.12Z"/><path class="cls-4" d="M886.09,541.89a111.16,111.16,0,0,0,23-35.67,114.53,114.53,0,0,0,8.31-41.68,108.59,108.59,0,0,0-1.93-21.44c-1.47-7.68-3.67-15.4-9.2-21.19a50.84,50.84,0,0,0-9.08-7.19,72.46,72.46,0,0,0-10.46-5.86c-7.2-3.18-14.9-4.35-22.57-2.23-7.37,2-13.87,6.41-19.63,11.31a125.73,125.73,0,0,0-16.3,17A219,219,0,0,0,803,475.41c-6.82,13.84-11.7,28.72-10.47,44.32a73.61,73.61,0,0,0,13.76,37.21,70.25,70.25,0,0,0,13.86,14.38c5.86,4.53,12.59,8.39,19.87,10a29.25,29.25,0,0,0,11.71.39,33.28,33.28,0,0,0,10.92-4.37,75.77,75.77,0,0,0,17.76-14.75,80.61,80.61,0,0,0,6.9-8.94c1.07-1.61-1.52-3.12-2.59-1.52A76.25,76.25,0,0,1,870,568.54c-5.62,4.65-12.31,9.36-19.69,10.43-7.71,1.13-15.47-1.85-22-5.72a64.44,64.44,0,0,1-14.72-12.06,70.89,70.89,0,0,1-17-33.75,65.82,65.82,0,0,1-1-19.15,79.83,79.83,0,0,1,5.75-22,186.56,186.56,0,0,1,10.5-21.21c3.68-6.59,7.61-13,11.93-19.24a147.86,147.86,0,0,1,14.36-17.7c5.11-5.34,10.67-10.45,17-14.28s13.37-6.14,20.71-5.17c7.57,1,14.45,5,20.7,9.19a42.15,42.15,0,0,1,8.58,7.23,28.25,28.25,0,0,1,5.29,10A89.29,89.29,0,0,1,914.16,456a111.1,111.1,0,0,1-4.71,40.27,109.28,109.28,0,0,1-18.81,35.92q-3.15,3.94-6.67,7.58c-1.34,1.39.78,3.51,2.12,2.12Z"/><path class="cls-4" d="M966.41,521.38a23.43,23.43,0,0,1-12-7c-.83-.9-1.4-1.64-1.05-2.92a20.42,20.42,0,0,1,1.33-3.22,16.94,16.94,0,0,1,3.42-5.21c3.51-3.36,9.32-2,13.48-.74a31.35,31.35,0,0,1,6.56,2.86,21.36,21.36,0,0,1,5.71,4.41c2.1,2.53.63,5.15-.83,7.6a38,38,0,0,1-5.32,6.92c-1.34,1.39.78,3.51,2.12,2.12a41.83,41.83,0,0,0,5.79-7.52c1.5-2.51,3.06-5.45,2.05-8.44-.91-2.67-3.32-4.52-5.53-6.09a34.66,34.66,0,0,0-8-4.15,33.93,33.93,0,0,0-8.78-1.95,12,12,0,0,0-8,1.74,15.92,15.92,0,0,0-4.77,5.95c-1.15,2.26-3,5.36-2.15,8a9.85,9.85,0,0,0,2.69,3.67,27.56,27.56,0,0,0,3.7,3,26.4,26.4,0,0,0,8.76,3.84c1.88.44,2.68-2.45.8-2.9Z"/><path class="cls-4" d="M687.4,915.45a406.88,406.88,0,0,1-1.46-70c.67-11.3-.24-22.79-.43-34.1s-.37-22.77.76-34.06c2.31-23,2.7-46.06,3.59-69.1.43-11.26,1.32-22.42,2.39-33.63,1.08-11.44,1.62-23.1,3.57-34.43,7.42-43.25,28.8-82.56,45.78-122.54,4.19-9.88,8.17-19.86,11.66-30,3.28-9.52,6-19.17,10-28.43,7.26-16.73,17.17-32.49,30.43-45.12A106.6,106.6,0,0,1,804.55,405q2.64-1.92,5.4-3.66a24.12,24.12,0,0,1,7.73-3.12q17-4.12,34.23-6.86a561.74,561.74,0,0,1,69.73-6.42c23-.78,46.06-.46,69.08.36,20.78.75,41.78.52,61.14,9.23,17.92,8.07,31.41,22.41,39.24,40.35,7.34,16.82,9.71,35.34,11.91,53.41,1.27,10.47,2.72,20.91,3.43,31.43a300.87,300.87,0,0,1,.35,33.17c-1,22.74-4.51,45.28-9.1,67.55s-10.38,44.2-16.94,66c-6.35,21.1-13.08,42.1-18.46,63.47-2.67,10.59-5,21.26-6.8,32-1.91,11.39-3.07,22.89-4.39,34.35-2.76,23.72-5.24,47.47-6.69,71.31-.34,5.6-.41,11.24-.84,16.84s-3,10.8-4.82,16c-.62,1.83,2.27,2.62,2.89.8,1.73-5.08,4.09-10.05,4.79-15.41.75-5.82.6-11.86,1-17.72.73-12.08,1.72-24.14,2.88-36.18,1.18-12.26,2.54-24.49,4-36.72,1.4-12,2.64-24,4.76-35.94,7.93-44.54,24.56-86.86,35.45-130.66,11-44.33,18.66-90.29,14.44-136.05-.93-10-2.31-20-3.57-30-1.15-9.07-2.45-18.13-4.49-27.05-4.06-17.78-11.43-34.79-24.43-47.88-13.87-13.95-33-21.21-52.23-23.62-10.7-1.35-21.63-1.26-32.39-1.66-11.78-.43-23.57-.73-35.36-.82-47-.36-94.26,2.73-140,13.93a21.63,21.63,0,0,0-6.55,2.43q-3.14,1.92-6.12,4.06a109.19,109.19,0,0,0-10.35,8.35,123.14,123.14,0,0,0-17.66,20.27A151.31,151.31,0,0,0,762,454.64c-4.07,8.94-7,18.15-10.08,27.46-13.83,42.17-36.08,81-50.2,123.06a233.94,233.94,0,0,0-8.39,31.74c-2.08,11.26-2.69,22.79-3.78,34.18s-2.16,23-2.62,34.56c-.47,11.72-.8,23.44-1.29,35.15s-1.12,23.36-2.25,35a310.73,310.73,0,0,0-.92,35.06c.19,11.49,1.12,23.15.44,34.62-.69,11.76-1,23.54-.8,35.32q.32,17.37,2.26,34.66c.22,1.9,3.22,1.92,3,0Z"/><path class="cls-4" d="M699.44,914.76l6.13-9.9c.91-1.48,4-8.27,6.49-6.62,1.2.8,2,2.89,2.64,4.09l2.85,5,6,10.56a1.51,1.51,0,0,0,2.79-.76,19.38,19.38,0,0,1,13.52-16.86l-1.84-1,3.34,12a1.51,1.51,0,0,0,2.21.89c6.32-4.8,13.49-10.46,21.76-10.93,6.24-.35,13.49,2.49,15.52,8.88a1.5,1.5,0,0,0,2.5.66c5-5.08,10.47-10.79,17.66-12.49,6-1.41,12.55.35,15.57,6,1.31,2.46,2.4,5.3,4.94,6.76,3,1.71,6.21.53,8.85-1.18s5.21-3.75,8.38-4.82a24.71,24.71,0,0,1,9-1.27,24.34,24.34,0,0,1,17.85,8.64,1.52,1.52,0,0,0,2.36-.3c3.15-5.61,8.71-10.77,15.46-11,5.89-.24,11.92,3.67,12.85,9.69a1.51,1.51,0,0,0,2.51.67c6.11-6.57,13.46-14.71,23-15.72,6.92-.73,16,3.08,16.74,10.89A1.52,1.52,0,0,0,941,907.6c4.47-3.78,10.09-7.69,16.24-7.23,4.78.35,9.84,4,9.74,9.17a1.51,1.51,0,0,0,2.8.75A13.1,13.1,0,0,1,986,906.21c2.93,1.52,5.27,4,8.33,5.31a8.07,8.07,0,0,0,8.42-1.07c2.43-1.85,4.47-4.65,7.9-3.86s5.59,4,6.3,7.44c1.31,6.16,0,14.86-4.76,19.33a8.26,8.26,0,0,1-8.25,1.92c-2.68-.79-5-2.83-4.85-5.8.07-1.44-2.16-2.11-2.79-.76a16.18,16.18,0,0,1-29.94-.83,1.57,1.57,0,0,0-1.45-1.1c-6.5,0-9.67,6.52-14.67,9.52a4.46,4.46,0,0,1-3.22.75c-1.88-.39-3.13-2.24-4.65-3.27a10.51,10.51,0,0,0-7.81-1.44c-6.11,1-11.15,5.21-16.91,7.24-2.37.84-5.06,1.41-7.43.26-3.16-1.53-4.76-5.12-7.55-7.14a5.77,5.77,0,0,0-5-1.07c-2.28.65-3.41,2.85-5.5,3.75a6.49,6.49,0,0,1-8.62-4.74,1.5,1.5,0,0,0-2.2-.9,35.92,35.92,0,0,1-27.63,5.18,34.78,34.78,0,0,1-13-5.83c-2-1.41-4-2.84-6.51-2.67a7.57,7.57,0,0,0-4.74,2.36c-2.87,2.78-4.6,7-9,7.59-3.92.58-8-1.51-10.71-4.17a17.36,17.36,0,0,1-3.56-5.21c-.86-1.84-1.9-3.78-3.86-4.61-3.88-1.66-6.43,2-8.25,4.78-1.19,1.86-2.38,3.79-4.67,4.36a8.78,8.78,0,0,1-6.72-1.44c-4.84-3.16-5.69-10-6.39-15.21a1.52,1.52,0,0,0-2.8-.76c-3.11,4.93-6.4,10.28-11.56,13.32-4.88,2.87-10.67,3.1-15.1-.67-3.31-2.82-6-6.83-10-8.61-4.47-2-8.32.55-10.88,4.2-1.35,1.93-2.51,4.63-5,5.34-.93.27-4.27.53-4-1.23.23-1.54-1.92-2.81-2.75-1.16-2,4-7.18,6.12-11.32,4.16a8.84,8.84,0,0,1-3.95-11.4c.83-1.73-1.75-3.26-2.59-1.51-2.61,5.45-.55,12.74,5,15.5a11.86,11.86,0,0,0,15.43-5.23l-2.74-1.16c-.76,4.93,5.08,6.1,8.68,4.56,4.49-1.91,5.48-9.83,10.88-9.8,2.2,0,4.07,1.68,5.59,3.1,1.92,1.8,3.64,3.8,5.66,5.49,4.71,3.94,10.58,4.56,16.22,2.18,6.91-2.91,11.15-9.46,15-15.56l-2.79-.76c.68,5.1,1.43,10.49,4.6,14.73a12.39,12.39,0,0,0,11.51,5c4.72-.76,6.11-4.83,8.78-8.12,1.26-1.56,2.84-2.08,4.19-.23s1.88,3.95,3.2,5.73c4.8,6.51,15.08,10.76,21.58,4.11,2.83-2.89,5.3-8.68,10.1-5.71,2.12,1.31,4,2.87,6.23,4a37.19,37.19,0,0,0,7.1,2.84,39,39,0,0,0,32.28-4.89l-2.2-.9a9.55,9.55,0,0,0,12.15,6.92c2-.7,3.08-2.3,4.77-3.4,3.28-2.12,6.36,3.47,8.28,5.36a10.38,10.38,0,0,0,8,3.16c6.39-.38,11.78-4.76,17.55-7.07,2.46-1,5.34-1.83,7.94-.85,1.76.66,2.92,2.15,4.4,3.22a6.83,6.83,0,0,0,4.4,1.34c3.34-.23,6-2.85,8.23-5s5.06-5.28,8.56-5.3l-1.44-1.1a19.16,19.16,0,0,0,35.42,1.55l-2.8-.76c-.32,6.69,7.42,10.28,13.18,8.88,7.54-1.83,10.42-10.76,11-17.56.32-4.22,0-8.95-2.41-12.57-2.08-3.06-5.79-5.23-9.57-4.7a9.6,9.6,0,0,0-4.77,2.38c-1.41,1.15-2.72,2.73-4.54,3.24-3.74,1-7.39-3-10.24-4.84a16.12,16.12,0,0,0-21.52,4.47l2.79.76c.12-6.34-5.54-11.13-11.47-12-7.43-1.12-14.24,3.4-19.63,8l2.56,1.06c-.62-6.89-6.24-11.66-12.68-13.31-7.77-2-15.25,1-21.4,5.76a89.68,89.68,0,0,0-10.74,10.25l2.51.67c-1.11-7.15-8.37-12-15.32-11.91-8,.08-14.74,5.88-18.48,12.54l2.35-.3c-8.07-9.83-23.43-12.45-34.39-6-2.66,1.57-6.26,5.63-9.68,4.47-2.87-1-3.79-5.15-5.29-7.43C814.8,895.89,808,894.12,802,895c-8.48,1.25-15,7.74-20.69,13.58l2.51.67c-2.3-7.26-9.88-11-17.13-11.12-9.37-.08-17.46,6-24.56,11.37l2.21.9-3.35-12a1.52,1.52,0,0,0-1.85-1,22.48,22.48,0,0,0-15.72,19.75l2.8-.76L719,903.87c-1.15-2-2.21-4.11-3.47-6A5.68,5.68,0,0,0,712,895c-3.67-.7-5.93,3.32-7.53,5.9l-7.62,12.32c-1,1.64,1.58,3.15,2.59,1.51Z"/><path class="cls-4" d="M829.4,406.56c-22.22,14.08-39.64,35-50.43,58.95s-15.16,50.9-11.4,77a116.65,116.65,0,0,0,13.36,40.36,82.07,82.07,0,0,0,31.72,32.21,239,239,0,0,0,22.2,11.21c7.67,3.51,15.44,6.81,23.31,9.84A276,276,0,0,0,907,650.23c31.9,5.88,65.76,4.83,96.13-7.35a135.31,135.31,0,0,0,83.86-138.1,141.57,141.57,0,0,0-11.53-44.27c-6-13.57-14.2-27.69-26.34-36.65-6.48-4.79-14.12-7.45-21.72-9.88-8.52-2.72-17.06-5.4-25.66-7.88a323.44,323.44,0,0,0-52-10.93A411.62,411.62,0,0,0,896,393c-8.88.13-17.76.43-26.64.76-8,.3-16,.37-24,1.58-7,1.05-13.84,3.21-19.5,7.53-1.51,1.16,0,3.77,1.52,2.59,5.9-4.51,13.09-6.54,20.37-7.45,7.73-1,15.59-1,23.37-1.32,17.54-.65,35.11-1.11,52.66-.43a296.94,296.94,0,0,1,51.55,6.24c17,3.69,33.57,8.8,50.1,14.07,7.55,2.4,15.15,4.92,21.64,9.61,6.17,4.45,11.1,10.47,15.27,16.79a133.61,133.61,0,0,1,17.88,40.77c7.28,28.67,5.26,59.62-6.74,86.75a134.22,134.22,0,0,1-53,60.42c-26.86,16.17-59,21.53-89.93,19.39-33-2.29-64.91-13.06-94.8-26.79-14.31-6.57-28.9-13.57-39.92-25.12-10-10.54-16.9-23.81-21.19-37.64-7.7-24.79-7.09-51.63.36-76.4a137.71,137.71,0,0,1,40.86-64,122.94,122.94,0,0,1,15-11.13c1.62-1,.12-3.63-1.52-2.59Z"/><path class="cls-4" d="M872.35,604.93c13.73,20.58,42.11,21,63.71,15.62,5.71-1.42,12.45-5.44,11.63-12.3l-2.26,1.29c5.57,3,6.63,10.33,3.92,15.61-3.35,6.53-10.3,9.81-17.09,11.57-13.85,3.58-30.76,5.49-42.22-4.87-5.75-5.2-9.66-12.06-13.44-18.73a1.5,1.5,0,0,0-2.59,1.51c3.72,6.57,7.59,13.27,13.07,18.55a33.58,33.58,0,0,0,21.12,9.21c8.24.65,16.88-.72,24.85-2.78C940.46,637.7,948,634,951.77,627c3.63-6.71,2.36-16.22-4.83-20-.89-.48-2.4.1-2.25,1.3.68,5.7-5.24,8.41-9.84,9.5a103.65,103.65,0,0,1-17.34,2.57c-10.64.67-21.55-.74-30.89-6.15a35.17,35.17,0,0,1-11.68-10.75c-1.06-1.6-3.66-.1-2.59,1.51Z"/><path class="cls-4" d="M877.64,603.37c3.2,2.85,7.21,4.24,11.36,5,4.62.87,9.33,1.35,14,1.85,9.84,1,19.9,1.34,29.53-1.34a1.5,1.5,0,0,0-.8-2.89c-9.06,2.52-18.52,2.27-27.8,1.33-4.45-.45-8.93-.94-13.34-1.7-3.87-.66-7.83-1.71-10.83-4.38-1.44-1.28-3.57.84-2.12,2.12Z"/><path class="cls-4" d="M958.54,615.14c1.58.19,1.71,2.39,1.42,3.53a16,16,0,0,1-2.29,4.54,36.18,36.18,0,0,1-6,7.09,36.71,36.71,0,0,1-16.53,8.64c-1.88.43-1.08,3.32.8,2.89a39.74,39.74,0,0,0,19.75-11.27,33.32,33.32,0,0,0,6.62-9.51,7.31,7.31,0,0,0,.38-5.79,5,5,0,0,0-4.12-3.12c-1.91-.23-1.9,2.77,0,3Z"/><path class="cls-4" d="M684.07,672.26c-4.7,2.85-10.06,4.63-15.25,6.39-5.36,1.82-10.89,3.22-16.59,2.62-1.92-.2-1.9,2.8,0,3,5.94.62,11.81-.83,17.39-2.73,5.42-1.84,11-3.71,16-6.69a1.5,1.5,0,0,0-1.52-2.59Z"/><path class="cls-4" d="M646.26,710.07l29.88,2.8c1.92.18,1.91-2.82,0-3l-29.88-2.8c-1.92-.18-1.91,2.82,0,3Z"/><path class="cls-4" d="M570.87,684.34c-12.66-1.93-23.55-9.2-33-17.49-5.13-4.51-10-9.35-14.93-14-4-3.78-9-9.49-15.09-8.6-5.65.83-9.55,7.12-11.47,12a19,19,0,0,0,.91,16.7c3.13,5.34,8.42,9.08,13.11,12.93l16.82,13.78a81.25,81.25,0,0,0,8.75,6.72,22.8,22.8,0,0,0,10.26,3.21,80.12,80.12,0,0,0,11.59-.25q6-.42,12-1.27c1.9-.27,1.09-3.16-.8-2.89a140.69,140.69,0,0,1-19.77,1.51,22.48,22.48,0,0,1-9.46-1.67,35.4,35.4,0,0,1-7.25-4.87c-5.32-4.34-10.62-8.71-15.94-13.06-4.7-3.86-9.84-7.51-14-12-3.79-4.13-5.62-9.24-4.35-14.81a22.51,22.51,0,0,1,3.28-7.47c1.41-2.11,3.28-4.49,5.78-5.33,2.71-.91,5.38.54,7.5,2.15a81.54,81.54,0,0,1,6.83,6.18c4.61,4.39,9.14,8.88,13.92,13.08,9.85,8.67,21.27,16.41,34.51,18.42,1.89.29,2.7-2.6.79-2.89Z"/><path class="cls-4" d="M557.89,714.68a169.92,169.92,0,0,1-4.26,17.69c-1.75,5.83-3.87,11.53-5.85,17.28-3.95,11.46-6.63,23.13-7,35.28A108.07,108.07,0,0,0,542,805.18c.29,1.9,3.18,1.1,2.89-.8a104.6,104.6,0,0,1,.59-35.3c2.22-11.75,6.93-22.72,10.47-34.08a168,168,0,0,0,4.82-19.52c.35-1.89-2.54-2.7-2.89-.8Z"/><path class="cls-4" d="M628.8,653.56a8.62,8.62,0,0,1-10.37,4.07,1.5,1.5,0,1,0-.8,2.89,11.64,11.64,0,0,0,13.76-5.44,1.55,1.55,0,0,0-.54-2.06,1.52,1.52,0,0,0-2.05.54Z"/><path class="cls-4" d="M610.28,661.89c0,.15,0,.3,0,.45s0,.41,0,.24,0,.21-.05.24-.06.29-.1.43-.14.48-.22.71,0,0-.05.12a3.54,3.54,0,0,1-.16.34,6,6,0,0,1-1.76,2.19,6.11,6.11,0,0,1-2.63,1.15l-.39.07-.21,0c-.26,0-.52,0-.78,0l-.39,0c-.08,0-.35,0-.14,0a5.81,5.81,0,0,1-.9-.2,1.5,1.5,0,0,0-.8,2.9,9.16,9.16,0,0,0,11.63-8.64,1.5,1.5,0,0,0-3,0Z"/><path class="cls-4" d="M637.55,673a11.94,11.94,0,0,1-8.45.24,11,11,0,0,1-3.68-2,4.56,4.56,0,0,1-.5-.48l-.5.67a8.56,8.56,0,0,0,1.24,0c1,0,2,.1,2.94.18A67.46,67.46,0,0,0,650.72,670c1.87-.47,1.08-3.36-.8-2.9a59.6,59.6,0,0,1-14.13,1.79c-2.24,0-4.47-.13-6.7-.33-1.3-.11-2.61-.23-3.92-.22a3.68,3.68,0,0,0-2.5.64c-1.7,1.4-.4,3.47.91,4.55a14.78,14.78,0,0,0,4.54,2.52,15,15,0,0,0,10.94-.48c1.77-.76.25-3.34-1.51-2.59Z"/><path class="cls-4" d="M566.57,671.44A327,327,0,0,0,514.22,547.8q-6.39-9.18-13.4-17.91c-4.58-5.71-9.36-11.35-15.1-15.93a48.25,48.25,0,0,0-19.85-9.5c-7.56-1.67-15.35-1.93-23.06-2-14.66-.22-29.62.29-43.8,4.34a73.3,73.3,0,0,0-19.85,8.87A86,86,0,0,0,362.8,529.9c-5,5.49-9.53,11.4-14,17.34-4.69,6.23-9.31,12.52-13.71,19-8.72,12.75-16.58,26.15-22.23,40.56-5.94,15.14-8.88,31.2-10.2,47.36a357.67,357.67,0,0,0-.52,49.43c.94,16.3,3.36,32.65,8.87,48.07,5.38,15.07,13.4,29,21.89,42.52,9,14.32,18.63,28.23,28.47,42,4.95,6.93,10,13.82,15,20.7,4.27,5.87,8.54,11.92,14.28,16.45,5.24,4.13,11.86,6.92,18.64,6.39a19,19,0,0,0,4.9-1c1.17-.41,3.23-.94,3.68-2.25A9.52,9.52,0,0,0,418,874c.06-1,.12-2,.2-3q.22-3.15.59-6.28c3.58-31.37,15.71-60.89,23.46-91.3a230.37,230.37,0,0,0,7.22-48.42c.62-17.14-.54-34.3-2.28-51.36-.86-8.36-1.85-16.71-2.85-25.07-.22-1.89-3.23-1.91-3,0,3.76,31.44,7.54,63.31,3.69,94.92-3.54,29.09-14.19,56.61-21.85,84.74-4.25,15.62-7.56,31.55-8.28,47.76l.75-1.3c-10.25,5.59-21.56-1.23-28.47-8.87a159.42,159.42,0,0,1-10.36-13.47q-5.6-7.71-11.18-15.45c-14.38-20-28.77-40.37-40.65-62a155.85,155.85,0,0,1-14-33.34,178.19,178.19,0,0,1-5.71-35.93c-.8-12.22-.81-24.51-.42-36.74a226.51,226.51,0,0,1,3.83-37c4.61-23.16,15.26-43.95,28.44-63.35,6.45-9.51,13.29-18.81,20.43-27.81,6.89-8.68,14.49-17.07,23.92-23,18.88-11.93,42.26-12.72,63.92-12.24,11.59.25,23.6,1.18,33.69,7.44,9.49,5.88,16.6,15.09,23.33,23.82a324.76,324.76,0,0,1,57.76,119.64q2,7.89,3.51,15.87c.37,1.9,3.26,1.09,2.89-.79Z"/><path class="cls-4" d="M524.31,857.94a54,54,0,0,1-38.41-7.37c-6-3.81-10.72-9.21-16.35-13.56S457.09,829.77,451,826c-6-3.72-11.62-9-13-16.13-.37-1.9-3.26-1.09-2.9.8,2.9,15,19.46,19.71,30.47,27.16,6.25,4.23,11.1,10.15,17.35,14.39a56.86,56.86,0,0,0,42.24,8.66c1.89-.36,1.09-3.25-.8-2.89Z"/><path class="cls-4" d="M1423.2,443.11c25,13.55,45.32,34.17,61.87,57.1,17.06,23.64,31,49.72,42.38,76.51a452.15,452.15,0,0,1,35.87,174,438.77,438.77,0,0,1-8.49,88.63c-.73,3.64-1.52,7.28-2.34,10.91-.43,1.88,2.46,2.68,2.89.8a441.68,441.68,0,0,0,10.87-89.53,455.34,455.34,0,0,0-32.19-176.63A416.51,416.51,0,0,0,1493,506.31c-15.85-23.47-35.08-45.17-59.15-60.45q-4.46-2.83-9.11-5.34c-1.69-.92-3.21,1.67-1.51,2.59Z"/><path class="cls-4" d="M1439.48,697.65c-11.43-4.78-23.79-6.62-36.08-7.34a354,354,0,0,0-38.82.08q-19.55,1-38.93,3.87-9.69,1.44-19.31,3.34c-6.07,1.2-12.16,2.43-18.1,4.15a57.89,57.89,0,0,0-15.85,6.92A43.33,43.33,0,0,0,1261,720c-6.46,9.13-10.13,20.17-13.19,30.83-6.74,23.48-9,48.91-2.61,72.72,5.32,19.84,16.6,38.31,33.08,50.78q3.09,2.33,6.39,4.34V876c-19,9.41-40.14,13.07-59.09,22.49-8.48,4.21-16.54,9.6-22.88,16.69-1.58,1.77-3.35,3.71-3.88,6.09a6.4,6.4,0,0,0,2,5.94c3.41,3.46,8.24,5.9,12.64,7.82,10,4.35,20.72,6.51,31.45,7.88,11.3,1.45,22.71,2.15,34.08,2.85q34.68,2.16,69.47,2.05,35-.11,70-2.51l8.48-.62c1.91-.15,1.93-3.15,0-3q-33.92,2.6-67.94,3-33.87.45-67.74-1.27c-11.18-.56-22.35-1.28-33.49-2.22-10.77-.91-21.56-2.15-32-5.06a74.62,74.62,0,0,1-14.3-5.42,48.23,48.23,0,0,1-6.3-3.85c-1.69-1.23-4-2.85-3.32-5.23.63-2.21,2.72-4.11,4.26-5.72a61.4,61.4,0,0,1,5.07-4.73,75.16,75.16,0,0,1,11.38-7.72c17.69-9.95,37.89-13.78,56.47-21.62q3.65-1.53,7.19-3.29a1.51,1.51,0,0,0,0-2.59c-17.28-10.57-29.64-27.83-36.12-46.85-7.6-22.34-6.88-46.67-1.5-69.42,2.59-11,5.91-22.18,11.25-32.14a48.69,48.69,0,0,1,9.25-12.5,41.85,41.85,0,0,1,14-8.5,113.08,113.08,0,0,1,16.37-4.53q9.33-2,18.76-3.63,19-3.21,38.28-4.58c12.68-.9,25.41-1.22,38.12-.92,12.06.29,24.23,1.21,35.85,4.66a81.68,81.68,0,0,1,8.21,2.92,1.5,1.5,0,0,0,1.84-1,1.54,1.54,0,0,0-1-1.85Z"/><path class="cls-4" d="M1152.51,744.05c-9.69.32-18.19,5.13-25.35,11.35a108.42,108.42,0,0,0-10.45,10.66,95.61,95.61,0,0,0-9.3,11.75,22.47,22.47,0,0,0-3.43,15.47c.76,5.24,2.9,10.29,5.29,15a93.15,93.15,0,0,0,18.07,23.88A152.58,152.58,0,0,0,1139,842.36c2,1.57,4,3.09,6,4.59l3,2.15a10.15,10.15,0,0,1,2.75,2.29c1.3,2.06-3.28,3.07-4.49,3.47-2.67.89-5.36,1.73-8.05,2.53-5.34,1.58-10.7,3.05-16,4.64s-10.57,3.3-15.69,5.39a70.09,70.09,0,0,0-14.29,7.32c-4.13,2.94-7.12,6.87-7.63,12a20.1,20.1,0,0,0,4.29,13.8,38.61,38.61,0,0,0,11.82,9.69,120.61,120.61,0,0,0,15,7.15,128.91,128.91,0,0,0,32.79,8.3q4.17.49,8.36.7c1.93.11,1.92-2.89,0-3a126.47,126.47,0,0,1-32.48-6,123.47,123.47,0,0,1-15.18-6.07,66,66,0,0,1-13.37-7.89c-3.83-3.13-6.93-7.09-8-12a12.9,12.9,0,0,1,4.14-12.68c3.79-3.39,8.82-5.61,13.44-7.62a149.27,149.27,0,0,1,15.23-5.47c5.1-1.57,10.25-3,15.37-4.47,2.64-.77,5.27-1.55,7.88-2.38a42.15,42.15,0,0,0,7.22-2.57c1.84-1,3.35-2.83,2.79-5s-2.8-3.52-4.55-4.77c-4-2.87-7.87-5.85-11.62-9A113.07,113.07,0,0,1,1117.41,816a76.86,76.86,0,0,1-7.11-12.47c-2.21-5-4.18-10.55-3.47-16,.66-5.05,3.76-9.37,6.89-13.21s6.17-7.38,9.48-10.86c6.29-6.6,13.66-12.92,22.64-15.34a29.54,29.54,0,0,1,6.67-1c1.92-.06,1.93-3.06,0-3Z"/><path class="cls-4" d="M1291,457c5-12.42,9.89-25.32,10.11-38.89.2-12-3.41-24.47-12.46-32.77-8.09-7.42-19.69-10.89-30.21-6.86-9.86,3.77-17.34,12.65-20.31,22.69-4.1,13.87.07,28.83,6.78,41.15.8,1.46,3.36.46,2.74-1.15l-10.89-28.42c-3.11-8.1-6-17-12.74-22.94a20.52,20.52,0,0,0-12.1-5.3,1.52,1.52,0,0,0-1.5,1.5,137.52,137.52,0,0,0,5.84,50.35c.65,2.07,1.34,4.12,2.09,6.16a20.1,20.1,0,0,0,2.27,4.91c2.43,3.4,6.28,3.57,10.1,3.89a200.08,200.08,0,0,1,25.66,3.86,206,206,0,0,1,28,8.22c1.81.68,2.59-2.22.8-2.89a205,205,0,0,0-48.32-11.58c-2.11-.25-4.22-.45-6.33-.63-1.8-.15-3.77-.13-5.45-.9s-2.54-2.44-3.2-4.08c-.73-1.82-1.36-3.69-2-5.55a133.19,133.19,0,0,1-6.45-51.76l-1.5,1.5c7.93.55,13.54,7.14,16.88,13.77a128.6,128.6,0,0,1,5.06,12.27l5.09,13.27,5.81,15.15,2.74-1.16c-5.7-10.47-9.49-22.78-7.42-34.77,1.7-9.79,7.72-18.9,16.64-23.53,9.24-4.8,20.07-2.9,28.08,3.47,8.91,7.09,12.94,18.23,13.29,29.37.46,14.25-4.7,27.85-10,40.85-.72,1.79,2.18,2.56,2.89.8Z"/><path class="cls-4" d="M1231.16,513.78a14.09,14.09,0,0,1,11.91-3.31,13.89,13.89,0,0,1,9.44,7.1,9.26,9.26,0,0,1,1.27,5.8c-.46,2.4-3.22,2.87-5.23,3.38a40.27,40.27,0,0,1-7.87,1.21,10.49,10.49,0,0,1-3.31-.07c-1.1-.3-1.2-1.34-1.37-2.32-.77-4.46-1.59-10.09,1.43-13.92,1.18-1.5-.92-3.64-2.12-2.13-3.58,4.55-3.22,10.3-2.39,15.71.42,2.68,1.15,5.15,4.19,5.67s6.62-.11,9.67-.69c2.77-.52,6.43-1.1,8.46-3.25s1.87-5,1.21-7.52a16.67,16.67,0,0,0-27.41-7.78c-1.44,1.29.69,3.4,2.12,2.12Z"/><path class="cls-4" d="M1569.67,857.74c.46-7.29,2-15.21,7.52-20.43a15.7,15.7,0,0,1,9-4.38c3.68-.35,7.06,1.09,10.1,3.05A45.65,45.65,0,0,1,1611,851.05a30.51,30.51,0,0,1,3.66,9.42,27.47,27.47,0,0,1-.28,10.42,13,13,0,0,0,0,5.89,17.67,17.67,0,0,0,2.43,4.73,16.8,16.8,0,0,1,3.09,9c.15,6.47-3.21,12.74-8,17-5.52,4.91-12.62,7.58-19.61,9.61a184.58,184.58,0,0,1-24.46,5.46c-15.25,2.24-31.76,1.39-45.28-6.74a46.33,46.33,0,0,1-4.44-3c-1.53-1.18-3,1.43-1.51,2.59,13.15,10.1,30.51,12.4,46.61,10.75a171.61,171.61,0,0,0,26.85-5.3c7.55-2,15.27-4.53,21.59-9.29,5.67-4.29,10-10.46,11-17.61a19,19,0,0,0-1.13-10c-1.45-3.46-4.71-6.32-4.49-10.3.11-2.13.76-4.2,1-6.32a24.8,24.8,0,0,0-.09-5.31,31.16,31.16,0,0,0-3.2-10.35,47.61,47.61,0,0,0-14.76-16.77c-3.18-2.33-6.7-4.34-10.67-4.83a16.64,16.64,0,0,0-10.51,2.42c-6.89,4.11-10.25,11.69-11.43,19.35-.31,2-.5,4-.63,6s2.88,1.92,3,0Z"/><path class="cls-4" d="M1355.81,568.35a186.09,186.09,0,0,0-61.5,39.86c-5.7,5.58-11.67,11.57-14.55,19.17-2.53,6.68-1.22,14.26,4.5,18.84,5,4,11.63,5.31,17.88,5.86,3.79.33,7.6.32,11.41.38l14.72.23c9.56.15,19.12.41,28.68.41,16.22,0,34.36-2,46.13-14.52a34.83,34.83,0,0,0,3.48-4.36c1.08-1.6-1.51-3.1-2.59-1.51-9,13.23-26,16.79-41,17.3-9.07.3-18.17-.06-27.23-.2s-18.41-.27-27.61-.43c-6-.11-12.32-.54-17.86-3-5.78-2.56-9.73-7.85-8.68-14.41,1.2-7.57,7-13.71,12.14-19a182.22,182.22,0,0,1,57.36-39.48q2.73-1.18,5.49-2.29c1.78-.7,1-3.6-.79-2.89Z"/><path class="cls-4" d="M1286.3,360.13c-22.52-7.82-48.79-15.78-70.68-1.89a57.89,57.89,0,0,0-20.17,22.59,68,68,0,0,0-7.1,32.26c.25,14.07,4.16,27.84,10,40.59l.9-2.21c-9.11,1.71-19.76,0-27.33,6.49-7.31,6.24-7.26,17.07-5.77,25.75,3.1,18.05,13.33,34.67,27.39,46.29a77.41,77.41,0,0,0,27.34,14.67c1.85.54,2.65-2.35.79-2.9a76.13,76.13,0,0,1-41.15-30.56A73.69,73.69,0,0,1,1170,487.67c-2-7.95-3.42-18.21,1.81-25.27,3-4,7.8-5.63,12.57-6.35,5.19-.78,10.46-.72,15.63-1.68a1.53,1.53,0,0,0,.89-2.21c-9.39-20.6-13.8-45.45-4.29-66.83a56.38,56.38,0,0,1,17.82-22.66c8.93-6.53,19.61-9.38,30.61-9.1,13.94.35,27.41,4.92,40.45,9.45,1.83.64,2.61-2.26.8-2.89Z"/><path class="cls-4" d="M1279.68,553.75c24.56-4.43,49.09-14.12,66.2-32.92,7.89-8.66,14.46-19.36,16.8-31,1.23-6.08,1.25-12.57-1-18.44a30.12,30.12,0,0,0-8.59-12.18c-8.86-7.67-20.69-11.07-31.88-13.67-1.88-.43-2.68,2.46-.79,2.89,9.58,2.23,19.45,5,27.64,10.66a29.61,29.61,0,0,1,9.39,10.17,28.32,28.32,0,0,1,2.76,16.94c-1.41,11.36-7.57,22.11-14.92,30.68a90.73,90.73,0,0,1-26.75,21c-12.4,6.51-26,10.5-39.71,13-1.9.35-1.09,3.24.8,2.9Z"/><path class="cls-4" d="M1281.51,347.79a301.65,301.65,0,0,0-47.29-30.53,256.49,256.49,0,0,0-52.4-20.35,220.42,220.42,0,0,0-56.51-7.35,198,198,0,0,0-56.5,8.23,177.2,177.2,0,0,0-26.4,10.31c-8.64,4.21-16.88,9.47-26.13,12.27a43.18,43.18,0,0,1-7.11,1.57l1.45,1.1c-4.22-18.24-.08-38.79,11.82-53.39A51.66,51.66,0,0,1,1047,253.06c11.65-3.72,24.11-4.21,36.25-4.1,25.11.21,50,4.43,74.19,11.13,24.4,6.76,48.06,16,71.11,26.45,10.58,4.8,21.33,9.88,30.24,17.46,9.11,7.74,15.32,17.95,20.51,28.58,1.25,2.55,2.45,5.13,3.62,7.71.81,1.75,3.39.23,2.59-1.51-5-11-10.41-22-18.53-31s-18.47-15-29.16-20.21A490.17,490.17,0,0,0,1166,259.45c-24.67-7.41-50.18-12.4-76-13.34-22.84-.84-48.76.11-66,17.25-13.74,13.68-19.91,34.26-17.61,53.34a66,66,0,0,0,1.25,7.13,1.51,1.51,0,0,0,1.44,1.11c9.49-1.22,18-5.52,26.36-9.93a196.7,196.7,0,0,1,26.13-11.73,191.15,191.15,0,0,1,55.47-10.53,213.35,213.35,0,0,1,56.55,5.25,247.28,247.28,0,0,1,52.48,18.57,294.24,294.24,0,0,1,47.73,29.13c1.85,1.38,3.68,2.79,5.5,4.21,1.5,1.17,3.64-.94,2.12-2.12Z"/><path class="cls-4" d="M1293.54,344.62c5.94-15,11.76-30.26,12.65-46.56.84-15.36-2.23-30.82-7.86-45.08a151.81,151.81,0,0,0-23-38.73,252.4,252.4,0,0,0-31.48-32.33c-5.72-5-11.81-9.71-18.76-12.87-7.35-3.35-15.29-4.92-23.18-6.43-8.26-1.58-16.63-3.18-25.08-3.12-2.82,0-6.86,0-8,3.24-1.27,3.47,2.42,6.82,4.52,9.09,5.25,5.69,11.32,10.55,17.19,15.59q8.28,7.11,16,14.86a273.39,273.39,0,0,1,50.58,70.51q4.86,9.73,8.91,19.83c2.74,6.76,5.37,13.63,9,19.95a56.88,56.88,0,0,0,6.17,8.68c1.27,1.46,3.38-.67,2.12-2.12-4.67-5.38-7.92-11.77-10.73-18.26s-5.29-13.14-8.19-19.61a272,272,0,0,0-20.16-36.95,278,278,0,0,0-25.59-33.48,307.22,307.22,0,0,0-30.78-29.59c-2.89-2.46-5.77-4.94-8.52-7.57q-2-1.92-3.9-4a23.51,23.51,0,0,1-3.45-4.21c-2.08-3.7,4.93-3,6.78-3A90.92,90.92,0,0,1,1191,163.7a214.32,214.32,0,0,1,23.42,4.72,60.75,60.75,0,0,1,20.26,9.89,179,179,0,0,1,16.71,14.55c5.3,5,10.41,10.26,15.26,15.73a164.66,164.66,0,0,1,24.73,36,112.52,112.52,0,0,1,11.81,42.91,89.72,89.72,0,0,1-1.45,22.43,147.53,147.53,0,0,1-6.87,23.06c-1.35,3.62-2.77,7.22-4.2,10.82-.71,1.79,2.19,2.57,2.9.8Z"/><path class="cls-4" d="M1332.08,372.67c9.92,1.21,18.93,6.51,25.83,13.59,7.61,7.82,12.46,17.83,15.43,28.23a123.53,123.53,0,0,1,3.7,18.86c.23,1.89,3.23,1.92,3,0-1.46-11.92-4.1-23.82-9.61-34.57-4.9-9.54-12.19-17.95-21.5-23.39a43.64,43.64,0,0,0-16.85-5.72c-1.91-.24-1.89,2.77,0,3Z"/><path class="cls-4" d="M1256.66,431.57c1-2.64,1.27-6-.43-8.39-1.49-2.12-4.25-3.6-6.85-2.67a6.36,6.36,0,0,0-4,4.89,6.72,6.72,0,0,0,2.21,6.32,10,10,0,0,0,7.64,2.3,1.54,1.54,0,0,0,1.5-1.5,1.51,1.51,0,0,0-1.5-1.5,10.17,10.17,0,0,1-1.35.06l-.68-.05c-.29,0,.34.07-.13,0l-.37-.07a8.5,8.5,0,0,1-1.31-.37l-.13-.05-.27-.12c-.22-.11-.43-.23-.64-.36a3.2,3.2,0,0,1-.86-.65c-.14-.13-.27-.28-.4-.42-.31-.33.08.12-.08-.09s-.17-.24-.24-.37a6.12,6.12,0,0,1-.31-.56c.13.27,0-.15-.07-.25s-.1-.38-.13-.57,0,.36,0-.05c0-.13,0-.25,0-.38a4.41,4.41,0,0,1,0-.52c0,.35,0-.23.06-.31s.1-.38.16-.56l.09-.24c-.12.3,0-.05.06-.11a4.08,4.08,0,0,1,.29-.5l.18-.26c0,.05-.19.2,0,0s.26-.28.4-.41.23-.19.08-.08.17-.1.21-.13.56-.28.24-.15a5.6,5.6,0,0,1,.54-.17c.05,0,.31-.06.12,0s.23,0,.21,0h.31c.4,0-.18-.07.21,0a3.47,3.47,0,0,1,2,1.17,5.15,5.15,0,0,1,.7,1.1,5.91,5.91,0,0,1,.34,1.57,8.47,8.47,0,0,1-.7,3.66,1.51,1.51,0,0,0,1,1.85,1.54,1.54,0,0,0,1.84-1.05Z"/><path class="cls-4" d="M1224.73,435a4.37,4.37,0,0,0,3.06-4.76,4.26,4.26,0,0,0-1.47-2.87,5,5,0,0,0-3.22-1.14,5.8,5.8,0,0,0-5.47,4,7.44,7.44,0,0,0,1.26,6.95,4.24,4.24,0,0,0,3.95,1.62,3.39,3.39,0,0,0,2.86-2.58,1.5,1.5,0,0,0-2.9-.79,1.11,1.11,0,0,0,0,.25c0,.22,0-.35,0,0l-.06.09.11-.14s-.25.29-.08.09-.06,0-.11.06l-.19.1c.32-.15.1,0,0,0s-.39,0-.18.05-.08,0-.13,0c-.21,0,0,.05.08,0s-.21-.06-.27-.07c-.21,0,.26.16-.06,0l-.22-.12s-.31-.24-.15-.1-.14-.14-.13-.14a2.27,2.27,0,0,1-.26-.28s.15.23,0,0l-.18-.27a5.12,5.12,0,0,1-.27-.52c-.13-.25,0-.05,0,0-.05-.12-.09-.24-.13-.37a6.29,6.29,0,0,1-.17-.62c0-.08,0-.17,0-.25-.08-.41,0,.3,0-.12,0-.17,0-.34,0-.51s0-.43,0-.65c0,.3,0,.1,0,0s0-.25.08-.37.12-.4.19-.61c-.09.27,0,.08,0,0s.09-.18.14-.28a4.76,4.76,0,0,1,.31-.47c-.18.23,0,0,0,0l.24-.24c.06-.06.28-.21,0,0l.19-.13.49-.28c.08,0,.24-.06,0,0a2.67,2.67,0,0,0,.26-.09,1.93,1.93,0,0,1,.61-.14s-.35,0-.06,0h.28a1.67,1.67,0,0,1,.5,0c-.29-.13-.14,0,0,0l.26.07.21.07c-.31-.08-.07,0,0,0l.24.14c.09.05.25.22,0,0a4,4,0,0,1,.29.29c.23.22-.15-.28,0,0l.09.16s.08.17.09.17c-.09-.21-.11-.25,0-.09l0,.09c0,.09,0,.18.07.27.08.28,0-.34,0,0,0,.16,0,.32,0,.48s0,.35,0,.08,0,.06,0,.13a2,2,0,0,1-.07.23c-.1.3-.06,0,0,0a2,2,0,0,0-.23.41c-.15.28.24-.24,0,0l-.19.19c-.13.15,0-.07.1-.06,0,0-.21.14-.24.15s-.22.19-.07,0,.12-.05,0,0l-.18.05a1.52,1.52,0,0,0-1,1.85,1.55,1.55,0,0,0,1.85,1Z"/><path class="cls-4" d="M1282.52,529.23a19.26,19.26,0,0,0,15.59-17.52l-2.94.4c.31,2.1,1.68,3.75,3,5.35s2.4,3.17,1.89,5.22c-1.22,5-7.13,5.84-11.37,6.38a1.54,1.54,0,0,0-1.5,1.5,1.51,1.51,0,0,0,1.5,1.5c5.51-.7,11.8-1.92,14-7.79a7.69,7.69,0,0,0-1.05-7.16c-1.28-1.85-3.21-3.46-3.56-5.79-.27-1.76-2.85-1.2-3,.39a16.27,16.27,0,0,1-13.39,14.62c-1.9.32-1.09,3.21.8,2.9Z"/><path class="cls-4" d="M1210.7,550.46c-4.37,9.19-14.93,14.07-24.19,16.8-12.55,3.7-25.85,3.8-38.8,2.79-7.81-.61-15.57-1.66-23.32-2.72a1.57,1.57,0,0,0-1.85,1,1.52,1.52,0,0,0,1,1.85c14.26,1.95,28.65,3.92,43.08,3.21,12.14-.59,24.78-3.11,35.22-9.62,4.68-2.92,9-6.8,11.41-11.85.82-1.73-1.76-3.25-2.6-1.51Z"/><path class="cls-4" d="M1106.06,626.66c20.78-.19,41.58.41,62.32,1.94q8.31.61,16.62,1.45c1.92.19,1.91-2.81,0-3-20.25-2-40.6-3.07-61-3.35q-9-.12-18,0a1.5,1.5,0,0,0,0,3Z"/><path class="cls-4" d="M1213.26,616.68a121.93,121.93,0,0,0-21.61,64A121.05,121.05,0,0,0,1229.1,773c1.4,1.33,3.52-.78,2.12-2.12a119,119,0,0,1-32.49-54.23,118.06,118.06,0,0,1,17.12-98.49c1.11-1.58-1.49-3.08-2.59-1.51Z"/><path d="M160.71,150.72a2.72,2.72,0,0,1-1.2-1,2.56,2.56,0,0,1,.21-3.24,2.3,2.3,0,0,1,1.77-.75,2.78,2.78,0,0,1,1.14.24,28.71,28.71,0,0,0,11.82,2.46q10.5,0,10.5-6.9a3.85,3.85,0,0,0-1.35-3,9.8,9.8,0,0,0-3.33-1.89q-2-.69-5.64-1.65a72.21,72.21,0,0,1-7.86-2.43,13.7,13.7,0,0,1-5.16-3.51,8.84,8.84,0,0,1-2.16-6.24,11.21,11.21,0,0,1,1.8-6.21,12.38,12.38,0,0,1,5.31-4.44,19.68,19.68,0,0,1,8.43-1.65,34.14,34.14,0,0,1,11.94,2,2.34,2.34,0,0,1,1.68,2.4,2.63,2.63,0,0,1-.66,1.74,2.17,2.17,0,0,1-1.74.78,2.77,2.77,0,0,1-1-.24,29.33,29.33,0,0,0-9.66-1.62,14.71,14.71,0,0,0-7.71,1.8,5.61,5.61,0,0,0-3,5,4.64,4.64,0,0,0,1.41,3.51,9.69,9.69,0,0,0,3.54,2.1,55.78,55.78,0,0,0,5.79,1.59,60.29,60.29,0,0,1,7.65,2.28,12.52,12.52,0,0,1,5,3.54,9.58,9.58,0,0,1,2.07,6.48,10.08,10.08,0,0,1-1.92,6,12.6,12.6,0,0,1-5.4,4.17,20.16,20.16,0,0,1-8,1.5A35.59,35.59,0,0,1,160.71,150.72Z"/><path d="M203.07,151.62A13.46,13.46,0,0,1,197.7,146a19.21,19.21,0,0,1,0-16.62,13.46,13.46,0,0,1,5.37-5.61,17.44,17.44,0,0,1,16.14,0,13.65,13.65,0,0,1,5.4,5.61,18.94,18.94,0,0,1,0,16.62,13.65,13.65,0,0,1-5.4,5.61,17.44,17.44,0,0,1-16.14,0Zm12.81-4.14a9.16,9.16,0,0,0,3.72-3.6,12,12,0,0,0,1.47-6.24,11.88,11.88,0,0,0-1.47-6.18,9,9,0,0,0-3.72-3.57,10.52,10.52,0,0,0-4.71-1.11,10.64,10.64,0,0,0-4.77,1.11,8.78,8.78,0,0,0-3.69,3.57,12.08,12.08,0,0,0-1.44,6.18,12.21,12.21,0,0,0,1.44,6.24,9,9,0,0,0,3.69,3.6,10.41,10.41,0,0,0,4.77,1.14A10.29,10.29,0,0,0,215.88,147.48Z"/><path d="M250.53,152.52a2.61,2.61,0,0,1-.78-1.92V124.86a2.71,2.71,0,0,1,.78-2,2.56,2.56,0,0,1,1.92-.81,2.77,2.77,0,0,1,2.76,2.76v2.46a15,15,0,0,1,4-4,11,11,0,0,1,6.15-1.56,9.33,9.33,0,0,1,5.76,1.8,10,10,0,0,1,3.42,4.38,12.09,12.09,0,0,1,11-6.18,9.11,9.11,0,0,1,5.61,1.68,10,10,0,0,1,3.33,4.32,14.44,14.44,0,0,1,1.08,5.52V150.6a2.56,2.56,0,0,1-.81,1.92,2.71,2.71,0,0,1-1.95.78,2.66,2.66,0,0,1-2.7-2.7V134.4q0-3.9-1.38-5.73t-4.74-1.83a7.92,7.92,0,0,0-5.07,1.59,15.38,15.38,0,0,0-3.57,4.17v18a2.56,2.56,0,0,1-.81,1.92,2.71,2.71,0,0,1-1.95.78,2.66,2.66,0,0,1-2.7-2.7V134.4q0-3.9-1.38-5.73t-4.74-1.83a7.92,7.92,0,0,0-5.07,1.59,15.38,15.38,0,0,0-3.57,4.17v18a2.56,2.56,0,0,1-.81,1.92,2.71,2.71,0,0,1-2,.78A2.61,2.61,0,0,1,250.53,152.52Z"/><path d="M309.3,152a10.14,10.14,0,0,1-3.72-4.26,13.6,13.6,0,0,1-1.29-5.94v-17a2.56,2.56,0,0,1,.81-1.92,2.71,2.71,0,0,1,1.95-.78,2.66,2.66,0,0,1,2.7,2.7v16.44q0,7.32,6.6,7.32a9.55,9.55,0,0,0,5.37-1.56,19.44,19.44,0,0,0,4.47-4.2v-18a2.56,2.56,0,0,1,.81-1.92,2.71,2.71,0,0,1,1.95-.78,2.66,2.66,0,0,1,2.7,2.7v25.74a2.71,2.71,0,0,1-.78,2,2.56,2.56,0,0,1-1.92.81,2.77,2.77,0,0,1-2.76-2.76v-2.46a19.94,19.94,0,0,1-4.92,4,12.42,12.42,0,0,1-6.24,1.5A10.37,10.37,0,0,1,309.3,152Z"/><path d="M347.31,151.68a14.78,14.78,0,0,1-5.85-5.52,17.44,17.44,0,0,1,0-16.92,14.78,14.78,0,0,1,5.85-5.52,16.92,16.92,0,0,1,8-1.92,16.63,16.63,0,0,1,5.49.81,20.74,20.74,0,0,1,4.29,2.07,2.39,2.39,0,0,1,.51,3.75,2.11,2.11,0,0,1-1.59.75,2.74,2.74,0,0,1-1.32-.36,22.85,22.85,0,0,0-3.39-1.47,11.7,11.7,0,0,0-3.51-.45,10.88,10.88,0,0,0-8.1,3,11.9,11.9,0,0,0,0,15.66,10.88,10.88,0,0,0,8.1,3,11.7,11.7,0,0,0,3.51-.45,22.85,22.85,0,0,0,3.39-1.47,2.74,2.74,0,0,1,1.32-.36,2.11,2.11,0,0,1,1.59.75,2.39,2.39,0,0,1-.51,3.75,20.74,20.74,0,0,1-4.29,2.07,16.63,16.63,0,0,1-5.49.81A16.92,16.92,0,0,1,347.31,151.68Z"/><path d="M373.89,152.52a2.61,2.61,0,0,1-.78-1.92V111.66a2.71,2.71,0,0,1,.78-2,2.56,2.56,0,0,1,1.92-.81,2.77,2.77,0,0,1,2.76,2.76v15.66a19.94,19.94,0,0,1,4.92-4,12.42,12.42,0,0,1,6.24-1.5,10.37,10.37,0,0,1,5.73,1.56,10.14,10.14,0,0,1,3.72,4.26,13.6,13.6,0,0,1,1.29,5.94v17a2.56,2.56,0,0,1-.81,1.92,2.71,2.71,0,0,1-2,.78,2.66,2.66,0,0,1-2.7-2.7V134.16q0-7.32-6.6-7.32A9.55,9.55,0,0,0,383,128.4a19.44,19.44,0,0,0-4.47,4.2v18a2.56,2.56,0,0,1-.81,1.92,2.71,2.71,0,0,1-1.95.78A2.61,2.61,0,0,1,373.89,152.52Z"/><path d="M419.37,166.86a2.26,2.26,0,0,1-1.14-.81,2.3,2.3,0,0,1,.24-2.94,2.15,2.15,0,0,1,1.62-.69,5.66,5.66,0,0,1,.9.09,5.66,5.66,0,0,0,.9.09,4.68,4.68,0,0,0,2.76-.66q.9-.66.9-2.88V124.92a2.71,2.71,0,0,1,.78-2,2.56,2.56,0,0,1,1.92-.81,2.67,2.67,0,0,1,2.76,2.76v34.26a9,9,0,0,1-1.89,6q-1.89,2.25-6,2.25A12,12,0,0,1,419.37,166.86Zm6.6-51.6a3,3,0,0,1-.9-2.16v-.24a3.07,3.07,0,0,1,3.06-3.06h.36a3.07,3.07,0,0,1,3.06,3.06v.24a3.07,3.07,0,0,1-3.06,3.06h-.36A3,3,0,0,1,426,115.26Z"/><path d="M445.89,151.62a13.46,13.46,0,0,1-5.37-5.61,19.21,19.21,0,0,1,0-16.62,13.46,13.46,0,0,1,5.37-5.61,17.44,17.44,0,0,1,16.14,0,13.65,13.65,0,0,1,5.4,5.61,18.94,18.94,0,0,1,0,16.62,13.65,13.65,0,0,1-5.4,5.61,17.44,17.44,0,0,1-16.14,0Zm12.81-4.14a9.16,9.16,0,0,0,3.72-3.6,12,12,0,0,0,1.47-6.24,11.88,11.88,0,0,0-1.47-6.18,9,9,0,0,0-3.72-3.57,10.52,10.52,0,0,0-4.71-1.11,10.64,10.64,0,0,0-4.77,1.11,8.78,8.78,0,0,0-3.69,3.57,12.08,12.08,0,0,0-1.44,6.18,12.21,12.21,0,0,0,1.44,6.24,9,9,0,0,0,3.69,3.6,10.41,10.41,0,0,0,4.77,1.14A10.29,10.29,0,0,0,458.7,147.48Z"/><path d="M481.56,166.32a2.59,2.59,0,0,1-.75-1.86,2.72,2.72,0,0,1,.18-1l3.9-10L473.61,126a3.07,3.07,0,0,1-.24-1.14,2.71,2.71,0,0,1,.78-2,2.56,2.56,0,0,1,1.92-.81,2.62,2.62,0,0,1,1.53.48,2.72,2.72,0,0,1,1,1.2l9.24,22.92,9.42-22.8a2.62,2.62,0,0,1,2.52-1.8,2.56,2.56,0,0,1,1.92.81,2.71,2.71,0,0,1,.78,2,2.88,2.88,0,0,1-.18,1l-16.38,39.36a2.7,2.7,0,0,1-2.52,1.86A2.44,2.44,0,0,1,481.56,166.32Z"/><path d="M525.15,166.29a2.71,2.71,0,0,1-.78-1.95V124.8a2.66,2.66,0,0,1,2.7-2.7,2.71,2.71,0,0,1,1.95.78,2.56,2.56,0,0,1,.81,1.92v1.56a13.79,13.79,0,0,1,10.26-4.56,14.07,14.07,0,0,1,7,1.89,14.34,14.34,0,0,1,5.4,5.52,18.45,18.45,0,0,1,0,17,14.34,14.34,0,0,1-5.4,5.52,14.07,14.07,0,0,1-7,1.89A13.79,13.79,0,0,1,529.83,149v15.3a2.67,2.67,0,0,1-2.76,2.76A2.56,2.56,0,0,1,525.15,166.29Zm21.3-20.61q2.7-2.82,2.7-8t-2.7-8a9.43,9.43,0,0,0-7.14-2.82,11.33,11.33,0,0,0-5.19,1.23,14.82,14.82,0,0,0-4.29,3.27V144a14.82,14.82,0,0,0,4.29,3.27,11.33,11.33,0,0,0,5.19,1.23A9.43,9.43,0,0,0,546.45,145.68Z"/><path d="M563,152.52a2.61,2.61,0,0,1-.78-1.92V111.66a2.71,2.71,0,0,1,.78-2,2.56,2.56,0,0,1,1.92-.81,2.67,2.67,0,0,1,2.76,2.76V150.6a2.56,2.56,0,0,1-.81,1.92,2.71,2.71,0,0,1-2,.78A2.61,2.61,0,0,1,563,152.52Z"/><path d="M580.08,152.52a8.52,8.52,0,0,1-3.57-3.15,8.68,8.68,0,0,1-1.32-4.77,8.41,8.41,0,0,1,3.51-7.08q3.51-2.64,10.29-2.64h7.26v-.48q0-4-2-5.7T588.21,127a20.45,20.45,0,0,0-4.05.36,34,34,0,0,0-3.93,1.08,3.37,3.37,0,0,1-.78.12,2.13,2.13,0,0,1-1.56-.66,2.2,2.2,0,0,1-.66-1.62,2.31,2.31,0,0,1,1.56-2.28,26.39,26.39,0,0,1,10.38-2.16,13.55,13.55,0,0,1,7,1.68,10.56,10.56,0,0,1,4.2,4.35,12.65,12.65,0,0,1,1.35,5.79v17a2.56,2.56,0,0,1-.81,1.92,2.71,2.71,0,0,1-1.95.78,2.66,2.66,0,0,1-2.7-2.7V149A15.07,15.07,0,0,1,585,153.6,11.15,11.15,0,0,1,580.08,152.52Zm12-5a14.18,14.18,0,0,0,4.14-3.21v-5h-6.54q-9.06,0-9.06,4.74a4.45,4.45,0,0,0,1.47,3.48q1.47,1.32,4.89,1.32A10.85,10.85,0,0,0,592.11,147.51Z"/><path d="M615.36,166.32a2.59,2.59,0,0,1-.75-1.86,2.72,2.72,0,0,1,.18-1l3.9-10L607.41,126a3.07,3.07,0,0,1-.24-1.14,2.71,2.71,0,0,1,.78-2,2.56,2.56,0,0,1,1.92-.81,2.62,2.62,0,0,1,1.53.48,2.72,2.72,0,0,1,1,1.2l9.24,22.92,9.42-22.8a2.62,2.62,0,0,1,2.52-1.8,2.56,2.56,0,0,1,1.92.81,2.71,2.71,0,0,1,.78,2,2.88,2.88,0,0,1-.18,1l-16.38,39.36a2.7,2.7,0,0,1-2.52,1.86A2.44,2.44,0,0,1,615.36,166.32Z"/><path d="M643,115.26a3,3,0,0,1-.9-2.16v-.24a3.07,3.07,0,0,1,3.06-3.06h.36a3.07,3.07,0,0,1,3.06,3.06v.24a3.07,3.07,0,0,1-3.06,3.06h-.36A3,3,0,0,1,643,115.26Zm.36,37.26a2.61,2.61,0,0,1-.78-1.92V124.86a2.71,2.71,0,0,1,.78-2,2.56,2.56,0,0,1,1.92-.81,2.67,2.67,0,0,1,2.76,2.76V150.6a2.56,2.56,0,0,1-.81,1.92,2.71,2.71,0,0,1-2,.78A2.61,2.61,0,0,1,643.35,152.52Z"/><path d="M658.29,152.52a2.61,2.61,0,0,1-.78-1.92V124.86a2.71,2.71,0,0,1,.78-2,2.56,2.56,0,0,1,1.92-.81,2.77,2.77,0,0,1,2.76,2.76v2.46a19.94,19.94,0,0,1,4.92-4,12.42,12.42,0,0,1,6.24-1.5,10.37,10.37,0,0,1,5.73,1.56,10.14,10.14,0,0,1,3.72,4.26,13.6,13.6,0,0,1,1.29,5.94v17a2.56,2.56,0,0,1-.81,1.92,2.71,2.71,0,0,1-1.95.78,2.66,2.66,0,0,1-2.7-2.7V134.16q0-7.32-6.6-7.32a9.55,9.55,0,0,0-5.37,1.56,19.44,19.44,0,0,0-4.47,4.2v18a2.56,2.56,0,0,1-.81,1.92,2.71,2.71,0,0,1-1.95.78A2.61,2.61,0,0,1,658.29,152.52Z"/><path d="M701.31,166.5a23,23,0,0,1-5.82-2.22,2.28,2.28,0,0,1-1.08-2.1,2.46,2.46,0,0,1,.69-1.71,2.23,2.23,0,0,1,1.71-.75,3,3,0,0,1,1.08.24,21.83,21.83,0,0,0,9.9,2.28q9.18,0,9.18-9.78v-4A13.54,13.54,0,0,1,706.71,153a14.46,14.46,0,0,1-6.87-1.77,14.3,14.3,0,0,1-5.49-5.28,18,18,0,0,1,0-17.1,14.3,14.3,0,0,1,5.49-5.28,14.46,14.46,0,0,1,6.87-1.77A13.54,13.54,0,0,1,717,126.36v-1.5a2.71,2.71,0,0,1,.78-2,2.56,2.56,0,0,1,1.92-.81,2.77,2.77,0,0,1,2.76,2.76v26.82q0,7.56-3.66,11.64t-10.44,4.08A28.4,28.4,0,0,1,701.31,166.5Zm11.52-19.68a18,18,0,0,0,4.14-3.24V131.22a18,18,0,0,0-4.14-3.24,10.08,10.08,0,0,0-5-1.2,10.19,10.19,0,0,0-7.35,2.73q-2.85,2.73-2.85,7.89t2.85,7.89a10.19,10.19,0,0,0,7.35,2.73A10.08,10.08,0,0,0,712.83,146.82Z"/><path d="M750.42,152.52a8.52,8.52,0,0,1-3.57-3.15,8.68,8.68,0,0,1-1.32-4.77,8.41,8.41,0,0,1,3.51-7.08q3.51-2.64,10.29-2.64h7.26v-.48q0-4-2-5.7T758.55,127a20.45,20.45,0,0,0-4,.36,34,34,0,0,0-3.93,1.08,3.37,3.37,0,0,1-.78.12,2.13,2.13,0,0,1-1.56-.66,2.2,2.2,0,0,1-.66-1.62,2.31,2.31,0,0,1,1.56-2.28,26.39,26.39,0,0,1,10.38-2.16,13.55,13.55,0,0,1,7,1.68,10.56,10.56,0,0,1,4.2,4.35,12.65,12.65,0,0,1,1.35,5.79v17a2.56,2.56,0,0,1-.81,1.92,2.71,2.71,0,0,1-2,.78,2.66,2.66,0,0,1-2.7-2.7V149a15.07,15.07,0,0,1-11.28,4.56A11.15,11.15,0,0,1,750.42,152.52Zm12-5a14.18,14.18,0,0,0,4.14-3.21v-5h-6.54q-9.06,0-9.06,4.74a4.45,4.45,0,0,0,1.47,3.48q1.47,1.32,4.89,1.32A10.85,10.85,0,0,0,762.45,147.51Z"/><path d="M780.21,150.9a2.29,2.29,0,0,1-1-2,2.41,2.41,0,0,1,.66-1.68,2.18,2.18,0,0,1,1.68-.72,2.64,2.64,0,0,1,1.08.24,24.25,24.25,0,0,0,3.84,1.32,17.85,17.85,0,0,0,4.32.48q6.66,0,6.66-4.26a2.27,2.27,0,0,0-1.53-2.1,31.33,31.33,0,0,0-5-1.62,45.27,45.27,0,0,1-5.85-1.74,10.29,10.29,0,0,1-4-2.73,6.94,6.94,0,0,1-1.65-4.83,8.65,8.65,0,0,1,3-6.84q3-2.64,8.67-2.64a25,25,0,0,1,8.7,1.5,2.25,2.25,0,0,1,1.29.9,2.41,2.41,0,0,1,.45,1.38,2.35,2.35,0,0,1-.69,1.68,2.27,2.27,0,0,1-1.71.72,3.37,3.37,0,0,1-.78-.12,23,23,0,0,0-6.84-1.08,9.37,9.37,0,0,0-5.07,1.17,3.49,3.49,0,0,0-1.83,3,2.77,2.77,0,0,0,1.68,2.64,24,24,0,0,0,5.22,1.62,50,50,0,0,1,5.76,1.77,9.52,9.52,0,0,1,3.81,2.73,7.41,7.41,0,0,1,1.59,5,7.93,7.93,0,0,1-3,6.36q-3,2.52-8.55,2.52A22.32,22.32,0,0,1,780.21,150.9Z"/><path d="M828.54,152.52a8.52,8.52,0,0,1-3.57-3.15,8.68,8.68,0,0,1-1.32-4.77,8.41,8.41,0,0,1,3.51-7.08q3.51-2.64,10.29-2.64h7.26v-.48q0-4-2-5.7T836.67,127a20.45,20.45,0,0,0-4,.36,34,34,0,0,0-3.93,1.08,3.37,3.37,0,0,1-.78.12,2.13,2.13,0,0,1-1.56-.66,2.2,2.2,0,0,1-.66-1.62,2.31,2.31,0,0,1,1.56-2.28,26.39,26.39,0,0,1,10.38-2.16,13.55,13.55,0,0,1,7,1.68,10.56,10.56,0,0,1,4.2,4.35,12.65,12.65,0,0,1,1.35,5.79v17a2.56,2.56,0,0,1-.81,1.92,2.71,2.71,0,0,1-2,.78,2.66,2.66,0,0,1-2.7-2.7V149a15.07,15.07,0,0,1-11.28,4.56A11.15,11.15,0,0,1,828.54,152.52Zm12-5a14.18,14.18,0,0,0,4.14-3.21v-5h-6.54q-9.06,0-9.06,4.74a4.45,4.45,0,0,0,1.47,3.48q1.47,1.32,4.89,1.32A10.85,10.85,0,0,0,840.57,147.51Z"/><path d="M880.41,149v1.56a2.56,2.56,0,0,1-.81,1.92,2.73,2.73,0,0,1-2,.78,2.66,2.66,0,0,1-2.7-2.7V111.66a2.67,2.67,0,0,1,.78-2,2.55,2.55,0,0,1,1.92-.81,2.67,2.67,0,0,1,2.76,2.76v14.7a13.76,13.76,0,0,1,10.26-4.56,14.07,14.07,0,0,1,7.05,1.89,14.34,14.34,0,0,1,5.4,5.52,18.45,18.45,0,0,1,0,17,14.34,14.34,0,0,1-5.4,5.52,14.07,14.07,0,0,1-7.05,1.89A13.76,13.76,0,0,1,880.41,149ZM897,145.68q2.7-2.82,2.7-8t-2.7-8a9.44,9.44,0,0,0-7.14-2.82,11.33,11.33,0,0,0-5.19,1.23,14.69,14.69,0,0,0-4.29,3.27V144a14.69,14.69,0,0,0,4.29,3.27,11.33,11.33,0,0,0,5.19,1.23A9.44,9.44,0,0,0,897,145.68Z"/><path d="M917.52,152a10.08,10.08,0,0,1-3.72-4.26,13.46,13.46,0,0,1-1.29-5.94v-17a2.56,2.56,0,0,1,.81-1.92,2.69,2.69,0,0,1,1.95-.78,2.66,2.66,0,0,1,2.7,2.7v16.44c0,4.88,2.19,7.32,6.6,7.32a9.59,9.59,0,0,0,5.37-1.56,19.85,19.85,0,0,0,4.47-4.2v-18a2.56,2.56,0,0,1,.81-1.92,2.69,2.69,0,0,1,1.95-.78,2.66,2.66,0,0,1,2.7,2.7v25.74a2.75,2.75,0,0,1-.78,2,2.59,2.59,0,0,1-1.92.81,2.77,2.77,0,0,1-2.76-2.76v-2.46a20.32,20.32,0,0,1-4.92,4,12.45,12.45,0,0,1-6.24,1.5A10.35,10.35,0,0,1,917.52,152Z"/><path d="M950.12,152.52a2.61,2.61,0,0,1-.78-1.92V124.86a2.71,2.71,0,0,1,.78-2,2.56,2.56,0,0,1,1.92-.81,2.77,2.77,0,0,1,2.76,2.76v2.46a19.94,19.94,0,0,1,4.92-4,12.42,12.42,0,0,1,6.24-1.5,10.37,10.37,0,0,1,5.73,1.56,10.14,10.14,0,0,1,3.72,4.26,13.6,13.6,0,0,1,1.29,5.94v17a2.56,2.56,0,0,1-.81,1.92,2.71,2.71,0,0,1-1.95.78,2.66,2.66,0,0,1-2.7-2.7V134.16q0-7.32-6.6-7.32a9.55,9.55,0,0,0-5.37,1.56,19.44,19.44,0,0,0-4.47,4.2v18a2.56,2.56,0,0,1-.81,1.92,2.71,2.71,0,0,1-2,.78A2.61,2.61,0,0,1,950.12,152.52Z"/><path d="M992.06,151.68a14.78,14.78,0,0,1-5.85-5.52,17.44,17.44,0,0,1,0-16.92,14.78,14.78,0,0,1,5.85-5.52,16.92,16.92,0,0,1,8-1.92,16.63,16.63,0,0,1,5.49.81,20.74,20.74,0,0,1,4.29,2.07,2.39,2.39,0,0,1,.51,3.75,2.11,2.11,0,0,1-1.59.75,2.74,2.74,0,0,1-1.32-.36,22.85,22.85,0,0,0-3.39-1.47,11.7,11.7,0,0,0-3.51-.45,10.88,10.88,0,0,0-8.1,3,11.9,11.9,0,0,0,0,15.66,10.88,10.88,0,0,0,8.1,3,11.7,11.7,0,0,0,3.51-.45,22.85,22.85,0,0,0,3.39-1.47,2.74,2.74,0,0,1,1.32-.36,2.11,2.11,0,0,1,1.59.75,2.39,2.39,0,0,1-.51,3.75,20.74,20.74,0,0,1-4.29,2.07,16.63,16.63,0,0,1-5.49.81A16.92,16.92,0,0,1,992.06,151.68Z"/><path d="M1018.64,152.52a2.61,2.61,0,0,1-.78-1.92V111.66a2.71,2.71,0,0,1,.78-2,2.56,2.56,0,0,1,1.92-.81,2.77,2.77,0,0,1,2.76,2.76v15.66a19.94,19.94,0,0,1,4.92-4,12.42,12.42,0,0,1,6.24-1.5,10.37,10.37,0,0,1,5.73,1.56,10.14,10.14,0,0,1,3.72,4.26,13.6,13.6,0,0,1,1.29,5.94v17a2.56,2.56,0,0,1-.81,1.92,2.71,2.71,0,0,1-2,.78,2.66,2.66,0,0,1-2.7-2.7V134.16q0-7.32-6.6-7.32a9.55,9.55,0,0,0-5.37,1.56,19.44,19.44,0,0,0-4.47,4.2v18a2.56,2.56,0,0,1-.81,1.92,2.71,2.71,0,0,1-2,.78A2.61,2.61,0,0,1,1018.64,152.52Z"/><path d="M1055.63,152.19a3.47,3.47,0,0,1-1.05-2.55,3.59,3.59,0,0,1,3.54-3.54,3.47,3.47,0,0,1,2.55,1.05,3.4,3.4,0,0,1,1,2.49,3.59,3.59,0,0,1-3.6,3.6A3.4,3.4,0,0,1,1055.63,152.19Zm1-11.25a1.8,1.8,0,0,1-.6-1.26l-1.08-19.8v-5.94a3.07,3.07,0,0,1,3.12-3.12,2.92,2.92,0,0,1,2.19.9,3.07,3.07,0,0,1,.87,2.22v5.94l-1.08,19.8a1.86,1.86,0,0,1-.57,1.26,2,2,0,0,1-1.41.48A2.09,2.09,0,0,1,1056.68,140.94Z"/></svg>