<svg id="Layer_1" data-name="Layer 1" xmlns="http://www.w3.org/2000/svg" viewBox="0 0 1920 1080"><defs><style>.cls-1{fill:#ffff1a;}.cls-1,.cls-2{opacity:0.5;}.cls-2{fill:#e03838;}.cls-3{fill:#4d4d4d;}</style></defs><title>56</title><path class="cls-1" d="M784.11,595.63c14.09,83.16,44.32,390.7-96.29,415.4S455.1,1067,366.69,950.89,207.84,714.48,248.13,576.12,317,370.63,379.94,351.26s246.63-70.44,297.47,23.82S784.11,595.63,784.11,595.63Z"/><path class="cls-2" d="M1188.76,533.62c18.23,36.21,73,185.72-5,299.81s-127.37,197.22-192.46,195.75S871,1011,877.35,905.31,892.05,741.87,926,686.14s133.63-215.21,174.41-199S1188.76,533.62,1188.76,533.62Z"/><path d="M178,187.23a2.72,2.72,0,0,1-1.2-1,2.56,2.56,0,0,1,.21-3.24,2.3,2.3,0,0,1,1.77-.75,2.78,2.78,0,0,1,1.14.24A28.71,28.71,0,0,0,191.78,185q10.5,0,10.5-6.9a3.85,3.85,0,0,0-1.35-3,9.8,9.8,0,0,0-3.33-1.89q-2-.69-5.64-1.65a72.21,72.21,0,0,1-7.86-2.43,13.7,13.7,0,0,1-5.16-3.51,8.84,8.84,0,0,1-2.16-6.24,11.21,11.21,0,0,1,1.8-6.21,12.38,12.38,0,0,1,5.31-4.44,19.68,19.68,0,0,1,8.43-1.65,34.14,34.14,0,0,1,11.94,2,2.34,2.34,0,0,1,1.68,2.4,2.63,2.63,0,0,1-.66,1.74,2.17,2.17,0,0,1-1.74.78,2.77,2.77,0,0,1-1-.24,29.33,29.33,0,0,0-9.66-1.62,14.71,14.71,0,0,0-7.71,1.8,5.61,5.61,0,0,0-3,5,4.64,4.64,0,0,0,1.41,3.51,9.69,9.69,0,0,0,3.54,2.1,55.78,55.78,0,0,0,5.79,1.59,60.29,60.29,0,0,1,7.65,2.28,12.52,12.52,0,0,1,5,3.54,9.58,9.58,0,0,1,2.07,6.48,10.08,10.08,0,0,1-1.92,6,12.6,12.6,0,0,1-5.4,4.17,20.16,20.16,0,0,1-8,1.5A35.59,35.59,0,0,1,178,187.23Z"/><path d="M220.4,188.13a13.46,13.46,0,0,1-5.37-5.61,19.21,19.21,0,0,1,0-16.62,13.46,13.46,0,0,1,5.37-5.61,17.44,17.44,0,0,1,16.14,0,13.65,13.65,0,0,1,5.4,5.61,18.94,18.94,0,0,1,0,16.62,13.65,13.65,0,0,1-5.4,5.61,17.44,17.44,0,0,1-16.14,0ZM233.21,184a9.16,9.16,0,0,0,3.72-3.6,12,12,0,0,0,1.47-6.24,11.88,11.88,0,0,0-1.47-6.18,9,9,0,0,0-3.72-3.57,10.52,10.52,0,0,0-4.71-1.11,10.64,10.64,0,0,0-4.77,1.11A8.78,8.78,0,0,0,220,168a12.08,12.08,0,0,0-1.44,6.18,12.21,12.21,0,0,0,1.44,6.24,9,9,0,0,0,3.69,3.6,10.41,10.41,0,0,0,4.77,1.14A10.29,10.29,0,0,0,233.21,184Z"/><path d="M267.86,189a2.57,2.57,0,0,1-.78-1.92V161.37a2.67,2.67,0,0,1,.78-2,2.56,2.56,0,0,1,1.92-.81,2.77,2.77,0,0,1,2.76,2.76v2.46a14.67,14.67,0,0,1,4-4,11,11,0,0,1,6.15-1.56,9.33,9.33,0,0,1,5.76,1.8,10.19,10.19,0,0,1,3.42,4.38,12.08,12.08,0,0,1,11-6.18,9.11,9.11,0,0,1,5.61,1.68,10,10,0,0,1,3.33,4.32,14.44,14.44,0,0,1,1.08,5.52v17.28a2.56,2.56,0,0,1-.81,1.92,2.73,2.73,0,0,1-1.95.78,2.66,2.66,0,0,1-2.7-2.7v-16.2q0-3.9-1.38-5.73c-.93-1.22-2.5-1.83-4.74-1.83a7.92,7.92,0,0,0-5.07,1.59,15,15,0,0,0-3.57,4.17v18A2.56,2.56,0,0,1,292,189a2.73,2.73,0,0,1-1.95.78,2.66,2.66,0,0,1-2.7-2.7v-16.2c0-2.6-.47-4.51-1.38-5.73s-2.5-1.83-4.74-1.83a7.92,7.92,0,0,0-5.07,1.59,15.21,15.21,0,0,0-3.57,4.17v18a2.56,2.56,0,0,1-.81,1.92,2.73,2.73,0,0,1-2,.78A2.61,2.61,0,0,1,267.86,189Z"/><path d="M326.63,188.55a10.14,10.14,0,0,1-3.72-4.26,13.46,13.46,0,0,1-1.29-5.94v-17a2.56,2.56,0,0,1,.81-1.92,2.71,2.71,0,0,1,1.95-.78,2.61,2.61,0,0,1,1.92.78,2.65,2.65,0,0,1,.78,1.92v16.44q0,7.32,6.6,7.32a9.55,9.55,0,0,0,5.37-1.56,19.44,19.44,0,0,0,4.47-4.2v-18a2.56,2.56,0,0,1,.81-1.92,2.71,2.71,0,0,1,1.95-.78,2.66,2.66,0,0,1,2.7,2.7v25.74a2.71,2.71,0,0,1-.78,1.95,2.56,2.56,0,0,1-1.92.81,2.77,2.77,0,0,1-2.76-2.76v-2.46a19.94,19.94,0,0,1-4.92,4,12.45,12.45,0,0,1-6.24,1.5A10.37,10.37,0,0,1,326.63,188.55Z"/><path d="M364.64,188.19a14.71,14.71,0,0,1-5.85-5.52,17.44,17.44,0,0,1,0-16.92,14.71,14.71,0,0,1,5.85-5.52,16.89,16.89,0,0,1,8-1.92,16.71,16.71,0,0,1,5.49.81,21,21,0,0,1,4.29,2.07,2.39,2.39,0,0,1,.51,3.75,2.12,2.12,0,0,1-1.59.75,2.71,2.71,0,0,1-1.32-.36,23.31,23.31,0,0,0-3.39-1.47,11.7,11.7,0,0,0-3.51-.45q-5.18,0-8.1,3A11.9,11.9,0,0,0,365,182q2.92,3,8.1,3a11.7,11.7,0,0,0,3.51-.45,23.31,23.31,0,0,0,3.39-1.47,2.71,2.71,0,0,1,1.32-.36,2.12,2.12,0,0,1,1.59.75,2.39,2.39,0,0,1-.51,3.75,21,21,0,0,1-4.29,2.07,16.71,16.71,0,0,1-5.49.81A16.89,16.89,0,0,1,364.64,188.19Z"/><path d="M391.21,189a2.6,2.6,0,0,1-.77-1.92V148.17a2.7,2.7,0,0,1,.77-1.95,2.56,2.56,0,0,1,1.92-.81,2.78,2.78,0,0,1,2.77,2.76v15.66a19.72,19.72,0,0,1,4.91-4,12.42,12.42,0,0,1,6.24-1.5,10.35,10.35,0,0,1,5.73,1.56,10.14,10.14,0,0,1,3.72,4.26,13.6,13.6,0,0,1,1.29,5.94v17A2.56,2.56,0,0,1,417,189a2.71,2.71,0,0,1-2,.78,2.66,2.66,0,0,1-2.7-2.7V170.67q0-7.32-6.6-7.32a9.55,9.55,0,0,0-5.37,1.56,19.2,19.2,0,0,0-4.46,4.2v18a2.57,2.57,0,0,1-.82,1.92,2.71,2.71,0,0,1-1.95.78A2.61,2.61,0,0,1,391.21,189Z"/><path d="M445.63,189a2.61,2.61,0,0,1-.78-1.92V163.59h-3.54a2.36,2.36,0,0,1-2.34-2.34,2.22,2.22,0,0,1,.69-1.68,2.3,2.3,0,0,1,1.65-.66h3.54v-3.48a12,12,0,0,1,1.29-5.91,8,8,0,0,1,3.36-3.36,9.49,9.49,0,0,1,4.35-1,11.51,11.51,0,0,1,5.22,1.2,2.59,2.59,0,0,1,1,.87,2.14,2.14,0,0,1,.39,1.23,2.23,2.23,0,0,1-.66,1.59,2.09,2.09,0,0,1-1.56.69,5.69,5.69,0,0,1-1.38-.18q-1.44-.18-1.62-.18a5.26,5.26,0,0,0-3.69,1.14q-1.23,1.14-1.23,4.14v3.3h7.5a2.26,2.26,0,0,1,2.34,2.34,2.3,2.3,0,0,1-.66,1.65,2.22,2.22,0,0,1-1.68.69h-7.5v23.52a2.56,2.56,0,0,1-.81,1.92,2.71,2.71,0,0,1-1.95.78A2.61,2.61,0,0,1,445.63,189Z"/><path d="M470.2,188.55a10.14,10.14,0,0,1-3.72-4.26,13.6,13.6,0,0,1-1.29-5.94v-17a2.56,2.56,0,0,1,.81-1.92,2.71,2.71,0,0,1,1.95-.78,2.66,2.66,0,0,1,2.7,2.7v16.44q0,7.32,6.6,7.32a9.55,9.55,0,0,0,5.37-1.56,19.44,19.44,0,0,0,4.47-4.2v-18a2.56,2.56,0,0,1,.81-1.92,2.71,2.71,0,0,1,2-.78,2.66,2.66,0,0,1,2.7,2.7v25.74a2.71,2.71,0,0,1-.78,1.95,2.56,2.56,0,0,1-1.92.81,2.77,2.77,0,0,1-2.76-2.76v-2.46a19.94,19.94,0,0,1-4.92,4,12.42,12.42,0,0,1-6.24,1.5A10.37,10.37,0,0,1,470.2,188.55Z"/><path d="M502.81,189a2.61,2.61,0,0,1-.78-1.92V161.37a2.71,2.71,0,0,1,.78-2,2.56,2.56,0,0,1,1.92-.81,2.77,2.77,0,0,1,2.76,2.76v2.46a19.94,19.94,0,0,1,4.92-4,12.42,12.42,0,0,1,6.24-1.5,10.37,10.37,0,0,1,5.73,1.56,10.14,10.14,0,0,1,3.72,4.26,13.6,13.6,0,0,1,1.29,5.94v17a2.56,2.56,0,0,1-.81,1.92,2.71,2.71,0,0,1-2,.78,2.66,2.66,0,0,1-2.7-2.7V170.67q0-7.32-6.6-7.32a9.55,9.55,0,0,0-5.37,1.56,19.44,19.44,0,0,0-4.47,4.2v18a2.56,2.56,0,0,1-.81,1.92,2.71,2.71,0,0,1-1.95.78A2.61,2.61,0,0,1,502.81,189Z"/><path d="M538.12,198a1.78,1.78,0,0,1-.51-1.26,1.67,1.67,0,0,1,.9-1.5,6.85,6.85,0,0,0,2.28-2.1,6.41,6.41,0,0,0,.78-3.48h-.24a3.38,3.38,0,0,1-3.36-3.36V186a3.38,3.38,0,0,1,3.36-3.36h.6a3.38,3.38,0,0,1,3.36,3.36v3.54a9.65,9.65,0,0,1-4.92,8.76,1.89,1.89,0,0,1-1,.3A1.63,1.63,0,0,1,538.12,198Z"/><path d="M185,261.09a3.66,3.66,0,0,1-1.32-1.8l-8.52-25a3.23,3.23,0,0,1-.18-1,2.66,2.66,0,0,1,2.7-2.7,2.74,2.74,0,0,1,1.53.45,2.21,2.21,0,0,1,.93,1.17l7,23.1,7-22.56a3.08,3.08,0,0,1,5.88,0l7,22.56,7-23.1a2.21,2.21,0,0,1,.93-1.17,2.74,2.74,0,0,1,1.53-.45,2.66,2.66,0,0,1,2.7,2.7,3.23,3.23,0,0,1-.18,1l-8.52,25a3.66,3.66,0,0,1-1.32,1.8,3.6,3.6,0,0,1-4.32,0,4,4,0,0,1-1.38-1.86l-6.36-19.86-6.36,19.86a4,4,0,0,1-1.38,1.86,3.6,3.6,0,0,1-4.32,0Z"/><path d="M227.39,257.94q-4.11-4.17-4.11-11.73a19.56,19.56,0,0,1,1.56-7.86,13.36,13.36,0,0,1,4.8-5.82,13.79,13.79,0,0,1,8-2.22,14,14,0,0,1,7.68,2.07,13.39,13.39,0,0,1,4.92,5.52,17,17,0,0,1,1.68,7.53,2.62,2.62,0,0,1-2.76,2.7H228.8a9.87,9.87,0,0,0,3.12,6.54q2.64,2.34,7.38,2.34a18,18,0,0,0,4.41-.48,18.32,18.32,0,0,0,3.69-1.38,2.38,2.38,0,0,1,1.08-.24,2.41,2.41,0,0,1,1.68.66,2.18,2.18,0,0,1,.72,1.68,2.59,2.59,0,0,1-1.56,2.22,18.74,18.74,0,0,1-10.5,2.64Q231.5,262.11,227.39,257.94Zm19.11-14.25a9.61,9.61,0,0,0-1.53-4.92,8.26,8.26,0,0,0-3.33-2.91,9.15,9.15,0,0,0-8,0,8.06,8.06,0,0,0-3.3,2.91,9.79,9.79,0,0,0-1.5,4.92Z"/><path d="M280.16,257.55v1.56a2.56,2.56,0,0,1-.81,1.92,2.71,2.71,0,0,1-2,.78,2.66,2.66,0,0,1-2.7-2.7V220.17a2.71,2.71,0,0,1,.78-1.95,2.56,2.56,0,0,1,1.92-.81,2.67,2.67,0,0,1,2.76,2.76v14.7a13.79,13.79,0,0,1,10.26-4.56,14.07,14.07,0,0,1,7.05,1.89,14.34,14.34,0,0,1,5.4,5.52,18.45,18.45,0,0,1,0,17,14.34,14.34,0,0,1-5.4,5.52,14.07,14.07,0,0,1-7.05,1.89A13.79,13.79,0,0,1,280.16,257.55Zm16.62-3.36q2.7-2.82,2.7-8t-2.7-8a9.43,9.43,0,0,0-7.14-2.82,11.33,11.33,0,0,0-5.19,1.23,14.82,14.82,0,0,0-4.29,3.27v12.6a14.82,14.82,0,0,0,4.29,3.27,11.33,11.33,0,0,0,5.19,1.23A9.43,9.43,0,0,0,296.78,254.19Z"/><path d="M318,260.13a13.46,13.46,0,0,1-5.37-5.61,19.21,19.21,0,0,1,0-16.62,13.46,13.46,0,0,1,5.37-5.61,17.44,17.44,0,0,1,16.14,0,13.65,13.65,0,0,1,5.4,5.61,18.94,18.94,0,0,1,0,16.62,13.65,13.65,0,0,1-5.4,5.61,17.44,17.44,0,0,1-16.14,0ZM330.77,256a9.16,9.16,0,0,0,3.72-3.6,12,12,0,0,0,1.47-6.24,11.88,11.88,0,0,0-1.47-6.18,9,9,0,0,0-3.72-3.57,10.52,10.52,0,0,0-4.71-1.11,10.64,10.64,0,0,0-4.77,1.11A8.78,8.78,0,0,0,317.6,240a12.08,12.08,0,0,0-1.44,6.18,12.21,12.21,0,0,0,1.44,6.24,9,9,0,0,0,3.69,3.6,10.41,10.41,0,0,0,4.77,1.14A10.29,10.29,0,0,0,330.77,256Z"/><path d="M349.82,261a2.57,2.57,0,0,1-.78-1.92V233.37a2.67,2.67,0,0,1,.78-2,2.55,2.55,0,0,1,1.92-.81,2.77,2.77,0,0,1,2.76,2.76v2.46a19.76,19.76,0,0,1,4.92-4,12.42,12.42,0,0,1,6.24-1.5,10.4,10.4,0,0,1,5.73,1.56,10.21,10.21,0,0,1,3.72,4.26,13.6,13.6,0,0,1,1.29,5.94v17a2.56,2.56,0,0,1-.81,1.92,2.71,2.71,0,0,1-1.95.78,2.66,2.66,0,0,1-2.7-2.7V242.67c0-4.88-2.21-7.32-6.6-7.32a9.5,9.5,0,0,0-5.37,1.56,19.24,19.24,0,0,0-4.47,4.2v18a2.56,2.56,0,0,1-.81,1.92,2.73,2.73,0,0,1-1.95.78A2.59,2.59,0,0,1,349.82,261Z"/><path d="M391.19,260.22a14.27,14.27,0,0,1-5.4-5.52,18.37,18.37,0,0,1,0-17,14.27,14.27,0,0,1,5.4-5.52,14,14,0,0,1,7-1.89,13.83,13.83,0,0,1,10.27,4.56v-14.7a2.63,2.63,0,0,1,.81-2,2.67,2.67,0,0,1,1.94-.78,2.56,2.56,0,0,1,1.92.81,2.72,2.72,0,0,1,.79,1.95v38.94a2.68,2.68,0,0,1-2.71,2.7,2.67,2.67,0,0,1-1.94-.78,2.56,2.56,0,0,1-.81-1.92v-1.56a13.83,13.83,0,0,1-10.27,4.56A14,14,0,0,1,391.19,260.22Zm13-4.44a15,15,0,0,0,4.29-3.27v-12.6a15,15,0,0,0-4.29-3.27,11.39,11.39,0,0,0-5.19-1.23,9.4,9.4,0,0,0-7.14,2.82c-1.8,1.88-2.71,4.54-2.71,8s.91,6.1,2.71,8A9.4,9.4,0,0,0,399,257,11.39,11.39,0,0,0,404.21,255.78Z"/><path d="M425.69,257.94q-4.12-4.17-4.12-11.73a19.56,19.56,0,0,1,1.56-7.86,13.31,13.31,0,0,1,4.81-5.82,13.74,13.74,0,0,1,8-2.22,13.92,13.92,0,0,1,7.67,2.07,13.39,13.39,0,0,1,4.92,5.52,17,17,0,0,1,1.68,7.53,2.62,2.62,0,0,1-2.75,2.7H427.09a9.87,9.87,0,0,0,3.12,6.54q2.64,2.34,7.38,2.34a18,18,0,0,0,4.41-.48,18.32,18.32,0,0,0,3.69-1.38,2.38,2.38,0,0,1,1.08-.24,2.41,2.41,0,0,1,1.68.66,2.15,2.15,0,0,1,.72,1.68,2.59,2.59,0,0,1-1.56,2.22,18.74,18.74,0,0,1-10.5,2.64Q429.79,262.11,425.69,257.94Zm19.1-14.25a9.52,9.52,0,0,0-1.53-4.92,8.3,8.3,0,0,0-3.32-2.91,9.44,9.44,0,0,0-4-.93,9.3,9.3,0,0,0-4,.93,8,8,0,0,0-3.31,2.91,9.79,9.79,0,0,0-1.5,4.92Z"/><path d="M463,260.22a14.34,14.34,0,0,1-5.4-5.52,18.45,18.45,0,0,1,0-17,14.34,14.34,0,0,1,5.4-5.52,14.07,14.07,0,0,1,7.05-1.89,13.79,13.79,0,0,1,10.26,4.56v-14.7a2.63,2.63,0,0,1,.81-2,2.71,2.71,0,0,1,1.95-.78,2.56,2.56,0,0,1,1.92.81,2.71,2.71,0,0,1,.78,1.95v38.94a2.66,2.66,0,0,1-2.7,2.7,2.71,2.71,0,0,1-1.95-.78,2.56,2.56,0,0,1-.81-1.92v-1.56a13.79,13.79,0,0,1-10.26,4.56A14.07,14.07,0,0,1,463,260.22Zm13-4.44a14.82,14.82,0,0,0,4.29-3.27v-12.6a14.82,14.82,0,0,0-4.29-3.27,11.33,11.33,0,0,0-5.19-1.23,9.43,9.43,0,0,0-7.14,2.82q-2.7,2.82-2.7,8t2.7,8a9.43,9.43,0,0,0,7.14,2.82A11.33,11.33,0,0,0,476,255.78Z"/><path d="M511.63,261a2.61,2.61,0,0,1-.78-1.92V220.17a2.71,2.71,0,0,1,.78-1.95,2.56,2.56,0,0,1,1.92-.81,2.67,2.67,0,0,1,2.76,2.76v38.94a2.56,2.56,0,0,1-.81,1.92,2.71,2.71,0,0,1-2,.78A2.61,2.61,0,0,1,511.63,261Z"/><path d="M526.21,223.77a3,3,0,0,1-.9-2.16v-.24a3.07,3.07,0,0,1,3.06-3.06h.36a3.07,3.07,0,0,1,3.06,3.06v.24a3.07,3.07,0,0,1-3.06,3.06h-.36A3,3,0,0,1,526.21,223.77Zm.36,37.26a2.61,2.61,0,0,1-.78-1.92V233.37a2.71,2.71,0,0,1,.78-2,2.56,2.56,0,0,1,1.92-.81,2.67,2.67,0,0,1,2.76,2.76v25.74a2.56,2.56,0,0,1-.81,1.92,2.71,2.71,0,0,1-2,.78A2.61,2.61,0,0,1,526.57,261Z"/><path d="M541.51,261a2.61,2.61,0,0,1-.78-1.92V220.17a2.71,2.71,0,0,1,.78-1.95,2.56,2.56,0,0,1,1.92-.81,2.77,2.77,0,0,1,2.76,2.76v24.54l14.28-13.2a2.76,2.76,0,0,1,1.8-.78,2.43,2.43,0,0,1,2,.78,2.87,2.87,0,0,1,.63,1.86,2.94,2.94,0,0,1-1,2l-8.64,7.74,10.86,14.4a2.63,2.63,0,0,1,.6,1.62,2.49,2.49,0,0,1-.78,1.92,2.81,2.81,0,0,1-2,.72,2.66,2.66,0,0,1-1.2-.3,3,3,0,0,1-1-.84l-10.32-14-5.22,4.74v7.74a2.56,2.56,0,0,1-.81,1.92,2.71,2.71,0,0,1-2,.78A2.61,2.61,0,0,1,541.51,261Z"/><path d="M575.14,257.94Q571,253.77,571,246.21a19.56,19.56,0,0,1,1.56-7.86,13.36,13.36,0,0,1,4.8-5.82,13.79,13.79,0,0,1,8-2.22,14,14,0,0,1,7.68,2.07A13.39,13.39,0,0,1,598,237.9a17,17,0,0,1,1.68,7.53,2.62,2.62,0,0,1-2.76,2.7H576.55a9.87,9.87,0,0,0,3.12,6.54q2.64,2.34,7.38,2.34a18,18,0,0,0,4.41-.48,18.32,18.32,0,0,0,3.69-1.38,2.38,2.38,0,0,1,1.08-.24,2.41,2.41,0,0,1,1.68.66,2.18,2.18,0,0,1,.72,1.68,2.59,2.59,0,0,1-1.56,2.22,18.74,18.74,0,0,1-10.5,2.64Q579.25,262.11,575.14,257.94Zm19.11-14.25a9.61,9.61,0,0,0-1.53-4.92,8.26,8.26,0,0,0-3.33-2.91,9.15,9.15,0,0,0-8,0,8.06,8.06,0,0,0-3.3,2.91,9.79,9.79,0,0,0-1.5,4.92Z"/><path d="M629.71,275a23,23,0,0,1-5.82-2.22,2.28,2.28,0,0,1-1.08-2.1,2.46,2.46,0,0,1,.69-1.71,2.23,2.23,0,0,1,1.71-.75,3,3,0,0,1,1.08.24,21.83,21.83,0,0,0,9.9,2.28q9.18,0,9.18-9.78v-4a13.54,13.54,0,0,1-10.26,4.56,14.46,14.46,0,0,1-6.87-1.77,14.3,14.3,0,0,1-5.49-5.28,18,18,0,0,1,0-17.1,14.3,14.3,0,0,1,5.49-5.28,14.46,14.46,0,0,1,6.87-1.77,13.54,13.54,0,0,1,10.26,4.56v-1.5a2.71,2.71,0,0,1,.78-2,2.56,2.56,0,0,1,1.92-.81,2.77,2.77,0,0,1,2.76,2.76v26.82q0,7.56-3.66,11.64t-10.44,4.08A28.4,28.4,0,0,1,629.71,275Zm11.52-19.68a18,18,0,0,0,4.14-3.24V239.73a18,18,0,0,0-4.14-3.24,10.08,10.08,0,0,0-5-1.2A10.19,10.19,0,0,0,628.9,238q-2.85,2.73-2.85,7.89t2.85,7.89a10.19,10.19,0,0,0,7.35,2.73A10.08,10.08,0,0,0,641.23,255.33Z"/><path d="M661.09,261a2.61,2.61,0,0,1-.78-1.92V220.17a2.71,2.71,0,0,1,.78-1.95,2.56,2.56,0,0,1,1.92-.81,2.67,2.67,0,0,1,2.76,2.76v38.94A2.56,2.56,0,0,1,665,261a2.71,2.71,0,0,1-2,.78A2.61,2.61,0,0,1,661.09,261Z"/><path d="M680,260.55a10.14,10.14,0,0,1-3.72-4.26,13.6,13.6,0,0,1-1.29-5.94v-17a2.56,2.56,0,0,1,.81-1.92,2.71,2.71,0,0,1,2-.78,2.66,2.66,0,0,1,2.7,2.7v16.44q0,7.32,6.6,7.32a9.55,9.55,0,0,0,5.37-1.56,19.44,19.44,0,0,0,4.47-4.2v-18a2.56,2.56,0,0,1,.81-1.92,2.71,2.71,0,0,1,2-.78,2.66,2.66,0,0,1,2.7,2.7v25.74a2.71,2.71,0,0,1-.78,1.95,2.56,2.56,0,0,1-1.92.81,2.77,2.77,0,0,1-2.76-2.76v-2.46a19.94,19.94,0,0,1-4.92,4,12.42,12.42,0,0,1-6.24,1.5A10.37,10.37,0,0,1,680,260.55Z"/><path d="M714,257.94q-4.11-4.17-4.11-11.73a19.56,19.56,0,0,1,1.56-7.86,13.36,13.36,0,0,1,4.8-5.82,13.79,13.79,0,0,1,8-2.22,14,14,0,0,1,7.68,2.07,13.39,13.39,0,0,1,4.92,5.52,17,17,0,0,1,1.68,7.53,2.62,2.62,0,0,1-2.76,2.7H715.45a9.87,9.87,0,0,0,3.12,6.54Q721.21,257,726,257a18,18,0,0,0,4.41-.48,18.32,18.32,0,0,0,3.69-1.38,2.38,2.38,0,0,1,1.08-.24,2.41,2.41,0,0,1,1.68.66,2.18,2.18,0,0,1,.72,1.68,2.59,2.59,0,0,1-1.56,2.22,18.74,18.74,0,0,1-10.5,2.64Q718.15,262.11,714,257.94Zm19.11-14.25a9.61,9.61,0,0,0-1.53-4.92,8.26,8.26,0,0,0-3.33-2.91,9.15,9.15,0,0,0-8,0,8.06,8.06,0,0,0-3.3,2.91,9.79,9.79,0,0,0-1.5,4.92Z"/><path d="M1026.9,386a2.61,2.61,0,0,1-.78-1.92V348.29a3.86,3.86,0,0,1,1.14-2.79,3.71,3.71,0,0,1,2.76-1.17h.78a4.06,4.06,0,0,1,3.3,1.8l23.1,33.36v-32.4a2.71,2.71,0,0,1,.78-1.95,2.56,2.56,0,0,1,1.92-.81,2.77,2.77,0,0,1,2.76,2.76v35.82a3.71,3.71,0,0,1-1.17,2.76,3.86,3.86,0,0,1-2.79,1.14H1058a3.75,3.75,0,0,1-1.8-.45,4.14,4.14,0,0,1-1.38-1.17l-23.22-33.54v32.46a2.56,2.56,0,0,1-.81,1.92,2.71,2.71,0,0,1-2,.78A2.61,2.61,0,0,1,1026.9,386Z"/><path d="M1077.78,385.13a13.46,13.46,0,0,1-5.37-5.61,19.21,19.21,0,0,1,0-16.62,13.46,13.46,0,0,1,5.37-5.61,17.44,17.44,0,0,1,16.14,0,13.65,13.65,0,0,1,5.4,5.61,18.94,18.94,0,0,1,0,16.62,13.65,13.65,0,0,1-5.4,5.61,17.44,17.44,0,0,1-16.14,0Zm12.81-4.14a9.16,9.16,0,0,0,3.72-3.6,12,12,0,0,0,1.47-6.24,11.88,11.88,0,0,0-1.47-6.18,9,9,0,0,0-3.72-3.57,10.52,10.52,0,0,0-4.71-1.11,10.64,10.64,0,0,0-4.77,1.11,8.78,8.78,0,0,0-3.69,3.57,12.08,12.08,0,0,0-1.44,6.18,12.21,12.21,0,0,0,1.44,6.24,9,9,0,0,0,3.69,3.6,10.41,10.41,0,0,0,4.77,1.14A10.29,10.29,0,0,0,1090.59,381Z"/><path d="M1115.4,386.09a3.66,3.66,0,0,1-1.32-1.8l-8.52-25a3.23,3.23,0,0,1-.18-1,2.66,2.66,0,0,1,2.7-2.7,2.74,2.74,0,0,1,1.53.45,2.21,2.21,0,0,1,.93,1.17l7,23.1,7-22.56a3.08,3.08,0,0,1,5.88,0l7,22.56,7-23.1a2.21,2.21,0,0,1,.93-1.17,2.74,2.74,0,0,1,1.53-.45,2.66,2.66,0,0,1,2.7,2.7,3.23,3.23,0,0,1-.18,1l-8.52,25a3.66,3.66,0,0,1-1.32,1.8,3.6,3.6,0,0,1-4.32,0,4,4,0,0,1-1.38-1.86l-6.36-19.86-6.36,19.86a4,4,0,0,1-1.38,1.86,3.6,3.6,0,0,1-4.32,0Z"/><path d="M1173.36,379.19v-18.6h-4.26a1.13,1.13,0,0,1-1.14-1.14,1.25,1.25,0,0,1,.54-1l8.16-8a1.51,1.51,0,0,1,1-.54,1.06,1.06,0,0,1,.81.36,1.2,1.2,0,0,1,.33.84v4.8h6.78a2.26,2.26,0,0,1,2.34,2.34,2.3,2.3,0,0,1-.66,1.65,2.22,2.22,0,0,1-1.68.69h-6.78v18.12q0,2.34,1.11,3a5.59,5.59,0,0,0,2.79.63,8.32,8.32,0,0,0,2.4-.36l.51-.12a3.27,3.27,0,0,1,.69-.06,2.11,2.11,0,0,1,1.5.63,2,2,0,0,1,.66,1.53,2.27,2.27,0,0,1-1.38,2.1,11.74,11.74,0,0,1-5,1.08Q1173.36,387.11,1173.36,379.19Z"/><path d="M1195.26,386a2.57,2.57,0,0,1-.78-1.92V345.17a2.67,2.67,0,0,1,.78-1.95,2.55,2.55,0,0,1,1.92-.81,2.77,2.77,0,0,1,2.76,2.76v15.66a19.76,19.76,0,0,1,4.92-4,12.42,12.42,0,0,1,6.24-1.5,10.4,10.4,0,0,1,5.73,1.56,10.21,10.21,0,0,1,3.72,4.26,13.6,13.6,0,0,1,1.29,5.94v17A2.56,2.56,0,0,1,1221,386a2.73,2.73,0,0,1-2,.78,2.58,2.58,0,0,1-1.92-.78,2.61,2.61,0,0,1-.78-1.92V367.67c0-4.88-2.21-7.32-6.6-7.32a9.5,9.5,0,0,0-5.37,1.56,19,19,0,0,0-4.47,4.2v18a2.56,2.56,0,0,1-.81,1.92,2.73,2.73,0,0,1-2,.78A2.59,2.59,0,0,1,1195.26,386Z"/><path d="M1233.92,386a8.52,8.52,0,0,1-3.57-3.15,8.68,8.68,0,0,1-1.32-4.77,8.43,8.43,0,0,1,3.51-7.08q3.51-2.64,10.29-2.64h7.26v-.48q0-4-1.94-5.7t-6.1-1.74a20.45,20.45,0,0,0-4,.36,34.54,34.54,0,0,0-3.93,1.08,3.37,3.37,0,0,1-.78.12,2.13,2.13,0,0,1-1.56-.66,2.2,2.2,0,0,1-.66-1.62,2.31,2.31,0,0,1,1.56-2.28,26.4,26.4,0,0,1,10.39-2.16,13.54,13.54,0,0,1,7,1.68,10.65,10.65,0,0,1,4.21,4.35,12.77,12.77,0,0,1,1.34,5.79v17a2.59,2.59,0,0,1-.8,1.92,2.73,2.73,0,0,1-2,.78,2.68,2.68,0,0,1-2.7-2.7v-1.56a15.06,15.06,0,0,1-11.28,4.56A11.15,11.15,0,0,1,1233.92,386Zm12-5a14.26,14.26,0,0,0,4.13-3.21v-5h-6.54q-9.06,0-9,4.74A4.44,4.44,0,0,0,1236,381q1.47,1.32,4.89,1.32A10.92,10.92,0,0,0,1246,381Z"/><path d="M1265.82,379.19v-18.6h-4.26a1.13,1.13,0,0,1-1.14-1.14,1.25,1.25,0,0,1,.54-1l8.16-8a1.5,1.5,0,0,1,1-.54,1.06,1.06,0,0,1,.81.36,1.25,1.25,0,0,1,.33.84v4.8h6.78a2.31,2.31,0,0,1,1.68.66,2.28,2.28,0,0,1,.66,1.68,2.3,2.3,0,0,1-.66,1.65,2.25,2.25,0,0,1-1.68.69h-6.78v18.12c0,1.56.36,2.55,1.11,3a5.57,5.57,0,0,0,2.79.63,8.37,8.37,0,0,0,2.4-.36l.51-.12a3.27,3.27,0,0,1,.69-.06,2.15,2.15,0,0,1,1.5.63,2.07,2.07,0,0,1,.66,1.53,2.27,2.27,0,0,1-1.38,2.1,11.77,11.77,0,0,1-5,1.08C1268.73,387.11,1265.82,384.47,1265.82,379.19Z"/><path d="M1309.49,386.09a3.66,3.66,0,0,1-1.32-1.8l-8.52-25a3.23,3.23,0,0,1-.18-1,2.66,2.66,0,0,1,2.7-2.7,2.74,2.74,0,0,1,1.53.45,2.21,2.21,0,0,1,.93,1.17l7,23.1,7-22.56a3.08,3.08,0,0,1,5.88,0l7,22.56,7-23.1a2.21,2.21,0,0,1,.93-1.17,2.74,2.74,0,0,1,1.53-.45,2.66,2.66,0,0,1,2.7,2.7,3.23,3.23,0,0,1-.18,1l-8.52,25a3.66,3.66,0,0,1-1.32,1.8,3.6,3.6,0,0,1-4.32,0,4,4,0,0,1-1.38-1.86l-6.36-19.86-6.36,19.86a4,4,0,0,1-1.38,1.86,3.6,3.6,0,0,1-4.32,0Z"/><path d="M1351.88,382.94q-4.11-4.17-4.11-11.73a19.56,19.56,0,0,1,1.56-7.86,13.36,13.36,0,0,1,4.8-5.82,13.79,13.79,0,0,1,8-2.22,14,14,0,0,1,7.68,2.07,13.39,13.39,0,0,1,4.92,5.52,17,17,0,0,1,1.68,7.53,2.62,2.62,0,0,1-2.76,2.7h-20.34a9.87,9.87,0,0,0,3.12,6.54q2.64,2.34,7.38,2.34a18,18,0,0,0,4.41-.48,18.32,18.32,0,0,0,3.69-1.38,2.38,2.38,0,0,1,1.08-.24,2.41,2.41,0,0,1,1.68.66,2.18,2.18,0,0,1,.72,1.68,2.59,2.59,0,0,1-1.56,2.22,18.74,18.74,0,0,1-10.5,2.64Q1356,387.11,1351.88,382.94ZM1371,368.69a9.61,9.61,0,0,0-1.53-4.92,8.26,8.26,0,0,0-3.33-2.91,9.15,9.15,0,0,0-8,0,8.06,8.06,0,0,0-3.3,2.91,9.79,9.79,0,0,0-1.5,4.92Z"/><path d="M1382.42,357.35a1.78,1.78,0,0,1-.51-1.26,1.67,1.67,0,0,1,.9-1.5,6.85,6.85,0,0,0,2.28-2.1,6.41,6.41,0,0,0,.78-3.48h-.24a3.38,3.38,0,0,1-3.36-3.36v-.36a3.38,3.38,0,0,1,3.36-3.36h.6a3.38,3.38,0,0,1,3.36,3.36v3.54a9.65,9.65,0,0,1-4.92,8.76,1.89,1.89,0,0,1-1,.3A1.63,1.63,0,0,1,1382.42,357.35Z"/><path d="M1397.93,386a2.61,2.61,0,0,1-.78-1.92V358.37a2.71,2.71,0,0,1,.78-1.95,2.56,2.56,0,0,1,1.92-.81,2.77,2.77,0,0,1,2.76,2.76V361q4.2-5.64,9.42-5.64h.3a2.51,2.51,0,0,1,1.89.78A2.66,2.66,0,0,1,1415,358a2.42,2.42,0,0,1-.78,1.86,2.81,2.81,0,0,1-2,.72h-.3a10.23,10.23,0,0,0-5.28,1.41,12.16,12.16,0,0,0-4,3.87v18.24a2.56,2.56,0,0,1-.81,1.92,2.71,2.71,0,0,1-2,.78A2.61,2.61,0,0,1,1397.93,386Z"/><path d="M1421.48,382.94q-4.11-4.17-4.11-11.73a19.56,19.56,0,0,1,1.56-7.86,13.36,13.36,0,0,1,4.8-5.82,13.79,13.79,0,0,1,8-2.22,14,14,0,0,1,7.68,2.07,13.39,13.39,0,0,1,4.92,5.52,17,17,0,0,1,1.68,7.53,2.62,2.62,0,0,1-2.76,2.7h-20.34a9.87,9.87,0,0,0,3.12,6.54q2.64,2.34,7.38,2.34a18,18,0,0,0,4.41-.48,18.32,18.32,0,0,0,3.69-1.38,2.38,2.38,0,0,1,1.08-.24,2.41,2.41,0,0,1,1.68.66,2.18,2.18,0,0,1,.72,1.68,2.59,2.59,0,0,1-1.56,2.22,18.74,18.74,0,0,1-10.5,2.64Q1425.59,387.11,1421.48,382.94Zm19.11-14.25a9.61,9.61,0,0,0-1.53-4.92,8.26,8.26,0,0,0-3.33-2.91,9.15,9.15,0,0,0-8,0,8.06,8.06,0,0,0-3.3,2.91,9.79,9.79,0,0,0-1.5,4.92Z"/><path d="M1474.4,385.22a14.34,14.34,0,0,1-5.4-5.52,18.45,18.45,0,0,1,0-17,14.34,14.34,0,0,1,5.4-5.52,14.07,14.07,0,0,1,7-1.89,13.79,13.79,0,0,1,10.26,4.56v-14.7a2.63,2.63,0,0,1,.81-2,2.71,2.71,0,0,1,2-.78,2.56,2.56,0,0,1,1.92.81,2.71,2.71,0,0,1,.78,1.95v38.94a2.66,2.66,0,0,1-2.7,2.7,2.71,2.71,0,0,1-2-.78,2.56,2.56,0,0,1-.81-1.92v-1.56a13.79,13.79,0,0,1-10.26,4.56A14.07,14.07,0,0,1,1474.4,385.22Zm13-4.44a14.82,14.82,0,0,0,4.29-3.27v-12.6a14.82,14.82,0,0,0-4.29-3.27,11.33,11.33,0,0,0-5.19-1.23,9.43,9.43,0,0,0-7.14,2.82q-2.7,2.82-2.7,8t2.7,8a9.43,9.43,0,0,0,7.14,2.82A11.33,11.33,0,0,0,1487.42,380.78Z"/><path d="M1512.05,385.13a13.46,13.46,0,0,1-5.37-5.61,19.21,19.21,0,0,1,0-16.62,13.46,13.46,0,0,1,5.37-5.61,17.44,17.44,0,0,1,16.14,0,13.65,13.65,0,0,1,5.4,5.61,18.94,18.94,0,0,1,0,16.62,13.65,13.65,0,0,1-5.4,5.61,17.44,17.44,0,0,1-16.14,0Zm12.81-4.14a9.16,9.16,0,0,0,3.72-3.6,12,12,0,0,0,1.47-6.24,11.88,11.88,0,0,0-1.47-6.18,9,9,0,0,0-3.72-3.57,10.52,10.52,0,0,0-4.71-1.11,10.64,10.64,0,0,0-4.77,1.11,8.78,8.78,0,0,0-3.69,3.57,12.08,12.08,0,0,0-1.44,6.18,12.21,12.21,0,0,0,1.44,6.24,9,9,0,0,0,3.69,3.6,10.41,10.41,0,0,0,4.77,1.14A10.29,10.29,0,0,0,1524.86,381Z"/><path d="M1543.91,386a2.61,2.61,0,0,1-.78-1.92V358.37a2.71,2.71,0,0,1,.78-1.95,2.56,2.56,0,0,1,1.92-.81,2.77,2.77,0,0,1,2.76,2.76v2.46a19.94,19.94,0,0,1,4.92-4,12.42,12.42,0,0,1,6.24-1.5,10.37,10.37,0,0,1,5.73,1.56,10.14,10.14,0,0,1,3.72,4.26,13.6,13.6,0,0,1,1.29,5.94v17a2.56,2.56,0,0,1-.81,1.92,2.71,2.71,0,0,1-2,.78,2.66,2.66,0,0,1-2.7-2.7V367.67q0-7.32-6.6-7.32a9.55,9.55,0,0,0-5.37,1.56,19.44,19.44,0,0,0-4.47,4.2v18a2.56,2.56,0,0,1-.81,1.92,2.71,2.71,0,0,1-2,.78A2.61,2.61,0,0,1,1543.91,386Z"/><path d="M1581.92,382.94q-4.11-4.17-4.11-11.73a19.56,19.56,0,0,1,1.56-7.86,13.36,13.36,0,0,1,4.8-5.82,13.79,13.79,0,0,1,8-2.22,14,14,0,0,1,7.68,2.07,13.39,13.39,0,0,1,4.92,5.52,17,17,0,0,1,1.68,7.53,2.62,2.62,0,0,1-2.76,2.7h-20.34a9.87,9.87,0,0,0,3.12,6.54q2.64,2.34,7.38,2.34a18,18,0,0,0,4.41-.48,18.32,18.32,0,0,0,3.69-1.38,2.38,2.38,0,0,1,1.08-.24,2.41,2.41,0,0,1,1.68.66,2.18,2.18,0,0,1,.72,1.68,2.59,2.59,0,0,1-1.56,2.22,18.74,18.74,0,0,1-10.5,2.64Q1586,387.11,1581.92,382.94ZM1601,368.69a9.61,9.61,0,0,0-1.53-4.92,8.26,8.26,0,0,0-3.33-2.91,9.15,9.15,0,0,0-8,0,8.06,8.06,0,0,0-3.3,2.91,9.79,9.79,0,0,0-1.5,4.92Z"/><path d="M1613.18,395a1.78,1.78,0,0,1-.51-1.26,1.67,1.67,0,0,1,.9-1.5,6.85,6.85,0,0,0,2.28-2.1,6.41,6.41,0,0,0,.78-3.48h-.24a3.38,3.38,0,0,1-3.36-3.36V383a3.38,3.38,0,0,1,3.36-3.36h.6a3.38,3.38,0,0,1,3.36,3.36v3.54a9.65,9.65,0,0,1-4.92,8.76,1.89,1.89,0,0,1-1,.3A1.63,1.63,0,0,1,1613.18,395Z"/><path d="M1026.9,458a2.61,2.61,0,0,1-.78-1.92v-37a2.71,2.71,0,0,1,.78-1.95,2.56,2.56,0,0,1,1.92-.81,2.77,2.77,0,0,1,2.76,2.76v37a2.56,2.56,0,0,1-.81,1.92,2.71,2.71,0,0,1-2,.78A2.61,2.61,0,0,1,1026.9,458Z"/><path d="M1056.72,456.41a2.29,2.29,0,0,1-1-2,2.41,2.41,0,0,1,.66-1.68A2.18,2.18,0,0,1,1058,452a2.64,2.64,0,0,1,1.08.24,24.25,24.25,0,0,0,3.84,1.32,17.85,17.85,0,0,0,4.32.48q6.66,0,6.66-4.26a2.27,2.27,0,0,0-1.53-2.1,31.33,31.33,0,0,0-5-1.62,45.27,45.27,0,0,1-5.85-1.74,10.29,10.29,0,0,1-4-2.73,6.94,6.94,0,0,1-1.65-4.83,8.65,8.65,0,0,1,3-6.84q3-2.64,8.67-2.64a25,25,0,0,1,8.7,1.5,2.25,2.25,0,0,1,1.29.9,2.41,2.41,0,0,1,.45,1.38,2.35,2.35,0,0,1-.69,1.68,2.27,2.27,0,0,1-1.71.72,3.37,3.37,0,0,1-.78-.12,23,23,0,0,0-6.84-1.08,9.37,9.37,0,0,0-5.07,1.17,3.49,3.49,0,0,0-1.83,3,2.77,2.77,0,0,0,1.68,2.64,24,24,0,0,0,5.22,1.62,50,50,0,0,1,5.76,1.77,9.52,9.52,0,0,1,3.81,2.73,7.41,7.41,0,0,1,1.59,5,7.93,7.93,0,0,1-3,6.36q-3,2.52-8.55,2.52A22.32,22.32,0,0,1,1056.72,456.41Z"/><path d="M1088.79,454.94c-2.75-2.78-4.11-6.69-4.11-11.73a19.39,19.39,0,0,1,1.56-7.86,13.29,13.29,0,0,1,4.8-5.82,13.76,13.76,0,0,1,8-2.22,14,14,0,0,1,7.68,2.07,13.39,13.39,0,0,1,4.92,5.52,17.1,17.1,0,0,1,1.68,7.53,2.71,2.71,0,0,1-.75,1.92,2.67,2.67,0,0,1-2,.78H1090.2a9.82,9.82,0,0,0,3.12,6.54Q1096,454,1100.7,454a18,18,0,0,0,4.41-.48,18.32,18.32,0,0,0,3.69-1.38,2.38,2.38,0,0,1,1.08-.24,2.43,2.43,0,0,1,1.68.66,2.18,2.18,0,0,1,.72,1.68,2.61,2.61,0,0,1-1.56,2.22,18.74,18.74,0,0,1-10.5,2.64Q1092.88,459.11,1088.79,454.94Zm19.11-14.25a9.61,9.61,0,0,0-1.53-4.92,8.26,8.26,0,0,0-3.33-2.91,9.15,9.15,0,0,0-8,0,8,8,0,0,0-3.3,2.91,9.7,9.7,0,0,0-1.5,4.92Z"/><path d="M1122.75,454.94c-2.75-2.78-4.11-6.69-4.11-11.73a19.39,19.39,0,0,1,1.56-7.86,13.29,13.29,0,0,1,4.8-5.82,13.76,13.76,0,0,1,8-2.22,14,14,0,0,1,7.68,2.07,13.39,13.39,0,0,1,4.92,5.52,17.1,17.1,0,0,1,1.68,7.53,2.71,2.71,0,0,1-.75,1.92,2.67,2.67,0,0,1-2,.78h-20.34a9.82,9.82,0,0,0,3.12,6.54q2.64,2.34,7.38,2.34a18,18,0,0,0,4.41-.48,18.32,18.32,0,0,0,3.69-1.38,2.38,2.38,0,0,1,1.08-.24,2.43,2.43,0,0,1,1.68.66,2.18,2.18,0,0,1,.72,1.68,2.61,2.61,0,0,1-1.56,2.22,18.74,18.74,0,0,1-10.5,2.64Q1126.84,459.11,1122.75,454.94Zm19.11-14.25a9.61,9.61,0,0,0-1.53-4.92,8.26,8.26,0,0,0-3.33-2.91,9.15,9.15,0,0,0-8,0,8,8,0,0,0-3.3,2.91,9.7,9.7,0,0,0-1.5,4.92Z"/><path d="M1175.06,471.83a2.59,2.59,0,0,1-.75-1.86,2.72,2.72,0,0,1,.18-1l3.9-10-11.28-27.48a3.07,3.07,0,0,1-.24-1.14,2.71,2.71,0,0,1,.78-1.95,2.56,2.56,0,0,1,1.92-.81,2.62,2.62,0,0,1,1.53.48,2.72,2.72,0,0,1,1,1.2l9.24,22.92,9.42-22.8a2.62,2.62,0,0,1,2.52-1.8,2.56,2.56,0,0,1,1.92.81,2.71,2.71,0,0,1,.78,1.95,2.88,2.88,0,0,1-.18,1l-16.38,39.36a2.7,2.7,0,0,1-2.52,1.86A2.44,2.44,0,0,1,1175.06,471.83Z"/><path d="M1207.25,457.13a13.46,13.46,0,0,1-5.37-5.61,19.21,19.21,0,0,1,0-16.62,13.46,13.46,0,0,1,5.37-5.61,17.44,17.44,0,0,1,16.14,0,13.65,13.65,0,0,1,5.4,5.61,18.94,18.94,0,0,1,0,16.62,13.65,13.65,0,0,1-5.4,5.61,17.44,17.44,0,0,1-16.14,0Zm12.81-4.14a9.16,9.16,0,0,0,3.72-3.6,12,12,0,0,0,1.47-6.24,11.88,11.88,0,0,0-1.47-6.18,9,9,0,0,0-3.72-3.57,10.52,10.52,0,0,0-4.71-1.11,10.64,10.64,0,0,0-4.77,1.11,8.78,8.78,0,0,0-3.69,3.57,12.08,12.08,0,0,0-1.44,6.18,12.21,12.21,0,0,0,1.44,6.24,9,9,0,0,0,3.69,3.6,10.41,10.41,0,0,0,4.77,1.14A10.29,10.29,0,0,0,1220.06,453Z"/><path d="M1243,457.55a10.14,10.14,0,0,1-3.72-4.26,13.6,13.6,0,0,1-1.29-5.94v-17a2.56,2.56,0,0,1,.81-1.92,2.71,2.71,0,0,1,2-.78,2.66,2.66,0,0,1,2.7,2.7v16.44q0,7.32,6.6,7.32a9.55,9.55,0,0,0,5.37-1.56,19.44,19.44,0,0,0,4.47-4.2v-18a2.56,2.56,0,0,1,.81-1.92,2.71,2.71,0,0,1,2-.78,2.66,2.66,0,0,1,2.7,2.7v25.74a2.71,2.71,0,0,1-.78,1.95,2.56,2.56,0,0,1-1.92.81,2.77,2.77,0,0,1-2.76-2.76v-2.46a19.94,19.94,0,0,1-4.92,4,12.42,12.42,0,0,1-6.24,1.5A10.37,10.37,0,0,1,1243,457.55Z"/><path d="M1275.65,458a2.61,2.61,0,0,1-.78-1.92V430.37a2.71,2.71,0,0,1,.78-1.95,2.56,2.56,0,0,1,1.92-.81,2.77,2.77,0,0,1,2.76,2.76V433q4.2-5.64,9.42-5.64h.3a2.51,2.51,0,0,1,1.89.78,2.66,2.66,0,0,1,.75,1.92,2.42,2.42,0,0,1-.78,1.86,2.81,2.81,0,0,1-2,.72h-.3a10.23,10.23,0,0,0-5.28,1.41,12.16,12.16,0,0,0-4,3.87v18.24a2.56,2.56,0,0,1-.81,1.92,2.71,2.71,0,0,1-2,.78A2.61,2.61,0,0,1,1275.65,458Z"/><path d="M1322.33,458.18a3.75,3.75,0,0,1-1.32-1.59l-10.44-25a3.36,3.36,0,0,1-.3-1.26,2.71,2.71,0,0,1,.78-1.95,2.56,2.56,0,0,1,1.92-.81,2.81,2.81,0,0,1,2.46,1.56l9.18,23.28,9.18-23.28a2.81,2.81,0,0,1,2.46-1.56,2.56,2.56,0,0,1,1.92.81,2.71,2.71,0,0,1,.78,1.95,3.36,3.36,0,0,1-.3,1.26l-10.44,25a3.75,3.75,0,0,1-1.32,1.59,3.38,3.38,0,0,1-2,.63h-.6A3.38,3.38,0,0,1,1322.33,458.18Z"/><path d="M1345.67,420.77a3,3,0,0,1-.9-2.16v-.24a3.07,3.07,0,0,1,3.06-3.06h.36a3.07,3.07,0,0,1,3.06,3.06v.24a3.07,3.07,0,0,1-3.06,3.06h-.36A3,3,0,0,1,1345.67,420.77ZM1346,458a2.61,2.61,0,0,1-.78-1.92V430.37a2.71,2.71,0,0,1,.78-1.95,2.56,2.56,0,0,1,1.92-.81,2.67,2.67,0,0,1,2.76,2.76v25.74a2.56,2.56,0,0,1-.81,1.92,2.71,2.71,0,0,1-2,.78A2.61,2.61,0,0,1,1346,458Z"/><path d="M1362.44,454.94q-4.11-4.17-4.11-11.73a19.56,19.56,0,0,1,1.56-7.86,13.36,13.36,0,0,1,4.8-5.82,13.79,13.79,0,0,1,8-2.22,14,14,0,0,1,7.68,2.07,13.39,13.39,0,0,1,4.92,5.52,17,17,0,0,1,1.68,7.53,2.62,2.62,0,0,1-2.76,2.7h-20.34a9.87,9.87,0,0,0,3.12,6.54q2.64,2.34,7.38,2.34a18,18,0,0,0,4.41-.48,18.32,18.32,0,0,0,3.69-1.38,2.38,2.38,0,0,1,1.08-.24,2.41,2.41,0,0,1,1.68.66,2.18,2.18,0,0,1,.72,1.68,2.59,2.59,0,0,1-1.56,2.22,18.74,18.74,0,0,1-10.5,2.64Q1366.55,459.11,1362.44,454.94Zm19.11-14.25a9.61,9.61,0,0,0-1.53-4.92,8.26,8.26,0,0,0-3.33-2.91,9.15,9.15,0,0,0-8,0,8.06,8.06,0,0,0-3.3,2.91,9.79,9.79,0,0,0-1.5,4.92Z"/><path d="M1400.81,458.09a3.66,3.66,0,0,1-1.32-1.8l-8.52-25a3.23,3.23,0,0,1-.18-1,2.66,2.66,0,0,1,2.7-2.7,2.74,2.74,0,0,1,1.53.45,2.21,2.21,0,0,1,.93,1.17l7,23.1,7-22.56a3.08,3.08,0,0,1,5.88,0l7,22.56,7-23.1a2.21,2.21,0,0,1,.93-1.17,2.74,2.74,0,0,1,1.53-.45,2.66,2.66,0,0,1,2.7,2.7,3.23,3.23,0,0,1-.18,1l-8.52,25a3.66,3.66,0,0,1-1.32,1.8,3.6,3.6,0,0,1-4.32,0,4,4,0,0,1-1.38-1.86l-6.36-19.86-6.36,19.86a4,4,0,0,1-1.38,1.86,3.6,3.6,0,0,1-4.32,0Z"/><path class="cls-3" d="M813.2,749.94c9.45,9.12,22.43,12.56,33.7,18.73a51.32,51.32,0,0,1,9,6.14c1.45,1.26,3.58-.85,2.12-2.12-9.9-8.62-22.86-11.91-34-18.41a45.53,45.53,0,0,1-8.71-6.46c-1.39-1.34-3.52.78-2.12,2.12Z"/><path class="cls-3" d="M815.79,748.37c16.51-.66,33-1.42,49.5-2.67q7.13-.54,14.25-1.2c.59,0,1.36-.42,1.45-1.1,1.09-8.07,5.8-15.34,11.86-20.63l-2.51-.66a4.63,4.63,0,0,1,.14,1.11c0,.08-.11.64-.09.67s-.16-.11.14-.11.41-.12.69,0,.26.3.43.45-.08.16.05-.06a6.85,6.85,0,0,1,1.15-1.4l-2.51-.66c1.28,5.59,2.62,11.17,3.84,16.78.76,3.48,1.18,7.3,3.6,10.1A8.78,8.78,0,0,0,907,751.3c3.09-1,5.55-3.29,7.88-5.46s5.08-5.11,8.56-5.72l-1.85-1.85a180.3,180.3,0,0,0-2.74,34c0,1.93,3,1.94,3,0a176.78,176.78,0,0,1,2.63-33.2,1.52,1.52,0,0,0-1.84-1.84c-6,1.06-9.47,7.14-14.39,10.19-2.26,1.39-5.29,2-7.57.23-2.55-2-2.87-6.06-3.48-9-1.2-5.8-2.64-11.56-4-17.33a1.51,1.51,0,0,0-2.51-.66,5.38,5.38,0,0,0-2.05,3.59,2.36,2.36,0,0,0,1.61,2.38c3.13.9,3.35-3.41,3-5.31a1.52,1.52,0,0,0-2.51-.66c-6.38,5.58-11.47,13.44-12.63,22l1.45-1.1c-16.39,1.52-32.82,2.51-49.27,3.26q-7.23.33-14.48.61c-1.93.08-1.94,3.08,0,3Z"/><path class="cls-3" d="M854.42,779.34l9.89,52.24c1.64,8.67,3.47,17.35,4.17,26.16a84.22,84.22,0,0,1-1.71,24.88,103.93,103.93,0,0,1-3.89,13.27c-.81,2.2-1.67,4.37-2.61,6.51a9,9,0,0,1-1.36,2.47c-.25.28-1.12,1.27-1.51.92-1.44-1.28-3.57.83-2.12,2.12,3.09,2.75,6.29-1.06,7.49-3.78a116.66,116.66,0,0,0,4.63-12.25,91.59,91.59,0,0,0,4.36-26c.15-9.29-1.43-18.51-3.14-27.62q-2.62-14-5.3-28l-6-31.73c-.35-1.9-3.25-1.1-2.89.79Z"/><path class="cls-3" d="M822.62,748.66l-.11-.22.15.35a1.82,1.82,0,0,1-.14-.52l.05.4a2.91,2.91,0,0,1,0-.59l-.05.4a2.58,2.58,0,0,1,.17-.62l-.15.36a2.11,2.11,0,0,1,.31-.52l-.24.31a2.06,2.06,0,0,1,.39-.39l-.3.24a2.14,2.14,0,0,1,.38-.23l-2.2-.9c0,.2.07.4.09.6l-.05-.4a6.5,6.5,0,0,1,0,1.76l.06-.4a4,4,0,0,1-.24.9l.15-.36a2.73,2.73,0,0,1-.32.55l.23-.3a2.13,2.13,0,0,1-.29.31l.3-.24a1.57,1.57,0,0,1-.38.22l.36-.15a2.35,2.35,0,0,1-.52.14l.4-.06a1.88,1.88,0,0,1-.58,0l.4.06a2.55,2.55,0,0,1-.54-.15l.36.15a1.5,1.5,0,0,1-.39-.22l.3.23a1.58,1.58,0,0,1-.23-.22l.24.3a.88.88,0,0,1-.12-.21l.15.36a2,2,0,0,1-.07-.23l.06.39a.76.76,0,0,1,0-.3l-.06.4v0a1.64,1.64,0,0,0-.15-1.15,1.55,1.55,0,0,0-.9-.69,1.52,1.52,0,0,0-1.16.15,1.47,1.47,0,0,0-.68.9,2.51,2.51,0,0,0,.79,2.47,3.51,3.51,0,0,0,2.28.82,3.44,3.44,0,0,0,2.31-.87,3.19,3.19,0,0,0,.5-.6,2.56,2.56,0,0,0,.27-.45,4.54,4.54,0,0,0,.41-1.31,7.29,7.29,0,0,0,.07-1.55c0-.54-.12-1.07-.21-1.61a1.41,1.41,0,0,0-.87-1,1.52,1.52,0,0,0-1.33.08,3.74,3.74,0,0,0-1.54,5.13,1.5,1.5,0,0,0,2.59-1.51Z"/><path class="cls-3" d="M878.46,788.39c7.31,2.24,15.06,4.58,21.08,9.5,6.59,5.38,9.32,13.29,10.94,21.39a134,134,0,0,1-1.25,56.77c-2.38,10.22-5.3,20.6-4.22,31.19.19,1.91,3.19,1.93,3,0-1-9.78,1.5-19.33,3.74-28.77a147.3,147.3,0,0,0,4.14-29.09A135.15,135.15,0,0,0,913.67,820c-1.55-8.33-4.1-16.86-10.43-22.86-6.58-6.22-15.52-9-24-11.66-1.85-.56-2.64,2.33-.8,2.9Z"/><path class="cls-3" d="M933.85,898.59c-11.33,7.13-23.27,14.73-29.9,26.79a36.45,36.45,0,0,0-3.58,9.11,36.06,36.06,0,0,0-.78,9.21c0,1.72-.21,2.8-1.82,3.6a25.33,25.33,0,0,0-3.87,2.25,22,22,0,0,0-5.75,6.26c-1.47,2.43-3.09,5.92-2.48,8.83.55,2.66,2.93,4.05,5.44,4.46,3.31.53,6.82.07,10.15-.07l11.48-.49q11.73-.52,23.46-1.12c1.91-.1,3.83-.15,5.74-.3a7.41,7.41,0,0,0,4.23-1.4,7.84,7.84,0,0,0,2.16-3.59c.62-1.77,1.15-3.57,1.68-5.36a155.36,155.36,0,0,0,6.12-49.63c-.08-1.92-3.08-1.93-3,0a152.41,152.41,0,0,1-4.06,41.49q-1.22,5.08-2.78,10.07a15.06,15.06,0,0,1-1.59,4.21c-.9,1.27-2.61,1.2-4,1.28q-11,.59-22,1.08t-22,.94c-2.19.09-5.5.62-7.38-.89s0-5.44.9-7.2a18.48,18.48,0,0,1,5.27-6.09c2.07-1.51,5.21-2.19,6.41-4.62s.42-5.81.68-8.52a29.78,29.78,0,0,1,2.25-8.64c5.65-13.47,18.62-21.61,30.47-29.07,1.63-1,.12-3.62-1.52-2.59Z"/><path class="cls-3" d="M859.14,910.33a32.69,32.69,0,0,0,17,21.54c3.33,1.67,7,2.48,10.33,4.17,1.72.87,3.24-1.72,1.52-2.59-3.11-1.58-6.53-2.37-9.67-3.85A29.68,29.68,0,0,1,862,909.54c-.44-1.89-3.33-1.09-2.9.79Z"/><path class="cls-3" d="M859.31,888.79l-16.86,11.46c-4.88,3.32-10.49,6.47-13.62,11.66-2.79,4.64-3.25,10.22-2.78,15.5a81.9,81.9,0,0,0,3,15.58c1.56,5.25,4.12,10.42,9,13.25l-.69-1.69c-.22.8-2.06.9-2.74,1.08a5.13,5.13,0,0,0-3.29,2.21,4.18,4.18,0,0,0,.85,4.77c1.44,1.51,3.6,1.79,5.57,1.94a95.29,95.29,0,0,0,41.66-6.31c1.78-.7,1-3.6-.8-2.89a92.41,92.41,0,0,1-35.77,6.44,58.73,58.73,0,0,1-5.93-.31c-.84-.1-4-.92-2.84-2.35.63-.8,2.49-.84,3.4-1.15a3.9,3.9,0,0,0,2.78-2.64,1.52,1.52,0,0,0-.68-1.69c-4-2.27-6-6.39-7.39-10.59a78.85,78.85,0,0,1-3-14.24c-.58-4.85-.59-10.11,1.75-14.55,2.6-4.94,7.72-7.83,12.19-10.87l17.68-12c1.59-1.08.09-3.68-1.51-2.59Z"/><path class="cls-3" d="M953.85,883.85a142.37,142.37,0,0,0-4.15-27.69c-.47-1.87-3.36-1.07-2.89.8a138.1,138.1,0,0,1,4,26.89c.09,1.92,3.09,1.93,3,0Z"/><path class="cls-3" d="M933.89,576.78a47.61,47.61,0,0,1,14.74-18.84,36.33,36.33,0,0,1,23.85-7.22c17.54,1.17,28.83,17.47,32.63,33.26,3.95,16.38,1.07,33.88-4.81,49.44a134.69,134.69,0,0,1-12.65,25.05A209.65,209.65,0,0,1,972.2,679c-10.63,12.82-22,25.48-29.13,40.7-.88,1.88-1.68,3.79-2.43,5.72s2.21,2.59,2.89.8c6.27-16.29,17.92-29.67,29-42.89a254.42,254.42,0,0,0,16.13-20.87,139.92,139.92,0,0,0,13.55-25.6c6.46-16,9.77-34,6.39-51.14-3.21-16.27-13.86-33.71-31.18-37.32a38,38,0,0,0-25.65,4,47.1,47.1,0,0,0-17.55,17.34,55.63,55.63,0,0,0-2.88,5.52c-.79,1.75,1.79,3.27,2.59,1.52Z"/><path class="cls-3" d="M932.72,572.92c6.26-9.55,12.66-19.26,21.47-26.69,8.42-7.1,18.76-11.4,29.36-14s21.69-3.75,32.65-4.53q19.71-1.41,39.48-1.36c12.77,0,25.87,0,38.48,2.27a70,70,0,0,1,28.26,11.85c15.92,11.38,26.83,28.71,34.36,46.49a161.65,161.65,0,0,1,10,31.71c2.39,12.1,2.71,24.78-1.5,36.52-3.88,10.83-11,20.18-17.78,29.32s-13.45,18-21.06,26.2c-7.41,8-15.66,15.33-25.12,20.84-10.43,6.07-22,9.84-32.47,15.8-17.59,10-30.41,26.09-40.2,43.49a299.6,299.6,0,0,0-13.51,27.81c-4.48,10.31-9,20.67-12.74,31.27-4.05,11.44-7,23.31-7.25,35.49-.23,11.27,1.36,24.33-7.34,33.07-3.41,3.42-8.06,5.68-13,4.84-1.89-.32-2.7,2.57-.79,2.9,10,1.7,18.53-6,21.78-14.94,2.07-5.64,2.28-11.84,2.3-17.79,0-6.37,0-12.68.92-19,1.88-12.54,6.27-24.55,11-36.23,4.19-10.26,8.51-20.5,13.25-30.51,8.92-18.87,19.9-37.54,36.46-50.71,9.28-7.37,20.08-11.89,30.78-16.74a111,111,0,0,0,29.29-18.82c8.32-7.55,15.54-16.22,22.39-25.09,7.16-9.28,14.62-18.62,20.46-28.8a64,64,0,0,0,8.8-34c-.32-12.26-3.46-24.34-7.41-35.89-6.43-18.82-15.87-37.32-30.17-51.41A76.05,76.05,0,0,0,1109.74,530c-11.28-4.67-23.55-5.84-35.64-6.3-13.5-.52-27-.48-40.54,0a359.13,359.13,0,0,0-36.93,2.94c-10.85,1.55-21.66,4.12-31.53,9-10.25,5-18.4,12.71-25.28,21.74-3.44,4.53-6.57,9.29-9.69,14-1.07,1.62,1.53,3.12,2.59,1.51Z"/><path class="cls-3" d="M505.7,633a488.48,488.48,0,0,0-23.93,48.05,363.25,363.25,0,0,0-16.67,47.6,305.35,305.35,0,0,0-10.22,97.82,367.51,367.51,0,0,0,6.89,52.45c.45,2.24.93,4.47,1.41,6.7.42,1.88,3.31,1.09,2.9-.8a373.18,373.18,0,0,1-7.82-52.49,312.48,312.48,0,0,1,.23-49.52,302.4,302.4,0,0,1,8-47.71,350.68,350.68,0,0,1,15.55-47A462.79,462.79,0,0,1,505,640.51q1.65-3,3.33-6A1.5,1.5,0,0,0,505.7,633Z"/><path class="cls-3" d="M596,529.87c-17.22,9.69-31.66,23.61-43.72,39.14q-5.15,6.63-9.81,13.62c-1.07,1.61,1.53,3.11,2.59,1.51,10.7-16,23.33-31,38.75-42.7a123.68,123.68,0,0,1,13.7-9c1.68-.94.17-3.54-1.51-2.59Z"/><path class="cls-3" d="M680.29,552.11c-3.82-9.8-7.58-19.94-8-30.56-.42-9.34,1.69-19.34,8.32-26.3,5.77-6.05,14.34-9.21,22.42-6.16,7.52,2.85,13,10.17,15,17.77,2.91,10.87-.27,22.49-5.34,32.21l2.74,1.15c3.46-9.39,6.89-18.8,10.38-28.18,2.71-7.27,7-16.95,16-17.62l-1.5-1.5a118.37,118.37,0,0,1-4.3,40.63c-.87,3-1.65,6.38-3.17,9.14s-5.09,2.47-7.91,2.75a160.36,160.36,0,0,0-42.52,10.15c-1.78.69-1,3.59.79,2.89a158.67,158.67,0,0,1,41.73-10c3-.29,6.55-.08,8.93-2.2s3.06-5.55,4-8.34a119.32,119.32,0,0,0,4.68-20.79,120.78,120.78,0,0,0,.81-24.19,1.52,1.52,0,0,0-1.5-1.5c-7.13.53-12.39,6-15.53,12a90.68,90.68,0,0,0-4.28,10.41l-4.41,12-5,13.6c-.59,1.6,2,2.66,2.74,1.16,4.93-9.45,8-20.21,6.38-30.91-1.33-8.85-6.51-17.36-14.38-21.85-8.1-4.62-17.78-3.46-25.14,2.06-8.23,6.17-12.15,16-12.82,26.06-.86,12.84,3.51,25.2,8.1,37,.69,1.78,3.59,1,2.89-.8Z"/><path class="cls-3" d="M728.1,598.86a13.87,13.87,0,0,0-12.76-3.39,14.1,14.1,0,0,0-9.36,8.38,9.23,9.23,0,0,0-.51,6.61c.93,2.44,3.33,3.28,5.66,3.91a35.57,35.57,0,0,0,8,1.22c2.52.1,4.9-.44,5.62-3.19a28.28,28.28,0,0,0,.81-7.67,12.58,12.58,0,0,0-2.26-7.36,1.54,1.54,0,0,0-2-.54,1.5,1.5,0,0,0-.54,2c2.21,2.91,2,6.69,1.57,10.14a20.4,20.4,0,0,1-.42,2.58c-.24.9-.83,1-1.69,1a28.76,28.76,0,0,1-6.2-.65c-1-.2-1.94-.45-2.89-.74a4.77,4.77,0,0,1-2.45-1.23c-1-1.26-.44-3.3,0-4.65a11.12,11.12,0,0,1,6.66-6.73A10.77,10.77,0,0,1,726,601c1.41,1.32,3.53-.8,2.12-2.12Z"/><path class="cls-3" d="M454.59,891.19c-.39-6.61-1.7-13.68-6.39-18.69-4.32-4.63-10.63-6.39-16.48-3.68a32,32,0,0,0-7.93,5.69,41.24,41.24,0,0,0-6.23,7.22c-3.39,5-5.59,11.1-5.11,17.22.13,1.73.59,3.4.76,5.12A7.55,7.55,0,0,1,412,908.9c-1.6,2.73-3,5.18-3.36,8.39-.66,5.76,1.69,11.63,5.39,16,4.21,5,10.38,7.87,16.43,9.89a136.23,136.23,0,0,0,20.87,5.16c15.19,2.53,31.59,1.39,44-8.54,1.51-1.21-.62-3.32-2.12-2.13-9.9,7.9-23.07,9.74-35.34,8.55a124.91,124.91,0,0,1-20.52-4.11c-5.75-1.55-11.55-3.36-16.52-6.74a21.1,21.1,0,0,1-9-13.07,14.42,14.42,0,0,1,.48-7.73c1-2.76,3.27-4.91,3.82-7.87s-.65-5.93-.72-8.9a22.29,22.29,0,0,1,1.47-8.28,34.64,34.64,0,0,1,9.93-13.66c2.53-2.21,5.46-4.5,8.82-5.22a10.68,10.68,0,0,1,8.47,2.19c5.68,4.2,7.11,11.75,7.51,18.38.12,1.92,3.12,1.93,3,0Z"/><path class="cls-3" d="M682.22,473.77c17.64-6.38,38.44-13.19,55.51-1.65,14.33,9.69,20.81,27.39,20.41,44.15-.26,11.18-3.24,22.21-7.7,32.41a1.53,1.53,0,0,0,.9,2.21c3.72.72,7.5.8,11.26,1.23,3.45.4,7.12,1.22,9.77,3.62,5.5,5,4.89,13.73,3.64,20.35a64.36,64.36,0,0,1-21.4,36.61,58.7,58.7,0,0,1-20.8,11.53c-1.84.56-1,3.46.8,2.89,14.67-4.51,27.17-14.71,35.32-27.63a65.64,65.64,0,0,0,8.69-21.16c1.54-7.24,2.45-16.23-2.22-22.56-5.75-7.81-15.88-6.15-24.26-7.78l.89,2.21c7.91-18.1,11.64-39.53,3.85-58.33A50.28,50.28,0,0,0,742,471.56a41,41,0,0,0-25.55-8.78c-12.1,0-23.79,4-35,8.1-1.8.65-1,3.55.8,2.89Z"/><path class="cls-3" d="M687.59,631.89c-19.31-3.63-38.3-11.4-51.7-26.23-11.38-12.59-21.87-35.35-6.51-49,6.74-6,15.94-8.64,24.51-10.72,1.87-.45,1.08-3.35-.8-2.89-8.2,2-16.73,4.52-23.57,9.65a27.67,27.67,0,0,0-8,9.08,26.92,26.92,0,0,0-2.76,14.87c.87,10,5.63,19.37,11.67,27.16a75.29,75.29,0,0,0,22.33,19.09c10.51,6,22.18,9.68,34,11.91,1.88.35,2.69-2.54.8-2.9Z"/><path class="cls-3" d="M687.3,462.64a240.87,240.87,0,0,1,38.07-25.5,199.79,199.79,0,0,1,42-16.86,168.07,168.07,0,0,1,45.5-6,151.51,151.51,0,0,1,45.41,7.23,135.81,135.81,0,0,1,21.23,8.92c6.88,3.62,13.56,7.89,21.09,10.05a37.89,37.89,0,0,0,5.49,1.12,1.49,1.49,0,0,0,1.44-1.1c3.5-15.76.39-33.37-9.27-46.44a44.47,44.47,0,0,0-19.26-15c-9.53-3.84-20.05-4.55-30.22-4.61-21.08-.12-42.07,3.4-62.31,9.15C766,389.44,746.2,397.5,727,406.57c-8.91,4.21-17.84,8.72-25.24,15.32s-12.58,15.39-16.81,24.36c-1,2.22-2,4.46-3,6.71-.76,1.75,1.82,3.28,2.59,1.52,3.88-8.85,8-17.84,14.3-25.27s14.44-12.45,23-16.77a382,382,0,0,1,56.9-23.34c19.55-6.19,39.78-10.47,60.29-11.42,18.15-.84,39.12-.48,52.75,13.32,11,11.12,15.55,27.75,13.87,43.07a53.9,53.9,0,0,1-.95,5.66l1.45-1.1c-7.9-1.06-14.92-5.22-21.78-9a147.71,147.71,0,0,0-21.13-9.6,152.15,152.15,0,0,0-45.54-8.63,169.21,169.21,0,0,0-46.11,4.7,198.33,198.33,0,0,0-42.89,15.95,238.83,238.83,0,0,0-38.88,24.82q-2.29,1.8-4.55,3.63c-1.5,1.22.63,3.33,2.12,2.12Z"/><path class="cls-3" d="M678.25,457.27c-4.63-12.19-9.28-24.59-10.11-37.73A91.07,91.07,0,0,1,673.78,383c8.35-23.12,24.64-42.35,42.43-58.88,4.42-4.11,9-8.09,14.37-11,5.54-3,11.7-4.42,17.82-5.67,6.61-1.34,13.26-2.77,20-3a21.66,21.66,0,0,1,4.26.1,2.4,2.4,0,0,1,1.3.5c.51.54.06,1.31-.26,1.84-1.53,2.59-4,4.87-6.15,7-4.39,4.32-9.17,8.24-13.68,12.44q-6.4,6-12.34,12.42a233.75,233.75,0,0,0-39,57.8q-3.79,8-7,16.23a136.59,136.59,0,0,1-7,16.3,45.25,45.25,0,0,1-4.81,7.21c-1.23,1.47.88,3.6,2.12,2.12,7.93-9.53,11.13-21.88,16-33.07A233.81,233.81,0,0,1,719,373.11a230.54,230.54,0,0,1,21.77-28.95q6-6.8,12.56-13.09c4.48-4.32,9.25-8.33,13.82-12.56a84.18,84.18,0,0,0,6.86-7c1.72-2,4.39-4.9,2.73-7.72-1.36-2.32-4.5-2.27-6.84-2.27a69.75,69.75,0,0,0-10.5.9,170.17,170.17,0,0,0-19.72,4,50.25,50.25,0,0,0-17.29,8.51,145.37,145.37,0,0,0-13.92,12.45c-4.49,4.42-8.82,9-12.9,13.81a141.85,141.85,0,0,0-20.67,31.37,101.78,101.78,0,0,0-9.75,37.2,81.9,81.9,0,0,0,1.17,19.15,126.17,126.17,0,0,0,5.62,19.89c1.11,3.1,2.28,6.18,3.45,9.26.68,1.79,3.58,1,2.89-.8Z"/><path class="cls-3" d="M644.4,478.92a38.15,38.15,0,0,0-22.58,12c-6.64,7-10.85,15.89-13.41,25.12a110.92,110.92,0,0,0-3.15,16.87c-.23,1.91,2.77,1.9,3,0,2-17.4,7.75-36.45,23.45-46.29a31.7,31.7,0,0,1,12.69-4.71c1.89-.24,1.91-3.24,0-3Z"/><path class="cls-3" d="M708.13,542.68a10.84,10.84,0,0,1-.42-1.37q-.08-.31-.12-.63c0,.22,0,0,0-.08s0-.31,0-.47a5.61,5.61,0,0,1,0-.71c0-.29-.08.33,0-.15l.06-.31c.05-.2.12-.4.19-.6s0-.07,0,0c.06-.12.12-.24.19-.36a1.67,1.67,0,0,1,.18-.28s.19-.26.08-.12.16-.17.14-.15l.19-.19.2-.18c-.19.17,0,0,0,0a6.48,6.48,0,0,1,.57-.33c-.27.13,0,0,.06,0l.25-.07c.08,0,.36,0,0,0l.26,0h.26c.31,0-.09,0-.09,0a2.05,2.05,0,0,1,.5.14c0-.08-.26-.14,0,0l.18.1.21.14s-.24-.22-.06,0l.3.29.14.16c-.25-.28,0,0,0,0s.17.28.24.42l.12.25c0-.05-.11-.31,0-.06a6.58,6.58,0,0,1,.25,1c-.08-.41,0,.1,0,.21s0,.33,0,.5-.07.25,0-.07c0,.07,0,.14,0,.21s-.1.36-.15.53,0,0,0,0l-.15.28c-.09.16-.2.32-.3.48.17-.25-.09.09-.16.17s-.3.29-.45.43,0,0,0,0l-.3.21a6,6,0,0,1-.55.31l-.28.14c-.16.07.22-.08,0,0s-.4.14-.6.19-.46.1-.68.15.25,0,0,0l-.38,0a7.28,7.28,0,0,1-1.32,0,1.49,1.49,0,0,0-1.5,1.5,1.54,1.54,0,0,0,1.5,1.5c4,.45,8.71-2.33,8.35-6.77a5.86,5.86,0,0,0-2.84-4.79,5,5,0,0,0-6,1.35c-1.89,2.23-1.91,5.34-.91,8a1.54,1.54,0,0,0,1.85,1,1.52,1.52,0,0,0,1-1.85Z"/><path class="cls-3" d="M731.11,538.66a1.06,1.06,0,0,0-.19-.06c-.17,0,.34.19.11,0l-.13-.08c-.19-.1.1.07.12.1a1.38,1.38,0,0,0-.27-.27s.21.31.1.11a2.12,2.12,0,0,1-.12-.2c-.19-.35.09.3,0-.08,0-.11-.06-.21-.08-.32-.09-.4,0,.33,0-.08a2.84,2.84,0,0,0,0-.41c0,.28-.05.3,0,.15s0-.13,0-.2l.06-.19c0-.15.1,0-.06.14a1.65,1.65,0,0,0,.18-.32c.07-.16-.26.27-.06.09l.19-.19c.2-.2-.06.07-.08.06l.2-.13a1,1,0,0,0,.21-.1s-.34.11-.1,0l.41-.1c.19-.06-.39,0-.08,0H732c.27,0-.1,0-.11,0a2.8,2.8,0,0,0,.46.12l.18.06s-.29-.15-.09,0,.31.2.46.26-.26-.24,0,0l.15.13.16.18,0,0c.11.13.1.11,0,0,.09,0,.17.27.22.36s.08.16.12.23,0,.07,0-.11l.06.15c0,.15.09.3.13.46s0,.14.05.21c.08.34,0-.25,0,0a5.92,5.92,0,0,1,0,1s-.07.37,0,.13,0,.1,0,.12a4.21,4.21,0,0,1-.12.48,1.93,1.93,0,0,0-.16.46c0-.15.11-.23,0-.07s-.1.2-.15.29-.09.16-.14.23l-.09.14c.11-.15.14-.18.07-.1s-.29.4-.41.42.31-.2.06,0a.89.89,0,0,0-.27.15c.1-.15.24-.08.06,0-.34.07,0,0,0,0h-.27c.07-.06.37.08,0,0,0,0-.16-.06-.18,0,.21.09.26.1.15,0a.41.41,0,0,1-.11-.07c-.23-.12.09,0,.09.07a.74.74,0,0,1-.13-.12l.13.16s-.16-.35-.06-.05,0-.12,0-.17a1.5,1.5,0,0,0-1.84-1.05,1.56,1.56,0,0,0-1,1.85,3,3,0,0,0,2.31,2.3,3.58,3.58,0,0,0,3.25-.92,6.53,6.53,0,0,0,1.69-5.95,5.05,5.05,0,0,0-3.91-4.05,4.59,4.59,0,0,0-3.15.48,3.82,3.82,0,0,0-1.76,2.27c-.57,2,.43,4.48,2.56,5a1.5,1.5,0,1,0,.79-2.89Z"/><path class="cls-3" d="M685.28,611.19a13.28,13.28,0,0,1-10.64-12.11,1.5,1.5,0,0,0-1.3-1.48,1.47,1.47,0,0,0-1.64,1.08c-.28,1.93-1.83,3.28-2.86,4.84a6.89,6.89,0,0,0-.92,6.11,9,9,0,0,0,4.32,5,21.42,21.42,0,0,0,7.35,1.87c.8.11,1.5-.76,1.5-1.5a1.54,1.54,0,0,0-1.5-1.5c-3.43-.45-8.16-1.26-9-5.33-.33-1.63.65-3,1.59-4.19a9.94,9.94,0,0,0,2.38-4.49l-3-.39c.42,7.07,5.71,13.77,12.85,15a1.54,1.54,0,0,0,1.84-1,1.51,1.51,0,0,0-1.05-1.85Z"/><path class="cls-3" d="M612,622.84c-11.36,4.43-23.62.43-33.55-5.65-10.5-6.42-19-15.5-28.79-22.91a71,71,0,0,0-15.42-9.14A58.63,58.63,0,0,0,517.39,581a59.69,59.69,0,0,0-33.68,6.57c-10.74,5.7-20.27,15.48-22.33,27.86a1.51,1.51,0,0,0,1.45,1.89c13.61-.81,28-1.69,40.79,3.88a37.84,37.84,0,0,1,14.06,10.21c3.82,4.56,6.07,10.17,7.9,15.75,3.56,10.81,6.11,22.56,15,30.47,8.49,7.57,20,10.29,31,11.7a340.13,340.13,0,0,0,48.6,2.33c1.93,0,1.93-3,0-3a378.55,378.55,0,0,1-44.54-1.86c-10.88-1.12-22.72-3.14-31.53-10.12-9.39-7.44-11.94-19.13-15.47-30-1.82-5.58-4-11.18-7.58-15.9a38.83,38.83,0,0,0-13.42-11c-13.86-7.07-29.69-6.36-44.77-5.46l1.44,1.9c1.8-10.81,9.61-19.43,18.82-24.86a56.84,56.84,0,0,1,49.58-3.59,67,67,0,0,1,15.11,8.9c9.64,7.25,18,16.14,28.24,22.6,10.73,6.78,24.35,11.35,36.76,6.51,1.78-.69,1-3.59-.8-2.89Z"/><path class="cls-3" d="M732.54,651a401.31,401.31,0,0,1-1,46.14Q730.58,708.6,729,720a75,75,0,0,1-3.8,16.34c-2.1,5.57-5.49,10.73-10.88,13.54-1.72.89-.2,3.48,1.51,2.59,10.38-5.4,13.86-17.92,15.61-28.62a357.76,357.76,0,0,0,4.15-45.75q.43-13.51,0-27c-.07-1.92-3.07-1.93-3,0Z"/><path class="cls-3" d="M578.08,754.11c23.59,5.91,44.24,21.41,57.52,41.65,14.33,21.84,19.28,48.73,14.74,74.37a103.4,103.4,0,0,1-16.51,40.71,1.51,1.51,0,0,0,.9,2.2,67,67,0,0,1,26.49,20.18,64.47,64.47,0,0,1,8.72,14.25c.62,1.43,1.16,3.08.31,4.52a8.52,8.52,0,0,1-2.92,2.61,52.18,52.18,0,0,1-7.8,4.18c-22.85,9.86-48.76,3.06-70-7.59-13.25-6.65-25.64-14.82-38.34-22.42a1.5,1.5,0,0,0-1.51,2.59c23.08,13.83,46.22,30.35,73.5,34.25,12.3,1.76,25.18,1,36.75-3.77a54.79,54.79,0,0,0,8.21-4.21c2.36-1.49,5-3.27,5.45-6.23.53-3.13-1.41-6.31-2.82-9a71.16,71.16,0,0,0-35.26-32.26l.89,2.21a105,105,0,0,0,15.92-36.91,111.54,111.54,0,0,0,1.37-40.68A101.76,101.76,0,0,0,640.56,798,104.54,104.54,0,0,0,616,769.83a98.55,98.55,0,0,0-32.72-17.41q-2.18-.66-4.38-1.2c-1.87-.47-2.67,2.42-.8,2.89Z"/><path class="cls-3" d="M730.76,752.09a152.08,152.08,0,0,1,33,23.72,157.3,157.3,0,0,1,26,31.86c7.84,12.7,14.14,26.6,16.78,41.36,2.47,13.78,1.39,28.34-5.31,40.81-5.66,10.53-15.06,19.66-26.93,22.52a30.81,30.81,0,0,1-4.38.74c-1.33.14-2.22,2.07-.76,2.8a42.12,42.12,0,0,1,22.64,32.68l1.5-1.5a358.35,358.35,0,0,1-61.72,0q-8.85-.76-17.64-2a1.57,1.57,0,0,0-1.85,1,1.52,1.52,0,0,0,1,1.85,360.21,360.21,0,0,0,62.53,3.17q8.84-.33,17.63-1.09c.73-.07,1.59-.64,1.5-1.5-1.66-14.79-10.67-28.62-24.12-35.27l-.76,2.79c12.75-1.26,23.52-9.15,30.68-19.48,8.12-11.72,11-26,9.92-40.09-1.27-15.73-7-30.8-14.7-44.47a160.38,160.38,0,0,0-25.65-34.19,155.89,155.89,0,0,0-33.25-25.8c-1.53-.88-3.09-1.74-4.65-2.57s-3.23,1.68-1.52,2.59Z"/><path class="cls-3" d="M843.87,778.7c-6.08,1.19-10.57,6.16-13.18,11.52a59.53,59.53,0,0,0-3.58,10,82.75,82.75,0,0,0-2.51,10.42,25.08,25.08,0,0,0,.45,10.87,57.4,57.4,0,0,0,4.28,9.58l5.39,10.72a55.82,55.82,0,0,0,4.83,8.39c4,5.31,11,9.49,17.51,5.89,1.68-.94.17-3.53-1.52-2.59-5.09,2.82-10.68-1.06-13.64-5.14a53.2,53.2,0,0,1-4.36-7.62q-2.37-4.68-4.72-9.37a94.47,94.47,0,0,1-4.31-9,21,21,0,0,1-1.19-9.52,55.61,55.61,0,0,1,2.08-9.71,89.88,89.88,0,0,1,2.8-8.94c2.2-5.65,6.15-11.38,12.47-12.62,1.89-.37,1.09-3.27-.8-2.89Z"/><path class="cls-3" d="M922.59,786.91c2.54-1.23,5.67-2.75,8.5-1.57,2.13.89,3.64,2.92,5.09,4.63,2.94,3.45,6.26,5.86,10.86,6.42a16.83,16.83,0,0,0,11.73-3,15.07,15.07,0,0,0,4.25-4.6c1.14-1.94,1.85-4.09,2.8-6.12.83-1.76,1.88-3.74,3.8-4.49,2.77-1.07,5.8.95,8,2.42,2.64,1.76,5.25,3.56,7.88,5.34,1,.67,2.75,1.39,2.57,2.8a8.05,8.05,0,0,1-1.62,3.19c-2.4,3.37-6.17,5.49-9.64,7.55-3.66,2.18-7.47,4.42-10.18,7.78-1.88,2.33-2.8,5.27-4.7,7.56a10.6,10.6,0,0,1-6.91,3.54c-6.35.78-12.09-2.93-17.22-6.16-1.64-1-3.14,1.56-1.51,2.59,5,3.17,10.43,6.51,16.56,6.66a15.59,15.59,0,0,0,7.7-1.73,13.61,13.61,0,0,0,5.45-5.67,25,25,0,0,1,4.47-6.52,31.86,31.86,0,0,1,5.35-3.95c3.88-2.4,8.08-4.51,11.3-7.82a14.09,14.09,0,0,0,3.84-6.22c.78-3.43-2.14-5-4.56-6.6-2.9-2-5.75-4.09-8.77-5.88-2.5-1.5-5.47-2.7-8.41-1.9-4.94,1.36-6.21,6.94-8.19,11a13.49,13.49,0,0,1-17.1,6.39c-2.47-1-4.17-3-5.87-5-1.85-2.18-3.84-4.43-6.67-5.29-3.57-1.08-7.16.51-10.33,2-1.74.83-.22,3.42,1.52,2.59Z"/><path class="cls-3" d="M889,756.9v.16c0-.11,0-.12,0,0s-.11.34,0,.15a2.49,2.49,0,0,1-.15.28c-.2.36.06,0-.09.13a2.47,2.47,0,0,1-.28.28c.11-.1,0,0-.07.05a2.27,2.27,0,0,1-.34.19h0l-.19.06a3.44,3.44,0,0,1-1.43,0,6.56,6.56,0,0,1-1.44-.48,8.35,8.35,0,0,1-4-4.13,1.5,1.5,0,1,0-2.59,1.51,11.22,11.22,0,0,0,6.22,5.68,6.23,6.23,0,0,0,5-.11A4.47,4.47,0,0,0,892,756.9a1.51,1.51,0,0,0-1.5-1.5,1.53,1.53,0,0,0-1.5,1.5Z"/><path class="cls-3" d="M873.16,749.18a3.27,3.27,0,0,1-.53.17l-.25.06c-.36.08.31,0,0,0s-.67,0-1,0c.44,0,.19,0,.06,0l-.25-.06a4.64,4.64,0,0,1-.53-.16s-.36-.13-.1,0-.09,0-.14-.07l-.45-.25-.22-.15c-.11-.07-.24-.24,0,0-.12-.12-.27-.22-.39-.34A5,5,0,0,1,869,748l-.08-.09c.17.21-.06-.09-.09-.13l-.27-.45-.11-.24c-.14-.28.11.34,0,0s-.11-.33-.16-.5l-.06-.31c-.09-.36,0,.3,0,0a1.5,1.5,0,0,0-3,0,6.86,6.86,0,0,0,3.16,5.09,6.29,6.29,0,0,0,5.57.71,1.55,1.55,0,0,0,1-1.85,1.52,1.52,0,0,0-1.85-1Z"/><path class="cls-3" d="M857.86,771c3.31-.36,7-.82,9.46-3.3,2.18-2.17,3.21-5.75,1.57-8.52a1.5,1.5,0,1,0-2.59,1.51l.22.41q.06.15,0-.06c0,.09.06.17.08.25s.07.25.1.38c.1.39,0-.29,0,.11a7.06,7.06,0,0,1,0,.92c0,.32.06-.22,0,.12l-.09.4c0,.13-.07.26-.12.38s-.18.47-.12.33-.13.27-.16.31-.13.24-.2.36l-.22.35a1.77,1.77,0,0,0-.16.22c.08-.11.09-.12,0,0a7.34,7.34,0,0,1-.61.64c-.09.09-.2.17-.3.26.25-.21-.12.08-.17.11a9.61,9.61,0,0,1-1,.57,4.53,4.53,0,0,1-.67.29,11.21,11.21,0,0,1-1.08.34,18.1,18.1,0,0,1-2.07.43c-.54.08-1.15.15-1.87.23a1.55,1.55,0,0,0-1.5,1.5c0,.74.67,1.6,1.5,1.5Z"/><path class="cls-3" d="M745.14,652.33c17.3,0,34.12,6.9,47.43,17.76C806.1,681.13,816,696,823,711.88c4,9.16,6.2,19.4,12,27.7,1.1,1.57,3.7.07,2.59-1.52-5.27-7.58-7.4-16.81-10.92-25.23A130.12,130.12,0,0,0,814,689.23c-10-14.59-23.47-26.83-39.85-33.81a73.64,73.64,0,0,0-29-6.09,1.5,1.5,0,0,0,0,3Z"/><path class="cls-3" d="M742.21,705.9A80.46,80.46,0,0,1,760.54,723c5.33,6.84,9.29,14.58,13.09,22.33S781.11,760.93,786,768a55.58,55.58,0,0,0,16.79,16.1c7.32,4.4,15.91,6.55,24.37,4.65,1.88-.42,1.08-3.32-.8-2.89-15.17,3.4-29.59-7.56-37.77-19.38-9.68-14-14.63-30.67-24.93-44.27a84.27,84.27,0,0,0-20-18.93c-1.6-1.09-3.1,1.51-1.51,2.59Z"/></svg>