<svg id="Layer_1" data-name="Layer 1" xmlns="http://www.w3.org/2000/svg" viewBox="0 0 1920 1080"><defs><style>.cls-1{font-size:60px;font-family:VarelaRound-Regular, Varela Round;}.cls-2{letter-spacing:-0.01em;}.cls-3{letter-spacing:-0.03em;}.cls-4{letter-spacing:-0.01em;}.cls-5{letter-spacing:-0.01em;}.cls-6{letter-spacing:0em;}.cls-7{letter-spacing:0em;}.cls-8{letter-spacing:-0.03em;}.cls-9{letter-spacing:-0.01em;}.cls-10{letter-spacing:-0.01em;}.cls-11{letter-spacing:-0.01em;}.cls-12{letter-spacing:0em;}.cls-13{letter-spacing:-0.02em;}.cls-14{fill:#4d4d4d;}</style></defs><title>42-teeth</title><text class="cls-1" transform="translate(191.3 189.51)">E<tspan class="cls-2" x="38.28" y="0">x</tspan><tspan x="69.96" y="0">cuse me bea</tspan><tspan class="cls-3" x="427.02" y="0">r</tspan><tspan x="448.2" y="0">,</tspan><tspan x="0" y="72">I h</tspan><tspan class="cls-4" x="69.24" y="72">a</tspan><tspan class="cls-5" x="102.42" y="72">v</tspan><tspan x="133.8" y="72">e a que</tspan><tspan class="cls-6" x="341.04" y="72">s</tspan><tspan class="cls-7" x="369.6" y="72">tion </tspan><tspan class="cls-8" x="496.07" y="72">f</tspan><tspan x="517.25" y="72">or </tspan><tspan class="cls-9" x="592.31" y="72">y</tspan><tspan x="624.11" y="72">ou</tspan><tspan x="0" y="216">I hea</tspan><tspan class="cls-10" x="136.92" y="216">r</tspan><tspan class="cls-7" x="159" y="216">d </tspan><tspan class="cls-5" x="212.46" y="216">y</tspan><tspan x="244.26" y="216">ou h</tspan><tspan class="cls-11" x="369.42" y="216">a</tspan><tspan class="cls-5" x="402.6" y="216">v</tspan><tspan x="433.98" y="216">e 42 </tspan><tspan class="cls-9" x="574.49" y="216">t</tspan><tspan class="cls-12" x="596.99" y="216">eeth,</tspan><tspan x="0" y="288">is this tru</tspan><tspan class="cls-13" x="260.58" y="288">e</tspan><tspan x="293.52" y="288">?</tspan></text><path d="M1268.5,331.43l105.15,5.11,105.14,5.12,59.24,2.88a1.51,1.51,0,0,0,1.5-1.5c-1-12.38-2.32-26.79,4.83-37.73,5.43-8.28,17-14.54,26.55-9.4l-.74-1.29-4.72,110.21L1560.73,515c-1.56,36.48-2.83,73-4.69,109.47-.33,6.49-.92,13.32-3.64,19.31a20.64,20.64,0,0,1-5.71,7.62c-3,2.43-6.78,3.62-10.51,4.46-8.42,1.91-17,3.19-25.54,4.52q-13.07,2.05-26.21,3.61a729.88,729.88,0,0,1-105.13,4.82,725.32,725.32,0,0,1-105-10.43c-17-3-34.19-6.22-50.86-10.78-7.51-2-14.12-5.42-17.67-12.69-3.35-6.87-3.82-15-4.19-22.48-.89-18.14.84-36.33,2.06-54.42l3.71-55L1214.74,393c1.19-17.67,2-35.39,3.6-53,1-11.36,3.22-24.45,10.76-33.48a21.83,21.83,0,0,1,13.09-7.74l-1.9-1.44a46.93,46.93,0,0,0,10.59,32.27c1.22,1.5,3.33-.64,2.12-2.12a43.82,43.82,0,0,1-9.71-30.15,1.52,1.52,0,0,0-1.9-1.45c-11.75,2.11-18.53,12.37-22,23-4.51,13.7-4.54,28.5-5.5,42.74l-7.6,112.65-3.79,56.14c-1.25,18.63-2.72,37.26-3.68,55.91a252.87,252.87,0,0,0-.16,27.67c.43,7.45,1.11,15.17,4.28,22s8.93,11,15.93,13.43c8,2.75,16.54,4.29,24.8,6.09a727.58,727.58,0,0,0,106.35,15,730.66,730.66,0,0,0,107.71-.77q26.63-2.18,53-6.28c8.65-1.35,17.38-2.67,25.93-4.57,7-1.54,13.11-4.62,16.91-10.86,3.41-5.6,4.55-12.3,5.13-18.72.77-8.48.86-17,1.23-25.55l2.42-56.54,4.83-112.77L1572,322l1.17-27.36a1.5,1.5,0,0,0-.74-1.3c-8-4.31-17.37-1.91-24.21,3.47-8.21,6.46-11.48,16.47-12.23,26.58a126.74,126.74,0,0,0,.54,19.67l1.5-1.5-105.15-5.12-105.14-5.11-59.24-2.88c-1.93-.1-1.92,2.9,0,3Z"/><path d="M1308.55,431.65c-.3.06-.08,0,0,0l-.27,0h-.48c-.1,0-.49-.05-.21,0l-.59-.12-.44-.14c-.27-.08-.08,0,0,0l-.24-.12a8.87,8.87,0,0,1-.94-.55s-.22-.18,0,0l-.16-.13-.36-.33a4.83,4.83,0,0,1-.38-.4l-.18-.21c-.18-.2,0,0-.07-.08a8.76,8.76,0,0,1-.56-.88c-.08-.14-.15-.29-.22-.43s-.06-.13-.09-.19c.12.27,0-.14-.06-.16-.1-.3-.19-.61-.26-.92,0-.07-.09-.6-.06-.28a4.71,4.71,0,0,1,0-.53,4.86,4.86,0,0,1,0-.54,1.5,1.5,0,0,0,0-.2c0-.24,0,.23,0,0a6.16,6.16,0,0,1,.29-1c.08-.21-.1.19,0,0l.09-.19c.09-.16.2-.31.3-.48s-.12.11.1-.14l.38-.4.22-.19c-.14.11.18-.13.24-.16a3.38,3.38,0,0,1,.41-.24l.22-.11c.25-.13-.15.05,0,0a6.73,6.73,0,0,1,.87-.27l.42-.08c.17,0-.09,0-.1,0l.37,0a8.19,8.19,0,0,1,.86,0l.5,0s.23,0,0,0l.17,0a9.28,9.28,0,0,1,.91.22l.41.14.23.09c-.19-.08-.09,0,0,0a7.89,7.89,0,0,1,.81.44l.35.25c.18.12-.18-.16,0,0l.23.2c.21.19.39.4.58.6s0,0,0,0l.13.2a4.34,4.34,0,0,1,.28.46c0,.1.19.41.08.14.06.15.11.3.16.46s.07.28.1.42l0,.19c-.05-.33,0,.1,0,.14s0,.31,0,.46-.05.5,0,.19a6.78,6.78,0,0,1-.25,1c-.08.27,0,.07,0,0a1.63,1.63,0,0,1-.11.23c-.06.14-.14.28-.21.41s-.16.26-.25.39l-.16.21c.13-.17,0,0-.05.06a8.85,8.85,0,0,1-.81.81l-.21.17-.07.05c-.17.11-.34.23-.52.33l-.47.26-.25.12c-.24.13.09,0-.07,0a10.56,10.56,0,0,1-1.09.34l-.26.05-.2,0c.18,0,0,0-.06,0l-.33,0h-.58l-.26,0c.14,0,.16,0,0,0s-.38-.08-.57-.14-.59-.22-.32-.09a5.17,5.17,0,0,1-1-.63,1.51,1.51,0,0,0-2,.54A1.53,1.53,0,0,0,1303,433c3,2.31,7.35,1.27,10-1.09a7.73,7.73,0,0,0,2.56-4.69,6.67,6.67,0,0,0-1.49-5.09,9,9,0,0,0-9-2.78,7,7,0,0,0-4.15,3,7.22,7.22,0,0,0-.84,5.45c.9,4.18,4.92,7.52,9.26,6.76a1.52,1.52,0,0,0,1.05-1.85,1.54,1.54,0,0,0-1.85-1.05Z"/><path d="M1445.86,429.86c-1.44.92-3.09-.3-3.76-1.64-.88-1.76.08-3.68,1.34-5,3-3.12,8.06-4.38,12.29-4a10.86,10.86,0,0,1,9.43,6.74c1.23,3.24.82,7.43-2.42,9.33-2.9,1.71-7.32,1.4-9-1.8-.91-1.7-3.5-.18-2.59,1.52,2.28,4.22,7.78,5.22,12,3.46,4.91-2.07,6.7-7.61,5.26-12.52-1.64-5.59-6.53-9.07-12.2-9.69s-12.49,1.38-15.86,6.1a6.81,6.81,0,0,0-.1,8.31c1.7,2.18,4.72,3.34,7.21,1.75,1.63-1,.12-3.63-1.51-2.59Z"/><path d="M1256.5,461.8q42.49,4.9,85.23,7.26t85.51,2.11q21.16-.1,42.34-.86,10.73-.37,21.44-.92,5.36-.27,10.71-.58a59.78,59.78,0,0,1,9.17-.22c2.75.27,5.44,1.28,7,3.71,1.43,2.25,1.77,5.05,1.93,7.66.41,6.77.42,13.59.42,20.37q0,21.07-1.61,42.09-1.65,21.21-5,42.25-1.63,10.33-3.68,20.6c-1.15,5.78-2.12,12.23-6.09,16.86-6.78,7.88-18.61,8.23-28.19,8-14.07-.27-28.14-.86-42.21-1.3l-86.38-2.67-42.77-1.33-21.66-.67c-6.17-.19-12.42-.18-18.52-1.13-5.5-.86-11.1-2.54-15.43-6.18s-6.85-8.45-8.5-13.63a87.08,87.08,0,0,1-3.14-16.64q-1.18-10.18-1.67-20.42a307.14,307.14,0,0,1,6.86-81q2.16-9.74,4.94-19.32a1.5,1.5,0,0,0-2.89-.79,310.79,310.79,0,0,0-12.24,82.26,306.32,306.32,0,0,0,2.32,41.95c1.33,10.66,3.63,22.64,12.37,29.86,9.38,7.75,22.39,7.63,33.9,8l44.19,1.37,88.38,2.74,43.9,1.36c6.86.21,13.73.56,20.59.59a60.23,60.23,0,0,0,15.83-1.65,24.49,24.49,0,0,0,12.56-7.45c4-4.72,5.28-10.77,6.47-16.67q4.29-21.25,6.86-42.8,2.55-21.33,3.39-42.82.42-10.87.41-21.76c0-6.89,0-13.85-.46-20.73-.41-5.41-2.15-10.78-7.66-12.85a21.89,21.89,0,0,0-8.67-.93c-3.44.16-6.89.4-10.34.59q-21.85,1.17-43.73,1.68-43.74,1-87.51-.67-43.57-1.68-87-6-10.66-1.07-21.33-2.3c-1.91-.22-1.9,2.78,0,3Z"/><path d="M1333,478.8l43.14,3.82,21.57,1.91,10.66.94,5.46.49a23.36,23.36,0,0,1,4.88.5c1.14.36.51,1.93.36,2.86-.21,1.33-.46,2.65-.78,4a17.77,17.77,0,0,1-2.86,6.58,9.22,9.22,0,0,1-6.84,3.5,84.36,84.36,0,0,1-10.3-.27l-42.63-1.88c-4.07-.18-8.14-.34-12.2-.54a28.39,28.39,0,0,1-9.46-1.59,8.84,8.84,0,0,1-5.43-5.51c-.67-2.16-.56-4.9,1.44-6.34,1.56-1.12.06-3.72-1.51-2.59-4.44,3.18-4,9.48-.88,13.46,4,5,11.26,5.37,17.13,5.63l47.09,2.07,11.9.53c3.42.15,6.93.27,10.08-1.29,4.92-2.45,6.89-8.16,7.85-13.2.48-2.56,1.67-6.36-1.19-7.9-1.38-.74-3.16-.67-4.67-.81l-5.95-.52-23.8-2.11L1333,475.8c-1.92-.17-1.91,2.83,0,3Z"/><path d="M1189.75,117.2q83.2-.17,166.42-.3t166.42-.23q83.21-.09,166.42-.16c12.44,0,24.94-.36,37.36.44,11.19.71,22.65,2.56,32.68,7.8,19.76,10.33,27.61,31.91,30.86,52.72,4,25.85,3.76,52.56,3.56,78.65-.1,13.63-.45,27.27-.36,40.91.16,23.35.8,46.7,1.46,70q1.32,46.94,3,93.87,1.7,50.61,3.43,101.24,1.53,46.07,2.86,92.16c.6,22.2,1.2,44.41,1.24,66.63q0,5.26-.06,10.53c0,1.93,3,1.93,3,0,.3-19.57-.24-39.16-.71-58.73-.71-29.47-1.64-58.93-2.6-88.39q-1.65-50.88-3.43-101.76-1.65-48.74-3.17-97.5c-.76-25.59-1.5-51.18-1.86-76.78-.48-34.36,1.22-68.74-.72-103.07-1.19-21.18-2.8-44.13-13.88-62.81a53.33,53.33,0,0,0-21.49-20.52c-9.54-4.87-20.19-6.89-30.78-7.78-12.38-1-24.87-.66-37.27-.65l-41.91,0-83.83.08q-83.82.09-167.65.22-84.14.12-168.27.28l-40.68.08a1.5,1.5,0,0,0,0,3Z"/><path d="M1157.91,119.71c-10.81-2.9-21.87.45-30.54,7.21-9.63,7.5-15.21,18.64-18.34,30.23-3.63,13.46-4.65,27.69-5.57,41.54-1,15.89-1.3,31.82-1.22,47.73.16,31.42,1.57,62.82.86,94.23-.68,29.9-2.94,59.75-6.08,89.48-6.34,60-16.27,119.44-24.48,179.15-8,58.44-14.54,117.31-14,176.39a623.52,623.52,0,0,0,6.63,86.86c2.09,13.89,4.17,28.21,8.21,41.69,3.42,11.42,10.07,19.93,21.15,24.68,12.41,5.33,26.52,7.36,39.66,10.14q22.26,4.71,44.68,8.59c29.72,5.17,59.61,9.29,89.59,12.54,60.92,6.59,122.19,9.52,183.44,10.18,61.54.66,123.09-1,184.57-3.54,30.47-1.27,60.92-2.77,91.38-4.34,14.59-.75,29.55-.65,44-2.59,11-1.48,20.17-6.64,25.3-16.78s6-21.91,7-33.09q2.05-23.46,3.29-47,2.52-47.47,1.77-95-.37-23.15-1.51-46.25c-.09-1.92-3.09-1.93-3,0A1388.61,1388.61,0,0,1,1801.63,915c-1,12.18-1.37,25.47-7,36.6-6.57,13-19.16,15.38-32.56,16.1q-44.4,2.4-88.83,4.5c-59.32,2.78-118.68,4.94-178.06,5.27-59.17.33-118.38-1.16-177.38-5.72-59.22-4.58-118.23-12.27-176.41-24.25-13.57-2.8-27.62-5.15-40.79-9.5-6-2-11.95-4.83-16.37-9.52-4.58-4.87-7-11.27-8.66-17.63-7.32-27.65-10.53-56.89-12.48-85.36-3.91-57,0-114.21,6.63-170.86,6.74-57.57,16.31-114.77,24-172.22,7.7-57.68,13.17-115.59,12.54-173.85-.33-30.76-1.65-61.52-.63-92.28a387.92,387.92,0,0,1,3.59-44.92c2-13.18,5.59-27.17,14.81-37.26,8.31-9.08,20.81-14.78,33.1-11.47a1.51,1.51,0,0,0,.8-2.9Z"/><path d="M1586.61,963.73a93.17,93.17,0,0,1-4.15,32.08c-.58,1.85,2.31,2.64,2.89.8a95.59,95.59,0,0,0,4.26-32.88c-.09-1.92-3.09-1.93-3,0Z"/><path d="M1563.68,971.77l-2.48,24.16c-.2,1.92,2.8,1.9,3,0l2.48-24.16c.2-1.91-2.8-1.9-3,0Z"/><path d="M1546.66,969.15l-9.45,34.45a1.5,1.5,0,0,0,2.89.8l9.46-34.46a1.5,1.5,0,0,0-2.9-.79Z"/><path d="M1305.08,959.14a74.58,74.58,0,0,0-5.8,30.76c0,1.92,3,1.93,3,0a72.54,72.54,0,0,1,5.69-30,1.5,1.5,0,0,0-1-1.84,1.53,1.53,0,0,0-1.85,1Z"/><path d="M1272.56,957.15l-4.8,30.45c-.3,1.89,2.59,2.7,2.89.8l4.8-30.45c.3-1.89-2.59-2.7-2.89-.8Z"/><path d="M1288.79,959.12l-8.38,26.11c-.59,1.84,2.3,2.63,2.89.8l8.39-26.12c.59-1.84-2.31-2.63-2.9-.79Z"/><path class="cls-14" d="M738.19,746.41c-3.86,15.59-16.55,27-21.09,42.37-.55,1.85,2.34,2.64,2.89.79,4.54-15.32,17.23-26.72,21.09-42.36.46-1.88-2.43-2.68-2.89-.8Z"/><path class="cls-14" d="M736.86,744.52c-16.24,9.58-32.58,19-49.36,27.63l2.06.54a32.72,32.72,0,0,0-19.35-13.22,1.51,1.51,0,0,0-1.84,1.85,5.61,5.61,0,0,0,2.09,3.42,2.18,2.18,0,0,0,2.75-.29c2-2.2-1.12-4.46-3-5a1.52,1.52,0,0,0-1.84,1.85L672,774.64c.93,3.46,2.49,7.13,2.6,10.74.09,2.79-1.51,5.45-4.45,5.82-2.6.33-5.3-.72-7.76-1.39-2.85-.78-6-1.56-8.91-.42-.8.32-1.52,1.34-.89,2.2a183.85,183.85,0,0,1,15.21,24.93c.88,1.72,3.47.2,2.59-1.52a184.36,184.36,0,0,0-15.21-24.92l-.9,2.2c2.61-1,5.47-.1,8,.62,2.82.79,5.79,1.7,8.75,1.18a8.12,8.12,0,0,0,6.31-6.15c.81-3.76-.68-7.5-1.67-11.07-1.51-5.44-3-10.89-4.43-16.34l-1.84,1.85a8.07,8.07,0,0,1,1.33.61c.27.13,0,.1.06,0s0-.35.1-.47c.16-.3.47-.36.75-.46.45-.15.22.28.26,0a11.59,11.59,0,0,0-.66-1.55l-1.84,1.85A29.57,29.57,0,0,1,687,774.21a1.53,1.53,0,0,0,2,.53c16.77-8.63,33.11-18,49.35-27.63a1.5,1.5,0,0,0-1.51-2.59Z"/><path class="cls-14" d="M715.94,815.07,706.83,871c-1.47,9-3,18-3.3,27.19a102,102,0,0,0,2.79,26.56,124.43,124.43,0,0,0,4.3,14.26c.69,1.88,1.31,3.85,2.81,5.25s3.22,1.64,4.61.21-.77-3.5-2.12-2.12c-.2.21.14.15-.06,0a3.56,3.56,0,0,1-.75-.7,7.57,7.57,0,0,1-1.11-2.15q-1.11-2.94-2.08-5.91a120.17,120.17,0,0,1-3.22-11.94,97.59,97.59,0,0,1-2.12-24.7c.38-8.63,1.84-17.15,3.22-25.66l4.26-26.1,4.77-29.3c.31-1.89-2.58-2.7-2.89-.8Z"/><path class="cls-14" d="M736.08,750.71a3.85,3.85,0,0,0-1.08-2.65,3.25,3.25,0,0,0-2.51-1,1.58,1.58,0,0,0-1.18.59,1.45,1.45,0,0,0-.27,1.31,6.89,6.89,0,0,0,2.44,3.87,2.78,2.78,0,0,0,2.44.33,3.49,3.49,0,0,0,1.88-1.54,2.75,2.75,0,0,0,0-2.85,1.67,1.67,0,0,0-.9-.69,1.56,1.56,0,0,0-1.16.15,1.5,1.5,0,0,0-.68.9,1.47,1.47,0,0,0,.15,1.16,1.36,1.36,0,0,1,.13.24l-.15-.36a1.82,1.82,0,0,1,.07.25l-.06-.4a1.5,1.5,0,0,1,0,.3l.06-.4a1.64,1.64,0,0,1-.1.38l.15-.36a1.9,1.9,0,0,1-.23.39l.23-.3a2,2,0,0,1-.36.36l.31-.24a2.36,2.36,0,0,1-.4.24l.36-.15a2.38,2.38,0,0,1-.38.11l.4-.06a1,1,0,0,1-.35,0l.4.06a1.58,1.58,0,0,1-.31-.09l.36.15a2.51,2.51,0,0,1-.45-.26l.3.23a3,3,0,0,1-.53-.53l.24.3a5.21,5.21,0,0,1-.68-1.22l.15.36a10.85,10.85,0,0,1-.41-1.13l-1.45,1.9a1.45,1.45,0,0,1,.36,0l-.4,0a2.08,2.08,0,0,1,.41.11l-.36-.15a2.4,2.4,0,0,1,.46.27l-.31-.23a2.06,2.06,0,0,1,.39.39l-.23-.3a2.64,2.64,0,0,1,.29.49l-.15-.36a2.58,2.58,0,0,1,.17.62l-.06-.4a1.42,1.42,0,0,1,0,.29,1.5,1.5,0,0,0,3,0Z"/><path class="cls-14" d="M694.58,786.32a3.66,3.66,0,0,0,.94-3.74,4,4,0,0,0-2.86-3,6,6,0,0,0-4.65,1c-.61.4-1.18.86-1.76,1.3-.29.22-.59.44-.89.63l-.5.29s-.55.27-.28.16a1.54,1.54,0,0,0-1.05,1.84,1.52,1.52,0,0,0,1.85,1.05,14.78,14.78,0,0,0,3.26-2.05,11.69,11.69,0,0,1,1.56-1l.38-.19c-.27.12.15,0,.16,0a3.45,3.45,0,0,1,.4-.11l.27,0h.26a1.22,1.22,0,0,1,.26.06c.08,0,.39.19.15,0l.23.15s-.25-.23,0,0,.05,0,0,0,.14.21.16.25a1.62,1.62,0,0,1,.1.18c0,.12,0,.12,0,0s0,.09,0,.16a3.21,3.21,0,0,1,.08.34s0-.39,0,0c0,0,0,.29,0,.3s.08-.35,0,0,0,0,0,0l-.14.24c.15-.18.16-.21.06-.09l-.14.12a1.5,1.5,0,0,0,0,2.12,1.53,1.53,0,0,0,2.12,0Z"/><path class="cls-14" d="M704.56,774.07a4.51,4.51,0,0,0-1-3.81,4.85,4.85,0,0,0-3-1.67c-2.73-.37-4.94,1.69-6.71,3.49a1.5,1.5,0,1,0,2.12,2.12c.36-.36.72-.72,1.09-1.07.19-.17.37-.34.57-.5l.26-.22c-.24.19.11-.07.13-.08a6.65,6.65,0,0,1,.56-.36l.35-.18c.25-.13-.11,0,0,0s.45-.14.68-.2-.09,0,0,0,.21,0,.31,0,.23,0,.26,0c-.21,0-.26,0-.14,0l.15,0,.26.08c.24.07.1,0,0,0,.15,0,.4.24.52.3s-.2-.19,0,0l.23.22c.07.07.12.14.19.2s-.15-.23,0,0,.11.19.16.28c.18.29-.08-.29,0,0,0,.09.05.18.08.26.07.26.08.06,0,0a1.2,1.2,0,0,1,0,.33c0,.09-.06.43,0,0a1.5,1.5,0,0,0,2.9.8Z"/><path class="cls-14" d="M697.19,822c-7.16,2.56-14.56,5.37-20,10.88-5.89,6-8.18,14.26-9.55,22.3a157.36,157.36,0,0,0,.79,56.59c2.06,10.55,4.81,21.14,3.86,32-.17,1.92,2.83,1.91,3,0,.8-9.23-1-18.37-2.87-27.37a180.41,180.41,0,0,1-3.8-27.37,154.08,154.08,0,0,1,1.09-27.58c1-8.08,2.4-17,7.29-23.72s13.27-10.06,21-12.82c1.81-.64,1-3.54-.79-2.89Z"/><path class="cls-14" d="M648.82,937.71c9.48,6.93,19.09,14.25,24.42,25A35.29,35.29,0,0,1,677,979.65c-.09,2.75.3,5.21,2.84,6.71a18.57,18.57,0,0,1,5.68,4.79,18.9,18.9,0,0,1,3.3,7.06c.28,1.17.54,2.68-.4,3.63a4.36,4.36,0,0,1-2.76,1,75.49,75.49,0,0,1-9.14-.34l-10.12-.51q-10.11-.54-20.23-1.14a13.82,13.82,0,0,1-4-.39c-1.34-.51-1.62-2.16-2-3.4-.88-3.11-1.66-6.26-2.37-9.42a176.29,176.29,0,0,1-4-43.94c.07-1.93-2.93-1.93-3,0a179.37,179.37,0,0,0,3.58,42.18q1.05,5.11,2.41,10.16c.73,2.69,1.3,6.07,4.23,7.19a13.13,13.13,0,0,0,3.85.55l5.92.35,10.85.61q10.86.59,21.72,1.08c2.36.11,5,0,6.89-1.63,2.29-2,1.88-5.24,1.09-7.88a22,22,0,0,0-3.87-7.4,24,24,0,0,0-6.36-5.21c-1.23-.79-1.22-2.12-1.2-3.45,0-1.59.08-3.16,0-4.76a37.4,37.4,0,0,0-2-9.24c-4.83-13.79-16.22-22.79-27.61-31.1-1.56-1.14-3.06,1.46-1.51,2.59Z"/><path class="cls-14" d="M711.88,946.06a30.9,30.9,0,0,1-7.47,15,25.68,25.68,0,0,1-6.09,4.89c-2.8,1.59-5.94,2.42-8.72,4.05a1.51,1.51,0,0,0,1.52,2.6c2.87-1.69,6.14-2.55,9-4.24a28.14,28.14,0,0,0,6.65-5.45,33.69,33.69,0,0,0,8-16c.37-1.89-2.52-2.69-2.89-.8Z"/><path class="cls-14" d="M712.71,927.67l13.86,10.94c4,3.19,8.86,6.26,11.43,10.87,2.36,4.21,2.63,9.23,2.31,13.95a89.94,89.94,0,0,1-2.3,14.29c-1.08,4.53-2.66,9.72-6.74,12.46a1.56,1.56,0,0,0-.69,1.69,3.89,3.89,0,0,0,2.8,2.73c.82.29,2.77.41,2.67,1.63-.17,2.09-3.51,1.9-4.92,2q-3.28.19-6.57.08a70.1,70.1,0,0,1-26.4-6.26c-1.74-.8-3.27,1.79-1.51,2.59A74.31,74.31,0,0,0,720,1001a69.72,69.72,0,0,0,12,.17c1.83-.13,3.76-.26,5.25-1.44a4.71,4.71,0,0,0,1.75-4,4,4,0,0,0-2.76-3.37c-.74-.29-2.58-.4-2.8-1.3l-.69,1.7c3.93-2.63,6-6.93,7.34-11.33A89,89,0,0,0,743,966.33c.6-5.08.69-10.49-1.09-15.37-1.92-5.25-5.91-8.67-10.18-12l-16.94-13.37c-1.5-1.18-3.63.92-2.12,2.12Z"/><path class="cls-14" d="M635.8,920.38a158.08,158.08,0,0,1,3.47-26.89c.41-1.88-2.48-2.69-2.89-.8a162.32,162.32,0,0,0-3.58,27.69c-.08,1.93,2.92,1.92,3,0Z"/><path class="cls-14" d="M618.81,643.92c3.24-1.11,6.6-2.55,9-5.12a10.56,10.56,0,0,0,2.29-10.49c-2.74-8.31-12.27-10-19.86-8.55A30.78,30.78,0,0,0,591,632.5a38.15,38.15,0,0,0-6.49,23.31,34.62,34.62,0,0,0,2.76,12.49c1.87,4.22,5.32,7,8.46,10.24,6.4,6.58,11.56,14.24,16.39,22,4.91,7.92,9.6,16.07,12.75,24.87A93.06,93.06,0,0,1,630,749.66a96,96,0,0,1-8.69,48.59q-1.32,2.76-2.84,5.41a1.5,1.5,0,0,0,2.59,1.52,96.67,96.67,0,0,0,12.21-45.35A97.85,97.85,0,0,0,622.68,713a198.47,198.47,0,0,0-13.77-22.81,115.59,115.59,0,0,0-8-10.35q-2.16-2.49-4.51-4.79a48.94,48.94,0,0,1-4.39-4.49c-2.6-3.27-3.77-7.63-4.3-11.7a36.91,36.91,0,0,1,.41-11.91c1.53-7.62,5.46-14.8,11.8-19.45,5.75-4.21,13.72-6.64,20.73-4.42,3.69,1.16,6.73,4.31,6.91,8.32.15,3.56-2.27,6.14-5.2,7.77A27.26,27.26,0,0,1,618,641c-1.82.63-1,3.52.79,2.89Z"/><path class="cls-14" d="M620,646a69.81,69.81,0,0,0,36.55-12.48c5.1-3.56,10-7.7,13.29-13.07,3.43-5.63,4.62-12.35,4.44-18.88-.67-24-17.57-45.28-39.05-54.81-12.3-5.45-25.73-7.55-39.1-8a224.36,224.36,0,0,0-42,2.91,253.88,253.88,0,0,0-78.8,26.22c-20,10.63-38.95,25.45-49.38,46-13,25.61-8.57,55.12-9.15,82.77-.31,14.83-.89,29.78,1.77,44.45,2.44,13.48,7.76,26.23,14.21,38.25,6.29,11.72,13.52,23,20.8,34.11,7,10.76,14.51,21.34,23.29,30.77,8.57,9.21,18.53,17.24,30.06,22.43,12.63,5.69,26.2,8,39.82,9.93,6.83,1,13.81,2,20.17,4.84a40.37,40.37,0,0,1,13.74,10.12c7.72,8.59,12.37,19.62,16,30.45,1.88,5.57,3.49,11.23,5,16.91a1.5,1.5,0,0,0,2.89-.8c-3-11-6.26-22.07-11.23-32.39-4.55-9.44-10.81-18.43-19.78-24.13-11.18-7.1-24.85-7.41-37.52-9.61-13.24-2.3-26.31-6.07-37.73-13.36-21.08-13.47-35.18-35.49-48.29-56.21-7-11.09-14-22.27-19.51-34.2A114.62,114.62,0,0,1,420,728.66c-1.09-14.58,0-29.21-.08-43.81-.07-14.13-1-28.33.72-42.4a80.25,80.25,0,0,1,12.53-34.93,99.31,99.31,0,0,1,23.42-24.28,164.87,164.87,0,0,1,28.51-16.87,263.86,263.86,0,0,1,39.57-15,244,244,0,0,1,41-8.23c13.39-1.49,27.06-2.07,40.48-.7,13,1.33,26,4.88,37.05,12a63.74,63.74,0,0,1,22.31,24.9c5.4,10.87,8.39,25.46,3.09,36.91-2.71,5.86-7.62,10.32-12.78,14a69.09,69.09,0,0,1-17.38,9.09A65.23,65.23,0,0,1,620,643c-1.92.08-1.93,3.08,0,3Z"/><path class="cls-14" d="M720.82,819a204.61,204.61,0,0,1,11.1,32.39c1.45,5.5,2.77,11,4,16.57s2.84,11.2,3.55,16.87c.64,5.05.21,12-4.84,14.77l2.05.53A62.37,62.37,0,0,0,713,877c-1.7-.92-3.21,1.67-1.51,2.59a59.45,59.45,0,0,1,22.61,22.07,1.53,1.53,0,0,0,2,.54c4.31-2.38,6.21-7.48,6.52-12.16.41-6.15-1.5-12.37-2.82-18.3-2.66-11.9-5.45-23.8-9.22-35.41a181,181,0,0,0-7.24-18.83c-.8-1.76-3.39-.23-2.59,1.51Z"/><path class="cls-14" d="M651.05,817.58c-19.46,8.19-29.13,29.38-31.38,49.26a100.42,100.42,0,0,0-.22,19.46,1.5,1.5,0,0,0,2.94.4c3.19-8.35,6.46-17.17,12.68-23.8,6.09-6.47,14.33-10.58,19.21-18.23A21.55,21.55,0,0,0,657.9,831c-.2-1.9-3.21-1.92-3,0,.94,9-5.48,16-12,21.27-3.45,2.78-7.07,5.4-10.09,8.66a47.42,47.42,0,0,0-7.35,10.88,144.75,144.75,0,0,0-6,14.08l3,.4c-1.63-20.13,2.11-42.49,17-57.29a39.56,39.56,0,0,1,12.42-8.53,1.55,1.55,0,0,0,1-1.85,1.51,1.51,0,0,0-1.84-1Z"/><path d="M1444.19,558.07c-4.74,16.34-20.18,27.15-36.45,29.86-9.9,1.65-20.16.54-29.75-2.22a75.57,75.57,0,0,1-23.33-11.14c-7.5-5.4-13.9-12.59-17.49-21.17a1.54,1.54,0,0,0-1.84-1,1.5,1.5,0,0,0-1,1.84c7,16.68,22.72,27.73,39.43,33.33,18.58,6.23,40.36,6.18,56.72-5.73a43.8,43.8,0,0,0,16.66-22.93,1.5,1.5,0,0,0-2.9-.79Z"/></svg>