<svg id="Layer_1" data-name="Layer 1" xmlns="http://www.w3.org/2000/svg" viewBox="0 0 1920 1080"><defs><style>.cls-1{fill:#3785e2;}.cls-1,.cls-2{opacity:0.5;}.cls-2{fill:#e03838;}.cls-3{fill:#4d4d4d;}</style></defs><title>57</title><ellipse class="cls-1" cx="1611.63" cy="555.67" rx="234.06" ry="377.62"/><path class="cls-2" d="M443.32,488.88c39,11.08,186.18,71.86,217.38,206.54s59,227.23,13.93,274.16-94.78,76.33-168.3.09S395.92,848.26,377.87,785.55s-68.07-244-28.59-263.1S443.32,488.88,443.32,488.88Z"/><path d="M197.9,188.73a2.61,2.61,0,0,1-.78-1.92V150.39a2.71,2.71,0,0,1,.78-1.95,2.56,2.56,0,0,1,1.92-.81h24.06a2.56,2.56,0,0,1,2.58,2.58,2.39,2.39,0,0,1-.75,1.8,2.54,2.54,0,0,1-1.83.72h-21.3V166h19.14a2.56,2.56,0,0,1,2.58,2.58,2.39,2.39,0,0,1-.75,1.8,2.54,2.54,0,0,1-1.83.72H202.58v13.32h21.3a2.56,2.56,0,0,1,2.58,2.58,2.39,2.39,0,0,1-.75,1.8,2.54,2.54,0,0,1-1.83.72H199.82A2.61,2.61,0,0,1,197.9,188.73Z"/><path d="M233.33,189.06a2.85,2.85,0,0,1-.69-2,2.7,2.7,0,0,1,.6-1.68l9.3-11-9.3-11.34a2.79,2.79,0,0,1-.66-1.74,2.58,2.58,0,0,1,.78-1.95,2.66,2.66,0,0,1,1.92-.75,2.47,2.47,0,0,1,2.16,1l8.4,10.38,8.34-10.38a2.41,2.41,0,0,1,2.1-1,2.74,2.74,0,0,1,2,.75,2.44,2.44,0,0,1,.78,1.83,2.7,2.7,0,0,1-.6,1.68L249,174l9.36,11.28a2.48,2.48,0,0,1,.66,1.74,2.83,2.83,0,0,1-.72,1.95,2.59,2.59,0,0,1-2,.81,2.46,2.46,0,0,1-2.1-1.08l-8.52-10.2-8,10.08a2.8,2.8,0,0,1-2.34,1.2A2.44,2.44,0,0,1,233.33,189.06Z"/><path d="M272.18,188.19a14.78,14.78,0,0,1-5.85-5.52,17.44,17.44,0,0,1,0-16.92,14.78,14.78,0,0,1,5.85-5.52,16.92,16.92,0,0,1,8-1.92,16.63,16.63,0,0,1,5.49.81,20.74,20.74,0,0,1,4.29,2.07,2.39,2.39,0,0,1,.51,3.75,2.11,2.11,0,0,1-1.59.75,2.74,2.74,0,0,1-1.32-.36,22.85,22.85,0,0,0-3.39-1.47,11.7,11.7,0,0,0-3.51-.45,10.88,10.88,0,0,0-8.1,3,11.9,11.9,0,0,0,0,15.66,10.88,10.88,0,0,0,8.1,3,11.7,11.7,0,0,0,3.51-.45,22.85,22.85,0,0,0,3.39-1.47,2.74,2.74,0,0,1,1.32-.36,2.11,2.11,0,0,1,1.59.75,2.39,2.39,0,0,1-.51,3.75,20.74,20.74,0,0,1-4.29,2.07,16.63,16.63,0,0,1-5.49.81A16.92,16.92,0,0,1,272.18,188.19Z"/><path d="M302.69,188.55a10.14,10.14,0,0,1-3.72-4.26,13.46,13.46,0,0,1-1.29-5.94v-17a2.56,2.56,0,0,1,.81-1.92,2.69,2.69,0,0,1,1.95-.78,2.66,2.66,0,0,1,2.7,2.7v16.44c0,4.88,2.19,7.32,6.6,7.32a9.59,9.59,0,0,0,5.37-1.56,19.64,19.64,0,0,0,4.47-4.2v-18a2.56,2.56,0,0,1,.81-1.92,2.71,2.71,0,0,1,1.95-.78,2.66,2.66,0,0,1,2.7,2.7v25.74a2.75,2.75,0,0,1-.78,1.95,2.59,2.59,0,0,1-1.92.81,2.77,2.77,0,0,1-2.76-2.76v-2.46a20.13,20.13,0,0,1-4.92,4,12.45,12.45,0,0,1-6.24,1.5A10.35,10.35,0,0,1,302.69,188.55Z"/><path d="M333.5,187.41a2.27,2.27,0,0,1-1-2,2.4,2.4,0,0,1,.65-1.68,2.18,2.18,0,0,1,1.68-.72,2.72,2.72,0,0,1,1.09.24,23.81,23.81,0,0,0,3.83,1.32,17.85,17.85,0,0,0,4.32.48c4.45,0,6.66-1.42,6.66-4.26a2.26,2.26,0,0,0-1.52-2.1,31.53,31.53,0,0,0-5-1.62,45.27,45.27,0,0,1-5.85-1.74,10.29,10.29,0,0,1-4-2.73,6.94,6.94,0,0,1-1.65-4.83,8.63,8.63,0,0,1,3-6.84q3-2.64,8.67-2.64a25,25,0,0,1,8.69,1.5,2.25,2.25,0,0,1,1.29.9,2.34,2.34,0,0,1,.45,1.38,2.38,2.38,0,0,1-.68,1.68,2.3,2.3,0,0,1-1.71.72,3.37,3.37,0,0,1-.79-.12,23,23,0,0,0-6.84-1.08,9.31,9.31,0,0,0-5.06,1.17,3.47,3.47,0,0,0-1.83,3,2.77,2.77,0,0,0,1.67,2.64,24,24,0,0,0,5.22,1.62,50,50,0,0,1,5.76,1.77,9.52,9.52,0,0,1,3.81,2.73,7.41,7.41,0,0,1,1.6,5,7.93,7.93,0,0,1-3,6.36q-3,2.52-8.54,2.52A22.26,22.26,0,0,1,333.5,187.41Z"/><path d="M365.56,185.94q-4.11-4.17-4.11-11.73a19.56,19.56,0,0,1,1.56-7.86,13.36,13.36,0,0,1,4.8-5.82,13.79,13.79,0,0,1,8-2.22,14,14,0,0,1,7.68,2.07,13.39,13.39,0,0,1,4.92,5.52,17,17,0,0,1,1.68,7.53,2.62,2.62,0,0,1-2.76,2.7H367a9.87,9.87,0,0,0,3.12,6.54q2.64,2.34,7.38,2.34a18,18,0,0,0,4.41-.48,18.32,18.32,0,0,0,3.69-1.38,2.38,2.38,0,0,1,1.08-.24,2.41,2.41,0,0,1,1.68.66,2.18,2.18,0,0,1,.72,1.68,2.59,2.59,0,0,1-1.56,2.22,18.74,18.74,0,0,1-10.5,2.64Q369.67,190.11,365.56,185.94Zm19.11-14.25a9.61,9.61,0,0,0-1.53-4.92,8.26,8.26,0,0,0-3.33-2.91,9.15,9.15,0,0,0-8,0,8.06,8.06,0,0,0-3.3,2.91,9.79,9.79,0,0,0-1.5,4.92Z"/><path d="M413.65,189a2.61,2.61,0,0,1-.78-1.92V161.37a2.71,2.71,0,0,1,.78-2,2.56,2.56,0,0,1,1.92-.81,2.77,2.77,0,0,1,2.76,2.76v2.46a15,15,0,0,1,4.05-4,11,11,0,0,1,6.15-1.56,9.33,9.33,0,0,1,5.76,1.8,10,10,0,0,1,3.42,4.38,12.09,12.09,0,0,1,11-6.18,9.11,9.11,0,0,1,5.61,1.68,10,10,0,0,1,3.33,4.32,14.44,14.44,0,0,1,1.08,5.52v17.28A2.56,2.56,0,0,1,458,189a2.71,2.71,0,0,1-1.95.78,2.66,2.66,0,0,1-2.7-2.7v-16.2q0-3.9-1.38-5.73t-4.74-1.83a7.92,7.92,0,0,0-5.07,1.59,15.38,15.38,0,0,0-3.57,4.17v18a2.56,2.56,0,0,1-.81,1.92,2.71,2.71,0,0,1-1.95.78,2.66,2.66,0,0,1-2.7-2.7v-16.2q0-3.9-1.38-5.73T427,163.35a7.92,7.92,0,0,0-5.07,1.59,15.38,15.38,0,0,0-3.57,4.17v18a2.56,2.56,0,0,1-.81,1.92,2.71,2.71,0,0,1-1.95.78A2.61,2.61,0,0,1,413.65,189Z"/><path d="M470.2,185.94q-4.11-4.17-4.11-11.73a19.56,19.56,0,0,1,1.56-7.86,13.36,13.36,0,0,1,4.8-5.82,13.79,13.79,0,0,1,8-2.22,14,14,0,0,1,7.68,2.07A13.39,13.39,0,0,1,493,165.9a17,17,0,0,1,1.68,7.53,2.62,2.62,0,0,1-2.76,2.7H471.61a9.87,9.87,0,0,0,3.12,6.54q2.64,2.34,7.38,2.34a18,18,0,0,0,4.41-.48,18.32,18.32,0,0,0,3.69-1.38,2.38,2.38,0,0,1,1.08-.24,2.41,2.41,0,0,1,1.68.66,2.18,2.18,0,0,1,.72,1.68,2.59,2.59,0,0,1-1.56,2.22,18.74,18.74,0,0,1-10.5,2.64Q474.31,190.11,470.2,185.94Zm19.11-14.25a9.61,9.61,0,0,0-1.53-4.92,8.26,8.26,0,0,0-3.33-2.91,9.15,9.15,0,0,0-8,0,8.06,8.06,0,0,0-3.3,2.91,9.79,9.79,0,0,0-1.5,4.92Z"/><path d="M523,185.55v1.56a2.56,2.56,0,0,1-.81,1.92,2.71,2.71,0,0,1-1.95.78,2.66,2.66,0,0,1-2.7-2.7V148.17a2.71,2.71,0,0,1,.78-1.95,2.56,2.56,0,0,1,1.92-.81,2.67,2.67,0,0,1,2.76,2.76v14.7a13.79,13.79,0,0,1,10.26-4.56,14.07,14.07,0,0,1,7,1.89,14.34,14.34,0,0,1,5.4,5.52,18.45,18.45,0,0,1,0,17,14.34,14.34,0,0,1-5.4,5.52,14.07,14.07,0,0,1-7,1.89A13.79,13.79,0,0,1,523,185.55Zm16.62-3.36q2.7-2.82,2.7-8t-2.7-8a9.43,9.43,0,0,0-7.14-2.82,11.33,11.33,0,0,0-5.19,1.23,14.82,14.82,0,0,0-4.29,3.27v12.6a14.82,14.82,0,0,0,4.29,3.27,11.33,11.33,0,0,0,5.19,1.23A9.43,9.43,0,0,0,539.59,182.19Z"/><path d="M557.62,185.94q-4.11-4.17-4.11-11.73a19.56,19.56,0,0,1,1.56-7.86,13.36,13.36,0,0,1,4.8-5.82,13.79,13.79,0,0,1,8-2.22,14,14,0,0,1,7.68,2.07,13.39,13.39,0,0,1,4.92,5.52,17,17,0,0,1,1.68,7.53,2.62,2.62,0,0,1-2.76,2.7H559a9.87,9.87,0,0,0,3.12,6.54q2.64,2.34,7.38,2.34a18,18,0,0,0,4.41-.48,18.32,18.32,0,0,0,3.69-1.38,2.38,2.38,0,0,1,1.08-.24,2.41,2.41,0,0,1,1.68.66,2.18,2.18,0,0,1,.72,1.68,2.59,2.59,0,0,1-1.56,2.22,18.74,18.74,0,0,1-10.5,2.64Q561.73,190.11,557.62,185.94Zm19.11-14.25a9.61,9.61,0,0,0-1.53-4.92,8.26,8.26,0,0,0-3.33-2.91,9.15,9.15,0,0,0-8,0,8.06,8.06,0,0,0-3.3,2.91,9.79,9.79,0,0,0-1.5,4.92Z"/><path d="M592.24,189a8.52,8.52,0,0,1-3.57-3.15,8.68,8.68,0,0,1-1.32-4.77,8.41,8.41,0,0,1,3.51-7.08q3.51-2.64,10.29-2.64h7.26v-.48q0-4-1.95-5.7t-6.09-1.74a20.45,20.45,0,0,0-4,.36,34,34,0,0,0-3.93,1.08,3.37,3.37,0,0,1-.78.12,2.13,2.13,0,0,1-1.56-.66,2.2,2.2,0,0,1-.66-1.62,2.31,2.31,0,0,1,1.56-2.28,26.39,26.39,0,0,1,10.38-2.16,13.55,13.55,0,0,1,7,1.68,10.56,10.56,0,0,1,4.2,4.35,12.65,12.65,0,0,1,1.35,5.79v17a2.56,2.56,0,0,1-.81,1.92,2.71,2.71,0,0,1-1.95.78,2.66,2.66,0,0,1-2.7-2.7v-1.56a15.07,15.07,0,0,1-11.28,4.56A11.15,11.15,0,0,1,592.24,189Zm12-5a14.18,14.18,0,0,0,4.14-3.21v-5h-6.54q-9.06,0-9.06,4.74a4.45,4.45,0,0,0,1.47,3.48q1.47,1.32,4.89,1.32A10.85,10.85,0,0,0,604.27,184Z"/><path d="M623.83,189a2.61,2.61,0,0,1-.78-1.92V161.37a2.71,2.71,0,0,1,.78-2,2.56,2.56,0,0,1,1.92-.81,2.77,2.77,0,0,1,2.76,2.76V164q4.2-5.64,9.42-5.64h.3a2.51,2.51,0,0,1,1.89.78,2.66,2.66,0,0,1,.75,1.92,2.42,2.42,0,0,1-.78,1.86,2.81,2.81,0,0,1-2,.72h-.3a10.23,10.23,0,0,0-5.28,1.41,12.16,12.16,0,0,0-4,3.87v18.24a2.56,2.56,0,0,1-.81,1.92,2.71,2.71,0,0,1-2,.78A2.61,2.61,0,0,1,623.83,189Z"/><path d="M643.78,198a1.78,1.78,0,0,1-.51-1.26,1.67,1.67,0,0,1,.9-1.5,6.85,6.85,0,0,0,2.28-2.1,6.41,6.41,0,0,0,.78-3.48H647a3.38,3.38,0,0,1-3.36-3.36V186a3.38,3.38,0,0,1,3.36-3.36h.6A3.38,3.38,0,0,1,651,186v3.54a9.65,9.65,0,0,1-4.92,8.76,1.89,1.89,0,0,1-1,.3A1.63,1.63,0,0,1,643.78,198Z"/><path d="M197.9,261a2.61,2.61,0,0,1-.78-1.92v-37a2.71,2.71,0,0,1,.78-2,2.56,2.56,0,0,1,1.92-.81,2.77,2.77,0,0,1,2.76,2.76v37a2.56,2.56,0,0,1-.81,1.92,2.71,2.71,0,0,1-2,.78A2.61,2.61,0,0,1,197.9,261Z"/><path d="M229.52,261a2.61,2.61,0,0,1-.78-1.92V220.17a2.71,2.71,0,0,1,.78-1.95,2.56,2.56,0,0,1,1.92-.81,2.77,2.77,0,0,1,2.76,2.76v15.66a19.94,19.94,0,0,1,4.92-4,12.42,12.42,0,0,1,6.24-1.5,10.37,10.37,0,0,1,5.73,1.56,10.14,10.14,0,0,1,3.72,4.26,13.6,13.6,0,0,1,1.29,5.94v17a2.56,2.56,0,0,1-.81,1.92,2.71,2.71,0,0,1-1.95.78,2.66,2.66,0,0,1-2.7-2.7V242.67q0-7.32-6.6-7.32a9.55,9.55,0,0,0-5.37,1.56,19.44,19.44,0,0,0-4.47,4.2v18a2.56,2.56,0,0,1-.81,1.92,2.71,2.71,0,0,1-1.95.78A2.61,2.61,0,0,1,229.52,261Z"/><path d="M268.19,261a8.52,8.52,0,0,1-3.57-3.15,8.68,8.68,0,0,1-1.32-4.77,8.41,8.41,0,0,1,3.51-7.08q3.51-2.64,10.29-2.64h7.26v-.48q0-4-1.95-5.7t-6.09-1.74a20.31,20.31,0,0,0-4.05.36,34,34,0,0,0-3.93,1.08,3.37,3.37,0,0,1-.78.12,2.13,2.13,0,0,1-1.56-.66,2.2,2.2,0,0,1-.66-1.62,2.3,2.3,0,0,1,1.56-2.28,26.35,26.35,0,0,1,10.38-2.16,13.55,13.55,0,0,1,7,1.68,10.56,10.56,0,0,1,4.2,4.35,12.65,12.65,0,0,1,1.35,5.79v17A2.56,2.56,0,0,1,289,261a2.73,2.73,0,0,1-1.95.78,2.66,2.66,0,0,1-2.7-2.7v-1.56a15.07,15.07,0,0,1-11.28,4.56A11.12,11.12,0,0,1,268.19,261Zm12-5a14.18,14.18,0,0,0,4.14-3.21v-5h-6.54q-9.06,0-9.06,4.74a4.45,4.45,0,0,0,1.47,3.48q1.47,1.32,4.89,1.32A10.85,10.85,0,0,0,280.22,256Z"/><path d="M307.34,261.18a3.75,3.75,0,0,1-1.32-1.59l-10.44-25a3.36,3.36,0,0,1-.3-1.26,2.71,2.71,0,0,1,.78-2,2.56,2.56,0,0,1,1.92-.81,2.81,2.81,0,0,1,2.46,1.56l9.18,23.28,9.18-23.28a2.81,2.81,0,0,1,2.46-1.56,2.56,2.56,0,0,1,1.92.81,2.71,2.71,0,0,1,.78,2,3.36,3.36,0,0,1-.3,1.26l-10.44,25a3.75,3.75,0,0,1-1.32,1.59,3.38,3.38,0,0,1-2,.63h-.6A3.38,3.38,0,0,1,307.34,261.18Z"/><path d="M332.09,257.94Q328,253.77,328,246.21a19.56,19.56,0,0,1,1.56-7.86,13.36,13.36,0,0,1,4.8-5.82,13.79,13.79,0,0,1,8-2.22,14,14,0,0,1,7.68,2.07,13.39,13.39,0,0,1,4.92,5.52,17,17,0,0,1,1.68,7.53,2.62,2.62,0,0,1-2.76,2.7H333.5a9.87,9.87,0,0,0,3.12,6.54Q339.26,257,344,257a18,18,0,0,0,4.41-.48,18.32,18.32,0,0,0,3.69-1.38,2.38,2.38,0,0,1,1.08-.24,2.41,2.41,0,0,1,1.68.66,2.18,2.18,0,0,1,.72,1.68,2.59,2.59,0,0,1-1.56,2.22,18.74,18.74,0,0,1-10.5,2.64Q336.2,262.11,332.09,257.94Zm19.11-14.25a9.61,9.61,0,0,0-1.53-4.92,8.26,8.26,0,0,0-3.33-2.91,9.15,9.15,0,0,0-8,0,8.06,8.06,0,0,0-3.3,2.91,9.79,9.79,0,0,0-1.5,4.92Z"/><path d="M382.31,261a8.52,8.52,0,0,1-3.57-3.15,8.68,8.68,0,0,1-1.32-4.77,8.41,8.41,0,0,1,3.51-7.08q3.51-2.64,10.29-2.64h7.26v-.48q0-4-2-5.7t-6.09-1.74a20.38,20.38,0,0,0-4.05.36,34,34,0,0,0-3.93,1.08,3.37,3.37,0,0,1-.78.12,2.13,2.13,0,0,1-1.56-.66,2.2,2.2,0,0,1-.66-1.62,2.31,2.31,0,0,1,1.56-2.28,26.39,26.39,0,0,1,10.38-2.16,13.55,13.55,0,0,1,7,1.68,10.56,10.56,0,0,1,4.2,4.35,12.65,12.65,0,0,1,1.35,5.79v17a2.56,2.56,0,0,1-.81,1.92,2.71,2.71,0,0,1-1.95.78,2.66,2.66,0,0,1-2.7-2.7v-1.56a15.07,15.07,0,0,1-11.28,4.56A11.15,11.15,0,0,1,382.31,261Zm12-5a14.18,14.18,0,0,0,4.14-3.21v-5h-6.54q-9.06,0-9.06,4.74a4.45,4.45,0,0,0,1.47,3.48q1.47,1.32,4.89,1.32A10.85,10.85,0,0,0,394.34,256Z"/><path d="M452.45,274.83a2.63,2.63,0,0,1-.81-2v-15.3a13.79,13.79,0,0,1-10.26,4.56,14.07,14.07,0,0,1-7.05-1.89,14.34,14.34,0,0,1-5.4-5.52,18.45,18.45,0,0,1,0-17,14.34,14.34,0,0,1,5.4-5.52,14.07,14.07,0,0,1,7.05-1.89,13.79,13.79,0,0,1,10.26,4.56v-1.56a2.56,2.56,0,0,1,.81-1.92,2.71,2.71,0,0,1,1.95-.78,2.66,2.66,0,0,1,2.7,2.7v39.54a2.75,2.75,0,0,1-.78,1.95,2.58,2.58,0,0,1-1.92.81A2.71,2.71,0,0,1,452.45,274.83Zm-5.1-19a14.82,14.82,0,0,0,4.29-3.27v-12.6a14.82,14.82,0,0,0-4.29-3.27,11.33,11.33,0,0,0-5.19-1.23,9.41,9.41,0,0,0-7.14,2.82q-2.7,2.82-2.7,8t2.7,8a9.41,9.41,0,0,0,7.14,2.82A11.33,11.33,0,0,0,447.35,255.78Z"/><path d="M471.29,260.55a10.17,10.17,0,0,1-3.73-4.26,13.6,13.6,0,0,1-1.29-5.94v-17a2.56,2.56,0,0,1,.81-1.92,2.72,2.72,0,0,1,2-.78,2.65,2.65,0,0,1,2.69,2.7v16.44q0,7.32,6.6,7.32a9.6,9.6,0,0,0,5.38-1.56,19.61,19.61,0,0,0,4.46-4.2v-18a2.56,2.56,0,0,1,.81-1.92,2.72,2.72,0,0,1,2-.78,2.66,2.66,0,0,1,2.69,2.7v25.74a2.71,2.71,0,0,1-.78,1.95,2.55,2.55,0,0,1-1.91.81,2.77,2.77,0,0,1-2.77-2.76v-2.46a19.94,19.94,0,0,1-4.92,4,12.39,12.39,0,0,1-6.23,1.5A10.33,10.33,0,0,1,471.29,260.55Z"/><path d="M505.37,257.94q-4.12-4.17-4.12-11.73a19.56,19.56,0,0,1,1.56-7.86,13.38,13.38,0,0,1,4.81-5.82,13.74,13.74,0,0,1,8-2.22,13.92,13.92,0,0,1,7.67,2.07,13.32,13.32,0,0,1,4.92,5.52,17,17,0,0,1,1.69,7.53,2.67,2.67,0,0,1-.76,1.92,2.64,2.64,0,0,1-2,.78H506.77a9.83,9.83,0,0,0,3.13,6.54q2.63,2.34,7.37,2.34a18.12,18.12,0,0,0,4.42-.48,18.78,18.78,0,0,0,3.69-1.38,2.32,2.32,0,0,1,1.08-.24,2.4,2.4,0,0,1,1.67.66,2.15,2.15,0,0,1,.72,1.68,2.59,2.59,0,0,1-1.56,2.22,18.74,18.74,0,0,1-10.5,2.64Q509.47,262.11,505.37,257.94Zm19.11-14.25a9.62,9.62,0,0,0-1.54-4.92,8.23,8.23,0,0,0-3.32-2.91,9.44,9.44,0,0,0-4-.93,9.34,9.34,0,0,0-4,.93,8,8,0,0,0-3.31,2.91,9.89,9.89,0,0,0-1.5,4.92Z"/><path d="M536.05,259.41a2.29,2.29,0,0,1-1-2,2.41,2.41,0,0,1,.66-1.68,2.18,2.18,0,0,1,1.68-.72,2.64,2.64,0,0,1,1.08.24,24.25,24.25,0,0,0,3.84,1.32,17.85,17.85,0,0,0,4.32.48q6.66,0,6.66-4.26a2.27,2.27,0,0,0-1.53-2.1,31.33,31.33,0,0,0-5-1.62,45.27,45.27,0,0,1-5.85-1.74,10.29,10.29,0,0,1-4-2.73,6.94,6.94,0,0,1-1.65-4.83,8.65,8.65,0,0,1,3-6.84q3-2.64,8.67-2.64a25,25,0,0,1,8.7,1.5,2.25,2.25,0,0,1,1.29.9,2.41,2.41,0,0,1,.45,1.38,2.35,2.35,0,0,1-.69,1.68,2.27,2.27,0,0,1-1.71.72,3.37,3.37,0,0,1-.78-.12,23,23,0,0,0-6.84-1.08,9.37,9.37,0,0,0-5.07,1.17,3.49,3.49,0,0,0-1.83,3,2.77,2.77,0,0,0,1.68,2.64,24,24,0,0,0,5.22,1.62,50,50,0,0,1,5.76,1.77,9.52,9.52,0,0,1,3.81,2.73,7.41,7.41,0,0,1,1.59,5,7.93,7.93,0,0,1-3,6.36q-3,2.52-8.55,2.52A22.32,22.32,0,0,1,536.05,259.41Z"/><path d="M567.43,254.19v-18.6h-4.26a1.13,1.13,0,0,1-1.14-1.14,1.25,1.25,0,0,1,.54-1l8.16-8a1.51,1.51,0,0,1,1-.54,1.06,1.06,0,0,1,.81.36,1.2,1.2,0,0,1,.33.84v4.8h6.78a2.26,2.26,0,0,1,2.34,2.34,2.3,2.3,0,0,1-.66,1.65,2.22,2.22,0,0,1-1.68.69h-6.78v18.12q0,2.34,1.11,3a5.59,5.59,0,0,0,2.79.63,8.32,8.32,0,0,0,2.4-.36l.51-.12a3.27,3.27,0,0,1,.69-.06,2.11,2.11,0,0,1,1.5.63,2,2,0,0,1,.66,1.53,2.27,2.27,0,0,1-1.38,2.1,11.74,11.74,0,0,1-5,1.08Q567.43,262.11,567.43,254.19Z"/><path d="M589,223.77a3,3,0,0,1-.9-2.16v-.24a3.07,3.07,0,0,1,3.06-3.06h.36a3.07,3.07,0,0,1,3.06,3.06v.24a3.07,3.07,0,0,1-3.06,3.06h-.36A3,3,0,0,1,589,223.77Zm.36,37.26a2.61,2.61,0,0,1-.78-1.92V233.37a2.71,2.71,0,0,1,.78-2,2.56,2.56,0,0,1,1.92-.81,2.67,2.67,0,0,1,2.76,2.76v25.74a2.56,2.56,0,0,1-.81,1.92,2.71,2.71,0,0,1-2,.78A2.61,2.61,0,0,1,589.33,261Z"/><path d="M608.89,260.13a13.46,13.46,0,0,1-5.37-5.61,19.21,19.21,0,0,1,0-16.62,13.46,13.46,0,0,1,5.37-5.61,17.44,17.44,0,0,1,16.14,0,13.65,13.65,0,0,1,5.4,5.61,18.94,18.94,0,0,1,0,16.62,13.65,13.65,0,0,1-5.4,5.61,17.44,17.44,0,0,1-16.14,0ZM621.7,256a9.16,9.16,0,0,0,3.72-3.6,12,12,0,0,0,1.47-6.24,11.88,11.88,0,0,0-1.47-6.18,9,9,0,0,0-3.72-3.57,10.52,10.52,0,0,0-4.71-1.11,10.64,10.64,0,0,0-4.77,1.11,8.78,8.78,0,0,0-3.69,3.57,12.08,12.08,0,0,0-1.44,6.18,12.21,12.21,0,0,0,1.44,6.24,9,9,0,0,0,3.69,3.6,10.41,10.41,0,0,0,4.77,1.14A10.29,10.29,0,0,0,621.7,256Z"/><path d="M640.75,261a2.61,2.61,0,0,1-.78-1.92V233.37a2.71,2.71,0,0,1,.78-2,2.56,2.56,0,0,1,1.92-.81,2.77,2.77,0,0,1,2.76,2.76v2.46a19.94,19.94,0,0,1,4.92-4,12.42,12.42,0,0,1,6.24-1.5,10.37,10.37,0,0,1,5.73,1.56,10.14,10.14,0,0,1,3.72,4.26,13.6,13.6,0,0,1,1.29,5.94v17a2.56,2.56,0,0,1-.81,1.92,2.71,2.71,0,0,1-1.95.78,2.66,2.66,0,0,1-2.7-2.7V242.67q0-7.32-6.6-7.32a9.55,9.55,0,0,0-5.37,1.56,19.44,19.44,0,0,0-4.47,4.2v18a2.56,2.56,0,0,1-.81,1.92,2.71,2.71,0,0,1-2,.78A2.61,2.61,0,0,1,640.75,261Z"/><path d="M695.17,261a2.61,2.61,0,0,1-.78-1.92V235.59h-3.54a2.36,2.36,0,0,1-2.34-2.34,2.22,2.22,0,0,1,.69-1.68,2.3,2.3,0,0,1,1.65-.66h3.54v-3.48a12,12,0,0,1,1.29-5.91,8,8,0,0,1,3.36-3.36,9.49,9.49,0,0,1,4.35-1,11.51,11.51,0,0,1,5.22,1.2,2.59,2.59,0,0,1,1,.87,2.14,2.14,0,0,1,.39,1.23,2.23,2.23,0,0,1-.66,1.59,2.09,2.09,0,0,1-1.56.69,5.69,5.69,0,0,1-1.38-.18q-1.44-.18-1.62-.18a5.26,5.26,0,0,0-3.69,1.14q-1.23,1.14-1.23,4.14v3.3h7.5a2.26,2.26,0,0,1,2.34,2.34,2.3,2.3,0,0,1-.66,1.65,2.22,2.22,0,0,1-1.68.69h-7.5v23.52A2.56,2.56,0,0,1,699,261a2.71,2.71,0,0,1-1.95.78A2.61,2.61,0,0,1,695.17,261Z"/><path d="M718.69,260.13a13.46,13.46,0,0,1-5.37-5.61,19.21,19.21,0,0,1,0-16.62,13.46,13.46,0,0,1,5.37-5.61,17.44,17.44,0,0,1,16.14,0,13.65,13.65,0,0,1,5.4,5.61,18.94,18.94,0,0,1,0,16.62,13.65,13.65,0,0,1-5.4,5.61,17.44,17.44,0,0,1-16.14,0ZM731.5,256a9.16,9.16,0,0,0,3.72-3.6,12,12,0,0,0,1.47-6.24,11.88,11.88,0,0,0-1.47-6.18,9,9,0,0,0-3.72-3.57,10.52,10.52,0,0,0-4.71-1.11A10.64,10.64,0,0,0,722,236.4a8.78,8.78,0,0,0-3.69,3.57,12.08,12.08,0,0,0-1.44,6.18,12.21,12.21,0,0,0,1.44,6.24A9,9,0,0,0,722,256a10.41,10.41,0,0,0,4.77,1.14A10.29,10.29,0,0,0,731.5,256Z"/><path d="M750.55,261a2.61,2.61,0,0,1-.78-1.92V233.37a2.71,2.71,0,0,1,.78-2,2.56,2.56,0,0,1,1.92-.81,2.77,2.77,0,0,1,2.76,2.76V236q4.2-5.64,9.42-5.64h.3a2.51,2.51,0,0,1,1.89.78,2.66,2.66,0,0,1,.75,1.92,2.42,2.42,0,0,1-.78,1.86,2.81,2.81,0,0,1-2,.72h-.3a10.23,10.23,0,0,0-5.28,1.41,12.16,12.16,0,0,0-4,3.87v18.24a2.56,2.56,0,0,1-.81,1.92,2.71,2.71,0,0,1-1.95.78A2.61,2.61,0,0,1,750.55,261Z"/><path d="M793.36,274.83a2.59,2.59,0,0,1-.75-1.86,2.72,2.72,0,0,1,.18-1l3.9-10-11.28-27.48a3.07,3.07,0,0,1-.24-1.14,2.71,2.71,0,0,1,.78-2,2.56,2.56,0,0,1,1.92-.81,2.62,2.62,0,0,1,1.53.48,2.72,2.72,0,0,1,1,1.2l9.24,22.92,9.42-22.8a2.62,2.62,0,0,1,2.52-1.8,2.56,2.56,0,0,1,1.92.81,2.71,2.71,0,0,1,.78,2,2.88,2.88,0,0,1-.18,1l-16.38,39.36a2.7,2.7,0,0,1-2.52,1.86A2.44,2.44,0,0,1,793.36,274.83Z"/><path d="M825.55,260.13a13.46,13.46,0,0,1-5.37-5.61,19.21,19.21,0,0,1,0-16.62,13.46,13.46,0,0,1,5.37-5.61,17.44,17.44,0,0,1,16.14,0,13.65,13.65,0,0,1,5.4,5.61,18.94,18.94,0,0,1,0,16.62,13.65,13.65,0,0,1-5.4,5.61,17.44,17.44,0,0,1-16.14,0ZM838.36,256a9.16,9.16,0,0,0,3.72-3.6,12,12,0,0,0,1.47-6.24,11.88,11.88,0,0,0-1.47-6.18,9,9,0,0,0-3.72-3.57,10.52,10.52,0,0,0-4.71-1.11,10.64,10.64,0,0,0-4.77,1.11,8.78,8.78,0,0,0-3.69,3.57,12.08,12.08,0,0,0-1.44,6.18,12.21,12.21,0,0,0,1.44,6.24,9,9,0,0,0,3.69,3.6,10.41,10.41,0,0,0,4.77,1.14A10.29,10.29,0,0,0,838.36,256Z"/><path d="M861.34,260.55a10.14,10.14,0,0,1-3.72-4.26,13.6,13.6,0,0,1-1.29-5.94v-17a2.56,2.56,0,0,1,.81-1.92,2.71,2.71,0,0,1,2-.78,2.66,2.66,0,0,1,2.7,2.7v16.44q0,7.32,6.6,7.32a9.55,9.55,0,0,0,5.37-1.56,19.44,19.44,0,0,0,4.47-4.2v-18a2.56,2.56,0,0,1,.81-1.92,2.71,2.71,0,0,1,2-.78,2.66,2.66,0,0,1,2.7,2.7v25.74a2.71,2.71,0,0,1-.78,1.95,2.56,2.56,0,0,1-1.92.81,2.77,2.77,0,0,1-2.76-2.76v-2.46a19.94,19.94,0,0,1-4.92,4,12.42,12.42,0,0,1-6.24,1.5A10.37,10.37,0,0,1,861.34,260.55Z"/><path d="M197.9,405a2.61,2.61,0,0,1-.78-1.92v-37a2.71,2.71,0,0,1,.78-1.95,2.56,2.56,0,0,1,1.92-.81,2.77,2.77,0,0,1,2.76,2.76v37a2.56,2.56,0,0,1-.81,1.92,2.71,2.71,0,0,1-2,.78A2.61,2.61,0,0,1,197.9,405Z"/><path d="M229.52,405a2.61,2.61,0,0,1-.78-1.92V364.17a2.71,2.71,0,0,1,.78-1.95,2.56,2.56,0,0,1,1.92-.81,2.77,2.77,0,0,1,2.76,2.76v15.66a19.94,19.94,0,0,1,4.92-4,12.42,12.42,0,0,1,6.24-1.5,10.37,10.37,0,0,1,5.73,1.56,10.14,10.14,0,0,1,3.72,4.26,13.6,13.6,0,0,1,1.29,5.94v17a2.56,2.56,0,0,1-.81,1.92,2.71,2.71,0,0,1-1.95.78,2.66,2.66,0,0,1-2.7-2.7V386.67q0-7.32-6.6-7.32a9.55,9.55,0,0,0-5.37,1.56,19.44,19.44,0,0,0-4.47,4.2v18a2.56,2.56,0,0,1-.81,1.92,2.71,2.71,0,0,1-1.95.78A2.61,2.61,0,0,1,229.52,405Z"/><path d="M267.53,401.94q-4.11-4.17-4.11-11.73a19.56,19.56,0,0,1,1.56-7.86,13.36,13.36,0,0,1,4.8-5.82,13.79,13.79,0,0,1,8-2.22,14,14,0,0,1,7.68,2.07,13.39,13.39,0,0,1,4.92,5.52,17,17,0,0,1,1.68,7.53,2.62,2.62,0,0,1-2.76,2.7H268.94a9.82,9.82,0,0,0,3.12,6.54q2.64,2.34,7.38,2.34a18,18,0,0,0,4.41-.48,18.32,18.32,0,0,0,3.69-1.38,2.38,2.38,0,0,1,1.08-.24,2.43,2.43,0,0,1,1.68.66,2.18,2.18,0,0,1,.72,1.68,2.59,2.59,0,0,1-1.56,2.22,18.74,18.74,0,0,1-10.5,2.64Q271.64,406.11,267.53,401.94Zm19.11-14.25a9.61,9.61,0,0,0-1.53-4.92,8.26,8.26,0,0,0-3.33-2.91,9.15,9.15,0,0,0-8,0,8,8,0,0,0-3.3,2.91,9.79,9.79,0,0,0-1.5,4.92Z"/><path d="M302.15,405a8.46,8.46,0,0,1-3.57-3.15,8.6,8.6,0,0,1-1.33-4.77,8.42,8.42,0,0,1,3.52-7.08q3.5-2.64,10.29-2.64h7.25v-.48q0-4-1.94-5.7c-1.31-1.16-3.33-1.74-6.1-1.74a20.28,20.28,0,0,0-4,.36,34.1,34.1,0,0,0-3.94,1.08,3.38,3.38,0,0,1-.77.12,2.13,2.13,0,0,1-1.56-.66,2.17,2.17,0,0,1-.67-1.62,2.31,2.31,0,0,1,1.56-2.28,26.4,26.4,0,0,1,10.39-2.16,13.58,13.58,0,0,1,7,1.68,10.69,10.69,0,0,1,4.2,4.35,12.64,12.64,0,0,1,1.34,5.79v17A2.59,2.59,0,0,1,323,405a2.73,2.73,0,0,1-2,.78,2.68,2.68,0,0,1-2.71-2.7v-1.56A15,15,0,0,1,307,406.11,11.12,11.12,0,0,1,302.15,405Zm12-5a14.26,14.26,0,0,0,4.13-3.21v-5h-6.54q-9.06,0-9,4.74a4.42,4.42,0,0,0,1.47,3.48c1,.88,2.6,1.32,4.89,1.32A10.91,10.91,0,0,0,314.18,400Z"/><path d="M333.73,405a2.6,2.6,0,0,1-.77-1.92V377.37a2.7,2.7,0,0,1,.77-1.95,2.56,2.56,0,0,1,1.92-.81,2.66,2.66,0,0,1,2,.81,2.63,2.63,0,0,1,.82,1.95V380q4.18-5.64,9.41-5.64h.3a2.51,2.51,0,0,1,1.89.78,2.66,2.66,0,0,1,.75,1.92,2.42,2.42,0,0,1-.78,1.86,2.81,2.81,0,0,1-2,.72h-.3a10.17,10.17,0,0,0-5.27,1.41,12,12,0,0,0-4,3.87v18.24a2.53,2.53,0,0,1-.82,1.92,2.71,2.71,0,0,1-2,.78A2.61,2.61,0,0,1,333.73,405Z"/><path d="M360.65,404.22a14.2,14.2,0,0,1-5.4-5.52,18.37,18.37,0,0,1,0-17,14.2,14.2,0,0,1,5.4-5.52,14,14,0,0,1,7-1.89A13.83,13.83,0,0,1,378,378.87v-14.7a2.63,2.63,0,0,1,.81-2,2.67,2.67,0,0,1,1.94-.78,2.56,2.56,0,0,1,1.92.81,2.72,2.72,0,0,1,.79,1.95v38.94a2.68,2.68,0,0,1-2.71,2.7,2.67,2.67,0,0,1-1.94-.78,2.56,2.56,0,0,1-.81-1.92v-1.56a13.83,13.83,0,0,1-10.27,4.56A14,14,0,0,1,360.65,404.22Zm13-4.44a15,15,0,0,0,4.29-3.27v-12.6a15,15,0,0,0-4.29-3.27,11.39,11.39,0,0,0-5.19-1.23,9.44,9.44,0,0,0-7.15,2.82c-1.79,1.88-2.7,4.54-2.7,8s.91,6.1,2.7,8a9.44,9.44,0,0,0,7.15,2.82A11.39,11.39,0,0,0,373.67,399.78Z"/><path d="M413.5,418.83a2.59,2.59,0,0,1-.75-1.86,2.72,2.72,0,0,1,.18-1l3.9-10-11.28-27.48a3.07,3.07,0,0,1-.24-1.14,2.71,2.71,0,0,1,.78-1.95,2.56,2.56,0,0,1,1.92-.81,2.62,2.62,0,0,1,1.53.48,2.72,2.72,0,0,1,1,1.2l9.24,22.92,9.42-22.8a2.62,2.62,0,0,1,2.52-1.8,2.56,2.56,0,0,1,1.92.81,2.71,2.71,0,0,1,.78,1.95,2.88,2.88,0,0,1-.18,1l-16.38,39.36a2.7,2.7,0,0,1-2.52,1.86A2.44,2.44,0,0,1,413.5,418.83Z"/><path d="M445.69,404.13a13.46,13.46,0,0,1-5.37-5.61,19.21,19.21,0,0,1,0-16.62,13.46,13.46,0,0,1,5.37-5.61,17.44,17.44,0,0,1,16.14,0,13.65,13.65,0,0,1,5.4,5.61,18.94,18.94,0,0,1,0,16.62,13.65,13.65,0,0,1-5.4,5.61,17.44,17.44,0,0,1-16.14,0ZM458.5,400a9.16,9.16,0,0,0,3.72-3.6,12,12,0,0,0,1.47-6.24,11.88,11.88,0,0,0-1.47-6.18,9,9,0,0,0-3.72-3.57,10.52,10.52,0,0,0-4.71-1.11A10.64,10.64,0,0,0,449,380.4a8.78,8.78,0,0,0-3.69,3.57,12.08,12.08,0,0,0-1.44,6.18,12.21,12.21,0,0,0,1.44,6.24A9,9,0,0,0,449,400a10.41,10.41,0,0,0,4.77,1.14A10.29,10.29,0,0,0,458.5,400Z"/><path d="M481.48,404.55a10.14,10.14,0,0,1-3.72-4.26,13.6,13.6,0,0,1-1.29-5.94v-17a2.56,2.56,0,0,1,.81-1.92,2.71,2.71,0,0,1,2-.78,2.66,2.66,0,0,1,2.7,2.7v16.44q0,7.32,6.6,7.32a9.55,9.55,0,0,0,5.37-1.56,19.44,19.44,0,0,0,4.47-4.2v-18a2.56,2.56,0,0,1,.81-1.92,2.71,2.71,0,0,1,1.95-.78,2.66,2.66,0,0,1,2.7,2.7v25.74a2.71,2.71,0,0,1-.78,1.95,2.56,2.56,0,0,1-1.92.81,2.77,2.77,0,0,1-2.76-2.76v-2.46a19.94,19.94,0,0,1-4.92,4,12.42,12.42,0,0,1-6.24,1.5A10.37,10.37,0,0,1,481.48,404.55Z"/><path d="M529.69,405a2.61,2.61,0,0,1-.78-1.92V364.17a2.71,2.71,0,0,1,.78-1.95,2.56,2.56,0,0,1,1.92-.81,2.77,2.77,0,0,1,2.76,2.76v15.66a19.94,19.94,0,0,1,4.92-4,12.42,12.42,0,0,1,6.24-1.5,10.37,10.37,0,0,1,5.73,1.56,10.14,10.14,0,0,1,3.72,4.26,13.6,13.6,0,0,1,1.29,5.94v17a2.56,2.56,0,0,1-.81,1.92,2.71,2.71,0,0,1-2,.78,2.66,2.66,0,0,1-2.7-2.7V386.67q0-7.32-6.6-7.32a9.55,9.55,0,0,0-5.37,1.56,19.44,19.44,0,0,0-4.47,4.2v18a2.56,2.56,0,0,1-.81,1.92,2.71,2.71,0,0,1-1.95.78A2.61,2.61,0,0,1,529.69,405Z"/><path d="M568.36,405a8.52,8.52,0,0,1-3.57-3.15,8.68,8.68,0,0,1-1.32-4.77A8.41,8.41,0,0,1,567,390q3.51-2.64,10.29-2.64h7.26v-.48q0-4-1.95-5.7t-6.09-1.74a20.45,20.45,0,0,0-4,.36,34,34,0,0,0-3.93,1.08,3.37,3.37,0,0,1-.78.12,2.13,2.13,0,0,1-1.56-.66,2.2,2.2,0,0,1-.66-1.62,2.31,2.31,0,0,1,1.56-2.28,26.39,26.39,0,0,1,10.38-2.16,13.55,13.55,0,0,1,7,1.68,10.56,10.56,0,0,1,4.2,4.35,12.65,12.65,0,0,1,1.35,5.79v17a2.56,2.56,0,0,1-.81,1.92,2.71,2.71,0,0,1-1.95.78,2.66,2.66,0,0,1-2.7-2.7v-1.56a15.07,15.07,0,0,1-11.28,4.56A11.15,11.15,0,0,1,568.36,405Zm12-5a14.18,14.18,0,0,0,4.14-3.21v-5H578q-9.06,0-9.06,4.74A4.45,4.45,0,0,0,570.4,400q1.47,1.32,4.89,1.32A10.85,10.85,0,0,0,580.39,400Z"/><path d="M607.51,405.18a3.75,3.75,0,0,1-1.32-1.59l-10.44-25a3.36,3.36,0,0,1-.3-1.26,2.71,2.71,0,0,1,.78-1.95,2.56,2.56,0,0,1,1.92-.81,2.81,2.81,0,0,1,2.46,1.56l9.18,23.28L619,376.17a2.81,2.81,0,0,1,2.46-1.56,2.56,2.56,0,0,1,1.92.81,2.71,2.71,0,0,1,.78,1.95,3.36,3.36,0,0,1-.3,1.26l-10.44,25a3.75,3.75,0,0,1-1.32,1.59,3.38,3.38,0,0,1-2,.63h-.6A3.38,3.38,0,0,1,607.51,405.18Z"/><path d="M632.26,401.94q-4.11-4.17-4.11-11.73a19.56,19.56,0,0,1,1.56-7.86,13.36,13.36,0,0,1,4.8-5.82,13.79,13.79,0,0,1,8-2.22,14,14,0,0,1,7.68,2.07,13.39,13.39,0,0,1,4.92,5.52,17,17,0,0,1,1.68,7.53,2.62,2.62,0,0,1-2.76,2.7H633.67a9.87,9.87,0,0,0,3.12,6.54q2.64,2.34,7.38,2.34a18,18,0,0,0,4.41-.48,18.32,18.32,0,0,0,3.69-1.38,2.38,2.38,0,0,1,1.08-.24,2.41,2.41,0,0,1,1.68.66,2.18,2.18,0,0,1,.72,1.68,2.59,2.59,0,0,1-1.56,2.22,18.74,18.74,0,0,1-10.5,2.64Q636.37,406.11,632.26,401.94Zm19.11-14.25a9.61,9.61,0,0,0-1.53-4.92,8.26,8.26,0,0,0-3.33-2.91,9.15,9.15,0,0,0-8,0,8.06,8.06,0,0,0-3.3,2.91,9.79,9.79,0,0,0-1.5,4.92Z"/><path d="M698.89,405a2.61,2.61,0,0,1-.78-1.92V395h-18.3a3.4,3.4,0,0,1-2.46-1,3.25,3.25,0,0,1-1-2.43V391a3.35,3.35,0,0,1,.72-2.16l18.84-24.06a3.36,3.36,0,0,1,1.29-1,3.89,3.89,0,0,1,1.71-.39h1.2a3.35,3.35,0,0,1,2.52,1,3.43,3.43,0,0,1,1,2.49v23.28h4.56a2.46,2.46,0,0,1,2.46,2.46,2.27,2.27,0,0,1-.72,1.71,2.42,2.42,0,0,1-1.74.69h-4.56v8.16a2.56,2.56,0,0,1-.81,1.92,2.71,2.71,0,0,1-2,.78A2.61,2.61,0,0,1,698.89,405Zm-16.74-14.94h16V369.51Z"/><path d="M717.31,404.64a3,3,0,0,1-.9-2.25,9.9,9.9,0,0,1,1.83-5.76,20.81,20.81,0,0,1,4.44-4.65q2.61-2,6.87-4.77,3.66-2.34,5.82-4a17.81,17.81,0,0,0,3.6-3.54,6.68,6.68,0,0,0,1.44-4.08,6.92,6.92,0,0,0-2.25-5.43q-2.25-2-7.23-2a25,25,0,0,0-10.26,2.16,2.55,2.55,0,0,1-1.14.3,2.2,2.2,0,0,1-1.62-.66,2.28,2.28,0,0,1-.66-1.68,2.37,2.37,0,0,1,1.32-2.22A29.36,29.36,0,0,1,731.89,363a15.79,15.79,0,0,1,7,1.53,12.27,12.27,0,0,1,5,4.29,11.24,11.24,0,0,1,1.83,6.36,11.42,11.42,0,0,1-2.07,6.57,24,24,0,0,1-5,5.31q-2.88,2.28-7.5,5.28-4.2,2.82-6.33,4.53a10.2,10.2,0,0,0-3,3.51h20.88a2.56,2.56,0,0,1,2.58,2.58,2.39,2.39,0,0,1-.75,1.8,2.54,2.54,0,0,1-1.83.72H719.59A3.15,3.15,0,0,1,717.31,404.64Z"/><path d="M772.33,398.19v-18.6h-4.26a1.13,1.13,0,0,1-1.14-1.14,1.25,1.25,0,0,1,.54-1l8.16-8a1.51,1.51,0,0,1,1-.54,1.06,1.06,0,0,1,.81.36,1.2,1.2,0,0,1,.33.84v4.8h6.78a2.26,2.26,0,0,1,2.34,2.34,2.3,2.3,0,0,1-.66,1.65,2.22,2.22,0,0,1-1.68.69h-6.78v18.12q0,2.34,1.11,3a5.59,5.59,0,0,0,2.79.63,8.32,8.32,0,0,0,2.4-.36l.51-.12a3.27,3.27,0,0,1,.69-.06,2.11,2.11,0,0,1,1.5.63,2,2,0,0,1,.66,1.53,2.27,2.27,0,0,1-1.38,2.1,11.74,11.74,0,0,1-5,1.08Q772.33,406.11,772.33,398.19Z"/><path d="M795.28,401.94q-4.11-4.17-4.11-11.73a19.56,19.56,0,0,1,1.56-7.86,13.36,13.36,0,0,1,4.8-5.82,13.79,13.79,0,0,1,8-2.22,14,14,0,0,1,7.68,2.07,13.39,13.39,0,0,1,4.92,5.52,17,17,0,0,1,1.68,7.53,2.62,2.62,0,0,1-2.76,2.7H796.69a9.87,9.87,0,0,0,3.12,6.54q2.64,2.34,7.38,2.34a18,18,0,0,0,4.41-.48,18.32,18.32,0,0,0,3.69-1.38,2.38,2.38,0,0,1,1.08-.24,2.41,2.41,0,0,1,1.68.66,2.18,2.18,0,0,1,.72,1.68,2.59,2.59,0,0,1-1.56,2.22,18.74,18.74,0,0,1-10.5,2.64Q799.39,406.11,795.28,401.94Zm19.11-14.25a9.61,9.61,0,0,0-1.53-4.92,8.26,8.26,0,0,0-3.33-2.91,9.15,9.15,0,0,0-8,0,8.06,8.06,0,0,0-3.3,2.91,9.79,9.79,0,0,0-1.5,4.92Z"/><path d="M829.24,401.94q-4.11-4.17-4.11-11.73a19.56,19.56,0,0,1,1.56-7.86,13.36,13.36,0,0,1,4.8-5.82,13.79,13.79,0,0,1,8-2.22,14,14,0,0,1,7.68,2.07,13.39,13.39,0,0,1,4.92,5.52,17,17,0,0,1,1.68,7.53,2.62,2.62,0,0,1-2.76,2.7H830.65a9.87,9.87,0,0,0,3.12,6.54q2.64,2.34,7.38,2.34a18,18,0,0,0,4.41-.48,18.32,18.32,0,0,0,3.69-1.38,2.38,2.38,0,0,1,1.08-.24,2.41,2.41,0,0,1,1.68.66,2.18,2.18,0,0,1,.72,1.68,2.59,2.59,0,0,1-1.56,2.22,18.74,18.74,0,0,1-10.5,2.64Q833.35,406.11,829.24,401.94Zm19.11-14.25a9.61,9.61,0,0,0-1.53-4.92,8.26,8.26,0,0,0-3.33-2.91,9.15,9.15,0,0,0-8,0,8.06,8.06,0,0,0-3.3,2.91,9.79,9.79,0,0,0-1.5,4.92Z"/><path d="M862.75,398.19v-18.6h-4.26a1.13,1.13,0,0,1-1.14-1.14,1.25,1.25,0,0,1,.54-1l8.16-8a1.51,1.51,0,0,1,1-.54,1.06,1.06,0,0,1,.81.36,1.2,1.2,0,0,1,.33.84v4.8H875a2.26,2.26,0,0,1,2.34,2.34,2.3,2.3,0,0,1-.66,1.65,2.22,2.22,0,0,1-1.68.69h-6.78v18.12q0,2.34,1.11,3a5.59,5.59,0,0,0,2.79.63,8.32,8.32,0,0,0,2.4-.36l.51-.12a3.27,3.27,0,0,1,.69-.06,2.11,2.11,0,0,1,1.5.63,2,2,0,0,1,.66,1.53,2.27,2.27,0,0,1-1.38,2.1,11.74,11.74,0,0,1-5,1.08Q862.75,406.11,862.75,398.19Z"/><path d="M884.65,405a2.61,2.61,0,0,1-.78-1.92V364.17a2.71,2.71,0,0,1,.78-1.95,2.56,2.56,0,0,1,1.92-.81,2.77,2.77,0,0,1,2.76,2.76v15.66a19.94,19.94,0,0,1,4.92-4,12.42,12.42,0,0,1,6.24-1.5,10.37,10.37,0,0,1,5.73,1.56,10.14,10.14,0,0,1,3.72,4.26,13.6,13.6,0,0,1,1.29,5.94v17a2.56,2.56,0,0,1-.81,1.92,2.71,2.71,0,0,1-1.95.78,2.66,2.66,0,0,1-2.7-2.7V386.67q0-7.32-6.6-7.32a9.55,9.55,0,0,0-5.37,1.56,19.44,19.44,0,0,0-4.47,4.2v18a2.56,2.56,0,0,1-.81,1.92,2.71,2.71,0,0,1-1.95.78A2.61,2.61,0,0,1,884.65,405Z"/><path d="M920,414a1.78,1.78,0,0,1-.51-1.26,1.67,1.67,0,0,1,.9-1.5,6.85,6.85,0,0,0,2.28-2.1,6.41,6.41,0,0,0,.78-3.48h-.24a3.38,3.38,0,0,1-3.36-3.36V402a3.38,3.38,0,0,1,3.36-3.36h.6a3.38,3.38,0,0,1,3.36,3.36v3.54a9.65,9.65,0,0,1-4.92,8.76,1.89,1.89,0,0,1-1,.3A1.63,1.63,0,0,1,920,414Z"/><path d="M196.46,439.77a3,3,0,0,1-.9-2.16v-.24a3.07,3.07,0,0,1,3.06-3.06H199a3.07,3.07,0,0,1,3.06,3.06v.24a3.07,3.07,0,0,1-3.06,3.06h-.36A3,3,0,0,1,196.46,439.77Zm.36,37.26a2.61,2.61,0,0,1-.78-1.92V449.37a2.71,2.71,0,0,1,.78-1.95,2.56,2.56,0,0,1,1.92-.81,2.67,2.67,0,0,1,2.76,2.76v25.74a2.56,2.56,0,0,1-.81,1.92,2.71,2.71,0,0,1-1.95.78A2.61,2.61,0,0,1,196.82,477Z"/><path d="M210,475.41a2.29,2.29,0,0,1-1-2,2.41,2.41,0,0,1,.66-1.68,2.18,2.18,0,0,1,1.68-.72,2.64,2.64,0,0,1,1.08.24,24.25,24.25,0,0,0,3.84,1.32,17.85,17.85,0,0,0,4.32.48q6.66,0,6.66-4.26a2.27,2.27,0,0,0-1.53-2.1,31.33,31.33,0,0,0-5-1.62,45.27,45.27,0,0,1-5.85-1.74,10.29,10.29,0,0,1-4-2.73,6.94,6.94,0,0,1-1.65-4.83,8.65,8.65,0,0,1,3-6.84q3-2.64,8.67-2.64a25,25,0,0,1,8.7,1.5,2.25,2.25,0,0,1,1.29.9,2.41,2.41,0,0,1,.45,1.38,2.35,2.35,0,0,1-.69,1.68,2.27,2.27,0,0,1-1.71.72,3.37,3.37,0,0,1-.78-.12,23,23,0,0,0-6.84-1.08,9.37,9.37,0,0,0-5.07,1.17,3.49,3.49,0,0,0-1.83,3,2.77,2.77,0,0,0,1.68,2.64,24,24,0,0,0,5.22,1.62,50,50,0,0,1,5.76,1.77,9.52,9.52,0,0,1,3.81,2.73,7.41,7.41,0,0,1,1.59,5,7.93,7.93,0,0,1-3,6.36q-3,2.52-8.55,2.52A22.32,22.32,0,0,1,210,475.41Z"/><path d="M257.18,470.19v-18.6h-4.26a1.13,1.13,0,0,1-1.14-1.14,1.25,1.25,0,0,1,.54-1l8.16-8a1.51,1.51,0,0,1,1-.54,1.06,1.06,0,0,1,.81.36,1.25,1.25,0,0,1,.33.84v4.8h6.78a2.26,2.26,0,0,1,2.34,2.34,2.3,2.3,0,0,1-.66,1.65,2.22,2.22,0,0,1-1.68.69h-6.78v18.12c0,1.56.36,2.55,1.11,3a5.59,5.59,0,0,0,2.79.63,8.32,8.32,0,0,0,2.4-.36l.51-.12a3.27,3.27,0,0,1,.69-.06,2.11,2.11,0,0,1,1.5.63,2,2,0,0,1,.66,1.53,2.27,2.27,0,0,1-1.38,2.1,11.74,11.74,0,0,1-5,1.08Q257.18,478.11,257.18,470.19Z"/><path d="M279.08,477a2.57,2.57,0,0,1-.78-1.92V436.17a2.67,2.67,0,0,1,.78-1.95,2.53,2.53,0,0,1,1.92-.81,2.77,2.77,0,0,1,2.76,2.76v15.66a19.59,19.59,0,0,1,4.92-4,12.42,12.42,0,0,1,6.24-1.5,10.4,10.4,0,0,1,5.73,1.56,10.21,10.21,0,0,1,3.72,4.26,13.6,13.6,0,0,1,1.29,5.94v17a2.56,2.56,0,0,1-.81,1.92,2.73,2.73,0,0,1-2,.78A2.58,2.58,0,0,1,301,477a2.61,2.61,0,0,1-.78-1.92V458.67c0-4.88-2.21-7.32-6.6-7.32a9.5,9.5,0,0,0-5.37,1.56,19,19,0,0,0-4.47,4.2v18A2.56,2.56,0,0,1,283,477a2.73,2.73,0,0,1-1.95.78A2.58,2.58,0,0,1,279.08,477Z"/><path d="M315.25,439.77a3,3,0,0,1-.9-2.16v-.24a3.07,3.07,0,0,1,3.06-3.06h.36a3.07,3.07,0,0,1,3.06,3.06v.24a3.07,3.07,0,0,1-3.06,3.06h-.36A3,3,0,0,1,315.25,439.77Zm.36,37.26a2.61,2.61,0,0,1-.78-1.92V449.37a2.71,2.71,0,0,1,.78-1.95,2.56,2.56,0,0,1,1.92-.81,2.67,2.67,0,0,1,2.76,2.76v25.74a2.56,2.56,0,0,1-.81,1.92,2.71,2.71,0,0,1-2,.78A2.61,2.61,0,0,1,315.61,477Z"/><path d="M328.75,475.41a2.29,2.29,0,0,1-1-2,2.41,2.41,0,0,1,.66-1.68,2.18,2.18,0,0,1,1.68-.72,2.64,2.64,0,0,1,1.08.24,24.25,24.25,0,0,0,3.84,1.32,17.85,17.85,0,0,0,4.32.48q6.66,0,6.66-4.26a2.27,2.27,0,0,0-1.53-2.1,31.33,31.33,0,0,0-5-1.62,45.27,45.27,0,0,1-5.85-1.74,10.29,10.29,0,0,1-4-2.73,6.94,6.94,0,0,1-1.65-4.83,8.65,8.65,0,0,1,3-6.84q3-2.64,8.67-2.64a25,25,0,0,1,8.7,1.5,2.25,2.25,0,0,1,1.29.9,2.41,2.41,0,0,1,.45,1.38,2.35,2.35,0,0,1-.69,1.68,2.27,2.27,0,0,1-1.71.72,3.37,3.37,0,0,1-.78-.12,23,23,0,0,0-6.84-1.08,9.37,9.37,0,0,0-5.07,1.17,3.49,3.49,0,0,0-1.83,3,2.77,2.77,0,0,0,1.68,2.64,24,24,0,0,0,5.22,1.62,50,50,0,0,1,5.76,1.77,9.52,9.52,0,0,1,3.81,2.73,7.41,7.41,0,0,1,1.59,5,7.93,7.93,0,0,1-3,6.36q-3,2.52-8.55,2.52A22.32,22.32,0,0,1,328.75,475.41Z"/><path d="M376,470.19v-18.6h-4.26a1.13,1.13,0,0,1-1.14-1.14,1.25,1.25,0,0,1,.54-1l8.16-8a1.51,1.51,0,0,1,1-.54,1.06,1.06,0,0,1,.81.36,1.2,1.2,0,0,1,.33.84v4.8h6.78a2.26,2.26,0,0,1,2.34,2.34,2.3,2.3,0,0,1-.66,1.65,2.22,2.22,0,0,1-1.68.69h-6.78v18.12q0,2.34,1.11,3a5.59,5.59,0,0,0,2.79.63,8.32,8.32,0,0,0,2.4-.36l.51-.12a3.27,3.27,0,0,1,.69-.06,2.11,2.11,0,0,1,1.5.63,2,2,0,0,1,.66,1.53,2.27,2.27,0,0,1-1.38,2.1,11.74,11.74,0,0,1-5,1.08Q376,478.11,376,470.19Z"/><path d="M397.87,477a2.61,2.61,0,0,1-.78-1.92V449.37a2.71,2.71,0,0,1,.78-1.95,2.56,2.56,0,0,1,1.92-.81,2.77,2.77,0,0,1,2.76,2.76V452q4.2-5.64,9.42-5.64h.3a2.51,2.51,0,0,1,1.89.78,2.66,2.66,0,0,1,.75,1.92,2.42,2.42,0,0,1-.78,1.86,2.81,2.81,0,0,1-2,.72h-.3a10.23,10.23,0,0,0-5.28,1.41,12.16,12.16,0,0,0-4,3.87v18.24a2.56,2.56,0,0,1-.81,1.92,2.71,2.71,0,0,1-1.95.78A2.61,2.61,0,0,1,397.87,477Z"/><path d="M424.78,476.55a10.14,10.14,0,0,1-3.72-4.26,13.6,13.6,0,0,1-1.29-5.94v-17a2.56,2.56,0,0,1,.81-1.92,2.71,2.71,0,0,1,1.95-.78,2.66,2.66,0,0,1,2.7,2.7v16.44q0,7.32,6.6,7.32a9.55,9.55,0,0,0,5.37-1.56,19.44,19.44,0,0,0,4.47-4.2v-18a2.56,2.56,0,0,1,.81-1.92,2.71,2.71,0,0,1,1.95-.78,2.66,2.66,0,0,1,2.7,2.7v25.74a2.71,2.71,0,0,1-.78,1.95,2.56,2.56,0,0,1-1.92.81,2.77,2.77,0,0,1-2.76-2.76v-2.46a19.94,19.94,0,0,1-4.92,4,12.42,12.42,0,0,1-6.24,1.5A10.37,10.37,0,0,1,424.78,476.55Z"/><path d="M458.86,473.94q-4.11-4.17-4.11-11.73a19.56,19.56,0,0,1,1.56-7.86,13.36,13.36,0,0,1,4.8-5.82,13.79,13.79,0,0,1,8-2.22,14,14,0,0,1,7.68,2.07,13.39,13.39,0,0,1,4.92,5.52,17,17,0,0,1,1.68,7.53,2.62,2.62,0,0,1-2.76,2.7H460.27a9.87,9.87,0,0,0,3.12,6.54Q466,473,470.77,473a18,18,0,0,0,4.41-.48,18.32,18.32,0,0,0,3.69-1.38,2.38,2.38,0,0,1,1.08-.24,2.41,2.41,0,0,1,1.68.66,2.18,2.18,0,0,1,.72,1.68,2.59,2.59,0,0,1-1.56,2.22,18.74,18.74,0,0,1-10.5,2.64Q463,478.11,458.86,473.94ZM478,459.69a9.61,9.61,0,0,0-1.53-4.92,8.26,8.26,0,0,0-3.33-2.91,9.15,9.15,0,0,0-8,0,8.06,8.06,0,0,0-3.3,2.91,9.79,9.79,0,0,0-1.5,4.92Z"/><path d="M496.18,465.66a2.17,2.17,0,0,1-.75-1.65,11,11,0,0,1,1-4.74,12.66,12.66,0,0,1,2.25-3.39,36.67,36.67,0,0,1,3.45-3.09,22.29,22.29,0,0,0,3.36-3.12,4.61,4.61,0,0,0,1.08-3q0-6.54-8.58-6.54a16.65,16.65,0,0,0-4.11.51,12.75,12.75,0,0,0-3.57,1.47,2.67,2.67,0,0,1-1.5.48,2.46,2.46,0,0,1-2.4-2.4,2.63,2.63,0,0,1,1.5-2.28,17.65,17.65,0,0,1,5-2.22,22,22,0,0,1,5.58-.66q6.12,0,9.81,3.06a10.19,10.19,0,0,1,3.69,8.28,9.49,9.49,0,0,1-.84,4.11,11,11,0,0,1-2,3,33.33,33.33,0,0,1-3.18,2.79A23.3,23.3,0,0,0,502,460a6.37,6.37,0,0,0-1.29,4.05,2.13,2.13,0,0,1-.78,1.65,2.71,2.71,0,0,1-1.86.69A2.68,2.68,0,0,1,496.18,465.66Zm-.72,11a3.47,3.47,0,0,1-1-2.55,3.59,3.59,0,0,1,3.54-3.54,3.47,3.47,0,0,1,2.55,1.05,3.4,3.4,0,0,1,1.05,2.49,3.59,3.59,0,0,1-3.6,3.6A3.4,3.4,0,0,1,495.46,476.7Z"/><path d="M1268.5,331.43l105.15,5.11,105.14,5.12,59.24,2.88a1.51,1.51,0,0,0,1.5-1.5c-1-12.38-2.32-26.79,4.83-37.73,5.43-8.28,17-14.54,26.55-9.4l-.74-1.29-4.72,110.21L1560.73,515c-1.56,36.48-2.83,73-4.69,109.47-.33,6.49-.92,13.32-3.64,19.31a20.64,20.64,0,0,1-5.71,7.62c-3,2.43-6.78,3.62-10.51,4.46-8.42,1.91-17,3.19-25.54,4.52q-13.07,2.05-26.21,3.61a729.88,729.88,0,0,1-105.13,4.82,725.32,725.32,0,0,1-105-10.43c-17-3-34.19-6.22-50.86-10.78-7.51-2-14.12-5.42-17.67-12.69-3.35-6.87-3.82-15-4.19-22.48-.89-18.14.84-36.33,2.06-54.42l3.71-55L1214.74,393c1.19-17.67,2-35.39,3.6-53,1-11.36,3.22-24.45,10.76-33.48a21.83,21.83,0,0,1,13.09-7.74l-1.9-1.44a46.93,46.93,0,0,0,10.59,32.27c1.22,1.5,3.33-.64,2.12-2.12a43.82,43.82,0,0,1-9.71-30.15,1.52,1.52,0,0,0-1.9-1.45c-11.75,2.11-18.53,12.37-22,23-4.51,13.7-4.54,28.5-5.5,42.74l-7.6,112.65-3.79,56.14c-1.25,18.63-2.72,37.26-3.68,55.91a252.87,252.87,0,0,0-.16,27.67c.43,7.45,1.11,15.17,4.28,22s8.93,11,15.93,13.43c8,2.75,16.54,4.29,24.8,6.09a727.58,727.58,0,0,0,106.35,15,730.66,730.66,0,0,0,107.71-.77q26.63-2.18,53-6.28c8.65-1.35,17.38-2.67,25.93-4.57,7-1.54,13.11-4.62,16.91-10.86,3.41-5.6,4.55-12.3,5.13-18.72.77-8.48.86-17,1.23-25.55l2.42-56.54,4.83-112.77L1572,322l1.17-27.36a1.5,1.5,0,0,0-.74-1.3c-8-4.31-17.37-1.91-24.21,3.47-8.21,6.46-11.48,16.47-12.23,26.58a126.74,126.74,0,0,0,.54,19.67l1.5-1.5-105.15-5.12-105.14-5.11-59.24-2.88c-1.93-.1-1.92,2.9,0,3Z"/><path d="M1308.55,431.65c-.3.06-.08,0,0,0l-.27,0h-.48c-.1,0-.49-.05-.21,0l-.59-.12-.44-.14c-.27-.08-.08,0,0,0l-.24-.12a8.87,8.87,0,0,1-.94-.55s-.22-.18,0,0l-.16-.13-.36-.33a4.83,4.83,0,0,1-.38-.4l-.18-.21c-.18-.2,0,0-.07-.08a8.76,8.76,0,0,1-.56-.88c-.08-.14-.15-.29-.22-.43s-.06-.13-.09-.19c.12.27,0-.14-.06-.16-.1-.3-.19-.61-.26-.92,0-.07-.09-.6-.06-.28a4.71,4.71,0,0,1,0-.53,4.86,4.86,0,0,1,0-.54,1.5,1.5,0,0,0,0-.2c0-.24,0,.23,0,0a6.16,6.16,0,0,1,.29-1c.08-.21-.1.19,0,0l.09-.19c.09-.16.2-.31.3-.48s-.12.11.1-.14l.38-.4.22-.19c-.14.11.18-.13.24-.16a3.38,3.38,0,0,1,.41-.24l.22-.11c.25-.13-.15.05,0,0a6.73,6.73,0,0,1,.87-.27l.42-.08c.17,0-.09,0-.1,0l.37,0a8.19,8.19,0,0,1,.86,0l.5,0s.23,0,0,0l.17,0a9.28,9.28,0,0,1,.91.22l.41.14.23.09c-.19-.08-.09,0,0,0a7.89,7.89,0,0,1,.81.44l.35.25c.18.12-.18-.16,0,0l.23.2c.21.19.39.4.58.6s0,0,0,0l.13.2a4.34,4.34,0,0,1,.28.46c0,.1.19.41.08.14.06.15.11.3.16.46s.07.28.1.42l0,.19c-.05-.33,0,.1,0,.14s0,.31,0,.46-.05.5,0,.19a6.78,6.78,0,0,1-.25,1c-.08.27,0,.07,0,0a1.63,1.63,0,0,1-.11.23c-.06.14-.14.28-.21.41s-.16.26-.25.39l-.16.21c.13-.17,0,0-.05.06a8.85,8.85,0,0,1-.81.81l-.21.17-.07.05c-.17.11-.34.23-.52.33l-.47.26-.25.12c-.24.13.09,0-.07,0a10.56,10.56,0,0,1-1.09.34l-.26.05-.2,0c.18,0,0,0-.06,0l-.33,0h-.58l-.26,0c.14,0,.16,0,0,0s-.38-.08-.57-.14-.59-.22-.32-.09a5.17,5.17,0,0,1-1-.63,1.51,1.51,0,0,0-2,.54A1.53,1.53,0,0,0,1303,433c3,2.31,7.35,1.27,10-1.09a7.73,7.73,0,0,0,2.56-4.69,6.67,6.67,0,0,0-1.49-5.09,9,9,0,0,0-9-2.78,7,7,0,0,0-4.15,3,7.22,7.22,0,0,0-.84,5.45c.9,4.18,4.92,7.52,9.26,6.76a1.52,1.52,0,0,0,1.05-1.85,1.54,1.54,0,0,0-1.85-1.05Z"/><path d="M1445.86,429.86c-1.44.92-3.09-.3-3.76-1.64-.88-1.76.08-3.68,1.34-5,3-3.12,8.06-4.38,12.29-4a10.86,10.86,0,0,1,9.43,6.74c1.23,3.24.82,7.43-2.42,9.33-2.9,1.71-7.32,1.4-9-1.8-.91-1.7-3.5-.18-2.59,1.52,2.28,4.22,7.78,5.22,12,3.46,4.91-2.07,6.7-7.61,5.26-12.52-1.64-5.59-6.53-9.07-12.2-9.69s-12.49,1.38-15.86,6.1a6.81,6.81,0,0,0-.1,8.31c1.7,2.18,4.72,3.34,7.21,1.75,1.63-1,.12-3.63-1.51-2.59Z"/><path d="M1256.5,461.8q42.49,4.9,85.23,7.26t85.51,2.11q21.16-.1,42.34-.86,10.73-.37,21.44-.92,5.36-.27,10.71-.58a59.78,59.78,0,0,1,9.17-.22c2.75.27,5.44,1.28,7,3.71,1.43,2.25,1.77,5.05,1.93,7.66.41,6.77.42,13.59.42,20.37q0,21.07-1.61,42.09-1.65,21.21-5,42.25-1.63,10.33-3.68,20.6c-1.15,5.78-2.12,12.23-6.09,16.86-6.78,7.88-18.61,8.23-28.19,8-14.07-.27-28.14-.86-42.21-1.3l-86.38-2.67-42.77-1.33-21.66-.67c-6.17-.19-12.42-.18-18.52-1.13-5.5-.86-11.1-2.54-15.43-6.18s-6.85-8.45-8.5-13.63a87.08,87.08,0,0,1-3.14-16.64q-1.18-10.18-1.67-20.42a307.14,307.14,0,0,1,6.86-81q2.16-9.74,4.94-19.32a1.5,1.5,0,0,0-2.89-.79,310.79,310.79,0,0,0-12.24,82.26,306.32,306.32,0,0,0,2.32,41.95c1.33,10.66,3.63,22.64,12.37,29.86,9.38,7.75,22.39,7.63,33.9,8l44.19,1.37,88.38,2.74,43.9,1.36c6.86.21,13.73.56,20.59.59a60.23,60.23,0,0,0,15.83-1.65,24.49,24.49,0,0,0,12.56-7.45c4-4.72,5.28-10.77,6.47-16.67q4.29-21.25,6.86-42.8,2.55-21.33,3.39-42.82.42-10.87.41-21.76c0-6.89,0-13.85-.46-20.73-.41-5.41-2.15-10.78-7.66-12.85a21.89,21.89,0,0,0-8.67-.93c-3.44.16-6.89.4-10.34.59q-21.85,1.17-43.73,1.68-43.74,1-87.51-.67-43.57-1.68-87-6-10.66-1.07-21.33-2.3c-1.91-.22-1.9,2.78,0,3Z"/><path d="M1333,478.8l43.14,3.82,21.57,1.91,10.66.94,5.46.49a23.36,23.36,0,0,1,4.88.5c1.14.36.51,1.93.36,2.86-.21,1.33-.46,2.65-.78,4a17.77,17.77,0,0,1-2.86,6.58,9.22,9.22,0,0,1-6.84,3.5,84.36,84.36,0,0,1-10.3-.27l-42.63-1.88c-4.07-.18-8.14-.34-12.2-.54a28.39,28.39,0,0,1-9.46-1.59,8.84,8.84,0,0,1-5.43-5.51c-.67-2.16-.56-4.9,1.44-6.34,1.56-1.12.06-3.72-1.51-2.59-4.44,3.18-4,9.48-.88,13.46,4,5,11.26,5.37,17.13,5.63l47.09,2.07,11.9.53c3.42.15,6.93.27,10.08-1.29,4.92-2.45,6.89-8.16,7.85-13.2.48-2.56,1.67-6.36-1.19-7.9-1.38-.74-3.16-.67-4.67-.81l-5.95-.52-23.8-2.11L1333,475.8c-1.92-.17-1.91,2.83,0,3Z"/><path d="M1189.75,117.2q83.2-.17,166.42-.3t166.42-.23q83.21-.09,166.42-.16c12.44,0,24.94-.36,37.36.44,11.19.71,22.65,2.56,32.68,7.8,19.76,10.33,27.61,31.91,30.86,52.72,4,25.85,3.76,52.56,3.56,78.65-.1,13.63-.45,27.27-.36,40.91.16,23.35.8,46.7,1.46,70q1.32,46.94,3,93.87,1.7,50.61,3.43,101.24,1.53,46.07,2.86,92.16c.6,22.2,1.2,44.41,1.24,66.63q0,5.26-.06,10.53c0,1.93,3,1.93,3,0,.3-19.57-.24-39.16-.71-58.73-.71-29.47-1.64-58.93-2.6-88.39q-1.65-50.88-3.43-101.76-1.65-48.74-3.17-97.5c-.76-25.59-1.5-51.18-1.86-76.78-.48-34.36,1.22-68.74-.72-103.07-1.19-21.18-2.8-44.13-13.88-62.81a53.33,53.33,0,0,0-21.49-20.52c-9.54-4.87-20.19-6.89-30.78-7.78-12.38-1-24.87-.66-37.27-.65l-41.91,0-83.83.08q-83.82.09-167.65.22-84.14.12-168.27.28l-40.68.08a1.5,1.5,0,0,0,0,3Z"/><path d="M1157.91,119.71c-10.81-2.9-21.87.45-30.54,7.21-9.63,7.5-15.21,18.64-18.34,30.23-3.63,13.46-4.65,27.69-5.57,41.54-1,15.89-1.3,31.82-1.22,47.73.16,31.42,1.57,62.82.86,94.23-.68,29.9-2.94,59.75-6.08,89.48-6.34,60-16.27,119.44-24.48,179.15-8,58.44-14.54,117.31-14,176.39a623.52,623.52,0,0,0,6.63,86.86c2.09,13.89,4.17,28.21,8.21,41.69,3.42,11.42,10.07,19.93,21.15,24.68,12.41,5.33,26.52,7.36,39.66,10.14q22.26,4.71,44.68,8.59c29.72,5.17,59.61,9.29,89.59,12.54,60.92,6.59,122.19,9.52,183.44,10.18,61.54.66,123.09-1,184.57-3.54,30.47-1.27,60.92-2.77,91.38-4.34,14.59-.75,29.55-.65,44-2.59,11-1.48,20.17-6.64,25.3-16.78s6-21.91,7-33.09q2.05-23.46,3.29-47,2.52-47.47,1.77-95-.37-23.15-1.51-46.25c-.09-1.92-3.09-1.93-3,0A1388.61,1388.61,0,0,1,1801.63,915c-1,12.18-1.37,25.47-7,36.6-6.57,13-19.16,15.38-32.56,16.1q-44.4,2.4-88.83,4.5c-59.32,2.78-118.68,4.94-178.06,5.27-59.17.33-118.38-1.16-177.38-5.72-59.22-4.58-118.23-12.27-176.41-24.25-13.57-2.8-27.62-5.15-40.79-9.5-6-2-11.95-4.83-16.37-9.52-4.58-4.87-7-11.27-8.66-17.63-7.32-27.65-10.53-56.89-12.48-85.36-3.91-57,0-114.21,6.63-170.86,6.74-57.57,16.31-114.77,24-172.22,7.7-57.68,13.17-115.59,12.54-173.85-.33-30.76-1.65-61.52-.63-92.28a387.92,387.92,0,0,1,3.59-44.92c2-13.18,5.59-27.17,14.81-37.26,8.31-9.08,20.81-14.78,33.1-11.47a1.51,1.51,0,0,0,.8-2.9Z"/><path d="M1586.61,963.73a93.17,93.17,0,0,1-4.15,32.08c-.58,1.85,2.31,2.64,2.89.8a95.59,95.59,0,0,0,4.26-32.88c-.09-1.92-3.09-1.93-3,0Z"/><path d="M1563.68,971.77l-2.48,24.16c-.2,1.92,2.8,1.9,3,0l2.48-24.16c.2-1.91-2.8-1.9-3,0Z"/><path d="M1546.66,969.15l-9.45,34.45a1.5,1.5,0,0,0,2.89.8l9.46-34.46a1.5,1.5,0,0,0-2.9-.79Z"/><path d="M1305.08,959.14a74.58,74.58,0,0,0-5.8,30.76c0,1.92,3,1.93,3,0a72.54,72.54,0,0,1,5.69-30,1.5,1.5,0,0,0-1-1.84,1.53,1.53,0,0,0-1.85,1Z"/><path d="M1272.56,957.15l-4.8,30.45c-.3,1.89,2.59,2.7,2.89.8l4.8-30.45c.3-1.89-2.59-2.7-2.89-.8Z"/><path d="M1288.79,959.12l-8.38,26.11c-.59,1.84,2.3,2.63,2.89.8l8.39-26.12c.59-1.84-2.31-2.63-2.9-.79Z"/><path class="cls-3" d="M738.19,746.41c-3.86,15.59-16.55,27-21.09,42.37-.55,1.85,2.34,2.64,2.89.79,4.54-15.32,17.23-26.72,21.09-42.36.46-1.88-2.43-2.68-2.89-.8Z"/><path class="cls-3" d="M736.86,744.52c-16.24,9.58-32.58,19-49.36,27.63l2.06.54a32.72,32.72,0,0,0-19.35-13.22,1.51,1.51,0,0,0-1.84,1.85,5.61,5.61,0,0,0,2.09,3.42,2.18,2.18,0,0,0,2.75-.29c2-2.2-1.12-4.46-3-5a1.52,1.52,0,0,0-1.84,1.85L672,774.64c.93,3.46,2.49,7.13,2.6,10.74.09,2.79-1.51,5.45-4.45,5.82-2.6.33-5.3-.72-7.76-1.39-2.85-.78-6-1.56-8.91-.42-.8.32-1.52,1.34-.89,2.2a183.85,183.85,0,0,1,15.21,24.93c.88,1.72,3.47.2,2.59-1.52a184.36,184.36,0,0,0-15.21-24.92l-.9,2.2c2.61-1,5.47-.1,8,.62,2.82.79,5.79,1.7,8.75,1.18a8.12,8.12,0,0,0,6.31-6.15c.81-3.76-.68-7.5-1.67-11.07-1.51-5.44-3-10.89-4.43-16.34l-1.84,1.85a8.07,8.07,0,0,1,1.33.61c.27.13,0,.1.06,0s0-.35.1-.47c.16-.3.47-.36.75-.46.45-.15.22.28.26,0a11.59,11.59,0,0,0-.66-1.55l-1.84,1.85A29.57,29.57,0,0,1,687,774.21a1.53,1.53,0,0,0,2,.53c16.77-8.63,33.11-18,49.35-27.63a1.5,1.5,0,0,0-1.51-2.59Z"/><path class="cls-3" d="M715.94,815.07,706.83,871c-1.47,9-3,18-3.3,27.19a102,102,0,0,0,2.79,26.56,124.43,124.43,0,0,0,4.3,14.26c.69,1.88,1.31,3.85,2.81,5.25s3.22,1.64,4.61.21-.77-3.5-2.12-2.12c-.2.21.14.15-.06,0a3.56,3.56,0,0,1-.75-.7,7.57,7.57,0,0,1-1.11-2.15q-1.11-2.94-2.08-5.91a120.17,120.17,0,0,1-3.22-11.94,97.59,97.59,0,0,1-2.12-24.7c.38-8.63,1.84-17.15,3.22-25.66l4.26-26.1,4.77-29.3c.31-1.89-2.58-2.7-2.89-.8Z"/><path class="cls-3" d="M736.08,750.71a3.85,3.85,0,0,0-1.08-2.65,3.25,3.25,0,0,0-2.51-1,1.58,1.58,0,0,0-1.18.59,1.45,1.45,0,0,0-.27,1.31,6.89,6.89,0,0,0,2.44,3.87,2.78,2.78,0,0,0,2.44.33,3.49,3.49,0,0,0,1.88-1.54,2.75,2.75,0,0,0,0-2.85,1.67,1.67,0,0,0-.9-.69,1.56,1.56,0,0,0-1.16.15,1.5,1.5,0,0,0-.68.9,1.47,1.47,0,0,0,.15,1.16,1.36,1.36,0,0,1,.13.24l-.15-.36a1.82,1.82,0,0,1,.07.25l-.06-.4a1.5,1.5,0,0,1,0,.3l.06-.4a1.64,1.64,0,0,1-.1.38l.15-.36a1.9,1.9,0,0,1-.23.39l.23-.3a2,2,0,0,1-.36.36l.31-.24a2.36,2.36,0,0,1-.4.24l.36-.15a2.38,2.38,0,0,1-.38.11l.4-.06a1,1,0,0,1-.35,0l.4.06a1.58,1.58,0,0,1-.31-.09l.36.15a2.51,2.51,0,0,1-.45-.26l.3.23a3,3,0,0,1-.53-.53l.24.3a5.21,5.21,0,0,1-.68-1.22l.15.36a10.85,10.85,0,0,1-.41-1.13l-1.45,1.9a1.45,1.45,0,0,1,.36,0l-.4,0a2.08,2.08,0,0,1,.41.11l-.36-.15a2.4,2.4,0,0,1,.46.27l-.31-.23a2.06,2.06,0,0,1,.39.39l-.23-.3a2.64,2.64,0,0,1,.29.49l-.15-.36a2.58,2.58,0,0,1,.17.62l-.06-.4a1.42,1.42,0,0,1,0,.29,1.5,1.5,0,0,0,3,0Z"/><path class="cls-3" d="M694.58,786.32a3.66,3.66,0,0,0,.94-3.74,4,4,0,0,0-2.86-3,6,6,0,0,0-4.65,1c-.61.4-1.18.86-1.76,1.3-.29.22-.59.44-.89.63l-.5.29s-.55.27-.28.16a1.54,1.54,0,0,0-1.05,1.84,1.52,1.52,0,0,0,1.85,1.05,14.78,14.78,0,0,0,3.26-2.05,11.69,11.69,0,0,1,1.56-1l.38-.19c-.27.12.15,0,.16,0a3.45,3.45,0,0,1,.4-.11l.27,0h.26a1.22,1.22,0,0,1,.26.06c.08,0,.39.19.15,0l.23.15s-.25-.23,0,0,.05,0,0,0,.14.21.16.25a1.62,1.62,0,0,1,.1.18c0,.12,0,.12,0,0s0,.09,0,.16a3.21,3.21,0,0,1,.08.34s0-.39,0,0c0,0,0,.29,0,.3s.08-.35,0,0,0,0,0,0l-.14.24c.15-.18.16-.21.06-.09l-.14.12a1.5,1.5,0,0,0,0,2.12,1.53,1.53,0,0,0,2.12,0Z"/><path class="cls-3" d="M704.56,774.07a4.51,4.51,0,0,0-1-3.81,4.85,4.85,0,0,0-3-1.67c-2.73-.37-4.94,1.69-6.71,3.49a1.5,1.5,0,1,0,2.12,2.12c.36-.36.72-.72,1.09-1.07.19-.17.37-.34.57-.5l.26-.22c-.24.19.11-.07.13-.08a6.65,6.65,0,0,1,.56-.36l.35-.18c.25-.13-.11,0,0,0s.45-.14.68-.2-.09,0,0,0,.21,0,.31,0,.23,0,.26,0c-.21,0-.26,0-.14,0l.15,0,.26.08c.24.07.1,0,0,0,.15,0,.4.24.52.3s-.2-.19,0,0l.23.22c.07.07.12.14.19.2s-.15-.23,0,0,.11.19.16.28c.18.29-.08-.29,0,0,0,.09.05.18.08.26.07.26.08.06,0,0a1.2,1.2,0,0,1,0,.33c0,.09-.06.43,0,0a1.5,1.5,0,0,0,2.9.8Z"/><path class="cls-3" d="M697.19,822c-7.16,2.56-14.56,5.37-20,10.88-5.89,6-8.18,14.26-9.55,22.3a157.36,157.36,0,0,0,.79,56.59c2.06,10.55,4.81,21.14,3.86,32-.17,1.92,2.83,1.91,3,0,.8-9.23-1-18.37-2.87-27.37a180.41,180.41,0,0,1-3.8-27.37,154.08,154.08,0,0,1,1.09-27.58c1-8.08,2.4-17,7.29-23.72s13.27-10.06,21-12.82c1.81-.64,1-3.54-.79-2.89Z"/><path class="cls-3" d="M648.82,937.71c9.48,6.93,19.09,14.25,24.42,25A35.29,35.29,0,0,1,677,979.65c-.09,2.75.3,5.21,2.84,6.71a18.57,18.57,0,0,1,5.68,4.79,18.9,18.9,0,0,1,3.3,7.06c.28,1.17.54,2.68-.4,3.63a4.36,4.36,0,0,1-2.76,1,75.49,75.49,0,0,1-9.14-.34l-10.12-.51q-10.11-.54-20.23-1.14a13.82,13.82,0,0,1-4-.39c-1.34-.51-1.62-2.16-2-3.4-.88-3.11-1.66-6.26-2.37-9.42a176.29,176.29,0,0,1-4-43.94c.07-1.93-2.93-1.93-3,0a179.37,179.37,0,0,0,3.58,42.18q1.05,5.11,2.41,10.16c.73,2.69,1.3,6.07,4.23,7.19a13.13,13.13,0,0,0,3.85.55l5.92.35,10.85.61q10.86.59,21.72,1.08c2.36.11,5,0,6.89-1.63,2.29-2,1.88-5.24,1.09-7.88a22,22,0,0,0-3.87-7.4,24,24,0,0,0-6.36-5.21c-1.23-.79-1.22-2.12-1.2-3.45,0-1.59.08-3.16,0-4.76a37.4,37.4,0,0,0-2-9.24c-4.83-13.79-16.22-22.79-27.61-31.1-1.56-1.14-3.06,1.46-1.51,2.59Z"/><path class="cls-3" d="M711.88,946.06a30.9,30.9,0,0,1-7.47,15,25.68,25.68,0,0,1-6.09,4.89c-2.8,1.59-5.94,2.42-8.72,4.05a1.51,1.51,0,0,0,1.52,2.6c2.87-1.69,6.14-2.55,9-4.24a28.14,28.14,0,0,0,6.65-5.45,33.69,33.69,0,0,0,8-16c.37-1.89-2.52-2.69-2.89-.8Z"/><path class="cls-3" d="M712.71,927.67l13.86,10.94c4,3.19,8.86,6.26,11.43,10.87,2.36,4.21,2.63,9.23,2.31,13.95a89.94,89.94,0,0,1-2.3,14.29c-1.08,4.53-2.66,9.72-6.74,12.46a1.56,1.56,0,0,0-.69,1.69,3.89,3.89,0,0,0,2.8,2.73c.82.29,2.77.41,2.67,1.63-.17,2.09-3.51,1.9-4.92,2q-3.28.19-6.57.08a70.1,70.1,0,0,1-26.4-6.26c-1.74-.8-3.27,1.79-1.51,2.59A74.31,74.31,0,0,0,720,1001a69.72,69.72,0,0,0,12,.17c1.83-.13,3.76-.26,5.25-1.44a4.71,4.71,0,0,0,1.75-4,4,4,0,0,0-2.76-3.37c-.74-.29-2.58-.4-2.8-1.3l-.69,1.7c3.93-2.63,6-6.93,7.34-11.33A89,89,0,0,0,743,966.33c.6-5.08.69-10.49-1.09-15.37-1.92-5.25-5.91-8.67-10.18-12l-16.94-13.37c-1.5-1.18-3.63.92-2.12,2.12Z"/><path class="cls-3" d="M635.8,920.38a158.08,158.08,0,0,1,3.47-26.89c.41-1.88-2.48-2.69-2.89-.8a162.32,162.32,0,0,0-3.58,27.69c-.08,1.93,2.92,1.92,3,0Z"/><path class="cls-3" d="M618.81,643.92c3.24-1.11,6.6-2.55,9-5.12a10.56,10.56,0,0,0,2.29-10.49c-2.74-8.31-12.27-10-19.86-8.55A30.78,30.78,0,0,0,591,632.5a38.15,38.15,0,0,0-6.49,23.31,34.62,34.62,0,0,0,2.76,12.49c1.87,4.22,5.32,7,8.46,10.24,6.4,6.58,11.56,14.24,16.39,22,4.91,7.92,9.6,16.07,12.75,24.87A93.06,93.06,0,0,1,630,749.66a96,96,0,0,1-8.69,48.59q-1.32,2.76-2.84,5.41a1.5,1.5,0,0,0,2.59,1.52,96.67,96.67,0,0,0,12.21-45.35A97.85,97.85,0,0,0,622.68,713a198.47,198.47,0,0,0-13.77-22.81,115.59,115.59,0,0,0-8-10.35q-2.16-2.49-4.51-4.79a48.94,48.94,0,0,1-4.39-4.49c-2.6-3.27-3.77-7.63-4.3-11.7a36.91,36.91,0,0,1,.41-11.91c1.53-7.62,5.46-14.8,11.8-19.45,5.75-4.21,13.72-6.64,20.73-4.42,3.69,1.16,6.73,4.31,6.91,8.32.15,3.56-2.27,6.14-5.2,7.77A27.26,27.26,0,0,1,618,641c-1.82.63-1,3.52.79,2.89Z"/><path class="cls-3" d="M620,646a69.81,69.81,0,0,0,36.55-12.48c5.1-3.56,10-7.7,13.29-13.07,3.43-5.63,4.62-12.35,4.44-18.88-.67-24-17.57-45.28-39.05-54.81-12.3-5.45-25.73-7.55-39.1-8a224.36,224.36,0,0,0-42,2.91,253.88,253.88,0,0,0-78.8,26.22c-20,10.63-38.95,25.45-49.38,46-13,25.61-8.57,55.12-9.15,82.77-.31,14.83-.89,29.78,1.77,44.45,2.44,13.48,7.76,26.23,14.21,38.25,6.29,11.72,13.52,23,20.8,34.11,7,10.76,14.51,21.34,23.29,30.77,8.57,9.21,18.53,17.24,30.06,22.43,12.63,5.69,26.2,8,39.82,9.93,6.83,1,13.81,2,20.17,4.84a40.37,40.37,0,0,1,13.74,10.12c7.72,8.59,12.37,19.62,16,30.45,1.88,5.57,3.49,11.23,5,16.91a1.5,1.5,0,0,0,2.89-.8c-3-11-6.26-22.07-11.23-32.39-4.55-9.44-10.81-18.43-19.78-24.13-11.18-7.1-24.85-7.41-37.52-9.61-13.24-2.3-26.31-6.07-37.73-13.36-21.08-13.47-35.18-35.49-48.29-56.21-7-11.09-14-22.27-19.51-34.2A114.62,114.62,0,0,1,420,728.66c-1.09-14.58,0-29.21-.08-43.81-.07-14.13-1-28.33.72-42.4a80.25,80.25,0,0,1,12.53-34.93,99.31,99.31,0,0,1,23.42-24.28,164.87,164.87,0,0,1,28.51-16.87,263.86,263.86,0,0,1,39.57-15,244,244,0,0,1,41-8.23c13.39-1.49,27.06-2.07,40.48-.7,13,1.33,26,4.88,37.05,12a63.74,63.74,0,0,1,22.31,24.9c5.4,10.87,8.39,25.46,3.09,36.91-2.71,5.86-7.62,10.32-12.78,14a69.09,69.09,0,0,1-17.38,9.09A65.23,65.23,0,0,1,620,643c-1.92.08-1.93,3.08,0,3Z"/><path class="cls-3" d="M720.82,819a204.61,204.61,0,0,1,11.1,32.39c1.45,5.5,2.77,11,4,16.57s2.84,11.2,3.55,16.87c.64,5.05.21,12-4.84,14.77l2.05.53A62.37,62.37,0,0,0,713,877c-1.7-.92-3.21,1.67-1.51,2.59a59.45,59.45,0,0,1,22.61,22.07,1.53,1.53,0,0,0,2,.54c4.31-2.38,6.21-7.48,6.52-12.16.41-6.15-1.5-12.37-2.82-18.3-2.66-11.9-5.45-23.8-9.22-35.41a181,181,0,0,0-7.24-18.83c-.8-1.76-3.39-.23-2.59,1.51Z"/><path class="cls-3" d="M651.05,817.58c-19.46,8.19-29.13,29.38-31.38,49.26a100.42,100.42,0,0,0-.22,19.46,1.5,1.5,0,0,0,2.94.4c3.19-8.35,6.46-17.17,12.68-23.8,6.09-6.47,14.33-10.58,19.21-18.23A21.55,21.55,0,0,0,657.9,831c-.2-1.9-3.21-1.92-3,0,.94,9-5.48,16-12,21.27-3.45,2.78-7.07,5.4-10.09,8.66a47.42,47.42,0,0,0-7.35,10.88,144.75,144.75,0,0,0-6,14.08l3,.4c-1.63-20.13,2.11-42.49,17-57.29a39.56,39.56,0,0,1,12.42-8.53,1.55,1.55,0,0,0,1-1.85,1.51,1.51,0,0,0-1.84-1Z"/><path d="M1444.19,558.07c-4.74,16.34-20.18,27.15-36.45,29.86-9.9,1.65-20.16.54-29.75-2.22a75.57,75.57,0,0,1-23.33-11.14c-7.5-5.4-13.9-12.59-17.49-21.17a1.54,1.54,0,0,0-1.84-1,1.5,1.5,0,0,0-1,1.84c7,16.68,22.72,27.73,39.43,33.33,18.58,6.23,40.36,6.18,56.72-5.73a43.8,43.8,0,0,0,16.66-22.93,1.5,1.5,0,0,0-2.9-.79Z"/></svg>