<svg id="Layer_1" data-name="Layer 1" xmlns="http://www.w3.org/2000/svg" viewBox="0 0 1920 1080"><defs><style>.cls-1{font-size:60px;font-family:VarelaRound-Regular, Varela Round;}.cls-2{letter-spacing:-0.07em;}.cls-3{letter-spacing:-0.01em;}.cls-4{letter-spacing:0em;}.cls-5{letter-spacing:-0.01em;}</style></defs><title>42-teeth</title><text class="cls-1" transform="translate(150.3 151.51)"><tspan class="cls-2">Y</tspan><tspan x="33.84" y="0">es, 42 </tspan><tspan class="cls-3" x="218.76" y="0">t</tspan><tspan class="cls-4" x="241.26" y="0">eeth,</tspan><tspan class="cls-5" x="0" y="72">m</tspan><tspan x="54.54" y="72">y name is Lou.</tspan></text><path d="M881.78,314.53l105.15,5.11,105.14,5.12,59.24,2.88a1.51,1.51,0,0,0,1.5-1.5c-1-12.38-2.33-26.79,4.83-37.73,5.43-8.28,17-14.54,26.55-9.4l-.74-1.29-4.72,110.21L1174,498.13c-1.56,36.48-2.83,73-4.69,109.47-.33,6.49-.92,13.32-3.65,19.31a20.51,20.51,0,0,1-5.7,7.62c-3,2.43-6.79,3.62-10.51,4.46-8.42,1.91-17,3.19-25.54,4.52q-13.08,2.06-26.21,3.61a730,730,0,0,1-105.14,4.82,725.6,725.6,0,0,1-105-10.43c-17-3-34.18-6.22-50.86-10.78-7.5-2.05-14.11-5.42-17.66-12.69-3.35-6.87-3.82-15-4.19-22.48-.89-18.14.84-36.33,2.06-54.42l3.71-55L828,376.05c1.19-17.67,2-35.39,3.6-53,1-11.36,3.22-24.45,10.76-33.48a21.84,21.84,0,0,1,13.08-7.74l-1.89-1.44a46.92,46.92,0,0,0,10.58,32.27c1.23,1.5,3.34-.64,2.13-2.12a43.82,43.82,0,0,1-9.71-30.15,1.53,1.53,0,0,0-1.9-1.45c-11.76,2.11-18.53,12.37-22,23-4.52,13.7-4.54,28.5-5.5,42.74l-7.6,112.65-3.79,56.14c-1.25,18.63-2.73,37.26-3.69,55.91a255.39,255.39,0,0,0-.15,27.67c.42,7.45,1.1,15.17,4.28,22s8.93,11,15.93,13.43c8,2.75,16.54,4.29,24.8,6.09a727.58,727.58,0,0,0,106.35,15A730.66,730.66,0,0,0,1071,652.8q26.63-2.17,53-6.28c8.65-1.35,17.38-2.67,25.93-4.57,7-1.54,13.11-4.62,16.91-10.86,3.41-5.6,4.55-12.3,5.13-18.72.77-8.48.86-17,1.23-25.55l2.42-56.54,4.82-112.77,4.82-112.43,1.17-27.36a1.5,1.5,0,0,0-.74-1.3c-8-4.31-17.37-1.91-24.22,3.47-8.2,6.46-11.47,16.47-12.22,26.58a126.74,126.74,0,0,0,.54,19.67l1.5-1.5-105.15-5.12L941,314.41l-59.24-2.88c-1.93-.1-1.93,2.9,0,3Z"/><path d="M921.83,414.75c-.3.06-.08,0,0,0l-.27,0h-.48c-.1,0-.5-.05-.21,0-.2,0-.39-.07-.59-.12l-.45-.14c-.26-.08-.07,0,0,0l-.25-.12a8.73,8.73,0,0,1-.93-.55s-.22-.18,0,0l-.16-.13-.36-.33a4.83,4.83,0,0,1-.38-.4l-.18-.21c-.18-.2,0,.05-.07-.08a7.28,7.28,0,0,1-.56-.88l-.23-.43c0-.07-.06-.13-.08-.19.12.27-.05-.14-.06-.16a6,6,0,0,1-.26-.92c0-.07-.09-.6-.06-.28,0-.18,0-.35,0-.53s0-.36,0-.54,0-.14,0-.2c0-.24-.05.23,0,0a6.16,6.16,0,0,1,.29-1c.08-.21-.1.19,0,0l.09-.19c.09-.16.2-.31.29-.48s-.11.11.11-.14.25-.27.38-.4l.22-.19c-.14.11.18-.13.24-.16a3.38,3.38,0,0,1,.41-.24l.21-.11c.26-.13-.14.05,0,0a6.73,6.73,0,0,1,.87-.27l.41-.08c.18,0-.08,0-.09,0l.36,0a8.42,8.42,0,0,1,.87,0l.49,0s.24,0,0,0l.17,0a9.28,9.28,0,0,1,.91.22l.41.14.23.09c-.19-.08-.09,0,0,0a8.94,8.94,0,0,1,.8.44l.36.25c.18.12-.19-.16,0,0l.23.2c.21.19.39.4.58.6s0,0,0,0l.13.2c.1.15.19.3.28.46s.18.41.07.14a3.57,3.57,0,0,1,.16.46c0,.14.07.28.11.42l0,.19c0-.33,0,.1,0,.14a3.53,3.53,0,0,1,0,.46c0,.11,0,.5,0,.19a6.78,6.78,0,0,1-.25,1c-.08.27,0,.07,0,0a1.63,1.63,0,0,1-.11.23c-.07.14-.14.28-.22.41s-.16.26-.24.39l-.16.21c.13-.17,0,0-.06.06a7.65,7.65,0,0,1-.8.81l-.21.17c.17-.13,0,0-.08,0s-.33.23-.51.33l-.47.26-.25.12c-.25.13.08,0-.07,0a10.56,10.56,0,0,1-1.09.34l-.26.05-.2,0h-.06l-.33,0H920l-.26,0c.14,0,.17,0,0,0s-.38-.08-.57-.14-.59-.22-.32-.09a5.17,5.17,0,0,1-1-.63,1.51,1.51,0,0,0-2,.54,1.53,1.53,0,0,0,.54,2.05c3,2.31,7.35,1.27,10-1.09a7.73,7.73,0,0,0,2.56-4.69,6.71,6.71,0,0,0-1.49-5.09,9,9,0,0,0-9-2.78,7.08,7.08,0,0,0-4.16,3,7.27,7.27,0,0,0-.84,5.45c.9,4.18,4.93,7.52,9.27,6.76a1.52,1.52,0,0,0,1-1.85,1.55,1.55,0,0,0-1.85-1.05Z"/><path d="M1059.13,413c-1.43.92-3.08-.3-3.75-1.64-.88-1.76.08-3.68,1.34-5,3-3.12,8.06-4.38,12.29-4a10.86,10.86,0,0,1,9.43,6.74c1.23,3.24.82,7.43-2.42,9.33-2.9,1.71-7.33,1.4-9-1.8-.91-1.7-3.5-.18-2.59,1.52,2.28,4.22,7.78,5.22,12,3.46,4.91-2.07,6.7-7.61,5.26-12.52-1.64-5.59-6.53-9.07-12.2-9.69s-12.5,1.38-15.86,6.1a6.81,6.81,0,0,0-.1,8.31c1.7,2.18,4.72,3.34,7.21,1.75,1.62-1,.12-3.63-1.52-2.59Z"/><path d="M869.78,444.9q42.5,4.91,85.23,7.26t85.51,2.11q21.17-.11,42.34-.86,10.71-.37,21.43-.92,5.37-.27,10.72-.58a59.75,59.75,0,0,1,9.17-.22c2.75.27,5.44,1.28,7,3.71,1.43,2.25,1.77,5.05,1.93,7.66.41,6.77.41,13.59.42,20.37q0,21.07-1.62,42.09-1.64,21.21-5,42.25-1.64,10.34-3.68,20.6c-1.15,5.78-2.12,12.23-6.1,16.86-6.77,7.88-18.6,8.23-28.18,8-14.07-.27-28.15-.86-42.21-1.3l-86.38-2.67L917.58,608l-21.67-.67c-6.16-.19-12.41-.18-18.51-1.13-5.5-.86-11.1-2.54-15.43-6.18s-6.85-8.45-8.5-13.63a87.88,87.88,0,0,1-3.15-16.64q-1.17-10.19-1.66-20.42a307.14,307.14,0,0,1,6.86-81q2.15-9.74,4.94-19.32a1.5,1.5,0,0,0-2.89-.79,310.39,310.39,0,0,0-12.24,82.26,303.17,303.17,0,0,0,2.32,41.95C849,583.05,851.28,595,860,602.25c9.38,7.75,22.38,7.63,33.9,8l44.19,1.37,88.38,2.74,43.9,1.36c6.86.21,13.73.56,20.59.59a60.23,60.23,0,0,0,15.83-1.65,24.49,24.49,0,0,0,12.56-7.45c4-4.72,5.28-10.77,6.47-16.67q4.29-21.25,6.85-42.8,2.57-21.33,3.4-42.82.42-10.87.41-21.76c0-6.89,0-13.85-.47-20.73-.4-5.41-2.14-10.78-7.65-12.85a21.89,21.89,0,0,0-8.67-.93c-3.45.16-6.89.4-10.34.59q-21.86,1.17-43.73,1.68-43.76,1-87.51-.67-43.59-1.68-87-6-10.67-1.06-21.33-2.3c-1.91-.22-1.9,2.78,0,3Z"/><path d="M946.32,461.9l43.14,3.82,21.57,1.91,10.66.94,5.46.49a23.43,23.43,0,0,1,4.88.5c1.14.36.51,1.93.36,2.86-.21,1.33-.46,2.65-.78,4a17.77,17.77,0,0,1-2.86,6.58,9.22,9.22,0,0,1-6.84,3.5,84.36,84.36,0,0,1-10.3-.27L969,484.31c-4.07-.18-8.14-.34-12.2-.54a28.39,28.39,0,0,1-9.46-1.59,8.82,8.82,0,0,1-5.43-5.51c-.67-2.16-.56-4.9,1.44-6.34,1.56-1.12.06-3.72-1.51-2.59-4.44,3.18-4,9.48-.88,13.46,4,5.05,11.26,5.37,17.13,5.63l47.09,2.07,11.9.53c3.42.15,6.93.27,10.08-1.29,4.92-2.45,6.89-8.16,7.85-13.2.48-2.56,1.67-6.36-1.19-7.9-1.38-.74-3.16-.67-4.67-.81l-6-.52-23.8-2.11-53.06-4.7c-1.92-.17-1.91,2.83,0,3Z"/><path d="M996.64,550.14l27.1-2.2c7.71-.63,15.51-1,23.16-2.2,6-1,12.35-2.66,17.33-6.37,5.46-4.07,8.2-10,8.67-16.71.58-8.25-1.77-16.8,1-24.82H1071c4.53,10.78,9.32,22,9.56,33.89.2,10.1-3,20.53-11.25,26.93-8,6.24-18.66,8.17-28.43,9.71-9.37,1.47-19,2.2-28.45,1.07-10.17-1.21-20-5-27-12.78-1.29-1.44-3.41.68-2.12,2.12,13.68,15.28,36.28,15.54,55.09,13,10.16-1.39,21-3.19,29.88-8.73,9.32-5.86,14.2-15.79,15.11-26.57,1.16-13.79-4.29-27-9.52-39.39a1.51,1.51,0,0,0-2.89,0c-4.35,12.52,4,28.89-7.25,38.86-4.38,3.87-10.33,5.59-16,6.63-7.11,1.33-14.41,1.61-21.6,2.19l-29.59,2.41c-1.91.16-1.93,3.16,0,3Z"/><path d="M803,100.3q83.21-.17,166.42-.3t166.42-.23q83.2-.09,166.42-.16c12.43,0,24.94-.36,37.36.43,11.18.72,22.64,2.57,32.68,7.81,19.75,10.33,27.61,31.91,30.86,52.72,4,25.85,3.76,52.56,3.56,78.65-.11,13.63-.45,27.27-.37,40.9.16,23.35.78,46.7,1.43,70q1.29,46.94,2.89,93.85,1.66,50.61,3.36,101.21,1.5,46.06,2.79,92.14c.59,22.2,1.17,44.41,1.21,66.62q0,5.26-.06,10.53c0,1.93,3,1.93,3,0,.3-19.57-.23-39.16-.69-58.72-.69-29.46-1.6-58.92-2.54-88.37q-1.62-50.86-3.35-101.73-1.62-48.74-3.1-97.48c-.75-25.58-1.47-51.17-1.82-76.76-.47-34.37,1.22-68.74-.71-103.07-1.19-21.18-2.8-44.13-13.88-62.81A53.39,53.39,0,0,0,1373.42,105c-9.54-4.87-20.2-6.89-30.79-7.78-12.37-1-24.86-.66-37.26-.65l-41.92,0-83.82.08q-83.84.09-167.65.22-84.13.12-168.27.28L803,97.3a1.5,1.5,0,0,0,0,3Z"/><path d="M771.18,102.81c-10.8-2.9-21.86.45-30.53,7.21-9.64,7.5-15.21,18.64-18.34,30.23-3.63,13.46-4.65,27.69-5.57,41.54-1,15.89-1.3,31.82-1.22,47.73.16,31.42,1.57,62.82.86,94.23-.68,29.9-2.94,59.75-6.08,89.48-6.34,60-16.27,119.44-24.48,179.15-8,58.44-14.54,117.31-14,176.39a623.53,623.53,0,0,0,6.64,86.86c2.09,13.89,4.17,28.21,8.21,41.69,3.42,11.42,10.07,19.93,21.15,24.68,12.4,5.33,26.52,7.36,39.66,10.14q22.26,4.71,44.68,8.59c29.71,5.17,59.61,9.29,89.59,12.54,60.92,6.59,122.19,9.52,183.44,10.18,61.54.66,123.08-1,184.57-3.54,30.46-1.27,60.92-2.77,91.38-4.34,14.59-.75,29.55-.65,44-2.59,11-1.48,20.17-6.64,25.3-16.78s6-21.91,7-33.09q2-23.46,3.29-47,2.52-47.48,1.77-95-.37-23.15-1.51-46.25c-.09-1.92-3.1-1.93-3,0a1388.61,1388.61,0,0,1-3.12,183.24c-1,12.18-1.37,25.47-7,36.6-6.57,13-19.17,15.38-32.56,16.1q-44.41,2.4-88.83,4.5c-59.32,2.78-118.68,4.94-178.07,5.27-59.16.33-118.37-1.16-177.37-5.72-59.22-4.58-118.23-12.27-176.42-24.25-13.56-2.8-27.61-5.15-40.78-9.5-6-2-12-4.83-16.37-9.52-4.58-4.87-7-11.27-8.66-17.63-7.32-27.65-10.53-56.89-12.48-85.36-3.91-57,0-114.21,6.63-170.86,6.74-57.57,16.31-114.77,24-172.22,7.7-57.68,13.17-115.59,12.54-173.85-.33-30.76-1.65-61.52-.63-92.28.49-15,1.35-30.08,3.59-44.92,2-13.18,5.59-27.17,14.81-37.26,8.31-9.08,20.8-14.78,33.1-11.47a1.5,1.5,0,0,0,.79-2.9Z"/><path d="M1199.89,946.83a93.18,93.18,0,0,1-4.16,32.08c-.57,1.85,2.32,2.64,2.9.8a95.59,95.59,0,0,0,4.26-32.88c-.09-1.92-3.09-1.93-3,0Z"/><path d="M1177,954.87,1174.47,979c-.19,1.92,2.81,1.9,3,0l2.49-24.16c.2-1.91-2.8-1.9-3,0Z"/><path d="M1159.94,952.25l-9.45,34.45a1.5,1.5,0,0,0,2.89.8l9.45-34.46a1.5,1.5,0,0,0-2.89-.79Z"/><path d="M918.36,942.24a74.58,74.58,0,0,0-5.8,30.76c0,1.92,3,1.93,3,0a72.38,72.38,0,0,1,5.69-30,1.5,1.5,0,0,0-1-1.84,1.52,1.52,0,0,0-1.84,1Z"/><path d="M885.84,940.25,881,970.7c-.3,1.89,2.59,2.7,2.89.8l4.8-30.45c.3-1.89-2.59-2.7-2.89-.8Z"/><path d="M902.07,942.22l-8.38,26.11c-.59,1.84,2.3,2.63,2.89.8L905,943c.59-1.84-2.31-2.63-2.9-.79Z"/></svg>