<svg id="Layer_1" data-name="Layer 1" xmlns="http://www.w3.org/2000/svg" viewBox="0 0 1920 1080"><defs><style>.cls-1{fill:#e03838;opacity:0.5;}.cls-2{fill:#4d4d4d;}</style></defs><title>6</title><path class="cls-1" d="M1449,329c8.21,35.19-387,446-300,448s173-30,421-153,238-228,302-372S1717,108,1421,83,528,291,455,350,152,539,79,603s-22,96,0,147,193,53,376,4S675,643,684,615s-95.46-17.54-133-12c-61,9-127.5,27.5-181.5.5s38-44,132-80,78-28,305-124,407-125,462.5-119.5S1442,299,1449,329Z"/><path d="M245.62,242a2.61,2.61,0,0,1-.78-1.92V205.73H232.6a2.46,2.46,0,0,1-2.52-2.52,2.54,2.54,0,0,1,.72-1.83,2.39,2.39,0,0,1,1.8-.75h29.88a2.56,2.56,0,0,1,2.58,2.58,2.39,2.39,0,0,1-.75,1.8,2.54,2.54,0,0,1-1.83.72H250.3v34.38a2.56,2.56,0,0,1-.81,1.92,2.71,2.71,0,0,1-2,.78A2.61,2.61,0,0,1,245.62,242Z"/><path d="M271,242a2.61,2.61,0,0,1-.78-1.92V201.17a2.71,2.71,0,0,1,.78-1.95,2.56,2.56,0,0,1,1.92-.81,2.77,2.77,0,0,1,2.76,2.76v15.66a19.94,19.94,0,0,1,4.92-4,12.42,12.42,0,0,1,6.24-1.5,10.37,10.37,0,0,1,5.73,1.56,10.14,10.14,0,0,1,3.72,4.26,13.6,13.6,0,0,1,1.29,5.94v17a2.56,2.56,0,0,1-.81,1.92,2.71,2.71,0,0,1-1.95.78,2.66,2.66,0,0,1-2.7-2.7V223.67q0-7.32-6.6-7.32a9.55,9.55,0,0,0-5.37,1.56,19.44,19.44,0,0,0-4.47,4.2v18a2.56,2.56,0,0,1-.81,1.92,2.71,2.71,0,0,1-1.95.78A2.61,2.61,0,0,1,271,242Z"/><path d="M309,238.94q-4.11-4.17-4.11-11.73a19.56,19.56,0,0,1,1.56-7.86,13.36,13.36,0,0,1,4.8-5.82,13.79,13.79,0,0,1,8-2.22,14,14,0,0,1,7.68,2.07,13.39,13.39,0,0,1,4.92,5.52,17,17,0,0,1,1.68,7.53,2.62,2.62,0,0,1-2.76,2.7H310.42a9.87,9.87,0,0,0,3.12,6.54q2.64,2.34,7.38,2.34a18,18,0,0,0,4.41-.48,18.32,18.32,0,0,0,3.69-1.38,2.38,2.38,0,0,1,1.08-.24,2.41,2.41,0,0,1,1.68.66,2.18,2.18,0,0,1,.72,1.68,2.59,2.59,0,0,1-1.56,2.22,18.74,18.74,0,0,1-10.5,2.64Q313.12,243.11,309,238.94Zm19.11-14.25a9.61,9.61,0,0,0-1.53-4.92,8.26,8.26,0,0,0-3.33-2.91,9.15,9.15,0,0,0-8,0,8.06,8.06,0,0,0-3.3,2.91,9.79,9.79,0,0,0-1.5,4.92Z"/><path d="M341.5,242a2.61,2.61,0,0,1-.78-1.92V214.37a2.71,2.71,0,0,1,.78-2,2.56,2.56,0,0,1,1.92-.81,2.77,2.77,0,0,1,2.76,2.76V217q4.2-5.64,9.42-5.64h.3a2.51,2.51,0,0,1,1.89.78,2.66,2.66,0,0,1,.75,1.92,2.42,2.42,0,0,1-.78,1.86,2.81,2.81,0,0,1-2,.72h-.3A10.23,10.23,0,0,0,350.2,218a12.16,12.16,0,0,0-4,3.87v18.24a2.56,2.56,0,0,1-.81,1.92,2.71,2.71,0,0,1-1.95.78A2.61,2.61,0,0,1,341.5,242Z"/><path d="M365.05,238.94q-4.11-4.17-4.11-11.73a19.56,19.56,0,0,1,1.56-7.86,13.36,13.36,0,0,1,4.8-5.82,13.79,13.79,0,0,1,8-2.22,14,14,0,0,1,7.68,2.07,13.39,13.39,0,0,1,4.92,5.52,17,17,0,0,1,1.68,7.53,2.62,2.62,0,0,1-2.76,2.7H366.46a9.82,9.82,0,0,0,3.12,6.54Q372.22,238,377,238a18,18,0,0,0,4.41-.48,18.32,18.32,0,0,0,3.69-1.38,2.38,2.38,0,0,1,1.08-.24,2.43,2.43,0,0,1,1.68.66,2.18,2.18,0,0,1,.72,1.68,2.59,2.59,0,0,1-1.56,2.22,18.74,18.74,0,0,1-10.5,2.64Q369.16,243.11,365.05,238.94Zm19.11-14.25a9.61,9.61,0,0,0-1.53-4.92,8.26,8.26,0,0,0-3.33-2.91,9.15,9.15,0,0,0-8,0,8,8,0,0,0-3.3,2.91,9.79,9.79,0,0,0-1.5,4.92Z"/><path d="M412.78,204.77a3,3,0,0,1-.9-2.16v-.24a3.07,3.07,0,0,1,3.06-3.06h.36a3.07,3.07,0,0,1,3.06,3.06v.24a3.07,3.07,0,0,1-3.06,3.06h-.36A3,3,0,0,1,412.78,204.77Zm.36,37.26a2.57,2.57,0,0,1-.78-1.92V214.37a2.67,2.67,0,0,1,.78-2,2.53,2.53,0,0,1,1.92-.81,2.67,2.67,0,0,1,2.76,2.76v25.74A2.56,2.56,0,0,1,417,242a2.73,2.73,0,0,1-1.95.78A2.58,2.58,0,0,1,413.14,242Z"/><path d="M429.09,235.19v-18.6h-4.26a1.13,1.13,0,0,1-1.14-1.14,1.25,1.25,0,0,1,.54-1l8.16-8a1.51,1.51,0,0,1,1-.54,1.06,1.06,0,0,1,.81.36,1.2,1.2,0,0,1,.33.84v4.8h6.78a2.26,2.26,0,0,1,2.34,2.34,2.3,2.3,0,0,1-.66,1.65,2.22,2.22,0,0,1-1.68.69h-6.78v18.12q0,2.34,1.11,3a5.59,5.59,0,0,0,2.79.63,8.32,8.32,0,0,0,2.4-.36l.51-.12a3.27,3.27,0,0,1,.69-.06,2.11,2.11,0,0,1,1.5.63,2,2,0,0,1,.66,1.53,2.27,2.27,0,0,1-1.38,2.1,11.74,11.74,0,0,1-5,1.08Q429.09,243.11,429.09,235.19Z"/><path d="M472.77,242.09a3.66,3.66,0,0,1-1.32-1.8l-8.52-25a3.23,3.23,0,0,1-.18-1,2.66,2.66,0,0,1,2.7-2.7,2.74,2.74,0,0,1,1.53.45,2.21,2.21,0,0,1,.93,1.17l7,23.1,7-22.56a3.08,3.08,0,0,1,5.88,0l7,22.56,7-23.1a2.21,2.21,0,0,1,.93-1.17,2.74,2.74,0,0,1,1.53-.45,2.66,2.66,0,0,1,2.7,2.7,3.23,3.23,0,0,1-.18,1l-8.52,25a3.66,3.66,0,0,1-1.32,1.8,3.6,3.6,0,0,1-4.32,0,4,4,0,0,1-1.38-1.86l-6.36-19.86-6.36,19.86a4,4,0,0,1-1.38,1.86,3.6,3.6,0,0,1-4.32,0Z"/><path d="M515.88,242a8.52,8.52,0,0,1-3.57-3.15,8.68,8.68,0,0,1-1.32-4.77A8.41,8.41,0,0,1,514.5,227q3.51-2.64,10.29-2.64h7.26v-.48q0-4-1.95-5.7T524,216.47a20.45,20.45,0,0,0-4,.36,34,34,0,0,0-3.93,1.08,3.37,3.37,0,0,1-.78.12,2.13,2.13,0,0,1-1.56-.66,2.2,2.2,0,0,1-.66-1.62,2.31,2.31,0,0,1,1.56-2.28A26.39,26.39,0,0,1,525,211.31a13.55,13.55,0,0,1,7,1.68,10.56,10.56,0,0,1,4.2,4.35,12.65,12.65,0,0,1,1.35,5.79v17a2.56,2.56,0,0,1-.81,1.92,2.71,2.71,0,0,1-2,.78,2.66,2.66,0,0,1-2.7-2.7v-1.56a15.07,15.07,0,0,1-11.28,4.56A11.15,11.15,0,0,1,515.88,242Zm12-5a14.18,14.18,0,0,0,4.14-3.21v-5h-6.54q-9.06,0-9.06,4.74a4.45,4.45,0,0,0,1.47,3.48q1.47,1.32,4.89,1.32A10.85,10.85,0,0,0,527.91,237Z"/><path d="M545.67,240.41a2.29,2.29,0,0,1-1-2,2.41,2.41,0,0,1,.66-1.68A2.18,2.18,0,0,1,547,236a2.64,2.64,0,0,1,1.08.24,24.25,24.25,0,0,0,3.84,1.32,17.85,17.85,0,0,0,4.32.48q6.66,0,6.66-4.26a2.27,2.27,0,0,0-1.53-2.1,31.33,31.33,0,0,0-5-1.62,45.27,45.27,0,0,1-5.85-1.74,10.29,10.29,0,0,1-4-2.73,6.94,6.94,0,0,1-1.65-4.83,8.65,8.65,0,0,1,3-6.84q3-2.64,8.67-2.64a25,25,0,0,1,8.7,1.5,2.25,2.25,0,0,1,1.29.9,2.41,2.41,0,0,1,.45,1.38,2.35,2.35,0,0,1-.69,1.68,2.27,2.27,0,0,1-1.71.72,3.37,3.37,0,0,1-.78-.12,23,23,0,0,0-6.84-1.08,9.37,9.37,0,0,0-5.07,1.17,3.49,3.49,0,0,0-1.83,3,2.77,2.77,0,0,0,1.68,2.64,24,24,0,0,0,5.22,1.62,50,50,0,0,1,5.76,1.77,9.52,9.52,0,0,1,3.81,2.73,7.41,7.41,0,0,1,1.59,5,7.93,7.93,0,0,1-3,6.36q-3,2.52-8.55,2.52A22.32,22.32,0,0,1,545.67,240.41Z"/><path d="M594,242a8.52,8.52,0,0,1-3.57-3.15,8.68,8.68,0,0,1-1.32-4.77,8.41,8.41,0,0,1,3.51-7.08q3.51-2.64,10.29-2.64h7.26v-.48q0-4-1.95-5.7t-6.09-1.74a20.45,20.45,0,0,0-4,.36,34,34,0,0,0-3.93,1.08,3.37,3.37,0,0,1-.78.12,2.13,2.13,0,0,1-1.56-.66,2.2,2.2,0,0,1-.66-1.62,2.31,2.31,0,0,1,1.56-2.28,26.39,26.39,0,0,1,10.38-2.16,13.55,13.55,0,0,1,7,1.68,10.56,10.56,0,0,1,4.2,4.35,12.65,12.65,0,0,1,1.35,5.79v17a2.56,2.56,0,0,1-.81,1.92,2.71,2.71,0,0,1-2,.78,2.66,2.66,0,0,1-2.7-2.7v-1.56a15.07,15.07,0,0,1-11.28,4.56A11.15,11.15,0,0,1,594,242Zm12-5a14.18,14.18,0,0,0,4.14-3.21v-5h-6.54q-9.06,0-9.06,4.74A4.45,4.45,0,0,0,596,237q1.47,1.32,4.89,1.32A10.85,10.85,0,0,0,606,237Z"/><path d="M632.07,256a23,23,0,0,1-5.82-2.22,2.28,2.28,0,0,1-1.08-2.1,2.46,2.46,0,0,1,.69-1.71,2.23,2.23,0,0,1,1.71-.75,3,3,0,0,1,1.08.24,21.83,21.83,0,0,0,9.9,2.28q9.18,0,9.18-9.78v-4a13.54,13.54,0,0,1-10.26,4.56,14.46,14.46,0,0,1-6.87-1.77,14.3,14.3,0,0,1-5.49-5.28,18,18,0,0,1,0-17.1,14.3,14.3,0,0,1,5.49-5.28,14.46,14.46,0,0,1,6.87-1.77,13.54,13.54,0,0,1,10.26,4.56v-1.5a2.71,2.71,0,0,1,.78-2,2.56,2.56,0,0,1,1.92-.81,2.77,2.77,0,0,1,2.76,2.76v26.82q0,7.56-3.66,11.64t-10.44,4.08A28.4,28.4,0,0,1,632.07,256Zm11.52-19.68a18,18,0,0,0,4.14-3.24V220.73a18,18,0,0,0-4.14-3.24,10.08,10.08,0,0,0-5-1.2,10.19,10.19,0,0,0-7.35,2.73q-2.85,2.73-2.85,7.89t2.85,7.89a10.19,10.19,0,0,0,7.35,2.73A10.08,10.08,0,0,0,643.59,236.33Z"/><path d="M665.58,242a8.52,8.52,0,0,1-3.57-3.15,8.68,8.68,0,0,1-1.32-4.77A8.41,8.41,0,0,1,664.2,227q3.51-2.64,10.29-2.64h7.26v-.48q0-4-2-5.7t-6.09-1.74a20.45,20.45,0,0,0-4.05.36,34,34,0,0,0-3.93,1.08,3.37,3.37,0,0,1-.78.12,2.13,2.13,0,0,1-1.56-.66,2.2,2.2,0,0,1-.66-1.62,2.31,2.31,0,0,1,1.56-2.28,26.39,26.39,0,0,1,10.38-2.16,13.55,13.55,0,0,1,7,1.68,10.56,10.56,0,0,1,4.2,4.35,12.65,12.65,0,0,1,1.35,5.79v17a2.56,2.56,0,0,1-.81,1.92,2.71,2.71,0,0,1-1.95.78,2.66,2.66,0,0,1-2.7-2.7v-1.56a15.07,15.07,0,0,1-11.28,4.56A11.15,11.15,0,0,1,665.58,242Zm12-5a14.18,14.18,0,0,0,4.14-3.21v-5h-6.54q-9.06,0-9.06,4.74a4.45,4.45,0,0,0,1.47,3.48q1.47,1.32,4.89,1.32A10.85,10.85,0,0,0,677.61,237Z"/><path d="M696.81,204.77a3,3,0,0,1-.9-2.16v-.24a3.07,3.07,0,0,1,3.06-3.06h.36a3.07,3.07,0,0,1,3.06,3.06v.24a3.07,3.07,0,0,1-3.06,3.06H699A3,3,0,0,1,696.81,204.77Zm.36,37.26a2.61,2.61,0,0,1-.78-1.92V214.37a2.71,2.71,0,0,1,.78-2,2.56,2.56,0,0,1,1.92-.81,2.67,2.67,0,0,1,2.76,2.76v25.74A2.56,2.56,0,0,1,701,242a2.71,2.71,0,0,1-1.95.78A2.61,2.61,0,0,1,697.17,242Z"/><path d="M712.11,242a2.61,2.61,0,0,1-.78-1.92V214.37a2.71,2.71,0,0,1,.78-2,2.56,2.56,0,0,1,1.92-.81,2.77,2.77,0,0,1,2.76,2.76v2.46a19.94,19.94,0,0,1,4.92-4,12.42,12.42,0,0,1,6.24-1.5,10.37,10.37,0,0,1,5.73,1.56,10.14,10.14,0,0,1,3.72,4.26,13.6,13.6,0,0,1,1.29,5.94v17a2.56,2.56,0,0,1-.81,1.92,2.71,2.71,0,0,1-2,.78,2.66,2.66,0,0,1-2.7-2.7V223.67q0-7.32-6.6-7.32a9.55,9.55,0,0,0-5.37,1.56,19.44,19.44,0,0,0-4.47,4.2v18A2.56,2.56,0,0,1,716,242a2.71,2.71,0,0,1-2,.78A2.61,2.61,0,0,1,712.11,242Z"/><path d="M748.26,241.7a3.23,3.23,0,0,1-1-2.37V239a3.38,3.38,0,0,1,3.36-3.36h.6a3.38,3.38,0,0,1,3.36,3.36v.36a3.38,3.38,0,0,1-3.36,3.36h-.6A3.23,3.23,0,0,1,748.26,241.7Z"/><path d="M235.9,314a2.61,2.61,0,0,1-.78-1.92v-37a2.71,2.71,0,0,1,.78-1.95,2.56,2.56,0,0,1,1.92-.81,2.77,2.77,0,0,1,2.76,2.76v37a2.56,2.56,0,0,1-.81,1.92,2.71,2.71,0,0,1-2,.78A2.61,2.61,0,0,1,235.9,314Z"/><path d="M252.28,307.19v-18.6H248a1.13,1.13,0,0,1-1.14-1.14,1.25,1.25,0,0,1,.54-1l8.16-8a1.51,1.51,0,0,1,1-.54,1.06,1.06,0,0,1,.81.36,1.2,1.2,0,0,1,.33.84v4.8h6.78a2.26,2.26,0,0,1,2.34,2.34,2.3,2.3,0,0,1-.66,1.65,2.22,2.22,0,0,1-1.68.69h-6.78v18.12q0,2.34,1.11,3a5.59,5.59,0,0,0,2.79.63A8.32,8.32,0,0,0,264,310l.51-.12a3.27,3.27,0,0,1,.69-.06,2.11,2.11,0,0,1,1.5.63,2,2,0,0,1,.66,1.53A2.27,2.27,0,0,1,266,314a11.74,11.74,0,0,1-5,1.08Q252.28,315.11,252.28,307.19Z"/><path d="M273,285.35a1.78,1.78,0,0,1-.51-1.26,1.67,1.67,0,0,1,.9-1.5,6.85,6.85,0,0,0,2.28-2.1,6.41,6.41,0,0,0,.78-3.48h-.24a3.38,3.38,0,0,1-3.36-3.36v-.36a3.38,3.38,0,0,1,3.36-3.36h.6a3.38,3.38,0,0,1,3.36,3.36v3.54a9.65,9.65,0,0,1-4.92,8.76,1.89,1.89,0,0,1-1,.3A1.63,1.63,0,0,1,273,285.35Z"/><path d="M285.7,312.41a2.29,2.29,0,0,1-1-2,2.41,2.41,0,0,1,.66-1.68A2.18,2.18,0,0,1,287,308a2.64,2.64,0,0,1,1.08.24,24.25,24.25,0,0,0,3.84,1.32,17.85,17.85,0,0,0,4.32.48q6.66,0,6.66-4.26a2.27,2.27,0,0,0-1.53-2.1,31.33,31.33,0,0,0-5-1.62,45.27,45.27,0,0,1-5.85-1.74,10.29,10.29,0,0,1-4-2.73,6.94,6.94,0,0,1-1.65-4.83,8.65,8.65,0,0,1,3-6.84q3-2.64,8.67-2.64a25,25,0,0,1,8.7,1.5,2.25,2.25,0,0,1,1.29.9,2.41,2.41,0,0,1,.45,1.38,2.35,2.35,0,0,1-.69,1.68,2.27,2.27,0,0,1-1.71.72,3.37,3.37,0,0,1-.78-.12,23,23,0,0,0-6.84-1.08,9.37,9.37,0,0,0-5.07,1.17,3.49,3.49,0,0,0-1.83,3,2.77,2.77,0,0,0,1.68,2.64,24,24,0,0,0,5.22,1.62,50,50,0,0,1,5.76,1.77,9.52,9.52,0,0,1,3.81,2.73,7.41,7.41,0,0,1,1.59,5,7.93,7.93,0,0,1-3,6.36q-3,2.52-8.55,2.52A22.32,22.32,0,0,1,285.7,312.41Z"/><path d="M331.9,314a2.61,2.61,0,0,1-.78-1.92V286.37a2.71,2.71,0,0,1,.78-1.95,2.56,2.56,0,0,1,1.92-.81,2.77,2.77,0,0,1,2.76,2.76v2.46a15,15,0,0,1,4.05-4,11,11,0,0,1,6.15-1.56,9.33,9.33,0,0,1,5.76,1.8,10,10,0,0,1,3.42,4.38,12.09,12.09,0,0,1,11-6.18,9.11,9.11,0,0,1,5.61,1.68,10,10,0,0,1,3.33,4.32,14.44,14.44,0,0,1,1.08,5.52v17.28a2.56,2.56,0,0,1-.81,1.92,2.71,2.71,0,0,1-1.95.78,2.66,2.66,0,0,1-2.7-2.7v-16.2q0-3.9-1.38-5.73t-4.74-1.83a7.92,7.92,0,0,0-5.07,1.59,15.38,15.38,0,0,0-3.57,4.17v18A2.56,2.56,0,0,1,356,314a2.71,2.71,0,0,1-1.95.78,2.66,2.66,0,0,1-2.7-2.7v-16.2q0-3.9-1.38-5.73t-4.74-1.83a7.92,7.92,0,0,0-5.07,1.59,15.38,15.38,0,0,0-3.57,4.17v18a2.56,2.56,0,0,1-.81,1.92,2.71,2.71,0,0,1-1.95.78A2.61,2.61,0,0,1,331.9,314Z"/><path d="M389.11,314a8.52,8.52,0,0,1-3.57-3.15,8.68,8.68,0,0,1-1.32-4.77,8.41,8.41,0,0,1,3.51-7.08q3.51-2.64,10.29-2.64h7.26v-.48c0-2.64-.66-4.54-1.95-5.7s-3.33-1.74-6.09-1.74a20.31,20.31,0,0,0-4.05.36,34,34,0,0,0-3.93,1.08,3.37,3.37,0,0,1-.78.12,2.13,2.13,0,0,1-1.56-.66,2.2,2.2,0,0,1-.66-1.62,2.3,2.3,0,0,1,1.56-2.28,26.35,26.35,0,0,1,10.38-2.16,13.55,13.55,0,0,1,7,1.68,10.62,10.62,0,0,1,4.2,4.35,12.65,12.65,0,0,1,1.35,5.79v17a2.56,2.56,0,0,1-.81,1.92,2.73,2.73,0,0,1-1.95.78,2.66,2.66,0,0,1-2.7-2.7v-1.56A15.09,15.09,0,0,1,394,315.11,11.12,11.12,0,0,1,389.11,314Zm12-5a14.18,14.18,0,0,0,4.14-3.21v-5h-6.54q-9.06,0-9.06,4.74a4.45,4.45,0,0,0,1.47,3.48q1.47,1.32,4.89,1.32A10.85,10.85,0,0,0,401.14,309Z"/><path d="M420.7,314a2.57,2.57,0,0,1-.78-1.92V273.17a2.67,2.67,0,0,1,.78-1.95,2.53,2.53,0,0,1,1.92-.81,2.77,2.77,0,0,1,2.76,2.76v24.54l14.28-13.2a2.76,2.76,0,0,1,1.8-.78,2.43,2.43,0,0,1,2,.78,2.87,2.87,0,0,1,.63,1.86,3,3,0,0,1-1,2l-8.64,7.74,10.86,14.4a2.69,2.69,0,0,1,.6,1.62,2.52,2.52,0,0,1-.78,1.92,2.81,2.81,0,0,1-2,.72,2.6,2.6,0,0,1-1.2-.3,2.86,2.86,0,0,1-1-.84l-10.32-14-5.22,4.74v7.74a2.56,2.56,0,0,1-.81,1.92,2.73,2.73,0,0,1-1.95.78A2.58,2.58,0,0,1,420.7,314Z"/><path d="M453,276.77a3,3,0,0,1-.9-2.16v-.24a3.07,3.07,0,0,1,3.06-3.06h.36a3.07,3.07,0,0,1,3.06,3.06v.24a3.07,3.07,0,0,1-3.06,3.06h-.36A3,3,0,0,1,453,276.77ZM453.4,314a2.61,2.61,0,0,1-.78-1.92V286.37a2.71,2.71,0,0,1,.78-1.95,2.56,2.56,0,0,1,1.92-.81,2.68,2.68,0,0,1,2,.78,2.72,2.72,0,0,1,.78,2v25.74a2.56,2.56,0,0,1-.81,1.92,2.73,2.73,0,0,1-1.95.78A2.61,2.61,0,0,1,453.4,314Z"/><path d="M468.33,314a2.6,2.6,0,0,1-.77-1.92V286.37a2.7,2.7,0,0,1,.77-1.95,2.56,2.56,0,0,1,1.92-.81,2.77,2.77,0,0,1,2.77,2.76v2.46a19.59,19.59,0,0,1,4.92-4,12.36,12.36,0,0,1,6.23-1.5,10.35,10.35,0,0,1,5.73,1.56,10.14,10.14,0,0,1,3.72,4.26,13.61,13.61,0,0,1,1.3,5.94v17a2.53,2.53,0,0,1-.82,1.92,2.71,2.71,0,0,1-2,.78,2.65,2.65,0,0,1-2.69-2.7V295.67q0-7.32-6.61-7.32a9.55,9.55,0,0,0-5.37,1.56,19.2,19.2,0,0,0-4.46,4.2v18a2.56,2.56,0,0,1-.81,1.92,2.73,2.73,0,0,1-2,.78A2.61,2.61,0,0,1,468.33,314Z"/><path d="M511.35,328a23,23,0,0,1-5.82-2.22,2.28,2.28,0,0,1-1.08-2.1,2.46,2.46,0,0,1,.69-1.71,2.23,2.23,0,0,1,1.71-.75,3,3,0,0,1,1.08.24,21.83,21.83,0,0,0,9.9,2.28q9.18,0,9.18-9.78v-4a13.54,13.54,0,0,1-10.26,4.56,14.46,14.46,0,0,1-6.87-1.77,14.3,14.3,0,0,1-5.49-5.28,18,18,0,0,1,0-17.1,14.3,14.3,0,0,1,5.49-5.28,14.46,14.46,0,0,1,6.87-1.77A13.54,13.54,0,0,1,527,287.87v-1.5a2.71,2.71,0,0,1,.78-1.95,2.56,2.56,0,0,1,1.92-.81,2.77,2.77,0,0,1,2.76,2.76v26.82q0,7.56-3.66,11.64t-10.44,4.08A28.4,28.4,0,0,1,511.35,328Zm11.52-19.68a18,18,0,0,0,4.14-3.24V292.73a18,18,0,0,0-4.14-3.24,10.08,10.08,0,0,0-5-1.2,10.19,10.19,0,0,0-7.35,2.73q-2.85,2.73-2.85,7.89t2.85,7.89a10.19,10.19,0,0,0,7.35,2.73A10.08,10.08,0,0,0,522.87,308.33Z"/><path d="M558.33,314a2.61,2.61,0,0,1-.78-1.92V286.37a2.71,2.71,0,0,1,.78-1.95,2.56,2.56,0,0,1,1.92-.81,2.77,2.77,0,0,1,2.76,2.76v2.46a15,15,0,0,1,4-4,11,11,0,0,1,6.15-1.56,9.33,9.33,0,0,1,5.76,1.8,10,10,0,0,1,3.42,4.38,12.09,12.09,0,0,1,11-6.18A9.11,9.11,0,0,1,599,285a10,10,0,0,1,3.33,4.32,14.44,14.44,0,0,1,1.08,5.52v17.28a2.56,2.56,0,0,1-.81,1.92,2.71,2.71,0,0,1-1.95.78,2.66,2.66,0,0,1-2.7-2.7v-16.2q0-3.9-1.38-5.73t-4.74-1.83a7.92,7.92,0,0,0-5.07,1.59,15.38,15.38,0,0,0-3.57,4.17v18a2.56,2.56,0,0,1-.81,1.92,2.71,2.71,0,0,1-1.95.78,2.66,2.66,0,0,1-2.7-2.7v-16.2q0-3.9-1.38-5.73t-4.74-1.83a7.92,7.92,0,0,0-5.07,1.59,15.38,15.38,0,0,0-3.57,4.17v18a2.56,2.56,0,0,1-.81,1.92,2.71,2.71,0,0,1-2,.78A2.61,2.61,0,0,1,558.33,314Z"/><path d="M617.1,327.83a2.59,2.59,0,0,1-.75-1.86,2.72,2.72,0,0,1,.18-1l3.9-10-11.28-27.48a3.07,3.07,0,0,1-.24-1.14,2.71,2.71,0,0,1,.78-1.95,2.56,2.56,0,0,1,1.92-.81,2.62,2.62,0,0,1,1.53.48,2.72,2.72,0,0,1,1,1.2l9.24,22.92,9.42-22.8a2.62,2.62,0,0,1,2.52-1.8,2.56,2.56,0,0,1,1.92.81,2.71,2.71,0,0,1,.78,1.95,2.88,2.88,0,0,1-.18,1l-16.38,39.36a2.7,2.7,0,0,1-2.52,1.86A2.44,2.44,0,0,1,617.1,327.83Z"/><path d="M660.69,314a2.61,2.61,0,0,1-.78-1.92V273.17a2.71,2.71,0,0,1,.78-1.95,2.56,2.56,0,0,1,1.92-.81,2.77,2.77,0,0,1,2.76,2.76v15.66a19.94,19.94,0,0,1,4.92-4,12.42,12.42,0,0,1,6.24-1.5,10.37,10.37,0,0,1,5.73,1.56,10.14,10.14,0,0,1,3.72,4.26,13.6,13.6,0,0,1,1.29,5.94v17a2.56,2.56,0,0,1-.81,1.92,2.71,2.71,0,0,1-2,.78,2.66,2.66,0,0,1-2.7-2.7V295.67q0-7.32-6.6-7.32a9.55,9.55,0,0,0-5.37,1.56,19.44,19.44,0,0,0-4.47,4.2v18a2.56,2.56,0,0,1-.81,1.92,2.71,2.71,0,0,1-1.95.78A2.61,2.61,0,0,1,660.69,314Z"/><path d="M698.7,310.94q-4.11-4.17-4.11-11.73a19.56,19.56,0,0,1,1.56-7.86,13.36,13.36,0,0,1,4.8-5.82,13.79,13.79,0,0,1,8-2.22,14,14,0,0,1,7.68,2.07,13.39,13.39,0,0,1,4.92,5.52,17,17,0,0,1,1.68,7.53,2.62,2.62,0,0,1-2.76,2.7H700.11a9.87,9.87,0,0,0,3.12,6.54q2.64,2.34,7.38,2.34a18,18,0,0,0,4.41-.48,18.32,18.32,0,0,0,3.69-1.38,2.38,2.38,0,0,1,1.08-.24,2.41,2.41,0,0,1,1.68.66,2.18,2.18,0,0,1,.72,1.68,2.59,2.59,0,0,1-1.56,2.22,18.74,18.74,0,0,1-10.5,2.64Q702.81,315.11,698.7,310.94Zm19.11-14.25a9.61,9.61,0,0,0-1.53-4.92,8.26,8.26,0,0,0-3.33-2.91,9.15,9.15,0,0,0-8,0,8.06,8.06,0,0,0-3.3,2.91,9.79,9.79,0,0,0-1.5,4.92Z"/><path d="M733.32,314a8.52,8.52,0,0,1-3.57-3.15,8.68,8.68,0,0,1-1.32-4.77,8.41,8.41,0,0,1,3.51-7.08q3.51-2.64,10.29-2.64h7.26v-.48q0-4-2-5.7t-6.09-1.74a20.45,20.45,0,0,0-4.05.36,34,34,0,0,0-3.93,1.08,3.37,3.37,0,0,1-.78.12,2.13,2.13,0,0,1-1.56-.66,2.2,2.2,0,0,1-.66-1.62,2.31,2.31,0,0,1,1.56-2.28,26.39,26.39,0,0,1,10.38-2.16,13.55,13.55,0,0,1,7,1.68,10.56,10.56,0,0,1,4.2,4.35,12.65,12.65,0,0,1,1.35,5.79v17a2.56,2.56,0,0,1-.81,1.92,2.71,2.71,0,0,1-1.95.78,2.66,2.66,0,0,1-2.7-2.7v-1.56a15.07,15.07,0,0,1-11.28,4.56A11.15,11.15,0,0,1,733.32,314Zm12-5a14.18,14.18,0,0,0,4.14-3.21v-5H743q-9.06,0-9.06,4.74a4.45,4.45,0,0,0,1.47,3.48q1.47,1.32,4.89,1.32A10.85,10.85,0,0,0,745.35,309Z"/><path d="M769.74,313.22a14.34,14.34,0,0,1-5.4-5.52,18.45,18.45,0,0,1,0-17,14.34,14.34,0,0,1,5.4-5.52,14.07,14.07,0,0,1,7-1.89,13.79,13.79,0,0,1,10.26,4.56v-14.7a2.63,2.63,0,0,1,.81-2,2.71,2.71,0,0,1,1.95-.78,2.56,2.56,0,0,1,1.92.81,2.71,2.71,0,0,1,.78,1.95v38.94a2.66,2.66,0,0,1-2.7,2.7,2.71,2.71,0,0,1-1.95-.78,2.56,2.56,0,0,1-.81-1.92v-1.56a13.79,13.79,0,0,1-10.26,4.56A14.07,14.07,0,0,1,769.74,313.22Zm13-4.44a14.82,14.82,0,0,0,4.29-3.27v-12.6a14.82,14.82,0,0,0-4.29-3.27,11.33,11.33,0,0,0-5.19-1.23,9.43,9.43,0,0,0-7.14,2.82q-2.7,2.82-2.7,8t2.7,8a9.43,9.43,0,0,0,7.14,2.82A11.33,11.33,0,0,0,782.76,308.78Z"/><path d="M816.57,312.41a2.29,2.29,0,0,1-1-2,2.41,2.41,0,0,1,.66-1.68,2.18,2.18,0,0,1,1.68-.72,2.64,2.64,0,0,1,1.08.24,24.25,24.25,0,0,0,3.84,1.32,17.85,17.85,0,0,0,4.32.48q6.66,0,6.66-4.26a2.27,2.27,0,0,0-1.53-2.1,31.33,31.33,0,0,0-5-1.62,45.27,45.27,0,0,1-5.85-1.74,10.29,10.29,0,0,1-4-2.73,6.94,6.94,0,0,1-1.65-4.83,8.65,8.65,0,0,1,3-6.84q3-2.64,8.67-2.64a25,25,0,0,1,8.7,1.5,2.25,2.25,0,0,1,1.29.9,2.41,2.41,0,0,1,.45,1.38,2.35,2.35,0,0,1-.69,1.68,2.27,2.27,0,0,1-1.71.72,3.37,3.37,0,0,1-.78-.12,23,23,0,0,0-6.84-1.08,9.37,9.37,0,0,0-5.07,1.17,3.49,3.49,0,0,0-1.83,3,2.77,2.77,0,0,0,1.68,2.64,24,24,0,0,0,5.22,1.62,50,50,0,0,1,5.76,1.77,9.52,9.52,0,0,1,3.81,2.73,7.41,7.41,0,0,1,1.59,5,7.93,7.93,0,0,1-3,6.36q-3,2.52-8.55,2.52A22.32,22.32,0,0,1,816.57,312.41Z"/><path d="M847.17,327.8a2.71,2.71,0,0,1-.78-1.95V286.31a2.66,2.66,0,0,1,2.7-2.7,2.71,2.71,0,0,1,1.95.78,2.56,2.56,0,0,1,.81,1.92v1.56a13.79,13.79,0,0,1,10.26-4.56,14.07,14.07,0,0,1,7,1.89,14.34,14.34,0,0,1,5.4,5.52,18.45,18.45,0,0,1,0,17,14.34,14.34,0,0,1-5.4,5.52,14.07,14.07,0,0,1-7,1.89,13.79,13.79,0,0,1-10.26-4.56v15.3a2.67,2.67,0,0,1-2.76,2.76A2.56,2.56,0,0,1,847.17,327.8Zm21.3-20.61q2.7-2.82,2.7-8t-2.7-8a9.43,9.43,0,0,0-7.14-2.82,11.33,11.33,0,0,0-5.19,1.23,14.82,14.82,0,0,0-4.29,3.27v12.6a14.82,14.82,0,0,0,4.29,3.27,11.33,11.33,0,0,0,5.19,1.23A9.43,9.43,0,0,0,868.47,307.19Z"/><path d="M884.67,276.77a3,3,0,0,1-.9-2.16v-.24a3.07,3.07,0,0,1,3.06-3.06h.36a3.07,3.07,0,0,1,3.06,3.06v.24a3.07,3.07,0,0,1-3.06,3.06h-.36A3,3,0,0,1,884.67,276.77ZM885,314a2.61,2.61,0,0,1-.78-1.92V286.37a2.71,2.71,0,0,1,.78-1.95,2.56,2.56,0,0,1,1.92-.81,2.67,2.67,0,0,1,2.76,2.76v25.74a2.56,2.56,0,0,1-.81,1.92,2.71,2.71,0,0,1-1.95.78A2.61,2.61,0,0,1,885,314Z"/><path d="M900,314a2.61,2.61,0,0,1-.78-1.92V286.37a2.71,2.71,0,0,1,.78-1.95,2.56,2.56,0,0,1,1.92-.81,2.77,2.77,0,0,1,2.76,2.76v2.46a19.94,19.94,0,0,1,4.92-4,12.42,12.42,0,0,1,6.24-1.5,10.37,10.37,0,0,1,5.73,1.56,10.14,10.14,0,0,1,3.72,4.26,13.6,13.6,0,0,1,1.29,5.94v17a2.56,2.56,0,0,1-.81,1.92,2.71,2.71,0,0,1-2,.78,2.66,2.66,0,0,1-2.7-2.7V295.67q0-7.32-6.6-7.32a9.55,9.55,0,0,0-5.37,1.56,19.44,19.44,0,0,0-4.47,4.2v18a2.56,2.56,0,0,1-.81,1.92,2.71,2.71,0,0,1-2,.78A2.61,2.61,0,0,1,900,314Z"/><path d="M936.12,313.7a3.23,3.23,0,0,1-1-2.37V311a3.38,3.38,0,0,1,3.36-3.36h.6a3.38,3.38,0,0,1,3.36,3.36v.36a3.38,3.38,0,0,1-3.36,3.36h-.6A3.23,3.23,0,0,1,936.12,313.7Z"/><path class="cls-2" d="M904.56,620.57l9.8,52.84,9.84,53.09c3.21,17.34,6.74,34.71,7.95,52.34a172.72,172.72,0,0,1-4,50.22,210.47,210.47,0,0,1-7,24q-2.1,5.9-4.51,11.66c-1.33,3.18-2.56,6.91-5.63,8.86-1,.63-2.07,1-3,.06-1.38-1.35-3.5.77-2.12,2.12,2.42,2.37,5.55,1.43,7.89-.53,2.88-2.42,4.16-5.91,5.57-9.27A227.62,227.62,0,0,0,928,841.5a181.69,181.69,0,0,0,7.57-51c0-18.23-3.21-36.27-6.51-54.13Q924,709,918.91,681.59L908.7,626.5l-1.25-6.73c-.35-1.89-3.24-1.09-2.89.8Z"/><path class="cls-2" d="M950.42,637.52c14.68,4.61,30.14,9.48,42.08,19.61a54.25,54.25,0,0,1,14.21,19c3.5,7.63,5.55,15.86,7.15,24.07a268.11,268.11,0,0,1,4.81,56.54,279.82,279.82,0,0,1-7.14,56.4c-4.12,18.15-9.23,36.47-8.78,55.26q.09,3.54.45,7.06c.19,1.9,3.19,1.92,3,0-2-19.12,2.74-37.93,7-56.41,2.19-9.41,4.2-18.83,5.59-28.39a271.59,271.59,0,0,0-1.21-86.49c-2.89-16.49-7.34-33.66-19.47-45.91C987,647,971.65,641.22,956.85,636.42l-5.63-1.79c-1.85-.58-2.64,2.32-.8,2.89Z"/><path class="cls-2" d="M1058.72,859.54c-22,14.1-45,29.1-57.73,52.7a73.26,73.26,0,0,0-6.74,17.23,61.92,61.92,0,0,0-1.52,9.28,84.3,84.3,0,0,0-.08,9.27c.06,2.69-.06,5.7-2.44,7.42a29.09,29.09,0,0,1-3.83,2,37.3,37.3,0,0,0-3.89,2.32,41.24,41.24,0,0,0-11.75,12.15,40.32,40.32,0,0,0-3.81,7.81c-1,2.88-2,6.07-1.53,9.16.77,5.49,5.86,7.81,10.81,8.4a53.68,53.68,0,0,0,8.6.05l10.94-.45q11.43-.5,22.86-1,22.5-1,45-2.19c3.57-.19,7.17-.25,10.73-.6,3-.31,6-1.15,8-3.65s2.72-5.66,3.64-8.58q1.56-5,3-10a313,313,0,0,0,11.33-85.16q0-5.22-.24-10.42c-.07-1.93-3.07-1.94-3,0a310.35,310.35,0,0,1-7.93,82.85q-2.32,9.92-5.31,19.67c-.89,2.93-1.6,6.22-3.17,8.88s-4.51,3.31-7.48,3.5c-14.5.94-29,1.51-43.55,2.19s-28.83,1.32-43.25,1.91c-4.86.2-11,1.1-15.31-1.7-5-3.2-2-10.64,0-14.84a38.63,38.63,0,0,1,10-13.1,36.76,36.76,0,0,1,6.91-4.6c2.53-1.3,5.21-2.36,6.58-5.06,1.24-2.44,1.24-5.25,1.13-7.92a66.35,66.35,0,0,1,.17-8.92,62.74,62.74,0,0,1,4.41-17.25c9.71-23.93,31.11-39.92,52-53.58,2.66-1.74,5.34-3.46,8-5.18,1.62-1,.12-3.64-1.51-2.59Z"/><path class="cls-2" d="M913.76,881.23a63.13,63.13,0,0,0,34.42,42.91c6,2.77,12.41,4.3,18.23,7.35,1.71.9,3.23-1.69,1.52-2.59-5.09-2.67-10.63-4.19-15.93-6.35a57.75,57.75,0,0,1-12.15-6.81,61,61,0,0,1-17.9-20.8,58.19,58.19,0,0,1-5.3-14.51c-.42-1.88-3.31-1.08-2.89.8Z"/><path class="cls-2" d="M913.43,840l-32.72,22.71c-9.26,6.44-20,12.55-26,22.47-5.43,9-6.3,19.84-5.43,30.1a144.36,144.36,0,0,0,2.45,16.17c1,4.89,2,9.77,3.39,14.56,2.88,10,7.6,20.22,17,25.66l-.68-1.7c-.5,2.11-3.33,2.43-5.09,2.88-2.41.6-5,1.36-6.52,3.52-1.89,2.77-.73,6.59,1.63,8.69,3,2.64,7.22,2.81,11,3.06a180.86,180.86,0,0,0,79.2-12.62c1.77-.71,1-3.62-.79-2.9A178.69,178.69,0,0,1,903.5,984.5a180.79,180.79,0,0,1-24.4,1c-3.86-.12-8-.06-11.76-.87a7.53,7.53,0,0,1-4.49-2.38,3.86,3.86,0,0,1-.74-3.81c1-2.2,4.56-2.48,6.6-3,2.48-.68,5-1.84,5.61-4.57a1.53,1.53,0,0,0-.69-1.69c-8-4.62-12.24-13.09-14.92-21.58-1.4-4.43-2.43-8.95-3.39-13.49-1.08-5.12-2.09-10.27-2.7-15.47-1.16-9.83-1.14-20.4,3.37-29.44,5-10,14.91-15.93,23.78-22.09l35.17-24.42c1.58-1.09.08-3.69-1.51-2.59Z"/><path class="cls-2" d="M1095.55,828.92a283.87,283.87,0,0,0-8-54.7c-.47-1.87-3.36-1.08-2.9.8a279.61,279.61,0,0,1,7.93,53.9c.09,1.92,3.09,1.93,3,0Z"/><path class="cls-2" d="M894,624.89C883,646.29,874.75,669,867.9,692.07c-3.42,11.52-6.52,23.12-9.5,34.75q-2.25,8.73-4.43,17.47c-1.52,6.05-3,12.17-3.37,18.43-.65,11,3.17,23.64,13.85,28.69a1.55,1.55,0,0,0,2-.54A129.16,129.16,0,0,1,905,753.71a132,132,0,0,1,13.37-7.3c1.74-.82.22-3.41-1.52-2.59a131.9,131.9,0,0,0-43.46,33.12,133.73,133.73,0,0,0-9.47,12.41l2.05-.53c-9.08-4.29-12.61-14.75-12.44-24.19.11-6.16,1.51-12.19,3-18.14q2.13-8.55,4.32-17.08c5.77-22.56,11.92-45.08,20-66.94a322.42,322.42,0,0,1,15.78-36.06c.89-1.72-1.7-3.24-2.59-1.52Z"/><path class="cls-2" d="M1054.84,628.7c18.15,6.66,33.7,19.41,45,35,12.62,17.38,19.86,38.14,22.5,59.37a176.29,176.29,0,0,1,.42,38.08l2.79-.76c-7.26-16.74-14.84-34-27.9-47.13s-31.3-20.59-43.11-35.26c-6.09-7.57-10.26-17-9-26.88.24-1.91-2.76-1.89-3,0-1.11,8.75,1.87,17.4,6.67,24.63,5.12,7.71,12.06,13.72,19.47,19.13,7.72,5.63,15.91,10.65,23.1,17a87.53,87.53,0,0,1,17.36,21.55c5.38,9.1,9.63,18.82,13.83,28.51.66,1.51,2.67.53,2.8-.76,2.14-23,.27-46.77-7.53-68.67-6.83-19.19-18.31-36.77-34-49.91a96.41,96.41,0,0,0-28.63-16.74c-1.82-.66-2.6,2.24-.8,2.9Z"/><path class="cls-2" d="M915.76,580.51a370,370,0,0,1-36-72.33q-3.91-10.67-7.17-21.55l-2.75,1.16c6.93,14.64,24.78,18.75,39.22,21.53q7.77,1.5,15.59,2.68c4.26.64,8.75,1.34,13,.15,8.84-2.47,10.82-12.25,10.41-20.25-.56-11.08-5.2-21.38-9.72-31.32L936,462.4c9.24,7.48,18.47,15,27.89,22.22,8.6,6.61,17.66,12.67,28.53,14.64a129.18,129.18,0,0,0,17,1.5,72.41,72.41,0,0,0,17.09-.73c5.54-1.07,10.68-3.51,15.61-6.18,5.22-2.83,10.38-5.76,15.56-8.65l35.78-19.91-2-2.05c-8,15.24-13.19,31.78-21,47.13a194.94,194.94,0,0,1-26.4,39.32,197.5,197.5,0,0,1-18.79,18.93c-1.45,1.28.68,3.39,2.12,2.12a197.87,197.87,0,0,0,44.1-55.85c4-7.45,7.3-15.18,10.51-23,3.77-9.17,7.42-18.39,12-27.17a1.51,1.51,0,0,0-2-2.05l-31,17.26-15.4,8.57c-4.83,2.69-9.66,5.53-14.92,7.31a48.26,48.26,0,0,1-16.47,2.08c-5.56-.09-11.18-.34-16.71-.95a48.22,48.22,0,0,1-15.8-4.32,82.23,82.23,0,0,1-13.11-8.24c-10.38-7.72-20.37-16-30.43-24.13a1.5,1.5,0,0,0-2.35,1.81c3.78,8.31,7.62,16.83,8.94,25.94,1,6.81,1.09,17.6-6.54,20.79-3.65,1.53-7.91,1-11.7.43q-7.33-1.08-14.63-2.45c-7.52-1.41-15.1-2.92-22.22-5.83s-13.76-7.54-17.15-14.7c-.73-1.54-3.22-.45-2.74,1.16a374.1,374.1,0,0,0,31.57,74.72q5.64,10.11,11.91,19.87c1,1.62,3.64.12,2.59-1.51Z"/><path class="cls-2" d="M1073.32,480.48l0,0,.3-.24a.72.72,0,0,1-.21.12l.36-.15a1.17,1.17,0,0,1-.32.09l.4-.05a1.28,1.28,0,0,1-.34,0l.4.06a1.66,1.66,0,0,1-.38-.11l.36.15a1.78,1.78,0,0,1-.3-.17l.31.23a1.36,1.36,0,0,1-.24-.24l.23.31a1.13,1.13,0,0,1-.12-.21l.15.36a1,1,0,0,1-.08-.3l0,.4a1.31,1.31,0,0,1,0-.28l0,.4a1.68,1.68,0,0,1,.09-.32l-.15.36a1.41,1.41,0,0,1,.18-.29l-.24.3a1.88,1.88,0,0,1,.25-.24l-.31.23a1.63,1.63,0,0,1,.34-.19l-.36.15a1.38,1.38,0,0,1,.27-.08l-.4.06a.89.89,0,0,1,.28,0l-.4,0,.12,0-1-1.05c.08.37.15.75.21,1.13l-.06-.4a5.09,5.09,0,0,1,0,1.35l.05-.4a2.94,2.94,0,0,1-.19.72l.15-.36a2.31,2.31,0,0,1-.28.48l.23-.3a2.87,2.87,0,0,1-.39.39l.3-.23a2.87,2.87,0,0,1-.48.28l.36-.15a1.86,1.86,0,0,1-.46.13l.4,0a1.48,1.48,0,0,1-.42,0l.4.06a1.54,1.54,0,0,1-.35-.1l.36.15a1.71,1.71,0,0,1-.23-.13l.53,2.05c.18-.26.36-.52.55-.77l-.24.3a11.14,11.14,0,0,1,2-2l-.3.24.17-.13a1.59,1.59,0,0,0,.69-.9,1.5,1.5,0,0,0-1-1.84,1.41,1.41,0,0,0-1.15.15,13.18,13.18,0,0,0-3.26,3.44,1.54,1.54,0,0,0-.15,1.15,1.72,1.72,0,0,0,.69.9,2.92,2.92,0,0,0,2.41.32,3.93,3.93,0,0,0,2-1.47c1-1.39.71-3.25.38-4.81a1.49,1.49,0,0,0-1-1,2.77,2.77,0,0,0-2.66.85,2.68,2.68,0,0,0-.62,2.67,2.82,2.82,0,0,0,1.9,1.75,3,3,0,0,0,1.37,0,2.78,2.78,0,0,0,1.19-.62,1.5,1.5,0,0,0,0-2.12,1.46,1.46,0,0,0-1.06-.44l-.4,0a1.49,1.49,0,0,0-.66.39Z"/><path class="cls-2" d="M1044.07,436c-26.36-4.49-52.88-8.78-79.65-9.7-26.43-.91-52.9,1.81-78,10.49A344.5,344.5,0,0,0,850,452.32c-11.4,5.48-22.81,11.05-33.62,17.65-19.68,12-41.67,29.95-42.86,54.94a36.33,36.33,0,0,0,13.13,29.67c9.28,7.91,21,11.68,32.76,14.23,3.14.67,6.28,1.28,9.43,1.88,1.89.37,2.69-2.53.8-2.89-12-2.29-24.31-4.62-34.85-11-9.3-5.65-16.64-14.42-18-25.49-3.12-24.63,18.12-43.78,36.73-55.92,10.27-6.7,21.23-12.26,32.24-17.63,11.55-5.64,23.18-11.15,35.2-15.72A192.12,192.12,0,0,1,918,431.91a228.55,228.55,0,0,1,38.41-2.75c26,.19,51.83,3.92,77.44,8.17l9.45,1.6c1.88.32,2.7-2.57.79-2.9Z"/><path class="cls-2" d="M937,528.25l-.14-.16c.27.27.17.23.11.13s-.14-.22-.2-.33l-.08-.16c.2.34.1.27.06.14a3.57,3.57,0,0,1-.12-.4c0-.08-.09-.49-.05-.18s0-.14,0-.22,0-.24,0-.36,0-.09,0-.14c0-.27-.08.41,0,.08a4.46,4.46,0,0,1,.18-.72.78.78,0,0,0,0-.14c.1-.26-.16.35,0,.1s.13-.26.2-.38l.19-.3c.13-.19-.1.13-.1.13l.13-.16.24-.25.11-.09c.28-.25-.24.15,0,0a2.9,2.9,0,0,1,.29-.19c.13-.08.5-.18,0,0l.34-.11.17,0c.35-.09-.32,0,0,0h.45c.31,0-.29-.07-.09,0l.21,0s.32.1.06,0,0,0,.05,0c.26.12-.23-.25,0,0l.06.06c.1.11.08.08-.06-.1a2.18,2.18,0,0,1,.12.22c.11.18-.1-.35,0,0,0,.15.09.3.12.46l0,.09c0,.16,0,.12,0-.13,0,0,0,.14,0,.18a5,5,0,0,1,0,.55v.09c0,.16,0,.12,0-.13a1.35,1.35,0,0,0,0,.18,3.6,3.6,0,0,1-.12.44c0,.13-.18.29,0,0,0,.05-.05.11-.08.16l-.13.23-.08.11c-.06.09,0,.05.1-.13a1.8,1.8,0,0,0-.18.2c-.05,0-.14.11-.19.17.19-.25.2-.15,0,0a2.12,2.12,0,0,0-.21.11c.22-.18.27-.09.1,0l-.27.07s-.32,0,0,0-.07,0-.12,0h-.16c-.41,0,.26.07,0,0l-.16,0-.15,0,.15.06-.14-.06-.13-.08c-.13-.09-.09-.06.11.1,0,0-.08-.08-.11-.11-.28-.27.13.22,0,0a1.5,1.5,0,0,0-2.59,1.51,3.56,3.56,0,0,0,2.39,1.56,4.17,4.17,0,0,0,2.91-.53,5,5,0,0,0,1.88-5.46,3.44,3.44,0,0,0-2.28-2.52,4.16,4.16,0,0,0-2.74.1,5.41,5.41,0,0,0-3.19,3.52,5.23,5.23,0,0,0,1,5.1,1.51,1.51,0,0,0,2.12,0,1.54,1.54,0,0,0,0-2.12Z"/><path class="cls-2" d="M981.34,513.42l-.83-.32c-.2-.08.35.16,0,0l-.17-.07-.45-.23-.36-.21-.15-.11c-.28-.17.25.23,0,0l-.27-.25-.16-.17c-.21-.24.11.17,0,0s-.13-.2-.18-.3-.14-.29,0,0,0,0,0-.05-.06-.23-.08-.34,0,.41,0,.12v-.39c0-.25,0,.18,0,.18s.09-.28.1-.36c-.07.35-.12.25-.05.15s.17-.25,0,0,0,0,0,0l.09-.08c.09-.08,0,0-.16.12.06,0,.42-.22.14-.1s.11,0,.18,0c-.3.13-.33,0-.15,0h.34c-.32,0-.29-.05-.1,0a1.07,1.07,0,0,1,.37.11s-.36-.17-.14-.06l.13.07.17.11c.14.09.08.15-.09-.08a3.44,3.44,0,0,0,.27.27c.21.22-.14-.23,0-.06l.12.19.09.16s.11.3,0,.06.06.17.08.23a3.89,3.89,0,0,1,.12.49.85.85,0,0,0,0,.22s0-.39,0-.13,0,.27,0,.41a6.76,6.76,0,0,1,0,.9,2,2,0,0,0,0,.23c0-.39,0-.18,0,0a4,4,0,0,1-.12.43c-.08.29.14-.25,0-.08a1.58,1.58,0,0,0-.16.27s.25-.28.07-.1l-.08.09c-.09.08,0,0,.16-.12l-.12.08c-.21.14.37-.09.05,0a.64.64,0,0,1-.17,0c.05,0,.43-.06.11,0-.14,0-.15-.1.19,0l-.2,0,.23.09c-.09-.05-.08,0,0,0l0,0c-.1-.11-.06-.06.11.14a1.54,1.54,0,0,0-2.05-.54,1.51,1.51,0,0,0-.54,2,2.69,2.69,0,0,0,2.94,1.1,3.15,3.15,0,0,0,2.17-2.07,6.19,6.19,0,0,0,.34-2.53,6.67,6.67,0,0,0-.64-2.67,4,4,0,0,0-4.54-2.15,3.45,3.45,0,0,0-2.16,4.53,4.93,4.93,0,0,0,1.94,2.45,11,11,0,0,0,2.63,1.22,1.49,1.49,0,0,0,1.84-1,1.52,1.52,0,0,0-1-1.84Z"/><path class="cls-2" d="M1051.8,524.56c-6.77-3.3-14.17.56-19.64,4.65a52.57,52.57,0,0,0-14,15.72,1.5,1.5,0,0,0,2.59,1.52A49.48,49.48,0,0,1,1033,532.31c4.51-3.52,11.42-8,17.28-5.16,1.73.84,3.25-1.74,1.52-2.59Z"/><path class="cls-2" d="M962.88,496.71c-2.19-4,3.12-7.62,5.9-9.49a61,61,0,0,1,12.53-6.47c1.79-.68,1-3.58-.8-2.89a63.78,63.78,0,0,0-14.67,7.75c-2.06,1.47-4.18,3.11-5.38,5.39a7.63,7.63,0,0,0-.17,7.23c.92,1.7,3.51.18,2.59-1.52Z"/><path class="cls-2" d="M911.56,523.36a46.13,46.13,0,0,1,26.51-17.47c1.88-.44,1.09-3.34-.79-2.89A49.21,49.21,0,0,0,909,521.85c-1.15,1.56,1.46,3.06,2.59,1.51Z"/><path class="cls-2" d="M1037.47,539.63c1.64.4,2.38,2.41,2,4-.58,2.11-2.91,3.25-4.91,3.58a12.74,12.74,0,0,1-4.31-.14c-.81-.14-1.61-.32-2.4-.51a10,10,0,0,1-1.08-.26c-.07,0-.56-.26-.56-.26.16-.06.22.09.19.44s-.17.44,0,.19a4.27,4.27,0,0,0,.86-.73l1.86-1.58,3.73-3.15h-2.13c.59.61,1.54,1.59,1.37,2.53-.1.54-.51.81-.9.65l1.1,1.45a5.92,5.92,0,0,1,7.64-5.77l-1.1-1.45a4.21,4.21,0,0,1-1.31,2.76l1.81-.23c-1.26-.66-2.84-1.46-3.43-2.84a1.87,1.87,0,0,1,.55-2.41l-2.2-.89a4.57,4.57,0,0,1,.1,1c0,.17-.13.39-.13.51,0,0,.54.31.6.54a.66.66,0,0,1-.9.72,1.5,1.5,0,1,0,.8-2.89c-2.71-1-4,3.6-1.32,4.5a3,3,0,0,0,3.32-1.21,5.14,5.14,0,0,0,.42-3.94,1.52,1.52,0,0,0-2.2-.9,4.79,4.79,0,0,0-2,5.59c.7,2.33,2.85,3.77,4.89,4.84a1.54,1.54,0,0,0,1.82-.24,7.42,7.42,0,0,0,2.19-4.88,1.53,1.53,0,0,0-1.1-1.44c-5.41-1.95-11.84,2.94-11.44,8.66a1.57,1.57,0,0,0,1.1,1.44c1.91.77,3.94-.73,4.53-2.53.69-2.12-.66-4.2-2.07-5.66a1.54,1.54,0,0,0-2.13,0l-3.83,3.25-1.75,1.47a5.17,5.17,0,0,0-1.57,1.72c-1.52,3.42,4.08,4.15,6.14,4.48a13.41,13.41,0,0,0,8.78-1,7.42,7.42,0,0,0,4.06-6.1,6,6,0,0,0-4.27-6.11c-1.88-.47-2.68,2.43-.8,2.89Z"/><path class="cls-2" d="M1150.54,655.07c-1.48-80.11,25.49-156.64,52.74-230.83,13.49-36.74,26.69-73.48,38.4-110.83,11-34.91,22.74-71.07,46.83-99.42,46.08-54.2,125.07-65.46,191.42-51.53,69.85,14.66,132.44,55.84,179.76,108.48,51,56.81,85.82,126.2,112,197.44q4.8,13.08,9.26,26.28l2.5-1.46c-14.52-15.84-34.43-26.39-53.86-35-24.87-10.95-51-19-77.31-25.62-48.54-12.27-98.91-21-149-23.39-12-.58-26-2.18-37.09,3.34-17.29,8.59-31.12,22.62-43.19,37.4-13,16-25.12,32.85-36.68,49.91-23.38,34.52-44,71.46-56.29,111.48a269.25,269.25,0,0,0-11.3,62.16c-1.47,23.82-.13,47.69,1.37,71.48,1.47,23.35,3.12,46.74,2.5,70.15-.54,20.58-2.08,42.86-13,60.92-19.51,32.27-61.67,31.7-94.07,40.34a119,119,0,0,0-22.79,8.42c-1.73.87-.21,3.46,1.51,2.6,30.71-15.42,68.21-11.26,97.69-29.52,35-21.66,34.54-68.81,33.64-105.13-1.16-46.85-8.43-94-1.68-140.75,6-41.51,22.58-80.64,43.57-116.69,10.56-18.12,22.23-35.57,34.49-52.58,11.83-16.43,23.78-33.2,38.27-47.42a112.77,112.77,0,0,1,23.11-17.86c3.57-2,6.81-4,10.77-4.7,5.47-1,11.22-1,16.76-.92,20,.15,40,2.24,59.76,4.75,26.66,3.38,53.19,8,79.42,13.82,26.92,6,53.66,13.23,79.5,22.9,21.66,8.11,43.74,17.89,61.79,32.62a95.06,95.06,0,0,1,10,9.37,1.51,1.51,0,0,0,2.51-1.46C1759.16,421,1727.07,349.52,1678.88,289,1634,232.62,1574,186.7,1504.48,165.65c-65.26-19.76-143.4-16.9-198.53,27.26-28.18,22.57-44.73,54.73-56.72,88.13-6.35,17.67-11.61,35.7-17.37,53.56-6.27,19.46-13.13,38.74-20.13,57.95-27.52,75.48-58.4,151.81-63.54,232.88q-.93,14.8-.65,29.64c0,1.93,3,1.93,3,0Z"/><path class="cls-2" d="M928.93,388.83A406,406,0,0,1,1071,401.62q17.18,4.69,33.9,10.87c5.57,2.06,11.11,4.22,16.57,6.55,4.88,2.08,9.85,4.46,13.45,8.47s5.37,9.11,6.67,14.17a109.37,109.37,0,0,1,2.74,15.24,122.35,122.35,0,0,1-.53,30.77,124,124,0,0,1-23.3,56.5q-2.26,3-4.73,5.86c-1.25,1.45.86,3.58,2.12,2.12a125.43,125.43,0,0,0,27.46-56.08,126.81,126.81,0,0,0,2.58-31.28,122.21,122.21,0,0,0-1.71-15.73,71.43,71.43,0,0,0-4.18-15.61,27.37,27.37,0,0,0-9.93-12.29c-4.6-3.12-9.93-5.11-15.06-7.19q-17-6.9-34.66-12.21A411,411,0,0,0,1011,387a404.91,404.91,0,0,0-72.94-1.88c-3.05.2-6.11.43-9.16.7-1.91.16-1.93,3.17,0,3Z"/></svg>