<svg id="Layer_1" data-name="Layer 1" xmlns="http://www.w3.org/2000/svg" viewBox="0 0 1920 1080"><defs><style>.cls-1{font-size:60px;font-family:VarelaRound-Regular, Varela Round;}.cls-2{letter-spacing:-0.01em;}.cls-3{letter-spacing:-0.02em;}.cls-4{letter-spacing:0em;}.cls-5{letter-spacing:-0.01em;}.cls-6{letter-spacing:-0.02em;}.cls-7{letter-spacing:0em;}.cls-8{letter-spacing:-0.01em;}.cls-9{fill:#4d4d4d;}</style></defs><title>42-teeth</title><text class="cls-1" transform="translate(229.3 242.51)"><tspan class="cls-2">T</tspan><tspan x="36.18" y="0">he</tspan><tspan class="cls-3" x="106.68" y="0">r</tspan><tspan class="cls-4" x="128.76" y="0">e it </tspan><tspan class="cls-2" x="231.78" y="0">w</tspan><tspan x="278.94" y="0">as again.</tspan><tspan class="cls-5" x="0" y="72">I</tspan><tspan x="16.44" y="72">t</tspan><tspan class="cls-6" x="39.36" y="72">’</tspan><tspan class="cls-7" x="52.68" y="72">s making </tspan><tspan class="cls-8" x="323.52" y="72">m</tspan><tspan class="cls-4" x="378.06" y="72">y head spin. </tspan></text><path class="cls-9" d="M904.56,620.57l9.8,52.84,9.84,53.09c3.21,17.34,6.74,34.71,7.95,52.34a172.72,172.72,0,0,1-4,50.22,210.47,210.47,0,0,1-7,24q-2.1,5.9-4.51,11.66c-1.33,3.18-2.56,6.91-5.63,8.86-1,.63-2.07,1-3,.06-1.38-1.35-3.5.77-2.12,2.12,2.42,2.37,5.55,1.43,7.89-.53,2.88-2.42,4.16-5.91,5.57-9.27A227.62,227.62,0,0,0,928,841.5a181.69,181.69,0,0,0,7.57-51c0-18.23-3.21-36.27-6.51-54.13Q924,709,918.91,681.59L908.7,626.5l-1.25-6.73c-.35-1.89-3.24-1.09-2.89.8Z"/><path class="cls-9" d="M950.42,637.52c14.68,4.61,30.14,9.48,42.08,19.61a54.25,54.25,0,0,1,14.21,19c3.5,7.63,5.55,15.86,7.15,24.07a268.11,268.11,0,0,1,4.81,56.54,279.82,279.82,0,0,1-7.14,56.4c-4.12,18.15-9.23,36.47-8.78,55.26q.09,3.54.45,7.06c.19,1.9,3.19,1.92,3,0-2-19.12,2.74-37.93,7-56.41,2.19-9.41,4.2-18.83,5.59-28.39a271.59,271.59,0,0,0-1.21-86.49c-2.89-16.49-7.34-33.66-19.47-45.91C987,647,971.65,641.22,956.85,636.42l-5.63-1.79c-1.85-.58-2.64,2.32-.8,2.89Z"/><path class="cls-9" d="M1058.72,859.54c-22,14.1-45,29.1-57.73,52.7a73.26,73.26,0,0,0-6.74,17.23,61.92,61.92,0,0,0-1.52,9.28,84.3,84.3,0,0,0-.08,9.27c.06,2.69-.06,5.7-2.44,7.42a29.09,29.09,0,0,1-3.83,2,37.3,37.3,0,0,0-3.89,2.32,41.24,41.24,0,0,0-11.75,12.15,40.32,40.32,0,0,0-3.81,7.81c-1,2.88-2,6.07-1.53,9.16.77,5.49,5.86,7.81,10.81,8.4a53.68,53.68,0,0,0,8.6.05l10.94-.45q11.43-.5,22.86-1,22.5-1,45-2.19c3.57-.19,7.17-.25,10.73-.6,3-.31,6-1.15,8-3.65s2.72-5.66,3.64-8.58q1.56-5,3-10a313,313,0,0,0,11.33-85.16q0-5.22-.24-10.42c-.07-1.93-3.07-1.94-3,0a310.35,310.35,0,0,1-7.93,82.85q-2.32,9.92-5.31,19.67c-.89,2.93-1.6,6.22-3.17,8.88s-4.51,3.31-7.48,3.5c-14.5.94-29,1.51-43.55,2.19s-28.83,1.32-43.25,1.91c-4.86.2-11,1.1-15.31-1.7-5-3.2-2-10.64,0-14.84a38.63,38.63,0,0,1,10-13.1,36.76,36.76,0,0,1,6.91-4.6c2.53-1.3,5.21-2.36,6.58-5.06,1.24-2.44,1.24-5.25,1.13-7.92a66.35,66.35,0,0,1,.17-8.92,62.74,62.74,0,0,1,4.41-17.25c9.71-23.93,31.11-39.92,52-53.58,2.66-1.74,5.34-3.46,8-5.18,1.62-1,.12-3.64-1.51-2.59Z"/><path class="cls-9" d="M913.76,881.23a63.13,63.13,0,0,0,34.42,42.91c6,2.77,12.41,4.3,18.23,7.35,1.71.9,3.23-1.69,1.52-2.59-5.09-2.67-10.63-4.19-15.93-6.35a57.75,57.75,0,0,1-12.15-6.81,61,61,0,0,1-17.9-20.8,58.19,58.19,0,0,1-5.3-14.51c-.42-1.88-3.31-1.08-2.89.8Z"/><path class="cls-9" d="M913.43,840l-32.72,22.71c-9.26,6.44-20,12.55-26,22.47-5.43,9-6.3,19.84-5.43,30.1a144.36,144.36,0,0,0,2.45,16.17c1,4.89,2,9.77,3.39,14.56,2.88,10,7.6,20.22,17,25.66l-.68-1.7c-.5,2.11-3.33,2.43-5.09,2.88-2.41.6-5,1.36-6.52,3.52-1.89,2.77-.73,6.59,1.63,8.69,3,2.64,7.22,2.81,11,3.06a180.86,180.86,0,0,0,79.2-12.62c1.77-.71,1-3.62-.79-2.9A178.69,178.69,0,0,1,903.5,984.5a180.79,180.79,0,0,1-24.4,1c-3.86-.12-8-.06-11.76-.87a7.53,7.53,0,0,1-4.49-2.38,3.86,3.86,0,0,1-.74-3.81c1-2.2,4.56-2.48,6.6-3,2.48-.68,5-1.84,5.61-4.57a1.53,1.53,0,0,0-.69-1.69c-8-4.62-12.24-13.09-14.92-21.58-1.4-4.43-2.43-8.95-3.39-13.49-1.08-5.12-2.09-10.27-2.7-15.47-1.16-9.83-1.14-20.4,3.37-29.44,5-10,14.91-15.93,23.78-22.09l35.17-24.42c1.58-1.09.08-3.69-1.51-2.59Z"/><path class="cls-9" d="M1095.55,828.92a283.87,283.87,0,0,0-8-54.7c-.47-1.87-3.36-1.08-2.9.8a279.61,279.61,0,0,1,7.93,53.9c.09,1.92,3.09,1.93,3,0Z"/><path class="cls-9" d="M894,624.89C883,646.29,874.75,669,867.9,692.07c-3.42,11.52-6.52,23.12-9.5,34.75q-2.25,8.73-4.43,17.47c-1.52,6.05-3,12.17-3.37,18.43-.65,11,3.17,23.64,13.85,28.69a1.55,1.55,0,0,0,2-.54A129.16,129.16,0,0,1,905,753.71a132,132,0,0,1,13.37-7.3c1.74-.82.22-3.41-1.52-2.59a131.9,131.9,0,0,0-43.46,33.12,133.73,133.73,0,0,0-9.47,12.41l2.05-.53c-9.08-4.29-12.61-14.75-12.44-24.19.11-6.16,1.51-12.19,3-18.14q2.13-8.55,4.32-17.08c5.77-22.56,11.92-45.08,20-66.94a322.42,322.42,0,0,1,15.78-36.06c.89-1.72-1.7-3.24-2.59-1.52Z"/><path class="cls-9" d="M1054.84,628.7c18.15,6.66,33.7,19.41,45,35,12.62,17.38,19.86,38.14,22.5,59.37a176.29,176.29,0,0,1,.42,38.08l2.79-.76c-7.26-16.74-14.84-34-27.9-47.13s-31.3-20.59-43.11-35.26c-6.09-7.57-10.26-17-9-26.88.24-1.91-2.76-1.89-3,0-1.11,8.75,1.87,17.4,6.67,24.63,5.12,7.71,12.06,13.72,19.47,19.13,7.72,5.63,15.91,10.65,23.1,17a87.53,87.53,0,0,1,17.36,21.55c5.38,9.1,9.63,18.82,13.83,28.51.66,1.51,2.67.53,2.8-.76,2.14-23,.27-46.77-7.53-68.67-6.83-19.19-18.31-36.77-34-49.91a96.41,96.41,0,0,0-28.63-16.74c-1.82-.66-2.6,2.24-.8,2.9Z"/><path class="cls-9" d="M915.76,580.51a370,370,0,0,1-36-72.33q-3.91-10.67-7.17-21.55l-2.75,1.16c6.93,14.64,24.78,18.75,39.22,21.53q7.77,1.5,15.59,2.68c4.26.64,8.75,1.34,13,.15,8.84-2.47,10.82-12.25,10.41-20.25-.56-11.08-5.2-21.38-9.72-31.32L936,462.4c9.24,7.48,18.47,15,27.89,22.22,8.6,6.61,17.66,12.67,28.53,14.64a129.18,129.18,0,0,0,17,1.5,72.41,72.41,0,0,0,17.09-.73c5.54-1.07,10.68-3.51,15.61-6.18,5.22-2.83,10.38-5.76,15.56-8.65l35.78-19.91-2-2.05c-8,15.24-13.19,31.78-21,47.13a194.94,194.94,0,0,1-26.4,39.32,197.5,197.5,0,0,1-18.79,18.93c-1.45,1.28.68,3.39,2.12,2.12a197.87,197.87,0,0,0,44.1-55.85c4-7.45,7.3-15.18,10.51-23,3.77-9.17,7.42-18.39,12-27.17a1.51,1.51,0,0,0-2-2.05l-31,17.26-15.4,8.57c-4.83,2.69-9.66,5.53-14.92,7.31a48.26,48.26,0,0,1-16.47,2.08c-5.56-.09-11.18-.34-16.71-.95a48.22,48.22,0,0,1-15.8-4.32,82.23,82.23,0,0,1-13.11-8.24c-10.38-7.72-20.37-16-30.43-24.13a1.5,1.5,0,0,0-2.35,1.81c3.78,8.31,7.62,16.83,8.94,25.94,1,6.81,1.09,17.6-6.54,20.79-3.65,1.53-7.91,1-11.7.43q-7.33-1.08-14.63-2.45c-7.52-1.41-15.1-2.92-22.22-5.83s-13.76-7.54-17.15-14.7c-.73-1.54-3.22-.45-2.74,1.16a374.1,374.1,0,0,0,31.57,74.72q5.64,10.11,11.91,19.87c1,1.62,3.64.12,2.59-1.51Z"/><path class="cls-9" d="M1073.32,480.48l0,0,.3-.24a.72.72,0,0,1-.21.12l.36-.15a1.17,1.17,0,0,1-.32.09l.4-.05a1.28,1.28,0,0,1-.34,0l.4.06a1.66,1.66,0,0,1-.38-.11l.36.15a1.78,1.78,0,0,1-.3-.17l.31.23a1.36,1.36,0,0,1-.24-.24l.23.31a1.13,1.13,0,0,1-.12-.21l.15.36a1,1,0,0,1-.08-.3l0,.4a1.31,1.31,0,0,1,0-.28l0,.4a1.68,1.68,0,0,1,.09-.32l-.15.36a1.41,1.41,0,0,1,.18-.29l-.24.3a1.88,1.88,0,0,1,.25-.24l-.31.23a1.63,1.63,0,0,1,.34-.19l-.36.15a1.38,1.38,0,0,1,.27-.08l-.4.06a.89.89,0,0,1,.28,0l-.4,0,.12,0-1-1.05c.08.37.15.75.21,1.13l-.06-.4a5.09,5.09,0,0,1,0,1.35l.05-.4a2.94,2.94,0,0,1-.19.72l.15-.36a2.31,2.31,0,0,1-.28.48l.23-.3a2.87,2.87,0,0,1-.39.39l.3-.23a2.87,2.87,0,0,1-.48.28l.36-.15a1.86,1.86,0,0,1-.46.13l.4,0a1.48,1.48,0,0,1-.42,0l.4.06a1.54,1.54,0,0,1-.35-.1l.36.15a1.71,1.71,0,0,1-.23-.13l.53,2.05c.18-.26.36-.52.55-.77l-.24.3a11.14,11.14,0,0,1,2-2l-.3.24.17-.13a1.59,1.59,0,0,0,.69-.9,1.5,1.5,0,0,0-1-1.84,1.41,1.41,0,0,0-1.15.15,13.18,13.18,0,0,0-3.26,3.44,1.54,1.54,0,0,0-.15,1.15,1.72,1.72,0,0,0,.69.9,2.92,2.92,0,0,0,2.41.32,3.93,3.93,0,0,0,2-1.47c1-1.39.71-3.25.38-4.81a1.49,1.49,0,0,0-1-1,2.77,2.77,0,0,0-2.66.85,2.68,2.68,0,0,0-.62,2.67,2.82,2.82,0,0,0,1.9,1.75,3,3,0,0,0,1.37,0,2.78,2.78,0,0,0,1.19-.62,1.5,1.5,0,0,0,0-2.12,1.46,1.46,0,0,0-1.06-.44l-.4,0a1.49,1.49,0,0,0-.66.39Z"/><path class="cls-9" d="M1044.07,436c-26.36-4.49-52.88-8.78-79.65-9.7-26.43-.91-52.9,1.81-78,10.49A344.5,344.5,0,0,0,850,452.32c-11.4,5.48-22.81,11.05-33.62,17.65-19.68,12-41.67,29.95-42.86,54.94a36.33,36.33,0,0,0,13.13,29.67c9.28,7.91,21,11.68,32.76,14.23,3.14.67,6.28,1.28,9.43,1.88,1.89.37,2.69-2.53.8-2.89-12-2.29-24.31-4.62-34.85-11-9.3-5.65-16.64-14.42-18-25.49-3.12-24.63,18.12-43.78,36.73-55.92,10.27-6.7,21.23-12.26,32.24-17.63,11.55-5.64,23.18-11.15,35.2-15.72A192.12,192.12,0,0,1,918,431.91a228.55,228.55,0,0,1,38.41-2.75c26,.19,51.83,3.92,77.44,8.17l9.45,1.6c1.88.32,2.7-2.57.79-2.9Z"/><path class="cls-9" d="M937,528.25l-.14-.16c.27.27.17.23.11.13s-.14-.22-.2-.33l-.08-.16c.2.34.1.27.06.14a3.57,3.57,0,0,1-.12-.4c0-.08-.09-.49-.05-.18s0-.14,0-.22,0-.24,0-.36,0-.09,0-.14c0-.27-.08.41,0,.08a4.46,4.46,0,0,1,.18-.72.78.78,0,0,0,0-.14c.1-.26-.16.35,0,.1s.13-.26.2-.38l.19-.3c.13-.19-.1.13-.1.13l.13-.16.24-.25.11-.09c.28-.25-.24.15,0,0a2.9,2.9,0,0,1,.29-.19c.13-.08.5-.18,0,0l.34-.11.17,0c.35-.09-.32,0,0,0h.45c.31,0-.29-.07-.09,0l.21,0s.32.1.06,0,0,0,.05,0c.26.12-.23-.25,0,0l.06.06c.1.11.08.08-.06-.1a2.18,2.18,0,0,1,.12.22c.11.18-.1-.35,0,0,0,.15.09.3.12.46l0,.09c0,.16,0,.12,0-.13,0,0,0,.14,0,.18a5,5,0,0,1,0,.55v.09c0,.16,0,.12,0-.13a1.35,1.35,0,0,0,0,.18,3.6,3.6,0,0,1-.12.44c0,.13-.18.29,0,0,0,.05-.05.11-.08.16l-.13.23-.08.11c-.06.09,0,.05.1-.13a1.8,1.8,0,0,0-.18.2c-.05,0-.14.11-.19.17.19-.25.2-.15,0,0a2.12,2.12,0,0,0-.21.11c.22-.18.27-.09.1,0l-.27.07s-.32,0,0,0-.07,0-.12,0h-.16c-.41,0,.26.07,0,0l-.16,0-.15,0,.15.06-.14-.06-.13-.08c-.13-.09-.09-.06.11.1,0,0-.08-.08-.11-.11-.28-.27.13.22,0,0a1.5,1.5,0,0,0-2.59,1.51,3.56,3.56,0,0,0,2.39,1.56,4.17,4.17,0,0,0,2.91-.53,5,5,0,0,0,1.88-5.46,3.44,3.44,0,0,0-2.28-2.52,4.16,4.16,0,0,0-2.74.1,5.41,5.41,0,0,0-3.19,3.52,5.23,5.23,0,0,0,1,5.1,1.51,1.51,0,0,0,2.12,0,1.54,1.54,0,0,0,0-2.12Z"/><path class="cls-9" d="M981.34,513.42l-.83-.32c-.2-.08.35.16,0,0l-.17-.07-.45-.23-.36-.21-.15-.11c-.28-.17.25.23,0,0l-.27-.25-.16-.17c-.21-.24.11.17,0,0s-.13-.2-.18-.3-.14-.29,0,0,0,0,0-.05-.06-.23-.08-.34,0,.41,0,.12v-.39c0-.25,0,.18,0,.18s.09-.28.1-.36c-.07.35-.12.25-.05.15s.17-.25,0,0,0,0,0,0l.09-.08c.09-.08,0,0-.16.12.06,0,.42-.22.14-.1s.11,0,.18,0c-.3.13-.33,0-.15,0h.34c-.32,0-.29-.05-.1,0a1.07,1.07,0,0,1,.37.11s-.36-.17-.14-.06l.13.07.17.11c.14.09.08.15-.09-.08a3.44,3.44,0,0,0,.27.27c.21.22-.14-.23,0-.06l.12.19.09.16s.11.3,0,.06.06.17.08.23a3.89,3.89,0,0,1,.12.49.85.85,0,0,0,0,.22s0-.39,0-.13,0,.27,0,.41a6.76,6.76,0,0,1,0,.9,2,2,0,0,0,0,.23c0-.39,0-.18,0,0a4,4,0,0,1-.12.43c-.08.29.14-.25,0-.08a1.58,1.58,0,0,0-.16.27s.25-.28.07-.1l-.08.09c-.09.08,0,0,.16-.12l-.12.08c-.21.14.37-.09.05,0a.64.64,0,0,1-.17,0c.05,0,.43-.06.11,0-.14,0-.15-.1.19,0l-.2,0,.23.09c-.09-.05-.08,0,0,0l0,0c-.1-.11-.06-.06.11.14a1.54,1.54,0,0,0-2.05-.54,1.51,1.51,0,0,0-.54,2,2.69,2.69,0,0,0,2.94,1.1,3.15,3.15,0,0,0,2.17-2.07,6.19,6.19,0,0,0,.34-2.53,6.67,6.67,0,0,0-.64-2.67,4,4,0,0,0-4.54-2.15,3.45,3.45,0,0,0-2.16,4.53,4.93,4.93,0,0,0,1.94,2.45,11,11,0,0,0,2.63,1.22,1.49,1.49,0,0,0,1.84-1,1.52,1.52,0,0,0-1-1.84Z"/><path class="cls-9" d="M1051.8,524.56c-6.77-3.3-14.17.56-19.64,4.65a52.57,52.57,0,0,0-14,15.72,1.5,1.5,0,0,0,2.59,1.52A49.48,49.48,0,0,1,1033,532.31c4.51-3.52,11.42-8,17.28-5.16,1.73.84,3.25-1.74,1.52-2.59Z"/><path class="cls-9" d="M962.88,496.71c-2.19-4,3.12-7.62,5.9-9.49a61,61,0,0,1,12.53-6.47c1.79-.68,1-3.58-.8-2.89a63.78,63.78,0,0,0-14.67,7.75c-2.06,1.47-4.18,3.11-5.38,5.39a7.63,7.63,0,0,0-.17,7.23c.92,1.7,3.51.18,2.59-1.52Z"/><path class="cls-9" d="M911.56,523.36a46.13,46.13,0,0,1,26.51-17.47c1.88-.44,1.09-3.34-.79-2.89A49.21,49.21,0,0,0,909,521.85c-1.15,1.56,1.46,3.06,2.59,1.51Z"/><path class="cls-9" d="M1037.47,539.63c1.64.4,2.38,2.41,2,4-.58,2.11-2.91,3.25-4.91,3.58a12.74,12.74,0,0,1-4.31-.14c-.81-.14-1.61-.32-2.4-.51a10,10,0,0,1-1.08-.26c-.07,0-.56-.26-.56-.26.16-.06.22.09.19.44s-.17.44,0,.19a4.27,4.27,0,0,0,.86-.73l1.86-1.58,3.73-3.15h-2.13c.59.61,1.54,1.59,1.37,2.53-.1.54-.51.81-.9.65l1.1,1.45a5.92,5.92,0,0,1,7.64-5.77l-1.1-1.45a4.21,4.21,0,0,1-1.31,2.76l1.81-.23c-1.26-.66-2.84-1.46-3.43-2.84a1.87,1.87,0,0,1,.55-2.41l-2.2-.89a4.57,4.57,0,0,1,.1,1c0,.17-.13.39-.13.51,0,0,.54.31.6.54a.66.66,0,0,1-.9.72,1.5,1.5,0,1,0,.8-2.89c-2.71-1-4,3.6-1.32,4.5a3,3,0,0,0,3.32-1.21,5.14,5.14,0,0,0,.42-3.94,1.52,1.52,0,0,0-2.2-.9,4.79,4.79,0,0,0-2,5.59c.7,2.33,2.85,3.77,4.89,4.84a1.54,1.54,0,0,0,1.82-.24,7.42,7.42,0,0,0,2.19-4.88,1.53,1.53,0,0,0-1.1-1.44c-5.41-1.95-11.84,2.94-11.44,8.66a1.57,1.57,0,0,0,1.1,1.44c1.91.77,3.94-.73,4.53-2.53.69-2.12-.66-4.2-2.07-5.66a1.54,1.54,0,0,0-2.13,0l-3.83,3.25-1.75,1.47a5.17,5.17,0,0,0-1.57,1.72c-1.52,3.42,4.08,4.15,6.14,4.48a13.41,13.41,0,0,0,8.78-1,7.42,7.42,0,0,0,4.06-6.1,6,6,0,0,0-4.27-6.11c-1.88-.47-2.68,2.43-.8,2.89Z"/><path class="cls-9" d="M1150.54,655.07c-1.48-80.11,25.49-156.64,52.74-230.83,13.49-36.74,26.69-73.48,38.4-110.83,11-34.91,22.74-71.07,46.83-99.42,46.08-54.2,125.07-65.46,191.42-51.53,69.85,14.66,132.44,55.84,179.76,108.48,51,56.81,85.82,126.2,112,197.44q4.8,13.08,9.26,26.28l2.5-1.46c-40.74-44.52-97.94-68.55-156.12-80.43-29.65-6-59.86-9.21-90.07-10.53-16.9-.73-34.09-.78-50.66,3.08A97.73,97.73,0,0,0,1445,426.91c-11.83,10.16-21.71,22.36-31.11,34.74-10.31,13.57-20.29,27.4-29.77,41.57-18.57,27.75-35.2,57-47.17,88.22a285.83,285.83,0,0,0-18.8,101.39c-.24,38.1,4.82,76,4.62,114.12-.17,31.46-2.32,69.5-31.86,88.09-23.66,14.89-53.41,14.8-79.58,22.56a113,113,0,0,0-18.55,7.23c-1.73.87-.21,3.46,1.51,2.6,25.14-12.62,54.09-12.47,80.38-21.52,12-4.13,23.32-10.44,31.66-20.17,9.81-11.43,14.58-26.13,16.9-40.8,5.59-35.35,1.58-71.93-.55-107.41-2.21-36.72-2.83-73.5,5.92-109.49,8-32.74,22-63.66,38.91-92.7a655.85,655.85,0,0,1,56.85-82.27c10.08-12.43,21.23-24.36,34.8-33,14.66-9.38,31.44-13.57,48.68-14.73,16.23-1.1,32.61-.1,48.82,1.06,15.45,1.11,30.87,2.75,46.19,5.09,58.66,9,118.14,28.31,163.06,68.55,5.41,4.84,10.55,10,15.45,15.32a1.51,1.51,0,0,0,2.51-1.46C1759.16,421,1727.07,349.52,1678.88,289,1634,232.62,1574,186.7,1504.48,165.65c-65.26-19.76-143.4-16.9-198.53,27.26-28.18,22.57-44.73,54.73-56.72,88.13-6.35,17.67-11.61,35.7-17.37,53.56-6.27,19.46-13.13,38.74-20.13,57.95-27.52,75.48-58.4,151.81-63.54,232.88q-.93,14.8-.65,29.64c0,1.93,3,1.93,3,0Z"/><path class="cls-9" d="M928.93,388.83A406,406,0,0,1,1071,401.62q17.18,4.69,33.9,10.87c5.57,2.06,11.11,4.22,16.57,6.55,4.88,2.08,9.85,4.46,13.45,8.47s5.37,9.11,6.67,14.17a109.37,109.37,0,0,1,2.74,15.24,122.35,122.35,0,0,1-.53,30.77,124,124,0,0,1-23.3,56.5q-2.26,3-4.73,5.86c-1.25,1.45.86,3.58,2.12,2.12a125.43,125.43,0,0,0,27.46-56.08,126.81,126.81,0,0,0,2.58-31.28,122.21,122.21,0,0,0-1.71-15.73,71.43,71.43,0,0,0-4.18-15.61,27.37,27.37,0,0,0-9.93-12.29c-4.6-3.12-9.93-5.11-15.06-7.19q-17-6.9-34.66-12.21A411,411,0,0,0,1011,387a404.91,404.91,0,0,0-72.94-1.88c-3.05.2-6.11.43-9.16.7-1.91.16-1.93,3.17,0,3Z"/></svg>