<svg id="Layer_1" data-name="Layer 1" xmlns="http://www.w3.org/2000/svg" viewBox="0 0 1920 1080"><defs><style>.cls-1{opacity:0.3;}</style></defs><path class="cls-1" d="M1127.16,99.49C844.92,62.64,682.48-27.12,507.83,122.77S293.55,450.21,293.55,450.21,43.34,704.88,437.23,830s495.46,199.37,670.12,131S1516.1,565.18,1516.1,565.18s45.83-240.13-95.37-295.43-190.76-21.83-240.3-65.48S1216.35,111.13,1127.16,99.49Z"/><path d="M701.46,328.35,673.12,780.57l-140.47,6.16,1.23-238.43L470.42,740.53H416.21l-48.68-171.9-.61,199.62L224.6,772.56l6.16-425.73,158.34-6.16L451.94,544.6l83.79-216.25Z"/><path d="M1100.7,560a223.5,223.5,0,0,1-6.46,54.07,212,212,0,0,1-18.64,48.83A202.13,202.13,0,0,1,1046,704.64a188.23,188.23,0,0,1-39.12,32.5,189.89,189.89,0,0,1-101.5,28.65,193.29,193.29,0,0,1-52.83-7.09,200.17,200.17,0,0,1-47-19.87A188.81,188.81,0,0,1,766,708a191.9,191.9,0,0,1-30.19-40,206.48,206.48,0,0,1-19.4-47.29A197.77,197.77,0,0,1,709.47,568a215.29,215.29,0,0,1,25.11-101A209.34,209.34,0,0,1,764,425.08a194.14,194.14,0,0,1,38.66-33A185.77,185.77,0,0,1,849,370.55a177.82,177.82,0,0,1,52.68-7.7q44.67,0,81.48,13.86T1046,416.3q26,25.72,40.36,62.22T1100.7,560Zm-136.77,8a87,87,0,0,0-3.85-25.72,70.62,70.62,0,0,0-11.25-22.18A57.71,57.71,0,0,0,930.5,504.4a51.34,51.34,0,0,0-25.1-6,61.33,61.33,0,0,0-25.88,5.24A59.27,59.27,0,0,0,860,518a63,63,0,0,0-12.48,21.25,76.35,76.35,0,0,0-4.31,25.72,93.62,93.62,0,0,0,3.7,25.88A76.65,76.65,0,0,0,858,614.22a58.88,58.88,0,0,0,18.33,16.95q10.92,6.47,25.41,6.46a58,58,0,0,0,26-5.69,58.76,58.76,0,0,0,19.56-15.41,70.62,70.62,0,0,0,12.33-22.33A80.62,80.62,0,0,0,963.93,568Z"/><path d="M1503,560a223.5,223.5,0,0,1-6.46,54.07,212,212,0,0,1-18.64,48.83,202.13,202.13,0,0,1-29.58,41.74,188.23,188.23,0,0,1-39.12,32.5,189.89,189.89,0,0,1-101.5,28.65,193.29,193.29,0,0,1-52.83-7.09,200.17,200.17,0,0,1-47-19.87,188.81,188.81,0,0,1-39.59-30.8,191.9,191.9,0,0,1-30.19-40,206.48,206.48,0,0,1-19.4-47.29,197.77,197.77,0,0,1-6.94-52.68,215.29,215.29,0,0,1,25.11-101,209.34,209.34,0,0,1,29.42-41.89,194.42,194.42,0,0,1,38.66-33,185.77,185.77,0,0,1,46.36-21.56,177.82,177.82,0,0,1,52.68-7.7q44.67,0,81.48,13.86t62.84,39.59q26,25.72,40.36,62.22T1503,560Zm-136.77,8a87,87,0,0,0-3.85-25.72,70.62,70.62,0,0,0-11.25-22.18,57.71,57.71,0,0,0-18.33-15.71,51.34,51.34,0,0,0-25.1-6,61.33,61.33,0,0,0-25.88,5.24A59.27,59.27,0,0,0,1262.28,518a63,63,0,0,0-12.48,21.25,76.35,76.35,0,0,0-4.31,25.72,93.62,93.62,0,0,0,3.7,25.88,76.65,76.65,0,0,0,11.09,23.41,58.88,58.88,0,0,0,18.33,16.95q10.92,6.47,25.41,6.46a58,58,0,0,0,26-5.69,58.76,58.76,0,0,0,19.56-15.41,70.62,70.62,0,0,0,12.33-22.33A80.62,80.62,0,0,0,1366.25,568Z"/><path d="M1675.54,319.72,1650.28,643.8h-114l-11.7-324.08Zm-20.34,419a61.13,61.13,0,0,1-5.23,25.26,68.09,68.09,0,0,1-14,20.48,65.49,65.49,0,0,1-20.49,13.87,62.09,62.09,0,0,1-25,5.08,62.84,62.84,0,0,1-25.26-5.08,65.45,65.45,0,0,1-34.35-34.35,62.84,62.84,0,0,1-5.08-25.26,65.56,65.56,0,0,1,19-46.06,67.76,67.76,0,0,1,20.48-14,61.14,61.14,0,0,1,25.26-5.24,60.41,60.41,0,0,1,25,5.24A66.41,66.41,0,0,1,1650,713.42,62.56,62.56,0,0,1,1655.2,738.68Z"/></svg>