<svg id="Layer_1" data-name="Layer 1" xmlns="http://www.w3.org/2000/svg" viewBox="0 0 1920 1080"><defs><style>.cls-1{font-size:60px;font-family:VarelaRound-Regular, Varela Round;}.cls-2{letter-spacing:-0.01em;}.cls-3{letter-spacing:-0.01em;}.cls-4{letter-spacing:0em;}.cls-5{letter-spacing:0em;}.cls-6{letter-spacing:-0.01em;}.cls-7{letter-spacing:-0.04em;}.cls-8{letter-spacing:-0.01em;}.cls-9{letter-spacing:-0.01em;}.cls-10{letter-spacing:-0.03em;}.cls-11{letter-spacing:-0.01em;}.cls-12{fill:#4d4d4d;}</style></defs><title>42-teeth</title><text class="cls-1" transform="translate(180.3 161.51)"><tspan class="cls-2">I</tspan><tspan x="16.44" y="0">t sounds li</tspan><tspan class="cls-3" x="305.46" y="0">k</tspan><tspan class="cls-4" x="337.62" y="0">e a </tspan><tspan class="cls-5" x="436.5" y="0">c</tspan><tspan class="cls-6" x="468.23" y="0">o</tspan><tspan class="cls-7" x="504.29" y="0">w</tspan><tspan x="549.41" y="0">. </tspan></text><text class="cls-1" transform="translate(1127.3 192.51)"><tspan class="cls-8">I</tspan><tspan x="16.26" y="0">gno</tspan><tspan class="cls-9" x="127.14" y="0">r</tspan><tspan x="149.22" y="0">e it </tspan><tspan class="cls-10" x="252.24" y="0">f</tspan><tspan x="273.42" y="0">or n</tspan><tspan class="cls-11" x="385.01" y="0">o</tspan><tspan class="cls-7" x="421.07" y="0">w</tspan><tspan x="466.19" y="0">.</tspan></text><path class="cls-12" d="M1474.75,433.86c-.37-.2.16.15,0,0l-.44-.38c-.48-.43-.93-.87-1.38-1.31-1.53-1.49-3-3-4.56-4.5q-7.73-7.65-15.66-15.1-11.13-10.39-22.81-20.18c-9.1-7.59-18.46-14.87-28.15-21.69a292.7,292.7,0,0,0-31.57-19.53,179.68,179.68,0,0,0-33.09-13.79,104.37,104.37,0,0,0-33.1-4.63,74.94,74.94,0,0,0-16,2.28c-7.74,2-15.24,5.18-22.6,8.26a253.81,253.81,0,0,0-42.46,22.39,175,175,0,0,0-26.68,21.48,118.06,118.06,0,0,0-14.13,16.72c-1.17,1.69-2.28,3.42-3.31,5.2-.71,1.23-2.16,3.14-.62,4.33s4.24-.09,5.76-.59c3.74-1.23,7.42-2.67,11.1-4,11.9-4.44,23.89-8.64,36.14-12,14.87-4.1,30.16-7.15,45.61-7.66,13.35-.45,26.3,1.73,39.24,4.78,13.25,3.12,26.31,7,39.26,11.16,13.27,4.27,26.44,8.89,39.52,13.72q16.58,6.11,33,12.66c6.57,2.63,13.14,5.29,19.67,8l1.13.47c.09,0,.57.25.31.13s.13.06.22.1l.7.29c1.75.75,3.28-1.83,1.51-2.59-3.52-1.5-7-3-10.59-4.41q-13.24-5.41-26.58-10.57-18.18-7-36.58-13.48c-13.13-4.6-26.34-9-39.7-12.82a330.81,330.81,0,0,0-36.6-8.78c-14.6-2.48-29.26-2.05-43.87.18a264.21,264.21,0,0,0-42.8,10.68c-9.84,3.24-19.47,7-29.23,10.5-1.33.47-2.67.94-4,1.33-.45.12-.9.23-1.36.33s.22-.06-.17,0h-.4c.12-.33,1,.74,1,1.13a.63.63,0,0,1-.09.41c.07-.09.11-.22.18-.32.32-.56.62-1.13,1-1.69a90.5,90.5,0,0,1,9-12.61,145.14,145.14,0,0,1,20-19.38,209.55,209.55,0,0,1,34.39-22.23q11.52-6,23.59-10.95c7-2.87,14.11-5.85,21.5-7.6a81.4,81.4,0,0,1,31.83-.67A138.82,138.82,0,0,1,1354.68,347a238.72,238.72,0,0,1,32.19,17.35,358.8,358.8,0,0,1,29.39,20.84c8.61,6.73,17,13.78,25.11,21.07q9.6,8.58,18.82,17.57c3.65,3.55,7.23,7.18,10.89,10.72a10.46,10.46,0,0,0,2.16,1.88c1.71.89,3.23-1.7,1.51-2.59Z"/><path class="cls-12" d="M1522.37,480.35c.31.66,0-.18-.06-.48-.11-.56-.19-1.13-.28-1.7-.29-1.92-.54-3.84-.81-5.77-.91-6.55-1.86-13.1-2.93-19.64q-2.26-13.78-5.18-27.45c-2.31-10.74-5-21.4-8-31.94a323.92,323.92,0,0,0-11.59-33.17,208.74,208.74,0,0,0-15.76-31,124.47,124.47,0,0,0-20.44-25.28,79.69,79.69,0,0,0-25.93-16.41,219.82,219.82,0,0,0-27.12-7.8,265.12,265.12,0,0,0-26.82-4.93,192.1,192.1,0,0,0-41.65-1.16,127.14,127.14,0,0,0-25.8,4.8c-2.36.72-4.69,1.53-7,2.46-1.27.51-3.82,1.1-3.79,2.86,0,2,3,2.75,4.47,3.27,3.28,1.19,6.63,2.15,10,3.16,11,3.35,22,6.83,32.71,10.93a222.91,222.91,0,0,1,38.79,18.82A128.23,128.23,0,0,1,1402.75,333a149.7,149.7,0,0,1,13.1,13.67c9.08,10.51,17.4,21.68,25.41,33,8.46,12,16.56,24.18,24.45,36.54q10.15,15.9,19.85,32.11,5.89,9.84,11.62,19.77c.52.9,1,1.8,1.55,2.7a1.5,1.5,0,0,0,2.59-1.51c-2-3.56-4.08-7.1-6.15-10.64q-7.92-13.51-16.15-26.84-10.9-17.71-22.42-35.05c-8-12.08-16.36-24-25.17-35.54-7.77-10.18-15.85-20.44-25.26-29.17-10.72-9.94-23.36-17.68-36.43-24.1a300.88,300.88,0,0,0-37.7-15.15c-8.66-2.89-17.49-5.31-26.14-8.22-.62-.21-1.24-.42-1.85-.65l-.72-.28-.33-.13,0,0L1302,283c-.36-.18,0,0,0,0-.25-.33.11.27,0,.06.24.57.09,1.5-.35,1.57a3.55,3.55,0,0,0,.69-.31l.43-.19.21-.09,1.22-.5a98.8,98.8,0,0,1,18.25-5.14,156,156,0,0,1,33.7-2.39,238.43,238.43,0,0,1,50,7.22c13.41,3.31,27,6.79,38.6,14.55a96.9,96.9,0,0,1,22.32,21.4,164.87,164.87,0,0,1,17.39,28.45,265.29,265.29,0,0,1,13.14,32.24c3.63,10.72,6.72,21.61,9.42,32.6q3.6,14.72,6.32,29.63,2.13,11.64,3.83,23.36c.67,4.59,1.24,9.19,1.94,13.78a9.64,9.64,0,0,0,.6,2.6c.82,1.74,3.41.22,2.59-1.52Z"/><path class="cls-12" d="M1532.66,497.5c23.71,13,42.82,32.72,58.39,54.58,16.13,22.65,29.29,47.61,40,73.24a435.51,435.51,0,0,1,33.66,165.79,423,423,0,0,1-8,84.38q-1,5.24-2.21,10.44c-.42,1.88,2.47,2.68,2.89.8a426.56,426.56,0,0,0,10.25-85.29,440,440,0,0,0-6.83-85.66,434.85,434.85,0,0,0-23.36-82.61,399.08,399.08,0,0,0-38.81-75.3c-14.93-22.39-33.07-43.18-55.86-57.83-2.82-1.82-5.7-3.52-8.64-5.13-1.69-.92-3.21,1.67-1.51,2.59Z"/><path class="cls-12" d="M1607.43,712.39c-10.82-4.57-22.45-6.43-34.12-7.14a328.8,328.8,0,0,0-36.88.06q-18.57,1-37,3.74-9.27,1.4-18.47,3.25c-5.69,1.14-11.4,2.32-17,4a53,53,0,0,0-14.82,6.66,41.55,41.55,0,0,0-10.61,10.75c-6.1,8.81-9.56,19.41-12.44,29.64-6.26,22.25-8.34,46.28-2.42,68.84,5,19,15.61,36.75,31.31,48.74q2.91,2.21,6,4.13v-2.6c-17.82,9-37.8,12.47-55.63,21.42-8,4-15.64,9.17-21.63,15.92-1.44,1.63-3,3.38-3.63,5.52a6.16,6.16,0,0,0,1.72,6,26.61,26.61,0,0,0,5.37,4.06,51.42,51.42,0,0,0,6.65,3.5c9.39,4.15,19.53,6.22,29.67,7.53,10.61,1.38,21.33,2,32,2.72q32.89,2.07,65.87,2T1587,948.7l8.15-.6c1.91-.15,1.93-3.15,0-3q-31.87,2.48-63.85,2.91t-63.9-1.21q-15.87-.81-31.71-2.12c-10.09-.86-20.2-2-30-4.77a70.42,70.42,0,0,1-13.55-5.15,45.23,45.23,0,0,1-6.19-3.83c-1.61-1.2-3.69-2.76-2.92-5,.7-2,2.58-3.81,4-5.35a55.06,55.06,0,0,1,4.72-4.44,71,71,0,0,1,10.73-7.36c16.66-9.45,35.73-13.14,53.24-20.61q3.42-1.46,6.73-3.11a1.53,1.53,0,0,0,0-2.6c-16.33-10.1-27.92-26.56-34-44.59-7.12-21.12-6.53-44.07-1.59-65.6,2.39-10.45,5.49-21.14,10.43-30.69a47.55,47.55,0,0,1,8.61-12.14,38.76,38.76,0,0,1,13-8.23,97.55,97.55,0,0,1,15.18-4.38q8.8-2,17.68-3.51,18.06-3.12,36.35-4.47,17.94-1.33,36-.94c11.43.25,23,1.09,34,4.34a70,70,0,0,1,7.79,2.76,1.57,1.57,0,0,0,2-.54,1.52,1.52,0,0,0-.54-2.06Z"/><path class="cls-12" d="M1369.45,748.51c-9.24.31-17.32,5-24.1,11a103.58,103.58,0,0,0-9.66,10,90.67,90.67,0,0,0-8.85,11.29,21.71,21.71,0,0,0-3.26,14.55,47.16,47.16,0,0,0,5,14.51,88.54,88.54,0,0,0,17,22.72,140.34,140.34,0,0,0,10.93,9.75q2.83,2.3,5.76,4.48c.92.69,1.84,1.38,2.77,2.05s2.28,1.36,2.73,2.39c.79,1.82-3.34,2.7-4.41,3.06q-3.69,1.25-7.41,2.35c-5.05,1.52-10.13,2.92-15.17,4.45s-10.14,3.21-15,5.24a63.55,63.55,0,0,0-13.54,7.1c-3.82,2.82-6.49,6.55-7,11.37a19.27,19.27,0,0,0,4,13.05,36.39,36.39,0,0,0,11.16,9.32,113.45,113.45,0,0,0,14.26,6.89,120.89,120.89,0,0,0,30.78,7.9q4,.48,8.06.7c1.93.1,1.93-2.9,0-3a117.86,117.86,0,0,1-30.66-5.79,115.43,115.43,0,0,1-14.42-5.85,61.14,61.14,0,0,1-12.45-7.48c-3.58-3-6.46-6.7-7.44-11.32a12.36,12.36,0,0,1,4-12.2c3.51-3.12,8.11-5.2,12.37-7.08a137.41,137.41,0,0,1,14.59-5.31c4.89-1.52,9.82-2.89,14.73-4.33,2.49-.74,5-1.49,7.45-2.28a38.13,38.13,0,0,0,6.49-2.36c1.7-.91,3.06-2.55,2.72-4.58-.39-2.29-2.57-3.58-4.29-4.83-3.78-2.76-7.49-5.63-11.06-8.66a107,107,0,0,1-19.08-20.51,72.29,72.29,0,0,1-6.73-12c-2-4.6-3.75-9.72-3.19-14.8.52-4.85,3.44-9,6.41-12.72s5.86-7.11,9-10.45c5.92-6.28,12.85-12.32,21.35-14.64a27.44,27.44,0,0,1,6.23-.93c1.93-.06,1.94-3.06,0-3Z"/><path class="cls-12" d="M1670.9,893.05c.43-6.87,1.82-14.39,7-19.37a14.83,14.83,0,0,1,8.35-4.21c3.6-.42,6.92,1.06,9.85,3a43.28,43.28,0,0,1,13.68,14.39,29,29,0,0,1,3.38,8.95,27.24,27.24,0,0,1-.32,9.94,12.25,12.25,0,0,0,0,5.52,17,17,0,0,0,2.21,4.4,16.22,16.22,0,0,1,3,8.48c.18,6.18-3,12.2-7.49,16.28-5.12,4.61-11.72,7.16-18.23,9.08a173.92,173.92,0,0,1-22.65,5.18c-14.4,2.22-30,1.54-42.81-6.06a42.16,42.16,0,0,1-4.33-2.93c-1.5-1.17-3.64.94-2.12,2.12,12.51,9.71,28.78,12.1,44.19,10.52a159.49,159.49,0,0,0,25.33-5c7.08-1.91,14.3-4.27,20.23-8.7,5.41-4,9.56-9.88,10.61-16.66a18.43,18.43,0,0,0-.92-9.73c-1.3-3.25-4.42-6.06-4.34-9.73,0-2,.67-4,.89-6.05a24,24,0,0,0,0-5.15,30.89,30.89,0,0,0-3-10,45.44,45.44,0,0,0-13.84-16c-3-2.27-6.43-4.26-10.26-4.73a15.66,15.66,0,0,0-9.83,2.24c-6.61,3.92-9.81,11.22-10.94,18.54-.29,1.91-.48,3.83-.6,5.76s2.88,1.92,3,0Z"/><path class="cls-12" d="M346.07,492.68c3.5,12.47,12.85,21.82,19.37,32.68a48.91,48.91,0,0,1,4.61,9.69c.62,1.82,3.52,1,2.9-.8-4.13-12.26-13.55-21.46-19.81-32.55a44.31,44.31,0,0,1-4.18-9.82,1.5,1.5,0,0,0-2.89.8Z"/><path class="cls-12" d="M349.05,492.58c14.38,7.46,28.81,14.83,43.44,21.76q6.33,3,12.69,5.88a1.56,1.56,0,0,0,2.05-.54c4.8-6.29,12.47-10.22,20.09-11.84L425.47,506a4.65,4.65,0,0,1-.45,1.08c0,.07-.43.51-.43.55s-.11-.09,0,0c.38.2.58-.17.89.43.07.15.22.62.1.45.11.16-.38.21,0,0a12.18,12.18,0,0,1,1.69-.69L425.47,506l-4.69,15.23c-1.12,3.64-2.95,7.46-2.39,11.37a8.49,8.49,0,0,0,6.53,6.84c3.17.72,6.47-.07,9.55-.82,3.25-.8,6.9-2,10.19-.85l-.66-2.51a184.49,184.49,0,0,0-17.54,25.23,1.5,1.5,0,0,0,2.59,1.51,179.77,179.77,0,0,1,17.07-24.62,1.53,1.53,0,0,0-.66-2.51c-5.76-2-11.64,1.62-17.38,1.84-2.66.11-5.63-.91-6.54-3.7-1.08-3.31.95-7.15,1.91-10.27q2.48-8,4.91-15.94a1.51,1.51,0,0,0-1.84-1.84,5.41,5.41,0,0,0-3.55,2.13,2.36,2.36,0,0,0,.23,2.84c2.24,2.32,4.57-1.32,5.16-3.13a1.51,1.51,0,0,0-1.84-1.84c-8.45,1.79-16.59,6.29-21.88,13.22l2.06-.54c-14.7-6.65-29.17-13.79-43.53-21.14q-6.32-3.23-12.6-6.5c-1.71-.89-3.23,1.7-1.52,2.59Z"/><path class="cls-12" d="M371.37,561.34l9.68,52.24c1.61,8.67,3.4,17.35,4.09,26.16a86.27,86.27,0,0,1-1.68,24.88,105.24,105.24,0,0,1-3.81,13.27c-.79,2.2-1.63,4.37-2.55,6.51-.19.44-1.9,4.17-2.76,3.39-1.43-1.3-3.56.82-2.13,2.12,3.06,2.77,6.23-1.1,7.39-3.78a122.51,122.51,0,0,0,4.54-12.25,93.41,93.41,0,0,0,4.27-26c.15-9.29-1.4-18.51-3.07-27.62q-2.58-14-5.2-28l-5.88-31.73c-.35-1.9-3.24-1.1-2.89.79Z"/><path class="cls-12" d="M354.76,496.19c0-.09,0-.17,0-.26l0,.4a2.39,2.39,0,0,1,.15-.54l-.15.35a2.74,2.74,0,0,1,.29-.49l-.24.31a2.4,2.4,0,0,1,.45-.45l-.3.23a2.15,2.15,0,0,1,.49-.28l-.36.15a2.16,2.16,0,0,1,.55-.16l-.4.06a2.16,2.16,0,0,1,.44,0l-1.45-1.9c-.08.22-.17.45-.26.67l.15-.36a7.22,7.22,0,0,1-.82,1.49l.23-.31a3.64,3.64,0,0,1-.61.63l.3-.24a3,3,0,0,1-.54.32l.36-.15a2.13,2.13,0,0,1-.43.13l.39-.06a2,2,0,0,1-.42,0l.4,0a1.84,1.84,0,0,1-.51-.14l.36.15a2.62,2.62,0,0,1-.51-.3l.3.23a2.53,2.53,0,0,1-.36-.37l.23.31a2.33,2.33,0,0,1-.2-.34l.16.36a1,1,0,0,1-.09-.32l.05.4a1.22,1.22,0,0,1,0-.27l-.06.4a1.2,1.2,0,0,1,.08-.27l-.16.36a1.59,1.59,0,0,1,.13-.22l-.23.31,0-.05a1.61,1.61,0,0,0,.44-1.06,1.53,1.53,0,0,0-.44-1.06,1.56,1.56,0,0,0-1.06-.44,1.48,1.48,0,0,0-1.06.44,3.08,3.08,0,0,0-.47.74,2.64,2.64,0,0,0-.2.85,2.6,2.6,0,0,0,.29,1.34,3.35,3.35,0,0,0,1.59,1.54,3.52,3.52,0,0,0,1.43.37,3,3,0,0,0,1.3-.28,4.66,4.66,0,0,0,2-1.76,10.77,10.77,0,0,0,1.09-2.3,1.44,1.44,0,0,0-.27-1.31,1.5,1.5,0,0,0-1.18-.59,3.78,3.78,0,0,0-3.88,3.69,1.5,1.5,0,1,0,3,0Z"/><path class="cls-12" d="M400.72,529.44c.29.22,0,0,0-.05.23.2.09.07,0,0,.16.22.06.13,0,0s0,.29,0,0c0-.11,0-.22,0-.33,0,.25,0,.16,0,0s.06-.18.09-.27,0-.07,0,.1l.07-.15s.23-.36.1-.18.11-.12.14-.15.16-.13,0,0l.29-.18c.12-.06.13-.06,0,0l.15-.05s.48-.1.21-.06a3.54,3.54,0,0,1,.46,0s.49,0,.23,0a6.11,6.11,0,0,1,.94.22,4.4,4.4,0,0,1,.61.25,14.76,14.76,0,0,1,1.62,1,16.68,16.68,0,0,0,3.62,2,1.51,1.51,0,0,0,1.85-1,1.54,1.54,0,0,0-1.05-1.84,30.3,30.3,0,0,1-3.88-2.34,7.34,7.34,0,0,0-5.11-1.11,4.25,4.25,0,0,0-3.19,3,3.54,3.54,0,0,0,1.31,4,1.49,1.49,0,0,0,2.05-.54,1.54,1.54,0,0,0-.53-2Z"/><path class="cls-12" d="M390.5,518.74c-.07-.33,0,.15,0,0a2.8,2.8,0,0,0,0-.29c0,.32,0,.08,0,0s.05-.15.07-.22c-.11.33,0,0,0-.06s.21-.31.09-.14.1-.12.11-.13l.22-.21c.1-.09.2-.15,0,0l.26-.18.28-.15s.35-.15.16-.08.14,0,.18,0l.37-.1c.16,0,.1,0,0,0l.38,0,.31,0c.22,0-.34-.08.11,0,.25.06.49.12.73.2a5.89,5.89,0,0,1,1.15.56,15.64,15.64,0,0,1,2.38,1.89,1.53,1.53,0,0,0,2.12,0,1.51,1.51,0,0,0,0-2.12c-2-1.78-4.44-3.86-7.3-3.52s-5.17,2.6-4.6,5.5a1.53,1.53,0,0,0,1.85,1.05,1.55,1.55,0,0,0,1.05-1.85Z"/><path class="cls-12" d="M394.94,570.39c7.26,2.28,15,4.67,20.86,9.7,6.4,5.45,9,13.4,10.52,21.39a137.06,137.06,0,0,1-1.27,56.57c-2.33,10.23-5.19,20.61-4.14,31.19.19,1.91,3.19,1.93,3,0-1-9.77,1.47-19.32,3.66-28.77a151,151,0,0,0,4.06-28.85,138.34,138.34,0,0,0-2.13-29.37c-1.49-8.26-3.89-16.78-10-22.86-6.41-6.36-15.32-9.25-23.74-11.9-1.84-.58-2.63,2.32-.79,2.9Z"/><path class="cls-12" d="M449.18,680.59c-11.15,7.16-22.85,14.8-29.3,26.79a33.4,33.4,0,0,0-4.27,18.32c0,1.47-.05,2.66-1.44,3.43a34.09,34.09,0,0,0-3.89,2.24,21.72,21.72,0,0,0-5.81,6.34c-1.48,2.47-3.1,6-2.5,8.93.55,2.73,3,4.11,5.56,4.49,3.21.48,6.58,0,9.81-.1l11.37-.5q11.61-.53,23.22-1.13c1.75-.09,3.51-.13,5.26-.29a6.79,6.79,0,0,0,4.37-1.64,9,9,0,0,0,2-3.71c.59-1.8,1.13-3.62,1.65-5.44A158.34,158.34,0,0,0,471,689.14c-.07-1.92-3.07-1.93-3,0a155.5,155.5,0,0,1-3.86,41c-.79,3.39-1.68,6.75-2.7,10.08a26.08,26.08,0,0,1-1.4,4.16c-.8,1.61-2.32,1.68-3.95,1.77q-10.74.59-21.49,1.07t-21.25.94c-2.27.09-5.7.7-7.67-.82s0-5.71,1-7.5A18.63,18.63,0,0,1,411.8,734c2.12-1.58,5.29-2.24,6.35-4.91a9.44,9.44,0,0,0,.45-3.74,33.87,33.87,0,0,1,.1-4.83,30.87,30.87,0,0,1,2.17-8.23c5.49-13.38,18.15-21.57,29.82-29.07,1.62-1,.12-3.64-1.51-2.59Z"/><path class="cls-12" d="M376,692.33a32.38,32.38,0,0,0,9.18,16.16,31.65,31.65,0,0,0,7.47,5.37c3.27,1.67,6.9,2.49,10.15,4.18,1.72.89,3.23-1.7,1.52-2.59-3.05-1.58-6.41-2.37-9.49-3.85a29.14,29.14,0,0,1-7.26-5,29.72,29.72,0,0,1-8.68-15.09c-.42-1.89-3.31-1.09-2.89.79Z"/><path class="cls-12" d="M376.17,670.79l-16.52,11.46c-4.79,3.33-10.3,6.5-13.34,11.66-2.74,4.65-3.19,10.23-2.73,15.5a82.57,82.57,0,0,0,3,15.58c1.51,5.22,4,10.4,8.86,13.25l-.69-1.69c-.22.8-2,.9-2.7,1.1a4.9,4.9,0,0,0-3.28,2.34,4.24,4.24,0,0,0,1,4.74c1.42,1.4,3.46,1.67,5.36,1.82a90.22,90.22,0,0,0,26.37-1.87,91.24,91.24,0,0,0,14.44-4.44c1.77-.71,1-3.61-.8-2.89a88.29,88.29,0,0,1-34.75,6.44c-1.95,0-3.93-.08-5.88-.29-.84-.09-4-.84-3-2.34.58-.82,2.37-.85,3.25-1.15a3.93,3.93,0,0,0,2.84-2.67,1.53,1.53,0,0,0-.69-1.69c-3.89-2.29-5.92-6.42-7.22-10.59a79.56,79.56,0,0,1-3-14.24c-.57-4.84-.59-10.1,1.7-14.55,2.53-4.91,7.54-7.82,11.93-10.87l17.32-12c1.58-1.1.08-3.7-1.51-2.59Z"/><path class="cls-12" d="M468.81,665.85a145.47,145.47,0,0,0-4.06-27.69c-.47-1.87-3.36-1.08-2.9.8a140.3,140.3,0,0,1,4,26.89c.09,1.92,3.09,1.93,3,0Z"/><path class="cls-12" d="M485.77,386.5c-3.28-1-6.84-2.23-9.22-4.81-2.63-2.85-2.18-6.94.31-9.73,2.82-3.16,7.28-4.08,11.34-4.19a31.69,31.69,0,0,1,31.31,40.7,20.91,20.91,0,0,1-2.72,5.94,25.21,25.21,0,0,1-4.76,4.81,98.53,98.53,0,0,0-9.73,9.33,185.47,185.47,0,0,0-16.61,21.93,104.65,104.65,0,0,0-12.32,23.84,87.41,87.41,0,0,0-4.56,23.86,89,89,0,0,0,10.68,47.33q1.45,2.63,3.09,5.14c1.05,1.62,3.64.11,2.59-1.51a86.17,86.17,0,0,1-8.9-74c3.1-9,8-17.22,13.31-25.06s11-15.64,17.73-22.45c1.66-1.69,3.37-3.31,5.16-4.85a57.94,57.94,0,0,0,5.21-4.68,24.22,24.22,0,0,0,5.47-11.89,35.58,35.58,0,0,0-4.28-24.63,34.87,34.87,0,0,0-19.24-15.13c-7.49-2.42-18-3.07-24.22,2.72-2.92,2.73-4.57,7.11-3.2,11,1.22,3.48,4.26,5.79,7.51,7.29A42.38,42.38,0,0,0,485,389.4c1.86.56,2.65-2.34.8-2.9Z"/><path class="cls-12" d="M483.63,388.46a83,83,0,0,1-40.28-12.28c-5.74-3.55-11.54-7.82-14.91-13.8-3.5-6.22-3.95-13.78-2.81-20.69,4.22-25.72,27.35-43.13,51.13-49.78,14.14-4,28.94-4.9,43.57-4.7a301.86,301.86,0,0,1,44.82,4c28.62,4.72,57.13,13.16,83.33,25.71,21.65,10.38,43.15,24.94,54.53,46.77,6.59,12.64,8.44,26.74,8.65,40.84.11,7.5-.18,15-.28,22.52s.11,15.09.28,22.64c.36,15.26.19,30.6-4.45,45.29-4.28,13.53-11.51,25.91-19.39,37.63-7.58,11.29-15.57,22.4-24,33.08-8.1,10.27-16.87,20.12-27,28.4a101.85,101.85,0,0,1-37,19.11,174.12,174.12,0,0,1-21.82,4.5c-7.18,1.07-14.42,1.7-21.58,2.93a62.81,62.81,0,0,0-19.37,6.21,50.14,50.14,0,0,0-13.19,10.44c-7.82,8.6-13,19.26-17.05,30.05-2,5.38-3.81,10.85-5.52,16.35-.57,1.85,2.33,2.64,2.9.8,7-22.71,16.51-49.47,41.14-58,7-2.42,14.34-3.43,21.64-4.32,7.46-.92,14.91-1.88,22.29-3.35,14.29-2.85,28.1-7.65,40.33-15.7,22.76-15,38.94-37.9,54.48-59.82,8.34-11.76,16.42-23.88,22.15-37.17,6-13.92,8.36-28.41,8.56-43.5.11-8-.23-16-.38-24-.14-7.69.06-15.37.2-23.05.27-14.93.1-30.27-5.06-44.47-8.55-23.54-28.71-40.26-50.09-52a257.57,257.57,0,0,0-37.36-16.3,327.54,327.54,0,0,0-44.87-12.48,311.72,311.72,0,0,0-45.46-5.79c-14.89-.78-30-.66-44.69,1.92-25.32,4.44-50.65,18.15-61,42.89-5,11.91-6.3,27,2,37.77,4.09,5.32,9.82,9.32,15.56,12.67a85.81,85.81,0,0,0,40,11.62c1.93.08,1.93-2.92,0-3Z"/><path class="cls-12" d="M366.15,562.94a195.13,195.13,0,0,0-13.26,34.13c-1.75,5.89-3.33,11.83-4.85,17.78q-1.14,4.47-2.27,9a45.9,45.9,0,0,0-1.57,9.3c-.2,5.66,2,11.92,7.35,14.53a1.55,1.55,0,0,0,2.06-.54A64.63,64.63,0,0,1,379.4,625c1.74-.83.22-3.41-1.52-2.59A67.62,67.62,0,0,0,351,645.59l2.06-.54c-4.65-2.25-6.12-7.6-5.85-12.41a47.27,47.27,0,0,1,1.62-8.73c.69-2.75,1.39-5.51,2.09-8.26a337.55,337.55,0,0,1,10-33.28,160.07,160.07,0,0,1,7.85-17.91c.88-1.72-1.71-3.24-2.59-1.52Z"/><path class="cls-12" d="M447.41,566c19.49,7.21,30.94,26.93,33.39,46.8a89.67,89.67,0,0,1,.2,19l2.79-.76c-3.62-8.35-7.41-16.92-13.85-23.54s-15.63-10.41-21.66-17.66c-3.11-3.74-5.19-8.39-4.6-13.33.23-1.92-2.77-1.9-3,0-1.12,9.33,5.88,17,12.81,22.11,3.91,2.92,8.12,5.45,11.82,8.64a43.23,43.23,0,0,1,8.9,10.89,128.28,128.28,0,0,1,7,14.4c.66,1.51,2.68.54,2.8-.75,2-21.91-3.67-45.54-21.12-60.16a49.59,49.59,0,0,0-14.67-8.56c-1.82-.67-2.6,2.23-.8,2.89Z"/><path class="cls-12" d="M1409.8,594.07a20,20,0,0,1-23.69,1.43c-1.62-1.07-3.12,1.53-1.52,2.59a23.05,23.05,0,0,0,27.33-1.9c1.46-1.26-.67-3.38-2.12-2.12Z"/><path class="cls-12" d="M1380.07,579.46c2.17-4-.92-9-5.3-9.42-5.07-.47-8.9,4.46-8.7,9.2.23,5.38,4.08,9.43,8.43,12.14A43.2,43.2,0,0,0,1382,595c2.26.86,5,1.27,6.26-1.34,2.64-5.5-1.3-11.85-5-15.74-1.33-1.4-3.45.72-2.12,2.12,2.5,2.63,4.94,6,4.89,9.84a5.36,5.36,0,0,1-.45,2.44c-.39.72-1.24.33-1.87.12a36.86,36.86,0,0,1-5.67-2.53c-3.28-1.78-6.7-4.1-8.21-7.67-1.34-3.15-.83-7.22,2.55-8.82a3.7,3.7,0,0,1,4.26.54,3.39,3.39,0,0,1,.89,4c-.92,1.7,1.67,3.21,2.59,1.52Z"/><path class="cls-12" d="M1475.86,456.27a84.12,84.12,0,0,0-61.17-15.35c-10.89,1.52-22.1,5.11-30.53,12.41-7.18,6.21-11.79,14.86-14.28,23.93-2.9,10.6-3.19,21.84-2,32.71l1.9-1.45c-5.36-1.66-10.43,1.39-14.14,5.06-3.94,3.88-7.12,8.71-10.07,13.36a95.56,95.56,0,0,0-13.3,31.74c-4.26,20.66.42,44.07,16.31,58.83,8.09,7.52,18.3,12.18,28.69,15.6,5.34,1.75,10.79,3.2,16.24,4.58,6.41,1.63,12.86,3.11,19.38,4.18,12.13,2,24.65,2.68,36.74.13a62.58,62.58,0,0,0,27.45-12.93c8.11-6.8,15.14-17.11,15-28.06-.09-6.09-2.56-11.83-5.28-17.17a89.91,89.91,0,0,0-9.51-14.81q-2.7-3.43-5.73-6.59c-1.34-1.39-3.45.73-2.12,2.13A87.52,87.52,0,0,1,1480,578a70.93,70.93,0,0,1,7.57,15,24.85,24.85,0,0,1-.09,16.86,38.86,38.86,0,0,1-8.18,13c-6.55,7.06-15.21,11.89-24.36,14.69-10.77,3.31-22.13,3.67-33.27,2.52-12-1.24-23.74-4.15-35.3-7.36-10.09-2.79-20.18-6.22-29-12.06a51.27,51.27,0,0,1-18.9-22.93,63.56,63.56,0,0,1-4.61-29.14,82.08,82.08,0,0,1,9-30.85,113.11,113.11,0,0,1,8.61-14.23c3-4.17,6.14-8.72,10.74-11.22a8.52,8.52,0,0,1,6.75-.85,1.51,1.51,0,0,0,1.9-1.45c-2-17.72-.23-38.59,12.78-52.08,7.44-7.72,17.85-11.57,28.19-13.49a81,81,0,0,1,62.44,14.46c1.56,1.15,3.05-1.46,1.52-2.59Z"/><path class="cls-12" d="M1388.1,518.82a2.56,2.56,0,0,0,0-.27c0-.21,0,.28,0,.07s0-.33,0-.49,0-.33,0-.49a1.64,1.64,0,0,1,0-.22c0-.11,0-.07,0,.13l0-.16a6.61,6.61,0,0,1,.24-.9c0-.08.07-.17.1-.26s-.17.33,0,0c.08-.16.16-.33.25-.49s.15-.25.23-.37l.16-.23c.11-.17-.17.2,0,0a8.42,8.42,0,0,1,.71-.76l.16-.14s.31-.22.11-.09l.11-.07a1,1,0,0,1,.19-.12l.37-.22.25-.12c.31-.15-.07,0,0,0,.3-.09.59-.18.9-.25s0,0-.07,0a1,1,0,0,1,.29,0c.13,0,.51-.07.63,0h0l.22,0,.22.06s.32.16.13,0,.3.2.3.2-.26-.26,0,0,.18.3,0,0a2.53,2.53,0,0,0,.13.22c.14.25,0,0,0,0s0,.2.08.29,0-.33,0,0c0,.17,0,.33,0,.5,0-.31,0-.07,0,0s-.06.26-.1.39-.14.43-.21.64c0,.05-.12.26,0,0,0,.08-.07.16-.11.25-.17.37-.36.74-.56,1.1l-.16.27c0,.07-.28.35-.06.11l-.17.18c-.07.07-.35.24-.08.09a.85.85,0,0,1-.18.1c.18-.07.22-.08.11,0l-.15,0c-.24.08.1-.06.08,0H1392c-.12,0-.07,0,.14,0,0,0-.19,0-.19-.05.2.09.23.1.09,0l.15.11c-.19-.15,0,0,0,.07s.1.56.11.31c0,.49.07,0,0,.22s0,.12,0,0l-.1.12c.13-.12-.19.12-.23.14a.66.66,0,0,1-.34.06c-.25-.05-.3-.06-.14,0a1.5,1.5,0,1,0,.8-2.89,2.4,2.4,0,0,0-3,2.35,2.59,2.59,0,0,0,2.75,2.51,3.81,3.81,0,0,0,3.15-2.06,10.53,10.53,0,0,0,1.39-3.28,4.29,4.29,0,0,0-.83-3.83,4.57,4.57,0,0,0-3.27-1.37,7.11,7.11,0,0,0-5.48,2.57,7.82,7.82,0,0,0-1.8,6.68,1.5,1.5,0,0,0,2.89-.8Z"/><path class="cls-12" d="M1416.78,519.62a1.77,1.77,0,0,1,0-.23c0-.26,0,0,0,.11a.71.71,0,0,0,0-.21c0-.07.13-.34,0-.08s0,0,0,0,.08-.11.11-.17-.13.16-.13.16l.06-.08.17-.18a.73.73,0,0,0,.16-.14c-.07.11-.28.2-.07.07a3.38,3.38,0,0,1,.41-.24c.25-.13-.17.06-.08,0l.21-.07.48-.12c.25,0,0,0-.1,0a.86.86,0,0,0,.23,0,4.17,4.17,0,0,1,.5,0h.11l-.21,0,.23.05c.16,0,.3.11.46.15-.15,0-.3-.14-.09,0l.2.11c.2.13,0,.06-.06-.06a1.62,1.62,0,0,0,.19.18c.06.05.11.12.16.17s-.1-.12-.09-.12l.08.12c.06.08.23.51.3.54s-.1-.29-.06-.15,0,.09,0,.14a2.76,2.76,0,0,1,.08.27l.06.27c0,.25,0-.32,0,0a5.42,5.42,0,0,1,0,.57c0,.1,0,.2,0,.29s0-.15,0-.16a.63.63,0,0,0,0,.19,6.25,6.25,0,0,1-.16.62l-.1.28c-.12.32.09-.17,0,0s-.18.36-.28.53-.11.17-.16.25l-.12.17c.13-.17-.07.08-.1.12l-.2.22c-.1.1-.44.31-.48.43s.23-.15.08-.06l-.15.11a.91.91,0,0,0-.17.09c-.13.09,0,0,.08,0-.32,0,.23,0,0,0h-.12c-.16,0,.34,0,.18,0l-.1,0s.28.16.19.08-.28-.19,0,0,0,0,0-.05.11.14.12.15a.94.94,0,0,0-.09-.12,2.12,2.12,0,0,1-.11-.21c-.12-.22.09.3,0,0,0-.08-.05-.16-.07-.24s-.07-.4,0-.14,0-.07,0-.14,0-.21,0-.31c0-.33-.07.25,0,0l.08-.29c.08-.3-.12.22,0,0l.18-.36c.13-.24.27-.47.41-.71a7.46,7.46,0,0,0,1.35-3.5,1.51,1.51,0,0,0-1.5-1.5,1.54,1.54,0,0,0-1.5,1.5c0,.22,0,0,0-.06s0,.14,0,.17-.06.25-.1.37a.6.6,0,0,1-.08.21s.15-.31,0,0-.13.27-.2.41c-.28.5-.61,1-.89,1.49a5.07,5.07,0,0,0-.67,3.52,3.41,3.41,0,0,0,2.09,2.64c1.38.5,2.78-.38,3.7-1.34a6.89,6.89,0,0,0,1.82-6.45,4.84,4.84,0,0,0-2-2.74,4.68,4.68,0,0,0-2.78-.67c-2.24.15-4.58,1.71-4.44,4.19a1.5,1.5,0,1,0,3,0Z"/><path class="cls-12" d="M1387.16,515a134.4,134.4,0,0,1,8.59-15.49c2.66-4.07,6.43-8.23,11.74-7.94s7.07,6.28,6.72,10.82c-.36,4.83-3,9.38-6.33,12.77-3.54,3.56-9.63,7.44-14.66,4.58a1.5,1.5,0,0,0-1.51,2.59c5.38,3.06,11.72.46,16.14-3.11a25.12,25.12,0,0,0,9.07-14.57c.95-5.26-.08-12.35-5.37-15-5.44-2.75-11.6.12-15.34,4.31a54.45,54.45,0,0,0-5.94,8.79q-3.06,5.26-5.7,10.76c-.84,1.74,1.75,3.26,2.59,1.52Z"/><path class="cls-12" d="M1411.87,526.07c-.39-6.64,3.47-12.72,9.05-16.1a25.87,25.87,0,0,1,9.56-3.38c3.35-.53,7.46-.91,10.31,1.26a32.08,32.08,0,0,1,3.45,3.35l4.5,4.67c2.36,2.45,5.11,5.11,3.54,8.77-1.23,2.85-3.81,5.46-6.06,7.54a11.28,11.28,0,0,1-3.87,2.47,10.3,10.3,0,0,1-5.77,0c-4.17-1.05-8.24-2.75-12.28-4.19q-6.46-2.29-12.88-4.68c-1.81-.66-2.6,2.23-.8,2.9q6.54,2.42,13.11,4.75c4.17,1.49,8.39,3.33,12.73,4.27a12.38,12.38,0,0,0,11-2.58,33.32,33.32,0,0,0,3.87-3.92,23.19,23.19,0,0,0,3.38-4.63c1.89-3.75,1-7.3-1.64-10.41-1.39-1.64-3-3.15-4.45-4.7s-3-3.21-4.6-4.72a11.64,11.64,0,0,0-5.07-3,18.88,18.88,0,0,0-6-.36,31.84,31.84,0,0,0-11.22,2.8c-7.63,3.55-13.4,11.31-12.9,20,.11,1.92,3.11,1.93,3,0Z"/><path class="cls-12" d="M1393.47,480.54c6-2.83,12.92-5,19.6-5.19a7.25,7.25,0,0,1,7.12,4c1.52,2.82,1.7,6.1,2.1,9.21.33,2.47.54,6.59,3.37,7.61,1.54.55,3.17-.23,4.62-.74,1.65-.57,3.3-1.18,5-1.75,6-2.07,12.18-3.63,18.51-2.25a26.32,26.32,0,0,1,15.61,10c1.12,1.54,3.73.05,2.59-1.52a29.54,29.54,0,0,0-14.12-10.44c-6.16-2.15-12.59-1.87-18.81-.13-3.38.95-6.66,2.21-10,3.36-.55.19-1.9.92-2.45.62s-.56-1-.68-1.42A42.31,42.31,0,0,1,1425,486c-.77-6.09-3-12.85-10.13-13.55-3.76-.37-7.88.56-11.52,1.45A61.56,61.56,0,0,0,1392,478c-1.74.83-.22,3.42,1.52,2.59Z"/><path class="cls-12" d="M1383.58,599.19c-.81,4.46-1.63,8.91-2.43,13.38a5.05,5.05,0,0,0,0,2.78,3.44,3.44,0,0,0,2.24,1.92,30.88,30.88,0,0,0,6.36,1.53,1.52,1.52,0,0,0,1.9-1.45,33,33,0,0,1,2.43-14,1.51,1.51,0,0,0-1-1.84,1.54,1.54,0,0,0-1.85,1.05,35,35,0,0,0-2.53,14.74l1.9-1.44a35,35,0,0,1-5.26-1.17,8.45,8.45,0,0,1-1.23-.41c-.08,0-.19-.16-.11,0a.7.7,0,0,1,0-.38,18.5,18.5,0,0,1,.46-2.66l2.06-11.29a1.55,1.55,0,0,0-1-1.85,1.52,1.52,0,0,0-1.85,1.05Z"/><path class="cls-12" d="M1392.93,618.57a6.84,6.84,0,0,0,5.09,1.11,4.06,4.06,0,0,0,3.52-3.65c.68-4.79,1.12-9.62,1.68-14.43a1.52,1.52,0,0,0-1.5-1.5,1.54,1.54,0,0,0-1.5,1.5l-1.38,11.9a15.77,15.77,0,0,1-.33,2.47c-.15.53-.36.61-.81.72a4,4,0,0,1-3.26-.71,1.51,1.51,0,0,0-2,.54,1.53,1.53,0,0,0,.54,2.05Z"/><path class="cls-12" d="M1530.72,571a158,158,0,0,1,8,41.86c.7,13.38.07,27.31-3.52,40.29-3.24,11.72-9.57,22.81-20.36,29a32,32,0,0,1-15.88,4.51,25.57,25.57,0,0,1-8.36-1.41c-3.08-1.06-6.18-2.31-9.44-1.18-2.72.94-4.86,2.93-6.88,4.91l-8.11,8c-5.24,5.19-10.41,10.47-15.75,15.55-4.11,3.91-9.06,7.95-15,7.93-5.08,0-10.12-3.12-10-8.7.12-6.17,5.37-11.41,9.37-15.54,4.62-4.76,9.27-9.5,14.28-13.85a86.35,86.35,0,0,1,16.4-11.4c5.46-2.88,11.17-5.24,16.65-8.08a54.17,54.17,0,0,0,14.69-10.57,47.94,47.94,0,0,0,8.93-13.88c4.54-10.58,6-22.19,6.79-33.58.19-2.78.33-5.55.46-8.32.09-1.94-2.91-1.93-3,0-.54,11.83-1.31,23.87-4.94,35.22a51.24,51.24,0,0,1-7.55,15.09,44.3,44.3,0,0,1-13.67,11.69c-5.58,3.21-11.55,5.67-17.31,8.53a88.23,88.23,0,0,0-16.71,10.77,177.45,177.45,0,0,0-15,14c-4.47,4.58-9.41,9.28-11.58,15.47-1.92,5.46-.22,11.56,5,14.38,4.89,2.62,10.71,2,15.52-.43,6-3.07,10.65-8.47,15.37-13.13l16.57-16.4c2.06-2,4.34-4.63,7.35-5.13s6.33,1.51,9.32,2.22a31.08,31.08,0,0,0,17.14-1c11.73-4,20.37-13.38,25.26-24.56,5.42-12.39,6.93-26.29,7.15-39.69a161,161,0,0,0-5.18-43.1q-1.37-5.22-3.08-10.33c-.61-1.83-3.51-1.05-2.89.79Z"/><path class="cls-12" d="M1344.29,647.83q-3.22,31-4.24,62.21c-.11,3.27,0,7.35,2.66,9.69,3.25,2.86,8.19,1,11.85,0a25.92,25.92,0,0,0,10.41-5.12,17.5,17.5,0,0,0,5.32-10.67c.8-5.13.64-10.41.77-15.59l.46-17.9c0-1.93-3-1.93-3,0-.24,9.48-.3,19-.75,28.47-.17,3.8-.63,7.79-2.73,11.06-2,3-5.25,4.84-8.57,6a53.47,53.47,0,0,1-5.26,1.51c-1.83.45-4.32,1.4-6.08.33-2.66-1.61-2.14-6.17-2.05-8.76q.48-14.34,1.43-28.67,1.1-16.3,2.78-32.55c.2-1.92-2.8-1.91-3,0Z"/></svg>