<svg id="Layer_1" data-name="Layer 1" xmlns="http://www.w3.org/2000/svg" viewBox="0 0 1920 1080"><defs><style>.cls-1{opacity:0.3;}</style></defs><title>9</title><path class="cls-1" d="M1193,77.43C910.72,40.59,748.28-49.18,573.63,100.72S359.34,428.15,359.34,428.15,109.13,682.83,503,808s495.46,199.38,670.11,131S1581.9,543.12,1581.9,543.12,1627.73,303,1486.52,247.7s-190.75-21.83-240.3-65.49S1282.14,89.07,1193,77.43Z"/><path d="M767.26,306.29,738.92,758.52l-140.47,6.16,1.23-238.44L536.22,718.47H482L433.33,546.58l-.62,199.62-142.32,4.31,6.16-425.73,158.34-6.16,62.85,203.93,83.79-216.26Z"/><path d="M1166.5,538A223.42,223.42,0,0,1,1160,592a211.38,211.38,0,0,1-18.64,48.83,202.09,202.09,0,0,1-29.57,41.74,187.92,187.92,0,0,1-39.12,32.5,190,190,0,0,1-101.51,28.65,193.78,193.78,0,0,1-52.83-7.08,201,201,0,0,1-47-19.87A188.72,188.72,0,0,1,831.8,686a191.38,191.38,0,0,1-30.19-40.05,206,206,0,0,1-19.41-47.28A198.22,198.22,0,0,1,775.27,546a214.62,214.62,0,0,1,6.47-52.52,212.39,212.39,0,0,1,18.64-48.52A209,209,0,0,1,829.8,403a193.48,193.48,0,0,1,38.66-33,185.25,185.25,0,0,1,46.36-21.56,177.73,177.73,0,0,1,52.68-7.71q44.65,0,81.48,13.87t62.84,39.58q26,25.72,40.36,62.23T1166.5,538Zm-136.78,8a86.58,86.58,0,0,0-3.85-25.72,70.6,70.6,0,0,0-11.24-22.18,57.59,57.59,0,0,0-18.33-15.71,51.24,51.24,0,0,0-25.11-6,61.28,61.28,0,0,0-25.87,5.24,59.28,59.28,0,0,0-19.57,14.32,62.83,62.83,0,0,0-12.47,21.26A76.26,76.26,0,0,0,909,542.88a94,94,0,0,0,3.69,25.88,77,77,0,0,0,11.09,23.41,59,59,0,0,0,18.33,16.94q10.93,6.46,25.42,6.47a58,58,0,0,0,26-5.7,58.73,58.73,0,0,0,19.56-15.4,70.53,70.53,0,0,0,12.32-22.34A80.52,80.52,0,0,0,1029.72,546Z"/><path d="M1568.82,538a223.42,223.42,0,0,1-6.47,54.06,211.38,211.38,0,0,1-18.64,48.83,202.09,202.09,0,0,1-29.57,41.74,187.92,187.92,0,0,1-39.12,32.5,190,190,0,0,1-101.51,28.65,193.78,193.78,0,0,1-52.83-7.08,201,201,0,0,1-47-19.87A188.72,188.72,0,0,1,1234.12,686a191.38,191.38,0,0,1-30.19-40.05,206,206,0,0,1-19.41-47.28,198.22,198.22,0,0,1-6.93-52.68,214.62,214.62,0,0,1,6.47-52.52,212.39,212.39,0,0,1,18.64-48.52,209,209,0,0,1,29.42-41.9,193.76,193.76,0,0,1,38.66-33,185.25,185.25,0,0,1,46.36-21.56,177.73,177.73,0,0,1,52.68-7.71q44.65,0,81.48,13.87t62.84,39.58q26,25.72,40.36,62.23T1568.82,538ZM1432,546a86.58,86.58,0,0,0-3.85-25.72A70.6,70.6,0,0,0,1417,498.06a57.59,57.59,0,0,0-18.33-15.71,51.24,51.24,0,0,0-25.11-6,61.28,61.28,0,0,0-25.87,5.24,59.14,59.14,0,0,0-19.56,14.32,62.69,62.69,0,0,0-12.48,21.26,76.26,76.26,0,0,0-4.31,25.72,94,94,0,0,0,3.69,25.88,77,77,0,0,0,11.09,23.41,59,59,0,0,0,18.33,16.94q10.93,6.46,25.42,6.47a58,58,0,0,0,26-5.7,58.73,58.73,0,0,0,19.56-15.4,70.53,70.53,0,0,0,12.32-22.34A80.52,80.52,0,0,0,1432,546Z"/><path d="M1741.33,297.67l-25.26,324.07h-114l-11.71-324.07Zm-20.33,419a61.14,61.14,0,0,1-5.24,25.26,67.81,67.81,0,0,1-14,20.49,65.87,65.87,0,0,1-20.49,13.86,62,62,0,0,1-25,5.08,62.68,62.68,0,0,1-25.26-5.08,65.26,65.26,0,0,1-34.35-34.35,62.68,62.68,0,0,1-5.08-25.26,65.56,65.56,0,0,1,18.94-46,68,68,0,0,1,20.49-14,61.14,61.14,0,0,1,25.26-5.24,60.44,60.44,0,0,1,25,5.24,68.08,68.08,0,0,1,20.49,14,66.79,66.79,0,0,1,14,20.79A62.57,62.57,0,0,1,1721,716.62Z"/></svg>