<svg xmlns="http://www.w3.org/2000/svg" width="23.345" height="23.345" viewBox="0 0 23.345 23.345">
  <path id="Union_6" data-name="Union 6" d="M70.182-32.088l-6.849-6.849-6.849,6.849a2.826,2.826,0,0,1-4,0,2.826,2.826,0,0,1,0-4l6.849-6.849-6.849-6.85a2.825,2.825,0,0,1,0-4,2.825,2.825,0,0,1,4,0l6.85,6.85,6.85-6.85a2.825,2.825,0,0,1,4,0,2.825,2.825,0,0,1,0,4l-6.849,6.85,6.849,6.849a2.826,2.826,0,0,1,0,4,2.817,2.817,0,0,1-2,.828A2.817,2.817,0,0,1,70.182-32.088Z" transform="translate(-51.66 54.605)" fill="#fff"/>
</svg>
