<svg xmlns="http://www.w3.org/2000/svg" width="23.345" height="41.345" viewBox="0 0 23.345 41.345">
  <g id="Group_2" data-name="Group 2" transform="translate(-896.66 41.605)">
    <path id="Union_1" data-name="Union 1" d="M-6.818-194.088l-17.695-17.695a2.818,2.818,0,0,1-.823-2.159,2.818,2.818,0,0,1,.824-2.142l17.694-17.694a2.826,2.826,0,0,1,4,0,2.826,2.826,0,0,1,0,4l-15.85,15.85,15.849,15.849a2.826,2.826,0,0,1,0,4,2.816,2.816,0,0,1-2,.828A2.816,2.816,0,0,1-6.818-194.088Z" transform="translate(922 193)" fill="#fff"/>
  </g>
</svg>
