<svg id="Layer_1" data-name="Layer 1" xmlns="http://www.w3.org/2000/svg" viewBox="0 0 1920 1080"><defs><style>.cls-1{fill:#e6e6e6;}.cls-2{fill:#daec70;}.cls-3{fill:#85aa52;}.cls-4{fill:#f2f2f2;}.cls-5{fill:#fbb03b;}.cls-6{fill:#1b1464;}.cls-7{fill:#fff;}.cls-8{fill:#a67c52;}</style></defs><path class="cls-1" d="M201.17,375.19c-24-5.31-20.23-2.76-9.38-64.23,3.17-18-4.54-44.28,2.11-74.27,6-27.14,23.58-44.54,27.94-61.44,17.29-67,12.37-66.53,37.11-61,27.09,6,67.43-15.11,49.57,90.48-2.57,15.22-17.71,31.42-22.36,52.43-4.54,20.5,2.56,40.27-1.41,55C255.52,420.16,228.44,381.23,201.17,375.19Z"/><path class="cls-2" d="M1376.56,540.62c11.31-3.29,7.76,14.42,13.43,33.87s18.42,33.27,7.11,36.57-25.35,2.46-34.29-28.21C1354.34,553.8,1365.26,543.92,1376.56,540.62Z"/><path class="cls-2" d="M1381.81,605.43c-10.59-5.18,3.06-14,10.82-29.92s6.7-32.75,17.28-27.57,20.67,14.7,8.43,39.73C1406.75,611.38,1392.39,610.6,1381.81,605.43Z"/><path class="cls-3" d="M1431.86,622.14c-30.84,13.48-62.34,27.09-91.27,44.37-14.11,8.43-26.52,20-39.16,30.44-17.13,14.13-34.21,28.32-51,42.82-13.75,11.84-25.57,24.94-37.81,38.34-5.2,5.69,3.26,14.2,8.48,8.49,10.58-11.59,20.72-23.44,32.54-33.77,16.16-14.13,32.69-27.85,49.22-41.54q11.85-9.81,23.76-19.53c5.51-4.48,10.38-8.72,15.47-12,16.79-11,35.43-19.38,53.51-27.92q21-9.94,42.35-19.3c7.06-3.09,1-13.43-6.06-10.36Z"/><rect class="cls-3" x="1425.92" y="615.68" width="12" height="34" rx="6" transform="translate(481.83 -611.51) rotate(28.8)"/><path class="cls-2" d="M1579,607.54c-13.2,40.51-65.94,45.6-122.92,27s-96.61-53.73-83.42-94.24,41.35-81.73,131.2-52.46C1589,515.59,1592.19,567,1579,607.54Z"/><path class="cls-2" d="M1449.06,833.21c-15.75,87.23-36.85,47.89-70.55,41.81s-67.23,23.38-51.47-63.85c2.88-16,18-98.24,21.67-114.16,16.3-70.88,29.41-68,72.81-60.14,42.09,7.6,56,12.9,46.26,87C1465.89,738.41,1451.64,819,1449.06,833.21Z"/><path class="cls-1" d="M1432,601c4.38,1.43,10.47-.15,13,1,11,5,2.87,16.6-10.74,65.45-4.89,17.58.23,44.52-9.29,73.73-8.6,26.42-89,31.68-105,38.82-29,13-58.9,43.85-83,36-26.37-8.59-14-13.63,14-117,4-14.89,77.45,33.38,84.12,12.91,6.5-19.95,24.5-33.66,29.88-47.91,33.85-89.65,56-70,59-68C1427.59,598.39,1428.17,599.75,1432,601Z"/><path class="cls-4" d="M1432,603c3.44,1.12,10.83-1.31,13-1,7,1,5.94,11.48-13,14-15,2-32-3-50-5-50.77-5.64-70-31.93-56-26,26,11,55.74,5.32,79,8,14.84,1.71,18.11,2.31,19,3C1426.75,598.12,1429,602,1432,603Z"/><path d="M1263.43,376.7a8.84,8.84,0,0,1,6.26,3.61c.31.48.64.94,1,1.38a4.74,4.74,0,0,1,.72,1.5,12.15,12.15,0,0,1,.48,5.17,16.22,16.22,0,0,0,.36,5.47c.4,1.41.8,2.75,1.2,4q1.08,3.38-1.32,9c-1.2,3.45-2.69,5.49-4.45,6.13l-2.16.72a11.88,11.88,0,0,1-5.35.78,4.86,4.86,0,0,1-3.07-1.26,7.66,7.66,0,0,1-1.2-7.21,7.14,7.14,0,0,0,0-2.65,2.55,2.55,0,0,0-2-2.28,1.79,1.79,0,0,1-1.27-.84c-.2-.41-.36-.75-.48-1a2,2,0,0,0-.36-.6q-.18-.18-1.14.54c-.64.48-1,.75-1.08.78s-.35,0-.78-.18a1.42,1.42,0,0,0-1.27.12,4.08,4.08,0,0,0-1.2,1.33q-2.16,3.72-.84,12.14c.32,1.68.64,3.25,1,4.69a43.8,43.8,0,0,1,.9,7.21,13.37,13.37,0,0,1-.72,3.79c-.44,1.32-.82,2.63-1.14,3.91q-1.44,4.93.36,8.41a40.19,40.19,0,0,0,2.76,5.05,3.23,3.23,0,0,0,5-.66,26.36,26.36,0,0,0,1.57-3,31.47,31.47,0,0,1,1.56-3.07,3.15,3.15,0,0,1,2-1.68,10,10,0,0,1,3-.06q1.8.18,2.46.18a2.84,2.84,0,0,1,1.63.78c.64.52,1,1.68,1,3.49s.1,3.24.18,4.33a4.1,4.1,0,0,1-.84,2.88,7.37,7.37,0,0,0-1.26,2.29,11.5,11.5,0,0,0-.42,2,7.8,7.8,0,0,1-.91,3.73,19.86,19.86,0,0,1-1.44,2c-.44.52-1.6.78-3.49.78a6.68,6.68,0,0,0-5.11,2.65q-2.28,2.64-4.32,2.34a3.54,3.54,0,0,1-2.89-2.46c-.56-1.29-1.8-2-3.73-2.05a6.39,6.39,0,0,1-1.56-.42,8.41,8.41,0,0,0-1.68-.48,5.53,5.53,0,0,1-1.93-.78,10.07,10.07,0,0,1-4-4.21,24.51,24.51,0,0,0-1.87-3,20.21,20.21,0,0,1-1.5-2.29,6.41,6.41,0,0,1-1.2-4.57q.72-5.78-1.57-7.57c-.88-.56-1.32-1-1.32-1.33a9.38,9.38,0,0,0-.48-2,8.69,8.69,0,0,1,.06-5.05,12.64,12.64,0,0,0,.54-4.75c-.16-1.24-.36-2.54-.6-3.91-.48-3.52-.52-5.85-.12-7a11.63,11.63,0,0,0,.3-4.81c-.2-2.08-.3-3.79-.3-5.11s-.1-3.06-.3-5.23a44.66,44.66,0,0,1-.06-7q.84-9.37,6.37-12.87,8.3-4.92,10.58-4.69a10.46,10.46,0,0,1,1.75.18,4.55,4.55,0,0,0,2-.06,5.33,5.33,0,0,0,1.68-.72c.48-.32,1-.68,1.45-1.08q2.88-2.64,5.17-.6a21.57,21.57,0,0,0,3.36,3.37A11.15,11.15,0,0,0,1263.43,376.7Z"/><path d="M1309.6,446.43l.12-9.13v-3c0-2.4-.24-3.93-.72-4.57a3.59,3.59,0,0,0-3.37-1.62,4.06,4.06,0,0,0-3.3,1.38,6.14,6.14,0,0,0-1.2,3.25c-.12,1.28-.2,2.68-.24,4.21s-.06,3.16-.06,4.93a55.66,55.66,0,0,0,.06,8.17,10.92,10.92,0,0,1,0,3.67,4.07,4.07,0,0,1-1.27,1.56,5.73,5.73,0,0,0-1.56,2.05q-.6,1.26-1.08,2.58c-1,2.08-2,3.17-3,3.25q-4.68.48-8-5a11.19,11.19,0,0,0-1.93-2.53q-2.52-2.76-1-8.89a29.25,29.25,0,0,0,.6-6,27.9,27.9,0,0,0-.24-4.39,9,9,0,0,1,0-2.94,4.94,4.94,0,0,0-.36-2.89,6.39,6.39,0,0,1-.42-3.3,10,10,0,0,0-.24-3.55,5.79,5.79,0,0,1-.18-2.7,2.35,2.35,0,0,0-.3-1.93,2.83,2.83,0,0,1-.36-2.1c.12-.92.22-1.91.3-2.95.24-2.88-.12-5.09-1.08-6.61a24.92,24.92,0,0,1-2.47-5.29,11.61,11.61,0,0,1,.3-7.22,33.86,33.86,0,0,0,1.21-14.06,8.62,8.62,0,0,1,.84-4.45q1.56-4,10.22-4.45a23.13,23.13,0,0,0,5-.72,8.83,8.83,0,0,1,4.45-.06,3.19,3.19,0,0,1,2.58,2.82,20.15,20.15,0,0,0,.66,3.13,8.61,8.61,0,0,1,.42,1.68,15.64,15.64,0,0,1-.48,5,38.65,38.65,0,0,0-.84,5.77c-.08,1.57-.12,3.07-.12,4.51a25.59,25.59,0,0,1-.42,7.52,7.42,7.42,0,0,0-.42,3.36,3.6,3.6,0,0,0,1,1.87c1.6,1.44,3.81,1.28,6.61-.48a3.17,3.17,0,0,0,1.08-1.21,56,56,0,0,1-.72-8.29q-.12-7.33-.48-11.48a27.57,27.57,0,0,1,.12-6.92,10.76,10.76,0,0,1,2.53-5.17q2-2.4,3.78-2.1a5.2,5.2,0,0,1,2.89,1.44,2.66,2.66,0,0,0,2.1,1,7.16,7.16,0,0,0,2.65-1.2q4.44-2.64,8.3,3.25-1.21,1.2-.67,4.39a12,12,0,0,1,.18,4.56,20,20,0,0,0-.48,3.85c-.08,1.65-.14,3.23-.18,4.75a47.47,47.47,0,0,1-.66,6,45,45,0,0,0-.12,11.91,62.77,62.77,0,0,1,.24,12.14,60.06,60.06,0,0,0-.24,9,14.63,14.63,0,0,1-.18,4.81q-.42,1.2-.9,2.4a17.83,17.83,0,0,0-2,7.09c-.17,2-.29,4-.36,6a33.16,33.16,0,0,1-.61,5.23c-.72,3.44-2.36,5.17-4.93,5.17-2.88,0-4.53-2.21-4.93-6.62a9.34,9.34,0,0,1-4.5-2.88Q1309.36,451.37,1309.6,446.43Z"/><path d="M1349,378.62a15.28,15.28,0,0,0,2.28-2.58,12.09,12.09,0,0,1,2.53-2.59q4.2-3.48,8.41-2a40.45,40.45,0,0,0,9.5,2.4c2.89.33,5,1.05,6.32,2.17a22.2,22.2,0,0,1,3.42,3.6,20.74,20.74,0,0,1,4.21,10,5.75,5.75,0,0,0,.72,2.89c1,1.76,1.38,4.13,1,7.09a32.71,32.71,0,0,0-.36,6.2,7.88,7.88,0,0,0,.6,2.58c.28.56.55,1.12.79,1.68a11.75,11.75,0,0,1,1,4.57,10.34,10.34,0,0,1-1.93,5.77c-.56.73-.76,2.13-.6,4.21s.28,4.17.36,6.25c.08,5.22-.2,8.44-.84,9.68a9.31,9.31,0,0,1-1.38,2.23,8.25,8.25,0,0,1-.78.6c-1.2.56-2.27,2.22-3.19,5a19.08,19.08,0,0,1-3.67,6.73,23.75,23.75,0,0,1-4.74,4.21l-3.85,2.52a7.6,7.6,0,0,0-2,1.75l-1.2,1.68a4.89,4.89,0,0,1-4,1.92c-2.72,0-4.73-.64-6-1.92a16.84,16.84,0,0,1-1.8-3.13,15.38,15.38,0,0,0-4.81-5.29,9.63,9.63,0,0,1-4.09-6.85,9.13,9.13,0,0,1-.18-3.12,15.61,15.61,0,0,0-.18-4,17.22,17.22,0,0,0-1-4.33,12.92,12.92,0,0,1-.84-3.61c-.41-3.36-1.53-5.17-3.37-5.41q-2-.24-2.4-6.13a33.22,33.22,0,0,1,.24-5.71,28.31,28.31,0,0,1,1-4.63,23.73,23.73,0,0,0,.6-8.12,47,47,0,0,1,0-8.23,28.07,28.07,0,0,1,2.89-10.94,15,15,0,0,1,3.18-3.61C1346.29,380.91,1347.68,379.75,1349,378.62Zm7.63,34.39a5.4,5.4,0,0,0,1.21,2.7,6.83,6.83,0,0,1,1.32,3.19,20.07,20.07,0,0,1,.3,4.75c-.08,1.73-.12,3.37-.12,4.93a33.24,33.24,0,0,0,.24,4.21,20.6,20.6,0,0,0,.72,3.42q1.32,3.74,3.73,3.73,3.72,0,5.17-14.43a87.46,87.46,0,0,0,.48-10.16,27.23,27.23,0,0,0-1.92-10.7q-1.93-4.5-4.69-4.5T1358.3,406C1357,409.56,1356.47,411.89,1356.67,413Z"/><path d="M1453.28,460.74c-2.64,0-3.85-2.24-3.61-6.73a78.55,78.55,0,0,0,.06-8.06,27,27,0,0,0-1.5-7.33,40.83,40.83,0,0,1-1.8-7,15,15,0,0,1,.72-6.86,22.42,22.42,0,0,0,.24-11.78,10.2,10.2,0,0,1-.24-2.22,17,17,0,0,0-.12-2.11q-.12-2.28-1.2-2.28c-.65,0-1.08.56-1.33,1.68a33.8,33.8,0,0,1-1.68,6.73q-2.64,6.26-2,10.34,1.56,6-.24,9.26a5.93,5.93,0,0,1-2,2.29,5,5,0,0,0-1.56,1.26,3.41,3.41,0,0,0-.3,1.92,3.1,3.1,0,0,1-.66,2.23,3.84,3.84,0,0,0-.9,1.8c-.12.64-.27,1.24-.42,1.8a2.27,2.27,0,0,1-2.65,1.93,3.34,3.34,0,0,1-2.83-2.53,28.61,28.61,0,0,1-1.2-5.29l-.84-6a10.18,10.18,0,0,0-1.56-4.57,9.35,9.35,0,0,1-1.57-3.12,27.89,27.89,0,0,1-.66-3.25,16.35,16.35,0,0,0-1.56-5.65,15.76,15.76,0,0,1-1.32-5.41,40,40,0,0,0-.9-5.41c-.29-1-.79-1.45-1.51-1.45s-1.24.69-1.32,1.81a5.8,5.8,0,0,0,.36,2.76,8.06,8.06,0,0,1,.12,3.85,13.52,13.52,0,0,0,.12,4.81c.32,1.36.64,2.58,1,3.67s.6,2.22.84,3.42a19.85,19.85,0,0,1,.55,8.36,43.92,43.92,0,0,0-.79,5.29,3.2,3.2,0,0,1-1.5,2.71,3.6,3.6,0,0,0-1.68,1.74,9.66,9.66,0,0,0-.42,2c-.08.77-.16,1.57-.24,2.41a11.48,11.48,0,0,1-.84,3.06q-1.57,3.86-1,5.65a4.86,4.86,0,0,1-.6,3.85,4,4,0,0,1-3.24,2.23,4.72,4.72,0,0,1-3.37-.79,9.85,9.85,0,0,1-2.22-2.4,22.86,22.86,0,0,1-3.13-14.67c.08-1.2.18-2.4.3-3.61a24,24,0,0,0-.06-4.44q-.36-6.49-3-10.22a11.7,11.7,0,0,1-2-6.14c-.4-4.16-.16-7.13.72-8.89a9,9,0,0,0,.6-3.79c0-1.72,0-3-.06-3.73a4.91,4.91,0,0,1,.12-1.68,8,8,0,0,0,.24-1.92c0-.93.06-2,.06-3.19a26.92,26.92,0,0,0-.84-5.95,28.94,28.94,0,0,1-.9-4.69,18.22,18.22,0,0,1,.06-3.91c.24-2.88.74-4.93,1.5-6.13a4.71,4.71,0,0,1,2.11-2.11,7.57,7.57,0,0,1,2.16-.3,4.39,4.39,0,0,0,2-.42,18.94,18.94,0,0,1,1.81-.78,5.26,5.26,0,0,1,4-.12,6.42,6.42,0,0,0,3.3.48,22.44,22.44,0,0,0,2.59-.6c2.08-.8,3.67-1,4.75-.6a7.53,7.53,0,0,1,2.94,2,5.79,5.79,0,0,1,1.51,2.35,2.47,2.47,0,0,0,.54,1.26,7.83,7.83,0,0,0,.84.72,3.35,3.35,0,0,1,1,2.65,24.49,24.49,0,0,0,1.44,7.09q2.54,8.42,4.81,9.14c.32.08.88-.16,1.69-.72a4.42,4.42,0,0,0,1.68-2.53,11.87,11.87,0,0,0,.48-4.39,2.92,2.92,0,0,1,.42-2.34,3,3,0,0,0,.72-1.56c0-.48.1-1.12.18-1.93a22.36,22.36,0,0,1,.48-2.76,14,14,0,0,1,2.77-6,6.72,6.72,0,0,1,3.73-2.41,14.12,14.12,0,0,1,3.9-.18l4,.36a8.5,8.5,0,0,0,4-.66q5.41-2.4,7.45-.12a4,4,0,0,0,1.15.84l1,.48a3.11,3.11,0,0,1,1.14,2.23,8.2,8.2,0,0,0,.42,2q.24.54.48,1,1.32,3.13,1.68,10.82.36,12.63-.48,14.43c.56,3.29.28,5.61-.84,7l-.72.72a9.63,9.63,0,0,0-2.64,5.77,5,5,0,0,0,.06,2.4,7.26,7.26,0,0,1,.3,2.05q0,1.08-.06,1.92c0,.56-.06,1.16-.06,1.8a29.87,29.87,0,0,0-.06,5.05,7.08,7.08,0,0,1,0,2.29,8.89,8.89,0,0,1-.43,1.32,6.23,6.23,0,0,0-.36,3.07,4.07,4.07,0,0,1,0,2,11,11,0,0,1-.6,1.44,10.89,10.89,0,0,0-.78,5.23,22.09,22.09,0,0,1-.24,5.35,23.39,23.39,0,0,0-.42,4.45q-.24,6.38-1.68,5.89c-.41-.16-.75,0-1,.61a9.19,9.19,0,0,0-.73,2.16,1.1,1.1,0,0,1-1.62.9,2.61,2.61,0,0,1-1.74-2,3.68,3.68,0,0,0-1.08-2A3.42,3.42,0,0,0,1453.28,460.74Z"/><path d="M1489.23,463.39c-1.12-.08-2.26-1.29-3.43-3.61a27.46,27.46,0,0,1-2.4-8.9c-.44-3.6-.74-6.05-.9-7.33a27,27,0,0,0-.48-2.89,7.89,7.89,0,0,0-1.39-3.18,8.81,8.81,0,0,1-1.26-2.11,30.9,30.9,0,0,1-.12-5.41q.24-9.25-.84-12.26a4.68,4.68,0,0,1-.36-2.17,8.81,8.81,0,0,0,.06-1.8,4.86,4.86,0,0,0-.66-2,25.35,25.35,0,0,1-1.2-2.53c-1.29-2.56-1.93-4.33-1.93-5.29a9,9,0,0,1,1.2-4.09,28,28,0,0,0,3.07-6.19,17.77,17.77,0,0,0,.36-4.45c0-1.8-.06-3.62-.06-5.47q-.24-7.1,1.2-8.89a5.1,5.1,0,0,1,2.29-1.33q1.32-.36,3.36-1.08a20.68,20.68,0,0,1,6.2-1.44,4.82,4.82,0,0,1,3.36,1.14,5.09,5.09,0,0,0,3,1.32,7.29,7.29,0,0,0,2.34,0l1.15-.3a6.53,6.53,0,0,1,2.4-.6,2.46,2.46,0,0,1,2.28,1.2,22,22,0,0,0,1.33,2,1.74,1.74,0,0,0,2,.42,9.1,9.1,0,0,1,2.1-.36H1513a7.92,7.92,0,0,0,3.12-.12q2.65-.84,4.09.84a2.34,2.34,0,0,0,1.68,1.2,8.44,8.44,0,0,1,2.29,1,6.49,6.49,0,0,1,3.13,4.21,23,23,0,0,1,.48,11.42c-.33,1.37-.59,2.45-.79,3.25s-.36,1.5-.48,2.1a14.36,14.36,0,0,0-.24,1.75q-.06.84-.12,2c0,.8-.06,1.68-.06,2.65v3.24a56.2,56.2,0,0,0,.24,5.89q.72,6-5.41,8.66a11.24,11.24,0,0,0-2.88,1.56,5.71,5.71,0,0,0-1.45,2.17,18.28,18.28,0,0,1-2.22,3.61,10.77,10.77,0,0,1-4.93,3.42c-2.2.84-4.11,1.55-5.71,2.11s-2.61,1.24-3,2c-.56,1-.7,3.51-.42,7.39a68.62,68.62,0,0,1,.3,7.4,17.39,17.39,0,0,1-.36,2.58,2.55,2.55,0,0,1-1.2,1.63,3.3,3.3,0,0,1-1.68.6,2.3,2.3,0,0,0-1.51.72,15.31,15.31,0,0,0-1.38,1.44,10.29,10.29,0,0,1-1.32,1.32A5.62,5.62,0,0,1,1489.23,463.39Zm8.18-67.33c-.48.48-1,1.88-1.45,4.21a28.87,28.87,0,0,0-.72,5.53,7.83,7.83,0,0,0,.84,3.66,5.5,5.5,0,0,1,.79,2.65q-.06,1-.24,2.16a15.21,15.21,0,0,0-.18,2.35c-.17,1.92,0,3.12.48,3.6a1.69,1.69,0,0,0,1.62.54,7.44,7.44,0,0,0,1.86-.66,15.21,15.21,0,0,0,1.75-1,5.69,5.69,0,0,1,1.56-.78,1.79,1.79,0,0,0,1.14-1.08,3.8,3.8,0,0,1,1.08-1.44,3,3,0,0,0,1.15-1.63q.3-1,.6-2.16a3.64,3.64,0,0,0-.06-2.17c-.24-.68-.68-1.7-1.33-3.06a6.49,6.49,0,0,1-.48-3.25c.64-3.36.24-5.69-1.2-7a7.55,7.55,0,0,0-4.63-1.44A4.46,4.46,0,0,0,1497.41,396.06Z"/><path d="M1549.35,424.55l-.24,8.54q0,8.3-3.49,11.06a5.93,5.93,0,0,1-4,1.32,4.24,4.24,0,0,1-2.7-1.32,3.93,3.93,0,0,1-1-2.52,30.81,30.81,0,0,0-.61-4.15q-.54-2.72-1.32-5.41a16.4,16.4,0,0,1-.54-5.83c.16-2.09.26-4.05.3-5.9a6.16,6.16,0,0,0-1-4.08,6.4,6.4,0,0,1-1.44-4.09,6.21,6.21,0,0,1,.48-2.53,17.17,17.17,0,0,0,1.08-5.53q0-2.4-.12-3.48c-.08-.73-.18-1.43-.3-2.11s-.26-1.72-.42-3.12a24.07,24.07,0,0,1,0-4.81,31.23,31.23,0,0,0,0-5.47c-.16-1.85-.26-3.33-.3-4.45a11.1,11.1,0,0,1,.78-4,13.74,13.74,0,0,1,1.38-3.07,5.21,5.21,0,0,1,1.86-1.38c.89-.44,1.49-.76,1.81-1a1.94,1.94,0,0,1,1.32-.18,3.29,3.29,0,0,1,1.8,1.14,7.21,7.21,0,0,0,2.29,1.62c.88.41,1.9.89,3.06,1.45a3.31,3.31,0,0,1,2,2.7,10.39,10.39,0,0,0,.42,2.23,2.28,2.28,0,0,0,.42.6,13.84,13.84,0,0,1,.48,3.18,16.5,16.5,0,0,1-.42,5.41,23,23,0,0,0-.72,4.51,13.34,13.34,0,0,1-.66,3.67,9.59,9.59,0,0,0-.42,3.85,15.06,15.06,0,0,1,.06,2.94,17.08,17.08,0,0,1-.3,1.75,7.18,7.18,0,0,0-.18,1.62,12.27,12.27,0,0,0,.42,2.58,11.68,11.68,0,0,1,.36,3.19,20.33,20.33,0,0,0,.12,3.07,14.63,14.63,0,0,1,0,3.24A46.73,46.73,0,0,0,1549.35,424.55Zm-15.15,34.87a3,3,0,0,1-.18-1.8,5.52,5.52,0,0,1,2-2.53,25.29,25.29,0,0,1,4.45-3c1.76-1,4.17-1.25,7.21-.85a4.29,4.29,0,0,1,3.37,2.53q2.52,4.32-2.28,7.81a10.54,10.54,0,0,1-3.85,1.75,3.91,3.91,0,0,0-2.35,1.08,1.94,1.94,0,0,1-2.1.42,2.61,2.61,0,0,1-1.92-1.5,2.55,2.55,0,0,0-1.45-1.51,6.68,6.68,0,0,1-1.74-1A3.58,3.58,0,0,1,1534.2,459.42Z"/><path d="M122,229.11a45.37,45.37,0,0,1,.24,9.14l-.72,5.89a31.92,31.92,0,0,0-.06,5.29,8.48,8.48,0,0,1-.66,4.63A4,4,0,0,1,118,255.8a5.24,5.24,0,0,1-3.13-.18,20.6,20.6,0,0,1-2.1-1.14c-1.6-.88-2.91-1-3.91-.36a5.07,5.07,0,0,0-2.1,2.88,17.93,17.93,0,0,0-.72,4.45,65.07,65.07,0,0,0,0,9.74c.08,1.44.1,2.59.06,3.43s-.06,1.58-.06,2.22a14,14,0,0,0,.72,4.45,11.48,11.48,0,0,1,.72,3.25,4.25,4.25,0,0,1-.3,1.74,2.62,2.62,0,0,1-.9,1.08,12.7,12.7,0,0,0-1.08.84c-.33.29-.67.57-1,.85L103,290a47.74,47.74,0,0,1,.24,9.32q-.36,3.42-.48,5.83a6.24,6.24,0,0,1-1.2,3.72c-1,1.13-2.89,1.93-5.77,2.41q-2.53.12-3.73-2.59a14.38,14.38,0,0,1-1-6.55,29.36,29.36,0,0,0-.18-5.95,19.83,19.83,0,0,0-.9-3.55c-.36-1-.71-1.82-1-2.58a15.37,15.37,0,0,1-.84-3.19,8.81,8.81,0,0,1,.48-4.45,10.43,10.43,0,0,1-2.28-4.08,12.24,12.24,0,0,1,.18-5.72,57.86,57.86,0,0,0,1.08-6.43,34.66,34.66,0,0,0,.18-5.29c-.16-3.68-1-5.81-2.52-6.37a4.37,4.37,0,0,0-3.67.84A14.27,14.27,0,0,1,78.48,257a2.1,2.1,0,0,1-2.1-.48,2.39,2.39,0,0,1-1-2,13,13,0,0,1,.42-2.59q.36-1.38.66-2.7a4.19,4.19,0,0,0-.18-2.53,2.8,2.8,0,0,0-1.2-1.56,3.8,3.8,0,0,1-1.33-1.2c-1-1.28-1.32-3.55-.84-6.79s.84-5.91,1.09-8,.42-3.63.54-4.63a8.17,8.17,0,0,1,.78-2.7,6.53,6.53,0,0,1,1.8-2.17q3-2.16,7.82-1.56,22.11,3,25.13,2,1.2-.36,2.16-.72Q120.57,216,122,229.11Z"/><path d="M137.52,225.62A15.28,15.28,0,0,0,139.8,223a12.09,12.09,0,0,1,2.53-2.59q4.2-3.48,8.41-2a40.45,40.45,0,0,0,9.5,2.4q4.33.49,6.31,2.17a21.85,21.85,0,0,1,3.43,3.6,20.74,20.74,0,0,1,4.21,10,5.75,5.75,0,0,0,.72,2.89c1,1.76,1.38,4.13,1,7.09a32.71,32.71,0,0,0-.36,6.2,7.88,7.88,0,0,0,.6,2.58c.28.56.54,1.12.79,1.68a11.75,11.75,0,0,1,1,4.57,10.34,10.34,0,0,1-1.93,5.77c-.56.73-.76,2.13-.6,4.21s.28,4.17.36,6.25c.08,5.22-.2,8.44-.84,9.68a9.31,9.31,0,0,1-1.38,2.23,8.25,8.25,0,0,1-.78.6q-1.81.84-3.19,5a19.08,19.08,0,0,1-3.67,6.73,23.52,23.52,0,0,1-4.75,4.21l-3.84,2.52a7.6,7.6,0,0,0-2,1.75l-1.2,1.68a4.89,4.89,0,0,1-4,1.92c-2.72,0-4.73-.64-6-1.92a16.84,16.84,0,0,1-1.8-3.13,15.38,15.38,0,0,0-4.81-5.29,9.63,9.63,0,0,1-4.09-6.85,9.13,9.13,0,0,1-.18-3.12,15.61,15.61,0,0,0-.18-4,17.22,17.22,0,0,0-1-4.33,12.92,12.92,0,0,1-.84-3.61c-.41-3.36-1.53-5.17-3.37-5.41q-2-.24-2.4-6.13a33.22,33.22,0,0,1,.24-5.71,28.31,28.31,0,0,1,1-4.63,23.73,23.73,0,0,0,.6-8.12,47,47,0,0,1,0-8.23,28.25,28.25,0,0,1,2.88-10.94,15.23,15.23,0,0,1,3.19-3.61C134.77,227.91,136.16,226.75,137.52,225.62ZM145.15,260a5.31,5.31,0,0,0,1.21,2.7,6.83,6.83,0,0,1,1.32,3.19,20.07,20.07,0,0,1,.3,4.75c-.08,1.73-.12,3.37-.12,4.93a33.24,33.24,0,0,0,.24,4.21,20.6,20.6,0,0,0,.72,3.42q1.32,3.74,3.73,3.73,3.72,0,5.17-14.43a87.46,87.46,0,0,0,.48-10.16,27.23,27.23,0,0,0-1.92-10.7q-1.93-4.5-4.69-4.5T146.78,253C145.49,256.56,145,258.89,145.15,260Z"/><path d="M228.47,238.49a3,3,0,0,1,.19,1.56,8.54,8.54,0,0,1-1.69,2.89,9,9,0,0,0-1.86,4.39,19.24,19.24,0,0,0-.18,3.84,13.91,13.91,0,0,1,0,2.59,3.8,3.8,0,0,1-2.89,3.6q-2.4,1-3.72-.12a8.06,8.06,0,0,1-2.17-2.82,26.14,26.14,0,0,1-1.26-3q-.42-1.26-1.38-1.38a3,3,0,0,0-2.59.36,17.41,17.41,0,0,0-1.38,1.2,5.31,5.31,0,0,1-2,1.33,9.13,9.13,0,0,0-1.62.72,2.69,2.69,0,0,0-1,2.76q.48,3.74,8.3,11.3,1.44,1.46,3.42,3.13a39.21,39.21,0,0,1,3.91,3.85,20.07,20.07,0,0,1,4.81,11.66,22.27,22.27,0,0,1-1.92,11.54q-1.94,4-4.57,5.17a5.7,5.7,0,0,0-2.77,2.83q-.72,1.74-1.08,2.52a2.94,2.94,0,0,1-1.5,1.33,5,5,0,0,1-2.59.42,11.54,11.54,0,0,1-2.7-.54,15.77,15.77,0,0,1-2.29-1,6.2,6.2,0,0,0-1.68-.66,1.44,1.44,0,0,0-1.26.42c-.41.36-.81.74-1.21,1.15q-1.8,1.8-3.24,1.38a20.74,20.74,0,0,1-3.37-1.38,22.08,22.08,0,0,1-3.73-2.41q-6.5-5.06-4.45-10.34a12.69,12.69,0,0,1,2.95-4.93,4.56,4.56,0,0,1,2.59-1.44,2.1,2.1,0,0,1,2.1,1.14l.9,1.92a4.25,4.25,0,0,0,.84,1.27,5.32,5.32,0,0,0,1.51,1,6.75,6.75,0,0,0,2.22.6,4.54,4.54,0,0,0,4.57-2.4,9.06,9.06,0,0,0,1.2-5.78q-.84-5.64-2.4-4.81a3.39,3.39,0,0,1-3.25.07c-1.28-.52-2-1.21-2-2a12.74,12.74,0,0,0-.48-2.46,21.29,21.29,0,0,0-.85-2.29q-1.08-2.76-1.92-3a11.06,11.06,0,0,0-2.58-.24c-1.09,0-2.27-.71-3.55-2.11a12.34,12.34,0,0,1-2.77-5.29c-.56-2.12-1-4-1.44-5.53s-.76-2.78-1.08-3.67a27.81,27.81,0,0,1-.84-2.76q-1.22-4.58-.12-11.78a21.11,21.11,0,0,1,2.64-7.4,68.18,68.18,0,0,1,4.33-6.31q4.56-6.13,8.42-8.54t5.89-.48a4.74,4.74,0,0,0,3.9,1.26,23.57,23.57,0,0,0,3.31-.66l2.17-.48a8.09,8.09,0,0,1,4.14.12c1.41.4,2.67,1.77,3.79,4.09a23,23,0,0,0,1.74,3.13l1.75,2.52a13.87,13.87,0,0,1,2.1,4.75,7.32,7.32,0,0,0,.84,2.7A10.69,10.69,0,0,1,228.47,238.49Z"/><path d="M277.53,238.49a2.91,2.91,0,0,1,.18,1.56,8.28,8.28,0,0,1-1.68,2.89,8.94,8.94,0,0,0-1.87,4.39,19.24,19.24,0,0,0-.18,3.84,13.91,13.91,0,0,1,0,2.59,3.8,3.8,0,0,1-2.88,3.6c-1.61.65-2.85.61-3.73-.12a8.15,8.15,0,0,1-2.16-2.82,24.72,24.72,0,0,1-1.27-3q-.42-1.26-1.38-1.38a3,3,0,0,0-2.58.36,17.88,17.88,0,0,0-1.39,1.2,5.28,5.28,0,0,1-2,1.33,9.13,9.13,0,0,0-1.62.72,2.67,2.67,0,0,0-1,2.76q.48,3.74,8.3,11.3,1.44,1.46,3.43,3.13a39.15,39.15,0,0,1,3.9,3.85,20.07,20.07,0,0,1,4.81,11.66,22.27,22.27,0,0,1-1.92,11.54c-1.28,2.65-2.81,4.37-4.57,5.17a5.72,5.72,0,0,0-2.76,2.83c-.49,1.16-.85,2-1.09,2.52a2.94,2.94,0,0,1-1.5,1.33,5,5,0,0,1-2.58.42,11.52,11.52,0,0,1-2.71-.54,16.11,16.11,0,0,1-2.28-1,6.37,6.37,0,0,0-1.69-.66,1.44,1.44,0,0,0-1.26.42c-.4.36-.8.74-1.2,1.15-1.2,1.2-2.29,1.66-3.25,1.38a20.68,20.68,0,0,1-3.36-1.38,21.31,21.31,0,0,1-3.73-2.41q-6.5-5.06-4.45-10.34a12.57,12.57,0,0,1,2.94-4.93,4.62,4.62,0,0,1,2.59-1.44,2.1,2.1,0,0,1,2.1,1.14c.36.76.67,1.4.91,1.92a4.25,4.25,0,0,0,.84,1.27,5.4,5.4,0,0,0,1.5,1,6.75,6.75,0,0,0,2.22.6,4.53,4.53,0,0,0,4.57-2.4,9.06,9.06,0,0,0,1.21-5.78q-.86-5.64-2.41-4.81a3.39,3.39,0,0,1-3.25.07c-1.28-.52-2-1.21-2-2a12.74,12.74,0,0,0-.48-2.46,19.33,19.33,0,0,0-.84-2.29c-.72-1.84-1.37-2.84-1.93-3a11.06,11.06,0,0,0-2.58-.24c-1.08,0-2.27-.71-3.55-2.11a12.32,12.32,0,0,1-2.76-5.29c-.56-2.12-1.05-4-1.44-5.53s-.77-2.78-1.09-3.67a27.81,27.81,0,0,1-.84-2.76q-1.2-4.58-.12-11.78a20.92,20.92,0,0,1,2.65-7.4,68,68,0,0,1,4.32-6.31q4.58-6.13,8.42-8.54t5.89-.48a4.76,4.76,0,0,0,3.91,1.26,24.2,24.2,0,0,0,3.31-.66l2.16-.48a8.13,8.13,0,0,1,4.15.12c1.4.4,2.66,1.77,3.79,4.09A23,23,0,0,0,272,227q.9,1.32,1.74,2.52a13.93,13.93,0,0,1,2.11,4.75,7.32,7.32,0,0,0,.84,2.7A10.69,10.69,0,0,1,277.53,238.49Z"/><path d="M298.27,271.55l-.24,8.54q0,8.3-3.49,11.06a5.92,5.92,0,0,1-4,1.32,4.24,4.24,0,0,1-2.7-1.32,3.93,3.93,0,0,1-1-2.52,28.94,28.94,0,0,0-.6-4.15c-.36-1.81-.81-3.61-1.33-5.41a16.4,16.4,0,0,1-.54-5.83c.16-2.09.26-4.05.3-5.9a6.16,6.16,0,0,0-1-4.08,6.4,6.4,0,0,1-1.44-4.09,6.21,6.21,0,0,1,.48-2.53,17.17,17.17,0,0,0,1.08-5.53q0-2.4-.12-3.48c-.08-.73-.18-1.43-.3-2.11s-.26-1.72-.42-3.12a24.07,24.07,0,0,1,0-4.81,31.23,31.23,0,0,0,0-5.47c-.16-1.85-.26-3.33-.3-4.45a11.1,11.1,0,0,1,.78-4,13.74,13.74,0,0,1,1.38-3.07,5.17,5.17,0,0,1,1.87-1.38q1.32-.66,1.8-1a1.94,1.94,0,0,1,1.32-.18,3.34,3.34,0,0,1,1.81,1.14,7.17,7.17,0,0,0,2.28,1.62l3.07,1.45a3.32,3.32,0,0,1,2,2.7,10.39,10.39,0,0,0,.42,2.23,2.28,2.28,0,0,0,.42.6,13.84,13.84,0,0,1,.48,3.18,16.5,16.5,0,0,1-.42,5.41,23,23,0,0,0-.72,4.51,13.34,13.34,0,0,1-.66,3.67,9.59,9.59,0,0,0-.42,3.85,15.06,15.06,0,0,1,.06,2.94,17.08,17.08,0,0,1-.3,1.75,7.18,7.18,0,0,0-.18,1.62,12.27,12.27,0,0,0,.42,2.58,11.68,11.68,0,0,1,.36,3.19,20.33,20.33,0,0,0,.12,3.07,14.63,14.63,0,0,1,0,3.24A46.73,46.73,0,0,0,298.27,271.55Zm-15.15,34.87a3,3,0,0,1-.18-1.8,5.52,5.52,0,0,1,2-2.53,25.67,25.67,0,0,1,4.45-3q2.64-1.45,7.22-.85a4.29,4.29,0,0,1,3.36,2.53c1.69,2.88.92,5.49-2.28,7.81a10.47,10.47,0,0,1-3.85,1.75,3.88,3.88,0,0,0-2.34,1.08,2,2,0,0,1-2.11.42,2.61,2.61,0,0,1-1.92-1.5,2.53,2.53,0,0,0-1.44-1.51,6.59,6.59,0,0,1-1.75-1A3.58,3.58,0,0,1,283.12,306.42Z"/><path d="M542.32,387.66c-2.64-29.68-7.2-60.43-18.57-88.13-6-14.71-15.12-28.23-23.14-41.91Q486.93,234.3,473.16,211c-5.47-9.21-10.42-19.68-17.16-28.06-1.21-1.5-3.32.63-2.12,2.12,5.38,6.69,9.85,16,14.39,23.59q13,21.78,25.76,43.66c8.21,14,17.48,27.82,24.4,42.49,7.72,16.36,12,34.37,15.34,52.08,2.52,13.48,4.34,27.09,5.55,40.75.17,1.91,3.17,1.93,3,0Z"/><path d="M605.55,308.42a401.09,401.09,0,0,0-22.81-54.09c-6-11.68-12.84-23.13-21.27-33.27-10.44-12.56-22.67-23.88-34-35.66-6.73-7-13.27-15.25-21.06-21.15-1.54-1.17-3,1.44-1.51,2.59,6.45,4.9,11.92,11.81,17.5,17.62C533.49,196,544.79,207.3,555.67,219c17.39,18.7,28.66,43.39,38.21,66.8q4.71,11.58,8.78,23.42c.63,1.81,3.53,1,2.89-.8Z"/><path d="M1544.13,724.9c25.31-16.83,50.85-36,69.78-60,9.94-12.61,17.55-27.29,25.82-41q13.57-22.53,27-45.13c5.29-8.89,11.87-17.92,15.86-27.51.74-1.78-2.16-2.56-2.89-.8-3.16,7.58-9,15.65-13.29,23q-12.87,21.71-25.91,43.3c-8,13.32-15.54,27.16-24.31,40-10.6,15.54-25,28.54-39.43,40.4-11,9-22.4,17.35-34.18,25.19-1.6,1.07-.1,3.67,1.51,2.59Z"/><path d="M1643.94,742.58a400.3,400.3,0,0,0,36.9-46.35c7.32-10.87,14.08-22.28,18.89-34.51,5.94-15.08,10-31.08,14.94-46.53,2.89-9.13,7-18.71,8.45-28.23.28-1.89-2.61-2.7-2.9-.79-1.14,7.51-4.28,15-6.55,22.25-4.84,15.3-9.6,30.63-14.5,45.92-7.93,24.73-24.34,46.79-40.57,66.7q-8.11,9.94-16.79,19.41c-1.3,1.43.82,3.55,2.13,2.13Z"/><path d="M71.4,320.74c15.32,26.24,33,52.87,55.82,73.17,11.69,10.38,25.5,18.61,38.37,27.43q21.76,14.93,43.59,29.75c8.75,5.93,17.58,13.26,27.13,17.92,1.72.84,3.25-1.75,1.51-2.59-7.6-3.71-14.63-9.48-21.62-14.19Q195.4,438.18,174.71,424c-13.41-9.19-27.56-17.84-40.31-27.93-14.78-11.69-26.89-26.78-37.84-42C88.47,342.82,81,331.17,74,319.22a1.5,1.5,0,0,0-2.59,1.52Z"/><path d="M32.06,371.71A393.37,393.37,0,0,0,75,414.05c10,8.37,20.63,16.3,32.29,22.24,14.5,7.38,29.92,13.29,44.82,19.86,8.45,3.72,17.21,8.64,26.18,11a1.5,1.5,0,0,0,.8-2.89c-7.65-2-15.08-6.14-22.28-9.31-14.66-6.45-29.42-12.71-44-19.33C89.38,425,69.53,406.47,51.67,388.37q-9-9.14-17.49-18.78c-1.28-1.46-3.39.67-2.12,2.12Z"/><path d="M1272.35,423.81c-1.69,29.85-1.6,61.07,5.75,90.2,4,15.79,11.28,30.89,17.38,45.94q9.9,24.42,19.9,48.79c4,9.72,7.3,20.66,12.66,29.75a1.5,1.5,0,0,0,2.59-1.52c-4.5-7.63-7.29-16.74-10.66-24.9q-9.78-23.67-19.37-47.43c-6-14.7-12.9-29.38-17.67-44.53-5.55-17.62-7.27-36.41-8-54.79-.54-13.83-.37-27.69.42-41.51.1-1.93-2.9-1.92-3,0Z"/><path d="M1211.43,444.6a396.28,396.28,0,0,0,12,57.59c3.65,12.48,8.06,24.92,14.3,36.35,7.82,14.32,17.6,27.77,26.41,41.5,5.25,8.18,10.06,17.55,16.55,24.84,1.29,1.45,3.4-.68,2.12-2.12-5.39-6.06-9.42-13.86-13.78-20.65-8.84-13.77-18.11-27.34-26.56-41.34-13.14-21.77-19.32-47.94-24.11-72.67q-2.35-12.09-4-24.29c-.26-1.91-3.15-1.1-2.89.79Z"/><path d="M1710.7,390.23l.49-6.75v-2.32a7.51,7.51,0,0,0-.07-1l-.21-2.53a8.43,8.43,0,0,1,0-1.34c0-.46,0-.86,0-1.19v-.84a4.11,4.11,0,0,0-.07-.71l-.21-.91.07-.71a1,1,0,0,0-.14-.56,2.18,2.18,0,0,1-.24-.63,2.61,2.61,0,0,1,0-1,2,2,0,0,0,0-.88.94.94,0,0,0-.29-.46,1.88,1.88,0,0,1-.31-.32.79.79,0,0,1-.18-.38.89.89,0,0,0-.28-.46,2.32,2.32,0,0,0-.77-.46,3.61,3.61,0,0,1-1-.56,4.35,4.35,0,0,0,0-.95,2,2,0,0,1,.25-1,5.55,5.55,0,0,1,1.79-.28,2.44,2.44,0,0,1,1.48.39,2,2,0,0,0,1.19.38,2.37,2.37,0,0,0,1.45-.63,5.74,5.74,0,0,0,1.75.21l2.61-.07,3.44.28,1.27-.14a6.6,6.6,0,0,1,1.89.28,6.38,6.38,0,0,0,1.9.28l1.69-.07,1-.14,1.2.28,1.27-.14,1.19.07a3.84,3.84,0,0,0,1.2-.21,8.41,8.41,0,0,0,.73-2.6,5.16,5.16,0,0,1,.88-2.39,6.42,6.42,0,0,1,1.09-.14.67.67,0,0,1,.6.35,1.22,1.22,0,0,1,.21.56l-.14.43.21,1.54-.14,1.27.21,2-.14,1.26.21,1.13-.21,1.4.07.5a1.69,1.69,0,0,0-.53.77,4.13,4.13,0,0,1-.38.84l-.88.46a1.64,1.64,0,0,1-.74.25c-.19,0-.4-.31-.63-.92a4.23,4.23,0,0,1-.35-1.47l.14-1.55v-.42a1.91,1.91,0,0,0-1.41-.56l-1.26.35-2.11-.5-1.76.15a.45.45,0,0,1-.35-.15H1726l-2.6-.14a3.76,3.76,0,0,0-1.27.18c-.32.12-.68.22-1,.32a13.55,13.55,0,0,1-1.37.24q-.81.11-1.62.18l-1.62.14c-.54,0-.92.07-1.16.07a1,1,0,0,0-.28.88,1.48,1.48,0,0,1-.07.84c-.09.21-.16.32-.21.32s-.07.16-.07.49l.42,3.45v1.82l.07,1c-.09,0-.14.1-.14.31a4.16,4.16,0,0,0,.49,1.31,3.67,3.67,0,0,0-.07.77l-.21.91.21.85-.07,1.68.14,2.11-.49,8a9.38,9.38,0,0,0,.28,2.18,4.6,4.6,0,0,1,.07,2.11,4.28,4.28,0,0,0,2.92.7c1.48,0,2.38,0,2.71.07l.84.14.71-.14,1.61.28,1.69.14a1.14,1.14,0,0,0,1.2-.77,3,3,0,0,1,.56-1.48,3.63,3.63,0,0,1,.35-1.68l1-.29c.24,0,.46.2.67.6a2.28,2.28,0,0,1,.32,1l-.56,4.29.28,2a8.82,8.82,0,0,0-.78,1.69,3.79,3.79,0,0,0-.84.24,2.12,2.12,0,0,1-.84.18,1.14,1.14,0,0,1-.25-.39,1.66,1.66,0,0,0-.35-.49,1.53,1.53,0,0,1-.35-.84,11.13,11.13,0,0,0-.25-1.09,1.42,1.42,0,0,0-1.12-.25,1.15,1.15,0,0,1-1.06-.32,2.16,2.16,0,0,1-.95.28,1.44,1.44,0,0,1-.81-.28,5.64,5.64,0,0,1-1.82.28l-2.33-.07h-.63a2.13,2.13,0,0,0-1,.22,1.11,1.11,0,0,1-.59.17.3.3,0,0,0-.29.11l.07.28-.42,3.51.14,2-.21,1.2.21.84-.21,3.17c0,1.5.49,2.25,1.48,2.25l1.33-.15,1.69.22a1.24,1.24,0,0,0,.92-.36,2.8,2.8,0,0,0,1.12.22l2.6-.22h.42a1.33,1.33,0,0,1,.57.14,6,6,0,0,1,2-.28c.79,0,1.44,0,1.93-.07s1-.1,1.41-.17a8.25,8.25,0,0,1,1.3-.11l1.19.07c.52,0,.83-.1,1-.31a1,1,0,0,1,.53-.46c0-.19.09-.45.14-.77.19-1.32.61-2,1.26-2,.43,0,.7.11.81.35a2.07,2.07,0,0,0,.67.7q.21,2.54.21,3.45a.12.12,0,0,0-.14.14l.14,1.61a2.52,2.52,0,0,1-.35,1.34c0,.23-.07.35-.35.35a1.11,1.11,0,0,0-.67.18,1.57,1.57,0,0,0-.39.38.52.52,0,0,1-.49.22l-1.19-.43c0-.42-.1-.89-.14-1.4a3,3,0,0,0-.43-1.34,4.76,4.76,0,0,1-.84.07h-.91c-.94,0-1.46.14-1.55.42a1.39,1.39,0,0,0-.6-.14,1.46,1.46,0,0,0-.74.28.75.75,0,0,0-.56-.21l-1,.07-.78-.14-.77.14-1.2-.35a4.93,4.93,0,0,0-2.25,1.06l-1.82-.5a.29.29,0,0,0-.25.18.41.41,0,0,1-.39.18l-2.18-.29-1.47.22h-1.13a4.27,4.27,0,0,0-2.46.49,1.51,1.51,0,0,0-1-.28l-.5.14-.35-.14a2.38,2.38,0,0,0-1.23.42,2.36,2.36,0,0,1-.88.42c-.93,0-1.4-.59-1.4-1.76v-.35c.18-.37.7-.65,1.54-.84s1.32-.28,1.41-.28a4.22,4.22,0,0,0,.39-1.34c.07-.52.13-.94.17-1.27a5,5,0,0,0,.07-.7l-.21-1.26.21-.85-.21-.56.14-.7-.21-.64.21-1.82a1.4,1.4,0,0,0,0-.53,3.47,3.47,0,0,1,0-.6l.21-1.83-.28-1.76a3,3,0,0,1,.07-.63,5.93,5.93,0,0,0,.14-.67,3.24,3.24,0,0,0,0-.84c0-.3,0-.6,0-.88v-.77a.13.13,0,0,1-.14-.14l.21-.5-.21-.84a6.82,6.82,0,0,1-.17-2c0-.82,0-1.51,0-2.08Z"/><path d="M1757,389l2,2.88V392a2.61,2.61,0,0,0,.6,1.76,5.41,5.41,0,0,1,.94,1.69,4.26,4.26,0,0,1-.42.49,1.63,1.63,0,0,0-.35.56,2.68,2.68,0,0,1-.7.14l-1.13-.07a1.09,1.09,0,0,0-.7.22,1.55,1.55,0,0,0-.84-.22h-.85a3,3,0,0,1-1.19-.21.62.62,0,0,0-.42.43c-.1.23-.43.34-1,.31a4.6,4.6,0,0,0-1.23.07,3.34,3.34,0,0,0-.6.21,1.45,1.45,0,0,1-.63.11l-1.41-.14h-1.68c-.43.65-.64,2.39-.64,5.2l.5,3.09-.07,1.48c0,.52,0,.82.14.92a2.21,2.21,0,0,1,.49,1.37,3.48,3.48,0,0,0,.38,1.51,5.73,5.73,0,0,1,.5,1.23,9.49,9.49,0,0,0,.38,1.16,3.3,3.3,0,0,0,1,1.3,2.63,2.63,0,0,0,1.69.6,2.56,2.56,0,0,0,1.62-.53,7.91,7.91,0,0,1,1-.74c.26-.14.41-.2.46-.17s.15,0,.32-.11a6.09,6.09,0,0,0,.84-.7,6.84,6.84,0,0,0,.74-.78,3.68,3.68,0,0,0,.28-.59l.39-1.09c.16-.47.41-.71.73-.71s.67.25,1,.74a2.49,2.49,0,0,1,.53,1.48,1.29,1.29,0,0,1-.81,1.16,1.89,1.89,0,0,0-1,1.19c-.75.33-1.18.65-1.3,1a1.11,1.11,0,0,1-.35.56c-.12.08-.2.1-.25.08a.37.37,0,0,0-.21,0c-.09,0-.14.09-.14.28a5.77,5.77,0,0,0-.84.7,1.83,1.83,0,0,0-1.69.32,2.81,2.81,0,0,1-1.62.6,2.08,2.08,0,0,1-1.4-.56,2.16,2.16,0,0,1-.78.14,2.47,2.47,0,0,0-.84.14,3.74,3.74,0,0,0-1.26-.85,14.52,14.52,0,0,1-1.41-.63c-.1-.28-.2-.43-.32-.46s-.13-.19,0-.52l-.53-.28c-.16-.1-.34-.19-.53-.29a3.75,3.75,0,0,0-.77-1.05v-.91a1.21,1.21,0,0,1-.74-.88,1.62,1.62,0,0,0-.74-1A7.72,7.72,0,0,0,1742,409a5.41,5.41,0,0,1-.25-1.65v-1.26l-.49-3v-.56l.21-.63-.21-.63.49-3,.28-.42c.24-1.22.43-2.32.6-3.3a9,9,0,0,1,1-2.85c.5-.92,1-1.78,1.52-2.6a7.07,7.07,0,0,0,1-2.29,30.94,30.94,0,0,1,4.29-2.88,1.67,1.67,0,0,0,.56.14l1.13-.21a2.3,2.3,0,0,1,1.47.84l.78-.14h.28a1.15,1.15,0,0,1,.17.49.38.38,0,0,0,.32.35,2.6,2.6,0,0,1,1,1.52,2,2,0,0,0,1,1.37Zm-2,5.91,2.39-.5v-.28a3,3,0,0,0-.11-.84c-.07-.28-.12-.56-.17-.84a4.84,4.84,0,0,0-.81-.78,1.1,1.1,0,0,1-.32-1.05,1.18,1.18,0,0,1-.8-.92c-.12-.46-.23-.91-.32-1.33-.1,0-.14-.1-.14-.28a6.21,6.21,0,0,1-.7-.57,3.36,3.36,0,0,0-2.43-.77,3.66,3.66,0,0,0-2.11.39,4.85,4.85,0,0,0-1,2.11c-.33,1.15-.62,2.11-.88,2.88a7.32,7.32,0,0,0-.38,2.35v.43l2.25.28,1.61-.14.57.14,1.12-.28,1,.14.57-.28Z"/><path d="M1772.65,415.47a12.92,12.92,0,0,1-1.27.46,1.67,1.67,0,0,0-.67.31,2,2,0,0,1-.59.35,1.8,1.8,0,0,1-1.62-2.25,6.2,6.2,0,0,0-.88-.35,2.32,2.32,0,0,1-.81-.42v-2.11a3.44,3.44,0,0,0,.56-.91,2.62,2.62,0,0,1,.5-.78.8.8,0,0,1,.52-.28.63.63,0,0,0,.39-.1.82.82,0,0,0,.21-.25.53.53,0,0,1,.21-.21l1-.14a6.14,6.14,0,0,1,1-.14,1.44,1.44,0,0,1,1.41,1A4,4,0,0,1,1773,411q0,.49.18.63c.11.1.17.48.17,1.16A7,7,0,0,1,1772.65,415.47Zm-.28-28.69-.43,7.81.08,2.25c0,1-.17,1.47-.5,1.47-.14,0-.14.05,0,.14a12.26,12.26,0,0,0-.59,1.27c-.22.51-.49.77-.81.77-.61,0-1.1-.49-1.48-1.47a7,7,0,0,1-.49-3.17V393l-.14-2.32.14-3-.14-1.4.28-.85-.14-.84.07-2.46a52.61,52.61,0,0,0-.39-7.52,26.44,26.44,0,0,1-.39-3.27,3.91,3.91,0,0,1,.32-1.55,6.5,6.5,0,0,0,.39-1.09c0-.33.18-.49.42-.49s.23,0,.28-.14.12-.28.21-.28a2,2,0,0,1,1.37.42c.31.28.59.55.85.81a2.36,2.36,0,0,0,.52.45,3.17,3.17,0,0,1,.29.64l.28.14a.56.56,0,0,1,0,.35.37.37,0,0,0,.11.35l.28.14a3.41,3.41,0,0,1,.28,1.27l-.49,3.44.21,3.45v3.23a14.68,14.68,0,0,1-.21,2.71A9.48,9.48,0,0,0,1772.37,386.78Z"/><path d="M1637.3,567.85l8.4-77.71-28.77-4.24c-5.36-.07-9.71-6.48-9.71-14.37l-8-228.15c0-7.95,4.39-14.4,9.79-14.4l.28,0,266.9,78.47c5.33.12,9.65,6.52,9.65,14.36l0,.18-33.49,182.9c0,7.88-4.41,14.27-9.79,14.27h-.14l-123-18.15ZM1608.92,231c-4.16.12-7.65,5.73-7.65,12.36l8,228.15c0,6.73,3.57,12.4,7.79,12.4h.15l30.73,4.53-8.08,74.8,79.09-64.31,123.76,18.27c4.19-.06,7.72-5.69,7.72-12.36l0-.18,33.49-182.9c0-6.66-3.59-12.27-7.8-12.27l-.28,0Z"/><path d="M826,348.64l.49-6.75v-2.32a7.37,7.37,0,0,0-.07-1l-.21-2.53a7.42,7.42,0,0,1,0-1.34q0-.71,0-1.2v-.84a4,4,0,0,0-.07-.7l-.21-.92.07-.7a1,1,0,0,0-.14-.56,1.91,1.91,0,0,1-.25-.63,2.68,2.68,0,0,1,0-1,2.19,2.19,0,0,0,0-.88.89.89,0,0,0-.28-.45,1.87,1.87,0,0,1-.31-.32.77.77,0,0,1-.18-.39.87.87,0,0,0-.28-.45,2.26,2.26,0,0,0-.77-.46,3.45,3.45,0,0,1-.95-.56,5.11,5.11,0,0,0,0-.95,2,2,0,0,1,.25-1,5.55,5.55,0,0,1,1.79-.28,2.53,2.53,0,0,1,1.48.38,2,2,0,0,0,1.19.39,2.33,2.33,0,0,0,1.44-.63,5.86,5.86,0,0,0,1.76.21l2.6-.07,3.45.28,1.26-.14a6.33,6.33,0,0,1,1.9.28,6.33,6.33,0,0,0,1.9.28l1.69-.07,1-.14,1.2.28,1.26-.14,1.2.07a3.78,3.78,0,0,0,1.19-.21,8.23,8.23,0,0,0,.74-2.6,5.11,5.11,0,0,1,.88-2.39,5.45,5.45,0,0,1,1.09-.14.65.65,0,0,1,.6.35,1.18,1.18,0,0,1,.21.56l-.14.42.21,1.55-.14,1.26.21,2-.14,1.27.21,1.12-.21,1.41.07.49a1.7,1.7,0,0,0-.53.78,4.4,4.4,0,0,1-.38.84c-.29.14-.58.29-.88.46a1.73,1.73,0,0,1-.74.24c-.19,0-.4-.3-.63-.91a4.28,4.28,0,0,1-.36-1.48l.14-1.54v-.43a1.91,1.91,0,0,0-1.4-.56l-1.27.35-2.11-.49-1.75.14a.48.48,0,0,1-.36-.14h-1.4l-2.6-.14a3.76,3.76,0,0,0-1.27.18c-.33.11-.68.22-1.05.31a11.4,11.4,0,0,1-1.37.25c-.54.07-1.08.13-1.62.17l-1.62.14c-.54.05-.93.07-1.16.07a1,1,0,0,0-.28.88,1.6,1.6,0,0,1-.07.85c-.1.21-.17.31-.21.31s-.07.17-.07.5l.42,3.44v1.83l.07,1c-.09,0-.14.11-.14.32a3.88,3.88,0,0,0,.49,1.3,3.2,3.2,0,0,0-.07.77l-.21.92.21.84-.07,1.69.14,2.11-.49,7.94a8.75,8.75,0,0,0,.28,2.18,4.6,4.6,0,0,1,.07,2.11,4.27,4.27,0,0,0,2.92.71c1.48,0,2.38,0,2.71.07l.84.14.7-.14,1.62.28,1.69.14a1.13,1.13,0,0,0,1.19-.77,2.91,2.91,0,0,1,.57-1.48,3.67,3.67,0,0,1,.35-1.69l1.05-.28c.24,0,.46.2.67.6a2.23,2.23,0,0,1,.32.95l-.57,4.29.28,2a10.09,10.09,0,0,0-.77,1.69,3.83,3.83,0,0,0-.84.25,2.15,2.15,0,0,1-.85.17,1.24,1.24,0,0,1-.24-.38,1.54,1.54,0,0,0-.35-.49,1.57,1.57,0,0,1-.36-.85c-.07-.4-.15-.76-.24-1.09a1.47,1.47,0,0,0-1.13-.24,1.14,1.14,0,0,1-1-.32,2.2,2.2,0,0,1-1,.28,1.44,1.44,0,0,1-.81-.28,5.66,5.66,0,0,1-1.83.28l-2.32-.07h-.63a2.26,2.26,0,0,0-.95.21,1.31,1.31,0,0,1-.6.18c-.09,0-.18,0-.28.1l.07.28-.42,3.52.14,2-.21,1.19.21.85-.21,3.16c0,1.5.49,2.25,1.48,2.25l1.33-.14,1.69.21a1.21,1.21,0,0,0,.91-.35,2.88,2.88,0,0,0,1.13.21l2.6-.21h.42a1.25,1.25,0,0,1,.56.14,5.83,5.83,0,0,1,2-.28c.8,0,1.44,0,1.94-.07s1-.11,1.4-.18a8.41,8.41,0,0,1,1.3-.1l1.2.07c.51,0,.83-.11,1-.32a1,1,0,0,1,.53-.46c0-.18.09-.44.14-.77.18-1.31.6-2,1.26-2,.42,0,.69.12.81.35a2.08,2.08,0,0,0,.67.71c.14,1.68.21,2.83.21,3.44a.12.12,0,0,0-.14.14l.14,1.62a2.52,2.52,0,0,1-.35,1.34c0,.23-.07.35-.35.35a1.18,1.18,0,0,0-.67.17,1.6,1.6,0,0,0-.39.39.54.54,0,0,1-.49.21l-1.2-.42c0-.42-.09-.89-.14-1.41a2.82,2.82,0,0,0-.42-1.33,6,6,0,0,1-.84.07H847c-.93,0-1.45.14-1.54.42a1.39,1.39,0,0,0-.6-.14,1.37,1.37,0,0,0-.74.28.76.76,0,0,0-.56-.21l-1,.07-.77-.14-.77.14-1.2-.35a5,5,0,0,0-2.25,1l-1.83-.49q-.13,0-.24.18a.43.43,0,0,1-.39.17l-2.18-.28-1.48.21h-1.12a4.35,4.35,0,0,0-2.46.49,1.6,1.6,0,0,0-1-.28l-.49.14-.35-.14a2.35,2.35,0,0,0-1.23.42,2.35,2.35,0,0,1-.88.43c-.94,0-1.4-.59-1.4-1.76v-.35c.18-.38.7-.66,1.54-.85s1.31-.28,1.41-.28a4.74,4.74,0,0,0,.39-1.33c.07-.52.12-.94.17-1.27a5.13,5.13,0,0,0,.07-.7l-.21-1.27.21-.84-.21-.56.14-.71-.21-.63.21-1.83a1.39,1.39,0,0,0,0-.53,3.34,3.34,0,0,1,0-.59l.21-1.83-.28-1.76a2.48,2.48,0,0,1,.07-.63c0-.19.09-.41.14-.67a3.29,3.29,0,0,0,0-.84c0-.31,0-.6,0-.88v-.78a.12.12,0,0,1-.14-.14l.21-.49-.21-.84a6.93,6.93,0,0,1-.17-2q0-1.23,0-2.07Z"/><path d="M864.2,352l-.42.91a5.12,5.12,0,0,1,.14.92l-.14,1.61a.44.44,0,0,1,.14.28l-.14.28.21,1a10.78,10.78,0,0,1,.32,2.81c0,.94,0,1.9,0,2.88l.14,1.06-.14.84.28,1.41a1.74,1.74,0,0,1-.07.56.63.63,0,0,0,.07.49l-.14,1.2.14.77-.28,1.06.14.84-.14.92.42,1.61a2,2,0,0,0,1.2-.35,2.26,2.26,0,0,1,1.33-.35.75.75,0,0,1,.85.84,1.42,1.42,0,0,1-.78,1.3,10.2,10.2,0,0,1-1.26.67,3.21,3.21,0,0,1-.88.25,6.87,6.87,0,0,0-.88.14,3.92,3.92,0,0,0-.63.17,2.54,2.54,0,0,1-.81.07,7.06,7.06,0,0,0-1.79.32,2.66,2.66,0,0,0-1.48.81q-.15.07-.21,0a.73.73,0,0,0-.25,0,1.8,1.8,0,0,0-.67.32,1.51,1.51,0,0,1-1,.24h-.21c-.52-.23-.77-.89-.77-2,.14.05.23,0,.28-.17a.54.54,0,0,1,.24-.35.53.53,0,0,1,.39-.07,2.8,2.8,0,0,0,1-.29,13.79,13.79,0,0,1,2.07-.59,3.22,3.22,0,0,0,.21-1.13,4,4,0,0,0-.14-1.09,3,3,0,0,1-.07-1.09v-2.46a10.85,10.85,0,0,1,.07-1.76l-.21-.63.14-.42-.28-1.13a21.71,21.71,0,0,1-.14-2.46v-2.46a11.19,11.19,0,0,0-.21-2.18c-.14-.7-.26-1.43-.35-2.18V354l-.28-2.11.07-2.32-.07-2V346a2.35,2.35,0,0,0,.14-.63l-.28-.71a1,1,0,0,1,.14-.42,18.38,18.38,0,0,0-.14-2.18l-.28-1.12.14-.42-.36-4.93.29-2.6-.14-.91.21-.85-.28-2.53.21-3.3-.29-3c-.09-1.13-.14-2.19-.14-3.2s-.32-1.52-1-1.52l-1.41.15a1.36,1.36,0,0,1-1.19-.64,2.16,2.16,0,0,1-.42-.84l.07-.28a1,1,0,0,1,1.09-.64,12.4,12.4,0,0,0,1.65-.1,20.85,20.85,0,0,0,2.18-.46,10.14,10.14,0,0,1,2.28-.35c.59,0,1,.19,1.09.56a2,2,0,0,1-.49,1.27,2,2,0,0,0-.56,1l.14,2-.21,1.62.28,1.9a.48.48,0,0,0,.18.45c.11.07.17.25.17.53l-.14,1.34.14.42-.14.28a7.91,7.91,0,0,1,.32,2.57,6.68,6.68,0,0,0,.31,2.42,9.84,9.84,0,0,0-.14,2.25l-.14,2.32a14.61,14.61,0,0,0,.11,1.73c.07.58.15,1.3.24,2.14l.21,2.95c.1,1.13.19,2.28.29,3.45a2.8,2.8,0,0,0,.88.07c.49,0,.85-.3,1.08-.91a.68.68,0,0,0,.57-.29c.32-.46.56-.63.7-.49s.28.08.42-.17a1,1,0,0,1,.39-.46.36.36,0,0,1,.25,0,.37.37,0,0,0,.21,0,.28.28,0,0,0,.21-.07c0-.24.68-.47,1.9-.7s1.89-.36,2-.36a5.27,5.27,0,0,1,.64.07l1.37.22a1.57,1.57,0,0,1,1.19.56,6.11,6.11,0,0,0,.78,1c.35.38.78.84,1.3,1.37a10.48,10.48,0,0,1,1.4,1.87.85.85,0,0,1,.32.38.83.83,0,0,0,.32.39.94.94,0,0,0-.07.42l.56,2.25a2.21,2.21,0,0,0,.14.78,3,3,0,0,1,.18.8,7.88,7.88,0,0,0,.1.88l.28,1a7.05,7.05,0,0,1,.14,1.47v1.41c0,.09,0,.14-.07.14s-.07,0-.07.14l.42,2-.28,1.76.28,2.46a19.16,19.16,0,0,1-.14,2.39,11.24,11.24,0,0,0,0,2.46,3.63,3.63,0,0,0-.42,1.76v1.4a2.75,2.75,0,0,0,.14.85,3.54,3.54,0,0,0,1.06.14l2.81-.56a1,1,0,0,0,.53.45c.25.12.38.27.38.46q0,.84-.63.84A3.62,3.62,0,0,0,882,375a2,2,0,0,0-.63-.07l-1.9.35H879c-.29,0-.44.06-.46.18s-.22.17-.6.17l-1.76.21-.56-.07c-.33,0-.52.11-.56.32s-.21.32-.49.32l-.29-.07a2.78,2.78,0,0,1-.28-1.2,1.32,1.32,0,0,1,.25-.91,1.65,1.65,0,0,1,.56-.43l.71-.28a1.09,1.09,0,0,0,.59-.49l.35-1.76a2.38,2.38,0,0,0,.07-.63l-.21-1.9.14-1.4-.14-1.2.29-1.41-.15-1.26.15-2.74a9.29,9.29,0,0,0-.32-2.39,9.67,9.67,0,0,1-.32-2.47l.14-1s-.09-.63-.28-1.76l.14-.21c-.28-.33-.41-.53-.38-.6a2.88,2.88,0,0,0,0-.56,2.42,2.42,0,0,0-.17-.88,4.85,4.85,0,0,1-.29-.91,10.09,10.09,0,0,1-.17-1.13,2.94,2.94,0,0,0-.53-1.44,2.63,2.63,0,0,1-.49-.74,2.49,2.49,0,0,0-.32-.56,1.58,1.58,0,0,0-.53-.46,2.87,2.87,0,0,1-.66-.52,2.63,2.63,0,0,1-1.51.31l-1.38,0c-.28,0-.43,0-.45.14a2,2,0,0,1-.21.39,2.92,2.92,0,0,1-.5.49,2.11,2.11,0,0,0-.52.59,1.89,1.89,0,0,0-1.83.71,6.44,6.44,0,0,1-1.34,1.76c-.14.42-.31.64-.52.66s-.28.16-.18.39l-.07.21.28.85Z"/><path d="M894.79,373.88a9.63,9.63,0,0,1-1.27.46,1.67,1.67,0,0,0-.67.32,1.94,1.94,0,0,1-.6.35,1.8,1.8,0,0,1-1.61-2.25,5.56,5.56,0,0,0-.88-.35A2.59,2.59,0,0,1,889,372v-2.11a3.78,3.78,0,0,0,.56-.92,2.69,2.69,0,0,1,.49-.77.79.79,0,0,1,.53-.28.65.65,0,0,0,.39-.11.79.79,0,0,0,.21-.24.43.43,0,0,1,.21-.21l1-.15a6.14,6.14,0,0,1,1-.14,1.46,1.46,0,0,1,1.41.95,4.07,4.07,0,0,1,.42,1.44.88.88,0,0,0,.17.64c.12.09.18.48.18,1.16A7.11,7.11,0,0,1,894.79,373.88Zm-.29-28.68-.42,7.8.07,2.25c0,1-.16,1.48-.49,1.48-.14,0-.14,0,0,.14a10.86,10.86,0,0,0-.6,1.26q-.31.78-.81.78c-.6,0-1.1-.49-1.47-1.48a6.92,6.92,0,0,1-.49-3.16v-2.89l-.14-2.32.14-2.95-.14-1.41.28-.84-.14-.84.07-2.46A52.68,52.68,0,0,0,890,333a26.44,26.44,0,0,1-.39-3.27,3.9,3.9,0,0,1,.32-1.54,7.2,7.2,0,0,0,.39-1.09c0-.33.18-.5.42-.5s.23.05.28-.14.12-.28.21-.28a2,2,0,0,1,1.37.42l.85.81a2.9,2.9,0,0,0,.52.46,2.91,2.91,0,0,1,.28.63l.28.14a.57.57,0,0,1,0,.35.39.39,0,0,0,.11.36l.28.14a3.61,3.61,0,0,1,.28,1.26l-.49,3.45.21,3.44v3.24a14.49,14.49,0,0,1-.21,2.7A9.87,9.87,0,0,0,894.5,345.2Z"/><path d="M752.3,517.18l8.4-77.71-28.77-4.25c-5.36-.06-9.71-6.48-9.71-14.36l-8-228.15c0-8,4.39-14.4,9.79-14.4l.28,0,266.9,78.47c5.33.12,9.65,6.52,9.65,14.36l0,.18-33.49,182.9c0,7.88-4.41,14.27-9.79,14.27h-.14l-123-18.16ZM723.92,180.31c-4.16.12-7.65,5.74-7.65,12.36l8,228.16c0,6.73,3.57,12.39,7.79,12.39h.15l30.73,4.54-8.08,74.79,79.09-64.3.43.06,123.33,18.21c4.19-.06,7.72-5.7,7.72-12.36l0-.18,33.49-182.9c0-6.66-3.59-12.27-7.8-12.27l-.28,0Z"/><path class="cls-3" d="M439.65,652.44C412.93,632,385.79,611,356.68,594c-14.21-8.28-30.36-13.53-45.6-19.56-20.65-8.16-41.33-16.26-62.16-24-17-6.31-34.19-10.32-51.84-14.56-7.51-1.8-10.71,9.77-3.19,11.57,15.26,3.67,30.52,6.81,45.29,12.16,20.18,7.31,40.18,15.15,60.15,23q14.31,5.63,28.58,11.36c6.77,2.72,12.49,4.79,18,7.72,17.71,9.41,34.1,21.65,50.32,33.35q18.87,13.6,37.36,27.73c6.13,4.7,12.11-5.72,6.06-10.36Z"/><circle class="cls-5" cx="1523.15" cy="573.56" r="33.5"/><ellipse cx="1506.74" cy="576.63" rx="20.94" ry="4.28" transform="translate(491.86 1830.73) rotate(-71.96)"/><circle class="cls-5" cx="1416.63" cy="535.72" r="33.5"/><ellipse cx="1425.53" cy="548.83" rx="20.94" ry="4.28" transform="translate(462.23 1734.33) rotate(-71.96)"/><path class="cls-3" d="M1588.18,598.05s-7.86.45-7.84-5.56-1.58-36.61,4.62-55.65,17.67-42.38,19.41-41.81,4.32,10.43,5.18,13.72,2.46,10.86,5.18,13.72c3.22,3.38,11,19.46,11.24,24.71.27,5.5,4.29,16.44-2.74,26.19S1596,597.6,1594.3,597,1588.18,598.05,1588.18,598.05Z"/><path class="cls-3" d="M1369.53,528.94s6.09,5,9.6.12,22.84-28.66,29-47.7,10.69-44.65,8.94-45.22-9.63,5.89-12.26,8-8.39,7.34-12.27,8c-4.59.84-20.34,9.26-23.64,13.36-3.45,4.28-13.15,10.76-13.2,22.77s7.69,35.6,9.44,36.17S1369.53,528.94,1369.53,528.94Z"/><path class="cls-3" d="M1232.67,753.4l-22.3,3.86c-7.6,1.32-4.38,12.88,3.19,11.57l22.3-3.86c7.6-1.32,4.38-12.88-3.19-11.57Z"/><path class="cls-3" d="M1342.89,891.41a83.75,83.75,0,0,0-5.66,26.91c-.22,3.75-.24,7.51-.36,11.26-.06,1.95.39,6.62-.76,8.13-.81,1.07-7.62.53-9.86.23a61.46,61.46,0,0,1-9-1.92c-7.44-2.16-10.61,9.41-3.19,11.57,8.79,2.55,22.94,5.7,30.41-1.36,5.09-4.8,4.35-13.55,4.49-20,.24-11,1.33-21.41,5.51-31.68,2.91-7.15-8.69-10.26-11.57-3.19Z"/><path class="cls-3" d="M1386.26,906.88c5.5,9.33,8,19.42,9.79,30,1.1,6.41,1.57,15.35,7.62,19.26,8.77,5.65,22.06.27,30.58-3.62,7-3.21.93-13.55-6-10.36l-.7.31c1.62-.68-.84.33-1.11.43-2.16.82-4.34,1.59-6.57,2.22s-8.25,2.12-9.46,1.15c-1.49-1.19-1.75-6.88-2.07-8.66-.66-3.69-1.22-7.41-2-11.09a83.45,83.45,0,0,0-9.68-25.68c-3.91-6.65-14.29-.62-10.36,6Z"/><path class="cls-6" d="M1444.58,886.18c12.84-71.09,7.72-45.6-57.72-57.41s-62.3-37.67-73.17,33.78c-.29,1.92-.59,3.68-.75,5.34-.59,2.55-1.14,5.16-1.62,7.82-6.38,35.34,9.13,17.63,23.85,20.29,6.46,1.16,11.69,6.06,16.07,8.2a7.05,7.05,0,0,0,4.76.86c4.85-.48,11.46-3.23,17.92-2.07s11.69,6.07,16.07,8.2a5,5,0,0,0,2.3.86,5.12,5.12,0,0,0,2.46,0c4.85-.47,11.46-3.23,17.92-2.06,14.72,2.66,23.06,24.68,29.44-10.66.45-2.47.82-4.9,1.14-7.31C1443.75,890.26,1444.19,888.32,1444.58,886.18Z"/><path class="cls-2" d="M1570.39,569.39c-4.21,12.93-19.69-2.27-43.06-9.88s-45.78-4.75-41.57-17.68,14.41-25.71,51.27-13.7C1571.93,539.49,1574.6,556.45,1570.39,569.39Z"/><path class="cls-2" d="M1460.06,545c-4,16.16-20,0-43.88-5.81s-46.52.75-42.55-15.41,14-33,51.64-23.72C1460.92,508.82,1464,528.85,1460.06,545Z"/><path class="cls-2" d="M1448.84,572.3c-1.77,11.18-19.27.26-43-3.52s-44.73,1-42.95-10.14,9.32-22.87,46.76-16.92C1445.09,547.36,1450.62,561.12,1448.84,572.3Z"/><path class="cls-2" d="M1550.81,616.49c-4,12.45-19.64-2.41-43-10s-45.66-5.09-41.61-17.54,14.07-24.67,50.92-12.66C1552,587.63,1554.87,604,1550.81,616.49Z"/><polygon class="cls-7" points="1451.99 590.01 1444.06 604.45 1457.68 605.48 1451.99 590.01"/><polygon class="cls-7" points="1426.25 581.65 1412.28 590.39 1423.67 597.93 1426.25 581.65"/><path d="M1458.26,606.53c-2.31-.11-22.7-1-26.39-2s-19.29-12-21-13.22l1.73-2.44c6.47,4.58,17.64,12.1,20.1,12.77,2.85.77,19.54,1.65,25.74,1.93Z"/><path d="M1445.19,584.86c-.2-.33-5-8.15-3.26-13.39a11.56,11.56,0,0,1,7-7l.3.95a10.78,10.78,0,0,0-6.38,6.36c-1.56,4.79,3.11,12.47,3.16,12.55Z"/><rect class="cls-3" x="465.92" y="618.68" width="12" height="34" rx="6" transform="translate(364.56 -148.71) rotate(28.8)"/><path class="cls-2" d="M620.78,605.07c-15.63,48-69.58,56.77-126.55,38.21s-95.41-57.43-79.79-105.41S461,440.29,550.8,469.56C635.9,497.27,636.4,557.1,620.78,605.07Z"/><path class="cls-2" d="M489.06,836.21c-15.75,87.23-36.85,47.89-70.55,41.81S351.28,901.4,367,814.17c2.88-16,18-98.24,21.67-114.16,16.3-70.88,29.41-68,72.81-60.14,42.09,7.6,56,12.9,46.26,87C505.89,741.41,491.64,822,489.06,836.21Z"/><circle class="cls-5" cx="571.15" cy="557.56" r="33.5"/><ellipse cx="565.74" cy="535.63" rx="20.94" ry="4.28" transform="translate(-118.76 907.69) rotate(-71.96)"/><circle class="cls-5" cx="464.63" cy="519.72" r="33.5"/><ellipse cx="464.53" cy="496.83" rx="20.94" ry="4.28" transform="translate(-151.73 784.67) rotate(-71.96)"/><path class="cls-3" d="M636.18,582.05s-7.86.45-7.84-5.56-1.58-36.61,4.62-55.65,17.67-42.38,19.41-41.81,4.32,10.43,5.18,13.72,2.46,10.86,5.18,13.72c3.22,3.38,11,19.46,11.24,24.71.27,5.5,4.29,16.44-2.74,26.19S644,581.6,642.3,581,636.18,582.05,636.18,582.05Z"/><path class="cls-3" d="M417.53,512.94s6.09,5,9.6.12,22.84-28.66,29-47.7,10.69-44.65,8.94-45.22-9.63,5.89-12.26,8-8.39,7.34-12.27,8c-4.59.84-20.34,9.26-23.64,13.36-3.45,4.28-13.15,10.76-13.2,22.77s7.69,35.6,9.44,36.17S417.53,512.94,417.53,512.94Z"/><path class="cls-3" d="M382.89,894.41a83.75,83.75,0,0,0-5.66,26.91c-.22,3.75-.24,7.51-.36,11.26-.06,1.95.39,6.62-.76,8.13-.81,1.07-7.62.53-9.86.23a61.46,61.46,0,0,1-9-1.92c-7.44-2.16-10.61,9.41-3.19,11.57,8.79,2.55,22.94,5.7,30.41-1.36,5.09-4.8,4.35-13.55,4.49-20,.24-11,1.33-21.41,5.51-31.68,2.91-7.15-8.69-10.26-11.57-3.19Z"/><path class="cls-3" d="M426.26,909.88c5.5,9.33,8,19.42,9.79,30,1.1,6.41,1.57,15.35,7.62,19.26,8.77,5.65,22.06.27,30.58-3.62,7-3.21.93-13.55-6.05-10.36l-.7.31c1.62-.68-.84.33-1.11.43-2.16.82-4.34,1.59-6.57,2.22s-8.25,2.12-9.46,1.15c-1.49-1.19-1.75-6.88-2.07-8.66-.66-3.69-1.22-7.41-2-11.09a83.45,83.45,0,0,0-9.68-25.68c-3.91-6.65-14.29-.62-10.36,6Z"/><path class="cls-6" d="M484.58,889.18c12.84-71.09,7.72-45.6-57.72-57.41s-62.3-37.67-73.17,33.78c-.29,1.92-.59,3.68-.75,5.34-.59,2.55-1.14,5.16-1.62,7.82-6.38,35.34,9.13,17.63,23.85,20.29,6.46,1.16,11.69,6.06,16.07,8.2a7.05,7.05,0,0,0,4.76.86c4.85-.48,11.46-3.23,17.92-2.07s11.69,6.07,16.07,8.2a5,5,0,0,0,2.3.86,5.12,5.12,0,0,0,2.46,0c4.85-.47,11.46-3.23,17.92-2.06,14.72,2.66,23.06,24.68,29.44-10.66.45-2.47.82-4.9,1.14-7.31C483.75,893.26,484.19,891.32,484.58,889.18Z"/><path class="cls-2" d="M625.67,531.75c-.92,6.41-19.49-.92-43.81-4.43s-45.2-1.89-44.28-8.29,7.65-12.78,46-7.24C619.92,517,626.6,525.35,625.67,531.75Z"/><path class="cls-2" d="M531.78,513.17c-2.28,5.3-18.51-6.14-41.08-15.85s-43-14-40.68-19.33,10.12-9,45.72,6.33C529.46,498.83,534.06,507.87,531.78,513.17Z"/><path class="cls-2" d="M496.84,556.3c-1.77,11.18-16.95.63-37.74-2.68s-39.35,1.89-37.57-9.29,8.63-23,41.43-17.76C494,531.5,498.62,545.12,496.84,556.3Z"/><path class="cls-2" d="M598.81,600.49c-4,12.45-19.64-2.41-43-10s-45.66-5.09-41.61-17.54,14.07-24.67,50.92-12.66C600,571.63,602.87,588,598.81,600.49Z"/><path d="M493.19,568.86c-.2-.33-5-8.15-3.26-13.39a11.56,11.56,0,0,1,7-7l.3.95a10.78,10.78,0,0,0-6.38,6.36c-1.56,4.79,3.11,12.47,3.16,12.55Z"/><path d="M530.28,636.34c-13.61.47-44.7-15.84-47-15.38-30-20.62-36-22.62-37-26.62-1.77-7,10.44-44.6,16.69-43.12,9.55,2.27,24.93,22,39.31,29.12,17.05,8.39,38,9.09,44.08,14.32C548.76,596.72,534,636.21,530.28,636.34Z"/><polygon class="cls-7" points="524.87 618.55 513.88 630.83 526.92 634.9 524.87 618.55"/><polygon class="cls-7" points="464.2 588.74 449.73 596.62 460.64 604.84 464.2 588.74"/><path d="M527.89,636.06c-1.53-.49-37.74-11.89-43.86-14.69s-34.37-23.32-35.57-24.19l.59-.81c.29.21,29.35,21.32,35.4,24.09S527.82,635,528.2,635.1Z"/><path class="cls-3" d="M492.25,664c-32.48,6.53-65.55,13.38-98.63,15.78-15.9,1.15-32.16-1.16-48-2.41-22.14-1.75-44.28-3.58-66.37-5.81-4.29-.43-8.57-.87-12.84-1.39a63.11,63.11,0,0,1-6.79-1c-10.62-2.13-21.16-4.78-31.74-7.14-7.52-1.68-10.74,9.88-3.19,11.57,15.72,3.51,31.19,7.43,47.21,9.18,21.48,2.33,43,4.09,64.55,5.84,17,1.38,34.65,4,51.77,3.43,20.38-.67,40.85-4.51,60.9-7.93q23.21-4,46.31-8.57C503,674,499.8,662.48,492.25,664Z"/><path class="cls-3" d="M250.84,671.63l-20.49,9.63c-7,3.28-.9,13.63,6.06,10.36L256.9,682c7-3.28.9-13.63-6.06-10.36Z"/><path class="cls-3" d="M224.26,540.62l-10.53-20c-3.59-6.84-13.95-.78-10.36,6l10.53,20c3.59,6.84,13.95.78,10.36-6.06Z"/><path class="cls-4" d="M363.91,301.33c47.79-26,55.3-31.23,84.94,23.23C479,379.9,470,382.49,422.23,408.49s-78.4,62-115.68-6.5C268.31,331.72,316.13,327.33,363.91,301.33Z"/><ellipse class="cls-8" cx="322.84" cy="394.26" rx="9.5" ry="34.5" transform="translate(-149.18 202.26) rotate(-28.55)"/><path class="cls-4" d="M1325.26,747.27c10.83,53.32,13.62,62-47.14,74.38-61.74,12.54-61.59,3.23-72.42-50.08s-36.27-93.14,40.16-108.68C1324.26,647,1314.42,694,1325.26,747.27Z"/><ellipse class="cls-8" cx="1248.47" cy="680.73" rx="34.5" ry="9.5" transform="translate(-110.55 262.23) rotate(-11.49)"/><path class="cls-4" d="M280.52,93.76c21.57-11.74,17.07-11.2,49.24,42.29,9.41,15.63,32.5,30.42,47.18,57.41,13.28,24.41,11.45,49.08,19.26,64.69,31,61.92,34.35,58.3,12.09,70.42-24.37,13.25-41,55.66-96.8-35.71-8.05-13.17-7.27-35.33-17.56-54.23-10-18.44-28.36-28.7-35-42.4C210,95.53,256,107.11,280.52,93.76Z"/><path class="cls-3" d="M1459.41,674.47c-30,14.07-60.55,28.53-92.13,38.72-15.17,4.89-31.52,6.51-47.2,9-21.92,3.55-43.86,7-65.85,10.1-17.41,2.44-34.59,2.56-52.16,2.9-7.72.15-7.74,12.15,0,12,15.83-.31,31.54-.13,47.24-2.22,21.68-2.88,43.29-6.29,64.88-9.75,16.88-2.7,34.62-4.33,51.12-8.94,19.62-5.49,38.55-14.1,57.2-22.18q21.62-9.36,43-19.31c7-3.28.9-13.63-6.06-10.37Z"/><path class="cls-3" d="M1226.74,739.18l-17.62,14.22c-2.52,2-2.12,6.36,0,8.48,2.5,2.5,6,2,8.49,0l17.62-14.21c2.52-2,2.12-6.37,0-8.49-2.5-2.49-6-2-8.49,0Z"/></svg>