<svg id="Layer_1" data-name="Layer 1" xmlns="http://www.w3.org/2000/svg" viewBox="0 0 1920 1080"><defs><style>.cls-1{fill:#85aa52;}.cls-2{fill:#daec70;}.cls-3{fill:#fbb03b;}.cls-4{fill:#1b1464;}.cls-5{fill:#e6e6e6;}.cls-6{fill:#f2f2f2;}.cls-7{fill:#fff;}.cls-8{fill:#a67c52;}</style></defs><path d="M256.43,375.7a8.84,8.84,0,0,1,6.26,3.61c.31.48.64.94,1,1.38a4.74,4.74,0,0,1,.72,1.5,12.15,12.15,0,0,1,.48,5.17,16.22,16.22,0,0,0,.36,5.47c.4,1.41.8,2.75,1.2,4q1.08,3.38-1.32,9c-1.2,3.45-2.69,5.49-4.45,6.13l-2.16.72a11.88,11.88,0,0,1-5.35.78,4.86,4.86,0,0,1-3.07-1.26,7.66,7.66,0,0,1-1.2-7.21,7.14,7.14,0,0,0,0-2.65,2.55,2.55,0,0,0-2-2.28,1.79,1.79,0,0,1-1.27-.84c-.2-.41-.36-.75-.48-1a2,2,0,0,0-.36-.6q-.18-.18-1.14.54c-.64.48-1,.75-1.08.78s-.35,0-.78-.18a1.42,1.42,0,0,0-1.27.12,4.08,4.08,0,0,0-1.2,1.33q-2.16,3.72-.84,12.14c.32,1.68.64,3.25,1,4.69a43.8,43.8,0,0,1,.9,7.21,13.37,13.37,0,0,1-.72,3.79c-.44,1.32-.82,2.63-1.14,3.91q-1.44,4.93.36,8.41a40.19,40.19,0,0,0,2.76,5.05,3.23,3.23,0,0,0,5-.66,26.36,26.36,0,0,0,1.57-3,31.47,31.47,0,0,1,1.56-3.07,3.15,3.15,0,0,1,2-1.68,10,10,0,0,1,2.95-.06q1.8.18,2.46.18a2.84,2.84,0,0,1,1.63.78c.64.52,1,1.68,1,3.49s.1,3.24.18,4.33a4.1,4.1,0,0,1-.84,2.88,7.37,7.37,0,0,0-1.26,2.29,11.5,11.5,0,0,0-.42,2,7.8,7.8,0,0,1-.91,3.73,19.86,19.86,0,0,1-1.44,2c-.44.52-1.6.78-3.49.78a6.68,6.68,0,0,0-5.11,2.65q-2.28,2.64-4.32,2.34a3.54,3.54,0,0,1-2.89-2.46c-.56-1.29-1.8-2-3.73-2.05a6.39,6.39,0,0,1-1.56-.42,8.41,8.41,0,0,0-1.68-.48,5.53,5.53,0,0,1-1.93-.78,10.07,10.07,0,0,1-4-4.21,24.51,24.51,0,0,0-1.87-3,20.21,20.21,0,0,1-1.5-2.29,6.41,6.41,0,0,1-1.2-4.57q.72-5.78-1.57-7.57c-.88-.56-1.32-1-1.32-1.33a9.38,9.38,0,0,0-.48-2,8.69,8.69,0,0,1,.06-5.05,12.64,12.64,0,0,0,.54-4.75c-.16-1.24-.36-2.54-.6-3.91-.48-3.52-.52-5.85-.12-7a11.63,11.63,0,0,0,.3-4.81c-.2-2.08-.3-3.79-.3-5.11s-.1-3.06-.3-5.23a44.66,44.66,0,0,1-.06-7q.84-9.37,6.37-12.87,8.29-4.92,10.58-4.69a10.46,10.46,0,0,1,1.75.18,4.55,4.55,0,0,0,2-.06,5.33,5.33,0,0,0,1.68-.72c.48-.32,1-.68,1.45-1.08q2.88-2.64,5.17-.6a21.57,21.57,0,0,0,3.36,3.37A11.15,11.15,0,0,0,256.43,375.7Z"/><path d="M302.6,445.43l.12-9.13v-3c0-2.4-.24-3.93-.72-4.57a3.59,3.59,0,0,0-3.37-1.62,4.06,4.06,0,0,0-3.3,1.38,6.14,6.14,0,0,0-1.2,3.25c-.12,1.28-.2,2.68-.24,4.21s-.06,3.16-.06,4.93a55.66,55.66,0,0,0,.06,8.17,10.92,10.92,0,0,1,0,3.67,4.07,4.07,0,0,1-1.27,1.56,5.73,5.73,0,0,0-1.56,2.05q-.6,1.26-1.08,2.58c-1,2.08-2,3.17-3,3.25q-4.68.48-8.05-5a11.19,11.19,0,0,0-1.93-2.53q-2.52-2.76-1-8.89a29.25,29.25,0,0,0,.6-6,27.9,27.9,0,0,0-.24-4.39,9,9,0,0,1,0-2.94,4.94,4.94,0,0,0-.36-2.89,6.39,6.39,0,0,1-.42-3.3,10,10,0,0,0-.24-3.55,5.79,5.79,0,0,1-.18-2.7,2.35,2.35,0,0,0-.3-1.93,2.83,2.83,0,0,1-.36-2.1c.12-.92.22-1.91.3-2.95.24-2.88-.12-5.09-1.08-6.61a24.92,24.92,0,0,1-2.47-5.29,11.61,11.61,0,0,1,.3-7.22,33.86,33.86,0,0,0,1.21-14.06,8.62,8.62,0,0,1,.84-4.45q1.56-4,10.22-4.45a23.13,23.13,0,0,0,5-.72,8.83,8.83,0,0,1,4.45-.06,3.19,3.19,0,0,1,2.58,2.82,20.15,20.15,0,0,0,.66,3.13,8.61,8.61,0,0,1,.42,1.68,15.64,15.64,0,0,1-.48,5,38.65,38.65,0,0,0-.84,5.77c-.08,1.57-.12,3.07-.12,4.51a25.59,25.59,0,0,1-.42,7.52,7.42,7.42,0,0,0-.42,3.36,3.6,3.6,0,0,0,1,1.87c1.6,1.44,3.81,1.28,6.61-.48a3.17,3.17,0,0,0,1.08-1.21,56,56,0,0,1-.72-8.29q-.12-7.33-.48-11.48a27.57,27.57,0,0,1,.12-6.92,10.76,10.76,0,0,1,2.53-5.17q2-2.4,3.78-2.1a5.2,5.2,0,0,1,2.89,1.44,2.66,2.66,0,0,0,2.1,1,7.16,7.16,0,0,0,2.65-1.2q4.44-2.64,8.3,3.25-1.22,1.2-.67,4.39a12,12,0,0,1,.18,4.56,20,20,0,0,0-.48,3.85c-.08,1.65-.14,3.23-.18,4.75a47.47,47.47,0,0,1-.66,6,45,45,0,0,0-.12,11.91,62.77,62.77,0,0,1,.24,12.14,60.06,60.06,0,0,0-.24,9,14.63,14.63,0,0,1-.18,4.81q-.42,1.2-.9,2.4a17.83,17.83,0,0,0-2,7.09c-.17,2-.29,4-.36,6a33.16,33.16,0,0,1-.61,5.23c-.72,3.44-2.36,5.17-4.93,5.17-2.88,0-4.53-2.21-4.93-6.62a9.34,9.34,0,0,1-4.5-2.88Q302.36,450.37,302.6,445.43Z"/><path d="M333.62,438l-.12-6.13c0-1.12,0-2.17.12-3.13a17.06,17.06,0,0,0-.24-3.85,35.7,35.7,0,0,1-.54-5.83q.06-1.86,0-3a11.29,11.29,0,0,0-.3-2.11,32.84,32.84,0,0,0-1.74-4.57,16.44,16.44,0,0,1-1.38-6.73,9.67,9.67,0,0,1,1.56-5.77,6.1,6.1,0,0,0,1.08-4.45c-.24-1.52-.42-3.14-.54-4.87a46.44,46.44,0,0,1-.06-5.29,14.92,14.92,0,0,1,1.2-5.23q2.64-6.13,10.58-5.89a42.68,42.68,0,0,1,8.54,1,19.93,19.93,0,0,0,5.29.72,26,26,0,0,0,5.17-1.2q5.06-1.92,8.05.24a7.21,7.21,0,0,0,1.63.9,4,4,0,0,1,1.38.91q2,2.28,1.2,10L374,388.2a26.43,26.43,0,0,0,0,8.06,24.68,24.68,0,0,1,.66,4.63,19.72,19.72,0,0,1-.18,3.55q-.72,3.48-2.76,3.48a3.35,3.35,0,0,1-2.59-1.14,9,9,0,0,1-1.26-2.28,19.8,19.8,0,0,0-1-2.29c-.36-.68-1.14-1-2.35-1-3.52,0-5.87-.38-7-1.14a7.83,7.83,0,0,0-3.07-1.33,5,5,0,0,0-2.52.3,4.77,4.77,0,0,0-2.95,4c-.28,1.93-.46,3.61-.54,5.05a32.8,32.8,0,0,0,0,4q.24,4.22,1.63,4.75a3,3,0,0,0,2.34.12,14.88,14.88,0,0,0,1.92-1,10.26,10.26,0,0,1,5.95-1.87,5.18,5.18,0,0,1,4.57,2.47,7.17,7.17,0,0,1,1.27,4.63c-.17,1.48-.3,2.94-.42,4.39s-.31,2.8-.55,4.08q-1.68,7.45-7,2.89c-4.57-.32-7.41.24-8.54,1.68a9.07,9.07,0,0,0-.72,2.53,13.85,13.85,0,0,0-.12,4.09c.4,3.76,2.21,5.77,5.41,6a12.17,12.17,0,0,0,5.71-.84,7.34,7.34,0,0,0,3.43-2.41,2.61,2.61,0,0,1,1.8-1.62c.73-.12,1.37-.24,1.93-.36a8,8,0,0,1,1.68-.18,6.09,6.09,0,0,1,1.68.24A3.82,3.82,0,0,1,373,445a8.38,8.38,0,0,1-.54,4.81,16.55,16.55,0,0,0-1.26,3.91c-.2,1.16-.39,2-.54,2.59a6.16,6.16,0,0,1-1.39,2.1q-1.14,1.26-1.8,2.1c-.44.56-1.14.44-2.11-.36q-2.64-2-6.37,2.41a5.14,5.14,0,0,1-5.41,2.4,6.1,6.1,0,0,1-3.61-1.2q-1.32-1.08-2.4-2.16c-1.2-1.53-3.29-2.09-6.25-1.69a4.23,4.23,0,0,1-4.33-2.28,2.56,2.56,0,0,1-.54-1.32c-.12-.65-.26-1.37-.42-2.17a14.32,14.32,0,0,0-1.51-4,4.17,4.17,0,0,1-.72-2.34,29.69,29.69,0,0,0-.3-3.07q-.24-1.62-.36-2.4a4.56,4.56,0,0,1,.18-1.87A9,9,0,0,0,333.62,438Z"/><path d="M428.25,411.17l-.12-8.06a15.34,15.34,0,0,1,.6-4.21,12.68,12.68,0,0,0,.66-2.7c.12-.92.24-1.88.36-2.89s.26-2,.42-2.94c.4-2.25,1-3.45,1.68-3.61s1.16-1,1.33-2.64a13.61,13.61,0,0,0-.24-6.38q-1-2.88.12-4.45,2-3.12,6.73-1a14.65,14.65,0,0,0,4.81,1.45,10.16,10.16,0,0,0,2.58-.3l3.25-.85a2.85,2.85,0,0,1,3.37,1.57,6.8,6.8,0,0,1,1.08,4.14c-.12,1.37-.26,2.63-.42,3.79s-.32,2.39-.48,3.67a46.5,46.5,0,0,1-1.39,6.31,16.29,16.29,0,0,0-.78,3.13q-.24,1.62-.48,3.42a51.92,51.92,0,0,1-1.08,7.58c-2.09,7.86-3.13,12.62-3.13,14.31a11.56,11.56,0,0,1-.24,3.12,8.4,8.4,0,0,1-.6,1.2c-.24.41-.56.91-1,1.51A14.65,14.65,0,0,0,444,429.2a10.84,10.84,0,0,0-.84,4.57,16.74,16.74,0,0,1-.61,6.49q-.84,2.3-1.74,4.63t-1.74,4.63a40.26,40.26,0,0,0-2.53,7.94,8.45,8.45,0,0,1-1.86,4.39,2.49,2.49,0,0,1-2.89.9,3.46,3.46,0,0,1-1.92-1.44c-.28-.57-.54-1.13-.78-1.69a4.76,4.76,0,0,0-2.65-2.88,6.46,6.46,0,0,1-3.54-3.43,15.91,15.91,0,0,1-1.33-5.95q-.18-3.5-.42-6.25c-.16-1.85-.36-3.53-.6-5.05q-1.08-5.65-2.28-5.65c-.48,0-.84.42-1.09,1.26s-.48,1.9-.72,3.18q-1.08,5.41-2.34,7.46a12.48,12.48,0,0,0-1.62,3.61,29.8,29.8,0,0,0-.54,3c-.13,1-.23,1.91-.31,2.83a10.65,10.65,0,0,1-.66,2.82c-.36,1-.78,1.95-1.26,2.95a9.3,9.3,0,0,1-1.8,2.58c-1.69,1.52-3.61,1.61-5.77.24a18.55,18.55,0,0,0-4.57-2.1,15.77,15.77,0,0,1-3.37-1.32,4.49,4.49,0,0,1-1.5-2,13.75,13.75,0,0,1-1-4c-.21-1.73-.47-3.71-.79-6a99.12,99.12,0,0,0-3.36-15.51,109.51,109.51,0,0,1-3.13-13.16q-1.56-8.36-2.1-10.94c-.36-1.73-.71-2.63-1-2.71-.57-.08-1.05-.88-1.45-2.4a17.09,17.09,0,0,1-.48-6,13.76,13.76,0,0,0,.18-3.79c-.12-1.16-.3-2.35-.54-3.55s-.5-2.36-.78-3.49-.54-2.32-.78-3.6c-.72-3.05-.08-5.25,1.92-6.62q4.33-2.64,7.22-.48,1.32-1,3.6.24a10.32,10.32,0,0,1,3.31-2.16,4.88,4.88,0,0,1,3.55-.3,4.59,4.59,0,0,1,2.4,1.8,10.3,10.3,0,0,1,1.32,3.07,41,41,0,0,1,1.15,6.79q.42,4.28.42,6.07v3.61a61.71,61.71,0,0,0,.78,9.38,48.38,48.38,0,0,1,.72,7.87,20.09,20.09,0,0,0,.18,4c.16.76.32,1.43.48,2a9,9,0,0,0,.6,1.56,1.73,1.73,0,0,0,2,1,1.2,1.2,0,0,0,.72-1.14,14.09,14.09,0,0,0-.18-2q-.18-1.2-.42-2.64a11.15,11.15,0,0,1-.12-2.95c.07-1,.18-2.24.3-3.72s.22-3,.3-4.63q.6-6.86,1.08-9.8c.32-2,.56-3.49.72-4.57s.36-2.26.6-3.55a9.75,9.75,0,0,0,3.13-4.33,1.81,1.81,0,0,1-.48-1.08l.84-3.48a3.61,3.61,0,0,1,1.2-2.35,2.21,2.21,0,0,1,2-.78,4.15,4.15,0,0,1,1.45.6,3.74,3.74,0,0,1,1,1.32,19.72,19.72,0,0,1,.9,5.89c.12,2.73.24,4.65.36,5.78s.22,2.1.3,2.94.16,1.65.24,2.41.12,1.92.12,3.48,0,3.11-.12,4.63a9.4,9.4,0,0,0,1,4.57,14.22,14.22,0,0,1,1.21,3.07,5.1,5.1,0,0,1,0,1.56q-.12.78-.3,1.8a19.34,19.34,0,0,0-.18,3.07c0,2.48.6,4.29,1.8,5.41q2.76,2.52,3.37-1.92A30.36,30.36,0,0,0,428.25,411.17Z"/><path d="M474.66,423.55l-.24,8.54q0,8.3-3.49,11.06a5.93,5.93,0,0,1-4,1.32,4.24,4.24,0,0,1-2.7-1.32,3.89,3.89,0,0,1-1-2.52,28.94,28.94,0,0,0-.6-4.15q-.54-2.72-1.32-5.41a16.4,16.4,0,0,1-.54-5.83c.16-2.09.26-4.05.3-5.9a6.16,6.16,0,0,0-1-4.08,6.41,6.41,0,0,1-1.45-4.09,6.2,6.2,0,0,1,.49-2.53,17.17,17.17,0,0,0,1.08-5.53q0-2.4-.12-3.48c-.08-.73-.18-1.43-.3-2.11s-.26-1.72-.42-3.12a22.66,22.66,0,0,1,0-4.81,31.23,31.23,0,0,0,0-5.47c-.17-1.85-.27-3.33-.3-4.45a10.89,10.89,0,0,1,.78-4,13.74,13.74,0,0,1,1.38-3.07,5.21,5.21,0,0,1,1.86-1.38c.89-.44,1.49-.76,1.81-1a1.94,1.94,0,0,1,1.32-.18,3.29,3.29,0,0,1,1.8,1.14,7.1,7.1,0,0,0,2.29,1.62c.88.41,1.9.89,3.06,1.45a3.33,3.33,0,0,1,2,2.7,10.39,10.39,0,0,0,.42,2.23,2.28,2.28,0,0,0,.42.6,13.84,13.84,0,0,1,.48,3.18,16.5,16.5,0,0,1-.42,5.41,23,23,0,0,0-.72,4.51,13.34,13.34,0,0,1-.66,3.67,9.42,9.42,0,0,0-.42,3.85,15.06,15.06,0,0,1,.06,2.94c-.09.65-.18,1.23-.3,1.75a7.18,7.18,0,0,0-.19,1.62,11.8,11.8,0,0,0,.43,2.58,11.68,11.68,0,0,1,.36,3.19,19.1,19.1,0,0,0,.12,3.07,14.63,14.63,0,0,1,0,3.24A46.73,46.73,0,0,0,474.66,423.55Zm-15.15,34.87a3,3,0,0,1-.18-1.8,5.52,5.52,0,0,1,2-2.53,25.29,25.29,0,0,1,4.45-3c1.76-1,4.17-1.25,7.21-.85a4.29,4.29,0,0,1,3.37,2.53q2.52,4.32-2.29,7.81a10.44,10.44,0,0,1-3.84,1.75,3.89,3.89,0,0,0-2.35,1.08,1.94,1.94,0,0,1-2.1.42,2.62,2.62,0,0,1-1.93-1.5,2.53,2.53,0,0,0-1.44-1.51,6.68,6.68,0,0,1-1.74-1A3.58,3.58,0,0,1,459.51,458.42Z"/><path d="M1006.72,258.34a12.07,12.07,0,0,1,7-4.32c1.2-.32,2.4-.6,3.6-.85a12.66,12.66,0,0,0,3.73-1.44q3.62-2,5-2a7.78,7.78,0,0,1,2.17.24,10.21,10.21,0,0,0,1.8.36,18.51,18.51,0,0,0,2.16.12,15.88,15.88,0,0,1,2.59.24q4.56.6,9.62,6a15.3,15.3,0,0,1,4,7.22,30.66,30.66,0,0,1,.67,7.33,24.27,24.27,0,0,0,.72,7.69,31.18,31.18,0,0,1,1.08,3.85,9.64,9.64,0,0,1-.3,3.67,5.81,5.81,0,0,1-1.74,3.31,5.74,5.74,0,0,1-2.65,1.2,10.8,10.8,0,0,1-2.76.12c-.89-.08-1.61-.12-2.17-.12a1.32,1.32,0,0,0-1.14.42l-.66.9c-.56.56-1.65.6-3.25.12a7.19,7.19,0,0,1-4-3.07q-1.56-2.34-.36-6.07.36-1.2.72-2.22a2.62,2.62,0,0,0,.12-1.74,2.32,2.32,0,0,0-2.28-1.81,4.33,4.33,0,0,0-3.13,1,7.89,7.89,0,0,0-2.34,4.15,10.68,10.68,0,0,0-.36,3.55,13.86,13.86,0,0,1,.18,2.28c0,.81,0,1.65.12,2.53a8.25,8.25,0,0,0,1.5,4.21,3.53,3.53,0,0,0,1.75,1.2,5.4,5.4,0,0,0,1.38.06q.66-.06,1.38-.06a5.53,5.53,0,0,1,2,.6l2.7,1.2a6.6,6.6,0,0,1,2.47,1.93,6,6,0,0,0,1.86,1.68l1.38.66q.6.3,1.14.54a2,2,0,0,1,.91,1.2,19.41,19.41,0,0,1,.72,9.74c-.16,1.37-.3,2.45-.42,3.25s-.23,1.5-.3,2.1-.17,1.13-.24,1.57a11,11,0,0,0-.12,2c0,3.29-.55,5.81-1.63,7.57a10.07,10.07,0,0,1-3.3,3.61,11.76,11.76,0,0,0-2.17,1.44,3.82,3.82,0,0,0-.78,1.21,8.1,8.1,0,0,1-.9,1.56,7.7,7.7,0,0,1-4.21,2.88,21.1,21.1,0,0,1-6.67.91,34.76,34.76,0,0,1-5.47-.42,7.32,7.32,0,0,1-3.55-1.81,13.2,13.2,0,0,1-2.65-3.18c-.68-1.16-1.22-1.81-1.62-1.93a4.58,4.58,0,0,0-1.32-.18h-1.44a2.73,2.73,0,0,1-2.59-1.14,3.17,3.17,0,0,1-.48-2.16,13.41,13.41,0,0,0,.06-2.95c0-1.28,0-2.48.06-3.61a4,4,0,0,1,1.38-2.88,9.61,9.61,0,0,1,5-2.41,4.57,4.57,0,0,0,2.89-.84,10.18,10.18,0,0,0,1.14-1.32,1.71,1.71,0,0,1,1.2-.72,3.82,3.82,0,0,1,1.63.12,2.41,2.41,0,0,1,2,2.4c0,1.2,0,2.31.06,3.31a10.92,10.92,0,0,0,.42,2.7q.84,3.14,3.13,2.89,2.52-.24,2.76-5v-5.17q0-5.65-5.41-8.66-2.16-1.2-4.21-2.28a20.08,20.08,0,0,1-3.84-2.65,15.62,15.62,0,0,1-5.17-8.29q-1.1-4.69-1.57-6.07a6.07,6.07,0,0,0-.9-1.87,3,3,0,0,0-.9-.72,4.74,4.74,0,0,1-1.32-1.44,4.5,4.5,0,0,1-.6-4.21c.48-1.6.88-2.95,1.2-4a12.44,12.44,0,0,0,.48-3.55q0-1.92-.18-3.78c-.12-1.24-.18-2.51-.18-3.79A13.35,13.35,0,0,1,1006.72,258.34Z"/><path d="M1102.43,291.17l-.12-8.06a15.34,15.34,0,0,1,.6-4.21,12.68,12.68,0,0,0,.66-2.7c.12-.92.24-1.88.36-2.89s.26-2,.42-2.94c.4-2.25,1-3.45,1.69-3.61s1.16-1,1.32-2.64a13.61,13.61,0,0,0-.24-6.38q-1-2.88.12-4.45c1.36-2.08,3.61-2.4,6.73-1a14.71,14.71,0,0,0,4.81,1.45,10.29,10.29,0,0,0,2.59-.3l3.24-.85a2.84,2.84,0,0,1,3.37,1.57,6.8,6.8,0,0,1,1.08,4.14c-.12,1.37-.26,2.63-.42,3.79s-.32,2.39-.48,3.67a47,47,0,0,1-1.38,6.31,16.29,16.29,0,0,0-.78,3.13c-.17,1.08-.33,2.22-.49,3.42a51.92,51.92,0,0,1-1.08,7.58c-2.08,7.86-3.12,12.62-3.12,14.31a11.56,11.56,0,0,1-.24,3.12,8.48,8.48,0,0,1-.61,1.2c-.24.41-.56.91-1,1.51a14.65,14.65,0,0,0-1.32,2.82,11.16,11.16,0,0,0-.84,4.57,16.77,16.77,0,0,1-.6,6.49q-.84,2.3-1.75,4.63t-1.74,4.63a40.78,40.78,0,0,0-2.52,7.94,8.45,8.45,0,0,1-1.87,4.39,2.47,2.47,0,0,1-2.88.9,3.45,3.45,0,0,1-1.93-1.44c-.28-.57-.54-1.13-.78-1.69a4.75,4.75,0,0,0-2.64-2.88,6.45,6.45,0,0,1-3.55-3.43,16.12,16.12,0,0,1-1.32-5.95q-.18-3.5-.42-6.25c-.17-1.85-.36-3.53-.6-5.05q-1.1-5.65-2.29-5.65-.72,0-1.08,1.26t-.72,3.18c-.72,3.61-1.51,6.1-2.35,7.46a12.48,12.48,0,0,0-1.62,3.61,29.8,29.8,0,0,0-.54,3c-.12,1-.22,1.91-.3,2.83a10.65,10.65,0,0,1-.66,2.82c-.36,1-.78,1.95-1.27,2.95a9.3,9.3,0,0,1-1.8,2.58c-1.68,1.52-3.61,1.61-5.77.24a18.38,18.38,0,0,0-4.57-2.1,16,16,0,0,1-3.37-1.32,4.49,4.49,0,0,1-1.5-2,13.75,13.75,0,0,1-1-4c-.2-1.73-.46-3.71-.78-6a99,99,0,0,0-3.37-15.51,109.81,109.81,0,0,1-3.12-13.16q-1.58-8.36-2.11-10.94c-.36-1.73-.7-2.63-1-2.71q-.84-.12-1.44-2.4a16.85,16.85,0,0,1-.48-6,13.76,13.76,0,0,0,.18-3.79,35.18,35.18,0,0,0-.55-3.55c-.24-1.2-.5-2.36-.78-3.49s-.54-2.32-.78-3.6c-.72-3.05-.08-5.25,1.93-6.62,2.88-1.76,5.29-1.92,7.21-.48.88-.64,2.08-.56,3.61.24a10.27,10.27,0,0,1,3.3-2.16,4.88,4.88,0,0,1,3.55-.3,4.59,4.59,0,0,1,2.4,1.8,10.31,10.31,0,0,1,1.33,3.07,40.07,40.07,0,0,1,1.14,6.79q.42,4.28.42,6.07v3.61a61.71,61.71,0,0,0,.78,9.38,48.38,48.38,0,0,1,.72,7.87,20.09,20.09,0,0,0,.18,4c.16.76.32,1.43.48,2a8.3,8.3,0,0,0,.61,1.56,1.72,1.72,0,0,0,2,1,1.2,1.2,0,0,0,.72-1.14,14.09,14.09,0,0,0-.18-2q-.18-1.2-.42-2.64a12.06,12.06,0,0,1-.12-2.95l.3-3.72c.12-1.49.22-3,.3-4.63q.6-6.86,1.08-9.8c.32-2,.56-3.49.72-4.57s.36-2.26.61-3.55a9.74,9.74,0,0,0,3.12-4.33,1.81,1.81,0,0,1-.48-1.08l.84-3.48a3.61,3.61,0,0,1,1.2-2.35,2.24,2.24,0,0,1,2.05-.78,4.09,4.09,0,0,1,1.44.6,3.74,3.74,0,0,1,1,1.32,19.72,19.72,0,0,1,.9,5.89c.12,2.73.24,4.65.36,5.78s.22,2.1.31,2.94.16,1.65.24,2.41.12,1.92.12,3.48,0,3.11-.12,4.63a9.4,9.4,0,0,0,1,4.57,14.56,14.56,0,0,1,1.2,3.07,5.1,5.1,0,0,1,0,1.56q-.12.78-.3,1.8a19.34,19.34,0,0,0-.18,3.07c0,2.48.6,4.29,1.8,5.41q2.78,2.52,3.37-1.92A30.36,30.36,0,0,0,1102.43,291.17Z"/><path d="M1162.31,274.1q-4.1,1.08-1.57,13.94a29,29,0,0,1,.9,5.83A18.44,18.44,0,0,1,1161,299a18.7,18.7,0,0,0-.72,4.45,19.6,19.6,0,0,1-.48,4,43.67,43.67,0,0,1-.06,5.11c-.12,1.72-.22,3.39-.3,5a41.45,41.45,0,0,0-.12,7,2,2,0,0,0,.78,1.39,7.45,7.45,0,0,0,1.26.54,3.09,3.09,0,0,1,2.05,1.56,7.26,7.26,0,0,1,.3,2.7,24.45,24.45,0,0,1-.42,3.67c-.72,3.05-1.73,5-3,5.89a2.83,2.83,0,0,1-2.22.48c-.76-.16-1.59-.32-2.47-.48a11,11,0,0,0-7,.72q-7.1,3.85-10.94,0a7.82,7.82,0,0,1-1.93-4.8q-.48-5.89.67-7.58a6.71,6.71,0,0,1,1.92-2.1q.78-.42,1.38-.78a2.1,2.1,0,0,0,1.32-2.05,9.67,9.67,0,0,1,.31-2.34c.19-.85.38-1.75.54-2.71a9,9,0,0,0-.6-5.77,8.22,8.22,0,0,1-1.15-4.33q.18-1.68.3-3l.48-2.89a28.42,28.42,0,0,0-.12-5.95c-.24-1.64-.42-3.37-.54-5.17s-.16-3.51-.12-5.11.06-3.13.06-4.57q0-5.06-1-6a3.23,3.23,0,0,0-1.86-1c-.56,0-1.13-.06-1.69-.06-1.52.16-2.48-.08-2.88-.73a4.55,4.55,0,0,1-1.32-3.36,5.32,5.32,0,0,1,.78-3.13,5.85,5.85,0,0,0,1-2.46,17.28,17.28,0,0,0,.24-2.95,12.69,12.69,0,0,0-.24-4.75,10.83,10.83,0,0,1-.66-2,8.87,8.87,0,0,1-.18-1.74q0-3.49,4.93-3.61,3-.12,6.13.06a20.42,20.42,0,0,0,4.93-.18,41.87,41.87,0,0,1,10-1,24.89,24.89,0,0,1,4.87.6q3,1.2,3.24,6.61c.08,1.68.12,3.45.12,5.29s.08,3.73.25,5.65Q1167.35,273,1162.31,274.1Z"/><path d="M1205.11,254.14l3.85-.24q4.08,0,5.83,1.32a16.28,16.28,0,0,1,2.64,2.4,21.13,21.13,0,0,1,1.63,2.23,12.57,12.57,0,0,0,2,2.34,3.79,3.79,0,0,1,1.26,2.83,3.62,3.62,0,0,0,.9,2.58,4.47,4.47,0,0,1,.91,3.13c0,1.44,0,2.82-.06,4.15a13.53,13.53,0,0,1-.43,3.24,9.21,9.21,0,0,0-.36,2.53,4.69,4.69,0,0,0,.55,2.28c.36.68.4,2.33.12,4.93a71.24,71.24,0,0,1-1.33,7.88,30.46,30.46,0,0,1-2.34,6.85,20.06,20.06,0,0,1-9.38,8.54q.6,1.44,1.38,3.18c.52,1.17,1,2.35,1.51,3.55a22.57,22.57,0,0,1,1.56,6.43,16.44,16.44,0,0,0,.18,2.89,5.71,5.71,0,0,0,.42,1.38,1.65,1.65,0,0,0,.66.72,11.85,11.85,0,0,1,1.26.9,4.46,4.46,0,0,1,1.33,2.23,11,11,0,0,1,.48,3.24c0,2.57-.3,4.15-.9,4.75a4.76,4.76,0,0,1-1.93,1.21,12.2,12.2,0,0,1-2.1.42c-1.85.24-3,0-3.49-.72a3.13,3.13,0,0,1-1-2,5,5,0,0,0-.42-1.8,1.6,1.6,0,0,0-1.08-1c-.48-.12-.83-.62-1-1.51a3.05,3.05,0,0,0-.84-1.74,3.22,3.22,0,0,0-2.22-.18q-3,.6-4.45-3.61a20.6,20.6,0,0,1-.72-2.52c-.24-1-.52-2.05-.84-3q-1-3.48-2.23-3.79a1.91,1.91,0,0,0-1.86.3,3.83,3.83,0,0,0-.9,1.63,8.07,8.07,0,0,0-.3,2.28,13.37,13.37,0,0,0,.3,2.71,5.47,5.47,0,0,1,.06,2.4,4.67,4.67,0,0,1-.66,1.57,8.93,8.93,0,0,1-.91,1.08,3,3,0,0,0-1.14,2.4,19.42,19.42,0,0,1-.54,3.13q-.72,3.24-1.92,4.09a5.75,5.75,0,0,1-2.41,1,6.92,6.92,0,0,1-2.4-.06c-2-.4-3.25-1.1-3.73-2.11a9.13,9.13,0,0,1-.84-2.28,6.37,6.37,0,0,1-.06-1.5c0-.48.1-1,.18-1.57a10.35,10.35,0,0,0,.06-2,17.31,17.31,0,0,0-.54-3.07,23.39,23.39,0,0,1-.6-4.56l-.12-3.13a3.56,3.56,0,0,1,.84-1.62,3.22,3.22,0,0,0,.54-2.65,2.35,2.35,0,0,0-1.38-1.92c-.73-.28-1.09-.62-1.09-1s.08-1.4.24-3a28.09,28.09,0,0,0-.18-6q-.42-3.61-.54-6.37-.48-6-2.1-6.8a3,3,0,0,1-1.86-1.92,6.62,6.62,0,0,1,0-2.59q.24-1.44.54-3.6c.2-1.45.42-2.91.66-4.39s.46-2.87.66-4.15.34-2.16.42-2.65a5.4,5.4,0,0,0,.06-1.38q-.06-.66-.06-1.26a11.83,11.83,0,0,1,0-3.37,11.86,11.86,0,0,0,.24-3.9,8,8,0,0,1,.42-3.49,21.15,21.15,0,0,1,1.14-3.31,3,3,0,0,1,1.81-1.44,10.78,10.78,0,0,0,2.58-1.38c.84-.6,1.62-1.21,2.35-1.81s1.36-1.16,1.92-1.68a5.1,5.1,0,0,1,2-1.14,10.73,10.73,0,0,1,5.11-.18,7.41,7.41,0,0,1,2.35,1.14,13.09,13.09,0,0,0,1.74,1.2,8.43,8.43,0,0,0,2.17.9,8.3,8.3,0,0,0,2.1.3,7.78,7.78,0,0,1,3.07.67A2,2,0,0,0,1205.11,254.14Zm-10,33.54.72,10.94a18.14,18.14,0,0,1-.12,2.11q-.12,1-.24,1.86-.12,1.8,1.32,2.16a1.82,1.82,0,0,0,1.93-.66,9.3,9.3,0,0,0,1.32-2.46c1-2,1.28-3.29,1-3.85a2,2,0,0,1-.54-2.1c.28-.6.88-1.79,1.8-3.55a34.36,34.36,0,0,0,2-4.57,8.45,8.45,0,0,0,.3-4.15,22.94,22.94,0,0,1-.36-3.06V279a2.28,2.28,0,0,0-.9-1.74,3.67,3.67,0,0,0-1.27-.84,3.77,3.77,0,0,0-.6-.06,3.22,3.22,0,0,1-2-.18,3.85,3.85,0,0,0-1.81-.36,3.32,3.32,0,0,0-1.92,1.14,3.73,3.73,0,0,0-1.2,2.23,13.85,13.85,0,0,0,0,2.58A52.41,52.41,0,0,1,1195.13,287.68Z"/><path d="M1267.09,322.37a3.76,3.76,0,0,1,.48,2.16c0,.84-.12,1.71-.24,2.59a10.47,10.47,0,0,0,.06,2.94c.16,1.09.3,2.13.42,3.13A23.77,23.77,0,0,1,1268,336a3.27,3.27,0,0,1-.78,2.22,5.78,5.78,0,0,1-2.34,1.5,15,15,0,0,1-3.49.84,14,14,0,0,1-7.7-1.32,8.29,8.29,0,0,0-5.71-1,37.14,37.14,0,0,0-4.21,1.14,34,34,0,0,1-3.48,1,14.64,14.64,0,0,1-3.91.42,4,4,0,0,1-3.25-2.16,9.77,9.77,0,0,1-1.44-4.87,15.65,15.65,0,0,1,.84-5.65,17.11,17.11,0,0,0,.72-6.55q-.24-3.67-.48-6.25a21.13,21.13,0,0,1,0-4.51c.4-3.05,0-5.17-1.08-6.38a5.49,5.49,0,0,1-1.32-3.66c0-1.4,0-2.55.12-3.43a4.38,4.38,0,0,1,.84-2.28,5.23,5.23,0,0,0,.9-1.63,6.68,6.68,0,0,0-.06-2.34,51.82,51.82,0,0,1-.66-10.58,27.89,27.89,0,0,0-.12-6.43,15.87,15.87,0,0,1-.18-4.45,5.81,5.81,0,0,0-.24-2.95,2.83,2.83,0,0,1-.3-1.74,3.05,3.05,0,0,0-.06-1.57q-.24-1-.48-2.22a14.15,14.15,0,0,1-.42-4.93,13.5,13.5,0,0,1,1.2-3.07,3.74,3.74,0,0,1,2.22-2.1,4.7,4.7,0,0,0,1.57-.6,3.94,3.94,0,0,1,1.2-.6,5.44,5.44,0,0,1,3.73-.12,5.73,5.73,0,0,0,2.16.66,16.35,16.35,0,0,0,2,0,10.86,10.86,0,0,0,2-.3l1.44-.24c1.68-.48,3-.4,3.85.24a13.71,13.71,0,0,1,1.2,1.32,1.68,1.68,0,0,1,.12,1.44,1.73,1.73,0,0,0,.24,1.57,2.32,2.32,0,0,1,.36,1.74,8.65,8.65,0,0,0-.06,1.68c0,.36.1.75.18,1.15a6.2,6.2,0,0,1-.24,2.88c-.32,1.12-.52,1.86-.6,2.23a4.71,4.71,0,0,0-.12,1,10,10,0,0,1-.42,2.94,10.79,10.79,0,0,0-.48,2.29q-.06.9-.06,2.1v2.65q0,1.44-.18,3.6c-.12,1.45-.24,3.15-.36,5.11s-.22,3.95-.3,6c-.32,5.29-.72,8.65-1.21,10.1q-1.92,1.08-.6,5.05l.85,2.52a22.36,22.36,0,0,1,1.2,7.09,37.06,37.06,0,0,1-.6,6.74,15.21,15.21,0,0,0,4.93,2,10.45,10.45,0,0,0,6.31-1c1.88-1,3.24-1.36,4.09-1.2A2.52,2.52,0,0,1,1267.09,322.37Z"/><path d="M1284.82,303.55l-.24,8.54q0,8.3-3.48,11.06a6,6,0,0,1-4,1.32,4.27,4.27,0,0,1-2.71-1.32,3.93,3.93,0,0,1-1-2.52,28.94,28.94,0,0,0-.6-4.15q-.54-2.72-1.32-5.41a16.4,16.4,0,0,1-.54-5.83c.16-2.09.26-4.05.3-5.9a6.16,6.16,0,0,0-1-4.08,6.36,6.36,0,0,1-1.45-4.09,6.21,6.21,0,0,1,.48-2.53,16.94,16.94,0,0,0,1.09-5.53c0-1.6,0-2.76-.12-3.48s-.18-1.43-.3-2.11-.27-1.72-.43-3.12a24.07,24.07,0,0,1,0-4.81,31.23,31.23,0,0,0,0-5.47c-.16-1.85-.26-3.33-.3-4.45a10.93,10.93,0,0,1,.79-4,13.74,13.74,0,0,1,1.38-3.07,5.21,5.21,0,0,1,1.86-1.38q1.32-.66,1.8-1a2,2,0,0,1,1.33-.18,3.29,3.29,0,0,1,1.8,1.14,7.1,7.1,0,0,0,2.29,1.62c.88.41,1.9.89,3.06,1.45a3.35,3.35,0,0,1,2,2.7,9.75,9.75,0,0,0,.42,2.23,2.28,2.28,0,0,0,.42.6,13.84,13.84,0,0,1,.48,3.18,16.5,16.5,0,0,1-.42,5.41,23,23,0,0,0-.72,4.51,13.75,13.75,0,0,1-.67,3.67,9.59,9.59,0,0,0-.42,3.85,15.06,15.06,0,0,1,.06,2.94,17.08,17.08,0,0,1-.3,1.75,7.18,7.18,0,0,0-.18,1.62,12.27,12.27,0,0,0,.42,2.58,11.68,11.68,0,0,1,.36,3.19,20.33,20.33,0,0,0,.12,3.07,14.62,14.62,0,0,1,0,3.24A46.73,46.73,0,0,0,1284.82,303.55Zm-15.15,34.87a3,3,0,0,1-.18-1.8,5.57,5.57,0,0,1,2-2.53,24.92,24.92,0,0,1,4.45-3q2.64-1.45,7.21-.85a4.31,4.31,0,0,1,3.37,2.53q2.52,4.32-2.29,7.81a10.44,10.44,0,0,1-3.84,1.75,3.89,3.89,0,0,0-2.35,1.08,1.94,1.94,0,0,1-2.1.42,2.6,2.6,0,0,1-1.93-1.5,2.53,2.53,0,0,0-1.44-1.51,6.68,6.68,0,0,1-1.74-1A3.61,3.61,0,0,1,1269.67,338.42Z"/><path d="M612,304.63l.49-6.75v-2.32a7.51,7.51,0,0,0-.07-1l-.21-2.53a8.43,8.43,0,0,1,0-1.34c0-.46,0-.86,0-1.19v-.84a4.11,4.11,0,0,0-.07-.71l-.21-.91.07-.71a1,1,0,0,0-.14-.56,2.15,2.15,0,0,1-.25-.63,2.62,2.62,0,0,1,0-1,2,2,0,0,0,0-.88.93.93,0,0,0-.28-.46,1.88,1.88,0,0,1-.31-.32.71.71,0,0,1-.18-.38.89.89,0,0,0-.28-.46,2.43,2.43,0,0,0-.77-.46,3.45,3.45,0,0,1-1-.56,4.35,4.35,0,0,0,0-.95,2,2,0,0,1,.25-1,5.55,5.55,0,0,1,1.79-.28,2.46,2.46,0,0,1,1.48.39,2,2,0,0,0,1.19.38,2.33,2.33,0,0,0,1.44-.63,5.86,5.86,0,0,0,1.76.21l2.6-.07,3.45.28,1.26-.14a6.67,6.67,0,0,1,1.9.28,6.33,6.33,0,0,0,1.9.28l1.69-.07,1-.14,1.2.28,1.26-.14,1.2.07a3.78,3.78,0,0,0,1.19-.21,8.15,8.15,0,0,0,.74-2.6,5.16,5.16,0,0,1,.88-2.39,6.31,6.31,0,0,1,1.09-.14.67.67,0,0,1,.6.35,1.22,1.22,0,0,1,.21.56l-.14.43.21,1.54-.14,1.27.21,2-.14,1.26.21,1.13-.21,1.4.07.5a1.69,1.69,0,0,0-.53.77,4.13,4.13,0,0,1-.38.84l-.88.46a1.64,1.64,0,0,1-.74.25c-.19,0-.4-.31-.63-.92a4.23,4.23,0,0,1-.35-1.47l.14-1.55v-.42a1.91,1.91,0,0,0-1.41-.56l-1.27.35-2.11-.5-1.75.15a.45.45,0,0,1-.35-.15h-1.41l-2.6-.14a3.76,3.76,0,0,0-1.27.18c-.33.12-.68.22-1,.32s-.84.17-1.37.24l-1.62.18-1.62.14c-.54.05-.92.07-1.16.07a1,1,0,0,0-.28.88,1.58,1.58,0,0,1-.07.84c-.09.21-.17.32-.21.32s-.07.16-.07.49l.42,3.45v1.82l.07,1c-.09,0-.14.1-.14.31a3.91,3.91,0,0,0,.49,1.31,3.67,3.67,0,0,0-.07.77l-.21.91.21.85-.07,1.68.14,2.11-.49,7.95a8.87,8.87,0,0,0,.28,2.18,4.6,4.6,0,0,1,.07,2.11,4.28,4.28,0,0,0,2.92.7c1.48,0,2.38,0,2.71.07l.84.14.7-.14,1.62.28,1.69.14a1.12,1.12,0,0,0,1.19-.77,3,3,0,0,1,.57-1.48,3.63,3.63,0,0,1,.35-1.68l1-.29c.24,0,.46.2.67.6a2.28,2.28,0,0,1,.32.95l-.57,4.29.29,2a8.82,8.82,0,0,0-.78,1.69,3.79,3.79,0,0,0-.84.24,2.13,2.13,0,0,1-.85.18,1.3,1.3,0,0,1-.24-.39,1.66,1.66,0,0,0-.35-.49,1.53,1.53,0,0,1-.35-.84c-.08-.4-.16-.77-.25-1.09a1.44,1.44,0,0,0-1.13-.25,1.14,1.14,0,0,1-1.05-.32,2.2,2.2,0,0,1-.95.28,1.44,1.44,0,0,1-.81-.28,5.66,5.66,0,0,1-1.83.28l-2.32-.07h-.63a2.13,2.13,0,0,0-1,.22,1.11,1.11,0,0,1-.6.17.3.3,0,0,0-.28.11l.07.28-.42,3.51.14,2-.21,1.2.21.84-.21,3.17c0,1.5.49,2.25,1.48,2.25l1.33-.15,1.69.22a1.2,1.2,0,0,0,.91-.36,2.88,2.88,0,0,0,1.13.22l2.6-.22h.42a1.33,1.33,0,0,1,.57.14,6,6,0,0,1,2-.28c.8,0,1.45,0,1.94-.07s1-.1,1.4-.17a8.45,8.45,0,0,1,1.3-.11l1.2.07c.52,0,.83-.1,1-.31a1,1,0,0,1,.53-.46c0-.19.09-.45.14-.77.18-1.32.61-2,1.26-2,.42,0,.69.11.81.35a2.07,2.07,0,0,0,.67.7q.21,2.54.21,3.45a.12.12,0,0,0-.14.14l.14,1.61a2.52,2.52,0,0,1-.35,1.34c0,.23-.07.35-.35.35a1.11,1.11,0,0,0-.67.18,1.42,1.42,0,0,0-.39.38.53.53,0,0,1-.49.22l-1.19-.43c-.05-.42-.1-.89-.15-1.4a2.86,2.86,0,0,0-.42-1.34,4.76,4.76,0,0,1-.84.07h-.92c-.93,0-1.45.14-1.54.42a1.39,1.39,0,0,0-.6-.14,1.46,1.46,0,0,0-.74.28.76.76,0,0,0-.56-.21l-1,.07-.78-.14-.77.14-1.2-.35a4.89,4.89,0,0,0-2.25,1.06l-1.83-.5q-.14,0-.24.18a.41.41,0,0,1-.39.18l-2.18-.29-1.47.22h-1.13a4.27,4.27,0,0,0-2.46.49,1.52,1.52,0,0,0-1-.28l-.5.14-.35-.14a2.38,2.38,0,0,0-1.23.42,2.43,2.43,0,0,1-.88.42c-.94,0-1.4-.59-1.4-1.76v-.35c.18-.37.7-.65,1.54-.84a14.33,14.33,0,0,1,1.41-.28A4.22,4.22,0,0,0,612,328c.07-.52.12-.94.17-1.27a5,5,0,0,0,.07-.7l-.21-1.26.21-.85-.21-.56.14-.7-.21-.64.21-1.82a1.4,1.4,0,0,0,0-.53,3.47,3.47,0,0,1,0-.6l.21-1.83-.28-1.76a2.48,2.48,0,0,1,.07-.63,5.93,5.93,0,0,0,.14-.67,3.24,3.24,0,0,0,0-.84c0-.3,0-.6,0-.88v-.77a.13.13,0,0,1-.14-.14l.21-.5-.21-.84a6.82,6.82,0,0,1-.17-2c0-.82,0-1.51,0-2.08Z"/><path d="M645.91,302a3.78,3.78,0,0,1-1.55,2.25,2.4,2.4,0,0,0,.64,1.41,5.81,5.81,0,0,1,.81,1.13,5.08,5.08,0,0,1,.31.7,6,6,0,0,0,.39.77,9.05,9.05,0,0,0,.81,1.2,13.72,13.72,0,0,1,.88,1.26c.25.43.5.82.74,1.2l.56.77a4.69,4.69,0,0,1,.49.78,7.3,7.3,0,0,0,.49.84l.21.14c.28.56.58,1.1.88,1.62a14.26,14.26,0,0,1,.81,1.54l.28.14a7.85,7.85,0,0,0,.7,1.55l.29.14c.28.71.6,1.06,1,1.06s.66-.35.84-1.06a7.18,7.18,0,0,1,.78-2.53,1.23,1.23,0,0,0,.14-.53,1.07,1.07,0,0,1,.14-.52l.42-.78.35-1.05a2.32,2.32,0,0,1,.18-.39,2.91,2.91,0,0,0,.21-.46,2.1,2.1,0,0,0,.1-.73,2.72,2.72,0,0,1,.22-1c.14-.38.3-.85.49-1.41a11.5,11.5,0,0,1,.67-1.62c.25-.51.49-1,.7-1.51s.4-.9.56-1.23a5.52,5.52,0,0,1,.35-.63l.21-.28a.37.37,0,0,0,.07-.32.63.63,0,0,1,.07-.39,1,1,0,0,1,.39-.38,1.7,1.7,0,0,0,.53-.74,10.29,10.29,0,0,0,.49-1.55,2.49,2.49,0,0,1,.91-1.47,2.32,2.32,0,0,1,1.38-.5,1.21,1.21,0,0,1,1,.35,1.92,1.92,0,0,0,.56.5v.21c0,.89-.23,1.4-.7,1.54a20.09,20.09,0,0,1-1,3c-.35.78-.6,1.19-.74,1.23a8,8,0,0,1-1.55,3.17,2.11,2.11,0,0,0-.14.77,2.63,2.63,0,0,1-.63,1.69,2.3,2.3,0,0,0-.63,1.4v.85a3,3,0,0,1-.63,1.62,4,4,0,0,1-.22,1.33,11,11,0,0,0-1,3.87c-.23.09-.49.61-.77,1.55a9.84,9.84,0,0,0-.42,1.68l.07,1.27a1.08,1.08,0,0,1-.36.95,1.74,1.74,0,0,0-.52.53,4.48,4.48,0,0,0-.32.56.9.9,0,0,1-.42.42,1.06,1.06,0,0,1,.14.67,14.49,14.49,0,0,1-1.44,3.41c-1,1.92-1.49,2.95-1.58,3.09v1.13a4,4,0,0,0-.39.56,3.24,3.24,0,0,1-.46.56,1.25,1.25,0,0,0-.35.63c0,.24-.24.33-.56.29a7,7,0,0,1-.64,1.72,5.31,5.31,0,0,0-.52,1.33c-.07.36-.18.55-.32.6a.73.73,0,0,0-.35.25.78.78,0,0,0-.18.35c0,.12-.08.15-.17.1h-.21v.08l.14.63v.21a4,4,0,0,0-1.34,2.39,1.38,1.38,0,0,0-.7.63,2.33,2.33,0,0,1-.49.71,4.44,4.44,0,0,1-.85,1,2.87,2.87,0,0,0-.77,1.12c-.24.05-.45.09-.63.11a2.32,2.32,0,0,0-.64.18,2.35,2.35,0,0,1-1.05.8,2.2,2.2,0,0,0-1.06,1,7.09,7.09,0,0,0-1.51.6,5.83,5.83,0,0,1-1.65.6c-.14.09-.27.19-.39.28a2.67,2.67,0,0,1-.59.32,6.22,6.22,0,0,1-1.83.17,9.63,9.63,0,0,1-2.25-.21,4.44,4.44,0,0,1-1.41.21c-1.31,0-2-.3-2-.91,0-.14-.09-.22-.28-.25a.72.72,0,0,1-.49-.31v-.28h-.28c-.33-.29-.52-.45-.56-.5,0-.28-.07-.45-.22-.52s-.16-.25-.07-.53a2.36,2.36,0,0,1-1.05-1.83,14.74,14.74,0,0,1-.28-1.76l.28-.91-.14-.78a3.31,3.31,0,0,1,.35-1.12,4.52,4.52,0,0,0,.42-1.27,2.61,2.61,0,0,0,1-1.4,1.91,1.91,0,0,0,.88-.67c.21-.31.43-.6.66-.88.52-.14,1-.29,1.59-.46a6.78,6.78,0,0,1,1.93-.24,2.79,2.79,0,0,1,1.9.67,15.76,15.76,0,0,1,1.19,1.12,11.43,11.43,0,0,0,1,1,14.15,14.15,0,0,0-.14,1.83,2.63,2.63,0,0,0-.64.35,1.24,1.24,0,0,1-.77.21.66.66,0,0,1-.67-.42,1,1,0,0,0-.74-.56l-.49-1.27a5.79,5.79,0,0,1-.91-.21,3.8,3.8,0,0,0-1.13-.14,1.13,1.13,0,0,0-1.05.63,4.31,4.31,0,0,1-.92,1.13l-.14.28a4.74,4.74,0,0,1-.52.28.62.62,0,0,0-.39.42,1.62,1.62,0,0,1,.14.7,1.73,1.73,0,0,1-.32.92,1.92,1.92,0,0,0-.31,1.05,2.46,2.46,0,0,0,.31,1.16,5.17,5.17,0,0,1,.46,1.16,3.71,3.71,0,0,1,1,1,3.17,3.17,0,0,0,.95.91,2.22,2.22,0,0,0,1.05,0,5.07,5.07,0,0,1,1.06-.11l.84.28.07-.21h1a8.12,8.12,0,0,0,2.14-.38,10.92,10.92,0,0,0,1.94-.74l.63-.5q.5-.34,1-.66a4.7,4.7,0,0,0,.91-.71,5.67,5.67,0,0,0,.7-.84,2.6,2.6,0,0,1,.81-.74c.28-.56.64-1.19,1.06-1.9a19.48,19.48,0,0,0,2.81-6.11,4.85,4.85,0,0,0,1.13-1.87,4.34,4.34,0,0,1,1-1.72,2.59,2.59,0,0,1,.63-1.48,3.77,3.77,0,0,1,.53-1.68,5,5,0,0,0,.6-1.52,10.54,10.54,0,0,1,.35-1.37,2.83,2.83,0,0,0,.63-1.72,2.37,2.37,0,0,0-.28-1.3,1.18,1.18,0,0,1-.14-1,.73.73,0,0,1-.35-.25,1.45,1.45,0,0,0-.42-.32,4.42,4.42,0,0,0-.67-1.16,10.91,10.91,0,0,1-.74-1,3,3,0,0,1-.46-1.06.88.88,0,0,0-.8-.66l.07-.14a.45.45,0,0,0-.15-.39c-.09-.07-.11-.22-.07-.46s-.21-.28-.49-.28a1.07,1.07,0,0,0-.28-.74,3.24,3.24,0,0,1-.42-.56c-.1-.16-.13-.27-.11-.32s0-.11-.1-.21l-.28-.14a.41.41,0,0,1-.14-.32,1.45,1.45,0,0,0-.21-.56l-.6-1a7.58,7.58,0,0,1-.67-1.3q-.57-.63-1-1.2a4,4,0,0,1-.78-1.4,4.84,4.84,0,0,1-1.12-1.52,6.83,6.83,0,0,0-1.06-1.58v-.14a2.58,2.58,0,0,0-.35-1,3.07,3.07,0,0,0-.6-.88,3,3,0,0,1-.42-.45,1.61,1.61,0,0,1-.25-.53,1,1,0,0,0-.28-.49l-2.25.14c-1,0-1.54-.17-1.54-.5l.14-.49a.13.13,0,0,0-.14-.14l-.28-.49c0-.14,0-.21.14-.21,0-.38.36-.57,1-.6a5.49,5.49,0,0,0,1.58-.28,1.84,1.84,0,0,1,1.12-.11,2.65,2.65,0,0,0,.71-.42,1.24,1.24,0,0,1,.77-.28l1.19.14,1.13-.28,1,.14.5-.14A1.74,1.74,0,0,1,645.91,302Z"/><path d="M685,303.36l2,2.88v.14a2.61,2.61,0,0,0,.6,1.76,5.23,5.23,0,0,1,1,1.69,4.26,4.26,0,0,1-.42.49,1.63,1.63,0,0,0-.35.56,2.66,2.66,0,0,1-.71.14L686,311a1.07,1.07,0,0,0-.7.22,1.56,1.56,0,0,0-.85-.22h-.84a3.07,3.07,0,0,1-1.2-.21.66.66,0,0,0-.42.43c-.09.23-.42.34-1,.31a4.57,4.57,0,0,0-1.23.07,3.34,3.34,0,0,0-.6.21,1.45,1.45,0,0,1-.63.11l-1.41-.14h-1.69c-.42.65-.63,2.39-.63,5.2l.49,3.09-.07,1.48a1.73,1.73,0,0,0,.14.92,2.15,2.15,0,0,1,.49,1.37,3.36,3.36,0,0,0,.39,1.51,5.6,5.6,0,0,1,.49,1.23,8.27,8.27,0,0,0,.39,1.16,3.3,3.3,0,0,0,1,1.3,2.59,2.59,0,0,0,1.69.6,2.52,2.52,0,0,0,1.61-.53,8.57,8.57,0,0,1,1.06-.74c.26-.14.41-.2.46-.17s.15,0,.31-.11a5.46,5.46,0,0,0,.85-.7,6.43,6.43,0,0,0,.73-.78,2.94,2.94,0,0,0,.29-.59c.09-.26.22-.62.38-1.09s.41-.71.74-.71.67.25,1,.74a2.55,2.55,0,0,1,.53,1.48,1.29,1.29,0,0,1-.81,1.16,1.89,1.89,0,0,0-1,1.19c-.75.33-1.18.65-1.3.95a1.18,1.18,0,0,1-.35.56c-.12.08-.2.1-.25.08a.41.41,0,0,0-.21,0c-.09,0-.14.09-.14.28a5.77,5.77,0,0,0-.84.7,1.83,1.83,0,0,0-1.69.32,2.81,2.81,0,0,1-1.62.6,2.06,2.06,0,0,1-1.4-.56,2.21,2.21,0,0,1-.78.14,2.47,2.47,0,0,0-.84.14,3.78,3.78,0,0,0-1.27-.85,13.37,13.37,0,0,1-1.4-.63c-.1-.28-.2-.43-.32-.46s-.13-.2,0-.52l-.52-.28-.53-.29a3.75,3.75,0,0,0-.77-1.05v-.91A1.19,1.19,0,0,1,671,326a1.66,1.66,0,0,0-.74-1,7.74,7.74,0,0,0-.32-1.66,5.73,5.73,0,0,1-.24-1.65v-1.26l-.49-3v-.56l.21-.63-.21-.63.49-3,.28-.42q.35-1.83.6-3.3a9,9,0,0,1,1-2.85c.49-.92,1-1.78,1.51-2.6a6.9,6.9,0,0,0,1-2.29,29.8,29.8,0,0,1,4.29-2.88,1.67,1.67,0,0,0,.56.14l1.12-.21a2.3,2.3,0,0,1,1.48.84l.77-.14h.28a1,1,0,0,1,.18.49.37.37,0,0,0,.32.35,2.65,2.65,0,0,1,1,1.52,2,2,0,0,0,1,1.37Zm-2,5.91,2.39-.5v-.28a3.46,3.46,0,0,0-.11-.84,8.33,8.33,0,0,1-.17-.84,5.74,5.74,0,0,0-.81-.78,1.08,1.08,0,0,1-.32-1,1.21,1.21,0,0,1-.81-.92c-.11-.46-.22-.91-.31-1.33-.1,0-.14-.1-.14-.28a6.55,6.55,0,0,1-.71-.57,3.31,3.31,0,0,0-2.42-.77,3.63,3.63,0,0,0-2.11.39,4.85,4.85,0,0,0-.95,2.11c-.33,1.15-.62,2.11-.88,2.88a7.33,7.33,0,0,0-.39,2.35v.43l2.25.28,1.62-.14.56.14,1.13-.28,1,.14.56-.28Z"/><path d="M700.61,329.87a13,13,0,0,1-1.26.46,1.67,1.67,0,0,0-.67.31,1.94,1.94,0,0,1-.6.35,1.8,1.8,0,0,1-1.61-2.25,6.72,6.72,0,0,0-.88-.35,2.23,2.23,0,0,1-.81-.42v-2.11a3.92,3.92,0,0,0,.56-.91,2.61,2.61,0,0,1,.49-.78.84.84,0,0,1,.53-.28.67.67,0,0,0,.39-.1.82.82,0,0,0,.21-.25.43.43,0,0,1,.21-.21l1-.14a6.37,6.37,0,0,1,1-.14,1.43,1.43,0,0,1,1.4.95,3.82,3.82,0,0,1,.43,1.44c0,.33,0,.54.17.63s.18.48.18,1.16A7,7,0,0,1,700.61,329.87Zm-.28-28.69-.42,7.81.07,2.25c0,1-.16,1.47-.49,1.47-.14,0-.14.05,0,.14a10.34,10.34,0,0,0-.6,1.27c-.21.51-.48.77-.81.77q-.92,0-1.47-1.47a6.94,6.94,0,0,1-.5-3.17v-2.88l-.14-2.32.14-3-.14-1.4.29-.85-.15-.84.08-2.46a52.61,52.61,0,0,0-.39-7.52,26.44,26.44,0,0,1-.39-3.27,3.91,3.91,0,0,1,.32-1.55,5.49,5.49,0,0,0,.38-1.09c0-.33.19-.49.43-.49s.23.05.28-.14.11-.28.21-.28a2,2,0,0,1,1.37.42c.3.28.59.55.84.81a2.57,2.57,0,0,0,.53.45,2.85,2.85,0,0,1,.28.64l.28.14a.56.56,0,0,1,0,.35.37.37,0,0,0,.1.35l.29.14a3.62,3.62,0,0,1,.28,1.27l-.5,3.44.22,3.45v3.23a13.77,13.77,0,0,1-.22,2.71A9.48,9.48,0,0,0,700.33,301.18Z"/><path d="M1716,329.18a3.4,3.4,0,0,0,1,2.74v.21a4.55,4.55,0,0,0,.39,1.55,6.1,6.1,0,0,1,.39,2.25,2,2,0,0,0,.56,1.69,3.24,3.24,0,0,1-.35.42.61.61,0,0,0-.21.42c0,.14,0,.23.17.25a.21.21,0,0,1,.18.24l-.07.14a2.85,2.85,0,0,1-.07,1.06,3.22,3.22,0,0,0-.14,1,2.23,2.23,0,0,0,.07.67l-.57,1.19a2.83,2.83,0,0,1,.07.71,1.76,1.76,0,0,1-1.26,1.75,4.79,4.79,0,0,1,.07.92,5,5,0,0,1-.18,1.3,8.71,8.71,0,0,0-.24,1.37,1.18,1.18,0,0,0-.78,1.19,2.06,2.06,0,0,0-1,.74,7.1,7.1,0,0,1-.73.88,2.5,2.5,0,0,1-.57.46,1.45,1.45,0,0,0-.42.35,1.94,1.94,0,0,0-.35.6,2.75,2.75,0,0,1-.63,1c-.28.19-.43.37-.43.53a1.58,1.58,0,0,1-.42.77,3.9,3.9,0,0,1-1.44,1,5,5,0,0,0-1.72,1.23h-.21l-.78.28a2.44,2.44,0,0,0-.42.63c-.23.33-.77.42-1.61.28-.29.14-.6.32-1,.53a2.2,2.2,0,0,1-1.13.32q-.6,0-.6.24c0,.17-.15.25-.45.25a1.26,1.26,0,0,0-.67.14h-.07l-1-.28a3.36,3.36,0,0,1-1.26.28l-1.76-.42a1,1,0,0,0-.42.14,1.06,1.06,0,0,0-.7-.42,1.63,1.63,0,0,1-.71-.28,1.5,1.5,0,0,0-.56.42h-.14l-1.34.07c-.51,0-.82-.17-.91-.49a2.05,2.05,0,0,1-1.72-.53,2.65,2.65,0,0,1-1.16-1.37h-.21l-.85-.28c-.14-.19-.28-.37-.42-.53a1.24,1.24,0,0,1-.28-.6,1.77,1.77,0,0,1-.92-.53,1.36,1.36,0,0,0-1-.38,1.19,1.19,0,0,0-.46-.64c-.21-.14-.41-.28-.59-.42a6.05,6.05,0,0,0-1.69-2.6q-1.34-3.59-1.73-4.43a5,5,0,0,1-.38-1l.21-.71-.14-.35c0-.09,0-.14.07-.14s.07-.05.07-.14l-.28-1.62.14-1.05-.35-.78.49-2v-.85a1.75,1.75,0,0,1,.14-.67,5.31,5.31,0,0,0,.28-.91,6.82,6.82,0,0,0,.14-1.48,5.86,5.86,0,0,1,.21-1.61,1.92,1.92,0,0,1,.53-1c.21-.16.27-.53.18-1.09a7.45,7.45,0,0,0,1.16-2.14,8.07,8.07,0,0,0,.31-1.16.9.9,0,0,1,.21-.64.55.55,0,0,0,.32-.56.47.47,0,0,1,.18-.49,1.66,1.66,0,0,0,.42-.42,3.91,3.91,0,0,0,.42-.78,5.81,5.81,0,0,1,.56-1l.28-.14c.14-.42,1-1.2,2.6-2.32a.73.73,0,0,0,.25-.42.57.57,0,0,1,.18-.35,7.24,7.24,0,0,0,1.12-.5l.14-.28,1.13-.56.07-.28a.56.56,0,0,1,.35,0,2.29,2.29,0,0,0,1-.28,14.17,14.17,0,0,0,1.72-.91,3.62,3.62,0,0,1,1.86-.6c.59,0,.94-.07,1.06-.21a1,1,0,0,1,.56-.32,2.13,2.13,0,0,1,.88,0,.87.87,0,0,0,.84-.35h.07a.64.64,0,0,1,.57.42,3.47,3.47,0,0,1,1.54-.42c.47,0,.71,0,.71.1s0,.13.14.18a.28.28,0,0,0,.28,0,.91.91,0,0,1,.42-.07c.19,0,.46.17.81.52a1.91,1.91,0,0,0,1.44.53l1.34-.07a2.45,2.45,0,0,1,1.33.32,2.67,2.67,0,0,0,1.13.39.24.24,0,0,1,.14.24.43.43,0,0,0,.14.32h.28a2.19,2.19,0,0,1,.46.45,1.29,1.29,0,0,0,.38.39l.71.42a3.6,3.6,0,0,1,.49.46,2.19,2.19,0,0,0,.56.46,1.33,1.33,0,0,1,.39.42,3.94,3.94,0,0,0,.38.53,2.39,2.39,0,0,0,.43.38,1.14,1.14,0,0,1,.35.46,1.53,1.53,0,0,1,.14.6,1.41,1.41,0,0,0,.14.6q.13.32.21.24s.07.06.07.32a2.27,2.27,0,0,0,.18.84,9.14,9.14,0,0,0,.45,1c.19.35.36.69.5,1s.28.51.42.56Zm-30.38,7-.35,3.59a2.59,2.59,0,0,0,.11.81,4.67,4.67,0,0,1,.17,1,11.65,11.65,0,0,1,0,1.62,13.59,13.59,0,0,0,.1,2.14,6.15,6.15,0,0,0,.85,2.39,6.49,6.49,0,0,1,.84,2.67c.38.52.74,1.06,1.09,1.62s.71,1.1,1.09,1.62a5.63,5.63,0,0,0,3.09,2.39,3,3,0,0,0,2.89,1.41c.42,0,.65,0,.7.14h1l3.31.35a1.91,1.91,0,0,0,.81-.18,1.21,1.21,0,0,1,.74-.1,1.81,1.81,0,0,1,1-.53,5.59,5.59,0,0,0,1.2-.25c.09,0,.12-.15.1-.31a.26.26,0,0,1,.18-.32,2,2,0,0,1,.63-.07,1.68,1.68,0,0,1,1.13-1.05,4.34,4.34,0,0,0,1.51-.88l1.3-1.16a5.73,5.73,0,0,0,1.16-1.52,6.25,6.25,0,0,1,.88-1.3l.77-.7a.53.53,0,0,0,.14-.39c0-.16.15-.31.46-.45a1.31,1.31,0,0,0,.56-.39.44.44,0,0,0,.07-.32.3.3,0,0,1,.11-.28c.28-.09.41-.24.38-.45s0-.45,0-.71a.87.87,0,0,1,.24-.63.53.53,0,0,0,0-.67,1.3,1.3,0,0,0,.56-.95,4.37,4.37,0,0,1,.25-1.05,1.86,1.86,0,0,1,.42-.71,1.9,1.9,0,0,0,.39-.59c-.1-.1-.14-.38-.14-.85v-.7a3.33,3.33,0,0,0,.28-3.44,5.69,5.69,0,0,1-.43-2.36c0-1-.14-1.56-.42-1.79s-.42-.43-.42-.57v-.49l-.28-1.54a1.09,1.09,0,0,0-.32-.71,1.86,1.86,0,0,1-.42-.7,1.39,1.39,0,0,1,0-.7,1.84,1.84,0,0,0-.14-.92,1.56,1.56,0,0,0-.53-.77c-.21-.14-.32-.54-.32-1.2a1.33,1.33,0,0,1-.91-1.12,1.72,1.72,0,0,1-1.13-.88,1.69,1.69,0,0,0-.67-.81c-.21-.09-.32-.13-.35-.11s-.08,0-.17,0h-.07l-.14-.35a1.51,1.51,0,0,0-.85-.28l-1.19.28a1.85,1.85,0,0,1-1.2-.49,1.66,1.66,0,0,0-1-.5,1.56,1.56,0,0,0-.85.22,1.19,1.19,0,0,1-.28-.46.65.65,0,0,0-.28-.39,1.69,1.69,0,0,1-.84-.28,3.91,3.91,0,0,0-.78-.42l-.28.07-1.4-.28a.51.51,0,0,0-.32.17.6.6,0,0,1-.53.14,1.85,1.85,0,0,0-.63,0,2.54,2.54,0,0,0-.49.17,2.79,2.79,0,0,1-.49.18,1.68,1.68,0,0,1-.71,0,1.29,1.29,0,0,0-.74.07,1.43,1.43,0,0,0-.49.35.42.42,0,0,1-.53.07,1,1,0,0,0-.59.46c-.12.21-.67.32-1.66.32a5.73,5.73,0,0,1-2.88,2.39,1.55,1.55,0,0,1-.56.88,4.42,4.42,0,0,0-.77.73,8.12,8.12,0,0,0-1.06,2,7,7,0,0,0-.63,2.18l.14.57a1.68,1.68,0,0,1-.28.91,3.49,3.49,0,0,0-.42.81,1.36,1.36,0,0,0-.07.77,1.82,1.82,0,0,1,0,.77,4.38,4.38,0,0,1-.32.81A3,3,0,0,0,1685.62,336.14Z"/><path d="M1729.92,345l-.42.92a5,5,0,0,1,.14.91l-.14,1.62a.4.4,0,0,1,.14.28l-.14.28.21,1a10.43,10.43,0,0,1,.31,2.82q0,1.4,0,2.88l.14,1.05-.14.85.28,1.4a1.76,1.76,0,0,1-.07.57.64.64,0,0,0,.07.49l-.14,1.19.14.78-.28,1.05.14.85-.14.91.42,1.62a2,2,0,0,0,1.2-.36,2.26,2.26,0,0,1,1.33-.35.75.75,0,0,1,.85.85,1.44,1.44,0,0,1-.78,1.3,12.84,12.84,0,0,1-1.26.67,2.85,2.85,0,0,1-.88.24c-.26,0-.55.07-.88.14a2.85,2.85,0,0,0-.63.18,2.9,2.9,0,0,1-.81.07,6.89,6.89,0,0,0-1.79.31,2.79,2.79,0,0,0-1.48.81c-.1.05-.17.06-.21,0a.51.51,0,0,0-.25,0,1.73,1.73,0,0,0-.67.32,1.57,1.57,0,0,1-1.05.25h-.21c-.52-.24-.78-.89-.78-2,.15,0,.24,0,.29-.18a.53.53,0,0,1,.24-.35.59.59,0,0,1,.39-.07,2.92,2.92,0,0,0,1-.28,15,15,0,0,1,2.07-.6,3.17,3.17,0,0,0,.21-1.12,3.93,3.93,0,0,0-.14-1.09,3.07,3.07,0,0,1-.07-1.09v-2.46a10.75,10.75,0,0,1,.07-1.76l-.21-.64.14-.42-.28-1.12a22,22,0,0,1-.14-2.46v-2.46a11.12,11.12,0,0,0-.21-2.18c-.14-.71-.26-1.43-.35-2.18V347l-.28-2.11.07-2.32-.07-2V339a2.35,2.35,0,0,0,.14-.63l-.28-.7a1,1,0,0,1,.14-.42,18.24,18.24,0,0,0-.14-2.18l-.28-1.13.14-.42-.36-4.92.29-2.6-.15-.92.22-.84-.29-2.53.22-3.31-.29-3c-.09-1.13-.14-2.19-.14-3.2s-.32-1.51-1-1.51l-1.41.14a1.35,1.35,0,0,1-1.19-.63,2.25,2.25,0,0,1-.42-.85l.07-.28c.14-.42.5-.63,1.09-.63a12.35,12.35,0,0,0,1.65-.11c.51-.07,1.24-.22,2.18-.45a9.69,9.69,0,0,1,2.28-.36c.59,0,1,.19,1.09.57a1.94,1.94,0,0,1-.49,1.26,2,2,0,0,0-.56,1l.14,2-.21,1.61.28,1.9c0,.24.06.39.17.46s.18.24.18.53l-.14,1.33.14.42-.14.28a8.23,8.23,0,0,1,.32,2.57,6.77,6.77,0,0,0,.31,2.43,9.71,9.71,0,0,0-.14,2.25l-.14,2.32a14.58,14.58,0,0,0,.11,1.72c.07.59.15,1.3.24,2.14l.21,3c.1,1.12.19,2.27.29,3.44a2.76,2.76,0,0,0,.87.07c.5,0,.86-.3,1.09-.91a.67.67,0,0,0,.57-.28c.32-.47.56-.63.7-.49s.28.08.42-.18a1,1,0,0,1,.39-.46c.11,0,.2-.06.24,0a.61.61,0,0,0,.22,0,.28.28,0,0,0,.21-.07c0-.23.68-.47,1.89-.7s1.9-.35,2-.35a3.9,3.9,0,0,1,.64.07l1.37.21a1.57,1.57,0,0,1,1.19.56,6,6,0,0,0,.78,1l1.3,1.37a10.77,10.77,0,0,1,1.4,1.86.88.88,0,0,1,.32.39.85.85,0,0,0,.32.38,1,1,0,0,0-.07.43l.56,2.25a1.92,1.92,0,0,0,.14.77,2.7,2.7,0,0,1,.17.81c0,.3.06.6.11.88l.28,1a7.08,7.08,0,0,1,.14,1.48v1.4c0,.1,0,.14-.07.14s-.07.05-.07.15l.42,2-.28,1.76.28,2.46a19,19,0,0,1-.14,2.39,11.24,11.24,0,0,0,0,2.46,3.66,3.66,0,0,0-.42,1.76v1.41a2.74,2.74,0,0,0,.14.84,3.2,3.2,0,0,0,1.06.14L1750,365a1,1,0,0,0,.53.46c.25.11.38.27.38.45,0,.57-.21.85-.63.85a3.65,3.65,0,0,0-2.6,1.19,2.37,2.37,0,0,0-.63-.07l-1.9.35h-.49c-.29,0-.44.06-.46.18s-.22.18-.6.18l-1.76.21-.56-.07c-.33,0-.52.1-.56.31s-.21.32-.49.32l-.29-.07a2.75,2.75,0,0,1-.28-1.2,1.34,1.34,0,0,1,.25-.91,1.5,1.5,0,0,1,.56-.42c.21-.1.45-.19.7-.28a1.14,1.14,0,0,0,.6-.5l.35-1.75a2.51,2.51,0,0,0,.07-.64l-.21-1.89.14-1.41-.14-1.2.28-1.4-.14-1.27.14-2.74a9.33,9.33,0,0,0-.31-2.39,9.65,9.65,0,0,1-.32-2.46l.14-1s-.09-.63-.28-1.75l.14-.21q-.42-.5-.39-.6a2.11,2.11,0,0,0,0-.57,2.19,2.19,0,0,0-.18-.87,6.18,6.18,0,0,1-.28-.92,9.89,9.89,0,0,1-.17-1.12,2.86,2.86,0,0,0-.53-1.44,2.78,2.78,0,0,1-.49-.74,2.34,2.34,0,0,0-.32-.57,1.79,1.79,0,0,0-.53-.45,2.94,2.94,0,0,1-.66-.53,2.65,2.65,0,0,1-1.52.32c-.63,0-1.09,0-1.37,0s-.43.05-.45.14a1.53,1.53,0,0,1-.21.39,2.59,2.59,0,0,1-.5.49,2.15,2.15,0,0,0-.52.6,1.87,1.87,0,0,0-1.83.7,6.28,6.28,0,0,1-1.34,1.76c-.14.42-.31.64-.53.67s-.27.15-.17.38l-.07.22.28.84Z"/><path d="M1760.51,366.87c-.57.23-1,.38-1.27.46a1.67,1.67,0,0,0-.67.31,1.94,1.94,0,0,1-.6.35,1.8,1.8,0,0,1-1.61-2.25,6.72,6.72,0,0,0-.88-.35,2.23,2.23,0,0,1-.81-.42v-2.11a3.92,3.92,0,0,0,.56-.91,2.61,2.61,0,0,1,.49-.78.84.84,0,0,1,.53-.28.64.64,0,0,0,.39-.1.82.82,0,0,0,.21-.25.53.53,0,0,1,.21-.21l1-.14a6.37,6.37,0,0,1,1-.14,1.44,1.44,0,0,1,1.41.95,4,4,0,0,1,.42,1.44.83.83,0,0,0,.17.63c.12.1.18.48.18,1.16A7.2,7.2,0,0,1,1760.51,366.87Zm-.29-28.69-.42,7.81.07,2.25c0,1-.16,1.47-.49,1.47-.14,0-.14.05,0,.14a10.34,10.34,0,0,0-.6,1.27c-.21.51-.48.77-.81.77q-.92,0-1.47-1.47a7,7,0,0,1-.49-3.17v-2.88l-.15-2.32.15-3-.15-1.4.29-.85L1756,336l.07-2.46a52.61,52.61,0,0,0-.39-7.52,26.44,26.44,0,0,1-.39-3.27,3.91,3.91,0,0,1,.32-1.55,6.5,6.5,0,0,0,.39-1.09c0-.33.18-.49.42-.49s.23.05.28-.14.11-.28.21-.28a2,2,0,0,1,1.37.42q.46.42.84.81a2.57,2.57,0,0,0,.53.45,2.85,2.85,0,0,1,.28.64l.28.14a.56.56,0,0,1,0,.35.37.37,0,0,0,.1.35l.29.14a3.62,3.62,0,0,1,.28,1.27l-.49,3.44.21,3.45v3.23a14.68,14.68,0,0,1-.21,2.71A8.75,8.75,0,0,0,1760.22,338.18Z"/><path d="M550.62,484.25,559,406.54l-28.76-4.25c-2.66,0-5.13-1.57-7-4.37a18.34,18.34,0,0,1-2.74-10l-7.95-228.15c0-7.95,4.39-14.4,9.79-14.4l.28,0,266.9,78.47c5.33.12,9.64,6.52,9.64,14.36v.18L765.7,421.33c0,7.88-4.41,14.27-9.79,14.27h-.14l-123-18.15ZM522.24,147.39c-4.16.12-7.66,5.73-7.66,12.36l8,228.15a16.36,16.36,0,0,0,2.42,8.92c1.47,2.24,3.38,3.48,5.37,3.48h.14l30.74,4.53-8.08,74.8,79.09-64.31L756,433.6c4.19-.06,7.72-5.69,7.72-12.36l0-.18,33.48-182.9c0-6.66-3.58-12.27-7.79-12.27l-.28,0Z"/><path d="M1636.62,510.25l8.39-77.71-28.76-4.25c-2.66,0-5.13-1.57-7-4.37a18.34,18.34,0,0,1-2.74-10l-8-228.15c0-7.95,4.39-14.4,9.79-14.4l.28,0,266.9,78.47c5.33.12,9.64,6.52,9.64,14.36v.18l-33.49,182.9c0,7.88-4.41,14.27-9.79,14.27h-.14l-123-18.15Zm-28.38-336.86c-4.16.12-7.66,5.73-7.66,12.36l8,228.15a16.36,16.36,0,0,0,2.42,8.92c1.47,2.24,3.38,3.48,5.37,3.48h.14l30.74,4.53-8.08,74.8,79.09-64.31L1842,459.6c4.19-.06,7.72-5.69,7.72-12.36l0-.18,33.48-182.9c0-6.66-3.58-12.27-7.79-12.27l-.28,0Z"/><path class="cls-1" d="M1335.22,651.84q-51-12.26-101.71-25.44c-17.9-4.7-36.09-9.1-53.57-15.24-1.06-.37-2.16-.72-3.19-1.18a6.45,6.45,0,0,1-1.87-1.45c-1.36-1.92-1.28-5.18-.78-8.47,1.53-10,6.18-19.57,10-28.84,2.7-6.48,9.28-18.52,2.9-24.77-1.91-1.87-4.47-2.26-7-2.85l-12.65-3-15.36-3.68c-7.51-1.8-10.71,9.77-3.19,11.57l12.83,3.08L1172,554l4.89,1.16a22.44,22.44,0,0,0,2.22.52c2.14.29,0,.07-.57-.76-.85-1.21-.57-1.44-1-2.25.19.4-.24,2.05.1.55-.37,1.64-.73,3.23-1.26,4.83-1.44,4.38-3.31,8.63-5.09,12.88-6.12,14.64-19,42.17,2.21,50.61,15.62,6.22,32.47,10,48.68,14.29,22.79,6,45.65,11.81,68.52,17.48q20.63,5.1,41.27,10.09c7.5,1.8,10.7-9.77,3.19-11.57Z"/><rect class="cls-1" x="1362.92" y="618.68" width="12" height="34" rx="6" transform="translate(475.49 -580.79) rotate(28.8)"/><path class="cls-2" d="M1517.78,605.07c-15.63,48-69.58,56.77-126.55,38.21s-95.41-57.43-79.79-105.41,46.51-97.58,136.36-68.31C1532.9,497.27,1533.4,557.1,1517.78,605.07Z"/><path class="cls-2" d="M1386.06,836.21c-15.75,87.23-36.85,47.89-70.55,41.81s-67.23,23.38-51.47-63.85c2.88-16,18-98.24,21.67-114.16,16.3-70.88,29.41-68,72.81-60.14,42.09,7.6,56,12.9,46.26,87C1402.89,741.41,1388.64,822,1386.06,836.21Z"/><circle class="cls-3" cx="1468.15" cy="557.56" r="33.5"/><ellipse cx="1453.74" cy="555.63" rx="20.94" ry="4.28" transform="translate(475.24 1765.84) rotate(-71.96)"/><circle class="cls-3" cx="1361.63" cy="519.72" r="33.5"/><ellipse cx="1343.53" cy="513.83" rx="20.94" ry="4.28" transform="translate(438.9 1632.2) rotate(-71.96)"/><path class="cls-1" d="M1533.18,582.05s-7.86.45-7.84-5.56-1.58-36.61,4.62-55.65,17.67-42.38,19.41-41.81,4.32,10.43,5.18,13.72,2.46,10.86,5.18,13.72c3.22,3.38,11,19.46,11.24,24.71.27,5.5,4.29,16.44-2.74,26.19S1541,581.6,1539.3,581,1533.18,582.05,1533.18,582.05Z"/><path class="cls-1" d="M1314.53,512.94s6.09,5,9.6.12,22.84-28.66,29-47.7,10.69-44.65,8.94-45.22-9.63,5.89-12.26,8-8.39,7.34-12.27,8c-4.59.84-20.34,9.26-23.64,13.36-3.45,4.28-13.15,10.76-13.2,22.77s7.69,35.6,9.44,36.17S1314.53,512.94,1314.53,512.94Z"/><path class="cls-1" d="M1279.89,894.41a83.75,83.75,0,0,0-5.66,26.91c-.22,3.75-.24,7.51-.36,11.26-.06,1.95.39,6.62-.76,8.13-.81,1.07-7.62.53-9.86.23a61.46,61.46,0,0,1-9-1.92c-7.44-2.16-10.61,9.41-3.19,11.57,8.79,2.55,22.94,5.7,30.41-1.36,5.09-4.8,4.35-13.55,4.49-20,.24-11,1.33-21.41,5.51-31.68,2.91-7.15-8.69-10.26-11.57-3.19Z"/><path class="cls-1" d="M1323.26,909.88c5.5,9.33,8,19.42,9.79,30,1.1,6.41,1.57,15.35,7.62,19.26,8.77,5.65,22.06.27,30.58-3.62,7-3.21.93-13.55-6-10.36l-.7.31c1.62-.68-.84.33-1.11.43-2.16.82-4.34,1.59-6.57,2.22s-8.25,2.12-9.46,1.15c-1.49-1.19-1.75-6.88-2.07-8.66-.66-3.69-1.22-7.41-2-11.09a83.45,83.45,0,0,0-9.68-25.68c-3.91-6.65-14.29-.62-10.36,6Z"/><path class="cls-4" d="M1381.58,889.18c12.84-71.09,7.72-45.6-57.72-57.41s-62.3-37.67-73.17,33.78c-.29,1.92-.59,3.68-.75,5.34-.59,2.55-1.14,5.16-1.62,7.82-6.38,35.34,9.13,17.63,23.85,20.29,6.46,1.16,11.69,6.06,16.07,8.2a7.05,7.05,0,0,0,4.76.86c4.85-.48,11.46-3.23,17.92-2.07s11.69,6.07,16.07,8.2a5,5,0,0,0,2.3.86,5.12,5.12,0,0,0,2.46,0c4.85-.47,11.46-3.23,17.92-2.06,14.72,2.66,23.06,24.68,29.44-10.66.45-2.47.82-4.9,1.14-7.31C1380.75,893.26,1381.19,891.32,1381.58,889.18Z"/><path class="cls-2" d="M1522.67,531.75c-.92,6.41-19.49-.92-43.81-4.43s-45.2-1.89-44.28-8.29,7.65-12.78,46-7.24C1516.92,517,1523.6,525.35,1522.67,531.75Z"/><path class="cls-2" d="M1428.78,513.17c-2.28,5.3-18.51-6.14-41.08-15.85s-43-14-40.68-19.33,10.12-9,45.72,6.33C1426.46,498.83,1431.06,507.87,1428.78,513.17Z"/><path class="cls-2" d="M1393.84,556.3c-1.77,11.18-16.95.63-37.74-2.68s-39.35,1.89-37.57-9.29,8.63-23,41.43-17.76C1391,531.5,1395.62,545.12,1393.84,556.3Z"/><path class="cls-2" d="M1495.81,600.49c-4,12.45-19.64-2.41-43-10s-45.66-5.09-41.61-17.54,14.07-24.67,50.92-12.66C1497,571.63,1499.87,588,1495.81,600.49Z"/><path d="M1390.19,568.86c-.2-.33-5-8.15-3.26-13.39a11.56,11.56,0,0,1,7-7l.3.95a10.78,10.78,0,0,0-6.38,6.36c-1.56,4.79,3.11,12.47,3.16,12.55Z"/><path class="cls-1" d="M1179.26,541.62l-10.53-20c-3.59-6.84-14-.78-10.36,6l10.53,20c3.59,6.84,13.95.78,10.36-6.06Z"/><path d="M600.63,725c15.51-26.13,30.22-54.5,36.87-84.33,3.4-15.26,3.89-31.35,5.35-46.88q2.48-26.28,4.84-52.55c.93-10.53,3-21.82,2.49-32.42-.1-1.92-3.1-1.93-3,0,.45,8.45-1.18,17.4-1.91,25.79q-2.17,25-4.56,50c-1.51,16.18-2.21,32.74-4.84,48.79-3,18.59-10.36,36.5-18.34,53.46-5.88,12.52-12.43,24.74-19.49,36.64a1.5,1.5,0,0,0,2.59,1.51Z"/><path d="M698.22,697.64a394.56,394.56,0,0,0,13.3-58.79c1.82-12.93,3-26.13,1.84-39.18-1.36-15.87-4.42-31.74-6.65-47.51-1.35-9.49-1.8-19.9-4.62-29.1-.57-1.84-3.46-1.06-2.89.79,2.23,7.27,2.66,15.41,3.73,22.9,2.27,15.89,4.62,31.77,6.83,47.66,3.58,25.73-1.72,52.69-7.72,77.67q-3,12.48-6.71,24.77c-.56,1.85,2.33,2.64,2.89.79Z"/><path d="M303.34,480.87c-12.22,21.25-23.87,44.69-27.85,69.07-2.08,12.71-.95,26-.82,38.85.16,14.46.32,28.93.58,43.39.15,8.47-.71,17.85.88,26.22.36,1.89,3.25,1.09,2.89-.8-1.27-6.75-.57-14.64-.7-21.55-.26-13.58-.42-27.16-.58-40.74-.14-12.76-1.13-25.88-.1-38.61,1.24-15.25,6.85-30.22,13-44.12a313.4,313.4,0,0,1,15.33-30.2,1.5,1.5,0,0,0-2.59-1.51Z"/><path d="M239,478.45c-6.48,21.31-11.56,43.95-11.12,66.33.31,15.68,5.4,30.89,9.09,46,2.25,9.23,3.61,19.8,7.52,28.53.79,1.75,3.38.23,2.6-1.52-1.36-3-2-6.57-2.77-9.75-1.53-6-3-12-4.45-18.06-3.75-15.34-8.89-30.69-9-46.61-.15-21.68,4.75-43.48,11-64.14.56-1.85-2.33-2.64-2.89-.8Z"/><path class="cls-5" d="M1199.33,492.06c-4.47-17.3-24.42-50.22-24.95-50.19-62.26,4.45-60.7.2-60,24.74.79,27.93-30.38,63.67,81.56,65.69C1197.34,532.33,1202.41,504,1199.33,492.06Z"/><path class="cls-6" d="M1225.9,495.1c-.48-25.33.68-20.69-46.44-21.13-11.88-.11-26.27-12.92-45.18-12.14-16.46.68-37,22.88-35.36,27.63,6.16,17.32,10.82,36.53,11.9,56.1.37,6.75,15.53,11.13,25.27,10.73,14.64-.6,27.84,10.13,38.31,8.92C1247.05,556.82,1226.44,522.83,1225.9,495.1Z"/><path class="cls-1" d="M367.11,649.42c-33.14,5.92-66.94,11.8-99.11,21.86-15.7,4.91-30.47,13.24-45.2,20.44-20,9.74-39.88,19.56-59.62,29.73-16.13,8.31-30.68,18.29-45.71,28.47-6.36,4.3-.36,14.7,6.06,10.36,13-8.8,25.6-18,39.51-25.25,19-10,38.28-19.45,57.55-28.91q13.82-6.76,27.66-13.44c6.09-2.93,12.43-6.21,17.82-8.13,18.89-6.73,39-10.58,58.55-14.67q22.78-4.75,45.68-8.89c7.59-1.35,4.38-12.92-3.19-11.57Z"/><rect class="cls-1" x="388.92" y="615.68" width="12" height="34" rx="6" transform="translate(353.59 -111.99) rotate(28.8)"/><path class="cls-2" d="M542,607.54c-13.2,40.51-65.94,45.6-122.92,27s-96.61-53.73-83.42-94.24,41.35-81.73,131.2-52.46C552,515.59,555.19,567,542,607.54Z"/><path class="cls-2" d="M412.06,833.21c-15.75,87.23-36.85,47.89-70.55,41.81S274.28,898.4,290,811.17c2.88-16,18-98.24,21.67-114.16,16.3-70.88,29.41-68,72.81-60.14,42.09,7.6,56,12.9,46.26,87C428.89,738.41,414.64,819,412.06,833.21Z"/><circle class="cls-3" cx="486.15" cy="573.56" r="33.5"/><ellipse cx="500.74" cy="571.63" rx="20.94" ry="4.28" transform="translate(-197.86 870.73) rotate(-71.96)"/><circle class="cls-3" cx="379.63" cy="535.72" r="33.5"/><ellipse cx="363.53" cy="537.83" rx="20.94" ry="4.28" transform="translate(-260.44 716.94) rotate(-71.96)"/><path class="cls-1" d="M551.18,598.05s-7.86.45-7.84-5.56-1.58-36.61,4.62-55.65,17.67-42.38,19.41-41.81,4.32,10.43,5.18,13.72,2.46,10.86,5.18,13.72c3.22,3.38,11,19.46,11.24,24.71.27,5.5,4.29,16.44-2.74,26.19S559,597.6,557.3,597,551.18,598.05,551.18,598.05Z"/><path class="cls-1" d="M332.53,528.94s6.09,5,9.6.12,22.84-28.66,29-47.7,10.69-44.65,8.94-45.22-9.63,5.89-12.26,8-8.39,7.34-12.27,8c-4.59.84-20.34,9.26-23.64,13.36-3.45,4.28-13.15,10.76-13.2,22.77s7.69,35.6,9.44,36.17S332.53,528.94,332.53,528.94Z"/><path class="cls-1" d="M142.86,730.63l-22.59-1.44c-7.71-.5-7.68,11.5,0,12l22.59,1.44c7.71.5,7.68-11.5,0-12Z"/><path class="cls-1" d="M305.89,891.41a83.75,83.75,0,0,0-5.66,26.91c-.22,3.75-.24,7.51-.36,11.26-.06,1.95.39,6.62-.76,8.13-.81,1.07-7.62.53-9.86.23a61.46,61.46,0,0,1-9-1.92c-7.44-2.16-10.61,9.41-3.19,11.57,8.79,2.55,22.94,5.7,30.41-1.36,5.09-4.8,4.35-13.55,4.49-20,.24-11,1.33-21.41,5.51-31.68,2.91-7.15-8.69-10.26-11.57-3.19Z"/><path class="cls-1" d="M349.26,906.88c5.5,9.33,8,19.42,9.79,30,1.1,6.41,1.57,15.35,7.62,19.26,8.77,5.65,22.06.27,30.58-3.62,7-3.21.93-13.55-6.05-10.36l-.7.31c1.62-.68-.84.33-1.11.43-2.16.82-4.34,1.59-6.57,2.22s-8.25,2.12-9.46,1.15c-1.49-1.19-1.75-6.88-2.07-8.66-.66-3.69-1.22-7.41-2-11.09a83.45,83.45,0,0,0-9.68-25.68c-3.91-6.65-14.29-.62-10.36,6Z"/><path class="cls-4" d="M407.58,886.18c12.84-71.09,7.72-45.6-57.72-57.41s-62.3-37.67-73.17,33.78c-.29,1.92-.59,3.68-.75,5.34-.59,2.55-1.14,5.16-1.62,7.82-6.38,35.34,9.13,17.63,23.85,20.29,6.46,1.16,11.69,6.06,16.07,8.2a7.05,7.05,0,0,0,4.76.86c4.85-.48,11.46-3.23,17.92-2.07s11.69,6.07,16.07,8.2a5,5,0,0,0,2.3.86,5.12,5.12,0,0,0,2.46,0c4.85-.47,11.46-3.23,17.92-2.06,14.72,2.66,23.06,24.68,29.44-10.66.45-2.47.82-4.9,1.14-7.31C406.75,890.26,407.19,888.32,407.58,886.18Z"/><path class="cls-2" d="M533.39,569.39c-4.21,12.93-19.69-2.27-43.06-9.88s-45.78-4.75-41.57-17.68,14.41-25.71,51.27-13.7C534.93,539.49,537.6,556.45,533.39,569.39Z"/><path class="cls-2" d="M419.53,551.59c-7.29,9.81-17.71-8.74-37.44-23.39s-41.3-19.87-34-29.68,20.09-17.42,51.2,5.69C428.75,526.1,426.82,541.78,419.53,551.59Z"/><path class="cls-2" d="M411.84,572.3c-1.77,11.18-19.27.26-43-3.52s-44.73,1-42.95-10.14,9.32-22.87,46.76-16.92C408.09,547.36,413.62,561.12,411.84,572.3Z"/><path class="cls-2" d="M513.81,616.49c-4,12.45-19.64-2.41-43-10s-45.66-5.09-41.61-17.54,14.07-24.67,50.92-12.66C515,587.63,517.87,604,513.81,616.49Z"/><path class="cls-2" d="M336.56,538.62c11.31-3.29,7.76,14.42,13.43,33.87s18.42,33.27,7.11,36.57-25.35,2.46-34.29-28.21C314.34,551.8,325.26,541.92,336.56,538.62Z"/><polygon class="cls-7" points="414.99 590.01 407.06 604.45 420.68 605.48 414.99 590.01"/><polygon class="cls-7" points="389.25 581.65 375.28 590.39 386.67 597.93 389.25 581.65"/><path d="M421.26,606.53c-2.31-.11-22.7-1-26.39-2s-19.29-12-21-13.22l1.73-2.44c6.47,4.58,17.64,12.1,20.1,12.77,2.85.77,19.54,1.65,25.74,1.93Z"/><path d="M408.19,584.86c-.2-.33-5-8.15-3.26-13.39a11.56,11.56,0,0,1,7-7l.3.95a10.78,10.78,0,0,0-6.38,6.36c-1.56,4.79,3.11,12.47,3.16,12.55Z"/><path class="cls-2" d="M341.81,608.43c-10.59-5.18,3.06-14,10.82-29.92s6.7-32.75,17.28-27.57,20.67,14.7,8.43,39.73C366.75,614.38,352.39,613.6,341.81,608.43Z"/><path class="cls-2" d="M445.56,582.62c11.31-3.29,7.76,14.42,13.43,33.87s18.42,33.27,7.11,36.57-25.35,2.46-34.29-28.21C423.34,595.8,434.26,585.92,445.56,582.62Z"/><path class="cls-2" d="M450.81,651.43c-10.59-5.18,3.06-14,10.82-29.92s6.7-32.75,17.28-27.57,20.67,14.7,8.43,39.73C475.75,657.38,461.39,656.6,450.81,651.43Z"/><path class="cls-6" d="M268.26,749.27c10.83,53.32,13.62,62-47.14,74.38-61.74,12.54-61.59,3.23-72.42-50.08s-36.27-93.14,40.16-108.68C267.26,649,257.42,696,268.26,749.27Z"/><ellipse class="cls-8" cx="191.47" cy="682.73" rx="34.5" ry="9.5" transform="translate(-132.11 51.8) rotate(-11.49)"/><path class="cls-1" d="M452.41,670.47c-30,14.07-60.55,28.53-92.13,38.72-15.17,4.89-31.52,6.51-47.2,9-21.92,3.55-43.86,7-65.85,10.1-17.41,2.44-34.59,2.56-52.16,2.9-7.72.15-7.74,12.15,0,12,15.83-.31,31.54-.13,47.24-2.22,21.68-2.88,43.29-6.29,64.88-9.75,16.88-2.7,34.62-4.33,51.12-8.94,19.62-5.49,38.55-14.1,57.2-22.18q21.62-9.36,43-19.31c7-3.28.9-13.63-6.06-10.37Z"/><path class="cls-1" d="M219.74,735.18,202.12,749.4c-2.52,2-2.12,6.36,0,8.48,2.5,2.5,6,2,8.49,0l17.62-14.21c2.52-2,2.12-6.37,0-8.49-2.5-2.49-6-2-8.49,0Z"/><path class="cls-5" d="M1095.36,522.84c-.69-24.55-1.55-20.31,34.81-24,10.63-1.08,24.3-14.69,42.25-15.19,16.23-.46,28.76,12.59,39,12.91,40.5,1.25,39.45-3.41,40.16,21.92.78,27.73,18.89,62.06-43.45,69.21-9,1-20.45-9.93-33-9.58-12.26.35-22.33,11.84-31.24,11.38C1078.34,586.13,1096.15,550.76,1095.36,522.84Z"/><path class="cls-6" d="M1164.55,674.82c3,54.32,4.52,63.35-57.39,66.79-62.9,3.49-61.41-5.71-64.42-60s-22.44-97.41,55.44-101.73C1178.06,575.42,1161.53,620.51,1164.55,674.82Z"/><ellipse class="cls-8" cx="1098.18" cy="597.88" rx="34.5" ry="9.5" transform="translate(-31.44 61.78) rotate(-3.18)"/><path class="cls-6" d="M1260,553c14.23,20-29.37,33.35-44,48-12.89,12.91-2,79.2-27,97-22.65,16.1-43.43,10.38-58,20-57.79,38.15-125.54-31.4-41.5-97.77,12.11-9.56,39,5.24,56.5-7.23,17.11-12.16,39.19-80.76,52-89C1292.15,463.42,1243.81,530.23,1260,553Z"/><path class="cls-1" d="M1389.25,664c-32.48,6.53-65.55,13.38-98.63,15.78-15.9,1.15-32.16-1.16-48-2.41-22.14-1.75-44.28-3.58-66.37-5.81-4.29-.43-8.57-.87-12.84-1.39a63.11,63.11,0,0,1-6.79-1c-10.62-2.13-21.16-4.78-31.74-7.14-7.52-1.68-10.74,9.88-3.19,11.57,15.72,3.51,31.19,7.43,47.21,9.18,21.48,2.33,43,4.09,64.55,5.84,17,1.38,34.65,4,51.77,3.43,20.38-.67,40.85-4.51,60.9-7.93q23.2-4,46.31-8.57c7.56-1.53,4.36-13.09-3.19-11.57Z"/><path class="cls-1" d="M1147.84,671.63l-20.49,9.63c-7,3.28-.9,13.63,6.06,10.36L1153.9,682c7-3.28.9-13.63-6.06-10.36Z"/><path d="M1110,384.73a274.55,274.55,0,0,1,36,.88,160.18,160.18,0,0,1,16.46,2.2c3.26.63,8.47,1.17,11.2,3.29,11.93,9.26-18.51,13.51-21.86,13.91-22.3,2.67-45.92,5.07-68.39,3.25a90.68,90.68,0,0,1-27.06-6.46c-3.81-1.59-6.38-2.85-3.9-6.65,1.92-2.94,5-5.54,7.63-7.89,7.53-6.89,16.29-13.52,25.94-17.12,8.09-3,17.48-2.73,26-3.06,27.4-1.06,55.1.79,81.65,7.92,18.38,4.94,37.32,7.84,55.59,13.12,3.23.93,13.17,2.93,11.31,7.41-1,2.51-6.14,4.52-8.32,5.61a158,158,0,0,1-19,7.63c-50,17.33-102.3,23.54-155,24.23-2.92,0-2.93,4.57,0,4.53,56.28-.73,113.58-7.24,166.28-28.11,7.46-2.95,32-13.38,15.45-22.18-7.6-4.05-16.91-5.48-25.23-7.28-11.77-2.54-23.58-4.86-35.2-8-30.5-8.3-61.65-10.78-93.17-9.13-10,.53-18.89,1.14-27.94,5.78a100,100,0,0,0-26,19.75c-3.36,3.51-8.38,8.37-4.7,13.36,2.17,2.93,6.42,4.2,9.7,5.36a109.71,109.71,0,0,0,17,4.63c24.88,4.38,52.54.83,77.35-2.13,8.63-1,34.69-3.35,27.64-18.64-3.11-6.76-15.08-7.48-21.3-8.41a257.12,257.12,0,0,0-48.19-2.31c-2.91.11-2.92,4.65,0,4.54Z"/><ellipse cx="1375.11" cy="600.2" rx="5.77" ry="6.59" transform="matrix(0.25, -0.97, 0.97, 0.25, 446.28, 1778.53)"/></svg>