<svg id="Layer_1" data-name="Layer 1" xmlns="http://www.w3.org/2000/svg" xmlns:xlink="http://www.w3.org/1999/xlink" viewBox="0 0 1920 1080"><defs><style>.cls-1{fill:none;}.cls-2{fill:#e6e6e6;}.cls-3{fill:#a67c52;}.cls-4{fill:#ff0;}.cls-5{fill:#85aa52;}.cls-6{fill:#daec70;}.cls-7{fill:#1b1464;}.cls-8{fill:#f2f2f2;}.cls-9{fill:#fbb03b;}.cls-10{fill:#fff;}.cls-11{clip-path:url(#clip-path);}.cls-12{fill:#c69c6d;}.cls-13{fill:#42210b;}</style><clipPath id="clip-path"><rect class="cls-1" x="1940" width="1920" height="1080"/></clipPath></defs><path class="cls-2" d="M1061,533.11c-6.1,23.86-6.81,19.32,57.79,38.62,18.88,5.64,40.75,24.9,72.91,33.12,29.08,7.44,54.17,0,72.58,4.06,73,16.19,97.89,22.85,102.43,14.08,22.48-43.38,20.31-71.31-90.3-105.16-15.94-4.87-38.72,1-61.25-4.78-22-5.62-37.79-21.26-53.89-24.64C1042.9,463.52,1067.9,506,1061,533.11Z"/><path class="cls-2" d="M1010.62,615.73c-36.3-40.71-43.13-46.85,3.27-88.23,47.15-42,51.72-33.9,88,6.81s78.46,62.36,20.09,114.42C1062.14,702.12,1046.93,656.44,1010.62,615.73Z"/><ellipse class="cls-3" cx="1110.74" cy="634.59" rx="34.59" ry="9.53" transform="translate(-140.6 900.28) rotate(-41.73)"/><polygon class="cls-4" points="716.03 884.74 842.27 940 732.13 848.6 825.14 833.22 714.11 825.86 769.54 778.06 672.56 825.78 746.14 734.59 645.63 796.08 686.84 679.75 588.14 769.27 607.74 659.43 545.1 760.81 547.6 653.11 492.28 769.51 445.63 694.27 433.63 797.64 378.57 782.79 414.98 820.21 351.59 860 405.66 859.11 403.99 899.31 452.03 862.63 454.21 933.5 497.6 863.89 533.72 912.88 547.75 864.53 590.29 927.35 613.92 869.02 673.33 977.97 671.05 893.64 764.39 1015.12 716.03 884.74"/><path d="M1425,172.63l.49-6.75v-2.32a7.51,7.51,0,0,0-.07-1l-.21-2.53a8.43,8.43,0,0,1,0-1.34c0-.46,0-.86,0-1.19v-.84a4.11,4.11,0,0,0-.07-.71l-.21-.91.07-.71a1,1,0,0,0-.14-.56,2.15,2.15,0,0,1-.25-.63,2.62,2.62,0,0,1,0-1,2,2,0,0,0,0-.88.93.93,0,0,0-.28-.46,1.88,1.88,0,0,1-.31-.32.71.71,0,0,1-.18-.38.89.89,0,0,0-.28-.46,2.43,2.43,0,0,0-.77-.46,3.45,3.45,0,0,1-1-.56,4.35,4.35,0,0,0,0-1,2,2,0,0,1,.25-1,5.55,5.55,0,0,1,1.79-.28,2.46,2.46,0,0,1,1.48.39,2,2,0,0,0,1.19.38,2.33,2.33,0,0,0,1.44-.63,5.86,5.86,0,0,0,1.76.21l2.6-.07,3.45.28,1.26-.14a6.67,6.67,0,0,1,1.9.28,6.33,6.33,0,0,0,1.9.28l1.69-.07,1-.14,1.2.28,1.26-.14,1.2.07a3.78,3.78,0,0,0,1.19-.21,8.15,8.15,0,0,0,.74-2.6,5.16,5.16,0,0,1,.88-2.39,6.31,6.31,0,0,1,1.09-.14.67.67,0,0,1,.6.35,1.22,1.22,0,0,1,.21.56l-.14.43.21,1.54-.14,1.27.21,2-.14,1.26.21,1.13-.21,1.4.07.5a1.74,1.74,0,0,0-.53.77,4.13,4.13,0,0,1-.38.84l-.88.46a1.64,1.64,0,0,1-.74.25c-.19,0-.4-.31-.63-.92a4.23,4.23,0,0,1-.35-1.47l.14-1.55v-.42a1.91,1.91,0,0,0-1.41-.56l-1.27.35-2.11-.5-1.75.15a.45.45,0,0,1-.35-.15h-1.41l-2.6-.14a3.76,3.76,0,0,0-1.27.18c-.33.12-.68.22-1.05.32s-.84.17-1.37.24-1.08.13-1.62.18l-1.62.14c-.54.05-.92.07-1.16.07a1,1,0,0,0-.28.88,1.58,1.58,0,0,1-.07.84c-.09.21-.17.32-.21.32s-.07.16-.07.49l.42,3.45v1.82l.07,1c-.09,0-.14.1-.14.31a3.91,3.91,0,0,0,.49,1.31,3.67,3.67,0,0,0-.07.77l-.21.91.21.85-.07,1.68.14,2.11-.49,7.95a8.87,8.87,0,0,0,.28,2.18,4.6,4.6,0,0,1,.07,2.11,4.28,4.28,0,0,0,2.92.7c1.48,0,2.38,0,2.71.07l.84.14.7-.14,1.62.28,1.69.14a1.12,1.12,0,0,0,1.19-.77,3,3,0,0,1,.57-1.48,3.65,3.65,0,0,1,.35-1.68l1-.29c.24,0,.46.2.67.6a2.28,2.28,0,0,1,.32.95l-.57,4.29.29,2a8.82,8.82,0,0,0-.78,1.69,3.79,3.79,0,0,0-.84.24,2.13,2.13,0,0,1-.85.18,1.19,1.19,0,0,1-.24-.39,1.66,1.66,0,0,0-.35-.49,1.53,1.53,0,0,1-.35-.84c-.08-.4-.16-.77-.25-1.09a1.44,1.44,0,0,0-1.13-.25,1.14,1.14,0,0,1-1-.32,2.2,2.2,0,0,1-1,.28,1.44,1.44,0,0,1-.81-.28,5.66,5.66,0,0,1-1.83.28l-2.32-.07h-.63a2.13,2.13,0,0,0-1,.22,1.11,1.11,0,0,1-.6.17.3.3,0,0,0-.28.11l.07.28-.42,3.51.14,2-.21,1.2.21.84-.21,3.17c0,1.5.49,2.25,1.48,2.25l1.33-.15,1.69.22a1.2,1.2,0,0,0,.91-.36,2.88,2.88,0,0,0,1.13.22l2.6-.22h.42a1.33,1.33,0,0,1,.57.14,6,6,0,0,1,2-.28c.8,0,1.45,0,1.94-.07s1-.1,1.4-.17a8.45,8.45,0,0,1,1.3-.11l1.2.07c.52,0,.83-.1,1-.31a1,1,0,0,1,.53-.46c0-.19.09-.45.14-.77.18-1.32.61-2,1.26-2,.42,0,.69.11.81.35a2.07,2.07,0,0,0,.67.7q.21,2.53.21,3.45a.12.12,0,0,0-.14.14l.14,1.61a2.52,2.52,0,0,1-.35,1.34c0,.23-.07.35-.35.35a1.11,1.11,0,0,0-.67.18,1.42,1.42,0,0,0-.39.38.53.53,0,0,1-.49.22l-1.19-.43c0-.42-.1-.89-.15-1.4a2.86,2.86,0,0,0-.42-1.34,4.76,4.76,0,0,1-.84.07h-.92c-.93,0-1.45.14-1.54.42a1.39,1.39,0,0,0-.6-.14,1.46,1.46,0,0,0-.74.28.76.76,0,0,0-.56-.21l-1,.07-.78-.14-.77.14-1.2-.35a4.89,4.89,0,0,0-2.25,1.06l-1.83-.5q-.13,0-.24.18a.41.41,0,0,1-.39.18l-2.18-.29-1.47.22h-1.13a4.27,4.27,0,0,0-2.46.49,1.52,1.52,0,0,0-1-.28l-.5.14-.35-.14a2.38,2.38,0,0,0-1.23.42,2.43,2.43,0,0,1-.88.42c-.94,0-1.4-.59-1.4-1.76v-.35c.18-.37.7-.65,1.54-.84a14.33,14.33,0,0,1,1.41-.28A4.22,4.22,0,0,0,1425,196c.07-.51.12-.94.17-1.27a5,5,0,0,0,.07-.7l-.21-1.26.21-.85-.21-.56.14-.7-.21-.64.21-1.82a1.4,1.4,0,0,0,0-.53,3.47,3.47,0,0,1,0-.6l.21-1.83-.28-1.76a2.48,2.48,0,0,1,.07-.63,5.93,5.93,0,0,0,.14-.67,3.24,3.24,0,0,0,0-.84c0-.3,0-.6,0-.88v-.77a.13.13,0,0,1-.14-.14l.21-.5-.21-.84a6.82,6.82,0,0,1-.17-2c0-.82,0-1.51,0-2.08Z"/><path d="M1458.91,170a3.78,3.78,0,0,1-1.55,2.25,2.4,2.4,0,0,0,.64,1.41,5.81,5.81,0,0,1,.81,1.13,5.08,5.08,0,0,1,.31.7,6,6,0,0,0,.39.77,9.05,9.05,0,0,0,.81,1.2,13.72,13.72,0,0,1,.88,1.26c.25.43.5.82.74,1.2l.56.77a4.69,4.69,0,0,1,.49.78,7.3,7.3,0,0,0,.49.84l.21.14c.28.56.58,1.1.88,1.62a14.26,14.26,0,0,1,.81,1.54l.28.14a7.85,7.85,0,0,0,.7,1.55l.29.14c.28.71.6,1.06,1,1.06s.66-.35.84-1.06a7.18,7.18,0,0,1,.78-2.53,1.23,1.23,0,0,0,.14-.53,1.07,1.07,0,0,1,.14-.52l.42-.78.35-1a2.32,2.32,0,0,1,.18-.39,2.91,2.91,0,0,0,.21-.46,2.1,2.1,0,0,0,.1-.73,2.72,2.72,0,0,1,.22-1c.14-.38.3-.85.49-1.41a11.5,11.5,0,0,1,.67-1.62c.25-.51.49-1,.7-1.51s.4-.9.56-1.23a5.52,5.52,0,0,1,.35-.63l.21-.28a.37.37,0,0,0,.07-.32.63.63,0,0,1,.07-.39,1,1,0,0,1,.39-.38,1.7,1.7,0,0,0,.53-.74,10.29,10.29,0,0,0,.49-1.55,2.49,2.49,0,0,1,.91-1.47,2.32,2.32,0,0,1,1.38-.5,1.21,1.21,0,0,1,1,.35,1.92,1.92,0,0,0,.56.5v.21c0,.89-.23,1.4-.7,1.54a20.09,20.09,0,0,1-1,3c-.35.78-.6,1.19-.74,1.23a8,8,0,0,1-1.55,3.17,2.11,2.11,0,0,0-.14.77,2.63,2.63,0,0,1-.63,1.69,2.3,2.3,0,0,0-.63,1.4v.85a3,3,0,0,1-.63,1.62,3.91,3.91,0,0,1-.22,1.33,11,11,0,0,0-1,3.87c-.23.09-.49.61-.77,1.55a9.84,9.84,0,0,0-.42,1.68l.07,1.27a1.08,1.08,0,0,1-.36.95,1.74,1.74,0,0,0-.52.53,4.48,4.48,0,0,0-.32.56.9.9,0,0,1-.42.42,1.06,1.06,0,0,1,.14.67,14.49,14.49,0,0,1-1.44,3.41c-1,1.92-1.49,3-1.58,3.09v1.13a4,4,0,0,0-.39.56,3.24,3.24,0,0,1-.46.56,1.25,1.25,0,0,0-.35.63c0,.24-.24.33-.56.29a7,7,0,0,1-.64,1.72,5.31,5.31,0,0,0-.52,1.33c-.07.36-.18.55-.32.6a.73.73,0,0,0-.35.25.78.78,0,0,0-.18.35c0,.12-.08.15-.17.1h-.21v.08l.14.63v.21a4,4,0,0,0-1.34,2.39,1.38,1.38,0,0,0-.7.63,2.33,2.33,0,0,1-.49.71,4.44,4.44,0,0,1-.85,1,2.87,2.87,0,0,0-.77,1.12c-.24,0-.45.09-.63.11a2.32,2.32,0,0,0-.64.18,2.35,2.35,0,0,1-1,.8,2.2,2.2,0,0,0-1.06,1,7.09,7.09,0,0,0-1.51.6,5.83,5.83,0,0,1-1.65.6c-.14.09-.27.19-.39.28a2.67,2.67,0,0,1-.59.32,6.22,6.22,0,0,1-1.83.17,9.63,9.63,0,0,1-2.25-.21,4.44,4.44,0,0,1-1.41.21c-1.31,0-2-.3-2-.91,0-.14-.09-.22-.28-.25a.72.72,0,0,1-.49-.31v-.28h-.28c-.33-.29-.52-.45-.56-.5,0-.28-.07-.45-.22-.52s-.16-.25-.07-.53a2.36,2.36,0,0,1-1-1.83,14.74,14.74,0,0,1-.28-1.76l.28-.91-.14-.78a3.31,3.31,0,0,1,.35-1.12,4.52,4.52,0,0,0,.42-1.27,2.61,2.61,0,0,0,1-1.4,1.91,1.91,0,0,0,.88-.67c.21-.31.43-.6.66-.88.52-.14,1.05-.29,1.59-.46a6.78,6.78,0,0,1,1.93-.24,2.79,2.79,0,0,1,1.9.67,15.76,15.76,0,0,1,1.19,1.12,11.43,11.43,0,0,0,1,.95,14.15,14.15,0,0,0-.14,1.83,2.63,2.63,0,0,0-.64.35,1.24,1.24,0,0,1-.77.21.66.66,0,0,1-.67-.42,1,1,0,0,0-.74-.56l-.49-1.27a5.79,5.79,0,0,1-.91-.21,3.8,3.8,0,0,0-1.13-.14,1.13,1.13,0,0,0-1,.63,4.31,4.31,0,0,1-.92,1.13l-.14.28a4.74,4.74,0,0,1-.52.28.62.62,0,0,0-.39.42,1.62,1.62,0,0,1,.14.7,1.73,1.73,0,0,1-.32.92,1.92,1.92,0,0,0-.31,1.05,2.46,2.46,0,0,0,.31,1.16,5.17,5.17,0,0,1,.46,1.16,3.71,3.71,0,0,1,1,1,3.17,3.17,0,0,0,1,.91,2.22,2.22,0,0,0,1,0,5.07,5.07,0,0,1,1.06-.11l.84.28.07-.21h1a8.12,8.12,0,0,0,2.14-.38,10.92,10.92,0,0,0,1.94-.74l.63-.5q.49-.34,1-.66a4.7,4.7,0,0,0,.91-.71,5.67,5.67,0,0,0,.7-.84,2.6,2.6,0,0,1,.81-.74c.28-.56.64-1.19,1.06-1.9a19.48,19.48,0,0,0,2.81-6.11,4.85,4.85,0,0,0,1.13-1.87,4.34,4.34,0,0,1,1-1.72,2.59,2.59,0,0,1,.63-1.48,3.77,3.77,0,0,1,.53-1.68,5,5,0,0,0,.6-1.52,10.54,10.54,0,0,1,.35-1.37,2.83,2.83,0,0,0,.63-1.72,2.37,2.37,0,0,0-.28-1.3,1.18,1.18,0,0,1-.14-1,.73.73,0,0,1-.35-.25,1.45,1.45,0,0,0-.42-.32,4.42,4.42,0,0,0-.67-1.16,10.91,10.91,0,0,1-.74-1,3,3,0,0,1-.46-1.06.88.88,0,0,0-.8-.66l.07-.14a.45.45,0,0,0-.15-.39c-.09-.07-.11-.22-.07-.46s-.21-.28-.49-.28a1.07,1.07,0,0,0-.28-.74,3.24,3.24,0,0,1-.42-.56c-.1-.16-.13-.27-.11-.32s0-.11-.1-.21l-.28-.14a.41.41,0,0,1-.14-.32,1.45,1.45,0,0,0-.21-.56l-.6-1a7.58,7.58,0,0,1-.67-1.3q-.57-.63-1-1.2a4,4,0,0,1-.78-1.4,4.84,4.84,0,0,1-1.12-1.52,6.83,6.83,0,0,0-1.06-1.58v-.14a2.58,2.58,0,0,0-.35-1,3.07,3.07,0,0,0-.6-.88,3,3,0,0,1-.42-.45,1.61,1.61,0,0,1-.25-.53,1,1,0,0,0-.28-.49l-2.25.14c-1,0-1.54-.17-1.54-.5l.14-.49a.13.13,0,0,0-.14-.14l-.28-.49c0-.14,0-.21.14-.21,0-.38.36-.57.95-.6a5.49,5.49,0,0,0,1.58-.28,1.84,1.84,0,0,1,1.12-.11,2.65,2.65,0,0,0,.71-.42,1.24,1.24,0,0,1,.77-.28l1.19.14,1.13-.28,1,.14.5-.14A1.74,1.74,0,0,1,1458.91,170Z"/><path d="M1498,171.36l2,2.88v.14a2.61,2.61,0,0,0,.6,1.76,5.23,5.23,0,0,1,.95,1.69,4.26,4.26,0,0,1-.42.49,1.63,1.63,0,0,0-.35.56,2.66,2.66,0,0,1-.71.14L1499,179a1.07,1.07,0,0,0-.7.22,1.56,1.56,0,0,0-.85-.22h-.84a3.07,3.07,0,0,1-1.2-.21.66.66,0,0,0-.42.43c-.09.23-.42.34-1,.31a4.57,4.57,0,0,0-1.23.07,3.34,3.34,0,0,0-.6.21,1.45,1.45,0,0,1-.63.11l-1.41-.14h-1.69c-.42.65-.63,2.39-.63,5.2l.49,3.09-.07,1.48a1.73,1.73,0,0,0,.14.92,2.15,2.15,0,0,1,.49,1.37,3.36,3.36,0,0,0,.39,1.51,5.6,5.6,0,0,1,.49,1.23,8.27,8.27,0,0,0,.39,1.16,3.3,3.3,0,0,0,1,1.3,2.59,2.59,0,0,0,1.69.6,2.52,2.52,0,0,0,1.61-.53,8.57,8.57,0,0,1,1.06-.74c.26-.14.41-.2.46-.17s.15,0,.31-.11a5.46,5.46,0,0,0,.85-.7,6.43,6.43,0,0,0,.73-.78,2.94,2.94,0,0,0,.29-.59c.09-.26.22-.62.38-1.09s.41-.71.74-.71.67.25,1,.74a2.55,2.55,0,0,1,.53,1.48,1.29,1.29,0,0,1-.81,1.16,1.89,1.89,0,0,0-1,1.19c-.75.33-1.18.65-1.3.95a1.18,1.18,0,0,1-.35.56c-.12.08-.2.1-.25.08a.41.41,0,0,0-.21,0c-.09,0-.14.09-.14.28a5.77,5.77,0,0,0-.84.7,1.83,1.83,0,0,0-1.69.32,2.81,2.81,0,0,1-1.62.6,2.06,2.06,0,0,1-1.4-.56,2.21,2.21,0,0,1-.78.14,2.47,2.47,0,0,0-.84.14,3.78,3.78,0,0,0-1.27-.85,13.37,13.37,0,0,1-1.4-.63c-.1-.28-.2-.43-.32-.46s-.13-.19,0-.52l-.52-.28-.53-.29a3.75,3.75,0,0,0-.77-1v-.91a1.19,1.19,0,0,1-.74-.88,1.66,1.66,0,0,0-.74-1,7.74,7.74,0,0,0-.32-1.66,5.73,5.73,0,0,1-.24-1.65v-1.26l-.49-3v-.56l.21-.63-.21-.63.49-3,.28-.42q.35-1.83.6-3.3a9,9,0,0,1,1-2.85c.49-.92,1-1.78,1.51-2.6a6.9,6.9,0,0,0,1-2.29,29.8,29.8,0,0,1,4.29-2.88,1.67,1.67,0,0,0,.56.14l1.12-.21a2.3,2.3,0,0,1,1.48.84l.77-.14h.28a1,1,0,0,1,.18.49.37.37,0,0,0,.32.35,2.65,2.65,0,0,1,1,1.52,2,2,0,0,0,1,1.37Zm-2,5.91,2.39-.5v-.28a3.46,3.46,0,0,0-.11-.84,8.33,8.33,0,0,1-.17-.84,5.74,5.74,0,0,0-.81-.78A1.08,1.08,0,0,1,1497,173a1.21,1.21,0,0,1-.81-.92c-.11-.46-.22-.91-.31-1.33-.1,0-.14-.1-.14-.28a6.55,6.55,0,0,1-.71-.57,3.31,3.31,0,0,0-2.42-.77,3.63,3.63,0,0,0-2.11.39,4.85,4.85,0,0,0-1,2.11c-.33,1.15-.62,2.11-.88,2.88a7.33,7.33,0,0,0-.39,2.35v.43l2.25.28,1.62-.14.56.14,1.13-.28,1,.14.56-.28Z"/><path d="M1513.61,197.87a13,13,0,0,1-1.26.46,1.67,1.67,0,0,0-.67.31,1.94,1.94,0,0,1-.6.35,1.8,1.8,0,0,1-1.61-2.25,6.72,6.72,0,0,0-.88-.35,2.23,2.23,0,0,1-.81-.42v-2.11a3.72,3.72,0,0,0,.56-.91,2.61,2.61,0,0,1,.49-.78.84.84,0,0,1,.53-.28.67.67,0,0,0,.39-.1.82.82,0,0,0,.21-.25.43.43,0,0,1,.21-.21l1-.14a6.37,6.37,0,0,1,1-.14,1.43,1.43,0,0,1,1.4.95,3.82,3.82,0,0,1,.43,1.44c0,.33,0,.54.17.63s.18.48.18,1.16A7,7,0,0,1,1513.61,197.87Zm-.28-28.69-.42,7.81.07,2.25c0,1-.16,1.47-.49,1.47-.14,0-.14,0,0,.14a10.34,10.34,0,0,0-.6,1.27c-.21.51-.48.77-.81.77q-.91,0-1.47-1.47a6.94,6.94,0,0,1-.5-3.17v-2.88l-.14-2.32.14-3-.14-1.4.29-.85-.15-.84.08-2.46a52.61,52.61,0,0,0-.39-7.52,26.44,26.44,0,0,1-.39-3.27,3.91,3.91,0,0,1,.32-1.55,5.49,5.49,0,0,0,.38-1.09c.05-.33.19-.49.43-.49s.23,0,.28-.14.11-.28.21-.28a2,2,0,0,1,1.37.42c.3.28.59.55.84.81a2.57,2.57,0,0,0,.53.45,2.85,2.85,0,0,1,.28.64l.28.14a.56.56,0,0,1,0,.35.37.37,0,0,0,.1.35l.29.14a3.62,3.62,0,0,1,.28,1.27l-.5,3.44.22,3.45v3.23a13.77,13.77,0,0,1-.22,2.71A9.48,9.48,0,0,0,1513.33,169.18Z"/><path d="M1363.62,352.25l8.39-77.71-28.76-4.24c-5.36-.06-9.71-6.48-9.71-14.37l-8-228.15c0-8,4.39-14.4,9.79-14.4l.28,0,266.9,78.47c5.33.12,9.64,6.52,9.64,14.36v.18l-33.49,182.9c0,7.88-4.41,14.27-9.79,14.27h-.15l-123-18.15ZM1335.24,15.39c-4.16.12-7.66,5.73-7.66,12.36l8,228.15c0,6.73,3.56,12.4,7.79,12.4h.14l30.74,4.53-8.08,74.8,79.09-64.31L1569,301.6c4.19-.06,7.72-5.69,7.72-12.36l0-.18,33.48-182.89c0-6.67-3.58-12.28-7.79-12.28l-.28,0Z"/><path d="M690.7,220.23l.49-6.75v-2.32a7.63,7.63,0,0,0-.07-1l-.21-2.53a8.43,8.43,0,0,1,0-1.34c0-.46,0-.86,0-1.19v-.84a4.11,4.11,0,0,0-.07-.71l-.21-.91.07-.7a1,1,0,0,0-.14-.57,2.18,2.18,0,0,1-.24-.63,2.61,2.61,0,0,1,0-1,2,2,0,0,0,0-.88.94.94,0,0,0-.29-.46,1.88,1.88,0,0,1-.31-.32.79.79,0,0,1-.18-.38.89.89,0,0,0-.28-.46,2.32,2.32,0,0,0-.77-.46,3.61,3.61,0,0,1-.95-.56,4.35,4.35,0,0,0,0-.95,2,2,0,0,1,.25-1,5.55,5.55,0,0,1,1.79-.28,2.44,2.44,0,0,1,1.48.39,2,2,0,0,0,1.19.38,2.37,2.37,0,0,0,1.45-.63,5.74,5.74,0,0,0,1.75.21l2.61-.07,3.44.28,1.27-.14a6.6,6.6,0,0,1,1.89.28,6.38,6.38,0,0,0,1.9.28l1.69-.07,1-.14,1.2.28,1.27-.14,1.19.07a3.84,3.84,0,0,0,1.2-.21,8.41,8.41,0,0,0,.73-2.6,5.16,5.16,0,0,1,.88-2.39,6.42,6.42,0,0,1,1.09-.14.67.67,0,0,1,.6.35,1.22,1.22,0,0,1,.21.56l-.14.43.21,1.54-.14,1.27.21,2-.14,1.26.21,1.13-.21,1.4.07.5a1.69,1.69,0,0,0-.53.77,4.13,4.13,0,0,1-.38.84l-.88.46a1.64,1.64,0,0,1-.74.25c-.19,0-.4-.31-.63-.92a4.23,4.23,0,0,1-.35-1.47l.14-1.55v-.42a1.91,1.91,0,0,0-1.41-.56l-1.26.35-2.11-.49-1.76.14a.48.48,0,0,1-.35-.14H706l-2.6-.15a3.76,3.76,0,0,0-1.27.18c-.32.12-.68.22-1.05.32a13.55,13.55,0,0,1-1.37.24l-1.62.18-1.62.14c-.54.05-.92.07-1.16.07a1,1,0,0,0-.28.88,1.48,1.48,0,0,1-.07.84c-.09.21-.16.32-.21.32s-.07.16-.07.49l.42,3.45v1.82l.07,1c-.09,0-.14.1-.14.31a4.16,4.16,0,0,0,.49,1.31,3.67,3.67,0,0,0-.07.77l-.21.91.21.85-.07,1.68.14,2.11L695,223a9.38,9.38,0,0,0,.28,2.18,4.6,4.6,0,0,1,.07,2.11,4.28,4.28,0,0,0,2.92.7c1.48,0,2.38,0,2.71.07l.84.14.71-.14,1.61.28,1.69.14a1.14,1.14,0,0,0,1.2-.77,3,3,0,0,1,.56-1.48,3.63,3.63,0,0,1,.35-1.68l1.05-.29c.24,0,.46.2.67.6a2.28,2.28,0,0,1,.32.95l-.56,4.29.28,2a8.82,8.82,0,0,0-.78,1.69,3.79,3.79,0,0,0-.84.24,2.12,2.12,0,0,1-.84.18,1.14,1.14,0,0,1-.25-.39,1.66,1.66,0,0,0-.35-.49,1.53,1.53,0,0,1-.35-.84,11.13,11.13,0,0,0-.25-1.09,1.42,1.42,0,0,0-1.12-.25,1.15,1.15,0,0,1-1.06-.32,2.16,2.16,0,0,1-1,.28,1.44,1.44,0,0,1-.81-.28,5.64,5.64,0,0,1-1.82.28l-2.33-.07h-.63a2.13,2.13,0,0,0-.95.22,1.22,1.22,0,0,1-.59.17.3.3,0,0,0-.29.11l.07.28-.42,3.51.14,2-.21,1.2.21.84-.21,3.17c0,1.5.49,2.25,1.48,2.25l1.33-.14,1.69.21a1.24,1.24,0,0,0,.92-.36,2.63,2.63,0,0,0,1.12.22l2.6-.22h.42a1.21,1.21,0,0,1,.57.15,5.73,5.73,0,0,1,2-.29c.79,0,1.44,0,1.93-.07s1-.1,1.41-.17a8.25,8.25,0,0,1,1.3-.11l1.19.07c.52,0,.83-.1,1-.31a1,1,0,0,1,.53-.46c0-.19.09-.45.14-.77.19-1.32.61-2,1.26-2,.43,0,.7.11.81.35a2.07,2.07,0,0,0,.67.7q.21,2.54.21,3.45a.12.12,0,0,0-.14.14l.14,1.62a2.51,2.51,0,0,1-.35,1.33c0,.24-.07.35-.35.35a1.11,1.11,0,0,0-.67.18,1.57,1.57,0,0,0-.39.38.52.52,0,0,1-.49.22l-1.19-.43c0-.42-.1-.89-.14-1.4a3,3,0,0,0-.43-1.34,4.76,4.76,0,0,1-.84.07h-.91c-.94,0-1.46.14-1.55.42a1.39,1.39,0,0,0-.6-.14,1.46,1.46,0,0,0-.74.28.75.75,0,0,0-.56-.21l-1,.07-.78-.14-.77.14-1.2-.35a4.93,4.93,0,0,0-2.25,1.06l-1.82-.49a.28.28,0,0,0-.25.17.41.41,0,0,1-.39.18l-2.18-.28-1.47.21h-1.13a4.27,4.27,0,0,0-2.46.49,1.51,1.51,0,0,0-1-.28l-.5.14-.35-.14a2.38,2.38,0,0,0-1.23.42,2.36,2.36,0,0,1-.88.42c-.93,0-1.4-.59-1.4-1.76v-.35c.18-.37.7-.65,1.54-.84s1.32-.28,1.41-.28a4.22,4.22,0,0,0,.39-1.34c.07-.52.13-.94.17-1.26a5.23,5.23,0,0,0,.07-.71l-.21-1.26.21-.85-.21-.56.14-.7-.21-.64.21-1.82a1.4,1.4,0,0,0,0-.53,3.47,3.47,0,0,1,0-.6l.21-1.83-.28-1.76a3,3,0,0,1,.07-.63,6.45,6.45,0,0,0,.14-.67,3.24,3.24,0,0,0,0-.84c0-.3,0-.6,0-.88v-.77a.13.13,0,0,1-.14-.14l.21-.49-.21-.85a6.82,6.82,0,0,1-.17-2c0-.82,0-1.51,0-2.08Z"/><path d="M737,219l2,2.88V222a2.61,2.61,0,0,0,.6,1.76,5.41,5.41,0,0,1,.94,1.69,4.26,4.26,0,0,1-.42.49,1.63,1.63,0,0,0-.35.56,2.68,2.68,0,0,1-.7.14l-1.13-.07a1.09,1.09,0,0,0-.7.22,1.55,1.55,0,0,0-.84-.22h-.85a3,3,0,0,1-1.19-.21.62.62,0,0,0-.42.43c-.1.23-.43.34-1,.31a4.6,4.6,0,0,0-1.23.07,3.34,3.34,0,0,0-.6.21,1.45,1.45,0,0,1-.63.11l-1.41-.14h-1.68c-.43.65-.64,2.39-.64,5.2l.5,3.09-.07,1.48c0,.52,0,.82.14.92a2.21,2.21,0,0,1,.49,1.37,3.48,3.48,0,0,0,.38,1.51,5.73,5.73,0,0,1,.5,1.23,9.49,9.49,0,0,0,.38,1.16,3.3,3.3,0,0,0,1,1.3,2.63,2.63,0,0,0,1.69.6,2.56,2.56,0,0,0,1.62-.53,7.91,7.91,0,0,1,1-.74c.26-.14.41-.2.46-.17s.15,0,.32-.11a6.09,6.09,0,0,0,.84-.7,6.84,6.84,0,0,0,.74-.78,3.68,3.68,0,0,0,.28-.59l.39-1.09c.16-.47.41-.71.73-.71s.67.25,1,.74a2.49,2.49,0,0,1,.53,1.48,1.29,1.29,0,0,1-.81,1.16,1.89,1.89,0,0,0-1,1.19c-.75.33-1.18.65-1.3.95a1.15,1.15,0,0,1-.35.57c-.12.07-.2.09-.25.07a.37.37,0,0,0-.21,0c-.09,0-.14.09-.14.28a5.28,5.28,0,0,0-.84.71,1.8,1.8,0,0,0-1.69.31,2.81,2.81,0,0,1-1.62.6,2.08,2.08,0,0,1-1.4-.56,2.16,2.16,0,0,1-.78.14,2.47,2.47,0,0,0-.84.14,3.74,3.74,0,0,0-1.26-.85,14.52,14.52,0,0,1-1.41-.63c-.1-.28-.2-.43-.32-.46s-.13-.19,0-.52l-.53-.28c-.16-.1-.34-.19-.53-.29a3.62,3.62,0,0,0-.77-1v-.91a1.2,1.2,0,0,1-.74-.88,1.62,1.62,0,0,0-.74-1A7.72,7.72,0,0,0,722,239a5.37,5.37,0,0,1-.25-1.65v-1.26l-.49-3v-.56l.21-.63-.21-.63.49-3,.28-.42c.24-1.22.43-2.32.6-3.3a9,9,0,0,1,1-2.85c.5-.92,1-1.78,1.52-2.6a7.07,7.07,0,0,0,1-2.29,30.94,30.94,0,0,1,4.29-2.88,1.67,1.67,0,0,0,.56.14l1.13-.21a2.3,2.3,0,0,1,1.47.84l.78-.14h.28a1.15,1.15,0,0,1,.17.49.4.4,0,0,0,.32.36A2.55,2.55,0,0,1,736,217a2,2,0,0,0,1,1.37Zm-2,5.91,2.39-.49v-.29a3,3,0,0,0-.11-.84c-.07-.28-.12-.56-.17-.84a4.84,4.84,0,0,0-.81-.78,1.1,1.1,0,0,1-.32-1,1.18,1.18,0,0,1-.8-.92c-.12-.46-.23-.91-.32-1.33-.1,0-.14-.1-.14-.28a6.21,6.21,0,0,1-.7-.57,3.36,3.36,0,0,0-2.43-.77,3.66,3.66,0,0,0-2.11.39,4.85,4.85,0,0,0-.95,2.11c-.33,1.15-.62,2.11-.88,2.88a7.33,7.33,0,0,0-.38,2.36v.42l2.25.28,1.61-.14.57.14,1.12-.28,1,.14.57-.28Z"/><path d="M752.65,245.47a10.71,10.71,0,0,1-1.27.46,1.67,1.67,0,0,0-.67.31,2,2,0,0,1-.59.35,1.8,1.8,0,0,1-1.62-2.25,6.2,6.2,0,0,0-.88-.35,2.32,2.32,0,0,1-.81-.42v-2.11a3.44,3.44,0,0,0,.56-.91,2.62,2.62,0,0,1,.5-.78.8.8,0,0,1,.52-.28.63.63,0,0,0,.39-.1.82.82,0,0,0,.21-.25.53.53,0,0,1,.21-.21l1-.14a6.14,6.14,0,0,1,1-.14,1.44,1.44,0,0,1,1.41.95A4,4,0,0,1,753,241q0,.5.18.63c.11.1.17.48.17,1.16A7,7,0,0,1,752.65,245.47Zm-.28-28.69-.43,7.81.08,2.25c0,1-.17,1.47-.5,1.47-.14,0-.14.05,0,.14a12.26,12.26,0,0,0-.59,1.27c-.22.51-.49.77-.81.77-.61,0-1.1-.49-1.48-1.47a7,7,0,0,1-.49-3.17V223l-.14-2.32.14-3-.14-1.41.28-.84-.14-.85.07-2.46a52.61,52.61,0,0,0-.39-7.52,26.44,26.44,0,0,1-.39-3.27,3.91,3.91,0,0,1,.32-1.55,6.5,6.5,0,0,0,.39-1.09c0-.33.18-.49.42-.49s.23.05.28-.14.12-.28.21-.28a2,2,0,0,1,1.37.42c.31.28.59.55.85.81a2.36,2.36,0,0,0,.52.45,3.17,3.17,0,0,1,.29.64l.28.14a.56.56,0,0,1,0,.35.37.37,0,0,0,.11.35l.28.14a3.41,3.41,0,0,1,.28,1.27l-.49,3.44.21,3.45v3.23a14.68,14.68,0,0,1-.21,2.71A9.48,9.48,0,0,0,752.37,216.78Z"/><path d="M617.93,396.7l8.31-77-29.3-4.33h0c-5,0-9.21-6.22-9.21-13.86l-8-228.17c0-7.66,4.16-13.88,9.29-13.88l.14,0,267,78.49c5.09.06,9.22,6.26,9.22,13.86L831.87,334.93c0,7.56-4.15,13.77-9.28,13.77L699.33,330.51ZM589,60.48c-4.54.06-8.22,5.81-8.22,12.87l8,228.17c0,7.11,3.72,12.88,8.29,12.88l30.33,4.47-8.16,75.52L699,329.46l.22,0,123.41,18.22c4.49,0,8.21-5.78,8.21-12.87l33.51-183.08c0-7-3.72-12.77-8.3-12.77l-.14,0Z"/><rect class="cls-5" x="490.71" y="680.63" width="12" height="34" rx="6" transform="translate(297.23 1530.47) rotate(-131.08)"/><path class="cls-2" d="M117.21,465.61c9.28-22.74,6.13-19.47,64.89,1.59,17.17,6.16,44.41,3,72.86,14.61,25.73,10.5,39.92,30.75,55.84,37.9,63.17,28.36,63.49,23.42,53.92,46.89-10.48,25.68,3.51,69-97.55,33.59-14.57-5.1-28-22.75-47.91-30.89-19.43-7.92-40.12-4.27-53.94-10.66C63.72,511.6,106.66,491.48,117.21,465.61Z"/><path class="cls-2" d="M176.21,676.61c9.28-22.74,6.13-19.47,64.89,1.59,17.17,6.16,44.41,3,72.86,14.61,25.73,10.5,39.92,30.75,55.84,37.9,63.17,28.36,63.49,23.42,53.92,46.89-10.48,25.68,3.51,69-97.55,33.59-14.57-5.1-28-22.75-47.91-30.89-19.43-7.92-40.12-4.27-53.94-10.66C122.72,722.6,165.66,702.48,176.21,676.61Z"/><path class="cls-5" d="M473.42,775.19c32.93,3.72,66.48,7.4,98.71,15.25,15.49,3.77,30.26,10.95,45,17,20.35,8.36,40.67,16.8,60.82,25.62,16.33,7.14,31.22,16.08,46.59,25.11,6.67,3.92,12.72-6.45,6.06-10.36-13.66-8-26.95-16.4-41.43-22.83-20-8.88-40.15-17.26-60.34-25.61-15.8-6.53-31.77-14.42-48.24-19.12-19.45-5.56-39.94-8.13-59.92-11-15.71-2.24-31.44-4.3-47.2-6.08-7.66-.87-7.6,11.14,0,12Z"/><path class="cls-5" d="M704,842l22.45-2.9c3.24-.41,6-2.46,6-6,0-2.92-2.78-6.41-6-6L704,830c-3.24.41-6,2.46-6,6,0,2.92,2.78,6.41,6,6Z"/><path class="cls-6" d="M297.12,723.55c-81.88,34-39,46.2-25.84,77.83s-8.55,70.66,73.33,36.71c15-6.22,92.16-38.5,106.94-45.46,65.79-31,60.17-43.2,43.28-83.94-16.39-39.52-24.51-51.94-94.9-26.69C386.17,686.94,310.51,718,297.12,723.55Z"/><path class="cls-5" d="M264.75,842.42a75.44,75.44,0,0,1-25.62,2.92c-6.44-.27-13-1.33-19.44-.48-9.88,1.31-17.3,10.13-21.25,18.79-3.17,7,7.17,13.08,10.37,6.06a35.47,35.47,0,0,1,4.79-7.8c3.33-4,6.45-5.41,11.59-5.34,14.67.19,28.38,1.83,42.75-2.58,7.36-2.26,4.22-13.85-3.19-11.57Z"/><path class="cls-5" d="M234.49,771.76A82.7,82.7,0,0,0,212,757.13c-5.8-2.57-13.13-4.15-18.31-7.89-1-.74-1-.24-.81-1.78a22.82,22.82,0,0,1,2.59-7.09,65.38,65.38,0,0,1,5.75-9.3c4.6-6.2-5.81-12.19-10.36-6.05-5.55,7.48-13.83,20.59-8.32,29.91,3.35,5.68,11.72,7.83,17.43,10.1,9.48,3.77,18.49,8.25,26.07,15.22,5.67,5.22,14.18-3.25,8.48-8.49Z"/><path class="cls-7" d="M246.31,739.2c66.74-27.67,42.92-17.25,68.39,44.18s50.06,52.85-17.45,78.68c-1.81.69-3.47,1.36-5.06,1.87-2.36,1.12-4.79,2.21-7.29,3.25-33.18,13.75-19.17-5.18-24.9-19-2.51-6.07-8.41-10.14-11.43-14a7,7,0,0,1-1.85-4.47c-.57-4.83.71-11.88-1.8-18s-8.41-10.13-11.43-13.95a5,5,0,0,1-1.32-2.07,4.93,4.93,0,0,1-.53-2.4c-.57-4.84.71-11.89-1.8-17.95-5.73-13.82-29-17.28,4.15-31,2.32-1,4.62-1.84,6.91-2.67C242.51,740.88,244.3,740,246.31,739.2Z"/><path class="cls-2" d="M318.58,589.39c-38-38.94-45.06-44.75-.68-88.05,45.09-44,50-36.08,88,2.86s81,58.64,25.12,113.1C373.76,673.17,356.56,628.33,318.58,589.39Z"/><ellipse class="cls-3" cx="419.17" cy="603.72" rx="34.5" ry="9.5" transform="translate(-302.45 464.29) rotate(-44.29)"/><path class="cls-5" d="M308.66,489l-5.35-22c-1.83-7.5-13.4-4.32-11.57,3.19l5.35,22c1.83,7.5,13.4,4.32,11.57-3.19Z"/><path class="cls-8" d="M288.91,692.22C293.44,638,293.2,628.85,355,634c62.78,5.25,60,14.15,55.5,68.36s8.74,99.58-69,93.08C261.77,788.79,284.37,746.43,288.91,692.22Z"/><ellipse class="cls-3" cx="343.98" cy="777.6" rx="9.5" ry="34.5" transform="translate(-459.58 1055.6) rotate(-85.22)"/><path class="cls-8" d="M112.66,660.84c2-24.47,0-20.42,62.39-17.91,18.23.74.27-23.43,30.89-20.87,27.69,2.32,47.29,17.4,64.63,19.45,68.76,8.15,67.59,3.34,65.48,28.6-2.32,27.64,24,64.79-83,61.25-15.42-.51-33.51-13.33-55-15.13-20.91-1.75,3.44,20.94-11.66,19C75.38,720.73,110.33,688.67,112.66,660.84Z"/><path class="cls-5" d="M453.12,678.81c-15.53-29.87-31.23-60.38-50.42-88.08-9.38-13.55-21.64-25.15-32.92-37.09-15.25-16.14-30.56-32.23-46.15-48-12.75-12.92-26.6-23.83-40.8-35.14-6-4.76-14.53,3.67-8.49,8.49,12.27,9.77,24.77,19.08,35.88,30.18,15.19,15.18,30,30.75,44.76,46.32,11.3,11.92,24.6,24.3,34.22,36.95,12.11,16,21.73,34.07,31.45,51.52q11.34,20.31,22.11,41c3.56,6.85,13.92.79,10.36-6.06Z"/><path class="cls-6" d="M493,539.38c-43.55,25.48-40.66,80.06-10.4,131.79s76.41,81,120,55.53S688,660.5,640.28,578.93C595.1,501.67,536.53,513.91,493,539.38Z"/><circle class="cls-9" cx="549.97" cy="577.77" r="33.5"/><ellipse cx="550.82" cy="562.22" rx="20.94" ry="4.28" transform="translate(-208.49 355.01) rotate(-30.32)"/><circle class="cls-9" cx="609.61" cy="673.8" r="33.5"/><ellipse cx="623.53" cy="683.95" rx="20.94" ry="4.28" transform="translate(-260 408.37) rotate(-30.32)"/><path class="cls-5" d="M512.2,519.44s1.24,7.77,7.1,6.47,36.11-6.25,53.4-16.35,37.65-26.28,36.72-27.86-11.11-2-14.5-2.14-11.15-.09-14.51-2.14c-4-2.43-21.35-6.6-26.55-5.73-5.42.91-17-.7-25,8.25s-17.89,31.72-17,33.3S512.2,519.44,512.2,519.44Z"/><path class="cls-5" d="M626.25,718.38s-6.18-4.89-2.17-9.36,23.15-28.41,40.43-38.52,41.36-19.94,42.29-18.36-3.71,10.67-5.25,13.7-5.38,9.75-5.24,13.69c.16,4.67-4.72,21.84-8,25.94-3.45,4.29-7.71,15.14-19.44,17.75s-36.42,0-37.35-1.53S626.25,718.38,626.25,718.38Z"/><path class="cls-6" d="M567.11,514.56c-5.59,3.26,8.19,17.71,20.59,38.92s18.76,41.17,24.34,37.9,9-11.89-10.6-45.35C582.9,514.35,572.69,511.29,567.11,514.56Z"/><path class="cls-6" d="M609.84,618.84c-3.8,4.35,13.53,14,32,30.2s31.2,32.68,35,28.33,3.73-13-25.47-38.5C623.77,614.74,613.63,614.5,609.84,618.84Z"/><path class="cls-6" d="M565,650.9c-6.73,2.62,4.1,16.26,11.75,35.88s9.23,37.79,16,35.16,12.52-10.16.45-41.1C581.71,651.54,571.71,648.27,565,650.9Z"/><path class="cls-6" d="M499.73,561.28c-6.8,4,7.84,17.91,20.24,39.13s17.89,41.67,24.69,37.69,11.54-13.4-8-46.86C518.1,559.56,506.53,557.3,499.73,561.28Z"/><path d="M564,657.86a29.65,29.65,0,0,1-8.5-1.51l.34-1c.08,0,8.58,3,12.93.42a10.75,10.75,0,0,0,4.86-7.58l1,.09a11.53,11.53,0,0,1-5.35,8.36A10.55,10.55,0,0,1,564,657.86Z"/><path d="M481.69,634.47c2.43,13.39,25,40.3,25,42.67,26.52,24.9,29.75,30.34,33.87,30.47,7.26.22,41.36-19.7,38.59-25.49-4.25-8.85-26.84-19.66-36.82-32.21-11.83-14.87-17-35.18-23.37-40C516.46,608,481,630.77,481.69,634.47Z"/><polygon class="cls-10" points="500.22 635.96 490.56 649.31 483.81 637.44 500.22 635.96"/><polygon class="cls-10" points="542.25 688.9 537.63 704.72 527.28 695.81 542.25 688.9"/><polygon class="cls-4" points="1492.13 794.16 1655.84 816.65 1498.89 747.21 1601.17 699.06 1470.67 726.87 1518.99 653.6 1422.7 740.36 1477.78 611.11 1381.93 714.9 1391.45 567.23 1306.84 702.76 1293.54 569.64 1254.42 707.07 1222.1 582 1196.33 734.38 1117.91 662.83 1137.86 786 1069.48 786.86 1123.72 818.13 1063.6 884.76 1125.68 866.06 1136.91 912.98 1180.33 854.97 1206.02 936.01 1233.32 841.52 1291 886.22 1291.38 825.87 1360.99 884.42 1369.19 809.41 1473.35 915.68 1443.14 819.14 1590.55 928.77 1492.13 794.16"/><rect class="cls-5" x="1383.98" y="589.08" width="12" height="34" rx="6" transform="translate(1782.38 2070.8) rotate(-128.56)"/><path class="cls-5" d="M1402.09,598.86c25.81,22.2,52,44.89,80.41,63.75,13.55,9,29.17,15.07,43.88,21.87,20.27,9.37,40.57,18.67,61,27.58,6.65,2.9,13.32,6.05,20.22,8.33,10.33,3.42,20.89,6.24,31.31,9.37,7.41,2.23,10.58-9.35,3.19-11.57-14.75-4.43-29.91-8.43-43.85-14.41-19.66-8.43-39.11-17.35-58.54-26.29-15.26-7-31.57-13.26-46-21.94-17-10.22-32.51-23.26-47.88-35.73q-17.84-14.48-35.3-29.45c-5.83-5-14.35,3.44-8.49,8.49Z"/><path class="cls-5" d="M1606.92,721.32l13.15,18.43c4.44,6.24,14.86.25,10.36-6l-13.15-18.43c-4.44-6.24-14.86-.25-10.36,6.05Z"/><path class="cls-6" d="M1428.38,430.41c48.13-74.44,52.46-30,81.21-11.42s71.05,4.3,22.92,78.74c-8.82,13.65-54.45,83.73-64,97-42.33,59.15-53.32,51.42-90.35,27.48-35.92-23.23-46.69-33.46-9.18-98.15C1376.35,511.42,1420.51,442.58,1428.38,430.41Z"/><path class="cls-5" d="M1561.72,425.59a80.57,80.57,0,0,0,7.86-23.06c1.14-6.3,1.45-12.71,2.57-19,.91-5.13,2.92-7.91,7.53-10.45a33,33,0,0,1,7.92-3.11c7.48-1.89,4.31-13.46-3.19-11.58-9.09,2.29-19.28,7.74-22.6,17-2,5.68-2.15,12.05-2.9,18-1.16,9.09-3.3,17.93-7.55,26.1-3.55,6.85,6.8,12.92,10.36,6.06Z"/><path class="cls-5" d="M1497.2,371c-5.62-8.92-8.45-18.6-10.52-28.85-1.31-6.47-2-15.68-8-19.72-8.76-5.89-22.36,0-30.75,4.1-6.93,3.41-.85,13.77,6.06,10.37a52.7,52.7,0,0,1,8.27-3.24,28.6,28.6,0,0,1,6.94-1.51,11.51,11.51,0,0,1,2.57.14c.77.12,0-.71.31.44,4.51,15.27,6,30.49,14.72,44.33,4.1,6.52,14.49.5,10.36-6.06Z"/><path class="cls-7" d="M1452.92,383.25c-39.23,60.67-24.69,39.1,31.15,75.21s43,58.75,80.54-3c1-1.66,2-3.18,2.75-4.64,1.53-2.13,3-4.32,4.51-6.59,19.5-30.16-1.64-19.79-14.2-27.91-5.52-3.57-8.46-10.1-11.68-13.76a7,7,0,0,0-4-2.62c-4.66-1.43-11.83-1.44-17.34-5s-8.46-10.1-11.67-13.76a7,7,0,0,0-4.06-2.62c-4.66-1.43-11.82-1.43-17.34-5-12.56-8.12-11.78-31.65-31.28-1.5q-2,3.17-3.86,6.31C1455.26,379.81,1454.1,381.42,1452.92,383.25Z"/><path class="cls-5" d="M1201.17,389l-20.67-9.23c-3-1.33-6.42-.84-8.21,2.16-1.52,2.54-.8,6.89,2.15,8.21l20.68,9.22c3,1.33,6.41.84,8.21-2.15,1.52-2.55.8-6.89-2.16-8.21Z"/><path class="cls-8" d="M682.63,551c38.94-38,44.76-45.06,88-.68,44,45.1,36.08,50-2.86,88s-58.63,81-113.1,25.11C598.86,606.16,643.69,589,682.63,551Z"/><ellipse class="cls-3" cx="668.3" cy="651.57" rx="9.5" ry="34.5" transform="translate(-265.06 651.86) rotate(-44.29)"/><path class="cls-8" d="M546.06,373.81c17.58-17.15,13.39-15.41,58.87,27.35,13.29,12.49,39.53,20.47,61,42.46,19.4,19.89,24.33,44.13,36.08,57,46.62,51.2,48.88,46.8,30.74,64.5-19.86,19.37-24.31,64.68-102.86-8.12-11.32-10.49-16.57-32-31.6-47.43-14.66-15-35.09-19.92-45.21-31.3C478.67,394.64,526.07,393.32,546.06,373.81Z"/><path class="cls-5" d="M1364.46,567c-26.48-20.57-53.52-41.43-77.28-65.15a112.16,112.16,0,0,1-12.07-14.25q-8.64-11.55-17.15-23.19c-13.11-17.88-26.16-35.81-38.88-54-10.32-14.74-18.47-30.23-27-46.08-3.65-6.81-14-.76-10.37,6.05,7.48,14,14.47,28,23.48,41.07,12.23,17.71,24.92,35.11,37.62,52.49,10.2,14,19.86,29.15,31.57,41.93,13.49,14.73,29.45,27.44,44.82,40.12q18.16,15,36.74,29.46c6,4.69,14.58-3.75,8.48-8.48Z"/><path class="cls-6" d="M1235,573.94c32.89-38.25,86.06-25.59,131.5,13.47s65.93,89.74,33,128S1319,787.56,1247.38,726C1179.52,667.6,1202.1,612.2,1235,573.94Z"/><circle class="cls-9" cx="1262.49" cy="636.9" r="33.5"/><ellipse cx="1247.04" cy="634.95" rx="20.94" ry="4.28" transform="translate(-47.41 1166.61) rotate(-49.31)"/><circle class="cls-9" cx="1346.22" cy="712.84" r="33.5"/><ellipse cx="1353.71" cy="728.37" rx="20.94" ry="4.28" transform="translate(-81.12 1280.01) rotate(-49.31)"/><path class="cls-5" d="M1211.91,589.26s7.43,2.61,5.09,8.15-12.64,34.4-25.7,49.58-32.61,32.31-34,31.11,0-11.29.51-14.65,1.91-11,.5-14.66c-1.67-4.36-2.64-22.19-.86-27.14,1.87-5.17,2.37-16.82,12.61-23.11s34.43-11.9,35.82-10.7S1211.91,589.26,1211.91,589.26Z"/><path class="cls-5" d="M1387.09,737.23s-3.7-7-8.82-3.81-32.12,17.66-45.17,32.84-27,37.1-25.66,38.29,11.16-1.72,14.41-2.69,10.57-3.54,14.42-2.7c4.56,1,22.33-.71,27-3.22,4.83-2.63,16.28-4.87,21-15.94s6.6-35.81,5.21-37S1387.09,737.23,1387.09,737.23Z"/><path class="cls-6" d="M1197.23,642.39c4.22-4.9,16,11.24,34.59,27.26s37.11,25.86,32.9,30.76-13.32,6.68-42.71-18.59C1194.18,657.89,1193,647.3,1197.23,642.39Z"/><path class="cls-6" d="M1292.13,703.19c5-3,11.37,15.83,23.93,36.95s26.53,36.58,21.57,39.53-13.46,1.33-33.28-32C1285.58,716.15,1287.17,706.14,1292.13,703.19Z"/><path class="cls-6" d="M1331.73,664.82c3.8-6.15,15.26,7,33.18,18s35.52,15.88,31.72,22-12.25,10.49-40.52-7C1329.35,681.4,1327.93,671,1331.73,664.82Z"/><path class="cls-6" d="M1255.31,584.52c5.13-6,16.21,10.93,34.85,27s37.77,25.1,32.64,31.07-15.26,8.94-44.65-16.33C1250.31,602.28,1250.18,590.49,1255.31,584.52Z"/><path d="M1328.05,673.88c-.34,0-.54,0-.58,0l.08-1a10.73,10.73,0,0,0,8.34-3.41c3.28-3.82,1.93-12.71,1.91-12.8l1-.15c.06.38,1.44,9.43-2.14,13.6A11.45,11.45,0,0,1,1328.05,673.88Z"/><path d="M1330.55,579.93c12.74,4.81,35.15,31.83,37.47,32.31,19.73,30.57,24.5,34.73,23.88,38.8-1.09,7.18-26.81,37.14-32,33.37-7.94-5.77-14.52-29.94-25.06-42-12.51-14.31-31.56-23-35.17-30.19C1298.23,609.38,1327,578.61,1330.55,579.93Z"/><polygon class="cls-10" points="1328.68 598.44 1343.56 591.34 1333.1 582.56 1328.68 598.44"/><polygon class="cls-10" points="1373.2 649.3 1389.6 647.61 1382.68 635.82 1373.2 649.3"/><path d="M157,218.58l-.72-4.45a2.12,2.12,0,0,0-.48-1.62l-1.56-1.39a4.65,4.65,0,0,1-1.32-3.06,31.45,31.45,0,0,1-.12-4.87c.16-2.33.6-6.25,1.32-11.79q-.84-10.34-1.08-13.34-1.33-15.87.72-19.6a5.58,5.58,0,0,1,1-1.44,4,4,0,0,0,.84-3.13c-.32-3,1.24-5,4.69-6.13a19.67,19.67,0,0,0,3-1.2q1.44-.72,3-1.32a7.43,7.43,0,0,1,6,0,8.77,8.77,0,0,0,5.11,1q2.66-.3,5.41-.72c1.85-.28,3.63-.46,5.36-.55a7,7,0,0,1,4.44,1.21q1.88,1.32,4,2.88a24.23,24.23,0,0,1,3.79,3.49q3.72,4.34,3.12,8.42a13.13,13.13,0,0,1,.85,8.65,3.92,3.92,0,0,0-.12,2.17,7.77,7.77,0,0,1,0,3.84,8,8,0,0,0-.18,3.55,6.76,6.76,0,0,1-.55,3.79,13.94,13.94,0,0,0-1.08,3.61,5.48,5.48,0,0,1-1.2,2.82,3.62,3.62,0,0,1-1.74,1.32,3.47,3.47,0,0,0-1.45.72,3.7,3.7,0,0,0-1,1.15,7.05,7.05,0,0,1-.9,1.32,10.17,10.17,0,0,1-3.73,3,10.89,10.89,0,0,0,3.13,3.54,16.19,16.19,0,0,1,3.07,2.77,4.87,4.87,0,0,1,1.32,2.82,8.87,8.87,0,0,0,.54,2.65,4.5,4.5,0,0,1,.36,2.1c-.08.52-.18,1.08-.3,1.69s-.26,1.24-.42,1.92a8.25,8.25,0,0,0-.18,2.28,6,6,0,0,1-.24,2.17,9.09,9.09,0,0,1-.84,1.8c-.36.6-.79,1.26-1.27,2a13.51,13.51,0,0,0-1.32,2.64,8.91,8.91,0,0,1-2.34,3.43c-1.09,1-1.93,1.8-2.53,2.4a10.62,10.62,0,0,0-1.74,2.47,7.28,7.28,0,0,1-4.33,3.72,3.13,3.13,0,0,1-3.85-1.32q-.72-1.32-2.58-.48c-1.25.56-2.23,1-3,1.38a4.48,4.48,0,0,1-2.58.36c-1-.12-2-.28-3-.48a5.8,5.8,0,0,0-3.07.24,5.66,5.66,0,0,1-2.88.3,7.92,7.92,0,0,1-2.41-.84,5.79,5.79,0,0,1-3.12-3.37,20.94,20.94,0,0,1-1-4.5,35.84,35.84,0,0,0-.72-4.33,13.38,13.38,0,0,1-.49-2.83Zm17.08-32.71q0,6.38,2.28,6.38c.8,0,1.52-.58,2.17-1.75a10.06,10.06,0,0,0,1.2-3.3c.08-1,.14-2.11.18-3.19a9.13,9.13,0,0,1,1.56-4.09,5.87,5.87,0,0,0,1-4.57q-.54-2.1-1.86-2.52a6.45,6.45,0,0,1-2.34-1.32A10.44,10.44,0,0,0,176,170c-.84-.4-1.56-.1-2.16.91a3.46,3.46,0,0,0,0,3.42,10.14,10.14,0,0,1,.6,5.17Q174.11,182.76,174.11,185.87Zm3.36,17.32q-2.76-.84-3,2.76c-.16,1.69-.36,3.41-.6,5.17a12.05,12.05,0,0,0-.06,4c.2.88.42,1.85.66,2.89a16.88,16.88,0,0,0,1.44,1.08q.72.48,1.32,1a9.28,9.28,0,0,1,1.39-2.16,8.39,8.39,0,0,0,1.14-1.57,10,10,0,0,0,1.38-4.75,11.53,11.53,0,0,0-.42-4.5Q179.76,203.9,177.47,203.19Z"/><path d="M221.48,151.49a15.34,15.34,0,0,0,2.28-2.59,11.83,11.83,0,0,1,2.53-2.58q4.2-3.49,8.42-2a39.84,39.84,0,0,0,9.49,2.41c2.89.32,5,1,6.32,2.16a22.67,22.67,0,0,1,3.42,3.61,20.7,20.7,0,0,1,4.21,10,5.74,5.74,0,0,0,.72,2.88c1,1.77,1.38,4.13,1,7.1a32.65,32.65,0,0,0-.36,6.19,8,8,0,0,0,.6,2.59c.29.56.55,1.12.79,1.68a11.72,11.72,0,0,1,1,4.57,10.29,10.29,0,0,1-1.93,5.77c-.56.72-.76,2.12-.6,4.21s.28,4.16.36,6.25q.12,7.82-.84,9.68a9.39,9.39,0,0,1-1.38,2.22,8.25,8.25,0,0,1-.78.6c-1.2.56-2.27,2.23-3.19,5a19.13,19.13,0,0,1-3.67,6.74,24,24,0,0,1-4.74,4.2l-3.85,2.53a7.42,7.42,0,0,0-2,1.74l-1.2,1.68a4.87,4.87,0,0,1-4,1.93c-2.72,0-4.73-.64-6-1.93a17,17,0,0,1-1.8-3.12,15.29,15.29,0,0,0-4.81-5.29,9.65,9.65,0,0,1-4.09-6.85,9.2,9.2,0,0,1-.18-3.13,15.64,15.64,0,0,0-.18-4,17.32,17.32,0,0,0-1-4.33,12.93,12.93,0,0,1-.84-3.6c-.4-3.37-1.53-5.17-3.37-5.41q-2-.24-2.4-6.14a33.27,33.27,0,0,1,.24-5.71,28.53,28.53,0,0,1,1-4.63,23.69,23.69,0,0,0,.6-8.11,47.06,47.06,0,0,1,0-8.24,28.12,28.12,0,0,1,2.89-10.94,15.34,15.34,0,0,1,3.18-3.61C218.73,153.77,220.12,152.61,221.48,151.49Zm7.63,34.38a5.43,5.43,0,0,0,1.21,2.71,6.74,6.74,0,0,1,1.32,3.19,20,20,0,0,1,.3,4.74c-.08,1.73-.12,3.37-.12,4.93a33.13,33.13,0,0,0,.24,4.21,20.51,20.51,0,0,0,.72,3.43c.88,2.48,2.12,3.73,3.73,3.73q3.72,0,5.17-14.43a87.58,87.58,0,0,0,.48-10.16,27.17,27.17,0,0,0-1.92-10.7Q238.3,173,235.55,173t-4.81,5.89Q228.8,184.2,229.11,185.87Z"/><path d="M279.31,151.49a15.87,15.87,0,0,0,2.29-2.59,11.77,11.77,0,0,1,2.52-2.58q4.22-3.49,8.42-2a39.79,39.79,0,0,0,9.5,2.41c2.88.32,5,1,6.31,2.16a22.67,22.67,0,0,1,3.42,3.61,20.7,20.7,0,0,1,4.21,10,5.74,5.74,0,0,0,.72,2.88c1.05,1.77,1.39,4.13,1,7.1a32.65,32.65,0,0,0-.36,6.19,7.76,7.76,0,0,0,.6,2.59q.42.84.78,1.68a11.72,11.72,0,0,1,1,4.57,10.35,10.35,0,0,1-1.92,5.77c-.57.72-.77,2.12-.6,4.21s.27,4.16.36,6.25q.1,7.82-.85,9.68a9.39,9.39,0,0,1-1.38,2.22,8.25,8.25,0,0,1-.78.6c-1.2.56-2.27,2.23-3.19,5a19.28,19.28,0,0,1-3.66,6.74,24.33,24.33,0,0,1-4.75,4.2l-3.85,2.53a7.35,7.35,0,0,0-2,1.74l-1.21,1.68a4.87,4.87,0,0,1-4,1.93c-2.73,0-4.73-.64-6-1.93a17,17,0,0,1-1.8-3.12,15.29,15.29,0,0,0-4.81-5.29,9.71,9.71,0,0,1-4.09-6.85,9.2,9.2,0,0,1-.18-3.13,15.64,15.64,0,0,0-.18-4,17.32,17.32,0,0,0-1-4.33,12.93,12.93,0,0,1-.84-3.6q-.6-5.06-3.37-5.41-2-.24-2.4-6.14a33.27,33.27,0,0,1,.24-5.71,28.53,28.53,0,0,1,1-4.63,23.69,23.69,0,0,0,.6-8.11,47.06,47.06,0,0,1,0-8.24A28.12,28.12,0,0,1,272,158.58a15.34,15.34,0,0,1,3.18-3.61Q277.27,153.17,279.31,151.49ZM287,185.87a5.43,5.43,0,0,0,1.2,2.71,6.74,6.74,0,0,1,1.32,3.19,20,20,0,0,1,.3,4.74c-.08,1.73-.12,3.37-.12,4.93a33.13,33.13,0,0,0,.24,4.21,20.51,20.51,0,0,0,.72,3.43c.89,2.48,2.13,3.73,3.73,3.73q3.72,0,5.17-14.43a87.58,87.58,0,0,0,.48-10.16,27.17,27.17,0,0,0-1.92-10.7c-1.28-3-2.85-4.51-4.69-4.51s-3.37,2-4.81,5.89Q286.65,184.2,287,185.87Z"/><path d="M383.55,233.61q-4,0-3.6-6.74a78.36,78.36,0,0,0,.06-8.05,27,27,0,0,0-1.51-7.34,40.6,40.6,0,0,1-1.8-7,14.91,14.91,0,0,1,.72-6.85,22.46,22.46,0,0,0,.24-11.79,10.2,10.2,0,0,1-.24-2.22,17,17,0,0,0-.12-2.1c-.08-1.53-.48-2.29-1.2-2.29s-1.08.56-1.32,1.68a33.82,33.82,0,0,1-1.69,6.74q-2.64,6.25-2,10.34,1.56,6-.24,9.26a5.68,5.68,0,0,1-2.05,2.28,5,5,0,0,0-1.56,1.26,3.44,3.44,0,0,0-.3,1.93,3.08,3.08,0,0,1-.66,2.22,3.84,3.84,0,0,0-.9,1.8c-.12.65-.26,1.25-.42,1.81a2.27,2.27,0,0,1-2.65,1.92,3.32,3.32,0,0,1-2.82-2.52,27.24,27.24,0,0,1-1.2-5.29c-.29-2-.57-4-.85-6a10.13,10.13,0,0,0-1.56-4.56,9.65,9.65,0,0,1-1.56-3.13,27.07,27.07,0,0,1-.66-3.25,16.53,16.53,0,0,0-1.57-5.65,15.7,15.7,0,0,1-1.32-5.41,40.29,40.29,0,0,0-.9-5.41q-.42-1.44-1.5-1.44c-.81.08-1.25.68-1.33,1.8a5.82,5.82,0,0,0,.36,2.77,8,8,0,0,1,.12,3.84,13.52,13.52,0,0,0,.12,4.81c.32,1.37.65,2.59,1,3.67s.6,2.23.84,3.43a19.94,19.94,0,0,1,.54,8.35,45.89,45.89,0,0,0-.78,5.29,3.19,3.19,0,0,1-1.51,2.71,3.6,3.6,0,0,0-1.68,1.74,9.76,9.76,0,0,0-.42,2.05q-.12,1.14-.24,2.4a11.63,11.63,0,0,1-.84,3.07c-1,2.56-1.38,4.45-1,5.65a4.83,4.83,0,0,1-.61,3.85,4,4,0,0,1-3.24,2.22,4.74,4.74,0,0,1-3.37-.78,9.72,9.72,0,0,1-2.22-2.41,22.82,22.82,0,0,1-3.13-14.66c.08-1.21.18-2.41.3-3.61a24.07,24.07,0,0,0-.06-4.45q-.36-6.5-3-10.22a11.59,11.59,0,0,1-2.05-6.13c-.4-4.17-.16-7.13.72-8.9a8.91,8.91,0,0,0,.61-3.79c0-1.72,0-3-.07-3.72a5,5,0,0,1,.12-1.69,8.45,8.45,0,0,0,.25-1.92c0-.92.06-2,.06-3.19a27.08,27.08,0,0,0-.85-5.95,28.54,28.54,0,0,1-.9-4.69,18.13,18.13,0,0,1,.06-3.9c.24-2.89.74-4.93,1.5-6.14a4.72,4.72,0,0,1,2.11-2.1,7.23,7.23,0,0,1,2.16-.3,4.57,4.57,0,0,0,2-.42,18.73,18.73,0,0,1,1.8-.78,5.26,5.26,0,0,1,4-.12,6.44,6.44,0,0,0,3.31.48,22.25,22.25,0,0,0,2.58-.6c2.08-.8,3.67-1,4.75-.6a7.53,7.53,0,0,1,2.94,2,5.6,5.6,0,0,1,1.51,2.34,2.52,2.52,0,0,0,.54,1.27,7.83,7.83,0,0,0,.84.72,3.33,3.33,0,0,1,1,2.64,24.55,24.55,0,0,0,1.44,7.1q2.54,8.41,4.81,9.13c.32.08.89-.16,1.69-.72a4.43,4.43,0,0,0,1.68-2.52,11.91,11.91,0,0,0,.48-4.39,3,3,0,0,1,.42-2.35,3,3,0,0,0,.72-1.56q.06-.72.18-1.92a20.92,20.92,0,0,1,.49-2.77,14,14,0,0,1,2.76-6,6.76,6.76,0,0,1,3.73-2.4,14.58,14.58,0,0,1,3.91-.19l4,.37a8.35,8.35,0,0,0,4-.67q5.42-2.4,7.46-.11a3.94,3.94,0,0,0,1.14.84l1,.48a3.08,3.08,0,0,1,1.14,2.22,8.2,8.2,0,0,0,.42,2c.16.37.32.71.48,1q1.33,3.12,1.69,10.82.36,12.62-.48,14.43c.56,3.28.28,5.61-.85,7l-.72.72a9.71,9.71,0,0,0-2.64,5.77,5.29,5.29,0,0,0,.06,2.41,6.8,6.8,0,0,1,.3,2c0,.72,0,1.37-.06,1.92s-.06,1.17-.06,1.81a31,31,0,0,0-.06,5.05,7,7,0,0,1,0,2.28,11,11,0,0,1-.42,1.33,6.07,6.07,0,0,0-.36,3.06,4.07,4.07,0,0,1,0,2,12,12,0,0,1-.6,1.45,10.72,10.72,0,0,0-.79,5.23,22.12,22.12,0,0,1-.24,5.35,23.31,23.31,0,0,0-.42,4.45q-.24,6.38-1.68,5.89-.6-.24-1,.6a9.71,9.71,0,0,0-.72,2.16,1.12,1.12,0,0,1-1.63.91,2.64,2.64,0,0,1-1.74-2,3.69,3.69,0,0,0-1.08-2A3.4,3.4,0,0,0,383.55,233.61Z"/><path d="M422.63,197.42l-.24,8.53q0,8.3-3.49,11.06a5.88,5.88,0,0,1-4,1.33,4.2,4.2,0,0,1-2.71-1.33,3.93,3.93,0,0,1-1-2.52,29.13,29.13,0,0,0-.6-4.15c-.36-1.8-.81-3.61-1.33-5.41a16.35,16.35,0,0,1-.54-5.83c.16-2.08.26-4,.3-5.89a6.19,6.19,0,0,0-1-4.09,6.36,6.36,0,0,1-1.44-4.09,6.16,6.16,0,0,1,.48-2.52,17.27,17.27,0,0,0,1.08-5.53c0-1.6,0-2.77-.12-3.49s-.18-1.42-.3-2.1-.26-1.73-.42-3.13a24.07,24.07,0,0,1,0-4.81,31.23,31.23,0,0,0,0-5.47c-.16-1.84-.26-3.33-.3-4.45a11.13,11.13,0,0,1,.78-4,13.59,13.59,0,0,1,1.38-3.06,5.29,5.29,0,0,1,1.87-1.39c.88-.43,1.48-.76,1.8-1a1.94,1.94,0,0,1,1.32-.18,3.4,3.4,0,0,1,1.81,1.14,7,7,0,0,0,2.28,1.63c.88.4,1.9.88,3.07,1.44a3.32,3.32,0,0,1,2,2.71,10.39,10.39,0,0,0,.42,2.22,2.28,2.28,0,0,0,.42.6,13.86,13.86,0,0,1,.48,3.19,16.52,16.52,0,0,1-.42,5.41,22.82,22.82,0,0,0-.72,4.51,13.34,13.34,0,0,1-.66,3.66,9.63,9.63,0,0,0-.42,3.85,15.16,15.16,0,0,1,.06,2.95,17.35,17.35,0,0,1-.3,1.74,7.18,7.18,0,0,0-.18,1.62,12.24,12.24,0,0,0,.42,2.59,11.6,11.6,0,0,1,.36,3.19,20.15,20.15,0,0,0,.12,3.06,14.72,14.72,0,0,1,0,3.25A46.45,46.45,0,0,0,422.63,197.42Zm-15.15,34.86a3,3,0,0,1-.18-1.8,5.51,5.51,0,0,1,2-2.52,25.68,25.68,0,0,1,4.45-3c1.77-1,4.17-1.24,7.22-.84a4.26,4.26,0,0,1,3.36,2.52c1.69,2.89.92,5.49-2.28,7.82a10.6,10.6,0,0,1-3.85,1.74,3.88,3.88,0,0,0-2.34,1.08,1.94,1.94,0,0,1-2.11.42,2.61,2.61,0,0,1-1.92-1.5,2.54,2.54,0,0,0-1.44-1.5,6.59,6.59,0,0,1-1.75-1A3.55,3.55,0,0,1,407.48,232.28Z"/><path d="M1009,143.58l-.72-4.45a2.12,2.12,0,0,0-.48-1.62l-1.56-1.39a4.65,4.65,0,0,1-1.32-3.06,31.45,31.45,0,0,1-.12-4.87c.16-2.33.6-6.25,1.32-11.79q-.84-10.34-1.08-13.34-1.34-15.87.72-19.6a5.58,5.58,0,0,1,1-1.44,4,4,0,0,0,.84-3.13c-.32-3,1.24-5,4.69-6.13a19.67,19.67,0,0,0,3-1.2q1.44-.72,3-1.32a7.43,7.43,0,0,1,6,.05,8.77,8.77,0,0,0,5.11,1q2.65-.3,5.41-.72c1.85-.28,3.63-.46,5.36-.55a7,7,0,0,1,4.44,1.21q1.88,1.32,4,2.88a24.23,24.23,0,0,1,3.79,3.49q3.72,4.34,3.12,8.42a13.13,13.13,0,0,1,.85,8.65,3.92,3.92,0,0,0-.12,2.17,7.77,7.77,0,0,1,0,3.84,8,8,0,0,0-.18,3.55,6.76,6.76,0,0,1-.55,3.79,13.94,13.94,0,0,0-1.08,3.61,5.48,5.48,0,0,1-1.2,2.82,3.62,3.62,0,0,1-1.74,1.32,3.47,3.47,0,0,0-1.45.72,3.7,3.7,0,0,0-1,1.15,7.05,7.05,0,0,1-.9,1.32,10.17,10.17,0,0,1-3.73,3,10.89,10.89,0,0,0,3.13,3.54,16.19,16.19,0,0,1,3.07,2.77,4.87,4.87,0,0,1,1.32,2.82,8.87,8.87,0,0,0,.54,2.65,4.5,4.5,0,0,1,.36,2.1c-.08.52-.18,1.08-.3,1.69s-.26,1.24-.42,1.92a8.25,8.25,0,0,0-.18,2.28,6,6,0,0,1-.24,2.17,9.09,9.09,0,0,1-.84,1.8c-.36.6-.79,1.26-1.27,2a13.51,13.51,0,0,0-1.32,2.64,8.91,8.91,0,0,1-2.34,3.43c-1.09,1-1.93,1.8-2.53,2.4a10.62,10.62,0,0,0-1.74,2.47,7.28,7.28,0,0,1-4.33,3.72,3.13,3.13,0,0,1-3.85-1.32q-.72-1.32-2.58-.48c-1.25.56-2.23,1-2.95,1.38a4.48,4.48,0,0,1-2.58.36c-1-.12-2-.28-3-.48a5.8,5.8,0,0,0-3.07.24,5.66,5.66,0,0,1-2.88.3,7.92,7.92,0,0,1-2.41-.84,5.79,5.79,0,0,1-3.12-3.37,20.94,20.94,0,0,1-1-4.5,35.84,35.84,0,0,0-.72-4.33,13.38,13.38,0,0,1-.49-2.83Zm17.08-32.71q0,6.38,2.28,6.38c.8,0,1.52-.58,2.17-1.75a10.06,10.06,0,0,0,1.2-3.3c.08-1,.14-2.11.18-3.19a9.13,9.13,0,0,1,1.56-4.09,5.87,5.87,0,0,0,1-4.57q-.54-2.1-1.86-2.52a6.45,6.45,0,0,1-2.34-1.32A10.44,10.44,0,0,0,1028,95c-.84-.4-1.56-.1-2.16.91a3.46,3.46,0,0,0,0,3.42,10.14,10.14,0,0,1,.6,5.17Q1026.11,107.76,1026.11,110.87Zm3.36,17.32q-2.76-.84-3,2.76c-.16,1.69-.36,3.41-.6,5.17a12.05,12.05,0,0,0-.06,4c.2.88.42,1.85.66,2.89a16.88,16.88,0,0,0,1.44,1.08q.72.48,1.32,1a9.28,9.28,0,0,1,1.39-2.16,8.39,8.39,0,0,0,1.14-1.57,10,10,0,0,0,1.38-4.75,11.53,11.53,0,0,0-.42-4.5Q1031.76,128.9,1029.47,128.19Z"/><path d="M1084.3,88.87l-.6,27.29q0,18.17,5,17.2,4.32-.72,4-15.27,0-4.34.66-5.59a11.44,11.44,0,0,0,.9-2.11,19.79,19.79,0,0,0,.24-6.37c-.16-1.68-.44-4.21-.84-7.57s-.76-6.84-1.08-10.4-.48-6.8-.48-9.68.3-4.69.9-5.41a3.47,3.47,0,0,1,2.28-1.27,11.64,11.64,0,0,1,2.89,0,20.1,20.1,0,0,1,2.88.55,9.47,9.47,0,0,0,2.29.36,9.09,9.09,0,0,0,2.16-.31c.84-.19,1.69-.36,2.53-.48a17,17,0,0,1,2.4-.18,3.18,3.18,0,0,1,2.11.85q1,.84,1.62,4.2a63.52,63.52,0,0,1,1,7.94c.2,3,.3,6.31.3,9.8s0,6.79-.12,9.92q-.48,10.34-.9,12.5a9.69,9.69,0,0,1-1,3.13c-.4.64-.81,1.24-1.21,1.8-.8,1.12-.92,2.73-.36,4.81s1,3.69,1.33,4.81a9.63,9.63,0,0,1,.12,5.41,11.72,11.72,0,0,0-.48,4.69c.4,4.09-.09,7-1.45,8.78a9.77,9.77,0,0,1-3,2.52,15.53,15.53,0,0,0-6,5.53,4,4,0,0,1-2.29,2.29,5.22,5.22,0,0,1-2.16.06l-3.13-.36-3.25-.36a6.21,6.21,0,0,0-2.16,0,2.34,2.34,0,0,0-1.08.72q-.48.54-1.08,1.14-3.26,3.24-6.74-.72c-.48-.56-.94-1.1-1.38-1.63a6.88,6.88,0,0,0-1.26-1.2,8.37,8.37,0,0,0-1.63-.84,11.76,11.76,0,0,1-2.22-1.26q-5.18-3.14-6.49-10.1a73,73,0,0,1-1.2-8.72c-.33-3.56-.59-5.83-.79-6.79a9.14,9.14,0,0,0-1.5-3.19,9.92,9.92,0,0,1-1.56-3.24,8.47,8.47,0,0,1-.12-3.19c.16-1.12.36-2.4.6-3.85a37.28,37.28,0,0,0,.48-10.1,30.56,30.56,0,0,1-.18-6.73,8.64,8.64,0,0,0,.06-3.07,3.86,3.86,0,0,0-.78-1.26,3.39,3.39,0,0,1-.3-2.52,30.15,30.15,0,0,0,.24-3.73V83.94q.36-8.18,2.52-9.86a7,7,0,0,1,3.73-1.44,9.2,9.2,0,0,0,4.51-1.08l2.46-1.57q6-3.36,7.46,4.81A93,93,0,0,1,1084.3,88.87Z"/><path d="M1180.13,158.61q-4,0-3.61-6.74a78.36,78.36,0,0,0,.06-8.05,27,27,0,0,0-1.5-7.34,39.8,39.8,0,0,1-1.81-7,14.91,14.91,0,0,1,.72-6.85,22.26,22.26,0,0,0,.24-11.79,10.2,10.2,0,0,1-.24-2.22,17,17,0,0,0-.12-2.1c-.08-1.53-.48-2.29-1.2-2.29s-1.08.56-1.32,1.68a33.92,33.92,0,0,1-1.68,6.74q-2.65,6.25-2.05,10.34,1.56,6-.24,9.26a5.73,5.73,0,0,1-2,2.28,5.12,5.12,0,0,0-1.57,1.26,3.44,3.44,0,0,0-.3,1.93,3.08,3.08,0,0,1-.66,2.22,3.84,3.84,0,0,0-.9,1.8c-.12.65-.26,1.25-.42,1.81a2.26,2.26,0,0,1-2.65,1.92A3.32,3.32,0,0,1,1156,143a28.8,28.8,0,0,1-1.2-5.29c-.28-2-.57-4-.84-6a10.25,10.25,0,0,0-1.57-4.56,9.65,9.65,0,0,1-1.56-3.13,27.07,27.07,0,0,1-.66-3.25,16.08,16.08,0,0,0-1.57-5.65,15.7,15.7,0,0,1-1.32-5.41,40.29,40.29,0,0,0-.9-5.41q-.42-1.44-1.5-1.44c-.8.08-1.25.68-1.32,1.8a5.58,5.58,0,0,0,.36,2.77,8.14,8.14,0,0,1,.12,3.84,13.52,13.52,0,0,0,.12,4.81c.32,1.37.64,2.59,1,3.67s.6,2.23.84,3.43a19.94,19.94,0,0,1,.54,8.35,45.89,45.89,0,0,0-.78,5.29,3.19,3.19,0,0,1-1.5,2.71,3.59,3.59,0,0,0-1.69,1.74,9.76,9.76,0,0,0-.42,2.05q-.12,1.14-.24,2.4a11.63,11.63,0,0,1-.84,3.07c-1,2.56-1.38,4.45-1,5.65a4.87,4.87,0,0,1-.6,3.85,4,4,0,0,1-3.25,2.22,4.75,4.75,0,0,1-3.37-.78,9.72,9.72,0,0,1-2.22-2.41,22.88,22.88,0,0,1-3.13-14.66c.08-1.21.18-2.41.3-3.61a24.07,24.07,0,0,0-.06-4.45q-.36-6.5-3-10.22a11.67,11.67,0,0,1-2-6.13c-.4-4.17-.16-7.13.73-8.9a8.93,8.93,0,0,0,.6-3.79q0-2.58-.06-3.72a5,5,0,0,1,.12-1.69,8,8,0,0,0,.24-1.92c0-.92.06-2,.06-3.19a27.1,27.1,0,0,0-.84-6,28.68,28.68,0,0,1-.91-4.69,18.13,18.13,0,0,1,.06-3.9c.25-2.89.74-4.93,1.51-6.14a4.66,4.66,0,0,1,2.1-2.1,7.25,7.25,0,0,1,2.17-.3,4.52,4.52,0,0,0,2-.42,18.73,18.73,0,0,1,1.8-.78,5.26,5.26,0,0,1,4-.12,6.44,6.44,0,0,0,3.31.48,22.25,22.25,0,0,0,2.58-.6c2.09-.8,3.67-1,4.75-.6a7.64,7.64,0,0,1,2.95,2,5.66,5.66,0,0,1,1.5,2.34,2.52,2.52,0,0,0,.54,1.27,7.83,7.83,0,0,0,.84.72,3.33,3.33,0,0,1,1,2.64,24.63,24.63,0,0,0,1.45,7.1q2.52,8.42,4.81,9.13.48.12,1.68-.72a4.43,4.43,0,0,0,1.68-2.52,11.91,11.91,0,0,0,.48-4.39,2.91,2.91,0,0,1,.43-2.35,3.1,3.1,0,0,0,.72-1.56q.06-.72.18-1.92a22.49,22.49,0,0,1,.48-2.77,14,14,0,0,1,2.76-6,6.82,6.82,0,0,1,3.73-2.4,14.6,14.6,0,0,1,3.91-.19l4,.37a8.33,8.33,0,0,0,4-.67q5.41-2.4,7.46-.11a3.94,3.94,0,0,0,1.14.84l1,.48a3.08,3.08,0,0,1,1.14,2.22,7.65,7.65,0,0,0,.43,2,11,11,0,0,0,.48,1q1.32,3.12,1.68,10.82.36,12.61-.48,14.43c.56,3.28.28,5.61-.84,7l-.72.72a9.66,9.66,0,0,0-2.65,5.77,5.29,5.29,0,0,0,.06,2.41,6.8,6.8,0,0,1,.3,2c0,.72,0,1.37-.06,1.92s-.06,1.17-.06,1.81a31,31,0,0,0-.06,5.05,7,7,0,0,1,0,2.28,11,11,0,0,1-.42,1.33,6.19,6.19,0,0,0-.36,3.06,4.07,4.07,0,0,1,0,2,10.57,10.57,0,0,1-.6,1.45,10.85,10.85,0,0,0-.78,5.23,22.12,22.12,0,0,1-.24,5.35,22.53,22.53,0,0,0-.42,4.45q-.26,6.38-1.69,5.89-.6-.24-1,.6a9.71,9.71,0,0,0-.72,2.16,1.11,1.11,0,0,1-1.62.91,2.63,2.63,0,0,1-1.75-2,3.69,3.69,0,0,0-1.08-2A3.36,3.36,0,0,0,1180.13,158.61Z"/><path d="M1216.08,161.25q-1.69-.12-3.43-3.61a27.22,27.22,0,0,1-2.4-8.89c-.45-3.61-.75-6.05-.91-7.34a26.32,26.32,0,0,0-.48-2.88,7.91,7.91,0,0,0-1.38-3.19,8.8,8.8,0,0,1-1.26-2.1,31,31,0,0,1-.12-5.41q.24-9.26-.85-12.27a4.66,4.66,0,0,1-.36-2.16,8.83,8.83,0,0,0,.06-1.8,4.9,4.9,0,0,0-.66-2,25.1,25.1,0,0,1-1.2-2.52q-1.92-3.86-1.92-5.29a9,9,0,0,1,1.2-4.09,29.25,29.25,0,0,0,3.07-6.19,17.86,17.86,0,0,0,.36-4.45c0-1.81-.06-3.63-.06-5.47-.17-4.73.24-7.7,1.2-8.9a5,5,0,0,1,2.28-1.32c.88-.24,2-.6,3.37-1.08a20.41,20.41,0,0,1,6.19-1.45,4.84,4.84,0,0,1,3.37,1.14,5,5,0,0,0,2.94,1.33,7.36,7.36,0,0,0,2.35,0l1.14-.3a6.53,6.53,0,0,1,2.41-.6,2.46,2.46,0,0,1,2.28,1.2,21.12,21.12,0,0,0,1.32,2,1.75,1.75,0,0,0,2,.42,9.1,9.1,0,0,1,2.1-.36h1.2a8,8,0,0,0,3.13-.12q2.64-.84,4.09.84a2.34,2.34,0,0,0,1.68,1.21,8.5,8.5,0,0,1,2.28,1,6.38,6.38,0,0,1,3.13,4.21,22.94,22.94,0,0,1,.48,11.42q-.48,2-.78,3.24c-.2.81-.36,1.51-.48,2.11a14,14,0,0,0-.24,1.74c0,.56-.08,1.25-.12,2.05s-.06,1.68-.06,2.64v3.25a56.33,56.33,0,0,0,.24,5.89q.72,6-5.41,8.66a11.16,11.16,0,0,0-2.89,1.56,5.66,5.66,0,0,0-1.44,2.16,17.66,17.66,0,0,1-2.23,3.61,10.8,10.8,0,0,1-4.93,3.43q-3.3,1.26-5.71,2.1a5,5,0,0,0-3,2c-.56,1.05-.7,3.51-.42,7.4a68.46,68.46,0,0,1,.3,7.39,17.35,17.35,0,0,1-.36,2.59,2.56,2.56,0,0,1-1.2,1.62,3.36,3.36,0,0,1-1.69.6,2.27,2.27,0,0,0-1.5.72,14.24,14.24,0,0,0-1.38,1.45,11.05,11.05,0,0,1-1.33,1.32A5.63,5.63,0,0,1,1216.08,161.25Zm8.17-67.33c-.48.48-1,1.89-1.44,4.21a29.06,29.06,0,0,0-.72,5.53,7.87,7.87,0,0,0,.84,3.67,5.43,5.43,0,0,1,.78,2.64c0,.68-.12,1.41-.24,2.17a15,15,0,0,0-.18,2.34c-.16,1.92,0,3.13.48,3.61a1.71,1.71,0,0,0,1.62.54,7.36,7.36,0,0,0,1.87-.66,14.25,14.25,0,0,0,1.74-1,5.74,5.74,0,0,1,1.56-.79,1.81,1.81,0,0,0,1.15-1.08,3.8,3.8,0,0,1,1.08-1.44,3,3,0,0,0,1.14-1.62c.2-.68.4-1.4.6-2.17a3.6,3.6,0,0,0-.06-2.16c-.24-.68-.68-1.7-1.32-3.07a6.45,6.45,0,0,1-.48-3.24c.64-3.37.24-5.69-1.2-7a7.56,7.56,0,0,0-4.63-1.44A4.47,4.47,0,0,0,1224.25,93.92Z"/><path d="M1276.19,122.42,1276,131q0,8.3-3.49,11.06a5.88,5.88,0,0,1-4,1.33,4.2,4.2,0,0,1-2.71-1.33,3.93,3.93,0,0,1-1-2.52,29.13,29.13,0,0,0-.6-4.15c-.36-1.8-.8-3.61-1.32-5.41a15.91,15.91,0,0,1-.54-5.83c.16-2.08.25-4,.3-5.89a6.19,6.19,0,0,0-1-4.09,6.36,6.36,0,0,1-1.44-4.09,6.16,6.16,0,0,1,.48-2.52,17.27,17.27,0,0,0,1.08-5.53c0-1.6,0-2.77-.12-3.49s-.18-1.42-.3-2.1-.26-1.73-.42-3.13a24.07,24.07,0,0,1,0-4.81,31.23,31.23,0,0,0,0-5.47c-.16-1.84-.26-3.33-.3-4.45a11.13,11.13,0,0,1,.78-4,13.48,13.48,0,0,1,1.39-3.06,5.34,5.34,0,0,1,1.86-1.39c.88-.43,1.48-.76,1.8-1a2,2,0,0,1,1.33-.18,3.35,3.35,0,0,1,1.8,1.14,7,7,0,0,0,2.28,1.63c.88.4,1.91.88,3.07,1.44a3.32,3.32,0,0,1,2,2.71,10.39,10.39,0,0,0,.42,2.22,2.28,2.28,0,0,0,.42.6,14.22,14.22,0,0,1,.49,3.19,16.8,16.8,0,0,1-.42,5.41,22.22,22.22,0,0,0-.73,4.51,13.34,13.34,0,0,1-.66,3.66,9.63,9.63,0,0,0-.42,3.85,15.16,15.16,0,0,1,.06,3,17.35,17.35,0,0,1-.3,1.74,7.18,7.18,0,0,0-.18,1.62,12.24,12.24,0,0,0,.42,2.59,11.6,11.6,0,0,1,.36,3.19,20.15,20.15,0,0,0,.12,3.06,14.72,14.72,0,0,1,0,3.25A46.45,46.45,0,0,0,1276.19,122.42ZM1261,157.28a3,3,0,0,1-.18-1.8,5.48,5.48,0,0,1,2-2.52,25.2,25.2,0,0,1,4.44-3c1.77-1,4.17-1.24,7.22-.84a4.29,4.29,0,0,1,3.37,2.52q2.52,4.34-2.29,7.82a10.52,10.52,0,0,1-3.85,1.74,3.88,3.88,0,0,0-2.34,1.08,1.93,1.93,0,0,1-2.11.42,2.61,2.61,0,0,1-1.92-1.5,2.54,2.54,0,0,0-1.44-1.5,6.68,6.68,0,0,1-1.74-1A3.49,3.49,0,0,1,1261,157.28Z"/><path class="cls-8" d="M435,653.06c17.58-17.15,13.39-15.41,58.87,27.34,13.29,12.5,39.52,20.47,61,42.46,19.4,19.9,24.33,44.13,36.08,57,46.61,51.21,48.88,46.8,30.74,64.5-19.86,19.37-24.31,64.68-102.86-8.11-11.32-10.49-16.58-32-31.61-47.44-14.65-15-35.08-19.92-45.2-31.3C367.58,673.88,415,672.56,435,653.06Z"/><path class="cls-2" d="M629.17,851.28C588.16,887,582,893.76,541.22,847c-41.4-47.49-33.22-52,7.78-87.71s63.08-77.54,114.34-18.75C715.91,800.88,670.18,815.53,629.17,851.28Z"/><ellipse class="cls-3" cx="649.11" cy="751.65" rx="9.5" ry="34.5" transform="translate(-334.1 611.59) rotate(-41.08)"/><path class="cls-2" d="M1178,231.72c16.84-18,12.73-16,60.19,24.76,13.88,11.92,40.51,18.74,63,39.81,20.33,19,26.35,43.11,38.69,55.52,49,49.2,51.06,44.69,33.68,63.23-19,20.29-5.9,53.94-87.84-15.47-11.81-10-31-1-49.34-34.16-10.2-18.41-36-18.39-46.68-29.33C1111.4,255.6,1158.83,252.15,1178,231.72Z"/><path class="cls-2" d="M1079.76,240.88c6.63-54.14,6.74-63.32,68.45-55.76,62.7,7.68,59.6,16.49,53,70.63s4.91,100.11-72.72,90.6C1048.84,336.59,1073.12,295,1079.76,240.88Z"/><ellipse class="cls-3" cx="1131.65" cy="328.56" rx="9.53" ry="34.59" transform="translate(667.91 1411.85) rotate(-83.02)"/><path class="cls-2" d="M1383.16,400.74c3.88,1.53.42,3.35-7.76,36-2.39,9.54,6,26,.73,41.68-4.78,14.16-21.09,20.45-24.66,29.15-14.19,34.5-9.46,35.2-33.54,27.07-26.35-8.91-64.48-5.14-51.18-61.38,1.91-8.1,13.36-15.43,19.62-25.18,28.13-43.84-38.58-59.36-30.42-60.27C1282.53,384.87,1357.12,390.44,1383.16,400.74Z"/><path class="cls-2" d="M1498.23,576.72c-82.57-5.61,5.69-38.31,6.35-47.92.59-8.69,233.21-14.76,272.74-5.6,54.58,12.64,70.27,92.92,67.58,97.51C1825.13,654.49,1592.14,583.1,1498.23,576.72Z"/><path class="cls-8" d="M1764.4,577.56c-3.17-54.46-4.7-63.51,57.36-67.12,63.06-3.66,61.59,5.56,64.76,60s22.75,97.61-55.33,102.15C1751.11,677.26,1767.56,632,1764.4,577.56Z"/><ellipse class="cls-3" cx="1831.14" cy="654.53" rx="34.59" ry="9.53" transform="translate(-34.9 107.39) rotate(-3.33)"/><path class="cls-8" d="M1351.63,526.91c18,16.84-4.92,59.41-30.93,33-19.51-19.82-63.44-43.69-55-60.59,1.21-2.43,24.73-7.77,27-9.17C1309.42,479.89,1331.19,507.76,1351.63,526.91Z"/><path class="cls-8" d="M1263.77,432.57c18,16.84-4.92,59.41-30.93,33-19.5-19.82-49.16-39.29-40.73-56.19,1.22-2.43,10.45-12.18,12.73-13.57C1221.56,385.55,1243.34,413.42,1263.77,432.57Z"/><path class="cls-8" d="M1599.16,683.39c20.86,13.08,6.57,59.25-24,38.3-23-15.71-70.65-30.71-65.62-48.91.73-2.62,22.79-12.38,24.75-14.18C1548.72,645.33,1575.43,668.51,1599.16,683.39Z"/><path class="cls-8" d="M1484.83,634.4c13.67,12.81-11.37,53.35-30.92,33-14.67-15.27-38.22-29-28.85-45,1.35-2.31,10.57-12.07,12.72-13.58C1453.6,597.66,1469.28,619.82,1484.83,634.4Z"/><path class="cls-2" d="M1457.29,641.62c-11.11,15.82-8.47,13.62-37.14-3.91-8.38-5.13-17.44-8.3-31-17.79-12.24-8.59-22.83-19.39-30.23-25.17-29.39-22.93-30.82-19.42-19.36-35.75,12.54-17.86,15.39-49.36,64.91-19.78,7.14,4.26,10.44,17.42,19.92,24.08,9.24,6.48,22.13,4.76,28.51,9.91C1499.83,611.11,1469.92,623.62,1457.29,641.62Z"/><path class="cls-2" d="M1445.1,403.4c11.11-10.37-1-21,23.05,2.37,7,6.83,21.84,10.71,33.12,22.79,10.19,10.93,11.76,24.76,17.89,31.88,24.31,28.22,25.86,25.62,14.39,36.32-12.55,11.72-17.55,38-59.24-1.83-6-5.74-7.91-18-15.81-26.47-7.7-8.26-19.29-10.52-24.55-16.8C1395.25,405.5,1432.46,415.19,1445.1,403.4Z"/><path class="cls-2" d="M1585.27,429c.77,24.61-16.71,17.12-35.7,11.76-5.55-1.56-21.32,2.63-30.14-1.23-8-3.49,38.15-65.8,47-68C1585.17,366.94,1584.28,397.5,1585.27,429Z"/><path class="cls-2" d="M1518.34,379.1c-.86,24.61-13.77,33-33.39,35-5.74.58-34.46,4.13-44.08,3.8-8.7-.31,16-81.94,36.13-82.62C1495.19,334.63,1519.32,351.11,1518.34,379.1Z"/><path class="cls-2" d="M1429.08,763.84c-4.68,18.62,8.14,16.08-53.44,2.79-18-3.88-54.38,9.7-84.46,2.15-27.22-6.84-45-22.11-62-26.85-67.31-18.83-61.84-14.29-61.84-34.11,0-129,32.84-42,80.31-20.21,14.15,6.49,40.43,4.2,61.51,9.5,20.55,5.16,28.63,33.62,44,33.72C1439.66,731.39,1434.4,742.65,1429.08,763.84Z"/><path class="cls-8" d="M1480.42,613.56c-9.91,14.12-7.47,12.22-36-5.51-8.34-5.18-20-12.67-33.53-22.17-12.23-8.59-20.22-15-27.66-20.79-29.5-22.76-30.71-19.57-20.48-34.14,11.19-15.94,25.54-46.71,36.17-35.77,5.79,5.95,32.24,31.52,41.71,38.17,9.24,6.49,58,30.14,63.4,36.29C1518.09,585.6,1491.69,597.5,1480.42,613.56Z"/><path class="cls-8" d="M1349,783c-7.86,9.89-5.42,9.06-46.72-22-12.07-9.06-29-22-49-37.81-18-14.31-30.06-24.52-41.18-33.75-44.11-36.59-44.59-33.89-36.49-44.1,8.87-11.17,16.94-36,33.7-20.05,9.14,8.7,26.66,41.68,40.61,52.77,13.61,10.8,105.7,62.12,114.43,70.85C1387,771.55,1357.9,771.71,1349,783Z"/><path class="cls-8" d="M1555.89,463c-6.92,9.85-5,8.68-33.21-9.51-8.24-5.32-19.81-13-33.34-22.45-12.23-8.58-20.34-14.87-27.85-20.51-29.8-22.34-30.43-20-23.29-30.14,7.81-11.13,16.36-33.64,27.48-23.41,6.06,5.58,33.51,29.73,43,36.38,9.24,6.49,56.48,32.27,62.24,37.95C1585.83,446,1563.75,451.78,1555.89,463Z"/><path class="cls-8" d="M1584.8,375c10.14,4,5.27,31.44-9.65,24.66-11.2-5.09-26.88-7.4-25.25-18.14a60.75,60.75,0,0,1,4-10.15C1560.05,361.93,1573.27,370.53,1584.8,375Z"/><path class="cls-8" d="M1498.25,892.61c54.33-4.91,63.33-6.73,68.92,55.19,5.69,62.91-3.58,61.74-57.91,66.65s-96.83,25.86-103.87-52C1398.17,882.53,1443.93,897.52,1498.25,892.61Z"/><ellipse class="cls-3" cx="1423.46" cy="961.79" rx="9.53" ry="34.59" transform="translate(-80.79 132.02) rotate(-5.16)"/><path class="cls-8" d="M1464.44,547.94c24.53-2.22,48.54,25.6,59.17,113.29,3.11,25.63,19.37,58.31,23.28,101.63,3.54,39.19-7.19,69.71-5.57,94.36,6.43,97.79,10.92,95.16-14.39,97.44-27.7,2.51-58.74,47-77.76-103.33-2.73-21.66,6.09-49.59,3.35-79.94-2.67-29.59-3.31-97.11-4.54-118.63C1438.89,494.61,1436.55,550.46,1464.44,547.94Z"/><path class="cls-8" d="M1498.43,326.49c14.24,1,19.56,28.75-1.81,26.42-16-1.76-36.49.41-38.9-10.38-.34-1.55.24-9.39.75-10.87C1462.22,320.82,1482.22,325.38,1498.43,326.49Z"/><path d="M549.43,996.26c28.84-5.72,58.38-13.47,84.47-27.31,14.68-7.79,27.73-18.82,41.06-28.68q21.21-15.69,42.35-31.48c8.56-6.41,18.49-12.44,26.1-20a1.5,1.5,0,0,0-2.13-2.12c-6.39,6.38-14.69,11.46-21.89,16.86q-20.8,15.62-41.73,31.06c-12.67,9.39-25.1,19.78-38.57,28-15.83,9.65-33.67,16-51.37,21.21-12.86,3.82-25.92,7-39.08,9.59-1.9.38-1.09,3.27.79,2.9Z"/><path d="M641.6,1019.12a395.82,395.82,0,0,0,51.74-28.75c11-7.34,21.79-15.41,30.93-25,11.15-11.75,21.06-24.89,31.48-37.29,6.09-7.26,13.44-14.46,18.35-22.62a1.5,1.5,0,0,0-2.59-1.51c-4.19,7-10.42,13.12-15.62,19.31-10.27,12.24-20.33,24.69-30.81,36.76-16.76,19.3-40,33.11-62.29,45.13q-11.19,6-22.7,11.42c-1.75.82-.23,3.4,1.51,2.59Z"/><path d="M563.89,334.78c-29,4.67-58.81,11.37-85.38,24.26-15,7.26-28.4,17.81-42.07,27.19Q414.68,401.16,393,416.17c-8.8,6.1-18.92,11.77-26.8,19.08-1.41,1.32.71,3.44,2.12,2.12,6.62-6.14,15.12-10.91,22.5-16.05q21.35-14.85,42.82-29.53c13-8.93,25.79-18.87,39.56-26.6,16.16-9.07,34.22-14.73,52.1-19.33,13-3.36,26.15-6.05,39.4-8.19,1.9-.3,1.09-3.19-.8-2.89Z"/><path d="M539.27,278.26a401.56,401.56,0,0,0-53.59,24c-11.54,6.29-22.86,13.33-32.81,22-12.33,10.71-23.39,23.18-34.93,34.75-6.86,6.88-15,13.59-20.69,21.5-1.14,1.57,1.46,3.07,2.59,1.52,4.75-6.57,11.53-12.18,17.22-17.89,11.28-11.32,22.36-22.86,33.82-34,18.17-17.63,42.31-29.33,65.28-39.34q11.8-5.14,23.91-9.59c1.8-.66,1-3.56-.8-2.89Z"/><path d="M1042.05,694c15.11,26.37,32.55,53.14,55.23,73.63,11.6,10.47,25.34,18.82,38.14,27.74q21.63,15.1,43.34,30.1c8.71,6,17.48,13.41,27,18.14,1.73.86,3.25-1.73,1.52-2.59-7.57-3.77-14.56-9.59-21.5-14.36q-20.68-14.22-41.26-28.6c-13.34-9.3-27.41-18.07-40.08-28.26-14.68-11.81-26.67-27-37.5-42.3-8-11.29-15.4-23-22.28-35a1.5,1.5,0,0,0-2.59,1.51Z"/><path d="M1049.75,788.61a397.08,397.08,0,0,0,44.19,40.23c10.47,8.07,21.53,15.69,33.59,21.21,14.48,6.63,29.78,11.79,44.61,17.62,8.91,3.5,18.2,8.24,27.6,10.32,1.88.42,2.68-2.48.79-2.89-7.42-1.64-14.72-5.28-21.76-8-14.94-5.85-29.93-11.61-44.85-17.54-24.15-9.62-45-27.44-63.8-45q-9.39-8.76-18.25-18c-1.34-1.4-3.46.73-2.12,2.12Z"/><path d="M1711.72,462.93c-14-26.59-30.22-53.5-51.7-74.73-11.4-11.26-25.2-20.31-38-29.92q-21.09-15.87-42.24-31.64c-8.48-6.31-17-14-26.31-19.1-1.7-.92-3.21,1.67-1.51,2.59,7.43,4,14.2,10.12,21,15.13q20.44,15.15,40.74,30.47c13,9.74,26.73,19,38.93,29.67,14.2,12.44,25.59,28.06,35.87,43.8,7.44,11.4,14.3,23.19,20.64,35.24.9,1.71,3.49.19,2.59-1.51Z"/><path d="M1757.21,421.26a394,394,0,0,0-41-44.19c-9.63-8.8-19.91-17.19-31.29-23.63-14.16-8-29.31-14.6-43.9-21.82-8.28-4.1-16.8-9.38-25.68-12.15-1.84-.57-2.63,2.32-.79,2.9,7.54,2.35,14.79,6.82,21.84,10.3,14.36,7.09,28.83,14,43.1,21.26,22.88,11.65,41.91,31.05,59,49.92q8.6,9.52,16.64,19.54c1.21,1.5,3.32-.63,2.12-2.13Z"/><g class="cls-11"><polygon class="cls-3" points="2291.65 997.37 1734.05 997.37 1590 861.06 1590 44.79 1734.05 38.6 2291.65 -41.95 2291.65 997.37"/><polygon class="cls-12" points="2435.7 997.37 1734.05 997.37 1734.05 26.2 1871.64 -68.28 2277.71 -68.28 2435.7 6.07 2435.7 997.37"/><rect class="cls-13" x="1899.78" y="26.2" width="398.07" height="971.16"/><rect class="cls-13" x="1890.49" y="26.2" width="18.59" height="971.16"/><polygon class="cls-13" points="2297.85 95.91 1890.49 95.91 1890.49 -83.77 2101.95 -164.31 2297.85 -68.28 2297.85 95.91"/><polygon class="cls-3" points="2083.3 -198.17 2101.95 -164.24 1659.99 78.69 1590 44.76 2083.3 -198.17"/><polygon class="cls-12" points="2269.97 1071.71 1901.33 989.62 1901.33 81.97 2269.97 164.06 2269.97 1071.71"/></g></svg>