<svg id="Layer_1" data-name="Layer 1" xmlns="http://www.w3.org/2000/svg" xmlns:xlink="http://www.w3.org/1999/xlink" viewBox="0 0 1920 1080"><defs><style>.cls-1{fill:none;}.cls-2{clip-path:url(#clip-path);}.cls-3{fill:#a67c52;}.cls-4{fill:#c69c6d;}.cls-5{fill:#42210b;}.cls-6{fill:#ff0;}.cls-7{fill:#e6e6e6;}.cls-8{fill:#fff;}.cls-9{fill:#85aa52;}.cls-10{fill:#daec70;}.cls-11{fill:#1b1464;}.cls-12{fill:#fbb03b;}.cls-13{fill:#f2f2f2;}.cls-14{clip-path:url(#clip-path-2);}.cls-15{fill:#999;}</style><clipPath id="clip-path"><rect class="cls-1" x="1941" width="1920" height="1080"/></clipPath><clipPath id="clip-path-2"><rect class="cls-1" width="1920" height="1080"/></clipPath></defs><path d="M1155.45,514.23a8.82,8.82,0,0,1,6.25,3.6c.32.49.64.95,1,1.39a4.74,4.74,0,0,1,.72,1.5,12.15,12.15,0,0,1,.48,5.17,16.22,16.22,0,0,0,.36,5.47c.4,1.4.8,2.75,1.2,4q1.08,3.36-1.32,9c-1.2,3.44-2.69,5.49-4.45,6.13l-2.16.72a11.88,11.88,0,0,1-5.35.78,4.86,4.86,0,0,1-3.07-1.26,7.68,7.68,0,0,1-1.2-7.22,7.08,7.08,0,0,0,0-2.64,2.55,2.55,0,0,0-2.05-2.28,1.76,1.76,0,0,1-1.26-.85q-.3-.6-.48-1a2,2,0,0,0-.36-.6q-.18-.18-1.14.54c-.65.48-1,.74-1.09.78s-.34,0-.78-.18a1.4,1.4,0,0,0-1.26.12,4,4,0,0,0-1.2,1.33c-1.44,2.48-1.73,6.53-.84,12.14.32,1.68.64,3.25,1,4.69a43.8,43.8,0,0,1,.9,7.21,13.44,13.44,0,0,1-.72,3.79c-.44,1.32-.82,2.63-1.14,3.91q-1.44,4.93.36,8.41a40.19,40.19,0,0,0,2.76,5.05,3.05,3.05,0,0,0,2.65.91,3.12,3.12,0,0,0,2.4-1.57,28.07,28.07,0,0,0,1.57-3,30.37,30.37,0,0,1,1.56-3.07,3.15,3.15,0,0,1,2-1.68,10,10,0,0,1,3-.06q1.8.18,2.46.18a2.87,2.87,0,0,1,1.63.78c.64.52,1,1.68,1,3.49s.1,3.24.18,4.32a4.11,4.11,0,0,1-.84,2.89,7.39,7.39,0,0,0-1.27,2.28,12.89,12.89,0,0,0-.42,2,7.65,7.65,0,0,1-.9,3.72,19,19,0,0,1-1.44,2c-.44.52-1.61.78-3.49.78a6.66,6.66,0,0,0-5.11,2.65q-2.28,2.64-4.33,2.34a3.54,3.54,0,0,1-2.88-2.46c-.56-1.29-1.8-2-3.73-2.05A6.39,6.39,0,0,1,1133,598a8.41,8.41,0,0,0-1.68-.48,5.53,5.53,0,0,1-1.93-.78,10.15,10.15,0,0,1-4-4.21,24.3,24.3,0,0,0-1.86-3,20.14,20.14,0,0,1-1.5-2.28,6.31,6.31,0,0,1-1.2-4.57c.48-3.85,0-6.37-1.57-7.57-.88-.56-1.32-1-1.32-1.33a9.25,9.25,0,0,0-.48-2,8.69,8.69,0,0,1,.06-5.05,12.66,12.66,0,0,0,.54-4.75c-.16-1.24-.36-2.54-.6-3.91-.48-3.52-.52-5.85-.12-7a11.64,11.64,0,0,0,.3-4.81c-.2-2.08-.3-3.79-.3-5.11s-.1-3.07-.3-5.23a44.66,44.66,0,0,1-.06-7q.84-9.39,6.37-12.87,8.3-4.92,10.58-4.69a10.26,10.26,0,0,1,1.74.18,4.75,4.75,0,0,0,2-.06,5.33,5.33,0,0,0,1.68-.72,16.88,16.88,0,0,0,1.44-1.08q2.9-2.64,5.17-.6a21.32,21.32,0,0,0,3.37,3.36A11.07,11.07,0,0,0,1155.45,514.23Z"/><path d="M1202,512.67l3.85-.25c2.72,0,4.67.45,5.83,1.33a16.41,16.41,0,0,1,2.65,2.4,21,21,0,0,1,1.62,2.23,12.57,12.57,0,0,0,2,2.34,3.79,3.79,0,0,1,1.27,2.83,3.62,3.62,0,0,0,.9,2.58,4.48,4.48,0,0,1,.9,3.13c0,1.44,0,2.82-.06,4.15a13.59,13.59,0,0,1-.42,3.24,9.15,9.15,0,0,0-.36,2.53,4.8,4.8,0,0,0,.54,2.28c.36.68.4,2.33.12,4.93a68.92,68.92,0,0,1-1.32,7.88,30.45,30.45,0,0,1-2.35,6.85,20,20,0,0,1-9.38,8.54c.4,1,.86,2,1.39,3.18s1,2.35,1.5,3.55a22.57,22.57,0,0,1,1.56,6.43,16.44,16.44,0,0,0,.18,2.89,5.71,5.71,0,0,0,.42,1.38,1.65,1.65,0,0,0,.66.72,11.72,11.72,0,0,1,1.27.9,4.41,4.41,0,0,1,1.32,2.23,11,11,0,0,1,.48,3.24c0,2.57-.3,4.15-.9,4.75a4.6,4.6,0,0,1-1.92,1.2,13.61,13.61,0,0,1-2.11.43c-1.84.24-3,0-3.49-.73a3.08,3.08,0,0,1-1-2,5,5,0,0,0-.42-1.8,1.64,1.64,0,0,0-1.08-1q-.72-.18-1-1.5a3.05,3.05,0,0,0-.84-1.74,3.25,3.25,0,0,0-2.23-.18c-2,.4-3.49-.8-4.45-3.61a20.6,20.6,0,0,1-.72-2.52c-.24-1-.52-2-.84-3-.64-2.32-1.38-3.59-2.22-3.79a1.9,1.9,0,0,0-1.87.3,3.83,3.83,0,0,0-.9,1.63,8.07,8.07,0,0,0-.3,2.28,13.37,13.37,0,0,0,.3,2.71,5.47,5.47,0,0,1,.06,2.4,4.7,4.7,0,0,1-.66,1.56,7.57,7.57,0,0,1-.9,1.09,3,3,0,0,0-1.15,2.4,19.42,19.42,0,0,1-.54,3.13q-.72,3.24-1.92,4.08a5.56,5.56,0,0,1-2.4,1,7,7,0,0,1-2.41-.06c-2-.4-3.25-1.11-3.73-2.11a9.13,9.13,0,0,1-.84-2.28,6.37,6.37,0,0,1-.06-1.5c0-.49.1-1,.18-1.57a10.35,10.35,0,0,0,.06-2,17.31,17.31,0,0,0-.54-3.07,23.4,23.4,0,0,1-.6-4.57l-.12-3.12a3.56,3.56,0,0,1,.84-1.62,3.23,3.23,0,0,0,.54-2.65,2.35,2.35,0,0,0-1.38-1.92c-.72-.28-1.08-.62-1.08-1s.08-1.4.24-3a28.76,28.76,0,0,0-.18-6c-.28-2.41-.46-4.53-.54-6.38-.33-4-1-6.27-2.11-6.79a3,3,0,0,1-1.86-1.92,7,7,0,0,1,0-2.59c.16-1,.34-2.16.54-3.61s.42-2.9.66-4.38.46-2.87.66-4.15.34-2.17.42-2.65a5.4,5.4,0,0,0,.06-1.38q-.06-.66-.06-1.26a11.83,11.83,0,0,1,0-3.37,11.91,11.91,0,0,0,.24-3.91,8,8,0,0,1,.42-3.48,20.55,20.55,0,0,1,1.15-3.31,3,3,0,0,1,1.8-1.44,11,11,0,0,0,2.59-1.38c.84-.61,1.62-1.21,2.34-1.81s1.36-1.16,1.92-1.68a5.14,5.14,0,0,1,2-1.14,10.73,10.73,0,0,1,5.11-.18,7.45,7.45,0,0,1,2.34,1.14,12.61,12.61,0,0,0,1.75,1.2,8.51,8.51,0,0,0,2.16.9,8.3,8.3,0,0,0,2.1.3,7.6,7.6,0,0,1,3.07.66A1.94,1.94,0,0,0,1202,512.67Zm-10,33.54.72,10.94a18.14,18.14,0,0,1-.12,2.11q-.12,1-.24,1.86c-.08,1.2.36,1.92,1.33,2.16a1.81,1.81,0,0,0,1.92-.66,9.3,9.3,0,0,0,1.32-2.46c1-2,1.28-3.29,1-3.85a2,2,0,0,1-.54-2.1c.28-.61.88-1.79,1.81-3.55a34.14,34.14,0,0,0,2-4.57,8.45,8.45,0,0,0,.3-4.15,22.94,22.94,0,0,1-.36-3.06v-1.33a2.28,2.28,0,0,0-.9-1.74A3.57,3.57,0,0,0,1199,535a3.77,3.77,0,0,0-.6-.06,3.25,3.25,0,0,1-2.05-.18,3.81,3.81,0,0,0-1.8-.36,3.36,3.36,0,0,0-1.93,1.14,3.73,3.73,0,0,0-1.2,2.22,14,14,0,0,0,0,2.59A52.41,52.41,0,0,1,1192,546.21Z"/><path d="M1235.05,600.56a4.29,4.29,0,0,1-2.71-.18,3.46,3.46,0,0,1-2.1-2,12,12,0,0,1-.78-3.49,27.17,27.17,0,0,1-.06-4.26c.07-1.53.12-3,.12-4.45,0-3.21-.53-5.25-1.57-6.13q-3.24-2.41-2.64-12.27c.4-3.77.84-6.77,1.32-9a42.25,42.25,0,0,0,1.14-9.37,41.78,41.78,0,0,1,.24-6,25.84,25.84,0,0,1,.72-3.6c.28-1,.62-2,1-3a25.09,25.09,0,0,0,1.08-5.17q1.2-9,2.16-11.18a61,61,0,0,1,3.19-6.19,19.14,19.14,0,0,1,3.06-4.27c1.85-1.36,4.49-1.48,7.94-.36a15.2,15.2,0,0,0,7.15.84,30.75,30.75,0,0,1,5.05-.42,8.54,8.54,0,0,1,3.91,1.32,10.34,10.34,0,0,1,3.37,3,11,11,0,0,1,1.68,3.79,24.53,24.53,0,0,1,.12,8.83,48.24,48.24,0,0,0-.54,8.66,18.24,18.24,0,0,0,1.44,6.25,33.47,33.47,0,0,1,1.69,4.69c.28,1.16.52,2.33.72,3.49s.36,2.4.48,3.72a38.12,38.12,0,0,0,.72,4.51,25.33,25.33,0,0,1,.6,4,15.65,15.65,0,0,1-.06,2.47,17.35,17.35,0,0,1-.3,1.74,6.45,6.45,0,0,0,.12,2.4,10.56,10.56,0,0,1,0,3.55c-.2,1.28-.42,2.53-.66,3.73q-1.32,5.54-1.08,7.81a17.11,17.11,0,0,1,0,5.83,29.56,29.56,0,0,1-.9,2.83,30.28,30.28,0,0,0-1,3,7.51,7.51,0,0,1-2.22,3.48c-1.12,1-2.19,1.36-3.19,1a3.1,3.1,0,0,1-1.92-1.74,22.66,22.66,0,0,1-.72-2.34,13.79,13.79,0,0,0-.72-2.17,1.76,1.76,0,0,0-1.51-1.08,2.13,2.13,0,0,1-2-2.22,19.69,19.69,0,0,1,.06-3.49,8.91,8.91,0,0,0-.18-3.07,10.71,10.71,0,0,0-1.2-3q-2.17-3.74-5-4.09-4.33-.6-6,4.21a16.6,16.6,0,0,0-.55,3.18,9.84,9.84,0,0,1-1,3.55,14.06,14.06,0,0,1-1.68,2.65q-.9,1.08-1.68,2a4.48,4.48,0,0,0-1,2.22C1238.49,598.11,1237.13,600.07,1235.05,600.56Zm10.7-50.38q-2.41,6.5-.6,10.34a3.84,3.84,0,0,0,3.12,2.28c2.33.24,3.71.06,4.15-.54s1-1.24,1.56-1.92a3.92,3.92,0,0,0,.66-3.13c-.16-1.4-.28-2.64-.36-3.73a10,10,0,0,0-1.14-3.66,14.8,14.8,0,0,1-1.38-4.39c-.24-1.56-.4-3.07-.48-4.51q-.48-4.81-2.17-4.81a1.44,1.44,0,0,0-1.5,1.26,19.89,19.89,0,0,0-.42,3.31A27.84,27.84,0,0,1,1245.75,550.18Z"/><path d="M1324.08,529a2.91,2.91,0,0,1,.18,1.56,8.18,8.18,0,0,1-1.68,2.88,9,9,0,0,0-1.87,4.39,19.36,19.36,0,0,0-.18,3.85,13.91,13.91,0,0,1,0,2.59,3.8,3.8,0,0,1-2.88,3.6c-1.61.65-2.85.6-3.73-.12a8.18,8.18,0,0,1-2.17-2.82,26.14,26.14,0,0,1-1.26-3q-.42-1.26-1.38-1.38a3,3,0,0,0-2.59.36,17.41,17.41,0,0,0-1.38,1.2,5.4,5.4,0,0,1-2,1.33,8.81,8.81,0,0,0-1.62.72,2.67,2.67,0,0,0-1,2.76q.48,3.74,8.3,11.3,1.44,1.46,3.43,3.13a38.09,38.09,0,0,1,3.9,3.85,20,20,0,0,1,4.81,11.66,22.27,22.27,0,0,1-1.92,11.54c-1.28,2.65-2.81,4.37-4.57,5.17a5.78,5.78,0,0,0-2.77,2.83q-.72,1.74-1.08,2.52a2.93,2.93,0,0,1-1.5,1.32,5,5,0,0,1-2.59.43,11.54,11.54,0,0,1-2.7-.55,15.61,15.61,0,0,1-2.29-1,6.2,6.2,0,0,0-1.68-.66,1.44,1.44,0,0,0-1.26.42q-.6.54-1.2,1.14c-1.21,1.21-2.29,1.67-3.25,1.39a21.26,21.26,0,0,1-3.37-1.39,21,21,0,0,1-3.72-2.4q-6.49-5.05-4.45-10.34a12.57,12.57,0,0,1,2.94-4.93,4.62,4.62,0,0,1,2.59-1.44,2.1,2.1,0,0,1,2.1,1.14l.9,1.92a4.26,4.26,0,0,0,.85,1.27,5.4,5.4,0,0,0,1.5,1,6.75,6.75,0,0,0,2.22.6,4.52,4.52,0,0,0,4.57-2.41,9,9,0,0,0,1.21-5.77c-.57-3.76-1.37-5.37-2.41-4.81a3.37,3.37,0,0,1-3.25.06q-1.92-.78-2-2a12.74,12.74,0,0,0-.48-2.46,19.33,19.33,0,0,0-.84-2.29c-.72-1.84-1.37-2.84-1.93-3a11.06,11.06,0,0,0-2.58-.24c-1.08,0-2.27-.7-3.55-2.1a12.32,12.32,0,0,1-2.76-5.29c-.57-2.12-1-4-1.45-5.53s-.76-2.78-1.08-3.67a27.81,27.81,0,0,1-.84-2.76q-1.2-4.57-.12-11.79a21.06,21.06,0,0,1,2.64-7.39,70.2,70.2,0,0,1,4.33-6.31q4.58-6.13,8.42-8.54c2.56-1.6,4.53-1.76,5.89-.48a4.76,4.76,0,0,0,3.91,1.26,24.2,24.2,0,0,0,3.31-.66l2.16-.48a8.13,8.13,0,0,1,4.15.12q2.1.6,3.78,4.09a22.25,22.25,0,0,0,1.75,3.12c.6.89,1.18,1.73,1.74,2.53a14.13,14.13,0,0,1,2.11,4.75,7.2,7.2,0,0,0,.84,2.7A10.69,10.69,0,0,1,1324.08,529Z"/><path d="M1360.33,584l.12-9.13v-3c0-2.4-.24-3.93-.72-4.57a3.6,3.6,0,0,0-3.37-1.62,4.08,4.08,0,0,0-3.31,1.38,6.14,6.14,0,0,0-1.2,3.25q-.18,1.92-.24,4.2c0,1.53-.06,3.17-.06,4.93a58.76,58.76,0,0,0,.06,8.18,10.39,10.39,0,0,1,0,3.67,3.94,3.94,0,0,1-1.26,1.56,5.78,5.78,0,0,0-1.56,2,27.84,27.84,0,0,0-1.09,2.59c-1,2.08-2,3.17-3,3.25q-4.7.48-8.06-5a11.13,11.13,0,0,0-1.92-2.53c-1.68-1.84-2-4.81-1-8.9a29.08,29.08,0,0,0,.6-6,27.9,27.9,0,0,0-.24-4.39,9,9,0,0,1,0-2.94,4.93,4.93,0,0,0-.36-2.89,6.29,6.29,0,0,1-.42-3.3,10,10,0,0,0-.24-3.55,5.57,5.57,0,0,1-.18-2.71,2.29,2.29,0,0,0-.31-1.92,2.83,2.83,0,0,1-.36-2.1c.12-.92.22-1.91.3-3,.24-2.88-.12-5.09-1.08-6.61a24.91,24.91,0,0,1-2.46-5.29,11.61,11.61,0,0,1,.3-7.22,33.7,33.7,0,0,0,1.2-14.06,8.72,8.72,0,0,1,.84-4.45q1.56-4,10.22-4.45a22.94,22.94,0,0,0,5-.72,8.83,8.83,0,0,1,4.45-.06,3.21,3.21,0,0,1,2.59,2.82,20.15,20.15,0,0,0,.66,3.13,8.61,8.61,0,0,1,.42,1.68,15.66,15.66,0,0,1-.48,5,38.85,38.85,0,0,0-.85,5.77c-.08,1.57-.12,3.07-.12,4.51a25.62,25.62,0,0,1-.42,7.52,7.42,7.42,0,0,0-.42,3.36,3.6,3.6,0,0,0,1,1.87c1.61,1.44,3.81,1.28,6.62-.48a3.24,3.24,0,0,0,1.08-1.21,56.07,56.07,0,0,1-.72-8.29q-.12-7.34-.48-11.49a27.5,27.5,0,0,1,.12-6.91,10.83,10.83,0,0,1,2.52-5.17c1.36-1.6,2.63-2.3,3.79-2.1a5.27,5.27,0,0,1,2.89,1.44,2.66,2.66,0,0,0,2.1,1,7.23,7.23,0,0,0,2.65-1.2q4.44-2.64,8.29,3.25-1.2,1.2-.66,4.39a12.18,12.18,0,0,1,.18,4.56,20,20,0,0,0-.48,3.85c-.08,1.64-.14,3.23-.18,4.75a47.47,47.47,0,0,1-.66,6,45,45,0,0,0-.12,11.91,62.77,62.77,0,0,1,.24,12.14,60.06,60.06,0,0,0-.24,9,14.63,14.63,0,0,1-.18,4.81c-.28.8-.59,1.6-.9,2.4a17.84,17.84,0,0,0-2,7.09c-.16,2-.28,4-.36,6a32.09,32.09,0,0,1-.6,5.23c-.72,3.44-2.37,5.17-4.93,5.17q-4.33,0-4.93-6.62a9.37,9.37,0,0,1-4.51-2.88C1360.67,589.57,1360.17,587.25,1360.33,584Z"/><path d="M1404.57,562.08l-.24,8.54q0,8.29-3.48,11.06a6,6,0,0,1-4,1.32,4.27,4.27,0,0,1-2.71-1.32,3.94,3.94,0,0,1-1-2.53,29,29,0,0,0-.6-4.14q-.54-2.71-1.32-5.41a16.43,16.43,0,0,1-.54-5.84q.24-3.12.3-5.89a6.16,6.16,0,0,0-1-4.08,6.36,6.36,0,0,1-1.45-4.09,6.21,6.21,0,0,1,.48-2.53,16.94,16.94,0,0,0,1.09-5.53c0-1.6,0-2.76-.12-3.49s-.18-1.42-.3-2.1-.27-1.72-.43-3.13a24,24,0,0,1,0-4.8,31.34,31.34,0,0,0,0-5.48q-.24-2.76-.3-4.44a10.89,10.89,0,0,1,.79-4,13.74,13.74,0,0,1,1.38-3.07,5.21,5.21,0,0,1,1.86-1.38q1.32-.66,1.8-1a2,2,0,0,1,1.33-.18,3.29,3.29,0,0,1,1.8,1.14,7.1,7.1,0,0,0,2.29,1.62c.88.4,1.9.89,3.06,1.45a3.35,3.35,0,0,1,2,2.7,9.74,9.74,0,0,0,.42,2.22,2.19,2.19,0,0,0,.42.61,13.84,13.84,0,0,1,.48,3.18,16.5,16.5,0,0,1-.42,5.41,23,23,0,0,0-.72,4.51,13.82,13.82,0,0,1-.67,3.67,9.59,9.59,0,0,0-.42,3.85,15.06,15.06,0,0,1,.06,2.94,16.86,16.86,0,0,1-.3,1.74,7.34,7.34,0,0,0-.18,1.63,12.27,12.27,0,0,0,.42,2.58,11.68,11.68,0,0,1,.36,3.19,20.33,20.33,0,0,0,.12,3.07,13.51,13.51,0,0,1,0,3.24A46.59,46.59,0,0,0,1404.57,562.08ZM1389.42,597a3.07,3.07,0,0,1-.18-1.81,5.55,5.55,0,0,1,2-2.52,25.47,25.47,0,0,1,4.45-3q2.64-1.44,7.21-.84a4.29,4.29,0,0,1,3.37,2.53q2.52,4.32-2.29,7.81a10.61,10.61,0,0,1-3.84,1.75,3.83,3.83,0,0,0-2.35,1.08,1.94,1.94,0,0,1-2.1.42,2.6,2.6,0,0,1-1.93-1.5,2.53,2.53,0,0,0-1.44-1.51,6.68,6.68,0,0,1-1.74-1A3.61,3.61,0,0,1,1389.42,597Z"/><g class="cls-2"><polygon class="cls-3" points="2292.65 997.37 1735.05 997.37 1591 861.06 1591 44.79 1735.05 38.6 2292.65 -41.95 2292.65 997.37"/><polygon class="cls-4" points="2436.7 997.37 1735.05 997.37 1735.05 26.2 1872.64 -68.28 2278.71 -68.28 2436.7 6.07 2436.7 997.37"/><rect class="cls-5" x="1900.78" y="26.2" width="398.07" height="971.16"/><rect class="cls-5" x="1891.49" y="26.2" width="18.59" height="971.16"/><polygon class="cls-5" points="2298.85 95.91 1891.49 95.91 1891.49 -83.77 2102.95 -164.31 2298.85 -68.28 2298.85 95.91"/><polygon class="cls-3" points="2084.3 -198.17 2102.95 -164.24 1660.99 78.69 1591 44.76 2084.3 -198.17"/><polygon class="cls-4" points="2270.97 1071.71 1902.33 989.62 1902.33 81.97 2270.97 164.06 2270.97 1071.71"/></g><polygon class="cls-6" points="1493.33 591.99 1416.45 565.32 1485.53 614.01 1431.48 627.38 1497.19 626.56 1466.78 657.27 1521.65 624.68 1482.57 681.77 1538.88 640.91 1520.02 711.3 1573.96 654.03 1567.52 719.59 1599.69 657.01 1603.21 720.52 1630.38 649.44 1661.33 691.56 1663.6 630.16 1696.7 636.35 1673.53 616.01 1709 589.65 1677.21 592.68 1676.33 568.94 1649.75 592.76 1645.18 551.14 1622.87 594.13 1599.34 566.97 1593.32 596.08 1565.37 561.08 1554.16 596.51 1514.13 535.13 1519.39 584.66 1458.81 517.49 1493.33 591.99"/><path class="cls-7" d="M1441.46,275.88c12.16-8.36,9.5-7.76,32,22.19,6.59,8.75,21.31,16.15,31.76,31.35,9.45,13.75,9.9,28.6,15.53,37.44,22.36,35.06,24.15,32.68,11.61,41.3-13.73,9.44-10.35,30.81-49.41-20.29-5.63-7.36-18-4.57-24.5-26.3-3.61-12.08-18.73-15.37-23.56-23.14C1399.45,281.33,1427.64,285.38,1441.46,275.88Z"/><path class="cls-7" d="M1382.82,268.66c10.81-30.83,12-36.18,47.19-23.86,35.7,12.52,32.76,17.28,22,48.11s-9.94,59.2-54.15,43.7C1352.48,320.71,1372,299.49,1382.82,268.66Z"/><ellipse class="cls-3" cx="1401.96" cy="326.6" rx="5.71" ry="20.72" transform="translate(629.83 1541.5) rotate(-70.68)"/><path class="cls-7" d="M1537.91,396c2.45-.49,1.3,1.55,7.8,20.63,1.9,5.57,11.49,11.13,13.92,20.72,2.2,8.68-4,17.15-2.93,22.69,4.08,22,6.68,20.78-8.07,24.51-16.15,4.09-34.11,18.38-45.7-14.23-1.67-4.7,1.71-12.11,1.68-19-.1-31.2-1.42-41.16,2.39-44.27C1519.41,396.88,1521.46,399.27,1537.91,396Z"/><path class="cls-7" d="M1611.19,499.32c-34.06,36-15.53-17.24-19.72-21.2-3.79-3.58,82.07-113.37,101.36-128.14,26.65-20.4,69.71,2.94,70.81,5.94C1771.71,377.93,1649.93,458.36,1611.19,499.32Z"/><path class="cls-7" d="M1847.51,418.14c-10.81-10-8.22-9.11-36.84,19.38-8.37,8.32-24.76,14.33-38.27,28.9-12.23,13.19-15.48,28.52-22.89,37.05-29.39,33.8-40,45-36.68,49.89,16.41,24.23,31.73,31.06,81.16-17.48,7.12-7,10.55-20.66,20-30.87,9.23-10,22-13.81,28.37-21.32C1889.3,428.52,1859.81,429.54,1847.51,418.14Z"/><path class="cls-8" d="M1446,965l278.34-.07c4.64,1.36,10.13-3.29,12.2-10.34l19.42-185c2.07-7.05,0-13.93-4.66-15.29L1627.75,737l-58.89-85.63-13.59,75.49-29.81-4.18c-4.64-1.36-10.13,3.29-12.2,10.34l-71.94,216.7C1439.25,956.75,1441.35,963.64,1446,965Z"/><path d="M1726,966.16a6.74,6.74,0,0,1-1.78-.23l-278.34.07-.14,0c-2.58-.76-4.54-3-5.53-6.18a18.41,18.41,0,0,1,.18-10.36l72-216.73c2.21-7.53,8.19-12.47,13.36-11l28.79,4,13.85-76.93,60,87.27L1751.5,753.3l.07,0c5.16,1.51,7.56,8.88,5.37,16.45l-19.43,185,0,.09C1735.53,961.54,1730.64,966.16,1726,966.16Zm-1.5-2.23.14,0c4,1.19,9-3.2,10.93-9.58l19.43-185,0-.09c1.88-6.39.09-12.79-3.92-14l-123.9-17.35-.25-.36-57.51-83.63-13.32,74-30.91-4.34c-4-1.18-9.07,3.24-11,9.67l-72,216.73a16.23,16.23,0,0,0-.17,9.17c.76,2.51,2.19,4.21,4,4.81Z"/><path d="M663.34,74.44a22.58,22.58,0,0,1,1-6.54,30.82,30.82,0,0,1,2.37-5.83,15.44,15.44,0,0,1,3.44-4.38,6.38,6.38,0,0,1,4.24-1.8,5.93,5.93,0,0,1,3.13,1A3.56,3.56,0,0,1,679,59.05a16.44,16.44,0,0,1,.44,4.36,31.89,31.89,0,0,1-1.27,7.67,24.25,24.25,0,0,1-3.38,7.7A8.89,8.89,0,0,1,672,81.43a6.68,6.68,0,0,1-3.16,1,5.86,5.86,0,0,1-2.93-.72C664.19,80.82,663.34,78.4,663.34,74.44Zm4-6a21.77,21.77,0,0,0-1,6.07,9.84,9.84,0,0,0,.64,4.12c.43.93,1,1.39,1.68,1.39A4.16,4.16,0,0,0,672,78.09a27.66,27.66,0,0,0,3.38-7.7,21.84,21.84,0,0,0,1.1-8.29c-.26-2.17-1-3.26-2.25-3.26a4.43,4.43,0,0,0-3.53,2A23.85,23.85,0,0,0,667.31,68.39Z"/><path d="M680.55,82.24h-1.08a.43.43,0,0,1-.4-.29.83.83,0,0,1,0-.64l6.61-25.59a1.09,1.09,0,0,1,1.16-.8h.87q1,0,.84.87l-3.78,13.94-.94,3.77,3.36-5.62a11.31,11.31,0,0,1,2.48-2.94,3.83,3.83,0,0,1,2.18-1h.75a1.73,1.73,0,0,1,.89.19A1.47,1.47,0,0,1,694,65a3.84,3.84,0,0,1-.21,2l-4,14.68a.56.56,0,0,1-.58.51H687.3c-.37,0-.47-.29-.3-.86L690.81,69a6.65,6.65,0,0,0,.26-1.27c0-.21-.08-.31-.24-.31a.94.94,0,0,0-.58.33,8,8,0,0,0-.92,1.2c-.43.67-1,1.53-1.61,2.56L686,74.24c-.49.76-1.18,1.86-2.07,3.27s-1.71,2.84-2.45,4.27A1.06,1.06,0,0,1,680.55,82.24Z"/><path d="M709.74,58.41,708.32,64h1.86c.53,0,.71.26.55.78l-.25.92a1,1,0,0,1-1,.78h-1.86l-3.82,15a1,1,0,0,1-1.09.79h-.66a1,1,0,0,1-.82-.32,1,1,0,0,1-.13-.84l3.74-14.64h-1.44c-.48,0-.63-.28-.46-.85l.28-1a.81.81,0,0,1,.79-.67h1.44L707,58.37a1,1,0,0,1,1.08-.79h.91C709.61,57.58,709.88,57.85,709.74,58.41Z"/><path d="M710.55,82.24h-1.07a.45.45,0,0,1-.41-.29.83.83,0,0,1,0-.64l6.61-25.59a1.08,1.08,0,0,1,1.15-.8h.88q1,0,.84.87l-3.78,13.94-1,3.77,3.37-5.62a11.29,11.29,0,0,1,2.47-2.94,3.86,3.86,0,0,1,2.18-1h.76a1.76,1.76,0,0,1,.89.19A1.47,1.47,0,0,1,724,65a3.72,3.72,0,0,1-.2,2l-4,14.68a.56.56,0,0,1-.59.51h-1.88c-.37,0-.47-.29-.31-.86L720.81,69a6.18,6.18,0,0,0,.27-1.27c0-.21-.08-.31-.24-.31a.94.94,0,0,0-.58.33,7.38,7.38,0,0,0-.92,1.2c-.43.67-1,1.53-1.61,2.56L716,74.24c-.49.76-1.19,1.86-2.08,3.27s-1.71,2.84-2.44,4.27A1.08,1.08,0,0,1,710.55,82.24Z"/><path d="M731.15,64.72l-4.36,16.73a1,1,0,0,1-1.07.79h-1.06c-.68,0-.94-.28-.8-.83l4.39-16.73a.92.92,0,0,1,1-.72h1.19a.87.87,0,0,1,.63.16C731.19,64.22,731.21,64.42,731.15,64.72Zm-.66-6.25h.33a1.52,1.52,0,0,1,1.11.55,1.77,1.77,0,0,1,.51,1.25,1.59,1.59,0,0,1-.53,1.2,1.81,1.81,0,0,1-1.32.5h-.28a1.47,1.47,0,0,1-1.1-.52,1.78,1.78,0,0,1,0-2.45A1.66,1.66,0,0,1,730.49,58.47Z"/><path d="M738.31,63.73h.54a3.33,3.33,0,0,1,2.27.93,7.17,7.17,0,0,1,1.69,2.27.77.77,0,0,1-.25,1.13l-1.09.61c-.5.36-.86.29-1.07-.19,0,0-.12-.27-.29-.68a7.77,7.77,0,0,0-.41-.85,2.28,2.28,0,0,0-.56-.58,2,2,0,0,0-.9-.41,3,3,0,0,0-1.71,1.21,4.48,4.48,0,0,0-.8,2.87,1.32,1.32,0,0,0,.38,1.1,3.52,3.52,0,0,0,1.37.53l1,.21q2.19.48,2.19,3.66a9.23,9.23,0,0,1-1.4,4.38,6.24,6.24,0,0,1-1.83,2,4.32,4.32,0,0,1-2.52.81h-.26a3.56,3.56,0,0,1-2.44-1,6,6,0,0,1-1.52-2c-.29-.67-.29-1.17,0-1.51l.8-.66a1,1,0,0,1,.8-.34c.28,0,.48.24.58.64a4.07,4.07,0,0,0,.88,1.45,2.08,2.08,0,0,0,1.34.89A2.87,2.87,0,0,0,737,78.93a4.21,4.21,0,0,0,.79-2.54,4.07,4.07,0,0,0-.26-1.83,2,2,0,0,0-1.24-.61l-.8-.18a3.11,3.11,0,0,1-1.94-1.17,3.9,3.9,0,0,1-.57-2.25,7.13,7.13,0,0,1,1.67-4.48A4.69,4.69,0,0,1,738.31,63.73Z"/><path d="M756,64.72l-4.36,16.73a1,1,0,0,1-1.08.79h-1.06c-.67,0-.93-.28-.79-.83l4.39-16.73a.91.91,0,0,1,1-.72h1.2a.9.9,0,0,1,.63.16C756.05,64.22,756.07,64.42,756,64.72Zm-.67-6.25h.34a1.51,1.51,0,0,1,1.1.55,1.77,1.77,0,0,1,.51,1.25,1.58,1.58,0,0,1-.52,1.2,1.81,1.81,0,0,1-1.32.5h-.28a1.45,1.45,0,0,1-1.1-.52,1.73,1.73,0,0,1-.49-1.22,1.71,1.71,0,0,1,.51-1.23A1.65,1.65,0,0,1,755.34,58.47Z"/><path d="M763.17,63.73h.54a3.33,3.33,0,0,1,2.27.93,7.33,7.33,0,0,1,1.69,2.27.78.78,0,0,1-.25,1.13l-1.09.61c-.5.36-.86.29-1.07-.19,0,0-.12-.27-.29-.68a6,6,0,0,0-.42-.85,2.22,2.22,0,0,0-.55-.58,2,2,0,0,0-.91-.41,3.09,3.09,0,0,0-1.71,1.21,4.54,4.54,0,0,0-.8,2.87,1.32,1.32,0,0,0,.39,1.1,3.46,3.46,0,0,0,1.36.53l1,.21c1.47.32,2.2,1.54,2.2,3.66a9.15,9.15,0,0,1-1.41,4.38,6,6,0,0,1-1.83,2,4.29,4.29,0,0,1-2.51.81h-.26a3.59,3.59,0,0,1-2.45-1,6,6,0,0,1-1.51-2c-.29-.67-.29-1.17,0-1.51l.79-.66a1,1,0,0,1,.8-.34c.29,0,.48.24.59.64a4.07,4.07,0,0,0,.88,1.45,2.06,2.06,0,0,0,1.33.89,2.89,2.89,0,0,0,1.87-1.29,4.21,4.21,0,0,0,.79-2.54,3.89,3.89,0,0,0-.27-1.83,2,2,0,0,0-1.23-.61l-.8-.18a3.11,3.11,0,0,1-1.94-1.17,3.83,3.83,0,0,1-.58-2.25,7.19,7.19,0,0,1,1.67-4.48A4.72,4.72,0,0,1,763.17,63.73Z"/><path d="M781.15,63.73h.54a3.33,3.33,0,0,1,2.27.93,7.33,7.33,0,0,1,1.69,2.27.78.78,0,0,1-.25,1.13l-1.09.61c-.5.36-.86.29-1.07-.19,0,0-.12-.27-.29-.68a7.77,7.77,0,0,0-.41-.85,2.28,2.28,0,0,0-.56-.58,2,2,0,0,0-.9-.41,3,3,0,0,0-1.71,1.21,4.48,4.48,0,0,0-.81,2.87,1.32,1.32,0,0,0,.39,1.1,3.45,3.45,0,0,0,1.37.53l1,.21c1.47.32,2.2,1.54,2.2,3.66a9.15,9.15,0,0,1-1.41,4.38,6.09,6.09,0,0,1-1.82,2,4.34,4.34,0,0,1-2.52.81h-.26a3.59,3.59,0,0,1-2.45-1,6.15,6.15,0,0,1-1.51-2c-.29-.67-.29-1.17,0-1.51l.79-.66a1,1,0,0,1,.8-.34c.29,0,.49.24.59.64a4.07,4.07,0,0,0,.88,1.45,2.08,2.08,0,0,0,1.34.89,2.89,2.89,0,0,0,1.86-1.29,4.21,4.21,0,0,0,.79-2.54,3.89,3.89,0,0,0-.27-1.83A2,2,0,0,0,779.1,74l-.8-.18a3.11,3.11,0,0,1-1.94-1.17,3.9,3.9,0,0,1-.57-2.25,7.13,7.13,0,0,1,1.67-4.48A4.69,4.69,0,0,1,781.15,63.73Z"/><path d="M797.14,66c.39.41.44.79.14,1.13l-.59.68c-.41.46-.78.52-1.09.18l-.39-.44c-.87-.88-1.55-1.26-2.06-1.14-.86.16-1.78,1.08-2.74,2.77a19.35,19.35,0,0,0-2.07,5.2,11.35,11.35,0,0,0-.3,4.47,1.19,1.19,0,0,0,.67.8,1.36,1.36,0,0,0,.91.29A8.68,8.68,0,0,0,792,77.74c.27-.36.65-.39,1.16-.07l.54.35c.77.46.11,1.52-2,3.18a6.14,6.14,0,0,1-2,1.31,3.33,3.33,0,0,1-2.18-.53,3.9,3.9,0,0,1-1.81-1.46q-1-2.2,0-6.25a20.07,20.07,0,0,1,2.39-6.2,15.1,15.1,0,0,1,2.77-3.26,4,4,0,0,1,2.92-1A5.52,5.52,0,0,1,797.14,66Z"/><path d="M806.44,64.68c.1-.56.37-.84.83-.84l.82,0c.88,0,1.21.46,1,1.3l-4.32,14.38A10.64,10.64,0,0,0,807,77.09c.27-.39.57-.47.9-.25l.88.59a.56.56,0,0,1,.17.9,20.09,20.09,0,0,1-2.71,2.7,7.48,7.48,0,0,1-3,1.35.53.53,0,0,1-.65-.39l-.67-2a8.6,8.6,0,0,1-1.74,1.85,2.23,2.23,0,0,1-1.11.51H799a1.84,1.84,0,0,1-.88-.42A5.81,5.81,0,0,1,797,80.85a4.06,4.06,0,0,1-.84-1.46,7.35,7.35,0,0,1,0-2.87,31.23,31.23,0,0,1,1.64-5.83,15.29,15.29,0,0,1,2.78-5.22A4.67,4.67,0,0,1,804.16,64,4.41,4.41,0,0,1,806.44,64.68Zm-.54,1.9q-1.92-1-3.12,0a10.34,10.34,0,0,0-2.36,4.21,34,34,0,0,0-1.49,5,10.81,10.81,0,0,0-.29,2.46,1.09,1.09,0,0,0,.63,1c.39.2,1-.2,1.93-1.19a13.15,13.15,0,0,0,2.35-4.07C804.22,72.2,805,69.75,805.9,66.58Z"/><path d="M815.4,68.78a32,32,0,0,1,2.12-3.1,9.25,9.25,0,0,1,1.42-1.54,3,3,0,0,1,1.58-.3h.35c.7,0,.94.27.72.8a3.33,3.33,0,0,1-.88,1.06,18.84,18.84,0,0,0-1.91,2.16,5.11,5.11,0,0,0-1.2,2,2.4,2.4,0,0,0,.9,1.77.31.31,0,0,1,.12.38.47.47,0,0,1-.37.27l-1.37.25a1.14,1.14,0,0,1-.89-.12,6.57,6.57,0,0,1-1.06-1.63l-2.76,10.68a1,1,0,0,1-1.09.79H810c-.68,0-.95-.28-.79-.83l4.39-16.73a.91.91,0,0,1,1-.72h1.11a.87.87,0,0,1,.63.16q.17.15.06.6Z"/><path d="M832.45,64h1.36c.15,0,.27.09.37.28a.87.87,0,0,1,0,.64L828.92,84c-.57,2.22-1.51,3.68-2.83,4.4a10.68,10.68,0,0,1-1.16.58c-.48.21-1.18,0-2.1-.55l-3.68-2.07a.79.79,0,0,1-.51-.64.81.81,0,0,1,.21-.66l.55-.76a.94.94,0,0,1,1.19-.3l4,2.46c.53.29.93,0,1.2-1l3.41-12.36-.82,1.59-2.11,3.57a10.88,10.88,0,0,1-2.31,3,3.44,3.44,0,0,1-2.09,1h-.21a1.63,1.63,0,0,1-1.25-.54,3.88,3.88,0,0,1-.56-3.85l3.67-13.4a.56.56,0,0,1,.56-.49H826c.37,0,.46.29.29.86L822.59,77.3c-.18.75-.21,1.22-.07,1.41.27.41.88-.1,1.83-1.51s3.37-5.67,7.25-12.75A.92.92,0,0,1,832.45,64Z"/><path d="M835,78.85h.4a1.63,1.63,0,0,1,1.24.61,2.11,2.11,0,0,1,.55,1.46,2,2,0,0,1-.57,1.43,2,2,0,0,1-1.48.58h-.35a1.58,1.58,0,0,1-1.24-.6,2.11,2.11,0,0,1-.52-1.44,2,2,0,0,1,.55-1.44A1.84,1.84,0,0,1,835,78.85Zm.47-3,4.33-19.17c.09-.53.45-.79,1.07-.79H843c.7,0,1,.27.8.82l-6.49,19.2a1,1,0,0,1-1,.79h-.21C835.58,76.67,835.36,76.39,835.48,75.82Z"/><path d="M668.86,100.16a1,1,0,0,1,1.07-.79H671a.68.68,0,0,1,.62.33,1.06,1.06,0,0,1,.08.82l-6.14,24.13a1,1,0,0,1-1.08.79h-1.06a.68.68,0,0,1-.62-.32,1,1,0,0,1-.1-.79Z"/><path d="M683.58,112a33.85,33.85,0,0,1,2.12-3.1,8.76,8.76,0,0,1,1.43-1.54,3,3,0,0,1,1.57-.3h.35c.7,0,.94.27.72.8a3.33,3.33,0,0,1-.88,1.06,18,18,0,0,0-1.9,2.16,5.06,5.06,0,0,0-1.21,2,2.4,2.4,0,0,0,.9,1.77.31.31,0,0,1,.12.38.47.47,0,0,1-.37.27l-1.37.25a1.14,1.14,0,0,1-.89-.12,6.89,6.89,0,0,1-1.06-1.63l-2.76,10.68a1,1,0,0,1-1.09.79h-1c-.68,0-.94-.27-.79-.83l4.39-16.73a.92.92,0,0,1,1-.72h1.11a.91.91,0,0,1,.64.16c.1.1.12.3,0,.6Z"/><path d="M690.18,120.43c-.33,1.78,0,2.76,1,2.95a9.44,9.44,0,0,0,3.25-2.72.56.56,0,0,1,.72-.07l.68.43c.31.25.42.51.31.8a9.33,9.33,0,0,1-2.53,2.78q-1.85,1.47-3,1.26a3.6,3.6,0,0,1-3-2.69q-.51-2.74.9-7.47a16,16,0,0,1,3.93-7.13,5.41,5.41,0,0,1,2.19-1.21,4,4,0,0,1,2.77.22c1,.41,1.46,1.58,1.44,3.52a7.8,7.8,0,0,1-2.53,5.47A15.76,15.76,0,0,1,690.18,120.43Zm.44-2.3a12.35,12.35,0,0,0,2.87-1.69,8,8,0,0,0,2-2.36,5.71,5.71,0,0,0,.78-2.84c0-1-.28-1.46-.84-1.46q-1.65,0-2.88,2.7A29.35,29.35,0,0,0,690.62,118.13Z"/><path d="M709.34,107.88c.09-.56.37-.84.83-.84l.82,0c.88,0,1.2.46,1,1.3l-4.32,14.38a10.64,10.64,0,0,0,2.23-2.39c.27-.39.57-.47.89-.25l.88.59a.56.56,0,0,1,.18.9,20.1,20.1,0,0,1-2.72,2.7,7.37,7.37,0,0,1-2.94,1.35.53.53,0,0,1-.65-.39l-.67-2A8.6,8.6,0,0,1,703.1,125a2.23,2.23,0,0,1-1.11.51h-.07a1.8,1.8,0,0,1-.88-.42,5.81,5.81,0,0,1-1.17-1.08,4.06,4.06,0,0,1-.84-1.46,7.35,7.35,0,0,1,0-2.87,31.23,31.23,0,0,1,1.64-5.83,15.29,15.29,0,0,1,2.78-5.22,4.67,4.67,0,0,1,3.57-1.44A4.44,4.44,0,0,1,709.34,107.88Zm-.54,1.9q-1.92-1-3.12,0a10.34,10.34,0,0,0-2.36,4.21,32.82,32.82,0,0,0-1.49,5,10.81,10.81,0,0,0-.29,2.46,1.09,1.09,0,0,0,.63.95c.39.2,1-.2,1.92-1.19a13,13,0,0,0,2.36-4.07C707.12,115.4,707.91,113,708.8,109.78Z"/><path d="M721.28,98.91l-6.56,25.74a1,1,0,0,1-1.09.79H713c-.89,0-1.24-.39-1-1.16l6.59-25.36a1,1,0,0,1,1.07-.8h.83C721.15,98.12,721.42,98.39,721.28,98.91Z"/><path d="M727.92,98.91l-6.56,25.74a1,1,0,0,1-1.09.79h-.6c-.88,0-1.24-.39-1-1.16l6.59-25.36a1,1,0,0,1,1.08-.8h.82C727.79,98.12,728.06,98.39,727.92,98.91Z"/><path d="M738.5,107.16h1.36a.4.4,0,0,1,.36.28.82.82,0,0,1,0,.64L735,127.23c-.57,2.22-1.52,3.68-2.83,4.4a11.71,11.71,0,0,1-1.16.58c-.48.21-1.18,0-2.11-.55l-3.67-2.07a.78.78,0,0,1-.51-.64.74.74,0,0,1,.21-.66l.54-.76a1,1,0,0,1,1.2-.3l4,2.46c.53.29.92,0,1.19-1l3.42-12.36-.82,1.59-2.11,3.57a10.7,10.7,0,0,1-2.32,2.95,3.42,3.42,0,0,1-2.08,1h-.21a1.66,1.66,0,0,1-1.26-.54,3.88,3.88,0,0,1-.56-3.85l3.68-13.4a.56.56,0,0,1,.56-.49H732c.36,0,.46.29.28.86l-3.64,12.48c-.19.75-.21,1.22-.07,1.41.27.41.88-.1,1.83-1.51s3.36-5.67,7.24-12.75A.94.94,0,0,1,738.5,107.16Z"/><path d="M748,125.44H747a.44.44,0,0,1-.4-.29.79.79,0,0,1,0-.64l6.61-25.59a1.07,1.07,0,0,1,1.15-.8h.87q1.05,0,.84.87l-3.77,13.94-1,3.77,3.37-5.62a11.1,11.1,0,0,1,2.47-2.94,3.83,3.83,0,0,1,2.18-1h.75a1.71,1.71,0,0,1,.89.19,1.47,1.47,0,0,1,.53.88,3.82,3.82,0,0,1-.2,2l-4,14.68a.55.55,0,0,1-.58.51h-1.89c-.36,0-.46-.29-.3-.86l3.81-12.36a6.65,6.65,0,0,0,.26-1.27c0-.21-.08-.31-.23-.31a.92.92,0,0,0-.58.33,7.9,7.9,0,0,0-.93,1.2c-.43.67-1,1.53-1.61,2.56s-1.21,1.94-1.7,2.71-1.19,1.86-2.08,3.27-1.71,2.84-2.44,4.27A1.08,1.08,0,0,1,748,125.44Z"/><path d="M772.43,107.88c.09-.56.37-.84.82-.84l.83,0c.88,0,1.2.46,1,1.3l-4.33,14.38a10.66,10.66,0,0,0,2.24-2.39c.27-.39.56-.47.89-.25l.88.59a.56.56,0,0,1,.18.9,20.1,20.1,0,0,1-2.72,2.7,7.43,7.43,0,0,1-2.94,1.35.53.53,0,0,1-.65-.39l-.67-2a8.6,8.6,0,0,1-1.74,1.85,2.23,2.23,0,0,1-1.11.51H765a1.86,1.86,0,0,1-.89-.42,6.39,6.39,0,0,1-1.17-1.08,4.18,4.18,0,0,1-.83-1.46,7.49,7.49,0,0,1,0-2.87,32.23,32.23,0,0,1,1.65-5.83,15.29,15.29,0,0,1,2.78-5.22,4.63,4.63,0,0,1,3.56-1.44A4.44,4.44,0,0,1,772.43,107.88Zm-.55,1.9q-1.9-1-3.12,0a10.47,10.47,0,0,0-2.35,4.21,34.31,34.31,0,0,0-1.5,5,12.15,12.15,0,0,0-.29,2.46,1.12,1.12,0,0,0,.64.95c.38.2,1-.2,1.92-1.19a13.15,13.15,0,0,0,2.36-4.07Q770.55,114.54,771.88,109.78Z"/><path d="M780.37,122.05A53,53,0,0,0,786,107.69a.84.84,0,0,1,1-.69l1,.09c.66.12.91.41.76.9a59.47,59.47,0,0,1-6.55,15.39c-.91,1.4-1.7,2.08-2.36,2.06l-1-.07c-.74-.05-1.08-.63-1-1.76a122.63,122.63,0,0,0-.12-15.13c0-.88.24-1.32.86-1.32h1a.76.76,0,0,1,.85.83A96.34,96.34,0,0,1,780.37,122.05Z"/><path d="M790.9,120.43c-.32,1.78,0,2.76,1,2.95a9.35,9.35,0,0,0,3.25-2.72.56.56,0,0,1,.72-.07l.68.43c.32.25.42.51.31.8a9.33,9.33,0,0,1-2.53,2.78q-1.84,1.47-3,1.26a3.61,3.61,0,0,1-3-2.69q-.51-2.74.9-7.47a16,16,0,0,1,3.93-7.13,5.48,5.48,0,0,1,2.19-1.21,4,4,0,0,1,2.77.22c1,.41,1.46,1.58,1.45,3.52a7.82,7.82,0,0,1-2.54,5.47A15.76,15.76,0,0,1,790.9,120.43Zm.44-2.3a12.14,12.14,0,0,0,2.87-1.69,8,8,0,0,0,2-2.36,5.71,5.71,0,0,0,.78-2.84c0-1-.28-1.46-.84-1.46-1.1,0-2,.9-2.88,2.7A29.35,29.35,0,0,0,791.34,118.13Z"/><path d="M814.85,101.61l-1.42,5.55h1.87c.53,0,.71.26.55.78l-.25.92a1,1,0,0,1-1,.78h-1.87l-3.81,15a1,1,0,0,1-1.09.79h-.67a1,1,0,0,1-.81-.32,1,1,0,0,1-.13-.84L810,109.64h-1.44c-.49,0-.64-.28-.46-.85l.28-1a.8.8,0,0,1,.79-.67h1.44l1.45-5.59a1,1,0,0,1,1.07-.79h.92C814.73,100.78,815,101.05,814.85,101.61Z"/><path d="M814,120.22a20.87,20.87,0,0,1,2.42-9.12c1.5-2.87,3.42-4.29,5.74-4.24a3.36,3.36,0,0,1,2.82,1.81,7.08,7.08,0,0,1,.62,4,19.43,19.43,0,0,1-2.93,9.86c-1.28,2.22-3,3.28-5.16,3.2a3.16,3.16,0,0,1-2.14-1Q813.92,123.31,814,120.22Zm6.16,1.43a17,17,0,0,0,2.56-8.67,9.93,9.93,0,0,0-.22-2.85,1,1,0,0,0-1-.74,1.85,1.85,0,0,0-1.46.76,9.1,9.1,0,0,0-1.28,2.16,18.16,18.16,0,0,0-1.72,7.54q-.07,3.25,1.11,3.36C818.8,123.23,819.49,122.71,820.18,121.65Z"/><path d="M840.54,107.23a4.31,4.31,0,0,1,2.31.69c.14-.49.39-.73.75-.73l1.23,0q.9,0,.72.93-.82,3.3-5.29,19.14-.93,3.36-2.84,4.4a3.92,3.92,0,0,1-1.57.65,3.55,3.55,0,0,1-1.7-.62l-3.68-2.07c-.57-.29-.67-.73-.3-1.3l.55-.76a.89.89,0,0,1,1.19-.3l4,2.46c.55.24,1-.09,1.2-1l1.72-6.29a9.62,9.62,0,0,1-1.77,2.23,2.72,2.72,0,0,1-1.59.9h-.07a2,2,0,0,1-.89-.42,5.31,5.31,0,0,1-1.19-1.11,4.4,4.4,0,0,1-.81-1.5,7.87,7.87,0,0,1,.09-3,33.27,33.27,0,0,1,1.63-5.81,14.44,14.44,0,0,1,2.74-5.09A4.82,4.82,0,0,1,840.54,107.23Zm1.73,2.65a2.68,2.68,0,0,0-3-.14c-.8.58-1.61,2-2.41,4.13a34.39,34.39,0,0,0-1.55,5.09,12.66,12.66,0,0,0-.29,2.49,1.11,1.11,0,0,0,.65,1c.39.2,1.05-.23,2-1.28A13.64,13.64,0,0,0,840,117q1-2.52,2.15-6.79Z"/><path d="M845.54,120.22A20.86,20.86,0,0,1,848,111.1c1.51-2.87,3.42-4.29,5.75-4.24a3.36,3.36,0,0,1,2.82,1.81,7.08,7.08,0,0,1,.62,4,19.53,19.53,0,0,1-2.93,9.86c-1.28,2.22-3,3.28-5.17,3.2a3.16,3.16,0,0,1-2.13-1C845.92,123.78,845.47,122.28,845.54,120.22Zm6.16,1.43a17.08,17.08,0,0,0,2.56-8.67,9.93,9.93,0,0,0-.22-2.85,1,1,0,0,0-1-.74,1.84,1.84,0,0,0-1.46.76,9.44,9.44,0,0,0-1.29,2.16,18.48,18.48,0,0,0-1.72,7.54q-.06,3.25,1.11,3.36T851.7,121.65Z"/><path d="M858.39,122.05h.4a1.63,1.63,0,0,1,1.24.61,2.11,2.11,0,0,1,.55,1.46,2,2,0,0,1-.57,1.43,2,2,0,0,1-1.48.58h-.36a1.56,1.56,0,0,1-1.23-.6,2.11,2.11,0,0,1-.52-1.44,2,2,0,0,1,.55-1.44A1.84,1.84,0,0,1,858.39,122.05Zm.47-3,4.32-19.17a1,1,0,0,1,1.08-.79h2.12c.7,0,1,.27.79.82l-6.48,19.2a1,1,0,0,1-1,.79h-.21C859,119.87,858.74,119.59,858.86,119Z"/><path class="cls-9" d="M1586.54,477.34c-21.94,3.52-44.32,7-65.67,13.27-10.43,3.06-20.28,8.39-30.1,13-13.29,6.19-26.55,12.44-39.7,18.92-10.74,5.3-20.46,11.71-30.5,18.26-4.24,2.76-.4,9.7,3.88,6.9,8.68-5.65,17.11-11.55,26.38-16.2,12.66-6.36,25.49-12.39,38.32-18.4q9.18-4.32,18.41-8.55c4.06-1.87,8.32-4,11.82-5.15,12.54-4.22,25.84-6.53,38.81-9,10.06-1.91,20.14-3.71,30.25-5.33,5-.81,3.1-8.49-1.9-7.69Z"/><path class="cls-9" d="M1437.59,528.33l-14.89-1.22c-5.09-.42-5.27,7.5-.21,7.92l14.89,1.22c5.1.41,5.27-7.51.21-7.92Z"/><path class="cls-10" d="M1564,414.68c-2.27-58.47,16.93-36.12,39.52-37s40-24.65,42.27,33.81c.42,10.72,2.39,65.89,2.3,76.67-.4,48-9.27,48-38.35,49.13-28.22,1.1-37.91-.33-42.23-49.5C1566.68,478.18,1564.39,424.24,1564,414.68Z"/><path class="cls-9" d="M1633.87,360.89a54.36,54.36,0,0,0,12-12.48c2.43-3.43,4.34-7.77,7.31-10.78.59-.59.18-.69,1.23-.34a14.84,14.84,0,0,1,4.22,2.48,37.54,37.54,0,0,1,5,4.63c3.43,3.77,9.43-1.41,6-5.19-4.24-4.64-12.21-12.4-19.15-9.38-3.93,1.72-6.31,6.72-8.52,10.13-3.72,5.73-7.79,10.87-13.33,15-4.12,3,1.1,9,5.18,6Z"/><path class="cls-9" d="M1583.8,369.18c-4-5.3-6.36-11.37-8.21-17.7-1.17-4-2.06-9.88-5.72-12.45-5.84-4.1-14.9.5-20.19,3.69-4.33,2.61-.87,9.75,3.5,7.11a43.83,43.83,0,0,1,6.17-3.08,14.41,14.41,0,0,1,4.84-1.32,8.26,8.26,0,0,1,1.08.07c.15,0,.39.18-.06-.16s.22.51.34.8c1.62,3.89,2.53,8,3.87,12a56.31,56.31,0,0,0,8.39,16.19c3.09,4.07,9.06-1.14,6-5.19Z"/><path class="cls-11" d="M1559.36,379.9c1.85,47.65,1.52,30.49,45.38,28.78s45.52,15.4,42.34-32.2c-.09-1.28-.14-2.46-.28-3.55,0-1.73,0-3.49-.07-5.27-.92-23.69-8.4-10.06-18.26-9.68-4.33.17-8.4-2.24-11.53-3a3.29,3.29,0,0,0-1.6-.22,3.19,3.19,0,0,0-1.58.34c-3.06,1-6.93,3.72-11.26,3.88s-8.4-2.24-11.53-3a3.29,3.29,0,0,0-1.6-.22,3.37,3.37,0,0,0-1.59.34c-3,1-6.92,3.72-11.25,3.89-9.87.38-18.38-12.62-17.46,11.07.07,1.65.17,3.27.31,4.87C1559.31,377.15,1559.3,378.46,1559.36,379.9Z"/><path class="cls-9" d="M1635.42,517.35c-2.11-.66.67.22,1.25.4l5.27,1.7q8.63,2.81,17.19,5.73c12.91,4.42,26,8.84,38.36,14.54a76.3,76.3,0,0,1,10.92,6.21q7.93,5.13,15.82,10.33c12.2,8,24.38,16.13,36.4,24.44,9.67,6.69,18.2,14.36,27,22.15,3.81,3.37,8.89-2.72,5.06-6.09-7.83-6.92-15.39-14-24-20-11.75-8.23-23.71-16.15-35.66-24.06-9.49-6.27-18.92-13.44-29.07-18.6-11.9-6.05-24.85-10.3-37.44-14.67q-14.82-5.13-29.77-9.85c-2.06-.65-4.23,1.29-4.6,3.2-.44,2.32,1.17,4,3.2,4.59Z"/><path class="cls-9" d="M1776.4,589.72l14.91,1c2.13.14,4.19-.92,4.6-3.2.34-1.92-1.06-4.45-3.2-4.59l-14.91-1c-2.14-.14-4.19.92-4.6,3.2-.34,1.92,1,4.46,3.2,4.59Z"/><rect class="cls-9" x="1604.3" y="525.81" width="7.92" height="22.44" rx="3.96" transform="translate(960.94 -1030.1) rotate(49.09)"/><path class="cls-10" d="M1631.83,550.84c2-27.27-29.06-43.11-68.51-45.93s-72.41,8.44-74.36,35.71,5.08,58.6,67.29,63C1615.18,607.88,1629.88,578.11,1631.83,550.84Z"/><path class="cls-9" d="M1635.21,557.27s-4.7-2.23-6.18,1.45-10.07,22-11,35.18.26,30.3,1.47,30.39,5.23-5.31,6.58-7.1,4.2-6,6.57-7.1c2.81-1.27,11.56-9.17,13-12.32s6.72-9,4.84-16.69-10.6-21.58-11.8-21.67S1635.21,557.27,1635.21,557.27Z"/><path class="cls-9" d="M1484.33,545.15s5-1.53,5.9,2.32,6.84,23.2,5.9,36.39-4.57,30-5.78,29.87-4.43-6-5.5-8-3.31-6.57-5.5-8c-2.6-1.65-10.14-10.72-11.14-14s-5.36-9.85-2.41-17.21,13.56-19.85,14.77-19.76S1484.33,545.15,1484.33,545.15Z"/><path d="M1548.92,532.74l.39.54s-4.82,3.57-5.06,6.88a7.13,7.13,0,0,0,2.32,5.48l-.42.5a7.59,7.59,0,0,1-2.56-6C1543.85,536.49,1548.71,532.9,1548.92,532.74Z"/><path d="M1553,524c3.42-1.14,2.55-3.45,0-6-2-2-5-1.16-5,2C1548,523,1550,525,1553,524Z"/><circle class="cls-12" cx="1510.77" cy="560.38" r="21.08"/><ellipse cx="1520" cy="555.36" rx="13.17" ry="2.69" transform="translate(961.85 2074.34) rotate(-89.89)"/><circle class="cls-12" cx="1581.87" cy="562.4" r="21.08"/><ellipse cx="1574" cy="556.27" rx="13.17" ry="2.69" transform="translate(1014.85 2129.24) rotate(-89.89)"/><path class="cls-10" d="M1483.3,572c0-8.56,12.23-2.46,27.69-2.43s28.32-6,28.31,2.53-3.65,18.18-28,18.14C1488.17,590.22,1483.28,580.59,1483.3,572Z"/><path class="cls-10" d="M1554.07,565.25c-.76-10.44,12-3.91,27.39-5s27.7-9.46,28.46,1-2,22.45-26.32,24.21C1560.57,587.08,1554.82,575.69,1554.07,565.25Z"/><path class="cls-10" d="M1555.5,546.74c-1.11-7,11.48-3.89,26.43-6.23s26.57-9.29,27.67-2.25-1.15,15.49-24.71,19.18C1562.57,560.94,1556.6,553.77,1555.5,546.74Z"/><path class="cls-10" d="M1485.89,540c0-8.24,12.23-2.36,27.69-2.34s28.33-5.79,28.31,2.44-3.64,17.49-28,17.45C1490.76,557.55,1485.88,548.28,1485.89,540Z"/><path class="cls-7" d="M1359.54,435.05c23.77-22.4,27.34-26.59,52.88.51,25.95,27.53,21.15,30.4-2.63,52.81s-36,48-68.17,13.92C1308.67,467.32,1335.77,457.46,1359.54,435.05Z"/><ellipse class="cls-3" cx="1349.9" cy="495.31" rx="5.71" ry="20.72" transform="translate(27.85 1060.77) rotate(-43.31)"/><path class="cls-13" d="M1713,376.66c-26.36-19.29-31.13-22-9.14-52.08,22.34-30.53,26-26.34,52.4-7.05s53.77,26.69,26.11,64.5C1754,420.8,1739.39,396,1713,376.66Z"/><ellipse class="cls-3" cx="1774.02" cy="375.16" rx="20.72" ry="5.71" transform="translate(423.71 1585.34) rotate(-53.81)"/><path class="cls-13" d="M1619,508.6c14.51,2.63,16.84,31.48-4.83,26.65-16.26-3.63-46.12-1.35-47.37-12.59-.18-1.62,9.91-12,10.6-13.4C1582.48,498.67,1602.49,505.61,1619,508.6Z"/><path class="cls-13" d="M1472.85,498.88c13.86-5.06,30.43,18.67,9.29,25.44-15.87,5.08-34.28,15.67-41,6.6-1-1.3-3.69-8.87-3.82-10.47C1436.32,508.75,1457.09,504.63,1472.85,498.88Z"/><path class="cls-13" d="M1759.52,556.65c12.86,7.22,5.66,35.25-13.26,23.62-14.18-8.73-43.16-16.31-40.68-27.35.36-1.59,13.27-8.07,14.4-9.2C1728.23,535.36,1744.89,548.44,1759.52,556.65Z"/><path class="cls-13" d="M1547.56,470.64c10.48-4,25.78,20.08,9.69,25.29-12.07,3.91-25.64,13-31.81,3.77a61.28,61.28,0,0,1-4-10.4C1519.6,477.87,1535.64,475.21,1547.56,470.64Z"/><path class="cls-13" d="M1689.87,516.63c10.59,3.71,6.67,32-9,25.56-11.73-4.83-28-6.66-26.7-17.7a60.46,60.46,0,0,1,3.69-10.52C1663.87,504.06,1677.82,512.41,1689.87,516.63Z"/><path class="cls-7" d="M1651.28,505.57c-.45,11.57.17,9.61-20,10.11-5.88.14-11.47,1.49-21.36,1.12-9-.35-17.79-2.34-23.39-2.84-22.23-2-21.81.25-21.36-11.68.5-13.07-8.31-29.84,26.22-31.06,5-.18,10.92,5.37,17.85,5.64,6.75.26,12.68-4.8,17.56-4.28C1662.76,476.39,1651.78,492.41,1651.28,505.57Z"/><path class="cls-7" d="M1571,391.58c2.22-8.83-7.36-10.23,12.37-6.3,5.77,1.15,14.47-1.71,24.07.7,8.68,2.18,14,8.63,19.36,10.22,21.41,6.29,21.34,4.48,19,13.59-2.51,10,3.51,24.8-30.4,18.34-4.88-.93-9.83-6.49-16.55-8.18-6.56-1.65-13.13,1-17.82-.46C1546.56,408.85,1568.43,401.62,1571,391.58Z"/><path class="cls-7" d="M1645.71,372.73c-3.82,14.24-12.54,6.91-22.5.55-2.91-1.86-12.68-2.19-17.06-5.94-4-3.38,33.28-31.1,38.71-30.81C1656.42,337.15,1650.61,354.52,1645.71,372.73Z"/><path class="cls-7" d="M1604.29,353.45c6.7,13.14,2.37,21.26-7.32,28-2.83,2-16.84,12.19-22,14.81-4.64,2.37-15.45-47.55-5.1-53.77C1579.24,336.9,1596.66,338.51,1604.29,353.45Z"/><path class="cls-7" d="M1646.3,561.47c3.7,10.88,9.32,5.44-26,18.77-10.32,3.9-24.21,22.56-41.79,28.54-15.91,5.41-29.84,3.52-39.91,6.65-40,12.41-35.75,12.92-42.2,3-42-64.87,2.88-31.79,33.83-36.28,9.23-1.34,21.7-11,34-15.22,12-4.08,25.33,7.61,33.09,2.66C1641.07,541.7,1642.08,549.08,1646.3,561.47Z"/><path class="cls-13" d="M1498.8,516.31c-.86-9.17-1.54-7.52,29-11.4,8.92-1.13,20.25-7.17,35.34-8.58,13.64-1.28,24.31,2.76,32.9,2.18,34-2.29,33.12-4,34,5.49,1,10.36,28,14.08-31.93,23.81-22.62,3.67-40.41-22.48-50.62-19.61-15.68,4.4-10.24,19.24-17.73,19.67C1474.67,531.09,1499.78,526.74,1498.8,516.31Z"/><path class="cls-13" d="M1653.79,483.94c-.39,10.32.21,8.57-19.9,8.93-5.88.11-14.19.13-24.08-.24-8.94-.35-15.07-1-20.67-1.47-22.24-1.86-21.81.14-21.4-10.52.44-11.66-2.34-31.79,6.56-29.75,4.85,1.11,26.47,5.38,33.4,5.64,6.75.26,39-3.69,43.68-2.36C1663.65,457.63,1654.24,472.2,1653.79,483.94Z"/><path class="cls-13" d="M1612.21,597.13c-.73,7.53.22,6.32-30.63,4.14-9-.64-21.76-1.63-36.92-3.11-13.72-1.34-23.1-2.56-31.69-3.59-34.08-4.06-33.45-2.55-32.69-10.32.83-8.5-3.19-23.62,10.44-21,7.42,1.41,27,12.3,37.58,13.34,10.36,1,73.36-3.11,80.59-1.56C1627.66,579,1613.05,588.56,1612.21,597.13Z"/><path class="cls-13" d="M1645.3,384.15c-.28,7.2.31,6-19.79,6-5.88,0-14.18-.07-24.07-.45-9-.34-15.07-.87-20.68-1.26-22.25-1.56-21.8-.16-21.52-7.6.32-8.14-2.7-22.23,6.22-20.7,4.86.83,26.52,4.06,33.45,4.32,6.75.26,38.9-2.12,43.64-1.14C1654.85,365.88,1645.61,376,1645.3,384.15Z"/><path class="cls-13" d="M1643.79,429.38c-.24,6.22.34,5.18-19.76,5.09-5.88,0-14.18-.13-24.07-.51-8.94-.35-15.07-.83-20.68-1.2-22.25-1.46-21.79-.25-21.55-6.67.27-7-2.82-19.21,6.11-17.85,4.86.75,26.53,3.65,33.46,3.91,6.76.26,38.88-1.63,43.63-.76C1653.24,413.66,1644.06,422.31,1643.79,429.38Z"/><path class="cls-13" d="M1580.94,335.59c7.74-3.64,18.6,9.37,6.73,14.35-8.9,3.75-19,10.83-23.38,5.88a27.69,27.69,0,0,1-2.77-5.91C1560.33,343.14,1572.13,339.72,1580.94,335.59Z"/><path class="cls-13" d="M1654.8,341.74c5.12,4-2.43,18.94-9.81,12.46-5.54-4.86-14.13-8.91-11.32-14.78a36.41,36.41,0,0,1,4-5.13C1642.89,329.93,1649,337.15,1654.8,341.74Z"/><path class="cls-13" d="M1795.64,425.68c-9.21-31.34-11.33-36.42,24.4-46.91,36.3-10.66,36.69-5.08,45.89,26.26s26.47,53.88-18.48,67.08C1801.36,485.65,1804.84,457,1795.64,425.68Z"/><ellipse class="cls-3" cx="1844.98" cy="461.57" rx="20.72" ry="5.71" transform="translate(-55.3 538.66) rotate(-16.37)"/><path class="cls-13" d="M1597.07,485.66c-4.16-14.15,9.39-31.49,59.67-48,14.7-4.81,32-18.16,57-25.5,22.61-6.64,41.8-3.89,56.09-7.71,56.7-15.16,54.63-17.49,58.92-2.89,4.7,16,34.45,29-51.66,57.71-12.4,4.13-29.84,2.19-47.35,7.34-17.08,5-56.67,13.24-69.17,16.47C1568.71,506.88,1601.8,501.75,1597.07,485.66Z"/><path d="M1422.5,593.65c11.77,20.55,25.54,39.54,45.11,53.23q16.4,11.48,32.86,22.88c6.57,4.54,13.15,10,20.28,13.71,1.72.88,3.24-1.71,1.52-2.59-6.78-3.47-13-8.71-19.29-13q-16-11.07-32-22.25a124.65,124.65,0,0,1-29.53-28.31,249.24,249.24,0,0,1-16.38-25.16,1.5,1.5,0,0,0-2.59,1.52Z"/><path d="M1419.2,631.46c11.41,11.94,23.87,23.41,38,32.14,9.58,5.93,20.42,9.39,30.86,13.5,6.9,2.71,14,6.36,21.29,8,1.88.44,2.68-2.45.8-2.89-6.51-1.52-12.9-4.75-19.09-7.19-10.91-4.29-22.33-7.87-32.35-14.06-13.86-8.57-26.11-19.92-37.34-31.67-1.34-1.4-3.45.73-2.12,2.12Z"/><path d="M1621.81,699.09a248.67,248.67,0,0,0,27.23-14,122.61,122.61,0,0,0,30.49-25.52q13.34-15.36,26.61-30.79c5-5.86,11-11.63,15.2-18.13,1.06-1.62-1.54-3.12-2.59-1.51-4.31,6.6-10.4,12.47-15.52,18.44q-12.87,15-25.82,29.87a121.81,121.81,0,0,1-31.05,25.74,250.39,250.39,0,0,1-26.07,13.28c-1.76.78-.23,3.36,1.52,2.59Z"/><path d="M1644.64,728.11c13.73-9.57,27.22-20.26,38-33.08,7.46-8.83,12.66-19.31,18.46-29.24,3.55-6.09,7.92-12.22,10.57-18.79.72-1.79-2.18-2.56-2.9-.79-2.53,6.29-6.86,12.23-10.26,18.06-5.91,10.12-11.19,20.82-18.9,29.71-10.54,12.14-23.38,22.37-36.53,31.54-1.57,1.09-.07,3.69,1.51,2.59Z"/><g class="cls-14"><polygon class="cls-3" points="351.65 997.37 -205.95 997.37 -350 861.06 -350 44.79 -205.95 38.6 351.65 -41.95 351.65 997.37"/><polygon class="cls-4" points="495.7 997.37 -205.95 997.37 -205.95 26.2 -68.36 -68.28 337.71 -68.28 495.7 6.07 495.7 997.37"/><rect class="cls-5" x="-40.22" y="26.2" width="398.07" height="971.16"/><polygon class="cls-5" points="357.85 95.91 -49.51 95.91 -49.51 -83.77 161.95 -164.31 357.85 -68.28 357.85 95.91"/><polygon class="cls-3" points="143.3 -198.17 161.95 -164.24 -280.01 78.69 -350 44.76 143.3 -198.17"/><rect class="cls-3" x="338.23" y="-311.9" width="38.72" height="504.32" transform="translate(237.69 282.41) rotate(-61.2)"/><polygon class="cls-4" points="329.97 1071.71 -38.67 989.62 -38.67 81.97 329.97 164.06 329.97 1071.71"/><path class="cls-5" d="M132.78,379.84A88.63,88.63,0,0,1,203,293.16,92.53,92.53,0,1,0,205.28,467,88.64,88.64,0,0,1,132.78,379.84Z"/><path class="cls-15" d="M732.27,365.71c25.85-2.43,37.51-1,74-11.47,34.78-9.95,73.69-17.48,76.23-17.65s11.94-1.06,10.69-26.74a416.87,416.87,0,0,0-6.27-51.54s-20.3-6.52-19.27-18.46,1.07-28.54,8-20.5,12.45,18.31,9.82-5.14-1.89-39.84.49-37.43,1.77-9.12,4.6-8.33,8,.46,10.13,2.81,7.37,5.55,9.79,10.58,13.28,29,16.72,41.35c1.39,4.94-4.48,16.21,1.35,14.35s10,23.45,14.22,47.64c4.9,27.95,9.59,34.11,11.36,44.22s.36,41.85-.66,45.59c-7.4,27.31-27,23.62-37.23,30.38s-165,26.73-160.57,27.1-47.08-54.25-43.54-53.27S706.43,368.14,732.27,365.71Z"/><path class="cls-15" d="M648,420.17c-32.83-2.59-115.19-54-121.86-65.4-8-13.61-26-52.11-16.57-69.2,20.94-38.12,63.38-79,71.24-96.49s6.46-13,6.14-26.14.54-24.11,7.13-31.43,21.82-16.35,26.61-5.55,5.48,8.53,7.68,21.66,2.49,15.77,1.74,24.81c-1.16,14,5,5.9,4.51-.49-1.19-14.26,8.18-4.34,7.71,7.35s1.81,12.38-2.61,16.63c-7.37,7.1-25.08,9.75-19.68,11.4,4.56,1.4-4,6.88-7.36,22s-51.5,61.49-50.27,65.61S608.59,352,632.1,344.14s46.6,10.59,50.07,13.52S722,368.91,722,368.91l8,29.52Z"/><path class="cls-15" d="M736.92,408.26c-9.21-18.39-20.29-36-29-54.67,6.71,2.52.14.63,1,0,3.45-2.56,14.68-23.37-.75-42.78s3.11-69.86,17.87-80.9c4.64-3.46,23.28-18.07,37.42-17.82s49.22,18.8,55.66,24.43c27.37,23.93.51,56.92.51,56.92,9.09,8.43,1.42,33.47-16.48,29.17-18.7-4.5-20.25,32.49-25,38.17-8.77,10.59-22.1,44.6-40.86,48.67A10,10,0,0,0,736.92,408.26Z"/><path class="cls-15" d="M781.22,1026.24c-12.73,18.09-15.57,16.93-36.25,25.55s-27.1,10.59-46.8,11.29c-18.76.67-21.73,1.25-25.46-10-3.54-10.77,19.77-24.75,39.52-36.84,14.73-9,28.36-14.9,18.76-48.23s-5.5-19.39-12.73-51.57-10-98.17-10.71-94-5.37,100.66-.68,120.76c4.57,19.56,13.43,44.34-13.39,59.61s-20.86,11.6-46.22,15.41c-13.4,2-10,2.81-32.15,3.34s-33.45-8.29-18.08-20.09,19.22-15.73,38.84-23.44c18.76-7.37,17.42-4.69,18.22-16,1.62-22.8,2.55-22.19-1.47-50.32S642.25,835.08,641.23,824c-1.69-18.52-20.53-65.67-15.4-76.35,8-16.75,24.41-54.17,42.19-79s32.82-47.26,32.82-47.26S693,596,685.44,576.81c-14.74-37.51-35.85-143.7-38.85-158.08s-3.12-46.88-3.12-46.88l18.37-16.08,159.65-.53s16.66,14.85,30.39,97.78,21.7,98.28,13.36,115.05,3.63,60.76-7,77.73-35.5,63-35.5,63-51.47,63.59-52.25,71.67-6.69,26.12-4,35.5,6.26,61.82,6.69,67.65,8,67.65,10.05,86.4C783.82,975.51,781.22,1026.24,781.22,1026.24Z"/></g><path d="M1612,823.66a3.44,3.44,0,0,0,1,2.75v.21a4.51,4.51,0,0,0,.39,1.54,6.1,6.1,0,0,1,.39,2.25,2,2,0,0,0,.56,1.69,3.24,3.24,0,0,1-.35.42.61.61,0,0,0-.21.42c0,.14,0,.23.17.25s.18.11.18.25l-.07.14a2.81,2.81,0,0,1-.07,1,3.26,3.26,0,0,0-.14,1,2.18,2.18,0,0,0,.07.67l-.57,1.19a2.88,2.88,0,0,1,.07.71,1.78,1.78,0,0,1-1.26,1.76,4.6,4.6,0,0,1,.07.91,5,5,0,0,1-.18,1.3,8.92,8.92,0,0,0-.24,1.37,1.18,1.18,0,0,0-.78,1.2,2,2,0,0,0-1,.73,6.42,6.42,0,0,1-.73.88,2.5,2.5,0,0,1-.57.46,1.45,1.45,0,0,0-.42.35,2.2,2.2,0,0,0-.35.6,2.67,2.67,0,0,1-.63,1c-.28.19-.43.37-.43.53a1.6,1.6,0,0,1-.42.78,3.78,3.78,0,0,1-1.44,1,5.28,5.28,0,0,0-1.72,1.23h-.21l-.78.28a2.44,2.44,0,0,0-.42.63c-.23.33-.77.43-1.61.29-.29.14-.6.31-1,.52a2.2,2.2,0,0,1-1.13.32c-.4,0-.6.08-.6.25s-.15.24-.45.24a1.26,1.26,0,0,0-.67.14h-.07l-1-.28a3.36,3.36,0,0,1-1.26.28l-1.76-.42a1.17,1.17,0,0,0-.42.14,1.14,1.14,0,0,0-.7-.42,1.63,1.63,0,0,1-.71-.28,1.77,1.77,0,0,0-.56.42h-.14l-1.34.07c-.51,0-.82-.16-.91-.49a2.05,2.05,0,0,1-1.72-.53,2.65,2.65,0,0,1-1.16-1.37h-.21l-.85-.28c-.14-.19-.28-.36-.42-.53a1.2,1.2,0,0,1-.28-.6,1.83,1.83,0,0,1-.92-.52,1.33,1.33,0,0,0-1-.39,1.16,1.16,0,0,0-.46-.63c-.21-.14-.41-.29-.59-.43a6.11,6.11,0,0,0-1.69-2.6c-.89-2.39-1.47-3.86-1.73-4.43a5,5,0,0,1-.38-1l.21-.7-.14-.36c0-.09,0-.14.07-.14s.07,0,.07-.14l-.28-1.61.14-1.06-.35-.77.49-2V833a1.66,1.66,0,0,1,.14-.66,5.47,5.47,0,0,0,.28-.92,6.72,6.72,0,0,0,.14-1.47,5.88,5.88,0,0,1,.21-1.62,2,2,0,0,1,.53-1c.21-.16.27-.52.18-1.09a7.33,7.33,0,0,0,1.16-2.14,8.07,8.07,0,0,0,.31-1.16.86.86,0,0,1,.21-.63.57.57,0,0,0,.32-.57.48.48,0,0,1,.18-.49,1.66,1.66,0,0,0,.42-.42,3.8,3.8,0,0,0,.42-.77,5.51,5.51,0,0,1,.56-1l.28-.14c.14-.42,1-1.19,2.6-2.32a.73.73,0,0,0,.25-.42.57.57,0,0,1,.18-.35,7.92,7.92,0,0,0,1.12-.49l.14-.29,1.13-.56.07-.28a.56.56,0,0,1,.35,0,2.37,2.37,0,0,0,1-.29,14.17,14.17,0,0,0,1.72-.91,3.62,3.62,0,0,1,1.86-.6c.59,0,.94-.07,1.06-.21a1,1,0,0,1,.56-.31,2.12,2.12,0,0,1,.88,0,.87.87,0,0,0,.84-.35h.07a.64.64,0,0,1,.57.42,3.47,3.47,0,0,1,1.54-.42c.47,0,.71,0,.71.1s0,.13.14.18a.28.28,0,0,0,.28,0,.91.91,0,0,1,.42-.07c.19,0,.46.18.81.53a1.94,1.94,0,0,0,1.44.52l1.34-.07a2.45,2.45,0,0,1,1.33.32,2.67,2.67,0,0,0,1.13.39.26.26,0,0,1,.14.24.41.41,0,0,0,.14.32h.28a2,2,0,0,1,.46.46,1.37,1.37,0,0,0,.38.38l.71.43a3.54,3.54,0,0,1,.49.45,2.19,2.19,0,0,0,.56.46,1.45,1.45,0,0,1,.39.42,3.39,3.39,0,0,0,.38.53,3,3,0,0,0,.43.39,1,1,0,0,1,.35.45,1.53,1.53,0,0,1,.14.6,1.38,1.38,0,0,0,.14.6q.13.32.21.24s.07.06.07.32a2.27,2.27,0,0,0,.18.84,8.35,8.35,0,0,0,.45,1c.19.35.36.69.5,1s.28.51.42.56Zm-30.38,7-.35,3.59a2.59,2.59,0,0,0,.11.81,4.67,4.67,0,0,1,.17,1,11.7,11.7,0,0,1,0,1.62,13.59,13.59,0,0,0,.1,2.14,6.25,6.25,0,0,0,.85,2.4,6.4,6.4,0,0,1,.84,2.67c.38.51.74,1,1.09,1.61s.71,1.11,1.09,1.62a5.58,5.58,0,0,0,3.09,2.39,3,3,0,0,0,2.89,1.41c.42,0,.65,0,.7.14h1l3.31.35a1.91,1.91,0,0,0,.81-.18,1.21,1.21,0,0,1,.74-.1,1.87,1.87,0,0,1,1-.53,5.5,5.5,0,0,0,1.2-.24c.09,0,.12-.16.1-.32a.27.27,0,0,1,.18-.32,2.37,2.37,0,0,1,.63-.07,1.7,1.7,0,0,1,1.13-1.05,4.34,4.34,0,0,0,1.51-.88l1.3-1.16a5.83,5.83,0,0,0,1.16-1.51,5.73,5.73,0,0,1,.88-1.3l.77-.71a.52.52,0,0,0,.14-.38c0-.17.15-.32.46-.46a1.31,1.31,0,0,0,.56-.39.42.42,0,0,0,.07-.31.28.28,0,0,1,.11-.28c.28-.1.41-.25.38-.46s0-.45,0-.7a.89.89,0,0,1,.24-.64c.17-.16.18-.38,0-.67a1.3,1.3,0,0,0,.56-.94,4.46,4.46,0,0,1,.25-1.06,1.81,1.81,0,0,1,.42-.7,2.07,2.07,0,0,0,.39-.6c-.1-.09-.14-.37-.14-.84v-.71a3.45,3.45,0,0,0,.63-1.86,3.53,3.53,0,0,0-.35-1.58,5.69,5.69,0,0,1-.43-2.36c0-1-.14-1.56-.42-1.79s-.42-.42-.42-.56v-.5l-.28-1.54a1.09,1.09,0,0,0-.32-.71,1.79,1.79,0,0,1-.42-.7,1.39,1.39,0,0,1,0-.7,1.84,1.84,0,0,0-.14-.92,1.56,1.56,0,0,0-.53-.77c-.21-.14-.32-.54-.32-1.19a1.36,1.36,0,0,1-.91-1.13,1.72,1.72,0,0,1-1.13-.88,1.74,1.74,0,0,0-.67-.81c-.21-.09-.32-.13-.35-.1a.29.29,0,0,1-.17,0h-.07l-.14-.35a1.51,1.51,0,0,0-.85-.28l-1.19.28a1.8,1.8,0,0,1-1.2-.49,1.53,1.53,0,0,0-1.9-.28,1.06,1.06,0,0,1-.28-.46.68.68,0,0,0-.28-.39,1.69,1.69,0,0,1-.84-.28,3.91,3.91,0,0,0-.78-.42l-.28.07-1.4-.28a.48.48,0,0,0-.32.18.66.66,0,0,1-.53.14,1.86,1.86,0,0,0-.63,0,2.52,2.52,0,0,0-.49.18,2.17,2.17,0,0,1-.49.17,1.68,1.68,0,0,1-.71,0,1.39,1.39,0,0,0-.74.07,1.43,1.43,0,0,0-.49.35c-.12.15-.29.17-.53.07a1,1,0,0,0-.59.46c-.12.21-.67.32-1.66.32a5.68,5.68,0,0,1-2.88,2.39,1.52,1.52,0,0,1-.56.88,4.13,4.13,0,0,0-.77.74,8.12,8.12,0,0,0-1.06,2,7,7,0,0,0-.63,2.17l.14.57a1.65,1.65,0,0,1-.28.91,3.49,3.49,0,0,0-.42.81,1.37,1.37,0,0,0-.07.77,1.87,1.87,0,0,1,0,.78,4.68,4.68,0,0,1-.32.81A3,3,0,0,0,1581.62,830.62Z"/><path d="M1625.92,839.48l-.42.92a5,5,0,0,1,.14.91l-.14,1.62a.42.42,0,0,1,.14.28l-.14.28.21,1a10.31,10.31,0,0,1,.31,2.81q0,1.41,0,2.88l.14,1.06-.14.84.28,1.41a1.74,1.74,0,0,1-.07.56.64.64,0,0,0,.07.49l-.14,1.2.14.77-.28,1,.14.85-.14.91.42,1.62a2,2,0,0,0,1.2-.35,2.19,2.19,0,0,1,1.33-.35.75.75,0,0,1,.85.84,1.43,1.43,0,0,1-.78,1.3,11,11,0,0,1-1.26.67,2.85,2.85,0,0,1-.88.24c-.26,0-.55.07-.88.14a3.58,3.58,0,0,0-.63.18,2.54,2.54,0,0,1-.81.07,7,7,0,0,0-1.79.32,2.66,2.66,0,0,0-1.48.81.29.29,0,0,1-.21,0,.73.73,0,0,0-.25,0,1.65,1.65,0,0,0-.67.31,1.57,1.57,0,0,1-1.05.25h-.21c-.52-.24-.78-.89-.78-2,.15.05.24,0,.29-.18a.53.53,0,0,1,.24-.35.59.59,0,0,1,.39-.07,2.7,2.7,0,0,0,1-.28,15,15,0,0,1,2.07-.6,3.17,3.17,0,0,0,.21-1.12,3.93,3.93,0,0,0-.14-1.09,3.06,3.06,0,0,1-.07-1.09v-2.46a10.75,10.75,0,0,1,.07-1.76l-.21-.63.14-.43-.28-1.12a22,22,0,0,1-.14-2.46v-2.46a11.12,11.12,0,0,0-.21-2.18c-.14-.7-.26-1.43-.35-2.18v-1.48l-.28-2.11.07-2.32-.07-2v-1.47a2.4,2.4,0,0,0,.14-.64l-.28-.7a1,1,0,0,1,.14-.42,18.38,18.38,0,0,0-.14-2.18l-.28-1.13.14-.42-.36-4.92.29-2.6-.15-.92.22-.84-.29-2.53.22-3.3-.29-3c-.09-1.12-.14-2.19-.14-3.2s-.32-1.51-1-1.51l-1.41.14a1.35,1.35,0,0,1-1.19-.63,2.12,2.12,0,0,1-.42-.85l.07-.28c.14-.42.5-.63,1.09-.63a12.4,12.4,0,0,0,1.65-.1c.51-.07,1.24-.23,2.18-.46a9.59,9.59,0,0,1,2.28-.35c.59,0,1,.19,1.09.56a1.91,1.91,0,0,1-.49,1.26,2,2,0,0,0-.56,1l.14,2-.21,1.62.28,1.89c0,.24.06.39.17.46s.18.25.18.53l-.14,1.33.14.43-.14.28a8.12,8.12,0,0,1,.32,2.56,6.74,6.74,0,0,0,.31,2.43,9.71,9.71,0,0,0-.14,2.25l-.14,2.32a14.45,14.45,0,0,0,.11,1.72c.07.59.15,1.3.24,2.15l.21,3c.1,1.12.19,2.27.29,3.45a3.14,3.14,0,0,0,.87.07c.5,0,.86-.31,1.09-.92a.67.67,0,0,0,.57-.28c.32-.47.56-.63.7-.49s.28.08.42-.18.27-.41.39-.45a.33.33,0,0,1,.24,0,.57.57,0,0,0,.22,0,.29.29,0,0,0,.21-.08c0-.23.68-.46,1.89-.7s1.9-.35,2-.35a3.9,3.9,0,0,1,.64.07l1.37.21c.63.1,1,.28,1.19.56a5.61,5.61,0,0,0,.78,1l1.3,1.37a10.77,10.77,0,0,1,1.4,1.86.94.94,0,0,1,.32.39.94.94,0,0,0,.32.39.91.91,0,0,0-.07.42l.56,2.25a1.92,1.92,0,0,0,.14.77,2.84,2.84,0,0,1,.17.81c0,.31.06.6.11.88l.28,1a7.15,7.15,0,0,1,.14,1.48v1.41c0,.09,0,.14-.07.14s-.07,0-.07.14l.42,2-.28,1.75.28,2.46a19.32,19.32,0,0,1-.14,2.4,11.24,11.24,0,0,0,0,2.46,3.59,3.59,0,0,0-.42,1.75v1.41a2.74,2.74,0,0,0,.14.84,3.2,3.2,0,0,0,1.06.14l2.81-.56a1,1,0,0,0,.53.46c.25.12.38.27.38.46q0,.84-.63.84a3.62,3.62,0,0,0-2.6,1.2,2,2,0,0,0-.63-.07l-1.9.35h-.49c-.29,0-.44.06-.46.17s-.22.18-.6.18l-1.76.21-.56-.07c-.33,0-.52.1-.56.32s-.21.31-.49.31l-.29-.07a2.7,2.7,0,0,1-.28-1.19,1.35,1.35,0,0,1,.25-.92,1.76,1.76,0,0,1,.56-.42l.7-.28a1.12,1.12,0,0,0,.6-.49l.35-1.76a2.48,2.48,0,0,0,.07-.63l-.21-1.9.14-1.41-.14-1.19.28-1.41-.14-1.27.14-2.74a9.39,9.39,0,0,0-.31-2.39,9.59,9.59,0,0,1-.32-2.46l.14-1s-.09-.64-.28-1.76l.14-.21q-.42-.49-.39-.6a2.07,2.07,0,0,0,0-.56,2.2,2.2,0,0,0-.18-.88,5.84,5.84,0,0,1-.28-.92,9.55,9.55,0,0,1-.17-1.12,2.86,2.86,0,0,0-.53-1.44,2.78,2.78,0,0,1-.49-.74,2.29,2.29,0,0,0-.32-.56,1.68,1.68,0,0,0-.53-.46,2.94,2.94,0,0,1-.66-.53,2.65,2.65,0,0,1-1.52.32l-1.37,0c-.28,0-.43,0-.45.14a1.53,1.53,0,0,1-.21.39,2.33,2.33,0,0,1-.5.49,2.3,2.3,0,0,0-.52.6,1.89,1.89,0,0,0-1.83.7,6.28,6.28,0,0,1-1.34,1.76c-.14.42-.31.65-.53.67s-.27.15-.17.39l-.07.21.28.84Z"/><path d="M1656.51,861.35a9.63,9.63,0,0,1-1.27.46,1.67,1.67,0,0,0-.67.31,2.17,2.17,0,0,1-.6.36,1.81,1.81,0,0,1-1.61-2.25,5.61,5.61,0,0,0-.88-.36,2.23,2.23,0,0,1-.81-.42v-2.11a3.72,3.72,0,0,0,.56-.91,2.43,2.43,0,0,1,.49-.77.81.81,0,0,1,.53-.29.64.64,0,0,0,.39-.1.72.72,0,0,0,.21-.25.53.53,0,0,1,.21-.21l1-.14a6.37,6.37,0,0,1,1-.14,1.46,1.46,0,0,1,1.41,1,4,4,0,0,1,.42,1.44.83.83,0,0,0,.17.63c.12.1.18.49.18,1.16A7.2,7.2,0,0,1,1656.51,861.35Zm-.29-28.69-.42,7.81.07,2.25c0,1-.16,1.47-.49,1.47-.14,0-.14,0,0,.14a11.1,11.1,0,0,0-.6,1.27c-.21.52-.48.77-.81.77q-.92,0-1.47-1.47a7,7,0,0,1-.49-3.17v-2.88l-.15-2.32.15-2.95-.15-1.41.29-.84-.14-.85.07-2.46a52.61,52.61,0,0,0-.39-7.52,26.44,26.44,0,0,1-.39-3.27,3.91,3.91,0,0,1,.32-1.55,6.5,6.5,0,0,0,.39-1.09c0-.32.18-.49.42-.49s.23,0,.28-.14.11-.28.21-.28a2,2,0,0,1,1.37.42q.46.42.84.81a3.21,3.21,0,0,0,.53.46,2.45,2.45,0,0,1,.28.63l.28.14a.56.56,0,0,1,0,.35.37.37,0,0,0,.1.35l.29.14a3.66,3.66,0,0,1,.28,1.27l-.49,3.44.21,3.45v3.23a14.61,14.61,0,0,1-.21,2.71A8.87,8.87,0,0,0,1656.22,832.66Z"/></svg>