<svg id="Layer_1" data-name="Layer 1" xmlns="http://www.w3.org/2000/svg" xmlns:xlink="http://www.w3.org/1999/xlink" viewBox="0 0 1920 1080"><defs><style>.cls-1{fill:none;}.cls-2{clip-path:url(#clip-path);}.cls-3{fill:#a67c52;}.cls-4{fill:#c69c6d;}.cls-5{fill:#42210b;}.cls-6{fill:#f2f2f2;}.cls-7{fill:#e6e6e6;}.cls-8{fill:#999;}.cls-9{fill:#85aa52;}.cls-10{fill:#daec70;}.cls-11{fill:#fbb03b;}.cls-12{fill:#1b1464;}</style><clipPath id="clip-path"><rect class="cls-1" x="1" width="1920" height="1080"/></clipPath></defs><g class="cls-2"><polygon class="cls-3" points="352.65 997.37 -204.95 997.37 -349 861.06 -349 44.79 -204.95 38.6 352.65 -41.95 352.65 997.37"/><polygon class="cls-4" points="496.7 997.37 -204.95 997.37 -204.95 26.2 -67.36 -68.28 338.71 -68.28 496.7 6.07 496.7 997.37"/><rect class="cls-5" x="-39.22" y="26.2" width="398.07" height="971.16"/><polygon class="cls-5" points="358.85 95.91 -48.51 95.91 -48.51 -83.77 162.95 -164.31 358.85 -68.28 358.85 95.91"/><polygon class="cls-3" points="144.3 -198.17 162.95 -164.24 -279.01 78.69 -349 44.76 144.3 -198.17"/><rect class="cls-3" x="339.23" y="-311.9" width="38.72" height="504.32" transform="translate(238.21 283.29) rotate(-61.2)"/><polygon class="cls-4" points="330.97 1071.71 -37.67 989.62 -37.67 81.97 330.97 164.06 330.97 1071.71"/><path class="cls-5" d="M133.78,379.84A88.63,88.63,0,0,1,204,293.16,92.53,92.53,0,1,0,206.28,467,88.64,88.64,0,0,1,133.78,379.84Z"/></g><path class="cls-6" d="M1247.39,862.41c0,32.67.6,38.13-36.63,38.13-37.84,0-36.64-5.46-36.64-38.13s-10.21-59.16,36.64-59.16C1258.8,803.25,1247.39,829.74,1247.39,862.41Z"/><ellipse class="cls-3" cx="1210.16" cy="814.06" rx="20.72" ry="5.71"/><path class="cls-6" d="M1454.81,860.82c0,14.75-17.89,27.57-70.77,29.19-15.45.47-35.83,8.4-61.88,8.4-23.56,0-41.19-8-56-8.4-58.68-1.44-57.35,1.38-57.35-13.84,0-16.66-24.86-37.58,65.83-40.81,13.07-.47,29.25,6.3,47.5,6.3,17.8,0,58.11,3.26,71,3.69C1488,848.45,1454.81,844,1454.81,860.82Z"/><path class="cls-7" d="M1449.3,775.23c25.3-42.62,18.94,13.39,23.9,16.33,4.48,2.67-55.11,128.66-70.68,147.31-21.51,25.76-68.65,12.46-70.38,9.79C1319.42,929,1420.52,823.7,1449.3,775.23Z"/><path class="cls-6" d="M1377,917.28c30,13,35.22,14.65,20.38,48.8-15.07,34.7-19.61,31.42-49.57,18.4s-58.32-14.21-39.66-57.17C1327.24,883.25,1347,904.26,1377,917.28Z"/><ellipse class="cls-3" cx="1317.78" cy="932.17" rx="20.72" ry="5.71" transform="translate(-62.27 1769.39) rotate(-66.52)"/><path class="cls-7" d="M1253.28,855.58c10,10.82,7.5,9.71,38.21-16.51,9-7.66,25.78-12.4,40.37-25.9,13.2-12.21,17.61-27.25,25.65-35.18,31.89-31.47,43.32-41.81,40.39-46.94-14.51-25.42-29.26-33.4-82.26,11.22-7.63,6.43-12.1,19.79-22.32,29.25-10,9.22-23,12.09-29.92,19.09C1212.4,842,1241.88,843.26,1253.28,855.58Z"/><path class="cls-7" d="M1673.59,903.83c-1.59,14.66-.32,12.25-37.72,9.83-10.94-.71-26.14,5.62-44.48,3.63-16.59-1.8-28.14-11.14-38.51-12.63-41.17-5.91-40.53-3-38.89-18.13,1.79-16.56-16.61-27.94,47.6-24.24,9.25.54,15.2-10.66,35.92-1.42,11.51,5.14,23.86-4.18,32.9-2.77C1696.85,868.42,1675.39,887.15,1673.59,903.83Z"/><path class="cls-7" d="M1717.29,864.07c16.33,28.3,19.58,32.73-12.67,51.34-32.77,18.9-34.46,13.57-50.79-14.73s-38.4-46.14,2.17-69.54C1697.62,807.13,1701,835.77,1717.29,864.07Z"/><ellipse class="cls-3" cx="1660.89" cy="840.8" rx="20.72" ry="5.71" transform="translate(-197.92 942.47) rotate(-29.98)"/><path d="M647.48,63.75a1,1,0,0,1,1.07-.79h1.05a.69.69,0,0,1,.63.33,1.07,1.07,0,0,1,.08.82l-6.14,24.13a1,1,0,0,1-1.08.79H642a.68.68,0,0,1-.62-.32,1,1,0,0,1-.1-.79Z"/><path d="M663.26,70.52h.55a3.35,3.35,0,0,1,2.27.93,7.19,7.19,0,0,1,1.68,2.28.76.76,0,0,1-.24,1.12l-1.09.61c-.51.36-.86.29-1.08-.19l-.29-.67a5.45,5.45,0,0,0-.41-.86,2.57,2.57,0,0,0-.55-.58,2,2,0,0,0-.91-.41A3.14,3.14,0,0,0,661.48,74a4.54,4.54,0,0,0-.8,2.87,1.35,1.35,0,0,0,.38,1.1,3.43,3.43,0,0,0,1.37.53l1,.21c1.46.32,2.2,1.54,2.2,3.66a9.11,9.11,0,0,1-1.41,4.38,6.24,6.24,0,0,1-1.83,2,4.29,4.29,0,0,1-2.51.81h-.27a3.52,3.52,0,0,1-2.44-1,5.87,5.87,0,0,1-1.51-2c-.29-.67-.29-1.17,0-1.51l.79-.66a1,1,0,0,1,.8-.33c.29,0,.48.23.59.63a3.93,3.93,0,0,0,.88,1.45,2.06,2.06,0,0,0,1.33.89,2.91,2.91,0,0,0,1.87-1.28,4.32,4.32,0,0,0,.79-2.54,3.91,3.91,0,0,0-.27-1.84,2,2,0,0,0-1.23-.61l-.8-.18a3.17,3.17,0,0,1-1.95-1.16,4,4,0,0,1-.57-2.25,7.2,7.2,0,0,1,1.67-4.49A4.72,4.72,0,0,1,663.26,70.52Z"/><path d="M669.08,89H668a.43.43,0,0,1-.4-.29.83.83,0,0,1,0-.64l6.61-25.59a1.07,1.07,0,0,1,1.15-.79h.88c.7,0,1,.28.83.86l-3.77,13.94-.95,3.77,3.37-5.62a11.07,11.07,0,0,1,2.47-2.93,3.79,3.79,0,0,1,2.18-1h.76a1.8,1.8,0,0,1,.88.19,1.46,1.46,0,0,1,.53.88,3.72,3.72,0,0,1-.2,2l-4,14.68a.55.55,0,0,1-.58.51h-1.89c-.36,0-.46-.28-.3-.86l3.81-12.36a5.91,5.91,0,0,0,.26-1.27c0-.21-.08-.31-.23-.31a.92.92,0,0,0-.58.33,7.9,7.9,0,0,0-.93,1.2l-1.61,2.57c-.64,1-1.21,1.93-1.7,2.7s-1.19,1.86-2.08,3.28-1.71,2.83-2.44,4.26A1.08,1.08,0,0,1,669.08,89Z"/><path d="M683,83.81a20.87,20.87,0,0,1,2.42-9.12c1.5-2.87,3.42-4.28,5.74-4.24A3.38,3.38,0,0,1,694,72.26a7.08,7.08,0,0,1,.62,4,19.53,19.53,0,0,1-2.93,9.86q-1.92,3.33-5.16,3.2a3.12,3.12,0,0,1-2.14-1Q682.87,86.9,683,83.81Zm6.16,1.43a17.08,17.08,0,0,0,2.56-8.67,9.81,9.81,0,0,0-.22-2.84,1,1,0,0,0-1.05-.75,1.88,1.88,0,0,0-1.46.76,9.1,9.1,0,0,0-1.28,2.16A18.16,18.16,0,0,0,686,83.44q-.08,3.25,1.11,3.36C687.75,86.82,688.44,86.3,689.13,85.24Z"/><path d="M704.79,79.51,701.5,85a10.74,10.74,0,0,1-2.27,3,3.34,3.34,0,0,1-2,1H697a1.91,1.91,0,0,1-1.71-1.22,4.34,4.34,0,0,1-.07-3.17l3.67-13.4a.54.54,0,0,1,.56-.49h1.88c.37,0,.46.29.28.86l-3.64,12.48a2.56,2.56,0,0,0-.07,1.44c.27.39.84-.15,1.69-1.61s3.32-5.69,7.38-12.68a1,1,0,0,1,.88-.49h1.36c.15,0,.27.09.37.28a.9.9,0,0,1,0,.65L705.1,88.1q-.2.93-.75.93h-1.47c-.58,0-.77-.35-.58-1Z"/><path d="M718.48,62.5l-6.56,25.74a1,1,0,0,1-1.09.79h-.6c-.89,0-1.24-.38-1.05-1.16l6.59-25.36a1,1,0,0,1,1.07-.79h.83Q718.69,61.72,718.48,62.5Z"/><path d="M732.14,62.6,725.3,86.35a12.8,12.8,0,0,0,2.16-2.43c.26-.39.55-.47.89-.25l.87.58c.38.26.44.56.17.9a19.24,19.24,0,0,1-2.71,2.68,7.35,7.35,0,0,1-3,1.34.5.5,0,0,1-.66-.38l-.71-2a9,9,0,0,1-1.56,1.67,2.39,2.39,0,0,1-1.35.67h-.07c-.47,0-1.09-.4-1.87-1.19a3.74,3.74,0,0,1-1.19-2.56,21.61,21.61,0,0,1,1.59-7.31c1.08-3,2.09-5,3-5.9a4.68,4.68,0,0,1,3.5-1.36,4.35,4.35,0,0,1,2.27.65l2.41-9a1.09,1.09,0,0,1,1.18-.79h1C732,61.72,732.31,62,732.14,62.6Zm-6,10.88a2.67,2.67,0,0,0-3-.15,8.4,8.4,0,0,0-2.3,3.84,40.89,40.89,0,0,0-1.6,5.22,5.8,5.8,0,0,0-.14,3.11c.24.57.63.62,1.18.14a9.06,9.06,0,0,0,3-3.94A56.54,56.54,0,0,0,726.16,73.48Z"/><path d="M734.56,80.9l3.74-6.21a11.17,11.17,0,0,1,2.45-3,3.77,3.77,0,0,1,2.16-1h.75a1.9,1.9,0,0,1,.91.19,1.5,1.5,0,0,1,.52.88,3.72,3.72,0,0,1-.2,2l-4,14.68a.56.56,0,0,1-.58.51h-1.88c-.36,0-.45-.28-.29-.86l3.78-12.36a6,6,0,0,0,.29-1.27c0-.21-.09-.31-.25-.31a1,1,0,0,0-.59.33,6.77,6.77,0,0,0-.92,1.19q-.69,1-1.65,2.55c-.65,1-1.46,2.34-2.45,3.87-1.87,2.83-3.21,5-4,6.38a1,1,0,0,1-.9.48h-1c-.15,0-.27-.09-.38-.29a.83.83,0,0,1,0-.64l4.36-16.42q.2-.93.75-.93h1.54c.59,0,.79.36.61,1.07Z"/><path d="M752.82,60.08a16.24,16.24,0,0,1-2.58,8.1c-.6,1-1.2,1.55-1.81,1.55-.28,0-.43-.15-.44-.46a5.62,5.62,0,0,1,.54-1.81,13.36,13.36,0,0,0,.82-3q.27-1.67.42-4,0-.62.75-.81l1.44-.32C752.54,59.27,752.82,59.51,752.82,60.08Z"/><path d="M761.08,65.2l-1.42,5.55h1.86c.53,0,.71.26.55.78l-.25.92a1,1,0,0,1-1,.78H759l-3.82,15a1,1,0,0,1-1.09.79h-.66a1,1,0,0,1-.82-.32,1,1,0,0,1-.13-.84l3.74-14.64h-1.44c-.48,0-.63-.28-.46-.85l.28-.95a.82.82,0,0,1,.79-.68h1.45l1.44-5.59a1,1,0,0,1,1.08-.79h.91C761,64.37,761.22,64.65,761.08,65.2Z"/><path d="M768.36,89h-1.08a.43.43,0,0,1-.4-.29.83.83,0,0,1,0-.64l6.61-25.59a1.07,1.07,0,0,1,1.15-.79h.88c.7,0,1,.28.84.86l-3.78,13.94-1,3.77L775,74.67a11.07,11.07,0,0,1,2.47-2.93,3.82,3.82,0,0,1,2.18-1h.76a1.8,1.8,0,0,1,.88.19,1.46,1.46,0,0,1,.53.88,3.72,3.72,0,0,1-.2,2l-4,14.68A.55.55,0,0,1,777,89h-1.89c-.36,0-.46-.28-.3-.86l3.81-12.36a5.91,5.91,0,0,0,.26-1.27c0-.21-.07-.31-.23-.31a.94.94,0,0,0-.58.33,7.9,7.9,0,0,0-.93,1.2c-.42.68-1,1.53-1.6,2.57L773.83,81c-.49.77-1.19,1.86-2.08,3.28s-1.71,2.83-2.44,4.26A1.08,1.08,0,0,1,768.36,89Z"/><path d="M792.76,71.47c.09-.56.37-.84.83-.84l.82,0c.88,0,1.2.46,1,1.3l-4.32,14.38a10.42,10.42,0,0,0,2.23-2.39c.27-.39.57-.47.9-.25l.87.59a.56.56,0,0,1,.18.9,18.48,18.48,0,0,1-2.72,2.7,7.37,7.37,0,0,1-2.94,1.35.53.53,0,0,1-.65-.39l-.67-2a8.6,8.6,0,0,1-1.74,1.85,2.23,2.23,0,0,1-1.11.51h-.07a1.8,1.8,0,0,1-.88-.42,5.81,5.81,0,0,1-1.17-1.08,4.06,4.06,0,0,1-.84-1.46,7.35,7.35,0,0,1,0-2.87,31.23,31.23,0,0,1,1.64-5.83,15.29,15.29,0,0,1,2.78-5.22,4.67,4.67,0,0,1,3.57-1.44A4.44,4.44,0,0,1,792.76,71.47Zm-.54,1.9q-1.92-1-3.12,0a10.34,10.34,0,0,0-2.36,4.21,34,34,0,0,0-1.49,5A10.81,10.81,0,0,0,785,85a1.09,1.09,0,0,0,.63,1c.39.2,1-.19,1.92-1.19a13,13,0,0,0,2.36-4.07C790.54,79,791.33,76.54,792.22,73.37Z"/><path d="M800.71,85.64a53.67,53.67,0,0,0,5.59-14.36.83.83,0,0,1,1-.69l1,.09c.66.12.92.42.76.9A59.71,59.71,0,0,1,802.52,87c-.91,1.39-1.7,2.08-2.35,2l-1-.07c-.74,0-1.07-.63-1-1.76a122.48,122.48,0,0,0-.11-15.13c0-.88.24-1.32.85-1.32h1a.76.76,0,0,1,.85.83A98,98,0,0,1,800.71,85.64Z"/><path d="M811.24,84c-.33,1.78,0,2.77,1,3a9.63,9.63,0,0,0,3.26-2.73.55.55,0,0,1,.71-.07l.68.43a.68.68,0,0,1,.32.8,9.47,9.47,0,0,1-2.53,2.78q-1.85,1.47-3,1.26a3.59,3.59,0,0,1-3-2.69c-.34-1.83,0-4.31.89-7.47a16,16,0,0,1,3.93-7.13A5.68,5.68,0,0,1,815.7,71a4,4,0,0,1,2.78.22c1,.41,1.45,1.58,1.44,3.52a7.82,7.82,0,0,1-2.54,5.47A15.65,15.65,0,0,1,811.24,84Zm.43-2.3A12.08,12.08,0,0,0,814.55,80a8,8,0,0,0,2-2.35,5.78,5.78,0,0,0,.78-2.85c0-1-.28-1.46-.84-1.46-1.09,0-2.05.9-2.87,2.7A29.38,29.38,0,0,0,811.67,81.72Z"/><path d="M828.92,84c-.33,1.78,0,2.77,1,3a9.61,9.61,0,0,0,3.25-2.73.56.56,0,0,1,.72-.07l.68.43c.31.25.42.51.31.8a9.47,9.47,0,0,1-2.53,2.78q-1.85,1.47-3,1.26a3.59,3.59,0,0,1-3-2.69c-.34-1.83,0-4.31.9-7.47a16,16,0,0,1,3.92-7.13,5.65,5.65,0,0,1,2.2-1.21,4,4,0,0,1,2.77.22c1,.41,1.45,1.58,1.44,3.52a7.8,7.8,0,0,1-2.53,5.47A15.76,15.76,0,0,1,828.92,84Zm.44-2.3A12.21,12.21,0,0,0,832.23,80a8.05,8.05,0,0,0,2-2.35,5.87,5.87,0,0,0,.77-2.85c0-1-.28-1.46-.83-1.46q-1.65,0-2.88,2.7A29.35,29.35,0,0,0,829.36,81.72Z"/><path d="M848.08,71.47c.09-.56.37-.84.83-.84l.82,0c.88,0,1.2.46,1,1.3l-4.33,14.38a10.44,10.44,0,0,0,2.24-2.39c.27-.39.57-.47.89-.25l.88.59a.56.56,0,0,1,.18.9,19,19,0,0,1-2.72,2.7,7.43,7.43,0,0,1-2.94,1.35.53.53,0,0,1-.65-.39l-.67-2a8.6,8.6,0,0,1-1.74,1.85,2.23,2.23,0,0,1-1.11.51h-.07a1.86,1.86,0,0,1-.89-.42,6.39,6.39,0,0,1-1.17-1.08,4.18,4.18,0,0,1-.83-1.46,7.35,7.35,0,0,1,0-2.87,31.23,31.23,0,0,1,1.64-5.83,15.29,15.29,0,0,1,2.78-5.22,4.65,4.65,0,0,1,3.56-1.44A4.44,4.44,0,0,1,848.08,71.47Zm-.55,1.9q-1.9-1-3.12,0a10.47,10.47,0,0,0-2.35,4.21,34.31,34.31,0,0,0-1.5,5,12.15,12.15,0,0,0-.29,2.46,1.12,1.12,0,0,0,.64,1c.38.2,1-.19,1.92-1.19a13.15,13.15,0,0,0,2.36-4.07Q846.2,78.13,847.53,73.37Z"/><path d="M859.94,65.2l-1.42,5.55h1.86c.53,0,.71.26.55.78l-.25.92a1,1,0,0,1-.95.78h-1.86l-3.82,15A1,1,0,0,1,853,89h-.66a1,1,0,0,1-.82-.32,1,1,0,0,1-.13-.84l3.74-14.64h-1.44c-.48,0-.63-.28-.46-.85l.28-.95a.82.82,0,0,1,.79-.68h1.44l1.45-5.59a1,1,0,0,1,1.08-.79h.91C859.81,64.37,860.08,64.65,859.94,65.2Z"/><path d="M861.67,84c-.33,1.78,0,2.77,1,3a9.71,9.71,0,0,0,3.25-2.73.55.55,0,0,1,.71-.07l.69.43a.69.69,0,0,1,.31.8,9.47,9.47,0,0,1-2.53,2.78q-1.85,1.47-3,1.26a3.59,3.59,0,0,1-3-2.69c-.34-1.83,0-4.31.9-7.47a16,16,0,0,1,3.92-7.13A5.68,5.68,0,0,1,866.13,71a4,4,0,0,1,2.78.22c1,.41,1.45,1.58,1.44,3.52a7.84,7.84,0,0,1-2.53,5.47A15.76,15.76,0,0,1,861.67,84Zm.43-2.3A12.08,12.08,0,0,0,865,80a7.87,7.87,0,0,0,2-2.35,5.78,5.78,0,0,0,.78-2.85c0-1-.28-1.46-.84-1.46-1.09,0-2,.9-2.87,2.7A30.08,30.08,0,0,0,862.1,81.72Z"/><path d="M874.71,80.9l3.74-6.21a11.17,11.17,0,0,1,2.45-3,3.77,3.77,0,0,1,2.16-1h.75a1.9,1.9,0,0,1,.91.19,1.56,1.56,0,0,1,.53.88,3.84,3.84,0,0,1-.21,2l-4,14.68a.56.56,0,0,1-.58.51h-1.88c-.35,0-.45-.28-.28-.86l3.77-12.36a6,6,0,0,0,.29-1.27c0-.21-.09-.31-.25-.31a1,1,0,0,0-.59.33,6.77,6.77,0,0,0-.92,1.19q-.69,1-1.65,2.55c-.65,1-1.46,2.34-2.45,3.87-1.87,2.83-3.21,5-4,6.38a1,1,0,0,1-.9.48h-1.05c-.15,0-.27-.09-.38-.29a.83.83,0,0,1,0-.64l4.36-16.42c.13-.62.38-.93.76-.93h1.53c.59,0,.79.36.61,1.07Z"/><path d="M900.84,65.2l-1.42,5.55h1.87q.8,0,.54.78l-.24.92a1,1,0,0,1-1,.78h-1.87l-3.82,15a1,1,0,0,1-1.08.79h-.67a1,1,0,0,1-.82-.32,1.06,1.06,0,0,1-.13-.84L896,73.23h-1.44c-.48,0-.63-.28-.45-.85l.28-.95a.81.81,0,0,1,.79-.68h1.44l1.44-5.59a1,1,0,0,1,1.08-.79h.92C900.72,64.37,901,64.65,900.84,65.2Z"/><path d="M901.66,89h-1.08a.42.42,0,0,1-.4-.29.83.83,0,0,1,0-.64l6.61-25.59a1.08,1.08,0,0,1,1.16-.79h.87c.7,0,1,.28.84.86l-3.77,13.94-1,3.77,3.36-5.62a11.08,11.08,0,0,1,2.48-2.93,3.79,3.79,0,0,1,2.18-1h.75a1.84,1.84,0,0,1,.89.19,1.51,1.51,0,0,1,.53.88,3.84,3.84,0,0,1-.21,2l-4,14.68a.56.56,0,0,1-.58.51h-1.89c-.37,0-.47-.28-.3-.86l3.81-12.36a6.65,6.65,0,0,0,.26-1.27c0-.21-.08-.31-.24-.31a.94.94,0,0,0-.58.33,8,8,0,0,0-.92,1.2l-1.61,2.57c-.65,1-1.21,1.93-1.71,2.7l-2.07,3.28c-.9,1.41-1.71,2.83-2.45,4.26A1.06,1.06,0,0,1,901.66,89Z"/><path d="M926.06,71.47c.09-.56.37-.84.82-.84l.83,0c.88,0,1.2.46,1,1.3l-4.33,14.38a10.21,10.21,0,0,0,2.23-2.39c.27-.39.57-.47.9-.25l.88.59a.56.56,0,0,1,.17.9,18.47,18.47,0,0,1-2.71,2.7,7.48,7.48,0,0,1-3,1.35.54.54,0,0,1-.65-.39l-.66-2a8.6,8.6,0,0,1-1.74,1.85,2.23,2.23,0,0,1-1.11.51h-.07a1.82,1.82,0,0,1-.89-.42,6.39,6.39,0,0,1-1.17-1.08,4,4,0,0,1-.83-1.46,7.49,7.49,0,0,1,0-2.87,31.42,31.42,0,0,1,1.65-5.83,15.3,15.3,0,0,1,2.77-5.22,4.67,4.67,0,0,1,3.57-1.44A4.44,4.44,0,0,1,926.06,71.47Zm-.55,1.9q-1.92-1-3.12,0A10.35,10.35,0,0,0,920,77.58a34.31,34.31,0,0,0-1.5,5,11.44,11.44,0,0,0-.29,2.46,1.13,1.13,0,0,0,.63,1c.39.2,1-.19,1.93-1.19a13,13,0,0,0,2.35-4.07Q924.18,78.13,925.51,73.37Z"/><path d="M937.91,65.2l-1.42,5.55h1.87c.53,0,.71.26.55.78l-.25.92a1,1,0,0,1-.95.78h-1.87l-3.81,15a1,1,0,0,1-1.09.79h-.67a.94.94,0,0,1-.81-.32,1,1,0,0,1-.13-.84l3.74-14.64h-1.45c-.48,0-.63-.28-.45-.85l.28-.95a.81.81,0,0,1,.79-.68h1.44l1.45-5.59a1,1,0,0,1,1.07-.79h.92C937.79,64.37,938.05,64.65,937.91,65.2Z"/><path d="M959.83,62.6,953,86.35a12.8,12.8,0,0,0,2.16-2.43c.26-.39.55-.47.89-.25l.87.58c.38.26.44.56.17.9a19.24,19.24,0,0,1-2.71,2.68,7.35,7.35,0,0,1-3,1.34.5.5,0,0,1-.66-.38l-.71-2a9,9,0,0,1-1.56,1.67,2.39,2.39,0,0,1-1.35.67h-.07c-.47,0-1.09-.4-1.87-1.19A3.74,3.74,0,0,1,944,85.39a21.61,21.61,0,0,1,1.59-7.31c1.08-3,2.09-5,3-5.9a4.68,4.68,0,0,1,3.5-1.36,4.35,4.35,0,0,1,2.27.65l2.41-9a1.09,1.09,0,0,1,1.18-.79h1C959.71,61.72,960,62,959.83,62.6Zm-6,10.88a2.67,2.67,0,0,0-3-.15,8.4,8.4,0,0,0-2.3,3.84,39.33,39.33,0,0,0-1.6,5.22,5.8,5.8,0,0,0-.14,3.11c.24.57.63.62,1.18.14a9.06,9.06,0,0,0,3-3.94A56.54,56.54,0,0,0,953.85,73.48Z"/><path d="M968.37,71.47c.09-.56.37-.84.82-.84l.83,0c.88,0,1.2.46,1,1.3l-4.33,14.38a10.21,10.21,0,0,0,2.23-2.39c.27-.39.57-.47.9-.25l.88.59a.57.57,0,0,1,.18.9,19,19,0,0,1-2.72,2.7,7.5,7.5,0,0,1-2.94,1.35.54.54,0,0,1-.66-.39l-.66-2a8.6,8.6,0,0,1-1.74,1.85,2.23,2.23,0,0,1-1.11.51H961a1.82,1.82,0,0,1-.89-.42,6.39,6.39,0,0,1-1.17-1.08,4.18,4.18,0,0,1-.83-1.46,7.49,7.49,0,0,1,0-2.87,31.42,31.42,0,0,1,1.65-5.83,15.3,15.3,0,0,1,2.77-5.22,4.67,4.67,0,0,1,3.57-1.44A4.44,4.44,0,0,1,968.37,71.47Zm-.55,1.9q-1.92-1-3.12,0a10.35,10.35,0,0,0-2.35,4.21,34.31,34.31,0,0,0-1.5,5,11.44,11.44,0,0,0-.29,2.46,1.13,1.13,0,0,0,.63,1c.39.2,1-.19,1.93-1.19a13.15,13.15,0,0,0,2.36-4.07Q966.48,78.13,967.82,73.37Z"/><path d="M978.1,71.51l-4.36,16.74a1,1,0,0,1-1.07.78h-1.06c-.68,0-.94-.27-.8-.82l4.39-16.74a.92.92,0,0,1,1-.72h1.19a.87.87,0,0,1,.63.16C978.14,71,978.16,71.22,978.1,71.51Zm-.66-6.24h.33a1.51,1.51,0,0,1,1.11.54,1.77,1.77,0,0,1,.51,1.25,1.59,1.59,0,0,1-.53,1.2,1.81,1.81,0,0,1-1.32.5h-.28a1.48,1.48,0,0,1-1.1-.51,1.79,1.79,0,0,1,0-2.46A1.65,1.65,0,0,1,977.44,65.27Z"/><path d="M984.2,75.57a33.24,33.24,0,0,1,2.12-3.1,8.28,8.28,0,0,1,1.42-1.53,2.91,2.91,0,0,1,1.58-.31h.35q1.05,0,.72.81a3.43,3.43,0,0,1-.88,1,17.92,17.92,0,0,0-1.91,2.16,5.11,5.11,0,0,0-1.2,2,2.45,2.45,0,0,0,.89,1.78.3.3,0,0,1,.13.37.5.5,0,0,1-.37.28l-1.37.24a1.13,1.13,0,0,1-.89-.12,6.28,6.28,0,0,1-1.06-1.63L981,88.25a1,1,0,0,1-1.1.78h-1c-.68,0-1-.27-.8-.82l4.4-16.74a.91.91,0,0,1,1-.72h1.11a.88.88,0,0,1,.63.16q.17.16.06.6Z"/><path d="M1001.25,70.75h1.36c.15,0,.27.09.37.28a.9.9,0,0,1,0,.65l-5.29,19.14c-.57,2.22-1.51,3.68-2.83,4.4a9,9,0,0,1-1.16.58c-.48.21-1.18,0-2.11-.55L988,93.18a.78.78,0,0,1-.51-.64.81.81,0,0,1,.21-.66l.54-.76a1,1,0,0,1,1.2-.3l4,2.47q.79.42,1.2-1L998,79.94l-.82,1.59-2.11,3.57a10.88,10.88,0,0,1-2.31,3,3.46,3.46,0,0,1-2.09,1h-.21a1.66,1.66,0,0,1-1.26-.54,3.9,3.9,0,0,1-.56-3.85l3.68-13.4a.57.57,0,0,1,.56-.49h1.88c.36,0,.46.29.28.86l-3.64,12.48c-.19.75-.21,1.22-.07,1.41.27.41.88-.09,1.83-1.51s3.36-5.67,7.24-12.75A1,1,0,0,1,1001.25,70.75Z"/><path d="M1006.86,85.29a16.24,16.24,0,0,1-2.58,8.1c-.6,1-1.2,1.55-1.81,1.55-.28,0-.43-.16-.44-.47a5.75,5.75,0,0,1,.53-1.8,13.44,13.44,0,0,0,.83-3,39,39,0,0,0,.41-4c0-.41.26-.68.76-.81l1.44-.31C1006.58,84.47,1006.86,84.71,1006.86,85.29Z"/><path d="M635.35,127a20.87,20.87,0,0,1,2.42-9.12c1.5-2.87,3.42-4.28,5.74-4.24a3.38,3.38,0,0,1,2.82,1.81,7.08,7.08,0,0,1,.62,4,19.43,19.43,0,0,1-2.93,9.86q-1.92,3.33-5.16,3.2a3.12,3.12,0,0,1-2.14-1Q635.25,130.1,635.35,127Zm6.17,1.43a17.07,17.07,0,0,0,2.55-8.67,9.81,9.81,0,0,0-.22-2.84,1,1,0,0,0-1.05-.75,1.88,1.88,0,0,0-1.46.76,9.1,9.1,0,0,0-1.28,2.16,18.16,18.16,0,0,0-1.72,7.54q-.08,3.26,1.11,3.36Q640.47,130,641.52,128.44Z"/><path d="M653.34,118.77a35.3,35.3,0,0,1,2.12-3.1,8.22,8.22,0,0,1,1.43-1.53,2.87,2.87,0,0,1,1.57-.31h.35q1.05,0,.72.81a3.29,3.29,0,0,1-.88,1,18,18,0,0,0-1.9,2.16,5.13,5.13,0,0,0-1.21,2,2.43,2.43,0,0,0,.9,1.78.29.29,0,0,1,.12.37.5.5,0,0,1-.37.28l-1.37.24a1.14,1.14,0,0,1-.89-.12,6.89,6.89,0,0,1-1.06-1.63l-2.76,10.69a1,1,0,0,1-1.09.78h-1c-.68,0-.94-.27-.79-.82l4.39-16.74a.92.92,0,0,1,1-.72h1.11a.91.91,0,0,1,.64.16.67.67,0,0,1,0,.6Z"/><path d="M672.85,108.4,671.43,114h1.87c.53,0,.71.26.55.78l-.25.92a1,1,0,0,1-1,.78h-1.87l-3.81,15a1,1,0,0,1-1.09.79h-.67a.94.94,0,0,1-.81-.32,1,1,0,0,1-.13-.84L668,116.43h-1.45c-.48,0-.63-.28-.45-.85l.28-1a.81.81,0,0,1,.79-.68h1.44l1.45-5.59a1,1,0,0,1,1.07-.79h.92C672.73,107.57,673,107.85,672.85,108.4Z"/><path d="M673.67,132.23h-1.08a.43.43,0,0,1-.4-.29.79.79,0,0,1,0-.64l6.61-25.59a1.07,1.07,0,0,1,1.15-.79h.87c.7,0,1,.29.84.86l-3.77,13.94-1,3.77,3.37-5.62a10.88,10.88,0,0,1,2.47-2.93,3.79,3.79,0,0,1,2.18-1h.75a1.84,1.84,0,0,1,.89.19,1.51,1.51,0,0,1,.53.88,3.82,3.82,0,0,1-.2,2l-4,14.68a.55.55,0,0,1-.58.51h-1.89c-.36,0-.46-.28-.3-.86L683.93,119a6.65,6.65,0,0,0,.26-1.27c0-.21-.08-.31-.24-.31a1,1,0,0,0-.58.33,8.74,8.74,0,0,0-.92,1.2l-1.61,2.57c-.64,1-1.21,1.93-1.7,2.7s-1.19,1.86-2.08,3.28-1.71,2.83-2.45,4.26A1.06,1.06,0,0,1,673.67,132.23Z"/><path d="M698.07,114.67c.09-.56.37-.84.82-.84l.83,0c.88,0,1.2.46,1,1.3l-4.33,14.38a10.44,10.44,0,0,0,2.24-2.39c.26-.39.56-.47.89-.25l.88.59a.56.56,0,0,1,.18.9,19,19,0,0,1-2.72,2.7,7.5,7.5,0,0,1-2.94,1.35.53.53,0,0,1-.65-.39l-.67-2a8.6,8.6,0,0,1-1.74,1.85,2.23,2.23,0,0,1-1.11.51h-.07a1.82,1.82,0,0,1-.89-.42,6.39,6.39,0,0,1-1.17-1.08,4.18,4.18,0,0,1-.83-1.46,7.49,7.49,0,0,1,0-2.87,31.42,31.42,0,0,1,1.65-5.83,15.48,15.48,0,0,1,2.77-5.22,4.67,4.67,0,0,1,3.57-1.44A4.44,4.44,0,0,1,698.07,114.67Zm-.55,1.9q-1.9-1-3.12,0a10.35,10.35,0,0,0-2.35,4.21,34.31,34.31,0,0,0-1.5,5,11.44,11.44,0,0,0-.29,2.46,1.12,1.12,0,0,0,.64.95c.38.2,1-.19,1.92-1.19a13.15,13.15,0,0,0,2.36-4.07Q696.19,121.33,697.52,116.57Z"/><path d="M709.92,108.4,708.5,114h1.87c.53,0,.71.26.55.78l-.25.92a1,1,0,0,1-.95.78h-1.87l-3.81,15a1,1,0,0,1-1.09.79h-.67a1,1,0,0,1-.81-.32,1,1,0,0,1-.13-.84l3.74-14.64h-1.44c-.48,0-.64-.28-.46-.85l.28-1a.82.82,0,0,1,.79-.68h1.44l1.45-5.59a1,1,0,0,1,1.07-.79h.92C709.8,107.57,710.06,107.85,709.92,108.4Z"/><path d="M727.39,116c.38.41.43.78.14,1.12l-.6.69c-.41.45-.77.51-1.09.17l-.39-.44c-.86-.88-1.55-1.26-2.05-1.14-.87.16-1.78,1.09-2.74,2.77a19,19,0,0,0-2.07,5.2,11.38,11.38,0,0,0-.31,4.47,1.22,1.22,0,0,0,.67.8,1.37,1.37,0,0,0,.91.29,8.52,8.52,0,0,0,2.41-2.16c.27-.36.66-.38,1.16-.07l.55.35q1.14.69-2,3.19a6.34,6.34,0,0,1-2,1.3,3.36,3.36,0,0,1-2.19-.53,3.75,3.75,0,0,1-1.8-1.46q-1-2.2,0-6.25a19.82,19.82,0,0,1,2.39-6.2,14.83,14.83,0,0,1,2.77-3.26,3.88,3.88,0,0,1,2.92-1A5.47,5.47,0,0,1,727.39,116Z"/><path d="M736.69,114.67c.09-.56.37-.84.82-.84l.83,0c.88,0,1.2.46,1,1.3L735,129.47a10.21,10.21,0,0,0,2.23-2.39c.27-.39.57-.47.9-.25l.88.59a.57.57,0,0,1,.18.9,19,19,0,0,1-2.72,2.7,7.5,7.5,0,0,1-2.94,1.35.54.54,0,0,1-.66-.39l-.66-2a8.6,8.6,0,0,1-1.74,1.85,2.23,2.23,0,0,1-1.11.51h-.07a1.82,1.82,0,0,1-.89-.42,6.39,6.39,0,0,1-1.17-1.08,4.18,4.18,0,0,1-.83-1.46,7.49,7.49,0,0,1,0-2.87,31.42,31.42,0,0,1,1.65-5.83,15.3,15.3,0,0,1,2.77-5.22A4.67,4.67,0,0,1,734.4,114,4.44,4.44,0,0,1,736.69,114.67Zm-.55,1.9q-1.92-1-3.12,0a10.35,10.35,0,0,0-2.35,4.21,34.31,34.31,0,0,0-1.5,5,11.44,11.44,0,0,0-.29,2.46,1.12,1.12,0,0,0,.64.95c.38.2,1-.19,1.92-1.19a13.15,13.15,0,0,0,2.36-4.07Q734.81,121.33,736.14,116.57Z"/><path d="M744.1,124.1l3.75-6.21a10.8,10.8,0,0,1,2.45-3,3.75,3.75,0,0,1,2.15-1h.76a1.85,1.85,0,0,1,.9.19,1.51,1.51,0,0,1,.53.88,3.82,3.82,0,0,1-.2,2l-4,14.68a.55.55,0,0,1-.58.51H748c-.35,0-.44-.28-.28-.86L751.45,119a5.77,5.77,0,0,0,.28-1.27c0-.21-.08-.31-.25-.31a.92.92,0,0,0-.58.33A7.21,7.21,0,0,0,750,119c-.45.65-1,1.51-1.65,2.55s-1.46,2.34-2.44,3.88c-1.88,2.82-3.21,5-4,6.37a1,1,0,0,1-.9.48h-1.05c-.14,0-.27-.09-.37-.29a.82.82,0,0,1,0-.64l4.36-16.42q.18-.93.75-.93h1.54c.59,0,.79.36.6,1.07Z"/><path d="M770.87,105.8,764,129.55a12.8,12.8,0,0,0,2.16-2.43c.26-.39.56-.47.9-.25l.86.58q.59.39.18.9A19.25,19.25,0,0,1,765.4,131a7.31,7.31,0,0,1-3,1.34.51.51,0,0,1-.67-.38l-.7-2a8.71,8.71,0,0,1-1.57,1.67,2.39,2.39,0,0,1-1.35.67h-.07c-.47,0-1.09-.4-1.86-1.19a3.76,3.76,0,0,1-1.2-2.56,22.11,22.11,0,0,1,1.59-7.31c1.08-3,2.1-5,3-5.9a4.69,4.69,0,0,1,3.51-1.36,4.32,4.32,0,0,1,2.26.65l2.41-9a1.1,1.1,0,0,1,1.18-.79h1C770.75,104.92,771,105.21,770.87,105.8Zm-6,10.88a2.63,2.63,0,0,0-3-.14q-1.21.85-2.31,3.83a42.57,42.57,0,0,0-1.6,5.22,5.91,5.91,0,0,0-.14,3.11c.24.57.64.62,1.19.14a9.13,9.13,0,0,0,3-3.94A54.21,54.21,0,0,0,764.88,116.68Z"/><path d="M781.73,114h1.36a.41.41,0,0,1,.37.28.9.9,0,0,1,0,.65L778.21,134c-.58,2.22-1.52,3.69-2.84,4.4a9.13,9.13,0,0,1-1.15.58c-.48.21-1.19,0-2.11-.54l-3.68-2.08a.8.8,0,0,1-.3-1.3l.55-.76a.94.94,0,0,1,1.19-.3l4,2.47q.79.42,1.2-1l3.42-12.36-.82,1.59-2.12,3.57a10.5,10.5,0,0,1-2.31,2.95,3.44,3.44,0,0,1-2.09,1h-.21a1.63,1.63,0,0,1-1.25-.54,3.88,3.88,0,0,1-.56-3.85l3.67-13.4c.1-.32.28-.49.57-.49h1.88c.36,0,.45.29.28.86l-3.64,12.48c-.19.75-.22,1.22-.08,1.41.27.41.88-.09,1.83-1.51s3.37-5.67,7.25-12.75A1,1,0,0,1,781.73,114Z"/><path d="M787.35,128.49a16.16,16.16,0,0,1-2.59,8.1c-.59,1-1.2,1.55-1.81,1.55-.28,0-.43-.16-.44-.47a5.59,5.59,0,0,1,.54-1.8,14,14,0,0,0,.83-3c.18-1.1.31-2.43.41-4q0-.62.75-.81l1.45-.31C787.06,127.67,787.35,127.91,787.35,128.49Z"/><path d="M807,108.4,805.54,114h1.86c.53,0,.71.26.55.78l-.25.92a1,1,0,0,1-1,.78h-1.87l-3.81,15a1,1,0,0,1-1.09.79h-.66a1,1,0,0,1-.82-.32,1,1,0,0,1-.13-.84l3.74-14.64h-1.44c-.48,0-.63-.28-.46-.85l.28-1a.82.82,0,0,1,.79-.68h1.44l1.45-5.59a1,1,0,0,1,1.08-.79h.91C806.83,107.57,807.1,107.85,807,108.4Z"/><path d="M806.12,127a20.87,20.87,0,0,1,2.42-9.12q2.25-4.31,5.75-4.24a3.38,3.38,0,0,1,2.82,1.81,7.1,7.1,0,0,1,.61,4,19.43,19.43,0,0,1-2.93,9.86q-1.92,3.33-5.16,3.2a3.08,3.08,0,0,1-2.13-1Q806,130.1,806.12,127Zm6.17,1.43a17,17,0,0,0,2.55-8.67,9.81,9.81,0,0,0-.22-2.84,1,1,0,0,0-1-.75,1.88,1.88,0,0,0-1.46.76,9.1,9.1,0,0,0-1.28,2.16,18.16,18.16,0,0,0-1.72,7.54q-.08,3.26,1.11,3.36Q811.24,130,812.29,128.44Z"/><path d="M818.18,127a20.87,20.87,0,0,1,2.42-9.12c1.5-2.87,3.42-4.28,5.74-4.24a3.38,3.38,0,0,1,2.82,1.81,7.08,7.08,0,0,1,.62,4,19.43,19.43,0,0,1-2.93,9.86q-1.92,3.33-5.16,3.2a3.12,3.12,0,0,1-2.14-1Q818.08,130.1,818.18,127Zm6.17,1.43a17.07,17.07,0,0,0,2.55-8.67,9.81,9.81,0,0,0-.22-2.84,1,1,0,0,0-1-.75,1.88,1.88,0,0,0-1.46.76,9.1,9.1,0,0,0-1.28,2.16,18.16,18.16,0,0,0-1.72,7.54q-.07,3.26,1.11,3.36Q823.3,130,824.35,128.44Z"/><path d="M833,128.84h.38a1.65,1.65,0,0,1,1.25.62,2.09,2.09,0,0,1,.56,1.45,1.93,1.93,0,0,1-.58,1.43,2,2,0,0,1-1.47.58h-.36a1.59,1.59,0,0,1-1.24-.6,2.18,2.18,0,0,1,0-2.88A1.88,1.88,0,0,1,833,128.84Z"/><path d="M1692.41,546a3.44,3.44,0,0,0,1,2.75V549a4.51,4.51,0,0,0,.39,1.54,6.32,6.32,0,0,1,.38,2.25,2,2,0,0,0,.56,1.69,2.6,2.6,0,0,1-.35.42.61.61,0,0,0-.21.42c0,.15.06.23.18.25a.23.23,0,0,1,.17.25l-.07.14a2.44,2.44,0,0,1-.07,1,3.64,3.64,0,0,0-.14,1,2.56,2.56,0,0,0,.07.67l-.56,1.19a2.88,2.88,0,0,1,.07.71,1.78,1.78,0,0,1-1.26,1.76,4.6,4.6,0,0,1,.07.91,5,5,0,0,1-.18,1.3,8.94,8.94,0,0,0-.25,1.37,1.17,1.17,0,0,0-.77,1.2,2,2,0,0,0-1,.74,6.93,6.93,0,0,1-.74.87,2.29,2.29,0,0,1-.56.46,1.45,1.45,0,0,0-.42.35,2.2,2.2,0,0,0-.35.6,2.69,2.69,0,0,1-.64,1c-.28.19-.42.37-.42.53a1.6,1.6,0,0,1-.42.78,3.78,3.78,0,0,1-1.44,1,5.18,5.18,0,0,0-1.72,1.23h-.22l-.77.28a2.44,2.44,0,0,0-.42.63c-.24.33-.77.43-1.62.29-.28.14-.6.31-1,.52a2.14,2.14,0,0,1-1.12.32c-.4,0-.6.08-.6.25s-.15.24-.46.24a1.25,1.25,0,0,0-.66.14h-.07l-1-.28a3.4,3.4,0,0,1-1.26.28l-1.76-.42a1.07,1.07,0,0,0-.42.14,1.17,1.17,0,0,0-.71-.42,1.64,1.64,0,0,1-.7-.28,1.77,1.77,0,0,0-.56.42h-.14l-1.34.07c-.52,0-.82-.16-.91-.49a2.07,2.07,0,0,1-1.73-.53,2.7,2.7,0,0,1-1.16-1.37h-.21l-.84-.28c-.14-.19-.28-.36-.42-.53a1.2,1.2,0,0,1-.28-.6,1.83,1.83,0,0,1-.92-.52,1.34,1.34,0,0,0-1-.39,1.21,1.21,0,0,0-.46-.63c-.21-.14-.41-.29-.6-.43a5.93,5.93,0,0,0-1.69-2.6c-.89-2.39-1.46-3.86-1.72-4.43a4.37,4.37,0,0,1-.38-1l.21-.7-.14-.36c0-.09,0-.14.07-.14s.07,0,.07-.14l-.29-1.61.15-1.06-.36-.77.5-2v-.84a1.52,1.52,0,0,1,.14-.67,6.61,6.61,0,0,0,.28-.92,6.72,6.72,0,0,0,.14-1.47,5.88,5.88,0,0,1,.21-1.62,2,2,0,0,1,.53-1c.21-.16.27-.52.17-1.09a6.88,6.88,0,0,0,1.16-2.14,8.55,8.55,0,0,0,.32-1.16.86.86,0,0,1,.21-.63.58.58,0,0,0,.32-.57.48.48,0,0,1,.17-.49,1.66,1.66,0,0,0,.42-.42,3.52,3.52,0,0,0,.43-.77,5,5,0,0,1,.56-1l.28-.14c.14-.42,1-1.19,2.6-2.32a.85.85,0,0,0,.25-.42.61.61,0,0,1,.17-.35,7.39,7.39,0,0,0,1.13-.49l.14-.28,1.12-.57.07-.28a.61.61,0,0,1,.36,0,2.51,2.51,0,0,0,1-.28,16,16,0,0,0,1.72-.92,3.57,3.57,0,0,1,1.86-.6c.59,0,.94-.07,1.06-.21a1,1,0,0,1,.56-.31,2.29,2.29,0,0,1,.88,0,.88.88,0,0,0,.84-.35h.07a.62.62,0,0,1,.56.42,3.55,3.55,0,0,1,1.55-.42c.47,0,.7,0,.7.1a.2.2,0,0,0,.14.18.3.3,0,0,0,.29,0,1.06,1.06,0,0,1,.42-.07c.18,0,.45.18.81.53a1.94,1.94,0,0,0,1.44.52l1.33-.07a2.46,2.46,0,0,1,1.34.32,2.63,2.63,0,0,0,1.12.39.24.24,0,0,1,.14.24.42.42,0,0,0,.15.32h.28a2,2,0,0,1,.45.46,1.55,1.55,0,0,0,.39.38l.7.43a3.13,3.13,0,0,1,.5.45,2,2,0,0,0,.56.46,1.59,1.59,0,0,1,.39.42,3.39,3.39,0,0,0,.38.53,2.14,2.14,0,0,0,.42.39,1.05,1.05,0,0,1,.36.45,1.57,1.57,0,0,1,.14.6,1.38,1.38,0,0,0,.14.6q.14.32.21.24s.07.06.07.32a2.46,2.46,0,0,0,.17.84,8.51,8.51,0,0,0,.46,1c.19.35.35.69.49,1s.28.52.42.56ZM1662,553l-.35,3.59a2.63,2.63,0,0,0,.1.81,5.27,5.27,0,0,1,.18,1,10.45,10.45,0,0,1,0,1.62,15,15,0,0,0,.11,2.14,6.07,6.07,0,0,0,.84,2.4,6.41,6.41,0,0,1,.85,2.67c.37.52.74,1,1.09,1.61s.71,1.11,1.09,1.62a5.55,5.55,0,0,0,3.09,2.39,3,3,0,0,0,2.88,1.41c.43,0,.66,0,.71.14h1l3.31.35a2,2,0,0,0,.8-.17,1.17,1.17,0,0,1,.74-.11,1.93,1.93,0,0,1,1.06-.53,5.54,5.54,0,0,0,1.19-.24c.1,0,.13-.15.11-.32a.25.25,0,0,1,.17-.32,2.46,2.46,0,0,1,.64-.07,1.68,1.68,0,0,1,1.12-1.05,4.26,4.26,0,0,0,1.51-.88l1.3-1.16a5.47,5.47,0,0,0,1.16-1.51,6.49,6.49,0,0,1,.88-1.3l.78-.71a.52.52,0,0,0,.14-.38c0-.17.15-.32.45-.46a1.29,1.29,0,0,0,.57-.39.42.42,0,0,0,.07-.31.27.27,0,0,1,.1-.28c.28-.1.41-.25.39-.46s0-.45,0-.7a.9.9,0,0,1,.25-.64.54.54,0,0,0,0-.67,1.33,1.33,0,0,0,.56-.94,4.47,4.47,0,0,1,.24-1.06,2,2,0,0,1,.43-.7,1.76,1.76,0,0,0,.38-.6,1.47,1.47,0,0,1-.14-.84v-.71a3.47,3.47,0,0,0,.64-1.86,3.4,3.4,0,0,0-.36-1.58,5.7,5.7,0,0,1-.42-2.36c0-1-.14-1.55-.42-1.79s-.42-.42-.42-.56v-.5l-.28-1.54a1.09,1.09,0,0,0-.32-.71,1.79,1.79,0,0,1-.42-.7,1.51,1.51,0,0,1,0-.7,1.74,1.74,0,0,0-.14-.92,1.55,1.55,0,0,0-.52-.77c-.22-.14-.32-.54-.32-1.19a1.37,1.37,0,0,1-.92-1.13,1.7,1.7,0,0,1-1.12-.88,1.87,1.87,0,0,0-.67-.81c-.21-.09-.33-.12-.35-.1a.31.31,0,0,1-.18,0h-.07l-.14-.35a1.56,1.56,0,0,0-.84-.28l-1.2.28a1.76,1.76,0,0,1-1.19-.49,1.66,1.66,0,0,0-1.06-.49,1.64,1.64,0,0,0-.84.21,1.06,1.06,0,0,1-.28-.46.73.73,0,0,0-.28-.39,1.73,1.73,0,0,1-.85-.28,3.54,3.54,0,0,0-.77-.42l-.28.07-1.41-.28a.46.46,0,0,0-.31.18.67.67,0,0,1-.53.14,1.83,1.83,0,0,0-.63,0,2.91,2.91,0,0,0-.5.18,2,2,0,0,1-.49.17,1.63,1.63,0,0,1-.7,0,1.38,1.38,0,0,0-.74.07,1.33,1.33,0,0,0-.49.36c-.12.14-.29.16-.53.07a1,1,0,0,0-.6.45c-.11.21-.66.32-1.65.32a5.68,5.68,0,0,1-2.88,2.39,1.54,1.54,0,0,1-.56.88,4.93,4.93,0,0,0-.78.74,8.55,8.55,0,0,0-1,2,6.91,6.91,0,0,0-.63,2.18l.14.56a1.59,1.59,0,0,1-.29.91,4.49,4.49,0,0,0-.42.81,1.57,1.57,0,0,0-.07.77,1.72,1.72,0,0,1,0,.78,4.68,4.68,0,0,1-.32.81A2.83,2.83,0,0,0,1662,553Z"/><path d="M1720.33,551.44c.33,0,.49.14.49.42,0,.1.11.26.32.49a1.64,1.64,0,0,0,.56.46c.16.07.25.41.25,1V554l.28.28a6.79,6.79,0,0,1,.35,1.58,5.42,5.42,0,0,0,.42,1.65,2.52,2.52,0,0,0-.35.67,2.43,2.43,0,0,0-.21.74.27.27,0,0,0,.21.28c.14,0,.21.23.21.53a1.92,1.92,0,0,1-.32,1,2.13,2.13,0,0,0-.31,1.09l.07.64a2.14,2.14,0,0,1-.39,1.16,1.61,1.61,0,0,1-1,.74c-.09.09-.13.17-.1.24a1.27,1.27,0,0,1,0,.32.28.28,0,0,1-.21.28v.07c0,.09-.13.21-.39.35a2.83,2.83,0,0,0-.7.56,5,5,0,0,1-.67.64v.28a.67.67,0,0,1-.24.59.83.83,0,0,0-.32.53,8.16,8.16,0,0,0-2.11,1.41h-1.12a1.07,1.07,0,0,0-.64.28,2.63,2.63,0,0,1-.67.42,2.3,2.3,0,0,1-.77.18,8.15,8.15,0,0,0-.81.1l-.14-.14c0,.1-.07.14-.21.14l-1-.28-1.83.14-1.83-.42a1.75,1.75,0,0,0-.35-.49,1.63,1.63,0,0,1-.35-.56l-1.2-.36a1.24,1.24,0,0,1-.24-.38.36.36,0,0,0-.36-.25,1.63,1.63,0,0,0-.45.07.39.39,0,0,1-.14-.42c0-.14-.05-.21-.28-.21s-.36-.09-.36-.28-.11-.26-.35-.21a1.33,1.33,0,0,0-.21-.5,2.88,2.88,0,0,1-.63-1.54.63.63,0,0,0-.35-.35.93.93,0,0,1-.35-.21,12.78,12.78,0,0,1-1.41-4.72,11,11,0,0,1,.18-2.35,8.8,8.8,0,0,1,.42-1.37,10.31,10.31,0,0,1,.59-1.27,7.63,7.63,0,0,0,.64-1.55,1.16,1.16,0,0,0,.74-.77,1.13,1.13,0,0,1,.42-.7.9.9,0,0,1,.35-.14.31.31,0,0,0,.21-.11.21.21,0,0,0,.07-.21.37.37,0,0,1,.07-.28,3.48,3.48,0,0,1,.63-.63l.71-.6a.9.9,0,0,1,.42-.18,1.8,1.8,0,0,0,.53-.17l.66-.35a5,5,0,0,1,1.13-.39,10.71,10.71,0,0,1,1.72-.25,4,4,0,0,0,1.9-.63,8.73,8.73,0,0,0,1.76.53c.61.12,1.19.24,1.76.38a1,1,0,0,0,.21.53,1.39,1.39,0,0,1,.21.53l2.39-.35q.35,0,1.26.81c.61.54.87.92.78,1.16A.48.48,0,0,0,1720.33,551.44Zm-6.4,16a2.12,2.12,0,0,1,1.48-.49.71.71,0,0,1,.45-.46,2.59,2.59,0,0,0,.78-.49,3.65,3.65,0,0,0,.81-1.06,2.47,2.47,0,0,1,1-1,2.21,2.21,0,0,1,.49-1c.24-.25.46-.51.67-.77a2.09,2.09,0,0,0,.42-1c.07-.4.15-.93.25-1.59a14.35,14.35,0,0,0,.14-2,2.08,2.08,0,0,0-.32-1.34,1.44,1.44,0,0,1-.38-.77,2.38,2.38,0,0,1,0-.67,4.87,4.87,0,0,0,0-.6v-.21a6.19,6.19,0,0,0-.81-.67,3.75,3.75,0,0,1-.74-.6,8.53,8.53,0,0,1-3-.63,12.06,12.06,0,0,0-2.92-.77,2.63,2.63,0,0,0-1.4-.49,7.47,7.47,0,0,0-.85,0,1.31,1.31,0,0,0-.35.11,1.4,1.4,0,0,0-.28.17,1.71,1.71,0,0,1-.39.21.83.83,0,0,1-.49.07,1.28,1.28,0,0,0-.56.07,2.5,2.5,0,0,0-.7.39,3.34,3.34,0,0,1-.74.42,1.89,1.89,0,0,1-.46.81,3.53,3.53,0,0,0-.63,1.34,6,6,0,0,0-.32,1.68,21.61,21.61,0,0,0,.49,3.13l-.14.14a7.67,7.67,0,0,0,.32,1.09c.11.31.21.58.28.81a1.27,1.27,0,0,1,.07.53,2.38,2.38,0,0,0,0,.39l.28,1.12v.07l.28.28v.28a.68.68,0,0,0,.21.39,1.27,1.27,0,0,1,.21.81,3.94,3.94,0,0,1,.84.81,3.64,3.64,0,0,0,.88.81,3.59,3.59,0,0,0,1.37.38,5.78,5.78,0,0,1,1.69.46A8.58,8.58,0,0,1,1713.93,567.47Z"/><path d="M1749.86,551.44c.33,0,.49.14.49.42,0,.1.11.26.32.49a1.74,1.74,0,0,0,.56.46c.17.07.25.41.25,1V554l.28.28a6.79,6.79,0,0,1,.35,1.58,5.73,5.73,0,0,0,.42,1.65,2.52,2.52,0,0,0-.35.67,2.43,2.43,0,0,0-.21.74.27.27,0,0,0,.21.28c.14,0,.21.23.21.53a1.83,1.83,0,0,1-.32,1,2.13,2.13,0,0,0-.31,1.09l.07.64a2.14,2.14,0,0,1-.39,1.16,1.61,1.61,0,0,1-1,.74c-.09.09-.13.17-.1.24a1.27,1.27,0,0,1,0,.32.28.28,0,0,1-.21.28v.07c0,.09-.13.21-.39.35a2.83,2.83,0,0,0-.7.56,5,5,0,0,1-.67.64v.28a.67.67,0,0,1-.24.59.83.83,0,0,0-.32.53,8.16,8.16,0,0,0-2.11,1.41h-1.12a1.07,1.07,0,0,0-.64.28,2.77,2.77,0,0,1-.66.42,2.36,2.36,0,0,1-.78.18,8.15,8.15,0,0,0-.81.1l-.14-.14c0,.1-.07.14-.21.14l-1-.28-1.83.14-1.83-.42a1.75,1.75,0,0,0-.35-.49,1.63,1.63,0,0,1-.35-.56l-1.2-.36a1.24,1.24,0,0,1-.24-.38.36.36,0,0,0-.35-.25,1.64,1.64,0,0,0-.46.07.39.39,0,0,1-.14-.42c0-.14,0-.21-.28-.21s-.35-.09-.35-.28-.12-.26-.36-.21a1.33,1.33,0,0,0-.21-.5,2.88,2.88,0,0,1-.63-1.54.6.6,0,0,0-.35-.35.93.93,0,0,1-.35-.21,12.78,12.78,0,0,1-1.41-4.72,11,11,0,0,1,.18-2.35,8.8,8.8,0,0,1,.42-1.37,9.1,9.1,0,0,1,.6-1.27,8.28,8.28,0,0,0,.63-1.55,1.16,1.16,0,0,0,.74-.77,1.13,1.13,0,0,1,.42-.7.9.9,0,0,1,.35-.14.31.31,0,0,0,.21-.11c.07-.07.1-.14.07-.21a.37.37,0,0,1,.07-.28,3.48,3.48,0,0,1,.63-.63l.71-.6a.9.9,0,0,1,.42-.18,1.8,1.8,0,0,0,.53-.17l.67-.35a4.72,4.72,0,0,1,1.12-.39,10.88,10.88,0,0,1,1.72-.25,4,4,0,0,0,1.9-.63,8.73,8.73,0,0,0,1.76.53c.61.12,1.19.24,1.76.38a1,1,0,0,0,.21.53,1.39,1.39,0,0,1,.21.53l2.39-.35c.23,0,.66.27,1.26.81s.87.92.78,1.16A.48.48,0,0,0,1749.86,551.44Zm-6.4,16a2.12,2.12,0,0,1,1.48-.49.7.7,0,0,1,.46-.46,2.56,2.56,0,0,0,.77-.49A3.65,3.65,0,0,0,1747,565a2.47,2.47,0,0,1,1-1,2.32,2.32,0,0,1,.49-1c.24-.25.46-.51.67-.77a2.09,2.09,0,0,0,.42-1c.07-.4.15-.93.25-1.59a14.35,14.35,0,0,0,.14-2,2.08,2.08,0,0,0-.32-1.34,1.44,1.44,0,0,1-.38-.77,2.38,2.38,0,0,1,0-.67,3.47,3.47,0,0,0,0-.6v-.21a5.11,5.11,0,0,0-.81-.67,3.75,3.75,0,0,1-.74-.6,8.58,8.58,0,0,1-3-.63,12.06,12.06,0,0,0-2.92-.77,2.63,2.63,0,0,0-1.4-.49,7.59,7.59,0,0,0-.85,0,1.44,1.44,0,0,0-.35.11,1.4,1.4,0,0,0-.28.17,1.71,1.71,0,0,1-.39.21.83.83,0,0,1-.49.07,1.28,1.28,0,0,0-.56.07,2.5,2.5,0,0,0-.7.39,3.34,3.34,0,0,1-.74.42,1.89,1.89,0,0,1-.46.81,3.53,3.53,0,0,0-.63,1.34,6,6,0,0,0-.32,1.68,23.23,23.23,0,0,0,.49,3.13l-.14.14a7.67,7.67,0,0,0,.32,1.09c.12.31.21.58.28.81a1.12,1.12,0,0,1,.07.53,2.38,2.38,0,0,0,0,.39l.28,1.12v.07l.28.28v.28a.68.68,0,0,0,.21.39,1.27,1.27,0,0,1,.21.81,3.94,3.94,0,0,1,.84.81,3.84,3.84,0,0,0,.88.81,3.64,3.64,0,0,0,1.37.38,5.69,5.69,0,0,1,1.69.46A8.58,8.58,0,0,1,1743.46,567.47Z"/><path d="M1779.39,551.44c.33,0,.49.14.49.42,0,.1.11.26.32.49a1.74,1.74,0,0,0,.56.46c.17.07.25.41.25,1V554l.28.28a6.31,6.31,0,0,1,.35,1.58,5.73,5.73,0,0,0,.42,1.65,2.52,2.52,0,0,0-.35.67,2.43,2.43,0,0,0-.21.74.27.27,0,0,0,.21.28c.14,0,.21.23.21.53a1.9,1.9,0,0,1-.31,1,2.14,2.14,0,0,0-.32,1.09l.07.64a2.14,2.14,0,0,1-.39,1.16,1.58,1.58,0,0,1-1,.74c-.09.09-.13.17-.1.24a1.27,1.27,0,0,1,0,.32.28.28,0,0,1-.21.28v.07c0,.09-.13.21-.38.35a2.7,2.7,0,0,0-.71.56,5,5,0,0,1-.67.64v.28a.67.67,0,0,1-.24.59.83.83,0,0,0-.32.53,8.16,8.16,0,0,0-2.11,1.41h-1.12a1,1,0,0,0-.63.28,3,3,0,0,1-.67.42,2.36,2.36,0,0,1-.78.18,7.57,7.57,0,0,0-.8.1l-.15-.14c0,.1-.07.14-.21.14l-1-.28-1.83.14-1.83-.42a1.75,1.75,0,0,0-.35-.49,1.63,1.63,0,0,1-.35-.56l-1.2-.36a1.24,1.24,0,0,1-.24-.38.36.36,0,0,0-.35-.25,1.64,1.64,0,0,0-.46.07.39.39,0,0,1-.14-.42c0-.14,0-.21-.28-.21s-.35-.09-.35-.28-.12-.26-.36-.21a1.33,1.33,0,0,0-.21-.5,2.88,2.88,0,0,1-.63-1.54.6.6,0,0,0-.35-.35.93.93,0,0,1-.35-.21,12.78,12.78,0,0,1-1.41-4.72,11,11,0,0,1,.18-2.35,8.8,8.8,0,0,1,.42-1.37,9.1,9.1,0,0,1,.6-1.27,8.28,8.28,0,0,0,.63-1.55,1.16,1.16,0,0,0,.74-.77,1.13,1.13,0,0,1,.42-.7.9.9,0,0,1,.35-.14.31.31,0,0,0,.21-.11c.07-.07.1-.14.07-.21a.37.37,0,0,1,.07-.28,3.32,3.32,0,0,1,.64-.63l.7-.6a1,1,0,0,1,.42-.18,1.71,1.71,0,0,0,.53-.17l.67-.35a4.72,4.72,0,0,1,1.12-.39,10.88,10.88,0,0,1,1.72-.25,4,4,0,0,0,1.9-.63,8.73,8.73,0,0,0,1.76.53c.61.12,1.2.24,1.76.38a1,1,0,0,0,.21.53,1.39,1.39,0,0,1,.21.53l2.39-.35c.23,0,.66.27,1.27.81s.86.92.77,1.16A.48.48,0,0,0,1779.39,551.44Zm-6.4,16a2.12,2.12,0,0,1,1.48-.49.73.73,0,0,1,.46-.46,2.56,2.56,0,0,0,.77-.49,3.65,3.65,0,0,0,.81-1.06,2.47,2.47,0,0,1,1-1,2.32,2.32,0,0,1,.49-1c.24-.25.46-.51.67-.77a2.09,2.09,0,0,0,.42-1c.08-.4.16-.93.25-1.59a14.35,14.35,0,0,0,.14-2,2.09,2.09,0,0,0-.31-1.34,1.39,1.39,0,0,1-.39-.77,2.38,2.38,0,0,1,0-.67,3.47,3.47,0,0,0,0-.6v-.21a5.11,5.11,0,0,0-.81-.67,4.06,4.06,0,0,1-.74-.6,8.58,8.58,0,0,1-3-.63,12,12,0,0,0-2.91-.77,2.69,2.69,0,0,0-1.41-.49,7.37,7.37,0,0,0-.84,0,1.4,1.4,0,0,0-.36.11,1.75,1.75,0,0,0-.28.17,1.84,1.84,0,0,1-.38.21.88.88,0,0,1-.5.07,1.28,1.28,0,0,0-.56.07,2.5,2.5,0,0,0-.7.39,3.34,3.34,0,0,1-.74.42,1.89,1.89,0,0,1-.46.81,3.53,3.53,0,0,0-.63,1.34,6,6,0,0,0-.32,1.68,22.23,22.23,0,0,0,.5,3.13l-.15.14a7.67,7.67,0,0,0,.32,1.09c.12.31.21.58.28.81a1.12,1.12,0,0,1,.07.53,2.38,2.38,0,0,0,0,.39l.28,1.12v.07l.28.28v.28a.68.68,0,0,0,.21.39,1.27,1.27,0,0,1,.21.81,4.22,4.22,0,0,1,.85.81,2.75,2.75,0,0,0,2.25,1.19,5.71,5.71,0,0,1,1.68.46A8.64,8.64,0,0,1,1773,567.47Z"/><path d="M1793.81,561.84l-.43.92a4.35,4.35,0,0,1,.14.91l-.14,1.62a.38.38,0,0,1,.14.28l-.14.28.21,1a10.37,10.37,0,0,1,.32,2.81q0,1.41,0,2.88l.14,1.06-.14.84.28,1.41a2.07,2.07,0,0,1-.07.56.59.59,0,0,0,.07.49l-.14,1.2.14.77-.28,1,.14.85-.14.91.42,1.62a2,2,0,0,0,1.19-.35,2.24,2.24,0,0,1,1.34-.35.74.74,0,0,1,.84.84,1.44,1.44,0,0,1-.77,1.3,11,11,0,0,1-1.27.67,2.78,2.78,0,0,1-.88.24,6.93,6.93,0,0,0-.87.15,3.44,3.44,0,0,0-.64.17,2.45,2.45,0,0,1-.81.07,7.13,7.13,0,0,0-1.79.32,2.7,2.7,0,0,0-1.48.81.28.28,0,0,1-.21,0,.66.66,0,0,0-.24,0,1.65,1.65,0,0,0-.67.31,1.54,1.54,0,0,1-1.06.25h-.21c-.51-.24-.77-.89-.77-2,.14,0,.23,0,.28-.18a.58.58,0,0,1,.25-.35.55.55,0,0,1,.38-.07,2.61,2.61,0,0,0,1-.28,14.73,14.73,0,0,1,2.08-.6,3.13,3.13,0,0,0,.21-1.12,4.34,4.34,0,0,0-.14-1.09A2.65,2.65,0,0,1,1790,581v-2.46a9.64,9.64,0,0,1,.07-1.76l-.21-.63.14-.42-.28-1.13a19.84,19.84,0,0,1-.14-2.46v-2.46a11.12,11.12,0,0,0-.21-2.18c-.15-.7-.26-1.43-.36-2.18v-1.48l-.28-2.11.07-2.32-.07-2v-1.47a2,2,0,0,0,.14-.64l-.28-.7a1.17,1.17,0,0,1,.14-.42,16.48,16.48,0,0,0-.14-2.18l-.28-1.13.14-.42-.35-4.92.28-2.6-.14-.91.21-.85-.28-2.53.21-3.3-.28-3c-.09-1.12-.14-2.19-.14-3.2s-.33-1.51-1-1.51l-1.4.14a1.36,1.36,0,0,1-1.2-.63,2.16,2.16,0,0,1-.42-.84l.07-.29c.14-.42.5-.63,1.09-.63a12.19,12.19,0,0,0,1.65-.1,19.84,19.84,0,0,0,2.18-.46,10.13,10.13,0,0,1,2.29-.35c.58,0,1,.19,1.09.56a2.09,2.09,0,0,1-.49,1.27,1.86,1.86,0,0,0-.57,1l.14,2-.21,1.62.28,1.89c0,.24.06.39.18.46s.18.25.18.53l-.14,1.33.14.43-.14.28a7.86,7.86,0,0,1,.31,2.56,6.72,6.72,0,0,0,.32,2.43,9.19,9.19,0,0,0-.14,2.25l-.14,2.32a14.41,14.41,0,0,0,.1,1.72c.07.59.15,1.3.25,2.15l.21,3c.09,1.13.19,2.28.28,3.45a3.24,3.24,0,0,0,.88.07c.49,0,.85-.31,1.09-.92a.66.66,0,0,0,.56-.28c.33-.47.56-.63.71-.49s.28.08.42-.18a1,1,0,0,1,.38-.45.36.36,0,0,1,.25,0,.41.41,0,0,0,.21,0,.31.31,0,0,0,.21-.07c.05-.24.68-.47,1.9-.71s1.9-.35,2-.35a5.36,5.36,0,0,1,.63.07l1.37.21a1.63,1.63,0,0,1,1.2.56,5.48,5.48,0,0,0,.77,1c.35.38.79.83,1.3,1.37a10.33,10.33,0,0,1,1.41,1.86.94.94,0,0,1,.32.39.86.86,0,0,0,.31.39,1.06,1.06,0,0,0-.07.42l.56,2.25a2.11,2.11,0,0,0,.14.77,2.53,2.53,0,0,1,.18.81,7.83,7.83,0,0,0,.11.88l.28,1a7.91,7.91,0,0,1,.14,1.48V567c0,.09,0,.14-.07.14s-.07,0-.07.14l.42,2-.28,1.75.28,2.47a21.42,21.42,0,0,1-.14,2.39,10.12,10.12,0,0,0,0,2.46,3.59,3.59,0,0,0-.42,1.75v1.41a2.47,2.47,0,0,0,.14.84,3.15,3.15,0,0,0,1,.15l2.81-.57a1.06,1.06,0,0,0,.53.46c.26.12.39.27.39.46q0,.84-.63.84a3.64,3.64,0,0,0-2.61,1.2,2,2,0,0,0-.63-.07l-1.9.35h-.49c-.28,0-.43.06-.46.17s-.22.18-.59.18l-1.76.21-.56-.07c-.33,0-.52.1-.57.32s-.21.31-.49.31l-.28-.07a2.57,2.57,0,0,1-.28-1.19,1.41,1.41,0,0,1,.24-.92,1.91,1.91,0,0,1,.57-.42l.7-.28a1.12,1.12,0,0,0,.6-.49l.35-1.76a2.48,2.48,0,0,0,.07-.63l-.21-1.9.14-1.41-.14-1.19.28-1.41-.14-1.27.14-2.74a9.41,9.41,0,0,0-.32-2.39,9.59,9.59,0,0,1-.31-2.46l.14-1c0-.05-.1-.64-.28-1.76l.14-.21q-.42-.5-.39-.6a2.63,2.63,0,0,0,0-.56,2.2,2.2,0,0,0-.18-.88,5,5,0,0,1-.28-.92c-.07-.32-.13-.7-.18-1.12a2.86,2.86,0,0,0-.52-1.44,2.88,2.88,0,0,1-.5-.74,2.24,2.24,0,0,0-.31-.56,1.68,1.68,0,0,0-.53-.46,2.91,2.91,0,0,1-.67-.53,2.61,2.61,0,0,1-1.51.32l-1.37,0c-.28,0-.43,0-.46.15a1.14,1.14,0,0,1-.21.38,2.27,2.27,0,0,1-.49.49,2.33,2.33,0,0,0-.53.6,1.9,1.9,0,0,0-1.83.7,6.51,6.51,0,0,1-1.33,1.76c-.14.42-.32.65-.53.67s-.27.15-.18.39l-.07.21.29.84Z"/><path d="M1824.39,583.71a9.13,9.13,0,0,1-1.26.46,1.55,1.55,0,0,0-.67.31,2.51,2.51,0,0,1-.6.36,1.81,1.81,0,0,1-1.62-2.25,6.24,6.24,0,0,0-.88-.36,2.27,2.27,0,0,1-.8-.42V579.7a3.72,3.72,0,0,0,.56-.91,2.27,2.27,0,0,1,.49-.77.79.79,0,0,1,.53-.29.61.61,0,0,0,.38-.1.56.56,0,0,0,.21-.25.5.5,0,0,1,.22-.21l1-.14a6.45,6.45,0,0,1,1-.14,1.45,1.45,0,0,1,1.41,1,4,4,0,0,1,.42,1.44q0,.5.18.63c.11.1.17.49.17,1.16A7,7,0,0,1,1824.39,583.71Zm-.28-28.69-.42,7.81.07,2.25c0,1-.17,1.47-.49,1.47q-.21,0,0,.15a10.12,10.12,0,0,0-.6,1.26c-.21.52-.48.77-.81.77-.61,0-1.1-.49-1.48-1.47a7.09,7.09,0,0,1-.49-3.17v-2.88l-.14-2.32.14-2.95-.14-1.41.28-.84-.14-.85.07-2.46a52.61,52.61,0,0,0-.39-7.52,27.85,27.85,0,0,1-.38-3.27,3.94,3.94,0,0,1,.31-1.55,5.69,5.69,0,0,0,.39-1.09c0-.32.19-.49.42-.49s.24,0,.28-.14.12-.28.22-.28a2,2,0,0,1,1.37.42l.84.81a2.83,2.83,0,0,0,.53.46,3.21,3.21,0,0,1,.28.63l.28.14a.57.57,0,0,1,0,.35.37.37,0,0,0,.1.35l.28.14a3.45,3.45,0,0,1,.28,1.27l-.49,3.44.21,3.45v3.23a14.61,14.61,0,0,1-.21,2.71A9.61,9.61,0,0,0,1824.11,555Z"/><path d="M1600.71,760.87l67-83.6-28-4.13c-5.37-.06-9.72-6.48-9.72-14.36l-8-228.16c0-7.95,4.39-14.39,9.79-14.39l.29,0L1899,494.74c5.33.12,9.64,6.51,9.64,14.36l0,.18-33.48,182.9c0,7.87-4.41,14.27-9.79,14.27h-.15l-123.09-18.18Zm31-342.64c-4.17.12-7.66,5.73-7.66,12.36l8,228.15c0,6.74,3.57,12.4,7.8,12.4h.14l31.51,4.65-63.28,79,133.63-68.63,123.65,18.26c4.19-.07,7.72-5.7,7.72-12.37v-.17L1906.62,509c0-6.66-3.59-12.27-7.79-12.27l-.28,0Z"/><path class="cls-8" d="M673.3,358.21C657.27,380.62,648,389,631,425.49c-16.23,34.8-37.26,71.23-38.9,73.38s-7.46,10.31,14,27.18a443.06,443.06,0,0,0,45.68,30.84s19.35-11.74,28.21-2.6S702.14,575,690.88,575s-23.34-2.76-2.71,11.44,33.26,26.21,29.67,26.44,6.08,7.77,3.47,9.49-5.92,6.06-9.3,6.16-9.58,2.06-15.3.48-32.51-9.55-44.78-15.36c-4.92-2.33-9.88-14.87-12.44-8.9s-25.75-8.32-48.08-21.76c-25.81-15.52-34-16.05-43.35-21.67S514.26,532.44,512,529c-16.74-24.93-.17-38,1.56-51s93.41-150.9,90-147.57,76.25,0,73,2.16S689.34,335.81,673.3,358.21Z"/><path class="cls-8" d="M851.82,320.51a17.37,17.37,0,0,1,7,2.24c32.63,18.81,91,95.05,93.3,108.31,2.89,16.5,6.51,61.46-9.17,75-35,30.15-92.33,55.05-106.64,69.56s-11.23,10.5-15.79,23.72-9.48,23.79-18.75,28.62-27.77,8.17-28.52-4.35-2.29-10.51.38-24.38,3.37-16.62,7.47-25.33c6.34-13.45-2.82-7.74-4.66-1.18-4.1,14.62-9.75,1.28-4.95-10.17s2.79-13,8.76-15.57c10-4.33,28.56-.4,23.8-4.05-4-3.08,6.5-5.37,15.49-19.17s74-42.07,74.33-46.62-24.78-73.88-51.08-74.76-42.43-27.82-44.79-32c-1.59-2.82-17.06-13.58-27-20.33a17.19,17.19,0,0,1-7.48-15.84l.45-4.89a17.21,17.21,0,0,1,18.82-15.54Z"/><path class="cls-8" d="M759.54,351c-21.69-2.41-43.77-2.71-65.42-5.76,6.12-4.53.64.23.56-.94-.29-4.55-12.35-26.57-38.54-24s-60.44-43.12-61.74-62.64c-.41-6.12-2.65-31.16,5.73-43.62s45.16-33,53.89-35.47C691.15,168,705,211,705,211c12.76-3.22,30.64,18.07,16.47,31.52-14.81,14.07,17.25,36.81,19.59,44.28,4.36,13.92,27,45.43,19.75,64.5A8.19,8.19,0,0,0,759.54,351Z"/><path class="cls-8" d="M746.68,1019a25.55,25.55,0,0,1-5.42,14.59c-9.66,12.25-14.5,12.42-33.45,20.31-22,9.15-28.77,11.25-49.69,12-19.9.71-23.06,1.33-27-10.66-3.77-11.43,21-26.28,41.95-39.11,15.63-9.57,30.1-15.82,19.9-51.19s-5.83-20.58-13.51-54.75S668.8,805.93,668.08,810.4s-5.69,106.85-.71,128.18c4.84,20.77,14.25,47.07-14.22,63.28s-22.14,12.32-49.06,16.36c-14.22,2.13-10.63,3-34.13,3.55s-35.51-8.81-19.2-21.33,20.41-16.7,41.24-24.88c19.91-7.83,18.49-5,19.34-17,1.72-24.2,2.7-23.55-1.56-53.41s-11-81.35-12.09-93.15c-1.79-19.66-21.8-69.71-16.35-81,8.53-17.78,25.91-57.49,44.79-83.9,11.17-15.61,21.31-30.3,27.73-39.7a25.75,25.75,0,0,0,3.21-22.58c-3.18-9.68-7.88-23.48-12.45-35.13-15.65-39.81-38-152.53-41.24-167.79-2-9.4-2.77-26.08-3.09-37.52a25.78,25.78,0,0,1,8.79-20.14l3.22-2.82A25.8,25.8,0,0,1,629.21,315l145.3-.49a25.74,25.74,0,0,1,23.54,15c6.42,14.19,15.29,40.71,23.25,88.71,14.58,88,23,104.33,14.18,122.13s3.85,64.5-7.43,82.51c-9.89,15.8-31.44,55.34-36.57,64.78a26,26,0,0,1-2.56,3.85c-8.66,10.77-53.26,66.54-54,74.28-.82,8.57-7.11,27.73-4.26,37.68s6.65,65.63,7.11,71.81,8.53,71.82,10.66,91.72C748.9,971.5,747.41,1003.82,746.68,1019Z"/><rect class="cls-9" x="1463.71" y="842.19" width="7.19" height="20.36" rx="3.59" transform="translate(2143.52 -703.99) rotate(83.33)"/><path class="cls-10" d="M1581.46,843.84c-5.56,24.18-36.68,29.67-71.65,21.63s-60.57-26.58-55-50.75,20-49.49,75.15-36.81C1582.18,789.92,1587,819.66,1581.46,843.84Z"/><circle class="cls-11" cx="1554.17" cy="829.88" r="20.06"/><ellipse cx="1547.37" cy="836.31" rx="12.54" ry="2.56" transform="translate(385.61 2156.95) rotate(-77.05)"/><circle class="cls-11" cx="1488.61" cy="812.97" r="20.06"/><ellipse cx="1491.01" cy="806.14" rx="12.54" ry="2.56" transform="translate(371.28 2078.61) rotate(-77.05)"/><path class="cls-9" d="M1586.09,839.16s-4.66.68-5-2.9-2.88-21.76-.2-33.45,8.29-26.22,9.36-26,3.13,6,3.82,7.91,2,6.36,3.81,7.91c2.11,1.85,7.59,11,8,14.15.46,3.27,3.44,9.58-.24,15.77s-14.93,15.9-16,15.66S1586.09,839.16,1586.09,839.16Z"/><path class="cls-9" d="M1452,809.55s3.9,2.65,5.74-.44,12.1-18.31,14.79-30,4-27.2,2.93-27.45-5.44,4-6.89,5.45-4.62,4.82-6.89,5.45c-2.7.74-11.65,6.6-13.4,9.22s-7.27,7.12-6.66,14.29,6.48,20.83,7.55,21.07S1452,809.55,1452,809.55Z"/><path d="M1513.36,842.09l-.46-.88s4.74-2.49,5.39-5.34a6.25,6.25,0,0,0-1.27-5.06l.75-.65a7.13,7.13,0,0,1,1.5,5.93C1518.51,839.4,1513.57,842,1513.36,842.09Z"/><path class="cls-10" d="M1580,834.11c-2.12,9.2-12,.06-26.3-3.24s-27.77.49-25.65-8.7,7.84-18.77,30.46-13.57C1580,813.53,1582.12,824.91,1580,834.11Z"/><path class="cls-10" d="M1521.92,803.41c-.91,4-11.6-1.45-26-4.75s-26.91-3.21-26-7.19,5.3-7.69,27.92-2.49C1519.32,793.91,1522.84,799.43,1521.92,803.41Z"/><path class="cls-10" d="M1463,821.85c.89-3.87,11.59,1.49,25.94,4.78s26.9,3.29,26,7.16-5.24,7.45-27.87,2.25C1465.65,831.11,1462.1,825.72,1463,821.85Z"/><path class="cls-10" d="M1523.65,841.33c.89-3.87,11.6,1.48,25.94,4.78s26.9,3.29,26,7.16-5.24,7.45-27.86,2.25C1526.31,850.59,1522.76,845.2,1523.65,841.33Z"/><ellipse cx="1527.67" cy="852.24" rx="4.79" ry="4.19" transform="translate(354.8 2150.11) rotate(-77.05)"/><path class="cls-9" d="M1452.64,886.29c20.19,1.7,40.79,3.58,61,2.64,9.85-.46,19.67-3,29.31-4.86,13-2.55,26.09-5.16,39.08-8,10.75-2.35,20.82-5.89,31.21-9.5,7.25-2.52,4.13-14.12-3.19-11.57-8.94,3.11-17.7,6.46-26.94,8.55-12.35,2.79-24.77,5.27-37.19,7.73q-9.08,1.8-18.18,3.54c-4,.75-8.57,1.71-11.41,1.94-11.86.94-24,.08-35.82-.56q-14-.76-27.92-1.92c-7.69-.64-7.65,11.36,0,12Z"/><path class="cls-9" d="M1594.31,873.81l12.85,4.33c3.07,1,6.56-1.19,7.38-4.19a6.11,6.11,0,0,0-4.19-7.38l-12.85-4.33c-3.07-1-6.56,1.19-7.38,4.19a6.11,6.11,0,0,0,4.19,7.38Z"/><path class="cls-10" d="M1351.67,898.72c-52.77,5.85-33.79-13-36.05-33.37s-24.9-34.6,27.87-40.45c9.67-1.07,59.47-6.42,69.24-7,43.47-2.75,44,5.28,47,31.53,2.82,25.47,2.15,34.33-42.07,41.42C1409,892.2,1360.3,897.76,1351.67,898.72Z"/><path class="cls-9" d="M1300.17,837.27c-5.7-6.57-13.61-11.84-21.49-15.5-2.82-1.31.44-.07-.6.81.66-.56,1.34-2.84,1.85-3.61a30.5,30.5,0,0,1,3.38-4.22c5.31-5.61-3.16-14.11-8.49-8.49-4.63,4.9-11,12.86-8,20,1.72,4.13,6.31,6.22,10,8.26,5.61,3.08,10.58,6.33,14.81,11.22,5.06,5.85,13.52-2.67,8.49-8.49Z"/><path class="cls-9" d="M1307.51,882.06c-4.64,4-10,6.31-15.71,8.43-4,1.51-9.09,3-11.27,7-3.42,6.43,1.13,14.72,4.86,20,4.4,6.27,14.81.28,10.36-6.06a36.37,36.37,0,0,1-3.06-5.13c-.37-.76-.77-3.1-1.28-3.49-.68-.5.45-.51-.37.39-1,1.11.16.21.8,0A64.6,64.6,0,0,0,1316,890.54c5.87-5-2.65-13.5-8.48-8.48Z"/><path class="cls-12" d="M1320.49,905.19c43-4.77,27.5-3.35,23.11-42.94s11-42.19-31.88-36.24c-1.15.16-2.22.29-3.2.48-1.56.1-3.15.23-4.76.41-21.38,2.37-8.56,8.25-7.58,17.15.43,3.91-1.48,7.75-2,10.63a3,3,0,0,0-.1,1.47,2.94,2.94,0,0,0,.42,1.41c1.09,2.7,3.81,6,4.24,9.93s-1.49,7.75-2,10.63a3.11,3.11,0,0,0-.09,1.46,3.05,3.05,0,0,0,.41,1.42c1.1,2.7,3.81,6,4.25,9.93,1,8.91-10.23,17.46,11.14,15.09,1.49-.17,3-.37,4.4-.6C1318,905.41,1319.2,905.33,1320.49,905.19Z"/><path class="cls-9" d="M1434.39,821.11c-12.22-15.83-24.72-31.91-34.93-49.13a59.49,59.49,0,0,1-4.8-9.82c-2.23-5.41-4.41-10.85-6.59-16.29-4.85-12.14-9.66-24.31-14.25-36.56-3.8-10.14-6.23-20.39-8.8-30.92-1.83-7.5-13.41-4.33-11.57,3.19,2.27,9.33,4.26,18.62,7.58,27.64,4.46,12.12,9.22,24.13,14,36.13,3.83,9.62,7.2,19.81,12,29,5.52,10.58,12.93,20.32,19.92,29.95q8.38,11.55,17.09,22.86c2,2.58,5.14,3.9,8.21,2.15,2.54-1.45,4.13-5.65,2.15-8.21Z"/><path class="cls-9" d="M1366,692.93l-10.61-8.45c-2.53-2-6-2.47-8.48,0-2.09,2.09-2.55,6.46,0,8.49l10.61,8.44c2.53,2,6,2.47,8.48,0,2.09-2.09,2.55-6.45,0-8.48Z"/><path class="cls-7" d="M1520.61,989.12c-22.11,24-25.37,28.48-52.78,3.28-27.85-25.61-23.26-28.82-1.15-52.87s32.53-50.45,67-18.75C1569.05,953.31,1542.73,965.08,1520.61,989.12Z"/><ellipse class="cls-3" cx="1525.93" cy="928.33" rx="5.71" ry="20.72" transform="translate(-190.3 1423.13) rotate(-47.4)"/><path class="cls-6" d="M1476.05,894.83c-14.57-2.25-17.66-31,4.13-26.76,16.35,3.2,46.14.14,47.69,11.34.22,1.62-9.6,12.21-10.25,13.67C1512.82,903.8,1492.63,897.39,1476.05,894.83Z"/><path class="cls-6" d="M1548.56,890.13c-14.5,2.66-26.86-23.52-4.88-26.64,16.5-2.34,36.43-9.69,41.56.38.74,1.45,2.15,9.37,2,11C1586.24,886.54,1565.07,887.1,1548.56,890.13Z"/><path class="cls-6" d="M1356.57,719.89c-8.35-12.15,10.48-34.13,22.32-15.34,8.87,14.09,31.53,33.68,24.43,42.49-1,1.27-15.46,1.38-17,1.91C1375.25,752.81,1366.08,733.71,1356.57,719.89Z"/><path class="cls-6" d="M1423,806.24c-.66-11.21,26.93-18.5,27-1.59.07,12.69,4.64,28.37-6,31.47a62,62,0,0,1-11.13.65C1421.38,835.07,1423.7,819,1423,806.24Z"/><path class="cls-7" d="M1437.9,814.46c11.35-2.3,9.3-2.44,14.53,17,1.52,5.68,4.15,10.79,6.12,20.49,1.77,8.78,1.92,17.84,2.76,23.4,3.32,22.08,5.39,21.14-6.33,23.51-12.81,2.6-27,15.11-36.36-18.16-1.34-4.79,2.65-11.87,1.27-18.67-1.34-6.62-7.65-11.19-8.3-16.06C1406.84,810.18,1425,817.07,1437.9,814.46Z"/><path class="cls-7" d="M1355,900.27c-9.1-.07-8.2,9.57-9-10.53-.25-5.87-5.08-13.66-5-23.55.07-9,5.1-15.61,5.37-21.23,1.07-22.28-.68-21.79,8.72-21.72,10.28.09,23.27-9.25,25,25.22.25,5-4,11.08-4,18-.06,6.76,4,12.52,3.75,17.42C1377.52,919.91,1365.35,900.36,1355,900.27Z"/><path class="cls-7" d="M1313.33,833.33c13.69,5.49,5.38,13.28-2.13,22.41-2.19,2.67-3.68,12.33-7.91,16.24-3.84,3.53-26.94-36.74-26-42.1C1279.28,818.48,1295.83,826.31,1313.33,833.33Z"/><path class="cls-7" d="M1303.34,868.21c13.94-4.8,21.38.63,26.72,11.17,1.56,3.08,9.71,18.38,11.59,23.83,1.69,4.93-49.24,8.66-54-2.47C1283.44,890.71,1287.47,873.67,1303.34,868.21Z"/><path class="cls-7" d="M1444.87,791c-.15-11.5-7.19-8.06,30.51-9.82,11-.51,30-14,48.57-14.2,16.8-.22,29.45,5.89,40,6,41.86.58,38-1.21,41,10.26,19.81,74.67-12.58,29.34-43.39,24-9.19-1.58-24.06,3.77-37.07,3.94-12.7.17-21.74-15.07-30.65-12.77C1443.72,811.36,1445,804,1444.87,791Z"/><path class="cls-6" d="M1576.2,870.12c-2,9-.87,7.63-31.09,1.87-8.83-1.68-21.48.55-36.26-2.77-13.37-3-22.27-10.16-30.61-12.27-33.09-8.36-32.72-6.47-30.64-15.75,2.28-10.14-22.27-22.05,37.73-12.75,22.64,3.52,31.46,33.89,42.07,34.32,16.27.66,15.68-15.13,22.94-13.22C1603.71,863.54,1578.49,859.9,1576.2,870.12Z"/><path class="cls-6" d="M1416.29,817.11c10.12-2.05,8.28-2.22,13.37,17.24,1.49,5.69,3.47,13.76,5.44,23.46,1.77,8.77,2.58,14.87,3.45,20.43,3.43,22,5.27,21.16-5.18,23.28-11.44,2.31-30.35,9.77-30.46.64-.06-5-1-27-2.39-33.79-1.34-6.63-12.77-37-12.59-41.9C1388.39,813.74,1404.77,819.44,1416.29,817.11Z"/><path class="cls-6" d="M1488.31,767.59c3-6.93,1.75-6.08,30.42,5.54,8.38,3.4,20.18,8.29,34.14,14.39,12.63,5.52,21.17,9.58,29,13.22,31.15,14.41,31,12.78,27.89,19.93-3.42,7.83-4.28,23.45-16.43,16.78-6.63-3.64-21.83-20-31.61-24.32-9.54-4.17-70.72-19.75-77.12-23.46C1468,780,1484.87,775.47,1488.31,767.59Z"/><path class="cls-6" d="M1321.86,819.65c7.07-1.43,5.75-1.72,10.51,17.81,1.39,5.71,3.27,13.8,5.23,23.5,1.78,8.77,2.71,14.85,3.65,20.39,3.74,22,5,21.23-2.31,22.7-8,1.62-21,7.87-21.58-1.16-.34-4.92-2.31-26.72-3.69-33.52-1.34-6.63-11.23-37.3-11.4-42.14C1301.86,814.67,1313.82,821.27,1321.86,819.65Z"/><path class="cls-6" d="M1374.56,820.58c6.1-1.23,5-1.55,9.6,18,1.36,5.72,3.21,13.81,5.17,23.51,1.78,8.78,2.75,14.85,3.72,20.38,3.83,22,4.89,21.24-1.41,22.52-6.89,1.39-18,7.27-18.78-1.73-.42-4.9-2.71-26.64-4.09-33.44-1.34-6.63-10.75-37.4-11-42.22C1357.05,815.1,1367.62,822,1374.56,820.58Z"/><path class="cls-6" d="M1284.18,886.44c-2.52-8.17,11.88-17.11,15.16-4.66,2.46,9.34,8.06,20.32,2.55,24a28.12,28.12,0,0,1-6.24,1.91C1288.78,907.9,1287,895.74,1284.18,886.44Z"/><path class="cls-6" d="M1280.64,817.64c4.62-4.61,18.52,4.66,11.21,11.22-5.48,4.92-10.52,13-16,9.48a36.5,36.5,0,0,1-4.61-4.61C1267.5,828.06,1275.4,822.87,1280.64,817.64Z"/><path d="M1521.9,709.89a165.53,165.53,0,0,1,21.59.52,99.31,99.31,0,0,1,9.86,1.32c2,.38,5.07.71,6.71,2,7.14,5.54-11.09,8.08-13.09,8.32-13.36,1.6-27.51,3-41,2a54.31,54.31,0,0,1-16.21-3.87c-2.27-1-3.82-1.7-2.33-4a27.22,27.22,0,0,1,4.57-4.72c4.51-4.13,9.76-8.1,15.53-10.26,4.85-1.82,10.48-1.63,15.59-1.83,16.41-.64,33,.47,48.9,4.74,11,3,22.35,4.7,33.3,7.86,1.93.56,7.88,1.76,6.77,4.44-.62,1.5-3.68,2.7-5,3.36a93.42,93.42,0,0,1-11.4,4.56c-29.94,10.39-61.27,14.11-92.81,14.52a1.36,1.36,0,0,0,0,2.71c33.71-.43,68-4.33,99.59-16.83,4.47-1.77,19.14-8,9.25-13.29-4.55-2.42-10.13-3.28-15.11-4.36-7-1.52-14.12-2.91-21.08-4.8-18.27-5-36.92-6.46-55.8-5.47-6,.31-11.32.68-16.74,3.46a59.69,59.69,0,0,0-15.57,11.83c-2,2.1-5,5-2.82,8,1.3,1.76,3.84,2.52,5.81,3.22a65.19,65.19,0,0,0,10.18,2.77c14.9,2.62,31.46.49,46.33-1.28,5.16-.61,20.77-2,16.55-11.16-1.87-4.05-9-4.48-12.76-5a153.85,153.85,0,0,0-28.86-1.38c-1.74.07-1.75,2.79,0,2.72Z"/></svg>