<svg id="Layer_1" data-name="Layer 1" xmlns="http://www.w3.org/2000/svg" viewBox="0 0 1920 1080"><defs><style>.cls-1{fill:#ff0;}.cls-2{fill:#e6e6e6;}.cls-3{fill:#f2f2f2;}.cls-4{fill:#a67c52;}.cls-5{fill:#a7ff03;}.cls-6{fill:aqua;}</style></defs><polygon class="cls-1" points="185.42 397.76 82.6 429.21 194.26 427.34 147.01 483.72 216.48 431.64 207.97 488.11 241.13 410.57 243.91 501.95 272.16 414.46 306.89 504.27 319.82 401.12 364.05 476.1 349.6 384.24 402.87 449.27 376.45 352.25 442.31 373.07 396.88 305.78 437.02 286.59 396.44 282.94 413.74 227.17 382.19 255.18 362.74 230.53 352.94 276.66 315.63 235.81 325.33 299.08 279.05 288.44 295.31 324.19 238.2 308.62 253.86 355.16 163.31 320.87 207.53 369.63 90.52 345.15 185.42 397.76"/><polygon class="cls-1" points="820.23 589.47 717.41 620.92 829.07 619.05 781.82 675.43 851.29 623.35 842.78 679.82 875.93 602.28 878.72 693.66 906.97 606.17 941.7 695.98 954.63 592.83 998.86 667.81 984.41 575.95 1037.67 640.99 1011.26 543.96 1077.12 564.79 1031.68 497.49 1071.83 478.3 1031.25 474.65 1048.55 418.88 1017 446.89 997.55 422.24 987.75 468.37 950.44 427.52 960.14 490.79 913.86 480.15 930.12 515.9 873.01 500.34 888.67 546.87 798.12 512.58 842.34 561.34 725.33 536.87 820.23 589.47"/><path d="M1318.6,912.39a2.16,2.16,0,0,1-.67-1.6V889.4a1.66,1.66,0,0,1,.47-1.17,1.55,1.55,0,0,1,1.15-.48,1.66,1.66,0,0,1,1.66,1.65v20.38H1333a1.56,1.56,0,0,1,1.17.49,1.6,1.6,0,0,1,.49,1.17,1.56,1.56,0,0,1-.49,1.15,1.62,1.62,0,0,1-1.17.47H1320.2A2.2,2.2,0,0,1,1318.6,912.39Z"/><path d="M1341.26,912.23a8.05,8.05,0,0,1-3.22-3.37,11.47,11.47,0,0,1,0-10,8.11,8.11,0,0,1,3.22-3.37,10.52,10.52,0,0,1,9.68,0,8.16,8.16,0,0,1,3.24,3.37,11.29,11.29,0,0,1,0,10,8.1,8.1,0,0,1-3.24,3.37,10.44,10.44,0,0,1-9.68,0Zm7.69-2.49a5.43,5.43,0,0,0,2.23-2.16,8.32,8.32,0,0,0,0-7.45A5.38,5.38,0,0,0,1349,898a6.38,6.38,0,0,0-5.69,0,5.3,5.3,0,0,0-2.22,2.14,8.5,8.5,0,0,0,0,7.45,5.35,5.35,0,0,0,2.22,2.16,6.21,6.21,0,0,0,5.69,0Z"/><path d="M1363.15,912.23a8.05,8.05,0,0,1-3.22-3.37,11.47,11.47,0,0,1,0-10,8.11,8.11,0,0,1,3.22-3.37,10.52,10.52,0,0,1,9.68,0,8.29,8.29,0,0,1,3.24,3.37,11.38,11.38,0,0,1,0,10,8.22,8.22,0,0,1-3.24,3.37,10.44,10.44,0,0,1-9.68,0Zm7.68-2.49a5.45,5.45,0,0,0,2.24-2.16,8.32,8.32,0,0,0,0-7.45,5.4,5.4,0,0,0-2.24-2.14,6.35,6.35,0,0,0-2.82-.67,6.43,6.43,0,0,0-2.86.67,5.3,5.3,0,0,0-2.22,2.14,8.5,8.5,0,0,0,0,7.45,5.35,5.35,0,0,0,2.22,2.16,6.19,6.19,0,0,0,2.86.69A6.12,6.12,0,0,0,1370.83,909.74Z"/><path d="M1382.26,912.77a1.58,1.58,0,0,1-.47-1.15V888.25a1.66,1.66,0,0,1,.47-1.17,1.57,1.57,0,0,1,1.16-.48,1.64,1.64,0,0,1,1.65,1.65V903l8.57-7.92a1.62,1.62,0,0,1,1.08-.47,1.46,1.46,0,0,1,1.21.47,1.71,1.71,0,0,1,.37,1.11,1.76,1.76,0,0,1-.61,1.23l-5.18,4.64,6.51,8.64a1.58,1.58,0,0,1,.36,1,1.48,1.48,0,0,1-.46,1.15,1.7,1.7,0,0,1-1.19.44,1.6,1.6,0,0,1-.72-.18,1.67,1.67,0,0,1-.61-.51l-6.2-8.42-3.13,2.84v4.65a1.55,1.55,0,0,1-.48,1.15,1.66,1.66,0,0,1-1.17.47A1.6,1.6,0,0,1,1382.26,912.77Z"/><path d="M1412.52,912.77a5.09,5.09,0,0,1-2.14-1.89,5.19,5.19,0,0,1-.79-2.86,5,5,0,0,1,2.1-4.25,10.15,10.15,0,0,1,6.18-1.59h4.35v-.28a4.36,4.36,0,0,0-1.17-3.42,5.36,5.36,0,0,0-3.65-1.05,11.85,11.85,0,0,0-2.43.22,19,19,0,0,0-2.36.65,2.54,2.54,0,0,1-.47.07,1.24,1.24,0,0,1-.93-.4,1.3,1.3,0,0,1-.4-1,1.39,1.39,0,0,1,.94-1.37,15.87,15.87,0,0,1,6.22-1.29,8.16,8.16,0,0,1,4.2,1,6.43,6.43,0,0,1,2.52,2.61,7.61,7.61,0,0,1,.81,3.48v10.19a1.52,1.52,0,0,1-.49,1.15,1.62,1.62,0,0,1-1.17.47,1.6,1.6,0,0,1-1.62-1.62v-.94a9,9,0,0,1-6.76,2.74A6.73,6.73,0,0,1,1412.52,912.77Zm7.22-3a8.53,8.53,0,0,0,2.48-1.92v-3h-3.92c-3.62,0-5.44,1-5.44,2.85a2.65,2.65,0,0,0,.89,2.08,4.31,4.31,0,0,0,2.93.8A6.5,6.5,0,0,0,1419.74,909.76Z"/><path d="M1431.65,908.66V897.5h-2.55a.67.67,0,0,1-.49-.19.7.7,0,0,1-.2-.49.75.75,0,0,1,.33-.61l4.89-4.79a.89.89,0,0,1,.62-.32.63.63,0,0,1,.48.21.7.7,0,0,1,.2.51v2.88H1439a1.34,1.34,0,0,1,1.4,1.4,1.41,1.41,0,0,1-.39,1,1.33,1.33,0,0,1-1,.41h-4.07v10.88c0,.93.22,1.53.67,1.78a3.35,3.35,0,0,0,1.67.38,5.14,5.14,0,0,0,1.44-.22l.31-.07a1.53,1.53,0,0,1,.41,0,1.27,1.27,0,0,1,.9.38,1.21,1.21,0,0,1,.4.92,1.37,1.37,0,0,1-.83,1.26,7.09,7.09,0,0,1-3,.65C1433.41,913.42,1431.65,911.83,1431.65,908.66Z"/><path d="M1454.77,908.66V897.5h-2.56a.65.65,0,0,1-.68-.68.74.74,0,0,1,.32-.61l4.9-4.79a.87.87,0,0,1,.61-.32.63.63,0,0,1,.48.21.7.7,0,0,1,.2.51v2.88h4.07a1.34,1.34,0,0,1,1.4,1.4,1.41,1.41,0,0,1-.39,1,1.33,1.33,0,0,1-1,.41H1458v10.88c0,.93.22,1.53.67,1.78a3.35,3.35,0,0,0,1.67.38,5.14,5.14,0,0,0,1.44-.22l.31-.07a1.62,1.62,0,0,1,.41,0,1.27,1.27,0,0,1,.9.38,1.21,1.21,0,0,1,.4.92,1.37,1.37,0,0,1-.83,1.26,7.09,7.09,0,0,1-3,.65Q1454.77,913.42,1454.77,908.66Z"/><path d="M1467.91,912.77a1.54,1.54,0,0,1-.47-1.15V888.25a1.62,1.62,0,0,1,.47-1.17,1.53,1.53,0,0,1,1.15-.48,1.64,1.64,0,0,1,1.65,1.65v9.4a12,12,0,0,1,3-2.41,7.42,7.42,0,0,1,3.74-.9,6.26,6.26,0,0,1,3.44.93,6.17,6.17,0,0,1,2.23,2.56,8.1,8.1,0,0,1,.77,3.56v10.23a1.55,1.55,0,0,1-.48,1.15,1.66,1.66,0,0,1-1.17.47,1.56,1.56,0,0,1-1.15-.47,1.54,1.54,0,0,1-.47-1.15v-9.87q0-4.39-4-4.39a5.66,5.66,0,0,0-3.22.94,11.48,11.48,0,0,0-2.69,2.52v10.8a1.55,1.55,0,0,1-.48,1.15,1.66,1.66,0,0,1-1.17.47A1.56,1.56,0,0,1,1467.91,912.77Z"/><path d="M1491.11,912.77a5,5,0,0,1-2.14-1.89,5.19,5.19,0,0,1-.8-2.86,5.05,5.05,0,0,1,2.11-4.25q2.1-1.59,6.17-1.59h4.36v-.28a4.36,4.36,0,0,0-1.17-3.42,5.36,5.36,0,0,0-3.65-1.05,11.71,11.71,0,0,0-2.43.22,19,19,0,0,0-2.36.65,2.54,2.54,0,0,1-.47.07,1.28,1.28,0,0,1-.94-.4,1.33,1.33,0,0,1-.39-1,1.39,1.39,0,0,1,.93-1.37,15.91,15.91,0,0,1,6.23-1.29,8.16,8.16,0,0,1,4.2,1,6.43,6.43,0,0,1,2.52,2.61,7.61,7.61,0,0,1,.81,3.48v10.19a1.56,1.56,0,0,1-.49,1.15,1.64,1.64,0,0,1-1.17.47,1.56,1.56,0,0,1-1.15-.47,1.58,1.58,0,0,1-.47-1.15v-.94a9.07,9.07,0,0,1-6.77,2.74A6.72,6.72,0,0,1,1491.11,912.77Zm7.22-3a8.53,8.53,0,0,0,2.48-1.92v-3h-3.92q-5.45,0-5.44,2.85a2.64,2.64,0,0,0,.88,2.08,4.36,4.36,0,0,0,2.94.8A6.5,6.5,0,0,0,1498.33,909.76Z"/><path d="M1510.24,908.66V897.5h-2.55a.66.66,0,0,1-.49-.19.7.7,0,0,1-.2-.49.75.75,0,0,1,.33-.61l4.89-4.79a.89.89,0,0,1,.61-.32.64.64,0,0,1,.49.21.74.74,0,0,1,.2.51v2.88h4.07a1.41,1.41,0,0,1,1,2.39,1.31,1.31,0,0,1-1,.41h-4.07v10.88c0,.93.22,1.53.66,1.78a3.42,3.42,0,0,0,1.68.38,5.14,5.14,0,0,0,1.44-.22l.3-.07a1.66,1.66,0,0,1,.42,0,1.3,1.3,0,0,1,.9.38,1.23,1.23,0,0,1,.39.92,1.36,1.36,0,0,1-.82,1.26,7.12,7.12,0,0,1-3,.65Q1510.24,913.42,1510.24,908.66Z"/><path d="M1534.11,912.77a1.58,1.58,0,0,1-.47-1.15V897.5h-2.12a1.31,1.31,0,0,1-1-.41,1.35,1.35,0,0,1-.42-1,1.34,1.34,0,0,1,.42-1,1.37,1.37,0,0,1,1-.39h2.12v-2.09a7.21,7.21,0,0,1,.78-3.55,4.75,4.75,0,0,1,2-2,5.71,5.71,0,0,1,2.61-.63,6.89,6.89,0,0,1,3.13.72,1.58,1.58,0,0,1,.6.52,1.32,1.32,0,0,1,.23.74,1.35,1.35,0,0,1-.39,1,1.25,1.25,0,0,1-.94.41,3.48,3.48,0,0,1-.83-.1c-.57-.08-.9-.11-1-.11a3.2,3.2,0,0,0-2.22.68,3.35,3.35,0,0,0-.73,2.49v2h4.5a1.4,1.4,0,0,1,1,.39,1.39,1.39,0,0,1,.39,1,1.41,1.41,0,0,1-.39,1,1.34,1.34,0,0,1-1,.41h-4.5v14.12a1.52,1.52,0,0,1-.49,1.15,1.62,1.62,0,0,1-1.17.47A1.56,1.56,0,0,1,1534.11,912.77Z"/><path d="M1546.49,912.77a1.57,1.57,0,0,1-.46-1.15V896.17a1.65,1.65,0,0,1,.46-1.17,1.55,1.55,0,0,1,1.15-.48,1.66,1.66,0,0,1,1.66,1.65v1.55c1.68-2.26,3.57-3.38,5.65-3.38h.18a1.51,1.51,0,0,1,1.14.46,1.62,1.62,0,0,1,.45,1.16,1.46,1.46,0,0,1-.47,1.11,1.67,1.67,0,0,1-1.19.43h-.18a6.19,6.19,0,0,0-3.17.85,7.3,7.3,0,0,0-2.41,2.32v11a1.52,1.52,0,0,1-.49,1.15,1.62,1.62,0,0,1-1.17.47A1.58,1.58,0,0,1,1546.49,912.77Z"/><path d="M1560.06,890.41a1.79,1.79,0,0,1-.53-1.29V889a1.83,1.83,0,0,1,1.83-1.83h.22a1.84,1.84,0,0,1,1.83,1.83v.15a1.84,1.84,0,0,1-1.83,1.83h-.22A1.8,1.8,0,0,1,1560.06,890.41Zm.22,22.36a1.58,1.58,0,0,1-.47-1.15V896.17a1.66,1.66,0,0,1,.47-1.17,1.55,1.55,0,0,1,1.15-.48,1.61,1.61,0,0,1,1.19.46,1.64,1.64,0,0,1,.47,1.19v15.45a1.52,1.52,0,0,1-.49,1.15,1.62,1.62,0,0,1-1.17.47A1.58,1.58,0,0,1,1560.28,912.77Z"/><path d="M1568.17,911.8a1.39,1.39,0,0,1-.62-1.19,1.46,1.46,0,0,1,.4-1,1.29,1.29,0,0,1,1-.43,1.73,1.73,0,0,1,.65.14,13.61,13.61,0,0,0,2.3.79,10.31,10.31,0,0,0,2.59.29q4,0,4-2.55a1.35,1.35,0,0,0-.92-1.26,18.51,18.51,0,0,0-3-1,26.85,26.85,0,0,1-3.51-1,6.21,6.21,0,0,1-2.37-1.64,4.16,4.16,0,0,1-1-2.9,5.16,5.16,0,0,1,1.82-4.1,7.64,7.64,0,0,1,5.2-1.58,15.07,15.07,0,0,1,5.22.9,1.31,1.31,0,0,1,.77.54,1.42,1.42,0,0,1-.14,1.83,1.37,1.37,0,0,1-1,.43,2,2,0,0,1-.47-.07,13.85,13.85,0,0,0-4.1-.65,5.58,5.58,0,0,0-3,.71,2.08,2.08,0,0,0-1.1,1.81,1.67,1.67,0,0,0,1,1.59,14.5,14.5,0,0,0,3.13,1,30.28,30.28,0,0,1,3.46,1.06,5.84,5.84,0,0,1,2.28,1.64,4.42,4.42,0,0,1,1,3,4.75,4.75,0,0,1-1.82,3.81,7.81,7.81,0,0,1-5.13,1.52A13.36,13.36,0,0,1,1568.17,911.8Z"/><path d="M1586.53,912.77a1.54,1.54,0,0,1-.47-1.15V888.25a1.62,1.62,0,0,1,.47-1.17,1.53,1.53,0,0,1,1.15-.48,1.64,1.64,0,0,1,1.65,1.65V903l8.57-7.92a1.62,1.62,0,0,1,1.08-.47,1.45,1.45,0,0,1,1.21.47,1.71,1.71,0,0,1,.37,1.11,1.76,1.76,0,0,1-.61,1.23l-5.18,4.64,6.52,8.64a1.56,1.56,0,0,1,.35,1,1.48,1.48,0,0,1-.46,1.15,1.68,1.68,0,0,1-1.19.44,1.6,1.6,0,0,1-.72-.18,1.67,1.67,0,0,1-.61-.51l-6.2-8.42-3.13,2.84v4.65a1.55,1.55,0,0,1-.48,1.15,1.66,1.66,0,0,1-1.17.47A1.56,1.56,0,0,1,1586.53,912.77Z"/><path d="M1608.68,921.05a1.56,1.56,0,0,1-.45-1.12,1.65,1.65,0,0,1,.11-.57l2.34-6-6.77-16.48a2,2,0,0,1-.14-.69,1.66,1.66,0,0,1,.47-1.17,1.53,1.53,0,0,1,1.15-.48,1.61,1.61,0,0,1,.92.28,1.76,1.76,0,0,1,.59.72l5.55,13.76,5.65-13.68a1.56,1.56,0,0,1,1.51-1.08,1.55,1.55,0,0,1,1.15.48,1.66,1.66,0,0,1,.47,1.17,1.74,1.74,0,0,1-.11.61l-9.83,23.62a1.62,1.62,0,0,1-1.51,1.12A1.48,1.48,0,0,1,1608.68,921.05Z"/><path d="M1638.08,912.26a8.73,8.73,0,0,1-3.51-3.31,10.42,10.42,0,0,1,0-10.15,8.8,8.8,0,0,1,3.51-3.31,10.92,10.92,0,0,1,8.08-.67,13,13,0,0,1,2.57,1.24,1.44,1.44,0,0,1,.31,2.25,1.27,1.27,0,0,1-1,.45,1.7,1.7,0,0,1-.79-.21,13.53,13.53,0,0,0-2-.88,7,7,0,0,0-2.11-.27,6.53,6.53,0,0,0-4.86,1.78,7.14,7.14,0,0,0,0,9.39,6.54,6.54,0,0,0,4.86,1.79,7,7,0,0,0,2.11-.27,13.72,13.72,0,0,0,2-.89,1.7,1.7,0,0,1,.79-.21,1.27,1.27,0,0,1,1,.45,1.45,1.45,0,0,1,.41,1,1.43,1.43,0,0,1-.72,1.26,12.46,12.46,0,0,1-2.57,1.24,10.78,10.78,0,0,1-8.08-.67Z"/><path d="M1655.3,912.77a5.09,5.09,0,0,1-2.14-1.89,5.19,5.19,0,0,1-.79-2.86,5,5,0,0,1,2.1-4.25,10.17,10.17,0,0,1,6.18-1.59H1665v-.28a4.36,4.36,0,0,0-1.17-3.42,5.34,5.34,0,0,0-3.65-1.05,11.85,11.85,0,0,0-2.43.22,19.51,19.51,0,0,0-2.36.65,2.54,2.54,0,0,1-.47.07,1.24,1.24,0,0,1-.93-.4,1.3,1.3,0,0,1-.4-1,1.39,1.39,0,0,1,.94-1.37,15.88,15.88,0,0,1,6.23-1.29,8.15,8.15,0,0,1,4.19,1,6.43,6.43,0,0,1,2.52,2.61,7.61,7.61,0,0,1,.81,3.48v10.19a1.52,1.52,0,0,1-.49,1.15,1.62,1.62,0,0,1-1.17.47,1.6,1.6,0,0,1-1.62-1.62v-.94a9,9,0,0,1-6.76,2.74A6.73,6.73,0,0,1,1655.3,912.77Zm7.22-3a8.53,8.53,0,0,0,2.48-1.92v-3h-3.92c-3.62,0-5.44,1-5.44,2.85a2.65,2.65,0,0,0,.89,2.08,4.31,4.31,0,0,0,2.93.8A6.45,6.45,0,0,0,1662.52,909.76Z"/><path d="M1674.44,908.66V897.5h-2.56a.65.65,0,0,1-.68-.68.74.74,0,0,1,.32-.61l4.9-4.79a.87.87,0,0,1,.61-.32.63.63,0,0,1,.48.21.7.7,0,0,1,.2.51v2.88h4.07a1.34,1.34,0,0,1,1.4,1.4,1.41,1.41,0,0,1-.39,1,1.33,1.33,0,0,1-1,.41h-4.07v10.88c0,.93.22,1.53.67,1.78a3.35,3.35,0,0,0,1.67.38,5.14,5.14,0,0,0,1.44-.22l.31-.07a1.58,1.58,0,0,1,.41,0,1.27,1.27,0,0,1,.9.38,1.21,1.21,0,0,1,.4.92,1.37,1.37,0,0,1-.83,1.26,7.09,7.09,0,0,1-3,.65Q1674.44,913.42,1674.44,908.66Z"/><path d="M1700.82,921.16a13.76,13.76,0,0,1-3.49-1.34,1.36,1.36,0,0,1-.65-1.26,1.46,1.46,0,0,1,.42-1,1.31,1.31,0,0,1,1-.45,1.91,1.91,0,0,1,.65.14,13.13,13.13,0,0,0,5.94,1.37q5.51,0,5.51-5.87v-2.41a8.14,8.14,0,0,1-6.16,2.74,8.67,8.67,0,0,1-4.12-1.07,8.5,8.5,0,0,1-3.29-3.16,10.77,10.77,0,0,1,0-10.26,8.53,8.53,0,0,1,3.29-3.17,8.66,8.66,0,0,1,4.12-1.06,8.13,8.13,0,0,1,6.16,2.73v-.9a1.66,1.66,0,0,1,.47-1.17,1.53,1.53,0,0,1,1.15-.48,1.61,1.61,0,0,1,1.17.48,1.63,1.63,0,0,1,.49,1.17v16.09c0,3-.74,5.36-2.2,7a8,8,0,0,1-6.26,2.45A17.08,17.08,0,0,1,1700.82,921.16Zm6.92-11.81a10.73,10.73,0,0,0,2.48-2V900a10.73,10.73,0,0,0-2.48-2,6.68,6.68,0,0,0-7.4.92,7.41,7.41,0,0,0,0,9.47,6.68,6.68,0,0,0,7.4.92Z"/><path d="M1722.42,912.23a8.12,8.12,0,0,1-3.22-3.37,11.56,11.56,0,0,1,0-10,8.18,8.18,0,0,1,3.22-3.37,10.54,10.54,0,0,1,9.69,0,8.29,8.29,0,0,1,3.24,3.37,11.38,11.38,0,0,1,0,10,8.22,8.22,0,0,1-3.24,3.37,10.46,10.46,0,0,1-9.69,0Zm7.69-2.49a5.43,5.43,0,0,0,2.23-2.16,8.32,8.32,0,0,0,0-7.45,5.38,5.38,0,0,0-2.23-2.14,6.36,6.36,0,0,0-2.83-.67,6.46,6.46,0,0,0-2.86.67,5.22,5.22,0,0,0-2.21,2.14,8.41,8.41,0,0,0,0,7.45,5.27,5.27,0,0,0,2.21,2.16,6.22,6.22,0,0,0,2.86.69A6.13,6.13,0,0,0,1730.11,909.74Z"/><path d="M1741.81,912.57a2.08,2.08,0,0,1-.63-1.53,2.15,2.15,0,0,1,2.12-2.12,2.08,2.08,0,0,1,1.53.63,2,2,0,0,1,.63,1.49,2.15,2.15,0,0,1-2.16,2.16A2,2,0,0,1,1741.81,912.57Zm.63-6.75a1,1,0,0,1-.36-.76l-.65-11.88v-3.56a1.84,1.84,0,0,1,1.87-1.87,1.76,1.76,0,0,1,1.32.54,1.87,1.87,0,0,1,.52,1.33v3.56l-.65,11.88a1.1,1.1,0,0,1-.34.76,1.2,1.2,0,0,1-.85.29A1.24,1.24,0,0,1,1742.44,905.82Z"/><path d="M1317.29,954.89a1.68,1.68,0,0,1-.73-.6,1.51,1.51,0,0,1-.28-.88,1.49,1.49,0,0,1,.41-1.06,1.38,1.38,0,0,1,1.06-.45,1.81,1.81,0,0,1,.69.14,17.09,17.09,0,0,0,7.09,1.48q6.3,0,6.3-4.14a2.31,2.31,0,0,0-.81-1.8,5.8,5.8,0,0,0-2-1.13c-.79-.28-1.92-.61-3.38-1a43.85,43.85,0,0,1-4.72-1.46,8.27,8.27,0,0,1-3.1-2.11,5.3,5.3,0,0,1-1.29-3.74,6.75,6.75,0,0,1,1.08-3.73,7.47,7.47,0,0,1,3.18-2.66,11.83,11.83,0,0,1,5.06-1A20.35,20.35,0,0,1,1333,932a1.41,1.41,0,0,1,1,1.44,1.6,1.6,0,0,1-.4,1,1.3,1.3,0,0,1-1.05.47,1.6,1.6,0,0,1-.57-.15,17.78,17.78,0,0,0-5.8-1,8.83,8.83,0,0,0-4.62,1.08,3.37,3.37,0,0,0-1.79,3,2.79,2.79,0,0,0,.85,2.1,5.74,5.74,0,0,0,2.13,1.26,34.3,34.3,0,0,0,3.47,1,37,37,0,0,1,4.59,1.36,7.62,7.62,0,0,1,3,2.13,5.78,5.78,0,0,1,1.24,3.89,6,6,0,0,1-1.15,3.61,7.58,7.58,0,0,1-3.24,2.51,12.1,12.1,0,0,1-4.83.9A21.33,21.33,0,0,1,1317.29,954.89Z"/><path d="M1339.64,964.23a1.62,1.62,0,0,1-.47-1.17V939.34a1.6,1.6,0,0,1,.47-1.16,1.57,1.57,0,0,1,1.15-.46,1.61,1.61,0,0,1,1.17.46,1.54,1.54,0,0,1,.49,1.16v.93a8.27,8.27,0,0,1,6.16-2.73,8.37,8.37,0,0,1,4.22,1.13,8.53,8.53,0,0,1,3.24,3.31,11,11,0,0,1,0,10.19,8.56,8.56,0,0,1-7.46,4.45,8.28,8.28,0,0,1-6.16-2.74v9.18a1.61,1.61,0,0,1-1.66,1.66A1.56,1.56,0,0,1,1339.64,964.23Zm12.78-12.37a7.88,7.88,0,0,0,0-9.57,5.65,5.65,0,0,0-4.28-1.69,6.82,6.82,0,0,0-3.12.73,9,9,0,0,0-2.57,2v7.56a8.91,8.91,0,0,0,2.57,2,6.83,6.83,0,0,0,3.12.74A5.66,5.66,0,0,0,1352.42,951.86Z"/><path d="M1362.14,933.61a1.76,1.76,0,0,1-.54-1.29v-.15a1.84,1.84,0,0,1,1.84-1.83h.21a1.84,1.84,0,0,1,1.84,1.83v.15a1.84,1.84,0,0,1-1.84,1.83h-.21A1.77,1.77,0,0,1,1362.14,933.61Zm.22,22.36a1.54,1.54,0,0,1-.47-1.15V939.37a1.62,1.62,0,0,1,.47-1.17,1.53,1.53,0,0,1,1.15-.48,1.58,1.58,0,0,1,1.65,1.65v15.45a1.55,1.55,0,0,1-.48,1.15,1.66,1.66,0,0,1-1.17.47A1.56,1.56,0,0,1,1362.36,956Z"/><path d="M1371.32,956a1.58,1.58,0,0,1-.47-1.15V939.37a1.66,1.66,0,0,1,.47-1.17,1.55,1.55,0,0,1,1.15-.48,1.66,1.66,0,0,1,1.66,1.65v1.48a11.8,11.8,0,0,1,2.95-2.41,7.45,7.45,0,0,1,3.74-.9,6.26,6.26,0,0,1,3.44.93,6.1,6.1,0,0,1,2.23,2.56,8.11,8.11,0,0,1,.78,3.56v10.23a1.52,1.52,0,0,1-.49,1.15,1.62,1.62,0,0,1-1.17.47,1.6,1.6,0,0,1-1.62-1.62V945q0-4.4-4-4.39a5.68,5.68,0,0,0-3.22.94,11.45,11.45,0,0,0-2.68,2.52v10.8a1.52,1.52,0,0,1-.49,1.15,1.62,1.62,0,0,1-1.17.47A1.58,1.58,0,0,1,1371.32,956Z"/><path d="M1393.24,956a1.57,1.57,0,0,1-.46-1.15V939.37a1.65,1.65,0,0,1,.46-1.17,1.57,1.57,0,0,1,1.16-.48,1.64,1.64,0,0,1,1.65,1.65v1.48a12,12,0,0,1,3-2.41,7.49,7.49,0,0,1,3.75-.9,6.28,6.28,0,0,1,3.44.93,6.17,6.17,0,0,1,2.23,2.56,8.24,8.24,0,0,1,.77,3.56v10.23a1.55,1.55,0,0,1-.48,1.15,1.66,1.66,0,0,1-1.17.47,1.6,1.6,0,0,1-1.16-.47,1.57,1.57,0,0,1-.46-1.15V945q0-4.4-4-4.39a5.72,5.72,0,0,0-3.23.94,11.64,11.64,0,0,0-2.68,2.52v10.8a1.55,1.55,0,0,1-.48,1.15,1.66,1.66,0,0,1-1.17.47A1.6,1.6,0,0,1,1393.24,956Z"/><path d="M1415,933.61a1.76,1.76,0,0,1-.54-1.29v-.15a1.84,1.84,0,0,1,1.84-1.83h.21a1.84,1.84,0,0,1,1.84,1.83v.15a1.84,1.84,0,0,1-1.84,1.83h-.21A1.77,1.77,0,0,1,1415,933.61Zm.22,22.36a1.58,1.58,0,0,1-.47-1.15V939.37a1.66,1.66,0,0,1,.47-1.17,1.53,1.53,0,0,1,1.15-.48,1.61,1.61,0,0,1,1.19.46,1.64,1.64,0,0,1,.47,1.19v15.45a1.56,1.56,0,0,1-.49,1.15,1.62,1.62,0,0,1-1.17.47A1.56,1.56,0,0,1,1415.17,956Z"/><path d="M1424.13,956a1.58,1.58,0,0,1-.47-1.15V939.37a1.66,1.66,0,0,1,.47-1.17,1.55,1.55,0,0,1,1.15-.48,1.66,1.66,0,0,1,1.66,1.65v1.48a12,12,0,0,1,3-2.41,7.49,7.49,0,0,1,3.75-.9,6,6,0,0,1,5.67,3.49,8.24,8.24,0,0,1,.77,3.56v10.23a1.52,1.52,0,0,1-.49,1.15,1.62,1.62,0,0,1-1.17.47,1.6,1.6,0,0,1-1.62-1.62V945q0-4.4-4-4.39a5.68,5.68,0,0,0-3.22.94,11.45,11.45,0,0,0-2.68,2.52v10.8a1.52,1.52,0,0,1-.49,1.15,1.62,1.62,0,0,1-1.17.47A1.58,1.58,0,0,1,1424.13,956Z"/><path d="M1449.94,964.36a13.76,13.76,0,0,1-3.49-1.34,1.36,1.36,0,0,1-.65-1.26,1.46,1.46,0,0,1,.42-1,1.33,1.33,0,0,1,1-.45,1.86,1.86,0,0,1,.65.14,13.13,13.13,0,0,0,5.94,1.37q5.51,0,5.51-5.87v-2.41a8.16,8.16,0,0,1-6.16,2.74,8.67,8.67,0,0,1-4.12-1.07,8.5,8.5,0,0,1-3.29-3.16,10.77,10.77,0,0,1,0-10.26,8.53,8.53,0,0,1,3.29-3.17,8.66,8.66,0,0,1,4.12-1.06,8.15,8.15,0,0,1,6.16,2.73v-.9a1.66,1.66,0,0,1,.47-1.17,1.53,1.53,0,0,1,1.15-.48,1.61,1.61,0,0,1,1.17.48,1.63,1.63,0,0,1,.49,1.17v16.09c0,3-.74,5.36-2.2,7a8,8,0,0,1-6.26,2.45A17.08,17.08,0,0,1,1449.94,964.36Zm6.92-11.81a10.73,10.73,0,0,0,2.48-1.95v-7.41a10.73,10.73,0,0,0-2.48-2,6.68,6.68,0,0,0-7.4.92,7.41,7.41,0,0,0,0,9.47,6.68,6.68,0,0,0,7.4.92Z"/><path d="M1479.41,956a5,5,0,0,1-2.14-1.89,5.19,5.19,0,0,1-.8-2.86,5.05,5.05,0,0,1,2.11-4.25q2.1-1.59,6.17-1.59h4.36v-.28a4.36,4.36,0,0,0-1.17-3.42,5.36,5.36,0,0,0-3.65-1,11.78,11.78,0,0,0-2.43.22,19,19,0,0,0-2.36.65,2.54,2.54,0,0,1-.47.07,1.24,1.24,0,0,1-.93-.4,1.3,1.3,0,0,1-.4-1,1.39,1.39,0,0,1,.93-1.37,15.91,15.91,0,0,1,6.23-1.29,8.16,8.16,0,0,1,4.2,1,6.43,6.43,0,0,1,2.52,2.61,7.61,7.61,0,0,1,.81,3.48v10.19a1.56,1.56,0,0,1-.49,1.15,1.62,1.62,0,0,1-1.17.47,1.6,1.6,0,0,1-1.62-1.62v-.94a9.07,9.07,0,0,1-6.77,2.74A6.72,6.72,0,0,1,1479.41,956Zm7.22-3a8.53,8.53,0,0,0,2.48-1.92v-3h-3.92q-5.45,0-5.44,2.85a2.64,2.64,0,0,0,.88,2.08,4.36,4.36,0,0,0,2.94.8A6.5,6.5,0,0,0,1486.63,953Z"/><path d="M1511.61,964.36a13.61,13.61,0,0,1-3.49-1.34,1.36,1.36,0,0,1-.65-1.26,1.49,1.49,0,0,1,.41-1,1.35,1.35,0,0,1,1-.45,1.91,1.91,0,0,1,.65.14,13.1,13.1,0,0,0,5.94,1.37q5.51,0,5.51-5.87v-2.41a8.16,8.16,0,0,1-6.16,2.74,8.75,8.75,0,0,1-7.42-4.23,10.85,10.85,0,0,1,0-10.26,8.69,8.69,0,0,1,7.42-4.23,8.15,8.15,0,0,1,6.16,2.73v-.9a1.65,1.65,0,0,1,.46-1.17,1.56,1.56,0,0,1,1.15-.48,1.66,1.66,0,0,1,1.66,1.65v16.09q0,4.54-2.19,7a8,8,0,0,1-6.27,2.45A17.06,17.06,0,0,1,1511.61,964.36Zm6.91-11.81a11,11,0,0,0,2.49-1.95v-7.41a11,11,0,0,0-2.49-2,6,6,0,0,0-3-.72,6.12,6.12,0,0,0-4.41,1.64,7.41,7.41,0,0,0,0,9.47,6.12,6.12,0,0,0,4.41,1.64A6,6,0,0,0,1518.52,952.55Z"/><path d="M1533.21,955.43a8.05,8.05,0,0,1-3.22-3.37,11.47,11.47,0,0,1,0-10,8.11,8.11,0,0,1,3.22-3.37,10.52,10.52,0,0,1,9.68,0,8.16,8.16,0,0,1,3.24,3.37,11.29,11.29,0,0,1,0,10,8.1,8.1,0,0,1-3.24,3.37,10.44,10.44,0,0,1-9.68,0Zm7.68-2.49a5.45,5.45,0,0,0,2.24-2.16,8.32,8.32,0,0,0,0-7.45,5.4,5.4,0,0,0-2.24-2.14,6.32,6.32,0,0,0-2.82-.67,6.43,6.43,0,0,0-2.86.67,5.3,5.3,0,0,0-2.22,2.14,8.5,8.5,0,0,0,0,7.45,5.35,5.35,0,0,0,2.22,2.16,6.19,6.19,0,0,0,2.86.69A6.09,6.09,0,0,0,1540.89,952.94Z"/><path d="M1555.13,953.88v.94a1.55,1.55,0,0,1-.48,1.15,1.66,1.66,0,0,1-1.17.47,1.6,1.6,0,0,1-1.16-.47,1.57,1.57,0,0,1-.46-1.15V931.45a1.65,1.65,0,0,1,.46-1.17,1.57,1.57,0,0,1,1.16-.48,1.58,1.58,0,0,1,1.65,1.65v8.82a8.29,8.29,0,0,1,6.16-2.73,8.38,8.38,0,0,1,4.23,1.13,8.67,8.67,0,0,1,3.24,3.31,11.09,11.09,0,0,1,0,10.19,8.6,8.6,0,0,1-3.24,3.31,8.39,8.39,0,0,1-4.23,1.14A8.3,8.3,0,0,1,1555.13,953.88Zm10-2a7.92,7.92,0,0,0,0-9.57,5.66,5.66,0,0,0-4.29-1.69,6.81,6.81,0,0,0-3.11.73,9,9,0,0,0-2.58,2v7.56a9,9,0,0,0,2.58,2,6.82,6.82,0,0,0,3.11.74A5.66,5.66,0,0,0,1565.11,951.86Z"/><path d="M1575,956a1.58,1.58,0,0,1-.47-1.15V931.45a1.66,1.66,0,0,1,.47-1.17,1.55,1.55,0,0,1,1.15-.48,1.61,1.61,0,0,1,1.19.46,1.64,1.64,0,0,1,.47,1.19v23.37a1.52,1.52,0,0,1-.49,1.15,1.62,1.62,0,0,1-1.17.47A1.58,1.58,0,0,1,1575,956Z"/><path d="M1583.79,933.61a1.76,1.76,0,0,1-.54-1.29v-.15a1.84,1.84,0,0,1,1.83-1.83h.22a1.78,1.78,0,0,1,1.3.54,1.76,1.76,0,0,1,.54,1.29v.15a1.76,1.76,0,0,1-.54,1.29,1.78,1.78,0,0,1-1.3.54h-.22A1.76,1.76,0,0,1,1583.79,933.61ZM1584,956a1.57,1.57,0,0,1-.46-1.15V939.37a1.65,1.65,0,0,1,.46-1.17,1.57,1.57,0,0,1,1.16-.48,1.58,1.58,0,0,1,1.65,1.65v15.45a1.55,1.55,0,0,1-.48,1.15,1.66,1.66,0,0,1-1.17.47A1.6,1.6,0,0,1,1584,956Z"/><path d="M1593,956a1.58,1.58,0,0,1-.47-1.15V939.37a1.66,1.66,0,0,1,.47-1.17,1.53,1.53,0,0,1,1.15-.48,1.66,1.66,0,0,1,1.66,1.65v1.48a11.8,11.8,0,0,1,3-2.41,7.45,7.45,0,0,1,3.74-.9,6.26,6.26,0,0,1,3.44.93,6.1,6.1,0,0,1,2.23,2.56,8.11,8.11,0,0,1,.78,3.56v10.23a1.56,1.56,0,0,1-.49,1.15,1.62,1.62,0,0,1-1.17.47,1.56,1.56,0,0,1-1.15-.47,1.58,1.58,0,0,1-.47-1.15V945q0-4.4-4-4.39a5.68,5.68,0,0,0-3.22.94,11.45,11.45,0,0,0-2.68,2.52v10.8a1.52,1.52,0,0,1-.49,1.15,1.62,1.62,0,0,1-1.17.47A1.56,1.56,0,0,1,1593,956Z"/><path d="M1614.48,947.2a1.37,1.37,0,0,1-.42-1,1.46,1.46,0,0,1,.42-1,1.35,1.35,0,0,1,1-.43h6.81a1.4,1.4,0,0,1,1,.43,1.44,1.44,0,0,1,.44,1,1.35,1.35,0,0,1-.44,1,1.43,1.43,0,0,1-1,.42h-6.81A1.37,1.37,0,0,1,1614.48,947.2Z"/><path d="M1629.76,951.86V940.7h-2.55a.66.66,0,0,1-.49-.19.7.7,0,0,1-.2-.49.76.76,0,0,1,.32-.61l4.9-4.79a.89.89,0,0,1,.61-.32.65.65,0,0,1,.49.21.74.74,0,0,1,.2.51v2.88h4.06a1.37,1.37,0,0,1,1,.39,1.36,1.36,0,0,1,.4,1,1.37,1.37,0,0,1-.4,1,1.31,1.31,0,0,1-1,.41H1633v10.88c0,.93.22,1.53.66,1.78a3.42,3.42,0,0,0,1.68.38,5.14,5.14,0,0,0,1.44-.22l.3-.07a1.66,1.66,0,0,1,.42,0,1.3,1.3,0,0,1,.9.38,1.23,1.23,0,0,1,.39.92A1.35,1.35,0,0,1,1638,956a7,7,0,0,1-3,.65Q1629.76,956.62,1629.76,951.86Z"/><path d="M1645.42,955.43a8.12,8.12,0,0,1-3.22-3.37,11.47,11.47,0,0,1,0-10,8.18,8.18,0,0,1,3.22-3.37,10.54,10.54,0,0,1,9.69,0,8.29,8.29,0,0,1,3.24,3.37,11.38,11.38,0,0,1,0,10,8.22,8.22,0,0,1-3.24,3.37,10.46,10.46,0,0,1-9.69,0Zm7.69-2.49a5.43,5.43,0,0,0,2.23-2.16,8.32,8.32,0,0,0,0-7.45,5.38,5.38,0,0,0-2.23-2.14,6.38,6.38,0,0,0-5.69,0,5.22,5.22,0,0,0-2.21,2.14,8.41,8.41,0,0,0,0,7.45,5.27,5.27,0,0,0,2.21,2.16,6.21,6.21,0,0,0,5.69,0Z"/><path d="M1664.54,956a1.54,1.54,0,0,1-.47-1.15V939.37a1.62,1.62,0,0,1,.47-1.17,1.53,1.53,0,0,1,1.15-.48,1.64,1.64,0,0,1,1.65,1.65v1.55c1.68-2.26,3.57-3.38,5.66-3.38h.18a1.51,1.51,0,0,1,1.13.46,1.62,1.62,0,0,1,.45,1.16,1.46,1.46,0,0,1-.47,1.11,1.67,1.67,0,0,1-1.19.43h-.18a6.13,6.13,0,0,0-3.16.85,7.33,7.33,0,0,0-2.42,2.32v11a1.55,1.55,0,0,1-.48,1.15,1.66,1.66,0,0,1-1.17.47A1.56,1.56,0,0,1,1664.54,956Z"/><path d="M1678.32,956a1.57,1.57,0,0,1-.46-1.15V939.37a1.65,1.65,0,0,1,.46-1.17,1.57,1.57,0,0,1,1.16-.48,1.64,1.64,0,0,1,1.65,1.65v1.48a11.84,11.84,0,0,1,3-2.41,7.42,7.42,0,0,1,3.74-.9,6.28,6.28,0,0,1,3.44.93,6.17,6.17,0,0,1,2.23,2.56,8.1,8.1,0,0,1,.77,3.56v10.23a1.55,1.55,0,0,1-.48,1.15,1.66,1.66,0,0,1-1.17.47,1.6,1.6,0,0,1-1.16-.47,1.57,1.57,0,0,1-.46-1.15V945q0-4.4-4-4.39a5.72,5.72,0,0,0-3.23.94,11.64,11.64,0,0,0-2.68,2.52v10.8a1.55,1.55,0,0,1-.48,1.15,1.66,1.66,0,0,1-1.17.47A1.6,1.6,0,0,1,1678.32,956Z"/><path d="M1701.53,956a5.12,5.12,0,0,1-2.15-1.89,5.27,5.27,0,0,1-.79-2.86,5,5,0,0,1,2.11-4.25q2.1-1.59,6.17-1.59h4.36v-.28a4.36,4.36,0,0,0-1.17-3.42,5.37,5.37,0,0,0-3.66-1,11.85,11.85,0,0,0-2.43.22,19.39,19.39,0,0,0-2.35.65,2.67,2.67,0,0,1-.47.07,1.28,1.28,0,0,1-.94-.4,1.33,1.33,0,0,1-.39-1,1.39,1.39,0,0,1,.93-1.37,15.91,15.91,0,0,1,6.23-1.29,8.16,8.16,0,0,1,4.2,1,6.56,6.56,0,0,1,2.52,2.61,7.74,7.74,0,0,1,.81,3.48v10.19A1.56,1.56,0,0,1,1714,956a1.64,1.64,0,0,1-1.17.47,1.56,1.56,0,0,1-1.15-.47,1.54,1.54,0,0,1-.47-1.15v-.94a9.07,9.07,0,0,1-6.77,2.74A6.69,6.69,0,0,1,1701.53,956Zm7.21-3a8.45,8.45,0,0,0,2.49-1.92v-3h-3.93q-5.43,0-5.43,2.85a2.64,2.64,0,0,0,.88,2.08,4.36,4.36,0,0,0,2.94.8A6.44,6.44,0,0,0,1708.74,953Z"/><path d="M1723.38,955.48a8.46,8.46,0,0,1-3.24-3.31,11,11,0,0,1,0-10.19,8.53,8.53,0,0,1,3.24-3.31,8.38,8.38,0,0,1,4.23-1.13,8.27,8.27,0,0,1,6.15,2.73v-8.82a1.62,1.62,0,0,1,1.66-1.65,1.53,1.53,0,0,1,1.15.48,1.66,1.66,0,0,1,.47,1.17v23.37a1.58,1.58,0,0,1-.47,1.15,1.56,1.56,0,0,1-1.15.47,1.62,1.62,0,0,1-1.17-.47,1.56,1.56,0,0,1-.49-1.15v-.94a8.28,8.28,0,0,1-6.15,2.74A8.39,8.39,0,0,1,1723.38,955.48Zm7.81-2.66a8.91,8.91,0,0,0,2.57-2V943.3a9,9,0,0,0-2.57-2,6.81,6.81,0,0,0-3.11-.73,5.66,5.66,0,0,0-4.29,1.69,7.88,7.88,0,0,0,0,9.57,5.66,5.66,0,0,0,4.29,1.7A6.82,6.82,0,0,0,1731.19,952.82Z"/><path d="M1746,955.43a8.05,8.05,0,0,1-3.22-3.37,11.47,11.47,0,0,1,0-10,8.11,8.11,0,0,1,3.22-3.37,10.52,10.52,0,0,1,9.68,0,8.29,8.29,0,0,1,3.24,3.37,11.38,11.38,0,0,1,0,10,8.22,8.22,0,0,1-3.24,3.37,10.44,10.44,0,0,1-9.68,0Zm7.68-2.49a5.45,5.45,0,0,0,2.24-2.16,8.32,8.32,0,0,0,0-7.45,5.4,5.4,0,0,0-2.24-2.14,6.35,6.35,0,0,0-2.82-.67,6.43,6.43,0,0,0-2.86.67,5.3,5.3,0,0,0-2.22,2.14,8.5,8.5,0,0,0,0,7.45,5.35,5.35,0,0,0,2.22,2.16,6.19,6.19,0,0,0,2.86.69A6.12,6.12,0,0,0,1753.65,952.94Z"/><path d="M1765.35,955.77a2.08,2.08,0,0,1-.63-1.53,2,2,0,0,1,.63-1.49,2,2,0,0,1,1.5-.63,2.08,2.08,0,0,1,1.53.63,2,2,0,0,1,.63,1.49,2.15,2.15,0,0,1-2.16,2.16A2,2,0,0,1,1765.35,955.77ZM1766,949a1.12,1.12,0,0,1-.36-.76l-.65-11.88v-3.56a1.77,1.77,0,0,1,.55-1.33,1.8,1.8,0,0,1,1.33-.54,1.74,1.74,0,0,1,1.31.54,1.82,1.82,0,0,1,.52,1.33v3.56l-.64,11.88a1.11,1.11,0,0,1-.35.76,1.17,1.17,0,0,1-.84.29A1.29,1.29,0,0,1,1766,949Z"/><path d="M227.41,193.71l-.72-4.45a2.16,2.16,0,0,0-.48-1.62c-.33-.28-.85-.74-1.57-1.38a4.65,4.65,0,0,1-1.32-3.07,31.41,31.41,0,0,1-.12-4.87q.24-3.48,1.32-11.78-.84-10.33-1.08-13.34-1.32-15.88.72-19.6a5.66,5.66,0,0,1,1-1.45A4,4,0,0,0,226,129c-.32-3,1.25-5,4.69-6.13a19.71,19.71,0,0,0,3-1.21c1-.48,2-.92,3-1.32a7.43,7.43,0,0,1,6,.06,8.81,8.81,0,0,0,5.11,1q2.64-.3,5.41-.72a51.3,51.3,0,0,1,5.35-.54,6.94,6.94,0,0,1,4.45,1.2q1.86,1.33,4,2.89a23.33,23.33,0,0,1,3.79,3.49q3.72,4.32,3.13,8.41a13.22,13.22,0,0,1,.84,8.66,4,4,0,0,0-.12,2.16,7.81,7.81,0,0,1,0,3.85,8.11,8.11,0,0,0-.18,3.55,6.64,6.64,0,0,1-.54,3.78,14.17,14.17,0,0,0-1.08,3.61,5.61,5.61,0,0,1-1.21,2.83,3.62,3.62,0,0,1-1.74,1.32,3.5,3.5,0,0,0-1.44.72,3.6,3.6,0,0,0-1,1.14,7.43,7.43,0,0,1-.9,1.33,10.09,10.09,0,0,1-3.72,3,10.91,10.91,0,0,0,3.12,3.55,15.85,15.85,0,0,1,3.07,2.76,4.92,4.92,0,0,1,1.32,2.83,8.87,8.87,0,0,0,.54,2.64,4.56,4.56,0,0,1,.36,2.11q-.12.78-.3,1.68t-.42,1.92a8.35,8.35,0,0,0-.18,2.29A6,6,0,0,1,270,194a8.91,8.91,0,0,1-.84,1.81q-.54.9-1.26,2a13.61,13.61,0,0,0-1.33,2.65,8.88,8.88,0,0,1-2.34,3.42c-1.08,1-1.93,1.81-2.53,2.41a10.54,10.54,0,0,0-1.74,2.46,7.23,7.23,0,0,1-4.33,3.73,3.12,3.12,0,0,1-3.84-1.32c-.49-.89-1.35-1.05-2.59-.48s-2.22,1-2.95,1.38a4.48,4.48,0,0,1-2.58.36c-1-.12-2-.28-3-.48a5.76,5.76,0,0,0-3.06.24,5.71,5.71,0,0,1-2.89.3,7.76,7.76,0,0,1-2.4-.84,5.81,5.81,0,0,1-3.13-3.37,20.9,20.9,0,0,1-1-4.51,32.84,32.84,0,0,0-.72-4.33,13.91,13.91,0,0,1-.48-2.82ZM244.48,161q0,6.38,2.29,6.37,1.2,0,2.16-1.74a10,10,0,0,0,1.2-3.31q.12-1.56.18-3.18a9,9,0,0,1,1.57-4.09,5.88,5.88,0,0,0,1-4.57A3.21,3.21,0,0,0,251,148a6.45,6.45,0,0,1-2.34-1.32,9.64,9.64,0,0,0-2.29-1.5q-1.26-.6-2.16.9a3.48,3.48,0,0,0,0,3.43,10.11,10.11,0,0,1,.6,5.17C244.58,156.8,244.48,158.93,244.48,161Zm3.37,17.31q-2.78-.84-3,2.77c-.16,1.68-.36,3.41-.6,5.17a12.06,12.06,0,0,0-.06,4l.66,2.88a15,15,0,0,0,1.44,1.08c.49.33.93.65,1.33,1A9.51,9.51,0,0,1,249,193a8.66,8.66,0,0,0,1.14-1.56,10.06,10.06,0,0,0,1.38-4.75,11.58,11.58,0,0,0-.42-4.51C250.45,180.09,249.37,178.8,247.85,178.32Z"/><path d="M288.49,211a4.29,4.29,0,0,1-2.71-.18,3.44,3.44,0,0,1-2.1-2,12.37,12.37,0,0,1-.79-3.48,30,30,0,0,1-.06-4.27c.08-1.52.13-3,.13-4.45,0-3.21-.53-5.25-1.57-6.13-2.16-1.61-3.05-5.69-2.64-12.27a91,91,0,0,1,1.32-9,42.4,42.4,0,0,0,1.14-9.38,41.56,41.56,0,0,1,.24-6,25.72,25.72,0,0,1,.72-3.61c.28-1,.62-2,1-3a25.09,25.09,0,0,0,1.08-5.17q1.2-9,2.16-11.18a59,59,0,0,1,3.19-6.19,19.39,19.39,0,0,1,3.06-4.27c1.85-1.36,4.49-1.48,7.94-.36a15.2,15.2,0,0,0,7.15.84,30.75,30.75,0,0,1,5.05-.42,8.54,8.54,0,0,1,3.91,1.32,10.56,10.56,0,0,1,3.37,3,11.12,11.12,0,0,1,1.68,3.79,24.53,24.53,0,0,1,.12,8.83,48.24,48.24,0,0,0-.54,8.66,18.24,18.24,0,0,0,1.44,6.25A33.47,33.47,0,0,1,324.5,157c.28,1.16.52,2.33.72,3.49s.36,2.4.48,3.73a38.78,38.78,0,0,0,.72,4.51,25.07,25.07,0,0,1,.6,4,15.61,15.61,0,0,1-.06,2.47,17.35,17.35,0,0,1-.3,1.74,6.5,6.5,0,0,0,.12,2.41,10.5,10.5,0,0,1,0,3.54c-.2,1.29-.42,2.53-.66,3.73q-1.32,5.53-1.08,7.81a17.17,17.17,0,0,1,0,5.84,27.16,27.16,0,0,1-.91,2.82c-.28.72-.6,1.73-1,3a7.51,7.51,0,0,1-2.22,3.48c-1.12,1-2.19,1.37-3.19,1a3.12,3.12,0,0,1-1.92-1.75,22.66,22.66,0,0,1-.72-2.34,14.15,14.15,0,0,0-.72-2.17,1.76,1.76,0,0,0-1.51-1.08,2.13,2.13,0,0,1-2-2.22,19.69,19.69,0,0,1,.06-3.49,8.91,8.91,0,0,0-.18-3.07,10.71,10.71,0,0,0-1.2-3c-1.45-2.48-3.13-3.85-5-4.09-2.89-.4-4.89,1-6,4.21a16.69,16.69,0,0,0-.54,3.19,9.84,9.84,0,0,1-1,3.54,13.74,13.74,0,0,1-1.68,2.65q-.9,1.08-1.68,2a4.48,4.48,0,0,0-1,2.22Q291.61,210.31,288.49,211Zm10.7-50.38q-2.42,6.49-.61,10.34a3.85,3.85,0,0,0,3.13,2.28c2.33.24,3.71.06,4.15-.54s1-1.24,1.56-1.92a3.92,3.92,0,0,0,.66-3.13q-.24-2.1-.36-3.72a10,10,0,0,0-1.14-3.67,14.8,14.8,0,0,1-1.38-4.39c-.24-1.56-.4-3.07-.48-4.51-.32-3.2-1.05-4.81-2.17-4.81a1.44,1.44,0,0,0-1.5,1.26,20,20,0,0,0-.42,3.31A27.84,27.84,0,0,1,299.19,160.65Z"/><path d="M333.27,121.33a41.71,41.71,0,0,0,4.81.18c1.4,0,3.51,0,6.31.06q7,.36,9.86-1,5.89-3,9.5-.72a9.52,9.52,0,0,0,3.25,1.2q1.56.24,4.45-1.44,3.12-1.32,5.17-.6a7.11,7.11,0,0,1,3,1.8,7,7,0,0,1,1.26,3.79A30,30,0,0,1,381,130c-.12,1.76-.3,3.41-.54,4.93a49.24,49.24,0,0,0-.54,8.05c.12,1.29.28,2.61.48,4a19.14,19.14,0,0,1,.18,4q-.24,4.69-3.84,5.29c-1.77.24-3.05-.18-3.85-1.26a15.72,15.72,0,0,1-2-3.61c-.53-1.32-1.05-2.5-1.57-3.55a1.76,1.76,0,0,0-2.22-1.14c-1,.28-1.57,1.32-1.81,3.13a39.24,39.24,0,0,0-.24,6.37q.12,3.68.48,7.57c.24,2.61.41,4.81.49,6.62s.18,3.63.3,5.47.18,3.57.18,5.17q0,5.17-1.45,7.09a3.74,3.74,0,0,0-.72,2.29,13.53,13.53,0,0,0,.3,2.76c.2,1,.42,1.93.66,2.89a14.54,14.54,0,0,1,.36,3.48,6.81,6.81,0,0,1-4.32,6.74,7.92,7.92,0,0,0-2.89,2.4,16.13,16.13,0,0,1-2,2.23,1.8,1.8,0,0,1-1.57.36,2,2,0,0,1-1.32-.84c-.28-.45-.54-.91-.78-1.39a4.18,4.18,0,0,0-2-2.52c-1-.24-1.67-1.12-1.87-2.65s-.32-2.86-.36-4-.14-2.59-.3-4.27a7.21,7.21,0,0,0-1.56-4.09,8.24,8.24,0,0,0-2.17-2,2.54,2.54,0,0,1-1.08-2,10.24,10.24,0,0,1,.06-3.31q.3-1.68.78-3.72a51.27,51.27,0,0,0,1.57-11.06,105.67,105.67,0,0,0,0-12.75c-.32-4.17-1.45-6.25-3.37-6.25a2.36,2.36,0,0,0-2,1.26c-.41.76-.85,1.67-1.33,2.71q-1.68,4-6.13,2.16a3.41,3.41,0,0,1-2-2.28,16,16,0,0,1-.48-3.67c0-1.4-.08-2.89-.12-4.45a13.52,13.52,0,0,0-.85-4.45l-1.5-4a9.2,9.2,0,0,1-.6-3.84,11.08,11.08,0,0,1,.9-3.73,6.33,6.33,0,0,0,.48-3.61,5.16,5.16,0,0,1,.72-3.54C330.23,121.67,331.47,121.17,333.27,121.33Z"/><path d="M401.5,172.55l-.24,8.54q0,8.29-3.48,11.06a6,6,0,0,1-4,1.32,4.29,4.29,0,0,1-2.71-1.32,3.94,3.94,0,0,1-1-2.53,29,29,0,0,0-.6-4.14q-.54-2.72-1.32-5.41a16.4,16.4,0,0,1-.54-5.83c.16-2.09.26-4.05.3-5.9a6.16,6.16,0,0,0-1-4.08,6.41,6.41,0,0,1-1.45-4.09,6.08,6.08,0,0,1,.49-2.53,17.17,17.17,0,0,0,1.08-5.53q0-2.4-.12-3.48c-.08-.73-.18-1.43-.3-2.11s-.27-1.72-.42-3.12a22.66,22.66,0,0,1,0-4.81,33.3,33.3,0,0,0,0-5.47c-.17-1.85-.27-3.33-.31-4.45a10.89,10.89,0,0,1,.79-4,13.74,13.74,0,0,1,1.38-3.07,5.21,5.21,0,0,1,1.86-1.38c.88-.44,1.48-.76,1.81-1a1.93,1.93,0,0,1,1.32-.18,3.29,3.29,0,0,1,1.8,1.14,7.1,7.1,0,0,0,2.29,1.62c.88.41,1.9.89,3.06,1.45a3.35,3.35,0,0,1,2,2.7,10.39,10.39,0,0,0,.42,2.23,2.28,2.28,0,0,0,.42.6,13.84,13.84,0,0,1,.48,3.18,16.5,16.5,0,0,1-.42,5.41,23,23,0,0,0-.72,4.51,13,13,0,0,1-.67,3.67,9.59,9.59,0,0,0-.42,3.85,15.06,15.06,0,0,1,.06,2.94,17.08,17.08,0,0,1-.3,1.75,7.18,7.18,0,0,0-.18,1.62,12.27,12.27,0,0,0,.42,2.58,12.13,12.13,0,0,1,.37,3.19,19.1,19.1,0,0,0,.12,3.07,14.62,14.62,0,0,1,0,3.24A46,46,0,0,0,401.5,172.55Zm-15.14,34.87a3,3,0,0,1-.19-1.8,5.57,5.57,0,0,1,2-2.53,24.92,24.92,0,0,1,4.45-3q2.64-1.46,7.21-.85a4.31,4.31,0,0,1,3.37,2.53q2.52,4.32-2.29,7.81a10.44,10.44,0,0,1-3.84,1.75,3.89,3.89,0,0,0-2.35,1.08,1.94,1.94,0,0,1-2.1.42,2.62,2.62,0,0,1-1.93-1.5,2.53,2.53,0,0,0-1.44-1.51,6.68,6.68,0,0,1-1.74-1A3.58,3.58,0,0,1,386.36,207.42Z"/><path d="M703.41,383.71l-.72-4.45a2.16,2.16,0,0,0-.48-1.62c-.33-.28-.85-.74-1.57-1.38a4.65,4.65,0,0,1-1.32-3.07,31.41,31.41,0,0,1-.12-4.87q.24-3.48,1.32-11.78-.84-10.34-1.08-13.34-1.32-15.88.72-19.6a5.66,5.66,0,0,1,1-1.45A4,4,0,0,0,702,319c-.32-3,1.25-5,4.69-6.13a19.71,19.71,0,0,0,3-1.21c1-.48,2-.92,3-1.32a7.43,7.43,0,0,1,6,.06,8.81,8.81,0,0,0,5.11,1q2.64-.3,5.41-.72a51.3,51.3,0,0,1,5.35-.54,6.94,6.94,0,0,1,4.45,1.2q1.86,1.34,4,2.89a23.33,23.33,0,0,1,3.79,3.49q3.72,4.32,3.13,8.41a13.22,13.22,0,0,1,.84,8.66,4,4,0,0,0-.12,2.16,7.81,7.81,0,0,1,0,3.85,8.11,8.11,0,0,0-.18,3.55,6.64,6.64,0,0,1-.54,3.78,14.17,14.17,0,0,0-1.08,3.61,5.61,5.61,0,0,1-1.21,2.83,3.62,3.62,0,0,1-1.74,1.32,3.5,3.5,0,0,0-1.44.72,3.6,3.6,0,0,0-1,1.14,7.43,7.43,0,0,1-.9,1.33,10.09,10.09,0,0,1-3.72,3,10.91,10.91,0,0,0,3.12,3.55,15.85,15.85,0,0,1,3.07,2.76,4.92,4.92,0,0,1,1.32,2.83,8.87,8.87,0,0,0,.54,2.64,4.56,4.56,0,0,1,.36,2.11q-.12.78-.3,1.68t-.42,1.92a8.35,8.35,0,0,0-.18,2.29A6,6,0,0,1,746,384a8.91,8.91,0,0,1-.84,1.81q-.54.9-1.26,2a13.61,13.61,0,0,0-1.33,2.65,8.88,8.88,0,0,1-2.34,3.42c-1.08,1-1.93,1.81-2.53,2.41a10.54,10.54,0,0,0-1.74,2.46,7.23,7.23,0,0,1-4.33,3.73,3.12,3.12,0,0,1-3.84-1.32c-.49-.89-1.35-1-2.59-.48s-2.22,1-3,1.38a4.48,4.48,0,0,1-2.58.36c-1-.12-2-.28-3-.48a5.76,5.76,0,0,0-3.06.24,5.71,5.71,0,0,1-2.89.3,7.76,7.76,0,0,1-2.4-.84,5.81,5.81,0,0,1-3.13-3.37,20.9,20.9,0,0,1-1-4.51,32.84,32.84,0,0,0-.72-4.33,13.91,13.91,0,0,1-.48-2.82ZM720.48,351q0,6.38,2.29,6.37,1.2,0,2.16-1.74a10,10,0,0,0,1.2-3.31q.12-1.56.18-3.18a9,9,0,0,1,1.57-4.09,5.88,5.88,0,0,0,1-4.57A3.21,3.21,0,0,0,727,338a6.45,6.45,0,0,1-2.34-1.32,9.64,9.64,0,0,0-2.29-1.5q-1.26-.6-2.16.9a3.48,3.48,0,0,0,0,3.43,10.11,10.11,0,0,1,.6,5.17C720.58,346.8,720.48,348.93,720.48,351Zm3.37,17.31q-2.77-.84-3,2.77c-.16,1.68-.36,3.41-.6,5.17a12.06,12.06,0,0,0-.06,4l.66,2.88a15,15,0,0,0,1.44,1.08c.49.33.93.65,1.33,1A9.51,9.51,0,0,1,725,383a8.66,8.66,0,0,0,1.14-1.56,10.06,10.06,0,0,0,1.38-4.75,11.58,11.58,0,0,0-.42-4.51C726.45,370.09,725.37,368.8,723.85,368.32Z"/><path d="M764.49,401a4.29,4.29,0,0,1-2.71-.18,3.44,3.44,0,0,1-2.1-2.05,12.37,12.37,0,0,1-.79-3.48,30,30,0,0,1-.06-4.27c.08-1.52.13-3,.13-4.45,0-3.21-.53-5.25-1.57-6.13-2.16-1.61-3-5.69-2.64-12.27a91,91,0,0,1,1.32-9,42.4,42.4,0,0,0,1.14-9.38,41.56,41.56,0,0,1,.24-6,25.72,25.72,0,0,1,.72-3.61c.28-1,.62-2,1-3a25.09,25.09,0,0,0,1.08-5.17q1.2-9,2.16-11.18a59,59,0,0,1,3.19-6.19,19.39,19.39,0,0,1,3.06-4.27c1.85-1.36,4.49-1.48,7.94-.36a15.2,15.2,0,0,0,7.15.84,30.75,30.75,0,0,1,5.05-.42,8.54,8.54,0,0,1,3.91,1.32,10.56,10.56,0,0,1,3.37,3,11.12,11.12,0,0,1,1.68,3.79,24.53,24.53,0,0,1,.12,8.83,48.24,48.24,0,0,0-.54,8.66,18.24,18.24,0,0,0,1.44,6.25A33.47,33.47,0,0,1,800.5,347c.28,1.16.52,2.33.72,3.49s.36,2.4.48,3.73a38.78,38.78,0,0,0,.72,4.51,25.07,25.07,0,0,1,.6,4,15.61,15.61,0,0,1-.06,2.47,17.35,17.35,0,0,1-.3,1.74,6.5,6.5,0,0,0,.12,2.41,10.5,10.5,0,0,1,0,3.54c-.2,1.29-.42,2.53-.66,3.73q-1.32,5.53-1.08,7.81a17.17,17.17,0,0,1,0,5.84,27.16,27.16,0,0,1-.91,2.82c-.28.72-.6,1.73-1,3a7.51,7.51,0,0,1-2.22,3.48c-1.12,1-2.19,1.37-3.19,1a3.12,3.12,0,0,1-1.92-1.75,22.66,22.66,0,0,1-.72-2.34,14.15,14.15,0,0,0-.72-2.17,1.76,1.76,0,0,0-1.51-1.08,2.13,2.13,0,0,1-2-2.22,19.69,19.69,0,0,1,.06-3.49,8.91,8.91,0,0,0-.18-3.07,10.71,10.71,0,0,0-1.2-3c-1.45-2.48-3.13-3.85-5-4.09-2.89-.4-4.89,1-6,4.21a16.69,16.69,0,0,0-.54,3.19,9.84,9.84,0,0,1-1,3.54,13.74,13.74,0,0,1-1.68,2.65q-.9,1.08-1.68,2a4.48,4.48,0,0,0-1,2.22Q767.61,400.3,764.49,401Zm10.7-50.38q-2.41,6.5-.61,10.34a3.85,3.85,0,0,0,3.13,2.28c2.33.24,3.71.06,4.15-.54s1-1.24,1.56-1.92a3.92,3.92,0,0,0,.66-3.13q-.24-2.1-.36-3.72a10,10,0,0,0-1.14-3.67,14.8,14.8,0,0,1-1.38-4.39c-.24-1.56-.4-3.07-.48-4.51-.32-3.2-1.05-4.81-2.17-4.81a1.44,1.44,0,0,0-1.5,1.26,20,20,0,0,0-.42,3.31A27.84,27.84,0,0,1,775.19,350.65Z"/><path d="M809.27,311.33a41.71,41.71,0,0,0,4.81.18c1.4,0,3.51,0,6.31.06q7,.36,9.86-1,5.89-3,9.5-.72a9.52,9.52,0,0,0,3.25,1.2q1.56.24,4.45-1.44,3.12-1.32,5.17-.6a7.11,7.11,0,0,1,3,1.8,7,7,0,0,1,1.26,3.79A30,30,0,0,1,857,320c-.12,1.76-.3,3.41-.54,4.93a49.24,49.24,0,0,0-.54,8.05c.12,1.29.28,2.61.48,4a19.14,19.14,0,0,1,.18,4q-.24,4.69-3.84,5.29c-1.77.24-3-.18-3.85-1.26a15.72,15.72,0,0,1-2-3.61c-.53-1.32-1-2.5-1.57-3.55a1.76,1.76,0,0,0-2.22-1.14c-1,.28-1.57,1.32-1.81,3.13a39.24,39.24,0,0,0-.24,6.37q.12,3.67.48,7.57c.24,2.61.41,4.81.49,6.62s.18,3.63.3,5.47.18,3.57.18,5.17q0,5.17-1.45,7.09a3.74,3.74,0,0,0-.72,2.29,13.53,13.53,0,0,0,.3,2.76c.2,1,.42,1.93.66,2.89a14.54,14.54,0,0,1,.36,3.48,6.81,6.81,0,0,1-4.32,6.74,7.92,7.92,0,0,0-2.89,2.4,16.13,16.13,0,0,1-2,2.23,1.8,1.8,0,0,1-1.57.36,2,2,0,0,1-1.32-.84c-.28-.45-.54-.91-.78-1.39a4.18,4.18,0,0,0-2-2.52c-1-.24-1.67-1.12-1.87-2.65s-.32-2.86-.36-4-.14-2.59-.3-4.27a7.21,7.21,0,0,0-1.56-4.09,8.24,8.24,0,0,0-2.17-2,2.54,2.54,0,0,1-1.08-2.05,10.24,10.24,0,0,1,.06-3.31q.3-1.68.78-3.72a51.27,51.27,0,0,0,1.57-11.06,105.67,105.67,0,0,0,0-12.75c-.32-4.17-1.45-6.25-3.37-6.25a2.36,2.36,0,0,0-2,1.26c-.41.76-.85,1.67-1.33,2.71q-1.68,4-6.13,2.16a3.41,3.41,0,0,1-2-2.28,16,16,0,0,1-.48-3.67c0-1.4-.08-2.89-.12-4.45a13.52,13.52,0,0,0-.85-4.45l-1.5-4a9.2,9.2,0,0,1-.6-3.84,11.08,11.08,0,0,1,.9-3.73,6.33,6.33,0,0,0,.48-3.61,5.16,5.16,0,0,1,.72-3.54C806.23,311.67,807.47,311.17,809.27,311.33Z"/><path d="M877.5,362.55l-.24,8.54q0,8.3-3.48,11.06a6,6,0,0,1-4,1.32,4.29,4.29,0,0,1-2.71-1.32,3.94,3.94,0,0,1-1-2.53,29,29,0,0,0-.6-4.14q-.54-2.72-1.32-5.41a16.4,16.4,0,0,1-.54-5.83c.16-2.09.26-4.05.3-5.9a6.16,6.16,0,0,0-1-4.08,6.41,6.41,0,0,1-1.45-4.09,6.08,6.08,0,0,1,.49-2.53,17.17,17.17,0,0,0,1.08-5.53q0-2.4-.12-3.48c-.08-.73-.18-1.43-.3-2.11s-.27-1.72-.42-3.12a22.66,22.66,0,0,1,0-4.81,33.3,33.3,0,0,0,0-5.47c-.17-1.85-.27-3.33-.31-4.45a10.89,10.89,0,0,1,.79-4,13.74,13.74,0,0,1,1.38-3.07,5.21,5.21,0,0,1,1.86-1.38c.88-.44,1.48-.76,1.81-1a1.93,1.93,0,0,1,1.32-.18,3.29,3.29,0,0,1,1.8,1.14,7.1,7.1,0,0,0,2.29,1.62c.88.41,1.9.89,3.06,1.45a3.35,3.35,0,0,1,2,2.7,10.39,10.39,0,0,0,.42,2.23,2.28,2.28,0,0,0,.42.6,13.84,13.84,0,0,1,.48,3.18,16.5,16.5,0,0,1-.42,5.41,23,23,0,0,0-.72,4.51,13,13,0,0,1-.67,3.67,9.59,9.59,0,0,0-.42,3.85,15.06,15.06,0,0,1,.06,2.94,17.08,17.08,0,0,1-.3,1.75,7.18,7.18,0,0,0-.18,1.62,12.27,12.27,0,0,0,.42,2.58,12.13,12.13,0,0,1,.37,3.19,19.1,19.1,0,0,0,.12,3.07,14.62,14.62,0,0,1,0,3.24A46,46,0,0,0,877.5,362.55Zm-15.14,34.87a3,3,0,0,1-.19-1.8,5.57,5.57,0,0,1,2-2.53,24.92,24.92,0,0,1,4.45-3q2.64-1.45,7.21-.85a4.31,4.31,0,0,1,3.37,2.53q2.52,4.32-2.29,7.81a10.44,10.44,0,0,1-3.84,1.75,3.89,3.89,0,0,0-2.35,1.08,1.94,1.94,0,0,1-2.1.42,2.62,2.62,0,0,1-1.93-1.5,2.53,2.53,0,0,0-1.44-1.51,6.68,6.68,0,0,1-1.74-1A3.58,3.58,0,0,1,862.36,397.42Z"/><path d="M1712.41,292.71l-.72-4.45a2.16,2.16,0,0,0-.48-1.62c-.33-.28-.85-.74-1.57-1.38a4.65,4.65,0,0,1-1.32-3.07,31.41,31.41,0,0,1-.12-4.87q.24-3.48,1.32-11.78-.84-10.34-1.08-13.34-1.32-15.88.72-19.6a5.66,5.66,0,0,1,1-1.45A4,4,0,0,0,1711,228c-.32-3,1.25-5,4.69-6.13a19.71,19.71,0,0,0,3-1.21c1-.48,2-.92,3-1.32a7.43,7.43,0,0,1,5.95.06,8.81,8.81,0,0,0,5.11,1q2.64-.3,5.41-.72a51.3,51.3,0,0,1,5.35-.54,6.94,6.94,0,0,1,4.45,1.2q1.86,1.33,4,2.89a23.33,23.33,0,0,1,3.79,3.49q3.72,4.32,3.13,8.41a13.22,13.22,0,0,1,.84,8.66,4,4,0,0,0-.12,2.16,7.81,7.81,0,0,1,0,3.85,8.11,8.11,0,0,0-.18,3.55,6.64,6.64,0,0,1-.54,3.78,14.17,14.17,0,0,0-1.08,3.61,5.61,5.61,0,0,1-1.21,2.83,3.62,3.62,0,0,1-1.74,1.32,3.5,3.5,0,0,0-1.44.72,3.6,3.6,0,0,0-1,1.14,7.43,7.43,0,0,1-.9,1.33,10.09,10.09,0,0,1-3.72,3,10.91,10.91,0,0,0,3.12,3.55,15.85,15.85,0,0,1,3.07,2.76,4.92,4.92,0,0,1,1.32,2.83,8.87,8.87,0,0,0,.54,2.64,4.56,4.56,0,0,1,.36,2.11q-.12.78-.3,1.68t-.42,1.92a8.35,8.35,0,0,0-.18,2.29A6,6,0,0,1,1755,293a8.91,8.91,0,0,1-.84,1.81q-.54.9-1.26,2a13.61,13.61,0,0,0-1.33,2.65,8.88,8.88,0,0,1-2.34,3.42c-1.08,1-1.93,1.81-2.53,2.41a10.54,10.54,0,0,0-1.74,2.46,7.23,7.23,0,0,1-4.33,3.73,3.12,3.12,0,0,1-3.84-1.32c-.49-.89-1.35-1-2.59-.48s-2.22,1-3,1.38a4.48,4.48,0,0,1-2.58.36c-1-.12-2-.28-3-.48a5.76,5.76,0,0,0-3.06.24,5.71,5.71,0,0,1-2.89.3,7.76,7.76,0,0,1-2.4-.84,5.81,5.81,0,0,1-3.13-3.37,20.9,20.9,0,0,1-1-4.51,32.84,32.84,0,0,0-.72-4.33,13.91,13.91,0,0,1-.48-2.82Zm17.07-32.7q0,6.38,2.29,6.37,1.2,0,2.16-1.74a10,10,0,0,0,1.2-3.31q.12-1.56.18-3.18a9,9,0,0,1,1.57-4.09,5.88,5.88,0,0,0,1-4.57A3.21,3.21,0,0,0,1736,247a6.45,6.45,0,0,1-2.34-1.32,9.64,9.64,0,0,0-2.29-1.5q-1.26-.6-2.16.9a3.48,3.48,0,0,0,0,3.43,10.11,10.11,0,0,1,.6,5.17C1729.58,255.8,1729.48,257.93,1729.48,260Zm3.37,17.31q-2.77-.84-3,2.77c-.16,1.68-.36,3.41-.6,5.17a12.06,12.06,0,0,0-.06,4l.66,2.88a15,15,0,0,0,1.44,1.08c.49.33.93.65,1.33,1A9.51,9.51,0,0,1,1734,292a8.66,8.66,0,0,0,1.14-1.56,10.06,10.06,0,0,0,1.38-4.75,11.58,11.58,0,0,0-.42-4.51C1735.45,279.09,1734.37,277.8,1732.85,277.32Z"/><path d="M1773.49,310a4.29,4.29,0,0,1-2.71-.18,3.44,3.44,0,0,1-2.1-2.05,12.37,12.37,0,0,1-.79-3.48,30,30,0,0,1-.06-4.27c.08-1.52.13-3,.13-4.45,0-3.21-.53-5.25-1.57-6.13-2.16-1.61-3.05-5.69-2.64-12.27a91,91,0,0,1,1.32-9,42.4,42.4,0,0,0,1.14-9.38,41.56,41.56,0,0,1,.24-6,25.72,25.72,0,0,1,.72-3.61c.28-1,.62-2,1-3a25.09,25.09,0,0,0,1.08-5.17q1.2-9,2.16-11.18a59,59,0,0,1,3.19-6.19,19.39,19.39,0,0,1,3.06-4.27c1.85-1.36,4.49-1.48,7.94-.36a15.2,15.2,0,0,0,7.15.84,30.75,30.75,0,0,1,5-.42,8.54,8.54,0,0,1,3.91,1.32,10.56,10.56,0,0,1,3.37,3,11.12,11.12,0,0,1,1.68,3.79,24.53,24.53,0,0,1,.12,8.83,48.24,48.24,0,0,0-.54,8.66,18.24,18.24,0,0,0,1.44,6.25,33.47,33.47,0,0,1,1.69,4.69c.28,1.16.52,2.33.72,3.49s.36,2.4.48,3.73a38.78,38.78,0,0,0,.72,4.51,25.07,25.07,0,0,1,.6,4,15.61,15.61,0,0,1-.06,2.47,17.35,17.35,0,0,1-.3,1.74,6.5,6.5,0,0,0,.12,2.41,10.5,10.5,0,0,1,0,3.54c-.2,1.29-.42,2.53-.66,3.73q-1.32,5.53-1.08,7.81a17.17,17.17,0,0,1,0,5.84,27.16,27.16,0,0,1-.91,2.82c-.28.72-.6,1.73-1,3a7.51,7.51,0,0,1-2.22,3.48c-1.12,1-2.19,1.37-3.19,1a3.12,3.12,0,0,1-1.92-1.75,22.66,22.66,0,0,1-.72-2.34,14.15,14.15,0,0,0-.72-2.17,1.76,1.76,0,0,0-1.51-1.08,2.13,2.13,0,0,1-2-2.22,19.69,19.69,0,0,1,.06-3.49,8.91,8.91,0,0,0-.18-3.07,10.71,10.71,0,0,0-1.2-3c-1.45-2.48-3.13-3.85-5-4.09-2.89-.4-4.89,1-6,4.21a16.69,16.69,0,0,0-.54,3.19,9.84,9.84,0,0,1-1,3.54,13.74,13.74,0,0,1-1.68,2.65q-.9,1.08-1.68,2a4.48,4.48,0,0,0-1,2.22Q1776.61,309.3,1773.49,310Zm10.7-50.38q-2.42,6.5-.61,10.34a3.85,3.85,0,0,0,3.13,2.28c2.33.24,3.71.06,4.15-.54s1-1.24,1.56-1.92a3.92,3.92,0,0,0,.66-3.13q-.24-2.1-.36-3.72a10,10,0,0,0-1.14-3.67,14.8,14.8,0,0,1-1.38-4.39c-.24-1.56-.4-3.07-.48-4.51-.32-3.2-1-4.81-2.17-4.81a1.44,1.44,0,0,0-1.5,1.26,20,20,0,0,0-.42,3.31A27.84,27.84,0,0,1,1784.19,259.65Z"/><path d="M1818.27,220.33a41.71,41.71,0,0,0,4.81.18c1.4,0,3.51,0,6.31.06q7,.36,9.86-1,5.89-3,9.5-.72a9.52,9.52,0,0,0,3.25,1.2q1.56.24,4.45-1.44,3.12-1.32,5.17-.6a7.11,7.11,0,0,1,3,1.8,7,7,0,0,1,1.26,3.79A30,30,0,0,1,1866,229c-.12,1.76-.3,3.41-.54,4.93a49.24,49.24,0,0,0-.54,8.05c.12,1.29.28,2.61.48,4a19.14,19.14,0,0,1,.18,4q-.24,4.69-3.84,5.29c-1.77.24-3-.18-3.85-1.26a15.72,15.72,0,0,1-2-3.61c-.53-1.32-1.05-2.5-1.57-3.55a1.76,1.76,0,0,0-2.22-1.14c-1,.28-1.57,1.32-1.81,3.13a39.24,39.24,0,0,0-.24,6.37q.12,3.67.48,7.57c.24,2.61.41,4.81.49,6.62s.18,3.63.3,5.47.18,3.57.18,5.17q0,5.17-1.45,7.09a3.74,3.74,0,0,0-.72,2.29,13.53,13.53,0,0,0,.3,2.76c.2,1,.42,1.93.66,2.89a14.54,14.54,0,0,1,.36,3.48,6.81,6.81,0,0,1-4.32,6.74,7.92,7.92,0,0,0-2.89,2.4,16.13,16.13,0,0,1-2,2.23,1.8,1.8,0,0,1-1.57.36,2,2,0,0,1-1.32-.84c-.28-.45-.54-.91-.78-1.39a4.18,4.18,0,0,0-2-2.52c-1-.24-1.67-1.12-1.87-2.65s-.32-2.86-.36-4-.14-2.59-.3-4.27a7.21,7.21,0,0,0-1.56-4.09,8.24,8.24,0,0,0-2.17-2,2.54,2.54,0,0,1-1.08-2.05,10.24,10.24,0,0,1,.06-3.31q.3-1.68.78-3.72a51.27,51.27,0,0,0,1.57-11.06,105.67,105.67,0,0,0,0-12.75c-.32-4.17-1.45-6.25-3.37-6.25a2.36,2.36,0,0,0-2,1.26c-.41.76-.85,1.67-1.33,2.71q-1.68,4-6.13,2.16a3.41,3.41,0,0,1-2-2.28,16,16,0,0,1-.48-3.67c0-1.4-.08-2.89-.12-4.45a13.52,13.52,0,0,0-.85-4.45l-1.5-4a9.2,9.2,0,0,1-.6-3.84,11.08,11.08,0,0,1,.9-3.73,6.33,6.33,0,0,0,.48-3.61,5.16,5.16,0,0,1,.72-3.54C1815.23,220.67,1816.47,220.17,1818.27,220.33Z"/><path d="M1886.5,271.55l-.24,8.54q0,8.3-3.48,11.06a6,6,0,0,1-4,1.32,4.29,4.29,0,0,1-2.71-1.32,3.94,3.94,0,0,1-1-2.53,29,29,0,0,0-.6-4.14q-.54-2.72-1.32-5.41a16.4,16.4,0,0,1-.54-5.83c.16-2.09.26-4.05.3-5.9a6.16,6.16,0,0,0-1-4.08,6.41,6.41,0,0,1-1.45-4.09,6.08,6.08,0,0,1,.49-2.53,17.17,17.17,0,0,0,1.08-5.53q0-2.4-.12-3.48c-.08-.73-.18-1.43-.3-2.11s-.27-1.72-.42-3.12a22.66,22.66,0,0,1,0-4.81,33.3,33.3,0,0,0,0-5.47c-.17-1.85-.27-3.33-.31-4.45a10.89,10.89,0,0,1,.79-4,13.74,13.74,0,0,1,1.38-3.07,5.21,5.21,0,0,1,1.86-1.38c.88-.44,1.48-.76,1.81-1a1.93,1.93,0,0,1,1.32-.18,3.29,3.29,0,0,1,1.8,1.14,7.1,7.1,0,0,0,2.29,1.62c.88.41,1.9.89,3.06,1.45a3.35,3.35,0,0,1,2,2.7,10.39,10.39,0,0,0,.42,2.23,2.28,2.28,0,0,0,.42.6,13.84,13.84,0,0,1,.48,3.18,16.5,16.5,0,0,1-.42,5.41,23,23,0,0,0-.72,4.51,13,13,0,0,1-.67,3.67,9.59,9.59,0,0,0-.42,3.85,15.06,15.06,0,0,1,.06,2.94,17.08,17.08,0,0,1-.3,1.75,7.18,7.18,0,0,0-.18,1.62,12.27,12.27,0,0,0,.42,2.58,12.13,12.13,0,0,1,.37,3.19,19.1,19.1,0,0,0,.12,3.07,14.63,14.63,0,0,1,0,3.24A46,46,0,0,0,1886.5,271.55Zm-15.14,34.87a3,3,0,0,1-.19-1.8,5.57,5.57,0,0,1,2-2.53,24.92,24.92,0,0,1,4.45-3q2.64-1.45,7.21-.85a4.31,4.31,0,0,1,3.37,2.53q2.52,4.32-2.29,7.81a10.44,10.44,0,0,1-3.84,1.75,3.89,3.89,0,0,0-2.35,1.08,1.94,1.94,0,0,1-2.1.42,2.62,2.62,0,0,1-1.93-1.5,2.53,2.53,0,0,0-1.44-1.51,6.68,6.68,0,0,1-1.74-1A3.58,3.58,0,0,1,1871.36,306.42Z"/><path d="M443.41,494.13c-15.26-11.69-32.74-23-51.65-27.4-9.77-2.29-20.2-2.64-30.16-3.7q-16.77-1.8-33.56-3.5c-6.63-.66-13.73-2.07-20.41-1.76-1.93.09-1.94,3.09,0,3,5.27-.25,10.86.82,16.08,1.33q15.36,1.51,30.7,3.16c10.12,1.07,20.26,2,30.35,3.26,12.28,1.51,23.84,7,34.47,13.05a203.64,203.64,0,0,1,22.66,15.15c1.54,1.17,3-1.43,1.52-2.59Z"/><path d="M753.11,719.51c18.39-2.82,37.68-7.44,53.74-17.14,8.64-5.23,16.15-12.57,23.86-19q13.21-11.12,26.38-22.29c5.36-4.56,11.64-8.93,16.29-14.24,1.26-1.45-.85-3.58-2.13-2.12-3.59,4.1-8.37,7.48-12.5,11q-12.29,10.52-24.66,20.89c-8.08,6.8-15.94,14.21-24.49,20.4-9.65,7-21.21,11.14-32.58,14.34a206.18,206.18,0,0,1-24.71,5.31c-1.9.29-1.1,3.18.8,2.89Z"/><path d="M777.28,744.62c17.05-4.52,34.3-10.62,49.27-20.07,11.08-7,19.81-17,29.1-26.14,5.77-5.66,12.64-11.16,17.44-17.72,1.14-1.56-1.46-3.06-2.59-1.52-4.78,6.54-11.8,12.05-17.55,17.69-9.24,9.08-17.91,19-29,25.8-14.53,8.9-31,14.71-47.43,19.07a1.5,1.5,0,0,0,.8,2.89Z"/><path d="M370.23,639.15c-55.05,0-128.57-33-128.57-74.41s59.55,5.54,114.6,5.54,113.66-47.66,113.66-6.2S425.29,639.15,370.23,639.15Z"/><path d="M617.05,470.37c3.82-9.42,15.44-15.68,24.82-17.88,14.07-3.29,27.26,3.92,32.52,17.39,8.21,21-13.54,41.27-30.74,49-23,10.37-48.43,2.85-57.86-21.68-8.59-22.37,1.65-45.86,17.71-61.92,15.82-15.83,39.59-26.72,62.18-21.6,27,6.12,40.86,33.93,45.14,59.22a79.07,79.07,0,0,1-21.15,68.83c-21.25,22-52,32.32-81.6,36.45-21.91,3-44.07,3.52-66,6.9a494.52,494.52,0,0,0-56,11.92c-15.71,4.33-31.68,9.3-46.47,16.26-10.52,5-17.75-11.57-7.24-16.52,28.43-13.38,60.47-21.09,91.17-26.81q22.45-4.19,45.21-6.35c16-1.53,31.93-2,47.7-5.11C639.05,554,663,545,678.56,527.35c13-14.69,17.77-33.44,14.27-52.63-3.35-18.39-13.06-41.22-33.94-44-30.5-4.08-74.41,36-52.79,66.64,11.51,16.31,35.12,5.83,45.73-6.11,4.82-5.42,9.66-13.77,2.53-19.65-5.82-4.8-19,1.67-20.5,5.34-4.37,10.75-21.19,4.22-16.81-6.56Z"/><path class="cls-2" d="M457.62,430.39c17.06-9.31,14.78-6.54-7-50.9-6.36-13-6.29-34.66-17.93-56C422.18,304.17,405,294.8,398,282.91c-27.88-47.18-24-47.86-41.64-38.26-19.27,10.51-54.58,3.34-17.8,79.69,5.3,11,20.37,20,28.53,35,7.95,14.59,6.9,31.18,13.16,41.49C426.18,476.52,438.21,441,457.62,430.39Z"/><path class="cls-3" d="M305.41,352.94c22.82-36.51,27.31-42.2-14.3-68.21-42.28-26.42-44.75-19.48-67.58,17s-52.72,59-.38,91.7C276.84,427,282.59,389.45,305.41,352.94Z"/><ellipse class="cls-4" cx="230.03" cy="380.96" rx="7.52" ry="27.3" transform="translate(-214.93 374.1) rotate(-57.99)"/><path class="cls-3" d="M465.41,428.72c10.31-16.48,9.67-13-31.06-40.92-11.9-8.17-22.48-27.12-43.1-40-18.65-11.65-38.22-11.38-50.18-18.3-47.45-27.42-44.43-29.92-55.06-12.91-11.63,18.62-45.92,29.69,23.59,78.18,10,7,27.56,7.43,42,16.46,14.08,8.8,21.31,23.78,31.82,29.68C460.66,484.35,453.7,447.47,465.41,428.72Z"/><path d="M201.47,506.29c24.83,1.45,56.06,36.3,53.63,77.69s-37.6,73.64-62.43,72.18-43-36.19-40.56-77.58S176.64,504.83,201.47,506.29Z"/><path d="M114.11,643.06c-2.59-17.07,25.57-42.5,46-49.74s39.1.72,41.7,17.79-11.87,36.78-32.31,44S116.71,660.12,114.11,643.06Z"/><path d="M109.48,519.65c-4.58,16.65,20.42,45.19,39.86,54.78s38.93,3.86,43.5-12.79-7.48-37.91-26.93-47.5S114.05,503,109.48,519.65Z"/><path d="M139.49,568.89c8.21,15.18,46,18.52,66.68,12s30.78-24.12,22.58-39.31-31.63-22.21-52.31-15.69S131.28,553.7,139.49,568.89Z"/><path d="M147.43,608.09c8.21,15.18,46,18.52,66.69,12S244.9,596,236.69,580.77s-31.63-22.21-52.3-15.68S139.22,592.9,147.43,608.09Z"/><path d="M218.28,667.53c1-4.79,3-9.21,4.58-13.8a36.21,36.21,0,0,0,2.07-15.09c-.07-.86-1.39-.58-1.32.28a35.6,35.6,0,0,1-2.3,15.15c-1.55,4.32-3.39,8.51-4.31,13-.17.84,1.11,1.29,1.28.44Z"/><path d="M227.85,666.34c.23-4.81,1.52-9.44,2.38-14.15A36.09,36.09,0,0,0,230,637a.68.68,0,0,0-1.32.28,35.81,35.81,0,0,1,.11,15.32c-.87,4.56-2.08,9.05-2.3,13.71a.68.68,0,0,0,1.35.08Z"/><path d="M236,661.08c-.57-4.87,0-9.73.06-14.61a36.2,36.2,0,0,0-2.74-14.72c-.34-.8-1.54-.19-1.2.61a36,36,0,0,1,2.56,15.37c-.13,4.56-.53,9.09,0,13.63.1.87,1.42.58,1.32-.28Z"/><path d="M202.14,488.08c.39,4.59,1.73,9,2.76,13.43a35.68,35.68,0,0,1,.51,15.32c-.17.84,1.11,1.29,1.28.43A36.33,36.33,0,0,0,206.4,502c-1-4.75-2.53-9.38-2.94-14.24-.07-.87-1.39-.58-1.32.28Z"/><path d="M211.48,490c-.32,4.66.35,9.25.68,13.88a35.82,35.82,0,0,1-1.9,15.2.68.68,0,0,0,1.28.44,36.26,36.26,0,0,0,2-15.11c-.31-4.78-1-9.53-.71-14.33a.68.68,0,0,0-1.35-.08Z"/><path d="M219,495.83c-1.06,4.46-1.19,9-1.59,13.55a35.89,35.89,0,0,1-4.35,15c-.43.75.7,1.5,1.13.75a36.41,36.41,0,0,0,4.44-14.3c.52-4.85.52-9.75,1.65-14.52.2-.84-1.08-1.28-1.28-.44Z"/><ellipse class="cls-5" cx="167.42" cy="558.18" rx="26.19" ry="20.63" transform="translate(-93.68 37.2) rotate(-9.92)"/><ellipse cx="167.04" cy="555.29" rx="23.86" ry="14.92" transform="translate(-93.19 37.09) rotate(-9.92)"/><ellipse class="cls-5" cx="180.87" cy="598.52" rx="26.19" ry="20.63" transform="translate(-100.43 40.12) rotate(-9.92)"/><ellipse cx="180" cy="595.01" rx="23.86" ry="14.92" transform="translate(-99.84 39.92) rotate(-9.92)"/><path d="M206,615.53c-5.25,1.84-3.74-22.62-12.84-48.57s-23-44.11-17.77-46,25.51,14.88,34.61,40.83S211.26,613.69,206,615.53Z"/><path class="cls-6" d="M228.18,605.46c-3.37,1.18-1.36-22.67-10.46-48.62s-24.33-44.44-21-45.62,31.33,11.32,40.43,37.27S231.55,604.28,228.18,605.46Z"/><path class="cls-6" d="M240.63,611c-.17,1.32-6.11-3.14-14.18-4.21s-15.08,1.09-14.9-.22,7.44-8.7,15.51-7.63S240.81,609.65,240.63,611Z"/><path class="cls-6" d="M204.42,559.2l-4.73-4.78a1.61,1.61,0,0,0-2.75,1l-.52,9a1.61,1.61,0,0,0,2.6,1.36l5.26-4.19A1.61,1.61,0,0,0,204.42,559.2Z"/><path d="M505.66,518a57.57,57.57,0,0,0-14.12,2,27.09,27.09,0,0,0-2.28-3c1.76-4.86,4.47-10.71,7.65-14.2-8.06,3.81-12,7-13.84,8.82a29,29,0,0,0-3.66-2.15c-.12-4.92.22-10.65,1.7-14.72-5.52,6.06-8,10.27-9.19,12.81-6,.16-10.67,4.84-10.95,11.87a18.7,18.7,0,0,0,1.69,8.25L429.19,571.8a9.56,9.56,0,0,0-1.93,6.2l1.09,23.34c6-1.25,12-2.44,18.1-3.5L445.29,586a9.52,9.52,0,0,1,1.61-6.3L475,538.58c7.74,1.7,18.93-2.42,19.26-10.61,0-.33-.1-.67-.12-1C497.53,523.47,501.8,519.75,505.66,518Z"/><path d="M405.4,527.59l15,75.34c6.82-1.94,13.64-3.84,20.55-5.43l-16.75-73.68c4.65-4.69,7.37-11.87,3.63-16.91a11.31,11.31,0,0,0-3.45-2.87c-.83-5.06-1.3-11.32-.27-15.83-4.42,6.26-6.42,10.59-7.35,13.29-1-.15-2-.26-3-.32-2.87-4.43-6.06-10.43-6.91-15.29-1.8,8.18-1.83,13.12-1.55,15.87a22.78,22.78,0,0,0-4.5,1.32l-.23.13c-3.71-2.82-7.61-6.35-9.76-9.76,1.33,7.64,3,12.17,4.3,14.74-2.06,3.81-1.71,8.68,1.51,13A19.16,19.16,0,0,0,405.4,527.59Z"/><path d="M371.09,543.71a36.9,36.9,0,0,1-10.47,3.38,14.23,14.23,0,0,0-2.61-2.87,22.74,22.74,0,0,0-2.6-1.81,58.66,58.66,0,0,0,5.25-13c-2.94,3.67-8.25,7.25-12.76,9.75-1.15-.35-2.31-.65-3.47-.88.48-2.82.8-7.57-.07-15.14-1.41,5-5.49,10.92-8.89,15.08a9.3,9.3,0,0,0-3.62,1.68c-2.84,2.27-3.38,6.11-2.51,10.07l-35.41,49.84a229.28,229.28,0,0,0,31.61,9.59l27.63-44.42a15.31,15.31,0,0,0,5.36-2.7,10.76,10.76,0,0,0,4.23-9.64A66.09,66.09,0,0,0,371.09,543.71Z"/><path d="M263.46,437.87a34.87,34.87,0,0,1-8.74-4.57,71.29,71.29,0,0,0,5.82,8.81,12.71,12.71,0,0,0,1.67,12.2,18.48,18.48,0,0,0,3.8,3.9L261,586c11.58-10.08,36.28-26.42,36.28-26.42l-5.83-101.4c5.76-4.89,9.63-12.95,5.71-18.64a12.6,12.6,0,0,0-5-4c-2.93-4.54-7.06-12.47-7.8-18.45-2.3,8.35-2.54,13.37-2.37,16-.9-.05-1.79-.08-2.69-.08-4.26-3.2-9.49-7.89-12-12.28a59.75,59.75,0,0,0,3.06,13.44,23.47,23.47,0,0,0-2.41.8A14.2,14.2,0,0,0,263.46,437.87Z"/><path d="M921.05,874.62c47.9-27.13,95.63-92,75.19-128.12s-49.08,34.18-97,61.31-122.38,14.55-101.94,50.63S873.15,901.75,921.05,874.62Z"/><path d="M623.11,829.63c-8-6.31-21.16-6-30.41-3.32-13.86,4.06-21.79,16.84-19.73,31.15,3.22,22.34,32.13,29.24,50.91,27.5,25.16-2.34,43.54-21.4,39.65-47.38-3.55-23.7-24-39.1-45.92-45.16-21.57-6-47.62-3.73-64.75,11.85-20.51,18.66-18.83,49.67-10.1,73.78a79.08,79.08,0,0,0,52.34,49.47c29.32,8.64,61.13,2.51,89-8.5,20.57-8.15,40.08-18.66,60.82-26.52a495.36,495.36,0,0,1,54.56-17.21c15.8-4,32.15-7.52,48.45-8.75,11.6-.88,9.73-18.82-1.84-17.95C814.71,851,783,860,753.5,870.2Q731.92,877.63,711,887c-14.64,6.54-28.77,14-44,19.07-21.81,7.25-47.07,11.21-69.34,3.5-18.5-6.39-31.94-20.33-38.36-38.76-6.15-17.65-8.95-42.3,7.84-55,24.53-18.58,82.48-5.37,78.78,32-2,19.87-27.68,22.38-42.8,17.23-6.86-2.34-15.2-7.22-11.89-15.85,2.7-7,17.37-7.92,20.48-5.46,9.09,7.2,20.51-6.77,11.39-14Z"/><path d="M953.79,685.11c-7.92,23.58,12.73,65.57,52,78.78s82.36-7.36,90.28-30.94-17.5-53.4-56.8-66.61S961.72,661.53,953.79,685.11Z"/><path d="M1113.3,655.19c-14.86-8.79-49,7.84-63.33,24.09s-13.94,36.54.92,45.32,38.55,2.73,52.91-13.52S1128.16,664,1113.3,655.19Z"/><path d="M999.36,608.9c17.15,2,34.29,35.83,35.91,57.45s-11,37.55-28.11,35.57-32.37-21.11-34-42.73S982.2,606.93,999.36,608.9Z"/><path d="M1035,651c11,13.29,0,49.6-13.79,66.34s-33.88,19.54-44.9,6.25-8.78-37.64,5-54.38S1024,637.72,1035,651Z"/><path d="M1068.41,673c11,13.29,0,49.59-13.78,66.33s-33.89,19.54-44.91,6.25-8.78-37.63,5-54.37S1057.39,659.74,1068.41,673Z"/><path d="M1097.07,761c-4.8-.88-9.65-.66-14.51-.9a36.22,36.22,0,0,1-14.76-3.72c-.78-.39,0-1.51.75-1.12a35.8,35.8,0,0,0,14.92,3.53c4.57.17,9.15,0,13.68.86.84.16.78,1.51-.08,1.35Z"/><path d="M1092.39,769.39c-4.54-1.59-9.31-2.12-14-3.08a36.24,36.24,0,0,1-14.05-5.9c-.71-.5,0-1.63.76-1.12a35.56,35.56,0,0,0,14.16,5.82c4.56.9,9.17,1.46,13.58,3a.68.68,0,0,1-.44,1.28Z"/><path d="M1084.49,775c-4.31-2.35-9-3.63-13.58-5.41a36,36,0,0,1-12.63-8c-.62-.61.41-1.5,1-.89a35.78,35.78,0,0,0,13.3,8.12c4.27,1.58,8.63,2.9,12.65,5.1.76.41,0,1.53-.76,1.12Z"/><path d="M936.66,678.93c4.11,2.08,7.67,5,11.43,7.58a35.57,35.57,0,0,0,14,6.2c.85.15.78,1.51-.07,1.35a36.22,36.22,0,0,1-14-6c-4-2.73-7.75-5.85-12.11-8-.77-.39,0-1.51.76-1.13Z"/><path d="M935,688.32c4.45,1.44,8.46,3.78,12.63,5.82a35.62,35.62,0,0,0,14.81,3.91c.87,0,.79,1.38-.08,1.36a36.31,36.31,0,0,1-14.76-3.79c-4.32-2.08-8.44-4.53-13-6a.68.68,0,0,1,.43-1.29Z"/><path d="M937.55,697.46c4.53.68,8.8,2.26,13.16,3.58a35.9,35.9,0,0,0,15.5,1.56c.86-.12,1.14,1.21.28,1.33a36.25,36.25,0,0,1-14.93-1.23c-4.69-1.33-9.23-3.16-14.08-3.89-.86-.13-.79-1.48.07-1.35Z"/><ellipse class="cls-5" cx="1014.65" cy="672.92" rx="26.19" ry="20.63" transform="translate(-92.5 1179.44) rotate(-58.14)"/><ellipse cx="1012.11" cy="671.49" rx="23.86" ry="14.92" transform="matrix(0.53, -0.85, 0.85, 0.53, -92.48, 1176.61)"/><ellipse class="cls-5" cx="1047.04" cy="700.47" rx="26.19" ry="20.63" transform="translate(-100.6 1219.96) rotate(-58.14)"/><ellipse cx="1044.11" cy="698.35" rx="23.86" ry="14.92" transform="translate(-100.18 1216.47) rotate(-58.14)"/><path d="M1053.43,730.15c3.66-4.18-19.59-11.92-40.26-30.06s-32.32-37.83-36-33.65,4.27,29.23,24.94,47.36S1049.76,734.33,1053.43,730.15Z"/><path class="cls-6" d="M1035.81,747c2.35-2.69-20.52-9.74-41.2-27.87s-32.13-39.17-34.48-36.49S958.92,715.88,979.6,734,1033.45,749.63,1035.81,747Z"/><path class="cls-6" d="M1036.26,760.56c1.29.33-.63-6.85,1.4-14.73s6.65-13.58,5.36-13.91-10.85,3.65-12.87,11.54S1035,760.23,1036.26,760.56Z"/><path class="cls-6" d="M1001.77,707.62l-2.66-6.17a1.61,1.61,0,0,1,2-2.16l8.51,2.86a1.61,1.61,0,0,1,.28,2.92l-5.85,3.31A1.6,1.6,0,0,1,1001.77,707.62Z"/><path d="M907.43,860.35,903,925.26a9.52,9.52,0,0,0,1.81,6.25l29.32,40.2c7.69-1.93,19,1.86,19.57,10,0,.32-.08.66-.09,1,3.48,3.41,7.86,7,11.78,8.68a57.63,57.63,0,0,1-14.18-1.63,25.89,25.89,0,0,1-2.19,3c1.9,4.81,4.79,10.58,8.07,14-8.17-3.57-12.18-6.6-14.09-8.41a30.94,30.94,0,0,1-3.6,2.26c0,4.93.54,10.64,2.14,14.66-5.7-5.89-8.33-10-9.57-12.53-6,0-10.81-4.51-11.3-11.53a18.64,18.64,0,0,1,1.44-8.3l-34.77-43a9.59,9.59,0,0,1-2.12-6.14l1.11-66.59S902,866.77,907.43,860.35Z"/><path d="M847.94,830.16l23.61,141c6.09,2.56,11.33,8.18,9.78,14.26a11,11,0,0,1-2.1,4c1.16,5,3.1,11,5.76,14.75-6.46-4.11-10-7.36-11.84-9.51a29.1,29.1,0,0,1-2.7,1.45c-1,5.19-1.63,12-.58,16.78-4.77-6.89-6.67-11.45-7.46-14.1a22.07,22.07,0,0,1-4.66.49l-.26,0c-2.37,4-4.63,8.77-5.33,12.74-1.67-7.57-1.82-12.41-1.61-15.27-3.36-2.74-4.88-7.38-3.55-12.61a19.06,19.06,0,0,1,5.77-9.27L825.11,833.55a3.51,3.51,0,0,0-.08-.35C834.79,832.41,847.94,830.16,847.94,830.16Z"/><path d="M1098.89,868.81a15.31,15.31,0,0,0-5-3.31s-12.93-27.67-25.43-54.39c-11.59-24.82-77.07-35-77.2-35.35-14.58,6-21.54,10-22,11.92s68.56,33.61,68.56,33.61l30.65,56.27c-1.34,3.83-1.26,7.7,1.28,10.29a9.38,9.38,0,0,0,3.4,2.11c2.88,4.53,6.23,10.94,7,16,1.75-7.4,2-12.16,1.87-15a33,33,0,0,0,3.54-.46c4.18,3,9,7.21,11.51,11.2a58.43,58.43,0,0,0-3.66-13.57,22.21,22.21,0,0,0,2.8-1.49,14.6,14.6,0,0,0,2.93-2.54,36.89,36.89,0,0,1,10,4.61,65.37,65.37,0,0,0-7.21-9.82A10.76,10.76,0,0,0,1098.89,868.81Z"/><path d="M910.38,624.56a34.91,34.91,0,0,0,6.21-7.65,70.16,70.16,0,0,1-1.86,10.39A12.72,12.72,0,0,1,918,639.17a18.2,18.2,0,0,1-1.94,5.09l55.17,115.36C956.64,755,937,786.33,937,786.33L892.71,654.28c-7.23-2.21-14-8.08-12.61-14.86a12.43,12.43,0,0,1,3-5.67c.9-5.33,1.55-14.26-.14-20,5.42,6.76,7.63,11.28,8.53,13.8.8-.41,1.61-.79,2.44-1.14,2.64-4.63,5.59-11,6.16-16a60.73,60.73,0,0,1,2.51,13.56,23.07,23.07,0,0,1,2.53-.23A14.5,14.5,0,0,1,910.38,624.56Z"/><polygon class="cls-1" points="1598.22 586.3 1495.4 617.75 1607.06 615.88 1559.81 672.26 1629.29 620.18 1620.77 676.66 1653.93 599.11 1656.71 690.49 1684.96 603.01 1719.69 692.82 1732.63 589.66 1776.85 664.64 1762.4 572.79 1815.67 637.82 1789.25 540.79 1855.11 561.62 1809.68 494.33 1849.82 475.13 1809.24 471.49 1826.55 415.71 1794.99 443.72 1775.54 419.08 1765.75 465.2 1728.43 424.36 1738.13 487.62 1691.85 476.98 1708.12 512.73 1651.01 497.17 1666.66 543.71 1576.11 509.41 1620.33 558.17 1503.32 533.7 1598.22 586.3"/><path d="M1505.77,628.49c18.39-2.81,37.69-7.44,53.75-17.14,8.64-5.23,16.15-12.57,23.86-19.05q13.21-11.12,26.38-22.29c5.35-4.55,11.63-8.93,16.28-14.24,1.27-1.45-.85-3.58-2.12-2.12-3.59,4.1-8.38,7.49-12.5,11q-12.29,10.5-24.67,20.89c-8.07,6.8-15.93,14.21-24.49,20.39-9.64,7-21.2,11.15-32.57,14.35a208.28,208.28,0,0,1-24.72,5.3c-1.9.29-1.09,3.18.8,2.89Z"/><path d="M1530,653.61c17-4.53,34.29-10.62,49.26-20.08,11.08-7,19.82-17,29.1-26.13,5.77-5.67,12.65-11.17,17.45-17.73,1.14-1.56-1.46-3.06-2.59-1.51-4.78,6.53-11.81,12-17.55,17.68-9.25,9.08-17.91,19-29,25.8-14.52,8.91-31,14.72-47.42,19.07a1.51,1.51,0,0,0,.8,2.9Z"/><path d="M1493.26,571.5c47.91-27.14,95.63-92.05,75.2-128.12s-49.08,34.17-97,61.31-122.38,14.55-102,50.62S1445.36,598.63,1493.26,571.5Z"/><path d="M1195.32,526.51c-8-6.32-21.16-6-30.4-3.33-13.87,4.07-21.8,16.85-19.73,31.16,3.22,22.34,32.12,29.24,50.91,27.49,25.16-2.33,43.54-21.39,39.65-47.38-3.55-23.69-24-39.09-45.93-45.15-21.57-6-47.61-3.73-64.75,11.85-20.51,18.66-18.82,49.66-10.09,73.78a79.12,79.12,0,0,0,52.34,49.47c29.31,8.64,61.13,2.51,89-8.51,20.57-8.14,40.08-18.65,60.81-26.51a493.9,493.9,0,0,1,54.56-17.21c15.8-4,32.16-7.52,48.45-8.76,11.6-.87,9.74-18.82-1.84-17.94-31.33,2.37-63,11.45-92.54,21.61q-21.6,7.42-42.47,16.75c-14.64,6.53-28.76,14-44,19.07-21.82,7.24-47.07,11.2-69.34,3.5-18.51-6.4-32-20.34-38.36-38.76-6.15-17.66-9-42.31,7.84-55,24.53-18.58,82.48-5.38,78.78,32-2,19.87-27.69,22.38-42.8,17.22-6.87-2.34-15.2-7.22-11.89-15.84,2.7-7.05,17.37-7.92,20.47-5.46,9.1,7.2,20.51-6.77,11.39-14Z"/><path d="M1648,472.11c-19.39,15.58-65.93,10.72-91.91-21.59s-21.56-79.83-2.17-95.42,56.16-2,82.14,30.28S1667.41,456.52,1648,472.11Z"/><path d="M1621,312.09c13.38,10.91,9.58,48.66-.71,67.75s-29.47,25.71-42.85,14.8-15.89-35.23-5.6-54.32S1607.6,301.18,1621,312.09Z"/><path d="M1703.79,403c-7.79-15.41-45.47-19.79-66.32-13.85s-31.45,23.27-23.66,38.68,31,23.08,51.84,17.13S1711.57,418.42,1703.79,403Z"/><path d="M1652,384.1c-16.28-5.75-46.54,17.15-57.48,35.86s-6.63,38.55,9.65,44.3,38.36-4.77,49.3-23.48S1668.23,389.85,1652,384.1Z"/><path d="M1619.75,360.37c-16.28-5.74-46.54,17.15-57.48,35.87s-6.63,38.55,9.65,44.3,38.35-4.77,49.3-23.49S1636,366.12,1619.75,360.37Z"/><path d="M1527.34,363.87c2.48,4.2,4,8.84,5.86,13.3a36.38,36.38,0,0,0,8.59,12.58c.64.59,1.42-.51.79-1.1a35.66,35.66,0,0,1-8.46-12.78c-1.75-4.23-3.2-8.58-5.54-12.54-.44-.74-1.69-.21-1.24.54Z"/><path d="M1521,371.18c3.06,3.72,5.21,8,7.73,12.08a36.17,36.17,0,0,0,10.39,11.15c.72.49,1.51-.61.79-1.1A35.71,35.71,0,0,1,1529.59,382c-2.42-4-4.53-8.1-7.5-11.7a.68.68,0,0,0-1,.85Z"/><path d="M1518.55,380.51c3.7,3.23,6.53,7.22,9.77,10.88a36.24,36.24,0,0,0,11.91,9.07c.79.37,1.27-.9.48-1.26a35.92,35.92,0,0,1-12.21-9.67c-3-3.47-5.71-7.1-9.16-10.11-.65-.58-1.44.52-.79,1.09Z"/><path d="M1659.75,486.05c-3.37-3.14-7.3-5.49-11.06-8.11a35.63,35.63,0,0,1-10.66-11c-.44-.74-1.69-.21-1.25.53a36.39,36.39,0,0,0,10.44,11.1c4,2.82,8.17,5.25,11.73,8.58.64.59,1.43-.51.8-1.1Z"/><path d="M1651.52,490.88c-2.88-3.67-6.47-6.62-9.82-9.83a35.73,35.73,0,0,1-8.79-12.54.68.68,0,0,0-1.25.53,36.19,36.19,0,0,0,8.66,12.54c3.44,3.34,7.17,6.36,10.14,10.15a.68.68,0,0,0,1.06-.85Z"/><path d="M1642.05,491.61c-2.2-4-5.16-7.47-7.91-11.1a36.18,36.18,0,0,1-6.82-14c-.19-.85-1.52-.65-1.34.2a36.24,36.24,0,0,0,6.31,13.58c2.87,4,6.16,7.57,8.52,11.87.42.76,1.66.23,1.24-.54Z"/><ellipse class="cls-5" cx="1638.43" cy="410.79" rx="26.19" ry="20.63" transform="translate(307.53 1450.94) rotate(-52.08)"/><ellipse cx="1640.65" cy="412.67" rx="23.86" ry="14.92" transform="translate(306.9 1453.42) rotate(-52.08)"/><ellipse class="cls-5" cx="1601.38" cy="389.92" rx="26.19" ry="20.63" transform="translate(309.72 1413.67) rotate(-52.08)"/><ellipse cx="1604.39" cy="391.93" rx="23.86" ry="14.92" transform="translate(309.29 1416.81) rotate(-52.08)"/><path d="M1571.32,394.18c2.66-4.89,18,14.26,42.13,27.39s46.67,17.25,44,22.13-28.9,6.09-53.07-7S1568.67,399.06,1571.32,394.18Z"/><path class="cls-6" d="M1561.66,416.52c1.7-3.14,16.22,15.89,40.39,29s47.86,16.61,46.15,19.75-30.82,12.64-55-.49S1560,419.66,1561.66,416.52Z"/><path class="cls-6" d="M1548.73,420.8c-.76-1.1,6.64-1.78,13.34-6.4s10.44-10.94,11.19-9.84.33,11.44-6.38,16.06S1549.48,421.89,1548.73,420.8Z"/><path class="cls-6" d="M1610.32,434.86l6.71.37a1.61,1.61,0,0,0,1.34-2.62l-5.62-7a1.61,1.61,0,0,0-2.84.74l-1.09,6.64A1.6,1.6,0,0,0,1610.32,434.86Z"/><path d="M1414.62,556.8l5.26,64.85a9.45,9.45,0,0,0,2.72,5.91l35,35.42c7.31-3,19.06-1,20.83,7,.07.32,0,.67.06,1,4,2.85,8.81,5.75,12.94,6.84a58,58,0,0,1-14.27.49,25.34,25.34,0,0,1-1.72,3.3c2.6,4.47,6.31,9.75,10,12.63-8.6-2.33-13-4.73-15.18-6.23a32.29,32.29,0,0,1-3.22,2.77c.76,4.86,2.11,10.43,4.29,14.18-6.52-5-9.72-8.68-11.32-11-6,.92-11.36-2.86-12.89-9.73a18.71,18.71,0,0,1,.2-8.42l-40.76-37.43a9.48,9.48,0,0,1-3-5.76l-8.76-66S1410.23,564,1414.62,556.8Z"/><path d="M1428.65,556.08l-125.72-68c-5.76,3.23-13.41,3.91-17.26-1.05a11.48,11.48,0,0,1-1.84-4.09c-4.64-2.16-10.54-4.3-15.17-4.52,7.22-2.57,11.93-3.34,14.78-3.5.13-1,.29-2,.51-3-3.49-3.95-8.42-8.64-12.87-10.77,8.36.47,13.13,1.77,15.7,2.78a23,23,0,0,1,2.48-4c.06-.07.13-.11.19-.18-1.72-4.34-4.07-9-6.77-12,7,3.34,10.91,6.19,13,8.11,4.23-1,8.82.68,12.13,4.94a19.23,19.23,0,0,1,3.77,10.26L1440,536l.33.15C1435,544.32,1428.65,556.08,1428.65,556.08Z"/><path d="M1495.36,337a15.35,15.35,0,0,0,1.33,5.85s-9.71,28.95-19.1,56.92c-8.72,26,31.64,78.52,31.51,78.84,14.69,5.72,22.5,7.61,24.17,6.56s-26.46-71.63-26.46-71.63l16.63-61.88c3.6-1.85,6.22-4.7,6.17-8.34a9.4,9.4,0,0,0-1-3.86c1-5.27,3-12.22,6-16.46-6.39,4.15-9.85,7.42-11.72,9.59a35.57,35.57,0,0,0-2.88-2.12c-1-5.07-1.57-11.44-.61-16a58.25,58.25,0,0,0-6.71,12.35,22.52,22.52,0,0,0-3.06-.85,14.21,14.21,0,0,0-3.87-.19,37.12,37.12,0,0,1-4.06-10.22,66.4,66.4,0,0,0-1.55,12.08A10.76,10.76,0,0,0,1495.36,337Z"/><path d="M1663.49,573.61a35.09,35.09,0,0,0-.73,9.84,69.65,69.65,0,0,1-4.41-9.6,12.71,12.71,0,0,1-9.48-7.86,18.33,18.33,0,0,1-1.31-5.29l-111.17-63.18c14.66-4.52,12.9-41.52,12.9-41.52L1661,539.13c7.19-2.31,16.09-1.34,18.84,5a12.52,12.52,0,0,1,.74,6.4c2.31,4.89,6.87,12.59,11.56,16.37-8.31-2.46-12.7-4.9-14.88-6.46-.42.8-.87,1.57-1.35,2.33.47,5.31,1.7,12.23,4.1,16.68a60.16,60.16,0,0,1-9.81-9.7,21.59,21.59,0,0,1-2,1.63A14.21,14.21,0,0,1,1663.49,573.61Z"/><path class="cls-2" d="M967.81,500.73c.84-20.24,2.08-16.71-49.22-21.05-15-1.27-34.35-13-59.67-14-22.9-.94-40.49,9.39-54.89,9.29-57.11-.38-55.66-4.19-56.52,16.7-.94,22.85-28.25,34.55,59.71,42.63,12.67,1.16,18.47,17.58,48.49,9.26,16.68-4.62,31.56,10.55,44.12,10.49C992.18,553.57,966.86,523.75,967.81,500.73Z"/><path class="cls-2" d="M1019.06,563.66c28-35.1,33.27-40.46-6.73-72.32-40.66-32.37-44-25.47-72,9.63s-61.58,54.83-11.25,94.9C980.71,637,991.11,598.76,1019.06,563.66Z"/><ellipse class="cls-4" cx="937.69" cy="583.75" rx="7.84" ry="28.46" transform="translate(-103.07 953.67) rotate(-51.47)"/><path class="cls-2" d="M750.35,477.75c-3.14-1.4-2.21,1.68-16.65,25.3-4.23,6.9-18.75,11.47-24.89,23.6-5.55,11,.15,24.17-2.89,31.28-12.06,28.21-15.21,25.84,3.45,35.28,20.41,10.33,40.19,34.88,65.52-5.34,3.65-5.79,1.35-16.74,3.47-26,9.52-41.78,57.08-11.58,52.9-16.89C817.67,527.65,771.41,487.09,750.35,477.75Z"/><path class="cls-3" d="M1739.5,590.66c-35.7-27.81-42.19-31.81-10.49-72.5,32.21-41.35,37.16-35.38,72.86-7.57s73.34,39.2,33.47,90.39C1794.44,653.49,1775.21,618.47,1739.5,590.66Z"/><ellipse class="cls-4" cx="1824.03" cy="591.12" rx="28.7" ry="7.9" transform="translate(236.81 1666.88) rotate(-52.08)"/><path class="cls-3" d="M1564.66,818.7c-16.11-12.55-14.9-43,28.35-102.19,12.64-17.29,21.31-46.31,43.49-74.78,20.06-25.75,43.86-38.17,56.84-54,51.53-62.91,47.31-63.85,64-50.9,18.2,14.18,62.23,4.82-11.44,106.69-10.61,14.68-31.79,26.6-47.33,46.55-15.15,19.45-53,60.73-64.47,74.47C1549.92,865.5,1583,833,1564.66,818.7Z"/><path d="M444.77,459.29c-15.35-9.33-32-17.72-49.61-21.86-12.4-2.92-25.37-2.27-38-2.64-7.94-.23-16.57-1.4-24.49-.34-1.88.25-1.91,3.25,0,3,7.42-1,15.47.08,22.91.29,12.86.38,26.21-.39,38.8,2.58,17.33,4.09,33.75,12.35,48.9,21.57,1.65,1,3.16-1.59,1.51-2.6Z"/></svg>