<svg id="Layer_1" data-name="Layer 1" xmlns="http://www.w3.org/2000/svg" viewBox="0 0 1920 1080"><defs><style>.cls-1{fill:#e6e6e6;}.cls-2{fill:#a67c52;}.cls-3{fill:#f2f2f2;}.cls-4{fill:#ff0;}.cls-5{fill:#85aa52;}.cls-6{fill:#daec70;}.cls-7{fill:#fbb03b;}.cls-8{fill:#1b1464;}.cls-9{fill:#999;}.cls-10{fill:#fff;}</style></defs><path d="M1193.58,66.83a1,1,0,0,1,1.07-.79h1.06a.68.68,0,0,1,.62.33,1,1,0,0,1,.08.81l-6.14,24.14a1,1,0,0,1-1.08.79h-1.06a.67.67,0,0,1-.62-.33,1,1,0,0,1-.1-.78Z"/><path d="M1202.37,86.88a20.87,20.87,0,0,1,2.42-9.12c1.5-2.87,3.42-4.28,5.74-4.23a3.36,3.36,0,0,1,2.82,1.81,7,7,0,0,1,.62,4,19.56,19.56,0,0,1-2.93,9.86q-1.92,3.32-5.16,3.2a3.18,3.18,0,0,1-2.14-1C1202.75,90.45,1202.3,89,1202.37,86.88Zm6.16,1.44a17.14,17.14,0,0,0,2.56-8.67,9.85,9.85,0,0,0-.22-2.85,1,1,0,0,0-1-.74,1.82,1.82,0,0,0-1.46.76,9.44,9.44,0,0,0-1.29,2.16,18.39,18.39,0,0,0-1.72,7.53c0,2.17.33,3.29,1.12,3.36S1207.84,89.38,1208.53,88.32Z"/><path d="M1219.18,88.77a42,42,0,0,0,3.71-7.76,26.61,26.61,0,0,0,1.83-6.5c0-.46.34-.69.86-.69h1.13c.45,0,.71.28.78.83a91.35,91.35,0,0,1,0,14.06,52.86,52.86,0,0,0,5.59-14.36.83.83,0,0,1,1-.68l1,.08a1,1,0,0,1,.64.29.59.59,0,0,1,.12.61,59.56,59.56,0,0,1-6.55,15.4c-.89,1.39-1.65,2.08-2.27,2.06l-1.09-.07c-.74-.05-1.07-.64-1-1.76.14-2.93.18-5.68.14-8.25a51,51,0,0,1-4.07,8c-.84,1.39-1.58,2.08-2.2,2.06l-1.12-.07c-.74-.05-1.08-.64-1-1.76q.46-8.48.15-15.66c0-.53.24-.8.84-.8h1.07c.51,0,.78.28.8.83A112.88,112.88,0,0,1,1219.18,88.77Z"/><path d="M1238,87.1c-.33,1.78,0,2.76,1,3a9.57,9.57,0,0,0,3.26-2.72.54.54,0,0,1,.71-.07l.68.42a.69.69,0,0,1,.32.8,9.36,9.36,0,0,1-2.53,2.79q-1.85,1.47-3,1.26a3.61,3.61,0,0,1-3-2.7q-.51-2.73.9-7.46a15.89,15.89,0,0,1,3.92-7.14,5.53,5.53,0,0,1,2.19-1.2,4,4,0,0,1,2.77.22c1,.41,1.46,1.58,1.45,3.51a7.84,7.84,0,0,1-2.54,5.48A15.76,15.76,0,0,1,1238,87.1Zm.43-2.31a12.41,12.41,0,0,0,2.88-1.68,8.06,8.06,0,0,0,2-2.36,5.75,5.75,0,0,0,.78-2.85c0-1-.28-1.46-.84-1.46-1.09,0-2,.9-2.87,2.7A29.38,29.38,0,0,0,1238.45,84.79Z"/><path d="M1266,73.82h1.36a.42.42,0,0,1,.36.28.85.85,0,0,1,0,.65l-5.29,19.14c-.57,2.22-1.52,3.69-2.83,4.4a9.75,9.75,0,0,1-1.16.58c-.48.21-1.18,0-2.11-.54l-3.67-2.08a.8.8,0,0,1-.3-1.3l.54-.76a1,1,0,0,1,1.2-.3l4,2.47c.52.28.92,0,1.19-1L1262.72,83l-.82,1.58-2.11,3.58a10.85,10.85,0,0,1-2.32,2.95,3.48,3.48,0,0,1-2.08,1h-.21a1.67,1.67,0,0,1-1.26-.55,3.87,3.87,0,0,1-.56-3.85L1257,74.32c.09-.33.28-.5.56-.5h1.88c.36,0,.46.29.28.87l-3.64,12.48c-.19.75-.21,1.21-.07,1.4.27.41.88-.09,1.83-1.51s3.36-5.67,7.24-12.74A1,1,0,0,1,1266,73.82Z"/><path d="M1267.74,86.88a20.87,20.87,0,0,1,2.42-9.12c1.5-2.87,3.42-4.28,5.74-4.23a3.35,3.35,0,0,1,2.82,1.81,7,7,0,0,1,.62,4,19.46,19.46,0,0,1-2.93,9.86q-1.92,3.32-5.16,3.2a3.14,3.14,0,0,1-2.13-1Q1267.64,90,1267.74,86.88Zm6.17,1.44a17,17,0,0,0,2.55-8.67,9.85,9.85,0,0,0-.22-2.85,1,1,0,0,0-1-.74,1.82,1.82,0,0,0-1.46.76,9.1,9.1,0,0,0-1.28,2.16,18.07,18.07,0,0,0-1.72,7.53q-.07,3.26,1.11,3.36C1272.52,89.9,1273.21,89.38,1273.91,88.32Z"/><path d="M1289.57,82.58l-3.3,5.52a11.05,11.05,0,0,1-2.27,3,3.38,3.38,0,0,1-2,1h-.22a1.88,1.88,0,0,1-1.7-1.23,4.28,4.28,0,0,1-.08-3.17l3.67-13.39a.54.54,0,0,1,.56-.5h1.88c.37,0,.46.29.29.87l-3.65,12.48a2.66,2.66,0,0,0-.07,1.44c.28.38.84-.15,1.69-1.62l7.39-12.67a1,1,0,0,1,.88-.5H1294c.15,0,.27.1.37.29a.89.89,0,0,1,0,.65l-4.48,16.41c-.13.62-.37.94-.74.94h-1.48c-.57,0-.77-.35-.58-1Z"/><path d="M1300.8,86.88a21,21,0,0,1,2.42-9.12c1.51-2.87,3.42-4.28,5.75-4.23a3.36,3.36,0,0,1,2.82,1.81,7.13,7.13,0,0,1,.62,4,19.66,19.66,0,0,1-2.93,9.86q-1.92,3.32-5.17,3.2a3.18,3.18,0,0,1-2.13-1Q1300.7,90,1300.8,86.88Zm6.17,1.44a17,17,0,0,0,2.55-8.67,10,10,0,0,0-.21-2.85,1,1,0,0,0-1-.74,1.81,1.81,0,0,0-1.46.76,9.44,9.44,0,0,0-1.29,2.16,18.23,18.23,0,0,0-1.72,7.53q-.06,3.26,1.11,3.36C1305.59,89.9,1306.28,89.38,1307,88.32Z"/><path d="M1317.25,84l3.75-6.22a11.14,11.14,0,0,1,2.45-3,3.77,3.77,0,0,1,2.15-1h.76a1.78,1.78,0,0,1,.91.2,1.47,1.47,0,0,1,.52.88,3.72,3.72,0,0,1-.2,2l-4,14.68a.56.56,0,0,1-.58.51h-1.89c-.35,0-.44-.29-.28-.87l3.78-12.35a5.82,5.82,0,0,0,.28-1.28c0-.2-.08-.31-.24-.31a.94.94,0,0,0-.59.33,7.19,7.19,0,0,0-.92,1.19c-.46.66-1,1.51-1.66,2.55s-1.46,2.34-2.44,3.88q-2.8,4.25-4,6.37a1,1,0,0,1-.9.49h-1a.45.45,0,0,1-.38-.29.85.85,0,0,1,0-.65L1317,74.76c.12-.63.37-.94.75-.94h1.54c.59,0,.79.36.6,1.07Z"/><path d="M1330.65,87.1c-.33,1.78,0,2.76,1,3a9.56,9.56,0,0,0,3.25-2.72.55.55,0,0,1,.72-.07l.68.42c.31.25.42.52.31.8a9.23,9.23,0,0,1-2.53,2.79q-1.85,1.47-3,1.26a3.62,3.62,0,0,1-3-2.7q-.51-2.73.9-7.46a16,16,0,0,1,3.93-7.14,5.4,5.4,0,0,1,2.19-1.2,4,4,0,0,1,2.77.22c1,.41,1.46,1.58,1.45,3.51a7.88,7.88,0,0,1-2.54,5.48A15.87,15.87,0,0,1,1330.65,87.1Zm.44-2.31a12.13,12.13,0,0,0,2.87-1.68,8.09,8.09,0,0,0,2-2.36,5.75,5.75,0,0,0,.78-2.85c0-1-.28-1.46-.84-1.46q-1.65,0-2.88,2.7A29.35,29.35,0,0,0,1331.09,84.79Z"/><path d="M1343.15,88.36a16.21,16.21,0,0,1-2.58,8.1c-.6,1-1.2,1.55-1.81,1.55-.29,0-.43-.15-.44-.46a5.26,5.26,0,0,1,.53-1.81,13.35,13.35,0,0,0,.83-3,39.64,39.64,0,0,0,.41-4c0-.41.25-.68.76-.81l1.44-.32C1342.86,87.55,1343.15,87.79,1343.15,88.36Z"/><path d="M1362.83,65.61l-3.94,15.45,5.46-6.85a1.11,1.11,0,0,1,1-.39h1.34c.37,0,.57.14.6.4a1.19,1.19,0,0,1-.39.85l-6.2,7.3,2.79,8.78q.33,1-.75,1h-1A1.24,1.24,0,0,1,1361,92a1.17,1.17,0,0,1-.33-.65l-2.35-8-2,8a1,1,0,0,1-1.09.8h-.6c-.89,0-1.24-.39-1-1.16l6.59-25.37a1,1,0,0,1,1.07-.79h.82C1362.7,64.79,1363,65.06,1362.83,65.61Z"/><path d="M1373.73,74.58l-4.35,16.74a1,1,0,0,1-1.08.79h-1.06c-.67,0-.94-.28-.8-.83l4.39-16.74a.92.92,0,0,1,1-.72H1373a1,1,0,0,1,.64.16A.69.69,0,0,1,1373.73,74.58Zm-.66-6.24h.33a1.51,1.51,0,0,1,1.11.54,1.79,1.79,0,0,1,.51,1.25,1.63,1.63,0,0,1-.53,1.21,1.85,1.85,0,0,1-1.32.5h-.28a1.47,1.47,0,0,1-1.1-.52,1.78,1.78,0,0,1,0-2.45A1.68,1.68,0,0,1,1373.07,68.34Z"/><path d="M1389.83,65.68,1383,89.42a12.21,12.21,0,0,0,2.16-2.43c.26-.39.56-.47.9-.25l.86.58q.58.39.18.9a19.25,19.25,0,0,1-2.72,2.68,7.39,7.39,0,0,1-3,1.35.51.51,0,0,1-.67-.39l-.7-2a8.42,8.42,0,0,1-1.57,1.67,2.39,2.39,0,0,1-1.34.67H1377a3.16,3.16,0,0,1-1.86-1.18,3.84,3.84,0,0,1-1.2-2.56,22.11,22.11,0,0,1,1.59-7.32q1.64-4.5,3-5.89a4.69,4.69,0,0,1,3.51-1.37,4.32,4.32,0,0,1,2.26.65l2.42-9a1.08,1.08,0,0,1,1.17-.79h1C1389.71,64.79,1390,65.08,1389.83,65.68Zm-6,10.87a2.63,2.63,0,0,0-3-.14c-.81.57-1.57,1.85-2.31,3.83a42.57,42.57,0,0,0-1.6,5.22,5.91,5.91,0,0,0-.14,3.11c.24.58.64.62,1.19.14a8.92,8.92,0,0,0,3-3.94A53.43,53.43,0,0,0,1383.84,76.55Z"/><path d="M1390.63,88.71h.39a1.66,1.66,0,0,1,1.24.62,2.06,2.06,0,0,1,.57,1.46,2,2,0,0,1-.58,1.42,2,2,0,0,1-1.48.58h-.35a1.61,1.61,0,0,1-1.25-.6,2.12,2.12,0,0,1-.53-1.44,2,2,0,0,1,.57-1.44A1.84,1.84,0,0,1,1390.63,88.71Z"/><path d="M1205.43,111.82h-5.5l-5.81,22.69a1,1,0,0,1-1.08.8h-1a.68.68,0,0,1-.63-.33,1,1,0,0,1-.09-.78l5.7-22.38h-5.7c-.69,0-1-.27-.79-.82l.25-1a1,1,0,0,1,.33-.58,1.51,1.51,0,0,1,.76-.13h14c.74,0,1,.34.86,1l-.19.82Q1206.39,111.82,1205.43,111.82Z"/><path d="M1205.23,135.31h-1.08a.44.44,0,0,1-.4-.29.83.83,0,0,1,0-.64l6.61-25.6a1.07,1.07,0,0,1,1.15-.79h.88c.7,0,1,.29.83.87l-3.77,13.94-1,3.76,3.37-5.61a11.13,11.13,0,0,1,2.47-2.94,3.79,3.79,0,0,1,2.18-1h.76a1.69,1.69,0,0,1,.88.19,1.43,1.43,0,0,1,.53.88,3.72,3.72,0,0,1-.2,2l-4,14.68a.55.55,0,0,1-.58.51H1212c-.36,0-.46-.29-.3-.86l3.81-12.36a6,6,0,0,0,.26-1.28c0-.2-.07-.3-.23-.3a1,1,0,0,0-.58.32,7.9,7.9,0,0,0-.93,1.2l-1.61,2.57c-.64,1-1.21,1.94-1.7,2.7s-1.19,1.86-2.08,3.28-1.71,2.84-2.44,4.26A1.09,1.09,0,0,1,1205.23,135.31Z"/><path d="M1229.63,117.75c.09-.57.37-.85.83-.85l.82,0c.88,0,1.2.45,1,1.3l-4.32,14.37a10.57,10.57,0,0,0,2.23-2.38c.27-.39.57-.48.89-.25l.88.58a.56.56,0,0,1,.18.9,19,19,0,0,1-2.72,2.7,7.25,7.25,0,0,1-2.94,1.36.54.54,0,0,1-.65-.39l-.67-2a8.85,8.85,0,0,1-1.74,1.85,2.29,2.29,0,0,1-1.11.5h-.07a1.85,1.85,0,0,1-.88-.41,6.46,6.46,0,0,1-1.17-1.08,4.14,4.14,0,0,1-.84-1.46,7.41,7.41,0,0,1,0-2.88,31.17,31.17,0,0,1,1.64-5.82,15.09,15.09,0,0,1,2.78-5.22,4.6,4.6,0,0,1,3.57-1.44A4.34,4.34,0,0,1,1229.63,117.75Zm-.54,1.89c-1.28-.68-2.32-.68-3.12,0a10.28,10.28,0,0,0-2.36,4.2,33.5,33.5,0,0,0-1.49,5,10.91,10.91,0,0,0-.29,2.46,1.11,1.11,0,0,0,.63,1c.39.2,1-.2,1.92-1.19a13.07,13.07,0,0,0,2.36-4.07C1227.41,125.27,1228.2,122.82,1229.09,119.64Z"/><path d="M1237.05,127.18l3.74-6.22a11.14,11.14,0,0,1,2.45-2.95,3.81,3.81,0,0,1,2.16-1h.75a1.79,1.79,0,0,1,.91.19,1.47,1.47,0,0,1,.52.88,3.72,3.72,0,0,1-.2,2l-4,14.68a.56.56,0,0,1-.58.51h-1.88c-.36,0-.45-.29-.29-.86l3.78-12.36a5.82,5.82,0,0,0,.28-1.28q0-.3-.24-.3a.92.92,0,0,0-.59.32,7.66,7.66,0,0,0-.92,1.19c-.46.66-1,1.51-1.66,2.55s-1.45,2.34-2.44,3.88c-1.87,2.83-3.21,5-4,6.37a1,1,0,0,1-.9.49h-1.05a.45.45,0,0,1-.38-.29.83.83,0,0,1,0-.64L1236.8,118q.18-.93.75-.93h1.54c.59,0,.79.35.61,1.06Z"/><path d="M1256.78,108.81l-3.94,15.45,5.46-6.85a1.11,1.11,0,0,1,1-.38h1.33q.56,0,.6.39a1.19,1.19,0,0,1-.39.85l-6.2,7.3,2.79,8.78q.33,1-.75,1h-1a1.34,1.34,0,0,1-.73-.14,1.21,1.21,0,0,1-.33-.65l-2.35-8.06-2,8a1,1,0,0,1-1.09.8h-.6c-.89,0-1.24-.39-1-1.16l6.59-25.37a1,1,0,0,1,1.07-.79h.82C1256.65,108,1256.92,108.26,1256.78,108.81Z"/><path d="M1280.28,117h1.36a.42.42,0,0,1,.37.27.9.9,0,0,1,0,.65l-5.29,19.14c-.57,2.22-1.52,3.69-2.83,4.4a9.75,9.75,0,0,1-1.16.58c-.48.22-1.19,0-2.11-.54l-3.68-2.07a.82.82,0,0,1-.51-.65.8.8,0,0,1,.22-.66l.54-.76a1,1,0,0,1,1.2-.3l4,2.47c.52.28.92-.05,1.19-1l3.42-12.36-.82,1.58-2.12,3.58a10.65,10.65,0,0,1-2.31,3,3.48,3.48,0,0,1-2.08,1h-.21a1.67,1.67,0,0,1-1.26-.55,3.87,3.87,0,0,1-.56-3.85l3.67-13.39c.1-.33.28-.49.57-.49h1.88c.36,0,.45.28.28.86l-3.64,12.48c-.19.75-.22,1.22-.07,1.4.26.41.87-.09,1.82-1.51s3.37-5.66,7.25-12.74A.93.93,0,0,1,1280.28,117Z"/><path d="M1282.05,130.09a20.92,20.92,0,0,1,2.42-9.13c1.5-2.87,3.42-4.28,5.74-4.23a3.36,3.36,0,0,1,2.82,1.81,7,7,0,0,1,.62,4,19.43,19.43,0,0,1-2.93,9.86q-1.92,3.31-5.16,3.2a3.21,3.21,0,0,1-2.14-1Q1282,133.18,1282.05,130.09Zm6.16,1.43a17,17,0,0,0,2.56-8.67,9.85,9.85,0,0,0-.22-2.85,1,1,0,0,0-1-.74,1.85,1.85,0,0,0-1.46.76,9.1,9.1,0,0,0-1.28,2.16,18.07,18.07,0,0,0-1.72,7.53q-.07,3.25,1.11,3.36C1286.83,133.1,1287.52,132.58,1288.21,131.52Z"/><path d="M1303.88,125.78l-3.3,5.52a11.05,11.05,0,0,1-2.27,3,3.4,3.4,0,0,1-2,1h-.22a1.91,1.91,0,0,1-1.71-1.23,4.34,4.34,0,0,1-.07-3.17l3.67-13.39a.54.54,0,0,1,.56-.49h1.88c.37,0,.46.28.28.86L1297,130.37a2.56,2.56,0,0,0-.07,1.44c.27.39.84-.15,1.69-1.62l7.39-12.67a.94.94,0,0,1,.87-.49h1.36c.15,0,.27.09.37.28a.89.89,0,0,1,0,.65l-4.48,16.42c-.13.62-.38.93-.74.93H1302c-.58,0-.77-.35-.58-1.05Z"/><path d="M1309.44,131.91h.4a1.65,1.65,0,0,1,1.24.62,2.11,2.11,0,0,1,.55,1.46,1.94,1.94,0,0,1-.57,1.42,2,2,0,0,1-1.48.58h-.36a1.56,1.56,0,0,1-1.23-.6,2.07,2.07,0,0,1-.52-1.44,2,2,0,0,1,.55-1.44A1.84,1.84,0,0,1,1309.44,131.91Zm.47-3,4.32-19.18a1,1,0,0,1,1.08-.79h2.12c.69,0,1,.28.79.83l-6.48,19.19a1,1,0,0,1-1,.79h-.21C1310,129.73,1309.79,129.45,1309.91,128.89Z"/><path class="cls-1" d="M428,179.72c16.84-18,12.73-16,60.19,24.76,13.88,11.92,40.51,18.74,63,39.81,20.33,19,26.35,43.11,38.69,55.52,49,49.2,51.06,44.69,33.68,63.23-19,20.29-5.9,53.94-87.84-15.47-11.81-10-31-1-49.34-34.16-10.2-18.41-36-18.39-46.68-29.33C361.4,203.6,408.83,200.15,428,179.72Z"/><path class="cls-1" d="M329.76,188.88c6.63-54.14,6.74-63.32,68.45-55.76,62.7,7.68,59.6,16.49,53,70.63s4.91,100.11-72.72,90.6C298.84,284.59,323.12,243,329.76,188.88Z"/><ellipse class="cls-2" cx="381.65" cy="276.56" rx="9.53" ry="34.59" transform="translate(60.73 621.74) rotate(-83.02)"/><path class="cls-1" d="M633.16,348.74c3.88,1.53.42,3.35-7.76,36-2.39,9.54,6,26,.73,41.68-4.78,14.16-21.09,20.45-24.66,29.15-14.19,34.5-9.46,35.2-33.54,27.07-26.35-8.91-64.48-5.14-51.18-61.38,1.91-8.1,13.36-15.43,19.62-25.18,28.13-43.84-38.58-59.36-30.42-60.27C532.53,332.87,607.12,338.44,633.16,348.74Z"/><path class="cls-1" d="M706.25,497.17c-17-9-19.65,8,19.14-69.59,11.34-22.68,12.52-71.91,32.55-109.65,18.11-34.13,40.92-54.76,52.7-76,46.76-84.13,39.91-77.77,60-74.63,130.79,20.4,29.05,49.16-12.52,107.13-12.4,17.29-20.89,51.66-34.92,78.1-13.68,25.78-45.86,31.72-52.28,51.6C734.8,516,725.55,507.41,706.25,497.17Z"/><path class="cls-3" d="M912.46,529.84c-8.07-15.34-8.23-11.9,47.9-43.58,16.41-9.26,39.69-22.15,67.78-36.93,25.4-13.36,43.16-21.91,59.3-29.92,64-31.79,61.08-34,69.41-18.13,9.11,17.33,34.84,41.75,8.05,52.62-14.6,5.92-61.94,7.66-81.62,18-19.19,10.09-123.14,91.26-137.59,96.68C908.2,582.66,921.64,547.29,912.46,529.84Z"/><polygon class="cls-4" points="433.06 839.71 303.14 879.45 444.23 877.08 384.53 948.32 472.31 882.51 461.55 953.87 503.44 855.89 506.97 971.35 542.65 860.81 586.54 974.29 602.88 843.95 658.76 938.69 640.5 822.63 707.8 904.8 674.42 782.2 757.64 808.52 700.24 723.49 750.96 699.24 699.69 694.64 721.55 624.16 681.68 659.55 657.11 628.41 644.73 686.7 597.58 635.09 609.84 715.02 551.36 701.58 571.91 746.75 499.75 727.09 519.54 785.89 405.13 742.55 461 804.16 313.15 773.24 433.06 839.71"/><rect class="cls-5" x="467.83" y="854.31" width="12" height="34" rx="6" transform="translate(1284.23 299.51) rotate(83.33)"/><path class="cls-6" d="M664.42,857.07c-9.28,40.37-61.23,49.54-119.63,36.11s-101.13-44.37-91.85-84.74S486.3,725.82,578.4,747C665.62,767.05,673.7,816.7,664.42,857.07Z"/><circle class="cls-7" cx="618.86" cy="833.77" r="33.5"/><ellipse cx="607.51" cy="844.5" rx="20.94" ry="4.28" transform="translate(-351.64 1247.34) rotate(-77.05)"/><circle class="cls-7" cx="509.41" cy="805.52" r="33.5"/><ellipse cx="513.4" cy="794.13" rx="20.94" ry="4.28" transform="translate(-375.57 1116.54) rotate(-77.05)"/><path class="cls-5" d="M672.16,849.25s-7.79,1.14-8.29-4.84-4.83-36.33-.34-55.85,13.83-43.78,15.62-43.37,5.23,10,6.37,13.21,3.42,10.61,6.38,13.21c3.51,3.08,12.67,18.41,13.39,23.62.75,5.45,5.73,16-.4,26.32S680,848.11,678.17,847.7,672.16,849.25,672.16,849.25Z"/><path class="cls-5" d="M448.24,799.82s6.51,4.43,9.58-.73S478,768.51,482.51,749s6.68-45.43,4.89-45.84-9.07,6.72-11.5,9.1-7.7,8-11.5,9.09c-4.51,1.24-19.44,11-22.37,15.41-3,4.57-12.14,11.88-11.13,23.85s10.83,34.78,12.62,35.19S448.24,799.82,448.24,799.82Z"/><path d="M550.57,853.86l-.46-.89c.08,0,8-4.22,9.17-9.13a10.77,10.77,0,0,0-2.19-8.74l.75-.66a11.56,11.56,0,0,1,2.42,9.62C559,849.42,550.92,853.68,550.57,853.86Z"/><path class="cls-6" d="M662,840.82c-3.53,15.36-20,.1-43.9-5.41s-46.37.83-42.84-14.53,13.1-31.33,50.87-22.64C661.91,806.46,665.53,825.47,662,840.82Z"/><path class="cls-6" d="M565,789.57c-1.53,6.64-19.37-2.43-43.32-7.94s-44.94-5.36-43.42-12,8.85-12.83,46.62-4.14C560.67,773.7,566.55,782.92,565,789.57Z"/><path class="cls-6" d="M466.62,820.35c1.48-6.46,19.36,2.48,43.31,8s44.91,5.5,43.43,12-8.75,12.43-46.53,3.75C471.06,835.82,465.13,826.81,466.62,820.35Z"/><path class="cls-6" d="M567.91,852.88c1.48-6.46,19.36,2.48,43.31,8s44.91,5.5,43.42,12-8.75,12.43-46.52,3.75C572.35,868.34,566.42,859.33,567.91,852.88Z"/><ellipse cx="530.62" cy="872.1" rx="8" ry="7" transform="translate(-438.2 1193.82) rotate(-77.05)"/><path d="M354.91,597.39a8.84,8.84,0,0,1,6.26,3.61c.31.48.64.94,1,1.38a4.74,4.74,0,0,1,.72,1.5,12.17,12.17,0,0,1,.48,5.17,16.22,16.22,0,0,0,.36,5.47c.4,1.41.8,2.75,1.2,4q1.08,3.38-1.32,9c-1.2,3.45-2.69,5.49-4.45,6.13l-2.16.72a11.88,11.88,0,0,1-5.35.78,4.86,4.86,0,0,1-3.07-1.26,7.66,7.66,0,0,1-1.2-7.21,7.14,7.14,0,0,0,0-2.65,2.55,2.55,0,0,0-2-2.28A1.78,1.78,0,0,1,344,621c-.2-.4-.36-.74-.48-1a2,2,0,0,0-.36-.6q-.18-.18-1.14.54c-.64.49-1,.75-1.08.79a1.61,1.61,0,0,1-.79-.19,1.44,1.44,0,0,0-1.26.13,3.93,3.93,0,0,0-1.2,1.32q-2.16,3.72-.84,12.14c.32,1.68.64,3.25,1,4.69a43.8,43.8,0,0,1,.9,7.21,13.37,13.37,0,0,1-.72,3.79c-.44,1.32-.82,2.63-1.14,3.91-1,3.29-.84,6.09.36,8.42a40.52,40.52,0,0,0,2.76,5,3.23,3.23,0,0,0,5.05-.66,26.36,26.36,0,0,0,1.57-3,31.47,31.47,0,0,1,1.56-3.07,3.15,3.15,0,0,1,2-1.68,10,10,0,0,1,2.95-.06q1.8.18,2.46.18a2.87,2.87,0,0,1,1.63.78c.64.52,1,1.68,1,3.49s.1,3.24.18,4.33a4.1,4.1,0,0,1-.84,2.88,7.37,7.37,0,0,0-1.26,2.29,10.63,10.63,0,0,0-.42,2,7.8,7.8,0,0,1-.91,3.73,19.86,19.86,0,0,1-1.44,2c-.44.52-1.6.78-3.49.78a6.71,6.71,0,0,0-5.11,2.65q-2.28,2.64-4.32,2.34a3.54,3.54,0,0,1-2.89-2.46c-.56-1.29-1.8-2-3.73-2.05a6.39,6.39,0,0,1-1.56-.42,8.41,8.41,0,0,0-1.68-.48,5.53,5.53,0,0,1-1.93-.78,10.15,10.15,0,0,1-4-4.21,23.39,23.39,0,0,0-1.86-3,20.21,20.21,0,0,1-1.5-2.29,6.39,6.39,0,0,1-1.2-4.57c.48-3.84,0-6.37-1.57-7.57q-1.32-.84-1.32-1.32a9.29,9.29,0,0,0-.48-2,8.69,8.69,0,0,1,.06-5.05,12.64,12.64,0,0,0,.54-4.75q-.24-1.86-.6-3.9-.72-5.29-.12-7a11.63,11.63,0,0,0,.3-4.81c-.2-2.08-.3-3.79-.3-5.11s-.1-3.06-.3-5.23a44.66,44.66,0,0,1-.06-7q.84-9.37,6.37-12.87,8.29-4.92,10.58-4.69a9.44,9.44,0,0,1,1.74.19,4.75,4.75,0,0,0,2-.07,5.33,5.33,0,0,0,1.68-.72c.48-.32,1-.68,1.45-1.08q2.88-2.64,5.17-.6a21.57,21.57,0,0,0,3.36,3.37A11.15,11.15,0,0,0,354.91,597.39Z"/><path d="M401.44,595.83l3.85-.24c2.72,0,4.67.44,5.83,1.32a16.41,16.41,0,0,1,2.65,2.4,22.09,22.09,0,0,1,1.62,2.23,12.57,12.57,0,0,0,2,2.34,3.78,3.78,0,0,1,1.27,2.83,3.62,3.62,0,0,0,.9,2.58,4.52,4.52,0,0,1,.9,3.13c0,1.44,0,2.83-.06,4.15a13.59,13.59,0,0,1-.42,3.24,9.26,9.26,0,0,0-.36,2.53,4.8,4.8,0,0,0,.54,2.28c.36.68.4,2.33.12,4.93a68.92,68.92,0,0,1-1.32,7.88,30.45,30.45,0,0,1-2.35,6.85,20,20,0,0,1-9.38,8.54c.4,1,.86,2,1.39,3.18s1,2.35,1.5,3.55a22.57,22.57,0,0,1,1.56,6.43,16.37,16.37,0,0,0,.18,2.89,5.71,5.71,0,0,0,.42,1.38,1.62,1.62,0,0,0,.67.72,12.33,12.33,0,0,1,1.26.91,4.38,4.38,0,0,1,1.32,2.22,11,11,0,0,1,.48,3.25q0,3.84-.9,4.74a4.47,4.47,0,0,1-1.92,1.21,12.51,12.51,0,0,1-2.11.42q-2.76.36-3.48-.72a3.1,3.1,0,0,1-1-2,5,5,0,0,0-.42-1.8,1.6,1.6,0,0,0-1.08-1c-.48-.12-.82-.62-1-1.51a3.05,3.05,0,0,0-.84-1.74,3.25,3.25,0,0,0-2.23-.18q-3,.6-4.45-3.61a20.6,20.6,0,0,1-.72-2.52c-.24-1-.52-2.05-.84-3q-1-3.48-2.22-3.78a1.9,1.9,0,0,0-1.87.3,3.73,3.73,0,0,0-.9,1.62,8.07,8.07,0,0,0-.3,2.28,13.29,13.29,0,0,0,.3,2.71,5.47,5.47,0,0,1,.06,2.4,4.67,4.67,0,0,1-.66,1.57,8.05,8.05,0,0,1-.9,1.08,3,3,0,0,0-1.14,2.4,19.14,19.14,0,0,1-.55,3.13c-.48,2.16-1.12,3.53-1.92,4.09a5.66,5.66,0,0,1-2.4,1,7,7,0,0,1-2.41-.06c-2-.4-3.25-1.1-3.73-2.11a9.13,9.13,0,0,1-.84-2.28,6.37,6.37,0,0,1-.06-1.5c0-.48.1-1,.18-1.57a10.35,10.35,0,0,0,.06-2,17.08,17.08,0,0,0-.54-3.06,23.61,23.61,0,0,1-.6-4.57l-.12-3.13a3.56,3.56,0,0,1,.84-1.62,3.22,3.22,0,0,0,.54-2.65,2.35,2.35,0,0,0-1.38-1.92q-1.08-.42-1.08-1c0-.4.08-1.41.24-3a28.76,28.76,0,0,0-.18-6q-.42-3.62-.54-6.37c-.32-4-1-6.27-2.11-6.8a3,3,0,0,1-1.86-1.92,7,7,0,0,1,0-2.59q.24-1.44.54-3.6c.2-1.45.42-2.91.66-4.39s.46-2.87.66-4.15.34-2.16.42-2.65a5.4,5.4,0,0,0,.06-1.38q-.06-.66-.06-1.26a11.83,11.83,0,0,1,0-3.37,11.86,11.86,0,0,0,.24-3.9,7.94,7.94,0,0,1,.43-3.49,21.55,21.55,0,0,1,1.14-3.31,3,3,0,0,1,1.8-1.44,10.84,10.84,0,0,0,2.59-1.38c.84-.6,1.62-1.21,2.34-1.81s1.36-1.16,1.92-1.68a5.14,5.14,0,0,1,2-1.14,10.73,10.73,0,0,1,5.11-.18,7.45,7.45,0,0,1,2.34,1.14,12.61,12.61,0,0,0,1.75,1.2,8.2,8.2,0,0,0,2.16.91,8.3,8.3,0,0,0,2.1.3,7.6,7.6,0,0,1,3.07.66A2,2,0,0,0,401.44,595.83Zm-10,33.54.73,10.94a18,18,0,0,1-.13,2.11q-.12,1-.24,1.86c-.08,1.2.37,1.93,1.33,2.17a1.83,1.83,0,0,0,1.92-.67,9.3,9.3,0,0,0,1.32-2.46c1-2,1.28-3.29,1-3.85a2,2,0,0,1-.55-2.1c.28-.6.89-1.79,1.81-3.55a33.59,33.59,0,0,0,2-4.57,8.45,8.45,0,0,0,.3-4.15,22.94,22.94,0,0,1-.36-3.06v-1.33a2.28,2.28,0,0,0-.9-1.74,3.57,3.57,0,0,0-1.26-.84,3.77,3.77,0,0,0-.6-.06,3.25,3.25,0,0,1-2-.18,3.81,3.81,0,0,0-1.8-.36,3.36,3.36,0,0,0-1.93,1.14,3.73,3.73,0,0,0-1.2,2.23,13.85,13.85,0,0,0,0,2.58A52.41,52.41,0,0,1,391.46,629.37Z"/><path d="M434.51,683.72a4.29,4.29,0,0,1-2.71-.18,3.44,3.44,0,0,1-2.1-2,12.38,12.38,0,0,1-.78-3.48,30,30,0,0,1-.06-4.27c.08-1.52.12-3,.12-4.45,0-3.21-.53-5.25-1.57-6.13-2.16-1.61-3-5.69-2.64-12.27a91,91,0,0,1,1.32-9,42.4,42.4,0,0,0,1.14-9.38,41.56,41.56,0,0,1,.24-6,24.22,24.22,0,0,1,.73-3.61c.27-1,.62-2,1-3a25.09,25.09,0,0,0,1.08-5.17q1.2-9,2.16-11.18a62.05,62.05,0,0,1,3.19-6.19,19,19,0,0,1,3.07-4.27q2.76-2,7.93-.36a15.2,15.2,0,0,0,7.15.84,30.75,30.75,0,0,1,5.05-.42,8.42,8.42,0,0,1,3.91,1.33,10.22,10.22,0,0,1,3.37,3,11.12,11.12,0,0,1,1.68,3.79,24.53,24.53,0,0,1,.12,8.83,48.24,48.24,0,0,0-.54,8.66,18.24,18.24,0,0,0,1.44,6.25,31.06,31.06,0,0,1,1.69,4.69c.28,1.17.52,2.33.72,3.49s.36,2.4.48,3.73a38.78,38.78,0,0,0,.72,4.51,25.07,25.07,0,0,1,.6,4,15.61,15.61,0,0,1-.06,2.47,17.35,17.35,0,0,1-.3,1.74,6.5,6.5,0,0,0,.12,2.41,10.5,10.5,0,0,1,0,3.54c-.2,1.29-.42,2.53-.66,3.73q-1.32,5.54-1.08,7.81a17.17,17.17,0,0,1,0,5.84q-.48,1.74-.9,2.82c-.28.72-.6,1.73-1,3a7.59,7.59,0,0,1-2.22,3.49c-1.12,1-2.18,1.36-3.19,1a3.12,3.12,0,0,1-1.92-1.75,22.66,22.66,0,0,1-.72-2.34,14.15,14.15,0,0,0-.72-2.17,1.73,1.73,0,0,0-1.5-1.08,2.13,2.13,0,0,1-2.05-2.22,19.74,19.74,0,0,1,.06-3.49,8.91,8.91,0,0,0-.18-3.07,10.71,10.71,0,0,0-1.2-3c-1.44-2.48-3.13-3.85-5.05-4.09-2.89-.4-4.89,1-6,4.21a16.69,16.69,0,0,0-.54,3.19,9.84,9.84,0,0,1-1,3.54,13.44,13.44,0,0,1-1.68,2.65q-.9,1.08-1.68,2a4.42,4.42,0,0,0-1,2.23C438,681.27,436.59,683.24,434.51,683.72Zm10.7-50.38q-2.41,6.49-.6,10.34a3.82,3.82,0,0,0,3.12,2.28c2.33.25,3.71.06,4.15-.54s1-1.24,1.56-1.92a4,4,0,0,0,.67-3.13q-.25-2.1-.36-3.72A10.24,10.24,0,0,0,452.6,633a14.8,14.8,0,0,1-1.38-4.39c-.24-1.56-.4-3.06-.48-4.51-.32-3.2-1-4.81-2.17-4.81a1.44,1.44,0,0,0-1.5,1.27,19.75,19.75,0,0,0-.42,3.3A27.79,27.79,0,0,1,445.21,633.34Z"/><path d="M523.54,612.18a2.91,2.91,0,0,1,.18,1.56,8.19,8.19,0,0,1-1.68,2.89,8.94,8.94,0,0,0-1.87,4.39,19.24,19.24,0,0,0-.18,3.84,13.91,13.91,0,0,1,0,2.59,3.81,3.81,0,0,1-2.88,3.61c-1.61.64-2.85.6-3.73-.12a8.29,8.29,0,0,1-2.16-2.83,24.08,24.08,0,0,1-1.27-3q-.42-1.26-1.38-1.38a3,3,0,0,0-2.58.36,16.16,16.16,0,0,0-1.39,1.2,5.28,5.28,0,0,1-2,1.33,9.13,9.13,0,0,0-1.62.72,2.67,2.67,0,0,0-1,2.76q.48,3.74,8.3,11.31,1.44,1.44,3.43,3.12a39.15,39.15,0,0,1,3.9,3.85A20.07,20.07,0,0,1,520.47,660a22.27,22.27,0,0,1-1.92,11.54c-1.28,2.65-2.81,4.37-4.57,5.17a5.76,5.76,0,0,0-2.76,2.83c-.49,1.16-.85,2-1.09,2.52a2.9,2.9,0,0,1-1.5,1.33,5,5,0,0,1-2.58.42,11.52,11.52,0,0,1-2.71-.54,14.08,14.08,0,0,1-2.28-1,6.37,6.37,0,0,0-1.69-.66,1.44,1.44,0,0,0-1.26.42c-.4.37-.8.74-1.2,1.15-1.2,1.2-2.29,1.66-3.25,1.38a21.11,21.11,0,0,1-3.37-1.38,21.62,21.62,0,0,1-3.72-2.41q-6.49-5-4.45-10.34a12.57,12.57,0,0,1,2.94-4.93,4.62,4.62,0,0,1,2.59-1.44,2.1,2.1,0,0,1,2.1,1.14c.36.76.67,1.41.91,1.93a4.32,4.32,0,0,0,.84,1.26,5.4,5.4,0,0,0,1.5,1,6.75,6.75,0,0,0,2.22.6,4.53,4.53,0,0,0,4.57-2.4,9,9,0,0,0,1.21-5.77q-.86-5.65-2.41-4.81a3.42,3.42,0,0,1-3.25.06c-1.28-.52-2-1.21-2-2.05a12.74,12.74,0,0,0-.48-2.46,19.33,19.33,0,0,0-.84-2.29c-.72-1.84-1.37-2.84-1.93-3a11.06,11.06,0,0,0-2.58-.24c-1.08,0-2.27-.7-3.55-2.11a12.32,12.32,0,0,1-2.76-5.29c-.56-2.12-1.05-4-1.45-5.53s-.76-2.78-1.08-3.66a28.84,28.84,0,0,1-.84-2.77q-1.2-4.58-.12-11.78a20.92,20.92,0,0,1,2.65-7.4,69.41,69.41,0,0,1,4.32-6.31q4.58-6.13,8.42-8.54c2.56-1.6,4.53-1.76,5.89-.48a4.77,4.77,0,0,0,3.91,1.27,24,24,0,0,0,3.31-.67l2.16-.48a8.13,8.13,0,0,1,4.15.12c1.4.4,2.66,1.77,3.79,4.09a22.42,22.42,0,0,0,1.74,3.13q.9,1.32,1.74,2.52a14,14,0,0,1,2.11,4.75,7.45,7.45,0,0,0,.84,2.71A10.14,10.14,0,0,1,523.54,612.18Z"/><path d="M559.79,667.12l.12-9.13v-3c0-2.4-.24-3.92-.72-4.57a3.6,3.6,0,0,0-3.37-1.62,4.06,4.06,0,0,0-3.3,1.38,6.1,6.1,0,0,0-1.21,3.25c-.12,1.28-.2,2.69-.24,4.21s-.06,3.16-.06,4.93a58.64,58.64,0,0,0,.06,8.17,10.38,10.38,0,0,1,0,3.67,3.94,3.94,0,0,1-1.26,1.56,5.82,5.82,0,0,0-1.56,2,24.23,24.23,0,0,0-1.08,2.58q-1.45,3.13-3,3.25-4.7.48-8.06-5.05a11.36,11.36,0,0,0-1.92-2.53c-1.68-1.84-2-4.81-1-8.89a29.25,29.25,0,0,0,.6-6,27.67,27.67,0,0,0-.24-4.38,9.1,9.1,0,0,1,0-2.95,4.9,4.9,0,0,0-.36-2.88,6.45,6.45,0,0,1-.42-3.31,10,10,0,0,0-.24-3.55,5.54,5.54,0,0,1-.18-2.7,2.35,2.35,0,0,0-.3-1.93,2.78,2.78,0,0,1-.37-2.1c.12-.92.22-1.9.31-3,.24-2.88-.12-5.09-1.09-6.61a24.91,24.91,0,0,1-2.46-5.29,11.61,11.61,0,0,1,.3-7.22,33.7,33.7,0,0,0,1.2-14.06,8.72,8.72,0,0,1,.84-4.45q1.56-4,10.22-4.45a22.94,22.94,0,0,0,5-.72,8.83,8.83,0,0,1,4.45-.06,3.2,3.2,0,0,1,2.59,2.82,20.15,20.15,0,0,0,.66,3.13,8.79,8.79,0,0,1,.42,1.68,15.64,15.64,0,0,1-.48,5,37.32,37.32,0,0,0-.84,5.78q-.12,2.34-.12,4.5a25.5,25.5,0,0,1-.43,7.52,7.42,7.42,0,0,0-.42,3.36,3.54,3.54,0,0,0,1,1.87q2.4,2.16,6.61-.48a3.2,3.2,0,0,0,1.08-1.2,56.22,56.22,0,0,1-.72-8.3q-.12-7.34-.48-11.48a27.57,27.57,0,0,1,.12-6.92A10.83,10.83,0,0,1,562,593.9q2.06-2.4,3.79-2.1a5.27,5.27,0,0,1,2.89,1.44,2.63,2.63,0,0,0,2.1,1,7.07,7.07,0,0,0,2.65-1.2q4.44-2.64,8.29,3.25-1.2,1.2-.66,4.39a12.23,12.23,0,0,1,.18,4.57,19.81,19.81,0,0,0-.48,3.84c-.08,1.65-.14,3.23-.18,4.75a47.28,47.28,0,0,1-.66,6,45,45,0,0,0-.12,11.91,62.77,62.77,0,0,1,.24,12.14,60.06,60.06,0,0,0-.24,9,14.63,14.63,0,0,1-.18,4.81q-.42,1.2-.9,2.4a17.84,17.84,0,0,0-2,7.1q-.24,3-.36,6a32,32,0,0,1-.6,5.23c-.72,3.45-2.37,5.17-4.93,5.17q-4.34,0-4.93-6.62a9.37,9.37,0,0,1-4.51-2.88Q559.55,672.06,559.79,667.12Z"/><path d="M604,645.24l-.25,8.54q0,8.29-3.48,11.06a5.9,5.9,0,0,1-4,1.32,4.24,4.24,0,0,1-2.7-1.32,3.89,3.89,0,0,1-1-2.52,28.94,28.94,0,0,0-.6-4.15c-.36-1.8-.8-3.61-1.32-5.41a16.4,16.4,0,0,1-.54-5.83q.24-3.13.3-5.89a6.17,6.17,0,0,0-1-4.09,6.41,6.41,0,0,1-1.45-4.09,6.08,6.08,0,0,1,.49-2.53,17.17,17.17,0,0,0,1.08-5.53q0-2.4-.12-3.48c-.08-.72-.18-1.43-.3-2.11s-.27-1.72-.42-3.12a22.66,22.66,0,0,1,0-4.81,33.3,33.3,0,0,0,0-5.47c-.17-1.85-.27-3.33-.31-4.45a10.93,10.93,0,0,1,.79-4,14,14,0,0,1,1.38-3.07,5.21,5.21,0,0,1,1.86-1.38c.88-.44,1.48-.76,1.81-1a1.94,1.94,0,0,1,1.32-.18,3.29,3.29,0,0,1,1.8,1.14,7.1,7.1,0,0,0,2.29,1.62c.88.41,1.9.89,3.06,1.45a3.35,3.35,0,0,1,2,2.7,10.39,10.39,0,0,0,.42,2.23,2.28,2.28,0,0,0,.42.6,13.84,13.84,0,0,1,.48,3.18,16.5,16.5,0,0,1-.42,5.41,23,23,0,0,0-.72,4.51,13.34,13.34,0,0,1-.66,3.67,9.44,9.44,0,0,0-.43,3.85,15.06,15.06,0,0,1,.06,2.94,17.08,17.08,0,0,1-.3,1.75,7.18,7.18,0,0,0-.18,1.62,12.44,12.44,0,0,0,.42,2.59,12,12,0,0,1,.37,3.18,19.06,19.06,0,0,0,.12,3.07,14.62,14.62,0,0,1,0,3.24A46.73,46.73,0,0,0,604,645.24Zm-15.15,34.87a3,3,0,0,1-.18-1.8,5.57,5.57,0,0,1,2-2.53,24.92,24.92,0,0,1,4.45-3c1.76-1,4.16-1.24,7.21-.84a4.27,4.27,0,0,1,3.37,2.52q2.52,4.34-2.29,7.82a10.56,10.56,0,0,1-3.84,1.74,3.89,3.89,0,0,0-2.35,1.08,1.94,1.94,0,0,1-2.1.42,2.62,2.62,0,0,1-1.93-1.5,2.54,2.54,0,0,0-1.44-1.5,6.43,6.43,0,0,1-1.74-1A3.58,3.58,0,0,1,588.89,680.11Z"/><path class="cls-5" d="M449.34,923.94c33.55,2.82,67.73,5.84,101.4,4.42,16.46-.7,32.88-4.94,49-8.1,21.79-4.28,43.57-8.63,65.26-13.37,17.73-3.88,34.36-9.76,51.51-15.73,7.24-2.52,4.13-14.11-3.19-11.57-14.82,5.15-29.37,10.75-44.69,14.22-20.94,4.73-42,8.93-63.06,13.1q-15.08,3-30.19,5.86c-6.66,1.27-13.68,2.81-19.26,3.26-20,1.64-40.38.18-60.35-.91-15.49-.85-31-1.88-46.43-3.18-7.69-.65-7.65,11.35,0,12Z"/><path class="cls-5" d="M687,903.24l21.46,7.22c7.33,2.47,10.48-9.12,3.19-11.57l-21.46-7.22c-7.34-2.47-10.48,9.12-3.19,11.57Z"/><path class="cls-6" d="M280.75,948.7c-88.1,9.76-56.41-21.68-60.18-55.71S179,835.22,267.1,825.45c16.15-1.79,99.3-10.73,115.6-11.76,72.59-4.58,73.54,8.82,78.4,52.65,4.71,42.52,3.59,57.32-70.25,69.15C376.42,937.81,295.16,947.1,280.75,948.7Z"/><path class="cls-5" d="M191.92,849a82.06,82.06,0,0,0-20.16-16.81c-5.44-3.31-12.21-5.72-17.07-9.89-1-.83-1.07-.19-.66-1.81a22.9,22.9,0,0,1,3.3-6.66,56.79,56.79,0,0,1,6.45-8.12c5.32-5.6-3.15-14.1-8.49-8.49-6.56,6.9-17.43,19.79-12.1,29.94,3,5.76,10.83,8.82,16.23,11.79,9.06,5,17.26,10.59,24,18.53,5,5.89,13.46-2.63,8.48-8.48Z"/><path class="cls-5" d="M209.86,923.72c-7.57,6.64-16.5,10.83-25.86,14.32-5.88,2.19-14.7,4.18-18.19,10-5.57,9.27,2.36,22.48,7.75,30.11,4.42,6.26,14.83.27,10.36-6.06a66.42,66.42,0,0,1-5.31-9,22.08,22.08,0,0,1-2.52-7.17,9.91,9.91,0,0,1,0-1.63c0-.23.22-.62-.23.1s.74-.39,1.17-.6c5.7-2.88,11.88-4.69,17.77-7.16a84.43,84.43,0,0,0,23.56-14.43c5.82-5.1-2.7-13.56-8.49-8.48Z"/><path class="cls-8" d="M228.7,959.5c71.81-8,45.91-5.59,38.59-71.69s18.35-70.45-53.24-60.5c-1.92.26-3.7.48-5.33.8-2.62.16-5.27.37-8,.67-35.69,4-14.29,13.78-12.65,28.65.73,6.52-2.48,12.93-3.28,17.74a7,7,0,0,0,.53,4.8c1.84,4.52,6.37,10.07,7.09,16.59S190,909.5,189.17,914.3a5,5,0,0,0-.16,2.45,5,5,0,0,0,.69,2.36c1.84,4.51,6.36,10.06,7.09,16.59,1.64,14.86-17.09,29.14,18.61,25.18,2.49-.27,4.93-.61,7.33-1C224.56,959.86,226.54,959.74,228.7,959.5Z"/><path class="cls-5" d="M414.47,819.93c2,2.66-.64-.84-1.2-1.57q-2.55-3.33-5.09-6.68-8.3-10.95-16.42-22c-12.23-16.66-24.63-33.45-35.11-51.28a115,115,0,0,1-8.21-17.17Q343,708,337.72,694.69c-8.22-20.55-16.37-41.15-24.12-61.88-6.25-16.69-10.21-33.6-14.43-50.92-1.83-7.5-13.41-4.33-11.57,3.19,3.75,15.38,7,30.75,12.46,45.62,7.49,20.39,15.5,40.59,23.53,60.77,6.37,16,11.89,33.08,20,48.29,9.56,17.83,22,34.32,33.87,50.64q14,19.2,28.49,38c2,2.58,6.38,2.06,8.48,0,2.56-2.51,2-5.94,0-8.49Z"/><path class="cls-5" d="M301.8,607.94l-17.71-14.1c-2.54-2-6-2.47-8.49,0-2.09,2.09-2.55,6.46,0,8.49l17.71,14.09c2.54,2,6,2.48,8.49,0,2.09-2.09,2.55-6.45,0-8.48Z"/><path class="cls-9" d="M1635.73,41.88c-.31,35.18,2.91,50.78-7,101.23-9.44,48.12-15.14,101.55-15.08,105s-.05,16.25-34.88,17.51-70.35-2.54-70.35-2.54-11.13-26.68-27.15-23.91-38.42,4.72-26.77,13.14,26.17,14.71-5.81,13.85-54,2-50.51,5-12.11,3.45-10.72,7.18,1.54,10.71,5,13.36,8.33,9.32,15.42,12,40.74,14.61,57.76,17.84c6.84,1.3,21.39-7.91,19.55.18s32.82,10.79,66,13.72c38.32,3.4,47.18,9,61,10.25s56.58-4.32,61.52-6.12c36-13.14,28.8-39.14,36.74-53.79s17.14-226,18.15-220-78.7-57.37-77-52.7S1636.05,6.69,1635.73,41.88Z"/><path class="cls-9" d="M1607.76,101.32c.15,33.8-13.92,77.66-16.55,80.7-3.81,4.4-91.83-16.84-111.62-9.69s-32.27,1.4-30.55,7.62c2,7.38-13.88-10.93-27.37-14.19-8.08-1.95-7.22,1.16-20.92,9.13s-18.21,25.92-2.77,14.17c6.91-5.26,20.65-4,3.84,4.8-10.88,5.72-13.7,8-27.1,20.06s-10.3,11.22-19.16,24.56,12.54,24.16,25.72,26.37,26.31-4.77,41.13-14.73,8.6-8.24,34.35-12,103.38,15,162.22,11.17c26.38-1.71,57.3-50.33,67-69.36,3.81-7.45,5.58-40.28,4.23-77.14C1662.76,102.05,1635.26,101.39,1607.76,101.32Z"/><path class="cls-9" d="M1685.54,887.27a35.41,35.41,0,0,1-7.87,20.55c-11.74,14.51-18.21,14.95-41.81,24.78-28,11.68-36.74,14.36-63.44,15.32-25.43.9-29.46,1.69-34.51-13.62-4.81-14.59,26.8-33.56,53.58-49.95,20-12.22,38.44-20.2,25.42-65.37s-7.45-26.29-17.25-69.92S1586.05,616,1585.14,621.68s-7.27,136.46-.92,163.7c6.19,26.52,18.21,60.11-18.16,80.81s-28.27,15.73-62.65,20.89c-18.16,2.72-13.58,3.82-43.59,4.54s-45.35-11.25-24.51-27.24,26.06-21.33,52.66-31.78c25.43-10,23.61-6.36,24.7-21.68,2.19-30.91,3.45-30.08-2-68.22s-14.06-103.88-15.43-119c-2.29-25.11-27.84-89-20.89-103.51,10.9-22.7,33.09-73.43,57.21-107.15,13.88-19.41,26.52-37.71,34.75-49.74a35.24,35.24,0,0,0,4.39-30.93c-4-12.28-9.87-29.3-15.54-43.73-20-50.85-48.59-194.8-52.66-214.29-2.44-11.7-3.48-32.25-3.91-46.81a35.19,35.19,0,0,1,12-27.55l2.63-2.31A35.3,35.3,0,0,1,1536.36-11l183.18-.61A35.29,35.29,0,0,1,1752,9.57c8.12,18.56,19,52.16,28.81,111.31,18.62,112.42,29.42,133.23,18.12,156s4.91,82.37-9.49,105.37c-12.57,20.08-39.88,70.18-46.6,82.56a34.81,34.81,0,0,1-3.51,5.25c-11.38,14.16-67.89,84.86-68.84,94.7-1,10.95-9.08,35.41-5.44,48.13s8.49,83.81,9.08,91.71,10.89,91.71,13.62,117.13C1688.34,827.34,1686.5,867.63,1685.54,887.27Z"/><path class="cls-1" d="M1450.78,204.29c-4.47-17.29-24.42-50.22-25-50.18-62.26,4.44-60.7.19-60,24.74.79,27.92-30.38,63.66,81.56,65.69C1448.79,244.56,1453.86,216.21,1450.78,204.29Z"/><path class="cls-3" d="M1477.36,207.33c-.49-25.33.67-20.68-46.45-21.13-11.87-.11-26.27-12.92-45.17-12.14-16.47.68-37,22.88-35.37,27.64,6.16,17.31,10.82,36.53,11.9,56.1.37,6.74,15.53,11.13,25.27,10.73,14.64-.61,27.84,10.13,38.31,8.92C1498.5,269.05,1477.89,235.06,1477.36,207.33Z"/><path class="cls-1" d="M1346.81,235.08c-.69-24.55-1.55-20.32,34.81-24,10.63-1.09,24.3-14.69,42.25-15.2,16.23-.45,28.76,12.6,39,12.91,40.5,1.26,39.45-3.41,40.16,21.92.78,27.73,18.89,62.07-43.45,69.21-9,1-20.45-9.93-33-9.57-12.26.34-22.33,11.83-31.24,11.38C1329.79,298.36,1347.6,263,1346.81,235.08Z"/><path class="cls-3" d="M1507.45,291.23c14.23,20-29.37,33.35-44,48-12.89,12.91-2,79.2-27,97-22.65,16.11-43.43,10.39-58,20-57.79,38.15-125.54-31.4-41.5-97.77,12.12-9.56,39,5.25,56.5-7.23,17.11-12.16,39.19-80.76,52-89C1539.6,201.65,1491.27,268.47,1507.45,291.23Z"/><path class="cls-3" d="M950,1085.56c57.6,64.84,17.53,152.91-66.92,53.59C819.7,1064.65,687.84,952.22,702,916.54c2-5.14,63.21,6.74,68.67,5.55C810.77,913.33,884.45,1011.8,950,1085.56Z"/><path class="cls-3" d="M826.24,390.67c73.79-84.78,183.49-64.47,70.16,61.07-85,94.16-180.31,222.7-224.58,216.87-6.38-.84-27-19.22-28.87-25.13C629.14,600.07,742.31,487.11,826.24,390.67Z"/><path class="cls-3" d="M428.11,1200.6c-14.74,64.13-86.83,81.62-62.59-14.39,18.19-72,29.67-202.06,58-210.38,4.07-1.2,23.65,40.34,26.79,43C473.34,1038.36,444.89,1127.64,428.11,1200.6Z"/><path class="cls-1" d="M893,1193.21c-15.66,21.19-11,18.9-87.49-28.65-22.37-13.89-45.08-24.76-81.94-49.33-33.34-22.22-64.28-47.36-84.83-61.83-81.5-57.4-82.61-52.1-66.45-74C590,955.51,577.05,902,708.81,982.9c19,11.66,34.69,36.65,60.52,53.86,25.18,16.79,53.65,21.34,71.45,34.11C971.66,1164.77,910.86,1169.12,893,1193.21Z"/><path class="cls-1" d="M822.38,868.85c7.46-20.53-35.14-33.53,52.88-4.07,25.73,8.61,63.35,9.78,106.31,25.4,38.86,14.14,63.86,35.91,88.07,45.28,96,37.19,95.28,32.47,87.57,53.65-8.43,23.19,22,67.22-129.22,17.34-21.78-7.19-45-26.32-75.15-37.27-29.35-10.67-57.61-10.35-78.67-18.67C719.35,889.31,813.89,892.2,822.38,868.85Z"/><path class="cls-3" d="M1118.73,882.59c-2.18,19.84.19,16.66-74.12,10.71-21.72-1.74-52.38-4.44-88.87-8.44-33-3.62-55.57-6.91-76.23-9.66-82-11-80.54-7-78.29-27.43,2.46-22.41-6.43-62.3,26.29-55.4,17.83,3.76,97.35,19.15,122.92,22,24.93,2.74,144.11,5.74,161.47,9.88C1157,834.93,1121.2,860,1118.73,882.59Z"/><path class="cls-3" d="M220.7,310.4c15.62-13.49,11.54-12.8,65.43,46.17,15.75,17.23,37.82,41.76,63.53,71.54,23.25,26.94,38.56,46,52.78,63.2,56.38,68.4,58.05,64.3,41.93,78.21-17.64,15.23-38.68,52.05-59.41,22.83-11.3-15.92-62.63-85.89-80.64-106.75-17.57-20.35-108.58-110-119.25-125.83C157.4,318.6,202.93,325.73,220.7,310.4Z"/><path class="cls-3" d="M1749.25,978.3c0,54.55-1,63.67,61.17,63.67,63.17,0,61.16-9.12,61.16-63.67s17.05-98.76-61.16-98.76C1730.2,879.54,1749.25,923.76,1749.25,978.3Z"/><ellipse class="cls-2" cx="1811.42" cy="897.59" rx="34.59" ry="9.53"/><path class="cls-3" d="M1402.93,975.65c0,24.63,29.87,46,118.16,48.74,25.8.78,59.82,14,103.32,14,39.34,0,68.77-13.43,93.47-14,98-2.4,95.75,2.3,95.75-23.11,0-27.81,41.51-62.74-109.91-68.14-21.82-.78-48.84,10.53-79.31,10.53-29.72,0-97,5.44-118.56,6.15C1347.52,955,1402.93,947.65,1402.93,975.65Z"/><path class="cls-10" d="M1128.42,558.74,1095,788.07c.8,4.76-4.48,9.66-11.73,10.87l-266-2.9c-7.25,1.21-13.83-1.7-14.62-6.47l-2.36-77.72L708,742l90.87-103.32-.57-30.1c-.8-4.77,4.48-9.66,11.73-10.87l303.76-45.44C1121,551.06,1127.62,554,1128.42,558.74Z"/><path d="M1083.32,799.94h-.09L817.31,797A18.42,18.42,0,0,1,807.09,796c-3.08-1.37-5-3.58-5.47-6.23v-.13l-2.32-76.39-94.46,30.88,93-105.78-.56-29.64c-.41-2.63.71-5.32,3.17-7.59a18.35,18.35,0,0,1,9.39-4.36l303.78-45.43c7.79-1.3,14.87,2,15.76,7.29l0,.15,0,.16L1096,788.06c.37,2.6-.75,5.26-3.18,7.51a18.26,18.26,0,0,1-9.4,4.35ZM817.16,795h.08l265.92,2.9a16.27,16.27,0,0,0,8.28-3.84c2-1.82,2.87-3.91,2.54-5.87l0-.15,0-.16,33.42-229.16c-.81-4.08-6.91-6.59-13.45-5.5L810.18,598.7a16.35,16.35,0,0,0-8.35,3.84c-2,1.83-2.87,3.91-2.55,5.88l0,.14.57,30.49-88.7,100.86,90-29.43,2.39,79c.35,1.93,1.88,3.59,4.3,4.66a16.36,16.36,0,0,0,9.17.92Z"/><path class="cls-1" d="M389.33,722.14c73.61,37.82-20.39,32.93-24.79,41.49-4,7.75-220-78.73-252.7-102.78-45.12-33.21-27.76-113.14-23.47-116.3C119.89,521.35,305.61,679.12,389.33,722.14Z"/><path class="cls-3" d="M137.46,621.41c-18.64,51.26-20.81,60.18-79.24,38.93C-1.14,638.76,3.86,630.87,22.5,579.6S40.23,481,113.74,507.69C189.12,535.1,156.11,570.15,137.46,621.41Z"/><ellipse class="cls-2" cx="106.62" cy="524.31" rx="9.53" ry="34.59" transform="matrix(0.34, -0.94, 0.94, 0.34, -422.55, 445.33)"/><path d="M878.29,683.88a3.42,3.42,0,0,0,1,2.74v.21a4.55,4.55,0,0,0,.39,1.55,6.32,6.32,0,0,1,.38,2.25,2,2,0,0,0,.57,1.69,3.36,3.36,0,0,1-.36.42.61.61,0,0,0-.21.42.23.23,0,0,0,.18.25c.11,0,.17.1.17.24l-.07.14a2.49,2.49,0,0,1-.07,1.06,3.58,3.58,0,0,0-.14.95,2.52,2.52,0,0,0,.07.66l-.56,1.2a2.8,2.8,0,0,1,.07.7,1.77,1.77,0,0,1-1.26,1.76,4.72,4.72,0,0,1,.07.92,5,5,0,0,1-.18,1.3,8.72,8.72,0,0,0-.25,1.37,1.17,1.17,0,0,0-.77,1.19,2.06,2.06,0,0,0-1,.74,7.09,7.09,0,0,1-.74.88,2.56,2.56,0,0,1-.56.46,1.45,1.45,0,0,0-.42.35,1.94,1.94,0,0,0-.35.6,2.65,2.65,0,0,1-.64,1c-.28.19-.42.36-.42.53a1.58,1.58,0,0,1-.42.77,3.9,3.9,0,0,1-1.44,1,4.91,4.91,0,0,0-1.72,1.23h-.21l-.78.28a2.44,2.44,0,0,0-.42.63c-.24.33-.77.42-1.62.28-.28.14-.59.32-.95.53a2.13,2.13,0,0,1-1.12.31c-.4,0-.6.09-.6.25s-.15.25-.46.25a1.16,1.16,0,0,0-.66.14h-.07l-1-.28a3.61,3.61,0,0,1-1.26.28l-1.76-.42a.92.92,0,0,0-.42.14,1.14,1.14,0,0,0-.71-.43,1.52,1.52,0,0,1-.7-.28,1.68,1.68,0,0,0-.56.43h-.14l-1.34.07c-.52,0-.82-.17-.91-.5a2.06,2.06,0,0,1-1.73-.52,2.71,2.71,0,0,1-1.16-1.38h-.21l-.84-.28c-.14-.18-.28-.36-.42-.52a1.28,1.28,0,0,1-.28-.6,1.77,1.77,0,0,1-.92-.53,1.34,1.34,0,0,0-1.05-.39,1.21,1.21,0,0,0-.46-.63l-.6-.42a5.88,5.88,0,0,0-1.69-2.6q-1.34-3.59-1.72-4.43a4.17,4.17,0,0,1-.38-1l.21-.7-.14-.35c0-.09,0-.14.07-.14s.07,0,.07-.14l-.28-1.62.14-1-.36-.78.5-2v-.84a1.55,1.55,0,0,1,.14-.67,6.39,6.39,0,0,0,.28-.91,6.82,6.82,0,0,0,.14-1.48,6,6,0,0,1,.21-1.62,1.92,1.92,0,0,1,.53-1c.21-.16.27-.53.17-1.09a7,7,0,0,0,1.16-2.14,9,9,0,0,0,.32-1.16.87.87,0,0,1,.21-.64.57.57,0,0,0,.32-.56.47.47,0,0,1,.17-.49,1.85,1.85,0,0,0,.42-.42,3.44,3.44,0,0,0,.43-.78,5.2,5.2,0,0,1,.56-1l.28-.14c.14-.42,1-1.2,2.6-2.32a.85.85,0,0,0,.25-.42.67.67,0,0,1,.17-.36,6.46,6.46,0,0,0,1.13-.49l.14-.28,1.12-.56.07-.28a.6.6,0,0,1,.36,0,2.33,2.33,0,0,0,.95-.28,14.17,14.17,0,0,0,1.72-.91,3.57,3.57,0,0,1,1.86-.6c.59,0,.94-.07,1.06-.21a1,1,0,0,1,.56-.32,2.12,2.12,0,0,1,.88,0,.89.89,0,0,0,.84-.36h.07a.64.64,0,0,1,.56.43,3.57,3.57,0,0,1,1.55-.43c.47,0,.7,0,.7.11s0,.13.14.18a.37.37,0,0,0,.29,0,.91.91,0,0,1,.42-.07c.18,0,.45.17.81.52a2,2,0,0,0,1.44.53l1.33-.07a2.46,2.46,0,0,1,1.34.32,2.49,2.49,0,0,0,1.12.38.26.26,0,0,1,.15.25.43.43,0,0,0,.14.32H872a2.13,2.13,0,0,1,.45.45,1.44,1.44,0,0,0,.39.39l.7.42a3.17,3.17,0,0,1,.5.46,2.46,2.46,0,0,0,.56.46,1.33,1.33,0,0,1,.39.42,3.31,3.31,0,0,0,.38.52,1.87,1.87,0,0,0,.42.39,1.16,1.16,0,0,1,.36.46,1.53,1.53,0,0,1,.14.6,1.37,1.37,0,0,0,.14.59c.09.21.16.3.21.25s.07.06.07.32a2.46,2.46,0,0,0,.17.84,8.42,8.42,0,0,0,.46,1c.19.36.35.7.49,1s.28.52.42.57Zm-30.37,7-.35,3.59a2.6,2.6,0,0,0,.1.8,5.41,5.41,0,0,1,.18,1,11.83,11.83,0,0,1,0,1.62A13.74,13.74,0,0,0,848,700a6.13,6.13,0,0,0,.84,2.39,6.5,6.5,0,0,1,.85,2.67c.37.52.74,1.06,1.09,1.62s.71,1.1,1.09,1.62a5.59,5.59,0,0,0,3.09,2.39,3,3,0,0,0,2.88,1.4c.43,0,.66,0,.71.14h1.05l3.31.36a1.91,1.91,0,0,0,.81-.18,1.12,1.12,0,0,1,.73-.1,1.86,1.86,0,0,1,1.06-.53,5.64,5.64,0,0,0,1.19-.25c.1,0,.13-.15.11-.31a.25.25,0,0,1,.17-.32,2.13,2.13,0,0,1,.64-.07,1.68,1.68,0,0,1,1.12-1.06,4.23,4.23,0,0,0,1.51-.87l1.3-1.17a5.53,5.53,0,0,0,1.17-1.51,6.74,6.74,0,0,1,.87-1.3l.78-.7a.53.53,0,0,0,.14-.39c0-.16.15-.31.46-.45a1.4,1.4,0,0,0,.56-.39.44.44,0,0,0,.07-.32c0-.09,0-.18.1-.28.28-.09.41-.25.39-.46a5,5,0,0,1,0-.7.82.82,0,0,1,.25-.63.53.53,0,0,0,0-.67,1.33,1.33,0,0,0,.56-.95,4.28,4.28,0,0,1,.24-1.05,2,2,0,0,1,.43-.71,1.71,1.71,0,0,0,.38-.59,1.54,1.54,0,0,1-.14-.85v-.7a3.52,3.52,0,0,0,.64-1.86,3.45,3.45,0,0,0-.36-1.59,5.65,5.65,0,0,1-.42-2.35q0-1.44-.42-1.8c-.28-.23-.42-.42-.42-.56v-.49l-.28-1.55a1.08,1.08,0,0,0-.32-.7,1.86,1.86,0,0,1-.42-.7,1.56,1.56,0,0,1,0-.71,1.71,1.71,0,0,0-.14-.91,1.55,1.55,0,0,0-.52-.77c-.22-.14-.32-.54-.32-1.2a1.33,1.33,0,0,1-.91-1.12,1.73,1.73,0,0,1-1.13-.88,1.75,1.75,0,0,0-.67-.81c-.21-.09-.33-.13-.35-.11s-.08,0-.18,0h-.07l-.14-.35a1.48,1.48,0,0,0-.84-.28l-1.2.28a1.77,1.77,0,0,1-1.19-.5,1.72,1.72,0,0,0-1.06-.49,1.64,1.64,0,0,0-.84.21,1,1,0,0,1-.28-.45.66.66,0,0,0-.28-.39,1.84,1.84,0,0,1-.85-.28,3.54,3.54,0,0,0-.77-.42l-.28.07-1.41-.28a.49.49,0,0,0-.31.17.61.61,0,0,1-.53.14,1.81,1.81,0,0,0-.63,0,2,2,0,0,0-.49.17,2.91,2.91,0,0,1-.5.18,1.63,1.63,0,0,1-.7,0,1.29,1.29,0,0,0-.74.07,1.24,1.24,0,0,0-.49.35.42.42,0,0,1-.53.07,1.06,1.06,0,0,0-.6.46c-.11.21-.66.31-1.65.31a5.63,5.63,0,0,1-2.88,2.39,1.54,1.54,0,0,1-.56.88,4.93,4.93,0,0,0-.78.74,8.55,8.55,0,0,0-1.05,2,7,7,0,0,0-.63,2.18l.14.56a1.69,1.69,0,0,1-.28.92,4,4,0,0,0-.43.81,1.55,1.55,0,0,0-.07.77,1.67,1.67,0,0,1,0,.77,4.38,4.38,0,0,1-.32.81A2.86,2.86,0,0,0,847.92,690.84Z"/><path d="M906.21,689.29c.33,0,.49.14.49.42,0,.1.11.26.32.5a1.71,1.71,0,0,0,.56.45c.16.07.25.42.25,1v.21l.28.29a6.57,6.57,0,0,1,.35,1.58,5.15,5.15,0,0,0,.42,1.65,2.36,2.36,0,0,0-.35.67,2.43,2.43,0,0,0-.21.74.28.28,0,0,0,.21.28c.14,0,.21.22.21.52a2,2,0,0,1-.32,1,2.1,2.1,0,0,0-.31,1.09l.07.63a2.12,2.12,0,0,1-.39,1.16,1.57,1.57,0,0,1-.95.74c-.09.1-.13.18-.1.25a1.19,1.19,0,0,1,0,.31.27.27,0,0,1-.21.28v.07q0,.15-.39.36a2.83,2.83,0,0,0-.7.56,5.68,5.68,0,0,1-.67.63V705a.7.7,0,0,1-.24.6.8.8,0,0,0-.32.53,8.43,8.43,0,0,0-2.11,1.4H901a1.09,1.09,0,0,0-.64.29,3.59,3.59,0,0,1-.66.42,2.43,2.43,0,0,1-.78.17,7.6,7.6,0,0,0-.81.11l-.14-.14c0,.09-.07.14-.21.14l-1-.28-1.83.14-1.83-.42a1.8,1.8,0,0,0-.35-.5,1.54,1.54,0,0,1-.35-.56l-1.2-.35a1.19,1.19,0,0,1-.24-.39.37.37,0,0,0-.36-.24,1.33,1.33,0,0,0-.45.07.39.39,0,0,1-.14-.42c0-.15,0-.22-.28-.22s-.36-.09-.36-.28-.11-.25-.35-.21a1.35,1.35,0,0,0-.21-.49,2.93,2.93,0,0,1-.63-1.55.7.7,0,0,0-.35-.35.73.73,0,0,1-.35-.21,12.69,12.69,0,0,1-1.41-4.71,11.06,11.06,0,0,1,.18-2.36,8.8,8.8,0,0,1,.42-1.37,10.19,10.19,0,0,1,.59-1.26,7.88,7.88,0,0,0,.64-1.55,1.18,1.18,0,0,0,.74-.77,1.16,1.16,0,0,1,.42-.71.9.9,0,0,1,.35-.14.29.29,0,0,0,.21-.1.21.21,0,0,0,.07-.21.36.36,0,0,1,.07-.28,3.76,3.76,0,0,1,.63-.64l.71-.59a.73.73,0,0,1,.42-.18,1.58,1.58,0,0,0,.53-.18l.66-.35a4.6,4.6,0,0,1,1.13-.38,10.71,10.71,0,0,1,1.72-.25,4.24,4.24,0,0,0,1.9-.63,8.71,8.71,0,0,0,1.76.52c.61.12,1.19.25,1.76.39a1.09,1.09,0,0,0,.21.53,1.33,1.33,0,0,1,.21.53l2.39-.36q.34,0,1.26.81c.61.54.87.93.78,1.16A.45.45,0,0,0,906.21,689.29Zm-6.4,16a2.22,2.22,0,0,1,1.48-.49.72.72,0,0,1,.45-.45,2.74,2.74,0,0,0,.78-.5,3.6,3.6,0,0,0,.81-1,2.36,2.36,0,0,1,1-1,2.15,2.15,0,0,1,.49-.95c.24-.26.46-.52.67-.77a2.13,2.13,0,0,0,.42-1c.07-.4.15-.92.25-1.58a14.5,14.5,0,0,0,.14-2,2.1,2.1,0,0,0-.32-1.34,1.44,1.44,0,0,1-.38-.77,2.35,2.35,0,0,1,0-.67,4.69,4.69,0,0,0,0-.59V692a5.35,5.35,0,0,0-.81-.66,4.63,4.63,0,0,1-.74-.6,9.05,9.05,0,0,1-3-.63,11.63,11.63,0,0,0-2.92-.78,2.72,2.72,0,0,0-1.4-.49,5.19,5.19,0,0,0-.85,0,1.46,1.46,0,0,0-.35.1,2.2,2.2,0,0,0-.28.18,2,2,0,0,1-.39.21.92.92,0,0,1-.49.07,1.28,1.28,0,0,0-.56.07,2.5,2.5,0,0,0-.7.39,4.4,4.4,0,0,1-.74.42,1.89,1.89,0,0,1-.46.81,3.46,3.46,0,0,0-.63,1.33,6,6,0,0,0-.32,1.69,23.23,23.23,0,0,0,.49,3.13l-.14.14a8.09,8.09,0,0,0,.32,1.09c.11.3.21.57.28.81a1.22,1.22,0,0,1,.07.52,2.38,2.38,0,0,0,0,.39l.28,1.13v.07l.28.28V702a.74.74,0,0,0,.21.39,1.22,1.22,0,0,1,.21.8,3.94,3.94,0,0,1,.84.81,3.45,3.45,0,0,0,.88.81,3.4,3.4,0,0,0,1.37.39,5.48,5.48,0,0,1,1.69.46A8.61,8.61,0,0,1,899.81,705.32Z"/><path d="M935.74,689.29c.33,0,.49.14.49.42,0,.1.11.26.32.5a1.82,1.82,0,0,0,.56.45c.17.07.25.42.25,1v.21l.28.29a6.57,6.57,0,0,1,.35,1.58,5.73,5.73,0,0,0,.42,1.65,2.36,2.36,0,0,0-.35.67,2.43,2.43,0,0,0-.21.74.28.28,0,0,0,.21.28c.14,0,.21.22.21.52a1.93,1.93,0,0,1-.31,1,2,2,0,0,0-.32,1.09l.07.63a2.12,2.12,0,0,1-.39,1.16,1.57,1.57,0,0,1-1,.74c-.09.1-.13.18-.1.25a1.19,1.19,0,0,1,0,.31.27.27,0,0,1-.21.28v.07c0,.1-.13.22-.38.36a2.7,2.7,0,0,0-.71.56,5.68,5.68,0,0,1-.67.63V705a.7.7,0,0,1-.24.6.8.8,0,0,0-.32.53,8.43,8.43,0,0,0-2.11,1.4h-1.12a1.09,1.09,0,0,0-.64.29,3.59,3.59,0,0,1-.66.42,2.37,2.37,0,0,1-.78.17,8,8,0,0,0-.81.11l-.14-.14c0,.09-.07.14-.21.14l-1-.28-1.83.14-1.83-.42a1.8,1.8,0,0,0-.35-.5,1.54,1.54,0,0,1-.35-.56l-1.2-.35a1.19,1.19,0,0,1-.24-.39.36.36,0,0,0-.35-.24,1.35,1.35,0,0,0-.46.07.39.39,0,0,1-.14-.42c0-.15-.05-.22-.28-.22s-.35-.09-.35-.28-.12-.25-.36-.21a1.35,1.35,0,0,0-.21-.49,2.93,2.93,0,0,1-.63-1.55.7.7,0,0,0-.35-.35.73.73,0,0,1-.35-.21,12.69,12.69,0,0,1-1.41-4.71,11.06,11.06,0,0,1,.18-2.36,8.8,8.8,0,0,1,.42-1.37,9,9,0,0,1,.6-1.26,8.57,8.57,0,0,0,.63-1.55,1.18,1.18,0,0,0,.74-.77,1.16,1.16,0,0,1,.42-.71.9.9,0,0,1,.35-.14.29.29,0,0,0,.21-.1c.07-.07.1-.14.07-.21a.36.36,0,0,1,.07-.28,3.57,3.57,0,0,1,.64-.64c.35-.3.58-.5.7-.59a.73.73,0,0,1,.42-.18,1.58,1.58,0,0,0,.53-.18l.67-.35a4.36,4.36,0,0,1,1.12-.38,10.71,10.71,0,0,1,1.72-.25,4.24,4.24,0,0,0,1.9-.63,8.71,8.71,0,0,0,1.76.52c.61.12,1.19.25,1.76.39a1.09,1.09,0,0,0,.21.53,1.33,1.33,0,0,1,.21.53l2.39-.36c.23,0,.66.27,1.27.81s.86.93.77,1.16A.45.45,0,0,0,935.74,689.29Zm-6.4,16a2.22,2.22,0,0,1,1.48-.49.71.71,0,0,1,.46-.45,2.87,2.87,0,0,0,.77-.5,3.6,3.6,0,0,0,.81-1,2.36,2.36,0,0,1,1-1,2.26,2.26,0,0,1,.49-.95c.24-.26.46-.52.67-.77a2.13,2.13,0,0,0,.42-1c.07-.4.15-.92.25-1.58a14.5,14.5,0,0,0,.14-2,2,2,0,0,0-.32-1.34,1.44,1.44,0,0,1-.38-.77,2.35,2.35,0,0,1,0-.67,3.34,3.34,0,0,0,0-.59V692a4.9,4.9,0,0,0-.81-.66,4.63,4.63,0,0,1-.74-.6,9.05,9.05,0,0,1-3-.63,11.63,11.63,0,0,0-2.92-.78,2.72,2.72,0,0,0-1.4-.49,5.27,5.27,0,0,0-.85,0,1.46,1.46,0,0,0-.35.1l-.28.18a1.71,1.71,0,0,1-.39.21.92.92,0,0,1-.49.07,1.28,1.28,0,0,0-.56.07,2.5,2.5,0,0,0-.7.39,4.4,4.4,0,0,1-.74.42,1.89,1.89,0,0,1-.46.81,3.46,3.46,0,0,0-.63,1.33,6,6,0,0,0-.32,1.69,23.23,23.23,0,0,0,.49,3.13l-.14.14a8.09,8.09,0,0,0,.32,1.09c.12.3.21.57.28.81a1.08,1.08,0,0,1,.07.52,2.38,2.38,0,0,0,0,.39l.28,1.13v.07l.28.28V702a.74.74,0,0,0,.21.39,1.22,1.22,0,0,1,.21.8,3.94,3.94,0,0,1,.84.81,3.62,3.62,0,0,0,.88.81,3.45,3.45,0,0,0,1.37.39,5.48,5.48,0,0,1,1.69.46A8.61,8.61,0,0,1,929.34,705.32Z"/><path d="M965.27,689.29c.33,0,.49.14.49.42,0,.1.11.26.32.5a1.82,1.82,0,0,0,.56.45c.17.07.25.42.25,1v.21l.28.29a6.12,6.12,0,0,1,.35,1.58,5.73,5.73,0,0,0,.42,1.65,2.36,2.36,0,0,0-.35.67,2.43,2.43,0,0,0-.21.74.28.28,0,0,0,.21.28c.14,0,.21.22.21.52a1.93,1.93,0,0,1-.31,1,2.11,2.11,0,0,0-.32,1.09l.07.63a2.12,2.12,0,0,1-.39,1.16,1.55,1.55,0,0,1-1,.74c-.09.1-.13.18-.1.25a1.19,1.19,0,0,1,0,.31.27.27,0,0,1-.21.28v.07c0,.1-.13.22-.38.36a2.7,2.7,0,0,0-.71.56,6.5,6.5,0,0,1-.66.63V705a.71.71,0,0,1-.25.6.8.8,0,0,0-.32.53,8.43,8.43,0,0,0-2.11,1.4h-1.12a1,1,0,0,0-.63.29,4,4,0,0,1-.67.42,2.37,2.37,0,0,1-.78.17,7.38,7.38,0,0,0-.8.11l-.15-.14c0,.09-.07.14-.21.14l-1-.28-1.83.14-1.83-.42a1.8,1.8,0,0,0-.35-.5,1.54,1.54,0,0,1-.35-.56l-1.2-.35a1.19,1.19,0,0,1-.24-.39.36.36,0,0,0-.35-.24,1.35,1.35,0,0,0-.46.07.39.39,0,0,1-.14-.42c0-.15-.05-.22-.28-.22s-.35-.09-.35-.28-.12-.25-.35-.21a1.56,1.56,0,0,0-.22-.49,2.93,2.93,0,0,1-.63-1.55.66.66,0,0,0-.35-.35.73.73,0,0,1-.35-.21,12.69,12.69,0,0,1-1.41-4.71,11.06,11.06,0,0,1,.18-2.36,8.8,8.8,0,0,1,.42-1.37,9,9,0,0,1,.6-1.26A8.57,8.57,0,0,0,947,691a1.16,1.16,0,0,0,.74-.77,1.16,1.16,0,0,1,.42-.71.9.9,0,0,1,.35-.14.29.29,0,0,0,.21-.1c.07-.07.1-.14.07-.21a.36.36,0,0,1,.07-.28,3.57,3.57,0,0,1,.64-.64c.35-.3.58-.5.7-.59a.76.76,0,0,1,.42-.18,1.51,1.51,0,0,0,.53-.18l.67-.35a4.36,4.36,0,0,1,1.12-.38,10.88,10.88,0,0,1,1.72-.25,4.24,4.24,0,0,0,1.9-.63,8.9,8.9,0,0,0,1.76.52c.61.12,1.2.25,1.76.39a1.09,1.09,0,0,0,.21.53,1.33,1.33,0,0,1,.21.53l2.39-.36c.24,0,.66.27,1.27.81s.86.93.77,1.16A.45.45,0,0,0,965.27,689.29Zm-6.4,16a2.22,2.22,0,0,1,1.48-.49.73.73,0,0,1,.46-.45,2.87,2.87,0,0,0,.77-.5,3.6,3.6,0,0,0,.81-1,2.36,2.36,0,0,1,1-1,2.17,2.17,0,0,1,.5-.95l.66-.77a2.25,2.25,0,0,0,.43-1c.07-.4.15-.92.24-1.58a14.5,14.5,0,0,0,.14-2,2.1,2.1,0,0,0-.31-1.34,1.39,1.39,0,0,1-.39-.77,2.35,2.35,0,0,1,0-.67,3.34,3.34,0,0,0,0-.59V692a4.52,4.52,0,0,0-.81-.66,5.12,5.12,0,0,1-.74-.6,9.05,9.05,0,0,1-3-.63,11.67,11.67,0,0,0-2.91-.78,2.78,2.78,0,0,0-1.41-.49,5.12,5.12,0,0,0-.84,0,1.42,1.42,0,0,0-.36.1l-.28.18a1.84,1.84,0,0,1-.38.21,1,1,0,0,1-.5.07,1.28,1.28,0,0,0-.56.07,2.5,2.5,0,0,0-.7.39,4.4,4.4,0,0,1-.74.42,1.89,1.89,0,0,1-.46.81,3.46,3.46,0,0,0-.63,1.33,6,6,0,0,0-.32,1.69,22.23,22.23,0,0,0,.5,3.13l-.14.14a6.92,6.92,0,0,0,.31,1.09c.12.3.21.57.28.81a1.08,1.08,0,0,1,.07.52,2.38,2.38,0,0,0,0,.39l.28,1.13v.07l.28.28V702a.74.74,0,0,0,.21.39,1.22,1.22,0,0,1,.21.8,4.22,4.22,0,0,1,.85.81,3.3,3.3,0,0,0,.88.81,3.35,3.35,0,0,0,1.37.39,5.42,5.42,0,0,1,1.68.46A8.61,8.61,0,0,1,958.87,705.32Z"/><path d="M994.8,689.29c.33,0,.49.14.49.42,0,.1.11.26.32.5a1.82,1.82,0,0,0,.56.45c.17.07.25.42.25,1v.21l.28.29a5.74,5.74,0,0,1,.35,1.58,5.73,5.73,0,0,0,.42,1.65,2.36,2.36,0,0,0-.35.67,2.43,2.43,0,0,0-.21.74.28.28,0,0,0,.21.28c.14,0,.21.22.21.52a1.93,1.93,0,0,1-.31,1,2.11,2.11,0,0,0-.32,1.09l.07.63a2.12,2.12,0,0,1-.39,1.16,1.56,1.56,0,0,1-.94.74c-.1.1-.14.18-.11.25a1.11,1.11,0,0,1,0,.31.28.28,0,0,1-.22.28v.07c0,.1-.13.22-.38.36a2.87,2.87,0,0,0-.71.56,6.5,6.5,0,0,1-.66.63V705a.71.71,0,0,1-.25.6.8.8,0,0,0-.32.53,8.43,8.43,0,0,0-2.11,1.4H989.6a1,1,0,0,0-.63.29,4,4,0,0,1-.67.42,2.37,2.37,0,0,1-.77.17,7.25,7.25,0,0,0-.81.11l-.14-.14c0,.09-.07.14-.21.14l-1-.28-1.83.14-1.83-.42a1.8,1.8,0,0,0-.35-.5,1.68,1.68,0,0,1-.35-.56l-1.19-.35a1.05,1.05,0,0,1-.25-.39.36.36,0,0,0-.35-.24,1.35,1.35,0,0,0-.46.07.39.39,0,0,1-.14-.42c0-.15,0-.22-.28-.22s-.35-.09-.35-.28-.12-.25-.35-.21a1.81,1.81,0,0,0-.21-.49,2.88,2.88,0,0,1-.64-1.55.66.66,0,0,0-.35-.35.73.73,0,0,1-.35-.21,12.69,12.69,0,0,1-1.41-4.71,11.06,11.06,0,0,1,.18-2.36,8.8,8.8,0,0,1,.42-1.37,10.28,10.28,0,0,1,.6-1.26,8.57,8.57,0,0,0,.63-1.55,1.16,1.16,0,0,0,.74-.77,1.27,1.27,0,0,1,.42-.71,1,1,0,0,1,.35-.14.29.29,0,0,0,.21-.1c.07-.07.1-.14.07-.21a.36.36,0,0,1,.07-.28,4.49,4.49,0,0,1,.64-.64c.35-.3.58-.5.7-.59a.8.8,0,0,1,.42-.18,1.51,1.51,0,0,0,.53-.18l.67-.35a4.36,4.36,0,0,1,1.12-.38,11,11,0,0,1,1.73-.25,4.24,4.24,0,0,0,1.89-.63,8.9,8.9,0,0,0,1.76.52c.61.12,1.2.25,1.76.39a1.09,1.09,0,0,0,.21.53,1.33,1.33,0,0,1,.21.53l2.39-.36c.24,0,.66.27,1.27.81s.86.93.77,1.16A.45.45,0,0,0,994.8,689.29Zm-6.4,16a2.22,2.22,0,0,1,1.48-.49.73.73,0,0,1,.46-.45,2.87,2.87,0,0,0,.77-.5,3.44,3.44,0,0,0,.81-1,2.36,2.36,0,0,1,1-1,2.17,2.17,0,0,1,.5-.95l.66-.77a2,2,0,0,0,.43-1c.07-.4.15-.92.24-1.58a13.05,13.05,0,0,0,.14-2,2.1,2.1,0,0,0-.31-1.34,1.46,1.46,0,0,1-.39-.77,2.35,2.35,0,0,1,0-.67,3.34,3.34,0,0,0,0-.59V692a4.52,4.52,0,0,0-.81-.66,5.12,5.12,0,0,1-.74-.6,9.05,9.05,0,0,1-3-.63,11.56,11.56,0,0,0-2.91-.78,2.78,2.78,0,0,0-1.41-.49,5.12,5.12,0,0,0-.84,0,1.34,1.34,0,0,0-.35.1,2.29,2.29,0,0,0-.29.18,1.84,1.84,0,0,1-.38.21,1,1,0,0,1-.49.07,1.31,1.31,0,0,0-.57.07,2.65,2.65,0,0,0-.7.39,4,4,0,0,1-.74.42,1.71,1.71,0,0,1-.46.81,3.46,3.46,0,0,0-.63,1.33,6,6,0,0,0-.32,1.69,22.23,22.23,0,0,0,.5,3.13l-.14.14a8.19,8.19,0,0,0,.31,1.09c.12.3.21.57.28.81a1.08,1.08,0,0,1,.07.52,2.38,2.38,0,0,0,0,.39l.28,1.13v.07l.28.28V702a.74.74,0,0,0,.21.39,1.22,1.22,0,0,1,.21.8,4,4,0,0,1,.85.81,3.3,3.3,0,0,0,.88.81,3.35,3.35,0,0,0,1.37.39,5.42,5.42,0,0,1,1.68.46A8.68,8.68,0,0,1,988.4,705.32Z"/><path d="M1024.33,689.29c.33,0,.5.14.5.42,0,.1.1.26.31.5a1.73,1.73,0,0,0,.57.45c.16.07.24.42.24,1v.21l.28.29a5.74,5.74,0,0,1,.35,1.58,5.45,5.45,0,0,0,.43,1.65,2.08,2.08,0,0,0-.36.67,2.43,2.43,0,0,0-.21.74.28.28,0,0,0,.21.28c.14,0,.22.22.22.52a2,2,0,0,1-.32,1,2.11,2.11,0,0,0-.32,1.09l.07.63a2.18,2.18,0,0,1-.38,1.16,1.6,1.6,0,0,1-1,.74c-.1.1-.13.18-.11.25a1.11,1.11,0,0,1,0,.31.27.27,0,0,1-.21.28v.07c0,.1-.14.22-.39.36a2.66,2.66,0,0,0-.7.56,7.84,7.84,0,0,1-.67.63V705a.68.68,0,0,1-.25.6.79.79,0,0,0-.31.53,8.24,8.24,0,0,0-2.11,1.4h-1.13a1,1,0,0,0-.63.29,4,4,0,0,1-.67.42,2.37,2.37,0,0,1-.77.17,7.25,7.25,0,0,0-.81.11l-.14-.14c0,.09-.07.14-.21.14l-1-.28-1.83.14-1.82-.42a2.06,2.06,0,0,0-.36-.5,1.68,1.68,0,0,1-.35-.56l-1.19-.35a1.05,1.05,0,0,1-.25-.39.36.36,0,0,0-.35-.24,1.35,1.35,0,0,0-.46.07.41.41,0,0,1-.14-.42c.05-.15,0-.22-.28-.22s-.35-.09-.35-.28-.12-.25-.35-.21a1.81,1.81,0,0,0-.21-.49,2.88,2.88,0,0,1-.64-1.55.66.66,0,0,0-.35-.35.73.73,0,0,1-.35-.21,12.69,12.69,0,0,1-1.41-4.71,11.06,11.06,0,0,1,.18-2.36,11.65,11.65,0,0,1,.42-1.37,10.28,10.28,0,0,1,.6-1.26,7.9,7.9,0,0,0,.63-1.55,1.16,1.16,0,0,0,.74-.77,1.27,1.27,0,0,1,.42-.71,1,1,0,0,1,.35-.14.32.32,0,0,0,.22-.1.21.21,0,0,0,.07-.21.33.33,0,0,1,.07-.28,3.76,3.76,0,0,1,.63-.64c.35-.3.58-.5.7-.59a.8.8,0,0,1,.42-.18,1.51,1.51,0,0,0,.53-.18l.67-.35a4.36,4.36,0,0,1,1.12-.38,11,11,0,0,1,1.73-.25,4.28,4.28,0,0,0,1.9-.63,8.62,8.62,0,0,0,1.75.52c.61.12,1.2.25,1.76.39a1.33,1.33,0,0,0,.21.53,1.09,1.09,0,0,1,.21.53l2.39-.36c.24,0,.66.27,1.27.81s.87.93.77,1.16A.46.46,0,0,0,1024.33,689.29Zm-6.39,16a2.18,2.18,0,0,1,1.47-.49.76.76,0,0,1,.46-.45,2.72,2.72,0,0,0,.77-.5,3.44,3.44,0,0,0,.81-1,2.38,2.38,0,0,1,1-1,2.06,2.06,0,0,1,.49-.95l.67-.77a2.13,2.13,0,0,0,.42-1c.07-.4.15-.92.24-1.58a13.05,13.05,0,0,0,.14-2,2.1,2.1,0,0,0-.31-1.34,1.53,1.53,0,0,1-.39-.77,2,2,0,0,1,0-.67,4.91,4.91,0,0,0,0-.59V692a4.52,4.52,0,0,0-.81-.66,5.12,5.12,0,0,1-.74-.6,8.94,8.94,0,0,1-3-.63,11.75,11.75,0,0,0-2.92-.78,2.78,2.78,0,0,0-1.41-.49,5.12,5.12,0,0,0-.84,0,1.34,1.34,0,0,0-.35.1,1.67,1.67,0,0,0-.28.18,2.29,2.29,0,0,1-.39.21,1,1,0,0,1-.49.07,1.31,1.31,0,0,0-.57.07,2.65,2.65,0,0,0-.7.39,4,4,0,0,1-.74.42,1.78,1.78,0,0,1-.45.81,3.3,3.3,0,0,0-.64,1.33,6,6,0,0,0-.31,1.69,21.61,21.61,0,0,0,.49,3.13l-.14.14a8.19,8.19,0,0,0,.31,1.09c.12.3.22.57.29.81a1.22,1.22,0,0,1,.07.52,1.61,1.61,0,0,0,0,.39l.28,1.13v.07l.28.28V702a.74.74,0,0,0,.21.39,1.22,1.22,0,0,1,.21.8,3.75,3.75,0,0,1,.85.81,3.3,3.3,0,0,0,.88.81,3.35,3.35,0,0,0,1.37.39,5.48,5.48,0,0,1,1.69.46A8.55,8.55,0,0,1,1017.94,705.32Z"/><path d="M1038.75,699.7l-.42.91a5.25,5.25,0,0,1,.14.92l-.14,1.61a.44.44,0,0,1,.14.29l-.14.28.21,1a10.4,10.4,0,0,1,.31,2.81c0,.94,0,1.9,0,2.89l.14,1.05-.14.85.28,1.4a2,2,0,0,1-.07.56.62.62,0,0,0,.07.5l-.14,1.19.14.77-.28,1.06.14.84-.14.92.42,1.61a2,2,0,0,0,1.2-.35,2.26,2.26,0,0,1,1.33-.35.75.75,0,0,1,.85.85,1.44,1.44,0,0,1-.78,1.3,13.55,13.55,0,0,1-1.26.66,3,3,0,0,1-.88.25,6.61,6.61,0,0,0-.88.14,2.85,2.85,0,0,0-.63.18,2.9,2.9,0,0,1-.81.07,7,7,0,0,0-1.8.31,2.63,2.63,0,0,0-1.47.81c-.1,0-.17.06-.21,0a.51.51,0,0,0-.25,0,1.73,1.73,0,0,0-.67.32,1.52,1.52,0,0,1-1,.24h-.21c-.52-.23-.78-.89-.78-2,.14,0,.24,0,.28-.18a.55.55,0,0,1,.25-.35.59.59,0,0,1,.39-.07,2.92,2.92,0,0,0,1-.28,14.54,14.54,0,0,1,2.07-.6,3.22,3.22,0,0,0,.21-1.13,4,4,0,0,0-.14-1.09,2.83,2.83,0,0,1-.07-1.09v-2.46a9.49,9.49,0,0,1,.07-1.75l-.21-.64.14-.42-.28-1.12a19.89,19.89,0,0,1-.14-2.47V707.5a11.19,11.19,0,0,0-.21-2.18c-.14-.7-.26-1.42-.35-2.18v-1.47l-.28-2.11.07-2.32-.07-2v-1.48a2.35,2.35,0,0,0,.14-.63l-.29-.7a1,1,0,0,1,.15-.43,16.39,16.39,0,0,0-.15-2.17l-.28-1.13.14-.42-.35-4.92.28-2.61-.14-.91.21-.84-.28-2.53.21-3.31-.28-3c-.09-1.13-.14-2.19-.14-3.2s-.33-1.51-1-1.51l-1.41.14a1.33,1.33,0,0,1-1.19-.64,2.09,2.09,0,0,1-.43-.84l.07-.28a1,1,0,0,1,1.09-.63,12.39,12.39,0,0,0,1.66-.11,20.85,20.85,0,0,0,2.18-.46,10,10,0,0,1,2.28-.35c.59,0,1,.19,1.09.57a2,2,0,0,1-.49,1.26,1.93,1.93,0,0,0-.56,1l.14,2-.21,1.62.28,1.9a.52.52,0,0,0,.17.46c.12.07.18.24.18.52l-.14,1.34.14.42-.14.28a8.19,8.19,0,0,1,.32,2.57,6.77,6.77,0,0,0,.31,2.43,9.71,9.71,0,0,0-.14,2.25l-.14,2.32a14.58,14.58,0,0,0,.11,1.72c.07.59.15,1.3.24,2.14l.21,3c.1,1.12.19,2.27.28,3.44a2.89,2.89,0,0,0,.88.07c.5,0,.86-.3,1.09-.91a.71.71,0,0,0,.57-.28c.32-.47.56-.64.7-.5s.28.09.42-.17a1,1,0,0,1,.39-.46c.11,0,.2-.06.24,0a.58.58,0,0,0,.21,0,.25.25,0,0,0,.21-.07c0-.23.68-.47,1.9-.7s1.9-.35,2-.35a4,4,0,0,1,.64.07l1.37.21a1.57,1.57,0,0,1,1.19.56,5.59,5.59,0,0,0,.78,1c.35.38.78.84,1.3,1.38a10.77,10.77,0,0,1,1.4,1.86.83.83,0,0,1,.32.39.83.83,0,0,0,.31.38,1.14,1.14,0,0,0-.07.42l.57,2.25a2,2,0,0,0,.14.78,2.7,2.7,0,0,1,.17.81c0,.3.06.59.11.87l.28,1a7.83,7.83,0,0,1,.14,1.48v1.4c0,.1,0,.14-.07.14s-.07,0-.07.14l.42,2-.28,1.76.28,2.46a19,19,0,0,1-.14,2.39,11.24,11.24,0,0,0,0,2.46,3.63,3.63,0,0,0-.42,1.76v1.41a2.47,2.47,0,0,0,.14.84,3.46,3.46,0,0,0,1,.14l2.82-.56a1,1,0,0,0,.52.46c.26.11.39.27.39.45,0,.56-.21.85-.63.85a3.63,3.63,0,0,0-2.6,1.19,2.41,2.41,0,0,0-.64-.07L1054,723h-.5q-.42,0-.45.18c0,.11-.23.17-.6.17l-1.76.22-.56-.08c-.33,0-.52.11-.56.32s-.21.32-.5.32l-.28-.07a2.78,2.78,0,0,1-.28-1.2,1.34,1.34,0,0,1,.25-.91,1.5,1.5,0,0,1,.56-.42c.21-.1.45-.19.7-.29a1.08,1.08,0,0,0,.6-.49L1051,719a2.38,2.38,0,0,0,.07-.63l-.21-1.9.14-1.4-.14-1.2.28-1.4-.14-1.27.14-2.74a9.33,9.33,0,0,0-.31-2.39,9.65,9.65,0,0,1-.32-2.46l.14-1s-.09-.63-.28-1.76l.14-.21c-.28-.32-.41-.52-.39-.59a2.11,2.11,0,0,0,0-.57,2.27,2.27,0,0,0-.18-.88,5.71,5.71,0,0,1-.28-.91,9.89,9.89,0,0,1-.17-1.12,3,3,0,0,0-.53-1.45,2.77,2.77,0,0,1-.49-.73,2.34,2.34,0,0,0-.32-.57,1.65,1.65,0,0,0-.53-.45,3.58,3.58,0,0,1-.67-.53,2.6,2.6,0,0,1-1.51.31l-1.37,0c-.28,0-.43,0-.46.14a1.16,1.16,0,0,1-.21.39,2.26,2.26,0,0,1-.49.49,2,2,0,0,0-.53.6,1.86,1.86,0,0,0-1.82.7,6.65,6.65,0,0,1-1.34,1.76c-.14.42-.32.64-.53.67s-.27.15-.17.38l-.07.21.28.85Z"/></svg>