<svg id="Layer_1" data-name="Layer 1" xmlns="http://www.w3.org/2000/svg" xmlns:xlink="http://www.w3.org/1999/xlink" viewBox="0 0 1920 1080"><defs><style>.cls-1{fill:none;}.cls-2{clip-path:url(#clip-path);}.cls-3{fill:#e6e6e6;}.cls-4{fill:#c69c6d;}.cls-5{fill:#a67c52;}.cls-6{fill:#528909;}.cls-7{fill:#e1e6e8;}.cls-8{fill:#42210b;}.cls-9{fill:#cb223c;}.cls-10{fill:#fbb03b;}.cls-11{fill:#f7bdb3;}.cls-12{fill:#537bb8;}.cls-13{fill:#6a4543;}.cls-14{fill:#0071bc;}.cls-15{fill:#333;}.cls-16{fill:#f2f2f2;}.cls-17{fill:#85aa52;}.cls-18{fill:#daec70;}.cls-19{fill:#1b1464;}.cls-20{fill:#fff;}</style><clipPath id="clip-path"><rect class="cls-1" x="-1" y="1" width="1920" height="1080"/></clipPath></defs><g class="cls-2"><path class="cls-3" d="M993.83,583.39c-15.15,6.54-13.33,3.61,13.94,71.35,8,19.8,11,49.14,25.23,82.16,12.9,29.87,30.81,48.65,39.28,67.23,33.58,73.74,44.46,99.42,51.33,99.09,34-1.67,46.47-17.69.16-134.07-6.67-16.77-22.48-34.28-32.47-57.42-9.74-22.56-11.08-44.64-18.57-60.8C1017.64,532.11,1011.06,576,993.83,583.39Z"/><path class="cls-4" d="M19-20.48c0,53.12,1.21,33.37-28.34,33.37-28.35,0-29.53,19.75-29.53-33.37S-18.77-375.82-9.91-375.82,19-73.61,19-20.48Z"/><path class="cls-5" d="M713.08,733.23H-50.79c-149.58-.78-127-46-57-155S-81.87-1.6-81.87-1.6A45.48,45.48,0,0,1-36.39-47.08L311.77-421.42,684.28-75.87A45.48,45.48,0,0,1,729.76-30.4S700.51,500,766.33,574.08,947.33,732.45,713.08,733.23Z"/><path class="cls-6" d="M155.46,728.34c0,57.93-234.14,43.19-292.07,43.19S-260,769.82-260,711.89s81.9-80,109-28.8C-95.47,788,155.46,670.41,155.46,728.34Z"/><path class="cls-6" d="M505.12,728.34c0,57.93,234.13,43.19,292.06,43.19s123.41-1.71,123.41-59.64-81.9-80-109-28.8C756.05,788,505.12,670.41,505.12,728.34Z"/><rect class="cls-7" x="135.28" y="723.82" width="388.99" height="84.74"/><rect class="cls-4" x="565.94" y="-532.89" width="57.51" height="754.36" transform="translate(309.11 388.67) rotate(-47.65)"/><rect class="cls-4" x="438" y="427.18" width="57.51" height="326.78" transform="translate(-26.76 22.17) rotate(-2.65)"/><rect class="cls-8" x="196.37" y="421.38" width="251.94" height="326.78" transform="translate(-26.64 15.5) rotate(-2.65)"/><rect class="cls-4" x="168.56" y="425.12" width="57.51" height="329.96"/><rect class="cls-4" x="308.64" y="219.22" width="57.51" height="360.13" transform="translate(736.68 61.89) rotate(90)"/><rect class="cls-7" x="431.08" y="117.39" width="211.84" height="166.6" transform="translate(737.68 -336.31) rotate(90)"/><rect class="cls-4" x="29.26" y="-553.21" width="57.51" height="799.06" transform="translate(204.42 -228.16) rotate(-137.65)"/><rect class="cls-4" x="496.37" y="81.04" width="81.26" height="146.03" transform="translate(691.05 -382.94) rotate(90)"/><rect class="cls-4" x="496.37" y="178.65" width="81.26" height="146.03" transform="translate(788.66 -285.33) rotate(90)"/><rect class="cls-7" x="-23.48" y="115.33" width="211.84" height="166.6" transform="translate(281.07 116.19) rotate(90)"/><rect class="cls-4" x="41.81" y="78.98" width="81.26" height="146.03" transform="translate(234.44 69.56) rotate(90)"/><rect class="cls-4" x="41.81" y="176.59" width="81.26" height="146.03" transform="translate(332.05 167.17) rotate(90)"/><rect class="cls-8" x="414.16" y="267.26" width="251.94" height="49.4" transform="translate(-12.9 25.24) rotate(-2.65)"/><rect class="cls-8" x="-34.23" y="277.55" width="251.94" height="49.4" transform="translate(30.64 -7.65) rotate(5.73)"/><circle class="cls-4" cx="411.53" cy="628.59" r="15.43"/><rect class="cls-6" x="584.91" y="-598.6" width="34.64" height="808.14" rx="11.66" transform="translate(340.25 381.57) rotate(-47.64)"/><rect class="cls-6" x="24.4" y="-584.41" width="31.28" height="823.11" rx="15.64" transform="translate(186.07 -273.62) rotate(-137.65)"/><path class="cls-4" d="M659.38,788c0,14.46.32,9.09-7.72,9.09-7.71,0-8,5.37-8-9.09s5.46-96.69,7.87-96.69S659.38,773.56,659.38,788Z"/><path class="cls-9" d="M704.61,744.82c0,14.46,2.17,9.08-51,9.08-51,0-53.16,5.38-53.16-9.08s36.15-96.69,52.09-96.69S704.61,730.36,704.61,744.82Z"/><circle class="cls-10" cx="683.03" cy="723.2" r="7.2"/><circle class="cls-10" cx="666.58" cy="737.6" r="5.14"/><circle class="cls-10" cx="663.49" cy="720.11" r="4.11"/><path class="cls-4" d="M747.53,799.15c0,7.32.16,4.6-3.91,4.6-3.91,0-4.07,2.72-4.07-4.6s2.77-49,4-49S747.53,791.83,747.53,799.15Z"/><path class="cls-9" d="M770.44,777.27c0,7.33,1.1,4.6-25.85,4.6-25.84,0-26.92,2.73-26.92-4.6s18.31-49,26.39-49S770.44,770,770.44,777.27Z"/><circle class="cls-10" cx="759.51" cy="766.32" r="3.65"/><circle class="cls-10" cx="751.17" cy="773.61" r="2.6"/><circle class="cls-10" cx="749.61" cy="764.76" r="2.08"/><path class="cls-4" d="M633.28,263.56c0,5.54.12,3.48-2.95,3.48s-3.08,2.06-3.08-3.48,2.09-37,3-37S633.28,258,633.28,263.56Z"/><path class="cls-9" d="M650.59,247c0,5.54.83,3.48-19.53,3.48-19.53,0-20.34,2.06-20.34-3.48s13.83-37,19.94-37S650.59,241.5,650.59,247Z"/><circle class="cls-10" cx="642.33" cy="238.76" r="2.76"/><circle class="cls-10" cx="636.03" cy="244.27" r="1.97"/><circle class="cls-10" cx="634.85" cy="237.58" r="1.57"/><path class="cls-4" d="M446.11,271.79c0,5.54.12,3.48-2.95,3.48s-3.08,2.06-3.08-3.48,2.09-37,3-37S446.11,266.26,446.11,271.79Z"/><path class="cls-9" d="M463.42,255.26c0,5.53.83,3.48-19.53,3.48-19.53,0-20.34,2.05-20.34-3.48s13.83-37,19.94-37S463.42,249.73,463.42,255.26Z"/><circle class="cls-10" cx="455.16" cy="246.98" r="2.76"/><circle class="cls-10" cx="448.86" cy="252.5" r="1.97"/><circle class="cls-10" cx="447.68" cy="245.8" r="1.57"/><path class="cls-4" d="M189,282.08c0,5.53.12,3.47-3,3.47s-3.07,2.06-3.07-3.47,2.09-37,3-37S189,276.54,189,282.08Z"/><path class="cls-9" d="M206.32,265.54c0,5.54.83,3.48-19.53,3.48-19.53,0-20.34,2.06-20.34-3.48s13.83-37,19.93-37S206.32,260,206.32,265.54Z"/><circle class="cls-10" cx="198.06" cy="257.27" r="2.76"/><circle class="cls-10" cx="191.76" cy="262.78" r="1.97"/><circle class="cls-10" cx="190.58" cy="256.09" r="1.57"/><path class="cls-9" d="M15,249.09c0,5.53.83,3.48-19.53,3.48-19.53,0-20.35,2.05-20.35-3.48s13.84-37,19.94-37S15,243.56,15,249.09Z"/><circle class="cls-10" cx="6.78" cy="240.81" r="2.76"/><circle class="cls-10" cx="0.48" cy="246.32" r="1.97"/><circle class="cls-10" cx="-0.7" cy="239.63" r="1.57"/><path class="cls-9" d="M35,704.72c0,22,3.29,13.82-77.63,13.82-77.62,0-80.86,8.18-80.86-13.82s55-147.09,79.24-147.09S35,682.73,35,704.72Z"/><circle class="cls-10" cx="2.12" cy="671.83" r="10.95"/><rect class="cls-6" x="-38.08" y="271.54" width="271.97" height="14.57" rx="7.29" transform="translate(28.33 -8.38) rotate(5.73)"/><path class="cls-4" d="M100.06,275c0,3.89.09,2.45-2.08,2.45s-2.16,1.44-2.16-2.45,1.47-26.07,2.12-26.07S100.06,271.09,100.06,275Z"/><path class="cls-9" d="M112.26,263.34c0,3.9.58,2.45-13.76,2.45-13.75,0-14.33,1.45-14.33-2.45s9.75-26.07,14-26.07S112.26,259.44,112.26,263.34Z"/><circle class="cls-10" cx="106.44" cy="257.51" r="1.94"/><circle class="cls-10" cx="102.01" cy="261.39" r="1.39"/><circle class="cls-10" cx="101.17" cy="256.68" r="1.11"/><rect class="cls-6" x="404.14" y="265.37" width="271.97" height="14.57" rx="7.29" transform="translate(-12.01 25.22) rotate(-2.65)"/><path class="cls-4" d="M562.85,268.82c0,3.89.09,2.45-2.08,2.45s-2.17,1.44-2.17-2.45,1.48-26.07,2.13-26.07S562.85,264.92,562.85,268.82Z"/><path class="cls-9" d="M575,257.17c0,3.9.59,2.45-13.75,2.45-13.76,0-14.33,1.45-14.33-2.45s9.74-26.07,14-26.07S575,253.27,575,257.17Z"/><circle class="cls-10" cx="569.23" cy="251.34" r="1.94"/><circle class="cls-10" cx="564.79" cy="255.22" r="1.39"/><circle class="cls-10" cx="563.96" cy="250.51" r="1.11"/><rect class="cls-7" x="973.43" y="823.65" width="54.04" height="49.54" rx="8.47" transform="translate(152.03 1848.88) rotate(-90)"/><rect class="cls-7" x="1031.98" y="823.65" width="54.04" height="49.54" rx="8.47" transform="translate(210.58 1907.43) rotate(-90)"/><circle class="cls-11" cx="1030.85" cy="669.4" r="55.17"/><path class="cls-9" d="M1088.26,642.38c0,30.47,2.39,19.14-56.24,19.14-56.25,0-58.59,11.33-58.59-19.14s39.84-203.79,57.42-203.79S1088.26,611.91,1088.26,642.38Z"/><path class="cls-12" d="M1081.1,825.91H978.35a11.67,11.67,0,0,1-11.67-11.68l4.5-31.11L966.68,716a11.66,11.66,0,0,1,11.67-11.67H1081.1A11.67,11.67,0,0,1,1092.78,716l-4.51,67.14,4.51,31.11A11.68,11.68,0,0,1,1081.1,825.91Z"/><rect class="cls-13" x="966.68" y="776.37" width="126.1" height="13.51" rx="6.76"/><rect class="cls-7" x="1016.22" y="774.11" width="27.02" height="18.01" rx="3.61"/><rect class="cls-13" x="971.08" y="832.76" width="54.04" height="58.35" rx="9.19" transform="translate(136.17 1860.04) rotate(-90)"/><rect class="cls-13" x="974.56" y="838.29" width="38.28" height="67.56" rx="8.32" transform="translate(121.63 1865.77) rotate(-90)"/><rect class="cls-13" x="1034.33" y="835.01" width="54.04" height="58.35" rx="9.19" transform="translate(197.17 1925.54) rotate(-90)"/><rect class="cls-14" x="1056.21" y="709.65" width="67.83" height="38.28" rx="14.62" transform="translate(772.49 2001.04) rotate(-109.75)"/><rect class="cls-14" x="1002.07" y="727.8" width="113.24" height="38.28" rx="19.03" transform="translate(275.67 -285.36) rotate(17.61)"/><rect class="cls-14" x="934.85" y="709.65" width="67.83" height="38.28" rx="14.62" transform="translate(-44.47 1394.37) rotate(-70.25)"/><rect class="cls-14" x="943.43" y="726.84" width="119.53" height="38.28" rx="19.14" transform="translate(2185.11 1153.41) rotate(162.39)"/><ellipse class="cls-11" cx="1000.45" cy="727.95" rx="16.89" ry="11.26" transform="translate(-103.33 1286.96) rotate(-62.9)"/><ellipse class="cls-11" cx="968.93" cy="676.16" rx="11.26" ry="16.89" transform="translate(-208.27 575.05) rotate(-30)"/><ellipse class="cls-11" cx="1061.25" cy="727.95" rx="16.89" ry="11.26" transform="translate(-70.22 1341.08) rotate(-62.9)"/><ellipse class="cls-11" cx="1090.53" cy="678.41" rx="16.89" ry="11.26" transform="translate(-10.18 1340.17) rotate(-62.9)"/><path class="cls-7" d="M975.29,685.69c.45-11.8-2-7.5,54.29-5.31,54,2.1,56.42-2.2,56,9.59s-41.32,77.43-58.19,76.77S974.83,697.49,975.29,685.69Z"/><path class="cls-7" d="M1077.4,662.43c.19-4.89-.11-3.08,5.42-2.87,5.3.21,5.59-1.6,5.4,3.29s-5,32.51-6.68,32.45S1077.21,667.31,1077.4,662.43Z"/><path class="cls-7" d="M976.07,662.43c.19-4.89-.11-3.08,5.42-2.87,5.3.21,5.59-1.6,5.4,3.29s-5,32.51-6.68,32.45S975.88,667.31,976.07,662.43Z"/><ellipse class="cls-11" cx="1031.98" cy="680.66" rx="11.26" ry="16.89" transform="translate(-202.07 607.18) rotate(-30)"/><ellipse class="cls-7" cx="1059.3" cy="670.65" rx="16.89" ry="3.25" transform="translate(-24.61 40.56) rotate(-2.17)"/><ellipse class="cls-7" cx="1056.78" cy="663.4" rx="22.55" ry="2.82" transform="translate(-24.34 40.46) rotate(-2.17)"/><ellipse class="cls-7" cx="1002.99" cy="670.32" rx="16.89" ry="3.25" transform="translate(-24.64 38.43) rotate(-2.17)"/><ellipse class="cls-7" cx="1008.68" cy="664.11" rx="22.55" ry="2.82" transform="translate(-24.4 38.64) rotate(-2.17)"/><ellipse class="cls-11" cx="1030.51" cy="710.51" rx="1.56" ry="16.89" transform="translate(171.7 1621.13) rotate(-81.26)"/><ellipse class="cls-15" cx="1014.18" cy="670.09" rx="4.07" ry="3.49" transform="matrix(0.87, -0.5, 0.5, 0.87, -199.17, 596.86)"/><ellipse class="cls-15" cx="1069.47" cy="670.09" rx="4.07" ry="3.49" transform="translate(-191.76 624.51) rotate(-30)"/><rect class="cls-13" x="1046.62" y="838.29" width="38.28" height="67.56" rx="8.32" transform="translate(193.69 1937.82) rotate(-90)"/><path class="cls-3" d="M796.85-86.26c4.55.34,1.91-36.25-6.53,77.13C787.86,24,797.77,69,792.18,124.73,787.12,175.13,768.85,211.38,765,243c-15.18,125.24-9.82,122.9-37.22,120.15-30-3-73,46.39-59.34-148.16,2-28,14.73-62.89,21.55-100.46C720.71-54.57,680.31-95.13,796.85-86.26Z"/><path class="cls-3" d="M347,875.91c-12.35,23.65-8.62,20.44-70-8.33-17.95-8.41-47.74-7.77-77.33-23.22-26.76-14-40-37.34-56.54-46.7-65.45-37.11-66.3-31.8-53.55-56.21,13.95-26.71-9.53-58,96.18-9.41,15.24,7,32.65-7.93,61.45,21.3,16,16.25,43,8.71,57.26,17C409.54,831.62,361,849,347,875.91Z"/><path class="cls-3" d="M446.86,837.77c8.83,58.45,11.38,68.06-55.23,78.12-67.68,10.23-67,.13-75.84-58.32s-34.25-103.06,49.55-115.72C451.28,728.87,438,779.33,446.86,837.77Z"/><ellipse class="cls-5" cx="367.18" cy="761.35" rx="37.49" ry="10.32" transform="translate(-109.61 63.39) rotate(-8.59)"/><path class="cls-3" d="M5.19-163.5c3.22-89.61,41.69,4.85,52.11,5.22,9.43.34,24.06,252.08,15.51,295.2C61,196.48-25.39,216.24-30.46,213.49-67.73,193.24,1.53-61.56,5.19-163.5Z"/><path class="cls-3" d="M56.9,873.77C6.78,905.1-1,911.26-36.74,854.14c-36.28-58-26.74-61.44,23.38-92.77s81-72.39,125.88-.53C158.59,834.55,107,842.44,56.9,873.77Z"/><ellipse class="cls-5" cx="95.36" cy="770.29" rx="10.32" ry="37.49" transform="translate(-393.79 167.65) rotate(-32.01)"/><path class="cls-3" d="M522.42,872.55c-89.66.92,2.92-41.87,2.82-52.3-.1-9.44,250.69-35.66,294.17-29.11,60,9,83.76,94.43,81.25,99.62C882.15,928.93,624.42,871.5,522.42,872.55Z"/><path class="cls-16" d="M938.67,823.79c11.77,57.93,14.81,67.4-51.21,80.81-67.08,13.63-66.92,3.51-78.69-54.41S769.36,749,852.41,732.11C937.59,714.8,926.9,765.87,938.67,823.79Z"/><ellipse class="cls-5" cx="855.24" cy="751.49" rx="37.49" ry="10.32" transform="translate(-132.51 185.35) rotate(-11.49)"/><path class="cls-16" d="M846.46,585.43c-19.78,0-29.76-558,0-540.2,22.33,13.35,61.2-137.64,65.54,78.5.63,31.15-10.22,269.93-10.79,300.67C897,650.41,869,585.43,846.46,585.43Z"/><path class="cls-16" d="M970.22,748.54c-49.14-17.64-60.8-63.11,12.7-35.41,55.14,20.78,155.23,45.54,160.93,63.58.82,2.6-31.74,8.57-33.88,10.08C1094.31,797.89,1026.11,768.6,970.22,748.54Z"/><path class="cls-3" d="M219.8,252.24c-20.3-.58-10.33-709,19.56-685.54,22.43,17.6,53.87-73.72,50.49,200.7-.48,39.54-6.35,243.1-8.05,282.1C269.34,336.19,242.89,252.9,219.8,252.24Z"/><path class="cls-3" d="M1081.47,492.12c11.63,7.2,10.43,4.69-17.75,53-8.24,14.13-20,34-34.54,57.45-13.13,21.2-22.6,35.44-31.13,48.57-33.82,52.08-30.86,52.26-42.87,44.83-13.14-8.14-40.89-13.69-25.82-33.75,8.21-10.92,41.5-33.93,51.67-50.35,9.92-16,53.55-121.58,61.84-132.08C1064.4,452.57,1068.23,483.92,1081.47,492.12Z"/><path class="cls-16" d="M915.24,674.18c-7.85-11.21-7.56-8.55,31-37.39,11.27-8.43,27.3-20.2,46.72-33.81,17.57-12.3,29.94-20.29,41.16-27.73,44.52-29.55,42-31,50.13-19.43,8.87,12.66,31,29.49,12.15,40-10.3,5.71-45.72,10.76-59.33,20.29-13.27,9.29-82.09,80.08-92.33,85.39C918.16,715.27,924.17,686.93,915.24,674.18Z"/><path class="cls-16" d="M-133.85,485.74c-23.59-14.63-23-6.53,103.23-215.71C6.27,208.9,58.71,122.69,122.18,20.43c57.41-92.5,97.74-155.35,134.36-213C401.79-421.53,394-419.11,418.39-404c26.64,16.53,95.13,8.18,33.71,98.47C418.63-256.34,271.23-36.33,226.76,35.31,183.4,105.17-10.17,443.44-43.4,491.13-129.66,614.91-107,502.4-133.85,485.74Z"/><path class="cls-16" d="M215.18,729.92c-18.36-5.83-17.23,1.53,55.7-235.16,21.31-69.17,51.66-166.86,88.58-283.14,33.4-105.19,57.05-177.1,78.46-243,85-261.37,79.56-256.54,98.51-250.53,20.74,6.59,69.57-23.87,33.08,80.58-19.88,56.92-107.18,310.7-133,392.18C411.24,270.3,301,649.55,281.11,705,229.59,848.88,236.06,736.55,215.18,729.92Z"/><path class="cls-16" d="M554,641.39c58.49-8.57,68.11-11.07,77.87,55.58,9.92,67.73-.18,67-58.66,75.58S470,806.33,457.67,722.47C445.08,636.47,495.48,650,554,641.39Z"/><ellipse class="cls-5" cx="477.18" cy="720.72" rx="10.32" ry="37.49" transform="translate(-99.39 76.75) rotate(-8.33)"/><path class="cls-16" d="M496.75,270.49c26.4-3.86,54,24.8,70.8,119,4.89,27.54,24.44,61.94,31.27,108.57,6.18,42.18-3.61,75.85-.38,102.43,12.82,105.42,17.51,102.3-9.73,106.29-29.82,4.36-60.75,54.36-90.32-107.15-4.26-23.27,3.62-54-1.16-86.69-4.67-31.86-9.4-104.88-12-128.08C465.91,214.32,466.72,274.89,496.75,270.49Z"/><rect class="cls-17" x="1509.12" y="683.81" width="13.28" height="37.62" rx="6.64" transform="translate(3084.39 127.65) rotate(135)"/><path class="cls-17" d="M1580.92,736.38c36.67-6.55,74.07-13.06,109.67-24.19,17.4-5.43,33.75-14.65,50.07-22.62,22.08-10.78,44.13-21.65,66-32.9,17.85-9.2,33.95-20.24,50.58-31.5,7-4.76.39-16.27-6.71-11.46-14.37,9.73-28.33,19.86-43.72,27.94-21,11-42.36,21.52-63.69,32q-15.27,7.5-30.6,14.88c-6.76,3.25-13.83,6.9-19.66,9-20.9,7.44-43.12,11.7-64.79,16.23q-25.2,5.25-50.54,9.83c-8.41,1.5-4.94,14.32,3.42,12.83Z"/><path class="cls-17" d="M1837.27,636.57l8-23.74c2.73-8.12-10.09-11.6-12.8-3.53l-8,23.74c-2.73,8.11,10.09,11.6,12.8,3.53Z"/><path class="cls-18" d="M1634.36,908.21c10.81,97.49-24,62.42-61.64,66.59s-63.93,46-74.73-51.48c-2-17.87-11.87-109.88-13-127.91-5.07-80.32,9.75-81.38,58.25-86.75,47-5.22,63.43-4,76.52,77.73C1622.31,802.36,1632.6,892.27,1634.36,908.21Z"/><path class="cls-17" d="M1524,1006.5a90.6,90.6,0,0,0-18.59,22.31c-3.67,6-6.34,13.51-11,18.89-.92,1.07-.22,1.18-2,.73a25.32,25.32,0,0,1-7.36-3.65,62.51,62.51,0,0,1-9-7.14c-6.2-5.88-15.6,3.49-9.39,9.39,7.63,7.26,21.89,19.29,33.13,13.39,6.37-3.34,9.75-12,13.05-18,5.52-10,11.71-19.11,20.5-26.58,6.51-5.54-2.92-14.9-9.39-9.39Z"/><path class="cls-17" d="M1606.72,986.65c7.35,8.38,12,18.26,15.85,28.62,2.42,6.51,4.62,16.27,11,20.13,10.25,6.16,24.86-2.62,33.31-8.58,6.93-4.89.3-16.41-6.7-11.47a74.24,74.24,0,0,1-9.94,5.89c-2.42,1.19-5.22,2.51-7.93,2.78a12.22,12.22,0,0,1-1.81,0c-.26,0-.68-.25.11.26s-.43-.83-.66-1.29c-3.19-6.32-5.19-13.15-7.92-19.67a93.55,93.55,0,0,0-16-26.07c-5.64-6.44-15,3-9.39,9.39Z"/><path class="cls-19" d="M1646.31,965.81c-8.8-79.46-6.18-50.8-79.32-42.7s-78-20.3-67,58.91c.3,2.12.54,4.09.89,5.9.17,2.89.41,5.83.74,8.8,4.38,39.5,15.25,15.82,31.7,14,7.22-.8,14.31,2.74,19.63,3.63a5.6,5.6,0,0,0,2.71.18,5.69,5.69,0,0,0,2.61-.77c5-2,11.14-7,18.36-7.84s14.31,2.74,19.63,3.63a7.72,7.72,0,0,0,5.31-.59c5-2,11.14-7,18.36-7.84,16.45-1.82,32.24,18.9,27.87-20.59-.31-2.76-.68-5.46-1.1-8.12C1646.72,970.39,1646.58,968.2,1646.31,965.81Z"/><path class="cls-17" d="M1491.88,760.25c2.94-2.27-.93.71-1.74,1.33q-3.69,2.83-7.39,5.63-12.11,9.18-24.35,18.17c-18.43,13.54-37,27.25-56.74,38.85a126.24,126.24,0,0,1-19,9.09q-14.64,6-29.36,11.86c-22.75,9.09-45.53,18.11-68.48,26.69-18.47,6.91-37.18,11.29-56.34,16-8.3,2-4.79,14.84,3.53,12.81,17-4.15,34-7.75,50.48-13.79,22.56-8.29,44.91-17.16,67.24-26,17.71-7,36.6-13.15,53.43-22.17,19.73-10.58,38-24.34,56-37.48q21.25-15.46,42.07-31.52c2.86-2.21,2.28-7.06,0-9.39-2.77-2.83-6.56-2.18-9.39,0Z"/><path class="cls-17" d="M1257.31,884.93l-15.6,19.59c-2.23,2.81-2.74,6.66,0,9.39,2.32,2.32,7.15,2.82,9.39,0l15.6-19.6c2.23-2.8,2.74-6.65,0-9.38-2.31-2.32-7.14-2.83-9.39,0Z"/><path class="cls-18" d="M1395,741.55c38,25.65,86.93-6.15,124-61.1s48.32-112.24,10.34-137.89-89.37-41.65-147.89,45C1326.09,669.63,1357,715.9,1395,741.55Z"/><path class="cls-17" d="M1382.85,741.07s7.17-5,3.06-10.18-23.52-33-41.88-45.43-44.24-25-45.38-23.3,3.33,12.05,4.81,15.5,5.25,11.16,4.81,15.5c-.51,5.14,3.65,24.45,7,29.22,3.51,5,7.44,17.26,20.2,21s40.22,2.66,41.35,1S1382.85,741.07,1382.85,741.07Z"/><path class="cls-17" d="M1526.69,532s-1.92,8.5-8.31,6.64S1479,529.2,1460.6,516.8s-39.7-31.71-38.56-33.39,12.41-1.42,16.17-1.33,12.31.7,16.17-1.32c4.58-2.4,24-5.76,29.72-4.42,5.93,1.39,18.8.44,27,10.89s17.49,36.31,16.35,38S1526.69,532,1526.69,532Z"/><path d="M1490.68,636.24l-1.1.12c0-.1-1.16-10-5.78-13.1s-9.84-1.23-9.89-1.21l-.39-1a12.8,12.8,0,0,1,10.9,1.33C1489.47,625.75,1490.63,635.81,1490.68,636.24Z"/><path d="M1406.45,708.78l-1,.45c-.08-.16-7.24-16.64,3.16-39.82,10.56-23.55,29.82-28.32,30-28.37l.25,1.08c-.18,0-18.92,4.73-29.25,27.74C1399.43,692.56,1406.38,708.62,1406.45,708.78Z"/><path d="M1475.18,603.8l-1,.41c-.08-.19-7.53-19.28,5.91-40.88,7.16-11.48,15.1-17.81,20.51-21.09a34.25,34.25,0,0,1,10.21-4.42l.21,1.08c-.17,0-16.59,3.43-30,25C1467.88,585,1475.11,603.61,1475.18,603.8Z"/><path d="M1457.58,703c7.33,7.14,48.16-8,64.91-32.27s13.87-52.42,8.28-65.17c-5.82-13.28-16.37-17.73-30.16,6.33-3.84,6.72-9.23,27.09-13.89,33.35-5.26,7.07-23.8,21.63-30.6,29.52C1442.73,690.34,1453.12,698.69,1457.58,703Z"/><path class="cls-20" d="M1490.07,649.58s11.43,6,7.37,9.79-14.57-3.12-14.57-3.12Z"/><path class="cls-20" d="M1480.57,657.8s11.37,6.13,7.28,9.85-14.54-3.25-14.54-3.25Z"/><path class="cls-20" d="M1470.52,666.12s11.76,5.34,7.93,9.33-14.73-2.25-14.73-2.25Z"/><path class="cls-20" d="M1462.49,674.05s11.76,5.34,7.93,9.33-14.73-2.25-14.73-2.25Z"/><path class="cls-20" d="M1492,646.71s9.86,8.34,11.83,3.17-8.34-12.34-8.34-12.34Z"/><path class="cls-20" d="M1496.08,634.82s9.94,8.27,11.86,3.08-8.44-12.28-8.44-12.28Z"/><path class="cls-20" d="M1501,623s9.35,8.92,11.62,3.87-7.59-12.82-7.59-12.82Z"/><path class="cls-20" d="M1505.94,611.69s9.35,8.91,11.62,3.87-7.59-12.82-7.59-12.82Z"/><polygon class="cls-20" points="1488.12 682.14 1498.43 690.66 1488.46 695.52 1488.12 682.14"/><polygon class="cls-20" points="1521.12 636.46 1534.04 633.01 1532.2 643.95 1521.12 636.46"/></g><path d="M1299.45,219.13a1.58,1.58,0,0,1-.72-.59,1.54,1.54,0,0,1-.29-.88,1.5,1.5,0,0,1,.42-1.06,1.37,1.37,0,0,1,1.06-.45,1.56,1.56,0,0,1,.68.14,17.29,17.29,0,0,0,7.09,1.48c4.2,0,6.31-1.38,6.31-4.14a2.31,2.31,0,0,0-.81-1.8,6,6,0,0,0-2-1.14q-1.18-.41-3.39-1a42.09,42.09,0,0,1-4.71-1.46,8.17,8.17,0,0,1-3.1-2.1,5.34,5.34,0,0,1-1.3-3.75,6.8,6.8,0,0,1,1.08-3.72A7.5,7.5,0,0,1,1303,196a11.8,11.8,0,0,1,5.06-1,20.48,20.48,0,0,1,7.16,1.19,1.41,1.41,0,0,1,1,1.44,1.57,1.57,0,0,1-.4,1.05,1.29,1.29,0,0,1-1,.46,1.59,1.59,0,0,1-.58-.14,17.51,17.51,0,0,0-5.79-1,8.84,8.84,0,0,0-4.63,1.08,3.36,3.36,0,0,0-1.78,3,2.77,2.77,0,0,0,.85,2.11,5.78,5.78,0,0,0,2.12,1.26,31.8,31.8,0,0,0,3.48,1,36,36,0,0,1,4.58,1.37,7.45,7.45,0,0,1,3,2.12,5.75,5.75,0,0,1,1.24,3.89,6,6,0,0,1-1.15,3.62,7.57,7.57,0,0,1-3.24,2.5,12.08,12.08,0,0,1-4.82.9A21.21,21.21,0,0,1,1299.45,219.13Z"/><path d="M1324.87,219.67a8.05,8.05,0,0,1-3.23-3.36,11.56,11.56,0,0,1,0-10,8,8,0,0,1,3.23-3.37,10.44,10.44,0,0,1,9.68,0,8.16,8.16,0,0,1,3.24,3.37,11.38,11.38,0,0,1,0,10,8.2,8.2,0,0,1-3.24,3.36,10.44,10.44,0,0,1-9.68,0Zm7.68-2.48a5.5,5.5,0,0,0,2.23-2.16,8.24,8.24,0,0,0,0-7.45,5.26,5.26,0,0,0-2.23-2.14,6.22,6.22,0,0,0-2.82-.67,6.34,6.34,0,0,0-2.87.67,5.22,5.22,0,0,0-2.21,2.14,8.5,8.5,0,0,0,0,7.45,5.45,5.45,0,0,0,2.21,2.16,6.22,6.22,0,0,0,2.87.68A6.11,6.11,0,0,0,1332.55,217.19Z"/><path d="M1357.05,220.25a2.21,2.21,0,0,1-.79-1.08l-5.11-15a1.71,1.71,0,0,1-.11-.61,1.54,1.54,0,0,1,.47-1.15,1.56,1.56,0,0,1,1.15-.47,1.68,1.68,0,0,1,.92.27,1.34,1.34,0,0,1,.55.7l4.22,13.86,4.17-13.53a1.77,1.77,0,0,1,.67-.94,1.85,1.85,0,0,1,2.19,0,1.77,1.77,0,0,1,.67.94l4.18,13.53,4.21-13.86a1.31,1.31,0,0,1,.56-.7,1.62,1.62,0,0,1,.91-.27,1.6,1.6,0,0,1,1.16.47,1.57,1.57,0,0,1,.46,1.15,1.94,1.94,0,0,1-.1.61l-5.12,15a2.15,2.15,0,0,1-.79,1.08,2.07,2.07,0,0,1-1.29.43,2.09,2.09,0,0,1-1.3-.43,2.45,2.45,0,0,1-.83-1.12l-3.81-11.91-3.82,11.91a2.38,2.38,0,0,1-.83,1.12,2.07,2.07,0,0,1-1.29.43A2.09,2.09,0,0,1,1357.05,220.25Z"/><path d="M1381.85,220.21a1.55,1.55,0,0,1-.46-1.15V195.7a1.61,1.61,0,0,1,.46-1.17A1.54,1.54,0,0,1,1383,194a1.66,1.66,0,0,1,1.65,1.66v9.39a12.21,12.21,0,0,1,2.95-2.41,7.49,7.49,0,0,1,3.75-.9,6.2,6.2,0,0,1,3.44.94,6.08,6.08,0,0,1,2.23,2.55,8.26,8.26,0,0,1,.77,3.57v10.22a1.53,1.53,0,0,1-.48,1.15,1.62,1.62,0,0,1-1.17.47,1.59,1.59,0,0,1-1.62-1.62V209.2q0-4.39-4-4.39a5.79,5.79,0,0,0-3.23.93,12.09,12.09,0,0,0-2.68,2.52v10.8a1.53,1.53,0,0,1-.48,1.15,1.62,1.62,0,0,1-1.17.47A1.56,1.56,0,0,1,1381.85,220.21Z"/><path d="M1404.66,218.36a9.61,9.61,0,0,1-2.47-7,11.79,11.79,0,0,1,.94-4.71,8,8,0,0,1,2.88-3.5,8.34,8.34,0,0,1,4.79-1.33,8.47,8.47,0,0,1,4.61,1.24,8.09,8.09,0,0,1,2.95,3.32,10.18,10.18,0,0,1,1,4.51,1.56,1.56,0,0,1-1.66,1.62h-12.2a5.91,5.91,0,0,0,1.87,3.93,6.47,6.47,0,0,0,4.43,1.4,10.4,10.4,0,0,0,2.64-.29,10.8,10.8,0,0,0,2.22-.82,1.34,1.34,0,0,1,.64-.15,1.42,1.42,0,0,1,1,.4,1.29,1.29,0,0,1,.43,1,1.56,1.56,0,0,1-.93,1.33,11.14,11.14,0,0,1-6.3,1.58A9.18,9.18,0,0,1,1404.66,218.36Zm11.47-8.55a5.82,5.82,0,0,0-.92-2.95,5,5,0,0,0-2-1.75,5.47,5.47,0,0,0-4.82,0,4.75,4.75,0,0,0-2,1.75,5.81,5.81,0,0,0-.9,2.95Z"/><path d="M1424.15,220.21a1.55,1.55,0,0,1-.46-1.15V203.62a1.61,1.61,0,0,1,.46-1.17,1.54,1.54,0,0,1,1.16-.49,1.66,1.66,0,0,1,1.65,1.66v1.47a12.21,12.21,0,0,1,3-2.41,7.49,7.49,0,0,1,3.75-.9,6.2,6.2,0,0,1,3.44.94,6.08,6.08,0,0,1,2.23,2.55,8.26,8.26,0,0,1,.77,3.57v10.22a1.53,1.53,0,0,1-.48,1.15,1.62,1.62,0,0,1-1.17.47,1.59,1.59,0,0,1-1.62-1.62V209.2q0-4.39-4-4.39a5.79,5.79,0,0,0-3.23.93,12.09,12.09,0,0,0-2.68,2.52v10.8a1.53,1.53,0,0,1-.48,1.15,1.62,1.62,0,0,1-1.17.47A1.56,1.56,0,0,1,1424.15,220.21Z"/><path d="M1458,228.49a1.54,1.54,0,0,1-.45-1.11,1.69,1.69,0,0,1,.1-.58l2.34-6-6.76-16.49a1.78,1.78,0,0,1-.15-.68,1.62,1.62,0,0,1,.47-1.17,1.52,1.52,0,0,1,1.15-.49,1.59,1.59,0,0,1,.92.29,1.58,1.58,0,0,1,.59.72l5.55,13.75,5.65-13.68a1.57,1.57,0,0,1,1.51-1.08,1.51,1.51,0,0,1,1.15.49,1.71,1.71,0,0,1,.36,1.78l-9.82,23.62a1.62,1.62,0,0,1-1.52,1.11A1.42,1.42,0,0,1,1458,228.49Z"/><path d="M1477.29,219.67a8,8,0,0,1-3.22-3.36,11.47,11.47,0,0,1,0-10,8,8,0,0,1,3.22-3.37,10.44,10.44,0,0,1,9.68,0,8,8,0,0,1,3.24,3.37,11.29,11.29,0,0,1,0,10,8.08,8.08,0,0,1-3.24,3.36,10.44,10.44,0,0,1-9.68,0Zm7.69-2.48a5.56,5.56,0,0,0,2.23-2.16,8.32,8.32,0,0,0,0-7.45,5.31,5.31,0,0,0-2.23-2.14,6.38,6.38,0,0,0-5.69,0,5.24,5.24,0,0,0-2.22,2.14,8.5,8.5,0,0,0,0,7.45,5.47,5.47,0,0,0,2.22,2.16,6.29,6.29,0,0,0,5.69,0Z"/><path d="M1498.76,219.93a6.17,6.17,0,0,1-2.23-2.56,8.1,8.1,0,0,1-.77-3.56V203.58a1.55,1.55,0,0,1,.48-1.15,1.66,1.66,0,0,1,1.17-.47,1.6,1.6,0,0,1,1.16.47,1.57,1.57,0,0,1,.46,1.15v9.87c0,2.92,1.32,4.39,4,4.39a5.72,5.72,0,0,0,3.23-.94,11.64,11.64,0,0,0,2.68-2.52v-10.8a1.55,1.55,0,0,1,.48-1.15,1.66,1.66,0,0,1,1.17-.47,1.6,1.6,0,0,1,1.16.47,1.57,1.57,0,0,1,.46,1.15V219a1.65,1.65,0,0,1-.46,1.17,1.57,1.57,0,0,1-1.16.48,1.64,1.64,0,0,1-1.65-1.65v-1.48a12.16,12.16,0,0,1-3,2.41,7.49,7.49,0,0,1-3.75.9A6.28,6.28,0,0,1,1498.76,219.93Z"/><path d="M1526.61,219.24a1.37,1.37,0,0,1-.61-1.19,1.43,1.43,0,0,1,.39-1,1.32,1.32,0,0,1,1-.44,1.54,1.54,0,0,1,.65.15,14.91,14.91,0,0,0,2.3.79,10.8,10.8,0,0,0,2.59.29q4,0,4-2.56A1.37,1.37,0,0,0,1536,214a18.52,18.52,0,0,0-3-1,27.48,27.48,0,0,1-3.51-1,6.17,6.17,0,0,1-2.38-1.64,4.16,4.16,0,0,1-1-2.9,5.18,5.18,0,0,1,1.82-4.1,7.65,7.65,0,0,1,5.2-1.59,15,15,0,0,1,5.22.9,1.33,1.33,0,0,1,.77.54,1.46,1.46,0,0,1,.27.83,1.41,1.41,0,0,1-.41,1,1.37,1.37,0,0,1-1,.43,1.83,1.83,0,0,1-.46-.07,13.92,13.92,0,0,0-4.11-.65,5.61,5.61,0,0,0-3,.7,2.11,2.11,0,0,0-1.1,1.82,1.66,1.66,0,0,0,1,1.58,14.59,14.59,0,0,0,3.13,1,29.66,29.66,0,0,1,3.46,1.06,5.61,5.61,0,0,1,2.28,1.64,4.41,4.41,0,0,1,1,3,4.77,4.77,0,0,1-1.82,3.82,7.79,7.79,0,0,1-5.13,1.51A13.39,13.39,0,0,1,1526.61,219.24Z"/><path d="M1545.85,218.36a9.61,9.61,0,0,1-2.47-7,11.79,11.79,0,0,1,.94-4.71,8,8,0,0,1,2.88-3.5,8.34,8.34,0,0,1,4.79-1.33,8.47,8.47,0,0,1,4.61,1.24,8.09,8.09,0,0,1,3,3.32,10.18,10.18,0,0,1,1,4.51,1.56,1.56,0,0,1-1.66,1.62h-12.2a5.91,5.91,0,0,0,1.87,3.93,6.47,6.47,0,0,0,4.43,1.4,10.4,10.4,0,0,0,2.64-.29,10.8,10.8,0,0,0,2.22-.82,1.34,1.34,0,0,1,.64-.15,1.42,1.42,0,0,1,1,.4,1.29,1.29,0,0,1,.43,1,1.56,1.56,0,0,1-.93,1.33,11.14,11.14,0,0,1-6.3,1.58A9.18,9.18,0,0,1,1545.85,218.36Zm11.47-8.55a5.82,5.82,0,0,0-.92-2.95,5,5,0,0,0-2-1.75,5.47,5.47,0,0,0-4.82,0,4.75,4.75,0,0,0-2,1.75,5.81,5.81,0,0,0-.9,2.95Z"/><path d="M1566.23,218.36a9.57,9.57,0,0,1-2.47-7,11.62,11.62,0,0,1,.94-4.71,8,8,0,0,1,2.88-3.5,8.3,8.3,0,0,1,4.78-1.33A8.42,8.42,0,0,1,1577,203a8,8,0,0,1,3,3.32,10,10,0,0,1,1,4.51,1.62,1.62,0,0,1-.45,1.16,1.59,1.59,0,0,1-1.2.46h-12.21a6,6,0,0,0,1.87,3.93,6.5,6.5,0,0,0,4.43,1.4,10.48,10.48,0,0,0,2.65-.29,10.94,10.94,0,0,0,2.21-.82,1.38,1.38,0,0,1,.65-.15,1.44,1.44,0,0,1,1,.4,1.29,1.29,0,0,1,.43,1,1.56,1.56,0,0,1-.94,1.33,11.14,11.14,0,0,1-6.3,1.58A9.17,9.17,0,0,1,1566.23,218.36Zm11.46-8.55a5.72,5.72,0,0,0-.92-2.95,5,5,0,0,0-2-1.75,5.49,5.49,0,0,0-4.83,0,4.87,4.87,0,0,0-2,1.75,5.81,5.81,0,0,0-.9,2.95Z"/><path d="M1306.4,263.41a1.56,1.56,0,0,1-.47-1.15V241.63h-7.34a1.43,1.43,0,0,1-1.08-.43,1.47,1.47,0,0,1-.44-1.08,1.53,1.53,0,0,1,.44-1.1,1.41,1.41,0,0,1,1.08-.45h17.93a1.48,1.48,0,0,1,1.09.45,1.5,1.5,0,0,1,.45,1.1,1.44,1.44,0,0,1-.45,1.08,1.5,1.5,0,0,1-1.09.43h-7.31v20.63a1.54,1.54,0,0,1-.49,1.15,1.58,1.58,0,0,1-1.17.47A1.52,1.52,0,0,1,1306.4,263.41Z"/><path d="M1322.49,263.41a1.56,1.56,0,0,1-.47-1.15v-22a1.62,1.62,0,0,1,.47-1.17,1.56,1.56,0,0,1,1.15-.49h8.21a11.79,11.79,0,0,1,5.58,1.16,7.11,7.11,0,0,1,3.1,3,8.58,8.58,0,0,1,0,7.77,7.18,7.18,0,0,1-3.1,3,11.92,11.92,0,0,1-5.58,1.15h-6.55v7.7a1.51,1.51,0,0,1-.49,1.15,1.58,1.58,0,0,1-1.17.47A1.54,1.54,0,0,1,1322.49,263.41Zm9-12c2.44,0,4.17-.47,5.16-1.4a4.82,4.82,0,0,0,0-7c-1-.93-2.72-1.4-5.16-1.4h-6.23v9.79Z"/><path d="M1356.67,263.41a5.09,5.09,0,0,1-2.14-1.89,5.16,5.16,0,0,1-.79-2.86,5.07,5.07,0,0,1,2.1-4.25,10.25,10.25,0,0,1,6.18-1.58h4.35v-.29a4.39,4.39,0,0,0-1.17-3.42,5.39,5.39,0,0,0-3.65-1,12.64,12.64,0,0,0-2.43.21,21.54,21.54,0,0,0-2.36.65,1.9,1.9,0,0,1-.47.07,1.27,1.27,0,0,1-.93-.39,1.31,1.31,0,0,1-.4-1,1.38,1.38,0,0,1,.94-1.37,15.71,15.71,0,0,1,6.23-1.3,8.15,8.15,0,0,1,4.19,1,6.31,6.31,0,0,1,2.52,2.61,7.6,7.6,0,0,1,.81,3.47v10.19a1.51,1.51,0,0,1-.49,1.15,1.58,1.58,0,0,1-1.17.47,1.54,1.54,0,0,1-1.15-.47,1.56,1.56,0,0,1-.47-1.15v-.93a9,9,0,0,1-6.76,2.73A6.6,6.6,0,0,1,1356.67,263.41Zm7.22-3a8.56,8.56,0,0,0,2.48-1.93v-3h-3.92c-3.62,0-5.44,1-5.44,2.84a2.67,2.67,0,0,0,.89,2.09,4.32,4.32,0,0,0,2.93.79A6.55,6.55,0,0,0,1363.89,260.41Z"/><path d="M1375.81,259.31V248.15h-2.56a.7.7,0,0,1-.49-.2.65.65,0,0,1-.19-.48.75.75,0,0,1,.32-.62l4.9-4.78a.89.89,0,0,1,.61-.33.61.61,0,0,1,.48.22.68.68,0,0,1,.2.5v2.88h4.07a1.36,1.36,0,0,1,1,.4,1.37,1.37,0,0,1,.39,1,1.41,1.41,0,0,1-.39,1,1.36,1.36,0,0,1-1,.41h-4.07V259c0,.94.22,1.53.67,1.78a3.25,3.25,0,0,0,1.67.38,5.12,5.12,0,0,0,1.44-.21l.31-.08a2.29,2.29,0,0,1,.41,0,1.23,1.23,0,0,1,.9.38,1.18,1.18,0,0,1,.4.91,1.35,1.35,0,0,1-.83,1.26,6.94,6.94,0,0,1-3,.65Q1375.81,264.06,1375.81,259.31Z"/><path d="M1399,263.41a1.55,1.55,0,0,1-.46-1.15V240.05a1.61,1.61,0,0,1,.46-1.17,1.58,1.58,0,0,1,1.16-.49,1.63,1.63,0,0,1,1.17.49,1.59,1.59,0,0,1,.48,1.17v9.58h13.65v-9.58a1.61,1.61,0,0,1,.46-1.17,1.58,1.58,0,0,1,1.16-.49,1.63,1.63,0,0,1,1.17.49,1.59,1.59,0,0,1,.48,1.17v22.21a1.53,1.53,0,0,1-.48,1.15,1.62,1.62,0,0,1-1.17.47,1.59,1.59,0,0,1-1.62-1.62v-9.57h-13.65v9.57a1.53,1.53,0,0,1-.48,1.15,1.62,1.62,0,0,1-1.17.47A1.56,1.56,0,0,1,1399,263.41Z"/><path d="M1426.76,263.41a5.09,5.09,0,0,1-2.14-1.89,5.16,5.16,0,0,1-.79-2.86,5,5,0,0,1,2.11-4.25,10.19,10.19,0,0,1,6.17-1.58h4.36v-.29a4.39,4.39,0,0,0-1.17-3.42,5.42,5.42,0,0,0-3.66-1,12.64,12.64,0,0,0-2.43.21,21.54,21.54,0,0,0-2.36.65,1.83,1.83,0,0,1-.46.07,1.29,1.29,0,0,1-.94-.39,1.35,1.35,0,0,1-.4-1,1.39,1.39,0,0,1,.94-1.37,15.75,15.75,0,0,1,6.23-1.3,8.15,8.15,0,0,1,4.19,1,6.31,6.31,0,0,1,2.52,2.61,7.6,7.6,0,0,1,.81,3.47v10.19a1.53,1.53,0,0,1-.48,1.15,1.62,1.62,0,0,1-1.17.47,1.59,1.59,0,0,1-1.62-1.62v-.93a9.07,9.07,0,0,1-6.77,2.73A6.6,6.6,0,0,1,1426.76,263.41Zm7.22-3a8.61,8.61,0,0,0,2.49-1.93v-3h-3.93q-5.43,0-5.43,2.84a2.66,2.66,0,0,0,.88,2.09,4.34,4.34,0,0,0,2.93.79A6.55,6.55,0,0,0,1434,260.41Z"/><path d="M1445.72,263.41a1.56,1.56,0,0,1-.47-1.15V238.9a1.62,1.62,0,0,1,.47-1.17,1.51,1.51,0,0,1,1.15-.49,1.61,1.61,0,0,1,1.66,1.66v23.36a1.54,1.54,0,0,1-.49,1.15,1.58,1.58,0,0,1-1.17.47A1.52,1.52,0,0,1,1445.72,263.41Z"/><path d="M1454.68,263.41a1.56,1.56,0,0,1-.47-1.15V238.9a1.62,1.62,0,0,1,.47-1.17,1.52,1.52,0,0,1,1.15-.49,1.61,1.61,0,0,1,1.66,1.66v23.36a1.51,1.51,0,0,1-.49,1.15,1.58,1.58,0,0,1-1.17.47A1.54,1.54,0,0,1,1454.68,263.41Z"/><path d="M1466.42,262.87a8,8,0,0,1-3.22-3.36,11.47,11.47,0,0,1,0-10,8,8,0,0,1,3.22-3.37,10.44,10.44,0,0,1,9.68,0,8.16,8.16,0,0,1,3.24,3.37,11.38,11.38,0,0,1,0,10,8.2,8.2,0,0,1-3.24,3.36,10.44,10.44,0,0,1-9.68,0Zm7.68-2.48a5.58,5.58,0,0,0,2.24-2.16,8.32,8.32,0,0,0,0-7.45,5.34,5.34,0,0,0-2.24-2.14,6.22,6.22,0,0,0-2.82-.67,6.3,6.3,0,0,0-2.86.67,5.24,5.24,0,0,0-2.22,2.14,8.5,8.5,0,0,0,0,7.45,5.47,5.47,0,0,0,2.22,2.16,6.18,6.18,0,0,0,2.86.68A6.11,6.11,0,0,0,1474.1,260.39Z"/><path d="M1489,263.45a2.21,2.21,0,0,1-.79-1.08l-5.11-15a1.71,1.71,0,0,1-.11-.61,1.54,1.54,0,0,1,.47-1.15,1.56,1.56,0,0,1,1.15-.47,1.68,1.68,0,0,1,.92.27,1.34,1.34,0,0,1,.55.7l4.22,13.86,4.17-13.53a1.77,1.77,0,0,1,.67-.94,1.85,1.85,0,0,1,2.19,0,1.77,1.77,0,0,1,.67.94l4.18,13.53,4.21-13.86a1.31,1.31,0,0,1,.56-.7,1.62,1.62,0,0,1,.91-.27,1.6,1.6,0,0,1,1.16.47,1.57,1.57,0,0,1,.46,1.15,1.94,1.94,0,0,1-.1.61l-5.12,15a2.15,2.15,0,0,1-.79,1.08,2.07,2.07,0,0,1-1.29.43,2.09,2.09,0,0,1-1.3-.43,2.45,2.45,0,0,1-.83-1.12l-3.81-11.91-3.82,11.91a2.38,2.38,0,0,1-.83,1.12,2.07,2.07,0,0,1-1.29.43A2.09,2.09,0,0,1,1489,263.45Z"/><path d="M1514.42,261.56a9.61,9.61,0,0,1-2.46-7,11.78,11.78,0,0,1,.93-4.71,8.13,8.13,0,0,1,2.88-3.5,8.36,8.36,0,0,1,4.79-1.33,8.45,8.45,0,0,1,4.61,1.24,8,8,0,0,1,2.95,3.32,10.18,10.18,0,0,1,1,4.51,1.62,1.62,0,0,1-.45,1.16,1.6,1.6,0,0,1-1.21.46h-12.2a5.91,5.91,0,0,0,1.87,3.93,6.48,6.48,0,0,0,4.43,1.4,10.48,10.48,0,0,0,2.65-.29,10.94,10.94,0,0,0,2.21-.82,1.38,1.38,0,0,1,.65-.15,1.44,1.44,0,0,1,1,.4,1.33,1.33,0,0,1,.43,1,1.56,1.56,0,0,1-.94,1.33,11.14,11.14,0,0,1-6.3,1.58A9.19,9.19,0,0,1,1514.42,261.56Zm11.47-8.55a5.72,5.72,0,0,0-.92-2.95,4.92,4.92,0,0,0-2-1.75,5.47,5.47,0,0,0-4.82,0,4.87,4.87,0,0,0-2,1.75,5.81,5.81,0,0,0-.9,2.95Z"/><path d="M1534.8,261.56a9.61,9.61,0,0,1-2.47-7,11.79,11.79,0,0,1,.94-4.71,8,8,0,0,1,2.88-3.5,8.34,8.34,0,0,1,4.79-1.33,8.47,8.47,0,0,1,4.61,1.24,8.09,8.09,0,0,1,3,3.32,10.18,10.18,0,0,1,1,4.51,1.56,1.56,0,0,1-1.66,1.62h-12.2a5.91,5.91,0,0,0,1.87,3.93A6.47,6.47,0,0,0,1542,261a10.4,10.4,0,0,0,2.64-.29,10.8,10.8,0,0,0,2.22-.82,1.34,1.34,0,0,1,.64-.15,1.42,1.42,0,0,1,1,.4,1.29,1.29,0,0,1,.43,1,1.56,1.56,0,0,1-.93,1.33,11.14,11.14,0,0,1-6.3,1.58A9.18,9.18,0,0,1,1534.8,261.56Zm11.47-8.55a5.82,5.82,0,0,0-.92-2.95,5,5,0,0,0-2-1.75,5.47,5.47,0,0,0-4.82,0,4.75,4.75,0,0,0-2,1.75,5.81,5.81,0,0,0-.9,2.95Z"/><path d="M1554.29,263.41a1.55,1.55,0,0,1-.46-1.15V246.82a1.61,1.61,0,0,1,.46-1.17,1.53,1.53,0,0,1,1.16-.49,1.66,1.66,0,0,1,1.65,1.66v1.47a12.21,12.21,0,0,1,3-2.41,7.49,7.49,0,0,1,3.75-.9,6.2,6.2,0,0,1,3.44.94,6.08,6.08,0,0,1,2.23,2.55,8.26,8.26,0,0,1,.77,3.57v10.22a1.53,1.53,0,0,1-.48,1.15,1.62,1.62,0,0,1-1.17.47,1.59,1.59,0,0,1-1.62-1.62V252.4q0-4.4-4-4.39a5.79,5.79,0,0,0-3.23.93,11.88,11.88,0,0,0-2.68,2.52v10.8a1.53,1.53,0,0,1-.48,1.15,1.62,1.62,0,0,1-1.17.47A1.55,1.55,0,0,1,1554.29,263.41Z"/><path d="M1575.48,268.81a1,1,0,0,1-.31-.75,1,1,0,0,1,.54-.9,4.1,4.1,0,0,0,1.37-1.26,3.87,3.87,0,0,0,.47-2.09h-.14a2,2,0,0,1-2-2v-.21a2,2,0,0,1,2-2h.36a2,2,0,0,1,2,2v2.12a5.79,5.79,0,0,1-3,5.26,1.14,1.14,0,0,1-.61.18A1,1,0,0,1,1575.48,268.81Z"/><path d="M1300.53,302.51V291.35H1298a.68.68,0,0,1-.69-.68.78.78,0,0,1,.32-.62l4.9-4.78a.91.91,0,0,1,.61-.33.63.63,0,0,1,.49.22.72.72,0,0,1,.2.5v2.88h4.07a1.37,1.37,0,0,1,1.4,1.41,1.37,1.37,0,0,1-.4,1,1.34,1.34,0,0,1-1,.41h-4.07v10.87c0,.94.22,1.53.66,1.78a3.29,3.29,0,0,0,1.68.38,5.12,5.12,0,0,0,1.44-.21l.3-.08a2.42,2.42,0,0,1,.42,0,1.26,1.26,0,0,1,.9.38,1.21,1.21,0,0,1,.39.91,1.34,1.34,0,0,1-.83,1.26,6.89,6.89,0,0,1-3,.65Q1300.53,307.26,1300.53,302.51Z"/><path d="M1313.67,306.61a1.56,1.56,0,0,1-.47-1.15V282.1a1.62,1.62,0,0,1,.47-1.17,1.52,1.52,0,0,1,1.15-.49,1.67,1.67,0,0,1,1.66,1.66v9.39a12,12,0,0,1,3-2.41,7.45,7.45,0,0,1,3.74-.9,6.18,6.18,0,0,1,3.44.94,6,6,0,0,1,2.23,2.55,8.12,8.12,0,0,1,.78,3.57v10.22a1.51,1.51,0,0,1-.49,1.15,1.58,1.58,0,0,1-1.17.47,1.54,1.54,0,0,1-1.15-.47,1.56,1.56,0,0,1-.47-1.15V295.6q0-4.39-4-4.39a5.75,5.75,0,0,0-3.22.93,11.88,11.88,0,0,0-2.68,2.52v10.8a1.51,1.51,0,0,1-.49,1.15,1.58,1.58,0,0,1-1.17.47A1.54,1.54,0,0,1,1313.67,306.61Z"/><path d="M1335.38,284.26a1.77,1.77,0,0,1-.54-1.3v-.14a1.84,1.84,0,0,1,1.83-1.84h.22a1.84,1.84,0,0,1,1.84,1.84V283a1.84,1.84,0,0,1-1.84,1.84h-.22A1.76,1.76,0,0,1,1335.38,284.26Zm.21,22.35a1.55,1.55,0,0,1-.46-1.15V290a1.61,1.61,0,0,1,.46-1.17,1.54,1.54,0,0,1,1.16-.49,1.61,1.61,0,0,1,1.65,1.66v15.44a1.53,1.53,0,0,1-.48,1.15,1.62,1.62,0,0,1-1.17.47A1.56,1.56,0,0,1,1335.59,306.61Z"/><path d="M1344.56,306.61a1.56,1.56,0,0,1-.47-1.15V290a1.62,1.62,0,0,1,.47-1.17,1.51,1.51,0,0,1,1.15-.49,1.56,1.56,0,0,1,1.17.49,1.6,1.6,0,0,1,.49,1.17v1.47a12,12,0,0,1,3-2.41,7.42,7.42,0,0,1,3.74-.9,6.18,6.18,0,0,1,3.44.94,6,6,0,0,1,2.23,2.55,8.12,8.12,0,0,1,.78,3.57v10.22a1.54,1.54,0,0,1-.49,1.15,1.58,1.58,0,0,1-1.17.47,1.52,1.52,0,0,1-1.15-.47,1.56,1.56,0,0,1-.47-1.15V295.6q0-4.39-4-4.39a5.75,5.75,0,0,0-3.22.93,11.88,11.88,0,0,0-2.68,2.52v10.8a1.54,1.54,0,0,1-.49,1.15,1.58,1.58,0,0,1-1.17.47A1.52,1.52,0,0,1,1344.56,306.61Z"/><path d="M1366.48,306.61a1.56,1.56,0,0,1-.47-1.15V282.1a1.62,1.62,0,0,1,.47-1.17,1.52,1.52,0,0,1,1.15-.49,1.67,1.67,0,0,1,1.66,1.66v14.72l8.57-7.92a1.67,1.67,0,0,1,1.08-.47,1.45,1.45,0,0,1,1.2.47,1.69,1.69,0,0,1,.38,1.12,1.74,1.74,0,0,1-.61,1.22l-5.18,4.65,6.51,8.64a1.56,1.56,0,0,1,.36,1,1.47,1.47,0,0,1-.47,1.15,1.65,1.65,0,0,1-1.18.43,1.6,1.6,0,0,1-.72-.18,1.88,1.88,0,0,1-.62-.5l-6.19-8.43-3.13,2.85v4.64a1.51,1.51,0,0,1-.49,1.15,1.58,1.58,0,0,1-1.17.47A1.54,1.54,0,0,1,1366.48,306.61Z"/><path d="M1398.23,306.07a8.09,8.09,0,0,1-3.22-3.36,11.56,11.56,0,0,1,0-10,8.06,8.06,0,0,1,3.22-3.37,9.72,9.72,0,0,1,4.86-1.19,9.61,9.61,0,0,1,4.83,1.19,8.16,8.16,0,0,1,3.24,3.37,11.38,11.38,0,0,1,0,10,8.2,8.2,0,0,1-3.24,3.36,9.51,9.51,0,0,1-4.83,1.19A9.62,9.62,0,0,1,1398.23,306.07Zm7.69-2.48a5.49,5.49,0,0,0,2.23-2.16,8.32,8.32,0,0,0,0-7.45,5.31,5.31,0,0,0-2.23-2.14,6.23,6.23,0,0,0-2.83-.67,6.33,6.33,0,0,0-2.86.67A5.16,5.16,0,0,0,1398,294a8.41,8.41,0,0,0,0,7.45,5.33,5.33,0,0,0,2.21,2.16,6.21,6.21,0,0,0,2.86.68A6.12,6.12,0,0,0,1405.92,303.59Z"/><path d="M1418.54,306.61a1.56,1.56,0,0,1-.47-1.15V291.35H1416a1.42,1.42,0,0,1-1.41-1.4,1.32,1.32,0,0,1,.42-1,1.34,1.34,0,0,1,1-.4h2.12v-2.09a7.25,7.25,0,0,1,.77-3.54,4.79,4.79,0,0,1,2-2,5.71,5.71,0,0,1,2.61-.63,6.89,6.89,0,0,1,3.13.72,1.67,1.67,0,0,1,.6.52,1.33,1.33,0,0,1-.17,1.7,1.25,1.25,0,0,1-.93.41,3.51,3.51,0,0,1-.83-.11l-1-.11a3.16,3.16,0,0,0-2.22.69,3.31,3.31,0,0,0-.73,2.48v2h4.5a1.37,1.37,0,0,1,1.4,1.41,1.37,1.37,0,0,1-.4,1,1.34,1.34,0,0,1-1,.41h-4.5v14.11a1.54,1.54,0,0,1-.49,1.15,1.58,1.58,0,0,1-1.17.47A1.52,1.52,0,0,1,1418.54,306.61Z"/><path d="M1440.89,302.51V291.35h-2.55a.68.68,0,0,1-.49-.2.66.66,0,0,1-.2-.48.77.77,0,0,1,.33-.62l4.89-4.78a.91.91,0,0,1,.62-.33.61.61,0,0,1,.48.22.72.72,0,0,1,.2.5v2.88h4.07a1.36,1.36,0,0,1,1,.4,1.37,1.37,0,0,1,.39,1,1.41,1.41,0,0,1-.39,1,1.36,1.36,0,0,1-1,.41h-4.07v10.87c0,.94.22,1.53.67,1.78a3.25,3.25,0,0,0,1.67.38,5.12,5.12,0,0,0,1.44-.21l.31-.08a2.22,2.22,0,0,1,.41,0,1.26,1.26,0,0,1,.9.38,1.22,1.22,0,0,1,.4.91,1.35,1.35,0,0,1-.83,1.26,6.94,6.94,0,0,1-3,.65C1442.65,307.26,1440.89,305.68,1440.89,302.51Z"/><path d="M1454,306.61a1.56,1.56,0,0,1-.47-1.15V282.1a1.62,1.62,0,0,1,.47-1.17,1.52,1.52,0,0,1,1.15-.49,1.67,1.67,0,0,1,1.66,1.66v9.39a12.21,12.21,0,0,1,3-2.41,7.49,7.49,0,0,1,3.75-.9,6.15,6.15,0,0,1,3.43.94,6,6,0,0,1,2.24,2.55,8.26,8.26,0,0,1,.77,3.57v10.22a1.51,1.51,0,0,1-.49,1.15,1.58,1.58,0,0,1-1.17.47,1.54,1.54,0,0,1-1.15-.47,1.56,1.56,0,0,1-.47-1.15V295.6q0-4.39-4-4.39a5.75,5.75,0,0,0-3.22.93,11.88,11.88,0,0,0-2.68,2.52v10.8a1.51,1.51,0,0,1-.49,1.15,1.58,1.58,0,0,1-1.17.47A1.54,1.54,0,0,1,1454,306.61Z"/><path d="M1475.74,284.26a1.77,1.77,0,0,1-.54-1.3v-.14A1.84,1.84,0,0,1,1477,281h.21a1.84,1.84,0,0,1,1.84,1.84V283a1.84,1.84,0,0,1-1.84,1.84H1477A1.77,1.77,0,0,1,1475.74,284.26Zm.22,22.35a1.52,1.52,0,0,1-.47-1.15V290a1.58,1.58,0,0,1,.47-1.17,1.51,1.51,0,0,1,1.15-.49,1.64,1.64,0,0,1,1.19.47,1.61,1.61,0,0,1,.46,1.19v15.44a1.53,1.53,0,0,1-.48,1.15,1.62,1.62,0,0,1-1.17.47A1.52,1.52,0,0,1,1476,306.61Z"/><path d="M1483.84,305.64a1.37,1.37,0,0,1-.61-1.19,1.43,1.43,0,0,1,.39-1,1.32,1.32,0,0,1,1-.44,1.54,1.54,0,0,1,.65.15,14.24,14.24,0,0,0,2.3.79,10.88,10.88,0,0,0,2.6.29q4,0,4-2.56a1.36,1.36,0,0,0-.92-1.26,18.52,18.52,0,0,0-3-1,27.48,27.48,0,0,1-3.51-1,6.17,6.17,0,0,1-2.38-1.64,4.16,4.16,0,0,1-1-2.9,5.18,5.18,0,0,1,1.82-4.1,7.66,7.66,0,0,1,5.2-1.59,15,15,0,0,1,5.22.9,1.39,1.39,0,0,1,.78.54,1.46,1.46,0,0,1,.27.83,1.42,1.42,0,0,1-.42,1,1.35,1.35,0,0,1-1,.43,1.9,1.9,0,0,1-.47-.07,13.87,13.87,0,0,0-4.11-.65,5.61,5.61,0,0,0-3,.7,2.11,2.11,0,0,0-1.1,1.82,1.66,1.66,0,0,0,1,1.58,14.59,14.59,0,0,0,3.13,1,29.66,29.66,0,0,1,3.46,1.06,5.71,5.71,0,0,1,2.29,1.64,4.46,4.46,0,0,1,.95,3,4.77,4.77,0,0,1-1.82,3.82,7.79,7.79,0,0,1-5.13,1.51A13.39,13.39,0,0,1,1483.84,305.64Z"/><path d="M1511.56,306.61a1.56,1.56,0,0,1-.47-1.15V290a1.62,1.62,0,0,1,.47-1.17,1.52,1.52,0,0,1,1.15-.49,1.67,1.67,0,0,1,1.66,1.66v1.47a9,9,0,0,1,2.43-2.37,6.56,6.56,0,0,1,3.69-.94,5.59,5.59,0,0,1,3.45,1.08,6.07,6.07,0,0,1,2.06,2.63,7.24,7.24,0,0,1,6.62-3.71,5.5,5.5,0,0,1,3.37,1,6,6,0,0,1,2,2.59,8.53,8.53,0,0,1,.65,3.31v10.37a1.53,1.53,0,0,1-.48,1.15,1.62,1.62,0,0,1-1.17.47,1.59,1.59,0,0,1-1.62-1.62v-9.72a5.77,5.77,0,0,0-.83-3.44,3.35,3.35,0,0,0-2.85-1.09,4.74,4.74,0,0,0-3,1,9.31,9.31,0,0,0-2.14,2.5v10.8a1.51,1.51,0,0,1-.49,1.15,1.58,1.58,0,0,1-1.17.47,1.54,1.54,0,0,1-1.15-.47,1.56,1.56,0,0,1-.47-1.15v-9.72a5.77,5.77,0,0,0-.82-3.44,3.36,3.36,0,0,0-2.85-1.09,4.72,4.72,0,0,0-3,1,9.31,9.31,0,0,0-2.14,2.5v10.8a1.51,1.51,0,0,1-.49,1.15,1.58,1.58,0,0,1-1.17.47A1.54,1.54,0,0,1,1511.56,306.61Z"/><path d="M1545.49,304.76a9.61,9.61,0,0,1-2.47-7A11.79,11.79,0,0,1,1544,293a8,8,0,0,1,2.88-3.5,8.34,8.34,0,0,1,4.79-1.33,8.47,8.47,0,0,1,4.61,1.24,8.09,8.09,0,0,1,3,3.32,10.18,10.18,0,0,1,1,4.51,1.56,1.56,0,0,1-1.66,1.62h-12.2a5.91,5.91,0,0,0,1.87,3.93,6.47,6.47,0,0,0,4.43,1.4,10.4,10.4,0,0,0,2.64-.29,10.8,10.8,0,0,0,2.22-.82,1.34,1.34,0,0,1,.64-.15,1.42,1.42,0,0,1,1,.4,1.29,1.29,0,0,1,.43,1,1.55,1.55,0,0,1-.93,1.33,11.14,11.14,0,0,1-6.3,1.58A9.18,9.18,0,0,1,1545.49,304.76Zm11.47-8.55a5.85,5.85,0,0,0-.92-2.95,5,5,0,0,0-2-1.75,5.47,5.47,0,0,0-4.82,0,4.75,4.75,0,0,0-2,1.75,5.84,5.84,0,0,0-.9,2.95Z"/><path d="M1563.9,305.64a1.46,1.46,0,0,1-.21-2.19,1.3,1.3,0,0,1,1-.44,1.5,1.5,0,0,1,.64.15,14,14,0,0,0,2.31.79,10.8,10.8,0,0,0,2.59.29c2.66,0,4-.85,4-2.56a1.37,1.37,0,0,0-.92-1.26,18.71,18.71,0,0,0-3-1,28.5,28.5,0,0,1-3.51-1,6.21,6.21,0,0,1-2.37-1.64,4.16,4.16,0,0,1-1-2.9,5.17,5.17,0,0,1,1.81-4.1,7.69,7.69,0,0,1,5.21-1.59,15.07,15.07,0,0,1,5.22.9,1.4,1.4,0,0,1,.77.54,1.46,1.46,0,0,1,.27.83,1.45,1.45,0,0,1-.41,1,1.37,1.37,0,0,1-1,.43,1.9,1.9,0,0,1-.47-.07,13.85,13.85,0,0,0-4.1-.65,5.58,5.58,0,0,0-3,.7,2.09,2.09,0,0,0-1.1,1.82,1.64,1.64,0,0,0,1,1.58,14.4,14.4,0,0,0,3.13,1,29.41,29.41,0,0,1,3.45,1.06,5.71,5.71,0,0,1,2.29,1.64,4.41,4.41,0,0,1,1,3,4.76,4.76,0,0,1-1.81,3.82,7.83,7.83,0,0,1-5.13,1.51A13.43,13.43,0,0,1,1563.9,305.64Z"/><path d="M1581.18,305.64a1.46,1.46,0,0,1-.21-2.19,1.3,1.3,0,0,1,1-.44,1.5,1.5,0,0,1,.64.15,14,14,0,0,0,2.31.79,10.8,10.8,0,0,0,2.59.29c2.66,0,4-.85,4-2.56a1.37,1.37,0,0,0-.92-1.26,18.71,18.71,0,0,0-3-1,28.5,28.5,0,0,1-3.51-1,6.21,6.21,0,0,1-2.37-1.64,4.16,4.16,0,0,1-1-2.9,5.17,5.17,0,0,1,1.81-4.1,7.69,7.69,0,0,1,5.21-1.59,15.07,15.07,0,0,1,5.22.9,1.4,1.4,0,0,1,.77.54,1.46,1.46,0,0,1,.27.83,1.45,1.45,0,0,1-.41,1,1.37,1.37,0,0,1-1,.43,1.9,1.9,0,0,1-.47-.07,13.85,13.85,0,0,0-4.1-.65,5.58,5.58,0,0,0-3,.7,2.09,2.09,0,0,0-1.1,1.82,1.64,1.64,0,0,0,1,1.58,14.4,14.4,0,0,0,3.13,1,29.41,29.41,0,0,1,3.45,1.06,5.71,5.71,0,0,1,2.29,1.64,4.41,4.41,0,0,1,1,3,4.76,4.76,0,0,1-1.81,3.82,7.83,7.83,0,0,1-5.13,1.51A13.43,13.43,0,0,1,1581.18,305.64Z"/><path d="M1601.94,314.89a1.54,1.54,0,0,1-.45-1.11,1.49,1.49,0,0,1,.11-.58l2.34-6-6.77-16.49a1.78,1.78,0,0,1-.15-.68,1.62,1.62,0,0,1,.47-1.17,1.52,1.52,0,0,1,1.15-.49,1.57,1.57,0,0,1,.92.29,1.6,1.6,0,0,1,.6.72l5.54,13.75,5.65-13.68a1.57,1.57,0,0,1,1.51-1.08,1.54,1.54,0,0,1,1.16.49,1.61,1.61,0,0,1,.46,1.17,1.77,1.77,0,0,1-.1.61l-9.83,23.62a1.62,1.62,0,0,1-1.51,1.11A1.43,1.43,0,0,1,1601.94,314.89Z"/><path d="M1303.81,358.2a13.86,13.86,0,0,1-3.5-1.33,1.36,1.36,0,0,1-.64-1.26,1.47,1.47,0,0,1,.41-1,1.35,1.35,0,0,1,1-.45,1.68,1.68,0,0,1,.64.15,13.16,13.16,0,0,0,5.94,1.37c3.68,0,5.51-2,5.51-5.87v-2.41a8.11,8.11,0,0,1-6.15,2.73,8.69,8.69,0,0,1-4.13-1.06,8.6,8.6,0,0,1-3.29-3.17,10.77,10.77,0,0,1,0-10.26,8.67,8.67,0,0,1,3.29-3.17,8.81,8.81,0,0,1,4.13-1.06,8.09,8.09,0,0,1,6.15,2.74v-.9a1.62,1.62,0,0,1,.47-1.17,1.52,1.52,0,0,1,1.15-.49,1.67,1.67,0,0,1,1.66,1.66v16.09q0,4.53-2.2,7a7.94,7.94,0,0,1-6.26,2.45A17,17,0,0,1,1303.81,358.2Zm6.91-11.81a10.67,10.67,0,0,0,2.48-1.94V337a11,11,0,0,0-2.48-1.94,6.68,6.68,0,0,0-7.4.92,7.41,7.41,0,0,0,0,9.47,6.7,6.7,0,0,0,7.4.91Z"/><path d="M1325.41,349.27a8.05,8.05,0,0,1-3.23-3.36,11.56,11.56,0,0,1,0-10,8,8,0,0,1,3.23-3.37,10.44,10.44,0,0,1,9.68,0,8.16,8.16,0,0,1,3.24,3.37,11.38,11.38,0,0,1,0,10,8.2,8.2,0,0,1-3.24,3.36,10.44,10.44,0,0,1-9.68,0Zm7.68-2.48a5.5,5.5,0,0,0,2.23-2.16,8.24,8.24,0,0,0,0-7.45,5.26,5.26,0,0,0-2.23-2.14,6.22,6.22,0,0,0-2.82-.67,6.34,6.34,0,0,0-2.87.67,5.22,5.22,0,0,0-2.21,2.14,8.5,8.5,0,0,0,0,7.45,5.45,5.45,0,0,0,2.21,2.16,6.22,6.22,0,0,0,2.87.68A6.11,6.11,0,0,0,1333.09,346.79Z"/><path d="M1347.33,347.73v.93a1.51,1.51,0,0,1-.49,1.15,1.62,1.62,0,0,1-1.17.47,1.58,1.58,0,0,1-1.15-.47,1.56,1.56,0,0,1-.47-1.15V325.3a1.62,1.62,0,0,1,.47-1.17,1.52,1.52,0,0,1,1.15-.49,1.61,1.61,0,0,1,1.66,1.66v8.82a8.25,8.25,0,0,1,6.16-2.74,8.45,8.45,0,0,1,4.23,1.14,8.6,8.6,0,0,1,3.24,3.31,11.09,11.09,0,0,1,0,10.19,8.67,8.67,0,0,1-3.24,3.31,8.54,8.54,0,0,1-4.23,1.13A8.27,8.27,0,0,1,1347.33,347.73Zm10-2a7.89,7.89,0,0,0,0-9.58,5.69,5.69,0,0,0-4.28-1.69,6.86,6.86,0,0,0-3.12.74,8.91,8.91,0,0,0-2.57,2v7.56a8.74,8.74,0,0,0,2.57,2,6.73,6.73,0,0,0,3.12.74A5.65,5.65,0,0,0,1357.3,345.71Z"/><path d="M1367.24,349.81a1.56,1.56,0,0,1-.47-1.15V325.3a1.62,1.62,0,0,1,.47-1.17,1.51,1.51,0,0,1,1.15-.49,1.61,1.61,0,0,1,1.66,1.66v23.36a1.54,1.54,0,0,1-.49,1.15,1.62,1.62,0,0,1-1.17.47A1.56,1.56,0,0,1,1367.24,349.81Z"/><path d="M1376,327.46a1.77,1.77,0,0,1-.54-1.3V326a1.84,1.84,0,0,1,1.83-1.84h.22a1.84,1.84,0,0,1,1.83,1.84v.14a1.84,1.84,0,0,1-1.83,1.84h-.22A1.76,1.76,0,0,1,1376,327.46Zm.21,22.35a1.56,1.56,0,0,1-.47-1.15V333.22a1.62,1.62,0,0,1,.47-1.17,1.52,1.52,0,0,1,1.15-.49,1.61,1.61,0,0,1,1.66,1.66v15.44a1.51,1.51,0,0,1-.49,1.15,1.62,1.62,0,0,1-1.17.47A1.58,1.58,0,0,1,1376.2,349.81Z"/><path d="M1385.17,349.81a1.52,1.52,0,0,1-.47-1.15V333.22a1.58,1.58,0,0,1,.47-1.17,1.51,1.51,0,0,1,1.15-.49,1.66,1.66,0,0,1,1.65,1.66v1.47a12.25,12.25,0,0,1,3-2.41,7.42,7.42,0,0,1,3.74-.9,6.18,6.18,0,0,1,3.44.94,6.08,6.08,0,0,1,2.23,2.55,8.12,8.12,0,0,1,.77,3.57v10.22a1.53,1.53,0,0,1-.48,1.15,1.66,1.66,0,0,1-1.17.47,1.56,1.56,0,0,1-1.15-.47,1.52,1.52,0,0,1-.47-1.15V338.8q0-4.4-4-4.39a5.73,5.73,0,0,0-3.22.93,11.92,11.92,0,0,0-2.69,2.52v10.8a1.53,1.53,0,0,1-.48,1.15,1.66,1.66,0,0,1-1.17.47A1.56,1.56,0,0,1,1385.17,349.81Z"/><path d="M1415.37,348.84a1.37,1.37,0,0,1-.61-1.19,1.43,1.43,0,0,1,.39-1,1.32,1.32,0,0,1,1-.44,1.54,1.54,0,0,1,.65.15,15.28,15.28,0,0,0,2.3.79,10.88,10.88,0,0,0,2.6.29q4,0,4-2.56a1.36,1.36,0,0,0-.92-1.26,18.52,18.52,0,0,0-3-1,27.48,27.48,0,0,1-3.51-1,6.17,6.17,0,0,1-2.38-1.64,4.16,4.16,0,0,1-1-2.9,5.18,5.18,0,0,1,1.82-4.1,7.66,7.66,0,0,1,5.2-1.59,15,15,0,0,1,5.22.9,1.39,1.39,0,0,1,.78.54,1.46,1.46,0,0,1,.27.83,1.42,1.42,0,0,1-.42,1,1.35,1.35,0,0,1-1,.43,1.9,1.9,0,0,1-.47-.07,13.87,13.87,0,0,0-4.11-.65,5.61,5.61,0,0,0-3,.7,2.11,2.11,0,0,0-1.1,1.82,1.66,1.66,0,0,0,1,1.58,14.59,14.59,0,0,0,3.13,1,29.66,29.66,0,0,1,3.46,1.06,5.71,5.71,0,0,1,2.29,1.64,4.46,4.46,0,0,1,.95,3,4.77,4.77,0,0,1-1.82,3.82,7.79,7.79,0,0,1-5.13,1.51A13.39,13.39,0,0,1,1415.37,348.84Z"/><path d="M1437,349.31a8.93,8.93,0,0,1-3.51-3.31,10.49,10.49,0,0,1,0-10.15,9,9,0,0,1,3.51-3.32,10.23,10.23,0,0,1,4.79-1.15,9.79,9.79,0,0,1,3.29.49,12.54,12.54,0,0,1,2.58,1.24,1.43,1.43,0,0,1,.3,2.25,1.25,1.25,0,0,1-1,.45,1.55,1.55,0,0,1-.79-.22,14.71,14.71,0,0,0-2-.88,7,7,0,0,0-2.1-.27,6.54,6.54,0,0,0-4.86,1.78,7.13,7.13,0,0,0,0,9.4,6.5,6.5,0,0,0,4.86,1.78,7,7,0,0,0,2.1-.27,13.58,13.58,0,0,0,2-.88,1.65,1.65,0,0,1,.79-.22,1.25,1.25,0,0,1,1,.45,1.43,1.43,0,0,1-.3,2.25,12.57,12.57,0,0,1-2.58,1.25,10.92,10.92,0,0,1-8.08-.67Z"/><path d="M1453.65,348a9.61,9.61,0,0,1-2.46-7,11.78,11.78,0,0,1,.93-4.71,8.13,8.13,0,0,1,2.88-3.5,8.36,8.36,0,0,1,4.79-1.33,8.45,8.45,0,0,1,4.61,1.24,8,8,0,0,1,2.95,3.32,10.18,10.18,0,0,1,1,4.51,1.62,1.62,0,0,1-.45,1.16,1.59,1.59,0,0,1-1.2.46H1454.5a6,6,0,0,0,1.87,3.93,6.48,6.48,0,0,0,4.43,1.4,10.48,10.48,0,0,0,2.65-.29,10.94,10.94,0,0,0,2.21-.82,1.38,1.38,0,0,1,.65-.15,1.44,1.44,0,0,1,1,.4,1.33,1.33,0,0,1,.43,1,1.56,1.56,0,0,1-.94,1.33,11.14,11.14,0,0,1-6.3,1.58A9.19,9.19,0,0,1,1453.65,348Zm11.47-8.55a5.72,5.72,0,0,0-.92-3,5,5,0,0,0-2-1.75,5.49,5.49,0,0,0-4.83,0,4.87,4.87,0,0,0-2,1.75,5.81,5.81,0,0,0-.9,3Z"/><path d="M1473.15,349.81a1.56,1.56,0,0,1-.47-1.15V333.22a1.62,1.62,0,0,1,.47-1.17,1.51,1.51,0,0,1,1.15-.49,1.56,1.56,0,0,1,1.17.49,1.6,1.6,0,0,1,.49,1.17v1.47a12,12,0,0,1,3-2.41,7.42,7.42,0,0,1,3.74-.9,6.18,6.18,0,0,1,3.44.94,6,6,0,0,1,2.23,2.55,8.12,8.12,0,0,1,.78,3.57v10.22a1.51,1.51,0,0,1-.49,1.15,1.62,1.62,0,0,1-1.17.47,1.6,1.6,0,0,1-1.62-1.62V338.8q0-4.4-4-4.39a5.75,5.75,0,0,0-3.22.93,11.88,11.88,0,0,0-2.68,2.52v10.8a1.54,1.54,0,0,1-.49,1.15,1.62,1.62,0,0,1-1.17.47A1.56,1.56,0,0,1,1473.15,349.81Z"/><path d="M1496,348a9.61,9.61,0,0,1-2.46-7,11.78,11.78,0,0,1,.93-4.71,8.13,8.13,0,0,1,2.88-3.5,8.36,8.36,0,0,1,4.79-1.33,8.45,8.45,0,0,1,4.61,1.24,8,8,0,0,1,3,3.32,10.18,10.18,0,0,1,1,4.51,1.62,1.62,0,0,1-.45,1.16,1.6,1.6,0,0,1-1.21.46h-12.2a6,6,0,0,0,1.87,3.93,6.48,6.48,0,0,0,4.43,1.4,10.48,10.48,0,0,0,2.65-.29,10.94,10.94,0,0,0,2.21-.82,1.38,1.38,0,0,1,.65-.15,1.44,1.44,0,0,1,1,.4,1.33,1.33,0,0,1,.43,1,1.56,1.56,0,0,1-.94,1.33,11.14,11.14,0,0,1-6.3,1.58A9.19,9.19,0,0,1,1496,348Zm11.47-8.55a5.72,5.72,0,0,0-.92-3,4.92,4.92,0,0,0-2-1.75,5.47,5.47,0,0,0-4.82,0,4.87,4.87,0,0,0-2,1.75,5.81,5.81,0,0,0-.9,3Z"/><path d="M1515.21,349.62a2,2,0,0,1-.59-1.43V348a2,2,0,0,1,2-2h.36a2,2,0,0,1,2,2v.21a2,2,0,0,1-2,2h-.36A2,2,0,0,1,1515.21,349.62Z"/></svg>