<svg id="Layer_1" data-name="Layer 1" xmlns="http://www.w3.org/2000/svg" viewBox="0 0 1920 1080"><defs><style>.cls-1{fill:#c69c6d;}.cls-2{fill:#cb223c;}.cls-3{fill:#fbb03b;}.cls-4{fill:#6a4543;}.cls-5{fill:#a67c52;}.cls-6{fill:#528909;}.cls-7{fill:#e1e6e8;}.cls-8{fill:#42210b;}.cls-9{fill:#f7bdb3;}.cls-10{fill:#537bb8;}.cls-11{fill:#0071bc;}.cls-12{fill:#333;}</style></defs><path class="cls-1" d="M238.67,470.93c0,25.83.58,16.23-13.78,16.23-13.78,0-14.36,9.6-14.36-16.23s9.76-172.76,14.07-172.76S238.67,445.1,238.67,470.93Z"/><path class="cls-2" d="M319.49,393.76c0,25.83,3.88,16.23-91.16,16.23-91.17,0-95,9.6-95-16.23S197.94,221,226.43,221,319.49,367.93,319.49,393.76Z"/><circle class="cls-3" cx="280.93" cy="355.13" r="12.86"/><circle class="cls-3" cx="251.53" cy="380.85" r="9.19"/><circle class="cls-3" cx="246.02" cy="349.62" r="7.35"/><path class="cls-4" d="M706.31,887c-.68,5.08-3.24,7.31-6,6.94s-4.62-3.19-3.94-8.27,3.89-12.12,6.62-11.75S707,881.86,706.31,887Z"/><path class="cls-3" d="M697.83,882.6c3.18,5.5,2.81,9.34.42,10.73s-5.9-.23-9.08-5.73-5.81-14.54-3.42-15.93S694.65,877.1,697.83,882.6Z"/><path class="cls-2" d="M715.74,892c-3.45,3.79-6.82,4.16-8.86,2.3s-2-5.25,1.47-9,10.09-7.75,12.13-5.89S719.2,888.25,715.74,892Z"/><path class="cls-5" d="M576.11,837.37H204.73C132,837,143,815,177,762s12.61-281.89,12.61-281.89A22.11,22.11,0,0,1,211.73,458L381,276,562.11,444a22.11,22.11,0,0,1,22.11,22.11S570,724,602,760,690,837,576.11,837.37Z"/><path class="cls-6" d="M305,835c0,28.17-113.83,21-142,21s-60-.83-60-29,39.82-38.89,53-14C183,864,305,806.83,305,835Z"/><path class="cls-6" d="M475,835c0,28.17,113.83,21,142,21s60-.83,60-29-39.82-38.89-53-14C597,864,475,806.83,475,835Z"/><rect class="cls-7" x="295.19" y="832.8" width="189.12" height="41.2"/><path d="M169.06,153.35a11.2,11.2,0,0,1-4.5-4.5,15.17,15.17,0,0,1,0-13.72,11.33,11.33,0,0,1,4.5-4.5,13.28,13.28,0,0,1,6.46-1.56,15.5,15.5,0,0,1,4.38.57,19,19,0,0,1,3.83,1.66,1.44,1.44,0,0,1,.79,1.37,1.3,1.3,0,0,1-.4,1,1.36,1.36,0,0,1-1,.42,1.38,1.38,0,0,1-.65-.15,16.48,16.48,0,0,0-3.09-1.26,12.72,12.72,0,0,0-3.49-.43,10.27,10.27,0,0,0-5.28,1.28,8.24,8.24,0,0,0-3.28,3.49,12.1,12.1,0,0,0,0,10,8.32,8.32,0,0,0,3.28,3.5,10.27,10.27,0,0,0,5.28,1.27,12.72,12.72,0,0,0,3.49-.43,16.48,16.48,0,0,0,3.09-1.26,1.51,1.51,0,0,1,.65-.14,1.41,1.41,0,0,1,1,.39,1.32,1.32,0,0,1,.4,1,1.43,1.43,0,0,1-.79,1.36,18.43,18.43,0,0,1-3.83,1.66,15.49,15.49,0,0,1-4.38.58A13.28,13.28,0,0,1,169.06,153.35Z"/><path d="M189,154.27a1.58,1.58,0,0,1-.47-1.15V137.67a1.66,1.66,0,0,1,.47-1.17,1.55,1.55,0,0,1,1.15-.48,1.66,1.66,0,0,1,1.66,1.65v1.55c1.68-2.26,3.56-3.38,5.65-3.38h.18a1.49,1.49,0,0,1,1.13.46,1.62,1.62,0,0,1,.45,1.16,1.45,1.45,0,0,1-.46,1.11,1.69,1.69,0,0,1-1.19.43h-.18a6.19,6.19,0,0,0-3.17.85,7.3,7.3,0,0,0-2.41,2.32v11a1.52,1.52,0,0,1-.49,1.15,1.62,1.62,0,0,1-1.17.47A1.58,1.58,0,0,1,189,154.27Z"/><path d="M205,153.73a8.05,8.05,0,0,1-3.22-3.37,11.47,11.47,0,0,1,0-10A8.11,8.11,0,0,1,205,137a10.52,10.52,0,0,1,9.68,0,8.16,8.16,0,0,1,3.24,3.37,11.29,11.29,0,0,1,0,10,8.1,8.1,0,0,1-3.24,3.37,10.44,10.44,0,0,1-9.68,0Zm7.69-2.49a5.43,5.43,0,0,0,2.23-2.16,8.32,8.32,0,0,0,0-7.45,5.38,5.38,0,0,0-2.23-2.14,6.38,6.38,0,0,0-5.69,0,5.3,5.3,0,0,0-2.22,2.14,8.5,8.5,0,0,0,0,7.45,5.35,5.35,0,0,0,2.22,2.16,6.21,6.21,0,0,0,5.69,0Z"/><path d="M227.4,153.76a8.73,8.73,0,0,1-3.51-3.31,10.42,10.42,0,0,1,0-10.15A8.8,8.8,0,0,1,227.4,137a10.91,10.91,0,0,1,8.08-.67,13,13,0,0,1,2.57,1.24,1.44,1.44,0,0,1,.31,2.25,1.28,1.28,0,0,1-1,.45,1.7,1.7,0,0,1-.79-.21,13.53,13.53,0,0,0-2-.88,7.08,7.08,0,0,0-2.11-.27,6.53,6.53,0,0,0-4.86,1.78,7.14,7.14,0,0,0,0,9.39,6.54,6.54,0,0,0,4.86,1.79,7.08,7.08,0,0,0,2.11-.27,13.72,13.72,0,0,0,2-.89,1.7,1.7,0,0,1,.79-.21,1.28,1.28,0,0,1,1,.45,1.45,1.45,0,0,1,.41,1,1.43,1.43,0,0,1-.72,1.26,12.46,12.46,0,0,1-2.57,1.24,10.78,10.78,0,0,1-8.08-.67Z"/><path d="M252.7,154.27a1.58,1.58,0,0,1-.47-1.15V129.75a1.66,1.66,0,0,1,.47-1.17,1.56,1.56,0,0,1,1.15-.48,1.66,1.66,0,0,1,1.66,1.65v9.4a12,12,0,0,1,2.95-2.41,7.49,7.49,0,0,1,3.75-.9,6.28,6.28,0,0,1,3.44.93,6.17,6.17,0,0,1,2.23,2.56,8.24,8.24,0,0,1,.77,3.56v10.23a1.55,1.55,0,0,1-.48,1.15,1.66,1.66,0,0,1-1.18.47,1.59,1.59,0,0,1-1.61-1.62v-9.87q0-4.4-4-4.39a5.69,5.69,0,0,0-3.23.94,11.45,11.45,0,0,0-2.68,2.52v10.8a1.52,1.52,0,0,1-.49,1.15,1.62,1.62,0,0,1-1.17.47A1.59,1.59,0,0,1,252.7,154.27Z"/><path d="M275.9,154.27a5.11,5.11,0,0,1-2.93-4.75,5,5,0,0,1,2.11-4.25q2.1-1.59,6.17-1.59h4.36v-.28a4.36,4.36,0,0,0-1.17-3.42,5.37,5.37,0,0,0-3.66-1,11.85,11.85,0,0,0-2.43.22,20,20,0,0,0-2.36.65,2.46,2.46,0,0,1-.46.07,1.26,1.26,0,0,1-.94-.4,1.34,1.34,0,0,1-.4-1,1.4,1.4,0,0,1,.94-1.37,15.91,15.91,0,0,1,6.23-1.29,8.12,8.12,0,0,1,4.19,1,6.43,6.43,0,0,1,2.52,2.61,7.61,7.61,0,0,1,.81,3.48v10.19a1.55,1.55,0,0,1-.48,1.15,1.66,1.66,0,0,1-1.17.47,1.6,1.6,0,0,1-1.16-.47,1.57,1.57,0,0,1-.46-1.15v-.94a9.08,9.08,0,0,1-6.77,2.74A6.77,6.77,0,0,1,275.9,154.27Zm7.22-3a8.45,8.45,0,0,0,2.49-1.92v-3h-3.93q-5.43,0-5.43,2.85a2.64,2.64,0,0,0,.88,2.08,4.33,4.33,0,0,0,2.93.8A6.45,6.45,0,0,0,283.12,151.26Z"/><path d="M293.78,153.3a1.38,1.38,0,0,1-.61-1.19,1.45,1.45,0,0,1,.39-1,1.31,1.31,0,0,1,1-.43,1.69,1.69,0,0,1,.65.14,13.92,13.92,0,0,0,2.3.79,10.31,10.31,0,0,0,2.59.29q4,0,4-2.55a1.35,1.35,0,0,0-.92-1.26,18.31,18.31,0,0,0-3-1,25.94,25.94,0,0,1-3.51-1,6.17,6.17,0,0,1-2.38-1.64,4.16,4.16,0,0,1-1-2.9,5.19,5.19,0,0,1,1.82-4.1,7.64,7.64,0,0,1,5.2-1.58,15,15,0,0,1,5.22.9,1.28,1.28,0,0,1,.77.54,1.43,1.43,0,0,1,.27.82,1.39,1.39,0,0,1-.41,1,1.37,1.37,0,0,1-1,.43,1.83,1.83,0,0,1-.46-.07,13.92,13.92,0,0,0-4.11-.65,5.6,5.6,0,0,0-3,.71,2.08,2.08,0,0,0-1.1,1.81,1.68,1.68,0,0,0,1,1.59,14.69,14.69,0,0,0,3.13,1A29.66,29.66,0,0,1,304,145a5.7,5.7,0,0,1,2.28,1.64,4.42,4.42,0,0,1,1,3,4.75,4.75,0,0,1-1.82,3.81,7.79,7.79,0,0,1-5.13,1.52A13.39,13.39,0,0,1,293.78,153.3Z"/><path d="M322.78,154.27a5.12,5.12,0,0,1-2.15-1.89,5.27,5.27,0,0,1-.79-2.86,5,5,0,0,1,2.11-4.25q2.1-1.59,6.17-1.59h4.36v-.28a4.36,4.36,0,0,0-1.17-3.42,5.37,5.37,0,0,0-3.66-1,11.85,11.85,0,0,0-2.43.22,19.39,19.39,0,0,0-2.35.65,2.67,2.67,0,0,1-.47.07,1.28,1.28,0,0,1-.94-.4,1.33,1.33,0,0,1-.39-1,1.39,1.39,0,0,1,.93-1.37,15.91,15.91,0,0,1,6.23-1.29,8.12,8.12,0,0,1,4.19,1,6.43,6.43,0,0,1,2.52,2.61,7.61,7.61,0,0,1,.81,3.48v10.19a1.55,1.55,0,0,1-.48,1.15,1.66,1.66,0,0,1-1.17.47,1.56,1.56,0,0,1-1.15-.47,1.54,1.54,0,0,1-.47-1.15v-.94a9.07,9.07,0,0,1-6.77,2.74A6.69,6.69,0,0,1,322.78,154.27Zm7.21-3a8.45,8.45,0,0,0,2.49-1.92v-3h-3.93q-5.43,0-5.43,2.85a2.64,2.64,0,0,0,.88,2.08,4.35,4.35,0,0,0,2.93.8A6.45,6.45,0,0,0,330,151.26Z"/><path d="M351.09,154.27a1.58,1.58,0,0,1-.47-1.15V137.67a1.66,1.66,0,0,1,.47-1.17,1.53,1.53,0,0,1,1.15-.48,1.59,1.59,0,0,1,1.17.48,1.63,1.63,0,0,1,.49,1.17v1.48a11.8,11.8,0,0,1,3-2.41,7.42,7.42,0,0,1,3.74-.9,6.26,6.26,0,0,1,3.44.93,6.1,6.1,0,0,1,2.23,2.56,8.11,8.11,0,0,1,.78,3.56v10.23a1.56,1.56,0,0,1-.49,1.15,1.62,1.62,0,0,1-1.17.47,1.56,1.56,0,0,1-1.15-.47,1.58,1.58,0,0,1-.47-1.15v-9.87q0-4.4-4-4.39a5.68,5.68,0,0,0-3.22.94,11.45,11.45,0,0,0-2.68,2.52v10.8a1.56,1.56,0,0,1-.49,1.15,1.62,1.62,0,0,1-1.17.47A1.56,1.56,0,0,1,351.09,154.27Z"/><path d="M373.9,152.41a9.55,9.55,0,0,1-2.47-7,11.8,11.8,0,0,1,.93-4.72,8.11,8.11,0,0,1,2.88-3.49,9.24,9.24,0,0,1,9.4-.09,8,8,0,0,1,2.95,3.31,10.22,10.22,0,0,1,1,4.52,1.58,1.58,0,0,1-1.66,1.62h-12.2a5.91,5.91,0,0,0,1.87,3.92,6.44,6.44,0,0,0,4.43,1.41,10.07,10.07,0,0,0,4.86-1.12,1.38,1.38,0,0,1,.65-.14,1.47,1.47,0,0,1,1,.39,1.34,1.34,0,0,1,.43,1,1.55,1.55,0,0,1-.94,1.33,12.65,12.65,0,0,1-2.77,1.19,13.14,13.14,0,0,1-3.53.4A9.16,9.16,0,0,1,373.9,152.41Zm11.46-8.55a5.75,5.75,0,0,0-.92-3,4.89,4.89,0,0,0-2-1.74,5.47,5.47,0,0,0-4.82,0,4.84,4.84,0,0,0-2,1.74,5.84,5.84,0,0,0-.9,3Z"/><path d="M396.92,154.3a2.07,2.07,0,0,1-.79-1.08l-5.12-15a2,2,0,0,1-.1-.61,1.57,1.57,0,0,1,1.62-1.62,1.62,1.62,0,0,1,.91.27,1.27,1.27,0,0,1,.56.7l4.21,13.86,4.18-13.54a1.85,1.85,0,0,1,3.53,0l4.17,13.54L414.31,137a1.3,1.3,0,0,1,.55-.7,1.68,1.68,0,0,1,.92-.27,1.59,1.59,0,0,1,1.62,1.62,1.75,1.75,0,0,1-.11.61l-5.11,15a2.25,2.25,0,0,1-2.09,1.52,2.08,2.08,0,0,1-1.29-.44,2.36,2.36,0,0,1-.83-1.11l-3.82-11.92-3.81,11.92a2.42,2.42,0,0,1-.83,1.11,2.1,2.1,0,0,1-1.3.44A2.08,2.08,0,0,1,396.92,154.3Z"/><path d="M435,162.66a13.61,13.61,0,0,1-3.49-1.34,1.36,1.36,0,0,1-.65-1.26,1.49,1.49,0,0,1,.41-1,1.35,1.35,0,0,1,1-.45,1.91,1.91,0,0,1,.65.14,13.1,13.1,0,0,0,5.94,1.37q5.5,0,5.5-5.87v-2.41a8.12,8.12,0,0,1-6.15,2.74,8.75,8.75,0,0,1-7.42-4.23,10.85,10.85,0,0,1,0-10.26,8.69,8.69,0,0,1,7.42-4.23,8.11,8.11,0,0,1,6.15,2.73v-.9a1.66,1.66,0,0,1,.47-1.17A1.56,1.56,0,0,1,446,136a1.66,1.66,0,0,1,1.66,1.65v16.09q0,4.55-2.2,7a8,8,0,0,1-6.26,2.45A17.06,17.06,0,0,1,435,162.66Zm6.91-11.81a10.73,10.73,0,0,0,2.48-1.95v-7.41a10.73,10.73,0,0,0-2.48-2,6,6,0,0,0-3-.72,6.12,6.12,0,0,0-4.41,1.64,7.41,7.41,0,0,0,0,9.47,6.12,6.12,0,0,0,4.41,1.64A6,6,0,0,0,441.88,150.85Z"/><path d="M453.8,154.27a1.54,1.54,0,0,1-.47-1.15V137.67a1.62,1.62,0,0,1,.47-1.17A1.53,1.53,0,0,1,455,136a1.64,1.64,0,0,1,1.65,1.65v1.48a12,12,0,0,1,3-2.41,7.42,7.42,0,0,1,3.74-.9,6.26,6.26,0,0,1,3.44.93,6.17,6.17,0,0,1,2.23,2.56,8.1,8.1,0,0,1,.77,3.56v10.23a1.55,1.55,0,0,1-.48,1.15,1.66,1.66,0,0,1-1.17.47,1.56,1.56,0,0,1-1.15-.47,1.54,1.54,0,0,1-.47-1.15v-9.87q0-4.4-4-4.39a5.66,5.66,0,0,0-3.22.94,11.48,11.48,0,0,0-2.69,2.52v10.8a1.55,1.55,0,0,1-.48,1.15,1.66,1.66,0,0,1-1.17.47A1.56,1.56,0,0,1,453.8,154.27Z"/><path d="M478.49,153.73a8.12,8.12,0,0,1-3.22-3.37,11.56,11.56,0,0,1,0-10,8.18,8.18,0,0,1,3.22-3.37,10.54,10.54,0,0,1,9.69,0,8.29,8.29,0,0,1,3.24,3.37,11.38,11.38,0,0,1,0,10,8.22,8.22,0,0,1-3.24,3.37,10.46,10.46,0,0,1-9.69,0Zm7.69-2.49a5.43,5.43,0,0,0,2.23-2.16,8.32,8.32,0,0,0,0-7.45,5.38,5.38,0,0,0-2.23-2.14,6.38,6.38,0,0,0-5.69,0,5.22,5.22,0,0,0-2.21,2.14,8.41,8.41,0,0,0,0,7.45,5.27,5.27,0,0,0,2.21,2.16,6.21,6.21,0,0,0,5.69,0Z"/><path d="M497.61,154.27a1.58,1.58,0,0,1-.47-1.15V137.67a1.66,1.66,0,0,1,.47-1.17,1.53,1.53,0,0,1,1.15-.48,1.59,1.59,0,0,1,1.17.48,1.63,1.63,0,0,1,.49,1.17v1.48a9,9,0,0,1,2.43-2.38,6.6,6.6,0,0,1,3.69-.93,5.59,5.59,0,0,1,3.45,1.08,6,6,0,0,1,2,2.62,7.26,7.26,0,0,1,6.63-3.7,5.47,5.47,0,0,1,3.36,1,6,6,0,0,1,2,2.6,8.68,8.68,0,0,1,.65,3.31v10.37a1.52,1.52,0,0,1-.49,1.15,1.62,1.62,0,0,1-1.17.47,1.6,1.6,0,0,1-1.62-1.62V143.4a5.75,5.75,0,0,0-.82-3.44,3.36,3.36,0,0,0-2.85-1.1,4.78,4.78,0,0,0-3,.95,9.2,9.2,0,0,0-2.14,2.51v10.8a1.52,1.52,0,0,1-.49,1.15,1.62,1.62,0,0,1-1.17.47,1.6,1.6,0,0,1-1.62-1.62V143.4a5.68,5.68,0,0,0-.83-3.44,3.34,3.34,0,0,0-2.84-1.1,4.78,4.78,0,0,0-3,.95,9,9,0,0,0-2.14,2.51v10.8a1.56,1.56,0,0,1-.49,1.15,1.62,1.62,0,0,1-1.17.47A1.56,1.56,0,0,1,497.61,154.27Z"/><path d="M531.54,152.41a9.55,9.55,0,0,1-2.47-7,11.63,11.63,0,0,1,.94-4.72,8,8,0,0,1,2.88-3.49,8.24,8.24,0,0,1,4.79-1.33,8.33,8.33,0,0,1,4.6,1.24,8,8,0,0,1,3,3.31,10.09,10.09,0,0,1,1,4.52,1.57,1.57,0,0,1-1.65,1.62H532.38a5.88,5.88,0,0,0,1.88,3.92,6.41,6.41,0,0,0,4.42,1.41,11,11,0,0,0,2.65-.29,10.76,10.76,0,0,0,2.21-.83,1.38,1.38,0,0,1,.65-.14,1.47,1.47,0,0,1,1,.39,1.31,1.31,0,0,1,.43,1,1.55,1.55,0,0,1-.94,1.33,12.45,12.45,0,0,1-2.77,1.19,13.06,13.06,0,0,1-3.52.4A9.18,9.18,0,0,1,531.54,152.41ZM543,143.86a5.75,5.75,0,0,0-.91-3,5,5,0,0,0-2-1.74,5.49,5.49,0,0,0-4.83,0,4.84,4.84,0,0,0-2,1.74,6,6,0,0,0-.9,3Z"/><path d="M560.39,154.27a1.58,1.58,0,0,1-.47-1.15V137.67a1.66,1.66,0,0,1,.47-1.17,1.55,1.55,0,0,1,1.15-.48,1.66,1.66,0,0,1,1.66,1.65v1.48a12,12,0,0,1,2.95-2.41,7.49,7.49,0,0,1,3.75-.9,6.22,6.22,0,0,1,3.43.93,6.12,6.12,0,0,1,2.24,2.56,8.24,8.24,0,0,1,.77,3.56v10.23a1.52,1.52,0,0,1-.49,1.15,1.62,1.62,0,0,1-1.17.47,1.6,1.6,0,0,1-1.62-1.62v-9.87q0-4.4-4-4.39a5.68,5.68,0,0,0-3.22.94,11.45,11.45,0,0,0-2.68,2.52v10.8a1.52,1.52,0,0,1-.49,1.15,1.62,1.62,0,0,1-1.17.47A1.58,1.58,0,0,1,560.39,154.27Z"/><path d="M583.2,152.41a9.55,9.55,0,0,1-2.47-7,11.63,11.63,0,0,1,.94-4.72,8,8,0,0,1,2.88-3.49,8.24,8.24,0,0,1,4.79-1.33,8.33,8.33,0,0,1,4.6,1.24,8.09,8.09,0,0,1,3,3.31,10.22,10.22,0,0,1,1,4.52,1.57,1.57,0,0,1-1.65,1.62H584a5.88,5.88,0,0,0,1.88,3.92,6.41,6.41,0,0,0,4.42,1.41,11,11,0,0,0,2.65-.29,10.76,10.76,0,0,0,2.21-.83,1.41,1.41,0,0,1,.65-.14,1.47,1.47,0,0,1,1,.39,1.31,1.31,0,0,1,.43,1,1.55,1.55,0,0,1-.94,1.33,12.45,12.45,0,0,1-2.77,1.19,13.06,13.06,0,0,1-3.52.4A9.18,9.18,0,0,1,583.2,152.41Zm11.46-8.55a5.75,5.75,0,0,0-.91-3,5,5,0,0,0-2-1.74,5.49,5.49,0,0,0-4.83,0,4.84,4.84,0,0,0-2,1.74,6,6,0,0,0-.9,3Z"/><path d="M602.47,131.91a1.76,1.76,0,0,1-.54-1.29v-.15a1.76,1.76,0,0,1,.54-1.29,1.78,1.78,0,0,1,1.3-.54H604a1.84,1.84,0,0,1,1.83,1.83v.15a1.84,1.84,0,0,1-1.83,1.83h-.22A1.78,1.78,0,0,1,602.47,131.91Zm.22,22.36a1.58,1.58,0,0,1-.47-1.15V137.67a1.66,1.66,0,0,1,.47-1.17,1.55,1.55,0,0,1,1.15-.48,1.61,1.61,0,0,1,1.19.46,1.64,1.64,0,0,1,.47,1.19v15.45a1.52,1.52,0,0,1-.49,1.15,1.62,1.62,0,0,1-1.17.47A1.58,1.58,0,0,1,602.69,154.27Z"/><path d="M615.54,162.66a13.76,13.76,0,0,1-3.49-1.34,1.36,1.36,0,0,1-.65-1.26,1.46,1.46,0,0,1,.42-1,1.33,1.33,0,0,1,1-.45,1.91,1.91,0,0,1,.65.14,13.1,13.1,0,0,0,5.94,1.37q5.51,0,5.51-5.87v-2.41a8.16,8.16,0,0,1-6.16,2.74,8.67,8.67,0,0,1-4.12-1.07,8.5,8.5,0,0,1-3.29-3.16,10.77,10.77,0,0,1,0-10.26,8.53,8.53,0,0,1,3.29-3.17,8.66,8.66,0,0,1,4.12-1.06,8.15,8.15,0,0,1,6.16,2.73v-.9a1.66,1.66,0,0,1,.47-1.17,1.53,1.53,0,0,1,1.15-.48,1.61,1.61,0,0,1,1.17.48,1.63,1.63,0,0,1,.49,1.17v16.09c0,3-.74,5.36-2.2,7a8,8,0,0,1-6.26,2.45A17.08,17.08,0,0,1,615.54,162.66Zm6.92-11.81a10.73,10.73,0,0,0,2.48-1.95v-7.41a10.73,10.73,0,0,0-2.48-2,6.68,6.68,0,0,0-7.4.92,7.41,7.41,0,0,0,0,9.47,6.68,6.68,0,0,0,7.4.92Z"/><path d="M634.37,154.27a1.58,1.58,0,0,1-.47-1.15V129.75a1.66,1.66,0,0,1,.47-1.17,1.55,1.55,0,0,1,1.15-.48,1.66,1.66,0,0,1,1.66,1.65v9.4a11.8,11.8,0,0,1,3-2.41,7.45,7.45,0,0,1,3.74-.9,6.26,6.26,0,0,1,3.44.93,6.1,6.1,0,0,1,2.23,2.56,8.11,8.11,0,0,1,.78,3.56v10.23a1.52,1.52,0,0,1-.49,1.15,1.62,1.62,0,0,1-1.17.47,1.6,1.6,0,0,1-1.62-1.62v-9.87q0-4.4-4-4.39a5.68,5.68,0,0,0-3.22.94,11.45,11.45,0,0,0-2.68,2.52v10.8a1.52,1.52,0,0,1-.49,1.15,1.62,1.62,0,0,1-1.17.47A1.58,1.58,0,0,1,634.37,154.27Z"/><path d="M659.1,152.18v.94a1.55,1.55,0,0,1-.48,1.15,1.66,1.66,0,0,1-1.17.47,1.6,1.6,0,0,1-1.16-.47,1.57,1.57,0,0,1-.46-1.15V129.75a1.65,1.65,0,0,1,.46-1.17,1.57,1.57,0,0,1,1.16-.48,1.59,1.59,0,0,1,1.65,1.65v8.82a8.29,8.29,0,0,1,6.16-2.73,8.38,8.38,0,0,1,4.23,1.13,8.67,8.67,0,0,1,3.24,3.31,11.09,11.09,0,0,1,0,10.19,8.6,8.6,0,0,1-3.24,3.31,8.39,8.39,0,0,1-4.23,1.14A8.3,8.3,0,0,1,659.1,152.18Zm10-2a7.88,7.88,0,0,0,0-9.57,5.63,5.63,0,0,0-4.28-1.69,6.81,6.81,0,0,0-3.11.73,9,9,0,0,0-2.58,2v7.56a9,9,0,0,0,2.58,2,6.82,6.82,0,0,0,3.11.74A5.64,5.64,0,0,0,669.07,150.16Z"/><path d="M681.78,153.73a8.12,8.12,0,0,1-3.22-3.37,11.56,11.56,0,0,1,0-10,8.18,8.18,0,0,1,3.22-3.37,10.54,10.54,0,0,1,9.69,0,8.29,8.29,0,0,1,3.24,3.37,11.38,11.38,0,0,1,0,10,8.22,8.22,0,0,1-3.24,3.37,10.46,10.46,0,0,1-9.69,0Zm7.69-2.49a5.43,5.43,0,0,0,2.23-2.16,8.32,8.32,0,0,0,0-7.45,5.38,5.38,0,0,0-2.23-2.14,6.38,6.38,0,0,0-5.69,0,5.22,5.22,0,0,0-2.21,2.14,8.41,8.41,0,0,0,0,7.45,5.27,5.27,0,0,0,2.21,2.16,6.21,6.21,0,0,0,5.69,0Z"/><path d="M700.9,154.27a1.58,1.58,0,0,1-.47-1.15V137.67a1.66,1.66,0,0,1,.47-1.17,1.53,1.53,0,0,1,1.15-.48,1.59,1.59,0,0,1,1.17.48,1.63,1.63,0,0,1,.49,1.17v1.55c1.68-2.26,3.56-3.38,5.65-3.38h.18a1.51,1.51,0,0,1,1.13.46,1.62,1.62,0,0,1,.45,1.16,1.42,1.42,0,0,1-.47,1.11,1.67,1.67,0,0,1-1.18.43h-.18a6.17,6.17,0,0,0-3.17.85,7.21,7.21,0,0,0-2.41,2.32v11a1.56,1.56,0,0,1-.49,1.15,1.62,1.62,0,0,1-1.17.47A1.56,1.56,0,0,1,700.9,154.27Z"/><path d="M168,197.5a2.13,2.13,0,0,1-.79-1.08l-5.11-15a1.75,1.75,0,0,1-.11-.61,1.59,1.59,0,0,1,1.62-1.62,1.68,1.68,0,0,1,.92.27,1.3,1.3,0,0,1,.55.7l4.22,13.86,4.17-13.54a1.85,1.85,0,0,1,3.53,0l4.18,13.54,4.21-13.86a1.27,1.27,0,0,1,.56-.7,1.62,1.62,0,0,1,.91-.27,1.57,1.57,0,0,1,1.62,1.62,2,2,0,0,1-.1.61l-5.11,15a2.14,2.14,0,0,1-.8,1.08,2.08,2.08,0,0,1-1.29.44,2.1,2.1,0,0,1-1.3-.44,2.42,2.42,0,0,1-.83-1.11l-3.81-11.92-3.82,11.92a2.36,2.36,0,0,1-.83,1.11,2.08,2.08,0,0,1-1.29.44A2.1,2.1,0,0,1,168,197.5Z"/><path d="M192.76,197.47a1.57,1.57,0,0,1-.46-1.15V173a1.65,1.65,0,0,1,.46-1.17,1.57,1.57,0,0,1,1.16-.48,1.64,1.64,0,0,1,1.65,1.65v9.4a12,12,0,0,1,3-2.41,7.49,7.49,0,0,1,3.75-.9,6.28,6.28,0,0,1,3.44.93,6.17,6.17,0,0,1,2.23,2.56,8.24,8.24,0,0,1,.77,3.56v10.23a1.55,1.55,0,0,1-.48,1.15,1.66,1.66,0,0,1-1.17.47,1.6,1.6,0,0,1-1.16-.47,1.57,1.57,0,0,1-.46-1.15v-9.87q0-4.39-4-4.39a5.72,5.72,0,0,0-3.23.94,11.64,11.64,0,0,0-2.68,2.52v10.8a1.55,1.55,0,0,1-.48,1.15,1.66,1.66,0,0,1-1.17.47A1.6,1.6,0,0,1,192.76,197.47Z"/><path d="M217.46,196.93a8.05,8.05,0,0,1-3.22-3.37,11.47,11.47,0,0,1,0-10,8.11,8.11,0,0,1,3.22-3.37,10.52,10.52,0,0,1,9.68,0,8.16,8.16,0,0,1,3.24,3.37,11.29,11.29,0,0,1,0,10,8.1,8.1,0,0,1-3.24,3.37,10.44,10.44,0,0,1-9.68,0Zm7.69-2.49a5.43,5.43,0,0,0,2.23-2.16,8.32,8.32,0,0,0,0-7.45,5.38,5.38,0,0,0-2.23-2.14,6.38,6.38,0,0,0-5.69,0,5.3,5.3,0,0,0-2.22,2.14,8.5,8.5,0,0,0,0,7.45,5.35,5.35,0,0,0,2.22,2.16,6.21,6.21,0,0,0,5.69,0Z"/><path d="M245.72,175.11a1.76,1.76,0,0,1-.54-1.29v-.15a1.84,1.84,0,0,1,1.84-1.83h.21a1.84,1.84,0,0,1,1.84,1.83v.15a1.84,1.84,0,0,1-1.84,1.83H247A1.77,1.77,0,0,1,245.72,175.11Zm.22,22.36a1.54,1.54,0,0,1-.47-1.15V180.87a1.62,1.62,0,0,1,.47-1.17,1.53,1.53,0,0,1,1.15-.48,1.58,1.58,0,0,1,1.65,1.65v15.45a1.55,1.55,0,0,1-.48,1.15,1.66,1.66,0,0,1-1.17.47A1.56,1.56,0,0,1,245.94,197.47Z"/><path d="M253.82,196.5a1.38,1.38,0,0,1-.61-1.19,1.45,1.45,0,0,1,.39-1,1.31,1.31,0,0,1,1-.43,1.69,1.69,0,0,1,.65.14,14.24,14.24,0,0,0,2.3.79,10.34,10.34,0,0,0,2.6.29q4,0,4-2.55a1.34,1.34,0,0,0-.92-1.26,18.31,18.31,0,0,0-3-1,25.94,25.94,0,0,1-3.51-1,6.17,6.17,0,0,1-2.38-1.64,4.16,4.16,0,0,1-1-2.9,5.19,5.19,0,0,1,1.82-4.1,7.64,7.64,0,0,1,5.2-1.58,15,15,0,0,1,5.22.9,1.3,1.3,0,0,1,.78.54,1.43,1.43,0,0,1,.27.82,1.4,1.4,0,0,1-.42,1,1.36,1.36,0,0,1-1,.43,1.84,1.84,0,0,1-.47-.07,13.87,13.87,0,0,0-4.11-.65,5.6,5.6,0,0,0-3,.71,2.08,2.08,0,0,0-1.1,1.81,1.68,1.68,0,0,0,1,1.59,14.69,14.69,0,0,0,3.13,1,29.66,29.66,0,0,1,3.46,1.06,5.8,5.8,0,0,1,2.29,1.64,4.47,4.47,0,0,1,.95,3,4.75,4.75,0,0,1-1.82,3.81,7.79,7.79,0,0,1-5.13,1.52A13.39,13.39,0,0,1,253.82,196.5Z"/><path d="M286.4,197.56a2.16,2.16,0,0,1-.79-1l-6.27-15a2,2,0,0,1-.18-.76,1.66,1.66,0,0,1,.47-1.17,1.55,1.55,0,0,1,1.15-.48,1.68,1.68,0,0,1,1.48.93l5.51,14,5.5-14a1.64,1.64,0,0,1,.6-.66,1.59,1.59,0,0,1,.88-.27,1.53,1.53,0,0,1,1.15.48,1.66,1.66,0,0,1,.47,1.17,2,2,0,0,1-.18.76l-6.26,15a2.3,2.3,0,0,1-.79,1,2.08,2.08,0,0,1-1.19.38h-.36A2,2,0,0,1,286.4,197.56Z"/><path d="M301.25,195.61a9.55,9.55,0,0,1-2.47-7,11.8,11.8,0,0,1,.94-4.72,8,8,0,0,1,2.88-3.49,8.26,8.26,0,0,1,4.79-1.33,8.39,8.39,0,0,1,4.61,1.24,8.13,8.13,0,0,1,2.95,3.31,10.22,10.22,0,0,1,1,4.52,1.6,1.6,0,0,1-.45,1.15,1.64,1.64,0,0,1-1.21.47H302.1a5.87,5.87,0,0,0,1.87,3.92,6.42,6.42,0,0,0,4.43,1.41,10.14,10.14,0,0,0,4.86-1.12,1.34,1.34,0,0,1,.64-.14,1.45,1.45,0,0,1,1,.39,1.31,1.31,0,0,1,.43,1,1.55,1.55,0,0,1-.93,1.33,12.85,12.85,0,0,1-2.77,1.19,13.2,13.2,0,0,1-3.53.4A9.18,9.18,0,0,1,301.25,195.61Zm11.47-8.55a5.85,5.85,0,0,0-.92-2.95,5,5,0,0,0-2-1.74,5.47,5.47,0,0,0-4.82,0,4.72,4.72,0,0,0-2,1.74,5.84,5.84,0,0,0-.9,2.95Z"/><path d="M320.74,197.47a1.58,1.58,0,0,1-.47-1.15V180.87a1.66,1.66,0,0,1,.47-1.17,1.57,1.57,0,0,1,1.16-.48,1.66,1.66,0,0,1,1.65,1.65v1.55c1.68-2.26,3.56-3.38,5.65-3.38h.18a1.51,1.51,0,0,1,1.14.46,1.62,1.62,0,0,1,.45,1.16,1.46,1.46,0,0,1-.47,1.11,1.67,1.67,0,0,1-1.19.43h-.18a6.19,6.19,0,0,0-3.17.85,7.3,7.3,0,0,0-2.41,2.32v10.95a1.52,1.52,0,0,1-.49,1.15,1.62,1.62,0,0,1-1.16.47A1.6,1.6,0,0,1,320.74,197.47Z"/><path d="M337.07,205.75a1.56,1.56,0,0,1-.45-1.12,1.44,1.44,0,0,1,.11-.57l2.34-6-6.77-16.48a1.79,1.79,0,0,1-.15-.69,1.66,1.66,0,0,1,.47-1.17,1.63,1.63,0,0,1,2.07-.2,1.71,1.71,0,0,1,.6.72L340.83,194l5.65-13.68a1.58,1.58,0,0,1,1.52-1.08,1.55,1.55,0,0,1,1.15.48,1.66,1.66,0,0,1,.47,1.17,1.74,1.74,0,0,1-.11.61l-9.83,23.62a1.63,1.63,0,0,1-1.51,1.12A1.47,1.47,0,0,1,337.07,205.75Z"/><path d="M363.83,193.36V182.2h-2.55a.67.67,0,0,1-.49-.19.7.7,0,0,1-.2-.49.75.75,0,0,1,.33-.61l4.89-4.79a.89.89,0,0,1,.62-.32.63.63,0,0,1,.48.21.74.74,0,0,1,.2.51v2.88h4.07a1.34,1.34,0,0,1,1.4,1.4,1.41,1.41,0,0,1-.39,1,1.33,1.33,0,0,1-1,.41h-4.07v10.88c0,.93.22,1.53.67,1.78a3.35,3.35,0,0,0,1.67.38,5.14,5.14,0,0,0,1.44-.22l.31-.07a1.53,1.53,0,0,1,.41,0,1.27,1.27,0,0,1,.9.38,1.24,1.24,0,0,1,.4.92,1.37,1.37,0,0,1-.83,1.26,7.09,7.09,0,0,1-3,.65C365.59,198.12,363.83,196.53,363.83,193.36Z"/><path d="M376.76,175.11a1.76,1.76,0,0,1-.54-1.29v-.15a1.84,1.84,0,0,1,1.83-1.83h.22a1.78,1.78,0,0,1,1.3.54,1.76,1.76,0,0,1,.54,1.29v.15a1.76,1.76,0,0,1-.54,1.29,1.78,1.78,0,0,1-1.3.54h-.22A1.76,1.76,0,0,1,376.76,175.11Zm.21,22.36a1.57,1.57,0,0,1-.46-1.15V180.87a1.65,1.65,0,0,1,.46-1.17,1.57,1.57,0,0,1,1.16-.48,1.59,1.59,0,0,1,1.65,1.65v15.45a1.55,1.55,0,0,1-.48,1.15,1.66,1.66,0,0,1-1.17.47A1.6,1.6,0,0,1,377,197.47Z"/><path d="M388.84,197a8.46,8.46,0,0,1-3.24-3.31,11,11,0,0,1,0-10.19,8.53,8.53,0,0,1,3.24-3.31,8.38,8.38,0,0,1,4.23-1.13,8.27,8.27,0,0,1,6.15,2.73V173a1.58,1.58,0,0,1,.49-1.19,1.61,1.61,0,0,1,1.17-.46,1.55,1.55,0,0,1,1.15.48,1.66,1.66,0,0,1,.47,1.17v23.37a1.6,1.6,0,0,1-1.62,1.62,1.62,1.62,0,0,1-1.17-.47,1.52,1.52,0,0,1-.49-1.15v-.94a8.28,8.28,0,0,1-6.15,2.74A8.39,8.39,0,0,1,388.84,197Zm7.81-2.66a8.91,8.91,0,0,0,2.57-2V184.8a9,9,0,0,0-2.57-2,6.82,6.82,0,0,0-3.12-.73,5.65,5.65,0,0,0-4.28,1.69,7.88,7.88,0,0,0,0,9.57,5.66,5.66,0,0,0,4.28,1.7A6.83,6.83,0,0,0,396.65,194.32Z"/><path d="M411.19,205.75a1.56,1.56,0,0,1-.45-1.12,1.65,1.65,0,0,1,.11-.57l2.34-6-6.77-16.48a1.77,1.77,0,0,1-.14-.69,1.62,1.62,0,0,1,.47-1.17,1.53,1.53,0,0,1,1.15-.48,1.55,1.55,0,0,1,.91.28,1.71,1.71,0,0,1,.6.72L415,194l5.65-13.68a1.59,1.59,0,0,1,1.52-1.08,1.55,1.55,0,0,1,1.15.48,1.66,1.66,0,0,1,.47,1.17,1.74,1.74,0,0,1-.11.61L413.8,205.1a1.62,1.62,0,0,1-1.51,1.12A1.48,1.48,0,0,1,411.19,205.75Z"/><path d="M426.31,197.27a2,2,0,0,1-.59-1.42v-.22a2,2,0,0,1,.59-1.42,1.93,1.93,0,0,1,1.42-.59h.36a1.93,1.93,0,0,1,1.43.59,2,2,0,0,1,.59,1.42v.22a2,2,0,0,1-.59,1.42,1.93,1.93,0,0,1-1.43.59h-.36A1.93,1.93,0,0,1,426.31,197.27Z"/><rect class="cls-5" x="1112" y="493.43" width="330.22" height="268.85" rx="16.95"/><rect class="cls-5" x="1252.81" y="637.15" width="49.26" height="268.85" rx="6.55"/><rect class="cls-1" x="1359.35" y="493.43" width="67.85" height="268.85"/><rect class="cls-1" x="1200.61" y="493.43" width="35.75" height="268.85"/><rect class="cls-1" x="1129.82" y="493.43" width="43.62" height="268.85"/><rect class="cls-1" x="1277.12" y="493.43" width="43.62" height="268.85"/><path class="cls-8" d="M1308.35,570.55q3.29,5.52,6.53,11.06c2.08,3.54,4.43,7,6.18,10.76a54.15,54.15,0,0,1,3.89,13.2c.64,3.42,1.1,6.86,1.4,10.32.05.49.81.49.76,0-.67-7.52-1.82-15.31-4.7-22.33-1.53-3.72-3.83-7.15-5.87-10.62q-3.46-5.9-7-11.8a60.61,60.61,0,0,0-4.35-7.11c-.31-.38-.84.16-.54.54A51.5,51.5,0,0,1,1308.35,570.55Z"/><path class="cls-8" d="M1317.63,559.94a40.75,40.75,0,0,1,4.44,4.47c2.81,2.91,5.67,5.79,8.43,8.75,4.4,4.74,7.26,11,9.68,16.92.79,2,1.54,3.94,2.22,5.94.16.46.9.26.74-.2a102.51,102.51,0,0,0-5.78-13.71,47.32,47.32,0,0,0-5.39-8.43c-2.65-3.18-5.75-6-8.62-9a48.18,48.18,0,0,0-5.33-5.36C1317.63,559,1317.25,559.65,1317.63,559.94Z"/><path class="cls-8" d="M1214.84,622a95.31,95.31,0,0,0,9.72,7q5.52,3.78,11,7.54a60,60,0,0,0,6.87,4.54c.44.21.83-.44.39-.66a48.26,48.26,0,0,1-5.48-3.59q-5.28-3.57-10.52-7.16c-3.39-2.33-7-4.52-10.21-7.08a52.5,52.5,0,0,1-9.59-10.64c-2-2.85-4-5.8-5.72-8.82a.38.38,0,0,0-.65.38C1204.58,610.15,1209.05,616.9,1214.84,622Z"/><path class="cls-8" d="M1227.77,640.6a.38.38,0,0,0,.2-.73,39.15,39.15,0,0,1-5.48-2.29c-3.72-1.64-7.46-3.24-11.17-4.91-6-2.69-11.08-7.43-15.65-12.07-1.51-1.53-3-3.11-4.4-4.72-.33-.37-.86.17-.54.53a100,100,0,0,0,10.91,10.77,44,44,0,0,0,8.27,5.66c3.65,1.83,7.5,3.32,11.23,5A47.48,47.48,0,0,0,1227.77,640.6Z"/><path class="cls-8" d="M1345.84,659l-7.43-.37a30.93,30.93,0,0,1-4.22-.52c-5.34-.89-10.67-1.9-16-2.92-4.18-.8-8.57-1.35-12.65-2.61a108.41,108.41,0,0,1-13.93-5.88c-2.28-1.08-4.54-2.17-6.8-3.28-1-3.43-4.25-5.17-9.23-7.53l-1.41-.68a1.57,1.57,0,0,0-.09-.6l-1.64-4.48c1.54,0,3.14-.11,4.64-.24,2-.17,4.64-.58,7-1,16.73-1.21,29.68-9.59,29.27-25-.43-16.19-6.62-34.25-33.49-33.54-1.28,0-2.51.11-3.69.21a45.2,45.2,0,0,1,5.31.5,81.8,81.8,0,0,0-9.86-.48,13.7,13.7,0,0,0,0-2.4,21,21,0,0,1,1.36-6.12c0-.38-.89-.25-1.08-.41s-2.28,1.55-3.62,3.13-1.5,3.94-1.7,4.55a3.63,3.63,0,0,0,0,1.43c-2.41.14-4.66.36-6.78.66,1.31-.23,2.68-.41,4.13-.54-1.13,0-2.3,0-3.51,0-22.08.58-29.23,11.81-31.11,24.39a48.76,48.76,0,0,0-.81,10.89,18.57,18.57,0,0,0,1.26,6.33l.2.62c-3.7-3.63-7.39-7.26-11-11a106.58,106.58,0,0,1-8.5-10.18,1.57,1.57,0,0,0-2.08-.54,1.52,1.52,0,0,0-.55,2.08c.81,1,1.6,2.09,2.4,3.14l-2.32-.6a1.52,1.52,0,0,0-.81,2.93l5.55,1.44a1.64,1.64,0,0,0,.61,0c.72.85,1.46,1.68,2.24,2.49,3.8,3.93,7.71,7.77,11.62,11.6,3.1,3,6.1,6.38,9.52,9.06a111.36,111.36,0,0,0,13.11,8.35q4.6,2.68,9.29,5.23a63.84,63.84,0,0,0-5.25,8.56c-2,3.65-11.11,22.75-12.88,26.47l-.49,1c-1.69.54-3,3.53-6.18,10.63-.2.45-.39.86-.54,1.26-.32.58-.63,1.18-.92,1.8-1.86,3.9-1.71,5.21-.67,5.68-2.33.93-4.47,2.24-6.79,3.34-.41.2-.29.23-.64-.14a5.73,5.73,0,0,1-1-1.57,14.63,14.63,0,0,1-.88-2.48,1.52,1.52,0,0,0-2.93.81c.61,2.31,2,6.42,4.88,6.54,1.66.08,3.35-1.19,4.73-2a20.73,20.73,0,0,1,7.17-2.67,1.2,1.2,0,0,0,1-.75,21.71,21.71,0,0,1,2.94,2.83,1.77,1.77,0,0,0,1.11.52c1.21.21,3,0,4.52.69s2.45,2.26,3.38,3.07a1.85,1.85,0,0,0,1.11.53,26.29,26.29,0,0,1,3.81.42,34.89,34.89,0,0,1-.58,3.76c-.32,1.6-1,3.66,0,5.14,1.42,2.14,5.08,2.16,7.36,2,1.95-.11,2-3.16,0-3a16.56,16.56,0,0,1-2.44,0,6.83,6.83,0,0,1-1.78-.34c-.19-.06-.67-.43-.62-.23a5.05,5.05,0,0,1,.24-1.93c.19-1,.4-1.91.56-2.87,0-.17.05-.33.07-.49,1.8,2,2.86,3.8,5.8-2.38.27-.57.52-1.14.76-1.71.24-.4.47-.84.71-1.34,3.28-6.9,4.68-9.89,4.09-11.56.17-.36.35-.72.52-1.1,1.58-3.31,10.41-22.06,11.84-25.48,2.48-6,3.77-10.13,4-13.24a170.06,170.06,0,0,0,18.14,8c3.88,1.39,8.09,1.94,12.12,2.72,5.55,1.07,11.11,2.13,16.69,3.08,1.66.28,3.32.49,5,.65a1.39,1.39,0,0,0,.37.45l4.35,3.74c1.48,1.27,3.64-.88,2.15-2.15l-2-1.67,3.86.2C1347.8,662.16,1347.79,659.11,1345.84,659Zm-84.73-24.13c-3.88-2.1-7.79-4.22-11.62-6.47a47.9,47.9,0,0,0,8.51,1.1,21.75,21.75,0,0,0,3.48.27c2.66-.1,2.17.48,4.15.43.79,0,2.09,0,3.63,0a1.14,1.14,0,0,0,.06.25l1.16,3.16C1266.77,632.17,1264.1,632.09,1261.11,634.89Z"/><path class="cls-8" d="M1274.26,746.55a115.12,115.12,0,1,1,115.12-115.12A115.25,115.25,0,0,1,1274.26,746.55Zm0-215.94a100.82,100.82,0,1,0,100.82,100.82A100.94,100.94,0,0,0,1274.26,530.61Z"/><rect class="cls-8" x="1159.91" y="618.09" width="212.77" height="14.3" transform="translate(-71.21 1078.55) rotate(-45)"/><rect class="cls-7" x="1541.96" y="830.77" width="58.25" height="53.39" rx="9.13" transform="translate(713.62 2428.55) rotate(-90)"/><rect class="cls-7" x="1605.06" y="830.77" width="58.25" height="53.39" rx="9.13" transform="translate(776.72 2491.65) rotate(-90)"/><circle class="cls-9" cx="1603.85" cy="664.53" r="59.46"/><path class="cls-2" d="M1665.72,635.4c0,32.84,2.57,20.63-60.62,20.63-60.61,0-63.14,12.21-63.14-20.63s42.94-219.63,61.88-219.63S1665.72,602.57,1665.72,635.4Z"/><path class="cls-10" d="M1658,833.19H1547.26a12.58,12.58,0,0,1-12.58-12.58l4.86-33.53-4.86-72.36a12.58,12.58,0,0,1,12.58-12.58H1658a12.59,12.59,0,0,1,12.59,12.58l-4.86,72.36,4.86,33.53A12.59,12.59,0,0,1,1658,833.19Z"/><rect class="cls-4" x="1534.68" y="779.8" width="135.91" height="14.56" rx="7.28"/><rect class="cls-7" x="1588.07" y="777.38" width="29.12" height="19.42" rx="3.89"/><rect class="cls-4" x="1539.43" y="840.58" width="58.25" height="62.88" rx="9.9" transform="translate(696.53 2440.57) rotate(-90)"/><rect class="cls-4" x="1543.18" y="846.54" width="41.26" height="72.81" rx="8.97" transform="translate(680.86 2446.75) rotate(-90)"/><rect class="cls-4" x="1607.6" y="843.01" width="58.25" height="62.88" rx="9.9" transform="translate(762.27 2511.17) rotate(-90)"/><rect class="cls-11" x="1631.18" y="707.9" width="73.11" height="41.26" rx="15.76" transform="translate(1545.49 2544.32) rotate(-109.75)"/><rect class="cls-11" x="1572.83" y="727.46" width="122.04" height="41.26" rx="20.51" transform="translate(302.99 -459.35) rotate(17.61)"/><rect class="cls-11" x="1500.38" y="707.9" width="73.11" height="41.26" rx="15.76" transform="translate(331.99 1928.95) rotate(-70.25)"/><rect class="cls-11" x="1509.63" y="726.43" width="128.82" height="41.26" rx="20.63" transform="translate(3300.36 982.76) rotate(162.39)"/><ellipse class="cls-9" cx="1571.08" cy="727.62" rx="18.2" ry="12.13" transform="translate(207.65 1794.76) rotate(-62.9)"/><ellipse class="cls-9" cx="1537.11" cy="671.81" rx="12.13" ry="18.2" transform="translate(-129.97 858.56) rotate(-30)"/><ellipse class="cls-9" cx="1636.61" cy="727.62" rx="18.2" ry="12.13" transform="translate(243.32 1853.1) rotate(-62.9)"/><ellipse class="cls-9" cx="1668.16" cy="674.23" rx="18.2" ry="12.13" transform="translate(308.03 1852.11) rotate(-62.9)"/><path class="cls-7" d="M1544,682.08c.5-12.72-2.16-8.09,58.51-5.73,58.2,2.26,60.81-2.37,60.32,10.35s-44.53,83.44-62.72,82.73S1543.47,694.79,1544,682.08Z"/><path class="cls-7" d="M1654,657c.21-5.27-.11-3.32,5.84-3.09,5.72.22,6-1.72,5.83,3.54s-5.42,35-7.2,35S1653.81,662.27,1654,657Z"/><path class="cls-7" d="M1544.8,657c.21-5.27-.11-3.32,5.84-3.09,5.72.22,6-1.72,5.83,3.54s-5.42,35-7.2,35S1544.6,662.27,1544.8,657Z"/><ellipse class="cls-9" cx="1605.06" cy="676.66" rx="12.13" ry="18.2" transform="matrix(0.87, -0.5, 0.5, 0.87, -123.29, 893.19)"/><ellipse class="cls-7" cx="1634.53" cy="666.34" rx="18.2" ry="3.04" transform="translate(-24.04 62.32) rotate(-2.17)"/><ellipse class="cls-7" cx="1631.79" cy="658.06" rx="24.3" ry="3.04" transform="translate(-23.73 62.21) rotate(-2.17)"/><ellipse class="cls-7" cx="1573.86" cy="666.34" rx="18.2" ry="3.04" transform="translate(-24.08 60.02) rotate(-2.17)"/><ellipse class="cls-7" cx="1579.95" cy="658.83" rx="24.3" ry="3.04" transform="matrix(1, -0.04, 0.04, 1, -23.79, 60.25)"/><ellipse class="cls-9" cx="1603.47" cy="708.83" rx="1.69" ry="18.2" transform="translate(659.3 2186.02) rotate(-81.26)"/><ellipse class="cls-12" cx="1574.02" cy="666.34" rx="4.39" ry="3.77" transform="translate(-122.29 876.28) rotate(-30)"/><ellipse class="cls-12" cx="1634.69" cy="666.34" rx="4.39" ry="3.77" transform="translate(-114.16 906.62) rotate(-30)"/><rect class="cls-4" x="1620.84" y="846.54" width="41.26" height="72.81" rx="8.97" transform="translate(758.52 2524.41) rotate(-90)"/><rect class="cls-7" x="764.23" y="876.04" width="24" height="22" rx="3.76" transform="translate(-74.04 1703.38) rotate(-92.65)"/><rect class="cls-7" x="789.2" y="869.84" width="24" height="22" rx="3.76" transform="translate(-41.72 1721.84) rotate(-92.65)"/><path class="cls-10" d="M808.91,872l-44.65,9.44a5.18,5.18,0,0,1-6.14-4l-.9-13.93-8.13-28.76a5.18,5.18,0,0,1,4-6.14l44.64-9.44a5.18,5.18,0,0,1,6.15,4l4.21,29.58,4.82,13.1A5.19,5.19,0,0,1,808.91,872Z"/><rect class="cls-4" x="754.66" y="855.14" width="56" height="6" rx="3" transform="translate(-160.63 180.52) rotate(-11.94)"/><rect class="cls-7" x="776.66" y="854.14" width="12" height="8" rx="1.6" transform="translate(-160.63 180.52) rotate(-11.94)"/><rect class="cls-4" x="763.47" y="880.13" width="24" height="25.91" rx="4.08" transform="matrix(-0.05, -1, 1, -0.05, -80.88, 1708.94)"/><rect class="cls-4" x="765.22" y="882.67" width="17" height="30" rx="3.7" transform="translate(-87.29 1711.99) rotate(-92.65)"/><rect class="cls-4" x="790.57" y="874.83" width="24" height="25.91" rx="4.08" transform="translate(-47.23 1730.47) rotate(-92.65)"/><rect class="cls-11" x="740.87" y="825.37" width="30.12" height="17" rx="6.49" transform="translate(206.72 1816.28) rotate(-108.6)"/><rect class="cls-4" x="796.19" y="876.19" width="17" height="30" rx="3.7" transform="translate(-48.42 1736.15) rotate(-92.65)"/><rect class="cls-11" x="728.08" y="833.46" width="53.08" height="17" rx="8.5" transform="matrix(0.95, -0.32, 0.32, 0.95, -229.13, 284.66)"/><rect class="cls-1" x="699.44" y="826.73" width="81.06" height="6.59" rx="2.47" transform="translate(-359.53 996.11) rotate(-56.87)"/><rect class="cls-1" x="703.63" y="861.36" width="27.52" height="6.59" rx="1.8" transform="translate(845.65 1980.83) rotate(-146.87)"/><rect class="cls-1" x="672.81" y="868.49" width="41.43" height="4.88" rx="1.97" transform="matrix(-0.83, 0.55, -0.55, -0.83, 1753.52, 1211.36)"/><rect class="cls-1" x="688.33" y="881.09" width="42.5" height="4.88" rx="2" transform="translate(1820.54 660.14) rotate(117.4)"/><rect class="cls-1" x="697.48" y="884.3" width="40.64" height="4.88" rx="1.95" transform="translate(1812.03 563.94) rotate(112.55)"/><rect class="cls-1" x="678.26" y="874.17" width="44.16" height="4.88" rx="2.03" transform="translate(1808.5 1052.39) rotate(137.64)"/><ellipse class="cls-9" cx="728.9" cy="850.18" rx="5" ry="7.74" transform="translate(-256.84 318.74) rotate(-21.06)"/><rect class="cls-11" x="781.76" y="824.37" width="30.12" height="17" rx="6.49" transform="translate(-355.54 807.38) rotate(-45)"/><rect class="cls-11" x="744.64" y="827.69" width="50.29" height="17" rx="8.45" transform="translate(379.6 -231.3) rotate(22.55)"/><ellipse class="cls-9" cx="744.75" cy="825.56" rx="7.5" ry="5" transform="translate(-350.16 1018.92) rotate(-57.96)"/><circle class="cls-9" cx="778.68" cy="801.6" r="24.5"/><path class="cls-2" d="M806.44,796.73c-3.56,13.06-1.21,8.48-26.34,1.63-24.09-6.57-26.42-2-22.86-15s40.87-82.66,48.4-80.61S810,783.68,806.44,796.73Z"/><ellipse class="cls-9" cx="751.36" cy="797.26" rx="5" ry="7.5" transform="matrix(0.97, -0.25, 0.25, 0.97, -178.22, 217.56)"/><ellipse class="cls-9" cx="803.2" cy="812.43" rx="7.5" ry="5" transform="translate(-338.31 858.72) rotate(-47.65)"/><path class="cls-7" d="M753,802.09c1.57-5,0-3.45,23.88,4.07,22.89,7.2,24.43,5.64,22.85,10.65S773,845.15,765.81,842.9,751.4,807.09,753,802.09Z"/><path class="cls-7" d="M799.44,804.05c.65-2.07.32-1.33,2.66-.59s2.58,0,1.93,2-5.95,13.34-6.65,13.12S798.79,806.12,799.44,804.05Z"/><path class="cls-7" d="M756,792.21c.65-2.07.31-1.33,2.65-.59s2.59,0,1.94,2-6,13.34-6.66,13.12S755.38,794.28,756,792.21Z"/><ellipse class="cls-9" cx="777.85" cy="806.56" rx="5" ry="7.5" transform="translate(-179.71 224.61) rotate(-14.75)"/><ellipse class="cls-7" cx="790.33" cy="806.37" rx="2.03" ry="7.32" transform="translate(-174 1393.66) rotate(-76.92)"/><ellipse class="cls-7" cx="791.01" cy="801.79" rx="1.84" ry="10.68" transform="translate(-169.01 1390.78) rotate(-76.92)"/><ellipse class="cls-7" cx="766.27" cy="799.58" rx="1.81" ry="7.33" transform="translate(-186 1364.97) rotate(-76.92)"/><ellipse class="cls-7" cx="769.14" cy="795.12" rx="1.71" ry="10.8" transform="translate(-179.44 1364.31) rotate(-76.92)"/><ellipse class="cls-9" cx="773.73" cy="819.18" rx="0.69" ry="7.5" transform="translate(-289.25 1193.05) rotate(-66.01)"/><ellipse class="cls-12" cx="765.63" cy="800.09" rx="1.55" ry="1.81" transform="translate(-331.76 651.56) rotate(-38.55)"/><ellipse class="cls-12" cx="789.75" cy="806.67" rx="1.55" ry="1.81" transform="translate(-314.72 573.06) rotate(-33.66)"/><rect class="cls-1" x="504.57" y="221.8" width="27.96" height="366.76" transform="translate(-130.23 515.41) rotate(-47.65)"/><rect class="cls-1" x="442.37" y="688.58" width="27.96" height="158.88" transform="translate(-34.96 21.88) rotate(-2.65)"/><rect class="cls-8" x="324.89" y="685.76" width="122.49" height="158.88" transform="translate(-34.9 18.63) rotate(-2.65)"/><rect class="cls-1" x="311.37" y="687.58" width="27.96" height="160.42"/><rect class="cls-1" x="379.48" y="587.47" width="27.96" height="175.09" transform="translate(1068.47 281.56) rotate(90)"/><rect class="cls-7" x="439" y="537.96" width="103" height="81" transform="translate(1068.96 87.96) rotate(90)"/><rect class="cls-1" x="243.64" y="211.92" width="27.96" height="388.49" transform="translate(174.36 879.89) rotate(-137.65)"/><rect class="cls-1" x="470.75" y="520.29" width="39.51" height="71" transform="translate(1046.29 65.29) rotate(90)"/><rect class="cls-1" x="470.75" y="567.75" width="39.51" height="71" transform="translate(1093.75 112.75) rotate(90)"/><rect class="cls-7" x="218" y="536.96" width="103" height="81" transform="translate(846.96 307.96) rotate(90)"/><rect class="cls-1" x="249.75" y="519.29" width="39.51" height="71" transform="translate(824.29 285.29) rotate(90)"/><rect class="cls-1" x="249.75" y="566.75" width="39.51" height="71" transform="translate(871.75 332.75) rotate(90)"/><rect class="cls-8" x="430.78" y="610.83" width="122.49" height="24.02" transform="translate(-28.22 23.37) rotate(-2.65)"/><rect class="cls-8" x="212.78" y="615.83" width="122.49" height="24.02" transform="translate(64.06 -24.23) rotate(5.73)"/><circle class="cls-7" cx="380" cy="416" r="44"/><circle class="cls-1" cx="379.5" cy="415.5" r="31.5"/><circle class="cls-1" cx="429.5" cy="786.5" r="7.5"/><rect class="cls-6" x="513.8" y="189.86" width="16.84" height="392.91" rx="5.67" transform="translate(-115.09 511.95) rotate(-47.64)"/><rect class="cls-6" x="241.28" y="196.76" width="15.21" height="400.19" rx="7.6" transform="translate(165.44 857.79) rotate(-137.64)"/><path class="cls-1" d="M550,864c0,7,.16,4.42-3.75,4.42-3.75,0-3.91,2.61-3.91-4.42s2.66-47,3.83-47S550,857,550,864Z"/><path class="cls-2" d="M572,843c0,7,1.06,4.42-24.8,4.42-24.81,0-25.85,2.61-25.85-4.42s17.58-47,25.33-47S572,836,572,843Z"/><circle class="cls-3" cx="561.5" cy="832.5" r="3.5"/><circle class="cls-3" cx="553.5" cy="839.5" r="2.5"/><circle class="cls-3" cx="552" cy="831" r="2"/><path class="cls-1" d="M592.86,869.43c0,3.56.08,2.23-1.9,2.23s-2,1.33-2-2.23,1.34-23.81,1.94-23.81S592.86,865.87,592.86,869.43Z"/><path class="cls-2" d="M604,858.79c0,3.56.53,2.24-12.57,2.24-12.56,0-13.09,1.32-13.09-2.24S587.24,835,591.17,835,604,855.23,604,858.79Z"/><circle class="cls-3" cx="598.68" cy="853.47" r="1.77"/><circle class="cls-3" cx="594.63" cy="857.01" r="1.27"/><circle class="cls-3" cx="593.87" cy="852.71" r="1.01"/><path class="cls-1" d="M537.31,609c0,2.69.06,1.69-1.43,1.69s-1.5,1-1.5-1.69,1-18,1.47-18S537.31,606.34,537.31,609Z"/><path class="cls-2" d="M545.73,601c0,2.69.4,1.69-9.5,1.69-9.49,0-9.89,1-9.89-1.69s6.73-18,9.7-18S545.73,598.3,545.73,601Z"/><circle class="cls-3" cx="541.71" cy="596.97" r="1.34"/><circle class="cls-3" cx="538.65" cy="599.65" r="0.96"/><circle class="cls-3" cx="538.08" cy="596.4" r="0.77"/><path class="cls-1" d="M446.31,613c0,2.69.06,1.69-1.43,1.69s-1.5,1-1.5-1.69,1-18,1.47-18S446.31,610.34,446.31,613Z"/><path class="cls-2" d="M454.73,605c0,2.69.4,1.69-9.5,1.69-9.49,0-9.89,1-9.89-1.69s6.73-18,9.7-18S454.73,602.3,454.73,605Z"/><circle class="cls-3" cx="450.71" cy="600.97" r="1.34"/><circle class="cls-3" cx="447.65" cy="603.65" r="0.96"/><circle class="cls-3" cx="447.08" cy="600.4" r="0.77"/><path class="cls-1" d="M321.31,618c0,2.69.06,1.69-1.43,1.69s-1.5,1-1.5-1.69,1-18,1.47-18S321.31,615.34,321.31,618Z"/><path class="cls-2" d="M329.73,610c0,2.69.4,1.69-9.5,1.69-9.49,0-9.89,1-9.89-1.69s6.73-18,9.7-18S329.73,607.3,329.73,610Z"/><circle class="cls-3" cx="325.71" cy="605.97" r="1.34"/><circle class="cls-3" cx="322.65" cy="608.65" r="0.96"/><circle class="cls-3" cx="322.08" cy="605.4" r="0.77"/><path class="cls-1" d="M228.31,610c0,2.69.06,1.69-1.43,1.69s-1.5,1-1.5-1.69,1-18,1.47-18S228.31,607.34,228.31,610Z"/><path class="cls-2" d="M236.73,602c0,2.69.4,1.69-9.5,1.69-9.49,0-9.89,1-9.89-1.69s6.73-18,9.7-18S236.73,599.3,236.73,602Z"/><circle class="cls-3" cx="232.71" cy="597.97" r="1.34"/><circle class="cls-3" cx="229.65" cy="600.65" r="0.96"/><circle class="cls-3" cx="229.08" cy="597.4" r="0.77"/><path class="cls-1" d="M1362,900c0,7,.16,4.42-3.75,4.42-3.75,0-3.91,2.61-3.91-4.42s2.66-47,3.83-47S1362,893,1362,900Z"/><path class="cls-2" d="M1384,879c0,7,1.06,4.42-24.8,4.42-24.81,0-25.85,2.61-25.85-4.42s17.58-47,25.33-47S1384,872,1384,879Z"/><circle class="cls-3" cx="1373.5" cy="868.5" r="3.5"/><circle class="cls-3" cx="1365.5" cy="875.5" r="2.5"/><circle class="cls-3" cx="1364" cy="867" r="2"/><path class="cls-1" d="M1404.86,905.43c0,3.56.08,2.23-1.9,2.23s-2,1.33-2-2.23,1.34-23.81,1.94-23.81S1404.86,901.87,1404.86,905.43Z"/><path class="cls-2" d="M1416,894.79c0,3.56.53,2.24-12.57,2.24-12.56,0-13.09,1.32-13.09-2.24s8.9-23.81,12.83-23.81S1416,891.23,1416,894.79Z"/><circle class="cls-3" cx="1410.68" cy="889.47" r="1.77"/><circle class="cls-3" cx="1406.63" cy="893.01" r="1.27"/><circle class="cls-3" cx="1405.87" cy="888.71" r="1.01"/><path class="cls-1" d="M213,855.46c0,10.7.25,6.72-5.7,6.72-5.71,0-5.94,4-5.94-6.72s4-71.51,5.82-71.51S213,844.77,213,855.46Z"/><path class="cls-2" d="M246.41,823.52c0,10.69,1.61,6.71-37.74,6.71-37.74,0-39.31,4-39.31-6.71S196.09,752,207.89,752,246.41,812.82,246.41,823.52Z"/><circle class="cls-3" cx="230.45" cy="807.53" r="5.32"/><circle class="cls-3" cx="218.28" cy="818.17" r="3.8"/><circle class="cls-3" cx="216" cy="805.24" r="3.04"/><path class="cls-1" d="M1200,904.46c0,10.7.25,6.72-5.7,6.72-5.71,0-5.94,4-5.94-6.72s4-71.51,5.82-71.51S1200,893.77,1200,904.46Z"/><path class="cls-2" d="M1233.41,872.52c0,10.69,1.61,6.71-37.74,6.71-37.74,0-39.31,4-39.31-6.71S1183.09,801,1194.89,801,1233.41,861.82,1233.41,872.52Z"/><circle class="cls-3" cx="1217.45" cy="856.53" r="5.32"/><circle class="cls-3" cx="1205.28" cy="867.17" r="3.8"/><circle class="cls-3" cx="1203" cy="854.24" r="3.04"/><path d="M1162.62,172.47a1.57,1.57,0,0,1-.46-1.15V149.46a1.65,1.65,0,0,1,.46-1.17,1.57,1.57,0,0,1,1.16-.48h8.49a9.05,9.05,0,0,1,6,1.76,6.48,6.48,0,0,1,1.12,8.23,6.17,6.17,0,0,1-2.54,2.07,8,8,0,0,1,3.55,2.19,5.45,5.45,0,0,1,1.38,3.82,6.37,6.37,0,0,1-2.23,5.18q-2.23,1.88-7,1.88h-8.71A1.6,1.6,0,0,1,1162.62,172.47Zm8.79-13.79q3.19,0,4.5-1.08a3.73,3.73,0,0,0,1.3-3,3.18,3.18,0,0,0-1.39-2.7,6.28,6.28,0,0,0-3.8-1h-6.59v7.81Zm.76,11.2q3.48,0,4.95-1.08a3.58,3.58,0,0,0,1.45-3.06q0-4.11-6.37-4.11h-6.77v8.25Z"/><path d="M1189,172.36a6.11,6.11,0,0,1-2.23-2.56,8.07,8.07,0,0,1-.77-3.56V156a1.57,1.57,0,0,1,.48-1.16,1.65,1.65,0,0,1,1.17-.46,1.59,1.59,0,0,1,1.62,1.62v9.86q0,4.4,4,4.39a5.73,5.73,0,0,0,3.22-.93,11.92,11.92,0,0,0,2.69-2.52V156a1.57,1.57,0,0,1,.48-1.16,1.65,1.65,0,0,1,1.17-.46,1.59,1.59,0,0,1,1.62,1.62v15.44a1.58,1.58,0,0,1-.47,1.17,1.54,1.54,0,0,1-1.15.49,1.63,1.63,0,0,1-1.17-.49,1.59,1.59,0,0,1-.48-1.17V170a12.07,12.07,0,0,1-3,2.42,7.42,7.42,0,0,1-3.74.9A6.26,6.26,0,0,1,1189,172.36Z"/><path d="M1209.21,168.54V157.38h-2.56a.65.65,0,0,1-.48-.19.7.7,0,0,1-.2-.49.76.76,0,0,1,.32-.61l4.9-4.79a.89.89,0,0,1,.61-.32.65.65,0,0,1,.49.21.74.74,0,0,1,.2.51v2.88h4.06a1.37,1.37,0,0,1,1,.39,1.36,1.36,0,0,1,.4,1,1.37,1.37,0,0,1-.4,1,1.31,1.31,0,0,1-1,.41h-4.06v10.88c0,.93.22,1.53.66,1.78a3.37,3.37,0,0,0,1.68.38,5.14,5.14,0,0,0,1.44-.22l.3-.07a1.66,1.66,0,0,1,.42,0,1.3,1.3,0,0,1,.9.38,1.23,1.23,0,0,1,.39.92,1.37,1.37,0,0,1-.83,1.26,7,7,0,0,1-3,.65Q1209.21,173.3,1209.21,168.54Z"/><path d="M1232.32,168.54V157.38h-2.56a.65.65,0,0,1-.48-.19.7.7,0,0,1-.2-.49.76.76,0,0,1,.32-.61l4.9-4.79a.89.89,0,0,1,.61-.32.65.65,0,0,1,.49.21.74.74,0,0,1,.2.51v2.88h4.07a1.41,1.41,0,0,1,1,2.39,1.31,1.31,0,0,1-1,.41h-4.07v10.88c0,.93.22,1.53.66,1.78a3.39,3.39,0,0,0,1.68.38,5.14,5.14,0,0,0,1.44-.22l.3-.07a1.66,1.66,0,0,1,.42,0,1.3,1.3,0,0,1,.9.38,1.23,1.23,0,0,1,.39.92,1.35,1.35,0,0,1-.83,1.26,7,7,0,0,1-3,.65Q1232.32,173.3,1232.32,168.54Z"/><path d="M1245.46,172.65a1.58,1.58,0,0,1-.47-1.15V148.13a1.66,1.66,0,0,1,.47-1.17,1.55,1.55,0,0,1,1.15-.48,1.66,1.66,0,0,1,1.66,1.65v9.4a11.8,11.8,0,0,1,3-2.41,7.45,7.45,0,0,1,3.74-.9,6.26,6.26,0,0,1,3.44.93,6.1,6.1,0,0,1,2.23,2.56,8.11,8.11,0,0,1,.78,3.56V171.5a1.52,1.52,0,0,1-.49,1.15,1.62,1.62,0,0,1-1.17.47,1.6,1.6,0,0,1-1.62-1.62v-9.87q0-4.4-4-4.39a5.68,5.68,0,0,0-3.22.94,11.45,11.45,0,0,0-2.68,2.52v10.8a1.52,1.52,0,0,1-.49,1.15,1.62,1.62,0,0,1-1.17.47A1.58,1.58,0,0,1,1245.46,172.65Z"/><path d="M1268.27,170.79a9.55,9.55,0,0,1-2.47-7,11.63,11.63,0,0,1,.94-4.72,8,8,0,0,1,2.88-3.49,8.23,8.23,0,0,1,4.78-1.33,8.34,8.34,0,0,1,4.61,1.24,8,8,0,0,1,3,3.31,10.09,10.09,0,0,1,1,4.52,1.57,1.57,0,0,1-1.65,1.62h-12.21a5.91,5.91,0,0,0,1.87,3.92,6.45,6.45,0,0,0,4.43,1.41,10.07,10.07,0,0,0,4.86-1.12,1.38,1.38,0,0,1,.65-.14,1.47,1.47,0,0,1,1,.39,1.31,1.31,0,0,1,.43,1,1.55,1.55,0,0,1-.94,1.33,12.65,12.65,0,0,1-2.77,1.19,13.14,13.14,0,0,1-3.53.4A9.18,9.18,0,0,1,1268.27,170.79Zm11.46-8.55a5.75,5.75,0,0,0-.92-3,4.93,4.93,0,0,0-2-1.74,5.49,5.49,0,0,0-4.83,0,4.84,4.84,0,0,0-2,1.74,5.84,5.84,0,0,0-.9,3Z"/><path d="M1301,181a13.61,13.61,0,0,1-3.49-1.34,1.34,1.34,0,0,1-.65-1.26,1.49,1.49,0,0,1,.41-1,1.35,1.35,0,0,1,1-.45,1.91,1.91,0,0,1,.65.14,13.1,13.1,0,0,0,5.94,1.37q5.5,0,5.5-5.87V170.2a8.12,8.12,0,0,1-6.15,2.74,8.64,8.64,0,0,1-4.12-1.07,8.53,8.53,0,0,1-3.3-3.16,10.85,10.85,0,0,1,0-10.26,8.69,8.69,0,0,1,7.42-4.23,8.11,8.11,0,0,1,6.15,2.73v-.9a1.66,1.66,0,0,1,.47-1.17,1.55,1.55,0,0,1,1.15-.48,1.66,1.66,0,0,1,1.66,1.65v16.09q0,4.55-2.2,7a8,8,0,0,1-6.26,2.45A17,17,0,0,1,1301,181Zm6.91-11.81a10.73,10.73,0,0,0,2.48-1.95v-7.41a10.73,10.73,0,0,0-2.48-2,6,6,0,0,0-3-.72,6.12,6.12,0,0,0-4.41,1.64,7.41,7.41,0,0,0,0,9.47,6.12,6.12,0,0,0,4.41,1.64A6,6,0,0,0,1307.92,169.23Z"/><path d="M1319.84,172.65a1.54,1.54,0,0,1-.47-1.15V156.05a1.62,1.62,0,0,1,.47-1.17,1.53,1.53,0,0,1,1.15-.48,1.64,1.64,0,0,1,1.65,1.65v1.48a12,12,0,0,1,3-2.41,7.42,7.42,0,0,1,3.74-.9,6.26,6.26,0,0,1,3.44.93,6.17,6.17,0,0,1,2.23,2.56,8.1,8.1,0,0,1,.77,3.56V171.5a1.55,1.55,0,0,1-.48,1.15,1.66,1.66,0,0,1-1.17.47,1.56,1.56,0,0,1-1.15-.47,1.54,1.54,0,0,1-.47-1.15v-9.87q0-4.4-4-4.39a5.66,5.66,0,0,0-3.22.94,11.48,11.48,0,0,0-2.69,2.52v10.8a1.55,1.55,0,0,1-.48,1.15,1.66,1.66,0,0,1-1.17.47A1.56,1.56,0,0,1,1319.84,172.65Z"/><path d="M1344.53,172.11a8.12,8.12,0,0,1-3.22-3.37,11.56,11.56,0,0,1,0-10,8.18,8.18,0,0,1,3.22-3.37,10.54,10.54,0,0,1,9.69,0,8.29,8.29,0,0,1,3.24,3.37,11.38,11.38,0,0,1,0,10,8.22,8.22,0,0,1-3.24,3.37,10.46,10.46,0,0,1-9.69,0Zm7.69-2.49a5.43,5.43,0,0,0,2.23-2.16,8.32,8.32,0,0,0,0-7.45,5.38,5.38,0,0,0-2.23-2.14,6.38,6.38,0,0,0-5.69,0,5.22,5.22,0,0,0-2.21,2.14,8.41,8.41,0,0,0,0,7.45,5.27,5.27,0,0,0,2.21,2.16,6.21,6.21,0,0,0,5.69,0Z"/><path d="M1363.65,172.65a1.54,1.54,0,0,1-.47-1.15V156.05a1.62,1.62,0,0,1,.47-1.17,1.53,1.53,0,0,1,1.15-.48,1.61,1.61,0,0,1,1.17.48,1.63,1.63,0,0,1,.49,1.17v1.48a9.12,9.12,0,0,1,2.42-2.38,6.65,6.65,0,0,1,3.7-.93,5.59,5.59,0,0,1,3.45,1.08,6,6,0,0,1,2,2.62,7.26,7.26,0,0,1,6.63-3.7,5.47,5.47,0,0,1,3.36,1,6,6,0,0,1,2,2.6,8.68,8.68,0,0,1,.65,3.31V171.5a1.52,1.52,0,0,1-.49,1.15,1.62,1.62,0,0,1-1.17.47,1.6,1.6,0,0,1-1.62-1.62v-9.72a5.75,5.75,0,0,0-.82-3.44,3.36,3.36,0,0,0-2.85-1.1,4.78,4.78,0,0,0-3,.95,9,9,0,0,0-2.14,2.51v10.8a1.56,1.56,0,0,1-.49,1.15,1.62,1.62,0,0,1-1.17.47,1.56,1.56,0,0,1-1.15-.47,1.58,1.58,0,0,1-.47-1.15v-9.72a5.68,5.68,0,0,0-.83-3.44,3.34,3.34,0,0,0-2.84-1.1,4.78,4.78,0,0,0-3,.95,9,9,0,0,0-2.14,2.51v10.8a1.56,1.56,0,0,1-.49,1.15,1.64,1.64,0,0,1-1.17.47A1.56,1.56,0,0,1,1363.65,172.65Z"/><path d="M1397.58,170.79a9.55,9.55,0,0,1-2.47-7,11.63,11.63,0,0,1,.94-4.72,8,8,0,0,1,2.88-3.49,8.23,8.23,0,0,1,4.78-1.33,8.34,8.34,0,0,1,4.61,1.24,8.09,8.09,0,0,1,3,3.31,10.22,10.22,0,0,1,1,4.52,1.57,1.57,0,0,1-1.65,1.62h-12.21a6,6,0,0,0,1.87,3.92,6.45,6.45,0,0,0,4.43,1.41,10.07,10.07,0,0,0,4.86-1.12,1.38,1.38,0,0,1,.65-.14,1.47,1.47,0,0,1,1,.39,1.31,1.31,0,0,1,.43,1,1.55,1.55,0,0,1-.93,1.33,12.72,12.72,0,0,1-2.78,1.19,13.09,13.09,0,0,1-3.53.4A9.18,9.18,0,0,1,1397.58,170.79Zm11.46-8.55a5.66,5.66,0,0,0-.92-3,4.93,4.93,0,0,0-2-1.74,5.49,5.49,0,0,0-4.83,0,4.84,4.84,0,0,0-2,1.74,5.94,5.94,0,0,0-.9,3Z"/><path d="M1426.43,180.91a1.62,1.62,0,0,1-.47-1.17V156a1.6,1.6,0,0,1,.47-1.16,1.57,1.57,0,0,1,1.15-.46,1.61,1.61,0,0,1,1.17.46,1.54,1.54,0,0,1,.49,1.16V157a8.27,8.27,0,0,1,6.15-2.73,8.38,8.38,0,0,1,4.23,1.13,8.62,8.62,0,0,1,3.25,3.31,11.09,11.09,0,0,1,0,10.19,8.55,8.55,0,0,1-3.25,3.31,8.39,8.39,0,0,1-4.23,1.14,8.28,8.28,0,0,1-6.15-2.74v9.18a1.61,1.61,0,0,1-1.66,1.66A1.56,1.56,0,0,1,1426.43,180.91Zm12.78-12.37a7.88,7.88,0,0,0,0-9.57,5.65,5.65,0,0,0-4.28-1.69,6.85,6.85,0,0,0-3.12.73,9,9,0,0,0-2.57,2v7.56a8.91,8.91,0,0,0,2.57,2,6.86,6.86,0,0,0,3.12.74A5.66,5.66,0,0,0,1439.21,168.54Z"/><path d="M1451.5,172.36a6.11,6.11,0,0,1-2.23-2.56,8.21,8.21,0,0,1-.77-3.56V156a1.57,1.57,0,0,1,.48-1.16,1.65,1.65,0,0,1,1.17-.46,1.57,1.57,0,0,1,1.62,1.62v9.86q0,4.4,4,4.39a5.79,5.79,0,0,0,3.23-.93,12.09,12.09,0,0,0,2.68-2.52V156a1.57,1.57,0,0,1,.48-1.16,1.65,1.65,0,0,1,1.17-.46,1.59,1.59,0,0,1,1.63,1.62v15.44a1.62,1.62,0,0,1-.47,1.17,1.58,1.58,0,0,1-1.16.49,1.63,1.63,0,0,1-1.17-.49,1.59,1.59,0,0,1-.48-1.17V170a12,12,0,0,1-3,2.42,7.49,7.49,0,0,1-3.75.9A6.29,6.29,0,0,1,1451.5,172.36Z"/><path d="M1471.68,168.54V157.38h-2.55a.66.66,0,0,1-.49-.19.7.7,0,0,1-.2-.49.75.75,0,0,1,.33-.61l4.89-4.79a.89.89,0,0,1,.61-.32.64.64,0,0,1,.49.21.74.74,0,0,1,.2.51v2.88H1479a1.41,1.41,0,0,1,1,2.39,1.31,1.31,0,0,1-1,.41H1475v10.88c0,.93.22,1.53.66,1.78a3.42,3.42,0,0,0,1.68.38,5.14,5.14,0,0,0,1.44-.22l.3-.07a1.66,1.66,0,0,1,.42,0,1.3,1.3,0,0,1,.9.38,1.23,1.23,0,0,1,.39.92,1.36,1.36,0,0,1-.82,1.26,7.12,7.12,0,0,1-3,.65Q1471.68,173.3,1471.68,168.54Z"/><path d="M1496.54,172.36a6,6,0,0,1-2.23-2.56,8.08,8.08,0,0,1-.78-3.56V156a1.58,1.58,0,0,1,.49-1.16,1.61,1.61,0,0,1,1.17-.46,1.55,1.55,0,0,1,1.15.46,1.6,1.6,0,0,1,.47,1.16v9.86q0,4.4,4,4.39a5.75,5.75,0,0,0,3.22-.93,11.88,11.88,0,0,0,2.68-2.52V156a1.58,1.58,0,0,1,.49-1.16,1.61,1.61,0,0,1,1.17-.46,1.55,1.55,0,0,1,1.15.46A1.6,1.6,0,0,1,1510,156v15.44a1.62,1.62,0,0,1-.47,1.17,1.54,1.54,0,0,1-1.15.49,1.67,1.67,0,0,1-1.66-1.66V170a11.84,11.84,0,0,1-3,2.42,7.42,7.42,0,0,1-3.74.9A6.26,6.26,0,0,1,1496.54,172.36Z"/><path d="M1516.11,180.91a1.58,1.58,0,0,1-.47-1.17V156a1.59,1.59,0,0,1,1.62-1.62,1.65,1.65,0,0,1,1.17.46,1.57,1.57,0,0,1,.48,1.16V157a8.38,8.38,0,0,1,10.39-1.6,8.67,8.67,0,0,1,3.24,3.31,11.09,11.09,0,0,1,0,10.19,8.6,8.6,0,0,1-3.24,3.31,8.34,8.34,0,0,1-10.39-1.6v9.18a1.61,1.61,0,0,1-.46,1.19,1.64,1.64,0,0,1-1.19.47A1.54,1.54,0,0,1,1516.11,180.91Zm12.78-12.37a7.88,7.88,0,0,0,0-9.57,5.66,5.66,0,0,0-4.29-1.69,6.81,6.81,0,0,0-3.11.73,9.13,9.13,0,0,0-2.58,2v7.56a9.09,9.09,0,0,0,2.58,2,6.82,6.82,0,0,0,3.11.74A5.66,5.66,0,0,0,1528.89,168.54Z"/><path d="M1549.46,172.65a5,5,0,0,1-2.14-1.89,5.19,5.19,0,0,1-.79-2.86,5,5,0,0,1,2.1-4.25,10.15,10.15,0,0,1,6.18-1.59h4.35v-.28a4.36,4.36,0,0,0-1.17-3.42,5.36,5.36,0,0,0-3.65-1.05,11.78,11.78,0,0,0-2.43.22,19,19,0,0,0-2.36.65,2.54,2.54,0,0,1-.47.07,1.24,1.24,0,0,1-.93-.4,1.3,1.3,0,0,1-.4-1,1.39,1.39,0,0,1,.94-1.37,15.83,15.83,0,0,1,6.22-1.29,8.16,8.16,0,0,1,4.2,1,6.43,6.43,0,0,1,2.52,2.61,7.61,7.61,0,0,1,.81,3.48V171.5a1.52,1.52,0,0,1-.49,1.15,1.62,1.62,0,0,1-1.17.47,1.6,1.6,0,0,1-1.62-1.62v-.94a9.07,9.07,0,0,1-6.77,2.74A6.72,6.72,0,0,1,1549.46,172.65Zm7.22-3a8.53,8.53,0,0,0,2.48-1.92v-3h-3.92q-5.45,0-5.44,2.85a2.64,2.64,0,0,0,.88,2.08,4.36,4.36,0,0,0,2.94.8A6.5,6.5,0,0,0,1556.68,169.64Z"/><path d="M1161.64,198.37a1.94,1.94,0,0,1-.6-1.42v-2.13a5.8,5.8,0,0,1,3-5.25,1.05,1.05,0,0,1,.62-.18,1,1,0,0,1,.73.32,1.06,1.06,0,0,1,.31.76,1,1,0,0,1-.54.9,4.1,4.1,0,0,0-1.37,1.26,3.85,3.85,0,0,0-.47,2.09h.15a2,2,0,0,1,2,2V197a2,2,0,0,1-2,2h-.36A1.89,1.89,0,0,1,1161.64,198.37Zm6.51,0a1.93,1.93,0,0,1-.59-1.42v-2.13a5.78,5.78,0,0,1,3-5.25,1,1,0,0,1,.61-.18,1,1,0,0,1,.74.32,1.1,1.1,0,0,1,.31.76,1,1,0,0,1-.55.9,4.16,4.16,0,0,0-1.36,1.26,3.85,3.85,0,0,0-.47,2.09h.14a1.93,1.93,0,0,1,1.43.59,2,2,0,0,1,.59,1.42V197a2,2,0,0,1-.59,1.42,1.93,1.93,0,0,1-1.43.59h-.36A1.93,1.93,0,0,1,1168.15,198.37Z"/><path d="M1177.71,215.85a1.58,1.58,0,0,1-.47-1.15V199.25a1.66,1.66,0,0,1,.47-1.17,1.55,1.55,0,0,1,1.15-.48,1.66,1.66,0,0,1,1.66,1.65v1.48a11.8,11.8,0,0,1,3-2.41,7.45,7.45,0,0,1,3.74-.9,6.26,6.26,0,0,1,3.44.93,6.1,6.1,0,0,1,2.23,2.56,8.11,8.11,0,0,1,.78,3.56V214.7a1.52,1.52,0,0,1-.49,1.15,1.62,1.62,0,0,1-1.17.47,1.56,1.56,0,0,1-1.15-.47,1.58,1.58,0,0,1-.47-1.15v-9.87q0-4.4-4-4.39a5.68,5.68,0,0,0-3.22.94,11.45,11.45,0,0,0-2.68,2.52v10.8a1.52,1.52,0,0,1-.49,1.15,1.62,1.62,0,0,1-1.17.47A1.58,1.58,0,0,1,1177.71,215.85Z"/><path d="M1202.41,215.31a8.08,8.08,0,0,1-3.23-3.37,11.56,11.56,0,0,1,0-10,8.14,8.14,0,0,1,3.23-3.37,10.52,10.52,0,0,1,9.68,0,8.29,8.29,0,0,1,3.24,3.37,11.38,11.38,0,0,1,0,10,8.22,8.22,0,0,1-3.24,3.37,10.44,10.44,0,0,1-9.68,0Zm7.68-2.49a5.43,5.43,0,0,0,2.23-2.16,8.24,8.24,0,0,0,0-7.45,5.38,5.38,0,0,0-2.23-2.14,6.36,6.36,0,0,0-2.83-.67,6.46,6.46,0,0,0-2.86.67,5.22,5.22,0,0,0-2.21,2.14,8.5,8.5,0,0,0,0,7.45,5.27,5.27,0,0,0,2.21,2.16,6.22,6.22,0,0,0,2.86.69A6.13,6.13,0,0,0,1210.09,212.82Z"/><path d="M1233.69,213.76v.94a1.52,1.52,0,0,1-.49,1.15,1.62,1.62,0,0,1-1.17.47,1.6,1.6,0,0,1-1.62-1.62V191.33a1.66,1.66,0,0,1,.47-1.17,1.55,1.55,0,0,1,1.15-.48,1.61,1.61,0,0,1,1.19.46,1.64,1.64,0,0,1,.47,1.19v8.82a8.27,8.27,0,0,1,6.15-2.73,8.38,8.38,0,0,1,4.23,1.13,8.53,8.53,0,0,1,3.24,3.31,11,11,0,0,1,0,10.19,8.56,8.56,0,0,1-7.47,4.45A8.28,8.28,0,0,1,1233.69,213.76Zm10-2a7.88,7.88,0,0,0,0-9.57,5.65,5.65,0,0,0-4.28-1.69,6.82,6.82,0,0,0-3.12.73,9,9,0,0,0-2.57,2v7.56a8.91,8.91,0,0,0,2.57,2,6.83,6.83,0,0,0,3.12.74A5.66,5.66,0,0,0,1243.66,211.74Z"/><path d="M1256.37,215.31a8.05,8.05,0,0,1-3.22-3.37,11.47,11.47,0,0,1,0-10,8.11,8.11,0,0,1,3.22-3.37,10.52,10.52,0,0,1,9.68,0,8.29,8.29,0,0,1,3.24,3.37,11.38,11.38,0,0,1,0,10,8.22,8.22,0,0,1-3.24,3.37,10.44,10.44,0,0,1-9.68,0Zm7.68-2.49a5.45,5.45,0,0,0,2.24-2.16,8.32,8.32,0,0,0,0-7.45,5.4,5.4,0,0,0-2.24-2.14,6.35,6.35,0,0,0-2.82-.67,6.43,6.43,0,0,0-2.86.67,5.3,5.3,0,0,0-2.22,2.14,8.5,8.5,0,0,0,0,7.45,5.35,5.35,0,0,0,2.22,2.16,6.19,6.19,0,0,0,2.86.69A6.12,6.12,0,0,0,1264.05,212.82Z"/><path d="M1278.29,213.76v.94a1.55,1.55,0,0,1-.48,1.15,1.66,1.66,0,0,1-1.17.47,1.6,1.6,0,0,1-1.16-.47,1.57,1.57,0,0,1-.46-1.15V191.33a1.65,1.65,0,0,1,.46-1.17,1.57,1.57,0,0,1,1.16-.48,1.59,1.59,0,0,1,1.65,1.65v8.82a8.29,8.29,0,0,1,6.16-2.73,8.38,8.38,0,0,1,4.23,1.13,8.67,8.67,0,0,1,3.24,3.31,11.09,11.09,0,0,1,0,10.19,8.6,8.6,0,0,1-3.24,3.31,8.39,8.39,0,0,1-4.23,1.14A8.3,8.3,0,0,1,1278.29,213.76Zm10-2a7.88,7.88,0,0,0,0-9.57,5.63,5.63,0,0,0-4.28-1.69,6.81,6.81,0,0,0-3.11.73,9,9,0,0,0-2.58,2v7.56a9,9,0,0,0,2.58,2,6.82,6.82,0,0,0,3.11.74A5.64,5.64,0,0,0,1288.26,211.74Z"/><path d="M1301,213.76v.94a1.52,1.52,0,0,1-.49,1.15,1.62,1.62,0,0,1-1.17.47,1.6,1.6,0,0,1-1.62-1.62V191.33a1.66,1.66,0,0,1,.47-1.17,1.55,1.55,0,0,1,1.15-.48,1.61,1.61,0,0,1,1.19.46,1.64,1.64,0,0,1,.47,1.19v8.82a8.27,8.27,0,0,1,6.15-2.73,8.38,8.38,0,0,1,4.23,1.13,8.53,8.53,0,0,1,3.24,3.31,11,11,0,0,1,0,10.19,8.56,8.56,0,0,1-7.47,4.45A8.28,8.28,0,0,1,1301,213.76Zm10-2a7.88,7.88,0,0,0,0-9.57,5.65,5.65,0,0,0-4.28-1.69,6.82,6.82,0,0,0-3.12.73,9,9,0,0,0-2.57,2v7.56a8.91,8.91,0,0,0,2.57,2,6.83,6.83,0,0,0,3.12.74A5.66,5.66,0,0,0,1311,211.74Z"/><path d="M1320.92,215.85a1.54,1.54,0,0,1-.47-1.15V191.33a1.62,1.62,0,0,1,.47-1.17,1.53,1.53,0,0,1,1.15-.48,1.58,1.58,0,0,1,1.65,1.65V214.7a1.55,1.55,0,0,1-.48,1.15,1.66,1.66,0,0,1-1.17.47A1.56,1.56,0,0,1,1320.92,215.85Z"/><path d="M1329.66,193.49a1.76,1.76,0,0,1-.54-1.29v-.15a1.76,1.76,0,0,1,.54-1.29,1.78,1.78,0,0,1,1.3-.54h.22a1.84,1.84,0,0,1,1.83,1.83v.15a1.84,1.84,0,0,1-1.83,1.83H1331A1.78,1.78,0,0,1,1329.66,193.49Zm.22,22.36a1.58,1.58,0,0,1-.47-1.15V199.25a1.66,1.66,0,0,1,.47-1.17,1.55,1.55,0,0,1,1.15-.48,1.61,1.61,0,0,1,1.19.46,1.64,1.64,0,0,1,.47,1.19V214.7a1.52,1.52,0,0,1-.49,1.15,1.62,1.62,0,0,1-1.17.47A1.58,1.58,0,0,1,1329.88,215.85Z"/><path d="M1338.84,215.85a1.57,1.57,0,0,1-.46-1.15V199.25a1.65,1.65,0,0,1,.46-1.17,1.57,1.57,0,0,1,1.16-.48,1.64,1.64,0,0,1,1.65,1.65v1.48a12,12,0,0,1,2.95-2.41,7.49,7.49,0,0,1,3.75-.9,6.28,6.28,0,0,1,3.44.93,6.17,6.17,0,0,1,2.23,2.56,8.24,8.24,0,0,1,.77,3.56V214.7a1.55,1.55,0,0,1-.48,1.15,1.66,1.66,0,0,1-1.17.47,1.59,1.59,0,0,1-1.62-1.62v-9.87q0-4.4-4-4.39a5.72,5.72,0,0,0-3.23.94,11.45,11.45,0,0,0-2.68,2.52v10.8a1.55,1.55,0,0,1-.48,1.15,1.66,1.66,0,0,1-1.17.47A1.6,1.6,0,0,1,1338.84,215.85Z"/><path d="M1359.53,198.64a1.06,1.06,0,0,1-.31-.76,1,1,0,0,1,.54-.9,4.1,4.1,0,0,0,1.37-1.26,3.84,3.84,0,0,0,.47-2.08h-.15a1.94,1.94,0,0,1-1.42-.6,1.91,1.91,0,0,1-.59-1.42v-.22A1.93,1.93,0,0,1,1360,190a2,2,0,0,1,1.42-.59h.36a2,2,0,0,1,2,2v2.13a5.8,5.8,0,0,1-2.95,5.25,1.17,1.17,0,0,1-.62.18A1,1,0,0,1,1359.53,198.64Zm6.51,0a1.09,1.09,0,0,1-.3-.76,1,1,0,0,1,.54-.9,4.06,4.06,0,0,0,1.36-1.26,3.75,3.75,0,0,0,.47-2.08H1368a2,2,0,0,1-2-2v-.22a2,2,0,0,1,2-2h.36a2,2,0,0,1,1.42.59,1.93,1.93,0,0,1,.59,1.42v2.13a5.78,5.78,0,0,1-2.95,5.25,1,1,0,0,1-.61.18A1,1,0,0,1,1366,198.64Z"/><path d="M1383.66,214.88a1.38,1.38,0,0,1-.61-1.19,1.42,1.42,0,0,1,.4-1,1.29,1.29,0,0,1,1-.43,1.64,1.64,0,0,1,.64.14,14,14,0,0,0,2.31.79,10.26,10.26,0,0,0,2.59.29c2.66,0,4-.85,4-2.55a1.35,1.35,0,0,0-.92-1.26,18.51,18.51,0,0,0-3-1,26.85,26.85,0,0,1-3.51-1,6.13,6.13,0,0,1-2.37-1.64,4.16,4.16,0,0,1-1-2.9A5.19,5.19,0,0,1,1385,199a7.67,7.67,0,0,1,5.21-1.58,15.07,15.07,0,0,1,5.22.9,1.31,1.31,0,0,1,.77.54,1.42,1.42,0,0,1-.14,1.83,1.37,1.37,0,0,1-1,.43,1.9,1.9,0,0,1-.47-.07,13.85,13.85,0,0,0-4.1-.65,5.58,5.58,0,0,0-3,.71,2.06,2.06,0,0,0-1.1,1.81,1.67,1.67,0,0,0,1,1.59,14.82,14.82,0,0,0,3.14,1,29.41,29.41,0,0,1,3.45,1.06,5.8,5.8,0,0,1,2.29,1.64,4.47,4.47,0,0,1,1,3,4.74,4.74,0,0,1-1.81,3.81,7.83,7.83,0,0,1-5.13,1.52A13.43,13.43,0,0,1,1383.66,214.88Z"/><path d="M1401.81,193.49a1.76,1.76,0,0,1-.54-1.29v-.15a1.84,1.84,0,0,1,1.83-1.83h.22a1.8,1.8,0,0,1,1.3.54,1.76,1.76,0,0,1,.54,1.29v.15a1.76,1.76,0,0,1-.54,1.29,1.8,1.8,0,0,1-1.3.54h-.22A1.76,1.76,0,0,1,1401.81,193.49Zm.21,22.36a1.57,1.57,0,0,1-.46-1.15V199.25a1.65,1.65,0,0,1,.46-1.17,1.55,1.55,0,0,1,1.15-.48,1.6,1.6,0,0,1,1.19.46,1.64,1.64,0,0,1,.47,1.19V214.7a1.52,1.52,0,0,1-.49,1.15,1.62,1.62,0,0,1-1.17.47A1.58,1.58,0,0,1,1402,215.85Z"/><path d="M1414.88,224.24a13.7,13.7,0,0,1-3.5-1.34,1.36,1.36,0,0,1-.64-1.26,1.44,1.44,0,0,1,.41-1,1.33,1.33,0,0,1,1-.45,1.86,1.86,0,0,1,.65.14,13.16,13.16,0,0,0,5.94,1.37q5.51,0,5.51-5.87V213.4a8.14,8.14,0,0,1-6.15,2.74,8.71,8.71,0,0,1-4.13-1.07,8.5,8.5,0,0,1-3.29-3.16,10.77,10.77,0,0,1,0-10.26,8.53,8.53,0,0,1,3.29-3.17,8.69,8.69,0,0,1,4.13-1.06,8.13,8.13,0,0,1,6.15,2.73v-.9a1.66,1.66,0,0,1,.47-1.17,1.53,1.53,0,0,1,1.15-.48,1.59,1.59,0,0,1,1.17.48,1.63,1.63,0,0,1,.49,1.17v16.09c0,3-.74,5.36-2.2,7a8,8,0,0,1-6.26,2.45A17,17,0,0,1,1414.88,224.24Zm6.91-11.81a10.73,10.73,0,0,0,2.48-2v-7.41a10.73,10.73,0,0,0-2.48-1.95,6.68,6.68,0,0,0-7.4.92,7.41,7.41,0,0,0,0,9.47,6.68,6.68,0,0,0,7.4.92Z"/><path d="M1433.7,215.85a1.57,1.57,0,0,1-.46-1.15V199.25a1.65,1.65,0,0,1,.46-1.17,1.55,1.55,0,0,1,1.15-.48,1.66,1.66,0,0,1,1.66,1.65v1.48a12,12,0,0,1,3-2.41,7.49,7.49,0,0,1,3.75-.9,6.22,6.22,0,0,1,3.43.93,6.12,6.12,0,0,1,2.24,2.56,8.24,8.24,0,0,1,.77,3.56V214.7a1.55,1.55,0,0,1-.48,1.15,1.66,1.66,0,0,1-1.17.47,1.59,1.59,0,0,1-1.62-1.62v-9.87c0-2.93-1.33-4.39-4-4.39a5.69,5.69,0,0,0-3.23.94,11.45,11.45,0,0,0-2.68,2.52v10.8a1.52,1.52,0,0,1-.49,1.15,1.62,1.62,0,0,1-1.17.47A1.58,1.58,0,0,1,1433.7,215.85Z"/><path d="M1465,215.85a1.54,1.54,0,0,1-.47-1.15V191.33a1.62,1.62,0,0,1,.47-1.17,1.53,1.53,0,0,1,1.15-.48,1.58,1.58,0,0,1,1.65,1.65V214.7a1.55,1.55,0,0,1-.48,1.15,1.66,1.66,0,0,1-1.17.47A1.56,1.56,0,0,1,1465,215.85Z"/><path d="M1475.23,215.85a5,5,0,0,1-2.14-1.89,5.19,5.19,0,0,1-.8-2.86,5.05,5.05,0,0,1,2.11-4.25q2.1-1.59,6.17-1.59h4.36V205a4.36,4.36,0,0,0-1.17-3.42,5.36,5.36,0,0,0-3.65-1.05,11.71,11.71,0,0,0-2.43.22,19,19,0,0,0-2.36.65,2.54,2.54,0,0,1-.47.07,1.28,1.28,0,0,1-.94-.4,1.33,1.33,0,0,1-.39-1,1.39,1.39,0,0,1,.93-1.37,15.91,15.91,0,0,1,6.23-1.29,8.16,8.16,0,0,1,4.2,1,6.43,6.43,0,0,1,2.52,2.61,7.61,7.61,0,0,1,.81,3.48V214.7a1.56,1.56,0,0,1-.49,1.15,1.62,1.62,0,0,1-1.17.47,1.56,1.56,0,0,1-1.15-.47,1.58,1.58,0,0,1-.47-1.15v-.94a9.07,9.07,0,0,1-6.77,2.74A6.72,6.72,0,0,1,1475.23,215.85Zm7.22-3a8.53,8.53,0,0,0,2.48-1.92v-3H1481q-5.44,0-5.44,2.85a2.64,2.64,0,0,0,.88,2.08,4.36,4.36,0,0,0,2.94.8A6.5,6.5,0,0,0,1482.45,212.84Z"/><path d="M1493.1,214.88a1.38,1.38,0,0,1-.61-1.19,1.42,1.42,0,0,1,.4-1,1.29,1.29,0,0,1,1-.43,1.65,1.65,0,0,1,.65.14,14,14,0,0,0,2.31.79,10.26,10.26,0,0,0,2.59.29q4,0,4-2.55a1.34,1.34,0,0,0-.91-1.26,18.85,18.85,0,0,0-3-1,25.94,25.94,0,0,1-3.51-1,6.24,6.24,0,0,1-2.38-1.64,4.16,4.16,0,0,1-1-2.9,5.19,5.19,0,0,1,1.82-4.1,7.66,7.66,0,0,1,5.2-1.58,15,15,0,0,1,5.22.9,1.3,1.3,0,0,1,.78.54,1.43,1.43,0,0,1,.27.82,1.4,1.4,0,0,1-.42,1,1.33,1.33,0,0,1-1,.43,1.9,1.9,0,0,1-.47-.07,13.85,13.85,0,0,0-4.1-.65,5.64,5.64,0,0,0-3.05.71,2.07,2.07,0,0,0-1.09,1.81,1.67,1.67,0,0,0,1,1.59,14.82,14.82,0,0,0,3.14,1,30,30,0,0,1,3.45,1.06,5.8,5.8,0,0,1,2.29,1.64,4.47,4.47,0,0,1,.95,3,4.72,4.72,0,0,1-1.82,3.81,7.79,7.79,0,0,1-5.13,1.52A13.39,13.39,0,0,1,1493.1,214.88Z"/><path d="M1511.93,211.74V200.58h-2.55a.66.66,0,0,1-.49-.19.7.7,0,0,1-.2-.49.76.76,0,0,1,.32-.61l4.9-4.79a.89.89,0,0,1,.61-.32.65.65,0,0,1,.49.21.74.74,0,0,1,.2.51v2.88h4.06a1.37,1.37,0,0,1,1,.39,1.36,1.36,0,0,1,.4,1,1.37,1.37,0,0,1-.4,1,1.31,1.31,0,0,1-1,.41h-4.06v10.88c0,.93.22,1.53.66,1.78a3.39,3.39,0,0,0,1.68.38,5.14,5.14,0,0,0,1.44-.22l.3-.07a1.66,1.66,0,0,1,.42,0,1.3,1.3,0,0,1,.9.38,1.23,1.23,0,0,1,.39.92,1.35,1.35,0,0,1-.83,1.26,7,7,0,0,1-3,.65Q1511.93,216.5,1511.93,211.74Z"/><path d="M1535.08,215.85a1.58,1.58,0,0,1-.47-1.15v-22a1.66,1.66,0,0,1,.47-1.17,1.53,1.53,0,0,1,1.15-.48h14a1.54,1.54,0,0,1,1.55,1.55,1.44,1.44,0,0,1-.45,1.08,1.55,1.55,0,0,1-1.1.43h-12.34v8H1549a1.49,1.49,0,0,1,1.1.45,1.5,1.5,0,0,1,.45,1.1,1.44,1.44,0,0,1-.45,1.08,1.51,1.51,0,0,1-1.1.43h-11.08v9.62a1.56,1.56,0,0,1-.49,1.15,1.62,1.62,0,0,1-1.17.47A1.56,1.56,0,0,1,1535.08,215.85Z"/><path d="M1555.35,215.85a1.54,1.54,0,0,1-.47-1.15V199.25a1.62,1.62,0,0,1,.47-1.17,1.53,1.53,0,0,1,1.15-.48,1.64,1.64,0,0,1,1.65,1.65v1.55c1.68-2.26,3.57-3.38,5.66-3.38h.18a1.51,1.51,0,0,1,1.13.46,1.62,1.62,0,0,1,.45,1.16,1.46,1.46,0,0,1-.47,1.11,1.67,1.67,0,0,1-1.19.43h-.18a6.16,6.16,0,0,0-3.16.85,7.33,7.33,0,0,0-2.42,2.32V214.7a1.55,1.55,0,0,1-.48,1.15,1.66,1.66,0,0,1-1.17.47A1.56,1.56,0,0,1,1555.35,215.85Z"/><path d="M1568.92,193.49a1.76,1.76,0,0,1-.54-1.29v-.15a1.84,1.84,0,0,1,1.83-1.83h.22a1.78,1.78,0,0,1,1.3.54,1.76,1.76,0,0,1,.54,1.29v.15a1.76,1.76,0,0,1-.54,1.29,1.78,1.78,0,0,1-1.3.54h-.22A1.76,1.76,0,0,1,1568.92,193.49Zm.21,22.36a1.57,1.57,0,0,1-.46-1.15V199.25a1.65,1.65,0,0,1,.46-1.17,1.57,1.57,0,0,1,1.16-.48,1.59,1.59,0,0,1,1.65,1.65V214.7a1.55,1.55,0,0,1-.48,1.15,1.66,1.66,0,0,1-1.17.47A1.6,1.6,0,0,1,1569.13,215.85Z"/><path d="M1581,215.36a8.46,8.46,0,0,1-3.24-3.31,11,11,0,0,1,0-10.19,8.53,8.53,0,0,1,3.24-3.31,8.38,8.38,0,0,1,4.23-1.13,8.27,8.27,0,0,1,6.15,2.73v-8.82a1.58,1.58,0,0,1,.49-1.19,1.61,1.61,0,0,1,1.17-.46,1.55,1.55,0,0,1,1.15.48,1.66,1.66,0,0,1,.47,1.17V214.7a1.6,1.6,0,0,1-1.62,1.62,1.62,1.62,0,0,1-1.17-.47,1.52,1.52,0,0,1-.49-1.15v-.94a8.28,8.28,0,0,1-6.15,2.74A8.39,8.39,0,0,1,1581,215.36Zm7.81-2.66a8.91,8.91,0,0,0,2.57-2v-7.56a9,9,0,0,0-2.57-2,6.82,6.82,0,0,0-3.12-.73,5.65,5.65,0,0,0-4.28,1.69,7.88,7.88,0,0,0,0,9.57,5.66,5.66,0,0,0,4.28,1.7A6.83,6.83,0,0,0,1588.81,212.7Z"/><path d="M1602.09,215.85A5.09,5.09,0,0,1,1600,214a5.19,5.19,0,0,1-.79-2.86,5,5,0,0,1,2.1-4.25,10.17,10.17,0,0,1,6.18-1.59h4.35V205a4.36,4.36,0,0,0-1.17-3.42,5.34,5.34,0,0,0-3.65-1.05,11.85,11.85,0,0,0-2.43.22,19.51,19.51,0,0,0-2.36.65,2.54,2.54,0,0,1-.47.07,1.24,1.24,0,0,1-.93-.4,1.3,1.3,0,0,1-.4-1,1.39,1.39,0,0,1,.94-1.37,15.88,15.88,0,0,1,6.23-1.29,8.15,8.15,0,0,1,4.19,1,6.43,6.43,0,0,1,2.52,2.61,7.61,7.61,0,0,1,.81,3.48V214.7a1.52,1.52,0,0,1-.49,1.15,1.62,1.62,0,0,1-1.17.47,1.6,1.6,0,0,1-1.62-1.62v-.94a9,9,0,0,1-6.76,2.74A6.73,6.73,0,0,1,1602.09,215.85Zm7.22-3a8.53,8.53,0,0,0,2.48-1.92v-3h-3.92c-3.62,0-5.44,1-5.44,2.85a2.65,2.65,0,0,0,.89,2.08,4.31,4.31,0,0,0,2.93.8A6.45,6.45,0,0,0,1609.31,212.84Z"/><path d="M1623.26,224.13a1.56,1.56,0,0,1-.45-1.12,1.65,1.65,0,0,1,.11-.57l2.34-6-6.77-16.48a1.77,1.77,0,0,1-.14-.69,1.65,1.65,0,0,1,.46-1.17,1.57,1.57,0,0,1,1.16-.48,1.55,1.55,0,0,1,.91.28,1.71,1.71,0,0,1,.6.72l5.54,13.76,5.65-13.68a1.59,1.59,0,0,1,1.52-1.08,1.55,1.55,0,0,1,1.15.48,1.66,1.66,0,0,1,.47,1.17,1.74,1.74,0,0,1-.11.61l-9.83,23.62a1.63,1.63,0,0,1-1.51,1.12A1.48,1.48,0,0,1,1623.26,224.13Z"/><path d="M1638.38,215.65a1.93,1.93,0,0,1-.59-1.42V214a2,2,0,0,1,2-2h.36a1.91,1.91,0,0,1,1.42.59,1.94,1.94,0,0,1,.6,1.42v.22a1.94,1.94,0,0,1-.6,1.42,1.91,1.91,0,0,1-1.42.59h-.36A1.93,1.93,0,0,1,1638.38,215.65Z"/><rect class="cls-5" x="31" y="816" width="105.65" height="86.02" rx="5.42"/><rect class="cls-5" x="76.05" y="861.98" width="15.76" height="86.02" rx="2.09"/><rect class="cls-1" x="110.14" y="816" width="21.71" height="86.02"/><rect class="cls-1" x="59.35" y="816" width="11.44" height="86.02"/><rect class="cls-1" x="36.7" y="816" width="13.95" height="86.02"/><rect class="cls-1" x="83.83" y="816" width="13.95" height="86.02"/><path class="cls-8" d="M93.82,840.67c.7,1.18,1.4,2.36,2.09,3.54s1.42,2.26,2,3.45a17.52,17.52,0,0,1,1.24,4.22,33.12,33.12,0,0,1,.45,3.3c0,.16.26.16.25,0A24.86,24.86,0,0,0,98.32,848a28.18,28.18,0,0,0-1.88-3.4l-2.22-3.78a21.87,21.87,0,0,0-1.39-2.27c-.1-.12-.27,0-.18.17A16.5,16.5,0,0,1,93.82,840.67Z"/><path class="cls-8" d="M96.79,837.28a12.78,12.78,0,0,1,1.42,1.43c.9.93,1.82,1.85,2.7,2.8a17.53,17.53,0,0,1,3.09,5.41c.26.63.5,1.26.72,1.9,0,.15.28.09.23-.06a31.87,31.87,0,0,0-1.85-4.39,15.16,15.16,0,0,0-1.72-2.69c-.85-1-1.84-1.94-2.76-2.9a15.34,15.34,0,0,0-1.71-1.71C96.79,837,96.67,837.19,96.79,837.28Z"/><path class="cls-8" d="M63.9,857.15A30.81,30.81,0,0,0,67,859.37l3.54,2.41a19.07,19.07,0,0,0,2.2,1.46c.14.06.26-.15.12-.21a14.66,14.66,0,0,1-1.75-1.15c-1.13-.76-2.25-1.53-3.37-2.3s-2.23-1.44-3.26-2.26a16.82,16.82,0,0,1-3.07-3.4,32.5,32.5,0,0,1-1.83-2.83.12.12,0,0,0-.21.13A24.21,24.21,0,0,0,63.9,857.15Z"/><path class="cls-8" d="M68,863.09c.15,0,.22-.2.07-.24a12.31,12.31,0,0,1-1.76-.73c-1.19-.52-2.39-1-3.57-1.57a17.42,17.42,0,0,1-5-3.86c-.48-.49-1-1-1.41-1.51-.1-.12-.27.05-.17.17a31.49,31.49,0,0,0,3.49,3.44,13.65,13.65,0,0,0,2.65,1.81c1.16.59,2.39,1.07,3.59,1.59A14.66,14.66,0,0,0,68,863.09Z"/><path class="cls-8" d="M105.82,869l-2.38-.12a9.4,9.4,0,0,1-1.35-.17c-1.71-.28-3.41-.6-5.12-.93a39.63,39.63,0,0,1-4-.83A34.28,34.28,0,0,1,88.47,865l-2.18-1c-.32-1.1-1.36-1.66-3-2.42l-.45-.21a.63.63,0,0,0,0-.19l-.52-1.44c.49,0,1,0,1.48-.07.64-.06,1.48-.19,2.25-.33,5.35-.38,9.49-3.07,9.36-8-.14-5.18-2.12-11-10.71-10.73-.41,0-.8,0-1.18.07a12.75,12.75,0,0,1,1.7.16,25.86,25.86,0,0,0-3.16-.16,3.59,3.59,0,0,0,0-.76,6.66,6.66,0,0,1,.44-2c0-.13-.29-.08-.35-.13a3.74,3.74,0,0,0-1.16,1,3.26,3.26,0,0,0-.54,1.45,1,1,0,0,0,0,.46c-.77,0-1.5.12-2.17.21.42-.07.85-.13,1.32-.17-.36,0-.74,0-1.12,0-7.07.18-9.36,3.77-10,7.8a15.7,15.7,0,0,0-.26,3.48,5.83,5.83,0,0,0,.41,2l.06.2c-1.18-1.16-2.37-2.33-3.53-3.51a34.28,34.28,0,0,1-2.72-3.26.49.49,0,0,0-.84.5l.77,1-.74-.19a.49.49,0,0,0-.26.94l1.78.46a.41.41,0,0,0,.19,0c.23.27.47.54.72.8,1.21,1.26,2.46,2.49,3.72,3.71a39.62,39.62,0,0,0,3,2.9,34.66,34.66,0,0,0,4.2,2.67q1.47.85,3,1.68a20,20,0,0,0-1.68,2.73c-.63,1.17-3.56,7.28-4.12,8.47l-.16.34c-.54.17-1,1.13-2,3.4l-.17.4c-.1.19-.2.38-.29.58-.6,1.25-.55,1.67-.22,1.81-.74.3-1.43.72-2.17,1.08-.13.06-.09.07-.21-.05a2,2,0,0,1-.3-.5,4.75,4.75,0,0,1-.28-.8.49.49,0,0,0-.94.26c.2.74.63,2.06,1.56,2.1a3.27,3.27,0,0,0,1.52-.63,6.69,6.69,0,0,1,2.29-.86.38.38,0,0,0,.32-.24,6.32,6.32,0,0,1,.94.91.5.5,0,0,0,.17.11.41.41,0,0,0,.19,0,4.9,4.9,0,0,1,1.44.22c.49.23.79.73,1.09,1a.38.38,0,0,0,.16.11.34.34,0,0,0,.19,0,10.39,10.39,0,0,1,1.22.14,8.31,8.31,0,0,1-.19,1.2c-.1.51-.31,1.17,0,1.65.45.68,1.62.69,2.35.64s.63-1,0-1a5.09,5.09,0,0,1-.78,0,1.92,1.92,0,0,1-.57-.11c-.06,0-.21-.14-.2-.07a1.63,1.63,0,0,1,.08-.62c.06-.3.13-.61.18-.92a.77.77,0,0,0,0-.15c.58.63.92,1.21,1.86-.76.08-.19.17-.37.24-.55s.15-.27.23-.43c1.05-2.21,1.5-3.17,1.31-3.7l.17-.35c.5-1.06,3.33-7.06,3.78-8.15a14.59,14.59,0,0,0,1.28-4.24,57.48,57.48,0,0,0,5.8,2.57,27.18,27.18,0,0,0,3.88.87c1.78.34,3.56.68,5.34,1,.54.09,1.07.16,1.6.21a.36.36,0,0,0,.11.14l1.4,1.2c.47.41,1.16-.28.68-.69l-.62-.53,1.24.06C106.44,870,106.44,869,105.82,869Zm-27.11-7.72c-1.24-.67-2.5-1.35-3.72-2.07a15.67,15.67,0,0,0,2.72.35,6.71,6.71,0,0,0,1.12.09c.85,0,.69.15,1.32.13h1.16a.19.19,0,0,1,0,.07l.37,1A2.46,2.46,0,0,0,78.71,861.26Z"/><path class="cls-8" d="M82.91,897a36.83,36.83,0,1,1,36.84-36.83A36.87,36.87,0,0,1,82.91,897Zm0-69.08a32.26,32.26,0,1,0,32.26,32.25A32.29,32.29,0,0,0,82.91,827.9Z"/><rect class="cls-8" x="46.33" y="855.88" width="68.07" height="4.58" transform="translate(-583.29 308.19) rotate(-45)"/><rect class="cls-6" x="210.91" y="612.91" width="132.23" height="7.08" rx="3.54" transform="translate(62.94 -24.58) rotate(5.73)"/><path class="cls-1" d="M278.07,614.58c0,1.9,0,1.2-1,1.2s-1.06.7-1.06-1.2.72-12.67,1-12.67S278.07,612.69,278.07,614.58Z"/><path class="cls-2" d="M284,608.92c0,1.9.28,1.19-6.69,1.19-6.69,0-7,.71-7-1.19s4.74-12.67,6.83-12.67S284,607,284,608.92Z"/><circle class="cls-3" cx="281.17" cy="606.09" r="0.94"/><circle class="cls-3" cx="279.01" cy="607.98" r="0.67"/><circle class="cls-3" cx="278.61" cy="605.68" r="0.54"/><rect class="cls-6" x="425.91" y="609.91" width="132.23" height="7.08" rx="3.54" transform="translate(-27.79 23.36) rotate(-2.65)"/><path class="cls-1" d="M503.07,611.58c0,1.9,0,1.2-1,1.2s-1.06.7-1.06-1.2.72-12.67,1-12.67S503.07,609.69,503.07,611.58Z"/><path class="cls-2" d="M509,605.92c0,1.9.28,1.19-6.69,1.19-6.69,0-7,.71-7-1.19s4.74-12.67,6.83-12.67S509,604,509,605.92Z"/><circle class="cls-3" cx="506.17" cy="603.09" r="0.94"/><circle class="cls-3" cx="504.01" cy="604.98" r="0.67"/><circle class="cls-3" cx="503.61" cy="602.68" r="0.54"/></svg>