<svg id="Layer_1" data-name="Layer 1" xmlns="http://www.w3.org/2000/svg" xmlns:xlink="http://www.w3.org/1999/xlink" viewBox="0 0 1920 1080"><defs><style>.cls-1{fill:none;}.cls-2{clip-path:url(#clip-path);}.cls-3{fill:#ddd;}.cls-4{fill:#afafaf;}.cls-5{fill:#8c8c8c;}.cls-6{fill:#494949;}.cls-7{fill:#4b4bc9;}.cls-8{fill:#0270bf;}.cls-9{fill:#fff;}.cls-10{fill:#000502;}.cls-11{fill:#ffefbb;}.cls-12{fill:#fffde3;}.cls-13{fill:#6efcff;}</style><clipPath id="clip-path"><rect class="cls-1" width="1920" height="1080"/></clipPath></defs><g class="cls-2"><ellipse class="cls-3" cx="648.29" cy="262.68" rx="284.22" ry="215.25"/><ellipse class="cls-3" cx="738.16" cy="39.02" rx="237.44" ry="179.82"/><ellipse class="cls-4" cx="697.44" cy="601.18" rx="565.88" ry="270.97" transform="translate(-159.17 263.46) rotate(-19.24)"/><ellipse class="cls-5" cx="690.43" cy="581.08" rx="351.85" ry="168.48" transform="translate(-152.94 260.03) rotate(-19.24)"/><ellipse class="cls-6" cx="707.34" cy="629.53" rx="263.32" ry="117.16" transform="translate(-167.96 268.31) rotate(-19.24)"/><path class="cls-6" d="M631,411C434.83,479.46,302.36,611.15,335.16,705.11S553.61,819.7,749.82,751.2,1078.5,551,1045.7,457.06,827.25,342.47,631,411ZM746,740.15c-183.46,64.05-357,44.75-387.72-43.1s93.2-211,276.66-275,357.05-44.75,387.72,43.1S929.42,676.11,746,740.15Z"/><path class="cls-7" d="M537.45,572.52c-94.16,9.61-62,79.86-47.38,77.11,6.48-1.21-44.8-43.6,46-52.9,57.88-5.92,98.27,33.71,97.61,27.14S595.33,566.6,537.45,572.52Z"/><path class="cls-7" d="M705.75,551.76s-1.49-2.65-5.76-8.76a23.52,23.52,0,0,1-3.79-9.46c-.6-2.85-1-4.57-8-8.73-13.58-8-8.57-19-6.16-24.22,2.85-6.22,32.22-17.93,25.81-31-16.48-33.78-27.79-62.54-27.14-64l15.6,7.06c-.12.28,14,23,26.93,49.4,10,20.4-22.2,38.21-25.64,45.7-.3.67-.67,1.48-1,2.17l.28.17c12.49,7.39,14.71,13.66,16,20a7.65,7.65,0,0,0,1,3.15c4.87,7,6.59,10,6.77,10.37l-15,8.21Z"/><circle class="cls-8" cx="686.23" cy="429.64" r="24.96"/><circle class="cls-9" cx="689.69" cy="430.22" r="21.33"/><circle class="cls-10" cx="682.51" cy="425.5" r="11.6"/><path class="cls-7" d="M653.73,552.21l5-16.36c-.36-.11-3.74-1.14-12.07-2.75a14,14,0,0,1-2.88-.84c-5.14-2-8.07-1.66-20.45,1.29-1.83-6.38-6-16.65-26.22-24-28.13-10.2-47.06-51.05-47.25-51.47l-15.59,7.1c.89,1.94,22.07,47.8,57,60.47,13.55,4.91,14.88,9.88,15.95,13.87,1.81,6.76,5.69,14.09,19.72,10.74,2.15-.51,8.42-2,10.41-2.17l.11,0a30.08,30.08,0,0,0,6,1.74C650.79,551.33,653.7,552.2,653.73,552.21Z"/><path class="cls-7" d="M498,671.68c6.95-3.8-7.1-7.15-11-13.74s10.62-18.62-3.16-10.12C475,653.24,473.07,662.76,480,666,492.34,671.8,494.5,673.6,498,671.68Z"/><path class="cls-7" d="M484.62,642.19c-6.71,4.23,7.52,6.7,11.84,13s-9.45,19.24,3.77,9.9c8.44-6,9.82-15.57,2.7-18.39C490.25,641.72,488,640.06,484.62,642.19Z"/><path class="cls-7" d="M865.82,555.68c76.21-56.13,12.85-100.3,1.62-90.49-5,4.34,60.73,14.78-12.73,68.93C807.87,568.64,753,555,756.85,560.35S819,590.19,865.82,555.68Z"/><path class="cls-7" d="M849.4,450.23c-4,6.81,9.75,2.55,16.47,6.24s.32,21.43,7.86,7.11c4.81-9.13,1.68-18.33-6-17.61C854.21,447.25,851.44,446.8,849.4,450.23Z"/><path class="cls-8" d="M813.34,588.11c36.52,121.31-18.46,107-82,131s-106.82,56.82-141.9-46.29C551.71,562,575.25,552.77,660.77,532.26,726.87,516.41,781.34,481.82,813.34,588.11Z"/><path class="cls-8" d="M815.1,687.34c7.6,21.15-6.76,7.52-17.13,11.44s-13.12,23.16-20.41,2.76c-4.65-13,2.2-18.82,12.57-22.74S810.43,674.34,815.1,687.34Z"/><path class="cls-8" d="M753.39,710.68c7.58,21.16-7.2,7.69-18.11,11.81s-14.1,23.54-21.38,3.13c-4.63-13,2.62-19,13.53-23.11S748.72,697.68,753.39,710.68Z"/><path class="cls-8" d="M619.36,798.89c-1.91-6.22,8.87-4.79,20.39-9.15s19.53-12.64,21.33-6.63c1.15,3.83,9.15,2.15-18.85,12.33C618.78,804,620.54,802.71,619.36,798.89Z"/><path class="cls-8" d="M692.91,771.07c-1.91-6.22,8.87-4.79,20.39-9.14s19.53-12.65,21.33-6.64c1.15,3.84,9.15,2.15-18.86,12.34C692.33,776.15,694.08,774.9,692.91,771.07Z"/><path class="cls-8" d="M755.79,747.29c-1.91-6.22,8.87-4.79,20.39-9.15s19.53-12.64,21.33-6.63c1.15,3.83,9.15,2.15-18.86,12.33C755.21,752.37,757,751.11,755.79,747.29Z"/><path class="cls-8" d="M821.31,722.51c-1.91-6.22,8.87-4.79,20.39-9.15s19.53-12.64,21.33-6.63c1.15,3.83,9.15,2.15-18.86,12.33C820.73,727.59,822.49,726.33,821.31,722.51Z"/><path class="cls-8" d="M687.87,735.46c7.58,21.15-7.18,7.68-18,11.79s-14.05,23.51-21.32,3.1c-4.63-13,2.6-19,13.47-23.08S683.21,722.46,687.87,735.46Z"/><path class="cls-8" d="M651.74,738.35c11.67,58.92.64,52.47-10.35,54.82S625.62,812.64,612,746.89c-30.24-145.51-1.05-53.14,9.94-55.5S643.42,696.34,651.74,738.35Z"/><path class="cls-8" d="M804.25,676.63c27.66,63.8,28.58,43.68,39,39.33s23.82,7-1.38-55.11c-55.75-137.49-28.61-44.47-39-40.11S787.25,637.41,804.25,676.63Z"/><path class="cls-8" d="M740.32,700c30.79,63.41,26.7,44.79,37.23,40.8s20.09,9.47.9-55.22c-14.53-49-26.7-45.58-37.23-41.6S721.64,661.56,740.32,700Z"/><path class="cls-8" d="M677.25,723.89c29.73,62.08,26.69,44.78,37.22,40.8s16.2,9.21.91-55.23c-34.3-144.52-26.7-45.57-37.23-41.59S658.78,685.31,677.25,723.89Z"/><path class="cls-10" d="M788.21,577.87c24.13,69-22.86,66.37-74.62,85.94s-89.73,51.59-112.81-15.06c-14.71-42.49,4.41-70.57,73.08-86.19C727.81,550.29,773.37,535.42,788.21,577.87Z"/><path class="cls-11" d="M627.56,604.47c-6.43-17.65.27-14.93,6.66-17.34s10.3-8.43,16.47,8.59c3.94,10.86,0,15.06-6.43,17.48S631.51,615.32,627.56,604.47Z"/><path class="cls-11" d="M653.78,597.51c-7.66-21,.32-17.78,7.93-20.66s12.27-10,19.63,10.24C686,600,681.28,605,673.67,607.9S658.49,610.43,653.78,597.51Z"/><path class="cls-11" d="M683.39,586.31c-7.66-21,.32-17.78,7.93-20.66s12.27-10,19.63,10.24c4.69,12.93-.06,17.93-7.67,20.81S688.1,599.23,683.39,586.31Z"/><path class="cls-11" d="M711.61,572.68c-6.43-17.65.28-14.93,6.66-17.34s10.3-8.43,16.48,8.59c3.94,10.86,0,15.06-6.44,17.48S715.57,583.53,711.61,572.68Z"/><path class="cls-11" d="M710,649.12c3.84,10.53-.16,8.91-4,10.35s-6.14,5-9.83-5.13c-2.35-6.48,0-9,3.84-10.43S707.66,642.64,710,649.12Z"/><path class="cls-11" d="M695.19,654.73c3.84,10.53-.16,8.91-4,10.35s-6.14,5-9.83-5.13c-2.35-6.48,0-9,3.84-10.43S692.83,648.25,695.19,654.73Z"/><path class="cls-11" d="M680.35,660.34c3.84,10.54-.16,8.91-4,10.36s-6.14,5-9.83-5.14c-2.35-6.48,0-9,3.84-10.43S678,653.86,680.35,660.34Z"/><path class="cls-11" d="M664.36,666.39c3.83,10.54-.17,8.91-4,10.35s-6.15,5-9.84-5.13c-2.35-6.48,0-9,3.85-10.43S662,659.91,664.36,666.39Z"/><path class="cls-11" d="M771.38,625.91c3.84,10.54-.17,8.92-4,10.36s-6.15,5-9.83-5.13c-2.35-6.48,0-9,3.84-10.43S769,619.44,771.38,625.91Z"/><path class="cls-11" d="M756.55,631.52c3.83,10.54-.17,8.92-4,10.36s-6.15,5-9.83-5.13c-2.36-6.48,0-9,3.84-10.43S754.19,625.05,756.55,631.52Z"/><path class="cls-11" d="M741.71,637.14c3.83,10.53-.17,8.91-4,10.35s-6.15,5-9.83-5.13c-2.36-6.48,0-9,3.84-10.43S739.35,630.66,741.71,637.14Z"/><path class="cls-11" d="M725.71,643.19c3.84,10.53-.16,8.91-4,10.35s-6.14,5-9.83-5.13c-2.35-6.48,0-9,3.84-10.43S723.35,636.71,725.71,643.19Z"/><circle class="cls-8" cx="547.15" cy="458.3" r="24.96"/><circle class="cls-9" cx="545.99" cy="457.77" r="21.33"/><circle class="cls-10" cx="559.05" cy="456.06" r="5.57"/><polygon class="cls-4" points="864.22 480.21 873.76 476.6 822.13 346.74 817.97 348.32 864.22 480.21"/><rect class="cls-5" x="852.82" y="455.49" width="15.87" height="2.27" transform="translate(-105.87 334.01) rotate(-20.72)"/><rect class="cls-5" x="853.97" y="459.7" width="17.1" height="3.19" transform="translate(-107.41 334.94) rotate(-20.72)"/><rect class="cls-5" x="854.79" y="464.8" width="19.47" height="3.64" transform="translate(-109.16 336) rotate(-20.72)"/><path class="cls-7" d="M875.91,468.83c3.63-7.05-9.89-1.95-16.82-5.22s-1.64-21.37-8.29-6.6c-4.23,9.41-.54,18.4,7,17.2C871.3,472.09,874.09,472.38,875.91,468.83Z"/><path class="cls-4" d="M742.44,730.07c-249.31,87-487.27,78.36-584.83-11.65-3.74,24.08-2.08,47.35,5.57,69.26C212.51,929,491.69,960,786.75,857s494.28-301,445-442.33c-7.65-21.91-20.84-41.16-38.74-57.68C1172.62,488.16,991.75,643,742.44,730.07Z"/><path class="cls-5" d="M773,817.71C491.46,916,224.36,892.23,157.66,767.07a133.23,133.23,0,0,0,5.21,19.72c49.32,141.29,328.51,172.33,623.57,69.32s494.28-301,445-442.33a132.31,132.31,0,0,0-8.19-18.68C1248.89,534.58,1054.61,719.42,773,817.71Z"/><circle class="cls-12" cx="503.85" cy="876.81" r="22.18"/><circle class="cls-12" cx="773.38" cy="818.71" r="33.96"/><circle class="cls-12" cx="1149.04" cy="584.22" r="19.02"/><circle class="cls-12" cx="1018.03" cy="697.31" r="22.18"/><circle class="cls-12" cx="215.31" cy="825.86" r="14.26"/><circle class="cls-12" cx="330.2" cy="870.07" r="19.02"/><path class="cls-6" d="M1027.6,496c-1.71,84.13-117.85,188.09-281.3,245.15s-319.06,48-372.75-16.82c-18.35-10.22-32.78-23-42.49-38.26a88.84,88.84,0,0,0,4.44,20c32.8,94,218.45,114.59,414.66,46.1S1078.83,552,1046,458a89.28,89.28,0,0,0-9-18.45C1038.94,457.56,1035.6,476.56,1027.6,496Z"/><path class="cls-13" d="M568.72,232.43C375.4,299.92,265.37,488.34,323,653.3s244.26,151.37,437.57,83.89S1080.59,573.86,1023,408.91,762,165,568.72,232.43ZM752.91,718.94c-178.54,62.33-351.48,73.17-404.66-79.18s48.43-326.37,227-388.69,366.39,10.64,419.57,163S931.45,656.62,752.91,718.94Z"/><circle class="cls-12" cx="1215.87" cy="476.57" r="14.26"/><path class="cls-5" d="M278.32,729.17c3.39-28.4-210-455.92-249.81-478.61S-316.91,409.5-328.7,460.05-95.9,911.18-77.14,914.71,274.94,757.57,278.32,729.17ZM-38.11,877.71C-54,874.71-262,534.13-252,491.16S17.88,293.75,51.72,313.05,267,695.82,264.11,720-22.16,880.71-38.11,877.71Z"/><path class="cls-9" d="M381.17,835c-3.65,10.57-256.65,118.18-284.94,107s-107.51-203.75-91-224.88,282.51-108.36,298.68-104S384.81,824.46,381.17,835Z"/><path class="cls-9" d="M501.4,885c-4.95,10-269.48,85-296.14,70.35s-81-215.65-62-234.54,293.89-72,309.38-65.59S506.34,875,501.4,885Z"/><path class="cls-9" d="M242.49,799.54C234.43,807.29-39.83,788-59.95,765.18s-3-230.36,21.35-241.64,300.87,32.07,313.27,43.33S250.54,791.79,242.49,799.54Z"/><path class="cls-9" d="M92.34,927.87c-8.06,7.76-282.32-11.56-302.43-34.36s-3-230.35,21.34-241.64,300.87,32.07,313.27,43.33S100.39,920.12,92.34,927.87Z"/><path class="cls-9" d="M277.62,1080.93c-8.06,7.75-282.32-11.56-302.44-34.36s-3-230.36,21.34-241.64S297.39,837,309.8,848.26,285.67,1073.18,277.62,1080.93Z"/><path class="cls-9" d="M519.6,1095.3c-8.05,7.75-282.31-11.56-302.43-34.36s-3-230.36,21.34-241.64,300.87,32.07,313.28,43.33S527.66,1087.55,519.6,1095.3Z"/><path class="cls-9" d="M692.62,1184.84c-8,7.75-282.32-11.57-302.43-34.36s-3-230.36,21.34-241.64S712.4,940.91,724.8,952.17,700.67,1177.09,692.62,1184.84Z"/><path class="cls-9" d="M955,1039.73c-5.8,9.56-275.85,61.2-301.14,44.32s-62-221.88-41.32-239,299-46.14,313.92-38.43S960.81,1030.18,955,1039.73Z"/><path class="cls-9" d="M738.62,969.77c-6.91,8.78-281.23,27.22-304.29,7.4s-34.54-227.77-12-242.29,302.43-9.46,316.26,0S745.54,961,738.62,969.77Z"/><path class="cls-5" d="M162.47,908c-6.2-18.71-264.39-223-295.85-225.48s-169,200.2-161.55,235.19S-17.73,1131-5,1127.74,168.66,926.72,162.47,908ZM8.53,1093.24C-2.3,1096-231.66,944.42-238,914.68s110.59-202.09,137.34-200,246.27,175.8,251.54,191.71S19.35,1090.45,8.53,1093.24Z"/><path class="cls-5" d="M549.21,932.05c-8.87-6.06-188.42-9.31-202.9,0S339.2,1074.78,354,1087.5s190.78.89,195.22-4.75S558.08,938.12,549.21,932.05Zm-5.54,131.26c-3.77,4.79-153.4,14.85-166,4s-18.84-124.24-6.53-132.16,165-5.16,172.51,0S547.44,1058.52,543.67,1063.31Z"/><path class="cls-5" d="M944.53,855.8c-8.35,2.77-99.53,118-100.65,132.06s89.36,75.42,105,72.11,95.21-123.73,93.74-129.42S952.88,853,944.53,855.8Zm82.67,68.71c1.25,4.84-66.42,107.21-79.7,110s-90.2-49.36-89.25-61.3S936.72,863.31,943.82,861,1026,919.68,1027.2,924.51Z"/><path class="cls-5" d="M68.74,538.48c-9.1,6.33-78,178.17-74.35,195.53S129.33,793.17,147,783.57,217.77,600,214,593.7,77.84,532.15,68.74,538.48ZM193.2,591.91c3.23,5.39-41.9,153.28-56.93,161.43S9.64,726,6.52,711.21,62,550.35,69.73,545,190,586.52,193.2,591.91Z"/><path d="M1339.23,410.06l-3,13.63h-5.76l-1.63-33.59h3.55l1.44,30,4-15.85h3l4.08,15.85,1.49-30h3.31L1348,423.69h-6Z"/><path d="M1372.18,421.87c-1.33,1.22-3.39,1.82-6.17,1.82h-1.58c-2.79,0-4.84-.6-6.17-1.82s-2-3.17-2-5.85v-8.65c0-2.68.66-4.64,2-5.85s3.38-1.83,6.17-1.83H1366q4.17,0,6.17,1.83c1.33,1.21,2,3.17,2,5.85V416Q1374.17,420,1372.18,421.87Zm-3-17.76a4,4,0,0,0-2.69-.82H1364a3.93,3.93,0,0,0-2.69.82,2.93,2.93,0,0,0-.91,2.3V417a2.93,2.93,0,0,0,.91,2.3,3.93,3.93,0,0,0,2.69.82h2.54a4,4,0,0,0,2.69-.82,2.93,2.93,0,0,0,.91-2.3V406.41A2.93,2.93,0,0,0,1369.18,404.11Z"/><path d="M1389.19,422.11a6.39,6.39,0,0,1-1.29-4.17V403.29h-4.56v-3.6h4.56v-5.75H1392v5.75h7v3.6h-7v14.89a1.79,1.79,0,0,0,.53,1.48,2.52,2.52,0,0,0,1.63.44H1399v3.59h-6A4.57,4.57,0,0,1,1389.19,422.11Z"/><path d="M1433.88,403.29v-3.6H1445V420.1h7.1v3.59h-11.18v-20.4Zm11.38-13.19v4.31h-4.56V390.1Z"/><path d="M1464,399.69v1.16a6.08,6.08,0,0,1,3.84-1.16H1470q3.88,0,5.78,1.83c1.26,1.21,1.9,3.17,1.9,5.85v16.32h-4.08V406.41a3,3,0,0,0-.84-2.27,3.09,3.09,0,0,0-2.28-.85h-3.17a3,3,0,0,0-2.35.85,2.58,2.58,0,0,0-.77,1.8v17.75h-4.08v-24Z"/><path d="M1495.66,423.69H1494c-2.6,0-4.52-.6-5.79-1.82s-1.89-3.17-1.89-5.85V399.69h4.08V417a3,3,0,0,0,.84,2.27,3.09,3.09,0,0,0,2.28.85h2.59a3.06,3.06,0,0,0,2.28-.77,2.94,2.94,0,0,0,.84-1.73V399.69h4.08v24h-3.84v-1.1A6.53,6.53,0,0,1,1495.66,423.69Z"/><path d="M1522,423.69h-2c-2.81,0-4.88-.59-6.19-1.79s-2-3.17-2-5.88v-8.65c0-2.68.67-4.64,2-5.85s3.38-1.83,6.16-1.83h5.57V390.1h4.08v33.59h-3.84v-1.1A6.49,6.49,0,0,1,1522,423.69Zm2.83-4.44a2.56,2.56,0,0,0,.77-1.8V403.29h-6a3.9,3.9,0,0,0-2.68.82,2.93,2.93,0,0,0-.92,2.3V417a2.93,2.93,0,0,0,.92,2.3,3.9,3.9,0,0,0,2.68.82h2.93A3,3,0,0,0,1524.79,419.25Z"/><path d="M1573.42,423.69h-1.63c-2.6,0-4.52-.6-5.79-1.82s-1.89-3.17-1.89-5.85V399.69h4.08V417a2.91,2.91,0,0,0,3.12,3.12h2.59a3.06,3.06,0,0,0,2.28-.77,2.94,2.94,0,0,0,.84-1.73V399.69h4.08v24h-3.84v-1.1A6.53,6.53,0,0,1,1573.42,423.69Z"/><path d="M1593.87,420.1V403.29h-3.51v-3.6h7.35V401a5.87,5.87,0,0,1,3.84-1.3h4.94v3.84h-5.42a2.74,2.74,0,0,0-2.31,1,3.5,3.5,0,0,0-.81,2V420.1h5.23v3.59h-12.82V420.1Z"/><path d="M1632.22,406.9v3.59h-15.6V406.9Z"/><path d="M1645.66,390.1v10.55a6.43,6.43,0,0,1,3.6-1h2.21q3.88,0,5.78,1.83c1.26,1.21,1.9,3.17,1.9,5.85v16.32h-4.08V406.41a3,3,0,0,0-.84-2.27,3.09,3.09,0,0,0-2.28-.85h-3.17a3.08,3.08,0,0,0-2.31.8,2.59,2.59,0,0,0-.81,1.7v17.9h-4.08V390.1Z"/><path d="M1677.1,423.69h-1.64c-2.59,0-4.51-.6-5.78-1.82s-1.89-3.17-1.89-5.85V399.69h4.08V417a2.91,2.91,0,0,0,3.12,3.12h2.59a3.06,3.06,0,0,0,2.28-.77,2.94,2.94,0,0,0,.84-1.73V399.69h4.08v24h-3.84v-1.1A6.53,6.53,0,0,1,1677.1,423.69Z"/><path d="M1697.26,399.69v1.16a6.08,6.08,0,0,1,3.84-1.16h1.73c2.81,0,4.88.6,6.19,1.8s2,3.17,2,5.88V416q0,4-2,5.85c-1.32,1.22-3.38,1.82-6.16,1.82h-5.33v8.16h-4.08V399.69Zm1,4.45a2.58,2.58,0,0,0-.77,1.8V420.1h5.81a3.92,3.92,0,0,0,2.68-.82,2.93,2.93,0,0,0,.92-2.3V406.41a2.93,2.93,0,0,0-.92-2.3,3.92,3.92,0,0,0-2.68-.82h-2.69A3,3,0,0,0,1698.27,404.14Z"/><path d="M1730.52,418.9v4.79h-4.8V418.9Zm-.38-28.8v23.61h-4.08V390.1Z"/><path d="M1333.83,479.25c-1.49-1.35-2.24-3.4-2.24-6.12V455.85q0-4.07,2.24-6.12c1.48-1.36,3.62-2,6.4-2h6.82v3.65h-7.3a4,4,0,0,0-2.88,1.06,3.4,3.4,0,0,0-1.1,2.54v19.11a3.4,3.4,0,0,0,1.1,2.54,4,4,0,0,0,2.88,1.06h7.3v3.64h-6.82C1337.45,481.29,1335.31,480.61,1333.83,479.25Z"/><path d="M1366.06,481.29h-1.63c-2.6,0-4.52-.6-5.79-1.82s-1.89-3.17-1.89-5.86V457.29h4.08v17.28a2.9,2.9,0,0,0,3.12,3.12h2.59a3.06,3.06,0,0,0,2.28-.76,2.94,2.94,0,0,0,.84-1.73V457.29h4.08v24h-3.84v-1.1A6.53,6.53,0,0,1,1366.06,481.29Z"/><path d="M1386.22,457.29v1.16a6.08,6.08,0,0,1,3.84-1.16h2.21q3.88,0,5.78,1.83c1.26,1.21,1.9,3.17,1.9,5.85v16.32h-4.08V464a3.08,3.08,0,0,0-.84-2.28,3.12,3.12,0,0,0-2.28-.84h-3.17a3.06,3.06,0,0,0-2.35.84,2.61,2.61,0,0,0-.77,1.8v17.76h-4.08v-24Z"/><path d="M1443.82,481.29h-1.63c-2.6,0-4.52-.6-5.79-1.82s-1.89-3.17-1.89-5.86V457.29h4.08v17.28a2.9,2.9,0,0,0,3.12,3.12h2.59a3.06,3.06,0,0,0,2.28-.76,2.94,2.94,0,0,0,.84-1.73V457.29h4.08v24h-3.84v-1.1A6.53,6.53,0,0,1,1443.82,481.29Z"/><path d="M1470.12,481.29h-2c-2.81,0-4.88-.6-6.19-1.8s-2-3.16-2-5.88V465c0-2.68.67-4.64,2-5.85s3.38-1.83,6.16-1.83h5.57v-9.6h4.08v33.6H1474v-1.1A6.49,6.49,0,0,1,1470.12,481.29Zm2.83-4.44a2.58,2.58,0,0,0,.77-1.8V460.89h-6a3.9,3.9,0,0,0-2.68.82,2.93,2.93,0,0,0-.92,2.3v10.56a2.94,2.94,0,0,0,.92,2.31,3.9,3.9,0,0,0,2.68.81h2.93A3,3,0,0,0,1473,476.85Z"/><path d="M1488.36,479.49q-2-1.8-2-5.88V465c0-2.75.6-4.72,1.78-5.9s3.15-1.78,5.9-1.78h2.26a6.7,6.7,0,0,1,5.16,1.9,7.87,7.87,0,0,1,1.75,5.54V471h-12.77v3.6a2.94,2.94,0,0,0,.92,2.31,3.9,3.9,0,0,0,2.68.81h7.64v3.6h-7.16C1491.74,481.29,1489.67,480.69,1488.36,479.49Zm10.9-15.72a2.8,2.8,0,0,0-2.88-2.88h-2.79a3.09,3.09,0,0,0-2.42.8,3.42,3.42,0,0,0-.7,2.32v3.36h8.79Z"/><path d="M1515.82,457.29v1.16a6.08,6.08,0,0,1,3.84-1.16h2.21q3.89,0,5.78,1.83c1.26,1.21,1.9,3.17,1.9,5.85v16.32h-4.08V464a3.08,3.08,0,0,0-.84-2.28,3.12,3.12,0,0,0-2.28-.84h-3.17a3.06,3.06,0,0,0-2.35.84,2.61,2.61,0,0,0-.77,1.8v17.76H1512v-24Z"/><path d="M1552.13,479.81a8.38,8.38,0,0,1-5.35,1.48h-7.15v-3.6h7.63a3,3,0,0,0,2-.55,2,2,0,0,0,.67-1.61V473q0-2.16-2.07-2.16h-1.77a7.45,7.45,0,0,1-5-1.46,5.91,5.91,0,0,1-1.65-4.64v-1.39c0-2.14.6-3.69,1.82-4.63a8.7,8.7,0,0,1,5.38-1.42H1553v3.6h-6.91a3.06,3.06,0,0,0-1.92.56,1.88,1.88,0,0,0-.72,1.6v1.73a2,2,0,0,0,.64,1.63,2.52,2.52,0,0,0,1.66.53h1.63a7,7,0,0,1,4.9,1.56,6,6,0,0,1,1.68,4.63v2.16A5.48,5.48,0,0,1,1552.13,479.81Z"/><path d="M1566.12,479.49q-2-1.8-2-5.88V465c0-2.75.6-4.72,1.78-5.9s3.15-1.78,5.9-1.78h2.26a6.7,6.7,0,0,1,5.16,1.9,7.87,7.87,0,0,1,1.75,5.54V471h-12.77v3.6a2.94,2.94,0,0,0,.92,2.31,3.9,3.9,0,0,0,2.68.81h7.64v3.6h-7.16C1569.5,481.29,1567.43,480.69,1566.12,479.49Zm10.9-15.72a2.8,2.8,0,0,0-2.88-2.88h-2.79a3.09,3.09,0,0,0-2.42.8,3.42,3.42,0,0,0-.7,2.32v3.36H1577Z"/><path d="M1617.15,457.29v1.11a4.31,4.31,0,0,1,3-1.11h.29c2.24,0,3.82.65,4.75,1.92a5.19,5.19,0,0,1,4.18-1.92h.28a5.68,5.68,0,0,1,4.33,1.49c.92,1,1.39,2.75,1.39,5.28v17.23h-3.84V464a6.39,6.39,0,0,0-.41-2.73c-.27-.51-.89-.77-1.85-.77H1629a2.09,2.09,0,0,0-2,1,4.78,4.78,0,0,0-.6,2.19v17.61h-3.84V464a5.55,5.55,0,0,0-.48-2.76,1.9,1.9,0,0,0-1.73-.74H1620a2.27,2.27,0,0,0-2,.84,3.5,3.5,0,0,0-.62,1.9v18h-3.84v-24Z"/><path d="M1643.88,479.49q-2-1.8-2-5.88V465q0-4.12,1.78-5.9c1.18-1.18,3.15-1.78,5.9-1.78h2.26a6.7,6.7,0,0,1,5.16,1.9,7.87,7.87,0,0,1,1.75,5.54V471H1646v3.6a2.94,2.94,0,0,0,.92,2.31,3.9,3.9,0,0,0,2.68.81h7.64v3.6h-7.16C1647.26,481.29,1645.19,480.69,1643.88,479.49Zm10.9-15.72a2.8,2.8,0,0,0-2.88-2.88h-2.79a3.09,3.09,0,0,0-2.42.8,3.42,3.42,0,0,0-.7,2.32v3.36h8.79Z"/><path d="M1675,480.14a4.83,4.83,0,0,1-1.22-3.65v-25.2h-7.06v-3.6h11.14v28.56a1.38,1.38,0,0,0,.38,1.11,2,2,0,0,0,1.3.33h6.38v3.6h-8.06A4,4,0,0,1,1675,480.14Z"/><path d="M1710,464.49v3.6h-15.6v-3.6Z"/><path d="M1728.94,481.29h-1.64c-2.59,0-4.51-.6-5.78-1.82s-1.9-3.17-1.9-5.86V457.29h4.09v17.28a2.89,2.89,0,0,0,3.12,3.12h2.59a3.06,3.06,0,0,0,2.28-.76,2.94,2.94,0,0,0,.84-1.73V457.29h4.08v24h-3.84v-1.1A6.53,6.53,0,0,1,1728.94,481.29Z"/><path d="M1749.1,457.29v1.16a6.08,6.08,0,0,1,3.84-1.16h1.73q4.21,0,6.19,1.8c1.31,1.2,2,3.17,2,5.88v8.64q0,4-2,5.86c-1.33,1.22-3.38,1.82-6.16,1.82h-5.33v8.16h-4.08V457.29Zm1,4.44a2.61,2.61,0,0,0-.77,1.8v14.16h5.81a3.92,3.92,0,0,0,2.68-.81,2.94,2.94,0,0,0,.92-2.31V464a2.93,2.93,0,0,0-.92-2.3,3.92,3.92,0,0,0-2.68-.82h-2.69A3.06,3.06,0,0,0,1750.11,461.73Z"/><path d="M1786.44,459.43a5.46,5.46,0,0,1-.86,2,23.66,23.66,0,0,1-2.36,2.71l-2.54,2.59v4.61h-4.08V465.5l2.78-2.93a32.15,32.15,0,0,0,2.16-2.44,4.83,4.83,0,0,0,.82-1.47,6.53,6.53,0,0,0,.19-1.8v-2.4a3,3,0,0,0-.86-2.3,3.71,3.71,0,0,0-2.64-.82h-6v-3.65h5.52q8.07,0,8.06,7.2v1.54A17,17,0,0,1,1786.44,459.43Zm-5.37,17.06v4.8h-4.81v-4.8Z"/></g></svg>