<?xml version="1.0" encoding="utf-8"?>
<!-- Generator: Adobe Illustrator 24.2.1, SVG Export Plug-In . SVG Version: 6.00 Build 0)  -->
<svg version="1.1" xmlns="http://www.w3.org/2000/svg" xmlns:xlink="http://www.w3.org/1999/xlink" x="0px" y="0px"
	 viewBox="0 0 3052.7 2434.2" style="enable-background:new 0 0 3052.7 2434.2;" xml:space="preserve">
<style type="text/css">
	.st0{fill:#595959;}
	.st1{fill:#D6D6D6;}
	.st2{fill:#EBECED;}
	.st3{fill:#9FD7FF;}
	.st4{fill:#FF3600;}
	.st5{opacity:0.8;fill:#FFEC00;}
	.st6{opacity:0.8;fill:#00FF00;}
	.st7{opacity:0.8;fill:none;stroke:#004FFF;stroke-width:20;stroke-miterlimit:10;}
</style>
<g id="Layer_2">
	<g>
		<path class="st0" d="M2769.9,2056.4c-5.6-8-328.7-957.2-332.8-959.8c-4.1-2.6-16.7-13.1-26.2-14.2c-9.5-1.1-33.2,11.5-33.2,11.5
			l-853.8,304.3l-798.6-247.5c0,0-42.5-13.8-50.6-12.2c-8.1,1.6-33.2,29.4-33.2,29.4s-270.6,951.5-270.2,968.1
			c0.4,16.6,29.4,34.2,29.4,34.2l958.9,193c0,0,40.9,4.2,54,8.3c21.1,9.2,56,19.1,108.4,18.6c82.9-0.7,126.5-18.3,126.5-18.3
			l19.5-7.7l35.1-10l1044.7-256.3C2747.9,2097.7,2775.5,2064.4,2769.9,2056.4z"/>
		<path class="st1" d="M2397,1120.8l-144-201.3l219.9,927.7c-83,27.3-593.8,196.3-669.2,250.4c-50,35.9-148.4,103-217.6,150
			l-51.8-851.3l-34.8-2l-15.7,895.7c-26.6-25.7-115-111.3-140.6-138.1c-25-26.3-531-185.9-702.9-239.6l200.8-954.7l-145.5,221.3
			l-262.7,918l970.5,243c0,0,57.5-29.6,80.3-39.4l30.9,0.6l133.1,32.3l1048.6-287L2397,1120.8z"/>
		<path class="st2" d="M1508.9,2296.9c0,0,437-259.5,517.6-290.7c80.7-31.1,457.5-165.4,457.5-165.4l-231.3-924
			c0,0-392.6,151.8-488.2,235.9c-95.6,84.1-240.9,242.8-240.9,242.8L1508.9,2296.9z"/>
		<path class="st2" d="M1491.5,2296.9c0,0-320.7-193.8-419.5-230.6s-488.3-172.2-488.3-172.2l257.4-937.1c0,0,264.2,123.3,369.5,202
			c105.4,78.7,304.5,236,304.5,236L1491.5,2296.9z"/>
	</g>
</g>
<g id="Layer_1">
	<path id="Path_6" class="st3" d="M769.7,829.1c-3.3-21.4-32.5-37.1-26.3,8.2c14.1,105.4,107.2,106.4,137.3,105.6
		c30-0.9,37.1-26.7,6.1-27.5C855.7,914.6,790.6,932.7,769.7,829.1z"/>
	<path id="Path_1" class="st3" d="M2466.9,549.5c-18.9-67.9,46.7-153.2,88.8-11c98.4,330.9-175.4,457.6-265.6,495.1
		c-90.1,37.5-145.7-29.6-54.4-73.3C2327.1,916.4,2542.9,884.2,2466.9,549.5z"/>
	<path id="Path_2" class="st3" d="M2412.1,320.5c-21.6-2-38.9-30.3,6.5-26.8c106.1,8,112.4,100.6,113.4,130.9
		c0.9,30-24.5,38.8-27.1,7.6C2502.4,401.2,2516.7,335.4,2412.1,320.5z"/>
	<path id="Path_3" class="st3" d="M2350.9,333.8c1-21.6-24.9-42.8-27.3,3c-6.2,106.1,84.9,124.9,114.6,129.7
		c29.8,4.9,41.7-19.1,11.1-25.8C2418.7,434,2351.7,439.6,2350.9,333.8z"/>
	<path id="Path_4" class="st3" d="M992.3,979.8c-33.3-62.1-139.9-78.2-71.7,53.6c158.3,306.8,443.5,208.4,534.5,173.1
		c91.1-35.5,84.7-122.3-11.5-90.7C1347.4,1147.5,1169.3,1273.8,992.3,979.8z"/>
	<path id="Path_5" class="st3" d="M941.1,751.8c-13.4-17.2-4.8-49.1,23.9-13.7c67.1,82.5,4.2,150.9-17.1,172.3s-44.9,8.8-24.1-14.5
		C944.6,872.8,1002.2,838.1,941.1,751.8z"/>
	<path id="Path_7" class="st4" d="M1799.1,424.9c0.2,16.3,3.6,32.4,10,47.4c13.8,33.6,35.5,64.4,58.2,92.4
		c20,24.8,41.4,53.3,70.6,67.7c20.1,9.8,42.6,13.6,64.3,19.7c8.4-13,16.1-26.4,23-40.3c8-15.4,15.6-32.5,16.2-50.1
		c0.6-19.6-6-40.1-12.5-58.4c-7-18.9-16-36.9-26.9-53.8c-20.5-31.7-46.2-59.5-72.9-86.1l-129.4,44
		C1799.3,413.1,1799.1,419,1799.1,424.9z"/>
	<path id="Path_8" class="st4" d="M1520,730.7c14.9,32,121,62.7,165.3,73c98.8,23,192.8,24.4,233.7-33.8
		c-31.7-36-94.1-68.4-169.6-84.3c-108.4-22.8-205.8-3.3-229.3,43.9C1520.2,729.7,1520.1,730.1,1520,730.7z"/>
	<path id="Path_9" class="st3" d="M1924.3,761.6c-37.8,66.6-135.6,66-238.9,41.9c-44.4-10.4-150.8-41-165.2-73.2
		c-11.7,62.7,39.8,137,124.9,176.9c91.5,43,188.8,30.7,224.3-28.6l0,0l0.8-1.9l2.6-5.6c0-0.2,0.3-0.3,0.3-0.5c0-0.2,0.1-0.4,0.3-0.5
		L1924.3,761.6z"/>
	<path id="Path_10" class="st3" d="M2151.8,501.6l65.7-25.3c11.3-4,18-11.1,16.3-16.1s-11.3-6.4-22.7-2.8l0,0.3l-0.4,0.1l0,0
		l-66.8,20.2c-34.5-88.9-108.4-144.6-172-129.9l-0.1-0.4l-1.8,0.7l-6,2.1c-0.1,0.1-0.4,0.1-0.6,0.3c-0.1,0.1-0.4,0.1-0.6,0.3
		l-56.5,19.2c25.1,10.3,37.2,39,26.9,64.2c-10.3,25.1-39,37.2-64.2,26.9c-25.1-10.3-37.2-39-26.9-64.2c0.9-2.2,1.9-4.3,3.1-6.3
		l-104.8,35.6c5.3,39.6,14.4,78.5,27.4,116.2c35.9,105.9,94.6,189.3,152.6,226.5l172.7-58.6l1.8-0.7l-0.1-0.4
		C2154,682.3,2178.5,593.3,2151.8,501.6z M1921.3,596.9c-19.3-19.1-19.5-50.3-0.3-69.6c19.1-19.3,50.3-19.5,69.6-0.3
		c19.3,19.1,19.5,50.3,0.3,69.6C1971.8,615.8,1940.6,616,1921.3,596.9C1921.3,596.9,1921.3,596.9,1921.3,596.9z"/>
	<path class="st3" d="M1628.9,1698.8c0.3,1.3,0.6,2.6,0.9,4c94.6-66.4,197.5-120.4,303.1-167.2c55.1-24.4,110.9-47.1,167.2-68.6
		c24.2-9.3,48.8-18.1,73.9-25.4l-44.1-336.7c-21.5-101.3-156.4-166.4-308.5-146.5c-152.1,19.9-265.8,117.4-260.4,221L1628.9,1698.8z
		"/>
	<path class="st5" d="M1197.9,589.7c-5.4,25.5-44.1,46.3-67.1,41.5c-23-4.8-38.9-39.3-33.6-64.8c5.4-25.5,28.3-42.3,51.3-37.5
		C1171.4,533.8,1203.2,564.2,1197.9,589.7z"/>
	<path class="st6" d="M1409.5,227.3c0,0-146.8,25.8-158.3,4.6s-4.7-100.2,11.4-112.4s130.1-17.2,140.6-6.5
		C1413.6,123.7,1409.5,227.3,1409.5,227.3z"/>
	<path class="st7" d="M945.4,280.3c-2,15.8-262.9-12.6-276.5-23.5c-13.6-10.9,75.9-150.3,92.4-154.2S947.4,264.5,945.4,280.3z"/>
</g>
</svg>
