<?xml version="1.0" encoding="utf-8"?>
<!-- Generator: Adobe Illustrator 24.0.3, SVG Export Plug-In . SVG Version: 6.00 Build 0)  -->
<svg version="1.1" id="Layer_1" xmlns="http://www.w3.org/2000/svg" xmlns:xlink="http://www.w3.org/1999/xlink" x="0px" y="0px"
	 viewBox="0 0 3052.7 2434.2" style="enable-background:new 0 0 3052.7 2434.2;" xml:space="preserve">
<style type="text/css">
	.st0{fill:#9FD7FF;}
	.st1{fill:#FF3600;}
	.st2{fill:#595959;}
	.st3{fill:#D6D6D6;}
	.st4{fill:#FFFFFF;}
	.st5{opacity:0.8;fill:#FFEC00;}
	.st6{opacity:0.8;fill:#00FF00;}
	.st7{opacity:0.8;fill:none;stroke:#004FFF;stroke-width:20;stroke-miterlimit:10;}
</style>
<path id="Path_6" class="st0" d="M983.4,846.4c-0.4-16.9-21.5-32.1-21.3,3.7c0.3,83.4,72.5,93.6,96,96c23.4,2.4,31.6-17,7.6-20.7
	C1041.6,921.7,989.1,929.1,983.4,846.4z"/>
<path id="Path_1" class="st0" d="M2331.1,801.7c-7.8-54.7,51.9-114.3,70.1,0.5c42.8,267.2-182.9,337.8-256.8,357.8
	c-73.9,20-110.3-37.8-34.8-62.5C2185,1072.7,2356.1,1069.6,2331.1,801.7z"/>
<path id="Path_2" class="st0" d="M2311.7,618.2c-16.6-3.8-27.2-27.5,7.8-20.2c81.7,17,77.2,89.7,74.8,113.2
	c-2.3,23.4-23,27.6-21.9,3.1C2373.7,690.1,2391.5,640.4,2311.7,618.2z"/>
<path id="Path_3" class="st0" d="M2262.8,622.3c3-16.7-15-35.8-21.6-0.5c-15.6,81.8,53.3,105.7,75.9,112.5
	c22.6,6.9,34.4-10.6,11.2-18.9C2305.3,707.1,2252.7,704.6,2262.8,622.3z"/>
<path id="Path_4" class="st0" d="M1141.1,986.2c-19.5-51.6-100.8-75-61.2,34.3c91.8,254.6,323.5,207.1,397.9,188.9
	c74.4-18.3,78.3-86.4,0.3-71.6C1400.1,1152.7,1248.8,1232.8,1141.1,986.2z"/>
<path id="Path_5" class="st0" d="M1124.5,803.8c-8.7-14.7,1.3-38.6,20-8.2c43.8,71-12.1,117.7-30.8,132.2
	c-18.7,14.4-35.8,2.3-17.2-13.7C1115,898.2,1163.2,877.1,1124.5,803.8z"/>
<path id="Path_7" class="st1" d="M1824.7,637c-1.5,12.7-0.5,25.6,2.9,37.9c7.3,27.5,21.1,53.6,35.9,77.8c13,21.3,26.8,45.7,48,59.8
	c14.6,9.6,31.7,14.9,48,21.8c7.8-9.3,15.2-18.9,22-29c7.7-11.2,15.4-23.7,17.7-37.3c2.5-15.2-0.6-31.8-3.8-46.7
	c-3.5-15.4-8.7-30.3-15.4-44.6c-12.7-26.8-29.9-51-47.9-74.4L1827,623.5C1826,627.8,1825.2,632.4,1824.7,637z"/>
<path id="Path_8" class="st1" d="M1576.6,846.2c8.3,26.4,87.7,61,121,73.5c74.5,27.9,147.4,38.6,185.1-2.5
	c-21-31.2-66.2-62.8-123.3-82.8c-82-28.7-159.6-23.5-182.7,10.8C1576.9,845.5,1576.8,845.8,1576.6,846.2z"/>
<path id="Path_9" class="st0" d="M1887.8,911.4c-36.2,47.9-112.1,37.5-189.9,8.2c-33.5-12.6-113-47.2-121-73.7
	c-15.5,47.5,17,110.6,79.1,150.2c66.8,42.8,143.6,43.1,177.2,0.6l0,0l0.8-1.4l2.6-4.1c0.1-0.1,0.3-0.2,0.3-0.4
	c0-0.2,0.1-0.3,0.3-0.4L1887.8,911.4z"/>
<path id="Path_10" class="st0" d="M2091,732.5l53.6-13c9.2-2,15.1-6.8,14.3-10.9c-0.8-4.1-8.1-6.1-17.4-4.5l0,0.2l-0.3,0.1l0,0
	l-54,8.9c-17.8-72.6-69.5-123.4-120.5-118.4l-0.1-0.3l-1.5,0.4l-4.9,1.1c-0.1,0.1-0.3,0.1-0.5,0.2s-0.3,0.1-0.5,0.2l-45.9,9.1
	c18.5,10.6,24.9,34.1,14.4,52.6c-10.6,18.5-34.1,24.9-52.6,14.4c-18.5-10.6-24.9-34.1-14.4-52.6c0.9-1.6,1.9-3.1,3.1-4.6l-85.1,17
	c0.1,31.3,3.2,62.5,9.4,93.1c17.1,86,54.3,156.8,95.6,191.6l140.2-28l1.5-0.4l-0.1-0.3C2074.3,873.2,2102.4,806.5,2091,732.5z
	 M1902.1,783.1c-13.1-16.8-10-41.1,6.8-54.1s41.1-10,54.1,6.8s10,41.1-6.8,54.1C1939.4,802.9,1915.2,799.9,1902.1,783.1
	C1902.1,783.1,1902.1,783.1,1902.1,783.1z"/>
<path id="Path_11" class="st0" d="M2012.6,1199.1c-6.4-80.9-104.6-145.3-224.9-145.3s-218.5,64.2-224.9,145.3v410.8
	c6.4,82.2,104.6,145.3,224.9,145.3s218.5-63.1,224.9-145.3V1199.1z"/>
<g>
	<path class="st2" d="M1057.8,866.5c0.3-2.9,109.1-276,108.7-277.4c-0.4-1.4-1.2-6.1-3.1-8.2c-1.9-2.1-9.6-3.8-9.6-3.8l-248.3-94.8
		L774.6,275c0,0-6.8-11.2-8.9-12.4c-2.1-1.2-13,0.2-13,0.2S511,423.4,507.9,427.2c-3.1,3.8,0.1,13.2,0.1,13.2l177,225.8
		c0,0,8.3,8.7,10.5,12.1c3,6.1,8.9,14.9,20.6,24.8c18.6,15.7,31.7,20,31.7,20l5.8,2l9.7,4.4L1045,871.6
		C1045,871.6,1057.5,869.4,1057.8,866.5z"/>
	<path class="st3" d="M1153,586.9l6.3-72.3l-127.8,248.7c-23.7-9.7-169.8-69.4-196.9-71.7c-18-1.5-52.7-5.3-77.1-8l150.7-199.7
		l-7.4-7.1L726.6,673.5c-1-10.8-4.4-46.7-5-57.6c-0.6-10.6-82.9-142.6-111-187.4L837.2,254l-74.6,21.6L529.1,430.2l170,239.1
		c0,0,18.4,4.4,25.4,6.5l6.8,6l23.5,32.6l288.4,135.9L1153,586.9z"/>
	<path class="st4" d="M730.9,679.9c0,0,146.9,25.4,170.8,33.8c23.9,8.4,133.5,50.3,133.5,50.3L1159.7,514c0,0-116.5-41-153.8-40.4
		c-37.3,0.5-100,8.2-100,8.2L730.9,679.9z"/>
	<path class="st4" d="M727,676.6c0,0-34.6-104.3-49.6-131.3c-15-27-76-131.4-76-131.4l236-159.8c0,0,35.4,77.8,43.9,115.5
		S904.1,480,904.1,480L727,676.6z"/>
	<path class="st5" d="M840.2,427.6c-16.5,7.9-44.6-4.7-51.7-19.5c-7.1-14.8,5.2-38.4,21.6-46.3c16.5-7.9,35.6-2.3,42.7,12.5
		C860,389,856.7,419.6,840.2,427.6z"/>
	<path class="st6" d="M747.3,533.8c0,0-77-70.5-70.1-85.9c6.9-15.5,53.6-45.4,67.3-41.6c13.6,3.7,65.1,64.9,63.6,75.3
		C806.6,491.9,747.3,533.8,747.3,533.8z"/>
	<path class="st7" d="M995.7,703.9c-9.7,5.6-105.2-151.4-105-163.6c0.2-12.2,115.8-22,125.1-14.5S1005.4,698.3,995.7,703.9z"/>
</g>
<path class="st0" d="M1656.1,2170.9c43.7,33.8,42.4,118.3-50.7,48.6c-216.9-162.1-104-370.1-64.8-436
	c39.2-65.9,105.6-49.7,68.6,20.6C1572.2,1874.5,1451.5,1995.9,1656.1,2170.9z"/>
<path class="st0" d="M1628.3,2295.7c-119.2-75-157.5-44.5-203.8,2c-82.9,83.3,7.5,75.2,101.5,72.3
	C1627.9,2366.9,1734.3,2362.4,1628.3,2295.7z"/>
<path class="st0" d="M1972.2,2170.9c43.7,33.8,42.4,118.3-50.7,48.6c-216.9-162.1-104-370.1-64.8-436
	c39.2-65.9,105.6-49.7,68.6,20.6C1888.4,1874.5,1767.6,1995.9,1972.2,2170.9z"/>
<path class="st0" d="M1944.4,2295.7c-119.2-75-157.5-44.5-203.8,2c-82.9,83.3,7.5,75.2,101.5,72.3
	C1944.1,2366.9,2050.4,2362.4,1944.4,2295.7z"/>
</svg>
