<?xml version="1.0" encoding="utf-8"?>
<!-- Generator: Adobe Illustrator 24.2.1, SVG Export Plug-In . SVG Version: 6.00 Build 0)  -->
<svg version="1.1" id="Layer_1" xmlns="http://www.w3.org/2000/svg" xmlns:xlink="http://www.w3.org/1999/xlink" x="0px" y="0px"
	 viewBox="0 0 3052.7 2434.2" style="enable-background:new 0 0 3052.7 2434.2;" xml:space="preserve">
<style type="text/css">
	.st0{fill:#707070;}
	.st1{fill:#9FD7FF;}
	.st2{fill:#FF3600;}
	.st3{fill:#BCBCBC;}
	.st4{fill:#898989;}
</style>
<g>
	<path class="st0" d="M1389,403.4c-4.8-11.2-9.3-22.4-13.6-33.7c-4.3-11.3-8.3-22.7-12.1-34.2c-7.5-23-14.2-46.4-18.4-70.3
		c-2.1-12-3.6-24.1-3.6-36.4c0-6.1,0.3-12.3,1.4-18.5c1.1-6.1,2.8-12.3,5.9-17.9c1.5-2.8,3.5-5.5,5.8-7.8c2.3-2.3,5-4.3,7.9-5.8
		c1.4-0.8,3-1.4,4.4-1.9l4.3-1.5c1.4-0.5,2.9-0.9,4.4-1.4c1.5-0.4,2.9-0.9,4.4-1.3c11.7-3.4,23.6-6,35.5-8.1
		c23.9-4.2,48-6.5,72.2-7.7c12.1-0.6,24.2-0.8,36.3-0.7c12.1,0.1,24.2,0.4,36.2,1.2c12.1,0.7,24.1,1.7,36.1,3.1
		c12,1.4,24,3.1,35.9,5.1c11.9,2,23.8,4.5,35.5,7.3c2.9,0.7,5.9,1.4,8.8,2.2l8.8,2.4c5.8,1.6,11.6,3.1,17.4,4.4
		c11.7,2.6,23.6,4.3,35.5,5.2c6,0.5,12,0.7,18,0.8c6,0.2,12.1,0.3,18.1,0.7c6.1,0.4,12.2,1.1,18.1,2.5c6,1.4,11.8,3.4,17.3,6
		c11.1,5.2,21,12.4,30.3,20.1c9.3,7.8,18,16.2,26.5,24.8c8.4,8.7,16.6,17.6,24.6,26.6c16,18.1,31.4,36.7,46.5,55.4
		c30.1,37.6,61,74.7,93.2,110.5c32.2,35.8,65.7,70.6,101.4,103c17.8,16.2,36.3,31.8,55.4,46.4c19.2,14.6,39,28.3,59.9,40.3
		c20.8,12.1,42.7,22.5,65.5,30.2c5.7,1.9,11.5,3.7,17.3,5.2c5.8,1.5,11.7,2.9,17.6,3.9c1.5,0.3,3,0.5,4.4,0.8l2.2,0.4
		c0.8,0.1,1.4,0.2,2,0c1.3-0.4,2.4-1.4,3.4-2.4c1-1.1,1.9-2.3,2.8-3.5c3.4-4.9,6.2-10.3,9.1-15.5c1.5-2.6,3-5.3,4.6-7.8
		c0.8-1.3,1.7-2.5,2.7-3.7c1-1.2,2-2.3,3.4-3.2c0.7-0.4,1.5-0.8,2.4-0.8c0.9,0,1.7,0.3,2.4,0.6c1.5,0.7,2.6,1.9,3.5,3.1
		c1.9,2.4,3.3,5.2,4.6,7.9c2.5,5.5,4.6,11.2,6.7,16.8c2.1,5.6,4.2,11.3,7.1,16.5c0.7,1.3,1.5,2.6,2.5,3.7c0.9,1.1,2,2.1,3.3,2.6
		c0.6,0.2,1.4,0.3,1.9,0.2c0.6-0.2,1.2-0.6,1.7-1.1c1-1,1.9-2.2,2.7-3.5c1.6-2.5,2.8-5.3,4.1-8c1.2-2.7,2.3-5.5,3.5-8.3l6.5-16.9
		c2.2-5.6,4.4-11.2,7.3-16.6c0.7-1.3,1.5-2.7,2.4-3.9c0.9-1.3,1.8-2.5,3.1-3.5c0.6-0.5,1.4-0.9,2.3-0.9c0.9-0.1,1.8,0.3,2.4,0.8
		c1.3,1.1,2,2.5,2.7,3.9c0.6,1.4,1.1,2.8,1.6,4.3c0.4,1.5,0.9,2.8,1.5,4.2c1.2,2.7,2.7,5.3,4.6,7.6c1.9,2.3,4,4.4,6.5,6.1
		c2.4,1.7,5.2,2.9,8.1,3.5c2.9,0.6,5.9,0.4,8.7-0.5c2.8-0.9,5.4-2.3,7.8-4.2c4.7-3.7,8.3-8.6,11.4-13.7c3.1-5.1,5.6-10.6,7.9-16.2
		c4.7-11.1,9.7-22.1,15-32.9c21.3-43.3,47.6-84.1,77.7-121.8c15.1-18.8,31.1-36.9,48.1-54c17-17.1,35-33.2,54.1-48
		c9.6-7.4,19.4-14.4,29.5-20.9c10.1-6.5,20.6-12.6,31.4-17.9c10.8-5.3,22-10,33.6-13.4c5.8-1.7,11.7-3.1,17.6-4c6-0.9,12-1.4,18-1.2
		c3,0.1,6,0.4,9,0.8c3,0.5,5.9,1.2,8.8,2c5.8,1.8,11.3,4.5,16.1,8.1c2.4,1.8,4.7,3.8,6.7,6c2.1,2.2,3.9,4.6,5.6,7.1
		c1.7,2.5,3.2,5.1,4.5,7.8c1.3,2.7,2.5,5.5,3.5,8.3c4,11.4,5.7,23.5,6.3,35.5c0.6,12.1-0.1,24.1-1.4,36.1c1.2-12,1.9-24.1,1.3-36.1
		c-0.6-12-2.3-24.1-6.4-35.5c-1-2.8-2.2-5.6-3.5-8.3c-1.4-2.7-2.8-5.3-4.5-7.8c-1.7-2.5-3.6-4.8-5.6-7.1c-2.1-2.2-4.3-4.2-6.7-6
		c-4.8-3.6-10.3-6.3-16-8.1c-2.9-0.9-5.8-1.5-8.8-2c-3-0.4-6-0.7-9-0.8c-6-0.2-12,0.3-18,1.2c-6,0.9-11.8,2.3-17.6,4
		c-11.6,3.4-22.7,8.1-33.5,13.4c-10.8,5.3-21.2,11.4-31.4,17.9c-10.1,6.5-19.9,13.6-29.5,20.9c-19.1,14.8-37,30.9-54,48
		c-17,17.1-33,35.2-48,54c-30,37.7-56.2,78.5-77.5,121.8c-5.3,10.8-10.3,21.8-14.9,32.9c-2.3,5.6-4.8,11.1-7.9,16.3
		c-3.1,5.2-6.8,10.1-11.6,13.9c-2.4,1.9-5.1,3.4-8.1,4.3c-2.9,0.9-6.1,1.1-9.2,0.5c-3-0.6-5.9-1.9-8.4-3.6c-2.5-1.7-4.8-3.9-6.7-6.3
		c-1.9-2.4-3.5-5-4.7-7.8c-0.6-1.4-1.1-2.9-1.5-4.3c-0.4-1.4-0.9-2.8-1.6-4.2c-0.6-1.3-1.4-2.6-2.4-3.5c-0.5-0.4-1.1-0.7-1.8-0.6
		c-0.6,0-1.3,0.3-1.8,0.7c-1.1,0.8-2.1,2-2.9,3.2c-0.8,1.2-1.6,2.5-2.3,3.8c-2.8,5.3-5,10.9-7.2,16.5l-6.5,16.9
		c-1.1,2.8-2.2,5.6-3.5,8.4c-1.2,2.8-2.5,5.5-4.1,8.1c-0.8,1.3-1.7,2.6-2.8,3.7c-0.6,0.5-1.3,1.1-2.1,1.3c-0.9,0.2-1.7,0.1-2.5-0.2
		c-1.6-0.6-2.7-1.7-3.7-2.9c-1-1.2-1.8-2.5-2.6-3.8c-3-5.3-5-11-7.2-16.7c-2.1-5.6-4.2-11.3-6.7-16.8c-1.3-2.7-2.7-5.4-4.5-7.7
		c-0.9-1.1-2-2.2-3.2-2.8c-0.6-0.3-1.3-0.5-1.9-0.5c-0.6,0-1.3,0.3-1.8,0.6c-1.2,0.7-2.2,1.8-3.1,3c-0.9,1.1-1.8,2.4-2.6,3.6
		c-1.6,2.5-3.1,5.1-4.6,7.7c-3,5.2-5.7,10.6-9.2,15.6c-0.9,1.2-1.8,2.5-2.8,3.6c-1.1,1.1-2.2,2.2-3.9,2.8c-0.4,0.1-0.9,0.2-1.3,0.2
		c-0.5,0-0.8-0.1-1.2-0.2l-2.2-0.4c-1.5-0.2-3-0.5-4.5-0.8c-6-1.1-11.8-2.4-17.7-3.9c-5.9-1.5-11.6-3.2-17.4-5.2
		c-22.9-7.6-44.8-18.1-65.8-30.2c-20.9-12.1-40.9-25.8-60.1-40.4c-19.2-14.6-37.7-30.2-55.6-46.4c-35.8-32.4-69.4-67.1-101.7-103
		c-32.3-35.8-63.2-72.9-93.5-110.5c-15.2-18.7-30.7-37.2-46.7-55.2c-8-9-16.2-17.8-24.6-26.4c-8.5-8.5-17.2-16.9-26.4-24.5
		c-9.3-7.6-19.1-14.6-29.9-19.6c-5.4-2.5-11-4.5-16.8-5.8c-5.8-1.3-11.7-2-17.7-2.4c-6-0.4-12-0.4-18-0.6c-6-0.1-12.1-0.3-18.1-0.8
		c-12.1-0.8-24.2-2.5-36-5.1c-5.9-1.3-11.8-2.8-17.6-4.4l-8.7-2.3c-2.9-0.7-5.8-1.4-8.8-2.1c-11.7-2.7-23.5-5.1-35.3-7.1
		c-11.9-2-23.8-3.6-35.7-4.9c-12-1.3-23.9-2.2-35.9-2.9c-12-0.7-24-1-36-1c-12,0-24,0.2-36,0.8c-24,1.2-48,3.7-71.6,7.9
		c-11.8,2.1-23.5,4.8-35,8.1c-1.4,0.4-2.8,0.9-4.3,1.3c-1.4,0.5-2.9,0.9-4.2,1.4l-4.2,1.5c-1.4,0.5-2.6,1-3.8,1.7
		c-4.9,2.6-8.8,6.7-11.5,11.7c-2.7,5-4.3,10.6-5.3,16.3c-0.9,5.8-1.3,11.7-1.2,17.6c0.1,11.8,1.6,23.7,3.7,35.5
		c4.3,23.5,11,46.7,18.6,69.4c3.8,11.4,7.9,22.7,12.2,33.9c4.3,11.2,8.8,22.4,13.6,33.3L1389,403.4z"/>
</g>
<g>
	<path class="st0" d="M1825.7,1146.3c4.2,33.8,4.7,67.8,3.6,101.6c-1.2,33.9-4.1,67.6-7.5,101.2c-3.4,33.6-7.2,67.2-10.3,100.8
		c-3.1,33.6-5.6,67.2-6,100.9c-0.3,33.6,1.4,67.4,7.8,100.3c3.2,16.5,7.6,32.7,13.6,48.3c6,15.6,13.4,30.7,22.6,44.6
		c4.6,7,9.6,13.7,15,20.1c5.4,6.4,11.2,12.4,17.3,18.1c12.2,11.4,25.7,21.4,40.1,29.9c14.4,8.6,29.6,15.7,45.2,21.8
		c7.8,3,15.8,5.7,23.8,8.3c8.1,2.5,16.1,5.1,24.1,7.7c32.1,10.4,64.2,21.4,95.7,33.7c15.7,6.2,31.4,12.7,46.7,20
		c7.7,3.6,15.2,7.5,22.6,11.6c7.4,4.1,14.7,8.5,21.9,12.8c7.2,4.3,14.6,8.3,22.3,11.3c7.8,3,15.8,5.3,24,7.3
		c16.3,3.9,33,6.6,49.7,9.2c16.7,2.5,33.4,4.8,50.1,7c8.4,1.1,16.7,2.1,25.1,3.3c8.4,1.3,16.7,2.9,25,5c8.2,2.1,16.4,4.6,24.4,7.3
		c8,2.8,15.9,5.8,23.8,8.8c7.9,3,15.8,5.8,23.9,8.1c8.1,2.3,16.3,3.9,24.6,4.7c16.7,1.7,33.6,0.2,50.1-2.8
		c16.6-3,32.8-7.4,48.9-12.5c32.2-10.2,63.4-23,94.5-36.3c31.1-13.1,62.2-26.2,93.1-39.9c15.4-6.9,30.8-13.9,45.9-21.3
		c15.2-7.4,30.2-15.1,44.8-23.4c14.6-8.4,28.9-17.4,42.3-27.6c6.7-5.1,13.1-10.6,19.1-16.5l2.2-2.2l2.2-2.3c1.5-1.5,2.8-3.1,4.2-4.7
		c2.7-3.2,5.4-6.5,7.7-10l0.9-1.3l0.9-1.3c0.6-0.9,1.1-1.8,1.7-2.7c1.1-1.8,2.1-3.6,3.1-5.5c1-1.8,1.9-3.8,2.8-5.7
		c0.8-1.9,1.6-3.9,2.3-5.9c0.7-2,1.3-4,1.9-6c0.5-2,1-4.1,1.4-6.1c0.4-2.1,0.7-4.1,1-6.2c0.2-2.1,0.4-4.2,0.4-6.3
		c0.4-8.4-0.7-16.8-2.5-25c-1-4.1-2.1-8.1-3.4-12.2l-3.7-12.1l-7.4-24.2l-7.1-24.3c-4.8-16.2-9.3-32.5-13.9-48.7
		c-2.3-8.1-4.5-16.3-6.7-24.4l-6.5-24.5l-6.3-24.5l-3.1-12.3l-3-12.3l-6-24.6l-5.7-24.7l-2.9-12.3l-2.7-12.4l-5.4-24.7l-5.1-24.8
		l-2.6-12.4l-2.4-12.4c-1.6-8.3-3.3-16.6-4.8-24.9l-4.5-24.9l-1.1-6.2l-1.1-6.2l-2.1-12.5l-2.1-12.5c-0.7-4.2-1.3-8.3-2-12.5
		l-3.9-25l-3.6-25.1c-4.7-33.4-8.8-67-12.2-100.6c-3.4-33.6-6.1-67.3-8.1-101c-3.9-67.4-4.8-135.1-2-202.5
		c1.4-33.7,3.7-67.4,7.2-101c3.4-33.6,8-67.1,13.8-100.4c5.8-33.3,12.9-66.3,21.6-98.9c4.4-16.3,9.2-32.5,14.5-48.5
		c2.7-8,5.5-16,8.5-23.9c3-7.9,6.2-15.7,9.8-23.4c-3.6,7.6-6.7,15.5-9.8,23.4c-3,7.9-5.8,15.9-8.5,23.9c-5.4,16-10.1,32.2-14.5,48.5
		c-8.7,32.6-15.8,65.7-21.6,98.9c-5.8,33.3-10.3,66.8-13.7,100.4c-3.5,33.6-5.8,67.3-7.2,101c-2.8,67.5-1.9,135.1,2.1,202.5
		c2,33.7,4.7,67.4,8.1,101c3.5,33.6,7.6,67.1,12.3,100.5l3.7,25.1l3.9,25c0.7,4.2,1.3,8.3,2,12.5l2.1,12.5l2.1,12.5l1.1,6.2l1.1,6.2
		l4.6,24.9c1.5,8.3,3.2,16.6,4.8,24.9l2.4,12.4l2.6,12.4l5.1,24.8l5.4,24.7l2.7,12.4l2.9,12.3l5.7,24.7l6,24.6l3,12.3l3.1,12.3
		l6.3,24.5l6.6,24.5c2.2,8.2,4.3,16.3,6.7,24.4c4.6,16.3,9.1,32.5,13.9,48.7l7.1,24.3l7.4,24.2l3.7,12.1c1.2,4,2.4,8.1,3.4,12.2
		c1.8,8.3,2.9,16.7,2.5,25.2c0,2.1-0.3,4.2-0.4,6.3c-0.3,2.1-0.5,4.2-1,6.3c-0.3,2.1-0.9,4.1-1.4,6.2c-0.6,2-1.2,4.1-1.9,6.1
		c-0.7,2-1.5,4-2.3,5.9c-0.9,1.9-1.7,3.9-2.8,5.7c-0.9,1.9-2,3.7-3.1,5.6c-0.5,0.9-1.1,1.8-1.7,2.7l-0.9,1.3l-0.9,1.3
		c-2.4,3.5-5,6.8-7.7,10.1c-1.4,1.6-2.8,3.2-4.2,4.7l-2.2,2.3l-2.2,2.2c-6,6-12.5,11.5-19.2,16.6c-13.4,10.3-27.7,19.4-42.4,27.8
		c-14.7,8.4-29.7,16.2-44.9,23.6c-15.2,7.4-30.5,14.5-45.9,21.4c-30.8,13.8-61.9,27-93,40.2c-31,13.3-62.3,26.3-94.5,36.7
		c-16.1,5.2-32.4,9.7-49.1,12.8c-16.7,3.1-33.7,4.6-50.7,3c-8.5-0.8-16.9-2.4-25.1-4.7c-8.2-2.3-16.2-5.1-24.1-8.1
		c-7.9-3-15.8-6-23.7-8.7c-8-2.7-16-5.2-24.2-7.2c-8.2-2-16.4-3.6-24.7-4.8c-8.3-1.2-16.7-2.1-25.1-3.2c-16.8-2.1-33.5-4.3-50.2-6.8
		c-16.7-2.5-33.4-5.2-50-9.1c-8.3-2-16.5-4.2-24.5-7.3c-8-3.1-15.6-7.1-22.9-11.4c-7.3-4.3-14.5-8.6-21.9-12.7
		c-7.4-4-14.9-7.8-22.5-11.4c-15.2-7.2-30.8-13.6-46.5-19.7c-31.4-12.1-63.4-22.9-95.6-33.2c-8-2.6-16.1-5.1-24.1-7.6
		c-8.1-2.5-16.1-5.3-24.1-8.3c-15.9-6.1-31.3-13.3-46-22c-14.7-8.7-28.5-18.8-41-30.4c-6.3-5.8-12.2-12-17.7-18.5
		c-5.5-6.5-10.6-13.4-15.4-20.5c-9.4-14.2-17.1-29.6-23.2-45.5c-6.1-15.9-10.6-32.4-13.9-49.1c-6.6-33.4-8.4-67.5-8.1-101.3
		c0.3-33.9,2.7-67.7,5.8-101.3c3.1-33.7,6.8-67.2,10.1-100.8c3.3-33.6,6.1-67.2,7.2-100.9c1.1-33.6,0.5-67.4-3.7-100.7
		L1825.7,1146.3z"/>
</g>
<path id="Path_1" class="st1" d="M1712,1270.8c52.6-16.6,121.3,32.5,11,69.3c-256.7,85.8-363.2-125.4-394.9-195
	c-31.7-69.6,19.3-114.9,55.9-44.5C1420.8,1170.9,1451.9,1339.2,1712,1270.8z"/>
<path id="Path_3" class="st1" d="M1784,1139.6c16.4-4.4,25.9-28.8-8.8-19.7c-80.7,20.8-73,93.2-69.5,116.5
	c3.4,23.4,24.2,26.6,21.9,2.1C1725.3,1214.3,1705.1,1165.6,1784,1139.6z"/>
<path id="Path_4" class="st1" d="M1165.4,495.5c54.8-6.6,97.1-79.8-18.6-67.7c-269.2,28.1-278.7,264.4-278.9,340.9
	c-0.2,76.7,65.1,96.7,69.5,17.5C941.6,707,900.3,540.9,1165.4,495.5z"/>
<path id="Path_5" class="st1" d="M1376.8,451.8c11.7-12.5,37.4-9.7,13.5,16.9c-55.8,62-116.4,21.6-135.5,7.7
	c-19.1-13.9-12.3-33.7,8.3-20.4C1283.5,469.2,1317.4,509.6,1376.8,451.8z"/>
<path id="Path_7" class="st2" d="M1667.1,583c-5.9,11.3-9.6,23.7-10.8,36.4c-2.9,28.4,0.5,57.6,5.8,85.4c4.6,24.6,8.7,52.2,23.6,73
	c10.3,14.2,24.3,25.2,37.1,37.5c10.7-5.9,20.9-12.3,30.9-19.2c11.2-7.7,22.9-16.5,29.9-28.5c7.7-13.3,10.8-30,13.1-44.9
	c2.2-15.6,2.7-31.4,1.5-47.1c-2.3-29.5-9.8-58.3-18.2-86.5l-105.6-17.8C1671.6,574.9,1669.2,578.8,1667.1,583z"/>
<path id="Path_8" class="st2" d="M1360.7,690.1c-1.7,27.6,60.2,88.3,86.8,111.8c59.6,52.7,123.9,88.6,173.8,63.7
	c-8.5-36.6-39.5-82.3-85.7-121.3c-66.3-56-140.7-78.8-174.5-55C1361.2,689.5,1361,689.7,1360.7,690.1z"/>
<path id="Path_9" class="st1" d="M1628.2,861.9c-50.8,31.9-118.1-4.9-180.4-60c-26.9-23.7-88.8-84.4-86.8-112
	c-31.4,38.8-23.5,109.4,20.4,168.5c47.1,63.8,118.8,91.5,165.4,63.7l0,0l1.3-1l3.8-2.9c0.2-0.1,0.3-0.1,0.4-0.3
	c0.1-0.2,0.2-0.3,0.4-0.3L1628.2,861.9z"/>
<path id="Path_10" class="st1" d="M1881.9,767.2l54.7,7c9.3,1.4,16.5-0.9,17.2-5c0.7-4.1-5.4-8.7-14.6-10.4l-0.1,0.2l-0.3,0l0,0
	l-53.6-10.9c9.2-74.2-20.9-140.1-70.3-153.6l0-0.3l-1.5-0.2l-5-0.8c-0.1,0.1-0.3,0-0.5,0c-0.1,0.1-0.3,0-0.5,0l-46.2-7.8
	c13.5,16.4,11.1,40.8-5.3,54.3c-16.4,13.5-40.8,11.1-54.3-5.3c-13.5-16.4-11.1-40.8,5.3-54.3c1.4-1.1,2.9-2.3,4.5-3.1l-85.5-14.4
	c-11,29.3-19.2,59.5-24.4,90.4c-14.6,86.4-5.1,165.8,21,213.1l141,23.8l1.5,0.2l0-0.3C1816.1,892.7,1866.2,840.3,1881.9,767.2z
	 M1687.3,747.1c-6.2-20.4,5.3-41.9,25.7-48.1c20.4-6.2,41.9,5.3,48.1,25.7c6.2,20.4-5.3,41.9-25.7,48.1
	C1715.1,778.9,1693.5,767.5,1687.3,747.1L1687.3,747.1z"/>
<path id="Path_11" class="st1" d="M1392.6,1095.6c45.2-67.4,8.1-178.8-86.2-253.5c-94.3-74.7-211.2-85.3-266.5-25.7l-255,322.1
	c-46,68.4-8.1,178.8,86.2,253.5c94.3,74.7,210.5,86.2,266.5,25.7L1392.6,1095.6z"/>
<path class="st1" d="M388.9,1505.7c-11.4,54.1-88,89.6-65.8-24.5c51.7-265.8,288.1-254.6,364.4-247.9c76.4,6.7,90.6,73.5,11.3,70.8
	C619.4,1301.3,457.5,1245.3,388.9,1505.7z"/>
<path class="st1" d="M264.4,1534.9c15.7-140-28.4-161.2-90.4-182.6c-111.1-38.5-64.5,39.4-21,122.9
	C200.2,1565.5,250.4,1659.4,264.4,1534.9z"/>
<path class="st1" d="M1192.8,1911c49.7,24.1,65.8,107-39.6,58c-245.5-114.1-177.8-340.8-153-413.4c24.8-72.5,93.1-70.3,71.4,6.1
	C1049.9,1638.1,956.7,1781.7,1192.8,1911z"/>
<path class="st1" d="M1191.3,2038.8c-132.1-48.9-163.3-11.2-199,43.8c-64,98.6,22.8,72.1,114.2,49.9
	C1205.5,2108.5,1308.7,2082.3,1191.3,2038.8z"/>
<g>
	<g>
		<polygon class="st3" points="1847.3,933.6 1847.3,933.6 1847.3,933.6 		"/>
		<polygon class="st3" points="1686.4,971.4 1686.4,971.4 1686.4,971.4 		"/>
		<path class="st3" d="M1777.7,998.8c-44.4,10.4-85.3-1.8-91.3-27.4l46.9,199.5c6,25.6,46.9,37.8,91.3,27.4
			c44.4-10.4,75.6-39.6,69.6-65.2l-46.9-199.5C1853.3,959.1,1822.2,988.3,1777.7,998.8z"/>
	</g>
	
		<ellipse transform="matrix(0.9735 -0.2289 0.2289 0.9735 -171.098 429.6741)" class="st4" cx="1766.9" cy="952.5" rx="82.6" ry="47.6"/>
</g>
<g>
	<g>
		<polygon class="st3" points="1391.8,540.8 1391.8,540.8 1391.8,540.8 		"/>
		<polygon class="st3" points="1533.3,455.4 1533.3,455.4 1533.3,455.4 		"/>
		<path class="st3" d="M1438,457.3c39.1-23.6,81.8-24.4,95.3-1.9l-105.8-175.5c-13.6-22.5-56.2-21.6-95.3,1.9s-59.8,60.9-46.2,83.4
			l105.8,175.5C1378.2,518.3,1398.9,480.9,1438,457.3z"/>
	</g>
	
		<ellipse transform="matrix(0.8564 -0.5163 0.5163 0.8564 -47.1737 826.5529)" class="st4" cx="1462.5" cy="498.1" rx="82.6" ry="47.6"/>
</g>
<path id="Path_2" class="st1" d="M1822.8,1146.6c-3.6-16.6,13.3-36.3,21.6-1.5c19.4,81.1-48.3,108-70.6,115.9
	c-22.2,7.8-34.8-9-12.1-18.5C1784.1,1233.4,1836.7,1228.4,1822.8,1146.6z"/>
<path id="Path_6" class="st1" d="M1346.4,334.3c16.6,3.2,36-14.3,0.8-21.6c-81.6-17.2-106.7,51.3-114,73.7
	c-7.2,22.4,10,34.4,18.7,11.8C1260.7,375.5,1264.3,322.6,1346.4,334.3z"/>
</svg>
