<svg id="Layer_1" data-name="Layer 1" xmlns="http://www.w3.org/2000/svg" viewBox="0 0 1968.67 1771.78"><defs><style>.cls-1{fill:#9fd7ff;}.cls-2{fill:#595959;}.cls-3{fill:#ff3600;}.cls-4{fill:#d6d6d6;}.cls-5{fill:#fff;}.cls-6{fill:#ffec00;}.cls-6,.cls-7,.cls-8{opacity:0.8;}.cls-7{fill:lime;}.cls-8{fill:none;stroke:#004fff;stroke-miterlimit:10;stroke-width:20px;}</style></defs><title>Artboard 1</title><path id="Path_6" data-name="Path 6" class="cls-1" d="M556.45,701.16c4.58-16.31-11.19-37-21.46-2.69-24.08,79.84,42,110.71,63.76,119.84s35.18-7,13.29-17.64S537.8,781.9,556.45,701.16Z"/><path class="cls-2" d="M649,769.48c.26-2.85,109.12-276,108.7-277.37s-1.21-6.1-3.13-8.16-9.58-3.78-9.58-3.78L496.66,385.33,365.79,178s-6.84-11.17-9-12.37-13,.24-13,.24S102.19,326.39,99.12,330.18s0,13.24,0,13.24l177,225.75s8.31,8.74,10.47,12.14c2.95,6.05,8.86,14.93,20.6,24.8,18.62,15.66,31.71,20,31.71,20l5.82,2,9.72,4.44L636.21,774.51S648.72,772.34,649,769.48Z"/><path id="Path_1" data-name="Path 1" class="cls-1" d="M1800.34,801.74c-7.81-54.67,51.85-114.33,70.13.47,42.8,267.24-182.9,337.83-256.78,357.83s-110.27-37.8-34.83-62.48S1825.33,1069.6,1800.34,801.74Z"/><path id="Path_2" data-name="Path 2" class="cls-1" d="M1781,618.22c-16.55-3.76-27.18-27.49,7.81-20.16,81.69,17,77.16,89.66,74.82,113.24s-23,27.65-21.87,3.12C1843,690.06,1860.78,640.39,1781,618.22Z"/><path id="Path_3" data-name="Path 3" class="cls-1" d="M1732.08,622.28c3-16.72-15-35.77-21.55-.47-15.62,81.84,53.26,105.74,75.91,112.45,22.64,6.88,34.36-10.62,11.24-18.9S1721.93,704.59,1732.08,622.28Z"/><path id="Path_4" data-name="Path 4" class="cls-1" d="M666.48,880.87c-3.63-55.08-74.48-101.16-68.56,15,13.52,270.31,249,292.49,325.41,296.79s100.1-59.84,21.15-68.45S697.54,1148.11,666.48,880.87Z"/><path id="Path_5" data-name="Path 5" class="cls-1" d="M703.87,701.58c-4-16.59,12.48-36.59,21.49-2,21.18,80.66-45.89,109.08-68,117.42s-34.94-8.26-12.48-18.12C667.16,789.08,719.5,782.94,703.87,701.58Z"/><path id="Path_7" data-name="Path 7" class="cls-3" d="M1293.92,637a98.42,98.42,0,0,0,2.91,37.88c7.34,27.52,21.09,53.63,35.86,77.75,13,21.34,26.76,45.67,48,59.8,14.59,9.63,31.74,14.91,48,21.85a343.72,343.72,0,0,0,22-29c7.74-11.16,15.44-23.66,17.71-37.29,2.46-15.16-.57-31.79-3.81-46.67a215,215,0,0,0-15.44-44.57c-12.67-26.75-29.88-51-47.86-74.37l-105.06,21.07C1295.29,627.79,1294.5,632.37,1293.92,637Z"/><path id="Path_8" data-name="Path 8" class="cls-3" d="M1045.88,846.25c8.29,26.41,87.69,61,121,73.54,74.45,27.91,147.35,38.57,185.08-2.49-21-31.2-66.22-62.77-123.26-82.76-82-28.73-159.59-23.5-182.69,10.77C1046.14,845.51,1046,845.81,1045.88,846.25Z"/><path id="Path_9" data-name="Path 9" class="cls-1" d="M1357,911.44c-36.15,47.91-112.11,37.5-189.91,8.25-33.49-12.57-113-47.23-121-73.68-15.5,47.53,17,110.56,79.1,150.2,66.77,42.76,143.63,43,177.23.55h0l.81-1.37,2.58-4.06c.05-.15.25-.25.31-.39a.56.56,0,0,1,.3-.4Z"/><path id="Path_10" data-name="Path 10" class="cls-1" d="M1560.3,732.47l53.61-13c9.15-2,15.1-6.79,14.28-10.89s-8.13-6.15-17.35-4.52l0,.22-.34.07h0l-54,8.9C1538.67,640.7,1487,589.89,1436,594.84l-.07-.34-1.49.37-4.92,1c-.13.1-.35.07-.47.16s-.34.07-.47.17l-45.89,9.14a38.56,38.56,0,1,1-52.6,14.37,39.06,39.06,0,0,1,3.05-4.57l-85.06,17a473.68,473.68,0,0,0,9.43,93.13c17.13,86,54.31,156.77,95.57,191.57l140.22-28,1.49-.37-.07-.34C1543.6,873.19,1571.69,806.48,1560.3,732.47Zm-188.92,50.6a38.58,38.58,0,1,1,54.14,6.81,38.57,38.57,0,0,1-54.14-6.81Z"/><path id="Path_11" data-name="Path 11" class="cls-1" d="M1481.87,1199.08c-6.41-80.9-104.65-145.25-224.92-145.25S1038.44,1118,1032,1199.08v410.78c6.4,82.16,104.65,145.26,224.91,145.26s218.51-63.1,224.92-145.26Z"/><path class="cls-4" d="M744.14,489.86l6.26-72.31L622.64,666.26c-23.7-9.74-169.78-69.41-196.9-71.71-18-1.52-52.7-5.31-77.08-8L499.33,386.86,492,379.78,317.78,576.45c-1-10.78-4.43-46.72-5-57.58-.56-10.64-82.93-142.62-111-187.36L428.42,156.94l-74.61,21.59L120.31,333.12l170,239.09s18.45,4.36,25.42,6.52l6.79,6,23.52,32.55L634.52,753.17Z"/><path class="cls-5" d="M322.05,582.82s146.87,25.4,170.79,33.83S626.34,667,626.34,667l124.5-250s-116.46-41-153.79-40.44-99.95,8.22-99.95,8.22Z"/><path class="cls-5" d="M318.17,579.5S283.6,475.2,268.59,448.17s-76-131.43-76-131.43l236-159.84s35.39,77.83,43.88,115.45S495.29,383,495.29,383Z"/><path class="cls-6" d="M431.41,330.51c-16.45,7.92-44.55-4.73-51.69-19.55s5.18-38.37,21.63-46.29,35.57-2.33,42.7,12.49S447.86,322.59,431.41,330.51Z"/><path class="cls-7" d="M338.52,436.72s-76.95-70.47-70.07-85.93,53.63-45.37,67.26-41.64,65.06,64.92,63.58,75.29S338.52,436.72,338.52,436.72Z"/><path class="cls-8" d="M586.89,606.87c-9.66,5.64-105.21-151.36-105-163.55s115.81-22,125.1-14.49S596.56,601.24,586.89,606.87Z"/></svg>