<?xml version="1.0" encoding="utf-8"?>
<!-- Generator: Adobe Illustrator 24.0.3, SVG Export Plug-In . SVG Version: 6.00 Build 0)  -->
<svg version="1.1" id="Layer_1" xmlns="http://www.w3.org/2000/svg" xmlns:xlink="http://www.w3.org/1999/xlink" x="0px" y="0px"
	 viewBox="0 0 1968.7 1771.8" style="enable-background:new 0 0 1968.7 1771.8;" xml:space="preserve">
<style type="text/css">
	.st0{fill:#FFFFFF;}
	.st1{fill:#FF3600;stroke:#FF3600;stroke-miterlimit:10;}
	.st2{fill:#FF3600;}
</style>
<path id="Path_6" class="st0" d="M193.1,808c-5.7-13.7-27.7-19.4-16.2,9.8c26.6,67.8,88.7,53.3,108.6,47.8
	c19.8-5.5,20.4-23.8-0.4-19.3S223.9,873.5,193.1,808z"/>
<path id="Path_1" class="st0" d="M962.6,169.8c-34.9-33.3-26.2-106.5,48.4-37.6c173.8,160.4,57,330.9,17,384.5
	c-39.9,53.7-96.2,33.6-57.7-24.1C1008.7,434.8,1124.5,340.2,962.6,169.8z"/>
<path id="Path_2" class="st0" d="M850.1,54.2c-13.4,6.4-33.5-4.2-5.5-18.1C909.9,3.7,946,56,957.2,73.5c11.1,17.4-0.8,31.4-13.3,14
	C931.5,70,916.9,26.3,850.1,54.2z"/>
<path id="Path_3" class="st0" d="M818.7,83.4c-7-13.1-29.6-16.5-15.1,11.3c33.5,64.6,93.7,43.8,112.9,36.2
	c19.3-7.5,17.9-25.9-2.5-19.1C893.7,118.7,856.2,145.4,818.7,83.4z"/>
<path id="Path_4" class="st0" d="M365.8,872c-32.3-35.9-105.8-29.2-39,47.3c155.4,178.3,329.1,66.3,383.9,28
	c54.9-38.5,36.4-95.2-22.5-58.4C629.5,925.6,531.6,1038.7,365.8,872z"/>
<path id="Path_5" class="st0" d="M294.6,728.6c-11.7-9.2-11.2-31.9,13.7-13c58.1,43.9,27.4,99.7,16.7,117.4s-28.5,13.2-18.4-5.7
	C316.7,808.5,349.3,776,294.6,728.6z"/>
<path id="Path_8" class="st1" d="M517.8,617.1c20,13.7,93.2-5.5,122.9-14.9c66.2-21.1,122-53.1,125.8-101.7
	c-31.3-10.1-79.4-7.3-129.4,9.8c-71.8,24.6-122.3,70.1-119.6,106.1C517.6,616.4,517.7,616.7,517.8,617.1z"/>
<path id="Path_9" class="st0" d="M766.7,493.7c1.1,52.4-56.7,86.3-126,108.3c-29.8,9.5-103.2,28.7-122.9,14.8
	c15,41,71.4,66.7,135.5,60.4c69-6.7,121.9-48.1,122-95.4l0,0l-0.2-1.4l-0.4-4.2c0-0.1,0-0.3,0-0.4c-0.1-0.1-0.1-0.3,0-0.4
	L766.7,493.7z"/>
<path id="Path_10" class="st0" d="M809.6,260.9l29.8-37.9c5.2-6.3,6.7-12.8,3.9-15.2c-2.8-2.4-8.9,0.2-14.4,6.3l0.1,0.2l-0.2,0.2
	l0,0l-32.3,35.3c-51.5-40.2-114.4-47.2-146.7-16.2l-0.2-0.2l-0.8,1.1l-2.8,3.4c0,0.1-0.2,0.2-0.2,0.4c0,0.1-0.2,0.2-0.2,0.4
	L619,269.6c18.4-2.7,35.5,10,38.3,28.4s-10,35.5-28.4,38.3c-18.4,2.7-35.5-10-38.3-28.4c-0.2-1.6-0.4-3.2-0.4-4.8L541,360.8
	c16.9,21.4,36,41.2,56.8,58.9c58.2,49.8,122,78.3,169.2,79.9l81.2-95l0.8-1.1l-0.2-0.2C874.2,366.6,857.4,305.6,809.6,260.9z
	 M707.2,397.7c-18.1-4.5-29.1-22.8-24.6-40.9c4.5-18.1,22.8-29.1,40.9-24.6c18.1,4.5,29.1,22.8,24.6,40.9
	C743.6,391.2,725.3,402.2,707.2,397.7C707.2,397.7,707.2,397.7,707.2,397.7z"/>
<path id="Path_11" class="st0" d="M1052.3,619.2c-48.1-52.1-150.4-43.2-233,21.8s-115.4,162.2-76,221.3l222,282.1
	c48.8,53,150.4,43.2,233-21.8c82.6-65,116-161.4,76-221.3L1052.3,619.2z"/>
<path class="st2" d="M707.2,397.8c18.1,4.5,36.3-6.5,40.8-24.6c4.5-18.1-6.5-36.4-24.6-40.9c-18.1-4.5-36.4,6.5-40.9,24.6
	C678.1,375,689.1,393.2,707.2,397.8C707.2,397.7,707.2,397.7,707.2,397.8z"/>
<path class="st2" d="M632,270.6c-4.5-1.1-9.1-1.3-13.4-0.6l-28.5,33.3c0,15.1,10.2,28.9,25.6,32.8c0,0,0,0,0,0
	c18.1,4.5,36.3-6.5,40.8-24.6C661.1,293.4,650.1,275.1,632,270.6z"/>
<path id="Path_6_1_" class="st0" d="M1822.9,957c5.7,13.7,27.7,19.4,16.2-9.8c-26.6-67.8-88.7-53.3-108.6-47.8
	c-19.8,5.5-20.4,23.8,0.4,19.3C1751.7,914.2,1792.1,891.5,1822.9,957z"/>
<path id="Path_1_1_" class="st0" d="M1053.4,1595.2c34.9,33.3,26.2,106.5-48.4,37.6c-173.8-160.4-57-330.9-17-384.5
	c39.9-53.7,96.2-33.6,57.7,24.1C1007.2,1330.2,891.5,1424.8,1053.4,1595.2z"/>
<path id="Path_2_1_" class="st0" d="M1165.9,1710.8c13.4-6.4,33.5,4.2,5.5,18.1c-65.3,32.5-101.4-19.9-112.6-37.3
	c-11.1-17.4,0.8-31.4,13.3-14C1084.5,1695,1099.1,1738.7,1165.9,1710.8z"/>
<path id="Path_3_1_" class="st0" d="M1197.3,1681.6c7,13.1,29.6,16.5,15.1-11.3c-33.5-64.6-93.7-43.8-112.9-36.2
	c-19.3,7.5-17.9,25.9,2.5,19.1C1122.3,1646.3,1159.8,1619.6,1197.3,1681.6z"/>
<path id="Path_4_1_" class="st0" d="M1650.2,893.1c32.3,35.9,105.8,29.2,39-47.3c-155.4-178.3-329.1-66.3-383.9-28
	c-54.9,38.5-36.4,95.2,22.5,58.4C1386.5,839.4,1484.4,726.3,1650.2,893.1z"/>
<path id="Path_5_1_" class="st0" d="M1721.4,1036.4c11.7,9.2,11.2,31.9-13.7,13c-58.1-43.9-27.4-99.7-16.7-117.4
	c10.7-17.7,28.5-13.2,18.4,5.7C1699.3,956.5,1666.7,989,1721.4,1036.4z"/>
<path id="Path_8_1_" class="st1" d="M1498.2,1148c-20-13.7-93.2,5.5-122.9,14.9c-66.2,21.1-122,53.1-125.8,101.7
	c31.3,10.1,79.4,7.3,129.4-9.8c71.8-24.6,122.3-70.1,119.6-106.1C1498.4,1148.6,1498.3,1148.4,1498.2,1148z"/>
<path id="Path_9_1_" class="st0" d="M1249.3,1271.4c-1.1-52.4,56.7-86.3,126-108.3c29.8-9.5,103.2-28.7,122.9-14.8
	c-15-41-71.4-66.7-135.5-60.4c-69,6.7-121.9,48.1-122,95.4l0,0l0.2,1.4l0.4,4.2c0,0.1,0,0.3,0,0.4c0.1,0.1,0.1,0.3,0,0.4
	L1249.3,1271.4z"/>
<path id="Path_10_1_" class="st0" d="M1206.4,1504.1l-29.8,37.9c-5.2,6.3-6.7,12.8-3.9,15.2c2.8,2.4,8.9-0.2,14.4-6.3l-0.1-0.2
	l0.2-0.2l0,0l32.3-35.3c51.5,40.2,114.4,47.2,146.7,16.2l0.2,0.2l0.8-1.1l2.8-3.4c0-0.1,0.2-0.2,0.2-0.4s0.2-0.2,0.2-0.4l26.6-31.1
	c-18.4,2.7-35.5-10-38.3-28.4c-2.7-18.4,10-35.5,28.4-38.3c18.4-2.7,35.5,10,38.3,28.4c0.2,1.6,0.4,3.2,0.4,4.8l49.2-57.7
	c-16.9-21.4-36-41.2-56.8-58.9c-58.2-49.8-122-78.3-169.2-79.9l-81.2,95l-0.8,1.1l0.2,0.2
	C1141.8,1398.5,1158.6,1459.5,1206.4,1504.1z M1308.8,1367.3c18.1,4.5,29.1,22.8,24.6,40.9c-4.5,18.1-22.8,29.1-40.9,24.6
	c-18.1-4.5-29.1-22.8-24.6-40.9C1272.4,1373.8,1290.7,1362.8,1308.8,1367.3C1308.8,1367.3,1308.8,1367.3,1308.8,1367.3z"/>
<path class="st2" d="M1308.8,1367.3c-18.1-4.5-36.3,6.5-40.8,24.6c-4.5,18.1,6.5,36.4,24.6,40.9c18.1,4.5,36.4-6.5,40.9-24.6
	C1337.9,1390.1,1326.9,1371.8,1308.8,1367.3C1308.8,1367.3,1308.8,1367.3,1308.8,1367.3z"/>
<path class="st2" d="M1384,1494.4c4.5,1.1,9.1,1.3,13.4,0.6l28.5-33.3c0-15.1-10.2-28.9-25.6-32.8c0,0,0,0,0,0
	c-18.1-4.5-36.3,6.5-40.8,24.6C1354.9,1471.7,1365.9,1490,1384,1494.4z"/>
</svg>
