<svg id="Layer_1" data-name="Layer 1" xmlns="http://www.w3.org/2000/svg" viewBox="0 0 300 300"><defs><style>.cls-1{fill:#fff492;}.cls-2{fill:#8f8;}.cls-3{fill:#8db6ff;}</style></defs><title>Artboard 1</title><path class="cls-1" d="M81.14,50.89c-5.25,2.52-14.22-1.51-16.5-6.24s1.66-12.24,6.91-14.77,11.34-.74,13.62,4S86.39,48.36,81.14,50.89Z"/><path class="cls-2" d="M51.5,84.78S26.94,62.29,29.14,57.36,46.25,42.88,50.6,44.07s20.76,20.72,20.29,24S51.5,84.78,51.5,84.78Z"/><path class="cls-3" d="M130.55,143.56a5.4,5.4,0,0,1-2.77-.8c-3.22-1.89-10-11.09-20-27.35-3.83-6.19-7.42-12.28-10.1-17.15-4.55-8.28-4.89-10-4.86-11.47s.76-3.76,4-5.29c5.38-2.49,18.46-3.72,22.35-4,17.38-1.41,19.66.44,20.76,1.33,2,1.6,2.38,4.24,2.42,8.53,0,2.86-.13,6.65-.49,11.27-.62,8.17-1.81,18.32-3.11,26.47-2.35,14.86-3.76,16.65-5.8,17.84A4.81,4.81,0,0,1,130.55,143.56ZM102.76,88.84c2,4.08,6.54,12.19,13,22.53,5.82,9.37,10.16,15.71,13,19.49.9-4.43,2-11.3,3.06-20.35,1.52-13,1.83-21.05,1.67-24.55a109.67,109.67,0,0,0-15.78.57A99.43,99.43,0,0,0,102.76,88.84ZM135.2,86.2Z"/><path class="cls-1" d="M254.89,196.45c-5.25,2.52-14.21-1.51-16.49-6.24s1.65-12.24,6.9-14.77,11.35-.74,13.62,4S260.14,193.92,254.89,196.45Z"/><path class="cls-2" d="M183.88,243.37s-.19-33.29,4.92-35,22.25,2.72,24.33,6.72-1.09,29.3-3.83,31.21S183.88,243.37,183.88,243.37Z"/><path class="cls-3" d="M222.53,276.31a5.43,5.43,0,0,1-1.22-2.61c-.7-3.67,1.77-14.81,7.35-33.09,2.13-7,4.34-13.67,6.24-18.9,3.22-8.88,4.31-10.29,5.41-11.22s3.33-1.91,6.64-.45c5.42,2.4,15,11.43,17.77,14.14,12.52,12.13,12.64,15.07,12.7,16.49.1,2.54-1.62,4.57-4.82,7.44-2.13,1.91-5.09,4.28-8.79,7.06-6.56,4.92-15,10.72-21.94,15.13-12.72,8-15,8.16-17.24,7.41A4.93,4.93,0,0,1,222.53,276.31Zm22.81-57c-1.74,4.2-4.85,12.95-8.39,24.6-3.2,10.55-5.1,18-6.07,22.63,3.92-2.25,9.82-5.95,17.32-11.12,10.76-7.43,17-12.52,19.55-14.94A108.33,108.33,0,0,0,256.91,229,100,100,0,0,0,245.34,219.33ZM268.71,242Z"/><path class="cls-1" d="M124.82,229c2.92,5-.43,14.29-5,16.92s-12.33-.72-15.25-5.76-1.6-11.26,2.94-13.89S121.91,224,124.82,229Z"/><path class="cls-2" d="M15.24,203.76s26-20.84,30.5-17.92S57.44,205,55.6,209.07,32,226.43,28.78,225.46,15.24,203.76,15.24,203.76Z"/><path class="cls-3" d="M34.42,264.43a5.38,5.38,0,0,1,1.45-2.49c2.62-2.67,13.19-7,31.39-12.78C74.2,247,81,245,86.36,243.53c9.13-2.4,10.92-2.31,12.3-1.93s3.46,1.65,4.15,5.2c1.12,5.82-.88,18.82-1.51,22.66-2.86,17.2-5.21,19-6.34,19.82-2,1.53-4.68,1.28-8.86.28-2.78-.67-6.42-1.75-10.81-3.21-7.78-2.59-17.33-6.21-24.92-9.44-13.85-5.89-15.25-7.69-15.9-10A4.94,4.94,0,0,1,34.42,264.43Zm59.83-13.67c-4.44,1-13.41,3.38-25,7.1-10.51,3.37-17.71,6.05-22.07,7.89,4.07,1.94,10.48,4.69,19,7.91,12.23,4.62,20,6.88,23.4,7.57a107.78,107.78,0,0,0,3.29-15.44A99.25,99.25,0,0,0,94.25,250.76ZM89,282.86Z"/><path class="cls-1" d="M198.84,111.89c3.12-4.92,12.87-6.22,17.3-3.41s5.06,11.27,1.93,16.19-9.24,6.62-13.67,3.81S195.71,116.81,198.84,111.89Z"/><path class="cls-2" d="M199.89,27.18s32.73,6.13,33.47,11.48S226.46,60,222.14,61.27s-28.56-6.63-29.91-9.69S199.89,27.18,199.89,27.18Z"/><path class="cls-3" d="M220.09,73.8a5.39,5.39,0,0,1,2.78-.78c3.73-.09,14.31,4.17,31.43,12.67,6.52,3.23,12.78,6.51,17.63,9.24,8.24,4.63,9.45,5.93,10.18,7.16s1.35,3.6-.64,6.63c-3.24,5-13.72,12.91-16.85,15.22-14,10.37-16.94,10-18.34,9.83-2.53-.31-4.25-2.34-6.56-6-1.53-2.42-3.39-5.72-5.53-9.83-3.78-7.28-8.12-16.52-11.33-24.12C217,80,217.26,77.73,218.37,75.64A4.92,4.92,0,0,1,220.09,73.8Zm52.49,31.81c-3.87-2.4-12-6.9-22.9-12.29-9.89-4.89-16.92-8-21.34-9.69,1.58,4.23,4.26,10.66,8.14,18.9,5.57,11.83,9.57,18.84,11.54,21.73a108.2,108.2,0,0,0,13.11-8.81A98.53,98.53,0,0,0,272.58,105.61ZM246.43,125Z"/></svg>